<?xml version="1.0" encoding="utf-8" standalone="no"?>
<!DOCTYPE svg PUBLIC "-//W3C//DTD SVG 1.1//EN"
  "http://www.w3.org/Graphics/SVG/1.1/DTD/svg11.dtd">
<svg xmlns:xlink="http://www.w3.org/1999/xlink" width="1304.437547pt" height="591.51675pt" viewBox="0 0 1304.437547 591.51675" xmlns="http://www.w3.org/2000/svg" version="1.1">
 <metadata>
  <rdf:RDF xmlns:dc="http://purl.org/dc/elements/1.1/" xmlns:cc="http://creativecommons.org/ns#" xmlns:rdf="http://www.w3.org/1999/02/22-rdf-syntax-ns#">
   <cc:Work>
    <dc:type rdf:resource="http://purl.org/dc/dcmitype/StillImage"/>
    <dc:date>2023-04-07T18:31:40.357422</dc:date>
    <dc:format>image/svg+xml</dc:format>
    <dc:creator>
     <cc:Agent>
      <dc:title>Matplotlib v3.7.1, https://matplotlib.org/</dc:title>
     </cc:Agent>
    </dc:creator>
   </cc:Work>
  </rdf:RDF>
 </metadata>
 <defs>
  <style type="text/css">*{stroke-linejoin: round; stroke-linecap: butt}</style>
 </defs>
 <g id="figure_1">
  <g id="patch_1">
   <path d="M 0 591.51675 
L 1304.437547 591.51675 
L 1304.437547 -0 
L 0 -0 
z
" style="fill: #ffffff"/>
  </g>
  <g id="axes_1">
   <g id="patch_2">
    <path d="M 160.9429 201.042 
L 456.401316 201.042 
L 456.401316 81.456 
L 160.9429 81.456 
z
" style="fill: #eaeaf2"/>
   </g>
   <g id="matplotlib.axis_1">
    <g id="xtick_1">
     <g id="line2d_1">
      <path d="M 174.372828 201.042 
L 174.372828 81.456 
" clip-path="url(#p6f043a3508)" style="fill: none; stroke: #ffffff; stroke-linecap: round"/>
     </g>
    </g>
    <g id="xtick_2">
     <g id="line2d_2">
      <path d="M 266.484817 201.042 
L 266.484817 81.456 
" clip-path="url(#p6f043a3508)" style="fill: none; stroke: #ffffff; stroke-linecap: round"/>
     </g>
    </g>
    <g id="xtick_3">
     <g id="line2d_3">
      <path d="M 358.596806 201.042 
L 358.596806 81.456 
" clip-path="url(#p6f043a3508)" style="fill: none; stroke: #ffffff; stroke-linecap: round"/>
     </g>
    </g>
    <g id="xtick_4">
     <g id="line2d_4">
      <path d="M 450.708795 201.042 
L 450.708795 81.456 
" clip-path="url(#p6f043a3508)" style="fill: none; stroke: #ffffff; stroke-linecap: round"/>
     </g>
    </g>
   </g>
   <g id="matplotlib.axis_2">
    <g id="ytick_1">
     <g id="line2d_5">
      <path d="M 160.9429 170.025687 
L 456.401316 170.025687 
" clip-path="url(#p6f043a3508)" style="fill: none; stroke: #ffffff; stroke-linecap: round"/>
     </g>
     <g id="text_1">
      <!-- −50 -->
      <g style="fill: #262626" transform="translate(102.691072 178.801882) scale(0.231 -0.231)">
       <defs>
        <path id="DejaVuSans-2212" d="M 678 2272 
L 4684 2272 
L 4684 1741 
L 678 1741 
L 678 2272 
z
" transform="scale(0.015625)"/>
        <path id="DejaVuSans-35" d="M 691 4666 
L 3169 4666 
L 3169 4134 
L 1269 4134 
L 1269 2991 
Q 1406 3038 1543 3061 
Q 1681 3084 1819 3084 
Q 2600 3084 3056 2656 
Q 3513 2228 3513 1497 
Q 3513 744 3044 326 
Q 2575 -91 1722 -91 
Q 1428 -91 1123 -41 
Q 819 9 494 109 
L 494 744 
Q 775 591 1075 516 
Q 1375 441 1709 441 
Q 2250 441 2565 725 
Q 2881 1009 2881 1497 
Q 2881 1984 2565 2268 
Q 2250 2553 1709 2553 
Q 1456 2553 1204 2497 
Q 953 2441 691 2322 
L 691 4666 
z
" transform="scale(0.015625)"/>
        <path id="DejaVuSans-30" d="M 2034 4250 
Q 1547 4250 1301 3770 
Q 1056 3291 1056 2328 
Q 1056 1369 1301 889 
Q 1547 409 2034 409 
Q 2525 409 2770 889 
Q 3016 1369 3016 2328 
Q 3016 3291 2770 3770 
Q 2525 4250 2034 4250 
z
M 2034 4750 
Q 2819 4750 3233 4129 
Q 3647 3509 3647 2328 
Q 3647 1150 3233 529 
Q 2819 -91 2034 -91 
Q 1250 -91 836 529 
Q 422 1150 422 2328 
Q 422 3509 836 4129 
Q 1250 4750 2034 4750 
z
" transform="scale(0.015625)"/>
       </defs>
       <use xlink:href="#DejaVuSans-2212"/>
       <use xlink:href="#DejaVuSans-35" x="83.789062"/>
       <use xlink:href="#DejaVuSans-30" x="147.412109"/>
      </g>
     </g>
    </g>
    <g id="ytick_2">
     <g id="line2d_6">
      <path d="M 160.9429 89.471066 
L 456.401316 89.471066 
" clip-path="url(#p6f043a3508)" style="fill: none; stroke: #ffffff; stroke-linecap: round"/>
     </g>
     <g id="text_2">
      <!-- 0 -->
      <g style="fill: #262626" transform="translate(136.745525 98.247261) scale(0.231 -0.231)">
       <use xlink:href="#DejaVuSans-30"/>
      </g>
     </g>
    </g>
    <g id="text_3">
     <!-- % change -->
     <g style="fill: #262626" transform="translate(93.450259 203.597344) rotate(-90) scale(0.252 -0.252)">
      <defs>
       <path id="DejaVuSans-25" d="M 4653 2053 
Q 4381 2053 4226 1822 
Q 4072 1591 4072 1178 
Q 4072 772 4226 539 
Q 4381 306 4653 306 
Q 4919 306 5073 539 
Q 5228 772 5228 1178 
Q 5228 1588 5073 1820 
Q 4919 2053 4653 2053 
z
M 4653 2450 
Q 5147 2450 5437 2106 
Q 5728 1763 5728 1178 
Q 5728 594 5436 251 
Q 5144 -91 4653 -91 
Q 4153 -91 3862 251 
Q 3572 594 3572 1178 
Q 3572 1766 3864 2108 
Q 4156 2450 4653 2450 
z
M 1428 4353 
Q 1159 4353 1004 4120 
Q 850 3888 850 3481 
Q 850 3069 1003 2837 
Q 1156 2606 1428 2606 
Q 1700 2606 1854 2837 
Q 2009 3069 2009 3481 
Q 2009 3884 1853 4118 
Q 1697 4353 1428 4353 
z
M 4250 4750 
L 4750 4750 
L 1831 -91 
L 1331 -91 
L 4250 4750 
z
M 1428 4750 
Q 1922 4750 2215 4408 
Q 2509 4066 2509 3481 
Q 2509 2891 2217 2550 
Q 1925 2209 1428 2209 
Q 931 2209 642 2551 
Q 353 2894 353 3481 
Q 353 4063 643 4406 
Q 934 4750 1428 4750 
z
" transform="scale(0.015625)"/>
       <path id="DejaVuSans-20" transform="scale(0.015625)"/>
       <path id="DejaVuSans-63" d="M 3122 3366 
L 3122 2828 
Q 2878 2963 2633 3030 
Q 2388 3097 2138 3097 
Q 1578 3097 1268 2742 
Q 959 2388 959 1747 
Q 959 1106 1268 751 
Q 1578 397 2138 397 
Q 2388 397 2633 464 
Q 2878 531 3122 666 
L 3122 134 
Q 2881 22 2623 -34 
Q 2366 -91 2075 -91 
Q 1284 -91 818 406 
Q 353 903 353 1747 
Q 353 2603 823 3093 
Q 1294 3584 2113 3584 
Q 2378 3584 2631 3529 
Q 2884 3475 3122 3366 
z
" transform="scale(0.015625)"/>
       <path id="DejaVuSans-68" d="M 3513 2113 
L 3513 0 
L 2938 0 
L 2938 2094 
Q 2938 2591 2744 2837 
Q 2550 3084 2163 3084 
Q 1697 3084 1428 2787 
Q 1159 2491 1159 1978 
L 1159 0 
L 581 0 
L 581 4863 
L 1159 4863 
L 1159 2956 
Q 1366 3272 1645 3428 
Q 1925 3584 2291 3584 
Q 2894 3584 3203 3211 
Q 3513 2838 3513 2113 
z
" transform="scale(0.015625)"/>
       <path id="DejaVuSans-61" d="M 2194 1759 
Q 1497 1759 1228 1600 
Q 959 1441 959 1056 
Q 959 750 1161 570 
Q 1363 391 1709 391 
Q 2188 391 2477 730 
Q 2766 1069 2766 1631 
L 2766 1759 
L 2194 1759 
z
M 3341 1997 
L 3341 0 
L 2766 0 
L 2766 531 
Q 2569 213 2275 61 
Q 1981 -91 1556 -91 
Q 1019 -91 701 211 
Q 384 513 384 1019 
Q 384 1609 779 1909 
Q 1175 2209 1959 2209 
L 2766 2209 
L 2766 2266 
Q 2766 2663 2505 2880 
Q 2244 3097 1772 3097 
Q 1472 3097 1187 3025 
Q 903 2953 641 2809 
L 641 3341 
Q 956 3463 1253 3523 
Q 1550 3584 1831 3584 
Q 2591 3584 2966 3190 
Q 3341 2797 3341 1997 
z
" transform="scale(0.015625)"/>
       <path id="DejaVuSans-6e" d="M 3513 2113 
L 3513 0 
L 2938 0 
L 2938 2094 
Q 2938 2591 2744 2837 
Q 2550 3084 2163 3084 
Q 1697 3084 1428 2787 
Q 1159 2491 1159 1978 
L 1159 0 
L 581 0 
L 581 3500 
L 1159 3500 
L 1159 2956 
Q 1366 3272 1645 3428 
Q 1925 3584 2291 3584 
Q 2894 3584 3203 3211 
Q 3513 2838 3513 2113 
z
" transform="scale(0.015625)"/>
       <path id="DejaVuSans-67" d="M 2906 1791 
Q 2906 2416 2648 2759 
Q 2391 3103 1925 3103 
Q 1463 3103 1205 2759 
Q 947 2416 947 1791 
Q 947 1169 1205 825 
Q 1463 481 1925 481 
Q 2391 481 2648 825 
Q 2906 1169 2906 1791 
z
M 3481 434 
Q 3481 -459 3084 -895 
Q 2688 -1331 1869 -1331 
Q 1566 -1331 1297 -1286 
Q 1028 -1241 775 -1147 
L 775 -588 
Q 1028 -725 1275 -790 
Q 1522 -856 1778 -856 
Q 2344 -856 2625 -561 
Q 2906 -266 2906 331 
L 2906 616 
Q 2728 306 2450 153 
Q 2172 0 1784 0 
Q 1141 0 747 490 
Q 353 981 353 1791 
Q 353 2603 747 3093 
Q 1141 3584 1784 3584 
Q 2172 3584 2450 3431 
Q 2728 3278 2906 2969 
L 2906 3500 
L 3481 3500 
L 3481 434 
z
" transform="scale(0.015625)"/>
       <path id="DejaVuSans-65" d="M 3597 1894 
L 3597 1613 
L 953 1613 
Q 991 1019 1311 708 
Q 1631 397 2203 397 
Q 2534 397 2845 478 
Q 3156 559 3463 722 
L 3463 178 
Q 3153 47 2828 -22 
Q 2503 -91 2169 -91 
Q 1331 -91 842 396 
Q 353 884 353 1716 
Q 353 2575 817 3079 
Q 1281 3584 2069 3584 
Q 2775 3584 3186 3129 
Q 3597 2675 3597 1894 
z
M 3022 2063 
Q 3016 2534 2758 2815 
Q 2500 3097 2075 3097 
Q 1594 3097 1305 2825 
Q 1016 2553 972 2059 
L 3022 2063 
z
" transform="scale(0.015625)"/>
      </defs>
      <use xlink:href="#DejaVuSans-25"/>
      <use xlink:href="#DejaVuSans-20" x="95.019531"/>
      <use xlink:href="#DejaVuSans-63" x="126.806641"/>
      <use xlink:href="#DejaVuSans-68" x="181.787109"/>
      <use xlink:href="#DejaVuSans-61" x="245.166016"/>
      <use xlink:href="#DejaVuSans-6e" x="306.445312"/>
      <use xlink:href="#DejaVuSans-67" x="369.824219"/>
      <use xlink:href="#DejaVuSans-65" x="433.300781"/>
     </g>
    </g>
   </g>
   <g id="PolyCollection_1"/>
   <g id="PolyCollection_2"/>
   <g id="PolyCollection_3"/>
   <g id="PolyCollection_4"/>
   <g id="PolyCollection_5"/>
   <g id="PolyCollection_6"/>
   <g id="line2d_7">
    <path d="M 174.372828 89.471066 
L 188.005402 89.499 
L 204.58556 89.200325 
L 228.16623 88.87786 
L 264.642577 88.622109 
L 442.971388 87.714487 
L 442.971388 87.714487 
" clip-path="url(#p6f043a3508)" style="fill: none; stroke: #4c72b0; stroke-opacity: 0.9; stroke-width: 3; stroke-linecap: round"/>
   </g>
   <g id="line2d_8">
    <path d="M 174.372828 89.471066 
L 192.05833 89.457717 
L 256.536722 89.020735 
L 393.96781 88.547688 
L 442.971388 88.383126 
L 442.971388 88.383126 
" clip-path="url(#p6f043a3508)" style="fill: none; stroke: #dd8452; stroke-opacity: 0.9; stroke-width: 3; stroke-linecap: round"/>
   </g>
   <g id="line2d_9">
    <path d="M 174.372828 89.471066 
L 190.21609 89.523355 
L 232.587605 89.334893 
L 278.6436 89.649486 
L 315.488395 89.613512 
L 442.971388 89.5479 
L 442.971388 89.5479 
" clip-path="url(#p6f043a3508)" style="fill: none; stroke: #55a868; stroke-opacity: 0.9; stroke-width: 3; stroke-linecap: round"/>
   </g>
   <g id="line2d_10">
    <path d="M 174.372828 89.471066 
L 191.689882 89.502612 
L 228.534678 89.375321 
L 296.69755 89.897354 
L 442.971388 89.968483 
L 442.971388 89.968483 
" clip-path="url(#p6f043a3508)" style="fill: none; stroke: #c44e52; stroke-opacity: 0.9; stroke-width: 3; stroke-linecap: round"/>
   </g>
   <g id="line2d_11">
    <path d="M 174.372828 89.471066 
L 188.37385 89.491768 
L 206.059352 89.16583 
L 230.745365 88.848755 
L 265.011025 88.639728 
L 442.971388 87.932688 
L 442.971388 87.932688 
" clip-path="url(#p6f043a3508)" style="fill: none; stroke: #8172b3; stroke-opacity: 0.9; stroke-width: 3; stroke-linecap: round"/>
   </g>
   <g id="line2d_12">
    <path d="M 174.372828 89.471066 
L 189.479194 89.476425 
L 266.116369 88.759483 
L 442.971388 88.085246 
L 442.971388 88.085246 
" clip-path="url(#p6f043a3508)" style="fill: none; stroke: #937860; stroke-opacity: 0.9; stroke-width: 3; stroke-linecap: round"/>
   </g>
   <g id="patch_3">
    <path d="M 160.9429 201.042 
L 160.9429 81.456 
" style="fill: none; stroke: #ffffff; stroke-width: 1.25; stroke-linejoin: miter; stroke-linecap: square"/>
   </g>
   <g id="patch_4">
    <path d="M 160.9429 201.042 
L 456.401316 201.042 
" style="fill: none; stroke: #ffffff; stroke-width: 1.25; stroke-linejoin: miter; stroke-linecap: square"/>
   </g>
   <g id="text_4">
    <!-- 0.5~30 -->
    <g style="fill: #262626" transform="translate(262.042264 75.456) scale(0.252 -0.252)">
     <defs>
      <path id="DejaVuSans-2e" d="M 684 794 
L 1344 794 
L 1344 0 
L 684 0 
L 684 794 
z
" transform="scale(0.015625)"/>
      <path id="DejaVuSans-7e" d="M 4684 2553 
L 4684 1997 
Q 4356 1750 4076 1644 
Q 3797 1538 3494 1538 
Q 3150 1538 2694 1722 
Q 2659 1734 2644 1741 
Q 2622 1750 2575 1766 
Q 2091 1959 1797 1959 
Q 1522 1959 1253 1839 
Q 984 1719 678 1459 
L 678 2016 
Q 1006 2263 1286 2370 
Q 1566 2478 1869 2478 
Q 2213 2478 2672 2291 
Q 2703 2278 2719 2272 
Q 2744 2263 2788 2247 
Q 3272 2053 3566 2053 
Q 3834 2053 4098 2172 
Q 4363 2291 4684 2553 
z
" transform="scale(0.015625)"/>
      <path id="DejaVuSans-33" d="M 2597 2516 
Q 3050 2419 3304 2112 
Q 3559 1806 3559 1356 
Q 3559 666 3084 287 
Q 2609 -91 1734 -91 
Q 1441 -91 1130 -33 
Q 819 25 488 141 
L 488 750 
Q 750 597 1062 519 
Q 1375 441 1716 441 
Q 2309 441 2620 675 
Q 2931 909 2931 1356 
Q 2931 1769 2642 2001 
Q 2353 2234 1838 2234 
L 1294 2234 
L 1294 2753 
L 1863 2753 
Q 2328 2753 2575 2939 
Q 2822 3125 2822 3475 
Q 2822 3834 2567 4026 
Q 2313 4219 1838 4219 
Q 1578 4219 1281 4162 
Q 984 4106 628 3988 
L 628 4550 
Q 988 4650 1302 4700 
Q 1616 4750 1894 4750 
Q 2613 4750 3031 4423 
Q 3450 4097 3450 3541 
Q 3450 3153 3228 2886 
Q 3006 2619 2597 2516 
z
" transform="scale(0.015625)"/>
     </defs>
     <use xlink:href="#DejaVuSans-30"/>
     <use xlink:href="#DejaVuSans-2e" x="63.623047"/>
     <use xlink:href="#DejaVuSans-35" x="95.410156"/>
     <use xlink:href="#DejaVuSans-7e" x="159.033203"/>
     <use xlink:href="#DejaVuSans-33" x="242.822266"/>
     <use xlink:href="#DejaVuSans-30" x="306.445312"/>
    </g>
   </g>
  </g>
  <g id="axes_2">
   <g id="patch_5">
    <path d="M 483.047028 201.042 
L 778.505445 201.042 
L 778.505445 81.456 
L 483.047028 81.456 
z
" style="fill: #eaeaf2"/>
   </g>
   <g id="matplotlib.axis_3">
    <g id="xtick_5">
     <g id="line2d_13">
      <path d="M 496.476956 201.042 
L 496.476956 81.456 
" clip-path="url(#pf171daa647)" style="fill: none; stroke: #ffffff; stroke-linecap: round"/>
     </g>
    </g>
    <g id="xtick_6">
     <g id="line2d_14">
      <path d="M 588.588946 201.042 
L 588.588946 81.456 
" clip-path="url(#pf171daa647)" style="fill: none; stroke: #ffffff; stroke-linecap: round"/>
     </g>
    </g>
    <g id="xtick_7">
     <g id="line2d_15">
      <path d="M 680.700935 201.042 
L 680.700935 81.456 
" clip-path="url(#pf171daa647)" style="fill: none; stroke: #ffffff; stroke-linecap: round"/>
     </g>
    </g>
    <g id="xtick_8">
     <g id="line2d_16">
      <path d="M 772.812924 201.042 
L 772.812924 81.456 
" clip-path="url(#pf171daa647)" style="fill: none; stroke: #ffffff; stroke-linecap: round"/>
     </g>
    </g>
   </g>
   <g id="matplotlib.axis_4">
    <g id="ytick_3">
     <g id="line2d_17">
      <path d="M 483.047028 170.025687 
L 778.505445 170.025687 
" clip-path="url(#pf171daa647)" style="fill: none; stroke: #ffffff; stroke-linecap: round"/>
     </g>
    </g>
    <g id="ytick_4">
     <g id="line2d_18">
      <path d="M 483.047028 89.471066 
L 778.505445 89.471066 
" clip-path="url(#pf171daa647)" style="fill: none; stroke: #ffffff; stroke-linecap: round"/>
     </g>
    </g>
   </g>
   <g id="PolyCollection_7"/>
   <g id="PolyCollection_8"/>
   <g id="PolyCollection_9"/>
   <g id="PolyCollection_10"/>
   <g id="PolyCollection_11"/>
   <g id="PolyCollection_12"/>
   <g id="line2d_19">
    <path d="M 496.476956 89.471066 
L 518.952282 89.576753 
L 531.84796 89.677376 
L 538.480024 90.156298 
L 543.269847 90.396889 
L 549.165014 90.405359 
L 635.381836 90.214974 
L 765.075517 90.120592 
L 765.075517 90.120592 
" clip-path="url(#pf171daa647)" style="fill: none; stroke: #4c72b0; stroke-opacity: 0.9; stroke-width: 3; stroke-linecap: round"/>
   </g>
   <g id="line2d_20">
    <path d="M 496.476956 89.471066 
L 526.689689 89.519512 
L 754.390526 89.402071 
L 765.075517 89.399646 
L 765.075517 89.399646 
" clip-path="url(#pf171daa647)" style="fill: none; stroke: #dd8452; stroke-opacity: 0.9; stroke-width: 3; stroke-linecap: round"/>
   </g>
   <g id="line2d_21">
    <path d="M 496.476956 89.471066 
L 522.268313 89.622295 
L 545.480535 89.76397 
L 625.433741 90.726535 
L 707.597636 90.936407 
L 765.075517 91.109088 
L 765.075517 91.109088 
" clip-path="url(#pf171daa647)" style="fill: none; stroke: #55a868; stroke-opacity: 0.9; stroke-width: 3; stroke-linecap: round"/>
   </g>
   <g id="line2d_22">
    <path d="M 496.476956 89.471066 
L 525.215897 89.590549 
L 545.112087 89.716512 
L 579.009299 90.255746 
L 607.379791 90.578344 
L 643.856139 90.820441 
L 751.442943 91.162427 
L 765.075517 91.209763 
L 765.075517 91.209763 
" clip-path="url(#pf171daa647)" style="fill: none; stroke: #c44e52; stroke-opacity: 0.9; stroke-width: 3; stroke-linecap: round"/>
   </g>
   <g id="line2d_23">
    <path d="M 496.476956 89.471066 
L 518.952282 89.569484 
L 765.075517 89.319635 
L 765.075517 89.319635 
" clip-path="url(#pf171daa647)" style="fill: none; stroke: #8172b3; stroke-opacity: 0.9; stroke-width: 3; stroke-linecap: round"/>
   </g>
   <g id="line2d_24">
    <path d="M 496.476956 89.471066 
L 521.16297 89.545306 
L 765.075517 89.337616 
L 765.075517 89.337616 
" clip-path="url(#pf171daa647)" style="fill: none; stroke: #937860; stroke-opacity: 0.9; stroke-width: 3; stroke-linecap: round"/>
   </g>
   <g id="patch_6">
    <path d="M 483.047028 201.042 
L 483.047028 81.456 
" style="fill: none; stroke: #ffffff; stroke-width: 1.25; stroke-linejoin: miter; stroke-linecap: square"/>
   </g>
   <g id="patch_7">
    <path d="M 483.047028 201.042 
L 778.505445 201.042 
" style="fill: none; stroke: #ffffff; stroke-width: 1.25; stroke-linejoin: miter; stroke-linecap: square"/>
   </g>
   <g id="text_5">
    <!-- 0.5~365 -->
    <g style="fill: #262626" transform="translate(576.129643 75.456) scale(0.252 -0.252)">
     <defs>
      <path id="DejaVuSans-36" d="M 2113 2584 
Q 1688 2584 1439 2293 
Q 1191 2003 1191 1497 
Q 1191 994 1439 701 
Q 1688 409 2113 409 
Q 2538 409 2786 701 
Q 3034 994 3034 1497 
Q 3034 2003 2786 2293 
Q 2538 2584 2113 2584 
z
M 3366 4563 
L 3366 3988 
Q 3128 4100 2886 4159 
Q 2644 4219 2406 4219 
Q 1781 4219 1451 3797 
Q 1122 3375 1075 2522 
Q 1259 2794 1537 2939 
Q 1816 3084 2150 3084 
Q 2853 3084 3261 2657 
Q 3669 2231 3669 1497 
Q 3669 778 3244 343 
Q 2819 -91 2113 -91 
Q 1303 -91 875 529 
Q 447 1150 447 2328 
Q 447 3434 972 4092 
Q 1497 4750 2381 4750 
Q 2619 4750 2861 4703 
Q 3103 4656 3366 4563 
z
" transform="scale(0.015625)"/>
     </defs>
     <use xlink:href="#DejaVuSans-30"/>
     <use xlink:href="#DejaVuSans-2e" x="63.623047"/>
     <use xlink:href="#DejaVuSans-35" x="95.410156"/>
     <use xlink:href="#DejaVuSans-7e" x="159.033203"/>
     <use xlink:href="#DejaVuSans-33" x="242.822266"/>
     <use xlink:href="#DejaVuSans-36" x="306.445312"/>
     <use xlink:href="#DejaVuSans-35" x="370.068359"/>
    </g>
   </g>
  </g>
  <g id="axes_3">
   <g id="patch_8">
    <path d="M 805.151157 201.042 
L 1100.609573 201.042 
L 1100.609573 81.456 
L 805.151157 81.456 
z
" style="fill: #eaeaf2"/>
   </g>
   <g id="matplotlib.axis_5">
    <g id="xtick_9">
     <g id="line2d_25">
      <path d="M 818.581085 201.042 
L 818.581085 81.456 
" clip-path="url(#p7130a15a0c)" style="fill: none; stroke: #ffffff; stroke-linecap: round"/>
     </g>
    </g>
    <g id="xtick_10">
     <g id="line2d_26">
      <path d="M 910.693074 201.042 
L 910.693074 81.456 
" clip-path="url(#p7130a15a0c)" style="fill: none; stroke: #ffffff; stroke-linecap: round"/>
     </g>
    </g>
    <g id="xtick_11">
     <g id="line2d_27">
      <path d="M 1002.805063 201.042 
L 1002.805063 81.456 
" clip-path="url(#p7130a15a0c)" style="fill: none; stroke: #ffffff; stroke-linecap: round"/>
     </g>
    </g>
    <g id="xtick_12">
     <g id="line2d_28">
      <path d="M 1094.917053 201.042 
L 1094.917053 81.456 
" clip-path="url(#p7130a15a0c)" style="fill: none; stroke: #ffffff; stroke-linecap: round"/>
     </g>
    </g>
   </g>
   <g id="matplotlib.axis_6">
    <g id="ytick_5">
     <g id="line2d_29">
      <path d="M 805.151157 170.025687 
L 1100.609573 170.025687 
" clip-path="url(#p7130a15a0c)" style="fill: none; stroke: #ffffff; stroke-linecap: round"/>
     </g>
    </g>
    <g id="ytick_6">
     <g id="line2d_30">
      <path d="M 805.151157 89.471066 
L 1100.609573 89.471066 
" clip-path="url(#p7130a15a0c)" style="fill: none; stroke: #ffffff; stroke-linecap: round"/>
     </g>
    </g>
   </g>
   <g id="PolyCollection_13"/>
   <g id="PolyCollection_14"/>
   <g id="PolyCollection_15"/>
   <g id="PolyCollection_16"/>
   <g id="PolyCollection_17"/>
   <g id="PolyCollection_18"/>
   <g id="line2d_31">
    <path d="M 818.581085 89.471066 
L 836.266587 89.726243 
L 839.214171 90.158994 
L 842.530202 90.888345 
L 845.846234 91.841456 
L 849.530713 93.123601 
L 853.952089 94.916014 
L 859.11036 97.271738 
L 866.479319 100.924961 
L 876.427414 105.847085 
L 881.217238 107.977618 
L 885.270165 109.559445 
L 888.954645 110.77937 
L 892.639124 111.764127 
L 895.955156 112.433462 
L 899.271187 112.888285 
L 902.587219 113.125186 
L 906.271699 113.146409 
L 911.061522 112.922917 
L 917.693585 112.377723 
L 951.222349 109.321718 
L 976.645258 107.746634 
L 1048.861058 103.566879 
L 1087.179645 101.369264 
L 1087.179645 101.369264 
" clip-path="url(#p7130a15a0c)" style="fill: none; stroke: #4c72b0; stroke-opacity: 0.9; stroke-width: 3; stroke-linecap: round"/>
   </g>
   <g id="line2d_32">
    <path d="M 818.581085 89.471066 
L 839.951066 89.686008 
L 844.74089 90.171295 
L 858.741912 91.762571 
L 862.79484 91.921212 
L 867.216215 91.860119 
L 921.378065 90.260461 
L 968.539403 89.265888 
L 1087.179645 86.891727 
L 1087.179645 86.891727 
" clip-path="url(#p7130a15a0c)" style="fill: none; stroke: #dd8452; stroke-opacity: 0.9; stroke-width: 3; stroke-linecap: round"/>
   </g>
   <g id="line2d_33">
    <path d="M 818.581085 89.471066 
L 846.214682 89.851037 
L 854.320537 90.372205 
L 867.953111 91.535242 
L 879.743446 92.443031 
L 888.954645 92.915698 
L 898.165844 93.161459 
L 944.590286 93.803188 
L 965.960268 93.978942 
L 988.804041 93.919785 
L 1087.179645 93.292178 
L 1087.179645 93.292178 
" clip-path="url(#p7130a15a0c)" style="fill: none; stroke: #55a868; stroke-opacity: 0.9; stroke-width: 3; stroke-linecap: round"/>
   </g>
   <g id="line2d_34">
    <path d="M 818.581085 89.471066 
L 844.372442 89.786982 
L 852.109849 90.292736 
L 873.848278 91.870096 
L 881.954134 92.141171 
L 894.112916 92.278391 
L 914.746002 92.566634 
L 944.221838 92.961141 
L 974.434571 93.066264 
L 1004.278855 93.010383 
L 1087.179645 92.56763 
L 1087.179645 92.56763 
" clip-path="url(#p7130a15a0c)" style="fill: none; stroke: #c44e52; stroke-opacity: 0.9; stroke-width: 3; stroke-linecap: round"/>
   </g>
   <g id="line2d_35">
    <path d="M 818.581085 89.471066 
L 832.582107 89.491768 
L 851.741401 89.147739 
L 877.532758 88.832565 
L 913.27221 88.629017 
L 1087.179645 87.941056 
L 1087.179645 87.941056 
" clip-path="url(#p7130a15a0c)" style="fill: none; stroke: #8172b3; stroke-opacity: 0.9; stroke-width: 3; stroke-linecap: round"/>
   </g>
   <g id="line2d_36">
    <path d="M 818.581085 89.471066 
L 833.687451 89.476425 
L 909.956178 88.762725 
L 1087.179645 88.087252 
L 1087.179645 88.087252 
" clip-path="url(#p7130a15a0c)" style="fill: none; stroke: #937860; stroke-opacity: 0.9; stroke-width: 3; stroke-linecap: round"/>
   </g>
   <g id="patch_9">
    <path d="M 805.151157 201.042 
L 805.151157 81.456 
" style="fill: none; stroke: #ffffff; stroke-width: 1.25; stroke-linejoin: miter; stroke-linecap: square"/>
   </g>
   <g id="patch_10">
    <path d="M 805.151157 201.042 
L 1100.609573 201.042 
" style="fill: none; stroke: #ffffff; stroke-width: 1.25; stroke-linejoin: miter; stroke-linecap: square"/>
   </g>
   <g id="text_6">
    <!-- 0.8~30 -->
    <g style="fill: #262626" transform="translate(906.250521 75.456) scale(0.252 -0.252)">
     <defs>
      <path id="DejaVuSans-38" d="M 2034 2216 
Q 1584 2216 1326 1975 
Q 1069 1734 1069 1313 
Q 1069 891 1326 650 
Q 1584 409 2034 409 
Q 2484 409 2743 651 
Q 3003 894 3003 1313 
Q 3003 1734 2745 1975 
Q 2488 2216 2034 2216 
z
M 1403 2484 
Q 997 2584 770 2862 
Q 544 3141 544 3541 
Q 544 4100 942 4425 
Q 1341 4750 2034 4750 
Q 2731 4750 3128 4425 
Q 3525 4100 3525 3541 
Q 3525 3141 3298 2862 
Q 3072 2584 2669 2484 
Q 3125 2378 3379 2068 
Q 3634 1759 3634 1313 
Q 3634 634 3220 271 
Q 2806 -91 2034 -91 
Q 1263 -91 848 271 
Q 434 634 434 1313 
Q 434 1759 690 2068 
Q 947 2378 1403 2484 
z
M 1172 3481 
Q 1172 3119 1398 2916 
Q 1625 2713 2034 2713 
Q 2441 2713 2670 2916 
Q 2900 3119 2900 3481 
Q 2900 3844 2670 4047 
Q 2441 4250 2034 4250 
Q 1625 4250 1398 4047 
Q 1172 3844 1172 3481 
z
" transform="scale(0.015625)"/>
     </defs>
     <use xlink:href="#DejaVuSans-30"/>
     <use xlink:href="#DejaVuSans-2e" x="63.623047"/>
     <use xlink:href="#DejaVuSans-38" x="95.410156"/>
     <use xlink:href="#DejaVuSans-7e" x="159.033203"/>
     <use xlink:href="#DejaVuSans-33" x="242.822266"/>
     <use xlink:href="#DejaVuSans-30" x="306.445312"/>
    </g>
   </g>
  </g>
  <g id="axes_4">
   <g id="patch_11">
    <path d="M 160.9429 373.284 
L 456.401316 373.284 
L 456.401316 253.698 
L 160.9429 253.698 
z
" style="fill: #eaeaf2"/>
   </g>
   <g id="matplotlib.axis_7">
    <g id="xtick_13">
     <g id="line2d_37">
      <path d="M 174.372828 373.284 
L 174.372828 253.698 
" clip-path="url(#pd4d1e1c7b1)" style="fill: none; stroke: #ffffff; stroke-linecap: round"/>
     </g>
     <g id="text_7">
      <!-- 0 -->
      <g style="fill: #262626" transform="translate(167.02414 400.336391) scale(0.231 -0.231)">
       <use xlink:href="#DejaVuSans-30"/>
      </g>
     </g>
    </g>
    <g id="xtick_14">
     <g id="line2d_38">
      <path d="M 266.484817 373.284 
L 266.484817 253.698 
" clip-path="url(#pd4d1e1c7b1)" style="fill: none; stroke: #ffffff; stroke-linecap: round"/>
     </g>
     <g id="text_8">
      <!-- 250 -->
      <g style="fill: #262626" transform="translate(244.438755 400.336391) scale(0.231 -0.231)">
       <defs>
        <path id="DejaVuSans-32" d="M 1228 531 
L 3431 531 
L 3431 0 
L 469 0 
L 469 531 
Q 828 903 1448 1529 
Q 2069 2156 2228 2338 
Q 2531 2678 2651 2914 
Q 2772 3150 2772 3378 
Q 2772 3750 2511 3984 
Q 2250 4219 1831 4219 
Q 1534 4219 1204 4116 
Q 875 4013 500 3803 
L 500 4441 
Q 881 4594 1212 4672 
Q 1544 4750 1819 4750 
Q 2544 4750 2975 4387 
Q 3406 4025 3406 3419 
Q 3406 3131 3298 2873 
Q 3191 2616 2906 2266 
Q 2828 2175 2409 1742 
Q 1991 1309 1228 531 
z
" transform="scale(0.015625)"/>
       </defs>
       <use xlink:href="#DejaVuSans-32"/>
       <use xlink:href="#DejaVuSans-35" x="63.623047"/>
       <use xlink:href="#DejaVuSans-30" x="127.246094"/>
      </g>
     </g>
    </g>
    <g id="xtick_15">
     <g id="line2d_39">
      <path d="M 358.596806 373.284 
L 358.596806 253.698 
" clip-path="url(#pd4d1e1c7b1)" style="fill: none; stroke: #ffffff; stroke-linecap: round"/>
     </g>
     <g id="text_9">
      <!-- 500 -->
      <g style="fill: #262626" transform="translate(336.550744 400.336391) scale(0.231 -0.231)">
       <use xlink:href="#DejaVuSans-35"/>
       <use xlink:href="#DejaVuSans-30" x="63.623047"/>
       <use xlink:href="#DejaVuSans-30" x="127.246094"/>
      </g>
     </g>
    </g>
    <g id="xtick_16">
     <g id="line2d_40">
      <path d="M 450.708795 373.284 
L 450.708795 253.698 
" clip-path="url(#pd4d1e1c7b1)" style="fill: none; stroke: #ffffff; stroke-linecap: round"/>
     </g>
     <g id="text_10">
      <!-- 750 -->
      <g style="fill: #262626" transform="translate(428.662733 400.336391) scale(0.231 -0.231)">
       <defs>
        <path id="DejaVuSans-37" d="M 525 4666 
L 3525 4666 
L 3525 4397 
L 1831 0 
L 1172 0 
L 2766 4134 
L 525 4134 
L 525 4666 
z
" transform="scale(0.015625)"/>
       </defs>
       <use xlink:href="#DejaVuSans-37"/>
       <use xlink:href="#DejaVuSans-35" x="63.623047"/>
       <use xlink:href="#DejaVuSans-30" x="127.246094"/>
      </g>
     </g>
    </g>
    <g id="text_11">
     <!-- step -->
     <g style="fill: #262626" transform="translate(281.416733 428.288531) scale(0.252 -0.252)">
      <defs>
       <path id="DejaVuSans-73" d="M 2834 3397 
L 2834 2853 
Q 2591 2978 2328 3040 
Q 2066 3103 1784 3103 
Q 1356 3103 1142 2972 
Q 928 2841 928 2578 
Q 928 2378 1081 2264 
Q 1234 2150 1697 2047 
L 1894 2003 
Q 2506 1872 2764 1633 
Q 3022 1394 3022 966 
Q 3022 478 2636 193 
Q 2250 -91 1575 -91 
Q 1294 -91 989 -36 
Q 684 19 347 128 
L 347 722 
Q 666 556 975 473 
Q 1284 391 1588 391 
Q 1994 391 2212 530 
Q 2431 669 2431 922 
Q 2431 1156 2273 1281 
Q 2116 1406 1581 1522 
L 1381 1569 
Q 847 1681 609 1914 
Q 372 2147 372 2553 
Q 372 3047 722 3315 
Q 1072 3584 1716 3584 
Q 2034 3584 2315 3537 
Q 2597 3491 2834 3397 
z
" transform="scale(0.015625)"/>
       <path id="DejaVuSans-74" d="M 1172 4494 
L 1172 3500 
L 2356 3500 
L 2356 3053 
L 1172 3053 
L 1172 1153 
Q 1172 725 1289 603 
Q 1406 481 1766 481 
L 2356 481 
L 2356 0 
L 1766 0 
Q 1100 0 847 248 
Q 594 497 594 1153 
L 594 3053 
L 172 3053 
L 172 3500 
L 594 3500 
L 594 4494 
L 1172 4494 
z
" transform="scale(0.015625)"/>
       <path id="DejaVuSans-70" d="M 1159 525 
L 1159 -1331 
L 581 -1331 
L 581 3500 
L 1159 3500 
L 1159 2969 
Q 1341 3281 1617 3432 
Q 1894 3584 2278 3584 
Q 2916 3584 3314 3078 
Q 3713 2572 3713 1747 
Q 3713 922 3314 415 
Q 2916 -91 2278 -91 
Q 1894 -91 1617 61 
Q 1341 213 1159 525 
z
M 3116 1747 
Q 3116 2381 2855 2742 
Q 2594 3103 2138 3103 
Q 1681 3103 1420 2742 
Q 1159 2381 1159 1747 
Q 1159 1113 1420 752 
Q 1681 391 2138 391 
Q 2594 391 2855 752 
Q 3116 1113 3116 1747 
z
" transform="scale(0.015625)"/>
      </defs>
      <use xlink:href="#DejaVuSans-73"/>
      <use xlink:href="#DejaVuSans-74" x="52.099609"/>
      <use xlink:href="#DejaVuSans-65" x="91.308594"/>
      <use xlink:href="#DejaVuSans-70" x="152.832031"/>
     </g>
    </g>
   </g>
   <g id="matplotlib.axis_8">
    <g id="ytick_7">
     <g id="line2d_41">
      <path d="M 160.9429 342.267687 
L 456.401316 342.267687 
" clip-path="url(#pd4d1e1c7b1)" style="fill: none; stroke: #ffffff; stroke-linecap: round"/>
     </g>
     <g id="text_12">
      <!-- −50 -->
      <g style="fill: #262626" transform="translate(102.691072 351.043882) scale(0.231 -0.231)">
       <use xlink:href="#DejaVuSans-2212"/>
       <use xlink:href="#DejaVuSans-35" x="83.789062"/>
       <use xlink:href="#DejaVuSans-30" x="147.412109"/>
      </g>
     </g>
    </g>
    <g id="ytick_8">
     <g id="line2d_42">
      <path d="M 160.9429 261.713066 
L 456.401316 261.713066 
" clip-path="url(#pd4d1e1c7b1)" style="fill: none; stroke: #ffffff; stroke-linecap: round"/>
     </g>
     <g id="text_13">
      <!-- 0 -->
      <g style="fill: #262626" transform="translate(136.745525 270.489261) scale(0.231 -0.231)">
       <use xlink:href="#DejaVuSans-30"/>
      </g>
     </g>
    </g>
    <g id="text_14">
     <!-- % change -->
     <g style="fill: #262626" transform="translate(93.450259 375.839344) rotate(-90) scale(0.252 -0.252)">
      <use xlink:href="#DejaVuSans-25"/>
      <use xlink:href="#DejaVuSans-20" x="95.019531"/>
      <use xlink:href="#DejaVuSans-63" x="126.806641"/>
      <use xlink:href="#DejaVuSans-68" x="181.787109"/>
      <use xlink:href="#DejaVuSans-61" x="245.166016"/>
      <use xlink:href="#DejaVuSans-6e" x="306.445312"/>
      <use xlink:href="#DejaVuSans-67" x="369.824219"/>
      <use xlink:href="#DejaVuSans-65" x="433.300781"/>
     </g>
    </g>
   </g>
   <g id="PolyCollection_19"/>
   <g id="PolyCollection_20"/>
   <g id="PolyCollection_21"/>
   <g id="PolyCollection_22"/>
   <g id="PolyCollection_23"/>
   <g id="PolyCollection_24"/>
   <g id="line2d_43">
    <path d="M 174.372828 261.713066 
L 191.321434 261.970871 
L 194.269018 262.360088 
L 197.216601 262.961094 
L 200.532633 263.860979 
L 204.217112 265.102078 
L 208.27004 266.714798 
L 212.691415 268.713985 
L 218.218135 271.476708 
L 225.587094 275.437309 
L 238.85122 282.596538 
L 244.37794 285.314566 
L 249.167763 287.44256 
L 253.589139 289.177943 
L 257.642066 290.550144 
L 261.694994 291.695726 
L 265.747921 292.605483 
L 269.800849 293.275717 
L 273.853776 293.703717 
L 277.906704 293.893019 
L 283.801871 293.914085 
L 293.01307 293.697609 
L 333.542345 292.629696 
L 372.229381 291.865205 
L 420.496063 291.21512 
L 442.971388 290.939575 
L 442.971388 290.939575 
" clip-path="url(#pd4d1e1c7b1)" style="fill: none; stroke: #4c72b0; stroke-opacity: 0.9; stroke-width: 3; stroke-linecap: round"/>
   </g>
   <g id="line2d_44">
    <path d="M 174.372828 261.713066 
L 194.269018 261.920671 
L 198.321945 262.317469 
L 203.848664 263.105083 
L 216.375895 264.983076 
L 221.534166 265.479052 
L 226.32399 265.701846 
L 232.587605 265.727139 
L 351.227847 265.231028 
L 442.971388 264.992946 
L 442.971388 264.992946 
" clip-path="url(#pd4d1e1c7b1)" style="fill: none; stroke: #dd8452; stroke-opacity: 0.9; stroke-width: 3; stroke-linecap: round"/>
   </g>
   <g id="line2d_45">
    <path d="M 174.372828 261.713066 
L 198.690393 262.066176 
L 206.4278 262.52845 
L 216.375895 263.35569 
L 246.957075 266.051528 
L 257.273618 266.646523 
L 268.695505 267.072138 
L 295.223758 267.730456 
L 328.384074 268.409923 
L 350.490951 268.629074 
L 383.651267 268.701791 
L 442.971388 268.802638 
L 442.971388 268.802638 
" clip-path="url(#pd4d1e1c7b1)" style="fill: none; stroke: #55a868; stroke-opacity: 0.9; stroke-width: 3; stroke-linecap: round"/>
   </g>
   <g id="line2d_46">
    <path d="M 174.372828 261.713066 
L 197.585049 261.995921 
L 204.954008 262.439704 
L 215.638999 263.338456 
L 232.219157 264.730152 
L 241.798804 265.30009 
L 252.115347 265.684521 
L 283.064975 266.458468 
L 314.014604 267.076841 
L 344.227336 267.417836 
L 378.492996 267.632482 
L 442.971388 267.778246 
L 442.971388 267.778246 
" clip-path="url(#pd4d1e1c7b1)" style="fill: none; stroke: #c44e52; stroke-opacity: 0.9; stroke-width: 3; stroke-linecap: round"/>
   </g>
   <g id="line2d_47">
    <path d="M 174.372828 261.713066 
L 196.848153 261.811484 
L 442.971388 261.561635 
L 442.971388 261.561635 
" clip-path="url(#pd4d1e1c7b1)" style="fill: none; stroke: #8172b3; stroke-opacity: 0.9; stroke-width: 3; stroke-linecap: round"/>
   </g>
   <g id="line2d_48">
    <path d="M 174.372828 261.713066 
L 199.058841 261.787306 
L 442.971388 261.579616 
L 442.971388 261.579616 
" clip-path="url(#pd4d1e1c7b1)" style="fill: none; stroke: #937860; stroke-opacity: 0.9; stroke-width: 3; stroke-linecap: round"/>
   </g>
   <g id="patch_12">
    <path d="M 160.9429 373.284 
L 160.9429 253.698 
" style="fill: none; stroke: #ffffff; stroke-width: 1.25; stroke-linejoin: miter; stroke-linecap: square"/>
   </g>
   <g id="patch_13">
    <path d="M 160.9429 373.284 
L 456.401316 373.284 
" style="fill: none; stroke: #ffffff; stroke-width: 1.25; stroke-linejoin: miter; stroke-linecap: square"/>
   </g>
   <g id="text_15">
    <!-- 0.8~365 -->
    <g style="fill: #262626" transform="translate(254.025514 247.698) scale(0.252 -0.252)">
     <use xlink:href="#DejaVuSans-30"/>
     <use xlink:href="#DejaVuSans-2e" x="63.623047"/>
     <use xlink:href="#DejaVuSans-38" x="95.410156"/>
     <use xlink:href="#DejaVuSans-7e" x="159.033203"/>
     <use xlink:href="#DejaVuSans-33" x="242.822266"/>
     <use xlink:href="#DejaVuSans-36" x="306.445312"/>
     <use xlink:href="#DejaVuSans-35" x="370.068359"/>
    </g>
   </g>
  </g>
  <g id="axes_5">
   <g id="patch_14">
    <path d="M 483.047028 373.284 
L 778.505445 373.284 
L 778.505445 253.698 
L 483.047028 253.698 
z
" style="fill: #eaeaf2"/>
   </g>
   <g id="matplotlib.axis_9">
    <g id="xtick_17">
     <g id="line2d_49">
      <path d="M 496.476956 373.284 
L 496.476956 253.698 
" clip-path="url(#p44815e0b7f)" style="fill: none; stroke: #ffffff; stroke-linecap: round"/>
     </g>
     <g id="text_16">
      <!-- 0 -->
      <g style="fill: #262626" transform="translate(489.128269 400.336391) scale(0.231 -0.231)">
       <use xlink:href="#DejaVuSans-30"/>
      </g>
     </g>
    </g>
    <g id="xtick_18">
     <g id="line2d_50">
      <path d="M 588.588946 373.284 
L 588.588946 253.698 
" clip-path="url(#p44815e0b7f)" style="fill: none; stroke: #ffffff; stroke-linecap: round"/>
     </g>
     <g id="text_17">
      <!-- 250 -->
      <g style="fill: #262626" transform="translate(566.542883 400.336391) scale(0.231 -0.231)">
       <use xlink:href="#DejaVuSans-32"/>
       <use xlink:href="#DejaVuSans-35" x="63.623047"/>
       <use xlink:href="#DejaVuSans-30" x="127.246094"/>
      </g>
     </g>
    </g>
    <g id="xtick_19">
     <g id="line2d_51">
      <path d="M 680.700935 373.284 
L 680.700935 253.698 
" clip-path="url(#p44815e0b7f)" style="fill: none; stroke: #ffffff; stroke-linecap: round"/>
     </g>
     <g id="text_18">
      <!-- 500 -->
      <g style="fill: #262626" transform="translate(658.654872 400.336391) scale(0.231 -0.231)">
       <use xlink:href="#DejaVuSans-35"/>
       <use xlink:href="#DejaVuSans-30" x="63.623047"/>
       <use xlink:href="#DejaVuSans-30" x="127.246094"/>
      </g>
     </g>
    </g>
    <g id="xtick_20">
     <g id="line2d_52">
      <path d="M 772.812924 373.284 
L 772.812924 253.698 
" clip-path="url(#p44815e0b7f)" style="fill: none; stroke: #ffffff; stroke-linecap: round"/>
     </g>
     <g id="text_19">
      <!-- 750 -->
      <g style="fill: #262626" transform="translate(750.766861 400.336391) scale(0.231 -0.231)">
       <use xlink:href="#DejaVuSans-37"/>
       <use xlink:href="#DejaVuSans-35" x="63.623047"/>
       <use xlink:href="#DejaVuSans-30" x="127.246094"/>
      </g>
     </g>
    </g>
    <g id="text_20">
     <!-- step -->
     <g style="fill: #262626" transform="translate(603.520862 428.288531) scale(0.252 -0.252)">
      <use xlink:href="#DejaVuSans-73"/>
      <use xlink:href="#DejaVuSans-74" x="52.099609"/>
      <use xlink:href="#DejaVuSans-65" x="91.308594"/>
      <use xlink:href="#DejaVuSans-70" x="152.832031"/>
     </g>
    </g>
   </g>
   <g id="matplotlib.axis_10">
    <g id="ytick_9">
     <g id="line2d_53">
      <path d="M 483.047028 342.267687 
L 778.505445 342.267687 
" clip-path="url(#p44815e0b7f)" style="fill: none; stroke: #ffffff; stroke-linecap: round"/>
     </g>
    </g>
    <g id="ytick_10">
     <g id="line2d_54">
      <path d="M 483.047028 261.713066 
L 778.505445 261.713066 
" clip-path="url(#p44815e0b7f)" style="fill: none; stroke: #ffffff; stroke-linecap: round"/>
     </g>
    </g>
   </g>
   <g id="PolyCollection_25"/>
   <g id="PolyCollection_26"/>
   <g id="PolyCollection_27"/>
   <g id="PolyCollection_28"/>
   <g id="PolyCollection_29"/>
   <g id="PolyCollection_30"/>
   <g id="line2d_55">
    <path d="M 496.476956 261.713066 
L 504.582811 261.883518 
L 507.530395 262.229763 
L 510.846427 262.86674 
L 514.162458 263.740087 
L 517.846938 264.958988 
L 521.531418 266.410501 
L 525.584345 268.24273 
L 530.005721 270.48437 
L 535.163992 273.368305 
L 540.690711 276.716101 
L 547.691222 281.23294 
L 559.481557 289.168964 
L 569.429652 295.749962 
L 576.061715 299.873721 
L 581.956882 303.289219 
L 587.85205 306.446268 
L 593.747217 309.338816 
L 599.273936 311.810621 
L 605.169104 314.206113 
L 613.274959 317.226184 
L 623.223054 320.683471 
L 633.539596 324.021699 
L 643.119243 326.894737 
L 652.69889 329.540432 
L 662.278537 331.954358 
L 671.489736 334.050046 
L 680.700935 335.917582 
L 689.912134 337.553357 
L 699.123333 338.961717 
L 709.071427 340.25485 
L 719.756418 341.413846 
L 731.546753 342.462059 
L 744.810879 343.411882 
L 759.18035 344.214663 
L 765.075517 344.485807 
L 765.075517 344.485807 
" clip-path="url(#p44815e0b7f)" style="fill: none; stroke: #4c72b0; stroke-opacity: 0.9; stroke-width: 3; stroke-linecap: round"/>
   </g>
   <g id="line2d_56">
    <path d="M 496.476956 261.713066 
L 504.951259 261.865206 
L 508.267291 262.232181 
L 511.583323 262.813217 
L 515.267802 263.675932 
L 519.32073 264.845857 
L 524.110553 266.461384 
L 530.374168 268.825633 
L 548.05967 275.651003 
L 554.691734 277.894819 
L 560.955349 279.783117 
L 567.218964 281.438084 
L 573.482579 282.868656 
L 582.693778 284.701894 
L 600.747728 288.070365 
L 617.696334 291.000228 
L 641.645451 294.890557 
L 658.962505 297.496676 
L 672.59508 299.324771 
L 684.385414 300.686162 
L 695.438853 301.739727 
L 706.86074 302.599516 
L 719.38797 303.304635 
L 732.283649 303.81716 
L 746.653119 304.156846 
L 764.338621 304.338721 
L 765.075517 304.341887 
L 765.075517 304.341887 
" clip-path="url(#p44815e0b7f)" style="fill: none; stroke: #dd8452; stroke-opacity: 0.9; stroke-width: 3; stroke-linecap: round"/>
   </g>
   <g id="line2d_57">
    <path d="M 496.476956 261.713066 
L 506.056603 261.914313 
L 510.477979 262.303368 
L 515.267802 262.954331 
L 520.794522 263.944288 
L 527.058137 265.308401 
L 534.058648 267.064348 
L 542.532951 269.423178 
L 555.060182 273.16618 
L 573.482579 278.650194 
L 584.16757 281.583705 
L 594.484113 284.185354 
L 605.169104 286.648121 
L 616.59099 289.049462 
L 628.381325 291.296955 
L 639.803212 293.249729 
L 651.225098 294.977839 
L 662.646985 296.479903 
L 674.43732 297.800888 
L 686.596102 298.936139 
L 699.491781 299.916644 
L 713.861251 300.780463 
L 729.336065 301.485871 
L 746.653119 302.048403 
L 765.075517 302.436751 
L 765.075517 302.436751 
" clip-path="url(#p44815e0b7f)" style="fill: none; stroke: #55a868; stroke-opacity: 0.9; stroke-width: 3; stroke-linecap: round"/>
   </g>
   <g id="line2d_58">
    <path d="M 496.476956 261.713066 
L 506.056603 261.890747 
L 510.477979 262.256474 
L 515.267802 262.871775 
L 520.794522 263.813804 
L 527.058137 265.121782 
L 534.427096 266.90558 
L 544.006743 269.471398 
L 568.692756 276.179457 
L 579.746195 278.899306 
L 590.799633 281.391949 
L 602.958416 283.902518 
L 615.854094 286.338792 
L 629.486669 288.689013 
L 642.382347 290.691709 
L 654.909578 292.413298 
L 667.436808 293.909045 
L 679.964039 295.182048 
L 692.859717 296.266013 
L 706.123844 297.15619 
L 720.861762 297.918169 
L 737.44192 298.544705 
L 756.232766 299.02459 
L 765.075517 299.183429 
L 765.075517 299.183429 
" clip-path="url(#p44815e0b7f)" style="fill: none; stroke: #c44e52; stroke-opacity: 0.9; stroke-width: 3; stroke-linecap: round"/>
   </g>
   <g id="line2d_59">
    <path d="M 496.476956 261.713066 
L 505.319707 261.886226 
L 509.004187 262.245647 
L 513.425562 262.923033 
L 518.583834 263.951869 
L 526.689689 265.827347 
L 539.953815 268.878673 
L 548.796566 270.666365 
L 556.902421 272.083253 
L 565.008276 273.279504 
L 580.114643 275.216947 
L 625.433741 280.731363 
L 640.540108 282.323868 
L 685.859206 286.653246 
L 709.071427 288.711195 
L 727.862273 290.204183 
L 761.022589 292.793419 
L 765.075517 293.138764 
L 765.075517 293.138764 
" clip-path="url(#p44815e0b7f)" style="fill: none; stroke: #8172b3; stroke-opacity: 0.9; stroke-width: 3; stroke-linecap: round"/>
   </g>
   <g id="line2d_60">
    <path d="M 496.476956 261.713066 
L 505.319707 261.868552 
L 509.004187 262.208935 
L 513.425562 262.849386 
L 518.952282 263.895049 
L 528.531929 265.991769 
L 539.953815 268.42614 
L 548.796566 270.08019 
L 557.270869 271.43592 
L 566.482068 272.671105 
L 585.272914 274.932233 
L 601.853072 276.723713 
L 615.854094 278.008881 
L 639.803212 279.945115 
L 691.017478 283.903266 
L 708.70298 285.017866 
L 764.338621 288.323395 
L 765.075517 288.372391 
L 765.075517 288.372391 
" clip-path="url(#p44815e0b7f)" style="fill: none; stroke: #937860; stroke-opacity: 0.9; stroke-width: 3; stroke-linecap: round"/>
   </g>
   <g id="patch_15">
    <path d="M 483.047028 373.284 
L 483.047028 253.698 
" style="fill: none; stroke: #ffffff; stroke-width: 1.25; stroke-linejoin: miter; stroke-linecap: square"/>
   </g>
   <g id="patch_16">
    <path d="M 483.047028 373.284 
L 778.505445 373.284 
" style="fill: none; stroke: #ffffff; stroke-width: 1.25; stroke-linejoin: miter; stroke-linecap: square"/>
   </g>
   <g id="text_21">
    <!-- 0.999~30 -->
    <g style="fill: #262626" transform="translate(568.112893 247.698) scale(0.252 -0.252)">
     <defs>
      <path id="DejaVuSans-39" d="M 703 97 
L 703 672 
Q 941 559 1184 500 
Q 1428 441 1663 441 
Q 2288 441 2617 861 
Q 2947 1281 2994 2138 
Q 2813 1869 2534 1725 
Q 2256 1581 1919 1581 
Q 1219 1581 811 2004 
Q 403 2428 403 3163 
Q 403 3881 828 4315 
Q 1253 4750 1959 4750 
Q 2769 4750 3195 4129 
Q 3622 3509 3622 2328 
Q 3622 1225 3098 567 
Q 2575 -91 1691 -91 
Q 1453 -91 1209 -44 
Q 966 3 703 97 
z
M 1959 2075 
Q 2384 2075 2632 2365 
Q 2881 2656 2881 3163 
Q 2881 3666 2632 3958 
Q 2384 4250 1959 4250 
Q 1534 4250 1286 3958 
Q 1038 3666 1038 3163 
Q 1038 2656 1286 2365 
Q 1534 2075 1959 2075 
z
" transform="scale(0.015625)"/>
     </defs>
     <use xlink:href="#DejaVuSans-30"/>
     <use xlink:href="#DejaVuSans-2e" x="63.623047"/>
     <use xlink:href="#DejaVuSans-39" x="95.410156"/>
     <use xlink:href="#DejaVuSans-39" x="159.033203"/>
     <use xlink:href="#DejaVuSans-39" x="222.65625"/>
     <use xlink:href="#DejaVuSans-7e" x="286.279297"/>
     <use xlink:href="#DejaVuSans-33" x="370.068359"/>
     <use xlink:href="#DejaVuSans-30" x="433.691406"/>
    </g>
   </g>
  </g>
  <g id="axes_6">
   <g id="patch_17">
    <path d="M 805.151157 373.284 
L 1100.609573 373.284 
L 1100.609573 253.698 
L 805.151157 253.698 
z
" style="fill: #eaeaf2"/>
   </g>
   <g id="matplotlib.axis_11">
    <g id="xtick_21">
     <g id="line2d_61">
      <path d="M 818.581085 373.284 
L 818.581085 253.698 
" clip-path="url(#p035857793d)" style="fill: none; stroke: #ffffff; stroke-linecap: round"/>
     </g>
     <g id="text_22">
      <!-- 0 -->
      <g style="fill: #262626" transform="translate(811.232397 400.336391) scale(0.231 -0.231)">
       <use xlink:href="#DejaVuSans-30"/>
      </g>
     </g>
    </g>
    <g id="xtick_22">
     <g id="line2d_62">
      <path d="M 910.693074 373.284 
L 910.693074 253.698 
" clip-path="url(#p035857793d)" style="fill: none; stroke: #ffffff; stroke-linecap: round"/>
     </g>
     <g id="text_23">
      <!-- 250 -->
      <g style="fill: #262626" transform="translate(888.647012 400.336391) scale(0.231 -0.231)">
       <use xlink:href="#DejaVuSans-32"/>
       <use xlink:href="#DejaVuSans-35" x="63.623047"/>
       <use xlink:href="#DejaVuSans-30" x="127.246094"/>
      </g>
     </g>
    </g>
    <g id="xtick_23">
     <g id="line2d_63">
      <path d="M 1002.805063 373.284 
L 1002.805063 253.698 
" clip-path="url(#p035857793d)" style="fill: none; stroke: #ffffff; stroke-linecap: round"/>
     </g>
     <g id="text_24">
      <!-- 500 -->
      <g style="fill: #262626" transform="translate(980.759001 400.336391) scale(0.231 -0.231)">
       <use xlink:href="#DejaVuSans-35"/>
       <use xlink:href="#DejaVuSans-30" x="63.623047"/>
       <use xlink:href="#DejaVuSans-30" x="127.246094"/>
      </g>
     </g>
    </g>
    <g id="xtick_24">
     <g id="line2d_64">
      <path d="M 1094.917053 373.284 
L 1094.917053 253.698 
" clip-path="url(#p035857793d)" style="fill: none; stroke: #ffffff; stroke-linecap: round"/>
     </g>
     <g id="text_25">
      <!-- 750 -->
      <g style="fill: #262626" transform="translate(1072.87099 400.336391) scale(0.231 -0.231)">
       <use xlink:href="#DejaVuSans-37"/>
       <use xlink:href="#DejaVuSans-35" x="63.623047"/>
       <use xlink:href="#DejaVuSans-30" x="127.246094"/>
      </g>
     </g>
    </g>
    <g id="text_26">
     <!-- step -->
     <g style="fill: #262626" transform="translate(925.62499 428.288531) scale(0.252 -0.252)">
      <use xlink:href="#DejaVuSans-73"/>
      <use xlink:href="#DejaVuSans-74" x="52.099609"/>
      <use xlink:href="#DejaVuSans-65" x="91.308594"/>
      <use xlink:href="#DejaVuSans-70" x="152.832031"/>
     </g>
    </g>
   </g>
   <g id="matplotlib.axis_12">
    <g id="ytick_11">
     <g id="line2d_65">
      <path d="M 805.151157 342.267687 
L 1100.609573 342.267687 
" clip-path="url(#p035857793d)" style="fill: none; stroke: #ffffff; stroke-linecap: round"/>
     </g>
    </g>
    <g id="ytick_12">
     <g id="line2d_66">
      <path d="M 805.151157 261.713066 
L 1100.609573 261.713066 
" clip-path="url(#p035857793d)" style="fill: none; stroke: #ffffff; stroke-linecap: round"/>
     </g>
    </g>
   </g>
   <g id="PolyCollection_31"/>
   <g id="PolyCollection_32"/>
   <g id="PolyCollection_33"/>
   <g id="PolyCollection_34"/>
   <g id="PolyCollection_35"/>
   <g id="PolyCollection_36"/>
   <g id="line2d_67">
    <path d="M 818.581085 261.713066 
L 826.68694 261.886407 
L 829.634524 262.233607 
L 832.582107 262.78908 
L 835.898139 263.639707 
L 839.582618 264.837559 
L 843.267098 266.272862 
L 847.320026 268.093548 
L 851.741401 270.331112 
L 856.531225 273.007555 
L 862.057944 276.365002 
L 868.321559 280.442396 
L 876.058966 285.755939 
L 904.797907 305.770934 
L 911.798418 310.221357 
L 918.430481 314.173651 
L 924.694096 317.65138 
L 930.957712 320.874836 
L 937.221327 323.854808 
L 943.85339 326.762294 
L 952.696141 330.364167 
L 962.275788 334.026211 
L 972.960779 337.864776 
L 984.014218 341.608359 
L 995.436104 345.239065 
L 1008.331783 349.09992 
L 1021.595909 352.837251 
L 1034.860036 356.348565 
L 1048.124162 359.629624 
L 1061.01984 362.588738 
L 1073.547071 365.234459 
L 1085.705854 367.579345 
L 1087.179645 367.848273 
L 1087.179645 367.848273 
" clip-path="url(#p035857793d)" style="fill: none; stroke: #4c72b0; stroke-opacity: 0.9; stroke-width: 3; stroke-linecap: round"/>
   </g>
   <g id="line2d_68">
    <path d="M 818.581085 261.713066 
L 827.055388 261.86669 
L 830.37142 262.234405 
L 833.687451 262.816616 
L 837.371931 263.681988 
L 841.424858 264.858378 
L 846.214682 266.490746 
L 852.109849 268.755186 
L 861.689496 272.724953 
L 873.479831 277.561856 
L 881.585686 280.641664 
L 889.323093 283.334617 
L 897.0605 285.785215 
L 904.429459 287.89338 
L 912.166866 289.876504 
L 923.588753 292.542021 
L 947.53787 297.892694 
L 963.012684 301.130831 
L 979.224394 304.276718 
L 1003.173511 308.664163 
L 1027.859524 312.978924 
L 1048.861058 316.426726 
L 1067.651904 319.290194 
L 1085.705854 321.816758 
L 1087.179645 322.012697 
L 1087.179645 322.012697 
" clip-path="url(#p035857793d)" style="fill: none; stroke: #dd8452; stroke-opacity: 0.9; stroke-width: 3; stroke-linecap: round"/>
   </g>
   <g id="line2d_69">
    <path d="M 818.581085 261.713066 
L 828.160732 261.918914 
L 832.582107 262.308108 
L 837.371931 262.957145 
L 842.89865 263.943915 
L 849.162265 265.307055 
L 856.162777 267.069787 
L 864.268632 269.34721 
L 874.585174 272.493091 
L 916.219793 285.470827 
L 927.64168 288.634521 
L 939.063567 291.561863 
L 950.853901 294.349244 
L 963.012684 296.992505 
L 975.171467 299.410981 
L 987.330249 301.603269 
L 999.120584 303.504871 
L 1010.910918 305.182887 
L 1023.069701 306.683679 
L 1035.596931 308.00313 
L 1049.229506 309.210103 
L 1063.967424 310.286808 
L 1080.179134 311.241625 
L 1087.179645 311.589832 
L 1087.179645 311.589832 
" clip-path="url(#p035857793d)" style="fill: none; stroke: #55a868; stroke-opacity: 0.9; stroke-width: 3; stroke-linecap: round"/>
   </g>
   <g id="line2d_70">
    <path d="M 818.581085 261.713066 
L 828.160732 261.894232 
L 832.582107 262.259147 
L 837.371931 262.870906 
L 842.89865 263.806428 
L 849.162265 265.106459 
L 856.162777 266.792826 
L 865.005528 269.16902 
L 878.638102 273.10092 
L 899.271187 279.026029 
L 911.798418 282.383123 
L 923.957201 285.412562 
L 936.852879 288.391409 
L 950.117006 291.225969 
L 963.74958 293.907756 
L 977.382154 296.360932 
L 990.646281 298.520633 
L 1003.541959 300.398657 
L 1016.806086 302.102858 
L 1030.070212 303.581604 
L 1043.702787 304.874212 
L 1058.072257 306.008228 
L 1073.547071 307.004848 
L 1087.179645 307.723065 
L 1087.179645 307.723065 
" clip-path="url(#p035857793d)" style="fill: none; stroke: #c44e52; stroke-opacity: 0.9; stroke-width: 3; stroke-linecap: round"/>
   </g>
   <g id="line2d_71">
    <path d="M 818.581085 261.713066 
L 827.423836 261.888976 
L 831.108315 262.250241 
L 835.161243 262.869212 
L 839.951066 263.822274 
L 846.58313 265.388329 
L 877.901206 273.100999 
L 887.112405 275.004112 
L 895.955156 276.607726 
L 908.850834 278.662601 
L 986.224905 290.734136 
L 1013.858502 295.049861 
L 1035.596931 298.219992 
L 1055.124673 300.843813 
L 1071.704831 302.852633 
L 1087.179645 304.522905 
L 1087.179645 304.522905 
" clip-path="url(#p035857793d)" style="fill: none; stroke: #8172b3; stroke-opacity: 0.9; stroke-width: 3; stroke-linecap: round"/>
   </g>
   <g id="line2d_72">
    <path d="M 818.581085 261.713066 
L 827.423836 261.870649 
L 831.108315 262.212352 
L 835.529691 262.858034 
L 840.687962 263.843751 
L 848.056921 265.499151 
L 873.848278 271.474486 
L 883.796373 273.476609 
L 893.37602 275.175769 
L 905.903251 277.133008 
L 927.273232 280.25929 
L 948.643214 283.177887 
L 967.434059 285.525984 
L 997.646792 289.009363 
L 1045.913474 294.357599 
L 1066.178112 296.305186 
L 1087.179645 298.119621 
L 1087.179645 298.119621 
" clip-path="url(#p035857793d)" style="fill: none; stroke: #937860; stroke-opacity: 0.9; stroke-width: 3; stroke-linecap: round"/>
   </g>
   <g id="patch_18">
    <path d="M 805.151157 373.284 
L 805.151157 253.698 
" style="fill: none; stroke: #ffffff; stroke-width: 1.25; stroke-linejoin: miter; stroke-linecap: square"/>
   </g>
   <g id="patch_19">
    <path d="M 805.151157 373.284 
L 1100.609573 373.284 
" style="fill: none; stroke: #ffffff; stroke-width: 1.25; stroke-linejoin: miter; stroke-linecap: square"/>
   </g>
   <g id="text_27">
    <!-- 0.999~365 -->
    <g style="fill: #262626" transform="translate(882.200271 247.698) scale(0.252 -0.252)">
     <use xlink:href="#DejaVuSans-30"/>
     <use xlink:href="#DejaVuSans-2e" x="63.623047"/>
     <use xlink:href="#DejaVuSans-39" x="95.410156"/>
     <use xlink:href="#DejaVuSans-39" x="159.033203"/>
     <use xlink:href="#DejaVuSans-39" x="222.65625"/>
     <use xlink:href="#DejaVuSans-7e" x="286.279297"/>
     <use xlink:href="#DejaVuSans-33" x="370.068359"/>
     <use xlink:href="#DejaVuSans-36" x="433.691406"/>
     <use xlink:href="#DejaVuSans-35" x="497.314453"/>
    </g>
   </g>
  </g>
  <g id="text_28">
   <!-- Production change from pre-shock level -->
   <g style="fill: #262626" transform="translate(280.766836 30.177675) scale(0.3024 -0.3024)">
    <defs>
     <path id="DejaVuSans-50" d="M 1259 4147 
L 1259 2394 
L 2053 2394 
Q 2494 2394 2734 2622 
Q 2975 2850 2975 3272 
Q 2975 3691 2734 3919 
Q 2494 4147 2053 4147 
L 1259 4147 
z
M 628 4666 
L 2053 4666 
Q 2838 4666 3239 4311 
Q 3641 3956 3641 3272 
Q 3641 2581 3239 2228 
Q 2838 1875 2053 1875 
L 1259 1875 
L 1259 0 
L 628 0 
L 628 4666 
z
" transform="scale(0.015625)"/>
     <path id="DejaVuSans-72" d="M 2631 2963 
Q 2534 3019 2420 3045 
Q 2306 3072 2169 3072 
Q 1681 3072 1420 2755 
Q 1159 2438 1159 1844 
L 1159 0 
L 581 0 
L 581 3500 
L 1159 3500 
L 1159 2956 
Q 1341 3275 1631 3429 
Q 1922 3584 2338 3584 
Q 2397 3584 2469 3576 
Q 2541 3569 2628 3553 
L 2631 2963 
z
" transform="scale(0.015625)"/>
     <path id="DejaVuSans-6f" d="M 1959 3097 
Q 1497 3097 1228 2736 
Q 959 2375 959 1747 
Q 959 1119 1226 758 
Q 1494 397 1959 397 
Q 2419 397 2687 759 
Q 2956 1122 2956 1747 
Q 2956 2369 2687 2733 
Q 2419 3097 1959 3097 
z
M 1959 3584 
Q 2709 3584 3137 3096 
Q 3566 2609 3566 1747 
Q 3566 888 3137 398 
Q 2709 -91 1959 -91 
Q 1206 -91 779 398 
Q 353 888 353 1747 
Q 353 2609 779 3096 
Q 1206 3584 1959 3584 
z
" transform="scale(0.015625)"/>
     <path id="DejaVuSans-64" d="M 2906 2969 
L 2906 4863 
L 3481 4863 
L 3481 0 
L 2906 0 
L 2906 525 
Q 2725 213 2448 61 
Q 2172 -91 1784 -91 
Q 1150 -91 751 415 
Q 353 922 353 1747 
Q 353 2572 751 3078 
Q 1150 3584 1784 3584 
Q 2172 3584 2448 3432 
Q 2725 3281 2906 2969 
z
M 947 1747 
Q 947 1113 1208 752 
Q 1469 391 1925 391 
Q 2381 391 2643 752 
Q 2906 1113 2906 1747 
Q 2906 2381 2643 2742 
Q 2381 3103 1925 3103 
Q 1469 3103 1208 2742 
Q 947 2381 947 1747 
z
" transform="scale(0.015625)"/>
     <path id="DejaVuSans-75" d="M 544 1381 
L 544 3500 
L 1119 3500 
L 1119 1403 
Q 1119 906 1312 657 
Q 1506 409 1894 409 
Q 2359 409 2629 706 
Q 2900 1003 2900 1516 
L 2900 3500 
L 3475 3500 
L 3475 0 
L 2900 0 
L 2900 538 
Q 2691 219 2414 64 
Q 2138 -91 1772 -91 
Q 1169 -91 856 284 
Q 544 659 544 1381 
z
M 1991 3584 
L 1991 3584 
z
" transform="scale(0.015625)"/>
     <path id="DejaVuSans-69" d="M 603 3500 
L 1178 3500 
L 1178 0 
L 603 0 
L 603 3500 
z
M 603 4863 
L 1178 4863 
L 1178 4134 
L 603 4134 
L 603 4863 
z
" transform="scale(0.015625)"/>
     <path id="DejaVuSans-66" d="M 2375 4863 
L 2375 4384 
L 1825 4384 
Q 1516 4384 1395 4259 
Q 1275 4134 1275 3809 
L 1275 3500 
L 2222 3500 
L 2222 3053 
L 1275 3053 
L 1275 0 
L 697 0 
L 697 3053 
L 147 3053 
L 147 3500 
L 697 3500 
L 697 3744 
Q 697 4328 969 4595 
Q 1241 4863 1831 4863 
L 2375 4863 
z
" transform="scale(0.015625)"/>
     <path id="DejaVuSans-6d" d="M 3328 2828 
Q 3544 3216 3844 3400 
Q 4144 3584 4550 3584 
Q 5097 3584 5394 3201 
Q 5691 2819 5691 2113 
L 5691 0 
L 5113 0 
L 5113 2094 
Q 5113 2597 4934 2840 
Q 4756 3084 4391 3084 
Q 3944 3084 3684 2787 
Q 3425 2491 3425 1978 
L 3425 0 
L 2847 0 
L 2847 2094 
Q 2847 2600 2669 2842 
Q 2491 3084 2119 3084 
Q 1678 3084 1418 2786 
Q 1159 2488 1159 1978 
L 1159 0 
L 581 0 
L 581 3500 
L 1159 3500 
L 1159 2956 
Q 1356 3278 1631 3431 
Q 1906 3584 2284 3584 
Q 2666 3584 2933 3390 
Q 3200 3197 3328 2828 
z
" transform="scale(0.015625)"/>
     <path id="DejaVuSans-2d" d="M 313 2009 
L 1997 2009 
L 1997 1497 
L 313 1497 
L 313 2009 
z
" transform="scale(0.015625)"/>
     <path id="DejaVuSans-6b" d="M 581 4863 
L 1159 4863 
L 1159 1991 
L 2875 3500 
L 3609 3500 
L 1753 1863 
L 3688 0 
L 2938 0 
L 1159 1709 
L 1159 0 
L 581 0 
L 581 4863 
z
" transform="scale(0.015625)"/>
     <path id="DejaVuSans-6c" d="M 603 4863 
L 1178 4863 
L 1178 0 
L 603 0 
L 603 4863 
z
" transform="scale(0.015625)"/>
     <path id="DejaVuSans-76" d="M 191 3500 
L 800 3500 
L 1894 563 
L 2988 3500 
L 3597 3500 
L 2284 0 
L 1503 0 
L 191 3500 
z
" transform="scale(0.015625)"/>
    </defs>
    <use xlink:href="#DejaVuSans-50"/>
    <use xlink:href="#DejaVuSans-72" x="58.552734"/>
    <use xlink:href="#DejaVuSans-6f" x="97.416016"/>
    <use xlink:href="#DejaVuSans-64" x="158.597656"/>
    <use xlink:href="#DejaVuSans-75" x="222.074219"/>
    <use xlink:href="#DejaVuSans-63" x="285.453125"/>
    <use xlink:href="#DejaVuSans-74" x="340.433594"/>
    <use xlink:href="#DejaVuSans-69" x="379.642578"/>
    <use xlink:href="#DejaVuSans-6f" x="407.425781"/>
    <use xlink:href="#DejaVuSans-6e" x="468.607422"/>
    <use xlink:href="#DejaVuSans-20" x="531.986328"/>
    <use xlink:href="#DejaVuSans-63" x="563.773438"/>
    <use xlink:href="#DejaVuSans-68" x="618.753906"/>
    <use xlink:href="#DejaVuSans-61" x="682.132812"/>
    <use xlink:href="#DejaVuSans-6e" x="743.412109"/>
    <use xlink:href="#DejaVuSans-67" x="806.791016"/>
    <use xlink:href="#DejaVuSans-65" x="870.267578"/>
    <use xlink:href="#DejaVuSans-20" x="931.791016"/>
    <use xlink:href="#DejaVuSans-66" x="963.578125"/>
    <use xlink:href="#DejaVuSans-72" x="998.783203"/>
    <use xlink:href="#DejaVuSans-6f" x="1037.646484"/>
    <use xlink:href="#DejaVuSans-6d" x="1098.828125"/>
    <use xlink:href="#DejaVuSans-20" x="1196.240234"/>
    <use xlink:href="#DejaVuSans-70" x="1228.027344"/>
    <use xlink:href="#DejaVuSans-72" x="1291.503906"/>
    <use xlink:href="#DejaVuSans-65" x="1330.367188"/>
    <use xlink:href="#DejaVuSans-2d" x="1391.890625"/>
    <use xlink:href="#DejaVuSans-73" x="1427.974609"/>
    <use xlink:href="#DejaVuSans-68" x="1480.074219"/>
    <use xlink:href="#DejaVuSans-6f" x="1543.453125"/>
    <use xlink:href="#DejaVuSans-63" x="1604.634766"/>
    <use xlink:href="#DejaVuSans-6b" x="1659.615234"/>
    <use xlink:href="#DejaVuSans-20" x="1717.525391"/>
    <use xlink:href="#DejaVuSans-6c" x="1749.3125"/>
    <use xlink:href="#DejaVuSans-65" x="1777.095703"/>
    <use xlink:href="#DejaVuSans-76" x="1838.619141"/>
    <use xlink:href="#DejaVuSans-65" x="1897.798828"/>
    <use xlink:href="#DejaVuSans-6c" x="1959.322266"/>
   </g>
  </g>
  <g id="legend_1">
   <g id="patch_20">
    <path d="M 11.82 584.31675 
L 1292.617547 584.31675 
Q 1297.237547 584.31675 1297.237547 579.69675 
L 1297.237547 476.97 
Q 1297.237547 472.35 1292.617547 472.35 
L 11.82 472.35 
Q 7.2 472.35 7.2 476.97 
L 7.2 579.69675 
Q 7.2 584.31675 11.82 584.31675 
z
" style="fill: #eaeaf2; opacity: 0.8; stroke: #cccccc; stroke-linejoin: miter"/>
   </g>
   <g id="text_29">
    <!-- Experiences -->
    <g style="fill: #262626" transform="translate(575.384367 500.738062) scale(0.252 -0.252)">
     <defs>
      <path id="DejaVuSans-45" d="M 628 4666 
L 3578 4666 
L 3578 4134 
L 1259 4134 
L 1259 2753 
L 3481 2753 
L 3481 2222 
L 1259 2222 
L 1259 531 
L 3634 531 
L 3634 0 
L 628 0 
L 628 4666 
z
" transform="scale(0.015625)"/>
      <path id="DejaVuSans-78" d="M 3513 3500 
L 2247 1797 
L 3578 0 
L 2900 0 
L 1881 1375 
L 863 0 
L 184 0 
L 1544 1831 
L 300 3500 
L 978 3500 
L 1906 2253 
L 2834 3500 
L 3513 3500 
z
" transform="scale(0.015625)"/>
     </defs>
     <use xlink:href="#DejaVuSans-45"/>
     <use xlink:href="#DejaVuSans-78" x="63.183594"/>
     <use xlink:href="#DejaVuSans-70" x="122.363281"/>
     <use xlink:href="#DejaVuSans-65" x="185.839844"/>
     <use xlink:href="#DejaVuSans-72" x="247.363281"/>
     <use xlink:href="#DejaVuSans-69" x="288.476562"/>
     <use xlink:href="#DejaVuSans-65" x="316.259766"/>
     <use xlink:href="#DejaVuSans-6e" x="377.783203"/>
     <use xlink:href="#DejaVuSans-63" x="441.162109"/>
     <use xlink:href="#DejaVuSans-65" x="496.142578"/>
     <use xlink:href="#DejaVuSans-73" x="557.666016"/>
    </g>
   </g>
   <g id="line2d_73">
    <path d="M 16.44 526.996266 
L 39.54 526.996266 
L 62.64 526.996266 
" style="fill: none; stroke: #4c72b0; stroke-opacity: 0.9; stroke-width: 3; stroke-linecap: round"/>
   </g>
   <g id="text_30">
    <!-- eora26_full_2000 -->
    <g style="fill: #262626" transform="translate(81.12 535.081266) scale(0.231 -0.231)">
     <defs>
      <path id="DejaVuSans-5f" d="M 3263 -1063 
L 3263 -1509 
L -63 -1509 
L -63 -1063 
L 3263 -1063 
z
" transform="scale(0.015625)"/>
     </defs>
     <use xlink:href="#DejaVuSans-65"/>
     <use xlink:href="#DejaVuSans-6f" x="61.523438"/>
     <use xlink:href="#DejaVuSans-72" x="122.705078"/>
     <use xlink:href="#DejaVuSans-61" x="163.818359"/>
     <use xlink:href="#DejaVuSans-32" x="225.097656"/>
     <use xlink:href="#DejaVuSans-36" x="288.720703"/>
     <use xlink:href="#DejaVuSans-5f" x="352.34375"/>
     <use xlink:href="#DejaVuSans-66" x="402.34375"/>
     <use xlink:href="#DejaVuSans-75" x="437.548828"/>
     <use xlink:href="#DejaVuSans-6c" x="500.927734"/>
     <use xlink:href="#DejaVuSans-6c" x="528.710938"/>
     <use xlink:href="#DejaVuSans-5f" x="556.494141"/>
     <use xlink:href="#DejaVuSans-32" x="606.494141"/>
     <use xlink:href="#DejaVuSans-30" x="670.117188"/>
     <use xlink:href="#DejaVuSans-30" x="733.740234"/>
     <use xlink:href="#DejaVuSans-30" x="797.363281"/>
    </g>
   </g>
   <g id="line2d_74">
    <path d="M 16.44 561.545203 
L 39.54 561.545203 
L 62.64 561.545203 
" style="fill: none; stroke: #dd8452; stroke-opacity: 0.9; stroke-width: 3; stroke-linecap: round"/>
   </g>
   <g id="text_31">
    <!-- eora26_full_2010 -->
    <g style="fill: #262626" transform="translate(81.12 569.630203) scale(0.231 -0.231)">
     <defs>
      <path id="DejaVuSans-31" d="M 794 531 
L 1825 531 
L 1825 4091 
L 703 3866 
L 703 4441 
L 1819 4666 
L 2450 4666 
L 2450 531 
L 3481 531 
L 3481 0 
L 794 0 
L 794 531 
z
" transform="scale(0.015625)"/>
     </defs>
     <use xlink:href="#DejaVuSans-65"/>
     <use xlink:href="#DejaVuSans-6f" x="61.523438"/>
     <use xlink:href="#DejaVuSans-72" x="122.705078"/>
     <use xlink:href="#DejaVuSans-61" x="163.818359"/>
     <use xlink:href="#DejaVuSans-32" x="225.097656"/>
     <use xlink:href="#DejaVuSans-36" x="288.720703"/>
     <use xlink:href="#DejaVuSans-5f" x="352.34375"/>
     <use xlink:href="#DejaVuSans-66" x="402.34375"/>
     <use xlink:href="#DejaVuSans-75" x="437.548828"/>
     <use xlink:href="#DejaVuSans-6c" x="500.927734"/>
     <use xlink:href="#DejaVuSans-6c" x="528.710938"/>
     <use xlink:href="#DejaVuSans-5f" x="556.494141"/>
     <use xlink:href="#DejaVuSans-32" x="606.494141"/>
     <use xlink:href="#DejaVuSans-30" x="670.117188"/>
     <use xlink:href="#DejaVuSans-31" x="733.740234"/>
     <use xlink:href="#DejaVuSans-30" x="797.363281"/>
    </g>
   </g>
   <g id="line2d_75">
    <path d="M 326.211 526.996266 
L 349.311 526.996266 
L 372.411 526.996266 
" style="fill: none; stroke: #55a868; stroke-opacity: 0.9; stroke-width: 3; stroke-linecap: round"/>
   </g>
   <g id="text_32">
    <!-- euregio_full_2000 -->
    <g style="fill: #262626" transform="translate(390.891 535.081266) scale(0.231 -0.231)">
     <use xlink:href="#DejaVuSans-65"/>
     <use xlink:href="#DejaVuSans-75" x="61.523438"/>
     <use xlink:href="#DejaVuSans-72" x="124.902344"/>
     <use xlink:href="#DejaVuSans-65" x="163.765625"/>
     <use xlink:href="#DejaVuSans-67" x="225.289062"/>
     <use xlink:href="#DejaVuSans-69" x="288.765625"/>
     <use xlink:href="#DejaVuSans-6f" x="316.548828"/>
     <use xlink:href="#DejaVuSans-5f" x="377.730469"/>
     <use xlink:href="#DejaVuSans-66" x="427.730469"/>
     <use xlink:href="#DejaVuSans-75" x="462.935547"/>
     <use xlink:href="#DejaVuSans-6c" x="526.314453"/>
     <use xlink:href="#DejaVuSans-6c" x="554.097656"/>
     <use xlink:href="#DejaVuSans-5f" x="581.880859"/>
     <use xlink:href="#DejaVuSans-32" x="631.880859"/>
     <use xlink:href="#DejaVuSans-30" x="695.503906"/>
     <use xlink:href="#DejaVuSans-30" x="759.126953"/>
     <use xlink:href="#DejaVuSans-30" x="822.75"/>
    </g>
   </g>
   <g id="line2d_76">
    <path d="M 326.211 561.545203 
L 349.311 561.545203 
L 372.411 561.545203 
" style="fill: none; stroke: #c44e52; stroke-opacity: 0.9; stroke-width: 3; stroke-linecap: round"/>
   </g>
   <g id="text_33">
    <!-- euregio_full_2010 -->
    <g style="fill: #262626" transform="translate(390.891 569.630203) scale(0.231 -0.231)">
     <use xlink:href="#DejaVuSans-65"/>
     <use xlink:href="#DejaVuSans-75" x="61.523438"/>
     <use xlink:href="#DejaVuSans-72" x="124.902344"/>
     <use xlink:href="#DejaVuSans-65" x="163.765625"/>
     <use xlink:href="#DejaVuSans-67" x="225.289062"/>
     <use xlink:href="#DejaVuSans-69" x="288.765625"/>
     <use xlink:href="#DejaVuSans-6f" x="316.548828"/>
     <use xlink:href="#DejaVuSans-5f" x="377.730469"/>
     <use xlink:href="#DejaVuSans-66" x="427.730469"/>
     <use xlink:href="#DejaVuSans-75" x="462.935547"/>
     <use xlink:href="#DejaVuSans-6c" x="526.314453"/>
     <use xlink:href="#DejaVuSans-6c" x="554.097656"/>
     <use xlink:href="#DejaVuSans-5f" x="581.880859"/>
     <use xlink:href="#DejaVuSans-32" x="631.880859"/>
     <use xlink:href="#DejaVuSans-30" x="695.503906"/>
     <use xlink:href="#DejaVuSans-31" x="759.126953"/>
     <use xlink:href="#DejaVuSans-30" x="822.75"/>
    </g>
   </g>
   <g id="line2d_77">
    <path d="M 641.847234 526.996266 
L 664.947234 526.996266 
L 688.047234 526.996266 
" style="fill: none; stroke: #8172b3; stroke-opacity: 0.9; stroke-width: 3; stroke-linecap: round"/>
   </g>
   <g id="text_34">
    <!-- exiobase3_full_2000 -->
    <g style="fill: #262626" transform="translate(706.527234 535.081266) scale(0.231 -0.231)">
     <defs>
      <path id="DejaVuSans-62" d="M 3116 1747 
Q 3116 2381 2855 2742 
Q 2594 3103 2138 3103 
Q 1681 3103 1420 2742 
Q 1159 2381 1159 1747 
Q 1159 1113 1420 752 
Q 1681 391 2138 391 
Q 2594 391 2855 752 
Q 3116 1113 3116 1747 
z
M 1159 2969 
Q 1341 3281 1617 3432 
Q 1894 3584 2278 3584 
Q 2916 3584 3314 3078 
Q 3713 2572 3713 1747 
Q 3713 922 3314 415 
Q 2916 -91 2278 -91 
Q 1894 -91 1617 61 
Q 1341 213 1159 525 
L 1159 0 
L 581 0 
L 581 4863 
L 1159 4863 
L 1159 2969 
z
" transform="scale(0.015625)"/>
     </defs>
     <use xlink:href="#DejaVuSans-65"/>
     <use xlink:href="#DejaVuSans-78" x="59.773438"/>
     <use xlink:href="#DejaVuSans-69" x="118.953125"/>
     <use xlink:href="#DejaVuSans-6f" x="146.736328"/>
     <use xlink:href="#DejaVuSans-62" x="207.917969"/>
     <use xlink:href="#DejaVuSans-61" x="271.394531"/>
     <use xlink:href="#DejaVuSans-73" x="332.673828"/>
     <use xlink:href="#DejaVuSans-65" x="384.773438"/>
     <use xlink:href="#DejaVuSans-33" x="446.296875"/>
     <use xlink:href="#DejaVuSans-5f" x="509.919922"/>
     <use xlink:href="#DejaVuSans-66" x="559.919922"/>
     <use xlink:href="#DejaVuSans-75" x="595.125"/>
     <use xlink:href="#DejaVuSans-6c" x="658.503906"/>
     <use xlink:href="#DejaVuSans-6c" x="686.287109"/>
     <use xlink:href="#DejaVuSans-5f" x="714.070312"/>
     <use xlink:href="#DejaVuSans-32" x="764.070312"/>
     <use xlink:href="#DejaVuSans-30" x="827.693359"/>
     <use xlink:href="#DejaVuSans-30" x="891.316406"/>
     <use xlink:href="#DejaVuSans-30" x="954.939453"/>
    </g>
   </g>
   <g id="line2d_78">
    <path d="M 988.022391 526.996266 
L 1011.122391 526.996266 
L 1034.222391 526.996266 
" style="fill: none; stroke: #937860; stroke-opacity: 0.9; stroke-width: 3; stroke-linecap: round"/>
   </g>
   <g id="text_35">
    <!-- exiobase3_full_2010 -->
    <g style="fill: #262626" transform="translate(1052.702391 535.081266) scale(0.231 -0.231)">
     <use xlink:href="#DejaVuSans-65"/>
     <use xlink:href="#DejaVuSans-78" x="59.773438"/>
     <use xlink:href="#DejaVuSans-69" x="118.953125"/>
     <use xlink:href="#DejaVuSans-6f" x="146.736328"/>
     <use xlink:href="#DejaVuSans-62" x="207.917969"/>
     <use xlink:href="#DejaVuSans-61" x="271.394531"/>
     <use xlink:href="#DejaVuSans-73" x="332.673828"/>
     <use xlink:href="#DejaVuSans-65" x="384.773438"/>
     <use xlink:href="#DejaVuSans-33" x="446.296875"/>
     <use xlink:href="#DejaVuSans-5f" x="509.919922"/>
     <use xlink:href="#DejaVuSans-66" x="559.919922"/>
     <use xlink:href="#DejaVuSans-75" x="595.125"/>
     <use xlink:href="#DejaVuSans-6c" x="658.503906"/>
     <use xlink:href="#DejaVuSans-6c" x="686.287109"/>
     <use xlink:href="#DejaVuSans-5f" x="714.070312"/>
     <use xlink:href="#DejaVuSans-32" x="764.070312"/>
     <use xlink:href="#DejaVuSans-30" x="827.693359"/>
     <use xlink:href="#DejaVuSans-31" x="891.316406"/>
     <use xlink:href="#DejaVuSans-30" x="954.939453"/>
    </g>
   </g>
  </g>
 </g>
 <defs>
  <clipPath id="p6f043a3508">
   <rect x="160.9429" y="81.456" width="295.458416" height="119.586"/>
  </clipPath>
  <clipPath id="pf171daa647">
   <rect x="483.047028" y="81.456" width="295.458416" height="119.586"/>
  </clipPath>
  <clipPath id="p7130a15a0c">
   <rect x="805.151157" y="81.456" width="295.458416" height="119.586"/>
  </clipPath>
  <clipPath id="pd4d1e1c7b1">
   <rect x="160.9429" y="253.698" width="295.458416" height="119.586"/>
  </clipPath>
  <clipPath id="p44815e0b7f">
   <rect x="483.047028" y="253.698" width="295.458416" height="119.586"/>
  </clipPath>
  <clipPath id="p035857793d">
   <rect x="805.151157" y="253.698" width="295.458416" height="119.586"/>
  </clipPath>
 </defs>
</svg>
