<?xml version="1.0" encoding="utf-8" standalone="no"?>
<!DOCTYPE svg PUBLIC "-//W3C//DTD SVG 1.1//EN"
  "http://www.w3.org/Graphics/SVG/1.1/DTD/svg11.dtd">
<svg xmlns:xlink="http://www.w3.org/1999/xlink" width="2091.39617pt" height="330.167813pt" viewBox="0 0 2091.39617 330.167813" xmlns="http://www.w3.org/2000/svg" version="1.1">
 <metadata>
  <rdf:RDF xmlns:dc="http://purl.org/dc/elements/1.1/" xmlns:cc="http://creativecommons.org/ns#" xmlns:rdf="http://www.w3.org/1999/02/22-rdf-syntax-ns#">
   <cc:Work>
    <dc:type rdf:resource="http://purl.org/dc/dcmitype/StillImage"/>
    <dc:date>2023-04-07T16:33:55.645706</dc:date>
    <dc:format>image/svg+xml</dc:format>
    <dc:creator>
     <cc:Agent>
      <dc:title>Matplotlib v3.7.1, https://matplotlib.org/</dc:title>
     </cc:Agent>
    </dc:creator>
   </cc:Work>
  </rdf:RDF>
 </metadata>
 <defs>
  <style type="text/css">*{stroke-linejoin: round; stroke-linecap: butt}</style>
 </defs>
 <g id="figure_1">
  <g id="patch_1">
   <path d="M 0 330.167813 
L 2091.39617 330.167813 
L 2091.39617 0 
L 0 0 
z
" style="fill: #ffffff"/>
  </g>
  <g id="axes_1">
   <g id="patch_2">
    <path d="M 93.840703 146.484 
L 387.803268 146.484 
L 387.803268 70.656 
L 93.840703 70.656 
z
" style="fill: #eaeaf2"/>
   </g>
   <g id="matplotlib.axis_1">
    <g id="xtick_1">
     <g id="line2d_1">
      <path d="M 107.202638 146.484 
L 107.202638 70.656 
" clip-path="url(#p418dacda58)" style="fill: none; stroke: #ffffff; stroke-linecap: round"/>
     </g>
     <g id="text_1">
      <!-- 0 -->
      <g style="fill: #262626" transform="translate(99.85395 173.536391) scale(0.231 -0.231)">
       <defs>
        <path id="DejaVuSans-30" d="M 2034 4250 
Q 1547 4250 1301 3770 
Q 1056 3291 1056 2328 
Q 1056 1369 1301 889 
Q 1547 409 2034 409 
Q 2525 409 2770 889 
Q 3016 1369 3016 2328 
Q 3016 3291 2770 3770 
Q 2525 4250 2034 4250 
z
M 2034 4750 
Q 2819 4750 3233 4129 
Q 3647 3509 3647 2328 
Q 3647 1150 3233 529 
Q 2819 -91 2034 -91 
Q 1250 -91 836 529 
Q 422 1150 422 2328 
Q 422 3509 836 4129 
Q 1250 4750 2034 4750 
z
" transform="scale(0.015625)"/>
       </defs>
       <use xlink:href="#DejaVuSans-30"/>
      </g>
     </g>
    </g>
    <g id="xtick_2">
     <g id="line2d_2">
      <path d="M 198.848281 146.484 
L 198.848281 70.656 
" clip-path="url(#p418dacda58)" style="fill: none; stroke: #ffffff; stroke-linecap: round"/>
     </g>
     <g id="text_2">
      <!-- 250 -->
      <g style="fill: #262626" transform="translate(176.802219 173.536391) scale(0.231 -0.231)">
       <defs>
        <path id="DejaVuSans-32" d="M 1228 531 
L 3431 531 
L 3431 0 
L 469 0 
L 469 531 
Q 828 903 1448 1529 
Q 2069 2156 2228 2338 
Q 2531 2678 2651 2914 
Q 2772 3150 2772 3378 
Q 2772 3750 2511 3984 
Q 2250 4219 1831 4219 
Q 1534 4219 1204 4116 
Q 875 4013 500 3803 
L 500 4441 
Q 881 4594 1212 4672 
Q 1544 4750 1819 4750 
Q 2544 4750 2975 4387 
Q 3406 4025 3406 3419 
Q 3406 3131 3298 2873 
Q 3191 2616 2906 2266 
Q 2828 2175 2409 1742 
Q 1991 1309 1228 531 
z
" transform="scale(0.015625)"/>
        <path id="DejaVuSans-35" d="M 691 4666 
L 3169 4666 
L 3169 4134 
L 1269 4134 
L 1269 2991 
Q 1406 3038 1543 3061 
Q 1681 3084 1819 3084 
Q 2600 3084 3056 2656 
Q 3513 2228 3513 1497 
Q 3513 744 3044 326 
Q 2575 -91 1722 -91 
Q 1428 -91 1123 -41 
Q 819 9 494 109 
L 494 744 
Q 775 591 1075 516 
Q 1375 441 1709 441 
Q 2250 441 2565 725 
Q 2881 1009 2881 1497 
Q 2881 1984 2565 2268 
Q 2250 2553 1709 2553 
Q 1456 2553 1204 2497 
Q 953 2441 691 2322 
L 691 4666 
z
" transform="scale(0.015625)"/>
       </defs>
       <use xlink:href="#DejaVuSans-32"/>
       <use xlink:href="#DejaVuSans-35" x="63.623047"/>
       <use xlink:href="#DejaVuSans-30" x="127.246094"/>
      </g>
     </g>
    </g>
    <g id="xtick_3">
     <g id="line2d_3">
      <path d="M 290.493924 146.484 
L 290.493924 70.656 
" clip-path="url(#p418dacda58)" style="fill: none; stroke: #ffffff; stroke-linecap: round"/>
     </g>
     <g id="text_3">
      <!-- 500 -->
      <g style="fill: #262626" transform="translate(268.447862 173.536391) scale(0.231 -0.231)">
       <use xlink:href="#DejaVuSans-35"/>
       <use xlink:href="#DejaVuSans-30" x="63.623047"/>
       <use xlink:href="#DejaVuSans-30" x="127.246094"/>
      </g>
     </g>
    </g>
    <g id="xtick_4">
     <g id="line2d_4">
      <path d="M 382.139568 146.484 
L 382.139568 70.656 
" clip-path="url(#p418dacda58)" style="fill: none; stroke: #ffffff; stroke-linecap: round"/>
     </g>
     <g id="text_4">
      <!-- 750 -->
      <g style="fill: #262626" transform="translate(360.093505 173.536391) scale(0.231 -0.231)">
       <defs>
        <path id="DejaVuSans-37" d="M 525 4666 
L 3525 4666 
L 3525 4397 
L 1831 0 
L 1172 0 
L 2766 4134 
L 525 4134 
L 525 4666 
z
" transform="scale(0.015625)"/>
       </defs>
       <use xlink:href="#DejaVuSans-37"/>
       <use xlink:href="#DejaVuSans-35" x="63.623047"/>
       <use xlink:href="#DejaVuSans-30" x="127.246094"/>
      </g>
     </g>
    </g>
    <g id="text_5">
     <!-- step -->
     <g style="fill: #262626" transform="translate(213.566611 201.488531) scale(0.252 -0.252)">
      <defs>
       <path id="DejaVuSans-73" d="M 2834 3397 
L 2834 2853 
Q 2591 2978 2328 3040 
Q 2066 3103 1784 3103 
Q 1356 3103 1142 2972 
Q 928 2841 928 2578 
Q 928 2378 1081 2264 
Q 1234 2150 1697 2047 
L 1894 2003 
Q 2506 1872 2764 1633 
Q 3022 1394 3022 966 
Q 3022 478 2636 193 
Q 2250 -91 1575 -91 
Q 1294 -91 989 -36 
Q 684 19 347 128 
L 347 722 
Q 666 556 975 473 
Q 1284 391 1588 391 
Q 1994 391 2212 530 
Q 2431 669 2431 922 
Q 2431 1156 2273 1281 
Q 2116 1406 1581 1522 
L 1381 1569 
Q 847 1681 609 1914 
Q 372 2147 372 2553 
Q 372 3047 722 3315 
Q 1072 3584 1716 3584 
Q 2034 3584 2315 3537 
Q 2597 3491 2834 3397 
z
" transform="scale(0.015625)"/>
       <path id="DejaVuSans-74" d="M 1172 4494 
L 1172 3500 
L 2356 3500 
L 2356 3053 
L 1172 3053 
L 1172 1153 
Q 1172 725 1289 603 
Q 1406 481 1766 481 
L 2356 481 
L 2356 0 
L 1766 0 
Q 1100 0 847 248 
Q 594 497 594 1153 
L 594 3053 
L 172 3053 
L 172 3500 
L 594 3500 
L 594 4494 
L 1172 4494 
z
" transform="scale(0.015625)"/>
       <path id="DejaVuSans-65" d="M 3597 1894 
L 3597 1613 
L 953 1613 
Q 991 1019 1311 708 
Q 1631 397 2203 397 
Q 2534 397 2845 478 
Q 3156 559 3463 722 
L 3463 178 
Q 3153 47 2828 -22 
Q 2503 -91 2169 -91 
Q 1331 -91 842 396 
Q 353 884 353 1716 
Q 353 2575 817 3079 
Q 1281 3584 2069 3584 
Q 2775 3584 3186 3129 
Q 3597 2675 3597 1894 
z
M 3022 2063 
Q 3016 2534 2758 2815 
Q 2500 3097 2075 3097 
Q 1594 3097 1305 2825 
Q 1016 2553 972 2059 
L 3022 2063 
z
" transform="scale(0.015625)"/>
       <path id="DejaVuSans-70" d="M 1159 525 
L 1159 -1331 
L 581 -1331 
L 581 3500 
L 1159 3500 
L 1159 2969 
Q 1341 3281 1617 3432 
Q 1894 3584 2278 3584 
Q 2916 3584 3314 3078 
Q 3713 2572 3713 1747 
Q 3713 922 3314 415 
Q 2916 -91 2278 -91 
Q 1894 -91 1617 61 
Q 1341 213 1159 525 
z
M 3116 1747 
Q 3116 2381 2855 2742 
Q 2594 3103 2138 3103 
Q 1681 3103 1420 2742 
Q 1159 2381 1159 1747 
Q 1159 1113 1420 752 
Q 1681 391 2138 391 
Q 2594 391 2855 752 
Q 3116 1113 3116 1747 
z
" transform="scale(0.015625)"/>
      </defs>
      <use xlink:href="#DejaVuSans-73"/>
      <use xlink:href="#DejaVuSans-74" x="52.099609"/>
      <use xlink:href="#DejaVuSans-65" x="91.308594"/>
      <use xlink:href="#DejaVuSans-70" x="152.832031"/>
     </g>
    </g>
   </g>
   <g id="matplotlib.axis_2">
    <g id="ytick_1">
     <g id="line2d_5">
      <path d="M 93.840703 133.516961 
L 387.803268 133.516961 
" clip-path="url(#p418dacda58)" style="fill: none; stroke: #ffffff; stroke-linecap: round"/>
     </g>
     <g id="text_6">
      <!-- −50 -->
      <g style="fill: #262626" transform="translate(35.588875 142.293156) scale(0.231 -0.231)">
       <defs>
        <path id="DejaVuSans-2212" d="M 678 2272 
L 4684 2272 
L 4684 1741 
L 678 1741 
L 678 2272 
z
" transform="scale(0.015625)"/>
       </defs>
       <use xlink:href="#DejaVuSans-2212"/>
       <use xlink:href="#DejaVuSans-35" x="83.789062"/>
       <use xlink:href="#DejaVuSans-30" x="147.412109"/>
      </g>
     </g>
    </g>
    <g id="ytick_2">
     <g id="line2d_6">
      <path d="M 93.840703 82.825632 
L 387.803268 82.825632 
" clip-path="url(#p418dacda58)" style="fill: none; stroke: #ffffff; stroke-linecap: round"/>
     </g>
     <g id="text_7">
      <!-- 0 -->
      <g style="fill: #262626" transform="translate(69.643328 91.601827) scale(0.231 -0.231)">
       <use xlink:href="#DejaVuSans-30"/>
      </g>
     </g>
    </g>
    <g id="text_8">
     <!-- % change -->
     <g style="fill: #262626" transform="translate(26.348062 170.918344) rotate(-90) scale(0.252 -0.252)">
      <defs>
       <path id="DejaVuSans-25" d="M 4653 2053 
Q 4381 2053 4226 1822 
Q 4072 1591 4072 1178 
Q 4072 772 4226 539 
Q 4381 306 4653 306 
Q 4919 306 5073 539 
Q 5228 772 5228 1178 
Q 5228 1588 5073 1820 
Q 4919 2053 4653 2053 
z
M 4653 2450 
Q 5147 2450 5437 2106 
Q 5728 1763 5728 1178 
Q 5728 594 5436 251 
Q 5144 -91 4653 -91 
Q 4153 -91 3862 251 
Q 3572 594 3572 1178 
Q 3572 1766 3864 2108 
Q 4156 2450 4653 2450 
z
M 1428 4353 
Q 1159 4353 1004 4120 
Q 850 3888 850 3481 
Q 850 3069 1003 2837 
Q 1156 2606 1428 2606 
Q 1700 2606 1854 2837 
Q 2009 3069 2009 3481 
Q 2009 3884 1853 4118 
Q 1697 4353 1428 4353 
z
M 4250 4750 
L 4750 4750 
L 1831 -91 
L 1331 -91 
L 4250 4750 
z
M 1428 4750 
Q 1922 4750 2215 4408 
Q 2509 4066 2509 3481 
Q 2509 2891 2217 2550 
Q 1925 2209 1428 2209 
Q 931 2209 642 2551 
Q 353 2894 353 3481 
Q 353 4063 643 4406 
Q 934 4750 1428 4750 
z
" transform="scale(0.015625)"/>
       <path id="DejaVuSans-20" transform="scale(0.015625)"/>
       <path id="DejaVuSans-63" d="M 3122 3366 
L 3122 2828 
Q 2878 2963 2633 3030 
Q 2388 3097 2138 3097 
Q 1578 3097 1268 2742 
Q 959 2388 959 1747 
Q 959 1106 1268 751 
Q 1578 397 2138 397 
Q 2388 397 2633 464 
Q 2878 531 3122 666 
L 3122 134 
Q 2881 22 2623 -34 
Q 2366 -91 2075 -91 
Q 1284 -91 818 406 
Q 353 903 353 1747 
Q 353 2603 823 3093 
Q 1294 3584 2113 3584 
Q 2378 3584 2631 3529 
Q 2884 3475 3122 3366 
z
" transform="scale(0.015625)"/>
       <path id="DejaVuSans-68" d="M 3513 2113 
L 3513 0 
L 2938 0 
L 2938 2094 
Q 2938 2591 2744 2837 
Q 2550 3084 2163 3084 
Q 1697 3084 1428 2787 
Q 1159 2491 1159 1978 
L 1159 0 
L 581 0 
L 581 4863 
L 1159 4863 
L 1159 2956 
Q 1366 3272 1645 3428 
Q 1925 3584 2291 3584 
Q 2894 3584 3203 3211 
Q 3513 2838 3513 2113 
z
" transform="scale(0.015625)"/>
       <path id="DejaVuSans-61" d="M 2194 1759 
Q 1497 1759 1228 1600 
Q 959 1441 959 1056 
Q 959 750 1161 570 
Q 1363 391 1709 391 
Q 2188 391 2477 730 
Q 2766 1069 2766 1631 
L 2766 1759 
L 2194 1759 
z
M 3341 1997 
L 3341 0 
L 2766 0 
L 2766 531 
Q 2569 213 2275 61 
Q 1981 -91 1556 -91 
Q 1019 -91 701 211 
Q 384 513 384 1019 
Q 384 1609 779 1909 
Q 1175 2209 1959 2209 
L 2766 2209 
L 2766 2266 
Q 2766 2663 2505 2880 
Q 2244 3097 1772 3097 
Q 1472 3097 1187 3025 
Q 903 2953 641 2809 
L 641 3341 
Q 956 3463 1253 3523 
Q 1550 3584 1831 3584 
Q 2591 3584 2966 3190 
Q 3341 2797 3341 1997 
z
" transform="scale(0.015625)"/>
       <path id="DejaVuSans-6e" d="M 3513 2113 
L 3513 0 
L 2938 0 
L 2938 2094 
Q 2938 2591 2744 2837 
Q 2550 3084 2163 3084 
Q 1697 3084 1428 2787 
Q 1159 2491 1159 1978 
L 1159 0 
L 581 0 
L 581 3500 
L 1159 3500 
L 1159 2956 
Q 1366 3272 1645 3428 
Q 1925 3584 2291 3584 
Q 2894 3584 3203 3211 
Q 3513 2838 3513 2113 
z
" transform="scale(0.015625)"/>
       <path id="DejaVuSans-67" d="M 2906 1791 
Q 2906 2416 2648 2759 
Q 2391 3103 1925 3103 
Q 1463 3103 1205 2759 
Q 947 2416 947 1791 
Q 947 1169 1205 825 
Q 1463 481 1925 481 
Q 2391 481 2648 825 
Q 2906 1169 2906 1791 
z
M 3481 434 
Q 3481 -459 3084 -895 
Q 2688 -1331 1869 -1331 
Q 1566 -1331 1297 -1286 
Q 1028 -1241 775 -1147 
L 775 -588 
Q 1028 -725 1275 -790 
Q 1522 -856 1778 -856 
Q 2344 -856 2625 -561 
Q 2906 -266 2906 331 
L 2906 616 
Q 2728 306 2450 153 
Q 2172 0 1784 0 
Q 1141 0 747 490 
Q 353 981 353 1791 
Q 353 2603 747 3093 
Q 1141 3584 1784 3584 
Q 2172 3584 2450 3431 
Q 2728 3278 2906 2969 
L 2906 3500 
L 3481 3500 
L 3481 434 
z
" transform="scale(0.015625)"/>
      </defs>
      <use xlink:href="#DejaVuSans-25"/>
      <use xlink:href="#DejaVuSans-20" x="95.019531"/>
      <use xlink:href="#DejaVuSans-63" x="126.806641"/>
      <use xlink:href="#DejaVuSans-68" x="181.787109"/>
      <use xlink:href="#DejaVuSans-61" x="245.166016"/>
      <use xlink:href="#DejaVuSans-6e" x="306.445312"/>
      <use xlink:href="#DejaVuSans-67" x="369.824219"/>
      <use xlink:href="#DejaVuSans-65" x="433.300781"/>
     </g>
    </g>
   </g>
   <g id="PolyCollection_1"/>
   <g id="PolyCollection_2"/>
   <g id="PolyCollection_3"/>
   <g id="PolyCollection_4"/>
   <g id="line2d_7">
    <path d="M 107.202638 82.825632 
L 107.56922 83.641848 
L 109.402133 83.661806 
L 112.701377 83.528532 
L 115.267455 82.845212 
L 118.566698 82.216645 
L 122.599106 81.691851 
L 127.731262 81.271254 
L 133.230001 81.037112 
L 134.696331 81.068725 
L 138.728739 81.324994 
L 151.559129 81.7773 
L 174.653831 82.226569 
L 188.217387 82.329853 
L 236.606286 82.393546 
L 374.441334 82.399998 
L 374.441334 82.399998 
" clip-path="url(#p418dacda58)" style="fill: none; stroke: #4c72b0; stroke-opacity: 0.9; stroke-width: 3; stroke-linecap: round"/>
   </g>
   <g id="line2d_8">
    <path d="M 107.202638 82.825632 
L 107.56922 83.270801 
L 110.135298 83.286838 
L 112.701377 83.218124 
L 116.00062 82.749453 
L 120.399611 82.358282 
L 126.264932 82.066974 
L 133.963166 81.912674 
L 140.195069 82.093881 
L 168.055345 82.380947 
L 252.735919 82.539892 
L 374.441334 82.541454 
L 374.441334 82.541454 
" clip-path="url(#p418dacda58)" style="fill: none; stroke: #dd8452; stroke-opacity: 0.9; stroke-width: 3; stroke-linecap: round"/>
   </g>
   <g id="line2d_9">
    <path d="M 107.202638 82.825632 
L 107.56922 83.680967 
L 108.668968 83.731835 
L 112.701377 83.629208 
L 115.634037 83.04984 
L 119.299863 82.577263 
L 124.432019 82.159245 
L 131.397088 81.838111 
L 137.262409 81.791001 
L 140.195069 81.893939 
L 158.157616 83.178598 
L 165.85585 83.615796 
L 173.920666 83.745555 
L 182.718648 83.673163 
L 190.416882 83.400082 
L 200.314611 83.026779 
L 217.543992 82.864278 
L 229.641217 82.620158 
L 243.204773 82.733621 
L 280.596195 82.781315 
L 374.441334 82.786854 
L 374.441334 82.786854 
" clip-path="url(#p418dacda58)" style="fill: none; stroke: #55a868; stroke-opacity: 0.9; stroke-width: 3; stroke-linecap: round"/>
   </g>
   <g id="line2d_10">
    <path d="M 107.202638 82.825632 
L 107.56922 83.497855 
L 109.035551 83.535698 
L 112.701377 83.457807 
L 116.00062 82.948225 
L 120.399611 82.53765 
L 126.631514 82.201536 
L 134.329748 82.00566 
L 139.461904 82.087783 
L 146.793556 82.581762 
L 164.756102 83.729867 
L 172.454336 83.846446 
L 180.15257 83.752308 
L 196.282203 83.40247 
L 208.012846 83.387079 
L 220.843236 83.185823 
L 229.274635 82.85723 
L 235.139956 82.674989 
L 271.065048 82.875749 
L 363.077274 82.889149 
L 374.441334 82.886366 
L 374.441334 82.886366 
" clip-path="url(#p418dacda58)" style="fill: none; stroke: #c44e52; stroke-opacity: 0.9; stroke-width: 3; stroke-linecap: round"/>
   </g>
   <g id="patch_3">
    <path d="M 93.840703 146.484 
L 93.840703 70.656 
" style="fill: none; stroke: #ffffff; stroke-width: 1.25; stroke-linejoin: miter; stroke-linecap: square"/>
   </g>
   <g id="patch_4">
    <path d="M 93.840703 146.484 
L 387.803268 146.484 
" style="fill: none; stroke: #ffffff; stroke-width: 1.25; stroke-linejoin: miter; stroke-linecap: square"/>
   </g>
   <g id="text_9">
    <!-- 0.5~30 -->
    <g style="fill: #262626" transform="translate(194.192142 64.656) scale(0.252 -0.252)">
     <defs>
      <path id="DejaVuSans-2e" d="M 684 794 
L 1344 794 
L 1344 0 
L 684 0 
L 684 794 
z
" transform="scale(0.015625)"/>
      <path id="DejaVuSans-7e" d="M 4684 2553 
L 4684 1997 
Q 4356 1750 4076 1644 
Q 3797 1538 3494 1538 
Q 3150 1538 2694 1722 
Q 2659 1734 2644 1741 
Q 2622 1750 2575 1766 
Q 2091 1959 1797 1959 
Q 1522 1959 1253 1839 
Q 984 1719 678 1459 
L 678 2016 
Q 1006 2263 1286 2370 
Q 1566 2478 1869 2478 
Q 2213 2478 2672 2291 
Q 2703 2278 2719 2272 
Q 2744 2263 2788 2247 
Q 3272 2053 3566 2053 
Q 3834 2053 4098 2172 
Q 4363 2291 4684 2553 
z
" transform="scale(0.015625)"/>
      <path id="DejaVuSans-33" d="M 2597 2516 
Q 3050 2419 3304 2112 
Q 3559 1806 3559 1356 
Q 3559 666 3084 287 
Q 2609 -91 1734 -91 
Q 1441 -91 1130 -33 
Q 819 25 488 141 
L 488 750 
Q 750 597 1062 519 
Q 1375 441 1716 441 
Q 2309 441 2620 675 
Q 2931 909 2931 1356 
Q 2931 1769 2642 2001 
Q 2353 2234 1838 2234 
L 1294 2234 
L 1294 2753 
L 1863 2753 
Q 2328 2753 2575 2939 
Q 2822 3125 2822 3475 
Q 2822 3834 2567 4026 
Q 2313 4219 1838 4219 
Q 1578 4219 1281 4162 
Q 984 4106 628 3988 
L 628 4550 
Q 988 4650 1302 4700 
Q 1616 4750 1894 4750 
Q 2613 4750 3031 4423 
Q 3450 4097 3450 3541 
Q 3450 3153 3228 2886 
Q 3006 2619 2597 2516 
z
" transform="scale(0.015625)"/>
     </defs>
     <use xlink:href="#DejaVuSans-30"/>
     <use xlink:href="#DejaVuSans-2e" x="63.623047"/>
     <use xlink:href="#DejaVuSans-35" x="95.410156"/>
     <use xlink:href="#DejaVuSans-7e" x="159.033203"/>
     <use xlink:href="#DejaVuSans-33" x="242.822266"/>
     <use xlink:href="#DejaVuSans-30" x="306.445312"/>
    </g>
   </g>
  </g>
  <g id="axes_2">
   <g id="patch_5">
    <path d="M 429.842811 146.484 
L 723.805376 146.484 
L 723.805376 70.656 
L 429.842811 70.656 
z
" style="fill: #eaeaf2"/>
   </g>
   <g id="matplotlib.axis_3">
    <g id="xtick_5">
     <g id="line2d_11">
      <path d="M 443.204746 146.484 
L 443.204746 70.656 
" clip-path="url(#p623d0816c1)" style="fill: none; stroke: #ffffff; stroke-linecap: round"/>
     </g>
     <g id="text_10">
      <!-- 0 -->
      <g style="fill: #262626" transform="translate(435.856058 173.536391) scale(0.231 -0.231)">
       <use xlink:href="#DejaVuSans-30"/>
      </g>
     </g>
    </g>
    <g id="xtick_6">
     <g id="line2d_12">
      <path d="M 534.850389 146.484 
L 534.850389 70.656 
" clip-path="url(#p623d0816c1)" style="fill: none; stroke: #ffffff; stroke-linecap: round"/>
     </g>
     <g id="text_11">
      <!-- 250 -->
      <g style="fill: #262626" transform="translate(512.804327 173.536391) scale(0.231 -0.231)">
       <use xlink:href="#DejaVuSans-32"/>
       <use xlink:href="#DejaVuSans-35" x="63.623047"/>
       <use xlink:href="#DejaVuSans-30" x="127.246094"/>
      </g>
     </g>
    </g>
    <g id="xtick_7">
     <g id="line2d_13">
      <path d="M 626.496032 146.484 
L 626.496032 70.656 
" clip-path="url(#p623d0816c1)" style="fill: none; stroke: #ffffff; stroke-linecap: round"/>
     </g>
     <g id="text_12">
      <!-- 500 -->
      <g style="fill: #262626" transform="translate(604.44997 173.536391) scale(0.231 -0.231)">
       <use xlink:href="#DejaVuSans-35"/>
       <use xlink:href="#DejaVuSans-30" x="63.623047"/>
       <use xlink:href="#DejaVuSans-30" x="127.246094"/>
      </g>
     </g>
    </g>
    <g id="xtick_8">
     <g id="line2d_14">
      <path d="M 718.141676 146.484 
L 718.141676 70.656 
" clip-path="url(#p623d0816c1)" style="fill: none; stroke: #ffffff; stroke-linecap: round"/>
     </g>
     <g id="text_13">
      <!-- 750 -->
      <g style="fill: #262626" transform="translate(696.095613 173.536391) scale(0.231 -0.231)">
       <use xlink:href="#DejaVuSans-37"/>
       <use xlink:href="#DejaVuSans-35" x="63.623047"/>
       <use xlink:href="#DejaVuSans-30" x="127.246094"/>
      </g>
     </g>
    </g>
    <g id="text_14">
     <!-- step -->
     <g style="fill: #262626" transform="translate(549.568719 201.488531) scale(0.252 -0.252)">
      <use xlink:href="#DejaVuSans-73"/>
      <use xlink:href="#DejaVuSans-74" x="52.099609"/>
      <use xlink:href="#DejaVuSans-65" x="91.308594"/>
      <use xlink:href="#DejaVuSans-70" x="152.832031"/>
     </g>
    </g>
   </g>
   <g id="matplotlib.axis_4">
    <g id="ytick_3">
     <g id="line2d_15">
      <path d="M 429.842811 133.516961 
L 723.805376 133.516961 
" clip-path="url(#p623d0816c1)" style="fill: none; stroke: #ffffff; stroke-linecap: round"/>
     </g>
    </g>
    <g id="ytick_4">
     <g id="line2d_16">
      <path d="M 429.842811 82.825632 
L 723.805376 82.825632 
" clip-path="url(#p623d0816c1)" style="fill: none; stroke: #ffffff; stroke-linecap: round"/>
     </g>
    </g>
   </g>
   <g id="PolyCollection_5"/>
   <g id="PolyCollection_6"/>
   <g id="PolyCollection_7"/>
   <g id="PolyCollection_8"/>
   <g id="line2d_17">
    <path d="M 443.204746 82.825632 
L 443.571328 83.641848 
L 445.404241 83.680642 
L 449.43665 83.569129 
L 454.202223 83.186441 
L 461.167292 82.875511 
L 471.065021 82.685863 
L 473.631099 82.737116 
L 474.364265 82.878544 
L 475.09743 83.517772 
L 476.56376 85.14052 
L 478.396673 87.204136 
L 479.496421 88.176426 
L 480.596168 88.871241 
L 481.695916 89.291522 
L 482.795664 89.442223 
L 483.895411 89.335127 
L 484.995159 88.978912 
L 486.094907 88.382278 
L 487.194655 87.555205 
L 488.660985 86.117973 
L 491.227063 83.427183 
L 492.326811 82.610183 
L 493.059976 82.533116 
L 522.019999 82.595208 
L 616.23172 82.762006 
L 710.443442 82.770454 
L 710.443442 82.770454 
" clip-path="url(#p623d0816c1)" style="fill: none; stroke: #4c72b0; stroke-opacity: 0.9; stroke-width: 3; stroke-linecap: round"/>
   </g>
   <g id="line2d_18">
    <path d="M 443.204746 82.825632 
L 443.571328 83.270801 
L 446.137406 83.299484 
L 449.803232 83.208711 
L 456.035136 82.94293 
L 465.566283 82.782071 
L 485.728324 82.724411 
L 566.37649 82.791694 
L 710.443442 82.806461 
L 710.443442 82.806461 
" clip-path="url(#p623d0816c1)" style="fill: none; stroke: #dd8452; stroke-opacity: 0.9; stroke-width: 3; stroke-linecap: round"/>
   </g>
   <g id="line2d_19">
    <path d="M 443.204746 82.825632 
L 443.571328 83.680967 
L 444.671076 83.742699 
L 449.43665 83.6628 
L 454.935388 83.30669 
L 462.633622 83.058168 
L 473.997682 82.917354 
L 476.930343 83.046713 
L 491.593646 83.933413 
L 500.75821 84.167614 
L 513.955182 84.262481 
L 527.152155 84.13745 
L 538.516215 83.823142 
L 553.179518 83.41377 
L 572.241812 83.147978 
L 585.072202 82.975736 
L 660.954794 83.077258 
L 710.443442 83.082251 
L 710.443442 83.082251 
" clip-path="url(#p623d0816c1)" style="fill: none; stroke: #55a868; stroke-opacity: 0.9; stroke-width: 3; stroke-linecap: round"/>
   </g>
   <g id="line2d_20">
    <path d="M 443.204746 82.825632 
L 443.571328 83.497855 
L 445.037659 83.547592 
L 449.803232 83.457864 
L 455.668553 83.168375 
L 464.833118 82.964712 
L 474.730847 82.924872 
L 478.396673 83.13312 
L 489.027568 83.773009 
L 499.29188 84.115455 
L 510.655939 84.261673 
L 522.019999 84.193601 
L 532.284311 83.913811 
L 542.548623 83.692271 
L 568.942568 83.504003 
L 580.306628 83.225039 
L 589.10461 83.005708 
L 710.443442 83.118872 
L 710.443442 83.118872 
" clip-path="url(#p623d0816c1)" style="fill: none; stroke: #c44e52; stroke-opacity: 0.9; stroke-width: 3; stroke-linecap: round"/>
   </g>
   <g id="patch_6">
    <path d="M 429.842811 146.484 
L 429.842811 70.656 
" style="fill: none; stroke: #ffffff; stroke-width: 1.25; stroke-linejoin: miter; stroke-linecap: square"/>
   </g>
   <g id="patch_7">
    <path d="M 429.842811 146.484 
L 723.805376 146.484 
" style="fill: none; stroke: #ffffff; stroke-width: 1.25; stroke-linejoin: miter; stroke-linecap: square"/>
   </g>
   <g id="text_15">
    <!-- 0.5~365 -->
    <g style="fill: #262626" transform="translate(522.1775 64.656) scale(0.252 -0.252)">
     <defs>
      <path id="DejaVuSans-36" d="M 2113 2584 
Q 1688 2584 1439 2293 
Q 1191 2003 1191 1497 
Q 1191 994 1439 701 
Q 1688 409 2113 409 
Q 2538 409 2786 701 
Q 3034 994 3034 1497 
Q 3034 2003 2786 2293 
Q 2538 2584 2113 2584 
z
M 3366 4563 
L 3366 3988 
Q 3128 4100 2886 4159 
Q 2644 4219 2406 4219 
Q 1781 4219 1451 3797 
Q 1122 3375 1075 2522 
Q 1259 2794 1537 2939 
Q 1816 3084 2150 3084 
Q 2853 3084 3261 2657 
Q 3669 2231 3669 1497 
Q 3669 778 3244 343 
Q 2819 -91 2113 -91 
Q 1303 -91 875 529 
Q 447 1150 447 2328 
Q 447 3434 972 4092 
Q 1497 4750 2381 4750 
Q 2619 4750 2861 4703 
Q 3103 4656 3366 4563 
z
" transform="scale(0.015625)"/>
     </defs>
     <use xlink:href="#DejaVuSans-30"/>
     <use xlink:href="#DejaVuSans-2e" x="63.623047"/>
     <use xlink:href="#DejaVuSans-35" x="95.410156"/>
     <use xlink:href="#DejaVuSans-7e" x="159.033203"/>
     <use xlink:href="#DejaVuSans-33" x="242.822266"/>
     <use xlink:href="#DejaVuSans-36" x="306.445312"/>
     <use xlink:href="#DejaVuSans-35" x="370.068359"/>
    </g>
   </g>
  </g>
  <g id="axes_3">
   <g id="patch_8">
    <path d="M 765.844919 146.484 
L 1059.807484 146.484 
L 1059.807484 70.656 
L 765.844919 70.656 
z
" style="fill: #eaeaf2"/>
   </g>
   <g id="matplotlib.axis_5">
    <g id="xtick_9">
     <g id="line2d_21">
      <path d="M 779.206854 146.484 
L 779.206854 70.656 
" clip-path="url(#p4ba62191e7)" style="fill: none; stroke: #ffffff; stroke-linecap: round"/>
     </g>
     <g id="text_16">
      <!-- 0 -->
      <g style="fill: #262626" transform="translate(771.858166 173.536391) scale(0.231 -0.231)">
       <use xlink:href="#DejaVuSans-30"/>
      </g>
     </g>
    </g>
    <g id="xtick_10">
     <g id="line2d_22">
      <path d="M 870.852497 146.484 
L 870.852497 70.656 
" clip-path="url(#p4ba62191e7)" style="fill: none; stroke: #ffffff; stroke-linecap: round"/>
     </g>
     <g id="text_17">
      <!-- 250 -->
      <g style="fill: #262626" transform="translate(848.806435 173.536391) scale(0.231 -0.231)">
       <use xlink:href="#DejaVuSans-32"/>
       <use xlink:href="#DejaVuSans-35" x="63.623047"/>
       <use xlink:href="#DejaVuSans-30" x="127.246094"/>
      </g>
     </g>
    </g>
    <g id="xtick_11">
     <g id="line2d_23">
      <path d="M 962.49814 146.484 
L 962.49814 70.656 
" clip-path="url(#p4ba62191e7)" style="fill: none; stroke: #ffffff; stroke-linecap: round"/>
     </g>
     <g id="text_18">
      <!-- 500 -->
      <g style="fill: #262626" transform="translate(940.452078 173.536391) scale(0.231 -0.231)">
       <use xlink:href="#DejaVuSans-35"/>
       <use xlink:href="#DejaVuSans-30" x="63.623047"/>
       <use xlink:href="#DejaVuSans-30" x="127.246094"/>
      </g>
     </g>
    </g>
    <g id="xtick_12">
     <g id="line2d_24">
      <path d="M 1054.143784 146.484 
L 1054.143784 70.656 
" clip-path="url(#p4ba62191e7)" style="fill: none; stroke: #ffffff; stroke-linecap: round"/>
     </g>
     <g id="text_19">
      <!-- 750 -->
      <g style="fill: #262626" transform="translate(1032.097721 173.536391) scale(0.231 -0.231)">
       <use xlink:href="#DejaVuSans-37"/>
       <use xlink:href="#DejaVuSans-35" x="63.623047"/>
       <use xlink:href="#DejaVuSans-30" x="127.246094"/>
      </g>
     </g>
    </g>
    <g id="text_20">
     <!-- step -->
     <g style="fill: #262626" transform="translate(885.570827 201.488531) scale(0.252 -0.252)">
      <use xlink:href="#DejaVuSans-73"/>
      <use xlink:href="#DejaVuSans-74" x="52.099609"/>
      <use xlink:href="#DejaVuSans-65" x="91.308594"/>
      <use xlink:href="#DejaVuSans-70" x="152.832031"/>
     </g>
    </g>
   </g>
   <g id="matplotlib.axis_6">
    <g id="ytick_5">
     <g id="line2d_25">
      <path d="M 765.844919 133.516961 
L 1059.807484 133.516961 
" clip-path="url(#p4ba62191e7)" style="fill: none; stroke: #ffffff; stroke-linecap: round"/>
     </g>
    </g>
    <g id="ytick_6">
     <g id="line2d_26">
      <path d="M 765.844919 82.825632 
L 1059.807484 82.825632 
" clip-path="url(#p4ba62191e7)" style="fill: none; stroke: #ffffff; stroke-linecap: round"/>
     </g>
    </g>
   </g>
   <g id="PolyCollection_9"/>
   <g id="PolyCollection_10"/>
   <g id="PolyCollection_11"/>
   <g id="PolyCollection_12"/>
   <g id="line2d_27">
    <path d="M 779.206854 82.825632 
L 779.573436 83.641848 
L 781.406349 83.661806 
L 784.705592 83.528532 
L 787.27167 82.845212 
L 790.204331 82.276089 
L 791.670661 82.380863 
L 792.770409 82.609682 
L 793.136992 82.988748 
L 794.603322 86.48079 
L 797.1694 92.493115 
L 799.735478 97.928143 
L 802.301556 102.817895 
L 804.867634 107.183697 
L 807.067129 110.527624 
L 809.266625 113.518303 
L 811.46612 116.175202 
L 813.665616 118.509012 
L 815.865111 120.521655 
L 818.064607 122.212324 
L 819.897519 123.372617 
L 821.730432 124.302871 
L 823.563345 124.998645 
L 825.396258 125.454335 
L 827.229171 125.664095 
L 829.062084 125.622017 
L 830.894997 125.322828 
L 832.727909 124.761932 
L 834.560822 123.934934 
L 836.393735 122.841061 
L 838.226648 121.481928 
L 840.059561 119.86062 
L 842.259056 117.588174 
L 844.458552 115.000008 
L 847.02463 111.634074 
L 849.95729 107.413042 
L 853.623116 101.701516 
L 858.755272 93.201868 
L 864.254011 84.026898 
L 866.453506 81.088824 
L 867.919837 79.598218 
L 869.386167 78.524655 
L 873.418575 76.193737 
L 874.518323 75.777049 
L 880.750227 74.219245 
L 882.949722 74.105314 
L 886.615548 74.28959 
L 890.647956 74.424379 
L 895.413529 74.534705 
L 897.979608 74.910899 
L 903.844929 76.021649 
L 906.411007 76.688261 
L 908.610502 77.014096 
L 912.64291 77.275048 
L 920.707727 77.545765 
L 935.737613 77.786169 
L 959.56548 77.92013 
L 1017.852109 77.971322 
L 1046.44555 77.973487 
L 1046.44555 77.973487 
" clip-path="url(#p4ba62191e7)" style="fill: none; stroke: #4c72b0; stroke-opacity: 0.9; stroke-width: 3; stroke-linecap: round"/>
   </g>
   <g id="line2d_28">
    <path d="M 779.206854 82.825632 
L 779.573436 83.270801 
L 782.139514 83.286838 
L 784.705592 83.218124 
L 788.004836 82.749453 
L 791.670661 82.410569 
L 795.336487 82.638323 
L 796.069652 83.466718 
L 798.269148 86.533386 
L 800.10206 88.784372 
L 801.934973 90.613384 
L 803.401304 91.780898 
L 804.867634 92.68965 
L 806.333964 93.347677 
L 807.800295 93.744789 
L 809.266625 93.88204 
L 810.732955 93.76279 
L 812.199285 93.392131 
L 813.665616 92.781443 
L 815.131946 91.945854 
L 816.964859 90.607984 
L 818.797772 88.962316 
L 820.630685 87.026769 
L 825.396258 81.700275 
L 826.862588 80.560592 
L 827.595753 80.219064 
L 829.062084 80.073942 
L 836.393735 80.033295 
L 852.889951 80.236943 
L 856.555777 80.413795 
L 879.650479 80.797093 
L 886.248965 80.877998 
L 897.246442 81.041489 
L 901.278851 81.08993 
L 988.15892 81.133254 
L 1046.44555 81.13377 
L 1046.44555 81.13377 
" clip-path="url(#p4ba62191e7)" style="fill: none; stroke: #dd8452; stroke-opacity: 0.9; stroke-width: 3; stroke-linecap: round"/>
   </g>
   <g id="line2d_29">
    <path d="M 779.206854 82.825632 
L 779.573436 83.680967 
L 780.673184 83.731835 
L 784.705592 83.629208 
L 787.638253 83.04984 
L 791.304079 82.591966 
L 793.503574 82.524258 
L 794.603322 82.691199 
L 797.902565 83.990029 
L 803.034721 85.887625 
L 807.800295 87.380834 
L 814.765363 89.295556 
L 817.698024 89.807802 
L 820.997267 90.147701 
L 824.29651 90.277225 
L 827.595753 90.200168 
L 831.261579 89.883221 
L 834.927405 89.328702 
L 839.692978 88.341907 
L 848.124378 86.391471 
L 855.456029 84.748528 
L 859.85502 84.043116 
L 863.887428 83.643117 
L 867.186671 83.551047 
L 873.418575 83.788683 
L 882.949722 84.164681 
L 892.114286 84.252721 
L 900.912268 84.091207 
L 914.842406 83.562352 
L 941.602934 82.474314 
L 958.832315 82.190689 
L 970.92954 82.244241 
L 999.52298 82.30699 
L 1046.44555 82.314441 
L 1046.44555 82.314441 
" clip-path="url(#p4ba62191e7)" style="fill: none; stroke: #55a868; stroke-opacity: 0.9; stroke-width: 3; stroke-linecap: round"/>
   </g>
   <g id="line2d_30">
    <path d="M 779.206854 82.825632 
L 779.573436 83.497855 
L 781.039767 83.535698 
L 784.705592 83.457807 
L 788.004836 82.948225 
L 791.670661 82.614546 
L 794.236739 82.629523 
L 795.336487 82.885319 
L 797.535982 83.976788 
L 800.835226 85.523966 
L 804.134469 86.832747 
L 808.166877 88.172635 
L 811.832703 89.183338 
L 814.398781 89.601592 
L 816.964859 89.803821 
L 819.897519 89.79701 
L 822.83018 89.54575 
L 825.762841 89.056624 
L 829.428666 88.175206 
L 835.293988 86.535641 
L 841.525891 84.800062 
L 844.458552 84.178008 
L 847.391212 83.727472 
L 851.057038 83.505552 
L 853.623116 83.51365 
L 859.85502 83.825525 
L 868.653002 84.196458 
L 876.351236 84.266425 
L 886.248965 84.113456 
L 898.712773 83.676301 
L 915.208988 83.105698 
L 929.139126 83.033592 
L 942.336099 82.840081 
L 971.662705 82.295997 
L 1046.44555 82.396751 
L 1046.44555 82.396751 
" clip-path="url(#p4ba62191e7)" style="fill: none; stroke: #c44e52; stroke-opacity: 0.9; stroke-width: 3; stroke-linecap: round"/>
   </g>
   <g id="patch_9">
    <path d="M 765.844919 146.484 
L 765.844919 70.656 
" style="fill: none; stroke: #ffffff; stroke-width: 1.25; stroke-linejoin: miter; stroke-linecap: square"/>
   </g>
   <g id="patch_10">
    <path d="M 765.844919 146.484 
L 1059.807484 146.484 
" style="fill: none; stroke: #ffffff; stroke-width: 1.25; stroke-linejoin: miter; stroke-linecap: square"/>
   </g>
   <g id="text_21">
    <!-- 0.8~30 -->
    <g style="fill: #262626" transform="translate(866.196358 64.656) scale(0.252 -0.252)">
     <defs>
      <path id="DejaVuSans-38" d="M 2034 2216 
Q 1584 2216 1326 1975 
Q 1069 1734 1069 1313 
Q 1069 891 1326 650 
Q 1584 409 2034 409 
Q 2484 409 2743 651 
Q 3003 894 3003 1313 
Q 3003 1734 2745 1975 
Q 2488 2216 2034 2216 
z
M 1403 2484 
Q 997 2584 770 2862 
Q 544 3141 544 3541 
Q 544 4100 942 4425 
Q 1341 4750 2034 4750 
Q 2731 4750 3128 4425 
Q 3525 4100 3525 3541 
Q 3525 3141 3298 2862 
Q 3072 2584 2669 2484 
Q 3125 2378 3379 2068 
Q 3634 1759 3634 1313 
Q 3634 634 3220 271 
Q 2806 -91 2034 -91 
Q 1263 -91 848 271 
Q 434 634 434 1313 
Q 434 1759 690 2068 
Q 947 2378 1403 2484 
z
M 1172 3481 
Q 1172 3119 1398 2916 
Q 1625 2713 2034 2713 
Q 2441 2713 2670 2916 
Q 2900 3119 2900 3481 
Q 2900 3844 2670 4047 
Q 2441 4250 2034 4250 
Q 1625 4250 1398 4047 
Q 1172 3844 1172 3481 
z
" transform="scale(0.015625)"/>
     </defs>
     <use xlink:href="#DejaVuSans-30"/>
     <use xlink:href="#DejaVuSans-2e" x="63.623047"/>
     <use xlink:href="#DejaVuSans-38" x="95.410156"/>
     <use xlink:href="#DejaVuSans-7e" x="159.033203"/>
     <use xlink:href="#DejaVuSans-33" x="242.822266"/>
     <use xlink:href="#DejaVuSans-30" x="306.445312"/>
    </g>
   </g>
  </g>
  <g id="axes_4">
   <g id="patch_11">
    <path d="M 1101.847027 146.484 
L 1395.809592 146.484 
L 1395.809592 70.656 
L 1101.847027 70.656 
z
" style="fill: #eaeaf2"/>
   </g>
   <g id="matplotlib.axis_7">
    <g id="xtick_13">
     <g id="line2d_31">
      <path d="M 1115.208962 146.484 
L 1115.208962 70.656 
" clip-path="url(#p90d41aa56f)" style="fill: none; stroke: #ffffff; stroke-linecap: round"/>
     </g>
     <g id="text_22">
      <!-- 0 -->
      <g style="fill: #262626" transform="translate(1107.860274 173.536391) scale(0.231 -0.231)">
       <use xlink:href="#DejaVuSans-30"/>
      </g>
     </g>
    </g>
    <g id="xtick_14">
     <g id="line2d_32">
      <path d="M 1206.854605 146.484 
L 1206.854605 70.656 
" clip-path="url(#p90d41aa56f)" style="fill: none; stroke: #ffffff; stroke-linecap: round"/>
     </g>
     <g id="text_23">
      <!-- 250 -->
      <g style="fill: #262626" transform="translate(1184.808543 173.536391) scale(0.231 -0.231)">
       <use xlink:href="#DejaVuSans-32"/>
       <use xlink:href="#DejaVuSans-35" x="63.623047"/>
       <use xlink:href="#DejaVuSans-30" x="127.246094"/>
      </g>
     </g>
    </g>
    <g id="xtick_15">
     <g id="line2d_33">
      <path d="M 1298.500248 146.484 
L 1298.500248 70.656 
" clip-path="url(#p90d41aa56f)" style="fill: none; stroke: #ffffff; stroke-linecap: round"/>
     </g>
     <g id="text_24">
      <!-- 500 -->
      <g style="fill: #262626" transform="translate(1276.454186 173.536391) scale(0.231 -0.231)">
       <use xlink:href="#DejaVuSans-35"/>
       <use xlink:href="#DejaVuSans-30" x="63.623047"/>
       <use xlink:href="#DejaVuSans-30" x="127.246094"/>
      </g>
     </g>
    </g>
    <g id="xtick_16">
     <g id="line2d_34">
      <path d="M 1390.145892 146.484 
L 1390.145892 70.656 
" clip-path="url(#p90d41aa56f)" style="fill: none; stroke: #ffffff; stroke-linecap: round"/>
     </g>
     <g id="text_25">
      <!-- 750 -->
      <g style="fill: #262626" transform="translate(1368.099829 173.536391) scale(0.231 -0.231)">
       <use xlink:href="#DejaVuSans-37"/>
       <use xlink:href="#DejaVuSans-35" x="63.623047"/>
       <use xlink:href="#DejaVuSans-30" x="127.246094"/>
      </g>
     </g>
    </g>
    <g id="text_26">
     <!-- step -->
     <g style="fill: #262626" transform="translate(1221.572935 201.488531) scale(0.252 -0.252)">
      <use xlink:href="#DejaVuSans-73"/>
      <use xlink:href="#DejaVuSans-74" x="52.099609"/>
      <use xlink:href="#DejaVuSans-65" x="91.308594"/>
      <use xlink:href="#DejaVuSans-70" x="152.832031"/>
     </g>
    </g>
   </g>
   <g id="matplotlib.axis_8">
    <g id="ytick_7">
     <g id="line2d_35">
      <path d="M 1101.847027 133.516961 
L 1395.809592 133.516961 
" clip-path="url(#p90d41aa56f)" style="fill: none; stroke: #ffffff; stroke-linecap: round"/>
     </g>
    </g>
    <g id="ytick_8">
     <g id="line2d_36">
      <path d="M 1101.847027 82.825632 
L 1395.809592 82.825632 
" clip-path="url(#p90d41aa56f)" style="fill: none; stroke: #ffffff; stroke-linecap: round"/>
     </g>
    </g>
   </g>
   <g id="PolyCollection_13"/>
   <g id="PolyCollection_14"/>
   <g id="PolyCollection_15"/>
   <g id="PolyCollection_16"/>
   <g id="line2d_37">
    <path d="M 1115.208962 82.825632 
L 1115.575544 83.641848 
L 1117.408457 83.680642 
L 1121.440866 83.569129 
L 1126.206439 83.186441 
L 1128.772517 83.099929 
L 1129.1391 83.409305 
L 1130.60543 86.868635 
L 1134.271256 95.224203 
L 1136.837334 100.465843 
L 1139.403412 105.18997 
L 1141.96949 109.425828 
L 1144.535568 113.201781 
L 1147.101646 116.542536 
L 1149.301141 119.075275 
L 1151.500637 121.314085 
L 1153.700132 123.267641 
L 1155.899627 124.945791 
L 1158.099123 126.355119 
L 1160.298618 127.497488 
L 1162.498114 128.373094 
L 1164.697609 128.981407 
L 1166.897105 129.321843 
L 1169.0966 129.394824 
L 1171.296095 129.202074 
L 1173.495591 128.747811 
L 1175.695086 128.039322 
L 1177.894582 127.086512 
L 1180.094077 125.901507 
L 1182.660155 124.244072 
L 1185.226233 122.312391 
L 1188.158894 119.799201 
L 1191.091554 116.995429 
L 1194.390798 113.535694 
L 1198.056623 109.375369 
L 1203.555362 102.729026 
L 1213.453091 90.372659 
L 1217.118917 85.858915 
L 1218.95183 84.326788 
L 1220.41816 83.489902 
L 1223.350821 82.216657 
L 1227.016647 80.997824 
L 1229.216142 80.596101 
L 1236.181211 80.277036 
L 1239.847037 80.271446 
L 1247.911853 80.492841 
L 1260.009078 80.750738 
L 1286.403023 81.009607 
L 1295.567588 81.190621 
L 1324.894194 81.635758 
L 1350.554974 81.761143 
L 1382.447658 81.794897 
L 1382.447658 81.794897 
" clip-path="url(#p90d41aa56f)" style="fill: none; stroke: #4c72b0; stroke-opacity: 0.9; stroke-width: 3; stroke-linecap: round"/>
   </g>
   <g id="line2d_38">
    <path d="M 1115.208962 82.825632 
L 1115.575544 83.270801 
L 1118.141622 83.299484 
L 1121.807448 83.208711 
L 1128.039352 82.94293 
L 1130.972012 82.956879 
L 1131.338595 83.299199 
L 1132.438343 84.95972 
L 1134.637838 88.099503 
L 1136.470751 90.379008 
L 1138.303664 92.282886 
L 1140.136577 93.82449 
L 1141.602907 94.807392 
L 1143.069237 95.563365 
L 1144.535568 96.096566 
L 1146.001898 96.413245 
L 1147.468228 96.521625 
L 1148.934559 96.432136 
L 1150.767471 96.061189 
L 1152.600384 95.428105 
L 1154.433297 94.563093 
L 1156.632793 93.261121 
L 1159.198871 91.434469 
L 1161.764949 89.336436 
L 1167.63027 84.328222 
L 1168.730017 83.619441 
L 1170.196348 82.977682 
L 1171.662678 82.585382 
L 1173.129008 82.396753 
L 1185.226233 82.370508 
L 1227.016647 82.458987 
L 1362.285616 82.619699 
L 1382.447658 82.624223 
L 1382.447658 82.624223 
" clip-path="url(#p90d41aa56f)" style="fill: none; stroke: #dd8452; stroke-opacity: 0.9; stroke-width: 3; stroke-linecap: round"/>
   </g>
   <g id="line2d_39">
    <path d="M 1115.208962 82.825632 
L 1115.575544 83.680967 
L 1116.675292 83.742699 
L 1121.440866 83.6628 
L 1126.939604 83.30669 
L 1130.60543 83.224524 
L 1131.705178 83.589457 
L 1137.937081 86.098835 
L 1141.602907 87.365044 
L 1145.635315 88.516823 
L 1149.667724 89.448083 
L 1153.700132 90.147474 
L 1157.73254 90.62767 
L 1161.764949 90.892656 
L 1166.163939 90.943938 
L 1170.56293 90.773391 
L 1175.328504 90.369612 
L 1180.827242 89.666984 
L 1189.625224 88.260964 
L 1202.822197 86.057009 
L 1208.687518 85.342148 
L 1213.086509 85.033607 
L 1218.218665 84.905341 
L 1230.31589 84.859771 
L 1248.645018 84.687151 
L 1262.208574 84.319845 
L 1279.437955 83.656624 
L 1291.168597 83.284847 
L 1314.263299 82.874607 
L 1325.993941 82.903451 
L 1358.986373 82.986894 
L 1382.447658 82.9935 
L 1382.447658 82.9935 
" clip-path="url(#p90d41aa56f)" style="fill: none; stroke: #55a868; stroke-opacity: 0.9; stroke-width: 3; stroke-linecap: round"/>
   </g>
   <g id="line2d_40">
    <path d="M 1115.208962 82.825632 
L 1115.575544 83.497855 
L 1117.041875 83.547592 
L 1121.807448 83.457864 
L 1127.672769 83.168375 
L 1130.972012 83.161212 
L 1132.07176 83.579862 
L 1139.769994 87.127767 
L 1143.069237 88.261741 
L 1146.36848 89.158994 
L 1149.667724 89.824578 
L 1152.966967 90.255388 
L 1156.26621 90.455758 
L 1159.565453 90.444115 
L 1163.231279 90.216879 
L 1167.63027 89.705089 
L 1172.395843 88.920684 
L 1179.360912 87.519618 
L 1187.425729 85.966749 
L 1191.458137 85.395159 
L 1194.75738 85.120209 
L 1199.522954 84.967848 
L 1242.046532 84.470776 
L 1275.038964 83.687417 
L 1294.834423 83.493211 
L 1332.225845 82.979942 
L 1377.682084 83.047381 
L 1382.447658 83.048014 
L 1382.447658 83.048014 
" clip-path="url(#p90d41aa56f)" style="fill: none; stroke: #c44e52; stroke-opacity: 0.9; stroke-width: 3; stroke-linecap: round"/>
   </g>
   <g id="patch_12">
    <path d="M 1101.847027 146.484 
L 1101.847027 70.656 
" style="fill: none; stroke: #ffffff; stroke-width: 1.25; stroke-linejoin: miter; stroke-linecap: square"/>
   </g>
   <g id="patch_13">
    <path d="M 1101.847027 146.484 
L 1395.809592 146.484 
" style="fill: none; stroke: #ffffff; stroke-width: 1.25; stroke-linejoin: miter; stroke-linecap: square"/>
   </g>
   <g id="text_27">
    <!-- 0.8~365 -->
    <g style="fill: #262626" transform="translate(1194.181716 64.656) scale(0.252 -0.252)">
     <use xlink:href="#DejaVuSans-30"/>
     <use xlink:href="#DejaVuSans-2e" x="63.623047"/>
     <use xlink:href="#DejaVuSans-38" x="95.410156"/>
     <use xlink:href="#DejaVuSans-7e" x="159.033203"/>
     <use xlink:href="#DejaVuSans-33" x="242.822266"/>
     <use xlink:href="#DejaVuSans-36" x="306.445312"/>
     <use xlink:href="#DejaVuSans-35" x="370.068359"/>
    </g>
   </g>
  </g>
  <g id="axes_5">
   <g id="patch_14">
    <path d="M 1437.849135 146.484 
L 1731.8117 146.484 
L 1731.8117 70.656 
L 1437.849135 70.656 
z
" style="fill: #eaeaf2"/>
   </g>
   <g id="matplotlib.axis_9">
    <g id="xtick_17">
     <g id="line2d_41">
      <path d="M 1451.21107 146.484 
L 1451.21107 70.656 
" clip-path="url(#p3a8b1fc5c5)" style="fill: none; stroke: #ffffff; stroke-linecap: round"/>
     </g>
     <g id="text_28">
      <!-- 0 -->
      <g style="fill: #262626" transform="translate(1443.862382 173.536391) scale(0.231 -0.231)">
       <use xlink:href="#DejaVuSans-30"/>
      </g>
     </g>
    </g>
    <g id="xtick_18">
     <g id="line2d_42">
      <path d="M 1542.856713 146.484 
L 1542.856713 70.656 
" clip-path="url(#p3a8b1fc5c5)" style="fill: none; stroke: #ffffff; stroke-linecap: round"/>
     </g>
     <g id="text_29">
      <!-- 250 -->
      <g style="fill: #262626" transform="translate(1520.810651 173.536391) scale(0.231 -0.231)">
       <use xlink:href="#DejaVuSans-32"/>
       <use xlink:href="#DejaVuSans-35" x="63.623047"/>
       <use xlink:href="#DejaVuSans-30" x="127.246094"/>
      </g>
     </g>
    </g>
    <g id="xtick_19">
     <g id="line2d_43">
      <path d="M 1634.502356 146.484 
L 1634.502356 70.656 
" clip-path="url(#p3a8b1fc5c5)" style="fill: none; stroke: #ffffff; stroke-linecap: round"/>
     </g>
     <g id="text_30">
      <!-- 500 -->
      <g style="fill: #262626" transform="translate(1612.456294 173.536391) scale(0.231 -0.231)">
       <use xlink:href="#DejaVuSans-35"/>
       <use xlink:href="#DejaVuSans-30" x="63.623047"/>
       <use xlink:href="#DejaVuSans-30" x="127.246094"/>
      </g>
     </g>
    </g>
    <g id="xtick_20">
     <g id="line2d_44">
      <path d="M 1726.148 146.484 
L 1726.148 70.656 
" clip-path="url(#p3a8b1fc5c5)" style="fill: none; stroke: #ffffff; stroke-linecap: round"/>
     </g>
     <g id="text_31">
      <!-- 750 -->
      <g style="fill: #262626" transform="translate(1704.101937 173.536391) scale(0.231 -0.231)">
       <use xlink:href="#DejaVuSans-37"/>
       <use xlink:href="#DejaVuSans-35" x="63.623047"/>
       <use xlink:href="#DejaVuSans-30" x="127.246094"/>
      </g>
     </g>
    </g>
    <g id="text_32">
     <!-- step -->
     <g style="fill: #262626" transform="translate(1557.575043 201.488531) scale(0.252 -0.252)">
      <use xlink:href="#DejaVuSans-73"/>
      <use xlink:href="#DejaVuSans-74" x="52.099609"/>
      <use xlink:href="#DejaVuSans-65" x="91.308594"/>
      <use xlink:href="#DejaVuSans-70" x="152.832031"/>
     </g>
    </g>
   </g>
   <g id="matplotlib.axis_10">
    <g id="ytick_9">
     <g id="line2d_45">
      <path d="M 1437.849135 133.516961 
L 1731.8117 133.516961 
" clip-path="url(#p3a8b1fc5c5)" style="fill: none; stroke: #ffffff; stroke-linecap: round"/>
     </g>
    </g>
    <g id="ytick_10">
     <g id="line2d_46">
      <path d="M 1437.849135 82.825632 
L 1731.8117 82.825632 
" clip-path="url(#p3a8b1fc5c5)" style="fill: none; stroke: #ffffff; stroke-linecap: round"/>
     </g>
    </g>
   </g>
   <g id="PolyCollection_17"/>
   <g id="PolyCollection_18"/>
   <g id="PolyCollection_19"/>
   <g id="PolyCollection_20"/>
   <g id="line2d_47">
    <path d="M 1451.21107 82.825632 
L 1451.577652 83.641848 
L 1453.410565 83.661806 
L 1456.709808 83.58274 
L 1457.076391 84.127512 
L 1462.941712 96.953706 
L 1465.874373 102.536868 
L 1468.807033 107.622529 
L 1471.739694 112.248404 
L 1474.672354 116.441158 
L 1477.605015 120.227301 
L 1480.537676 123.630773 
L 1483.470336 126.67908 
L 1486.402997 129.395395 
L 1489.335657 131.798172 
L 1492.268318 133.892426 
L 1495.200979 135.683221 
L 1497.767057 137.003478 
L 1500.333135 138.094145 
L 1502.899213 138.954545 
L 1505.465291 139.582811 
L 1508.031369 139.976104 
L 1510.597447 140.131516 
L 1513.163525 140.046814 
L 1515.729603 139.721131 
L 1518.295681 139.156058 
L 1520.861759 138.35735 
L 1523.794419 137.181836 
L 1527.093662 135.579819 
L 1530.759488 133.53585 
L 1535.525062 130.597916 
L 1547.988869 122.564606 
L 1555.320521 117.93815 
L 1558.986346 115.888307 
L 1560.452677 115.276847 
L 1565.21825 113.860945 
L 1568.517493 113.06002 
L 1616.906393 102.983234 
L 1633.036026 99.303713 
L 1652.09832 94.972334 
L 1661.629467 93.139429 
L 1673.726692 91.113893 
L 1681.424926 90.081214 
L 1692.422403 88.815892 
L 1704.88621 87.60783 
L 1718.449766 86.50977 
L 1718.449766 86.50977 
" clip-path="url(#p3a8b1fc5c5)" style="fill: none; stroke: #4c72b0; stroke-opacity: 0.9; stroke-width: 3; stroke-linecap: round"/>
   </g>
   <g id="line2d_48">
    <path d="M 1451.21107 82.825632 
L 1451.577652 83.270801 
L 1454.14373 83.286838 
L 1456.709808 83.244237 
L 1457.076391 83.761834 
L 1460.375634 90.235617 
L 1462.941712 94.738922 
L 1465.50779 98.799692 
L 1468.073868 102.432788 
L 1470.639946 105.64616 
L 1472.839442 108.071496 
L 1475.038937 110.189144 
L 1477.238432 111.997093 
L 1479.437928 113.501318 
L 1481.637423 114.700752 
L 1483.470336 115.466515 
L 1485.303249 116.020912 
L 1487.136162 116.367481 
L 1488.969075 116.512988 
L 1490.801988 116.467459 
L 1493.001483 116.182746 
L 1495.567561 115.588361 
L 1498.500222 114.642344 
L 1502.166047 113.191664 
L 1506.931621 111.04231 
L 1513.163525 107.971423 
L 1524.161002 102.482607 
L 1528.559993 100.540248 
L 1531.492653 99.657074 
L 1533.692149 99.403238 
L 1540.290635 98.959623 
L 1576.948892 96.78488 
L 1593.445108 96.232899 
L 1604.076003 95.619909 
L 1613.240567 94.869108 
L 1622.771714 93.857413 
L 1632.669443 92.584629 
L 1643.300338 90.978403 
L 1655.764146 89.092691 
L 1666.028458 87.676928 
L 1677.7591 86.389556 
L 1689.489742 85.158854 
L 1700.120637 84.244267 
L 1716.616853 83.273006 
L 1718.449766 83.180024 
L 1718.449766 83.180024 
" clip-path="url(#p3a8b1fc5c5)" style="fill: none; stroke: #dd8452; stroke-opacity: 0.9; stroke-width: 3; stroke-linecap: round"/>
   </g>
   <g id="line2d_49">
    <path d="M 1451.21107 82.825632 
L 1451.577652 83.680967 
L 1452.6774 83.731835 
L 1456.709808 83.652087 
L 1457.076391 83.838616 
L 1458.176139 84.982348 
L 1462.57513 89.761128 
L 1465.141208 92.193278 
L 1468.073868 94.649804 
L 1471.006529 96.807718 
L 1473.939189 98.701127 
L 1477.238432 100.551615 
L 1480.537676 102.150514 
L 1484.203501 103.675615 
L 1487.869327 104.968126 
L 1491.901735 106.14791 
L 1495.934144 107.080227 
L 1499.966552 107.778146 
L 1503.99896 108.254194 
L 1508.031369 108.498411 
L 1512.430359 108.524924 
L 1516.82935 108.320455 
L 1521.594924 107.863152 
L 1527.093662 107.108375 
L 1535.158479 105.743937 
L 1558.619764 101.610677 
L 1572.183319 99.609385 
L 1602.976255 95.140631 
L 1623.871462 92.125639 
L 1638.534765 90.219081 
L 1650.63199 88.86178 
L 1664.195545 87.578058 
L 1679.22543 86.39077 
L 1695.355063 85.346175 
L 1712.584444 84.454536 
L 1718.449766 84.198119 
L 1718.449766 84.198119 
" clip-path="url(#p3a8b1fc5c5)" style="fill: none; stroke: #55a868; stroke-opacity: 0.9; stroke-width: 3; stroke-linecap: round"/>
   </g>
   <g id="line2d_50">
    <path d="M 1451.21107 82.825632 
L 1451.577652 83.497855 
L 1453.043983 83.535718 
L 1456.709808 83.470188 
L 1457.076391 83.667534 
L 1458.542721 85.187924 
L 1461.841964 88.632829 
L 1464.774625 91.337205 
L 1467.707286 93.726157 
L 1470.639946 95.846547 
L 1473.939189 97.953714 
L 1477.238432 99.794256 
L 1480.537676 101.390546 
L 1483.836919 102.756554 
L 1487.136162 103.901524 
L 1490.435405 104.82722 
L 1493.734648 105.535748 
L 1497.033891 106.023694 
L 1500.333135 106.306624 
L 1503.99896 106.39674 
L 1508.031369 106.264677 
L 1512.796942 105.876785 
L 1518.662263 105.172784 
L 1527.460245 103.860671 
L 1547.622286 100.773507 
L 1558.253181 99.430419 
L 1571.816736 97.950596 
L 1591.245613 95.846208 
L 1615.440062 92.907717 
L 1644.400086 89.473718 
L 1657.963641 88.037533 
L 1671.160614 86.87262 
L 1685.090751 85.867022 
L 1700.853802 84.956042 
L 1717.350018 84.220265 
L 1718.449766 84.178368 
L 1718.449766 84.178368 
" clip-path="url(#p3a8b1fc5c5)" style="fill: none; stroke: #c44e52; stroke-opacity: 0.9; stroke-width: 3; stroke-linecap: round"/>
   </g>
   <g id="patch_15">
    <path d="M 1437.849135 146.484 
L 1437.849135 70.656 
" style="fill: none; stroke: #ffffff; stroke-width: 1.25; stroke-linejoin: miter; stroke-linecap: square"/>
   </g>
   <g id="patch_16">
    <path d="M 1437.849135 146.484 
L 1731.8117 146.484 
" style="fill: none; stroke: #ffffff; stroke-width: 1.25; stroke-linejoin: miter; stroke-linecap: square"/>
   </g>
   <g id="text_33">
    <!-- 0.999~30 -->
    <g style="fill: #262626" transform="translate(1522.167074 64.656) scale(0.252 -0.252)">
     <defs>
      <path id="DejaVuSans-39" d="M 703 97 
L 703 672 
Q 941 559 1184 500 
Q 1428 441 1663 441 
Q 2288 441 2617 861 
Q 2947 1281 2994 2138 
Q 2813 1869 2534 1725 
Q 2256 1581 1919 1581 
Q 1219 1581 811 2004 
Q 403 2428 403 3163 
Q 403 3881 828 4315 
Q 1253 4750 1959 4750 
Q 2769 4750 3195 4129 
Q 3622 3509 3622 2328 
Q 3622 1225 3098 567 
Q 2575 -91 1691 -91 
Q 1453 -91 1209 -44 
Q 966 3 703 97 
z
M 1959 2075 
Q 2384 2075 2632 2365 
Q 2881 2656 2881 3163 
Q 2881 3666 2632 3958 
Q 2384 4250 1959 4250 
Q 1534 4250 1286 3958 
Q 1038 3666 1038 3163 
Q 1038 2656 1286 2365 
Q 1534 2075 1959 2075 
z
" transform="scale(0.015625)"/>
     </defs>
     <use xlink:href="#DejaVuSans-30"/>
     <use xlink:href="#DejaVuSans-2e" x="63.623047"/>
     <use xlink:href="#DejaVuSans-39" x="95.410156"/>
     <use xlink:href="#DejaVuSans-39" x="159.033203"/>
     <use xlink:href="#DejaVuSans-39" x="222.65625"/>
     <use xlink:href="#DejaVuSans-7e" x="286.279297"/>
     <use xlink:href="#DejaVuSans-33" x="370.068359"/>
     <use xlink:href="#DejaVuSans-30" x="433.691406"/>
    </g>
   </g>
  </g>
  <g id="axes_6">
   <g id="patch_17">
    <path d="M 1773.851243 146.484 
L 2067.813808 146.484 
L 2067.813808 70.656 
L 1773.851243 70.656 
z
" style="fill: #eaeaf2"/>
   </g>
   <g id="matplotlib.axis_11">
    <g id="xtick_21">
     <g id="line2d_51">
      <path d="M 1787.213178 146.484 
L 1787.213178 70.656 
" clip-path="url(#pcf1259cebb)" style="fill: none; stroke: #ffffff; stroke-linecap: round"/>
     </g>
     <g id="text_34">
      <!-- 0 -->
      <g style="fill: #262626" transform="translate(1779.86449 173.536391) scale(0.231 -0.231)">
       <use xlink:href="#DejaVuSans-30"/>
      </g>
     </g>
    </g>
    <g id="xtick_22">
     <g id="line2d_52">
      <path d="M 1878.858821 146.484 
L 1878.858821 70.656 
" clip-path="url(#pcf1259cebb)" style="fill: none; stroke: #ffffff; stroke-linecap: round"/>
     </g>
     <g id="text_35">
      <!-- 250 -->
      <g style="fill: #262626" transform="translate(1856.812758 173.536391) scale(0.231 -0.231)">
       <use xlink:href="#DejaVuSans-32"/>
       <use xlink:href="#DejaVuSans-35" x="63.623047"/>
       <use xlink:href="#DejaVuSans-30" x="127.246094"/>
      </g>
     </g>
    </g>
    <g id="xtick_23">
     <g id="line2d_53">
      <path d="M 1970.504464 146.484 
L 1970.504464 70.656 
" clip-path="url(#pcf1259cebb)" style="fill: none; stroke: #ffffff; stroke-linecap: round"/>
     </g>
     <g id="text_36">
      <!-- 500 -->
      <g style="fill: #262626" transform="translate(1948.458402 173.536391) scale(0.231 -0.231)">
       <use xlink:href="#DejaVuSans-35"/>
       <use xlink:href="#DejaVuSans-30" x="63.623047"/>
       <use xlink:href="#DejaVuSans-30" x="127.246094"/>
      </g>
     </g>
    </g>
    <g id="xtick_24">
     <g id="line2d_54">
      <path d="M 2062.150108 146.484 
L 2062.150108 70.656 
" clip-path="url(#pcf1259cebb)" style="fill: none; stroke: #ffffff; stroke-linecap: round"/>
     </g>
     <g id="text_37">
      <!-- 750 -->
      <g style="fill: #262626" transform="translate(2040.104045 173.536391) scale(0.231 -0.231)">
       <use xlink:href="#DejaVuSans-37"/>
       <use xlink:href="#DejaVuSans-35" x="63.623047"/>
       <use xlink:href="#DejaVuSans-30" x="127.246094"/>
      </g>
     </g>
    </g>
    <g id="text_38">
     <!-- step -->
     <g style="fill: #262626" transform="translate(1893.577151 201.488531) scale(0.252 -0.252)">
      <use xlink:href="#DejaVuSans-73"/>
      <use xlink:href="#DejaVuSans-74" x="52.099609"/>
      <use xlink:href="#DejaVuSans-65" x="91.308594"/>
      <use xlink:href="#DejaVuSans-70" x="152.832031"/>
     </g>
    </g>
   </g>
   <g id="matplotlib.axis_12">
    <g id="ytick_11">
     <g id="line2d_55">
      <path d="M 1773.851243 133.516961 
L 2067.813808 133.516961 
" clip-path="url(#pcf1259cebb)" style="fill: none; stroke: #ffffff; stroke-linecap: round"/>
     </g>
    </g>
    <g id="ytick_12">
     <g id="line2d_56">
      <path d="M 1773.851243 82.825632 
L 2067.813808 82.825632 
" clip-path="url(#pcf1259cebb)" style="fill: none; stroke: #ffffff; stroke-linecap: round"/>
     </g>
    </g>
   </g>
   <g id="PolyCollection_21"/>
   <g id="PolyCollection_22"/>
   <g id="PolyCollection_23"/>
   <g id="PolyCollection_24"/>
   <g id="line2d_57">
    <path d="M 1787.213178 82.825632 
L 1787.57976 83.641848 
L 1789.412673 83.680642 
L 1792.711916 83.669289 
L 1793.078499 84.184034 
L 1799.310403 97.718058 
L 1802.243063 103.25335 
L 1805.175724 108.300918 
L 1808.108384 112.90081 
L 1811.041045 117.081603 
L 1813.973706 120.871219 
L 1816.906366 124.295496 
L 1819.839027 127.377835 
L 1822.771687 130.146742 
L 1825.704348 132.615269 
L 1828.637008 134.795563 
L 1831.569669 136.703561 
L 1834.50233 138.35101 
L 1837.43499 139.744184 
L 1840.367651 140.88735 
L 1843.300311 141.783976 
L 1846.232972 142.437377 
L 1849.165633 142.850995 
L 1852.098293 143.028969 
L 1855.030954 142.977091 
L 1857.963614 142.703481 
L 1860.896275 142.218662 
L 1864.195518 141.437467 
L 1867.494761 140.42858 
L 1871.160587 139.070252 
L 1875.192995 137.324674 
L 1881.058316 134.498115 
L 1887.29022 131.218412 
L 1905.619349 121.416917 
L 1911.118087 118.814218 
L 1912.217835 118.43365 
L 1918.449739 116.758568 
L 1923.581895 115.603056 
L 1933.479624 113.555721 
L 1959.140404 109.497176 
L 1967.938386 108.370715 
L 1996.89841 105.130158 
L 2021.826024 102.291955 
L 2045.653892 99.336949 
L 2054.451873 98.195465 
L 2054.451873 98.195465 
" clip-path="url(#pcf1259cebb)" style="fill: none; stroke: #4c72b0; stroke-opacity: 0.9; stroke-width: 3; stroke-linecap: round"/>
   </g>
   <g id="line2d_58">
    <path d="M 1787.213178 82.825632 
L 1787.57976 83.270801 
L 1790.145838 83.299484 
L 1792.711916 83.285352 
L 1793.078499 83.789538 
L 1796.744325 90.924425 
L 1799.310403 95.370009 
L 1801.876481 99.3807 
L 1804.442559 102.97958 
L 1807.008637 106.176981 
L 1809.574715 108.986858 
L 1811.77421 111.084956 
L 1813.973706 112.900531 
L 1816.173201 114.437772 
L 1818.372696 115.70233 
L 1820.572192 116.702731 
L 1822.771687 117.45313 
L 1824.971183 117.967801 
L 1827.170678 118.264099 
L 1829.736756 118.36035 
L 1832.302834 118.222818 
L 1835.235495 117.827616 
L 1838.901321 117.072074 
L 1842.933729 115.975641 
L 1848.065885 114.328412 
L 1867.861344 107.481596 
L 1878.125656 104.036158 
L 1881.424899 103.252372 
L 1885.457307 102.550393 
L 1888.389968 102.240018 
L 1896.454784 101.977642 
L 1904.519601 101.768697 
L 1913.317583 101.319152 
L 1922.84873 100.602561 
L 1941.544441 99.078957 
L 1949.97584 98.606094 
L 1960.240152 98.287239 
L 1988.46701 97.452616 
L 2008.262469 96.625841 
L 2030.990589 95.442481 
L 2054.451873 94.042837 
L 2054.451873 94.042837 
" clip-path="url(#pcf1259cebb)" style="fill: none; stroke: #dd8452; stroke-opacity: 0.9; stroke-width: 3; stroke-linecap: round"/>
   </g>
   <g id="line2d_59">
    <path d="M 1787.213178 82.825632 
L 1787.57976 83.680967 
L 1788.679508 83.742699 
L 1792.711916 83.738072 
L 1793.078499 83.935244 
L 1794.178247 85.057878 
L 1798.577237 89.770133 
L 1801.143315 92.174705 
L 1804.075976 94.613889 
L 1807.008637 96.759406 
L 1810.30788 98.871981 
L 1813.607123 100.714293 
L 1817.272949 102.491984 
L 1820.938774 104.024291 
L 1824.971183 105.469349 
L 1829.003591 106.688317 
L 1833.402582 107.782281 
L 1837.801573 108.649184 
L 1842.200564 109.298904 
L 1846.599555 109.736594 
L 1851.365128 109.989947 
L 1856.130701 110.026769 
L 1861.262857 109.852325 
L 1866.761596 109.432397 
L 1873.360082 108.704878 
L 1882.524647 107.445499 
L 1926.147973 101.076476 
L 1971.604212 95.044237 
L 1992.866001 92.240022 
L 2005.696391 90.764401 
L 2019.626529 89.400276 
L 2034.289832 88.19081 
L 2050.786048 87.05629 
L 2054.451873 86.833045 
L 2054.451873 86.833045 
" clip-path="url(#pcf1259cebb)" style="fill: none; stroke: #55a868; stroke-opacity: 0.9; stroke-width: 3; stroke-linecap: round"/>
   </g>
   <g id="line2d_60">
    <path d="M 1787.213178 82.825632 
L 1787.57976 83.497855 
L 1789.046091 83.547612 
L 1792.711916 83.541061 
L 1793.078499 83.738599 
L 1794.544829 85.233091 
L 1797.844072 88.634058 
L 1800.776733 91.301751 
L 1803.709393 93.662911 
L 1807.008637 96.005275 
L 1810.30788 98.063059 
L 1813.607123 99.87054 
L 1817.272949 101.617493 
L 1820.938774 103.111974 
L 1824.6046 104.365596 
L 1828.270426 105.394474 
L 1831.936252 106.208035 
L 1835.96866 106.864012 
L 1840.001068 107.29637 
L 1844.400059 107.544889 
L 1849.165633 107.585181 
L 1854.664371 107.398636 
L 1860.896275 106.949389 
L 1868.594509 106.155618 
L 1879.958569 104.729103 
L 1897.18795 102.539781 
L 1915.517078 100.491224 
L 2017.060451 89.629443 
L 2032.090337 88.363591 
L 2047.120222 87.323109 
L 2054.451873 86.888629 
L 2054.451873 86.888629 
" clip-path="url(#pcf1259cebb)" style="fill: none; stroke: #c44e52; stroke-opacity: 0.9; stroke-width: 3; stroke-linecap: round"/>
   </g>
   <g id="patch_18">
    <path d="M 1773.851243 146.484 
L 1773.851243 70.656 
" style="fill: none; stroke: #ffffff; stroke-width: 1.25; stroke-linejoin: miter; stroke-linecap: square"/>
   </g>
   <g id="patch_19">
    <path d="M 1773.851243 146.484 
L 2067.813808 146.484 
" style="fill: none; stroke: #ffffff; stroke-width: 1.25; stroke-linejoin: miter; stroke-linecap: square"/>
   </g>
   <g id="text_39">
    <!-- 0.999~365 -->
    <g style="fill: #262626" transform="translate(1850.152432 64.656) scale(0.252 -0.252)">
     <use xlink:href="#DejaVuSans-30"/>
     <use xlink:href="#DejaVuSans-2e" x="63.623047"/>
     <use xlink:href="#DejaVuSans-39" x="95.410156"/>
     <use xlink:href="#DejaVuSans-39" x="159.033203"/>
     <use xlink:href="#DejaVuSans-39" x="222.65625"/>
     <use xlink:href="#DejaVuSans-7e" x="286.279297"/>
     <use xlink:href="#DejaVuSans-33" x="370.068359"/>
     <use xlink:href="#DejaVuSans-36" x="433.691406"/>
     <use xlink:href="#DejaVuSans-35" x="497.314453"/>
    </g>
   </g>
  </g>
  <g id="text_40">
   <!-- Production change from pre-shock level -->
   <g style="fill: #262626" transform="translate(660.251271 30.177675) scale(0.3024 -0.3024)">
    <defs>
     <path id="DejaVuSans-50" d="M 1259 4147 
L 1259 2394 
L 2053 2394 
Q 2494 2394 2734 2622 
Q 2975 2850 2975 3272 
Q 2975 3691 2734 3919 
Q 2494 4147 2053 4147 
L 1259 4147 
z
M 628 4666 
L 2053 4666 
Q 2838 4666 3239 4311 
Q 3641 3956 3641 3272 
Q 3641 2581 3239 2228 
Q 2838 1875 2053 1875 
L 1259 1875 
L 1259 0 
L 628 0 
L 628 4666 
z
" transform="scale(0.015625)"/>
     <path id="DejaVuSans-72" d="M 2631 2963 
Q 2534 3019 2420 3045 
Q 2306 3072 2169 3072 
Q 1681 3072 1420 2755 
Q 1159 2438 1159 1844 
L 1159 0 
L 581 0 
L 581 3500 
L 1159 3500 
L 1159 2956 
Q 1341 3275 1631 3429 
Q 1922 3584 2338 3584 
Q 2397 3584 2469 3576 
Q 2541 3569 2628 3553 
L 2631 2963 
z
" transform="scale(0.015625)"/>
     <path id="DejaVuSans-6f" d="M 1959 3097 
Q 1497 3097 1228 2736 
Q 959 2375 959 1747 
Q 959 1119 1226 758 
Q 1494 397 1959 397 
Q 2419 397 2687 759 
Q 2956 1122 2956 1747 
Q 2956 2369 2687 2733 
Q 2419 3097 1959 3097 
z
M 1959 3584 
Q 2709 3584 3137 3096 
Q 3566 2609 3566 1747 
Q 3566 888 3137 398 
Q 2709 -91 1959 -91 
Q 1206 -91 779 398 
Q 353 888 353 1747 
Q 353 2609 779 3096 
Q 1206 3584 1959 3584 
z
" transform="scale(0.015625)"/>
     <path id="DejaVuSans-64" d="M 2906 2969 
L 2906 4863 
L 3481 4863 
L 3481 0 
L 2906 0 
L 2906 525 
Q 2725 213 2448 61 
Q 2172 -91 1784 -91 
Q 1150 -91 751 415 
Q 353 922 353 1747 
Q 353 2572 751 3078 
Q 1150 3584 1784 3584 
Q 2172 3584 2448 3432 
Q 2725 3281 2906 2969 
z
M 947 1747 
Q 947 1113 1208 752 
Q 1469 391 1925 391 
Q 2381 391 2643 752 
Q 2906 1113 2906 1747 
Q 2906 2381 2643 2742 
Q 2381 3103 1925 3103 
Q 1469 3103 1208 2742 
Q 947 2381 947 1747 
z
" transform="scale(0.015625)"/>
     <path id="DejaVuSans-75" d="M 544 1381 
L 544 3500 
L 1119 3500 
L 1119 1403 
Q 1119 906 1312 657 
Q 1506 409 1894 409 
Q 2359 409 2629 706 
Q 2900 1003 2900 1516 
L 2900 3500 
L 3475 3500 
L 3475 0 
L 2900 0 
L 2900 538 
Q 2691 219 2414 64 
Q 2138 -91 1772 -91 
Q 1169 -91 856 284 
Q 544 659 544 1381 
z
M 1991 3584 
L 1991 3584 
z
" transform="scale(0.015625)"/>
     <path id="DejaVuSans-69" d="M 603 3500 
L 1178 3500 
L 1178 0 
L 603 0 
L 603 3500 
z
M 603 4863 
L 1178 4863 
L 1178 4134 
L 603 4134 
L 603 4863 
z
" transform="scale(0.015625)"/>
     <path id="DejaVuSans-66" d="M 2375 4863 
L 2375 4384 
L 1825 4384 
Q 1516 4384 1395 4259 
Q 1275 4134 1275 3809 
L 1275 3500 
L 2222 3500 
L 2222 3053 
L 1275 3053 
L 1275 0 
L 697 0 
L 697 3053 
L 147 3053 
L 147 3500 
L 697 3500 
L 697 3744 
Q 697 4328 969 4595 
Q 1241 4863 1831 4863 
L 2375 4863 
z
" transform="scale(0.015625)"/>
     <path id="DejaVuSans-6d" d="M 3328 2828 
Q 3544 3216 3844 3400 
Q 4144 3584 4550 3584 
Q 5097 3584 5394 3201 
Q 5691 2819 5691 2113 
L 5691 0 
L 5113 0 
L 5113 2094 
Q 5113 2597 4934 2840 
Q 4756 3084 4391 3084 
Q 3944 3084 3684 2787 
Q 3425 2491 3425 1978 
L 3425 0 
L 2847 0 
L 2847 2094 
Q 2847 2600 2669 2842 
Q 2491 3084 2119 3084 
Q 1678 3084 1418 2786 
Q 1159 2488 1159 1978 
L 1159 0 
L 581 0 
L 581 3500 
L 1159 3500 
L 1159 2956 
Q 1356 3278 1631 3431 
Q 1906 3584 2284 3584 
Q 2666 3584 2933 3390 
Q 3200 3197 3328 2828 
z
" transform="scale(0.015625)"/>
     <path id="DejaVuSans-2d" d="M 313 2009 
L 1997 2009 
L 1997 1497 
L 313 1497 
L 313 2009 
z
" transform="scale(0.015625)"/>
     <path id="DejaVuSans-6b" d="M 581 4863 
L 1159 4863 
L 1159 1991 
L 2875 3500 
L 3609 3500 
L 1753 1863 
L 3688 0 
L 2938 0 
L 1159 1709 
L 1159 0 
L 581 0 
L 581 4863 
z
" transform="scale(0.015625)"/>
     <path id="DejaVuSans-6c" d="M 603 4863 
L 1178 4863 
L 1178 0 
L 603 0 
L 603 4863 
z
" transform="scale(0.015625)"/>
     <path id="DejaVuSans-76" d="M 191 3500 
L 800 3500 
L 1894 563 
L 2988 3500 
L 3597 3500 
L 2284 0 
L 1503 0 
L 191 3500 
z
" transform="scale(0.015625)"/>
    </defs>
    <use xlink:href="#DejaVuSans-50"/>
    <use xlink:href="#DejaVuSans-72" x="58.552734"/>
    <use xlink:href="#DejaVuSans-6f" x="97.416016"/>
    <use xlink:href="#DejaVuSans-64" x="158.597656"/>
    <use xlink:href="#DejaVuSans-75" x="222.074219"/>
    <use xlink:href="#DejaVuSans-63" x="285.453125"/>
    <use xlink:href="#DejaVuSans-74" x="340.433594"/>
    <use xlink:href="#DejaVuSans-69" x="379.642578"/>
    <use xlink:href="#DejaVuSans-6f" x="407.425781"/>
    <use xlink:href="#DejaVuSans-6e" x="468.607422"/>
    <use xlink:href="#DejaVuSans-20" x="531.986328"/>
    <use xlink:href="#DejaVuSans-63" x="563.773438"/>
    <use xlink:href="#DejaVuSans-68" x="618.753906"/>
    <use xlink:href="#DejaVuSans-61" x="682.132812"/>
    <use xlink:href="#DejaVuSans-6e" x="743.412109"/>
    <use xlink:href="#DejaVuSans-67" x="806.791016"/>
    <use xlink:href="#DejaVuSans-65" x="870.267578"/>
    <use xlink:href="#DejaVuSans-20" x="931.791016"/>
    <use xlink:href="#DejaVuSans-66" x="963.578125"/>
    <use xlink:href="#DejaVuSans-72" x="998.783203"/>
    <use xlink:href="#DejaVuSans-6f" x="1037.646484"/>
    <use xlink:href="#DejaVuSans-6d" x="1098.828125"/>
    <use xlink:href="#DejaVuSans-20" x="1196.240234"/>
    <use xlink:href="#DejaVuSans-70" x="1228.027344"/>
    <use xlink:href="#DejaVuSans-72" x="1291.503906"/>
    <use xlink:href="#DejaVuSans-65" x="1330.367188"/>
    <use xlink:href="#DejaVuSans-2d" x="1391.890625"/>
    <use xlink:href="#DejaVuSans-73" x="1427.974609"/>
    <use xlink:href="#DejaVuSans-68" x="1480.074219"/>
    <use xlink:href="#DejaVuSans-6f" x="1543.453125"/>
    <use xlink:href="#DejaVuSans-63" x="1604.634766"/>
    <use xlink:href="#DejaVuSans-6b" x="1659.615234"/>
    <use xlink:href="#DejaVuSans-20" x="1717.525391"/>
    <use xlink:href="#DejaVuSans-6c" x="1749.3125"/>
    <use xlink:href="#DejaVuSans-65" x="1777.095703"/>
    <use xlink:href="#DejaVuSans-76" x="1838.619141"/>
    <use xlink:href="#DejaVuSans-65" x="1897.798828"/>
    <use xlink:href="#DejaVuSans-6c" x="1959.322266"/>
   </g>
  </g>
  <g id="legend_1">
   <g id="patch_20">
    <path d="M 478.330474 322.967813 
L 1692.184943 322.967813 
Q 1696.804943 322.967813 1696.804943 318.347813 
L 1696.804943 250.17 
Q 1696.804943 245.55 1692.184943 245.55 
L 478.330474 245.55 
Q 473.710474 245.55 473.710474 250.17 
L 473.710474 318.347813 
Q 473.710474 322.967813 478.330474 322.967813 
z
" style="fill: #eaeaf2; opacity: 0.8; stroke: #cccccc; stroke-linejoin: miter"/>
   </g>
   <g id="text_41">
    <!-- Experiences -->
    <g style="fill: #262626" transform="translate(1008.423302 273.938063) scale(0.252 -0.252)">
     <defs>
      <path id="DejaVuSans-45" d="M 628 4666 
L 3578 4666 
L 3578 4134 
L 1259 4134 
L 1259 2753 
L 3481 2753 
L 3481 2222 
L 1259 2222 
L 1259 531 
L 3634 531 
L 3634 0 
L 628 0 
L 628 4666 
z
" transform="scale(0.015625)"/>
      <path id="DejaVuSans-78" d="M 3513 3500 
L 2247 1797 
L 3578 0 
L 2900 0 
L 1881 1375 
L 863 0 
L 184 0 
L 1544 1831 
L 300 3500 
L 978 3500 
L 1906 2253 
L 2834 3500 
L 3513 3500 
z
" transform="scale(0.015625)"/>
     </defs>
     <use xlink:href="#DejaVuSans-45"/>
     <use xlink:href="#DejaVuSans-78" x="63.183594"/>
     <use xlink:href="#DejaVuSans-70" x="122.363281"/>
     <use xlink:href="#DejaVuSans-65" x="185.839844"/>
     <use xlink:href="#DejaVuSans-72" x="247.363281"/>
     <use xlink:href="#DejaVuSans-69" x="288.476562"/>
     <use xlink:href="#DejaVuSans-65" x="316.259766"/>
     <use xlink:href="#DejaVuSans-6e" x="377.783203"/>
     <use xlink:href="#DejaVuSans-63" x="441.162109"/>
     <use xlink:href="#DejaVuSans-65" x="496.142578"/>
     <use xlink:href="#DejaVuSans-73" x="557.666016"/>
    </g>
   </g>
   <g id="line2d_61">
    <path d="M 482.950474 300.196266 
L 506.050474 300.196266 
L 529.150474 300.196266 
" style="fill: none; stroke: #4c72b0; stroke-opacity: 0.9; stroke-width: 3; stroke-linecap: round"/>
   </g>
   <g id="text_42">
    <!-- eora26_full_2000 -->
    <g style="fill: #262626" transform="translate(547.630474 308.281266) scale(0.231 -0.231)">
     <defs>
      <path id="DejaVuSans-5f" d="M 3263 -1063 
L 3263 -1509 
L -63 -1509 
L -63 -1063 
L 3263 -1063 
z
" transform="scale(0.015625)"/>
     </defs>
     <use xlink:href="#DejaVuSans-65"/>
     <use xlink:href="#DejaVuSans-6f" x="61.523438"/>
     <use xlink:href="#DejaVuSans-72" x="122.705078"/>
     <use xlink:href="#DejaVuSans-61" x="163.818359"/>
     <use xlink:href="#DejaVuSans-32" x="225.097656"/>
     <use xlink:href="#DejaVuSans-36" x="288.720703"/>
     <use xlink:href="#DejaVuSans-5f" x="352.34375"/>
     <use xlink:href="#DejaVuSans-66" x="402.34375"/>
     <use xlink:href="#DejaVuSans-75" x="437.548828"/>
     <use xlink:href="#DejaVuSans-6c" x="500.927734"/>
     <use xlink:href="#DejaVuSans-6c" x="528.710938"/>
     <use xlink:href="#DejaVuSans-5f" x="556.494141"/>
     <use xlink:href="#DejaVuSans-32" x="606.494141"/>
     <use xlink:href="#DejaVuSans-30" x="670.117188"/>
     <use xlink:href="#DejaVuSans-30" x="733.740234"/>
     <use xlink:href="#DejaVuSans-30" x="797.363281"/>
    </g>
   </g>
   <g id="line2d_62">
    <path d="M 792.721474 300.196266 
L 815.821474 300.196266 
L 838.921474 300.196266 
" style="fill: none; stroke: #dd8452; stroke-opacity: 0.9; stroke-width: 3; stroke-linecap: round"/>
   </g>
   <g id="text_43">
    <!-- eora26_full_2010 -->
    <g style="fill: #262626" transform="translate(857.401474 308.281266) scale(0.231 -0.231)">
     <defs>
      <path id="DejaVuSans-31" d="M 794 531 
L 1825 531 
L 1825 4091 
L 703 3866 
L 703 4441 
L 1819 4666 
L 2450 4666 
L 2450 531 
L 3481 531 
L 3481 0 
L 794 0 
L 794 531 
z
" transform="scale(0.015625)"/>
     </defs>
     <use xlink:href="#DejaVuSans-65"/>
     <use xlink:href="#DejaVuSans-6f" x="61.523438"/>
     <use xlink:href="#DejaVuSans-72" x="122.705078"/>
     <use xlink:href="#DejaVuSans-61" x="163.818359"/>
     <use xlink:href="#DejaVuSans-32" x="225.097656"/>
     <use xlink:href="#DejaVuSans-36" x="288.720703"/>
     <use xlink:href="#DejaVuSans-5f" x="352.34375"/>
     <use xlink:href="#DejaVuSans-66" x="402.34375"/>
     <use xlink:href="#DejaVuSans-75" x="437.548828"/>
     <use xlink:href="#DejaVuSans-6c" x="500.927734"/>
     <use xlink:href="#DejaVuSans-6c" x="528.710938"/>
     <use xlink:href="#DejaVuSans-5f" x="556.494141"/>
     <use xlink:href="#DejaVuSans-32" x="606.494141"/>
     <use xlink:href="#DejaVuSans-30" x="670.117188"/>
     <use xlink:href="#DejaVuSans-31" x="733.740234"/>
     <use xlink:href="#DejaVuSans-30" x="797.363281"/>
    </g>
   </g>
   <g id="line2d_63">
    <path d="M 1102.492474 300.196266 
L 1125.592474 300.196266 
L 1148.692474 300.196266 
" style="fill: none; stroke: #55a868; stroke-opacity: 0.9; stroke-width: 3; stroke-linecap: round"/>
   </g>
   <g id="text_44">
    <!-- euregio_full_2000 -->
    <g style="fill: #262626" transform="translate(1167.172474 308.281266) scale(0.231 -0.231)">
     <use xlink:href="#DejaVuSans-65"/>
     <use xlink:href="#DejaVuSans-75" x="61.523438"/>
     <use xlink:href="#DejaVuSans-72" x="124.902344"/>
     <use xlink:href="#DejaVuSans-65" x="163.765625"/>
     <use xlink:href="#DejaVuSans-67" x="225.289062"/>
     <use xlink:href="#DejaVuSans-69" x="288.765625"/>
     <use xlink:href="#DejaVuSans-6f" x="316.548828"/>
     <use xlink:href="#DejaVuSans-5f" x="377.730469"/>
     <use xlink:href="#DejaVuSans-66" x="427.730469"/>
     <use xlink:href="#DejaVuSans-75" x="462.935547"/>
     <use xlink:href="#DejaVuSans-6c" x="526.314453"/>
     <use xlink:href="#DejaVuSans-6c" x="554.097656"/>
     <use xlink:href="#DejaVuSans-5f" x="581.880859"/>
     <use xlink:href="#DejaVuSans-32" x="631.880859"/>
     <use xlink:href="#DejaVuSans-30" x="695.503906"/>
     <use xlink:href="#DejaVuSans-30" x="759.126953"/>
     <use xlink:href="#DejaVuSans-30" x="822.75"/>
    </g>
   </g>
   <g id="line2d_64">
    <path d="M 1418.128708 300.196266 
L 1441.228708 300.196266 
L 1464.328708 300.196266 
" style="fill: none; stroke: #c44e52; stroke-opacity: 0.9; stroke-width: 3; stroke-linecap: round"/>
   </g>
   <g id="text_45">
    <!-- euregio_full_2010 -->
    <g style="fill: #262626" transform="translate(1482.808708 308.281266) scale(0.231 -0.231)">
     <use xlink:href="#DejaVuSans-65"/>
     <use xlink:href="#DejaVuSans-75" x="61.523438"/>
     <use xlink:href="#DejaVuSans-72" x="124.902344"/>
     <use xlink:href="#DejaVuSans-65" x="163.765625"/>
     <use xlink:href="#DejaVuSans-67" x="225.289062"/>
     <use xlink:href="#DejaVuSans-69" x="288.765625"/>
     <use xlink:href="#DejaVuSans-6f" x="316.548828"/>
     <use xlink:href="#DejaVuSans-5f" x="377.730469"/>
     <use xlink:href="#DejaVuSans-66" x="427.730469"/>
     <use xlink:href="#DejaVuSans-75" x="462.935547"/>
     <use xlink:href="#DejaVuSans-6c" x="526.314453"/>
     <use xlink:href="#DejaVuSans-6c" x="554.097656"/>
     <use xlink:href="#DejaVuSans-5f" x="581.880859"/>
     <use xlink:href="#DejaVuSans-32" x="631.880859"/>
     <use xlink:href="#DejaVuSans-30" x="695.503906"/>
     <use xlink:href="#DejaVuSans-31" x="759.126953"/>
     <use xlink:href="#DejaVuSans-30" x="822.75"/>
    </g>
   </g>
  </g>
 </g>
 <defs>
  <clipPath id="p418dacda58">
   <rect x="93.840703" y="70.656" width="293.962565" height="75.828"/>
  </clipPath>
  <clipPath id="p623d0816c1">
   <rect x="429.842811" y="70.656" width="293.962565" height="75.828"/>
  </clipPath>
  <clipPath id="p4ba62191e7">
   <rect x="765.844919" y="70.656" width="293.962565" height="75.828"/>
  </clipPath>
  <clipPath id="p90d41aa56f">
   <rect x="1101.847027" y="70.656" width="293.962565" height="75.828"/>
  </clipPath>
  <clipPath id="p3a8b1fc5c5">
   <rect x="1437.849135" y="70.656" width="293.962565" height="75.828"/>
  </clipPath>
  <clipPath id="pcf1259cebb">
   <rect x="1773.851243" y="70.656" width="293.962565" height="75.828"/>
  </clipPath>
 </defs>
</svg>
