<?xml version="1.0" encoding="utf-8" standalone="no"?>
<!DOCTYPE svg PUBLIC "-//W3C//DTD SVG 1.1//EN"
  "http://www.w3.org/Graphics/SVG/1.1/DTD/svg11.dtd">
<svg xmlns:xlink="http://www.w3.org/1999/xlink" width="1304.437547pt" height="591.51675pt" viewBox="0 0 1304.437547 591.51675" xmlns="http://www.w3.org/2000/svg" version="1.1">
 <metadata>
  <rdf:RDF xmlns:dc="http://purl.org/dc/elements/1.1/" xmlns:cc="http://creativecommons.org/ns#" xmlns:rdf="http://www.w3.org/1999/02/22-rdf-syntax-ns#">
   <cc:Work>
    <dc:type rdf:resource="http://purl.org/dc/dcmitype/StillImage"/>
    <dc:date>2023-04-28T12:09:37.430225</dc:date>
    <dc:format>image/svg+xml</dc:format>
    <dc:creator>
     <cc:Agent>
      <dc:title>Matplotlib v3.7.1, https://matplotlib.org/</dc:title>
     </cc:Agent>
    </dc:creator>
   </cc:Work>
  </rdf:RDF>
 </metadata>
 <defs>
  <style type="text/css">*{stroke-linejoin: round; stroke-linecap: butt}</style>
 </defs>
 <g id="figure_1">
  <g id="patch_1">
   <path d="M 0 591.51675 
L 1304.437547 591.51675 
L 1304.437547 -0 
L 0 -0 
z
" style="fill: #ffffff"/>
  </g>
  <g id="axes_1">
   <g id="patch_2">
    <path d="M 170.340091 201.042 
L 462.70916 201.042 
L 462.70916 81.456 
L 170.340091 81.456 
z
" style="fill: #eaeaf2"/>
   </g>
   <g id="matplotlib.axis_1">
    <g id="xtick_1">
     <g id="line2d_1">
      <path d="M 183.629594 201.042 
L 183.629594 81.456 
" clip-path="url(#p3b81749038)" style="fill: none; stroke: #ffffff; stroke-linecap: round"/>
     </g>
    </g>
    <g id="xtick_2">
     <g id="line2d_2">
      <path d="M 274.77845 201.042 
L 274.77845 81.456 
" clip-path="url(#p3b81749038)" style="fill: none; stroke: #ffffff; stroke-linecap: round"/>
     </g>
    </g>
    <g id="xtick_3">
     <g id="line2d_3">
      <path d="M 365.927305 201.042 
L 365.927305 81.456 
" clip-path="url(#p3b81749038)" style="fill: none; stroke: #ffffff; stroke-linecap: round"/>
     </g>
    </g>
    <g id="xtick_4">
     <g id="line2d_4">
      <path d="M 457.076161 201.042 
L 457.076161 81.456 
" clip-path="url(#p3b81749038)" style="fill: none; stroke: #ffffff; stroke-linecap: round"/>
     </g>
    </g>
   </g>
   <g id="matplotlib.axis_2">
    <g id="ytick_1">
     <g id="line2d_5">
      <path d="M 170.340091 158.877441 
L 462.70916 158.877441 
" clip-path="url(#p3b81749038)" style="fill: none; stroke: #ffffff; stroke-linecap: round"/>
     </g>
     <g id="text_1">
      <!-- −0.2 -->
      <g style="fill: #262626" transform="translate(104.746794 167.653636) scale(0.231 -0.231)">
       <defs>
        <path id="DejaVuSans-2212" d="M 678 2272 
L 4684 2272 
L 4684 1741 
L 678 1741 
L 678 2272 
z
" transform="scale(0.015625)"/>
        <path id="DejaVuSans-30" d="M 2034 4250 
Q 1547 4250 1301 3770 
Q 1056 3291 1056 2328 
Q 1056 1369 1301 889 
Q 1547 409 2034 409 
Q 2525 409 2770 889 
Q 3016 1369 3016 2328 
Q 3016 3291 2770 3770 
Q 2525 4250 2034 4250 
z
M 2034 4750 
Q 2819 4750 3233 4129 
Q 3647 3509 3647 2328 
Q 3647 1150 3233 529 
Q 2819 -91 2034 -91 
Q 1250 -91 836 529 
Q 422 1150 422 2328 
Q 422 3509 836 4129 
Q 1250 4750 2034 4750 
z
" transform="scale(0.015625)"/>
        <path id="DejaVuSans-2e" d="M 684 794 
L 1344 794 
L 1344 0 
L 684 0 
L 684 794 
z
" transform="scale(0.015625)"/>
        <path id="DejaVuSans-32" d="M 1228 531 
L 3431 531 
L 3431 0 
L 469 0 
L 469 531 
Q 828 903 1448 1529 
Q 2069 2156 2228 2338 
Q 2531 2678 2651 2914 
Q 2772 3150 2772 3378 
Q 2772 3750 2511 3984 
Q 2250 4219 1831 4219 
Q 1534 4219 1204 4116 
Q 875 4013 500 3803 
L 500 4441 
Q 881 4594 1212 4672 
Q 1544 4750 1819 4750 
Q 2544 4750 2975 4387 
Q 3406 4025 3406 3419 
Q 3406 3131 3298 2873 
Q 3191 2616 2906 2266 
Q 2828 2175 2409 1742 
Q 1991 1309 1228 531 
z
" transform="scale(0.015625)"/>
       </defs>
       <use xlink:href="#DejaVuSans-2212"/>
       <use xlink:href="#DejaVuSans-30" x="83.789062"/>
       <use xlink:href="#DejaVuSans-2e" x="147.412109"/>
       <use xlink:href="#DejaVuSans-32" x="179.199219"/>
      </g>
     </g>
    </g>
    <g id="ytick_2">
     <g id="line2d_6">
      <path d="M 170.340091 91.549536 
L 462.70916 91.549536 
" clip-path="url(#p3b81749038)" style="fill: none; stroke: #ffffff; stroke-linecap: round"/>
     </g>
     <g id="text_2">
      <!-- 0.0 -->
      <g style="fill: #262626" transform="translate(124.103872 100.325731) scale(0.231 -0.231)">
       <use xlink:href="#DejaVuSans-30"/>
       <use xlink:href="#DejaVuSans-2e" x="63.623047"/>
       <use xlink:href="#DejaVuSans-30" x="95.410156"/>
      </g>
     </g>
    </g>
    <g id="text_3">
     <!-- % change -->
     <g style="fill: #262626" transform="translate(95.505982 203.597344) rotate(-90) scale(0.252 -0.252)">
      <defs>
       <path id="DejaVuSans-25" d="M 4653 2053 
Q 4381 2053 4226 1822 
Q 4072 1591 4072 1178 
Q 4072 772 4226 539 
Q 4381 306 4653 306 
Q 4919 306 5073 539 
Q 5228 772 5228 1178 
Q 5228 1588 5073 1820 
Q 4919 2053 4653 2053 
z
M 4653 2450 
Q 5147 2450 5437 2106 
Q 5728 1763 5728 1178 
Q 5728 594 5436 251 
Q 5144 -91 4653 -91 
Q 4153 -91 3862 251 
Q 3572 594 3572 1178 
Q 3572 1766 3864 2108 
Q 4156 2450 4653 2450 
z
M 1428 4353 
Q 1159 4353 1004 4120 
Q 850 3888 850 3481 
Q 850 3069 1003 2837 
Q 1156 2606 1428 2606 
Q 1700 2606 1854 2837 
Q 2009 3069 2009 3481 
Q 2009 3884 1853 4118 
Q 1697 4353 1428 4353 
z
M 4250 4750 
L 4750 4750 
L 1831 -91 
L 1331 -91 
L 4250 4750 
z
M 1428 4750 
Q 1922 4750 2215 4408 
Q 2509 4066 2509 3481 
Q 2509 2891 2217 2550 
Q 1925 2209 1428 2209 
Q 931 2209 642 2551 
Q 353 2894 353 3481 
Q 353 4063 643 4406 
Q 934 4750 1428 4750 
z
" transform="scale(0.015625)"/>
       <path id="DejaVuSans-20" transform="scale(0.015625)"/>
       <path id="DejaVuSans-63" d="M 3122 3366 
L 3122 2828 
Q 2878 2963 2633 3030 
Q 2388 3097 2138 3097 
Q 1578 3097 1268 2742 
Q 959 2388 959 1747 
Q 959 1106 1268 751 
Q 1578 397 2138 397 
Q 2388 397 2633 464 
Q 2878 531 3122 666 
L 3122 134 
Q 2881 22 2623 -34 
Q 2366 -91 2075 -91 
Q 1284 -91 818 406 
Q 353 903 353 1747 
Q 353 2603 823 3093 
Q 1294 3584 2113 3584 
Q 2378 3584 2631 3529 
Q 2884 3475 3122 3366 
z
" transform="scale(0.015625)"/>
       <path id="DejaVuSans-68" d="M 3513 2113 
L 3513 0 
L 2938 0 
L 2938 2094 
Q 2938 2591 2744 2837 
Q 2550 3084 2163 3084 
Q 1697 3084 1428 2787 
Q 1159 2491 1159 1978 
L 1159 0 
L 581 0 
L 581 4863 
L 1159 4863 
L 1159 2956 
Q 1366 3272 1645 3428 
Q 1925 3584 2291 3584 
Q 2894 3584 3203 3211 
Q 3513 2838 3513 2113 
z
" transform="scale(0.015625)"/>
       <path id="DejaVuSans-61" d="M 2194 1759 
Q 1497 1759 1228 1600 
Q 959 1441 959 1056 
Q 959 750 1161 570 
Q 1363 391 1709 391 
Q 2188 391 2477 730 
Q 2766 1069 2766 1631 
L 2766 1759 
L 2194 1759 
z
M 3341 1997 
L 3341 0 
L 2766 0 
L 2766 531 
Q 2569 213 2275 61 
Q 1981 -91 1556 -91 
Q 1019 -91 701 211 
Q 384 513 384 1019 
Q 384 1609 779 1909 
Q 1175 2209 1959 2209 
L 2766 2209 
L 2766 2266 
Q 2766 2663 2505 2880 
Q 2244 3097 1772 3097 
Q 1472 3097 1187 3025 
Q 903 2953 641 2809 
L 641 3341 
Q 956 3463 1253 3523 
Q 1550 3584 1831 3584 
Q 2591 3584 2966 3190 
Q 3341 2797 3341 1997 
z
" transform="scale(0.015625)"/>
       <path id="DejaVuSans-6e" d="M 3513 2113 
L 3513 0 
L 2938 0 
L 2938 2094 
Q 2938 2591 2744 2837 
Q 2550 3084 2163 3084 
Q 1697 3084 1428 2787 
Q 1159 2491 1159 1978 
L 1159 0 
L 581 0 
L 581 3500 
L 1159 3500 
L 1159 2956 
Q 1366 3272 1645 3428 
Q 1925 3584 2291 3584 
Q 2894 3584 3203 3211 
Q 3513 2838 3513 2113 
z
" transform="scale(0.015625)"/>
       <path id="DejaVuSans-67" d="M 2906 1791 
Q 2906 2416 2648 2759 
Q 2391 3103 1925 3103 
Q 1463 3103 1205 2759 
Q 947 2416 947 1791 
Q 947 1169 1205 825 
Q 1463 481 1925 481 
Q 2391 481 2648 825 
Q 2906 1169 2906 1791 
z
M 3481 434 
Q 3481 -459 3084 -895 
Q 2688 -1331 1869 -1331 
Q 1566 -1331 1297 -1286 
Q 1028 -1241 775 -1147 
L 775 -588 
Q 1028 -725 1275 -790 
Q 1522 -856 1778 -856 
Q 2344 -856 2625 -561 
Q 2906 -266 2906 331 
L 2906 616 
Q 2728 306 2450 153 
Q 2172 0 1784 0 
Q 1141 0 747 490 
Q 353 981 353 1791 
Q 353 2603 747 3093 
Q 1141 3584 1784 3584 
Q 2172 3584 2450 3431 
Q 2728 3278 2906 2969 
L 2906 3500 
L 3481 3500 
L 3481 434 
z
" transform="scale(0.015625)"/>
       <path id="DejaVuSans-65" d="M 3597 1894 
L 3597 1613 
L 953 1613 
Q 991 1019 1311 708 
Q 1631 397 2203 397 
Q 2534 397 2845 478 
Q 3156 559 3463 722 
L 3463 178 
Q 3153 47 2828 -22 
Q 2503 -91 2169 -91 
Q 1331 -91 842 396 
Q 353 884 353 1716 
Q 353 2575 817 3079 
Q 1281 3584 2069 3584 
Q 2775 3584 3186 3129 
Q 3597 2675 3597 1894 
z
M 3022 2063 
Q 3016 2534 2758 2815 
Q 2500 3097 2075 3097 
Q 1594 3097 1305 2825 
Q 1016 2553 972 2059 
L 3022 2063 
z
" transform="scale(0.015625)"/>
      </defs>
      <use xlink:href="#DejaVuSans-25"/>
      <use xlink:href="#DejaVuSans-20" x="95.019531"/>
      <use xlink:href="#DejaVuSans-63" x="126.806641"/>
      <use xlink:href="#DejaVuSans-68" x="181.787109"/>
      <use xlink:href="#DejaVuSans-61" x="245.166016"/>
      <use xlink:href="#DejaVuSans-6e" x="306.445312"/>
      <use xlink:href="#DejaVuSans-67" x="369.824219"/>
      <use xlink:href="#DejaVuSans-65" x="433.300781"/>
     </g>
    </g>
   </g>
   <g id="PolyCollection_1"/>
   <g id="PolyCollection_2"/>
   <g id="PolyCollection_3"/>
   <g id="PolyCollection_4"/>
   <g id="PolyCollection_5"/>
   <g id="PolyCollection_6"/>
   <g id="line2d_7">
    <path d="M 183.629594 91.549536 
L 183.99419 183.779572 
L 184.358785 186.95678 
L 184.723381 187.715928 
L 185.087976 187.809877 
L 185.817167 187.572673 
L 189.098526 186.105705 
L 189.827716 182.152921 
L 192.015289 169.651075 
L 193.838266 160.407237 
L 195.661243 152.141685 
L 197.48422 144.748979 
L 199.307197 138.134887 
L 201.130175 132.216649 
L 202.953152 126.942988 
L 205.140724 121.3513 
L 207.328297 116.457141 
L 209.151274 112.898699 
L 211.338846 109.19251 
L 213.526419 105.960208 
L 215.713991 103.171746 
L 217.901564 100.729591 
L 220.089136 98.590476 
L 222.641304 96.428282 
L 225.193472 94.573328 
L 227.01645 93.488731 
L 228.474831 92.820215 
L 231.391595 91.773843 
L 235.037549 90.726725 
L 239.048098 89.826636 
L 243.058648 89.138615 
L 248.527579 88.491888 
L 251.808938 88.267487 
L 256.913274 88.46749 
L 268.580328 89.049264 
L 279.882786 89.341011 
L 330.926145 90.159925 
L 369.208664 90.224467 
L 449.419657 90.225531 
L 449.419657 90.225531 
" clip-path="url(#p3b81749038)" style="fill: none; stroke: #4c72b0; stroke-opacity: 0.9; stroke-width: 3; stroke-linecap: round"/>
   </g>
   <g id="line2d_8">
    <path d="M 183.629594 91.549536 
L 183.99419 181.128269 
L 184.358785 184.871261 
L 184.723381 186.098701 
L 185.087976 186.462436 
L 185.452571 186.509315 
L 186.546358 186.19415 
L 189.098526 185.220368 
L 189.827716 181.641313 
L 192.379884 167.565748 
L 194.202861 158.685749 
L 196.025839 150.744227 
L 197.848816 143.645444 
L 199.671793 137.294888 
L 201.49477 131.611623 
L 203.682342 125.573948 
L 205.869915 120.288923 
L 208.057488 115.665616 
L 210.24506 111.644548 
L 212.432633 108.13117 
L 214.25561 105.614145 
L 216.443182 102.987223 
L 218.630755 100.727572 
L 221.182923 98.453488 
L 223.735091 96.503648 
L 226.287259 94.828223 
L 228.110236 93.852097 
L 229.933213 93.06341 
L 232.849976 92.109981 
L 236.49593 91.136112 
L 240.871076 90.228352 
L 245.610816 89.488 
L 251.079747 88.855983 
L 254.361106 88.646323 
L 263.475992 88.717029 
L 268.944923 88.883861 
L 293.737412 89.544583 
L 318.529901 89.710243 
L 379.781932 90.010032 
L 449.419657 90.014678 
L 449.419657 90.014678 
" clip-path="url(#p3b81749038)" style="fill: none; stroke: #dd8452; stroke-opacity: 0.9; stroke-width: 3; stroke-linecap: round"/>
   </g>
   <g id="line2d_9">
    <path d="M 183.629594 91.549536 
L 183.99419 188.527128 
L 184.358785 193.716463 
L 184.723381 194.932514 
L 185.087976 195.15679 
L 185.817167 194.955357 
L 189.098526 193.347965 
L 189.827716 189.049049 
L 192.015289 175.544462 
L 193.838266 165.549161 
L 195.661243 156.611849 
L 197.48422 148.629361 
L 199.307197 141.491291 
L 201.130175 135.104679 
L 202.953152 129.388866 
L 204.776129 124.281197 
L 206.599106 119.719633 
L 208.786678 114.888796 
L 210.974251 110.679373 
L 213.161823 107.009812 
L 215.349396 103.82361 
L 217.536969 101.102533 
L 219.724541 98.77855 
L 221.912114 96.757846 
L 224.464282 94.720024 
L 225.922663 93.750308 
L 228.474831 92.411427 
L 231.026999 91.284706 
L 234.308358 90.139973 
L 237.589717 89.249444 
L 241.235671 88.524691 
L 243.787839 88.190625 
L 245.975411 88.089068 
L 251.808938 88.197853 
L 261.288419 88.555502 
L 294.102007 89.986452 
L 306.862847 90.216666 
L 327.280191 90.378242 
L 367.021092 90.444842 
L 449.419657 90.44335 
L 449.419657 90.44335 
" clip-path="url(#p3b81749038)" style="fill: none; stroke: #55a868; stroke-opacity: 0.9; stroke-width: 3; stroke-linecap: round"/>
   </g>
   <g id="line2d_10">
    <path d="M 183.629594 91.549536 
L 183.99419 185.322103 
L 184.358785 190.455697 
L 184.723381 191.639262 
L 185.087976 191.851557 
L 185.817167 191.656101 
L 189.098526 190.118514 
L 189.827716 185.994925 
L 192.015289 172.932172 
L 193.838266 163.259206 
L 195.661243 154.608585 
L 197.48422 146.872712 
L 199.307197 139.952115 
L 201.130175 133.75949 
L 202.953152 128.219909 
L 205.140724 122.339374 
L 206.963701 118.009396 
L 209.151274 113.433401 
L 211.338846 109.457404 
L 213.526419 105.996905 
L 215.713991 103.002829 
L 217.901564 100.43602 
L 220.089136 98.246069 
L 222.276709 96.345079 
L 224.828877 94.435452 
L 226.287259 93.553052 
L 229.204022 92.159627 
L 232.120785 91.007133 
L 235.037549 90.072069 
L 237.954312 89.364991 
L 241.600266 88.69165 
L 243.787839 88.469914 
L 246.704602 88.428478 
L 256.184083 88.609888 
L 275.143045 89.212235 
L 293.008221 89.941475 
L 308.321229 90.202277 
L 334.207504 90.361372 
L 394.001153 90.397309 
L 449.419657 90.390892 
L 449.419657 90.390892 
" clip-path="url(#p3b81749038)" style="fill: none; stroke: #c44e52; stroke-opacity: 0.9; stroke-width: 3; stroke-linecap: round"/>
   </g>
   <g id="line2d_11">
    <path d="M 183.629594 91.549536 
L 183.99419 187.162355 
L 184.358785 191.274978 
L 184.723381 191.86398 
L 185.087976 191.856988 
L 186.546358 191.228326 
L 189.098526 190.055063 
L 193.838266 163.065658 
L 195.661243 154.496062 
L 197.48422 146.832569 
L 199.307197 139.978375 
L 201.130175 133.846593 
L 202.953152 128.36166 
L 205.140724 122.537567 
L 207.328297 117.440714 
L 209.515869 112.980044 
L 211.703442 109.077295 
L 213.891014 105.668732 
L 216.078587 102.680125 
L 218.266159 100.116977 
L 220.453732 97.875704 
L 223.0059 95.603703 
L 225.193472 93.950127 
L 227.381045 92.608937 
L 229.568617 91.546685 
L 232.485381 90.367464 
L 235.402144 89.415712 
L 237.589717 88.869971 
L 241.964862 88.059932 
L 246.340007 87.553593 
L 252.538129 87.101446 
L 258.736251 86.934003 
L 265.298969 86.920201 
L 286.810099 88.589433 
L 310.144206 89.479501 
L 341.499412 90.0481 
L 374.313 90.145244 
L 449.419657 90.156974 
L 449.419657 90.156974 
" clip-path="url(#p3b81749038)" style="fill: none; stroke: #8172b3; stroke-opacity: 0.9; stroke-width: 3; stroke-linecap: round"/>
   </g>
   <g id="line2d_12">
    <path d="M 183.629594 91.549536 
L 183.99419 184.974022 
L 184.358785 188.382221 
L 184.723381 188.92915 
L 185.087976 188.922711 
L 186.546358 188.338066 
L 189.098526 187.248651 
L 193.838266 161.128816 
L 195.661243 152.836857 
L 197.48422 145.424427 
L 199.307197 138.79638 
L 201.130175 132.870881 
L 202.953152 127.571328 
L 205.140724 121.943694 
L 207.328297 117.021079 
L 209.515869 112.726083 
L 211.703442 108.96628 
L 213.891014 105.672889 
L 216.078587 102.798452 
L 218.266159 100.316716 
L 220.453732 98.145845 
L 223.0059 95.954551 
L 225.193472 94.355071 
L 227.381045 92.996725 
L 229.933213 91.775484 
L 232.485381 90.813829 
L 234.672953 90.180828 
L 238.683503 89.283324 
L 243.058648 88.581521 
L 247.798389 88.043659 
L 253.631915 87.661425 
L 261.288419 87.475986 
L 265.663564 87.533416 
L 282.434954 88.519549 
L 296.654175 88.978865 
L 308.321229 89.364248 
L 313.425565 89.527417 
L 345.509962 89.961361 
L 385.615458 90.046728 
L 449.419657 90.055807 
L 449.419657 90.055807 
" clip-path="url(#p3b81749038)" style="fill: none; stroke: #937860; stroke-opacity: 0.9; stroke-width: 3; stroke-linecap: round"/>
   </g>
   <g id="patch_3">
    <path d="M 170.340091 201.042 
L 170.340091 81.456 
" style="fill: none; stroke: #ffffff; stroke-width: 1.25; stroke-linejoin: miter; stroke-linecap: square"/>
   </g>
   <g id="patch_4">
    <path d="M 170.340091 201.042 
L 462.70916 201.042 
" style="fill: none; stroke: #ffffff; stroke-width: 1.25; stroke-linejoin: miter; stroke-linecap: square"/>
   </g>
   <g id="text_4">
    <!-- 0.8~90 -->
    <g style="fill: #262626" transform="translate(269.894782 75.456) scale(0.252 -0.252)">
     <defs>
      <path id="DejaVuSans-38" d="M 2034 2216 
Q 1584 2216 1326 1975 
Q 1069 1734 1069 1313 
Q 1069 891 1326 650 
Q 1584 409 2034 409 
Q 2484 409 2743 651 
Q 3003 894 3003 1313 
Q 3003 1734 2745 1975 
Q 2488 2216 2034 2216 
z
M 1403 2484 
Q 997 2584 770 2862 
Q 544 3141 544 3541 
Q 544 4100 942 4425 
Q 1341 4750 2034 4750 
Q 2731 4750 3128 4425 
Q 3525 4100 3525 3541 
Q 3525 3141 3298 2862 
Q 3072 2584 2669 2484 
Q 3125 2378 3379 2068 
Q 3634 1759 3634 1313 
Q 3634 634 3220 271 
Q 2806 -91 2034 -91 
Q 1263 -91 848 271 
Q 434 634 434 1313 
Q 434 1759 690 2068 
Q 947 2378 1403 2484 
z
M 1172 3481 
Q 1172 3119 1398 2916 
Q 1625 2713 2034 2713 
Q 2441 2713 2670 2916 
Q 2900 3119 2900 3481 
Q 2900 3844 2670 4047 
Q 2441 4250 2034 4250 
Q 1625 4250 1398 4047 
Q 1172 3844 1172 3481 
z
" transform="scale(0.015625)"/>
      <path id="DejaVuSans-7e" d="M 4684 2553 
L 4684 1997 
Q 4356 1750 4076 1644 
Q 3797 1538 3494 1538 
Q 3150 1538 2694 1722 
Q 2659 1734 2644 1741 
Q 2622 1750 2575 1766 
Q 2091 1959 1797 1959 
Q 1522 1959 1253 1839 
Q 984 1719 678 1459 
L 678 2016 
Q 1006 2263 1286 2370 
Q 1566 2478 1869 2478 
Q 2213 2478 2672 2291 
Q 2703 2278 2719 2272 
Q 2744 2263 2788 2247 
Q 3272 2053 3566 2053 
Q 3834 2053 4098 2172 
Q 4363 2291 4684 2553 
z
" transform="scale(0.015625)"/>
      <path id="DejaVuSans-39" d="M 703 97 
L 703 672 
Q 941 559 1184 500 
Q 1428 441 1663 441 
Q 2288 441 2617 861 
Q 2947 1281 2994 2138 
Q 2813 1869 2534 1725 
Q 2256 1581 1919 1581 
Q 1219 1581 811 2004 
Q 403 2428 403 3163 
Q 403 3881 828 4315 
Q 1253 4750 1959 4750 
Q 2769 4750 3195 4129 
Q 3622 3509 3622 2328 
Q 3622 1225 3098 567 
Q 2575 -91 1691 -91 
Q 1453 -91 1209 -44 
Q 966 3 703 97 
z
M 1959 2075 
Q 2384 2075 2632 2365 
Q 2881 2656 2881 3163 
Q 2881 3666 2632 3958 
Q 2384 4250 1959 4250 
Q 1534 4250 1286 3958 
Q 1038 3666 1038 3163 
Q 1038 2656 1286 2365 
Q 1534 2075 1959 2075 
z
" transform="scale(0.015625)"/>
     </defs>
     <use xlink:href="#DejaVuSans-30"/>
     <use xlink:href="#DejaVuSans-2e" x="63.623047"/>
     <use xlink:href="#DejaVuSans-38" x="95.410156"/>
     <use xlink:href="#DejaVuSans-7e" x="159.033203"/>
     <use xlink:href="#DejaVuSans-39" x="242.822266"/>
     <use xlink:href="#DejaVuSans-30" x="306.445312"/>
    </g>
   </g>
  </g>
  <g id="axes_2">
   <g id="patch_5">
    <path d="M 489.290298 201.042 
L 781.659367 201.042 
L 781.659367 81.456 
L 489.290298 81.456 
z
" style="fill: #eaeaf2"/>
   </g>
   <g id="matplotlib.axis_3">
    <g id="xtick_5">
     <g id="line2d_13">
      <path d="M 502.579801 201.042 
L 502.579801 81.456 
" clip-path="url(#p0a9b8c81e2)" style="fill: none; stroke: #ffffff; stroke-linecap: round"/>
     </g>
    </g>
    <g id="xtick_6">
     <g id="line2d_14">
      <path d="M 593.728656 201.042 
L 593.728656 81.456 
" clip-path="url(#p0a9b8c81e2)" style="fill: none; stroke: #ffffff; stroke-linecap: round"/>
     </g>
    </g>
    <g id="xtick_7">
     <g id="line2d_15">
      <path d="M 684.877512 201.042 
L 684.877512 81.456 
" clip-path="url(#p0a9b8c81e2)" style="fill: none; stroke: #ffffff; stroke-linecap: round"/>
     </g>
    </g>
    <g id="xtick_8">
     <g id="line2d_16">
      <path d="M 776.026368 201.042 
L 776.026368 81.456 
" clip-path="url(#p0a9b8c81e2)" style="fill: none; stroke: #ffffff; stroke-linecap: round"/>
     </g>
    </g>
   </g>
   <g id="matplotlib.axis_4">
    <g id="ytick_3">
     <g id="line2d_17">
      <path d="M 489.290298 158.877441 
L 781.659367 158.877441 
" clip-path="url(#p0a9b8c81e2)" style="fill: none; stroke: #ffffff; stroke-linecap: round"/>
     </g>
    </g>
    <g id="ytick_4">
     <g id="line2d_18">
      <path d="M 489.290298 91.549536 
L 781.659367 91.549536 
" clip-path="url(#p0a9b8c81e2)" style="fill: none; stroke: #ffffff; stroke-linecap: round"/>
     </g>
    </g>
   </g>
   <g id="PolyCollection_7"/>
   <g id="PolyCollection_8"/>
   <g id="PolyCollection_9"/>
   <g id="PolyCollection_10"/>
   <g id="PolyCollection_11"/>
   <g id="PolyCollection_12"/>
   <g id="line2d_19">
    <path d="M 502.579801 91.549536 
L 502.944396 183.779572 
L 503.308992 187.059207 
L 503.673587 187.93715 
L 504.038182 188.154108 
L 504.767373 188.164772 
L 508.048732 187.802179 
L 508.777923 184.102661 
L 510.965495 172.255199 
L 512.788473 163.485141 
L 514.61145 155.638843 
L 516.434427 148.618344 
L 518.257404 142.336046 
L 520.080381 136.715488 
L 522.267954 130.744947 
L 524.455526 125.518445 
L 526.643099 120.942967 
L 528.830671 116.936914 
L 531.018244 113.429252 
L 533.205816 110.357688 
L 535.393389 107.67103 
L 537.580961 105.321977 
L 539.768534 103.267373 
L 542.320702 101.189567 
L 544.87287 99.408429 
L 547.425038 97.924355 
L 550.341801 96.49921 
L 553.62316 95.182509 
L 556.904519 94.101844 
L 560.550473 93.126333 
L 564.925618 92.203997 
L 569.665358 91.520668 
L 573.311313 91.187017 
L 580.967817 90.760154 
L 590.811893 90.444425 
L 603.208137 90.28021 
L 616.333573 90.272969 
L 633.104962 90.788076 
L 648.053374 90.964465 
L 687.065085 91.132652 
L 768.369864 91.194053 
L 768.369864 91.194053 
" clip-path="url(#p0a9b8c81e2)" style="fill: none; stroke: #4c72b0; stroke-opacity: 0.9; stroke-width: 3; stroke-linecap: round"/>
   </g>
   <g id="line2d_20">
    <path d="M 502.579801 91.549536 
L 502.944396 181.128269 
L 503.308992 184.955278 
L 503.673587 186.281181 
L 504.038182 186.748342 
L 504.767373 186.93543 
L 506.59035 186.800939 
L 508.048732 186.658828 
L 508.777923 183.288425 
L 511.694686 168.092487 
L 513.517663 159.794444 
L 515.340641 152.372857 
L 517.163618 145.733406 
L 518.986595 139.791844 
L 521.174167 133.480098 
L 523.36174 127.955362 
L 525.549312 123.119287 
L 527.736885 118.886189 
L 529.924457 115.180566 
L 532.11203 111.937291 
L 534.299603 109.097117 
L 536.487175 106.60945 
L 538.674748 104.430275 
L 541.226916 102.226806 
L 543.779084 100.344188 
L 546.331251 98.73364 
L 549.248015 97.176418 
L 551.800183 96.05032 
L 555.081542 94.882736 
L 558.727496 93.829599 
L 562.738045 92.908231 
L 567.113191 92.138459 
L 572.217526 91.522657 
L 576.592672 91.192562 
L 585.342962 90.798695 
L 596.280824 90.534597 
L 613.416809 90.361922 
L 623.990076 90.448618 
L 638.209298 90.766983 
L 663.001787 91.032851 
L 722.795436 91.11798 
L 768.369864 91.143084 
L 768.369864 91.143084 
" clip-path="url(#p0a9b8c81e2)" style="fill: none; stroke: #dd8452; stroke-opacity: 0.9; stroke-width: 3; stroke-linecap: round"/>
   </g>
   <g id="line2d_21">
    <path d="M 502.579801 91.549536 
L 502.944396 188.527128 
L 503.308992 193.826787 
L 503.673587 195.171696 
L 504.038182 195.529665 
L 504.767373 195.597864 
L 508.048732 195.19327 
L 508.777923 191.160847 
L 510.965495 178.390953 
L 512.788473 168.932266 
L 514.61145 160.471045 
L 516.434427 152.901029 
L 518.257404 146.128413 
L 520.080381 140.073716 
L 522.267954 133.642606 
L 524.455526 128.012115 
L 526.643099 123.082742 
L 528.830671 118.76739 
L 531.018244 114.987963 
L 533.205816 111.679143 
L 535.393389 108.781437 
L 537.580961 106.243972 
L 539.768534 104.024418 
L 541.956106 102.085405 
L 544.508274 100.130487 
L 547.060442 98.462557 
L 549.61261 97.036346 
L 552.529374 95.663595 
L 555.446137 94.539539 
L 558.727496 93.518009 
L 562.738045 92.520625 
L 566.019404 91.914059 
L 571.12374 91.254389 
L 576.957267 90.72481 
L 584.249175 90.324798 
L 592.999466 90.081401 
L 599.926779 90.067025 
L 608.677069 90.264779 
L 633.834153 90.865082 
L 663.730978 91.182611 
L 706.388642 91.268195 
L 768.369864 91.27681 
L 768.369864 91.27681 
" clip-path="url(#p0a9b8c81e2)" style="fill: none; stroke: #55a868; stroke-opacity: 0.9; stroke-width: 3; stroke-linecap: round"/>
   </g>
   <g id="line2d_22">
    <path d="M 502.579801 91.549536 
L 502.944396 185.322103 
L 503.308992 190.561373 
L 503.673587 191.86892 
L 504.038182 192.209798 
L 504.767373 192.273988 
L 508.048732 191.89511 
L 508.777923 188.029778 
L 510.965495 175.676936 
L 512.788473 166.523512 
L 514.61145 158.333467 
L 516.434427 151.00552 
L 518.257404 144.447921 
L 520.080381 138.579307 
L 522.267954 132.34536 
L 524.455526 126.88826 
L 526.643099 122.110384 
L 528.830671 117.927733 
L 531.018244 114.265385 
L 533.205816 111.058144 
L 535.393389 108.249348 
L 537.580961 105.790923 
L 539.768534 103.638885 
L 542.320702 101.467047 
L 544.87287 99.614683 
L 547.425038 98.038965 
L 550.341801 96.519211 
L 553.258564 95.25973 
L 556.539923 94.108663 
L 560.185878 93.100266 
L 564.196427 92.22574 
L 567.477786 91.739001 
L 573.311313 91.101293 
L 579.87403 90.617661 
L 586.801343 90.317301 
L 595.916229 90.145916 
L 606.854092 90.3219 
L 632.740367 90.83886 
L 676.127222 91.213026 
L 737.743848 91.26398 
L 768.369864 91.264325 
L 768.369864 91.264325 
" clip-path="url(#p0a9b8c81e2)" style="fill: none; stroke: #c44e52; stroke-opacity: 0.9; stroke-width: 3; stroke-linecap: round"/>
   </g>
   <g id="line2d_23">
    <path d="M 502.579801 91.549536 
L 502.944396 187.162355 
L 503.308992 191.392825 
L 503.673587 192.108036 
L 504.038182 192.228495 
L 505.496564 192.108361 
L 508.048732 191.814566 
L 509.871709 181.292404 
L 511.694686 171.567058 
L 513.517663 162.866579 
L 515.340641 155.082551 
L 517.163618 148.118006 
L 518.986595 141.886281 
L 520.809572 136.309729 
L 522.997144 130.385815 
L 525.184717 125.200321 
L 527.372289 120.660716 
L 529.559862 116.685842 
L 531.747435 113.204753 
L 533.935007 110.155394 
L 536.12258 107.483694 
L 538.310152 105.142778 
L 540.497725 103.09128 
L 543.049893 101.01559 
L 545.602061 99.235007 
L 548.154229 97.70892 
L 551.070992 96.231793 
L 553.987755 94.992422 
L 557.269114 93.860677 
L 560.915068 92.836966 
L 564.925618 91.948188 
L 569.300763 91.26057 
L 574.769694 90.715374 
L 581.697007 90.251293 
L 589.353511 89.955385 
L 600.655969 89.865973 
L 626.177649 90.011421 
L 644.772016 90.22388 
L 655.709878 90.564762 
L 671.022886 90.787218 
L 711.492978 91.038798 
L 768.369864 91.129294 
L 768.369864 91.129294 
" clip-path="url(#p0a9b8c81e2)" style="fill: none; stroke: #8172b3; stroke-opacity: 0.9; stroke-width: 3; stroke-linecap: round"/>
   </g>
   <g id="line2d_24">
    <path d="M 502.579801 91.549536 
L 502.944396 184.974022 
L 503.308992 188.492083 
L 503.673587 189.156339 
L 504.038182 189.26842 
L 505.496564 189.156439 
L 508.048732 188.882854 
L 513.153068 162.422977 
L 514.976045 154.704321 
L 516.799022 147.798732 
L 518.621999 141.620362 
L 520.444976 136.092246 
L 522.632549 130.22056 
L 524.820122 125.081507 
L 527.007694 120.583286 
L 529.195267 116.646491 
L 531.382839 113.200034 
L 533.570412 110.181992 
L 535.757984 107.538703 
L 537.945557 105.223217 
L 540.133129 103.194344 
L 542.685297 101.141929 
L 545.237465 99.385972 
L 547.789633 97.881277 
L 550.706397 96.421416 
L 553.62316 95.196897 
L 556.904519 94.072625 
L 560.550473 93.059514 
L 564.561023 92.183694 
L 568.936168 91.467356 
L 574.405099 90.889435 
L 580.238626 90.517441 
L 587.530534 90.271073 
L 598.832992 90.116541 
L 613.781405 90.1521 
L 640.39687 90.396973 
L 654.616092 90.673114 
L 679.773176 90.890399 
L 745.035757 91.08254 
L 768.369864 91.102037 
L 768.369864 91.102037 
" clip-path="url(#p0a9b8c81e2)" style="fill: none; stroke: #937860; stroke-opacity: 0.9; stroke-width: 3; stroke-linecap: round"/>
   </g>
   <g id="patch_6">
    <path d="M 489.290298 201.042 
L 489.290298 81.456 
" style="fill: none; stroke: #ffffff; stroke-width: 1.25; stroke-linejoin: miter; stroke-linecap: square"/>
   </g>
   <g id="patch_7">
    <path d="M 489.290298 201.042 
L 781.659367 201.042 
" style="fill: none; stroke: #ffffff; stroke-width: 1.25; stroke-linejoin: miter; stroke-linecap: square"/>
   </g>
   <g id="text_5">
    <!-- 0.8~365 -->
    <g style="fill: #262626" transform="translate(580.828239 75.456) scale(0.252 -0.252)">
     <defs>
      <path id="DejaVuSans-33" d="M 2597 2516 
Q 3050 2419 3304 2112 
Q 3559 1806 3559 1356 
Q 3559 666 3084 287 
Q 2609 -91 1734 -91 
Q 1441 -91 1130 -33 
Q 819 25 488 141 
L 488 750 
Q 750 597 1062 519 
Q 1375 441 1716 441 
Q 2309 441 2620 675 
Q 2931 909 2931 1356 
Q 2931 1769 2642 2001 
Q 2353 2234 1838 2234 
L 1294 2234 
L 1294 2753 
L 1863 2753 
Q 2328 2753 2575 2939 
Q 2822 3125 2822 3475 
Q 2822 3834 2567 4026 
Q 2313 4219 1838 4219 
Q 1578 4219 1281 4162 
Q 984 4106 628 3988 
L 628 4550 
Q 988 4650 1302 4700 
Q 1616 4750 1894 4750 
Q 2613 4750 3031 4423 
Q 3450 4097 3450 3541 
Q 3450 3153 3228 2886 
Q 3006 2619 2597 2516 
z
" transform="scale(0.015625)"/>
      <path id="DejaVuSans-36" d="M 2113 2584 
Q 1688 2584 1439 2293 
Q 1191 2003 1191 1497 
Q 1191 994 1439 701 
Q 1688 409 2113 409 
Q 2538 409 2786 701 
Q 3034 994 3034 1497 
Q 3034 2003 2786 2293 
Q 2538 2584 2113 2584 
z
M 3366 4563 
L 3366 3988 
Q 3128 4100 2886 4159 
Q 2644 4219 2406 4219 
Q 1781 4219 1451 3797 
Q 1122 3375 1075 2522 
Q 1259 2794 1537 2939 
Q 1816 3084 2150 3084 
Q 2853 3084 3261 2657 
Q 3669 2231 3669 1497 
Q 3669 778 3244 343 
Q 2819 -91 2113 -91 
Q 1303 -91 875 529 
Q 447 1150 447 2328 
Q 447 3434 972 4092 
Q 1497 4750 2381 4750 
Q 2619 4750 2861 4703 
Q 3103 4656 3366 4563 
z
" transform="scale(0.015625)"/>
      <path id="DejaVuSans-35" d="M 691 4666 
L 3169 4666 
L 3169 4134 
L 1269 4134 
L 1269 2991 
Q 1406 3038 1543 3061 
Q 1681 3084 1819 3084 
Q 2600 3084 3056 2656 
Q 3513 2228 3513 1497 
Q 3513 744 3044 326 
Q 2575 -91 1722 -91 
Q 1428 -91 1123 -41 
Q 819 9 494 109 
L 494 744 
Q 775 591 1075 516 
Q 1375 441 1709 441 
Q 2250 441 2565 725 
Q 2881 1009 2881 1497 
Q 2881 1984 2565 2268 
Q 2250 2553 1709 2553 
Q 1456 2553 1204 2497 
Q 953 2441 691 2322 
L 691 4666 
z
" transform="scale(0.015625)"/>
     </defs>
     <use xlink:href="#DejaVuSans-30"/>
     <use xlink:href="#DejaVuSans-2e" x="63.623047"/>
     <use xlink:href="#DejaVuSans-38" x="95.410156"/>
     <use xlink:href="#DejaVuSans-7e" x="159.033203"/>
     <use xlink:href="#DejaVuSans-33" x="242.822266"/>
     <use xlink:href="#DejaVuSans-36" x="306.445312"/>
     <use xlink:href="#DejaVuSans-35" x="370.068359"/>
    </g>
   </g>
  </g>
  <g id="axes_3">
   <g id="patch_8">
    <path d="M 808.240504 201.042 
L 1100.609573 201.042 
L 1100.609573 81.456 
L 808.240504 81.456 
z
" style="fill: #eaeaf2"/>
   </g>
   <g id="matplotlib.axis_5">
    <g id="xtick_9">
     <g id="line2d_25">
      <path d="M 821.530007 201.042 
L 821.530007 81.456 
" clip-path="url(#p54b0320ad4)" style="fill: none; stroke: #ffffff; stroke-linecap: round"/>
     </g>
    </g>
    <g id="xtick_10">
     <g id="line2d_26">
      <path d="M 912.678863 201.042 
L 912.678863 81.456 
" clip-path="url(#p54b0320ad4)" style="fill: none; stroke: #ffffff; stroke-linecap: round"/>
     </g>
    </g>
    <g id="xtick_11">
     <g id="line2d_27">
      <path d="M 1003.827719 201.042 
L 1003.827719 81.456 
" clip-path="url(#p54b0320ad4)" style="fill: none; stroke: #ffffff; stroke-linecap: round"/>
     </g>
    </g>
    <g id="xtick_12">
     <g id="line2d_28">
      <path d="M 1094.976574 201.042 
L 1094.976574 81.456 
" clip-path="url(#p54b0320ad4)" style="fill: none; stroke: #ffffff; stroke-linecap: round"/>
     </g>
    </g>
   </g>
   <g id="matplotlib.axis_6">
    <g id="ytick_5">
     <g id="line2d_29">
      <path d="M 808.240504 158.877441 
L 1100.609573 158.877441 
" clip-path="url(#p54b0320ad4)" style="fill: none; stroke: #ffffff; stroke-linecap: round"/>
     </g>
    </g>
    <g id="ytick_6">
     <g id="line2d_30">
      <path d="M 808.240504 91.549536 
L 1100.609573 91.549536 
" clip-path="url(#p54b0320ad4)" style="fill: none; stroke: #ffffff; stroke-linecap: round"/>
     </g>
    </g>
   </g>
   <g id="PolyCollection_13"/>
   <g id="PolyCollection_14"/>
   <g id="PolyCollection_15"/>
   <g id="PolyCollection_16"/>
   <g id="PolyCollection_17"/>
   <g id="PolyCollection_18"/>
   <g id="line2d_31">
    <path d="M 821.530007 91.549536 
L 821.894603 183.779572 
L 822.259198 186.95678 
L 822.623794 187.715928 
L 822.988389 187.809877 
L 823.71758 187.572673 
L 826.998939 186.105705 
L 827.728129 182.152921 
L 829.915702 169.651075 
L 831.738679 160.407237 
L 833.561656 152.141685 
L 835.384633 144.748979 
L 837.20761 138.134887 
L 839.030588 132.216649 
L 840.853565 126.942988 
L 843.041137 121.3513 
L 845.22871 116.457141 
L 847.051687 112.898699 
L 849.239259 109.19251 
L 851.426832 105.960208 
L 853.614404 103.171746 
L 855.801977 100.729591 
L 857.98955 98.590476 
L 860.541717 96.428282 
L 863.093885 94.573328 
L 864.916863 93.488731 
L 866.375244 92.820215 
L 869.292008 91.773843 
L 872.937962 90.726725 
L 876.948512 89.826636 
L 880.959061 89.138615 
L 886.427992 88.491888 
L 889.709351 88.267487 
L 894.813687 88.46749 
L 906.480741 89.049264 
L 917.783199 89.341011 
L 968.826558 90.159925 
L 1007.109077 90.224467 
L 1087.32007 90.225531 
L 1087.32007 90.225531 
" clip-path="url(#p54b0320ad4)" style="fill: none; stroke: #4c72b0; stroke-opacity: 0.9; stroke-width: 3; stroke-linecap: round"/>
   </g>
   <g id="line2d_32">
    <path d="M 821.530007 91.549536 
L 821.894603 181.128269 
L 822.259198 184.871261 
L 822.623794 186.098701 
L 822.988389 186.462436 
L 823.352984 186.509315 
L 824.446771 186.19415 
L 826.998939 185.220368 
L 827.728129 181.641313 
L 830.280297 167.565748 
L 832.103275 158.685749 
L 833.926252 150.744227 
L 835.749229 143.645444 
L 837.572206 137.294888 
L 839.395183 131.611623 
L 841.582756 125.573948 
L 843.770328 120.288923 
L 845.957901 115.665616 
L 848.145473 111.644548 
L 850.333046 108.13117 
L 852.156023 105.614145 
L 854.343595 102.987223 
L 856.531168 100.727572 
L 859.083336 98.453488 
L 861.635504 96.503648 
L 864.187672 94.828223 
L 866.010649 93.852097 
L 867.833626 93.06341 
L 870.750389 92.109981 
L 874.396344 91.136112 
L 878.771489 90.228352 
L 883.511229 89.488 
L 888.98016 88.855983 
L 892.261519 88.646323 
L 901.376405 88.717029 
L 906.845336 88.883861 
L 931.637825 89.544583 
L 956.430314 89.710243 
L 1017.682345 90.010032 
L 1087.32007 90.014678 
L 1087.32007 90.014678 
" clip-path="url(#p54b0320ad4)" style="fill: none; stroke: #dd8452; stroke-opacity: 0.9; stroke-width: 3; stroke-linecap: round"/>
   </g>
   <g id="line2d_33">
    <path d="M 821.530007 91.549536 
L 821.894603 188.527128 
L 822.259198 193.716463 
L 822.623794 194.932514 
L 822.988389 195.15679 
L 823.71758 194.955357 
L 826.998939 193.347965 
L 827.728129 189.049049 
L 829.915702 175.544462 
L 831.738679 165.549161 
L 833.561656 156.611849 
L 835.384633 148.629361 
L 837.20761 141.491291 
L 839.030588 135.104679 
L 840.853565 129.388866 
L 842.676542 124.281197 
L 844.499519 119.719633 
L 846.687091 114.888796 
L 848.874664 110.679373 
L 851.062237 107.009812 
L 853.249809 103.82361 
L 855.437382 101.102533 
L 857.624954 98.77855 
L 859.812527 96.757846 
L 862.364695 94.720024 
L 863.823076 93.750308 
L 866.375244 92.411427 
L 868.927412 91.284706 
L 872.208771 90.139973 
L 875.49013 89.249444 
L 879.136084 88.524691 
L 881.688252 88.190625 
L 883.875825 88.089068 
L 889.709351 88.197853 
L 899.188832 88.555502 
L 932.00242 89.986452 
L 944.76326 90.216666 
L 965.180604 90.378242 
L 1004.921505 90.444842 
L 1087.32007 90.44335 
L 1087.32007 90.44335 
" clip-path="url(#p54b0320ad4)" style="fill: none; stroke: #55a868; stroke-opacity: 0.9; stroke-width: 3; stroke-linecap: round"/>
   </g>
   <g id="line2d_34">
    <path d="M 821.530007 91.549536 
L 821.894603 185.322103 
L 822.259198 190.455697 
L 822.623794 191.639262 
L 822.988389 191.851557 
L 823.71758 191.656101 
L 826.998939 190.118514 
L 827.728129 185.994925 
L 829.915702 172.932172 
L 831.738679 163.259206 
L 833.561656 154.608585 
L 835.384633 146.872712 
L 837.20761 139.952115 
L 839.030588 133.75949 
L 840.853565 128.219909 
L 843.041137 122.339374 
L 844.864114 118.009396 
L 847.051687 113.433401 
L 849.239259 109.457404 
L 851.426832 105.996905 
L 853.614404 103.002829 
L 855.801977 100.43602 
L 857.98955 98.246069 
L 860.177122 96.345079 
L 862.72929 94.435452 
L 864.187672 93.553052 
L 867.104435 92.159627 
L 870.021198 91.007133 
L 872.937962 90.072069 
L 875.854725 89.364991 
L 879.500679 88.69165 
L 881.688252 88.469914 
L 884.605015 88.428478 
L 894.084496 88.609888 
L 913.043458 89.212235 
L 930.908634 89.941475 
L 946.221642 90.202277 
L 972.107917 90.361372 
L 1031.901566 90.397309 
L 1087.32007 90.390892 
L 1087.32007 90.390892 
" clip-path="url(#p54b0320ad4)" style="fill: none; stroke: #c44e52; stroke-opacity: 0.9; stroke-width: 3; stroke-linecap: round"/>
   </g>
   <g id="line2d_35">
    <path d="M 821.530007 91.549536 
L 821.894603 187.162355 
L 822.259198 191.274978 
L 822.623794 191.86398 
L 822.988389 191.856988 
L 824.446771 191.228326 
L 826.998939 190.055063 
L 831.738679 163.065658 
L 833.561656 154.496062 
L 835.384633 146.832569 
L 837.20761 139.978375 
L 839.030588 133.846593 
L 840.853565 128.36166 
L 843.041137 122.537567 
L 845.22871 117.440714 
L 847.416282 112.980044 
L 849.603855 109.077295 
L 851.791427 105.668732 
L 853.979 102.680125 
L 856.166572 100.116977 
L 858.354145 97.875704 
L 860.906313 95.603703 
L 863.093885 93.950127 
L 865.281458 92.608937 
L 867.469031 91.546685 
L 870.385794 90.367464 
L 873.302557 89.415712 
L 875.49013 88.869971 
L 879.865275 88.059932 
L 884.24042 87.553593 
L 890.438542 87.101446 
L 896.636664 86.934003 
L 903.199382 86.920201 
L 924.710512 88.589433 
L 948.044619 89.479501 
L 979.399825 90.0481 
L 1012.213413 90.145244 
L 1087.32007 90.156974 
L 1087.32007 90.156974 
" clip-path="url(#p54b0320ad4)" style="fill: none; stroke: #8172b3; stroke-opacity: 0.9; stroke-width: 3; stroke-linecap: round"/>
   </g>
   <g id="line2d_36">
    <path d="M 821.530007 91.549536 
L 821.894603 184.974022 
L 822.259198 188.382221 
L 822.623794 188.92915 
L 822.988389 188.922711 
L 824.446771 188.338066 
L 826.998939 187.248651 
L 831.738679 161.128816 
L 833.561656 152.836857 
L 835.384633 145.424427 
L 837.20761 138.79638 
L 839.030588 132.870881 
L 840.853565 127.571328 
L 843.041137 121.943694 
L 845.22871 117.021079 
L 847.416282 112.726083 
L 849.603855 108.96628 
L 851.791427 105.672889 
L 853.979 102.798452 
L 856.166572 100.316716 
L 858.354145 98.145845 
L 860.906313 95.954551 
L 863.093885 94.355071 
L 865.281458 92.996725 
L 867.833626 91.775484 
L 870.385794 90.813829 
L 872.573366 90.180828 
L 876.583916 89.283324 
L 880.959061 88.581521 
L 885.698802 88.043659 
L 891.532328 87.661425 
L 899.188832 87.475986 
L 903.563977 87.533416 
L 920.335367 88.519549 
L 934.554588 88.978865 
L 946.221642 89.364248 
L 951.325978 89.527417 
L 983.410375 89.961361 
L 1023.515871 90.046728 
L 1087.32007 90.055807 
L 1087.32007 90.055807 
" clip-path="url(#p54b0320ad4)" style="fill: none; stroke: #937860; stroke-opacity: 0.9; stroke-width: 3; stroke-linecap: round"/>
   </g>
   <g id="patch_9">
    <path d="M 808.240504 201.042 
L 808.240504 81.456 
" style="fill: none; stroke: #ffffff; stroke-width: 1.25; stroke-linejoin: miter; stroke-linecap: square"/>
   </g>
   <g id="patch_10">
    <path d="M 808.240504 201.042 
L 1100.609573 201.042 
" style="fill: none; stroke: #ffffff; stroke-width: 1.25; stroke-linejoin: miter; stroke-linecap: square"/>
   </g>
   <g id="text_6">
    <!-- 0.85~90 -->
    <g style="fill: #262626" transform="translate(899.778445 75.456) scale(0.252 -0.252)">
     <use xlink:href="#DejaVuSans-30"/>
     <use xlink:href="#DejaVuSans-2e" x="63.623047"/>
     <use xlink:href="#DejaVuSans-38" x="95.410156"/>
     <use xlink:href="#DejaVuSans-35" x="159.033203"/>
     <use xlink:href="#DejaVuSans-7e" x="222.65625"/>
     <use xlink:href="#DejaVuSans-39" x="306.445312"/>
     <use xlink:href="#DejaVuSans-30" x="370.068359"/>
    </g>
   </g>
  </g>
  <g id="axes_4">
   <g id="patch_11">
    <path d="M 170.340091 373.284 
L 462.70916 373.284 
L 462.70916 253.698 
L 170.340091 253.698 
z
" style="fill: #eaeaf2"/>
   </g>
   <g id="matplotlib.axis_7">
    <g id="xtick_13">
     <g id="line2d_37">
      <path d="M 183.629594 373.284 
L 183.629594 253.698 
" clip-path="url(#pd2e5c38833)" style="fill: none; stroke: #ffffff; stroke-linecap: round"/>
     </g>
     <g id="text_7">
      <!-- 0 -->
      <g style="fill: #262626" transform="translate(176.280907 400.336391) scale(0.231 -0.231)">
       <use xlink:href="#DejaVuSans-30"/>
      </g>
     </g>
    </g>
    <g id="xtick_14">
     <g id="line2d_38">
      <path d="M 274.77845 373.284 
L 274.77845 253.698 
" clip-path="url(#pd2e5c38833)" style="fill: none; stroke: #ffffff; stroke-linecap: round"/>
     </g>
     <g id="text_8">
      <!-- 250 -->
      <g style="fill: #262626" transform="translate(252.732387 400.336391) scale(0.231 -0.231)">
       <use xlink:href="#DejaVuSans-32"/>
       <use xlink:href="#DejaVuSans-35" x="63.623047"/>
       <use xlink:href="#DejaVuSans-30" x="127.246094"/>
      </g>
     </g>
    </g>
    <g id="xtick_15">
     <g id="line2d_39">
      <path d="M 365.927305 373.284 
L 365.927305 253.698 
" clip-path="url(#pd2e5c38833)" style="fill: none; stroke: #ffffff; stroke-linecap: round"/>
     </g>
     <g id="text_9">
      <!-- 500 -->
      <g style="fill: #262626" transform="translate(343.881243 400.336391) scale(0.231 -0.231)">
       <use xlink:href="#DejaVuSans-35"/>
       <use xlink:href="#DejaVuSans-30" x="63.623047"/>
       <use xlink:href="#DejaVuSans-30" x="127.246094"/>
      </g>
     </g>
    </g>
    <g id="xtick_16">
     <g id="line2d_40">
      <path d="M 457.076161 373.284 
L 457.076161 253.698 
" clip-path="url(#pd2e5c38833)" style="fill: none; stroke: #ffffff; stroke-linecap: round"/>
     </g>
     <g id="text_10">
      <!-- 750 -->
      <g style="fill: #262626" transform="translate(435.030099 400.336391) scale(0.231 -0.231)">
       <defs>
        <path id="DejaVuSans-37" d="M 525 4666 
L 3525 4666 
L 3525 4397 
L 1831 0 
L 1172 0 
L 2766 4134 
L 525 4134 
L 525 4666 
z
" transform="scale(0.015625)"/>
       </defs>
       <use xlink:href="#DejaVuSans-37"/>
       <use xlink:href="#DejaVuSans-35" x="63.623047"/>
       <use xlink:href="#DejaVuSans-30" x="127.246094"/>
      </g>
     </g>
    </g>
    <g id="text_11">
     <!-- step -->
     <g style="fill: #262626" transform="translate(289.269251 428.288531) scale(0.252 -0.252)">
      <defs>
       <path id="DejaVuSans-73" d="M 2834 3397 
L 2834 2853 
Q 2591 2978 2328 3040 
Q 2066 3103 1784 3103 
Q 1356 3103 1142 2972 
Q 928 2841 928 2578 
Q 928 2378 1081 2264 
Q 1234 2150 1697 2047 
L 1894 2003 
Q 2506 1872 2764 1633 
Q 3022 1394 3022 966 
Q 3022 478 2636 193 
Q 2250 -91 1575 -91 
Q 1294 -91 989 -36 
Q 684 19 347 128 
L 347 722 
Q 666 556 975 473 
Q 1284 391 1588 391 
Q 1994 391 2212 530 
Q 2431 669 2431 922 
Q 2431 1156 2273 1281 
Q 2116 1406 1581 1522 
L 1381 1569 
Q 847 1681 609 1914 
Q 372 2147 372 2553 
Q 372 3047 722 3315 
Q 1072 3584 1716 3584 
Q 2034 3584 2315 3537 
Q 2597 3491 2834 3397 
z
" transform="scale(0.015625)"/>
       <path id="DejaVuSans-74" d="M 1172 4494 
L 1172 3500 
L 2356 3500 
L 2356 3053 
L 1172 3053 
L 1172 1153 
Q 1172 725 1289 603 
Q 1406 481 1766 481 
L 2356 481 
L 2356 0 
L 1766 0 
Q 1100 0 847 248 
Q 594 497 594 1153 
L 594 3053 
L 172 3053 
L 172 3500 
L 594 3500 
L 594 4494 
L 1172 4494 
z
" transform="scale(0.015625)"/>
       <path id="DejaVuSans-70" d="M 1159 525 
L 1159 -1331 
L 581 -1331 
L 581 3500 
L 1159 3500 
L 1159 2969 
Q 1341 3281 1617 3432 
Q 1894 3584 2278 3584 
Q 2916 3584 3314 3078 
Q 3713 2572 3713 1747 
Q 3713 922 3314 415 
Q 2916 -91 2278 -91 
Q 1894 -91 1617 61 
Q 1341 213 1159 525 
z
M 3116 1747 
Q 3116 2381 2855 2742 
Q 2594 3103 2138 3103 
Q 1681 3103 1420 2742 
Q 1159 2381 1159 1747 
Q 1159 1113 1420 752 
Q 1681 391 2138 391 
Q 2594 391 2855 752 
Q 3116 1113 3116 1747 
z
" transform="scale(0.015625)"/>
      </defs>
      <use xlink:href="#DejaVuSans-73"/>
      <use xlink:href="#DejaVuSans-74" x="52.099609"/>
      <use xlink:href="#DejaVuSans-65" x="91.308594"/>
      <use xlink:href="#DejaVuSans-70" x="152.832031"/>
     </g>
    </g>
   </g>
   <g id="matplotlib.axis_8">
    <g id="ytick_7">
     <g id="line2d_41">
      <path d="M 170.340091 331.119441 
L 462.70916 331.119441 
" clip-path="url(#pd2e5c38833)" style="fill: none; stroke: #ffffff; stroke-linecap: round"/>
     </g>
     <g id="text_12">
      <!-- −0.2 -->
      <g style="fill: #262626" transform="translate(104.746794 339.895636) scale(0.231 -0.231)">
       <use xlink:href="#DejaVuSans-2212"/>
       <use xlink:href="#DejaVuSans-30" x="83.789062"/>
       <use xlink:href="#DejaVuSans-2e" x="147.412109"/>
       <use xlink:href="#DejaVuSans-32" x="179.199219"/>
      </g>
     </g>
    </g>
    <g id="ytick_8">
     <g id="line2d_42">
      <path d="M 170.340091 263.791536 
L 462.70916 263.791536 
" clip-path="url(#pd2e5c38833)" style="fill: none; stroke: #ffffff; stroke-linecap: round"/>
     </g>
     <g id="text_13">
      <!-- 0.0 -->
      <g style="fill: #262626" transform="translate(124.103872 272.567731) scale(0.231 -0.231)">
       <use xlink:href="#DejaVuSans-30"/>
       <use xlink:href="#DejaVuSans-2e" x="63.623047"/>
       <use xlink:href="#DejaVuSans-30" x="95.410156"/>
      </g>
     </g>
    </g>
    <g id="text_14">
     <!-- % change -->
     <g style="fill: #262626" transform="translate(95.505982 375.839344) rotate(-90) scale(0.252 -0.252)">
      <use xlink:href="#DejaVuSans-25"/>
      <use xlink:href="#DejaVuSans-20" x="95.019531"/>
      <use xlink:href="#DejaVuSans-63" x="126.806641"/>
      <use xlink:href="#DejaVuSans-68" x="181.787109"/>
      <use xlink:href="#DejaVuSans-61" x="245.166016"/>
      <use xlink:href="#DejaVuSans-6e" x="306.445312"/>
      <use xlink:href="#DejaVuSans-67" x="369.824219"/>
      <use xlink:href="#DejaVuSans-65" x="433.300781"/>
     </g>
    </g>
   </g>
   <g id="PolyCollection_19"/>
   <g id="PolyCollection_20"/>
   <g id="PolyCollection_21"/>
   <g id="PolyCollection_22"/>
   <g id="PolyCollection_23"/>
   <g id="PolyCollection_24"/>
   <g id="line2d_43">
    <path d="M 183.629594 263.791536 
L 183.99419 356.021572 
L 184.358785 359.301207 
L 184.723381 360.17915 
L 185.087976 360.396108 
L 185.817167 360.406772 
L 189.098526 360.044179 
L 189.827716 356.344661 
L 192.015289 344.497199 
L 193.838266 335.727141 
L 195.661243 327.880843 
L 197.48422 320.860344 
L 199.307197 314.578046 
L 201.130175 308.957488 
L 203.317747 302.986947 
L 205.50532 297.760445 
L 207.692892 293.184967 
L 209.880465 289.178914 
L 212.068037 285.671252 
L 214.25561 282.599688 
L 216.443182 279.91303 
L 218.630755 277.563977 
L 220.818327 275.509373 
L 223.370495 273.431567 
L 225.922663 271.650429 
L 228.474831 270.166355 
L 231.391595 268.74121 
L 234.672953 267.424509 
L 237.954312 266.343844 
L 241.600266 265.368333 
L 245.975411 264.445997 
L 250.715152 263.762668 
L 254.361106 263.429017 
L 262.01761 263.002154 
L 271.861686 262.686425 
L 284.257931 262.52221 
L 297.383366 262.514969 
L 314.154755 263.030076 
L 329.103168 263.206465 
L 368.114878 263.374652 
L 449.419657 263.436053 
L 449.419657 263.436053 
" clip-path="url(#pd2e5c38833)" style="fill: none; stroke: #4c72b0; stroke-opacity: 0.9; stroke-width: 3; stroke-linecap: round"/>
   </g>
   <g id="line2d_44">
    <path d="M 183.629594 263.791536 
L 183.99419 353.370269 
L 184.358785 357.197278 
L 184.723381 358.523181 
L 185.087976 358.990342 
L 185.817167 359.17743 
L 187.640144 359.042939 
L 189.098526 358.900828 
L 189.827716 355.530425 
L 192.74448 340.334487 
L 194.567457 332.036444 
L 196.390434 324.614857 
L 198.213411 317.975406 
L 200.036388 312.033844 
L 202.223961 305.722098 
L 204.411533 300.197362 
L 206.599106 295.361287 
L 208.786678 291.128189 
L 210.974251 287.422566 
L 213.161823 284.179291 
L 215.349396 281.339117 
L 217.536969 278.85145 
L 219.724541 276.672275 
L 222.276709 274.468806 
L 224.828877 272.586188 
L 227.381045 270.97564 
L 230.297808 269.418418 
L 232.849976 268.29232 
L 236.131335 267.124736 
L 239.777289 266.071599 
L 243.787839 265.150231 
L 248.162984 264.380459 
L 253.26732 263.764657 
L 257.642465 263.434562 
L 266.392755 263.040695 
L 277.330618 262.776597 
L 294.466603 262.603922 
L 305.03987 262.690618 
L 319.259091 263.008983 
L 344.05158 263.274851 
L 403.845229 263.35998 
L 449.419657 263.385084 
L 449.419657 263.385084 
" clip-path="url(#pd2e5c38833)" style="fill: none; stroke: #dd8452; stroke-opacity: 0.9; stroke-width: 3; stroke-linecap: round"/>
   </g>
   <g id="line2d_45">
    <path d="M 183.629594 263.791536 
L 183.99419 360.769128 
L 184.358785 366.068787 
L 184.723381 367.413696 
L 185.087976 367.771665 
L 185.817167 367.839864 
L 189.098526 367.43527 
L 189.827716 363.402847 
L 192.015289 350.632953 
L 193.838266 341.174266 
L 195.661243 332.713045 
L 197.48422 325.143029 
L 199.307197 318.370413 
L 201.130175 312.315716 
L 203.317747 305.884606 
L 205.50532 300.254115 
L 207.692892 295.324742 
L 209.880465 291.00939 
L 212.068037 287.229963 
L 214.25561 283.921143 
L 216.443182 281.023437 
L 218.630755 278.485972 
L 220.818327 276.266418 
L 223.0059 274.327405 
L 225.558068 272.372487 
L 228.110236 270.704557 
L 230.662404 269.278346 
L 233.579167 267.905595 
L 236.49593 266.781539 
L 239.777289 265.760009 
L 243.787839 264.762625 
L 247.069198 264.156059 
L 252.173534 263.496389 
L 258.00706 262.96681 
L 265.298969 262.566798 
L 274.049259 262.323401 
L 280.976572 262.309025 
L 289.726862 262.506779 
L 314.883946 263.107082 
L 344.780771 263.424611 
L 387.438435 263.510195 
L 449.419657 263.51881 
L 449.419657 263.51881 
" clip-path="url(#pd2e5c38833)" style="fill: none; stroke: #55a868; stroke-opacity: 0.9; stroke-width: 3; stroke-linecap: round"/>
   </g>
   <g id="line2d_46">
    <path d="M 183.629594 263.791536 
L 183.99419 357.564103 
L 184.358785 362.803373 
L 184.723381 364.11092 
L 185.087976 364.451798 
L 185.817167 364.515988 
L 189.098526 364.13711 
L 189.827716 360.271778 
L 192.015289 347.918936 
L 193.838266 338.765512 
L 195.661243 330.575467 
L 197.48422 323.24752 
L 199.307197 316.689921 
L 201.130175 310.821307 
L 203.317747 304.58736 
L 205.50532 299.13026 
L 207.692892 294.352384 
L 209.880465 290.169733 
L 212.068037 286.507385 
L 214.25561 283.300144 
L 216.443182 280.491348 
L 218.630755 278.032923 
L 220.818327 275.880885 
L 223.370495 273.709047 
L 225.922663 271.856683 
L 228.474831 270.280965 
L 231.391595 268.761211 
L 234.308358 267.50173 
L 237.589717 266.350663 
L 241.235671 265.342266 
L 245.246221 264.46774 
L 248.527579 263.981001 
L 254.361106 263.343293 
L 260.923824 262.859661 
L 267.851137 262.559301 
L 276.966022 262.387916 
L 287.903885 262.5639 
L 313.79016 263.08086 
L 357.177015 263.455026 
L 418.793642 263.50598 
L 449.419657 263.506325 
L 449.419657 263.506325 
" clip-path="url(#pd2e5c38833)" style="fill: none; stroke: #c44e52; stroke-opacity: 0.9; stroke-width: 3; stroke-linecap: round"/>
   </g>
   <g id="line2d_47">
    <path d="M 183.629594 263.791536 
L 183.99419 359.404355 
L 184.358785 363.634825 
L 184.723381 364.350036 
L 185.087976 364.470495 
L 186.546358 364.350361 
L 189.098526 364.056566 
L 190.921503 353.534404 
L 192.74448 343.809058 
L 194.567457 335.108579 
L 196.390434 327.324551 
L 198.213411 320.360006 
L 200.036388 314.128281 
L 201.859365 308.551729 
L 204.046938 302.627815 
L 206.23451 297.442321 
L 208.422083 292.902716 
L 210.609655 288.927842 
L 212.797228 285.446753 
L 214.984801 282.397394 
L 217.172373 279.725694 
L 219.359946 277.384778 
L 221.547518 275.33328 
L 224.099686 273.25759 
L 226.651854 271.477007 
L 229.204022 269.95092 
L 232.120785 268.473793 
L 235.037549 267.234422 
L 238.318908 266.102677 
L 241.964862 265.078966 
L 245.975411 264.190188 
L 250.350557 263.50257 
L 255.819488 262.957374 
L 262.746801 262.493293 
L 270.403305 262.197385 
L 281.705763 262.107973 
L 307.227442 262.253421 
L 325.821809 262.46588 
L 336.759672 262.806762 
L 352.072679 263.029218 
L 392.542771 263.280798 
L 449.419657 263.371294 
L 449.419657 263.371294 
" clip-path="url(#pd2e5c38833)" style="fill: none; stroke: #8172b3; stroke-opacity: 0.9; stroke-width: 3; stroke-linecap: round"/>
   </g>
   <g id="line2d_48">
    <path d="M 183.629594 263.791536 
L 183.99419 357.216022 
L 184.358785 360.734083 
L 184.723381 361.398339 
L 185.087976 361.51042 
L 186.546358 361.398439 
L 189.098526 361.124854 
L 194.202861 334.664977 
L 196.025839 326.946321 
L 197.848816 320.040732 
L 199.671793 313.862362 
L 201.49477 308.334246 
L 203.682342 302.46256 
L 205.869915 297.323507 
L 208.057488 292.825286 
L 210.24506 288.888491 
L 212.432633 285.442034 
L 214.620205 282.423992 
L 216.807778 279.780703 
L 218.99535 277.465217 
L 221.182923 275.436344 
L 223.735091 273.383929 
L 226.287259 271.627972 
L 228.839427 270.123277 
L 231.75619 268.663416 
L 234.672953 267.438897 
L 237.954312 266.314625 
L 241.600266 265.301514 
L 245.610816 264.425694 
L 249.985961 263.709356 
L 255.454892 263.131435 
L 261.288419 262.759441 
L 268.580328 262.513073 
L 279.882786 262.358541 
L 294.831198 262.3941 
L 321.446664 262.638973 
L 335.665885 262.915114 
L 360.82297 263.132399 
L 426.08555 263.32454 
L 449.419657 263.344037 
L 449.419657 263.344037 
" clip-path="url(#pd2e5c38833)" style="fill: none; stroke: #937860; stroke-opacity: 0.9; stroke-width: 3; stroke-linecap: round"/>
   </g>
   <g id="patch_12">
    <path d="M 170.340091 373.284 
L 170.340091 253.698 
" style="fill: none; stroke: #ffffff; stroke-width: 1.25; stroke-linejoin: miter; stroke-linecap: square"/>
   </g>
   <g id="patch_13">
    <path d="M 170.340091 373.284 
L 462.70916 373.284 
" style="fill: none; stroke: #ffffff; stroke-width: 1.25; stroke-linejoin: miter; stroke-linecap: square"/>
   </g>
   <g id="text_15">
    <!-- 0.85~365 -->
    <g style="fill: #262626" transform="translate(253.861282 247.698) scale(0.252 -0.252)">
     <use xlink:href="#DejaVuSans-30"/>
     <use xlink:href="#DejaVuSans-2e" x="63.623047"/>
     <use xlink:href="#DejaVuSans-38" x="95.410156"/>
     <use xlink:href="#DejaVuSans-35" x="159.033203"/>
     <use xlink:href="#DejaVuSans-7e" x="222.65625"/>
     <use xlink:href="#DejaVuSans-33" x="306.445312"/>
     <use xlink:href="#DejaVuSans-36" x="370.068359"/>
     <use xlink:href="#DejaVuSans-35" x="433.691406"/>
    </g>
   </g>
  </g>
  <g id="axes_5">
   <g id="patch_14">
    <path d="M 489.290298 373.284 
L 781.659367 373.284 
L 781.659367 253.698 
L 489.290298 253.698 
z
" style="fill: #eaeaf2"/>
   </g>
   <g id="matplotlib.axis_9">
    <g id="xtick_17">
     <g id="line2d_49">
      <path d="M 502.579801 373.284 
L 502.579801 253.698 
" clip-path="url(#p49575a1571)" style="fill: none; stroke: #ffffff; stroke-linecap: round"/>
     </g>
     <g id="text_16">
      <!-- 0 -->
      <g style="fill: #262626" transform="translate(495.231113 400.336391) scale(0.231 -0.231)">
       <use xlink:href="#DejaVuSans-30"/>
      </g>
     </g>
    </g>
    <g id="xtick_18">
     <g id="line2d_50">
      <path d="M 593.728656 373.284 
L 593.728656 253.698 
" clip-path="url(#p49575a1571)" style="fill: none; stroke: #ffffff; stroke-linecap: round"/>
     </g>
     <g id="text_17">
      <!-- 250 -->
      <g style="fill: #262626" transform="translate(571.682594 400.336391) scale(0.231 -0.231)">
       <use xlink:href="#DejaVuSans-32"/>
       <use xlink:href="#DejaVuSans-35" x="63.623047"/>
       <use xlink:href="#DejaVuSans-30" x="127.246094"/>
      </g>
     </g>
    </g>
    <g id="xtick_19">
     <g id="line2d_51">
      <path d="M 684.877512 373.284 
L 684.877512 253.698 
" clip-path="url(#p49575a1571)" style="fill: none; stroke: #ffffff; stroke-linecap: round"/>
     </g>
     <g id="text_18">
      <!-- 500 -->
      <g style="fill: #262626" transform="translate(662.83145 400.336391) scale(0.231 -0.231)">
       <use xlink:href="#DejaVuSans-35"/>
       <use xlink:href="#DejaVuSans-30" x="63.623047"/>
       <use xlink:href="#DejaVuSans-30" x="127.246094"/>
      </g>
     </g>
    </g>
    <g id="xtick_20">
     <g id="line2d_52">
      <path d="M 776.026368 373.284 
L 776.026368 253.698 
" clip-path="url(#p49575a1571)" style="fill: none; stroke: #ffffff; stroke-linecap: round"/>
     </g>
     <g id="text_19">
      <!-- 750 -->
      <g style="fill: #262626" transform="translate(753.980305 400.336391) scale(0.231 -0.231)">
       <use xlink:href="#DejaVuSans-37"/>
       <use xlink:href="#DejaVuSans-35" x="63.623047"/>
       <use xlink:href="#DejaVuSans-30" x="127.246094"/>
      </g>
     </g>
    </g>
    <g id="text_20">
     <!-- step -->
     <g style="fill: #262626" transform="translate(608.219457 428.288531) scale(0.252 -0.252)">
      <use xlink:href="#DejaVuSans-73"/>
      <use xlink:href="#DejaVuSans-74" x="52.099609"/>
      <use xlink:href="#DejaVuSans-65" x="91.308594"/>
      <use xlink:href="#DejaVuSans-70" x="152.832031"/>
     </g>
    </g>
   </g>
   <g id="matplotlib.axis_10">
    <g id="ytick_9">
     <g id="line2d_53">
      <path d="M 489.290298 331.119441 
L 781.659367 331.119441 
" clip-path="url(#p49575a1571)" style="fill: none; stroke: #ffffff; stroke-linecap: round"/>
     </g>
    </g>
    <g id="ytick_10">
     <g id="line2d_54">
      <path d="M 489.290298 263.791536 
L 781.659367 263.791536 
" clip-path="url(#p49575a1571)" style="fill: none; stroke: #ffffff; stroke-linecap: round"/>
     </g>
    </g>
   </g>
   <g id="PolyCollection_25"/>
   <g id="PolyCollection_26"/>
   <g id="PolyCollection_27"/>
   <g id="PolyCollection_28"/>
   <g id="PolyCollection_29"/>
   <g id="PolyCollection_30"/>
   <g id="line2d_55">
    <path d="M 502.579801 263.791536 
L 502.944396 356.021572 
L 503.308992 359.19878 
L 503.673587 359.957928 
L 504.038182 360.051877 
L 504.767373 359.814673 
L 508.048732 358.347705 
L 508.777923 354.394921 
L 510.965495 341.893075 
L 512.788473 332.649237 
L 514.61145 324.383685 
L 516.434427 316.990979 
L 518.257404 310.376887 
L 520.080381 304.458649 
L 521.903358 299.184988 
L 524.090931 293.5933 
L 526.278503 288.699141 
L 528.10148 285.140699 
L 530.289053 281.43451 
L 532.476625 278.202208 
L 534.664198 275.413746 
L 536.85177 272.971591 
L 539.039343 270.832476 
L 541.591511 268.670282 
L 544.143679 266.815328 
L 545.966656 265.730731 
L 547.425038 265.062215 
L 550.341801 264.015843 
L 553.987755 262.968725 
L 557.998305 262.068636 
L 562.008855 261.380615 
L 567.477786 260.733888 
L 570.759145 260.509487 
L 575.863481 260.70949 
L 587.530534 261.291264 
L 598.832992 261.583011 
L 649.876351 262.401925 
L 688.158871 262.466467 
L 768.369864 262.467531 
L 768.369864 262.467531 
" clip-path="url(#p49575a1571)" style="fill: none; stroke: #4c72b0; stroke-opacity: 0.9; stroke-width: 3; stroke-linecap: round"/>
   </g>
   <g id="line2d_56">
    <path d="M 502.579801 263.791536 
L 502.944396 353.370269 
L 503.308992 357.113261 
L 503.673587 358.340701 
L 504.038182 358.704436 
L 504.402778 358.751315 
L 505.496564 358.43615 
L 508.048732 357.462368 
L 508.777923 353.883313 
L 511.330091 339.807748 
L 513.153068 330.927749 
L 514.976045 322.986227 
L 516.799022 315.887444 
L 518.621999 309.536888 
L 520.444976 303.853623 
L 522.632549 297.815948 
L 524.820122 292.530923 
L 527.007694 287.907616 
L 529.195267 283.886548 
L 531.382839 280.37317 
L 533.205816 277.856145 
L 535.393389 275.229223 
L 537.580961 272.969572 
L 540.133129 270.695488 
L 542.685297 268.745648 
L 545.237465 267.070223 
L 547.060442 266.094097 
L 548.883419 265.30541 
L 551.800183 264.351981 
L 555.446137 263.378112 
L 559.821282 262.470352 
L 564.561023 261.73 
L 570.029954 261.097983 
L 573.311313 260.888323 
L 582.426198 260.959029 
L 587.89513 261.125861 
L 612.687618 261.786583 
L 637.480107 261.952243 
L 698.732138 262.252032 
L 768.369864 262.256678 
L 768.369864 262.256678 
" clip-path="url(#p49575a1571)" style="fill: none; stroke: #dd8452; stroke-opacity: 0.9; stroke-width: 3; stroke-linecap: round"/>
   </g>
   <g id="line2d_57">
    <path d="M 502.579801 263.791536 
L 502.944396 360.769128 
L 503.308992 365.958463 
L 503.673587 367.174514 
L 504.038182 367.39879 
L 504.767373 367.197357 
L 508.048732 365.589965 
L 508.777923 361.291049 
L 510.965495 347.786462 
L 512.788473 337.791161 
L 514.61145 328.853849 
L 516.434427 320.871361 
L 518.257404 313.733291 
L 520.080381 307.346679 
L 521.903358 301.630866 
L 523.726335 296.523197 
L 525.549312 291.961633 
L 527.736885 287.130796 
L 529.924457 282.921373 
L 532.11203 279.251812 
L 534.299603 276.06561 
L 536.487175 273.344533 
L 538.674748 271.02055 
L 540.86232 268.999846 
L 543.414488 266.962024 
L 544.87287 265.992308 
L 547.425038 264.653427 
L 549.977206 263.526706 
L 553.258564 262.381973 
L 556.539923 261.491444 
L 560.185878 260.766691 
L 562.738045 260.432625 
L 564.925618 260.331068 
L 570.759145 260.439853 
L 580.238626 260.797502 
L 613.052214 262.228452 
L 625.813054 262.458666 
L 646.230397 262.620242 
L 685.971298 262.686842 
L 768.369864 262.68535 
L 768.369864 262.68535 
" clip-path="url(#p49575a1571)" style="fill: none; stroke: #55a868; stroke-opacity: 0.9; stroke-width: 3; stroke-linecap: round"/>
   </g>
   <g id="line2d_58">
    <path d="M 502.579801 263.791536 
L 502.944396 357.564103 
L 503.308992 362.697697 
L 503.673587 363.881262 
L 504.038182 364.093557 
L 504.767373 363.898101 
L 508.048732 362.360514 
L 508.777923 358.236925 
L 510.965495 345.174172 
L 512.788473 335.501206 
L 514.61145 326.850585 
L 516.434427 319.114712 
L 518.257404 312.194115 
L 520.080381 306.00149 
L 521.903358 300.461909 
L 524.090931 294.581374 
L 525.913908 290.251396 
L 528.10148 285.675401 
L 530.289053 281.699404 
L 532.476625 278.240786 
L 534.664198 275.259728 
L 536.85177 272.694332 
L 539.039343 270.496439 
L 541.226916 268.586722 
L 543.779084 266.67709 
L 545.237465 265.794682 
L 548.154229 264.401252 
L 551.070992 263.248749 
L 553.987755 262.313897 
L 556.904519 261.606915 
L 560.550473 260.933577 
L 562.738045 260.711841 
L 565.654809 260.670412 
L 575.13429 260.851885 
L 594.093252 261.454308 
L 611.958428 262.183547 
L 627.271435 262.44433 
L 653.15771 262.603395 
L 712.95136 262.639291 
L 768.369864 262.632838 
L 768.369864 262.632838 
" clip-path="url(#p49575a1571)" style="fill: none; stroke: #c44e52; stroke-opacity: 0.9; stroke-width: 3; stroke-linecap: round"/>
   </g>
   <g id="line2d_59">
    <path d="M 502.579801 263.791536 
L 502.944396 359.404355 
L 503.308992 363.516978 
L 503.673587 364.10598 
L 504.038182 364.098988 
L 505.496564 363.470326 
L 508.048732 362.297063 
L 512.788473 335.307658 
L 514.61145 326.738062 
L 516.434427 319.074569 
L 518.257404 312.220375 
L 520.080381 306.088593 
L 521.903358 300.60366 
L 524.090931 294.779567 
L 526.278503 289.682714 
L 528.466076 285.222044 
L 530.653648 281.319295 
L 532.841221 277.910732 
L 535.028793 274.922125 
L 537.216366 272.358977 
L 539.403938 270.117704 
L 541.956106 267.845703 
L 544.143679 266.192127 
L 546.331251 264.850937 
L 548.518824 263.788685 
L 551.435587 262.609464 
L 554.352351 261.657712 
L 556.539923 261.111971 
L 560.915068 260.301932 
L 565.290213 259.795593 
L 571.488336 259.343446 
L 577.686458 259.176003 
L 584.249175 259.162201 
L 605.760305 260.831433 
L 629.094412 261.721501 
L 660.449619 262.2901 
L 693.263207 262.387244 
L 768.369864 262.398974 
L 768.369864 262.398974 
" clip-path="url(#p49575a1571)" style="fill: none; stroke: #8172b3; stroke-opacity: 0.9; stroke-width: 3; stroke-linecap: round"/>
   </g>
   <g id="line2d_60">
    <path d="M 502.579801 263.791536 
L 502.944396 357.216022 
L 503.308992 360.624221 
L 503.673587 361.17115 
L 504.038182 361.164711 
L 505.496564 360.580066 
L 508.048732 359.490651 
L 512.788473 333.370816 
L 514.61145 325.078857 
L 516.434427 317.666427 
L 518.257404 311.03838 
L 520.080381 305.112881 
L 521.903358 299.813328 
L 524.090931 294.185694 
L 526.278503 289.263079 
L 528.466076 284.968083 
L 530.653648 281.20828 
L 532.841221 277.914889 
L 535.028793 275.040452 
L 537.216366 272.558716 
L 539.403938 270.387845 
L 541.956106 268.196551 
L 544.143679 266.597071 
L 546.331251 265.238725 
L 548.883419 264.017484 
L 551.435587 263.055829 
L 553.62316 262.422828 
L 557.63371 261.525324 
L 562.008855 260.823521 
L 566.748595 260.285659 
L 572.582122 259.903425 
L 580.238626 259.717986 
L 584.613771 259.775416 
L 601.38516 260.761549 
L 615.604382 261.220865 
L 627.271435 261.606248 
L 632.375771 261.769417 
L 664.460168 262.203361 
L 704.565665 262.288728 
L 768.369864 262.297807 
L 768.369864 262.297807 
" clip-path="url(#p49575a1571)" style="fill: none; stroke: #937860; stroke-opacity: 0.9; stroke-width: 3; stroke-linecap: round"/>
   </g>
   <g id="patch_15">
    <path d="M 489.290298 373.284 
L 489.290298 253.698 
" style="fill: none; stroke: #ffffff; stroke-width: 1.25; stroke-linejoin: miter; stroke-linecap: square"/>
   </g>
   <g id="patch_16">
    <path d="M 489.290298 373.284 
L 781.659367 373.284 
" style="fill: none; stroke: #ffffff; stroke-width: 1.25; stroke-linejoin: miter; stroke-linecap: square"/>
   </g>
   <g id="text_21">
    <!-- 0.95~90 -->
    <g style="fill: #262626" transform="translate(580.828239 247.698) scale(0.252 -0.252)">
     <use xlink:href="#DejaVuSans-30"/>
     <use xlink:href="#DejaVuSans-2e" x="63.623047"/>
     <use xlink:href="#DejaVuSans-39" x="95.410156"/>
     <use xlink:href="#DejaVuSans-35" x="159.033203"/>
     <use xlink:href="#DejaVuSans-7e" x="222.65625"/>
     <use xlink:href="#DejaVuSans-39" x="306.445312"/>
     <use xlink:href="#DejaVuSans-30" x="370.068359"/>
    </g>
   </g>
  </g>
  <g id="axes_6">
   <g id="patch_17">
    <path d="M 808.240504 373.284 
L 1100.609573 373.284 
L 1100.609573 253.698 
L 808.240504 253.698 
z
" style="fill: #eaeaf2"/>
   </g>
   <g id="matplotlib.axis_11">
    <g id="xtick_21">
     <g id="line2d_61">
      <path d="M 821.530007 373.284 
L 821.530007 253.698 
" clip-path="url(#p97f0315f15)" style="fill: none; stroke: #ffffff; stroke-linecap: round"/>
     </g>
     <g id="text_22">
      <!-- 0 -->
      <g style="fill: #262626" transform="translate(814.18132 400.336391) scale(0.231 -0.231)">
       <use xlink:href="#DejaVuSans-30"/>
      </g>
     </g>
    </g>
    <g id="xtick_22">
     <g id="line2d_62">
      <path d="M 912.678863 373.284 
L 912.678863 253.698 
" clip-path="url(#p97f0315f15)" style="fill: none; stroke: #ffffff; stroke-linecap: round"/>
     </g>
     <g id="text_23">
      <!-- 250 -->
      <g style="fill: #262626" transform="translate(890.6328 400.336391) scale(0.231 -0.231)">
       <use xlink:href="#DejaVuSans-32"/>
       <use xlink:href="#DejaVuSans-35" x="63.623047"/>
       <use xlink:href="#DejaVuSans-30" x="127.246094"/>
      </g>
     </g>
    </g>
    <g id="xtick_23">
     <g id="line2d_63">
      <path d="M 1003.827719 373.284 
L 1003.827719 253.698 
" clip-path="url(#p97f0315f15)" style="fill: none; stroke: #ffffff; stroke-linecap: round"/>
     </g>
     <g id="text_24">
      <!-- 500 -->
      <g style="fill: #262626" transform="translate(981.781656 400.336391) scale(0.231 -0.231)">
       <use xlink:href="#DejaVuSans-35"/>
       <use xlink:href="#DejaVuSans-30" x="63.623047"/>
       <use xlink:href="#DejaVuSans-30" x="127.246094"/>
      </g>
     </g>
    </g>
    <g id="xtick_24">
     <g id="line2d_64">
      <path d="M 1094.976574 373.284 
L 1094.976574 253.698 
" clip-path="url(#p97f0315f15)" style="fill: none; stroke: #ffffff; stroke-linecap: round"/>
     </g>
     <g id="text_25">
      <!-- 750 -->
      <g style="fill: #262626" transform="translate(1072.930512 400.336391) scale(0.231 -0.231)">
       <use xlink:href="#DejaVuSans-37"/>
       <use xlink:href="#DejaVuSans-35" x="63.623047"/>
       <use xlink:href="#DejaVuSans-30" x="127.246094"/>
      </g>
     </g>
    </g>
    <g id="text_26">
     <!-- step -->
     <g style="fill: #262626" transform="translate(927.169664 428.288531) scale(0.252 -0.252)">
      <use xlink:href="#DejaVuSans-73"/>
      <use xlink:href="#DejaVuSans-74" x="52.099609"/>
      <use xlink:href="#DejaVuSans-65" x="91.308594"/>
      <use xlink:href="#DejaVuSans-70" x="152.832031"/>
     </g>
    </g>
   </g>
   <g id="matplotlib.axis_12">
    <g id="ytick_11">
     <g id="line2d_65">
      <path d="M 808.240504 331.119441 
L 1100.609573 331.119441 
" clip-path="url(#p97f0315f15)" style="fill: none; stroke: #ffffff; stroke-linecap: round"/>
     </g>
    </g>
    <g id="ytick_12">
     <g id="line2d_66">
      <path d="M 808.240504 263.791536 
L 1100.609573 263.791536 
" clip-path="url(#p97f0315f15)" style="fill: none; stroke: #ffffff; stroke-linecap: round"/>
     </g>
    </g>
   </g>
   <g id="PolyCollection_31"/>
   <g id="PolyCollection_32"/>
   <g id="PolyCollection_33"/>
   <g id="PolyCollection_34"/>
   <g id="PolyCollection_35"/>
   <g id="PolyCollection_36"/>
   <g id="line2d_67">
    <path d="M 821.530007 263.791536 
L 821.894603 356.021572 
L 822.259198 359.301207 
L 822.623794 360.17915 
L 822.988389 360.396108 
L 823.71758 360.406772 
L 826.998939 360.044179 
L 827.728129 356.344661 
L 829.915702 344.497199 
L 831.738679 335.727141 
L 833.561656 327.880843 
L 835.384633 320.860344 
L 837.20761 314.578046 
L 839.030588 308.957488 
L 841.21816 302.986947 
L 843.405733 297.760445 
L 845.593305 293.184967 
L 847.780878 289.178914 
L 849.96845 285.671252 
L 852.156023 282.599688 
L 854.343595 279.91303 
L 856.531168 277.563977 
L 858.71874 275.509373 
L 861.270908 273.431567 
L 863.823076 271.650429 
L 866.375244 270.166355 
L 869.292008 268.74121 
L 872.573366 267.424509 
L 875.854725 266.343844 
L 879.500679 265.368333 
L 883.875825 264.445997 
L 888.615565 263.762668 
L 892.261519 263.429017 
L 899.918023 263.002154 
L 909.7621 262.686425 
L 922.158344 262.52221 
L 935.283779 262.514969 
L 952.055169 263.030076 
L 967.003581 263.206465 
L 1006.015291 263.374652 
L 1087.32007 263.436053 
L 1087.32007 263.436053 
" clip-path="url(#p97f0315f15)" style="fill: none; stroke: #4c72b0; stroke-opacity: 0.9; stroke-width: 3; stroke-linecap: round"/>
   </g>
   <g id="line2d_68">
    <path d="M 821.530007 263.791536 
L 821.894603 353.370269 
L 822.259198 357.197278 
L 822.623794 358.523181 
L 822.988389 358.990342 
L 823.71758 359.17743 
L 825.540557 359.042939 
L 826.998939 358.900828 
L 827.728129 355.530425 
L 830.644893 340.334487 
L 832.46787 332.036444 
L 834.290847 324.614857 
L 836.113824 317.975406 
L 837.936801 312.033844 
L 840.124374 305.722098 
L 842.311946 300.197362 
L 844.499519 295.361287 
L 846.687091 291.128189 
L 848.874664 287.422566 
L 851.062237 284.179291 
L 853.249809 281.339117 
L 855.437382 278.85145 
L 857.624954 276.672275 
L 860.177122 274.468806 
L 862.72929 272.586188 
L 865.281458 270.97564 
L 868.198221 269.418418 
L 870.750389 268.29232 
L 874.031748 267.124736 
L 877.677702 266.071599 
L 881.688252 265.150231 
L 886.063397 264.380459 
L 891.167733 263.764657 
L 895.542878 263.434562 
L 904.293168 263.040695 
L 915.231031 262.776597 
L 932.367016 262.603922 
L 942.940283 262.690618 
L 957.159504 263.008983 
L 981.951993 263.274851 
L 1041.745642 263.35998 
L 1087.32007 263.385084 
L 1087.32007 263.385084 
" clip-path="url(#p97f0315f15)" style="fill: none; stroke: #dd8452; stroke-opacity: 0.9; stroke-width: 3; stroke-linecap: round"/>
   </g>
   <g id="line2d_69">
    <path d="M 821.530007 263.791536 
L 821.894603 360.769128 
L 822.259198 366.068787 
L 822.623794 367.413696 
L 822.988389 367.771665 
L 823.71758 367.839864 
L 826.998939 367.43527 
L 827.728129 363.402847 
L 829.915702 350.632953 
L 831.738679 341.174266 
L 833.561656 332.713045 
L 835.384633 325.143029 
L 837.20761 318.370413 
L 839.030588 312.315716 
L 841.21816 305.884606 
L 843.405733 300.254115 
L 845.593305 295.324742 
L 847.780878 291.00939 
L 849.96845 287.229963 
L 852.156023 283.921143 
L 854.343595 281.023437 
L 856.531168 278.485972 
L 858.71874 276.266418 
L 860.906313 274.327405 
L 863.458481 272.372487 
L 866.010649 270.704557 
L 868.562817 269.278346 
L 871.47958 267.905595 
L 874.396344 266.781539 
L 877.677702 265.760009 
L 881.688252 264.762625 
L 884.969611 264.156059 
L 890.073947 263.496389 
L 895.907473 262.96681 
L 903.199382 262.566798 
L 911.949672 262.323401 
L 918.876985 262.309025 
L 927.627275 262.506779 
L 952.784359 263.107082 
L 982.681184 263.424611 
L 1025.338848 263.510195 
L 1087.32007 263.51881 
L 1087.32007 263.51881 
" clip-path="url(#p97f0315f15)" style="fill: none; stroke: #55a868; stroke-opacity: 0.9; stroke-width: 3; stroke-linecap: round"/>
   </g>
   <g id="line2d_70">
    <path d="M 821.530007 263.791536 
L 821.894603 357.564103 
L 822.259198 362.803373 
L 822.623794 364.11092 
L 822.988389 364.451798 
L 823.71758 364.515988 
L 826.998939 364.13711 
L 827.728129 360.271778 
L 829.915702 347.918936 
L 831.738679 338.765512 
L 833.561656 330.575467 
L 835.384633 323.24752 
L 837.20761 316.689921 
L 839.030588 310.821307 
L 841.21816 304.58736 
L 843.405733 299.13026 
L 845.593305 294.352384 
L 847.780878 290.169733 
L 849.96845 286.507385 
L 852.156023 283.316988 
L 854.343595 280.529353 
L 856.531168 278.079673 
L 858.71874 275.926149 
L 861.270908 273.742166 
L 863.823076 271.868986 
L 866.375244 270.28045 
L 869.292008 268.760679 
L 872.208771 267.501206 
L 875.49013 266.350194 
L 879.136084 265.341797 
L 883.146634 264.467265 
L 886.427992 263.980511 
L 892.261519 263.342797 
L 898.824237 262.859139 
L 905.75155 262.559075 
L 914.866435 262.387689 
L 925.804298 262.56371 
L 951.690573 263.080779 
L 995.077428 263.454974 
L 1056.694055 263.505919 
L 1087.32007 263.506262 
L 1087.32007 263.506262 
" clip-path="url(#p97f0315f15)" style="fill: none; stroke: #c44e52; stroke-opacity: 0.9; stroke-width: 3; stroke-linecap: round"/>
   </g>
   <g id="line2d_71">
    <path d="M 821.530007 263.791536 
L 821.894603 359.404355 
L 822.259198 363.634825 
L 822.623794 364.350036 
L 822.988389 364.470495 
L 824.446771 364.350361 
L 826.998939 364.056566 
L 828.821916 353.534404 
L 830.644893 343.809058 
L 832.46787 335.108579 
L 834.290847 327.324551 
L 836.113824 320.360006 
L 837.936801 314.128281 
L 839.759778 308.551729 
L 841.947351 302.627815 
L 844.134923 297.442321 
L 846.322496 292.902716 
L 848.510069 288.927842 
L 850.697641 285.446753 
L 852.885214 282.397394 
L 855.072786 279.725694 
L 857.260359 277.384778 
L 859.447931 275.33328 
L 862.000099 273.25759 
L 864.552267 271.477007 
L 867.104435 269.95092 
L 870.021198 268.473793 
L 872.937962 267.234422 
L 876.219321 266.102677 
L 879.865275 265.078966 
L 883.875825 264.190188 
L 888.25097 263.50257 
L 893.719901 262.957374 
L 900.647214 262.493293 
L 908.303718 262.197385 
L 919.606176 262.107973 
L 945.127856 262.253421 
L 963.722222 262.46588 
L 974.660085 262.806762 
L 989.973092 263.029218 
L 1030.443184 263.280798 
L 1087.32007 263.371294 
L 1087.32007 263.371294 
" clip-path="url(#p97f0315f15)" style="fill: none; stroke: #8172b3; stroke-opacity: 0.9; stroke-width: 3; stroke-linecap: round"/>
   </g>
   <g id="line2d_72">
    <path d="M 821.530007 263.791536 
L 821.894603 357.216022 
L 822.259198 360.734083 
L 822.623794 361.398339 
L 822.988389 361.51042 
L 824.446771 361.398439 
L 826.998939 361.124854 
L 832.103275 334.664977 
L 833.926252 326.946321 
L 835.749229 320.040732 
L 837.572206 313.862362 
L 839.395183 308.334246 
L 841.582756 302.46256 
L 843.770328 297.323507 
L 845.957901 292.825286 
L 848.145473 288.888491 
L 850.333046 285.442034 
L 852.520618 282.423992 
L 854.708191 279.780703 
L 856.895763 277.465217 
L 859.083336 275.436344 
L 861.635504 273.383929 
L 864.187672 271.627972 
L 866.73984 270.123277 
L 869.656603 268.663416 
L 872.573366 267.438897 
L 875.854725 266.314625 
L 879.500679 265.301514 
L 883.511229 264.425694 
L 887.886374 263.709356 
L 893.355306 263.131435 
L 899.188832 262.759441 
L 906.480741 262.513073 
L 917.783199 262.358541 
L 932.731611 262.3941 
L 959.347077 262.638973 
L 973.566298 262.915114 
L 998.723383 263.132399 
L 1063.985963 263.32454 
L 1087.32007 263.344037 
L 1087.32007 263.344037 
" clip-path="url(#p97f0315f15)" style="fill: none; stroke: #937860; stroke-opacity: 0.9; stroke-width: 3; stroke-linecap: round"/>
   </g>
   <g id="patch_18">
    <path d="M 808.240504 373.284 
L 808.240504 253.698 
" style="fill: none; stroke: #ffffff; stroke-width: 1.25; stroke-linejoin: miter; stroke-linecap: square"/>
   </g>
   <g id="patch_19">
    <path d="M 808.240504 373.284 
L 1100.609573 373.284 
" style="fill: none; stroke: #ffffff; stroke-width: 1.25; stroke-linejoin: miter; stroke-linecap: square"/>
   </g>
   <g id="text_27">
    <!-- 0.95~365 -->
    <g style="fill: #262626" transform="translate(891.761695 247.698) scale(0.252 -0.252)">
     <use xlink:href="#DejaVuSans-30"/>
     <use xlink:href="#DejaVuSans-2e" x="63.623047"/>
     <use xlink:href="#DejaVuSans-39" x="95.410156"/>
     <use xlink:href="#DejaVuSans-35" x="159.033203"/>
     <use xlink:href="#DejaVuSans-7e" x="222.65625"/>
     <use xlink:href="#DejaVuSans-33" x="306.445312"/>
     <use xlink:href="#DejaVuSans-36" x="370.068359"/>
     <use xlink:href="#DejaVuSans-35" x="433.691406"/>
    </g>
   </g>
  </g>
  <g id="text_28">
   <!-- Production change from pre-shock level -->
   <g style="fill: #262626" transform="translate(280.766836 30.177675) scale(0.3024 -0.3024)">
    <defs>
     <path id="DejaVuSans-50" d="M 1259 4147 
L 1259 2394 
L 2053 2394 
Q 2494 2394 2734 2622 
Q 2975 2850 2975 3272 
Q 2975 3691 2734 3919 
Q 2494 4147 2053 4147 
L 1259 4147 
z
M 628 4666 
L 2053 4666 
Q 2838 4666 3239 4311 
Q 3641 3956 3641 3272 
Q 3641 2581 3239 2228 
Q 2838 1875 2053 1875 
L 1259 1875 
L 1259 0 
L 628 0 
L 628 4666 
z
" transform="scale(0.015625)"/>
     <path id="DejaVuSans-72" d="M 2631 2963 
Q 2534 3019 2420 3045 
Q 2306 3072 2169 3072 
Q 1681 3072 1420 2755 
Q 1159 2438 1159 1844 
L 1159 0 
L 581 0 
L 581 3500 
L 1159 3500 
L 1159 2956 
Q 1341 3275 1631 3429 
Q 1922 3584 2338 3584 
Q 2397 3584 2469 3576 
Q 2541 3569 2628 3553 
L 2631 2963 
z
" transform="scale(0.015625)"/>
     <path id="DejaVuSans-6f" d="M 1959 3097 
Q 1497 3097 1228 2736 
Q 959 2375 959 1747 
Q 959 1119 1226 758 
Q 1494 397 1959 397 
Q 2419 397 2687 759 
Q 2956 1122 2956 1747 
Q 2956 2369 2687 2733 
Q 2419 3097 1959 3097 
z
M 1959 3584 
Q 2709 3584 3137 3096 
Q 3566 2609 3566 1747 
Q 3566 888 3137 398 
Q 2709 -91 1959 -91 
Q 1206 -91 779 398 
Q 353 888 353 1747 
Q 353 2609 779 3096 
Q 1206 3584 1959 3584 
z
" transform="scale(0.015625)"/>
     <path id="DejaVuSans-64" d="M 2906 2969 
L 2906 4863 
L 3481 4863 
L 3481 0 
L 2906 0 
L 2906 525 
Q 2725 213 2448 61 
Q 2172 -91 1784 -91 
Q 1150 -91 751 415 
Q 353 922 353 1747 
Q 353 2572 751 3078 
Q 1150 3584 1784 3584 
Q 2172 3584 2448 3432 
Q 2725 3281 2906 2969 
z
M 947 1747 
Q 947 1113 1208 752 
Q 1469 391 1925 391 
Q 2381 391 2643 752 
Q 2906 1113 2906 1747 
Q 2906 2381 2643 2742 
Q 2381 3103 1925 3103 
Q 1469 3103 1208 2742 
Q 947 2381 947 1747 
z
" transform="scale(0.015625)"/>
     <path id="DejaVuSans-75" d="M 544 1381 
L 544 3500 
L 1119 3500 
L 1119 1403 
Q 1119 906 1312 657 
Q 1506 409 1894 409 
Q 2359 409 2629 706 
Q 2900 1003 2900 1516 
L 2900 3500 
L 3475 3500 
L 3475 0 
L 2900 0 
L 2900 538 
Q 2691 219 2414 64 
Q 2138 -91 1772 -91 
Q 1169 -91 856 284 
Q 544 659 544 1381 
z
M 1991 3584 
L 1991 3584 
z
" transform="scale(0.015625)"/>
     <path id="DejaVuSans-69" d="M 603 3500 
L 1178 3500 
L 1178 0 
L 603 0 
L 603 3500 
z
M 603 4863 
L 1178 4863 
L 1178 4134 
L 603 4134 
L 603 4863 
z
" transform="scale(0.015625)"/>
     <path id="DejaVuSans-66" d="M 2375 4863 
L 2375 4384 
L 1825 4384 
Q 1516 4384 1395 4259 
Q 1275 4134 1275 3809 
L 1275 3500 
L 2222 3500 
L 2222 3053 
L 1275 3053 
L 1275 0 
L 697 0 
L 697 3053 
L 147 3053 
L 147 3500 
L 697 3500 
L 697 3744 
Q 697 4328 969 4595 
Q 1241 4863 1831 4863 
L 2375 4863 
z
" transform="scale(0.015625)"/>
     <path id="DejaVuSans-6d" d="M 3328 2828 
Q 3544 3216 3844 3400 
Q 4144 3584 4550 3584 
Q 5097 3584 5394 3201 
Q 5691 2819 5691 2113 
L 5691 0 
L 5113 0 
L 5113 2094 
Q 5113 2597 4934 2840 
Q 4756 3084 4391 3084 
Q 3944 3084 3684 2787 
Q 3425 2491 3425 1978 
L 3425 0 
L 2847 0 
L 2847 2094 
Q 2847 2600 2669 2842 
Q 2491 3084 2119 3084 
Q 1678 3084 1418 2786 
Q 1159 2488 1159 1978 
L 1159 0 
L 581 0 
L 581 3500 
L 1159 3500 
L 1159 2956 
Q 1356 3278 1631 3431 
Q 1906 3584 2284 3584 
Q 2666 3584 2933 3390 
Q 3200 3197 3328 2828 
z
" transform="scale(0.015625)"/>
     <path id="DejaVuSans-2d" d="M 313 2009 
L 1997 2009 
L 1997 1497 
L 313 1497 
L 313 2009 
z
" transform="scale(0.015625)"/>
     <path id="DejaVuSans-6b" d="M 581 4863 
L 1159 4863 
L 1159 1991 
L 2875 3500 
L 3609 3500 
L 1753 1863 
L 3688 0 
L 2938 0 
L 1159 1709 
L 1159 0 
L 581 0 
L 581 4863 
z
" transform="scale(0.015625)"/>
     <path id="DejaVuSans-6c" d="M 603 4863 
L 1178 4863 
L 1178 0 
L 603 0 
L 603 4863 
z
" transform="scale(0.015625)"/>
     <path id="DejaVuSans-76" d="M 191 3500 
L 800 3500 
L 1894 563 
L 2988 3500 
L 3597 3500 
L 2284 0 
L 1503 0 
L 191 3500 
z
" transform="scale(0.015625)"/>
    </defs>
    <use xlink:href="#DejaVuSans-50"/>
    <use xlink:href="#DejaVuSans-72" x="58.552734"/>
    <use xlink:href="#DejaVuSans-6f" x="97.416016"/>
    <use xlink:href="#DejaVuSans-64" x="158.597656"/>
    <use xlink:href="#DejaVuSans-75" x="222.074219"/>
    <use xlink:href="#DejaVuSans-63" x="285.453125"/>
    <use xlink:href="#DejaVuSans-74" x="340.433594"/>
    <use xlink:href="#DejaVuSans-69" x="379.642578"/>
    <use xlink:href="#DejaVuSans-6f" x="407.425781"/>
    <use xlink:href="#DejaVuSans-6e" x="468.607422"/>
    <use xlink:href="#DejaVuSans-20" x="531.986328"/>
    <use xlink:href="#DejaVuSans-63" x="563.773438"/>
    <use xlink:href="#DejaVuSans-68" x="618.753906"/>
    <use xlink:href="#DejaVuSans-61" x="682.132812"/>
    <use xlink:href="#DejaVuSans-6e" x="743.412109"/>
    <use xlink:href="#DejaVuSans-67" x="806.791016"/>
    <use xlink:href="#DejaVuSans-65" x="870.267578"/>
    <use xlink:href="#DejaVuSans-20" x="931.791016"/>
    <use xlink:href="#DejaVuSans-66" x="963.578125"/>
    <use xlink:href="#DejaVuSans-72" x="998.783203"/>
    <use xlink:href="#DejaVuSans-6f" x="1037.646484"/>
    <use xlink:href="#DejaVuSans-6d" x="1098.828125"/>
    <use xlink:href="#DejaVuSans-20" x="1196.240234"/>
    <use xlink:href="#DejaVuSans-70" x="1228.027344"/>
    <use xlink:href="#DejaVuSans-72" x="1291.503906"/>
    <use xlink:href="#DejaVuSans-65" x="1330.367188"/>
    <use xlink:href="#DejaVuSans-2d" x="1391.890625"/>
    <use xlink:href="#DejaVuSans-73" x="1427.974609"/>
    <use xlink:href="#DejaVuSans-68" x="1480.074219"/>
    <use xlink:href="#DejaVuSans-6f" x="1543.453125"/>
    <use xlink:href="#DejaVuSans-63" x="1604.634766"/>
    <use xlink:href="#DejaVuSans-6b" x="1659.615234"/>
    <use xlink:href="#DejaVuSans-20" x="1717.525391"/>
    <use xlink:href="#DejaVuSans-6c" x="1749.3125"/>
    <use xlink:href="#DejaVuSans-65" x="1777.095703"/>
    <use xlink:href="#DejaVuSans-76" x="1838.619141"/>
    <use xlink:href="#DejaVuSans-65" x="1897.798828"/>
    <use xlink:href="#DejaVuSans-6c" x="1959.322266"/>
   </g>
  </g>
  <g id="legend_1">
   <g id="patch_20">
    <path d="M 11.82 584.31675 
L 1292.617547 584.31675 
Q 1297.237547 584.31675 1297.237547 579.69675 
L 1297.237547 476.97 
Q 1297.237547 472.35 1292.617547 472.35 
L 11.82 472.35 
Q 7.2 472.35 7.2 476.97 
L 7.2 579.69675 
Q 7.2 584.31675 11.82 584.31675 
z
" style="fill: #eaeaf2; opacity: 0.8; stroke: #cccccc; stroke-linejoin: miter"/>
   </g>
   <g id="text_29">
    <!-- Experiences -->
    <g style="fill: #262626" transform="translate(575.384367 500.738062) scale(0.252 -0.252)">
     <defs>
      <path id="DejaVuSans-45" d="M 628 4666 
L 3578 4666 
L 3578 4134 
L 1259 4134 
L 1259 2753 
L 3481 2753 
L 3481 2222 
L 1259 2222 
L 1259 531 
L 3634 531 
L 3634 0 
L 628 0 
L 628 4666 
z
" transform="scale(0.015625)"/>
      <path id="DejaVuSans-78" d="M 3513 3500 
L 2247 1797 
L 3578 0 
L 2900 0 
L 1881 1375 
L 863 0 
L 184 0 
L 1544 1831 
L 300 3500 
L 978 3500 
L 1906 2253 
L 2834 3500 
L 3513 3500 
z
" transform="scale(0.015625)"/>
     </defs>
     <use xlink:href="#DejaVuSans-45"/>
     <use xlink:href="#DejaVuSans-78" x="63.183594"/>
     <use xlink:href="#DejaVuSans-70" x="122.363281"/>
     <use xlink:href="#DejaVuSans-65" x="185.839844"/>
     <use xlink:href="#DejaVuSans-72" x="247.363281"/>
     <use xlink:href="#DejaVuSans-69" x="288.476562"/>
     <use xlink:href="#DejaVuSans-65" x="316.259766"/>
     <use xlink:href="#DejaVuSans-6e" x="377.783203"/>
     <use xlink:href="#DejaVuSans-63" x="441.162109"/>
     <use xlink:href="#DejaVuSans-65" x="496.142578"/>
     <use xlink:href="#DejaVuSans-73" x="557.666016"/>
    </g>
   </g>
   <g id="line2d_73">
    <path d="M 16.44 526.996266 
L 39.54 526.996266 
L 62.64 526.996266 
" style="fill: none; stroke: #4c72b0; stroke-opacity: 0.9; stroke-width: 3; stroke-linecap: round"/>
   </g>
   <g id="text_30">
    <!-- eora26_full_2000 -->
    <g style="fill: #262626" transform="translate(81.12 535.081266) scale(0.231 -0.231)">
     <defs>
      <path id="DejaVuSans-5f" d="M 3263 -1063 
L 3263 -1509 
L -63 -1509 
L -63 -1063 
L 3263 -1063 
z
" transform="scale(0.015625)"/>
     </defs>
     <use xlink:href="#DejaVuSans-65"/>
     <use xlink:href="#DejaVuSans-6f" x="61.523438"/>
     <use xlink:href="#DejaVuSans-72" x="122.705078"/>
     <use xlink:href="#DejaVuSans-61" x="163.818359"/>
     <use xlink:href="#DejaVuSans-32" x="225.097656"/>
     <use xlink:href="#DejaVuSans-36" x="288.720703"/>
     <use xlink:href="#DejaVuSans-5f" x="352.34375"/>
     <use xlink:href="#DejaVuSans-66" x="402.34375"/>
     <use xlink:href="#DejaVuSans-75" x="437.548828"/>
     <use xlink:href="#DejaVuSans-6c" x="500.927734"/>
     <use xlink:href="#DejaVuSans-6c" x="528.710938"/>
     <use xlink:href="#DejaVuSans-5f" x="556.494141"/>
     <use xlink:href="#DejaVuSans-32" x="606.494141"/>
     <use xlink:href="#DejaVuSans-30" x="670.117188"/>
     <use xlink:href="#DejaVuSans-30" x="733.740234"/>
     <use xlink:href="#DejaVuSans-30" x="797.363281"/>
    </g>
   </g>
   <g id="line2d_74">
    <path d="M 16.44 561.545203 
L 39.54 561.545203 
L 62.64 561.545203 
" style="fill: none; stroke: #dd8452; stroke-opacity: 0.9; stroke-width: 3; stroke-linecap: round"/>
   </g>
   <g id="text_31">
    <!-- eora26_full_2010 -->
    <g style="fill: #262626" transform="translate(81.12 569.630203) scale(0.231 -0.231)">
     <defs>
      <path id="DejaVuSans-31" d="M 794 531 
L 1825 531 
L 1825 4091 
L 703 3866 
L 703 4441 
L 1819 4666 
L 2450 4666 
L 2450 531 
L 3481 531 
L 3481 0 
L 794 0 
L 794 531 
z
" transform="scale(0.015625)"/>
     </defs>
     <use xlink:href="#DejaVuSans-65"/>
     <use xlink:href="#DejaVuSans-6f" x="61.523438"/>
     <use xlink:href="#DejaVuSans-72" x="122.705078"/>
     <use xlink:href="#DejaVuSans-61" x="163.818359"/>
     <use xlink:href="#DejaVuSans-32" x="225.097656"/>
     <use xlink:href="#DejaVuSans-36" x="288.720703"/>
     <use xlink:href="#DejaVuSans-5f" x="352.34375"/>
     <use xlink:href="#DejaVuSans-66" x="402.34375"/>
     <use xlink:href="#DejaVuSans-75" x="437.548828"/>
     <use xlink:href="#DejaVuSans-6c" x="500.927734"/>
     <use xlink:href="#DejaVuSans-6c" x="528.710938"/>
     <use xlink:href="#DejaVuSans-5f" x="556.494141"/>
     <use xlink:href="#DejaVuSans-32" x="606.494141"/>
     <use xlink:href="#DejaVuSans-30" x="670.117188"/>
     <use xlink:href="#DejaVuSans-31" x="733.740234"/>
     <use xlink:href="#DejaVuSans-30" x="797.363281"/>
    </g>
   </g>
   <g id="line2d_75">
    <path d="M 326.211 526.996266 
L 349.311 526.996266 
L 372.411 526.996266 
" style="fill: none; stroke: #55a868; stroke-opacity: 0.9; stroke-width: 3; stroke-linecap: round"/>
   </g>
   <g id="text_32">
    <!-- euregio_full_2000 -->
    <g style="fill: #262626" transform="translate(390.891 535.081266) scale(0.231 -0.231)">
     <use xlink:href="#DejaVuSans-65"/>
     <use xlink:href="#DejaVuSans-75" x="61.523438"/>
     <use xlink:href="#DejaVuSans-72" x="124.902344"/>
     <use xlink:href="#DejaVuSans-65" x="163.765625"/>
     <use xlink:href="#DejaVuSans-67" x="225.289062"/>
     <use xlink:href="#DejaVuSans-69" x="288.765625"/>
     <use xlink:href="#DejaVuSans-6f" x="316.548828"/>
     <use xlink:href="#DejaVuSans-5f" x="377.730469"/>
     <use xlink:href="#DejaVuSans-66" x="427.730469"/>
     <use xlink:href="#DejaVuSans-75" x="462.935547"/>
     <use xlink:href="#DejaVuSans-6c" x="526.314453"/>
     <use xlink:href="#DejaVuSans-6c" x="554.097656"/>
     <use xlink:href="#DejaVuSans-5f" x="581.880859"/>
     <use xlink:href="#DejaVuSans-32" x="631.880859"/>
     <use xlink:href="#DejaVuSans-30" x="695.503906"/>
     <use xlink:href="#DejaVuSans-30" x="759.126953"/>
     <use xlink:href="#DejaVuSans-30" x="822.75"/>
    </g>
   </g>
   <g id="line2d_76">
    <path d="M 326.211 561.545203 
L 349.311 561.545203 
L 372.411 561.545203 
" style="fill: none; stroke: #c44e52; stroke-opacity: 0.9; stroke-width: 3; stroke-linecap: round"/>
   </g>
   <g id="text_33">
    <!-- euregio_full_2010 -->
    <g style="fill: #262626" transform="translate(390.891 569.630203) scale(0.231 -0.231)">
     <use xlink:href="#DejaVuSans-65"/>
     <use xlink:href="#DejaVuSans-75" x="61.523438"/>
     <use xlink:href="#DejaVuSans-72" x="124.902344"/>
     <use xlink:href="#DejaVuSans-65" x="163.765625"/>
     <use xlink:href="#DejaVuSans-67" x="225.289062"/>
     <use xlink:href="#DejaVuSans-69" x="288.765625"/>
     <use xlink:href="#DejaVuSans-6f" x="316.548828"/>
     <use xlink:href="#DejaVuSans-5f" x="377.730469"/>
     <use xlink:href="#DejaVuSans-66" x="427.730469"/>
     <use xlink:href="#DejaVuSans-75" x="462.935547"/>
     <use xlink:href="#DejaVuSans-6c" x="526.314453"/>
     <use xlink:href="#DejaVuSans-6c" x="554.097656"/>
     <use xlink:href="#DejaVuSans-5f" x="581.880859"/>
     <use xlink:href="#DejaVuSans-32" x="631.880859"/>
     <use xlink:href="#DejaVuSans-30" x="695.503906"/>
     <use xlink:href="#DejaVuSans-31" x="759.126953"/>
     <use xlink:href="#DejaVuSans-30" x="822.75"/>
    </g>
   </g>
   <g id="line2d_77">
    <path d="M 641.847234 526.996266 
L 664.947234 526.996266 
L 688.047234 526.996266 
" style="fill: none; stroke: #8172b3; stroke-opacity: 0.9; stroke-width: 3; stroke-linecap: round"/>
   </g>
   <g id="text_34">
    <!-- exiobase3_full_2000 -->
    <g style="fill: #262626" transform="translate(706.527234 535.081266) scale(0.231 -0.231)">
     <defs>
      <path id="DejaVuSans-62" d="M 3116 1747 
Q 3116 2381 2855 2742 
Q 2594 3103 2138 3103 
Q 1681 3103 1420 2742 
Q 1159 2381 1159 1747 
Q 1159 1113 1420 752 
Q 1681 391 2138 391 
Q 2594 391 2855 752 
Q 3116 1113 3116 1747 
z
M 1159 2969 
Q 1341 3281 1617 3432 
Q 1894 3584 2278 3584 
Q 2916 3584 3314 3078 
Q 3713 2572 3713 1747 
Q 3713 922 3314 415 
Q 2916 -91 2278 -91 
Q 1894 -91 1617 61 
Q 1341 213 1159 525 
L 1159 0 
L 581 0 
L 581 4863 
L 1159 4863 
L 1159 2969 
z
" transform="scale(0.015625)"/>
     </defs>
     <use xlink:href="#DejaVuSans-65"/>
     <use xlink:href="#DejaVuSans-78" x="59.773438"/>
     <use xlink:href="#DejaVuSans-69" x="118.953125"/>
     <use xlink:href="#DejaVuSans-6f" x="146.736328"/>
     <use xlink:href="#DejaVuSans-62" x="207.917969"/>
     <use xlink:href="#DejaVuSans-61" x="271.394531"/>
     <use xlink:href="#DejaVuSans-73" x="332.673828"/>
     <use xlink:href="#DejaVuSans-65" x="384.773438"/>
     <use xlink:href="#DejaVuSans-33" x="446.296875"/>
     <use xlink:href="#DejaVuSans-5f" x="509.919922"/>
     <use xlink:href="#DejaVuSans-66" x="559.919922"/>
     <use xlink:href="#DejaVuSans-75" x="595.125"/>
     <use xlink:href="#DejaVuSans-6c" x="658.503906"/>
     <use xlink:href="#DejaVuSans-6c" x="686.287109"/>
     <use xlink:href="#DejaVuSans-5f" x="714.070312"/>
     <use xlink:href="#DejaVuSans-32" x="764.070312"/>
     <use xlink:href="#DejaVuSans-30" x="827.693359"/>
     <use xlink:href="#DejaVuSans-30" x="891.316406"/>
     <use xlink:href="#DejaVuSans-30" x="954.939453"/>
    </g>
   </g>
   <g id="line2d_78">
    <path d="M 988.022391 526.996266 
L 1011.122391 526.996266 
L 1034.222391 526.996266 
" style="fill: none; stroke: #937860; stroke-opacity: 0.9; stroke-width: 3; stroke-linecap: round"/>
   </g>
   <g id="text_35">
    <!-- exiobase3_full_2010 -->
    <g style="fill: #262626" transform="translate(1052.702391 535.081266) scale(0.231 -0.231)">
     <use xlink:href="#DejaVuSans-65"/>
     <use xlink:href="#DejaVuSans-78" x="59.773438"/>
     <use xlink:href="#DejaVuSans-69" x="118.953125"/>
     <use xlink:href="#DejaVuSans-6f" x="146.736328"/>
     <use xlink:href="#DejaVuSans-62" x="207.917969"/>
     <use xlink:href="#DejaVuSans-61" x="271.394531"/>
     <use xlink:href="#DejaVuSans-73" x="332.673828"/>
     <use xlink:href="#DejaVuSans-65" x="384.773438"/>
     <use xlink:href="#DejaVuSans-33" x="446.296875"/>
     <use xlink:href="#DejaVuSans-5f" x="509.919922"/>
     <use xlink:href="#DejaVuSans-66" x="559.919922"/>
     <use xlink:href="#DejaVuSans-75" x="595.125"/>
     <use xlink:href="#DejaVuSans-6c" x="658.503906"/>
     <use xlink:href="#DejaVuSans-6c" x="686.287109"/>
     <use xlink:href="#DejaVuSans-5f" x="714.070312"/>
     <use xlink:href="#DejaVuSans-32" x="764.070312"/>
     <use xlink:href="#DejaVuSans-30" x="827.693359"/>
     <use xlink:href="#DejaVuSans-31" x="891.316406"/>
     <use xlink:href="#DejaVuSans-30" x="954.939453"/>
    </g>
   </g>
  </g>
 </g>
 <defs>
  <clipPath id="p3b81749038">
   <rect x="170.340091" y="81.456" width="292.369069" height="119.586"/>
  </clipPath>
  <clipPath id="p0a9b8c81e2">
   <rect x="489.290298" y="81.456" width="292.369069" height="119.586"/>
  </clipPath>
  <clipPath id="p54b0320ad4">
   <rect x="808.240504" y="81.456" width="292.369069" height="119.586"/>
  </clipPath>
  <clipPath id="pd2e5c38833">
   <rect x="170.340091" y="253.698" width="292.369069" height="119.586"/>
  </clipPath>
  <clipPath id="p49575a1571">
   <rect x="489.290298" y="253.698" width="292.369069" height="119.586"/>
  </clipPath>
  <clipPath id="p97f0315f15">
   <rect x="808.240504" y="253.698" width="292.369069" height="119.586"/>
  </clipPath>
 </defs>
</svg>
