<?xml version="1.0" encoding="utf-8" standalone="no"?>
<!DOCTYPE svg PUBLIC "-//W3C//DTD SVG 1.1//EN"
  "http://www.w3.org/Graphics/SVG/1.1/DTD/svg11.dtd">
<svg xmlns:xlink="http://www.w3.org/1999/xlink" width="1304.437547pt" height="591.51675pt" viewBox="0 0 1304.437547 591.51675" xmlns="http://www.w3.org/2000/svg" version="1.1">
 <metadata>
  <rdf:RDF xmlns:dc="http://purl.org/dc/elements/1.1/" xmlns:cc="http://creativecommons.org/ns#" xmlns:rdf="http://www.w3.org/1999/02/22-rdf-syntax-ns#">
   <cc:Work>
    <dc:type rdf:resource="http://purl.org/dc/dcmitype/StillImage"/>
    <dc:date>2023-04-27T10:22:15.879298</dc:date>
    <dc:format>image/svg+xml</dc:format>
    <dc:creator>
     <cc:Agent>
      <dc:title>Matplotlib v3.7.1, https://matplotlib.org/</dc:title>
     </cc:Agent>
    </dc:creator>
   </cc:Work>
  </rdf:RDF>
 </metadata>
 <defs>
  <style type="text/css">*{stroke-linejoin: round; stroke-linecap: butt}</style>
 </defs>
 <g id="figure_1">
  <g id="patch_1">
   <path d="M 0 591.51675 
L 1304.437547 591.51675 
L 1304.437547 -0 
L 0 -0 
z
" style="fill: #ffffff"/>
  </g>
  <g id="axes_1">
   <g id="patch_2">
    <path d="M 189.250488 201.042 
L 475.404752 201.042 
L 475.404752 81.456 
L 189.250488 81.456 
z
" style="fill: #eaeaf2"/>
   </g>
   <g id="matplotlib.axis_1">
    <g id="xtick_1">
     <g id="line2d_1">
      <path d="M 202.2575 201.042 
L 202.2575 81.456 
" clip-path="url(#pe28cf16b27)" style="fill: none; stroke: #ffffff; stroke-linecap: round"/>
     </g>
    </g>
    <g id="xtick_2">
     <g id="line2d_2">
      <path d="M 291.468831 201.042 
L 291.468831 81.456 
" clip-path="url(#pe28cf16b27)" style="fill: none; stroke: #ffffff; stroke-linecap: round"/>
     </g>
    </g>
    <g id="xtick_3">
     <g id="line2d_3">
      <path d="M 380.680161 201.042 
L 380.680161 81.456 
" clip-path="url(#pe28cf16b27)" style="fill: none; stroke: #ffffff; stroke-linecap: round"/>
     </g>
    </g>
    <g id="xtick_4">
     <g id="line2d_4">
      <path d="M 469.891491 201.042 
L 469.891491 81.456 
" clip-path="url(#pe28cf16b27)" style="fill: none; stroke: #ffffff; stroke-linecap: round"/>
     </g>
    </g>
   </g>
   <g id="matplotlib.axis_2">
    <g id="ytick_1">
     <g id="line2d_5">
      <path d="M 189.250488 149.643079 
L 475.404752 149.643079 
" clip-path="url(#pe28cf16b27)" style="fill: none; stroke: #ffffff; stroke-linecap: round"/>
     </g>
     <g id="text_1">
      <!-- −0.05 -->
      <g style="fill: #262626" transform="translate(108.959816 158.419274) scale(0.231 -0.231)">
       <defs>
        <path id="DejaVuSans-2212" d="M 678 2272 
L 4684 2272 
L 4684 1741 
L 678 1741 
L 678 2272 
z
" transform="scale(0.015625)"/>
        <path id="DejaVuSans-30" d="M 2034 4250 
Q 1547 4250 1301 3770 
Q 1056 3291 1056 2328 
Q 1056 1369 1301 889 
Q 1547 409 2034 409 
Q 2525 409 2770 889 
Q 3016 1369 3016 2328 
Q 3016 3291 2770 3770 
Q 2525 4250 2034 4250 
z
M 2034 4750 
Q 2819 4750 3233 4129 
Q 3647 3509 3647 2328 
Q 3647 1150 3233 529 
Q 2819 -91 2034 -91 
Q 1250 -91 836 529 
Q 422 1150 422 2328 
Q 422 3509 836 4129 
Q 1250 4750 2034 4750 
z
" transform="scale(0.015625)"/>
        <path id="DejaVuSans-2e" d="M 684 794 
L 1344 794 
L 1344 0 
L 684 0 
L 684 794 
z
" transform="scale(0.015625)"/>
        <path id="DejaVuSans-35" d="M 691 4666 
L 3169 4666 
L 3169 4134 
L 1269 4134 
L 1269 2991 
Q 1406 3038 1543 3061 
Q 1681 3084 1819 3084 
Q 2600 3084 3056 2656 
Q 3513 2228 3513 1497 
Q 3513 744 3044 326 
Q 2575 -91 1722 -91 
Q 1428 -91 1123 -41 
Q 819 9 494 109 
L 494 744 
Q 775 591 1075 516 
Q 1375 441 1709 441 
Q 2250 441 2565 725 
Q 2881 1009 2881 1497 
Q 2881 1984 2565 2268 
Q 2250 2553 1709 2553 
Q 1456 2553 1204 2497 
Q 953 2441 691 2322 
L 691 4666 
z
" transform="scale(0.015625)"/>
       </defs>
       <use xlink:href="#DejaVuSans-2212"/>
       <use xlink:href="#DejaVuSans-30" x="83.789062"/>
       <use xlink:href="#DejaVuSans-2e" x="147.412109"/>
       <use xlink:href="#DejaVuSans-30" x="179.199219"/>
       <use xlink:href="#DejaVuSans-35" x="242.822266"/>
      </g>
     </g>
    </g>
    <g id="ytick_2">
     <g id="line2d_6">
      <path d="M 189.250488 86.891727 
L 475.404752 86.891727 
" clip-path="url(#pe28cf16b27)" style="fill: none; stroke: #ffffff; stroke-linecap: round"/>
     </g>
     <g id="text_2">
      <!-- 0.00 -->
      <g style="fill: #262626" transform="translate(128.316894 95.667923) scale(0.231 -0.231)">
       <use xlink:href="#DejaVuSans-30"/>
       <use xlink:href="#DejaVuSans-2e" x="63.623047"/>
       <use xlink:href="#DejaVuSans-30" x="95.410156"/>
       <use xlink:href="#DejaVuSans-30" x="159.033203"/>
      </g>
     </g>
    </g>
    <g id="text_3">
     <!-- % change -->
     <g style="fill: #262626" transform="translate(99.719004 203.597344) rotate(-90) scale(0.252 -0.252)">
      <defs>
       <path id="DejaVuSans-25" d="M 4653 2053 
Q 4381 2053 4226 1822 
Q 4072 1591 4072 1178 
Q 4072 772 4226 539 
Q 4381 306 4653 306 
Q 4919 306 5073 539 
Q 5228 772 5228 1178 
Q 5228 1588 5073 1820 
Q 4919 2053 4653 2053 
z
M 4653 2450 
Q 5147 2450 5437 2106 
Q 5728 1763 5728 1178 
Q 5728 594 5436 251 
Q 5144 -91 4653 -91 
Q 4153 -91 3862 251 
Q 3572 594 3572 1178 
Q 3572 1766 3864 2108 
Q 4156 2450 4653 2450 
z
M 1428 4353 
Q 1159 4353 1004 4120 
Q 850 3888 850 3481 
Q 850 3069 1003 2837 
Q 1156 2606 1428 2606 
Q 1700 2606 1854 2837 
Q 2009 3069 2009 3481 
Q 2009 3884 1853 4118 
Q 1697 4353 1428 4353 
z
M 4250 4750 
L 4750 4750 
L 1831 -91 
L 1331 -91 
L 4250 4750 
z
M 1428 4750 
Q 1922 4750 2215 4408 
Q 2509 4066 2509 3481 
Q 2509 2891 2217 2550 
Q 1925 2209 1428 2209 
Q 931 2209 642 2551 
Q 353 2894 353 3481 
Q 353 4063 643 4406 
Q 934 4750 1428 4750 
z
" transform="scale(0.015625)"/>
       <path id="DejaVuSans-20" transform="scale(0.015625)"/>
       <path id="DejaVuSans-63" d="M 3122 3366 
L 3122 2828 
Q 2878 2963 2633 3030 
Q 2388 3097 2138 3097 
Q 1578 3097 1268 2742 
Q 959 2388 959 1747 
Q 959 1106 1268 751 
Q 1578 397 2138 397 
Q 2388 397 2633 464 
Q 2878 531 3122 666 
L 3122 134 
Q 2881 22 2623 -34 
Q 2366 -91 2075 -91 
Q 1284 -91 818 406 
Q 353 903 353 1747 
Q 353 2603 823 3093 
Q 1294 3584 2113 3584 
Q 2378 3584 2631 3529 
Q 2884 3475 3122 3366 
z
" transform="scale(0.015625)"/>
       <path id="DejaVuSans-68" d="M 3513 2113 
L 3513 0 
L 2938 0 
L 2938 2094 
Q 2938 2591 2744 2837 
Q 2550 3084 2163 3084 
Q 1697 3084 1428 2787 
Q 1159 2491 1159 1978 
L 1159 0 
L 581 0 
L 581 4863 
L 1159 4863 
L 1159 2956 
Q 1366 3272 1645 3428 
Q 1925 3584 2291 3584 
Q 2894 3584 3203 3211 
Q 3513 2838 3513 2113 
z
" transform="scale(0.015625)"/>
       <path id="DejaVuSans-61" d="M 2194 1759 
Q 1497 1759 1228 1600 
Q 959 1441 959 1056 
Q 959 750 1161 570 
Q 1363 391 1709 391 
Q 2188 391 2477 730 
Q 2766 1069 2766 1631 
L 2766 1759 
L 2194 1759 
z
M 3341 1997 
L 3341 0 
L 2766 0 
L 2766 531 
Q 2569 213 2275 61 
Q 1981 -91 1556 -91 
Q 1019 -91 701 211 
Q 384 513 384 1019 
Q 384 1609 779 1909 
Q 1175 2209 1959 2209 
L 2766 2209 
L 2766 2266 
Q 2766 2663 2505 2880 
Q 2244 3097 1772 3097 
Q 1472 3097 1187 3025 
Q 903 2953 641 2809 
L 641 3341 
Q 956 3463 1253 3523 
Q 1550 3584 1831 3584 
Q 2591 3584 2966 3190 
Q 3341 2797 3341 1997 
z
" transform="scale(0.015625)"/>
       <path id="DejaVuSans-6e" d="M 3513 2113 
L 3513 0 
L 2938 0 
L 2938 2094 
Q 2938 2591 2744 2837 
Q 2550 3084 2163 3084 
Q 1697 3084 1428 2787 
Q 1159 2491 1159 1978 
L 1159 0 
L 581 0 
L 581 3500 
L 1159 3500 
L 1159 2956 
Q 1366 3272 1645 3428 
Q 1925 3584 2291 3584 
Q 2894 3584 3203 3211 
Q 3513 2838 3513 2113 
z
" transform="scale(0.015625)"/>
       <path id="DejaVuSans-67" d="M 2906 1791 
Q 2906 2416 2648 2759 
Q 2391 3103 1925 3103 
Q 1463 3103 1205 2759 
Q 947 2416 947 1791 
Q 947 1169 1205 825 
Q 1463 481 1925 481 
Q 2391 481 2648 825 
Q 2906 1169 2906 1791 
z
M 3481 434 
Q 3481 -459 3084 -895 
Q 2688 -1331 1869 -1331 
Q 1566 -1331 1297 -1286 
Q 1028 -1241 775 -1147 
L 775 -588 
Q 1028 -725 1275 -790 
Q 1522 -856 1778 -856 
Q 2344 -856 2625 -561 
Q 2906 -266 2906 331 
L 2906 616 
Q 2728 306 2450 153 
Q 2172 0 1784 0 
Q 1141 0 747 490 
Q 353 981 353 1791 
Q 353 2603 747 3093 
Q 1141 3584 1784 3584 
Q 2172 3584 2450 3431 
Q 2728 3278 2906 2969 
L 2906 3500 
L 3481 3500 
L 3481 434 
z
" transform="scale(0.015625)"/>
       <path id="DejaVuSans-65" d="M 3597 1894 
L 3597 1613 
L 953 1613 
Q 991 1019 1311 708 
Q 1631 397 2203 397 
Q 2534 397 2845 478 
Q 3156 559 3463 722 
L 3463 178 
Q 3153 47 2828 -22 
Q 2503 -91 2169 -91 
Q 1331 -91 842 396 
Q 353 884 353 1716 
Q 353 2575 817 3079 
Q 1281 3584 2069 3584 
Q 2775 3584 3186 3129 
Q 3597 2675 3597 1894 
z
M 3022 2063 
Q 3016 2534 2758 2815 
Q 2500 3097 2075 3097 
Q 1594 3097 1305 2825 
Q 1016 2553 972 2059 
L 3022 2063 
z
" transform="scale(0.015625)"/>
      </defs>
      <use xlink:href="#DejaVuSans-25"/>
      <use xlink:href="#DejaVuSans-20" x="95.019531"/>
      <use xlink:href="#DejaVuSans-63" x="126.806641"/>
      <use xlink:href="#DejaVuSans-68" x="181.787109"/>
      <use xlink:href="#DejaVuSans-61" x="245.166016"/>
      <use xlink:href="#DejaVuSans-6e" x="306.445312"/>
      <use xlink:href="#DejaVuSans-67" x="369.824219"/>
      <use xlink:href="#DejaVuSans-65" x="433.300781"/>
     </g>
    </g>
   </g>
   <g id="PolyCollection_1"/>
   <g id="PolyCollection_2"/>
   <g id="PolyCollection_3"/>
   <g id="PolyCollection_4"/>
   <g id="PolyCollection_5"/>
   <g id="PolyCollection_6"/>
   <g id="line2d_7">
    <path d="M 202.2575 86.891727 
L 205.469108 103.109761 
L 209.037561 120.620961 
L 210.821788 128.182256 
L 212.606014 134.851211 
L 214.390241 140.722248 
L 216.174468 145.879637 
L 217.958694 150.398572 
L 219.742921 154.346215 
L 221.527147 157.784145 
L 223.311374 160.767316 
L 225.095601 163.343553 
L 226.879827 165.556137 
L 228.664054 167.451037 
L 230.448281 169.063925 
L 232.589352 170.670538 
L 234.730424 171.964491 
L 236.871496 172.984728 
L 239.012568 173.765214 
L 241.510485 174.412271 
L 244.008403 174.814768 
L 246.863165 175.045717 
L 250.431619 175.10245 
L 254.356917 174.934902 
L 258.995906 174.498796 
L 264.348586 173.765355 
L 273.269719 172.265996 
L 281.834007 170.96595 
L 292.539366 169.58183 
L 306.456334 168.012438 
L 323.228064 166.372164 
L 336.788186 165.252368 
L 365.335812 163.171511 
L 462.39774 156.407122 
L 462.39774 156.407122 
" clip-path="url(#pe28cf16b27)" style="fill: none; stroke: #4c72b0; stroke-opacity: 0.9; stroke-width: 3; stroke-linecap: round"/>
   </g>
   <g id="line2d_8">
    <path d="M 202.2575 86.891727 
L 204.398572 92.849809 
L 209.037561 105.610801 
L 210.821788 109.844421 
L 212.606014 113.58585 
L 214.390241 116.88704 
L 216.174468 119.794604 
L 218.31554 122.822394 
L 220.456612 125.40638 
L 222.597683 127.601897 
L 224.738755 129.457368 
L 226.879827 131.015373 
L 229.020899 132.314445 
L 231.518816 133.546847 
L 234.016734 134.523505 
L 236.871496 135.380104 
L 239.726259 136.005818 
L 242.937867 136.480119 
L 246.50632 136.776485 
L 251.145309 136.918958 
L 256.497989 136.856367 
L 262.921205 136.554297 
L 271.128647 135.930027 
L 293.253057 134.130264 
L 307.883715 133.164896 
L 338.929258 131.408566 
L 368.54742 129.939752 
L 430.995351 127.078776 
L 462.39774 125.646784 
L 462.39774 125.646784 
" clip-path="url(#pe28cf16b27)" style="fill: none; stroke: #dd8452; stroke-opacity: 0.9; stroke-width: 3; stroke-linecap: round"/>
   </g>
   <g id="line2d_9">
    <path d="M 202.2575 86.891727 
L 204.041727 96.478771 
L 208.680716 121.294578 
L 210.464943 129.615032 
L 212.249169 136.952895 
L 214.033396 143.411545 
L 215.817622 149.084037 
L 217.601849 154.053885 
L 219.386076 158.395067 
L 221.170302 162.173534 
L 222.954529 165.448614 
L 224.738755 168.273978 
L 226.522982 170.697771 
L 228.307209 172.763563 
L 230.091435 174.509845 
L 231.875662 175.971367 
L 233.659888 177.179663 
L 235.80096 178.338113 
L 237.942032 179.222866 
L 240.083104 179.870934 
L 242.581021 180.367783 
L 245.435784 180.659923 
L 248.290547 180.731006 
L 251.502154 180.600356 
L 255.427453 180.208385 
L 260.066442 179.509968 
L 283.618233 175.580208 
L 293.253057 174.312433 
L 302.17419 173.368671 
L 313.950086 172.361106 
L 330.721816 171.175931 
L 359.269442 169.418027 
L 462.39774 163.40816 
L 462.39774 163.40816 
" clip-path="url(#pe28cf16b27)" style="fill: none; stroke: #55a868; stroke-opacity: 0.9; stroke-width: 3; stroke-linecap: round"/>
   </g>
   <g id="line2d_10">
    <path d="M 202.2575 86.891727 
L 204.041727 94.432965 
L 208.680716 113.955943 
L 210.464943 120.503806 
L 212.249169 126.278775 
L 214.033396 131.362136 
L 215.817622 135.826887 
L 217.601849 139.738216 
L 219.386076 143.154276 
L 221.170302 146.127154 
L 222.954529 148.703656 
L 224.738755 150.925568 
L 226.522982 152.831004 
L 228.307209 154.454702 
L 230.448281 156.074687 
L 232.589352 157.380559 
L 234.730424 158.414773 
L 236.871496 159.215977 
L 239.369414 159.901 
L 241.867331 160.356122 
L 244.722093 160.644504 
L 247.933701 160.754201 
L 251.859 160.646088 
L 256.497989 160.266702 
L 262.564359 159.517348 
L 279.692935 157.342906 
L 292.182521 155.981787 
L 302.17419 155.105994 
L 315.377467 154.187724 
L 335.71765 153.021593 
L 377.825398 150.888992 
L 462.39774 146.704111 
L 462.39774 146.704111 
" clip-path="url(#pe28cf16b27)" style="fill: none; stroke: #c44e52; stroke-opacity: 0.9; stroke-width: 3; stroke-linecap: round"/>
   </g>
   <g id="line2d_11">
    <path d="M 202.2575 86.891727 
L 204.755417 99.056005 
L 209.037561 119.411549 
L 210.821788 126.682464 
L 212.606014 133.096485 
L 214.390241 138.744342 
L 216.174468 143.707046 
L 217.958694 148.056956 
L 219.742921 151.858679 
L 221.527147 155.170015 
L 223.311374 158.042689 
L 225.095601 160.522841 
L 226.879827 162.651806 
L 228.664054 164.466414 
L 230.448281 165.999918 
L 232.232507 167.282359 
L 234.373579 168.526497 
L 236.514651 169.490703 
L 238.655723 170.211845 
L 240.796795 170.71965 
L 243.294712 171.07913 
L 246.149475 171.244883 
L 249.361083 171.197481 
L 252.929536 170.917078 
L 257.21168 170.350781 
L 262.564359 169.415687 
L 270.058111 167.867313 
L 293.253057 162.897577 
L 300.746809 161.673921 
L 311.095323 160.230572 
L 321.443838 159.021363 
L 335.00396 157.683298 
L 349.634618 156.487048 
L 376.041172 154.578975 
L 450.264999 149.512634 
L 462.39774 148.688473 
L 462.39774 148.688473 
" clip-path="url(#pe28cf16b27)" style="fill: none; stroke: #8172b3; stroke-opacity: 0.9; stroke-width: 3; stroke-linecap: round"/>
   </g>
   <g id="line2d_12">
    <path d="M 202.2575 86.891727 
L 205.469108 99.37461 
L 209.037561 112.836205 
L 210.821788 118.640849 
L 212.606014 123.764476 
L 214.390241 128.279272 
L 216.174468 132.249798 
L 217.958694 135.733675 
L 219.742921 138.782451 
L 221.527147 141.442136 
L 223.311374 143.753741 
L 225.095601 145.753953 
L 227.236673 147.789663 
L 229.377745 149.475211 
L 231.518816 150.854146 
L 233.659888 151.964518 
L 235.80096 152.842133 
L 238.298878 153.612116 
L 240.796795 154.146581 
L 243.651557 154.514151 
L 246.863165 154.679457 
L 250.431619 154.64214 
L 255.070608 154.355976 
L 260.780133 153.75956 
L 267.917039 152.77345 
L 280.406626 150.776666 
L 290.041449 149.296766 
L 300.033118 148.003903 
L 312.87955 146.576549 
L 326.439672 145.284275 
L 343.211402 143.991532 
L 366.763193 142.442394 
L 424.21529 138.946713 
L 462.39774 136.654836 
L 462.39774 136.654836 
" clip-path="url(#pe28cf16b27)" style="fill: none; stroke: #937860; stroke-opacity: 0.9; stroke-width: 3; stroke-linecap: round"/>
   </g>
   <g id="patch_3">
    <path d="M 189.250488 201.042 
L 189.250488 81.456 
" style="fill: none; stroke: #ffffff; stroke-width: 1.25; stroke-linejoin: miter; stroke-linecap: square"/>
   </g>
   <g id="patch_4">
    <path d="M 189.250488 201.042 
L 475.404752 201.042 
" style="fill: none; stroke: #ffffff; stroke-width: 1.25; stroke-linejoin: miter; stroke-linecap: square"/>
   </g>
   <g id="text_4">
    <!-- 0.8~90 -->
    <g style="fill: #262626" transform="translate(285.697776 75.456) scale(0.252 -0.252)">
     <defs>
      <path id="DejaVuSans-38" d="M 2034 2216 
Q 1584 2216 1326 1975 
Q 1069 1734 1069 1313 
Q 1069 891 1326 650 
Q 1584 409 2034 409 
Q 2484 409 2743 651 
Q 3003 894 3003 1313 
Q 3003 1734 2745 1975 
Q 2488 2216 2034 2216 
z
M 1403 2484 
Q 997 2584 770 2862 
Q 544 3141 544 3541 
Q 544 4100 942 4425 
Q 1341 4750 2034 4750 
Q 2731 4750 3128 4425 
Q 3525 4100 3525 3541 
Q 3525 3141 3298 2862 
Q 3072 2584 2669 2484 
Q 3125 2378 3379 2068 
Q 3634 1759 3634 1313 
Q 3634 634 3220 271 
Q 2806 -91 2034 -91 
Q 1263 -91 848 271 
Q 434 634 434 1313 
Q 434 1759 690 2068 
Q 947 2378 1403 2484 
z
M 1172 3481 
Q 1172 3119 1398 2916 
Q 1625 2713 2034 2713 
Q 2441 2713 2670 2916 
Q 2900 3119 2900 3481 
Q 2900 3844 2670 4047 
Q 2441 4250 2034 4250 
Q 1625 4250 1398 4047 
Q 1172 3844 1172 3481 
z
" transform="scale(0.015625)"/>
      <path id="DejaVuSans-7e" d="M 4684 2553 
L 4684 1997 
Q 4356 1750 4076 1644 
Q 3797 1538 3494 1538 
Q 3150 1538 2694 1722 
Q 2659 1734 2644 1741 
Q 2622 1750 2575 1766 
Q 2091 1959 1797 1959 
Q 1522 1959 1253 1839 
Q 984 1719 678 1459 
L 678 2016 
Q 1006 2263 1286 2370 
Q 1566 2478 1869 2478 
Q 2213 2478 2672 2291 
Q 2703 2278 2719 2272 
Q 2744 2263 2788 2247 
Q 3272 2053 3566 2053 
Q 3834 2053 4098 2172 
Q 4363 2291 4684 2553 
z
" transform="scale(0.015625)"/>
      <path id="DejaVuSans-39" d="M 703 97 
L 703 672 
Q 941 559 1184 500 
Q 1428 441 1663 441 
Q 2288 441 2617 861 
Q 2947 1281 2994 2138 
Q 2813 1869 2534 1725 
Q 2256 1581 1919 1581 
Q 1219 1581 811 2004 
Q 403 2428 403 3163 
Q 403 3881 828 4315 
Q 1253 4750 1959 4750 
Q 2769 4750 3195 4129 
Q 3622 3509 3622 2328 
Q 3622 1225 3098 567 
Q 2575 -91 1691 -91 
Q 1453 -91 1209 -44 
Q 966 3 703 97 
z
M 1959 2075 
Q 2384 2075 2632 2365 
Q 2881 2656 2881 3163 
Q 2881 3666 2632 3958 
Q 2384 4250 1959 4250 
Q 1534 4250 1286 3958 
Q 1038 3666 1038 3163 
Q 1038 2656 1286 2365 
Q 1534 2075 1959 2075 
z
" transform="scale(0.015625)"/>
     </defs>
     <use xlink:href="#DejaVuSans-30"/>
     <use xlink:href="#DejaVuSans-2e" x="63.623047"/>
     <use xlink:href="#DejaVuSans-38" x="95.410156"/>
     <use xlink:href="#DejaVuSans-7e" x="159.033203"/>
     <use xlink:href="#DejaVuSans-39" x="242.822266"/>
     <use xlink:href="#DejaVuSans-30" x="306.445312"/>
    </g>
   </g>
  </g>
  <g id="axes_2">
   <g id="patch_5">
    <path d="M 501.852899 201.042 
L 788.007162 201.042 
L 788.007162 81.456 
L 501.852899 81.456 
z
" style="fill: #eaeaf2"/>
   </g>
   <g id="matplotlib.axis_3">
    <g id="xtick_5">
     <g id="line2d_13">
      <path d="M 514.859911 201.042 
L 514.859911 81.456 
" clip-path="url(#pcb534eda79)" style="fill: none; stroke: #ffffff; stroke-linecap: round"/>
     </g>
    </g>
    <g id="xtick_6">
     <g id="line2d_14">
      <path d="M 604.071241 201.042 
L 604.071241 81.456 
" clip-path="url(#pcb534eda79)" style="fill: none; stroke: #ffffff; stroke-linecap: round"/>
     </g>
    </g>
    <g id="xtick_7">
     <g id="line2d_15">
      <path d="M 693.282572 201.042 
L 693.282572 81.456 
" clip-path="url(#pcb534eda79)" style="fill: none; stroke: #ffffff; stroke-linecap: round"/>
     </g>
    </g>
    <g id="xtick_8">
     <g id="line2d_16">
      <path d="M 782.493902 201.042 
L 782.493902 81.456 
" clip-path="url(#pcb534eda79)" style="fill: none; stroke: #ffffff; stroke-linecap: round"/>
     </g>
    </g>
   </g>
   <g id="matplotlib.axis_4">
    <g id="ytick_3">
     <g id="line2d_17">
      <path d="M 501.852899 149.643079 
L 788.007162 149.643079 
" clip-path="url(#pcb534eda79)" style="fill: none; stroke: #ffffff; stroke-linecap: round"/>
     </g>
    </g>
    <g id="ytick_4">
     <g id="line2d_18">
      <path d="M 501.852899 86.891727 
L 788.007162 86.891727 
" clip-path="url(#pcb534eda79)" style="fill: none; stroke: #ffffff; stroke-linecap: round"/>
     </g>
    </g>
   </g>
   <g id="PolyCollection_7"/>
   <g id="PolyCollection_8"/>
   <g id="PolyCollection_9"/>
   <g id="PolyCollection_10"/>
   <g id="PolyCollection_11"/>
   <g id="PolyCollection_12"/>
   <g id="line2d_19">
    <path d="M 514.859911 86.891727 
L 517.714674 101.36846 
L 521.639972 121.008666 
L 523.424199 128.805021 
L 525.208425 135.754831 
L 526.992652 141.947247 
L 528.776879 147.461986 
L 530.561105 152.370317 
L 532.345332 156.736077 
L 534.486404 161.338698 
L 536.627476 165.32904 
L 538.768548 168.783375 
L 540.90962 171.768424 
L 543.050691 174.342571 
L 545.191763 176.556917 
L 547.332835 178.456383 
L 549.473907 180.080586 
L 551.971825 181.673414 
L 554.469742 182.985359 
L 556.967659 184.056794 
L 559.822422 185.035947 
L 563.034029 185.878802 
L 566.245637 186.497612 
L 569.814091 186.971042 
L 574.096234 187.301574 
L 579.092069 187.439342 
L 585.515285 187.366882 
L 594.436418 187.030917 
L 606.926004 186.314254 
L 641.54 184.206236 
L 658.668576 183.610775 
L 685.075129 182.919934 
L 734.319784 181.892905 
L 775.000151 181.131119 
L 775.000151 181.131119 
" clip-path="url(#pcb534eda79)" style="fill: none; stroke: #4c72b0; stroke-opacity: 0.9; stroke-width: 3; stroke-linecap: round"/>
   </g>
   <g id="line2d_20">
    <path d="M 514.859911 86.891727 
L 517.000983 92.865066 
L 521.996818 106.704787 
L 524.137889 111.745588 
L 526.278961 116.138415 
L 528.420033 119.9644 
L 530.561105 123.294437 
L 532.702177 126.190397 
L 534.843249 128.706415 
L 536.984321 130.889857 
L 539.125393 132.782182 
L 541.62331 134.670114 
L 544.121227 136.260954 
L 546.619145 137.597378 
L 549.473907 138.859708 
L 552.32867 139.883273 
L 555.540278 140.797489 
L 559.108731 141.572259 
L 563.034029 142.190704 
L 567.673019 142.685542 
L 573.025698 143.02161 
L 579.448914 143.187748 
L 588.013202 143.167016 
L 601.216479 142.894479 
L 623.340889 142.182576 
L 647.249525 141.449258 
L 669.373935 141.043894 
L 728.253413 140.237543 
L 775.000151 139.658647 
L 775.000151 139.658647 
" clip-path="url(#pcb534eda79)" style="fill: none; stroke: #dd8452; stroke-opacity: 0.9; stroke-width: 3; stroke-linecap: round"/>
   </g>
   <g id="line2d_21">
    <path d="M 514.859911 86.891727 
L 516.644138 96.501034 
L 521.639972 123.447495 
L 523.424199 131.810773 
L 525.208425 139.264272 
L 526.992652 145.903683 
L 528.776879 151.814733 
L 530.561105 157.074036 
L 532.345332 161.75046 
L 534.129558 165.905525 
L 535.913785 169.593933 
L 538.054857 173.472514 
L 540.195929 176.824197 
L 542.337001 179.714545 
L 544.478073 182.200836 
L 546.619145 184.333374 
L 548.760217 186.156103 
L 550.901289 187.707625 
L 553.399206 189.220219 
L 555.897123 190.457052 
L 558.39504 191.458465 
L 561.249803 192.358432 
L 564.461411 193.110855 
L 568.029864 193.687408 
L 571.955163 194.075613 
L 576.237306 194.270857 
L 581.589986 194.288861 
L 588.013202 194.087533 
L 596.57749 193.588192 
L 612.278684 192.395966 
L 624.76827 191.562832 
L 637.614702 190.940071 
L 654.029586 190.380638 
L 674.012924 189.931434 
L 715.406982 189.259484 
L 775.000151 188.3946 
L 775.000151 188.3946 
" clip-path="url(#pcb534eda79)" style="fill: none; stroke: #55a868; stroke-opacity: 0.9; stroke-width: 3; stroke-linecap: round"/>
   </g>
   <g id="line2d_22">
    <path d="M 514.859911 86.891727 
L 516.644138 94.450639 
L 521.639972 115.653791 
L 523.424199 122.237446 
L 525.208425 128.105584 
L 526.992652 133.333384 
L 528.776879 137.988221 
L 530.917951 142.902035 
L 533.059022 147.169242 
L 535.200094 150.870474 
L 537.341166 154.076235 
L 539.482238 156.848189 
L 541.62331 159.240355 
L 543.764382 161.299974 
L 545.905454 163.068358 
L 548.046526 164.581704 
L 550.544443 166.067138 
L 553.04236 167.292306 
L 555.897123 168.422166 
L 558.751886 169.309962 
L 561.963494 170.069569 
L 565.531947 170.672283 
L 569.457245 171.105071 
L 574.096234 171.380668 
L 579.80576 171.47309 
L 586.942666 171.35506 
L 596.220644 170.962726 
L 637.614702 168.928198 
L 659.025421 168.336808 
L 682.934058 167.928151 
L 746.095679 167.116724 
L 775.000151 166.762714 
L 775.000151 166.762714 
" clip-path="url(#pcb534eda79)" style="fill: none; stroke: #c44e52; stroke-opacity: 0.9; stroke-width: 3; stroke-linecap: round"/>
   </g>
   <g id="line2d_23">
    <path d="M 514.859911 86.891727 
L 517.357828 99.10153 
L 521.639972 119.785144 
L 523.424199 127.280101 
L 525.208425 133.96183 
L 526.992652 139.916009 
L 528.776879 145.219255 
L 530.561105 149.940078 
L 532.345332 154.139737 
L 534.486404 158.568108 
L 536.627476 162.408363 
L 538.768548 165.733789 
L 540.90962 168.60848 
L 543.050691 171.088477 
L 545.191763 173.222778 
L 547.332835 175.054232 
L 549.473907 176.620338 
L 551.971825 178.155666 
L 554.469742 179.419506 
L 556.967659 180.450475 
L 559.822422 181.385896 
L 563.034029 182.178852 
L 566.245637 182.744965 
L 569.814091 183.160807 
L 574.096234 183.423837 
L 579.092069 183.485295 
L 585.515285 183.316378 
L 593.722727 182.858412 
L 605.855468 181.924837 
L 642.253691 179.056343 
L 659.739112 177.88755 
L 673.656079 177.240433 
L 694.709953 176.497776 
L 726.112341 175.66718 
L 775.000151 174.578608 
L 775.000151 174.578608 
" clip-path="url(#pcb534eda79)" style="fill: none; stroke: #8172b3; stroke-opacity: 0.9; stroke-width: 3; stroke-linecap: round"/>
   </g>
   <g id="line2d_24">
    <path d="M 514.859911 86.891727 
L 517.714674 98.034222 
L 521.639972 113.121808 
L 523.424199 119.097781 
L 525.208425 124.426071 
L 526.992652 129.174936 
L 529.133724 134.194219 
L 531.274796 138.560047 
L 533.415868 142.35406 
L 535.55694 145.647649 
L 537.698012 148.50325 
L 539.839084 150.975487 
L 541.980156 153.112193 
L 544.121227 154.955156 
L 546.619145 156.782467 
L 549.117062 158.309667 
L 551.614979 159.579683 
L 554.469742 160.763057 
L 557.324504 161.705066 
L 560.536112 162.524861 
L 564.104565 163.190845 
L 568.029864 163.685682 
L 572.312008 164.004716 
L 577.307842 164.156233 
L 583.731058 164.111171 
L 592.652191 163.797588 
L 607.99654 162.987782 
L 647.963216 160.803203 
L 663.66441 160.162109 
L 687.216201 159.447114 
L 721.830198 158.63431 
L 775.000151 157.624353 
L 775.000151 157.624353 
" clip-path="url(#pcb534eda79)" style="fill: none; stroke: #937860; stroke-opacity: 0.9; stroke-width: 3; stroke-linecap: round"/>
   </g>
   <g id="patch_6">
    <path d="M 501.852899 201.042 
L 501.852899 81.456 
" style="fill: none; stroke: #ffffff; stroke-width: 1.25; stroke-linejoin: miter; stroke-linecap: square"/>
   </g>
   <g id="patch_7">
    <path d="M 501.852899 201.042 
L 788.007162 201.042 
" style="fill: none; stroke: #ffffff; stroke-width: 1.25; stroke-linejoin: miter; stroke-linecap: square"/>
   </g>
   <g id="text_5">
    <!-- 0.8~365 -->
    <g style="fill: #262626" transform="translate(590.283437 75.456) scale(0.252 -0.252)">
     <defs>
      <path id="DejaVuSans-33" d="M 2597 2516 
Q 3050 2419 3304 2112 
Q 3559 1806 3559 1356 
Q 3559 666 3084 287 
Q 2609 -91 1734 -91 
Q 1441 -91 1130 -33 
Q 819 25 488 141 
L 488 750 
Q 750 597 1062 519 
Q 1375 441 1716 441 
Q 2309 441 2620 675 
Q 2931 909 2931 1356 
Q 2931 1769 2642 2001 
Q 2353 2234 1838 2234 
L 1294 2234 
L 1294 2753 
L 1863 2753 
Q 2328 2753 2575 2939 
Q 2822 3125 2822 3475 
Q 2822 3834 2567 4026 
Q 2313 4219 1838 4219 
Q 1578 4219 1281 4162 
Q 984 4106 628 3988 
L 628 4550 
Q 988 4650 1302 4700 
Q 1616 4750 1894 4750 
Q 2613 4750 3031 4423 
Q 3450 4097 3450 3541 
Q 3450 3153 3228 2886 
Q 3006 2619 2597 2516 
z
" transform="scale(0.015625)"/>
      <path id="DejaVuSans-36" d="M 2113 2584 
Q 1688 2584 1439 2293 
Q 1191 2003 1191 1497 
Q 1191 994 1439 701 
Q 1688 409 2113 409 
Q 2538 409 2786 701 
Q 3034 994 3034 1497 
Q 3034 2003 2786 2293 
Q 2538 2584 2113 2584 
z
M 3366 4563 
L 3366 3988 
Q 3128 4100 2886 4159 
Q 2644 4219 2406 4219 
Q 1781 4219 1451 3797 
Q 1122 3375 1075 2522 
Q 1259 2794 1537 2939 
Q 1816 3084 2150 3084 
Q 2853 3084 3261 2657 
Q 3669 2231 3669 1497 
Q 3669 778 3244 343 
Q 2819 -91 2113 -91 
Q 1303 -91 875 529 
Q 447 1150 447 2328 
Q 447 3434 972 4092 
Q 1497 4750 2381 4750 
Q 2619 4750 2861 4703 
Q 3103 4656 3366 4563 
z
" transform="scale(0.015625)"/>
     </defs>
     <use xlink:href="#DejaVuSans-30"/>
     <use xlink:href="#DejaVuSans-2e" x="63.623047"/>
     <use xlink:href="#DejaVuSans-38" x="95.410156"/>
     <use xlink:href="#DejaVuSans-7e" x="159.033203"/>
     <use xlink:href="#DejaVuSans-33" x="242.822266"/>
     <use xlink:href="#DejaVuSans-36" x="306.445312"/>
     <use xlink:href="#DejaVuSans-35" x="370.068359"/>
    </g>
   </g>
  </g>
  <g id="axes_3">
   <g id="patch_8">
    <path d="M 814.45531 201.042 
L 1100.609573 201.042 
L 1100.609573 81.456 
L 814.45531 81.456 
z
" style="fill: #eaeaf2"/>
   </g>
   <g id="matplotlib.axis_5">
    <g id="xtick_9">
     <g id="line2d_25">
      <path d="M 827.462322 201.042 
L 827.462322 81.456 
" clip-path="url(#p74c236af83)" style="fill: none; stroke: #ffffff; stroke-linecap: round"/>
     </g>
    </g>
    <g id="xtick_10">
     <g id="line2d_26">
      <path d="M 916.673652 201.042 
L 916.673652 81.456 
" clip-path="url(#p74c236af83)" style="fill: none; stroke: #ffffff; stroke-linecap: round"/>
     </g>
    </g>
    <g id="xtick_11">
     <g id="line2d_27">
      <path d="M 1005.884983 201.042 
L 1005.884983 81.456 
" clip-path="url(#p74c236af83)" style="fill: none; stroke: #ffffff; stroke-linecap: round"/>
     </g>
    </g>
    <g id="xtick_12">
     <g id="line2d_28">
      <path d="M 1095.096313 201.042 
L 1095.096313 81.456 
" clip-path="url(#p74c236af83)" style="fill: none; stroke: #ffffff; stroke-linecap: round"/>
     </g>
    </g>
   </g>
   <g id="matplotlib.axis_6">
    <g id="ytick_5">
     <g id="line2d_29">
      <path d="M 814.45531 149.643079 
L 1100.609573 149.643079 
" clip-path="url(#p74c236af83)" style="fill: none; stroke: #ffffff; stroke-linecap: round"/>
     </g>
    </g>
    <g id="ytick_6">
     <g id="line2d_30">
      <path d="M 814.45531 86.891727 
L 1100.609573 86.891727 
" clip-path="url(#p74c236af83)" style="fill: none; stroke: #ffffff; stroke-linecap: round"/>
     </g>
    </g>
   </g>
   <g id="PolyCollection_13"/>
   <g id="PolyCollection_14"/>
   <g id="PolyCollection_15"/>
   <g id="PolyCollection_16"/>
   <g id="PolyCollection_17"/>
   <g id="PolyCollection_18"/>
   <g id="line2d_31">
    <path d="M 827.462322 86.891727 
L 830.67393 103.109761 
L 834.242383 120.620961 
L 836.02661 128.182256 
L 837.810836 134.851211 
L 839.595063 140.722248 
L 841.37929 145.879637 
L 843.163516 150.398572 
L 844.947743 154.346215 
L 846.731969 157.784145 
L 848.516196 160.767316 
L 850.300423 163.343553 
L 852.084649 165.556137 
L 853.868876 167.451037 
L 855.653102 169.063925 
L 857.794174 170.670538 
L 859.935246 171.964491 
L 862.076318 172.984728 
L 864.21739 173.765214 
L 866.715307 174.412271 
L 869.213225 174.814768 
L 872.067987 175.045717 
L 875.63644 175.10245 
L 879.561739 174.934902 
L 884.200728 174.498796 
L 889.553408 173.765355 
L 898.474541 172.265996 
L 907.038829 170.96595 
L 917.744188 169.58183 
L 931.661156 168.012438 
L 948.432886 166.372164 
L 961.993008 165.252368 
L 990.540634 163.171511 
L 1087.602561 156.407122 
L 1087.602561 156.407122 
" clip-path="url(#p74c236af83)" style="fill: none; stroke: #4c72b0; stroke-opacity: 0.9; stroke-width: 3; stroke-linecap: round"/>
   </g>
   <g id="line2d_32">
    <path d="M 827.462322 86.891727 
L 829.603394 92.849809 
L 834.242383 105.610801 
L 836.02661 109.844421 
L 837.810836 113.58585 
L 839.595063 116.88704 
L 841.37929 119.794604 
L 843.520362 122.822394 
L 845.661433 125.40638 
L 847.802505 127.601897 
L 849.943577 129.457368 
L 852.084649 131.015373 
L 854.225721 132.314445 
L 856.723638 133.546847 
L 859.221556 134.523505 
L 862.076318 135.380104 
L 864.931081 136.005818 
L 868.142689 136.480119 
L 871.711142 136.776485 
L 876.350131 136.918958 
L 881.702811 136.856367 
L 888.126027 136.554297 
L 896.333469 135.930027 
L 918.457879 134.130264 
L 933.088537 133.164896 
L 964.13408 131.408566 
L 993.752242 129.939752 
L 1056.200173 127.078776 
L 1087.602561 125.646784 
L 1087.602561 125.646784 
" clip-path="url(#p74c236af83)" style="fill: none; stroke: #dd8452; stroke-opacity: 0.9; stroke-width: 3; stroke-linecap: round"/>
   </g>
   <g id="line2d_33">
    <path d="M 827.462322 86.891727 
L 829.246549 96.478771 
L 833.885538 121.294578 
L 835.669764 129.615032 
L 837.453991 136.952895 
L 839.238218 143.411545 
L 841.022444 149.084037 
L 842.806671 154.053885 
L 844.590897 158.395067 
L 846.375124 162.173534 
L 848.159351 165.448614 
L 849.943577 168.273978 
L 851.727804 170.697771 
L 853.512031 172.763563 
L 855.296257 174.509845 
L 857.080484 175.971367 
L 858.86471 177.179663 
L 861.005782 178.338113 
L 863.146854 179.222866 
L 865.287926 179.870934 
L 867.785843 180.367783 
L 870.640606 180.659923 
L 873.495369 180.731006 
L 876.706976 180.600356 
L 880.632275 180.208385 
L 885.271264 179.509968 
L 908.823055 175.580208 
L 918.457879 174.312433 
L 927.379012 173.368671 
L 939.154908 172.361106 
L 955.926638 171.175931 
L 984.474264 169.418027 
L 1087.602561 163.40816 
L 1087.602561 163.40816 
" clip-path="url(#p74c236af83)" style="fill: none; stroke: #55a868; stroke-opacity: 0.9; stroke-width: 3; stroke-linecap: round"/>
   </g>
   <g id="line2d_34">
    <path d="M 827.462322 86.891727 
L 829.246549 94.432965 
L 833.885538 113.955943 
L 835.669764 120.503806 
L 837.453991 126.278775 
L 839.238218 131.362136 
L 841.022444 135.826887 
L 842.806671 139.738216 
L 844.590897 143.154276 
L 846.375124 146.127154 
L 848.159351 148.703656 
L 849.943577 150.925568 
L 851.727804 152.831004 
L 853.512031 154.454702 
L 855.653102 156.074687 
L 857.794174 157.380559 
L 859.935246 158.414773 
L 862.076318 159.215977 
L 864.574235 159.901 
L 867.072153 160.356122 
L 869.926915 160.644504 
L 873.138523 160.754201 
L 877.063822 160.646088 
L 881.702811 160.266702 
L 887.769181 159.517348 
L 904.897757 157.342906 
L 917.387343 155.981787 
L 927.379012 155.105994 
L 940.582289 154.187724 
L 960.922472 153.021593 
L 1003.03022 150.888992 
L 1087.602561 146.704111 
L 1087.602561 146.704111 
" clip-path="url(#p74c236af83)" style="fill: none; stroke: #c44e52; stroke-opacity: 0.9; stroke-width: 3; stroke-linecap: round"/>
   </g>
   <g id="line2d_35">
    <path d="M 827.462322 86.891727 
L 829.960239 99.056005 
L 834.242383 119.411549 
L 836.02661 126.682464 
L 837.810836 133.096485 
L 839.595063 138.744342 
L 841.37929 143.707046 
L 843.163516 148.056956 
L 844.947743 151.858679 
L 846.731969 155.170015 
L 848.516196 158.042689 
L 850.300423 160.522841 
L 852.084649 162.651806 
L 853.868876 164.466414 
L 855.653102 165.999918 
L 857.437329 167.282359 
L 859.578401 168.526497 
L 861.719473 169.490703 
L 863.860545 170.211845 
L 866.001617 170.71965 
L 868.499534 171.07913 
L 871.354297 171.244883 
L 874.565904 171.197481 
L 878.134358 170.917078 
L 882.416502 170.350781 
L 887.769181 169.415687 
L 895.262933 167.867313 
L 918.457879 162.897577 
L 925.951631 161.673921 
L 936.300145 160.230572 
L 946.648659 159.021363 
L 960.208782 157.683298 
L 974.83944 156.487048 
L 1001.245994 154.578975 
L 1075.469821 149.512634 
L 1087.602561 148.688473 
L 1087.602561 148.688473 
" clip-path="url(#p74c236af83)" style="fill: none; stroke: #8172b3; stroke-opacity: 0.9; stroke-width: 3; stroke-linecap: round"/>
   </g>
   <g id="line2d_36">
    <path d="M 827.462322 86.891727 
L 830.67393 99.37461 
L 834.242383 112.836205 
L 836.02661 118.640849 
L 837.810836 123.764476 
L 839.595063 128.279272 
L 841.37929 132.249798 
L 843.163516 135.733675 
L 844.947743 138.782451 
L 846.731969 141.442136 
L 848.516196 143.753741 
L 850.300423 145.753953 
L 852.441495 147.789663 
L 854.582566 149.475211 
L 856.723638 150.854146 
L 858.86471 151.964518 
L 861.005782 152.842133 
L 863.5037 153.612116 
L 866.001617 154.146581 
L 868.856379 154.514151 
L 872.067987 154.679457 
L 875.63644 154.64214 
L 880.27543 154.355976 
L 885.984955 153.75956 
L 893.121861 152.77345 
L 905.611447 150.776666 
L 915.246271 149.296766 
L 925.23794 148.003903 
L 938.084372 146.576549 
L 951.644494 145.284275 
L 968.416224 143.991532 
L 991.968015 142.442394 
L 1049.420112 138.946713 
L 1087.602561 136.654836 
L 1087.602561 136.654836 
" clip-path="url(#p74c236af83)" style="fill: none; stroke: #937860; stroke-opacity: 0.9; stroke-width: 3; stroke-linecap: round"/>
   </g>
   <g id="patch_9">
    <path d="M 814.45531 201.042 
L 814.45531 81.456 
" style="fill: none; stroke: #ffffff; stroke-width: 1.25; stroke-linejoin: miter; stroke-linecap: square"/>
   </g>
   <g id="patch_10">
    <path d="M 814.45531 201.042 
L 1100.609573 201.042 
" style="fill: none; stroke: #ffffff; stroke-width: 1.25; stroke-linejoin: miter; stroke-linecap: square"/>
   </g>
   <g id="text_6">
    <!-- 0.85~90 -->
    <g style="fill: #262626" transform="translate(902.885848 75.456) scale(0.252 -0.252)">
     <use xlink:href="#DejaVuSans-30"/>
     <use xlink:href="#DejaVuSans-2e" x="63.623047"/>
     <use xlink:href="#DejaVuSans-38" x="95.410156"/>
     <use xlink:href="#DejaVuSans-35" x="159.033203"/>
     <use xlink:href="#DejaVuSans-7e" x="222.65625"/>
     <use xlink:href="#DejaVuSans-39" x="306.445312"/>
     <use xlink:href="#DejaVuSans-30" x="370.068359"/>
    </g>
   </g>
  </g>
  <g id="axes_4">
   <g id="patch_11">
    <path d="M 189.250488 373.284 
L 475.404752 373.284 
L 475.404752 253.698 
L 189.250488 253.698 
z
" style="fill: #eaeaf2"/>
   </g>
   <g id="matplotlib.axis_7">
    <g id="xtick_13">
     <g id="line2d_37">
      <path d="M 202.2575 373.284 
L 202.2575 253.698 
" clip-path="url(#pcdc6545e05)" style="fill: none; stroke: #ffffff; stroke-linecap: round"/>
     </g>
     <g id="text_7">
      <!-- 0 -->
      <g style="fill: #262626" transform="translate(194.908813 400.336391) scale(0.231 -0.231)">
       <use xlink:href="#DejaVuSans-30"/>
      </g>
     </g>
    </g>
    <g id="xtick_14">
     <g id="line2d_38">
      <path d="M 291.468831 373.284 
L 291.468831 253.698 
" clip-path="url(#pcdc6545e05)" style="fill: none; stroke: #ffffff; stroke-linecap: round"/>
     </g>
     <g id="text_8">
      <!-- 250 -->
      <g style="fill: #262626" transform="translate(269.422768 400.336391) scale(0.231 -0.231)">
       <defs>
        <path id="DejaVuSans-32" d="M 1228 531 
L 3431 531 
L 3431 0 
L 469 0 
L 469 531 
Q 828 903 1448 1529 
Q 2069 2156 2228 2338 
Q 2531 2678 2651 2914 
Q 2772 3150 2772 3378 
Q 2772 3750 2511 3984 
Q 2250 4219 1831 4219 
Q 1534 4219 1204 4116 
Q 875 4013 500 3803 
L 500 4441 
Q 881 4594 1212 4672 
Q 1544 4750 1819 4750 
Q 2544 4750 2975 4387 
Q 3406 4025 3406 3419 
Q 3406 3131 3298 2873 
Q 3191 2616 2906 2266 
Q 2828 2175 2409 1742 
Q 1991 1309 1228 531 
z
" transform="scale(0.015625)"/>
       </defs>
       <use xlink:href="#DejaVuSans-32"/>
       <use xlink:href="#DejaVuSans-35" x="63.623047"/>
       <use xlink:href="#DejaVuSans-30" x="127.246094"/>
      </g>
     </g>
    </g>
    <g id="xtick_15">
     <g id="line2d_39">
      <path d="M 380.680161 373.284 
L 380.680161 253.698 
" clip-path="url(#pcdc6545e05)" style="fill: none; stroke: #ffffff; stroke-linecap: round"/>
     </g>
     <g id="text_9">
      <!-- 500 -->
      <g style="fill: #262626" transform="translate(358.634098 400.336391) scale(0.231 -0.231)">
       <use xlink:href="#DejaVuSans-35"/>
       <use xlink:href="#DejaVuSans-30" x="63.623047"/>
       <use xlink:href="#DejaVuSans-30" x="127.246094"/>
      </g>
     </g>
    </g>
    <g id="xtick_16">
     <g id="line2d_40">
      <path d="M 469.891491 373.284 
L 469.891491 253.698 
" clip-path="url(#pcdc6545e05)" style="fill: none; stroke: #ffffff; stroke-linecap: round"/>
     </g>
     <g id="text_10">
      <!-- 750 -->
      <g style="fill: #262626" transform="translate(447.845429 400.336391) scale(0.231 -0.231)">
       <defs>
        <path id="DejaVuSans-37" d="M 525 4666 
L 3525 4666 
L 3525 4397 
L 1831 0 
L 1172 0 
L 2766 4134 
L 525 4134 
L 525 4666 
z
" transform="scale(0.015625)"/>
       </defs>
       <use xlink:href="#DejaVuSans-37"/>
       <use xlink:href="#DejaVuSans-35" x="63.623047"/>
       <use xlink:href="#DejaVuSans-30" x="127.246094"/>
      </g>
     </g>
    </g>
    <g id="text_11">
     <!-- step -->
     <g style="fill: #262626" transform="translate(305.072245 428.288531) scale(0.252 -0.252)">
      <defs>
       <path id="DejaVuSans-73" d="M 2834 3397 
L 2834 2853 
Q 2591 2978 2328 3040 
Q 2066 3103 1784 3103 
Q 1356 3103 1142 2972 
Q 928 2841 928 2578 
Q 928 2378 1081 2264 
Q 1234 2150 1697 2047 
L 1894 2003 
Q 2506 1872 2764 1633 
Q 3022 1394 3022 966 
Q 3022 478 2636 193 
Q 2250 -91 1575 -91 
Q 1294 -91 989 -36 
Q 684 19 347 128 
L 347 722 
Q 666 556 975 473 
Q 1284 391 1588 391 
Q 1994 391 2212 530 
Q 2431 669 2431 922 
Q 2431 1156 2273 1281 
Q 2116 1406 1581 1522 
L 1381 1569 
Q 847 1681 609 1914 
Q 372 2147 372 2553 
Q 372 3047 722 3315 
Q 1072 3584 1716 3584 
Q 2034 3584 2315 3537 
Q 2597 3491 2834 3397 
z
" transform="scale(0.015625)"/>
       <path id="DejaVuSans-74" d="M 1172 4494 
L 1172 3500 
L 2356 3500 
L 2356 3053 
L 1172 3053 
L 1172 1153 
Q 1172 725 1289 603 
Q 1406 481 1766 481 
L 2356 481 
L 2356 0 
L 1766 0 
Q 1100 0 847 248 
Q 594 497 594 1153 
L 594 3053 
L 172 3053 
L 172 3500 
L 594 3500 
L 594 4494 
L 1172 4494 
z
" transform="scale(0.015625)"/>
       <path id="DejaVuSans-70" d="M 1159 525 
L 1159 -1331 
L 581 -1331 
L 581 3500 
L 1159 3500 
L 1159 2969 
Q 1341 3281 1617 3432 
Q 1894 3584 2278 3584 
Q 2916 3584 3314 3078 
Q 3713 2572 3713 1747 
Q 3713 922 3314 415 
Q 2916 -91 2278 -91 
Q 1894 -91 1617 61 
Q 1341 213 1159 525 
z
M 3116 1747 
Q 3116 2381 2855 2742 
Q 2594 3103 2138 3103 
Q 1681 3103 1420 2742 
Q 1159 2381 1159 1747 
Q 1159 1113 1420 752 
Q 1681 391 2138 391 
Q 2594 391 2855 752 
Q 3116 1113 3116 1747 
z
" transform="scale(0.015625)"/>
      </defs>
      <use xlink:href="#DejaVuSans-73"/>
      <use xlink:href="#DejaVuSans-74" x="52.099609"/>
      <use xlink:href="#DejaVuSans-65" x="91.308594"/>
      <use xlink:href="#DejaVuSans-70" x="152.832031"/>
     </g>
    </g>
   </g>
   <g id="matplotlib.axis_8">
    <g id="ytick_7">
     <g id="line2d_41">
      <path d="M 189.250488 321.885079 
L 475.404752 321.885079 
" clip-path="url(#pcdc6545e05)" style="fill: none; stroke: #ffffff; stroke-linecap: round"/>
     </g>
     <g id="text_12">
      <!-- −0.05 -->
      <g style="fill: #262626" transform="translate(108.959816 330.661274) scale(0.231 -0.231)">
       <use xlink:href="#DejaVuSans-2212"/>
       <use xlink:href="#DejaVuSans-30" x="83.789062"/>
       <use xlink:href="#DejaVuSans-2e" x="147.412109"/>
       <use xlink:href="#DejaVuSans-30" x="179.199219"/>
       <use xlink:href="#DejaVuSans-35" x="242.822266"/>
      </g>
     </g>
    </g>
    <g id="ytick_8">
     <g id="line2d_42">
      <path d="M 189.250488 259.133727 
L 475.404752 259.133727 
" clip-path="url(#pcdc6545e05)" style="fill: none; stroke: #ffffff; stroke-linecap: round"/>
     </g>
     <g id="text_13">
      <!-- 0.00 -->
      <g style="fill: #262626" transform="translate(128.316894 267.909923) scale(0.231 -0.231)">
       <use xlink:href="#DejaVuSans-30"/>
       <use xlink:href="#DejaVuSans-2e" x="63.623047"/>
       <use xlink:href="#DejaVuSans-30" x="95.410156"/>
       <use xlink:href="#DejaVuSans-30" x="159.033203"/>
      </g>
     </g>
    </g>
    <g id="text_14">
     <!-- % change -->
     <g style="fill: #262626" transform="translate(99.719004 375.839344) rotate(-90) scale(0.252 -0.252)">
      <use xlink:href="#DejaVuSans-25"/>
      <use xlink:href="#DejaVuSans-20" x="95.019531"/>
      <use xlink:href="#DejaVuSans-63" x="126.806641"/>
      <use xlink:href="#DejaVuSans-68" x="181.787109"/>
      <use xlink:href="#DejaVuSans-61" x="245.166016"/>
      <use xlink:href="#DejaVuSans-6e" x="306.445312"/>
      <use xlink:href="#DejaVuSans-67" x="369.824219"/>
      <use xlink:href="#DejaVuSans-65" x="433.300781"/>
     </g>
    </g>
   </g>
   <g id="PolyCollection_19"/>
   <g id="PolyCollection_20"/>
   <g id="PolyCollection_21"/>
   <g id="PolyCollection_22"/>
   <g id="PolyCollection_23"/>
   <g id="PolyCollection_24"/>
   <g id="line2d_43">
    <path d="M 202.2575 259.133727 
L 205.112263 273.61046 
L 209.037561 293.250666 
L 210.821788 301.047021 
L 212.606014 307.996831 
L 214.390241 314.189247 
L 216.174468 319.703986 
L 217.958694 324.612317 
L 219.742921 328.978077 
L 221.883993 333.580698 
L 224.025065 337.57104 
L 226.166137 341.025375 
L 228.307209 344.010424 
L 230.448281 346.584571 
L 232.589352 348.798917 
L 234.730424 350.698383 
L 236.871496 352.322586 
L 239.369414 353.915414 
L 241.867331 355.227359 
L 244.365248 356.298794 
L 247.220011 357.277947 
L 250.431619 358.120802 
L 253.643226 358.739612 
L 257.21168 359.213042 
L 261.493823 359.543574 
L 266.489658 359.681342 
L 272.912874 359.608882 
L 281.834007 359.272917 
L 294.323593 358.556254 
L 328.937589 356.448236 
L 346.066165 355.852775 
L 372.472719 355.161934 
L 421.717373 354.134905 
L 462.39774 353.373119 
L 462.39774 353.373119 
" clip-path="url(#pcdc6545e05)" style="fill: none; stroke: #4c72b0; stroke-opacity: 0.9; stroke-width: 3; stroke-linecap: round"/>
   </g>
   <g id="line2d_44">
    <path d="M 202.2575 259.133727 
L 204.398572 265.107066 
L 209.394407 278.946787 
L 211.535478 283.987588 
L 213.67655 288.380415 
L 215.817622 292.2064 
L 217.958694 295.536437 
L 220.099766 298.432397 
L 222.240838 300.948415 
L 224.38191 303.131857 
L 226.522982 305.024182 
L 229.020899 306.912114 
L 231.518816 308.502954 
L 234.016734 309.839378 
L 236.871496 311.101708 
L 239.726259 312.125273 
L 242.937867 313.039489 
L 246.50632 313.814259 
L 250.431619 314.432704 
L 255.070608 314.927542 
L 260.423288 315.26361 
L 266.846503 315.429748 
L 275.410791 315.409016 
L 288.614068 315.136479 
L 310.738478 314.424576 
L 334.647114 313.691258 
L 356.771524 313.285894 
L 415.651002 312.479543 
L 462.39774 311.900647 
L 462.39774 311.900647 
" clip-path="url(#pcdc6545e05)" style="fill: none; stroke: #dd8452; stroke-opacity: 0.9; stroke-width: 3; stroke-linecap: round"/>
   </g>
   <g id="line2d_45">
    <path d="M 202.2575 259.133727 
L 204.041727 268.743034 
L 209.037561 295.689495 
L 210.821788 304.052773 
L 212.606014 311.506272 
L 214.390241 318.145683 
L 216.174468 324.056733 
L 217.958694 329.316036 
L 219.742921 333.99246 
L 221.527147 338.147525 
L 223.311374 341.835933 
L 225.452446 345.714514 
L 227.593518 349.066197 
L 229.73459 351.956545 
L 231.875662 354.442836 
L 234.016734 356.575374 
L 236.157806 358.398103 
L 238.298878 359.949625 
L 240.796795 361.462219 
L 243.294712 362.699052 
L 245.792629 363.700465 
L 248.647392 364.600432 
L 251.859 365.352855 
L 255.427453 365.929408 
L 259.352752 366.317613 
L 263.634895 366.512857 
L 268.987575 366.530861 
L 275.410791 366.329533 
L 283.975079 365.830192 
L 299.676273 364.637966 
L 312.165859 363.804832 
L 325.012291 363.182071 
L 341.427176 362.622638 
L 361.410514 362.173434 
L 402.804571 361.501484 
L 462.39774 360.6366 
L 462.39774 360.6366 
" clip-path="url(#pcdc6545e05)" style="fill: none; stroke: #55a868; stroke-opacity: 0.9; stroke-width: 3; stroke-linecap: round"/>
   </g>
   <g id="line2d_46">
    <path d="M 202.2575 259.133727 
L 204.041727 266.692639 
L 209.037561 287.895791 
L 210.821788 294.479446 
L 212.606014 300.347584 
L 214.390241 305.575384 
L 216.174468 310.230221 
L 218.31554 315.144035 
L 220.456612 319.411242 
L 222.597683 323.112474 
L 224.738755 326.318235 
L 226.879827 329.090189 
L 229.020899 331.482355 
L 231.161971 333.541974 
L 233.303043 335.310358 
L 235.444115 336.823704 
L 237.942032 338.309138 
L 240.43995 339.534306 
L 243.294712 340.664166 
L 246.149475 341.551962 
L 249.361083 342.311569 
L 252.929536 342.914283 
L 256.854834 343.347071 
L 261.493823 343.622668 
L 267.203349 343.71509 
L 274.340255 343.59706 
L 283.618233 343.204726 
L 325.012291 341.170198 
L 346.42301 340.578808 
L 370.331647 340.170151 
L 433.493269 339.358724 
L 462.39774 339.004714 
L 462.39774 339.004714 
" clip-path="url(#pcdc6545e05)" style="fill: none; stroke: #c44e52; stroke-opacity: 0.9; stroke-width: 3; stroke-linecap: round"/>
   </g>
   <g id="line2d_47">
    <path d="M 202.2575 259.133727 
L 204.755417 271.34353 
L 209.037561 292.027144 
L 210.821788 299.522101 
L 212.606014 306.20383 
L 214.390241 312.158009 
L 216.174468 317.461255 
L 217.958694 322.182078 
L 219.742921 326.381737 
L 221.883993 330.810108 
L 224.025065 334.650363 
L 226.166137 337.975789 
L 228.307209 340.85048 
L 230.448281 343.330477 
L 232.589352 345.464778 
L 234.730424 347.296232 
L 236.871496 348.862338 
L 239.369414 350.397666 
L 241.867331 351.661506 
L 244.365248 352.692475 
L 247.220011 353.627896 
L 250.431619 354.420852 
L 253.643226 354.986965 
L 257.21168 355.402807 
L 261.493823 355.665837 
L 266.489658 355.727295 
L 272.912874 355.558378 
L 281.120316 355.100412 
L 293.253057 354.166837 
L 329.65128 351.298343 
L 347.136701 350.12955 
L 361.053668 349.482433 
L 382.107542 348.739776 
L 413.50993 347.90918 
L 462.39774 346.820608 
L 462.39774 346.820608 
" clip-path="url(#pcdc6545e05)" style="fill: none; stroke: #8172b3; stroke-opacity: 0.9; stroke-width: 3; stroke-linecap: round"/>
   </g>
   <g id="line2d_48">
    <path d="M 202.2575 259.133727 
L 205.112263 270.276222 
L 209.037561 285.363808 
L 210.821788 291.339781 
L 212.606014 296.668071 
L 214.390241 301.416936 
L 216.531313 306.436219 
L 218.672385 310.802047 
L 220.813457 314.59606 
L 222.954529 317.889649 
L 225.095601 320.74525 
L 227.236673 323.217487 
L 229.377745 325.354193 
L 231.518816 327.197156 
L 234.016734 329.024467 
L 236.514651 330.551667 
L 239.012568 331.821683 
L 241.867331 333.005057 
L 244.722093 333.947066 
L 247.933701 334.766861 
L 251.502154 335.432845 
L 255.427453 335.927682 
L 259.709597 336.246716 
L 264.705431 336.398233 
L 271.128647 336.353171 
L 280.04978 336.039588 
L 295.394129 335.229782 
L 335.360805 333.045203 
L 351.061999 332.404109 
L 374.61379 331.689114 
L 409.227787 330.87631 
L 462.39774 329.866353 
L 462.39774 329.866353 
" clip-path="url(#pcdc6545e05)" style="fill: none; stroke: #937860; stroke-opacity: 0.9; stroke-width: 3; stroke-linecap: round"/>
   </g>
   <g id="patch_12">
    <path d="M 189.250488 373.284 
L 189.250488 253.698 
" style="fill: none; stroke: #ffffff; stroke-width: 1.25; stroke-linejoin: miter; stroke-linecap: square"/>
   </g>
   <g id="patch_13">
    <path d="M 189.250488 373.284 
L 475.404752 373.284 
" style="fill: none; stroke: #ffffff; stroke-width: 1.25; stroke-linejoin: miter; stroke-linecap: square"/>
   </g>
   <g id="text_15">
    <!-- 0.85~365 -->
    <g style="fill: #262626" transform="translate(269.664276 247.698) scale(0.252 -0.252)">
     <use xlink:href="#DejaVuSans-30"/>
     <use xlink:href="#DejaVuSans-2e" x="63.623047"/>
     <use xlink:href="#DejaVuSans-38" x="95.410156"/>
     <use xlink:href="#DejaVuSans-35" x="159.033203"/>
     <use xlink:href="#DejaVuSans-7e" x="222.65625"/>
     <use xlink:href="#DejaVuSans-33" x="306.445312"/>
     <use xlink:href="#DejaVuSans-36" x="370.068359"/>
     <use xlink:href="#DejaVuSans-35" x="433.691406"/>
    </g>
   </g>
  </g>
  <g id="axes_5">
   <g id="patch_14">
    <path d="M 501.852899 373.284 
L 788.007162 373.284 
L 788.007162 253.698 
L 501.852899 253.698 
z
" style="fill: #eaeaf2"/>
   </g>
   <g id="matplotlib.axis_9">
    <g id="xtick_17">
     <g id="line2d_49">
      <path d="M 514.859911 373.284 
L 514.859911 253.698 
" clip-path="url(#pd58424ef8e)" style="fill: none; stroke: #ffffff; stroke-linecap: round"/>
     </g>
     <g id="text_16">
      <!-- 0 -->
      <g style="fill: #262626" transform="translate(507.511224 400.336391) scale(0.231 -0.231)">
       <use xlink:href="#DejaVuSans-30"/>
      </g>
     </g>
    </g>
    <g id="xtick_18">
     <g id="line2d_50">
      <path d="M 604.071241 373.284 
L 604.071241 253.698 
" clip-path="url(#pd58424ef8e)" style="fill: none; stroke: #ffffff; stroke-linecap: round"/>
     </g>
     <g id="text_17">
      <!-- 250 -->
      <g style="fill: #262626" transform="translate(582.025179 400.336391) scale(0.231 -0.231)">
       <use xlink:href="#DejaVuSans-32"/>
       <use xlink:href="#DejaVuSans-35" x="63.623047"/>
       <use xlink:href="#DejaVuSans-30" x="127.246094"/>
      </g>
     </g>
    </g>
    <g id="xtick_19">
     <g id="line2d_51">
      <path d="M 693.282572 373.284 
L 693.282572 253.698 
" clip-path="url(#pd58424ef8e)" style="fill: none; stroke: #ffffff; stroke-linecap: round"/>
     </g>
     <g id="text_18">
      <!-- 500 -->
      <g style="fill: #262626" transform="translate(671.236509 400.336391) scale(0.231 -0.231)">
       <use xlink:href="#DejaVuSans-35"/>
       <use xlink:href="#DejaVuSans-30" x="63.623047"/>
       <use xlink:href="#DejaVuSans-30" x="127.246094"/>
      </g>
     </g>
    </g>
    <g id="xtick_20">
     <g id="line2d_52">
      <path d="M 782.493902 373.284 
L 782.493902 253.698 
" clip-path="url(#pd58424ef8e)" style="fill: none; stroke: #ffffff; stroke-linecap: round"/>
     </g>
     <g id="text_19">
      <!-- 750 -->
      <g style="fill: #262626" transform="translate(760.44784 400.336391) scale(0.231 -0.231)">
       <use xlink:href="#DejaVuSans-37"/>
       <use xlink:href="#DejaVuSans-35" x="63.623047"/>
       <use xlink:href="#DejaVuSans-30" x="127.246094"/>
      </g>
     </g>
    </g>
    <g id="text_20">
     <!-- step -->
     <g style="fill: #262626" transform="translate(617.674656 428.288531) scale(0.252 -0.252)">
      <use xlink:href="#DejaVuSans-73"/>
      <use xlink:href="#DejaVuSans-74" x="52.099609"/>
      <use xlink:href="#DejaVuSans-65" x="91.308594"/>
      <use xlink:href="#DejaVuSans-70" x="152.832031"/>
     </g>
    </g>
   </g>
   <g id="matplotlib.axis_10">
    <g id="ytick_9">
     <g id="line2d_53">
      <path d="M 501.852899 321.885079 
L 788.007162 321.885079 
" clip-path="url(#pd58424ef8e)" style="fill: none; stroke: #ffffff; stroke-linecap: round"/>
     </g>
    </g>
    <g id="ytick_10">
     <g id="line2d_54">
      <path d="M 501.852899 259.133727 
L 788.007162 259.133727 
" clip-path="url(#pd58424ef8e)" style="fill: none; stroke: #ffffff; stroke-linecap: round"/>
     </g>
    </g>
   </g>
   <g id="PolyCollection_25"/>
   <g id="PolyCollection_26"/>
   <g id="PolyCollection_27"/>
   <g id="PolyCollection_28"/>
   <g id="PolyCollection_29"/>
   <g id="PolyCollection_30"/>
   <g id="line2d_55">
    <path d="M 514.859911 259.133727 
L 518.071519 275.351761 
L 521.639972 292.862961 
L 523.424199 300.424256 
L 525.208425 307.093211 
L 526.992652 312.964248 
L 528.776879 318.121637 
L 530.561105 322.640572 
L 532.345332 326.588215 
L 534.129558 330.026145 
L 535.913785 333.009316 
L 537.698012 335.585553 
L 539.482238 337.798137 
L 541.266465 339.693037 
L 543.050691 341.305925 
L 545.191763 342.912538 
L 547.332835 344.206491 
L 549.473907 345.226728 
L 551.614979 346.007214 
L 554.112896 346.654271 
L 556.610814 347.056768 
L 559.465576 347.287717 
L 563.034029 347.34445 
L 566.959328 347.176902 
L 571.598317 346.740796 
L 576.950997 346.007355 
L 585.87213 344.507996 
L 594.436418 343.20795 
L 605.141777 341.82383 
L 619.058745 340.254438 
L 635.830475 338.614164 
L 649.390597 337.494368 
L 677.938223 335.413511 
L 775.000151 328.649122 
L 775.000151 328.649122 
" clip-path="url(#pd58424ef8e)" style="fill: none; stroke: #4c72b0; stroke-opacity: 0.9; stroke-width: 3; stroke-linecap: round"/>
   </g>
   <g id="line2d_56">
    <path d="M 514.859911 259.133727 
L 517.000983 265.091809 
L 521.639972 277.852801 
L 523.424199 282.086421 
L 525.208425 285.82785 
L 526.992652 289.12904 
L 528.776879 292.036604 
L 530.917951 295.064394 
L 533.059022 297.64838 
L 535.200094 299.843897 
L 537.341166 301.699368 
L 539.482238 303.257373 
L 541.62331 304.556445 
L 544.121227 305.788847 
L 546.619145 306.765505 
L 549.473907 307.622104 
L 552.32867 308.247818 
L 555.540278 308.722119 
L 559.108731 309.018485 
L 563.74772 309.160958 
L 569.1004 309.098367 
L 575.523616 308.796297 
L 583.731058 308.172027 
L 605.855468 306.372264 
L 620.486126 305.406896 
L 651.531669 303.650566 
L 681.149831 302.181752 
L 743.597762 299.320776 
L 775.000151 297.888784 
L 775.000151 297.888784 
" clip-path="url(#pd58424ef8e)" style="fill: none; stroke: #dd8452; stroke-opacity: 0.9; stroke-width: 3; stroke-linecap: round"/>
   </g>
   <g id="line2d_57">
    <path d="M 514.859911 259.133727 
L 516.644138 268.720771 
L 521.283127 293.536578 
L 523.067353 301.857032 
L 524.85158 309.194895 
L 526.635807 315.653545 
L 528.420033 321.326037 
L 530.20426 326.295885 
L 531.988487 330.637067 
L 533.772713 334.415534 
L 535.55694 337.690614 
L 537.341166 340.516007 
L 539.125393 342.946067 
L 540.90962 345.029962 
L 542.693846 346.811266 
L 544.478073 348.322745 
L 546.619145 349.825922 
L 548.760217 351.034038 
L 550.901289 351.982068 
L 553.04236 352.699683 
L 555.540278 353.285391 
L 558.038195 353.64566 
L 560.892958 353.830344 
L 564.104565 353.794161 
L 567.673019 353.51102 
L 571.955163 352.926907 
L 578.735224 351.723379 
L 590.154274 349.756011 
L 599.789098 348.32828 
L 608.710231 347.220546 
L 618.345054 346.267178 
L 630.834641 345.258631 
L 649.747443 343.974536 
L 685.431975 341.817029 
L 775.000151 336.567062 
L 775.000151 336.567062 
" clip-path="url(#pd58424ef8e)" style="fill: none; stroke: #55a868; stroke-opacity: 0.9; stroke-width: 3; stroke-linecap: round"/>
   </g>
   <g id="line2d_58">
    <path d="M 514.859911 259.133727 
L 516.644138 266.674965 
L 521.283127 286.197943 
L 523.067353 292.745806 
L 524.85158 298.520775 
L 526.635807 303.604136 
L 528.420033 308.068887 
L 530.20426 311.980216 
L 531.988487 315.396276 
L 533.772713 318.369154 
L 535.55694 320.945909 
L 537.341166 323.173476 
L 539.125393 325.093025 
L 540.90962 326.737535 
L 543.050691 328.388316 
L 545.191763 329.730352 
L 547.332835 330.809657 
L 549.473907 331.660977 
L 551.971825 332.403079 
L 554.469742 332.909791 
L 557.324504 333.249946 
L 560.536112 333.402824 
L 564.104565 333.348521 
L 568.386709 333.044218 
L 573.739389 332.413931 
L 593.365882 329.900766 
L 605.498623 328.589381 
L 615.490292 327.724966 
L 629.050414 326.793226 
L 650.461133 325.576658 
L 697.20787 323.211162 
L 775.000151 319.336615 
L 775.000151 319.336615 
" clip-path="url(#pd58424ef8e)" style="fill: none; stroke: #c44e52; stroke-opacity: 0.9; stroke-width: 3; stroke-linecap: round"/>
   </g>
   <g id="line2d_59">
    <path d="M 514.859911 259.133727 
L 517.357828 271.298005 
L 521.639972 291.653549 
L 523.424199 298.924464 
L 525.208425 305.338485 
L 526.992652 310.986342 
L 528.776879 315.949046 
L 530.561105 320.298956 
L 532.345332 324.100679 
L 534.129558 327.412015 
L 535.913785 330.284689 
L 537.698012 332.764841 
L 539.482238 334.893806 
L 541.266465 336.708414 
L 543.050691 338.241918 
L 544.834918 339.524359 
L 546.97599 340.768497 
L 549.117062 341.732703 
L 551.258134 342.453845 
L 553.399206 342.96165 
L 555.897123 343.32113 
L 558.751886 343.486883 
L 561.963494 343.439481 
L 565.531947 343.159078 
L 569.814091 342.592781 
L 575.16677 341.657687 
L 582.660522 340.109313 
L 605.855468 335.139577 
L 613.34922 333.915921 
L 623.697734 332.472572 
L 634.046248 331.263363 
L 647.606371 329.925298 
L 662.237029 328.729048 
L 688.643583 326.820975 
L 762.86741 321.754634 
L 775.000151 320.930473 
L 775.000151 320.930473 
" clip-path="url(#pd58424ef8e)" style="fill: none; stroke: #8172b3; stroke-opacity: 0.9; stroke-width: 3; stroke-linecap: round"/>
   </g>
   <g id="line2d_60">
    <path d="M 514.859911 259.133727 
L 518.071519 271.61661 
L 521.639972 285.078205 
L 523.424199 290.882849 
L 525.208425 296.006476 
L 526.992652 300.521272 
L 528.776879 304.491798 
L 530.561105 307.975675 
L 532.345332 311.024451 
L 534.129558 313.684136 
L 535.913785 315.995741 
L 537.698012 317.995953 
L 539.839084 320.031663 
L 541.980156 321.717211 
L 544.121227 323.096146 
L 546.262299 324.206518 
L 548.403371 325.084133 
L 550.901289 325.854116 
L 553.399206 326.388581 
L 556.253968 326.756151 
L 559.465576 326.921457 
L 563.034029 326.88414 
L 567.673019 326.597976 
L 573.382544 326.00156 
L 580.51945 325.01545 
L 593.009036 323.018666 
L 602.64386 321.538766 
L 612.635529 320.245903 
L 625.481961 318.818549 
L 639.042083 317.526275 
L 655.813813 316.233532 
L 679.365604 314.684394 
L 736.817701 311.188713 
L 775.000151 308.896836 
L 775.000151 308.896836 
" clip-path="url(#pd58424ef8e)" style="fill: none; stroke: #937860; stroke-opacity: 0.9; stroke-width: 3; stroke-linecap: round"/>
   </g>
   <g id="patch_15">
    <path d="M 501.852899 373.284 
L 501.852899 253.698 
" style="fill: none; stroke: #ffffff; stroke-width: 1.25; stroke-linejoin: miter; stroke-linecap: square"/>
   </g>
   <g id="patch_16">
    <path d="M 501.852899 373.284 
L 788.007162 373.284 
" style="fill: none; stroke: #ffffff; stroke-width: 1.25; stroke-linejoin: miter; stroke-linecap: square"/>
   </g>
   <g id="text_21">
    <!-- 0.95~90 -->
    <g style="fill: #262626" transform="translate(590.283437 247.698) scale(0.252 -0.252)">
     <use xlink:href="#DejaVuSans-30"/>
     <use xlink:href="#DejaVuSans-2e" x="63.623047"/>
     <use xlink:href="#DejaVuSans-39" x="95.410156"/>
     <use xlink:href="#DejaVuSans-35" x="159.033203"/>
     <use xlink:href="#DejaVuSans-7e" x="222.65625"/>
     <use xlink:href="#DejaVuSans-39" x="306.445312"/>
     <use xlink:href="#DejaVuSans-30" x="370.068359"/>
    </g>
   </g>
  </g>
  <g id="axes_6">
   <g id="patch_17">
    <path d="M 814.45531 373.284 
L 1100.609573 373.284 
L 1100.609573 253.698 
L 814.45531 253.698 
z
" style="fill: #eaeaf2"/>
   </g>
   <g id="matplotlib.axis_11">
    <g id="xtick_21">
     <g id="line2d_61">
      <path d="M 827.462322 373.284 
L 827.462322 253.698 
" clip-path="url(#p2867b0382c)" style="fill: none; stroke: #ffffff; stroke-linecap: round"/>
     </g>
     <g id="text_22">
      <!-- 0 -->
      <g style="fill: #262626" transform="translate(820.113635 400.336391) scale(0.231 -0.231)">
       <use xlink:href="#DejaVuSans-30"/>
      </g>
     </g>
    </g>
    <g id="xtick_22">
     <g id="line2d_62">
      <path d="M 916.673652 373.284 
L 916.673652 253.698 
" clip-path="url(#p2867b0382c)" style="fill: none; stroke: #ffffff; stroke-linecap: round"/>
     </g>
     <g id="text_23">
      <!-- 250 -->
      <g style="fill: #262626" transform="translate(894.62759 400.336391) scale(0.231 -0.231)">
       <use xlink:href="#DejaVuSans-32"/>
       <use xlink:href="#DejaVuSans-35" x="63.623047"/>
       <use xlink:href="#DejaVuSans-30" x="127.246094"/>
      </g>
     </g>
    </g>
    <g id="xtick_23">
     <g id="line2d_63">
      <path d="M 1005.884983 373.284 
L 1005.884983 253.698 
" clip-path="url(#p2867b0382c)" style="fill: none; stroke: #ffffff; stroke-linecap: round"/>
     </g>
     <g id="text_24">
      <!-- 500 -->
      <g style="fill: #262626" transform="translate(983.83892 400.336391) scale(0.231 -0.231)">
       <use xlink:href="#DejaVuSans-35"/>
       <use xlink:href="#DejaVuSans-30" x="63.623047"/>
       <use xlink:href="#DejaVuSans-30" x="127.246094"/>
      </g>
     </g>
    </g>
    <g id="xtick_24">
     <g id="line2d_64">
      <path d="M 1095.096313 373.284 
L 1095.096313 253.698 
" clip-path="url(#p2867b0382c)" style="fill: none; stroke: #ffffff; stroke-linecap: round"/>
     </g>
     <g id="text_25">
      <!-- 750 -->
      <g style="fill: #262626" transform="translate(1073.050251 400.336391) scale(0.231 -0.231)">
       <use xlink:href="#DejaVuSans-37"/>
       <use xlink:href="#DejaVuSans-35" x="63.623047"/>
       <use xlink:href="#DejaVuSans-30" x="127.246094"/>
      </g>
     </g>
    </g>
    <g id="text_26">
     <!-- step -->
     <g style="fill: #262626" transform="translate(930.277067 428.288531) scale(0.252 -0.252)">
      <use xlink:href="#DejaVuSans-73"/>
      <use xlink:href="#DejaVuSans-74" x="52.099609"/>
      <use xlink:href="#DejaVuSans-65" x="91.308594"/>
      <use xlink:href="#DejaVuSans-70" x="152.832031"/>
     </g>
    </g>
   </g>
   <g id="matplotlib.axis_12">
    <g id="ytick_11">
     <g id="line2d_65">
      <path d="M 814.45531 321.885079 
L 1100.609573 321.885079 
" clip-path="url(#p2867b0382c)" style="fill: none; stroke: #ffffff; stroke-linecap: round"/>
     </g>
    </g>
    <g id="ytick_12">
     <g id="line2d_66">
      <path d="M 814.45531 259.133727 
L 1100.609573 259.133727 
" clip-path="url(#p2867b0382c)" style="fill: none; stroke: #ffffff; stroke-linecap: round"/>
     </g>
    </g>
   </g>
   <g id="PolyCollection_31"/>
   <g id="PolyCollection_32"/>
   <g id="PolyCollection_33"/>
   <g id="PolyCollection_34"/>
   <g id="PolyCollection_35"/>
   <g id="PolyCollection_36"/>
   <g id="line2d_67">
    <path d="M 827.462322 259.133727 
L 830.317085 273.61046 
L 834.242383 293.250666 
L 836.02661 301.047021 
L 837.810836 307.996831 
L 839.595063 314.189247 
L 841.37929 319.703986 
L 843.163516 324.612317 
L 844.947743 328.978077 
L 847.088815 333.580698 
L 849.229887 337.57104 
L 851.370959 341.025375 
L 853.512031 344.010424 
L 855.653102 346.584571 
L 857.794174 348.798917 
L 859.935246 350.698383 
L 862.076318 352.322586 
L 864.574235 353.915414 
L 867.072153 355.227359 
L 869.57007 356.298794 
L 872.424833 357.277947 
L 875.63644 358.120802 
L 878.848048 358.739612 
L 882.416502 359.213042 
L 886.698645 359.543574 
L 891.69448 359.681342 
L 898.117696 359.608882 
L 907.038829 359.272917 
L 919.528415 358.556254 
L 954.142411 356.448236 
L 971.270987 355.852775 
L 997.67754 355.161934 
L 1046.922195 354.134905 
L 1087.602561 353.373119 
L 1087.602561 353.373119 
" clip-path="url(#p2867b0382c)" style="fill: none; stroke: #4c72b0; stroke-opacity: 0.9; stroke-width: 3; stroke-linecap: round"/>
   </g>
   <g id="line2d_68">
    <path d="M 827.462322 259.133727 
L 829.603394 265.107066 
L 834.599228 278.946787 
L 836.7403 283.987588 
L 838.881372 288.380415 
L 841.022444 292.2064 
L 843.163516 295.536437 
L 845.304588 298.432397 
L 847.44566 300.948415 
L 849.586732 303.131857 
L 851.727804 305.024182 
L 854.225721 306.912114 
L 856.723638 308.502954 
L 859.221556 309.839378 
L 862.076318 311.101708 
L 864.931081 312.125273 
L 868.142689 313.039489 
L 871.711142 313.814259 
L 875.63644 314.432704 
L 880.27543 314.927542 
L 885.628109 315.26361 
L 892.051325 315.429748 
L 900.615613 315.409016 
L 913.81889 315.136479 
L 935.9433 314.424576 
L 959.851936 313.691258 
L 981.976346 313.285894 
L 1040.855824 312.479543 
L 1087.602561 311.900647 
L 1087.602561 311.900647 
" clip-path="url(#p2867b0382c)" style="fill: none; stroke: #dd8452; stroke-opacity: 0.9; stroke-width: 3; stroke-linecap: round"/>
   </g>
   <g id="line2d_69">
    <path d="M 827.462322 259.133727 
L 829.246549 268.743034 
L 834.242383 295.689495 
L 836.02661 304.052773 
L 837.810836 311.506272 
L 839.595063 318.145683 
L 841.37929 324.056733 
L 843.163516 329.316036 
L 844.947743 333.99246 
L 846.731969 338.147525 
L 848.516196 341.835933 
L 850.657268 345.715996 
L 852.79834 349.078547 
L 854.939412 351.995068 
L 857.080484 354.528537 
L 859.221556 356.728458 
L 861.362628 358.643102 
L 863.860545 360.55934 
L 866.358462 362.170164 
L 868.856379 363.509591 
L 871.354297 364.610989 
L 874.209059 365.620715 
L 877.063822 366.398848 
L 880.27543 367.036632 
L 883.843883 367.500671 
L 887.769181 367.767844 
L 892.408171 367.847713 
L 898.474541 367.713908 
L 906.325138 367.304433 
L 917.744188 366.46805 
L 935.229609 365.186575 
L 947.719195 364.532228 
L 963.42039 363.951661 
L 981.976346 363.488561 
L 1017.304033 362.873688 
L 1087.602561 361.824665 
L 1087.602561 361.824665 
" clip-path="url(#p2867b0382c)" style="fill: none; stroke: #55a868; stroke-opacity: 0.9; stroke-width: 3; stroke-linecap: round"/>
   </g>
   <g id="line2d_70">
    <path d="M 827.462322 259.133727 
L 829.246549 266.692639 
L 834.242383 287.895791 
L 836.02661 294.479446 
L 837.810836 300.347584 
L 839.595063 305.575384 
L 841.37929 310.230221 
L 843.520362 315.144035 
L 845.661433 319.411242 
L 847.802505 323.112474 
L 849.943577 326.322414 
L 852.084649 329.112185 
L 854.225721 331.532706 
L 856.366793 333.627853 
L 858.507865 335.436149 
L 861.005782 337.231926 
L 863.5037 338.738864 
L 866.001617 339.996564 
L 868.856379 341.167527 
L 871.711142 342.091792 
L 874.92275 342.88037 
L 878.491203 343.501074 
L 882.416502 343.939864 
L 886.698645 344.193042 
L 892.408171 344.282815 
L 899.545077 344.1605 
L 908.823055 343.76356 
L 949.860267 341.726349 
L 970.914141 341.134647 
L 993.752242 340.732859 
L 1053.702256 339.948134 
L 1087.602561 339.527656 
L 1087.602561 339.527656 
" clip-path="url(#p2867b0382c)" style="fill: none; stroke: #c44e52; stroke-opacity: 0.9; stroke-width: 3; stroke-linecap: round"/>
   </g>
   <g id="line2d_71">
    <path d="M 827.462322 259.133727 
L 829.960239 271.34353 
L 834.242383 292.027144 
L 836.02661 299.522101 
L 837.810836 306.20383 
L 839.595063 312.158009 
L 841.37929 317.461255 
L 843.163516 322.182078 
L 844.947743 326.381737 
L 847.088815 330.810108 
L 849.229887 334.650363 
L 851.370959 337.975789 
L 853.512031 340.85048 
L 855.653102 343.330477 
L 857.794174 345.464778 
L 859.935246 347.296232 
L 862.076318 348.862338 
L 864.574235 350.397666 
L 867.072153 351.661506 
L 869.57007 352.692475 
L 872.424833 353.627896 
L 875.63644 354.420852 
L 878.848048 354.986965 
L 882.416502 355.402807 
L 886.698645 355.665837 
L 891.69448 355.727295 
L 898.117696 355.558378 
L 906.325138 355.100412 
L 918.457879 354.166837 
L 954.856102 351.298343 
L 972.341523 350.12955 
L 986.25849 349.482433 
L 1007.312364 348.739776 
L 1038.714752 347.90918 
L 1087.602561 346.820608 
L 1087.602561 346.820608 
" clip-path="url(#p2867b0382c)" style="fill: none; stroke: #8172b3; stroke-opacity: 0.9; stroke-width: 3; stroke-linecap: round"/>
   </g>
   <g id="line2d_72">
    <path d="M 827.462322 259.133727 
L 830.317085 270.276222 
L 834.242383 285.363808 
L 836.02661 291.339781 
L 837.810836 296.668071 
L 839.595063 301.416936 
L 841.736135 306.436219 
L 843.877207 310.802047 
L 846.018279 314.59606 
L 848.159351 317.889649 
L 850.300423 320.74525 
L 852.441495 323.217487 
L 854.582566 325.354193 
L 856.723638 327.197156 
L 859.221556 329.024467 
L 861.719473 330.551667 
L 864.21739 331.821683 
L 867.072153 333.005057 
L 869.926915 333.947066 
L 873.138523 334.766861 
L 876.706976 335.432845 
L 880.632275 335.927682 
L 884.914419 336.246716 
L 889.910253 336.398233 
L 896.333469 336.353171 
L 905.254602 336.039588 
L 920.598951 335.229782 
L 960.565627 333.045203 
L 976.266821 332.404109 
L 999.818612 331.689114 
L 1034.432609 330.87631 
L 1087.602561 329.866353 
L 1087.602561 329.866353 
" clip-path="url(#p2867b0382c)" style="fill: none; stroke: #937860; stroke-opacity: 0.9; stroke-width: 3; stroke-linecap: round"/>
   </g>
   <g id="patch_18">
    <path d="M 814.45531 373.284 
L 814.45531 253.698 
" style="fill: none; stroke: #ffffff; stroke-width: 1.25; stroke-linejoin: miter; stroke-linecap: square"/>
   </g>
   <g id="patch_19">
    <path d="M 814.45531 373.284 
L 1100.609573 373.284 
" style="fill: none; stroke: #ffffff; stroke-width: 1.25; stroke-linejoin: miter; stroke-linecap: square"/>
   </g>
   <g id="text_27">
    <!-- 0.95~365 -->
    <g style="fill: #262626" transform="translate(894.869098 247.698) scale(0.252 -0.252)">
     <use xlink:href="#DejaVuSans-30"/>
     <use xlink:href="#DejaVuSans-2e" x="63.623047"/>
     <use xlink:href="#DejaVuSans-39" x="95.410156"/>
     <use xlink:href="#DejaVuSans-35" x="159.033203"/>
     <use xlink:href="#DejaVuSans-7e" x="222.65625"/>
     <use xlink:href="#DejaVuSans-33" x="306.445312"/>
     <use xlink:href="#DejaVuSans-36" x="370.068359"/>
     <use xlink:href="#DejaVuSans-35" x="433.691406"/>
    </g>
   </g>
  </g>
  <g id="text_28">
   <!-- Production change from pre-shock level -->
   <g style="fill: #262626" transform="translate(280.766836 30.177675) scale(0.3024 -0.3024)">
    <defs>
     <path id="DejaVuSans-50" d="M 1259 4147 
L 1259 2394 
L 2053 2394 
Q 2494 2394 2734 2622 
Q 2975 2850 2975 3272 
Q 2975 3691 2734 3919 
Q 2494 4147 2053 4147 
L 1259 4147 
z
M 628 4666 
L 2053 4666 
Q 2838 4666 3239 4311 
Q 3641 3956 3641 3272 
Q 3641 2581 3239 2228 
Q 2838 1875 2053 1875 
L 1259 1875 
L 1259 0 
L 628 0 
L 628 4666 
z
" transform="scale(0.015625)"/>
     <path id="DejaVuSans-72" d="M 2631 2963 
Q 2534 3019 2420 3045 
Q 2306 3072 2169 3072 
Q 1681 3072 1420 2755 
Q 1159 2438 1159 1844 
L 1159 0 
L 581 0 
L 581 3500 
L 1159 3500 
L 1159 2956 
Q 1341 3275 1631 3429 
Q 1922 3584 2338 3584 
Q 2397 3584 2469 3576 
Q 2541 3569 2628 3553 
L 2631 2963 
z
" transform="scale(0.015625)"/>
     <path id="DejaVuSans-6f" d="M 1959 3097 
Q 1497 3097 1228 2736 
Q 959 2375 959 1747 
Q 959 1119 1226 758 
Q 1494 397 1959 397 
Q 2419 397 2687 759 
Q 2956 1122 2956 1747 
Q 2956 2369 2687 2733 
Q 2419 3097 1959 3097 
z
M 1959 3584 
Q 2709 3584 3137 3096 
Q 3566 2609 3566 1747 
Q 3566 888 3137 398 
Q 2709 -91 1959 -91 
Q 1206 -91 779 398 
Q 353 888 353 1747 
Q 353 2609 779 3096 
Q 1206 3584 1959 3584 
z
" transform="scale(0.015625)"/>
     <path id="DejaVuSans-64" d="M 2906 2969 
L 2906 4863 
L 3481 4863 
L 3481 0 
L 2906 0 
L 2906 525 
Q 2725 213 2448 61 
Q 2172 -91 1784 -91 
Q 1150 -91 751 415 
Q 353 922 353 1747 
Q 353 2572 751 3078 
Q 1150 3584 1784 3584 
Q 2172 3584 2448 3432 
Q 2725 3281 2906 2969 
z
M 947 1747 
Q 947 1113 1208 752 
Q 1469 391 1925 391 
Q 2381 391 2643 752 
Q 2906 1113 2906 1747 
Q 2906 2381 2643 2742 
Q 2381 3103 1925 3103 
Q 1469 3103 1208 2742 
Q 947 2381 947 1747 
z
" transform="scale(0.015625)"/>
     <path id="DejaVuSans-75" d="M 544 1381 
L 544 3500 
L 1119 3500 
L 1119 1403 
Q 1119 906 1312 657 
Q 1506 409 1894 409 
Q 2359 409 2629 706 
Q 2900 1003 2900 1516 
L 2900 3500 
L 3475 3500 
L 3475 0 
L 2900 0 
L 2900 538 
Q 2691 219 2414 64 
Q 2138 -91 1772 -91 
Q 1169 -91 856 284 
Q 544 659 544 1381 
z
M 1991 3584 
L 1991 3584 
z
" transform="scale(0.015625)"/>
     <path id="DejaVuSans-69" d="M 603 3500 
L 1178 3500 
L 1178 0 
L 603 0 
L 603 3500 
z
M 603 4863 
L 1178 4863 
L 1178 4134 
L 603 4134 
L 603 4863 
z
" transform="scale(0.015625)"/>
     <path id="DejaVuSans-66" d="M 2375 4863 
L 2375 4384 
L 1825 4384 
Q 1516 4384 1395 4259 
Q 1275 4134 1275 3809 
L 1275 3500 
L 2222 3500 
L 2222 3053 
L 1275 3053 
L 1275 0 
L 697 0 
L 697 3053 
L 147 3053 
L 147 3500 
L 697 3500 
L 697 3744 
Q 697 4328 969 4595 
Q 1241 4863 1831 4863 
L 2375 4863 
z
" transform="scale(0.015625)"/>
     <path id="DejaVuSans-6d" d="M 3328 2828 
Q 3544 3216 3844 3400 
Q 4144 3584 4550 3584 
Q 5097 3584 5394 3201 
Q 5691 2819 5691 2113 
L 5691 0 
L 5113 0 
L 5113 2094 
Q 5113 2597 4934 2840 
Q 4756 3084 4391 3084 
Q 3944 3084 3684 2787 
Q 3425 2491 3425 1978 
L 3425 0 
L 2847 0 
L 2847 2094 
Q 2847 2600 2669 2842 
Q 2491 3084 2119 3084 
Q 1678 3084 1418 2786 
Q 1159 2488 1159 1978 
L 1159 0 
L 581 0 
L 581 3500 
L 1159 3500 
L 1159 2956 
Q 1356 3278 1631 3431 
Q 1906 3584 2284 3584 
Q 2666 3584 2933 3390 
Q 3200 3197 3328 2828 
z
" transform="scale(0.015625)"/>
     <path id="DejaVuSans-2d" d="M 313 2009 
L 1997 2009 
L 1997 1497 
L 313 1497 
L 313 2009 
z
" transform="scale(0.015625)"/>
     <path id="DejaVuSans-6b" d="M 581 4863 
L 1159 4863 
L 1159 1991 
L 2875 3500 
L 3609 3500 
L 1753 1863 
L 3688 0 
L 2938 0 
L 1159 1709 
L 1159 0 
L 581 0 
L 581 4863 
z
" transform="scale(0.015625)"/>
     <path id="DejaVuSans-6c" d="M 603 4863 
L 1178 4863 
L 1178 0 
L 603 0 
L 603 4863 
z
" transform="scale(0.015625)"/>
     <path id="DejaVuSans-76" d="M 191 3500 
L 800 3500 
L 1894 563 
L 2988 3500 
L 3597 3500 
L 2284 0 
L 1503 0 
L 191 3500 
z
" transform="scale(0.015625)"/>
    </defs>
    <use xlink:href="#DejaVuSans-50"/>
    <use xlink:href="#DejaVuSans-72" x="58.552734"/>
    <use xlink:href="#DejaVuSans-6f" x="97.416016"/>
    <use xlink:href="#DejaVuSans-64" x="158.597656"/>
    <use xlink:href="#DejaVuSans-75" x="222.074219"/>
    <use xlink:href="#DejaVuSans-63" x="285.453125"/>
    <use xlink:href="#DejaVuSans-74" x="340.433594"/>
    <use xlink:href="#DejaVuSans-69" x="379.642578"/>
    <use xlink:href="#DejaVuSans-6f" x="407.425781"/>
    <use xlink:href="#DejaVuSans-6e" x="468.607422"/>
    <use xlink:href="#DejaVuSans-20" x="531.986328"/>
    <use xlink:href="#DejaVuSans-63" x="563.773438"/>
    <use xlink:href="#DejaVuSans-68" x="618.753906"/>
    <use xlink:href="#DejaVuSans-61" x="682.132812"/>
    <use xlink:href="#DejaVuSans-6e" x="743.412109"/>
    <use xlink:href="#DejaVuSans-67" x="806.791016"/>
    <use xlink:href="#DejaVuSans-65" x="870.267578"/>
    <use xlink:href="#DejaVuSans-20" x="931.791016"/>
    <use xlink:href="#DejaVuSans-66" x="963.578125"/>
    <use xlink:href="#DejaVuSans-72" x="998.783203"/>
    <use xlink:href="#DejaVuSans-6f" x="1037.646484"/>
    <use xlink:href="#DejaVuSans-6d" x="1098.828125"/>
    <use xlink:href="#DejaVuSans-20" x="1196.240234"/>
    <use xlink:href="#DejaVuSans-70" x="1228.027344"/>
    <use xlink:href="#DejaVuSans-72" x="1291.503906"/>
    <use xlink:href="#DejaVuSans-65" x="1330.367188"/>
    <use xlink:href="#DejaVuSans-2d" x="1391.890625"/>
    <use xlink:href="#DejaVuSans-73" x="1427.974609"/>
    <use xlink:href="#DejaVuSans-68" x="1480.074219"/>
    <use xlink:href="#DejaVuSans-6f" x="1543.453125"/>
    <use xlink:href="#DejaVuSans-63" x="1604.634766"/>
    <use xlink:href="#DejaVuSans-6b" x="1659.615234"/>
    <use xlink:href="#DejaVuSans-20" x="1717.525391"/>
    <use xlink:href="#DejaVuSans-6c" x="1749.3125"/>
    <use xlink:href="#DejaVuSans-65" x="1777.095703"/>
    <use xlink:href="#DejaVuSans-76" x="1838.619141"/>
    <use xlink:href="#DejaVuSans-65" x="1897.798828"/>
    <use xlink:href="#DejaVuSans-6c" x="1959.322266"/>
   </g>
  </g>
  <g id="legend_1">
   <g id="patch_20">
    <path d="M 11.82 584.31675 
L 1292.617547 584.31675 
Q 1297.237547 584.31675 1297.237547 579.69675 
L 1297.237547 476.97 
Q 1297.237547 472.35 1292.617547 472.35 
L 11.82 472.35 
Q 7.2 472.35 7.2 476.97 
L 7.2 579.69675 
Q 7.2 584.31675 11.82 584.31675 
z
" style="fill: #eaeaf2; opacity: 0.8; stroke: #cccccc; stroke-linejoin: miter"/>
   </g>
   <g id="text_29">
    <!-- Experiences -->
    <g style="fill: #262626" transform="translate(575.384367 500.738062) scale(0.252 -0.252)">
     <defs>
      <path id="DejaVuSans-45" d="M 628 4666 
L 3578 4666 
L 3578 4134 
L 1259 4134 
L 1259 2753 
L 3481 2753 
L 3481 2222 
L 1259 2222 
L 1259 531 
L 3634 531 
L 3634 0 
L 628 0 
L 628 4666 
z
" transform="scale(0.015625)"/>
      <path id="DejaVuSans-78" d="M 3513 3500 
L 2247 1797 
L 3578 0 
L 2900 0 
L 1881 1375 
L 863 0 
L 184 0 
L 1544 1831 
L 300 3500 
L 978 3500 
L 1906 2253 
L 2834 3500 
L 3513 3500 
z
" transform="scale(0.015625)"/>
     </defs>
     <use xlink:href="#DejaVuSans-45"/>
     <use xlink:href="#DejaVuSans-78" x="63.183594"/>
     <use xlink:href="#DejaVuSans-70" x="122.363281"/>
     <use xlink:href="#DejaVuSans-65" x="185.839844"/>
     <use xlink:href="#DejaVuSans-72" x="247.363281"/>
     <use xlink:href="#DejaVuSans-69" x="288.476562"/>
     <use xlink:href="#DejaVuSans-65" x="316.259766"/>
     <use xlink:href="#DejaVuSans-6e" x="377.783203"/>
     <use xlink:href="#DejaVuSans-63" x="441.162109"/>
     <use xlink:href="#DejaVuSans-65" x="496.142578"/>
     <use xlink:href="#DejaVuSans-73" x="557.666016"/>
    </g>
   </g>
   <g id="line2d_73">
    <path d="M 16.44 526.996266 
L 39.54 526.996266 
L 62.64 526.996266 
" style="fill: none; stroke: #4c72b0; stroke-opacity: 0.9; stroke-width: 3; stroke-linecap: round"/>
   </g>
   <g id="text_30">
    <!-- eora26_full_2000 -->
    <g style="fill: #262626" transform="translate(81.12 535.081266) scale(0.231 -0.231)">
     <defs>
      <path id="DejaVuSans-5f" d="M 3263 -1063 
L 3263 -1509 
L -63 -1509 
L -63 -1063 
L 3263 -1063 
z
" transform="scale(0.015625)"/>
     </defs>
     <use xlink:href="#DejaVuSans-65"/>
     <use xlink:href="#DejaVuSans-6f" x="61.523438"/>
     <use xlink:href="#DejaVuSans-72" x="122.705078"/>
     <use xlink:href="#DejaVuSans-61" x="163.818359"/>
     <use xlink:href="#DejaVuSans-32" x="225.097656"/>
     <use xlink:href="#DejaVuSans-36" x="288.720703"/>
     <use xlink:href="#DejaVuSans-5f" x="352.34375"/>
     <use xlink:href="#DejaVuSans-66" x="402.34375"/>
     <use xlink:href="#DejaVuSans-75" x="437.548828"/>
     <use xlink:href="#DejaVuSans-6c" x="500.927734"/>
     <use xlink:href="#DejaVuSans-6c" x="528.710938"/>
     <use xlink:href="#DejaVuSans-5f" x="556.494141"/>
     <use xlink:href="#DejaVuSans-32" x="606.494141"/>
     <use xlink:href="#DejaVuSans-30" x="670.117188"/>
     <use xlink:href="#DejaVuSans-30" x="733.740234"/>
     <use xlink:href="#DejaVuSans-30" x="797.363281"/>
    </g>
   </g>
   <g id="line2d_74">
    <path d="M 16.44 561.545203 
L 39.54 561.545203 
L 62.64 561.545203 
" style="fill: none; stroke: #dd8452; stroke-opacity: 0.9; stroke-width: 3; stroke-linecap: round"/>
   </g>
   <g id="text_31">
    <!-- eora26_full_2010 -->
    <g style="fill: #262626" transform="translate(81.12 569.630203) scale(0.231 -0.231)">
     <defs>
      <path id="DejaVuSans-31" d="M 794 531 
L 1825 531 
L 1825 4091 
L 703 3866 
L 703 4441 
L 1819 4666 
L 2450 4666 
L 2450 531 
L 3481 531 
L 3481 0 
L 794 0 
L 794 531 
z
" transform="scale(0.015625)"/>
     </defs>
     <use xlink:href="#DejaVuSans-65"/>
     <use xlink:href="#DejaVuSans-6f" x="61.523438"/>
     <use xlink:href="#DejaVuSans-72" x="122.705078"/>
     <use xlink:href="#DejaVuSans-61" x="163.818359"/>
     <use xlink:href="#DejaVuSans-32" x="225.097656"/>
     <use xlink:href="#DejaVuSans-36" x="288.720703"/>
     <use xlink:href="#DejaVuSans-5f" x="352.34375"/>
     <use xlink:href="#DejaVuSans-66" x="402.34375"/>
     <use xlink:href="#DejaVuSans-75" x="437.548828"/>
     <use xlink:href="#DejaVuSans-6c" x="500.927734"/>
     <use xlink:href="#DejaVuSans-6c" x="528.710938"/>
     <use xlink:href="#DejaVuSans-5f" x="556.494141"/>
     <use xlink:href="#DejaVuSans-32" x="606.494141"/>
     <use xlink:href="#DejaVuSans-30" x="670.117188"/>
     <use xlink:href="#DejaVuSans-31" x="733.740234"/>
     <use xlink:href="#DejaVuSans-30" x="797.363281"/>
    </g>
   </g>
   <g id="line2d_75">
    <path d="M 326.211 526.996266 
L 349.311 526.996266 
L 372.411 526.996266 
" style="fill: none; stroke: #55a868; stroke-opacity: 0.9; stroke-width: 3; stroke-linecap: round"/>
   </g>
   <g id="text_32">
    <!-- euregio_full_2000 -->
    <g style="fill: #262626" transform="translate(390.891 535.081266) scale(0.231 -0.231)">
     <use xlink:href="#DejaVuSans-65"/>
     <use xlink:href="#DejaVuSans-75" x="61.523438"/>
     <use xlink:href="#DejaVuSans-72" x="124.902344"/>
     <use xlink:href="#DejaVuSans-65" x="163.765625"/>
     <use xlink:href="#DejaVuSans-67" x="225.289062"/>
     <use xlink:href="#DejaVuSans-69" x="288.765625"/>
     <use xlink:href="#DejaVuSans-6f" x="316.548828"/>
     <use xlink:href="#DejaVuSans-5f" x="377.730469"/>
     <use xlink:href="#DejaVuSans-66" x="427.730469"/>
     <use xlink:href="#DejaVuSans-75" x="462.935547"/>
     <use xlink:href="#DejaVuSans-6c" x="526.314453"/>
     <use xlink:href="#DejaVuSans-6c" x="554.097656"/>
     <use xlink:href="#DejaVuSans-5f" x="581.880859"/>
     <use xlink:href="#DejaVuSans-32" x="631.880859"/>
     <use xlink:href="#DejaVuSans-30" x="695.503906"/>
     <use xlink:href="#DejaVuSans-30" x="759.126953"/>
     <use xlink:href="#DejaVuSans-30" x="822.75"/>
    </g>
   </g>
   <g id="line2d_76">
    <path d="M 326.211 561.545203 
L 349.311 561.545203 
L 372.411 561.545203 
" style="fill: none; stroke: #c44e52; stroke-opacity: 0.9; stroke-width: 3; stroke-linecap: round"/>
   </g>
   <g id="text_33">
    <!-- euregio_full_2010 -->
    <g style="fill: #262626" transform="translate(390.891 569.630203) scale(0.231 -0.231)">
     <use xlink:href="#DejaVuSans-65"/>
     <use xlink:href="#DejaVuSans-75" x="61.523438"/>
     <use xlink:href="#DejaVuSans-72" x="124.902344"/>
     <use xlink:href="#DejaVuSans-65" x="163.765625"/>
     <use xlink:href="#DejaVuSans-67" x="225.289062"/>
     <use xlink:href="#DejaVuSans-69" x="288.765625"/>
     <use xlink:href="#DejaVuSans-6f" x="316.548828"/>
     <use xlink:href="#DejaVuSans-5f" x="377.730469"/>
     <use xlink:href="#DejaVuSans-66" x="427.730469"/>
     <use xlink:href="#DejaVuSans-75" x="462.935547"/>
     <use xlink:href="#DejaVuSans-6c" x="526.314453"/>
     <use xlink:href="#DejaVuSans-6c" x="554.097656"/>
     <use xlink:href="#DejaVuSans-5f" x="581.880859"/>
     <use xlink:href="#DejaVuSans-32" x="631.880859"/>
     <use xlink:href="#DejaVuSans-30" x="695.503906"/>
     <use xlink:href="#DejaVuSans-31" x="759.126953"/>
     <use xlink:href="#DejaVuSans-30" x="822.75"/>
    </g>
   </g>
   <g id="line2d_77">
    <path d="M 641.847234 526.996266 
L 664.947234 526.996266 
L 688.047234 526.996266 
" style="fill: none; stroke: #8172b3; stroke-opacity: 0.9; stroke-width: 3; stroke-linecap: round"/>
   </g>
   <g id="text_34">
    <!-- exiobase3_full_2000 -->
    <g style="fill: #262626" transform="translate(706.527234 535.081266) scale(0.231 -0.231)">
     <defs>
      <path id="DejaVuSans-62" d="M 3116 1747 
Q 3116 2381 2855 2742 
Q 2594 3103 2138 3103 
Q 1681 3103 1420 2742 
Q 1159 2381 1159 1747 
Q 1159 1113 1420 752 
Q 1681 391 2138 391 
Q 2594 391 2855 752 
Q 3116 1113 3116 1747 
z
M 1159 2969 
Q 1341 3281 1617 3432 
Q 1894 3584 2278 3584 
Q 2916 3584 3314 3078 
Q 3713 2572 3713 1747 
Q 3713 922 3314 415 
Q 2916 -91 2278 -91 
Q 1894 -91 1617 61 
Q 1341 213 1159 525 
L 1159 0 
L 581 0 
L 581 4863 
L 1159 4863 
L 1159 2969 
z
" transform="scale(0.015625)"/>
     </defs>
     <use xlink:href="#DejaVuSans-65"/>
     <use xlink:href="#DejaVuSans-78" x="59.773438"/>
     <use xlink:href="#DejaVuSans-69" x="118.953125"/>
     <use xlink:href="#DejaVuSans-6f" x="146.736328"/>
     <use xlink:href="#DejaVuSans-62" x="207.917969"/>
     <use xlink:href="#DejaVuSans-61" x="271.394531"/>
     <use xlink:href="#DejaVuSans-73" x="332.673828"/>
     <use xlink:href="#DejaVuSans-65" x="384.773438"/>
     <use xlink:href="#DejaVuSans-33" x="446.296875"/>
     <use xlink:href="#DejaVuSans-5f" x="509.919922"/>
     <use xlink:href="#DejaVuSans-66" x="559.919922"/>
     <use xlink:href="#DejaVuSans-75" x="595.125"/>
     <use xlink:href="#DejaVuSans-6c" x="658.503906"/>
     <use xlink:href="#DejaVuSans-6c" x="686.287109"/>
     <use xlink:href="#DejaVuSans-5f" x="714.070312"/>
     <use xlink:href="#DejaVuSans-32" x="764.070312"/>
     <use xlink:href="#DejaVuSans-30" x="827.693359"/>
     <use xlink:href="#DejaVuSans-30" x="891.316406"/>
     <use xlink:href="#DejaVuSans-30" x="954.939453"/>
    </g>
   </g>
   <g id="line2d_78">
    <path d="M 988.022391 526.996266 
L 1011.122391 526.996266 
L 1034.222391 526.996266 
" style="fill: none; stroke: #937860; stroke-opacity: 0.9; stroke-width: 3; stroke-linecap: round"/>
   </g>
   <g id="text_35">
    <!-- exiobase3_full_2010 -->
    <g style="fill: #262626" transform="translate(1052.702391 535.081266) scale(0.231 -0.231)">
     <use xlink:href="#DejaVuSans-65"/>
     <use xlink:href="#DejaVuSans-78" x="59.773438"/>
     <use xlink:href="#DejaVuSans-69" x="118.953125"/>
     <use xlink:href="#DejaVuSans-6f" x="146.736328"/>
     <use xlink:href="#DejaVuSans-62" x="207.917969"/>
     <use xlink:href="#DejaVuSans-61" x="271.394531"/>
     <use xlink:href="#DejaVuSans-73" x="332.673828"/>
     <use xlink:href="#DejaVuSans-65" x="384.773438"/>
     <use xlink:href="#DejaVuSans-33" x="446.296875"/>
     <use xlink:href="#DejaVuSans-5f" x="509.919922"/>
     <use xlink:href="#DejaVuSans-66" x="559.919922"/>
     <use xlink:href="#DejaVuSans-75" x="595.125"/>
     <use xlink:href="#DejaVuSans-6c" x="658.503906"/>
     <use xlink:href="#DejaVuSans-6c" x="686.287109"/>
     <use xlink:href="#DejaVuSans-5f" x="714.070312"/>
     <use xlink:href="#DejaVuSans-32" x="764.070312"/>
     <use xlink:href="#DejaVuSans-30" x="827.693359"/>
     <use xlink:href="#DejaVuSans-31" x="891.316406"/>
     <use xlink:href="#DejaVuSans-30" x="954.939453"/>
    </g>
   </g>
  </g>
 </g>
 <defs>
  <clipPath id="pe28cf16b27">
   <rect x="189.250488" y="81.456" width="286.154263" height="119.586"/>
  </clipPath>
  <clipPath id="pcb534eda79">
   <rect x="501.852899" y="81.456" width="286.154263" height="119.586"/>
  </clipPath>
  <clipPath id="p74c236af83">
   <rect x="814.45531" y="81.456" width="286.154263" height="119.586"/>
  </clipPath>
  <clipPath id="pcdc6545e05">
   <rect x="189.250488" y="253.698" width="286.154263" height="119.586"/>
  </clipPath>
  <clipPath id="pd58424ef8e">
   <rect x="501.852899" y="253.698" width="286.154263" height="119.586"/>
  </clipPath>
  <clipPath id="p2867b0382c">
   <rect x="814.45531" y="253.698" width="286.154263" height="119.586"/>
  </clipPath>
 </defs>
</svg>
