<?xml version="1.0" encoding="utf-8" standalone="no"?>
<!DOCTYPE svg PUBLIC "-//W3C//DTD SVG 1.1//EN"
  "http://www.w3.org/Graphics/SVG/1.1/DTD/svg11.dtd">
<svg xmlns:xlink="http://www.w3.org/1999/xlink" width="1304.437547pt" height="591.51675pt" viewBox="0 0 1304.437547 591.51675" xmlns="http://www.w3.org/2000/svg" version="1.1">
 <metadata>
  <rdf:RDF xmlns:dc="http://purl.org/dc/elements/1.1/" xmlns:cc="http://creativecommons.org/ns#" xmlns:rdf="http://www.w3.org/1999/02/22-rdf-syntax-ns#">
   <cc:Work>
    <dc:type rdf:resource="http://purl.org/dc/dcmitype/StillImage"/>
    <dc:date>2023-04-26T16:40:28.297212</dc:date>
    <dc:format>image/svg+xml</dc:format>
    <dc:creator>
     <cc:Agent>
      <dc:title>Matplotlib v3.7.1, https://matplotlib.org/</dc:title>
     </cc:Agent>
    </dc:creator>
   </cc:Work>
  </rdf:RDF>
 </metadata>
 <defs>
  <style type="text/css">*{stroke-linejoin: round; stroke-linecap: butt}</style>
 </defs>
 <g id="figure_1">
  <g id="patch_1">
   <path d="M 0 591.51675 
L 1304.437547 591.51675 
L 1304.437547 -0 
L 0 -0 
z
" style="fill: #ffffff"/>
  </g>
  <g id="axes_1">
   <g id="patch_2">
    <path d="M 170.340091 201.042 
L 462.70916 201.042 
L 462.70916 81.456 
L 170.340091 81.456 
z
" style="fill: #eaeaf2"/>
   </g>
   <g id="matplotlib.axis_1">
    <g id="xtick_1">
     <g id="line2d_1">
      <path d="M 183.629594 201.042 
L 183.629594 81.456 
" clip-path="url(#p0def4afa3a)" style="fill: none; stroke: #ffffff; stroke-linecap: round"/>
     </g>
    </g>
    <g id="xtick_2">
     <g id="line2d_2">
      <path d="M 274.77845 201.042 
L 274.77845 81.456 
" clip-path="url(#p0def4afa3a)" style="fill: none; stroke: #ffffff; stroke-linecap: round"/>
     </g>
    </g>
    <g id="xtick_3">
     <g id="line2d_3">
      <path d="M 365.927305 201.042 
L 365.927305 81.456 
" clip-path="url(#p0def4afa3a)" style="fill: none; stroke: #ffffff; stroke-linecap: round"/>
     </g>
    </g>
    <g id="xtick_4">
     <g id="line2d_4">
      <path d="M 457.076161 201.042 
L 457.076161 81.456 
" clip-path="url(#p0def4afa3a)" style="fill: none; stroke: #ffffff; stroke-linecap: round"/>
     </g>
    </g>
   </g>
   <g id="matplotlib.axis_2">
    <g id="ytick_1">
     <g id="line2d_5">
      <path d="M 170.340091 159.335324 
L 462.70916 159.335324 
" clip-path="url(#p0def4afa3a)" style="fill: none; stroke: #ffffff; stroke-linecap: round"/>
     </g>
     <g id="text_1">
      <!-- −0.2 -->
      <g style="fill: #262626" transform="translate(104.746794 168.111519) scale(0.231 -0.231)">
       <defs>
        <path id="DejaVuSans-2212" d="M 678 2272 
L 4684 2272 
L 4684 1741 
L 678 1741 
L 678 2272 
z
" transform="scale(0.015625)"/>
        <path id="DejaVuSans-30" d="M 2034 4250 
Q 1547 4250 1301 3770 
Q 1056 3291 1056 2328 
Q 1056 1369 1301 889 
Q 1547 409 2034 409 
Q 2525 409 2770 889 
Q 3016 1369 3016 2328 
Q 3016 3291 2770 3770 
Q 2525 4250 2034 4250 
z
M 2034 4750 
Q 2819 4750 3233 4129 
Q 3647 3509 3647 2328 
Q 3647 1150 3233 529 
Q 2819 -91 2034 -91 
Q 1250 -91 836 529 
Q 422 1150 422 2328 
Q 422 3509 836 4129 
Q 1250 4750 2034 4750 
z
" transform="scale(0.015625)"/>
        <path id="DejaVuSans-2e" d="M 684 794 
L 1344 794 
L 1344 0 
L 684 0 
L 684 794 
z
" transform="scale(0.015625)"/>
        <path id="DejaVuSans-32" d="M 1228 531 
L 3431 531 
L 3431 0 
L 469 0 
L 469 531 
Q 828 903 1448 1529 
Q 2069 2156 2228 2338 
Q 2531 2678 2651 2914 
Q 2772 3150 2772 3378 
Q 2772 3750 2511 3984 
Q 2250 4219 1831 4219 
Q 1534 4219 1204 4116 
Q 875 4013 500 3803 
L 500 4441 
Q 881 4594 1212 4672 
Q 1544 4750 1819 4750 
Q 2544 4750 2975 4387 
Q 3406 4025 3406 3419 
Q 3406 3131 3298 2873 
Q 3191 2616 2906 2266 
Q 2828 2175 2409 1742 
Q 1991 1309 1228 531 
z
" transform="scale(0.015625)"/>
       </defs>
       <use xlink:href="#DejaVuSans-2212"/>
       <use xlink:href="#DejaVuSans-30" x="83.789062"/>
       <use xlink:href="#DejaVuSans-2e" x="147.412109"/>
       <use xlink:href="#DejaVuSans-32" x="179.199219"/>
      </g>
     </g>
    </g>
    <g id="ytick_2">
     <g id="line2d_6">
      <path d="M 170.340091 86.891727 
L 462.70916 86.891727 
" clip-path="url(#p0def4afa3a)" style="fill: none; stroke: #ffffff; stroke-linecap: round"/>
     </g>
     <g id="text_2">
      <!-- 0.0 -->
      <g style="fill: #262626" transform="translate(124.103872 95.667923) scale(0.231 -0.231)">
       <use xlink:href="#DejaVuSans-30"/>
       <use xlink:href="#DejaVuSans-2e" x="63.623047"/>
       <use xlink:href="#DejaVuSans-30" x="95.410156"/>
      </g>
     </g>
    </g>
    <g id="text_3">
     <!-- % change -->
     <g style="fill: #262626" transform="translate(95.505982 203.597344) rotate(-90) scale(0.252 -0.252)">
      <defs>
       <path id="DejaVuSans-25" d="M 4653 2053 
Q 4381 2053 4226 1822 
Q 4072 1591 4072 1178 
Q 4072 772 4226 539 
Q 4381 306 4653 306 
Q 4919 306 5073 539 
Q 5228 772 5228 1178 
Q 5228 1588 5073 1820 
Q 4919 2053 4653 2053 
z
M 4653 2450 
Q 5147 2450 5437 2106 
Q 5728 1763 5728 1178 
Q 5728 594 5436 251 
Q 5144 -91 4653 -91 
Q 4153 -91 3862 251 
Q 3572 594 3572 1178 
Q 3572 1766 3864 2108 
Q 4156 2450 4653 2450 
z
M 1428 4353 
Q 1159 4353 1004 4120 
Q 850 3888 850 3481 
Q 850 3069 1003 2837 
Q 1156 2606 1428 2606 
Q 1700 2606 1854 2837 
Q 2009 3069 2009 3481 
Q 2009 3884 1853 4118 
Q 1697 4353 1428 4353 
z
M 4250 4750 
L 4750 4750 
L 1831 -91 
L 1331 -91 
L 4250 4750 
z
M 1428 4750 
Q 1922 4750 2215 4408 
Q 2509 4066 2509 3481 
Q 2509 2891 2217 2550 
Q 1925 2209 1428 2209 
Q 931 2209 642 2551 
Q 353 2894 353 3481 
Q 353 4063 643 4406 
Q 934 4750 1428 4750 
z
" transform="scale(0.015625)"/>
       <path id="DejaVuSans-20" transform="scale(0.015625)"/>
       <path id="DejaVuSans-63" d="M 3122 3366 
L 3122 2828 
Q 2878 2963 2633 3030 
Q 2388 3097 2138 3097 
Q 1578 3097 1268 2742 
Q 959 2388 959 1747 
Q 959 1106 1268 751 
Q 1578 397 2138 397 
Q 2388 397 2633 464 
Q 2878 531 3122 666 
L 3122 134 
Q 2881 22 2623 -34 
Q 2366 -91 2075 -91 
Q 1284 -91 818 406 
Q 353 903 353 1747 
Q 353 2603 823 3093 
Q 1294 3584 2113 3584 
Q 2378 3584 2631 3529 
Q 2884 3475 3122 3366 
z
" transform="scale(0.015625)"/>
       <path id="DejaVuSans-68" d="M 3513 2113 
L 3513 0 
L 2938 0 
L 2938 2094 
Q 2938 2591 2744 2837 
Q 2550 3084 2163 3084 
Q 1697 3084 1428 2787 
Q 1159 2491 1159 1978 
L 1159 0 
L 581 0 
L 581 4863 
L 1159 4863 
L 1159 2956 
Q 1366 3272 1645 3428 
Q 1925 3584 2291 3584 
Q 2894 3584 3203 3211 
Q 3513 2838 3513 2113 
z
" transform="scale(0.015625)"/>
       <path id="DejaVuSans-61" d="M 2194 1759 
Q 1497 1759 1228 1600 
Q 959 1441 959 1056 
Q 959 750 1161 570 
Q 1363 391 1709 391 
Q 2188 391 2477 730 
Q 2766 1069 2766 1631 
L 2766 1759 
L 2194 1759 
z
M 3341 1997 
L 3341 0 
L 2766 0 
L 2766 531 
Q 2569 213 2275 61 
Q 1981 -91 1556 -91 
Q 1019 -91 701 211 
Q 384 513 384 1019 
Q 384 1609 779 1909 
Q 1175 2209 1959 2209 
L 2766 2209 
L 2766 2266 
Q 2766 2663 2505 2880 
Q 2244 3097 1772 3097 
Q 1472 3097 1187 3025 
Q 903 2953 641 2809 
L 641 3341 
Q 956 3463 1253 3523 
Q 1550 3584 1831 3584 
Q 2591 3584 2966 3190 
Q 3341 2797 3341 1997 
z
" transform="scale(0.015625)"/>
       <path id="DejaVuSans-6e" d="M 3513 2113 
L 3513 0 
L 2938 0 
L 2938 2094 
Q 2938 2591 2744 2837 
Q 2550 3084 2163 3084 
Q 1697 3084 1428 2787 
Q 1159 2491 1159 1978 
L 1159 0 
L 581 0 
L 581 3500 
L 1159 3500 
L 1159 2956 
Q 1366 3272 1645 3428 
Q 1925 3584 2291 3584 
Q 2894 3584 3203 3211 
Q 3513 2838 3513 2113 
z
" transform="scale(0.015625)"/>
       <path id="DejaVuSans-67" d="M 2906 1791 
Q 2906 2416 2648 2759 
Q 2391 3103 1925 3103 
Q 1463 3103 1205 2759 
Q 947 2416 947 1791 
Q 947 1169 1205 825 
Q 1463 481 1925 481 
Q 2391 481 2648 825 
Q 2906 1169 2906 1791 
z
M 3481 434 
Q 3481 -459 3084 -895 
Q 2688 -1331 1869 -1331 
Q 1566 -1331 1297 -1286 
Q 1028 -1241 775 -1147 
L 775 -588 
Q 1028 -725 1275 -790 
Q 1522 -856 1778 -856 
Q 2344 -856 2625 -561 
Q 2906 -266 2906 331 
L 2906 616 
Q 2728 306 2450 153 
Q 2172 0 1784 0 
Q 1141 0 747 490 
Q 353 981 353 1791 
Q 353 2603 747 3093 
Q 1141 3584 1784 3584 
Q 2172 3584 2450 3431 
Q 2728 3278 2906 2969 
L 2906 3500 
L 3481 3500 
L 3481 434 
z
" transform="scale(0.015625)"/>
       <path id="DejaVuSans-65" d="M 3597 1894 
L 3597 1613 
L 953 1613 
Q 991 1019 1311 708 
Q 1631 397 2203 397 
Q 2534 397 2845 478 
Q 3156 559 3463 722 
L 3463 178 
Q 3153 47 2828 -22 
Q 2503 -91 2169 -91 
Q 1331 -91 842 396 
Q 353 884 353 1716 
Q 353 2575 817 3079 
Q 1281 3584 2069 3584 
Q 2775 3584 3186 3129 
Q 3597 2675 3597 1894 
z
M 3022 2063 
Q 3016 2534 2758 2815 
Q 2500 3097 2075 3097 
Q 1594 3097 1305 2825 
Q 1016 2553 972 2059 
L 3022 2063 
z
" transform="scale(0.015625)"/>
      </defs>
      <use xlink:href="#DejaVuSans-25"/>
      <use xlink:href="#DejaVuSans-20" x="95.019531"/>
      <use xlink:href="#DejaVuSans-63" x="126.806641"/>
      <use xlink:href="#DejaVuSans-68" x="181.787109"/>
      <use xlink:href="#DejaVuSans-61" x="245.166016"/>
      <use xlink:href="#DejaVuSans-6e" x="306.445312"/>
      <use xlink:href="#DejaVuSans-67" x="369.824219"/>
      <use xlink:href="#DejaVuSans-65" x="433.300781"/>
     </g>
    </g>
   </g>
   <g id="PolyCollection_1"/>
   <g id="PolyCollection_2"/>
   <g id="PolyCollection_3"/>
   <g id="PolyCollection_4"/>
   <g id="PolyCollection_5"/>
   <g id="PolyCollection_6"/>
   <g id="line2d_7">
    <path d="M 183.629594 86.891727 
L 187.275548 92.091966 
L 192.74448 99.703603 
L 197.48422 105.897769 
L 202.223961 111.712269 
L 206.963701 117.154696 
L 211.338846 121.854267 
L 215.713991 126.247303 
L 220.089136 130.338071 
L 224.464282 134.131217 
L 228.839427 137.640973 
L 233.214572 140.876021 
L 237.589717 143.840327 
L 241.964862 146.542124 
L 246.340007 148.987697 
L 250.715152 151.180874 
L 255.090297 153.125529 
L 259.465442 154.825513 
L 263.840587 156.284749 
L 268.215732 157.507206 
L 272.590877 158.496775 
L 276.966022 159.257137 
L 281.341167 159.79194 
L 286.445503 160.163531 
L 291.549839 160.320014 
L 297.018771 160.266273 
L 304.310679 159.969294 
L 311.967183 159.428544 
L 320.717473 158.600477 
L 338.947244 156.727985 
L 354.260252 155.437288 
L 370.667046 154.2705 
L 406.397397 152.067895 
L 449.419657 149.493679 
L 449.419657 149.493679 
" clip-path="url(#p0def4afa3a)" style="fill: none; stroke: #4c72b0; stroke-opacity: 0.9; stroke-width: 3; stroke-linecap: round"/>
   </g>
   <g id="line2d_8">
    <path d="M 183.629594 86.891727 
L 187.275548 89.768372 
L 193.838266 94.823618 
L 199.307197 98.74689 
L 204.776129 102.40464 
L 210.24506 105.80077 
L 215.713991 108.940052 
L 221.182923 111.826709 
L 226.651854 114.464973 
L 232.120785 116.860143 
L 237.589717 119.017007 
L 243.423244 121.069009 
L 249.25677 122.875634 
L 255.090297 124.446661 
L 260.923824 125.786561 
L 266.757351 126.89922 
L 272.590877 127.788668 
L 278.424404 128.458848 
L 284.257931 128.914414 
L 291.185244 129.221526 
L 298.477152 129.312514 
L 307.227442 129.191191 
L 315.613137 128.854785 
L 326.186404 128.183674 
L 341.864008 127.26529 
L 372.490023 125.826513 
L 408.58497 124.345844 
L 449.419657 122.784076 
L 449.419657 122.784076 
" clip-path="url(#p0def4afa3a)" style="fill: none; stroke: #dd8452; stroke-opacity: 0.9; stroke-width: 3; stroke-linecap: round"/>
   </g>
   <g id="line2d_9">
    <path d="M 183.629594 86.891727 
L 185.817167 90.220145 
L 192.015289 99.570619 
L 196.755029 106.286845 
L 201.49477 112.595819 
L 205.869915 118.065487 
L 210.24506 123.20134 
L 214.620205 128.008078 
L 218.99535 132.490123 
L 223.370495 136.652878 
L 227.74564 140.501807 
L 232.120785 144.043245 
L 236.49593 147.282438 
L 240.871076 150.225584 
L 244.881625 152.668508 
L 248.892175 154.87262 
L 253.26732 157.013559 
L 257.642465 158.887094 
L 262.01761 160.500769 
L 266.392755 161.860775 
L 270.7679 162.972328 
L 275.143045 163.840412 
L 279.51819 164.469673 
L 283.893335 164.867389 
L 288.633076 165.072389 
L 293.737412 165.077014 
L 299.935534 164.85957 
L 307.592038 164.3696 
L 316.342328 163.581075 
L 341.499412 161.10704 
L 354.989443 160.211914 
L 376.500573 159.025061 
L 429.731504 156.385019 
L 449.419657 155.420644 
L 449.419657 155.420644 
" clip-path="url(#p0def4afa3a)" style="fill: none; stroke: #55a868; stroke-opacity: 0.9; stroke-width: 3; stroke-linecap: round"/>
   </g>
   <g id="line2d_10">
    <path d="M 183.629594 86.891727 
L 186.181762 89.950943 
L 192.379884 97.28334 
L 197.119625 102.54088 
L 201.859365 107.47743 
L 206.599106 112.098592 
L 211.338846 116.409283 
L 216.078587 120.41442 
L 220.818327 124.119342 
L 225.558068 127.530603 
L 230.297808 130.654338 
L 235.037549 133.49654 
L 239.777289 136.06362 
L 244.51703 138.36283 
L 249.25677 140.40097 
L 253.996511 142.186127 
L 258.736251 143.726415 
L 263.475992 145.029741 
L 268.215732 146.102612 
L 272.955473 146.950607 
L 277.695213 147.578541 
L 282.434954 147.992005 
L 287.903885 148.232097 
L 294.102007 148.264847 
L 301.758511 148.059057 
L 310.873397 147.573329 
L 320.717473 146.820129 
L 335.665885 145.62163 
L 348.791321 144.828339 
L 369.937855 143.803675 
L 418.793642 141.731952 
L 449.419657 140.456238 
L 449.419657 140.456238 
" clip-path="url(#p0def4afa3a)" style="fill: none; stroke: #c44e52; stroke-opacity: 0.9; stroke-width: 3; stroke-linecap: round"/>
   </g>
   <g id="line2d_11">
    <path d="M 183.629594 86.891727 
L 186.910953 91.407285 
L 192.74448 99.250435 
L 197.48422 105.226443 
L 202.223961 110.838115 
L 206.963701 116.091417 
L 211.703442 120.991864 
L 216.078587 125.206786 
L 220.453732 129.129859 
L 224.828877 132.765183 
L 229.204022 136.116577 
L 233.579167 139.188356 
L 237.954312 141.985637 
L 242.329457 144.512272 
L 246.704602 146.771984 
L 251.079747 148.770023 
L 255.454892 150.515563 
L 259.830038 152.012963 
L 264.205183 153.265721 
L 268.580328 154.27738 
L 272.955473 155.0516 
L 277.330618 155.591978 
L 281.705763 155.904854 
L 286.445503 156.017939 
L 291.549839 155.918611 
L 297.018771 155.594544 
L 302.852297 155.033432 
L 309.77961 154.127128 
L 322.175855 152.269805 
L 330.56155 151.042865 
L 340.405626 149.858771 
L 350.978893 148.82338 
L 366.656496 147.53792 
L 383.427886 146.355116 
L 412.230924 144.59535 
L 449.419657 142.436285 
L 449.419657 142.436285 
" clip-path="url(#p0def4afa3a)" style="fill: none; stroke: #8172b3; stroke-opacity: 0.9; stroke-width: 3; stroke-linecap: round"/>
   </g>
   <g id="line2d_12">
    <path d="M 183.629594 86.891727 
L 188.004739 91.691457 
L 193.473671 97.506067 
L 198.578007 102.587754 
L 203.682342 107.339513 
L 208.422083 111.461786 
L 213.161823 115.309235 
L 217.901564 118.885987 
L 222.641304 122.19646 
L 227.381045 125.245728 
L 232.120785 128.037767 
L 236.860526 130.576456 
L 241.600266 132.865658 
L 246.340007 134.909226 
L 251.079747 136.713979 
L 255.819488 138.285662 
L 260.559228 139.62817 
L 265.298969 140.745725 
L 270.038709 141.641899 
L 274.77845 142.319984 
L 279.51819 142.783388 
L 284.622526 143.053736 
L 290.456053 143.129963 
L 296.654175 142.981402 
L 303.216893 142.587588 
L 310.873397 141.880628 
L 321.446664 140.678434 
L 333.113717 139.3488 
L 346.603748 138.063121 
L 359.364588 137.055863 
L 381.240313 135.646439 
L 410.043352 134.052122 
L 449.419657 131.999203 
L 449.419657 131.999203 
" clip-path="url(#p0def4afa3a)" style="fill: none; stroke: #937860; stroke-opacity: 0.9; stroke-width: 3; stroke-linecap: round"/>
   </g>
   <g id="patch_3">
    <path d="M 170.340091 201.042 
L 170.340091 81.456 
" style="fill: none; stroke: #ffffff; stroke-width: 1.25; stroke-linejoin: miter; stroke-linecap: square"/>
   </g>
   <g id="patch_4">
    <path d="M 170.340091 201.042 
L 462.70916 201.042 
" style="fill: none; stroke: #ffffff; stroke-width: 1.25; stroke-linejoin: miter; stroke-linecap: square"/>
   </g>
   <g id="text_4">
    <!-- 0.8~90 -->
    <g style="fill: #262626" transform="translate(269.894782 75.456) scale(0.252 -0.252)">
     <defs>
      <path id="DejaVuSans-38" d="M 2034 2216 
Q 1584 2216 1326 1975 
Q 1069 1734 1069 1313 
Q 1069 891 1326 650 
Q 1584 409 2034 409 
Q 2484 409 2743 651 
Q 3003 894 3003 1313 
Q 3003 1734 2745 1975 
Q 2488 2216 2034 2216 
z
M 1403 2484 
Q 997 2584 770 2862 
Q 544 3141 544 3541 
Q 544 4100 942 4425 
Q 1341 4750 2034 4750 
Q 2731 4750 3128 4425 
Q 3525 4100 3525 3541 
Q 3525 3141 3298 2862 
Q 3072 2584 2669 2484 
Q 3125 2378 3379 2068 
Q 3634 1759 3634 1313 
Q 3634 634 3220 271 
Q 2806 -91 2034 -91 
Q 1263 -91 848 271 
Q 434 634 434 1313 
Q 434 1759 690 2068 
Q 947 2378 1403 2484 
z
M 1172 3481 
Q 1172 3119 1398 2916 
Q 1625 2713 2034 2713 
Q 2441 2713 2670 2916 
Q 2900 3119 2900 3481 
Q 2900 3844 2670 4047 
Q 2441 4250 2034 4250 
Q 1625 4250 1398 4047 
Q 1172 3844 1172 3481 
z
" transform="scale(0.015625)"/>
      <path id="DejaVuSans-7e" d="M 4684 2553 
L 4684 1997 
Q 4356 1750 4076 1644 
Q 3797 1538 3494 1538 
Q 3150 1538 2694 1722 
Q 2659 1734 2644 1741 
Q 2622 1750 2575 1766 
Q 2091 1959 1797 1959 
Q 1522 1959 1253 1839 
Q 984 1719 678 1459 
L 678 2016 
Q 1006 2263 1286 2370 
Q 1566 2478 1869 2478 
Q 2213 2478 2672 2291 
Q 2703 2278 2719 2272 
Q 2744 2263 2788 2247 
Q 3272 2053 3566 2053 
Q 3834 2053 4098 2172 
Q 4363 2291 4684 2553 
z
" transform="scale(0.015625)"/>
      <path id="DejaVuSans-39" d="M 703 97 
L 703 672 
Q 941 559 1184 500 
Q 1428 441 1663 441 
Q 2288 441 2617 861 
Q 2947 1281 2994 2138 
Q 2813 1869 2534 1725 
Q 2256 1581 1919 1581 
Q 1219 1581 811 2004 
Q 403 2428 403 3163 
Q 403 3881 828 4315 
Q 1253 4750 1959 4750 
Q 2769 4750 3195 4129 
Q 3622 3509 3622 2328 
Q 3622 1225 3098 567 
Q 2575 -91 1691 -91 
Q 1453 -91 1209 -44 
Q 966 3 703 97 
z
M 1959 2075 
Q 2384 2075 2632 2365 
Q 2881 2656 2881 3163 
Q 2881 3666 2632 3958 
Q 2384 4250 1959 4250 
Q 1534 4250 1286 3958 
Q 1038 3666 1038 3163 
Q 1038 2656 1286 2365 
Q 1534 2075 1959 2075 
z
" transform="scale(0.015625)"/>
     </defs>
     <use xlink:href="#DejaVuSans-30"/>
     <use xlink:href="#DejaVuSans-2e" x="63.623047"/>
     <use xlink:href="#DejaVuSans-38" x="95.410156"/>
     <use xlink:href="#DejaVuSans-7e" x="159.033203"/>
     <use xlink:href="#DejaVuSans-39" x="242.822266"/>
     <use xlink:href="#DejaVuSans-30" x="306.445312"/>
    </g>
   </g>
  </g>
  <g id="axes_2">
   <g id="patch_5">
    <path d="M 489.290298 201.042 
L 781.659367 201.042 
L 781.659367 81.456 
L 489.290298 81.456 
z
" style="fill: #eaeaf2"/>
   </g>
   <g id="matplotlib.axis_3">
    <g id="xtick_5">
     <g id="line2d_13">
      <path d="M 502.579801 201.042 
L 502.579801 81.456 
" clip-path="url(#pef3bf37bd9)" style="fill: none; stroke: #ffffff; stroke-linecap: round"/>
     </g>
    </g>
    <g id="xtick_6">
     <g id="line2d_14">
      <path d="M 593.728656 201.042 
L 593.728656 81.456 
" clip-path="url(#pef3bf37bd9)" style="fill: none; stroke: #ffffff; stroke-linecap: round"/>
     </g>
    </g>
    <g id="xtick_7">
     <g id="line2d_15">
      <path d="M 684.877512 201.042 
L 684.877512 81.456 
" clip-path="url(#pef3bf37bd9)" style="fill: none; stroke: #ffffff; stroke-linecap: round"/>
     </g>
    </g>
    <g id="xtick_8">
     <g id="line2d_16">
      <path d="M 776.026368 201.042 
L 776.026368 81.456 
" clip-path="url(#pef3bf37bd9)" style="fill: none; stroke: #ffffff; stroke-linecap: round"/>
     </g>
    </g>
   </g>
   <g id="matplotlib.axis_4">
    <g id="ytick_3">
     <g id="line2d_17">
      <path d="M 489.290298 159.335324 
L 781.659367 159.335324 
" clip-path="url(#pef3bf37bd9)" style="fill: none; stroke: #ffffff; stroke-linecap: round"/>
     </g>
    </g>
    <g id="ytick_4">
     <g id="line2d_18">
      <path d="M 489.290298 86.891727 
L 781.659367 86.891727 
" clip-path="url(#pef3bf37bd9)" style="fill: none; stroke: #ffffff; stroke-linecap: round"/>
     </g>
    </g>
   </g>
   <g id="PolyCollection_7"/>
   <g id="PolyCollection_8"/>
   <g id="PolyCollection_9"/>
   <g id="PolyCollection_10"/>
   <g id="PolyCollection_11"/>
   <g id="PolyCollection_12"/>
   <g id="line2d_19">
    <path d="M 502.579801 86.891727 
L 505.86116 91.595517 
L 513.153068 101.915285 
L 518.621999 109.237443 
L 524.090931 116.187526 
L 529.559862 122.766601 
L 534.664198 128.573277 
L 539.768534 134.058661 
L 544.87287 139.22382 
L 549.977206 144.070016 
L 555.081542 148.599118 
L 559.821282 152.521981 
L 564.561023 156.173713 
L 569.300763 159.555785 
L 574.040504 162.669806 
L 578.780244 165.517031 
L 583.519985 168.098718 
L 588.259725 170.416168 
L 592.999466 172.471422 
L 597.739206 174.271749 
L 602.478947 175.820266 
L 607.218687 177.121437 
L 611.958428 178.177024 
L 616.698168 178.988242 
L 621.437908 179.556329 
L 626.177649 179.882423 
L 630.917389 179.975693 
L 636.386321 179.86396 
L 642.219848 179.515657 
L 664.824764 177.99286 
L 676.856413 177.46352 
L 695.086184 176.913493 
L 725.347604 176.234695 
L 768.369864 175.449375 
L 768.369864 175.449375 
" clip-path="url(#pef3bf37bd9)" style="fill: none; stroke: #4c72b0; stroke-opacity: 0.9; stroke-width: 3; stroke-linecap: round"/>
   </g>
   <g id="line2d_20">
    <path d="M 502.579801 86.891727 
L 505.86116 89.490627 
L 513.882259 95.774548 
L 520.444976 100.601869 
L 526.643099 104.892767 
L 532.841221 108.923893 
L 539.039343 112.696016 
L 545.237465 116.209989 
L 551.435587 119.466815 
L 557.63371 122.467529 
L 563.831832 125.213284 
L 570.029954 127.705363 
L 576.228076 129.945613 
L 582.061603 131.825373 
L 587.89513 133.484472 
L 593.728656 134.924137 
L 599.562183 136.146182 
L 605.39571 137.152582 
L 611.593832 137.995174 
L 617.791954 138.610637 
L 623.990076 139.000388 
L 630.188199 139.166121 
L 637.480107 139.121368 
L 647.324183 138.798029 
L 676.856413 137.869996 
L 699.461329 137.45278 
L 757.432001 136.758725 
L 768.369864 136.638712 
L 768.369864 136.638712 
" clip-path="url(#pef3bf37bd9)" style="fill: none; stroke: #dd8452; stroke-opacity: 0.9; stroke-width: 3; stroke-linecap: round"/>
   </g>
   <g id="line2d_21">
    <path d="M 502.579801 86.891727 
L 504.767373 90.229926 
L 512.788473 102.460689 
L 518.257404 110.343816 
L 523.726335 117.826258 
L 528.830671 124.450077 
L 533.935007 130.728323 
L 539.039343 136.662171 
L 544.143679 142.252555 
L 549.248015 147.500601 
L 553.987755 152.068302 
L 558.727496 156.342815 
L 563.467236 160.32519 
L 568.206977 164.016768 
L 572.946717 167.419178 
L 577.686458 170.533799 
L 582.061603 173.154812 
L 586.436748 175.533639 
L 590.811893 177.67163 
L 595.187038 179.570861 
L 599.562183 181.233018 
L 603.937328 182.659686 
L 608.312473 183.853047 
L 612.687618 184.815376 
L 617.062763 185.551732 
L 621.437908 186.06796 
L 625.813054 186.36758 
L 630.552794 186.458347 
L 635.65713 186.325559 
L 641.126061 185.947472 
L 653.522306 184.962545 
L 664.824764 184.307834 
L 678.67939 183.737545 
L 696.544566 183.235931 
L 721.337054 182.803877 
L 768.369864 182.176939 
L 768.369864 182.176939 
" clip-path="url(#pef3bf37bd9)" style="fill: none; stroke: #55a868; stroke-opacity: 0.9; stroke-width: 3; stroke-linecap: round"/>
   </g>
   <g id="line2d_22">
    <path d="M 502.579801 86.891727 
L 504.767373 89.517705 
L 513.153068 99.564708 
L 518.986595 106.148406 
L 524.455526 111.995448 
L 529.924457 117.528921 
L 535.393389 122.749804 
L 540.86232 127.659089 
L 546.331251 132.257884 
L 551.435587 136.270993 
L 556.539923 140.015695 
L 561.644259 143.493094 
L 566.748595 146.704413 
L 571.852931 149.651086 
L 576.957267 152.334703 
L 582.061603 154.756782 
L 587.165939 156.919413 
L 592.270275 158.824813 
L 597.010015 160.36586 
L 601.749756 161.689229 
L 606.489496 162.797071 
L 611.229237 163.692102 
L 616.333573 164.421902 
L 621.437908 164.915132 
L 626.542244 165.177777 
L 632.011176 165.221866 
L 637.844703 165.040519 
L 647.324183 164.449202 
L 659.720428 163.820482 
L 675.398031 163.266054 
L 697.273756 162.730519 
L 723.524627 162.349548 
L 768.369864 161.846481 
L 768.369864 161.846481 
" clip-path="url(#pef3bf37bd9)" style="fill: none; stroke: #c44e52; stroke-opacity: 0.9; stroke-width: 3; stroke-linecap: round"/>
   </g>
   <g id="line2d_23">
    <path d="M 502.579801 86.891727 
L 505.496564 90.922884 
L 513.153068 101.383023 
L 518.621999 108.445112 
L 524.090931 115.149452 
L 529.559862 121.497328 
L 535.028793 127.489875 
L 540.133129 132.76334 
L 545.237465 137.729235 
L 550.341801 142.388517 
L 555.446137 146.742153 
L 560.550473 150.79114 
L 565.290213 154.279022 
L 570.029954 157.505952 
L 574.769694 160.472861 
L 579.509435 163.180747 
L 584.249175 165.630646 
L 588.988916 167.823629 
L 593.728656 169.760759 
L 598.468397 171.443484 
L 603.208137 172.873663 
L 607.583282 173.970821 
L 611.958428 174.855008 
L 616.698168 175.576731 
L 621.437908 176.056998 
L 626.177649 176.296999 
L 630.917389 176.309129 
L 636.021725 176.111314 
L 642.219848 175.631954 
L 660.814214 174.086288 
L 681.596153 172.590814 
L 693.627802 171.895769 
L 707.847024 171.307856 
L 731.181131 170.588185 
L 765.817696 169.796163 
L 768.369864 169.742891 
L 768.369864 169.742891 
" clip-path="url(#pef3bf37bd9)" style="fill: none; stroke: #8172b3; stroke-opacity: 0.9; stroke-width: 3; stroke-linecap: round"/>
   </g>
   <g id="line2d_24">
    <path d="M 502.579801 86.891727 
L 506.225755 90.915764 
L 513.517663 98.831248 
L 519.35119 104.808532 
L 525.184717 110.463398 
L 531.018244 115.797254 
L 536.487175 120.507377 
L 541.956106 124.937526 
L 547.425038 129.088687 
L 552.893969 132.961867 
L 558.3629 136.558081 
L 563.831832 139.878404 
L 569.300763 142.923946 
L 574.405099 145.519477 
L 579.509435 147.877499 
L 584.613771 149.999005 
L 589.718107 151.885474 
L 594.822443 153.538177 
L 599.926779 154.958209 
L 605.031114 156.146697 
L 610.13545 157.104747 
L 615.239786 157.834935 
L 620.344122 158.341168 
L 625.448458 158.625292 
L 630.552794 158.693106 
L 636.750916 158.537936 
L 644.40742 158.099332 
L 668.470718 156.712955 
L 688.158871 155.789034 
L 707.117833 155.178544 
L 738.473039 154.417486 
L 768.369864 153.844272 
L 768.369864 153.844272 
" clip-path="url(#pef3bf37bd9)" style="fill: none; stroke: #937860; stroke-opacity: 0.9; stroke-width: 3; stroke-linecap: round"/>
   </g>
   <g id="patch_6">
    <path d="M 489.290298 201.042 
L 489.290298 81.456 
" style="fill: none; stroke: #ffffff; stroke-width: 1.25; stroke-linejoin: miter; stroke-linecap: square"/>
   </g>
   <g id="patch_7">
    <path d="M 489.290298 201.042 
L 781.659367 201.042 
" style="fill: none; stroke: #ffffff; stroke-width: 1.25; stroke-linejoin: miter; stroke-linecap: square"/>
   </g>
   <g id="text_5">
    <!-- 0.8~365 -->
    <g style="fill: #262626" transform="translate(580.828239 75.456) scale(0.252 -0.252)">
     <defs>
      <path id="DejaVuSans-33" d="M 2597 2516 
Q 3050 2419 3304 2112 
Q 3559 1806 3559 1356 
Q 3559 666 3084 287 
Q 2609 -91 1734 -91 
Q 1441 -91 1130 -33 
Q 819 25 488 141 
L 488 750 
Q 750 597 1062 519 
Q 1375 441 1716 441 
Q 2309 441 2620 675 
Q 2931 909 2931 1356 
Q 2931 1769 2642 2001 
Q 2353 2234 1838 2234 
L 1294 2234 
L 1294 2753 
L 1863 2753 
Q 2328 2753 2575 2939 
Q 2822 3125 2822 3475 
Q 2822 3834 2567 4026 
Q 2313 4219 1838 4219 
Q 1578 4219 1281 4162 
Q 984 4106 628 3988 
L 628 4550 
Q 988 4650 1302 4700 
Q 1616 4750 1894 4750 
Q 2613 4750 3031 4423 
Q 3450 4097 3450 3541 
Q 3450 3153 3228 2886 
Q 3006 2619 2597 2516 
z
" transform="scale(0.015625)"/>
      <path id="DejaVuSans-36" d="M 2113 2584 
Q 1688 2584 1439 2293 
Q 1191 2003 1191 1497 
Q 1191 994 1439 701 
Q 1688 409 2113 409 
Q 2538 409 2786 701 
Q 3034 994 3034 1497 
Q 3034 2003 2786 2293 
Q 2538 2584 2113 2584 
z
M 3366 4563 
L 3366 3988 
Q 3128 4100 2886 4159 
Q 2644 4219 2406 4219 
Q 1781 4219 1451 3797 
Q 1122 3375 1075 2522 
Q 1259 2794 1537 2939 
Q 1816 3084 2150 3084 
Q 2853 3084 3261 2657 
Q 3669 2231 3669 1497 
Q 3669 778 3244 343 
Q 2819 -91 2113 -91 
Q 1303 -91 875 529 
Q 447 1150 447 2328 
Q 447 3434 972 4092 
Q 1497 4750 2381 4750 
Q 2619 4750 2861 4703 
Q 3103 4656 3366 4563 
z
" transform="scale(0.015625)"/>
      <path id="DejaVuSans-35" d="M 691 4666 
L 3169 4666 
L 3169 4134 
L 1269 4134 
L 1269 2991 
Q 1406 3038 1543 3061 
Q 1681 3084 1819 3084 
Q 2600 3084 3056 2656 
Q 3513 2228 3513 1497 
Q 3513 744 3044 326 
Q 2575 -91 1722 -91 
Q 1428 -91 1123 -41 
Q 819 9 494 109 
L 494 744 
Q 775 591 1075 516 
Q 1375 441 1709 441 
Q 2250 441 2565 725 
Q 2881 1009 2881 1497 
Q 2881 1984 2565 2268 
Q 2250 2553 1709 2553 
Q 1456 2553 1204 2497 
Q 953 2441 691 2322 
L 691 4666 
z
" transform="scale(0.015625)"/>
     </defs>
     <use xlink:href="#DejaVuSans-30"/>
     <use xlink:href="#DejaVuSans-2e" x="63.623047"/>
     <use xlink:href="#DejaVuSans-38" x="95.410156"/>
     <use xlink:href="#DejaVuSans-7e" x="159.033203"/>
     <use xlink:href="#DejaVuSans-33" x="242.822266"/>
     <use xlink:href="#DejaVuSans-36" x="306.445312"/>
     <use xlink:href="#DejaVuSans-35" x="370.068359"/>
    </g>
   </g>
  </g>
  <g id="axes_3">
   <g id="patch_8">
    <path d="M 808.240504 201.042 
L 1100.609573 201.042 
L 1100.609573 81.456 
L 808.240504 81.456 
z
" style="fill: #eaeaf2"/>
   </g>
   <g id="matplotlib.axis_5">
    <g id="xtick_9">
     <g id="line2d_25">
      <path d="M 821.530007 201.042 
L 821.530007 81.456 
" clip-path="url(#p58466b71b4)" style="fill: none; stroke: #ffffff; stroke-linecap: round"/>
     </g>
    </g>
    <g id="xtick_10">
     <g id="line2d_26">
      <path d="M 912.678863 201.042 
L 912.678863 81.456 
" clip-path="url(#p58466b71b4)" style="fill: none; stroke: #ffffff; stroke-linecap: round"/>
     </g>
    </g>
    <g id="xtick_11">
     <g id="line2d_27">
      <path d="M 1003.827719 201.042 
L 1003.827719 81.456 
" clip-path="url(#p58466b71b4)" style="fill: none; stroke: #ffffff; stroke-linecap: round"/>
     </g>
    </g>
    <g id="xtick_12">
     <g id="line2d_28">
      <path d="M 1094.976574 201.042 
L 1094.976574 81.456 
" clip-path="url(#p58466b71b4)" style="fill: none; stroke: #ffffff; stroke-linecap: round"/>
     </g>
    </g>
   </g>
   <g id="matplotlib.axis_6">
    <g id="ytick_5">
     <g id="line2d_29">
      <path d="M 808.240504 159.335324 
L 1100.609573 159.335324 
" clip-path="url(#p58466b71b4)" style="fill: none; stroke: #ffffff; stroke-linecap: round"/>
     </g>
    </g>
    <g id="ytick_6">
     <g id="line2d_30">
      <path d="M 808.240504 86.891727 
L 1100.609573 86.891727 
" clip-path="url(#p58466b71b4)" style="fill: none; stroke: #ffffff; stroke-linecap: round"/>
     </g>
    </g>
   </g>
   <g id="PolyCollection_13"/>
   <g id="PolyCollection_14"/>
   <g id="PolyCollection_15"/>
   <g id="PolyCollection_16"/>
   <g id="PolyCollection_17"/>
   <g id="PolyCollection_18"/>
   <g id="line2d_31">
    <path d="M 821.530007 86.891727 
L 825.175962 92.091966 
L 830.644893 99.703603 
L 835.384633 105.897769 
L 840.124374 111.712269 
L 844.864114 117.154696 
L 849.239259 121.854267 
L 853.614404 126.247303 
L 857.98955 130.338071 
L 862.364695 134.131217 
L 866.73984 137.640973 
L 871.114985 140.876021 
L 875.49013 143.840327 
L 879.865275 146.542124 
L 884.24042 148.987697 
L 888.615565 151.180874 
L 892.99071 153.125529 
L 897.365855 154.825513 
L 901.741 156.284749 
L 906.116145 157.507206 
L 910.49129 158.496775 
L 914.866435 159.257137 
L 919.241581 159.79194 
L 924.345916 160.163531 
L 929.450252 160.320014 
L 934.919184 160.266273 
L 942.211092 159.969294 
L 949.867596 159.428544 
L 958.617886 158.600477 
L 976.847657 156.727985 
L 992.160665 155.437288 
L 1008.567459 154.2705 
L 1044.29781 152.067895 
L 1087.32007 149.493679 
L 1087.32007 149.493679 
" clip-path="url(#p58466b71b4)" style="fill: none; stroke: #4c72b0; stroke-opacity: 0.9; stroke-width: 3; stroke-linecap: round"/>
   </g>
   <g id="line2d_32">
    <path d="M 821.530007 86.891727 
L 825.175962 89.768372 
L 831.738679 94.823618 
L 837.20761 98.74689 
L 842.676542 102.40464 
L 848.145473 105.80077 
L 853.614404 108.940052 
L 859.083336 111.826709 
L 864.552267 114.464973 
L 870.021198 116.860143 
L 875.49013 119.017007 
L 881.323657 121.069009 
L 887.157183 122.875634 
L 892.99071 124.446661 
L 898.824237 125.786561 
L 904.657764 126.89922 
L 910.49129 127.788668 
L 916.324817 128.458848 
L 922.158344 128.914414 
L 929.085657 129.221526 
L 936.377565 129.312514 
L 945.127856 129.191191 
L 953.51355 128.854785 
L 964.086817 128.183674 
L 979.764421 127.26529 
L 1010.390436 125.826513 
L 1046.485383 124.345844 
L 1087.32007 122.784076 
L 1087.32007 122.784076 
" clip-path="url(#p58466b71b4)" style="fill: none; stroke: #dd8452; stroke-opacity: 0.9; stroke-width: 3; stroke-linecap: round"/>
   </g>
   <g id="line2d_33">
    <path d="M 821.530007 86.891727 
L 823.71758 90.220145 
L 829.915702 99.570619 
L 834.655442 106.286845 
L 839.395183 112.595819 
L 843.770328 118.065487 
L 848.145473 123.20134 
L 852.520618 128.008078 
L 856.895763 132.490123 
L 861.270908 136.652878 
L 865.646053 140.501807 
L 870.021198 144.043245 
L 874.396344 147.282438 
L 878.771489 150.225584 
L 882.782038 152.668508 
L 886.792588 154.87262 
L 891.167733 157.013559 
L 895.542878 158.887094 
L 899.918023 160.500769 
L 904.293168 161.860775 
L 908.668313 162.972328 
L 913.043458 163.840412 
L 917.418603 164.469673 
L 921.793748 164.867389 
L 926.533489 165.072389 
L 931.637825 165.077014 
L 937.835947 164.85957 
L 945.492451 164.3696 
L 954.242741 163.581075 
L 979.399825 161.10704 
L 992.889856 160.211914 
L 1014.400986 159.025061 
L 1067.631917 156.385019 
L 1087.32007 155.420644 
L 1087.32007 155.420644 
" clip-path="url(#p58466b71b4)" style="fill: none; stroke: #55a868; stroke-opacity: 0.9; stroke-width: 3; stroke-linecap: round"/>
   </g>
   <g id="line2d_34">
    <path d="M 821.530007 86.891727 
L 824.082175 89.950943 
L 830.280297 97.28334 
L 835.020038 102.54088 
L 839.759778 107.47743 
L 844.499519 112.098592 
L 849.239259 116.409283 
L 853.979 120.41442 
L 858.71874 124.119342 
L 863.458481 127.530603 
L 868.198221 130.654338 
L 872.937962 133.49654 
L 877.677702 136.06362 
L 882.417443 138.36283 
L 887.157183 140.40097 
L 891.896924 142.186127 
L 896.636664 143.726415 
L 901.376405 145.029741 
L 906.116145 146.102612 
L 910.855886 146.950607 
L 915.595626 147.578541 
L 920.335367 147.992005 
L 925.804298 148.232097 
L 932.00242 148.264847 
L 939.658924 148.059057 
L 948.77381 147.573329 
L 958.617886 146.820129 
L 973.566298 145.62163 
L 986.691734 144.828339 
L 1007.838268 143.803675 
L 1056.694055 141.731952 
L 1087.32007 140.456238 
L 1087.32007 140.456238 
" clip-path="url(#p58466b71b4)" style="fill: none; stroke: #c44e52; stroke-opacity: 0.9; stroke-width: 3; stroke-linecap: round"/>
   </g>
   <g id="line2d_35">
    <path d="M 821.530007 86.891727 
L 824.811366 91.407285 
L 830.644893 99.250435 
L 835.384633 105.226443 
L 840.124374 110.838115 
L 844.864114 116.091417 
L 849.603855 120.991864 
L 853.979 125.206786 
L 858.354145 129.129859 
L 862.72929 132.765183 
L 867.104435 136.116577 
L 871.47958 139.188356 
L 875.854725 141.985637 
L 880.22987 144.512272 
L 884.605015 146.771984 
L 888.98016 148.770023 
L 893.355306 150.515563 
L 897.730451 152.012963 
L 902.105596 153.265721 
L 906.480741 154.27738 
L 910.855886 155.0516 
L 915.231031 155.591978 
L 919.606176 155.904854 
L 924.345916 156.017939 
L 929.450252 155.918611 
L 934.919184 155.594544 
L 940.75271 155.033432 
L 947.680023 154.127128 
L 960.076268 152.269805 
L 968.461963 151.042865 
L 978.306039 149.858771 
L 988.879306 148.82338 
L 1004.556909 147.53792 
L 1021.328299 146.355116 
L 1050.131337 144.59535 
L 1087.32007 142.436285 
L 1087.32007 142.436285 
" clip-path="url(#p58466b71b4)" style="fill: none; stroke: #8172b3; stroke-opacity: 0.9; stroke-width: 3; stroke-linecap: round"/>
   </g>
   <g id="line2d_36">
    <path d="M 821.530007 86.891727 
L 825.905152 91.691457 
L 831.374084 97.506067 
L 836.47842 102.587754 
L 841.582756 107.339513 
L 846.322496 111.461786 
L 851.062237 115.309235 
L 855.801977 118.885987 
L 860.541717 122.19646 
L 865.281458 125.245728 
L 870.021198 128.037767 
L 874.760939 130.576456 
L 879.500679 132.865658 
L 884.24042 134.909226 
L 888.98016 136.713979 
L 893.719901 138.285662 
L 898.459641 139.62817 
L 903.199382 140.745725 
L 907.939122 141.641899 
L 912.678863 142.319984 
L 917.418603 142.783388 
L 922.522939 143.053736 
L 928.356466 143.129963 
L 934.554588 142.981402 
L 941.117306 142.587588 
L 948.77381 141.880628 
L 959.347077 140.678434 
L 971.014131 139.3488 
L 984.504161 138.063121 
L 997.265001 137.055863 
L 1019.140726 135.646439 
L 1047.943765 134.052122 
L 1087.32007 131.999203 
L 1087.32007 131.999203 
" clip-path="url(#p58466b71b4)" style="fill: none; stroke: #937860; stroke-opacity: 0.9; stroke-width: 3; stroke-linecap: round"/>
   </g>
   <g id="patch_9">
    <path d="M 808.240504 201.042 
L 808.240504 81.456 
" style="fill: none; stroke: #ffffff; stroke-width: 1.25; stroke-linejoin: miter; stroke-linecap: square"/>
   </g>
   <g id="patch_10">
    <path d="M 808.240504 201.042 
L 1100.609573 201.042 
" style="fill: none; stroke: #ffffff; stroke-width: 1.25; stroke-linejoin: miter; stroke-linecap: square"/>
   </g>
   <g id="text_6">
    <!-- 0.85~90 -->
    <g style="fill: #262626" transform="translate(899.778445 75.456) scale(0.252 -0.252)">
     <use xlink:href="#DejaVuSans-30"/>
     <use xlink:href="#DejaVuSans-2e" x="63.623047"/>
     <use xlink:href="#DejaVuSans-38" x="95.410156"/>
     <use xlink:href="#DejaVuSans-35" x="159.033203"/>
     <use xlink:href="#DejaVuSans-7e" x="222.65625"/>
     <use xlink:href="#DejaVuSans-39" x="306.445312"/>
     <use xlink:href="#DejaVuSans-30" x="370.068359"/>
    </g>
   </g>
  </g>
  <g id="axes_4">
   <g id="patch_11">
    <path d="M 170.340091 373.284 
L 462.70916 373.284 
L 462.70916 253.698 
L 170.340091 253.698 
z
" style="fill: #eaeaf2"/>
   </g>
   <g id="matplotlib.axis_7">
    <g id="xtick_13">
     <g id="line2d_37">
      <path d="M 183.629594 373.284 
L 183.629594 253.698 
" clip-path="url(#pc6750be58a)" style="fill: none; stroke: #ffffff; stroke-linecap: round"/>
     </g>
     <g id="text_7">
      <!-- 0 -->
      <g style="fill: #262626" transform="translate(176.280907 400.336391) scale(0.231 -0.231)">
       <use xlink:href="#DejaVuSans-30"/>
      </g>
     </g>
    </g>
    <g id="xtick_14">
     <g id="line2d_38">
      <path d="M 274.77845 373.284 
L 274.77845 253.698 
" clip-path="url(#pc6750be58a)" style="fill: none; stroke: #ffffff; stroke-linecap: round"/>
     </g>
     <g id="text_8">
      <!-- 250 -->
      <g style="fill: #262626" transform="translate(252.732387 400.336391) scale(0.231 -0.231)">
       <use xlink:href="#DejaVuSans-32"/>
       <use xlink:href="#DejaVuSans-35" x="63.623047"/>
       <use xlink:href="#DejaVuSans-30" x="127.246094"/>
      </g>
     </g>
    </g>
    <g id="xtick_15">
     <g id="line2d_39">
      <path d="M 365.927305 373.284 
L 365.927305 253.698 
" clip-path="url(#pc6750be58a)" style="fill: none; stroke: #ffffff; stroke-linecap: round"/>
     </g>
     <g id="text_9">
      <!-- 500 -->
      <g style="fill: #262626" transform="translate(343.881243 400.336391) scale(0.231 -0.231)">
       <use xlink:href="#DejaVuSans-35"/>
       <use xlink:href="#DejaVuSans-30" x="63.623047"/>
       <use xlink:href="#DejaVuSans-30" x="127.246094"/>
      </g>
     </g>
    </g>
    <g id="xtick_16">
     <g id="line2d_40">
      <path d="M 457.076161 373.284 
L 457.076161 253.698 
" clip-path="url(#pc6750be58a)" style="fill: none; stroke: #ffffff; stroke-linecap: round"/>
     </g>
     <g id="text_10">
      <!-- 750 -->
      <g style="fill: #262626" transform="translate(435.030099 400.336391) scale(0.231 -0.231)">
       <defs>
        <path id="DejaVuSans-37" d="M 525 4666 
L 3525 4666 
L 3525 4397 
L 1831 0 
L 1172 0 
L 2766 4134 
L 525 4134 
L 525 4666 
z
" transform="scale(0.015625)"/>
       </defs>
       <use xlink:href="#DejaVuSans-37"/>
       <use xlink:href="#DejaVuSans-35" x="63.623047"/>
       <use xlink:href="#DejaVuSans-30" x="127.246094"/>
      </g>
     </g>
    </g>
    <g id="text_11">
     <!-- step -->
     <g style="fill: #262626" transform="translate(289.269251 428.288531) scale(0.252 -0.252)">
      <defs>
       <path id="DejaVuSans-73" d="M 2834 3397 
L 2834 2853 
Q 2591 2978 2328 3040 
Q 2066 3103 1784 3103 
Q 1356 3103 1142 2972 
Q 928 2841 928 2578 
Q 928 2378 1081 2264 
Q 1234 2150 1697 2047 
L 1894 2003 
Q 2506 1872 2764 1633 
Q 3022 1394 3022 966 
Q 3022 478 2636 193 
Q 2250 -91 1575 -91 
Q 1294 -91 989 -36 
Q 684 19 347 128 
L 347 722 
Q 666 556 975 473 
Q 1284 391 1588 391 
Q 1994 391 2212 530 
Q 2431 669 2431 922 
Q 2431 1156 2273 1281 
Q 2116 1406 1581 1522 
L 1381 1569 
Q 847 1681 609 1914 
Q 372 2147 372 2553 
Q 372 3047 722 3315 
Q 1072 3584 1716 3584 
Q 2034 3584 2315 3537 
Q 2597 3491 2834 3397 
z
" transform="scale(0.015625)"/>
       <path id="DejaVuSans-74" d="M 1172 4494 
L 1172 3500 
L 2356 3500 
L 2356 3053 
L 1172 3053 
L 1172 1153 
Q 1172 725 1289 603 
Q 1406 481 1766 481 
L 2356 481 
L 2356 0 
L 1766 0 
Q 1100 0 847 248 
Q 594 497 594 1153 
L 594 3053 
L 172 3053 
L 172 3500 
L 594 3500 
L 594 4494 
L 1172 4494 
z
" transform="scale(0.015625)"/>
       <path id="DejaVuSans-70" d="M 1159 525 
L 1159 -1331 
L 581 -1331 
L 581 3500 
L 1159 3500 
L 1159 2969 
Q 1341 3281 1617 3432 
Q 1894 3584 2278 3584 
Q 2916 3584 3314 3078 
Q 3713 2572 3713 1747 
Q 3713 922 3314 415 
Q 2916 -91 2278 -91 
Q 1894 -91 1617 61 
Q 1341 213 1159 525 
z
M 3116 1747 
Q 3116 2381 2855 2742 
Q 2594 3103 2138 3103 
Q 1681 3103 1420 2742 
Q 1159 2381 1159 1747 
Q 1159 1113 1420 752 
Q 1681 391 2138 391 
Q 2594 391 2855 752 
Q 3116 1113 3116 1747 
z
" transform="scale(0.015625)"/>
      </defs>
      <use xlink:href="#DejaVuSans-73"/>
      <use xlink:href="#DejaVuSans-74" x="52.099609"/>
      <use xlink:href="#DejaVuSans-65" x="91.308594"/>
      <use xlink:href="#DejaVuSans-70" x="152.832031"/>
     </g>
    </g>
   </g>
   <g id="matplotlib.axis_8">
    <g id="ytick_7">
     <g id="line2d_41">
      <path d="M 170.340091 331.577324 
L 462.70916 331.577324 
" clip-path="url(#pc6750be58a)" style="fill: none; stroke: #ffffff; stroke-linecap: round"/>
     </g>
     <g id="text_12">
      <!-- −0.2 -->
      <g style="fill: #262626" transform="translate(104.746794 340.353519) scale(0.231 -0.231)">
       <use xlink:href="#DejaVuSans-2212"/>
       <use xlink:href="#DejaVuSans-30" x="83.789062"/>
       <use xlink:href="#DejaVuSans-2e" x="147.412109"/>
       <use xlink:href="#DejaVuSans-32" x="179.199219"/>
      </g>
     </g>
    </g>
    <g id="ytick_8">
     <g id="line2d_42">
      <path d="M 170.340091 259.133727 
L 462.70916 259.133727 
" clip-path="url(#pc6750be58a)" style="fill: none; stroke: #ffffff; stroke-linecap: round"/>
     </g>
     <g id="text_13">
      <!-- 0.0 -->
      <g style="fill: #262626" transform="translate(124.103872 267.909923) scale(0.231 -0.231)">
       <use xlink:href="#DejaVuSans-30"/>
       <use xlink:href="#DejaVuSans-2e" x="63.623047"/>
       <use xlink:href="#DejaVuSans-30" x="95.410156"/>
      </g>
     </g>
    </g>
    <g id="text_14">
     <!-- % change -->
     <g style="fill: #262626" transform="translate(95.505982 375.839344) rotate(-90) scale(0.252 -0.252)">
      <use xlink:href="#DejaVuSans-25"/>
      <use xlink:href="#DejaVuSans-20" x="95.019531"/>
      <use xlink:href="#DejaVuSans-63" x="126.806641"/>
      <use xlink:href="#DejaVuSans-68" x="181.787109"/>
      <use xlink:href="#DejaVuSans-61" x="245.166016"/>
      <use xlink:href="#DejaVuSans-6e" x="306.445312"/>
      <use xlink:href="#DejaVuSans-67" x="369.824219"/>
      <use xlink:href="#DejaVuSans-65" x="433.300781"/>
     </g>
    </g>
   </g>
   <g id="PolyCollection_19"/>
   <g id="PolyCollection_20"/>
   <g id="PolyCollection_21"/>
   <g id="PolyCollection_22"/>
   <g id="PolyCollection_23"/>
   <g id="PolyCollection_24"/>
   <g id="line2d_43">
    <path d="M 183.629594 259.133727 
L 186.910953 263.837517 
L 194.202861 274.157285 
L 199.671793 281.479443 
L 205.140724 288.429526 
L 210.609655 295.008601 
L 215.713991 300.815277 
L 220.818327 306.300661 
L 225.922663 311.46582 
L 231.026999 316.312016 
L 236.131335 320.841118 
L 240.871076 324.763981 
L 245.610816 328.415713 
L 250.350557 331.797785 
L 255.090297 334.911806 
L 259.830038 337.759031 
L 264.569778 340.340718 
L 269.309519 342.658168 
L 274.049259 344.713422 
L 278.789 346.513749 
L 283.52874 348.062266 
L 288.26848 349.363437 
L 293.008221 350.419024 
L 297.747961 351.230242 
L 302.487702 351.798329 
L 307.227442 352.124423 
L 311.967183 352.217693 
L 317.436114 352.10596 
L 323.269641 351.757657 
L 345.874557 350.23486 
L 357.906206 349.70552 
L 376.135977 349.155493 
L 406.397397 348.476695 
L 449.419657 347.691375 
L 449.419657 347.691375 
" clip-path="url(#pc6750be58a)" style="fill: none; stroke: #4c72b0; stroke-opacity: 0.9; stroke-width: 3; stroke-linecap: round"/>
   </g>
   <g id="line2d_44">
    <path d="M 183.629594 259.133727 
L 186.910953 261.732627 
L 194.932052 268.016548 
L 201.49477 272.843869 
L 207.692892 277.134767 
L 213.891014 281.165893 
L 220.089136 284.938016 
L 226.287259 288.451989 
L 232.485381 291.708815 
L 238.683503 294.709529 
L 244.881625 297.455284 
L 251.079747 299.947363 
L 257.27787 302.187613 
L 263.111396 304.067373 
L 268.944923 305.726472 
L 274.77845 307.166137 
L 280.611977 308.388182 
L 286.445503 309.394582 
L 292.643626 310.237174 
L 298.841748 310.852637 
L 305.03987 311.242388 
L 311.237992 311.408121 
L 318.529901 311.363368 
L 328.373977 311.040029 
L 357.906206 310.111996 
L 380.511122 309.69478 
L 438.481795 309.000725 
L 449.419657 308.880712 
L 449.419657 308.880712 
" clip-path="url(#pc6750be58a)" style="fill: none; stroke: #dd8452; stroke-opacity: 0.9; stroke-width: 3; stroke-linecap: round"/>
   </g>
   <g id="line2d_45">
    <path d="M 183.629594 259.133727 
L 185.817167 262.471926 
L 193.838266 274.702689 
L 199.307197 282.585816 
L 204.776129 290.068258 
L 209.880465 296.692077 
L 214.984801 302.970323 
L 220.089136 308.904171 
L 225.193472 314.494555 
L 230.297808 319.742601 
L 235.037549 324.310302 
L 239.777289 328.584815 
L 244.51703 332.56719 
L 249.25677 336.260431 
L 253.996511 339.667144 
L 258.736251 342.787108 
L 263.111396 345.412832 
L 267.486541 347.79529 
L 271.861686 349.935082 
L 276.236832 351.834317 
L 280.611977 353.496352 
L 284.987122 354.922896 
L 289.362267 356.11613 
L 293.737412 357.078345 
L 298.112557 357.814596 
L 302.487702 358.330728 
L 306.862847 358.630253 
L 311.602588 358.720916 
L 316.706923 358.588012 
L 322.175855 358.209878 
L 334.572099 357.224909 
L 345.874557 356.570178 
L 359.729183 355.999894 
L 377.594359 355.498284 
L 402.386848 355.066224 
L 449.419657 354.439258 
L 449.419657 354.439258 
" clip-path="url(#pc6750be58a)" style="fill: none; stroke: #55a868; stroke-opacity: 0.9; stroke-width: 3; stroke-linecap: round"/>
   </g>
   <g id="line2d_46">
    <path d="M 183.629594 259.133727 
L 185.817167 261.759705 
L 194.202861 271.806708 
L 200.036388 278.390406 
L 205.50532 284.237448 
L 210.974251 289.770921 
L 216.443182 294.991804 
L 221.912114 299.901089 
L 227.381045 304.499884 
L 232.485381 308.512993 
L 237.589717 312.257839 
L 242.694053 315.739087 
L 247.798389 318.957844 
L 252.902725 321.913564 
L 258.00706 324.606231 
L 263.111396 327.036059 
L 268.215732 329.204018 
L 272.955473 330.983748 
L 277.695213 332.541397 
L 282.434954 333.881175 
L 287.174694 335.00525 
L 291.914435 335.916286 
L 297.018771 336.662956 
L 302.123107 337.172589 
L 307.227442 337.451361 
L 312.696374 337.51005 
L 318.529901 337.342431 
L 326.551 336.844721 
L 338.947244 336.183998 
L 353.895657 335.62729 
L 375.042191 335.079934 
L 396.917916 334.730365 
L 449.419657 334.12989 
L 449.419657 334.12989 
" clip-path="url(#pc6750be58a)" style="fill: none; stroke: #c44e52; stroke-opacity: 0.9; stroke-width: 3; stroke-linecap: round"/>
   </g>
   <g id="line2d_47">
    <path d="M 183.629594 259.133727 
L 186.546358 263.164884 
L 194.202861 273.625023 
L 199.671793 280.687112 
L 205.140724 287.391452 
L 210.609655 293.739328 
L 216.078587 299.731875 
L 221.182923 305.00534 
L 226.287259 309.971235 
L 231.391595 314.630517 
L 236.49593 318.984153 
L 241.600266 323.03314 
L 246.340007 326.521022 
L 251.079747 329.747952 
L 255.819488 332.714861 
L 260.559228 335.422747 
L 265.298969 337.872646 
L 270.038709 340.065629 
L 274.77845 342.002759 
L 279.51819 343.685484 
L 284.257931 345.115663 
L 288.633076 346.212821 
L 293.008221 347.097008 
L 297.747961 347.818731 
L 302.487702 348.298998 
L 307.227442 348.538999 
L 311.967183 348.551129 
L 317.071519 348.353314 
L 323.269641 347.873954 
L 341.864008 346.328288 
L 362.645947 344.832814 
L 374.677596 344.137769 
L 388.896817 343.549856 
L 412.230924 342.830185 
L 446.867489 342.038163 
L 449.419657 341.984891 
L 449.419657 341.984891 
" clip-path="url(#pc6750be58a)" style="fill: none; stroke: #8172b3; stroke-opacity: 0.9; stroke-width: 3; stroke-linecap: round"/>
   </g>
   <g id="line2d_48">
    <path d="M 183.629594 259.133727 
L 187.275548 263.157764 
L 194.567457 271.073248 
L 200.400984 277.050532 
L 206.23451 282.705398 
L 212.068037 288.039254 
L 217.536969 292.749377 
L 223.0059 297.179526 
L 228.474831 301.330687 
L 233.943763 305.203867 
L 239.412694 308.800081 
L 244.881625 312.120404 
L 250.350557 315.165946 
L 255.454892 317.761477 
L 260.559228 320.119499 
L 265.663564 322.241005 
L 270.7679 324.127474 
L 275.872236 325.780177 
L 280.976572 327.200209 
L 286.080908 328.388697 
L 291.185244 329.346747 
L 296.28958 330.076935 
L 301.393916 330.583168 
L 306.498252 330.867292 
L 311.602588 330.935106 
L 317.80071 330.779936 
L 325.457214 330.341332 
L 349.520511 328.954955 
L 369.208664 328.031034 
L 388.167626 327.420544 
L 419.522833 326.659486 
L 449.419657 326.086272 
L 449.419657 326.086272 
" clip-path="url(#pc6750be58a)" style="fill: none; stroke: #937860; stroke-opacity: 0.9; stroke-width: 3; stroke-linecap: round"/>
   </g>
   <g id="patch_12">
    <path d="M 170.340091 373.284 
L 170.340091 253.698 
" style="fill: none; stroke: #ffffff; stroke-width: 1.25; stroke-linejoin: miter; stroke-linecap: square"/>
   </g>
   <g id="patch_13">
    <path d="M 170.340091 373.284 
L 462.70916 373.284 
" style="fill: none; stroke: #ffffff; stroke-width: 1.25; stroke-linejoin: miter; stroke-linecap: square"/>
   </g>
   <g id="text_15">
    <!-- 0.85~365 -->
    <g style="fill: #262626" transform="translate(253.861282 247.698) scale(0.252 -0.252)">
     <use xlink:href="#DejaVuSans-30"/>
     <use xlink:href="#DejaVuSans-2e" x="63.623047"/>
     <use xlink:href="#DejaVuSans-38" x="95.410156"/>
     <use xlink:href="#DejaVuSans-35" x="159.033203"/>
     <use xlink:href="#DejaVuSans-7e" x="222.65625"/>
     <use xlink:href="#DejaVuSans-33" x="306.445312"/>
     <use xlink:href="#DejaVuSans-36" x="370.068359"/>
     <use xlink:href="#DejaVuSans-35" x="433.691406"/>
    </g>
   </g>
  </g>
  <g id="axes_5">
   <g id="patch_14">
    <path d="M 489.290298 373.284 
L 781.659367 373.284 
L 781.659367 253.698 
L 489.290298 253.698 
z
" style="fill: #eaeaf2"/>
   </g>
   <g id="matplotlib.axis_9">
    <g id="xtick_17">
     <g id="line2d_49">
      <path d="M 502.579801 373.284 
L 502.579801 253.698 
" clip-path="url(#p7daa9ac7e0)" style="fill: none; stroke: #ffffff; stroke-linecap: round"/>
     </g>
     <g id="text_16">
      <!-- 0 -->
      <g style="fill: #262626" transform="translate(495.231113 400.336391) scale(0.231 -0.231)">
       <use xlink:href="#DejaVuSans-30"/>
      </g>
     </g>
    </g>
    <g id="xtick_18">
     <g id="line2d_50">
      <path d="M 593.728656 373.284 
L 593.728656 253.698 
" clip-path="url(#p7daa9ac7e0)" style="fill: none; stroke: #ffffff; stroke-linecap: round"/>
     </g>
     <g id="text_17">
      <!-- 250 -->
      <g style="fill: #262626" transform="translate(571.682594 400.336391) scale(0.231 -0.231)">
       <use xlink:href="#DejaVuSans-32"/>
       <use xlink:href="#DejaVuSans-35" x="63.623047"/>
       <use xlink:href="#DejaVuSans-30" x="127.246094"/>
      </g>
     </g>
    </g>
    <g id="xtick_19">
     <g id="line2d_51">
      <path d="M 684.877512 373.284 
L 684.877512 253.698 
" clip-path="url(#p7daa9ac7e0)" style="fill: none; stroke: #ffffff; stroke-linecap: round"/>
     </g>
     <g id="text_18">
      <!-- 500 -->
      <g style="fill: #262626" transform="translate(662.83145 400.336391) scale(0.231 -0.231)">
       <use xlink:href="#DejaVuSans-35"/>
       <use xlink:href="#DejaVuSans-30" x="63.623047"/>
       <use xlink:href="#DejaVuSans-30" x="127.246094"/>
      </g>
     </g>
    </g>
    <g id="xtick_20">
     <g id="line2d_52">
      <path d="M 776.026368 373.284 
L 776.026368 253.698 
" clip-path="url(#p7daa9ac7e0)" style="fill: none; stroke: #ffffff; stroke-linecap: round"/>
     </g>
     <g id="text_19">
      <!-- 750 -->
      <g style="fill: #262626" transform="translate(753.980305 400.336391) scale(0.231 -0.231)">
       <use xlink:href="#DejaVuSans-37"/>
       <use xlink:href="#DejaVuSans-35" x="63.623047"/>
       <use xlink:href="#DejaVuSans-30" x="127.246094"/>
      </g>
     </g>
    </g>
    <g id="text_20">
     <!-- step -->
     <g style="fill: #262626" transform="translate(608.219457 428.288531) scale(0.252 -0.252)">
      <use xlink:href="#DejaVuSans-73"/>
      <use xlink:href="#DejaVuSans-74" x="52.099609"/>
      <use xlink:href="#DejaVuSans-65" x="91.308594"/>
      <use xlink:href="#DejaVuSans-70" x="152.832031"/>
     </g>
    </g>
   </g>
   <g id="matplotlib.axis_10">
    <g id="ytick_9">
     <g id="line2d_53">
      <path d="M 489.290298 331.577324 
L 781.659367 331.577324 
" clip-path="url(#p7daa9ac7e0)" style="fill: none; stroke: #ffffff; stroke-linecap: round"/>
     </g>
    </g>
    <g id="ytick_10">
     <g id="line2d_54">
      <path d="M 489.290298 259.133727 
L 781.659367 259.133727 
" clip-path="url(#p7daa9ac7e0)" style="fill: none; stroke: #ffffff; stroke-linecap: round"/>
     </g>
    </g>
   </g>
   <g id="PolyCollection_25"/>
   <g id="PolyCollection_26"/>
   <g id="PolyCollection_27"/>
   <g id="PolyCollection_28"/>
   <g id="PolyCollection_29"/>
   <g id="PolyCollection_30"/>
   <g id="line2d_55">
    <path d="M 502.579801 259.133727 
L 506.225755 264.333966 
L 511.694686 271.945603 
L 516.434427 278.139769 
L 521.174167 283.954269 
L 525.913908 289.396696 
L 530.289053 294.096267 
L 534.664198 298.489303 
L 539.039343 302.580071 
L 543.414488 306.373217 
L 547.789633 309.882973 
L 552.164778 313.118021 
L 556.539923 316.082327 
L 560.915068 318.784124 
L 565.290213 321.229697 
L 569.665358 323.422874 
L 574.040504 325.367529 
L 578.415649 327.067513 
L 582.790794 328.526749 
L 587.165939 329.749206 
L 591.541084 330.738775 
L 595.916229 331.499137 
L 600.291374 332.03394 
L 605.39571 332.405531 
L 610.500046 332.562014 
L 615.968977 332.508273 
L 623.260886 332.211294 
L 630.917389 331.670544 
L 639.66768 330.842477 
L 657.897451 328.969985 
L 673.210458 327.679288 
L 689.617253 326.5125 
L 725.347604 324.309895 
L 768.369864 321.735679 
L 768.369864 321.735679 
" clip-path="url(#p7daa9ac7e0)" style="fill: none; stroke: #4c72b0; stroke-opacity: 0.9; stroke-width: 3; stroke-linecap: round"/>
   </g>
   <g id="line2d_56">
    <path d="M 502.579801 259.133727 
L 506.225755 262.010372 
L 512.788473 267.065618 
L 518.257404 270.98889 
L 523.726335 274.64664 
L 529.195267 278.04277 
L 534.664198 281.182052 
L 540.133129 284.068709 
L 545.602061 286.706973 
L 551.070992 289.102143 
L 556.539923 291.259007 
L 562.37345 293.311009 
L 568.206977 295.117634 
L 574.040504 296.688661 
L 579.87403 298.028561 
L 585.707557 299.14122 
L 591.541084 300.030668 
L 597.374611 300.700848 
L 603.208137 301.156414 
L 610.13545 301.463526 
L 617.427359 301.554514 
L 626.177649 301.433191 
L 634.563344 301.096785 
L 645.136611 300.425674 
L 660.814214 299.50729 
L 691.44023 298.068513 
L 727.535176 296.587844 
L 768.369864 295.026076 
L 768.369864 295.026076 
" clip-path="url(#p7daa9ac7e0)" style="fill: none; stroke: #dd8452; stroke-opacity: 0.9; stroke-width: 3; stroke-linecap: round"/>
   </g>
   <g id="line2d_57">
    <path d="M 502.579801 259.133727 
L 504.767373 262.462145 
L 510.965495 271.812619 
L 515.705236 278.528845 
L 520.444976 284.837819 
L 524.820122 290.307487 
L 529.195267 295.44334 
L 533.570412 300.254911 
L 538.310152 305.124418 
L 543.049893 309.664253 
L 547.789633 313.902012 
L 552.529374 317.850646 
L 557.269114 321.512848 
L 562.008855 324.879937 
L 566.384 327.718807 
L 570.759145 330.294892 
L 575.13429 332.60794 
L 579.509435 334.671063 
L 583.88458 336.497498 
L 588.259725 338.090062 
L 592.63487 339.449689 
L 597.010015 340.576623 
L 601.38516 341.471691 
L 606.124901 342.200633 
L 611.229237 342.746622 
L 616.698168 343.098655 
L 622.89629 343.278293 
L 629.094412 343.238215 
L 635.65713 342.96641 
L 642.219848 342.473439 
L 654.251497 341.301678 
L 667.376932 340.027321 
L 680.866962 338.991639 
L 700.919711 337.690536 
L 749.775497 334.816469 
L 768.369864 333.73877 
L 768.369864 333.73877 
" clip-path="url(#p7daa9ac7e0)" style="fill: none; stroke: #55a868; stroke-opacity: 0.9; stroke-width: 3; stroke-linecap: round"/>
   </g>
   <g id="line2d_58">
    <path d="M 502.579801 259.133727 
L 505.131969 262.192943 
L 511.330091 269.52534 
L 516.069831 274.78288 
L 520.809572 279.71943 
L 525.549312 284.340592 
L 530.289053 288.654321 
L 535.028793 292.685121 
L 539.768534 296.439887 
L 544.87287 300.189771 
L 549.977206 303.663487 
L 555.081542 306.870456 
L 560.185878 309.80324 
L 564.925618 312.276961 
L 569.665358 314.506962 
L 574.405099 316.494898 
L 579.144839 318.254023 
L 583.88458 319.790468 
L 588.62432 321.107126 
L 593.364061 322.205741 
L 598.103801 323.087339 
L 602.843542 323.755637 
L 608.312473 324.29556 
L 614.146 324.633606 
L 620.708718 324.777705 
L 627.271435 324.698216 
L 633.834153 324.402625 
L 640.761466 323.865289 
L 660.814214 322.099454 
L 675.033436 321.177971 
L 698.002947 319.936 
L 764.359314 316.678822 
L 768.369864 316.483308 
L 768.369864 316.483308 
" clip-path="url(#p7daa9ac7e0)" style="fill: none; stroke: #c44e52; stroke-opacity: 0.9; stroke-width: 3; stroke-linecap: round"/>
   </g>
   <g id="line2d_59">
    <path d="M 502.579801 259.133727 
L 505.86116 263.649285 
L 511.694686 271.492435 
L 516.434427 277.468443 
L 521.174167 283.080115 
L 525.913908 288.333417 
L 530.653648 293.233864 
L 535.028793 297.448786 
L 539.403938 301.371859 
L 543.779084 305.007183 
L 548.154229 308.358577 
L 552.529374 311.430356 
L 556.904519 314.227637 
L 561.279664 316.754272 
L 565.654809 319.013984 
L 570.029954 321.012023 
L 574.405099 322.757563 
L 578.780244 324.254963 
L 583.155389 325.507721 
L 587.530534 326.51938 
L 591.905679 327.2936 
L 596.280824 327.833978 
L 600.655969 328.146854 
L 605.39571 328.259939 
L 610.500046 328.160611 
L 615.968977 327.836544 
L 621.802504 327.275432 
L 628.729817 326.369128 
L 641.126061 324.511805 
L 649.511756 323.284865 
L 659.355832 322.100771 
L 669.9291 321.06538 
L 685.606703 319.77992 
L 702.378092 318.597116 
L 731.181131 316.83735 
L 768.369864 314.678285 
L 768.369864 314.678285 
" clip-path="url(#p7daa9ac7e0)" style="fill: none; stroke: #8172b3; stroke-opacity: 0.9; stroke-width: 3; stroke-linecap: round"/>
   </g>
   <g id="line2d_60">
    <path d="M 502.579801 259.133727 
L 506.954946 263.933457 
L 512.423877 269.748067 
L 517.528213 274.829754 
L 522.632549 279.581513 
L 527.372289 283.703786 
L 532.11203 287.551235 
L 536.85177 291.127987 
L 541.591511 294.43846 
L 546.331251 297.487728 
L 551.070992 300.279767 
L 555.810732 302.818456 
L 560.550473 305.107658 
L 565.290213 307.151226 
L 570.029954 308.955979 
L 574.769694 310.527662 
L 579.509435 311.87017 
L 584.249175 312.987725 
L 588.988916 313.883899 
L 593.728656 314.561984 
L 598.468397 315.025388 
L 603.572733 315.295736 
L 609.40626 315.371963 
L 615.604382 315.223402 
L 622.167099 314.829588 
L 629.823603 314.122628 
L 640.39687 312.920434 
L 652.063924 311.5908 
L 665.553955 310.305121 
L 678.314794 309.297863 
L 700.19052 307.888439 
L 728.993558 306.294122 
L 768.369864 304.241203 
L 768.369864 304.241203 
" clip-path="url(#p7daa9ac7e0)" style="fill: none; stroke: #937860; stroke-opacity: 0.9; stroke-width: 3; stroke-linecap: round"/>
   </g>
   <g id="patch_15">
    <path d="M 489.290298 373.284 
L 489.290298 253.698 
" style="fill: none; stroke: #ffffff; stroke-width: 1.25; stroke-linejoin: miter; stroke-linecap: square"/>
   </g>
   <g id="patch_16">
    <path d="M 489.290298 373.284 
L 781.659367 373.284 
" style="fill: none; stroke: #ffffff; stroke-width: 1.25; stroke-linejoin: miter; stroke-linecap: square"/>
   </g>
   <g id="text_21">
    <!-- 0.95~90 -->
    <g style="fill: #262626" transform="translate(580.828239 247.698) scale(0.252 -0.252)">
     <use xlink:href="#DejaVuSans-30"/>
     <use xlink:href="#DejaVuSans-2e" x="63.623047"/>
     <use xlink:href="#DejaVuSans-39" x="95.410156"/>
     <use xlink:href="#DejaVuSans-35" x="159.033203"/>
     <use xlink:href="#DejaVuSans-7e" x="222.65625"/>
     <use xlink:href="#DejaVuSans-39" x="306.445312"/>
     <use xlink:href="#DejaVuSans-30" x="370.068359"/>
    </g>
   </g>
  </g>
  <g id="axes_6">
   <g id="patch_17">
    <path d="M 808.240504 373.284 
L 1100.609573 373.284 
L 1100.609573 253.698 
L 808.240504 253.698 
z
" style="fill: #eaeaf2"/>
   </g>
   <g id="matplotlib.axis_11">
    <g id="xtick_21">
     <g id="line2d_61">
      <path d="M 821.530007 373.284 
L 821.530007 253.698 
" clip-path="url(#p26ee8691b6)" style="fill: none; stroke: #ffffff; stroke-linecap: round"/>
     </g>
     <g id="text_22">
      <!-- 0 -->
      <g style="fill: #262626" transform="translate(814.18132 400.336391) scale(0.231 -0.231)">
       <use xlink:href="#DejaVuSans-30"/>
      </g>
     </g>
    </g>
    <g id="xtick_22">
     <g id="line2d_62">
      <path d="M 912.678863 373.284 
L 912.678863 253.698 
" clip-path="url(#p26ee8691b6)" style="fill: none; stroke: #ffffff; stroke-linecap: round"/>
     </g>
     <g id="text_23">
      <!-- 250 -->
      <g style="fill: #262626" transform="translate(890.6328 400.336391) scale(0.231 -0.231)">
       <use xlink:href="#DejaVuSans-32"/>
       <use xlink:href="#DejaVuSans-35" x="63.623047"/>
       <use xlink:href="#DejaVuSans-30" x="127.246094"/>
      </g>
     </g>
    </g>
    <g id="xtick_23">
     <g id="line2d_63">
      <path d="M 1003.827719 373.284 
L 1003.827719 253.698 
" clip-path="url(#p26ee8691b6)" style="fill: none; stroke: #ffffff; stroke-linecap: round"/>
     </g>
     <g id="text_24">
      <!-- 500 -->
      <g style="fill: #262626" transform="translate(981.781656 400.336391) scale(0.231 -0.231)">
       <use xlink:href="#DejaVuSans-35"/>
       <use xlink:href="#DejaVuSans-30" x="63.623047"/>
       <use xlink:href="#DejaVuSans-30" x="127.246094"/>
      </g>
     </g>
    </g>
    <g id="xtick_24">
     <g id="line2d_64">
      <path d="M 1094.976574 373.284 
L 1094.976574 253.698 
" clip-path="url(#p26ee8691b6)" style="fill: none; stroke: #ffffff; stroke-linecap: round"/>
     </g>
     <g id="text_25">
      <!-- 750 -->
      <g style="fill: #262626" transform="translate(1072.930512 400.336391) scale(0.231 -0.231)">
       <use xlink:href="#DejaVuSans-37"/>
       <use xlink:href="#DejaVuSans-35" x="63.623047"/>
       <use xlink:href="#DejaVuSans-30" x="127.246094"/>
      </g>
     </g>
    </g>
    <g id="text_26">
     <!-- step -->
     <g style="fill: #262626" transform="translate(927.169664 428.288531) scale(0.252 -0.252)">
      <use xlink:href="#DejaVuSans-73"/>
      <use xlink:href="#DejaVuSans-74" x="52.099609"/>
      <use xlink:href="#DejaVuSans-65" x="91.308594"/>
      <use xlink:href="#DejaVuSans-70" x="152.832031"/>
     </g>
    </g>
   </g>
   <g id="matplotlib.axis_12">
    <g id="ytick_11">
     <g id="line2d_65">
      <path d="M 808.240504 331.577324 
L 1100.609573 331.577324 
" clip-path="url(#p26ee8691b6)" style="fill: none; stroke: #ffffff; stroke-linecap: round"/>
     </g>
    </g>
    <g id="ytick_12">
     <g id="line2d_66">
      <path d="M 808.240504 259.133727 
L 1100.609573 259.133727 
" clip-path="url(#p26ee8691b6)" style="fill: none; stroke: #ffffff; stroke-linecap: round"/>
     </g>
    </g>
   </g>
   <g id="PolyCollection_31"/>
   <g id="PolyCollection_32"/>
   <g id="PolyCollection_33"/>
   <g id="PolyCollection_34"/>
   <g id="PolyCollection_35"/>
   <g id="PolyCollection_36"/>
   <g id="line2d_67">
    <path d="M 821.530007 259.133727 
L 824.811366 263.837517 
L 832.103275 274.157285 
L 837.572206 281.479443 
L 843.041137 288.429526 
L 848.510069 295.008601 
L 853.614404 300.815277 
L 858.71874 306.300661 
L 863.823076 311.46582 
L 868.927412 316.312016 
L 874.031748 320.841118 
L 878.771489 324.763981 
L 883.511229 328.415713 
L 888.25097 331.797785 
L 892.99071 334.911806 
L 897.730451 337.759031 
L 902.470191 340.340718 
L 907.209932 342.658168 
L 911.949672 344.713422 
L 916.689413 346.513749 
L 921.429153 348.062266 
L 926.168894 349.363437 
L 930.908634 350.419024 
L 935.648375 351.230242 
L 940.388115 351.798329 
L 945.127856 352.124423 
L 949.867596 352.217693 
L 955.336527 352.10596 
L 961.170054 351.757657 
L 983.77497 350.23486 
L 995.806619 349.70552 
L 1014.03639 349.155493 
L 1044.29781 348.476695 
L 1087.32007 347.691375 
L 1087.32007 347.691375 
" clip-path="url(#p26ee8691b6)" style="fill: none; stroke: #4c72b0; stroke-opacity: 0.9; stroke-width: 3; stroke-linecap: round"/>
   </g>
   <g id="line2d_68">
    <path d="M 821.530007 259.133727 
L 824.811366 261.732627 
L 832.832465 268.016548 
L 839.395183 272.843869 
L 845.593305 277.134767 
L 851.791427 281.165893 
L 857.98955 284.938016 
L 864.187672 288.451989 
L 870.385794 291.708815 
L 876.583916 294.709529 
L 882.782038 297.455284 
L 888.98016 299.947363 
L 895.178283 302.187613 
L 901.011809 304.067373 
L 906.845336 305.726472 
L 912.678863 307.166137 
L 918.51239 308.388182 
L 924.345916 309.394582 
L 930.544039 310.237174 
L 936.742161 310.852637 
L 942.940283 311.242388 
L 949.138405 311.408121 
L 956.430314 311.363368 
L 966.27439 311.040029 
L 995.806619 310.111996 
L 1018.411535 309.69478 
L 1076.382208 309.000725 
L 1087.32007 308.880712 
L 1087.32007 308.880712 
" clip-path="url(#p26ee8691b6)" style="fill: none; stroke: #dd8452; stroke-opacity: 0.9; stroke-width: 3; stroke-linecap: round"/>
   </g>
   <g id="line2d_69">
    <path d="M 821.530007 259.133727 
L 823.71758 262.471926 
L 831.738679 274.702689 
L 837.20761 282.585816 
L 842.676542 290.068258 
L 847.780878 296.692077 
L 853.249809 303.413192 
L 858.71874 309.767755 
L 864.187672 315.786877 
L 870.021198 321.882123 
L 875.49013 327.28431 
L 880.959061 332.378834 
L 886.063397 336.840864 
L 891.167733 341.009798 
L 895.907473 344.607621 
L 900.647214 347.936742 
L 905.75155 351.237045 
L 910.49129 354.043401 
L 915.231031 356.599257 
L 919.970771 358.90136 
L 924.710512 360.944916 
L 929.085657 362.596948 
L 933.460802 364.019982 
L 937.835947 365.213761 
L 942.211092 366.177071 
L 946.586237 366.906166 
L 950.961382 367.414682 
L 955.701123 367.739939 
L 960.440863 367.846683 
L 969.555749 367.764199 
L 979.764421 367.456541 
L 990.702283 366.895449 
L 1004.192314 366.248329 
L 1020.963703 365.678438 
L 1044.29781 365.145954 
L 1087.32007 364.383167 
L 1087.32007 364.383167 
" clip-path="url(#p26ee8691b6)" style="fill: none; stroke: #55a868; stroke-opacity: 0.9; stroke-width: 3; stroke-linecap: round"/>
   </g>
   <g id="line2d_70">
    <path d="M 821.530007 259.133727 
L 823.71758 261.759705 
L 832.103275 271.806708 
L 837.936801 278.390406 
L 843.405733 284.237448 
L 848.874664 289.77321 
L 854.708191 295.362355 
L 860.541717 300.636572 
L 866.375244 305.607631 
L 872.573366 310.595356 
L 878.406893 315.008988 
L 883.875825 318.885861 
L 889.344756 322.49578 
L 894.449092 325.613579 
L 899.553428 328.483336 
L 904.657764 331.114868 
L 909.7621 333.511382 
L 914.866435 335.672555 
L 919.970771 337.597202 
L 925.075107 339.282532 
L 930.179443 340.724705 
L 934.919184 341.843468 
L 939.658924 342.747974 
L 944.398665 343.436341 
L 949.503001 343.939739 
L 954.607336 344.220066 
L 960.076268 344.284326 
L 969.920344 344.086053 
L 980.493611 343.649732 
L 997.994192 342.902375 
L 1018.411535 342.289127 
L 1041.016452 341.852172 
L 1087.32007 341.163407 
L 1087.32007 341.163407 
" clip-path="url(#p26ee8691b6)" style="fill: none; stroke: #c44e52; stroke-opacity: 0.9; stroke-width: 3; stroke-linecap: round"/>
   </g>
   <g id="line2d_71">
    <path d="M 821.530007 259.133727 
L 824.446771 263.164884 
L 832.103275 273.625023 
L 837.572206 280.687112 
L 843.041137 287.391452 
L 848.510069 293.739328 
L 853.979 299.731875 
L 859.083336 305.00534 
L 864.187672 309.971235 
L 869.292008 314.630517 
L 874.396344 318.984153 
L 879.500679 323.03314 
L 884.24042 326.521022 
L 888.98016 329.747952 
L 893.719901 332.714861 
L 898.459641 335.422747 
L 903.199382 337.872646 
L 907.939122 340.065629 
L 912.678863 342.002759 
L 917.418603 343.685484 
L 922.158344 345.115663 
L 926.533489 346.212821 
L 930.908634 347.097008 
L 935.648375 347.818731 
L 940.388115 348.298998 
L 945.127856 348.538999 
L 949.867596 348.551129 
L 954.971932 348.353314 
L 961.170054 347.873954 
L 979.764421 346.328288 
L 1000.54636 344.832814 
L 1012.578009 344.137769 
L 1026.79723 343.549856 
L 1050.131337 342.830185 
L 1084.767902 342.038163 
L 1087.32007 341.984891 
L 1087.32007 341.984891 
" clip-path="url(#p26ee8691b6)" style="fill: none; stroke: #8172b3; stroke-opacity: 0.9; stroke-width: 3; stroke-linecap: round"/>
   </g>
   <g id="line2d_72">
    <path d="M 821.530007 259.133727 
L 825.175962 263.157764 
L 832.46787 271.073248 
L 838.301397 277.050532 
L 844.134923 282.705398 
L 849.96845 288.039254 
L 855.437382 292.749377 
L 860.906313 297.179526 
L 866.375244 301.330687 
L 871.844176 305.203867 
L 877.313107 308.800081 
L 882.782038 312.120404 
L 888.25097 315.165946 
L 893.355306 317.761477 
L 898.459641 320.119499 
L 903.563977 322.241005 
L 908.668313 324.127474 
L 913.772649 325.780177 
L 918.876985 327.200209 
L 923.981321 328.388697 
L 929.085657 329.346747 
L 934.189993 330.076935 
L 939.294329 330.583168 
L 944.398665 330.867292 
L 949.503001 330.935106 
L 955.701123 330.779936 
L 963.357627 330.341332 
L 987.420925 328.954955 
L 1007.109077 328.031034 
L 1026.068039 327.420544 
L 1057.423246 326.659486 
L 1087.32007 326.086272 
L 1087.32007 326.086272 
" clip-path="url(#p26ee8691b6)" style="fill: none; stroke: #937860; stroke-opacity: 0.9; stroke-width: 3; stroke-linecap: round"/>
   </g>
   <g id="patch_18">
    <path d="M 808.240504 373.284 
L 808.240504 253.698 
" style="fill: none; stroke: #ffffff; stroke-width: 1.25; stroke-linejoin: miter; stroke-linecap: square"/>
   </g>
   <g id="patch_19">
    <path d="M 808.240504 373.284 
L 1100.609573 373.284 
" style="fill: none; stroke: #ffffff; stroke-width: 1.25; stroke-linejoin: miter; stroke-linecap: square"/>
   </g>
   <g id="text_27">
    <!-- 0.95~365 -->
    <g style="fill: #262626" transform="translate(891.761695 247.698) scale(0.252 -0.252)">
     <use xlink:href="#DejaVuSans-30"/>
     <use xlink:href="#DejaVuSans-2e" x="63.623047"/>
     <use xlink:href="#DejaVuSans-39" x="95.410156"/>
     <use xlink:href="#DejaVuSans-35" x="159.033203"/>
     <use xlink:href="#DejaVuSans-7e" x="222.65625"/>
     <use xlink:href="#DejaVuSans-33" x="306.445312"/>
     <use xlink:href="#DejaVuSans-36" x="370.068359"/>
     <use xlink:href="#DejaVuSans-35" x="433.691406"/>
    </g>
   </g>
  </g>
  <g id="text_28">
   <!-- Production change from pre-shock level -->
   <g style="fill: #262626" transform="translate(280.766836 30.177675) scale(0.3024 -0.3024)">
    <defs>
     <path id="DejaVuSans-50" d="M 1259 4147 
L 1259 2394 
L 2053 2394 
Q 2494 2394 2734 2622 
Q 2975 2850 2975 3272 
Q 2975 3691 2734 3919 
Q 2494 4147 2053 4147 
L 1259 4147 
z
M 628 4666 
L 2053 4666 
Q 2838 4666 3239 4311 
Q 3641 3956 3641 3272 
Q 3641 2581 3239 2228 
Q 2838 1875 2053 1875 
L 1259 1875 
L 1259 0 
L 628 0 
L 628 4666 
z
" transform="scale(0.015625)"/>
     <path id="DejaVuSans-72" d="M 2631 2963 
Q 2534 3019 2420 3045 
Q 2306 3072 2169 3072 
Q 1681 3072 1420 2755 
Q 1159 2438 1159 1844 
L 1159 0 
L 581 0 
L 581 3500 
L 1159 3500 
L 1159 2956 
Q 1341 3275 1631 3429 
Q 1922 3584 2338 3584 
Q 2397 3584 2469 3576 
Q 2541 3569 2628 3553 
L 2631 2963 
z
" transform="scale(0.015625)"/>
     <path id="DejaVuSans-6f" d="M 1959 3097 
Q 1497 3097 1228 2736 
Q 959 2375 959 1747 
Q 959 1119 1226 758 
Q 1494 397 1959 397 
Q 2419 397 2687 759 
Q 2956 1122 2956 1747 
Q 2956 2369 2687 2733 
Q 2419 3097 1959 3097 
z
M 1959 3584 
Q 2709 3584 3137 3096 
Q 3566 2609 3566 1747 
Q 3566 888 3137 398 
Q 2709 -91 1959 -91 
Q 1206 -91 779 398 
Q 353 888 353 1747 
Q 353 2609 779 3096 
Q 1206 3584 1959 3584 
z
" transform="scale(0.015625)"/>
     <path id="DejaVuSans-64" d="M 2906 2969 
L 2906 4863 
L 3481 4863 
L 3481 0 
L 2906 0 
L 2906 525 
Q 2725 213 2448 61 
Q 2172 -91 1784 -91 
Q 1150 -91 751 415 
Q 353 922 353 1747 
Q 353 2572 751 3078 
Q 1150 3584 1784 3584 
Q 2172 3584 2448 3432 
Q 2725 3281 2906 2969 
z
M 947 1747 
Q 947 1113 1208 752 
Q 1469 391 1925 391 
Q 2381 391 2643 752 
Q 2906 1113 2906 1747 
Q 2906 2381 2643 2742 
Q 2381 3103 1925 3103 
Q 1469 3103 1208 2742 
Q 947 2381 947 1747 
z
" transform="scale(0.015625)"/>
     <path id="DejaVuSans-75" d="M 544 1381 
L 544 3500 
L 1119 3500 
L 1119 1403 
Q 1119 906 1312 657 
Q 1506 409 1894 409 
Q 2359 409 2629 706 
Q 2900 1003 2900 1516 
L 2900 3500 
L 3475 3500 
L 3475 0 
L 2900 0 
L 2900 538 
Q 2691 219 2414 64 
Q 2138 -91 1772 -91 
Q 1169 -91 856 284 
Q 544 659 544 1381 
z
M 1991 3584 
L 1991 3584 
z
" transform="scale(0.015625)"/>
     <path id="DejaVuSans-69" d="M 603 3500 
L 1178 3500 
L 1178 0 
L 603 0 
L 603 3500 
z
M 603 4863 
L 1178 4863 
L 1178 4134 
L 603 4134 
L 603 4863 
z
" transform="scale(0.015625)"/>
     <path id="DejaVuSans-66" d="M 2375 4863 
L 2375 4384 
L 1825 4384 
Q 1516 4384 1395 4259 
Q 1275 4134 1275 3809 
L 1275 3500 
L 2222 3500 
L 2222 3053 
L 1275 3053 
L 1275 0 
L 697 0 
L 697 3053 
L 147 3053 
L 147 3500 
L 697 3500 
L 697 3744 
Q 697 4328 969 4595 
Q 1241 4863 1831 4863 
L 2375 4863 
z
" transform="scale(0.015625)"/>
     <path id="DejaVuSans-6d" d="M 3328 2828 
Q 3544 3216 3844 3400 
Q 4144 3584 4550 3584 
Q 5097 3584 5394 3201 
Q 5691 2819 5691 2113 
L 5691 0 
L 5113 0 
L 5113 2094 
Q 5113 2597 4934 2840 
Q 4756 3084 4391 3084 
Q 3944 3084 3684 2787 
Q 3425 2491 3425 1978 
L 3425 0 
L 2847 0 
L 2847 2094 
Q 2847 2600 2669 2842 
Q 2491 3084 2119 3084 
Q 1678 3084 1418 2786 
Q 1159 2488 1159 1978 
L 1159 0 
L 581 0 
L 581 3500 
L 1159 3500 
L 1159 2956 
Q 1356 3278 1631 3431 
Q 1906 3584 2284 3584 
Q 2666 3584 2933 3390 
Q 3200 3197 3328 2828 
z
" transform="scale(0.015625)"/>
     <path id="DejaVuSans-2d" d="M 313 2009 
L 1997 2009 
L 1997 1497 
L 313 1497 
L 313 2009 
z
" transform="scale(0.015625)"/>
     <path id="DejaVuSans-6b" d="M 581 4863 
L 1159 4863 
L 1159 1991 
L 2875 3500 
L 3609 3500 
L 1753 1863 
L 3688 0 
L 2938 0 
L 1159 1709 
L 1159 0 
L 581 0 
L 581 4863 
z
" transform="scale(0.015625)"/>
     <path id="DejaVuSans-6c" d="M 603 4863 
L 1178 4863 
L 1178 0 
L 603 0 
L 603 4863 
z
" transform="scale(0.015625)"/>
     <path id="DejaVuSans-76" d="M 191 3500 
L 800 3500 
L 1894 563 
L 2988 3500 
L 3597 3500 
L 2284 0 
L 1503 0 
L 191 3500 
z
" transform="scale(0.015625)"/>
    </defs>
    <use xlink:href="#DejaVuSans-50"/>
    <use xlink:href="#DejaVuSans-72" x="58.552734"/>
    <use xlink:href="#DejaVuSans-6f" x="97.416016"/>
    <use xlink:href="#DejaVuSans-64" x="158.597656"/>
    <use xlink:href="#DejaVuSans-75" x="222.074219"/>
    <use xlink:href="#DejaVuSans-63" x="285.453125"/>
    <use xlink:href="#DejaVuSans-74" x="340.433594"/>
    <use xlink:href="#DejaVuSans-69" x="379.642578"/>
    <use xlink:href="#DejaVuSans-6f" x="407.425781"/>
    <use xlink:href="#DejaVuSans-6e" x="468.607422"/>
    <use xlink:href="#DejaVuSans-20" x="531.986328"/>
    <use xlink:href="#DejaVuSans-63" x="563.773438"/>
    <use xlink:href="#DejaVuSans-68" x="618.753906"/>
    <use xlink:href="#DejaVuSans-61" x="682.132812"/>
    <use xlink:href="#DejaVuSans-6e" x="743.412109"/>
    <use xlink:href="#DejaVuSans-67" x="806.791016"/>
    <use xlink:href="#DejaVuSans-65" x="870.267578"/>
    <use xlink:href="#DejaVuSans-20" x="931.791016"/>
    <use xlink:href="#DejaVuSans-66" x="963.578125"/>
    <use xlink:href="#DejaVuSans-72" x="998.783203"/>
    <use xlink:href="#DejaVuSans-6f" x="1037.646484"/>
    <use xlink:href="#DejaVuSans-6d" x="1098.828125"/>
    <use xlink:href="#DejaVuSans-20" x="1196.240234"/>
    <use xlink:href="#DejaVuSans-70" x="1228.027344"/>
    <use xlink:href="#DejaVuSans-72" x="1291.503906"/>
    <use xlink:href="#DejaVuSans-65" x="1330.367188"/>
    <use xlink:href="#DejaVuSans-2d" x="1391.890625"/>
    <use xlink:href="#DejaVuSans-73" x="1427.974609"/>
    <use xlink:href="#DejaVuSans-68" x="1480.074219"/>
    <use xlink:href="#DejaVuSans-6f" x="1543.453125"/>
    <use xlink:href="#DejaVuSans-63" x="1604.634766"/>
    <use xlink:href="#DejaVuSans-6b" x="1659.615234"/>
    <use xlink:href="#DejaVuSans-20" x="1717.525391"/>
    <use xlink:href="#DejaVuSans-6c" x="1749.3125"/>
    <use xlink:href="#DejaVuSans-65" x="1777.095703"/>
    <use xlink:href="#DejaVuSans-76" x="1838.619141"/>
    <use xlink:href="#DejaVuSans-65" x="1897.798828"/>
    <use xlink:href="#DejaVuSans-6c" x="1959.322266"/>
   </g>
  </g>
  <g id="legend_1">
   <g id="patch_20">
    <path d="M 11.82 584.31675 
L 1292.617547 584.31675 
Q 1297.237547 584.31675 1297.237547 579.69675 
L 1297.237547 476.97 
Q 1297.237547 472.35 1292.617547 472.35 
L 11.82 472.35 
Q 7.2 472.35 7.2 476.97 
L 7.2 579.69675 
Q 7.2 584.31675 11.82 584.31675 
z
" style="fill: #eaeaf2; opacity: 0.8; stroke: #cccccc; stroke-linejoin: miter"/>
   </g>
   <g id="text_29">
    <!-- Experiences -->
    <g style="fill: #262626" transform="translate(575.384367 500.738062) scale(0.252 -0.252)">
     <defs>
      <path id="DejaVuSans-45" d="M 628 4666 
L 3578 4666 
L 3578 4134 
L 1259 4134 
L 1259 2753 
L 3481 2753 
L 3481 2222 
L 1259 2222 
L 1259 531 
L 3634 531 
L 3634 0 
L 628 0 
L 628 4666 
z
" transform="scale(0.015625)"/>
      <path id="DejaVuSans-78" d="M 3513 3500 
L 2247 1797 
L 3578 0 
L 2900 0 
L 1881 1375 
L 863 0 
L 184 0 
L 1544 1831 
L 300 3500 
L 978 3500 
L 1906 2253 
L 2834 3500 
L 3513 3500 
z
" transform="scale(0.015625)"/>
     </defs>
     <use xlink:href="#DejaVuSans-45"/>
     <use xlink:href="#DejaVuSans-78" x="63.183594"/>
     <use xlink:href="#DejaVuSans-70" x="122.363281"/>
     <use xlink:href="#DejaVuSans-65" x="185.839844"/>
     <use xlink:href="#DejaVuSans-72" x="247.363281"/>
     <use xlink:href="#DejaVuSans-69" x="288.476562"/>
     <use xlink:href="#DejaVuSans-65" x="316.259766"/>
     <use xlink:href="#DejaVuSans-6e" x="377.783203"/>
     <use xlink:href="#DejaVuSans-63" x="441.162109"/>
     <use xlink:href="#DejaVuSans-65" x="496.142578"/>
     <use xlink:href="#DejaVuSans-73" x="557.666016"/>
    </g>
   </g>
   <g id="line2d_73">
    <path d="M 16.44 526.996266 
L 39.54 526.996266 
L 62.64 526.996266 
" style="fill: none; stroke: #4c72b0; stroke-opacity: 0.9; stroke-width: 3; stroke-linecap: round"/>
   </g>
   <g id="text_30">
    <!-- eora26_full_2000 -->
    <g style="fill: #262626" transform="translate(81.12 535.081266) scale(0.231 -0.231)">
     <defs>
      <path id="DejaVuSans-5f" d="M 3263 -1063 
L 3263 -1509 
L -63 -1509 
L -63 -1063 
L 3263 -1063 
z
" transform="scale(0.015625)"/>
     </defs>
     <use xlink:href="#DejaVuSans-65"/>
     <use xlink:href="#DejaVuSans-6f" x="61.523438"/>
     <use xlink:href="#DejaVuSans-72" x="122.705078"/>
     <use xlink:href="#DejaVuSans-61" x="163.818359"/>
     <use xlink:href="#DejaVuSans-32" x="225.097656"/>
     <use xlink:href="#DejaVuSans-36" x="288.720703"/>
     <use xlink:href="#DejaVuSans-5f" x="352.34375"/>
     <use xlink:href="#DejaVuSans-66" x="402.34375"/>
     <use xlink:href="#DejaVuSans-75" x="437.548828"/>
     <use xlink:href="#DejaVuSans-6c" x="500.927734"/>
     <use xlink:href="#DejaVuSans-6c" x="528.710938"/>
     <use xlink:href="#DejaVuSans-5f" x="556.494141"/>
     <use xlink:href="#DejaVuSans-32" x="606.494141"/>
     <use xlink:href="#DejaVuSans-30" x="670.117188"/>
     <use xlink:href="#DejaVuSans-30" x="733.740234"/>
     <use xlink:href="#DejaVuSans-30" x="797.363281"/>
    </g>
   </g>
   <g id="line2d_74">
    <path d="M 16.44 561.545203 
L 39.54 561.545203 
L 62.64 561.545203 
" style="fill: none; stroke: #dd8452; stroke-opacity: 0.9; stroke-width: 3; stroke-linecap: round"/>
   </g>
   <g id="text_31">
    <!-- eora26_full_2010 -->
    <g style="fill: #262626" transform="translate(81.12 569.630203) scale(0.231 -0.231)">
     <defs>
      <path id="DejaVuSans-31" d="M 794 531 
L 1825 531 
L 1825 4091 
L 703 3866 
L 703 4441 
L 1819 4666 
L 2450 4666 
L 2450 531 
L 3481 531 
L 3481 0 
L 794 0 
L 794 531 
z
" transform="scale(0.015625)"/>
     </defs>
     <use xlink:href="#DejaVuSans-65"/>
     <use xlink:href="#DejaVuSans-6f" x="61.523438"/>
     <use xlink:href="#DejaVuSans-72" x="122.705078"/>
     <use xlink:href="#DejaVuSans-61" x="163.818359"/>
     <use xlink:href="#DejaVuSans-32" x="225.097656"/>
     <use xlink:href="#DejaVuSans-36" x="288.720703"/>
     <use xlink:href="#DejaVuSans-5f" x="352.34375"/>
     <use xlink:href="#DejaVuSans-66" x="402.34375"/>
     <use xlink:href="#DejaVuSans-75" x="437.548828"/>
     <use xlink:href="#DejaVuSans-6c" x="500.927734"/>
     <use xlink:href="#DejaVuSans-6c" x="528.710938"/>
     <use xlink:href="#DejaVuSans-5f" x="556.494141"/>
     <use xlink:href="#DejaVuSans-32" x="606.494141"/>
     <use xlink:href="#DejaVuSans-30" x="670.117188"/>
     <use xlink:href="#DejaVuSans-31" x="733.740234"/>
     <use xlink:href="#DejaVuSans-30" x="797.363281"/>
    </g>
   </g>
   <g id="line2d_75">
    <path d="M 326.211 526.996266 
L 349.311 526.996266 
L 372.411 526.996266 
" style="fill: none; stroke: #55a868; stroke-opacity: 0.9; stroke-width: 3; stroke-linecap: round"/>
   </g>
   <g id="text_32">
    <!-- euregio_full_2000 -->
    <g style="fill: #262626" transform="translate(390.891 535.081266) scale(0.231 -0.231)">
     <use xlink:href="#DejaVuSans-65"/>
     <use xlink:href="#DejaVuSans-75" x="61.523438"/>
     <use xlink:href="#DejaVuSans-72" x="124.902344"/>
     <use xlink:href="#DejaVuSans-65" x="163.765625"/>
     <use xlink:href="#DejaVuSans-67" x="225.289062"/>
     <use xlink:href="#DejaVuSans-69" x="288.765625"/>
     <use xlink:href="#DejaVuSans-6f" x="316.548828"/>
     <use xlink:href="#DejaVuSans-5f" x="377.730469"/>
     <use xlink:href="#DejaVuSans-66" x="427.730469"/>
     <use xlink:href="#DejaVuSans-75" x="462.935547"/>
     <use xlink:href="#DejaVuSans-6c" x="526.314453"/>
     <use xlink:href="#DejaVuSans-6c" x="554.097656"/>
     <use xlink:href="#DejaVuSans-5f" x="581.880859"/>
     <use xlink:href="#DejaVuSans-32" x="631.880859"/>
     <use xlink:href="#DejaVuSans-30" x="695.503906"/>
     <use xlink:href="#DejaVuSans-30" x="759.126953"/>
     <use xlink:href="#DejaVuSans-30" x="822.75"/>
    </g>
   </g>
   <g id="line2d_76">
    <path d="M 326.211 561.545203 
L 349.311 561.545203 
L 372.411 561.545203 
" style="fill: none; stroke: #c44e52; stroke-opacity: 0.9; stroke-width: 3; stroke-linecap: round"/>
   </g>
   <g id="text_33">
    <!-- euregio_full_2010 -->
    <g style="fill: #262626" transform="translate(390.891 569.630203) scale(0.231 -0.231)">
     <use xlink:href="#DejaVuSans-65"/>
     <use xlink:href="#DejaVuSans-75" x="61.523438"/>
     <use xlink:href="#DejaVuSans-72" x="124.902344"/>
     <use xlink:href="#DejaVuSans-65" x="163.765625"/>
     <use xlink:href="#DejaVuSans-67" x="225.289062"/>
     <use xlink:href="#DejaVuSans-69" x="288.765625"/>
     <use xlink:href="#DejaVuSans-6f" x="316.548828"/>
     <use xlink:href="#DejaVuSans-5f" x="377.730469"/>
     <use xlink:href="#DejaVuSans-66" x="427.730469"/>
     <use xlink:href="#DejaVuSans-75" x="462.935547"/>
     <use xlink:href="#DejaVuSans-6c" x="526.314453"/>
     <use xlink:href="#DejaVuSans-6c" x="554.097656"/>
     <use xlink:href="#DejaVuSans-5f" x="581.880859"/>
     <use xlink:href="#DejaVuSans-32" x="631.880859"/>
     <use xlink:href="#DejaVuSans-30" x="695.503906"/>
     <use xlink:href="#DejaVuSans-31" x="759.126953"/>
     <use xlink:href="#DejaVuSans-30" x="822.75"/>
    </g>
   </g>
   <g id="line2d_77">
    <path d="M 641.847234 526.996266 
L 664.947234 526.996266 
L 688.047234 526.996266 
" style="fill: none; stroke: #8172b3; stroke-opacity: 0.9; stroke-width: 3; stroke-linecap: round"/>
   </g>
   <g id="text_34">
    <!-- exiobase3_full_2000 -->
    <g style="fill: #262626" transform="translate(706.527234 535.081266) scale(0.231 -0.231)">
     <defs>
      <path id="DejaVuSans-62" d="M 3116 1747 
Q 3116 2381 2855 2742 
Q 2594 3103 2138 3103 
Q 1681 3103 1420 2742 
Q 1159 2381 1159 1747 
Q 1159 1113 1420 752 
Q 1681 391 2138 391 
Q 2594 391 2855 752 
Q 3116 1113 3116 1747 
z
M 1159 2969 
Q 1341 3281 1617 3432 
Q 1894 3584 2278 3584 
Q 2916 3584 3314 3078 
Q 3713 2572 3713 1747 
Q 3713 922 3314 415 
Q 2916 -91 2278 -91 
Q 1894 -91 1617 61 
Q 1341 213 1159 525 
L 1159 0 
L 581 0 
L 581 4863 
L 1159 4863 
L 1159 2969 
z
" transform="scale(0.015625)"/>
     </defs>
     <use xlink:href="#DejaVuSans-65"/>
     <use xlink:href="#DejaVuSans-78" x="59.773438"/>
     <use xlink:href="#DejaVuSans-69" x="118.953125"/>
     <use xlink:href="#DejaVuSans-6f" x="146.736328"/>
     <use xlink:href="#DejaVuSans-62" x="207.917969"/>
     <use xlink:href="#DejaVuSans-61" x="271.394531"/>
     <use xlink:href="#DejaVuSans-73" x="332.673828"/>
     <use xlink:href="#DejaVuSans-65" x="384.773438"/>
     <use xlink:href="#DejaVuSans-33" x="446.296875"/>
     <use xlink:href="#DejaVuSans-5f" x="509.919922"/>
     <use xlink:href="#DejaVuSans-66" x="559.919922"/>
     <use xlink:href="#DejaVuSans-75" x="595.125"/>
     <use xlink:href="#DejaVuSans-6c" x="658.503906"/>
     <use xlink:href="#DejaVuSans-6c" x="686.287109"/>
     <use xlink:href="#DejaVuSans-5f" x="714.070312"/>
     <use xlink:href="#DejaVuSans-32" x="764.070312"/>
     <use xlink:href="#DejaVuSans-30" x="827.693359"/>
     <use xlink:href="#DejaVuSans-30" x="891.316406"/>
     <use xlink:href="#DejaVuSans-30" x="954.939453"/>
    </g>
   </g>
   <g id="line2d_78">
    <path d="M 988.022391 526.996266 
L 1011.122391 526.996266 
L 1034.222391 526.996266 
" style="fill: none; stroke: #937860; stroke-opacity: 0.9; stroke-width: 3; stroke-linecap: round"/>
   </g>
   <g id="text_35">
    <!-- exiobase3_full_2010 -->
    <g style="fill: #262626" transform="translate(1052.702391 535.081266) scale(0.231 -0.231)">
     <use xlink:href="#DejaVuSans-65"/>
     <use xlink:href="#DejaVuSans-78" x="59.773438"/>
     <use xlink:href="#DejaVuSans-69" x="118.953125"/>
     <use xlink:href="#DejaVuSans-6f" x="146.736328"/>
     <use xlink:href="#DejaVuSans-62" x="207.917969"/>
     <use xlink:href="#DejaVuSans-61" x="271.394531"/>
     <use xlink:href="#DejaVuSans-73" x="332.673828"/>
     <use xlink:href="#DejaVuSans-65" x="384.773438"/>
     <use xlink:href="#DejaVuSans-33" x="446.296875"/>
     <use xlink:href="#DejaVuSans-5f" x="509.919922"/>
     <use xlink:href="#DejaVuSans-66" x="559.919922"/>
     <use xlink:href="#DejaVuSans-75" x="595.125"/>
     <use xlink:href="#DejaVuSans-6c" x="658.503906"/>
     <use xlink:href="#DejaVuSans-6c" x="686.287109"/>
     <use xlink:href="#DejaVuSans-5f" x="714.070312"/>
     <use xlink:href="#DejaVuSans-32" x="764.070312"/>
     <use xlink:href="#DejaVuSans-30" x="827.693359"/>
     <use xlink:href="#DejaVuSans-31" x="891.316406"/>
     <use xlink:href="#DejaVuSans-30" x="954.939453"/>
    </g>
   </g>
  </g>
 </g>
 <defs>
  <clipPath id="p0def4afa3a">
   <rect x="170.340091" y="81.456" width="292.369069" height="119.586"/>
  </clipPath>
  <clipPath id="pef3bf37bd9">
   <rect x="489.290298" y="81.456" width="292.369069" height="119.586"/>
  </clipPath>
  <clipPath id="p58466b71b4">
   <rect x="808.240504" y="81.456" width="292.369069" height="119.586"/>
  </clipPath>
  <clipPath id="pc6750be58a">
   <rect x="170.340091" y="253.698" width="292.369069" height="119.586"/>
  </clipPath>
  <clipPath id="p7daa9ac7e0">
   <rect x="489.290298" y="253.698" width="292.369069" height="119.586"/>
  </clipPath>
  <clipPath id="p26ee8691b6">
   <rect x="808.240504" y="253.698" width="292.369069" height="119.586"/>
  </clipPath>
 </defs>
</svg>
