<?xml version="1.0" encoding="utf-8" standalone="no"?>
<!DOCTYPE svg PUBLIC "-//W3C//DTD SVG 1.1//EN"
  "http://www.w3.org/Graphics/SVG/1.1/DTD/svg11.dtd">
<svg xmlns:xlink="http://www.w3.org/1999/xlink" width="1304.437547pt" height="591.51675pt" viewBox="0 0 1304.437547 591.51675" xmlns="http://www.w3.org/2000/svg" version="1.1">
 <metadata>
  <rdf:RDF xmlns:dc="http://purl.org/dc/elements/1.1/" xmlns:cc="http://creativecommons.org/ns#" xmlns:rdf="http://www.w3.org/1999/02/22-rdf-syntax-ns#">
   <cc:Work>
    <dc:type rdf:resource="http://purl.org/dc/dcmitype/StillImage"/>
    <dc:date>2023-04-26T19:05:46.728567</dc:date>
    <dc:format>image/svg+xml</dc:format>
    <dc:creator>
     <cc:Agent>
      <dc:title>Matplotlib v3.7.1, https://matplotlib.org/</dc:title>
     </cc:Agent>
    </dc:creator>
   </cc:Work>
  </rdf:RDF>
 </metadata>
 <defs>
  <style type="text/css">*{stroke-linejoin: round; stroke-linecap: butt}</style>
 </defs>
 <g id="figure_1">
  <g id="patch_1">
   <path d="M 0 591.51675 
L 1304.437547 591.51675 
L 1304.437547 -0 
L 0 -0 
z
" style="fill: #ffffff"/>
  </g>
  <g id="axes_1">
   <g id="patch_2">
    <path d="M 170.340091 201.042 
L 462.70916 201.042 
L 462.70916 81.456 
L 170.340091 81.456 
z
" style="fill: #eaeaf2"/>
   </g>
   <g id="matplotlib.axis_1">
    <g id="xtick_1">
     <g id="line2d_1">
      <path d="M 183.629594 201.042 
L 183.629594 81.456 
" clip-path="url(#p17c497f63f)" style="fill: none; stroke: #ffffff; stroke-linecap: round"/>
     </g>
    </g>
    <g id="xtick_2">
     <g id="line2d_2">
      <path d="M 274.77845 201.042 
L 274.77845 81.456 
" clip-path="url(#p17c497f63f)" style="fill: none; stroke: #ffffff; stroke-linecap: round"/>
     </g>
    </g>
    <g id="xtick_3">
     <g id="line2d_3">
      <path d="M 365.927305 201.042 
L 365.927305 81.456 
" clip-path="url(#p17c497f63f)" style="fill: none; stroke: #ffffff; stroke-linecap: round"/>
     </g>
    </g>
    <g id="xtick_4">
     <g id="line2d_4">
      <path d="M 457.076161 201.042 
L 457.076161 81.456 
" clip-path="url(#p17c497f63f)" style="fill: none; stroke: #ffffff; stroke-linecap: round"/>
     </g>
    </g>
   </g>
   <g id="matplotlib.axis_2">
    <g id="ytick_1">
     <g id="line2d_5">
      <path d="M 170.340091 183.62136 
L 462.70916 183.62136 
" clip-path="url(#p17c497f63f)" style="fill: none; stroke: #ffffff; stroke-linecap: round"/>
     </g>
     <g id="text_1">
      <!-- −0.5 -->
      <g style="fill: #262626" transform="translate(104.746794 192.397555) scale(0.231 -0.231)">
       <defs>
        <path id="DejaVuSans-2212" d="M 678 2272 
L 4684 2272 
L 4684 1741 
L 678 1741 
L 678 2272 
z
" transform="scale(0.015625)"/>
        <path id="DejaVuSans-30" d="M 2034 4250 
Q 1547 4250 1301 3770 
Q 1056 3291 1056 2328 
Q 1056 1369 1301 889 
Q 1547 409 2034 409 
Q 2525 409 2770 889 
Q 3016 1369 3016 2328 
Q 3016 3291 2770 3770 
Q 2525 4250 2034 4250 
z
M 2034 4750 
Q 2819 4750 3233 4129 
Q 3647 3509 3647 2328 
Q 3647 1150 3233 529 
Q 2819 -91 2034 -91 
Q 1250 -91 836 529 
Q 422 1150 422 2328 
Q 422 3509 836 4129 
Q 1250 4750 2034 4750 
z
" transform="scale(0.015625)"/>
        <path id="DejaVuSans-2e" d="M 684 794 
L 1344 794 
L 1344 0 
L 684 0 
L 684 794 
z
" transform="scale(0.015625)"/>
        <path id="DejaVuSans-35" d="M 691 4666 
L 3169 4666 
L 3169 4134 
L 1269 4134 
L 1269 2991 
Q 1406 3038 1543 3061 
Q 1681 3084 1819 3084 
Q 2600 3084 3056 2656 
Q 3513 2228 3513 1497 
Q 3513 744 3044 326 
Q 2575 -91 1722 -91 
Q 1428 -91 1123 -41 
Q 819 9 494 109 
L 494 744 
Q 775 591 1075 516 
Q 1375 441 1709 441 
Q 2250 441 2565 725 
Q 2881 1009 2881 1497 
Q 2881 1984 2565 2268 
Q 2250 2553 1709 2553 
Q 1456 2553 1204 2497 
Q 953 2441 691 2322 
L 691 4666 
z
" transform="scale(0.015625)"/>
       </defs>
       <use xlink:href="#DejaVuSans-2212"/>
       <use xlink:href="#DejaVuSans-30" x="83.789062"/>
       <use xlink:href="#DejaVuSans-2e" x="147.412109"/>
       <use xlink:href="#DejaVuSans-35" x="179.199219"/>
      </g>
     </g>
    </g>
    <g id="ytick_2">
     <g id="line2d_6">
      <path d="M 170.340091 97.020312 
L 462.70916 97.020312 
" clip-path="url(#p17c497f63f)" style="fill: none; stroke: #ffffff; stroke-linecap: round"/>
     </g>
     <g id="text_2">
      <!-- 0.0 -->
      <g style="fill: #262626" transform="translate(124.103872 105.796508) scale(0.231 -0.231)">
       <use xlink:href="#DejaVuSans-30"/>
       <use xlink:href="#DejaVuSans-2e" x="63.623047"/>
       <use xlink:href="#DejaVuSans-30" x="95.410156"/>
      </g>
     </g>
    </g>
    <g id="text_3">
     <!-- % change -->
     <g style="fill: #262626" transform="translate(95.505982 203.597344) rotate(-90) scale(0.252 -0.252)">
      <defs>
       <path id="DejaVuSans-25" d="M 4653 2053 
Q 4381 2053 4226 1822 
Q 4072 1591 4072 1178 
Q 4072 772 4226 539 
Q 4381 306 4653 306 
Q 4919 306 5073 539 
Q 5228 772 5228 1178 
Q 5228 1588 5073 1820 
Q 4919 2053 4653 2053 
z
M 4653 2450 
Q 5147 2450 5437 2106 
Q 5728 1763 5728 1178 
Q 5728 594 5436 251 
Q 5144 -91 4653 -91 
Q 4153 -91 3862 251 
Q 3572 594 3572 1178 
Q 3572 1766 3864 2108 
Q 4156 2450 4653 2450 
z
M 1428 4353 
Q 1159 4353 1004 4120 
Q 850 3888 850 3481 
Q 850 3069 1003 2837 
Q 1156 2606 1428 2606 
Q 1700 2606 1854 2837 
Q 2009 3069 2009 3481 
Q 2009 3884 1853 4118 
Q 1697 4353 1428 4353 
z
M 4250 4750 
L 4750 4750 
L 1831 -91 
L 1331 -91 
L 4250 4750 
z
M 1428 4750 
Q 1922 4750 2215 4408 
Q 2509 4066 2509 3481 
Q 2509 2891 2217 2550 
Q 1925 2209 1428 2209 
Q 931 2209 642 2551 
Q 353 2894 353 3481 
Q 353 4063 643 4406 
Q 934 4750 1428 4750 
z
" transform="scale(0.015625)"/>
       <path id="DejaVuSans-20" transform="scale(0.015625)"/>
       <path id="DejaVuSans-63" d="M 3122 3366 
L 3122 2828 
Q 2878 2963 2633 3030 
Q 2388 3097 2138 3097 
Q 1578 3097 1268 2742 
Q 959 2388 959 1747 
Q 959 1106 1268 751 
Q 1578 397 2138 397 
Q 2388 397 2633 464 
Q 2878 531 3122 666 
L 3122 134 
Q 2881 22 2623 -34 
Q 2366 -91 2075 -91 
Q 1284 -91 818 406 
Q 353 903 353 1747 
Q 353 2603 823 3093 
Q 1294 3584 2113 3584 
Q 2378 3584 2631 3529 
Q 2884 3475 3122 3366 
z
" transform="scale(0.015625)"/>
       <path id="DejaVuSans-68" d="M 3513 2113 
L 3513 0 
L 2938 0 
L 2938 2094 
Q 2938 2591 2744 2837 
Q 2550 3084 2163 3084 
Q 1697 3084 1428 2787 
Q 1159 2491 1159 1978 
L 1159 0 
L 581 0 
L 581 4863 
L 1159 4863 
L 1159 2956 
Q 1366 3272 1645 3428 
Q 1925 3584 2291 3584 
Q 2894 3584 3203 3211 
Q 3513 2838 3513 2113 
z
" transform="scale(0.015625)"/>
       <path id="DejaVuSans-61" d="M 2194 1759 
Q 1497 1759 1228 1600 
Q 959 1441 959 1056 
Q 959 750 1161 570 
Q 1363 391 1709 391 
Q 2188 391 2477 730 
Q 2766 1069 2766 1631 
L 2766 1759 
L 2194 1759 
z
M 3341 1997 
L 3341 0 
L 2766 0 
L 2766 531 
Q 2569 213 2275 61 
Q 1981 -91 1556 -91 
Q 1019 -91 701 211 
Q 384 513 384 1019 
Q 384 1609 779 1909 
Q 1175 2209 1959 2209 
L 2766 2209 
L 2766 2266 
Q 2766 2663 2505 2880 
Q 2244 3097 1772 3097 
Q 1472 3097 1187 3025 
Q 903 2953 641 2809 
L 641 3341 
Q 956 3463 1253 3523 
Q 1550 3584 1831 3584 
Q 2591 3584 2966 3190 
Q 3341 2797 3341 1997 
z
" transform="scale(0.015625)"/>
       <path id="DejaVuSans-6e" d="M 3513 2113 
L 3513 0 
L 2938 0 
L 2938 2094 
Q 2938 2591 2744 2837 
Q 2550 3084 2163 3084 
Q 1697 3084 1428 2787 
Q 1159 2491 1159 1978 
L 1159 0 
L 581 0 
L 581 3500 
L 1159 3500 
L 1159 2956 
Q 1366 3272 1645 3428 
Q 1925 3584 2291 3584 
Q 2894 3584 3203 3211 
Q 3513 2838 3513 2113 
z
" transform="scale(0.015625)"/>
       <path id="DejaVuSans-67" d="M 2906 1791 
Q 2906 2416 2648 2759 
Q 2391 3103 1925 3103 
Q 1463 3103 1205 2759 
Q 947 2416 947 1791 
Q 947 1169 1205 825 
Q 1463 481 1925 481 
Q 2391 481 2648 825 
Q 2906 1169 2906 1791 
z
M 3481 434 
Q 3481 -459 3084 -895 
Q 2688 -1331 1869 -1331 
Q 1566 -1331 1297 -1286 
Q 1028 -1241 775 -1147 
L 775 -588 
Q 1028 -725 1275 -790 
Q 1522 -856 1778 -856 
Q 2344 -856 2625 -561 
Q 2906 -266 2906 331 
L 2906 616 
Q 2728 306 2450 153 
Q 2172 0 1784 0 
Q 1141 0 747 490 
Q 353 981 353 1791 
Q 353 2603 747 3093 
Q 1141 3584 1784 3584 
Q 2172 3584 2450 3431 
Q 2728 3278 2906 2969 
L 2906 3500 
L 3481 3500 
L 3481 434 
z
" transform="scale(0.015625)"/>
       <path id="DejaVuSans-65" d="M 3597 1894 
L 3597 1613 
L 953 1613 
Q 991 1019 1311 708 
Q 1631 397 2203 397 
Q 2534 397 2845 478 
Q 3156 559 3463 722 
L 3463 178 
Q 3153 47 2828 -22 
Q 2503 -91 2169 -91 
Q 1331 -91 842 396 
Q 353 884 353 1716 
Q 353 2575 817 3079 
Q 1281 3584 2069 3584 
Q 2775 3584 3186 3129 
Q 3597 2675 3597 1894 
z
M 3022 2063 
Q 3016 2534 2758 2815 
Q 2500 3097 2075 3097 
Q 1594 3097 1305 2825 
Q 1016 2553 972 2059 
L 3022 2063 
z
" transform="scale(0.015625)"/>
      </defs>
      <use xlink:href="#DejaVuSans-25"/>
      <use xlink:href="#DejaVuSans-20" x="95.019531"/>
      <use xlink:href="#DejaVuSans-63" x="126.806641"/>
      <use xlink:href="#DejaVuSans-68" x="181.787109"/>
      <use xlink:href="#DejaVuSans-61" x="245.166016"/>
      <use xlink:href="#DejaVuSans-6e" x="306.445312"/>
      <use xlink:href="#DejaVuSans-67" x="369.824219"/>
      <use xlink:href="#DejaVuSans-65" x="433.300781"/>
     </g>
    </g>
   </g>
   <g id="PolyCollection_1"/>
   <g id="PolyCollection_2"/>
   <g id="PolyCollection_3"/>
   <g id="PolyCollection_4"/>
   <g id="PolyCollection_5"/>
   <g id="PolyCollection_6"/>
   <g id="line2d_7">
    <path d="M 183.629594 97.020312 
L 183.99419 184.697157 
L 184.358785 187.717216 
L 184.723381 188.439057 
L 185.087976 188.528782 
L 186.181762 188.153627 
L 189.098526 186.915245 
L 190.556907 185.370798 
L 199.307197 175.856019 
L 207.328297 167.433294 
L 217.536969 157.061282 
L 224.828877 149.914796 
L 235.037549 140.619951 
L 241.235671 135.221354 
L 251.079747 126.951569 
L 260.923824 118.966332 
L 270.7679 111.270792 
L 280.611977 103.849021 
L 282.799549 102.34523 
L 284.622526 101.328028 
L 293.737412 96.662248 
L 295.560389 95.871306 
L 307.592038 92.620232 
L 310.873397 91.988678 
L 317.436114 90.842026 
L 322.905046 89.873463 
L 346.968344 91.686714 
L 370.667046 92.89117 
L 381.969504 93.070922 
L 404.939016 93.18384 
L 449.419657 93.225213 
L 449.419657 93.225213 
" clip-path="url(#p17c497f63f)" style="fill: none; stroke: #4c72b0; stroke-opacity: 0.9; stroke-width: 3; stroke-linecap: round"/>
   </g>
   <g id="line2d_8">
    <path d="M 183.629594 97.020312 
L 183.99419 144.839757 
L 184.358785 146.837849 
L 184.723381 147.493077 
L 185.087976 147.687248 
L 185.817167 147.674709 
L 189.098526 147.024324 
L 190.556907 146.236225 
L 202.588556 139.37406 
L 214.984801 132.560763 
L 227.01645 126.200148 
L 237.589717 120.858674 
L 247.798389 116.155373 
L 261.653015 110.157501 
L 275.507641 104.403129 
L 284.257931 100.954414 
L 287.53929 99.94604 
L 296.654175 97.343716 
L 309.77961 94.810323 
L 317.436114 93.375381 
L 322.54045 92.644662 
L 326.915595 92.866062 
L 336.395076 93.425807 
L 340.04103 93.757593 
L 358.635397 94.051414 
L 428.273123 94.588254 
L 449.419657 94.596504 
L 449.419657 94.596504 
" clip-path="url(#p17c497f63f)" style="fill: none; stroke: #dd8452; stroke-opacity: 0.9; stroke-width: 3; stroke-linecap: round"/>
   </g>
   <g id="line2d_9">
    <path d="M 183.629594 97.020312 
L 183.99419 188.899311 
L 184.358785 193.815909 
L 184.723381 194.973337 
L 185.087976 195.192169 
L 185.817167 195.014256 
L 189.098526 193.552395 
L 190.556907 191.898296 
L 199.307197 181.716052 
L 207.692892 172.318302 
L 217.536969 161.619198 
L 226.287259 152.432358 
L 235.402144 143.221861 
L 243.423244 135.43015 
L 250.350557 128.978745 
L 257.27787 122.837856 
L 265.298969 116.03937 
L 274.049259 108.913397 
L 282.070358 102.642463 
L 284.257931 101.131168 
L 287.53929 99.105246 
L 291.549839 96.954504 
L 294.466603 95.669359 
L 297.383366 94.59523 
L 306.862847 92.273743 
L 314.154755 90.921548 
L 322.54045 89.585602 
L 325.821809 90.034788 
L 339.31184 92.027937 
L 346.239153 92.683303 
L 352.80187 93.074186 
L 363.375138 93.474447 
L 376.135977 93.721411 
L 394.001153 93.858129 
L 436.294222 93.904194 
L 449.419657 93.901165 
L 449.419657 93.901165 
" clip-path="url(#p17c497f63f)" style="fill: none; stroke: #55a868; stroke-opacity: 0.9; stroke-width: 3; stroke-linecap: round"/>
   </g>
   <g id="line2d_10">
    <path d="M 183.629594 97.020312 
L 183.99419 169.22959 
L 184.358785 173.178792 
L 184.723381 174.091141 
L 185.087976 174.257049 
L 185.817167 174.112218 
L 189.098526 172.955285 
L 190.556907 171.654485 
L 199.671793 163.293242 
L 209.515869 154.573334 
L 219.359946 146.144582 
L 227.74564 139.248802 
L 236.49593 132.325943 
L 244.51703 126.256336 
L 252.173534 120.727251 
L 260.194633 115.240647 
L 268.944923 109.556381 
L 278.424404 103.663561 
L 283.52874 100.678703 
L 286.445503 99.288086 
L 291.185244 97.320314 
L 294.102007 96.3335 
L 297.018771 95.536067 
L 305.404465 93.80218 
L 316.342328 92.083321 
L 322.175855 91.313075 
L 323.998832 91.479011 
L 335.665885 92.610661 
L 343.686985 93.294002 
L 352.437275 93.743149 
L 364.833519 94.083217 
L 379.781932 94.27756 
L 406.761993 94.363003 
L 449.419657 94.36708 
L 449.419657 94.36708 
" clip-path="url(#p17c497f63f)" style="fill: none; stroke: #c44e52; stroke-opacity: 0.9; stroke-width: 3; stroke-linecap: round"/>
   </g>
   <g id="line2d_11">
    <path d="M 183.629594 97.020312 
L 183.99419 181.195796 
L 184.358785 184.816334 
L 184.723381 185.33516 
L 185.452571 185.21277 
L 189.098526 183.747648 
L 191.286098 181.457401 
L 200.036388 172.356929 
L 209.880465 162.447102 
L 219.724541 152.849906 
L 229.933213 143.209164 
L 238.318908 135.563917 
L 248.527579 126.536975 
L 255.090297 121.046642 
L 265.298969 112.749268 
L 275.507641 104.73679 
L 280.976572 100.641839 
L 284.257931 98.525007 
L 286.810099 97.007265 
L 290.091458 95.3193 
L 295.560389 92.747727 
L 298.841748 91.40264 
L 305.404465 88.903434 
L 307.227442 88.351978 
L 313.060969 87.787763 
L 322.905046 86.940887 
L 325.092618 87.340663 
L 332.019931 88.855874 
L 336.395076 89.465166 
L 339.676435 89.939181 
L 344.05158 90.624939 
L 348.426725 91.06927 
L 359.364588 91.84936 
L 387.803031 92.995995 
L 400.928466 93.187575 
L 425.720955 93.320025 
L 449.419657 93.35553 
L 449.419657 93.35553 
" clip-path="url(#p17c497f63f)" style="fill: none; stroke: #8172b3; stroke-opacity: 0.9; stroke-width: 3; stroke-linecap: round"/>
   </g>
   <g id="line2d_12">
    <path d="M 183.629594 97.020312 
L 183.99419 164.563811 
L 184.358785 167.027827 
L 184.723381 167.423358 
L 185.452571 167.329728 
L 189.098526 166.210532 
L 191.650694 164.11112 
L 201.130175 156.400986 
L 211.338846 148.390697 
L 221.547518 140.648428 
L 232.485381 132.664987 
L 243.423244 124.957617 
L 251.079747 119.797642 
L 261.653015 112.945561 
L 273.320068 105.675557 
L 281.705763 100.665604 
L 284.622526 99.16016 
L 291.185244 96.461889 
L 298.841748 93.633099 
L 304.310679 91.841117 
L 307.227442 91.02409 
L 316.706923 89.709383 
L 322.54045 89.162317 
L 325.092618 89.479639 
L 332.019931 90.301694 
L 338.582649 90.842476 
L 353.166466 91.980749 
L 357.906206 92.516977 
L 363.375138 92.730046 
L 389.990603 93.432407 
L 404.57442 93.60981 
L 436.658817 93.720627 
L 449.419657 93.733562 
L 449.419657 93.733562 
" clip-path="url(#p17c497f63f)" style="fill: none; stroke: #937860; stroke-opacity: 0.9; stroke-width: 3; stroke-linecap: round"/>
   </g>
   <g id="patch_3">
    <path d="M 170.340091 201.042 
L 170.340091 81.456 
" style="fill: none; stroke: #ffffff; stroke-width: 1.25; stroke-linejoin: miter; stroke-linecap: square"/>
   </g>
   <g id="patch_4">
    <path d="M 170.340091 201.042 
L 462.70916 201.042 
" style="fill: none; stroke: #ffffff; stroke-width: 1.25; stroke-linejoin: miter; stroke-linecap: square"/>
   </g>
   <g id="text_4">
    <!-- 0.8~90 -->
    <g style="fill: #262626" transform="translate(269.894782 75.456) scale(0.252 -0.252)">
     <defs>
      <path id="DejaVuSans-38" d="M 2034 2216 
Q 1584 2216 1326 1975 
Q 1069 1734 1069 1313 
Q 1069 891 1326 650 
Q 1584 409 2034 409 
Q 2484 409 2743 651 
Q 3003 894 3003 1313 
Q 3003 1734 2745 1975 
Q 2488 2216 2034 2216 
z
M 1403 2484 
Q 997 2584 770 2862 
Q 544 3141 544 3541 
Q 544 4100 942 4425 
Q 1341 4750 2034 4750 
Q 2731 4750 3128 4425 
Q 3525 4100 3525 3541 
Q 3525 3141 3298 2862 
Q 3072 2584 2669 2484 
Q 3125 2378 3379 2068 
Q 3634 1759 3634 1313 
Q 3634 634 3220 271 
Q 2806 -91 2034 -91 
Q 1263 -91 848 271 
Q 434 634 434 1313 
Q 434 1759 690 2068 
Q 947 2378 1403 2484 
z
M 1172 3481 
Q 1172 3119 1398 2916 
Q 1625 2713 2034 2713 
Q 2441 2713 2670 2916 
Q 2900 3119 2900 3481 
Q 2900 3844 2670 4047 
Q 2441 4250 2034 4250 
Q 1625 4250 1398 4047 
Q 1172 3844 1172 3481 
z
" transform="scale(0.015625)"/>
      <path id="DejaVuSans-7e" d="M 4684 2553 
L 4684 1997 
Q 4356 1750 4076 1644 
Q 3797 1538 3494 1538 
Q 3150 1538 2694 1722 
Q 2659 1734 2644 1741 
Q 2622 1750 2575 1766 
Q 2091 1959 1797 1959 
Q 1522 1959 1253 1839 
Q 984 1719 678 1459 
L 678 2016 
Q 1006 2263 1286 2370 
Q 1566 2478 1869 2478 
Q 2213 2478 2672 2291 
Q 2703 2278 2719 2272 
Q 2744 2263 2788 2247 
Q 3272 2053 3566 2053 
Q 3834 2053 4098 2172 
Q 4363 2291 4684 2553 
z
" transform="scale(0.015625)"/>
      <path id="DejaVuSans-39" d="M 703 97 
L 703 672 
Q 941 559 1184 500 
Q 1428 441 1663 441 
Q 2288 441 2617 861 
Q 2947 1281 2994 2138 
Q 2813 1869 2534 1725 
Q 2256 1581 1919 1581 
Q 1219 1581 811 2004 
Q 403 2428 403 3163 
Q 403 3881 828 4315 
Q 1253 4750 1959 4750 
Q 2769 4750 3195 4129 
Q 3622 3509 3622 2328 
Q 3622 1225 3098 567 
Q 2575 -91 1691 -91 
Q 1453 -91 1209 -44 
Q 966 3 703 97 
z
M 1959 2075 
Q 2384 2075 2632 2365 
Q 2881 2656 2881 3163 
Q 2881 3666 2632 3958 
Q 2384 4250 1959 4250 
Q 1534 4250 1286 3958 
Q 1038 3666 1038 3163 
Q 1038 2656 1286 2365 
Q 1534 2075 1959 2075 
z
" transform="scale(0.015625)"/>
     </defs>
     <use xlink:href="#DejaVuSans-30"/>
     <use xlink:href="#DejaVuSans-2e" x="63.623047"/>
     <use xlink:href="#DejaVuSans-38" x="95.410156"/>
     <use xlink:href="#DejaVuSans-7e" x="159.033203"/>
     <use xlink:href="#DejaVuSans-39" x="242.822266"/>
     <use xlink:href="#DejaVuSans-30" x="306.445312"/>
    </g>
   </g>
  </g>
  <g id="axes_2">
   <g id="patch_5">
    <path d="M 489.290298 201.042 
L 781.659367 201.042 
L 781.659367 81.456 
L 489.290298 81.456 
z
" style="fill: #eaeaf2"/>
   </g>
   <g id="matplotlib.axis_3">
    <g id="xtick_5">
     <g id="line2d_13">
      <path d="M 502.579801 201.042 
L 502.579801 81.456 
" clip-path="url(#pc565e2834e)" style="fill: none; stroke: #ffffff; stroke-linecap: round"/>
     </g>
    </g>
    <g id="xtick_6">
     <g id="line2d_14">
      <path d="M 593.728656 201.042 
L 593.728656 81.456 
" clip-path="url(#pc565e2834e)" style="fill: none; stroke: #ffffff; stroke-linecap: round"/>
     </g>
    </g>
    <g id="xtick_7">
     <g id="line2d_15">
      <path d="M 684.877512 201.042 
L 684.877512 81.456 
" clip-path="url(#pc565e2834e)" style="fill: none; stroke: #ffffff; stroke-linecap: round"/>
     </g>
    </g>
    <g id="xtick_8">
     <g id="line2d_16">
      <path d="M 776.026368 201.042 
L 776.026368 81.456 
" clip-path="url(#pc565e2834e)" style="fill: none; stroke: #ffffff; stroke-linecap: round"/>
     </g>
    </g>
   </g>
   <g id="matplotlib.axis_4">
    <g id="ytick_3">
     <g id="line2d_17">
      <path d="M 489.290298 183.62136 
L 781.659367 183.62136 
" clip-path="url(#pc565e2834e)" style="fill: none; stroke: #ffffff; stroke-linecap: round"/>
     </g>
    </g>
    <g id="ytick_4">
     <g id="line2d_18">
      <path d="M 489.290298 97.020312 
L 781.659367 97.020312 
" clip-path="url(#pc565e2834e)" style="fill: none; stroke: #ffffff; stroke-linecap: round"/>
     </g>
    </g>
   </g>
   <g id="PolyCollection_7"/>
   <g id="PolyCollection_8"/>
   <g id="PolyCollection_9"/>
   <g id="PolyCollection_10"/>
   <g id="PolyCollection_11"/>
   <g id="PolyCollection_12"/>
   <g id="line2d_19">
    <path d="M 502.579801 97.020312 
L 502.944396 184.697157 
L 503.308992 187.814249 
L 503.673587 188.648616 
L 504.038182 188.854849 
L 504.767373 188.86519 
L 508.048732 188.52178 
L 509.142518 187.723521 
L 537.945557 164.975463 
L 558.3629 149.125371 
L 576.592672 135.245241 
L 592.63487 123.282873 
L 606.124901 113.726308 
L 625.448458 100.401092 
L 629.459008 97.780097 
L 634.927939 95.215833 
L 641.126061 92.42519 
L 644.40742 92.438418 
L 658.262046 92.750928 
L 671.387481 94.280056 
L 679.043985 94.827648 
L 686.700489 95.149478 
L 699.461329 95.430897 
L 731.181131 95.796797 
L 768.369864 95.929157 
L 768.369864 95.929157 
" clip-path="url(#pc565e2834e)" style="fill: none; stroke: #4c72b0; stroke-opacity: 0.9; stroke-width: 3; stroke-linecap: round"/>
   </g>
   <g id="line2d_20">
    <path d="M 502.579801 97.020312 
L 502.944396 144.839757 
L 503.308992 146.882693 
L 503.673587 147.590475 
L 504.038182 147.83985 
L 504.767373 147.93972 
L 508.048732 147.792086 
L 509.507114 147.223752 
L 549.248015 130.146515 
L 575.498885 119.110839 
L 599.562183 109.24293 
L 608.677069 105.668348 
L 630.188199 97.680395 
L 632.740367 96.964647 
L 641.126061 94.769807 
L 645.865802 94.779608 
L 663.001787 94.936123 
L 678.67939 95.592971 
L 689.981848 95.877567 
L 718.784886 96.236658 
L 753.056856 96.311919 
L 768.369864 96.328858 
L 768.369864 96.328858 
" clip-path="url(#pc565e2834e)" style="fill: none; stroke: #dd8452; stroke-opacity: 0.9; stroke-width: 3; stroke-linecap: round"/>
   </g>
   <g id="line2d_21">
    <path d="M 502.579801 97.020312 
L 502.944396 188.899311 
L 503.308992 193.916546 
L 503.673587 195.191454 
L 504.038182 195.532116 
L 504.767373 195.599865 
L 508.048732 195.231321 
L 509.142518 194.368021 
L 533.935007 173.293389 
L 557.63371 153.500991 
L 576.228076 138.24229 
L 591.541084 125.9411 
L 606.489496 114.235337 
L 615.968977 107.052233 
L 625.813054 99.942169 
L 628.729817 97.983104 
L 633.834153 95.052818 
L 638.573893 92.604028 
L 641.126061 91.406668 
L 642.949038 91.483973 
L 646.959588 91.856491 
L 659.720428 93.388055 
L 668.835313 94.192693 
L 678.314794 94.812384 
L 689.617253 95.299893 
L 706.753237 95.899049 
L 724.253818 96.097747 
L 757.067406 96.202649 
L 768.369864 96.212049 
L 768.369864 96.212049 
" clip-path="url(#pc565e2834e)" style="fill: none; stroke: #55a868; stroke-opacity: 0.9; stroke-width: 3; stroke-linecap: round"/>
   </g>
   <g id="line2d_22">
    <path d="M 502.579801 97.020312 
L 502.944396 169.22959 
L 503.308992 173.258457 
L 503.673587 174.264215 
L 504.038182 174.526971 
L 504.767373 174.577657 
L 508.048732 174.292353 
L 509.507114 173.373803 
L 535.393389 156.073929 
L 559.456687 140.252302 
L 578.780244 127.794977 
L 594.457847 117.934465 
L 608.312473 109.472325 
L 618.521145 103.476016 
L 628.000626 98.184001 
L 634.198748 95.414043 
L 638.209298 93.792994 
L 641.126061 92.742277 
L 643.313634 92.836586 
L 651.699329 93.623878 
L 659.720428 94.298222 
L 669.199909 94.864896 
L 679.773176 95.278452 
L 713.315955 96.155766 
L 735.920871 96.292968 
L 768.369864 96.335751 
L 768.369864 96.335751 
" clip-path="url(#pc565e2834e)" style="fill: none; stroke: #c44e52; stroke-opacity: 0.9; stroke-width: 3; stroke-linecap: round"/>
   </g>
   <g id="line2d_23">
    <path d="M 502.579801 97.020312 
L 502.944396 181.195796 
L 503.308992 184.919803 
L 503.673587 185.549439 
L 504.402778 185.650873 
L 508.048732 185.292235 
L 509.871709 183.929966 
L 531.382839 167.571825 
L 556.175328 148.987416 
L 579.144839 132.040899 
L 598.832992 117.783423 
L 614.510595 106.709042 
L 627.636031 97.817448 
L 630.552794 96.140169 
L 636.021725 93.377349 
L 641.126061 91.32016 
L 643.313634 91.389665 
L 673.575054 92.512615 
L 683.054535 92.882251 
L 689.617253 93.524652 
L 703.836474 94.577399 
L 713.315955 94.916807 
L 740.296016 95.506432 
L 766.911482 95.690287 
L 768.369864 95.697578 
L 768.369864 95.697578 
" clip-path="url(#pc565e2834e)" style="fill: none; stroke: #8172b3; stroke-opacity: 0.9; stroke-width: 3; stroke-linecap: round"/>
   </g>
   <g id="line2d_24">
    <path d="M 502.579801 97.020312 
L 502.944396 164.563811 
L 503.308992 167.107134 
L 503.673587 167.587361 
L 504.402778 167.664838 
L 508.048732 167.390129 
L 510.236305 166.088287 
L 532.841221 152.477317 
L 558.727496 137.149788 
L 583.155389 122.94219 
L 602.843542 111.733325 
L 617.791954 103.429687 
L 629.094412 97.383353 
L 632.011176 96.096759 
L 634.927939 95.015955 
L 641.126061 93.004417 
L 645.501206 93.079149 
L 659.720428 93.431198 
L 683.41913 94.286849 
L 691.075634 94.724631 
L 703.107283 95.157213 
L 719.149482 95.444744 
L 738.108444 95.622741 
L 748.681711 95.784701 
L 759.254978 95.866339 
L 768.369864 95.902611 
L 768.369864 95.902611 
" clip-path="url(#pc565e2834e)" style="fill: none; stroke: #937860; stroke-opacity: 0.9; stroke-width: 3; stroke-linecap: round"/>
   </g>
   <g id="patch_6">
    <path d="M 489.290298 201.042 
L 489.290298 81.456 
" style="fill: none; stroke: #ffffff; stroke-width: 1.25; stroke-linejoin: miter; stroke-linecap: square"/>
   </g>
   <g id="patch_7">
    <path d="M 489.290298 201.042 
L 781.659367 201.042 
" style="fill: none; stroke: #ffffff; stroke-width: 1.25; stroke-linejoin: miter; stroke-linecap: square"/>
   </g>
   <g id="text_5">
    <!-- 0.8~365 -->
    <g style="fill: #262626" transform="translate(580.828239 75.456) scale(0.252 -0.252)">
     <defs>
      <path id="DejaVuSans-33" d="M 2597 2516 
Q 3050 2419 3304 2112 
Q 3559 1806 3559 1356 
Q 3559 666 3084 287 
Q 2609 -91 1734 -91 
Q 1441 -91 1130 -33 
Q 819 25 488 141 
L 488 750 
Q 750 597 1062 519 
Q 1375 441 1716 441 
Q 2309 441 2620 675 
Q 2931 909 2931 1356 
Q 2931 1769 2642 2001 
Q 2353 2234 1838 2234 
L 1294 2234 
L 1294 2753 
L 1863 2753 
Q 2328 2753 2575 2939 
Q 2822 3125 2822 3475 
Q 2822 3834 2567 4026 
Q 2313 4219 1838 4219 
Q 1578 4219 1281 4162 
Q 984 4106 628 3988 
L 628 4550 
Q 988 4650 1302 4700 
Q 1616 4750 1894 4750 
Q 2613 4750 3031 4423 
Q 3450 4097 3450 3541 
Q 3450 3153 3228 2886 
Q 3006 2619 2597 2516 
z
" transform="scale(0.015625)"/>
      <path id="DejaVuSans-36" d="M 2113 2584 
Q 1688 2584 1439 2293 
Q 1191 2003 1191 1497 
Q 1191 994 1439 701 
Q 1688 409 2113 409 
Q 2538 409 2786 701 
Q 3034 994 3034 1497 
Q 3034 2003 2786 2293 
Q 2538 2584 2113 2584 
z
M 3366 4563 
L 3366 3988 
Q 3128 4100 2886 4159 
Q 2644 4219 2406 4219 
Q 1781 4219 1451 3797 
Q 1122 3375 1075 2522 
Q 1259 2794 1537 2939 
Q 1816 3084 2150 3084 
Q 2853 3084 3261 2657 
Q 3669 2231 3669 1497 
Q 3669 778 3244 343 
Q 2819 -91 2113 -91 
Q 1303 -91 875 529 
Q 447 1150 447 2328 
Q 447 3434 972 4092 
Q 1497 4750 2381 4750 
Q 2619 4750 2861 4703 
Q 3103 4656 3366 4563 
z
" transform="scale(0.015625)"/>
     </defs>
     <use xlink:href="#DejaVuSans-30"/>
     <use xlink:href="#DejaVuSans-2e" x="63.623047"/>
     <use xlink:href="#DejaVuSans-38" x="95.410156"/>
     <use xlink:href="#DejaVuSans-7e" x="159.033203"/>
     <use xlink:href="#DejaVuSans-33" x="242.822266"/>
     <use xlink:href="#DejaVuSans-36" x="306.445312"/>
     <use xlink:href="#DejaVuSans-35" x="370.068359"/>
    </g>
   </g>
  </g>
  <g id="axes_3">
   <g id="patch_8">
    <path d="M 808.240504 201.042 
L 1100.609573 201.042 
L 1100.609573 81.456 
L 808.240504 81.456 
z
" style="fill: #eaeaf2"/>
   </g>
   <g id="matplotlib.axis_5">
    <g id="xtick_9">
     <g id="line2d_25">
      <path d="M 821.530007 201.042 
L 821.530007 81.456 
" clip-path="url(#p9940dd1d76)" style="fill: none; stroke: #ffffff; stroke-linecap: round"/>
     </g>
    </g>
    <g id="xtick_10">
     <g id="line2d_26">
      <path d="M 912.678863 201.042 
L 912.678863 81.456 
" clip-path="url(#p9940dd1d76)" style="fill: none; stroke: #ffffff; stroke-linecap: round"/>
     </g>
    </g>
    <g id="xtick_11">
     <g id="line2d_27">
      <path d="M 1003.827719 201.042 
L 1003.827719 81.456 
" clip-path="url(#p9940dd1d76)" style="fill: none; stroke: #ffffff; stroke-linecap: round"/>
     </g>
    </g>
    <g id="xtick_12">
     <g id="line2d_28">
      <path d="M 1094.976574 201.042 
L 1094.976574 81.456 
" clip-path="url(#p9940dd1d76)" style="fill: none; stroke: #ffffff; stroke-linecap: round"/>
     </g>
    </g>
   </g>
   <g id="matplotlib.axis_6">
    <g id="ytick_5">
     <g id="line2d_29">
      <path d="M 808.240504 183.62136 
L 1100.609573 183.62136 
" clip-path="url(#p9940dd1d76)" style="fill: none; stroke: #ffffff; stroke-linecap: round"/>
     </g>
    </g>
    <g id="ytick_6">
     <g id="line2d_30">
      <path d="M 808.240504 97.020312 
L 1100.609573 97.020312 
" clip-path="url(#p9940dd1d76)" style="fill: none; stroke: #ffffff; stroke-linecap: round"/>
     </g>
    </g>
   </g>
   <g id="PolyCollection_13"/>
   <g id="PolyCollection_14"/>
   <g id="PolyCollection_15"/>
   <g id="PolyCollection_16"/>
   <g id="PolyCollection_17"/>
   <g id="PolyCollection_18"/>
   <g id="line2d_31">
    <path d="M 821.530007 97.020312 
L 821.894603 184.697157 
L 822.259198 187.717216 
L 822.623794 188.439057 
L 822.988389 188.528782 
L 824.082175 188.153627 
L 826.998939 186.915245 
L 828.45732 185.370798 
L 837.20761 175.856019 
L 845.22871 167.433294 
L 855.437382 157.061282 
L 862.72929 149.914796 
L 872.937962 140.619951 
L 879.136084 135.221354 
L 888.98016 126.951569 
L 898.824237 118.966332 
L 908.668313 111.270792 
L 918.51239 103.849021 
L 920.699962 102.34523 
L 922.522939 101.328028 
L 931.637825 96.662248 
L 933.460802 95.871306 
L 945.492451 92.620232 
L 948.77381 91.988678 
L 955.336527 90.842026 
L 960.805459 89.873463 
L 984.868757 91.686714 
L 1008.567459 92.89117 
L 1019.869917 93.070922 
L 1042.839429 93.18384 
L 1087.32007 93.225213 
L 1087.32007 93.225213 
" clip-path="url(#p9940dd1d76)" style="fill: none; stroke: #4c72b0; stroke-opacity: 0.9; stroke-width: 3; stroke-linecap: round"/>
   </g>
   <g id="line2d_32">
    <path d="M 821.530007 97.020312 
L 821.894603 144.839757 
L 822.259198 146.837849 
L 822.623794 147.493077 
L 822.988389 147.687248 
L 823.71758 147.674709 
L 826.998939 147.024324 
L 828.45732 146.236225 
L 840.488969 139.37406 
L 852.885214 132.560763 
L 864.916863 126.200148 
L 875.49013 120.858674 
L 885.698802 116.155373 
L 899.553428 110.157501 
L 913.408054 104.403129 
L 922.158344 100.954414 
L 925.439703 99.94604 
L 934.554588 97.343716 
L 947.680023 94.810323 
L 955.336527 93.375381 
L 960.440863 92.644662 
L 964.816008 92.866062 
L 974.295489 93.425807 
L 977.941444 93.757593 
L 996.53581 94.051414 
L 1066.173536 94.588254 
L 1087.32007 94.596504 
L 1087.32007 94.596504 
" clip-path="url(#p9940dd1d76)" style="fill: none; stroke: #dd8452; stroke-opacity: 0.9; stroke-width: 3; stroke-linecap: round"/>
   </g>
   <g id="line2d_33">
    <path d="M 821.530007 97.020312 
L 821.894603 188.899311 
L 822.259198 193.815909 
L 822.623794 194.973337 
L 822.988389 195.192169 
L 823.71758 195.014256 
L 826.998939 193.552395 
L 828.45732 191.898296 
L 837.20761 181.716052 
L 845.593305 172.318302 
L 855.437382 161.619198 
L 864.187672 152.432358 
L 873.302557 143.221861 
L 881.323657 135.43015 
L 888.25097 128.978745 
L 895.178283 122.837856 
L 903.199382 116.03937 
L 911.949672 108.913397 
L 919.970771 102.642463 
L 922.158344 101.131168 
L 925.439703 99.105246 
L 929.450252 96.954504 
L 932.367016 95.669359 
L 935.283779 94.59523 
L 944.76326 92.273743 
L 952.055169 90.921548 
L 960.440863 89.585602 
L 963.722222 90.034788 
L 977.212253 92.027937 
L 984.139566 92.683303 
L 990.702283 93.074186 
L 1001.275551 93.474447 
L 1014.03639 93.721411 
L 1031.901566 93.858129 
L 1074.194635 93.904194 
L 1087.32007 93.901165 
L 1087.32007 93.901165 
" clip-path="url(#p9940dd1d76)" style="fill: none; stroke: #55a868; stroke-opacity: 0.9; stroke-width: 3; stroke-linecap: round"/>
   </g>
   <g id="line2d_34">
    <path d="M 821.530007 97.020312 
L 821.894603 169.22959 
L 822.259198 173.178792 
L 822.623794 174.091141 
L 822.988389 174.257049 
L 823.71758 174.112218 
L 826.998939 172.955285 
L 828.45732 171.654485 
L 837.572206 163.293242 
L 847.416282 154.573334 
L 857.260359 146.144582 
L 865.646053 139.248802 
L 874.396344 132.325943 
L 882.417443 126.256336 
L 890.073947 120.727251 
L 898.095046 115.240647 
L 906.845336 109.556381 
L 916.324817 103.663561 
L 921.429153 100.678703 
L 924.345916 99.288086 
L 929.085657 97.320314 
L 932.00242 96.3335 
L 934.919184 95.536067 
L 943.304878 93.80218 
L 954.242741 92.083321 
L 960.076268 91.313075 
L 961.899245 91.479011 
L 973.566298 92.610661 
L 981.587398 93.294002 
L 990.337688 93.743149 
L 1002.733932 94.083217 
L 1017.682345 94.27756 
L 1044.662406 94.363003 
L 1087.32007 94.36708 
L 1087.32007 94.36708 
" clip-path="url(#p9940dd1d76)" style="fill: none; stroke: #c44e52; stroke-opacity: 0.9; stroke-width: 3; stroke-linecap: round"/>
   </g>
   <g id="line2d_35">
    <path d="M 821.530007 97.020312 
L 821.894603 181.195796 
L 822.259198 184.816334 
L 822.623794 185.33516 
L 823.352984 185.21277 
L 826.998939 183.747648 
L 829.186511 181.457401 
L 837.936801 172.356929 
L 847.780878 162.447102 
L 857.624954 152.849906 
L 867.833626 143.209164 
L 876.219321 135.563917 
L 886.427992 126.536975 
L 892.99071 121.046642 
L 903.199382 112.749268 
L 913.408054 104.73679 
L 918.876985 100.641839 
L 922.158344 98.525007 
L 924.710512 97.007265 
L 927.991871 95.3193 
L 933.460802 92.747727 
L 936.742161 91.40264 
L 943.304878 88.903434 
L 945.127856 88.351978 
L 950.961382 87.787763 
L 960.805459 86.940887 
L 962.993031 87.340663 
L 969.920344 88.855874 
L 974.295489 89.465166 
L 977.576848 89.939181 
L 981.951993 90.624939 
L 986.327138 91.06927 
L 997.265001 91.84936 
L 1025.703444 92.995995 
L 1038.828879 93.187575 
L 1063.621368 93.320025 
L 1087.32007 93.35553 
L 1087.32007 93.35553 
" clip-path="url(#p9940dd1d76)" style="fill: none; stroke: #8172b3; stroke-opacity: 0.9; stroke-width: 3; stroke-linecap: round"/>
   </g>
   <g id="line2d_36">
    <path d="M 821.530007 97.020312 
L 821.894603 164.563811 
L 822.259198 167.027827 
L 822.623794 167.423358 
L 823.352984 167.329728 
L 826.998939 166.210532 
L 829.551107 164.11112 
L 839.030588 156.400986 
L 849.239259 148.390697 
L 859.447931 140.648428 
L 870.385794 132.664987 
L 881.323657 124.957617 
L 888.98016 119.797642 
L 899.553428 112.945561 
L 911.220481 105.675557 
L 919.606176 100.665604 
L 922.522939 99.16016 
L 929.085657 96.461889 
L 936.742161 93.633099 
L 942.211092 91.841117 
L 945.127856 91.02409 
L 954.607336 89.709383 
L 960.440863 89.162317 
L 962.993031 89.479639 
L 969.920344 90.301694 
L 976.483062 90.842476 
L 991.066879 91.980749 
L 995.806619 92.516977 
L 1001.275551 92.730046 
L 1027.891016 93.432407 
L 1042.474833 93.60981 
L 1074.55923 93.720627 
L 1087.32007 93.733562 
L 1087.32007 93.733562 
" clip-path="url(#p9940dd1d76)" style="fill: none; stroke: #937860; stroke-opacity: 0.9; stroke-width: 3; stroke-linecap: round"/>
   </g>
   <g id="patch_9">
    <path d="M 808.240504 201.042 
L 808.240504 81.456 
" style="fill: none; stroke: #ffffff; stroke-width: 1.25; stroke-linejoin: miter; stroke-linecap: square"/>
   </g>
   <g id="patch_10">
    <path d="M 808.240504 201.042 
L 1100.609573 201.042 
" style="fill: none; stroke: #ffffff; stroke-width: 1.25; stroke-linejoin: miter; stroke-linecap: square"/>
   </g>
   <g id="text_6">
    <!-- 0.85~90 -->
    <g style="fill: #262626" transform="translate(899.778445 75.456) scale(0.252 -0.252)">
     <use xlink:href="#DejaVuSans-30"/>
     <use xlink:href="#DejaVuSans-2e" x="63.623047"/>
     <use xlink:href="#DejaVuSans-38" x="95.410156"/>
     <use xlink:href="#DejaVuSans-35" x="159.033203"/>
     <use xlink:href="#DejaVuSans-7e" x="222.65625"/>
     <use xlink:href="#DejaVuSans-39" x="306.445312"/>
     <use xlink:href="#DejaVuSans-30" x="370.068359"/>
    </g>
   </g>
  </g>
  <g id="axes_4">
   <g id="patch_11">
    <path d="M 170.340091 373.284 
L 462.70916 373.284 
L 462.70916 253.698 
L 170.340091 253.698 
z
" style="fill: #eaeaf2"/>
   </g>
   <g id="matplotlib.axis_7">
    <g id="xtick_13">
     <g id="line2d_37">
      <path d="M 183.629594 373.284 
L 183.629594 253.698 
" clip-path="url(#pd945bf09f9)" style="fill: none; stroke: #ffffff; stroke-linecap: round"/>
     </g>
     <g id="text_7">
      <!-- 0 -->
      <g style="fill: #262626" transform="translate(176.280907 400.336391) scale(0.231 -0.231)">
       <use xlink:href="#DejaVuSans-30"/>
      </g>
     </g>
    </g>
    <g id="xtick_14">
     <g id="line2d_38">
      <path d="M 274.77845 373.284 
L 274.77845 253.698 
" clip-path="url(#pd945bf09f9)" style="fill: none; stroke: #ffffff; stroke-linecap: round"/>
     </g>
     <g id="text_8">
      <!-- 250 -->
      <g style="fill: #262626" transform="translate(252.732387 400.336391) scale(0.231 -0.231)">
       <defs>
        <path id="DejaVuSans-32" d="M 1228 531 
L 3431 531 
L 3431 0 
L 469 0 
L 469 531 
Q 828 903 1448 1529 
Q 2069 2156 2228 2338 
Q 2531 2678 2651 2914 
Q 2772 3150 2772 3378 
Q 2772 3750 2511 3984 
Q 2250 4219 1831 4219 
Q 1534 4219 1204 4116 
Q 875 4013 500 3803 
L 500 4441 
Q 881 4594 1212 4672 
Q 1544 4750 1819 4750 
Q 2544 4750 2975 4387 
Q 3406 4025 3406 3419 
Q 3406 3131 3298 2873 
Q 3191 2616 2906 2266 
Q 2828 2175 2409 1742 
Q 1991 1309 1228 531 
z
" transform="scale(0.015625)"/>
       </defs>
       <use xlink:href="#DejaVuSans-32"/>
       <use xlink:href="#DejaVuSans-35" x="63.623047"/>
       <use xlink:href="#DejaVuSans-30" x="127.246094"/>
      </g>
     </g>
    </g>
    <g id="xtick_15">
     <g id="line2d_39">
      <path d="M 365.927305 373.284 
L 365.927305 253.698 
" clip-path="url(#pd945bf09f9)" style="fill: none; stroke: #ffffff; stroke-linecap: round"/>
     </g>
     <g id="text_9">
      <!-- 500 -->
      <g style="fill: #262626" transform="translate(343.881243 400.336391) scale(0.231 -0.231)">
       <use xlink:href="#DejaVuSans-35"/>
       <use xlink:href="#DejaVuSans-30" x="63.623047"/>
       <use xlink:href="#DejaVuSans-30" x="127.246094"/>
      </g>
     </g>
    </g>
    <g id="xtick_16">
     <g id="line2d_40">
      <path d="M 457.076161 373.284 
L 457.076161 253.698 
" clip-path="url(#pd945bf09f9)" style="fill: none; stroke: #ffffff; stroke-linecap: round"/>
     </g>
     <g id="text_10">
      <!-- 750 -->
      <g style="fill: #262626" transform="translate(435.030099 400.336391) scale(0.231 -0.231)">
       <defs>
        <path id="DejaVuSans-37" d="M 525 4666 
L 3525 4666 
L 3525 4397 
L 1831 0 
L 1172 0 
L 2766 4134 
L 525 4134 
L 525 4666 
z
" transform="scale(0.015625)"/>
       </defs>
       <use xlink:href="#DejaVuSans-37"/>
       <use xlink:href="#DejaVuSans-35" x="63.623047"/>
       <use xlink:href="#DejaVuSans-30" x="127.246094"/>
      </g>
     </g>
    </g>
    <g id="text_11">
     <!-- step -->
     <g style="fill: #262626" transform="translate(289.269251 428.288531) scale(0.252 -0.252)">
      <defs>
       <path id="DejaVuSans-73" d="M 2834 3397 
L 2834 2853 
Q 2591 2978 2328 3040 
Q 2066 3103 1784 3103 
Q 1356 3103 1142 2972 
Q 928 2841 928 2578 
Q 928 2378 1081 2264 
Q 1234 2150 1697 2047 
L 1894 2003 
Q 2506 1872 2764 1633 
Q 3022 1394 3022 966 
Q 3022 478 2636 193 
Q 2250 -91 1575 -91 
Q 1294 -91 989 -36 
Q 684 19 347 128 
L 347 722 
Q 666 556 975 473 
Q 1284 391 1588 391 
Q 1994 391 2212 530 
Q 2431 669 2431 922 
Q 2431 1156 2273 1281 
Q 2116 1406 1581 1522 
L 1381 1569 
Q 847 1681 609 1914 
Q 372 2147 372 2553 
Q 372 3047 722 3315 
Q 1072 3584 1716 3584 
Q 2034 3584 2315 3537 
Q 2597 3491 2834 3397 
z
" transform="scale(0.015625)"/>
       <path id="DejaVuSans-74" d="M 1172 4494 
L 1172 3500 
L 2356 3500 
L 2356 3053 
L 1172 3053 
L 1172 1153 
Q 1172 725 1289 603 
Q 1406 481 1766 481 
L 2356 481 
L 2356 0 
L 1766 0 
Q 1100 0 847 248 
Q 594 497 594 1153 
L 594 3053 
L 172 3053 
L 172 3500 
L 594 3500 
L 594 4494 
L 1172 4494 
z
" transform="scale(0.015625)"/>
       <path id="DejaVuSans-70" d="M 1159 525 
L 1159 -1331 
L 581 -1331 
L 581 3500 
L 1159 3500 
L 1159 2969 
Q 1341 3281 1617 3432 
Q 1894 3584 2278 3584 
Q 2916 3584 3314 3078 
Q 3713 2572 3713 1747 
Q 3713 922 3314 415 
Q 2916 -91 2278 -91 
Q 1894 -91 1617 61 
Q 1341 213 1159 525 
z
M 3116 1747 
Q 3116 2381 2855 2742 
Q 2594 3103 2138 3103 
Q 1681 3103 1420 2742 
Q 1159 2381 1159 1747 
Q 1159 1113 1420 752 
Q 1681 391 2138 391 
Q 2594 391 2855 752 
Q 3116 1113 3116 1747 
z
" transform="scale(0.015625)"/>
      </defs>
      <use xlink:href="#DejaVuSans-73"/>
      <use xlink:href="#DejaVuSans-74" x="52.099609"/>
      <use xlink:href="#DejaVuSans-65" x="91.308594"/>
      <use xlink:href="#DejaVuSans-70" x="152.832031"/>
     </g>
    </g>
   </g>
   <g id="matplotlib.axis_8">
    <g id="ytick_7">
     <g id="line2d_41">
      <path d="M 170.340091 355.86336 
L 462.70916 355.86336 
" clip-path="url(#pd945bf09f9)" style="fill: none; stroke: #ffffff; stroke-linecap: round"/>
     </g>
     <g id="text_12">
      <!-- −0.5 -->
      <g style="fill: #262626" transform="translate(104.746794 364.639555) scale(0.231 -0.231)">
       <use xlink:href="#DejaVuSans-2212"/>
       <use xlink:href="#DejaVuSans-30" x="83.789062"/>
       <use xlink:href="#DejaVuSans-2e" x="147.412109"/>
       <use xlink:href="#DejaVuSans-35" x="179.199219"/>
      </g>
     </g>
    </g>
    <g id="ytick_8">
     <g id="line2d_42">
      <path d="M 170.340091 269.262312 
L 462.70916 269.262312 
" clip-path="url(#pd945bf09f9)" style="fill: none; stroke: #ffffff; stroke-linecap: round"/>
     </g>
     <g id="text_13">
      <!-- 0.0 -->
      <g style="fill: #262626" transform="translate(124.103872 278.038508) scale(0.231 -0.231)">
       <use xlink:href="#DejaVuSans-30"/>
       <use xlink:href="#DejaVuSans-2e" x="63.623047"/>
       <use xlink:href="#DejaVuSans-30" x="95.410156"/>
      </g>
     </g>
    </g>
    <g id="text_14">
     <!-- % change -->
     <g style="fill: #262626" transform="translate(95.505982 375.839344) rotate(-90) scale(0.252 -0.252)">
      <use xlink:href="#DejaVuSans-25"/>
      <use xlink:href="#DejaVuSans-20" x="95.019531"/>
      <use xlink:href="#DejaVuSans-63" x="126.806641"/>
      <use xlink:href="#DejaVuSans-68" x="181.787109"/>
      <use xlink:href="#DejaVuSans-61" x="245.166016"/>
      <use xlink:href="#DejaVuSans-6e" x="306.445312"/>
      <use xlink:href="#DejaVuSans-67" x="369.824219"/>
      <use xlink:href="#DejaVuSans-65" x="433.300781"/>
     </g>
    </g>
   </g>
   <g id="PolyCollection_19"/>
   <g id="PolyCollection_20"/>
   <g id="PolyCollection_21"/>
   <g id="PolyCollection_22"/>
   <g id="PolyCollection_23"/>
   <g id="PolyCollection_24"/>
   <g id="line2d_43">
    <path d="M 183.629594 269.262312 
L 183.99419 356.939157 
L 184.358785 360.056249 
L 184.723381 360.890616 
L 185.087976 361.096849 
L 185.817167 361.10719 
L 189.098526 360.76378 
L 190.192312 359.965521 
L 218.99535 337.217463 
L 239.412694 321.367371 
L 257.642465 307.487241 
L 273.684664 295.524873 
L 287.174694 285.968308 
L 306.498252 272.643092 
L 310.508801 270.022097 
L 315.977733 267.457833 
L 322.175855 264.66719 
L 325.457214 264.680418 
L 339.31184 264.992928 
L 352.437275 266.522056 
L 360.093779 267.069648 
L 367.750283 267.391478 
L 380.511122 267.672897 
L 412.230924 268.038797 
L 449.419657 268.171157 
L 449.419657 268.171157 
" clip-path="url(#pd945bf09f9)" style="fill: none; stroke: #4c72b0; stroke-opacity: 0.9; stroke-width: 3; stroke-linecap: round"/>
   </g>
   <g id="line2d_44">
    <path d="M 183.629594 269.262312 
L 183.99419 317.081757 
L 184.358785 319.124693 
L 184.723381 319.832475 
L 185.087976 320.08185 
L 185.817167 320.18172 
L 189.098526 320.034086 
L 190.556907 319.465752 
L 230.297808 302.388515 
L 256.548679 291.352839 
L 280.611977 281.48493 
L 289.726862 277.910348 
L 311.237992 269.922395 
L 313.79016 269.206647 
L 322.175855 267.011807 
L 326.915595 267.021608 
L 344.05158 267.178123 
L 359.729183 267.834971 
L 371.031641 268.119567 
L 399.83468 268.478658 
L 434.106649 268.553919 
L 449.419657 268.570858 
L 449.419657 268.570858 
" clip-path="url(#pd945bf09f9)" style="fill: none; stroke: #dd8452; stroke-opacity: 0.9; stroke-width: 3; stroke-linecap: round"/>
   </g>
   <g id="line2d_45">
    <path d="M 183.629594 269.262312 
L 183.99419 361.141311 
L 184.358785 366.158546 
L 184.723381 367.433454 
L 185.087976 367.774116 
L 185.817167 367.841865 
L 189.098526 367.473321 
L 190.192312 366.610021 
L 214.984801 345.535389 
L 238.683503 325.742991 
L 252.538129 314.407376 
L 276.236832 295.299522 
L 290.456053 284.227691 
L 298.112557 278.489294 
L 308.685824 270.892449 
L 311.967183 268.935834 
L 316.342328 266.514812 
L 320.717473 264.325683 
L 322.175855 263.648384 
L 323.998832 263.725723 
L 328.009382 264.098272 
L 340.770221 265.629949 
L 349.885107 266.434714 
L 359.364588 267.054405 
L 370.302451 267.527763 
L 389.626008 268.172028 
L 408.220374 268.358899 
L 438.117199 268.444607 
L 449.419657 268.454 
L 449.419657 268.454 
" clip-path="url(#pd945bf09f9)" style="fill: none; stroke: #55a868; stroke-opacity: 0.9; stroke-width: 3; stroke-linecap: round"/>
   </g>
   <g id="line2d_46">
    <path d="M 183.629594 269.262312 
L 183.99419 341.47159 
L 184.358785 345.500457 
L 184.723381 346.506215 
L 185.087976 346.768971 
L 185.817167 346.819657 
L 189.098526 346.534353 
L 190.556907 345.615803 
L 216.443182 328.315929 
L 238.318908 313.944458 
L 281.705763 286.354217 
L 294.466603 278.673857 
L 303.946084 273.247511 
L 309.77961 270.087598 
L 317.436114 266.737987 
L 322.175855 264.983497 
L 324.363427 265.077859 
L 332.749122 265.865226 
L 340.770221 266.539764 
L 350.249702 267.10656 
L 360.82297 267.520094 
L 394.365748 268.397427 
L 416.970665 268.534637 
L 449.419657 268.577383 
L 449.419657 268.577383 
" clip-path="url(#pd945bf09f9)" style="fill: none; stroke: #c44e52; stroke-opacity: 0.9; stroke-width: 3; stroke-linecap: round"/>
   </g>
   <g id="line2d_47">
    <path d="M 183.629594 269.262312 
L 183.99419 353.437796 
L 184.358785 357.161803 
L 184.723381 357.791439 
L 185.452571 357.892873 
L 189.098526 357.534235 
L 190.921503 356.171966 
L 212.432633 339.813825 
L 237.225121 321.229416 
L 260.194633 304.282899 
L 279.882786 290.025423 
L 295.560389 278.951042 
L 308.685824 270.059448 
L 311.602588 268.382169 
L 317.071519 265.619349 
L 322.175855 263.56216 
L 324.363427 263.631665 
L 354.624847 264.754615 
L 364.104328 265.124251 
L 370.667046 265.766652 
L 384.886267 266.819399 
L 394.365748 267.158807 
L 421.34581 267.748432 
L 447.961276 267.932287 
L 449.419657 267.939578 
L 449.419657 267.939578 
" clip-path="url(#pd945bf09f9)" style="fill: none; stroke: #8172b3; stroke-opacity: 0.9; stroke-width: 3; stroke-linecap: round"/>
   </g>
   <g id="line2d_48">
    <path d="M 183.629594 269.262312 
L 183.99419 336.805811 
L 184.358785 339.349134 
L 184.723381 339.829361 
L 185.452571 339.906838 
L 189.098526 339.632129 
L 191.286098 338.330287 
L 213.891014 324.719317 
L 239.777289 309.391788 
L 264.205183 295.18419 
L 283.893335 283.975325 
L 298.841748 275.671687 
L 310.144206 269.625353 
L 313.060969 268.338759 
L 315.977733 267.257955 
L 322.175855 265.246417 
L 326.551 265.321149 
L 340.770221 265.673198 
L 364.468924 266.528849 
L 372.125428 266.966631 
L 384.157077 267.399213 
L 400.199275 267.686744 
L 419.158237 267.864741 
L 429.731504 268.026701 
L 440.304772 268.108339 
L 449.419657 268.144611 
L 449.419657 268.144611 
" clip-path="url(#pd945bf09f9)" style="fill: none; stroke: #937860; stroke-opacity: 0.9; stroke-width: 3; stroke-linecap: round"/>
   </g>
   <g id="patch_12">
    <path d="M 170.340091 373.284 
L 170.340091 253.698 
" style="fill: none; stroke: #ffffff; stroke-width: 1.25; stroke-linejoin: miter; stroke-linecap: square"/>
   </g>
   <g id="patch_13">
    <path d="M 170.340091 373.284 
L 462.70916 373.284 
" style="fill: none; stroke: #ffffff; stroke-width: 1.25; stroke-linejoin: miter; stroke-linecap: square"/>
   </g>
   <g id="text_15">
    <!-- 0.85~365 -->
    <g style="fill: #262626" transform="translate(253.861282 247.698) scale(0.252 -0.252)">
     <use xlink:href="#DejaVuSans-30"/>
     <use xlink:href="#DejaVuSans-2e" x="63.623047"/>
     <use xlink:href="#DejaVuSans-38" x="95.410156"/>
     <use xlink:href="#DejaVuSans-35" x="159.033203"/>
     <use xlink:href="#DejaVuSans-7e" x="222.65625"/>
     <use xlink:href="#DejaVuSans-33" x="306.445312"/>
     <use xlink:href="#DejaVuSans-36" x="370.068359"/>
     <use xlink:href="#DejaVuSans-35" x="433.691406"/>
    </g>
   </g>
  </g>
  <g id="axes_5">
   <g id="patch_14">
    <path d="M 489.290298 373.284 
L 781.659367 373.284 
L 781.659367 253.698 
L 489.290298 253.698 
z
" style="fill: #eaeaf2"/>
   </g>
   <g id="matplotlib.axis_9">
    <g id="xtick_17">
     <g id="line2d_49">
      <path d="M 502.579801 373.284 
L 502.579801 253.698 
" clip-path="url(#p1bbbe6adc2)" style="fill: none; stroke: #ffffff; stroke-linecap: round"/>
     </g>
     <g id="text_16">
      <!-- 0 -->
      <g style="fill: #262626" transform="translate(495.231113 400.336391) scale(0.231 -0.231)">
       <use xlink:href="#DejaVuSans-30"/>
      </g>
     </g>
    </g>
    <g id="xtick_18">
     <g id="line2d_50">
      <path d="M 593.728656 373.284 
L 593.728656 253.698 
" clip-path="url(#p1bbbe6adc2)" style="fill: none; stroke: #ffffff; stroke-linecap: round"/>
     </g>
     <g id="text_17">
      <!-- 250 -->
      <g style="fill: #262626" transform="translate(571.682594 400.336391) scale(0.231 -0.231)">
       <use xlink:href="#DejaVuSans-32"/>
       <use xlink:href="#DejaVuSans-35" x="63.623047"/>
       <use xlink:href="#DejaVuSans-30" x="127.246094"/>
      </g>
     </g>
    </g>
    <g id="xtick_19">
     <g id="line2d_51">
      <path d="M 684.877512 373.284 
L 684.877512 253.698 
" clip-path="url(#p1bbbe6adc2)" style="fill: none; stroke: #ffffff; stroke-linecap: round"/>
     </g>
     <g id="text_18">
      <!-- 500 -->
      <g style="fill: #262626" transform="translate(662.83145 400.336391) scale(0.231 -0.231)">
       <use xlink:href="#DejaVuSans-35"/>
       <use xlink:href="#DejaVuSans-30" x="63.623047"/>
       <use xlink:href="#DejaVuSans-30" x="127.246094"/>
      </g>
     </g>
    </g>
    <g id="xtick_20">
     <g id="line2d_52">
      <path d="M 776.026368 373.284 
L 776.026368 253.698 
" clip-path="url(#p1bbbe6adc2)" style="fill: none; stroke: #ffffff; stroke-linecap: round"/>
     </g>
     <g id="text_19">
      <!-- 750 -->
      <g style="fill: #262626" transform="translate(753.980305 400.336391) scale(0.231 -0.231)">
       <use xlink:href="#DejaVuSans-37"/>
       <use xlink:href="#DejaVuSans-35" x="63.623047"/>
       <use xlink:href="#DejaVuSans-30" x="127.246094"/>
      </g>
     </g>
    </g>
    <g id="text_20">
     <!-- step -->
     <g style="fill: #262626" transform="translate(608.219457 428.288531) scale(0.252 -0.252)">
      <use xlink:href="#DejaVuSans-73"/>
      <use xlink:href="#DejaVuSans-74" x="52.099609"/>
      <use xlink:href="#DejaVuSans-65" x="91.308594"/>
      <use xlink:href="#DejaVuSans-70" x="152.832031"/>
     </g>
    </g>
   </g>
   <g id="matplotlib.axis_10">
    <g id="ytick_9">
     <g id="line2d_53">
      <path d="M 489.290298 355.86336 
L 781.659367 355.86336 
" clip-path="url(#p1bbbe6adc2)" style="fill: none; stroke: #ffffff; stroke-linecap: round"/>
     </g>
    </g>
    <g id="ytick_10">
     <g id="line2d_54">
      <path d="M 489.290298 269.262312 
L 781.659367 269.262312 
" clip-path="url(#p1bbbe6adc2)" style="fill: none; stroke: #ffffff; stroke-linecap: round"/>
     </g>
    </g>
   </g>
   <g id="PolyCollection_25"/>
   <g id="PolyCollection_26"/>
   <g id="PolyCollection_27"/>
   <g id="PolyCollection_28"/>
   <g id="PolyCollection_29"/>
   <g id="PolyCollection_30"/>
   <g id="line2d_55">
    <path d="M 502.579801 269.262312 
L 502.944396 356.939157 
L 503.308992 359.959216 
L 503.673587 360.681057 
L 504.038182 360.770782 
L 505.131969 360.395627 
L 508.048732 359.157245 
L 509.507114 357.612798 
L 518.257404 348.098019 
L 526.278503 339.675294 
L 536.487175 329.303282 
L 543.779084 322.156796 
L 553.987755 312.861951 
L 560.185878 307.463354 
L 570.029954 299.193569 
L 579.87403 291.208332 
L 589.718107 283.512792 
L 599.562183 276.091021 
L 601.749756 274.58723 
L 603.572733 273.570028 
L 612.687618 268.904248 
L 614.510595 268.113306 
L 626.542244 264.862232 
L 629.823603 264.230678 
L 636.386321 263.084026 
L 641.855252 262.115463 
L 665.91855 263.928714 
L 689.617253 265.13317 
L 700.919711 265.312922 
L 723.889222 265.42584 
L 768.369864 265.467213 
L 768.369864 265.467213 
" clip-path="url(#p1bbbe6adc2)" style="fill: none; stroke: #4c72b0; stroke-opacity: 0.9; stroke-width: 3; stroke-linecap: round"/>
   </g>
   <g id="line2d_56">
    <path d="M 502.579801 269.262312 
L 502.944396 317.081757 
L 503.308992 319.079849 
L 503.673587 319.735077 
L 504.038182 319.929248 
L 504.767373 319.916709 
L 508.048732 319.266324 
L 509.507114 318.478225 
L 521.538763 311.61606 
L 533.935007 304.802763 
L 545.966656 298.442148 
L 556.539923 293.100674 
L 566.748595 288.397373 
L 580.603221 282.399501 
L 594.457847 276.645129 
L 603.208137 273.196414 
L 606.489496 272.18804 
L 615.604382 269.585716 
L 628.729817 267.052323 
L 636.386321 265.617381 
L 641.490657 264.886662 
L 645.865802 265.108062 
L 655.345283 265.667807 
L 658.991237 265.999593 
L 677.585604 266.293414 
L 747.223329 266.830254 
L 768.369864 266.838504 
L 768.369864 266.838504 
" clip-path="url(#p1bbbe6adc2)" style="fill: none; stroke: #dd8452; stroke-opacity: 0.9; stroke-width: 3; stroke-linecap: round"/>
   </g>
   <g id="line2d_57">
    <path d="M 502.579801 269.262312 
L 502.944396 361.141311 
L 503.308992 366.057909 
L 503.673587 367.215337 
L 504.038182 367.434169 
L 504.767373 367.256256 
L 508.048732 365.794395 
L 509.507114 364.140296 
L 518.257404 353.958052 
L 526.643099 344.560302 
L 532.476625 338.292623 
L 536.85177 333.922969 
L 540.133129 330.864611 
L 545.237465 326.450992 
L 564.561023 310.396403 
L 577.686458 299.119602 
L 590.811893 288.896253 
L 602.478947 279.992956 
L 606.489496 277.440258 
L 610.864641 274.943024 
L 613.781405 273.506661 
L 616.698168 272.253074 
L 623.260886 269.916224 
L 630.552794 267.304538 
L 639.66768 264.281838 
L 641.490657 263.75078 
L 647.324183 263.152785 
L 654.616092 262.577297 
L 656.803664 262.594368 
L 660.085023 262.915103 
L 667.741527 263.864018 
L 673.575054 264.358591 
L 681.231558 264.78815 
L 692.16942 265.1936 
L 706.024047 265.430926 
L 728.993558 265.547794 
L 768.369864 265.575279 
L 768.369864 265.575279 
" clip-path="url(#p1bbbe6adc2)" style="fill: none; stroke: #55a868; stroke-opacity: 0.9; stroke-width: 3; stroke-linecap: round"/>
   </g>
   <g id="line2d_58">
    <path d="M 502.579801 269.262312 
L 502.944396 341.47159 
L 503.308992 345.420792 
L 503.673587 346.333141 
L 504.038182 346.499049 
L 504.767373 346.354218 
L 508.048732 345.197285 
L 509.507114 343.896485 
L 518.621999 335.535242 
L 528.10148 327.150176 
L 531.747435 324.239457 
L 541.226916 316.908503 
L 547.425038 312.684589 
L 560.550473 303.973092 
L 577.686458 292.412886 
L 591.176488 284.011662 
L 602.114351 277.379093 
L 605.39571 275.714561 
L 610.864641 273.156995 
L 614.875191 271.564031 
L 617.427359 270.720952 
L 637.844703 264.194664 
L 641.126061 263.314929 
L 642.584443 263.218832 
L 647.324183 263.185528 
L 650.605542 263.437295 
L 662.637191 264.786089 
L 669.9291 265.272061 
L 677.950199 265.605918 
L 691.804825 265.947129 
L 707.482428 266.099333 
L 741.754398 266.160848 
L 768.369864 266.159736 
L 768.369864 266.159736 
" clip-path="url(#p1bbbe6adc2)" style="fill: none; stroke: #c44e52; stroke-opacity: 0.9; stroke-width: 3; stroke-linecap: round"/>
   </g>
   <g id="line2d_59">
    <path d="M 502.579801 269.262312 
L 502.944396 353.437796 
L 503.308992 357.058334 
L 503.673587 357.57716 
L 504.402778 357.45477 
L 508.048732 355.989648 
L 510.236305 353.699401 
L 518.986595 344.598929 
L 528.830671 334.689102 
L 538.674748 325.091906 
L 548.883419 315.451164 
L 557.269114 307.805917 
L 567.477786 298.778975 
L 574.040504 293.288642 
L 584.249175 284.991268 
L 594.457847 276.97879 
L 599.926779 272.883839 
L 603.208137 270.767007 
L 605.760305 269.249265 
L 609.041664 267.5613 
L 614.510595 264.989727 
L 617.791954 263.64464 
L 624.354672 261.145434 
L 626.177649 260.593978 
L 632.011176 260.029763 
L 641.855252 259.182887 
L 644.042825 259.582663 
L 650.970138 261.097874 
L 655.345283 261.707166 
L 658.626642 262.181181 
L 663.001787 262.866939 
L 667.376932 263.31127 
L 678.314794 264.09136 
L 706.753237 265.237995 
L 719.878673 265.429575 
L 744.671161 265.562025 
L 768.369864 265.59753 
L 768.369864 265.59753 
" clip-path="url(#p1bbbe6adc2)" style="fill: none; stroke: #8172b3; stroke-opacity: 0.9; stroke-width: 3; stroke-linecap: round"/>
   </g>
   <g id="line2d_60">
    <path d="M 502.579801 269.262312 
L 502.944396 336.805811 
L 503.308992 339.269827 
L 503.673587 339.665358 
L 504.402778 339.571728 
L 508.048732 338.452532 
L 510.6009 336.35312 
L 520.080381 328.642986 
L 530.289053 320.632697 
L 540.497725 312.890428 
L 551.435587 304.906987 
L 562.37345 297.199617 
L 570.029954 292.039642 
L 580.603221 285.187561 
L 592.270275 277.917557 
L 600.655969 272.907604 
L 603.572733 271.40216 
L 610.13545 268.703889 
L 617.791954 265.875099 
L 623.260886 264.083117 
L 626.177649 263.26609 
L 635.65713 261.951383 
L 641.490657 261.404317 
L 644.042825 261.721639 
L 650.970138 262.543694 
L 657.532855 263.084476 
L 672.116672 264.222749 
L 676.856413 264.758977 
L 682.325344 264.972046 
L 708.94081 265.674407 
L 723.524627 265.85181 
L 755.609024 265.962627 
L 768.369864 265.975562 
L 768.369864 265.975562 
" clip-path="url(#p1bbbe6adc2)" style="fill: none; stroke: #937860; stroke-opacity: 0.9; stroke-width: 3; stroke-linecap: round"/>
   </g>
   <g id="patch_15">
    <path d="M 489.290298 373.284 
L 489.290298 253.698 
" style="fill: none; stroke: #ffffff; stroke-width: 1.25; stroke-linejoin: miter; stroke-linecap: square"/>
   </g>
   <g id="patch_16">
    <path d="M 489.290298 373.284 
L 781.659367 373.284 
" style="fill: none; stroke: #ffffff; stroke-width: 1.25; stroke-linejoin: miter; stroke-linecap: square"/>
   </g>
   <g id="text_21">
    <!-- 0.95~90 -->
    <g style="fill: #262626" transform="translate(580.828239 247.698) scale(0.252 -0.252)">
     <use xlink:href="#DejaVuSans-30"/>
     <use xlink:href="#DejaVuSans-2e" x="63.623047"/>
     <use xlink:href="#DejaVuSans-39" x="95.410156"/>
     <use xlink:href="#DejaVuSans-35" x="159.033203"/>
     <use xlink:href="#DejaVuSans-7e" x="222.65625"/>
     <use xlink:href="#DejaVuSans-39" x="306.445312"/>
     <use xlink:href="#DejaVuSans-30" x="370.068359"/>
    </g>
   </g>
  </g>
  <g id="axes_6">
   <g id="patch_17">
    <path d="M 808.240504 373.284 
L 1100.609573 373.284 
L 1100.609573 253.698 
L 808.240504 253.698 
z
" style="fill: #eaeaf2"/>
   </g>
   <g id="matplotlib.axis_11">
    <g id="xtick_21">
     <g id="line2d_61">
      <path d="M 821.530007 373.284 
L 821.530007 253.698 
" clip-path="url(#pebc12bd956)" style="fill: none; stroke: #ffffff; stroke-linecap: round"/>
     </g>
     <g id="text_22">
      <!-- 0 -->
      <g style="fill: #262626" transform="translate(814.18132 400.336391) scale(0.231 -0.231)">
       <use xlink:href="#DejaVuSans-30"/>
      </g>
     </g>
    </g>
    <g id="xtick_22">
     <g id="line2d_62">
      <path d="M 912.678863 373.284 
L 912.678863 253.698 
" clip-path="url(#pebc12bd956)" style="fill: none; stroke: #ffffff; stroke-linecap: round"/>
     </g>
     <g id="text_23">
      <!-- 250 -->
      <g style="fill: #262626" transform="translate(890.6328 400.336391) scale(0.231 -0.231)">
       <use xlink:href="#DejaVuSans-32"/>
       <use xlink:href="#DejaVuSans-35" x="63.623047"/>
       <use xlink:href="#DejaVuSans-30" x="127.246094"/>
      </g>
     </g>
    </g>
    <g id="xtick_23">
     <g id="line2d_63">
      <path d="M 1003.827719 373.284 
L 1003.827719 253.698 
" clip-path="url(#pebc12bd956)" style="fill: none; stroke: #ffffff; stroke-linecap: round"/>
     </g>
     <g id="text_24">
      <!-- 500 -->
      <g style="fill: #262626" transform="translate(981.781656 400.336391) scale(0.231 -0.231)">
       <use xlink:href="#DejaVuSans-35"/>
       <use xlink:href="#DejaVuSans-30" x="63.623047"/>
       <use xlink:href="#DejaVuSans-30" x="127.246094"/>
      </g>
     </g>
    </g>
    <g id="xtick_24">
     <g id="line2d_64">
      <path d="M 1094.976574 373.284 
L 1094.976574 253.698 
" clip-path="url(#pebc12bd956)" style="fill: none; stroke: #ffffff; stroke-linecap: round"/>
     </g>
     <g id="text_25">
      <!-- 750 -->
      <g style="fill: #262626" transform="translate(1072.930512 400.336391) scale(0.231 -0.231)">
       <use xlink:href="#DejaVuSans-37"/>
       <use xlink:href="#DejaVuSans-35" x="63.623047"/>
       <use xlink:href="#DejaVuSans-30" x="127.246094"/>
      </g>
     </g>
    </g>
    <g id="text_26">
     <!-- step -->
     <g style="fill: #262626" transform="translate(927.169664 428.288531) scale(0.252 -0.252)">
      <use xlink:href="#DejaVuSans-73"/>
      <use xlink:href="#DejaVuSans-74" x="52.099609"/>
      <use xlink:href="#DejaVuSans-65" x="91.308594"/>
      <use xlink:href="#DejaVuSans-70" x="152.832031"/>
     </g>
    </g>
   </g>
   <g id="matplotlib.axis_12">
    <g id="ytick_11">
     <g id="line2d_65">
      <path d="M 808.240504 355.86336 
L 1100.609573 355.86336 
" clip-path="url(#pebc12bd956)" style="fill: none; stroke: #ffffff; stroke-linecap: round"/>
     </g>
    </g>
    <g id="ytick_12">
     <g id="line2d_66">
      <path d="M 808.240504 269.262312 
L 1100.609573 269.262312 
" clip-path="url(#pebc12bd956)" style="fill: none; stroke: #ffffff; stroke-linecap: round"/>
     </g>
    </g>
   </g>
   <g id="PolyCollection_31"/>
   <g id="PolyCollection_32"/>
   <g id="PolyCollection_33"/>
   <g id="PolyCollection_34"/>
   <g id="PolyCollection_35"/>
   <g id="PolyCollection_36"/>
   <g id="line2d_67">
    <path d="M 821.530007 269.262312 
L 821.894603 356.939157 
L 822.259198 360.056249 
L 822.623794 360.890616 
L 822.988389 361.096849 
L 823.71758 361.10719 
L 826.998939 360.76378 
L 828.092725 359.965521 
L 856.895763 337.217463 
L 877.313107 321.367371 
L 895.542878 307.487241 
L 911.585077 295.524873 
L 925.075107 285.968308 
L 944.398665 272.643092 
L 948.409214 270.022097 
L 953.878146 267.457833 
L 960.076268 264.66719 
L 963.357627 264.680418 
L 977.212253 264.992928 
L 990.337688 266.522056 
L 997.994192 267.069648 
L 1005.650696 267.391478 
L 1018.411535 267.672897 
L 1050.131337 268.038797 
L 1087.32007 268.171157 
L 1087.32007 268.171157 
" clip-path="url(#pebc12bd956)" style="fill: none; stroke: #4c72b0; stroke-opacity: 0.9; stroke-width: 3; stroke-linecap: round"/>
   </g>
   <g id="line2d_68">
    <path d="M 821.530007 269.262312 
L 821.894603 317.081757 
L 822.259198 319.124693 
L 822.623794 319.832475 
L 822.988389 320.08185 
L 823.71758 320.18172 
L 826.998939 320.034086 
L 828.45732 319.465752 
L 868.198221 302.388515 
L 894.449092 291.352839 
L 918.51239 281.48493 
L 927.627275 277.910348 
L 949.138405 269.922395 
L 951.690573 269.206647 
L 960.076268 267.011807 
L 964.816008 267.021608 
L 981.951993 267.178123 
L 997.629596 267.834971 
L 1008.932054 268.119567 
L 1037.735093 268.478658 
L 1072.007063 268.553919 
L 1087.32007 268.570858 
L 1087.32007 268.570858 
" clip-path="url(#pebc12bd956)" style="fill: none; stroke: #dd8452; stroke-opacity: 0.9; stroke-width: 3; stroke-linecap: round"/>
   </g>
   <g id="line2d_69">
    <path d="M 821.530007 269.262312 
L 821.894603 361.141311 
L 822.259198 366.158546 
L 822.623794 367.433454 
L 822.988389 367.774116 
L 823.71758 367.841865 
L 826.998939 367.473321 
L 828.092725 366.610021 
L 849.603855 348.328583 
L 856.166572 343.191513 
L 861.635504 339.265469 
L 866.73984 336.099867 
L 871.844176 332.829053 
L 885.698802 323.470218 
L 891.896924 318.945904 
L 903.928573 310.021222 
L 918.876985 299.378148 
L 927.627275 292.87945 
L 943.669474 280.580405 
L 948.044619 277.289196 
L 953.148955 273.855233 
L 958.617886 270.461433 
L 960.076268 269.592381 
L 962.628436 269.083318 
L 967.003581 268.396328 
L 988.879306 265.637631 
L 991.79607 265.753629 
L 1008.202864 266.880534 
L 1027.526421 267.71142 
L 1041.381047 267.976203 
L 1063.985963 268.143088 
L 1087.32007 268.193061 
L 1087.32007 268.193061 
" clip-path="url(#pebc12bd956)" style="fill: none; stroke: #55a868; stroke-opacity: 0.9; stroke-width: 3; stroke-linecap: round"/>
   </g>
   <g id="line2d_70">
    <path d="M 821.530007 269.262312 
L 821.894603 341.47159 
L 822.259198 345.500457 
L 822.623794 346.506215 
L 822.988389 346.768971 
L 823.71758 346.819657 
L 826.998939 346.534353 
L 828.45732 345.615803 
L 847.780878 332.73175 
L 851.426832 330.554206 
L 863.823076 323.365066 
L 876.948512 316.750426 
L 883.146634 313.35708 
L 890.073947 309.335757 
L 905.75155 300.080014 
L 925.075107 288.873215 
L 938.929733 280.515214 
L 948.77381 274.62426 
L 958.253291 269.637911 
L 960.076268 268.754083 
L 962.628436 268.33214 
L 973.201703 266.889667 
L 978.670634 266.260407 
L 981.951993 266.147399 
L 985.962543 266.33231 
L 995.442024 266.880044 
L 1006.744482 267.302769 
L 1020.234513 267.793557 
L 1027.891016 268.019136 
L 1042.474833 268.222971 
L 1070.184085 268.34163 
L 1087.32007 268.361175 
L 1087.32007 268.361175 
" clip-path="url(#pebc12bd956)" style="fill: none; stroke: #c44e52; stroke-opacity: 0.9; stroke-width: 3; stroke-linecap: round"/>
   </g>
   <g id="line2d_71">
    <path d="M 821.530007 269.262312 
L 821.894603 353.437796 
L 822.259198 357.161803 
L 822.623794 357.791439 
L 823.352984 357.892873 
L 826.998939 357.534235 
L 828.821916 356.171966 
L 850.333046 339.813825 
L 875.125534 321.229416 
L 898.095046 304.282899 
L 917.783199 290.025423 
L 933.460802 278.951042 
L 946.586237 270.059448 
L 949.503001 268.382169 
L 954.971932 265.619349 
L 960.076268 263.56216 
L 962.26384 263.631665 
L 992.52526 264.754615 
L 1002.004741 265.124251 
L 1008.567459 265.766652 
L 1022.786681 266.819399 
L 1032.266161 267.158807 
L 1059.246223 267.748432 
L 1085.861689 267.932287 
L 1087.32007 267.939578 
L 1087.32007 267.939578 
" clip-path="url(#pebc12bd956)" style="fill: none; stroke: #8172b3; stroke-opacity: 0.9; stroke-width: 3; stroke-linecap: round"/>
   </g>
   <g id="line2d_72">
    <path d="M 821.530007 269.262312 
L 821.894603 336.805811 
L 822.259198 339.349134 
L 822.623794 339.829361 
L 823.352984 339.906838 
L 826.998939 339.632129 
L 829.186511 338.330287 
L 851.791427 324.719317 
L 877.677702 309.391788 
L 902.105596 295.18419 
L 921.793748 283.975325 
L 936.742161 275.671687 
L 948.044619 269.625353 
L 950.961382 268.338759 
L 953.878146 267.257955 
L 960.076268 265.246417 
L 964.451413 265.321149 
L 978.670634 265.673198 
L 1002.369337 266.528849 
L 1010.025841 266.966631 
L 1022.05749 267.399213 
L 1038.099688 267.686744 
L 1057.05865 267.864741 
L 1067.631917 268.026701 
L 1078.205185 268.108339 
L 1087.32007 268.144611 
L 1087.32007 268.144611 
" clip-path="url(#pebc12bd956)" style="fill: none; stroke: #937860; stroke-opacity: 0.9; stroke-width: 3; stroke-linecap: round"/>
   </g>
   <g id="patch_18">
    <path d="M 808.240504 373.284 
L 808.240504 253.698 
" style="fill: none; stroke: #ffffff; stroke-width: 1.25; stroke-linejoin: miter; stroke-linecap: square"/>
   </g>
   <g id="patch_19">
    <path d="M 808.240504 373.284 
L 1100.609573 373.284 
" style="fill: none; stroke: #ffffff; stroke-width: 1.25; stroke-linejoin: miter; stroke-linecap: square"/>
   </g>
   <g id="text_27">
    <!-- 0.95~365 -->
    <g style="fill: #262626" transform="translate(891.761695 247.698) scale(0.252 -0.252)">
     <use xlink:href="#DejaVuSans-30"/>
     <use xlink:href="#DejaVuSans-2e" x="63.623047"/>
     <use xlink:href="#DejaVuSans-39" x="95.410156"/>
     <use xlink:href="#DejaVuSans-35" x="159.033203"/>
     <use xlink:href="#DejaVuSans-7e" x="222.65625"/>
     <use xlink:href="#DejaVuSans-33" x="306.445312"/>
     <use xlink:href="#DejaVuSans-36" x="370.068359"/>
     <use xlink:href="#DejaVuSans-35" x="433.691406"/>
    </g>
   </g>
  </g>
  <g id="text_28">
   <!-- Production change from pre-shock level -->
   <g style="fill: #262626" transform="translate(280.766836 30.177675) scale(0.3024 -0.3024)">
    <defs>
     <path id="DejaVuSans-50" d="M 1259 4147 
L 1259 2394 
L 2053 2394 
Q 2494 2394 2734 2622 
Q 2975 2850 2975 3272 
Q 2975 3691 2734 3919 
Q 2494 4147 2053 4147 
L 1259 4147 
z
M 628 4666 
L 2053 4666 
Q 2838 4666 3239 4311 
Q 3641 3956 3641 3272 
Q 3641 2581 3239 2228 
Q 2838 1875 2053 1875 
L 1259 1875 
L 1259 0 
L 628 0 
L 628 4666 
z
" transform="scale(0.015625)"/>
     <path id="DejaVuSans-72" d="M 2631 2963 
Q 2534 3019 2420 3045 
Q 2306 3072 2169 3072 
Q 1681 3072 1420 2755 
Q 1159 2438 1159 1844 
L 1159 0 
L 581 0 
L 581 3500 
L 1159 3500 
L 1159 2956 
Q 1341 3275 1631 3429 
Q 1922 3584 2338 3584 
Q 2397 3584 2469 3576 
Q 2541 3569 2628 3553 
L 2631 2963 
z
" transform="scale(0.015625)"/>
     <path id="DejaVuSans-6f" d="M 1959 3097 
Q 1497 3097 1228 2736 
Q 959 2375 959 1747 
Q 959 1119 1226 758 
Q 1494 397 1959 397 
Q 2419 397 2687 759 
Q 2956 1122 2956 1747 
Q 2956 2369 2687 2733 
Q 2419 3097 1959 3097 
z
M 1959 3584 
Q 2709 3584 3137 3096 
Q 3566 2609 3566 1747 
Q 3566 888 3137 398 
Q 2709 -91 1959 -91 
Q 1206 -91 779 398 
Q 353 888 353 1747 
Q 353 2609 779 3096 
Q 1206 3584 1959 3584 
z
" transform="scale(0.015625)"/>
     <path id="DejaVuSans-64" d="M 2906 2969 
L 2906 4863 
L 3481 4863 
L 3481 0 
L 2906 0 
L 2906 525 
Q 2725 213 2448 61 
Q 2172 -91 1784 -91 
Q 1150 -91 751 415 
Q 353 922 353 1747 
Q 353 2572 751 3078 
Q 1150 3584 1784 3584 
Q 2172 3584 2448 3432 
Q 2725 3281 2906 2969 
z
M 947 1747 
Q 947 1113 1208 752 
Q 1469 391 1925 391 
Q 2381 391 2643 752 
Q 2906 1113 2906 1747 
Q 2906 2381 2643 2742 
Q 2381 3103 1925 3103 
Q 1469 3103 1208 2742 
Q 947 2381 947 1747 
z
" transform="scale(0.015625)"/>
     <path id="DejaVuSans-75" d="M 544 1381 
L 544 3500 
L 1119 3500 
L 1119 1403 
Q 1119 906 1312 657 
Q 1506 409 1894 409 
Q 2359 409 2629 706 
Q 2900 1003 2900 1516 
L 2900 3500 
L 3475 3500 
L 3475 0 
L 2900 0 
L 2900 538 
Q 2691 219 2414 64 
Q 2138 -91 1772 -91 
Q 1169 -91 856 284 
Q 544 659 544 1381 
z
M 1991 3584 
L 1991 3584 
z
" transform="scale(0.015625)"/>
     <path id="DejaVuSans-69" d="M 603 3500 
L 1178 3500 
L 1178 0 
L 603 0 
L 603 3500 
z
M 603 4863 
L 1178 4863 
L 1178 4134 
L 603 4134 
L 603 4863 
z
" transform="scale(0.015625)"/>
     <path id="DejaVuSans-66" d="M 2375 4863 
L 2375 4384 
L 1825 4384 
Q 1516 4384 1395 4259 
Q 1275 4134 1275 3809 
L 1275 3500 
L 2222 3500 
L 2222 3053 
L 1275 3053 
L 1275 0 
L 697 0 
L 697 3053 
L 147 3053 
L 147 3500 
L 697 3500 
L 697 3744 
Q 697 4328 969 4595 
Q 1241 4863 1831 4863 
L 2375 4863 
z
" transform="scale(0.015625)"/>
     <path id="DejaVuSans-6d" d="M 3328 2828 
Q 3544 3216 3844 3400 
Q 4144 3584 4550 3584 
Q 5097 3584 5394 3201 
Q 5691 2819 5691 2113 
L 5691 0 
L 5113 0 
L 5113 2094 
Q 5113 2597 4934 2840 
Q 4756 3084 4391 3084 
Q 3944 3084 3684 2787 
Q 3425 2491 3425 1978 
L 3425 0 
L 2847 0 
L 2847 2094 
Q 2847 2600 2669 2842 
Q 2491 3084 2119 3084 
Q 1678 3084 1418 2786 
Q 1159 2488 1159 1978 
L 1159 0 
L 581 0 
L 581 3500 
L 1159 3500 
L 1159 2956 
Q 1356 3278 1631 3431 
Q 1906 3584 2284 3584 
Q 2666 3584 2933 3390 
Q 3200 3197 3328 2828 
z
" transform="scale(0.015625)"/>
     <path id="DejaVuSans-2d" d="M 313 2009 
L 1997 2009 
L 1997 1497 
L 313 1497 
L 313 2009 
z
" transform="scale(0.015625)"/>
     <path id="DejaVuSans-6b" d="M 581 4863 
L 1159 4863 
L 1159 1991 
L 2875 3500 
L 3609 3500 
L 1753 1863 
L 3688 0 
L 2938 0 
L 1159 1709 
L 1159 0 
L 581 0 
L 581 4863 
z
" transform="scale(0.015625)"/>
     <path id="DejaVuSans-6c" d="M 603 4863 
L 1178 4863 
L 1178 0 
L 603 0 
L 603 4863 
z
" transform="scale(0.015625)"/>
     <path id="DejaVuSans-76" d="M 191 3500 
L 800 3500 
L 1894 563 
L 2988 3500 
L 3597 3500 
L 2284 0 
L 1503 0 
L 191 3500 
z
" transform="scale(0.015625)"/>
    </defs>
    <use xlink:href="#DejaVuSans-50"/>
    <use xlink:href="#DejaVuSans-72" x="58.552734"/>
    <use xlink:href="#DejaVuSans-6f" x="97.416016"/>
    <use xlink:href="#DejaVuSans-64" x="158.597656"/>
    <use xlink:href="#DejaVuSans-75" x="222.074219"/>
    <use xlink:href="#DejaVuSans-63" x="285.453125"/>
    <use xlink:href="#DejaVuSans-74" x="340.433594"/>
    <use xlink:href="#DejaVuSans-69" x="379.642578"/>
    <use xlink:href="#DejaVuSans-6f" x="407.425781"/>
    <use xlink:href="#DejaVuSans-6e" x="468.607422"/>
    <use xlink:href="#DejaVuSans-20" x="531.986328"/>
    <use xlink:href="#DejaVuSans-63" x="563.773438"/>
    <use xlink:href="#DejaVuSans-68" x="618.753906"/>
    <use xlink:href="#DejaVuSans-61" x="682.132812"/>
    <use xlink:href="#DejaVuSans-6e" x="743.412109"/>
    <use xlink:href="#DejaVuSans-67" x="806.791016"/>
    <use xlink:href="#DejaVuSans-65" x="870.267578"/>
    <use xlink:href="#DejaVuSans-20" x="931.791016"/>
    <use xlink:href="#DejaVuSans-66" x="963.578125"/>
    <use xlink:href="#DejaVuSans-72" x="998.783203"/>
    <use xlink:href="#DejaVuSans-6f" x="1037.646484"/>
    <use xlink:href="#DejaVuSans-6d" x="1098.828125"/>
    <use xlink:href="#DejaVuSans-20" x="1196.240234"/>
    <use xlink:href="#DejaVuSans-70" x="1228.027344"/>
    <use xlink:href="#DejaVuSans-72" x="1291.503906"/>
    <use xlink:href="#DejaVuSans-65" x="1330.367188"/>
    <use xlink:href="#DejaVuSans-2d" x="1391.890625"/>
    <use xlink:href="#DejaVuSans-73" x="1427.974609"/>
    <use xlink:href="#DejaVuSans-68" x="1480.074219"/>
    <use xlink:href="#DejaVuSans-6f" x="1543.453125"/>
    <use xlink:href="#DejaVuSans-63" x="1604.634766"/>
    <use xlink:href="#DejaVuSans-6b" x="1659.615234"/>
    <use xlink:href="#DejaVuSans-20" x="1717.525391"/>
    <use xlink:href="#DejaVuSans-6c" x="1749.3125"/>
    <use xlink:href="#DejaVuSans-65" x="1777.095703"/>
    <use xlink:href="#DejaVuSans-76" x="1838.619141"/>
    <use xlink:href="#DejaVuSans-65" x="1897.798828"/>
    <use xlink:href="#DejaVuSans-6c" x="1959.322266"/>
   </g>
  </g>
  <g id="legend_1">
   <g id="patch_20">
    <path d="M 11.82 584.31675 
L 1292.617547 584.31675 
Q 1297.237547 584.31675 1297.237547 579.69675 
L 1297.237547 476.97 
Q 1297.237547 472.35 1292.617547 472.35 
L 11.82 472.35 
Q 7.2 472.35 7.2 476.97 
L 7.2 579.69675 
Q 7.2 584.31675 11.82 584.31675 
z
" style="fill: #eaeaf2; opacity: 0.8; stroke: #cccccc; stroke-linejoin: miter"/>
   </g>
   <g id="text_29">
    <!-- Experiences -->
    <g style="fill: #262626" transform="translate(575.384367 500.738062) scale(0.252 -0.252)">
     <defs>
      <path id="DejaVuSans-45" d="M 628 4666 
L 3578 4666 
L 3578 4134 
L 1259 4134 
L 1259 2753 
L 3481 2753 
L 3481 2222 
L 1259 2222 
L 1259 531 
L 3634 531 
L 3634 0 
L 628 0 
L 628 4666 
z
" transform="scale(0.015625)"/>
      <path id="DejaVuSans-78" d="M 3513 3500 
L 2247 1797 
L 3578 0 
L 2900 0 
L 1881 1375 
L 863 0 
L 184 0 
L 1544 1831 
L 300 3500 
L 978 3500 
L 1906 2253 
L 2834 3500 
L 3513 3500 
z
" transform="scale(0.015625)"/>
     </defs>
     <use xlink:href="#DejaVuSans-45"/>
     <use xlink:href="#DejaVuSans-78" x="63.183594"/>
     <use xlink:href="#DejaVuSans-70" x="122.363281"/>
     <use xlink:href="#DejaVuSans-65" x="185.839844"/>
     <use xlink:href="#DejaVuSans-72" x="247.363281"/>
     <use xlink:href="#DejaVuSans-69" x="288.476562"/>
     <use xlink:href="#DejaVuSans-65" x="316.259766"/>
     <use xlink:href="#DejaVuSans-6e" x="377.783203"/>
     <use xlink:href="#DejaVuSans-63" x="441.162109"/>
     <use xlink:href="#DejaVuSans-65" x="496.142578"/>
     <use xlink:href="#DejaVuSans-73" x="557.666016"/>
    </g>
   </g>
   <g id="line2d_73">
    <path d="M 16.44 526.996266 
L 39.54 526.996266 
L 62.64 526.996266 
" style="fill: none; stroke: #4c72b0; stroke-opacity: 0.9; stroke-width: 3; stroke-linecap: round"/>
   </g>
   <g id="text_30">
    <!-- eora26_full_2000 -->
    <g style="fill: #262626" transform="translate(81.12 535.081266) scale(0.231 -0.231)">
     <defs>
      <path id="DejaVuSans-5f" d="M 3263 -1063 
L 3263 -1509 
L -63 -1509 
L -63 -1063 
L 3263 -1063 
z
" transform="scale(0.015625)"/>
     </defs>
     <use xlink:href="#DejaVuSans-65"/>
     <use xlink:href="#DejaVuSans-6f" x="61.523438"/>
     <use xlink:href="#DejaVuSans-72" x="122.705078"/>
     <use xlink:href="#DejaVuSans-61" x="163.818359"/>
     <use xlink:href="#DejaVuSans-32" x="225.097656"/>
     <use xlink:href="#DejaVuSans-36" x="288.720703"/>
     <use xlink:href="#DejaVuSans-5f" x="352.34375"/>
     <use xlink:href="#DejaVuSans-66" x="402.34375"/>
     <use xlink:href="#DejaVuSans-75" x="437.548828"/>
     <use xlink:href="#DejaVuSans-6c" x="500.927734"/>
     <use xlink:href="#DejaVuSans-6c" x="528.710938"/>
     <use xlink:href="#DejaVuSans-5f" x="556.494141"/>
     <use xlink:href="#DejaVuSans-32" x="606.494141"/>
     <use xlink:href="#DejaVuSans-30" x="670.117188"/>
     <use xlink:href="#DejaVuSans-30" x="733.740234"/>
     <use xlink:href="#DejaVuSans-30" x="797.363281"/>
    </g>
   </g>
   <g id="line2d_74">
    <path d="M 16.44 561.545203 
L 39.54 561.545203 
L 62.64 561.545203 
" style="fill: none; stroke: #dd8452; stroke-opacity: 0.9; stroke-width: 3; stroke-linecap: round"/>
   </g>
   <g id="text_31">
    <!-- eora26_full_2010 -->
    <g style="fill: #262626" transform="translate(81.12 569.630203) scale(0.231 -0.231)">
     <defs>
      <path id="DejaVuSans-31" d="M 794 531 
L 1825 531 
L 1825 4091 
L 703 3866 
L 703 4441 
L 1819 4666 
L 2450 4666 
L 2450 531 
L 3481 531 
L 3481 0 
L 794 0 
L 794 531 
z
" transform="scale(0.015625)"/>
     </defs>
     <use xlink:href="#DejaVuSans-65"/>
     <use xlink:href="#DejaVuSans-6f" x="61.523438"/>
     <use xlink:href="#DejaVuSans-72" x="122.705078"/>
     <use xlink:href="#DejaVuSans-61" x="163.818359"/>
     <use xlink:href="#DejaVuSans-32" x="225.097656"/>
     <use xlink:href="#DejaVuSans-36" x="288.720703"/>
     <use xlink:href="#DejaVuSans-5f" x="352.34375"/>
     <use xlink:href="#DejaVuSans-66" x="402.34375"/>
     <use xlink:href="#DejaVuSans-75" x="437.548828"/>
     <use xlink:href="#DejaVuSans-6c" x="500.927734"/>
     <use xlink:href="#DejaVuSans-6c" x="528.710938"/>
     <use xlink:href="#DejaVuSans-5f" x="556.494141"/>
     <use xlink:href="#DejaVuSans-32" x="606.494141"/>
     <use xlink:href="#DejaVuSans-30" x="670.117188"/>
     <use xlink:href="#DejaVuSans-31" x="733.740234"/>
     <use xlink:href="#DejaVuSans-30" x="797.363281"/>
    </g>
   </g>
   <g id="line2d_75">
    <path d="M 326.211 526.996266 
L 349.311 526.996266 
L 372.411 526.996266 
" style="fill: none; stroke: #55a868; stroke-opacity: 0.9; stroke-width: 3; stroke-linecap: round"/>
   </g>
   <g id="text_32">
    <!-- euregio_full_2000 -->
    <g style="fill: #262626" transform="translate(390.891 535.081266) scale(0.231 -0.231)">
     <use xlink:href="#DejaVuSans-65"/>
     <use xlink:href="#DejaVuSans-75" x="61.523438"/>
     <use xlink:href="#DejaVuSans-72" x="124.902344"/>
     <use xlink:href="#DejaVuSans-65" x="163.765625"/>
     <use xlink:href="#DejaVuSans-67" x="225.289062"/>
     <use xlink:href="#DejaVuSans-69" x="288.765625"/>
     <use xlink:href="#DejaVuSans-6f" x="316.548828"/>
     <use xlink:href="#DejaVuSans-5f" x="377.730469"/>
     <use xlink:href="#DejaVuSans-66" x="427.730469"/>
     <use xlink:href="#DejaVuSans-75" x="462.935547"/>
     <use xlink:href="#DejaVuSans-6c" x="526.314453"/>
     <use xlink:href="#DejaVuSans-6c" x="554.097656"/>
     <use xlink:href="#DejaVuSans-5f" x="581.880859"/>
     <use xlink:href="#DejaVuSans-32" x="631.880859"/>
     <use xlink:href="#DejaVuSans-30" x="695.503906"/>
     <use xlink:href="#DejaVuSans-30" x="759.126953"/>
     <use xlink:href="#DejaVuSans-30" x="822.75"/>
    </g>
   </g>
   <g id="line2d_76">
    <path d="M 326.211 561.545203 
L 349.311 561.545203 
L 372.411 561.545203 
" style="fill: none; stroke: #c44e52; stroke-opacity: 0.9; stroke-width: 3; stroke-linecap: round"/>
   </g>
   <g id="text_33">
    <!-- euregio_full_2010 -->
    <g style="fill: #262626" transform="translate(390.891 569.630203) scale(0.231 -0.231)">
     <use xlink:href="#DejaVuSans-65"/>
     <use xlink:href="#DejaVuSans-75" x="61.523438"/>
     <use xlink:href="#DejaVuSans-72" x="124.902344"/>
     <use xlink:href="#DejaVuSans-65" x="163.765625"/>
     <use xlink:href="#DejaVuSans-67" x="225.289062"/>
     <use xlink:href="#DejaVuSans-69" x="288.765625"/>
     <use xlink:href="#DejaVuSans-6f" x="316.548828"/>
     <use xlink:href="#DejaVuSans-5f" x="377.730469"/>
     <use xlink:href="#DejaVuSans-66" x="427.730469"/>
     <use xlink:href="#DejaVuSans-75" x="462.935547"/>
     <use xlink:href="#DejaVuSans-6c" x="526.314453"/>
     <use xlink:href="#DejaVuSans-6c" x="554.097656"/>
     <use xlink:href="#DejaVuSans-5f" x="581.880859"/>
     <use xlink:href="#DejaVuSans-32" x="631.880859"/>
     <use xlink:href="#DejaVuSans-30" x="695.503906"/>
     <use xlink:href="#DejaVuSans-31" x="759.126953"/>
     <use xlink:href="#DejaVuSans-30" x="822.75"/>
    </g>
   </g>
   <g id="line2d_77">
    <path d="M 641.847234 526.996266 
L 664.947234 526.996266 
L 688.047234 526.996266 
" style="fill: none; stroke: #8172b3; stroke-opacity: 0.9; stroke-width: 3; stroke-linecap: round"/>
   </g>
   <g id="text_34">
    <!-- exiobase3_full_2000 -->
    <g style="fill: #262626" transform="translate(706.527234 535.081266) scale(0.231 -0.231)">
     <defs>
      <path id="DejaVuSans-62" d="M 3116 1747 
Q 3116 2381 2855 2742 
Q 2594 3103 2138 3103 
Q 1681 3103 1420 2742 
Q 1159 2381 1159 1747 
Q 1159 1113 1420 752 
Q 1681 391 2138 391 
Q 2594 391 2855 752 
Q 3116 1113 3116 1747 
z
M 1159 2969 
Q 1341 3281 1617 3432 
Q 1894 3584 2278 3584 
Q 2916 3584 3314 3078 
Q 3713 2572 3713 1747 
Q 3713 922 3314 415 
Q 2916 -91 2278 -91 
Q 1894 -91 1617 61 
Q 1341 213 1159 525 
L 1159 0 
L 581 0 
L 581 4863 
L 1159 4863 
L 1159 2969 
z
" transform="scale(0.015625)"/>
     </defs>
     <use xlink:href="#DejaVuSans-65"/>
     <use xlink:href="#DejaVuSans-78" x="59.773438"/>
     <use xlink:href="#DejaVuSans-69" x="118.953125"/>
     <use xlink:href="#DejaVuSans-6f" x="146.736328"/>
     <use xlink:href="#DejaVuSans-62" x="207.917969"/>
     <use xlink:href="#DejaVuSans-61" x="271.394531"/>
     <use xlink:href="#DejaVuSans-73" x="332.673828"/>
     <use xlink:href="#DejaVuSans-65" x="384.773438"/>
     <use xlink:href="#DejaVuSans-33" x="446.296875"/>
     <use xlink:href="#DejaVuSans-5f" x="509.919922"/>
     <use xlink:href="#DejaVuSans-66" x="559.919922"/>
     <use xlink:href="#DejaVuSans-75" x="595.125"/>
     <use xlink:href="#DejaVuSans-6c" x="658.503906"/>
     <use xlink:href="#DejaVuSans-6c" x="686.287109"/>
     <use xlink:href="#DejaVuSans-5f" x="714.070312"/>
     <use xlink:href="#DejaVuSans-32" x="764.070312"/>
     <use xlink:href="#DejaVuSans-30" x="827.693359"/>
     <use xlink:href="#DejaVuSans-30" x="891.316406"/>
     <use xlink:href="#DejaVuSans-30" x="954.939453"/>
    </g>
   </g>
   <g id="line2d_78">
    <path d="M 988.022391 526.996266 
L 1011.122391 526.996266 
L 1034.222391 526.996266 
" style="fill: none; stroke: #937860; stroke-opacity: 0.9; stroke-width: 3; stroke-linecap: round"/>
   </g>
   <g id="text_35">
    <!-- exiobase3_full_2010 -->
    <g style="fill: #262626" transform="translate(1052.702391 535.081266) scale(0.231 -0.231)">
     <use xlink:href="#DejaVuSans-65"/>
     <use xlink:href="#DejaVuSans-78" x="59.773438"/>
     <use xlink:href="#DejaVuSans-69" x="118.953125"/>
     <use xlink:href="#DejaVuSans-6f" x="146.736328"/>
     <use xlink:href="#DejaVuSans-62" x="207.917969"/>
     <use xlink:href="#DejaVuSans-61" x="271.394531"/>
     <use xlink:href="#DejaVuSans-73" x="332.673828"/>
     <use xlink:href="#DejaVuSans-65" x="384.773438"/>
     <use xlink:href="#DejaVuSans-33" x="446.296875"/>
     <use xlink:href="#DejaVuSans-5f" x="509.919922"/>
     <use xlink:href="#DejaVuSans-66" x="559.919922"/>
     <use xlink:href="#DejaVuSans-75" x="595.125"/>
     <use xlink:href="#DejaVuSans-6c" x="658.503906"/>
     <use xlink:href="#DejaVuSans-6c" x="686.287109"/>
     <use xlink:href="#DejaVuSans-5f" x="714.070312"/>
     <use xlink:href="#DejaVuSans-32" x="764.070312"/>
     <use xlink:href="#DejaVuSans-30" x="827.693359"/>
     <use xlink:href="#DejaVuSans-31" x="891.316406"/>
     <use xlink:href="#DejaVuSans-30" x="954.939453"/>
    </g>
   </g>
  </g>
 </g>
 <defs>
  <clipPath id="p17c497f63f">
   <rect x="170.340091" y="81.456" width="292.369069" height="119.586"/>
  </clipPath>
  <clipPath id="pc565e2834e">
   <rect x="489.290298" y="81.456" width="292.369069" height="119.586"/>
  </clipPath>
  <clipPath id="p9940dd1d76">
   <rect x="808.240504" y="81.456" width="292.369069" height="119.586"/>
  </clipPath>
  <clipPath id="pd945bf09f9">
   <rect x="170.340091" y="253.698" width="292.369069" height="119.586"/>
  </clipPath>
  <clipPath id="p1bbbe6adc2">
   <rect x="489.290298" y="253.698" width="292.369069" height="119.586"/>
  </clipPath>
  <clipPath id="pebc12bd956">
   <rect x="808.240504" y="253.698" width="292.369069" height="119.586"/>
  </clipPath>
 </defs>
</svg>
