<?xml version="1.0" encoding="utf-8" standalone="no"?>
<!DOCTYPE svg PUBLIC "-//W3C//DTD SVG 1.1//EN"
  "http://www.w3.org/Graphics/SVG/1.1/DTD/svg11.dtd">
<svg xmlns:xlink="http://www.w3.org/1999/xlink" width="1304.437547pt" height="591.51675pt" viewBox="0 0 1304.437547 591.51675" xmlns="http://www.w3.org/2000/svg" version="1.1">
 <metadata>
  <rdf:RDF xmlns:dc="http://purl.org/dc/elements/1.1/" xmlns:cc="http://creativecommons.org/ns#" xmlns:rdf="http://www.w3.org/1999/02/22-rdf-syntax-ns#">
   <cc:Work>
    <dc:type rdf:resource="http://purl.org/dc/dcmitype/StillImage"/>
    <dc:date>2023-04-07T18:31:40.416609</dc:date>
    <dc:format>image/svg+xml</dc:format>
    <dc:creator>
     <cc:Agent>
      <dc:title>Matplotlib v3.7.1, https://matplotlib.org/</dc:title>
     </cc:Agent>
    </dc:creator>
   </cc:Work>
  </rdf:RDF>
 </metadata>
 <defs>
  <style type="text/css">*{stroke-linejoin: round; stroke-linecap: butt}</style>
 </defs>
 <g id="figure_1">
  <g id="patch_1">
   <path d="M 0 591.51675 
L 1304.437547 591.51675 
L 1304.437547 -0 
L 0 -0 
z
" style="fill: #ffffff"/>
  </g>
  <g id="axes_1">
   <g id="patch_2">
    <path d="M 160.9429 201.042 
L 456.401316 201.042 
L 456.401316 81.456 
L 160.9429 81.456 
z
" style="fill: #eaeaf2"/>
   </g>
   <g id="matplotlib.axis_1">
    <g id="xtick_1">
     <g id="line2d_1">
      <path d="M 174.372828 201.042 
L 174.372828 81.456 
" clip-path="url(#pa09def4a4c)" style="fill: none; stroke: #ffffff; stroke-linecap: round"/>
     </g>
    </g>
    <g id="xtick_2">
     <g id="line2d_2">
      <path d="M 266.484817 201.042 
L 266.484817 81.456 
" clip-path="url(#pa09def4a4c)" style="fill: none; stroke: #ffffff; stroke-linecap: round"/>
     </g>
    </g>
    <g id="xtick_3">
     <g id="line2d_3">
      <path d="M 358.596806 201.042 
L 358.596806 81.456 
" clip-path="url(#pa09def4a4c)" style="fill: none; stroke: #ffffff; stroke-linecap: round"/>
     </g>
    </g>
    <g id="xtick_4">
     <g id="line2d_4">
      <path d="M 450.708795 201.042 
L 450.708795 81.456 
" clip-path="url(#pa09def4a4c)" style="fill: none; stroke: #ffffff; stroke-linecap: round"/>
     </g>
    </g>
   </g>
   <g id="matplotlib.axis_2">
    <g id="ytick_1">
     <g id="line2d_5">
      <path d="M 160.9429 157.004323 
L 456.401316 157.004323 
" clip-path="url(#pa09def4a4c)" style="fill: none; stroke: #ffffff; stroke-linecap: round"/>
     </g>
     <g id="text_1">
      <!-- −10 -->
      <g style="fill: #262626" transform="translate(102.691072 165.780518) scale(0.231 -0.231)">
       <defs>
        <path id="DejaVuSans-2212" d="M 678 2272 
L 4684 2272 
L 4684 1741 
L 678 1741 
L 678 2272 
z
" transform="scale(0.015625)"/>
        <path id="DejaVuSans-31" d="M 794 531 
L 1825 531 
L 1825 4091 
L 703 3866 
L 703 4441 
L 1819 4666 
L 2450 4666 
L 2450 531 
L 3481 531 
L 3481 0 
L 794 0 
L 794 531 
z
" transform="scale(0.015625)"/>
        <path id="DejaVuSans-30" d="M 2034 4250 
Q 1547 4250 1301 3770 
Q 1056 3291 1056 2328 
Q 1056 1369 1301 889 
Q 1547 409 2034 409 
Q 2525 409 2770 889 
Q 3016 1369 3016 2328 
Q 3016 3291 2770 3770 
Q 2525 4250 2034 4250 
z
M 2034 4750 
Q 2819 4750 3233 4129 
Q 3647 3509 3647 2328 
Q 3647 1150 3233 529 
Q 2819 -91 2034 -91 
Q 1250 -91 836 529 
Q 422 1150 422 2328 
Q 422 3509 836 4129 
Q 1250 4750 2034 4750 
z
" transform="scale(0.015625)"/>
       </defs>
       <use xlink:href="#DejaVuSans-2212"/>
       <use xlink:href="#DejaVuSans-31" x="83.789062"/>
       <use xlink:href="#DejaVuSans-30" x="147.412109"/>
      </g>
     </g>
    </g>
    <g id="ytick_2">
     <g id="line2d_6">
      <path d="M 160.9429 102.752198 
L 456.401316 102.752198 
" clip-path="url(#pa09def4a4c)" style="fill: none; stroke: #ffffff; stroke-linecap: round"/>
     </g>
     <g id="text_2">
      <!-- 0 -->
      <g style="fill: #262626" transform="translate(136.745525 111.528394) scale(0.231 -0.231)">
       <use xlink:href="#DejaVuSans-30"/>
      </g>
     </g>
    </g>
    <g id="text_3">
     <!-- % change -->
     <g style="fill: #262626" transform="translate(93.450259 203.597344) rotate(-90) scale(0.252 -0.252)">
      <defs>
       <path id="DejaVuSans-25" d="M 4653 2053 
Q 4381 2053 4226 1822 
Q 4072 1591 4072 1178 
Q 4072 772 4226 539 
Q 4381 306 4653 306 
Q 4919 306 5073 539 
Q 5228 772 5228 1178 
Q 5228 1588 5073 1820 
Q 4919 2053 4653 2053 
z
M 4653 2450 
Q 5147 2450 5437 2106 
Q 5728 1763 5728 1178 
Q 5728 594 5436 251 
Q 5144 -91 4653 -91 
Q 4153 -91 3862 251 
Q 3572 594 3572 1178 
Q 3572 1766 3864 2108 
Q 4156 2450 4653 2450 
z
M 1428 4353 
Q 1159 4353 1004 4120 
Q 850 3888 850 3481 
Q 850 3069 1003 2837 
Q 1156 2606 1428 2606 
Q 1700 2606 1854 2837 
Q 2009 3069 2009 3481 
Q 2009 3884 1853 4118 
Q 1697 4353 1428 4353 
z
M 4250 4750 
L 4750 4750 
L 1831 -91 
L 1331 -91 
L 4250 4750 
z
M 1428 4750 
Q 1922 4750 2215 4408 
Q 2509 4066 2509 3481 
Q 2509 2891 2217 2550 
Q 1925 2209 1428 2209 
Q 931 2209 642 2551 
Q 353 2894 353 3481 
Q 353 4063 643 4406 
Q 934 4750 1428 4750 
z
" transform="scale(0.015625)"/>
       <path id="DejaVuSans-20" transform="scale(0.015625)"/>
       <path id="DejaVuSans-63" d="M 3122 3366 
L 3122 2828 
Q 2878 2963 2633 3030 
Q 2388 3097 2138 3097 
Q 1578 3097 1268 2742 
Q 959 2388 959 1747 
Q 959 1106 1268 751 
Q 1578 397 2138 397 
Q 2388 397 2633 464 
Q 2878 531 3122 666 
L 3122 134 
Q 2881 22 2623 -34 
Q 2366 -91 2075 -91 
Q 1284 -91 818 406 
Q 353 903 353 1747 
Q 353 2603 823 3093 
Q 1294 3584 2113 3584 
Q 2378 3584 2631 3529 
Q 2884 3475 3122 3366 
z
" transform="scale(0.015625)"/>
       <path id="DejaVuSans-68" d="M 3513 2113 
L 3513 0 
L 2938 0 
L 2938 2094 
Q 2938 2591 2744 2837 
Q 2550 3084 2163 3084 
Q 1697 3084 1428 2787 
Q 1159 2491 1159 1978 
L 1159 0 
L 581 0 
L 581 4863 
L 1159 4863 
L 1159 2956 
Q 1366 3272 1645 3428 
Q 1925 3584 2291 3584 
Q 2894 3584 3203 3211 
Q 3513 2838 3513 2113 
z
" transform="scale(0.015625)"/>
       <path id="DejaVuSans-61" d="M 2194 1759 
Q 1497 1759 1228 1600 
Q 959 1441 959 1056 
Q 959 750 1161 570 
Q 1363 391 1709 391 
Q 2188 391 2477 730 
Q 2766 1069 2766 1631 
L 2766 1759 
L 2194 1759 
z
M 3341 1997 
L 3341 0 
L 2766 0 
L 2766 531 
Q 2569 213 2275 61 
Q 1981 -91 1556 -91 
Q 1019 -91 701 211 
Q 384 513 384 1019 
Q 384 1609 779 1909 
Q 1175 2209 1959 2209 
L 2766 2209 
L 2766 2266 
Q 2766 2663 2505 2880 
Q 2244 3097 1772 3097 
Q 1472 3097 1187 3025 
Q 903 2953 641 2809 
L 641 3341 
Q 956 3463 1253 3523 
Q 1550 3584 1831 3584 
Q 2591 3584 2966 3190 
Q 3341 2797 3341 1997 
z
" transform="scale(0.015625)"/>
       <path id="DejaVuSans-6e" d="M 3513 2113 
L 3513 0 
L 2938 0 
L 2938 2094 
Q 2938 2591 2744 2837 
Q 2550 3084 2163 3084 
Q 1697 3084 1428 2787 
Q 1159 2491 1159 1978 
L 1159 0 
L 581 0 
L 581 3500 
L 1159 3500 
L 1159 2956 
Q 1366 3272 1645 3428 
Q 1925 3584 2291 3584 
Q 2894 3584 3203 3211 
Q 3513 2838 3513 2113 
z
" transform="scale(0.015625)"/>
       <path id="DejaVuSans-67" d="M 2906 1791 
Q 2906 2416 2648 2759 
Q 2391 3103 1925 3103 
Q 1463 3103 1205 2759 
Q 947 2416 947 1791 
Q 947 1169 1205 825 
Q 1463 481 1925 481 
Q 2391 481 2648 825 
Q 2906 1169 2906 1791 
z
M 3481 434 
Q 3481 -459 3084 -895 
Q 2688 -1331 1869 -1331 
Q 1566 -1331 1297 -1286 
Q 1028 -1241 775 -1147 
L 775 -588 
Q 1028 -725 1275 -790 
Q 1522 -856 1778 -856 
Q 2344 -856 2625 -561 
Q 2906 -266 2906 331 
L 2906 616 
Q 2728 306 2450 153 
Q 2172 0 1784 0 
Q 1141 0 747 490 
Q 353 981 353 1791 
Q 353 2603 747 3093 
Q 1141 3584 1784 3584 
Q 2172 3584 2450 3431 
Q 2728 3278 2906 2969 
L 2906 3500 
L 3481 3500 
L 3481 434 
z
" transform="scale(0.015625)"/>
       <path id="DejaVuSans-65" d="M 3597 1894 
L 3597 1613 
L 953 1613 
Q 991 1019 1311 708 
Q 1631 397 2203 397 
Q 2534 397 2845 478 
Q 3156 559 3463 722 
L 3463 178 
Q 3153 47 2828 -22 
Q 2503 -91 2169 -91 
Q 1331 -91 842 396 
Q 353 884 353 1716 
Q 353 2575 817 3079 
Q 1281 3584 2069 3584 
Q 2775 3584 3186 3129 
Q 3597 2675 3597 1894 
z
M 3022 2063 
Q 3016 2534 2758 2815 
Q 2500 3097 2075 3097 
Q 1594 3097 1305 2825 
Q 1016 2553 972 2059 
L 3022 2063 
z
" transform="scale(0.015625)"/>
      </defs>
      <use xlink:href="#DejaVuSans-25"/>
      <use xlink:href="#DejaVuSans-20" x="95.019531"/>
      <use xlink:href="#DejaVuSans-63" x="126.806641"/>
      <use xlink:href="#DejaVuSans-68" x="181.787109"/>
      <use xlink:href="#DejaVuSans-61" x="245.166016"/>
      <use xlink:href="#DejaVuSans-6e" x="306.445312"/>
      <use xlink:href="#DejaVuSans-67" x="369.824219"/>
      <use xlink:href="#DejaVuSans-65" x="433.300781"/>
     </g>
    </g>
   </g>
   <g id="PolyCollection_1"/>
   <g id="PolyCollection_2"/>
   <g id="PolyCollection_3"/>
   <g id="PolyCollection_4"/>
   <g id="PolyCollection_5"/>
   <g id="PolyCollection_6"/>
   <g id="line2d_7">
    <path d="M 174.372828 102.752198 
L 174.741276 107.119953 
L 175.478172 107.278844 
L 179.162651 107.07071 
L 179.531099 107.048888 
L 180.267995 106.35305 
L 181.741787 104.871446 
L 183.215579 103.672376 
L 185.057819 102.522423 
L 186.900058 101.6531 
L 189.110746 100.893876 
L 191.689882 100.29303 
L 194.269018 99.933537 
L 196.479705 99.83505 
L 199.795737 100.218262 
L 209.743832 100.928345 
L 220.428823 101.352218 
L 244.746388 101.924784 
L 265.379473 102.019638 
L 332.805449 102.064148 
L 442.971388 102.065832 
L 442.971388 102.065832 
" clip-path="url(#pa09def4a4c)" style="fill: none; stroke: #4c72b0; stroke-opacity: 0.9; stroke-width: 3; stroke-linecap: round"/>
   </g>
   <g id="line2d_8">
    <path d="M 174.372828 102.752198 
L 174.741276 105.134397 
L 175.478172 105.253739 
L 178.794203 105.177511 
L 179.531099 105.15643 
L 180.636443 104.542895 
L 182.110235 103.773007 
L 183.952475 103.045518 
L 186.163163 102.43005 
L 188.742298 101.949047 
L 192.05833 101.575619 
L 195.742809 101.389351 
L 201.637977 101.651058 
L 213.059863 101.836491 
L 243.641044 102.114786 
L 328.015626 102.309165 
L 442.971388 102.310476 
L 442.971388 102.310476 
" clip-path="url(#pa09def4a4c)" style="fill: none; stroke: #dd8452; stroke-opacity: 0.9; stroke-width: 3; stroke-linecap: round"/>
   </g>
   <g id="line2d_9">
    <path d="M 174.372828 102.752198 
L 174.741276 107.32929 
L 175.109724 107.561655 
L 176.215068 107.584532 
L 179.531099 107.38896 
L 179.899547 107.215867 
L 182.478683 105.101518 
L 184.320923 104.015715 
L 186.531611 103.023056 
L 189.110746 102.162832 
L 192.05833 101.454259 
L 195.374361 100.924964 
L 199.427289 100.577038 
L 203.480217 100.447238 
L 209.375384 100.623825 
L 214.902103 101.106312 
L 231.850709 102.498433 
L 239.588116 102.738857 
L 248.062419 102.787984 
L 255.431378 102.622081 
L 261.694994 102.259269 
L 268.327057 101.876488 
L 273.853776 101.994493 
L 286.381007 102.113831 
L 319.541323 102.199686 
L 442.971388 102.211942 
L 442.971388 102.211942 
" clip-path="url(#pa09def4a4c)" style="fill: none; stroke: #55a868; stroke-opacity: 0.9; stroke-width: 3; stroke-linecap: round"/>
   </g>
   <g id="line2d_10">
    <path d="M 174.372828 102.752198 
L 174.741276 106.349413 
L 175.109724 106.53568 
L 176.215068 106.55192 
L 179.531099 106.393789 
L 179.899547 106.264024 
L 182.478683 104.579072 
L 184.320923 103.712217 
L 186.531611 102.929639 
L 189.110746 102.259649 
L 192.05833 101.716488 
L 195.742809 101.278666 
L 200.164185 100.997969 
L 203.480217 101.016406 
L 210.480728 101.298801 
L 224.48175 102.136589 
L 230.376917 102.387152 
L 237.008981 102.462967 
L 244.37794 102.293443 
L 252.115347 102.086412 
L 273.11688 102.288396 
L 322.488907 102.346711 
L 442.971388 102.350319 
L 442.971388 102.350319 
" clip-path="url(#pa09def4a4c)" style="fill: none; stroke: #c44e52; stroke-opacity: 0.9; stroke-width: 3; stroke-linecap: round"/>
   </g>
   <g id="line2d_11">
    <path d="M 174.372828 102.752198 
L 174.741276 106.945528 
L 175.109724 107.112252 
L 176.583516 107.067059 
L 179.531099 106.897231 
L 179.899547 106.694421 
L 181.741787 104.733507 
L 183.215579 103.557772 
L 184.689371 102.619789 
L 186.531611 101.724782 
L 188.37385 101.060851 
L 190.584538 100.49552 
L 193.163674 100.076096 
L 195.742809 99.862934 
L 200.901081 100.382401 
L 208.638488 100.793465 
L 225.955542 101.446907 
L 248.430867 102.023448 
L 274.222224 102.141999 
L 351.596295 102.17901 
L 442.971388 102.179723 
L 442.971388 102.179723 
" clip-path="url(#pa09def4a4c)" style="fill: none; stroke: #8172b3; stroke-opacity: 0.9; stroke-width: 3; stroke-linecap: round"/>
   </g>
   <g id="line2d_12">
    <path d="M 174.372828 102.752198 
L 174.741276 106.11698 
L 175.478172 106.237879 
L 179.531099 106.064886 
L 179.899547 105.903701 
L 181.741787 104.348578 
L 183.584027 103.21721 
L 185.426267 102.379272 
L 187.636954 101.657492 
L 190.21609 101.091828 
L 193.163674 100.710438 
L 196.479705 100.515343 
L 206.4278 101.067401 
L 222.63951 101.528102 
L 258.010514 102.134347 
L 301.118925 102.208953 
L 442.971388 102.217911 
L 442.971388 102.217911 
" clip-path="url(#pa09def4a4c)" style="fill: none; stroke: #937860; stroke-opacity: 0.9; stroke-width: 3; stroke-linecap: round"/>
   </g>
   <g id="patch_3">
    <path d="M 160.9429 201.042 
L 160.9429 81.456 
" style="fill: none; stroke: #ffffff; stroke-width: 1.25; stroke-linejoin: miter; stroke-linecap: square"/>
   </g>
   <g id="patch_4">
    <path d="M 160.9429 201.042 
L 456.401316 201.042 
" style="fill: none; stroke: #ffffff; stroke-width: 1.25; stroke-linejoin: miter; stroke-linecap: square"/>
   </g>
   <g id="text_4">
    <!-- 0.5~30 -->
    <g style="fill: #262626" transform="translate(262.042264 75.456) scale(0.252 -0.252)">
     <defs>
      <path id="DejaVuSans-2e" d="M 684 794 
L 1344 794 
L 1344 0 
L 684 0 
L 684 794 
z
" transform="scale(0.015625)"/>
      <path id="DejaVuSans-35" d="M 691 4666 
L 3169 4666 
L 3169 4134 
L 1269 4134 
L 1269 2991 
Q 1406 3038 1543 3061 
Q 1681 3084 1819 3084 
Q 2600 3084 3056 2656 
Q 3513 2228 3513 1497 
Q 3513 744 3044 326 
Q 2575 -91 1722 -91 
Q 1428 -91 1123 -41 
Q 819 9 494 109 
L 494 744 
Q 775 591 1075 516 
Q 1375 441 1709 441 
Q 2250 441 2565 725 
Q 2881 1009 2881 1497 
Q 2881 1984 2565 2268 
Q 2250 2553 1709 2553 
Q 1456 2553 1204 2497 
Q 953 2441 691 2322 
L 691 4666 
z
" transform="scale(0.015625)"/>
      <path id="DejaVuSans-7e" d="M 4684 2553 
L 4684 1997 
Q 4356 1750 4076 1644 
Q 3797 1538 3494 1538 
Q 3150 1538 2694 1722 
Q 2659 1734 2644 1741 
Q 2622 1750 2575 1766 
Q 2091 1959 1797 1959 
Q 1522 1959 1253 1839 
Q 984 1719 678 1459 
L 678 2016 
Q 1006 2263 1286 2370 
Q 1566 2478 1869 2478 
Q 2213 2478 2672 2291 
Q 2703 2278 2719 2272 
Q 2744 2263 2788 2247 
Q 3272 2053 3566 2053 
Q 3834 2053 4098 2172 
Q 4363 2291 4684 2553 
z
" transform="scale(0.015625)"/>
      <path id="DejaVuSans-33" d="M 2597 2516 
Q 3050 2419 3304 2112 
Q 3559 1806 3559 1356 
Q 3559 666 3084 287 
Q 2609 -91 1734 -91 
Q 1441 -91 1130 -33 
Q 819 25 488 141 
L 488 750 
Q 750 597 1062 519 
Q 1375 441 1716 441 
Q 2309 441 2620 675 
Q 2931 909 2931 1356 
Q 2931 1769 2642 2001 
Q 2353 2234 1838 2234 
L 1294 2234 
L 1294 2753 
L 1863 2753 
Q 2328 2753 2575 2939 
Q 2822 3125 2822 3475 
Q 2822 3834 2567 4026 
Q 2313 4219 1838 4219 
Q 1578 4219 1281 4162 
Q 984 4106 628 3988 
L 628 4550 
Q 988 4650 1302 4700 
Q 1616 4750 1894 4750 
Q 2613 4750 3031 4423 
Q 3450 4097 3450 3541 
Q 3450 3153 3228 2886 
Q 3006 2619 2597 2516 
z
" transform="scale(0.015625)"/>
     </defs>
     <use xlink:href="#DejaVuSans-30"/>
     <use xlink:href="#DejaVuSans-2e" x="63.623047"/>
     <use xlink:href="#DejaVuSans-35" x="95.410156"/>
     <use xlink:href="#DejaVuSans-7e" x="159.033203"/>
     <use xlink:href="#DejaVuSans-33" x="242.822266"/>
     <use xlink:href="#DejaVuSans-30" x="306.445312"/>
    </g>
   </g>
  </g>
  <g id="axes_2">
   <g id="patch_5">
    <path d="M 483.047028 201.042 
L 778.505445 201.042 
L 778.505445 81.456 
L 483.047028 81.456 
z
" style="fill: #eaeaf2"/>
   </g>
   <g id="matplotlib.axis_3">
    <g id="xtick_5">
     <g id="line2d_13">
      <path d="M 496.476956 201.042 
L 496.476956 81.456 
" clip-path="url(#p597fb0da3d)" style="fill: none; stroke: #ffffff; stroke-linecap: round"/>
     </g>
    </g>
    <g id="xtick_6">
     <g id="line2d_14">
      <path d="M 588.588946 201.042 
L 588.588946 81.456 
" clip-path="url(#p597fb0da3d)" style="fill: none; stroke: #ffffff; stroke-linecap: round"/>
     </g>
    </g>
    <g id="xtick_7">
     <g id="line2d_15">
      <path d="M 680.700935 201.042 
L 680.700935 81.456 
" clip-path="url(#p597fb0da3d)" style="fill: none; stroke: #ffffff; stroke-linecap: round"/>
     </g>
    </g>
    <g id="xtick_8">
     <g id="line2d_16">
      <path d="M 772.812924 201.042 
L 772.812924 81.456 
" clip-path="url(#p597fb0da3d)" style="fill: none; stroke: #ffffff; stroke-linecap: round"/>
     </g>
    </g>
   </g>
   <g id="matplotlib.axis_4">
    <g id="ytick_3">
     <g id="line2d_17">
      <path d="M 483.047028 157.004323 
L 778.505445 157.004323 
" clip-path="url(#p597fb0da3d)" style="fill: none; stroke: #ffffff; stroke-linecap: round"/>
     </g>
    </g>
    <g id="ytick_4">
     <g id="line2d_18">
      <path d="M 483.047028 102.752198 
L 778.505445 102.752198 
" clip-path="url(#p597fb0da3d)" style="fill: none; stroke: #ffffff; stroke-linecap: round"/>
     </g>
    </g>
   </g>
   <g id="PolyCollection_7"/>
   <g id="PolyCollection_8"/>
   <g id="PolyCollection_9"/>
   <g id="PolyCollection_10"/>
   <g id="PolyCollection_11"/>
   <g id="PolyCollection_12"/>
   <g id="line2d_19">
    <path d="M 496.476956 102.752198 
L 496.845404 107.119953 
L 497.5823 107.316745 
L 501.26678 107.314388 
L 501.635228 107.312455 
L 502.372124 106.914438 
L 504.214364 105.777736 
L 506.056603 104.904302 
L 508.267291 104.131455 
L 510.846427 103.512109 
L 513.79401 103.062638 
L 517.47849 102.748504 
L 523.005209 102.538503 
L 532.584856 102.439176 
L 553.58639 102.468364 
L 603.326864 102.630452 
L 674.805768 102.695073 
L 765.075517 102.701518 
L 765.075517 102.701518 
" clip-path="url(#p597fb0da3d)" style="fill: none; stroke: #4c72b0; stroke-opacity: 0.9; stroke-width: 3; stroke-linecap: round"/>
   </g>
   <g id="line2d_20">
    <path d="M 496.476956 102.752198 
L 496.845404 105.134397 
L 497.5823 105.271396 
L 500.898332 105.28428 
L 502.003676 105.182004 
L 505.319707 104.070981 
L 507.898843 103.522611 
L 510.846427 103.134971 
L 514.899354 102.848032 
L 520.794522 102.680845 
L 532.953304 102.605397 
L 571.64034 102.647005 
L 693.965061 102.719697 
L 765.075517 102.722504 
L 765.075517 102.722504 
" clip-path="url(#p597fb0da3d)" style="fill: none; stroke: #dd8452; stroke-opacity: 0.9; stroke-width: 3; stroke-linecap: round"/>
   </g>
   <g id="line2d_21">
    <path d="M 496.476956 102.752198 
L 496.845404 107.32929 
L 497.213852 107.578974 
L 498.319196 107.66343 
L 502.003676 107.581007 
L 505.319707 105.9258 
L 507.530395 105.137016 
L 510.109531 104.454429 
L 513.057114 103.897715 
L 516.741594 103.432811 
L 521.531418 103.070513 
L 528.163481 102.803029 
L 535.900888 102.706588 
L 546.217431 102.86576 
L 566.11362 103.181987 
L 580.851539 103.210623 
L 590.062737 103.026854 
L 606.642896 102.549204 
L 670.384392 102.688492 
L 765.075517 102.699471 
L 765.075517 102.699471 
" clip-path="url(#p597fb0da3d)" style="fill: none; stroke: #55a868; stroke-opacity: 0.9; stroke-width: 3; stroke-linecap: round"/>
   </g>
   <g id="line2d_22">
    <path d="M 496.476956 102.752198 
L 496.845404 106.349413 
L 497.213852 106.549597 
L 498.319196 106.615568 
L 502.003676 106.558096 
L 505.688155 105.107234 
L 508.267291 104.422922 
L 511.214875 103.873079 
L 514.899354 103.420043 
L 519.689178 103.072073 
L 526.321241 102.821763 
L 535.53244 102.807429 
L 551.375702 102.967838 
L 564.27138 102.994068 
L 573.482579 102.806157 
L 586.378258 102.544577 
L 672.963528 102.710278 
L 765.075517 102.713763 
L 765.075517 102.713763 
" clip-path="url(#p597fb0da3d)" style="fill: none; stroke: #c44e52; stroke-opacity: 0.9; stroke-width: 3; stroke-linecap: round"/>
   </g>
   <g id="line2d_23">
    <path d="M 496.476956 102.752198 
L 496.845404 106.945528 
L 497.213852 107.131016 
L 498.687644 107.165994 
L 502.003676 107.104464 
L 504.582811 105.505524 
L 506.425051 104.665856 
L 508.635739 103.93536 
L 511.214875 103.36267 
L 514.162458 102.968584 
L 518.215386 102.681736 
L 524.479001 102.506968 
L 536.637784 102.44162 
L 564.27138 102.516861 
L 646.435275 102.669287 
L 765.075517 102.7008 
L 765.075517 102.7008 
" clip-path="url(#p597fb0da3d)" style="fill: none; stroke: #8172b3; stroke-opacity: 0.9; stroke-width: 3; stroke-linecap: round"/>
   </g>
   <g id="line2d_24">
    <path d="M 496.476956 102.752198 
L 496.845404 106.11698 
L 497.5823 106.267587 
L 502.003676 106.218578 
L 504.582811 104.92178 
L 506.793499 104.140453 
L 509.004187 103.597889 
L 511.951771 103.134164 
L 515.63625 102.82078 
L 520.794522 102.625145 
L 530.374168 102.524744 
L 560.218453 102.532155 
L 608.485135 102.640853 
L 757.706558 102.705347 
L 765.075517 102.705493 
L 765.075517 102.705493 
" clip-path="url(#p597fb0da3d)" style="fill: none; stroke: #937860; stroke-opacity: 0.9; stroke-width: 3; stroke-linecap: round"/>
   </g>
   <g id="patch_6">
    <path d="M 483.047028 201.042 
L 483.047028 81.456 
" style="fill: none; stroke: #ffffff; stroke-width: 1.25; stroke-linejoin: miter; stroke-linecap: square"/>
   </g>
   <g id="patch_7">
    <path d="M 483.047028 201.042 
L 778.505445 201.042 
" style="fill: none; stroke: #ffffff; stroke-width: 1.25; stroke-linejoin: miter; stroke-linecap: square"/>
   </g>
   <g id="text_5">
    <!-- 0.5~365 -->
    <g style="fill: #262626" transform="translate(576.129643 75.456) scale(0.252 -0.252)">
     <defs>
      <path id="DejaVuSans-36" d="M 2113 2584 
Q 1688 2584 1439 2293 
Q 1191 2003 1191 1497 
Q 1191 994 1439 701 
Q 1688 409 2113 409 
Q 2538 409 2786 701 
Q 3034 994 3034 1497 
Q 3034 2003 2786 2293 
Q 2538 2584 2113 2584 
z
M 3366 4563 
L 3366 3988 
Q 3128 4100 2886 4159 
Q 2644 4219 2406 4219 
Q 1781 4219 1451 3797 
Q 1122 3375 1075 2522 
Q 1259 2794 1537 2939 
Q 1816 3084 2150 3084 
Q 2853 3084 3261 2657 
Q 3669 2231 3669 1497 
Q 3669 778 3244 343 
Q 2819 -91 2113 -91 
Q 1303 -91 875 529 
Q 447 1150 447 2328 
Q 447 3434 972 4092 
Q 1497 4750 2381 4750 
Q 2619 4750 2861 4703 
Q 3103 4656 3366 4563 
z
" transform="scale(0.015625)"/>
     </defs>
     <use xlink:href="#DejaVuSans-30"/>
     <use xlink:href="#DejaVuSans-2e" x="63.623047"/>
     <use xlink:href="#DejaVuSans-35" x="95.410156"/>
     <use xlink:href="#DejaVuSans-7e" x="159.033203"/>
     <use xlink:href="#DejaVuSans-33" x="242.822266"/>
     <use xlink:href="#DejaVuSans-36" x="306.445312"/>
     <use xlink:href="#DejaVuSans-35" x="370.068359"/>
    </g>
   </g>
  </g>
  <g id="axes_3">
   <g id="patch_8">
    <path d="M 805.151157 201.042 
L 1100.609573 201.042 
L 1100.609573 81.456 
L 805.151157 81.456 
z
" style="fill: #eaeaf2"/>
   </g>
   <g id="matplotlib.axis_5">
    <g id="xtick_9">
     <g id="line2d_25">
      <path d="M 818.581085 201.042 
L 818.581085 81.456 
" clip-path="url(#p0dd48c2dfb)" style="fill: none; stroke: #ffffff; stroke-linecap: round"/>
     </g>
    </g>
    <g id="xtick_10">
     <g id="line2d_26">
      <path d="M 910.693074 201.042 
L 910.693074 81.456 
" clip-path="url(#p0dd48c2dfb)" style="fill: none; stroke: #ffffff; stroke-linecap: round"/>
     </g>
    </g>
    <g id="xtick_11">
     <g id="line2d_27">
      <path d="M 1002.805063 201.042 
L 1002.805063 81.456 
" clip-path="url(#p0dd48c2dfb)" style="fill: none; stroke: #ffffff; stroke-linecap: round"/>
     </g>
    </g>
    <g id="xtick_12">
     <g id="line2d_28">
      <path d="M 1094.917053 201.042 
L 1094.917053 81.456 
" clip-path="url(#p0dd48c2dfb)" style="fill: none; stroke: #ffffff; stroke-linecap: round"/>
     </g>
    </g>
   </g>
   <g id="matplotlib.axis_6">
    <g id="ytick_5">
     <g id="line2d_29">
      <path d="M 805.151157 157.004323 
L 1100.609573 157.004323 
" clip-path="url(#p0dd48c2dfb)" style="fill: none; stroke: #ffffff; stroke-linecap: round"/>
     </g>
    </g>
    <g id="ytick_6">
     <g id="line2d_30">
      <path d="M 805.151157 102.752198 
L 1100.609573 102.752198 
" clip-path="url(#p0dd48c2dfb)" style="fill: none; stroke: #ffffff; stroke-linecap: round"/>
     </g>
    </g>
   </g>
   <g id="PolyCollection_13"/>
   <g id="PolyCollection_14"/>
   <g id="PolyCollection_15"/>
   <g id="PolyCollection_16"/>
   <g id="PolyCollection_17"/>
   <g id="PolyCollection_18"/>
   <g id="line2d_31">
    <path d="M 818.581085 102.752198 
L 818.949533 107.119953 
L 819.686429 107.278844 
L 823.370908 107.07071 
L 823.739356 107.048888 
L 824.476252 106.35305 
L 825.950044 104.871446 
L 827.423836 103.672376 
L 829.266076 102.522423 
L 831.108315 101.6531 
L 833.319003 100.893876 
L 835.898139 100.29303 
L 838.477275 99.933537 
L 840.687962 99.83505 
L 844.003994 100.218262 
L 853.952089 100.928345 
L 864.63708 101.352218 
L 888.954645 101.924784 
L 909.58773 102.019638 
L 977.013706 102.064148 
L 1087.179645 102.065832 
L 1087.179645 102.065832 
" clip-path="url(#p0dd48c2dfb)" style="fill: none; stroke: #4c72b0; stroke-opacity: 0.9; stroke-width: 3; stroke-linecap: round"/>
   </g>
   <g id="line2d_32">
    <path d="M 818.581085 102.752198 
L 818.949533 105.134397 
L 819.686429 105.253739 
L 823.00246 105.177511 
L 823.739356 105.15643 
L 824.8447 104.542895 
L 826.318492 103.773007 
L 828.160732 103.045518 
L 830.37142 102.43005 
L 832.950555 101.949047 
L 836.266587 101.575619 
L 839.951066 101.389351 
L 845.846234 101.651058 
L 857.26812 101.836491 
L 887.849301 102.114786 
L 972.223883 102.309165 
L 1087.179645 102.310476 
L 1087.179645 102.310476 
" clip-path="url(#p0dd48c2dfb)" style="fill: none; stroke: #dd8452; stroke-opacity: 0.9; stroke-width: 3; stroke-linecap: round"/>
   </g>
   <g id="line2d_33">
    <path d="M 818.581085 102.752198 
L 818.949533 107.32929 
L 819.317981 107.561655 
L 820.423325 107.584532 
L 823.739356 107.38896 
L 824.107804 107.215867 
L 826.68694 105.101518 
L 828.52918 104.015715 
L 830.739868 103.023056 
L 832.950555 102.272584 
L 835.529691 101.714388 
L 838.108827 101.370479 
L 839.951066 101.349374 
L 843.635546 101.585499 
L 850.267609 101.865047 
L 862.79484 102.258619 
L 871.637591 103.056762 
L 878.269654 103.35772 
L 888.954645 103.601408 
L 903.692563 103.70345 
L 920.272721 103.601713 
L 933.1684 103.313624 
L 944.958734 102.821143 
L 965.223372 101.933435 
L 974.066123 101.974432 
L 1000.225928 102.112499 
L 1072.810175 102.141166 
L 1087.179645 102.141439 
L 1087.179645 102.141439 
" clip-path="url(#p0dd48c2dfb)" style="fill: none; stroke: #55a868; stroke-opacity: 0.9; stroke-width: 3; stroke-linecap: round"/>
   </g>
   <g id="line2d_34">
    <path d="M 818.581085 102.752198 
L 818.949533 106.349413 
L 819.317981 106.53568 
L 820.423325 106.55192 
L 823.739356 106.393789 
L 824.107804 106.264024 
L 826.68694 104.579072 
L 828.52918 103.712217 
L 830.739868 102.929639 
L 833.319003 102.274161 
L 836.266587 101.843945 
L 838.477275 101.76405 
L 843.635546 102.066431 
L 854.320537 102.726782 
L 862.79484 102.719755 
L 866.110871 102.81965 
L 877.16431 103.417146 
L 886.743957 103.596169 
L 899.639635 103.610568 
L 910.693074 103.40967 
L 923.957201 102.909694 
L 945.69563 102.094405 
L 951.959245 102.05531 
L 1034.12314 102.22726 
L 1087.179645 102.228529 
L 1087.179645 102.228529 
" clip-path="url(#p0dd48c2dfb)" style="fill: none; stroke: #c44e52; stroke-opacity: 0.9; stroke-width: 3; stroke-linecap: round"/>
   </g>
   <g id="line2d_35">
    <path d="M 818.581085 102.752198 
L 818.949533 106.945528 
L 819.317981 107.112252 
L 820.791773 107.067059 
L 823.739356 106.897231 
L 824.107804 106.694421 
L 825.950044 104.733507 
L 827.423836 103.557772 
L 828.897628 102.619789 
L 830.739868 101.724782 
L 832.582107 101.060851 
L 834.792795 100.49552 
L 837.371931 100.076096 
L 839.951066 99.862934 
L 845.109338 100.382401 
L 852.846745 100.793465 
L 870.163799 101.446907 
L 892.639124 102.023448 
L 918.430481 102.141999 
L 995.804552 102.17901 
L 1087.179645 102.179723 
L 1087.179645 102.179723 
" clip-path="url(#p0dd48c2dfb)" style="fill: none; stroke: #8172b3; stroke-opacity: 0.9; stroke-width: 3; stroke-linecap: round"/>
   </g>
   <g id="line2d_36">
    <path d="M 818.581085 102.752198 
L 818.949533 106.11698 
L 819.686429 106.237879 
L 823.739356 106.064886 
L 824.107804 105.903701 
L 825.950044 104.348578 
L 827.792284 103.21721 
L 829.634524 102.379272 
L 831.845211 101.657492 
L 834.424347 101.091828 
L 837.371931 100.710438 
L 840.687962 100.515343 
L 850.636057 101.067401 
L 866.847767 101.528102 
L 902.218771 102.134347 
L 945.327182 102.208953 
L 1087.179645 102.217911 
L 1087.179645 102.217911 
" clip-path="url(#p0dd48c2dfb)" style="fill: none; stroke: #937860; stroke-opacity: 0.9; stroke-width: 3; stroke-linecap: round"/>
   </g>
   <g id="patch_9">
    <path d="M 805.151157 201.042 
L 805.151157 81.456 
" style="fill: none; stroke: #ffffff; stroke-width: 1.25; stroke-linejoin: miter; stroke-linecap: square"/>
   </g>
   <g id="patch_10">
    <path d="M 805.151157 201.042 
L 1100.609573 201.042 
" style="fill: none; stroke: #ffffff; stroke-width: 1.25; stroke-linejoin: miter; stroke-linecap: square"/>
   </g>
   <g id="text_6">
    <!-- 0.8~30 -->
    <g style="fill: #262626" transform="translate(906.250521 75.456) scale(0.252 -0.252)">
     <defs>
      <path id="DejaVuSans-38" d="M 2034 2216 
Q 1584 2216 1326 1975 
Q 1069 1734 1069 1313 
Q 1069 891 1326 650 
Q 1584 409 2034 409 
Q 2484 409 2743 651 
Q 3003 894 3003 1313 
Q 3003 1734 2745 1975 
Q 2488 2216 2034 2216 
z
M 1403 2484 
Q 997 2584 770 2862 
Q 544 3141 544 3541 
Q 544 4100 942 4425 
Q 1341 4750 2034 4750 
Q 2731 4750 3128 4425 
Q 3525 4100 3525 3541 
Q 3525 3141 3298 2862 
Q 3072 2584 2669 2484 
Q 3125 2378 3379 2068 
Q 3634 1759 3634 1313 
Q 3634 634 3220 271 
Q 2806 -91 2034 -91 
Q 1263 -91 848 271 
Q 434 634 434 1313 
Q 434 1759 690 2068 
Q 947 2378 1403 2484 
z
M 1172 3481 
Q 1172 3119 1398 2916 
Q 1625 2713 2034 2713 
Q 2441 2713 2670 2916 
Q 2900 3119 2900 3481 
Q 2900 3844 2670 4047 
Q 2441 4250 2034 4250 
Q 1625 4250 1398 4047 
Q 1172 3844 1172 3481 
z
" transform="scale(0.015625)"/>
     </defs>
     <use xlink:href="#DejaVuSans-30"/>
     <use xlink:href="#DejaVuSans-2e" x="63.623047"/>
     <use xlink:href="#DejaVuSans-38" x="95.410156"/>
     <use xlink:href="#DejaVuSans-7e" x="159.033203"/>
     <use xlink:href="#DejaVuSans-33" x="242.822266"/>
     <use xlink:href="#DejaVuSans-30" x="306.445312"/>
    </g>
   </g>
  </g>
  <g id="axes_4">
   <g id="patch_11">
    <path d="M 160.9429 373.284 
L 456.401316 373.284 
L 456.401316 253.698 
L 160.9429 253.698 
z
" style="fill: #eaeaf2"/>
   </g>
   <g id="matplotlib.axis_7">
    <g id="xtick_13">
     <g id="line2d_37">
      <path d="M 174.372828 373.284 
L 174.372828 253.698 
" clip-path="url(#p55ec8d26a3)" style="fill: none; stroke: #ffffff; stroke-linecap: round"/>
     </g>
     <g id="text_7">
      <!-- 0 -->
      <g style="fill: #262626" transform="translate(167.02414 400.336391) scale(0.231 -0.231)">
       <use xlink:href="#DejaVuSans-30"/>
      </g>
     </g>
    </g>
    <g id="xtick_14">
     <g id="line2d_38">
      <path d="M 266.484817 373.284 
L 266.484817 253.698 
" clip-path="url(#p55ec8d26a3)" style="fill: none; stroke: #ffffff; stroke-linecap: round"/>
     </g>
     <g id="text_8">
      <!-- 250 -->
      <g style="fill: #262626" transform="translate(244.438755 400.336391) scale(0.231 -0.231)">
       <defs>
        <path id="DejaVuSans-32" d="M 1228 531 
L 3431 531 
L 3431 0 
L 469 0 
L 469 531 
Q 828 903 1448 1529 
Q 2069 2156 2228 2338 
Q 2531 2678 2651 2914 
Q 2772 3150 2772 3378 
Q 2772 3750 2511 3984 
Q 2250 4219 1831 4219 
Q 1534 4219 1204 4116 
Q 875 4013 500 3803 
L 500 4441 
Q 881 4594 1212 4672 
Q 1544 4750 1819 4750 
Q 2544 4750 2975 4387 
Q 3406 4025 3406 3419 
Q 3406 3131 3298 2873 
Q 3191 2616 2906 2266 
Q 2828 2175 2409 1742 
Q 1991 1309 1228 531 
z
" transform="scale(0.015625)"/>
       </defs>
       <use xlink:href="#DejaVuSans-32"/>
       <use xlink:href="#DejaVuSans-35" x="63.623047"/>
       <use xlink:href="#DejaVuSans-30" x="127.246094"/>
      </g>
     </g>
    </g>
    <g id="xtick_15">
     <g id="line2d_39">
      <path d="M 358.596806 373.284 
L 358.596806 253.698 
" clip-path="url(#p55ec8d26a3)" style="fill: none; stroke: #ffffff; stroke-linecap: round"/>
     </g>
     <g id="text_9">
      <!-- 500 -->
      <g style="fill: #262626" transform="translate(336.550744 400.336391) scale(0.231 -0.231)">
       <use xlink:href="#DejaVuSans-35"/>
       <use xlink:href="#DejaVuSans-30" x="63.623047"/>
       <use xlink:href="#DejaVuSans-30" x="127.246094"/>
      </g>
     </g>
    </g>
    <g id="xtick_16">
     <g id="line2d_40">
      <path d="M 450.708795 373.284 
L 450.708795 253.698 
" clip-path="url(#p55ec8d26a3)" style="fill: none; stroke: #ffffff; stroke-linecap: round"/>
     </g>
     <g id="text_10">
      <!-- 750 -->
      <g style="fill: #262626" transform="translate(428.662733 400.336391) scale(0.231 -0.231)">
       <defs>
        <path id="DejaVuSans-37" d="M 525 4666 
L 3525 4666 
L 3525 4397 
L 1831 0 
L 1172 0 
L 2766 4134 
L 525 4134 
L 525 4666 
z
" transform="scale(0.015625)"/>
       </defs>
       <use xlink:href="#DejaVuSans-37"/>
       <use xlink:href="#DejaVuSans-35" x="63.623047"/>
       <use xlink:href="#DejaVuSans-30" x="127.246094"/>
      </g>
     </g>
    </g>
    <g id="text_11">
     <!-- step -->
     <g style="fill: #262626" transform="translate(281.416733 428.288531) scale(0.252 -0.252)">
      <defs>
       <path id="DejaVuSans-73" d="M 2834 3397 
L 2834 2853 
Q 2591 2978 2328 3040 
Q 2066 3103 1784 3103 
Q 1356 3103 1142 2972 
Q 928 2841 928 2578 
Q 928 2378 1081 2264 
Q 1234 2150 1697 2047 
L 1894 2003 
Q 2506 1872 2764 1633 
Q 3022 1394 3022 966 
Q 3022 478 2636 193 
Q 2250 -91 1575 -91 
Q 1294 -91 989 -36 
Q 684 19 347 128 
L 347 722 
Q 666 556 975 473 
Q 1284 391 1588 391 
Q 1994 391 2212 530 
Q 2431 669 2431 922 
Q 2431 1156 2273 1281 
Q 2116 1406 1581 1522 
L 1381 1569 
Q 847 1681 609 1914 
Q 372 2147 372 2553 
Q 372 3047 722 3315 
Q 1072 3584 1716 3584 
Q 2034 3584 2315 3537 
Q 2597 3491 2834 3397 
z
" transform="scale(0.015625)"/>
       <path id="DejaVuSans-74" d="M 1172 4494 
L 1172 3500 
L 2356 3500 
L 2356 3053 
L 1172 3053 
L 1172 1153 
Q 1172 725 1289 603 
Q 1406 481 1766 481 
L 2356 481 
L 2356 0 
L 1766 0 
Q 1100 0 847 248 
Q 594 497 594 1153 
L 594 3053 
L 172 3053 
L 172 3500 
L 594 3500 
L 594 4494 
L 1172 4494 
z
" transform="scale(0.015625)"/>
       <path id="DejaVuSans-70" d="M 1159 525 
L 1159 -1331 
L 581 -1331 
L 581 3500 
L 1159 3500 
L 1159 2969 
Q 1341 3281 1617 3432 
Q 1894 3584 2278 3584 
Q 2916 3584 3314 3078 
Q 3713 2572 3713 1747 
Q 3713 922 3314 415 
Q 2916 -91 2278 -91 
Q 1894 -91 1617 61 
Q 1341 213 1159 525 
z
M 3116 1747 
Q 3116 2381 2855 2742 
Q 2594 3103 2138 3103 
Q 1681 3103 1420 2742 
Q 1159 2381 1159 1747 
Q 1159 1113 1420 752 
Q 1681 391 2138 391 
Q 2594 391 2855 752 
Q 3116 1113 3116 1747 
z
" transform="scale(0.015625)"/>
      </defs>
      <use xlink:href="#DejaVuSans-73"/>
      <use xlink:href="#DejaVuSans-74" x="52.099609"/>
      <use xlink:href="#DejaVuSans-65" x="91.308594"/>
      <use xlink:href="#DejaVuSans-70" x="152.832031"/>
     </g>
    </g>
   </g>
   <g id="matplotlib.axis_8">
    <g id="ytick_7">
     <g id="line2d_41">
      <path d="M 160.9429 329.246323 
L 456.401316 329.246323 
" clip-path="url(#p55ec8d26a3)" style="fill: none; stroke: #ffffff; stroke-linecap: round"/>
     </g>
     <g id="text_12">
      <!-- −10 -->
      <g style="fill: #262626" transform="translate(102.691072 338.022518) scale(0.231 -0.231)">
       <use xlink:href="#DejaVuSans-2212"/>
       <use xlink:href="#DejaVuSans-31" x="83.789062"/>
       <use xlink:href="#DejaVuSans-30" x="147.412109"/>
      </g>
     </g>
    </g>
    <g id="ytick_8">
     <g id="line2d_42">
      <path d="M 160.9429 274.994198 
L 456.401316 274.994198 
" clip-path="url(#p55ec8d26a3)" style="fill: none; stroke: #ffffff; stroke-linecap: round"/>
     </g>
     <g id="text_13">
      <!-- 0 -->
      <g style="fill: #262626" transform="translate(136.745525 283.770394) scale(0.231 -0.231)">
       <use xlink:href="#DejaVuSans-30"/>
      </g>
     </g>
    </g>
    <g id="text_14">
     <!-- % change -->
     <g style="fill: #262626" transform="translate(93.450259 375.839344) rotate(-90) scale(0.252 -0.252)">
      <use xlink:href="#DejaVuSans-25"/>
      <use xlink:href="#DejaVuSans-20" x="95.019531"/>
      <use xlink:href="#DejaVuSans-63" x="126.806641"/>
      <use xlink:href="#DejaVuSans-68" x="181.787109"/>
      <use xlink:href="#DejaVuSans-61" x="245.166016"/>
      <use xlink:href="#DejaVuSans-6e" x="306.445312"/>
      <use xlink:href="#DejaVuSans-67" x="369.824219"/>
      <use xlink:href="#DejaVuSans-65" x="433.300781"/>
     </g>
    </g>
   </g>
   <g id="PolyCollection_19"/>
   <g id="PolyCollection_20"/>
   <g id="PolyCollection_21"/>
   <g id="PolyCollection_22"/>
   <g id="PolyCollection_23"/>
   <g id="PolyCollection_24"/>
   <g id="line2d_43">
    <path d="M 174.372828 274.994198 
L 174.741276 279.361953 
L 175.478172 279.558745 
L 179.162651 279.556388 
L 179.531099 279.554455 
L 180.267995 279.156438 
L 182.110235 278.019736 
L 183.952475 277.146302 
L 186.163163 276.373455 
L 188.742298 275.754109 
L 191.689882 275.304638 
L 195.374361 274.990504 
L 200.901081 274.780503 
L 210.480728 274.681176 
L 231.482261 274.710364 
L 281.222735 274.872452 
L 352.701639 274.937073 
L 442.971388 274.943518 
L 442.971388 274.943518 
" clip-path="url(#p55ec8d26a3)" style="fill: none; stroke: #4c72b0; stroke-opacity: 0.9; stroke-width: 3; stroke-linecap: round"/>
   </g>
   <g id="line2d_44">
    <path d="M 174.372828 274.994198 
L 174.741276 277.376397 
L 175.478172 277.513396 
L 178.794203 277.52628 
L 179.899547 277.424004 
L 183.215579 276.312981 
L 185.794715 275.764611 
L 188.742298 275.376971 
L 192.795226 275.090032 
L 198.690393 274.922845 
L 210.849176 274.847397 
L 249.536211 274.889005 
L 371.860933 274.961697 
L 442.971388 274.964504 
L 442.971388 274.964504 
" clip-path="url(#p55ec8d26a3)" style="fill: none; stroke: #dd8452; stroke-opacity: 0.9; stroke-width: 3; stroke-linecap: round"/>
   </g>
   <g id="line2d_45">
    <path d="M 174.372828 274.994198 
L 174.741276 279.57129 
L 175.109724 279.820974 
L 176.215068 279.90543 
L 179.899547 279.823007 
L 183.215579 278.1678 
L 185.426267 277.379016 
L 188.005402 276.696429 
L 190.952986 276.140553 
L 193.90057 275.800848 
L 196.479705 275.801578 
L 207.164696 276.315876 
L 214.902103 276.063196 
L 224.48175 275.832037 
L 241.798804 276.049218 
L 273.853776 276.317761 
L 289.697038 276.253173 
L 303.329613 275.976642 
L 319.172875 275.39668 
L 336.121481 274.806485 
L 345.33268 274.801205 
L 386.967299 274.891502 
L 442.971388 274.90708 
L 442.971388 274.90708 
" clip-path="url(#p55ec8d26a3)" style="fill: none; stroke: #55a868; stroke-opacity: 0.9; stroke-width: 3; stroke-linecap: round"/>
   </g>
   <g id="line2d_46">
    <path d="M 174.372828 274.994198 
L 174.741276 278.591413 
L 175.109724 278.791597 
L 176.215068 278.857568 
L 179.899547 278.800096 
L 183.584027 277.349234 
L 186.163163 276.664922 
L 189.110746 276.115079 
L 192.426778 275.72597 
L 194.637466 275.666623 
L 197.585049 275.82727 
L 203.111769 276.275828 
L 208.27004 276.395235 
L 217.481239 276.293863 
L 229.640021 275.975052 
L 256.168274 276.167596 
L 271.643089 276.084959 
L 285.275663 275.781227 
L 319.541323 274.820218 
L 333.542345 274.847242 
L 393.599362 274.916747 
L 442.971388 274.919478 
L 442.971388 274.919478 
" clip-path="url(#p55ec8d26a3)" style="fill: none; stroke: #c44e52; stroke-opacity: 0.9; stroke-width: 3; stroke-linecap: round"/>
   </g>
   <g id="line2d_47">
    <path d="M 174.372828 274.994198 
L 174.741276 279.187528 
L 175.109724 279.373016 
L 176.583516 279.407994 
L 179.899547 279.346464 
L 182.478683 277.747524 
L 184.320923 276.907856 
L 186.531611 276.17736 
L 189.110746 275.60467 
L 192.05833 275.210584 
L 196.111257 274.923736 
L 202.374873 274.748968 
L 214.533655 274.68362 
L 242.167252 274.758861 
L 324.331146 274.911287 
L 442.971388 274.9428 
L 442.971388 274.9428 
" clip-path="url(#p55ec8d26a3)" style="fill: none; stroke: #8172b3; stroke-opacity: 0.9; stroke-width: 3; stroke-linecap: round"/>
   </g>
   <g id="line2d_48">
    <path d="M 174.372828 274.994198 
L 174.741276 278.35898 
L 175.478172 278.509587 
L 179.899547 278.460578 
L 182.478683 277.16378 
L 184.689371 276.382453 
L 186.900058 275.839889 
L 189.847642 275.376164 
L 193.532122 275.06278 
L 198.690393 274.867145 
L 208.27004 274.766744 
L 238.114324 274.774155 
L 286.381007 274.882853 
L 435.602429 274.947347 
L 442.971388 274.947493 
L 442.971388 274.947493 
" clip-path="url(#p55ec8d26a3)" style="fill: none; stroke: #937860; stroke-opacity: 0.9; stroke-width: 3; stroke-linecap: round"/>
   </g>
   <g id="patch_12">
    <path d="M 160.9429 373.284 
L 160.9429 253.698 
" style="fill: none; stroke: #ffffff; stroke-width: 1.25; stroke-linejoin: miter; stroke-linecap: square"/>
   </g>
   <g id="patch_13">
    <path d="M 160.9429 373.284 
L 456.401316 373.284 
" style="fill: none; stroke: #ffffff; stroke-width: 1.25; stroke-linejoin: miter; stroke-linecap: square"/>
   </g>
   <g id="text_15">
    <!-- 0.8~365 -->
    <g style="fill: #262626" transform="translate(254.025514 247.698) scale(0.252 -0.252)">
     <use xlink:href="#DejaVuSans-30"/>
     <use xlink:href="#DejaVuSans-2e" x="63.623047"/>
     <use xlink:href="#DejaVuSans-38" x="95.410156"/>
     <use xlink:href="#DejaVuSans-7e" x="159.033203"/>
     <use xlink:href="#DejaVuSans-33" x="242.822266"/>
     <use xlink:href="#DejaVuSans-36" x="306.445312"/>
     <use xlink:href="#DejaVuSans-35" x="370.068359"/>
    </g>
   </g>
  </g>
  <g id="axes_5">
   <g id="patch_14">
    <path d="M 483.047028 373.284 
L 778.505445 373.284 
L 778.505445 253.698 
L 483.047028 253.698 
z
" style="fill: #eaeaf2"/>
   </g>
   <g id="matplotlib.axis_9">
    <g id="xtick_17">
     <g id="line2d_49">
      <path d="M 496.476956 373.284 
L 496.476956 253.698 
" clip-path="url(#p9e37898ac7)" style="fill: none; stroke: #ffffff; stroke-linecap: round"/>
     </g>
     <g id="text_16">
      <!-- 0 -->
      <g style="fill: #262626" transform="translate(489.128269 400.336391) scale(0.231 -0.231)">
       <use xlink:href="#DejaVuSans-30"/>
      </g>
     </g>
    </g>
    <g id="xtick_18">
     <g id="line2d_50">
      <path d="M 588.588946 373.284 
L 588.588946 253.698 
" clip-path="url(#p9e37898ac7)" style="fill: none; stroke: #ffffff; stroke-linecap: round"/>
     </g>
     <g id="text_17">
      <!-- 250 -->
      <g style="fill: #262626" transform="translate(566.542883 400.336391) scale(0.231 -0.231)">
       <use xlink:href="#DejaVuSans-32"/>
       <use xlink:href="#DejaVuSans-35" x="63.623047"/>
       <use xlink:href="#DejaVuSans-30" x="127.246094"/>
      </g>
     </g>
    </g>
    <g id="xtick_19">
     <g id="line2d_51">
      <path d="M 680.700935 373.284 
L 680.700935 253.698 
" clip-path="url(#p9e37898ac7)" style="fill: none; stroke: #ffffff; stroke-linecap: round"/>
     </g>
     <g id="text_18">
      <!-- 500 -->
      <g style="fill: #262626" transform="translate(658.654872 400.336391) scale(0.231 -0.231)">
       <use xlink:href="#DejaVuSans-35"/>
       <use xlink:href="#DejaVuSans-30" x="63.623047"/>
       <use xlink:href="#DejaVuSans-30" x="127.246094"/>
      </g>
     </g>
    </g>
    <g id="xtick_20">
     <g id="line2d_52">
      <path d="M 772.812924 373.284 
L 772.812924 253.698 
" clip-path="url(#p9e37898ac7)" style="fill: none; stroke: #ffffff; stroke-linecap: round"/>
     </g>
     <g id="text_19">
      <!-- 750 -->
      <g style="fill: #262626" transform="translate(750.766861 400.336391) scale(0.231 -0.231)">
       <use xlink:href="#DejaVuSans-37"/>
       <use xlink:href="#DejaVuSans-35" x="63.623047"/>
       <use xlink:href="#DejaVuSans-30" x="127.246094"/>
      </g>
     </g>
    </g>
    <g id="text_20">
     <!-- step -->
     <g style="fill: #262626" transform="translate(603.520862 428.288531) scale(0.252 -0.252)">
      <use xlink:href="#DejaVuSans-73"/>
      <use xlink:href="#DejaVuSans-74" x="52.099609"/>
      <use xlink:href="#DejaVuSans-65" x="91.308594"/>
      <use xlink:href="#DejaVuSans-70" x="152.832031"/>
     </g>
    </g>
   </g>
   <g id="matplotlib.axis_10">
    <g id="ytick_9">
     <g id="line2d_53">
      <path d="M 483.047028 329.246323 
L 778.505445 329.246323 
" clip-path="url(#p9e37898ac7)" style="fill: none; stroke: #ffffff; stroke-linecap: round"/>
     </g>
    </g>
    <g id="ytick_10">
     <g id="line2d_54">
      <path d="M 483.047028 274.994198 
L 778.505445 274.994198 
" clip-path="url(#p9e37898ac7)" style="fill: none; stroke: #ffffff; stroke-linecap: round"/>
     </g>
    </g>
   </g>
   <g id="PolyCollection_25"/>
   <g id="PolyCollection_26"/>
   <g id="PolyCollection_27"/>
   <g id="PolyCollection_28"/>
   <g id="PolyCollection_29"/>
   <g id="PolyCollection_30"/>
   <g id="line2d_55">
    <path d="M 496.476956 274.994198 
L 496.845404 279.361953 
L 497.5823 279.520844 
L 501.635228 279.364314 
L 502.003676 279.202572 
L 502.372124 280.647198 
L 506.425051 310.703319 
L 508.267291 322.026543 
L 510.109531 331.812084 
L 511.583323 338.555231 
L 513.057114 344.351301 
L 514.530906 349.229008 
L 516.004698 353.233873 
L 517.110042 355.704962 
L 518.215386 357.74153 
L 519.32073 359.365351 
L 520.426074 360.600298 
L 521.531418 361.471139 
L 522.636761 362.003011 
L 523.742105 362.223376 
L 524.847449 362.169003 
L 525.952793 361.87633 
L 527.058137 361.37879 
L 528.531929 360.453384 
L 530.374168 358.960185 
L 532.584856 356.798923 
L 535.163992 353.926187 
L 538.480024 349.882647 
L 543.269847 343.654587 
L 560.218453 321.219049 
L 561.323797 320.237635 
L 562.797589 319.324195 
L 564.27138 318.557844 
L 567.95586 317.203073 
L 570.534996 316.448423 
L 574.219475 315.476973 
L 587.115154 311.644175 
L 602.22152 306.667652 
L 609.590479 304.004739 
L 616.222542 301.373361 
L 623.591502 298.21594 
L 632.065805 294.338182 
L 655.278026 283.629202 
L 661.541641 281.141666 
L 668.542152 278.597101 
L 678.858695 275.224377 
L 684.016966 273.797262 
L 693.965061 271.338703 
L 703.17626 269.280825 
L 711.282115 267.713985 
L 720.124866 266.231159 
L 729.704513 264.85079 
L 740.021056 263.589923 
L 751.442943 262.425069 
L 764.338621 261.345984 
L 765.075517 261.290668 
L 765.075517 261.290668 
" clip-path="url(#p9e37898ac7)" style="fill: none; stroke: #4c72b0; stroke-opacity: 0.9; stroke-width: 3; stroke-linecap: round"/>
   </g>
   <g id="line2d_56">
    <path d="M 496.476956 274.994198 
L 496.845404 277.376397 
L 497.5823 277.495739 
L 501.26678 277.414727 
L 502.003676 277.310684 
L 502.372124 278.383009 
L 504.582811 290.663411 
L 506.056603 297.664922 
L 507.530395 303.679871 
L 509.004187 308.756582 
L 510.477979 312.946316 
L 511.951771 316.315133 
L 513.057114 318.347897 
L 514.162458 319.994523 
L 515.267802 321.294861 
L 516.373146 322.284416 
L 517.47849 322.997466 
L 518.583834 323.456941 
L 519.689178 323.692146 
L 520.794522 323.736458 
L 522.268313 323.55081 
L 523.742105 323.141271 
L 525.584345 322.390763 
L 527.795033 321.240635 
L 530.742616 319.432405 
L 534.427096 316.879409 
L 540.322263 312.455484 
L 545.112087 308.569734 
L 557.270869 298.437283 
L 558.744661 297.512182 
L 559.850005 297.157542 
L 561.323797 296.867885 
L 563.166037 296.680037 
L 570.166548 296.568791 
L 579.377747 296.371072 
L 586.378258 296.617377 
L 602.958416 297.557328 
L 609.590479 297.914016 
L 615.485646 298.140517 
L 622.11771 298.155518 
L 627.644429 297.935938 
L 632.8027 297.499999 
L 637.960972 296.829153 
L 643.119243 295.925488 
L 648.277515 294.785124 
L 653.067338 293.485316 
L 657.857161 291.960896 
L 663.015433 290.09257 
L 668.9106 287.72296 
L 692.122821 278.050505 
L 699.860229 275.531555 
L 713.861251 270.793631 
L 725.651586 267.266984 
L 733.757441 265.180855 
L 742.231744 263.230134 
L 748.495359 261.985724 
L 758.443454 260.204442 
L 765.075517 259.133727 
L 765.075517 259.133727 
" clip-path="url(#p9e37898ac7)" style="fill: none; stroke: #dd8452; stroke-opacity: 0.9; stroke-width: 3; stroke-linecap: round"/>
   </g>
   <g id="line2d_57">
    <path d="M 496.476956 274.994198 
L 496.845404 279.57129 
L 497.213852 279.803655 
L 498.319196 279.826532 
L 502.003676 279.540406 
L 502.372124 279.744649 
L 502.740572 280.366145 
L 503.845916 283.360207 
L 507.898843 294.820673 
L 509.741083 299.122495 
L 511.583323 302.812827 
L 513.425562 305.92293 
L 514.899354 308.01672 
L 516.373146 309.784032 
L 517.846938 311.253312 
L 519.32073 312.462063 
L 520.794522 313.419764 
L 522.268313 314.149873 
L 524.110553 314.785666 
L 525.952793 315.160067 
L 527.795033 315.309103 
L 530.005721 315.256888 
L 532.584856 314.966299 
L 535.163992 314.469626 
L 538.848471 313.514883 
L 542.532951 312.333284 
L 546.954327 310.680261 
L 552.849494 308.213668 
L 566.482068 302.601822 
L 570.534996 301.29859 
L 575.324819 300.02483 
L 593.010321 295.451742 
L 603.695312 292.324585 
L 627.644429 285.252432 
L 638.697868 282.300676 
L 647.909067 280.062816 
L 656.751818 278.133923 
L 665.226121 276.510851 
L 674.805768 274.918201 
L 685.12231 273.424086 
L 696.175749 272.045246 
L 708.334532 270.752962 
L 721.967106 269.534903 
L 736.705024 268.445786 
L 752.916734 267.477336 
L 765.075517 266.888669 
L 765.075517 266.888669 
" clip-path="url(#p9e37898ac7)" style="fill: none; stroke: #55a868; stroke-opacity: 0.9; stroke-width: 3; stroke-linecap: round"/>
   </g>
   <g id="line2d_58">
    <path d="M 496.476956 274.994198 
L 496.845404 278.591413 
L 497.213852 278.77768 
L 498.319196 278.794031 
L 502.003676 278.546707 
L 502.372124 278.797575 
L 503.10902 280.474503 
L 508.267291 294.400526 
L 510.109531 298.355133 
L 511.951771 301.688969 
L 513.425562 303.941351 
L 514.899354 305.860372 
L 516.373146 307.474197 
L 517.846938 308.804245 
L 519.32073 309.87856 
L 520.794522 310.730463 
L 522.636761 311.510296 
L 524.479001 312.022839 
L 526.321241 312.318672 
L 528.531929 312.443915 
L 531.111064 312.340653 
L 534.058648 311.963771 
L 537.006232 311.359858 
L 540.690711 310.357406 
L 545.112087 308.907109 
L 551.007254 306.745208 
L 565.008276 301.500952 
L 569.7981 299.935623 
L 574.587923 298.616428 
L 599.273936 292.267928 
L 616.959438 287.325394 
L 630.223565 283.749625 
L 639.803212 281.388981 
L 649.751306 279.181462 
L 659.330953 277.278322 
L 668.9106 275.588825 
L 678.490247 274.125809 
L 689.175238 272.731103 
L 700.965572 271.416295 
L 713.492803 270.240499 
L 728.230721 269.085928 
L 745.179327 267.984826 
L 763.233277 267.03984 
L 765.075517 266.95563 
L 765.075517 266.95563 
" clip-path="url(#p9e37898ac7)" style="fill: none; stroke: #c44e52; stroke-opacity: 0.9; stroke-width: 3; stroke-linecap: round"/>
   </g>
   <g id="line2d_59">
    <path d="M 496.476956 274.994198 
L 496.845404 279.187528 
L 497.213852 279.354252 
L 498.687644 279.309059 
L 502.003676 279.117167 
L 502.372124 278.957614 
L 502.740572 279.05165 
L 503.10902 279.780512 
L 506.056603 289.193998 
L 507.161947 291.93484 
L 508.267291 294.225798 
L 509.372635 296.118273 
L 510.477979 297.661492 
L 511.583323 298.901521 
L 512.688667 299.872597 
L 513.79401 300.608822 
L 515.267802 301.279882 
L 516.741594 301.655161 
L 518.215386 301.80245 
L 520.057626 301.749737 
L 522.636761 301.407266 
L 525.215897 300.817124 
L 529.268825 299.62015 
L 534.427096 297.825307 
L 541.059159 295.25779 
L 548.428118 292.255858 
L 550.638806 291.410911 
L 553.217942 290.67412 
L 556.165525 290.073171 
L 563.534485 288.772965 
L 566.11362 288.44736 
L 569.7981 288.448283 
L 594.852561 289.239277 
L 604.800656 289.202951 
L 615.485646 288.997076 
L 621.012366 288.655312 
L 626.539085 288.11867 
L 631.697357 287.38103 
L 637.592524 286.3025 
L 645.698379 284.79227 
L 655.278026 283.649976 
L 660.436297 283.180865 
L 668.173704 283.088625 
L 685.12231 282.911722 
L 695.070405 282.776146 
L 699.860229 282.684378 
L 717.177283 282.31448 
L 723.440898 282.331324 
L 734.862784 282.688207 
L 755.127422 283.505006 
L 762.496381 284.064552 
L 765.075517 284.319196 
L 765.075517 284.319196 
" clip-path="url(#p9e37898ac7)" style="fill: none; stroke: #8172b3; stroke-opacity: 0.9; stroke-width: 3; stroke-linecap: round"/>
   </g>
   <g id="line2d_60">
    <path d="M 496.476956 274.994198 
L 496.845404 278.35898 
L 497.5823 278.479879 
L 502.003676 278.268846 
L 502.372124 278.147116 
L 502.740572 278.292921 
L 503.477468 280.458904 
L 505.319707 286.206561 
L 506.793499 289.922271 
L 508.267291 292.876009 
L 509.372635 294.659891 
L 510.477979 296.119242 
L 511.583323 297.29598 
L 512.688667 298.222122 
L 514.162458 299.121551 
L 515.63625 299.699315 
L 517.110042 300.012997 
L 518.583834 300.118167 
L 520.426074 300.032707 
L 522.636761 299.696368 
L 525.584345 298.986524 
L 529.637273 297.825899 
L 535.53244 295.883626 
L 544.006743 292.815509 
L 550.270358 290.538715 
L 552.849494 289.824115 
L 555.797077 289.296362 
L 563.166037 288.430024 
L 584.904466 286.428617 
L 596.326353 285.15176 
L 613.643407 283.54595 
L 620.643918 282.835934 
L 627.644429 282.400356 
L 633.171148 282.238764 
L 643.487691 282.306065 
L 647.172171 282.274053 
L 651.225098 281.988852 
L 672.963528 279.795245 
L 677.016455 279.42504 
L 689.543686 278.588116 
L 695.070405 278.477171 
L 702.807812 278.648199 
L 711.650563 279.019392 
L 723.809346 279.791962 
L 735.231232 280.742853 
L 748.126911 281.73683 
L 758.443454 282.294683 
L 765.075517 282.518831 
L 765.075517 282.518831 
" clip-path="url(#p9e37898ac7)" style="fill: none; stroke: #937860; stroke-opacity: 0.9; stroke-width: 3; stroke-linecap: round"/>
   </g>
   <g id="patch_15">
    <path d="M 483.047028 373.284 
L 483.047028 253.698 
" style="fill: none; stroke: #ffffff; stroke-width: 1.25; stroke-linejoin: miter; stroke-linecap: square"/>
   </g>
   <g id="patch_16">
    <path d="M 483.047028 373.284 
L 778.505445 373.284 
" style="fill: none; stroke: #ffffff; stroke-width: 1.25; stroke-linejoin: miter; stroke-linecap: square"/>
   </g>
   <g id="text_21">
    <!-- 0.999~30 -->
    <g style="fill: #262626" transform="translate(568.112893 247.698) scale(0.252 -0.252)">
     <defs>
      <path id="DejaVuSans-39" d="M 703 97 
L 703 672 
Q 941 559 1184 500 
Q 1428 441 1663 441 
Q 2288 441 2617 861 
Q 2947 1281 2994 2138 
Q 2813 1869 2534 1725 
Q 2256 1581 1919 1581 
Q 1219 1581 811 2004 
Q 403 2428 403 3163 
Q 403 3881 828 4315 
Q 1253 4750 1959 4750 
Q 2769 4750 3195 4129 
Q 3622 3509 3622 2328 
Q 3622 1225 3098 567 
Q 2575 -91 1691 -91 
Q 1453 -91 1209 -44 
Q 966 3 703 97 
z
M 1959 2075 
Q 2384 2075 2632 2365 
Q 2881 2656 2881 3163 
Q 2881 3666 2632 3958 
Q 2384 4250 1959 4250 
Q 1534 4250 1286 3958 
Q 1038 3666 1038 3163 
Q 1038 2656 1286 2365 
Q 1534 2075 1959 2075 
z
" transform="scale(0.015625)"/>
     </defs>
     <use xlink:href="#DejaVuSans-30"/>
     <use xlink:href="#DejaVuSans-2e" x="63.623047"/>
     <use xlink:href="#DejaVuSans-39" x="95.410156"/>
     <use xlink:href="#DejaVuSans-39" x="159.033203"/>
     <use xlink:href="#DejaVuSans-39" x="222.65625"/>
     <use xlink:href="#DejaVuSans-7e" x="286.279297"/>
     <use xlink:href="#DejaVuSans-33" x="370.068359"/>
     <use xlink:href="#DejaVuSans-30" x="433.691406"/>
    </g>
   </g>
  </g>
  <g id="axes_6">
   <g id="patch_17">
    <path d="M 805.151157 373.284 
L 1100.609573 373.284 
L 1100.609573 253.698 
L 805.151157 253.698 
z
" style="fill: #eaeaf2"/>
   </g>
   <g id="matplotlib.axis_11">
    <g id="xtick_21">
     <g id="line2d_61">
      <path d="M 818.581085 373.284 
L 818.581085 253.698 
" clip-path="url(#p45848ee1fe)" style="fill: none; stroke: #ffffff; stroke-linecap: round"/>
     </g>
     <g id="text_22">
      <!-- 0 -->
      <g style="fill: #262626" transform="translate(811.232397 400.336391) scale(0.231 -0.231)">
       <use xlink:href="#DejaVuSans-30"/>
      </g>
     </g>
    </g>
    <g id="xtick_22">
     <g id="line2d_62">
      <path d="M 910.693074 373.284 
L 910.693074 253.698 
" clip-path="url(#p45848ee1fe)" style="fill: none; stroke: #ffffff; stroke-linecap: round"/>
     </g>
     <g id="text_23">
      <!-- 250 -->
      <g style="fill: #262626" transform="translate(888.647012 400.336391) scale(0.231 -0.231)">
       <use xlink:href="#DejaVuSans-32"/>
       <use xlink:href="#DejaVuSans-35" x="63.623047"/>
       <use xlink:href="#DejaVuSans-30" x="127.246094"/>
      </g>
     </g>
    </g>
    <g id="xtick_23">
     <g id="line2d_63">
      <path d="M 1002.805063 373.284 
L 1002.805063 253.698 
" clip-path="url(#p45848ee1fe)" style="fill: none; stroke: #ffffff; stroke-linecap: round"/>
     </g>
     <g id="text_24">
      <!-- 500 -->
      <g style="fill: #262626" transform="translate(980.759001 400.336391) scale(0.231 -0.231)">
       <use xlink:href="#DejaVuSans-35"/>
       <use xlink:href="#DejaVuSans-30" x="63.623047"/>
       <use xlink:href="#DejaVuSans-30" x="127.246094"/>
      </g>
     </g>
    </g>
    <g id="xtick_24">
     <g id="line2d_64">
      <path d="M 1094.917053 373.284 
L 1094.917053 253.698 
" clip-path="url(#p45848ee1fe)" style="fill: none; stroke: #ffffff; stroke-linecap: round"/>
     </g>
     <g id="text_25">
      <!-- 750 -->
      <g style="fill: #262626" transform="translate(1072.87099 400.336391) scale(0.231 -0.231)">
       <use xlink:href="#DejaVuSans-37"/>
       <use xlink:href="#DejaVuSans-35" x="63.623047"/>
       <use xlink:href="#DejaVuSans-30" x="127.246094"/>
      </g>
     </g>
    </g>
    <g id="text_26">
     <!-- step -->
     <g style="fill: #262626" transform="translate(925.62499 428.288531) scale(0.252 -0.252)">
      <use xlink:href="#DejaVuSans-73"/>
      <use xlink:href="#DejaVuSans-74" x="52.099609"/>
      <use xlink:href="#DejaVuSans-65" x="91.308594"/>
      <use xlink:href="#DejaVuSans-70" x="152.832031"/>
     </g>
    </g>
   </g>
   <g id="matplotlib.axis_12">
    <g id="ytick_11">
     <g id="line2d_65">
      <path d="M 805.151157 329.246323 
L 1100.609573 329.246323 
" clip-path="url(#p45848ee1fe)" style="fill: none; stroke: #ffffff; stroke-linecap: round"/>
     </g>
    </g>
    <g id="ytick_12">
     <g id="line2d_66">
      <path d="M 805.151157 274.994198 
L 1100.609573 274.994198 
" clip-path="url(#p45848ee1fe)" style="fill: none; stroke: #ffffff; stroke-linecap: round"/>
     </g>
    </g>
   </g>
   <g id="PolyCollection_31"/>
   <g id="PolyCollection_32"/>
   <g id="PolyCollection_33"/>
   <g id="PolyCollection_34"/>
   <g id="PolyCollection_35"/>
   <g id="PolyCollection_36"/>
   <g id="line2d_67">
    <path d="M 818.581085 274.994198 
L 818.949533 279.361953 
L 819.686429 279.558745 
L 823.739356 279.631528 
L 824.107804 279.521728 
L 824.476252 280.95117 
L 828.897628 313.371535 
L 830.739868 324.471841 
L 832.582107 334.0927 
L 834.055899 340.76008 
L 835.529691 346.544557 
L 837.003483 351.486308 
L 838.477275 355.634112 
L 839.951066 359.044853 
L 841.424858 361.781556 
L 842.530202 363.431773 
L 843.635546 364.771711 
L 844.74089 365.832878 
L 845.846234 366.641651 
L 846.951578 367.223136 
L 848.056921 367.601327 
L 849.530713 367.83469 
L 851.004505 367.792261 
L 852.478297 367.514303 
L 853.952089 367.035168 
L 855.794329 366.198508 
L 858.005016 364.910283 
L 860.584152 363.1059 
L 863.531736 360.76321 
L 867.584663 357.221438 
L 872.374487 352.710051 
L 878.269654 346.829935 
L 894.849812 330.02466 
L 895.955156 329.069626 
L 897.428948 328.135035 
L 898.534292 327.594675 
L 907.008595 324.456761 
L 909.956178 323.54331 
L 916.956689 321.425045 
L 923.220305 319.539798 
L 935.010639 316.61778 
L 946.800974 314.072275 
L 962.644236 311.100538 
L 986.224905 306.639949 
L 1002.436615 303.321042 
L 1019.753669 299.544453 
L 1045.176578 293.72427 
L 1072.073279 287.342102 
L 1085.337406 284.280143 
L 1087.179645 283.874601 
L 1087.179645 283.874601 
" clip-path="url(#p45848ee1fe)" style="fill: none; stroke: #4c72b0; stroke-opacity: 0.9; stroke-width: 3; stroke-linecap: round"/>
   </g>
   <g id="line2d_68">
    <path d="M 818.581085 274.994198 
L 818.949533 277.376397 
L 819.686429 277.513396 
L 823.370908 277.53222 
L 824.107804 277.460557 
L 824.476252 278.519011 
L 826.68694 290.793844 
L 828.160732 297.810893 
L 829.634524 303.852404 
L 831.108315 308.984225 
L 832.582107 313.265184 
L 834.055899 316.769388 
L 835.529691 319.578698 
L 836.635035 321.28078 
L 837.740379 322.67655 
L 838.845723 323.806982 
L 839.951066 324.696889 
L 841.424858 325.560747 
L 842.89865 326.11654 
L 844.372442 326.420137 
L 845.846234 326.51642 
L 847.688474 326.401548 
L 849.899161 325.993026 
L 852.109849 325.357991 
L 855.057433 324.261692 
L 858.741912 322.630549 
L 863.900184 320.096073 
L 869.795351 316.919481 
L 883.796373 308.956222 
L 891.165332 304.805264 
L 893.37602 303.915956 
L 896.323604 302.999399 
L 899.639635 302.156565 
L 902.218771 301.804217 
L 913.27221 301.754499 
L 919.167377 301.491596 
L 925.430992 300.997387 
L 932.063056 300.258501 
L 949.011662 298.205218 
L 953.801485 297.849074 
L 960.801996 297.514289 
L 987.698697 296.508025 
L 1000.962824 295.735245 
L 1014.963846 294.694756 
L 1031.544004 293.229804 
L 1055.124673 290.897908 
L 1087.179645 287.508996 
L 1087.179645 287.508996 
" clip-path="url(#p45848ee1fe)" style="fill: none; stroke: #dd8452; stroke-opacity: 0.9; stroke-width: 3; stroke-linecap: round"/>
   </g>
   <g id="line2d_69">
    <path d="M 818.581085 274.994198 
L 818.949533 279.57129 
L 819.317981 279.820974 
L 820.423325 279.90543 
L 824.107804 279.89005 
L 824.476252 280.156552 
L 824.8447 280.788733 
L 825.950044 283.720008 
L 829.634524 294.047398 
L 831.476763 298.409192 
L 833.319003 302.187529 
L 835.161243 305.437096 
L 837.003483 308.163278 
L 838.845723 310.431573 
L 840.687962 312.284766 
L 842.530202 313.771237 
L 844.372442 314.946153 
L 846.214682 315.853292 
L 848.056921 316.541822 
L 850.267609 317.115197 
L 852.478297 317.449102 
L 855.057433 317.604374 
L 858.005016 317.547342 
L 860.9526 317.278459 
L 864.63708 316.716254 
L 868.690007 315.862298 
L 873.111383 314.705679 
L 877.901206 313.226121 
L 884.164821 311.035833 
L 897.428948 306.308604 
L 904.429459 304.003159 
L 910.693074 302.222728 
L 919.535825 300.019981 
L 935.747535 296.320052 
L 960.0651 290.979481 
L 980.698186 286.66178 
L 992.488521 284.393052 
L 1002.436615 282.701227 
L 1012.38471 281.233044 
L 1023.069701 279.890006 
L 1034.860036 278.639301 
L 1048.124162 277.459168 
L 1062.86208 276.373594 
L 1079.442238 275.381153 
L 1087.179645 274.989406 
L 1087.179645 274.989406 
" clip-path="url(#p45848ee1fe)" style="fill: none; stroke: #55a868; stroke-opacity: 0.9; stroke-width: 3; stroke-linecap: round"/>
   </g>
   <g id="line2d_70">
    <path d="M 818.581085 274.994198 
L 818.949533 278.591413 
L 819.317981 278.791597 
L 820.423325 278.857677 
L 824.107804 278.832728 
L 824.476252 279.12343 
L 825.213148 280.76542 
L 830.002972 293.603994 
L 831.845211 297.622158 
L 833.687451 301.069195 
L 835.529691 303.965376 
L 837.371931 306.370218 
L 839.214171 308.341116 
L 841.05641 309.942694 
L 842.89865 311.239453 
L 844.74089 312.264742 
L 846.58313 313.058845 
L 848.793817 313.755866 
L 851.004505 314.224567 
L 853.583641 314.535558 
L 856.531225 314.645595 
L 859.478808 314.539816 
L 862.79484 314.203972 
L 866.847767 313.548398 
L 871.269143 312.610703 
L 876.795862 311.201179 
L 882.691029 309.470972 
L 891.53378 306.615978 
L 902.218771 303.209819 
L 910.324626 300.86462 
L 918.062033 298.887437 
L 928.747024 296.391937 
L 949.011662 291.905357 
L 964.118028 288.765456 
L 978.855946 285.906342 
L 991.014729 283.758377 
L 1002.068167 282.030289 
L 1012.753158 280.58039 
L 1023.438149 279.355358 
L 1035.228484 278.226994 
L 1049.229506 277.123213 
L 1065.072768 276.103499 
L 1083.126718 275.166097 
L 1087.179645 274.983322 
L 1087.179645 274.983322 
" clip-path="url(#p45848ee1fe)" style="fill: none; stroke: #c44e52; stroke-opacity: 0.9; stroke-width: 3; stroke-linecap: round"/>
   </g>
   <g id="line2d_71">
    <path d="M 818.581085 274.994198 
L 818.949533 279.187528 
L 819.317981 279.373016 
L 820.791773 279.407994 
L 824.8447 279.431921 
L 825.213148 280.054874 
L 828.897628 291.221996 
L 830.37142 294.489426 
L 831.845211 297.076617 
L 833.319003 299.099546 
L 834.792795 300.662379 
L 836.266587 301.844702 
L 837.740379 302.71643 
L 839.214171 303.336084 
L 841.05641 303.832404 
L 842.89865 304.093004 
L 845.109338 304.170043 
L 847.688474 304.02028 
L 850.636057 303.624209 
L 854.320537 302.898506 
L 859.11036 301.714341 
L 864.63708 300.114372 
L 871.637591 297.840986 
L 879.743446 294.949795 
L 886.007061 292.770291 
L 888.217749 292.340812 
L 891.165332 292.071737 
L 911.061522 291.164737 
L 921.009617 291.274443 
L 930.957712 291.601643 
L 953.433037 292.483154 
L 963.012684 292.570803 
L 973.329227 292.436798 
L 984.382665 292.064829 
L 998.01524 291.404192 
L 1012.753158 290.470128 
L 1033.386244 288.92602 
L 1043.702787 287.937804 
L 1061.388288 285.945921 
L 1073.915519 284.62936 
L 1084.60051 283.786237 
L 1087.179645 283.673852 
L 1087.179645 283.673852 
" clip-path="url(#p45848ee1fe)" style="fill: none; stroke: #8172b3; stroke-opacity: 0.9; stroke-width: 3; stroke-linecap: round"/>
   </g>
   <g id="line2d_72">
    <path d="M 818.581085 274.994198 
L 818.949533 278.35898 
L 819.686429 278.509587 
L 824.8447 278.57772 
L 825.213148 279.42373 
L 827.792284 287.271071 
L 829.266076 290.8369 
L 830.739868 293.69416 
L 832.213659 295.951206 
L 833.687451 297.712501 
L 835.161243 299.063204 
L 836.635035 300.076632 
L 838.108827 300.816901 
L 839.951066 301.442968 
L 841.793306 301.814338 
L 844.003994 302.006832 
L 846.58313 301.975273 
L 849.530713 301.701021 
L 853.215193 301.125585 
L 857.636568 300.20137 
L 863.163288 298.81104 
L 869.795351 296.900139 
L 877.532758 294.459541 
L 884.533269 292.316968 
L 887.112405 291.821339 
L 889.323093 291.633968 
L 908.850834 290.684141 
L 920.272721 290.199882 
L 933.536847 289.401301 
L 949.38011 288.213698 
L 966.697164 286.910545 
L 974.066123 286.649708 
L 996.173 286.197795 
L 1006.121095 286.080867 
L 1015.700742 285.73389 
L 1030.43866 284.936747 
L 1050.33485 283.873604 
L 1066.54656 283.169973 
L 1078.705342 282.391059 
L 1087.179645 281.734667 
L 1087.179645 281.734667 
" clip-path="url(#p45848ee1fe)" style="fill: none; stroke: #937860; stroke-opacity: 0.9; stroke-width: 3; stroke-linecap: round"/>
   </g>
   <g id="patch_18">
    <path d="M 805.151157 373.284 
L 805.151157 253.698 
" style="fill: none; stroke: #ffffff; stroke-width: 1.25; stroke-linejoin: miter; stroke-linecap: square"/>
   </g>
   <g id="patch_19">
    <path d="M 805.151157 373.284 
L 1100.609573 373.284 
" style="fill: none; stroke: #ffffff; stroke-width: 1.25; stroke-linejoin: miter; stroke-linecap: square"/>
   </g>
   <g id="text_27">
    <!-- 0.999~365 -->
    <g style="fill: #262626" transform="translate(882.200271 247.698) scale(0.252 -0.252)">
     <use xlink:href="#DejaVuSans-30"/>
     <use xlink:href="#DejaVuSans-2e" x="63.623047"/>
     <use xlink:href="#DejaVuSans-39" x="95.410156"/>
     <use xlink:href="#DejaVuSans-39" x="159.033203"/>
     <use xlink:href="#DejaVuSans-39" x="222.65625"/>
     <use xlink:href="#DejaVuSans-7e" x="286.279297"/>
     <use xlink:href="#DejaVuSans-33" x="370.068359"/>
     <use xlink:href="#DejaVuSans-36" x="433.691406"/>
     <use xlink:href="#DejaVuSans-35" x="497.314453"/>
    </g>
   </g>
  </g>
  <g id="text_28">
   <!-- Production change from pre-shock level -->
   <g style="fill: #262626" transform="translate(280.766836 30.177675) scale(0.3024 -0.3024)">
    <defs>
     <path id="DejaVuSans-50" d="M 1259 4147 
L 1259 2394 
L 2053 2394 
Q 2494 2394 2734 2622 
Q 2975 2850 2975 3272 
Q 2975 3691 2734 3919 
Q 2494 4147 2053 4147 
L 1259 4147 
z
M 628 4666 
L 2053 4666 
Q 2838 4666 3239 4311 
Q 3641 3956 3641 3272 
Q 3641 2581 3239 2228 
Q 2838 1875 2053 1875 
L 1259 1875 
L 1259 0 
L 628 0 
L 628 4666 
z
" transform="scale(0.015625)"/>
     <path id="DejaVuSans-72" d="M 2631 2963 
Q 2534 3019 2420 3045 
Q 2306 3072 2169 3072 
Q 1681 3072 1420 2755 
Q 1159 2438 1159 1844 
L 1159 0 
L 581 0 
L 581 3500 
L 1159 3500 
L 1159 2956 
Q 1341 3275 1631 3429 
Q 1922 3584 2338 3584 
Q 2397 3584 2469 3576 
Q 2541 3569 2628 3553 
L 2631 2963 
z
" transform="scale(0.015625)"/>
     <path id="DejaVuSans-6f" d="M 1959 3097 
Q 1497 3097 1228 2736 
Q 959 2375 959 1747 
Q 959 1119 1226 758 
Q 1494 397 1959 397 
Q 2419 397 2687 759 
Q 2956 1122 2956 1747 
Q 2956 2369 2687 2733 
Q 2419 3097 1959 3097 
z
M 1959 3584 
Q 2709 3584 3137 3096 
Q 3566 2609 3566 1747 
Q 3566 888 3137 398 
Q 2709 -91 1959 -91 
Q 1206 -91 779 398 
Q 353 888 353 1747 
Q 353 2609 779 3096 
Q 1206 3584 1959 3584 
z
" transform="scale(0.015625)"/>
     <path id="DejaVuSans-64" d="M 2906 2969 
L 2906 4863 
L 3481 4863 
L 3481 0 
L 2906 0 
L 2906 525 
Q 2725 213 2448 61 
Q 2172 -91 1784 -91 
Q 1150 -91 751 415 
Q 353 922 353 1747 
Q 353 2572 751 3078 
Q 1150 3584 1784 3584 
Q 2172 3584 2448 3432 
Q 2725 3281 2906 2969 
z
M 947 1747 
Q 947 1113 1208 752 
Q 1469 391 1925 391 
Q 2381 391 2643 752 
Q 2906 1113 2906 1747 
Q 2906 2381 2643 2742 
Q 2381 3103 1925 3103 
Q 1469 3103 1208 2742 
Q 947 2381 947 1747 
z
" transform="scale(0.015625)"/>
     <path id="DejaVuSans-75" d="M 544 1381 
L 544 3500 
L 1119 3500 
L 1119 1403 
Q 1119 906 1312 657 
Q 1506 409 1894 409 
Q 2359 409 2629 706 
Q 2900 1003 2900 1516 
L 2900 3500 
L 3475 3500 
L 3475 0 
L 2900 0 
L 2900 538 
Q 2691 219 2414 64 
Q 2138 -91 1772 -91 
Q 1169 -91 856 284 
Q 544 659 544 1381 
z
M 1991 3584 
L 1991 3584 
z
" transform="scale(0.015625)"/>
     <path id="DejaVuSans-69" d="M 603 3500 
L 1178 3500 
L 1178 0 
L 603 0 
L 603 3500 
z
M 603 4863 
L 1178 4863 
L 1178 4134 
L 603 4134 
L 603 4863 
z
" transform="scale(0.015625)"/>
     <path id="DejaVuSans-66" d="M 2375 4863 
L 2375 4384 
L 1825 4384 
Q 1516 4384 1395 4259 
Q 1275 4134 1275 3809 
L 1275 3500 
L 2222 3500 
L 2222 3053 
L 1275 3053 
L 1275 0 
L 697 0 
L 697 3053 
L 147 3053 
L 147 3500 
L 697 3500 
L 697 3744 
Q 697 4328 969 4595 
Q 1241 4863 1831 4863 
L 2375 4863 
z
" transform="scale(0.015625)"/>
     <path id="DejaVuSans-6d" d="M 3328 2828 
Q 3544 3216 3844 3400 
Q 4144 3584 4550 3584 
Q 5097 3584 5394 3201 
Q 5691 2819 5691 2113 
L 5691 0 
L 5113 0 
L 5113 2094 
Q 5113 2597 4934 2840 
Q 4756 3084 4391 3084 
Q 3944 3084 3684 2787 
Q 3425 2491 3425 1978 
L 3425 0 
L 2847 0 
L 2847 2094 
Q 2847 2600 2669 2842 
Q 2491 3084 2119 3084 
Q 1678 3084 1418 2786 
Q 1159 2488 1159 1978 
L 1159 0 
L 581 0 
L 581 3500 
L 1159 3500 
L 1159 2956 
Q 1356 3278 1631 3431 
Q 1906 3584 2284 3584 
Q 2666 3584 2933 3390 
Q 3200 3197 3328 2828 
z
" transform="scale(0.015625)"/>
     <path id="DejaVuSans-2d" d="M 313 2009 
L 1997 2009 
L 1997 1497 
L 313 1497 
L 313 2009 
z
" transform="scale(0.015625)"/>
     <path id="DejaVuSans-6b" d="M 581 4863 
L 1159 4863 
L 1159 1991 
L 2875 3500 
L 3609 3500 
L 1753 1863 
L 3688 0 
L 2938 0 
L 1159 1709 
L 1159 0 
L 581 0 
L 581 4863 
z
" transform="scale(0.015625)"/>
     <path id="DejaVuSans-6c" d="M 603 4863 
L 1178 4863 
L 1178 0 
L 603 0 
L 603 4863 
z
" transform="scale(0.015625)"/>
     <path id="DejaVuSans-76" d="M 191 3500 
L 800 3500 
L 1894 563 
L 2988 3500 
L 3597 3500 
L 2284 0 
L 1503 0 
L 191 3500 
z
" transform="scale(0.015625)"/>
    </defs>
    <use xlink:href="#DejaVuSans-50"/>
    <use xlink:href="#DejaVuSans-72" x="58.552734"/>
    <use xlink:href="#DejaVuSans-6f" x="97.416016"/>
    <use xlink:href="#DejaVuSans-64" x="158.597656"/>
    <use xlink:href="#DejaVuSans-75" x="222.074219"/>
    <use xlink:href="#DejaVuSans-63" x="285.453125"/>
    <use xlink:href="#DejaVuSans-74" x="340.433594"/>
    <use xlink:href="#DejaVuSans-69" x="379.642578"/>
    <use xlink:href="#DejaVuSans-6f" x="407.425781"/>
    <use xlink:href="#DejaVuSans-6e" x="468.607422"/>
    <use xlink:href="#DejaVuSans-20" x="531.986328"/>
    <use xlink:href="#DejaVuSans-63" x="563.773438"/>
    <use xlink:href="#DejaVuSans-68" x="618.753906"/>
    <use xlink:href="#DejaVuSans-61" x="682.132812"/>
    <use xlink:href="#DejaVuSans-6e" x="743.412109"/>
    <use xlink:href="#DejaVuSans-67" x="806.791016"/>
    <use xlink:href="#DejaVuSans-65" x="870.267578"/>
    <use xlink:href="#DejaVuSans-20" x="931.791016"/>
    <use xlink:href="#DejaVuSans-66" x="963.578125"/>
    <use xlink:href="#DejaVuSans-72" x="998.783203"/>
    <use xlink:href="#DejaVuSans-6f" x="1037.646484"/>
    <use xlink:href="#DejaVuSans-6d" x="1098.828125"/>
    <use xlink:href="#DejaVuSans-20" x="1196.240234"/>
    <use xlink:href="#DejaVuSans-70" x="1228.027344"/>
    <use xlink:href="#DejaVuSans-72" x="1291.503906"/>
    <use xlink:href="#DejaVuSans-65" x="1330.367188"/>
    <use xlink:href="#DejaVuSans-2d" x="1391.890625"/>
    <use xlink:href="#DejaVuSans-73" x="1427.974609"/>
    <use xlink:href="#DejaVuSans-68" x="1480.074219"/>
    <use xlink:href="#DejaVuSans-6f" x="1543.453125"/>
    <use xlink:href="#DejaVuSans-63" x="1604.634766"/>
    <use xlink:href="#DejaVuSans-6b" x="1659.615234"/>
    <use xlink:href="#DejaVuSans-20" x="1717.525391"/>
    <use xlink:href="#DejaVuSans-6c" x="1749.3125"/>
    <use xlink:href="#DejaVuSans-65" x="1777.095703"/>
    <use xlink:href="#DejaVuSans-76" x="1838.619141"/>
    <use xlink:href="#DejaVuSans-65" x="1897.798828"/>
    <use xlink:href="#DejaVuSans-6c" x="1959.322266"/>
   </g>
  </g>
  <g id="legend_1">
   <g id="patch_20">
    <path d="M 11.82 584.31675 
L 1292.617547 584.31675 
Q 1297.237547 584.31675 1297.237547 579.69675 
L 1297.237547 476.97 
Q 1297.237547 472.35 1292.617547 472.35 
L 11.82 472.35 
Q 7.2 472.35 7.2 476.97 
L 7.2 579.69675 
Q 7.2 584.31675 11.82 584.31675 
z
" style="fill: #eaeaf2; opacity: 0.8; stroke: #cccccc; stroke-linejoin: miter"/>
   </g>
   <g id="text_29">
    <!-- Experiences -->
    <g style="fill: #262626" transform="translate(575.384367 500.738062) scale(0.252 -0.252)">
     <defs>
      <path id="DejaVuSans-45" d="M 628 4666 
L 3578 4666 
L 3578 4134 
L 1259 4134 
L 1259 2753 
L 3481 2753 
L 3481 2222 
L 1259 2222 
L 1259 531 
L 3634 531 
L 3634 0 
L 628 0 
L 628 4666 
z
" transform="scale(0.015625)"/>
      <path id="DejaVuSans-78" d="M 3513 3500 
L 2247 1797 
L 3578 0 
L 2900 0 
L 1881 1375 
L 863 0 
L 184 0 
L 1544 1831 
L 300 3500 
L 978 3500 
L 1906 2253 
L 2834 3500 
L 3513 3500 
z
" transform="scale(0.015625)"/>
     </defs>
     <use xlink:href="#DejaVuSans-45"/>
     <use xlink:href="#DejaVuSans-78" x="63.183594"/>
     <use xlink:href="#DejaVuSans-70" x="122.363281"/>
     <use xlink:href="#DejaVuSans-65" x="185.839844"/>
     <use xlink:href="#DejaVuSans-72" x="247.363281"/>
     <use xlink:href="#DejaVuSans-69" x="288.476562"/>
     <use xlink:href="#DejaVuSans-65" x="316.259766"/>
     <use xlink:href="#DejaVuSans-6e" x="377.783203"/>
     <use xlink:href="#DejaVuSans-63" x="441.162109"/>
     <use xlink:href="#DejaVuSans-65" x="496.142578"/>
     <use xlink:href="#DejaVuSans-73" x="557.666016"/>
    </g>
   </g>
   <g id="line2d_73">
    <path d="M 16.44 526.996266 
L 39.54 526.996266 
L 62.64 526.996266 
" style="fill: none; stroke: #4c72b0; stroke-opacity: 0.9; stroke-width: 3; stroke-linecap: round"/>
   </g>
   <g id="text_30">
    <!-- eora26_full_2000 -->
    <g style="fill: #262626" transform="translate(81.12 535.081266) scale(0.231 -0.231)">
     <defs>
      <path id="DejaVuSans-5f" d="M 3263 -1063 
L 3263 -1509 
L -63 -1509 
L -63 -1063 
L 3263 -1063 
z
" transform="scale(0.015625)"/>
     </defs>
     <use xlink:href="#DejaVuSans-65"/>
     <use xlink:href="#DejaVuSans-6f" x="61.523438"/>
     <use xlink:href="#DejaVuSans-72" x="122.705078"/>
     <use xlink:href="#DejaVuSans-61" x="163.818359"/>
     <use xlink:href="#DejaVuSans-32" x="225.097656"/>
     <use xlink:href="#DejaVuSans-36" x="288.720703"/>
     <use xlink:href="#DejaVuSans-5f" x="352.34375"/>
     <use xlink:href="#DejaVuSans-66" x="402.34375"/>
     <use xlink:href="#DejaVuSans-75" x="437.548828"/>
     <use xlink:href="#DejaVuSans-6c" x="500.927734"/>
     <use xlink:href="#DejaVuSans-6c" x="528.710938"/>
     <use xlink:href="#DejaVuSans-5f" x="556.494141"/>
     <use xlink:href="#DejaVuSans-32" x="606.494141"/>
     <use xlink:href="#DejaVuSans-30" x="670.117188"/>
     <use xlink:href="#DejaVuSans-30" x="733.740234"/>
     <use xlink:href="#DejaVuSans-30" x="797.363281"/>
    </g>
   </g>
   <g id="line2d_74">
    <path d="M 16.44 561.545203 
L 39.54 561.545203 
L 62.64 561.545203 
" style="fill: none; stroke: #dd8452; stroke-opacity: 0.9; stroke-width: 3; stroke-linecap: round"/>
   </g>
   <g id="text_31">
    <!-- eora26_full_2010 -->
    <g style="fill: #262626" transform="translate(81.12 569.630203) scale(0.231 -0.231)">
     <use xlink:href="#DejaVuSans-65"/>
     <use xlink:href="#DejaVuSans-6f" x="61.523438"/>
     <use xlink:href="#DejaVuSans-72" x="122.705078"/>
     <use xlink:href="#DejaVuSans-61" x="163.818359"/>
     <use xlink:href="#DejaVuSans-32" x="225.097656"/>
     <use xlink:href="#DejaVuSans-36" x="288.720703"/>
     <use xlink:href="#DejaVuSans-5f" x="352.34375"/>
     <use xlink:href="#DejaVuSans-66" x="402.34375"/>
     <use xlink:href="#DejaVuSans-75" x="437.548828"/>
     <use xlink:href="#DejaVuSans-6c" x="500.927734"/>
     <use xlink:href="#DejaVuSans-6c" x="528.710938"/>
     <use xlink:href="#DejaVuSans-5f" x="556.494141"/>
     <use xlink:href="#DejaVuSans-32" x="606.494141"/>
     <use xlink:href="#DejaVuSans-30" x="670.117188"/>
     <use xlink:href="#DejaVuSans-31" x="733.740234"/>
     <use xlink:href="#DejaVuSans-30" x="797.363281"/>
    </g>
   </g>
   <g id="line2d_75">
    <path d="M 326.211 526.996266 
L 349.311 526.996266 
L 372.411 526.996266 
" style="fill: none; stroke: #55a868; stroke-opacity: 0.9; stroke-width: 3; stroke-linecap: round"/>
   </g>
   <g id="text_32">
    <!-- euregio_full_2000 -->
    <g style="fill: #262626" transform="translate(390.891 535.081266) scale(0.231 -0.231)">
     <use xlink:href="#DejaVuSans-65"/>
     <use xlink:href="#DejaVuSans-75" x="61.523438"/>
     <use xlink:href="#DejaVuSans-72" x="124.902344"/>
     <use xlink:href="#DejaVuSans-65" x="163.765625"/>
     <use xlink:href="#DejaVuSans-67" x="225.289062"/>
     <use xlink:href="#DejaVuSans-69" x="288.765625"/>
     <use xlink:href="#DejaVuSans-6f" x="316.548828"/>
     <use xlink:href="#DejaVuSans-5f" x="377.730469"/>
     <use xlink:href="#DejaVuSans-66" x="427.730469"/>
     <use xlink:href="#DejaVuSans-75" x="462.935547"/>
     <use xlink:href="#DejaVuSans-6c" x="526.314453"/>
     <use xlink:href="#DejaVuSans-6c" x="554.097656"/>
     <use xlink:href="#DejaVuSans-5f" x="581.880859"/>
     <use xlink:href="#DejaVuSans-32" x="631.880859"/>
     <use xlink:href="#DejaVuSans-30" x="695.503906"/>
     <use xlink:href="#DejaVuSans-30" x="759.126953"/>
     <use xlink:href="#DejaVuSans-30" x="822.75"/>
    </g>
   </g>
   <g id="line2d_76">
    <path d="M 326.211 561.545203 
L 349.311 561.545203 
L 372.411 561.545203 
" style="fill: none; stroke: #c44e52; stroke-opacity: 0.9; stroke-width: 3; stroke-linecap: round"/>
   </g>
   <g id="text_33">
    <!-- euregio_full_2010 -->
    <g style="fill: #262626" transform="translate(390.891 569.630203) scale(0.231 -0.231)">
     <use xlink:href="#DejaVuSans-65"/>
     <use xlink:href="#DejaVuSans-75" x="61.523438"/>
     <use xlink:href="#DejaVuSans-72" x="124.902344"/>
     <use xlink:href="#DejaVuSans-65" x="163.765625"/>
     <use xlink:href="#DejaVuSans-67" x="225.289062"/>
     <use xlink:href="#DejaVuSans-69" x="288.765625"/>
     <use xlink:href="#DejaVuSans-6f" x="316.548828"/>
     <use xlink:href="#DejaVuSans-5f" x="377.730469"/>
     <use xlink:href="#DejaVuSans-66" x="427.730469"/>
     <use xlink:href="#DejaVuSans-75" x="462.935547"/>
     <use xlink:href="#DejaVuSans-6c" x="526.314453"/>
     <use xlink:href="#DejaVuSans-6c" x="554.097656"/>
     <use xlink:href="#DejaVuSans-5f" x="581.880859"/>
     <use xlink:href="#DejaVuSans-32" x="631.880859"/>
     <use xlink:href="#DejaVuSans-30" x="695.503906"/>
     <use xlink:href="#DejaVuSans-31" x="759.126953"/>
     <use xlink:href="#DejaVuSans-30" x="822.75"/>
    </g>
   </g>
   <g id="line2d_77">
    <path d="M 641.847234 526.996266 
L 664.947234 526.996266 
L 688.047234 526.996266 
" style="fill: none; stroke: #8172b3; stroke-opacity: 0.9; stroke-width: 3; stroke-linecap: round"/>
   </g>
   <g id="text_34">
    <!-- exiobase3_full_2000 -->
    <g style="fill: #262626" transform="translate(706.527234 535.081266) scale(0.231 -0.231)">
     <defs>
      <path id="DejaVuSans-62" d="M 3116 1747 
Q 3116 2381 2855 2742 
Q 2594 3103 2138 3103 
Q 1681 3103 1420 2742 
Q 1159 2381 1159 1747 
Q 1159 1113 1420 752 
Q 1681 391 2138 391 
Q 2594 391 2855 752 
Q 3116 1113 3116 1747 
z
M 1159 2969 
Q 1341 3281 1617 3432 
Q 1894 3584 2278 3584 
Q 2916 3584 3314 3078 
Q 3713 2572 3713 1747 
Q 3713 922 3314 415 
Q 2916 -91 2278 -91 
Q 1894 -91 1617 61 
Q 1341 213 1159 525 
L 1159 0 
L 581 0 
L 581 4863 
L 1159 4863 
L 1159 2969 
z
" transform="scale(0.015625)"/>
     </defs>
     <use xlink:href="#DejaVuSans-65"/>
     <use xlink:href="#DejaVuSans-78" x="59.773438"/>
     <use xlink:href="#DejaVuSans-69" x="118.953125"/>
     <use xlink:href="#DejaVuSans-6f" x="146.736328"/>
     <use xlink:href="#DejaVuSans-62" x="207.917969"/>
     <use xlink:href="#DejaVuSans-61" x="271.394531"/>
     <use xlink:href="#DejaVuSans-73" x="332.673828"/>
     <use xlink:href="#DejaVuSans-65" x="384.773438"/>
     <use xlink:href="#DejaVuSans-33" x="446.296875"/>
     <use xlink:href="#DejaVuSans-5f" x="509.919922"/>
     <use xlink:href="#DejaVuSans-66" x="559.919922"/>
     <use xlink:href="#DejaVuSans-75" x="595.125"/>
     <use xlink:href="#DejaVuSans-6c" x="658.503906"/>
     <use xlink:href="#DejaVuSans-6c" x="686.287109"/>
     <use xlink:href="#DejaVuSans-5f" x="714.070312"/>
     <use xlink:href="#DejaVuSans-32" x="764.070312"/>
     <use xlink:href="#DejaVuSans-30" x="827.693359"/>
     <use xlink:href="#DejaVuSans-30" x="891.316406"/>
     <use xlink:href="#DejaVuSans-30" x="954.939453"/>
    </g>
   </g>
   <g id="line2d_78">
    <path d="M 988.022391 526.996266 
L 1011.122391 526.996266 
L 1034.222391 526.996266 
" style="fill: none; stroke: #937860; stroke-opacity: 0.9; stroke-width: 3; stroke-linecap: round"/>
   </g>
   <g id="text_35">
    <!-- exiobase3_full_2010 -->
    <g style="fill: #262626" transform="translate(1052.702391 535.081266) scale(0.231 -0.231)">
     <use xlink:href="#DejaVuSans-65"/>
     <use xlink:href="#DejaVuSans-78" x="59.773438"/>
     <use xlink:href="#DejaVuSans-69" x="118.953125"/>
     <use xlink:href="#DejaVuSans-6f" x="146.736328"/>
     <use xlink:href="#DejaVuSans-62" x="207.917969"/>
     <use xlink:href="#DejaVuSans-61" x="271.394531"/>
     <use xlink:href="#DejaVuSans-73" x="332.673828"/>
     <use xlink:href="#DejaVuSans-65" x="384.773438"/>
     <use xlink:href="#DejaVuSans-33" x="446.296875"/>
     <use xlink:href="#DejaVuSans-5f" x="509.919922"/>
     <use xlink:href="#DejaVuSans-66" x="559.919922"/>
     <use xlink:href="#DejaVuSans-75" x="595.125"/>
     <use xlink:href="#DejaVuSans-6c" x="658.503906"/>
     <use xlink:href="#DejaVuSans-6c" x="686.287109"/>
     <use xlink:href="#DejaVuSans-5f" x="714.070312"/>
     <use xlink:href="#DejaVuSans-32" x="764.070312"/>
     <use xlink:href="#DejaVuSans-30" x="827.693359"/>
     <use xlink:href="#DejaVuSans-31" x="891.316406"/>
     <use xlink:href="#DejaVuSans-30" x="954.939453"/>
    </g>
   </g>
  </g>
 </g>
 <defs>
  <clipPath id="pa09def4a4c">
   <rect x="160.9429" y="81.456" width="295.458416" height="119.586"/>
  </clipPath>
  <clipPath id="p597fb0da3d">
   <rect x="483.047028" y="81.456" width="295.458416" height="119.586"/>
  </clipPath>
  <clipPath id="p0dd48c2dfb">
   <rect x="805.151157" y="81.456" width="295.458416" height="119.586"/>
  </clipPath>
  <clipPath id="p55ec8d26a3">
   <rect x="160.9429" y="253.698" width="295.458416" height="119.586"/>
  </clipPath>
  <clipPath id="p9e37898ac7">
   <rect x="483.047028" y="253.698" width="295.458416" height="119.586"/>
  </clipPath>
  <clipPath id="p45848ee1fe">
   <rect x="805.151157" y="253.698" width="295.458416" height="119.586"/>
  </clipPath>
 </defs>
</svg>
