<?xml version="1.0" encoding="utf-8" standalone="no"?>
<!DOCTYPE svg PUBLIC "-//W3C//DTD SVG 1.1//EN"
  "http://www.w3.org/Graphics/SVG/1.1/DTD/svg11.dtd">
<svg xmlns:xlink="http://www.w3.org/1999/xlink" width="2091.39617pt" height="330.167813pt" viewBox="0 0 2091.39617 330.167813" xmlns="http://www.w3.org/2000/svg" version="1.1">
 <metadata>
  <rdf:RDF xmlns:dc="http://purl.org/dc/elements/1.1/" xmlns:cc="http://creativecommons.org/ns#" xmlns:rdf="http://www.w3.org/1999/02/22-rdf-syntax-ns#">
   <cc:Work>
    <dc:type rdf:resource="http://purl.org/dc/dcmitype/StillImage"/>
    <dc:date>2023-04-07T16:34:06.511990</dc:date>
    <dc:format>image/svg+xml</dc:format>
    <dc:creator>
     <cc:Agent>
      <dc:title>Matplotlib v3.7.1, https://matplotlib.org/</dc:title>
     </cc:Agent>
    </dc:creator>
   </cc:Work>
  </rdf:RDF>
 </metadata>
 <defs>
  <style type="text/css">*{stroke-linejoin: round; stroke-linecap: butt}</style>
 </defs>
 <g id="figure_1">
  <g id="patch_1">
   <path d="M 0 330.167813 
L 2091.39617 330.167813 
L 2091.39617 0 
L 0 0 
z
" style="fill: #ffffff"/>
  </g>
  <g id="axes_1">
   <g id="patch_2">
    <path d="M 93.840703 146.484 
L 387.803268 146.484 
L 387.803268 70.656 
L 93.840703 70.656 
z
" style="fill: #eaeaf2"/>
   </g>
   <g id="matplotlib.axis_1">
    <g id="xtick_1">
     <g id="line2d_1">
      <path d="M 107.202638 146.484 
L 107.202638 70.656 
" clip-path="url(#p66818b95bd)" style="fill: none; stroke: #ffffff; stroke-linecap: round"/>
     </g>
     <g id="text_1">
      <!-- 0 -->
      <g style="fill: #262626" transform="translate(99.85395 173.536391) scale(0.231 -0.231)">
       <defs>
        <path id="DejaVuSans-30" d="M 2034 4250 
Q 1547 4250 1301 3770 
Q 1056 3291 1056 2328 
Q 1056 1369 1301 889 
Q 1547 409 2034 409 
Q 2525 409 2770 889 
Q 3016 1369 3016 2328 
Q 3016 3291 2770 3770 
Q 2525 4250 2034 4250 
z
M 2034 4750 
Q 2819 4750 3233 4129 
Q 3647 3509 3647 2328 
Q 3647 1150 3233 529 
Q 2819 -91 2034 -91 
Q 1250 -91 836 529 
Q 422 1150 422 2328 
Q 422 3509 836 4129 
Q 1250 4750 2034 4750 
z
" transform="scale(0.015625)"/>
       </defs>
       <use xlink:href="#DejaVuSans-30"/>
      </g>
     </g>
    </g>
    <g id="xtick_2">
     <g id="line2d_2">
      <path d="M 198.848281 146.484 
L 198.848281 70.656 
" clip-path="url(#p66818b95bd)" style="fill: none; stroke: #ffffff; stroke-linecap: round"/>
     </g>
     <g id="text_2">
      <!-- 250 -->
      <g style="fill: #262626" transform="translate(176.802219 173.536391) scale(0.231 -0.231)">
       <defs>
        <path id="DejaVuSans-32" d="M 1228 531 
L 3431 531 
L 3431 0 
L 469 0 
L 469 531 
Q 828 903 1448 1529 
Q 2069 2156 2228 2338 
Q 2531 2678 2651 2914 
Q 2772 3150 2772 3378 
Q 2772 3750 2511 3984 
Q 2250 4219 1831 4219 
Q 1534 4219 1204 4116 
Q 875 4013 500 3803 
L 500 4441 
Q 881 4594 1212 4672 
Q 1544 4750 1819 4750 
Q 2544 4750 2975 4387 
Q 3406 4025 3406 3419 
Q 3406 3131 3298 2873 
Q 3191 2616 2906 2266 
Q 2828 2175 2409 1742 
Q 1991 1309 1228 531 
z
" transform="scale(0.015625)"/>
        <path id="DejaVuSans-35" d="M 691 4666 
L 3169 4666 
L 3169 4134 
L 1269 4134 
L 1269 2991 
Q 1406 3038 1543 3061 
Q 1681 3084 1819 3084 
Q 2600 3084 3056 2656 
Q 3513 2228 3513 1497 
Q 3513 744 3044 326 
Q 2575 -91 1722 -91 
Q 1428 -91 1123 -41 
Q 819 9 494 109 
L 494 744 
Q 775 591 1075 516 
Q 1375 441 1709 441 
Q 2250 441 2565 725 
Q 2881 1009 2881 1497 
Q 2881 1984 2565 2268 
Q 2250 2553 1709 2553 
Q 1456 2553 1204 2497 
Q 953 2441 691 2322 
L 691 4666 
z
" transform="scale(0.015625)"/>
       </defs>
       <use xlink:href="#DejaVuSans-32"/>
       <use xlink:href="#DejaVuSans-35" x="63.623047"/>
       <use xlink:href="#DejaVuSans-30" x="127.246094"/>
      </g>
     </g>
    </g>
    <g id="xtick_3">
     <g id="line2d_3">
      <path d="M 290.493924 146.484 
L 290.493924 70.656 
" clip-path="url(#p66818b95bd)" style="fill: none; stroke: #ffffff; stroke-linecap: round"/>
     </g>
     <g id="text_3">
      <!-- 500 -->
      <g style="fill: #262626" transform="translate(268.447862 173.536391) scale(0.231 -0.231)">
       <use xlink:href="#DejaVuSans-35"/>
       <use xlink:href="#DejaVuSans-30" x="63.623047"/>
       <use xlink:href="#DejaVuSans-30" x="127.246094"/>
      </g>
     </g>
    </g>
    <g id="xtick_4">
     <g id="line2d_4">
      <path d="M 382.139568 146.484 
L 382.139568 70.656 
" clip-path="url(#p66818b95bd)" style="fill: none; stroke: #ffffff; stroke-linecap: round"/>
     </g>
     <g id="text_4">
      <!-- 750 -->
      <g style="fill: #262626" transform="translate(360.093505 173.536391) scale(0.231 -0.231)">
       <defs>
        <path id="DejaVuSans-37" d="M 525 4666 
L 3525 4666 
L 3525 4397 
L 1831 0 
L 1172 0 
L 2766 4134 
L 525 4134 
L 525 4666 
z
" transform="scale(0.015625)"/>
       </defs>
       <use xlink:href="#DejaVuSans-37"/>
       <use xlink:href="#DejaVuSans-35" x="63.623047"/>
       <use xlink:href="#DejaVuSans-30" x="127.246094"/>
      </g>
     </g>
    </g>
    <g id="text_5">
     <!-- step -->
     <g style="fill: #262626" transform="translate(213.566611 201.488531) scale(0.252 -0.252)">
      <defs>
       <path id="DejaVuSans-73" d="M 2834 3397 
L 2834 2853 
Q 2591 2978 2328 3040 
Q 2066 3103 1784 3103 
Q 1356 3103 1142 2972 
Q 928 2841 928 2578 
Q 928 2378 1081 2264 
Q 1234 2150 1697 2047 
L 1894 2003 
Q 2506 1872 2764 1633 
Q 3022 1394 3022 966 
Q 3022 478 2636 193 
Q 2250 -91 1575 -91 
Q 1294 -91 989 -36 
Q 684 19 347 128 
L 347 722 
Q 666 556 975 473 
Q 1284 391 1588 391 
Q 1994 391 2212 530 
Q 2431 669 2431 922 
Q 2431 1156 2273 1281 
Q 2116 1406 1581 1522 
L 1381 1569 
Q 847 1681 609 1914 
Q 372 2147 372 2553 
Q 372 3047 722 3315 
Q 1072 3584 1716 3584 
Q 2034 3584 2315 3537 
Q 2597 3491 2834 3397 
z
" transform="scale(0.015625)"/>
       <path id="DejaVuSans-74" d="M 1172 4494 
L 1172 3500 
L 2356 3500 
L 2356 3053 
L 1172 3053 
L 1172 1153 
Q 1172 725 1289 603 
Q 1406 481 1766 481 
L 2356 481 
L 2356 0 
L 1766 0 
Q 1100 0 847 248 
Q 594 497 594 1153 
L 594 3053 
L 172 3053 
L 172 3500 
L 594 3500 
L 594 4494 
L 1172 4494 
z
" transform="scale(0.015625)"/>
       <path id="DejaVuSans-65" d="M 3597 1894 
L 3597 1613 
L 953 1613 
Q 991 1019 1311 708 
Q 1631 397 2203 397 
Q 2534 397 2845 478 
Q 3156 559 3463 722 
L 3463 178 
Q 3153 47 2828 -22 
Q 2503 -91 2169 -91 
Q 1331 -91 842 396 
Q 353 884 353 1716 
Q 353 2575 817 3079 
Q 1281 3584 2069 3584 
Q 2775 3584 3186 3129 
Q 3597 2675 3597 1894 
z
M 3022 2063 
Q 3016 2534 2758 2815 
Q 2500 3097 2075 3097 
Q 1594 3097 1305 2825 
Q 1016 2553 972 2059 
L 3022 2063 
z
" transform="scale(0.015625)"/>
       <path id="DejaVuSans-70" d="M 1159 525 
L 1159 -1331 
L 581 -1331 
L 581 3500 
L 1159 3500 
L 1159 2969 
Q 1341 3281 1617 3432 
Q 1894 3584 2278 3584 
Q 2916 3584 3314 3078 
Q 3713 2572 3713 1747 
Q 3713 922 3314 415 
Q 2916 -91 2278 -91 
Q 1894 -91 1617 61 
Q 1341 213 1159 525 
z
M 3116 1747 
Q 3116 2381 2855 2742 
Q 2594 3103 2138 3103 
Q 1681 3103 1420 2742 
Q 1159 2381 1159 1747 
Q 1159 1113 1420 752 
Q 1681 391 2138 391 
Q 2594 391 2855 752 
Q 3116 1113 3116 1747 
z
" transform="scale(0.015625)"/>
      </defs>
      <use xlink:href="#DejaVuSans-73"/>
      <use xlink:href="#DejaVuSans-74" x="52.099609"/>
      <use xlink:href="#DejaVuSans-65" x="91.308594"/>
      <use xlink:href="#DejaVuSans-70" x="152.832031"/>
     </g>
    </g>
   </g>
   <g id="matplotlib.axis_2">
    <g id="ytick_1">
     <g id="line2d_5">
      <path d="M 93.840703 132.652215 
L 387.803268 132.652215 
" clip-path="url(#p66818b95bd)" style="fill: none; stroke: #ffffff; stroke-linecap: round"/>
     </g>
     <g id="text_6">
      <!-- −10 -->
      <g style="fill: #262626" transform="translate(35.588875 141.42841) scale(0.231 -0.231)">
       <defs>
        <path id="DejaVuSans-2212" d="M 678 2272 
L 4684 2272 
L 4684 1741 
L 678 1741 
L 678 2272 
z
" transform="scale(0.015625)"/>
        <path id="DejaVuSans-31" d="M 794 531 
L 1825 531 
L 1825 4091 
L 703 3866 
L 703 4441 
L 1819 4666 
L 2450 4666 
L 2450 531 
L 3481 531 
L 3481 0 
L 794 0 
L 794 531 
z
" transform="scale(0.015625)"/>
       </defs>
       <use xlink:href="#DejaVuSans-2212"/>
       <use xlink:href="#DejaVuSans-31" x="83.789062"/>
       <use xlink:href="#DejaVuSans-30" x="147.412109"/>
      </g>
     </g>
    </g>
    <g id="ytick_2">
     <g id="line2d_6">
      <path d="M 93.840703 85.904711 
L 387.803268 85.904711 
" clip-path="url(#p66818b95bd)" style="fill: none; stroke: #ffffff; stroke-linecap: round"/>
     </g>
     <g id="text_7">
      <!-- 0 -->
      <g style="fill: #262626" transform="translate(69.643328 94.680906) scale(0.231 -0.231)">
       <use xlink:href="#DejaVuSans-30"/>
      </g>
     </g>
    </g>
    <g id="text_8">
     <!-- % change -->
     <g style="fill: #262626" transform="translate(26.348062 170.918344) rotate(-90) scale(0.252 -0.252)">
      <defs>
       <path id="DejaVuSans-25" d="M 4653 2053 
Q 4381 2053 4226 1822 
Q 4072 1591 4072 1178 
Q 4072 772 4226 539 
Q 4381 306 4653 306 
Q 4919 306 5073 539 
Q 5228 772 5228 1178 
Q 5228 1588 5073 1820 
Q 4919 2053 4653 2053 
z
M 4653 2450 
Q 5147 2450 5437 2106 
Q 5728 1763 5728 1178 
Q 5728 594 5436 251 
Q 5144 -91 4653 -91 
Q 4153 -91 3862 251 
Q 3572 594 3572 1178 
Q 3572 1766 3864 2108 
Q 4156 2450 4653 2450 
z
M 1428 4353 
Q 1159 4353 1004 4120 
Q 850 3888 850 3481 
Q 850 3069 1003 2837 
Q 1156 2606 1428 2606 
Q 1700 2606 1854 2837 
Q 2009 3069 2009 3481 
Q 2009 3884 1853 4118 
Q 1697 4353 1428 4353 
z
M 4250 4750 
L 4750 4750 
L 1831 -91 
L 1331 -91 
L 4250 4750 
z
M 1428 4750 
Q 1922 4750 2215 4408 
Q 2509 4066 2509 3481 
Q 2509 2891 2217 2550 
Q 1925 2209 1428 2209 
Q 931 2209 642 2551 
Q 353 2894 353 3481 
Q 353 4063 643 4406 
Q 934 4750 1428 4750 
z
" transform="scale(0.015625)"/>
       <path id="DejaVuSans-20" transform="scale(0.015625)"/>
       <path id="DejaVuSans-63" d="M 3122 3366 
L 3122 2828 
Q 2878 2963 2633 3030 
Q 2388 3097 2138 3097 
Q 1578 3097 1268 2742 
Q 959 2388 959 1747 
Q 959 1106 1268 751 
Q 1578 397 2138 397 
Q 2388 397 2633 464 
Q 2878 531 3122 666 
L 3122 134 
Q 2881 22 2623 -34 
Q 2366 -91 2075 -91 
Q 1284 -91 818 406 
Q 353 903 353 1747 
Q 353 2603 823 3093 
Q 1294 3584 2113 3584 
Q 2378 3584 2631 3529 
Q 2884 3475 3122 3366 
z
" transform="scale(0.015625)"/>
       <path id="DejaVuSans-68" d="M 3513 2113 
L 3513 0 
L 2938 0 
L 2938 2094 
Q 2938 2591 2744 2837 
Q 2550 3084 2163 3084 
Q 1697 3084 1428 2787 
Q 1159 2491 1159 1978 
L 1159 0 
L 581 0 
L 581 4863 
L 1159 4863 
L 1159 2956 
Q 1366 3272 1645 3428 
Q 1925 3584 2291 3584 
Q 2894 3584 3203 3211 
Q 3513 2838 3513 2113 
z
" transform="scale(0.015625)"/>
       <path id="DejaVuSans-61" d="M 2194 1759 
Q 1497 1759 1228 1600 
Q 959 1441 959 1056 
Q 959 750 1161 570 
Q 1363 391 1709 391 
Q 2188 391 2477 730 
Q 2766 1069 2766 1631 
L 2766 1759 
L 2194 1759 
z
M 3341 1997 
L 3341 0 
L 2766 0 
L 2766 531 
Q 2569 213 2275 61 
Q 1981 -91 1556 -91 
Q 1019 -91 701 211 
Q 384 513 384 1019 
Q 384 1609 779 1909 
Q 1175 2209 1959 2209 
L 2766 2209 
L 2766 2266 
Q 2766 2663 2505 2880 
Q 2244 3097 1772 3097 
Q 1472 3097 1187 3025 
Q 903 2953 641 2809 
L 641 3341 
Q 956 3463 1253 3523 
Q 1550 3584 1831 3584 
Q 2591 3584 2966 3190 
Q 3341 2797 3341 1997 
z
" transform="scale(0.015625)"/>
       <path id="DejaVuSans-6e" d="M 3513 2113 
L 3513 0 
L 2938 0 
L 2938 2094 
Q 2938 2591 2744 2837 
Q 2550 3084 2163 3084 
Q 1697 3084 1428 2787 
Q 1159 2491 1159 1978 
L 1159 0 
L 581 0 
L 581 3500 
L 1159 3500 
L 1159 2956 
Q 1366 3272 1645 3428 
Q 1925 3584 2291 3584 
Q 2894 3584 3203 3211 
Q 3513 2838 3513 2113 
z
" transform="scale(0.015625)"/>
       <path id="DejaVuSans-67" d="M 2906 1791 
Q 2906 2416 2648 2759 
Q 2391 3103 1925 3103 
Q 1463 3103 1205 2759 
Q 947 2416 947 1791 
Q 947 1169 1205 825 
Q 1463 481 1925 481 
Q 2391 481 2648 825 
Q 2906 1169 2906 1791 
z
M 3481 434 
Q 3481 -459 3084 -895 
Q 2688 -1331 1869 -1331 
Q 1566 -1331 1297 -1286 
Q 1028 -1241 775 -1147 
L 775 -588 
Q 1028 -725 1275 -790 
Q 1522 -856 1778 -856 
Q 2344 -856 2625 -561 
Q 2906 -266 2906 331 
L 2906 616 
Q 2728 306 2450 153 
Q 2172 0 1784 0 
Q 1141 0 747 490 
Q 353 981 353 1791 
Q 353 2603 747 3093 
Q 1141 3584 1784 3584 
Q 2172 3584 2450 3431 
Q 2728 3278 2906 2969 
L 2906 3500 
L 3481 3500 
L 3481 434 
z
" transform="scale(0.015625)"/>
      </defs>
      <use xlink:href="#DejaVuSans-25"/>
      <use xlink:href="#DejaVuSans-20" x="95.019531"/>
      <use xlink:href="#DejaVuSans-63" x="126.806641"/>
      <use xlink:href="#DejaVuSans-68" x="181.787109"/>
      <use xlink:href="#DejaVuSans-61" x="245.166016"/>
      <use xlink:href="#DejaVuSans-6e" x="306.445312"/>
      <use xlink:href="#DejaVuSans-67" x="369.824219"/>
      <use xlink:href="#DejaVuSans-65" x="433.300781"/>
     </g>
    </g>
   </g>
   <g id="PolyCollection_1"/>
   <g id="PolyCollection_2"/>
   <g id="PolyCollection_3"/>
   <g id="PolyCollection_4"/>
   <g id="line2d_7">
    <path d="M 107.202638 85.904711 
L 107.56922 89.66828 
L 108.302386 89.805192 
L 112.334794 89.607045 
L 113.434542 89.304349 
L 118.93328 88.181964 
L 125.165184 87.132146 
L 132.496835 86.14106 
L 140.561652 85.278882 
L 149.726216 84.531399 
L 156.324703 84.173435 
L 168.421928 84.028077 
L 181.6189 84.22524 
L 224.509061 85.023535 
L 262.267066 85.157179 
L 356.478788 85.210036 
L 374.441334 85.211314 
L 374.441334 85.211314 
" clip-path="url(#p66818b95bd)" style="fill: none; stroke: #4c72b0; stroke-opacity: 0.9; stroke-width: 3; stroke-linecap: round"/>
   </g>
   <g id="line2d_8">
    <path d="M 107.202638 85.904711 
L 107.56922 87.957383 
L 108.302386 88.060217 
L 112.334794 87.976369 
L 113.434542 87.801225 
L 120.766193 87.048685 
L 129.564175 86.36689 
L 140.561652 85.74646 
L 153.392042 85.247693 
L 161.090276 85.128772 
L 180.519153 85.044645 
L 201.414359 85.154671 
L 232.573878 85.357733 
L 243.937938 85.399716 
L 349.147136 85.445301 
L 374.441334 85.44616 
L 374.441334 85.44616 
" clip-path="url(#p66818b95bd)" style="fill: none; stroke: #dd8452; stroke-opacity: 0.9; stroke-width: 3; stroke-linecap: round"/>
   </g>
   <g id="line2d_9">
    <path d="M 107.202638 85.904711 
L 107.56922 89.84866 
L 107.935803 90.048882 
L 109.035551 90.068594 
L 112.701377 89.823492 
L 118.566698 88.663471 
L 124.432019 87.726141 
L 132.130253 86.735134 
L 141.294817 85.79268 
L 150.825964 85.033316 
L 159.257363 84.577191 
L 168.055345 84.300002 
L 176.120162 84.289906 
L 191.150047 84.640371 
L 209.479176 84.979397 
L 238.439199 85.218512 
L 304.05748 85.397338 
L 374.441334 85.418185 
L 374.441334 85.418185 
" clip-path="url(#p66818b95bd)" style="fill: none; stroke: #55a868; stroke-opacity: 0.9; stroke-width: 3; stroke-linecap: round"/>
   </g>
   <g id="line2d_10">
    <path d="M 107.202638 85.904711 
L 107.56922 89.004328 
L 107.935803 89.164829 
L 109.035551 89.178822 
L 113.067959 88.922991 
L 119.666445 87.906946 
L 126.631514 87.070378 
L 135.429496 86.241133 
L 145.693808 85.497428 
L 155.95812 84.968278 
L 165.85585 84.693618 
L 177.219909 84.668286 
L 193.716125 84.962905 
L 219.743488 85.277204 
L 265.199727 85.476429 
L 354.279292 85.528891 
L 374.441334 85.530469 
L 374.441334 85.530469 
" clip-path="url(#p66818b95bd)" style="fill: none; stroke: #c44e52; stroke-opacity: 0.9; stroke-width: 3; stroke-linecap: round"/>
   </g>
   <g id="patch_3">
    <path d="M 93.840703 146.484 
L 93.840703 70.656 
" style="fill: none; stroke: #ffffff; stroke-width: 1.25; stroke-linejoin: miter; stroke-linecap: square"/>
   </g>
   <g id="patch_4">
    <path d="M 93.840703 146.484 
L 387.803268 146.484 
" style="fill: none; stroke: #ffffff; stroke-width: 1.25; stroke-linejoin: miter; stroke-linecap: square"/>
   </g>
   <g id="text_9">
    <!-- 0.5~30 -->
    <g style="fill: #262626" transform="translate(194.192142 64.656) scale(0.252 -0.252)">
     <defs>
      <path id="DejaVuSans-2e" d="M 684 794 
L 1344 794 
L 1344 0 
L 684 0 
L 684 794 
z
" transform="scale(0.015625)"/>
      <path id="DejaVuSans-7e" d="M 4684 2553 
L 4684 1997 
Q 4356 1750 4076 1644 
Q 3797 1538 3494 1538 
Q 3150 1538 2694 1722 
Q 2659 1734 2644 1741 
Q 2622 1750 2575 1766 
Q 2091 1959 1797 1959 
Q 1522 1959 1253 1839 
Q 984 1719 678 1459 
L 678 2016 
Q 1006 2263 1286 2370 
Q 1566 2478 1869 2478 
Q 2213 2478 2672 2291 
Q 2703 2278 2719 2272 
Q 2744 2263 2788 2247 
Q 3272 2053 3566 2053 
Q 3834 2053 4098 2172 
Q 4363 2291 4684 2553 
z
" transform="scale(0.015625)"/>
      <path id="DejaVuSans-33" d="M 2597 2516 
Q 3050 2419 3304 2112 
Q 3559 1806 3559 1356 
Q 3559 666 3084 287 
Q 2609 -91 1734 -91 
Q 1441 -91 1130 -33 
Q 819 25 488 141 
L 488 750 
Q 750 597 1062 519 
Q 1375 441 1716 441 
Q 2309 441 2620 675 
Q 2931 909 2931 1356 
Q 2931 1769 2642 2001 
Q 2353 2234 1838 2234 
L 1294 2234 
L 1294 2753 
L 1863 2753 
Q 2328 2753 2575 2939 
Q 2822 3125 2822 3475 
Q 2822 3834 2567 4026 
Q 2313 4219 1838 4219 
Q 1578 4219 1281 4162 
Q 984 4106 628 3988 
L 628 4550 
Q 988 4650 1302 4700 
Q 1616 4750 1894 4750 
Q 2613 4750 3031 4423 
Q 3450 4097 3450 3541 
Q 3450 3153 3228 2886 
Q 3006 2619 2597 2516 
z
" transform="scale(0.015625)"/>
     </defs>
     <use xlink:href="#DejaVuSans-30"/>
     <use xlink:href="#DejaVuSans-2e" x="63.623047"/>
     <use xlink:href="#DejaVuSans-35" x="95.410156"/>
     <use xlink:href="#DejaVuSans-7e" x="159.033203"/>
     <use xlink:href="#DejaVuSans-33" x="242.822266"/>
     <use xlink:href="#DejaVuSans-30" x="306.445312"/>
    </g>
   </g>
  </g>
  <g id="axes_2">
   <g id="patch_5">
    <path d="M 429.842811 146.484 
L 723.805376 146.484 
L 723.805376 70.656 
L 429.842811 70.656 
z
" style="fill: #eaeaf2"/>
   </g>
   <g id="matplotlib.axis_3">
    <g id="xtick_5">
     <g id="line2d_11">
      <path d="M 443.204746 146.484 
L 443.204746 70.656 
" clip-path="url(#p93af0217eb)" style="fill: none; stroke: #ffffff; stroke-linecap: round"/>
     </g>
     <g id="text_10">
      <!-- 0 -->
      <g style="fill: #262626" transform="translate(435.856058 173.536391) scale(0.231 -0.231)">
       <use xlink:href="#DejaVuSans-30"/>
      </g>
     </g>
    </g>
    <g id="xtick_6">
     <g id="line2d_12">
      <path d="M 534.850389 146.484 
L 534.850389 70.656 
" clip-path="url(#p93af0217eb)" style="fill: none; stroke: #ffffff; stroke-linecap: round"/>
     </g>
     <g id="text_11">
      <!-- 250 -->
      <g style="fill: #262626" transform="translate(512.804327 173.536391) scale(0.231 -0.231)">
       <use xlink:href="#DejaVuSans-32"/>
       <use xlink:href="#DejaVuSans-35" x="63.623047"/>
       <use xlink:href="#DejaVuSans-30" x="127.246094"/>
      </g>
     </g>
    </g>
    <g id="xtick_7">
     <g id="line2d_13">
      <path d="M 626.496032 146.484 
L 626.496032 70.656 
" clip-path="url(#p93af0217eb)" style="fill: none; stroke: #ffffff; stroke-linecap: round"/>
     </g>
     <g id="text_12">
      <!-- 500 -->
      <g style="fill: #262626" transform="translate(604.44997 173.536391) scale(0.231 -0.231)">
       <use xlink:href="#DejaVuSans-35"/>
       <use xlink:href="#DejaVuSans-30" x="63.623047"/>
       <use xlink:href="#DejaVuSans-30" x="127.246094"/>
      </g>
     </g>
    </g>
    <g id="xtick_8">
     <g id="line2d_14">
      <path d="M 718.141676 146.484 
L 718.141676 70.656 
" clip-path="url(#p93af0217eb)" style="fill: none; stroke: #ffffff; stroke-linecap: round"/>
     </g>
     <g id="text_13">
      <!-- 750 -->
      <g style="fill: #262626" transform="translate(696.095613 173.536391) scale(0.231 -0.231)">
       <use xlink:href="#DejaVuSans-37"/>
       <use xlink:href="#DejaVuSans-35" x="63.623047"/>
       <use xlink:href="#DejaVuSans-30" x="127.246094"/>
      </g>
     </g>
    </g>
    <g id="text_14">
     <!-- step -->
     <g style="fill: #262626" transform="translate(549.568719 201.488531) scale(0.252 -0.252)">
      <use xlink:href="#DejaVuSans-73"/>
      <use xlink:href="#DejaVuSans-74" x="52.099609"/>
      <use xlink:href="#DejaVuSans-65" x="91.308594"/>
      <use xlink:href="#DejaVuSans-70" x="152.832031"/>
     </g>
    </g>
   </g>
   <g id="matplotlib.axis_4">
    <g id="ytick_3">
     <g id="line2d_15">
      <path d="M 429.842811 132.652215 
L 723.805376 132.652215 
" clip-path="url(#p93af0217eb)" style="fill: none; stroke: #ffffff; stroke-linecap: round"/>
     </g>
    </g>
    <g id="ytick_4">
     <g id="line2d_16">
      <path d="M 429.842811 85.904711 
L 723.805376 85.904711 
" clip-path="url(#p93af0217eb)" style="fill: none; stroke: #ffffff; stroke-linecap: round"/>
     </g>
    </g>
   </g>
   <g id="PolyCollection_5"/>
   <g id="PolyCollection_6"/>
   <g id="PolyCollection_7"/>
   <g id="PolyCollection_8"/>
   <g id="line2d_17">
    <path d="M 443.204746 85.904711 
L 443.571328 89.66828 
L 444.304494 89.837851 
L 448.336902 89.834154 
L 449.070067 89.666968 
L 457.868049 88.731057 
L 467.399196 87.947096 
L 478.396673 87.26834 
L 491.593646 86.689094 
L 506.990114 86.242915 
L 527.152155 85.896169 
L 554.279266 85.66719 
L 578.473715 85.683966 
L 710.443442 85.839814 
L 710.443442 85.839814 
" clip-path="url(#p93af0217eb)" style="fill: none; stroke: #4c72b0; stroke-opacity: 0.9; stroke-width: 3; stroke-linecap: round"/>
   </g>
   <g id="line2d_18">
    <path d="M 443.204746 85.904711 
L 443.571328 87.957383 
L 444.304494 88.075431 
L 448.336902 88.084908 
L 449.43665 87.954998 
L 460.800709 87.314505 
L 474.364265 86.780872 
L 491.227063 86.355438 
L 512.855435 86.044145 
L 544.381536 85.835716 
L 579.940046 85.805358 
L 710.443442 85.865111 
L 710.443442 85.865111 
" clip-path="url(#p93af0217eb)" style="fill: none; stroke: #dd8452; stroke-opacity: 0.9; stroke-width: 3; stroke-linecap: round"/>
   </g>
   <g id="line2d_19">
    <path d="M 443.204746 85.904711 
L 443.571328 89.84866 
L 443.937911 90.063806 
L 445.037659 90.136579 
L 449.070067 90.031105 
L 458.601214 89.06966 
L 469.232109 88.221544 
L 481.329333 87.482132 
L 495.259471 86.860522 
L 511.389104 86.37261 
L 531.917729 85.982858 
L 557.945091 85.715916 
L 582.506124 85.672497 
L 684.416079 85.846369 
L 710.443442 85.850938 
L 710.443442 85.850938 
" clip-path="url(#p93af0217eb)" style="fill: none; stroke: #55a868; stroke-opacity: 0.9; stroke-width: 3; stroke-linecap: round"/>
   </g>
   <g id="line2d_20">
    <path d="M 443.204746 85.904711 
L 443.571328 89.004328 
L 443.937911 89.176821 
L 445.037659 89.233666 
L 449.43665 89.122645 
L 460.434127 88.25797 
L 472.531352 87.533967 
L 486.828072 86.90996 
L 502.22454 86.46214 
L 525.319242 86.035342 
L 549.880275 85.791333 
L 578.473715 85.71385 
L 686.615574 85.860967 
L 710.443442 85.863617 
L 710.443442 85.863617 
" clip-path="url(#p93af0217eb)" style="fill: none; stroke: #c44e52; stroke-opacity: 0.9; stroke-width: 3; stroke-linecap: round"/>
   </g>
   <g id="patch_6">
    <path d="M 429.842811 146.484 
L 429.842811 70.656 
" style="fill: none; stroke: #ffffff; stroke-width: 1.25; stroke-linejoin: miter; stroke-linecap: square"/>
   </g>
   <g id="patch_7">
    <path d="M 429.842811 146.484 
L 723.805376 146.484 
" style="fill: none; stroke: #ffffff; stroke-width: 1.25; stroke-linejoin: miter; stroke-linecap: square"/>
   </g>
   <g id="text_15">
    <!-- 0.5~365 -->
    <g style="fill: #262626" transform="translate(522.1775 64.656) scale(0.252 -0.252)">
     <defs>
      <path id="DejaVuSans-36" d="M 2113 2584 
Q 1688 2584 1439 2293 
Q 1191 2003 1191 1497 
Q 1191 994 1439 701 
Q 1688 409 2113 409 
Q 2538 409 2786 701 
Q 3034 994 3034 1497 
Q 3034 2003 2786 2293 
Q 2538 2584 2113 2584 
z
M 3366 4563 
L 3366 3988 
Q 3128 4100 2886 4159 
Q 2644 4219 2406 4219 
Q 1781 4219 1451 3797 
Q 1122 3375 1075 2522 
Q 1259 2794 1537 2939 
Q 1816 3084 2150 3084 
Q 2853 3084 3261 2657 
Q 3669 2231 3669 1497 
Q 3669 778 3244 343 
Q 2819 -91 2113 -91 
Q 1303 -91 875 529 
Q 447 1150 447 2328 
Q 447 3434 972 4092 
Q 1497 4750 2381 4750 
Q 2619 4750 2861 4703 
Q 3103 4656 3366 4563 
z
" transform="scale(0.015625)"/>
     </defs>
     <use xlink:href="#DejaVuSans-30"/>
     <use xlink:href="#DejaVuSans-2e" x="63.623047"/>
     <use xlink:href="#DejaVuSans-35" x="95.410156"/>
     <use xlink:href="#DejaVuSans-7e" x="159.033203"/>
     <use xlink:href="#DejaVuSans-33" x="242.822266"/>
     <use xlink:href="#DejaVuSans-36" x="306.445312"/>
     <use xlink:href="#DejaVuSans-35" x="370.068359"/>
    </g>
   </g>
  </g>
  <g id="axes_3">
   <g id="patch_8">
    <path d="M 765.844919 146.484 
L 1059.807484 146.484 
L 1059.807484 70.656 
L 765.844919 70.656 
z
" style="fill: #eaeaf2"/>
   </g>
   <g id="matplotlib.axis_5">
    <g id="xtick_9">
     <g id="line2d_21">
      <path d="M 779.206854 146.484 
L 779.206854 70.656 
" clip-path="url(#p6d814c1933)" style="fill: none; stroke: #ffffff; stroke-linecap: round"/>
     </g>
     <g id="text_16">
      <!-- 0 -->
      <g style="fill: #262626" transform="translate(771.858166 173.536391) scale(0.231 -0.231)">
       <use xlink:href="#DejaVuSans-30"/>
      </g>
     </g>
    </g>
    <g id="xtick_10">
     <g id="line2d_22">
      <path d="M 870.852497 146.484 
L 870.852497 70.656 
" clip-path="url(#p6d814c1933)" style="fill: none; stroke: #ffffff; stroke-linecap: round"/>
     </g>
     <g id="text_17">
      <!-- 250 -->
      <g style="fill: #262626" transform="translate(848.806435 173.536391) scale(0.231 -0.231)">
       <use xlink:href="#DejaVuSans-32"/>
       <use xlink:href="#DejaVuSans-35" x="63.623047"/>
       <use xlink:href="#DejaVuSans-30" x="127.246094"/>
      </g>
     </g>
    </g>
    <g id="xtick_11">
     <g id="line2d_23">
      <path d="M 962.49814 146.484 
L 962.49814 70.656 
" clip-path="url(#p6d814c1933)" style="fill: none; stroke: #ffffff; stroke-linecap: round"/>
     </g>
     <g id="text_18">
      <!-- 500 -->
      <g style="fill: #262626" transform="translate(940.452078 173.536391) scale(0.231 -0.231)">
       <use xlink:href="#DejaVuSans-35"/>
       <use xlink:href="#DejaVuSans-30" x="63.623047"/>
       <use xlink:href="#DejaVuSans-30" x="127.246094"/>
      </g>
     </g>
    </g>
    <g id="xtick_12">
     <g id="line2d_24">
      <path d="M 1054.143784 146.484 
L 1054.143784 70.656 
" clip-path="url(#p6d814c1933)" style="fill: none; stroke: #ffffff; stroke-linecap: round"/>
     </g>
     <g id="text_19">
      <!-- 750 -->
      <g style="fill: #262626" transform="translate(1032.097721 173.536391) scale(0.231 -0.231)">
       <use xlink:href="#DejaVuSans-37"/>
       <use xlink:href="#DejaVuSans-35" x="63.623047"/>
       <use xlink:href="#DejaVuSans-30" x="127.246094"/>
      </g>
     </g>
    </g>
    <g id="text_20">
     <!-- step -->
     <g style="fill: #262626" transform="translate(885.570827 201.488531) scale(0.252 -0.252)">
      <use xlink:href="#DejaVuSans-73"/>
      <use xlink:href="#DejaVuSans-74" x="52.099609"/>
      <use xlink:href="#DejaVuSans-65" x="91.308594"/>
      <use xlink:href="#DejaVuSans-70" x="152.832031"/>
     </g>
    </g>
   </g>
   <g id="matplotlib.axis_6">
    <g id="ytick_5">
     <g id="line2d_25">
      <path d="M 765.844919 132.652215 
L 1059.807484 132.652215 
" clip-path="url(#p6d814c1933)" style="fill: none; stroke: #ffffff; stroke-linecap: round"/>
     </g>
    </g>
    <g id="ytick_6">
     <g id="line2d_26">
      <path d="M 765.844919 85.904711 
L 1059.807484 85.904711 
" clip-path="url(#p6d814c1933)" style="fill: none; stroke: #ffffff; stroke-linecap: round"/>
     </g>
    </g>
   </g>
   <g id="PolyCollection_9"/>
   <g id="PolyCollection_10"/>
   <g id="PolyCollection_11"/>
   <g id="PolyCollection_12"/>
   <g id="line2d_27">
    <path d="M 779.206854 85.904711 
L 779.573436 89.66828 
L 780.306602 89.805192 
L 784.33901 89.607045 
L 785.438758 89.304349 
L 790.937496 88.181964 
L 797.1694 87.132146 
L 804.501051 86.14106 
L 812.565868 85.278882 
L 821.730432 84.531399 
L 828.328919 84.173435 
L 840.426144 84.028077 
L 853.623116 84.22524 
L 896.513277 85.023535 
L 934.271282 85.157179 
L 1028.483004 85.210036 
L 1046.44555 85.211314 
L 1046.44555 85.211314 
" clip-path="url(#p6d814c1933)" style="fill: none; stroke: #4c72b0; stroke-opacity: 0.9; stroke-width: 3; stroke-linecap: round"/>
   </g>
   <g id="line2d_28">
    <path d="M 779.206854 85.904711 
L 779.573436 87.957383 
L 780.306602 88.060217 
L 784.33901 87.976369 
L 785.438758 87.801225 
L 792.770409 87.048685 
L 801.568391 86.36689 
L 812.565868 85.74646 
L 825.396258 85.247693 
L 833.094492 85.128772 
L 852.523368 85.044645 
L 873.418575 85.154671 
L 904.578094 85.357733 
L 915.942154 85.399716 
L 1021.151352 85.445301 
L 1046.44555 85.44616 
L 1046.44555 85.44616 
" clip-path="url(#p6d814c1933)" style="fill: none; stroke: #dd8452; stroke-opacity: 0.9; stroke-width: 3; stroke-linecap: round"/>
   </g>
   <g id="line2d_29">
    <path d="M 779.206854 85.904711 
L 779.573436 89.84866 
L 779.940019 90.048882 
L 781.039767 90.068594 
L 784.705592 89.823492 
L 790.570914 88.663471 
L 796.436235 87.726141 
L 804.134469 86.739888 
L 811.46612 86.017704 
L 818.064607 85.568648 
L 828.328919 85.081949 
L 838.593231 84.836158 
L 847.757795 84.903779 
L 881.116809 85.639664 
L 898.34619 85.595712 
L 917.775066 85.323992 
L 932.438369 85.149727 
L 999.156398 85.351241 
L 1046.44555 85.363765 
L 1046.44555 85.363765 
" clip-path="url(#p6d814c1933)" style="fill: none; stroke: #55a868; stroke-opacity: 0.9; stroke-width: 3; stroke-linecap: round"/>
   </g>
   <g id="line2d_30">
    <path d="M 779.206854 85.904711 
L 779.573436 89.004328 
L 779.940019 89.164829 
L 781.039767 89.178822 
L 785.072175 88.922991 
L 791.670661 87.906946 
L 798.63573 87.070378 
L 805.967382 86.395568 
L 814.032198 85.865693 
L 825.029675 85.394877 
L 835.66057 85.165844 
L 848.124378 85.169774 
L 880.017061 85.473156 
L 923.640388 85.356438 
L 962.49814 85.448299 
L 1046.44555 85.475645 
L 1046.44555 85.475645 
" clip-path="url(#p6d814c1933)" style="fill: none; stroke: #c44e52; stroke-opacity: 0.9; stroke-width: 3; stroke-linecap: round"/>
   </g>
   <g id="patch_9">
    <path d="M 765.844919 146.484 
L 765.844919 70.656 
" style="fill: none; stroke: #ffffff; stroke-width: 1.25; stroke-linejoin: miter; stroke-linecap: square"/>
   </g>
   <g id="patch_10">
    <path d="M 765.844919 146.484 
L 1059.807484 146.484 
" style="fill: none; stroke: #ffffff; stroke-width: 1.25; stroke-linejoin: miter; stroke-linecap: square"/>
   </g>
   <g id="text_21">
    <!-- 0.8~30 -->
    <g style="fill: #262626" transform="translate(866.196358 64.656) scale(0.252 -0.252)">
     <defs>
      <path id="DejaVuSans-38" d="M 2034 2216 
Q 1584 2216 1326 1975 
Q 1069 1734 1069 1313 
Q 1069 891 1326 650 
Q 1584 409 2034 409 
Q 2484 409 2743 651 
Q 3003 894 3003 1313 
Q 3003 1734 2745 1975 
Q 2488 2216 2034 2216 
z
M 1403 2484 
Q 997 2584 770 2862 
Q 544 3141 544 3541 
Q 544 4100 942 4425 
Q 1341 4750 2034 4750 
Q 2731 4750 3128 4425 
Q 3525 4100 3525 3541 
Q 3525 3141 3298 2862 
Q 3072 2584 2669 2484 
Q 3125 2378 3379 2068 
Q 3634 1759 3634 1313 
Q 3634 634 3220 271 
Q 2806 -91 2034 -91 
Q 1263 -91 848 271 
Q 434 634 434 1313 
Q 434 1759 690 2068 
Q 947 2378 1403 2484 
z
M 1172 3481 
Q 1172 3119 1398 2916 
Q 1625 2713 2034 2713 
Q 2441 2713 2670 2916 
Q 2900 3119 2900 3481 
Q 2900 3844 2670 4047 
Q 2441 4250 2034 4250 
Q 1625 4250 1398 4047 
Q 1172 3844 1172 3481 
z
" transform="scale(0.015625)"/>
     </defs>
     <use xlink:href="#DejaVuSans-30"/>
     <use xlink:href="#DejaVuSans-2e" x="63.623047"/>
     <use xlink:href="#DejaVuSans-38" x="95.410156"/>
     <use xlink:href="#DejaVuSans-7e" x="159.033203"/>
     <use xlink:href="#DejaVuSans-33" x="242.822266"/>
     <use xlink:href="#DejaVuSans-30" x="306.445312"/>
    </g>
   </g>
  </g>
  <g id="axes_4">
   <g id="patch_11">
    <path d="M 1101.847027 146.484 
L 1395.809592 146.484 
L 1395.809592 70.656 
L 1101.847027 70.656 
z
" style="fill: #eaeaf2"/>
   </g>
   <g id="matplotlib.axis_7">
    <g id="xtick_13">
     <g id="line2d_31">
      <path d="M 1115.208962 146.484 
L 1115.208962 70.656 
" clip-path="url(#p74a4264b81)" style="fill: none; stroke: #ffffff; stroke-linecap: round"/>
     </g>
     <g id="text_22">
      <!-- 0 -->
      <g style="fill: #262626" transform="translate(1107.860274 173.536391) scale(0.231 -0.231)">
       <use xlink:href="#DejaVuSans-30"/>
      </g>
     </g>
    </g>
    <g id="xtick_14">
     <g id="line2d_32">
      <path d="M 1206.854605 146.484 
L 1206.854605 70.656 
" clip-path="url(#p74a4264b81)" style="fill: none; stroke: #ffffff; stroke-linecap: round"/>
     </g>
     <g id="text_23">
      <!-- 250 -->
      <g style="fill: #262626" transform="translate(1184.808543 173.536391) scale(0.231 -0.231)">
       <use xlink:href="#DejaVuSans-32"/>
       <use xlink:href="#DejaVuSans-35" x="63.623047"/>
       <use xlink:href="#DejaVuSans-30" x="127.246094"/>
      </g>
     </g>
    </g>
    <g id="xtick_15">
     <g id="line2d_33">
      <path d="M 1298.500248 146.484 
L 1298.500248 70.656 
" clip-path="url(#p74a4264b81)" style="fill: none; stroke: #ffffff; stroke-linecap: round"/>
     </g>
     <g id="text_24">
      <!-- 500 -->
      <g style="fill: #262626" transform="translate(1276.454186 173.536391) scale(0.231 -0.231)">
       <use xlink:href="#DejaVuSans-35"/>
       <use xlink:href="#DejaVuSans-30" x="63.623047"/>
       <use xlink:href="#DejaVuSans-30" x="127.246094"/>
      </g>
     </g>
    </g>
    <g id="xtick_16">
     <g id="line2d_34">
      <path d="M 1390.145892 146.484 
L 1390.145892 70.656 
" clip-path="url(#p74a4264b81)" style="fill: none; stroke: #ffffff; stroke-linecap: round"/>
     </g>
     <g id="text_25">
      <!-- 750 -->
      <g style="fill: #262626" transform="translate(1368.099829 173.536391) scale(0.231 -0.231)">
       <use xlink:href="#DejaVuSans-37"/>
       <use xlink:href="#DejaVuSans-35" x="63.623047"/>
       <use xlink:href="#DejaVuSans-30" x="127.246094"/>
      </g>
     </g>
    </g>
    <g id="text_26">
     <!-- step -->
     <g style="fill: #262626" transform="translate(1221.572935 201.488531) scale(0.252 -0.252)">
      <use xlink:href="#DejaVuSans-73"/>
      <use xlink:href="#DejaVuSans-74" x="52.099609"/>
      <use xlink:href="#DejaVuSans-65" x="91.308594"/>
      <use xlink:href="#DejaVuSans-70" x="152.832031"/>
     </g>
    </g>
   </g>
   <g id="matplotlib.axis_8">
    <g id="ytick_7">
     <g id="line2d_35">
      <path d="M 1101.847027 132.652215 
L 1395.809592 132.652215 
" clip-path="url(#p74a4264b81)" style="fill: none; stroke: #ffffff; stroke-linecap: round"/>
     </g>
    </g>
    <g id="ytick_8">
     <g id="line2d_36">
      <path d="M 1101.847027 85.904711 
L 1395.809592 85.904711 
" clip-path="url(#p74a4264b81)" style="fill: none; stroke: #ffffff; stroke-linecap: round"/>
     </g>
    </g>
   </g>
   <g id="PolyCollection_13"/>
   <g id="PolyCollection_14"/>
   <g id="PolyCollection_15"/>
   <g id="PolyCollection_16"/>
   <g id="line2d_37">
    <path d="M 1115.208962 85.904711 
L 1115.575544 89.66828 
L 1116.30871 89.837851 
L 1120.341118 89.834154 
L 1121.074283 89.666968 
L 1129.872265 88.731057 
L 1139.403412 87.947096 
L 1150.400889 87.26834 
L 1163.597861 86.689094 
L 1178.99433 86.242915 
L 1199.156371 85.896169 
L 1226.283481 85.66719 
L 1250.477931 85.683966 
L 1382.447658 85.839814 
L 1382.447658 85.839814 
" clip-path="url(#p74a4264b81)" style="fill: none; stroke: #4c72b0; stroke-opacity: 0.9; stroke-width: 3; stroke-linecap: round"/>
   </g>
   <g id="line2d_38">
    <path d="M 1115.208962 85.904711 
L 1115.575544 87.957383 
L 1116.30871 88.075431 
L 1120.341118 88.084908 
L 1121.440866 87.954998 
L 1132.804925 87.314505 
L 1146.36848 86.780872 
L 1163.231279 86.355438 
L 1184.859651 86.044145 
L 1216.385752 85.835716 
L 1251.944262 85.805358 
L 1382.447658 85.865111 
L 1382.447658 85.865111 
" clip-path="url(#p74a4264b81)" style="fill: none; stroke: #dd8452; stroke-opacity: 0.9; stroke-width: 3; stroke-linecap: round"/>
   </g>
   <g id="line2d_39">
    <path d="M 1115.208962 85.904711 
L 1115.575544 89.84866 
L 1115.942127 90.063806 
L 1117.041875 90.136579 
L 1121.074283 90.031105 
L 1130.60543 89.06966 
L 1141.236324 88.225753 
L 1150.034306 87.728088 
L 1160.298618 87.361513 
L 1182.660155 86.90246 
L 1207.221188 86.615529 
L 1266.240982 86.082181 
L 1316.096212 85.755056 
L 1382.447658 85.827461 
L 1382.447658 85.827461 
" clip-path="url(#p74a4264b81)" style="fill: none; stroke: #55a868; stroke-opacity: 0.9; stroke-width: 3; stroke-linecap: round"/>
   </g>
   <g id="line2d_40">
    <path d="M 1115.208962 85.904711 
L 1115.575544 89.004328 
L 1115.942127 89.176821 
L 1117.041875 89.233666 
L 1121.440866 89.122645 
L 1132.438343 88.25797 
L 1142.702655 87.659545 
L 1154.79988 87.226692 
L 1172.762426 86.890226 
L 1269.540225 85.735827 
L 1296.300753 85.767971 
L 1344.689653 85.837526 
L 1382.447658 85.846054 
L 1382.447658 85.846054 
" clip-path="url(#p74a4264b81)" style="fill: none; stroke: #c44e52; stroke-opacity: 0.9; stroke-width: 3; stroke-linecap: round"/>
   </g>
   <g id="patch_12">
    <path d="M 1101.847027 146.484 
L 1101.847027 70.656 
" style="fill: none; stroke: #ffffff; stroke-width: 1.25; stroke-linejoin: miter; stroke-linecap: square"/>
   </g>
   <g id="patch_13">
    <path d="M 1101.847027 146.484 
L 1395.809592 146.484 
" style="fill: none; stroke: #ffffff; stroke-width: 1.25; stroke-linejoin: miter; stroke-linecap: square"/>
   </g>
   <g id="text_27">
    <!-- 0.8~365 -->
    <g style="fill: #262626" transform="translate(1194.181716 64.656) scale(0.252 -0.252)">
     <use xlink:href="#DejaVuSans-30"/>
     <use xlink:href="#DejaVuSans-2e" x="63.623047"/>
     <use xlink:href="#DejaVuSans-38" x="95.410156"/>
     <use xlink:href="#DejaVuSans-7e" x="159.033203"/>
     <use xlink:href="#DejaVuSans-33" x="242.822266"/>
     <use xlink:href="#DejaVuSans-36" x="306.445312"/>
     <use xlink:href="#DejaVuSans-35" x="370.068359"/>
    </g>
   </g>
  </g>
  <g id="axes_5">
   <g id="patch_14">
    <path d="M 1437.849135 146.484 
L 1731.8117 146.484 
L 1731.8117 70.656 
L 1437.849135 70.656 
z
" style="fill: #eaeaf2"/>
   </g>
   <g id="matplotlib.axis_9">
    <g id="xtick_17">
     <g id="line2d_41">
      <path d="M 1451.21107 146.484 
L 1451.21107 70.656 
" clip-path="url(#pa104210e40)" style="fill: none; stroke: #ffffff; stroke-linecap: round"/>
     </g>
     <g id="text_28">
      <!-- 0 -->
      <g style="fill: #262626" transform="translate(1443.862382 173.536391) scale(0.231 -0.231)">
       <use xlink:href="#DejaVuSans-30"/>
      </g>
     </g>
    </g>
    <g id="xtick_18">
     <g id="line2d_42">
      <path d="M 1542.856713 146.484 
L 1542.856713 70.656 
" clip-path="url(#pa104210e40)" style="fill: none; stroke: #ffffff; stroke-linecap: round"/>
     </g>
     <g id="text_29">
      <!-- 250 -->
      <g style="fill: #262626" transform="translate(1520.810651 173.536391) scale(0.231 -0.231)">
       <use xlink:href="#DejaVuSans-32"/>
       <use xlink:href="#DejaVuSans-35" x="63.623047"/>
       <use xlink:href="#DejaVuSans-30" x="127.246094"/>
      </g>
     </g>
    </g>
    <g id="xtick_19">
     <g id="line2d_43">
      <path d="M 1634.502356 146.484 
L 1634.502356 70.656 
" clip-path="url(#pa104210e40)" style="fill: none; stroke: #ffffff; stroke-linecap: round"/>
     </g>
     <g id="text_30">
      <!-- 500 -->
      <g style="fill: #262626" transform="translate(1612.456294 173.536391) scale(0.231 -0.231)">
       <use xlink:href="#DejaVuSans-35"/>
       <use xlink:href="#DejaVuSans-30" x="63.623047"/>
       <use xlink:href="#DejaVuSans-30" x="127.246094"/>
      </g>
     </g>
    </g>
    <g id="xtick_20">
     <g id="line2d_44">
      <path d="M 1726.148 146.484 
L 1726.148 70.656 
" clip-path="url(#pa104210e40)" style="fill: none; stroke: #ffffff; stroke-linecap: round"/>
     </g>
     <g id="text_31">
      <!-- 750 -->
      <g style="fill: #262626" transform="translate(1704.101937 173.536391) scale(0.231 -0.231)">
       <use xlink:href="#DejaVuSans-37"/>
       <use xlink:href="#DejaVuSans-35" x="63.623047"/>
       <use xlink:href="#DejaVuSans-30" x="127.246094"/>
      </g>
     </g>
    </g>
    <g id="text_32">
     <!-- step -->
     <g style="fill: #262626" transform="translate(1557.575043 201.488531) scale(0.252 -0.252)">
      <use xlink:href="#DejaVuSans-73"/>
      <use xlink:href="#DejaVuSans-74" x="52.099609"/>
      <use xlink:href="#DejaVuSans-65" x="91.308594"/>
      <use xlink:href="#DejaVuSans-70" x="152.832031"/>
     </g>
    </g>
   </g>
   <g id="matplotlib.axis_10">
    <g id="ytick_9">
     <g id="line2d_45">
      <path d="M 1437.849135 132.652215 
L 1731.8117 132.652215 
" clip-path="url(#pa104210e40)" style="fill: none; stroke: #ffffff; stroke-linecap: round"/>
     </g>
    </g>
    <g id="ytick_10">
     <g id="line2d_46">
      <path d="M 1437.849135 85.904711 
L 1731.8117 85.904711 
" clip-path="url(#pa104210e40)" style="fill: none; stroke: #ffffff; stroke-linecap: round"/>
     </g>
    </g>
   </g>
   <g id="PolyCollection_17"/>
   <g id="PolyCollection_18"/>
   <g id="PolyCollection_19"/>
   <g id="PolyCollection_20"/>
   <g id="line2d_47">
    <path d="M 1451.21107 85.904711 
L 1451.577652 89.66828 
L 1452.310817 89.805192 
L 1456.343226 89.670315 
L 1456.709808 89.579059 
L 1457.076391 89.765071 
L 1457.442973 90.141331 
L 1458.176139 91.450613 
L 1462.208547 99.256842 
L 1465.141208 104.527193 
L 1467.707286 108.711406 
L 1470.273364 112.50463 
L 1472.839442 115.903918 
L 1475.40552 118.913507 
L 1477.605015 121.172879 
L 1479.80451 123.145045 
L 1482.004006 124.831426 
L 1484.203501 126.231209 
L 1486.402997 127.345623 
L 1488.602492 128.176978 
L 1490.435405 128.655188 
L 1492.268318 128.940948 
L 1494.101231 129.036656 
L 1496.300726 128.917237 
L 1498.500222 128.555355 
L 1500.699717 127.973245 
L 1503.265795 127.044147 
L 1505.831873 125.871572 
L 1508.764534 124.269829 
L 1512.063777 122.190241 
L 1515.729603 119.606639 
L 1520.128593 116.230656 
L 1524.161002 113.069912 
L 1527.826828 111.359899 
L 1529.293158 110.945139 
L 1531.859236 110.408794 
L 1536.258227 109.793199 
L 1550.92153 107.250138 
L 1569.250658 103.672895 
L 1576.948892 101.854512 
L 1585.380291 99.638251 
L 1595.644604 96.683661 
L 1608.841576 92.651628 
L 1619.105888 89.60515 
L 1626.070957 87.725675 
L 1634.868939 85.597721 
L 1648.432494 82.697872 
L 1654.664398 81.601219 
L 1667.128205 79.697737 
L 1678.858848 78.122798 
L 1690.58949 76.769938 
L 1702.320132 75.660297 
L 1715.150522 74.671489 
L 1718.449766 74.449393 
L 1718.449766 74.449393 
" clip-path="url(#pa104210e40)" style="fill: none; stroke: #4c72b0; stroke-opacity: 0.9; stroke-width: 3; stroke-linecap: round"/>
   </g>
   <g id="line2d_48">
    <path d="M 1451.21107 85.904711 
L 1451.577652 87.957383 
L 1452.310817 88.060217 
L 1456.343226 87.985056 
L 1457.076391 87.965808 
L 1457.442973 88.147189 
L 1458.176139 88.883099 
L 1461.475382 92.685185 
L 1464.408042 95.869655 
L 1467.340703 98.735892 
L 1470.273364 101.28046 
L 1473.206024 103.500685 
L 1475.772102 105.173154 
L 1478.33818 106.587536 
L 1480.904258 107.749264 
L 1483.470336 108.665618 
L 1486.036414 109.333967 
L 1488.602492 109.757241 
L 1491.16857 109.94102 
L 1493.734648 109.896852 
L 1496.300726 109.643208 
L 1499.233387 109.125402 
L 1502.53263 108.289553 
L 1505.831873 107.205828 
L 1509.497699 105.73616 
L 1513.163525 104.034841 
L 1517.562515 101.749915 
L 1523.061254 98.888866 
L 1524.527584 98.628245 
L 1527.460245 98.476441 
L 1543.956461 98.607442 
L 1547.988869 98.836268 
L 1570.350406 100.238028 
L 1586.113457 100.75284 
L 1592.711943 100.679926 
L 1598.577264 100.401885 
L 1604.442585 99.906721 
L 1610.307906 99.190222 
L 1615.806645 98.292424 
L 1621.305384 97.173176 
L 1627.170705 95.75951 
L 1633.769191 93.951282 
L 1653.198068 88.18356 
L 1657.230476 87.007543 
L 1666.028458 84.831356 
L 1680.325178 81.168553 
L 1691.689238 78.694824 
L 1700.853802 76.951367 
L 1710.751531 75.273002 
L 1718.449766 74.102727 
L 1718.449766 74.102727 
" clip-path="url(#pa104210e40)" style="fill: none; stroke: #dd8452; stroke-opacity: 0.9; stroke-width: 3; stroke-linecap: round"/>
   </g>
   <g id="line2d_49">
    <path d="M 1451.21107 85.904711 
L 1451.577652 89.84866 
L 1451.944235 90.048882 
L 1453.043983 90.068594 
L 1457.442973 89.883919 
L 1458.542721 90.162432 
L 1459.642469 90.645499 
L 1461.475382 91.759361 
L 1464.774625 94.043396 
L 1469.173616 97.09263 
L 1473.206024 99.563704 
L 1476.87185 101.529017 
L 1480.171093 103.032933 
L 1483.103754 104.145384 
L 1486.036414 105.045087 
L 1489.335657 105.815357 
L 1492.634901 106.342818 
L 1495.934144 106.640344 
L 1499.599969 106.737946 
L 1503.265795 106.613927 
L 1507.298203 106.24638 
L 1511.330612 105.668043 
L 1516.096185 104.744517 
L 1523.061254 103.120937 
L 1533.325566 100.731826 
L 1538.457722 99.902933 
L 1556.053686 97.224973 
L 1571.816736 94.511685 
L 1594.544856 90.614361 
L 1606.642081 88.784148 
L 1618.372723 87.241115 
L 1630.469948 85.878675 
L 1644.033503 84.573649 
L 1658.696806 83.389644 
L 1674.826439 82.311346 
L 1693.155568 81.327835 
L 1712.584444 80.507618 
L 1718.449766 80.302447 
L 1718.449766 80.302447 
" clip-path="url(#pa104210e40)" style="fill: none; stroke: #55a868; stroke-opacity: 0.9; stroke-width: 3; stroke-linecap: round"/>
   </g>
   <g id="line2d_50">
    <path d="M 1451.21107 85.904711 
L 1451.577652 89.004328 
L 1451.944235 89.164829 
L 1453.043983 89.178918 
L 1457.442973 89.050376 
L 1458.542721 89.375361 
L 1460.009051 90.129024 
L 1462.57513 91.768329 
L 1469.906781 96.642084 
L 1473.572607 98.78323 
L 1476.87185 100.455557 
L 1480.171093 101.873884 
L 1483.470336 103.038762 
L 1486.769579 103.954748 
L 1490.068822 104.643874 
L 1493.368066 105.103477 
L 1496.667309 105.34815 
L 1500.333135 105.396435 
L 1504.365543 105.209487 
L 1508.397951 104.803994 
L 1513.163525 104.095527 
L 1518.662263 103.038902 
L 1537.357974 99.236294 
L 1579.148388 92.80865 
L 1597.477516 89.948057 
L 1612.140819 87.88501 
L 1625.337792 86.271214 
L 1638.534765 84.871473 
L 1651.365155 83.742513 
L 1666.028458 82.68409 
L 1682.891256 81.695227 
L 1701.586967 80.828985 
L 1718.449766 80.225494 
L 1718.449766 80.225494 
" clip-path="url(#pa104210e40)" style="fill: none; stroke: #c44e52; stroke-opacity: 0.9; stroke-width: 3; stroke-linecap: round"/>
   </g>
   <g id="patch_15">
    <path d="M 1437.849135 146.484 
L 1437.849135 70.656 
" style="fill: none; stroke: #ffffff; stroke-width: 1.25; stroke-linejoin: miter; stroke-linecap: square"/>
   </g>
   <g id="patch_16">
    <path d="M 1437.849135 146.484 
L 1731.8117 146.484 
" style="fill: none; stroke: #ffffff; stroke-width: 1.25; stroke-linejoin: miter; stroke-linecap: square"/>
   </g>
   <g id="text_33">
    <!-- 0.999~30 -->
    <g style="fill: #262626" transform="translate(1522.167074 64.656) scale(0.252 -0.252)">
     <defs>
      <path id="DejaVuSans-39" d="M 703 97 
L 703 672 
Q 941 559 1184 500 
Q 1428 441 1663 441 
Q 2288 441 2617 861 
Q 2947 1281 2994 2138 
Q 2813 1869 2534 1725 
Q 2256 1581 1919 1581 
Q 1219 1581 811 2004 
Q 403 2428 403 3163 
Q 403 3881 828 4315 
Q 1253 4750 1959 4750 
Q 2769 4750 3195 4129 
Q 3622 3509 3622 2328 
Q 3622 1225 3098 567 
Q 2575 -91 1691 -91 
Q 1453 -91 1209 -44 
Q 966 3 703 97 
z
M 1959 2075 
Q 2384 2075 2632 2365 
Q 2881 2656 2881 3163 
Q 2881 3666 2632 3958 
Q 2384 4250 1959 4250 
Q 1534 4250 1286 3958 
Q 1038 3666 1038 3163 
Q 1038 2656 1286 2365 
Q 1534 2075 1959 2075 
z
" transform="scale(0.015625)"/>
     </defs>
     <use xlink:href="#DejaVuSans-30"/>
     <use xlink:href="#DejaVuSans-2e" x="63.623047"/>
     <use xlink:href="#DejaVuSans-39" x="95.410156"/>
     <use xlink:href="#DejaVuSans-39" x="159.033203"/>
     <use xlink:href="#DejaVuSans-39" x="222.65625"/>
     <use xlink:href="#DejaVuSans-7e" x="286.279297"/>
     <use xlink:href="#DejaVuSans-33" x="370.068359"/>
     <use xlink:href="#DejaVuSans-30" x="433.691406"/>
    </g>
   </g>
  </g>
  <g id="axes_6">
   <g id="patch_17">
    <path d="M 1773.851243 146.484 
L 2067.813808 146.484 
L 2067.813808 70.656 
L 1773.851243 70.656 
z
" style="fill: #eaeaf2"/>
   </g>
   <g id="matplotlib.axis_11">
    <g id="xtick_21">
     <g id="line2d_51">
      <path d="M 1787.213178 146.484 
L 1787.213178 70.656 
" clip-path="url(#pf7f8bd65a5)" style="fill: none; stroke: #ffffff; stroke-linecap: round"/>
     </g>
     <g id="text_34">
      <!-- 0 -->
      <g style="fill: #262626" transform="translate(1779.86449 173.536391) scale(0.231 -0.231)">
       <use xlink:href="#DejaVuSans-30"/>
      </g>
     </g>
    </g>
    <g id="xtick_22">
     <g id="line2d_52">
      <path d="M 1878.858821 146.484 
L 1878.858821 70.656 
" clip-path="url(#pf7f8bd65a5)" style="fill: none; stroke: #ffffff; stroke-linecap: round"/>
     </g>
     <g id="text_35">
      <!-- 250 -->
      <g style="fill: #262626" transform="translate(1856.812758 173.536391) scale(0.231 -0.231)">
       <use xlink:href="#DejaVuSans-32"/>
       <use xlink:href="#DejaVuSans-35" x="63.623047"/>
       <use xlink:href="#DejaVuSans-30" x="127.246094"/>
      </g>
     </g>
    </g>
    <g id="xtick_23">
     <g id="line2d_53">
      <path d="M 1970.504464 146.484 
L 1970.504464 70.656 
" clip-path="url(#pf7f8bd65a5)" style="fill: none; stroke: #ffffff; stroke-linecap: round"/>
     </g>
     <g id="text_36">
      <!-- 500 -->
      <g style="fill: #262626" transform="translate(1948.458402 173.536391) scale(0.231 -0.231)">
       <use xlink:href="#DejaVuSans-35"/>
       <use xlink:href="#DejaVuSans-30" x="63.623047"/>
       <use xlink:href="#DejaVuSans-30" x="127.246094"/>
      </g>
     </g>
    </g>
    <g id="xtick_24">
     <g id="line2d_54">
      <path d="M 2062.150108 146.484 
L 2062.150108 70.656 
" clip-path="url(#pf7f8bd65a5)" style="fill: none; stroke: #ffffff; stroke-linecap: round"/>
     </g>
     <g id="text_37">
      <!-- 750 -->
      <g style="fill: #262626" transform="translate(2040.104045 173.536391) scale(0.231 -0.231)">
       <use xlink:href="#DejaVuSans-37"/>
       <use xlink:href="#DejaVuSans-35" x="63.623047"/>
       <use xlink:href="#DejaVuSans-30" x="127.246094"/>
      </g>
     </g>
    </g>
    <g id="text_38">
     <!-- step -->
     <g style="fill: #262626" transform="translate(1893.577151 201.488531) scale(0.252 -0.252)">
      <use xlink:href="#DejaVuSans-73"/>
      <use xlink:href="#DejaVuSans-74" x="52.099609"/>
      <use xlink:href="#DejaVuSans-65" x="91.308594"/>
      <use xlink:href="#DejaVuSans-70" x="152.832031"/>
     </g>
    </g>
   </g>
   <g id="matplotlib.axis_12">
    <g id="ytick_11">
     <g id="line2d_55">
      <path d="M 1773.851243 132.652215 
L 2067.813808 132.652215 
" clip-path="url(#pf7f8bd65a5)" style="fill: none; stroke: #ffffff; stroke-linecap: round"/>
     </g>
    </g>
    <g id="ytick_12">
     <g id="line2d_56">
      <path d="M 1773.851243 85.904711 
L 2067.813808 85.904711 
" clip-path="url(#pf7f8bd65a5)" style="fill: none; stroke: #ffffff; stroke-linecap: round"/>
     </g>
    </g>
   </g>
   <g id="PolyCollection_21"/>
   <g id="PolyCollection_22"/>
   <g id="PolyCollection_23"/>
   <g id="PolyCollection_24"/>
   <g id="line2d_57">
    <path d="M 1787.213178 85.904711 
L 1787.57976 89.66828 
L 1788.312925 89.837851 
L 1792.345334 89.900566 
L 1792.711916 89.809919 
L 1793.078499 90.046355 
L 1793.445081 90.440414 
L 1794.178247 91.751561 
L 1797.844072 99.110441 
L 1800.776733 104.530013 
L 1803.709393 109.520686 
L 1806.642054 114.112728 
L 1809.574715 118.321605 
L 1812.507375 122.15621 
L 1815.440036 125.635391 
L 1818.372696 128.75891 
L 1821.305357 131.537286 
L 1824.238018 133.981016 
L 1826.804096 135.851951 
L 1829.736756 137.699395 
L 1832.302834 139.074421 
L 1834.868912 140.2283 
L 1837.801573 141.28817 
L 1840.734233 142.084936 
L 1843.666894 142.634138 
L 1846.599555 142.948906 
L 1849.532215 143.036021 
L 1852.464876 142.90608 
L 1855.397536 142.57156 
L 1858.696779 141.960451 
L 1861.996023 141.119082 
L 1865.661848 139.942145 
L 1869.694257 138.388918 
L 1874.093248 136.431907 
L 1878.858821 134.059078 
L 1884.724142 130.871835 
L 1890.222881 127.881238 
L 1893.522124 126.556989 
L 1900.487193 123.934599 
L 1904.886184 122.516004 
L 1911.851253 120.507199 
L 1921.748982 118.475217 
L 1934.21279 116.320738 
L 1951.44217 113.720327 
L 1972.337377 110.533593 
L 1990.666506 107.51936 
L 2010.095382 104.098204 
L 2040.888318 98.416448 
L 2054.451873 95.832428 
L 2054.451873 95.832428 
" clip-path="url(#pf7f8bd65a5)" style="fill: none; stroke: #4c72b0; stroke-opacity: 0.9; stroke-width: 3; stroke-linecap: round"/>
   </g>
   <g id="line2d_58">
    <path d="M 1787.213178 85.904711 
L 1787.57976 87.957383 
L 1788.312925 88.075431 
L 1792.345334 88.094825 
L 1793.078499 88.099599 
L 1793.811664 88.623636 
L 1795.644577 90.874472 
L 1797.844072 93.43114 
L 1801.876481 97.72541 
L 1805.175724 100.884439 
L 1808.474967 103.732217 
L 1811.77421 106.277302 
L 1815.073453 108.534424 
L 1818.372696 110.511648 
L 1821.67194 112.221825 
L 1824.971183 113.669061 
L 1828.270426 114.864116 
L 1831.569669 115.819979 
L 1834.868912 116.549716 
L 1838.168155 117.060953 
L 1841.467399 117.364403 
L 1845.133224 117.477296 
L 1848.79905 117.373327 
L 1852.831458 117.021193 
L 1856.863867 116.443391 
L 1861.262857 115.581976 
L 1865.661848 114.485143 
L 1870.427422 113.057601 
L 1876.292743 111.046394 
L 1885.090725 107.984346 
L 1886.923638 107.488784 
L 1889.123133 107.219201 
L 1897.921115 106.705869 
L 1905.619349 106.450148 
L 1912.951 105.963472 
L 1933.113042 104.411541 
L 1944.110519 104.076747 
L 1967.571804 103.514401 
L 1981.501941 102.928786 
L 1996.165244 102.086935 
L 2014.12779 100.82003 
L 2040.155153 98.739606 
L 2054.451873 97.535218 
L 2054.451873 97.535218 
" clip-path="url(#pf7f8bd65a5)" style="fill: none; stroke: #dd8452; stroke-opacity: 0.9; stroke-width: 3; stroke-linecap: round"/>
   </g>
   <g id="line2d_59">
    <path d="M 1787.213178 85.904711 
L 1787.57976 89.84866 
L 1787.946343 90.063806 
L 1789.046091 90.136579 
L 1793.445081 90.187235 
L 1794.544829 90.543747 
L 1795.644577 91.060625 
L 1797.47749 92.192412 
L 1802.609646 95.748165 
L 1807.741802 99.242394 
L 1811.77421 101.68477 
L 1815.806618 103.913351 
L 1820.205609 106.056352 
L 1824.238018 107.749688 
L 1828.270426 109.179997 
L 1832.302834 110.367519 
L 1836.335242 111.3256 
L 1840.367651 112.066925 
L 1844.766642 112.643359 
L 1849.165633 112.98986 
L 1853.564623 113.114276 
L 1858.330197 113.014112 
L 1863.09577 112.689305 
L 1868.227926 112.114052 
L 1874.093248 111.227633 
L 1881.424899 109.881965 
L 1897.554532 106.599004 
L 1917.716574 102.501807 
L 1932.746459 99.795229 
L 1949.609258 96.996102 
L 1966.472056 94.416659 
L 1980.402194 92.500632 
L 1992.132836 91.097942 
L 2003.130313 90.007271 
L 2016.327286 88.939396 
L 2032.823502 87.83222 
L 2051.885795 86.792543 
L 2054.451873 86.66907 
L 2054.451873 86.66907 
" clip-path="url(#pf7f8bd65a5)" style="fill: none; stroke: #55a868; stroke-opacity: 0.9; stroke-width: 3; stroke-linecap: round"/>
   </g>
   <g id="line2d_60">
    <path d="M 1787.213178 85.904711 
L 1787.57976 89.004328 
L 1787.946343 89.176821 
L 1789.046091 89.23376 
L 1793.445081 89.297819 
L 1794.544829 89.674511 
L 1796.011159 90.460657 
L 1798.210655 91.867594 
L 1809.941297 99.458265 
L 1814.340288 101.877044 
L 1818.372696 103.829387 
L 1822.405105 105.523186 
L 1826.437513 106.973116 
L 1830.469921 108.197775 
L 1834.868912 109.298379 
L 1839.267903 110.160989 
L 1843.666894 110.787997 
L 1848.065885 111.194141 
L 1852.831458 111.396775 
L 1857.597032 111.365255 
L 1862.729188 111.094195 
L 1868.227926 110.566639 
L 1874.093248 109.775106 
L 1881.424899 108.536558 
L 1894.255289 106.073956 
L 1919.182904 101.200574 
L 1930.913546 99.196075 
L 1951.075588 96.008702 
L 1966.105473 93.861378 
L 1981.135359 91.93186 
L 1993.965749 90.512574 
L 2006.429556 89.36488 
L 2020.359694 88.302251 
L 2036.122745 87.338132 
L 2054.451873 86.442236 
L 2054.451873 86.442236 
" clip-path="url(#pf7f8bd65a5)" style="fill: none; stroke: #c44e52; stroke-opacity: 0.9; stroke-width: 3; stroke-linecap: round"/>
   </g>
   <g id="patch_18">
    <path d="M 1773.851243 146.484 
L 1773.851243 70.656 
" style="fill: none; stroke: #ffffff; stroke-width: 1.25; stroke-linejoin: miter; stroke-linecap: square"/>
   </g>
   <g id="patch_19">
    <path d="M 1773.851243 146.484 
L 2067.813808 146.484 
" style="fill: none; stroke: #ffffff; stroke-width: 1.25; stroke-linejoin: miter; stroke-linecap: square"/>
   </g>
   <g id="text_39">
    <!-- 0.999~365 -->
    <g style="fill: #262626" transform="translate(1850.152432 64.656) scale(0.252 -0.252)">
     <use xlink:href="#DejaVuSans-30"/>
     <use xlink:href="#DejaVuSans-2e" x="63.623047"/>
     <use xlink:href="#DejaVuSans-39" x="95.410156"/>
     <use xlink:href="#DejaVuSans-39" x="159.033203"/>
     <use xlink:href="#DejaVuSans-39" x="222.65625"/>
     <use xlink:href="#DejaVuSans-7e" x="286.279297"/>
     <use xlink:href="#DejaVuSans-33" x="370.068359"/>
     <use xlink:href="#DejaVuSans-36" x="433.691406"/>
     <use xlink:href="#DejaVuSans-35" x="497.314453"/>
    </g>
   </g>
  </g>
  <g id="text_40">
   <!-- Production change from pre-shock level -->
   <g style="fill: #262626" transform="translate(660.251271 30.177675) scale(0.3024 -0.3024)">
    <defs>
     <path id="DejaVuSans-50" d="M 1259 4147 
L 1259 2394 
L 2053 2394 
Q 2494 2394 2734 2622 
Q 2975 2850 2975 3272 
Q 2975 3691 2734 3919 
Q 2494 4147 2053 4147 
L 1259 4147 
z
M 628 4666 
L 2053 4666 
Q 2838 4666 3239 4311 
Q 3641 3956 3641 3272 
Q 3641 2581 3239 2228 
Q 2838 1875 2053 1875 
L 1259 1875 
L 1259 0 
L 628 0 
L 628 4666 
z
" transform="scale(0.015625)"/>
     <path id="DejaVuSans-72" d="M 2631 2963 
Q 2534 3019 2420 3045 
Q 2306 3072 2169 3072 
Q 1681 3072 1420 2755 
Q 1159 2438 1159 1844 
L 1159 0 
L 581 0 
L 581 3500 
L 1159 3500 
L 1159 2956 
Q 1341 3275 1631 3429 
Q 1922 3584 2338 3584 
Q 2397 3584 2469 3576 
Q 2541 3569 2628 3553 
L 2631 2963 
z
" transform="scale(0.015625)"/>
     <path id="DejaVuSans-6f" d="M 1959 3097 
Q 1497 3097 1228 2736 
Q 959 2375 959 1747 
Q 959 1119 1226 758 
Q 1494 397 1959 397 
Q 2419 397 2687 759 
Q 2956 1122 2956 1747 
Q 2956 2369 2687 2733 
Q 2419 3097 1959 3097 
z
M 1959 3584 
Q 2709 3584 3137 3096 
Q 3566 2609 3566 1747 
Q 3566 888 3137 398 
Q 2709 -91 1959 -91 
Q 1206 -91 779 398 
Q 353 888 353 1747 
Q 353 2609 779 3096 
Q 1206 3584 1959 3584 
z
" transform="scale(0.015625)"/>
     <path id="DejaVuSans-64" d="M 2906 2969 
L 2906 4863 
L 3481 4863 
L 3481 0 
L 2906 0 
L 2906 525 
Q 2725 213 2448 61 
Q 2172 -91 1784 -91 
Q 1150 -91 751 415 
Q 353 922 353 1747 
Q 353 2572 751 3078 
Q 1150 3584 1784 3584 
Q 2172 3584 2448 3432 
Q 2725 3281 2906 2969 
z
M 947 1747 
Q 947 1113 1208 752 
Q 1469 391 1925 391 
Q 2381 391 2643 752 
Q 2906 1113 2906 1747 
Q 2906 2381 2643 2742 
Q 2381 3103 1925 3103 
Q 1469 3103 1208 2742 
Q 947 2381 947 1747 
z
" transform="scale(0.015625)"/>
     <path id="DejaVuSans-75" d="M 544 1381 
L 544 3500 
L 1119 3500 
L 1119 1403 
Q 1119 906 1312 657 
Q 1506 409 1894 409 
Q 2359 409 2629 706 
Q 2900 1003 2900 1516 
L 2900 3500 
L 3475 3500 
L 3475 0 
L 2900 0 
L 2900 538 
Q 2691 219 2414 64 
Q 2138 -91 1772 -91 
Q 1169 -91 856 284 
Q 544 659 544 1381 
z
M 1991 3584 
L 1991 3584 
z
" transform="scale(0.015625)"/>
     <path id="DejaVuSans-69" d="M 603 3500 
L 1178 3500 
L 1178 0 
L 603 0 
L 603 3500 
z
M 603 4863 
L 1178 4863 
L 1178 4134 
L 603 4134 
L 603 4863 
z
" transform="scale(0.015625)"/>
     <path id="DejaVuSans-66" d="M 2375 4863 
L 2375 4384 
L 1825 4384 
Q 1516 4384 1395 4259 
Q 1275 4134 1275 3809 
L 1275 3500 
L 2222 3500 
L 2222 3053 
L 1275 3053 
L 1275 0 
L 697 0 
L 697 3053 
L 147 3053 
L 147 3500 
L 697 3500 
L 697 3744 
Q 697 4328 969 4595 
Q 1241 4863 1831 4863 
L 2375 4863 
z
" transform="scale(0.015625)"/>
     <path id="DejaVuSans-6d" d="M 3328 2828 
Q 3544 3216 3844 3400 
Q 4144 3584 4550 3584 
Q 5097 3584 5394 3201 
Q 5691 2819 5691 2113 
L 5691 0 
L 5113 0 
L 5113 2094 
Q 5113 2597 4934 2840 
Q 4756 3084 4391 3084 
Q 3944 3084 3684 2787 
Q 3425 2491 3425 1978 
L 3425 0 
L 2847 0 
L 2847 2094 
Q 2847 2600 2669 2842 
Q 2491 3084 2119 3084 
Q 1678 3084 1418 2786 
Q 1159 2488 1159 1978 
L 1159 0 
L 581 0 
L 581 3500 
L 1159 3500 
L 1159 2956 
Q 1356 3278 1631 3431 
Q 1906 3584 2284 3584 
Q 2666 3584 2933 3390 
Q 3200 3197 3328 2828 
z
" transform="scale(0.015625)"/>
     <path id="DejaVuSans-2d" d="M 313 2009 
L 1997 2009 
L 1997 1497 
L 313 1497 
L 313 2009 
z
" transform="scale(0.015625)"/>
     <path id="DejaVuSans-6b" d="M 581 4863 
L 1159 4863 
L 1159 1991 
L 2875 3500 
L 3609 3500 
L 1753 1863 
L 3688 0 
L 2938 0 
L 1159 1709 
L 1159 0 
L 581 0 
L 581 4863 
z
" transform="scale(0.015625)"/>
     <path id="DejaVuSans-6c" d="M 603 4863 
L 1178 4863 
L 1178 0 
L 603 0 
L 603 4863 
z
" transform="scale(0.015625)"/>
     <path id="DejaVuSans-76" d="M 191 3500 
L 800 3500 
L 1894 563 
L 2988 3500 
L 3597 3500 
L 2284 0 
L 1503 0 
L 191 3500 
z
" transform="scale(0.015625)"/>
    </defs>
    <use xlink:href="#DejaVuSans-50"/>
    <use xlink:href="#DejaVuSans-72" x="58.552734"/>
    <use xlink:href="#DejaVuSans-6f" x="97.416016"/>
    <use xlink:href="#DejaVuSans-64" x="158.597656"/>
    <use xlink:href="#DejaVuSans-75" x="222.074219"/>
    <use xlink:href="#DejaVuSans-63" x="285.453125"/>
    <use xlink:href="#DejaVuSans-74" x="340.433594"/>
    <use xlink:href="#DejaVuSans-69" x="379.642578"/>
    <use xlink:href="#DejaVuSans-6f" x="407.425781"/>
    <use xlink:href="#DejaVuSans-6e" x="468.607422"/>
    <use xlink:href="#DejaVuSans-20" x="531.986328"/>
    <use xlink:href="#DejaVuSans-63" x="563.773438"/>
    <use xlink:href="#DejaVuSans-68" x="618.753906"/>
    <use xlink:href="#DejaVuSans-61" x="682.132812"/>
    <use xlink:href="#DejaVuSans-6e" x="743.412109"/>
    <use xlink:href="#DejaVuSans-67" x="806.791016"/>
    <use xlink:href="#DejaVuSans-65" x="870.267578"/>
    <use xlink:href="#DejaVuSans-20" x="931.791016"/>
    <use xlink:href="#DejaVuSans-66" x="963.578125"/>
    <use xlink:href="#DejaVuSans-72" x="998.783203"/>
    <use xlink:href="#DejaVuSans-6f" x="1037.646484"/>
    <use xlink:href="#DejaVuSans-6d" x="1098.828125"/>
    <use xlink:href="#DejaVuSans-20" x="1196.240234"/>
    <use xlink:href="#DejaVuSans-70" x="1228.027344"/>
    <use xlink:href="#DejaVuSans-72" x="1291.503906"/>
    <use xlink:href="#DejaVuSans-65" x="1330.367188"/>
    <use xlink:href="#DejaVuSans-2d" x="1391.890625"/>
    <use xlink:href="#DejaVuSans-73" x="1427.974609"/>
    <use xlink:href="#DejaVuSans-68" x="1480.074219"/>
    <use xlink:href="#DejaVuSans-6f" x="1543.453125"/>
    <use xlink:href="#DejaVuSans-63" x="1604.634766"/>
    <use xlink:href="#DejaVuSans-6b" x="1659.615234"/>
    <use xlink:href="#DejaVuSans-20" x="1717.525391"/>
    <use xlink:href="#DejaVuSans-6c" x="1749.3125"/>
    <use xlink:href="#DejaVuSans-65" x="1777.095703"/>
    <use xlink:href="#DejaVuSans-76" x="1838.619141"/>
    <use xlink:href="#DejaVuSans-65" x="1897.798828"/>
    <use xlink:href="#DejaVuSans-6c" x="1959.322266"/>
   </g>
  </g>
  <g id="legend_1">
   <g id="patch_20">
    <path d="M 478.330474 322.967813 
L 1692.184943 322.967813 
Q 1696.804943 322.967813 1696.804943 318.347813 
L 1696.804943 250.17 
Q 1696.804943 245.55 1692.184943 245.55 
L 478.330474 245.55 
Q 473.710474 245.55 473.710474 250.17 
L 473.710474 318.347813 
Q 473.710474 322.967813 478.330474 322.967813 
z
" style="fill: #eaeaf2; opacity: 0.8; stroke: #cccccc; stroke-linejoin: miter"/>
   </g>
   <g id="text_41">
    <!-- Experiences -->
    <g style="fill: #262626" transform="translate(1008.423302 273.938063) scale(0.252 -0.252)">
     <defs>
      <path id="DejaVuSans-45" d="M 628 4666 
L 3578 4666 
L 3578 4134 
L 1259 4134 
L 1259 2753 
L 3481 2753 
L 3481 2222 
L 1259 2222 
L 1259 531 
L 3634 531 
L 3634 0 
L 628 0 
L 628 4666 
z
" transform="scale(0.015625)"/>
      <path id="DejaVuSans-78" d="M 3513 3500 
L 2247 1797 
L 3578 0 
L 2900 0 
L 1881 1375 
L 863 0 
L 184 0 
L 1544 1831 
L 300 3500 
L 978 3500 
L 1906 2253 
L 2834 3500 
L 3513 3500 
z
" transform="scale(0.015625)"/>
     </defs>
     <use xlink:href="#DejaVuSans-45"/>
     <use xlink:href="#DejaVuSans-78" x="63.183594"/>
     <use xlink:href="#DejaVuSans-70" x="122.363281"/>
     <use xlink:href="#DejaVuSans-65" x="185.839844"/>
     <use xlink:href="#DejaVuSans-72" x="247.363281"/>
     <use xlink:href="#DejaVuSans-69" x="288.476562"/>
     <use xlink:href="#DejaVuSans-65" x="316.259766"/>
     <use xlink:href="#DejaVuSans-6e" x="377.783203"/>
     <use xlink:href="#DejaVuSans-63" x="441.162109"/>
     <use xlink:href="#DejaVuSans-65" x="496.142578"/>
     <use xlink:href="#DejaVuSans-73" x="557.666016"/>
    </g>
   </g>
   <g id="line2d_61">
    <path d="M 482.950474 300.196266 
L 506.050474 300.196266 
L 529.150474 300.196266 
" style="fill: none; stroke: #4c72b0; stroke-opacity: 0.9; stroke-width: 3; stroke-linecap: round"/>
   </g>
   <g id="text_42">
    <!-- eora26_full_2000 -->
    <g style="fill: #262626" transform="translate(547.630474 308.281266) scale(0.231 -0.231)">
     <defs>
      <path id="DejaVuSans-5f" d="M 3263 -1063 
L 3263 -1509 
L -63 -1509 
L -63 -1063 
L 3263 -1063 
z
" transform="scale(0.015625)"/>
     </defs>
     <use xlink:href="#DejaVuSans-65"/>
     <use xlink:href="#DejaVuSans-6f" x="61.523438"/>
     <use xlink:href="#DejaVuSans-72" x="122.705078"/>
     <use xlink:href="#DejaVuSans-61" x="163.818359"/>
     <use xlink:href="#DejaVuSans-32" x="225.097656"/>
     <use xlink:href="#DejaVuSans-36" x="288.720703"/>
     <use xlink:href="#DejaVuSans-5f" x="352.34375"/>
     <use xlink:href="#DejaVuSans-66" x="402.34375"/>
     <use xlink:href="#DejaVuSans-75" x="437.548828"/>
     <use xlink:href="#DejaVuSans-6c" x="500.927734"/>
     <use xlink:href="#DejaVuSans-6c" x="528.710938"/>
     <use xlink:href="#DejaVuSans-5f" x="556.494141"/>
     <use xlink:href="#DejaVuSans-32" x="606.494141"/>
     <use xlink:href="#DejaVuSans-30" x="670.117188"/>
     <use xlink:href="#DejaVuSans-30" x="733.740234"/>
     <use xlink:href="#DejaVuSans-30" x="797.363281"/>
    </g>
   </g>
   <g id="line2d_62">
    <path d="M 792.721474 300.196266 
L 815.821474 300.196266 
L 838.921474 300.196266 
" style="fill: none; stroke: #dd8452; stroke-opacity: 0.9; stroke-width: 3; stroke-linecap: round"/>
   </g>
   <g id="text_43">
    <!-- eora26_full_2010 -->
    <g style="fill: #262626" transform="translate(857.401474 308.281266) scale(0.231 -0.231)">
     <use xlink:href="#DejaVuSans-65"/>
     <use xlink:href="#DejaVuSans-6f" x="61.523438"/>
     <use xlink:href="#DejaVuSans-72" x="122.705078"/>
     <use xlink:href="#DejaVuSans-61" x="163.818359"/>
     <use xlink:href="#DejaVuSans-32" x="225.097656"/>
     <use xlink:href="#DejaVuSans-36" x="288.720703"/>
     <use xlink:href="#DejaVuSans-5f" x="352.34375"/>
     <use xlink:href="#DejaVuSans-66" x="402.34375"/>
     <use xlink:href="#DejaVuSans-75" x="437.548828"/>
     <use xlink:href="#DejaVuSans-6c" x="500.927734"/>
     <use xlink:href="#DejaVuSans-6c" x="528.710938"/>
     <use xlink:href="#DejaVuSans-5f" x="556.494141"/>
     <use xlink:href="#DejaVuSans-32" x="606.494141"/>
     <use xlink:href="#DejaVuSans-30" x="670.117188"/>
     <use xlink:href="#DejaVuSans-31" x="733.740234"/>
     <use xlink:href="#DejaVuSans-30" x="797.363281"/>
    </g>
   </g>
   <g id="line2d_63">
    <path d="M 1102.492474 300.196266 
L 1125.592474 300.196266 
L 1148.692474 300.196266 
" style="fill: none; stroke: #55a868; stroke-opacity: 0.9; stroke-width: 3; stroke-linecap: round"/>
   </g>
   <g id="text_44">
    <!-- euregio_full_2000 -->
    <g style="fill: #262626" transform="translate(1167.172474 308.281266) scale(0.231 -0.231)">
     <use xlink:href="#DejaVuSans-65"/>
     <use xlink:href="#DejaVuSans-75" x="61.523438"/>
     <use xlink:href="#DejaVuSans-72" x="124.902344"/>
     <use xlink:href="#DejaVuSans-65" x="163.765625"/>
     <use xlink:href="#DejaVuSans-67" x="225.289062"/>
     <use xlink:href="#DejaVuSans-69" x="288.765625"/>
     <use xlink:href="#DejaVuSans-6f" x="316.548828"/>
     <use xlink:href="#DejaVuSans-5f" x="377.730469"/>
     <use xlink:href="#DejaVuSans-66" x="427.730469"/>
     <use xlink:href="#DejaVuSans-75" x="462.935547"/>
     <use xlink:href="#DejaVuSans-6c" x="526.314453"/>
     <use xlink:href="#DejaVuSans-6c" x="554.097656"/>
     <use xlink:href="#DejaVuSans-5f" x="581.880859"/>
     <use xlink:href="#DejaVuSans-32" x="631.880859"/>
     <use xlink:href="#DejaVuSans-30" x="695.503906"/>
     <use xlink:href="#DejaVuSans-30" x="759.126953"/>
     <use xlink:href="#DejaVuSans-30" x="822.75"/>
    </g>
   </g>
   <g id="line2d_64">
    <path d="M 1418.128708 300.196266 
L 1441.228708 300.196266 
L 1464.328708 300.196266 
" style="fill: none; stroke: #c44e52; stroke-opacity: 0.9; stroke-width: 3; stroke-linecap: round"/>
   </g>
   <g id="text_45">
    <!-- euregio_full_2010 -->
    <g style="fill: #262626" transform="translate(1482.808708 308.281266) scale(0.231 -0.231)">
     <use xlink:href="#DejaVuSans-65"/>
     <use xlink:href="#DejaVuSans-75" x="61.523438"/>
     <use xlink:href="#DejaVuSans-72" x="124.902344"/>
     <use xlink:href="#DejaVuSans-65" x="163.765625"/>
     <use xlink:href="#DejaVuSans-67" x="225.289062"/>
     <use xlink:href="#DejaVuSans-69" x="288.765625"/>
     <use xlink:href="#DejaVuSans-6f" x="316.548828"/>
     <use xlink:href="#DejaVuSans-5f" x="377.730469"/>
     <use xlink:href="#DejaVuSans-66" x="427.730469"/>
     <use xlink:href="#DejaVuSans-75" x="462.935547"/>
     <use xlink:href="#DejaVuSans-6c" x="526.314453"/>
     <use xlink:href="#DejaVuSans-6c" x="554.097656"/>
     <use xlink:href="#DejaVuSans-5f" x="581.880859"/>
     <use xlink:href="#DejaVuSans-32" x="631.880859"/>
     <use xlink:href="#DejaVuSans-30" x="695.503906"/>
     <use xlink:href="#DejaVuSans-31" x="759.126953"/>
     <use xlink:href="#DejaVuSans-30" x="822.75"/>
    </g>
   </g>
  </g>
 </g>
 <defs>
  <clipPath id="p66818b95bd">
   <rect x="93.840703" y="70.656" width="293.962565" height="75.828"/>
  </clipPath>
  <clipPath id="p93af0217eb">
   <rect x="429.842811" y="70.656" width="293.962565" height="75.828"/>
  </clipPath>
  <clipPath id="p6d814c1933">
   <rect x="765.844919" y="70.656" width="293.962565" height="75.828"/>
  </clipPath>
  <clipPath id="p74a4264b81">
   <rect x="1101.847027" y="70.656" width="293.962565" height="75.828"/>
  </clipPath>
  <clipPath id="pa104210e40">
   <rect x="1437.849135" y="70.656" width="293.962565" height="75.828"/>
  </clipPath>
  <clipPath id="pf7f8bd65a5">
   <rect x="1773.851243" y="70.656" width="293.962565" height="75.828"/>
  </clipPath>
 </defs>
</svg>
