<?xml version="1.0" encoding="utf-8" standalone="no"?>
<!DOCTYPE svg PUBLIC "-//W3C//DTD SVG 1.1//EN"
  "http://www.w3.org/Graphics/SVG/1.1/DTD/svg11.dtd">
<svg xmlns:xlink="http://www.w3.org/1999/xlink" width="2090.52105pt" height="330.167813pt" viewBox="0 0 2090.52105 330.167813" xmlns="http://www.w3.org/2000/svg" version="1.1">
 <metadata>
  <rdf:RDF xmlns:dc="http://purl.org/dc/elements/1.1/" xmlns:cc="http://creativecommons.org/ns#" xmlns:rdf="http://www.w3.org/1999/02/22-rdf-syntax-ns#">
   <cc:Work>
    <dc:type rdf:resource="http://purl.org/dc/dcmitype/StillImage"/>
    <dc:date>2023-04-07T16:34:10.932836</dc:date>
    <dc:format>image/svg+xml</dc:format>
    <dc:creator>
     <cc:Agent>
      <dc:title>Matplotlib v3.7.1, https://matplotlib.org/</dc:title>
     </cc:Agent>
    </dc:creator>
   </cc:Work>
  </rdf:RDF>
 </metadata>
 <defs>
  <style type="text/css">*{stroke-linejoin: round; stroke-linecap: butt}</style>
 </defs>
 <g id="figure_1">
  <g id="patch_1">
   <path d="M 0 330.167813 
L 2090.52105 330.167813 
L 2090.52105 0 
L 0 0 
z
" style="fill: #ffffff"/>
  </g>
  <g id="axes_1">
   <g id="patch_2">
    <path d="M 101.182172 146.484 
L 393.792443 146.484 
L 393.792443 70.656 
L 101.182172 70.656 
z
" style="fill: #eaeaf2"/>
   </g>
   <g id="matplotlib.axis_1">
    <g id="xtick_1">
     <g id="line2d_1">
      <path d="M 114.482639 146.484 
L 114.482639 70.656 
" clip-path="url(#p71138b2fcb)" style="fill: none; stroke: #ffffff; stroke-linecap: round"/>
     </g>
     <g id="text_1">
      <!-- 0 -->
      <g style="fill: #262626" transform="translate(107.133951 173.536391) scale(0.231 -0.231)">
       <defs>
        <path id="DejaVuSans-30" d="M 2034 4250 
Q 1547 4250 1301 3770 
Q 1056 3291 1056 2328 
Q 1056 1369 1301 889 
Q 1547 409 2034 409 
Q 2525 409 2770 889 
Q 3016 1369 3016 2328 
Q 3016 3291 2770 3770 
Q 2525 4250 2034 4250 
z
M 2034 4750 
Q 2819 4750 3233 4129 
Q 3647 3509 3647 2328 
Q 3647 1150 3233 529 
Q 2819 -91 2034 -91 
Q 1250 -91 836 529 
Q 422 1150 422 2328 
Q 422 3509 836 4129 
Q 1250 4750 2034 4750 
z
" transform="scale(0.015625)"/>
       </defs>
       <use xlink:href="#DejaVuSans-30"/>
      </g>
     </g>
    </g>
    <g id="xtick_2">
     <g id="line2d_2">
      <path d="M 205.706691 146.484 
L 205.706691 70.656 
" clip-path="url(#p71138b2fcb)" style="fill: none; stroke: #ffffff; stroke-linecap: round"/>
     </g>
     <g id="text_2">
      <!-- 250 -->
      <g style="fill: #262626" transform="translate(183.660629 173.536391) scale(0.231 -0.231)">
       <defs>
        <path id="DejaVuSans-32" d="M 1228 531 
L 3431 531 
L 3431 0 
L 469 0 
L 469 531 
Q 828 903 1448 1529 
Q 2069 2156 2228 2338 
Q 2531 2678 2651 2914 
Q 2772 3150 2772 3378 
Q 2772 3750 2511 3984 
Q 2250 4219 1831 4219 
Q 1534 4219 1204 4116 
Q 875 4013 500 3803 
L 500 4441 
Q 881 4594 1212 4672 
Q 1544 4750 1819 4750 
Q 2544 4750 2975 4387 
Q 3406 4025 3406 3419 
Q 3406 3131 3298 2873 
Q 3191 2616 2906 2266 
Q 2828 2175 2409 1742 
Q 1991 1309 1228 531 
z
" transform="scale(0.015625)"/>
        <path id="DejaVuSans-35" d="M 691 4666 
L 3169 4666 
L 3169 4134 
L 1269 4134 
L 1269 2991 
Q 1406 3038 1543 3061 
Q 1681 3084 1819 3084 
Q 2600 3084 3056 2656 
Q 3513 2228 3513 1497 
Q 3513 744 3044 326 
Q 2575 -91 1722 -91 
Q 1428 -91 1123 -41 
Q 819 9 494 109 
L 494 744 
Q 775 591 1075 516 
Q 1375 441 1709 441 
Q 2250 441 2565 725 
Q 2881 1009 2881 1497 
Q 2881 1984 2565 2268 
Q 2250 2553 1709 2553 
Q 1456 2553 1204 2497 
Q 953 2441 691 2322 
L 691 4666 
z
" transform="scale(0.015625)"/>
       </defs>
       <use xlink:href="#DejaVuSans-32"/>
       <use xlink:href="#DejaVuSans-35" x="63.623047"/>
       <use xlink:href="#DejaVuSans-30" x="127.246094"/>
      </g>
     </g>
    </g>
    <g id="xtick_3">
     <g id="line2d_3">
      <path d="M 296.930744 146.484 
L 296.930744 70.656 
" clip-path="url(#p71138b2fcb)" style="fill: none; stroke: #ffffff; stroke-linecap: round"/>
     </g>
     <g id="text_3">
      <!-- 500 -->
      <g style="fill: #262626" transform="translate(274.884681 173.536391) scale(0.231 -0.231)">
       <use xlink:href="#DejaVuSans-35"/>
       <use xlink:href="#DejaVuSans-30" x="63.623047"/>
       <use xlink:href="#DejaVuSans-30" x="127.246094"/>
      </g>
     </g>
    </g>
    <g id="xtick_4">
     <g id="line2d_4">
      <path d="M 388.154797 146.484 
L 388.154797 70.656 
" clip-path="url(#p71138b2fcb)" style="fill: none; stroke: #ffffff; stroke-linecap: round"/>
     </g>
     <g id="text_4">
      <!-- 750 -->
      <g style="fill: #262626" transform="translate(366.108734 173.536391) scale(0.231 -0.231)">
       <defs>
        <path id="DejaVuSans-37" d="M 525 4666 
L 3525 4666 
L 3525 4397 
L 1831 0 
L 1172 0 
L 2766 4134 
L 525 4134 
L 525 4666 
z
" transform="scale(0.015625)"/>
       </defs>
       <use xlink:href="#DejaVuSans-37"/>
       <use xlink:href="#DejaVuSans-35" x="63.623047"/>
       <use xlink:href="#DejaVuSans-30" x="127.246094"/>
      </g>
     </g>
    </g>
    <g id="text_5">
     <!-- step -->
     <g style="fill: #262626" transform="translate(220.231932 201.488531) scale(0.252 -0.252)">
      <defs>
       <path id="DejaVuSans-73" d="M 2834 3397 
L 2834 2853 
Q 2591 2978 2328 3040 
Q 2066 3103 1784 3103 
Q 1356 3103 1142 2972 
Q 928 2841 928 2578 
Q 928 2378 1081 2264 
Q 1234 2150 1697 2047 
L 1894 2003 
Q 2506 1872 2764 1633 
Q 3022 1394 3022 966 
Q 3022 478 2636 193 
Q 2250 -91 1575 -91 
Q 1294 -91 989 -36 
Q 684 19 347 128 
L 347 722 
Q 666 556 975 473 
Q 1284 391 1588 391 
Q 1994 391 2212 530 
Q 2431 669 2431 922 
Q 2431 1156 2273 1281 
Q 2116 1406 1581 1522 
L 1381 1569 
Q 847 1681 609 1914 
Q 372 2147 372 2553 
Q 372 3047 722 3315 
Q 1072 3584 1716 3584 
Q 2034 3584 2315 3537 
Q 2597 3491 2834 3397 
z
" transform="scale(0.015625)"/>
       <path id="DejaVuSans-74" d="M 1172 4494 
L 1172 3500 
L 2356 3500 
L 2356 3053 
L 1172 3053 
L 1172 1153 
Q 1172 725 1289 603 
Q 1406 481 1766 481 
L 2356 481 
L 2356 0 
L 1766 0 
Q 1100 0 847 248 
Q 594 497 594 1153 
L 594 3053 
L 172 3053 
L 172 3500 
L 594 3500 
L 594 4494 
L 1172 4494 
z
" transform="scale(0.015625)"/>
       <path id="DejaVuSans-65" d="M 3597 1894 
L 3597 1613 
L 953 1613 
Q 991 1019 1311 708 
Q 1631 397 2203 397 
Q 2534 397 2845 478 
Q 3156 559 3463 722 
L 3463 178 
Q 3153 47 2828 -22 
Q 2503 -91 2169 -91 
Q 1331 -91 842 396 
Q 353 884 353 1716 
Q 353 2575 817 3079 
Q 1281 3584 2069 3584 
Q 2775 3584 3186 3129 
Q 3597 2675 3597 1894 
z
M 3022 2063 
Q 3016 2534 2758 2815 
Q 2500 3097 2075 3097 
Q 1594 3097 1305 2825 
Q 1016 2553 972 2059 
L 3022 2063 
z
" transform="scale(0.015625)"/>
       <path id="DejaVuSans-70" d="M 1159 525 
L 1159 -1331 
L 581 -1331 
L 581 3500 
L 1159 3500 
L 1159 2969 
Q 1341 3281 1617 3432 
Q 1894 3584 2278 3584 
Q 2916 3584 3314 3078 
Q 3713 2572 3713 1747 
Q 3713 922 3314 415 
Q 2916 -91 2278 -91 
Q 1894 -91 1617 61 
Q 1341 213 1159 525 
z
M 3116 1747 
Q 3116 2381 2855 2742 
Q 2594 3103 2138 3103 
Q 1681 3103 1420 2742 
Q 1159 2381 1159 1747 
Q 1159 1113 1420 752 
Q 1681 391 2138 391 
Q 2594 391 2855 752 
Q 3116 1113 3116 1747 
z
" transform="scale(0.015625)"/>
      </defs>
      <use xlink:href="#DejaVuSans-73"/>
      <use xlink:href="#DejaVuSans-74" x="52.099609"/>
      <use xlink:href="#DejaVuSans-65" x="91.308594"/>
      <use xlink:href="#DejaVuSans-70" x="152.832031"/>
     </g>
    </g>
   </g>
   <g id="matplotlib.axis_2">
    <g id="ytick_1">
     <g id="line2d_5">
      <path d="M 101.182172 119.023347 
L 393.792443 119.023347 
" clip-path="url(#p71138b2fcb)" style="fill: none; stroke: #ffffff; stroke-linecap: round"/>
     </g>
     <g id="text_6">
      <!-- −0.5 -->
      <g style="fill: #262626" transform="translate(35.588875 127.799542) scale(0.231 -0.231)">
       <defs>
        <path id="DejaVuSans-2212" d="M 678 2272 
L 4684 2272 
L 4684 1741 
L 678 1741 
L 678 2272 
z
" transform="scale(0.015625)"/>
        <path id="DejaVuSans-2e" d="M 684 794 
L 1344 794 
L 1344 0 
L 684 0 
L 684 794 
z
" transform="scale(0.015625)"/>
       </defs>
       <use xlink:href="#DejaVuSans-2212"/>
       <use xlink:href="#DejaVuSans-30" x="83.789062"/>
       <use xlink:href="#DejaVuSans-2e" x="147.412109"/>
       <use xlink:href="#DejaVuSans-35" x="179.199219"/>
      </g>
     </g>
    </g>
    <g id="ytick_2">
     <g id="line2d_6">
      <path d="M 101.182172 89.942195 
L 393.792443 89.942195 
" clip-path="url(#p71138b2fcb)" style="fill: none; stroke: #ffffff; stroke-linecap: round"/>
     </g>
     <g id="text_7">
      <!-- 0.0 -->
      <g style="fill: #262626" transform="translate(54.945953 98.718391) scale(0.231 -0.231)">
       <use xlink:href="#DejaVuSans-30"/>
       <use xlink:href="#DejaVuSans-2e" x="63.623047"/>
       <use xlink:href="#DejaVuSans-30" x="95.410156"/>
      </g>
     </g>
    </g>
    <g id="text_8">
     <!-- % change -->
     <g style="fill: #262626" transform="translate(26.348062 170.918344) rotate(-90) scale(0.252 -0.252)">
      <defs>
       <path id="DejaVuSans-25" d="M 4653 2053 
Q 4381 2053 4226 1822 
Q 4072 1591 4072 1178 
Q 4072 772 4226 539 
Q 4381 306 4653 306 
Q 4919 306 5073 539 
Q 5228 772 5228 1178 
Q 5228 1588 5073 1820 
Q 4919 2053 4653 2053 
z
M 4653 2450 
Q 5147 2450 5437 2106 
Q 5728 1763 5728 1178 
Q 5728 594 5436 251 
Q 5144 -91 4653 -91 
Q 4153 -91 3862 251 
Q 3572 594 3572 1178 
Q 3572 1766 3864 2108 
Q 4156 2450 4653 2450 
z
M 1428 4353 
Q 1159 4353 1004 4120 
Q 850 3888 850 3481 
Q 850 3069 1003 2837 
Q 1156 2606 1428 2606 
Q 1700 2606 1854 2837 
Q 2009 3069 2009 3481 
Q 2009 3884 1853 4118 
Q 1697 4353 1428 4353 
z
M 4250 4750 
L 4750 4750 
L 1831 -91 
L 1331 -91 
L 4250 4750 
z
M 1428 4750 
Q 1922 4750 2215 4408 
Q 2509 4066 2509 3481 
Q 2509 2891 2217 2550 
Q 1925 2209 1428 2209 
Q 931 2209 642 2551 
Q 353 2894 353 3481 
Q 353 4063 643 4406 
Q 934 4750 1428 4750 
z
" transform="scale(0.015625)"/>
       <path id="DejaVuSans-20" transform="scale(0.015625)"/>
       <path id="DejaVuSans-63" d="M 3122 3366 
L 3122 2828 
Q 2878 2963 2633 3030 
Q 2388 3097 2138 3097 
Q 1578 3097 1268 2742 
Q 959 2388 959 1747 
Q 959 1106 1268 751 
Q 1578 397 2138 397 
Q 2388 397 2633 464 
Q 2878 531 3122 666 
L 3122 134 
Q 2881 22 2623 -34 
Q 2366 -91 2075 -91 
Q 1284 -91 818 406 
Q 353 903 353 1747 
Q 353 2603 823 3093 
Q 1294 3584 2113 3584 
Q 2378 3584 2631 3529 
Q 2884 3475 3122 3366 
z
" transform="scale(0.015625)"/>
       <path id="DejaVuSans-68" d="M 3513 2113 
L 3513 0 
L 2938 0 
L 2938 2094 
Q 2938 2591 2744 2837 
Q 2550 3084 2163 3084 
Q 1697 3084 1428 2787 
Q 1159 2491 1159 1978 
L 1159 0 
L 581 0 
L 581 4863 
L 1159 4863 
L 1159 2956 
Q 1366 3272 1645 3428 
Q 1925 3584 2291 3584 
Q 2894 3584 3203 3211 
Q 3513 2838 3513 2113 
z
" transform="scale(0.015625)"/>
       <path id="DejaVuSans-61" d="M 2194 1759 
Q 1497 1759 1228 1600 
Q 959 1441 959 1056 
Q 959 750 1161 570 
Q 1363 391 1709 391 
Q 2188 391 2477 730 
Q 2766 1069 2766 1631 
L 2766 1759 
L 2194 1759 
z
M 3341 1997 
L 3341 0 
L 2766 0 
L 2766 531 
Q 2569 213 2275 61 
Q 1981 -91 1556 -91 
Q 1019 -91 701 211 
Q 384 513 384 1019 
Q 384 1609 779 1909 
Q 1175 2209 1959 2209 
L 2766 2209 
L 2766 2266 
Q 2766 2663 2505 2880 
Q 2244 3097 1772 3097 
Q 1472 3097 1187 3025 
Q 903 2953 641 2809 
L 641 3341 
Q 956 3463 1253 3523 
Q 1550 3584 1831 3584 
Q 2591 3584 2966 3190 
Q 3341 2797 3341 1997 
z
" transform="scale(0.015625)"/>
       <path id="DejaVuSans-6e" d="M 3513 2113 
L 3513 0 
L 2938 0 
L 2938 2094 
Q 2938 2591 2744 2837 
Q 2550 3084 2163 3084 
Q 1697 3084 1428 2787 
Q 1159 2491 1159 1978 
L 1159 0 
L 581 0 
L 581 3500 
L 1159 3500 
L 1159 2956 
Q 1366 3272 1645 3428 
Q 1925 3584 2291 3584 
Q 2894 3584 3203 3211 
Q 3513 2838 3513 2113 
z
" transform="scale(0.015625)"/>
       <path id="DejaVuSans-67" d="M 2906 1791 
Q 2906 2416 2648 2759 
Q 2391 3103 1925 3103 
Q 1463 3103 1205 2759 
Q 947 2416 947 1791 
Q 947 1169 1205 825 
Q 1463 481 1925 481 
Q 2391 481 2648 825 
Q 2906 1169 2906 1791 
z
M 3481 434 
Q 3481 -459 3084 -895 
Q 2688 -1331 1869 -1331 
Q 1566 -1331 1297 -1286 
Q 1028 -1241 775 -1147 
L 775 -588 
Q 1028 -725 1275 -790 
Q 1522 -856 1778 -856 
Q 2344 -856 2625 -561 
Q 2906 -266 2906 331 
L 2906 616 
Q 2728 306 2450 153 
Q 2172 0 1784 0 
Q 1141 0 747 490 
Q 353 981 353 1791 
Q 353 2603 747 3093 
Q 1141 3584 1784 3584 
Q 2172 3584 2450 3431 
Q 2728 3278 2906 2969 
L 2906 3500 
L 3481 3500 
L 3481 434 
z
" transform="scale(0.015625)"/>
      </defs>
      <use xlink:href="#DejaVuSans-25"/>
      <use xlink:href="#DejaVuSans-20" x="95.019531"/>
      <use xlink:href="#DejaVuSans-63" x="126.806641"/>
      <use xlink:href="#DejaVuSans-68" x="181.787109"/>
      <use xlink:href="#DejaVuSans-61" x="245.166016"/>
      <use xlink:href="#DejaVuSans-6e" x="306.445312"/>
      <use xlink:href="#DejaVuSans-67" x="369.824219"/>
      <use xlink:href="#DejaVuSans-65" x="433.300781"/>
     </g>
    </g>
   </g>
   <g id="PolyCollection_1"/>
   <g id="PolyCollection_2"/>
   <g id="PolyCollection_3"/>
   <g id="PolyCollection_4"/>
   <g id="line2d_7">
    <path d="M 114.482639 89.942195 
L 114.847535 136.767769 
L 115.212431 138.243541 
L 115.577327 138.471197 
L 116.30712 138.147519 
L 119.956082 135.773335 
L 122.875252 114.474574 
L 123.96994 108.769188 
L 125.064629 104.1325 
L 126.159317 100.416966 
L 127.254006 97.471193 
L 128.348695 95.10988 
L 129.443383 93.190643 
L 130.173176 92.165337 
L 131.267864 91.139405 
L 132.727449 90.102766 
L 134.187034 89.31846 
L 136.011515 88.616208 
L 138.200892 88.035643 
L 140.755166 87.601071 
L 143.309439 87.515036 
L 148.05309 87.585752 
L 181.258645 88.574129 
L 188.556569 88.767343 
L 206.80138 88.898912 
L 255.332576 88.963507 
L 380.491976 88.969315 
L 380.491976 88.969315 
" clip-path="url(#p71138b2fcb)" style="fill: none; stroke: #4c72b0; stroke-opacity: 0.9; stroke-width: 3; stroke-linecap: round"/>
   </g>
   <g id="line2d_8">
    <path d="M 114.482639 89.942195 
L 114.847535 115.481127 
L 115.212431 116.484701 
L 115.577327 116.760566 
L 116.30712 116.722262 
L 119.226289 115.830042 
L 119.956082 115.605245 
L 120.685874 112.664934 
L 122.145459 106.622607 
L 123.240148 102.974065 
L 124.334836 100.003742 
L 125.429525 97.582983 
L 126.524214 95.611449 
L 127.618902 94.026118 
L 128.713591 92.79182 
L 130.173176 91.524091 
L 131.267864 90.911027 
L 133.092345 90.195804 
L 135.281723 89.602384 
L 137.835996 89.149087 
L 141.120062 88.793654 
L 144.404128 88.643186 
L 151.702052 88.620998 
L 222.491917 89.244252 
L 374.288741 89.261182 
L 380.491976 89.261186 
L 380.491976 89.261186 
" clip-path="url(#p71138b2fcb)" style="fill: none; stroke: #dd8452; stroke-opacity: 0.9; stroke-width: 3; stroke-linecap: round"/>
   </g>
   <g id="line2d_9">
    <path d="M 114.482639 89.942195 
L 114.847535 139.012014 
L 115.212431 141.503141 
L 115.577327 141.969313 
L 115.942224 141.930236 
L 117.036912 141.289287 
L 119.956082 139.424174 
L 122.875252 116.35665 
L 123.96994 110.167982 
L 125.064629 105.126438 
L 126.159317 101.041928 
L 127.254006 97.742878 
L 128.348695 95.102032 
L 129.443383 93.038961 
L 130.173176 91.96052 
L 131.267864 90.770717 
L 132.362553 89.860607 
L 133.822138 88.957995 
L 135.281723 88.328259 
L 136.741308 87.909998 
L 138.930685 87.585769 
L 142.214751 87.385305 
L 146.593505 87.362676 
L 153.526533 87.569886 
L 162.284042 88.041872 
L 169.946863 88.452504 
L 180.163957 88.773275 
L 194.030013 88.971821 
L 220.30254 89.081617 
L 302.039291 89.111935 
L 380.491976 89.111481 
L 380.491976 89.111481 
" clip-path="url(#p71138b2fcb)" style="fill: none; stroke: #55a868; stroke-opacity: 0.9; stroke-width: 3; stroke-linecap: round"/>
   </g>
   <g id="line2d_10">
    <path d="M 114.482639 89.942195 
L 114.847535 128.507006 
L 115.212431 130.503931 
L 115.577327 130.866084 
L 116.30712 130.67803 
L 119.956082 128.798556 
L 122.875252 110.710199 
L 123.96994 105.843505 
L 125.064629 101.877817 
L 126.159317 98.66258 
L 127.254006 96.07217 
L 128.348695 94.007185 
L 129.443383 92.392682 
L 130.173176 91.550206 
L 131.632761 90.367191 
L 133.092345 89.530596 
L 134.916827 88.800618 
L 136.741308 88.407327 
L 139.295581 88.136106 
L 143.309439 87.982285 
L 149.512675 87.995795 
L 159.364873 88.251005 
L 181.988438 88.991227 
L 198.773663 89.145849 
L 234.168596 89.220538 
L 380.491976 89.229912 
L 380.491976 89.229912 
" clip-path="url(#p71138b2fcb)" style="fill: none; stroke: #c44e52; stroke-opacity: 0.9; stroke-width: 3; stroke-linecap: round"/>
   </g>
   <g id="patch_3">
    <path d="M 101.182172 146.484 
L 101.182172 70.656 
" style="fill: none; stroke: #ffffff; stroke-width: 1.25; stroke-linejoin: miter; stroke-linecap: square"/>
   </g>
   <g id="patch_4">
    <path d="M 101.182172 146.484 
L 393.792443 146.484 
" style="fill: none; stroke: #ffffff; stroke-width: 1.25; stroke-linejoin: miter; stroke-linecap: square"/>
   </g>
   <g id="text_9">
    <!-- 0.5~30 -->
    <g style="fill: #262626" transform="translate(200.857464 64.656) scale(0.252 -0.252)">
     <defs>
      <path id="DejaVuSans-7e" d="M 4684 2553 
L 4684 1997 
Q 4356 1750 4076 1644 
Q 3797 1538 3494 1538 
Q 3150 1538 2694 1722 
Q 2659 1734 2644 1741 
Q 2622 1750 2575 1766 
Q 2091 1959 1797 1959 
Q 1522 1959 1253 1839 
Q 984 1719 678 1459 
L 678 2016 
Q 1006 2263 1286 2370 
Q 1566 2478 1869 2478 
Q 2213 2478 2672 2291 
Q 2703 2278 2719 2272 
Q 2744 2263 2788 2247 
Q 3272 2053 3566 2053 
Q 3834 2053 4098 2172 
Q 4363 2291 4684 2553 
z
" transform="scale(0.015625)"/>
      <path id="DejaVuSans-33" d="M 2597 2516 
Q 3050 2419 3304 2112 
Q 3559 1806 3559 1356 
Q 3559 666 3084 287 
Q 2609 -91 1734 -91 
Q 1441 -91 1130 -33 
Q 819 25 488 141 
L 488 750 
Q 750 597 1062 519 
Q 1375 441 1716 441 
Q 2309 441 2620 675 
Q 2931 909 2931 1356 
Q 2931 1769 2642 2001 
Q 2353 2234 1838 2234 
L 1294 2234 
L 1294 2753 
L 1863 2753 
Q 2328 2753 2575 2939 
Q 2822 3125 2822 3475 
Q 2822 3834 2567 4026 
Q 2313 4219 1838 4219 
Q 1578 4219 1281 4162 
Q 984 4106 628 3988 
L 628 4550 
Q 988 4650 1302 4700 
Q 1616 4750 1894 4750 
Q 2613 4750 3031 4423 
Q 3450 4097 3450 3541 
Q 3450 3153 3228 2886 
Q 3006 2619 2597 2516 
z
" transform="scale(0.015625)"/>
     </defs>
     <use xlink:href="#DejaVuSans-30"/>
     <use xlink:href="#DejaVuSans-2e" x="63.623047"/>
     <use xlink:href="#DejaVuSans-35" x="95.410156"/>
     <use xlink:href="#DejaVuSans-7e" x="159.033203"/>
     <use xlink:href="#DejaVuSans-33" x="242.822266"/>
     <use xlink:href="#DejaVuSans-30" x="306.445312"/>
    </g>
   </g>
  </g>
  <g id="axes_2">
   <g id="patch_5">
    <path d="M 435.80621 146.484 
L 728.416481 146.484 
L 728.416481 70.656 
L 435.80621 70.656 
z
" style="fill: #eaeaf2"/>
   </g>
   <g id="matplotlib.axis_3">
    <g id="xtick_5">
     <g id="line2d_11">
      <path d="M 449.106677 146.484 
L 449.106677 70.656 
" clip-path="url(#pc6570cde92)" style="fill: none; stroke: #ffffff; stroke-linecap: round"/>
     </g>
     <g id="text_10">
      <!-- 0 -->
      <g style="fill: #262626" transform="translate(441.757989 173.536391) scale(0.231 -0.231)">
       <use xlink:href="#DejaVuSans-30"/>
      </g>
     </g>
    </g>
    <g id="xtick_6">
     <g id="line2d_12">
      <path d="M 540.330729 146.484 
L 540.330729 70.656 
" clip-path="url(#pc6570cde92)" style="fill: none; stroke: #ffffff; stroke-linecap: round"/>
     </g>
     <g id="text_11">
      <!-- 250 -->
      <g style="fill: #262626" transform="translate(518.284667 173.536391) scale(0.231 -0.231)">
       <use xlink:href="#DejaVuSans-32"/>
       <use xlink:href="#DejaVuSans-35" x="63.623047"/>
       <use xlink:href="#DejaVuSans-30" x="127.246094"/>
      </g>
     </g>
    </g>
    <g id="xtick_7">
     <g id="line2d_13">
      <path d="M 631.554782 146.484 
L 631.554782 70.656 
" clip-path="url(#pc6570cde92)" style="fill: none; stroke: #ffffff; stroke-linecap: round"/>
     </g>
     <g id="text_12">
      <!-- 500 -->
      <g style="fill: #262626" transform="translate(609.50872 173.536391) scale(0.231 -0.231)">
       <use xlink:href="#DejaVuSans-35"/>
       <use xlink:href="#DejaVuSans-30" x="63.623047"/>
       <use xlink:href="#DejaVuSans-30" x="127.246094"/>
      </g>
     </g>
    </g>
    <g id="xtick_8">
     <g id="line2d_14">
      <path d="M 722.778835 146.484 
L 722.778835 70.656 
" clip-path="url(#pc6570cde92)" style="fill: none; stroke: #ffffff; stroke-linecap: round"/>
     </g>
     <g id="text_13">
      <!-- 750 -->
      <g style="fill: #262626" transform="translate(700.732772 173.536391) scale(0.231 -0.231)">
       <use xlink:href="#DejaVuSans-37"/>
       <use xlink:href="#DejaVuSans-35" x="63.623047"/>
       <use xlink:href="#DejaVuSans-30" x="127.246094"/>
      </g>
     </g>
    </g>
    <g id="text_14">
     <!-- step -->
     <g style="fill: #262626" transform="translate(554.855971 201.488531) scale(0.252 -0.252)">
      <use xlink:href="#DejaVuSans-73"/>
      <use xlink:href="#DejaVuSans-74" x="52.099609"/>
      <use xlink:href="#DejaVuSans-65" x="91.308594"/>
      <use xlink:href="#DejaVuSans-70" x="152.832031"/>
     </g>
    </g>
   </g>
   <g id="matplotlib.axis_4">
    <g id="ytick_3">
     <g id="line2d_15">
      <path d="M 435.80621 119.023347 
L 728.416481 119.023347 
" clip-path="url(#pc6570cde92)" style="fill: none; stroke: #ffffff; stroke-linecap: round"/>
     </g>
    </g>
    <g id="ytick_4">
     <g id="line2d_16">
      <path d="M 435.80621 89.942195 
L 728.416481 89.942195 
" clip-path="url(#pc6570cde92)" style="fill: none; stroke: #ffffff; stroke-linecap: round"/>
     </g>
    </g>
   </g>
   <g id="PolyCollection_5"/>
   <g id="PolyCollection_6"/>
   <g id="PolyCollection_7"/>
   <g id="PolyCollection_8"/>
   <g id="line2d_17">
    <path d="M 449.106677 89.942195 
L 449.471573 136.767769 
L 449.836469 138.432077 
L 450.201366 138.877526 
L 450.931158 139.003707 
L 454.58012 138.810801 
L 455.309912 133.522119 
L 456.404601 125.524458 
L 457.49929 118.911241 
L 458.593978 113.503428 
L 459.688667 109.082824 
L 460.783356 105.469054 
L 461.878044 102.51464 
L 462.972733 100.099173 
L 464.067422 98.124177 
L 465.16211 96.50921 
L 466.621695 94.807328 
L 468.08128 93.506459 
L 469.540865 92.511127 
L 471.000449 91.753026 
L 472.824931 91.061239 
L 475.014308 90.505017 
L 477.568581 90.093415 
L 481.217543 89.786428 
L 486.690987 89.587664 
L 495.083599 89.537126 
L 537.41156 89.591825 
L 680.450874 89.848272 
L 715.116014 89.848285 
L 715.116014 89.848285 
" clip-path="url(#pc6570cde92)" style="fill: none; stroke: #4c72b0; stroke-opacity: 0.9; stroke-width: 3; stroke-linecap: round"/>
   </g>
   <g id="line2d_18">
    <path d="M 449.106677 89.942195 
L 449.471573 115.481127 
L 449.836469 116.572022 
L 450.201366 116.94986 
L 450.931158 117.126269 
L 453.485431 117.087987 
L 454.58012 117.057645 
L 455.309912 114.340264 
L 456.769497 108.630591 
L 457.864186 105.164181 
L 458.958875 102.327935 
L 460.053563 100.009224 
L 461.148252 98.113655 
L 462.24294 96.563917 
L 463.702525 94.928035 
L 465.16211 93.677451 
L 466.621695 92.721256 
L 468.446176 91.835855 
L 470.270657 91.203316 
L 472.460034 90.676809 
L 475.014308 90.291397 
L 478.66327 90.000902 
L 484.501609 89.81727 
L 495.448496 89.739904 
L 561.859606 89.81156 
L 596.15985 89.863631 
L 715.116014 89.88061 
L 715.116014 89.88061 
" clip-path="url(#pc6570cde92)" style="fill: none; stroke: #dd8452; stroke-opacity: 0.9; stroke-width: 3; stroke-linecap: round"/>
   </g>
   <g id="line2d_19">
    <path d="M 449.106677 89.942195 
L 449.471573 139.012014 
L 449.836469 141.688814 
L 450.201366 142.370423 
L 450.566262 142.553479 
L 451.66095 142.576516 
L 454.58012 142.406321 
L 457.49929 120.935082 
L 458.593978 115.139137 
L 459.688667 110.401585 
L 460.783356 106.528601 
L 461.878044 103.365157 
L 462.972733 100.778995 
L 464.067422 98.664131 
L 465.16211 96.935109 
L 466.621695 95.109612 
L 468.08128 93.713696 
L 469.540865 92.646679 
L 471.000449 91.832971 
L 472.824931 91.084799 
L 474.649412 90.557783 
L 476.838789 90.144857 
L 480.122855 89.825464 
L 485.231402 89.588843 
L 493.259118 89.469929 
L 512.598617 89.467955 
L 542.520107 89.657016 
L 576.820351 89.822165 
L 648.340008 89.86731 
L 715.116014 89.867891 
L 715.116014 89.867891 
" clip-path="url(#pc6570cde92)" style="fill: none; stroke: #55a868; stroke-opacity: 0.9; stroke-width: 3; stroke-linecap: round"/>
   </g>
   <g id="line2d_20">
    <path d="M 449.106677 89.942195 
L 449.471573 128.507006 
L 449.836469 130.653123 
L 450.201366 131.189196 
L 450.931158 131.360387 
L 453.850328 131.246293 
L 454.58012 131.212365 
L 455.674809 124.312349 
L 456.769497 117.95618 
L 457.864186 112.73913 
L 458.958875 108.472897 
L 460.053563 104.98506 
L 461.148252 102.13336 
L 462.24294 99.801688 
L 463.337629 97.89545 
L 464.432318 96.336836 
L 465.891903 94.691434 
L 467.351487 93.433004 
L 468.811072 92.470797 
L 470.635553 91.581179 
L 472.460034 90.950186 
L 474.649412 90.433883 
L 477.203685 90.073317 
L 481.217543 89.811036 
L 487.785675 89.635883 
L 500.921939 89.566973 
L 531.208324 89.650827 
L 587.037444 89.855023 
L 701.249958 89.879286 
L 715.116014 89.879209 
L 715.116014 89.879209 
" clip-path="url(#pc6570cde92)" style="fill: none; stroke: #c44e52; stroke-opacity: 0.9; stroke-width: 3; stroke-linecap: round"/>
   </g>
   <g id="patch_6">
    <path d="M 435.80621 146.484 
L 435.80621 70.656 
" style="fill: none; stroke: #ffffff; stroke-width: 1.25; stroke-linejoin: miter; stroke-linecap: square"/>
   </g>
   <g id="patch_7">
    <path d="M 435.80621 146.484 
L 728.416481 146.484 
" style="fill: none; stroke: #ffffff; stroke-width: 1.25; stroke-linejoin: miter; stroke-linecap: square"/>
   </g>
   <g id="text_15">
    <!-- 0.5~365 -->
    <g style="fill: #262626" transform="translate(527.464752 64.656) scale(0.252 -0.252)">
     <defs>
      <path id="DejaVuSans-36" d="M 2113 2584 
Q 1688 2584 1439 2293 
Q 1191 2003 1191 1497 
Q 1191 994 1439 701 
Q 1688 409 2113 409 
Q 2538 409 2786 701 
Q 3034 994 3034 1497 
Q 3034 2003 2786 2293 
Q 2538 2584 2113 2584 
z
M 3366 4563 
L 3366 3988 
Q 3128 4100 2886 4159 
Q 2644 4219 2406 4219 
Q 1781 4219 1451 3797 
Q 1122 3375 1075 2522 
Q 1259 2794 1537 2939 
Q 1816 3084 2150 3084 
Q 2853 3084 3261 2657 
Q 3669 2231 3669 1497 
Q 3669 778 3244 343 
Q 2819 -91 2113 -91 
Q 1303 -91 875 529 
Q 447 1150 447 2328 
Q 447 3434 972 4092 
Q 1497 4750 2381 4750 
Q 2619 4750 2861 4703 
Q 3103 4656 3366 4563 
z
" transform="scale(0.015625)"/>
     </defs>
     <use xlink:href="#DejaVuSans-30"/>
     <use xlink:href="#DejaVuSans-2e" x="63.623047"/>
     <use xlink:href="#DejaVuSans-35" x="95.410156"/>
     <use xlink:href="#DejaVuSans-7e" x="159.033203"/>
     <use xlink:href="#DejaVuSans-33" x="242.822266"/>
     <use xlink:href="#DejaVuSans-36" x="306.445312"/>
     <use xlink:href="#DejaVuSans-35" x="370.068359"/>
    </g>
   </g>
  </g>
  <g id="axes_3">
   <g id="patch_8">
    <path d="M 770.430248 146.484 
L 1063.040519 146.484 
L 1063.040519 70.656 
L 770.430248 70.656 
z
" style="fill: #eaeaf2"/>
   </g>
   <g id="matplotlib.axis_5">
    <g id="xtick_9">
     <g id="line2d_21">
      <path d="M 783.730715 146.484 
L 783.730715 70.656 
" clip-path="url(#pf1f12c2c46)" style="fill: none; stroke: #ffffff; stroke-linecap: round"/>
     </g>
     <g id="text_16">
      <!-- 0 -->
      <g style="fill: #262626" transform="translate(776.382028 173.536391) scale(0.231 -0.231)">
       <use xlink:href="#DejaVuSans-30"/>
      </g>
     </g>
    </g>
    <g id="xtick_10">
     <g id="line2d_22">
      <path d="M 874.954768 146.484 
L 874.954768 70.656 
" clip-path="url(#pf1f12c2c46)" style="fill: none; stroke: #ffffff; stroke-linecap: round"/>
     </g>
     <g id="text_17">
      <!-- 250 -->
      <g style="fill: #262626" transform="translate(852.908705 173.536391) scale(0.231 -0.231)">
       <use xlink:href="#DejaVuSans-32"/>
       <use xlink:href="#DejaVuSans-35" x="63.623047"/>
       <use xlink:href="#DejaVuSans-30" x="127.246094"/>
      </g>
     </g>
    </g>
    <g id="xtick_11">
     <g id="line2d_23">
      <path d="M 966.17882 146.484 
L 966.17882 70.656 
" clip-path="url(#pf1f12c2c46)" style="fill: none; stroke: #ffffff; stroke-linecap: round"/>
     </g>
     <g id="text_18">
      <!-- 500 -->
      <g style="fill: #262626" transform="translate(944.132758 173.536391) scale(0.231 -0.231)">
       <use xlink:href="#DejaVuSans-35"/>
       <use xlink:href="#DejaVuSans-30" x="63.623047"/>
       <use xlink:href="#DejaVuSans-30" x="127.246094"/>
      </g>
     </g>
    </g>
    <g id="xtick_12">
     <g id="line2d_24">
      <path d="M 1057.402873 146.484 
L 1057.402873 70.656 
" clip-path="url(#pf1f12c2c46)" style="fill: none; stroke: #ffffff; stroke-linecap: round"/>
     </g>
     <g id="text_19">
      <!-- 750 -->
      <g style="fill: #262626" transform="translate(1035.35681 173.536391) scale(0.231 -0.231)">
       <use xlink:href="#DejaVuSans-37"/>
       <use xlink:href="#DejaVuSans-35" x="63.623047"/>
       <use xlink:href="#DejaVuSans-30" x="127.246094"/>
      </g>
     </g>
    </g>
    <g id="text_20">
     <!-- step -->
     <g style="fill: #262626" transform="translate(889.480009 201.488531) scale(0.252 -0.252)">
      <use xlink:href="#DejaVuSans-73"/>
      <use xlink:href="#DejaVuSans-74" x="52.099609"/>
      <use xlink:href="#DejaVuSans-65" x="91.308594"/>
      <use xlink:href="#DejaVuSans-70" x="152.832031"/>
     </g>
    </g>
   </g>
   <g id="matplotlib.axis_6">
    <g id="ytick_5">
     <g id="line2d_25">
      <path d="M 770.430248 119.023347 
L 1063.040519 119.023347 
" clip-path="url(#pf1f12c2c46)" style="fill: none; stroke: #ffffff; stroke-linecap: round"/>
     </g>
    </g>
    <g id="ytick_6">
     <g id="line2d_26">
      <path d="M 770.430248 89.942195 
L 1063.040519 89.942195 
" clip-path="url(#pf1f12c2c46)" style="fill: none; stroke: #ffffff; stroke-linecap: round"/>
     </g>
    </g>
   </g>
   <g id="PolyCollection_9"/>
   <g id="PolyCollection_10"/>
   <g id="PolyCollection_11"/>
   <g id="PolyCollection_12"/>
   <g id="line2d_27">
    <path d="M 783.730715 89.942195 
L 784.095611 136.767769 
L 784.460507 138.243541 
L 784.825404 138.471197 
L 785.555196 138.147519 
L 789.204158 135.773335 
L 792.123328 114.474574 
L 793.218016 108.769188 
L 794.312705 104.1325 
L 795.407394 100.416966 
L 796.502082 97.471193 
L 797.596771 95.10988 
L 798.69146 93.190643 
L 799.421252 92.165337 
L 800.515941 91.139405 
L 801.975526 90.102766 
L 803.43511 89.31846 
L 805.259591 88.616208 
L 807.448969 88.035643 
L 810.003242 87.601071 
L 812.557516 87.515036 
L 817.301166 87.585752 
L 850.506722 88.574129 
L 857.804646 88.767343 
L 876.049456 88.898912 
L 924.580652 88.963507 
L 1049.740052 88.969315 
L 1049.740052 88.969315 
" clip-path="url(#pf1f12c2c46)" style="fill: none; stroke: #4c72b0; stroke-opacity: 0.9; stroke-width: 3; stroke-linecap: round"/>
   </g>
   <g id="line2d_28">
    <path d="M 783.730715 89.942195 
L 784.095611 115.481127 
L 784.460507 116.484701 
L 784.825404 116.760566 
L 785.555196 116.722262 
L 788.474366 115.830042 
L 789.204158 115.605245 
L 789.933951 112.664934 
L 791.393535 106.622607 
L 792.488224 102.974065 
L 793.582913 100.003742 
L 794.677601 97.582983 
L 795.77229 95.611449 
L 796.866979 94.026118 
L 797.961667 92.79182 
L 799.421252 91.524091 
L 800.515941 90.911027 
L 802.340422 90.195804 
L 804.529799 89.602384 
L 807.084072 89.149087 
L 810.368138 88.793654 
L 813.652204 88.643186 
L 820.950128 88.620998 
L 891.739993 89.244252 
L 1043.536817 89.261182 
L 1049.740052 89.261186 
L 1049.740052 89.261186 
" clip-path="url(#pf1f12c2c46)" style="fill: none; stroke: #dd8452; stroke-opacity: 0.9; stroke-width: 3; stroke-linecap: round"/>
   </g>
   <g id="line2d_29">
    <path d="M 783.730715 89.942195 
L 784.095611 139.012014 
L 784.460507 141.503141 
L 784.825404 141.969313 
L 785.1903 141.930236 
L 786.284988 141.289287 
L 789.204158 139.424174 
L 792.123328 116.35665 
L 793.218016 110.167982 
L 794.312705 105.126438 
L 795.407394 101.041928 
L 796.502082 97.742878 
L 797.596771 95.102032 
L 798.69146 93.038961 
L 799.421252 91.96052 
L 800.515941 90.770717 
L 801.610629 89.860607 
L 803.070214 88.957995 
L 804.529799 88.328259 
L 805.989384 87.909998 
L 808.178761 87.585769 
L 811.462827 87.385305 
L 815.841582 87.362676 
L 822.77461 87.569886 
L 831.532119 88.041872 
L 839.194939 88.452504 
L 849.412033 88.773275 
L 863.278089 88.971821 
L 889.550616 89.081617 
L 971.287367 89.111935 
L 1049.740052 89.111481 
L 1049.740052 89.111481 
" clip-path="url(#pf1f12c2c46)" style="fill: none; stroke: #55a868; stroke-opacity: 0.9; stroke-width: 3; stroke-linecap: round"/>
   </g>
   <g id="line2d_30">
    <path d="M 783.730715 89.942195 
L 784.095611 128.507006 
L 784.460507 130.503931 
L 784.825404 130.866084 
L 785.555196 130.67803 
L 789.204158 128.798556 
L 792.123328 110.710199 
L 793.218016 105.843505 
L 794.312705 101.877817 
L 795.407394 98.66258 
L 796.502082 96.07217 
L 797.596771 94.007185 
L 798.69146 92.392682 
L 799.421252 91.550206 
L 800.880837 90.367191 
L 802.340422 89.530596 
L 804.164903 88.800618 
L 805.989384 88.407327 
L 808.543657 88.136106 
L 812.557516 87.982285 
L 818.760751 87.995795 
L 828.612949 88.251005 
L 851.236514 88.991227 
L 868.02174 89.145849 
L 903.416672 89.220538 
L 1049.740052 89.229912 
L 1049.740052 89.229912 
" clip-path="url(#pf1f12c2c46)" style="fill: none; stroke: #c44e52; stroke-opacity: 0.9; stroke-width: 3; stroke-linecap: round"/>
   </g>
   <g id="patch_9">
    <path d="M 770.430248 146.484 
L 770.430248 70.656 
" style="fill: none; stroke: #ffffff; stroke-width: 1.25; stroke-linejoin: miter; stroke-linecap: square"/>
   </g>
   <g id="patch_10">
    <path d="M 770.430248 146.484 
L 1063.040519 146.484 
" style="fill: none; stroke: #ffffff; stroke-width: 1.25; stroke-linejoin: miter; stroke-linecap: square"/>
   </g>
   <g id="text_21">
    <!-- 0.8~30 -->
    <g style="fill: #262626" transform="translate(870.10554 64.656) scale(0.252 -0.252)">
     <defs>
      <path id="DejaVuSans-38" d="M 2034 2216 
Q 1584 2216 1326 1975 
Q 1069 1734 1069 1313 
Q 1069 891 1326 650 
Q 1584 409 2034 409 
Q 2484 409 2743 651 
Q 3003 894 3003 1313 
Q 3003 1734 2745 1975 
Q 2488 2216 2034 2216 
z
M 1403 2484 
Q 997 2584 770 2862 
Q 544 3141 544 3541 
Q 544 4100 942 4425 
Q 1341 4750 2034 4750 
Q 2731 4750 3128 4425 
Q 3525 4100 3525 3541 
Q 3525 3141 3298 2862 
Q 3072 2584 2669 2484 
Q 3125 2378 3379 2068 
Q 3634 1759 3634 1313 
Q 3634 634 3220 271 
Q 2806 -91 2034 -91 
Q 1263 -91 848 271 
Q 434 634 434 1313 
Q 434 1759 690 2068 
Q 947 2378 1403 2484 
z
M 1172 3481 
Q 1172 3119 1398 2916 
Q 1625 2713 2034 2713 
Q 2441 2713 2670 2916 
Q 2900 3119 2900 3481 
Q 2900 3844 2670 4047 
Q 2441 4250 2034 4250 
Q 1625 4250 1398 4047 
Q 1172 3844 1172 3481 
z
" transform="scale(0.015625)"/>
     </defs>
     <use xlink:href="#DejaVuSans-30"/>
     <use xlink:href="#DejaVuSans-2e" x="63.623047"/>
     <use xlink:href="#DejaVuSans-38" x="95.410156"/>
     <use xlink:href="#DejaVuSans-7e" x="159.033203"/>
     <use xlink:href="#DejaVuSans-33" x="242.822266"/>
     <use xlink:href="#DejaVuSans-30" x="306.445312"/>
    </g>
   </g>
  </g>
  <g id="axes_4">
   <g id="patch_11">
    <path d="M 1105.054286 146.484 
L 1397.664557 146.484 
L 1397.664557 70.656 
L 1105.054286 70.656 
z
" style="fill: #eaeaf2"/>
   </g>
   <g id="matplotlib.axis_7">
    <g id="xtick_13">
     <g id="line2d_31">
      <path d="M 1118.354753 146.484 
L 1118.354753 70.656 
" clip-path="url(#pb1544c5ef5)" style="fill: none; stroke: #ffffff; stroke-linecap: round"/>
     </g>
     <g id="text_22">
      <!-- 0 -->
      <g style="fill: #262626" transform="translate(1111.006066 173.536391) scale(0.231 -0.231)">
       <use xlink:href="#DejaVuSans-30"/>
      </g>
     </g>
    </g>
    <g id="xtick_14">
     <g id="line2d_32">
      <path d="M 1209.578806 146.484 
L 1209.578806 70.656 
" clip-path="url(#pb1544c5ef5)" style="fill: none; stroke: #ffffff; stroke-linecap: round"/>
     </g>
     <g id="text_23">
      <!-- 250 -->
      <g style="fill: #262626" transform="translate(1187.532743 173.536391) scale(0.231 -0.231)">
       <use xlink:href="#DejaVuSans-32"/>
       <use xlink:href="#DejaVuSans-35" x="63.623047"/>
       <use xlink:href="#DejaVuSans-30" x="127.246094"/>
      </g>
     </g>
    </g>
    <g id="xtick_15">
     <g id="line2d_33">
      <path d="M 1300.802858 146.484 
L 1300.802858 70.656 
" clip-path="url(#pb1544c5ef5)" style="fill: none; stroke: #ffffff; stroke-linecap: round"/>
     </g>
     <g id="text_24">
      <!-- 500 -->
      <g style="fill: #262626" transform="translate(1278.756796 173.536391) scale(0.231 -0.231)">
       <use xlink:href="#DejaVuSans-35"/>
       <use xlink:href="#DejaVuSans-30" x="63.623047"/>
       <use xlink:href="#DejaVuSans-30" x="127.246094"/>
      </g>
     </g>
    </g>
    <g id="xtick_16">
     <g id="line2d_34">
      <path d="M 1392.026911 146.484 
L 1392.026911 70.656 
" clip-path="url(#pb1544c5ef5)" style="fill: none; stroke: #ffffff; stroke-linecap: round"/>
     </g>
     <g id="text_25">
      <!-- 750 -->
      <g style="fill: #262626" transform="translate(1369.980848 173.536391) scale(0.231 -0.231)">
       <use xlink:href="#DejaVuSans-37"/>
       <use xlink:href="#DejaVuSans-35" x="63.623047"/>
       <use xlink:href="#DejaVuSans-30" x="127.246094"/>
      </g>
     </g>
    </g>
    <g id="text_26">
     <!-- step -->
     <g style="fill: #262626" transform="translate(1224.104047 201.488531) scale(0.252 -0.252)">
      <use xlink:href="#DejaVuSans-73"/>
      <use xlink:href="#DejaVuSans-74" x="52.099609"/>
      <use xlink:href="#DejaVuSans-65" x="91.308594"/>
      <use xlink:href="#DejaVuSans-70" x="152.832031"/>
     </g>
    </g>
   </g>
   <g id="matplotlib.axis_8">
    <g id="ytick_7">
     <g id="line2d_35">
      <path d="M 1105.054286 119.023347 
L 1397.664557 119.023347 
" clip-path="url(#pb1544c5ef5)" style="fill: none; stroke: #ffffff; stroke-linecap: round"/>
     </g>
    </g>
    <g id="ytick_8">
     <g id="line2d_36">
      <path d="M 1105.054286 89.942195 
L 1397.664557 89.942195 
" clip-path="url(#pb1544c5ef5)" style="fill: none; stroke: #ffffff; stroke-linecap: round"/>
     </g>
    </g>
   </g>
   <g id="PolyCollection_13"/>
   <g id="PolyCollection_14"/>
   <g id="PolyCollection_15"/>
   <g id="PolyCollection_16"/>
   <g id="line2d_37">
    <path d="M 1118.354753 89.942195 
L 1118.719649 136.767769 
L 1119.084546 138.432077 
L 1119.449442 138.877526 
L 1120.179234 139.003707 
L 1123.828196 138.810801 
L 1124.557989 133.522119 
L 1125.652677 125.524458 
L 1126.747366 118.911241 
L 1127.842055 113.503428 
L 1128.936743 109.082824 
L 1130.031432 105.469054 
L 1131.126121 102.51464 
L 1132.220809 100.099173 
L 1133.315498 98.124177 
L 1134.410186 96.50921 
L 1135.869771 94.807328 
L 1137.329356 93.506459 
L 1138.788941 92.511127 
L 1140.248526 91.753026 
L 1142.073007 91.061239 
L 1144.262384 90.505017 
L 1146.816658 90.093415 
L 1150.46562 89.786428 
L 1155.939063 89.587664 
L 1164.331676 89.537126 
L 1206.659636 89.591825 
L 1349.698951 89.848272 
L 1384.364091 89.848285 
L 1384.364091 89.848285 
" clip-path="url(#pb1544c5ef5)" style="fill: none; stroke: #4c72b0; stroke-opacity: 0.9; stroke-width: 3; stroke-linecap: round"/>
   </g>
   <g id="line2d_38">
    <path d="M 1118.354753 89.942195 
L 1118.719649 115.481127 
L 1119.084546 116.572022 
L 1119.449442 116.94986 
L 1120.179234 117.126269 
L 1122.733508 117.087987 
L 1123.828196 117.057645 
L 1124.557989 114.340264 
L 1126.017574 108.630591 
L 1127.112262 105.164181 
L 1128.206951 102.327935 
L 1129.301639 100.009224 
L 1130.396328 98.113655 
L 1131.491017 96.563917 
L 1132.950602 94.928035 
L 1134.410186 93.677451 
L 1135.869771 92.721256 
L 1137.694252 91.835855 
L 1139.518733 91.203316 
L 1141.708111 90.676809 
L 1144.262384 90.291397 
L 1147.911346 90.000902 
L 1153.749686 89.81727 
L 1164.696572 89.739904 
L 1231.107682 89.81156 
L 1265.407926 89.863631 
L 1384.364091 89.88061 
L 1384.364091 89.88061 
" clip-path="url(#pb1544c5ef5)" style="fill: none; stroke: #dd8452; stroke-opacity: 0.9; stroke-width: 3; stroke-linecap: round"/>
   </g>
   <g id="line2d_39">
    <path d="M 1118.354753 89.942195 
L 1118.719649 139.012014 
L 1119.084546 141.688814 
L 1119.449442 142.370423 
L 1119.814338 142.553479 
L 1120.909027 142.576516 
L 1123.828196 142.406321 
L 1126.747366 120.935082 
L 1127.842055 115.139137 
L 1128.936743 110.401585 
L 1130.031432 106.528601 
L 1131.126121 103.365157 
L 1132.220809 100.778995 
L 1133.315498 98.664131 
L 1134.410186 96.935109 
L 1135.869771 95.109612 
L 1137.329356 93.713696 
L 1138.788941 92.646679 
L 1140.248526 91.832971 
L 1142.073007 91.084799 
L 1143.897488 90.557783 
L 1146.086865 90.144857 
L 1149.370931 89.825464 
L 1154.479478 89.588843 
L 1162.507195 89.469929 
L 1181.846694 89.467955 
L 1211.768183 89.657016 
L 1246.068427 89.822165 
L 1317.588084 89.86731 
L 1384.364091 89.867891 
L 1384.364091 89.867891 
" clip-path="url(#pb1544c5ef5)" style="fill: none; stroke: #55a868; stroke-opacity: 0.9; stroke-width: 3; stroke-linecap: round"/>
   </g>
   <g id="line2d_40">
    <path d="M 1118.354753 89.942195 
L 1118.719649 128.507006 
L 1119.084546 130.653123 
L 1119.449442 131.189196 
L 1120.179234 131.360387 
L 1123.098404 131.246293 
L 1123.828196 131.212365 
L 1124.922885 124.312349 
L 1126.017574 117.95618 
L 1127.112262 112.73913 
L 1128.206951 108.472897 
L 1129.301639 104.98506 
L 1130.396328 102.13336 
L 1131.491017 99.801688 
L 1132.585705 97.89545 
L 1133.680394 96.336836 
L 1135.139979 94.691434 
L 1136.599564 93.433004 
L 1138.059149 92.470797 
L 1139.88363 91.581179 
L 1141.708111 90.950186 
L 1143.897488 90.433883 
L 1146.451761 90.073317 
L 1150.46562 89.811036 
L 1157.033751 89.635883 
L 1170.170015 89.566973 
L 1200.4564 89.650827 
L 1256.285521 89.855023 
L 1370.498035 89.879286 
L 1384.364091 89.879209 
L 1384.364091 89.879209 
" clip-path="url(#pb1544c5ef5)" style="fill: none; stroke: #c44e52; stroke-opacity: 0.9; stroke-width: 3; stroke-linecap: round"/>
   </g>
   <g id="patch_12">
    <path d="M 1105.054286 146.484 
L 1105.054286 70.656 
" style="fill: none; stroke: #ffffff; stroke-width: 1.25; stroke-linejoin: miter; stroke-linecap: square"/>
   </g>
   <g id="patch_13">
    <path d="M 1105.054286 146.484 
L 1397.664557 146.484 
" style="fill: none; stroke: #ffffff; stroke-width: 1.25; stroke-linejoin: miter; stroke-linecap: square"/>
   </g>
   <g id="text_27">
    <!-- 0.8~365 -->
    <g style="fill: #262626" transform="translate(1196.712828 64.656) scale(0.252 -0.252)">
     <use xlink:href="#DejaVuSans-30"/>
     <use xlink:href="#DejaVuSans-2e" x="63.623047"/>
     <use xlink:href="#DejaVuSans-38" x="95.410156"/>
     <use xlink:href="#DejaVuSans-7e" x="159.033203"/>
     <use xlink:href="#DejaVuSans-33" x="242.822266"/>
     <use xlink:href="#DejaVuSans-36" x="306.445312"/>
     <use xlink:href="#DejaVuSans-35" x="370.068359"/>
    </g>
   </g>
  </g>
  <g id="axes_5">
   <g id="patch_14">
    <path d="M 1439.678324 146.484 
L 1732.288596 146.484 
L 1732.288596 70.656 
L 1439.678324 70.656 
z
" style="fill: #eaeaf2"/>
   </g>
   <g id="matplotlib.axis_9">
    <g id="xtick_17">
     <g id="line2d_41">
      <path d="M 1452.978791 146.484 
L 1452.978791 70.656 
" clip-path="url(#p2816cae9e4)" style="fill: none; stroke: #ffffff; stroke-linecap: round"/>
     </g>
     <g id="text_28">
      <!-- 0 -->
      <g style="fill: #262626" transform="translate(1445.630104 173.536391) scale(0.231 -0.231)">
       <use xlink:href="#DejaVuSans-30"/>
      </g>
     </g>
    </g>
    <g id="xtick_18">
     <g id="line2d_42">
      <path d="M 1544.202844 146.484 
L 1544.202844 70.656 
" clip-path="url(#p2816cae9e4)" style="fill: none; stroke: #ffffff; stroke-linecap: round"/>
     </g>
     <g id="text_29">
      <!-- 250 -->
      <g style="fill: #262626" transform="translate(1522.156781 173.536391) scale(0.231 -0.231)">
       <use xlink:href="#DejaVuSans-32"/>
       <use xlink:href="#DejaVuSans-35" x="63.623047"/>
       <use xlink:href="#DejaVuSans-30" x="127.246094"/>
      </g>
     </g>
    </g>
    <g id="xtick_19">
     <g id="line2d_43">
      <path d="M 1635.426896 146.484 
L 1635.426896 70.656 
" clip-path="url(#p2816cae9e4)" style="fill: none; stroke: #ffffff; stroke-linecap: round"/>
     </g>
     <g id="text_30">
      <!-- 500 -->
      <g style="fill: #262626" transform="translate(1613.380834 173.536391) scale(0.231 -0.231)">
       <use xlink:href="#DejaVuSans-35"/>
       <use xlink:href="#DejaVuSans-30" x="63.623047"/>
       <use xlink:href="#DejaVuSans-30" x="127.246094"/>
      </g>
     </g>
    </g>
    <g id="xtick_20">
     <g id="line2d_44">
      <path d="M 1726.650949 146.484 
L 1726.650949 70.656 
" clip-path="url(#p2816cae9e4)" style="fill: none; stroke: #ffffff; stroke-linecap: round"/>
     </g>
     <g id="text_31">
      <!-- 750 -->
      <g style="fill: #262626" transform="translate(1704.604887 173.536391) scale(0.231 -0.231)">
       <use xlink:href="#DejaVuSans-37"/>
       <use xlink:href="#DejaVuSans-35" x="63.623047"/>
       <use xlink:href="#DejaVuSans-30" x="127.246094"/>
      </g>
     </g>
    </g>
    <g id="text_32">
     <!-- step -->
     <g style="fill: #262626" transform="translate(1558.728085 201.488531) scale(0.252 -0.252)">
      <use xlink:href="#DejaVuSans-73"/>
      <use xlink:href="#DejaVuSans-74" x="52.099609"/>
      <use xlink:href="#DejaVuSans-65" x="91.308594"/>
      <use xlink:href="#DejaVuSans-70" x="152.832031"/>
     </g>
    </g>
   </g>
   <g id="matplotlib.axis_10">
    <g id="ytick_9">
     <g id="line2d_45">
      <path d="M 1439.678324 119.023347 
L 1732.288596 119.023347 
" clip-path="url(#p2816cae9e4)" style="fill: none; stroke: #ffffff; stroke-linecap: round"/>
     </g>
    </g>
    <g id="ytick_10">
     <g id="line2d_46">
      <path d="M 1439.678324 89.942195 
L 1732.288596 89.942195 
" clip-path="url(#p2816cae9e4)" style="fill: none; stroke: #ffffff; stroke-linecap: round"/>
     </g>
    </g>
   </g>
   <g id="PolyCollection_17"/>
   <g id="PolyCollection_18"/>
   <g id="PolyCollection_19"/>
   <g id="PolyCollection_20"/>
   <g id="line2d_47">
    <path d="M 1452.978791 89.942195 
L 1453.343687 136.767769 
L 1453.708584 138.243541 
L 1454.07348 138.471197 
L 1454.803272 138.147519 
L 1455.897961 137.496701 
L 1458.452234 136.674675 
L 1459.911819 126.662367 
L 1460.641612 123.819148 
L 1461.7363 121.813596 
L 1462.101197 121.555854 
L 1464.65547 120.686835 
L 1465.020366 120.478892 
L 1470.858706 119.214323 
L 1474.507668 118.205016 
L 1478.15663 116.951049 
L 1482.170488 115.320606 
L 1486.549243 113.27968 
L 1490.927997 110.979638 
L 1496.036544 108.019525 
L 1502.969572 103.706022 
L 1509.9026 99.422371 
L 1511.362185 98.867015 
L 1515.740939 97.568334 
L 1524.498449 95.3995 
L 1536.175127 93.410564 
L 1548.581598 91.444164 
L 1556.609315 89.914008 
L 1565.001928 88.088818 
L 1573.759437 85.947406 
L 1583.611635 83.297362 
L 1598.937275 78.893675 
L 1607.329888 76.537503 
L 1611.708643 75.609188 
L 1613.533124 75.406575 
L 1615.357605 75.437541 
L 1632.142831 76.236987 
L 1644.914198 76.426276 
L 1669.362244 76.545779 
L 1718.988129 76.585089 
L 1718.988129 76.585089 
" clip-path="url(#p2816cae9e4)" style="fill: none; stroke: #4c72b0; stroke-opacity: 0.9; stroke-width: 3; stroke-linecap: round"/>
   </g>
   <g id="line2d_48">
    <path d="M 1452.978791 89.942195 
L 1453.343687 115.481127 
L 1453.708584 116.484701 
L 1454.07348 116.760566 
L 1454.803272 116.722262 
L 1458.452234 115.760536 
L 1459.182027 112.917118 
L 1460.276715 108.405428 
L 1461.006508 106.410124 
L 1461.7363 105.362811 
L 1462.830989 104.365552 
L 1465.385262 103.727939 
L 1466.479951 103.3626 
L 1477.061941 101.055398 
L 1482.170488 99.631723 
L 1487.643931 97.86577 
L 1492.752478 95.979817 
L 1502.969572 91.862018 
L 1510.632393 88.866623 
L 1512.456874 88.418524 
L 1515.376043 87.966161 
L 1521.214383 87.268659 
L 1528.147411 87.045231 
L 1531.796373 87.112016 
L 1541.283674 87.501946 
L 1582.881842 89.100747 
L 1591.639351 89.030035 
L 1599.667068 88.761526 
L 1606.600096 88.317597 
L 1613.168228 87.656387 
L 1620.101256 86.729693 
L 1627.034284 85.571892 
L 1633.967312 84.182644 
L 1641.265236 82.484809 
L 1648.928056 80.474288 
L 1664.618593 76.276039 
L 1673.376102 74.314017 
L 1675.200583 74.106031 
L 1676.660168 74.197755 
L 1678.484649 74.752785 
L 1680.674027 75.364262 
L 1682.498508 75.655683 
L 1685.782573 75.780428 
L 1703.297592 76.02848 
L 1718.988129 76.137545 
L 1718.988129 76.137545 
" clip-path="url(#p2816cae9e4)" style="fill: none; stroke: #dd8452; stroke-opacity: 0.9; stroke-width: 3; stroke-linecap: round"/>
   </g>
   <g id="line2d_49">
    <path d="M 1452.978791 89.942195 
L 1453.343687 139.012014 
L 1453.708584 141.503141 
L 1454.07348 141.969313 
L 1454.438376 141.930236 
L 1455.533065 141.292564 
L 1456.99265 140.53132 
L 1458.452234 140.082985 
L 1461.371404 118.162806 
L 1462.466093 112.566052 
L 1463.195885 110.057014 
L 1463.925678 108.553554 
L 1464.65547 107.57204 
L 1465.385262 106.971927 
L 1466.479951 106.361861 
L 1468.669328 106.09539 
L 1476.332149 105.837597 
L 1480.710903 105.363472 
L 1486.184346 104.553766 
L 1491.292893 103.573436 
L 1497.861025 102.072662 
L 1507.348327 99.63059 
L 1527.417618 94.370003 
L 1533.255958 93.159021 
L 1541.64857 91.673899 
L 1552.595457 89.976793 
L 1564.272135 88.527642 
L 1571.934956 87.80252 
L 1581.422257 87.104619 
L 1590.544663 86.579153 
L 1606.600096 86.016653 
L 1634.332208 85.240891 
L 1654.766396 84.856796 
L 1684.322989 84.588676 
L 1706.946554 84.576932 
L 1718.988129 84.583533 
L 1718.988129 84.583533 
" clip-path="url(#p2816cae9e4)" style="fill: none; stroke: #55a868; stroke-opacity: 0.9; stroke-width: 3; stroke-linecap: round"/>
   </g>
   <g id="line2d_50">
    <path d="M 1452.978791 89.942195 
L 1453.343687 128.507006 
L 1453.708584 130.503931 
L 1454.07348 130.866084 
L 1454.803272 130.679217 
L 1457.722442 129.362762 
L 1458.452234 129.117636 
L 1461.371404 111.77998 
L 1462.466093 107.347815 
L 1463.195885 105.325966 
L 1463.925678 104.145443 
L 1464.65547 103.406104 
L 1465.750159 102.774 
L 1466.844847 102.496517 
L 1469.399121 102.257907 
L 1477.426837 101.779615 
L 1485.089658 100.96089 
L 1494.576959 99.645578 
L 1502.969572 98.279405 
L 1512.456874 96.507573 
L 1530.701684 93.053702 
L 1537.999608 91.932785 
L 1546.392221 90.875693 
L 1555.14973 89.968586 
L 1568.65089 88.841774 
L 1581.057361 88.050036 
L 1592.369144 87.539695 
L 1612.438435 86.854519 
L 1643.454613 86.202112 
L 1672.64631 85.883566 
L 1718.623232 85.808421 
L 1718.988129 85.808506 
L 1718.988129 85.808506 
" clip-path="url(#p2816cae9e4)" style="fill: none; stroke: #c44e52; stroke-opacity: 0.9; stroke-width: 3; stroke-linecap: round"/>
   </g>
   <g id="patch_15">
    <path d="M 1439.678324 146.484 
L 1439.678324 70.656 
" style="fill: none; stroke: #ffffff; stroke-width: 1.25; stroke-linejoin: miter; stroke-linecap: square"/>
   </g>
   <g id="patch_16">
    <path d="M 1439.678324 146.484 
L 1732.288596 146.484 
" style="fill: none; stroke: #ffffff; stroke-width: 1.25; stroke-linejoin: miter; stroke-linecap: square"/>
   </g>
   <g id="text_33">
    <!-- 0.999~30 -->
    <g style="fill: #262626" transform="translate(1523.320116 64.656) scale(0.252 -0.252)">
     <defs>
      <path id="DejaVuSans-39" d="M 703 97 
L 703 672 
Q 941 559 1184 500 
Q 1428 441 1663 441 
Q 2288 441 2617 861 
Q 2947 1281 2994 2138 
Q 2813 1869 2534 1725 
Q 2256 1581 1919 1581 
Q 1219 1581 811 2004 
Q 403 2428 403 3163 
Q 403 3881 828 4315 
Q 1253 4750 1959 4750 
Q 2769 4750 3195 4129 
Q 3622 3509 3622 2328 
Q 3622 1225 3098 567 
Q 2575 -91 1691 -91 
Q 1453 -91 1209 -44 
Q 966 3 703 97 
z
M 1959 2075 
Q 2384 2075 2632 2365 
Q 2881 2656 2881 3163 
Q 2881 3666 2632 3958 
Q 2384 4250 1959 4250 
Q 1534 4250 1286 3958 
Q 1038 3666 1038 3163 
Q 1038 2656 1286 2365 
Q 1534 2075 1959 2075 
z
" transform="scale(0.015625)"/>
     </defs>
     <use xlink:href="#DejaVuSans-30"/>
     <use xlink:href="#DejaVuSans-2e" x="63.623047"/>
     <use xlink:href="#DejaVuSans-39" x="95.410156"/>
     <use xlink:href="#DejaVuSans-39" x="159.033203"/>
     <use xlink:href="#DejaVuSans-39" x="222.65625"/>
     <use xlink:href="#DejaVuSans-7e" x="286.279297"/>
     <use xlink:href="#DejaVuSans-33" x="370.068359"/>
     <use xlink:href="#DejaVuSans-30" x="433.691406"/>
    </g>
   </g>
  </g>
  <g id="axes_6">
   <g id="patch_17">
    <path d="M 1774.302363 146.484 
L 2066.912634 146.484 
L 2066.912634 70.656 
L 1774.302363 70.656 
z
" style="fill: #eaeaf2"/>
   </g>
   <g id="matplotlib.axis_11">
    <g id="xtick_21">
     <g id="line2d_51">
      <path d="M 1787.602829 146.484 
L 1787.602829 70.656 
" clip-path="url(#p633470cc20)" style="fill: none; stroke: #ffffff; stroke-linecap: round"/>
     </g>
     <g id="text_34">
      <!-- 0 -->
      <g style="fill: #262626" transform="translate(1780.254142 173.536391) scale(0.231 -0.231)">
       <use xlink:href="#DejaVuSans-30"/>
      </g>
     </g>
    </g>
    <g id="xtick_22">
     <g id="line2d_52">
      <path d="M 1878.826882 146.484 
L 1878.826882 70.656 
" clip-path="url(#p633470cc20)" style="fill: none; stroke: #ffffff; stroke-linecap: round"/>
     </g>
     <g id="text_35">
      <!-- 250 -->
      <g style="fill: #262626" transform="translate(1856.78082 173.536391) scale(0.231 -0.231)">
       <use xlink:href="#DejaVuSans-32"/>
       <use xlink:href="#DejaVuSans-35" x="63.623047"/>
       <use xlink:href="#DejaVuSans-30" x="127.246094"/>
      </g>
     </g>
    </g>
    <g id="xtick_23">
     <g id="line2d_53">
      <path d="M 1970.050935 146.484 
L 1970.050935 70.656 
" clip-path="url(#p633470cc20)" style="fill: none; stroke: #ffffff; stroke-linecap: round"/>
     </g>
     <g id="text_36">
      <!-- 500 -->
      <g style="fill: #262626" transform="translate(1948.004872 173.536391) scale(0.231 -0.231)">
       <use xlink:href="#DejaVuSans-35"/>
       <use xlink:href="#DejaVuSans-30" x="63.623047"/>
       <use xlink:href="#DejaVuSans-30" x="127.246094"/>
      </g>
     </g>
    </g>
    <g id="xtick_24">
     <g id="line2d_54">
      <path d="M 2061.274987 146.484 
L 2061.274987 70.656 
" clip-path="url(#p633470cc20)" style="fill: none; stroke: #ffffff; stroke-linecap: round"/>
     </g>
     <g id="text_37">
      <!-- 750 -->
      <g style="fill: #262626" transform="translate(2039.228925 173.536391) scale(0.231 -0.231)">
       <use xlink:href="#DejaVuSans-37"/>
       <use xlink:href="#DejaVuSans-35" x="63.623047"/>
       <use xlink:href="#DejaVuSans-30" x="127.246094"/>
      </g>
     </g>
    </g>
    <g id="text_38">
     <!-- step -->
     <g style="fill: #262626" transform="translate(1893.352123 201.488531) scale(0.252 -0.252)">
      <use xlink:href="#DejaVuSans-73"/>
      <use xlink:href="#DejaVuSans-74" x="52.099609"/>
      <use xlink:href="#DejaVuSans-65" x="91.308594"/>
      <use xlink:href="#DejaVuSans-70" x="152.832031"/>
     </g>
    </g>
   </g>
   <g id="matplotlib.axis_12">
    <g id="ytick_11">
     <g id="line2d_55">
      <path d="M 1774.302363 119.023347 
L 2066.912634 119.023347 
" clip-path="url(#p633470cc20)" style="fill: none; stroke: #ffffff; stroke-linecap: round"/>
     </g>
    </g>
    <g id="ytick_12">
     <g id="line2d_56">
      <path d="M 1774.302363 89.942195 
L 2066.912634 89.942195 
" clip-path="url(#p633470cc20)" style="fill: none; stroke: #ffffff; stroke-linecap: round"/>
     </g>
    </g>
   </g>
   <g id="PolyCollection_21"/>
   <g id="PolyCollection_22"/>
   <g id="PolyCollection_23"/>
   <g id="PolyCollection_24"/>
   <g id="line2d_57">
    <path d="M 1787.602829 89.942195 
L 1787.967726 136.767769 
L 1788.332622 138.432077 
L 1788.697518 138.877526 
L 1789.42731 139.003707 
L 1790.521999 139.02837 
L 1793.076273 139.758595 
L 1793.806065 134.842199 
L 1794.170961 132.359494 
L 1794.900754 129.26224 
L 1795.630546 127.137598 
L 1796.360338 126.391861 
L 1796.725235 126.154544 
L 1798.18482 126.297697 
L 1798.914612 126.31781 
L 1799.644404 126.38559 
L 1800.739093 126.229478 
L 1801.833782 125.998349 
L 1812.415772 124.49591 
L 1816.064734 123.641127 
L 1819.713696 122.546399 
L 1823.362658 121.228668 
L 1827.376516 119.552898 
L 1831.755271 117.49119 
L 1836.863818 114.830171 
L 1844.161742 110.746237 
L 1855.108628 104.625872 
L 1857.662902 103.374314 
L 1859.852279 102.502835 
L 1861.311864 102.042248 
L 1865.690618 100.983783 
L 1876.272609 98.679834 
L 1882.84074 97.428451 
L 1890.503561 96.284315 
L 1899.625966 95.125831 
L 1909.84306 94.08379 
L 1941.224134 91.142484 
L 1954.360398 90.029295 
L 1961.293426 89.626946 
L 1975.159482 88.962102 
L 1989.390434 88.571191 
L 1995.228773 88.641024 
L 2020.771508 88.876515 
L 2053.612167 88.93534 
L 2053.612167 88.93534 
" clip-path="url(#p633470cc20)" style="fill: none; stroke: #4c72b0; stroke-opacity: 0.9; stroke-width: 3; stroke-linecap: round"/>
   </g>
   <g id="line2d_58">
    <path d="M 1787.602829 89.942195 
L 1787.967726 115.481127 
L 1788.332622 116.572022 
L 1788.697518 116.94986 
L 1789.42731 117.126269 
L 1793.076273 117.23174 
L 1793.806065 114.618648 
L 1794.900754 110.379452 
L 1795.630546 108.656534 
L 1796.360338 107.574762 
L 1797.090131 107.113272 
L 1797.455027 106.953555 
L 1800.374197 106.894627 
L 1801.833782 106.67572 
L 1804.752951 106.081845 
L 1815.334941 104.294291 
L 1820.443488 103.156999 
L 1825.916932 101.706221 
L 1832.120167 99.830642 
L 1840.147884 97.150609 
L 1850.729874 93.63688 
L 1858.75759 91.188524 
L 1860.946968 90.663302 
L 1863.136345 90.439145 
L 1874.448127 89.769344 
L 1881.381155 89.54987 
L 1940.129445 89.335718 
L 2053.612167 89.521229 
L 2053.612167 89.521229 
" clip-path="url(#p633470cc20)" style="fill: none; stroke: #dd8452; stroke-opacity: 0.9; stroke-width: 3; stroke-linecap: round"/>
   </g>
   <g id="line2d_59">
    <path d="M 1787.602829 89.942195 
L 1787.967726 139.012014 
L 1788.332622 141.688814 
L 1788.697518 142.370423 
L 1789.062414 142.553479 
L 1790.157103 142.579853 
L 1791.616688 142.666154 
L 1793.076273 143.037273 
L 1795.995442 122.691055 
L 1797.090131 117.443184 
L 1797.819923 114.87505 
L 1798.549716 113.066037 
L 1799.279508 111.925847 
L 1800.374197 110.902478 
L 1801.468885 110.240869 
L 1802.563574 109.832278 
L 1804.023159 109.529019 
L 1811.685979 109.167295 
L 1816.42963 108.703982 
L 1821.173281 108.010461 
L 1827.376516 106.855735 
L 1833.944648 105.381596 
L 1842.337261 103.242165 
L 1868.244892 96.516576 
L 1877.002401 94.550655 
L 1883.205637 93.377221 
L 1889.773768 92.393159 
L 1897.071693 91.539053 
L 1905.099409 90.845421 
L 1914.951607 90.248445 
L 1925.533597 89.853282 
L 1940.494342 89.601526 
L 1960.198737 89.476563 
L 2052.882374 89.536432 
L 2053.612167 89.536467 
L 2053.612167 89.536467 
" clip-path="url(#p633470cc20)" style="fill: none; stroke: #55a868; stroke-opacity: 0.9; stroke-width: 3; stroke-linecap: round"/>
   </g>
   <g id="line2d_60">
    <path d="M 1787.602829 89.942195 
L 1787.967726 128.507006 
L 1788.332622 130.653123 
L 1788.697518 131.189196 
L 1789.42731 131.361555 
L 1792.711376 131.470654 
L 1793.076273 131.516555 
L 1794.170961 124.860608 
L 1795.26565 118.778478 
L 1796.360338 113.875805 
L 1797.455027 110.134428 
L 1798.18482 108.384616 
L 1798.914612 107.236314 
L 1799.644404 106.561149 
L 1800.739093 105.898027 
L 1801.833782 105.555262 
L 1803.658263 105.182103 
L 1808.037017 104.858079 
L 1813.145564 104.436475 
L 1820.808385 103.571881 
L 1827.376516 102.606927 
L 1836.134025 101.070979 
L 1847.810704 98.766586 
L 1863.866137 95.608532 
L 1874.813024 93.668116 
L 1883.205637 92.390564 
L 1889.773768 91.610043 
L 1897.801485 90.912789 
L 1907.288786 90.357702 
L 1917.870777 89.969791 
L 1932.831521 89.614671 
L 1947.062473 89.494429 
L 1960.928529 89.575118 
L 1972.240312 89.615636 
L 2053.612167 89.622795 
L 2053.612167 89.622795 
" clip-path="url(#p633470cc20)" style="fill: none; stroke: #c44e52; stroke-opacity: 0.9; stroke-width: 3; stroke-linecap: round"/>
   </g>
   <g id="patch_18">
    <path d="M 1774.302363 146.484 
L 1774.302363 70.656 
" style="fill: none; stroke: #ffffff; stroke-width: 1.25; stroke-linejoin: miter; stroke-linecap: square"/>
   </g>
   <g id="patch_19">
    <path d="M 1774.302363 146.484 
L 2066.912634 146.484 
" style="fill: none; stroke: #ffffff; stroke-width: 1.25; stroke-linejoin: miter; stroke-linecap: square"/>
   </g>
   <g id="text_39">
    <!-- 0.999~365 -->
    <g style="fill: #262626" transform="translate(1849.927404 64.656) scale(0.252 -0.252)">
     <use xlink:href="#DejaVuSans-30"/>
     <use xlink:href="#DejaVuSans-2e" x="63.623047"/>
     <use xlink:href="#DejaVuSans-39" x="95.410156"/>
     <use xlink:href="#DejaVuSans-39" x="159.033203"/>
     <use xlink:href="#DejaVuSans-39" x="222.65625"/>
     <use xlink:href="#DejaVuSans-7e" x="286.279297"/>
     <use xlink:href="#DejaVuSans-33" x="370.068359"/>
     <use xlink:href="#DejaVuSans-36" x="433.691406"/>
     <use xlink:href="#DejaVuSans-35" x="497.314453"/>
    </g>
   </g>
  </g>
  <g id="text_40">
   <!-- Production change from pre-shock level -->
   <g style="fill: #262626" transform="translate(659.350096 30.177675) scale(0.3024 -0.3024)">
    <defs>
     <path id="DejaVuSans-50" d="M 1259 4147 
L 1259 2394 
L 2053 2394 
Q 2494 2394 2734 2622 
Q 2975 2850 2975 3272 
Q 2975 3691 2734 3919 
Q 2494 4147 2053 4147 
L 1259 4147 
z
M 628 4666 
L 2053 4666 
Q 2838 4666 3239 4311 
Q 3641 3956 3641 3272 
Q 3641 2581 3239 2228 
Q 2838 1875 2053 1875 
L 1259 1875 
L 1259 0 
L 628 0 
L 628 4666 
z
" transform="scale(0.015625)"/>
     <path id="DejaVuSans-72" d="M 2631 2963 
Q 2534 3019 2420 3045 
Q 2306 3072 2169 3072 
Q 1681 3072 1420 2755 
Q 1159 2438 1159 1844 
L 1159 0 
L 581 0 
L 581 3500 
L 1159 3500 
L 1159 2956 
Q 1341 3275 1631 3429 
Q 1922 3584 2338 3584 
Q 2397 3584 2469 3576 
Q 2541 3569 2628 3553 
L 2631 2963 
z
" transform="scale(0.015625)"/>
     <path id="DejaVuSans-6f" d="M 1959 3097 
Q 1497 3097 1228 2736 
Q 959 2375 959 1747 
Q 959 1119 1226 758 
Q 1494 397 1959 397 
Q 2419 397 2687 759 
Q 2956 1122 2956 1747 
Q 2956 2369 2687 2733 
Q 2419 3097 1959 3097 
z
M 1959 3584 
Q 2709 3584 3137 3096 
Q 3566 2609 3566 1747 
Q 3566 888 3137 398 
Q 2709 -91 1959 -91 
Q 1206 -91 779 398 
Q 353 888 353 1747 
Q 353 2609 779 3096 
Q 1206 3584 1959 3584 
z
" transform="scale(0.015625)"/>
     <path id="DejaVuSans-64" d="M 2906 2969 
L 2906 4863 
L 3481 4863 
L 3481 0 
L 2906 0 
L 2906 525 
Q 2725 213 2448 61 
Q 2172 -91 1784 -91 
Q 1150 -91 751 415 
Q 353 922 353 1747 
Q 353 2572 751 3078 
Q 1150 3584 1784 3584 
Q 2172 3584 2448 3432 
Q 2725 3281 2906 2969 
z
M 947 1747 
Q 947 1113 1208 752 
Q 1469 391 1925 391 
Q 2381 391 2643 752 
Q 2906 1113 2906 1747 
Q 2906 2381 2643 2742 
Q 2381 3103 1925 3103 
Q 1469 3103 1208 2742 
Q 947 2381 947 1747 
z
" transform="scale(0.015625)"/>
     <path id="DejaVuSans-75" d="M 544 1381 
L 544 3500 
L 1119 3500 
L 1119 1403 
Q 1119 906 1312 657 
Q 1506 409 1894 409 
Q 2359 409 2629 706 
Q 2900 1003 2900 1516 
L 2900 3500 
L 3475 3500 
L 3475 0 
L 2900 0 
L 2900 538 
Q 2691 219 2414 64 
Q 2138 -91 1772 -91 
Q 1169 -91 856 284 
Q 544 659 544 1381 
z
M 1991 3584 
L 1991 3584 
z
" transform="scale(0.015625)"/>
     <path id="DejaVuSans-69" d="M 603 3500 
L 1178 3500 
L 1178 0 
L 603 0 
L 603 3500 
z
M 603 4863 
L 1178 4863 
L 1178 4134 
L 603 4134 
L 603 4863 
z
" transform="scale(0.015625)"/>
     <path id="DejaVuSans-66" d="M 2375 4863 
L 2375 4384 
L 1825 4384 
Q 1516 4384 1395 4259 
Q 1275 4134 1275 3809 
L 1275 3500 
L 2222 3500 
L 2222 3053 
L 1275 3053 
L 1275 0 
L 697 0 
L 697 3053 
L 147 3053 
L 147 3500 
L 697 3500 
L 697 3744 
Q 697 4328 969 4595 
Q 1241 4863 1831 4863 
L 2375 4863 
z
" transform="scale(0.015625)"/>
     <path id="DejaVuSans-6d" d="M 3328 2828 
Q 3544 3216 3844 3400 
Q 4144 3584 4550 3584 
Q 5097 3584 5394 3201 
Q 5691 2819 5691 2113 
L 5691 0 
L 5113 0 
L 5113 2094 
Q 5113 2597 4934 2840 
Q 4756 3084 4391 3084 
Q 3944 3084 3684 2787 
Q 3425 2491 3425 1978 
L 3425 0 
L 2847 0 
L 2847 2094 
Q 2847 2600 2669 2842 
Q 2491 3084 2119 3084 
Q 1678 3084 1418 2786 
Q 1159 2488 1159 1978 
L 1159 0 
L 581 0 
L 581 3500 
L 1159 3500 
L 1159 2956 
Q 1356 3278 1631 3431 
Q 1906 3584 2284 3584 
Q 2666 3584 2933 3390 
Q 3200 3197 3328 2828 
z
" transform="scale(0.015625)"/>
     <path id="DejaVuSans-2d" d="M 313 2009 
L 1997 2009 
L 1997 1497 
L 313 1497 
L 313 2009 
z
" transform="scale(0.015625)"/>
     <path id="DejaVuSans-6b" d="M 581 4863 
L 1159 4863 
L 1159 1991 
L 2875 3500 
L 3609 3500 
L 1753 1863 
L 3688 0 
L 2938 0 
L 1159 1709 
L 1159 0 
L 581 0 
L 581 4863 
z
" transform="scale(0.015625)"/>
     <path id="DejaVuSans-6c" d="M 603 4863 
L 1178 4863 
L 1178 0 
L 603 0 
L 603 4863 
z
" transform="scale(0.015625)"/>
     <path id="DejaVuSans-76" d="M 191 3500 
L 800 3500 
L 1894 563 
L 2988 3500 
L 3597 3500 
L 2284 0 
L 1503 0 
L 191 3500 
z
" transform="scale(0.015625)"/>
    </defs>
    <use xlink:href="#DejaVuSans-50"/>
    <use xlink:href="#DejaVuSans-72" x="58.552734"/>
    <use xlink:href="#DejaVuSans-6f" x="97.416016"/>
    <use xlink:href="#DejaVuSans-64" x="158.597656"/>
    <use xlink:href="#DejaVuSans-75" x="222.074219"/>
    <use xlink:href="#DejaVuSans-63" x="285.453125"/>
    <use xlink:href="#DejaVuSans-74" x="340.433594"/>
    <use xlink:href="#DejaVuSans-69" x="379.642578"/>
    <use xlink:href="#DejaVuSans-6f" x="407.425781"/>
    <use xlink:href="#DejaVuSans-6e" x="468.607422"/>
    <use xlink:href="#DejaVuSans-20" x="531.986328"/>
    <use xlink:href="#DejaVuSans-63" x="563.773438"/>
    <use xlink:href="#DejaVuSans-68" x="618.753906"/>
    <use xlink:href="#DejaVuSans-61" x="682.132812"/>
    <use xlink:href="#DejaVuSans-6e" x="743.412109"/>
    <use xlink:href="#DejaVuSans-67" x="806.791016"/>
    <use xlink:href="#DejaVuSans-65" x="870.267578"/>
    <use xlink:href="#DejaVuSans-20" x="931.791016"/>
    <use xlink:href="#DejaVuSans-66" x="963.578125"/>
    <use xlink:href="#DejaVuSans-72" x="998.783203"/>
    <use xlink:href="#DejaVuSans-6f" x="1037.646484"/>
    <use xlink:href="#DejaVuSans-6d" x="1098.828125"/>
    <use xlink:href="#DejaVuSans-20" x="1196.240234"/>
    <use xlink:href="#DejaVuSans-70" x="1228.027344"/>
    <use xlink:href="#DejaVuSans-72" x="1291.503906"/>
    <use xlink:href="#DejaVuSans-65" x="1330.367188"/>
    <use xlink:href="#DejaVuSans-2d" x="1391.890625"/>
    <use xlink:href="#DejaVuSans-73" x="1427.974609"/>
    <use xlink:href="#DejaVuSans-68" x="1480.074219"/>
    <use xlink:href="#DejaVuSans-6f" x="1543.453125"/>
    <use xlink:href="#DejaVuSans-63" x="1604.634766"/>
    <use xlink:href="#DejaVuSans-6b" x="1659.615234"/>
    <use xlink:href="#DejaVuSans-20" x="1717.525391"/>
    <use xlink:href="#DejaVuSans-6c" x="1749.3125"/>
    <use xlink:href="#DejaVuSans-65" x="1777.095703"/>
    <use xlink:href="#DejaVuSans-76" x="1838.619141"/>
    <use xlink:href="#DejaVuSans-65" x="1897.798828"/>
    <use xlink:href="#DejaVuSans-6c" x="1959.322266"/>
   </g>
  </g>
  <g id="legend_1">
   <g id="patch_20">
    <path d="M 477.429299 322.967813 
L 1691.283768 322.967813 
Q 1695.903768 322.967813 1695.903768 318.347813 
L 1695.903768 250.17 
Q 1695.903768 245.55 1691.283768 245.55 
L 477.429299 245.55 
Q 472.809299 245.55 472.809299 250.17 
L 472.809299 318.347813 
Q 472.809299 322.967813 477.429299 322.967813 
z
" style="fill: #eaeaf2; opacity: 0.8; stroke: #cccccc; stroke-linejoin: miter"/>
   </g>
   <g id="text_41">
    <!-- Experiences -->
    <g style="fill: #262626" transform="translate(1007.522127 273.938063) scale(0.252 -0.252)">
     <defs>
      <path id="DejaVuSans-45" d="M 628 4666 
L 3578 4666 
L 3578 4134 
L 1259 4134 
L 1259 2753 
L 3481 2753 
L 3481 2222 
L 1259 2222 
L 1259 531 
L 3634 531 
L 3634 0 
L 628 0 
L 628 4666 
z
" transform="scale(0.015625)"/>
      <path id="DejaVuSans-78" d="M 3513 3500 
L 2247 1797 
L 3578 0 
L 2900 0 
L 1881 1375 
L 863 0 
L 184 0 
L 1544 1831 
L 300 3500 
L 978 3500 
L 1906 2253 
L 2834 3500 
L 3513 3500 
z
" transform="scale(0.015625)"/>
     </defs>
     <use xlink:href="#DejaVuSans-45"/>
     <use xlink:href="#DejaVuSans-78" x="63.183594"/>
     <use xlink:href="#DejaVuSans-70" x="122.363281"/>
     <use xlink:href="#DejaVuSans-65" x="185.839844"/>
     <use xlink:href="#DejaVuSans-72" x="247.363281"/>
     <use xlink:href="#DejaVuSans-69" x="288.476562"/>
     <use xlink:href="#DejaVuSans-65" x="316.259766"/>
     <use xlink:href="#DejaVuSans-6e" x="377.783203"/>
     <use xlink:href="#DejaVuSans-63" x="441.162109"/>
     <use xlink:href="#DejaVuSans-65" x="496.142578"/>
     <use xlink:href="#DejaVuSans-73" x="557.666016"/>
    </g>
   </g>
   <g id="line2d_61">
    <path d="M 482.049299 300.196266 
L 505.149299 300.196266 
L 528.249299 300.196266 
" style="fill: none; stroke: #4c72b0; stroke-opacity: 0.9; stroke-width: 3; stroke-linecap: round"/>
   </g>
   <g id="text_42">
    <!-- eora26_full_2000 -->
    <g style="fill: #262626" transform="translate(546.729299 308.281266) scale(0.231 -0.231)">
     <defs>
      <path id="DejaVuSans-5f" d="M 3263 -1063 
L 3263 -1509 
L -63 -1509 
L -63 -1063 
L 3263 -1063 
z
" transform="scale(0.015625)"/>
     </defs>
     <use xlink:href="#DejaVuSans-65"/>
     <use xlink:href="#DejaVuSans-6f" x="61.523438"/>
     <use xlink:href="#DejaVuSans-72" x="122.705078"/>
     <use xlink:href="#DejaVuSans-61" x="163.818359"/>
     <use xlink:href="#DejaVuSans-32" x="225.097656"/>
     <use xlink:href="#DejaVuSans-36" x="288.720703"/>
     <use xlink:href="#DejaVuSans-5f" x="352.34375"/>
     <use xlink:href="#DejaVuSans-66" x="402.34375"/>
     <use xlink:href="#DejaVuSans-75" x="437.548828"/>
     <use xlink:href="#DejaVuSans-6c" x="500.927734"/>
     <use xlink:href="#DejaVuSans-6c" x="528.710938"/>
     <use xlink:href="#DejaVuSans-5f" x="556.494141"/>
     <use xlink:href="#DejaVuSans-32" x="606.494141"/>
     <use xlink:href="#DejaVuSans-30" x="670.117188"/>
     <use xlink:href="#DejaVuSans-30" x="733.740234"/>
     <use xlink:href="#DejaVuSans-30" x="797.363281"/>
    </g>
   </g>
   <g id="line2d_62">
    <path d="M 791.820299 300.196266 
L 814.920299 300.196266 
L 838.020299 300.196266 
" style="fill: none; stroke: #dd8452; stroke-opacity: 0.9; stroke-width: 3; stroke-linecap: round"/>
   </g>
   <g id="text_43">
    <!-- eora26_full_2010 -->
    <g style="fill: #262626" transform="translate(856.500299 308.281266) scale(0.231 -0.231)">
     <defs>
      <path id="DejaVuSans-31" d="M 794 531 
L 1825 531 
L 1825 4091 
L 703 3866 
L 703 4441 
L 1819 4666 
L 2450 4666 
L 2450 531 
L 3481 531 
L 3481 0 
L 794 0 
L 794 531 
z
" transform="scale(0.015625)"/>
     </defs>
     <use xlink:href="#DejaVuSans-65"/>
     <use xlink:href="#DejaVuSans-6f" x="61.523438"/>
     <use xlink:href="#DejaVuSans-72" x="122.705078"/>
     <use xlink:href="#DejaVuSans-61" x="163.818359"/>
     <use xlink:href="#DejaVuSans-32" x="225.097656"/>
     <use xlink:href="#DejaVuSans-36" x="288.720703"/>
     <use xlink:href="#DejaVuSans-5f" x="352.34375"/>
     <use xlink:href="#DejaVuSans-66" x="402.34375"/>
     <use xlink:href="#DejaVuSans-75" x="437.548828"/>
     <use xlink:href="#DejaVuSans-6c" x="500.927734"/>
     <use xlink:href="#DejaVuSans-6c" x="528.710938"/>
     <use xlink:href="#DejaVuSans-5f" x="556.494141"/>
     <use xlink:href="#DejaVuSans-32" x="606.494141"/>
     <use xlink:href="#DejaVuSans-30" x="670.117188"/>
     <use xlink:href="#DejaVuSans-31" x="733.740234"/>
     <use xlink:href="#DejaVuSans-30" x="797.363281"/>
    </g>
   </g>
   <g id="line2d_63">
    <path d="M 1101.591299 300.196266 
L 1124.691299 300.196266 
L 1147.791299 300.196266 
" style="fill: none; stroke: #55a868; stroke-opacity: 0.9; stroke-width: 3; stroke-linecap: round"/>
   </g>
   <g id="text_44">
    <!-- euregio_full_2000 -->
    <g style="fill: #262626" transform="translate(1166.271299 308.281266) scale(0.231 -0.231)">
     <use xlink:href="#DejaVuSans-65"/>
     <use xlink:href="#DejaVuSans-75" x="61.523438"/>
     <use xlink:href="#DejaVuSans-72" x="124.902344"/>
     <use xlink:href="#DejaVuSans-65" x="163.765625"/>
     <use xlink:href="#DejaVuSans-67" x="225.289062"/>
     <use xlink:href="#DejaVuSans-69" x="288.765625"/>
     <use xlink:href="#DejaVuSans-6f" x="316.548828"/>
     <use xlink:href="#DejaVuSans-5f" x="377.730469"/>
     <use xlink:href="#DejaVuSans-66" x="427.730469"/>
     <use xlink:href="#DejaVuSans-75" x="462.935547"/>
     <use xlink:href="#DejaVuSans-6c" x="526.314453"/>
     <use xlink:href="#DejaVuSans-6c" x="554.097656"/>
     <use xlink:href="#DejaVuSans-5f" x="581.880859"/>
     <use xlink:href="#DejaVuSans-32" x="631.880859"/>
     <use xlink:href="#DejaVuSans-30" x="695.503906"/>
     <use xlink:href="#DejaVuSans-30" x="759.126953"/>
     <use xlink:href="#DejaVuSans-30" x="822.75"/>
    </g>
   </g>
   <g id="line2d_64">
    <path d="M 1417.227534 300.196266 
L 1440.327534 300.196266 
L 1463.427534 300.196266 
" style="fill: none; stroke: #c44e52; stroke-opacity: 0.9; stroke-width: 3; stroke-linecap: round"/>
   </g>
   <g id="text_45">
    <!-- euregio_full_2010 -->
    <g style="fill: #262626" transform="translate(1481.907534 308.281266) scale(0.231 -0.231)">
     <use xlink:href="#DejaVuSans-65"/>
     <use xlink:href="#DejaVuSans-75" x="61.523438"/>
     <use xlink:href="#DejaVuSans-72" x="124.902344"/>
     <use xlink:href="#DejaVuSans-65" x="163.765625"/>
     <use xlink:href="#DejaVuSans-67" x="225.289062"/>
     <use xlink:href="#DejaVuSans-69" x="288.765625"/>
     <use xlink:href="#DejaVuSans-6f" x="316.548828"/>
     <use xlink:href="#DejaVuSans-5f" x="377.730469"/>
     <use xlink:href="#DejaVuSans-66" x="427.730469"/>
     <use xlink:href="#DejaVuSans-75" x="462.935547"/>
     <use xlink:href="#DejaVuSans-6c" x="526.314453"/>
     <use xlink:href="#DejaVuSans-6c" x="554.097656"/>
     <use xlink:href="#DejaVuSans-5f" x="581.880859"/>
     <use xlink:href="#DejaVuSans-32" x="631.880859"/>
     <use xlink:href="#DejaVuSans-30" x="695.503906"/>
     <use xlink:href="#DejaVuSans-31" x="759.126953"/>
     <use xlink:href="#DejaVuSans-30" x="822.75"/>
    </g>
   </g>
  </g>
 </g>
 <defs>
  <clipPath id="p71138b2fcb">
   <rect x="101.182172" y="70.656" width="292.610271" height="75.828"/>
  </clipPath>
  <clipPath id="pc6570cde92">
   <rect x="435.80621" y="70.656" width="292.610271" height="75.828"/>
  </clipPath>
  <clipPath id="pf1f12c2c46">
   <rect x="770.430248" y="70.656" width="292.610271" height="75.828"/>
  </clipPath>
  <clipPath id="pb1544c5ef5">
   <rect x="1105.054286" y="70.656" width="292.610271" height="75.828"/>
  </clipPath>
  <clipPath id="p2816cae9e4">
   <rect x="1439.678324" y="70.656" width="292.610271" height="75.828"/>
  </clipPath>
  <clipPath id="p633470cc20">
   <rect x="1774.302363" y="70.656" width="292.610271" height="75.828"/>
  </clipPath>
 </defs>
</svg>
