<?xml version="1.0" encoding="utf-8" standalone="no"?>
<!DOCTYPE svg PUBLIC "-//W3C//DTD SVG 1.1//EN"
  "http://www.w3.org/Graphics/SVG/1.1/DTD/svg11.dtd">
<svg xmlns:xlink="http://www.w3.org/1999/xlink" width="1304.437547pt" height="591.51675pt" viewBox="0 0 1304.437547 591.51675" xmlns="http://www.w3.org/2000/svg" version="1.1">
 <metadata>
  <rdf:RDF xmlns:dc="http://purl.org/dc/elements/1.1/" xmlns:cc="http://creativecommons.org/ns#" xmlns:rdf="http://www.w3.org/1999/02/22-rdf-syntax-ns#">
   <cc:Work>
    <dc:type rdf:resource="http://purl.org/dc/dcmitype/StillImage"/>
    <dc:date>2023-04-07T18:32:04.344690</dc:date>
    <dc:format>image/svg+xml</dc:format>
    <dc:creator>
     <cc:Agent>
      <dc:title>Matplotlib v3.7.1, https://matplotlib.org/</dc:title>
     </cc:Agent>
    </dc:creator>
   </cc:Work>
  </rdf:RDF>
 </metadata>
 <defs>
  <style type="text/css">*{stroke-linejoin: round; stroke-linecap: butt}</style>
 </defs>
 <g id="figure_1">
  <g id="patch_1">
   <path d="M 0 591.51675 
L 1304.437547 591.51675 
L 1304.437547 -0 
L 0 -0 
z
" style="fill: #ffffff"/>
  </g>
  <g id="axes_1">
   <g id="patch_2">
    <path d="M 170.340091 201.042 
L 462.70916 201.042 
L 462.70916 81.456 
L 170.340091 81.456 
z
" style="fill: #eaeaf2"/>
   </g>
   <g id="matplotlib.axis_1">
    <g id="xtick_1">
     <g id="line2d_1">
      <path d="M 183.629594 201.042 
L 183.629594 81.456 
" clip-path="url(#pe1ca19d696)" style="fill: none; stroke: #ffffff; stroke-linecap: round"/>
     </g>
    </g>
    <g id="xtick_2">
     <g id="line2d_2">
      <path d="M 274.77845 201.042 
L 274.77845 81.456 
" clip-path="url(#pe1ca19d696)" style="fill: none; stroke: #ffffff; stroke-linecap: round"/>
     </g>
    </g>
    <g id="xtick_3">
     <g id="line2d_3">
      <path d="M 365.927305 201.042 
L 365.927305 81.456 
" clip-path="url(#pe1ca19d696)" style="fill: none; stroke: #ffffff; stroke-linecap: round"/>
     </g>
    </g>
    <g id="xtick_4">
     <g id="line2d_4">
      <path d="M 457.076161 201.042 
L 457.076161 81.456 
" clip-path="url(#pe1ca19d696)" style="fill: none; stroke: #ffffff; stroke-linecap: round"/>
     </g>
    </g>
   </g>
   <g id="matplotlib.axis_2">
    <g id="ytick_1">
     <g id="line2d_5">
      <path d="M 170.340091 157.734651 
L 462.70916 157.734651 
" clip-path="url(#pe1ca19d696)" style="fill: none; stroke: #ffffff; stroke-linecap: round"/>
     </g>
     <g id="text_1">
      <!-- −0.5 -->
      <g style="fill: #262626" transform="translate(104.746794 166.510846) scale(0.231 -0.231)">
       <defs>
        <path id="DejaVuSans-2212" d="M 678 2272 
L 4684 2272 
L 4684 1741 
L 678 1741 
L 678 2272 
z
" transform="scale(0.015625)"/>
        <path id="DejaVuSans-30" d="M 2034 4250 
Q 1547 4250 1301 3770 
Q 1056 3291 1056 2328 
Q 1056 1369 1301 889 
Q 1547 409 2034 409 
Q 2525 409 2770 889 
Q 3016 1369 3016 2328 
Q 3016 3291 2770 3770 
Q 2525 4250 2034 4250 
z
M 2034 4750 
Q 2819 4750 3233 4129 
Q 3647 3509 3647 2328 
Q 3647 1150 3233 529 
Q 2819 -91 2034 -91 
Q 1250 -91 836 529 
Q 422 1150 422 2328 
Q 422 3509 836 4129 
Q 1250 4750 2034 4750 
z
" transform="scale(0.015625)"/>
        <path id="DejaVuSans-2e" d="M 684 794 
L 1344 794 
L 1344 0 
L 684 0 
L 684 794 
z
" transform="scale(0.015625)"/>
        <path id="DejaVuSans-35" d="M 691 4666 
L 3169 4666 
L 3169 4134 
L 1269 4134 
L 1269 2991 
Q 1406 3038 1543 3061 
Q 1681 3084 1819 3084 
Q 2600 3084 3056 2656 
Q 3513 2228 3513 1497 
Q 3513 744 3044 326 
Q 2575 -91 1722 -91 
Q 1428 -91 1123 -41 
Q 819 9 494 109 
L 494 744 
Q 775 591 1075 516 
Q 1375 441 1709 441 
Q 2250 441 2565 725 
Q 2881 1009 2881 1497 
Q 2881 1984 2565 2268 
Q 2250 2553 1709 2553 
Q 1456 2553 1204 2497 
Q 953 2441 691 2322 
L 691 4666 
z
" transform="scale(0.015625)"/>
       </defs>
       <use xlink:href="#DejaVuSans-2212"/>
       <use xlink:href="#DejaVuSans-30" x="83.789062"/>
       <use xlink:href="#DejaVuSans-2e" x="147.412109"/>
       <use xlink:href="#DejaVuSans-35" x="179.199219"/>
      </g>
     </g>
    </g>
    <g id="ytick_2">
     <g id="line2d_6">
      <path d="M 170.340091 111.871664 
L 462.70916 111.871664 
" clip-path="url(#pe1ca19d696)" style="fill: none; stroke: #ffffff; stroke-linecap: round"/>
     </g>
     <g id="text_2">
      <!-- 0.0 -->
      <g style="fill: #262626" transform="translate(124.103872 120.647859) scale(0.231 -0.231)">
       <use xlink:href="#DejaVuSans-30"/>
       <use xlink:href="#DejaVuSans-2e" x="63.623047"/>
       <use xlink:href="#DejaVuSans-30" x="95.410156"/>
      </g>
     </g>
    </g>
    <g id="text_3">
     <!-- % change -->
     <g style="fill: #262626" transform="translate(95.505982 203.597344) rotate(-90) scale(0.252 -0.252)">
      <defs>
       <path id="DejaVuSans-25" d="M 4653 2053 
Q 4381 2053 4226 1822 
Q 4072 1591 4072 1178 
Q 4072 772 4226 539 
Q 4381 306 4653 306 
Q 4919 306 5073 539 
Q 5228 772 5228 1178 
Q 5228 1588 5073 1820 
Q 4919 2053 4653 2053 
z
M 4653 2450 
Q 5147 2450 5437 2106 
Q 5728 1763 5728 1178 
Q 5728 594 5436 251 
Q 5144 -91 4653 -91 
Q 4153 -91 3862 251 
Q 3572 594 3572 1178 
Q 3572 1766 3864 2108 
Q 4156 2450 4653 2450 
z
M 1428 4353 
Q 1159 4353 1004 4120 
Q 850 3888 850 3481 
Q 850 3069 1003 2837 
Q 1156 2606 1428 2606 
Q 1700 2606 1854 2837 
Q 2009 3069 2009 3481 
Q 2009 3884 1853 4118 
Q 1697 4353 1428 4353 
z
M 4250 4750 
L 4750 4750 
L 1831 -91 
L 1331 -91 
L 4250 4750 
z
M 1428 4750 
Q 1922 4750 2215 4408 
Q 2509 4066 2509 3481 
Q 2509 2891 2217 2550 
Q 1925 2209 1428 2209 
Q 931 2209 642 2551 
Q 353 2894 353 3481 
Q 353 4063 643 4406 
Q 934 4750 1428 4750 
z
" transform="scale(0.015625)"/>
       <path id="DejaVuSans-20" transform="scale(0.015625)"/>
       <path id="DejaVuSans-63" d="M 3122 3366 
L 3122 2828 
Q 2878 2963 2633 3030 
Q 2388 3097 2138 3097 
Q 1578 3097 1268 2742 
Q 959 2388 959 1747 
Q 959 1106 1268 751 
Q 1578 397 2138 397 
Q 2388 397 2633 464 
Q 2878 531 3122 666 
L 3122 134 
Q 2881 22 2623 -34 
Q 2366 -91 2075 -91 
Q 1284 -91 818 406 
Q 353 903 353 1747 
Q 353 2603 823 3093 
Q 1294 3584 2113 3584 
Q 2378 3584 2631 3529 
Q 2884 3475 3122 3366 
z
" transform="scale(0.015625)"/>
       <path id="DejaVuSans-68" d="M 3513 2113 
L 3513 0 
L 2938 0 
L 2938 2094 
Q 2938 2591 2744 2837 
Q 2550 3084 2163 3084 
Q 1697 3084 1428 2787 
Q 1159 2491 1159 1978 
L 1159 0 
L 581 0 
L 581 4863 
L 1159 4863 
L 1159 2956 
Q 1366 3272 1645 3428 
Q 1925 3584 2291 3584 
Q 2894 3584 3203 3211 
Q 3513 2838 3513 2113 
z
" transform="scale(0.015625)"/>
       <path id="DejaVuSans-61" d="M 2194 1759 
Q 1497 1759 1228 1600 
Q 959 1441 959 1056 
Q 959 750 1161 570 
Q 1363 391 1709 391 
Q 2188 391 2477 730 
Q 2766 1069 2766 1631 
L 2766 1759 
L 2194 1759 
z
M 3341 1997 
L 3341 0 
L 2766 0 
L 2766 531 
Q 2569 213 2275 61 
Q 1981 -91 1556 -91 
Q 1019 -91 701 211 
Q 384 513 384 1019 
Q 384 1609 779 1909 
Q 1175 2209 1959 2209 
L 2766 2209 
L 2766 2266 
Q 2766 2663 2505 2880 
Q 2244 3097 1772 3097 
Q 1472 3097 1187 3025 
Q 903 2953 641 2809 
L 641 3341 
Q 956 3463 1253 3523 
Q 1550 3584 1831 3584 
Q 2591 3584 2966 3190 
Q 3341 2797 3341 1997 
z
" transform="scale(0.015625)"/>
       <path id="DejaVuSans-6e" d="M 3513 2113 
L 3513 0 
L 2938 0 
L 2938 2094 
Q 2938 2591 2744 2837 
Q 2550 3084 2163 3084 
Q 1697 3084 1428 2787 
Q 1159 2491 1159 1978 
L 1159 0 
L 581 0 
L 581 3500 
L 1159 3500 
L 1159 2956 
Q 1366 3272 1645 3428 
Q 1925 3584 2291 3584 
Q 2894 3584 3203 3211 
Q 3513 2838 3513 2113 
z
" transform="scale(0.015625)"/>
       <path id="DejaVuSans-67" d="M 2906 1791 
Q 2906 2416 2648 2759 
Q 2391 3103 1925 3103 
Q 1463 3103 1205 2759 
Q 947 2416 947 1791 
Q 947 1169 1205 825 
Q 1463 481 1925 481 
Q 2391 481 2648 825 
Q 2906 1169 2906 1791 
z
M 3481 434 
Q 3481 -459 3084 -895 
Q 2688 -1331 1869 -1331 
Q 1566 -1331 1297 -1286 
Q 1028 -1241 775 -1147 
L 775 -588 
Q 1028 -725 1275 -790 
Q 1522 -856 1778 -856 
Q 2344 -856 2625 -561 
Q 2906 -266 2906 331 
L 2906 616 
Q 2728 306 2450 153 
Q 2172 0 1784 0 
Q 1141 0 747 490 
Q 353 981 353 1791 
Q 353 2603 747 3093 
Q 1141 3584 1784 3584 
Q 2172 3584 2450 3431 
Q 2728 3278 2906 2969 
L 2906 3500 
L 3481 3500 
L 3481 434 
z
" transform="scale(0.015625)"/>
       <path id="DejaVuSans-65" d="M 3597 1894 
L 3597 1613 
L 953 1613 
Q 991 1019 1311 708 
Q 1631 397 2203 397 
Q 2534 397 2845 478 
Q 3156 559 3463 722 
L 3463 178 
Q 3153 47 2828 -22 
Q 2503 -91 2169 -91 
Q 1331 -91 842 396 
Q 353 884 353 1716 
Q 353 2575 817 3079 
Q 1281 3584 2069 3584 
Q 2775 3584 3186 3129 
Q 3597 2675 3597 1894 
z
M 3022 2063 
Q 3016 2534 2758 2815 
Q 2500 3097 2075 3097 
Q 1594 3097 1305 2825 
Q 1016 2553 972 2059 
L 3022 2063 
z
" transform="scale(0.015625)"/>
      </defs>
      <use xlink:href="#DejaVuSans-25"/>
      <use xlink:href="#DejaVuSans-20" x="95.019531"/>
      <use xlink:href="#DejaVuSans-63" x="126.806641"/>
      <use xlink:href="#DejaVuSans-68" x="181.787109"/>
      <use xlink:href="#DejaVuSans-61" x="245.166016"/>
      <use xlink:href="#DejaVuSans-6e" x="306.445312"/>
      <use xlink:href="#DejaVuSans-67" x="369.824219"/>
      <use xlink:href="#DejaVuSans-65" x="433.300781"/>
     </g>
    </g>
   </g>
   <g id="PolyCollection_1"/>
   <g id="PolyCollection_2"/>
   <g id="PolyCollection_3"/>
   <g id="PolyCollection_4"/>
   <g id="PolyCollection_5"/>
   <g id="PolyCollection_6"/>
   <g id="line2d_7">
    <path d="M 183.629594 111.871664 
L 183.99419 185.718832 
L 184.358785 188.046226 
L 184.723381 188.405255 
L 185.087976 188.224774 
L 186.546358 186.763648 
L 189.098526 184.150541 
L 192.015289 150.560922 
L 193.109075 141.563134 
L 194.202861 134.250756 
L 195.296648 128.391101 
L 196.390434 123.745414 
L 197.48422 120.02146 
L 198.578007 116.99469 
L 199.307197 115.377713 
L 200.400984 113.759746 
L 201.859365 112.124895 
L 203.317747 110.88799 
L 204.776129 109.970899 
L 206.599106 109.131509 
L 208.786678 108.424529 
L 210.24506 108.13579 
L 213.161823 108.040564 
L 217.901564 108.186325 
L 251.079747 109.760808 
L 256.548679 109.994202 
L 268.944923 110.17604 
L 294.831198 110.295188 
L 365.56271 110.335337 
L 449.419657 110.337364 
L 449.419657 110.337364 
" clip-path="url(#pe1ca19d696)" style="fill: none; stroke: #4c72b0; stroke-opacity: 0.9; stroke-width: 3; stroke-linecap: round"/>
   </g>
   <g id="line2d_8">
    <path d="M 183.629594 111.871664 
L 183.99419 152.148325 
L 184.358785 153.731031 
L 184.723381 154.166089 
L 185.087976 154.20771 
L 185.817167 153.951113 
L 189.098526 152.344068 
L 189.827716 147.706994 
L 191.286098 138.177826 
L 192.379884 132.423823 
L 193.473671 127.739419 
L 194.567457 123.921714 
L 195.661243 120.812468 
L 196.755029 118.312292 
L 197.848816 116.365719 
L 198.942602 114.815513 
L 199.671793 113.993581 
L 200.765579 113.143113 
L 202.223961 112.271622 
L 204.046938 111.467455 
L 206.23451 110.793677 
L 208.786678 110.272078 
L 211.703442 109.90591 
L 215.713991 109.776355 
L 221.547518 109.800088 
L 237.589717 110.174505 
L 241.600266 110.267974 
L 292.643626 110.772385 
L 400.928466 110.797541 
L 449.419657 110.797665 
L 449.419657 110.797665 
" clip-path="url(#pe1ca19d696)" style="fill: none; stroke: #dd8452; stroke-opacity: 0.9; stroke-width: 3; stroke-linecap: round"/>
   </g>
   <g id="line2d_9">
    <path d="M 183.629594 111.871664 
L 183.99419 189.258161 
L 184.358785 193.186841 
L 184.723381 193.922026 
L 185.087976 193.8604 
L 185.817167 193.220854 
L 189.098526 189.908167 
L 192.015289 153.529085 
L 193.109075 143.769128 
L 194.202861 135.818264 
L 195.296648 129.37671 
L 196.390434 124.17388 
L 197.48422 120.009084 
L 198.578007 116.755478 
L 199.307197 115.054701 
L 200.400984 113.178299 
L 201.49477 111.742993 
L 202.588556 110.623317 
L 204.046938 109.539215 
L 205.50532 108.800802 
L 206.963701 108.368355 
L 208.786678 108.052895 
L 211.338846 107.839271 
L 214.620205 107.787105 
L 219.359946 107.936377 
L 226.651854 108.423243 
L 232.849976 109.023643 
L 239.412694 109.54656 
L 247.433793 109.9597 
L 257.642465 110.250705 
L 271.861686 110.430348 
L 301.02932 110.537805 
L 397.647107 110.562222 
L 449.419657 110.561569 
L 449.419657 110.561569 
" clip-path="url(#pe1ca19d696)" style="fill: none; stroke: #55a868; stroke-opacity: 0.9; stroke-width: 3; stroke-linecap: round"/>
   </g>
   <g id="line2d_10">
    <path d="M 183.629594 111.871664 
L 183.99419 172.691037 
L 184.358785 175.840325 
L 184.723381 176.411467 
L 185.087976 176.35041 
L 186.181762 175.529188 
L 189.098526 173.150831 
L 192.015289 144.624241 
L 193.109075 136.949129 
L 194.202861 130.694965 
L 195.296648 125.624314 
L 196.390434 121.539058 
L 197.48422 118.282434 
L 198.578007 115.736251 
L 199.307197 114.407608 
L 200.400984 112.955499 
L 201.49477 111.824036 
L 202.953152 110.704155 
L 204.046938 110.071317 
L 205.50532 109.546354 
L 207.328297 109.164824 
L 209.880465 108.894662 
L 213.526419 108.760782 
L 218.99535 108.810869 
L 227.01645 109.125724 
L 232.849976 109.52735 
L 239.048098 109.916717 
L 248.892175 110.313392 
L 260.923824 110.54482 
L 282.070358 110.693831 
L 331.655336 110.746902 
L 449.419657 110.748344 
L 449.419657 110.748344 
" clip-path="url(#pe1ca19d696)" style="fill: none; stroke: #c44e52; stroke-opacity: 0.9; stroke-width: 3; stroke-linecap: round"/>
   </g>
   <g id="line2d_11">
    <path d="M 183.629594 111.871664 
L 183.99419 182.769757 
L 184.358785 185.588619 
L 184.723381 185.780442 
L 185.452571 185.186369 
L 189.098526 181.602946 
L 190.921503 159.305075 
L 192.015289 148.771853 
L 193.109075 140.188286 
L 194.202861 133.194654 
L 195.296648 127.496664 
L 196.390434 122.873252 
L 197.48422 119.144758 
L 198.578007 116.170464 
L 199.307197 114.658835 
L 200.400984 112.931744 
L 201.49477 111.569564 
L 202.588556 110.525383 
L 204.046938 109.529853 
L 205.50532 108.819255 
L 207.328297 108.197554 
L 209.515869 107.675508 
L 211.703442 107.350159 
L 215.349396 107.074729 
L 219.359946 106.983487 
L 223.370495 107.258445 
L 231.026999 107.959087 
L 237.225121 108.463666 
L 245.246221 109.107723 
L 252.173534 109.784593 
L 259.465442 110.060467 
L 270.7679 110.260757 
L 293.737412 110.402148 
L 348.791321 110.457839 
L 449.419657 110.461807 
L 449.419657 110.461807 
" clip-path="url(#pe1ca19d696)" style="fill: none; stroke: #8172b3; stroke-opacity: 0.9; stroke-width: 3; stroke-linecap: round"/>
   </g>
   <g id="line2d_12">
    <path d="M 183.629594 111.871664 
L 183.99419 168.761212 
L 184.358785 170.659765 
L 184.723381 170.805292 
L 185.452571 170.350842 
L 189.098526 167.612709 
L 190.921503 149.88473 
L 192.015289 141.51332 
L 193.109075 134.691644 
L 194.202861 129.136201 
L 195.296648 124.621781 
L 196.390434 120.95074 
L 197.48422 117.986008 
L 198.578007 115.614234 
L 199.671793 113.832224 
L 200.765579 112.572212 
L 201.859365 111.624995 
L 203.317747 110.699193 
L 205.140724 109.876109 
L 206.963701 109.322771 
L 209.515869 108.807163 
L 212.068037 108.514197 
L 216.078587 108.286851 
L 220.089136 108.260224 
L 228.839427 108.707998 
L 249.985961 109.860264 
L 253.26732 110.111021 
L 260.194633 110.313294 
L 274.049259 110.473537 
L 300.664725 110.573631 
L 390.355199 110.605239 
L 449.419657 110.605974 
L 449.419657 110.605974 
" clip-path="url(#pe1ca19d696)" style="fill: none; stroke: #937860; stroke-opacity: 0.9; stroke-width: 3; stroke-linecap: round"/>
   </g>
   <g id="patch_3">
    <path d="M 170.340091 201.042 
L 170.340091 81.456 
" style="fill: none; stroke: #ffffff; stroke-width: 1.25; stroke-linejoin: miter; stroke-linecap: square"/>
   </g>
   <g id="patch_4">
    <path d="M 170.340091 201.042 
L 462.70916 201.042 
" style="fill: none; stroke: #ffffff; stroke-width: 1.25; stroke-linejoin: miter; stroke-linecap: square"/>
   </g>
   <g id="text_4">
    <!-- 0.5~30 -->
    <g style="fill: #262626" transform="translate(269.894782 75.456) scale(0.252 -0.252)">
     <defs>
      <path id="DejaVuSans-7e" d="M 4684 2553 
L 4684 1997 
Q 4356 1750 4076 1644 
Q 3797 1538 3494 1538 
Q 3150 1538 2694 1722 
Q 2659 1734 2644 1741 
Q 2622 1750 2575 1766 
Q 2091 1959 1797 1959 
Q 1522 1959 1253 1839 
Q 984 1719 678 1459 
L 678 2016 
Q 1006 2263 1286 2370 
Q 1566 2478 1869 2478 
Q 2213 2478 2672 2291 
Q 2703 2278 2719 2272 
Q 2744 2263 2788 2247 
Q 3272 2053 3566 2053 
Q 3834 2053 4098 2172 
Q 4363 2291 4684 2553 
z
" transform="scale(0.015625)"/>
      <path id="DejaVuSans-33" d="M 2597 2516 
Q 3050 2419 3304 2112 
Q 3559 1806 3559 1356 
Q 3559 666 3084 287 
Q 2609 -91 1734 -91 
Q 1441 -91 1130 -33 
Q 819 25 488 141 
L 488 750 
Q 750 597 1062 519 
Q 1375 441 1716 441 
Q 2309 441 2620 675 
Q 2931 909 2931 1356 
Q 2931 1769 2642 2001 
Q 2353 2234 1838 2234 
L 1294 2234 
L 1294 2753 
L 1863 2753 
Q 2328 2753 2575 2939 
Q 2822 3125 2822 3475 
Q 2822 3834 2567 4026 
Q 2313 4219 1838 4219 
Q 1578 4219 1281 4162 
Q 984 4106 628 3988 
L 628 4550 
Q 988 4650 1302 4700 
Q 1616 4750 1894 4750 
Q 2613 4750 3031 4423 
Q 3450 4097 3450 3541 
Q 3450 3153 3228 2886 
Q 3006 2619 2597 2516 
z
" transform="scale(0.015625)"/>
     </defs>
     <use xlink:href="#DejaVuSans-30"/>
     <use xlink:href="#DejaVuSans-2e" x="63.623047"/>
     <use xlink:href="#DejaVuSans-35" x="95.410156"/>
     <use xlink:href="#DejaVuSans-7e" x="159.033203"/>
     <use xlink:href="#DejaVuSans-33" x="242.822266"/>
     <use xlink:href="#DejaVuSans-30" x="306.445312"/>
    </g>
   </g>
  </g>
  <g id="axes_2">
   <g id="patch_5">
    <path d="M 489.290298 201.042 
L 781.659367 201.042 
L 781.659367 81.456 
L 489.290298 81.456 
z
" style="fill: #eaeaf2"/>
   </g>
   <g id="matplotlib.axis_3">
    <g id="xtick_5">
     <g id="line2d_13">
      <path d="M 502.579801 201.042 
L 502.579801 81.456 
" clip-path="url(#p9565ee5156)" style="fill: none; stroke: #ffffff; stroke-linecap: round"/>
     </g>
    </g>
    <g id="xtick_6">
     <g id="line2d_14">
      <path d="M 593.728656 201.042 
L 593.728656 81.456 
" clip-path="url(#p9565ee5156)" style="fill: none; stroke: #ffffff; stroke-linecap: round"/>
     </g>
    </g>
    <g id="xtick_7">
     <g id="line2d_15">
      <path d="M 684.877512 201.042 
L 684.877512 81.456 
" clip-path="url(#p9565ee5156)" style="fill: none; stroke: #ffffff; stroke-linecap: round"/>
     </g>
    </g>
    <g id="xtick_8">
     <g id="line2d_16">
      <path d="M 776.026368 201.042 
L 776.026368 81.456 
" clip-path="url(#p9565ee5156)" style="fill: none; stroke: #ffffff; stroke-linecap: round"/>
     </g>
    </g>
   </g>
   <g id="matplotlib.axis_4">
    <g id="ytick_3">
     <g id="line2d_17">
      <path d="M 489.290298 157.734651 
L 781.659367 157.734651 
" clip-path="url(#p9565ee5156)" style="fill: none; stroke: #ffffff; stroke-linecap: round"/>
     </g>
    </g>
    <g id="ytick_4">
     <g id="line2d_18">
      <path d="M 489.290298 111.871664 
L 781.659367 111.871664 
" clip-path="url(#p9565ee5156)" style="fill: none; stroke: #ffffff; stroke-linecap: round"/>
     </g>
    </g>
   </g>
   <g id="PolyCollection_7"/>
   <g id="PolyCollection_8"/>
   <g id="PolyCollection_9"/>
   <g id="PolyCollection_10"/>
   <g id="PolyCollection_11"/>
   <g id="PolyCollection_12"/>
   <g id="line2d_19">
    <path d="M 502.579801 111.871664 
L 502.944396 185.718832 
L 503.308992 188.343561 
L 503.673587 189.046064 
L 504.038182 189.219752 
L 505.131969 189.200587 
L 508.048732 188.940834 
L 508.777923 180.600217 
L 509.871709 167.987352 
L 510.965495 157.557852 
L 512.059282 149.029357 
L 513.153068 142.05776 
L 514.246854 136.358593 
L 515.340641 131.699279 
L 516.434427 127.88992 
L 517.528213 124.775215 
L 518.621999 122.2283 
L 519.715786 120.149194 
L 520.809572 118.449945 
L 522.267954 116.655508 
L 523.726335 115.284263 
L 525.184717 114.240281 
L 526.643099 113.462592 
L 528.466076 112.759273 
L 530.653648 112.179873 
L 533.205816 111.779057 
L 536.487175 111.485868 
L 541.226916 111.287282 
L 552.164778 111.228983 
L 594.822443 111.333771 
L 609.40626 111.490779 
L 632.011176 111.628972 
L 684.148321 111.711516 
L 768.369864 111.723561 
L 768.369864 111.723561 
" clip-path="url(#p9565ee5156)" style="fill: none; stroke: #4c72b0; stroke-opacity: 0.9; stroke-width: 3; stroke-linecap: round"/>
   </g>
   <g id="line2d_20">
    <path d="M 502.579801 111.871664 
L 502.944396 152.148325 
L 503.308992 153.868741 
L 503.673587 154.464619 
L 504.038182 154.674541 
L 504.767373 154.758624 
L 508.048732 154.634603 
L 508.777923 150.349105 
L 510.236305 141.344556 
L 511.330091 135.877789 
L 512.423877 131.404832 
L 513.517663 127.748064 
L 514.61145 124.758621 
L 515.705236 122.314577 
L 516.799022 120.316222 
L 517.892809 118.682446 
L 519.35119 116.957971 
L 520.809572 115.63906 
L 522.267954 114.630955 
L 523.726335 113.860539 
L 525.549312 113.146624 
L 527.736885 112.561569 
L 530.289053 112.148567 
L 533.205816 111.883503 
L 537.945557 111.674647 
L 546.331251 111.556848 
L 587.89513 111.571546 
L 627.636031 111.718743 
L 700.555115 111.767234 
L 768.369864 111.77454 
L 768.369864 111.77454 
" clip-path="url(#p9565ee5156)" style="fill: none; stroke: #dd8452; stroke-opacity: 0.9; stroke-width: 3; stroke-linecap: round"/>
   </g>
   <g id="line2d_21">
    <path d="M 502.579801 111.871664 
L 502.944396 189.258161 
L 503.308992 193.479659 
L 503.673587 194.554604 
L 504.038182 194.843297 
L 504.767373 194.904067 
L 508.048732 194.611218 
L 510.965495 160.749589 
L 512.059282 151.608983 
L 513.153068 144.137536 
L 514.246854 138.029572 
L 515.340641 133.040603 
L 516.434427 128.962047 
L 517.528213 125.626759 
L 518.621999 122.899972 
L 519.715786 120.669987 
L 520.809572 118.846672 
L 521.903358 117.355628 
L 523.36174 115.782456 
L 524.820122 114.583923 
L 526.278503 113.673628 
L 528.10148 112.842488 
L 529.924457 112.276851 
L 532.11203 111.87367 
L 535.393389 111.514958 
L 540.133129 111.255812 
L 547.425038 111.12035 
L 562.37345 111.109605 
L 587.530534 111.310641 
L 624.354672 111.656778 
L 660.449619 111.740236 
L 768.369864 111.754481 
L 768.369864 111.754481 
" clip-path="url(#p9565ee5156)" style="fill: none; stroke: #55a868; stroke-opacity: 0.9; stroke-width: 3; stroke-linecap: round"/>
   </g>
   <g id="line2d_22">
    <path d="M 502.579801 111.871664 
L 502.944396 172.691037 
L 503.308992 176.075613 
L 503.673587 176.921037 
L 504.038182 177.142801 
L 504.767373 177.187551 
L 508.048732 176.957575 
L 509.142518 166.075772 
L 510.236305 156.051656 
L 511.330091 147.824006 
L 512.423877 141.095862 
L 513.517663 135.595301 
L 514.61145 131.097974 
L 515.705236 127.420766 
L 516.799022 124.414497 
L 517.892809 121.956455 
L 518.986595 119.946521 
L 520.080381 118.302877 
L 521.538763 116.567218 
L 522.997144 115.240761 
L 524.455526 114.22887 
L 525.913908 113.461334 
L 527.736885 112.759059 
L 529.924457 112.202363 
L 532.11203 111.892766 
L 535.757984 111.594601 
L 541.226916 111.388588 
L 551.070992 111.28743 
L 573.311313 111.320241 
L 659.355832 111.759068 
L 768.369864 111.772329 
L 768.369864 111.772329 
" clip-path="url(#p9565ee5156)" style="fill: none; stroke: #c44e52; stroke-opacity: 0.9; stroke-width: 3; stroke-linecap: round"/>
   </g>
   <g id="line2d_23">
    <path d="M 502.579801 111.871664 
L 502.944396 182.769757 
L 503.308992 185.905868 
L 503.673587 186.436165 
L 504.402778 186.521788 
L 508.048732 186.220924 
L 510.236305 161.805538 
L 511.330091 152.515733 
L 512.423877 144.922075 
L 513.517663 138.714879 
L 514.61145 133.640945 
L 515.705236 129.493101 
L 516.799022 126.102081 
L 517.892809 123.329687 
L 518.986595 121.062595 
L 520.080381 119.208829 
L 521.174167 117.692361 
L 522.632549 116.090238 
L 524.090931 114.863441 
L 525.549312 113.923342 
L 527.372289 113.053375 
L 529.195267 112.442722 
L 531.382839 111.94485 
L 534.299603 111.565818 
L 537.945557 111.320896 
L 544.508274 111.154856 
L 557.998305 111.087068 
L 580.967817 111.168475 
L 613.416809 111.313551 
L 731.545726 111.710904 
L 768.369864 111.718053 
L 768.369864 111.718053 
" clip-path="url(#p9565ee5156)" style="fill: none; stroke: #8172b3; stroke-opacity: 0.9; stroke-width: 3; stroke-linecap: round"/>
   </g>
   <g id="line2d_24">
    <path d="M 502.579801 111.871664 
L 502.944396 168.761212 
L 503.308992 170.903117 
L 503.673587 171.307572 
L 504.402778 171.372939 
L 508.048732 171.142299 
L 510.236305 151.672257 
L 511.330091 144.273545 
L 512.423877 138.226417 
L 513.517663 133.28359 
L 514.61145 129.243154 
L 515.705236 125.94024 
L 516.799022 123.240064 
L 517.892809 121.032407 
L 518.986595 119.227267 
L 520.080381 117.751065 
L 521.538763 116.192428 
L 522.997144 115.000152 
L 524.455526 114.087699 
L 526.278503 113.243007 
L 528.10148 112.638916 
L 530.289053 112.150608 
L 533.205816 111.75756 
L 536.85177 111.505276 
L 543.049893 111.334177 
L 555.081542 111.290104 
L 588.259725 111.406198 
L 707.847024 111.721981 
L 768.369864 111.738273 
L 768.369864 111.738273 
" clip-path="url(#p9565ee5156)" style="fill: none; stroke: #937860; stroke-opacity: 0.9; stroke-width: 3; stroke-linecap: round"/>
   </g>
   <g id="patch_6">
    <path d="M 489.290298 201.042 
L 489.290298 81.456 
" style="fill: none; stroke: #ffffff; stroke-width: 1.25; stroke-linejoin: miter; stroke-linecap: square"/>
   </g>
   <g id="patch_7">
    <path d="M 489.290298 201.042 
L 781.659367 201.042 
" style="fill: none; stroke: #ffffff; stroke-width: 1.25; stroke-linejoin: miter; stroke-linecap: square"/>
   </g>
   <g id="text_5">
    <!-- 0.5~365 -->
    <g style="fill: #262626" transform="translate(580.828239 75.456) scale(0.252 -0.252)">
     <defs>
      <path id="DejaVuSans-36" d="M 2113 2584 
Q 1688 2584 1439 2293 
Q 1191 2003 1191 1497 
Q 1191 994 1439 701 
Q 1688 409 2113 409 
Q 2538 409 2786 701 
Q 3034 994 3034 1497 
Q 3034 2003 2786 2293 
Q 2538 2584 2113 2584 
z
M 3366 4563 
L 3366 3988 
Q 3128 4100 2886 4159 
Q 2644 4219 2406 4219 
Q 1781 4219 1451 3797 
Q 1122 3375 1075 2522 
Q 1259 2794 1537 2939 
Q 1816 3084 2150 3084 
Q 2853 3084 3261 2657 
Q 3669 2231 3669 1497 
Q 3669 778 3244 343 
Q 2819 -91 2113 -91 
Q 1303 -91 875 529 
Q 447 1150 447 2328 
Q 447 3434 972 4092 
Q 1497 4750 2381 4750 
Q 2619 4750 2861 4703 
Q 3103 4656 3366 4563 
z
" transform="scale(0.015625)"/>
     </defs>
     <use xlink:href="#DejaVuSans-30"/>
     <use xlink:href="#DejaVuSans-2e" x="63.623047"/>
     <use xlink:href="#DejaVuSans-35" x="95.410156"/>
     <use xlink:href="#DejaVuSans-7e" x="159.033203"/>
     <use xlink:href="#DejaVuSans-33" x="242.822266"/>
     <use xlink:href="#DejaVuSans-36" x="306.445312"/>
     <use xlink:href="#DejaVuSans-35" x="370.068359"/>
    </g>
   </g>
  </g>
  <g id="axes_3">
   <g id="patch_8">
    <path d="M 808.240504 201.042 
L 1100.609573 201.042 
L 1100.609573 81.456 
L 808.240504 81.456 
z
" style="fill: #eaeaf2"/>
   </g>
   <g id="matplotlib.axis_5">
    <g id="xtick_9">
     <g id="line2d_25">
      <path d="M 821.530007 201.042 
L 821.530007 81.456 
" clip-path="url(#p05986fa316)" style="fill: none; stroke: #ffffff; stroke-linecap: round"/>
     </g>
    </g>
    <g id="xtick_10">
     <g id="line2d_26">
      <path d="M 912.678863 201.042 
L 912.678863 81.456 
" clip-path="url(#p05986fa316)" style="fill: none; stroke: #ffffff; stroke-linecap: round"/>
     </g>
    </g>
    <g id="xtick_11">
     <g id="line2d_27">
      <path d="M 1003.827719 201.042 
L 1003.827719 81.456 
" clip-path="url(#p05986fa316)" style="fill: none; stroke: #ffffff; stroke-linecap: round"/>
     </g>
    </g>
    <g id="xtick_12">
     <g id="line2d_28">
      <path d="M 1094.976574 201.042 
L 1094.976574 81.456 
" clip-path="url(#p05986fa316)" style="fill: none; stroke: #ffffff; stroke-linecap: round"/>
     </g>
    </g>
   </g>
   <g id="matplotlib.axis_6">
    <g id="ytick_5">
     <g id="line2d_29">
      <path d="M 808.240504 157.734651 
L 1100.609573 157.734651 
" clip-path="url(#p05986fa316)" style="fill: none; stroke: #ffffff; stroke-linecap: round"/>
     </g>
    </g>
    <g id="ytick_6">
     <g id="line2d_30">
      <path d="M 808.240504 111.871664 
L 1100.609573 111.871664 
" clip-path="url(#p05986fa316)" style="fill: none; stroke: #ffffff; stroke-linecap: round"/>
     </g>
    </g>
   </g>
   <g id="PolyCollection_13"/>
   <g id="PolyCollection_14"/>
   <g id="PolyCollection_15"/>
   <g id="PolyCollection_16"/>
   <g id="PolyCollection_17"/>
   <g id="PolyCollection_18"/>
   <g id="line2d_31">
    <path d="M 821.530007 111.871664 
L 821.894603 185.718832 
L 822.259198 188.046226 
L 822.623794 188.405255 
L 822.988389 188.224774 
L 824.446771 186.763648 
L 826.998939 184.150541 
L 829.915702 150.560922 
L 831.009488 141.563134 
L 832.103275 134.250756 
L 833.197061 128.391101 
L 834.290847 123.745414 
L 835.384633 120.02146 
L 836.47842 116.99469 
L 837.20761 115.377713 
L 838.301397 113.759746 
L 839.759778 112.124895 
L 841.21816 110.88799 
L 842.676542 109.970899 
L 844.499519 109.131509 
L 846.687091 108.424529 
L 848.145473 108.13579 
L 851.062237 108.040564 
L 855.801977 108.186325 
L 888.98016 109.760808 
L 894.449092 109.994202 
L 906.845336 110.17604 
L 932.731611 110.295188 
L 1003.463123 110.335337 
L 1087.32007 110.337364 
L 1087.32007 110.337364 
" clip-path="url(#p05986fa316)" style="fill: none; stroke: #4c72b0; stroke-opacity: 0.9; stroke-width: 3; stroke-linecap: round"/>
   </g>
   <g id="line2d_32">
    <path d="M 821.530007 111.871664 
L 821.894603 152.148325 
L 822.259198 153.731031 
L 822.623794 154.166089 
L 822.988389 154.20771 
L 823.71758 153.951113 
L 826.998939 152.344068 
L 827.728129 147.706994 
L 829.186511 138.177826 
L 830.280297 132.423823 
L 831.374084 127.739419 
L 832.46787 123.921714 
L 833.561656 120.812468 
L 834.655442 118.312292 
L 835.749229 116.365719 
L 836.843015 114.815513 
L 837.572206 113.993581 
L 838.665992 113.143113 
L 840.124374 112.271622 
L 841.947351 111.467455 
L 844.134923 110.793677 
L 846.687091 110.272078 
L 849.603855 109.90591 
L 853.614404 109.776355 
L 859.447931 109.800088 
L 875.49013 110.174505 
L 879.500679 110.267974 
L 930.544039 110.772385 
L 1038.828879 110.797541 
L 1087.32007 110.797665 
L 1087.32007 110.797665 
" clip-path="url(#p05986fa316)" style="fill: none; stroke: #dd8452; stroke-opacity: 0.9; stroke-width: 3; stroke-linecap: round"/>
   </g>
   <g id="line2d_33">
    <path d="M 821.530007 111.871664 
L 821.894603 189.258161 
L 822.259198 193.186841 
L 822.623794 193.922026 
L 822.988389 193.8604 
L 823.71758 193.220854 
L 826.998939 189.908167 
L 829.915702 153.529085 
L 831.009488 143.769128 
L 832.103275 135.818264 
L 833.197061 129.37671 
L 834.290847 124.17388 
L 835.384633 120.009084 
L 836.47842 116.755478 
L 837.20761 115.054701 
L 838.301397 113.178299 
L 839.395183 111.742993 
L 840.488969 110.623317 
L 841.947351 109.539215 
L 843.405733 108.800802 
L 844.864114 108.368355 
L 846.687091 108.052895 
L 849.239259 107.839271 
L 852.520618 107.787105 
L 857.260359 107.936377 
L 864.552267 108.423243 
L 870.750389 109.023643 
L 877.313107 109.54656 
L 885.334206 109.9597 
L 895.542878 110.250705 
L 909.7621 110.430348 
L 938.929733 110.537805 
L 1035.54752 110.562222 
L 1087.32007 110.561569 
L 1087.32007 110.561569 
" clip-path="url(#p05986fa316)" style="fill: none; stroke: #55a868; stroke-opacity: 0.9; stroke-width: 3; stroke-linecap: round"/>
   </g>
   <g id="line2d_34">
    <path d="M 821.530007 111.871664 
L 821.894603 172.691037 
L 822.259198 175.840325 
L 822.623794 176.411467 
L 822.988389 176.35041 
L 824.082175 175.529188 
L 826.998939 173.150831 
L 829.915702 144.624241 
L 831.009488 136.949129 
L 832.103275 130.694965 
L 833.197061 125.624314 
L 834.290847 121.539058 
L 835.384633 118.282434 
L 836.47842 115.736251 
L 837.20761 114.407608 
L 838.301397 112.955499 
L 839.395183 111.824036 
L 840.853565 110.704155 
L 841.947351 110.071317 
L 843.405733 109.546354 
L 845.22871 109.164824 
L 847.780878 108.894662 
L 851.426832 108.760782 
L 856.895763 108.810869 
L 864.916863 109.125724 
L 870.750389 109.52735 
L 876.948512 109.916717 
L 886.792588 110.313392 
L 898.824237 110.54482 
L 919.970771 110.693831 
L 969.555749 110.746902 
L 1087.32007 110.748344 
L 1087.32007 110.748344 
" clip-path="url(#p05986fa316)" style="fill: none; stroke: #c44e52; stroke-opacity: 0.9; stroke-width: 3; stroke-linecap: round"/>
   </g>
   <g id="line2d_35">
    <path d="M 821.530007 111.871664 
L 821.894603 182.769757 
L 822.259198 185.588619 
L 822.623794 185.780442 
L 823.352984 185.186369 
L 826.998939 181.602946 
L 828.821916 159.305075 
L 829.915702 148.771853 
L 831.009488 140.188286 
L 832.103275 133.194654 
L 833.197061 127.496664 
L 834.290847 122.873252 
L 835.384633 119.144758 
L 836.47842 116.170464 
L 837.20761 114.658835 
L 838.301397 112.931744 
L 839.395183 111.569564 
L 840.488969 110.525383 
L 841.947351 109.529853 
L 843.405733 108.819255 
L 845.22871 108.197554 
L 847.416282 107.675508 
L 849.603855 107.350159 
L 853.249809 107.074729 
L 857.260359 106.983487 
L 861.270908 107.258445 
L 868.927412 107.959087 
L 875.125534 108.463666 
L 883.146634 109.107723 
L 890.073947 109.784593 
L 897.365855 110.060467 
L 908.668313 110.260757 
L 931.637825 110.402148 
L 986.691734 110.457839 
L 1087.32007 110.461807 
L 1087.32007 110.461807 
" clip-path="url(#p05986fa316)" style="fill: none; stroke: #8172b3; stroke-opacity: 0.9; stroke-width: 3; stroke-linecap: round"/>
   </g>
   <g id="line2d_36">
    <path d="M 821.530007 111.871664 
L 821.894603 168.761212 
L 822.259198 170.659765 
L 822.623794 170.805292 
L 823.352984 170.350842 
L 826.998939 167.612709 
L 828.821916 149.88473 
L 829.915702 141.51332 
L 831.009488 134.691644 
L 832.103275 129.136201 
L 833.197061 124.621781 
L 834.290847 120.95074 
L 835.384633 117.986008 
L 836.47842 115.614234 
L 837.572206 113.832224 
L 838.665992 112.572212 
L 839.759778 111.624995 
L 841.21816 110.699193 
L 843.041137 109.876109 
L 844.864114 109.322771 
L 847.416282 108.807163 
L 849.96845 108.514197 
L 853.979 108.286851 
L 857.98955 108.260224 
L 866.73984 108.707998 
L 887.886374 109.860264 
L 891.167733 110.111021 
L 898.095046 110.313294 
L 911.949672 110.473537 
L 938.565138 110.573631 
L 1028.255612 110.605239 
L 1087.32007 110.605974 
L 1087.32007 110.605974 
" clip-path="url(#p05986fa316)" style="fill: none; stroke: #937860; stroke-opacity: 0.9; stroke-width: 3; stroke-linecap: round"/>
   </g>
   <g id="patch_9">
    <path d="M 808.240504 201.042 
L 808.240504 81.456 
" style="fill: none; stroke: #ffffff; stroke-width: 1.25; stroke-linejoin: miter; stroke-linecap: square"/>
   </g>
   <g id="patch_10">
    <path d="M 808.240504 201.042 
L 1100.609573 201.042 
" style="fill: none; stroke: #ffffff; stroke-width: 1.25; stroke-linejoin: miter; stroke-linecap: square"/>
   </g>
   <g id="text_6">
    <!-- 0.8~30 -->
    <g style="fill: #262626" transform="translate(907.795195 75.456) scale(0.252 -0.252)">
     <defs>
      <path id="DejaVuSans-38" d="M 2034 2216 
Q 1584 2216 1326 1975 
Q 1069 1734 1069 1313 
Q 1069 891 1326 650 
Q 1584 409 2034 409 
Q 2484 409 2743 651 
Q 3003 894 3003 1313 
Q 3003 1734 2745 1975 
Q 2488 2216 2034 2216 
z
M 1403 2484 
Q 997 2584 770 2862 
Q 544 3141 544 3541 
Q 544 4100 942 4425 
Q 1341 4750 2034 4750 
Q 2731 4750 3128 4425 
Q 3525 4100 3525 3541 
Q 3525 3141 3298 2862 
Q 3072 2584 2669 2484 
Q 3125 2378 3379 2068 
Q 3634 1759 3634 1313 
Q 3634 634 3220 271 
Q 2806 -91 2034 -91 
Q 1263 -91 848 271 
Q 434 634 434 1313 
Q 434 1759 690 2068 
Q 947 2378 1403 2484 
z
M 1172 3481 
Q 1172 3119 1398 2916 
Q 1625 2713 2034 2713 
Q 2441 2713 2670 2916 
Q 2900 3119 2900 3481 
Q 2900 3844 2670 4047 
Q 2441 4250 2034 4250 
Q 1625 4250 1398 4047 
Q 1172 3844 1172 3481 
z
" transform="scale(0.015625)"/>
     </defs>
     <use xlink:href="#DejaVuSans-30"/>
     <use xlink:href="#DejaVuSans-2e" x="63.623047"/>
     <use xlink:href="#DejaVuSans-38" x="95.410156"/>
     <use xlink:href="#DejaVuSans-7e" x="159.033203"/>
     <use xlink:href="#DejaVuSans-33" x="242.822266"/>
     <use xlink:href="#DejaVuSans-30" x="306.445312"/>
    </g>
   </g>
  </g>
  <g id="axes_4">
   <g id="patch_11">
    <path d="M 170.340091 373.284 
L 462.70916 373.284 
L 462.70916 253.698 
L 170.340091 253.698 
z
" style="fill: #eaeaf2"/>
   </g>
   <g id="matplotlib.axis_7">
    <g id="xtick_13">
     <g id="line2d_37">
      <path d="M 183.629594 373.284 
L 183.629594 253.698 
" clip-path="url(#p525175a7f3)" style="fill: none; stroke: #ffffff; stroke-linecap: round"/>
     </g>
     <g id="text_7">
      <!-- 0 -->
      <g style="fill: #262626" transform="translate(176.280907 400.336391) scale(0.231 -0.231)">
       <use xlink:href="#DejaVuSans-30"/>
      </g>
     </g>
    </g>
    <g id="xtick_14">
     <g id="line2d_38">
      <path d="M 274.77845 373.284 
L 274.77845 253.698 
" clip-path="url(#p525175a7f3)" style="fill: none; stroke: #ffffff; stroke-linecap: round"/>
     </g>
     <g id="text_8">
      <!-- 250 -->
      <g style="fill: #262626" transform="translate(252.732387 400.336391) scale(0.231 -0.231)">
       <defs>
        <path id="DejaVuSans-32" d="M 1228 531 
L 3431 531 
L 3431 0 
L 469 0 
L 469 531 
Q 828 903 1448 1529 
Q 2069 2156 2228 2338 
Q 2531 2678 2651 2914 
Q 2772 3150 2772 3378 
Q 2772 3750 2511 3984 
Q 2250 4219 1831 4219 
Q 1534 4219 1204 4116 
Q 875 4013 500 3803 
L 500 4441 
Q 881 4594 1212 4672 
Q 1544 4750 1819 4750 
Q 2544 4750 2975 4387 
Q 3406 4025 3406 3419 
Q 3406 3131 3298 2873 
Q 3191 2616 2906 2266 
Q 2828 2175 2409 1742 
Q 1991 1309 1228 531 
z
" transform="scale(0.015625)"/>
       </defs>
       <use xlink:href="#DejaVuSans-32"/>
       <use xlink:href="#DejaVuSans-35" x="63.623047"/>
       <use xlink:href="#DejaVuSans-30" x="127.246094"/>
      </g>
     </g>
    </g>
    <g id="xtick_15">
     <g id="line2d_39">
      <path d="M 365.927305 373.284 
L 365.927305 253.698 
" clip-path="url(#p525175a7f3)" style="fill: none; stroke: #ffffff; stroke-linecap: round"/>
     </g>
     <g id="text_9">
      <!-- 500 -->
      <g style="fill: #262626" transform="translate(343.881243 400.336391) scale(0.231 -0.231)">
       <use xlink:href="#DejaVuSans-35"/>
       <use xlink:href="#DejaVuSans-30" x="63.623047"/>
       <use xlink:href="#DejaVuSans-30" x="127.246094"/>
      </g>
     </g>
    </g>
    <g id="xtick_16">
     <g id="line2d_40">
      <path d="M 457.076161 373.284 
L 457.076161 253.698 
" clip-path="url(#p525175a7f3)" style="fill: none; stroke: #ffffff; stroke-linecap: round"/>
     </g>
     <g id="text_10">
      <!-- 750 -->
      <g style="fill: #262626" transform="translate(435.030099 400.336391) scale(0.231 -0.231)">
       <defs>
        <path id="DejaVuSans-37" d="M 525 4666 
L 3525 4666 
L 3525 4397 
L 1831 0 
L 1172 0 
L 2766 4134 
L 525 4134 
L 525 4666 
z
" transform="scale(0.015625)"/>
       </defs>
       <use xlink:href="#DejaVuSans-37"/>
       <use xlink:href="#DejaVuSans-35" x="63.623047"/>
       <use xlink:href="#DejaVuSans-30" x="127.246094"/>
      </g>
     </g>
    </g>
    <g id="text_11">
     <!-- step -->
     <g style="fill: #262626" transform="translate(289.269251 428.288531) scale(0.252 -0.252)">
      <defs>
       <path id="DejaVuSans-73" d="M 2834 3397 
L 2834 2853 
Q 2591 2978 2328 3040 
Q 2066 3103 1784 3103 
Q 1356 3103 1142 2972 
Q 928 2841 928 2578 
Q 928 2378 1081 2264 
Q 1234 2150 1697 2047 
L 1894 2003 
Q 2506 1872 2764 1633 
Q 3022 1394 3022 966 
Q 3022 478 2636 193 
Q 2250 -91 1575 -91 
Q 1294 -91 989 -36 
Q 684 19 347 128 
L 347 722 
Q 666 556 975 473 
Q 1284 391 1588 391 
Q 1994 391 2212 530 
Q 2431 669 2431 922 
Q 2431 1156 2273 1281 
Q 2116 1406 1581 1522 
L 1381 1569 
Q 847 1681 609 1914 
Q 372 2147 372 2553 
Q 372 3047 722 3315 
Q 1072 3584 1716 3584 
Q 2034 3584 2315 3537 
Q 2597 3491 2834 3397 
z
" transform="scale(0.015625)"/>
       <path id="DejaVuSans-74" d="M 1172 4494 
L 1172 3500 
L 2356 3500 
L 2356 3053 
L 1172 3053 
L 1172 1153 
Q 1172 725 1289 603 
Q 1406 481 1766 481 
L 2356 481 
L 2356 0 
L 1766 0 
Q 1100 0 847 248 
Q 594 497 594 1153 
L 594 3053 
L 172 3053 
L 172 3500 
L 594 3500 
L 594 4494 
L 1172 4494 
z
" transform="scale(0.015625)"/>
       <path id="DejaVuSans-70" d="M 1159 525 
L 1159 -1331 
L 581 -1331 
L 581 3500 
L 1159 3500 
L 1159 2969 
Q 1341 3281 1617 3432 
Q 1894 3584 2278 3584 
Q 2916 3584 3314 3078 
Q 3713 2572 3713 1747 
Q 3713 922 3314 415 
Q 2916 -91 2278 -91 
Q 1894 -91 1617 61 
Q 1341 213 1159 525 
z
M 3116 1747 
Q 3116 2381 2855 2742 
Q 2594 3103 2138 3103 
Q 1681 3103 1420 2742 
Q 1159 2381 1159 1747 
Q 1159 1113 1420 752 
Q 1681 391 2138 391 
Q 2594 391 2855 752 
Q 3116 1113 3116 1747 
z
" transform="scale(0.015625)"/>
      </defs>
      <use xlink:href="#DejaVuSans-73"/>
      <use xlink:href="#DejaVuSans-74" x="52.099609"/>
      <use xlink:href="#DejaVuSans-65" x="91.308594"/>
      <use xlink:href="#DejaVuSans-70" x="152.832031"/>
     </g>
    </g>
   </g>
   <g id="matplotlib.axis_8">
    <g id="ytick_7">
     <g id="line2d_41">
      <path d="M 170.340091 329.976651 
L 462.70916 329.976651 
" clip-path="url(#p525175a7f3)" style="fill: none; stroke: #ffffff; stroke-linecap: round"/>
     </g>
     <g id="text_12">
      <!-- −0.5 -->
      <g style="fill: #262626" transform="translate(104.746794 338.752846) scale(0.231 -0.231)">
       <use xlink:href="#DejaVuSans-2212"/>
       <use xlink:href="#DejaVuSans-30" x="83.789062"/>
       <use xlink:href="#DejaVuSans-2e" x="147.412109"/>
       <use xlink:href="#DejaVuSans-35" x="179.199219"/>
      </g>
     </g>
    </g>
    <g id="ytick_8">
     <g id="line2d_42">
      <path d="M 170.340091 284.113664 
L 462.70916 284.113664 
" clip-path="url(#p525175a7f3)" style="fill: none; stroke: #ffffff; stroke-linecap: round"/>
     </g>
     <g id="text_13">
      <!-- 0.0 -->
      <g style="fill: #262626" transform="translate(124.103872 292.889859) scale(0.231 -0.231)">
       <use xlink:href="#DejaVuSans-30"/>
       <use xlink:href="#DejaVuSans-2e" x="63.623047"/>
       <use xlink:href="#DejaVuSans-30" x="95.410156"/>
      </g>
     </g>
    </g>
    <g id="text_14">
     <!-- % change -->
     <g style="fill: #262626" transform="translate(95.505982 375.839344) rotate(-90) scale(0.252 -0.252)">
      <use xlink:href="#DejaVuSans-25"/>
      <use xlink:href="#DejaVuSans-20" x="95.019531"/>
      <use xlink:href="#DejaVuSans-63" x="126.806641"/>
      <use xlink:href="#DejaVuSans-68" x="181.787109"/>
      <use xlink:href="#DejaVuSans-61" x="245.166016"/>
      <use xlink:href="#DejaVuSans-6e" x="306.445312"/>
      <use xlink:href="#DejaVuSans-67" x="369.824219"/>
      <use xlink:href="#DejaVuSans-65" x="433.300781"/>
     </g>
    </g>
   </g>
   <g id="PolyCollection_19"/>
   <g id="PolyCollection_20"/>
   <g id="PolyCollection_21"/>
   <g id="PolyCollection_22"/>
   <g id="PolyCollection_23"/>
   <g id="PolyCollection_24"/>
   <g id="line2d_43">
    <path d="M 183.629594 284.113664 
L 183.99419 357.960832 
L 184.358785 360.585561 
L 184.723381 361.288064 
L 185.087976 361.461752 
L 186.181762 361.442587 
L 189.098526 361.182834 
L 189.827716 352.842217 
L 190.921503 340.229352 
L 192.015289 329.799852 
L 193.109075 321.271357 
L 194.202861 314.29976 
L 195.296648 308.600593 
L 196.390434 303.941279 
L 197.48422 300.13192 
L 198.578007 297.017215 
L 199.671793 294.4703 
L 200.765579 292.391194 
L 201.859365 290.691945 
L 203.317747 288.897508 
L 204.776129 287.526263 
L 206.23451 286.482281 
L 207.692892 285.704592 
L 209.515869 285.001273 
L 211.703442 284.421873 
L 214.25561 284.021057 
L 217.536969 283.727868 
L 222.276709 283.529282 
L 233.214572 283.470983 
L 275.872236 283.575771 
L 290.456053 283.732779 
L 313.060969 283.870972 
L 365.198115 283.953516 
L 449.419657 283.965561 
L 449.419657 283.965561 
" clip-path="url(#p525175a7f3)" style="fill: none; stroke: #4c72b0; stroke-opacity: 0.9; stroke-width: 3; stroke-linecap: round"/>
   </g>
   <g id="line2d_44">
    <path d="M 183.629594 284.113664 
L 183.99419 324.390325 
L 184.358785 326.110741 
L 184.723381 326.706619 
L 185.087976 326.916541 
L 185.817167 327.000624 
L 189.098526 326.876603 
L 189.827716 322.591105 
L 191.286098 313.586556 
L 192.379884 308.119789 
L 193.473671 303.646832 
L 194.567457 299.990064 
L 195.661243 297.000621 
L 196.755029 294.556577 
L 197.848816 292.558222 
L 198.942602 290.924446 
L 200.400984 289.199971 
L 201.859365 287.88106 
L 203.317747 286.872955 
L 204.776129 286.102539 
L 206.599106 285.388624 
L 208.786678 284.803569 
L 211.338846 284.390567 
L 214.25561 284.125503 
L 218.99535 283.916647 
L 227.381045 283.798848 
L 268.944923 283.813546 
L 308.685824 283.960743 
L 381.604909 284.009234 
L 449.419657 284.01654 
L 449.419657 284.01654 
" clip-path="url(#p525175a7f3)" style="fill: none; stroke: #dd8452; stroke-opacity: 0.9; stroke-width: 3; stroke-linecap: round"/>
   </g>
   <g id="line2d_45">
    <path d="M 183.629594 284.113664 
L 183.99419 361.500161 
L 184.358785 365.721659 
L 184.723381 366.796604 
L 185.087976 367.085297 
L 185.817167 367.146067 
L 189.098526 366.853218 
L 192.015289 332.991589 
L 193.109075 323.850983 
L 194.202861 316.379536 
L 195.296648 310.271572 
L 196.390434 305.282603 
L 197.48422 301.204047 
L 198.578007 297.868759 
L 199.671793 295.141972 
L 200.765579 292.911987 
L 201.859365 291.088672 
L 202.953152 289.597628 
L 204.411533 288.024456 
L 205.869915 286.825923 
L 207.328297 285.915628 
L 209.151274 285.084488 
L 210.974251 284.518851 
L 213.161823 284.11567 
L 216.443182 283.756958 
L 221.182923 283.497812 
L 228.474831 283.36235 
L 243.423244 283.351605 
L 268.580328 283.552641 
L 305.404465 283.898778 
L 341.499412 283.982236 
L 449.419657 283.996481 
L 449.419657 283.996481 
" clip-path="url(#p525175a7f3)" style="fill: none; stroke: #55a868; stroke-opacity: 0.9; stroke-width: 3; stroke-linecap: round"/>
   </g>
   <g id="line2d_46">
    <path d="M 183.629594 284.113664 
L 183.99419 344.933037 
L 184.358785 348.317613 
L 184.723381 349.163037 
L 185.087976 349.384801 
L 185.817167 349.429551 
L 189.098526 349.199575 
L 190.192312 338.317772 
L 191.286098 328.293656 
L 192.379884 320.066006 
L 193.473671 313.337862 
L 194.567457 307.837301 
L 195.661243 303.339974 
L 196.755029 299.662766 
L 197.848816 296.656497 
L 198.942602 294.198455 
L 200.036388 292.188521 
L 201.130175 290.544877 
L 202.588556 288.809218 
L 204.046938 287.482761 
L 205.50532 286.47087 
L 206.963701 285.703334 
L 208.786678 285.001059 
L 210.974251 284.444363 
L 213.161823 284.134766 
L 216.807778 283.836601 
L 222.276709 283.630588 
L 232.120785 283.52943 
L 254.361106 283.562241 
L 340.405626 284.001068 
L 449.419657 284.014329 
L 449.419657 284.014329 
" clip-path="url(#p525175a7f3)" style="fill: none; stroke: #c44e52; stroke-opacity: 0.9; stroke-width: 3; stroke-linecap: round"/>
   </g>
   <g id="line2d_47">
    <path d="M 183.629594 284.113664 
L 183.99419 355.011757 
L 184.358785 358.147868 
L 184.723381 358.678165 
L 185.452571 358.763788 
L 189.098526 358.462924 
L 191.286098 334.047538 
L 192.379884 324.757733 
L 193.473671 317.164075 
L 194.567457 310.956879 
L 195.661243 305.882945 
L 196.755029 301.735101 
L 197.848816 298.344081 
L 198.942602 295.571687 
L 200.036388 293.304595 
L 201.130175 291.450829 
L 202.223961 289.934361 
L 203.682342 288.332238 
L 205.140724 287.105441 
L 206.599106 286.165342 
L 208.422083 285.295375 
L 210.24506 284.684722 
L 212.432633 284.18685 
L 215.349396 283.807818 
L 218.99535 283.562896 
L 225.558068 283.396856 
L 239.048098 283.329068 
L 262.01761 283.410475 
L 294.466603 283.555551 
L 412.59552 283.952904 
L 449.419657 283.960053 
L 449.419657 283.960053 
" clip-path="url(#p525175a7f3)" style="fill: none; stroke: #8172b3; stroke-opacity: 0.9; stroke-width: 3; stroke-linecap: round"/>
   </g>
   <g id="line2d_48">
    <path d="M 183.629594 284.113664 
L 183.99419 341.003212 
L 184.358785 343.145117 
L 184.723381 343.549572 
L 185.452571 343.614939 
L 189.098526 343.384299 
L 191.286098 323.914257 
L 192.379884 316.515545 
L 193.473671 310.468417 
L 194.567457 305.52559 
L 195.661243 301.485154 
L 196.755029 298.18224 
L 197.848816 295.482064 
L 198.942602 293.274407 
L 200.036388 291.469267 
L 201.130175 289.993065 
L 202.588556 288.434428 
L 204.046938 287.242152 
L 205.50532 286.329699 
L 207.328297 285.485007 
L 209.151274 284.880916 
L 211.338846 284.392608 
L 214.25561 283.99956 
L 217.901564 283.747276 
L 224.099686 283.576177 
L 236.131335 283.532104 
L 269.309519 283.648198 
L 388.896817 283.963981 
L 449.419657 283.980273 
L 449.419657 283.980273 
" clip-path="url(#p525175a7f3)" style="fill: none; stroke: #937860; stroke-opacity: 0.9; stroke-width: 3; stroke-linecap: round"/>
   </g>
   <g id="patch_12">
    <path d="M 170.340091 373.284 
L 170.340091 253.698 
" style="fill: none; stroke: #ffffff; stroke-width: 1.25; stroke-linejoin: miter; stroke-linecap: square"/>
   </g>
   <g id="patch_13">
    <path d="M 170.340091 373.284 
L 462.70916 373.284 
" style="fill: none; stroke: #ffffff; stroke-width: 1.25; stroke-linejoin: miter; stroke-linecap: square"/>
   </g>
   <g id="text_15">
    <!-- 0.8~365 -->
    <g style="fill: #262626" transform="translate(261.878032 247.698) scale(0.252 -0.252)">
     <use xlink:href="#DejaVuSans-30"/>
     <use xlink:href="#DejaVuSans-2e" x="63.623047"/>
     <use xlink:href="#DejaVuSans-38" x="95.410156"/>
     <use xlink:href="#DejaVuSans-7e" x="159.033203"/>
     <use xlink:href="#DejaVuSans-33" x="242.822266"/>
     <use xlink:href="#DejaVuSans-36" x="306.445312"/>
     <use xlink:href="#DejaVuSans-35" x="370.068359"/>
    </g>
   </g>
  </g>
  <g id="axes_5">
   <g id="patch_14">
    <path d="M 489.290298 373.284 
L 781.659367 373.284 
L 781.659367 253.698 
L 489.290298 253.698 
z
" style="fill: #eaeaf2"/>
   </g>
   <g id="matplotlib.axis_9">
    <g id="xtick_17">
     <g id="line2d_49">
      <path d="M 502.579801 373.284 
L 502.579801 253.698 
" clip-path="url(#p3785328b28)" style="fill: none; stroke: #ffffff; stroke-linecap: round"/>
     </g>
     <g id="text_16">
      <!-- 0 -->
      <g style="fill: #262626" transform="translate(495.231113 400.336391) scale(0.231 -0.231)">
       <use xlink:href="#DejaVuSans-30"/>
      </g>
     </g>
    </g>
    <g id="xtick_18">
     <g id="line2d_50">
      <path d="M 593.728656 373.284 
L 593.728656 253.698 
" clip-path="url(#p3785328b28)" style="fill: none; stroke: #ffffff; stroke-linecap: round"/>
     </g>
     <g id="text_17">
      <!-- 250 -->
      <g style="fill: #262626" transform="translate(571.682594 400.336391) scale(0.231 -0.231)">
       <use xlink:href="#DejaVuSans-32"/>
       <use xlink:href="#DejaVuSans-35" x="63.623047"/>
       <use xlink:href="#DejaVuSans-30" x="127.246094"/>
      </g>
     </g>
    </g>
    <g id="xtick_19">
     <g id="line2d_51">
      <path d="M 684.877512 373.284 
L 684.877512 253.698 
" clip-path="url(#p3785328b28)" style="fill: none; stroke: #ffffff; stroke-linecap: round"/>
     </g>
     <g id="text_18">
      <!-- 500 -->
      <g style="fill: #262626" transform="translate(662.83145 400.336391) scale(0.231 -0.231)">
       <use xlink:href="#DejaVuSans-35"/>
       <use xlink:href="#DejaVuSans-30" x="63.623047"/>
       <use xlink:href="#DejaVuSans-30" x="127.246094"/>
      </g>
     </g>
    </g>
    <g id="xtick_20">
     <g id="line2d_52">
      <path d="M 776.026368 373.284 
L 776.026368 253.698 
" clip-path="url(#p3785328b28)" style="fill: none; stroke: #ffffff; stroke-linecap: round"/>
     </g>
     <g id="text_19">
      <!-- 750 -->
      <g style="fill: #262626" transform="translate(753.980305 400.336391) scale(0.231 -0.231)">
       <use xlink:href="#DejaVuSans-37"/>
       <use xlink:href="#DejaVuSans-35" x="63.623047"/>
       <use xlink:href="#DejaVuSans-30" x="127.246094"/>
      </g>
     </g>
    </g>
    <g id="text_20">
     <!-- step -->
     <g style="fill: #262626" transform="translate(608.219457 428.288531) scale(0.252 -0.252)">
      <use xlink:href="#DejaVuSans-73"/>
      <use xlink:href="#DejaVuSans-74" x="52.099609"/>
      <use xlink:href="#DejaVuSans-65" x="91.308594"/>
      <use xlink:href="#DejaVuSans-70" x="152.832031"/>
     </g>
    </g>
   </g>
   <g id="matplotlib.axis_10">
    <g id="ytick_9">
     <g id="line2d_53">
      <path d="M 489.290298 329.976651 
L 781.659367 329.976651 
" clip-path="url(#p3785328b28)" style="fill: none; stroke: #ffffff; stroke-linecap: round"/>
     </g>
    </g>
    <g id="ytick_10">
     <g id="line2d_54">
      <path d="M 489.290298 284.113664 
L 781.659367 284.113664 
" clip-path="url(#p3785328b28)" style="fill: none; stroke: #ffffff; stroke-linecap: round"/>
     </g>
    </g>
   </g>
   <g id="PolyCollection_25"/>
   <g id="PolyCollection_26"/>
   <g id="PolyCollection_27"/>
   <g id="PolyCollection_28"/>
   <g id="PolyCollection_29"/>
   <g id="PolyCollection_30"/>
   <g id="line2d_55">
    <path d="M 502.579801 284.113664 
L 502.944396 357.960832 
L 503.308992 360.288226 
L 503.673587 360.647255 
L 504.038182 360.466774 
L 505.86116 358.914837 
L 508.048732 357.814016 
L 509.507114 342.023914 
L 510.236305 337.539961 
L 511.330091 334.377067 
L 511.694686 333.970589 
L 514.246854 332.600087 
L 514.61145 332.272147 
L 519.35119 330.678671 
L 522.267954 329.531606 
L 525.184717 328.132099 
L 528.10148 326.490955 
L 531.382839 324.386499 
L 535.028793 321.761721 
L 538.674748 318.850442 
L 542.685297 315.340314 
L 547.425038 310.870204 
L 554.352351 303.986587 
L 559.092091 299.347263 
L 560.185878 298.574089 
L 562.37345 297.470762 
L 565.654809 295.991596 
L 574.405099 292.617099 
L 584.249175 289.92235 
L 595.187038 287.27358 
L 601.749756 285.427203 
L 608.677069 283.231762 
L 615.604382 280.788617 
L 622.531695 278.108352 
L 630.188199 274.908222 
L 640.39687 270.370648 
L 657.532855 262.701169 
L 660.814214 261.602876 
L 662.637191 261.227943 
L 663.730978 261.173165 
L 666.283145 261.37619 
L 669.199909 261.631636 
L 671.387481 261.801382 
L 675.398031 262.183495 
L 681.231558 262.485765 
L 690.711039 262.736781 
L 706.753237 262.926199 
L 738.473039 263.029839 
L 768.369864 263.048583 
L 768.369864 263.048583 
" clip-path="url(#p3785328b28)" style="fill: none; stroke: #4c72b0; stroke-opacity: 0.9; stroke-width: 3; stroke-linecap: round"/>
   </g>
   <g id="line2d_56">
    <path d="M 502.579801 284.113664 
L 502.944396 324.390325 
L 503.308992 325.973031 
L 503.673587 326.408089 
L 504.038182 326.44971 
L 504.767373 326.193113 
L 507.684137 324.933309 
L 508.048732 324.830973 
L 508.777923 320.346705 
L 509.871709 313.231458 
L 510.6009 310.084726 
L 511.330091 308.43304 
L 512.059282 307.241992 
L 512.423877 306.860294 
L 514.61145 306.062503 
L 516.069831 305.27857 
L 525.913908 301.931637 
L 529.924457 300.236565 
L 534.299603 298.144989 
L 538.674748 295.797993 
L 543.049893 293.183492 
L 553.258564 286.675607 
L 559.821282 282.617683 
L 560.915068 282.0959 
L 562.37345 281.601287 
L 565.290213 280.920318 
L 570.394549 279.954551 
L 571.852931 279.819972 
L 577.686458 279.544951 
L 580.603221 279.598589 
L 615.239786 282.01417 
L 625.083863 282.600168 
L 632.011176 282.783442 
L 638.938489 282.737967 
L 645.865802 282.468148 
L 652.063924 282.005644 
L 657.16826 281.402749 
L 662.272596 280.575445 
L 667.741527 279.466258 
L 673.210458 278.132387 
L 678.67939 276.568366 
L 684.148321 274.77917 
L 689.981848 272.635267 
L 696.17997 270.12369 
L 705.659451 265.97772 
L 711.857573 263.366574 
L 721.337054 259.944434 
L 723.524627 259.292385 
L 724.618413 259.138938 
L 725.712199 259.187097 
L 726.44139 259.426909 
L 730.087344 261.123255 
L 731.545726 261.529633 
L 733.368703 261.700651 
L 738.473039 261.858435 
L 768.369864 262.342775 
L 768.369864 262.342775 
" clip-path="url(#p3785328b28)" style="fill: none; stroke: #dd8452; stroke-opacity: 0.9; stroke-width: 3; stroke-linecap: round"/>
   </g>
   <g id="line2d_57">
    <path d="M 502.579801 284.113664 
L 502.944396 361.500161 
L 503.308992 365.428841 
L 503.673587 366.164026 
L 504.038182 366.1024 
L 504.767373 365.462854 
L 506.225755 364.146343 
L 507.319541 363.49719 
L 508.048732 363.189157 
L 510.965495 328.619519 
L 512.059282 319.79305 
L 512.788473 315.836124 
L 513.517663 313.465064 
L 514.246854 311.917148 
L 514.976045 310.970728 
L 515.705236 310.241766 
L 516.069831 310.008612 
L 517.892809 309.646225 
L 518.986595 309.569923 
L 524.455526 309.347375 
L 527.372289 308.968136 
L 531.382839 308.204308 
L 536.487175 306.957323 
L 540.86232 305.611073 
L 546.331251 303.662782 
L 553.258564 300.913433 
L 564.561023 296.136798 
L 574.405099 292.042025 
L 578.780244 290.466936 
L 583.88458 288.861909 
L 590.811893 286.940231 
L 599.926779 284.658464 
L 605.39571 283.491787 
L 614.146 281.820302 
L 621.073313 280.788878 
L 627.636031 279.998716 
L 638.209298 278.944047 
L 645.501206 278.497634 
L 668.106123 277.355664 
L 690.346443 276.465684 
L 705.294856 276.071619 
L 727.899772 275.730256 
L 743.94197 275.656514 
L 768.369864 275.662683 
L 768.369864 275.662683 
" clip-path="url(#p3785328b28)" style="fill: none; stroke: #55a868; stroke-opacity: 0.9; stroke-width: 3; stroke-linecap: round"/>
   </g>
   <g id="line2d_58">
    <path d="M 502.579801 284.113664 
L 502.944396 344.933037 
L 503.308992 348.082325 
L 503.673587 348.653467 
L 504.038182 348.593064 
L 505.131969 347.796791 
L 506.954946 346.499088 
L 508.048732 345.896043 
L 510.965495 318.553361 
L 512.059282 311.56353 
L 512.788473 308.374934 
L 513.517663 306.513167 
L 514.246854 305.347178 
L 514.976045 304.627316 
L 515.705236 304.160297 
L 516.434427 303.912698 
L 518.257404 303.592982 
L 526.643099 302.833963 
L 532.476625 301.903292 
L 537.580961 300.885616 
L 545.966656 298.977775 
L 552.893969 297.161243 
L 560.185878 295.025039 
L 580.238626 289.020724 
L 586.072153 287.577465 
L 592.999466 286.134972 
L 601.020565 284.70499 
L 609.40626 283.484273 
L 618.521145 282.336527 
L 628.365222 281.328234 
L 636.750916 280.658832 
L 652.428519 279.691718 
L 663.730978 279.173654 
L 688.158871 278.335791 
L 708.211619 277.903821 
L 724.618413 277.697268 
L 759.254978 277.59575 
L 768.369864 277.59455 
L 768.369864 277.59455 
" clip-path="url(#p3785328b28)" style="fill: none; stroke: #c44e52; stroke-opacity: 0.9; stroke-width: 3; stroke-linecap: round"/>
   </g>
   <g id="line2d_59">
    <path d="M 502.579801 284.113664 
L 502.944396 355.011757 
L 503.308992 357.830619 
L 503.673587 358.022442 
L 504.402778 357.428369 
L 505.496564 356.433193 
L 508.048732 355.010866 
L 509.507114 338.518617 
L 510.236305 332.34171 
L 510.965495 328.851508 
L 511.330091 327.692393 
L 511.694686 327.068822 
L 512.423877 326.690973 
L 513.882259 325.936778 
L 514.61145 325.411661 
L 518.257404 323.724103 
L 522.632549 321.371512 
L 526.643099 318.965236 
L 531.018244 316.060779 
L 539.039343 310.694085 
L 541.226916 309.465768 
L 546.331251 306.863024 
L 553.62316 303.015068 
L 557.998305 300.389526 
L 562.008855 297.935397 
L 563.102641 297.571638 
L 564.561023 297.294082 
L 565.654809 297.220522 
L 568.571572 297.403268 
L 571.852931 297.987237 
L 578.415649 299.056107 
L 584.978366 299.873131 
L 588.988916 300.137187 
L 592.63487 300.162272 
L 596.280824 299.956248 
L 599.926779 299.526677 
L 605.031114 298.672378 
L 609.40626 297.750889 
L 621.802504 294.931206 
L 626.177649 294.031061 
L 630.917389 292.818619 
L 636.750916 291.134191 
L 641.490657 289.51172 
L 646.230397 287.655804 
L 651.699329 285.278467 
L 662.637191 280.188359 
L 669.564504 276.990891 
L 675.033436 274.956161 
L 679.773176 273.110916 
L 685.242107 270.968412 
L 687.794275 270.282546 
L 692.534016 269.21873 
L 694.721588 268.929589 
L 697.638352 268.905244 
L 700.555115 268.965852 
L 702.378092 269.252766 
L 706.388642 269.889656 
L 710.034596 270.296469 
L 719.514077 270.94031 
L 729.722749 271.363267 
L 746.129543 271.828193 
L 751.233879 272.023839 
L 757.067406 272.470907 
L 764.72391 273.285543 
L 768.369864 273.881987 
L 768.369864 273.881987 
" clip-path="url(#p3785328b28)" style="fill: none; stroke: #8172b3; stroke-opacity: 0.9; stroke-width: 3; stroke-linecap: round"/>
   </g>
   <g id="line2d_60">
    <path d="M 502.579801 284.113664 
L 502.944396 341.003212 
L 503.308992 342.901765 
L 503.673587 343.047292 
L 504.402778 342.592842 
L 506.59035 341.037834 
L 508.048732 340.400564 
L 509.142518 330.351511 
L 509.871709 324.945166 
L 510.6009 320.776052 
L 511.330091 318.572112 
L 511.694686 317.895494 
L 512.059282 317.621529 
L 513.882259 317.15618 
L 515.705236 316.198604 
L 519.715786 314.430122 
L 523.36174 312.593803 
L 527.007694 310.508715 
L 531.382839 307.737756 
L 537.216366 303.760176 
L 541.591511 300.809169 
L 545.237465 298.837236 
L 556.175328 293.440604 
L 558.3629 292.84049 
L 560.915068 292.457619 
L 567.842381 291.676807 
L 572.217526 290.907396 
L 578.780244 289.457783 
L 584.613771 288.289283 
L 600.291374 285.647704 
L 605.031114 284.523057 
L 609.40626 283.262504 
L 614.510595 281.524422 
L 621.073313 279.036868 
L 629.823603 275.458277 
L 640.761466 270.972046 
L 643.678229 270.041507 
L 645.865802 269.58283 
L 646.959588 269.54534 
L 648.053374 269.78569 
L 649.511756 270.475867 
L 651.334733 271.293484 
L 652.793115 271.726774 
L 654.616092 271.998276 
L 658.991237 272.364197 
L 666.647741 272.732935 
L 677.221008 273.015544 
L 693.263207 273.196746 
L 728.628963 273.311814 
L 768.369864 273.362261 
L 768.369864 273.362261 
" clip-path="url(#p3785328b28)" style="fill: none; stroke: #937860; stroke-opacity: 0.9; stroke-width: 3; stroke-linecap: round"/>
   </g>
   <g id="patch_15">
    <path d="M 489.290298 373.284 
L 489.290298 253.698 
" style="fill: none; stroke: #ffffff; stroke-width: 1.25; stroke-linejoin: miter; stroke-linecap: square"/>
   </g>
   <g id="patch_16">
    <path d="M 489.290298 373.284 
L 781.659367 373.284 
" style="fill: none; stroke: #ffffff; stroke-width: 1.25; stroke-linejoin: miter; stroke-linecap: square"/>
   </g>
   <g id="text_21">
    <!-- 0.999~30 -->
    <g style="fill: #262626" transform="translate(572.811489 247.698) scale(0.252 -0.252)">
     <defs>
      <path id="DejaVuSans-39" d="M 703 97 
L 703 672 
Q 941 559 1184 500 
Q 1428 441 1663 441 
Q 2288 441 2617 861 
Q 2947 1281 2994 2138 
Q 2813 1869 2534 1725 
Q 2256 1581 1919 1581 
Q 1219 1581 811 2004 
Q 403 2428 403 3163 
Q 403 3881 828 4315 
Q 1253 4750 1959 4750 
Q 2769 4750 3195 4129 
Q 3622 3509 3622 2328 
Q 3622 1225 3098 567 
Q 2575 -91 1691 -91 
Q 1453 -91 1209 -44 
Q 966 3 703 97 
z
M 1959 2075 
Q 2384 2075 2632 2365 
Q 2881 2656 2881 3163 
Q 2881 3666 2632 3958 
Q 2384 4250 1959 4250 
Q 1534 4250 1286 3958 
Q 1038 3666 1038 3163 
Q 1038 2656 1286 2365 
Q 1534 2075 1959 2075 
z
" transform="scale(0.015625)"/>
     </defs>
     <use xlink:href="#DejaVuSans-30"/>
     <use xlink:href="#DejaVuSans-2e" x="63.623047"/>
     <use xlink:href="#DejaVuSans-39" x="95.410156"/>
     <use xlink:href="#DejaVuSans-39" x="159.033203"/>
     <use xlink:href="#DejaVuSans-39" x="222.65625"/>
     <use xlink:href="#DejaVuSans-7e" x="286.279297"/>
     <use xlink:href="#DejaVuSans-33" x="370.068359"/>
     <use xlink:href="#DejaVuSans-30" x="433.691406"/>
    </g>
   </g>
  </g>
  <g id="axes_6">
   <g id="patch_17">
    <path d="M 808.240504 373.284 
L 1100.609573 373.284 
L 1100.609573 253.698 
L 808.240504 253.698 
z
" style="fill: #eaeaf2"/>
   </g>
   <g id="matplotlib.axis_11">
    <g id="xtick_21">
     <g id="line2d_61">
      <path d="M 821.530007 373.284 
L 821.530007 253.698 
" clip-path="url(#peb172ad289)" style="fill: none; stroke: #ffffff; stroke-linecap: round"/>
     </g>
     <g id="text_22">
      <!-- 0 -->
      <g style="fill: #262626" transform="translate(814.18132 400.336391) scale(0.231 -0.231)">
       <use xlink:href="#DejaVuSans-30"/>
      </g>
     </g>
    </g>
    <g id="xtick_22">
     <g id="line2d_62">
      <path d="M 912.678863 373.284 
L 912.678863 253.698 
" clip-path="url(#peb172ad289)" style="fill: none; stroke: #ffffff; stroke-linecap: round"/>
     </g>
     <g id="text_23">
      <!-- 250 -->
      <g style="fill: #262626" transform="translate(890.6328 400.336391) scale(0.231 -0.231)">
       <use xlink:href="#DejaVuSans-32"/>
       <use xlink:href="#DejaVuSans-35" x="63.623047"/>
       <use xlink:href="#DejaVuSans-30" x="127.246094"/>
      </g>
     </g>
    </g>
    <g id="xtick_23">
     <g id="line2d_63">
      <path d="M 1003.827719 373.284 
L 1003.827719 253.698 
" clip-path="url(#peb172ad289)" style="fill: none; stroke: #ffffff; stroke-linecap: round"/>
     </g>
     <g id="text_24">
      <!-- 500 -->
      <g style="fill: #262626" transform="translate(981.781656 400.336391) scale(0.231 -0.231)">
       <use xlink:href="#DejaVuSans-35"/>
       <use xlink:href="#DejaVuSans-30" x="63.623047"/>
       <use xlink:href="#DejaVuSans-30" x="127.246094"/>
      </g>
     </g>
    </g>
    <g id="xtick_24">
     <g id="line2d_64">
      <path d="M 1094.976574 373.284 
L 1094.976574 253.698 
" clip-path="url(#peb172ad289)" style="fill: none; stroke: #ffffff; stroke-linecap: round"/>
     </g>
     <g id="text_25">
      <!-- 750 -->
      <g style="fill: #262626" transform="translate(1072.930512 400.336391) scale(0.231 -0.231)">
       <use xlink:href="#DejaVuSans-37"/>
       <use xlink:href="#DejaVuSans-35" x="63.623047"/>
       <use xlink:href="#DejaVuSans-30" x="127.246094"/>
      </g>
     </g>
    </g>
    <g id="text_26">
     <!-- step -->
     <g style="fill: #262626" transform="translate(927.169664 428.288531) scale(0.252 -0.252)">
      <use xlink:href="#DejaVuSans-73"/>
      <use xlink:href="#DejaVuSans-74" x="52.099609"/>
      <use xlink:href="#DejaVuSans-65" x="91.308594"/>
      <use xlink:href="#DejaVuSans-70" x="152.832031"/>
     </g>
    </g>
   </g>
   <g id="matplotlib.axis_12">
    <g id="ytick_11">
     <g id="line2d_65">
      <path d="M 808.240504 329.976651 
L 1100.609573 329.976651 
" clip-path="url(#peb172ad289)" style="fill: none; stroke: #ffffff; stroke-linecap: round"/>
     </g>
    </g>
    <g id="ytick_12">
     <g id="line2d_66">
      <path d="M 808.240504 284.113664 
L 1100.609573 284.113664 
" clip-path="url(#peb172ad289)" style="fill: none; stroke: #ffffff; stroke-linecap: round"/>
     </g>
    </g>
   </g>
   <g id="PolyCollection_31"/>
   <g id="PolyCollection_32"/>
   <g id="PolyCollection_33"/>
   <g id="PolyCollection_34"/>
   <g id="PolyCollection_35"/>
   <g id="PolyCollection_36"/>
   <g id="line2d_67">
    <path d="M 821.530007 284.113664 
L 821.894603 357.960832 
L 822.259198 360.585561 
L 822.623794 361.288064 
L 822.988389 361.461752 
L 824.811366 361.684642 
L 826.998939 362.677571 
L 827.728129 354.924075 
L 828.092725 351.008677 
L 828.821916 346.124094 
L 829.551107 342.773386 
L 830.280297 341.597308 
L 830.644893 341.223042 
L 831.738679 341.434873 
L 834.290847 341.471538 
L 836.113824 340.900265 
L 845.22871 338.936586 
L 848.145473 337.980742 
L 851.062237 336.780338 
L 853.979 335.340161 
L 857.260359 333.454596 
L 860.541717 331.317628 
L 864.187672 328.684526 
L 868.198221 325.507162 
L 873.302557 321.150574 
L 891.167733 305.556774 
L 892.99071 304.35578 
L 894.813687 303.353464 
L 898.095046 302.053534 
L 906.845336 298.978953 
L 914.866435 296.394638 
L 921.793748 294.693868 
L 929.450252 293.05523 
L 936.742161 291.730375 
L 953.878146 289.112406 
L 984.504161 284.691683 
L 992.160665 283.860379 
L 1010.755032 282.466622 
L 1021.328299 281.975812 
L 1025.703444 281.987749 
L 1047.943765 282.384089 
L 1069.81949 282.49571 
L 1087.32007 282.525783 
L 1087.32007 282.525783 
" clip-path="url(#peb172ad289)" style="fill: none; stroke: #4c72b0; stroke-opacity: 0.9; stroke-width: 3; stroke-linecap: round"/>
   </g>
   <g id="line2d_68">
    <path d="M 821.530007 284.113664 
L 821.894603 324.390325 
L 822.259198 326.110741 
L 822.623794 326.706619 
L 822.988389 326.916541 
L 823.71758 327.000624 
L 826.269748 327.024886 
L 826.998939 327.151163 
L 827.728129 323.030136 
L 828.821916 316.34463 
L 829.551107 313.62747 
L 830.280297 311.921441 
L 831.009488 311.19364 
L 831.374084 310.941755 
L 833.197061 310.907517 
L 835.020038 310.718301 
L 836.47842 310.219564 
L 837.572206 309.849248 
L 850.333046 306.393567 
L 854.343595 304.954323 
L 858.71874 303.15026 
L 863.823076 300.791617 
L 869.656603 297.829292 
L 887.886374 288.31196 
L 892.99071 285.919183 
L 895.178283 285.165099 
L 897.00126 284.897388 
L 906.116145 284.006553 
L 914.137245 283.504583 
L 965.180604 283.13658 
L 1087.32007 283.44977 
L 1087.32007 283.44977 
" clip-path="url(#peb172ad289)" style="fill: none; stroke: #dd8452; stroke-opacity: 0.9; stroke-width: 3; stroke-linecap: round"/>
   </g>
   <g id="line2d_69">
    <path d="M 821.530007 284.113664 
L 821.894603 361.500161 
L 822.259198 365.721659 
L 822.623794 366.796604 
L 822.988389 367.085297 
L 823.71758 367.146067 
L 824.811366 367.13404 
L 825.905152 367.378426 
L 826.998939 367.848273 
L 829.915702 335.760881 
L 831.009488 327.484624 
L 831.738679 323.434499 
L 832.46787 320.581562 
L 833.197061 318.783403 
L 834.290847 317.169479 
L 835.020038 316.426061 
L 836.113824 315.656961 
L 837.572206 315.077979 
L 838.665992 314.965829 
L 844.499519 314.546596 
L 848.145473 314.083183 
L 851.791427 313.404557 
L 855.801977 312.413384 
L 860.541717 311.023209 
L 865.646053 309.27755 
L 871.47958 307.032734 
L 880.22987 303.402984 
L 895.907473 296.883494 
L 903.928573 293.804555 
L 910.49129 291.501226 
L 915.595626 289.930869 
L 920.335367 288.708892 
L 925.804298 287.538524 
L 931.637825 286.518025 
L 938.200542 285.620565 
L 946.586237 284.773929 
L 953.878146 284.250738 
L 961.170054 283.907236 
L 974.660085 283.569548 
L 990.702283 283.383886 
L 1013.671795 283.409381 
L 1070.548681 283.471796 
L 1087.32007 283.473802 
L 1087.32007 283.473802 
" clip-path="url(#peb172ad289)" style="fill: none; stroke: #55a868; stroke-opacity: 0.9; stroke-width: 3; stroke-linecap: round"/>
   </g>
   <g id="line2d_70">
    <path d="M 821.530007 284.113664 
L 821.894603 344.933037 
L 822.259198 348.317613 
L 822.623794 349.163037 
L 822.988389 349.385425 
L 824.082175 349.435119 
L 825.905152 349.503468 
L 826.998939 349.679304 
L 828.092725 339.182415 
L 829.186511 329.590476 
L 830.280297 321.858621 
L 831.374084 315.958211 
L 832.103275 313.198637 
L 832.832465 311.387684 
L 833.561656 310.322904 
L 834.290847 309.574622 
L 835.020038 309.056726 
L 836.843015 308.333272 
L 838.301397 308.051924 
L 846.687091 307.030521 
L 853.979 305.755175 
L 859.083336 304.630924 
L 865.281458 303.020639 
L 873.302557 300.675806 
L 884.605015 297.094195 
L 895.907473 293.591907 
L 905.386954 290.865464 
L 913.043458 288.888353 
L 918.51239 287.673332 
L 923.616726 286.743975 
L 929.814848 285.859749 
L 936.377565 285.165853 
L 944.398665 284.552429 
L 955.701123 283.977192 
L 968.097367 283.561029 
L 978.306039 283.420471 
L 990.337688 283.445496 
L 1007.109077 283.598748 
L 1087.32007 283.609948 
L 1087.32007 283.609948 
" clip-path="url(#peb172ad289)" style="fill: none; stroke: #c44e52; stroke-opacity: 0.9; stroke-width: 3; stroke-linecap: round"/>
   </g>
   <g id="line2d_71">
    <path d="M 821.530007 284.113664 
L 821.894603 355.011757 
L 822.259198 358.147868 
L 822.623794 358.678165 
L 823.352984 358.763788 
L 824.446771 358.785394 
L 826.998939 359.692601 
L 828.45732 344.538321 
L 829.186511 338.91001 
L 829.551107 336.575283 
L 829.915702 335.103887 
L 830.644893 333.46633 
L 831.009488 333.356584 
L 832.103275 333.559304 
L 833.926252 333.629889 
L 837.20761 332.703363 
L 841.582756 330.913317 
L 845.22871 329.19607 
L 850.697641 326.318251 
L 854.708191 323.890757 
L 859.447931 320.721595 
L 868.927412 314.272062 
L 871.844176 312.602339 
L 875.125534 310.961246 
L 878.771489 309.315882 
L 886.063397 306.456329 
L 892.261519 304.171613 
L 895.542878 303.26111 
L 898.459641 302.752308 
L 901.376405 302.496724 
L 903.563977 302.462883 
L 923.981321 302.692668 
L 935.648375 302.564113 
L 947.680023 302.183326 
L 960.805459 301.55299 
L 975.389276 300.629212 
L 988.150115 299.584299 
L 1001.275551 298.284363 
L 1015.130177 296.69065 
L 1031.536971 294.567691 
L 1048.30836 292.146341 
L 1066.902727 289.234118 
L 1083.309521 286.455872 
L 1087.32007 285.760247 
L 1087.32007 285.760247 
" clip-path="url(#peb172ad289)" style="fill: none; stroke: #8172b3; stroke-opacity: 0.9; stroke-width: 3; stroke-linecap: round"/>
   </g>
   <g id="line2d_72">
    <path d="M 821.530007 284.113664 
L 821.894603 341.003212 
L 822.259198 343.145117 
L 822.623794 343.549572 
L 823.352984 343.614939 
L 825.540557 343.597926 
L 826.998939 343.972387 
L 828.45732 332.070802 
L 829.551107 325.881554 
L 829.915702 324.626865 
L 830.644893 323.16425 
L 831.009488 322.957152 
L 832.103275 323.196499 
L 833.926252 323.468119 
L 835.749229 323.129606 
L 839.395183 321.830609 
L 844.499519 319.826687 
L 848.145473 318.143089 
L 852.520618 315.846736 
L 856.531168 313.494661 
L 860.906313 310.660221 
L 866.73984 306.578965 
L 871.47958 303.282942 
L 874.031748 301.769539 
L 877.677702 300.003871 
L 881.688252 298.390854 
L 884.605015 297.532622 
L 887.886374 296.861619 
L 891.896924 296.364376 
L 896.272069 296.059791 
L 903.563977 295.607957 
L 914.866435 294.687859 
L 927.26268 293.439408 
L 942.940283 291.623459 
L 961.53465 289.237301 
L 973.566298 287.769338 
L 1024.974253 282.036936 
L 1027.526421 282.084603 
L 1041.745642 282.686312 
L 1063.621368 283.018237 
L 1085.497093 283.129649 
L 1087.32007 283.134164 
L 1087.32007 283.134164 
" clip-path="url(#peb172ad289)" style="fill: none; stroke: #937860; stroke-opacity: 0.9; stroke-width: 3; stroke-linecap: round"/>
   </g>
   <g id="patch_18">
    <path d="M 808.240504 373.284 
L 808.240504 253.698 
" style="fill: none; stroke: #ffffff; stroke-width: 1.25; stroke-linejoin: miter; stroke-linecap: square"/>
   </g>
   <g id="patch_19">
    <path d="M 808.240504 373.284 
L 1100.609573 373.284 
" style="fill: none; stroke: #ffffff; stroke-width: 1.25; stroke-linejoin: miter; stroke-linecap: square"/>
   </g>
   <g id="text_27">
    <!-- 0.999~365 -->
    <g style="fill: #262626" transform="translate(883.744945 247.698) scale(0.252 -0.252)">
     <use xlink:href="#DejaVuSans-30"/>
     <use xlink:href="#DejaVuSans-2e" x="63.623047"/>
     <use xlink:href="#DejaVuSans-39" x="95.410156"/>
     <use xlink:href="#DejaVuSans-39" x="159.033203"/>
     <use xlink:href="#DejaVuSans-39" x="222.65625"/>
     <use xlink:href="#DejaVuSans-7e" x="286.279297"/>
     <use xlink:href="#DejaVuSans-33" x="370.068359"/>
     <use xlink:href="#DejaVuSans-36" x="433.691406"/>
     <use xlink:href="#DejaVuSans-35" x="497.314453"/>
    </g>
   </g>
  </g>
  <g id="text_28">
   <!-- Production change from pre-shock level -->
   <g style="fill: #262626" transform="translate(280.766836 30.177675) scale(0.3024 -0.3024)">
    <defs>
     <path id="DejaVuSans-50" d="M 1259 4147 
L 1259 2394 
L 2053 2394 
Q 2494 2394 2734 2622 
Q 2975 2850 2975 3272 
Q 2975 3691 2734 3919 
Q 2494 4147 2053 4147 
L 1259 4147 
z
M 628 4666 
L 2053 4666 
Q 2838 4666 3239 4311 
Q 3641 3956 3641 3272 
Q 3641 2581 3239 2228 
Q 2838 1875 2053 1875 
L 1259 1875 
L 1259 0 
L 628 0 
L 628 4666 
z
" transform="scale(0.015625)"/>
     <path id="DejaVuSans-72" d="M 2631 2963 
Q 2534 3019 2420 3045 
Q 2306 3072 2169 3072 
Q 1681 3072 1420 2755 
Q 1159 2438 1159 1844 
L 1159 0 
L 581 0 
L 581 3500 
L 1159 3500 
L 1159 2956 
Q 1341 3275 1631 3429 
Q 1922 3584 2338 3584 
Q 2397 3584 2469 3576 
Q 2541 3569 2628 3553 
L 2631 2963 
z
" transform="scale(0.015625)"/>
     <path id="DejaVuSans-6f" d="M 1959 3097 
Q 1497 3097 1228 2736 
Q 959 2375 959 1747 
Q 959 1119 1226 758 
Q 1494 397 1959 397 
Q 2419 397 2687 759 
Q 2956 1122 2956 1747 
Q 2956 2369 2687 2733 
Q 2419 3097 1959 3097 
z
M 1959 3584 
Q 2709 3584 3137 3096 
Q 3566 2609 3566 1747 
Q 3566 888 3137 398 
Q 2709 -91 1959 -91 
Q 1206 -91 779 398 
Q 353 888 353 1747 
Q 353 2609 779 3096 
Q 1206 3584 1959 3584 
z
" transform="scale(0.015625)"/>
     <path id="DejaVuSans-64" d="M 2906 2969 
L 2906 4863 
L 3481 4863 
L 3481 0 
L 2906 0 
L 2906 525 
Q 2725 213 2448 61 
Q 2172 -91 1784 -91 
Q 1150 -91 751 415 
Q 353 922 353 1747 
Q 353 2572 751 3078 
Q 1150 3584 1784 3584 
Q 2172 3584 2448 3432 
Q 2725 3281 2906 2969 
z
M 947 1747 
Q 947 1113 1208 752 
Q 1469 391 1925 391 
Q 2381 391 2643 752 
Q 2906 1113 2906 1747 
Q 2906 2381 2643 2742 
Q 2381 3103 1925 3103 
Q 1469 3103 1208 2742 
Q 947 2381 947 1747 
z
" transform="scale(0.015625)"/>
     <path id="DejaVuSans-75" d="M 544 1381 
L 544 3500 
L 1119 3500 
L 1119 1403 
Q 1119 906 1312 657 
Q 1506 409 1894 409 
Q 2359 409 2629 706 
Q 2900 1003 2900 1516 
L 2900 3500 
L 3475 3500 
L 3475 0 
L 2900 0 
L 2900 538 
Q 2691 219 2414 64 
Q 2138 -91 1772 -91 
Q 1169 -91 856 284 
Q 544 659 544 1381 
z
M 1991 3584 
L 1991 3584 
z
" transform="scale(0.015625)"/>
     <path id="DejaVuSans-69" d="M 603 3500 
L 1178 3500 
L 1178 0 
L 603 0 
L 603 3500 
z
M 603 4863 
L 1178 4863 
L 1178 4134 
L 603 4134 
L 603 4863 
z
" transform="scale(0.015625)"/>
     <path id="DejaVuSans-66" d="M 2375 4863 
L 2375 4384 
L 1825 4384 
Q 1516 4384 1395 4259 
Q 1275 4134 1275 3809 
L 1275 3500 
L 2222 3500 
L 2222 3053 
L 1275 3053 
L 1275 0 
L 697 0 
L 697 3053 
L 147 3053 
L 147 3500 
L 697 3500 
L 697 3744 
Q 697 4328 969 4595 
Q 1241 4863 1831 4863 
L 2375 4863 
z
" transform="scale(0.015625)"/>
     <path id="DejaVuSans-6d" d="M 3328 2828 
Q 3544 3216 3844 3400 
Q 4144 3584 4550 3584 
Q 5097 3584 5394 3201 
Q 5691 2819 5691 2113 
L 5691 0 
L 5113 0 
L 5113 2094 
Q 5113 2597 4934 2840 
Q 4756 3084 4391 3084 
Q 3944 3084 3684 2787 
Q 3425 2491 3425 1978 
L 3425 0 
L 2847 0 
L 2847 2094 
Q 2847 2600 2669 2842 
Q 2491 3084 2119 3084 
Q 1678 3084 1418 2786 
Q 1159 2488 1159 1978 
L 1159 0 
L 581 0 
L 581 3500 
L 1159 3500 
L 1159 2956 
Q 1356 3278 1631 3431 
Q 1906 3584 2284 3584 
Q 2666 3584 2933 3390 
Q 3200 3197 3328 2828 
z
" transform="scale(0.015625)"/>
     <path id="DejaVuSans-2d" d="M 313 2009 
L 1997 2009 
L 1997 1497 
L 313 1497 
L 313 2009 
z
" transform="scale(0.015625)"/>
     <path id="DejaVuSans-6b" d="M 581 4863 
L 1159 4863 
L 1159 1991 
L 2875 3500 
L 3609 3500 
L 1753 1863 
L 3688 0 
L 2938 0 
L 1159 1709 
L 1159 0 
L 581 0 
L 581 4863 
z
" transform="scale(0.015625)"/>
     <path id="DejaVuSans-6c" d="M 603 4863 
L 1178 4863 
L 1178 0 
L 603 0 
L 603 4863 
z
" transform="scale(0.015625)"/>
     <path id="DejaVuSans-76" d="M 191 3500 
L 800 3500 
L 1894 563 
L 2988 3500 
L 3597 3500 
L 2284 0 
L 1503 0 
L 191 3500 
z
" transform="scale(0.015625)"/>
    </defs>
    <use xlink:href="#DejaVuSans-50"/>
    <use xlink:href="#DejaVuSans-72" x="58.552734"/>
    <use xlink:href="#DejaVuSans-6f" x="97.416016"/>
    <use xlink:href="#DejaVuSans-64" x="158.597656"/>
    <use xlink:href="#DejaVuSans-75" x="222.074219"/>
    <use xlink:href="#DejaVuSans-63" x="285.453125"/>
    <use xlink:href="#DejaVuSans-74" x="340.433594"/>
    <use xlink:href="#DejaVuSans-69" x="379.642578"/>
    <use xlink:href="#DejaVuSans-6f" x="407.425781"/>
    <use xlink:href="#DejaVuSans-6e" x="468.607422"/>
    <use xlink:href="#DejaVuSans-20" x="531.986328"/>
    <use xlink:href="#DejaVuSans-63" x="563.773438"/>
    <use xlink:href="#DejaVuSans-68" x="618.753906"/>
    <use xlink:href="#DejaVuSans-61" x="682.132812"/>
    <use xlink:href="#DejaVuSans-6e" x="743.412109"/>
    <use xlink:href="#DejaVuSans-67" x="806.791016"/>
    <use xlink:href="#DejaVuSans-65" x="870.267578"/>
    <use xlink:href="#DejaVuSans-20" x="931.791016"/>
    <use xlink:href="#DejaVuSans-66" x="963.578125"/>
    <use xlink:href="#DejaVuSans-72" x="998.783203"/>
    <use xlink:href="#DejaVuSans-6f" x="1037.646484"/>
    <use xlink:href="#DejaVuSans-6d" x="1098.828125"/>
    <use xlink:href="#DejaVuSans-20" x="1196.240234"/>
    <use xlink:href="#DejaVuSans-70" x="1228.027344"/>
    <use xlink:href="#DejaVuSans-72" x="1291.503906"/>
    <use xlink:href="#DejaVuSans-65" x="1330.367188"/>
    <use xlink:href="#DejaVuSans-2d" x="1391.890625"/>
    <use xlink:href="#DejaVuSans-73" x="1427.974609"/>
    <use xlink:href="#DejaVuSans-68" x="1480.074219"/>
    <use xlink:href="#DejaVuSans-6f" x="1543.453125"/>
    <use xlink:href="#DejaVuSans-63" x="1604.634766"/>
    <use xlink:href="#DejaVuSans-6b" x="1659.615234"/>
    <use xlink:href="#DejaVuSans-20" x="1717.525391"/>
    <use xlink:href="#DejaVuSans-6c" x="1749.3125"/>
    <use xlink:href="#DejaVuSans-65" x="1777.095703"/>
    <use xlink:href="#DejaVuSans-76" x="1838.619141"/>
    <use xlink:href="#DejaVuSans-65" x="1897.798828"/>
    <use xlink:href="#DejaVuSans-6c" x="1959.322266"/>
   </g>
  </g>
  <g id="legend_1">
   <g id="patch_20">
    <path d="M 11.82 584.31675 
L 1292.617547 584.31675 
Q 1297.237547 584.31675 1297.237547 579.69675 
L 1297.237547 476.97 
Q 1297.237547 472.35 1292.617547 472.35 
L 11.82 472.35 
Q 7.2 472.35 7.2 476.97 
L 7.2 579.69675 
Q 7.2 584.31675 11.82 584.31675 
z
" style="fill: #eaeaf2; opacity: 0.8; stroke: #cccccc; stroke-linejoin: miter"/>
   </g>
   <g id="text_29">
    <!-- Experiences -->
    <g style="fill: #262626" transform="translate(575.384367 500.738062) scale(0.252 -0.252)">
     <defs>
      <path id="DejaVuSans-45" d="M 628 4666 
L 3578 4666 
L 3578 4134 
L 1259 4134 
L 1259 2753 
L 3481 2753 
L 3481 2222 
L 1259 2222 
L 1259 531 
L 3634 531 
L 3634 0 
L 628 0 
L 628 4666 
z
" transform="scale(0.015625)"/>
      <path id="DejaVuSans-78" d="M 3513 3500 
L 2247 1797 
L 3578 0 
L 2900 0 
L 1881 1375 
L 863 0 
L 184 0 
L 1544 1831 
L 300 3500 
L 978 3500 
L 1906 2253 
L 2834 3500 
L 3513 3500 
z
" transform="scale(0.015625)"/>
     </defs>
     <use xlink:href="#DejaVuSans-45"/>
     <use xlink:href="#DejaVuSans-78" x="63.183594"/>
     <use xlink:href="#DejaVuSans-70" x="122.363281"/>
     <use xlink:href="#DejaVuSans-65" x="185.839844"/>
     <use xlink:href="#DejaVuSans-72" x="247.363281"/>
     <use xlink:href="#DejaVuSans-69" x="288.476562"/>
     <use xlink:href="#DejaVuSans-65" x="316.259766"/>
     <use xlink:href="#DejaVuSans-6e" x="377.783203"/>
     <use xlink:href="#DejaVuSans-63" x="441.162109"/>
     <use xlink:href="#DejaVuSans-65" x="496.142578"/>
     <use xlink:href="#DejaVuSans-73" x="557.666016"/>
    </g>
   </g>
   <g id="line2d_73">
    <path d="M 16.44 526.996266 
L 39.54 526.996266 
L 62.64 526.996266 
" style="fill: none; stroke: #4c72b0; stroke-opacity: 0.9; stroke-width: 3; stroke-linecap: round"/>
   </g>
   <g id="text_30">
    <!-- eora26_full_2000 -->
    <g style="fill: #262626" transform="translate(81.12 535.081266) scale(0.231 -0.231)">
     <defs>
      <path id="DejaVuSans-5f" d="M 3263 -1063 
L 3263 -1509 
L -63 -1509 
L -63 -1063 
L 3263 -1063 
z
" transform="scale(0.015625)"/>
     </defs>
     <use xlink:href="#DejaVuSans-65"/>
     <use xlink:href="#DejaVuSans-6f" x="61.523438"/>
     <use xlink:href="#DejaVuSans-72" x="122.705078"/>
     <use xlink:href="#DejaVuSans-61" x="163.818359"/>
     <use xlink:href="#DejaVuSans-32" x="225.097656"/>
     <use xlink:href="#DejaVuSans-36" x="288.720703"/>
     <use xlink:href="#DejaVuSans-5f" x="352.34375"/>
     <use xlink:href="#DejaVuSans-66" x="402.34375"/>
     <use xlink:href="#DejaVuSans-75" x="437.548828"/>
     <use xlink:href="#DejaVuSans-6c" x="500.927734"/>
     <use xlink:href="#DejaVuSans-6c" x="528.710938"/>
     <use xlink:href="#DejaVuSans-5f" x="556.494141"/>
     <use xlink:href="#DejaVuSans-32" x="606.494141"/>
     <use xlink:href="#DejaVuSans-30" x="670.117188"/>
     <use xlink:href="#DejaVuSans-30" x="733.740234"/>
     <use xlink:href="#DejaVuSans-30" x="797.363281"/>
    </g>
   </g>
   <g id="line2d_74">
    <path d="M 16.44 561.545203 
L 39.54 561.545203 
L 62.64 561.545203 
" style="fill: none; stroke: #dd8452; stroke-opacity: 0.9; stroke-width: 3; stroke-linecap: round"/>
   </g>
   <g id="text_31">
    <!-- eora26_full_2010 -->
    <g style="fill: #262626" transform="translate(81.12 569.630203) scale(0.231 -0.231)">
     <defs>
      <path id="DejaVuSans-31" d="M 794 531 
L 1825 531 
L 1825 4091 
L 703 3866 
L 703 4441 
L 1819 4666 
L 2450 4666 
L 2450 531 
L 3481 531 
L 3481 0 
L 794 0 
L 794 531 
z
" transform="scale(0.015625)"/>
     </defs>
     <use xlink:href="#DejaVuSans-65"/>
     <use xlink:href="#DejaVuSans-6f" x="61.523438"/>
     <use xlink:href="#DejaVuSans-72" x="122.705078"/>
     <use xlink:href="#DejaVuSans-61" x="163.818359"/>
     <use xlink:href="#DejaVuSans-32" x="225.097656"/>
     <use xlink:href="#DejaVuSans-36" x="288.720703"/>
     <use xlink:href="#DejaVuSans-5f" x="352.34375"/>
     <use xlink:href="#DejaVuSans-66" x="402.34375"/>
     <use xlink:href="#DejaVuSans-75" x="437.548828"/>
     <use xlink:href="#DejaVuSans-6c" x="500.927734"/>
     <use xlink:href="#DejaVuSans-6c" x="528.710938"/>
     <use xlink:href="#DejaVuSans-5f" x="556.494141"/>
     <use xlink:href="#DejaVuSans-32" x="606.494141"/>
     <use xlink:href="#DejaVuSans-30" x="670.117188"/>
     <use xlink:href="#DejaVuSans-31" x="733.740234"/>
     <use xlink:href="#DejaVuSans-30" x="797.363281"/>
    </g>
   </g>
   <g id="line2d_75">
    <path d="M 326.211 526.996266 
L 349.311 526.996266 
L 372.411 526.996266 
" style="fill: none; stroke: #55a868; stroke-opacity: 0.9; stroke-width: 3; stroke-linecap: round"/>
   </g>
   <g id="text_32">
    <!-- euregio_full_2000 -->
    <g style="fill: #262626" transform="translate(390.891 535.081266) scale(0.231 -0.231)">
     <use xlink:href="#DejaVuSans-65"/>
     <use xlink:href="#DejaVuSans-75" x="61.523438"/>
     <use xlink:href="#DejaVuSans-72" x="124.902344"/>
     <use xlink:href="#DejaVuSans-65" x="163.765625"/>
     <use xlink:href="#DejaVuSans-67" x="225.289062"/>
     <use xlink:href="#DejaVuSans-69" x="288.765625"/>
     <use xlink:href="#DejaVuSans-6f" x="316.548828"/>
     <use xlink:href="#DejaVuSans-5f" x="377.730469"/>
     <use xlink:href="#DejaVuSans-66" x="427.730469"/>
     <use xlink:href="#DejaVuSans-75" x="462.935547"/>
     <use xlink:href="#DejaVuSans-6c" x="526.314453"/>
     <use xlink:href="#DejaVuSans-6c" x="554.097656"/>
     <use xlink:href="#DejaVuSans-5f" x="581.880859"/>
     <use xlink:href="#DejaVuSans-32" x="631.880859"/>
     <use xlink:href="#DejaVuSans-30" x="695.503906"/>
     <use xlink:href="#DejaVuSans-30" x="759.126953"/>
     <use xlink:href="#DejaVuSans-30" x="822.75"/>
    </g>
   </g>
   <g id="line2d_76">
    <path d="M 326.211 561.545203 
L 349.311 561.545203 
L 372.411 561.545203 
" style="fill: none; stroke: #c44e52; stroke-opacity: 0.9; stroke-width: 3; stroke-linecap: round"/>
   </g>
   <g id="text_33">
    <!-- euregio_full_2010 -->
    <g style="fill: #262626" transform="translate(390.891 569.630203) scale(0.231 -0.231)">
     <use xlink:href="#DejaVuSans-65"/>
     <use xlink:href="#DejaVuSans-75" x="61.523438"/>
     <use xlink:href="#DejaVuSans-72" x="124.902344"/>
     <use xlink:href="#DejaVuSans-65" x="163.765625"/>
     <use xlink:href="#DejaVuSans-67" x="225.289062"/>
     <use xlink:href="#DejaVuSans-69" x="288.765625"/>
     <use xlink:href="#DejaVuSans-6f" x="316.548828"/>
     <use xlink:href="#DejaVuSans-5f" x="377.730469"/>
     <use xlink:href="#DejaVuSans-66" x="427.730469"/>
     <use xlink:href="#DejaVuSans-75" x="462.935547"/>
     <use xlink:href="#DejaVuSans-6c" x="526.314453"/>
     <use xlink:href="#DejaVuSans-6c" x="554.097656"/>
     <use xlink:href="#DejaVuSans-5f" x="581.880859"/>
     <use xlink:href="#DejaVuSans-32" x="631.880859"/>
     <use xlink:href="#DejaVuSans-30" x="695.503906"/>
     <use xlink:href="#DejaVuSans-31" x="759.126953"/>
     <use xlink:href="#DejaVuSans-30" x="822.75"/>
    </g>
   </g>
   <g id="line2d_77">
    <path d="M 641.847234 526.996266 
L 664.947234 526.996266 
L 688.047234 526.996266 
" style="fill: none; stroke: #8172b3; stroke-opacity: 0.9; stroke-width: 3; stroke-linecap: round"/>
   </g>
   <g id="text_34">
    <!-- exiobase3_full_2000 -->
    <g style="fill: #262626" transform="translate(706.527234 535.081266) scale(0.231 -0.231)">
     <defs>
      <path id="DejaVuSans-62" d="M 3116 1747 
Q 3116 2381 2855 2742 
Q 2594 3103 2138 3103 
Q 1681 3103 1420 2742 
Q 1159 2381 1159 1747 
Q 1159 1113 1420 752 
Q 1681 391 2138 391 
Q 2594 391 2855 752 
Q 3116 1113 3116 1747 
z
M 1159 2969 
Q 1341 3281 1617 3432 
Q 1894 3584 2278 3584 
Q 2916 3584 3314 3078 
Q 3713 2572 3713 1747 
Q 3713 922 3314 415 
Q 2916 -91 2278 -91 
Q 1894 -91 1617 61 
Q 1341 213 1159 525 
L 1159 0 
L 581 0 
L 581 4863 
L 1159 4863 
L 1159 2969 
z
" transform="scale(0.015625)"/>
     </defs>
     <use xlink:href="#DejaVuSans-65"/>
     <use xlink:href="#DejaVuSans-78" x="59.773438"/>
     <use xlink:href="#DejaVuSans-69" x="118.953125"/>
     <use xlink:href="#DejaVuSans-6f" x="146.736328"/>
     <use xlink:href="#DejaVuSans-62" x="207.917969"/>
     <use xlink:href="#DejaVuSans-61" x="271.394531"/>
     <use xlink:href="#DejaVuSans-73" x="332.673828"/>
     <use xlink:href="#DejaVuSans-65" x="384.773438"/>
     <use xlink:href="#DejaVuSans-33" x="446.296875"/>
     <use xlink:href="#DejaVuSans-5f" x="509.919922"/>
     <use xlink:href="#DejaVuSans-66" x="559.919922"/>
     <use xlink:href="#DejaVuSans-75" x="595.125"/>
     <use xlink:href="#DejaVuSans-6c" x="658.503906"/>
     <use xlink:href="#DejaVuSans-6c" x="686.287109"/>
     <use xlink:href="#DejaVuSans-5f" x="714.070312"/>
     <use xlink:href="#DejaVuSans-32" x="764.070312"/>
     <use xlink:href="#DejaVuSans-30" x="827.693359"/>
     <use xlink:href="#DejaVuSans-30" x="891.316406"/>
     <use xlink:href="#DejaVuSans-30" x="954.939453"/>
    </g>
   </g>
   <g id="line2d_78">
    <path d="M 988.022391 526.996266 
L 1011.122391 526.996266 
L 1034.222391 526.996266 
" style="fill: none; stroke: #937860; stroke-opacity: 0.9; stroke-width: 3; stroke-linecap: round"/>
   </g>
   <g id="text_35">
    <!-- exiobase3_full_2010 -->
    <g style="fill: #262626" transform="translate(1052.702391 535.081266) scale(0.231 -0.231)">
     <use xlink:href="#DejaVuSans-65"/>
     <use xlink:href="#DejaVuSans-78" x="59.773438"/>
     <use xlink:href="#DejaVuSans-69" x="118.953125"/>
     <use xlink:href="#DejaVuSans-6f" x="146.736328"/>
     <use xlink:href="#DejaVuSans-62" x="207.917969"/>
     <use xlink:href="#DejaVuSans-61" x="271.394531"/>
     <use xlink:href="#DejaVuSans-73" x="332.673828"/>
     <use xlink:href="#DejaVuSans-65" x="384.773438"/>
     <use xlink:href="#DejaVuSans-33" x="446.296875"/>
     <use xlink:href="#DejaVuSans-5f" x="509.919922"/>
     <use xlink:href="#DejaVuSans-66" x="559.919922"/>
     <use xlink:href="#DejaVuSans-75" x="595.125"/>
     <use xlink:href="#DejaVuSans-6c" x="658.503906"/>
     <use xlink:href="#DejaVuSans-6c" x="686.287109"/>
     <use xlink:href="#DejaVuSans-5f" x="714.070312"/>
     <use xlink:href="#DejaVuSans-32" x="764.070312"/>
     <use xlink:href="#DejaVuSans-30" x="827.693359"/>
     <use xlink:href="#DejaVuSans-31" x="891.316406"/>
     <use xlink:href="#DejaVuSans-30" x="954.939453"/>
    </g>
   </g>
  </g>
 </g>
 <defs>
  <clipPath id="pe1ca19d696">
   <rect x="170.340091" y="81.456" width="292.369069" height="119.586"/>
  </clipPath>
  <clipPath id="p9565ee5156">
   <rect x="489.290298" y="81.456" width="292.369069" height="119.586"/>
  </clipPath>
  <clipPath id="p05986fa316">
   <rect x="808.240504" y="81.456" width="292.369069" height="119.586"/>
  </clipPath>
  <clipPath id="p525175a7f3">
   <rect x="170.340091" y="253.698" width="292.369069" height="119.586"/>
  </clipPath>
  <clipPath id="p3785328b28">
   <rect x="489.290298" y="253.698" width="292.369069" height="119.586"/>
  </clipPath>
  <clipPath id="peb172ad289">
   <rect x="808.240504" y="253.698" width="292.369069" height="119.586"/>
  </clipPath>
 </defs>
</svg>
