<?xml version="1.0" encoding="utf-8" standalone="no"?>
<!DOCTYPE svg PUBLIC "-//W3C//DTD SVG 1.1//EN"
  "http://www.w3.org/Graphics/SVG/1.1/DTD/svg11.dtd">
<svg xmlns:xlink="http://www.w3.org/1999/xlink" width="1237.494469pt" height="2598.167812pt" viewBox="0 0 1237.494469 2598.167812" xmlns="http://www.w3.org/2000/svg" version="1.1">
 <metadata>
  <rdf:RDF xmlns:dc="http://purl.org/dc/elements/1.1/" xmlns:cc="http://creativecommons.org/ns#" xmlns:rdf="http://www.w3.org/1999/02/22-rdf-syntax-ns#">
   <cc:Work>
    <dc:type rdf:resource="http://purl.org/dc/dcmitype/StillImage"/>
    <dc:date>2023-04-07T09:14:25.688714</dc:date>
    <dc:format>image/svg+xml</dc:format>
    <dc:creator>
     <cc:Agent>
      <dc:title>Matplotlib v3.7.1, https://matplotlib.org/</dc:title>
     </cc:Agent>
    </dc:creator>
   </cc:Work>
  </rdf:RDF>
 </metadata>
 <defs>
  <style type="text/css">*{stroke-linejoin: round; stroke-linecap: butt}</style>
 </defs>
 <g id="figure_1">
  <g id="patch_1">
   <path d="M 0 2598.167812 
L 1237.494469 2598.167812 
L 1237.494469 0 
L 0 0 
z
" style="fill: #ffffff"/>
  </g>
  <g id="axes_1">
   <g id="patch_2">
    <path d="M 481.909805 257.055608 
L 642.911334 257.055608 
L 642.911334 220.594846 
L 481.909805 220.594846 
z
" style="fill: #eaeaf2"/>
   </g>
   <g id="matplotlib.axis_1">
    <g id="xtick_1">
     <g id="line2d_1">
      <path d="M 489.228056 257.055608 
L 489.228056 220.594846 
" clip-path="url(#pf1efda7b93)" style="fill: none; stroke: #ffffff; stroke-linecap: round"/>
     </g>
    </g>
    <g id="xtick_2">
     <g id="line2d_2">
      <path d="M 589.615592 257.055608 
L 589.615592 220.594846 
" clip-path="url(#pf1efda7b93)" style="fill: none; stroke: #ffffff; stroke-linecap: round"/>
     </g>
    </g>
   </g>
   <g id="matplotlib.axis_2">
    <g id="ytick_1">
     <g id="line2d_3">
      <path d="M 481.909805 247.984707 
L 642.911334 247.984707 
" clip-path="url(#pf1efda7b93)" style="fill: none; stroke: #ffffff; stroke-linecap: round"/>
     </g>
     <g id="text_1">
      <!-- −5 -->
      <g style="fill: #262626" transform="translate(438.355352 256.760902) scale(0.231 -0.231)">
       <defs>
        <path id="DejaVuSans-2212" d="M 678 2272 
L 4684 2272 
L 4684 1741 
L 678 1741 
L 678 2272 
z
" transform="scale(0.015625)"/>
        <path id="DejaVuSans-35" d="M 691 4666 
L 3169 4666 
L 3169 4134 
L 1269 4134 
L 1269 2991 
Q 1406 3038 1543 3061 
Q 1681 3084 1819 3084 
Q 2600 3084 3056 2656 
Q 3513 2228 3513 1497 
Q 3513 744 3044 326 
Q 2575 -91 1722 -91 
Q 1428 -91 1123 -41 
Q 819 9 494 109 
L 494 744 
Q 775 591 1075 516 
Q 1375 441 1709 441 
Q 2250 441 2565 725 
Q 2881 1009 2881 1497 
Q 2881 1984 2565 2268 
Q 2250 2553 1709 2553 
Q 1456 2553 1204 2497 
Q 953 2441 691 2322 
L 691 4666 
z
" transform="scale(0.015625)"/>
       </defs>
       <use xlink:href="#DejaVuSans-2212"/>
       <use xlink:href="#DejaVuSans-35" x="83.789062"/>
      </g>
     </g>
    </g>
    <g id="ytick_2">
     <g id="line2d_4">
      <path d="M 481.909805 223.699397 
L 642.911334 223.699397 
" clip-path="url(#pf1efda7b93)" style="fill: none; stroke: #ffffff; stroke-linecap: round"/>
     </g>
     <g id="text_2">
      <!-- 0 -->
      <g style="fill: #262626" transform="translate(457.71243 232.475592) scale(0.231 -0.231)">
       <defs>
        <path id="DejaVuSans-30" d="M 2034 4250 
Q 1547 4250 1301 3770 
Q 1056 3291 1056 2328 
Q 1056 1369 1301 889 
Q 1547 409 2034 409 
Q 2525 409 2770 889 
Q 3016 1369 3016 2328 
Q 3016 3291 2770 3770 
Q 2525 4250 2034 4250 
z
M 2034 4750 
Q 2819 4750 3233 4129 
Q 3647 3509 3647 2328 
Q 3647 1150 3233 529 
Q 2819 -91 2034 -91 
Q 1250 -91 836 529 
Q 422 1150 422 2328 
Q 422 3509 836 4129 
Q 1250 4750 2034 4750 
z
" transform="scale(0.015625)"/>
       </defs>
       <use xlink:href="#DejaVuSans-30"/>
      </g>
     </g>
    </g>
    <g id="text_3">
     <!-- % change -->
     <g style="fill: #262626" transform="translate(429.114539 301.173571) rotate(-90) scale(0.252 -0.252)">
      <defs>
       <path id="DejaVuSans-25" d="M 4653 2053 
Q 4381 2053 4226 1822 
Q 4072 1591 4072 1178 
Q 4072 772 4226 539 
Q 4381 306 4653 306 
Q 4919 306 5073 539 
Q 5228 772 5228 1178 
Q 5228 1588 5073 1820 
Q 4919 2053 4653 2053 
z
M 4653 2450 
Q 5147 2450 5437 2106 
Q 5728 1763 5728 1178 
Q 5728 594 5436 251 
Q 5144 -91 4653 -91 
Q 4153 -91 3862 251 
Q 3572 594 3572 1178 
Q 3572 1766 3864 2108 
Q 4156 2450 4653 2450 
z
M 1428 4353 
Q 1159 4353 1004 4120 
Q 850 3888 850 3481 
Q 850 3069 1003 2837 
Q 1156 2606 1428 2606 
Q 1700 2606 1854 2837 
Q 2009 3069 2009 3481 
Q 2009 3884 1853 4118 
Q 1697 4353 1428 4353 
z
M 4250 4750 
L 4750 4750 
L 1831 -91 
L 1331 -91 
L 4250 4750 
z
M 1428 4750 
Q 1922 4750 2215 4408 
Q 2509 4066 2509 3481 
Q 2509 2891 2217 2550 
Q 1925 2209 1428 2209 
Q 931 2209 642 2551 
Q 353 2894 353 3481 
Q 353 4063 643 4406 
Q 934 4750 1428 4750 
z
" transform="scale(0.015625)"/>
       <path id="DejaVuSans-20" transform="scale(0.015625)"/>
       <path id="DejaVuSans-63" d="M 3122 3366 
L 3122 2828 
Q 2878 2963 2633 3030 
Q 2388 3097 2138 3097 
Q 1578 3097 1268 2742 
Q 959 2388 959 1747 
Q 959 1106 1268 751 
Q 1578 397 2138 397 
Q 2388 397 2633 464 
Q 2878 531 3122 666 
L 3122 134 
Q 2881 22 2623 -34 
Q 2366 -91 2075 -91 
Q 1284 -91 818 406 
Q 353 903 353 1747 
Q 353 2603 823 3093 
Q 1294 3584 2113 3584 
Q 2378 3584 2631 3529 
Q 2884 3475 3122 3366 
z
" transform="scale(0.015625)"/>
       <path id="DejaVuSans-68" d="M 3513 2113 
L 3513 0 
L 2938 0 
L 2938 2094 
Q 2938 2591 2744 2837 
Q 2550 3084 2163 3084 
Q 1697 3084 1428 2787 
Q 1159 2491 1159 1978 
L 1159 0 
L 581 0 
L 581 4863 
L 1159 4863 
L 1159 2956 
Q 1366 3272 1645 3428 
Q 1925 3584 2291 3584 
Q 2894 3584 3203 3211 
Q 3513 2838 3513 2113 
z
" transform="scale(0.015625)"/>
       <path id="DejaVuSans-61" d="M 2194 1759 
Q 1497 1759 1228 1600 
Q 959 1441 959 1056 
Q 959 750 1161 570 
Q 1363 391 1709 391 
Q 2188 391 2477 730 
Q 2766 1069 2766 1631 
L 2766 1759 
L 2194 1759 
z
M 3341 1997 
L 3341 0 
L 2766 0 
L 2766 531 
Q 2569 213 2275 61 
Q 1981 -91 1556 -91 
Q 1019 -91 701 211 
Q 384 513 384 1019 
Q 384 1609 779 1909 
Q 1175 2209 1959 2209 
L 2766 2209 
L 2766 2266 
Q 2766 2663 2505 2880 
Q 2244 3097 1772 3097 
Q 1472 3097 1187 3025 
Q 903 2953 641 2809 
L 641 3341 
Q 956 3463 1253 3523 
Q 1550 3584 1831 3584 
Q 2591 3584 2966 3190 
Q 3341 2797 3341 1997 
z
" transform="scale(0.015625)"/>
       <path id="DejaVuSans-6e" d="M 3513 2113 
L 3513 0 
L 2938 0 
L 2938 2094 
Q 2938 2591 2744 2837 
Q 2550 3084 2163 3084 
Q 1697 3084 1428 2787 
Q 1159 2491 1159 1978 
L 1159 0 
L 581 0 
L 581 3500 
L 1159 3500 
L 1159 2956 
Q 1366 3272 1645 3428 
Q 1925 3584 2291 3584 
Q 2894 3584 3203 3211 
Q 3513 2838 3513 2113 
z
" transform="scale(0.015625)"/>
       <path id="DejaVuSans-67" d="M 2906 1791 
Q 2906 2416 2648 2759 
Q 2391 3103 1925 3103 
Q 1463 3103 1205 2759 
Q 947 2416 947 1791 
Q 947 1169 1205 825 
Q 1463 481 1925 481 
Q 2391 481 2648 825 
Q 2906 1169 2906 1791 
z
M 3481 434 
Q 3481 -459 3084 -895 
Q 2688 -1331 1869 -1331 
Q 1566 -1331 1297 -1286 
Q 1028 -1241 775 -1147 
L 775 -588 
Q 1028 -725 1275 -790 
Q 1522 -856 1778 -856 
Q 2344 -856 2625 -561 
Q 2906 -266 2906 331 
L 2906 616 
Q 2728 306 2450 153 
Q 2172 0 1784 0 
Q 1141 0 747 490 
Q 353 981 353 1791 
Q 353 2603 747 3093 
Q 1141 3584 1784 3584 
Q 2172 3584 2450 3431 
Q 2728 3278 2906 2969 
L 2906 3500 
L 3481 3500 
L 3481 434 
z
" transform="scale(0.015625)"/>
       <path id="DejaVuSans-65" d="M 3597 1894 
L 3597 1613 
L 953 1613 
Q 991 1019 1311 708 
Q 1631 397 2203 397 
Q 2534 397 2845 478 
Q 3156 559 3463 722 
L 3463 178 
Q 3153 47 2828 -22 
Q 2503 -91 2169 -91 
Q 1331 -91 842 396 
Q 353 884 353 1716 
Q 353 2575 817 3079 
Q 1281 3584 2069 3584 
Q 2775 3584 3186 3129 
Q 3597 2675 3597 1894 
z
M 3022 2063 
Q 3016 2534 2758 2815 
Q 2500 3097 2075 3097 
Q 1594 3097 1305 2825 
Q 1016 2553 972 2059 
L 3022 2063 
z
" transform="scale(0.015625)"/>
      </defs>
      <use xlink:href="#DejaVuSans-25"/>
      <use xlink:href="#DejaVuSans-20" x="95.019531"/>
      <use xlink:href="#DejaVuSans-63" x="126.806641"/>
      <use xlink:href="#DejaVuSans-68" x="181.787109"/>
      <use xlink:href="#DejaVuSans-61" x="245.166016"/>
      <use xlink:href="#DejaVuSans-6e" x="306.445312"/>
      <use xlink:href="#DejaVuSans-67" x="369.824219"/>
      <use xlink:href="#DejaVuSans-65" x="433.300781"/>
     </g>
    </g>
   </g>
   <g id="PolyCollection_1"/>
   <g id="PolyCollection_2"/>
   <g id="PolyCollection_3"/>
   <g id="PolyCollection_4"/>
   <g id="line2d_5">
    <path d="M 489.228056 223.699397 
L 489.428831 227.609743 
L 489.830381 227.785926 
L 492.038907 227.782085 
L 495.050533 225.5384 
L 496.656734 224.758039 
L 498.664485 224.050577 
L 500.87301 223.523131 
L 503.483086 223.131071 
L 505.490837 222.949182 
L 505.691612 223.045287 
L 506.093162 223.507242 
L 506.293937 223.952891 
L 506.695487 227.015316 
L 507.699363 236.917224 
L 508.703238 246.37235 
L 509.305563 250.591639 
L 509.907889 253.479419 
L 510.309439 254.676322 
L 510.710989 255.296926 
L 510.911764 255.398301 
L 511.112539 255.362527 
L 511.514089 254.885223 
L 511.915639 253.87731 
L 512.517965 251.398406 
L 513.12029 247.797984 
L 513.92339 241.35729 
L 515.730366 225.066361 
L 516.131916 222.667221 
L 516.332691 222.329562 
L 517.135791 222.291446 
L 525.166794 222.328592 
L 532.796247 222.605736 
L 564.317933 223.280143 
L 588.812491 223.406658 
L 635.593083 223.435048 
L 635.593083 223.435048 
" clip-path="url(#pf1efda7b93)" style="fill: none; stroke: #4c72b0; stroke-opacity: 0.9; stroke-width: 3; stroke-linecap: round"/>
   </g>
   <g id="line2d_6">
    <path d="M 489.228056 223.699397 
L 489.428831 225.832122 
L 489.830381 225.954774 
L 491.838132 225.965464 
L 492.239682 225.864582 
L 494.448208 224.812575 
L 496.255184 224.261353 
L 498.46371 223.821913 
L 501.274561 223.506139 
L 505.290062 223.308307 
L 512.71874 223.213517 
L 525.166794 223.265991 
L 541.2288 223.420397 
L 580.781489 223.592955 
L 635.593083 223.607555 
L 635.593083 223.607555 
" clip-path="url(#pf1efda7b93)" style="fill: none; stroke: #dd8452; stroke-opacity: 0.9; stroke-width: 3; stroke-linecap: round"/>
   </g>
   <g id="line2d_7">
    <path d="M 489.228056 223.699397 
L 489.428831 227.797157 
L 489.629606 228.020693 
L 490.231932 228.096304 
L 492.239682 228.009261 
L 494.247433 226.670718 
L 495.853634 225.923157 
L 497.660609 225.320243 
L 500.06991 224.775933 
L 503.282311 224.293827 
L 505.892387 224.130536 
L 506.695487 224.241604 
L 507.699363 224.758555 
L 513.92339 228.330168 
L 515.931141 229.071471 
L 518.139666 229.663974 
L 520.749742 230.128592 
L 524.162919 230.479414 
L 527.576095 230.585547 
L 530.989271 230.462882 
L 534.201672 230.12989 
L 537.213298 229.622944 
L 540.024149 228.92865 
L 544.039651 227.578885 
L 546.448952 226.85421 
L 548.255927 226.609744 
L 556.086155 225.92514 
L 559.097781 225.40615 
L 564.518708 224.373618 
L 568.935759 224.478827 
L 577.569088 224.686534 
L 598.048145 224.878094 
L 635.593083 224.928812 
L 635.593083 224.928812 
" clip-path="url(#pf1efda7b93)" style="fill: none; stroke: #55a868; stroke-opacity: 0.9; stroke-width: 3; stroke-linecap: round"/>
   </g>
   <g id="line2d_8">
    <path d="M 489.228056 223.699397 
L 489.428831 226.919897 
L 489.830381 227.143883 
L 491.637357 227.150067 
L 492.239682 227.097179 
L 494.247433 226.000543 
L 496.054409 225.341417 
L 498.262934 224.80549 
L 501.274561 224.34046 
L 504.687737 224.020385 
L 506.093162 224.09263 
L 507.097038 224.375515 
L 508.502463 225.172518 
L 511.915639 227.14872 
L 514.32494 228.238114 
L 516.935016 229.140507 
L 519.545092 229.79682 
L 522.355943 230.271784 
L 525.367569 230.54536 
L 528.379195 230.585901 
L 531.190046 230.4047 
L 533.800122 230.017029 
L 536.008648 229.481961 
L 541.63035 227.896962 
L 552.070653 227.495508 
L 556.487705 227.138637 
L 560.101656 226.640461 
L 562.912507 226.024206 
L 568.734984 224.557287 
L 576.966762 224.755192 
L 590.418692 224.99871 
L 610.496199 225.102704 
L 635.593083 225.104261 
L 635.593083 225.104261 
" clip-path="url(#pf1efda7b93)" style="fill: none; stroke: #c44e52; stroke-opacity: 0.9; stroke-width: 3; stroke-linecap: round"/>
   </g>
   <g id="patch_3">
    <path d="M 481.909805 257.055608 
L 481.909805 220.594846 
" style="fill: none; stroke: #ffffff; stroke-width: 1.25; stroke-linejoin: miter; stroke-linecap: square"/>
   </g>
   <g id="patch_4">
    <path d="M 481.909805 257.055608 
L 642.911334 257.055608 
" style="fill: none; stroke: #ffffff; stroke-width: 1.25; stroke-linejoin: miter; stroke-linecap: square"/>
   </g>
   <g id="text_4">
    <!-- reb15 -->
    <g style="fill: #262626" transform="translate(651.372177 202.143477) rotate(-270) scale(0.252 -0.252)">
     <defs>
      <path id="DejaVuSans-72" d="M 2631 2963 
Q 2534 3019 2420 3045 
Q 2306 3072 2169 3072 
Q 1681 3072 1420 2755 
Q 1159 2438 1159 1844 
L 1159 0 
L 581 0 
L 581 3500 
L 1159 3500 
L 1159 2956 
Q 1341 3275 1631 3429 
Q 1922 3584 2338 3584 
Q 2397 3584 2469 3576 
Q 2541 3569 2628 3553 
L 2631 2963 
z
" transform="scale(0.015625)"/>
      <path id="DejaVuSans-62" d="M 3116 1747 
Q 3116 2381 2855 2742 
Q 2594 3103 2138 3103 
Q 1681 3103 1420 2742 
Q 1159 2381 1159 1747 
Q 1159 1113 1420 752 
Q 1681 391 2138 391 
Q 2594 391 2855 752 
Q 3116 1113 3116 1747 
z
M 1159 2969 
Q 1341 3281 1617 3432 
Q 1894 3584 2278 3584 
Q 2916 3584 3314 3078 
Q 3713 2572 3713 1747 
Q 3713 922 3314 415 
Q 2916 -91 2278 -91 
Q 1894 -91 1617 61 
Q 1341 213 1159 525 
L 1159 0 
L 581 0 
L 581 4863 
L 1159 4863 
L 1159 2969 
z
" transform="scale(0.015625)"/>
      <path id="DejaVuSans-31" d="M 794 531 
L 1825 531 
L 1825 4091 
L 703 3866 
L 703 4441 
L 1819 4666 
L 2450 4666 
L 2450 531 
L 3481 531 
L 3481 0 
L 794 0 
L 794 531 
z
" transform="scale(0.015625)"/>
     </defs>
     <use xlink:href="#DejaVuSans-72"/>
     <use xlink:href="#DejaVuSans-65" x="38.863281"/>
     <use xlink:href="#DejaVuSans-62" x="100.386719"/>
     <use xlink:href="#DejaVuSans-31" x="163.863281"/>
     <use xlink:href="#DejaVuSans-35" x="227.486328"/>
    </g>
   </g>
   <g id="text_5">
    <!-- 0.5~365 -->
    <g style="fill: #262626" transform="translate(507.763976 214.594846) scale(0.252 -0.252)">
     <defs>
      <path id="DejaVuSans-2e" d="M 684 794 
L 1344 794 
L 1344 0 
L 684 0 
L 684 794 
z
" transform="scale(0.015625)"/>
      <path id="DejaVuSans-7e" d="M 4684 2553 
L 4684 1997 
Q 4356 1750 4076 1644 
Q 3797 1538 3494 1538 
Q 3150 1538 2694 1722 
Q 2659 1734 2644 1741 
Q 2622 1750 2575 1766 
Q 2091 1959 1797 1959 
Q 1522 1959 1253 1839 
Q 984 1719 678 1459 
L 678 2016 
Q 1006 2263 1286 2370 
Q 1566 2478 1869 2478 
Q 2213 2478 2672 2291 
Q 2703 2278 2719 2272 
Q 2744 2263 2788 2247 
Q 3272 2053 3566 2053 
Q 3834 2053 4098 2172 
Q 4363 2291 4684 2553 
z
" transform="scale(0.015625)"/>
      <path id="DejaVuSans-33" d="M 2597 2516 
Q 3050 2419 3304 2112 
Q 3559 1806 3559 1356 
Q 3559 666 3084 287 
Q 2609 -91 1734 -91 
Q 1441 -91 1130 -33 
Q 819 25 488 141 
L 488 750 
Q 750 597 1062 519 
Q 1375 441 1716 441 
Q 2309 441 2620 675 
Q 2931 909 2931 1356 
Q 2931 1769 2642 2001 
Q 2353 2234 1838 2234 
L 1294 2234 
L 1294 2753 
L 1863 2753 
Q 2328 2753 2575 2939 
Q 2822 3125 2822 3475 
Q 2822 3834 2567 4026 
Q 2313 4219 1838 4219 
Q 1578 4219 1281 4162 
Q 984 4106 628 3988 
L 628 4550 
Q 988 4650 1302 4700 
Q 1616 4750 1894 4750 
Q 2613 4750 3031 4423 
Q 3450 4097 3450 3541 
Q 3450 3153 3228 2886 
Q 3006 2619 2597 2516 
z
" transform="scale(0.015625)"/>
      <path id="DejaVuSans-36" d="M 2113 2584 
Q 1688 2584 1439 2293 
Q 1191 2003 1191 1497 
Q 1191 994 1439 701 
Q 1688 409 2113 409 
Q 2538 409 2786 701 
Q 3034 994 3034 1497 
Q 3034 2003 2786 2293 
Q 2538 2584 2113 2584 
z
M 3366 4563 
L 3366 3988 
Q 3128 4100 2886 4159 
Q 2644 4219 2406 4219 
Q 1781 4219 1451 3797 
Q 1122 3375 1075 2522 
Q 1259 2794 1537 2939 
Q 1816 3084 2150 3084 
Q 2853 3084 3261 2657 
Q 3669 2231 3669 1497 
Q 3669 778 3244 343 
Q 2819 -91 2113 -91 
Q 1303 -91 875 529 
Q 447 1150 447 2328 
Q 447 3434 972 4092 
Q 1497 4750 2381 4750 
Q 2619 4750 2861 4703 
Q 3103 4656 3366 4563 
z
" transform="scale(0.015625)"/>
     </defs>
     <use xlink:href="#DejaVuSans-30"/>
     <use xlink:href="#DejaVuSans-2e" x="63.623047"/>
     <use xlink:href="#DejaVuSans-35" x="95.410156"/>
     <use xlink:href="#DejaVuSans-7e" x="159.033203"/>
     <use xlink:href="#DejaVuSans-33" x="242.822266"/>
     <use xlink:href="#DejaVuSans-36" x="306.445312"/>
     <use xlink:href="#DejaVuSans-35" x="370.068359"/>
    </g>
   </g>
  </g>
  <g id="axes_2">
   <g id="patch_5">
    <path d="M 481.909805 471.510063 
L 642.911334 471.510063 
L 642.911334 435.049301 
L 481.909805 435.049301 
z
" style="fill: #eaeaf2"/>
   </g>
   <g id="matplotlib.axis_3">
    <g id="xtick_3">
     <g id="line2d_9">
      <path d="M 489.228056 471.510063 
L 489.228056 435.049301 
" clip-path="url(#p4a23854f03)" style="fill: none; stroke: #ffffff; stroke-linecap: round"/>
     </g>
    </g>
    <g id="xtick_4">
     <g id="line2d_10">
      <path d="M 589.615592 471.510063 
L 589.615592 435.049301 
" clip-path="url(#p4a23854f03)" style="fill: none; stroke: #ffffff; stroke-linecap: round"/>
     </g>
    </g>
   </g>
   <g id="matplotlib.axis_4">
    <g id="ytick_3">
     <g id="line2d_11">
      <path d="M 481.909805 462.439161 
L 642.911334 462.439161 
" clip-path="url(#p4a23854f03)" style="fill: none; stroke: #ffffff; stroke-linecap: round"/>
     </g>
     <g id="text_6">
      <!-- −5 -->
      <g style="fill: #262626" transform="translate(438.355352 471.215356) scale(0.231 -0.231)">
       <use xlink:href="#DejaVuSans-2212"/>
       <use xlink:href="#DejaVuSans-35" x="83.789062"/>
      </g>
     </g>
    </g>
    <g id="ytick_4">
     <g id="line2d_12">
      <path d="M 481.909805 438.153852 
L 642.911334 438.153852 
" clip-path="url(#p4a23854f03)" style="fill: none; stroke: #ffffff; stroke-linecap: round"/>
     </g>
     <g id="text_7">
      <!-- 0 -->
      <g style="fill: #262626" transform="translate(457.71243 446.930047) scale(0.231 -0.231)">
       <use xlink:href="#DejaVuSans-30"/>
      </g>
     </g>
    </g>
    <g id="text_8">
     <!-- % change -->
     <g style="fill: #262626" transform="translate(429.114539 515.628026) rotate(-90) scale(0.252 -0.252)">
      <use xlink:href="#DejaVuSans-25"/>
      <use xlink:href="#DejaVuSans-20" x="95.019531"/>
      <use xlink:href="#DejaVuSans-63" x="126.806641"/>
      <use xlink:href="#DejaVuSans-68" x="181.787109"/>
      <use xlink:href="#DejaVuSans-61" x="245.166016"/>
      <use xlink:href="#DejaVuSans-6e" x="306.445312"/>
      <use xlink:href="#DejaVuSans-67" x="369.824219"/>
      <use xlink:href="#DejaVuSans-65" x="433.300781"/>
     </g>
    </g>
   </g>
   <g id="PolyCollection_5"/>
   <g id="PolyCollection_6"/>
   <g id="PolyCollection_7"/>
   <g id="PolyCollection_8"/>
   <g id="line2d_13">
    <path d="M 489.228056 438.153852 
L 489.428831 442.064197 
L 489.830381 442.24038 
L 492.038907 442.236539 
L 492.440457 441.880205 
L 493.645108 440.688006 
L 494.849758 439.823515 
L 496.255184 439.122451 
L 497.861384 438.608057 
L 499.66836 438.267699 
L 502.278436 438.027661 
L 506.494712 437.896432 
L 517.135791 437.864823 
L 536.008648 437.994957 
L 580.379939 438.100109 
L 635.593083 438.108479 
L 635.593083 438.108479 
" clip-path="url(#p4a23854f03)" style="fill: none; stroke: #4c72b0; stroke-opacity: 0.9; stroke-width: 3; stroke-linecap: round"/>
   </g>
   <g id="line2d_14">
    <path d="M 489.228056 438.153852 
L 489.428831 440.286576 
L 489.830381 440.409228 
L 491.838132 440.419919 
L 492.239682 440.329198 
L 494.247433 439.250943 
L 495.853634 438.738603 
L 497.861384 438.380633 
L 500.47146 438.163772 
L 505.089287 438.045503 
L 518.541217 438.014271 
L 550.665228 438.102212 
L 633.384557 438.127241 
L 635.593083 438.127267 
L 635.593083 438.127267 
" clip-path="url(#p4a23854f03)" style="fill: none; stroke: #dd8452; stroke-opacity: 0.9; stroke-width: 3; stroke-linecap: round"/>
   </g>
   <g id="line2d_15">
    <path d="M 489.228056 438.153852 
L 489.428831 442.251611 
L 489.629606 442.475148 
L 490.231932 442.550759 
L 492.239682 442.476967 
L 494.046658 440.995101 
L 495.452083 440.189198 
L 497.058284 439.536013 
L 499.066035 438.989211 
L 501.475336 438.59107 
L 504.888512 438.284721 
L 509.506338 438.112216 
L 513.92339 438.176952 
L 531.993146 438.582541 
L 538.618724 438.476125 
L 543.23655 438.18397 
L 547.452827 437.958972 
L 579.576838 438.091203 
L 635.593083 438.106646 
L 635.593083 438.106646 
" clip-path="url(#p4a23854f03)" style="fill: none; stroke: #55a868; stroke-opacity: 0.9; stroke-width: 3; stroke-linecap: round"/>
   </g>
   <g id="line2d_16">
    <path d="M 489.228056 438.153852 
L 489.428831 441.374351 
L 489.830381 441.598338 
L 491.637357 441.604522 
L 492.239682 441.56118 
L 494.247433 440.262259 
L 495.853634 439.577547 
L 497.660609 439.06035 
L 499.869135 438.662798 
L 502.880761 438.360545 
L 506.494712 438.205614 
L 515.529591 438.268474 
L 526.97377 438.356689 
L 532.796247 438.12283 
L 538.016399 437.966927 
L 588.009391 438.117099 
L 635.593083 438.119441 
L 635.593083 438.119441 
" clip-path="url(#p4a23854f03)" style="fill: none; stroke: #c44e52; stroke-opacity: 0.9; stroke-width: 3; stroke-linecap: round"/>
   </g>
   <g id="patch_6">
    <path d="M 481.909805 471.510063 
L 481.909805 435.049301 
" style="fill: none; stroke: #ffffff; stroke-width: 1.25; stroke-linejoin: miter; stroke-linecap: square"/>
   </g>
   <g id="patch_7">
    <path d="M 481.909805 471.510063 
L 642.911334 471.510063 
" style="fill: none; stroke: #ffffff; stroke-width: 1.25; stroke-linejoin: miter; stroke-linecap: square"/>
   </g>
   <g id="text_9">
    <!-- reb15q -->
    <g style="fill: #262626" transform="translate(651.372177 408.598901) rotate(-270) scale(0.252 -0.252)">
     <defs>
      <path id="DejaVuSans-71" d="M 947 1747 
Q 947 1113 1208 752 
Q 1469 391 1925 391 
Q 2381 391 2643 752 
Q 2906 1113 2906 1747 
Q 2906 2381 2643 2742 
Q 2381 3103 1925 3103 
Q 1469 3103 1208 2742 
Q 947 2381 947 1747 
z
M 2906 525 
Q 2725 213 2448 61 
Q 2172 -91 1784 -91 
Q 1150 -91 751 415 
Q 353 922 353 1747 
Q 353 2572 751 3078 
Q 1150 3584 1784 3584 
Q 2172 3584 2448 3432 
Q 2725 3281 2906 2969 
L 2906 3500 
L 3481 3500 
L 3481 -1331 
L 2906 -1331 
L 2906 525 
z
" transform="scale(0.015625)"/>
     </defs>
     <use xlink:href="#DejaVuSans-72"/>
     <use xlink:href="#DejaVuSans-65" x="38.863281"/>
     <use xlink:href="#DejaVuSans-62" x="100.386719"/>
     <use xlink:href="#DejaVuSans-31" x="163.863281"/>
     <use xlink:href="#DejaVuSans-35" x="227.486328"/>
     <use xlink:href="#DejaVuSans-71" x="291.109375"/>
    </g>
   </g>
  </g>
  <g id="axes_3">
   <g id="patch_8">
    <path d="M 481.909805 685.964517 
L 642.911334 685.964517 
L 642.911334 649.503755 
L 481.909805 649.503755 
z
" style="fill: #eaeaf2"/>
   </g>
   <g id="matplotlib.axis_5">
    <g id="xtick_5">
     <g id="line2d_17">
      <path d="M 489.228056 685.964517 
L 489.228056 649.503755 
" clip-path="url(#p4d59a435d3)" style="fill: none; stroke: #ffffff; stroke-linecap: round"/>
     </g>
    </g>
    <g id="xtick_6">
     <g id="line2d_18">
      <path d="M 589.615592 685.964517 
L 589.615592 649.503755 
" clip-path="url(#p4d59a435d3)" style="fill: none; stroke: #ffffff; stroke-linecap: round"/>
     </g>
    </g>
   </g>
   <g id="matplotlib.axis_6">
    <g id="ytick_5">
     <g id="line2d_19">
      <path d="M 481.909805 676.893616 
L 642.911334 676.893616 
" clip-path="url(#p4d59a435d3)" style="fill: none; stroke: #ffffff; stroke-linecap: round"/>
     </g>
     <g id="text_10">
      <!-- −5 -->
      <g style="fill: #262626" transform="translate(438.355352 685.669811) scale(0.231 -0.231)">
       <use xlink:href="#DejaVuSans-2212"/>
       <use xlink:href="#DejaVuSans-35" x="83.789062"/>
      </g>
     </g>
    </g>
    <g id="ytick_6">
     <g id="line2d_20">
      <path d="M 481.909805 652.608306 
L 642.911334 652.608306 
" clip-path="url(#p4d59a435d3)" style="fill: none; stroke: #ffffff; stroke-linecap: round"/>
     </g>
     <g id="text_11">
      <!-- 0 -->
      <g style="fill: #262626" transform="translate(457.71243 661.384501) scale(0.231 -0.231)">
       <use xlink:href="#DejaVuSans-30"/>
      </g>
     </g>
    </g>
    <g id="text_12">
     <!-- % change -->
     <g style="fill: #262626" transform="translate(429.114539 730.08248) rotate(-90) scale(0.252 -0.252)">
      <use xlink:href="#DejaVuSans-25"/>
      <use xlink:href="#DejaVuSans-20" x="95.019531"/>
      <use xlink:href="#DejaVuSans-63" x="126.806641"/>
      <use xlink:href="#DejaVuSans-68" x="181.787109"/>
      <use xlink:href="#DejaVuSans-61" x="245.166016"/>
      <use xlink:href="#DejaVuSans-6e" x="306.445312"/>
      <use xlink:href="#DejaVuSans-67" x="369.824219"/>
      <use xlink:href="#DejaVuSans-65" x="433.300781"/>
     </g>
    </g>
   </g>
   <g id="PolyCollection_9"/>
   <g id="PolyCollection_10"/>
   <g id="PolyCollection_11"/>
   <g id="PolyCollection_12"/>
   <g id="line2d_21">
    <path d="M 489.228056 652.608306 
L 489.428831 656.518652 
L 489.830381 656.694835 
L 492.038907 656.690994 
L 492.440457 656.545912 
L 506.293937 655.640137 
L 524.966019 654.620619 
L 544.441201 653.77731 
L 566.526459 653.060712 
L 591.623342 652.47534 
L 620.936503 652.022011 
L 635.593083 651.955571 
L 635.593083 651.955571 
" clip-path="url(#p4d59a435d3)" style="fill: none; stroke: #4c72b0; stroke-opacity: 0.9; stroke-width: 3; stroke-linecap: round"/>
   </g>
   <g id="line2d_22">
    <path d="M 489.228056 652.608306 
L 489.428831 654.741031 
L 489.830381 654.863683 
L 491.838132 654.874374 
L 492.842008 654.76149 
L 512.116414 654.10241 
L 538.417949 653.421807 
L 566.325684 652.923115 
L 601.662096 652.520603 
L 634.388433 652.348248 
L 635.593083 652.348842 
L 635.593083 652.348842 
" clip-path="url(#p4d59a435d3)" style="fill: none; stroke: #dd8452; stroke-opacity: 0.9; stroke-width: 3; stroke-linecap: round"/>
   </g>
   <g id="line2d_23">
    <path d="M 489.228056 652.608306 
L 489.428831 656.706066 
L 489.629606 656.929602 
L 490.231932 657.005213 
L 492.641232 656.904958 
L 510.309439 655.81658 
L 527.77687 654.934495 
L 547.653602 654.26996 
L 625.95588 652.322453 
L 635.593083 652.172721 
L 635.593083 652.172721 
" clip-path="url(#p4d59a435d3)" style="fill: none; stroke: #55a868; stroke-opacity: 0.9; stroke-width: 3; stroke-linecap: round"/>
   </g>
   <g id="line2d_24">
    <path d="M 489.228056 652.608306 
L 489.428831 655.828806 
L 489.830381 656.052792 
L 491.637357 656.058976 
L 493.645108 655.939786 
L 515.730366 654.884518 
L 546.248176 653.927839 
L 591.623342 652.804031 
L 618.125652 652.37955 
L 635.593083 652.235603 
L 635.593083 652.235603 
" clip-path="url(#p4d59a435d3)" style="fill: none; stroke: #c44e52; stroke-opacity: 0.9; stroke-width: 3; stroke-linecap: round"/>
   </g>
   <g id="patch_9">
    <path d="M 481.909805 685.964517 
L 481.909805 649.503755 
" style="fill: none; stroke: #ffffff; stroke-width: 1.25; stroke-linejoin: miter; stroke-linecap: square"/>
   </g>
   <g id="patch_10">
    <path d="M 481.909805 685.964517 
L 642.911334 685.964517 
" style="fill: none; stroke: #ffffff; stroke-width: 1.25; stroke-linejoin: miter; stroke-linecap: square"/>
   </g>
   <g id="text_13">
    <!-- reb365 -->
    <g style="fill: #262626" transform="translate(651.372177 623.035636) rotate(-270) scale(0.252 -0.252)">
     <use xlink:href="#DejaVuSans-72"/>
     <use xlink:href="#DejaVuSans-65" x="38.863281"/>
     <use xlink:href="#DejaVuSans-62" x="100.386719"/>
     <use xlink:href="#DejaVuSans-33" x="163.863281"/>
     <use xlink:href="#DejaVuSans-36" x="227.486328"/>
     <use xlink:href="#DejaVuSans-35" x="291.109375"/>
    </g>
   </g>
  </g>
  <g id="axes_4">
   <g id="patch_11">
    <path d="M 481.909805 900.418972 
L 642.911334 900.418972 
L 642.911334 863.95821 
L 481.909805 863.95821 
z
" style="fill: #eaeaf2"/>
   </g>
   <g id="matplotlib.axis_7">
    <g id="xtick_7">
     <g id="line2d_25">
      <path d="M 489.228056 900.418972 
L 489.228056 863.95821 
" clip-path="url(#pf0be198699)" style="fill: none; stroke: #ffffff; stroke-linecap: round"/>
     </g>
    </g>
    <g id="xtick_8">
     <g id="line2d_26">
      <path d="M 589.615592 900.418972 
L 589.615592 863.95821 
" clip-path="url(#pf0be198699)" style="fill: none; stroke: #ffffff; stroke-linecap: round"/>
     </g>
    </g>
   </g>
   <g id="matplotlib.axis_8">
    <g id="ytick_7">
     <g id="line2d_27">
      <path d="M 481.909805 891.34807 
L 642.911334 891.34807 
" clip-path="url(#pf0be198699)" style="fill: none; stroke: #ffffff; stroke-linecap: round"/>
     </g>
     <g id="text_14">
      <!-- −5 -->
      <g style="fill: #262626" transform="translate(438.355352 900.124266) scale(0.231 -0.231)">
       <use xlink:href="#DejaVuSans-2212"/>
       <use xlink:href="#DejaVuSans-35" x="83.789062"/>
      </g>
     </g>
    </g>
    <g id="ytick_8">
     <g id="line2d_28">
      <path d="M 481.909805 867.062761 
L 642.911334 867.062761 
" clip-path="url(#pf0be198699)" style="fill: none; stroke: #ffffff; stroke-linecap: round"/>
     </g>
     <g id="text_15">
      <!-- 0 -->
      <g style="fill: #262626" transform="translate(457.71243 875.838956) scale(0.231 -0.231)">
       <use xlink:href="#DejaVuSans-30"/>
      </g>
     </g>
    </g>
    <g id="text_16">
     <!-- % change -->
     <g style="fill: #262626" transform="translate(429.114539 944.536935) rotate(-90) scale(0.252 -0.252)">
      <use xlink:href="#DejaVuSans-25"/>
      <use xlink:href="#DejaVuSans-20" x="95.019531"/>
      <use xlink:href="#DejaVuSans-63" x="126.806641"/>
      <use xlink:href="#DejaVuSans-68" x="181.787109"/>
      <use xlink:href="#DejaVuSans-61" x="245.166016"/>
      <use xlink:href="#DejaVuSans-6e" x="306.445312"/>
      <use xlink:href="#DejaVuSans-67" x="369.824219"/>
      <use xlink:href="#DejaVuSans-65" x="433.300781"/>
     </g>
    </g>
   </g>
   <g id="PolyCollection_13"/>
   <g id="PolyCollection_14"/>
   <g id="PolyCollection_15"/>
   <g id="PolyCollection_16"/>
   <g id="line2d_29">
    <path d="M 489.228056 867.062761 
L 489.428831 870.973106 
L 489.830381 871.14929 
L 492.038907 871.145448 
L 492.440457 871.005021 
L 509.907889 870.177762 
L 536.610973 869.099751 
L 562.510957 868.272329 
L 592.426443 867.549134 
L 626.35743 866.957926 
L 635.593083 866.83151 
L 635.593083 866.83151 
" clip-path="url(#pf0be198699)" style="fill: none; stroke: #4c72b0; stroke-opacity: 0.9; stroke-width: 3; stroke-linecap: round"/>
   </g>
   <g id="line2d_30">
    <path d="M 489.228056 867.062761 
L 489.428831 869.195485 
L 489.830381 869.318137 
L 491.838132 869.328828 
L 493.645108 869.213171 
L 522.155168 868.511698 
L 558.897006 867.835439 
L 600.055895 867.324795 
L 635.593083 867.0283 
L 635.593083 867.0283 
" clip-path="url(#pf0be198699)" style="fill: none; stroke: #dd8452; stroke-opacity: 0.9; stroke-width: 3; stroke-linecap: round"/>
   </g>
   <g id="line2d_31">
    <path d="M 489.228056 867.062761 
L 489.428831 871.16052 
L 489.629606 871.384057 
L 490.231932 871.459668 
L 493.042783 871.347184 
L 521.753618 870.058411 
L 544.039651 869.253999 
L 572.549711 868.453321 
L 616.318676 867.415986 
L 635.593083 867.116289 
L 635.593083 867.116289 
" clip-path="url(#pf0be198699)" style="fill: none; stroke: #55a868; stroke-opacity: 0.9; stroke-width: 3; stroke-linecap: round"/>
   </g>
   <g id="line2d_32">
    <path d="M 489.228056 867.062761 
L 489.428831 870.28326 
L 489.830381 870.507247 
L 491.637357 870.513431 
L 494.448208 870.383075 
L 523.560593 869.370959 
L 601.862871 867.531274 
L 635.593083 867.077383 
L 635.593083 867.077383 
" clip-path="url(#pf0be198699)" style="fill: none; stroke: #c44e52; stroke-opacity: 0.9; stroke-width: 3; stroke-linecap: round"/>
   </g>
   <g id="patch_12">
    <path d="M 481.909805 900.418972 
L 481.909805 863.95821 
" style="fill: none; stroke: #ffffff; stroke-width: 1.25; stroke-linejoin: miter; stroke-linecap: square"/>
   </g>
   <g id="patch_13">
    <path d="M 481.909805 900.418972 
L 642.911334 900.418972 
" style="fill: none; stroke: #ffffff; stroke-width: 1.25; stroke-linejoin: miter; stroke-linecap: square"/>
   </g>
   <g id="text_17">
    <!-- reb545 -->
    <g style="fill: #262626" transform="translate(651.372177 837.490091) rotate(-270) scale(0.252 -0.252)">
     <defs>
      <path id="DejaVuSans-34" d="M 2419 4116 
L 825 1625 
L 2419 1625 
L 2419 4116 
z
M 2253 4666 
L 3047 4666 
L 3047 1625 
L 3713 1625 
L 3713 1100 
L 3047 1100 
L 3047 0 
L 2419 0 
L 2419 1100 
L 313 1100 
L 313 1709 
L 2253 4666 
z
" transform="scale(0.015625)"/>
     </defs>
     <use xlink:href="#DejaVuSans-72"/>
     <use xlink:href="#DejaVuSans-65" x="38.863281"/>
     <use xlink:href="#DejaVuSans-62" x="100.386719"/>
     <use xlink:href="#DejaVuSans-35" x="163.863281"/>
     <use xlink:href="#DejaVuSans-34" x="227.486328"/>
     <use xlink:href="#DejaVuSans-35" x="291.109375"/>
    </g>
   </g>
  </g>
  <g id="axes_5">
   <g id="patch_14">
    <path d="M 481.909805 1114.873427 
L 642.911334 1114.873427 
L 642.911334 1078.412664 
L 481.909805 1078.412664 
z
" style="fill: #eaeaf2"/>
   </g>
   <g id="matplotlib.axis_9">
    <g id="xtick_9">
     <g id="line2d_33">
      <path d="M 489.228056 1114.873427 
L 489.228056 1078.412664 
" clip-path="url(#p5f5cb80990)" style="fill: none; stroke: #ffffff; stroke-linecap: round"/>
     </g>
    </g>
    <g id="xtick_10">
     <g id="line2d_34">
      <path d="M 589.615592 1114.873427 
L 589.615592 1078.412664 
" clip-path="url(#p5f5cb80990)" style="fill: none; stroke: #ffffff; stroke-linecap: round"/>
     </g>
    </g>
   </g>
   <g id="matplotlib.axis_10">
    <g id="ytick_9">
     <g id="line2d_35">
      <path d="M 481.909805 1105.802525 
L 642.911334 1105.802525 
" clip-path="url(#p5f5cb80990)" style="fill: none; stroke: #ffffff; stroke-linecap: round"/>
     </g>
     <g id="text_18">
      <!-- −5 -->
      <g style="fill: #262626" transform="translate(438.355352 1114.57872) scale(0.231 -0.231)">
       <use xlink:href="#DejaVuSans-2212"/>
       <use xlink:href="#DejaVuSans-35" x="83.789062"/>
      </g>
     </g>
    </g>
    <g id="ytick_10">
     <g id="line2d_36">
      <path d="M 481.909805 1081.517215 
L 642.911334 1081.517215 
" clip-path="url(#p5f5cb80990)" style="fill: none; stroke: #ffffff; stroke-linecap: round"/>
     </g>
     <g id="text_19">
      <!-- 0 -->
      <g style="fill: #262626" transform="translate(457.71243 1090.293411) scale(0.231 -0.231)">
       <use xlink:href="#DejaVuSans-30"/>
      </g>
     </g>
    </g>
    <g id="text_20">
     <!-- % change -->
     <g style="fill: #262626" transform="translate(429.114539 1158.991389) rotate(-90) scale(0.252 -0.252)">
      <use xlink:href="#DejaVuSans-25"/>
      <use xlink:href="#DejaVuSans-20" x="95.019531"/>
      <use xlink:href="#DejaVuSans-63" x="126.806641"/>
      <use xlink:href="#DejaVuSans-68" x="181.787109"/>
      <use xlink:href="#DejaVuSans-61" x="245.166016"/>
      <use xlink:href="#DejaVuSans-6e" x="306.445312"/>
      <use xlink:href="#DejaVuSans-67" x="369.824219"/>
      <use xlink:href="#DejaVuSans-65" x="433.300781"/>
     </g>
    </g>
   </g>
   <g id="PolyCollection_17"/>
   <g id="PolyCollection_18"/>
   <g id="PolyCollection_19"/>
   <g id="PolyCollection_20"/>
   <g id="line2d_37">
    <path d="M 489.228056 1081.517215 
L 489.428831 1085.427561 
L 489.830381 1085.603744 
L 492.038907 1085.599903 
L 492.440457 1085.418462 
L 497.259059 1084.399232 
L 502.679986 1083.477127 
L 508.904013 1082.648996 
L 515.529591 1081.989922 
L 523.560593 1081.421138 
L 533.197797 1080.97085 
L 545.244301 1080.642131 
L 556.086155 1080.534586 
L 583.793115 1081.095027 
L 603.067522 1081.236867 
L 635.593083 1081.322474 
L 635.593083 1081.322474 
" clip-path="url(#p5f5cb80990)" style="fill: none; stroke: #4c72b0; stroke-opacity: 0.9; stroke-width: 3; stroke-linecap: round"/>
   </g>
   <g id="line2d_38">
    <path d="M 489.228056 1081.517215 
L 489.428831 1083.64994 
L 489.830381 1083.772592 
L 491.838132 1083.783283 
L 492.239682 1083.694469 
L 498.664485 1082.946759 
L 506.093162 1082.326825 
L 514.927265 1081.82136 
L 525.969894 1081.433196 
L 540.425699 1081.161694 
L 556.28693 1081.073091 
L 594.032643 1081.354076 
L 635.593083 1081.400011 
L 635.593083 1081.400011 
" clip-path="url(#p5f5cb80990)" style="fill: none; stroke: #dd8452; stroke-opacity: 0.9; stroke-width: 3; stroke-linecap: round"/>
   </g>
   <g id="line2d_39">
    <path d="M 489.228056 1081.517215 
L 489.428831 1085.614975 
L 489.629606 1085.838511 
L 490.231932 1085.914122 
L 492.239682 1085.843742 
L 495.853634 1085.151562 
L 502.077661 1084.156456 
L 508.904013 1083.294565 
L 514.124165 1082.832749 
L 520.749742 1082.596401 
L 568.935759 1081.820999 
L 576.966762 1081.987036 
L 597.84737 1082.331008 
L 617.523327 1082.420978 
L 635.593083 1082.409349 
L 635.593083 1082.409349 
" clip-path="url(#p5f5cb80990)" style="fill: none; stroke: #55a868; stroke-opacity: 0.9; stroke-width: 3; stroke-linecap: round"/>
   </g>
   <g id="line2d_40">
    <path d="M 489.228056 1081.517215 
L 489.428831 1084.737715 
L 489.830381 1084.961701 
L 491.637357 1084.967886 
L 492.641232 1084.859111 
L 499.066035 1083.937994 
L 506.293937 1083.1308 
L 510.510214 1082.832389 
L 517.938891 1082.552037 
L 571.74661 1082.049837 
L 595.036519 1082.313984 
L 612.303175 1082.314736 
L 635.191533 1082.092502 
L 635.593083 1082.086397 
L 635.593083 1082.086397 
" clip-path="url(#p5f5cb80990)" style="fill: none; stroke: #c44e52; stroke-opacity: 0.9; stroke-width: 3; stroke-linecap: round"/>
   </g>
   <g id="patch_15">
    <path d="M 481.909805 1114.873427 
L 481.909805 1078.412664 
" style="fill: none; stroke: #ffffff; stroke-width: 1.25; stroke-linejoin: miter; stroke-linecap: square"/>
   </g>
   <g id="patch_16">
    <path d="M 481.909805 1114.873427 
L 642.911334 1114.873427 
" style="fill: none; stroke: #ffffff; stroke-width: 1.25; stroke-linejoin: miter; stroke-linecap: square"/>
   </g>
   <g id="text_21">
    <!-- reb90 -->
    <g style="fill: #262626" transform="translate(651.372177 1059.961295) rotate(-270) scale(0.252 -0.252)">
     <defs>
      <path id="DejaVuSans-39" d="M 703 97 
L 703 672 
Q 941 559 1184 500 
Q 1428 441 1663 441 
Q 2288 441 2617 861 
Q 2947 1281 2994 2138 
Q 2813 1869 2534 1725 
Q 2256 1581 1919 1581 
Q 1219 1581 811 2004 
Q 403 2428 403 3163 
Q 403 3881 828 4315 
Q 1253 4750 1959 4750 
Q 2769 4750 3195 4129 
Q 3622 3509 3622 2328 
Q 3622 1225 3098 567 
Q 2575 -91 1691 -91 
Q 1453 -91 1209 -44 
Q 966 3 703 97 
z
M 1959 2075 
Q 2384 2075 2632 2365 
Q 2881 2656 2881 3163 
Q 2881 3666 2632 3958 
Q 2384 4250 1959 4250 
Q 1534 4250 1286 3958 
Q 1038 3666 1038 3163 
Q 1038 2656 1286 2365 
Q 1534 2075 1959 2075 
z
" transform="scale(0.015625)"/>
     </defs>
     <use xlink:href="#DejaVuSans-72"/>
     <use xlink:href="#DejaVuSans-65" x="38.863281"/>
     <use xlink:href="#DejaVuSans-62" x="100.386719"/>
     <use xlink:href="#DejaVuSans-39" x="163.863281"/>
     <use xlink:href="#DejaVuSans-30" x="227.486328"/>
    </g>
   </g>
  </g>
  <g id="axes_6">
   <g id="patch_17">
    <path d="M 481.909805 1329.327881 
L 642.911334 1329.327881 
L 642.911334 1292.867119 
L 481.909805 1292.867119 
z
" style="fill: #eaeaf2"/>
   </g>
   <g id="matplotlib.axis_11">
    <g id="xtick_11">
     <g id="line2d_41">
      <path d="M 489.228056 1329.327881 
L 489.228056 1292.867119 
" clip-path="url(#p1d5a523e84)" style="fill: none; stroke: #ffffff; stroke-linecap: round"/>
     </g>
    </g>
    <g id="xtick_12">
     <g id="line2d_42">
      <path d="M 589.615592 1329.327881 
L 589.615592 1292.867119 
" clip-path="url(#p1d5a523e84)" style="fill: none; stroke: #ffffff; stroke-linecap: round"/>
     </g>
    </g>
   </g>
   <g id="matplotlib.axis_12">
    <g id="ytick_11">
     <g id="line2d_43">
      <path d="M 481.909805 1320.256979 
L 642.911334 1320.256979 
" clip-path="url(#p1d5a523e84)" style="fill: none; stroke: #ffffff; stroke-linecap: round"/>
     </g>
     <g id="text_22">
      <!-- −5 -->
      <g style="fill: #262626" transform="translate(438.355352 1329.033175) scale(0.231 -0.231)">
       <use xlink:href="#DejaVuSans-2212"/>
       <use xlink:href="#DejaVuSans-35" x="83.789062"/>
      </g>
     </g>
    </g>
    <g id="ytick_12">
     <g id="line2d_44">
      <path d="M 481.909805 1295.97167 
L 642.911334 1295.97167 
" clip-path="url(#p1d5a523e84)" style="fill: none; stroke: #ffffff; stroke-linecap: round"/>
     </g>
     <g id="text_23">
      <!-- 0 -->
      <g style="fill: #262626" transform="translate(457.71243 1304.747865) scale(0.231 -0.231)">
       <use xlink:href="#DejaVuSans-30"/>
      </g>
     </g>
    </g>
    <g id="text_24">
     <!-- % change -->
     <g style="fill: #262626" transform="translate(429.114539 1373.445844) rotate(-90) scale(0.252 -0.252)">
      <use xlink:href="#DejaVuSans-25"/>
      <use xlink:href="#DejaVuSans-20" x="95.019531"/>
      <use xlink:href="#DejaVuSans-63" x="126.806641"/>
      <use xlink:href="#DejaVuSans-68" x="181.787109"/>
      <use xlink:href="#DejaVuSans-61" x="245.166016"/>
      <use xlink:href="#DejaVuSans-6e" x="306.445312"/>
      <use xlink:href="#DejaVuSans-67" x="369.824219"/>
      <use xlink:href="#DejaVuSans-65" x="433.300781"/>
     </g>
    </g>
   </g>
   <g id="PolyCollection_21"/>
   <g id="PolyCollection_22"/>
   <g id="PolyCollection_23"/>
   <g id="PolyCollection_24"/>
   <g id="line2d_45">
    <path d="M 489.228056 1295.97167 
L 489.428831 1299.882015 
L 489.830381 1300.058199 
L 492.038907 1300.054358 
L 492.440457 1299.880651 
L 497.259059 1298.908241 
L 502.479211 1298.093706 
L 508.502463 1297.388479 
L 515.529591 1296.800505 
L 523.761368 1296.340596 
L 534.402447 1295.982405 
L 548.858252 1295.73422 
L 561.306307 1295.739374 
L 635.593083 1295.904242 
L 635.593083 1295.904242 
" clip-path="url(#p1d5a523e84)" style="fill: none; stroke: #4c72b0; stroke-opacity: 0.9; stroke-width: 3; stroke-linecap: round"/>
   </g>
   <g id="line2d_46">
    <path d="M 489.228056 1295.97167 
L 489.428831 1298.104394 
L 489.830381 1298.227046 
L 491.838132 1298.237737 
L 492.440457 1298.127134 
L 498.664485 1297.454641 
L 505.892387 1296.906543 
L 514.72649 1296.470424 
L 526.170669 1296.140575 
L 542.43345 1295.917709 
L 561.306307 1295.867832 
L 635.593083 1295.930525 
L 635.593083 1295.930525 
" clip-path="url(#p1d5a523e84)" style="fill: none; stroke: #dd8452; stroke-opacity: 0.9; stroke-width: 3; stroke-linecap: round"/>
   </g>
   <g id="line2d_47">
    <path d="M 489.228056 1295.97167 
L 489.428831 1300.06943 
L 489.629606 1300.292966 
L 490.231932 1300.368577 
L 492.440457 1300.25899 
L 497.459834 1299.294507 
L 503.282311 1298.405739 
L 509.707114 1297.651112 
L 517.135791 1297.0079 
L 525.568344 1296.505339 
L 536.410198 1296.092772 
L 550.263678 1295.798171 
L 564.317933 1295.723998 
L 621.338053 1295.911052 
L 635.593083 1295.9158 
L 635.593083 1295.9158 
" clip-path="url(#p1d5a523e84)" style="fill: none; stroke: #55a868; stroke-opacity: 0.9; stroke-width: 3; stroke-linecap: round"/>
   </g>
   <g id="line2d_48">
    <path d="M 489.228056 1295.97167 
L 489.428831 1299.192169 
L 489.830381 1299.416156 
L 491.637357 1299.42234 
L 492.641232 1299.3151 
L 498.46371 1298.443052 
L 505.089287 1297.684211 
L 512.71874 1297.044137 
L 520.950517 1296.577757 
L 533.197797 1296.135446 
L 546.448952 1295.869785 
L 561.908632 1295.76876 
L 635.593083 1295.928973 
L 635.593083 1295.928973 
" clip-path="url(#p1d5a523e84)" style="fill: none; stroke: #c44e52; stroke-opacity: 0.9; stroke-width: 3; stroke-linecap: round"/>
   </g>
   <g id="patch_18">
    <path d="M 481.909805 1329.327881 
L 481.909805 1292.867119 
" style="fill: none; stroke: #ffffff; stroke-width: 1.25; stroke-linejoin: miter; stroke-linecap: square"/>
   </g>
   <g id="patch_19">
    <path d="M 481.909805 1329.327881 
L 642.911334 1329.327881 
" style="fill: none; stroke: #ffffff; stroke-width: 1.25; stroke-linejoin: miter; stroke-linecap: square"/>
   </g>
   <g id="text_25">
    <!-- reb90q -->
    <g style="fill: #262626" transform="translate(651.372177 1266.416719) rotate(-270) scale(0.252 -0.252)">
     <use xlink:href="#DejaVuSans-72"/>
     <use xlink:href="#DejaVuSans-65" x="38.863281"/>
     <use xlink:href="#DejaVuSans-62" x="100.386719"/>
     <use xlink:href="#DejaVuSans-39" x="163.863281"/>
     <use xlink:href="#DejaVuSans-30" x="227.486328"/>
     <use xlink:href="#DejaVuSans-71" x="291.109375"/>
    </g>
   </g>
  </g>
  <g id="axes_7">
   <g id="patch_20">
    <path d="M 481.909805 1543.782336 
L 642.911334 1543.782336 
L 642.911334 1507.321573 
L 481.909805 1507.321573 
z
" style="fill: #eaeaf2"/>
   </g>
   <g id="matplotlib.axis_13">
    <g id="xtick_13">
     <g id="line2d_49">
      <path d="M 489.228056 1543.782336 
L 489.228056 1507.321573 
" clip-path="url(#pa10c686764)" style="fill: none; stroke: #ffffff; stroke-linecap: round"/>
     </g>
    </g>
    <g id="xtick_14">
     <g id="line2d_50">
      <path d="M 589.615592 1543.782336 
L 589.615592 1507.321573 
" clip-path="url(#pa10c686764)" style="fill: none; stroke: #ffffff; stroke-linecap: round"/>
     </g>
    </g>
   </g>
   <g id="matplotlib.axis_14">
    <g id="ytick_13">
     <g id="line2d_51">
      <path d="M 481.909805 1534.711434 
L 642.911334 1534.711434 
" clip-path="url(#pa10c686764)" style="fill: none; stroke: #ffffff; stroke-linecap: round"/>
     </g>
     <g id="text_26">
      <!-- −5 -->
      <g style="fill: #262626" transform="translate(438.355352 1543.487629) scale(0.231 -0.231)">
       <use xlink:href="#DejaVuSans-2212"/>
       <use xlink:href="#DejaVuSans-35" x="83.789062"/>
      </g>
     </g>
    </g>
    <g id="ytick_14">
     <g id="line2d_52">
      <path d="M 481.909805 1510.426124 
L 642.911334 1510.426124 
" clip-path="url(#pa10c686764)" style="fill: none; stroke: #ffffff; stroke-linecap: round"/>
     </g>
     <g id="text_27">
      <!-- 0 -->
      <g style="fill: #262626" transform="translate(457.71243 1519.20232) scale(0.231 -0.231)">
       <use xlink:href="#DejaVuSans-30"/>
      </g>
     </g>
    </g>
    <g id="text_28">
     <!-- % change -->
     <g style="fill: #262626" transform="translate(429.114539 1587.900298) rotate(-90) scale(0.252 -0.252)">
      <use xlink:href="#DejaVuSans-25"/>
      <use xlink:href="#DejaVuSans-20" x="95.019531"/>
      <use xlink:href="#DejaVuSans-63" x="126.806641"/>
      <use xlink:href="#DejaVuSans-68" x="181.787109"/>
      <use xlink:href="#DejaVuSans-61" x="245.166016"/>
      <use xlink:href="#DejaVuSans-6e" x="306.445312"/>
      <use xlink:href="#DejaVuSans-67" x="369.824219"/>
      <use xlink:href="#DejaVuSans-65" x="433.300781"/>
     </g>
    </g>
   </g>
   <g id="PolyCollection_25"/>
   <g id="PolyCollection_26"/>
   <g id="PolyCollection_27"/>
   <g id="PolyCollection_28"/>
   <g id="line2d_53">
    <path d="M 489.228056 1510.426124 
L 489.428831 1514.33647 
L 489.830381 1514.512653 
L 492.038907 1514.508812 
L 492.239682 1514.507081 
L 494.448208 1512.393694 
L 495.652859 1511.722753 
L 497.058284 1511.215617 
L 498.86526 1510.832406 
L 501.274561 1510.577345 
L 505.089287 1510.435301 
L 514.525715 1510.392297 
L 635.593083 1510.418282 
L 635.593083 1510.418282 
" clip-path="url(#pa10c686764)" style="fill: none; stroke: #4c72b0; stroke-opacity: 0.9; stroke-width: 3; stroke-linecap: round"/>
   </g>
   <g id="line2d_54">
    <path d="M 489.228056 1510.426124 
L 489.428831 1512.558849 
L 489.830381 1512.681501 
L 491.838132 1512.692192 
L 492.440457 1512.587868 
L 494.046658 1511.697294 
L 495.452083 1511.210463 
L 497.259059 1510.842486 
L 499.66836 1510.597124 
L 503.483086 1510.455286 
L 512.919515 1510.409559 
L 635.593083 1510.420981 
L 635.593083 1510.420981 
" clip-path="url(#pa10c686764)" style="fill: none; stroke: #dd8452; stroke-opacity: 0.9; stroke-width: 3; stroke-linecap: round"/>
   </g>
   <g id="line2d_55">
    <path d="M 489.228056 1510.426124 
L 489.428831 1514.523884 
L 489.629606 1514.74742 
L 490.231932 1514.823031 
L 492.239682 1514.807338 
L 494.247433 1512.680921 
L 495.452083 1511.911872 
L 496.857509 1511.331092 
L 498.46371 1510.92876 
L 500.672235 1510.633208 
L 503.884636 1510.458315 
L 510.108664 1510.392867 
L 543.437325 1510.405444 
L 635.593083 1510.419919 
L 635.593083 1510.419919 
" clip-path="url(#pa10c686764)" style="fill: none; stroke: #55a868; stroke-opacity: 0.9; stroke-width: 3; stroke-linecap: round"/>
   </g>
   <g id="line2d_56">
    <path d="M 489.228056 1510.426124 
L 489.428831 1513.646624 
L 489.830381 1513.87061 
L 491.637357 1513.876795 
L 492.239682 1513.872545 
L 494.247433 1512.203055 
L 495.452083 1511.597571 
L 496.857509 1511.139834 
L 498.664485 1510.793759 
L 501.274561 1510.550943 
L 505.290062 1510.42946 
L 518.340442 1510.394729 
L 635.593083 1510.420864 
L 635.593083 1510.420864 
" clip-path="url(#pa10c686764)" style="fill: none; stroke: #c44e52; stroke-opacity: 0.9; stroke-width: 3; stroke-linecap: round"/>
   </g>
   <g id="patch_21">
    <path d="M 481.909805 1543.782336 
L 481.909805 1507.321573 
" style="fill: none; stroke: #ffffff; stroke-width: 1.25; stroke-linejoin: miter; stroke-linecap: square"/>
   </g>
   <g id="patch_22">
    <path d="M 481.909805 1543.782336 
L 642.911334 1543.782336 
" style="fill: none; stroke: #ffffff; stroke-width: 1.25; stroke-linejoin: miter; stroke-linecap: square"/>
   </g>
   <g id="text_29">
    <!-- recS2 -->
    <g style="fill: #262626" transform="translate(651.372177 1489.958923) rotate(-270) scale(0.252 -0.252)">
     <defs>
      <path id="DejaVuSans-53" d="M 3425 4513 
L 3425 3897 
Q 3066 4069 2747 4153 
Q 2428 4238 2131 4238 
Q 1616 4238 1336 4038 
Q 1056 3838 1056 3469 
Q 1056 3159 1242 3001 
Q 1428 2844 1947 2747 
L 2328 2669 
Q 3034 2534 3370 2195 
Q 3706 1856 3706 1288 
Q 3706 609 3251 259 
Q 2797 -91 1919 -91 
Q 1588 -91 1214 -16 
Q 841 59 441 206 
L 441 856 
Q 825 641 1194 531 
Q 1563 422 1919 422 
Q 2459 422 2753 634 
Q 3047 847 3047 1241 
Q 3047 1584 2836 1778 
Q 2625 1972 2144 2069 
L 1759 2144 
Q 1053 2284 737 2584 
Q 422 2884 422 3419 
Q 422 4038 858 4394 
Q 1294 4750 2059 4750 
Q 2388 4750 2728 4690 
Q 3069 4631 3425 4513 
z
" transform="scale(0.015625)"/>
      <path id="DejaVuSans-32" d="M 1228 531 
L 3431 531 
L 3431 0 
L 469 0 
L 469 531 
Q 828 903 1448 1529 
Q 2069 2156 2228 2338 
Q 2531 2678 2651 2914 
Q 2772 3150 2772 3378 
Q 2772 3750 2511 3984 
Q 2250 4219 1831 4219 
Q 1534 4219 1204 4116 
Q 875 4013 500 3803 
L 500 4441 
Q 881 4594 1212 4672 
Q 1544 4750 1819 4750 
Q 2544 4750 2975 4387 
Q 3406 4025 3406 3419 
Q 3406 3131 3298 2873 
Q 3191 2616 2906 2266 
Q 2828 2175 2409 1742 
Q 1991 1309 1228 531 
z
" transform="scale(0.015625)"/>
     </defs>
     <use xlink:href="#DejaVuSans-72"/>
     <use xlink:href="#DejaVuSans-65" x="38.863281"/>
     <use xlink:href="#DejaVuSans-63" x="100.386719"/>
     <use xlink:href="#DejaVuSans-53" x="155.367188"/>
     <use xlink:href="#DejaVuSans-32" x="218.84375"/>
    </g>
   </g>
  </g>
  <g id="axes_8">
   <g id="patch_23">
    <path d="M 481.909805 1758.23679 
L 642.911334 1758.23679 
L 642.911334 1721.776028 
L 481.909805 1721.776028 
z
" style="fill: #eaeaf2"/>
   </g>
   <g id="matplotlib.axis_15">
    <g id="xtick_15">
     <g id="line2d_57">
      <path d="M 489.228056 1758.23679 
L 489.228056 1721.776028 
" clip-path="url(#pd0ab5f75e9)" style="fill: none; stroke: #ffffff; stroke-linecap: round"/>
     </g>
    </g>
    <g id="xtick_16">
     <g id="line2d_58">
      <path d="M 589.615592 1758.23679 
L 589.615592 1721.776028 
" clip-path="url(#pd0ab5f75e9)" style="fill: none; stroke: #ffffff; stroke-linecap: round"/>
     </g>
    </g>
   </g>
   <g id="matplotlib.axis_16">
    <g id="ytick_15">
     <g id="line2d_59">
      <path d="M 481.909805 1749.165888 
L 642.911334 1749.165888 
" clip-path="url(#pd0ab5f75e9)" style="fill: none; stroke: #ffffff; stroke-linecap: round"/>
     </g>
     <g id="text_30">
      <!-- −5 -->
      <g style="fill: #262626" transform="translate(438.355352 1757.942084) scale(0.231 -0.231)">
       <use xlink:href="#DejaVuSans-2212"/>
       <use xlink:href="#DejaVuSans-35" x="83.789062"/>
      </g>
     </g>
    </g>
    <g id="ytick_16">
     <g id="line2d_60">
      <path d="M 481.909805 1724.880579 
L 642.911334 1724.880579 
" clip-path="url(#pd0ab5f75e9)" style="fill: none; stroke: #ffffff; stroke-linecap: round"/>
     </g>
     <g id="text_31">
      <!-- 0 -->
      <g style="fill: #262626" transform="translate(457.71243 1733.656774) scale(0.231 -0.231)">
       <use xlink:href="#DejaVuSans-30"/>
      </g>
     </g>
    </g>
    <g id="text_32">
     <!-- % change -->
     <g style="fill: #262626" transform="translate(429.114539 1802.354753) rotate(-90) scale(0.252 -0.252)">
      <use xlink:href="#DejaVuSans-25"/>
      <use xlink:href="#DejaVuSans-20" x="95.019531"/>
      <use xlink:href="#DejaVuSans-63" x="126.806641"/>
      <use xlink:href="#DejaVuSans-68" x="181.787109"/>
      <use xlink:href="#DejaVuSans-61" x="245.166016"/>
      <use xlink:href="#DejaVuSans-6e" x="306.445312"/>
      <use xlink:href="#DejaVuSans-67" x="369.824219"/>
      <use xlink:href="#DejaVuSans-65" x="433.300781"/>
     </g>
    </g>
   </g>
   <g id="PolyCollection_29"/>
   <g id="PolyCollection_30"/>
   <g id="PolyCollection_31"/>
   <g id="PolyCollection_32"/>
   <g id="line2d_61">
    <path d="M 489.228056 1724.880579 
L 489.428831 1728.790925 
L 489.830381 1728.967108 
L 492.038907 1728.963267 
L 492.440457 1728.889787 
L 495.452083 1727.726645 
L 498.062159 1726.984209 
L 501.073785 1726.355888 
L 504.687737 1725.83182 
L 509.104788 1725.419625 
L 514.927265 1725.111703 
L 523.560593 1724.908379 
L 537.815623 1724.833765 
L 586.403191 1724.862254 
L 635.593083 1724.865751 
L 635.593083 1724.865751 
" clip-path="url(#pd0ab5f75e9)" style="fill: none; stroke: #4c72b0; stroke-opacity: 0.9; stroke-width: 3; stroke-linecap: round"/>
   </g>
   <g id="line2d_62">
    <path d="M 489.228056 1724.880579 
L 489.428831 1727.013303 
L 489.830381 1727.135956 
L 491.838132 1727.146646 
L 492.641232 1727.064715 
L 496.255184 1726.328698 
L 500.06991 1725.810943 
L 504.687737 1725.416327 
L 510.911764 1725.121253 
L 519.946642 1724.937136 
L 536.410198 1724.860532 
L 621.940378 1724.870717 
L 635.593083 1724.870928 
L 635.593083 1724.870928 
" clip-path="url(#pd0ab5f75e9)" style="fill: none; stroke: #dd8452; stroke-opacity: 0.9; stroke-width: 3; stroke-linecap: round"/>
   </g>
   <g id="line2d_63">
    <path d="M 489.228056 1724.880579 
L 489.428831 1728.978339 
L 489.629606 1729.201875 
L 490.231932 1729.277486 
L 492.440457 1729.183214 
L 495.251308 1728.005112 
L 497.861384 1727.188934 
L 500.87301 1726.498552 
L 504.286187 1725.948987 
L 508.502463 1725.501716 
L 513.92339 1725.163291 
L 521.352068 1724.939189 
L 532.997022 1724.832951 
L 559.298556 1724.84962 
L 635.593083 1724.868944 
L 635.593083 1724.868944 
" clip-path="url(#pd0ab5f75e9)" style="fill: none; stroke: #55a868; stroke-opacity: 0.9; stroke-width: 3; stroke-linecap: round"/>
   </g>
   <g id="line2d_64">
    <path d="M 489.228056 1724.880579 
L 489.428831 1728.101078 
L 489.830381 1728.325065 
L 491.637357 1728.331249 
L 492.440457 1728.266124 
L 495.652859 1727.228962 
L 498.664485 1726.535233 
L 502.077661 1725.983101 
L 506.293937 1725.533918 
L 511.714864 1725.192703 
L 519.143542 1724.964503 
L 531.190046 1724.850784 
L 558.495456 1724.854493 
L 635.593083 1724.87071 
L 635.593083 1724.87071 
" clip-path="url(#pd0ab5f75e9)" style="fill: none; stroke: #c44e52; stroke-opacity: 0.9; stroke-width: 3; stroke-linecap: round"/>
   </g>
   <g id="patch_24">
    <path d="M 481.909805 1758.23679 
L 481.909805 1721.776028 
" style="fill: none; stroke: #ffffff; stroke-width: 1.25; stroke-linejoin: miter; stroke-linecap: square"/>
   </g>
   <g id="patch_25">
    <path d="M 481.909805 1758.23679 
L 642.911334 1758.23679 
" style="fill: none; stroke: #ffffff; stroke-width: 1.25; stroke-linejoin: miter; stroke-linecap: square"/>
   </g>
   <g id="text_33">
    <!-- recS6 -->
    <g style="fill: #262626" transform="translate(651.372177 1704.413378) rotate(-270) scale(0.252 -0.252)">
     <use xlink:href="#DejaVuSans-72"/>
     <use xlink:href="#DejaVuSans-65" x="38.863281"/>
     <use xlink:href="#DejaVuSans-63" x="100.386719"/>
     <use xlink:href="#DejaVuSans-53" x="155.367188"/>
     <use xlink:href="#DejaVuSans-36" x="218.84375"/>
    </g>
   </g>
  </g>
  <g id="axes_9">
   <g id="patch_26">
    <path d="M 481.909805 1972.691245 
L 642.911334 1972.691245 
L 642.911334 1936.230483 
L 481.909805 1936.230483 
z
" style="fill: #eaeaf2"/>
   </g>
   <g id="matplotlib.axis_17">
    <g id="xtick_17">
     <g id="line2d_65">
      <path d="M 489.228056 1972.691245 
L 489.228056 1936.230483 
" clip-path="url(#pd03280cbf4)" style="fill: none; stroke: #ffffff; stroke-linecap: round"/>
     </g>
    </g>
    <g id="xtick_18">
     <g id="line2d_66">
      <path d="M 589.615592 1972.691245 
L 589.615592 1936.230483 
" clip-path="url(#pd03280cbf4)" style="fill: none; stroke: #ffffff; stroke-linecap: round"/>
     </g>
    </g>
   </g>
   <g id="matplotlib.axis_18">
    <g id="ytick_17">
     <g id="line2d_67">
      <path d="M 481.909805 1963.620343 
L 642.911334 1963.620343 
" clip-path="url(#pd03280cbf4)" style="fill: none; stroke: #ffffff; stroke-linecap: round"/>
     </g>
     <g id="text_34">
      <!-- −5 -->
      <g style="fill: #262626" transform="translate(438.355352 1972.396538) scale(0.231 -0.231)">
       <use xlink:href="#DejaVuSans-2212"/>
       <use xlink:href="#DejaVuSans-35" x="83.789062"/>
      </g>
     </g>
    </g>
    <g id="ytick_18">
     <g id="line2d_68">
      <path d="M 481.909805 1939.335033 
L 642.911334 1939.335033 
" clip-path="url(#pd03280cbf4)" style="fill: none; stroke: #ffffff; stroke-linecap: round"/>
     </g>
     <g id="text_35">
      <!-- 0 -->
      <g style="fill: #262626" transform="translate(457.71243 1948.111229) scale(0.231 -0.231)">
       <use xlink:href="#DejaVuSans-30"/>
      </g>
     </g>
    </g>
    <g id="text_36">
     <!-- % change -->
     <g style="fill: #262626" transform="translate(429.114539 2016.809207) rotate(-90) scale(0.252 -0.252)">
      <use xlink:href="#DejaVuSans-25"/>
      <use xlink:href="#DejaVuSans-20" x="95.019531"/>
      <use xlink:href="#DejaVuSans-63" x="126.806641"/>
      <use xlink:href="#DejaVuSans-68" x="181.787109"/>
      <use xlink:href="#DejaVuSans-61" x="245.166016"/>
      <use xlink:href="#DejaVuSans-6e" x="306.445312"/>
      <use xlink:href="#DejaVuSans-67" x="369.824219"/>
      <use xlink:href="#DejaVuSans-65" x="433.300781"/>
     </g>
    </g>
   </g>
   <g id="PolyCollection_33"/>
   <g id="PolyCollection_34"/>
   <g id="PolyCollection_35"/>
   <g id="PolyCollection_36"/>
   <g id="line2d_69">
    <path d="M 489.228056 1939.335033 
L 489.428831 1943.245379 
L 489.830381 1943.421562 
L 492.038907 1943.417721 
L 492.239682 1943.41599 
L 492.842008 1942.629787 
L 495.050533 1939.468506 
L 495.452083 1939.313548 
L 500.87301 1939.307422 
L 635.593083 1939.329104 
L 635.593083 1939.329104 
" clip-path="url(#pd03280cbf4)" style="fill: none; stroke: #4c72b0; stroke-opacity: 0.9; stroke-width: 3; stroke-linecap: round"/>
   </g>
   <g id="line2d_70">
    <path d="M 489.228056 1939.335033 
L 489.428831 1941.467758 
L 489.830381 1941.59041 
L 491.838132 1941.601101 
L 492.239682 1941.599411 
L 493.042783 1941.027591 
L 495.251308 1939.362623 
L 496.255184 1939.323023 
L 635.593083 1939.331039 
L 635.593083 1939.331039 
" clip-path="url(#pd03280cbf4)" style="fill: none; stroke: #dd8452; stroke-opacity: 0.9; stroke-width: 3; stroke-linecap: round"/>
   </g>
   <g id="line2d_71">
    <path d="M 489.228056 1939.335033 
L 489.428831 1943.432793 
L 489.629606 1943.656329 
L 490.231932 1943.73194 
L 492.239682 1943.716248 
L 493.042783 1942.541913 
L 495.050533 1939.478265 
L 495.452083 1939.313106 
L 499.869135 1939.305577 
L 635.593083 1939.330236 
L 635.593083 1939.330236 
" clip-path="url(#pd03280cbf4)" style="fill: none; stroke: #55a868; stroke-opacity: 0.9; stroke-width: 3; stroke-linecap: round"/>
   </g>
   <g id="line2d_72">
    <path d="M 489.228056 1939.335033 
L 489.428831 1942.555533 
L 489.830381 1942.779519 
L 491.637357 1942.785704 
L 492.239682 1942.781454 
L 493.042783 1941.86208 
L 495.050533 1939.450991 
L 495.452083 1939.319563 
L 500.672235 1939.313003 
L 635.593083 1939.330972 
L 635.593083 1939.330972 
" clip-path="url(#pd03280cbf4)" style="fill: none; stroke: #c44e52; stroke-opacity: 0.9; stroke-width: 3; stroke-linecap: round"/>
   </g>
   <g id="patch_27">
    <path d="M 481.909805 1972.691245 
L 481.909805 1936.230483 
" style="fill: none; stroke: #ffffff; stroke-width: 1.25; stroke-linejoin: miter; stroke-linecap: square"/>
   </g>
   <g id="patch_28">
    <path d="M 481.909805 1972.691245 
L 642.911334 1972.691245 
" style="fill: none; stroke: #ffffff; stroke-width: 1.25; stroke-linejoin: miter; stroke-linecap: square"/>
   </g>
   <g id="text_37">
    <!-- recfast -->
    <g style="fill: #262626" transform="translate(651.372177 1911.223176) rotate(-270) scale(0.252 -0.252)">
     <defs>
      <path id="DejaVuSans-66" d="M 2375 4863 
L 2375 4384 
L 1825 4384 
Q 1516 4384 1395 4259 
Q 1275 4134 1275 3809 
L 1275 3500 
L 2222 3500 
L 2222 3053 
L 1275 3053 
L 1275 0 
L 697 0 
L 697 3053 
L 147 3053 
L 147 3500 
L 697 3500 
L 697 3744 
Q 697 4328 969 4595 
Q 1241 4863 1831 4863 
L 2375 4863 
z
" transform="scale(0.015625)"/>
      <path id="DejaVuSans-73" d="M 2834 3397 
L 2834 2853 
Q 2591 2978 2328 3040 
Q 2066 3103 1784 3103 
Q 1356 3103 1142 2972 
Q 928 2841 928 2578 
Q 928 2378 1081 2264 
Q 1234 2150 1697 2047 
L 1894 2003 
Q 2506 1872 2764 1633 
Q 3022 1394 3022 966 
Q 3022 478 2636 193 
Q 2250 -91 1575 -91 
Q 1294 -91 989 -36 
Q 684 19 347 128 
L 347 722 
Q 666 556 975 473 
Q 1284 391 1588 391 
Q 1994 391 2212 530 
Q 2431 669 2431 922 
Q 2431 1156 2273 1281 
Q 2116 1406 1581 1522 
L 1381 1569 
Q 847 1681 609 1914 
Q 372 2147 372 2553 
Q 372 3047 722 3315 
Q 1072 3584 1716 3584 
Q 2034 3584 2315 3537 
Q 2597 3491 2834 3397 
z
" transform="scale(0.015625)"/>
      <path id="DejaVuSans-74" d="M 1172 4494 
L 1172 3500 
L 2356 3500 
L 2356 3053 
L 1172 3053 
L 1172 1153 
Q 1172 725 1289 603 
Q 1406 481 1766 481 
L 2356 481 
L 2356 0 
L 1766 0 
Q 1100 0 847 248 
Q 594 497 594 1153 
L 594 3053 
L 172 3053 
L 172 3500 
L 594 3500 
L 594 4494 
L 1172 4494 
z
" transform="scale(0.015625)"/>
     </defs>
     <use xlink:href="#DejaVuSans-72"/>
     <use xlink:href="#DejaVuSans-65" x="38.863281"/>
     <use xlink:href="#DejaVuSans-63" x="100.386719"/>
     <use xlink:href="#DejaVuSans-66" x="155.367188"/>
     <use xlink:href="#DejaVuSans-61" x="190.572266"/>
     <use xlink:href="#DejaVuSans-73" x="251.851562"/>
     <use xlink:href="#DejaVuSans-74" x="303.951172"/>
    </g>
   </g>
  </g>
  <g id="axes_10">
   <g id="patch_29">
    <path d="M 481.909805 2187.145699 
L 642.911334 2187.145699 
L 642.911334 2150.684937 
L 481.909805 2150.684937 
z
" style="fill: #eaeaf2"/>
   </g>
   <g id="matplotlib.axis_19">
    <g id="xtick_19">
     <g id="line2d_73">
      <path d="M 489.228056 2187.145699 
L 489.228056 2150.684937 
" clip-path="url(#p5b520da94b)" style="fill: none; stroke: #ffffff; stroke-linecap: round"/>
     </g>
    </g>
    <g id="xtick_20">
     <g id="line2d_74">
      <path d="M 589.615592 2187.145699 
L 589.615592 2150.684937 
" clip-path="url(#p5b520da94b)" style="fill: none; stroke: #ffffff; stroke-linecap: round"/>
     </g>
    </g>
   </g>
   <g id="matplotlib.axis_20">
    <g id="ytick_19">
     <g id="line2d_75">
      <path d="M 481.909805 2178.074798 
L 642.911334 2178.074798 
" clip-path="url(#p5b520da94b)" style="fill: none; stroke: #ffffff; stroke-linecap: round"/>
     </g>
     <g id="text_38">
      <!-- −5 -->
      <g style="fill: #262626" transform="translate(438.355352 2186.850993) scale(0.231 -0.231)">
       <use xlink:href="#DejaVuSans-2212"/>
       <use xlink:href="#DejaVuSans-35" x="83.789062"/>
      </g>
     </g>
    </g>
    <g id="ytick_20">
     <g id="line2d_76">
      <path d="M 481.909805 2153.789488 
L 642.911334 2153.789488 
" clip-path="url(#p5b520da94b)" style="fill: none; stroke: #ffffff; stroke-linecap: round"/>
     </g>
     <g id="text_39">
      <!-- 0 -->
      <g style="fill: #262626" transform="translate(457.71243 2162.565683) scale(0.231 -0.231)">
       <use xlink:href="#DejaVuSans-30"/>
      </g>
     </g>
    </g>
    <g id="text_40">
     <!-- % change -->
     <g style="fill: #262626" transform="translate(429.114539 2231.263662) rotate(-90) scale(0.252 -0.252)">
      <use xlink:href="#DejaVuSans-25"/>
      <use xlink:href="#DejaVuSans-20" x="95.019531"/>
      <use xlink:href="#DejaVuSans-63" x="126.806641"/>
      <use xlink:href="#DejaVuSans-68" x="181.787109"/>
      <use xlink:href="#DejaVuSans-61" x="245.166016"/>
      <use xlink:href="#DejaVuSans-6e" x="306.445312"/>
      <use xlink:href="#DejaVuSans-67" x="369.824219"/>
      <use xlink:href="#DejaVuSans-65" x="433.300781"/>
     </g>
    </g>
   </g>
   <g id="PolyCollection_37"/>
   <g id="PolyCollection_38"/>
   <g id="PolyCollection_39"/>
   <g id="PolyCollection_40"/>
   <g id="line2d_77">
    <path d="M 489.228056 2153.789488 
L 489.428831 2157.699834 
L 489.830381 2157.876017 
L 492.038907 2157.872176 
L 492.440457 2157.815683 
L 498.86526 2155.590592 
L 504.486962 2153.735293 
L 554.881504 2153.765133 
L 635.593083 2153.777939 
L 635.593083 2153.777939 
" clip-path="url(#p5b520da94b)" style="fill: none; stroke: #4c72b0; stroke-opacity: 0.9; stroke-width: 3; stroke-linecap: round"/>
   </g>
   <g id="line2d_78">
    <path d="M 489.228056 2153.789488 
L 489.428831 2155.922213 
L 489.830381 2156.044865 
L 491.838132 2156.055555 
L 492.842008 2155.955015 
L 504.888512 2153.76437 
L 635.593083 2153.781901 
L 635.593083 2153.781901 
" clip-path="url(#p5b520da94b)" style="fill: none; stroke: #dd8452; stroke-opacity: 0.9; stroke-width: 3; stroke-linecap: round"/>
   </g>
   <g id="line2d_79">
    <path d="M 489.228056 2153.789488 
L 489.428831 2157.887248 
L 489.629606 2158.110784 
L 490.231932 2158.186395 
L 492.440457 2158.110835 
L 498.664485 2155.79299 
L 504.486962 2153.731853 
L 546.047401 2153.759663 
L 629.971381 2153.780242 
L 635.593083 2153.780234 
L 635.593083 2153.780234 
" clip-path="url(#p5b520da94b)" style="fill: none; stroke: #55a868; stroke-opacity: 0.9; stroke-width: 3; stroke-linecap: round"/>
   </g>
   <g id="line2d_80">
    <path d="M 489.228056 2153.789488 
L 489.428831 2157.009988 
L 489.830381 2157.233974 
L 491.637357 2157.240158 
L 492.641232 2157.133938 
L 504.687737 2153.746479 
L 603.067522 2153.781623 
L 635.593083 2153.781644 
L 635.593083 2153.781644 
" clip-path="url(#p5b520da94b)" style="fill: none; stroke: #c44e52; stroke-opacity: 0.9; stroke-width: 3; stroke-linecap: round"/>
   </g>
   <g id="patch_30">
    <path d="M 481.909805 2187.145699 
L 481.909805 2150.684937 
" style="fill: none; stroke: #ffffff; stroke-width: 1.25; stroke-linejoin: miter; stroke-linecap: square"/>
   </g>
   <g id="patch_31">
    <path d="M 481.909805 2187.145699 
L 642.911334 2187.145699 
" style="fill: none; stroke: #ffffff; stroke-width: 1.25; stroke-linejoin: miter; stroke-linecap: square"/>
   </g>
   <g id="text_41">
    <!-- reclin2 -->
    <g style="fill: #262626" transform="translate(651.372177 2126.335193) rotate(-270) scale(0.252 -0.252)">
     <defs>
      <path id="DejaVuSans-6c" d="M 603 4863 
L 1178 4863 
L 1178 0 
L 603 0 
L 603 4863 
z
" transform="scale(0.015625)"/>
      <path id="DejaVuSans-69" d="M 603 3500 
L 1178 3500 
L 1178 0 
L 603 0 
L 603 3500 
z
M 603 4863 
L 1178 4863 
L 1178 4134 
L 603 4134 
L 603 4863 
z
" transform="scale(0.015625)"/>
     </defs>
     <use xlink:href="#DejaVuSans-72"/>
     <use xlink:href="#DejaVuSans-65" x="38.863281"/>
     <use xlink:href="#DejaVuSans-63" x="100.386719"/>
     <use xlink:href="#DejaVuSans-6c" x="155.367188"/>
     <use xlink:href="#DejaVuSans-69" x="183.150391"/>
     <use xlink:href="#DejaVuSans-6e" x="210.933594"/>
     <use xlink:href="#DejaVuSans-32" x="274.3125"/>
    </g>
   </g>
  </g>
  <g id="axes_11">
   <g id="patch_32">
    <path d="M 481.909805 2401.600154 
L 642.911334 2401.600154 
L 642.911334 2365.139392 
L 481.909805 2365.139392 
z
" style="fill: #eaeaf2"/>
   </g>
   <g id="matplotlib.axis_21">
    <g id="xtick_21">
     <g id="line2d_81">
      <path d="M 489.228056 2401.600154 
L 489.228056 2365.139392 
" clip-path="url(#pb83176a13b)" style="fill: none; stroke: #ffffff; stroke-linecap: round"/>
     </g>
     <g id="text_42">
      <!-- 0 -->
      <g style="fill: #262626" transform="translate(481.879369 2428.652544) scale(0.231 -0.231)">
       <use xlink:href="#DejaVuSans-30"/>
      </g>
     </g>
    </g>
    <g id="xtick_22">
     <g id="line2d_82">
      <path d="M 589.615592 2401.600154 
L 589.615592 2365.139392 
" clip-path="url(#pb83176a13b)" style="fill: none; stroke: #ffffff; stroke-linecap: round"/>
     </g>
     <g id="text_43">
      <!-- 500 -->
      <g style="fill: #262626" transform="translate(567.569529 2428.652544) scale(0.231 -0.231)">
       <use xlink:href="#DejaVuSans-35"/>
       <use xlink:href="#DejaVuSans-30" x="63.623047"/>
       <use xlink:href="#DejaVuSans-30" x="127.246094"/>
      </g>
     </g>
    </g>
    <g id="text_44">
     <!-- step -->
     <g style="fill: #262626" transform="translate(535.155195 2456.604685) scale(0.252 -0.252)">
      <defs>
       <path id="DejaVuSans-70" d="M 1159 525 
L 1159 -1331 
L 581 -1331 
L 581 3500 
L 1159 3500 
L 1159 2969 
Q 1341 3281 1617 3432 
Q 1894 3584 2278 3584 
Q 2916 3584 3314 3078 
Q 3713 2572 3713 1747 
Q 3713 922 3314 415 
Q 2916 -91 2278 -91 
Q 1894 -91 1617 61 
Q 1341 213 1159 525 
z
M 3116 1747 
Q 3116 2381 2855 2742 
Q 2594 3103 2138 3103 
Q 1681 3103 1420 2742 
Q 1159 2381 1159 1747 
Q 1159 1113 1420 752 
Q 1681 391 2138 391 
Q 2594 391 2855 752 
Q 3116 1113 3116 1747 
z
" transform="scale(0.015625)"/>
      </defs>
      <use xlink:href="#DejaVuSans-73"/>
      <use xlink:href="#DejaVuSans-74" x="52.099609"/>
      <use xlink:href="#DejaVuSans-65" x="91.308594"/>
      <use xlink:href="#DejaVuSans-70" x="152.832031"/>
     </g>
    </g>
   </g>
   <g id="matplotlib.axis_22">
    <g id="ytick_21">
     <g id="line2d_83">
      <path d="M 481.909805 2392.529252 
L 642.911334 2392.529252 
" clip-path="url(#pb83176a13b)" style="fill: none; stroke: #ffffff; stroke-linecap: round"/>
     </g>
     <g id="text_45">
      <!-- −5 -->
      <g style="fill: #262626" transform="translate(438.355352 2401.305447) scale(0.231 -0.231)">
       <use xlink:href="#DejaVuSans-2212"/>
       <use xlink:href="#DejaVuSans-35" x="83.789062"/>
      </g>
     </g>
    </g>
    <g id="ytick_22">
     <g id="line2d_84">
      <path d="M 481.909805 2368.243942 
L 642.911334 2368.243942 
" clip-path="url(#pb83176a13b)" style="fill: none; stroke: #ffffff; stroke-linecap: round"/>
     </g>
     <g id="text_46">
      <!-- 0 -->
      <g style="fill: #262626" transform="translate(457.71243 2377.020138) scale(0.231 -0.231)">
       <use xlink:href="#DejaVuSans-30"/>
      </g>
     </g>
    </g>
    <g id="text_47">
     <!-- % change -->
     <g style="fill: #262626" transform="translate(429.114539 2445.718116) rotate(-90) scale(0.252 -0.252)">
      <use xlink:href="#DejaVuSans-25"/>
      <use xlink:href="#DejaVuSans-20" x="95.019531"/>
      <use xlink:href="#DejaVuSans-63" x="126.806641"/>
      <use xlink:href="#DejaVuSans-68" x="181.787109"/>
      <use xlink:href="#DejaVuSans-61" x="245.166016"/>
      <use xlink:href="#DejaVuSans-6e" x="306.445312"/>
      <use xlink:href="#DejaVuSans-67" x="369.824219"/>
      <use xlink:href="#DejaVuSans-65" x="433.300781"/>
     </g>
    </g>
   </g>
   <g id="PolyCollection_41"/>
   <g id="PolyCollection_42"/>
   <g id="PolyCollection_43"/>
   <g id="PolyCollection_44"/>
   <g id="line2d_85">
    <path d="M 489.228056 2368.243942 
L 489.428831 2372.154288 
L 489.830381 2372.330471 
L 492.038907 2372.32663 
L 493.243558 2372.209213 
L 524.765244 2368.476243 
L 528.98152 2368.120588 
L 635.593083 2368.218218 
L 635.593083 2368.218218 
" clip-path="url(#pb83176a13b)" style="fill: none; stroke: #4c72b0; stroke-opacity: 0.9; stroke-width: 3; stroke-linecap: round"/>
   </g>
   <g id="line2d_86">
    <path d="M 489.228056 2368.243942 
L 489.428831 2370.376667 
L 489.830381 2370.499319 
L 491.838132 2370.51001 
L 494.046658 2370.393219 
L 528.57997 2368.181963 
L 635.593083 2368.22724 
L 635.593083 2368.22724 
" clip-path="url(#pb83176a13b)" style="fill: none; stroke: #dd8452; stroke-opacity: 0.9; stroke-width: 3; stroke-linecap: round"/>
   </g>
   <g id="line2d_87">
    <path d="M 489.228056 2368.243942 
L 489.428831 2372.341702 
L 489.629606 2372.565239 
L 490.231932 2372.64085 
L 492.842008 2372.553268 
L 526.371444 2368.290521 
L 529.38307 2368.098782 
L 571.545835 2368.206116 
L 635.593083 2368.223711 
L 635.593083 2368.223711 
" clip-path="url(#pb83176a13b)" style="fill: none; stroke: #55a868; stroke-opacity: 0.9; stroke-width: 3; stroke-linecap: round"/>
   </g>
   <g id="line2d_88">
    <path d="M 489.228056 2368.243942 
L 489.428831 2371.464442 
L 489.830381 2371.688428 
L 491.637357 2371.694613 
L 493.444333 2371.572334 
L 526.772995 2368.252346 
L 529.784621 2368.134388 
L 579.777613 2368.2202 
L 635.593083 2368.226763 
L 635.593083 2368.226763 
" clip-path="url(#pb83176a13b)" style="fill: none; stroke: #c44e52; stroke-opacity: 0.9; stroke-width: 3; stroke-linecap: round"/>
   </g>
   <g id="patch_33">
    <path d="M 481.909805 2401.600154 
L 481.909805 2365.139392 
" style="fill: none; stroke: #ffffff; stroke-width: 1.25; stroke-linejoin: miter; stroke-linecap: square"/>
   </g>
   <g id="patch_34">
    <path d="M 481.909805 2401.600154 
L 642.911334 2401.600154 
" style="fill: none; stroke: #ffffff; stroke-width: 1.25; stroke-linejoin: miter; stroke-linecap: square"/>
   </g>
   <g id="text_48">
    <!-- reclin6 -->
    <g style="fill: #262626" transform="translate(651.372177 2340.789648) rotate(-270) scale(0.252 -0.252)">
     <use xlink:href="#DejaVuSans-72"/>
     <use xlink:href="#DejaVuSans-65" x="38.863281"/>
     <use xlink:href="#DejaVuSans-63" x="100.386719"/>
     <use xlink:href="#DejaVuSans-6c" x="155.367188"/>
     <use xlink:href="#DejaVuSans-69" x="183.150391"/>
     <use xlink:href="#DejaVuSans-6e" x="210.933594"/>
     <use xlink:href="#DejaVuSans-36" x="274.3125"/>
    </g>
   </g>
  </g>
  <g id="text_49">
   <!-- Production change from pre-shock level -->
   <g style="fill: #262626" transform="translate(287.700797 30.177675) scale(0.3024 -0.3024)">
    <defs>
     <path id="DejaVuSans-50" d="M 1259 4147 
L 1259 2394 
L 2053 2394 
Q 2494 2394 2734 2622 
Q 2975 2850 2975 3272 
Q 2975 3691 2734 3919 
Q 2494 4147 2053 4147 
L 1259 4147 
z
M 628 4666 
L 2053 4666 
Q 2838 4666 3239 4311 
Q 3641 3956 3641 3272 
Q 3641 2581 3239 2228 
Q 2838 1875 2053 1875 
L 1259 1875 
L 1259 0 
L 628 0 
L 628 4666 
z
" transform="scale(0.015625)"/>
     <path id="DejaVuSans-6f" d="M 1959 3097 
Q 1497 3097 1228 2736 
Q 959 2375 959 1747 
Q 959 1119 1226 758 
Q 1494 397 1959 397 
Q 2419 397 2687 759 
Q 2956 1122 2956 1747 
Q 2956 2369 2687 2733 
Q 2419 3097 1959 3097 
z
M 1959 3584 
Q 2709 3584 3137 3096 
Q 3566 2609 3566 1747 
Q 3566 888 3137 398 
Q 2709 -91 1959 -91 
Q 1206 -91 779 398 
Q 353 888 353 1747 
Q 353 2609 779 3096 
Q 1206 3584 1959 3584 
z
" transform="scale(0.015625)"/>
     <path id="DejaVuSans-64" d="M 2906 2969 
L 2906 4863 
L 3481 4863 
L 3481 0 
L 2906 0 
L 2906 525 
Q 2725 213 2448 61 
Q 2172 -91 1784 -91 
Q 1150 -91 751 415 
Q 353 922 353 1747 
Q 353 2572 751 3078 
Q 1150 3584 1784 3584 
Q 2172 3584 2448 3432 
Q 2725 3281 2906 2969 
z
M 947 1747 
Q 947 1113 1208 752 
Q 1469 391 1925 391 
Q 2381 391 2643 752 
Q 2906 1113 2906 1747 
Q 2906 2381 2643 2742 
Q 2381 3103 1925 3103 
Q 1469 3103 1208 2742 
Q 947 2381 947 1747 
z
" transform="scale(0.015625)"/>
     <path id="DejaVuSans-75" d="M 544 1381 
L 544 3500 
L 1119 3500 
L 1119 1403 
Q 1119 906 1312 657 
Q 1506 409 1894 409 
Q 2359 409 2629 706 
Q 2900 1003 2900 1516 
L 2900 3500 
L 3475 3500 
L 3475 0 
L 2900 0 
L 2900 538 
Q 2691 219 2414 64 
Q 2138 -91 1772 -91 
Q 1169 -91 856 284 
Q 544 659 544 1381 
z
M 1991 3584 
L 1991 3584 
z
" transform="scale(0.015625)"/>
     <path id="DejaVuSans-6d" d="M 3328 2828 
Q 3544 3216 3844 3400 
Q 4144 3584 4550 3584 
Q 5097 3584 5394 3201 
Q 5691 2819 5691 2113 
L 5691 0 
L 5113 0 
L 5113 2094 
Q 5113 2597 4934 2840 
Q 4756 3084 4391 3084 
Q 3944 3084 3684 2787 
Q 3425 2491 3425 1978 
L 3425 0 
L 2847 0 
L 2847 2094 
Q 2847 2600 2669 2842 
Q 2491 3084 2119 3084 
Q 1678 3084 1418 2786 
Q 1159 2488 1159 1978 
L 1159 0 
L 581 0 
L 581 3500 
L 1159 3500 
L 1159 2956 
Q 1356 3278 1631 3431 
Q 1906 3584 2284 3584 
Q 2666 3584 2933 3390 
Q 3200 3197 3328 2828 
z
" transform="scale(0.015625)"/>
     <path id="DejaVuSans-2d" d="M 313 2009 
L 1997 2009 
L 1997 1497 
L 313 1497 
L 313 2009 
z
" transform="scale(0.015625)"/>
     <path id="DejaVuSans-6b" d="M 581 4863 
L 1159 4863 
L 1159 1991 
L 2875 3500 
L 3609 3500 
L 1753 1863 
L 3688 0 
L 2938 0 
L 1159 1709 
L 1159 0 
L 581 0 
L 581 4863 
z
" transform="scale(0.015625)"/>
     <path id="DejaVuSans-76" d="M 191 3500 
L 800 3500 
L 1894 563 
L 2988 3500 
L 3597 3500 
L 2284 0 
L 1503 0 
L 191 3500 
z
" transform="scale(0.015625)"/>
    </defs>
    <use xlink:href="#DejaVuSans-50"/>
    <use xlink:href="#DejaVuSans-72" x="58.552734"/>
    <use xlink:href="#DejaVuSans-6f" x="97.416016"/>
    <use xlink:href="#DejaVuSans-64" x="158.597656"/>
    <use xlink:href="#DejaVuSans-75" x="222.074219"/>
    <use xlink:href="#DejaVuSans-63" x="285.453125"/>
    <use xlink:href="#DejaVuSans-74" x="340.433594"/>
    <use xlink:href="#DejaVuSans-69" x="379.642578"/>
    <use xlink:href="#DejaVuSans-6f" x="407.425781"/>
    <use xlink:href="#DejaVuSans-6e" x="468.607422"/>
    <use xlink:href="#DejaVuSans-20" x="531.986328"/>
    <use xlink:href="#DejaVuSans-63" x="563.773438"/>
    <use xlink:href="#DejaVuSans-68" x="618.753906"/>
    <use xlink:href="#DejaVuSans-61" x="682.132812"/>
    <use xlink:href="#DejaVuSans-6e" x="743.412109"/>
    <use xlink:href="#DejaVuSans-67" x="806.791016"/>
    <use xlink:href="#DejaVuSans-65" x="870.267578"/>
    <use xlink:href="#DejaVuSans-20" x="931.791016"/>
    <use xlink:href="#DejaVuSans-66" x="963.578125"/>
    <use xlink:href="#DejaVuSans-72" x="998.783203"/>
    <use xlink:href="#DejaVuSans-6f" x="1037.646484"/>
    <use xlink:href="#DejaVuSans-6d" x="1098.828125"/>
    <use xlink:href="#DejaVuSans-20" x="1196.240234"/>
    <use xlink:href="#DejaVuSans-70" x="1228.027344"/>
    <use xlink:href="#DejaVuSans-72" x="1291.503906"/>
    <use xlink:href="#DejaVuSans-65" x="1330.367188"/>
    <use xlink:href="#DejaVuSans-2d" x="1391.890625"/>
    <use xlink:href="#DejaVuSans-73" x="1427.974609"/>
    <use xlink:href="#DejaVuSans-68" x="1480.074219"/>
    <use xlink:href="#DejaVuSans-6f" x="1543.453125"/>
    <use xlink:href="#DejaVuSans-63" x="1604.634766"/>
    <use xlink:href="#DejaVuSans-6b" x="1659.615234"/>
    <use xlink:href="#DejaVuSans-20" x="1717.525391"/>
    <use xlink:href="#DejaVuSans-6c" x="1749.3125"/>
    <use xlink:href="#DejaVuSans-65" x="1777.095703"/>
    <use xlink:href="#DejaVuSans-76" x="1838.619141"/>
    <use xlink:href="#DejaVuSans-65" x="1897.798828"/>
    <use xlink:href="#DejaVuSans-6c" x="1959.322266"/>
   </g>
  </g>
  <g id="legend_1">
   <g id="patch_35">
    <path d="M 11.82 2590.967813 
L 1225.674469 2590.967813 
Q 1230.294469 2590.967813 1230.294469 2586.347812 
L 1230.294469 2518.17 
Q 1230.294469 2513.55 1225.674469 2513.55 
L 11.82 2513.55 
Q 7.2 2513.55 7.2 2518.17 
L 7.2 2586.347812 
Q 7.2 2590.967813 11.82 2590.967813 
z
" style="fill: #eaeaf2; opacity: 0.8; stroke: #cccccc; stroke-linejoin: miter"/>
   </g>
   <g id="text_50">
    <!-- Experiences -->
    <g style="fill: #262626" transform="translate(541.912828 2541.938062) scale(0.252 -0.252)">
     <defs>
      <path id="DejaVuSans-45" d="M 628 4666 
L 3578 4666 
L 3578 4134 
L 1259 4134 
L 1259 2753 
L 3481 2753 
L 3481 2222 
L 1259 2222 
L 1259 531 
L 3634 531 
L 3634 0 
L 628 0 
L 628 4666 
z
" transform="scale(0.015625)"/>
      <path id="DejaVuSans-78" d="M 3513 3500 
L 2247 1797 
L 3578 0 
L 2900 0 
L 1881 1375 
L 863 0 
L 184 0 
L 1544 1831 
L 300 3500 
L 978 3500 
L 1906 2253 
L 2834 3500 
L 3513 3500 
z
" transform="scale(0.015625)"/>
     </defs>
     <use xlink:href="#DejaVuSans-45"/>
     <use xlink:href="#DejaVuSans-78" x="63.183594"/>
     <use xlink:href="#DejaVuSans-70" x="122.363281"/>
     <use xlink:href="#DejaVuSans-65" x="185.839844"/>
     <use xlink:href="#DejaVuSans-72" x="247.363281"/>
     <use xlink:href="#DejaVuSans-69" x="288.476562"/>
     <use xlink:href="#DejaVuSans-65" x="316.259766"/>
     <use xlink:href="#DejaVuSans-6e" x="377.783203"/>
     <use xlink:href="#DejaVuSans-63" x="441.162109"/>
     <use xlink:href="#DejaVuSans-65" x="496.142578"/>
     <use xlink:href="#DejaVuSans-73" x="557.666016"/>
    </g>
   </g>
   <g id="line2d_89">
    <path d="M 16.44 2568.196266 
L 39.54 2568.196266 
L 62.64 2568.196266 
" style="fill: none; stroke: #4c72b0; stroke-opacity: 0.9; stroke-width: 3; stroke-linecap: round"/>
   </g>
   <g id="text_51">
    <!-- eora26_full_2000 -->
    <g style="fill: #262626" transform="translate(81.12 2576.281266) scale(0.231 -0.231)">
     <defs>
      <path id="DejaVuSans-5f" d="M 3263 -1063 
L 3263 -1509 
L -63 -1509 
L -63 -1063 
L 3263 -1063 
z
" transform="scale(0.015625)"/>
     </defs>
     <use xlink:href="#DejaVuSans-65"/>
     <use xlink:href="#DejaVuSans-6f" x="61.523438"/>
     <use xlink:href="#DejaVuSans-72" x="122.705078"/>
     <use xlink:href="#DejaVuSans-61" x="163.818359"/>
     <use xlink:href="#DejaVuSans-32" x="225.097656"/>
     <use xlink:href="#DejaVuSans-36" x="288.720703"/>
     <use xlink:href="#DejaVuSans-5f" x="352.34375"/>
     <use xlink:href="#DejaVuSans-66" x="402.34375"/>
     <use xlink:href="#DejaVuSans-75" x="437.548828"/>
     <use xlink:href="#DejaVuSans-6c" x="500.927734"/>
     <use xlink:href="#DejaVuSans-6c" x="528.710938"/>
     <use xlink:href="#DejaVuSans-5f" x="556.494141"/>
     <use xlink:href="#DejaVuSans-32" x="606.494141"/>
     <use xlink:href="#DejaVuSans-30" x="670.117188"/>
     <use xlink:href="#DejaVuSans-30" x="733.740234"/>
     <use xlink:href="#DejaVuSans-30" x="797.363281"/>
    </g>
   </g>
   <g id="line2d_90">
    <path d="M 326.211 2568.196266 
L 349.311 2568.196266 
L 372.411 2568.196266 
" style="fill: none; stroke: #dd8452; stroke-opacity: 0.9; stroke-width: 3; stroke-linecap: round"/>
   </g>
   <g id="text_52">
    <!-- eora26_full_2010 -->
    <g style="fill: #262626" transform="translate(390.891 2576.281266) scale(0.231 -0.231)">
     <use xlink:href="#DejaVuSans-65"/>
     <use xlink:href="#DejaVuSans-6f" x="61.523438"/>
     <use xlink:href="#DejaVuSans-72" x="122.705078"/>
     <use xlink:href="#DejaVuSans-61" x="163.818359"/>
     <use xlink:href="#DejaVuSans-32" x="225.097656"/>
     <use xlink:href="#DejaVuSans-36" x="288.720703"/>
     <use xlink:href="#DejaVuSans-5f" x="352.34375"/>
     <use xlink:href="#DejaVuSans-66" x="402.34375"/>
     <use xlink:href="#DejaVuSans-75" x="437.548828"/>
     <use xlink:href="#DejaVuSans-6c" x="500.927734"/>
     <use xlink:href="#DejaVuSans-6c" x="528.710938"/>
     <use xlink:href="#DejaVuSans-5f" x="556.494141"/>
     <use xlink:href="#DejaVuSans-32" x="606.494141"/>
     <use xlink:href="#DejaVuSans-30" x="670.117188"/>
     <use xlink:href="#DejaVuSans-31" x="733.740234"/>
     <use xlink:href="#DejaVuSans-30" x="797.363281"/>
    </g>
   </g>
   <g id="line2d_91">
    <path d="M 635.982 2568.196266 
L 659.082 2568.196266 
L 682.182 2568.196266 
" style="fill: none; stroke: #55a868; stroke-opacity: 0.9; stroke-width: 3; stroke-linecap: round"/>
   </g>
   <g id="text_53">
    <!-- euregio_full_2000 -->
    <g style="fill: #262626" transform="translate(700.662 2576.281266) scale(0.231 -0.231)">
     <use xlink:href="#DejaVuSans-65"/>
     <use xlink:href="#DejaVuSans-75" x="61.523438"/>
     <use xlink:href="#DejaVuSans-72" x="124.902344"/>
     <use xlink:href="#DejaVuSans-65" x="163.765625"/>
     <use xlink:href="#DejaVuSans-67" x="225.289062"/>
     <use xlink:href="#DejaVuSans-69" x="288.765625"/>
     <use xlink:href="#DejaVuSans-6f" x="316.548828"/>
     <use xlink:href="#DejaVuSans-5f" x="377.730469"/>
     <use xlink:href="#DejaVuSans-66" x="427.730469"/>
     <use xlink:href="#DejaVuSans-75" x="462.935547"/>
     <use xlink:href="#DejaVuSans-6c" x="526.314453"/>
     <use xlink:href="#DejaVuSans-6c" x="554.097656"/>
     <use xlink:href="#DejaVuSans-5f" x="581.880859"/>
     <use xlink:href="#DejaVuSans-32" x="631.880859"/>
     <use xlink:href="#DejaVuSans-30" x="695.503906"/>
     <use xlink:href="#DejaVuSans-30" x="759.126953"/>
     <use xlink:href="#DejaVuSans-30" x="822.75"/>
    </g>
   </g>
   <g id="line2d_92">
    <path d="M 951.618234 2568.196266 
L 974.718234 2568.196266 
L 997.818234 2568.196266 
" style="fill: none; stroke: #c44e52; stroke-opacity: 0.9; stroke-width: 3; stroke-linecap: round"/>
   </g>
   <g id="text_54">
    <!-- euregio_full_2010 -->
    <g style="fill: #262626" transform="translate(1016.298234 2576.281266) scale(0.231 -0.231)">
     <use xlink:href="#DejaVuSans-65"/>
     <use xlink:href="#DejaVuSans-75" x="61.523438"/>
     <use xlink:href="#DejaVuSans-72" x="124.902344"/>
     <use xlink:href="#DejaVuSans-65" x="163.765625"/>
     <use xlink:href="#DejaVuSans-67" x="225.289062"/>
     <use xlink:href="#DejaVuSans-69" x="288.765625"/>
     <use xlink:href="#DejaVuSans-6f" x="316.548828"/>
     <use xlink:href="#DejaVuSans-5f" x="377.730469"/>
     <use xlink:href="#DejaVuSans-66" x="427.730469"/>
     <use xlink:href="#DejaVuSans-75" x="462.935547"/>
     <use xlink:href="#DejaVuSans-6c" x="526.314453"/>
     <use xlink:href="#DejaVuSans-6c" x="554.097656"/>
     <use xlink:href="#DejaVuSans-5f" x="581.880859"/>
     <use xlink:href="#DejaVuSans-32" x="631.880859"/>
     <use xlink:href="#DejaVuSans-30" x="695.503906"/>
     <use xlink:href="#DejaVuSans-31" x="759.126953"/>
     <use xlink:href="#DejaVuSans-30" x="822.75"/>
    </g>
   </g>
  </g>
 </g>
 <defs>
  <clipPath id="pf1efda7b93">
   <rect x="481.909805" y="220.594846" width="161.001529" height="36.460762"/>
  </clipPath>
  <clipPath id="p4a23854f03">
   <rect x="481.909805" y="435.049301" width="161.001529" height="36.460762"/>
  </clipPath>
  <clipPath id="p4d59a435d3">
   <rect x="481.909805" y="649.503755" width="161.001529" height="36.460762"/>
  </clipPath>
  <clipPath id="pf0be198699">
   <rect x="481.909805" y="863.95821" width="161.001529" height="36.460762"/>
  </clipPath>
  <clipPath id="p5f5cb80990">
   <rect x="481.909805" y="1078.412664" width="161.001529" height="36.460762"/>
  </clipPath>
  <clipPath id="p1d5a523e84">
   <rect x="481.909805" y="1292.867119" width="161.001529" height="36.460762"/>
  </clipPath>
  <clipPath id="pa10c686764">
   <rect x="481.909805" y="1507.321573" width="161.001529" height="36.460762"/>
  </clipPath>
  <clipPath id="pd0ab5f75e9">
   <rect x="481.909805" y="1721.776028" width="161.001529" height="36.460762"/>
  </clipPath>
  <clipPath id="pd03280cbf4">
   <rect x="481.909805" y="1936.230483" width="161.001529" height="36.460762"/>
  </clipPath>
  <clipPath id="p5b520da94b">
   <rect x="481.909805" y="2150.684937" width="161.001529" height="36.460762"/>
  </clipPath>
  <clipPath id="pb83176a13b">
   <rect x="481.909805" y="2365.139392" width="161.001529" height="36.460762"/>
  </clipPath>
 </defs>
</svg>
