<?xml version="1.0" encoding="utf-8" standalone="no"?>
<!DOCTYPE svg PUBLIC "-//W3C//DTD SVG 1.1//EN"
  "http://www.w3.org/Graphics/SVG/1.1/DTD/svg11.dtd">
<svg xmlns:xlink="http://www.w3.org/1999/xlink" width="1304.437547pt" height="591.51675pt" viewBox="0 0 1304.437547 591.51675" xmlns="http://www.w3.org/2000/svg" version="1.1">
 <metadata>
  <rdf:RDF xmlns:dc="http://purl.org/dc/elements/1.1/" xmlns:cc="http://creativecommons.org/ns#" xmlns:rdf="http://www.w3.org/1999/02/22-rdf-syntax-ns#">
   <cc:Work>
    <dc:type rdf:resource="http://purl.org/dc/dcmitype/StillImage"/>
    <dc:date>2023-04-28T12:08:50.790089</dc:date>
    <dc:format>image/svg+xml</dc:format>
    <dc:creator>
     <cc:Agent>
      <dc:title>Matplotlib v3.7.1, https://matplotlib.org/</dc:title>
     </cc:Agent>
    </dc:creator>
   </cc:Work>
  </rdf:RDF>
 </metadata>
 <defs>
  <style type="text/css">*{stroke-linejoin: round; stroke-linecap: butt}</style>
 </defs>
 <g id="figure_1">
  <g id="patch_1">
   <path d="M 0 591.51675 
L 1304.437547 591.51675 
L 1304.437547 -0 
L 0 -0 
z
" style="fill: #ffffff"/>
  </g>
  <g id="axes_1">
   <g id="patch_2">
    <path d="M 208.160885 183.612 
L 488.10316 183.612 
L 488.10316 81.456 
L 208.160885 81.456 
z
" style="fill: #eaeaf2"/>
   </g>
   <g id="matplotlib.axis_1">
    <g id="xtick_1">
     <g id="line2d_1">
      <path d="M 220.885534 183.612 
L 220.885534 81.456 
" clip-path="url(#p5a7eb19dfb)" style="fill: none; stroke: #ffffff; stroke-linecap: round"/>
     </g>
    </g>
    <g id="xtick_2">
     <g id="line2d_2">
      <path d="M 308.160218 183.612 
L 308.160218 81.456 
" clip-path="url(#p5a7eb19dfb)" style="fill: none; stroke: #ffffff; stroke-linecap: round"/>
     </g>
    </g>
    <g id="xtick_3">
     <g id="line2d_3">
      <path d="M 395.434901 183.612 
L 395.434901 81.456 
" clip-path="url(#p5a7eb19dfb)" style="fill: none; stroke: #ffffff; stroke-linecap: round"/>
     </g>
    </g>
    <g id="xtick_4">
     <g id="line2d_4">
      <path d="M 482.709585 183.612 
L 482.709585 81.456 
" clip-path="url(#p5a7eb19dfb)" style="fill: none; stroke: #ffffff; stroke-linecap: round"/>
     </g>
    </g>
   </g>
   <g id="matplotlib.axis_2">
    <g id="ytick_1">
     <g id="line2d_5">
      <path d="M 208.160885 136.063259 
L 488.10316 136.063259 
" clip-path="url(#p5a7eb19dfb)" style="fill: none; stroke: #ffffff; stroke-linecap: round"/>
     </g>
     <g id="text_1">
      <!-- −0.025 -->
      <g style="fill: #262626" transform="translate(113.172838 144.839454) scale(0.231 -0.231)">
       <defs>
        <path id="DejaVuSans-2212" d="M 678 2272 
L 4684 2272 
L 4684 1741 
L 678 1741 
L 678 2272 
z
" transform="scale(0.015625)"/>
        <path id="DejaVuSans-30" d="M 2034 4250 
Q 1547 4250 1301 3770 
Q 1056 3291 1056 2328 
Q 1056 1369 1301 889 
Q 1547 409 2034 409 
Q 2525 409 2770 889 
Q 3016 1369 3016 2328 
Q 3016 3291 2770 3770 
Q 2525 4250 2034 4250 
z
M 2034 4750 
Q 2819 4750 3233 4129 
Q 3647 3509 3647 2328 
Q 3647 1150 3233 529 
Q 2819 -91 2034 -91 
Q 1250 -91 836 529 
Q 422 1150 422 2328 
Q 422 3509 836 4129 
Q 1250 4750 2034 4750 
z
" transform="scale(0.015625)"/>
        <path id="DejaVuSans-2e" d="M 684 794 
L 1344 794 
L 1344 0 
L 684 0 
L 684 794 
z
" transform="scale(0.015625)"/>
        <path id="DejaVuSans-32" d="M 1228 531 
L 3431 531 
L 3431 0 
L 469 0 
L 469 531 
Q 828 903 1448 1529 
Q 2069 2156 2228 2338 
Q 2531 2678 2651 2914 
Q 2772 3150 2772 3378 
Q 2772 3750 2511 3984 
Q 2250 4219 1831 4219 
Q 1534 4219 1204 4116 
Q 875 4013 500 3803 
L 500 4441 
Q 881 4594 1212 4672 
Q 1544 4750 1819 4750 
Q 2544 4750 2975 4387 
Q 3406 4025 3406 3419 
Q 3406 3131 3298 2873 
Q 3191 2616 2906 2266 
Q 2828 2175 2409 1742 
Q 1991 1309 1228 531 
z
" transform="scale(0.015625)"/>
        <path id="DejaVuSans-35" d="M 691 4666 
L 3169 4666 
L 3169 4134 
L 1269 4134 
L 1269 2991 
Q 1406 3038 1543 3061 
Q 1681 3084 1819 3084 
Q 2600 3084 3056 2656 
Q 3513 2228 3513 1497 
Q 3513 744 3044 326 
Q 2575 -91 1722 -91 
Q 1428 -91 1123 -41 
Q 819 9 494 109 
L 494 744 
Q 775 591 1075 516 
Q 1375 441 1709 441 
Q 2250 441 2565 725 
Q 2881 1009 2881 1497 
Q 2881 1984 2565 2268 
Q 2250 2553 1709 2553 
Q 1456 2553 1204 2497 
Q 953 2441 691 2322 
L 691 4666 
z
" transform="scale(0.015625)"/>
       </defs>
       <use xlink:href="#DejaVuSans-2212"/>
       <use xlink:href="#DejaVuSans-30" x="83.789062"/>
       <use xlink:href="#DejaVuSans-2e" x="147.412109"/>
       <use xlink:href="#DejaVuSans-30" x="179.199219"/>
       <use xlink:href="#DejaVuSans-32" x="242.822266"/>
       <use xlink:href="#DejaVuSans-35" x="306.445312"/>
      </g>
     </g>
    </g>
    <g id="ytick_2">
     <g id="line2d_6">
      <path d="M 208.160885 86.099455 
L 488.10316 86.099455 
" clip-path="url(#p5a7eb19dfb)" style="fill: none; stroke: #ffffff; stroke-linecap: round"/>
     </g>
     <g id="text_2">
      <!-- 0.000 -->
      <g style="fill: #262626" transform="translate(132.529916 94.87565) scale(0.231 -0.231)">
       <use xlink:href="#DejaVuSans-30"/>
       <use xlink:href="#DejaVuSans-2e" x="63.623047"/>
       <use xlink:href="#DejaVuSans-30" x="95.410156"/>
       <use xlink:href="#DejaVuSans-30" x="159.033203"/>
       <use xlink:href="#DejaVuSans-30" x="222.65625"/>
      </g>
     </g>
    </g>
    <g id="text_3">
     <!-- % change -->
     <g style="fill: #262626" transform="translate(103.932026 194.882344) rotate(-90) scale(0.252 -0.252)">
      <defs>
       <path id="DejaVuSans-25" d="M 4653 2053 
Q 4381 2053 4226 1822 
Q 4072 1591 4072 1178 
Q 4072 772 4226 539 
Q 4381 306 4653 306 
Q 4919 306 5073 539 
Q 5228 772 5228 1178 
Q 5228 1588 5073 1820 
Q 4919 2053 4653 2053 
z
M 4653 2450 
Q 5147 2450 5437 2106 
Q 5728 1763 5728 1178 
Q 5728 594 5436 251 
Q 5144 -91 4653 -91 
Q 4153 -91 3862 251 
Q 3572 594 3572 1178 
Q 3572 1766 3864 2108 
Q 4156 2450 4653 2450 
z
M 1428 4353 
Q 1159 4353 1004 4120 
Q 850 3888 850 3481 
Q 850 3069 1003 2837 
Q 1156 2606 1428 2606 
Q 1700 2606 1854 2837 
Q 2009 3069 2009 3481 
Q 2009 3884 1853 4118 
Q 1697 4353 1428 4353 
z
M 4250 4750 
L 4750 4750 
L 1831 -91 
L 1331 -91 
L 4250 4750 
z
M 1428 4750 
Q 1922 4750 2215 4408 
Q 2509 4066 2509 3481 
Q 2509 2891 2217 2550 
Q 1925 2209 1428 2209 
Q 931 2209 642 2551 
Q 353 2894 353 3481 
Q 353 4063 643 4406 
Q 934 4750 1428 4750 
z
" transform="scale(0.015625)"/>
       <path id="DejaVuSans-20" transform="scale(0.015625)"/>
       <path id="DejaVuSans-63" d="M 3122 3366 
L 3122 2828 
Q 2878 2963 2633 3030 
Q 2388 3097 2138 3097 
Q 1578 3097 1268 2742 
Q 959 2388 959 1747 
Q 959 1106 1268 751 
Q 1578 397 2138 397 
Q 2388 397 2633 464 
Q 2878 531 3122 666 
L 3122 134 
Q 2881 22 2623 -34 
Q 2366 -91 2075 -91 
Q 1284 -91 818 406 
Q 353 903 353 1747 
Q 353 2603 823 3093 
Q 1294 3584 2113 3584 
Q 2378 3584 2631 3529 
Q 2884 3475 3122 3366 
z
" transform="scale(0.015625)"/>
       <path id="DejaVuSans-68" d="M 3513 2113 
L 3513 0 
L 2938 0 
L 2938 2094 
Q 2938 2591 2744 2837 
Q 2550 3084 2163 3084 
Q 1697 3084 1428 2787 
Q 1159 2491 1159 1978 
L 1159 0 
L 581 0 
L 581 4863 
L 1159 4863 
L 1159 2956 
Q 1366 3272 1645 3428 
Q 1925 3584 2291 3584 
Q 2894 3584 3203 3211 
Q 3513 2838 3513 2113 
z
" transform="scale(0.015625)"/>
       <path id="DejaVuSans-61" d="M 2194 1759 
Q 1497 1759 1228 1600 
Q 959 1441 959 1056 
Q 959 750 1161 570 
Q 1363 391 1709 391 
Q 2188 391 2477 730 
Q 2766 1069 2766 1631 
L 2766 1759 
L 2194 1759 
z
M 3341 1997 
L 3341 0 
L 2766 0 
L 2766 531 
Q 2569 213 2275 61 
Q 1981 -91 1556 -91 
Q 1019 -91 701 211 
Q 384 513 384 1019 
Q 384 1609 779 1909 
Q 1175 2209 1959 2209 
L 2766 2209 
L 2766 2266 
Q 2766 2663 2505 2880 
Q 2244 3097 1772 3097 
Q 1472 3097 1187 3025 
Q 903 2953 641 2809 
L 641 3341 
Q 956 3463 1253 3523 
Q 1550 3584 1831 3584 
Q 2591 3584 2966 3190 
Q 3341 2797 3341 1997 
z
" transform="scale(0.015625)"/>
       <path id="DejaVuSans-6e" d="M 3513 2113 
L 3513 0 
L 2938 0 
L 2938 2094 
Q 2938 2591 2744 2837 
Q 2550 3084 2163 3084 
Q 1697 3084 1428 2787 
Q 1159 2491 1159 1978 
L 1159 0 
L 581 0 
L 581 3500 
L 1159 3500 
L 1159 2956 
Q 1366 3272 1645 3428 
Q 1925 3584 2291 3584 
Q 2894 3584 3203 3211 
Q 3513 2838 3513 2113 
z
" transform="scale(0.015625)"/>
       <path id="DejaVuSans-67" d="M 2906 1791 
Q 2906 2416 2648 2759 
Q 2391 3103 1925 3103 
Q 1463 3103 1205 2759 
Q 947 2416 947 1791 
Q 947 1169 1205 825 
Q 1463 481 1925 481 
Q 2391 481 2648 825 
Q 2906 1169 2906 1791 
z
M 3481 434 
Q 3481 -459 3084 -895 
Q 2688 -1331 1869 -1331 
Q 1566 -1331 1297 -1286 
Q 1028 -1241 775 -1147 
L 775 -588 
Q 1028 -725 1275 -790 
Q 1522 -856 1778 -856 
Q 2344 -856 2625 -561 
Q 2906 -266 2906 331 
L 2906 616 
Q 2728 306 2450 153 
Q 2172 0 1784 0 
Q 1141 0 747 490 
Q 353 981 353 1791 
Q 353 2603 747 3093 
Q 1141 3584 1784 3584 
Q 2172 3584 2450 3431 
Q 2728 3278 2906 2969 
L 2906 3500 
L 3481 3500 
L 3481 434 
z
" transform="scale(0.015625)"/>
       <path id="DejaVuSans-65" d="M 3597 1894 
L 3597 1613 
L 953 1613 
Q 991 1019 1311 708 
Q 1631 397 2203 397 
Q 2534 397 2845 478 
Q 3156 559 3463 722 
L 3463 178 
Q 3153 47 2828 -22 
Q 2503 -91 2169 -91 
Q 1331 -91 842 396 
Q 353 884 353 1716 
Q 353 2575 817 3079 
Q 1281 3584 2069 3584 
Q 2775 3584 3186 3129 
Q 3597 2675 3597 1894 
z
M 3022 2063 
Q 3016 2534 2758 2815 
Q 2500 3097 2075 3097 
Q 1594 3097 1305 2825 
Q 1016 2553 972 2059 
L 3022 2063 
z
" transform="scale(0.015625)"/>
      </defs>
      <use xlink:href="#DejaVuSans-25"/>
      <use xlink:href="#DejaVuSans-20" x="95.019531"/>
      <use xlink:href="#DejaVuSans-63" x="126.806641"/>
      <use xlink:href="#DejaVuSans-68" x="181.787109"/>
      <use xlink:href="#DejaVuSans-61" x="245.166016"/>
      <use xlink:href="#DejaVuSans-6e" x="306.445312"/>
      <use xlink:href="#DejaVuSans-67" x="369.824219"/>
      <use xlink:href="#DejaVuSans-65" x="433.300781"/>
     </g>
    </g>
   </g>
   <g id="PolyCollection_1"/>
   <g id="PolyCollection_2"/>
   <g id="PolyCollection_3"/>
   <g id="PolyCollection_4"/>
   <g id="PolyCollection_5"/>
   <g id="PolyCollection_6"/>
   <g id="line2d_7">
    <path d="M 220.885534 86.099455 
L 224.027423 100.077002 
L 227.51841 115.168178 
L 229.263904 121.684185 
L 231.009397 127.43103 
L 232.754891 132.490131 
L 234.500385 136.934143 
L 236.245878 140.82789 
L 237.991372 144.229268 
L 239.736866 147.191377 
L 241.482359 149.761566 
L 243.227853 151.981055 
L 244.973347 153.88719 
L 247.067939 155.816078 
L 249.162532 157.402555 
L 251.257124 158.692591 
L 253.351716 159.72495 
L 255.446309 160.531615 
L 257.89 161.224652 
L 260.333691 161.687009 
L 263.126481 161.981252 
L 266.617468 162.111366 
L 270.457554 162.036079 
L 274.995838 161.721726 
L 280.581418 161.092489 
L 287.912491 160.021806 
L 297.338157 158.715291 
L 308.160218 157.460914 
L 322.473266 156.028654 
L 339.928203 154.527286 
L 354.590349 153.477311 
L 388.452927 151.326482 
L 475.378512 145.95897 
L 475.378512 145.95897 
" clip-path="url(#p5a7eb19dfb)" style="fill: none; stroke: #4c72b0; stroke-opacity: 0.9; stroke-width: 3; stroke-linecap: round"/>
   </g>
   <g id="line2d_8">
    <path d="M 220.885534 86.099455 
L 222.980126 95.2439 
L 227.51841 114.829402 
L 229.263904 121.327125 
L 231.009397 127.069431 
L 232.754891 132.136058 
L 234.500385 136.598547 
L 236.245878 140.520816 
L 237.991372 143.959665 
L 239.736866 146.96588 
L 241.482359 149.584888 
L 243.227853 151.857357 
L 244.973347 153.819969 
L 247.067939 155.81375 
L 249.162532 157.460792 
L 251.257124 158.812005 
L 253.351716 159.909913 
L 255.795408 160.917132 
L 258.239099 161.670817 
L 260.68279 162.207064 
L 263.47558 162.595508 
L 266.966567 162.834765 
L 270.806653 162.880691 
L 275.344937 162.709577 
L 280.581418 162.286462 
L 286.865195 161.550588 
L 309.207514 158.681056 
L 321.076871 157.417444 
L 344.466486 155.291319 
L 367.507003 153.391646 
L 399.624086 151.003463 
L 475.378512 145.579356 
L 475.378512 145.579356 
" clip-path="url(#p5a7eb19dfb)" style="fill: none; stroke: #dd8452; stroke-opacity: 0.9; stroke-width: 3; stroke-linecap: round"/>
   </g>
   <g id="line2d_9">
    <path d="M 220.885534 86.099455 
L 222.980126 96.071438 
L 227.169311 115.835474 
L 228.914805 123.021773 
L 230.660299 129.357709 
L 232.405792 134.933157 
L 234.151286 139.829043 
L 235.89678 144.117611 
L 237.642273 147.86291 
L 239.387767 151.122025 
L 241.133261 153.946332 
L 242.878754 156.382286 
L 244.624248 158.471499 
L 246.369742 160.251599 
L 248.115235 161.755828 
L 250.209828 163.238798 
L 252.30442 164.414779 
L 254.399013 165.328422 
L 256.493605 166.017603 
L 258.937296 166.576744 
L 261.380987 166.910178 
L 264.522876 167.091083 
L 268.013863 167.039402 
L 271.853949 166.750778 
L 276.392233 166.185488 
L 286.516096 164.588829 
L 297.687256 162.965367 
L 307.811119 161.723869 
L 316.887686 160.82474 
L 328.757043 159.895768 
L 345.513782 158.832795 
L 374.838076 157.233223 
L 475.378512 152.058601 
L 475.378512 152.058601 
" clip-path="url(#p5a7eb19dfb)" style="fill: none; stroke: #55a868; stroke-opacity: 0.9; stroke-width: 3; stroke-linecap: round"/>
   </g>
   <g id="line2d_10">
    <path d="M 220.885534 86.099455 
L 222.631028 94.123285 
L 227.169311 114.889111 
L 228.914805 121.851417 
L 230.660299 127.990904 
L 232.405792 133.394337 
L 234.151286 138.139563 
L 235.89678 142.296058 
L 237.642273 145.925778 
L 239.387767 149.084189 
L 241.133261 151.82111 
L 242.878754 154.181013 
L 244.624248 156.204482 
L 246.369742 157.928469 
L 248.115235 159.38598 
L 250.209828 160.824142 
L 252.30442 161.966401 
L 254.399013 162.854623 
L 256.493605 163.525899 
L 258.937296 164.073407 
L 261.380987 164.404173 
L 264.522876 164.592786 
L 268.013863 164.561318 
L 271.853949 164.300603 
L 276.741332 163.731571 
L 305.018329 159.937379 
L 315.142192 158.881833 
L 326.313352 157.965956 
L 342.022795 156.915816 
L 368.2052 155.410774 
L 469.094734 149.974886 
L 475.378512 149.635801 
L 475.378512 149.635801 
" clip-path="url(#p5a7eb19dfb)" style="fill: none; stroke: #c44e52; stroke-opacity: 0.9; stroke-width: 3; stroke-linecap: round"/>
   </g>
   <g id="line2d_11">
    <path d="M 220.885534 86.099455 
L 223.678324 99.041202 
L 227.51841 116.362591 
L 229.263904 123.12856 
L 231.009397 129.097014 
L 232.754891 134.352415 
L 234.500385 138.970178 
L 236.245878 143.017656 
L 237.991372 146.554983 
L 239.736866 149.635954 
L 241.482359 152.308711 
L 243.227853 154.616194 
L 244.973347 156.596869 
L 246.71884 158.285011 
L 248.464334 159.71157 
L 250.558927 161.117227 
L 252.653519 162.228148 
L 254.748111 163.08506 
L 256.842704 163.720677 
L 259.286395 164.218386 
L 261.730086 164.493504 
L 264.522876 164.59641 
L 268.013863 164.485952 
L 271.853949 164.126652 
L 276.741332 163.428268 
L 283.025109 162.288952 
L 292.450775 160.331096 
L 306.414724 157.434797 
L 313.745797 156.194803 
L 322.822365 154.91127 
L 332.946228 153.689315 
L 345.164684 152.462216 
L 358.081337 151.371455 
L 379.027261 149.87105 
L 426.504689 146.747813 
L 475.378512 143.576828 
L 475.378512 143.576828 
" clip-path="url(#p5a7eb19dfb)" style="fill: none; stroke: #8172b3; stroke-opacity: 0.9; stroke-width: 3; stroke-linecap: round"/>
   </g>
   <g id="line2d_12">
    <path d="M 220.885534 86.099455 
L 224.027423 100.24565 
L 227.51841 115.500605 
L 229.263904 122.078422 
L 231.009397 127.884444 
L 232.754891 133.00049 
L 234.500385 137.499737 
L 236.245878 141.447489 
L 237.991372 144.902169 
L 239.736866 147.915921 
L 241.482359 150.535222 
L 243.227853 152.80165 
L 244.973347 154.752816 
L 246.71884 156.42237 
L 248.813433 158.095466 
L 250.908025 159.450454 
L 253.002618 160.528281 
L 255.09721 161.366311 
L 257.540901 162.080983 
L 259.984592 162.551861 
L 262.777382 162.840908 
L 265.919271 162.923563 
L 269.759357 162.775325 
L 274.29764 162.362387 
L 279.88322 161.61317 
L 287.214294 160.380526 
L 312.349403 155.945878 
L 323.171463 154.461745 
L 336.088117 152.919471 
L 345.862881 151.932722 
L 361.572324 150.573582 
L 384.612841 148.841091 
L 441.166836 144.862903 
L 475.378512 142.48219 
L 475.378512 142.48219 
" clip-path="url(#p5a7eb19dfb)" style="fill: none; stroke: #937860; stroke-opacity: 0.9; stroke-width: 3; stroke-linecap: round"/>
   </g>
   <g id="patch_3">
    <path d="M 208.160885 183.612 
L 208.160885 81.456 
" style="fill: none; stroke: #ffffff; stroke-width: 1.25; stroke-linejoin: miter; stroke-linecap: square"/>
   </g>
   <g id="patch_4">
    <path d="M 208.160885 183.612 
L 488.10316 183.612 
" style="fill: none; stroke: #ffffff; stroke-width: 1.25; stroke-linejoin: miter; stroke-linecap: square"/>
   </g>
   <g id="text_4">
    <!-- 0.8~90 -->
    <g style="fill: #262626" transform="translate(301.502179 75.456) scale(0.252 -0.252)">
     <defs>
      <path id="DejaVuSans-38" d="M 2034 2216 
Q 1584 2216 1326 1975 
Q 1069 1734 1069 1313 
Q 1069 891 1326 650 
Q 1584 409 2034 409 
Q 2484 409 2743 651 
Q 3003 894 3003 1313 
Q 3003 1734 2745 1975 
Q 2488 2216 2034 2216 
z
M 1403 2484 
Q 997 2584 770 2862 
Q 544 3141 544 3541 
Q 544 4100 942 4425 
Q 1341 4750 2034 4750 
Q 2731 4750 3128 4425 
Q 3525 4100 3525 3541 
Q 3525 3141 3298 2862 
Q 3072 2584 2669 2484 
Q 3125 2378 3379 2068 
Q 3634 1759 3634 1313 
Q 3634 634 3220 271 
Q 2806 -91 2034 -91 
Q 1263 -91 848 271 
Q 434 634 434 1313 
Q 434 1759 690 2068 
Q 947 2378 1403 2484 
z
M 1172 3481 
Q 1172 3119 1398 2916 
Q 1625 2713 2034 2713 
Q 2441 2713 2670 2916 
Q 2900 3119 2900 3481 
Q 2900 3844 2670 4047 
Q 2441 4250 2034 4250 
Q 1625 4250 1398 4047 
Q 1172 3844 1172 3481 
z
" transform="scale(0.015625)"/>
      <path id="DejaVuSans-7e" d="M 4684 2553 
L 4684 1997 
Q 4356 1750 4076 1644 
Q 3797 1538 3494 1538 
Q 3150 1538 2694 1722 
Q 2659 1734 2644 1741 
Q 2622 1750 2575 1766 
Q 2091 1959 1797 1959 
Q 1522 1959 1253 1839 
Q 984 1719 678 1459 
L 678 2016 
Q 1006 2263 1286 2370 
Q 1566 2478 1869 2478 
Q 2213 2478 2672 2291 
Q 2703 2278 2719 2272 
Q 2744 2263 2788 2247 
Q 3272 2053 3566 2053 
Q 3834 2053 4098 2172 
Q 4363 2291 4684 2553 
z
" transform="scale(0.015625)"/>
      <path id="DejaVuSans-39" d="M 703 97 
L 703 672 
Q 941 559 1184 500 
Q 1428 441 1663 441 
Q 2288 441 2617 861 
Q 2947 1281 2994 2138 
Q 2813 1869 2534 1725 
Q 2256 1581 1919 1581 
Q 1219 1581 811 2004 
Q 403 2428 403 3163 
Q 403 3881 828 4315 
Q 1253 4750 1959 4750 
Q 2769 4750 3195 4129 
Q 3622 3509 3622 2328 
Q 3622 1225 3098 567 
Q 2575 -91 1691 -91 
Q 1453 -91 1209 -44 
Q 966 3 703 97 
z
M 1959 2075 
Q 2384 2075 2632 2365 
Q 2881 2656 2881 3163 
Q 2881 3666 2632 3958 
Q 2384 4250 1959 4250 
Q 1534 4250 1286 3958 
Q 1038 3666 1038 3163 
Q 1038 2656 1286 2365 
Q 1534 2075 1959 2075 
z
" transform="scale(0.015625)"/>
     </defs>
     <use xlink:href="#DejaVuSans-30"/>
     <use xlink:href="#DejaVuSans-2e" x="63.623047"/>
     <use xlink:href="#DejaVuSans-38" x="95.410156"/>
     <use xlink:href="#DejaVuSans-7e" x="159.033203"/>
     <use xlink:href="#DejaVuSans-39" x="242.822266"/>
     <use xlink:href="#DejaVuSans-30" x="306.445312"/>
    </g>
   </g>
  </g>
  <g id="axes_2">
   <g id="patch_5">
    <path d="M 514.414092 183.612 
L 794.356367 183.612 
L 794.356367 81.456 
L 514.414092 81.456 
z
" style="fill: #eaeaf2"/>
   </g>
   <g id="matplotlib.axis_3">
    <g id="xtick_5">
     <g id="line2d_13">
      <path d="M 527.138741 183.612 
L 527.138741 81.456 
" clip-path="url(#pe025cfd670)" style="fill: none; stroke: #ffffff; stroke-linecap: round"/>
     </g>
    </g>
    <g id="xtick_6">
     <g id="line2d_14">
      <path d="M 614.413424 183.612 
L 614.413424 81.456 
" clip-path="url(#pe025cfd670)" style="fill: none; stroke: #ffffff; stroke-linecap: round"/>
     </g>
    </g>
    <g id="xtick_7">
     <g id="line2d_15">
      <path d="M 701.688108 183.612 
L 701.688108 81.456 
" clip-path="url(#pe025cfd670)" style="fill: none; stroke: #ffffff; stroke-linecap: round"/>
     </g>
    </g>
    <g id="xtick_8">
     <g id="line2d_16">
      <path d="M 788.962792 183.612 
L 788.962792 81.456 
" clip-path="url(#pe025cfd670)" style="fill: none; stroke: #ffffff; stroke-linecap: round"/>
     </g>
    </g>
   </g>
   <g id="matplotlib.axis_4">
    <g id="ytick_3">
     <g id="line2d_17">
      <path d="M 514.414092 136.063259 
L 794.356367 136.063259 
" clip-path="url(#pe025cfd670)" style="fill: none; stroke: #ffffff; stroke-linecap: round"/>
     </g>
    </g>
    <g id="ytick_4">
     <g id="line2d_18">
      <path d="M 514.414092 86.099455 
L 794.356367 86.099455 
" clip-path="url(#pe025cfd670)" style="fill: none; stroke: #ffffff; stroke-linecap: round"/>
     </g>
    </g>
   </g>
   <g id="PolyCollection_7"/>
   <g id="PolyCollection_8"/>
   <g id="PolyCollection_9"/>
   <g id="PolyCollection_10"/>
   <g id="PolyCollection_11"/>
   <g id="PolyCollection_12"/>
   <g id="line2d_19">
    <path d="M 527.138741 86.099455 
L 529.93153 98.576487 
L 534.120715 116.909777 
L 535.866209 123.476571 
L 537.611703 129.329783 
L 539.706295 135.516962 
L 541.800887 140.899282 
L 543.89548 145.57725 
L 545.990072 149.638857 
L 548.084665 153.160937 
L 550.179257 156.210707 
L 552.273849 158.846971 
L 554.368442 161.121177 
L 556.463034 163.078358 
L 558.557627 164.758024 
L 561.001318 166.413225 
L 563.445009 167.785885 
L 565.8887 168.916471 
L 568.68149 169.956778 
L 571.823379 170.863709 
L 574.965267 171.543744 
L 578.456255 172.084141 
L 582.645439 172.493968 
L 587.183723 172.710008 
L 592.769303 172.748192 
L 601.147672 172.551299 
L 612.318832 172.05076 
L 632.21746 170.893653 
L 646.181409 170.158765 
L 661.192655 169.640808 
L 686.676862 169.006097 
L 733.106994 168.12392 
L 781.631718 167.315859 
L 781.631718 167.315859 
" clip-path="url(#pe025cfd670)" style="fill: none; stroke: #4c72b0; stroke-opacity: 0.9; stroke-width: 3; stroke-linecap: round"/>
   </g>
   <g id="line2d_20">
    <path d="M 527.138741 86.099455 
L 529.233333 95.267321 
L 534.120715 116.508491 
L 535.866209 123.028324 
L 537.960801 129.92709 
L 540.055394 135.936226 
L 542.149986 141.167073 
L 544.244579 145.716744 
L 546.339171 149.670192 
L 548.433763 153.101751 
L 550.528356 156.076478 
L 552.622948 158.651328 
L 554.717541 160.876146 
L 556.812133 162.794567 
L 558.906725 164.444651 
L 561.350417 166.0748 
L 563.794108 167.430667 
L 566.237799 168.551704 
L 569.030589 169.58892 
L 572.172477 170.495484 
L 575.663465 171.242374 
L 579.503551 171.820236 
L 583.692736 172.222793 
L 588.580118 172.462662 
L 594.514796 172.524218 
L 602.893166 172.369342 
L 614.762523 171.913639 
L 633.613855 170.940254 
L 653.163384 169.966744 
L 669.221926 169.44279 
L 704.131799 168.628057 
L 781.631718 167.085944 
L 781.631718 167.085944 
" clip-path="url(#pe025cfd670)" style="fill: none; stroke: #dd8452; stroke-opacity: 0.9; stroke-width: 3; stroke-linecap: round"/>
   </g>
   <g id="line2d_21">
    <path d="M 527.138741 86.099455 
L 528.884234 94.409535 
L 533.771617 117.709489 
L 535.51711 124.939973 
L 537.262604 131.383556 
L 539.008098 137.123153 
L 540.753591 142.232961 
L 542.848184 147.626321 
L 544.942776 152.309859 
L 547.037368 156.37225 
L 549.131961 159.890819 
L 551.226553 162.933295 
L 553.321146 165.558962 
L 555.415738 167.819594 
L 557.51033 169.760639 
L 559.604923 171.421805 
L 562.048614 173.052302 
L 564.492305 174.397378 
L 566.935996 175.498691 
L 569.728786 176.504301 
L 572.521576 177.282721 
L 575.663465 177.933668 
L 579.154452 178.432616 
L 583.343637 178.789966 
L 587.88192 178.950811 
L 593.816599 178.931066 
L 601.147672 178.672784 
L 611.620634 178.058569 
L 637.104842 176.465978 
L 651.068791 175.910374 
L 669.571024 175.41272 
L 697.498923 174.938228 
L 774.300645 173.933925 
L 781.631718 173.840787 
L 781.631718 173.840787 
" clip-path="url(#pe025cfd670)" style="fill: none; stroke: #55a868; stroke-opacity: 0.9; stroke-width: 3; stroke-linecap: round"/>
   </g>
   <g id="line2d_22">
    <path d="M 527.138741 86.099455 
L 528.884234 94.142503 
L 533.771617 116.702418 
L 535.51711 123.706737 
L 537.262604 129.949583 
L 539.008098 135.511041 
L 541.10269 141.385819 
L 543.197282 146.491913 
L 545.291875 150.925204 
L 547.386467 154.769611 
L 549.48106 158.098498 
L 551.575652 160.976036 
L 553.670244 163.458441 
L 555.764837 165.594853 
L 557.859429 167.428255 
L 559.954022 168.996334 
L 562.397713 170.534327 
L 564.841404 171.801587 
L 567.285095 172.837631 
L 570.077885 173.782221 
L 573.219774 174.5905 
L 576.710761 175.231934 
L 580.550847 175.69263 
L 584.740032 175.971655 
L 589.976513 176.083873 
L 596.609389 175.992035 
L 604.987758 175.637723 
L 618.602609 174.800784 
L 633.613855 173.938698 
L 648.6251 173.322282 
L 669.221926 172.716554 
L 693.309738 172.278236 
L 755.798412 171.411619 
L 781.631718 171.068446 
L 781.631718 171.068446 
" clip-path="url(#pe025cfd670)" style="fill: none; stroke: #c44e52; stroke-opacity: 0.9; stroke-width: 3; stroke-linecap: round"/>
   </g>
   <g id="line2d_23">
    <path d="M 527.138741 86.099455 
L 529.582432 97.462398 
L 533.771617 116.711239 
L 535.51711 123.686225 
L 537.262604 129.904372 
L 539.357196 136.478799 
L 541.451789 142.199697 
L 543.546381 147.173688 
L 545.640973 151.493995 
L 547.735566 155.242149 
L 549.830158 158.489467 
L 551.924751 161.298325 
L 554.019343 163.723263 
L 556.113936 165.811967 
L 558.208528 167.606134 
L 560.30312 169.142242 
L 562.746811 170.650602 
L 565.190503 171.894969 
L 567.983293 173.04179 
L 570.776082 173.940303 
L 573.917971 174.704338 
L 577.408958 175.301871 
L 581.249044 175.717592 
L 585.438229 175.944732 
L 590.325612 175.987362 
L 596.958487 175.804522 
L 605.336857 175.338132 
L 618.951708 174.319437 
L 650.719693 171.94003 
L 668.872827 170.779637 
L 683.185875 170.15133 
L 704.829996 169.438126 
L 739.390771 168.587958 
L 781.631718 167.701556 
L 781.631718 167.701556 
" clip-path="url(#pe025cfd670)" style="fill: none; stroke: #8172b3; stroke-opacity: 0.9; stroke-width: 3; stroke-linecap: round"/>
   </g>
   <g id="line2d_24">
    <path d="M 527.138741 86.099455 
L 529.93153 98.726754 
L 533.771617 115.824767 
L 535.51711 122.59701 
L 537.262604 128.635254 
L 539.357196 135.020604 
L 541.451789 140.578257 
L 543.546381 145.411677 
L 545.640973 149.611337 
L 547.735566 153.256357 
L 549.830158 156.415928 
L 551.924751 159.1506 
L 554.019343 161.513382 
L 556.113936 163.550572 
L 558.208528 165.302627 
L 560.652219 167.033289 
L 563.09591 168.472501 
L 565.539601 169.661869 
L 568.332391 170.760948 
L 571.125181 171.625843 
L 574.26707 172.365553 
L 577.758057 172.95 
L 581.598143 173.364022 
L 586.136427 173.613034 
L 591.372908 173.662722 
L 598.005784 173.493612 
L 607.780548 172.998168 
L 626.63188 171.772994 
L 654.21068 170.034425 
L 669.920123 169.248366 
L 689.818751 168.510061 
L 720.53944 167.620521 
L 771.158756 166.476458 
L 781.631718 166.256404 
L 781.631718 166.256404 
" clip-path="url(#pe025cfd670)" style="fill: none; stroke: #937860; stroke-opacity: 0.9; stroke-width: 3; stroke-linecap: round"/>
   </g>
   <g id="patch_6">
    <path d="M 514.414092 183.612 
L 514.414092 81.456 
" style="fill: none; stroke: #ffffff; stroke-width: 1.25; stroke-linejoin: miter; stroke-linecap: square"/>
   </g>
   <g id="patch_7">
    <path d="M 514.414092 183.612 
L 794.356367 183.612 
" style="fill: none; stroke: #ffffff; stroke-width: 1.25; stroke-linejoin: miter; stroke-linecap: square"/>
   </g>
   <g id="text_5">
    <!-- 0.8~365 -->
    <g style="fill: #262626" transform="translate(599.738636 75.456) scale(0.252 -0.252)">
     <defs>
      <path id="DejaVuSans-33" d="M 2597 2516 
Q 3050 2419 3304 2112 
Q 3559 1806 3559 1356 
Q 3559 666 3084 287 
Q 2609 -91 1734 -91 
Q 1441 -91 1130 -33 
Q 819 25 488 141 
L 488 750 
Q 750 597 1062 519 
Q 1375 441 1716 441 
Q 2309 441 2620 675 
Q 2931 909 2931 1356 
Q 2931 1769 2642 2001 
Q 2353 2234 1838 2234 
L 1294 2234 
L 1294 2753 
L 1863 2753 
Q 2328 2753 2575 2939 
Q 2822 3125 2822 3475 
Q 2822 3834 2567 4026 
Q 2313 4219 1838 4219 
Q 1578 4219 1281 4162 
Q 984 4106 628 3988 
L 628 4550 
Q 988 4650 1302 4700 
Q 1616 4750 1894 4750 
Q 2613 4750 3031 4423 
Q 3450 4097 3450 3541 
Q 3450 3153 3228 2886 
Q 3006 2619 2597 2516 
z
" transform="scale(0.015625)"/>
      <path id="DejaVuSans-36" d="M 2113 2584 
Q 1688 2584 1439 2293 
Q 1191 2003 1191 1497 
Q 1191 994 1439 701 
Q 1688 409 2113 409 
Q 2538 409 2786 701 
Q 3034 994 3034 1497 
Q 3034 2003 2786 2293 
Q 2538 2584 2113 2584 
z
M 3366 4563 
L 3366 3988 
Q 3128 4100 2886 4159 
Q 2644 4219 2406 4219 
Q 1781 4219 1451 3797 
Q 1122 3375 1075 2522 
Q 1259 2794 1537 2939 
Q 1816 3084 2150 3084 
Q 2853 3084 3261 2657 
Q 3669 2231 3669 1497 
Q 3669 778 3244 343 
Q 2819 -91 2113 -91 
Q 1303 -91 875 529 
Q 447 1150 447 2328 
Q 447 3434 972 4092 
Q 1497 4750 2381 4750 
Q 2619 4750 2861 4703 
Q 3103 4656 3366 4563 
z
" transform="scale(0.015625)"/>
     </defs>
     <use xlink:href="#DejaVuSans-30"/>
     <use xlink:href="#DejaVuSans-2e" x="63.623047"/>
     <use xlink:href="#DejaVuSans-38" x="95.410156"/>
     <use xlink:href="#DejaVuSans-7e" x="159.033203"/>
     <use xlink:href="#DejaVuSans-33" x="242.822266"/>
     <use xlink:href="#DejaVuSans-36" x="306.445312"/>
     <use xlink:href="#DejaVuSans-35" x="370.068359"/>
    </g>
   </g>
  </g>
  <g id="axes_3">
   <g id="patch_8">
    <path d="M 820.667298 183.612 
L 1100.609573 183.612 
L 1100.609573 81.456 
L 820.667298 81.456 
z
" style="fill: #eaeaf2"/>
   </g>
   <g id="matplotlib.axis_5">
    <g id="xtick_9">
     <g id="line2d_25">
      <path d="M 833.391947 183.612 
L 833.391947 81.456 
" clip-path="url(#pe7c57de80b)" style="fill: none; stroke: #ffffff; stroke-linecap: round"/>
     </g>
     <g id="text_6">
      <!-- 0 -->
      <g style="fill: #262626" transform="translate(826.04326 210.664391) scale(0.231 -0.231)">
       <use xlink:href="#DejaVuSans-30"/>
      </g>
     </g>
    </g>
    <g id="xtick_10">
     <g id="line2d_26">
      <path d="M 920.666631 183.612 
L 920.666631 81.456 
" clip-path="url(#pe7c57de80b)" style="fill: none; stroke: #ffffff; stroke-linecap: round"/>
     </g>
     <g id="text_7">
      <!-- 250 -->
      <g style="fill: #262626" transform="translate(898.620568 210.664391) scale(0.231 -0.231)">
       <use xlink:href="#DejaVuSans-32"/>
       <use xlink:href="#DejaVuSans-35" x="63.623047"/>
       <use xlink:href="#DejaVuSans-30" x="127.246094"/>
      </g>
     </g>
    </g>
    <g id="xtick_11">
     <g id="line2d_27">
      <path d="M 1007.941314 183.612 
L 1007.941314 81.456 
" clip-path="url(#pe7c57de80b)" style="fill: none; stroke: #ffffff; stroke-linecap: round"/>
     </g>
     <g id="text_8">
      <!-- 500 -->
      <g style="fill: #262626" transform="translate(985.895252 210.664391) scale(0.231 -0.231)">
       <use xlink:href="#DejaVuSans-35"/>
       <use xlink:href="#DejaVuSans-30" x="63.623047"/>
       <use xlink:href="#DejaVuSans-30" x="127.246094"/>
      </g>
     </g>
    </g>
    <g id="xtick_12">
     <g id="line2d_28">
      <path d="M 1095.215998 183.612 
L 1095.215998 81.456 
" clip-path="url(#pe7c57de80b)" style="fill: none; stroke: #ffffff; stroke-linecap: round"/>
     </g>
     <g id="text_9">
      <!-- 750 -->
      <g style="fill: #262626" transform="translate(1073.169935 210.664391) scale(0.231 -0.231)">
       <defs>
        <path id="DejaVuSans-37" d="M 525 4666 
L 3525 4666 
L 3525 4397 
L 1831 0 
L 1172 0 
L 2766 4134 
L 525 4134 
L 525 4666 
z
" transform="scale(0.015625)"/>
       </defs>
       <use xlink:href="#DejaVuSans-37"/>
       <use xlink:href="#DejaVuSans-35" x="63.623047"/>
       <use xlink:href="#DejaVuSans-30" x="127.246094"/>
      </g>
     </g>
    </g>
    <g id="text_10">
     <!-- step -->
     <g style="fill: #262626" transform="translate(933.383061 238.616531) scale(0.252 -0.252)">
      <defs>
       <path id="DejaVuSans-73" d="M 2834 3397 
L 2834 2853 
Q 2591 2978 2328 3040 
Q 2066 3103 1784 3103 
Q 1356 3103 1142 2972 
Q 928 2841 928 2578 
Q 928 2378 1081 2264 
Q 1234 2150 1697 2047 
L 1894 2003 
Q 2506 1872 2764 1633 
Q 3022 1394 3022 966 
Q 3022 478 2636 193 
Q 2250 -91 1575 -91 
Q 1294 -91 989 -36 
Q 684 19 347 128 
L 347 722 
Q 666 556 975 473 
Q 1284 391 1588 391 
Q 1994 391 2212 530 
Q 2431 669 2431 922 
Q 2431 1156 2273 1281 
Q 2116 1406 1581 1522 
L 1381 1569 
Q 847 1681 609 1914 
Q 372 2147 372 2553 
Q 372 3047 722 3315 
Q 1072 3584 1716 3584 
Q 2034 3584 2315 3537 
Q 2597 3491 2834 3397 
z
" transform="scale(0.015625)"/>
       <path id="DejaVuSans-74" d="M 1172 4494 
L 1172 3500 
L 2356 3500 
L 2356 3053 
L 1172 3053 
L 1172 1153 
Q 1172 725 1289 603 
Q 1406 481 1766 481 
L 2356 481 
L 2356 0 
L 1766 0 
Q 1100 0 847 248 
Q 594 497 594 1153 
L 594 3053 
L 172 3053 
L 172 3500 
L 594 3500 
L 594 4494 
L 1172 4494 
z
" transform="scale(0.015625)"/>
       <path id="DejaVuSans-70" d="M 1159 525 
L 1159 -1331 
L 581 -1331 
L 581 3500 
L 1159 3500 
L 1159 2969 
Q 1341 3281 1617 3432 
Q 1894 3584 2278 3584 
Q 2916 3584 3314 3078 
Q 3713 2572 3713 1747 
Q 3713 922 3314 415 
Q 2916 -91 2278 -91 
Q 1894 -91 1617 61 
Q 1341 213 1159 525 
z
M 3116 1747 
Q 3116 2381 2855 2742 
Q 2594 3103 2138 3103 
Q 1681 3103 1420 2742 
Q 1159 2381 1159 1747 
Q 1159 1113 1420 752 
Q 1681 391 2138 391 
Q 2594 391 2855 752 
Q 3116 1113 3116 1747 
z
" transform="scale(0.015625)"/>
      </defs>
      <use xlink:href="#DejaVuSans-73"/>
      <use xlink:href="#DejaVuSans-74" x="52.099609"/>
      <use xlink:href="#DejaVuSans-65" x="91.308594"/>
      <use xlink:href="#DejaVuSans-70" x="152.832031"/>
     </g>
    </g>
   </g>
   <g id="matplotlib.axis_6">
    <g id="ytick_5">
     <g id="line2d_29">
      <path d="M 820.667298 136.063259 
L 1100.609573 136.063259 
" clip-path="url(#pe7c57de80b)" style="fill: none; stroke: #ffffff; stroke-linecap: round"/>
     </g>
    </g>
    <g id="ytick_6">
     <g id="line2d_30">
      <path d="M 820.667298 86.099455 
L 1100.609573 86.099455 
" clip-path="url(#pe7c57de80b)" style="fill: none; stroke: #ffffff; stroke-linecap: round"/>
     </g>
    </g>
   </g>
   <g id="PolyCollection_13"/>
   <g id="PolyCollection_14"/>
   <g id="PolyCollection_15"/>
   <g id="PolyCollection_16"/>
   <g id="PolyCollection_17"/>
   <g id="PolyCollection_18"/>
   <g id="line2d_31">
    <path d="M 833.391947 86.099455 
L 836.533836 100.077002 
L 840.024823 115.168178 
L 841.770317 121.684185 
L 843.51581 127.43103 
L 845.261304 132.490131 
L 847.006798 136.934143 
L 848.752291 140.82789 
L 850.497785 144.229268 
L 852.243279 147.191377 
L 853.988772 149.761566 
L 855.734266 151.981055 
L 857.47976 153.88719 
L 859.574352 155.816078 
L 861.668945 157.402555 
L 863.763537 158.692591 
L 865.858129 159.72495 
L 867.952722 160.531615 
L 870.396413 161.224652 
L 872.840104 161.687009 
L 875.632894 161.981252 
L 879.123881 162.111366 
L 882.963967 162.036079 
L 887.502251 161.721726 
L 893.087831 161.092489 
L 900.418904 160.021806 
L 909.84457 158.715291 
L 920.666631 157.460914 
L 934.979679 156.028654 
L 952.434616 154.527286 
L 967.096762 153.477311 
L 1000.95934 151.326482 
L 1087.884925 145.95897 
L 1087.884925 145.95897 
" clip-path="url(#pe7c57de80b)" style="fill: none; stroke: #4c72b0; stroke-opacity: 0.9; stroke-width: 3; stroke-linecap: round"/>
   </g>
   <g id="line2d_32">
    <path d="M 833.391947 86.099455 
L 835.486539 95.2439 
L 840.024823 114.829402 
L 841.770317 121.327125 
L 843.51581 127.069431 
L 845.261304 132.136058 
L 847.006798 136.598547 
L 848.752291 140.520816 
L 850.497785 143.959665 
L 852.243279 146.96588 
L 853.988772 149.584888 
L 855.734266 151.857357 
L 857.47976 153.819969 
L 859.574352 155.81375 
L 861.668945 157.460792 
L 863.763537 158.812005 
L 865.858129 159.909913 
L 868.30182 160.917132 
L 870.745512 161.670817 
L 873.189203 162.207064 
L 875.981993 162.595508 
L 879.47298 162.834765 
L 883.313066 162.880691 
L 887.85135 162.709577 
L 893.087831 162.286462 
L 899.371608 161.550588 
L 921.713927 158.681056 
L 933.583284 157.417444 
L 956.972899 155.291319 
L 980.013416 153.391646 
L 1012.130499 151.003463 
L 1087.884925 145.579356 
L 1087.884925 145.579356 
" clip-path="url(#pe7c57de80b)" style="fill: none; stroke: #dd8452; stroke-opacity: 0.9; stroke-width: 3; stroke-linecap: round"/>
   </g>
   <g id="line2d_33">
    <path d="M 833.391947 86.099455 
L 835.486539 96.071438 
L 839.675724 115.835474 
L 841.421218 123.021773 
L 843.166712 129.357709 
L 844.912205 134.933157 
L 846.657699 139.829043 
L 848.403193 144.117611 
L 850.148686 147.86291 
L 851.89418 151.122025 
L 853.639674 153.946332 
L 855.385167 156.382286 
L 857.130661 158.471499 
L 858.876155 160.251599 
L 860.621648 161.755828 
L 862.716241 163.238798 
L 864.810833 164.414779 
L 866.905426 165.328422 
L 869.000018 166.017603 
L 871.443709 166.576744 
L 873.8874 166.910178 
L 877.029289 167.091083 
L 880.520276 167.039402 
L 884.360362 166.750778 
L 888.898646 166.185488 
L 899.022509 164.588829 
L 910.193669 162.965367 
L 920.317532 161.723869 
L 929.394099 160.82474 
L 941.263456 159.895768 
L 958.020195 158.832795 
L 987.344489 157.233223 
L 1087.884925 152.058601 
L 1087.884925 152.058601 
" clip-path="url(#pe7c57de80b)" style="fill: none; stroke: #55a868; stroke-opacity: 0.9; stroke-width: 3; stroke-linecap: round"/>
   </g>
   <g id="line2d_34">
    <path d="M 833.391947 86.099455 
L 835.137441 94.123285 
L 839.675724 114.889111 
L 841.421218 121.851417 
L 843.166712 127.990904 
L 844.912205 133.394337 
L 846.657699 138.139563 
L 848.403193 142.296058 
L 850.148686 145.925778 
L 851.89418 149.084189 
L 853.639674 151.82111 
L 855.385167 154.181013 
L 857.130661 156.204482 
L 858.876155 157.928469 
L 860.621648 159.38598 
L 862.716241 160.824142 
L 864.810833 161.966401 
L 866.905426 162.854623 
L 869.000018 163.525899 
L 871.443709 164.073407 
L 873.8874 164.404173 
L 877.029289 164.592786 
L 880.520276 164.561318 
L 884.360362 164.300603 
L 889.247745 163.731571 
L 917.524742 159.937379 
L 927.648605 158.881833 
L 938.819765 157.965956 
L 954.529208 156.915816 
L 980.711613 155.410774 
L 1081.601147 149.974886 
L 1087.884925 149.635801 
L 1087.884925 149.635801 
" clip-path="url(#pe7c57de80b)" style="fill: none; stroke: #c44e52; stroke-opacity: 0.9; stroke-width: 3; stroke-linecap: round"/>
   </g>
   <g id="line2d_35">
    <path d="M 833.391947 86.099455 
L 836.184737 99.041202 
L 840.024823 116.362591 
L 841.770317 123.12856 
L 843.51581 129.097014 
L 845.261304 134.352415 
L 847.006798 138.970178 
L 848.752291 143.017656 
L 850.497785 146.554983 
L 852.243279 149.635954 
L 853.988772 152.308711 
L 855.734266 154.616194 
L 857.47976 156.596869 
L 859.225253 158.285011 
L 860.970747 159.71157 
L 863.065339 161.117227 
L 865.159932 162.228148 
L 867.254524 163.08506 
L 869.349117 163.720677 
L 871.792808 164.218386 
L 874.236499 164.493504 
L 877.029289 164.59641 
L 880.520276 164.485952 
L 884.360362 164.126652 
L 889.247745 163.428268 
L 895.531522 162.288952 
L 904.957188 160.331096 
L 918.921137 157.434797 
L 926.25221 156.194803 
L 935.328778 154.91127 
L 945.452641 153.689315 
L 957.671097 152.462216 
L 970.58775 151.371455 
L 991.533674 149.87105 
L 1039.011102 146.747813 
L 1087.884925 143.576828 
L 1087.884925 143.576828 
" clip-path="url(#pe7c57de80b)" style="fill: none; stroke: #8172b3; stroke-opacity: 0.9; stroke-width: 3; stroke-linecap: round"/>
   </g>
   <g id="line2d_36">
    <path d="M 833.391947 86.099455 
L 836.533836 100.24565 
L 840.024823 115.500605 
L 841.770317 122.078422 
L 843.51581 127.884444 
L 845.261304 133.00049 
L 847.006798 137.499737 
L 848.752291 141.447489 
L 850.497785 144.902169 
L 852.243279 147.915921 
L 853.988772 150.535222 
L 855.734266 152.80165 
L 857.47976 154.752816 
L 859.225253 156.42237 
L 861.319846 158.095466 
L 863.414438 159.450454 
L 865.509031 160.528281 
L 867.603623 161.366311 
L 870.047314 162.080983 
L 872.491005 162.551861 
L 875.283795 162.840908 
L 878.425684 162.923563 
L 882.26577 162.775325 
L 886.804053 162.362387 
L 892.389633 161.61317 
L 899.720707 160.380526 
L 924.855815 155.945878 
L 935.677876 154.461745 
L 948.594529 152.919471 
L 958.369294 151.932722 
L 974.078737 150.573582 
L 997.119254 148.841091 
L 1053.673249 144.862903 
L 1087.884925 142.48219 
L 1087.884925 142.48219 
" clip-path="url(#pe7c57de80b)" style="fill: none; stroke: #937860; stroke-opacity: 0.9; stroke-width: 3; stroke-linecap: round"/>
   </g>
   <g id="patch_9">
    <path d="M 820.667298 183.612 
L 820.667298 81.456 
" style="fill: none; stroke: #ffffff; stroke-width: 1.25; stroke-linejoin: miter; stroke-linecap: square"/>
   </g>
   <g id="patch_10">
    <path d="M 820.667298 183.612 
L 1100.609573 183.612 
" style="fill: none; stroke: #ffffff; stroke-width: 1.25; stroke-linejoin: miter; stroke-linecap: square"/>
   </g>
   <g id="text_11">
    <!-- 0.85~90 -->
    <g style="fill: #262626" transform="translate(905.991842 75.456) scale(0.252 -0.252)">
     <use xlink:href="#DejaVuSans-30"/>
     <use xlink:href="#DejaVuSans-2e" x="63.623047"/>
     <use xlink:href="#DejaVuSans-38" x="95.410156"/>
     <use xlink:href="#DejaVuSans-35" x="159.033203"/>
     <use xlink:href="#DejaVuSans-7e" x="222.65625"/>
     <use xlink:href="#DejaVuSans-39" x="306.445312"/>
     <use xlink:href="#DejaVuSans-30" x="370.068359"/>
    </g>
   </g>
  </g>
  <g id="axes_4">
   <g id="patch_11">
    <path d="M 208.160885 373.284 
L 488.10316 373.284 
L 488.10316 271.128 
L 208.160885 271.128 
z
" style="fill: #eaeaf2"/>
   </g>
   <g id="matplotlib.axis_7">
    <g id="xtick_13">
     <g id="line2d_37">
      <path d="M 220.885534 373.284 
L 220.885534 271.128 
" clip-path="url(#p5806494c2d)" style="fill: none; stroke: #ffffff; stroke-linecap: round"/>
     </g>
     <g id="text_12">
      <!-- 0 -->
      <g style="fill: #262626" transform="translate(213.536847 400.336391) scale(0.231 -0.231)">
       <use xlink:href="#DejaVuSans-30"/>
      </g>
     </g>
    </g>
    <g id="xtick_14">
     <g id="line2d_38">
      <path d="M 308.160218 373.284 
L 308.160218 271.128 
" clip-path="url(#p5806494c2d)" style="fill: none; stroke: #ffffff; stroke-linecap: round"/>
     </g>
     <g id="text_13">
      <!-- 250 -->
      <g style="fill: #262626" transform="translate(286.114155 400.336391) scale(0.231 -0.231)">
       <use xlink:href="#DejaVuSans-32"/>
       <use xlink:href="#DejaVuSans-35" x="63.623047"/>
       <use xlink:href="#DejaVuSans-30" x="127.246094"/>
      </g>
     </g>
    </g>
    <g id="xtick_15">
     <g id="line2d_39">
      <path d="M 395.434901 373.284 
L 395.434901 271.128 
" clip-path="url(#p5806494c2d)" style="fill: none; stroke: #ffffff; stroke-linecap: round"/>
     </g>
     <g id="text_14">
      <!-- 500 -->
      <g style="fill: #262626" transform="translate(373.388839 400.336391) scale(0.231 -0.231)">
       <use xlink:href="#DejaVuSans-35"/>
       <use xlink:href="#DejaVuSans-30" x="63.623047"/>
       <use xlink:href="#DejaVuSans-30" x="127.246094"/>
      </g>
     </g>
    </g>
    <g id="xtick_16">
     <g id="line2d_40">
      <path d="M 482.709585 373.284 
L 482.709585 271.128 
" clip-path="url(#p5806494c2d)" style="fill: none; stroke: #ffffff; stroke-linecap: round"/>
     </g>
     <g id="text_15">
      <!-- 750 -->
      <g style="fill: #262626" transform="translate(460.663523 400.336391) scale(0.231 -0.231)">
       <use xlink:href="#DejaVuSans-37"/>
       <use xlink:href="#DejaVuSans-35" x="63.623047"/>
       <use xlink:href="#DejaVuSans-30" x="127.246094"/>
      </g>
     </g>
    </g>
    <g id="text_16">
     <!-- step -->
     <g style="fill: #262626" transform="translate(320.876648 428.288531) scale(0.252 -0.252)">
      <use xlink:href="#DejaVuSans-73"/>
      <use xlink:href="#DejaVuSans-74" x="52.099609"/>
      <use xlink:href="#DejaVuSans-65" x="91.308594"/>
      <use xlink:href="#DejaVuSans-70" x="152.832031"/>
     </g>
    </g>
   </g>
   <g id="matplotlib.axis_8">
    <g id="ytick_7">
     <g id="line2d_41">
      <path d="M 208.160885 325.735259 
L 488.10316 325.735259 
" clip-path="url(#p5806494c2d)" style="fill: none; stroke: #ffffff; stroke-linecap: round"/>
     </g>
     <g id="text_17">
      <!-- −0.025 -->
      <g style="fill: #262626" transform="translate(113.172838 334.511454) scale(0.231 -0.231)">
       <use xlink:href="#DejaVuSans-2212"/>
       <use xlink:href="#DejaVuSans-30" x="83.789062"/>
       <use xlink:href="#DejaVuSans-2e" x="147.412109"/>
       <use xlink:href="#DejaVuSans-30" x="179.199219"/>
       <use xlink:href="#DejaVuSans-32" x="242.822266"/>
       <use xlink:href="#DejaVuSans-35" x="306.445312"/>
      </g>
     </g>
    </g>
    <g id="ytick_8">
     <g id="line2d_42">
      <path d="M 208.160885 275.771455 
L 488.10316 275.771455 
" clip-path="url(#p5806494c2d)" style="fill: none; stroke: #ffffff; stroke-linecap: round"/>
     </g>
     <g id="text_18">
      <!-- 0.000 -->
      <g style="fill: #262626" transform="translate(132.529916 284.54765) scale(0.231 -0.231)">
       <use xlink:href="#DejaVuSans-30"/>
       <use xlink:href="#DejaVuSans-2e" x="63.623047"/>
       <use xlink:href="#DejaVuSans-30" x="95.410156"/>
       <use xlink:href="#DejaVuSans-30" x="159.033203"/>
       <use xlink:href="#DejaVuSans-30" x="222.65625"/>
      </g>
     </g>
    </g>
    <g id="text_19">
     <!-- % change -->
     <g style="fill: #262626" transform="translate(103.932026 384.554344) rotate(-90) scale(0.252 -0.252)">
      <use xlink:href="#DejaVuSans-25"/>
      <use xlink:href="#DejaVuSans-20" x="95.019531"/>
      <use xlink:href="#DejaVuSans-63" x="126.806641"/>
      <use xlink:href="#DejaVuSans-68" x="181.787109"/>
      <use xlink:href="#DejaVuSans-61" x="245.166016"/>
      <use xlink:href="#DejaVuSans-6e" x="306.445312"/>
      <use xlink:href="#DejaVuSans-67" x="369.824219"/>
      <use xlink:href="#DejaVuSans-65" x="433.300781"/>
     </g>
    </g>
   </g>
   <g id="PolyCollection_19"/>
   <g id="PolyCollection_20"/>
   <g id="PolyCollection_21"/>
   <g id="PolyCollection_22"/>
   <g id="PolyCollection_23"/>
   <g id="PolyCollection_24"/>
   <g id="line2d_43">
    <path d="M 220.885534 275.771455 
L 223.678324 288.248487 
L 227.867509 306.581777 
L 229.613002 313.148571 
L 231.358496 319.001783 
L 233.453089 325.188962 
L 235.547681 330.571282 
L 237.642273 335.24925 
L 239.736866 339.310857 
L 241.831458 342.832937 
L 243.926051 345.882707 
L 246.020643 348.518971 
L 248.115235 350.793177 
L 250.209828 352.750358 
L 252.30442 354.430024 
L 254.748111 356.085225 
L 257.191802 357.457885 
L 259.635494 358.588471 
L 262.428283 359.628778 
L 265.570172 360.535709 
L 268.712061 361.215744 
L 272.203048 361.756141 
L 276.392233 362.165968 
L 280.930516 362.382008 
L 286.516096 362.420192 
L 294.894466 362.223299 
L 306.065625 361.72276 
L 325.964253 360.565653 
L 339.928203 359.830765 
L 354.939448 359.312808 
L 380.423656 358.678097 
L 426.853788 357.79592 
L 475.378512 356.987859 
L 475.378512 356.987859 
" clip-path="url(#p5806494c2d)" style="fill: none; stroke: #4c72b0; stroke-opacity: 0.9; stroke-width: 3; stroke-linecap: round"/>
   </g>
   <g id="line2d_44">
    <path d="M 220.885534 275.771455 
L 222.980126 284.939321 
L 227.867509 306.180491 
L 229.613002 312.700324 
L 231.707595 319.59909 
L 233.802187 325.608226 
L 235.89678 330.839073 
L 237.991372 335.388744 
L 240.085964 339.342192 
L 242.180557 342.773751 
L 244.275149 345.748478 
L 246.369742 348.323328 
L 248.464334 350.548146 
L 250.558927 352.466567 
L 252.653519 354.116651 
L 255.09721 355.7468 
L 257.540901 357.102667 
L 259.984592 358.223704 
L 262.777382 359.26092 
L 265.919271 360.167484 
L 269.410258 360.914374 
L 273.250344 361.492236 
L 277.439529 361.894793 
L 282.326911 362.134662 
L 288.26159 362.196218 
L 296.639959 362.041342 
L 308.509316 361.585639 
L 327.360648 360.612254 
L 346.910177 359.638744 
L 362.968719 359.11479 
L 397.878593 358.300057 
L 475.378512 356.757944 
L 475.378512 356.757944 
" clip-path="url(#p5806494c2d)" style="fill: none; stroke: #dd8452; stroke-opacity: 0.9; stroke-width: 3; stroke-linecap: round"/>
   </g>
   <g id="line2d_45">
    <path d="M 220.885534 275.771455 
L 222.631028 284.081535 
L 227.51841 307.381489 
L 229.263904 314.611973 
L 231.009397 321.055556 
L 232.754891 326.795153 
L 234.500385 331.904961 
L 236.594977 337.298321 
L 238.68957 341.981859 
L 240.784162 346.04425 
L 242.878754 349.562819 
L 244.973347 352.605295 
L 247.067939 355.230962 
L 249.162532 357.491594 
L 251.257124 359.432639 
L 253.351716 361.093805 
L 255.795408 362.724302 
L 258.239099 364.069378 
L 260.68279 365.170691 
L 263.47558 366.176301 
L 266.26837 366.954721 
L 269.410258 367.605668 
L 272.901246 368.104616 
L 277.09043 368.461966 
L 281.628714 368.622811 
L 287.563392 368.603066 
L 294.894466 368.344784 
L 305.367428 367.730569 
L 330.851635 366.137978 
L 344.815585 365.582374 
L 363.317818 365.08472 
L 391.245717 364.610228 
L 468.047438 363.605925 
L 475.378512 363.512787 
L 475.378512 363.512787 
" clip-path="url(#p5806494c2d)" style="fill: none; stroke: #55a868; stroke-opacity: 0.9; stroke-width: 3; stroke-linecap: round"/>
   </g>
   <g id="line2d_46">
    <path d="M 220.885534 275.771455 
L 222.631028 283.814503 
L 227.51841 306.374418 
L 229.263904 313.378737 
L 231.009397 319.621583 
L 232.754891 325.183041 
L 234.849483 331.057819 
L 236.944076 336.163913 
L 239.038668 340.597204 
L 241.133261 344.441611 
L 243.227853 347.770498 
L 245.322446 350.648036 
L 247.417038 353.130441 
L 249.51163 355.266853 
L 251.606223 357.100255 
L 253.700815 358.668334 
L 256.144506 360.206327 
L 258.588197 361.473587 
L 261.031889 362.509631 
L 263.824678 363.454221 
L 266.966567 364.2625 
L 270.457554 364.903934 
L 274.29764 365.36463 
L 278.486825 365.643655 
L 283.723306 365.755873 
L 290.356182 365.664035 
L 298.734552 365.309723 
L 312.349403 364.472784 
L 327.360648 363.610698 
L 342.371894 362.994282 
L 362.968719 362.388554 
L 387.056532 361.950236 
L 449.545205 361.083619 
L 475.378512 360.740446 
L 475.378512 360.740446 
" clip-path="url(#p5806494c2d)" style="fill: none; stroke: #c44e52; stroke-opacity: 0.9; stroke-width: 3; stroke-linecap: round"/>
   </g>
   <g id="line2d_47">
    <path d="M 220.885534 275.771455 
L 223.329225 287.134398 
L 227.51841 306.383239 
L 229.263904 313.358225 
L 231.009397 319.576372 
L 233.10399 326.150799 
L 235.198582 331.871697 
L 237.293175 336.845688 
L 239.387767 341.165995 
L 241.482359 344.914149 
L 243.576952 348.161467 
L 245.671544 350.970325 
L 247.766137 353.395263 
L 249.860729 355.483967 
L 251.955321 357.278134 
L 254.049914 358.814242 
L 256.493605 360.322602 
L 258.937296 361.566969 
L 261.730086 362.71379 
L 264.522876 363.612303 
L 267.664765 364.376338 
L 271.155752 364.973871 
L 274.995838 365.389592 
L 279.185023 365.616732 
L 284.072405 365.659362 
L 290.705281 365.476522 
L 299.083651 365.010132 
L 312.698501 363.991437 
L 344.466486 361.61203 
L 362.61962 360.451637 
L 376.932668 359.82333 
L 398.57679 359.110126 
L 433.137565 358.259958 
L 475.378512 357.373556 
L 475.378512 357.373556 
" clip-path="url(#p5806494c2d)" style="fill: none; stroke: #8172b3; stroke-opacity: 0.9; stroke-width: 3; stroke-linecap: round"/>
   </g>
   <g id="line2d_48">
    <path d="M 220.885534 275.771455 
L 223.678324 288.398754 
L 227.51841 305.496767 
L 229.263904 312.26901 
L 231.009397 318.307254 
L 233.10399 324.692604 
L 235.198582 330.250257 
L 237.293175 335.083677 
L 239.387767 339.283337 
L 241.482359 342.928357 
L 243.576952 346.087928 
L 245.671544 348.8226 
L 247.766137 351.185382 
L 249.860729 353.222572 
L 251.955321 354.974627 
L 254.399013 356.705289 
L 256.842704 358.144501 
L 259.286395 359.333869 
L 262.079185 360.432948 
L 264.871975 361.297843 
L 268.013863 362.037553 
L 271.504851 362.622 
L 275.344937 363.036022 
L 279.88322 363.285034 
L 285.119701 363.334722 
L 291.752577 363.165612 
L 301.527342 362.670168 
L 320.378673 361.444994 
L 347.957473 359.706425 
L 363.666917 358.920366 
L 383.565544 358.182061 
L 414.286233 357.292521 
L 464.90555 356.148458 
L 475.378512 355.928404 
L 475.378512 355.928404 
" clip-path="url(#p5806494c2d)" style="fill: none; stroke: #937860; stroke-opacity: 0.9; stroke-width: 3; stroke-linecap: round"/>
   </g>
   <g id="patch_12">
    <path d="M 208.160885 373.284 
L 208.160885 271.128 
" style="fill: none; stroke: #ffffff; stroke-width: 1.25; stroke-linejoin: miter; stroke-linecap: square"/>
   </g>
   <g id="patch_13">
    <path d="M 208.160885 373.284 
L 488.10316 373.284 
" style="fill: none; stroke: #ffffff; stroke-width: 1.25; stroke-linejoin: miter; stroke-linecap: square"/>
   </g>
   <g id="text_20">
    <!-- 0.85~365 -->
    <g style="fill: #262626" transform="translate(285.468679 265.128) scale(0.252 -0.252)">
     <use xlink:href="#DejaVuSans-30"/>
     <use xlink:href="#DejaVuSans-2e" x="63.623047"/>
     <use xlink:href="#DejaVuSans-38" x="95.410156"/>
     <use xlink:href="#DejaVuSans-35" x="159.033203"/>
     <use xlink:href="#DejaVuSans-7e" x="222.65625"/>
     <use xlink:href="#DejaVuSans-33" x="306.445312"/>
     <use xlink:href="#DejaVuSans-36" x="370.068359"/>
     <use xlink:href="#DejaVuSans-35" x="433.691406"/>
    </g>
   </g>
  </g>
  <g id="axes_5">
   <g id="patch_14">
    <path d="M 514.414092 373.284 
L 794.356367 373.284 
L 794.356367 271.128 
L 514.414092 271.128 
z
" style="fill: #eaeaf2"/>
   </g>
   <g id="matplotlib.axis_9">
    <g id="xtick_17">
     <g id="line2d_49">
      <path d="M 527.138741 373.284 
L 527.138741 271.128 
" clip-path="url(#p6a0717ef49)" style="fill: none; stroke: #ffffff; stroke-linecap: round"/>
     </g>
     <g id="text_21">
      <!-- 0 -->
      <g style="fill: #262626" transform="translate(519.790053 400.336391) scale(0.231 -0.231)">
       <use xlink:href="#DejaVuSans-30"/>
      </g>
     </g>
    </g>
    <g id="xtick_18">
     <g id="line2d_50">
      <path d="M 614.413424 373.284 
L 614.413424 271.128 
" clip-path="url(#p6a0717ef49)" style="fill: none; stroke: #ffffff; stroke-linecap: round"/>
     </g>
     <g id="text_22">
      <!-- 250 -->
      <g style="fill: #262626" transform="translate(592.367362 400.336391) scale(0.231 -0.231)">
       <use xlink:href="#DejaVuSans-32"/>
       <use xlink:href="#DejaVuSans-35" x="63.623047"/>
       <use xlink:href="#DejaVuSans-30" x="127.246094"/>
      </g>
     </g>
    </g>
    <g id="xtick_19">
     <g id="line2d_51">
      <path d="M 701.688108 373.284 
L 701.688108 271.128 
" clip-path="url(#p6a0717ef49)" style="fill: none; stroke: #ffffff; stroke-linecap: round"/>
     </g>
     <g id="text_23">
      <!-- 500 -->
      <g style="fill: #262626" transform="translate(679.642045 400.336391) scale(0.231 -0.231)">
       <use xlink:href="#DejaVuSans-35"/>
       <use xlink:href="#DejaVuSans-30" x="63.623047"/>
       <use xlink:href="#DejaVuSans-30" x="127.246094"/>
      </g>
     </g>
    </g>
    <g id="xtick_20">
     <g id="line2d_52">
      <path d="M 788.962792 373.284 
L 788.962792 271.128 
" clip-path="url(#p6a0717ef49)" style="fill: none; stroke: #ffffff; stroke-linecap: round"/>
     </g>
     <g id="text_24">
      <!-- 750 -->
      <g style="fill: #262626" transform="translate(766.916729 400.336391) scale(0.231 -0.231)">
       <use xlink:href="#DejaVuSans-37"/>
       <use xlink:href="#DejaVuSans-35" x="63.623047"/>
       <use xlink:href="#DejaVuSans-30" x="127.246094"/>
      </g>
     </g>
    </g>
    <g id="text_25">
     <!-- step -->
     <g style="fill: #262626" transform="translate(627.129854 428.288531) scale(0.252 -0.252)">
      <use xlink:href="#DejaVuSans-73"/>
      <use xlink:href="#DejaVuSans-74" x="52.099609"/>
      <use xlink:href="#DejaVuSans-65" x="91.308594"/>
      <use xlink:href="#DejaVuSans-70" x="152.832031"/>
     </g>
    </g>
   </g>
   <g id="matplotlib.axis_10">
    <g id="ytick_9">
     <g id="line2d_53">
      <path d="M 514.414092 325.735259 
L 794.356367 325.735259 
" clip-path="url(#p6a0717ef49)" style="fill: none; stroke: #ffffff; stroke-linecap: round"/>
     </g>
    </g>
    <g id="ytick_10">
     <g id="line2d_54">
      <path d="M 514.414092 275.771455 
L 794.356367 275.771455 
" clip-path="url(#p6a0717ef49)" style="fill: none; stroke: #ffffff; stroke-linecap: round"/>
     </g>
    </g>
   </g>
   <g id="PolyCollection_25"/>
   <g id="PolyCollection_26"/>
   <g id="PolyCollection_27"/>
   <g id="PolyCollection_28"/>
   <g id="PolyCollection_29"/>
   <g id="PolyCollection_30"/>
   <g id="line2d_55">
    <path d="M 527.138741 275.771455 
L 530.280629 289.749002 
L 533.771617 304.840178 
L 535.51711 311.356185 
L 537.262604 317.10303 
L 539.008098 322.162131 
L 540.753591 326.606143 
L 542.499085 330.49989 
L 544.244579 333.901268 
L 545.990072 336.863377 
L 547.735566 339.433566 
L 549.48106 341.653055 
L 551.226553 343.55919 
L 553.321146 345.488078 
L 555.415738 347.074555 
L 557.51033 348.364591 
L 559.604923 349.39695 
L 561.699515 350.203615 
L 564.143206 350.896652 
L 566.586898 351.359009 
L 569.379687 351.653252 
L 572.870675 351.783366 
L 576.710761 351.708079 
L 581.249044 351.393726 
L 586.834624 350.764489 
L 594.165698 349.693806 
L 603.591363 348.387291 
L 614.413424 347.132914 
L 628.726472 345.700654 
L 646.181409 344.199286 
L 660.843556 343.149311 
L 694.706133 340.998482 
L 781.631718 335.63097 
L 781.631718 335.63097 
" clip-path="url(#p6a0717ef49)" style="fill: none; stroke: #4c72b0; stroke-opacity: 0.9; stroke-width: 3; stroke-linecap: round"/>
   </g>
   <g id="line2d_56">
    <path d="M 527.138741 275.771455 
L 529.233333 284.9159 
L 533.771617 304.501402 
L 535.51711 310.999125 
L 537.262604 316.741431 
L 539.008098 321.808058 
L 540.753591 326.270547 
L 542.499085 330.192816 
L 544.244579 333.631665 
L 545.990072 336.63788 
L 547.735566 339.256888 
L 549.48106 341.529357 
L 551.226553 343.491969 
L 553.321146 345.48575 
L 555.415738 347.132792 
L 557.51033 348.484005 
L 559.604923 349.581913 
L 562.048614 350.589132 
L 564.492305 351.342817 
L 566.935996 351.879064 
L 569.728786 352.267508 
L 573.219774 352.506765 
L 577.05986 352.552691 
L 581.598143 352.381577 
L 586.834624 351.958462 
L 593.118401 351.222588 
L 615.46072 348.353056 
L 627.330077 347.089444 
L 650.719693 344.963319 
L 673.760209 343.063646 
L 705.877293 340.675463 
L 781.631718 335.251356 
L 781.631718 335.251356 
" clip-path="url(#p6a0717ef49)" style="fill: none; stroke: #dd8452; stroke-opacity: 0.9; stroke-width: 3; stroke-linecap: round"/>
   </g>
   <g id="line2d_57">
    <path d="M 527.138741 275.771455 
L 529.233333 285.743438 
L 533.422518 305.507474 
L 535.168011 312.693773 
L 536.913505 319.029709 
L 538.658999 324.605157 
L 540.404492 329.501043 
L 542.149986 333.789611 
L 543.89548 337.53491 
L 545.640973 340.794025 
L 547.386467 343.618332 
L 549.131961 346.054286 
L 550.877455 348.143499 
L 552.622948 349.923599 
L 554.368442 351.427828 
L 556.463034 352.910798 
L 558.557627 354.086779 
L 560.652219 355.000422 
L 562.746811 355.689603 
L 565.190503 356.248744 
L 567.634194 356.582178 
L 570.776082 356.763083 
L 574.26707 356.711402 
L 578.107156 356.422778 
L 582.645439 355.857488 
L 592.769303 354.260829 
L 603.940462 352.637367 
L 614.064325 351.395869 
L 623.140893 350.49674 
L 635.01025 349.567768 
L 651.766989 348.504795 
L 681.091283 346.905223 
L 781.631718 341.730601 
L 781.631718 341.730601 
" clip-path="url(#p6a0717ef49)" style="fill: none; stroke: #55a868; stroke-opacity: 0.9; stroke-width: 3; stroke-linecap: round"/>
   </g>
   <g id="line2d_58">
    <path d="M 527.138741 275.771455 
L 528.884234 283.795285 
L 533.422518 304.561111 
L 535.168011 311.523417 
L 536.913505 317.662904 
L 538.658999 323.066337 
L 540.404492 327.811563 
L 542.149986 331.968058 
L 543.89548 335.597778 
L 545.640973 338.756189 
L 547.386467 341.49311 
L 549.131961 343.853013 
L 550.877455 345.876482 
L 552.622948 347.600469 
L 554.368442 349.05798 
L 556.463034 350.496371 
L 558.557627 351.639958 
L 560.652219 352.529739 
L 562.746811 353.201884 
L 565.190503 353.749414 
L 567.634194 354.080139 
L 570.776082 354.268697 
L 574.26707 354.237168 
L 578.107156 353.976411 
L 582.994538 353.407362 
L 611.271536 349.613166 
L 621.395399 348.557655 
L 632.566558 347.641818 
L 648.276001 346.591723 
L 674.458407 345.086721 
L 775.69704 339.631873 
L 781.631718 339.311604 
L 781.631718 339.311604 
" clip-path="url(#p6a0717ef49)" style="fill: none; stroke: #c44e52; stroke-opacity: 0.9; stroke-width: 3; stroke-linecap: round"/>
   </g>
   <g id="line2d_59">
    <path d="M 527.138741 275.771455 
L 529.93153 288.713202 
L 533.771617 306.034591 
L 535.51711 312.80056 
L 537.262604 318.769014 
L 539.008098 324.024415 
L 540.753591 328.642178 
L 542.499085 332.689656 
L 544.244579 336.226983 
L 545.990072 339.307954 
L 547.735566 341.980711 
L 549.48106 344.288194 
L 551.226553 346.268869 
L 552.972047 347.957011 
L 554.717541 349.38357 
L 556.812133 350.789227 
L 558.906725 351.900148 
L 561.001318 352.75706 
L 563.09591 353.392677 
L 565.539601 353.890386 
L 567.983293 354.165504 
L 570.776082 354.26841 
L 574.26707 354.157952 
L 578.107156 353.798652 
L 582.994538 353.100268 
L 589.278315 351.960952 
L 598.703981 350.003096 
L 612.667931 347.106797 
L 619.999004 345.866803 
L 629.075571 344.58327 
L 639.199434 343.361315 
L 651.41789 342.134216 
L 664.334543 341.043455 
L 685.280467 339.54305 
L 732.757895 336.419813 
L 781.631718 333.248828 
L 781.631718 333.248828 
" clip-path="url(#p6a0717ef49)" style="fill: none; stroke: #8172b3; stroke-opacity: 0.9; stroke-width: 3; stroke-linecap: round"/>
   </g>
   <g id="line2d_60">
    <path d="M 527.138741 275.771455 
L 530.280629 289.91765 
L 533.771617 305.172605 
L 535.51711 311.750422 
L 537.262604 317.556444 
L 539.008098 322.67249 
L 540.753591 327.171737 
L 542.499085 331.119489 
L 544.244579 334.574169 
L 545.990072 337.587921 
L 547.735566 340.207222 
L 549.48106 342.47365 
L 551.226553 344.424816 
L 552.972047 346.09437 
L 555.066639 347.767466 
L 557.161232 349.122454 
L 559.255824 350.200281 
L 561.350417 351.038311 
L 563.794108 351.752983 
L 566.237799 352.223861 
L 569.030589 352.512908 
L 572.172477 352.595563 
L 576.012563 352.447325 
L 580.550847 352.034387 
L 586.136427 351.28517 
L 593.4675 350.052526 
L 618.602609 345.617878 
L 629.42467 344.133745 
L 642.341323 342.591471 
L 652.116088 341.604722 
L 667.825531 340.245582 
L 690.866047 338.513091 
L 747.420042 334.534903 
L 781.631718 332.15419 
L 781.631718 332.15419 
" clip-path="url(#p6a0717ef49)" style="fill: none; stroke: #937860; stroke-opacity: 0.9; stroke-width: 3; stroke-linecap: round"/>
   </g>
   <g id="patch_15">
    <path d="M 514.414092 373.284 
L 514.414092 271.128 
" style="fill: none; stroke: #ffffff; stroke-width: 1.25; stroke-linejoin: miter; stroke-linecap: square"/>
   </g>
   <g id="patch_16">
    <path d="M 514.414092 373.284 
L 794.356367 373.284 
" style="fill: none; stroke: #ffffff; stroke-width: 1.25; stroke-linejoin: miter; stroke-linecap: square"/>
   </g>
   <g id="text_26">
    <!-- 0.95~90 -->
    <g style="fill: #262626" transform="translate(599.738636 265.128) scale(0.252 -0.252)">
     <use xlink:href="#DejaVuSans-30"/>
     <use xlink:href="#DejaVuSans-2e" x="63.623047"/>
     <use xlink:href="#DejaVuSans-39" x="95.410156"/>
     <use xlink:href="#DejaVuSans-35" x="159.033203"/>
     <use xlink:href="#DejaVuSans-7e" x="222.65625"/>
     <use xlink:href="#DejaVuSans-39" x="306.445312"/>
     <use xlink:href="#DejaVuSans-30" x="370.068359"/>
    </g>
   </g>
  </g>
  <g id="text_27">
   <!-- Production change from pre-shock level -->
   <g style="fill: #262626" transform="translate(280.766836 30.177675) scale(0.3024 -0.3024)">
    <defs>
     <path id="DejaVuSans-50" d="M 1259 4147 
L 1259 2394 
L 2053 2394 
Q 2494 2394 2734 2622 
Q 2975 2850 2975 3272 
Q 2975 3691 2734 3919 
Q 2494 4147 2053 4147 
L 1259 4147 
z
M 628 4666 
L 2053 4666 
Q 2838 4666 3239 4311 
Q 3641 3956 3641 3272 
Q 3641 2581 3239 2228 
Q 2838 1875 2053 1875 
L 1259 1875 
L 1259 0 
L 628 0 
L 628 4666 
z
" transform="scale(0.015625)"/>
     <path id="DejaVuSans-72" d="M 2631 2963 
Q 2534 3019 2420 3045 
Q 2306 3072 2169 3072 
Q 1681 3072 1420 2755 
Q 1159 2438 1159 1844 
L 1159 0 
L 581 0 
L 581 3500 
L 1159 3500 
L 1159 2956 
Q 1341 3275 1631 3429 
Q 1922 3584 2338 3584 
Q 2397 3584 2469 3576 
Q 2541 3569 2628 3553 
L 2631 2963 
z
" transform="scale(0.015625)"/>
     <path id="DejaVuSans-6f" d="M 1959 3097 
Q 1497 3097 1228 2736 
Q 959 2375 959 1747 
Q 959 1119 1226 758 
Q 1494 397 1959 397 
Q 2419 397 2687 759 
Q 2956 1122 2956 1747 
Q 2956 2369 2687 2733 
Q 2419 3097 1959 3097 
z
M 1959 3584 
Q 2709 3584 3137 3096 
Q 3566 2609 3566 1747 
Q 3566 888 3137 398 
Q 2709 -91 1959 -91 
Q 1206 -91 779 398 
Q 353 888 353 1747 
Q 353 2609 779 3096 
Q 1206 3584 1959 3584 
z
" transform="scale(0.015625)"/>
     <path id="DejaVuSans-64" d="M 2906 2969 
L 2906 4863 
L 3481 4863 
L 3481 0 
L 2906 0 
L 2906 525 
Q 2725 213 2448 61 
Q 2172 -91 1784 -91 
Q 1150 -91 751 415 
Q 353 922 353 1747 
Q 353 2572 751 3078 
Q 1150 3584 1784 3584 
Q 2172 3584 2448 3432 
Q 2725 3281 2906 2969 
z
M 947 1747 
Q 947 1113 1208 752 
Q 1469 391 1925 391 
Q 2381 391 2643 752 
Q 2906 1113 2906 1747 
Q 2906 2381 2643 2742 
Q 2381 3103 1925 3103 
Q 1469 3103 1208 2742 
Q 947 2381 947 1747 
z
" transform="scale(0.015625)"/>
     <path id="DejaVuSans-75" d="M 544 1381 
L 544 3500 
L 1119 3500 
L 1119 1403 
Q 1119 906 1312 657 
Q 1506 409 1894 409 
Q 2359 409 2629 706 
Q 2900 1003 2900 1516 
L 2900 3500 
L 3475 3500 
L 3475 0 
L 2900 0 
L 2900 538 
Q 2691 219 2414 64 
Q 2138 -91 1772 -91 
Q 1169 -91 856 284 
Q 544 659 544 1381 
z
M 1991 3584 
L 1991 3584 
z
" transform="scale(0.015625)"/>
     <path id="DejaVuSans-69" d="M 603 3500 
L 1178 3500 
L 1178 0 
L 603 0 
L 603 3500 
z
M 603 4863 
L 1178 4863 
L 1178 4134 
L 603 4134 
L 603 4863 
z
" transform="scale(0.015625)"/>
     <path id="DejaVuSans-66" d="M 2375 4863 
L 2375 4384 
L 1825 4384 
Q 1516 4384 1395 4259 
Q 1275 4134 1275 3809 
L 1275 3500 
L 2222 3500 
L 2222 3053 
L 1275 3053 
L 1275 0 
L 697 0 
L 697 3053 
L 147 3053 
L 147 3500 
L 697 3500 
L 697 3744 
Q 697 4328 969 4595 
Q 1241 4863 1831 4863 
L 2375 4863 
z
" transform="scale(0.015625)"/>
     <path id="DejaVuSans-6d" d="M 3328 2828 
Q 3544 3216 3844 3400 
Q 4144 3584 4550 3584 
Q 5097 3584 5394 3201 
Q 5691 2819 5691 2113 
L 5691 0 
L 5113 0 
L 5113 2094 
Q 5113 2597 4934 2840 
Q 4756 3084 4391 3084 
Q 3944 3084 3684 2787 
Q 3425 2491 3425 1978 
L 3425 0 
L 2847 0 
L 2847 2094 
Q 2847 2600 2669 2842 
Q 2491 3084 2119 3084 
Q 1678 3084 1418 2786 
Q 1159 2488 1159 1978 
L 1159 0 
L 581 0 
L 581 3500 
L 1159 3500 
L 1159 2956 
Q 1356 3278 1631 3431 
Q 1906 3584 2284 3584 
Q 2666 3584 2933 3390 
Q 3200 3197 3328 2828 
z
" transform="scale(0.015625)"/>
     <path id="DejaVuSans-2d" d="M 313 2009 
L 1997 2009 
L 1997 1497 
L 313 1497 
L 313 2009 
z
" transform="scale(0.015625)"/>
     <path id="DejaVuSans-6b" d="M 581 4863 
L 1159 4863 
L 1159 1991 
L 2875 3500 
L 3609 3500 
L 1753 1863 
L 3688 0 
L 2938 0 
L 1159 1709 
L 1159 0 
L 581 0 
L 581 4863 
z
" transform="scale(0.015625)"/>
     <path id="DejaVuSans-6c" d="M 603 4863 
L 1178 4863 
L 1178 0 
L 603 0 
L 603 4863 
z
" transform="scale(0.015625)"/>
     <path id="DejaVuSans-76" d="M 191 3500 
L 800 3500 
L 1894 563 
L 2988 3500 
L 3597 3500 
L 2284 0 
L 1503 0 
L 191 3500 
z
" transform="scale(0.015625)"/>
    </defs>
    <use xlink:href="#DejaVuSans-50"/>
    <use xlink:href="#DejaVuSans-72" x="58.552734"/>
    <use xlink:href="#DejaVuSans-6f" x="97.416016"/>
    <use xlink:href="#DejaVuSans-64" x="158.597656"/>
    <use xlink:href="#DejaVuSans-75" x="222.074219"/>
    <use xlink:href="#DejaVuSans-63" x="285.453125"/>
    <use xlink:href="#DejaVuSans-74" x="340.433594"/>
    <use xlink:href="#DejaVuSans-69" x="379.642578"/>
    <use xlink:href="#DejaVuSans-6f" x="407.425781"/>
    <use xlink:href="#DejaVuSans-6e" x="468.607422"/>
    <use xlink:href="#DejaVuSans-20" x="531.986328"/>
    <use xlink:href="#DejaVuSans-63" x="563.773438"/>
    <use xlink:href="#DejaVuSans-68" x="618.753906"/>
    <use xlink:href="#DejaVuSans-61" x="682.132812"/>
    <use xlink:href="#DejaVuSans-6e" x="743.412109"/>
    <use xlink:href="#DejaVuSans-67" x="806.791016"/>
    <use xlink:href="#DejaVuSans-65" x="870.267578"/>
    <use xlink:href="#DejaVuSans-20" x="931.791016"/>
    <use xlink:href="#DejaVuSans-66" x="963.578125"/>
    <use xlink:href="#DejaVuSans-72" x="998.783203"/>
    <use xlink:href="#DejaVuSans-6f" x="1037.646484"/>
    <use xlink:href="#DejaVuSans-6d" x="1098.828125"/>
    <use xlink:href="#DejaVuSans-20" x="1196.240234"/>
    <use xlink:href="#DejaVuSans-70" x="1228.027344"/>
    <use xlink:href="#DejaVuSans-72" x="1291.503906"/>
    <use xlink:href="#DejaVuSans-65" x="1330.367188"/>
    <use xlink:href="#DejaVuSans-2d" x="1391.890625"/>
    <use xlink:href="#DejaVuSans-73" x="1427.974609"/>
    <use xlink:href="#DejaVuSans-68" x="1480.074219"/>
    <use xlink:href="#DejaVuSans-6f" x="1543.453125"/>
    <use xlink:href="#DejaVuSans-63" x="1604.634766"/>
    <use xlink:href="#DejaVuSans-6b" x="1659.615234"/>
    <use xlink:href="#DejaVuSans-20" x="1717.525391"/>
    <use xlink:href="#DejaVuSans-6c" x="1749.3125"/>
    <use xlink:href="#DejaVuSans-65" x="1777.095703"/>
    <use xlink:href="#DejaVuSans-76" x="1838.619141"/>
    <use xlink:href="#DejaVuSans-65" x="1897.798828"/>
    <use xlink:href="#DejaVuSans-6c" x="1959.322266"/>
   </g>
  </g>
  <g id="legend_1">
   <g id="patch_17">
    <path d="M 11.82 584.31675 
L 1292.617547 584.31675 
Q 1297.237547 584.31675 1297.237547 579.69675 
L 1297.237547 476.97 
Q 1297.237547 472.35 1292.617547 472.35 
L 11.82 472.35 
Q 7.2 472.35 7.2 476.97 
L 7.2 579.69675 
Q 7.2 584.31675 11.82 584.31675 
z
" style="fill: #eaeaf2; opacity: 0.8; stroke: #cccccc; stroke-linejoin: miter"/>
   </g>
   <g id="text_28">
    <!-- Experiences -->
    <g style="fill: #262626" transform="translate(575.384367 500.738062) scale(0.252 -0.252)">
     <defs>
      <path id="DejaVuSans-45" d="M 628 4666 
L 3578 4666 
L 3578 4134 
L 1259 4134 
L 1259 2753 
L 3481 2753 
L 3481 2222 
L 1259 2222 
L 1259 531 
L 3634 531 
L 3634 0 
L 628 0 
L 628 4666 
z
" transform="scale(0.015625)"/>
      <path id="DejaVuSans-78" d="M 3513 3500 
L 2247 1797 
L 3578 0 
L 2900 0 
L 1881 1375 
L 863 0 
L 184 0 
L 1544 1831 
L 300 3500 
L 978 3500 
L 1906 2253 
L 2834 3500 
L 3513 3500 
z
" transform="scale(0.015625)"/>
     </defs>
     <use xlink:href="#DejaVuSans-45"/>
     <use xlink:href="#DejaVuSans-78" x="63.183594"/>
     <use xlink:href="#DejaVuSans-70" x="122.363281"/>
     <use xlink:href="#DejaVuSans-65" x="185.839844"/>
     <use xlink:href="#DejaVuSans-72" x="247.363281"/>
     <use xlink:href="#DejaVuSans-69" x="288.476562"/>
     <use xlink:href="#DejaVuSans-65" x="316.259766"/>
     <use xlink:href="#DejaVuSans-6e" x="377.783203"/>
     <use xlink:href="#DejaVuSans-63" x="441.162109"/>
     <use xlink:href="#DejaVuSans-65" x="496.142578"/>
     <use xlink:href="#DejaVuSans-73" x="557.666016"/>
    </g>
   </g>
   <g id="line2d_61">
    <path d="M 16.44 526.996266 
L 39.54 526.996266 
L 62.64 526.996266 
" style="fill: none; stroke: #4c72b0; stroke-opacity: 0.9; stroke-width: 3; stroke-linecap: round"/>
   </g>
   <g id="text_29">
    <!-- eora26_full_2000 -->
    <g style="fill: #262626" transform="translate(81.12 535.081266) scale(0.231 -0.231)">
     <defs>
      <path id="DejaVuSans-5f" d="M 3263 -1063 
L 3263 -1509 
L -63 -1509 
L -63 -1063 
L 3263 -1063 
z
" transform="scale(0.015625)"/>
     </defs>
     <use xlink:href="#DejaVuSans-65"/>
     <use xlink:href="#DejaVuSans-6f" x="61.523438"/>
     <use xlink:href="#DejaVuSans-72" x="122.705078"/>
     <use xlink:href="#DejaVuSans-61" x="163.818359"/>
     <use xlink:href="#DejaVuSans-32" x="225.097656"/>
     <use xlink:href="#DejaVuSans-36" x="288.720703"/>
     <use xlink:href="#DejaVuSans-5f" x="352.34375"/>
     <use xlink:href="#DejaVuSans-66" x="402.34375"/>
     <use xlink:href="#DejaVuSans-75" x="437.548828"/>
     <use xlink:href="#DejaVuSans-6c" x="500.927734"/>
     <use xlink:href="#DejaVuSans-6c" x="528.710938"/>
     <use xlink:href="#DejaVuSans-5f" x="556.494141"/>
     <use xlink:href="#DejaVuSans-32" x="606.494141"/>
     <use xlink:href="#DejaVuSans-30" x="670.117188"/>
     <use xlink:href="#DejaVuSans-30" x="733.740234"/>
     <use xlink:href="#DejaVuSans-30" x="797.363281"/>
    </g>
   </g>
   <g id="line2d_62">
    <path d="M 16.44 561.545203 
L 39.54 561.545203 
L 62.64 561.545203 
" style="fill: none; stroke: #dd8452; stroke-opacity: 0.9; stroke-width: 3; stroke-linecap: round"/>
   </g>
   <g id="text_30">
    <!-- eora26_full_2010 -->
    <g style="fill: #262626" transform="translate(81.12 569.630203) scale(0.231 -0.231)">
     <defs>
      <path id="DejaVuSans-31" d="M 794 531 
L 1825 531 
L 1825 4091 
L 703 3866 
L 703 4441 
L 1819 4666 
L 2450 4666 
L 2450 531 
L 3481 531 
L 3481 0 
L 794 0 
L 794 531 
z
" transform="scale(0.015625)"/>
     </defs>
     <use xlink:href="#DejaVuSans-65"/>
     <use xlink:href="#DejaVuSans-6f" x="61.523438"/>
     <use xlink:href="#DejaVuSans-72" x="122.705078"/>
     <use xlink:href="#DejaVuSans-61" x="163.818359"/>
     <use xlink:href="#DejaVuSans-32" x="225.097656"/>
     <use xlink:href="#DejaVuSans-36" x="288.720703"/>
     <use xlink:href="#DejaVuSans-5f" x="352.34375"/>
     <use xlink:href="#DejaVuSans-66" x="402.34375"/>
     <use xlink:href="#DejaVuSans-75" x="437.548828"/>
     <use xlink:href="#DejaVuSans-6c" x="500.927734"/>
     <use xlink:href="#DejaVuSans-6c" x="528.710938"/>
     <use xlink:href="#DejaVuSans-5f" x="556.494141"/>
     <use xlink:href="#DejaVuSans-32" x="606.494141"/>
     <use xlink:href="#DejaVuSans-30" x="670.117188"/>
     <use xlink:href="#DejaVuSans-31" x="733.740234"/>
     <use xlink:href="#DejaVuSans-30" x="797.363281"/>
    </g>
   </g>
   <g id="line2d_63">
    <path d="M 326.211 526.996266 
L 349.311 526.996266 
L 372.411 526.996266 
" style="fill: none; stroke: #55a868; stroke-opacity: 0.9; stroke-width: 3; stroke-linecap: round"/>
   </g>
   <g id="text_31">
    <!-- euregio_full_2000 -->
    <g style="fill: #262626" transform="translate(390.891 535.081266) scale(0.231 -0.231)">
     <use xlink:href="#DejaVuSans-65"/>
     <use xlink:href="#DejaVuSans-75" x="61.523438"/>
     <use xlink:href="#DejaVuSans-72" x="124.902344"/>
     <use xlink:href="#DejaVuSans-65" x="163.765625"/>
     <use xlink:href="#DejaVuSans-67" x="225.289062"/>
     <use xlink:href="#DejaVuSans-69" x="288.765625"/>
     <use xlink:href="#DejaVuSans-6f" x="316.548828"/>
     <use xlink:href="#DejaVuSans-5f" x="377.730469"/>
     <use xlink:href="#DejaVuSans-66" x="427.730469"/>
     <use xlink:href="#DejaVuSans-75" x="462.935547"/>
     <use xlink:href="#DejaVuSans-6c" x="526.314453"/>
     <use xlink:href="#DejaVuSans-6c" x="554.097656"/>
     <use xlink:href="#DejaVuSans-5f" x="581.880859"/>
     <use xlink:href="#DejaVuSans-32" x="631.880859"/>
     <use xlink:href="#DejaVuSans-30" x="695.503906"/>
     <use xlink:href="#DejaVuSans-30" x="759.126953"/>
     <use xlink:href="#DejaVuSans-30" x="822.75"/>
    </g>
   </g>
   <g id="line2d_64">
    <path d="M 326.211 561.545203 
L 349.311 561.545203 
L 372.411 561.545203 
" style="fill: none; stroke: #c44e52; stroke-opacity: 0.9; stroke-width: 3; stroke-linecap: round"/>
   </g>
   <g id="text_32">
    <!-- euregio_full_2010 -->
    <g style="fill: #262626" transform="translate(390.891 569.630203) scale(0.231 -0.231)">
     <use xlink:href="#DejaVuSans-65"/>
     <use xlink:href="#DejaVuSans-75" x="61.523438"/>
     <use xlink:href="#DejaVuSans-72" x="124.902344"/>
     <use xlink:href="#DejaVuSans-65" x="163.765625"/>
     <use xlink:href="#DejaVuSans-67" x="225.289062"/>
     <use xlink:href="#DejaVuSans-69" x="288.765625"/>
     <use xlink:href="#DejaVuSans-6f" x="316.548828"/>
     <use xlink:href="#DejaVuSans-5f" x="377.730469"/>
     <use xlink:href="#DejaVuSans-66" x="427.730469"/>
     <use xlink:href="#DejaVuSans-75" x="462.935547"/>
     <use xlink:href="#DejaVuSans-6c" x="526.314453"/>
     <use xlink:href="#DejaVuSans-6c" x="554.097656"/>
     <use xlink:href="#DejaVuSans-5f" x="581.880859"/>
     <use xlink:href="#DejaVuSans-32" x="631.880859"/>
     <use xlink:href="#DejaVuSans-30" x="695.503906"/>
     <use xlink:href="#DejaVuSans-31" x="759.126953"/>
     <use xlink:href="#DejaVuSans-30" x="822.75"/>
    </g>
   </g>
   <g id="line2d_65">
    <path d="M 641.847234 526.996266 
L 664.947234 526.996266 
L 688.047234 526.996266 
" style="fill: none; stroke: #8172b3; stroke-opacity: 0.9; stroke-width: 3; stroke-linecap: round"/>
   </g>
   <g id="text_33">
    <!-- exiobase3_full_2000 -->
    <g style="fill: #262626" transform="translate(706.527234 535.081266) scale(0.231 -0.231)">
     <defs>
      <path id="DejaVuSans-62" d="M 3116 1747 
Q 3116 2381 2855 2742 
Q 2594 3103 2138 3103 
Q 1681 3103 1420 2742 
Q 1159 2381 1159 1747 
Q 1159 1113 1420 752 
Q 1681 391 2138 391 
Q 2594 391 2855 752 
Q 3116 1113 3116 1747 
z
M 1159 2969 
Q 1341 3281 1617 3432 
Q 1894 3584 2278 3584 
Q 2916 3584 3314 3078 
Q 3713 2572 3713 1747 
Q 3713 922 3314 415 
Q 2916 -91 2278 -91 
Q 1894 -91 1617 61 
Q 1341 213 1159 525 
L 1159 0 
L 581 0 
L 581 4863 
L 1159 4863 
L 1159 2969 
z
" transform="scale(0.015625)"/>
     </defs>
     <use xlink:href="#DejaVuSans-65"/>
     <use xlink:href="#DejaVuSans-78" x="59.773438"/>
     <use xlink:href="#DejaVuSans-69" x="118.953125"/>
     <use xlink:href="#DejaVuSans-6f" x="146.736328"/>
     <use xlink:href="#DejaVuSans-62" x="207.917969"/>
     <use xlink:href="#DejaVuSans-61" x="271.394531"/>
     <use xlink:href="#DejaVuSans-73" x="332.673828"/>
     <use xlink:href="#DejaVuSans-65" x="384.773438"/>
     <use xlink:href="#DejaVuSans-33" x="446.296875"/>
     <use xlink:href="#DejaVuSans-5f" x="509.919922"/>
     <use xlink:href="#DejaVuSans-66" x="559.919922"/>
     <use xlink:href="#DejaVuSans-75" x="595.125"/>
     <use xlink:href="#DejaVuSans-6c" x="658.503906"/>
     <use xlink:href="#DejaVuSans-6c" x="686.287109"/>
     <use xlink:href="#DejaVuSans-5f" x="714.070312"/>
     <use xlink:href="#DejaVuSans-32" x="764.070312"/>
     <use xlink:href="#DejaVuSans-30" x="827.693359"/>
     <use xlink:href="#DejaVuSans-30" x="891.316406"/>
     <use xlink:href="#DejaVuSans-30" x="954.939453"/>
    </g>
   </g>
   <g id="line2d_66">
    <path d="M 988.022391 526.996266 
L 1011.122391 526.996266 
L 1034.222391 526.996266 
" style="fill: none; stroke: #937860; stroke-opacity: 0.9; stroke-width: 3; stroke-linecap: round"/>
   </g>
   <g id="text_34">
    <!-- exiobase3_full_2010 -->
    <g style="fill: #262626" transform="translate(1052.702391 535.081266) scale(0.231 -0.231)">
     <use xlink:href="#DejaVuSans-65"/>
     <use xlink:href="#DejaVuSans-78" x="59.773438"/>
     <use xlink:href="#DejaVuSans-69" x="118.953125"/>
     <use xlink:href="#DejaVuSans-6f" x="146.736328"/>
     <use xlink:href="#DejaVuSans-62" x="207.917969"/>
     <use xlink:href="#DejaVuSans-61" x="271.394531"/>
     <use xlink:href="#DejaVuSans-73" x="332.673828"/>
     <use xlink:href="#DejaVuSans-65" x="384.773438"/>
     <use xlink:href="#DejaVuSans-33" x="446.296875"/>
     <use xlink:href="#DejaVuSans-5f" x="509.919922"/>
     <use xlink:href="#DejaVuSans-66" x="559.919922"/>
     <use xlink:href="#DejaVuSans-75" x="595.125"/>
     <use xlink:href="#DejaVuSans-6c" x="658.503906"/>
     <use xlink:href="#DejaVuSans-6c" x="686.287109"/>
     <use xlink:href="#DejaVuSans-5f" x="714.070312"/>
     <use xlink:href="#DejaVuSans-32" x="764.070312"/>
     <use xlink:href="#DejaVuSans-30" x="827.693359"/>
     <use xlink:href="#DejaVuSans-31" x="891.316406"/>
     <use xlink:href="#DejaVuSans-30" x="954.939453"/>
    </g>
   </g>
  </g>
 </g>
 <defs>
  <clipPath id="p5a7eb19dfb">
   <rect x="208.160885" y="81.456" width="279.942275" height="102.156"/>
  </clipPath>
  <clipPath id="pe025cfd670">
   <rect x="514.414092" y="81.456" width="279.942275" height="102.156"/>
  </clipPath>
  <clipPath id="pe7c57de80b">
   <rect x="820.667298" y="81.456" width="279.942275" height="102.156"/>
  </clipPath>
  <clipPath id="p5806494c2d">
   <rect x="208.160885" y="271.128" width="279.942275" height="102.156"/>
  </clipPath>
  <clipPath id="p6a0717ef49">
   <rect x="514.414092" y="271.128" width="279.942275" height="102.156"/>
  </clipPath>
 </defs>
</svg>
