<?xml version="1.0" encoding="utf-8" standalone="no"?>
<!DOCTYPE svg PUBLIC "-//W3C//DTD SVG 1.1//EN"
  "http://www.w3.org/Graphics/SVG/1.1/DTD/svg11.dtd">
<svg xmlns:xlink="http://www.w3.org/1999/xlink" width="1304.437547pt" height="591.51675pt" viewBox="0 0 1304.437547 591.51675" xmlns="http://www.w3.org/2000/svg" version="1.1">
 <metadata>
  <rdf:RDF xmlns:dc="http://purl.org/dc/elements/1.1/" xmlns:cc="http://creativecommons.org/ns#" xmlns:rdf="http://www.w3.org/1999/02/22-rdf-syntax-ns#">
   <cc:Work>
    <dc:type rdf:resource="http://purl.org/dc/dcmitype/StillImage"/>
    <dc:date>2023-04-27T10:21:30.338577</dc:date>
    <dc:format>image/svg+xml</dc:format>
    <dc:creator>
     <cc:Agent>
      <dc:title>Matplotlib v3.7.1, https://matplotlib.org/</dc:title>
     </cc:Agent>
    </dc:creator>
   </cc:Work>
  </rdf:RDF>
 </metadata>
 <defs>
  <style type="text/css">*{stroke-linejoin: round; stroke-linecap: butt}</style>
 </defs>
 <g id="figure_1">
  <g id="patch_1">
   <path d="M 0 591.51675 
L 1304.437547 591.51675 
L 1304.437547 -0 
L 0 -0 
z
" style="fill: #ffffff"/>
  </g>
  <g id="axes_1">
   <g id="patch_2">
    <path d="M 170.340091 201.042 
L 462.70916 201.042 
L 462.70916 81.456 
L 170.340091 81.456 
z
" style="fill: #eaeaf2"/>
   </g>
   <g id="matplotlib.axis_1">
    <g id="xtick_1">
     <g id="line2d_1">
      <path d="M 183.629594 201.042 
L 183.629594 81.456 
" clip-path="url(#peb25d778da)" style="fill: none; stroke: #ffffff; stroke-linecap: round"/>
     </g>
    </g>
    <g id="xtick_2">
     <g id="line2d_2">
      <path d="M 274.77845 201.042 
L 274.77845 81.456 
" clip-path="url(#peb25d778da)" style="fill: none; stroke: #ffffff; stroke-linecap: round"/>
     </g>
    </g>
    <g id="xtick_3">
     <g id="line2d_3">
      <path d="M 365.927305 201.042 
L 365.927305 81.456 
" clip-path="url(#peb25d778da)" style="fill: none; stroke: #ffffff; stroke-linecap: round"/>
     </g>
    </g>
    <g id="xtick_4">
     <g id="line2d_4">
      <path d="M 457.076161 201.042 
L 457.076161 81.456 
" clip-path="url(#peb25d778da)" style="fill: none; stroke: #ffffff; stroke-linecap: round"/>
     </g>
    </g>
   </g>
   <g id="matplotlib.axis_2">
    <g id="ytick_1">
     <g id="line2d_5">
      <path d="M 170.340091 160.043105 
L 462.70916 160.043105 
" clip-path="url(#peb25d778da)" style="fill: none; stroke: #ffffff; stroke-linecap: round"/>
     </g>
     <g id="text_1">
      <!-- −0.1 -->
      <g style="fill: #262626" transform="translate(104.746794 168.819301) scale(0.231 -0.231)">
       <defs>
        <path id="DejaVuSans-2212" d="M 678 2272 
L 4684 2272 
L 4684 1741 
L 678 1741 
L 678 2272 
z
" transform="scale(0.015625)"/>
        <path id="DejaVuSans-30" d="M 2034 4250 
Q 1547 4250 1301 3770 
Q 1056 3291 1056 2328 
Q 1056 1369 1301 889 
Q 1547 409 2034 409 
Q 2525 409 2770 889 
Q 3016 1369 3016 2328 
Q 3016 3291 2770 3770 
Q 2525 4250 2034 4250 
z
M 2034 4750 
Q 2819 4750 3233 4129 
Q 3647 3509 3647 2328 
Q 3647 1150 3233 529 
Q 2819 -91 2034 -91 
Q 1250 -91 836 529 
Q 422 1150 422 2328 
Q 422 3509 836 4129 
Q 1250 4750 2034 4750 
z
" transform="scale(0.015625)"/>
        <path id="DejaVuSans-2e" d="M 684 794 
L 1344 794 
L 1344 0 
L 684 0 
L 684 794 
z
" transform="scale(0.015625)"/>
        <path id="DejaVuSans-31" d="M 794 531 
L 1825 531 
L 1825 4091 
L 703 3866 
L 703 4441 
L 1819 4666 
L 2450 4666 
L 2450 531 
L 3481 531 
L 3481 0 
L 794 0 
L 794 531 
z
" transform="scale(0.015625)"/>
       </defs>
       <use xlink:href="#DejaVuSans-2212"/>
       <use xlink:href="#DejaVuSans-30" x="83.789062"/>
       <use xlink:href="#DejaVuSans-2e" x="147.412109"/>
       <use xlink:href="#DejaVuSans-31" x="179.199219"/>
      </g>
     </g>
    </g>
    <g id="ytick_2">
     <g id="line2d_6">
      <path d="M 170.340091 86.891727 
L 462.70916 86.891727 
" clip-path="url(#peb25d778da)" style="fill: none; stroke: #ffffff; stroke-linecap: round"/>
     </g>
     <g id="text_2">
      <!-- 0.0 -->
      <g style="fill: #262626" transform="translate(124.103872 95.667923) scale(0.231 -0.231)">
       <use xlink:href="#DejaVuSans-30"/>
       <use xlink:href="#DejaVuSans-2e" x="63.623047"/>
       <use xlink:href="#DejaVuSans-30" x="95.410156"/>
      </g>
     </g>
    </g>
    <g id="text_3">
     <!-- % change -->
     <g style="fill: #262626" transform="translate(95.505982 203.597344) rotate(-90) scale(0.252 -0.252)">
      <defs>
       <path id="DejaVuSans-25" d="M 4653 2053 
Q 4381 2053 4226 1822 
Q 4072 1591 4072 1178 
Q 4072 772 4226 539 
Q 4381 306 4653 306 
Q 4919 306 5073 539 
Q 5228 772 5228 1178 
Q 5228 1588 5073 1820 
Q 4919 2053 4653 2053 
z
M 4653 2450 
Q 5147 2450 5437 2106 
Q 5728 1763 5728 1178 
Q 5728 594 5436 251 
Q 5144 -91 4653 -91 
Q 4153 -91 3862 251 
Q 3572 594 3572 1178 
Q 3572 1766 3864 2108 
Q 4156 2450 4653 2450 
z
M 1428 4353 
Q 1159 4353 1004 4120 
Q 850 3888 850 3481 
Q 850 3069 1003 2837 
Q 1156 2606 1428 2606 
Q 1700 2606 1854 2837 
Q 2009 3069 2009 3481 
Q 2009 3884 1853 4118 
Q 1697 4353 1428 4353 
z
M 4250 4750 
L 4750 4750 
L 1831 -91 
L 1331 -91 
L 4250 4750 
z
M 1428 4750 
Q 1922 4750 2215 4408 
Q 2509 4066 2509 3481 
Q 2509 2891 2217 2550 
Q 1925 2209 1428 2209 
Q 931 2209 642 2551 
Q 353 2894 353 3481 
Q 353 4063 643 4406 
Q 934 4750 1428 4750 
z
" transform="scale(0.015625)"/>
       <path id="DejaVuSans-20" transform="scale(0.015625)"/>
       <path id="DejaVuSans-63" d="M 3122 3366 
L 3122 2828 
Q 2878 2963 2633 3030 
Q 2388 3097 2138 3097 
Q 1578 3097 1268 2742 
Q 959 2388 959 1747 
Q 959 1106 1268 751 
Q 1578 397 2138 397 
Q 2388 397 2633 464 
Q 2878 531 3122 666 
L 3122 134 
Q 2881 22 2623 -34 
Q 2366 -91 2075 -91 
Q 1284 -91 818 406 
Q 353 903 353 1747 
Q 353 2603 823 3093 
Q 1294 3584 2113 3584 
Q 2378 3584 2631 3529 
Q 2884 3475 3122 3366 
z
" transform="scale(0.015625)"/>
       <path id="DejaVuSans-68" d="M 3513 2113 
L 3513 0 
L 2938 0 
L 2938 2094 
Q 2938 2591 2744 2837 
Q 2550 3084 2163 3084 
Q 1697 3084 1428 2787 
Q 1159 2491 1159 1978 
L 1159 0 
L 581 0 
L 581 4863 
L 1159 4863 
L 1159 2956 
Q 1366 3272 1645 3428 
Q 1925 3584 2291 3584 
Q 2894 3584 3203 3211 
Q 3513 2838 3513 2113 
z
" transform="scale(0.015625)"/>
       <path id="DejaVuSans-61" d="M 2194 1759 
Q 1497 1759 1228 1600 
Q 959 1441 959 1056 
Q 959 750 1161 570 
Q 1363 391 1709 391 
Q 2188 391 2477 730 
Q 2766 1069 2766 1631 
L 2766 1759 
L 2194 1759 
z
M 3341 1997 
L 3341 0 
L 2766 0 
L 2766 531 
Q 2569 213 2275 61 
Q 1981 -91 1556 -91 
Q 1019 -91 701 211 
Q 384 513 384 1019 
Q 384 1609 779 1909 
Q 1175 2209 1959 2209 
L 2766 2209 
L 2766 2266 
Q 2766 2663 2505 2880 
Q 2244 3097 1772 3097 
Q 1472 3097 1187 3025 
Q 903 2953 641 2809 
L 641 3341 
Q 956 3463 1253 3523 
Q 1550 3584 1831 3584 
Q 2591 3584 2966 3190 
Q 3341 2797 3341 1997 
z
" transform="scale(0.015625)"/>
       <path id="DejaVuSans-6e" d="M 3513 2113 
L 3513 0 
L 2938 0 
L 2938 2094 
Q 2938 2591 2744 2837 
Q 2550 3084 2163 3084 
Q 1697 3084 1428 2787 
Q 1159 2491 1159 1978 
L 1159 0 
L 581 0 
L 581 3500 
L 1159 3500 
L 1159 2956 
Q 1366 3272 1645 3428 
Q 1925 3584 2291 3584 
Q 2894 3584 3203 3211 
Q 3513 2838 3513 2113 
z
" transform="scale(0.015625)"/>
       <path id="DejaVuSans-67" d="M 2906 1791 
Q 2906 2416 2648 2759 
Q 2391 3103 1925 3103 
Q 1463 3103 1205 2759 
Q 947 2416 947 1791 
Q 947 1169 1205 825 
Q 1463 481 1925 481 
Q 2391 481 2648 825 
Q 2906 1169 2906 1791 
z
M 3481 434 
Q 3481 -459 3084 -895 
Q 2688 -1331 1869 -1331 
Q 1566 -1331 1297 -1286 
Q 1028 -1241 775 -1147 
L 775 -588 
Q 1028 -725 1275 -790 
Q 1522 -856 1778 -856 
Q 2344 -856 2625 -561 
Q 2906 -266 2906 331 
L 2906 616 
Q 2728 306 2450 153 
Q 2172 0 1784 0 
Q 1141 0 747 490 
Q 353 981 353 1791 
Q 353 2603 747 3093 
Q 1141 3584 1784 3584 
Q 2172 3584 2450 3431 
Q 2728 3278 2906 2969 
L 2906 3500 
L 3481 3500 
L 3481 434 
z
" transform="scale(0.015625)"/>
       <path id="DejaVuSans-65" d="M 3597 1894 
L 3597 1613 
L 953 1613 
Q 991 1019 1311 708 
Q 1631 397 2203 397 
Q 2534 397 2845 478 
Q 3156 559 3463 722 
L 3463 178 
Q 3153 47 2828 -22 
Q 2503 -91 2169 -91 
Q 1331 -91 842 396 
Q 353 884 353 1716 
Q 353 2575 817 3079 
Q 1281 3584 2069 3584 
Q 2775 3584 3186 3129 
Q 3597 2675 3597 1894 
z
M 3022 2063 
Q 3016 2534 2758 2815 
Q 2500 3097 2075 3097 
Q 1594 3097 1305 2825 
Q 1016 2553 972 2059 
L 3022 2063 
z
" transform="scale(0.015625)"/>
      </defs>
      <use xlink:href="#DejaVuSans-25"/>
      <use xlink:href="#DejaVuSans-20" x="95.019531"/>
      <use xlink:href="#DejaVuSans-63" x="126.806641"/>
      <use xlink:href="#DejaVuSans-68" x="181.787109"/>
      <use xlink:href="#DejaVuSans-61" x="245.166016"/>
      <use xlink:href="#DejaVuSans-6e" x="306.445312"/>
      <use xlink:href="#DejaVuSans-67" x="369.824219"/>
      <use xlink:href="#DejaVuSans-65" x="433.300781"/>
     </g>
    </g>
   </g>
   <g id="PolyCollection_1"/>
   <g id="PolyCollection_2"/>
   <g id="PolyCollection_3"/>
   <g id="PolyCollection_4"/>
   <g id="PolyCollection_5"/>
   <g id="PolyCollection_6"/>
   <g id="line2d_7">
    <path d="M 183.629594 86.891727 
L 186.910953 96.344683 
L 191.286098 108.596654 
L 193.838266 115.009261 
L 196.390434 120.85169 
L 198.942602 126.166528 
L 201.49477 130.992927 
L 204.046938 135.367793 
L 206.599106 139.325983 
L 209.151274 142.898643 
L 211.703442 146.114251 
L 214.25561 148.999178 
L 216.807778 151.582042 
L 219.724541 154.200554 
L 222.641304 156.492203 
L 225.558068 158.487872 
L 228.474831 160.214967 
L 231.391595 161.69613 
L 234.672953 163.094248 
L 237.954312 164.234343 
L 241.235671 165.141021 
L 244.881625 165.901683 
L 248.527579 166.429039 
L 252.902725 166.808353 
L 257.642465 167.003535 
L 263.111396 166.998135 
L 268.944923 166.765364 
L 280.247381 165.994449 
L 353.531061 160.633558 
L 412.230924 156.860757 
L 449.419657 154.467543 
L 449.419657 154.467543 
" clip-path="url(#peb25d778da)" style="fill: none; stroke: #4c72b0; stroke-opacity: 0.9; stroke-width: 3; stroke-linecap: round"/>
   </g>
   <g id="line2d_8">
    <path d="M 183.629594 86.891727 
L 186.181762 90.94992 
L 191.286098 98.940306 
L 194.202861 103.010886 
L 197.119625 106.679437 
L 200.036388 109.980095 
L 202.953152 112.943834 
L 205.869915 115.598804 
L 208.786678 117.97079 
L 211.703442 120.083895 
L 214.984801 122.179403 
L 218.266159 124.004165 
L 221.547518 125.584236 
L 225.193472 127.084773 
L 228.839427 128.35121 
L 232.849976 129.508 
L 237.225121 130.521291 
L 241.600266 131.306169 
L 246.340007 131.931349 
L 251.444343 132.377534 
L 258.00706 132.696775 
L 265.298969 132.815213 
L 273.684664 132.713296 
L 288.26848 132.271685 
L 313.79016 131.221196 
L 355.354038 129.43586 
L 410.772542 127.06411 
L 449.419657 125.464752 
L 449.419657 125.464752 
" clip-path="url(#peb25d778da)" style="fill: none; stroke: #dd8452; stroke-opacity: 0.9; stroke-width: 3; stroke-linecap: round"/>
   </g>
   <g id="line2d_9">
    <path d="M 183.629594 86.891727 
L 185.452571 92.479698 
L 190.556907 108.073197 
L 193.109075 115.141776 
L 195.661243 121.582877 
L 198.213411 127.443244 
L 200.765579 132.766743 
L 203.317747 137.593463 
L 205.869915 141.960073 
L 208.422083 145.900868 
L 210.974251 149.447249 
L 213.526419 152.628987 
L 216.078587 155.473583 
L 218.630755 158.007368 
L 221.182923 160.253826 
L 223.735091 162.235241 
L 226.651854 164.20186 
L 229.568617 165.879619 
L 232.485381 167.297634 
L 235.402144 168.482333 
L 238.683503 169.56354 
L 241.964862 170.404096 
L 245.246221 171.027464 
L 248.892175 171.491349 
L 252.902725 171.770829 
L 257.27787 171.859334 
L 262.382205 171.733824 
L 269.309519 171.306851 
L 288.26848 169.823337 
L 312.696374 167.982015 
L 333.113717 166.697041 
L 372.125428 164.501045 
L 449.419657 160.304347 
L 449.419657 160.304347 
" clip-path="url(#peb25d778da)" style="fill: none; stroke: #55a868; stroke-opacity: 0.9; stroke-width: 3; stroke-linecap: round"/>
   </g>
   <g id="line2d_10">
    <path d="M 183.629594 86.891727 
L 185.817167 92.179307 
L 190.921503 104.380647 
L 193.473671 109.869007 
L 196.025839 114.869022 
L 198.578007 119.417088 
L 201.130175 123.546802 
L 203.682342 127.289017 
L 206.23451 130.672306 
L 208.786678 133.723292 
L 211.338846 136.466636 
L 214.25561 139.255087 
L 217.172373 141.705052 
L 220.089136 143.846453 
L 223.0059 145.706622 
L 225.922663 147.311151 
L 228.839427 148.683687 
L 232.120785 149.978989 
L 235.402144 151.038932 
L 239.048098 151.972495 
L 242.694053 152.676797 
L 246.704602 153.216525 
L 251.079747 153.561984 
L 256.184083 153.722345 
L 261.653015 153.667829 
L 269.309519 153.350592 
L 286.810099 152.353655 
L 321.082069 150.387251 
L 355.718634 148.713551 
L 449.419657 144.393382 
L 449.419657 144.393382 
" clip-path="url(#peb25d778da)" style="fill: none; stroke: #c44e52; stroke-opacity: 0.9; stroke-width: 3; stroke-linecap: round"/>
   </g>
   <g id="line2d_11">
    <path d="M 183.629594 86.891727 
L 186.546358 94.997335 
L 190.921503 106.892659 
L 193.473671 113.152378 
L 196.025839 118.857979 
L 198.578007 124.050956 
L 201.130175 128.769535 
L 203.682342 133.048963 
L 206.23451 136.921811 
L 208.786678 140.418243 
L 211.338846 143.566096 
L 213.891014 146.391247 
L 216.443182 148.917479 
L 218.99535 151.166677 
L 221.912114 153.424773 
L 224.828877 155.376832 
L 227.74564 157.048142 
L 230.662404 158.463468 
L 233.579167 159.648356 
L 236.860526 160.730026 
L 240.141885 161.569128 
L 243.423244 162.188002 
L 247.069198 162.642111 
L 251.079747 162.90081 
L 255.454892 162.952869 
L 260.559228 162.774285 
L 266.392755 162.340278 
L 273.320068 161.591091 
L 281.705763 160.446409 
L 298.841748 158.021975 
L 310.508801 156.611003 
L 324.363427 155.172708 
L 340.405626 153.776874 
L 359.729183 152.307608 
L 388.896817 150.393297 
L 449.419657 146.601782 
L 449.419657 146.601782 
" clip-path="url(#peb25d778da)" style="fill: none; stroke: #8172b3; stroke-opacity: 0.9; stroke-width: 3; stroke-linecap: round"/>
   </g>
   <g id="line2d_12">
    <path d="M 183.629594 86.891727 
L 186.910953 94.167587 
L 191.286098 103.59095 
L 193.838266 108.523804 
L 196.390434 113.022411 
L 198.942602 117.119354 
L 201.49477 120.844742 
L 204.046938 124.226441 
L 206.963701 127.703136 
L 209.880465 130.799349 
L 212.797228 133.547148 
L 215.713991 135.976628 
L 218.630755 138.114938 
L 221.547518 139.986499 
L 224.464282 141.613617 
L 227.74564 143.177347 
L 231.026999 144.487005 
L 234.308358 145.568047 
L 237.954312 146.527478 
L 241.600266 147.258347 
L 245.610816 147.826149 
L 249.621366 148.176325 
L 254.361106 148.360816 
L 260.194633 148.34704 
L 266.757351 148.095949 
L 274.049259 147.593488 
L 283.52874 146.70044 
L 305.03987 144.583688 
L 328.373977 142.558241 
L 341.499412 141.588558 
L 368.114878 139.872978 
L 410.407947 137.463339 
L 449.419657 135.290294 
L 449.419657 135.290294 
" clip-path="url(#peb25d778da)" style="fill: none; stroke: #937860; stroke-opacity: 0.9; stroke-width: 3; stroke-linecap: round"/>
   </g>
   <g id="patch_3">
    <path d="M 170.340091 201.042 
L 170.340091 81.456 
" style="fill: none; stroke: #ffffff; stroke-width: 1.25; stroke-linejoin: miter; stroke-linecap: square"/>
   </g>
   <g id="patch_4">
    <path d="M 170.340091 201.042 
L 462.70916 201.042 
" style="fill: none; stroke: #ffffff; stroke-width: 1.25; stroke-linejoin: miter; stroke-linecap: square"/>
   </g>
   <g id="text_4">
    <!-- 0.8~90 -->
    <g style="fill: #262626" transform="translate(269.894782 75.456) scale(0.252 -0.252)">
     <defs>
      <path id="DejaVuSans-38" d="M 2034 2216 
Q 1584 2216 1326 1975 
Q 1069 1734 1069 1313 
Q 1069 891 1326 650 
Q 1584 409 2034 409 
Q 2484 409 2743 651 
Q 3003 894 3003 1313 
Q 3003 1734 2745 1975 
Q 2488 2216 2034 2216 
z
M 1403 2484 
Q 997 2584 770 2862 
Q 544 3141 544 3541 
Q 544 4100 942 4425 
Q 1341 4750 2034 4750 
Q 2731 4750 3128 4425 
Q 3525 4100 3525 3541 
Q 3525 3141 3298 2862 
Q 3072 2584 2669 2484 
Q 3125 2378 3379 2068 
Q 3634 1759 3634 1313 
Q 3634 634 3220 271 
Q 2806 -91 2034 -91 
Q 1263 -91 848 271 
Q 434 634 434 1313 
Q 434 1759 690 2068 
Q 947 2378 1403 2484 
z
M 1172 3481 
Q 1172 3119 1398 2916 
Q 1625 2713 2034 2713 
Q 2441 2713 2670 2916 
Q 2900 3119 2900 3481 
Q 2900 3844 2670 4047 
Q 2441 4250 2034 4250 
Q 1625 4250 1398 4047 
Q 1172 3844 1172 3481 
z
" transform="scale(0.015625)"/>
      <path id="DejaVuSans-7e" d="M 4684 2553 
L 4684 1997 
Q 4356 1750 4076 1644 
Q 3797 1538 3494 1538 
Q 3150 1538 2694 1722 
Q 2659 1734 2644 1741 
Q 2622 1750 2575 1766 
Q 2091 1959 1797 1959 
Q 1522 1959 1253 1839 
Q 984 1719 678 1459 
L 678 2016 
Q 1006 2263 1286 2370 
Q 1566 2478 1869 2478 
Q 2213 2478 2672 2291 
Q 2703 2278 2719 2272 
Q 2744 2263 2788 2247 
Q 3272 2053 3566 2053 
Q 3834 2053 4098 2172 
Q 4363 2291 4684 2553 
z
" transform="scale(0.015625)"/>
      <path id="DejaVuSans-39" d="M 703 97 
L 703 672 
Q 941 559 1184 500 
Q 1428 441 1663 441 
Q 2288 441 2617 861 
Q 2947 1281 2994 2138 
Q 2813 1869 2534 1725 
Q 2256 1581 1919 1581 
Q 1219 1581 811 2004 
Q 403 2428 403 3163 
Q 403 3881 828 4315 
Q 1253 4750 1959 4750 
Q 2769 4750 3195 4129 
Q 3622 3509 3622 2328 
Q 3622 1225 3098 567 
Q 2575 -91 1691 -91 
Q 1453 -91 1209 -44 
Q 966 3 703 97 
z
M 1959 2075 
Q 2384 2075 2632 2365 
Q 2881 2656 2881 3163 
Q 2881 3666 2632 3958 
Q 2384 4250 1959 4250 
Q 1534 4250 1286 3958 
Q 1038 3666 1038 3163 
Q 1038 2656 1286 2365 
Q 1534 2075 1959 2075 
z
" transform="scale(0.015625)"/>
     </defs>
     <use xlink:href="#DejaVuSans-30"/>
     <use xlink:href="#DejaVuSans-2e" x="63.623047"/>
     <use xlink:href="#DejaVuSans-38" x="95.410156"/>
     <use xlink:href="#DejaVuSans-7e" x="159.033203"/>
     <use xlink:href="#DejaVuSans-39" x="242.822266"/>
     <use xlink:href="#DejaVuSans-30" x="306.445312"/>
    </g>
   </g>
  </g>
  <g id="axes_2">
   <g id="patch_5">
    <path d="M 489.290298 201.042 
L 781.659367 201.042 
L 781.659367 81.456 
L 489.290298 81.456 
z
" style="fill: #eaeaf2"/>
   </g>
   <g id="matplotlib.axis_3">
    <g id="xtick_5">
     <g id="line2d_13">
      <path d="M 502.579801 201.042 
L 502.579801 81.456 
" clip-path="url(#p1dcd2bf196)" style="fill: none; stroke: #ffffff; stroke-linecap: round"/>
     </g>
    </g>
    <g id="xtick_6">
     <g id="line2d_14">
      <path d="M 593.728656 201.042 
L 593.728656 81.456 
" clip-path="url(#p1dcd2bf196)" style="fill: none; stroke: #ffffff; stroke-linecap: round"/>
     </g>
    </g>
    <g id="xtick_7">
     <g id="line2d_15">
      <path d="M 684.877512 201.042 
L 684.877512 81.456 
" clip-path="url(#p1dcd2bf196)" style="fill: none; stroke: #ffffff; stroke-linecap: round"/>
     </g>
    </g>
    <g id="xtick_8">
     <g id="line2d_16">
      <path d="M 776.026368 201.042 
L 776.026368 81.456 
" clip-path="url(#p1dcd2bf196)" style="fill: none; stroke: #ffffff; stroke-linecap: round"/>
     </g>
    </g>
   </g>
   <g id="matplotlib.axis_4">
    <g id="ytick_3">
     <g id="line2d_17">
      <path d="M 489.290298 160.043105 
L 781.659367 160.043105 
" clip-path="url(#p1dcd2bf196)" style="fill: none; stroke: #ffffff; stroke-linecap: round"/>
     </g>
    </g>
    <g id="ytick_4">
     <g id="line2d_18">
      <path d="M 489.290298 86.891727 
L 781.659367 86.891727 
" clip-path="url(#p1dcd2bf196)" style="fill: none; stroke: #ffffff; stroke-linecap: round"/>
     </g>
    </g>
   </g>
   <g id="PolyCollection_7"/>
   <g id="PolyCollection_8"/>
   <g id="PolyCollection_9"/>
   <g id="PolyCollection_10"/>
   <g id="PolyCollection_11"/>
   <g id="PolyCollection_12"/>
   <g id="line2d_19">
    <path d="M 502.579801 86.891727 
L 505.496564 95.329736 
L 510.6009 109.854036 
L 513.517663 117.302482 
L 516.434427 124.092678 
L 519.35119 130.279698 
L 522.267954 135.913872 
L 525.184717 141.041254 
L 528.10148 145.704034 
L 531.018244 149.940867 
L 533.935007 153.787179 
L 536.85177 157.275414 
L 539.768534 160.435302 
L 542.685297 163.294365 
L 545.966656 166.182686 
L 549.248015 168.754719 
L 552.529374 171.040286 
L 555.810732 173.066082 
L 559.456687 175.041497 
L 563.102641 176.755682 
L 567.113191 178.374525 
L 571.12374 179.74912 
L 575.498885 181.004865 
L 580.238626 182.11507 
L 584.978366 182.998494 
L 590.082702 183.730478 
L 595.551633 184.297925 
L 601.749756 184.711492 
L 608.677069 184.934782 
L 617.791954 184.983401 
L 628.729817 184.806703 
L 641.855252 184.361649 
L 658.991237 183.769996 
L 684.877512 183.165388 
L 750.869283 181.853941 
L 768.369864 181.529126 
L 768.369864 181.529126 
" clip-path="url(#p1dcd2bf196)" style="fill: none; stroke: #4c72b0; stroke-opacity: 0.9; stroke-width: 3; stroke-linecap: round"/>
   </g>
   <g id="line2d_20">
    <path d="M 502.579801 86.891727 
L 505.131969 90.962532 
L 510.6009 99.617787 
L 513.517663 103.762293 
L 516.434427 107.542816 
L 519.35119 110.989838 
L 522.632549 114.50367 
L 525.913908 117.666658 
L 529.195267 120.511507 
L 532.476625 123.067904 
L 535.757984 125.362798 
L 539.403938 127.635522 
L 543.049893 129.645515 
L 547.060442 131.585179 
L 551.070992 133.271559 
L 555.446137 134.855834 
L 559.821282 136.205717 
L 564.561023 137.436618 
L 569.665358 138.528688 
L 575.13429 139.468729 
L 581.332412 140.299505 
L 587.89513 140.95767 
L 595.187038 141.469933 
L 603.572733 141.830235 
L 613.052214 142.010905 
L 626.177649 142.031659 
L 642.584443 141.830484 
L 688.888062 141.10692 
L 768.369864 140.176838 
L 768.369864 140.176838 
" clip-path="url(#p1dcd2bf196)" style="fill: none; stroke: #dd8452; stroke-opacity: 0.9; stroke-width: 3; stroke-linecap: round"/>
   </g>
   <g id="line2d_21">
    <path d="M 502.579801 86.891727 
L 504.402778 92.492674 
L 510.236305 110.449598 
L 513.153068 118.534132 
L 516.069831 125.902694 
L 518.986595 132.615272 
L 521.903358 138.726696 
L 524.820122 144.287541 
L 527.736885 149.34399 
L 530.653648 153.937928 
L 533.570412 158.107695 
L 536.487175 161.888547 
L 539.403938 165.312753 
L 542.320702 168.409853 
L 545.237465 171.206921 
L 548.518824 174.025995 
L 551.800183 176.529462 
L 555.081542 178.746919 
L 558.3629 180.705349 
L 562.008855 182.607255 
L 565.654809 184.250159 
L 569.300763 185.661442 
L 573.311313 186.975245 
L 577.686458 188.156625 
L 582.061603 189.10832 
L 586.801343 189.917124 
L 591.905679 190.56873 
L 597.739206 191.077114 
L 603.937328 191.38521 
L 611.229237 191.508071 
L 619.979527 191.421776 
L 630.917389 191.078156 
L 652.793115 190.345609 
L 679.043985 189.706643 
L 708.576214 189.185662 
L 768.369864 188.329158 
L 768.369864 188.329158 
" clip-path="url(#p1dcd2bf196)" style="fill: none; stroke: #55a868; stroke-opacity: 0.9; stroke-width: 3; stroke-linecap: round"/>
   </g>
   <g id="line2d_22">
    <path d="M 502.579801 86.891727 
L 504.402778 91.297567 
L 510.236305 105.426842 
L 513.153068 111.789805 
L 516.069831 117.589911 
L 518.986595 122.874227 
L 521.903358 127.685789 
L 524.820122 132.063952 
L 527.736885 136.044784 
L 530.653648 139.661309 
L 533.570412 142.943781 
L 536.487175 145.919954 
L 539.768534 148.933626 
L 543.049893 151.624795 
L 546.331251 154.023393 
L 549.61261 156.156644 
L 553.258564 158.245857 
L 556.904519 160.068748 
L 560.550473 161.653216 
L 564.561023 163.150829 
L 568.571572 164.42058 
L 572.946717 165.577244 
L 577.686458 166.595413 
L 582.790794 167.457118 
L 588.259725 168.15238 
L 594.457847 168.704455 
L 601.020565 169.063931 
L 608.677069 169.248372 
L 618.15655 169.238234 
L 630.188199 168.981851 
L 657.897451 168.315236 
L 698.002947 167.598561 
L 765.088505 166.778361 
L 768.369864 166.73962 
L 768.369864 166.73962 
" clip-path="url(#p1dcd2bf196)" style="fill: none; stroke: #c44e52; stroke-opacity: 0.9; stroke-width: 3; stroke-linecap: round"/>
   </g>
   <g id="line2d_23">
    <path d="M 502.579801 86.891727 
L 505.131969 94.008418 
L 510.236305 108.089655 
L 513.153068 115.347145 
L 516.069831 121.964282 
L 518.986595 127.994723 
L 521.903358 133.487548 
L 524.820122 138.487654 
L 527.736885 143.036119 
L 530.653648 147.17056 
L 533.570412 150.925425 
L 536.487175 154.332257 
L 539.403938 157.419921 
L 542.320702 160.214846 
L 545.602061 163.039261 
L 548.883419 165.555128 
L 552.164778 167.790918 
L 555.446137 169.772448 
L 559.092091 171.704367 
L 562.738045 173.380218 
L 566.384 174.825985 
L 570.394549 176.178655 
L 574.769694 177.40244 
L 579.144839 178.394277 
L 583.88458 179.2404 
L 588.988916 179.924649 
L 594.457847 180.433529 
L 600.291374 180.758373 
L 606.854092 180.900751 
L 614.875191 180.84263 
L 624.719267 180.538259 
L 638.573893 179.877517 
L 661.908 178.514911 
L 680.137772 177.514336 
L 696.544566 176.881477 
L 722.795436 176.107371 
L 768.369864 175.052791 
L 768.369864 175.052791 
" clip-path="url(#p1dcd2bf196)" style="fill: none; stroke: #8172b3; stroke-opacity: 0.9; stroke-width: 3; stroke-linecap: round"/>
   </g>
   <g id="line2d_24">
    <path d="M 502.579801 86.891727 
L 505.496564 93.386319 
L 510.6009 104.547961 
L 513.517663 110.268648 
L 516.434427 115.485284 
L 519.35119 120.240145 
L 522.267954 124.571922 
L 525.184717 128.516025 
L 528.10148 132.104855 
L 531.018244 135.368119 
L 534.299603 138.683892 
L 537.580961 141.657155 
L 540.86232 144.319776 
L 544.143679 146.700614 
L 547.425038 148.825827 
L 551.070992 150.916097 
L 554.716946 152.749227 
L 558.727496 154.499914 
L 562.738045 156.002561 
L 567.113191 157.391858 
L 571.488336 158.551064 
L 576.228076 159.579393 
L 581.332412 160.456718 
L 586.801343 161.171692 
L 592.999466 161.744916 
L 599.562183 162.122818 
L 606.854092 162.317394 
L 615.968977 162.31767 
L 628.365222 162.076471 
L 644.772016 161.521607 
L 689.981848 159.86762 
L 727.535176 158.935353 
L 763.265528 158.233017 
L 768.369864 158.138903 
L 768.369864 158.138903 
" clip-path="url(#p1dcd2bf196)" style="fill: none; stroke: #937860; stroke-opacity: 0.9; stroke-width: 3; stroke-linecap: round"/>
   </g>
   <g id="patch_6">
    <path d="M 489.290298 201.042 
L 489.290298 81.456 
" style="fill: none; stroke: #ffffff; stroke-width: 1.25; stroke-linejoin: miter; stroke-linecap: square"/>
   </g>
   <g id="patch_7">
    <path d="M 489.290298 201.042 
L 781.659367 201.042 
" style="fill: none; stroke: #ffffff; stroke-width: 1.25; stroke-linejoin: miter; stroke-linecap: square"/>
   </g>
   <g id="text_5">
    <!-- 0.8~365 -->
    <g style="fill: #262626" transform="translate(580.828239 75.456) scale(0.252 -0.252)">
     <defs>
      <path id="DejaVuSans-33" d="M 2597 2516 
Q 3050 2419 3304 2112 
Q 3559 1806 3559 1356 
Q 3559 666 3084 287 
Q 2609 -91 1734 -91 
Q 1441 -91 1130 -33 
Q 819 25 488 141 
L 488 750 
Q 750 597 1062 519 
Q 1375 441 1716 441 
Q 2309 441 2620 675 
Q 2931 909 2931 1356 
Q 2931 1769 2642 2001 
Q 2353 2234 1838 2234 
L 1294 2234 
L 1294 2753 
L 1863 2753 
Q 2328 2753 2575 2939 
Q 2822 3125 2822 3475 
Q 2822 3834 2567 4026 
Q 2313 4219 1838 4219 
Q 1578 4219 1281 4162 
Q 984 4106 628 3988 
L 628 4550 
Q 988 4650 1302 4700 
Q 1616 4750 1894 4750 
Q 2613 4750 3031 4423 
Q 3450 4097 3450 3541 
Q 3450 3153 3228 2886 
Q 3006 2619 2597 2516 
z
" transform="scale(0.015625)"/>
      <path id="DejaVuSans-36" d="M 2113 2584 
Q 1688 2584 1439 2293 
Q 1191 2003 1191 1497 
Q 1191 994 1439 701 
Q 1688 409 2113 409 
Q 2538 409 2786 701 
Q 3034 994 3034 1497 
Q 3034 2003 2786 2293 
Q 2538 2584 2113 2584 
z
M 3366 4563 
L 3366 3988 
Q 3128 4100 2886 4159 
Q 2644 4219 2406 4219 
Q 1781 4219 1451 3797 
Q 1122 3375 1075 2522 
Q 1259 2794 1537 2939 
Q 1816 3084 2150 3084 
Q 2853 3084 3261 2657 
Q 3669 2231 3669 1497 
Q 3669 778 3244 343 
Q 2819 -91 2113 -91 
Q 1303 -91 875 529 
Q 447 1150 447 2328 
Q 447 3434 972 4092 
Q 1497 4750 2381 4750 
Q 2619 4750 2861 4703 
Q 3103 4656 3366 4563 
z
" transform="scale(0.015625)"/>
      <path id="DejaVuSans-35" d="M 691 4666 
L 3169 4666 
L 3169 4134 
L 1269 4134 
L 1269 2991 
Q 1406 3038 1543 3061 
Q 1681 3084 1819 3084 
Q 2600 3084 3056 2656 
Q 3513 2228 3513 1497 
Q 3513 744 3044 326 
Q 2575 -91 1722 -91 
Q 1428 -91 1123 -41 
Q 819 9 494 109 
L 494 744 
Q 775 591 1075 516 
Q 1375 441 1709 441 
Q 2250 441 2565 725 
Q 2881 1009 2881 1497 
Q 2881 1984 2565 2268 
Q 2250 2553 1709 2553 
Q 1456 2553 1204 2497 
Q 953 2441 691 2322 
L 691 4666 
z
" transform="scale(0.015625)"/>
     </defs>
     <use xlink:href="#DejaVuSans-30"/>
     <use xlink:href="#DejaVuSans-2e" x="63.623047"/>
     <use xlink:href="#DejaVuSans-38" x="95.410156"/>
     <use xlink:href="#DejaVuSans-7e" x="159.033203"/>
     <use xlink:href="#DejaVuSans-33" x="242.822266"/>
     <use xlink:href="#DejaVuSans-36" x="306.445312"/>
     <use xlink:href="#DejaVuSans-35" x="370.068359"/>
    </g>
   </g>
  </g>
  <g id="axes_3">
   <g id="patch_8">
    <path d="M 808.240504 201.042 
L 1100.609573 201.042 
L 1100.609573 81.456 
L 808.240504 81.456 
z
" style="fill: #eaeaf2"/>
   </g>
   <g id="matplotlib.axis_5">
    <g id="xtick_9">
     <g id="line2d_25">
      <path d="M 821.530007 201.042 
L 821.530007 81.456 
" clip-path="url(#pfd0a7e2ad8)" style="fill: none; stroke: #ffffff; stroke-linecap: round"/>
     </g>
    </g>
    <g id="xtick_10">
     <g id="line2d_26">
      <path d="M 912.678863 201.042 
L 912.678863 81.456 
" clip-path="url(#pfd0a7e2ad8)" style="fill: none; stroke: #ffffff; stroke-linecap: round"/>
     </g>
    </g>
    <g id="xtick_11">
     <g id="line2d_27">
      <path d="M 1003.827719 201.042 
L 1003.827719 81.456 
" clip-path="url(#pfd0a7e2ad8)" style="fill: none; stroke: #ffffff; stroke-linecap: round"/>
     </g>
    </g>
    <g id="xtick_12">
     <g id="line2d_28">
      <path d="M 1094.976574 201.042 
L 1094.976574 81.456 
" clip-path="url(#pfd0a7e2ad8)" style="fill: none; stroke: #ffffff; stroke-linecap: round"/>
     </g>
    </g>
   </g>
   <g id="matplotlib.axis_6">
    <g id="ytick_5">
     <g id="line2d_29">
      <path d="M 808.240504 160.043105 
L 1100.609573 160.043105 
" clip-path="url(#pfd0a7e2ad8)" style="fill: none; stroke: #ffffff; stroke-linecap: round"/>
     </g>
    </g>
    <g id="ytick_6">
     <g id="line2d_30">
      <path d="M 808.240504 86.891727 
L 1100.609573 86.891727 
" clip-path="url(#pfd0a7e2ad8)" style="fill: none; stroke: #ffffff; stroke-linecap: round"/>
     </g>
    </g>
   </g>
   <g id="PolyCollection_13"/>
   <g id="PolyCollection_14"/>
   <g id="PolyCollection_15"/>
   <g id="PolyCollection_16"/>
   <g id="PolyCollection_17"/>
   <g id="PolyCollection_18"/>
   <g id="line2d_31">
    <path d="M 821.530007 86.891727 
L 824.811366 96.344683 
L 829.186511 108.596654 
L 831.738679 115.009261 
L 834.290847 120.85169 
L 836.843015 126.166528 
L 839.395183 130.992927 
L 841.947351 135.367793 
L 844.499519 139.325983 
L 847.051687 142.898643 
L 849.603855 146.114251 
L 852.156023 148.999178 
L 854.708191 151.582042 
L 857.624954 154.200554 
L 860.541717 156.492203 
L 863.458481 158.487872 
L 866.375244 160.214967 
L 869.292008 161.69613 
L 872.573366 163.094248 
L 875.854725 164.234343 
L 879.136084 165.141021 
L 882.782038 165.901683 
L 886.427992 166.429039 
L 890.803138 166.808353 
L 895.542878 167.003535 
L 901.011809 166.998135 
L 906.845336 166.765364 
L 918.147794 165.994449 
L 991.431474 160.633558 
L 1050.131337 156.860757 
L 1087.32007 154.467543 
L 1087.32007 154.467543 
" clip-path="url(#pfd0a7e2ad8)" style="fill: none; stroke: #4c72b0; stroke-opacity: 0.9; stroke-width: 3; stroke-linecap: round"/>
   </g>
   <g id="line2d_32">
    <path d="M 821.530007 86.891727 
L 824.082175 90.94992 
L 829.186511 98.940306 
L 832.103275 103.010886 
L 835.020038 106.679437 
L 837.936801 109.980095 
L 840.853565 112.943834 
L 843.770328 115.598804 
L 846.687091 117.97079 
L 849.603855 120.083895 
L 852.885214 122.179403 
L 856.166572 124.004165 
L 859.447931 125.584236 
L 863.093885 127.084773 
L 866.73984 128.35121 
L 870.750389 129.508 
L 875.125534 130.521291 
L 879.500679 131.306169 
L 884.24042 131.931349 
L 889.344756 132.377534 
L 895.907473 132.696775 
L 903.199382 132.815213 
L 911.585077 132.713296 
L 926.168894 132.271685 
L 951.690573 131.221196 
L 993.254451 129.43586 
L 1048.672956 127.06411 
L 1087.32007 125.464752 
L 1087.32007 125.464752 
" clip-path="url(#pfd0a7e2ad8)" style="fill: none; stroke: #dd8452; stroke-opacity: 0.9; stroke-width: 3; stroke-linecap: round"/>
   </g>
   <g id="line2d_33">
    <path d="M 821.530007 86.891727 
L 823.352984 92.479698 
L 828.45732 108.073197 
L 831.009488 115.141776 
L 833.561656 121.582877 
L 836.113824 127.443244 
L 838.665992 132.766743 
L 841.21816 137.593463 
L 843.770328 141.960073 
L 846.322496 145.900868 
L 848.874664 149.447249 
L 851.426832 152.628987 
L 853.979 155.473583 
L 856.531168 158.007368 
L 859.083336 160.253826 
L 861.635504 162.235241 
L 864.552267 164.20186 
L 867.469031 165.879619 
L 870.385794 167.297634 
L 873.302557 168.482333 
L 876.583916 169.56354 
L 879.865275 170.404096 
L 883.146634 171.027464 
L 886.792588 171.491349 
L 890.803138 171.770829 
L 895.178283 171.859334 
L 900.282619 171.733824 
L 907.209932 171.306851 
L 926.168894 169.823337 
L 950.596787 167.982015 
L 971.014131 166.697041 
L 1010.025841 164.501045 
L 1087.32007 160.304347 
L 1087.32007 160.304347 
" clip-path="url(#pfd0a7e2ad8)" style="fill: none; stroke: #55a868; stroke-opacity: 0.9; stroke-width: 3; stroke-linecap: round"/>
   </g>
   <g id="line2d_34">
    <path d="M 821.530007 86.891727 
L 823.71758 92.179307 
L 828.821916 104.380647 
L 831.374084 109.869007 
L 833.926252 114.869022 
L 836.47842 119.417088 
L 839.030588 123.546802 
L 841.582756 127.289017 
L 844.134923 130.672306 
L 846.687091 133.723292 
L 849.239259 136.466636 
L 852.156023 139.255087 
L 855.072786 141.705052 
L 857.98955 143.846453 
L 860.906313 145.706622 
L 863.823076 147.311151 
L 866.73984 148.683687 
L 870.021198 149.978989 
L 873.302557 151.038932 
L 876.948512 151.972495 
L 880.594466 152.676797 
L 884.605015 153.216525 
L 888.98016 153.561984 
L 894.084496 153.722345 
L 899.553428 153.667829 
L 907.209932 153.350592 
L 924.710512 152.353655 
L 958.982482 150.387251 
L 993.619047 148.713551 
L 1087.32007 144.393382 
L 1087.32007 144.393382 
" clip-path="url(#pfd0a7e2ad8)" style="fill: none; stroke: #c44e52; stroke-opacity: 0.9; stroke-width: 3; stroke-linecap: round"/>
   </g>
   <g id="line2d_35">
    <path d="M 821.530007 86.891727 
L 824.446771 94.997335 
L 828.821916 106.892659 
L 831.374084 113.152378 
L 833.926252 118.857979 
L 836.47842 124.050956 
L 839.030588 128.769535 
L 841.582756 133.048963 
L 844.134923 136.921811 
L 846.687091 140.418243 
L 849.239259 143.566096 
L 851.791427 146.391247 
L 854.343595 148.917479 
L 856.895763 151.166677 
L 859.812527 153.424773 
L 862.72929 155.376832 
L 865.646053 157.048142 
L 868.562817 158.463468 
L 871.47958 159.648356 
L 874.760939 160.730026 
L 878.042298 161.569128 
L 881.323657 162.188002 
L 884.969611 162.642111 
L 888.98016 162.90081 
L 893.355306 162.952869 
L 898.459641 162.774285 
L 904.293168 162.340278 
L 911.220481 161.591091 
L 919.606176 160.446409 
L 936.742161 158.021975 
L 948.409214 156.611003 
L 962.26384 155.172708 
L 978.306039 153.776874 
L 997.629596 152.307608 
L 1026.79723 150.393297 
L 1087.32007 146.601782 
L 1087.32007 146.601782 
" clip-path="url(#pfd0a7e2ad8)" style="fill: none; stroke: #8172b3; stroke-opacity: 0.9; stroke-width: 3; stroke-linecap: round"/>
   </g>
   <g id="line2d_36">
    <path d="M 821.530007 86.891727 
L 824.811366 94.167587 
L 829.186511 103.59095 
L 831.738679 108.523804 
L 834.290847 113.022411 
L 836.843015 117.119354 
L 839.395183 120.844742 
L 841.947351 124.226441 
L 844.864114 127.703136 
L 847.780878 130.799349 
L 850.697641 133.547148 
L 853.614404 135.976628 
L 856.531168 138.114938 
L 859.447931 139.986499 
L 862.364695 141.613617 
L 865.646053 143.177347 
L 868.927412 144.487005 
L 872.208771 145.568047 
L 875.854725 146.527478 
L 879.500679 147.258347 
L 883.511229 147.826149 
L 887.521779 148.176325 
L 892.261519 148.360816 
L 898.095046 148.34704 
L 904.657764 148.095949 
L 911.949672 147.593488 
L 921.429153 146.70044 
L 942.940283 144.583688 
L 966.27439 142.558241 
L 979.399825 141.588558 
L 1006.015291 139.872978 
L 1048.30836 137.463339 
L 1087.32007 135.290294 
L 1087.32007 135.290294 
" clip-path="url(#pfd0a7e2ad8)" style="fill: none; stroke: #937860; stroke-opacity: 0.9; stroke-width: 3; stroke-linecap: round"/>
   </g>
   <g id="patch_9">
    <path d="M 808.240504 201.042 
L 808.240504 81.456 
" style="fill: none; stroke: #ffffff; stroke-width: 1.25; stroke-linejoin: miter; stroke-linecap: square"/>
   </g>
   <g id="patch_10">
    <path d="M 808.240504 201.042 
L 1100.609573 201.042 
" style="fill: none; stroke: #ffffff; stroke-width: 1.25; stroke-linejoin: miter; stroke-linecap: square"/>
   </g>
   <g id="text_6">
    <!-- 0.85~90 -->
    <g style="fill: #262626" transform="translate(899.778445 75.456) scale(0.252 -0.252)">
     <use xlink:href="#DejaVuSans-30"/>
     <use xlink:href="#DejaVuSans-2e" x="63.623047"/>
     <use xlink:href="#DejaVuSans-38" x="95.410156"/>
     <use xlink:href="#DejaVuSans-35" x="159.033203"/>
     <use xlink:href="#DejaVuSans-7e" x="222.65625"/>
     <use xlink:href="#DejaVuSans-39" x="306.445312"/>
     <use xlink:href="#DejaVuSans-30" x="370.068359"/>
    </g>
   </g>
  </g>
  <g id="axes_4">
   <g id="patch_11">
    <path d="M 170.340091 373.284 
L 462.70916 373.284 
L 462.70916 253.698 
L 170.340091 253.698 
z
" style="fill: #eaeaf2"/>
   </g>
   <g id="matplotlib.axis_7">
    <g id="xtick_13">
     <g id="line2d_37">
      <path d="M 183.629594 373.284 
L 183.629594 253.698 
" clip-path="url(#p9825e0cb56)" style="fill: none; stroke: #ffffff; stroke-linecap: round"/>
     </g>
     <g id="text_7">
      <!-- 0 -->
      <g style="fill: #262626" transform="translate(176.280907 400.336391) scale(0.231 -0.231)">
       <use xlink:href="#DejaVuSans-30"/>
      </g>
     </g>
    </g>
    <g id="xtick_14">
     <g id="line2d_38">
      <path d="M 274.77845 373.284 
L 274.77845 253.698 
" clip-path="url(#p9825e0cb56)" style="fill: none; stroke: #ffffff; stroke-linecap: round"/>
     </g>
     <g id="text_8">
      <!-- 250 -->
      <g style="fill: #262626" transform="translate(252.732387 400.336391) scale(0.231 -0.231)">
       <defs>
        <path id="DejaVuSans-32" d="M 1228 531 
L 3431 531 
L 3431 0 
L 469 0 
L 469 531 
Q 828 903 1448 1529 
Q 2069 2156 2228 2338 
Q 2531 2678 2651 2914 
Q 2772 3150 2772 3378 
Q 2772 3750 2511 3984 
Q 2250 4219 1831 4219 
Q 1534 4219 1204 4116 
Q 875 4013 500 3803 
L 500 4441 
Q 881 4594 1212 4672 
Q 1544 4750 1819 4750 
Q 2544 4750 2975 4387 
Q 3406 4025 3406 3419 
Q 3406 3131 3298 2873 
Q 3191 2616 2906 2266 
Q 2828 2175 2409 1742 
Q 1991 1309 1228 531 
z
" transform="scale(0.015625)"/>
       </defs>
       <use xlink:href="#DejaVuSans-32"/>
       <use xlink:href="#DejaVuSans-35" x="63.623047"/>
       <use xlink:href="#DejaVuSans-30" x="127.246094"/>
      </g>
     </g>
    </g>
    <g id="xtick_15">
     <g id="line2d_39">
      <path d="M 365.927305 373.284 
L 365.927305 253.698 
" clip-path="url(#p9825e0cb56)" style="fill: none; stroke: #ffffff; stroke-linecap: round"/>
     </g>
     <g id="text_9">
      <!-- 500 -->
      <g style="fill: #262626" transform="translate(343.881243 400.336391) scale(0.231 -0.231)">
       <use xlink:href="#DejaVuSans-35"/>
       <use xlink:href="#DejaVuSans-30" x="63.623047"/>
       <use xlink:href="#DejaVuSans-30" x="127.246094"/>
      </g>
     </g>
    </g>
    <g id="xtick_16">
     <g id="line2d_40">
      <path d="M 457.076161 373.284 
L 457.076161 253.698 
" clip-path="url(#p9825e0cb56)" style="fill: none; stroke: #ffffff; stroke-linecap: round"/>
     </g>
     <g id="text_10">
      <!-- 750 -->
      <g style="fill: #262626" transform="translate(435.030099 400.336391) scale(0.231 -0.231)">
       <defs>
        <path id="DejaVuSans-37" d="M 525 4666 
L 3525 4666 
L 3525 4397 
L 1831 0 
L 1172 0 
L 2766 4134 
L 525 4134 
L 525 4666 
z
" transform="scale(0.015625)"/>
       </defs>
       <use xlink:href="#DejaVuSans-37"/>
       <use xlink:href="#DejaVuSans-35" x="63.623047"/>
       <use xlink:href="#DejaVuSans-30" x="127.246094"/>
      </g>
     </g>
    </g>
    <g id="text_11">
     <!-- step -->
     <g style="fill: #262626" transform="translate(289.269251 428.288531) scale(0.252 -0.252)">
      <defs>
       <path id="DejaVuSans-73" d="M 2834 3397 
L 2834 2853 
Q 2591 2978 2328 3040 
Q 2066 3103 1784 3103 
Q 1356 3103 1142 2972 
Q 928 2841 928 2578 
Q 928 2378 1081 2264 
Q 1234 2150 1697 2047 
L 1894 2003 
Q 2506 1872 2764 1633 
Q 3022 1394 3022 966 
Q 3022 478 2636 193 
Q 2250 -91 1575 -91 
Q 1294 -91 989 -36 
Q 684 19 347 128 
L 347 722 
Q 666 556 975 473 
Q 1284 391 1588 391 
Q 1994 391 2212 530 
Q 2431 669 2431 922 
Q 2431 1156 2273 1281 
Q 2116 1406 1581 1522 
L 1381 1569 
Q 847 1681 609 1914 
Q 372 2147 372 2553 
Q 372 3047 722 3315 
Q 1072 3584 1716 3584 
Q 2034 3584 2315 3537 
Q 2597 3491 2834 3397 
z
" transform="scale(0.015625)"/>
       <path id="DejaVuSans-74" d="M 1172 4494 
L 1172 3500 
L 2356 3500 
L 2356 3053 
L 1172 3053 
L 1172 1153 
Q 1172 725 1289 603 
Q 1406 481 1766 481 
L 2356 481 
L 2356 0 
L 1766 0 
Q 1100 0 847 248 
Q 594 497 594 1153 
L 594 3053 
L 172 3053 
L 172 3500 
L 594 3500 
L 594 4494 
L 1172 4494 
z
" transform="scale(0.015625)"/>
       <path id="DejaVuSans-70" d="M 1159 525 
L 1159 -1331 
L 581 -1331 
L 581 3500 
L 1159 3500 
L 1159 2969 
Q 1341 3281 1617 3432 
Q 1894 3584 2278 3584 
Q 2916 3584 3314 3078 
Q 3713 2572 3713 1747 
Q 3713 922 3314 415 
Q 2916 -91 2278 -91 
Q 1894 -91 1617 61 
Q 1341 213 1159 525 
z
M 3116 1747 
Q 3116 2381 2855 2742 
Q 2594 3103 2138 3103 
Q 1681 3103 1420 2742 
Q 1159 2381 1159 1747 
Q 1159 1113 1420 752 
Q 1681 391 2138 391 
Q 2594 391 2855 752 
Q 3116 1113 3116 1747 
z
" transform="scale(0.015625)"/>
      </defs>
      <use xlink:href="#DejaVuSans-73"/>
      <use xlink:href="#DejaVuSans-74" x="52.099609"/>
      <use xlink:href="#DejaVuSans-65" x="91.308594"/>
      <use xlink:href="#DejaVuSans-70" x="152.832031"/>
     </g>
    </g>
   </g>
   <g id="matplotlib.axis_8">
    <g id="ytick_7">
     <g id="line2d_41">
      <path d="M 170.340091 332.285105 
L 462.70916 332.285105 
" clip-path="url(#p9825e0cb56)" style="fill: none; stroke: #ffffff; stroke-linecap: round"/>
     </g>
     <g id="text_12">
      <!-- −0.1 -->
      <g style="fill: #262626" transform="translate(104.746794 341.061301) scale(0.231 -0.231)">
       <use xlink:href="#DejaVuSans-2212"/>
       <use xlink:href="#DejaVuSans-30" x="83.789062"/>
       <use xlink:href="#DejaVuSans-2e" x="147.412109"/>
       <use xlink:href="#DejaVuSans-31" x="179.199219"/>
      </g>
     </g>
    </g>
    <g id="ytick_8">
     <g id="line2d_42">
      <path d="M 170.340091 259.133727 
L 462.70916 259.133727 
" clip-path="url(#p9825e0cb56)" style="fill: none; stroke: #ffffff; stroke-linecap: round"/>
     </g>
     <g id="text_13">
      <!-- 0.0 -->
      <g style="fill: #262626" transform="translate(124.103872 267.909923) scale(0.231 -0.231)">
       <use xlink:href="#DejaVuSans-30"/>
       <use xlink:href="#DejaVuSans-2e" x="63.623047"/>
       <use xlink:href="#DejaVuSans-30" x="95.410156"/>
      </g>
     </g>
    </g>
    <g id="text_14">
     <!-- % change -->
     <g style="fill: #262626" transform="translate(95.505982 375.839344) rotate(-90) scale(0.252 -0.252)">
      <use xlink:href="#DejaVuSans-25"/>
      <use xlink:href="#DejaVuSans-20" x="95.019531"/>
      <use xlink:href="#DejaVuSans-63" x="126.806641"/>
      <use xlink:href="#DejaVuSans-68" x="181.787109"/>
      <use xlink:href="#DejaVuSans-61" x="245.166016"/>
      <use xlink:href="#DejaVuSans-6e" x="306.445312"/>
      <use xlink:href="#DejaVuSans-67" x="369.824219"/>
      <use xlink:href="#DejaVuSans-65" x="433.300781"/>
     </g>
    </g>
   </g>
   <g id="PolyCollection_19"/>
   <g id="PolyCollection_20"/>
   <g id="PolyCollection_21"/>
   <g id="PolyCollection_22"/>
   <g id="PolyCollection_23"/>
   <g id="PolyCollection_24"/>
   <g id="line2d_43">
    <path d="M 183.629594 259.133727 
L 186.546358 267.571736 
L 191.650694 282.096036 
L 194.567457 289.544482 
L 197.48422 296.334678 
L 200.400984 302.521698 
L 203.317747 308.155872 
L 206.23451 313.283254 
L 209.151274 317.946034 
L 212.068037 322.182867 
L 214.984801 326.029179 
L 217.901564 329.517414 
L 220.818327 332.677302 
L 223.735091 335.536365 
L 227.01645 338.424686 
L 230.297808 340.996719 
L 233.579167 343.282286 
L 236.860526 345.308082 
L 240.50648 347.283497 
L 244.152434 348.997682 
L 248.162984 350.616525 
L 252.173534 351.99112 
L 256.548679 353.246865 
L 261.288419 354.35707 
L 266.02816 355.240494 
L 271.132496 355.972478 
L 276.601427 356.539925 
L 282.799549 356.953492 
L 289.726862 357.176782 
L 298.841748 357.225401 
L 309.77961 357.048703 
L 322.905046 356.603649 
L 340.04103 356.011996 
L 365.927305 355.407388 
L 431.919077 354.095941 
L 449.419657 353.771126 
L 449.419657 353.771126 
" clip-path="url(#p9825e0cb56)" style="fill: none; stroke: #4c72b0; stroke-opacity: 0.9; stroke-width: 3; stroke-linecap: round"/>
   </g>
   <g id="line2d_44">
    <path d="M 183.629594 259.133727 
L 186.181762 263.204532 
L 191.650694 271.859787 
L 194.567457 276.004293 
L 197.48422 279.784816 
L 200.400984 283.231838 
L 203.682342 286.74567 
L 206.963701 289.908658 
L 210.24506 292.753507 
L 213.526419 295.309904 
L 216.807778 297.604798 
L 220.453732 299.877522 
L 224.099686 301.887515 
L 228.110236 303.827179 
L 232.120785 305.513559 
L 236.49593 307.097834 
L 240.871076 308.447717 
L 245.610816 309.678618 
L 250.715152 310.770688 
L 256.184083 311.710729 
L 262.382205 312.541505 
L 268.944923 313.19967 
L 276.236832 313.711933 
L 284.622526 314.072235 
L 294.102007 314.252905 
L 307.227442 314.273659 
L 323.634236 314.072484 
L 369.937855 313.34892 
L 449.419657 312.418838 
L 449.419657 312.418838 
" clip-path="url(#p9825e0cb56)" style="fill: none; stroke: #dd8452; stroke-opacity: 0.9; stroke-width: 3; stroke-linecap: round"/>
   </g>
   <g id="line2d_45">
    <path d="M 183.629594 259.133727 
L 185.452571 264.734674 
L 191.286098 282.691598 
L 194.202861 290.776132 
L 197.119625 298.144694 
L 200.036388 304.857272 
L 202.953152 310.968696 
L 205.869915 316.529541 
L 208.786678 321.58599 
L 211.703442 326.179928 
L 214.620205 330.349695 
L 217.536969 334.130547 
L 220.453732 337.554753 
L 223.370495 340.651853 
L 226.287259 343.448921 
L 229.568617 346.267995 
L 232.849976 348.771462 
L 236.131335 350.988919 
L 239.412694 352.947349 
L 243.058648 354.849255 
L 246.704602 356.492159 
L 250.350557 357.903442 
L 254.361106 359.217245 
L 258.736251 360.398625 
L 263.111396 361.35032 
L 267.851137 362.159124 
L 272.955473 362.81073 
L 278.789 363.319114 
L 284.987122 363.62721 
L 292.27903 363.750071 
L 301.02932 363.663776 
L 311.967183 363.320156 
L 333.842908 362.587609 
L 360.093779 361.948643 
L 389.626008 361.427662 
L 449.419657 360.571158 
L 449.419657 360.571158 
" clip-path="url(#p9825e0cb56)" style="fill: none; stroke: #55a868; stroke-opacity: 0.9; stroke-width: 3; stroke-linecap: round"/>
   </g>
   <g id="line2d_46">
    <path d="M 183.629594 259.133727 
L 185.452571 263.539567 
L 191.286098 277.668842 
L 194.202861 284.031805 
L 197.119625 289.831911 
L 200.036388 295.116227 
L 202.953152 299.927789 
L 205.869915 304.305952 
L 208.786678 308.286784 
L 211.703442 311.903309 
L 214.620205 315.185781 
L 217.536969 318.161954 
L 220.818327 321.175626 
L 224.099686 323.866795 
L 227.381045 326.265393 
L 230.662404 328.398644 
L 234.308358 330.487857 
L 237.954312 332.310748 
L 241.600266 333.895216 
L 245.610816 335.392829 
L 249.621366 336.66258 
L 253.996511 337.819244 
L 258.736251 338.837413 
L 263.840587 339.699118 
L 269.309519 340.39438 
L 275.507641 340.946455 
L 282.070358 341.305931 
L 289.726862 341.490372 
L 299.206343 341.480234 
L 311.237992 341.223851 
L 338.947244 340.557236 
L 379.052741 339.840561 
L 446.138298 339.020361 
L 449.419657 338.98162 
L 449.419657 338.98162 
" clip-path="url(#p9825e0cb56)" style="fill: none; stroke: #c44e52; stroke-opacity: 0.9; stroke-width: 3; stroke-linecap: round"/>
   </g>
   <g id="line2d_47">
    <path d="M 183.629594 259.133727 
L 186.181762 266.250418 
L 191.286098 280.331655 
L 194.202861 287.589145 
L 197.119625 294.206282 
L 200.036388 300.236723 
L 202.953152 305.729548 
L 205.869915 310.729654 
L 208.786678 315.278119 
L 211.703442 319.41256 
L 214.620205 323.167425 
L 217.536969 326.574257 
L 220.453732 329.661921 
L 223.370495 332.456846 
L 226.651854 335.281261 
L 229.933213 337.797128 
L 233.214572 340.032918 
L 236.49593 342.014448 
L 240.141885 343.946367 
L 243.787839 345.622218 
L 247.433793 347.067985 
L 251.444343 348.420655 
L 255.819488 349.64444 
L 260.194633 350.636277 
L 264.934373 351.4824 
L 270.038709 352.166649 
L 275.507641 352.675529 
L 281.341167 353.000373 
L 287.903885 353.142751 
L 295.924984 353.08463 
L 305.769061 352.780259 
L 319.623687 352.119517 
L 342.957794 350.756911 
L 361.187565 349.756336 
L 377.594359 349.123477 
L 403.845229 348.349371 
L 449.419657 347.294791 
L 449.419657 347.294791 
" clip-path="url(#p9825e0cb56)" style="fill: none; stroke: #8172b3; stroke-opacity: 0.9; stroke-width: 3; stroke-linecap: round"/>
   </g>
   <g id="line2d_48">
    <path d="M 183.629594 259.133727 
L 186.546358 265.628319 
L 191.650694 276.789961 
L 194.567457 282.510648 
L 197.48422 287.727284 
L 200.400984 292.482145 
L 203.317747 296.813922 
L 206.23451 300.758025 
L 209.151274 304.346855 
L 212.068037 307.610119 
L 215.349396 310.925892 
L 218.630755 313.899155 
L 221.912114 316.561776 
L 225.193472 318.942614 
L 228.474831 321.067827 
L 232.120785 323.158097 
L 235.76674 324.991227 
L 239.777289 326.741914 
L 243.787839 328.244561 
L 248.162984 329.633858 
L 252.538129 330.793064 
L 257.27787 331.821393 
L 262.382205 332.698718 
L 267.851137 333.413692 
L 274.049259 333.986916 
L 280.611977 334.364818 
L 287.903885 334.559394 
L 297.018771 334.55967 
L 309.415015 334.318471 
L 325.821809 333.763607 
L 371.031641 332.10962 
L 408.58497 331.177353 
L 444.315321 330.475017 
L 449.419657 330.380903 
L 449.419657 330.380903 
" clip-path="url(#p9825e0cb56)" style="fill: none; stroke: #937860; stroke-opacity: 0.9; stroke-width: 3; stroke-linecap: round"/>
   </g>
   <g id="patch_12">
    <path d="M 170.340091 373.284 
L 170.340091 253.698 
" style="fill: none; stroke: #ffffff; stroke-width: 1.25; stroke-linejoin: miter; stroke-linecap: square"/>
   </g>
   <g id="patch_13">
    <path d="M 170.340091 373.284 
L 462.70916 373.284 
" style="fill: none; stroke: #ffffff; stroke-width: 1.25; stroke-linejoin: miter; stroke-linecap: square"/>
   </g>
   <g id="text_15">
    <!-- 0.85~365 -->
    <g style="fill: #262626" transform="translate(253.861282 247.698) scale(0.252 -0.252)">
     <use xlink:href="#DejaVuSans-30"/>
     <use xlink:href="#DejaVuSans-2e" x="63.623047"/>
     <use xlink:href="#DejaVuSans-38" x="95.410156"/>
     <use xlink:href="#DejaVuSans-35" x="159.033203"/>
     <use xlink:href="#DejaVuSans-7e" x="222.65625"/>
     <use xlink:href="#DejaVuSans-33" x="306.445312"/>
     <use xlink:href="#DejaVuSans-36" x="370.068359"/>
     <use xlink:href="#DejaVuSans-35" x="433.691406"/>
    </g>
   </g>
  </g>
  <g id="axes_5">
   <g id="patch_14">
    <path d="M 489.290298 373.284 
L 781.659367 373.284 
L 781.659367 253.698 
L 489.290298 253.698 
z
" style="fill: #eaeaf2"/>
   </g>
   <g id="matplotlib.axis_9">
    <g id="xtick_17">
     <g id="line2d_49">
      <path d="M 502.579801 373.284 
L 502.579801 253.698 
" clip-path="url(#p63921d55e4)" style="fill: none; stroke: #ffffff; stroke-linecap: round"/>
     </g>
     <g id="text_16">
      <!-- 0 -->
      <g style="fill: #262626" transform="translate(495.231113 400.336391) scale(0.231 -0.231)">
       <use xlink:href="#DejaVuSans-30"/>
      </g>
     </g>
    </g>
    <g id="xtick_18">
     <g id="line2d_50">
      <path d="M 593.728656 373.284 
L 593.728656 253.698 
" clip-path="url(#p63921d55e4)" style="fill: none; stroke: #ffffff; stroke-linecap: round"/>
     </g>
     <g id="text_17">
      <!-- 250 -->
      <g style="fill: #262626" transform="translate(571.682594 400.336391) scale(0.231 -0.231)">
       <use xlink:href="#DejaVuSans-32"/>
       <use xlink:href="#DejaVuSans-35" x="63.623047"/>
       <use xlink:href="#DejaVuSans-30" x="127.246094"/>
      </g>
     </g>
    </g>
    <g id="xtick_19">
     <g id="line2d_51">
      <path d="M 684.877512 373.284 
L 684.877512 253.698 
" clip-path="url(#p63921d55e4)" style="fill: none; stroke: #ffffff; stroke-linecap: round"/>
     </g>
     <g id="text_18">
      <!-- 500 -->
      <g style="fill: #262626" transform="translate(662.83145 400.336391) scale(0.231 -0.231)">
       <use xlink:href="#DejaVuSans-35"/>
       <use xlink:href="#DejaVuSans-30" x="63.623047"/>
       <use xlink:href="#DejaVuSans-30" x="127.246094"/>
      </g>
     </g>
    </g>
    <g id="xtick_20">
     <g id="line2d_52">
      <path d="M 776.026368 373.284 
L 776.026368 253.698 
" clip-path="url(#p63921d55e4)" style="fill: none; stroke: #ffffff; stroke-linecap: round"/>
     </g>
     <g id="text_19">
      <!-- 750 -->
      <g style="fill: #262626" transform="translate(753.980305 400.336391) scale(0.231 -0.231)">
       <use xlink:href="#DejaVuSans-37"/>
       <use xlink:href="#DejaVuSans-35" x="63.623047"/>
       <use xlink:href="#DejaVuSans-30" x="127.246094"/>
      </g>
     </g>
    </g>
    <g id="text_20">
     <!-- step -->
     <g style="fill: #262626" transform="translate(608.219457 428.288531) scale(0.252 -0.252)">
      <use xlink:href="#DejaVuSans-73"/>
      <use xlink:href="#DejaVuSans-74" x="52.099609"/>
      <use xlink:href="#DejaVuSans-65" x="91.308594"/>
      <use xlink:href="#DejaVuSans-70" x="152.832031"/>
     </g>
    </g>
   </g>
   <g id="matplotlib.axis_10">
    <g id="ytick_9">
     <g id="line2d_53">
      <path d="M 489.290298 332.285105 
L 781.659367 332.285105 
" clip-path="url(#p63921d55e4)" style="fill: none; stroke: #ffffff; stroke-linecap: round"/>
     </g>
    </g>
    <g id="ytick_10">
     <g id="line2d_54">
      <path d="M 489.290298 259.133727 
L 781.659367 259.133727 
" clip-path="url(#p63921d55e4)" style="fill: none; stroke: #ffffff; stroke-linecap: round"/>
     </g>
    </g>
   </g>
   <g id="PolyCollection_25"/>
   <g id="PolyCollection_26"/>
   <g id="PolyCollection_27"/>
   <g id="PolyCollection_28"/>
   <g id="PolyCollection_29"/>
   <g id="PolyCollection_30"/>
   <g id="line2d_55">
    <path d="M 502.579801 259.133727 
L 505.86116 268.586683 
L 510.236305 280.838654 
L 512.788473 287.251261 
L 515.340641 293.09369 
L 517.892809 298.408528 
L 520.444976 303.234927 
L 522.997144 307.609793 
L 525.549312 311.567983 
L 528.10148 315.140643 
L 530.653648 318.356251 
L 533.205816 321.241178 
L 535.757984 323.824042 
L 538.674748 326.442554 
L 541.591511 328.734203 
L 544.508274 330.729872 
L 547.425038 332.456967 
L 550.341801 333.93813 
L 553.62316 335.336248 
L 556.904519 336.476343 
L 560.185878 337.383021 
L 563.831832 338.143683 
L 567.477786 338.671039 
L 571.852931 339.050353 
L 576.592672 339.245535 
L 582.061603 339.240135 
L 587.89513 339.007364 
L 599.197588 338.236449 
L 672.481268 332.875558 
L 731.181131 329.102757 
L 768.369864 326.709543 
L 768.369864 326.709543 
" clip-path="url(#p63921d55e4)" style="fill: none; stroke: #4c72b0; stroke-opacity: 0.9; stroke-width: 3; stroke-linecap: round"/>
   </g>
   <g id="line2d_56">
    <path d="M 502.579801 259.133727 
L 505.131969 263.19192 
L 510.236305 271.182306 
L 513.153068 275.252886 
L 516.069831 278.921437 
L 518.986595 282.222095 
L 521.903358 285.185834 
L 524.820122 287.840804 
L 527.736885 290.21279 
L 530.653648 292.325895 
L 533.935007 294.421403 
L 537.216366 296.246165 
L 540.497725 297.826236 
L 544.143679 299.326773 
L 547.789633 300.59321 
L 551.800183 301.75 
L 556.175328 302.763291 
L 560.550473 303.548169 
L 565.290213 304.173349 
L 570.394549 304.619534 
L 576.957267 304.938775 
L 584.249175 305.057213 
L 592.63487 304.955296 
L 607.218687 304.513685 
L 632.740367 303.463196 
L 674.304245 301.67786 
L 729.722749 299.30611 
L 768.369864 297.706752 
L 768.369864 297.706752 
" clip-path="url(#p63921d55e4)" style="fill: none; stroke: #dd8452; stroke-opacity: 0.9; stroke-width: 3; stroke-linecap: round"/>
   </g>
   <g id="line2d_57">
    <path d="M 502.579801 259.133727 
L 504.402778 264.721698 
L 509.507114 280.315197 
L 512.059282 287.383776 
L 514.61145 293.824877 
L 517.163618 299.685244 
L 519.715786 305.008743 
L 522.267954 309.835463 
L 524.820122 314.202073 
L 527.372289 318.142872 
L 529.924457 321.693415 
L 532.476625 324.893924 
L 535.393389 328.167977 
L 538.310152 331.072405 
L 541.226916 333.649484 
L 544.143679 335.930097 
L 547.060442 337.930771 
L 549.977206 339.670731 
L 552.893969 341.167805 
L 556.175328 342.591792 
L 559.456687 343.766172 
L 562.738045 344.710427 
L 566.019404 345.441499 
L 569.665358 346.027108 
L 573.675908 346.441503 
L 578.051053 346.65152 
L 582.426198 346.640755 
L 587.89513 346.391306 
L 596.64542 345.730288 
L 635.292535 342.551907 
L 656.803664 341.165497 
L 698.732138 338.718195 
L 768.369864 334.759691 
L 768.369864 334.759691 
" clip-path="url(#p63921d55e4)" style="fill: none; stroke: #55a868; stroke-opacity: 0.9; stroke-width: 3; stroke-linecap: round"/>
   </g>
   <g id="line2d_58">
    <path d="M 502.579801 259.133727 
L 504.767373 264.421307 
L 509.871709 276.622647 
L 512.423877 282.111007 
L 514.976045 287.111022 
L 517.528213 291.659088 
L 520.080381 295.788802 
L 522.632549 299.531017 
L 525.184717 302.914306 
L 527.736885 305.969379 
L 530.653648 309.101566 
L 533.570412 311.880157 
L 536.487175 314.335505 
L 539.403938 316.503773 
L 542.320702 318.415849 
L 545.602061 320.291728 
L 548.883419 321.89567 
L 552.164778 323.246583 
L 555.446137 324.369291 
L 559.092091 325.379311 
L 562.738045 326.160389 
L 566.748595 326.777227 
L 570.759145 327.16831 
L 575.13429 327.383499 
L 580.238626 327.40118 
L 586.801343 327.173805 
L 598.103801 326.530032 
L 641.490657 323.927027 
L 677.950199 322.125271 
L 768.369864 317.821329 
L 768.369864 317.821329 
" clip-path="url(#p63921d55e4)" style="fill: none; stroke: #c44e52; stroke-opacity: 0.9; stroke-width: 3; stroke-linecap: round"/>
   </g>
   <g id="line2d_59">
    <path d="M 502.579801 259.133727 
L 505.496564 267.239335 
L 509.871709 279.134659 
L 512.423877 285.394378 
L 514.976045 291.099979 
L 517.528213 296.292956 
L 520.080381 301.011535 
L 522.632549 305.290963 
L 525.184717 309.163811 
L 527.736885 312.660243 
L 530.289053 315.808096 
L 532.841221 318.633247 
L 535.393389 321.159479 
L 537.945557 323.408677 
L 540.86232 325.666773 
L 543.779084 327.618832 
L 546.695847 329.290142 
L 549.61261 330.705468 
L 552.529374 331.890356 
L 555.810732 332.972026 
L 559.092091 333.811128 
L 562.37345 334.430002 
L 566.019404 334.884111 
L 570.029954 335.14281 
L 574.405099 335.194869 
L 579.509435 335.016285 
L 585.342962 334.582278 
L 592.270275 333.833091 
L 600.655969 332.688409 
L 617.791954 330.263975 
L 629.459008 328.853003 
L 643.313634 327.414708 
L 659.355832 326.018874 
L 678.67939 324.549608 
L 707.847024 322.635297 
L 768.369864 318.843782 
L 768.369864 318.843782 
" clip-path="url(#p63921d55e4)" style="fill: none; stroke: #8172b3; stroke-opacity: 0.9; stroke-width: 3; stroke-linecap: round"/>
   </g>
   <g id="line2d_60">
    <path d="M 502.579801 259.133727 
L 505.86116 266.409587 
L 510.236305 275.83295 
L 512.788473 280.765804 
L 515.340641 285.264411 
L 517.892809 289.361354 
L 520.444976 293.086742 
L 522.997144 296.468441 
L 525.913908 299.945136 
L 528.830671 303.041349 
L 531.747435 305.789148 
L 534.664198 308.218628 
L 537.580961 310.356938 
L 540.497725 312.228499 
L 543.414488 313.855617 
L 546.695847 315.419347 
L 549.977206 316.729005 
L 553.258564 317.810047 
L 556.904519 318.769478 
L 560.550473 319.500347 
L 564.561023 320.068149 
L 568.571572 320.418325 
L 573.311313 320.602816 
L 579.144839 320.58904 
L 585.707557 320.337949 
L 592.999466 319.835488 
L 602.478947 318.94244 
L 623.990076 316.825688 
L 647.324183 314.800241 
L 660.449619 313.830558 
L 687.065085 312.114978 
L 729.358154 309.705339 
L 768.369864 307.532294 
L 768.369864 307.532294 
" clip-path="url(#p63921d55e4)" style="fill: none; stroke: #937860; stroke-opacity: 0.9; stroke-width: 3; stroke-linecap: round"/>
   </g>
   <g id="patch_15">
    <path d="M 489.290298 373.284 
L 489.290298 253.698 
" style="fill: none; stroke: #ffffff; stroke-width: 1.25; stroke-linejoin: miter; stroke-linecap: square"/>
   </g>
   <g id="patch_16">
    <path d="M 489.290298 373.284 
L 781.659367 373.284 
" style="fill: none; stroke: #ffffff; stroke-width: 1.25; stroke-linejoin: miter; stroke-linecap: square"/>
   </g>
   <g id="text_21">
    <!-- 0.95~90 -->
    <g style="fill: #262626" transform="translate(580.828239 247.698) scale(0.252 -0.252)">
     <use xlink:href="#DejaVuSans-30"/>
     <use xlink:href="#DejaVuSans-2e" x="63.623047"/>
     <use xlink:href="#DejaVuSans-39" x="95.410156"/>
     <use xlink:href="#DejaVuSans-35" x="159.033203"/>
     <use xlink:href="#DejaVuSans-7e" x="222.65625"/>
     <use xlink:href="#DejaVuSans-39" x="306.445312"/>
     <use xlink:href="#DejaVuSans-30" x="370.068359"/>
    </g>
   </g>
  </g>
  <g id="axes_6">
   <g id="patch_17">
    <path d="M 808.240504 373.284 
L 1100.609573 373.284 
L 1100.609573 253.698 
L 808.240504 253.698 
z
" style="fill: #eaeaf2"/>
   </g>
   <g id="matplotlib.axis_11">
    <g id="xtick_21">
     <g id="line2d_61">
      <path d="M 821.530007 373.284 
L 821.530007 253.698 
" clip-path="url(#pca7adb6b8a)" style="fill: none; stroke: #ffffff; stroke-linecap: round"/>
     </g>
     <g id="text_22">
      <!-- 0 -->
      <g style="fill: #262626" transform="translate(814.18132 400.336391) scale(0.231 -0.231)">
       <use xlink:href="#DejaVuSans-30"/>
      </g>
     </g>
    </g>
    <g id="xtick_22">
     <g id="line2d_62">
      <path d="M 912.678863 373.284 
L 912.678863 253.698 
" clip-path="url(#pca7adb6b8a)" style="fill: none; stroke: #ffffff; stroke-linecap: round"/>
     </g>
     <g id="text_23">
      <!-- 250 -->
      <g style="fill: #262626" transform="translate(890.6328 400.336391) scale(0.231 -0.231)">
       <use xlink:href="#DejaVuSans-32"/>
       <use xlink:href="#DejaVuSans-35" x="63.623047"/>
       <use xlink:href="#DejaVuSans-30" x="127.246094"/>
      </g>
     </g>
    </g>
    <g id="xtick_23">
     <g id="line2d_63">
      <path d="M 1003.827719 373.284 
L 1003.827719 253.698 
" clip-path="url(#pca7adb6b8a)" style="fill: none; stroke: #ffffff; stroke-linecap: round"/>
     </g>
     <g id="text_24">
      <!-- 500 -->
      <g style="fill: #262626" transform="translate(981.781656 400.336391) scale(0.231 -0.231)">
       <use xlink:href="#DejaVuSans-35"/>
       <use xlink:href="#DejaVuSans-30" x="63.623047"/>
       <use xlink:href="#DejaVuSans-30" x="127.246094"/>
      </g>
     </g>
    </g>
    <g id="xtick_24">
     <g id="line2d_64">
      <path d="M 1094.976574 373.284 
L 1094.976574 253.698 
" clip-path="url(#pca7adb6b8a)" style="fill: none; stroke: #ffffff; stroke-linecap: round"/>
     </g>
     <g id="text_25">
      <!-- 750 -->
      <g style="fill: #262626" transform="translate(1072.930512 400.336391) scale(0.231 -0.231)">
       <use xlink:href="#DejaVuSans-37"/>
       <use xlink:href="#DejaVuSans-35" x="63.623047"/>
       <use xlink:href="#DejaVuSans-30" x="127.246094"/>
      </g>
     </g>
    </g>
    <g id="text_26">
     <!-- step -->
     <g style="fill: #262626" transform="translate(927.169664 428.288531) scale(0.252 -0.252)">
      <use xlink:href="#DejaVuSans-73"/>
      <use xlink:href="#DejaVuSans-74" x="52.099609"/>
      <use xlink:href="#DejaVuSans-65" x="91.308594"/>
      <use xlink:href="#DejaVuSans-70" x="152.832031"/>
     </g>
    </g>
   </g>
   <g id="matplotlib.axis_12">
    <g id="ytick_11">
     <g id="line2d_65">
      <path d="M 808.240504 332.285105 
L 1100.609573 332.285105 
" clip-path="url(#pca7adb6b8a)" style="fill: none; stroke: #ffffff; stroke-linecap: round"/>
     </g>
    </g>
    <g id="ytick_12">
     <g id="line2d_66">
      <path d="M 808.240504 259.133727 
L 1100.609573 259.133727 
" clip-path="url(#pca7adb6b8a)" style="fill: none; stroke: #ffffff; stroke-linecap: round"/>
     </g>
    </g>
   </g>
   <g id="PolyCollection_31"/>
   <g id="PolyCollection_32"/>
   <g id="PolyCollection_33"/>
   <g id="PolyCollection_34"/>
   <g id="PolyCollection_35"/>
   <g id="PolyCollection_36"/>
   <g id="line2d_67">
    <path d="M 821.530007 259.133727 
L 824.446771 267.571736 
L 829.551107 282.096036 
L 832.46787 289.544482 
L 835.384633 296.334678 
L 838.301397 302.521698 
L 841.21816 308.155872 
L 844.134923 313.283254 
L 847.051687 317.946034 
L 849.96845 322.182867 
L 852.885214 326.029179 
L 855.801977 329.517414 
L 858.71874 332.677302 
L 861.635504 335.536365 
L 864.916863 338.424686 
L 868.198221 340.996719 
L 871.47958 343.282286 
L 874.760939 345.308082 
L 878.406893 347.283497 
L 882.052847 348.997682 
L 886.063397 350.616525 
L 890.073947 351.99112 
L 894.449092 353.246865 
L 899.188832 354.35707 
L 903.928573 355.240494 
L 909.032909 355.972478 
L 914.50184 356.539925 
L 920.699962 356.953492 
L 927.627275 357.176782 
L 936.742161 357.225401 
L 947.680023 357.048703 
L 960.805459 356.603649 
L 977.941444 356.011996 
L 1003.827719 355.407388 
L 1069.81949 354.095941 
L 1087.32007 353.771126 
L 1087.32007 353.771126 
" clip-path="url(#pca7adb6b8a)" style="fill: none; stroke: #4c72b0; stroke-opacity: 0.9; stroke-width: 3; stroke-linecap: round"/>
   </g>
   <g id="line2d_68">
    <path d="M 821.530007 259.133727 
L 824.082175 263.204532 
L 829.551107 271.859787 
L 832.46787 276.004293 
L 835.384633 279.784816 
L 838.301397 283.231838 
L 841.582756 286.74567 
L 844.864114 289.908658 
L 848.145473 292.753507 
L 851.426832 295.309904 
L 854.708191 297.604798 
L 858.354145 299.877522 
L 862.000099 301.887515 
L 866.010649 303.827179 
L 870.021198 305.513559 
L 874.396344 307.097834 
L 878.771489 308.447717 
L 883.511229 309.678618 
L 888.615565 310.770688 
L 894.084496 311.710729 
L 900.282619 312.541505 
L 906.845336 313.19967 
L 914.137245 313.711933 
L 922.522939 314.072235 
L 932.00242 314.252905 
L 945.127856 314.273659 
L 961.53465 314.072484 
L 1007.838268 313.34892 
L 1087.32007 312.418838 
L 1087.32007 312.418838 
" clip-path="url(#pca7adb6b8a)" style="fill: none; stroke: #dd8452; stroke-opacity: 0.9; stroke-width: 3; stroke-linecap: round"/>
   </g>
   <g id="line2d_69">
    <path d="M 821.530007 259.133727 
L 823.352984 264.734674 
L 829.186511 282.691598 
L 832.103275 290.776132 
L 835.020038 298.144694 
L 837.936801 304.857272 
L 840.853565 310.968696 
L 843.770328 316.529541 
L 846.687091 321.586375 
L 849.603855 326.187925 
L 852.520618 330.382477 
L 855.437382 334.212022 
L 858.71874 338.138849 
L 862.000099 341.707349 
L 865.281458 344.952374 
L 868.562817 347.895384 
L 871.844176 350.55382 
L 875.125534 352.944958 
L 878.771489 355.309893 
L 882.417443 357.401553 
L 886.063397 359.245268 
L 890.073947 361.011911 
L 894.084496 362.527878 
L 898.095046 363.813937 
L 902.470191 364.97527 
L 906.845336 365.907965 
L 911.585077 366.685419 
L 916.324817 367.2421 
L 921.429153 367.619351 
L 927.26268 367.817829 
L 934.189993 367.828512 
L 943.304878 367.611742 
L 963.357627 366.818817 
L 985.233352 366.141814 
L 1014.765581 365.46923 
L 1064.715154 364.648747 
L 1087.32007 364.300154 
L 1087.32007 364.300154 
" clip-path="url(#pca7adb6b8a)" style="fill: none; stroke: #55a868; stroke-opacity: 0.9; stroke-width: 3; stroke-linecap: round"/>
   </g>
   <g id="line2d_70">
    <path d="M 821.530007 259.133727 
L 823.352984 263.539567 
L 829.186511 277.668842 
L 832.103275 284.031805 
L 835.020038 289.831911 
L 837.936801 295.116227 
L 840.853565 299.927789 
L 843.770328 304.305952 
L 846.687091 308.290362 
L 849.603855 311.927007 
L 852.520618 315.244569 
L 855.801977 318.625796 
L 859.083336 321.675051 
L 862.364695 324.438372 
L 866.010649 327.207608 
L 869.656603 329.681264 
L 873.302557 331.877871 
L 876.948512 333.815658 
L 880.959061 335.675579 
L 884.969611 337.283275 
L 888.98016 338.663336 
L 893.355306 339.933028 
L 897.730451 340.978606 
L 902.470191 341.881799 
L 907.574527 342.617226 
L 913.043458 343.166772 
L 919.241581 343.547333 
L 926.168894 343.736988 
L 935.283779 343.744289 
L 946.586237 343.51877 
L 984.868757 342.555897 
L 1021.328299 341.902416 
L 1087.32007 341.051976 
L 1087.32007 341.051976 
" clip-path="url(#pca7adb6b8a)" style="fill: none; stroke: #c44e52; stroke-opacity: 0.9; stroke-width: 3; stroke-linecap: round"/>
   </g>
   <g id="line2d_71">
    <path d="M 821.530007 259.133727 
L 824.082175 266.250418 
L 829.186511 280.331655 
L 832.103275 287.589145 
L 835.020038 294.206282 
L 837.936801 300.236723 
L 840.853565 305.729548 
L 843.770328 310.729654 
L 846.687091 315.278119 
L 849.603855 319.41256 
L 852.520618 323.167425 
L 855.437382 326.574257 
L 858.354145 329.661921 
L 861.270908 332.456846 
L 864.552267 335.281261 
L 867.833626 337.797128 
L 871.114985 340.032918 
L 874.396344 342.014448 
L 878.042298 343.946367 
L 881.688252 345.622218 
L 885.334206 347.067985 
L 889.344756 348.420655 
L 893.719901 349.64444 
L 898.095046 350.636277 
L 902.834787 351.4824 
L 907.939122 352.166649 
L 913.408054 352.675529 
L 919.241581 353.000373 
L 925.804298 353.142751 
L 933.825397 353.08463 
L 943.669474 352.780259 
L 957.5241 352.119517 
L 980.858207 350.756911 
L 999.087978 349.756336 
L 1015.494772 349.123477 
L 1041.745642 348.349371 
L 1087.32007 347.294791 
L 1087.32007 347.294791 
" clip-path="url(#pca7adb6b8a)" style="fill: none; stroke: #8172b3; stroke-opacity: 0.9; stroke-width: 3; stroke-linecap: round"/>
   </g>
   <g id="line2d_72">
    <path d="M 821.530007 259.133727 
L 824.446771 265.628319 
L 829.551107 276.789961 
L 832.46787 282.510648 
L 835.384633 287.727284 
L 838.301397 292.482145 
L 841.21816 296.813922 
L 844.134923 300.758025 
L 847.051687 304.346855 
L 849.96845 307.610119 
L 853.249809 310.925892 
L 856.531168 313.899155 
L 859.812527 316.561776 
L 863.093885 318.942614 
L 866.375244 321.067827 
L 870.021198 323.158097 
L 873.667153 324.991227 
L 877.677702 326.741914 
L 881.688252 328.244561 
L 886.063397 329.633858 
L 890.438542 330.793064 
L 895.178283 331.821393 
L 900.282619 332.698718 
L 905.75155 333.413692 
L 911.949672 333.986916 
L 918.51239 334.364818 
L 925.804298 334.559394 
L 934.919184 334.55967 
L 947.315428 334.318471 
L 963.722222 333.763607 
L 1008.932054 332.10962 
L 1046.485383 331.177353 
L 1082.215734 330.475017 
L 1087.32007 330.380903 
L 1087.32007 330.380903 
" clip-path="url(#pca7adb6b8a)" style="fill: none; stroke: #937860; stroke-opacity: 0.9; stroke-width: 3; stroke-linecap: round"/>
   </g>
   <g id="patch_18">
    <path d="M 808.240504 373.284 
L 808.240504 253.698 
" style="fill: none; stroke: #ffffff; stroke-width: 1.25; stroke-linejoin: miter; stroke-linecap: square"/>
   </g>
   <g id="patch_19">
    <path d="M 808.240504 373.284 
L 1100.609573 373.284 
" style="fill: none; stroke: #ffffff; stroke-width: 1.25; stroke-linejoin: miter; stroke-linecap: square"/>
   </g>
   <g id="text_27">
    <!-- 0.95~365 -->
    <g style="fill: #262626" transform="translate(891.761695 247.698) scale(0.252 -0.252)">
     <use xlink:href="#DejaVuSans-30"/>
     <use xlink:href="#DejaVuSans-2e" x="63.623047"/>
     <use xlink:href="#DejaVuSans-39" x="95.410156"/>
     <use xlink:href="#DejaVuSans-35" x="159.033203"/>
     <use xlink:href="#DejaVuSans-7e" x="222.65625"/>
     <use xlink:href="#DejaVuSans-33" x="306.445312"/>
     <use xlink:href="#DejaVuSans-36" x="370.068359"/>
     <use xlink:href="#DejaVuSans-35" x="433.691406"/>
    </g>
   </g>
  </g>
  <g id="text_28">
   <!-- Production change from pre-shock level -->
   <g style="fill: #262626" transform="translate(280.766836 30.177675) scale(0.3024 -0.3024)">
    <defs>
     <path id="DejaVuSans-50" d="M 1259 4147 
L 1259 2394 
L 2053 2394 
Q 2494 2394 2734 2622 
Q 2975 2850 2975 3272 
Q 2975 3691 2734 3919 
Q 2494 4147 2053 4147 
L 1259 4147 
z
M 628 4666 
L 2053 4666 
Q 2838 4666 3239 4311 
Q 3641 3956 3641 3272 
Q 3641 2581 3239 2228 
Q 2838 1875 2053 1875 
L 1259 1875 
L 1259 0 
L 628 0 
L 628 4666 
z
" transform="scale(0.015625)"/>
     <path id="DejaVuSans-72" d="M 2631 2963 
Q 2534 3019 2420 3045 
Q 2306 3072 2169 3072 
Q 1681 3072 1420 2755 
Q 1159 2438 1159 1844 
L 1159 0 
L 581 0 
L 581 3500 
L 1159 3500 
L 1159 2956 
Q 1341 3275 1631 3429 
Q 1922 3584 2338 3584 
Q 2397 3584 2469 3576 
Q 2541 3569 2628 3553 
L 2631 2963 
z
" transform="scale(0.015625)"/>
     <path id="DejaVuSans-6f" d="M 1959 3097 
Q 1497 3097 1228 2736 
Q 959 2375 959 1747 
Q 959 1119 1226 758 
Q 1494 397 1959 397 
Q 2419 397 2687 759 
Q 2956 1122 2956 1747 
Q 2956 2369 2687 2733 
Q 2419 3097 1959 3097 
z
M 1959 3584 
Q 2709 3584 3137 3096 
Q 3566 2609 3566 1747 
Q 3566 888 3137 398 
Q 2709 -91 1959 -91 
Q 1206 -91 779 398 
Q 353 888 353 1747 
Q 353 2609 779 3096 
Q 1206 3584 1959 3584 
z
" transform="scale(0.015625)"/>
     <path id="DejaVuSans-64" d="M 2906 2969 
L 2906 4863 
L 3481 4863 
L 3481 0 
L 2906 0 
L 2906 525 
Q 2725 213 2448 61 
Q 2172 -91 1784 -91 
Q 1150 -91 751 415 
Q 353 922 353 1747 
Q 353 2572 751 3078 
Q 1150 3584 1784 3584 
Q 2172 3584 2448 3432 
Q 2725 3281 2906 2969 
z
M 947 1747 
Q 947 1113 1208 752 
Q 1469 391 1925 391 
Q 2381 391 2643 752 
Q 2906 1113 2906 1747 
Q 2906 2381 2643 2742 
Q 2381 3103 1925 3103 
Q 1469 3103 1208 2742 
Q 947 2381 947 1747 
z
" transform="scale(0.015625)"/>
     <path id="DejaVuSans-75" d="M 544 1381 
L 544 3500 
L 1119 3500 
L 1119 1403 
Q 1119 906 1312 657 
Q 1506 409 1894 409 
Q 2359 409 2629 706 
Q 2900 1003 2900 1516 
L 2900 3500 
L 3475 3500 
L 3475 0 
L 2900 0 
L 2900 538 
Q 2691 219 2414 64 
Q 2138 -91 1772 -91 
Q 1169 -91 856 284 
Q 544 659 544 1381 
z
M 1991 3584 
L 1991 3584 
z
" transform="scale(0.015625)"/>
     <path id="DejaVuSans-69" d="M 603 3500 
L 1178 3500 
L 1178 0 
L 603 0 
L 603 3500 
z
M 603 4863 
L 1178 4863 
L 1178 4134 
L 603 4134 
L 603 4863 
z
" transform="scale(0.015625)"/>
     <path id="DejaVuSans-66" d="M 2375 4863 
L 2375 4384 
L 1825 4384 
Q 1516 4384 1395 4259 
Q 1275 4134 1275 3809 
L 1275 3500 
L 2222 3500 
L 2222 3053 
L 1275 3053 
L 1275 0 
L 697 0 
L 697 3053 
L 147 3053 
L 147 3500 
L 697 3500 
L 697 3744 
Q 697 4328 969 4595 
Q 1241 4863 1831 4863 
L 2375 4863 
z
" transform="scale(0.015625)"/>
     <path id="DejaVuSans-6d" d="M 3328 2828 
Q 3544 3216 3844 3400 
Q 4144 3584 4550 3584 
Q 5097 3584 5394 3201 
Q 5691 2819 5691 2113 
L 5691 0 
L 5113 0 
L 5113 2094 
Q 5113 2597 4934 2840 
Q 4756 3084 4391 3084 
Q 3944 3084 3684 2787 
Q 3425 2491 3425 1978 
L 3425 0 
L 2847 0 
L 2847 2094 
Q 2847 2600 2669 2842 
Q 2491 3084 2119 3084 
Q 1678 3084 1418 2786 
Q 1159 2488 1159 1978 
L 1159 0 
L 581 0 
L 581 3500 
L 1159 3500 
L 1159 2956 
Q 1356 3278 1631 3431 
Q 1906 3584 2284 3584 
Q 2666 3584 2933 3390 
Q 3200 3197 3328 2828 
z
" transform="scale(0.015625)"/>
     <path id="DejaVuSans-2d" d="M 313 2009 
L 1997 2009 
L 1997 1497 
L 313 1497 
L 313 2009 
z
" transform="scale(0.015625)"/>
     <path id="DejaVuSans-6b" d="M 581 4863 
L 1159 4863 
L 1159 1991 
L 2875 3500 
L 3609 3500 
L 1753 1863 
L 3688 0 
L 2938 0 
L 1159 1709 
L 1159 0 
L 581 0 
L 581 4863 
z
" transform="scale(0.015625)"/>
     <path id="DejaVuSans-6c" d="M 603 4863 
L 1178 4863 
L 1178 0 
L 603 0 
L 603 4863 
z
" transform="scale(0.015625)"/>
     <path id="DejaVuSans-76" d="M 191 3500 
L 800 3500 
L 1894 563 
L 2988 3500 
L 3597 3500 
L 2284 0 
L 1503 0 
L 191 3500 
z
" transform="scale(0.015625)"/>
    </defs>
    <use xlink:href="#DejaVuSans-50"/>
    <use xlink:href="#DejaVuSans-72" x="58.552734"/>
    <use xlink:href="#DejaVuSans-6f" x="97.416016"/>
    <use xlink:href="#DejaVuSans-64" x="158.597656"/>
    <use xlink:href="#DejaVuSans-75" x="222.074219"/>
    <use xlink:href="#DejaVuSans-63" x="285.453125"/>
    <use xlink:href="#DejaVuSans-74" x="340.433594"/>
    <use xlink:href="#DejaVuSans-69" x="379.642578"/>
    <use xlink:href="#DejaVuSans-6f" x="407.425781"/>
    <use xlink:href="#DejaVuSans-6e" x="468.607422"/>
    <use xlink:href="#DejaVuSans-20" x="531.986328"/>
    <use xlink:href="#DejaVuSans-63" x="563.773438"/>
    <use xlink:href="#DejaVuSans-68" x="618.753906"/>
    <use xlink:href="#DejaVuSans-61" x="682.132812"/>
    <use xlink:href="#DejaVuSans-6e" x="743.412109"/>
    <use xlink:href="#DejaVuSans-67" x="806.791016"/>
    <use xlink:href="#DejaVuSans-65" x="870.267578"/>
    <use xlink:href="#DejaVuSans-20" x="931.791016"/>
    <use xlink:href="#DejaVuSans-66" x="963.578125"/>
    <use xlink:href="#DejaVuSans-72" x="998.783203"/>
    <use xlink:href="#DejaVuSans-6f" x="1037.646484"/>
    <use xlink:href="#DejaVuSans-6d" x="1098.828125"/>
    <use xlink:href="#DejaVuSans-20" x="1196.240234"/>
    <use xlink:href="#DejaVuSans-70" x="1228.027344"/>
    <use xlink:href="#DejaVuSans-72" x="1291.503906"/>
    <use xlink:href="#DejaVuSans-65" x="1330.367188"/>
    <use xlink:href="#DejaVuSans-2d" x="1391.890625"/>
    <use xlink:href="#DejaVuSans-73" x="1427.974609"/>
    <use xlink:href="#DejaVuSans-68" x="1480.074219"/>
    <use xlink:href="#DejaVuSans-6f" x="1543.453125"/>
    <use xlink:href="#DejaVuSans-63" x="1604.634766"/>
    <use xlink:href="#DejaVuSans-6b" x="1659.615234"/>
    <use xlink:href="#DejaVuSans-20" x="1717.525391"/>
    <use xlink:href="#DejaVuSans-6c" x="1749.3125"/>
    <use xlink:href="#DejaVuSans-65" x="1777.095703"/>
    <use xlink:href="#DejaVuSans-76" x="1838.619141"/>
    <use xlink:href="#DejaVuSans-65" x="1897.798828"/>
    <use xlink:href="#DejaVuSans-6c" x="1959.322266"/>
   </g>
  </g>
  <g id="legend_1">
   <g id="patch_20">
    <path d="M 11.82 584.31675 
L 1292.617547 584.31675 
Q 1297.237547 584.31675 1297.237547 579.69675 
L 1297.237547 476.97 
Q 1297.237547 472.35 1292.617547 472.35 
L 11.82 472.35 
Q 7.2 472.35 7.2 476.97 
L 7.2 579.69675 
Q 7.2 584.31675 11.82 584.31675 
z
" style="fill: #eaeaf2; opacity: 0.8; stroke: #cccccc; stroke-linejoin: miter"/>
   </g>
   <g id="text_29">
    <!-- Experiences -->
    <g style="fill: #262626" transform="translate(575.384367 500.738062) scale(0.252 -0.252)">
     <defs>
      <path id="DejaVuSans-45" d="M 628 4666 
L 3578 4666 
L 3578 4134 
L 1259 4134 
L 1259 2753 
L 3481 2753 
L 3481 2222 
L 1259 2222 
L 1259 531 
L 3634 531 
L 3634 0 
L 628 0 
L 628 4666 
z
" transform="scale(0.015625)"/>
      <path id="DejaVuSans-78" d="M 3513 3500 
L 2247 1797 
L 3578 0 
L 2900 0 
L 1881 1375 
L 863 0 
L 184 0 
L 1544 1831 
L 300 3500 
L 978 3500 
L 1906 2253 
L 2834 3500 
L 3513 3500 
z
" transform="scale(0.015625)"/>
     </defs>
     <use xlink:href="#DejaVuSans-45"/>
     <use xlink:href="#DejaVuSans-78" x="63.183594"/>
     <use xlink:href="#DejaVuSans-70" x="122.363281"/>
     <use xlink:href="#DejaVuSans-65" x="185.839844"/>
     <use xlink:href="#DejaVuSans-72" x="247.363281"/>
     <use xlink:href="#DejaVuSans-69" x="288.476562"/>
     <use xlink:href="#DejaVuSans-65" x="316.259766"/>
     <use xlink:href="#DejaVuSans-6e" x="377.783203"/>
     <use xlink:href="#DejaVuSans-63" x="441.162109"/>
     <use xlink:href="#DejaVuSans-65" x="496.142578"/>
     <use xlink:href="#DejaVuSans-73" x="557.666016"/>
    </g>
   </g>
   <g id="line2d_73">
    <path d="M 16.44 526.996266 
L 39.54 526.996266 
L 62.64 526.996266 
" style="fill: none; stroke: #4c72b0; stroke-opacity: 0.9; stroke-width: 3; stroke-linecap: round"/>
   </g>
   <g id="text_30">
    <!-- eora26_full_2000 -->
    <g style="fill: #262626" transform="translate(81.12 535.081266) scale(0.231 -0.231)">
     <defs>
      <path id="DejaVuSans-5f" d="M 3263 -1063 
L 3263 -1509 
L -63 -1509 
L -63 -1063 
L 3263 -1063 
z
" transform="scale(0.015625)"/>
     </defs>
     <use xlink:href="#DejaVuSans-65"/>
     <use xlink:href="#DejaVuSans-6f" x="61.523438"/>
     <use xlink:href="#DejaVuSans-72" x="122.705078"/>
     <use xlink:href="#DejaVuSans-61" x="163.818359"/>
     <use xlink:href="#DejaVuSans-32" x="225.097656"/>
     <use xlink:href="#DejaVuSans-36" x="288.720703"/>
     <use xlink:href="#DejaVuSans-5f" x="352.34375"/>
     <use xlink:href="#DejaVuSans-66" x="402.34375"/>
     <use xlink:href="#DejaVuSans-75" x="437.548828"/>
     <use xlink:href="#DejaVuSans-6c" x="500.927734"/>
     <use xlink:href="#DejaVuSans-6c" x="528.710938"/>
     <use xlink:href="#DejaVuSans-5f" x="556.494141"/>
     <use xlink:href="#DejaVuSans-32" x="606.494141"/>
     <use xlink:href="#DejaVuSans-30" x="670.117188"/>
     <use xlink:href="#DejaVuSans-30" x="733.740234"/>
     <use xlink:href="#DejaVuSans-30" x="797.363281"/>
    </g>
   </g>
   <g id="line2d_74">
    <path d="M 16.44 561.545203 
L 39.54 561.545203 
L 62.64 561.545203 
" style="fill: none; stroke: #dd8452; stroke-opacity: 0.9; stroke-width: 3; stroke-linecap: round"/>
   </g>
   <g id="text_31">
    <!-- eora26_full_2010 -->
    <g style="fill: #262626" transform="translate(81.12 569.630203) scale(0.231 -0.231)">
     <use xlink:href="#DejaVuSans-65"/>
     <use xlink:href="#DejaVuSans-6f" x="61.523438"/>
     <use xlink:href="#DejaVuSans-72" x="122.705078"/>
     <use xlink:href="#DejaVuSans-61" x="163.818359"/>
     <use xlink:href="#DejaVuSans-32" x="225.097656"/>
     <use xlink:href="#DejaVuSans-36" x="288.720703"/>
     <use xlink:href="#DejaVuSans-5f" x="352.34375"/>
     <use xlink:href="#DejaVuSans-66" x="402.34375"/>
     <use xlink:href="#DejaVuSans-75" x="437.548828"/>
     <use xlink:href="#DejaVuSans-6c" x="500.927734"/>
     <use xlink:href="#DejaVuSans-6c" x="528.710938"/>
     <use xlink:href="#DejaVuSans-5f" x="556.494141"/>
     <use xlink:href="#DejaVuSans-32" x="606.494141"/>
     <use xlink:href="#DejaVuSans-30" x="670.117188"/>
     <use xlink:href="#DejaVuSans-31" x="733.740234"/>
     <use xlink:href="#DejaVuSans-30" x="797.363281"/>
    </g>
   </g>
   <g id="line2d_75">
    <path d="M 326.211 526.996266 
L 349.311 526.996266 
L 372.411 526.996266 
" style="fill: none; stroke: #55a868; stroke-opacity: 0.9; stroke-width: 3; stroke-linecap: round"/>
   </g>
   <g id="text_32">
    <!-- euregio_full_2000 -->
    <g style="fill: #262626" transform="translate(390.891 535.081266) scale(0.231 -0.231)">
     <use xlink:href="#DejaVuSans-65"/>
     <use xlink:href="#DejaVuSans-75" x="61.523438"/>
     <use xlink:href="#DejaVuSans-72" x="124.902344"/>
     <use xlink:href="#DejaVuSans-65" x="163.765625"/>
     <use xlink:href="#DejaVuSans-67" x="225.289062"/>
     <use xlink:href="#DejaVuSans-69" x="288.765625"/>
     <use xlink:href="#DejaVuSans-6f" x="316.548828"/>
     <use xlink:href="#DejaVuSans-5f" x="377.730469"/>
     <use xlink:href="#DejaVuSans-66" x="427.730469"/>
     <use xlink:href="#DejaVuSans-75" x="462.935547"/>
     <use xlink:href="#DejaVuSans-6c" x="526.314453"/>
     <use xlink:href="#DejaVuSans-6c" x="554.097656"/>
     <use xlink:href="#DejaVuSans-5f" x="581.880859"/>
     <use xlink:href="#DejaVuSans-32" x="631.880859"/>
     <use xlink:href="#DejaVuSans-30" x="695.503906"/>
     <use xlink:href="#DejaVuSans-30" x="759.126953"/>
     <use xlink:href="#DejaVuSans-30" x="822.75"/>
    </g>
   </g>
   <g id="line2d_76">
    <path d="M 326.211 561.545203 
L 349.311 561.545203 
L 372.411 561.545203 
" style="fill: none; stroke: #c44e52; stroke-opacity: 0.9; stroke-width: 3; stroke-linecap: round"/>
   </g>
   <g id="text_33">
    <!-- euregio_full_2010 -->
    <g style="fill: #262626" transform="translate(390.891 569.630203) scale(0.231 -0.231)">
     <use xlink:href="#DejaVuSans-65"/>
     <use xlink:href="#DejaVuSans-75" x="61.523438"/>
     <use xlink:href="#DejaVuSans-72" x="124.902344"/>
     <use xlink:href="#DejaVuSans-65" x="163.765625"/>
     <use xlink:href="#DejaVuSans-67" x="225.289062"/>
     <use xlink:href="#DejaVuSans-69" x="288.765625"/>
     <use xlink:href="#DejaVuSans-6f" x="316.548828"/>
     <use xlink:href="#DejaVuSans-5f" x="377.730469"/>
     <use xlink:href="#DejaVuSans-66" x="427.730469"/>
     <use xlink:href="#DejaVuSans-75" x="462.935547"/>
     <use xlink:href="#DejaVuSans-6c" x="526.314453"/>
     <use xlink:href="#DejaVuSans-6c" x="554.097656"/>
     <use xlink:href="#DejaVuSans-5f" x="581.880859"/>
     <use xlink:href="#DejaVuSans-32" x="631.880859"/>
     <use xlink:href="#DejaVuSans-30" x="695.503906"/>
     <use xlink:href="#DejaVuSans-31" x="759.126953"/>
     <use xlink:href="#DejaVuSans-30" x="822.75"/>
    </g>
   </g>
   <g id="line2d_77">
    <path d="M 641.847234 526.996266 
L 664.947234 526.996266 
L 688.047234 526.996266 
" style="fill: none; stroke: #8172b3; stroke-opacity: 0.9; stroke-width: 3; stroke-linecap: round"/>
   </g>
   <g id="text_34">
    <!-- exiobase3_full_2000 -->
    <g style="fill: #262626" transform="translate(706.527234 535.081266) scale(0.231 -0.231)">
     <defs>
      <path id="DejaVuSans-62" d="M 3116 1747 
Q 3116 2381 2855 2742 
Q 2594 3103 2138 3103 
Q 1681 3103 1420 2742 
Q 1159 2381 1159 1747 
Q 1159 1113 1420 752 
Q 1681 391 2138 391 
Q 2594 391 2855 752 
Q 3116 1113 3116 1747 
z
M 1159 2969 
Q 1341 3281 1617 3432 
Q 1894 3584 2278 3584 
Q 2916 3584 3314 3078 
Q 3713 2572 3713 1747 
Q 3713 922 3314 415 
Q 2916 -91 2278 -91 
Q 1894 -91 1617 61 
Q 1341 213 1159 525 
L 1159 0 
L 581 0 
L 581 4863 
L 1159 4863 
L 1159 2969 
z
" transform="scale(0.015625)"/>
     </defs>
     <use xlink:href="#DejaVuSans-65"/>
     <use xlink:href="#DejaVuSans-78" x="59.773438"/>
     <use xlink:href="#DejaVuSans-69" x="118.953125"/>
     <use xlink:href="#DejaVuSans-6f" x="146.736328"/>
     <use xlink:href="#DejaVuSans-62" x="207.917969"/>
     <use xlink:href="#DejaVuSans-61" x="271.394531"/>
     <use xlink:href="#DejaVuSans-73" x="332.673828"/>
     <use xlink:href="#DejaVuSans-65" x="384.773438"/>
     <use xlink:href="#DejaVuSans-33" x="446.296875"/>
     <use xlink:href="#DejaVuSans-5f" x="509.919922"/>
     <use xlink:href="#DejaVuSans-66" x="559.919922"/>
     <use xlink:href="#DejaVuSans-75" x="595.125"/>
     <use xlink:href="#DejaVuSans-6c" x="658.503906"/>
     <use xlink:href="#DejaVuSans-6c" x="686.287109"/>
     <use xlink:href="#DejaVuSans-5f" x="714.070312"/>
     <use xlink:href="#DejaVuSans-32" x="764.070312"/>
     <use xlink:href="#DejaVuSans-30" x="827.693359"/>
     <use xlink:href="#DejaVuSans-30" x="891.316406"/>
     <use xlink:href="#DejaVuSans-30" x="954.939453"/>
    </g>
   </g>
   <g id="line2d_78">
    <path d="M 988.022391 526.996266 
L 1011.122391 526.996266 
L 1034.222391 526.996266 
" style="fill: none; stroke: #937860; stroke-opacity: 0.9; stroke-width: 3; stroke-linecap: round"/>
   </g>
   <g id="text_35">
    <!-- exiobase3_full_2010 -->
    <g style="fill: #262626" transform="translate(1052.702391 535.081266) scale(0.231 -0.231)">
     <use xlink:href="#DejaVuSans-65"/>
     <use xlink:href="#DejaVuSans-78" x="59.773438"/>
     <use xlink:href="#DejaVuSans-69" x="118.953125"/>
     <use xlink:href="#DejaVuSans-6f" x="146.736328"/>
     <use xlink:href="#DejaVuSans-62" x="207.917969"/>
     <use xlink:href="#DejaVuSans-61" x="271.394531"/>
     <use xlink:href="#DejaVuSans-73" x="332.673828"/>
     <use xlink:href="#DejaVuSans-65" x="384.773438"/>
     <use xlink:href="#DejaVuSans-33" x="446.296875"/>
     <use xlink:href="#DejaVuSans-5f" x="509.919922"/>
     <use xlink:href="#DejaVuSans-66" x="559.919922"/>
     <use xlink:href="#DejaVuSans-75" x="595.125"/>
     <use xlink:href="#DejaVuSans-6c" x="658.503906"/>
     <use xlink:href="#DejaVuSans-6c" x="686.287109"/>
     <use xlink:href="#DejaVuSans-5f" x="714.070312"/>
     <use xlink:href="#DejaVuSans-32" x="764.070312"/>
     <use xlink:href="#DejaVuSans-30" x="827.693359"/>
     <use xlink:href="#DejaVuSans-31" x="891.316406"/>
     <use xlink:href="#DejaVuSans-30" x="954.939453"/>
    </g>
   </g>
  </g>
 </g>
 <defs>
  <clipPath id="peb25d778da">
   <rect x="170.340091" y="81.456" width="292.369069" height="119.586"/>
  </clipPath>
  <clipPath id="p1dcd2bf196">
   <rect x="489.290298" y="81.456" width="292.369069" height="119.586"/>
  </clipPath>
  <clipPath id="pfd0a7e2ad8">
   <rect x="808.240504" y="81.456" width="292.369069" height="119.586"/>
  </clipPath>
  <clipPath id="p9825e0cb56">
   <rect x="170.340091" y="253.698" width="292.369069" height="119.586"/>
  </clipPath>
  <clipPath id="p63921d55e4">
   <rect x="489.290298" y="253.698" width="292.369069" height="119.586"/>
  </clipPath>
  <clipPath id="pca7adb6b8a">
   <rect x="808.240504" y="253.698" width="292.369069" height="119.586"/>
  </clipPath>
 </defs>
</svg>
