<?xml version="1.0" encoding="utf-8" standalone="no"?>
<!DOCTYPE svg PUBLIC "-//W3C//DTD SVG 1.1//EN"
  "http://www.w3.org/Graphics/SVG/1.1/DTD/svg11.dtd">
<svg xmlns:xlink="http://www.w3.org/1999/xlink" width="1304.437547pt" height="591.51675pt" viewBox="0 0 1304.437547 591.51675" xmlns="http://www.w3.org/2000/svg" version="1.1">
 <metadata>
  <rdf:RDF xmlns:dc="http://purl.org/dc/elements/1.1/" xmlns:cc="http://creativecommons.org/ns#" xmlns:rdf="http://www.w3.org/1999/02/22-rdf-syntax-ns#">
   <cc:Work>
    <dc:type rdf:resource="http://purl.org/dc/dcmitype/StillImage"/>
    <dc:date>2023-04-27T10:22:06.643327</dc:date>
    <dc:format>image/svg+xml</dc:format>
    <dc:creator>
     <cc:Agent>
      <dc:title>Matplotlib v3.7.1, https://matplotlib.org/</dc:title>
     </cc:Agent>
    </dc:creator>
   </cc:Work>
  </rdf:RDF>
 </metadata>
 <defs>
  <style type="text/css">*{stroke-linejoin: round; stroke-linecap: butt}</style>
 </defs>
 <g id="figure_1">
  <g id="patch_1">
   <path d="M 0 591.51675 
L 1304.437547 591.51675 
L 1304.437547 -0 
L 0 -0 
z
" style="fill: #ffffff"/>
  </g>
  <g id="axes_1">
   <g id="patch_2">
    <path d="M 160.9429 201.042 
L 456.401316 201.042 
L 456.401316 81.456 
L 160.9429 81.456 
z
" style="fill: #eaeaf2"/>
   </g>
   <g id="matplotlib.axis_1">
    <g id="xtick_1">
     <g id="line2d_1">
      <path d="M 174.372828 201.042 
L 174.372828 81.456 
" clip-path="url(#pc041d5d538)" style="fill: none; stroke: #ffffff; stroke-linecap: round"/>
     </g>
    </g>
    <g id="xtick_2">
     <g id="line2d_2">
      <path d="M 266.484817 201.042 
L 266.484817 81.456 
" clip-path="url(#pc041d5d538)" style="fill: none; stroke: #ffffff; stroke-linecap: round"/>
     </g>
    </g>
    <g id="xtick_3">
     <g id="line2d_3">
      <path d="M 358.596806 201.042 
L 358.596806 81.456 
" clip-path="url(#pc041d5d538)" style="fill: none; stroke: #ffffff; stroke-linecap: round"/>
     </g>
    </g>
    <g id="xtick_4">
     <g id="line2d_4">
      <path d="M 450.708795 201.042 
L 450.708795 81.456 
" clip-path="url(#pc041d5d538)" style="fill: none; stroke: #ffffff; stroke-linecap: round"/>
     </g>
    </g>
   </g>
   <g id="matplotlib.axis_2">
    <g id="ytick_1">
     <g id="line2d_5">
      <path d="M 160.9429 164.942807 
L 456.401316 164.942807 
" clip-path="url(#pc041d5d538)" style="fill: none; stroke: #ffffff; stroke-linecap: round"/>
     </g>
     <g id="text_1">
      <!-- −25 -->
      <g style="fill: #262626" transform="translate(102.691072 173.719002) scale(0.231 -0.231)">
       <defs>
        <path id="DejaVuSans-2212" d="M 678 2272 
L 4684 2272 
L 4684 1741 
L 678 1741 
L 678 2272 
z
" transform="scale(0.015625)"/>
        <path id="DejaVuSans-32" d="M 1228 531 
L 3431 531 
L 3431 0 
L 469 0 
L 469 531 
Q 828 903 1448 1529 
Q 2069 2156 2228 2338 
Q 2531 2678 2651 2914 
Q 2772 3150 2772 3378 
Q 2772 3750 2511 3984 
Q 2250 4219 1831 4219 
Q 1534 4219 1204 4116 
Q 875 4013 500 3803 
L 500 4441 
Q 881 4594 1212 4672 
Q 1544 4750 1819 4750 
Q 2544 4750 2975 4387 
Q 3406 4025 3406 3419 
Q 3406 3131 3298 2873 
Q 3191 2616 2906 2266 
Q 2828 2175 2409 1742 
Q 1991 1309 1228 531 
z
" transform="scale(0.015625)"/>
        <path id="DejaVuSans-35" d="M 691 4666 
L 3169 4666 
L 3169 4134 
L 1269 4134 
L 1269 2991 
Q 1406 3038 1543 3061 
Q 1681 3084 1819 3084 
Q 2600 3084 3056 2656 
Q 3513 2228 3513 1497 
Q 3513 744 3044 326 
Q 2575 -91 1722 -91 
Q 1428 -91 1123 -41 
Q 819 9 494 109 
L 494 744 
Q 775 591 1075 516 
Q 1375 441 1709 441 
Q 2250 441 2565 725 
Q 2881 1009 2881 1497 
Q 2881 1984 2565 2268 
Q 2250 2553 1709 2553 
Q 1456 2553 1204 2497 
Q 953 2441 691 2322 
L 691 4666 
z
" transform="scale(0.015625)"/>
       </defs>
       <use xlink:href="#DejaVuSans-2212"/>
       <use xlink:href="#DejaVuSans-32" x="83.789062"/>
       <use xlink:href="#DejaVuSans-35" x="147.412109"/>
      </g>
     </g>
    </g>
    <g id="ytick_2">
     <g id="line2d_6">
      <path d="M 160.9429 98.583138 
L 456.401316 98.583138 
" clip-path="url(#pc041d5d538)" style="fill: none; stroke: #ffffff; stroke-linecap: round"/>
     </g>
     <g id="text_2">
      <!-- 0 -->
      <g style="fill: #262626" transform="translate(136.745525 107.359333) scale(0.231 -0.231)">
       <defs>
        <path id="DejaVuSans-30" d="M 2034 4250 
Q 1547 4250 1301 3770 
Q 1056 3291 1056 2328 
Q 1056 1369 1301 889 
Q 1547 409 2034 409 
Q 2525 409 2770 889 
Q 3016 1369 3016 2328 
Q 3016 3291 2770 3770 
Q 2525 4250 2034 4250 
z
M 2034 4750 
Q 2819 4750 3233 4129 
Q 3647 3509 3647 2328 
Q 3647 1150 3233 529 
Q 2819 -91 2034 -91 
Q 1250 -91 836 529 
Q 422 1150 422 2328 
Q 422 3509 836 4129 
Q 1250 4750 2034 4750 
z
" transform="scale(0.015625)"/>
       </defs>
       <use xlink:href="#DejaVuSans-30"/>
      </g>
     </g>
    </g>
    <g id="text_3">
     <!-- % change -->
     <g style="fill: #262626" transform="translate(93.450259 203.597344) rotate(-90) scale(0.252 -0.252)">
      <defs>
       <path id="DejaVuSans-25" d="M 4653 2053 
Q 4381 2053 4226 1822 
Q 4072 1591 4072 1178 
Q 4072 772 4226 539 
Q 4381 306 4653 306 
Q 4919 306 5073 539 
Q 5228 772 5228 1178 
Q 5228 1588 5073 1820 
Q 4919 2053 4653 2053 
z
M 4653 2450 
Q 5147 2450 5437 2106 
Q 5728 1763 5728 1178 
Q 5728 594 5436 251 
Q 5144 -91 4653 -91 
Q 4153 -91 3862 251 
Q 3572 594 3572 1178 
Q 3572 1766 3864 2108 
Q 4156 2450 4653 2450 
z
M 1428 4353 
Q 1159 4353 1004 4120 
Q 850 3888 850 3481 
Q 850 3069 1003 2837 
Q 1156 2606 1428 2606 
Q 1700 2606 1854 2837 
Q 2009 3069 2009 3481 
Q 2009 3884 1853 4118 
Q 1697 4353 1428 4353 
z
M 4250 4750 
L 4750 4750 
L 1831 -91 
L 1331 -91 
L 4250 4750 
z
M 1428 4750 
Q 1922 4750 2215 4408 
Q 2509 4066 2509 3481 
Q 2509 2891 2217 2550 
Q 1925 2209 1428 2209 
Q 931 2209 642 2551 
Q 353 2894 353 3481 
Q 353 4063 643 4406 
Q 934 4750 1428 4750 
z
" transform="scale(0.015625)"/>
       <path id="DejaVuSans-20" transform="scale(0.015625)"/>
       <path id="DejaVuSans-63" d="M 3122 3366 
L 3122 2828 
Q 2878 2963 2633 3030 
Q 2388 3097 2138 3097 
Q 1578 3097 1268 2742 
Q 959 2388 959 1747 
Q 959 1106 1268 751 
Q 1578 397 2138 397 
Q 2388 397 2633 464 
Q 2878 531 3122 666 
L 3122 134 
Q 2881 22 2623 -34 
Q 2366 -91 2075 -91 
Q 1284 -91 818 406 
Q 353 903 353 1747 
Q 353 2603 823 3093 
Q 1294 3584 2113 3584 
Q 2378 3584 2631 3529 
Q 2884 3475 3122 3366 
z
" transform="scale(0.015625)"/>
       <path id="DejaVuSans-68" d="M 3513 2113 
L 3513 0 
L 2938 0 
L 2938 2094 
Q 2938 2591 2744 2837 
Q 2550 3084 2163 3084 
Q 1697 3084 1428 2787 
Q 1159 2491 1159 1978 
L 1159 0 
L 581 0 
L 581 4863 
L 1159 4863 
L 1159 2956 
Q 1366 3272 1645 3428 
Q 1925 3584 2291 3584 
Q 2894 3584 3203 3211 
Q 3513 2838 3513 2113 
z
" transform="scale(0.015625)"/>
       <path id="DejaVuSans-61" d="M 2194 1759 
Q 1497 1759 1228 1600 
Q 959 1441 959 1056 
Q 959 750 1161 570 
Q 1363 391 1709 391 
Q 2188 391 2477 730 
Q 2766 1069 2766 1631 
L 2766 1759 
L 2194 1759 
z
M 3341 1997 
L 3341 0 
L 2766 0 
L 2766 531 
Q 2569 213 2275 61 
Q 1981 -91 1556 -91 
Q 1019 -91 701 211 
Q 384 513 384 1019 
Q 384 1609 779 1909 
Q 1175 2209 1959 2209 
L 2766 2209 
L 2766 2266 
Q 2766 2663 2505 2880 
Q 2244 3097 1772 3097 
Q 1472 3097 1187 3025 
Q 903 2953 641 2809 
L 641 3341 
Q 956 3463 1253 3523 
Q 1550 3584 1831 3584 
Q 2591 3584 2966 3190 
Q 3341 2797 3341 1997 
z
" transform="scale(0.015625)"/>
       <path id="DejaVuSans-6e" d="M 3513 2113 
L 3513 0 
L 2938 0 
L 2938 2094 
Q 2938 2591 2744 2837 
Q 2550 3084 2163 3084 
Q 1697 3084 1428 2787 
Q 1159 2491 1159 1978 
L 1159 0 
L 581 0 
L 581 3500 
L 1159 3500 
L 1159 2956 
Q 1366 3272 1645 3428 
Q 1925 3584 2291 3584 
Q 2894 3584 3203 3211 
Q 3513 2838 3513 2113 
z
" transform="scale(0.015625)"/>
       <path id="DejaVuSans-67" d="M 2906 1791 
Q 2906 2416 2648 2759 
Q 2391 3103 1925 3103 
Q 1463 3103 1205 2759 
Q 947 2416 947 1791 
Q 947 1169 1205 825 
Q 1463 481 1925 481 
Q 2391 481 2648 825 
Q 2906 1169 2906 1791 
z
M 3481 434 
Q 3481 -459 3084 -895 
Q 2688 -1331 1869 -1331 
Q 1566 -1331 1297 -1286 
Q 1028 -1241 775 -1147 
L 775 -588 
Q 1028 -725 1275 -790 
Q 1522 -856 1778 -856 
Q 2344 -856 2625 -561 
Q 2906 -266 2906 331 
L 2906 616 
Q 2728 306 2450 153 
Q 2172 0 1784 0 
Q 1141 0 747 490 
Q 353 981 353 1791 
Q 353 2603 747 3093 
Q 1141 3584 1784 3584 
Q 2172 3584 2450 3431 
Q 2728 3278 2906 2969 
L 2906 3500 
L 3481 3500 
L 3481 434 
z
" transform="scale(0.015625)"/>
       <path id="DejaVuSans-65" d="M 3597 1894 
L 3597 1613 
L 953 1613 
Q 991 1019 1311 708 
Q 1631 397 2203 397 
Q 2534 397 2845 478 
Q 3156 559 3463 722 
L 3463 178 
Q 3153 47 2828 -22 
Q 2503 -91 2169 -91 
Q 1331 -91 842 396 
Q 353 884 353 1716 
Q 353 2575 817 3079 
Q 1281 3584 2069 3584 
Q 2775 3584 3186 3129 
Q 3597 2675 3597 1894 
z
M 3022 2063 
Q 3016 2534 2758 2815 
Q 2500 3097 2075 3097 
Q 1594 3097 1305 2825 
Q 1016 2553 972 2059 
L 3022 2063 
z
" transform="scale(0.015625)"/>
      </defs>
      <use xlink:href="#DejaVuSans-25"/>
      <use xlink:href="#DejaVuSans-20" x="95.019531"/>
      <use xlink:href="#DejaVuSans-63" x="126.806641"/>
      <use xlink:href="#DejaVuSans-68" x="181.787109"/>
      <use xlink:href="#DejaVuSans-61" x="245.166016"/>
      <use xlink:href="#DejaVuSans-6e" x="306.445312"/>
      <use xlink:href="#DejaVuSans-67" x="369.824219"/>
      <use xlink:href="#DejaVuSans-65" x="433.300781"/>
     </g>
    </g>
   </g>
   <g id="PolyCollection_1"/>
   <g id="PolyCollection_2"/>
   <g id="PolyCollection_3"/>
   <g id="PolyCollection_4"/>
   <g id="PolyCollection_5"/>
   <g id="PolyCollection_6"/>
   <g id="line2d_7">
    <path d="M 174.372828 98.583138 
L 174.741276 99.926815 
L 175.84662 99.985536 
L 180.267995 99.8668 
L 190.584538 99.019071 
L 196.848153 98.667426 
L 199.058841 98.911858 
L 199.427289 99.094177 
L 200.164185 100.058594 
L 205.322456 108.781485 
L 208.27004 113.063542 
L 210.849176 116.445689 
L 213.428311 119.428752 
L 215.638999 121.658609 
L 217.849687 123.583446 
L 220.060375 125.203075 
L 222.271062 126.517356 
L 224.113302 127.379518 
L 225.955542 128.029952 
L 227.797782 128.468736 
L 229.640021 128.696138 
L 231.482261 128.71213 
L 233.324501 128.516093 
L 235.166741 128.108526 
L 237.008981 127.489528 
L 238.85122 126.658182 
L 240.69346 125.613693 
L 242.904148 124.079405 
L 245.114836 122.236585 
L 247.325523 120.085339 
L 249.536211 117.631107 
L 252.115347 114.40416 
L 254.694482 110.81422 
L 257.642066 106.282748 
L 261.326546 100.120791 
L 263.537233 96.452242 
L 264.642577 94.955928 
L 265.747921 94.027884 
L 267.590161 93.001885 
L 269.063953 92.410448 
L 270.537745 92.446888 
L 278.6436 93.09157 
L 286.749455 93.536802 
L 305.171853 94.539949 
L 315.488395 95.260393 
L 319.541323 95.601138 
L 325.804938 95.783936 
L 343.121992 96.029662 
L 372.229381 96.178985 
L 439.286909 96.245729 
L 442.971388 96.246625 
L 442.971388 96.246625 
" clip-path="url(#pc041d5d538)" style="fill: none; stroke: #4c72b0; stroke-opacity: 0.9; stroke-width: 3; stroke-linecap: round"/>
   </g>
   <g id="line2d_8">
    <path d="M 174.372828 98.583138 
L 174.741276 99.315987 
L 176.583516 99.359433 
L 181.373339 99.238057 
L 194.637466 98.707216 
L 212.691415 98.211597 
L 234.429845 97.844248 
L 255.799826 97.687241 
L 323.225802 98.159386 
L 407.600385 98.316236 
L 442.971388 98.321537 
L 442.971388 98.321537 
" clip-path="url(#pc041d5d538)" style="fill: none; stroke: #dd8452; stroke-opacity: 0.9; stroke-width: 3; stroke-linecap: round"/>
   </g>
   <g id="line2d_9">
    <path d="M 174.372828 98.583138 
L 174.741276 99.991188 
L 175.478172 100.084272 
L 179.899547 100.032831 
L 189.479194 99.354656 
L 196.479705 99.042607 
L 198.690393 99.142216 
L 205.690904 99.883002 
L 208.638488 100.424069 
L 214.165207 101.41247 
L 218.955031 102.052832 
L 223.376406 102.430656 
L 228.16623 102.610039 
L 232.956053 102.570122 
L 238.114324 102.309365 
L 243.641044 101.81577 
L 258.378962 100.332726 
L 265.011025 100.101885 
L 294.486862 99.026935 
L 315.488395 98.206058 
L 325.804938 98.223566 
L 350.859399 98.638381 
L 381.809028 98.770331 
L 442.971388 98.792901 
L 442.971388 98.792901 
" clip-path="url(#pc041d5d538)" style="fill: none; stroke: #55a868; stroke-opacity: 0.9; stroke-width: 3; stroke-linecap: round"/>
   </g>
   <g id="line2d_10">
    <path d="M 174.372828 98.583138 
L 174.741276 99.689748 
L 175.84662 99.766794 
L 181.004891 99.655722 
L 192.426778 99.055831 
L 196.479705 98.990387 
L 199.058841 99.147469 
L 221.165718 100.937509 
L 227.060886 101.110521 
L 235.535189 101.090873 
L 254.694482 100.909603 
L 271.643089 100.448751 
L 291.907726 99.741849 
L 311.435468 99.069032 
L 345.33268 98.634251 
L 374.808516 98.833934 
L 423.812095 98.826622 
L 442.971388 98.787474 
L 442.971388 98.787474 
" clip-path="url(#pc041d5d538)" style="fill: none; stroke: #c44e52; stroke-opacity: 0.9; stroke-width: 3; stroke-linecap: round"/>
   </g>
   <g id="line2d_11">
    <path d="M 174.372828 98.583138 
L 174.741276 99.873148 
L 175.84662 99.936494 
L 180.636443 99.812403 
L 188.742298 99.128577 
L 200.901081 98.33957 
L 214.902103 97.661034 
L 231.113813 97.10241 
L 249.167763 96.703635 
L 257.273618 96.675006 
L 339.805961 98.070982 
L 379.966788 98.194194 
L 442.971388 98.229602 
L 442.971388 98.229602 
" clip-path="url(#pc041d5d538)" style="fill: none; stroke: #8172b3; stroke-opacity: 0.9; stroke-width: 3; stroke-linecap: round"/>
   </g>
   <g id="line2d_12">
    <path d="M 174.372828 98.583138 
L 174.741276 99.61826 
L 176.215068 99.660648 
L 181.004891 99.542127 
L 191.321434 98.917616 
L 205.690904 98.276632 
L 223.007958 97.736886 
L 243.272596 97.335691 
L 257.273618 97.236208 
L 330.96321 98.121087 
L 363.755078 98.234223 
L 442.971388 98.277868 
L 442.971388 98.277868 
" clip-path="url(#pc041d5d538)" style="fill: none; stroke: #937860; stroke-opacity: 0.9; stroke-width: 3; stroke-linecap: round"/>
   </g>
   <g id="patch_3">
    <path d="M 160.9429 201.042 
L 160.9429 81.456 
" style="fill: none; stroke: #ffffff; stroke-width: 1.25; stroke-linejoin: miter; stroke-linecap: square"/>
   </g>
   <g id="patch_4">
    <path d="M 160.9429 201.042 
L 456.401316 201.042 
" style="fill: none; stroke: #ffffff; stroke-width: 1.25; stroke-linejoin: miter; stroke-linecap: square"/>
   </g>
   <g id="text_4">
    <!-- 0.8~90 -->
    <g style="fill: #262626" transform="translate(262.042264 75.456) scale(0.252 -0.252)">
     <defs>
      <path id="DejaVuSans-2e" d="M 684 794 
L 1344 794 
L 1344 0 
L 684 0 
L 684 794 
z
" transform="scale(0.015625)"/>
      <path id="DejaVuSans-38" d="M 2034 2216 
Q 1584 2216 1326 1975 
Q 1069 1734 1069 1313 
Q 1069 891 1326 650 
Q 1584 409 2034 409 
Q 2484 409 2743 651 
Q 3003 894 3003 1313 
Q 3003 1734 2745 1975 
Q 2488 2216 2034 2216 
z
M 1403 2484 
Q 997 2584 770 2862 
Q 544 3141 544 3541 
Q 544 4100 942 4425 
Q 1341 4750 2034 4750 
Q 2731 4750 3128 4425 
Q 3525 4100 3525 3541 
Q 3525 3141 3298 2862 
Q 3072 2584 2669 2484 
Q 3125 2378 3379 2068 
Q 3634 1759 3634 1313 
Q 3634 634 3220 271 
Q 2806 -91 2034 -91 
Q 1263 -91 848 271 
Q 434 634 434 1313 
Q 434 1759 690 2068 
Q 947 2378 1403 2484 
z
M 1172 3481 
Q 1172 3119 1398 2916 
Q 1625 2713 2034 2713 
Q 2441 2713 2670 2916 
Q 2900 3119 2900 3481 
Q 2900 3844 2670 4047 
Q 2441 4250 2034 4250 
Q 1625 4250 1398 4047 
Q 1172 3844 1172 3481 
z
" transform="scale(0.015625)"/>
      <path id="DejaVuSans-7e" d="M 4684 2553 
L 4684 1997 
Q 4356 1750 4076 1644 
Q 3797 1538 3494 1538 
Q 3150 1538 2694 1722 
Q 2659 1734 2644 1741 
Q 2622 1750 2575 1766 
Q 2091 1959 1797 1959 
Q 1522 1959 1253 1839 
Q 984 1719 678 1459 
L 678 2016 
Q 1006 2263 1286 2370 
Q 1566 2478 1869 2478 
Q 2213 2478 2672 2291 
Q 2703 2278 2719 2272 
Q 2744 2263 2788 2247 
Q 3272 2053 3566 2053 
Q 3834 2053 4098 2172 
Q 4363 2291 4684 2553 
z
" transform="scale(0.015625)"/>
      <path id="DejaVuSans-39" d="M 703 97 
L 703 672 
Q 941 559 1184 500 
Q 1428 441 1663 441 
Q 2288 441 2617 861 
Q 2947 1281 2994 2138 
Q 2813 1869 2534 1725 
Q 2256 1581 1919 1581 
Q 1219 1581 811 2004 
Q 403 2428 403 3163 
Q 403 3881 828 4315 
Q 1253 4750 1959 4750 
Q 2769 4750 3195 4129 
Q 3622 3509 3622 2328 
Q 3622 1225 3098 567 
Q 2575 -91 1691 -91 
Q 1453 -91 1209 -44 
Q 966 3 703 97 
z
M 1959 2075 
Q 2384 2075 2632 2365 
Q 2881 2656 2881 3163 
Q 2881 3666 2632 3958 
Q 2384 4250 1959 4250 
Q 1534 4250 1286 3958 
Q 1038 3666 1038 3163 
Q 1038 2656 1286 2365 
Q 1534 2075 1959 2075 
z
" transform="scale(0.015625)"/>
     </defs>
     <use xlink:href="#DejaVuSans-30"/>
     <use xlink:href="#DejaVuSans-2e" x="63.623047"/>
     <use xlink:href="#DejaVuSans-38" x="95.410156"/>
     <use xlink:href="#DejaVuSans-7e" x="159.033203"/>
     <use xlink:href="#DejaVuSans-39" x="242.822266"/>
     <use xlink:href="#DejaVuSans-30" x="306.445312"/>
    </g>
   </g>
  </g>
  <g id="axes_2">
   <g id="patch_5">
    <path d="M 483.047028 201.042 
L 778.505445 201.042 
L 778.505445 81.456 
L 483.047028 81.456 
z
" style="fill: #eaeaf2"/>
   </g>
   <g id="matplotlib.axis_3">
    <g id="xtick_5">
     <g id="line2d_13">
      <path d="M 496.476956 201.042 
L 496.476956 81.456 
" clip-path="url(#p583355ff5a)" style="fill: none; stroke: #ffffff; stroke-linecap: round"/>
     </g>
    </g>
    <g id="xtick_6">
     <g id="line2d_14">
      <path d="M 588.588946 201.042 
L 588.588946 81.456 
" clip-path="url(#p583355ff5a)" style="fill: none; stroke: #ffffff; stroke-linecap: round"/>
     </g>
    </g>
    <g id="xtick_7">
     <g id="line2d_15">
      <path d="M 680.700935 201.042 
L 680.700935 81.456 
" clip-path="url(#p583355ff5a)" style="fill: none; stroke: #ffffff; stroke-linecap: round"/>
     </g>
    </g>
    <g id="xtick_8">
     <g id="line2d_16">
      <path d="M 772.812924 201.042 
L 772.812924 81.456 
" clip-path="url(#p583355ff5a)" style="fill: none; stroke: #ffffff; stroke-linecap: round"/>
     </g>
    </g>
   </g>
   <g id="matplotlib.axis_4">
    <g id="ytick_3">
     <g id="line2d_17">
      <path d="M 483.047028 164.942807 
L 778.505445 164.942807 
" clip-path="url(#p583355ff5a)" style="fill: none; stroke: #ffffff; stroke-linecap: round"/>
     </g>
    </g>
    <g id="ytick_4">
     <g id="line2d_18">
      <path d="M 483.047028 98.583138 
L 778.505445 98.583138 
" clip-path="url(#p583355ff5a)" style="fill: none; stroke: #ffffff; stroke-linecap: round"/>
     </g>
    </g>
   </g>
   <g id="PolyCollection_7"/>
   <g id="PolyCollection_8"/>
   <g id="PolyCollection_9"/>
   <g id="PolyCollection_10"/>
   <g id="PolyCollection_11"/>
   <g id="PolyCollection_12"/>
   <g id="line2d_19">
    <path d="M 496.476956 98.583138 
L 496.845404 99.926815 
L 497.950748 99.990533 
L 502.740572 99.901332 
L 517.47849 99.29231 
L 520.057626 99.301502 
L 520.426074 99.399205 
L 521.16297 100.391871 
L 526.321241 109.932789 
L 529.268825 114.692655 
L 531.84796 118.593326 
L 534.427096 122.158431 
L 537.006232 125.372104 
L 539.585367 128.23751 
L 542.164503 130.75762 
L 544.743639 132.936283 
L 546.954327 134.534892 
L 549.165014 135.888122 
L 551.375702 136.998566 
L 553.58639 137.869353 
L 555.797077 138.503302 
L 558.007765 138.902915 
L 560.218453 139.070697 
L 562.429141 139.0091 
L 564.639828 138.720592 
L 566.850516 138.207214 
L 569.061204 137.470412 
L 571.271892 136.511411 
L 573.482579 135.331886 
L 576.061715 133.677434 
L 578.640851 131.727595 
L 581.219986 129.488113 
L 583.799122 126.966265 
L 586.746706 123.759855 
L 590.062737 119.801414 
L 593.378769 115.493106 
L 597.063249 110.314344 
L 604.06376 100.133797 
L 605.537552 98.690742 
L 606.642896 97.891165 
L 608.116687 97.23315 
L 612.169615 95.772061 
L 615.485646 95.762463 
L 626.170637 95.892768 
L 663.383881 96.720223 
L 694.333509 97.177594 
L 705.755396 97.371715 
L 724.91469 97.536401 
L 760.654141 97.612205 
L 765.075517 97.61543 
L 765.075517 97.61543 
" clip-path="url(#p583355ff5a)" style="fill: none; stroke: #4c72b0; stroke-opacity: 0.9; stroke-width: 3; stroke-linecap: round"/>
   </g>
   <g id="line2d_20">
    <path d="M 496.476956 98.583138 
L 496.845404 99.315987 
L 498.687644 99.363494 
L 504.582811 99.259752 
L 524.110553 98.857589 
L 549.90191 98.554095 
L 587.115154 98.356546 
L 627.644429 98.343132 
L 723.440898 98.508263 
L 765.075517 98.517664 
L 765.075517 98.517664 
" clip-path="url(#p583355ff5a)" style="fill: none; stroke: #dd8452; stroke-opacity: 0.9; stroke-width: 3; stroke-linecap: round"/>
   </g>
   <g id="line2d_21">
    <path d="M 496.476956 98.583138 
L 496.845404 99.991188 
L 497.5823 100.087615 
L 502.372124 100.050558 
L 517.47849 99.508788 
L 520.057626 99.577102 
L 524.847449 100.047901 
L 527.058137 100.395806 
L 530.374168 101.144482 
L 536.269336 102.446862 
L 541.427607 103.373711 
L 545.848983 103.969476 
L 550.638806 104.384554 
L 555.42863 104.576605 
L 560.586901 104.558072 
L 566.482068 104.308193 
L 573.851027 103.765807 
L 582.32533 102.859602 
L 590.062737 102.029181 
L 597.063249 101.629202 
L 615.485646 100.940024 
L 633.908044 99.993769 
L 653.804234 98.953909 
L 662.278537 98.789354 
L 673.331976 98.744572 
L 731.178305 99.125218 
L 765.075517 99.142145 
L 765.075517 99.142145 
" clip-path="url(#p583355ff5a)" style="fill: none; stroke: #55a868; stroke-opacity: 0.9; stroke-width: 3; stroke-linecap: round"/>
   </g>
   <g id="line2d_22">
    <path d="M 496.476956 98.583138 
L 496.845404 99.689748 
L 497.950748 99.77093 
L 504.214364 99.678329 
L 517.846938 99.336446 
L 520.426074 99.475912 
L 526.689689 100.123174 
L 535.163992 101.117031 
L 542.901399 102.050669 
L 547.691222 102.418167 
L 552.849494 102.591215 
L 558.744661 102.557114 
L 570.166548 102.249396 
L 576.061715 102.138276 
L 590.062737 101.968944 
L 606.274448 101.541811 
L 622.486158 100.896088 
L 653.804234 99.550812 
L 692.122821 98.970047 
L 721.23021 99.12289 
L 765.075517 99.118007 
L 765.075517 99.118007 
" clip-path="url(#p583355ff5a)" style="fill: none; stroke: #c44e52; stroke-opacity: 0.9; stroke-width: 3; stroke-linecap: round"/>
   </g>
   <g id="line2d_23">
    <path d="M 496.476956 98.583138 
L 496.845404 99.873148 
L 497.950748 99.941493 
L 503.845916 99.829772 
L 518.215386 99.234142 
L 534.427096 98.777394 
L 555.797077 98.392506 
L 584.536018 98.112848 
L 618.43323 98.000469 
L 678.490247 98.337934 
L 751.074495 98.467967 
L 765.075517 98.477692 
L 765.075517 98.477692 
" clip-path="url(#p583355ff5a)" style="fill: none; stroke: #8172b3; stroke-opacity: 0.9; stroke-width: 3; stroke-linecap: round"/>
   </g>
   <g id="line2d_24">
    <path d="M 496.476956 98.583138 
L 496.845404 99.61826 
L 498.319196 99.665784 
L 504.582811 99.549591 
L 521.16297 99.037957 
L 541.796055 98.641495 
L 569.061204 98.351197 
L 608.485135 98.171966 
L 630.592013 98.23254 
L 692.859717 98.4294 
L 765.075517 98.491686 
L 765.075517 98.491686 
" clip-path="url(#p583355ff5a)" style="fill: none; stroke: #937860; stroke-opacity: 0.9; stroke-width: 3; stroke-linecap: round"/>
   </g>
   <g id="patch_6">
    <path d="M 483.047028 201.042 
L 483.047028 81.456 
" style="fill: none; stroke: #ffffff; stroke-width: 1.25; stroke-linejoin: miter; stroke-linecap: square"/>
   </g>
   <g id="patch_7">
    <path d="M 483.047028 201.042 
L 778.505445 201.042 
" style="fill: none; stroke: #ffffff; stroke-width: 1.25; stroke-linejoin: miter; stroke-linecap: square"/>
   </g>
   <g id="text_5">
    <!-- 0.8~365 -->
    <g style="fill: #262626" transform="translate(576.129643 75.456) scale(0.252 -0.252)">
     <defs>
      <path id="DejaVuSans-33" d="M 2597 2516 
Q 3050 2419 3304 2112 
Q 3559 1806 3559 1356 
Q 3559 666 3084 287 
Q 2609 -91 1734 -91 
Q 1441 -91 1130 -33 
Q 819 25 488 141 
L 488 750 
Q 750 597 1062 519 
Q 1375 441 1716 441 
Q 2309 441 2620 675 
Q 2931 909 2931 1356 
Q 2931 1769 2642 2001 
Q 2353 2234 1838 2234 
L 1294 2234 
L 1294 2753 
L 1863 2753 
Q 2328 2753 2575 2939 
Q 2822 3125 2822 3475 
Q 2822 3834 2567 4026 
Q 2313 4219 1838 4219 
Q 1578 4219 1281 4162 
Q 984 4106 628 3988 
L 628 4550 
Q 988 4650 1302 4700 
Q 1616 4750 1894 4750 
Q 2613 4750 3031 4423 
Q 3450 4097 3450 3541 
Q 3450 3153 3228 2886 
Q 3006 2619 2597 2516 
z
" transform="scale(0.015625)"/>
      <path id="DejaVuSans-36" d="M 2113 2584 
Q 1688 2584 1439 2293 
Q 1191 2003 1191 1497 
Q 1191 994 1439 701 
Q 1688 409 2113 409 
Q 2538 409 2786 701 
Q 3034 994 3034 1497 
Q 3034 2003 2786 2293 
Q 2538 2584 2113 2584 
z
M 3366 4563 
L 3366 3988 
Q 3128 4100 2886 4159 
Q 2644 4219 2406 4219 
Q 1781 4219 1451 3797 
Q 1122 3375 1075 2522 
Q 1259 2794 1537 2939 
Q 1816 3084 2150 3084 
Q 2853 3084 3261 2657 
Q 3669 2231 3669 1497 
Q 3669 778 3244 343 
Q 2819 -91 2113 -91 
Q 1303 -91 875 529 
Q 447 1150 447 2328 
Q 447 3434 972 4092 
Q 1497 4750 2381 4750 
Q 2619 4750 2861 4703 
Q 3103 4656 3366 4563 
z
" transform="scale(0.015625)"/>
     </defs>
     <use xlink:href="#DejaVuSans-30"/>
     <use xlink:href="#DejaVuSans-2e" x="63.623047"/>
     <use xlink:href="#DejaVuSans-38" x="95.410156"/>
     <use xlink:href="#DejaVuSans-7e" x="159.033203"/>
     <use xlink:href="#DejaVuSans-33" x="242.822266"/>
     <use xlink:href="#DejaVuSans-36" x="306.445312"/>
     <use xlink:href="#DejaVuSans-35" x="370.068359"/>
    </g>
   </g>
  </g>
  <g id="axes_3">
   <g id="patch_8">
    <path d="M 805.151157 201.042 
L 1100.609573 201.042 
L 1100.609573 81.456 
L 805.151157 81.456 
z
" style="fill: #eaeaf2"/>
   </g>
   <g id="matplotlib.axis_5">
    <g id="xtick_9">
     <g id="line2d_25">
      <path d="M 818.581085 201.042 
L 818.581085 81.456 
" clip-path="url(#p657d7aa652)" style="fill: none; stroke: #ffffff; stroke-linecap: round"/>
     </g>
    </g>
    <g id="xtick_10">
     <g id="line2d_26">
      <path d="M 910.693074 201.042 
L 910.693074 81.456 
" clip-path="url(#p657d7aa652)" style="fill: none; stroke: #ffffff; stroke-linecap: round"/>
     </g>
    </g>
    <g id="xtick_11">
     <g id="line2d_27">
      <path d="M 1002.805063 201.042 
L 1002.805063 81.456 
" clip-path="url(#p657d7aa652)" style="fill: none; stroke: #ffffff; stroke-linecap: round"/>
     </g>
    </g>
    <g id="xtick_12">
     <g id="line2d_28">
      <path d="M 1094.917053 201.042 
L 1094.917053 81.456 
" clip-path="url(#p657d7aa652)" style="fill: none; stroke: #ffffff; stroke-linecap: round"/>
     </g>
    </g>
   </g>
   <g id="matplotlib.axis_6">
    <g id="ytick_5">
     <g id="line2d_29">
      <path d="M 805.151157 164.942807 
L 1100.609573 164.942807 
" clip-path="url(#p657d7aa652)" style="fill: none; stroke: #ffffff; stroke-linecap: round"/>
     </g>
    </g>
    <g id="ytick_6">
     <g id="line2d_30">
      <path d="M 805.151157 98.583138 
L 1100.609573 98.583138 
" clip-path="url(#p657d7aa652)" style="fill: none; stroke: #ffffff; stroke-linecap: round"/>
     </g>
    </g>
   </g>
   <g id="PolyCollection_13"/>
   <g id="PolyCollection_14"/>
   <g id="PolyCollection_15"/>
   <g id="PolyCollection_16"/>
   <g id="PolyCollection_17"/>
   <g id="PolyCollection_18"/>
   <g id="line2d_31">
    <path d="M 818.581085 98.583138 
L 818.949533 99.926815 
L 820.054877 99.985536 
L 824.476252 99.8668 
L 834.792795 99.019071 
L 835.529691 99.039023 
L 837.003483 99.27732 
L 837.371931 99.798076 
L 838.845723 103.212228 
L 842.161754 110.692465 
L 845.109338 116.941631 
L 848.056921 122.608889 
L 851.004505 127.733863 
L 853.583641 131.782505 
L 856.162777 135.426989 
L 858.741912 138.672403 
L 861.321048 141.52396 
L 863.531736 143.658131 
L 865.742423 145.509508 
L 867.953111 147.081292 
L 870.163799 148.377081 
L 872.374487 149.400583 
L 874.585174 150.154327 
L 876.795862 150.640025 
L 879.00655 150.859491 
L 881.217238 150.8151 
L 883.427925 150.510692 
L 885.638613 149.952145 
L 887.849301 149.14073 
L 890.059989 148.078019 
L 892.270676 146.76271 
L 894.481364 145.194906 
L 896.692052 143.379004 
L 899.271187 140.953164 
L 901.850323 138.202503 
L 904.429459 135.133758 
L 907.377043 131.249318 
L 910.324626 127.000535 
L 913.640658 121.81336 
L 917.325137 115.587766 
L 921.009617 108.900601 
L 924.694096 101.764478 
L 928.747024 93.859478 
L 930.589264 90.986181 
L 931.32616 90.290559 
L 932.799952 89.404521 
L 935.747535 88.203393 
L 936.852879 87.884253 
L 939.432015 88.165141 
L 946.800974 88.8829 
L 956.749069 89.932238 
L 961.538892 90.731683 
L 967.065612 91.365553 
L 968.907851 91.635067 
L 974.803019 92.75259 
L 977.382154 92.955702 
L 984.382665 93.221031 
L 999.120584 93.53458 
L 1019.753669 93.715223 
L 1060.651393 93.814519 
L 1087.179645 93.830002 
L 1087.179645 93.830002 
" clip-path="url(#p657d7aa652)" style="fill: none; stroke: #4c72b0; stroke-opacity: 0.9; stroke-width: 3; stroke-linecap: round"/>
   </g>
   <g id="line2d_32">
    <path d="M 818.581085 98.583138 
L 818.949533 99.315987 
L 820.791773 99.359433 
L 825.581596 99.238057 
L 838.845723 98.707216 
L 846.951578 98.539184 
L 852.109849 98.64637 
L 856.531225 99.337474 
L 859.11036 99.587433 
L 861.321048 99.606628 
L 863.531736 99.420321 
L 866.479319 98.937243 
L 871.269143 98.045074 
L 877.16431 97.779023 
L 898.165844 97.615482 
L 959.696652 98.11885 
L 1024.543493 98.289825 
L 1087.179645 98.306014 
L 1087.179645 98.306014 
" clip-path="url(#p657d7aa652)" style="fill: none; stroke: #dd8452; stroke-opacity: 0.9; stroke-width: 3; stroke-linecap: round"/>
   </g>
   <g id="line2d_33">
    <path d="M 818.581085 98.583138 
L 818.949533 99.991188 
L 819.686429 100.084272 
L 824.107804 100.032831 
L 833.319003 99.378609 
L 837.003483 99.269293 
L 839.582618 99.510053 
L 841.05641 99.832326 
L 843.635546 100.699448 
L 849.530713 102.805891 
L 853.952089 104.103004 
L 858.373464 105.175644 
L 862.426392 105.959636 
L 866.847767 106.580385 
L 871.269143 106.970661 
L 875.690518 107.140134 
L 880.111894 107.094286 
L 884.901717 106.825961 
L 890.428437 106.271261 
L 895.955156 105.475455 
L 901.481875 104.457762 
L 923.220305 100.110464 
L 926.167888 99.856744 
L 933.1684 99.6029 
L 943.116494 99.489483 
L 951.222349 99.311246 
L 963.381132 98.794805 
L 978.855946 98.074252 
L 985.856457 98.02889 
L 998.383688 98.273928 
L 1016.06919 98.431758 
L 1056.230017 98.521885 
L 1087.179645 98.524415 
L 1087.179645 98.524415 
" clip-path="url(#p657d7aa652)" style="fill: none; stroke: #55a868; stroke-opacity: 0.9; stroke-width: 3; stroke-linecap: round"/>
   </g>
   <g id="line2d_34">
    <path d="M 818.581085 98.583138 
L 818.949533 99.689748 
L 820.054877 99.766794 
L 825.213148 99.655722 
L 835.161243 99.140244 
L 837.740379 99.217421 
L 841.05641 99.574906 
L 843.267098 99.966624 
L 845.477786 100.605696 
L 853.583641 103.238667 
L 857.636568 104.272717 
L 861.689496 105.071131 
L 865.742423 105.624791 
L 869.795351 105.946359 
L 873.848278 106.042341 
L 878.269654 105.908142 
L 882.691029 105.548447 
L 887.849301 104.892799 
L 893.744468 103.876971 
L 908.113938 101.255107 
L 912.166866 100.852464 
L 916.956689 100.648814 
L 954.169933 99.792718 
L 976.645258 98.894663 
L 995.436104 98.53253 
L 1003.910407 98.407493 
L 1021.227461 98.577546 
L 1051.440194 98.631225 
L 1087.179645 98.596802 
L 1087.179645 98.596802 
" clip-path="url(#p657d7aa652)" style="fill: none; stroke: #c44e52; stroke-opacity: 0.9; stroke-width: 3; stroke-linecap: round"/>
   </g>
   <g id="line2d_35">
    <path d="M 818.581085 98.583138 
L 818.949533 99.873148 
L 820.054877 99.936494 
L 824.8447 99.812403 
L 832.950555 99.128577 
L 845.109338 98.33957 
L 859.11036 97.661034 
L 875.32207 97.10241 
L 893.37602 96.703635 
L 901.481875 96.675006 
L 984.014218 98.070982 
L 1024.175045 98.194194 
L 1087.179645 98.229602 
L 1087.179645 98.229602 
" clip-path="url(#p657d7aa652)" style="fill: none; stroke: #8172b3; stroke-opacity: 0.9; stroke-width: 3; stroke-linecap: round"/>
   </g>
   <g id="line2d_36">
    <path d="M 818.581085 98.583138 
L 818.949533 99.61826 
L 820.423325 99.660648 
L 825.213148 99.542127 
L 835.529691 98.917616 
L 849.899161 98.276632 
L 867.216215 97.736886 
L 887.480853 97.335691 
L 901.481875 97.236208 
L 975.171467 98.121087 
L 1007.963335 98.234223 
L 1087.179645 98.277868 
L 1087.179645 98.277868 
" clip-path="url(#p657d7aa652)" style="fill: none; stroke: #937860; stroke-opacity: 0.9; stroke-width: 3; stroke-linecap: round"/>
   </g>
   <g id="patch_9">
    <path d="M 805.151157 201.042 
L 805.151157 81.456 
" style="fill: none; stroke: #ffffff; stroke-width: 1.25; stroke-linejoin: miter; stroke-linecap: square"/>
   </g>
   <g id="patch_10">
    <path d="M 805.151157 201.042 
L 1100.609573 201.042 
" style="fill: none; stroke: #ffffff; stroke-width: 1.25; stroke-linejoin: miter; stroke-linecap: square"/>
   </g>
   <g id="text_6">
    <!-- 0.85~90 -->
    <g style="fill: #262626" transform="translate(898.233771 75.456) scale(0.252 -0.252)">
     <use xlink:href="#DejaVuSans-30"/>
     <use xlink:href="#DejaVuSans-2e" x="63.623047"/>
     <use xlink:href="#DejaVuSans-38" x="95.410156"/>
     <use xlink:href="#DejaVuSans-35" x="159.033203"/>
     <use xlink:href="#DejaVuSans-7e" x="222.65625"/>
     <use xlink:href="#DejaVuSans-39" x="306.445312"/>
     <use xlink:href="#DejaVuSans-30" x="370.068359"/>
    </g>
   </g>
  </g>
  <g id="axes_4">
   <g id="patch_11">
    <path d="M 160.9429 373.284 
L 456.401316 373.284 
L 456.401316 253.698 
L 160.9429 253.698 
z
" style="fill: #eaeaf2"/>
   </g>
   <g id="matplotlib.axis_7">
    <g id="xtick_13">
     <g id="line2d_37">
      <path d="M 174.372828 373.284 
L 174.372828 253.698 
" clip-path="url(#pb101f4e697)" style="fill: none; stroke: #ffffff; stroke-linecap: round"/>
     </g>
     <g id="text_7">
      <!-- 0 -->
      <g style="fill: #262626" transform="translate(167.02414 400.336391) scale(0.231 -0.231)">
       <use xlink:href="#DejaVuSans-30"/>
      </g>
     </g>
    </g>
    <g id="xtick_14">
     <g id="line2d_38">
      <path d="M 266.484817 373.284 
L 266.484817 253.698 
" clip-path="url(#pb101f4e697)" style="fill: none; stroke: #ffffff; stroke-linecap: round"/>
     </g>
     <g id="text_8">
      <!-- 250 -->
      <g style="fill: #262626" transform="translate(244.438755 400.336391) scale(0.231 -0.231)">
       <use xlink:href="#DejaVuSans-32"/>
       <use xlink:href="#DejaVuSans-35" x="63.623047"/>
       <use xlink:href="#DejaVuSans-30" x="127.246094"/>
      </g>
     </g>
    </g>
    <g id="xtick_15">
     <g id="line2d_39">
      <path d="M 358.596806 373.284 
L 358.596806 253.698 
" clip-path="url(#pb101f4e697)" style="fill: none; stroke: #ffffff; stroke-linecap: round"/>
     </g>
     <g id="text_9">
      <!-- 500 -->
      <g style="fill: #262626" transform="translate(336.550744 400.336391) scale(0.231 -0.231)">
       <use xlink:href="#DejaVuSans-35"/>
       <use xlink:href="#DejaVuSans-30" x="63.623047"/>
       <use xlink:href="#DejaVuSans-30" x="127.246094"/>
      </g>
     </g>
    </g>
    <g id="xtick_16">
     <g id="line2d_40">
      <path d="M 450.708795 373.284 
L 450.708795 253.698 
" clip-path="url(#pb101f4e697)" style="fill: none; stroke: #ffffff; stroke-linecap: round"/>
     </g>
     <g id="text_10">
      <!-- 750 -->
      <g style="fill: #262626" transform="translate(428.662733 400.336391) scale(0.231 -0.231)">
       <defs>
        <path id="DejaVuSans-37" d="M 525 4666 
L 3525 4666 
L 3525 4397 
L 1831 0 
L 1172 0 
L 2766 4134 
L 525 4134 
L 525 4666 
z
" transform="scale(0.015625)"/>
       </defs>
       <use xlink:href="#DejaVuSans-37"/>
       <use xlink:href="#DejaVuSans-35" x="63.623047"/>
       <use xlink:href="#DejaVuSans-30" x="127.246094"/>
      </g>
     </g>
    </g>
    <g id="text_11">
     <!-- step -->
     <g style="fill: #262626" transform="translate(281.416733 428.288531) scale(0.252 -0.252)">
      <defs>
       <path id="DejaVuSans-73" d="M 2834 3397 
L 2834 2853 
Q 2591 2978 2328 3040 
Q 2066 3103 1784 3103 
Q 1356 3103 1142 2972 
Q 928 2841 928 2578 
Q 928 2378 1081 2264 
Q 1234 2150 1697 2047 
L 1894 2003 
Q 2506 1872 2764 1633 
Q 3022 1394 3022 966 
Q 3022 478 2636 193 
Q 2250 -91 1575 -91 
Q 1294 -91 989 -36 
Q 684 19 347 128 
L 347 722 
Q 666 556 975 473 
Q 1284 391 1588 391 
Q 1994 391 2212 530 
Q 2431 669 2431 922 
Q 2431 1156 2273 1281 
Q 2116 1406 1581 1522 
L 1381 1569 
Q 847 1681 609 1914 
Q 372 2147 372 2553 
Q 372 3047 722 3315 
Q 1072 3584 1716 3584 
Q 2034 3584 2315 3537 
Q 2597 3491 2834 3397 
z
" transform="scale(0.015625)"/>
       <path id="DejaVuSans-74" d="M 1172 4494 
L 1172 3500 
L 2356 3500 
L 2356 3053 
L 1172 3053 
L 1172 1153 
Q 1172 725 1289 603 
Q 1406 481 1766 481 
L 2356 481 
L 2356 0 
L 1766 0 
Q 1100 0 847 248 
Q 594 497 594 1153 
L 594 3053 
L 172 3053 
L 172 3500 
L 594 3500 
L 594 4494 
L 1172 4494 
z
" transform="scale(0.015625)"/>
       <path id="DejaVuSans-70" d="M 1159 525 
L 1159 -1331 
L 581 -1331 
L 581 3500 
L 1159 3500 
L 1159 2969 
Q 1341 3281 1617 3432 
Q 1894 3584 2278 3584 
Q 2916 3584 3314 3078 
Q 3713 2572 3713 1747 
Q 3713 922 3314 415 
Q 2916 -91 2278 -91 
Q 1894 -91 1617 61 
Q 1341 213 1159 525 
z
M 3116 1747 
Q 3116 2381 2855 2742 
Q 2594 3103 2138 3103 
Q 1681 3103 1420 2742 
Q 1159 2381 1159 1747 
Q 1159 1113 1420 752 
Q 1681 391 2138 391 
Q 2594 391 2855 752 
Q 3116 1113 3116 1747 
z
" transform="scale(0.015625)"/>
      </defs>
      <use xlink:href="#DejaVuSans-73"/>
      <use xlink:href="#DejaVuSans-74" x="52.099609"/>
      <use xlink:href="#DejaVuSans-65" x="91.308594"/>
      <use xlink:href="#DejaVuSans-70" x="152.832031"/>
     </g>
    </g>
   </g>
   <g id="matplotlib.axis_8">
    <g id="ytick_7">
     <g id="line2d_41">
      <path d="M 160.9429 337.184807 
L 456.401316 337.184807 
" clip-path="url(#pb101f4e697)" style="fill: none; stroke: #ffffff; stroke-linecap: round"/>
     </g>
     <g id="text_12">
      <!-- −25 -->
      <g style="fill: #262626" transform="translate(102.691072 345.961002) scale(0.231 -0.231)">
       <use xlink:href="#DejaVuSans-2212"/>
       <use xlink:href="#DejaVuSans-32" x="83.789062"/>
       <use xlink:href="#DejaVuSans-35" x="147.412109"/>
      </g>
     </g>
    </g>
    <g id="ytick_8">
     <g id="line2d_42">
      <path d="M 160.9429 270.825138 
L 456.401316 270.825138 
" clip-path="url(#pb101f4e697)" style="fill: none; stroke: #ffffff; stroke-linecap: round"/>
     </g>
     <g id="text_13">
      <!-- 0 -->
      <g style="fill: #262626" transform="translate(136.745525 279.601333) scale(0.231 -0.231)">
       <use xlink:href="#DejaVuSans-30"/>
      </g>
     </g>
    </g>
    <g id="text_14">
     <!-- % change -->
     <g style="fill: #262626" transform="translate(93.450259 375.839344) rotate(-90) scale(0.252 -0.252)">
      <use xlink:href="#DejaVuSans-25"/>
      <use xlink:href="#DejaVuSans-20" x="95.019531"/>
      <use xlink:href="#DejaVuSans-63" x="126.806641"/>
      <use xlink:href="#DejaVuSans-68" x="181.787109"/>
      <use xlink:href="#DejaVuSans-61" x="245.166016"/>
      <use xlink:href="#DejaVuSans-6e" x="306.445312"/>
      <use xlink:href="#DejaVuSans-67" x="369.824219"/>
      <use xlink:href="#DejaVuSans-65" x="433.300781"/>
     </g>
    </g>
   </g>
   <g id="PolyCollection_19"/>
   <g id="PolyCollection_20"/>
   <g id="PolyCollection_21"/>
   <g id="PolyCollection_22"/>
   <g id="PolyCollection_23"/>
   <g id="PolyCollection_24"/>
   <g id="line2d_43">
    <path d="M 174.372828 270.825138 
L 174.741276 272.168815 
L 175.84662 272.232533 
L 180.636443 272.143332 
L 191.689882 271.668493 
L 192.426778 271.771373 
L 192.795226 272.311752 
L 193.532122 273.975977 
L 196.111257 280.105366 
L 200.532633 289.891786 
L 203.480217 295.832613 
L 206.4278 301.282606 
L 209.375384 306.260399 
L 212.322967 310.775027 
L 214.902103 314.354244 
L 217.481239 317.595271 
L 220.060375 320.505328 
L 222.63951 323.091766 
L 225.218646 325.361517 
L 227.797782 327.321816 
L 230.376917 328.980786 
L 232.956053 330.345553 
L 235.535189 331.423353 
L 237.745876 332.124256 
L 239.956564 332.622896 
L 242.167252 332.922521 
L 244.37794 333.02544 
L 246.588627 332.934927 
L 249.167763 332.588698 
L 251.746899 331.986468 
L 254.326035 331.134492 
L 256.90517 330.034188 
L 259.484306 328.691038 
L 262.063442 327.113662 
L 265.011025 325.035297 
L 267.958609 322.674549 
L 270.906193 320.043302 
L 274.222224 316.777395 
L 277.906704 312.811725 
L 281.959631 308.088598 
L 286.381007 302.561792 
L 290.802382 296.66514 
L 295.592206 289.883404 
L 300.382029 282.713138 
L 308.119436 270.910861 
L 309.22478 269.814915 
L 310.698572 268.736118 
L 311.803916 268.209884 
L 317.699083 266.011825 
L 318.435979 265.913981 
L 323.225802 266.096778 
L 341.6482 266.981781 
L 362.281286 267.449436 
L 367.808005 267.646813 
L 375.91386 267.956463 
L 410.916416 268.8076 
L 434.865533 268.926252 
L 442.971388 268.94311 
L 442.971388 268.94311 
" clip-path="url(#pb101f4e697)" style="fill: none; stroke: #4c72b0; stroke-opacity: 0.9; stroke-width: 3; stroke-linecap: round"/>
   </g>
   <g id="line2d_44">
    <path d="M 174.372828 270.825138 
L 174.741276 271.557987 
L 176.583516 271.605494 
L 182.478683 271.501752 
L 201.637977 271.105544 
L 203.480217 271.262875 
L 205.322456 272.126618 
L 209.743832 274.694641 
L 211.95452 275.611581 
L 214.165207 276.288837 
L 216.375895 276.747516 
L 218.955031 277.039777 
L 221.534166 277.101479 
L 224.113302 276.928846 
L 226.692438 276.530343 
L 229.640021 275.847338 
L 232.956053 274.850285 
L 236.272085 273.630516 
L 242.167252 271.364701 
L 244.009492 270.864632 
L 245.851732 270.535433 
L 247.693971 270.49535 
L 283.433423 270.382667 
L 313.646156 270.458113 
L 402.810561 270.665359 
L 442.971388 270.682823 
L 442.971388 270.682823 
" clip-path="url(#pb101f4e697)" style="fill: none; stroke: #dd8452; stroke-opacity: 0.9; stroke-width: 3; stroke-linecap: round"/>
   </g>
   <g id="line2d_45">
    <path d="M 174.372828 270.825138 
L 174.741276 272.233188 
L 175.478172 272.329615 
L 180.267995 272.292558 
L 192.426778 271.875275 
L 194.637466 272.039787 
L 196.111257 272.289787 
L 197.953497 272.861947 
L 201.269529 274.154006 
L 205.690904 275.787464 
L 210.480728 277.312586 
L 215.270551 278.590451 
L 219.691927 279.556664 
L 224.48175 280.364186 
L 229.271573 280.942562 
L 234.061397 281.304991 
L 239.219668 281.474727 
L 244.37794 281.426072 
L 249.536211 281.16489 
L 255.799826 280.611706 
L 262.063442 279.851831 
L 269.063953 278.766757 
L 277.538256 277.21315 
L 290.433934 274.920237 
L 294.85531 274.254581 
L 299.276685 273.794748 
L 308.119436 273.29415 
L 344.227336 271.571447 
L 356.017671 271.077588 
L 365.597317 270.892897 
L 375.545412 270.956308 
L 399.862977 271.219471 
L 435.233981 271.291121 
L 442.971388 271.293251 
L 442.971388 271.293251 
" clip-path="url(#pb101f4e697)" style="fill: none; stroke: #55a868; stroke-opacity: 0.9; stroke-width: 3; stroke-linecap: round"/>
   </g>
   <g id="line2d_46">
    <path d="M 174.372828 270.825138 
L 174.741276 271.931748 
L 175.84662 272.01293 
L 182.110235 271.920329 
L 192.426778 271.680453 
L 196.111257 272.021335 
L 197.953497 272.31003 
L 200.164185 272.935894 
L 211.586072 276.886455 
L 215.638999 277.958835 
L 219.691927 278.812491 
L 224.113302 279.513292 
L 228.534678 279.982941 
L 232.956053 280.234995 
L 237.745876 280.277059 
L 242.5357 280.091193 
L 248.062419 279.630278 
L 253.589139 278.943536 
L 260.221202 277.938771 
L 279.380496 274.847965 
L 284.538767 274.415671 
L 293.01307 274.067275 
L 313.277708 273.301794 
L 356.017671 271.630628 
L 389.546435 271.16157 
L 422.706751 271.30344 
L 442.971388 271.301143 
L 442.971388 271.301143 
" clip-path="url(#pb101f4e697)" style="fill: none; stroke: #c44e52; stroke-opacity: 0.9; stroke-width: 3; stroke-linecap: round"/>
   </g>
   <g id="line2d_47">
    <path d="M 174.372828 270.825138 
L 174.741276 272.115148 
L 175.84662 272.183493 
L 181.741787 272.071772 
L 196.111257 271.476142 
L 212.322967 271.019394 
L 233.692949 270.634506 
L 262.43189 270.354848 
L 296.329102 270.242469 
L 356.386119 270.579934 
L 428.970366 270.709967 
L 442.971388 270.719692 
L 442.971388 270.719692 
" clip-path="url(#pb101f4e697)" style="fill: none; stroke: #8172b3; stroke-opacity: 0.9; stroke-width: 3; stroke-linecap: round"/>
   </g>
   <g id="line2d_48">
    <path d="M 174.372828 270.825138 
L 174.741276 271.86026 
L 176.215068 271.907784 
L 182.478683 271.791591 
L 199.058841 271.279957 
L 219.691927 270.883495 
L 246.957075 270.593197 
L 286.381007 270.413966 
L 308.487884 270.47454 
L 370.755589 270.6714 
L 442.971388 270.733686 
L 442.971388 270.733686 
" clip-path="url(#pb101f4e697)" style="fill: none; stroke: #937860; stroke-opacity: 0.9; stroke-width: 3; stroke-linecap: round"/>
   </g>
   <g id="patch_12">
    <path d="M 160.9429 373.284 
L 160.9429 253.698 
" style="fill: none; stroke: #ffffff; stroke-width: 1.25; stroke-linejoin: miter; stroke-linecap: square"/>
   </g>
   <g id="patch_13">
    <path d="M 160.9429 373.284 
L 456.401316 373.284 
" style="fill: none; stroke: #ffffff; stroke-width: 1.25; stroke-linejoin: miter; stroke-linecap: square"/>
   </g>
   <g id="text_15">
    <!-- 0.85~365 -->
    <g style="fill: #262626" transform="translate(246.008764 247.698) scale(0.252 -0.252)">
     <use xlink:href="#DejaVuSans-30"/>
     <use xlink:href="#DejaVuSans-2e" x="63.623047"/>
     <use xlink:href="#DejaVuSans-38" x="95.410156"/>
     <use xlink:href="#DejaVuSans-35" x="159.033203"/>
     <use xlink:href="#DejaVuSans-7e" x="222.65625"/>
     <use xlink:href="#DejaVuSans-33" x="306.445312"/>
     <use xlink:href="#DejaVuSans-36" x="370.068359"/>
     <use xlink:href="#DejaVuSans-35" x="433.691406"/>
    </g>
   </g>
  </g>
  <g id="axes_5">
   <g id="patch_14">
    <path d="M 483.047028 373.284 
L 778.505445 373.284 
L 778.505445 253.698 
L 483.047028 253.698 
z
" style="fill: #eaeaf2"/>
   </g>
   <g id="matplotlib.axis_9">
    <g id="xtick_17">
     <g id="line2d_49">
      <path d="M 496.476956 373.284 
L 496.476956 253.698 
" clip-path="url(#p1a60429210)" style="fill: none; stroke: #ffffff; stroke-linecap: round"/>
     </g>
     <g id="text_16">
      <!-- 0 -->
      <g style="fill: #262626" transform="translate(489.128269 400.336391) scale(0.231 -0.231)">
       <use xlink:href="#DejaVuSans-30"/>
      </g>
     </g>
    </g>
    <g id="xtick_18">
     <g id="line2d_50">
      <path d="M 588.588946 373.284 
L 588.588946 253.698 
" clip-path="url(#p1a60429210)" style="fill: none; stroke: #ffffff; stroke-linecap: round"/>
     </g>
     <g id="text_17">
      <!-- 250 -->
      <g style="fill: #262626" transform="translate(566.542883 400.336391) scale(0.231 -0.231)">
       <use xlink:href="#DejaVuSans-32"/>
       <use xlink:href="#DejaVuSans-35" x="63.623047"/>
       <use xlink:href="#DejaVuSans-30" x="127.246094"/>
      </g>
     </g>
    </g>
    <g id="xtick_19">
     <g id="line2d_51">
      <path d="M 680.700935 373.284 
L 680.700935 253.698 
" clip-path="url(#p1a60429210)" style="fill: none; stroke: #ffffff; stroke-linecap: round"/>
     </g>
     <g id="text_18">
      <!-- 500 -->
      <g style="fill: #262626" transform="translate(658.654872 400.336391) scale(0.231 -0.231)">
       <use xlink:href="#DejaVuSans-35"/>
       <use xlink:href="#DejaVuSans-30" x="63.623047"/>
       <use xlink:href="#DejaVuSans-30" x="127.246094"/>
      </g>
     </g>
    </g>
    <g id="xtick_20">
     <g id="line2d_52">
      <path d="M 772.812924 373.284 
L 772.812924 253.698 
" clip-path="url(#p1a60429210)" style="fill: none; stroke: #ffffff; stroke-linecap: round"/>
     </g>
     <g id="text_19">
      <!-- 750 -->
      <g style="fill: #262626" transform="translate(750.766861 400.336391) scale(0.231 -0.231)">
       <use xlink:href="#DejaVuSans-37"/>
       <use xlink:href="#DejaVuSans-35" x="63.623047"/>
       <use xlink:href="#DejaVuSans-30" x="127.246094"/>
      </g>
     </g>
    </g>
    <g id="text_20">
     <!-- step -->
     <g style="fill: #262626" transform="translate(603.520862 428.288531) scale(0.252 -0.252)">
      <use xlink:href="#DejaVuSans-73"/>
      <use xlink:href="#DejaVuSans-74" x="52.099609"/>
      <use xlink:href="#DejaVuSans-65" x="91.308594"/>
      <use xlink:href="#DejaVuSans-70" x="152.832031"/>
     </g>
    </g>
   </g>
   <g id="matplotlib.axis_10">
    <g id="ytick_9">
     <g id="line2d_53">
      <path d="M 483.047028 337.184807 
L 778.505445 337.184807 
" clip-path="url(#p1a60429210)" style="fill: none; stroke: #ffffff; stroke-linecap: round"/>
     </g>
    </g>
    <g id="ytick_10">
     <g id="line2d_54">
      <path d="M 483.047028 270.825138 
L 778.505445 270.825138 
" clip-path="url(#p1a60429210)" style="fill: none; stroke: #ffffff; stroke-linecap: round"/>
     </g>
    </g>
   </g>
   <g id="PolyCollection_25"/>
   <g id="PolyCollection_26"/>
   <g id="PolyCollection_27"/>
   <g id="PolyCollection_28"/>
   <g id="PolyCollection_29"/>
   <g id="PolyCollection_30"/>
   <g id="line2d_55">
    <path d="M 496.476956 270.825138 
L 496.845404 272.168815 
L 497.950748 272.227536 
L 502.372124 272.1088 
L 505.319707 271.919021 
L 505.688155 272.027958 
L 506.056603 272.839302 
L 513.79401 295.482744 
L 516.741594 303.034309 
L 519.689178 310.024977 
L 522.636761 316.470188 
L 525.584345 322.38656 
L 528.531929 327.790115 
L 531.479512 332.697017 
L 534.058648 336.595337 
L 536.637784 340.135457 
L 539.216919 343.327425 
L 541.796055 346.18148 
L 544.375191 348.708426 
L 546.954327 350.918046 
L 549.533462 352.819626 
L 552.112598 354.42167 
L 554.691734 355.735884 
L 557.270869 356.775228 
L 559.850005 357.544587 
L 562.429141 358.048412 
L 565.008276 358.28971 
L 567.587412 358.273081 
L 570.166548 358.004093 
L 572.745683 357.487132 
L 575.324819 356.723189 
L 577.903955 355.719033 
L 580.483091 354.482721 
L 583.062226 353.022057 
L 586.00981 351.087565 
L 588.957394 348.880686 
L 591.904977 346.412362 
L 595.221009 343.336768 
L 598.53704 339.959842 
L 602.22152 335.873021 
L 605.906 331.456005 
L 609.958927 326.26316 
L 615.485646 319.140239 
L 623.223054 311.203648 
L 625.065293 309.638799 
L 628.381325 307.06425 
L 630.960461 305.278149 
L 637.592524 301.193034 
L 644.961483 297.100453 
L 651.225098 294.164359 
L 658.962505 291.05441 
L 665.963017 288.425443 
L 685.490758 281.044792 
L 693.965061 277.539434 
L 703.17626 273.478247 
L 716.808835 267.178192 
L 725.651586 263.081808 
L 729.336065 261.871009 
L 732.652097 260.959672 
L 739.28416 259.350398 
L 741.494848 259.136461 
L 744.810879 259.319984 
L 749.969151 259.771373 
L 757.33811 260.079699 
L 765.075517 260.273171 
L 765.075517 260.273171 
" clip-path="url(#p1a60429210)" style="fill: none; stroke: #4c72b0; stroke-opacity: 0.9; stroke-width: 3; stroke-linecap: round"/>
   </g>
   <g id="line2d_56">
    <path d="M 496.476956 270.825138 
L 496.845404 271.557987 
L 498.687644 271.601433 
L 503.477468 271.480057 
L 507.161947 271.380929 
L 507.530395 271.463787 
L 508.267291 272.657017 
L 511.583323 278.768348 
L 514.530906 283.843662 
L 517.47849 288.477814 
L 520.426074 292.68629 
L 523.373657 296.470501 
L 525.952793 299.439489 
L 528.531929 302.09451 
L 531.111064 304.441021 
L 533.6902 306.485206 
L 536.269336 308.233421 
L 538.848471 309.692089 
L 541.427607 310.867233 
L 544.006743 311.765493 
L 546.217431 312.319722 
L 548.428118 312.674479 
L 550.638806 312.832664 
L 552.849494 312.798636 
L 555.42863 312.51837 
L 558.007765 311.986629 
L 560.586901 311.212711 
L 563.166037 310.206681 
L 565.745172 308.968389 
L 568.324308 307.493203 
L 571.271892 305.531736 
L 574.219475 303.298165 
L 577.535507 300.504426 
L 581.588434 296.804558 
L 586.746706 291.772763 
L 594.484113 284.123464 
L 597.431697 282.285436 
L 599.642384 281.221576 
L 602.958416 279.915704 
L 614.748751 276.437387 
L 619.170126 275.521464 
L 626.170637 274.375932 
L 633.539596 273.519777 
L 637.592524 273.245166 
L 641.645451 273.033512 
L 651.593546 272.282006 
L 672.59508 270.629414 
L 682.543175 269.580077 
L 695.807301 268.138433 
L 715.703491 266.099311 
L 734.125889 264.392764 
L 757.706558 262.182145 
L 762.864829 262.318761 
L 765.075517 262.477367 
L 765.075517 262.477367 
" clip-path="url(#p1a60429210)" style="fill: none; stroke: #dd8452; stroke-opacity: 0.9; stroke-width: 3; stroke-linecap: round"/>
   </g>
   <g id="line2d_57">
    <path d="M 496.476956 270.825138 
L 496.845404 272.233188 
L 497.5823 272.326272 
L 502.003676 272.274831 
L 506.425051 271.959131 
L 507.161947 272.08812 
L 508.267291 272.600934 
L 510.477979 273.921362 
L 513.057114 275.783589 
L 517.846938 279.584999 
L 522.636761 283.262272 
L 526.689689 286.114263 
L 530.374168 288.424844 
L 533.6902 290.253597 
L 537.006232 291.844995 
L 540.322263 293.214143 
L 544.006743 294.481051 
L 547.691222 295.52601 
L 551.375702 296.327999 
L 555.060182 296.895034 
L 558.744661 297.241659 
L 562.797589 297.380602 
L 566.482068 297.285132 
L 570.534996 296.952846 
L 574.587923 296.403385 
L 578.640851 295.632293 
L 583.430674 294.487794 
L 588.588946 293.016458 
L 593.747217 291.333547 
L 599.273936 289.301788 
L 605.906 286.612568 
L 615.117199 282.627408 
L 623.959949 278.784272 
L 628.381325 277.124662 
L 633.539596 275.450426 
L 637.960972 274.233827 
L 642.382347 273.232184 
L 647.540619 272.282311 
L 651.961994 271.66867 
L 658.962505 270.919877 
L 663.015433 270.657038 
L 699.860229 269.255315 
L 716.440387 268.839905 
L 727.125377 268.856009 
L 765.075517 268.94221 
L 765.075517 268.94221 
" clip-path="url(#p1a60429210)" style="fill: none; stroke: #55a868; stroke-opacity: 0.9; stroke-width: 3; stroke-linecap: round"/>
   </g>
   <g id="line2d_58">
    <path d="M 496.476956 270.825138 
L 496.845404 271.931748 
L 497.950748 272.008794 
L 503.10902 271.897722 
L 506.793499 271.729231 
L 507.530395 271.950268 
L 508.635739 272.617725 
L 525.584345 284.306288 
L 529.637273 286.658673 
L 533.321752 288.541283 
L 537.006232 290.183786 
L 540.322263 291.443741 
L 544.006743 292.598304 
L 547.691222 293.525478 
L 551.375702 294.214381 
L 555.060182 294.668198 
L 558.744661 294.906961 
L 562.429141 294.928258 
L 566.482068 294.715809 
L 570.903444 294.232916 
L 575.324819 293.49743 
L 580.114643 292.446553 
L 584.904466 291.159535 
L 590.062737 289.529587 
L 595.957905 287.416695 
L 604.06376 284.231245 
L 616.959438 279.212663 
L 623.223054 277.019364 
L 628.749773 275.395056 
L 633.539596 274.20727 
L 639.434764 273.036784 
L 643.856139 272.3528 
L 648.277515 271.893281 
L 652.69889 271.654986 
L 667.06836 271.120523 
L 701.702468 269.495352 
L 719.019522 269.180016 
L 737.073472 269.025568 
L 765.075517 269.067931 
L 765.075517 269.067931 
" clip-path="url(#p1a60429210)" style="fill: none; stroke: #c44e52; stroke-opacity: 0.9; stroke-width: 3; stroke-linecap: round"/>
   </g>
   <g id="line2d_59">
    <path d="M 496.476956 270.825138 
L 496.845404 272.115148 
L 497.950748 272.178494 
L 502.740572 272.054403 
L 509.741083 271.462953 
L 512.320219 271.575218 
L 513.057114 271.968624 
L 519.32073 276.857339 
L 521.899865 278.508027 
L 524.847449 280.117733 
L 527.426585 281.305685 
L 530.005721 282.273131 
L 532.584856 283.028013 
L 535.163992 283.578315 
L 538.111576 283.963844 
L 541.059159 284.10566 
L 544.006743 284.065468 
L 548.05967 283.741442 
L 553.217942 283.066361 
L 557.270869 282.31413 
L 570.534996 279.393697 
L 576.061715 277.784584 
L 581.956882 275.828006 
L 588.957394 273.488216 
L 592.641873 272.540079 
L 612.906511 267.886148 
L 615.854094 267.517229 
L 618.43323 267.506318 
L 631.328909 267.934374 
L 641.645451 268.357915 
L 648.277515 268.760681 
L 659.330953 269.15364 
L 669.279048 269.347961 
L 693.965061 269.540474 
L 742.231744 269.624184 
L 765.075517 269.632976 
L 765.075517 269.632976 
" clip-path="url(#p1a60429210)" style="fill: none; stroke: #8172b3; stroke-opacity: 0.9; stroke-width: 3; stroke-linecap: round"/>
   </g>
   <g id="line2d_60">
    <path d="M 496.476956 270.825138 
L 496.845404 271.86026 
L 498.319196 271.902648 
L 503.10902 271.784127 
L 511.951771 271.261537 
L 514.899354 271.289288 
L 515.63625 271.51285 
L 518.215386 272.819493 
L 521.16297 274.283245 
L 524.479001 275.674589 
L 528.163481 276.944405 
L 531.479512 277.855362 
L 534.795544 278.541471 
L 538.111576 279.006241 
L 541.796055 279.314796 
L 545.848983 279.436809 
L 551.007254 279.350929 
L 555.060182 279.06034 
L 559.113109 278.550198 
L 563.534485 277.771501 
L 567.95586 276.805015 
L 573.114131 275.448494 
L 579.009299 273.668928 
L 586.00981 271.316221 
L 590.431185 269.863499 
L 593.378769 269.162001 
L 597.063249 268.605034 
L 600.010832 268.339658 
L 603.695312 268.162935 
L 610.327375 268.250578 
L 623.223054 268.691089 
L 654.172682 269.665001 
L 672.963528 269.828018 
L 713.124355 269.92468 
L 765.075517 269.946046 
L 765.075517 269.946046 
" clip-path="url(#p1a60429210)" style="fill: none; stroke: #937860; stroke-opacity: 0.9; stroke-width: 3; stroke-linecap: round"/>
   </g>
   <g id="patch_15">
    <path d="M 483.047028 373.284 
L 483.047028 253.698 
" style="fill: none; stroke: #ffffff; stroke-width: 1.25; stroke-linejoin: miter; stroke-linecap: square"/>
   </g>
   <g id="patch_16">
    <path d="M 483.047028 373.284 
L 778.505445 373.284 
" style="fill: none; stroke: #ffffff; stroke-width: 1.25; stroke-linejoin: miter; stroke-linecap: square"/>
   </g>
   <g id="text_21">
    <!-- 0.95~90 -->
    <g style="fill: #262626" transform="translate(576.129643 247.698) scale(0.252 -0.252)">
     <use xlink:href="#DejaVuSans-30"/>
     <use xlink:href="#DejaVuSans-2e" x="63.623047"/>
     <use xlink:href="#DejaVuSans-39" x="95.410156"/>
     <use xlink:href="#DejaVuSans-35" x="159.033203"/>
     <use xlink:href="#DejaVuSans-7e" x="222.65625"/>
     <use xlink:href="#DejaVuSans-39" x="306.445312"/>
     <use xlink:href="#DejaVuSans-30" x="370.068359"/>
    </g>
   </g>
  </g>
  <g id="axes_6">
   <g id="patch_17">
    <path d="M 805.151157 373.284 
L 1100.609573 373.284 
L 1100.609573 253.698 
L 805.151157 253.698 
z
" style="fill: #eaeaf2"/>
   </g>
   <g id="matplotlib.axis_11">
    <g id="xtick_21">
     <g id="line2d_61">
      <path d="M 818.581085 373.284 
L 818.581085 253.698 
" clip-path="url(#p56c52797ca)" style="fill: none; stroke: #ffffff; stroke-linecap: round"/>
     </g>
     <g id="text_22">
      <!-- 0 -->
      <g style="fill: #262626" transform="translate(811.232397 400.336391) scale(0.231 -0.231)">
       <use xlink:href="#DejaVuSans-30"/>
      </g>
     </g>
    </g>
    <g id="xtick_22">
     <g id="line2d_62">
      <path d="M 910.693074 373.284 
L 910.693074 253.698 
" clip-path="url(#p56c52797ca)" style="fill: none; stroke: #ffffff; stroke-linecap: round"/>
     </g>
     <g id="text_23">
      <!-- 250 -->
      <g style="fill: #262626" transform="translate(888.647012 400.336391) scale(0.231 -0.231)">
       <use xlink:href="#DejaVuSans-32"/>
       <use xlink:href="#DejaVuSans-35" x="63.623047"/>
       <use xlink:href="#DejaVuSans-30" x="127.246094"/>
      </g>
     </g>
    </g>
    <g id="xtick_23">
     <g id="line2d_63">
      <path d="M 1002.805063 373.284 
L 1002.805063 253.698 
" clip-path="url(#p56c52797ca)" style="fill: none; stroke: #ffffff; stroke-linecap: round"/>
     </g>
     <g id="text_24">
      <!-- 500 -->
      <g style="fill: #262626" transform="translate(980.759001 400.336391) scale(0.231 -0.231)">
       <use xlink:href="#DejaVuSans-35"/>
       <use xlink:href="#DejaVuSans-30" x="63.623047"/>
       <use xlink:href="#DejaVuSans-30" x="127.246094"/>
      </g>
     </g>
    </g>
    <g id="xtick_24">
     <g id="line2d_64">
      <path d="M 1094.917053 373.284 
L 1094.917053 253.698 
" clip-path="url(#p56c52797ca)" style="fill: none; stroke: #ffffff; stroke-linecap: round"/>
     </g>
     <g id="text_25">
      <!-- 750 -->
      <g style="fill: #262626" transform="translate(1072.87099 400.336391) scale(0.231 -0.231)">
       <use xlink:href="#DejaVuSans-37"/>
       <use xlink:href="#DejaVuSans-35" x="63.623047"/>
       <use xlink:href="#DejaVuSans-30" x="127.246094"/>
      </g>
     </g>
    </g>
    <g id="text_26">
     <!-- step -->
     <g style="fill: #262626" transform="translate(925.62499 428.288531) scale(0.252 -0.252)">
      <use xlink:href="#DejaVuSans-73"/>
      <use xlink:href="#DejaVuSans-74" x="52.099609"/>
      <use xlink:href="#DejaVuSans-65" x="91.308594"/>
      <use xlink:href="#DejaVuSans-70" x="152.832031"/>
     </g>
    </g>
   </g>
   <g id="matplotlib.axis_12">
    <g id="ytick_11">
     <g id="line2d_65">
      <path d="M 805.151157 337.184807 
L 1100.609573 337.184807 
" clip-path="url(#p56c52797ca)" style="fill: none; stroke: #ffffff; stroke-linecap: round"/>
     </g>
    </g>
    <g id="ytick_12">
     <g id="line2d_66">
      <path d="M 805.151157 270.825138 
L 1100.609573 270.825138 
" clip-path="url(#p56c52797ca)" style="fill: none; stroke: #ffffff; stroke-linecap: round"/>
     </g>
    </g>
   </g>
   <g id="PolyCollection_31"/>
   <g id="PolyCollection_32"/>
   <g id="PolyCollection_33"/>
   <g id="PolyCollection_34"/>
   <g id="PolyCollection_35"/>
   <g id="PolyCollection_36"/>
   <g id="line2d_67">
    <path d="M 818.581085 270.825138 
L 818.949533 272.168815 
L 820.054877 272.232533 
L 824.8447 272.143332 
L 827.423836 272.021801 
L 827.792284 272.15061 
L 828.160732 272.976579 
L 834.792795 292.699802 
L 837.740379 300.53538 
L 841.05641 308.693753 
L 844.003994 315.396815 
L 846.951578 321.603764 
L 849.899161 327.334677 
L 852.846745 332.608373 
L 855.794329 337.44269 
L 858.741912 341.85459 
L 861.689496 345.860949 
L 864.63708 349.477856 
L 867.584663 352.722106 
L 870.532247 355.610524 
L 873.479831 358.158457 
L 876.427414 360.381202 
L 879.374998 362.292539 
L 882.322581 363.904612 
L 884.901717 365.078824 
L 887.480853 366.038469 
L 890.059989 366.788515 
L 892.639124 367.334793 
L 895.586708 367.717392 
L 898.534292 367.848273 
L 901.481875 367.738134 
L 904.429459 367.394646 
L 907.377043 366.829236 
L 910.324626 366.051782 
L 913.640658 364.936142 
L 916.956689 363.577949 
L 920.272721 361.990124 
L 923.957201 359.971427 
L 927.64168 357.700546 
L 931.694608 354.930238 
L 935.747535 351.894193 
L 940.168911 348.303817 
L 944.958734 344.132757 
L 950.117006 339.346036 
L 956.749069 332.849343 
L 963.381132 326.338929 
L 971.118539 319.724604 
L 980.329738 311.996998 
L 985.488009 307.886587 
L 987.698697 306.297793 
L 991.383177 304.257305 
L 993.962312 303.071692 
L 999.120584 301.017681 
L 1005.015751 299.044067 
L 1014.22695 296.270428 
L 1025.280389 293.192753 
L 1055.493121 285.053895 
L 1068.3888 281.295469 
L 1082.021374 277.084813 
L 1087.179645 275.437835 
L 1087.179645 275.437835 
" clip-path="url(#p56c52797ca)" style="fill: none; stroke: #4c72b0; stroke-opacity: 0.9; stroke-width: 3; stroke-linecap: round"/>
   </g>
   <g id="line2d_68">
    <path d="M 818.581085 270.825138 
L 818.949533 271.557987 
L 820.791773 271.605494 
L 826.68694 271.501752 
L 829.266076 271.450944 
L 829.634524 271.589937 
L 830.37142 272.868861 
L 832.950555 277.666816 
L 836.266587 283.509519 
L 839.214171 288.258376 
L 842.161754 292.612312 
L 845.109338 296.576771 
L 848.056921 300.163275 
L 851.004505 303.383319 
L 853.952089 306.248833 
L 856.899672 308.770689 
L 859.478808 310.70444 
L 862.057944 312.391419 
L 864.63708 313.838636 
L 867.216215 315.054279 
L 869.795351 316.0464 
L 872.374487 316.820199 
L 874.953622 317.377087 
L 877.532758 317.726089 
L 880.111894 317.874258 
L 883.059477 317.806302 
L 886.007061 317.490954 
L 888.954645 316.942173 
L 891.902228 316.174695 
L 895.21826 315.065628 
L 898.534292 313.692122 
L 901.850323 312.06647 
L 905.534803 309.995027 
L 909.58773 307.451836 
L 915.482898 303.443621 
L 923.957201 297.38887 
L 932.063056 291.561613 
L 935.010639 290.094734 
L 943.85339 285.799513 
L 948.643214 283.859597 
L 952.327693 282.570368 
L 956.749069 281.321197 
L 963.74958 279.656014 
L 970.013195 278.579119 
L 978.11905 277.580759 
L 992.488521 276.27796 
L 1003.910407 275.392919 
L 1012.38471 274.88499 
L 1041.123651 272.691874 
L 1067.651904 270.955533 
L 1087.179645 269.899785 
L 1087.179645 269.899785 
" clip-path="url(#p56c52797ca)" style="fill: none; stroke: #dd8452; stroke-opacity: 0.9; stroke-width: 3; stroke-linecap: round"/>
   </g>
   <g id="line2d_69">
    <path d="M 818.581085 270.825138 
L 818.949533 272.233188 
L 819.686429 272.329615 
L 824.476252 272.292558 
L 828.897628 272.173816 
L 829.634524 272.391551 
L 831.476763 273.380714 
L 833.687451 274.834746 
L 837.740379 277.975573 
L 844.372442 283.223109 
L 848.793817 286.446943 
L 852.478297 288.864843 
L 856.162777 291.019223 
L 859.847256 292.917822 
L 863.531736 294.585493 
L 867.584663 296.161958 
L 871.637591 297.501255 
L 875.690518 298.596798 
L 879.743446 299.466796 
L 883.796373 300.121314 
L 887.849301 300.569075 
L 892.270676 300.839454 
L 896.692052 300.891551 
L 901.481875 300.718138 
L 906.271699 300.313068 
L 911.061522 299.687656 
L 916.588241 298.725656 
L 922.851857 297.377022 
L 929.115472 295.785627 
L 935.379087 293.979289 
L 942.379598 291.719556 
L 950.485453 288.843918 
L 964.486476 283.595012 
L 972.960779 280.529355 
L 978.855946 278.629555 
L 986.593353 276.391619 
L 992.856968 274.836444 
L 998.01524 273.794415 
L 1002.436615 273.072625 
L 1007.226439 272.504059 
L 1013.121606 272.028868 
L 1019.385221 271.757197 
L 1034.860036 271.31846 
L 1048.49261 271.035053 
L 1069.862591 270.536763 
L 1087.179645 270.570475 
L 1087.179645 270.570475 
" clip-path="url(#p56c52797ca)" style="fill: none; stroke: #55a868; stroke-opacity: 0.9; stroke-width: 3; stroke-linecap: round"/>
   </g>
   <g id="line2d_70">
    <path d="M 818.581085 270.825138 
L 818.949533 271.931748 
L 820.054877 272.01293 
L 826.318492 271.920329 
L 828.897628 271.868555 
L 829.634524 272.079001 
L 830.739868 272.72856 
L 837.371931 277.373243 
L 846.214682 283.595792 
L 850.267609 286.121998 
L 854.320537 288.397221 
L 858.373464 290.414114 
L 862.426392 292.164632 
L 866.479319 293.642663 
L 870.532247 294.893206 
L 874.585174 295.899956 
L 879.00655 296.743341 
L 883.427925 297.337098 
L 887.849301 297.686431 
L 892.270676 297.818391 
L 897.0605 297.723569 
L 901.850323 297.409873 
L 907.008595 296.849481 
L 912.535314 296.010643 
L 918.062033 294.95901 
L 923.957201 293.617672 
L 930.589264 291.877088 
L 937.958223 289.707548 
L 950.485453 285.73528 
L 967.802507 280.321511 
L 976.27681 277.873822 
L 983.277322 276.05334 
L 989.909385 274.590748 
L 994.33076 273.841241 
L 999.489032 273.204899 
L 1005.384199 272.697922 
L 1014.595398 272.166869 
L 1023.806597 271.820533 
L 1040.018307 271.422368 
L 1069.494143 270.868173 
L 1087.179645 270.655714 
L 1087.179645 270.655714 
" clip-path="url(#p56c52797ca)" style="fill: none; stroke: #c44e52; stroke-opacity: 0.9; stroke-width: 3; stroke-linecap: round"/>
   </g>
   <g id="line2d_71">
    <path d="M 818.581085 270.825138 
L 818.949533 272.115148 
L 820.054877 272.183493 
L 825.950044 272.071772 
L 834.055899 271.76878 
L 834.792795 272.061308 
L 835.898139 272.954211 
L 839.214171 275.715979 
L 842.89865 278.437409 
L 845.846234 280.31689 
L 848.793817 281.947359 
L 851.741401 283.33863 
L 854.688985 284.490892 
L 857.636568 285.415301 
L 860.584152 286.122586 
L 863.900184 286.676045 
L 867.216215 286.983318 
L 870.532247 287.057953 
L 873.848278 286.917288 
L 877.16431 286.553936 
L 880.84879 285.90919 
L 885.270165 284.874284 
L 891.902228 282.952297 
L 906.271699 278.696921 
L 925.062544 273.919902 
L 929.852368 272.994876 
L 935.747535 271.991636 
L 953.433037 269.530216 
L 957.854413 269.42761 
L 971.486987 269.508373 
L 1006.857991 269.889799 
L 1031.912452 270.132204 
L 1058.440705 270.354906 
L 1087.179645 270.432752 
L 1087.179645 270.432752 
" clip-path="url(#p56c52797ca)" style="fill: none; stroke: #8172b3; stroke-opacity: 0.9; stroke-width: 3; stroke-linecap: round"/>
   </g>
   <g id="line2d_72">
    <path d="M 818.581085 270.825138 
L 818.949533 271.86026 
L 820.423325 271.907784 
L 826.68694 271.791591 
L 836.635035 271.51798 
L 837.371931 271.755597 
L 839.951066 273.133406 
L 843.267098 274.899237 
L 846.951578 276.585788 
L 850.267609 277.840628 
L 853.583641 278.853472 
L 856.899672 279.647711 
L 860.215704 280.216306 
L 864.268632 280.679148 
L 868.321559 280.890895 
L 872.374487 280.873897 
L 876.795862 280.612034 
L 881.585686 280.094954 
L 886.743957 279.300113 
L 892.639124 278.167687 
L 900.008083 276.513809 
L 916.219793 272.59863 
L 921.746513 271.358754 
L 926.904784 270.472913 
L 930.589264 270.031793 
L 934.273743 269.844445 
L 939.063567 269.782402 
L 948.274766 269.852325 
L 975.908362 270.071325 
L 1011.279366 270.269042 
L 1087.179645 270.555819 
L 1087.179645 270.555819 
" clip-path="url(#p56c52797ca)" style="fill: none; stroke: #937860; stroke-opacity: 0.9; stroke-width: 3; stroke-linecap: round"/>
   </g>
   <g id="patch_18">
    <path d="M 805.151157 373.284 
L 805.151157 253.698 
" style="fill: none; stroke: #ffffff; stroke-width: 1.25; stroke-linejoin: miter; stroke-linecap: square"/>
   </g>
   <g id="patch_19">
    <path d="M 805.151157 373.284 
L 1100.609573 373.284 
" style="fill: none; stroke: #ffffff; stroke-width: 1.25; stroke-linejoin: miter; stroke-linecap: square"/>
   </g>
   <g id="text_27">
    <!-- 0.95~365 -->
    <g style="fill: #262626" transform="translate(890.217021 247.698) scale(0.252 -0.252)">
     <use xlink:href="#DejaVuSans-30"/>
     <use xlink:href="#DejaVuSans-2e" x="63.623047"/>
     <use xlink:href="#DejaVuSans-39" x="95.410156"/>
     <use xlink:href="#DejaVuSans-35" x="159.033203"/>
     <use xlink:href="#DejaVuSans-7e" x="222.65625"/>
     <use xlink:href="#DejaVuSans-33" x="306.445312"/>
     <use xlink:href="#DejaVuSans-36" x="370.068359"/>
     <use xlink:href="#DejaVuSans-35" x="433.691406"/>
    </g>
   </g>
  </g>
  <g id="text_28">
   <!-- Production change from pre-shock level -->
   <g style="fill: #262626" transform="translate(280.766836 30.177675) scale(0.3024 -0.3024)">
    <defs>
     <path id="DejaVuSans-50" d="M 1259 4147 
L 1259 2394 
L 2053 2394 
Q 2494 2394 2734 2622 
Q 2975 2850 2975 3272 
Q 2975 3691 2734 3919 
Q 2494 4147 2053 4147 
L 1259 4147 
z
M 628 4666 
L 2053 4666 
Q 2838 4666 3239 4311 
Q 3641 3956 3641 3272 
Q 3641 2581 3239 2228 
Q 2838 1875 2053 1875 
L 1259 1875 
L 1259 0 
L 628 0 
L 628 4666 
z
" transform="scale(0.015625)"/>
     <path id="DejaVuSans-72" d="M 2631 2963 
Q 2534 3019 2420 3045 
Q 2306 3072 2169 3072 
Q 1681 3072 1420 2755 
Q 1159 2438 1159 1844 
L 1159 0 
L 581 0 
L 581 3500 
L 1159 3500 
L 1159 2956 
Q 1341 3275 1631 3429 
Q 1922 3584 2338 3584 
Q 2397 3584 2469 3576 
Q 2541 3569 2628 3553 
L 2631 2963 
z
" transform="scale(0.015625)"/>
     <path id="DejaVuSans-6f" d="M 1959 3097 
Q 1497 3097 1228 2736 
Q 959 2375 959 1747 
Q 959 1119 1226 758 
Q 1494 397 1959 397 
Q 2419 397 2687 759 
Q 2956 1122 2956 1747 
Q 2956 2369 2687 2733 
Q 2419 3097 1959 3097 
z
M 1959 3584 
Q 2709 3584 3137 3096 
Q 3566 2609 3566 1747 
Q 3566 888 3137 398 
Q 2709 -91 1959 -91 
Q 1206 -91 779 398 
Q 353 888 353 1747 
Q 353 2609 779 3096 
Q 1206 3584 1959 3584 
z
" transform="scale(0.015625)"/>
     <path id="DejaVuSans-64" d="M 2906 2969 
L 2906 4863 
L 3481 4863 
L 3481 0 
L 2906 0 
L 2906 525 
Q 2725 213 2448 61 
Q 2172 -91 1784 -91 
Q 1150 -91 751 415 
Q 353 922 353 1747 
Q 353 2572 751 3078 
Q 1150 3584 1784 3584 
Q 2172 3584 2448 3432 
Q 2725 3281 2906 2969 
z
M 947 1747 
Q 947 1113 1208 752 
Q 1469 391 1925 391 
Q 2381 391 2643 752 
Q 2906 1113 2906 1747 
Q 2906 2381 2643 2742 
Q 2381 3103 1925 3103 
Q 1469 3103 1208 2742 
Q 947 2381 947 1747 
z
" transform="scale(0.015625)"/>
     <path id="DejaVuSans-75" d="M 544 1381 
L 544 3500 
L 1119 3500 
L 1119 1403 
Q 1119 906 1312 657 
Q 1506 409 1894 409 
Q 2359 409 2629 706 
Q 2900 1003 2900 1516 
L 2900 3500 
L 3475 3500 
L 3475 0 
L 2900 0 
L 2900 538 
Q 2691 219 2414 64 
Q 2138 -91 1772 -91 
Q 1169 -91 856 284 
Q 544 659 544 1381 
z
M 1991 3584 
L 1991 3584 
z
" transform="scale(0.015625)"/>
     <path id="DejaVuSans-69" d="M 603 3500 
L 1178 3500 
L 1178 0 
L 603 0 
L 603 3500 
z
M 603 4863 
L 1178 4863 
L 1178 4134 
L 603 4134 
L 603 4863 
z
" transform="scale(0.015625)"/>
     <path id="DejaVuSans-66" d="M 2375 4863 
L 2375 4384 
L 1825 4384 
Q 1516 4384 1395 4259 
Q 1275 4134 1275 3809 
L 1275 3500 
L 2222 3500 
L 2222 3053 
L 1275 3053 
L 1275 0 
L 697 0 
L 697 3053 
L 147 3053 
L 147 3500 
L 697 3500 
L 697 3744 
Q 697 4328 969 4595 
Q 1241 4863 1831 4863 
L 2375 4863 
z
" transform="scale(0.015625)"/>
     <path id="DejaVuSans-6d" d="M 3328 2828 
Q 3544 3216 3844 3400 
Q 4144 3584 4550 3584 
Q 5097 3584 5394 3201 
Q 5691 2819 5691 2113 
L 5691 0 
L 5113 0 
L 5113 2094 
Q 5113 2597 4934 2840 
Q 4756 3084 4391 3084 
Q 3944 3084 3684 2787 
Q 3425 2491 3425 1978 
L 3425 0 
L 2847 0 
L 2847 2094 
Q 2847 2600 2669 2842 
Q 2491 3084 2119 3084 
Q 1678 3084 1418 2786 
Q 1159 2488 1159 1978 
L 1159 0 
L 581 0 
L 581 3500 
L 1159 3500 
L 1159 2956 
Q 1356 3278 1631 3431 
Q 1906 3584 2284 3584 
Q 2666 3584 2933 3390 
Q 3200 3197 3328 2828 
z
" transform="scale(0.015625)"/>
     <path id="DejaVuSans-2d" d="M 313 2009 
L 1997 2009 
L 1997 1497 
L 313 1497 
L 313 2009 
z
" transform="scale(0.015625)"/>
     <path id="DejaVuSans-6b" d="M 581 4863 
L 1159 4863 
L 1159 1991 
L 2875 3500 
L 3609 3500 
L 1753 1863 
L 3688 0 
L 2938 0 
L 1159 1709 
L 1159 0 
L 581 0 
L 581 4863 
z
" transform="scale(0.015625)"/>
     <path id="DejaVuSans-6c" d="M 603 4863 
L 1178 4863 
L 1178 0 
L 603 0 
L 603 4863 
z
" transform="scale(0.015625)"/>
     <path id="DejaVuSans-76" d="M 191 3500 
L 800 3500 
L 1894 563 
L 2988 3500 
L 3597 3500 
L 2284 0 
L 1503 0 
L 191 3500 
z
" transform="scale(0.015625)"/>
    </defs>
    <use xlink:href="#DejaVuSans-50"/>
    <use xlink:href="#DejaVuSans-72" x="58.552734"/>
    <use xlink:href="#DejaVuSans-6f" x="97.416016"/>
    <use xlink:href="#DejaVuSans-64" x="158.597656"/>
    <use xlink:href="#DejaVuSans-75" x="222.074219"/>
    <use xlink:href="#DejaVuSans-63" x="285.453125"/>
    <use xlink:href="#DejaVuSans-74" x="340.433594"/>
    <use xlink:href="#DejaVuSans-69" x="379.642578"/>
    <use xlink:href="#DejaVuSans-6f" x="407.425781"/>
    <use xlink:href="#DejaVuSans-6e" x="468.607422"/>
    <use xlink:href="#DejaVuSans-20" x="531.986328"/>
    <use xlink:href="#DejaVuSans-63" x="563.773438"/>
    <use xlink:href="#DejaVuSans-68" x="618.753906"/>
    <use xlink:href="#DejaVuSans-61" x="682.132812"/>
    <use xlink:href="#DejaVuSans-6e" x="743.412109"/>
    <use xlink:href="#DejaVuSans-67" x="806.791016"/>
    <use xlink:href="#DejaVuSans-65" x="870.267578"/>
    <use xlink:href="#DejaVuSans-20" x="931.791016"/>
    <use xlink:href="#DejaVuSans-66" x="963.578125"/>
    <use xlink:href="#DejaVuSans-72" x="998.783203"/>
    <use xlink:href="#DejaVuSans-6f" x="1037.646484"/>
    <use xlink:href="#DejaVuSans-6d" x="1098.828125"/>
    <use xlink:href="#DejaVuSans-20" x="1196.240234"/>
    <use xlink:href="#DejaVuSans-70" x="1228.027344"/>
    <use xlink:href="#DejaVuSans-72" x="1291.503906"/>
    <use xlink:href="#DejaVuSans-65" x="1330.367188"/>
    <use xlink:href="#DejaVuSans-2d" x="1391.890625"/>
    <use xlink:href="#DejaVuSans-73" x="1427.974609"/>
    <use xlink:href="#DejaVuSans-68" x="1480.074219"/>
    <use xlink:href="#DejaVuSans-6f" x="1543.453125"/>
    <use xlink:href="#DejaVuSans-63" x="1604.634766"/>
    <use xlink:href="#DejaVuSans-6b" x="1659.615234"/>
    <use xlink:href="#DejaVuSans-20" x="1717.525391"/>
    <use xlink:href="#DejaVuSans-6c" x="1749.3125"/>
    <use xlink:href="#DejaVuSans-65" x="1777.095703"/>
    <use xlink:href="#DejaVuSans-76" x="1838.619141"/>
    <use xlink:href="#DejaVuSans-65" x="1897.798828"/>
    <use xlink:href="#DejaVuSans-6c" x="1959.322266"/>
   </g>
  </g>
  <g id="legend_1">
   <g id="patch_20">
    <path d="M 11.82 584.31675 
L 1292.617547 584.31675 
Q 1297.237547 584.31675 1297.237547 579.69675 
L 1297.237547 476.97 
Q 1297.237547 472.35 1292.617547 472.35 
L 11.82 472.35 
Q 7.2 472.35 7.2 476.97 
L 7.2 579.69675 
Q 7.2 584.31675 11.82 584.31675 
z
" style="fill: #eaeaf2; opacity: 0.8; stroke: #cccccc; stroke-linejoin: miter"/>
   </g>
   <g id="text_29">
    <!-- Experiences -->
    <g style="fill: #262626" transform="translate(575.384367 500.738062) scale(0.252 -0.252)">
     <defs>
      <path id="DejaVuSans-45" d="M 628 4666 
L 3578 4666 
L 3578 4134 
L 1259 4134 
L 1259 2753 
L 3481 2753 
L 3481 2222 
L 1259 2222 
L 1259 531 
L 3634 531 
L 3634 0 
L 628 0 
L 628 4666 
z
" transform="scale(0.015625)"/>
      <path id="DejaVuSans-78" d="M 3513 3500 
L 2247 1797 
L 3578 0 
L 2900 0 
L 1881 1375 
L 863 0 
L 184 0 
L 1544 1831 
L 300 3500 
L 978 3500 
L 1906 2253 
L 2834 3500 
L 3513 3500 
z
" transform="scale(0.015625)"/>
     </defs>
     <use xlink:href="#DejaVuSans-45"/>
     <use xlink:href="#DejaVuSans-78" x="63.183594"/>
     <use xlink:href="#DejaVuSans-70" x="122.363281"/>
     <use xlink:href="#DejaVuSans-65" x="185.839844"/>
     <use xlink:href="#DejaVuSans-72" x="247.363281"/>
     <use xlink:href="#DejaVuSans-69" x="288.476562"/>
     <use xlink:href="#DejaVuSans-65" x="316.259766"/>
     <use xlink:href="#DejaVuSans-6e" x="377.783203"/>
     <use xlink:href="#DejaVuSans-63" x="441.162109"/>
     <use xlink:href="#DejaVuSans-65" x="496.142578"/>
     <use xlink:href="#DejaVuSans-73" x="557.666016"/>
    </g>
   </g>
   <g id="line2d_73">
    <path d="M 16.44 526.996266 
L 39.54 526.996266 
L 62.64 526.996266 
" style="fill: none; stroke: #4c72b0; stroke-opacity: 0.9; stroke-width: 3; stroke-linecap: round"/>
   </g>
   <g id="text_30">
    <!-- eora26_full_2000 -->
    <g style="fill: #262626" transform="translate(81.12 535.081266) scale(0.231 -0.231)">
     <defs>
      <path id="DejaVuSans-5f" d="M 3263 -1063 
L 3263 -1509 
L -63 -1509 
L -63 -1063 
L 3263 -1063 
z
" transform="scale(0.015625)"/>
     </defs>
     <use xlink:href="#DejaVuSans-65"/>
     <use xlink:href="#DejaVuSans-6f" x="61.523438"/>
     <use xlink:href="#DejaVuSans-72" x="122.705078"/>
     <use xlink:href="#DejaVuSans-61" x="163.818359"/>
     <use xlink:href="#DejaVuSans-32" x="225.097656"/>
     <use xlink:href="#DejaVuSans-36" x="288.720703"/>
     <use xlink:href="#DejaVuSans-5f" x="352.34375"/>
     <use xlink:href="#DejaVuSans-66" x="402.34375"/>
     <use xlink:href="#DejaVuSans-75" x="437.548828"/>
     <use xlink:href="#DejaVuSans-6c" x="500.927734"/>
     <use xlink:href="#DejaVuSans-6c" x="528.710938"/>
     <use xlink:href="#DejaVuSans-5f" x="556.494141"/>
     <use xlink:href="#DejaVuSans-32" x="606.494141"/>
     <use xlink:href="#DejaVuSans-30" x="670.117188"/>
     <use xlink:href="#DejaVuSans-30" x="733.740234"/>
     <use xlink:href="#DejaVuSans-30" x="797.363281"/>
    </g>
   </g>
   <g id="line2d_74">
    <path d="M 16.44 561.545203 
L 39.54 561.545203 
L 62.64 561.545203 
" style="fill: none; stroke: #dd8452; stroke-opacity: 0.9; stroke-width: 3; stroke-linecap: round"/>
   </g>
   <g id="text_31">
    <!-- eora26_full_2010 -->
    <g style="fill: #262626" transform="translate(81.12 569.630203) scale(0.231 -0.231)">
     <defs>
      <path id="DejaVuSans-31" d="M 794 531 
L 1825 531 
L 1825 4091 
L 703 3866 
L 703 4441 
L 1819 4666 
L 2450 4666 
L 2450 531 
L 3481 531 
L 3481 0 
L 794 0 
L 794 531 
z
" transform="scale(0.015625)"/>
     </defs>
     <use xlink:href="#DejaVuSans-65"/>
     <use xlink:href="#DejaVuSans-6f" x="61.523438"/>
     <use xlink:href="#DejaVuSans-72" x="122.705078"/>
     <use xlink:href="#DejaVuSans-61" x="163.818359"/>
     <use xlink:href="#DejaVuSans-32" x="225.097656"/>
     <use xlink:href="#DejaVuSans-36" x="288.720703"/>
     <use xlink:href="#DejaVuSans-5f" x="352.34375"/>
     <use xlink:href="#DejaVuSans-66" x="402.34375"/>
     <use xlink:href="#DejaVuSans-75" x="437.548828"/>
     <use xlink:href="#DejaVuSans-6c" x="500.927734"/>
     <use xlink:href="#DejaVuSans-6c" x="528.710938"/>
     <use xlink:href="#DejaVuSans-5f" x="556.494141"/>
     <use xlink:href="#DejaVuSans-32" x="606.494141"/>
     <use xlink:href="#DejaVuSans-30" x="670.117188"/>
     <use xlink:href="#DejaVuSans-31" x="733.740234"/>
     <use xlink:href="#DejaVuSans-30" x="797.363281"/>
    </g>
   </g>
   <g id="line2d_75">
    <path d="M 326.211 526.996266 
L 349.311 526.996266 
L 372.411 526.996266 
" style="fill: none; stroke: #55a868; stroke-opacity: 0.9; stroke-width: 3; stroke-linecap: round"/>
   </g>
   <g id="text_32">
    <!-- euregio_full_2000 -->
    <g style="fill: #262626" transform="translate(390.891 535.081266) scale(0.231 -0.231)">
     <use xlink:href="#DejaVuSans-65"/>
     <use xlink:href="#DejaVuSans-75" x="61.523438"/>
     <use xlink:href="#DejaVuSans-72" x="124.902344"/>
     <use xlink:href="#DejaVuSans-65" x="163.765625"/>
     <use xlink:href="#DejaVuSans-67" x="225.289062"/>
     <use xlink:href="#DejaVuSans-69" x="288.765625"/>
     <use xlink:href="#DejaVuSans-6f" x="316.548828"/>
     <use xlink:href="#DejaVuSans-5f" x="377.730469"/>
     <use xlink:href="#DejaVuSans-66" x="427.730469"/>
     <use xlink:href="#DejaVuSans-75" x="462.935547"/>
     <use xlink:href="#DejaVuSans-6c" x="526.314453"/>
     <use xlink:href="#DejaVuSans-6c" x="554.097656"/>
     <use xlink:href="#DejaVuSans-5f" x="581.880859"/>
     <use xlink:href="#DejaVuSans-32" x="631.880859"/>
     <use xlink:href="#DejaVuSans-30" x="695.503906"/>
     <use xlink:href="#DejaVuSans-30" x="759.126953"/>
     <use xlink:href="#DejaVuSans-30" x="822.75"/>
    </g>
   </g>
   <g id="line2d_76">
    <path d="M 326.211 561.545203 
L 349.311 561.545203 
L 372.411 561.545203 
" style="fill: none; stroke: #c44e52; stroke-opacity: 0.9; stroke-width: 3; stroke-linecap: round"/>
   </g>
   <g id="text_33">
    <!-- euregio_full_2010 -->
    <g style="fill: #262626" transform="translate(390.891 569.630203) scale(0.231 -0.231)">
     <use xlink:href="#DejaVuSans-65"/>
     <use xlink:href="#DejaVuSans-75" x="61.523438"/>
     <use xlink:href="#DejaVuSans-72" x="124.902344"/>
     <use xlink:href="#DejaVuSans-65" x="163.765625"/>
     <use xlink:href="#DejaVuSans-67" x="225.289062"/>
     <use xlink:href="#DejaVuSans-69" x="288.765625"/>
     <use xlink:href="#DejaVuSans-6f" x="316.548828"/>
     <use xlink:href="#DejaVuSans-5f" x="377.730469"/>
     <use xlink:href="#DejaVuSans-66" x="427.730469"/>
     <use xlink:href="#DejaVuSans-75" x="462.935547"/>
     <use xlink:href="#DejaVuSans-6c" x="526.314453"/>
     <use xlink:href="#DejaVuSans-6c" x="554.097656"/>
     <use xlink:href="#DejaVuSans-5f" x="581.880859"/>
     <use xlink:href="#DejaVuSans-32" x="631.880859"/>
     <use xlink:href="#DejaVuSans-30" x="695.503906"/>
     <use xlink:href="#DejaVuSans-31" x="759.126953"/>
     <use xlink:href="#DejaVuSans-30" x="822.75"/>
    </g>
   </g>
   <g id="line2d_77">
    <path d="M 641.847234 526.996266 
L 664.947234 526.996266 
L 688.047234 526.996266 
" style="fill: none; stroke: #8172b3; stroke-opacity: 0.9; stroke-width: 3; stroke-linecap: round"/>
   </g>
   <g id="text_34">
    <!-- exiobase3_full_2000 -->
    <g style="fill: #262626" transform="translate(706.527234 535.081266) scale(0.231 -0.231)">
     <defs>
      <path id="DejaVuSans-62" d="M 3116 1747 
Q 3116 2381 2855 2742 
Q 2594 3103 2138 3103 
Q 1681 3103 1420 2742 
Q 1159 2381 1159 1747 
Q 1159 1113 1420 752 
Q 1681 391 2138 391 
Q 2594 391 2855 752 
Q 3116 1113 3116 1747 
z
M 1159 2969 
Q 1341 3281 1617 3432 
Q 1894 3584 2278 3584 
Q 2916 3584 3314 3078 
Q 3713 2572 3713 1747 
Q 3713 922 3314 415 
Q 2916 -91 2278 -91 
Q 1894 -91 1617 61 
Q 1341 213 1159 525 
L 1159 0 
L 581 0 
L 581 4863 
L 1159 4863 
L 1159 2969 
z
" transform="scale(0.015625)"/>
     </defs>
     <use xlink:href="#DejaVuSans-65"/>
     <use xlink:href="#DejaVuSans-78" x="59.773438"/>
     <use xlink:href="#DejaVuSans-69" x="118.953125"/>
     <use xlink:href="#DejaVuSans-6f" x="146.736328"/>
     <use xlink:href="#DejaVuSans-62" x="207.917969"/>
     <use xlink:href="#DejaVuSans-61" x="271.394531"/>
     <use xlink:href="#DejaVuSans-73" x="332.673828"/>
     <use xlink:href="#DejaVuSans-65" x="384.773438"/>
     <use xlink:href="#DejaVuSans-33" x="446.296875"/>
     <use xlink:href="#DejaVuSans-5f" x="509.919922"/>
     <use xlink:href="#DejaVuSans-66" x="559.919922"/>
     <use xlink:href="#DejaVuSans-75" x="595.125"/>
     <use xlink:href="#DejaVuSans-6c" x="658.503906"/>
     <use xlink:href="#DejaVuSans-6c" x="686.287109"/>
     <use xlink:href="#DejaVuSans-5f" x="714.070312"/>
     <use xlink:href="#DejaVuSans-32" x="764.070312"/>
     <use xlink:href="#DejaVuSans-30" x="827.693359"/>
     <use xlink:href="#DejaVuSans-30" x="891.316406"/>
     <use xlink:href="#DejaVuSans-30" x="954.939453"/>
    </g>
   </g>
   <g id="line2d_78">
    <path d="M 988.022391 526.996266 
L 1011.122391 526.996266 
L 1034.222391 526.996266 
" style="fill: none; stroke: #937860; stroke-opacity: 0.9; stroke-width: 3; stroke-linecap: round"/>
   </g>
   <g id="text_35">
    <!-- exiobase3_full_2010 -->
    <g style="fill: #262626" transform="translate(1052.702391 535.081266) scale(0.231 -0.231)">
     <use xlink:href="#DejaVuSans-65"/>
     <use xlink:href="#DejaVuSans-78" x="59.773438"/>
     <use xlink:href="#DejaVuSans-69" x="118.953125"/>
     <use xlink:href="#DejaVuSans-6f" x="146.736328"/>
     <use xlink:href="#DejaVuSans-62" x="207.917969"/>
     <use xlink:href="#DejaVuSans-61" x="271.394531"/>
     <use xlink:href="#DejaVuSans-73" x="332.673828"/>
     <use xlink:href="#DejaVuSans-65" x="384.773438"/>
     <use xlink:href="#DejaVuSans-33" x="446.296875"/>
     <use xlink:href="#DejaVuSans-5f" x="509.919922"/>
     <use xlink:href="#DejaVuSans-66" x="559.919922"/>
     <use xlink:href="#DejaVuSans-75" x="595.125"/>
     <use xlink:href="#DejaVuSans-6c" x="658.503906"/>
     <use xlink:href="#DejaVuSans-6c" x="686.287109"/>
     <use xlink:href="#DejaVuSans-5f" x="714.070312"/>
     <use xlink:href="#DejaVuSans-32" x="764.070312"/>
     <use xlink:href="#DejaVuSans-30" x="827.693359"/>
     <use xlink:href="#DejaVuSans-31" x="891.316406"/>
     <use xlink:href="#DejaVuSans-30" x="954.939453"/>
    </g>
   </g>
  </g>
 </g>
 <defs>
  <clipPath id="pc041d5d538">
   <rect x="160.9429" y="81.456" width="295.458416" height="119.586"/>
  </clipPath>
  <clipPath id="p583355ff5a">
   <rect x="483.047028" y="81.456" width="295.458416" height="119.586"/>
  </clipPath>
  <clipPath id="p657d7aa652">
   <rect x="805.151157" y="81.456" width="295.458416" height="119.586"/>
  </clipPath>
  <clipPath id="pb101f4e697">
   <rect x="160.9429" y="253.698" width="295.458416" height="119.586"/>
  </clipPath>
  <clipPath id="p1a60429210">
   <rect x="483.047028" y="253.698" width="295.458416" height="119.586"/>
  </clipPath>
  <clipPath id="p56c52797ca">
   <rect x="805.151157" y="253.698" width="295.458416" height="119.586"/>
  </clipPath>
 </defs>
</svg>
