<?xml version="1.0" encoding="utf-8" standalone="no"?>
<!DOCTYPE svg PUBLIC "-//W3C//DTD SVG 1.1//EN"
  "http://www.w3.org/Graphics/SVG/1.1/DTD/svg11.dtd">
<svg xmlns:xlink="http://www.w3.org/1999/xlink" width="1304.437547pt" height="591.51675pt" viewBox="0 0 1304.437547 591.51675" xmlns="http://www.w3.org/2000/svg" version="1.1">
 <metadata>
  <rdf:RDF xmlns:dc="http://purl.org/dc/elements/1.1/" xmlns:cc="http://creativecommons.org/ns#" xmlns:rdf="http://www.w3.org/1999/02/22-rdf-syntax-ns#">
   <cc:Work>
    <dc:type rdf:resource="http://purl.org/dc/dcmitype/StillImage"/>
    <dc:date>2023-04-20T13:53:15.553724</dc:date>
    <dc:format>image/svg+xml</dc:format>
    <dc:creator>
     <cc:Agent>
      <dc:title>Matplotlib v3.7.1, https://matplotlib.org/</dc:title>
     </cc:Agent>
    </dc:creator>
   </cc:Work>
  </rdf:RDF>
 </metadata>
 <defs>
  <style type="text/css">*{stroke-linejoin: round; stroke-linecap: butt}</style>
 </defs>
 <g id="figure_1">
  <g id="patch_1">
   <path d="M 0 591.51675 
L 1304.437547 591.51675 
L 1304.437547 -0 
L 0 -0 
z
" style="fill: #ffffff"/>
  </g>
  <g id="axes_1">
   <g id="patch_2">
    <path d="M 170.340091 195.716265 
L 462.70916 195.716265 
L 462.70916 81.456 
L 170.340091 81.456 
z
" style="fill: #eaeaf2"/>
   </g>
   <g id="matplotlib.axis_1">
    <g id="xtick_1">
     <g id="line2d_1">
      <path d="M 183.629594 195.716265 
L 183.629594 81.456 
" clip-path="url(#p1b41e4ac19)" style="fill: none; stroke: #ffffff; stroke-linecap: round"/>
     </g>
    </g>
    <g id="xtick_2">
     <g id="line2d_2">
      <path d="M 274.77845 195.716265 
L 274.77845 81.456 
" clip-path="url(#p1b41e4ac19)" style="fill: none; stroke: #ffffff; stroke-linecap: round"/>
     </g>
    </g>
    <g id="xtick_3">
     <g id="line2d_3">
      <path d="M 365.927305 195.716265 
L 365.927305 81.456 
" clip-path="url(#p1b41e4ac19)" style="fill: none; stroke: #ffffff; stroke-linecap: round"/>
     </g>
    </g>
    <g id="xtick_4">
     <g id="line2d_4">
      <path d="M 457.076161 195.716265 
L 457.076161 81.456 
" clip-path="url(#p1b41e4ac19)" style="fill: none; stroke: #ffffff; stroke-linecap: round"/>
     </g>
    </g>
   </g>
   <g id="matplotlib.axis_2">
    <g id="ytick_1">
     <g id="line2d_5">
      <path d="M 170.340091 192.781628 
L 462.70916 192.781628 
" clip-path="url(#p1b41e4ac19)" style="fill: none; stroke: #ffffff; stroke-linecap: round"/>
     </g>
     <g id="text_1">
      <!-- −0.1 -->
      <g style="fill: #262626" transform="translate(104.746794 201.557823) scale(0.231 -0.231)">
       <defs>
        <path id="DejaVuSans-2212" d="M 678 2272 
L 4684 2272 
L 4684 1741 
L 678 1741 
L 678 2272 
z
" transform="scale(0.015625)"/>
        <path id="DejaVuSans-30" d="M 2034 4250 
Q 1547 4250 1301 3770 
Q 1056 3291 1056 2328 
Q 1056 1369 1301 889 
Q 1547 409 2034 409 
Q 2525 409 2770 889 
Q 3016 1369 3016 2328 
Q 3016 3291 2770 3770 
Q 2525 4250 2034 4250 
z
M 2034 4750 
Q 2819 4750 3233 4129 
Q 3647 3509 3647 2328 
Q 3647 1150 3233 529 
Q 2819 -91 2034 -91 
Q 1250 -91 836 529 
Q 422 1150 422 2328 
Q 422 3509 836 4129 
Q 1250 4750 2034 4750 
z
" transform="scale(0.015625)"/>
        <path id="DejaVuSans-2e" d="M 684 794 
L 1344 794 
L 1344 0 
L 684 0 
L 684 794 
z
" transform="scale(0.015625)"/>
        <path id="DejaVuSans-31" d="M 794 531 
L 1825 531 
L 1825 4091 
L 703 3866 
L 703 4441 
L 1819 4666 
L 2450 4666 
L 2450 531 
L 3481 531 
L 3481 0 
L 794 0 
L 794 531 
z
" transform="scale(0.015625)"/>
       </defs>
       <use xlink:href="#DejaVuSans-2212"/>
       <use xlink:href="#DejaVuSans-30" x="83.789062"/>
       <use xlink:href="#DejaVuSans-2e" x="147.412109"/>
       <use xlink:href="#DejaVuSans-31" x="179.199219"/>
      </g>
     </g>
    </g>
    <g id="ytick_2">
     <g id="line2d_6">
      <path d="M 170.340091 102.009025 
L 462.70916 102.009025 
" clip-path="url(#p1b41e4ac19)" style="fill: none; stroke: #ffffff; stroke-linecap: round"/>
     </g>
     <g id="text_2">
      <!-- 0.0 -->
      <g style="fill: #262626" transform="translate(124.103872 110.78522) scale(0.231 -0.231)">
       <use xlink:href="#DejaVuSans-30"/>
       <use xlink:href="#DejaVuSans-2e" x="63.623047"/>
       <use xlink:href="#DejaVuSans-30" x="95.410156"/>
      </g>
     </g>
    </g>
    <g id="text_3">
     <!-- % change -->
     <g style="fill: #262626" transform="translate(95.505982 200.934476) rotate(-90) scale(0.252 -0.252)">
      <defs>
       <path id="DejaVuSans-25" d="M 4653 2053 
Q 4381 2053 4226 1822 
Q 4072 1591 4072 1178 
Q 4072 772 4226 539 
Q 4381 306 4653 306 
Q 4919 306 5073 539 
Q 5228 772 5228 1178 
Q 5228 1588 5073 1820 
Q 4919 2053 4653 2053 
z
M 4653 2450 
Q 5147 2450 5437 2106 
Q 5728 1763 5728 1178 
Q 5728 594 5436 251 
Q 5144 -91 4653 -91 
Q 4153 -91 3862 251 
Q 3572 594 3572 1178 
Q 3572 1766 3864 2108 
Q 4156 2450 4653 2450 
z
M 1428 4353 
Q 1159 4353 1004 4120 
Q 850 3888 850 3481 
Q 850 3069 1003 2837 
Q 1156 2606 1428 2606 
Q 1700 2606 1854 2837 
Q 2009 3069 2009 3481 
Q 2009 3884 1853 4118 
Q 1697 4353 1428 4353 
z
M 4250 4750 
L 4750 4750 
L 1831 -91 
L 1331 -91 
L 4250 4750 
z
M 1428 4750 
Q 1922 4750 2215 4408 
Q 2509 4066 2509 3481 
Q 2509 2891 2217 2550 
Q 1925 2209 1428 2209 
Q 931 2209 642 2551 
Q 353 2894 353 3481 
Q 353 4063 643 4406 
Q 934 4750 1428 4750 
z
" transform="scale(0.015625)"/>
       <path id="DejaVuSans-20" transform="scale(0.015625)"/>
       <path id="DejaVuSans-63" d="M 3122 3366 
L 3122 2828 
Q 2878 2963 2633 3030 
Q 2388 3097 2138 3097 
Q 1578 3097 1268 2742 
Q 959 2388 959 1747 
Q 959 1106 1268 751 
Q 1578 397 2138 397 
Q 2388 397 2633 464 
Q 2878 531 3122 666 
L 3122 134 
Q 2881 22 2623 -34 
Q 2366 -91 2075 -91 
Q 1284 -91 818 406 
Q 353 903 353 1747 
Q 353 2603 823 3093 
Q 1294 3584 2113 3584 
Q 2378 3584 2631 3529 
Q 2884 3475 3122 3366 
z
" transform="scale(0.015625)"/>
       <path id="DejaVuSans-68" d="M 3513 2113 
L 3513 0 
L 2938 0 
L 2938 2094 
Q 2938 2591 2744 2837 
Q 2550 3084 2163 3084 
Q 1697 3084 1428 2787 
Q 1159 2491 1159 1978 
L 1159 0 
L 581 0 
L 581 4863 
L 1159 4863 
L 1159 2956 
Q 1366 3272 1645 3428 
Q 1925 3584 2291 3584 
Q 2894 3584 3203 3211 
Q 3513 2838 3513 2113 
z
" transform="scale(0.015625)"/>
       <path id="DejaVuSans-61" d="M 2194 1759 
Q 1497 1759 1228 1600 
Q 959 1441 959 1056 
Q 959 750 1161 570 
Q 1363 391 1709 391 
Q 2188 391 2477 730 
Q 2766 1069 2766 1631 
L 2766 1759 
L 2194 1759 
z
M 3341 1997 
L 3341 0 
L 2766 0 
L 2766 531 
Q 2569 213 2275 61 
Q 1981 -91 1556 -91 
Q 1019 -91 701 211 
Q 384 513 384 1019 
Q 384 1609 779 1909 
Q 1175 2209 1959 2209 
L 2766 2209 
L 2766 2266 
Q 2766 2663 2505 2880 
Q 2244 3097 1772 3097 
Q 1472 3097 1187 3025 
Q 903 2953 641 2809 
L 641 3341 
Q 956 3463 1253 3523 
Q 1550 3584 1831 3584 
Q 2591 3584 2966 3190 
Q 3341 2797 3341 1997 
z
" transform="scale(0.015625)"/>
       <path id="DejaVuSans-6e" d="M 3513 2113 
L 3513 0 
L 2938 0 
L 2938 2094 
Q 2938 2591 2744 2837 
Q 2550 3084 2163 3084 
Q 1697 3084 1428 2787 
Q 1159 2491 1159 1978 
L 1159 0 
L 581 0 
L 581 3500 
L 1159 3500 
L 1159 2956 
Q 1366 3272 1645 3428 
Q 1925 3584 2291 3584 
Q 2894 3584 3203 3211 
Q 3513 2838 3513 2113 
z
" transform="scale(0.015625)"/>
       <path id="DejaVuSans-67" d="M 2906 1791 
Q 2906 2416 2648 2759 
Q 2391 3103 1925 3103 
Q 1463 3103 1205 2759 
Q 947 2416 947 1791 
Q 947 1169 1205 825 
Q 1463 481 1925 481 
Q 2391 481 2648 825 
Q 2906 1169 2906 1791 
z
M 3481 434 
Q 3481 -459 3084 -895 
Q 2688 -1331 1869 -1331 
Q 1566 -1331 1297 -1286 
Q 1028 -1241 775 -1147 
L 775 -588 
Q 1028 -725 1275 -790 
Q 1522 -856 1778 -856 
Q 2344 -856 2625 -561 
Q 2906 -266 2906 331 
L 2906 616 
Q 2728 306 2450 153 
Q 2172 0 1784 0 
Q 1141 0 747 490 
Q 353 981 353 1791 
Q 353 2603 747 3093 
Q 1141 3584 1784 3584 
Q 2172 3584 2450 3431 
Q 2728 3278 2906 2969 
L 2906 3500 
L 3481 3500 
L 3481 434 
z
" transform="scale(0.015625)"/>
       <path id="DejaVuSans-65" d="M 3597 1894 
L 3597 1613 
L 953 1613 
Q 991 1019 1311 708 
Q 1631 397 2203 397 
Q 2534 397 2845 478 
Q 3156 559 3463 722 
L 3463 178 
Q 3153 47 2828 -22 
Q 2503 -91 2169 -91 
Q 1331 -91 842 396 
Q 353 884 353 1716 
Q 353 2575 817 3079 
Q 1281 3584 2069 3584 
Q 2775 3584 3186 3129 
Q 3597 2675 3597 1894 
z
M 3022 2063 
Q 3016 2534 2758 2815 
Q 2500 3097 2075 3097 
Q 1594 3097 1305 2825 
Q 1016 2553 972 2059 
L 3022 2063 
z
" transform="scale(0.015625)"/>
      </defs>
      <use xlink:href="#DejaVuSans-25"/>
      <use xlink:href="#DejaVuSans-20" x="95.019531"/>
      <use xlink:href="#DejaVuSans-63" x="126.806641"/>
      <use xlink:href="#DejaVuSans-68" x="181.787109"/>
      <use xlink:href="#DejaVuSans-61" x="245.166016"/>
      <use xlink:href="#DejaVuSans-6e" x="306.445312"/>
      <use xlink:href="#DejaVuSans-67" x="369.824219"/>
      <use xlink:href="#DejaVuSans-65" x="433.300781"/>
     </g>
    </g>
   </g>
   <g id="PolyCollection_1"/>
   <g id="PolyCollection_2"/>
   <g id="PolyCollection_3"/>
   <g id="PolyCollection_4"/>
   <g id="PolyCollection_5"/>
   <g id="PolyCollection_6"/>
   <g id="line2d_7">
    <path d="M 183.629594 102.009025 
L 189.827716 123.284388 
L 190.921503 125.870218 
L 191.650694 127.1028 
L 192.379884 127.946496 
L 193.109075 128.40527 
L 193.838266 128.523043 
L 195.296648 128.316283 
L 212.432633 125.479608 
L 221.912114 124.243862 
L 232.849976 123.052116 
L 243.787839 122.075607 
L 259.465442 120.987679 
L 290.091458 119.111065 
L 385.980054 113.553969 
L 449.419657 109.89809 
L 449.419657 109.89809 
" clip-path="url(#p1b41e4ac19)" style="fill: none; stroke: #4c72b0; stroke-opacity: 0.9; stroke-width: 3; stroke-linecap: round"/>
   </g>
   <g id="line2d_8">
    <path d="M 183.629594 102.009025 
L 186.910953 108.423148 
L 189.827716 113.859665 
L 190.921503 115.34443 
L 192.015289 116.343093 
L 192.74448 116.741088 
L 193.473671 116.930721 
L 194.567457 116.941191 
L 232.485381 113.858324 
L 253.996511 112.618402 
L 279.153595 111.454349 
L 380.875718 107.225822 
L 449.419657 104.394841 
L 449.419657 104.394841 
" clip-path="url(#p1b41e4ac19)" style="fill: none; stroke: #dd8452; stroke-opacity: 0.9; stroke-width: 3; stroke-linecap: round"/>
   </g>
   <g id="line2d_9">
    <path d="M 183.629594 102.009025 
L 185.817167 110.285645 
L 189.463121 123.686144 
L 190.556907 126.773629 
L 191.286098 128.29908 
L 192.015289 129.401311 
L 192.74448 130.084921 
L 193.473671 130.362869 
L 194.202861 130.357591 
L 198.578007 129.469463 
L 207.328297 127.817921 
L 215.713991 126.464451 
L 223.735091 125.392755 
L 231.391595 124.610838 
L 241.600266 123.814793 
L 256.913274 122.864396 
L 284.257931 121.421149 
L 362.281351 117.606578 
L 449.419657 113.381288 
L 449.419657 113.381288 
" clip-path="url(#p1b41e4ac19)" style="fill: none; stroke: #55a868; stroke-opacity: 0.9; stroke-width: 3; stroke-linecap: round"/>
   </g>
   <g id="line2d_10">
    <path d="M 183.629594 102.009025 
L 185.817167 108.519093 
L 189.463121 119.056787 
L 190.556907 121.487859 
L 191.286098 122.689979 
L 192.015289 123.559373 
L 192.74448 124.099774 
L 193.473671 124.32285 
L 194.567457 124.27489 
L 208.057488 122.302462 
L 218.630755 121.023352 
L 227.74564 120.127192 
L 237.589717 119.415608 
L 252.538129 118.5869 
L 279.153595 117.363737 
L 357.541611 114.067647 
L 449.419657 110.239959 
L 449.419657 110.239959 
" clip-path="url(#p1b41e4ac19)" style="fill: none; stroke: #c44e52; stroke-opacity: 0.9; stroke-width: 3; stroke-linecap: round"/>
   </g>
   <g id="line2d_11">
    <path d="M 183.629594 102.009025 
L 190.192312 123.420724 
L 190.921503 124.959487 
L 191.650694 126.119389 
L 192.379884 126.904106 
L 193.109075 127.317296 
L 193.838266 127.399361 
L 195.661243 127.081643 
L 218.630755 122.730788 
L 225.922663 121.616142 
L 234.672953 120.51757 
L 241.600266 119.84918 
L 253.26732 118.99788 
L 273.684664 117.760853 
L 316.342328 115.441732 
L 449.419657 108.44385 
L 449.419657 108.44385 
" clip-path="url(#p1b41e4ac19)" style="fill: none; stroke: #8172b3; stroke-opacity: 0.9; stroke-width: 3; stroke-linecap: round"/>
   </g>
   <g id="line2d_12">
    <path d="M 183.629594 102.009025 
L 189.827716 118.381568 
L 190.921503 120.345293 
L 191.650694 121.277039 
L 192.379884 121.910126 
L 193.109075 122.248063 
L 193.838266 122.326242 
L 195.661243 122.095437 
L 218.99535 118.792983 
L 228.839427 117.676844 
L 239.777289 116.661351 
L 248.892175 116.052103 
L 269.674114 114.917109 
L 315.977733 112.66913 
L 449.419657 106.356293 
L 449.419657 106.356293 
" clip-path="url(#p1b41e4ac19)" style="fill: none; stroke: #937860; stroke-opacity: 0.9; stroke-width: 3; stroke-linecap: round"/>
   </g>
   <g id="patch_3">
    <path d="M 170.340091 195.716265 
L 170.340091 81.456 
" style="fill: none; stroke: #ffffff; stroke-width: 1.25; stroke-linejoin: miter; stroke-linecap: square"/>
   </g>
   <g id="patch_4">
    <path d="M 170.340091 195.716265 
L 462.70916 195.716265 
" style="fill: none; stroke: #ffffff; stroke-width: 1.25; stroke-linejoin: miter; stroke-linecap: square"/>
   </g>
   <g id="text_4">
    <!-- 0.5~30 -->
    <g style="fill: #262626" transform="translate(269.894782 75.456) scale(0.252 -0.252)">
     <defs>
      <path id="DejaVuSans-35" d="M 691 4666 
L 3169 4666 
L 3169 4134 
L 1269 4134 
L 1269 2991 
Q 1406 3038 1543 3061 
Q 1681 3084 1819 3084 
Q 2600 3084 3056 2656 
Q 3513 2228 3513 1497 
Q 3513 744 3044 326 
Q 2575 -91 1722 -91 
Q 1428 -91 1123 -41 
Q 819 9 494 109 
L 494 744 
Q 775 591 1075 516 
Q 1375 441 1709 441 
Q 2250 441 2565 725 
Q 2881 1009 2881 1497 
Q 2881 1984 2565 2268 
Q 2250 2553 1709 2553 
Q 1456 2553 1204 2497 
Q 953 2441 691 2322 
L 691 4666 
z
" transform="scale(0.015625)"/>
      <path id="DejaVuSans-7e" d="M 4684 2553 
L 4684 1997 
Q 4356 1750 4076 1644 
Q 3797 1538 3494 1538 
Q 3150 1538 2694 1722 
Q 2659 1734 2644 1741 
Q 2622 1750 2575 1766 
Q 2091 1959 1797 1959 
Q 1522 1959 1253 1839 
Q 984 1719 678 1459 
L 678 2016 
Q 1006 2263 1286 2370 
Q 1566 2478 1869 2478 
Q 2213 2478 2672 2291 
Q 2703 2278 2719 2272 
Q 2744 2263 2788 2247 
Q 3272 2053 3566 2053 
Q 3834 2053 4098 2172 
Q 4363 2291 4684 2553 
z
" transform="scale(0.015625)"/>
      <path id="DejaVuSans-33" d="M 2597 2516 
Q 3050 2419 3304 2112 
Q 3559 1806 3559 1356 
Q 3559 666 3084 287 
Q 2609 -91 1734 -91 
Q 1441 -91 1130 -33 
Q 819 25 488 141 
L 488 750 
Q 750 597 1062 519 
Q 1375 441 1716 441 
Q 2309 441 2620 675 
Q 2931 909 2931 1356 
Q 2931 1769 2642 2001 
Q 2353 2234 1838 2234 
L 1294 2234 
L 1294 2753 
L 1863 2753 
Q 2328 2753 2575 2939 
Q 2822 3125 2822 3475 
Q 2822 3834 2567 4026 
Q 2313 4219 1838 4219 
Q 1578 4219 1281 4162 
Q 984 4106 628 3988 
L 628 4550 
Q 988 4650 1302 4700 
Q 1616 4750 1894 4750 
Q 2613 4750 3031 4423 
Q 3450 4097 3450 3541 
Q 3450 3153 3228 2886 
Q 3006 2619 2597 2516 
z
" transform="scale(0.015625)"/>
     </defs>
     <use xlink:href="#DejaVuSans-30"/>
     <use xlink:href="#DejaVuSans-2e" x="63.623047"/>
     <use xlink:href="#DejaVuSans-35" x="95.410156"/>
     <use xlink:href="#DejaVuSans-7e" x="159.033203"/>
     <use xlink:href="#DejaVuSans-33" x="242.822266"/>
     <use xlink:href="#DejaVuSans-30" x="306.445312"/>
    </g>
   </g>
  </g>
  <g id="axes_2">
   <g id="patch_5">
    <path d="M 489.290298 195.716265 
L 781.659367 195.716265 
L 781.659367 81.456 
L 489.290298 81.456 
z
" style="fill: #eaeaf2"/>
   </g>
   <g id="matplotlib.axis_3">
    <g id="xtick_5">
     <g id="line2d_13">
      <path d="M 502.579801 195.716265 
L 502.579801 81.456 
" clip-path="url(#pa8b7e51bea)" style="fill: none; stroke: #ffffff; stroke-linecap: round"/>
     </g>
    </g>
    <g id="xtick_6">
     <g id="line2d_14">
      <path d="M 593.728656 195.716265 
L 593.728656 81.456 
" clip-path="url(#pa8b7e51bea)" style="fill: none; stroke: #ffffff; stroke-linecap: round"/>
     </g>
    </g>
    <g id="xtick_7">
     <g id="line2d_15">
      <path d="M 684.877512 195.716265 
L 684.877512 81.456 
" clip-path="url(#pa8b7e51bea)" style="fill: none; stroke: #ffffff; stroke-linecap: round"/>
     </g>
    </g>
    <g id="xtick_8">
     <g id="line2d_16">
      <path d="M 776.026368 195.716265 
L 776.026368 81.456 
" clip-path="url(#pa8b7e51bea)" style="fill: none; stroke: #ffffff; stroke-linecap: round"/>
     </g>
    </g>
   </g>
   <g id="matplotlib.axis_4">
    <g id="ytick_3">
     <g id="line2d_17">
      <path d="M 489.290298 192.781628 
L 781.659367 192.781628 
" clip-path="url(#pa8b7e51bea)" style="fill: none; stroke: #ffffff; stroke-linecap: round"/>
     </g>
    </g>
    <g id="ytick_4">
     <g id="line2d_18">
      <path d="M 489.290298 102.009025 
L 781.659367 102.009025 
" clip-path="url(#pa8b7e51bea)" style="fill: none; stroke: #ffffff; stroke-linecap: round"/>
     </g>
    </g>
   </g>
   <g id="PolyCollection_7"/>
   <g id="PolyCollection_8"/>
   <g id="PolyCollection_9"/>
   <g id="PolyCollection_10"/>
   <g id="PolyCollection_11"/>
   <g id="PolyCollection_12"/>
   <g id="line2d_19">
    <path d="M 502.579801 102.009025 
L 505.496564 112.479641 
L 508.777923 124.083536 
L 509.871709 126.983031 
L 510.6009 128.443794 
L 511.330091 129.527149 
L 512.059282 130.234351 
L 512.788473 130.568935 
L 513.882259 130.608383 
L 602.478947 128.708231 
L 633.104962 128.395886 
L 700.555115 127.974087 
L 768.369864 127.615059 
L 768.369864 127.615059 
" clip-path="url(#pa8b7e51bea)" style="fill: none; stroke: #4c72b0; stroke-opacity: 0.9; stroke-width: 3; stroke-linecap: round"/>
   </g>
   <g id="line2d_20">
    <path d="M 502.579801 102.009025 
L 504.767373 106.329374 
L 508.777923 114.23933 
L 509.871709 115.873494 
L 510.965495 117.037702 
L 511.694686 117.552663 
L 512.423877 117.859339 
L 513.517663 117.981184 
L 524.455526 117.865398 
L 618.521145 116.898164 
L 697.273756 116.551357 
L 768.369864 116.277497 
L 768.369864 116.277497 
" clip-path="url(#pa8b7e51bea)" style="fill: none; stroke: #dd8452; stroke-opacity: 0.9; stroke-width: 3; stroke-linecap: round"/>
   </g>
   <g id="line2d_21">
    <path d="M 502.579801 102.009025 
L 504.402778 108.959168 
L 508.777923 125.651188 
L 509.871709 128.74735 
L 510.6009 130.303335 
L 511.330091 131.453222 
L 512.059282 132.200746 
L 512.788473 132.555851 
L 513.882259 132.598324 
L 549.977206 131.641839 
L 584.613771 130.813516 
L 608.312473 130.49336 
L 645.865802 130.238902 
L 768.369864 129.71172 
L 768.369864 129.71172 
" clip-path="url(#pa8b7e51bea)" style="fill: none; stroke: #55a868; stroke-opacity: 0.9; stroke-width: 3; stroke-linecap: round"/>
   </g>
   <g id="line2d_22">
    <path d="M 502.579801 102.009025 
L 504.402778 107.476175 
L 508.777923 120.611265 
L 509.871709 123.051473 
L 510.6009 124.278414 
L 511.330091 125.185446 
L 512.059282 125.776833 
L 512.788473 126.059498 
L 513.882259 126.09568 
L 555.446137 125.267801 
L 590.447298 124.665345 
L 622.531695 124.377963 
L 684.877512 124.112558 
L 768.369864 123.815291 
L 768.369864 123.815291 
" clip-path="url(#pa8b7e51bea)" style="fill: none; stroke: #c44e52; stroke-opacity: 0.9; stroke-width: 3; stroke-linecap: round"/>
   </g>
   <g id="line2d_23">
    <path d="M 502.579801 102.009025 
L 505.131969 110.840035 
L 508.777923 123.28057 
L 509.871709 126.028946 
L 510.6009 127.404452 
L 511.330091 128.414819 
L 512.059282 129.061264 
L 512.788473 129.355075 
L 514.246854 129.362937 
L 613.781405 126.926268 
L 642.949038 126.505458 
L 685.242107 126.149239 
L 768.369864 125.677203 
L 768.369864 125.677203 
" clip-path="url(#pa8b7e51bea)" style="fill: none; stroke: #8172b3; stroke-opacity: 0.9; stroke-width: 3; stroke-linecap: round"/>
   </g>
   <g id="line2d_24">
    <path d="M 502.579801 102.009025 
L 505.496564 110.068081 
L 508.777923 118.971229 
L 509.871709 121.161292 
L 510.6009 122.257729 
L 511.330091 123.063623 
L 512.059282 123.581736 
L 512.788473 123.82002 
L 514.246854 123.831562 
L 604.666519 122.163436 
L 645.501206 121.733832 
L 708.211619 121.348759 
L 768.369864 121.060704 
L 768.369864 121.060704 
" clip-path="url(#pa8b7e51bea)" style="fill: none; stroke: #937860; stroke-opacity: 0.9; stroke-width: 3; stroke-linecap: round"/>
   </g>
   <g id="patch_6">
    <path d="M 489.290298 195.716265 
L 489.290298 81.456 
" style="fill: none; stroke: #ffffff; stroke-width: 1.25; stroke-linejoin: miter; stroke-linecap: square"/>
   </g>
   <g id="patch_7">
    <path d="M 489.290298 195.716265 
L 781.659367 195.716265 
" style="fill: none; stroke: #ffffff; stroke-width: 1.25; stroke-linejoin: miter; stroke-linecap: square"/>
   </g>
   <g id="text_5">
    <!-- 0.5~365 -->
    <g style="fill: #262626" transform="translate(580.828239 75.456) scale(0.252 -0.252)">
     <defs>
      <path id="DejaVuSans-36" d="M 2113 2584 
Q 1688 2584 1439 2293 
Q 1191 2003 1191 1497 
Q 1191 994 1439 701 
Q 1688 409 2113 409 
Q 2538 409 2786 701 
Q 3034 994 3034 1497 
Q 3034 2003 2786 2293 
Q 2538 2584 2113 2584 
z
M 3366 4563 
L 3366 3988 
Q 3128 4100 2886 4159 
Q 2644 4219 2406 4219 
Q 1781 4219 1451 3797 
Q 1122 3375 1075 2522 
Q 1259 2794 1537 2939 
Q 1816 3084 2150 3084 
Q 2853 3084 3261 2657 
Q 3669 2231 3669 1497 
Q 3669 778 3244 343 
Q 2819 -91 2113 -91 
Q 1303 -91 875 529 
Q 447 1150 447 2328 
Q 447 3434 972 4092 
Q 1497 4750 2381 4750 
Q 2619 4750 2861 4703 
Q 3103 4656 3366 4563 
z
" transform="scale(0.015625)"/>
     </defs>
     <use xlink:href="#DejaVuSans-30"/>
     <use xlink:href="#DejaVuSans-2e" x="63.623047"/>
     <use xlink:href="#DejaVuSans-35" x="95.410156"/>
     <use xlink:href="#DejaVuSans-7e" x="159.033203"/>
     <use xlink:href="#DejaVuSans-33" x="242.822266"/>
     <use xlink:href="#DejaVuSans-36" x="306.445312"/>
     <use xlink:href="#DejaVuSans-35" x="370.068359"/>
    </g>
   </g>
  </g>
  <g id="axes_3">
   <g id="patch_8">
    <path d="M 808.240504 195.716265 
L 1100.609573 195.716265 
L 1100.609573 81.456 
L 808.240504 81.456 
z
" style="fill: #eaeaf2"/>
   </g>
   <g id="matplotlib.axis_5">
    <g id="xtick_9">
     <g id="line2d_25">
      <path d="M 821.530007 195.716265 
L 821.530007 81.456 
" clip-path="url(#p69f3f1a1be)" style="fill: none; stroke: #ffffff; stroke-linecap: round"/>
     </g>
    </g>
    <g id="xtick_10">
     <g id="line2d_26">
      <path d="M 912.678863 195.716265 
L 912.678863 81.456 
" clip-path="url(#p69f3f1a1be)" style="fill: none; stroke: #ffffff; stroke-linecap: round"/>
     </g>
    </g>
    <g id="xtick_11">
     <g id="line2d_27">
      <path d="M 1003.827719 195.716265 
L 1003.827719 81.456 
" clip-path="url(#p69f3f1a1be)" style="fill: none; stroke: #ffffff; stroke-linecap: round"/>
     </g>
    </g>
    <g id="xtick_12">
     <g id="line2d_28">
      <path d="M 1094.976574 195.716265 
L 1094.976574 81.456 
" clip-path="url(#p69f3f1a1be)" style="fill: none; stroke: #ffffff; stroke-linecap: round"/>
     </g>
    </g>
   </g>
   <g id="matplotlib.axis_6">
    <g id="ytick_5">
     <g id="line2d_29">
      <path d="M 808.240504 192.781628 
L 1100.609573 192.781628 
" clip-path="url(#p69f3f1a1be)" style="fill: none; stroke: #ffffff; stroke-linecap: round"/>
     </g>
    </g>
    <g id="ytick_6">
     <g id="line2d_30">
      <path d="M 808.240504 102.009025 
L 1100.609573 102.009025 
" clip-path="url(#p69f3f1a1be)" style="fill: none; stroke: #ffffff; stroke-linecap: round"/>
     </g>
    </g>
   </g>
   <g id="PolyCollection_13"/>
   <g id="PolyCollection_14"/>
   <g id="PolyCollection_15"/>
   <g id="PolyCollection_16"/>
   <g id="PolyCollection_17"/>
   <g id="PolyCollection_18"/>
   <g id="line2d_31">
    <path d="M 821.530007 102.009025 
L 827.728129 123.284388 
L 828.821916 125.870218 
L 829.551107 127.1028 
L 830.280297 127.946496 
L 831.009488 128.40527 
L 831.738679 128.523043 
L 833.197061 128.316283 
L 850.333046 125.479608 
L 859.812527 124.243862 
L 870.750389 123.052116 
L 881.688252 122.075607 
L 897.365855 120.987679 
L 927.991871 119.111065 
L 1023.880467 113.553969 
L 1087.32007 109.89809 
L 1087.32007 109.89809 
" clip-path="url(#p69f3f1a1be)" style="fill: none; stroke: #4c72b0; stroke-opacity: 0.9; stroke-width: 3; stroke-linecap: round"/>
   </g>
   <g id="line2d_32">
    <path d="M 821.530007 102.009025 
L 824.811366 108.423148 
L 827.728129 113.859665 
L 828.821916 115.34443 
L 829.915702 116.343093 
L 830.644893 116.741088 
L 831.374084 116.930721 
L 832.46787 116.941191 
L 870.385794 113.858324 
L 891.896924 112.618402 
L 917.054008 111.454349 
L 1018.776131 107.225822 
L 1087.32007 104.394841 
L 1087.32007 104.394841 
" clip-path="url(#p69f3f1a1be)" style="fill: none; stroke: #dd8452; stroke-opacity: 0.9; stroke-width: 3; stroke-linecap: round"/>
   </g>
   <g id="line2d_33">
    <path d="M 821.530007 102.009025 
L 823.71758 110.285645 
L 827.363534 123.686144 
L 828.45732 126.773629 
L 829.186511 128.29908 
L 829.915702 129.401311 
L 830.644893 130.084921 
L 831.374084 130.362869 
L 832.103275 130.357591 
L 836.47842 129.469463 
L 845.22871 127.817921 
L 853.614404 126.464451 
L 861.635504 125.392755 
L 869.292008 124.610838 
L 879.500679 123.814793 
L 894.813687 122.864396 
L 922.158344 121.421149 
L 1000.181764 117.606578 
L 1087.32007 113.381288 
L 1087.32007 113.381288 
" clip-path="url(#p69f3f1a1be)" style="fill: none; stroke: #55a868; stroke-opacity: 0.9; stroke-width: 3; stroke-linecap: round"/>
   </g>
   <g id="line2d_34">
    <path d="M 821.530007 102.009025 
L 823.71758 108.519093 
L 827.363534 119.056787 
L 828.45732 121.487859 
L 829.186511 122.689979 
L 829.915702 123.559373 
L 830.644893 124.099774 
L 831.374084 124.32285 
L 832.46787 124.27489 
L 845.957901 122.302462 
L 856.531168 121.023352 
L 865.646053 120.127192 
L 875.49013 119.415608 
L 890.438542 118.5869 
L 917.054008 117.363737 
L 995.442024 114.067647 
L 1087.32007 110.239959 
L 1087.32007 110.239959 
" clip-path="url(#p69f3f1a1be)" style="fill: none; stroke: #c44e52; stroke-opacity: 0.9; stroke-width: 3; stroke-linecap: round"/>
   </g>
   <g id="line2d_35">
    <path d="M 821.530007 102.009025 
L 828.092725 123.420724 
L 828.821916 124.959487 
L 829.551107 126.119389 
L 830.280297 126.904106 
L 831.009488 127.317296 
L 831.738679 127.399361 
L 833.561656 127.081643 
L 856.531168 122.730788 
L 863.823076 121.616142 
L 872.573366 120.51757 
L 879.500679 119.84918 
L 891.167733 118.99788 
L 911.585077 117.760853 
L 954.242741 115.441732 
L 1087.32007 108.44385 
L 1087.32007 108.44385 
" clip-path="url(#p69f3f1a1be)" style="fill: none; stroke: #8172b3; stroke-opacity: 0.9; stroke-width: 3; stroke-linecap: round"/>
   </g>
   <g id="line2d_36">
    <path d="M 821.530007 102.009025 
L 827.728129 118.381568 
L 828.821916 120.345293 
L 829.551107 121.277039 
L 830.280297 121.910126 
L 831.009488 122.248063 
L 831.738679 122.326242 
L 833.561656 122.095437 
L 856.895763 118.792983 
L 866.73984 117.676844 
L 877.677702 116.661351 
L 886.792588 116.052103 
L 907.574527 114.917109 
L 953.878146 112.66913 
L 1087.32007 106.356293 
L 1087.32007 106.356293 
" clip-path="url(#p69f3f1a1be)" style="fill: none; stroke: #937860; stroke-opacity: 0.9; stroke-width: 3; stroke-linecap: round"/>
   </g>
   <g id="patch_9">
    <path d="M 808.240504 195.716265 
L 808.240504 81.456 
" style="fill: none; stroke: #ffffff; stroke-width: 1.25; stroke-linejoin: miter; stroke-linecap: square"/>
   </g>
   <g id="patch_10">
    <path d="M 808.240504 195.716265 
L 1100.609573 195.716265 
" style="fill: none; stroke: #ffffff; stroke-width: 1.25; stroke-linejoin: miter; stroke-linecap: square"/>
   </g>
   <g id="text_6">
    <!-- 0.8~30 -->
    <g style="fill: #262626" transform="translate(907.795195 75.456) scale(0.252 -0.252)">
     <defs>
      <path id="DejaVuSans-38" d="M 2034 2216 
Q 1584 2216 1326 1975 
Q 1069 1734 1069 1313 
Q 1069 891 1326 650 
Q 1584 409 2034 409 
Q 2484 409 2743 651 
Q 3003 894 3003 1313 
Q 3003 1734 2745 1975 
Q 2488 2216 2034 2216 
z
M 1403 2484 
Q 997 2584 770 2862 
Q 544 3141 544 3541 
Q 544 4100 942 4425 
Q 1341 4750 2034 4750 
Q 2731 4750 3128 4425 
Q 3525 4100 3525 3541 
Q 3525 3141 3298 2862 
Q 3072 2584 2669 2484 
Q 3125 2378 3379 2068 
Q 3634 1759 3634 1313 
Q 3634 634 3220 271 
Q 2806 -91 2034 -91 
Q 1263 -91 848 271 
Q 434 634 434 1313 
Q 434 1759 690 2068 
Q 947 2378 1403 2484 
z
M 1172 3481 
Q 1172 3119 1398 2916 
Q 1625 2713 2034 2713 
Q 2441 2713 2670 2916 
Q 2900 3119 2900 3481 
Q 2900 3844 2670 4047 
Q 2441 4250 2034 4250 
Q 1625 4250 1398 4047 
Q 1172 3844 1172 3481 
z
" transform="scale(0.015625)"/>
     </defs>
     <use xlink:href="#DejaVuSans-30"/>
     <use xlink:href="#DejaVuSans-2e" x="63.623047"/>
     <use xlink:href="#DejaVuSans-38" x="95.410156"/>
     <use xlink:href="#DejaVuSans-7e" x="159.033203"/>
     <use xlink:href="#DejaVuSans-33" x="242.822266"/>
     <use xlink:href="#DejaVuSans-30" x="306.445312"/>
    </g>
   </g>
  </g>
  <g id="axes_4">
   <g id="patch_11">
    <path d="M 170.340091 373.284 
L 462.70916 373.284 
L 462.70916 259.023735 
L 170.340091 259.023735 
z
" style="fill: #eaeaf2"/>
   </g>
   <g id="matplotlib.axis_7">
    <g id="xtick_13">
     <g id="line2d_37">
      <path d="M 183.629594 373.284 
L 183.629594 259.023735 
" clip-path="url(#p50f4d21dbd)" style="fill: none; stroke: #ffffff; stroke-linecap: round"/>
     </g>
     <g id="text_7">
      <!-- 0 -->
      <g style="fill: #262626" transform="translate(176.280907 400.336391) scale(0.231 -0.231)">
       <use xlink:href="#DejaVuSans-30"/>
      </g>
     </g>
    </g>
    <g id="xtick_14">
     <g id="line2d_38">
      <path d="M 274.77845 373.284 
L 274.77845 259.023735 
" clip-path="url(#p50f4d21dbd)" style="fill: none; stroke: #ffffff; stroke-linecap: round"/>
     </g>
     <g id="text_8">
      <!-- 250 -->
      <g style="fill: #262626" transform="translate(252.732387 400.336391) scale(0.231 -0.231)">
       <defs>
        <path id="DejaVuSans-32" d="M 1228 531 
L 3431 531 
L 3431 0 
L 469 0 
L 469 531 
Q 828 903 1448 1529 
Q 2069 2156 2228 2338 
Q 2531 2678 2651 2914 
Q 2772 3150 2772 3378 
Q 2772 3750 2511 3984 
Q 2250 4219 1831 4219 
Q 1534 4219 1204 4116 
Q 875 4013 500 3803 
L 500 4441 
Q 881 4594 1212 4672 
Q 1544 4750 1819 4750 
Q 2544 4750 2975 4387 
Q 3406 4025 3406 3419 
Q 3406 3131 3298 2873 
Q 3191 2616 2906 2266 
Q 2828 2175 2409 1742 
Q 1991 1309 1228 531 
z
" transform="scale(0.015625)"/>
       </defs>
       <use xlink:href="#DejaVuSans-32"/>
       <use xlink:href="#DejaVuSans-35" x="63.623047"/>
       <use xlink:href="#DejaVuSans-30" x="127.246094"/>
      </g>
     </g>
    </g>
    <g id="xtick_15">
     <g id="line2d_39">
      <path d="M 365.927305 373.284 
L 365.927305 259.023735 
" clip-path="url(#p50f4d21dbd)" style="fill: none; stroke: #ffffff; stroke-linecap: round"/>
     </g>
     <g id="text_9">
      <!-- 500 -->
      <g style="fill: #262626" transform="translate(343.881243 400.336391) scale(0.231 -0.231)">
       <use xlink:href="#DejaVuSans-35"/>
       <use xlink:href="#DejaVuSans-30" x="63.623047"/>
       <use xlink:href="#DejaVuSans-30" x="127.246094"/>
      </g>
     </g>
    </g>
    <g id="xtick_16">
     <g id="line2d_40">
      <path d="M 457.076161 373.284 
L 457.076161 259.023735 
" clip-path="url(#p50f4d21dbd)" style="fill: none; stroke: #ffffff; stroke-linecap: round"/>
     </g>
     <g id="text_10">
      <!-- 750 -->
      <g style="fill: #262626" transform="translate(435.030099 400.336391) scale(0.231 -0.231)">
       <defs>
        <path id="DejaVuSans-37" d="M 525 4666 
L 3525 4666 
L 3525 4397 
L 1831 0 
L 1172 0 
L 2766 4134 
L 525 4134 
L 525 4666 
z
" transform="scale(0.015625)"/>
       </defs>
       <use xlink:href="#DejaVuSans-37"/>
       <use xlink:href="#DejaVuSans-35" x="63.623047"/>
       <use xlink:href="#DejaVuSans-30" x="127.246094"/>
      </g>
     </g>
    </g>
    <g id="text_11">
     <!-- step -->
     <g style="fill: #262626" transform="translate(289.269251 428.288531) scale(0.252 -0.252)">
      <defs>
       <path id="DejaVuSans-73" d="M 2834 3397 
L 2834 2853 
Q 2591 2978 2328 3040 
Q 2066 3103 1784 3103 
Q 1356 3103 1142 2972 
Q 928 2841 928 2578 
Q 928 2378 1081 2264 
Q 1234 2150 1697 2047 
L 1894 2003 
Q 2506 1872 2764 1633 
Q 3022 1394 3022 966 
Q 3022 478 2636 193 
Q 2250 -91 1575 -91 
Q 1294 -91 989 -36 
Q 684 19 347 128 
L 347 722 
Q 666 556 975 473 
Q 1284 391 1588 391 
Q 1994 391 2212 530 
Q 2431 669 2431 922 
Q 2431 1156 2273 1281 
Q 2116 1406 1581 1522 
L 1381 1569 
Q 847 1681 609 1914 
Q 372 2147 372 2553 
Q 372 3047 722 3315 
Q 1072 3584 1716 3584 
Q 2034 3584 2315 3537 
Q 2597 3491 2834 3397 
z
" transform="scale(0.015625)"/>
       <path id="DejaVuSans-74" d="M 1172 4494 
L 1172 3500 
L 2356 3500 
L 2356 3053 
L 1172 3053 
L 1172 1153 
Q 1172 725 1289 603 
Q 1406 481 1766 481 
L 2356 481 
L 2356 0 
L 1766 0 
Q 1100 0 847 248 
Q 594 497 594 1153 
L 594 3053 
L 172 3053 
L 172 3500 
L 594 3500 
L 594 4494 
L 1172 4494 
z
" transform="scale(0.015625)"/>
       <path id="DejaVuSans-70" d="M 1159 525 
L 1159 -1331 
L 581 -1331 
L 581 3500 
L 1159 3500 
L 1159 2969 
Q 1341 3281 1617 3432 
Q 1894 3584 2278 3584 
Q 2916 3584 3314 3078 
Q 3713 2572 3713 1747 
Q 3713 922 3314 415 
Q 2916 -91 2278 -91 
Q 1894 -91 1617 61 
Q 1341 213 1159 525 
z
M 3116 1747 
Q 3116 2381 2855 2742 
Q 2594 3103 2138 3103 
Q 1681 3103 1420 2742 
Q 1159 2381 1159 1747 
Q 1159 1113 1420 752 
Q 1681 391 2138 391 
Q 2594 391 2855 752 
Q 3116 1113 3116 1747 
z
" transform="scale(0.015625)"/>
      </defs>
      <use xlink:href="#DejaVuSans-73"/>
      <use xlink:href="#DejaVuSans-74" x="52.099609"/>
      <use xlink:href="#DejaVuSans-65" x="91.308594"/>
      <use xlink:href="#DejaVuSans-70" x="152.832031"/>
     </g>
    </g>
   </g>
   <g id="matplotlib.axis_8">
    <g id="ytick_7">
     <g id="line2d_41">
      <path d="M 170.340091 370.349363 
L 462.70916 370.349363 
" clip-path="url(#p50f4d21dbd)" style="fill: none; stroke: #ffffff; stroke-linecap: round"/>
     </g>
     <g id="text_12">
      <!-- −0.1 -->
      <g style="fill: #262626" transform="translate(104.746794 379.125558) scale(0.231 -0.231)">
       <use xlink:href="#DejaVuSans-2212"/>
       <use xlink:href="#DejaVuSans-30" x="83.789062"/>
       <use xlink:href="#DejaVuSans-2e" x="147.412109"/>
       <use xlink:href="#DejaVuSans-31" x="179.199219"/>
      </g>
     </g>
    </g>
    <g id="ytick_8">
     <g id="line2d_42">
      <path d="M 170.340091 279.57676 
L 462.70916 279.57676 
" clip-path="url(#p50f4d21dbd)" style="fill: none; stroke: #ffffff; stroke-linecap: round"/>
     </g>
     <g id="text_13">
      <!-- 0.0 -->
      <g style="fill: #262626" transform="translate(124.103872 288.352955) scale(0.231 -0.231)">
       <use xlink:href="#DejaVuSans-30"/>
       <use xlink:href="#DejaVuSans-2e" x="63.623047"/>
       <use xlink:href="#DejaVuSans-30" x="95.410156"/>
      </g>
     </g>
    </g>
    <g id="text_14">
     <!-- % change -->
     <g style="fill: #262626" transform="translate(95.505982 378.502211) rotate(-90) scale(0.252 -0.252)">
      <use xlink:href="#DejaVuSans-25"/>
      <use xlink:href="#DejaVuSans-20" x="95.019531"/>
      <use xlink:href="#DejaVuSans-63" x="126.806641"/>
      <use xlink:href="#DejaVuSans-68" x="181.787109"/>
      <use xlink:href="#DejaVuSans-61" x="245.166016"/>
      <use xlink:href="#DejaVuSans-6e" x="306.445312"/>
      <use xlink:href="#DejaVuSans-67" x="369.824219"/>
      <use xlink:href="#DejaVuSans-65" x="433.300781"/>
     </g>
    </g>
   </g>
   <g id="PolyCollection_19"/>
   <g id="PolyCollection_20"/>
   <g id="PolyCollection_21"/>
   <g id="PolyCollection_22"/>
   <g id="PolyCollection_23"/>
   <g id="PolyCollection_24"/>
   <g id="line2d_43">
    <path d="M 183.629594 279.57676 
L 186.546358 290.047376 
L 189.827716 301.651271 
L 190.921503 304.550766 
L 191.650694 306.011529 
L 192.379884 307.094884 
L 193.109075 307.802086 
L 193.838266 308.13667 
L 194.932052 308.176118 
L 283.52874 306.275966 
L 314.154755 305.963621 
L 381.604909 305.541822 
L 449.419657 305.182794 
L 449.419657 305.182794 
" clip-path="url(#p50f4d21dbd)" style="fill: none; stroke: #4c72b0; stroke-opacity: 0.9; stroke-width: 3; stroke-linecap: round"/>
   </g>
   <g id="line2d_44">
    <path d="M 183.629594 279.57676 
L 185.817167 283.897109 
L 189.827716 291.807065 
L 190.921503 293.441229 
L 192.015289 294.605437 
L 192.74448 295.120398 
L 193.473671 295.427074 
L 194.567457 295.548919 
L 205.50532 295.433133 
L 299.570939 294.465899 
L 378.32355 294.119092 
L 449.419657 293.845232 
L 449.419657 293.845232 
" clip-path="url(#p50f4d21dbd)" style="fill: none; stroke: #dd8452; stroke-opacity: 0.9; stroke-width: 3; stroke-linecap: round"/>
   </g>
   <g id="line2d_45">
    <path d="M 183.629594 279.57676 
L 185.452571 286.526903 
L 189.827716 303.218923 
L 190.921503 306.315085 
L 191.650694 307.87107 
L 192.379884 309.020957 
L 193.109075 309.768481 
L 193.838266 310.123586 
L 194.932052 310.166059 
L 231.026999 309.209574 
L 265.663564 308.381251 
L 289.362267 308.061095 
L 326.915595 307.806637 
L 449.419657 307.279455 
L 449.419657 307.279455 
" clip-path="url(#p50f4d21dbd)" style="fill: none; stroke: #55a868; stroke-opacity: 0.9; stroke-width: 3; stroke-linecap: round"/>
   </g>
   <g id="line2d_46">
    <path d="M 183.629594 279.57676 
L 185.452571 285.04391 
L 189.827716 298.179 
L 190.921503 300.619208 
L 191.650694 301.846149 
L 192.379884 302.753181 
L 193.109075 303.344568 
L 193.838266 303.627233 
L 194.932052 303.663415 
L 236.49593 302.835536 
L 271.497091 302.23308 
L 303.581488 301.945698 
L 365.927305 301.680293 
L 449.419657 301.383026 
L 449.419657 301.383026 
" clip-path="url(#p50f4d21dbd)" style="fill: none; stroke: #c44e52; stroke-opacity: 0.9; stroke-width: 3; stroke-linecap: round"/>
   </g>
   <g id="line2d_47">
    <path d="M 183.629594 279.57676 
L 186.181762 288.40777 
L 189.827716 300.848305 
L 190.921503 303.596681 
L 191.650694 304.972187 
L 192.379884 305.982554 
L 193.109075 306.628999 
L 193.838266 306.92281 
L 195.296648 306.930672 
L 294.831198 304.494003 
L 323.998832 304.073193 
L 366.291901 303.716974 
L 449.419657 303.244938 
L 449.419657 303.244938 
" clip-path="url(#p50f4d21dbd)" style="fill: none; stroke: #8172b3; stroke-opacity: 0.9; stroke-width: 3; stroke-linecap: round"/>
   </g>
   <g id="line2d_48">
    <path d="M 183.629594 279.57676 
L 186.546358 287.635816 
L 189.827716 296.538964 
L 190.921503 298.729027 
L 191.650694 299.825464 
L 192.379884 300.631358 
L 193.109075 301.149471 
L 193.838266 301.387755 
L 195.296648 301.399297 
L 285.716313 299.731171 
L 326.551 299.301567 
L 389.261413 298.916494 
L 449.419657 298.628439 
L 449.419657 298.628439 
" clip-path="url(#p50f4d21dbd)" style="fill: none; stroke: #937860; stroke-opacity: 0.9; stroke-width: 3; stroke-linecap: round"/>
   </g>
   <g id="patch_12">
    <path d="M 170.340091 373.284 
L 170.340091 259.023735 
" style="fill: none; stroke: #ffffff; stroke-width: 1.25; stroke-linejoin: miter; stroke-linecap: square"/>
   </g>
   <g id="patch_13">
    <path d="M 170.340091 373.284 
L 462.70916 373.284 
" style="fill: none; stroke: #ffffff; stroke-width: 1.25; stroke-linejoin: miter; stroke-linecap: square"/>
   </g>
   <g id="text_15">
    <!-- 0.8~365 -->
    <g style="fill: #262626" transform="translate(261.878032 253.023735) scale(0.252 -0.252)">
     <use xlink:href="#DejaVuSans-30"/>
     <use xlink:href="#DejaVuSans-2e" x="63.623047"/>
     <use xlink:href="#DejaVuSans-38" x="95.410156"/>
     <use xlink:href="#DejaVuSans-7e" x="159.033203"/>
     <use xlink:href="#DejaVuSans-33" x="242.822266"/>
     <use xlink:href="#DejaVuSans-36" x="306.445312"/>
     <use xlink:href="#DejaVuSans-35" x="370.068359"/>
    </g>
   </g>
  </g>
  <g id="axes_5">
   <g id="patch_14">
    <path d="M 489.290298 373.284 
L 781.659367 373.284 
L 781.659367 259.023735 
L 489.290298 259.023735 
z
" style="fill: #eaeaf2"/>
   </g>
   <g id="matplotlib.axis_9">
    <g id="xtick_17">
     <g id="line2d_49">
      <path d="M 502.579801 373.284 
L 502.579801 259.023735 
" clip-path="url(#pe6b22caa6f)" style="fill: none; stroke: #ffffff; stroke-linecap: round"/>
     </g>
     <g id="text_16">
      <!-- 0 -->
      <g style="fill: #262626" transform="translate(495.231113 400.336391) scale(0.231 -0.231)">
       <use xlink:href="#DejaVuSans-30"/>
      </g>
     </g>
    </g>
    <g id="xtick_18">
     <g id="line2d_50">
      <path d="M 593.728656 373.284 
L 593.728656 259.023735 
" clip-path="url(#pe6b22caa6f)" style="fill: none; stroke: #ffffff; stroke-linecap: round"/>
     </g>
     <g id="text_17">
      <!-- 250 -->
      <g style="fill: #262626" transform="translate(571.682594 400.336391) scale(0.231 -0.231)">
       <use xlink:href="#DejaVuSans-32"/>
       <use xlink:href="#DejaVuSans-35" x="63.623047"/>
       <use xlink:href="#DejaVuSans-30" x="127.246094"/>
      </g>
     </g>
    </g>
    <g id="xtick_19">
     <g id="line2d_51">
      <path d="M 684.877512 373.284 
L 684.877512 259.023735 
" clip-path="url(#pe6b22caa6f)" style="fill: none; stroke: #ffffff; stroke-linecap: round"/>
     </g>
     <g id="text_18">
      <!-- 500 -->
      <g style="fill: #262626" transform="translate(662.83145 400.336391) scale(0.231 -0.231)">
       <use xlink:href="#DejaVuSans-35"/>
       <use xlink:href="#DejaVuSans-30" x="63.623047"/>
       <use xlink:href="#DejaVuSans-30" x="127.246094"/>
      </g>
     </g>
    </g>
    <g id="xtick_20">
     <g id="line2d_52">
      <path d="M 776.026368 373.284 
L 776.026368 259.023735 
" clip-path="url(#pe6b22caa6f)" style="fill: none; stroke: #ffffff; stroke-linecap: round"/>
     </g>
     <g id="text_19">
      <!-- 750 -->
      <g style="fill: #262626" transform="translate(753.980305 400.336391) scale(0.231 -0.231)">
       <use xlink:href="#DejaVuSans-37"/>
       <use xlink:href="#DejaVuSans-35" x="63.623047"/>
       <use xlink:href="#DejaVuSans-30" x="127.246094"/>
      </g>
     </g>
    </g>
    <g id="text_20">
     <!-- step -->
     <g style="fill: #262626" transform="translate(608.219457 428.288531) scale(0.252 -0.252)">
      <use xlink:href="#DejaVuSans-73"/>
      <use xlink:href="#DejaVuSans-74" x="52.099609"/>
      <use xlink:href="#DejaVuSans-65" x="91.308594"/>
      <use xlink:href="#DejaVuSans-70" x="152.832031"/>
     </g>
    </g>
   </g>
   <g id="matplotlib.axis_10">
    <g id="ytick_9">
     <g id="line2d_53">
      <path d="M 489.290298 370.349363 
L 781.659367 370.349363 
" clip-path="url(#pe6b22caa6f)" style="fill: none; stroke: #ffffff; stroke-linecap: round"/>
     </g>
    </g>
    <g id="ytick_10">
     <g id="line2d_54">
      <path d="M 489.290298 279.57676 
L 781.659367 279.57676 
" clip-path="url(#pe6b22caa6f)" style="fill: none; stroke: #ffffff; stroke-linecap: round"/>
     </g>
    </g>
   </g>
   <g id="PolyCollection_25"/>
   <g id="PolyCollection_26"/>
   <g id="PolyCollection_27"/>
   <g id="PolyCollection_28"/>
   <g id="PolyCollection_29"/>
   <g id="PolyCollection_30"/>
   <g id="line2d_55">
    <path d="M 502.579801 279.57676 
L 509.142518 301.945903 
L 510.236305 304.45321 
L 511.694686 307.214085 
L 515.705236 314.110772 
L 519.715786 320.554108 
L 523.36174 325.961577 
L 526.643099 330.418882 
L 529.559862 334.029372 
L 532.476625 337.2887 
L 535.028793 339.83732 
L 537.580961 342.090729 
L 540.133129 344.040387 
L 542.685297 345.680781 
L 544.87287 346.838995 
L 547.060442 347.768486 
L 549.248015 348.470128 
L 551.435587 348.945486 
L 553.62316 349.196757 
L 556.175328 349.231024 
L 559.092091 349.034745 
L 562.37345 348.565221 
L 565.654809 347.876674 
L 569.300763 346.883786 
L 574.040504 345.34781 
L 581.332412 342.698762 
L 593.364061 338.07118 
L 599.926779 335.322795 
L 605.760305 332.64938 
L 613.781405 328.919678 
L 624.719267 324.138711 
L 645.501206 315.328391 
L 688.158871 297.532422 
L 768.369864 264.217383 
L 768.369864 264.217383 
" clip-path="url(#pe6b22caa6f)" style="fill: none; stroke: #4c72b0; stroke-opacity: 0.9; stroke-width: 3; stroke-linecap: round"/>
   </g>
   <g id="line2d_56">
    <path d="M 502.579801 279.57676 
L 505.86116 285.990883 
L 508.777923 291.42926 
L 509.871709 292.925832 
L 510.965495 293.960698 
L 512.423877 294.950262 
L 515.705236 296.853802 
L 518.986595 298.496587 
L 521.903358 299.720251 
L 524.820122 300.70569 
L 527.736885 301.438777 
L 530.289053 301.863415 
L 532.841221 302.078747 
L 535.393389 302.082861 
L 537.945557 301.881294 
L 540.86232 301.443394 
L 547.789633 300.026038 
L 559.821282 297.690663 
L 572.946717 295.501663 
L 585.707557 293.563313 
L 599.562183 291.666479 
L 616.698168 289.501018 
L 712.222169 277.96239 
L 768.369864 271.197605 
L 768.369864 271.197605 
" clip-path="url(#pe6b22caa6f)" style="fill: none; stroke: #dd8452; stroke-opacity: 0.9; stroke-width: 3; stroke-linecap: round"/>
   </g>
   <g id="line2d_57">
    <path d="M 502.579801 279.57676 
L 504.767373 287.85338 
L 508.413328 301.268315 
L 509.507114 304.381153 
L 510.236305 305.932159 
L 510.965495 307.068247 
L 512.059282 308.199604 
L 525.549312 320.209192 
L 529.924457 323.644133 
L 533.935007 326.520537 
L 537.945557 329.112424 
L 541.591511 331.206039 
L 545.237465 333.04492 
L 548.883419 334.631599 
L 552.529374 335.971967 
L 556.175328 337.073497 
L 559.821282 337.949824 
L 563.831832 338.671331 
L 567.842381 339.173199 
L 572.217526 339.504095 
L 577.321862 339.6661 
L 583.519985 339.620789 
L 590.447298 339.345571 
L 598.103801 338.812 
L 606.854092 337.969856 
L 615.604382 336.89868 
L 624.354672 335.602274 
L 633.469557 334.02361 
L 642.949038 332.155552 
L 653.15771 329.916854 
L 664.460168 327.203573 
L 679.043985 323.45996 
L 715.868123 313.696403 
L 768.369864 299.789482 
L 768.369864 299.789482 
" clip-path="url(#pe6b22caa6f)" style="fill: none; stroke: #55a868; stroke-opacity: 0.9; stroke-width: 3; stroke-linecap: round"/>
   </g>
   <g id="line2d_58">
    <path d="M 502.579801 279.57676 
L 504.767373 286.086843 
L 508.413328 296.638355 
L 509.507114 299.084598 
L 510.236305 300.300267 
L 510.965495 301.187778 
L 512.059282 302.051471 
L 524.820122 310.579963 
L 529.195267 313.100069 
L 533.205816 315.174204 
L 537.216366 317.009085 
L 541.226916 318.600355 
L 545.237465 319.962938 
L 549.61261 321.214305 
L 554.352351 322.331712 
L 559.092091 323.221406 
L 563.831832 323.886614 
L 568.936168 324.374146 
L 574.405099 324.67111 
L 580.238626 324.772344 
L 587.165939 324.654637 
L 595.187038 324.288737 
L 603.572733 323.683686 
L 611.958428 322.855556 
L 620.708718 321.770654 
L 630.188199 320.366058 
L 640.39687 318.62004 
L 651.699329 316.454717 
L 671.022886 312.478251 
L 700.555115 306.170143 
L 735.556276 298.461649 
L 768.369864 291.178217 
L 768.369864 291.178217 
" clip-path="url(#pe6b22caa6f)" style="fill: none; stroke: #c44e52; stroke-opacity: 0.9; stroke-width: 3; stroke-linecap: round"/>
   </g>
   <g id="line2d_59">
    <path d="M 502.579801 279.57676 
L 509.142518 301.088613 
L 510.236305 303.394805 
L 511.694686 305.723254 
L 515.340641 310.912757 
L 518.621999 315.207894 
L 521.903358 319.125717 
L 524.820122 322.27201 
L 527.736885 325.088529 
L 530.653648 327.574865 
L 533.570412 329.739406 
L 536.487175 331.606927 
L 539.403938 333.206773 
L 542.320702 334.552642 
L 545.237465 335.650322 
L 548.154229 336.49424 
L 550.706397 337.013789 
L 553.258564 337.325972 
L 558.727496 337.682111 
L 579.87403 339.051604 
L 592.63487 339.962609 
L 598.103801 340.107987 
L 602.478947 339.994388 
L 606.124901 339.69216 
L 609.770855 339.17132 
L 613.416809 338.408254 
L 616.698168 337.502457 
L 620.344122 336.253101 
L 624.354672 334.633344 
L 636.021725 329.692406 
L 644.042825 326.860814 
L 655.709878 322.983598 
L 673.939649 317.182483 
L 707.482428 306.779009 
L 768.369864 288.06413 
L 768.369864 288.06413 
" clip-path="url(#pe6b22caa6f)" style="fill: none; stroke: #8172b3; stroke-opacity: 0.9; stroke-width: 3; stroke-linecap: round"/>
   </g>
   <g id="line2d_60">
    <path d="M 502.579801 279.57676 
L 508.777923 295.966599 
L 509.871709 297.988615 
L 510.965495 299.46883 
L 513.517663 302.277104 
L 516.799022 305.56706 
L 519.715786 308.196297 
L 522.632549 310.530786 
L 525.549312 312.55661 
L 528.10148 314.071481 
L 530.653648 315.339663 
L 533.205816 316.357373 
L 535.757984 317.13188 
L 538.310152 317.690254 
L 541.226916 318.091813 
L 544.143679 318.256152 
L 547.060442 318.189655 
L 549.977206 317.89766 
L 553.62316 317.285584 
L 561.644259 315.679818 
L 567.113191 314.371738 
L 572.217526 312.916808 
L 588.259725 308.089224 
L 596.280824 306.240813 
L 607.583282 303.878429 
L 624.719267 300.548952 
L 655.345283 294.856636 
L 747.223329 278.096845 
L 768.369864 274.246469 
L 768.369864 274.246469 
" clip-path="url(#pe6b22caa6f)" style="fill: none; stroke: #937860; stroke-opacity: 0.9; stroke-width: 3; stroke-linecap: round"/>
   </g>
   <g id="patch_15">
    <path d="M 489.290298 373.284 
L 489.290298 259.023735 
" style="fill: none; stroke: #ffffff; stroke-width: 1.25; stroke-linejoin: miter; stroke-linecap: square"/>
   </g>
   <g id="patch_16">
    <path d="M 489.290298 373.284 
L 781.659367 373.284 
" style="fill: none; stroke: #ffffff; stroke-width: 1.25; stroke-linejoin: miter; stroke-linecap: square"/>
   </g>
   <g id="text_21">
    <!-- 0.999~30 -->
    <g style="fill: #262626" transform="translate(572.811489 253.023735) scale(0.252 -0.252)">
     <defs>
      <path id="DejaVuSans-39" d="M 703 97 
L 703 672 
Q 941 559 1184 500 
Q 1428 441 1663 441 
Q 2288 441 2617 861 
Q 2947 1281 2994 2138 
Q 2813 1869 2534 1725 
Q 2256 1581 1919 1581 
Q 1219 1581 811 2004 
Q 403 2428 403 3163 
Q 403 3881 828 4315 
Q 1253 4750 1959 4750 
Q 2769 4750 3195 4129 
Q 3622 3509 3622 2328 
Q 3622 1225 3098 567 
Q 2575 -91 1691 -91 
Q 1453 -91 1209 -44 
Q 966 3 703 97 
z
M 1959 2075 
Q 2384 2075 2632 2365 
Q 2881 2656 2881 3163 
Q 2881 3666 2632 3958 
Q 2384 4250 1959 4250 
Q 1534 4250 1286 3958 
Q 1038 3666 1038 3163 
Q 1038 2656 1286 2365 
Q 1534 2075 1959 2075 
z
" transform="scale(0.015625)"/>
     </defs>
     <use xlink:href="#DejaVuSans-30"/>
     <use xlink:href="#DejaVuSans-2e" x="63.623047"/>
     <use xlink:href="#DejaVuSans-39" x="95.410156"/>
     <use xlink:href="#DejaVuSans-39" x="159.033203"/>
     <use xlink:href="#DejaVuSans-39" x="222.65625"/>
     <use xlink:href="#DejaVuSans-7e" x="286.279297"/>
     <use xlink:href="#DejaVuSans-33" x="370.068359"/>
     <use xlink:href="#DejaVuSans-30" x="433.691406"/>
    </g>
   </g>
  </g>
  <g id="axes_6">
   <g id="patch_17">
    <path d="M 808.240504 373.284 
L 1100.609573 373.284 
L 1100.609573 259.023735 
L 808.240504 259.023735 
z
" style="fill: #eaeaf2"/>
   </g>
   <g id="matplotlib.axis_11">
    <g id="xtick_21">
     <g id="line2d_61">
      <path d="M 821.530007 373.284 
L 821.530007 259.023735 
" clip-path="url(#p4460cbe4cc)" style="fill: none; stroke: #ffffff; stroke-linecap: round"/>
     </g>
     <g id="text_22">
      <!-- 0 -->
      <g style="fill: #262626" transform="translate(814.18132 400.336391) scale(0.231 -0.231)">
       <use xlink:href="#DejaVuSans-30"/>
      </g>
     </g>
    </g>
    <g id="xtick_22">
     <g id="line2d_62">
      <path d="M 912.678863 373.284 
L 912.678863 259.023735 
" clip-path="url(#p4460cbe4cc)" style="fill: none; stroke: #ffffff; stroke-linecap: round"/>
     </g>
     <g id="text_23">
      <!-- 250 -->
      <g style="fill: #262626" transform="translate(890.6328 400.336391) scale(0.231 -0.231)">
       <use xlink:href="#DejaVuSans-32"/>
       <use xlink:href="#DejaVuSans-35" x="63.623047"/>
       <use xlink:href="#DejaVuSans-30" x="127.246094"/>
      </g>
     </g>
    </g>
    <g id="xtick_23">
     <g id="line2d_63">
      <path d="M 1003.827719 373.284 
L 1003.827719 259.023735 
" clip-path="url(#p4460cbe4cc)" style="fill: none; stroke: #ffffff; stroke-linecap: round"/>
     </g>
     <g id="text_24">
      <!-- 500 -->
      <g style="fill: #262626" transform="translate(981.781656 400.336391) scale(0.231 -0.231)">
       <use xlink:href="#DejaVuSans-35"/>
       <use xlink:href="#DejaVuSans-30" x="63.623047"/>
       <use xlink:href="#DejaVuSans-30" x="127.246094"/>
      </g>
     </g>
    </g>
    <g id="xtick_24">
     <g id="line2d_64">
      <path d="M 1094.976574 373.284 
L 1094.976574 259.023735 
" clip-path="url(#p4460cbe4cc)" style="fill: none; stroke: #ffffff; stroke-linecap: round"/>
     </g>
     <g id="text_25">
      <!-- 750 -->
      <g style="fill: #262626" transform="translate(1072.930512 400.336391) scale(0.231 -0.231)">
       <use xlink:href="#DejaVuSans-37"/>
       <use xlink:href="#DejaVuSans-35" x="63.623047"/>
       <use xlink:href="#DejaVuSans-30" x="127.246094"/>
      </g>
     </g>
    </g>
    <g id="text_26">
     <!-- step -->
     <g style="fill: #262626" transform="translate(927.169664 428.288531) scale(0.252 -0.252)">
      <use xlink:href="#DejaVuSans-73"/>
      <use xlink:href="#DejaVuSans-74" x="52.099609"/>
      <use xlink:href="#DejaVuSans-65" x="91.308594"/>
      <use xlink:href="#DejaVuSans-70" x="152.832031"/>
     </g>
    </g>
   </g>
   <g id="matplotlib.axis_12">
    <g id="ytick_11">
     <g id="line2d_65">
      <path d="M 808.240504 370.349363 
L 1100.609573 370.349363 
" clip-path="url(#p4460cbe4cc)" style="fill: none; stroke: #ffffff; stroke-linecap: round"/>
     </g>
    </g>
    <g id="ytick_12">
     <g id="line2d_66">
      <path d="M 808.240504 279.57676 
L 1100.609573 279.57676 
" clip-path="url(#p4460cbe4cc)" style="fill: none; stroke: #ffffff; stroke-linecap: round"/>
     </g>
    </g>
   </g>
   <g id="PolyCollection_31"/>
   <g id="PolyCollection_32"/>
   <g id="PolyCollection_33"/>
   <g id="PolyCollection_34"/>
   <g id="PolyCollection_35"/>
   <g id="PolyCollection_36"/>
   <g id="line2d_67">
    <path d="M 821.530007 279.57676 
L 824.446771 290.047376 
L 828.092725 302.856399 
L 829.186511 305.692113 
L 831.009488 309.646358 
L 835.020038 317.558295 
L 839.030588 325.024778 
L 842.676542 331.377143 
L 846.322496 337.273663 
L 849.603855 342.163936 
L 852.885214 346.640721 
L 855.801977 350.261674 
L 858.71874 353.536314 
L 861.635504 356.457638 
L 864.187672 358.720973 
L 866.73984 360.711539 
L 869.292008 362.433746 
L 871.844176 363.893406 
L 874.396344 365.096492 
L 876.948512 366.04909 
L 879.500679 366.766696 
L 882.417443 367.372674 
L 885.698802 367.811902 
L 889.344756 368.043401 
L 893.719901 368.082517 
L 899.188832 367.898413 
L 905.386954 367.456498 
L 926.898084 365.819549 
L 943.304878 364.810504 
L 966.27439 363.635064 
L 985.962543 362.850282 
L 1016.223963 361.848489 
L 1087.32007 359.714849 
L 1087.32007 359.714849 
" clip-path="url(#p4460cbe4cc)" style="fill: none; stroke: #4c72b0; stroke-opacity: 0.9; stroke-width: 3; stroke-linecap: round"/>
   </g>
   <g id="line2d_68">
    <path d="M 821.530007 279.57676 
L 823.71758 283.897109 
L 827.728129 291.810074 
L 828.821916 293.458894 
L 829.915702 294.664335 
L 831.374084 295.889488 
L 834.655442 298.256828 
L 837.936801 300.367375 
L 841.21816 302.20892 
L 844.134923 303.611063 
L 847.051687 304.78529 
L 849.96845 305.726354 
L 852.885214 306.432098 
L 855.801977 306.90647 
L 858.71874 307.153079 
L 862.364695 307.204986 
L 871.47958 306.99235 
L 935.283779 305.527279 
L 971.378726 304.976913 
L 1033.724543 304.228301 
L 1087.32007 303.674045 
L 1087.32007 303.674045 
" clip-path="url(#p4460cbe4cc)" style="fill: none; stroke: #dd8452; stroke-opacity: 0.9; stroke-width: 3; stroke-linecap: round"/>
   </g>
   <g id="line2d_69">
    <path d="M 821.530007 279.57676 
L 823.352984 286.526903 
L 827.728129 303.239986 
L 828.821916 306.367469 
L 829.551107 307.95395 
L 830.280297 309.147275 
L 831.374084 310.427489 
L 838.665992 317.831605 
L 843.405733 322.271572 
L 847.780878 326.062995 
L 851.791427 329.260055 
L 855.801977 332.184413 
L 859.812527 334.833397 
L 863.823076 337.204543 
L 867.833626 339.299606 
L 871.844176 341.128022 
L 875.854725 342.698718 
L 879.865275 344.023854 
L 883.875825 345.119724 
L 888.25097 346.088669 
L 892.99071 346.91181 
L 898.095046 347.575877 
L 903.928573 348.105581 
L 911.220481 348.523413 
L 919.970771 348.787646 
L 930.544039 348.877424 
L 942.575688 348.750431 
L 964.451413 348.226525 
L 994.712833 347.571635 
L 1074.923826 346.154643 
L 1087.32007 345.940583 
L 1087.32007 345.940583 
" clip-path="url(#p4460cbe4cc)" style="fill: none; stroke: #55a868; stroke-opacity: 0.9; stroke-width: 3; stroke-linecap: round"/>
   </g>
   <g id="line2d_70">
    <path d="M 821.530007 279.57676 
L 823.352984 285.04391 
L 827.728129 298.197785 
L 828.821916 300.65605 
L 829.551107 301.898744 
L 830.280297 302.830642 
L 831.374084 303.809635 
L 838.665992 309.417646 
L 843.041137 312.470665 
L 847.416282 315.265853 
L 851.791427 317.807056 
L 856.166572 320.099689 
L 860.541717 322.14097 
L 864.916863 323.931646 
L 869.292008 325.477197 
L 873.667153 326.786834 
L 878.406893 327.962642 
L 883.511229 328.984092 
L 888.98016 329.836265 
L 894.813687 330.509172 
L 901.376405 331.022525 
L 909.032909 331.383664 
L 918.147794 331.580771 
L 929.450252 331.592611 
L 945.492451 331.363554 
L 1017.682345 330.153913 
L 1087.32007 329.166123 
L 1087.32007 329.166123 
" clip-path="url(#p4460cbe4cc)" style="fill: none; stroke: #c44e52; stroke-opacity: 0.9; stroke-width: 3; stroke-linecap: round"/>
   </g>
   <g id="line2d_71">
    <path d="M 821.530007 279.57676 
L 824.082175 288.40777 
L 827.728129 300.932166 
L 828.821916 303.795047 
L 829.915702 306.015389 
L 832.103275 309.80113 
L 835.749229 315.676465 
L 839.030588 320.561098 
L 842.311946 325.054237 
L 845.593305 329.14377 
L 848.510069 332.431472 
L 851.426832 335.389897 
L 854.343595 338.028422 
L 857.260359 340.365646 
L 860.541717 342.681884 
L 863.823076 344.729318 
L 867.469031 346.753641 
L 871.47958 348.725262 
L 875.49013 350.439659 
L 879.500679 351.903899 
L 883.511229 353.124425 
L 887.521779 354.10712 
L 891.532328 354.85732 
L 895.542878 355.385844 
L 900.647214 355.819 
L 908.668313 356.236 
L 918.51239 356.525097 
L 928.721062 356.606464 
L 939.658924 356.467595 
L 952.419764 356.063594 
L 970.28494 355.277646 
L 1009.661245 353.372197 
L 1030.078589 352.723068 
L 1067.996513 351.792246 
L 1087.32007 351.361643 
L 1087.32007 351.361643 
" clip-path="url(#p4460cbe4cc)" style="fill: none; stroke: #8172b3; stroke-opacity: 0.9; stroke-width: 3; stroke-linecap: round"/>
   </g>
   <g id="line2d_72">
    <path d="M 821.530007 279.57676 
L 824.446771 287.635816 
L 827.728129 296.559972 
L 828.821916 298.817388 
L 829.915702 300.552315 
L 832.46787 303.889814 
L 835.749229 307.83313 
L 839.030588 311.420065 
L 841.947351 314.297521 
L 844.864114 316.873547 
L 847.780878 319.141069 
L 850.697641 321.096625 
L 853.249809 322.554693 
L 855.801977 323.778558 
L 858.354145 324.775517 
L 861.270908 325.659927 
L 864.552267 326.39338 
L 868.198221 326.953944 
L 872.208771 327.329343 
L 876.583916 327.507448 
L 881.688252 327.469449 
L 889.344756 327.158695 
L 934.919184 325.0302 
L 961.899245 324.018245 
L 992.889856 323.108202 
L 1024.245062 322.483768 
L 1076.746803 321.659137 
L 1087.32007 321.502196 
L 1087.32007 321.502196 
" clip-path="url(#p4460cbe4cc)" style="fill: none; stroke: #937860; stroke-opacity: 0.9; stroke-width: 3; stroke-linecap: round"/>
   </g>
   <g id="patch_18">
    <path d="M 808.240504 373.284 
L 808.240504 259.023735 
" style="fill: none; stroke: #ffffff; stroke-width: 1.25; stroke-linejoin: miter; stroke-linecap: square"/>
   </g>
   <g id="patch_19">
    <path d="M 808.240504 373.284 
L 1100.609573 373.284 
" style="fill: none; stroke: #ffffff; stroke-width: 1.25; stroke-linejoin: miter; stroke-linecap: square"/>
   </g>
   <g id="text_27">
    <!-- 0.999~365 -->
    <g style="fill: #262626" transform="translate(883.744945 253.023735) scale(0.252 -0.252)">
     <use xlink:href="#DejaVuSans-30"/>
     <use xlink:href="#DejaVuSans-2e" x="63.623047"/>
     <use xlink:href="#DejaVuSans-39" x="95.410156"/>
     <use xlink:href="#DejaVuSans-39" x="159.033203"/>
     <use xlink:href="#DejaVuSans-39" x="222.65625"/>
     <use xlink:href="#DejaVuSans-7e" x="286.279297"/>
     <use xlink:href="#DejaVuSans-33" x="370.068359"/>
     <use xlink:href="#DejaVuSans-36" x="433.691406"/>
     <use xlink:href="#DejaVuSans-35" x="497.314453"/>
    </g>
   </g>
  </g>
  <g id="text_28">
   <!-- Production change from pre-shock level -->
   <g style="fill: #262626" transform="translate(280.766836 30.177675) scale(0.3024 -0.3024)">
    <defs>
     <path id="DejaVuSans-50" d="M 1259 4147 
L 1259 2394 
L 2053 2394 
Q 2494 2394 2734 2622 
Q 2975 2850 2975 3272 
Q 2975 3691 2734 3919 
Q 2494 4147 2053 4147 
L 1259 4147 
z
M 628 4666 
L 2053 4666 
Q 2838 4666 3239 4311 
Q 3641 3956 3641 3272 
Q 3641 2581 3239 2228 
Q 2838 1875 2053 1875 
L 1259 1875 
L 1259 0 
L 628 0 
L 628 4666 
z
" transform="scale(0.015625)"/>
     <path id="DejaVuSans-72" d="M 2631 2963 
Q 2534 3019 2420 3045 
Q 2306 3072 2169 3072 
Q 1681 3072 1420 2755 
Q 1159 2438 1159 1844 
L 1159 0 
L 581 0 
L 581 3500 
L 1159 3500 
L 1159 2956 
Q 1341 3275 1631 3429 
Q 1922 3584 2338 3584 
Q 2397 3584 2469 3576 
Q 2541 3569 2628 3553 
L 2631 2963 
z
" transform="scale(0.015625)"/>
     <path id="DejaVuSans-6f" d="M 1959 3097 
Q 1497 3097 1228 2736 
Q 959 2375 959 1747 
Q 959 1119 1226 758 
Q 1494 397 1959 397 
Q 2419 397 2687 759 
Q 2956 1122 2956 1747 
Q 2956 2369 2687 2733 
Q 2419 3097 1959 3097 
z
M 1959 3584 
Q 2709 3584 3137 3096 
Q 3566 2609 3566 1747 
Q 3566 888 3137 398 
Q 2709 -91 1959 -91 
Q 1206 -91 779 398 
Q 353 888 353 1747 
Q 353 2609 779 3096 
Q 1206 3584 1959 3584 
z
" transform="scale(0.015625)"/>
     <path id="DejaVuSans-64" d="M 2906 2969 
L 2906 4863 
L 3481 4863 
L 3481 0 
L 2906 0 
L 2906 525 
Q 2725 213 2448 61 
Q 2172 -91 1784 -91 
Q 1150 -91 751 415 
Q 353 922 353 1747 
Q 353 2572 751 3078 
Q 1150 3584 1784 3584 
Q 2172 3584 2448 3432 
Q 2725 3281 2906 2969 
z
M 947 1747 
Q 947 1113 1208 752 
Q 1469 391 1925 391 
Q 2381 391 2643 752 
Q 2906 1113 2906 1747 
Q 2906 2381 2643 2742 
Q 2381 3103 1925 3103 
Q 1469 3103 1208 2742 
Q 947 2381 947 1747 
z
" transform="scale(0.015625)"/>
     <path id="DejaVuSans-75" d="M 544 1381 
L 544 3500 
L 1119 3500 
L 1119 1403 
Q 1119 906 1312 657 
Q 1506 409 1894 409 
Q 2359 409 2629 706 
Q 2900 1003 2900 1516 
L 2900 3500 
L 3475 3500 
L 3475 0 
L 2900 0 
L 2900 538 
Q 2691 219 2414 64 
Q 2138 -91 1772 -91 
Q 1169 -91 856 284 
Q 544 659 544 1381 
z
M 1991 3584 
L 1991 3584 
z
" transform="scale(0.015625)"/>
     <path id="DejaVuSans-69" d="M 603 3500 
L 1178 3500 
L 1178 0 
L 603 0 
L 603 3500 
z
M 603 4863 
L 1178 4863 
L 1178 4134 
L 603 4134 
L 603 4863 
z
" transform="scale(0.015625)"/>
     <path id="DejaVuSans-66" d="M 2375 4863 
L 2375 4384 
L 1825 4384 
Q 1516 4384 1395 4259 
Q 1275 4134 1275 3809 
L 1275 3500 
L 2222 3500 
L 2222 3053 
L 1275 3053 
L 1275 0 
L 697 0 
L 697 3053 
L 147 3053 
L 147 3500 
L 697 3500 
L 697 3744 
Q 697 4328 969 4595 
Q 1241 4863 1831 4863 
L 2375 4863 
z
" transform="scale(0.015625)"/>
     <path id="DejaVuSans-6d" d="M 3328 2828 
Q 3544 3216 3844 3400 
Q 4144 3584 4550 3584 
Q 5097 3584 5394 3201 
Q 5691 2819 5691 2113 
L 5691 0 
L 5113 0 
L 5113 2094 
Q 5113 2597 4934 2840 
Q 4756 3084 4391 3084 
Q 3944 3084 3684 2787 
Q 3425 2491 3425 1978 
L 3425 0 
L 2847 0 
L 2847 2094 
Q 2847 2600 2669 2842 
Q 2491 3084 2119 3084 
Q 1678 3084 1418 2786 
Q 1159 2488 1159 1978 
L 1159 0 
L 581 0 
L 581 3500 
L 1159 3500 
L 1159 2956 
Q 1356 3278 1631 3431 
Q 1906 3584 2284 3584 
Q 2666 3584 2933 3390 
Q 3200 3197 3328 2828 
z
" transform="scale(0.015625)"/>
     <path id="DejaVuSans-2d" d="M 313 2009 
L 1997 2009 
L 1997 1497 
L 313 1497 
L 313 2009 
z
" transform="scale(0.015625)"/>
     <path id="DejaVuSans-6b" d="M 581 4863 
L 1159 4863 
L 1159 1991 
L 2875 3500 
L 3609 3500 
L 1753 1863 
L 3688 0 
L 2938 0 
L 1159 1709 
L 1159 0 
L 581 0 
L 581 4863 
z
" transform="scale(0.015625)"/>
     <path id="DejaVuSans-6c" d="M 603 4863 
L 1178 4863 
L 1178 0 
L 603 0 
L 603 4863 
z
" transform="scale(0.015625)"/>
     <path id="DejaVuSans-76" d="M 191 3500 
L 800 3500 
L 1894 563 
L 2988 3500 
L 3597 3500 
L 2284 0 
L 1503 0 
L 191 3500 
z
" transform="scale(0.015625)"/>
    </defs>
    <use xlink:href="#DejaVuSans-50"/>
    <use xlink:href="#DejaVuSans-72" x="58.552734"/>
    <use xlink:href="#DejaVuSans-6f" x="97.416016"/>
    <use xlink:href="#DejaVuSans-64" x="158.597656"/>
    <use xlink:href="#DejaVuSans-75" x="222.074219"/>
    <use xlink:href="#DejaVuSans-63" x="285.453125"/>
    <use xlink:href="#DejaVuSans-74" x="340.433594"/>
    <use xlink:href="#DejaVuSans-69" x="379.642578"/>
    <use xlink:href="#DejaVuSans-6f" x="407.425781"/>
    <use xlink:href="#DejaVuSans-6e" x="468.607422"/>
    <use xlink:href="#DejaVuSans-20" x="531.986328"/>
    <use xlink:href="#DejaVuSans-63" x="563.773438"/>
    <use xlink:href="#DejaVuSans-68" x="618.753906"/>
    <use xlink:href="#DejaVuSans-61" x="682.132812"/>
    <use xlink:href="#DejaVuSans-6e" x="743.412109"/>
    <use xlink:href="#DejaVuSans-67" x="806.791016"/>
    <use xlink:href="#DejaVuSans-65" x="870.267578"/>
    <use xlink:href="#DejaVuSans-20" x="931.791016"/>
    <use xlink:href="#DejaVuSans-66" x="963.578125"/>
    <use xlink:href="#DejaVuSans-72" x="998.783203"/>
    <use xlink:href="#DejaVuSans-6f" x="1037.646484"/>
    <use xlink:href="#DejaVuSans-6d" x="1098.828125"/>
    <use xlink:href="#DejaVuSans-20" x="1196.240234"/>
    <use xlink:href="#DejaVuSans-70" x="1228.027344"/>
    <use xlink:href="#DejaVuSans-72" x="1291.503906"/>
    <use xlink:href="#DejaVuSans-65" x="1330.367188"/>
    <use xlink:href="#DejaVuSans-2d" x="1391.890625"/>
    <use xlink:href="#DejaVuSans-73" x="1427.974609"/>
    <use xlink:href="#DejaVuSans-68" x="1480.074219"/>
    <use xlink:href="#DejaVuSans-6f" x="1543.453125"/>
    <use xlink:href="#DejaVuSans-63" x="1604.634766"/>
    <use xlink:href="#DejaVuSans-6b" x="1659.615234"/>
    <use xlink:href="#DejaVuSans-20" x="1717.525391"/>
    <use xlink:href="#DejaVuSans-6c" x="1749.3125"/>
    <use xlink:href="#DejaVuSans-65" x="1777.095703"/>
    <use xlink:href="#DejaVuSans-76" x="1838.619141"/>
    <use xlink:href="#DejaVuSans-65" x="1897.798828"/>
    <use xlink:href="#DejaVuSans-6c" x="1959.322266"/>
   </g>
  </g>
  <g id="legend_1">
   <g id="patch_20">
    <path d="M 11.82 584.31675 
L 1292.617547 584.31675 
Q 1297.237547 584.31675 1297.237547 579.69675 
L 1297.237547 476.97 
Q 1297.237547 472.35 1292.617547 472.35 
L 11.82 472.35 
Q 7.2 472.35 7.2 476.97 
L 7.2 579.69675 
Q 7.2 584.31675 11.82 584.31675 
z
" style="fill: #eaeaf2; opacity: 0.8; stroke: #cccccc; stroke-linejoin: miter"/>
   </g>
   <g id="text_29">
    <!-- Experiences -->
    <g style="fill: #262626" transform="translate(575.384367 500.738062) scale(0.252 -0.252)">
     <defs>
      <path id="DejaVuSans-45" d="M 628 4666 
L 3578 4666 
L 3578 4134 
L 1259 4134 
L 1259 2753 
L 3481 2753 
L 3481 2222 
L 1259 2222 
L 1259 531 
L 3634 531 
L 3634 0 
L 628 0 
L 628 4666 
z
" transform="scale(0.015625)"/>
      <path id="DejaVuSans-78" d="M 3513 3500 
L 2247 1797 
L 3578 0 
L 2900 0 
L 1881 1375 
L 863 0 
L 184 0 
L 1544 1831 
L 300 3500 
L 978 3500 
L 1906 2253 
L 2834 3500 
L 3513 3500 
z
" transform="scale(0.015625)"/>
     </defs>
     <use xlink:href="#DejaVuSans-45"/>
     <use xlink:href="#DejaVuSans-78" x="63.183594"/>
     <use xlink:href="#DejaVuSans-70" x="122.363281"/>
     <use xlink:href="#DejaVuSans-65" x="185.839844"/>
     <use xlink:href="#DejaVuSans-72" x="247.363281"/>
     <use xlink:href="#DejaVuSans-69" x="288.476562"/>
     <use xlink:href="#DejaVuSans-65" x="316.259766"/>
     <use xlink:href="#DejaVuSans-6e" x="377.783203"/>
     <use xlink:href="#DejaVuSans-63" x="441.162109"/>
     <use xlink:href="#DejaVuSans-65" x="496.142578"/>
     <use xlink:href="#DejaVuSans-73" x="557.666016"/>
    </g>
   </g>
   <g id="line2d_73">
    <path d="M 16.44 526.996266 
L 39.54 526.996266 
L 62.64 526.996266 
" style="fill: none; stroke: #4c72b0; stroke-opacity: 0.9; stroke-width: 3; stroke-linecap: round"/>
   </g>
   <g id="text_30">
    <!-- eora26_full_2000 -->
    <g style="fill: #262626" transform="translate(81.12 535.081266) scale(0.231 -0.231)">
     <defs>
      <path id="DejaVuSans-5f" d="M 3263 -1063 
L 3263 -1509 
L -63 -1509 
L -63 -1063 
L 3263 -1063 
z
" transform="scale(0.015625)"/>
     </defs>
     <use xlink:href="#DejaVuSans-65"/>
     <use xlink:href="#DejaVuSans-6f" x="61.523438"/>
     <use xlink:href="#DejaVuSans-72" x="122.705078"/>
     <use xlink:href="#DejaVuSans-61" x="163.818359"/>
     <use xlink:href="#DejaVuSans-32" x="225.097656"/>
     <use xlink:href="#DejaVuSans-36" x="288.720703"/>
     <use xlink:href="#DejaVuSans-5f" x="352.34375"/>
     <use xlink:href="#DejaVuSans-66" x="402.34375"/>
     <use xlink:href="#DejaVuSans-75" x="437.548828"/>
     <use xlink:href="#DejaVuSans-6c" x="500.927734"/>
     <use xlink:href="#DejaVuSans-6c" x="528.710938"/>
     <use xlink:href="#DejaVuSans-5f" x="556.494141"/>
     <use xlink:href="#DejaVuSans-32" x="606.494141"/>
     <use xlink:href="#DejaVuSans-30" x="670.117188"/>
     <use xlink:href="#DejaVuSans-30" x="733.740234"/>
     <use xlink:href="#DejaVuSans-30" x="797.363281"/>
    </g>
   </g>
   <g id="line2d_74">
    <path d="M 16.44 561.545203 
L 39.54 561.545203 
L 62.64 561.545203 
" style="fill: none; stroke: #dd8452; stroke-opacity: 0.9; stroke-width: 3; stroke-linecap: round"/>
   </g>
   <g id="text_31">
    <!-- eora26_full_2010 -->
    <g style="fill: #262626" transform="translate(81.12 569.630203) scale(0.231 -0.231)">
     <use xlink:href="#DejaVuSans-65"/>
     <use xlink:href="#DejaVuSans-6f" x="61.523438"/>
     <use xlink:href="#DejaVuSans-72" x="122.705078"/>
     <use xlink:href="#DejaVuSans-61" x="163.818359"/>
     <use xlink:href="#DejaVuSans-32" x="225.097656"/>
     <use xlink:href="#DejaVuSans-36" x="288.720703"/>
     <use xlink:href="#DejaVuSans-5f" x="352.34375"/>
     <use xlink:href="#DejaVuSans-66" x="402.34375"/>
     <use xlink:href="#DejaVuSans-75" x="437.548828"/>
     <use xlink:href="#DejaVuSans-6c" x="500.927734"/>
     <use xlink:href="#DejaVuSans-6c" x="528.710938"/>
     <use xlink:href="#DejaVuSans-5f" x="556.494141"/>
     <use xlink:href="#DejaVuSans-32" x="606.494141"/>
     <use xlink:href="#DejaVuSans-30" x="670.117188"/>
     <use xlink:href="#DejaVuSans-31" x="733.740234"/>
     <use xlink:href="#DejaVuSans-30" x="797.363281"/>
    </g>
   </g>
   <g id="line2d_75">
    <path d="M 326.211 526.996266 
L 349.311 526.996266 
L 372.411 526.996266 
" style="fill: none; stroke: #55a868; stroke-opacity: 0.9; stroke-width: 3; stroke-linecap: round"/>
   </g>
   <g id="text_32">
    <!-- euregio_full_2000 -->
    <g style="fill: #262626" transform="translate(390.891 535.081266) scale(0.231 -0.231)">
     <use xlink:href="#DejaVuSans-65"/>
     <use xlink:href="#DejaVuSans-75" x="61.523438"/>
     <use xlink:href="#DejaVuSans-72" x="124.902344"/>
     <use xlink:href="#DejaVuSans-65" x="163.765625"/>
     <use xlink:href="#DejaVuSans-67" x="225.289062"/>
     <use xlink:href="#DejaVuSans-69" x="288.765625"/>
     <use xlink:href="#DejaVuSans-6f" x="316.548828"/>
     <use xlink:href="#DejaVuSans-5f" x="377.730469"/>
     <use xlink:href="#DejaVuSans-66" x="427.730469"/>
     <use xlink:href="#DejaVuSans-75" x="462.935547"/>
     <use xlink:href="#DejaVuSans-6c" x="526.314453"/>
     <use xlink:href="#DejaVuSans-6c" x="554.097656"/>
     <use xlink:href="#DejaVuSans-5f" x="581.880859"/>
     <use xlink:href="#DejaVuSans-32" x="631.880859"/>
     <use xlink:href="#DejaVuSans-30" x="695.503906"/>
     <use xlink:href="#DejaVuSans-30" x="759.126953"/>
     <use xlink:href="#DejaVuSans-30" x="822.75"/>
    </g>
   </g>
   <g id="line2d_76">
    <path d="M 326.211 561.545203 
L 349.311 561.545203 
L 372.411 561.545203 
" style="fill: none; stroke: #c44e52; stroke-opacity: 0.9; stroke-width: 3; stroke-linecap: round"/>
   </g>
   <g id="text_33">
    <!-- euregio_full_2010 -->
    <g style="fill: #262626" transform="translate(390.891 569.630203) scale(0.231 -0.231)">
     <use xlink:href="#DejaVuSans-65"/>
     <use xlink:href="#DejaVuSans-75" x="61.523438"/>
     <use xlink:href="#DejaVuSans-72" x="124.902344"/>
     <use xlink:href="#DejaVuSans-65" x="163.765625"/>
     <use xlink:href="#DejaVuSans-67" x="225.289062"/>
     <use xlink:href="#DejaVuSans-69" x="288.765625"/>
     <use xlink:href="#DejaVuSans-6f" x="316.548828"/>
     <use xlink:href="#DejaVuSans-5f" x="377.730469"/>
     <use xlink:href="#DejaVuSans-66" x="427.730469"/>
     <use xlink:href="#DejaVuSans-75" x="462.935547"/>
     <use xlink:href="#DejaVuSans-6c" x="526.314453"/>
     <use xlink:href="#DejaVuSans-6c" x="554.097656"/>
     <use xlink:href="#DejaVuSans-5f" x="581.880859"/>
     <use xlink:href="#DejaVuSans-32" x="631.880859"/>
     <use xlink:href="#DejaVuSans-30" x="695.503906"/>
     <use xlink:href="#DejaVuSans-31" x="759.126953"/>
     <use xlink:href="#DejaVuSans-30" x="822.75"/>
    </g>
   </g>
   <g id="line2d_77">
    <path d="M 641.847234 526.996266 
L 664.947234 526.996266 
L 688.047234 526.996266 
" style="fill: none; stroke: #8172b3; stroke-opacity: 0.9; stroke-width: 3; stroke-linecap: round"/>
   </g>
   <g id="text_34">
    <!-- exiobase3_full_2000 -->
    <g style="fill: #262626" transform="translate(706.527234 535.081266) scale(0.231 -0.231)">
     <defs>
      <path id="DejaVuSans-62" d="M 3116 1747 
Q 3116 2381 2855 2742 
Q 2594 3103 2138 3103 
Q 1681 3103 1420 2742 
Q 1159 2381 1159 1747 
Q 1159 1113 1420 752 
Q 1681 391 2138 391 
Q 2594 391 2855 752 
Q 3116 1113 3116 1747 
z
M 1159 2969 
Q 1341 3281 1617 3432 
Q 1894 3584 2278 3584 
Q 2916 3584 3314 3078 
Q 3713 2572 3713 1747 
Q 3713 922 3314 415 
Q 2916 -91 2278 -91 
Q 1894 -91 1617 61 
Q 1341 213 1159 525 
L 1159 0 
L 581 0 
L 581 4863 
L 1159 4863 
L 1159 2969 
z
" transform="scale(0.015625)"/>
     </defs>
     <use xlink:href="#DejaVuSans-65"/>
     <use xlink:href="#DejaVuSans-78" x="59.773438"/>
     <use xlink:href="#DejaVuSans-69" x="118.953125"/>
     <use xlink:href="#DejaVuSans-6f" x="146.736328"/>
     <use xlink:href="#DejaVuSans-62" x="207.917969"/>
     <use xlink:href="#DejaVuSans-61" x="271.394531"/>
     <use xlink:href="#DejaVuSans-73" x="332.673828"/>
     <use xlink:href="#DejaVuSans-65" x="384.773438"/>
     <use xlink:href="#DejaVuSans-33" x="446.296875"/>
     <use xlink:href="#DejaVuSans-5f" x="509.919922"/>
     <use xlink:href="#DejaVuSans-66" x="559.919922"/>
     <use xlink:href="#DejaVuSans-75" x="595.125"/>
     <use xlink:href="#DejaVuSans-6c" x="658.503906"/>
     <use xlink:href="#DejaVuSans-6c" x="686.287109"/>
     <use xlink:href="#DejaVuSans-5f" x="714.070312"/>
     <use xlink:href="#DejaVuSans-32" x="764.070312"/>
     <use xlink:href="#DejaVuSans-30" x="827.693359"/>
     <use xlink:href="#DejaVuSans-30" x="891.316406"/>
     <use xlink:href="#DejaVuSans-30" x="954.939453"/>
    </g>
   </g>
   <g id="line2d_78">
    <path d="M 988.022391 526.996266 
L 1011.122391 526.996266 
L 1034.222391 526.996266 
" style="fill: none; stroke: #937860; stroke-opacity: 0.9; stroke-width: 3; stroke-linecap: round"/>
   </g>
   <g id="text_35">
    <!-- exiobase3_full_2010 -->
    <g style="fill: #262626" transform="translate(1052.702391 535.081266) scale(0.231 -0.231)">
     <use xlink:href="#DejaVuSans-65"/>
     <use xlink:href="#DejaVuSans-78" x="59.773438"/>
     <use xlink:href="#DejaVuSans-69" x="118.953125"/>
     <use xlink:href="#DejaVuSans-6f" x="146.736328"/>
     <use xlink:href="#DejaVuSans-62" x="207.917969"/>
     <use xlink:href="#DejaVuSans-61" x="271.394531"/>
     <use xlink:href="#DejaVuSans-73" x="332.673828"/>
     <use xlink:href="#DejaVuSans-65" x="384.773438"/>
     <use xlink:href="#DejaVuSans-33" x="446.296875"/>
     <use xlink:href="#DejaVuSans-5f" x="509.919922"/>
     <use xlink:href="#DejaVuSans-66" x="559.919922"/>
     <use xlink:href="#DejaVuSans-75" x="595.125"/>
     <use xlink:href="#DejaVuSans-6c" x="658.503906"/>
     <use xlink:href="#DejaVuSans-6c" x="686.287109"/>
     <use xlink:href="#DejaVuSans-5f" x="714.070312"/>
     <use xlink:href="#DejaVuSans-32" x="764.070312"/>
     <use xlink:href="#DejaVuSans-30" x="827.693359"/>
     <use xlink:href="#DejaVuSans-31" x="891.316406"/>
     <use xlink:href="#DejaVuSans-30" x="954.939453"/>
    </g>
   </g>
  </g>
 </g>
 <defs>
  <clipPath id="p1b41e4ac19">
   <rect x="170.340091" y="81.456" width="292.369069" height="114.260265"/>
  </clipPath>
  <clipPath id="pa8b7e51bea">
   <rect x="489.290298" y="81.456" width="292.369069" height="114.260265"/>
  </clipPath>
  <clipPath id="p69f3f1a1be">
   <rect x="808.240504" y="81.456" width="292.369069" height="114.260265"/>
  </clipPath>
  <clipPath id="p50f4d21dbd">
   <rect x="170.340091" y="259.023735" width="292.369069" height="114.260265"/>
  </clipPath>
  <clipPath id="pe6b22caa6f">
   <rect x="489.290298" y="259.023735" width="292.369069" height="114.260265"/>
  </clipPath>
  <clipPath id="p4460cbe4cc">
   <rect x="808.240504" y="259.023735" width="292.369069" height="114.260265"/>
  </clipPath>
 </defs>
</svg>
