<?xml version="1.0" encoding="utf-8" standalone="no"?>
<!DOCTYPE svg PUBLIC "-//W3C//DTD SVG 1.1//EN"
  "http://www.w3.org/Graphics/SVG/1.1/DTD/svg11.dtd">
<svg xmlns:xlink="http://www.w3.org/1999/xlink" width="1304.437547pt" height="591.51675pt" viewBox="0 0 1304.437547 591.51675" xmlns="http://www.w3.org/2000/svg" version="1.1">
 <metadata>
  <rdf:RDF xmlns:dc="http://purl.org/dc/elements/1.1/" xmlns:cc="http://creativecommons.org/ns#" xmlns:rdf="http://www.w3.org/1999/02/22-rdf-syntax-ns#">
   <cc:Work>
    <dc:type rdf:resource="http://purl.org/dc/dcmitype/StillImage"/>
    <dc:date>2023-04-28T12:09:37.776255</dc:date>
    <dc:format>image/svg+xml</dc:format>
    <dc:creator>
     <cc:Agent>
      <dc:title>Matplotlib v3.7.1, https://matplotlib.org/</dc:title>
     </cc:Agent>
    </dc:creator>
   </cc:Work>
  </rdf:RDF>
 </metadata>
 <defs>
  <style type="text/css">*{stroke-linejoin: round; stroke-linecap: butt}</style>
 </defs>
 <g id="figure_1">
  <g id="patch_1">
   <path d="M 0 591.51675 
L 1304.437547 591.51675 
L 1304.437547 -0 
L 0 -0 
z
" style="fill: #ffffff"/>
  </g>
  <g id="axes_1">
   <g id="patch_2">
    <path d="M 170.340091 183.612 
L 462.70916 183.612 
L 462.70916 81.456 
L 170.340091 81.456 
z
" style="fill: #eaeaf2"/>
   </g>
   <g id="matplotlib.axis_1">
    <g id="xtick_1">
     <g id="line2d_1">
      <path d="M 183.629594 183.612 
L 183.629594 81.456 
" clip-path="url(#pbc100052af)" style="fill: none; stroke: #ffffff; stroke-linecap: round"/>
     </g>
    </g>
    <g id="xtick_2">
     <g id="line2d_2">
      <path d="M 274.77845 183.612 
L 274.77845 81.456 
" clip-path="url(#pbc100052af)" style="fill: none; stroke: #ffffff; stroke-linecap: round"/>
     </g>
    </g>
    <g id="xtick_3">
     <g id="line2d_3">
      <path d="M 365.927305 183.612 
L 365.927305 81.456 
" clip-path="url(#pbc100052af)" style="fill: none; stroke: #ffffff; stroke-linecap: round"/>
     </g>
    </g>
    <g id="xtick_4">
     <g id="line2d_4">
      <path d="M 457.076161 183.612 
L 457.076161 81.456 
" clip-path="url(#pbc100052af)" style="fill: none; stroke: #ffffff; stroke-linecap: round"/>
     </g>
    </g>
   </g>
   <g id="matplotlib.axis_2">
    <g id="ytick_1">
     <g id="line2d_5">
      <path d="M 170.340091 148.441793 
L 462.70916 148.441793 
" clip-path="url(#pbc100052af)" style="fill: none; stroke: #ffffff; stroke-linecap: round"/>
     </g>
     <g id="text_1">
      <!-- −0.1 -->
      <g style="fill: #262626" transform="translate(104.746794 157.217988) scale(0.231 -0.231)">
       <defs>
        <path id="DejaVuSans-2212" d="M 678 2272 
L 4684 2272 
L 4684 1741 
L 678 1741 
L 678 2272 
z
" transform="scale(0.015625)"/>
        <path id="DejaVuSans-30" d="M 2034 4250 
Q 1547 4250 1301 3770 
Q 1056 3291 1056 2328 
Q 1056 1369 1301 889 
Q 1547 409 2034 409 
Q 2525 409 2770 889 
Q 3016 1369 3016 2328 
Q 3016 3291 2770 3770 
Q 2525 4250 2034 4250 
z
M 2034 4750 
Q 2819 4750 3233 4129 
Q 3647 3509 3647 2328 
Q 3647 1150 3233 529 
Q 2819 -91 2034 -91 
Q 1250 -91 836 529 
Q 422 1150 422 2328 
Q 422 3509 836 4129 
Q 1250 4750 2034 4750 
z
" transform="scale(0.015625)"/>
        <path id="DejaVuSans-2e" d="M 684 794 
L 1344 794 
L 1344 0 
L 684 0 
L 684 794 
z
" transform="scale(0.015625)"/>
        <path id="DejaVuSans-31" d="M 794 531 
L 1825 531 
L 1825 4091 
L 703 3866 
L 703 4441 
L 1819 4666 
L 2450 4666 
L 2450 531 
L 3481 531 
L 3481 0 
L 794 0 
L 794 531 
z
" transform="scale(0.015625)"/>
       </defs>
       <use xlink:href="#DejaVuSans-2212"/>
       <use xlink:href="#DejaVuSans-30" x="83.789062"/>
       <use xlink:href="#DejaVuSans-2e" x="147.412109"/>
       <use xlink:href="#DejaVuSans-31" x="179.199219"/>
      </g>
     </g>
    </g>
    <g id="ytick_2">
     <g id="line2d_6">
      <path d="M 170.340091 86.099455 
L 462.70916 86.099455 
" clip-path="url(#pbc100052af)" style="fill: none; stroke: #ffffff; stroke-linecap: round"/>
     </g>
     <g id="text_2">
      <!-- 0.0 -->
      <g style="fill: #262626" transform="translate(124.103872 94.87565) scale(0.231 -0.231)">
       <use xlink:href="#DejaVuSans-30"/>
       <use xlink:href="#DejaVuSans-2e" x="63.623047"/>
       <use xlink:href="#DejaVuSans-30" x="95.410156"/>
      </g>
     </g>
    </g>
    <g id="text_3">
     <!-- % change -->
     <g style="fill: #262626" transform="translate(95.505982 194.882344) rotate(-90) scale(0.252 -0.252)">
      <defs>
       <path id="DejaVuSans-25" d="M 4653 2053 
Q 4381 2053 4226 1822 
Q 4072 1591 4072 1178 
Q 4072 772 4226 539 
Q 4381 306 4653 306 
Q 4919 306 5073 539 
Q 5228 772 5228 1178 
Q 5228 1588 5073 1820 
Q 4919 2053 4653 2053 
z
M 4653 2450 
Q 5147 2450 5437 2106 
Q 5728 1763 5728 1178 
Q 5728 594 5436 251 
Q 5144 -91 4653 -91 
Q 4153 -91 3862 251 
Q 3572 594 3572 1178 
Q 3572 1766 3864 2108 
Q 4156 2450 4653 2450 
z
M 1428 4353 
Q 1159 4353 1004 4120 
Q 850 3888 850 3481 
Q 850 3069 1003 2837 
Q 1156 2606 1428 2606 
Q 1700 2606 1854 2837 
Q 2009 3069 2009 3481 
Q 2009 3884 1853 4118 
Q 1697 4353 1428 4353 
z
M 4250 4750 
L 4750 4750 
L 1831 -91 
L 1331 -91 
L 4250 4750 
z
M 1428 4750 
Q 1922 4750 2215 4408 
Q 2509 4066 2509 3481 
Q 2509 2891 2217 2550 
Q 1925 2209 1428 2209 
Q 931 2209 642 2551 
Q 353 2894 353 3481 
Q 353 4063 643 4406 
Q 934 4750 1428 4750 
z
" transform="scale(0.015625)"/>
       <path id="DejaVuSans-20" transform="scale(0.015625)"/>
       <path id="DejaVuSans-63" d="M 3122 3366 
L 3122 2828 
Q 2878 2963 2633 3030 
Q 2388 3097 2138 3097 
Q 1578 3097 1268 2742 
Q 959 2388 959 1747 
Q 959 1106 1268 751 
Q 1578 397 2138 397 
Q 2388 397 2633 464 
Q 2878 531 3122 666 
L 3122 134 
Q 2881 22 2623 -34 
Q 2366 -91 2075 -91 
Q 1284 -91 818 406 
Q 353 903 353 1747 
Q 353 2603 823 3093 
Q 1294 3584 2113 3584 
Q 2378 3584 2631 3529 
Q 2884 3475 3122 3366 
z
" transform="scale(0.015625)"/>
       <path id="DejaVuSans-68" d="M 3513 2113 
L 3513 0 
L 2938 0 
L 2938 2094 
Q 2938 2591 2744 2837 
Q 2550 3084 2163 3084 
Q 1697 3084 1428 2787 
Q 1159 2491 1159 1978 
L 1159 0 
L 581 0 
L 581 4863 
L 1159 4863 
L 1159 2956 
Q 1366 3272 1645 3428 
Q 1925 3584 2291 3584 
Q 2894 3584 3203 3211 
Q 3513 2838 3513 2113 
z
" transform="scale(0.015625)"/>
       <path id="DejaVuSans-61" d="M 2194 1759 
Q 1497 1759 1228 1600 
Q 959 1441 959 1056 
Q 959 750 1161 570 
Q 1363 391 1709 391 
Q 2188 391 2477 730 
Q 2766 1069 2766 1631 
L 2766 1759 
L 2194 1759 
z
M 3341 1997 
L 3341 0 
L 2766 0 
L 2766 531 
Q 2569 213 2275 61 
Q 1981 -91 1556 -91 
Q 1019 -91 701 211 
Q 384 513 384 1019 
Q 384 1609 779 1909 
Q 1175 2209 1959 2209 
L 2766 2209 
L 2766 2266 
Q 2766 2663 2505 2880 
Q 2244 3097 1772 3097 
Q 1472 3097 1187 3025 
Q 903 2953 641 2809 
L 641 3341 
Q 956 3463 1253 3523 
Q 1550 3584 1831 3584 
Q 2591 3584 2966 3190 
Q 3341 2797 3341 1997 
z
" transform="scale(0.015625)"/>
       <path id="DejaVuSans-6e" d="M 3513 2113 
L 3513 0 
L 2938 0 
L 2938 2094 
Q 2938 2591 2744 2837 
Q 2550 3084 2163 3084 
Q 1697 3084 1428 2787 
Q 1159 2491 1159 1978 
L 1159 0 
L 581 0 
L 581 3500 
L 1159 3500 
L 1159 2956 
Q 1366 3272 1645 3428 
Q 1925 3584 2291 3584 
Q 2894 3584 3203 3211 
Q 3513 2838 3513 2113 
z
" transform="scale(0.015625)"/>
       <path id="DejaVuSans-67" d="M 2906 1791 
Q 2906 2416 2648 2759 
Q 2391 3103 1925 3103 
Q 1463 3103 1205 2759 
Q 947 2416 947 1791 
Q 947 1169 1205 825 
Q 1463 481 1925 481 
Q 2391 481 2648 825 
Q 2906 1169 2906 1791 
z
M 3481 434 
Q 3481 -459 3084 -895 
Q 2688 -1331 1869 -1331 
Q 1566 -1331 1297 -1286 
Q 1028 -1241 775 -1147 
L 775 -588 
Q 1028 -725 1275 -790 
Q 1522 -856 1778 -856 
Q 2344 -856 2625 -561 
Q 2906 -266 2906 331 
L 2906 616 
Q 2728 306 2450 153 
Q 2172 0 1784 0 
Q 1141 0 747 490 
Q 353 981 353 1791 
Q 353 2603 747 3093 
Q 1141 3584 1784 3584 
Q 2172 3584 2450 3431 
Q 2728 3278 2906 2969 
L 2906 3500 
L 3481 3500 
L 3481 434 
z
" transform="scale(0.015625)"/>
       <path id="DejaVuSans-65" d="M 3597 1894 
L 3597 1613 
L 953 1613 
Q 991 1019 1311 708 
Q 1631 397 2203 397 
Q 2534 397 2845 478 
Q 3156 559 3463 722 
L 3463 178 
Q 3153 47 2828 -22 
Q 2503 -91 2169 -91 
Q 1331 -91 842 396 
Q 353 884 353 1716 
Q 353 2575 817 3079 
Q 1281 3584 2069 3584 
Q 2775 3584 3186 3129 
Q 3597 2675 3597 1894 
z
M 3022 2063 
Q 3016 2534 2758 2815 
Q 2500 3097 2075 3097 
Q 1594 3097 1305 2825 
Q 1016 2553 972 2059 
L 3022 2063 
z
" transform="scale(0.015625)"/>
      </defs>
      <use xlink:href="#DejaVuSans-25"/>
      <use xlink:href="#DejaVuSans-20" x="95.019531"/>
      <use xlink:href="#DejaVuSans-63" x="126.806641"/>
      <use xlink:href="#DejaVuSans-68" x="181.787109"/>
      <use xlink:href="#DejaVuSans-61" x="245.166016"/>
      <use xlink:href="#DejaVuSans-6e" x="306.445312"/>
      <use xlink:href="#DejaVuSans-67" x="369.824219"/>
      <use xlink:href="#DejaVuSans-65" x="433.300781"/>
     </g>
    </g>
   </g>
   <g id="PolyCollection_1"/>
   <g id="PolyCollection_2"/>
   <g id="PolyCollection_3"/>
   <g id="PolyCollection_4"/>
   <g id="PolyCollection_5"/>
   <g id="PolyCollection_6"/>
   <g id="line2d_7">
    <path d="M 183.629594 86.099455 
L 187.640144 91.426531 
L 193.109075 98.489592 
L 197.848816 104.230889 
L 202.588556 109.618536 
L 207.328297 114.659593 
L 212.068037 119.360524 
L 216.443182 123.402518 
L 220.818327 127.163204 
L 225.193472 130.647772 
L 229.933213 134.127574 
L 234.308358 137.073637 
L 238.683503 139.768725 
L 243.058648 142.221318 
L 247.433793 144.435938 
L 251.808938 146.416213 
L 256.184083 148.165788 
L 260.559228 149.688312 
L 264.934373 150.987499 
L 269.309519 152.067102 
L 273.684664 152.930709 
L 278.059809 153.581806 
L 282.799549 154.052665 
L 288.26848 154.348678 
L 293.737412 154.419839 
L 300.664725 154.25621 
L 308.321229 153.854307 
L 317.436114 153.135954 
L 354.624847 149.84959 
L 371.396237 148.745556 
L 410.772542 146.4905 
L 449.419657 144.334863 
L 449.419657 144.334863 
" clip-path="url(#pbc100052af)" style="fill: none; stroke: #4c72b0; stroke-opacity: 0.9; stroke-width: 3; stroke-linecap: round"/>
   </g>
   <g id="line2d_8">
    <path d="M 183.629594 86.099455 
L 186.181762 89.432812 
L 192.74448 97.901944 
L 197.48422 103.645037 
L 202.223961 109.055438 
L 206.963701 114.1377 
L 211.703442 118.896043 
L 216.443182 123.33599 
L 221.182923 127.461798 
L 225.922663 131.278031 
L 230.662404 134.790584 
L 235.037549 137.767672 
L 239.777289 140.71377 
L 244.51703 143.384625 
L 249.25677 145.789103 
L 253.996511 147.935762 
L 258.736251 149.828521 
L 263.475992 151.470816 
L 268.215732 152.866173 
L 272.955473 154.018209 
L 277.695213 154.930393 
L 282.434954 155.606153 
L 287.53929 156.092561 
L 293.008221 156.387373 
L 298.841748 156.464607 
L 305.404465 156.338121 
L 311.967183 155.991493 
L 318.894496 155.395508 
L 346.239153 152.707603 
L 372.125428 150.709531 
L 399.105489 148.845893 
L 444.679917 145.935314 
L 449.419657 145.635756 
L 449.419657 145.635756 
" clip-path="url(#pbc100052af)" style="fill: none; stroke: #dd8452; stroke-opacity: 0.9; stroke-width: 3; stroke-linecap: round"/>
   </g>
   <g id="line2d_9">
    <path d="M 183.629594 86.099455 
L 185.817167 89.21009 
L 192.015289 97.941916 
L 196.755029 104.20682 
L 201.49477 110.086116 
L 206.23451 115.588257 
L 210.609655 120.338518 
L 214.984801 124.777938 
L 219.359946 128.911194 
L 223.735091 132.743583 
L 228.110236 136.280716 
L 232.485381 139.528629 
L 236.860526 142.492434 
L 241.235671 145.178441 
L 245.610816 147.592577 
L 249.985961 149.743008 
L 254.361106 151.638137 
L 258.736251 153.28637 
L 263.111396 154.694806 
L 267.486541 155.868699 
L 271.861686 156.812872 
L 276.236832 157.531489 
L 280.611977 158.029571 
L 285.351717 158.334616 
L 290.456053 158.441818 
L 296.28958 158.340481 
L 304.310679 157.95666 
L 313.060969 157.303558 
L 322.54045 156.367415 
L 332.749122 155.370066 
L 343.686985 154.544197 
L 359.364588 153.610636 
L 385.615458 152.298812 
L 449.419657 149.33764 
L 449.419657 149.33764 
" clip-path="url(#pbc100052af)" style="fill: none; stroke: #55a868; stroke-opacity: 0.9; stroke-width: 3; stroke-linecap: round"/>
   </g>
   <g id="line2d_10">
    <path d="M 183.629594 86.099455 
L 185.817167 89.110299 
L 192.015289 97.565267 
L 196.755029 103.633512 
L 201.49477 109.329175 
L 206.23451 114.658975 
L 210.609655 119.259136 
L 214.984801 123.557127 
L 219.359946 127.557847 
L 223.735091 131.267167 
L 228.110236 134.691144 
L 232.485381 137.835195 
L 236.860526 140.705314 
L 241.235671 143.307702 
L 245.610816 145.649207 
L 249.985961 147.736237 
L 254.361106 149.577297 
L 258.736251 151.179366 
L 263.111396 152.5502 
L 267.486541 153.695781 
L 271.861686 154.620824 
L 276.236832 155.329771 
L 280.611977 155.827383 
L 285.351717 156.142445 
L 290.820648 156.274869 
L 297.018771 156.191279 
L 304.675275 155.863578 
L 313.425565 155.25996 
L 322.905046 154.371754 
L 334.207504 153.335105 
L 345.874557 152.488437 
L 363.375138 151.466567 
L 395.459535 149.854341 
L 449.419657 147.253438 
L 449.419657 147.253438 
" clip-path="url(#pbc100052af)" style="fill: none; stroke: #c44e52; stroke-opacity: 0.9; stroke-width: 3; stroke-linecap: round"/>
   </g>
   <g id="line2d_11">
    <path d="M 183.629594 86.099455 
L 186.910953 90.641358 
L 192.74448 98.529789 
L 197.48422 104.539821 
L 202.223961 110.182995 
L 206.963701 115.465317 
L 211.338846 120.025828 
L 215.713991 124.287824 
L 220.089136 128.255594 
L 224.464282 131.933291 
L 228.839427 135.324774 
L 233.214572 138.434322 
L 237.589717 141.267143 
L 241.964862 143.82718 
L 246.340007 146.118201 
L 250.715152 148.145262 
L 255.090297 149.917687 
L 259.465442 151.440108 
L 263.840587 152.716084 
L 268.215732 153.749202 
L 272.590877 154.543178 
L 276.966022 155.101664 
L 281.341167 155.430399 
L 286.080908 155.557177 
L 291.185244 155.469239 
L 296.654175 155.154642 
L 302.487702 154.600742 
L 309.05042 153.750224 
L 321.082069 151.958819 
L 330.926145 150.504089 
L 340.770221 149.322528 
L 351.343489 148.289508 
L 367.385687 146.972938 
L 384.157077 145.791793 
L 413.689306 143.98089 
L 449.419657 141.892351 
L 449.419657 141.892351 
" clip-path="url(#pbc100052af)" style="fill: none; stroke: #8172b3; stroke-opacity: 0.9; stroke-width: 3; stroke-linecap: round"/>
   </g>
   <g id="line2d_12">
    <path d="M 183.629594 86.099455 
L 187.640144 91.490371 
L 193.109075 98.639668 
L 197.848816 104.459427 
L 202.588556 109.929587 
L 207.328297 115.056234 
L 212.068037 119.844884 
L 216.807778 124.300638 
L 221.182923 128.12262 
L 225.558068 131.67041 
L 229.933213 134.948035 
L 234.308358 137.959274 
L 238.683503 140.70785 
L 243.058648 143.197487 
L 247.433793 145.43226 
L 251.808938 147.419717 
L 256.184083 149.164481 
L 260.559228 150.670364 
L 264.934373 151.941478 
L 269.309519 152.981282 
L 273.684664 153.792969 
L 278.059809 154.379682 
L 282.434954 154.747343 
L 287.53929 154.935148 
L 293.008221 154.905309 
L 298.477152 154.657864 
L 304.310679 154.17307 
L 311.602588 153.321514 
L 321.082069 151.997197 
L 332.749122 150.360627 
L 344.780771 148.936872 
L 356.81242 147.726447 
L 374.677596 146.268997 
L 395.094939 144.812546 
L 437.752604 142.048772 
L 449.419657 141.308971 
L 449.419657 141.308971 
" clip-path="url(#pbc100052af)" style="fill: none; stroke: #937860; stroke-opacity: 0.9; stroke-width: 3; stroke-linecap: round"/>
   </g>
   <g id="patch_3">
    <path d="M 170.340091 183.612 
L 170.340091 81.456 
" style="fill: none; stroke: #ffffff; stroke-width: 1.25; stroke-linejoin: miter; stroke-linecap: square"/>
   </g>
   <g id="patch_4">
    <path d="M 170.340091 183.612 
L 462.70916 183.612 
" style="fill: none; stroke: #ffffff; stroke-width: 1.25; stroke-linejoin: miter; stroke-linecap: square"/>
   </g>
   <g id="text_4">
    <!-- 0.8~90 -->
    <g style="fill: #262626" transform="translate(269.894782 75.456) scale(0.252 -0.252)">
     <defs>
      <path id="DejaVuSans-38" d="M 2034 2216 
Q 1584 2216 1326 1975 
Q 1069 1734 1069 1313 
Q 1069 891 1326 650 
Q 1584 409 2034 409 
Q 2484 409 2743 651 
Q 3003 894 3003 1313 
Q 3003 1734 2745 1975 
Q 2488 2216 2034 2216 
z
M 1403 2484 
Q 997 2584 770 2862 
Q 544 3141 544 3541 
Q 544 4100 942 4425 
Q 1341 4750 2034 4750 
Q 2731 4750 3128 4425 
Q 3525 4100 3525 3541 
Q 3525 3141 3298 2862 
Q 3072 2584 2669 2484 
Q 3125 2378 3379 2068 
Q 3634 1759 3634 1313 
Q 3634 634 3220 271 
Q 2806 -91 2034 -91 
Q 1263 -91 848 271 
Q 434 634 434 1313 
Q 434 1759 690 2068 
Q 947 2378 1403 2484 
z
M 1172 3481 
Q 1172 3119 1398 2916 
Q 1625 2713 2034 2713 
Q 2441 2713 2670 2916 
Q 2900 3119 2900 3481 
Q 2900 3844 2670 4047 
Q 2441 4250 2034 4250 
Q 1625 4250 1398 4047 
Q 1172 3844 1172 3481 
z
" transform="scale(0.015625)"/>
      <path id="DejaVuSans-7e" d="M 4684 2553 
L 4684 1997 
Q 4356 1750 4076 1644 
Q 3797 1538 3494 1538 
Q 3150 1538 2694 1722 
Q 2659 1734 2644 1741 
Q 2622 1750 2575 1766 
Q 2091 1959 1797 1959 
Q 1522 1959 1253 1839 
Q 984 1719 678 1459 
L 678 2016 
Q 1006 2263 1286 2370 
Q 1566 2478 1869 2478 
Q 2213 2478 2672 2291 
Q 2703 2278 2719 2272 
Q 2744 2263 2788 2247 
Q 3272 2053 3566 2053 
Q 3834 2053 4098 2172 
Q 4363 2291 4684 2553 
z
" transform="scale(0.015625)"/>
      <path id="DejaVuSans-39" d="M 703 97 
L 703 672 
Q 941 559 1184 500 
Q 1428 441 1663 441 
Q 2288 441 2617 861 
Q 2947 1281 2994 2138 
Q 2813 1869 2534 1725 
Q 2256 1581 1919 1581 
Q 1219 1581 811 2004 
Q 403 2428 403 3163 
Q 403 3881 828 4315 
Q 1253 4750 1959 4750 
Q 2769 4750 3195 4129 
Q 3622 3509 3622 2328 
Q 3622 1225 3098 567 
Q 2575 -91 1691 -91 
Q 1453 -91 1209 -44 
Q 966 3 703 97 
z
M 1959 2075 
Q 2384 2075 2632 2365 
Q 2881 2656 2881 3163 
Q 2881 3666 2632 3958 
Q 2384 4250 1959 4250 
Q 1534 4250 1286 3958 
Q 1038 3666 1038 3163 
Q 1038 2656 1286 2365 
Q 1534 2075 1959 2075 
z
" transform="scale(0.015625)"/>
     </defs>
     <use xlink:href="#DejaVuSans-30"/>
     <use xlink:href="#DejaVuSans-2e" x="63.623047"/>
     <use xlink:href="#DejaVuSans-38" x="95.410156"/>
     <use xlink:href="#DejaVuSans-7e" x="159.033203"/>
     <use xlink:href="#DejaVuSans-39" x="242.822266"/>
     <use xlink:href="#DejaVuSans-30" x="306.445312"/>
    </g>
   </g>
  </g>
  <g id="axes_2">
   <g id="patch_5">
    <path d="M 489.290298 183.612 
L 781.659367 183.612 
L 781.659367 81.456 
L 489.290298 81.456 
z
" style="fill: #eaeaf2"/>
   </g>
   <g id="matplotlib.axis_3">
    <g id="xtick_5">
     <g id="line2d_13">
      <path d="M 502.579801 183.612 
L 502.579801 81.456 
" clip-path="url(#pb590c3851d)" style="fill: none; stroke: #ffffff; stroke-linecap: round"/>
     </g>
    </g>
    <g id="xtick_6">
     <g id="line2d_14">
      <path d="M 593.728656 183.612 
L 593.728656 81.456 
" clip-path="url(#pb590c3851d)" style="fill: none; stroke: #ffffff; stroke-linecap: round"/>
     </g>
    </g>
    <g id="xtick_7">
     <g id="line2d_15">
      <path d="M 684.877512 183.612 
L 684.877512 81.456 
" clip-path="url(#pb590c3851d)" style="fill: none; stroke: #ffffff; stroke-linecap: round"/>
     </g>
    </g>
    <g id="xtick_8">
     <g id="line2d_16">
      <path d="M 776.026368 183.612 
L 776.026368 81.456 
" clip-path="url(#pb590c3851d)" style="fill: none; stroke: #ffffff; stroke-linecap: round"/>
     </g>
    </g>
   </g>
   <g id="matplotlib.axis_4">
    <g id="ytick_3">
     <g id="line2d_17">
      <path d="M 489.290298 148.441793 
L 781.659367 148.441793 
" clip-path="url(#pb590c3851d)" style="fill: none; stroke: #ffffff; stroke-linecap: round"/>
     </g>
    </g>
    <g id="ytick_4">
     <g id="line2d_18">
      <path d="M 489.290298 86.099455 
L 781.659367 86.099455 
" clip-path="url(#pb590c3851d)" style="fill: none; stroke: #ffffff; stroke-linecap: round"/>
     </g>
    </g>
   </g>
   <g id="PolyCollection_7"/>
   <g id="PolyCollection_8"/>
   <g id="PolyCollection_9"/>
   <g id="PolyCollection_10"/>
   <g id="PolyCollection_11"/>
   <g id="PolyCollection_12"/>
   <g id="line2d_19">
    <path d="M 502.579801 86.099455 
L 505.86116 90.481119 
L 513.153068 100.093979 
L 518.621999 106.914372 
L 524.090931 113.38802 
L 529.559862 119.515919 
L 535.028793 125.299067 
L 540.133129 130.386617 
L 545.237465 135.175828 
L 550.341801 139.66792 
L 555.446137 143.86464 
L 560.550473 147.767254 
L 565.654809 151.377077 
L 570.394549 154.468529 
L 575.13429 157.310511 
L 579.87403 159.904207 
L 584.613771 162.250805 
L 589.353511 164.351543 
L 594.093252 166.209367 
L 598.832992 167.830878 
L 603.572733 169.218762 
L 608.312473 170.376936 
L 613.052214 171.30665 
L 617.791954 172.009052 
L 622.531695 172.485295 
L 627.271435 172.736415 
L 632.375771 172.776456 
L 638.209298 172.60101 
L 646.230397 172.086174 
L 665.91855 170.885079 
L 679.043985 170.375644 
L 700.19052 169.815928 
L 733.733299 169.153864 
L 768.369864 168.573605 
L 768.369864 168.573605 
" clip-path="url(#pb590c3851d)" style="fill: none; stroke: #4c72b0; stroke-opacity: 0.9; stroke-width: 3; stroke-linecap: round"/>
   </g>
   <g id="line2d_20">
    <path d="M 502.579801 86.099455 
L 505.131969 89.443172 
L 513.153068 99.914808 
L 518.621999 106.666539 
L 524.090931 113.081467 
L 529.559862 119.160465 
L 535.028793 124.904443 
L 540.497725 130.314282 
L 545.602061 135.062903 
L 550.706397 139.522293 
L 555.810732 143.693402 
L 560.915068 147.577272 
L 566.019404 151.175039 
L 571.12374 154.488031 
L 575.863481 157.311023 
L 580.603221 159.891094 
L 585.342962 162.22922 
L 590.082702 164.326403 
L 594.822443 166.183938 
L 599.562183 167.803546 
L 604.301924 169.186639 
L 609.041664 170.340934 
L 613.781405 171.273807 
L 618.521145 171.986968 
L 623.260886 172.481323 
L 628.000626 172.757667 
L 633.104962 172.827289 
L 638.938489 172.68011 
L 649.147161 172.096159 
L 672.845863 170.826937 
L 688.523466 170.265267 
L 708.576214 169.7684 
L 760.71336 168.759399 
L 768.369864 168.620529 
L 768.369864 168.620529 
" clip-path="url(#pb590c3851d)" style="fill: none; stroke: #dd8452; stroke-opacity: 0.9; stroke-width: 3; stroke-linecap: round"/>
   </g>
   <g id="line2d_21">
    <path d="M 502.579801 86.099455 
L 504.767373 89.219591 
L 512.788473 100.648902 
L 518.257404 108.013247 
L 523.726335 115.001677 
L 529.195267 121.616332 
L 534.299603 127.454609 
L 539.403938 132.970081 
L 544.508274 138.163749 
L 549.61261 143.036813 
L 554.716946 147.590452 
L 559.456687 151.533902 
L 564.196427 155.204113 
L 568.936168 158.602616 
L 573.675908 161.730941 
L 578.415649 164.590455 
L 583.155389 167.18306 
L 587.89513 169.510501 
L 592.63487 171.574893 
L 597.010015 173.249068 
L 601.38516 174.702638 
L 605.760305 175.93738 
L 610.13545 176.955323 
L 614.510595 177.759883 
L 619.250336 178.396962 
L 623.990076 178.79584 
L 628.729817 178.960459 
L 633.834153 178.91021 
L 639.303084 178.627849 
L 661.543405 177.114527 
L 675.033436 176.545868 
L 692.898611 176.033718 
L 714.409741 175.648999 
L 767.640673 174.973723 
L 768.369864 174.96508 
L 768.369864 174.96508 
" clip-path="url(#pb590c3851d)" style="fill: none; stroke: #55a868; stroke-opacity: 0.9; stroke-width: 3; stroke-linecap: round"/>
   </g>
   <g id="line2d_22">
    <path d="M 502.579801 86.099455 
L 504.767373 89.119429 
L 512.788473 100.185779 
L 518.257404 107.318346 
L 523.726335 114.088021 
L 529.195267 120.496182 
L 534.664198 126.544032 
L 539.768534 131.864661 
L 544.87287 136.873533 
L 549.977206 141.571783 
L 555.081542 145.960656 
L 560.185878 150.041465 
L 564.925618 153.556191 
L 569.665358 156.807845 
L 574.405099 159.797935 
L 579.144839 162.527899 
L 583.88458 164.99942 
L 588.62432 167.214626 
L 593.364061 169.175653 
L 598.103801 170.884728 
L 602.843542 172.34438 
L 607.583282 173.557191 
L 612.323023 174.526453 
L 617.062763 175.25667 
L 621.802504 175.753897 
L 626.542244 176.023267 
L 631.64658 176.076422 
L 637.115512 175.902164 
L 643.678229 175.443802 
L 654.980687 174.708299 
L 668.106123 174.092245 
L 685.606703 173.507928 
L 705.294856 173.054391 
L 741.389802 172.53187 
L 768.369864 172.193355 
L 768.369864 172.193355 
" clip-path="url(#pb590c3851d)" style="fill: none; stroke: #c44e52; stroke-opacity: 0.9; stroke-width: 3; stroke-linecap: round"/>
   </g>
   <g id="line2d_23">
    <path d="M 502.579801 86.099455 
L 505.496564 90.154188 
L 513.153068 100.675346 
L 518.621999 107.77848 
L 524.090931 114.521664 
L 529.559862 120.906194 
L 535.028793 126.933215 
L 540.133129 132.236898 
L 545.237465 137.231131 
L 550.341801 141.916877 
L 555.446137 146.295114 
L 560.550473 150.36685 
L 565.290213 153.874206 
L 570.029954 157.119034 
L 574.769694 160.102277 
L 579.509435 162.824947 
L 584.249175 165.288093 
L 588.988916 167.492801 
L 593.728656 169.440149 
L 598.468397 171.131617 
L 602.843542 172.467488 
L 607.218687 173.587975 
L 611.593832 174.49416 
L 616.333573 175.237895 
L 621.073313 175.73867 
L 625.813054 175.997722 
L 630.552794 176.025334 
L 635.65713 175.840452 
L 641.490657 175.402414 
L 660.085023 173.837679 
L 680.502367 172.348654 
L 692.898611 171.615579 
L 706.753237 171.029245 
L 729.722749 170.305834 
L 762.171742 169.548381 
L 768.369864 169.417258 
L 768.369864 169.417258 
" clip-path="url(#pb590c3851d)" style="fill: none; stroke: #8172b3; stroke-opacity: 0.9; stroke-width: 3; stroke-linecap: round"/>
   </g>
   <g id="line2d_24">
    <path d="M 502.579801 86.099455 
L 505.86116 90.533414 
L 513.153068 100.252621 
L 518.621999 107.150908 
L 524.090931 113.701848 
L 529.559862 119.906893 
L 535.028793 125.767388 
L 540.497725 131.284594 
L 545.602061 136.125327 
L 550.706397 140.669069 
L 555.810732 144.916826 
L 560.915068 148.869638 
L 566.019404 152.52862 
L 570.759145 155.664089 
L 575.498885 158.547997 
L 580.238626 161.181276 
L 584.978366 163.564934 
L 589.718107 165.700492 
L 594.457847 167.589172 
L 599.197588 169.232045 
L 603.937328 170.630223 
L 608.677069 171.784796 
L 613.416809 172.697468 
L 618.15655 173.372636 
L 622.89629 173.812442 
L 627.636031 174.019006 
L 632.740367 173.999366 
L 638.573893 173.74007 
L 649.147161 172.950015 
L 669.9291 171.51504 
L 687.42968 170.511758 
L 703.836474 169.844319 
L 730.087344 169.027495 
L 764.359314 168.183202 
L 768.369864 168.096435 
L 768.369864 168.096435 
" clip-path="url(#pb590c3851d)" style="fill: none; stroke: #937860; stroke-opacity: 0.9; stroke-width: 3; stroke-linecap: round"/>
   </g>
   <g id="patch_6">
    <path d="M 489.290298 183.612 
L 489.290298 81.456 
" style="fill: none; stroke: #ffffff; stroke-width: 1.25; stroke-linejoin: miter; stroke-linecap: square"/>
   </g>
   <g id="patch_7">
    <path d="M 489.290298 183.612 
L 781.659367 183.612 
" style="fill: none; stroke: #ffffff; stroke-width: 1.25; stroke-linejoin: miter; stroke-linecap: square"/>
   </g>
   <g id="text_5">
    <!-- 0.8~365 -->
    <g style="fill: #262626" transform="translate(580.828239 75.456) scale(0.252 -0.252)">
     <defs>
      <path id="DejaVuSans-33" d="M 2597 2516 
Q 3050 2419 3304 2112 
Q 3559 1806 3559 1356 
Q 3559 666 3084 287 
Q 2609 -91 1734 -91 
Q 1441 -91 1130 -33 
Q 819 25 488 141 
L 488 750 
Q 750 597 1062 519 
Q 1375 441 1716 441 
Q 2309 441 2620 675 
Q 2931 909 2931 1356 
Q 2931 1769 2642 2001 
Q 2353 2234 1838 2234 
L 1294 2234 
L 1294 2753 
L 1863 2753 
Q 2328 2753 2575 2939 
Q 2822 3125 2822 3475 
Q 2822 3834 2567 4026 
Q 2313 4219 1838 4219 
Q 1578 4219 1281 4162 
Q 984 4106 628 3988 
L 628 4550 
Q 988 4650 1302 4700 
Q 1616 4750 1894 4750 
Q 2613 4750 3031 4423 
Q 3450 4097 3450 3541 
Q 3450 3153 3228 2886 
Q 3006 2619 2597 2516 
z
" transform="scale(0.015625)"/>
      <path id="DejaVuSans-36" d="M 2113 2584 
Q 1688 2584 1439 2293 
Q 1191 2003 1191 1497 
Q 1191 994 1439 701 
Q 1688 409 2113 409 
Q 2538 409 2786 701 
Q 3034 994 3034 1497 
Q 3034 2003 2786 2293 
Q 2538 2584 2113 2584 
z
M 3366 4563 
L 3366 3988 
Q 3128 4100 2886 4159 
Q 2644 4219 2406 4219 
Q 1781 4219 1451 3797 
Q 1122 3375 1075 2522 
Q 1259 2794 1537 2939 
Q 1816 3084 2150 3084 
Q 2853 3084 3261 2657 
Q 3669 2231 3669 1497 
Q 3669 778 3244 343 
Q 2819 -91 2113 -91 
Q 1303 -91 875 529 
Q 447 1150 447 2328 
Q 447 3434 972 4092 
Q 1497 4750 2381 4750 
Q 2619 4750 2861 4703 
Q 3103 4656 3366 4563 
z
" transform="scale(0.015625)"/>
      <path id="DejaVuSans-35" d="M 691 4666 
L 3169 4666 
L 3169 4134 
L 1269 4134 
L 1269 2991 
Q 1406 3038 1543 3061 
Q 1681 3084 1819 3084 
Q 2600 3084 3056 2656 
Q 3513 2228 3513 1497 
Q 3513 744 3044 326 
Q 2575 -91 1722 -91 
Q 1428 -91 1123 -41 
Q 819 9 494 109 
L 494 744 
Q 775 591 1075 516 
Q 1375 441 1709 441 
Q 2250 441 2565 725 
Q 2881 1009 2881 1497 
Q 2881 1984 2565 2268 
Q 2250 2553 1709 2553 
Q 1456 2553 1204 2497 
Q 953 2441 691 2322 
L 691 4666 
z
" transform="scale(0.015625)"/>
     </defs>
     <use xlink:href="#DejaVuSans-30"/>
     <use xlink:href="#DejaVuSans-2e" x="63.623047"/>
     <use xlink:href="#DejaVuSans-38" x="95.410156"/>
     <use xlink:href="#DejaVuSans-7e" x="159.033203"/>
     <use xlink:href="#DejaVuSans-33" x="242.822266"/>
     <use xlink:href="#DejaVuSans-36" x="306.445312"/>
     <use xlink:href="#DejaVuSans-35" x="370.068359"/>
    </g>
   </g>
  </g>
  <g id="axes_3">
   <g id="patch_8">
    <path d="M 808.240504 183.612 
L 1100.609573 183.612 
L 1100.609573 81.456 
L 808.240504 81.456 
z
" style="fill: #eaeaf2"/>
   </g>
   <g id="matplotlib.axis_5">
    <g id="xtick_9">
     <g id="line2d_25">
      <path d="M 821.530007 183.612 
L 821.530007 81.456 
" clip-path="url(#p20a90634a2)" style="fill: none; stroke: #ffffff; stroke-linecap: round"/>
     </g>
     <g id="text_6">
      <!-- 0 -->
      <g style="fill: #262626" transform="translate(814.18132 210.664391) scale(0.231 -0.231)">
       <use xlink:href="#DejaVuSans-30"/>
      </g>
     </g>
    </g>
    <g id="xtick_10">
     <g id="line2d_26">
      <path d="M 912.678863 183.612 
L 912.678863 81.456 
" clip-path="url(#p20a90634a2)" style="fill: none; stroke: #ffffff; stroke-linecap: round"/>
     </g>
     <g id="text_7">
      <!-- 250 -->
      <g style="fill: #262626" transform="translate(890.6328 210.664391) scale(0.231 -0.231)">
       <defs>
        <path id="DejaVuSans-32" d="M 1228 531 
L 3431 531 
L 3431 0 
L 469 0 
L 469 531 
Q 828 903 1448 1529 
Q 2069 2156 2228 2338 
Q 2531 2678 2651 2914 
Q 2772 3150 2772 3378 
Q 2772 3750 2511 3984 
Q 2250 4219 1831 4219 
Q 1534 4219 1204 4116 
Q 875 4013 500 3803 
L 500 4441 
Q 881 4594 1212 4672 
Q 1544 4750 1819 4750 
Q 2544 4750 2975 4387 
Q 3406 4025 3406 3419 
Q 3406 3131 3298 2873 
Q 3191 2616 2906 2266 
Q 2828 2175 2409 1742 
Q 1991 1309 1228 531 
z
" transform="scale(0.015625)"/>
       </defs>
       <use xlink:href="#DejaVuSans-32"/>
       <use xlink:href="#DejaVuSans-35" x="63.623047"/>
       <use xlink:href="#DejaVuSans-30" x="127.246094"/>
      </g>
     </g>
    </g>
    <g id="xtick_11">
     <g id="line2d_27">
      <path d="M 1003.827719 183.612 
L 1003.827719 81.456 
" clip-path="url(#p20a90634a2)" style="fill: none; stroke: #ffffff; stroke-linecap: round"/>
     </g>
     <g id="text_8">
      <!-- 500 -->
      <g style="fill: #262626" transform="translate(981.781656 210.664391) scale(0.231 -0.231)">
       <use xlink:href="#DejaVuSans-35"/>
       <use xlink:href="#DejaVuSans-30" x="63.623047"/>
       <use xlink:href="#DejaVuSans-30" x="127.246094"/>
      </g>
     </g>
    </g>
    <g id="xtick_12">
     <g id="line2d_28">
      <path d="M 1094.976574 183.612 
L 1094.976574 81.456 
" clip-path="url(#p20a90634a2)" style="fill: none; stroke: #ffffff; stroke-linecap: round"/>
     </g>
     <g id="text_9">
      <!-- 750 -->
      <g style="fill: #262626" transform="translate(1072.930512 210.664391) scale(0.231 -0.231)">
       <defs>
        <path id="DejaVuSans-37" d="M 525 4666 
L 3525 4666 
L 3525 4397 
L 1831 0 
L 1172 0 
L 2766 4134 
L 525 4134 
L 525 4666 
z
" transform="scale(0.015625)"/>
       </defs>
       <use xlink:href="#DejaVuSans-37"/>
       <use xlink:href="#DejaVuSans-35" x="63.623047"/>
       <use xlink:href="#DejaVuSans-30" x="127.246094"/>
      </g>
     </g>
    </g>
    <g id="text_10">
     <!-- step -->
     <g style="fill: #262626" transform="translate(927.169664 238.616531) scale(0.252 -0.252)">
      <defs>
       <path id="DejaVuSans-73" d="M 2834 3397 
L 2834 2853 
Q 2591 2978 2328 3040 
Q 2066 3103 1784 3103 
Q 1356 3103 1142 2972 
Q 928 2841 928 2578 
Q 928 2378 1081 2264 
Q 1234 2150 1697 2047 
L 1894 2003 
Q 2506 1872 2764 1633 
Q 3022 1394 3022 966 
Q 3022 478 2636 193 
Q 2250 -91 1575 -91 
Q 1294 -91 989 -36 
Q 684 19 347 128 
L 347 722 
Q 666 556 975 473 
Q 1284 391 1588 391 
Q 1994 391 2212 530 
Q 2431 669 2431 922 
Q 2431 1156 2273 1281 
Q 2116 1406 1581 1522 
L 1381 1569 
Q 847 1681 609 1914 
Q 372 2147 372 2553 
Q 372 3047 722 3315 
Q 1072 3584 1716 3584 
Q 2034 3584 2315 3537 
Q 2597 3491 2834 3397 
z
" transform="scale(0.015625)"/>
       <path id="DejaVuSans-74" d="M 1172 4494 
L 1172 3500 
L 2356 3500 
L 2356 3053 
L 1172 3053 
L 1172 1153 
Q 1172 725 1289 603 
Q 1406 481 1766 481 
L 2356 481 
L 2356 0 
L 1766 0 
Q 1100 0 847 248 
Q 594 497 594 1153 
L 594 3053 
L 172 3053 
L 172 3500 
L 594 3500 
L 594 4494 
L 1172 4494 
z
" transform="scale(0.015625)"/>
       <path id="DejaVuSans-70" d="M 1159 525 
L 1159 -1331 
L 581 -1331 
L 581 3500 
L 1159 3500 
L 1159 2969 
Q 1341 3281 1617 3432 
Q 1894 3584 2278 3584 
Q 2916 3584 3314 3078 
Q 3713 2572 3713 1747 
Q 3713 922 3314 415 
Q 2916 -91 2278 -91 
Q 1894 -91 1617 61 
Q 1341 213 1159 525 
z
M 3116 1747 
Q 3116 2381 2855 2742 
Q 2594 3103 2138 3103 
Q 1681 3103 1420 2742 
Q 1159 2381 1159 1747 
Q 1159 1113 1420 752 
Q 1681 391 2138 391 
Q 2594 391 2855 752 
Q 3116 1113 3116 1747 
z
" transform="scale(0.015625)"/>
      </defs>
      <use xlink:href="#DejaVuSans-73"/>
      <use xlink:href="#DejaVuSans-74" x="52.099609"/>
      <use xlink:href="#DejaVuSans-65" x="91.308594"/>
      <use xlink:href="#DejaVuSans-70" x="152.832031"/>
     </g>
    </g>
   </g>
   <g id="matplotlib.axis_6">
    <g id="ytick_5">
     <g id="line2d_29">
      <path d="M 808.240504 148.441793 
L 1100.609573 148.441793 
" clip-path="url(#p20a90634a2)" style="fill: none; stroke: #ffffff; stroke-linecap: round"/>
     </g>
    </g>
    <g id="ytick_6">
     <g id="line2d_30">
      <path d="M 808.240504 86.099455 
L 1100.609573 86.099455 
" clip-path="url(#p20a90634a2)" style="fill: none; stroke: #ffffff; stroke-linecap: round"/>
     </g>
    </g>
   </g>
   <g id="PolyCollection_13"/>
   <g id="PolyCollection_14"/>
   <g id="PolyCollection_15"/>
   <g id="PolyCollection_16"/>
   <g id="PolyCollection_17"/>
   <g id="PolyCollection_18"/>
   <g id="line2d_31">
    <path d="M 821.530007 86.099455 
L 825.540557 91.426531 
L 831.009488 98.489592 
L 835.749229 104.230889 
L 840.488969 109.618536 
L 845.22871 114.659593 
L 849.96845 119.360524 
L 854.343595 123.402518 
L 858.71874 127.163204 
L 863.093885 130.647772 
L 867.833626 134.127574 
L 872.208771 137.073637 
L 876.583916 139.768725 
L 880.959061 142.221318 
L 885.334206 144.435938 
L 889.709351 146.416213 
L 894.084496 148.165788 
L 898.459641 149.688312 
L 902.834787 150.987499 
L 907.209932 152.067102 
L 911.585077 152.930709 
L 915.960222 153.581806 
L 920.699962 154.052665 
L 926.168894 154.348678 
L 931.637825 154.419839 
L 938.565138 154.25621 
L 946.221642 153.854307 
L 955.336527 153.135954 
L 992.52526 149.84959 
L 1009.29665 148.745556 
L 1048.672956 146.4905 
L 1087.32007 144.334863 
L 1087.32007 144.334863 
" clip-path="url(#p20a90634a2)" style="fill: none; stroke: #4c72b0; stroke-opacity: 0.9; stroke-width: 3; stroke-linecap: round"/>
   </g>
   <g id="line2d_32">
    <path d="M 821.530007 86.099455 
L 824.082175 89.432812 
L 830.644893 97.901944 
L 835.384633 103.645037 
L 840.124374 109.055438 
L 844.864114 114.1377 
L 849.603855 118.896043 
L 854.343595 123.33599 
L 859.083336 127.461798 
L 863.823076 131.278031 
L 868.562817 134.790584 
L 872.937962 137.767672 
L 877.677702 140.71377 
L 882.417443 143.384625 
L 887.157183 145.789103 
L 891.896924 147.935762 
L 896.636664 149.828521 
L 901.376405 151.470816 
L 906.116145 152.866173 
L 910.855886 154.018209 
L 915.595626 154.930393 
L 920.335367 155.606153 
L 925.439703 156.092561 
L 930.908634 156.387373 
L 936.742161 156.464607 
L 943.304878 156.338121 
L 949.867596 155.991493 
L 956.794909 155.395508 
L 984.139566 152.707603 
L 1010.025841 150.709531 
L 1037.005902 148.845893 
L 1082.58033 145.935314 
L 1087.32007 145.635756 
L 1087.32007 145.635756 
" clip-path="url(#p20a90634a2)" style="fill: none; stroke: #dd8452; stroke-opacity: 0.9; stroke-width: 3; stroke-linecap: round"/>
   </g>
   <g id="line2d_33">
    <path d="M 821.530007 86.099455 
L 823.71758 89.21009 
L 829.915702 97.941916 
L 834.655442 104.20682 
L 839.395183 110.086116 
L 844.134923 115.588257 
L 848.510069 120.338518 
L 852.885214 124.777938 
L 857.260359 128.911194 
L 861.635504 132.743583 
L 866.010649 136.280716 
L 870.385794 139.528629 
L 874.760939 142.492434 
L 879.136084 145.178441 
L 883.511229 147.592577 
L 887.886374 149.743008 
L 892.261519 151.638137 
L 896.636664 153.28637 
L 901.011809 154.694806 
L 905.386954 155.868699 
L 909.7621 156.812872 
L 914.137245 157.531489 
L 918.51239 158.029571 
L 923.25213 158.334616 
L 928.356466 158.441818 
L 934.189993 158.340481 
L 942.211092 157.95666 
L 950.961382 157.303558 
L 960.440863 156.367415 
L 970.649535 155.370066 
L 981.587398 154.544197 
L 997.265001 153.610636 
L 1023.515871 152.298812 
L 1087.32007 149.33764 
L 1087.32007 149.33764 
" clip-path="url(#p20a90634a2)" style="fill: none; stroke: #55a868; stroke-opacity: 0.9; stroke-width: 3; stroke-linecap: round"/>
   </g>
   <g id="line2d_34">
    <path d="M 821.530007 86.099455 
L 823.71758 89.110299 
L 829.915702 97.565267 
L 834.655442 103.633512 
L 839.395183 109.329175 
L 844.134923 114.658975 
L 848.510069 119.259136 
L 852.885214 123.557127 
L 857.260359 127.557847 
L 861.635504 131.267167 
L 866.010649 134.691144 
L 870.385794 137.835195 
L 874.760939 140.705314 
L 879.136084 143.307702 
L 883.511229 145.649207 
L 887.886374 147.736237 
L 892.261519 149.577297 
L 896.636664 151.179366 
L 901.011809 152.5502 
L 905.386954 153.695781 
L 909.7621 154.620824 
L 914.137245 155.329771 
L 918.51239 155.827383 
L 923.25213 156.142445 
L 928.721062 156.274869 
L 934.919184 156.191279 
L 942.575688 155.863578 
L 951.325978 155.25996 
L 960.805459 154.371754 
L 972.107917 153.335105 
L 983.77497 152.488437 
L 1001.275551 151.466567 
L 1033.359948 149.854341 
L 1087.32007 147.253438 
L 1087.32007 147.253438 
" clip-path="url(#p20a90634a2)" style="fill: none; stroke: #c44e52; stroke-opacity: 0.9; stroke-width: 3; stroke-linecap: round"/>
   </g>
   <g id="line2d_35">
    <path d="M 821.530007 86.099455 
L 824.811366 90.641358 
L 830.644893 98.529789 
L 835.384633 104.539821 
L 840.124374 110.182995 
L 844.864114 115.465317 
L 849.239259 120.025828 
L 853.614404 124.287824 
L 857.98955 128.255594 
L 862.364695 131.933291 
L 866.73984 135.324774 
L 871.114985 138.434322 
L 875.49013 141.267143 
L 879.865275 143.82718 
L 884.24042 146.118201 
L 888.615565 148.145262 
L 892.99071 149.917687 
L 897.365855 151.440108 
L 901.741 152.716084 
L 906.116145 153.749202 
L 910.49129 154.543178 
L 914.866435 155.101664 
L 919.241581 155.430399 
L 923.981321 155.557177 
L 929.085657 155.469239 
L 934.554588 155.154642 
L 940.388115 154.600742 
L 946.950833 153.750224 
L 958.982482 151.958819 
L 968.826558 150.504089 
L 978.670634 149.322528 
L 989.243902 148.289508 
L 1005.2861 146.972938 
L 1022.05749 145.791793 
L 1051.589719 143.98089 
L 1087.32007 141.892351 
L 1087.32007 141.892351 
" clip-path="url(#p20a90634a2)" style="fill: none; stroke: #8172b3; stroke-opacity: 0.9; stroke-width: 3; stroke-linecap: round"/>
   </g>
   <g id="line2d_36">
    <path d="M 821.530007 86.099455 
L 825.540557 91.490371 
L 831.009488 98.639668 
L 835.749229 104.459427 
L 840.488969 109.929587 
L 845.22871 115.056234 
L 849.96845 119.844884 
L 854.708191 124.300638 
L 859.083336 128.12262 
L 863.458481 131.67041 
L 867.833626 134.948035 
L 872.208771 137.959274 
L 876.583916 140.70785 
L 880.959061 143.197487 
L 885.334206 145.43226 
L 889.709351 147.419717 
L 894.084496 149.164481 
L 898.459641 150.670364 
L 902.834787 151.941478 
L 907.209932 152.981282 
L 911.585077 153.792969 
L 915.960222 154.379682 
L 920.335367 154.747343 
L 925.439703 154.935148 
L 930.908634 154.905309 
L 936.377565 154.657864 
L 942.211092 154.17307 
L 949.503001 153.321514 
L 958.982482 151.997197 
L 970.649535 150.360627 
L 982.681184 148.936872 
L 994.712833 147.726447 
L 1012.578009 146.268997 
L 1032.995352 144.812546 
L 1075.653017 142.048772 
L 1087.32007 141.308971 
L 1087.32007 141.308971 
" clip-path="url(#p20a90634a2)" style="fill: none; stroke: #937860; stroke-opacity: 0.9; stroke-width: 3; stroke-linecap: round"/>
   </g>
   <g id="patch_9">
    <path d="M 808.240504 183.612 
L 808.240504 81.456 
" style="fill: none; stroke: #ffffff; stroke-width: 1.25; stroke-linejoin: miter; stroke-linecap: square"/>
   </g>
   <g id="patch_10">
    <path d="M 808.240504 183.612 
L 1100.609573 183.612 
" style="fill: none; stroke: #ffffff; stroke-width: 1.25; stroke-linejoin: miter; stroke-linecap: square"/>
   </g>
   <g id="text_11">
    <!-- 0.85~90 -->
    <g style="fill: #262626" transform="translate(899.778445 75.456) scale(0.252 -0.252)">
     <use xlink:href="#DejaVuSans-30"/>
     <use xlink:href="#DejaVuSans-2e" x="63.623047"/>
     <use xlink:href="#DejaVuSans-38" x="95.410156"/>
     <use xlink:href="#DejaVuSans-35" x="159.033203"/>
     <use xlink:href="#DejaVuSans-7e" x="222.65625"/>
     <use xlink:href="#DejaVuSans-39" x="306.445312"/>
     <use xlink:href="#DejaVuSans-30" x="370.068359"/>
    </g>
   </g>
  </g>
  <g id="axes_4">
   <g id="patch_11">
    <path d="M 170.340091 373.284 
L 462.70916 373.284 
L 462.70916 271.128 
L 170.340091 271.128 
z
" style="fill: #eaeaf2"/>
   </g>
   <g id="matplotlib.axis_7">
    <g id="xtick_13">
     <g id="line2d_37">
      <path d="M 183.629594 373.284 
L 183.629594 271.128 
" clip-path="url(#pb349b1080d)" style="fill: none; stroke: #ffffff; stroke-linecap: round"/>
     </g>
     <g id="text_12">
      <!-- 0 -->
      <g style="fill: #262626" transform="translate(176.280907 400.336391) scale(0.231 -0.231)">
       <use xlink:href="#DejaVuSans-30"/>
      </g>
     </g>
    </g>
    <g id="xtick_14">
     <g id="line2d_38">
      <path d="M 274.77845 373.284 
L 274.77845 271.128 
" clip-path="url(#pb349b1080d)" style="fill: none; stroke: #ffffff; stroke-linecap: round"/>
     </g>
     <g id="text_13">
      <!-- 250 -->
      <g style="fill: #262626" transform="translate(252.732387 400.336391) scale(0.231 -0.231)">
       <use xlink:href="#DejaVuSans-32"/>
       <use xlink:href="#DejaVuSans-35" x="63.623047"/>
       <use xlink:href="#DejaVuSans-30" x="127.246094"/>
      </g>
     </g>
    </g>
    <g id="xtick_15">
     <g id="line2d_39">
      <path d="M 365.927305 373.284 
L 365.927305 271.128 
" clip-path="url(#pb349b1080d)" style="fill: none; stroke: #ffffff; stroke-linecap: round"/>
     </g>
     <g id="text_14">
      <!-- 500 -->
      <g style="fill: #262626" transform="translate(343.881243 400.336391) scale(0.231 -0.231)">
       <use xlink:href="#DejaVuSans-35"/>
       <use xlink:href="#DejaVuSans-30" x="63.623047"/>
       <use xlink:href="#DejaVuSans-30" x="127.246094"/>
      </g>
     </g>
    </g>
    <g id="xtick_16">
     <g id="line2d_40">
      <path d="M 457.076161 373.284 
L 457.076161 271.128 
" clip-path="url(#pb349b1080d)" style="fill: none; stroke: #ffffff; stroke-linecap: round"/>
     </g>
     <g id="text_15">
      <!-- 750 -->
      <g style="fill: #262626" transform="translate(435.030099 400.336391) scale(0.231 -0.231)">
       <use xlink:href="#DejaVuSans-37"/>
       <use xlink:href="#DejaVuSans-35" x="63.623047"/>
       <use xlink:href="#DejaVuSans-30" x="127.246094"/>
      </g>
     </g>
    </g>
    <g id="text_16">
     <!-- step -->
     <g style="fill: #262626" transform="translate(289.269251 428.288531) scale(0.252 -0.252)">
      <use xlink:href="#DejaVuSans-73"/>
      <use xlink:href="#DejaVuSans-74" x="52.099609"/>
      <use xlink:href="#DejaVuSans-65" x="91.308594"/>
      <use xlink:href="#DejaVuSans-70" x="152.832031"/>
     </g>
    </g>
   </g>
   <g id="matplotlib.axis_8">
    <g id="ytick_7">
     <g id="line2d_41">
      <path d="M 170.340091 338.113793 
L 462.70916 338.113793 
" clip-path="url(#pb349b1080d)" style="fill: none; stroke: #ffffff; stroke-linecap: round"/>
     </g>
     <g id="text_17">
      <!-- −0.1 -->
      <g style="fill: #262626" transform="translate(104.746794 346.889988) scale(0.231 -0.231)">
       <use xlink:href="#DejaVuSans-2212"/>
       <use xlink:href="#DejaVuSans-30" x="83.789062"/>
       <use xlink:href="#DejaVuSans-2e" x="147.412109"/>
       <use xlink:href="#DejaVuSans-31" x="179.199219"/>
      </g>
     </g>
    </g>
    <g id="ytick_8">
     <g id="line2d_42">
      <path d="M 170.340091 275.771455 
L 462.70916 275.771455 
" clip-path="url(#pb349b1080d)" style="fill: none; stroke: #ffffff; stroke-linecap: round"/>
     </g>
     <g id="text_18">
      <!-- 0.0 -->
      <g style="fill: #262626" transform="translate(124.103872 284.54765) scale(0.231 -0.231)">
       <use xlink:href="#DejaVuSans-30"/>
       <use xlink:href="#DejaVuSans-2e" x="63.623047"/>
       <use xlink:href="#DejaVuSans-30" x="95.410156"/>
      </g>
     </g>
    </g>
    <g id="text_19">
     <!-- % change -->
     <g style="fill: #262626" transform="translate(95.505982 384.554344) rotate(-90) scale(0.252 -0.252)">
      <use xlink:href="#DejaVuSans-25"/>
      <use xlink:href="#DejaVuSans-20" x="95.019531"/>
      <use xlink:href="#DejaVuSans-63" x="126.806641"/>
      <use xlink:href="#DejaVuSans-68" x="181.787109"/>
      <use xlink:href="#DejaVuSans-61" x="245.166016"/>
      <use xlink:href="#DejaVuSans-6e" x="306.445312"/>
      <use xlink:href="#DejaVuSans-67" x="369.824219"/>
      <use xlink:href="#DejaVuSans-65" x="433.300781"/>
     </g>
    </g>
   </g>
   <g id="PolyCollection_19"/>
   <g id="PolyCollection_20"/>
   <g id="PolyCollection_21"/>
   <g id="PolyCollection_22"/>
   <g id="PolyCollection_23"/>
   <g id="PolyCollection_24"/>
   <g id="line2d_43">
    <path d="M 183.629594 275.771455 
L 186.910953 280.153119 
L 194.202861 289.765979 
L 199.671793 296.586372 
L 205.140724 303.06002 
L 210.609655 309.187919 
L 216.078587 314.971067 
L 221.182923 320.058617 
L 226.287259 324.847828 
L 231.391595 329.33992 
L 236.49593 333.53664 
L 241.600266 337.439254 
L 246.704602 341.049077 
L 251.444343 344.140529 
L 256.184083 346.982511 
L 260.923824 349.576207 
L 265.663564 351.922805 
L 270.403305 354.023543 
L 275.143045 355.881367 
L 279.882786 357.502878 
L 284.622526 358.890762 
L 289.362267 360.048936 
L 294.102007 360.97865 
L 298.841748 361.681052 
L 303.581488 362.157295 
L 308.321229 362.408415 
L 313.425565 362.448456 
L 319.259091 362.27301 
L 327.280191 361.758174 
L 346.968344 360.557079 
L 360.093779 360.047644 
L 381.240313 359.487928 
L 414.783092 358.825864 
L 449.419657 358.245605 
L 449.419657 358.245605 
" clip-path="url(#pb349b1080d)" style="fill: none; stroke: #4c72b0; stroke-opacity: 0.9; stroke-width: 3; stroke-linecap: round"/>
   </g>
   <g id="line2d_44">
    <path d="M 183.629594 275.771455 
L 186.181762 279.115172 
L 194.202861 289.586808 
L 199.671793 296.338539 
L 205.140724 302.753467 
L 210.609655 308.832465 
L 216.078587 314.576443 
L 221.547518 319.986282 
L 226.651854 324.734903 
L 231.75619 329.194293 
L 236.860526 333.365402 
L 241.964862 337.249272 
L 247.069198 340.847039 
L 252.173534 344.160031 
L 256.913274 346.983023 
L 261.653015 349.563094 
L 266.392755 351.90122 
L 271.132496 353.998403 
L 275.872236 355.855938 
L 280.611977 357.475546 
L 285.351717 358.858639 
L 290.091458 360.012934 
L 294.831198 360.945807 
L 299.570939 361.658968 
L 304.310679 362.153323 
L 309.05042 362.429667 
L 314.154755 362.499289 
L 319.988282 362.35211 
L 330.196954 361.768159 
L 353.895657 360.498937 
L 369.57326 359.937267 
L 389.626008 359.4404 
L 441.763153 358.431399 
L 449.419657 358.292529 
L 449.419657 358.292529 
" clip-path="url(#pb349b1080d)" style="fill: none; stroke: #dd8452; stroke-opacity: 0.9; stroke-width: 3; stroke-linecap: round"/>
   </g>
   <g id="line2d_45">
    <path d="M 183.629594 275.771455 
L 185.817167 278.891591 
L 193.838266 290.320902 
L 199.307197 297.685247 
L 204.776129 304.673677 
L 210.24506 311.288332 
L 215.349396 317.126609 
L 220.453732 322.642081 
L 225.558068 327.835749 
L 230.662404 332.708813 
L 235.76674 337.262452 
L 240.50648 341.205902 
L 245.246221 344.876113 
L 249.985961 348.274616 
L 254.725702 351.402941 
L 259.465442 354.262455 
L 264.205183 356.85506 
L 268.944923 359.182501 
L 273.684664 361.246893 
L 278.059809 362.921068 
L 282.434954 364.374638 
L 286.810099 365.60938 
L 291.185244 366.627323 
L 295.560389 367.431883 
L 300.300129 368.068962 
L 305.03987 368.46784 
L 309.77961 368.632459 
L 314.883946 368.58221 
L 320.352878 368.299849 
L 342.593198 366.786527 
L 356.083229 366.217868 
L 373.948405 365.705718 
L 395.459535 365.320999 
L 448.690466 364.645723 
L 449.419657 364.63708 
L 449.419657 364.63708 
" clip-path="url(#pb349b1080d)" style="fill: none; stroke: #55a868; stroke-opacity: 0.9; stroke-width: 3; stroke-linecap: round"/>
   </g>
   <g id="line2d_46">
    <path d="M 183.629594 275.771455 
L 185.817167 278.791429 
L 193.838266 289.857779 
L 199.307197 296.990346 
L 204.776129 303.760021 
L 210.24506 310.168182 
L 215.713991 316.216032 
L 220.818327 321.536661 
L 225.922663 326.545533 
L 231.026999 331.243783 
L 236.131335 335.632656 
L 241.235671 339.713465 
L 245.975411 343.228191 
L 250.715152 346.479845 
L 255.454892 349.469935 
L 260.194633 352.199899 
L 264.934373 354.67142 
L 269.674114 356.886626 
L 274.413854 358.847653 
L 279.153595 360.556728 
L 283.893335 362.01638 
L 288.633076 363.229191 
L 293.372816 364.198453 
L 298.112557 364.92867 
L 302.852297 365.425897 
L 307.592038 365.695267 
L 312.696374 365.748422 
L 318.165305 365.574164 
L 324.728023 365.115802 
L 336.030481 364.380299 
L 349.155916 363.764245 
L 366.656496 363.179928 
L 386.344649 362.726391 
L 422.439596 362.20387 
L 449.419657 361.865355 
L 449.419657 361.865355 
" clip-path="url(#pb349b1080d)" style="fill: none; stroke: #c44e52; stroke-opacity: 0.9; stroke-width: 3; stroke-linecap: round"/>
   </g>
   <g id="line2d_47">
    <path d="M 183.629594 275.771455 
L 186.546358 279.826188 
L 194.202861 290.347346 
L 199.671793 297.45048 
L 205.140724 304.193664 
L 210.609655 310.578194 
L 216.078587 316.605215 
L 221.182923 321.908898 
L 226.287259 326.903131 
L 231.391595 331.588877 
L 236.49593 335.967114 
L 241.600266 340.03885 
L 246.340007 343.546206 
L 251.079747 346.791034 
L 255.819488 349.774277 
L 260.559228 352.496947 
L 265.298969 354.960093 
L 270.038709 357.164801 
L 274.77845 359.112149 
L 279.51819 360.803617 
L 283.893335 362.139488 
L 288.26848 363.259975 
L 292.643626 364.16616 
L 297.383366 364.909895 
L 302.123107 365.41067 
L 306.862847 365.669722 
L 311.602588 365.697334 
L 316.706923 365.512452 
L 322.54045 365.074414 
L 341.134817 363.509679 
L 361.55216 362.020654 
L 373.948405 361.287579 
L 387.803031 360.701245 
L 410.772542 359.977834 
L 443.221535 359.220381 
L 449.419657 359.089258 
L 449.419657 359.089258 
" clip-path="url(#pb349b1080d)" style="fill: none; stroke: #8172b3; stroke-opacity: 0.9; stroke-width: 3; stroke-linecap: round"/>
   </g>
   <g id="line2d_48">
    <path d="M 183.629594 275.771455 
L 186.910953 280.205414 
L 194.202861 289.924621 
L 199.671793 296.822908 
L 205.140724 303.373848 
L 210.609655 309.578893 
L 216.078587 315.439388 
L 221.547518 320.956594 
L 226.651854 325.797327 
L 231.75619 330.341069 
L 236.860526 334.588826 
L 241.964862 338.541638 
L 247.069198 342.20062 
L 251.808938 345.336089 
L 256.548679 348.219997 
L 261.288419 350.853276 
L 266.02816 353.236934 
L 270.7679 355.372492 
L 275.507641 357.261172 
L 280.247381 358.904045 
L 284.987122 360.302223 
L 289.726862 361.456796 
L 294.466603 362.369468 
L 299.206343 363.044636 
L 303.946084 363.484442 
L 308.685824 363.691006 
L 313.79016 363.671366 
L 319.623687 363.41207 
L 330.196954 362.622015 
L 350.978893 361.18704 
L 368.479473 360.183758 
L 384.886267 359.516319 
L 411.137138 358.699495 
L 445.409108 357.855202 
L 449.419657 357.768435 
L 449.419657 357.768435 
" clip-path="url(#pb349b1080d)" style="fill: none; stroke: #937860; stroke-opacity: 0.9; stroke-width: 3; stroke-linecap: round"/>
   </g>
   <g id="patch_12">
    <path d="M 170.340091 373.284 
L 170.340091 271.128 
" style="fill: none; stroke: #ffffff; stroke-width: 1.25; stroke-linejoin: miter; stroke-linecap: square"/>
   </g>
   <g id="patch_13">
    <path d="M 170.340091 373.284 
L 462.70916 373.284 
" style="fill: none; stroke: #ffffff; stroke-width: 1.25; stroke-linejoin: miter; stroke-linecap: square"/>
   </g>
   <g id="text_20">
    <!-- 0.85~365 -->
    <g style="fill: #262626" transform="translate(253.861282 265.128) scale(0.252 -0.252)">
     <use xlink:href="#DejaVuSans-30"/>
     <use xlink:href="#DejaVuSans-2e" x="63.623047"/>
     <use xlink:href="#DejaVuSans-38" x="95.410156"/>
     <use xlink:href="#DejaVuSans-35" x="159.033203"/>
     <use xlink:href="#DejaVuSans-7e" x="222.65625"/>
     <use xlink:href="#DejaVuSans-33" x="306.445312"/>
     <use xlink:href="#DejaVuSans-36" x="370.068359"/>
     <use xlink:href="#DejaVuSans-35" x="433.691406"/>
    </g>
   </g>
  </g>
  <g id="axes_5">
   <g id="patch_14">
    <path d="M 489.290298 373.284 
L 781.659367 373.284 
L 781.659367 271.128 
L 489.290298 271.128 
z
" style="fill: #eaeaf2"/>
   </g>
   <g id="matplotlib.axis_9">
    <g id="xtick_17">
     <g id="line2d_49">
      <path d="M 502.579801 373.284 
L 502.579801 271.128 
" clip-path="url(#p13f5396a35)" style="fill: none; stroke: #ffffff; stroke-linecap: round"/>
     </g>
     <g id="text_21">
      <!-- 0 -->
      <g style="fill: #262626" transform="translate(495.231113 400.336391) scale(0.231 -0.231)">
       <use xlink:href="#DejaVuSans-30"/>
      </g>
     </g>
    </g>
    <g id="xtick_18">
     <g id="line2d_50">
      <path d="M 593.728656 373.284 
L 593.728656 271.128 
" clip-path="url(#p13f5396a35)" style="fill: none; stroke: #ffffff; stroke-linecap: round"/>
     </g>
     <g id="text_22">
      <!-- 250 -->
      <g style="fill: #262626" transform="translate(571.682594 400.336391) scale(0.231 -0.231)">
       <use xlink:href="#DejaVuSans-32"/>
       <use xlink:href="#DejaVuSans-35" x="63.623047"/>
       <use xlink:href="#DejaVuSans-30" x="127.246094"/>
      </g>
     </g>
    </g>
    <g id="xtick_19">
     <g id="line2d_51">
      <path d="M 684.877512 373.284 
L 684.877512 271.128 
" clip-path="url(#p13f5396a35)" style="fill: none; stroke: #ffffff; stroke-linecap: round"/>
     </g>
     <g id="text_23">
      <!-- 500 -->
      <g style="fill: #262626" transform="translate(662.83145 400.336391) scale(0.231 -0.231)">
       <use xlink:href="#DejaVuSans-35"/>
       <use xlink:href="#DejaVuSans-30" x="63.623047"/>
       <use xlink:href="#DejaVuSans-30" x="127.246094"/>
      </g>
     </g>
    </g>
    <g id="xtick_20">
     <g id="line2d_52">
      <path d="M 776.026368 373.284 
L 776.026368 271.128 
" clip-path="url(#p13f5396a35)" style="fill: none; stroke: #ffffff; stroke-linecap: round"/>
     </g>
     <g id="text_24">
      <!-- 750 -->
      <g style="fill: #262626" transform="translate(753.980305 400.336391) scale(0.231 -0.231)">
       <use xlink:href="#DejaVuSans-37"/>
       <use xlink:href="#DejaVuSans-35" x="63.623047"/>
       <use xlink:href="#DejaVuSans-30" x="127.246094"/>
      </g>
     </g>
    </g>
    <g id="text_25">
     <!-- step -->
     <g style="fill: #262626" transform="translate(608.219457 428.288531) scale(0.252 -0.252)">
      <use xlink:href="#DejaVuSans-73"/>
      <use xlink:href="#DejaVuSans-74" x="52.099609"/>
      <use xlink:href="#DejaVuSans-65" x="91.308594"/>
      <use xlink:href="#DejaVuSans-70" x="152.832031"/>
     </g>
    </g>
   </g>
   <g id="matplotlib.axis_10">
    <g id="ytick_9">
     <g id="line2d_53">
      <path d="M 489.290298 338.113793 
L 781.659367 338.113793 
" clip-path="url(#p13f5396a35)" style="fill: none; stroke: #ffffff; stroke-linecap: round"/>
     </g>
    </g>
    <g id="ytick_10">
     <g id="line2d_54">
      <path d="M 489.290298 275.771455 
L 781.659367 275.771455 
" clip-path="url(#p13f5396a35)" style="fill: none; stroke: #ffffff; stroke-linecap: round"/>
     </g>
    </g>
   </g>
   <g id="PolyCollection_25"/>
   <g id="PolyCollection_26"/>
   <g id="PolyCollection_27"/>
   <g id="PolyCollection_28"/>
   <g id="PolyCollection_29"/>
   <g id="PolyCollection_30"/>
   <g id="line2d_55">
    <path d="M 502.579801 275.771455 
L 506.59035 281.098531 
L 512.059282 288.161592 
L 516.799022 293.902889 
L 521.538763 299.290536 
L 526.278503 304.331593 
L 531.018244 309.032524 
L 535.393389 313.074518 
L 539.768534 316.835204 
L 544.143679 320.319772 
L 548.883419 323.799574 
L 553.258564 326.745637 
L 557.63371 329.440725 
L 562.008855 331.893318 
L 566.384 334.107938 
L 570.759145 336.088213 
L 575.13429 337.837788 
L 579.509435 339.360312 
L 583.88458 340.659499 
L 588.259725 341.739102 
L 592.63487 342.602709 
L 597.010015 343.253806 
L 601.749756 343.724665 
L 607.218687 344.020678 
L 612.687618 344.091839 
L 619.614931 343.92821 
L 627.271435 343.526307 
L 636.386321 342.807954 
L 673.575054 339.52159 
L 690.346443 338.417556 
L 729.722749 336.1625 
L 768.369864 334.006863 
L 768.369864 334.006863 
" clip-path="url(#p13f5396a35)" style="fill: none; stroke: #4c72b0; stroke-opacity: 0.9; stroke-width: 3; stroke-linecap: round"/>
   </g>
   <g id="line2d_56">
    <path d="M 502.579801 275.771455 
L 505.131969 279.104812 
L 511.694686 287.573944 
L 516.434427 293.317037 
L 521.174167 298.727438 
L 525.913908 303.8097 
L 530.653648 308.568043 
L 535.393389 313.00799 
L 540.133129 317.133798 
L 544.87287 320.950031 
L 549.61261 324.462584 
L 553.987755 327.439672 
L 558.727496 330.38577 
L 563.467236 333.056625 
L 568.206977 335.461103 
L 572.946717 337.607762 
L 577.686458 339.500521 
L 582.426198 341.142816 
L 587.165939 342.538173 
L 591.905679 343.690209 
L 596.64542 344.602393 
L 601.38516 345.278153 
L 606.489496 345.764561 
L 611.958428 346.059373 
L 617.791954 346.136607 
L 624.354672 346.010121 
L 630.917389 345.663493 
L 637.844703 345.067508 
L 665.189359 342.379603 
L 691.075634 340.381531 
L 718.055695 338.517893 
L 763.630123 335.607314 
L 768.369864 335.307756 
L 768.369864 335.307756 
" clip-path="url(#p13f5396a35)" style="fill: none; stroke: #dd8452; stroke-opacity: 0.9; stroke-width: 3; stroke-linecap: round"/>
   </g>
   <g id="line2d_57">
    <path d="M 502.579801 275.771455 
L 504.767373 278.88209 
L 510.965495 287.613916 
L 515.705236 293.87882 
L 520.444976 299.758116 
L 525.184717 305.260257 
L 529.559862 310.010518 
L 533.935007 314.449938 
L 538.310152 318.583194 
L 542.685297 322.418048 
L 547.060442 325.971987 
L 551.435587 329.259271 
L 555.810732 332.285781 
L 560.185878 335.061829 
L 564.561023 337.586086 
L 568.936168 339.855971 
L 573.311313 341.875556 
L 577.686458 343.658751 
L 582.061603 345.210746 
L 586.436748 346.533896 
L 590.811893 347.629123 
L 595.187038 348.49654 
L 599.562183 349.136224 
L 603.937328 349.555807 
L 608.677069 349.795236 
L 613.781405 349.832936 
L 620.344122 349.632985 
L 627.636031 349.179364 
L 636.021725 348.42559 
L 657.897451 346.2939 
L 670.658291 345.436375 
L 690.711039 344.335046 
L 732.639512 342.310195 
L 768.369864 340.622441 
L 768.369864 340.622441 
" clip-path="url(#p13f5396a35)" style="fill: none; stroke: #55a868; stroke-opacity: 0.9; stroke-width: 3; stroke-linecap: round"/>
   </g>
   <g id="line2d_58">
    <path d="M 502.579801 275.771455 
L 504.767373 278.782299 
L 510.965495 287.237267 
L 515.705236 293.305512 
L 520.444976 299.001175 
L 525.184717 304.330975 
L 529.559862 308.931136 
L 533.935007 313.229365 
L 538.674748 317.564359 
L 543.049893 321.2806 
L 547.425038 324.72514 
L 552.164778 328.163668 
L 556.904519 331.312051 
L 561.644259 334.177101 
L 566.019404 336.567402 
L 570.394549 338.710708 
L 574.769694 340.612992 
L 579.144839 342.286301 
L 583.519985 343.735133 
L 587.89513 344.961602 
L 592.270275 345.966436 
L 596.64542 346.749853 
L 601.020565 347.312631 
L 605.760305 347.691853 
L 610.864641 347.870855 
L 616.698168 347.836276 
L 623.260886 347.579746 
L 630.917389 347.052463 
L 640.032275 346.188762 
L 652.793115 344.947147 
L 664.095573 344.08832 
L 680.866962 343.061897 
L 710.399192 341.508168 
L 768.369864 338.601303 
L 768.369864 338.601303 
" clip-path="url(#p13f5396a35)" style="fill: none; stroke: #c44e52; stroke-opacity: 0.9; stroke-width: 3; stroke-linecap: round"/>
   </g>
   <g id="line2d_59">
    <path d="M 502.579801 275.771455 
L 505.86116 280.313358 
L 511.694686 288.201789 
L 516.434427 294.211821 
L 521.174167 299.854995 
L 525.913908 305.137317 
L 530.289053 309.697828 
L 534.664198 313.959824 
L 539.039343 317.927594 
L 543.414488 321.605291 
L 547.789633 324.996774 
L 552.164778 328.106322 
L 556.539923 330.939143 
L 560.915068 333.49918 
L 565.290213 335.790201 
L 569.665358 337.817262 
L 574.040504 339.589687 
L 578.415649 341.112108 
L 582.790794 342.388084 
L 587.165939 343.421202 
L 591.541084 344.215178 
L 595.916229 344.773664 
L 600.291374 345.102399 
L 605.031114 345.229177 
L 610.13545 345.141239 
L 615.604382 344.826642 
L 621.437908 344.272742 
L 628.000626 343.422224 
L 640.032275 341.630819 
L 649.876351 340.176089 
L 659.720428 338.994528 
L 670.293695 337.961508 
L 686.335894 336.644938 
L 703.107283 335.463793 
L 732.639512 333.65289 
L 768.369864 331.564351 
L 768.369864 331.564351 
" clip-path="url(#p13f5396a35)" style="fill: none; stroke: #8172b3; stroke-opacity: 0.9; stroke-width: 3; stroke-linecap: round"/>
   </g>
   <g id="line2d_60">
    <path d="M 502.579801 275.771455 
L 506.59035 281.162371 
L 512.059282 288.311668 
L 516.799022 294.131427 
L 521.538763 299.601587 
L 526.278503 304.728234 
L 531.018244 309.516884 
L 535.757984 313.972638 
L 540.133129 317.79462 
L 544.508274 321.34241 
L 548.883419 324.620035 
L 553.258564 327.631274 
L 557.63371 330.37985 
L 562.008855 332.869487 
L 566.384 335.10426 
L 570.759145 337.091717 
L 575.13429 338.836481 
L 579.509435 340.342364 
L 583.88458 341.613478 
L 588.259725 342.653282 
L 592.63487 343.464969 
L 597.010015 344.051682 
L 601.38516 344.419343 
L 606.489496 344.607148 
L 611.958428 344.577309 
L 617.427359 344.329864 
L 623.260886 343.84507 
L 630.552794 342.993514 
L 640.032275 341.669197 
L 651.699329 340.032627 
L 663.730978 338.608872 
L 675.762626 337.398447 
L 693.627802 335.940997 
L 714.045146 334.484546 
L 756.70281 331.720772 
L 768.369864 330.980971 
L 768.369864 330.980971 
" clip-path="url(#p13f5396a35)" style="fill: none; stroke: #937860; stroke-opacity: 0.9; stroke-width: 3; stroke-linecap: round"/>
   </g>
   <g id="patch_15">
    <path d="M 489.290298 373.284 
L 489.290298 271.128 
" style="fill: none; stroke: #ffffff; stroke-width: 1.25; stroke-linejoin: miter; stroke-linecap: square"/>
   </g>
   <g id="patch_16">
    <path d="M 489.290298 373.284 
L 781.659367 373.284 
" style="fill: none; stroke: #ffffff; stroke-width: 1.25; stroke-linejoin: miter; stroke-linecap: square"/>
   </g>
   <g id="text_26">
    <!-- 0.95~90 -->
    <g style="fill: #262626" transform="translate(580.828239 265.128) scale(0.252 -0.252)">
     <use xlink:href="#DejaVuSans-30"/>
     <use xlink:href="#DejaVuSans-2e" x="63.623047"/>
     <use xlink:href="#DejaVuSans-39" x="95.410156"/>
     <use xlink:href="#DejaVuSans-35" x="159.033203"/>
     <use xlink:href="#DejaVuSans-7e" x="222.65625"/>
     <use xlink:href="#DejaVuSans-39" x="306.445312"/>
     <use xlink:href="#DejaVuSans-30" x="370.068359"/>
    </g>
   </g>
  </g>
  <g id="text_27">
   <!-- Production change from pre-shock level -->
   <g style="fill: #262626" transform="translate(280.766836 30.177675) scale(0.3024 -0.3024)">
    <defs>
     <path id="DejaVuSans-50" d="M 1259 4147 
L 1259 2394 
L 2053 2394 
Q 2494 2394 2734 2622 
Q 2975 2850 2975 3272 
Q 2975 3691 2734 3919 
Q 2494 4147 2053 4147 
L 1259 4147 
z
M 628 4666 
L 2053 4666 
Q 2838 4666 3239 4311 
Q 3641 3956 3641 3272 
Q 3641 2581 3239 2228 
Q 2838 1875 2053 1875 
L 1259 1875 
L 1259 0 
L 628 0 
L 628 4666 
z
" transform="scale(0.015625)"/>
     <path id="DejaVuSans-72" d="M 2631 2963 
Q 2534 3019 2420 3045 
Q 2306 3072 2169 3072 
Q 1681 3072 1420 2755 
Q 1159 2438 1159 1844 
L 1159 0 
L 581 0 
L 581 3500 
L 1159 3500 
L 1159 2956 
Q 1341 3275 1631 3429 
Q 1922 3584 2338 3584 
Q 2397 3584 2469 3576 
Q 2541 3569 2628 3553 
L 2631 2963 
z
" transform="scale(0.015625)"/>
     <path id="DejaVuSans-6f" d="M 1959 3097 
Q 1497 3097 1228 2736 
Q 959 2375 959 1747 
Q 959 1119 1226 758 
Q 1494 397 1959 397 
Q 2419 397 2687 759 
Q 2956 1122 2956 1747 
Q 2956 2369 2687 2733 
Q 2419 3097 1959 3097 
z
M 1959 3584 
Q 2709 3584 3137 3096 
Q 3566 2609 3566 1747 
Q 3566 888 3137 398 
Q 2709 -91 1959 -91 
Q 1206 -91 779 398 
Q 353 888 353 1747 
Q 353 2609 779 3096 
Q 1206 3584 1959 3584 
z
" transform="scale(0.015625)"/>
     <path id="DejaVuSans-64" d="M 2906 2969 
L 2906 4863 
L 3481 4863 
L 3481 0 
L 2906 0 
L 2906 525 
Q 2725 213 2448 61 
Q 2172 -91 1784 -91 
Q 1150 -91 751 415 
Q 353 922 353 1747 
Q 353 2572 751 3078 
Q 1150 3584 1784 3584 
Q 2172 3584 2448 3432 
Q 2725 3281 2906 2969 
z
M 947 1747 
Q 947 1113 1208 752 
Q 1469 391 1925 391 
Q 2381 391 2643 752 
Q 2906 1113 2906 1747 
Q 2906 2381 2643 2742 
Q 2381 3103 1925 3103 
Q 1469 3103 1208 2742 
Q 947 2381 947 1747 
z
" transform="scale(0.015625)"/>
     <path id="DejaVuSans-75" d="M 544 1381 
L 544 3500 
L 1119 3500 
L 1119 1403 
Q 1119 906 1312 657 
Q 1506 409 1894 409 
Q 2359 409 2629 706 
Q 2900 1003 2900 1516 
L 2900 3500 
L 3475 3500 
L 3475 0 
L 2900 0 
L 2900 538 
Q 2691 219 2414 64 
Q 2138 -91 1772 -91 
Q 1169 -91 856 284 
Q 544 659 544 1381 
z
M 1991 3584 
L 1991 3584 
z
" transform="scale(0.015625)"/>
     <path id="DejaVuSans-69" d="M 603 3500 
L 1178 3500 
L 1178 0 
L 603 0 
L 603 3500 
z
M 603 4863 
L 1178 4863 
L 1178 4134 
L 603 4134 
L 603 4863 
z
" transform="scale(0.015625)"/>
     <path id="DejaVuSans-66" d="M 2375 4863 
L 2375 4384 
L 1825 4384 
Q 1516 4384 1395 4259 
Q 1275 4134 1275 3809 
L 1275 3500 
L 2222 3500 
L 2222 3053 
L 1275 3053 
L 1275 0 
L 697 0 
L 697 3053 
L 147 3053 
L 147 3500 
L 697 3500 
L 697 3744 
Q 697 4328 969 4595 
Q 1241 4863 1831 4863 
L 2375 4863 
z
" transform="scale(0.015625)"/>
     <path id="DejaVuSans-6d" d="M 3328 2828 
Q 3544 3216 3844 3400 
Q 4144 3584 4550 3584 
Q 5097 3584 5394 3201 
Q 5691 2819 5691 2113 
L 5691 0 
L 5113 0 
L 5113 2094 
Q 5113 2597 4934 2840 
Q 4756 3084 4391 3084 
Q 3944 3084 3684 2787 
Q 3425 2491 3425 1978 
L 3425 0 
L 2847 0 
L 2847 2094 
Q 2847 2600 2669 2842 
Q 2491 3084 2119 3084 
Q 1678 3084 1418 2786 
Q 1159 2488 1159 1978 
L 1159 0 
L 581 0 
L 581 3500 
L 1159 3500 
L 1159 2956 
Q 1356 3278 1631 3431 
Q 1906 3584 2284 3584 
Q 2666 3584 2933 3390 
Q 3200 3197 3328 2828 
z
" transform="scale(0.015625)"/>
     <path id="DejaVuSans-2d" d="M 313 2009 
L 1997 2009 
L 1997 1497 
L 313 1497 
L 313 2009 
z
" transform="scale(0.015625)"/>
     <path id="DejaVuSans-6b" d="M 581 4863 
L 1159 4863 
L 1159 1991 
L 2875 3500 
L 3609 3500 
L 1753 1863 
L 3688 0 
L 2938 0 
L 1159 1709 
L 1159 0 
L 581 0 
L 581 4863 
z
" transform="scale(0.015625)"/>
     <path id="DejaVuSans-6c" d="M 603 4863 
L 1178 4863 
L 1178 0 
L 603 0 
L 603 4863 
z
" transform="scale(0.015625)"/>
     <path id="DejaVuSans-76" d="M 191 3500 
L 800 3500 
L 1894 563 
L 2988 3500 
L 3597 3500 
L 2284 0 
L 1503 0 
L 191 3500 
z
" transform="scale(0.015625)"/>
    </defs>
    <use xlink:href="#DejaVuSans-50"/>
    <use xlink:href="#DejaVuSans-72" x="58.552734"/>
    <use xlink:href="#DejaVuSans-6f" x="97.416016"/>
    <use xlink:href="#DejaVuSans-64" x="158.597656"/>
    <use xlink:href="#DejaVuSans-75" x="222.074219"/>
    <use xlink:href="#DejaVuSans-63" x="285.453125"/>
    <use xlink:href="#DejaVuSans-74" x="340.433594"/>
    <use xlink:href="#DejaVuSans-69" x="379.642578"/>
    <use xlink:href="#DejaVuSans-6f" x="407.425781"/>
    <use xlink:href="#DejaVuSans-6e" x="468.607422"/>
    <use xlink:href="#DejaVuSans-20" x="531.986328"/>
    <use xlink:href="#DejaVuSans-63" x="563.773438"/>
    <use xlink:href="#DejaVuSans-68" x="618.753906"/>
    <use xlink:href="#DejaVuSans-61" x="682.132812"/>
    <use xlink:href="#DejaVuSans-6e" x="743.412109"/>
    <use xlink:href="#DejaVuSans-67" x="806.791016"/>
    <use xlink:href="#DejaVuSans-65" x="870.267578"/>
    <use xlink:href="#DejaVuSans-20" x="931.791016"/>
    <use xlink:href="#DejaVuSans-66" x="963.578125"/>
    <use xlink:href="#DejaVuSans-72" x="998.783203"/>
    <use xlink:href="#DejaVuSans-6f" x="1037.646484"/>
    <use xlink:href="#DejaVuSans-6d" x="1098.828125"/>
    <use xlink:href="#DejaVuSans-20" x="1196.240234"/>
    <use xlink:href="#DejaVuSans-70" x="1228.027344"/>
    <use xlink:href="#DejaVuSans-72" x="1291.503906"/>
    <use xlink:href="#DejaVuSans-65" x="1330.367188"/>
    <use xlink:href="#DejaVuSans-2d" x="1391.890625"/>
    <use xlink:href="#DejaVuSans-73" x="1427.974609"/>
    <use xlink:href="#DejaVuSans-68" x="1480.074219"/>
    <use xlink:href="#DejaVuSans-6f" x="1543.453125"/>
    <use xlink:href="#DejaVuSans-63" x="1604.634766"/>
    <use xlink:href="#DejaVuSans-6b" x="1659.615234"/>
    <use xlink:href="#DejaVuSans-20" x="1717.525391"/>
    <use xlink:href="#DejaVuSans-6c" x="1749.3125"/>
    <use xlink:href="#DejaVuSans-65" x="1777.095703"/>
    <use xlink:href="#DejaVuSans-76" x="1838.619141"/>
    <use xlink:href="#DejaVuSans-65" x="1897.798828"/>
    <use xlink:href="#DejaVuSans-6c" x="1959.322266"/>
   </g>
  </g>
  <g id="legend_1">
   <g id="patch_17">
    <path d="M 11.82 584.31675 
L 1292.617547 584.31675 
Q 1297.237547 584.31675 1297.237547 579.69675 
L 1297.237547 476.97 
Q 1297.237547 472.35 1292.617547 472.35 
L 11.82 472.35 
Q 7.2 472.35 7.2 476.97 
L 7.2 579.69675 
Q 7.2 584.31675 11.82 584.31675 
z
" style="fill: #eaeaf2; opacity: 0.8; stroke: #cccccc; stroke-linejoin: miter"/>
   </g>
   <g id="text_28">
    <!-- Experiences -->
    <g style="fill: #262626" transform="translate(575.384367 500.738062) scale(0.252 -0.252)">
     <defs>
      <path id="DejaVuSans-45" d="M 628 4666 
L 3578 4666 
L 3578 4134 
L 1259 4134 
L 1259 2753 
L 3481 2753 
L 3481 2222 
L 1259 2222 
L 1259 531 
L 3634 531 
L 3634 0 
L 628 0 
L 628 4666 
z
" transform="scale(0.015625)"/>
      <path id="DejaVuSans-78" d="M 3513 3500 
L 2247 1797 
L 3578 0 
L 2900 0 
L 1881 1375 
L 863 0 
L 184 0 
L 1544 1831 
L 300 3500 
L 978 3500 
L 1906 2253 
L 2834 3500 
L 3513 3500 
z
" transform="scale(0.015625)"/>
     </defs>
     <use xlink:href="#DejaVuSans-45"/>
     <use xlink:href="#DejaVuSans-78" x="63.183594"/>
     <use xlink:href="#DejaVuSans-70" x="122.363281"/>
     <use xlink:href="#DejaVuSans-65" x="185.839844"/>
     <use xlink:href="#DejaVuSans-72" x="247.363281"/>
     <use xlink:href="#DejaVuSans-69" x="288.476562"/>
     <use xlink:href="#DejaVuSans-65" x="316.259766"/>
     <use xlink:href="#DejaVuSans-6e" x="377.783203"/>
     <use xlink:href="#DejaVuSans-63" x="441.162109"/>
     <use xlink:href="#DejaVuSans-65" x="496.142578"/>
     <use xlink:href="#DejaVuSans-73" x="557.666016"/>
    </g>
   </g>
   <g id="line2d_61">
    <path d="M 16.44 526.996266 
L 39.54 526.996266 
L 62.64 526.996266 
" style="fill: none; stroke: #4c72b0; stroke-opacity: 0.9; stroke-width: 3; stroke-linecap: round"/>
   </g>
   <g id="text_29">
    <!-- eora26_full_2000 -->
    <g style="fill: #262626" transform="translate(81.12 535.081266) scale(0.231 -0.231)">
     <defs>
      <path id="DejaVuSans-5f" d="M 3263 -1063 
L 3263 -1509 
L -63 -1509 
L -63 -1063 
L 3263 -1063 
z
" transform="scale(0.015625)"/>
     </defs>
     <use xlink:href="#DejaVuSans-65"/>
     <use xlink:href="#DejaVuSans-6f" x="61.523438"/>
     <use xlink:href="#DejaVuSans-72" x="122.705078"/>
     <use xlink:href="#DejaVuSans-61" x="163.818359"/>
     <use xlink:href="#DejaVuSans-32" x="225.097656"/>
     <use xlink:href="#DejaVuSans-36" x="288.720703"/>
     <use xlink:href="#DejaVuSans-5f" x="352.34375"/>
     <use xlink:href="#DejaVuSans-66" x="402.34375"/>
     <use xlink:href="#DejaVuSans-75" x="437.548828"/>
     <use xlink:href="#DejaVuSans-6c" x="500.927734"/>
     <use xlink:href="#DejaVuSans-6c" x="528.710938"/>
     <use xlink:href="#DejaVuSans-5f" x="556.494141"/>
     <use xlink:href="#DejaVuSans-32" x="606.494141"/>
     <use xlink:href="#DejaVuSans-30" x="670.117188"/>
     <use xlink:href="#DejaVuSans-30" x="733.740234"/>
     <use xlink:href="#DejaVuSans-30" x="797.363281"/>
    </g>
   </g>
   <g id="line2d_62">
    <path d="M 16.44 561.545203 
L 39.54 561.545203 
L 62.64 561.545203 
" style="fill: none; stroke: #dd8452; stroke-opacity: 0.9; stroke-width: 3; stroke-linecap: round"/>
   </g>
   <g id="text_30">
    <!-- eora26_full_2010 -->
    <g style="fill: #262626" transform="translate(81.12 569.630203) scale(0.231 -0.231)">
     <use xlink:href="#DejaVuSans-65"/>
     <use xlink:href="#DejaVuSans-6f" x="61.523438"/>
     <use xlink:href="#DejaVuSans-72" x="122.705078"/>
     <use xlink:href="#DejaVuSans-61" x="163.818359"/>
     <use xlink:href="#DejaVuSans-32" x="225.097656"/>
     <use xlink:href="#DejaVuSans-36" x="288.720703"/>
     <use xlink:href="#DejaVuSans-5f" x="352.34375"/>
     <use xlink:href="#DejaVuSans-66" x="402.34375"/>
     <use xlink:href="#DejaVuSans-75" x="437.548828"/>
     <use xlink:href="#DejaVuSans-6c" x="500.927734"/>
     <use xlink:href="#DejaVuSans-6c" x="528.710938"/>
     <use xlink:href="#DejaVuSans-5f" x="556.494141"/>
     <use xlink:href="#DejaVuSans-32" x="606.494141"/>
     <use xlink:href="#DejaVuSans-30" x="670.117188"/>
     <use xlink:href="#DejaVuSans-31" x="733.740234"/>
     <use xlink:href="#DejaVuSans-30" x="797.363281"/>
    </g>
   </g>
   <g id="line2d_63">
    <path d="M 326.211 526.996266 
L 349.311 526.996266 
L 372.411 526.996266 
" style="fill: none; stroke: #55a868; stroke-opacity: 0.9; stroke-width: 3; stroke-linecap: round"/>
   </g>
   <g id="text_31">
    <!-- euregio_full_2000 -->
    <g style="fill: #262626" transform="translate(390.891 535.081266) scale(0.231 -0.231)">
     <use xlink:href="#DejaVuSans-65"/>
     <use xlink:href="#DejaVuSans-75" x="61.523438"/>
     <use xlink:href="#DejaVuSans-72" x="124.902344"/>
     <use xlink:href="#DejaVuSans-65" x="163.765625"/>
     <use xlink:href="#DejaVuSans-67" x="225.289062"/>
     <use xlink:href="#DejaVuSans-69" x="288.765625"/>
     <use xlink:href="#DejaVuSans-6f" x="316.548828"/>
     <use xlink:href="#DejaVuSans-5f" x="377.730469"/>
     <use xlink:href="#DejaVuSans-66" x="427.730469"/>
     <use xlink:href="#DejaVuSans-75" x="462.935547"/>
     <use xlink:href="#DejaVuSans-6c" x="526.314453"/>
     <use xlink:href="#DejaVuSans-6c" x="554.097656"/>
     <use xlink:href="#DejaVuSans-5f" x="581.880859"/>
     <use xlink:href="#DejaVuSans-32" x="631.880859"/>
     <use xlink:href="#DejaVuSans-30" x="695.503906"/>
     <use xlink:href="#DejaVuSans-30" x="759.126953"/>
     <use xlink:href="#DejaVuSans-30" x="822.75"/>
    </g>
   </g>
   <g id="line2d_64">
    <path d="M 326.211 561.545203 
L 349.311 561.545203 
L 372.411 561.545203 
" style="fill: none; stroke: #c44e52; stroke-opacity: 0.9; stroke-width: 3; stroke-linecap: round"/>
   </g>
   <g id="text_32">
    <!-- euregio_full_2010 -->
    <g style="fill: #262626" transform="translate(390.891 569.630203) scale(0.231 -0.231)">
     <use xlink:href="#DejaVuSans-65"/>
     <use xlink:href="#DejaVuSans-75" x="61.523438"/>
     <use xlink:href="#DejaVuSans-72" x="124.902344"/>
     <use xlink:href="#DejaVuSans-65" x="163.765625"/>
     <use xlink:href="#DejaVuSans-67" x="225.289062"/>
     <use xlink:href="#DejaVuSans-69" x="288.765625"/>
     <use xlink:href="#DejaVuSans-6f" x="316.548828"/>
     <use xlink:href="#DejaVuSans-5f" x="377.730469"/>
     <use xlink:href="#DejaVuSans-66" x="427.730469"/>
     <use xlink:href="#DejaVuSans-75" x="462.935547"/>
     <use xlink:href="#DejaVuSans-6c" x="526.314453"/>
     <use xlink:href="#DejaVuSans-6c" x="554.097656"/>
     <use xlink:href="#DejaVuSans-5f" x="581.880859"/>
     <use xlink:href="#DejaVuSans-32" x="631.880859"/>
     <use xlink:href="#DejaVuSans-30" x="695.503906"/>
     <use xlink:href="#DejaVuSans-31" x="759.126953"/>
     <use xlink:href="#DejaVuSans-30" x="822.75"/>
    </g>
   </g>
   <g id="line2d_65">
    <path d="M 641.847234 526.996266 
L 664.947234 526.996266 
L 688.047234 526.996266 
" style="fill: none; stroke: #8172b3; stroke-opacity: 0.9; stroke-width: 3; stroke-linecap: round"/>
   </g>
   <g id="text_33">
    <!-- exiobase3_full_2000 -->
    <g style="fill: #262626" transform="translate(706.527234 535.081266) scale(0.231 -0.231)">
     <defs>
      <path id="DejaVuSans-62" d="M 3116 1747 
Q 3116 2381 2855 2742 
Q 2594 3103 2138 3103 
Q 1681 3103 1420 2742 
Q 1159 2381 1159 1747 
Q 1159 1113 1420 752 
Q 1681 391 2138 391 
Q 2594 391 2855 752 
Q 3116 1113 3116 1747 
z
M 1159 2969 
Q 1341 3281 1617 3432 
Q 1894 3584 2278 3584 
Q 2916 3584 3314 3078 
Q 3713 2572 3713 1747 
Q 3713 922 3314 415 
Q 2916 -91 2278 -91 
Q 1894 -91 1617 61 
Q 1341 213 1159 525 
L 1159 0 
L 581 0 
L 581 4863 
L 1159 4863 
L 1159 2969 
z
" transform="scale(0.015625)"/>
     </defs>
     <use xlink:href="#DejaVuSans-65"/>
     <use xlink:href="#DejaVuSans-78" x="59.773438"/>
     <use xlink:href="#DejaVuSans-69" x="118.953125"/>
     <use xlink:href="#DejaVuSans-6f" x="146.736328"/>
     <use xlink:href="#DejaVuSans-62" x="207.917969"/>
     <use xlink:href="#DejaVuSans-61" x="271.394531"/>
     <use xlink:href="#DejaVuSans-73" x="332.673828"/>
     <use xlink:href="#DejaVuSans-65" x="384.773438"/>
     <use xlink:href="#DejaVuSans-33" x="446.296875"/>
     <use xlink:href="#DejaVuSans-5f" x="509.919922"/>
     <use xlink:href="#DejaVuSans-66" x="559.919922"/>
     <use xlink:href="#DejaVuSans-75" x="595.125"/>
     <use xlink:href="#DejaVuSans-6c" x="658.503906"/>
     <use xlink:href="#DejaVuSans-6c" x="686.287109"/>
     <use xlink:href="#DejaVuSans-5f" x="714.070312"/>
     <use xlink:href="#DejaVuSans-32" x="764.070312"/>
     <use xlink:href="#DejaVuSans-30" x="827.693359"/>
     <use xlink:href="#DejaVuSans-30" x="891.316406"/>
     <use xlink:href="#DejaVuSans-30" x="954.939453"/>
    </g>
   </g>
   <g id="line2d_66">
    <path d="M 988.022391 526.996266 
L 1011.122391 526.996266 
L 1034.222391 526.996266 
" style="fill: none; stroke: #937860; stroke-opacity: 0.9; stroke-width: 3; stroke-linecap: round"/>
   </g>
   <g id="text_34">
    <!-- exiobase3_full_2010 -->
    <g style="fill: #262626" transform="translate(1052.702391 535.081266) scale(0.231 -0.231)">
     <use xlink:href="#DejaVuSans-65"/>
     <use xlink:href="#DejaVuSans-78" x="59.773438"/>
     <use xlink:href="#DejaVuSans-69" x="118.953125"/>
     <use xlink:href="#DejaVuSans-6f" x="146.736328"/>
     <use xlink:href="#DejaVuSans-62" x="207.917969"/>
     <use xlink:href="#DejaVuSans-61" x="271.394531"/>
     <use xlink:href="#DejaVuSans-73" x="332.673828"/>
     <use xlink:href="#DejaVuSans-65" x="384.773438"/>
     <use xlink:href="#DejaVuSans-33" x="446.296875"/>
     <use xlink:href="#DejaVuSans-5f" x="509.919922"/>
     <use xlink:href="#DejaVuSans-66" x="559.919922"/>
     <use xlink:href="#DejaVuSans-75" x="595.125"/>
     <use xlink:href="#DejaVuSans-6c" x="658.503906"/>
     <use xlink:href="#DejaVuSans-6c" x="686.287109"/>
     <use xlink:href="#DejaVuSans-5f" x="714.070312"/>
     <use xlink:href="#DejaVuSans-32" x="764.070312"/>
     <use xlink:href="#DejaVuSans-30" x="827.693359"/>
     <use xlink:href="#DejaVuSans-31" x="891.316406"/>
     <use xlink:href="#DejaVuSans-30" x="954.939453"/>
    </g>
   </g>
  </g>
 </g>
 <defs>
  <clipPath id="pbc100052af">
   <rect x="170.340091" y="81.456" width="292.369069" height="102.156"/>
  </clipPath>
  <clipPath id="pb590c3851d">
   <rect x="489.290298" y="81.456" width="292.369069" height="102.156"/>
  </clipPath>
  <clipPath id="p20a90634a2">
   <rect x="808.240504" y="81.456" width="292.369069" height="102.156"/>
  </clipPath>
  <clipPath id="pb349b1080d">
   <rect x="170.340091" y="271.128" width="292.369069" height="102.156"/>
  </clipPath>
  <clipPath id="p13f5396a35">
   <rect x="489.290298" y="271.128" width="292.369069" height="102.156"/>
  </clipPath>
 </defs>
</svg>
