<?xml version="1.0" encoding="utf-8" standalone="no"?>
<!DOCTYPE svg PUBLIC "-//W3C//DTD SVG 1.1//EN"
  "http://www.w3.org/Graphics/SVG/1.1/DTD/svg11.dtd">
<svg xmlns:xlink="http://www.w3.org/1999/xlink" width="1304.437547pt" height="591.51675pt" viewBox="0 0 1304.437547 591.51675" xmlns="http://www.w3.org/2000/svg" version="1.1">
 <metadata>
  <rdf:RDF xmlns:dc="http://purl.org/dc/elements/1.1/" xmlns:cc="http://creativecommons.org/ns#" xmlns:rdf="http://www.w3.org/1999/02/22-rdf-syntax-ns#">
   <cc:Work>
    <dc:type rdf:resource="http://purl.org/dc/dcmitype/StillImage"/>
    <dc:date>2023-04-28T12:10:29.659648</dc:date>
    <dc:format>image/svg+xml</dc:format>
    <dc:creator>
     <cc:Agent>
      <dc:title>Matplotlib v3.7.1, https://matplotlib.org/</dc:title>
     </cc:Agent>
    </dc:creator>
   </cc:Work>
  </rdf:RDF>
 </metadata>
 <defs>
  <style type="text/css">*{stroke-linejoin: round; stroke-linecap: butt}</style>
 </defs>
 <g id="figure_1">
  <g id="patch_1">
   <path d="M 0 591.51675 
L 1304.437547 591.51675 
L 1304.437547 -0 
L 0 -0 
z
" style="fill: #ffffff"/>
  </g>
  <g id="axes_1">
   <g id="patch_2">
    <path d="M 189.250488 183.612 
L 475.404752 183.612 
L 475.404752 81.456 
L 189.250488 81.456 
z
" style="fill: #eaeaf2"/>
   </g>
   <g id="matplotlib.axis_1">
    <g id="xtick_1">
     <g id="line2d_1">
      <path d="M 202.2575 183.612 
L 202.2575 81.456 
" clip-path="url(#p9718288a39)" style="fill: none; stroke: #ffffff; stroke-linecap: round"/>
     </g>
    </g>
    <g id="xtick_2">
     <g id="line2d_2">
      <path d="M 291.468831 183.612 
L 291.468831 81.456 
" clip-path="url(#p9718288a39)" style="fill: none; stroke: #ffffff; stroke-linecap: round"/>
     </g>
    </g>
    <g id="xtick_3">
     <g id="line2d_3">
      <path d="M 380.680161 183.612 
L 380.680161 81.456 
" clip-path="url(#p9718288a39)" style="fill: none; stroke: #ffffff; stroke-linecap: round"/>
     </g>
    </g>
    <g id="xtick_4">
     <g id="line2d_4">
      <path d="M 469.891491 183.612 
L 469.891491 81.456 
" clip-path="url(#p9718288a39)" style="fill: none; stroke: #ffffff; stroke-linecap: round"/>
     </g>
    </g>
   </g>
   <g id="matplotlib.axis_2">
    <g id="ytick_1">
     <g id="line2d_5">
      <path d="M 189.250488 169.938537 
L 475.404752 169.938537 
" clip-path="url(#p9718288a39)" style="fill: none; stroke: #ffffff; stroke-linecap: round"/>
     </g>
     <g id="text_1">
      <!-- −0.25 -->
      <g style="fill: #262626" transform="translate(108.959816 178.714732) scale(0.231 -0.231)">
       <defs>
        <path id="DejaVuSans-2212" d="M 678 2272 
L 4684 2272 
L 4684 1741 
L 678 1741 
L 678 2272 
z
" transform="scale(0.015625)"/>
        <path id="DejaVuSans-30" d="M 2034 4250 
Q 1547 4250 1301 3770 
Q 1056 3291 1056 2328 
Q 1056 1369 1301 889 
Q 1547 409 2034 409 
Q 2525 409 2770 889 
Q 3016 1369 3016 2328 
Q 3016 3291 2770 3770 
Q 2525 4250 2034 4250 
z
M 2034 4750 
Q 2819 4750 3233 4129 
Q 3647 3509 3647 2328 
Q 3647 1150 3233 529 
Q 2819 -91 2034 -91 
Q 1250 -91 836 529 
Q 422 1150 422 2328 
Q 422 3509 836 4129 
Q 1250 4750 2034 4750 
z
" transform="scale(0.015625)"/>
        <path id="DejaVuSans-2e" d="M 684 794 
L 1344 794 
L 1344 0 
L 684 0 
L 684 794 
z
" transform="scale(0.015625)"/>
        <path id="DejaVuSans-32" d="M 1228 531 
L 3431 531 
L 3431 0 
L 469 0 
L 469 531 
Q 828 903 1448 1529 
Q 2069 2156 2228 2338 
Q 2531 2678 2651 2914 
Q 2772 3150 2772 3378 
Q 2772 3750 2511 3984 
Q 2250 4219 1831 4219 
Q 1534 4219 1204 4116 
Q 875 4013 500 3803 
L 500 4441 
Q 881 4594 1212 4672 
Q 1544 4750 1819 4750 
Q 2544 4750 2975 4387 
Q 3406 4025 3406 3419 
Q 3406 3131 3298 2873 
Q 3191 2616 2906 2266 
Q 2828 2175 2409 1742 
Q 1991 1309 1228 531 
z
" transform="scale(0.015625)"/>
        <path id="DejaVuSans-35" d="M 691 4666 
L 3169 4666 
L 3169 4134 
L 1269 4134 
L 1269 2991 
Q 1406 3038 1543 3061 
Q 1681 3084 1819 3084 
Q 2600 3084 3056 2656 
Q 3513 2228 3513 1497 
Q 3513 744 3044 326 
Q 2575 -91 1722 -91 
Q 1428 -91 1123 -41 
Q 819 9 494 109 
L 494 744 
Q 775 591 1075 516 
Q 1375 441 1709 441 
Q 2250 441 2565 725 
Q 2881 1009 2881 1497 
Q 2881 1984 2565 2268 
Q 2250 2553 1709 2553 
Q 1456 2553 1204 2497 
Q 953 2441 691 2322 
L 691 4666 
z
" transform="scale(0.015625)"/>
       </defs>
       <use xlink:href="#DejaVuSans-2212"/>
       <use xlink:href="#DejaVuSans-30" x="83.789062"/>
       <use xlink:href="#DejaVuSans-2e" x="147.412109"/>
       <use xlink:href="#DejaVuSans-32" x="179.199219"/>
       <use xlink:href="#DejaVuSans-35" x="242.822266"/>
      </g>
     </g>
    </g>
    <g id="ytick_2">
     <g id="line2d_6">
      <path d="M 189.250488 113.676789 
L 475.404752 113.676789 
" clip-path="url(#p9718288a39)" style="fill: none; stroke: #ffffff; stroke-linecap: round"/>
     </g>
     <g id="text_2">
      <!-- 0.00 -->
      <g style="fill: #262626" transform="translate(128.316894 122.452984) scale(0.231 -0.231)">
       <use xlink:href="#DejaVuSans-30"/>
       <use xlink:href="#DejaVuSans-2e" x="63.623047"/>
       <use xlink:href="#DejaVuSans-30" x="95.410156"/>
       <use xlink:href="#DejaVuSans-30" x="159.033203"/>
      </g>
     </g>
    </g>
    <g id="text_3">
     <!-- % change -->
     <g style="fill: #262626" transform="translate(99.719004 194.882344) rotate(-90) scale(0.252 -0.252)">
      <defs>
       <path id="DejaVuSans-25" d="M 4653 2053 
Q 4381 2053 4226 1822 
Q 4072 1591 4072 1178 
Q 4072 772 4226 539 
Q 4381 306 4653 306 
Q 4919 306 5073 539 
Q 5228 772 5228 1178 
Q 5228 1588 5073 1820 
Q 4919 2053 4653 2053 
z
M 4653 2450 
Q 5147 2450 5437 2106 
Q 5728 1763 5728 1178 
Q 5728 594 5436 251 
Q 5144 -91 4653 -91 
Q 4153 -91 3862 251 
Q 3572 594 3572 1178 
Q 3572 1766 3864 2108 
Q 4156 2450 4653 2450 
z
M 1428 4353 
Q 1159 4353 1004 4120 
Q 850 3888 850 3481 
Q 850 3069 1003 2837 
Q 1156 2606 1428 2606 
Q 1700 2606 1854 2837 
Q 2009 3069 2009 3481 
Q 2009 3884 1853 4118 
Q 1697 4353 1428 4353 
z
M 4250 4750 
L 4750 4750 
L 1831 -91 
L 1331 -91 
L 4250 4750 
z
M 1428 4750 
Q 1922 4750 2215 4408 
Q 2509 4066 2509 3481 
Q 2509 2891 2217 2550 
Q 1925 2209 1428 2209 
Q 931 2209 642 2551 
Q 353 2894 353 3481 
Q 353 4063 643 4406 
Q 934 4750 1428 4750 
z
" transform="scale(0.015625)"/>
       <path id="DejaVuSans-20" transform="scale(0.015625)"/>
       <path id="DejaVuSans-63" d="M 3122 3366 
L 3122 2828 
Q 2878 2963 2633 3030 
Q 2388 3097 2138 3097 
Q 1578 3097 1268 2742 
Q 959 2388 959 1747 
Q 959 1106 1268 751 
Q 1578 397 2138 397 
Q 2388 397 2633 464 
Q 2878 531 3122 666 
L 3122 134 
Q 2881 22 2623 -34 
Q 2366 -91 2075 -91 
Q 1284 -91 818 406 
Q 353 903 353 1747 
Q 353 2603 823 3093 
Q 1294 3584 2113 3584 
Q 2378 3584 2631 3529 
Q 2884 3475 3122 3366 
z
" transform="scale(0.015625)"/>
       <path id="DejaVuSans-68" d="M 3513 2113 
L 3513 0 
L 2938 0 
L 2938 2094 
Q 2938 2591 2744 2837 
Q 2550 3084 2163 3084 
Q 1697 3084 1428 2787 
Q 1159 2491 1159 1978 
L 1159 0 
L 581 0 
L 581 4863 
L 1159 4863 
L 1159 2956 
Q 1366 3272 1645 3428 
Q 1925 3584 2291 3584 
Q 2894 3584 3203 3211 
Q 3513 2838 3513 2113 
z
" transform="scale(0.015625)"/>
       <path id="DejaVuSans-61" d="M 2194 1759 
Q 1497 1759 1228 1600 
Q 959 1441 959 1056 
Q 959 750 1161 570 
Q 1363 391 1709 391 
Q 2188 391 2477 730 
Q 2766 1069 2766 1631 
L 2766 1759 
L 2194 1759 
z
M 3341 1997 
L 3341 0 
L 2766 0 
L 2766 531 
Q 2569 213 2275 61 
Q 1981 -91 1556 -91 
Q 1019 -91 701 211 
Q 384 513 384 1019 
Q 384 1609 779 1909 
Q 1175 2209 1959 2209 
L 2766 2209 
L 2766 2266 
Q 2766 2663 2505 2880 
Q 2244 3097 1772 3097 
Q 1472 3097 1187 3025 
Q 903 2953 641 2809 
L 641 3341 
Q 956 3463 1253 3523 
Q 1550 3584 1831 3584 
Q 2591 3584 2966 3190 
Q 3341 2797 3341 1997 
z
" transform="scale(0.015625)"/>
       <path id="DejaVuSans-6e" d="M 3513 2113 
L 3513 0 
L 2938 0 
L 2938 2094 
Q 2938 2591 2744 2837 
Q 2550 3084 2163 3084 
Q 1697 3084 1428 2787 
Q 1159 2491 1159 1978 
L 1159 0 
L 581 0 
L 581 3500 
L 1159 3500 
L 1159 2956 
Q 1366 3272 1645 3428 
Q 1925 3584 2291 3584 
Q 2894 3584 3203 3211 
Q 3513 2838 3513 2113 
z
" transform="scale(0.015625)"/>
       <path id="DejaVuSans-67" d="M 2906 1791 
Q 2906 2416 2648 2759 
Q 2391 3103 1925 3103 
Q 1463 3103 1205 2759 
Q 947 2416 947 1791 
Q 947 1169 1205 825 
Q 1463 481 1925 481 
Q 2391 481 2648 825 
Q 2906 1169 2906 1791 
z
M 3481 434 
Q 3481 -459 3084 -895 
Q 2688 -1331 1869 -1331 
Q 1566 -1331 1297 -1286 
Q 1028 -1241 775 -1147 
L 775 -588 
Q 1028 -725 1275 -790 
Q 1522 -856 1778 -856 
Q 2344 -856 2625 -561 
Q 2906 -266 2906 331 
L 2906 616 
Q 2728 306 2450 153 
Q 2172 0 1784 0 
Q 1141 0 747 490 
Q 353 981 353 1791 
Q 353 2603 747 3093 
Q 1141 3584 1784 3584 
Q 2172 3584 2450 3431 
Q 2728 3278 2906 2969 
L 2906 3500 
L 3481 3500 
L 3481 434 
z
" transform="scale(0.015625)"/>
       <path id="DejaVuSans-65" d="M 3597 1894 
L 3597 1613 
L 953 1613 
Q 991 1019 1311 708 
Q 1631 397 2203 397 
Q 2534 397 2845 478 
Q 3156 559 3463 722 
L 3463 178 
Q 3153 47 2828 -22 
Q 2503 -91 2169 -91 
Q 1331 -91 842 396 
Q 353 884 353 1716 
Q 353 2575 817 3079 
Q 1281 3584 2069 3584 
Q 2775 3584 3186 3129 
Q 3597 2675 3597 1894 
z
M 3022 2063 
Q 3016 2534 2758 2815 
Q 2500 3097 2075 3097 
Q 1594 3097 1305 2825 
Q 1016 2553 972 2059 
L 3022 2063 
z
" transform="scale(0.015625)"/>
      </defs>
      <use xlink:href="#DejaVuSans-25"/>
      <use xlink:href="#DejaVuSans-20" x="95.019531"/>
      <use xlink:href="#DejaVuSans-63" x="126.806641"/>
      <use xlink:href="#DejaVuSans-68" x="181.787109"/>
      <use xlink:href="#DejaVuSans-61" x="245.166016"/>
      <use xlink:href="#DejaVuSans-6e" x="306.445312"/>
      <use xlink:href="#DejaVuSans-67" x="369.824219"/>
      <use xlink:href="#DejaVuSans-65" x="433.300781"/>
     </g>
    </g>
   </g>
   <g id="PolyCollection_1"/>
   <g id="PolyCollection_2"/>
   <g id="PolyCollection_3"/>
   <g id="PolyCollection_4"/>
   <g id="PolyCollection_5"/>
   <g id="PolyCollection_6"/>
   <g id="line2d_7">
    <path d="M 202.2575 113.676789 
L 214.390241 119.312347 
L 220.456612 121.762401 
L 226.522982 123.976596 
L 232.589352 125.958486 
L 238.655723 127.711634 
L 245.078939 129.326799 
L 251.502154 130.704524 
L 257.92537 131.851285 
L 264.348586 132.77418 
L 270.771802 133.480701 
L 277.551863 134.000257 
L 284.331924 134.296538 
L 291.468831 134.377217 
L 298.605737 134.23116 
L 305.742643 133.869132 
L 313.236395 133.268282 
L 321.086992 132.409253 
L 328.937589 131.328996 
L 337.145032 129.97815 
L 345.709319 128.343917 
L 354.630452 126.416262 
L 363.908431 124.188126 
L 373.9001 121.557858 
L 386.389686 118.01335 
L 406.373024 112.10173 
L 428.854279 105.213053 
L 462.39774 94.85725 
L 462.39774 94.85725 
" clip-path="url(#p9718288a39)" style="fill: none; stroke: #4c72b0; stroke-opacity: 0.9; stroke-width: 3; stroke-linecap: round"/>
   </g>
   <g id="line2d_8">
    <path d="M 202.2575 113.676789 
L 216.531313 120.127134 
L 222.954529 122.631635 
L 229.377745 124.909201 
L 236.157806 127.07265 
L 242.937867 128.994235 
L 249.717928 130.680815 
L 256.497989 132.144576 
L 263.634895 133.452357 
L 270.771802 134.528983 
L 277.908708 135.383075 
L 285.40246 136.050212 
L 292.896212 136.492198 
L 300.746809 136.724792 
L 308.597406 136.733001 
L 316.804848 136.51367 
L 325.012291 136.07326 
L 333.576578 135.390504 
L 342.497711 134.450749 
L 351.77569 133.24164 
L 361.410514 131.753376 
L 371.402183 129.978907 
L 382.464388 127.77597 
L 398.879272 124.26289 
L 416.007848 120.363325 
L 434.206959 115.988299 
L 460.256668 109.457118 
L 462.39774 108.914375 
L 462.39774 108.914375 
" clip-path="url(#p9718288a39)" style="fill: none; stroke: #dd8452; stroke-opacity: 0.9; stroke-width: 3; stroke-linecap: round"/>
   </g>
   <g id="line2d_9">
    <path d="M 202.2575 113.676789 
L 206.539644 115.929154 
L 211.892324 118.622125 
L 217.958694 121.426061 
L 224.025065 123.977766 
L 230.091435 126.284241 
L 236.157806 128.355683 
L 242.581021 130.305257 
L 249.004237 132.015812 
L 255.427453 133.496156 
L 261.850669 134.754775 
L 268.63073 135.852096 
L 275.410791 136.722353 
L 282.190852 137.373932 
L 289.327759 137.83168 
L 296.464665 138.064162 
L 303.958417 138.077574 
L 311.452169 137.869632 
L 319.302766 137.428953 
L 327.510208 136.740649 
L 336.074496 135.792866 
L 344.995629 134.576366 
L 354.273607 133.086711 
L 364.622121 131.194893 
L 375.684326 128.944602 
L 387.817067 126.246239 
L 402.09088 122.837213 
L 422.787909 117.636363 
L 462.39774 107.509473 
L 462.39774 107.509473 
" clip-path="url(#p9718288a39)" style="fill: none; stroke: #55a868; stroke-opacity: 0.9; stroke-width: 3; stroke-linecap: round"/>
   </g>
   <g id="line2d_10">
    <path d="M 202.2575 113.676789 
L 206.539644 115.857185 
L 212.249169 118.635412 
L 218.31554 121.342761 
L 224.38191 123.806933 
L 230.448281 126.036165 
L 236.871496 128.152566 
L 243.294712 130.030387 
L 250.074773 131.778036 
L 256.854834 133.301204 
L 263.634895 134.603194 
L 270.771802 135.743156 
L 277.908708 136.651885 
L 285.045615 137.333003 
L 292.182521 137.790798 
L 299.319428 138.030772 
L 306.813179 138.05662 
L 314.306931 137.86321 
L 322.157528 137.441973 
L 330.364971 136.780563 
L 338.929258 135.87145 
L 348.207237 134.661753 
L 358.198906 133.136857 
L 368.904265 131.279127 
L 380.323316 129.069184 
L 393.169747 126.349447 
L 414.223621 121.626946 
L 440.27333 115.553368 
L 462.39774 110.333363 
L 462.39774 110.333363 
" clip-path="url(#p9718288a39)" style="fill: none; stroke: #c44e52; stroke-opacity: 0.9; stroke-width: 3; stroke-linecap: round"/>
   </g>
   <g id="line2d_11">
    <path d="M 202.2575 113.676789 
L 216.174468 120.400817 
L 221.883993 122.766082 
L 227.593518 124.898427 
L 233.303043 126.802058 
L 239.369414 128.586636 
L 245.435784 130.134573 
L 251.502154 131.450124 
L 257.568525 132.538055 
L 263.634895 133.403539 
L 269.701266 134.05217 
L 276.124482 134.509039 
L 282.547697 134.736823 
L 288.970913 134.744147 
L 295.750974 134.520927 
L 302.531035 134.06928 
L 309.311097 133.399017 
L 316.448003 132.467594 
L 323.584909 131.315211 
L 331.078661 129.879735 
L 338.929258 128.142581 
L 347.136701 126.08802 
L 355.700988 123.703646 
L 364.622121 120.980857 
L 373.9001 117.915313 
L 384.248614 114.256382 
L 407.800405 105.613345 
L 443.484938 92.561111 
L 457.04506 87.882197 
L 462.39774 86.099455 
L 462.39774 86.099455 
" clip-path="url(#p9718288a39)" style="fill: none; stroke: #8172b3; stroke-opacity: 0.9; stroke-width: 3; stroke-linecap: round"/>
   </g>
   <g id="line2d_12">
    <path d="M 202.2575 113.676789 
L 216.174468 120.229908 
L 222.240838 122.703907 
L 228.307209 124.942939 
L 234.373579 126.953877 
L 240.796795 128.842653 
L 247.220011 130.494342 
L 253.643226 131.914041 
L 260.066442 133.107267 
L 266.489658 134.080011 
L 273.269719 134.874299 
L 280.04978 135.437006 
L 286.829841 135.775642 
L 293.609902 135.899226 
L 300.746809 135.806424 
L 307.883715 135.494095 
L 315.377467 134.939992 
L 322.871219 134.164821 
L 330.721816 133.127599 
L 338.929258 131.810777 
L 347.136701 130.271218 
L 355.700988 128.443819 
L 364.978967 126.229659 
L 374.61379 123.695611 
L 385.31915 120.641122 
L 403.875107 115.095418 
L 440.27333 103.920742 
L 456.688214 98.99379 
L 462.39774 97.357346 
L 462.39774 97.357346 
" clip-path="url(#p9718288a39)" style="fill: none; stroke: #937860; stroke-opacity: 0.9; stroke-width: 3; stroke-linecap: round"/>
   </g>
   <g id="patch_3">
    <path d="M 189.250488 183.612 
L 189.250488 81.456 
" style="fill: none; stroke: #ffffff; stroke-width: 1.25; stroke-linejoin: miter; stroke-linecap: square"/>
   </g>
   <g id="patch_4">
    <path d="M 189.250488 183.612 
L 475.404752 183.612 
" style="fill: none; stroke: #ffffff; stroke-width: 1.25; stroke-linejoin: miter; stroke-linecap: square"/>
   </g>
   <g id="text_4">
    <!-- 0.8~90 -->
    <g style="fill: #262626" transform="translate(285.697776 75.456) scale(0.252 -0.252)">
     <defs>
      <path id="DejaVuSans-38" d="M 2034 2216 
Q 1584 2216 1326 1975 
Q 1069 1734 1069 1313 
Q 1069 891 1326 650 
Q 1584 409 2034 409 
Q 2484 409 2743 651 
Q 3003 894 3003 1313 
Q 3003 1734 2745 1975 
Q 2488 2216 2034 2216 
z
M 1403 2484 
Q 997 2584 770 2862 
Q 544 3141 544 3541 
Q 544 4100 942 4425 
Q 1341 4750 2034 4750 
Q 2731 4750 3128 4425 
Q 3525 4100 3525 3541 
Q 3525 3141 3298 2862 
Q 3072 2584 2669 2484 
Q 3125 2378 3379 2068 
Q 3634 1759 3634 1313 
Q 3634 634 3220 271 
Q 2806 -91 2034 -91 
Q 1263 -91 848 271 
Q 434 634 434 1313 
Q 434 1759 690 2068 
Q 947 2378 1403 2484 
z
M 1172 3481 
Q 1172 3119 1398 2916 
Q 1625 2713 2034 2713 
Q 2441 2713 2670 2916 
Q 2900 3119 2900 3481 
Q 2900 3844 2670 4047 
Q 2441 4250 2034 4250 
Q 1625 4250 1398 4047 
Q 1172 3844 1172 3481 
z
" transform="scale(0.015625)"/>
      <path id="DejaVuSans-7e" d="M 4684 2553 
L 4684 1997 
Q 4356 1750 4076 1644 
Q 3797 1538 3494 1538 
Q 3150 1538 2694 1722 
Q 2659 1734 2644 1741 
Q 2622 1750 2575 1766 
Q 2091 1959 1797 1959 
Q 1522 1959 1253 1839 
Q 984 1719 678 1459 
L 678 2016 
Q 1006 2263 1286 2370 
Q 1566 2478 1869 2478 
Q 2213 2478 2672 2291 
Q 2703 2278 2719 2272 
Q 2744 2263 2788 2247 
Q 3272 2053 3566 2053 
Q 3834 2053 4098 2172 
Q 4363 2291 4684 2553 
z
" transform="scale(0.015625)"/>
      <path id="DejaVuSans-39" d="M 703 97 
L 703 672 
Q 941 559 1184 500 
Q 1428 441 1663 441 
Q 2288 441 2617 861 
Q 2947 1281 2994 2138 
Q 2813 1869 2534 1725 
Q 2256 1581 1919 1581 
Q 1219 1581 811 2004 
Q 403 2428 403 3163 
Q 403 3881 828 4315 
Q 1253 4750 1959 4750 
Q 2769 4750 3195 4129 
Q 3622 3509 3622 2328 
Q 3622 1225 3098 567 
Q 2575 -91 1691 -91 
Q 1453 -91 1209 -44 
Q 966 3 703 97 
z
M 1959 2075 
Q 2384 2075 2632 2365 
Q 2881 2656 2881 3163 
Q 2881 3666 2632 3958 
Q 2384 4250 1959 4250 
Q 1534 4250 1286 3958 
Q 1038 3666 1038 3163 
Q 1038 2656 1286 2365 
Q 1534 2075 1959 2075 
z
" transform="scale(0.015625)"/>
     </defs>
     <use xlink:href="#DejaVuSans-30"/>
     <use xlink:href="#DejaVuSans-2e" x="63.623047"/>
     <use xlink:href="#DejaVuSans-38" x="95.410156"/>
     <use xlink:href="#DejaVuSans-7e" x="159.033203"/>
     <use xlink:href="#DejaVuSans-39" x="242.822266"/>
     <use xlink:href="#DejaVuSans-30" x="306.445312"/>
    </g>
   </g>
  </g>
  <g id="axes_2">
   <g id="patch_5">
    <path d="M 501.852899 183.612 
L 788.007162 183.612 
L 788.007162 81.456 
L 501.852899 81.456 
z
" style="fill: #eaeaf2"/>
   </g>
   <g id="matplotlib.axis_3">
    <g id="xtick_5">
     <g id="line2d_13">
      <path d="M 514.859911 183.612 
L 514.859911 81.456 
" clip-path="url(#pa62f4da0cf)" style="fill: none; stroke: #ffffff; stroke-linecap: round"/>
     </g>
    </g>
    <g id="xtick_6">
     <g id="line2d_14">
      <path d="M 604.071241 183.612 
L 604.071241 81.456 
" clip-path="url(#pa62f4da0cf)" style="fill: none; stroke: #ffffff; stroke-linecap: round"/>
     </g>
    </g>
    <g id="xtick_7">
     <g id="line2d_15">
      <path d="M 693.282572 183.612 
L 693.282572 81.456 
" clip-path="url(#pa62f4da0cf)" style="fill: none; stroke: #ffffff; stroke-linecap: round"/>
     </g>
    </g>
    <g id="xtick_8">
     <g id="line2d_16">
      <path d="M 782.493902 183.612 
L 782.493902 81.456 
" clip-path="url(#pa62f4da0cf)" style="fill: none; stroke: #ffffff; stroke-linecap: round"/>
     </g>
    </g>
   </g>
   <g id="matplotlib.axis_4">
    <g id="ytick_3">
     <g id="line2d_17">
      <path d="M 501.852899 169.938537 
L 788.007162 169.938537 
" clip-path="url(#pa62f4da0cf)" style="fill: none; stroke: #ffffff; stroke-linecap: round"/>
     </g>
    </g>
    <g id="ytick_4">
     <g id="line2d_18">
      <path d="M 501.852899 113.676789 
L 788.007162 113.676789 
" clip-path="url(#pa62f4da0cf)" style="fill: none; stroke: #ffffff; stroke-linecap: round"/>
     </g>
    </g>
   </g>
   <g id="PolyCollection_7"/>
   <g id="PolyCollection_8"/>
   <g id="PolyCollection_9"/>
   <g id="PolyCollection_10"/>
   <g id="PolyCollection_11"/>
   <g id="PolyCollection_12"/>
   <g id="line2d_19">
    <path d="M 514.859911 113.676789 
L 533.772713 122.51173 
L 543.050691 126.440533 
L 552.32867 130.120491 
L 561.606648 133.55727 
L 570.884627 136.756899 
L 580.162605 139.725447 
L 589.797429 142.570624 
L 599.432252 145.181106 
L 609.067076 147.564795 
L 619.058745 149.806503 
L 629.407259 151.895701 
L 639.755774 153.759426 
L 650.461133 155.460406 
L 661.523338 156.986506 
L 672.585543 158.288237 
L 684.004594 159.408086 
L 695.780489 160.336848 
L 707.91323 161.066456 
L 720.402816 161.589912 
L 733.249248 161.901344 
L 746.452525 161.995956 
L 760.012647 161.870113 
L 773.929615 161.521447 
L 775.000151 161.485856 
L 775.000151 161.485856 
" clip-path="url(#pa62f4da0cf)" style="fill: none; stroke: #4c72b0; stroke-opacity: 0.9; stroke-width: 3; stroke-linecap: round"/>
   </g>
   <g id="line2d_20">
    <path d="M 514.859911 113.676789 
L 519.4989 115.930735 
L 524.494735 118.254421 
L 533.772713 122.367195 
L 543.050691 126.242922 
L 552.685515 130.022198 
L 562.320339 133.558728 
L 571.955163 136.862435 
L 581.946832 140.049083 
L 591.938501 142.999052 
L 601.93017 145.720412 
L 612.278684 148.306416 
L 622.627198 150.66476 
L 633.332558 152.87498 
L 644.394763 154.929215 
L 655.813813 156.81786 
L 667.232863 158.482257 
L 679.008759 159.975432 
L 691.1415 161.288922 
L 703.631086 162.415393 
L 716.477518 163.348536 
L 729.680795 164.082783 
L 743.240917 164.613577 
L 757.157884 164.937428 
L 771.788543 165.051917 
L 775.000151 165.047575 
L 775.000151 165.047575 
" clip-path="url(#pa62f4da0cf)" style="fill: none; stroke: #dd8452; stroke-opacity: 0.9; stroke-width: 3; stroke-linecap: round"/>
   </g>
   <g id="line2d_21">
    <path d="M 514.859911 113.676789 
L 518.428364 115.564568 
L 526.635807 119.814027 
L 535.55694 124.182477 
L 544.478073 128.302297 
L 553.399206 132.177356 
L 562.320339 135.812381 
L 571.241472 139.21312 
L 580.876296 142.646677 
L 590.867965 145.976997 
L 600.859634 149.078137 
L 610.851303 151.946721 
L 620.842972 154.580881 
L 630.834641 156.979551 
L 640.82631 159.142371 
L 650.461133 161.005379 
L 660.452802 162.707264 
L 670.444471 164.182133 
L 681.506676 165.590388 
L 692.925727 166.820758 
L 704.701622 167.864927 
L 716.834363 168.715645 
L 729.323949 169.365669 
L 742.170381 169.808785 
L 755.373658 170.041303 
L 769.290625 170.059568 
L 775.000151 170.003783 
L 775.000151 170.003783 
" clip-path="url(#pa62f4da0cf)" style="fill: none; stroke: #55a868; stroke-opacity: 0.9; stroke-width: 3; stroke-linecap: round"/>
   </g>
   <g id="line2d_22">
    <path d="M 514.859911 113.676789 
L 518.78521 115.688224 
L 526.992652 119.797874 
L 535.913785 124.026327 
L 544.834918 128.015537 
L 553.756051 131.769261 
L 564.461411 136.016312 
L 574.45308 139.741837 
L 584.801594 143.358189 
L 595.150108 146.741978 
L 605.855468 150.00567 
L 616.203982 152.933473 
L 626.195651 155.537265 
L 635.830475 157.826127 
L 645.465299 159.887851 
L 655.100122 161.723409 
L 665.091791 163.394697 
L 675.08346 164.840866 
L 685.78882 166.159807 
L 696.851025 167.295815 
L 708.270075 168.245505 
L 720.402816 169.033167 
L 733.249248 169.641032 
L 746.452525 170.041399 
L 760.012647 170.231459 
L 774.28646 170.207295 
L 775.000151 170.20038 
L 775.000151 170.20038 
" clip-path="url(#pa62f4da0cf)" style="fill: none; stroke: #c44e52; stroke-opacity: 0.9; stroke-width: 3; stroke-linecap: round"/>
   </g>
   <g id="line2d_23">
    <path d="M 514.859911 113.676789 
L 520.212591 116.42623 
L 528.776879 120.671128 
L 537.341166 124.67389 
L 545.905454 128.439225 
L 554.826587 132.114003 
L 563.74772 135.54169 
L 572.668853 138.729298 
L 581.589986 141.682733 
L 590.511119 144.40776 
L 599.789098 147.006364 
L 609.067076 149.373792 
L 618.7019 151.596434 
L 628.336723 153.59163 
L 638.328392 155.430233 
L 648.320061 157.042655 
L 658.668576 158.483591 
L 669.01709 159.700988 
L 679.72245 160.735254 
L 690.784655 161.574435 
L 701.84686 162.191214 
L 713.26591 162.606212 
L 725.041805 162.810603 
L 737.174546 162.798131 
L 749.664133 162.562541 
L 762.510564 162.098385 
L 775.000151 161.445126 
L 775.000151 161.445126 
" clip-path="url(#pa62f4da0cf)" style="fill: none; stroke: #8172b3; stroke-opacity: 0.9; stroke-width: 3; stroke-linecap: round"/>
   </g>
   <g id="line2d_24">
    <path d="M 514.859911 113.676789 
L 521.639972 117.049174 
L 530.561105 121.298167 
L 539.482238 125.306054 
L 548.403371 129.077333 
L 557.68135 132.753368 
L 566.959328 136.183896 
L 576.237306 139.374982 
L 585.515285 142.333877 
L 595.150108 145.169274 
L 604.784932 147.771312 
L 614.419756 150.147765 
L 624.411425 152.383365 
L 634.759939 154.4663 
L 645.108453 156.322191 
L 655.813813 158.012651 
L 666.519173 159.479483 
L 677.581378 160.770661 
L 689.000428 161.875228 
L 700.419478 162.758916 
L 712.195374 163.450306 
L 724.328115 163.941281 
L 736.817701 164.225313 
L 749.664133 164.298055 
L 763.224255 164.148386 
L 775.000151 163.840967 
L 775.000151 163.840967 
" clip-path="url(#pa62f4da0cf)" style="fill: none; stroke: #937860; stroke-opacity: 0.9; stroke-width: 3; stroke-linecap: round"/>
   </g>
   <g id="patch_6">
    <path d="M 501.852899 183.612 
L 501.852899 81.456 
" style="fill: none; stroke: #ffffff; stroke-width: 1.25; stroke-linejoin: miter; stroke-linecap: square"/>
   </g>
   <g id="patch_7">
    <path d="M 501.852899 183.612 
L 788.007162 183.612 
" style="fill: none; stroke: #ffffff; stroke-width: 1.25; stroke-linejoin: miter; stroke-linecap: square"/>
   </g>
   <g id="text_5">
    <!-- 0.8~365 -->
    <g style="fill: #262626" transform="translate(590.283437 75.456) scale(0.252 -0.252)">
     <defs>
      <path id="DejaVuSans-33" d="M 2597 2516 
Q 3050 2419 3304 2112 
Q 3559 1806 3559 1356 
Q 3559 666 3084 287 
Q 2609 -91 1734 -91 
Q 1441 -91 1130 -33 
Q 819 25 488 141 
L 488 750 
Q 750 597 1062 519 
Q 1375 441 1716 441 
Q 2309 441 2620 675 
Q 2931 909 2931 1356 
Q 2931 1769 2642 2001 
Q 2353 2234 1838 2234 
L 1294 2234 
L 1294 2753 
L 1863 2753 
Q 2328 2753 2575 2939 
Q 2822 3125 2822 3475 
Q 2822 3834 2567 4026 
Q 2313 4219 1838 4219 
Q 1578 4219 1281 4162 
Q 984 4106 628 3988 
L 628 4550 
Q 988 4650 1302 4700 
Q 1616 4750 1894 4750 
Q 2613 4750 3031 4423 
Q 3450 4097 3450 3541 
Q 3450 3153 3228 2886 
Q 3006 2619 2597 2516 
z
" transform="scale(0.015625)"/>
      <path id="DejaVuSans-36" d="M 2113 2584 
Q 1688 2584 1439 2293 
Q 1191 2003 1191 1497 
Q 1191 994 1439 701 
Q 1688 409 2113 409 
Q 2538 409 2786 701 
Q 3034 994 3034 1497 
Q 3034 2003 2786 2293 
Q 2538 2584 2113 2584 
z
M 3366 4563 
L 3366 3988 
Q 3128 4100 2886 4159 
Q 2644 4219 2406 4219 
Q 1781 4219 1451 3797 
Q 1122 3375 1075 2522 
Q 1259 2794 1537 2939 
Q 1816 3084 2150 3084 
Q 2853 3084 3261 2657 
Q 3669 2231 3669 1497 
Q 3669 778 3244 343 
Q 2819 -91 2113 -91 
Q 1303 -91 875 529 
Q 447 1150 447 2328 
Q 447 3434 972 4092 
Q 1497 4750 2381 4750 
Q 2619 4750 2861 4703 
Q 3103 4656 3366 4563 
z
" transform="scale(0.015625)"/>
     </defs>
     <use xlink:href="#DejaVuSans-30"/>
     <use xlink:href="#DejaVuSans-2e" x="63.623047"/>
     <use xlink:href="#DejaVuSans-38" x="95.410156"/>
     <use xlink:href="#DejaVuSans-7e" x="159.033203"/>
     <use xlink:href="#DejaVuSans-33" x="242.822266"/>
     <use xlink:href="#DejaVuSans-36" x="306.445312"/>
     <use xlink:href="#DejaVuSans-35" x="370.068359"/>
    </g>
   </g>
  </g>
  <g id="axes_3">
   <g id="patch_8">
    <path d="M 814.45531 183.612 
L 1100.609573 183.612 
L 1100.609573 81.456 
L 814.45531 81.456 
z
" style="fill: #eaeaf2"/>
   </g>
   <g id="matplotlib.axis_5">
    <g id="xtick_9">
     <g id="line2d_25">
      <path d="M 827.462322 183.612 
L 827.462322 81.456 
" clip-path="url(#pb5ec211572)" style="fill: none; stroke: #ffffff; stroke-linecap: round"/>
     </g>
     <g id="text_6">
      <!-- 0 -->
      <g style="fill: #262626" transform="translate(820.113635 210.664391) scale(0.231 -0.231)">
       <use xlink:href="#DejaVuSans-30"/>
      </g>
     </g>
    </g>
    <g id="xtick_10">
     <g id="line2d_26">
      <path d="M 916.673652 183.612 
L 916.673652 81.456 
" clip-path="url(#pb5ec211572)" style="fill: none; stroke: #ffffff; stroke-linecap: round"/>
     </g>
     <g id="text_7">
      <!-- 250 -->
      <g style="fill: #262626" transform="translate(894.62759 210.664391) scale(0.231 -0.231)">
       <use xlink:href="#DejaVuSans-32"/>
       <use xlink:href="#DejaVuSans-35" x="63.623047"/>
       <use xlink:href="#DejaVuSans-30" x="127.246094"/>
      </g>
     </g>
    </g>
    <g id="xtick_11">
     <g id="line2d_27">
      <path d="M 1005.884983 183.612 
L 1005.884983 81.456 
" clip-path="url(#pb5ec211572)" style="fill: none; stroke: #ffffff; stroke-linecap: round"/>
     </g>
     <g id="text_8">
      <!-- 500 -->
      <g style="fill: #262626" transform="translate(983.83892 210.664391) scale(0.231 -0.231)">
       <use xlink:href="#DejaVuSans-35"/>
       <use xlink:href="#DejaVuSans-30" x="63.623047"/>
       <use xlink:href="#DejaVuSans-30" x="127.246094"/>
      </g>
     </g>
    </g>
    <g id="xtick_12">
     <g id="line2d_28">
      <path d="M 1095.096313 183.612 
L 1095.096313 81.456 
" clip-path="url(#pb5ec211572)" style="fill: none; stroke: #ffffff; stroke-linecap: round"/>
     </g>
     <g id="text_9">
      <!-- 750 -->
      <g style="fill: #262626" transform="translate(1073.050251 210.664391) scale(0.231 -0.231)">
       <defs>
        <path id="DejaVuSans-37" d="M 525 4666 
L 3525 4666 
L 3525 4397 
L 1831 0 
L 1172 0 
L 2766 4134 
L 525 4134 
L 525 4666 
z
" transform="scale(0.015625)"/>
       </defs>
       <use xlink:href="#DejaVuSans-37"/>
       <use xlink:href="#DejaVuSans-35" x="63.623047"/>
       <use xlink:href="#DejaVuSans-30" x="127.246094"/>
      </g>
     </g>
    </g>
    <g id="text_10">
     <!-- step -->
     <g style="fill: #262626" transform="translate(930.277067 238.616531) scale(0.252 -0.252)">
      <defs>
       <path id="DejaVuSans-73" d="M 2834 3397 
L 2834 2853 
Q 2591 2978 2328 3040 
Q 2066 3103 1784 3103 
Q 1356 3103 1142 2972 
Q 928 2841 928 2578 
Q 928 2378 1081 2264 
Q 1234 2150 1697 2047 
L 1894 2003 
Q 2506 1872 2764 1633 
Q 3022 1394 3022 966 
Q 3022 478 2636 193 
Q 2250 -91 1575 -91 
Q 1294 -91 989 -36 
Q 684 19 347 128 
L 347 722 
Q 666 556 975 473 
Q 1284 391 1588 391 
Q 1994 391 2212 530 
Q 2431 669 2431 922 
Q 2431 1156 2273 1281 
Q 2116 1406 1581 1522 
L 1381 1569 
Q 847 1681 609 1914 
Q 372 2147 372 2553 
Q 372 3047 722 3315 
Q 1072 3584 1716 3584 
Q 2034 3584 2315 3537 
Q 2597 3491 2834 3397 
z
" transform="scale(0.015625)"/>
       <path id="DejaVuSans-74" d="M 1172 4494 
L 1172 3500 
L 2356 3500 
L 2356 3053 
L 1172 3053 
L 1172 1153 
Q 1172 725 1289 603 
Q 1406 481 1766 481 
L 2356 481 
L 2356 0 
L 1766 0 
Q 1100 0 847 248 
Q 594 497 594 1153 
L 594 3053 
L 172 3053 
L 172 3500 
L 594 3500 
L 594 4494 
L 1172 4494 
z
" transform="scale(0.015625)"/>
       <path id="DejaVuSans-70" d="M 1159 525 
L 1159 -1331 
L 581 -1331 
L 581 3500 
L 1159 3500 
L 1159 2969 
Q 1341 3281 1617 3432 
Q 1894 3584 2278 3584 
Q 2916 3584 3314 3078 
Q 3713 2572 3713 1747 
Q 3713 922 3314 415 
Q 2916 -91 2278 -91 
Q 1894 -91 1617 61 
Q 1341 213 1159 525 
z
M 3116 1747 
Q 3116 2381 2855 2742 
Q 2594 3103 2138 3103 
Q 1681 3103 1420 2742 
Q 1159 2381 1159 1747 
Q 1159 1113 1420 752 
Q 1681 391 2138 391 
Q 2594 391 2855 752 
Q 3116 1113 3116 1747 
z
" transform="scale(0.015625)"/>
      </defs>
      <use xlink:href="#DejaVuSans-73"/>
      <use xlink:href="#DejaVuSans-74" x="52.099609"/>
      <use xlink:href="#DejaVuSans-65" x="91.308594"/>
      <use xlink:href="#DejaVuSans-70" x="152.832031"/>
     </g>
    </g>
   </g>
   <g id="matplotlib.axis_6">
    <g id="ytick_5">
     <g id="line2d_29">
      <path d="M 814.45531 169.938537 
L 1100.609573 169.938537 
" clip-path="url(#pb5ec211572)" style="fill: none; stroke: #ffffff; stroke-linecap: round"/>
     </g>
    </g>
    <g id="ytick_6">
     <g id="line2d_30">
      <path d="M 814.45531 113.676789 
L 1100.609573 113.676789 
" clip-path="url(#pb5ec211572)" style="fill: none; stroke: #ffffff; stroke-linecap: round"/>
     </g>
    </g>
   </g>
   <g id="PolyCollection_13"/>
   <g id="PolyCollection_14"/>
   <g id="PolyCollection_15"/>
   <g id="PolyCollection_16"/>
   <g id="PolyCollection_17"/>
   <g id="PolyCollection_18"/>
   <g id="line2d_31">
    <path d="M 827.462322 113.676789 
L 839.595063 119.312347 
L 845.661433 121.762401 
L 851.727804 123.976596 
L 857.794174 125.958486 
L 863.860545 127.711634 
L 870.283761 129.326799 
L 876.706976 130.704524 
L 883.130192 131.851285 
L 889.553408 132.77418 
L 895.976624 133.480701 
L 902.756685 134.000257 
L 909.536746 134.296538 
L 916.673652 134.377217 
L 923.810559 134.23116 
L 930.947465 133.869132 
L 938.441217 133.268282 
L 946.291814 132.409253 
L 954.142411 131.328996 
L 962.349854 129.97815 
L 970.914141 128.343917 
L 979.835274 126.416262 
L 989.113253 124.188126 
L 999.104922 121.557858 
L 1011.594508 118.01335 
L 1031.577846 112.10173 
L 1054.059101 105.213053 
L 1087.602561 94.85725 
L 1087.602561 94.85725 
" clip-path="url(#pb5ec211572)" style="fill: none; stroke: #4c72b0; stroke-opacity: 0.9; stroke-width: 3; stroke-linecap: round"/>
   </g>
   <g id="line2d_32">
    <path d="M 827.462322 113.676789 
L 841.736135 120.127134 
L 848.159351 122.631635 
L 854.582566 124.909201 
L 861.362628 127.07265 
L 868.142689 128.994235 
L 874.92275 130.680815 
L 881.702811 132.144576 
L 888.839717 133.452357 
L 895.976624 134.528983 
L 903.11353 135.383075 
L 910.607282 136.050212 
L 918.101034 136.492198 
L 925.951631 136.724792 
L 933.802228 136.733001 
L 942.00967 136.51367 
L 950.217113 136.07326 
L 958.7814 135.390504 
L 967.702533 134.450749 
L 976.980512 133.24164 
L 986.615335 131.753376 
L 996.607004 129.978907 
L 1007.669209 127.77597 
L 1024.084094 124.26289 
L 1041.21267 120.363325 
L 1059.411781 115.988299 
L 1085.46149 109.457118 
L 1087.602561 108.914375 
L 1087.602561 108.914375 
" clip-path="url(#pb5ec211572)" style="fill: none; stroke: #dd8452; stroke-opacity: 0.9; stroke-width: 3; stroke-linecap: round"/>
   </g>
   <g id="line2d_33">
    <path d="M 827.462322 113.676789 
L 831.744466 115.929154 
L 837.097146 118.622125 
L 843.163516 121.426061 
L 849.229887 123.977766 
L 855.296257 126.284241 
L 861.362628 128.355683 
L 867.785843 130.307111 
L 874.565904 132.133138 
L 882.059656 133.913333 
L 889.553408 135.471204 
L 897.04716 136.804213 
L 904.540911 137.908803 
L 912.034663 138.789529 
L 919.17157 139.412102 
L 926.308476 139.817114 
L 933.445383 140.000167 
L 940.582289 139.959201 
L 947.719195 139.695072 
L 954.856102 139.212601 
L 962.349854 138.475454 
L 969.843605 137.508371 
L 977.694202 136.266444 
L 986.615335 134.621637 
L 997.320695 132.402631 
L 1009.096591 129.736262 
L 1022.656713 126.433852 
L 1041.569515 121.575688 
L 1087.602561 109.542921 
L 1087.602561 109.542921 
" clip-path="url(#pb5ec211572)" style="fill: none; stroke: #55a868; stroke-opacity: 0.9; stroke-width: 3; stroke-linecap: round"/>
   </g>
   <g id="line2d_34">
    <path d="M 827.462322 113.676789 
L 831.744466 115.857185 
L 837.453991 118.635412 
L 843.520362 121.342761 
L 849.586732 123.806933 
L 855.653102 126.036165 
L 862.076318 128.163342 
L 869.213225 130.288266 
L 876.706976 132.273187 
L 884.557573 134.128317 
L 892.408171 135.756535 
L 900.258768 137.16412 
L 908.109365 138.349419 
L 915.603116 139.261146 
L 923.096868 139.947823 
L 930.233775 140.385613 
L 937.370681 140.608505 
L 944.507588 140.615189 
L 952.001339 140.392334 
L 959.495091 139.940393 
L 966.988843 139.266963 
L 974.83944 138.333327 
L 983.046882 137.124757 
L 991.61117 135.63855 
L 1001.602839 133.674823 
L 1013.021889 131.204312 
L 1030.150465 127.240625 
L 1057.270709 120.750577 
L 1087.602561 113.375528 
L 1087.602561 113.375528 
" clip-path="url(#pb5ec211572)" style="fill: none; stroke: #c44e52; stroke-opacity: 0.9; stroke-width: 3; stroke-linecap: round"/>
   </g>
   <g id="line2d_35">
    <path d="M 827.462322 113.676789 
L 841.37929 120.400817 
L 847.088815 122.766082 
L 852.79834 124.898427 
L 858.507865 126.802058 
L 864.574235 128.586636 
L 870.640606 130.134573 
L 876.706976 131.450124 
L 882.773347 132.538055 
L 888.839717 133.403539 
L 894.906088 134.05217 
L 901.329304 134.509039 
L 907.752519 134.736823 
L 914.175735 134.744147 
L 920.955796 134.520927 
L 927.735857 134.06928 
L 934.515919 133.399017 
L 941.652825 132.467594 
L 948.789731 131.315211 
L 956.283483 129.879735 
L 964.13408 128.142581 
L 972.341523 126.08802 
L 980.90581 123.703646 
L 989.826943 120.980857 
L 999.104922 117.915313 
L 1009.453436 114.256382 
L 1033.005227 105.613345 
L 1068.689759 92.561111 
L 1082.249882 87.882197 
L 1087.602561 86.099455 
L 1087.602561 86.099455 
" clip-path="url(#pb5ec211572)" style="fill: none; stroke: #8172b3; stroke-opacity: 0.9; stroke-width: 3; stroke-linecap: round"/>
   </g>
   <g id="line2d_36">
    <path d="M 827.462322 113.676789 
L 841.37929 120.229908 
L 847.44566 122.703907 
L 853.512031 124.942939 
L 859.578401 126.953877 
L 866.001617 128.842653 
L 872.424833 130.494342 
L 878.848048 131.914041 
L 885.271264 133.107267 
L 891.69448 134.080011 
L 898.474541 134.874299 
L 905.254602 135.437006 
L 912.034663 135.775642 
L 918.814724 135.899226 
L 925.951631 135.806424 
L 933.088537 135.494095 
L 940.582289 134.939992 
L 948.076041 134.164821 
L 955.926638 133.127599 
L 964.13408 131.810777 
L 972.341523 130.271218 
L 980.90581 128.443819 
L 990.183789 126.229659 
L 999.818612 123.695611 
L 1010.523972 120.641122 
L 1029.079929 115.095418 
L 1065.478152 103.920742 
L 1081.893036 98.99379 
L 1087.602561 97.357346 
L 1087.602561 97.357346 
" clip-path="url(#pb5ec211572)" style="fill: none; stroke: #937860; stroke-opacity: 0.9; stroke-width: 3; stroke-linecap: round"/>
   </g>
   <g id="patch_9">
    <path d="M 814.45531 183.612 
L 814.45531 81.456 
" style="fill: none; stroke: #ffffff; stroke-width: 1.25; stroke-linejoin: miter; stroke-linecap: square"/>
   </g>
   <g id="patch_10">
    <path d="M 814.45531 183.612 
L 1100.609573 183.612 
" style="fill: none; stroke: #ffffff; stroke-width: 1.25; stroke-linejoin: miter; stroke-linecap: square"/>
   </g>
   <g id="text_11">
    <!-- 0.85~90 -->
    <g style="fill: #262626" transform="translate(902.885848 75.456) scale(0.252 -0.252)">
     <use xlink:href="#DejaVuSans-30"/>
     <use xlink:href="#DejaVuSans-2e" x="63.623047"/>
     <use xlink:href="#DejaVuSans-38" x="95.410156"/>
     <use xlink:href="#DejaVuSans-35" x="159.033203"/>
     <use xlink:href="#DejaVuSans-7e" x="222.65625"/>
     <use xlink:href="#DejaVuSans-39" x="306.445312"/>
     <use xlink:href="#DejaVuSans-30" x="370.068359"/>
    </g>
   </g>
  </g>
  <g id="axes_4">
   <g id="patch_11">
    <path d="M 189.250488 373.284 
L 475.404752 373.284 
L 475.404752 271.128 
L 189.250488 271.128 
z
" style="fill: #eaeaf2"/>
   </g>
   <g id="matplotlib.axis_7">
    <g id="xtick_13">
     <g id="line2d_37">
      <path d="M 202.2575 373.284 
L 202.2575 271.128 
" clip-path="url(#pbf429a6150)" style="fill: none; stroke: #ffffff; stroke-linecap: round"/>
     </g>
     <g id="text_12">
      <!-- 0 -->
      <g style="fill: #262626" transform="translate(194.908813 400.336391) scale(0.231 -0.231)">
       <use xlink:href="#DejaVuSans-30"/>
      </g>
     </g>
    </g>
    <g id="xtick_14">
     <g id="line2d_38">
      <path d="M 291.468831 373.284 
L 291.468831 271.128 
" clip-path="url(#pbf429a6150)" style="fill: none; stroke: #ffffff; stroke-linecap: round"/>
     </g>
     <g id="text_13">
      <!-- 250 -->
      <g style="fill: #262626" transform="translate(269.422768 400.336391) scale(0.231 -0.231)">
       <use xlink:href="#DejaVuSans-32"/>
       <use xlink:href="#DejaVuSans-35" x="63.623047"/>
       <use xlink:href="#DejaVuSans-30" x="127.246094"/>
      </g>
     </g>
    </g>
    <g id="xtick_15">
     <g id="line2d_39">
      <path d="M 380.680161 373.284 
L 380.680161 271.128 
" clip-path="url(#pbf429a6150)" style="fill: none; stroke: #ffffff; stroke-linecap: round"/>
     </g>
     <g id="text_14">
      <!-- 500 -->
      <g style="fill: #262626" transform="translate(358.634098 400.336391) scale(0.231 -0.231)">
       <use xlink:href="#DejaVuSans-35"/>
       <use xlink:href="#DejaVuSans-30" x="63.623047"/>
       <use xlink:href="#DejaVuSans-30" x="127.246094"/>
      </g>
     </g>
    </g>
    <g id="xtick_16">
     <g id="line2d_40">
      <path d="M 469.891491 373.284 
L 469.891491 271.128 
" clip-path="url(#pbf429a6150)" style="fill: none; stroke: #ffffff; stroke-linecap: round"/>
     </g>
     <g id="text_15">
      <!-- 750 -->
      <g style="fill: #262626" transform="translate(447.845429 400.336391) scale(0.231 -0.231)">
       <use xlink:href="#DejaVuSans-37"/>
       <use xlink:href="#DejaVuSans-35" x="63.623047"/>
       <use xlink:href="#DejaVuSans-30" x="127.246094"/>
      </g>
     </g>
    </g>
    <g id="text_16">
     <!-- step -->
     <g style="fill: #262626" transform="translate(305.072245 428.288531) scale(0.252 -0.252)">
      <use xlink:href="#DejaVuSans-73"/>
      <use xlink:href="#DejaVuSans-74" x="52.099609"/>
      <use xlink:href="#DejaVuSans-65" x="91.308594"/>
      <use xlink:href="#DejaVuSans-70" x="152.832031"/>
     </g>
    </g>
   </g>
   <g id="matplotlib.axis_8">
    <g id="ytick_7">
     <g id="line2d_41">
      <path d="M 189.250488 359.610537 
L 475.404752 359.610537 
" clip-path="url(#pbf429a6150)" style="fill: none; stroke: #ffffff; stroke-linecap: round"/>
     </g>
     <g id="text_17">
      <!-- −0.25 -->
      <g style="fill: #262626" transform="translate(108.959816 368.386732) scale(0.231 -0.231)">
       <use xlink:href="#DejaVuSans-2212"/>
       <use xlink:href="#DejaVuSans-30" x="83.789062"/>
       <use xlink:href="#DejaVuSans-2e" x="147.412109"/>
       <use xlink:href="#DejaVuSans-32" x="179.199219"/>
       <use xlink:href="#DejaVuSans-35" x="242.822266"/>
      </g>
     </g>
    </g>
    <g id="ytick_8">
     <g id="line2d_42">
      <path d="M 189.250488 303.348789 
L 475.404752 303.348789 
" clip-path="url(#pbf429a6150)" style="fill: none; stroke: #ffffff; stroke-linecap: round"/>
     </g>
     <g id="text_18">
      <!-- 0.00 -->
      <g style="fill: #262626" transform="translate(128.316894 312.124984) scale(0.231 -0.231)">
       <use xlink:href="#DejaVuSans-30"/>
       <use xlink:href="#DejaVuSans-2e" x="63.623047"/>
       <use xlink:href="#DejaVuSans-30" x="95.410156"/>
       <use xlink:href="#DejaVuSans-30" x="159.033203"/>
      </g>
     </g>
    </g>
    <g id="text_19">
     <!-- % change -->
     <g style="fill: #262626" transform="translate(99.719004 384.554344) rotate(-90) scale(0.252 -0.252)">
      <use xlink:href="#DejaVuSans-25"/>
      <use xlink:href="#DejaVuSans-20" x="95.019531"/>
      <use xlink:href="#DejaVuSans-63" x="126.806641"/>
      <use xlink:href="#DejaVuSans-68" x="181.787109"/>
      <use xlink:href="#DejaVuSans-61" x="245.166016"/>
      <use xlink:href="#DejaVuSans-6e" x="306.445312"/>
      <use xlink:href="#DejaVuSans-67" x="369.824219"/>
      <use xlink:href="#DejaVuSans-65" x="433.300781"/>
     </g>
    </g>
   </g>
   <g id="PolyCollection_19"/>
   <g id="PolyCollection_20"/>
   <g id="PolyCollection_21"/>
   <g id="PolyCollection_22"/>
   <g id="PolyCollection_23"/>
   <g id="PolyCollection_24"/>
   <g id="line2d_43">
    <path d="M 202.2575 303.348789 
L 221.170302 312.18373 
L 230.448281 316.112533 
L 239.726259 319.792491 
L 249.004237 323.22927 
L 258.282216 326.428899 
L 267.560194 329.397447 
L 277.195018 332.242624 
L 286.829841 334.853106 
L 296.464665 337.236795 
L 306.456334 339.478503 
L 316.804848 341.567701 
L 327.153363 343.431426 
L 337.858722 345.132406 
L 348.920927 346.658506 
L 359.983132 347.960237 
L 371.402183 349.080086 
L 383.178078 350.008848 
L 395.310819 350.738456 
L 407.800405 351.261912 
L 420.646837 351.573344 
L 433.850114 351.667956 
L 447.410236 351.542113 
L 461.327204 351.193447 
L 462.39774 351.157856 
L 462.39774 351.157856 
" clip-path="url(#pbf429a6150)" style="fill: none; stroke: #4c72b0; stroke-opacity: 0.9; stroke-width: 3; stroke-linecap: round"/>
   </g>
   <g id="line2d_44">
    <path d="M 202.2575 303.348789 
L 206.896489 305.602735 
L 211.892324 307.926421 
L 221.170302 312.039195 
L 230.448281 315.914922 
L 240.083104 319.694198 
L 249.717928 323.230728 
L 259.352752 326.534435 
L 269.344421 329.721083 
L 279.33609 332.671052 
L 289.327759 335.392412 
L 299.676273 337.978416 
L 310.024787 340.33676 
L 320.730147 342.54698 
L 331.792352 344.601215 
L 343.211402 346.48986 
L 354.630452 348.154257 
L 366.406348 349.647432 
L 378.539089 350.960922 
L 391.028675 352.087393 
L 403.875107 353.020536 
L 417.078384 353.754783 
L 430.638506 354.285577 
L 444.555473 354.609428 
L 459.186132 354.723917 
L 462.39774 354.719575 
L 462.39774 354.719575 
" clip-path="url(#pbf429a6150)" style="fill: none; stroke: #dd8452; stroke-opacity: 0.9; stroke-width: 3; stroke-linecap: round"/>
   </g>
   <g id="line2d_45">
    <path d="M 202.2575 303.348789 
L 205.825953 305.236568 
L 214.033396 309.486027 
L 222.954529 313.854477 
L 231.875662 317.974297 
L 240.796795 321.85265 
L 251.502154 326.254296 
L 265.775967 331.866776 
L 279.33609 336.959697 
L 292.182521 341.551701 
L 303.601571 345.403346 
L 314.306931 348.781373 
L 324.2986 351.707821 
L 333.933424 354.307142 
L 343.568247 356.67682 
L 352.846226 358.734063 
L 362.124204 360.565011 
L 371.402183 362.165962 
L 380.680161 363.534384 
L 389.958139 364.671905 
L 399.236118 365.586559 
L 408.514096 366.28101 
L 418.14892 366.780784 
L 428.497434 367.097903 
L 440.98702 367.243333 
L 454.547142 367.182935 
L 462.39774 367.051623 
L 462.39774 367.051623 
" clip-path="url(#pbf429a6150)" style="fill: none; stroke: #55a868; stroke-opacity: 0.9; stroke-width: 3; stroke-linecap: round"/>
   </g>
   <g id="line2d_46">
    <path d="M 202.2575 303.348789 
L 206.182799 305.360224 
L 214.390241 309.469874 
L 223.311374 313.698327 
L 232.232507 317.688188 
L 243.651557 322.53161 
L 257.21168 328.008787 
L 271.842338 333.699134 
L 286.829841 339.303807 
L 298.962582 343.614079 
L 310.024787 347.315395 
L 320.373302 350.54971 
L 330.364971 353.443713 
L 339.999794 356.007881 
L 349.634618 358.33919 
L 358.912596 360.357637 
L 368.190575 362.149632 
L 377.468553 363.712927 
L 386.746531 365.046753 
L 396.02451 366.158874 
L 405.659333 367.086571 
L 415.294157 367.785008 
L 424.928981 368.25942 
L 435.277495 368.542381 
L 447.410236 368.640428 
L 460.613513 368.520676 
L 462.39774 368.48868 
L 462.39774 368.48868 
" clip-path="url(#pbf429a6150)" style="fill: none; stroke: #c44e52; stroke-opacity: 0.9; stroke-width: 3; stroke-linecap: round"/>
   </g>
   <g id="line2d_47">
    <path d="M 202.2575 303.348789 
L 207.61018 306.09823 
L 216.174468 310.343128 
L 224.738755 314.34589 
L 233.303043 318.111225 
L 242.224176 321.786003 
L 251.145309 325.21369 
L 260.066442 328.401298 
L 268.987575 331.354733 
L 277.908708 334.07976 
L 287.186687 336.678364 
L 296.464665 339.045792 
L 306.099489 341.268434 
L 315.734312 343.26363 
L 325.725981 345.102233 
L 335.71765 346.714655 
L 346.066165 348.155591 
L 356.414679 349.372988 
L 367.120039 350.407254 
L 378.182244 351.246435 
L 389.244449 351.863214 
L 400.663499 352.278212 
L 412.439395 352.482603 
L 424.572135 352.470131 
L 437.061722 352.234541 
L 449.908153 351.770385 
L 462.39774 351.117126 
L 462.39774 351.117126 
" clip-path="url(#pbf429a6150)" style="fill: none; stroke: #8172b3; stroke-opacity: 0.9; stroke-width: 3; stroke-linecap: round"/>
   </g>
   <g id="line2d_48">
    <path d="M 202.2575 303.348789 
L 209.037561 306.721174 
L 217.958694 310.970167 
L 226.879827 314.978054 
L 235.80096 318.749333 
L 245.078939 322.425368 
L 254.356917 325.855896 
L 263.634895 329.046982 
L 272.912874 332.005877 
L 282.547697 334.841274 
L 292.182521 337.443312 
L 301.817345 339.819765 
L 311.809014 342.055365 
L 322.157528 344.1383 
L 332.506042 345.994191 
L 343.211402 347.684651 
L 353.916762 349.151483 
L 364.978967 350.442661 
L 376.398017 351.547228 
L 387.817067 352.430916 
L 399.592963 353.122306 
L 411.725704 353.613281 
L 424.21529 353.897313 
L 437.061722 353.970055 
L 450.621844 353.820386 
L 462.39774 353.512967 
L 462.39774 353.512967 
" clip-path="url(#pbf429a6150)" style="fill: none; stroke: #937860; stroke-opacity: 0.9; stroke-width: 3; stroke-linecap: round"/>
   </g>
   <g id="patch_12">
    <path d="M 189.250488 373.284 
L 189.250488 271.128 
" style="fill: none; stroke: #ffffff; stroke-width: 1.25; stroke-linejoin: miter; stroke-linecap: square"/>
   </g>
   <g id="patch_13">
    <path d="M 189.250488 373.284 
L 475.404752 373.284 
" style="fill: none; stroke: #ffffff; stroke-width: 1.25; stroke-linejoin: miter; stroke-linecap: square"/>
   </g>
   <g id="text_20">
    <!-- 0.85~365 -->
    <g style="fill: #262626" transform="translate(269.664276 265.128) scale(0.252 -0.252)">
     <use xlink:href="#DejaVuSans-30"/>
     <use xlink:href="#DejaVuSans-2e" x="63.623047"/>
     <use xlink:href="#DejaVuSans-38" x="95.410156"/>
     <use xlink:href="#DejaVuSans-35" x="159.033203"/>
     <use xlink:href="#DejaVuSans-7e" x="222.65625"/>
     <use xlink:href="#DejaVuSans-33" x="306.445312"/>
     <use xlink:href="#DejaVuSans-36" x="370.068359"/>
     <use xlink:href="#DejaVuSans-35" x="433.691406"/>
    </g>
   </g>
  </g>
  <g id="axes_5">
   <g id="patch_14">
    <path d="M 501.852899 373.284 
L 788.007162 373.284 
L 788.007162 271.128 
L 501.852899 271.128 
z
" style="fill: #eaeaf2"/>
   </g>
   <g id="matplotlib.axis_9">
    <g id="xtick_17">
     <g id="line2d_49">
      <path d="M 514.859911 373.284 
L 514.859911 271.128 
" clip-path="url(#p42ef6062fb)" style="fill: none; stroke: #ffffff; stroke-linecap: round"/>
     </g>
     <g id="text_21">
      <!-- 0 -->
      <g style="fill: #262626" transform="translate(507.511224 400.336391) scale(0.231 -0.231)">
       <use xlink:href="#DejaVuSans-30"/>
      </g>
     </g>
    </g>
    <g id="xtick_18">
     <g id="line2d_50">
      <path d="M 604.071241 373.284 
L 604.071241 271.128 
" clip-path="url(#p42ef6062fb)" style="fill: none; stroke: #ffffff; stroke-linecap: round"/>
     </g>
     <g id="text_22">
      <!-- 250 -->
      <g style="fill: #262626" transform="translate(582.025179 400.336391) scale(0.231 -0.231)">
       <use xlink:href="#DejaVuSans-32"/>
       <use xlink:href="#DejaVuSans-35" x="63.623047"/>
       <use xlink:href="#DejaVuSans-30" x="127.246094"/>
      </g>
     </g>
    </g>
    <g id="xtick_19">
     <g id="line2d_51">
      <path d="M 693.282572 373.284 
L 693.282572 271.128 
" clip-path="url(#p42ef6062fb)" style="fill: none; stroke: #ffffff; stroke-linecap: round"/>
     </g>
     <g id="text_23">
      <!-- 500 -->
      <g style="fill: #262626" transform="translate(671.236509 400.336391) scale(0.231 -0.231)">
       <use xlink:href="#DejaVuSans-35"/>
       <use xlink:href="#DejaVuSans-30" x="63.623047"/>
       <use xlink:href="#DejaVuSans-30" x="127.246094"/>
      </g>
     </g>
    </g>
    <g id="xtick_20">
     <g id="line2d_52">
      <path d="M 782.493902 373.284 
L 782.493902 271.128 
" clip-path="url(#p42ef6062fb)" style="fill: none; stroke: #ffffff; stroke-linecap: round"/>
     </g>
     <g id="text_24">
      <!-- 750 -->
      <g style="fill: #262626" transform="translate(760.44784 400.336391) scale(0.231 -0.231)">
       <use xlink:href="#DejaVuSans-37"/>
       <use xlink:href="#DejaVuSans-35" x="63.623047"/>
       <use xlink:href="#DejaVuSans-30" x="127.246094"/>
      </g>
     </g>
    </g>
    <g id="text_25">
     <!-- step -->
     <g style="fill: #262626" transform="translate(617.674656 428.288531) scale(0.252 -0.252)">
      <use xlink:href="#DejaVuSans-73"/>
      <use xlink:href="#DejaVuSans-74" x="52.099609"/>
      <use xlink:href="#DejaVuSans-65" x="91.308594"/>
      <use xlink:href="#DejaVuSans-70" x="152.832031"/>
     </g>
    </g>
   </g>
   <g id="matplotlib.axis_10">
    <g id="ytick_9">
     <g id="line2d_53">
      <path d="M 501.852899 359.610537 
L 788.007162 359.610537 
" clip-path="url(#p42ef6062fb)" style="fill: none; stroke: #ffffff; stroke-linecap: round"/>
     </g>
    </g>
    <g id="ytick_10">
     <g id="line2d_54">
      <path d="M 501.852899 303.348789 
L 788.007162 303.348789 
" clip-path="url(#p42ef6062fb)" style="fill: none; stroke: #ffffff; stroke-linecap: round"/>
     </g>
    </g>
   </g>
   <g id="PolyCollection_25"/>
   <g id="PolyCollection_26"/>
   <g id="PolyCollection_27"/>
   <g id="PolyCollection_28"/>
   <g id="PolyCollection_29"/>
   <g id="PolyCollection_30"/>
   <g id="line2d_55">
    <path d="M 514.859911 303.348789 
L 526.992652 308.984347 
L 533.059022 311.434401 
L 539.125393 313.648596 
L 545.191763 315.630486 
L 551.258134 317.383634 
L 557.68135 318.998799 
L 564.104565 320.376524 
L 570.527781 321.523285 
L 576.950997 322.44618 
L 583.374213 323.152701 
L 590.154274 323.672257 
L 596.934335 323.968538 
L 604.071241 324.049217 
L 611.208148 323.90316 
L 618.345054 323.541132 
L 625.838806 322.940282 
L 633.689403 322.081253 
L 641.54 321.000996 
L 649.747443 319.65015 
L 658.31173 318.015917 
L 667.232863 316.088262 
L 676.510842 313.860126 
L 686.502511 311.229858 
L 698.992097 307.68535 
L 718.975435 301.77373 
L 741.45669 294.885053 
L 775.000151 284.52925 
L 775.000151 284.52925 
" clip-path="url(#p42ef6062fb)" style="fill: none; stroke: #4c72b0; stroke-opacity: 0.9; stroke-width: 3; stroke-linecap: round"/>
   </g>
   <g id="line2d_56">
    <path d="M 514.859911 303.348789 
L 529.133724 309.799134 
L 535.55694 312.303635 
L 541.980156 314.581201 
L 548.760217 316.74465 
L 555.540278 318.666235 
L 562.320339 320.352815 
L 569.1004 321.816576 
L 576.237306 323.124357 
L 583.374213 324.200983 
L 590.511119 325.055075 
L 598.004871 325.722212 
L 605.498623 326.164198 
L 613.34922 326.396792 
L 621.199817 326.405001 
L 629.407259 326.18567 
L 637.614702 325.74526 
L 646.178989 325.062504 
L 655.100122 324.122749 
L 664.378101 322.91364 
L 674.012924 321.425376 
L 684.004594 319.650907 
L 695.066798 317.44797 
L 711.481683 313.93489 
L 728.610259 310.035325 
L 746.80937 305.660299 
L 772.859079 299.129118 
L 775.000151 298.586375 
L 775.000151 298.586375 
" clip-path="url(#p42ef6062fb)" style="fill: none; stroke: #dd8452; stroke-opacity: 0.9; stroke-width: 3; stroke-linecap: round"/>
   </g>
   <g id="line2d_57">
    <path d="M 514.859911 303.348789 
L 519.142055 305.601154 
L 524.494735 308.294125 
L 530.561105 311.098418 
L 536.984321 313.812894 
L 545.191763 317.026027 
L 559.822422 322.488596 
L 585.158439 331.731173 
L 592.652191 334.180879 
L 599.075407 336.061872 
L 605.141777 337.61719 
L 611.208148 338.943409 
L 617.274518 340.044475 
L 623.340889 340.927153 
L 629.764105 341.630923 
L 636.544166 342.145192 
L 644.037917 342.487729 
L 651.888515 342.613297 
L 659.739112 342.515718 
L 667.946554 342.185702 
L 676.510842 341.613523 
L 685.431975 340.790825 
L 694.709953 339.707926 
L 704.344777 338.358618 
L 715.050136 336.625755 
L 726.826032 334.484719 
L 740.386154 331.792452 
L 754.659967 328.731151 
L 769.290625 325.35992 
L 775.000151 323.983023 
L 775.000151 323.983023 
" clip-path="url(#p42ef6062fb)" style="fill: none; stroke: #55a868; stroke-opacity: 0.9; stroke-width: 3; stroke-linecap: round"/>
   </g>
   <g id="line2d_58">
    <path d="M 514.859911 303.348789 
L 519.142055 305.529185 
L 524.85158 308.307412 
L 530.917951 311.016052 
L 538.054857 313.946322 
L 554.112896 320.39953 
L 561.249803 323.585305 
L 569.457245 327.514753 
L 593.365882 339.146002 
L 600.502788 342.27345 
L 606.926004 344.838564 
L 612.635529 346.884307 
L 617.988209 348.578318 
L 623.340889 350.041479 
L 628.693569 351.262967 
L 634.046248 352.242795 
L 639.042083 352.938354 
L 644.751608 353.499852 
L 650.461133 353.844337 
L 656.527504 353.987798 
L 662.593874 353.909339 
L 669.373935 353.587708 
L 677.581378 352.95232 
L 686.859356 352.008747 
L 696.49418 350.796256 
L 707.199539 349.210282 
L 720.045971 347.073971 
L 733.606093 344.591353 
L 747.879906 341.745505 
L 763.224255 338.464013 
L 775.000151 335.792471 
L 775.000151 335.792471 
" clip-path="url(#p42ef6062fb)" style="fill: none; stroke: #c44e52; stroke-opacity: 0.9; stroke-width: 3; stroke-linecap: round"/>
   </g>
   <g id="line2d_59">
    <path d="M 514.859911 303.348789 
L 528.776879 310.072817 
L 534.486404 312.438082 
L 540.195929 314.570427 
L 545.905454 316.474058 
L 551.971825 318.258636 
L 558.038195 319.806573 
L 564.104565 321.122124 
L 570.170936 322.210055 
L 576.237306 323.075539 
L 582.303677 323.72417 
L 588.726893 324.181039 
L 595.150108 324.408823 
L 601.573324 324.416147 
L 608.353385 324.192927 
L 615.133446 323.74128 
L 621.913508 323.071017 
L 629.050414 322.139594 
L 636.18732 320.987211 
L 643.681072 319.551735 
L 651.531669 317.814581 
L 659.739112 315.76002 
L 668.303399 313.375646 
L 677.224532 310.652857 
L 686.502511 307.587313 
L 696.851025 303.928382 
L 720.402816 295.285345 
L 756.087348 282.233111 
L 769.647471 277.554197 
L 775.000151 275.771455 
L 775.000151 275.771455 
" clip-path="url(#p42ef6062fb)" style="fill: none; stroke: #8172b3; stroke-opacity: 0.9; stroke-width: 3; stroke-linecap: round"/>
   </g>
   <g id="line2d_60">
    <path d="M 514.859911 303.348789 
L 528.776879 309.901908 
L 534.843249 312.375907 
L 540.90962 314.614939 
L 546.97599 316.625877 
L 553.399206 318.514653 
L 559.822422 320.166342 
L 566.245637 321.586041 
L 572.668853 322.779267 
L 579.092069 323.752011 
L 585.87213 324.546299 
L 592.652191 325.109006 
L 599.432252 325.447642 
L 606.212313 325.571226 
L 613.34922 325.478424 
L 620.486126 325.166095 
L 627.979878 324.611992 
L 635.47363 323.836821 
L 643.324227 322.799599 
L 651.531669 321.482777 
L 659.739112 319.943218 
L 668.303399 318.115819 
L 677.581378 315.901659 
L 687.216201 313.367611 
L 697.921561 310.313122 
L 716.477518 304.767418 
L 752.875741 293.592742 
L 769.290625 288.66579 
L 775.000151 287.029346 
L 775.000151 287.029346 
" clip-path="url(#p42ef6062fb)" style="fill: none; stroke: #937860; stroke-opacity: 0.9; stroke-width: 3; stroke-linecap: round"/>
   </g>
   <g id="patch_15">
    <path d="M 501.852899 373.284 
L 501.852899 271.128 
" style="fill: none; stroke: #ffffff; stroke-width: 1.25; stroke-linejoin: miter; stroke-linecap: square"/>
   </g>
   <g id="patch_16">
    <path d="M 501.852899 373.284 
L 788.007162 373.284 
" style="fill: none; stroke: #ffffff; stroke-width: 1.25; stroke-linejoin: miter; stroke-linecap: square"/>
   </g>
   <g id="text_26">
    <!-- 0.95~90 -->
    <g style="fill: #262626" transform="translate(590.283437 265.128) scale(0.252 -0.252)">
     <use xlink:href="#DejaVuSans-30"/>
     <use xlink:href="#DejaVuSans-2e" x="63.623047"/>
     <use xlink:href="#DejaVuSans-39" x="95.410156"/>
     <use xlink:href="#DejaVuSans-35" x="159.033203"/>
     <use xlink:href="#DejaVuSans-7e" x="222.65625"/>
     <use xlink:href="#DejaVuSans-39" x="306.445312"/>
     <use xlink:href="#DejaVuSans-30" x="370.068359"/>
    </g>
   </g>
  </g>
  <g id="text_27">
   <!-- Production change from pre-shock level -->
   <g style="fill: #262626" transform="translate(280.766836 30.177675) scale(0.3024 -0.3024)">
    <defs>
     <path id="DejaVuSans-50" d="M 1259 4147 
L 1259 2394 
L 2053 2394 
Q 2494 2394 2734 2622 
Q 2975 2850 2975 3272 
Q 2975 3691 2734 3919 
Q 2494 4147 2053 4147 
L 1259 4147 
z
M 628 4666 
L 2053 4666 
Q 2838 4666 3239 4311 
Q 3641 3956 3641 3272 
Q 3641 2581 3239 2228 
Q 2838 1875 2053 1875 
L 1259 1875 
L 1259 0 
L 628 0 
L 628 4666 
z
" transform="scale(0.015625)"/>
     <path id="DejaVuSans-72" d="M 2631 2963 
Q 2534 3019 2420 3045 
Q 2306 3072 2169 3072 
Q 1681 3072 1420 2755 
Q 1159 2438 1159 1844 
L 1159 0 
L 581 0 
L 581 3500 
L 1159 3500 
L 1159 2956 
Q 1341 3275 1631 3429 
Q 1922 3584 2338 3584 
Q 2397 3584 2469 3576 
Q 2541 3569 2628 3553 
L 2631 2963 
z
" transform="scale(0.015625)"/>
     <path id="DejaVuSans-6f" d="M 1959 3097 
Q 1497 3097 1228 2736 
Q 959 2375 959 1747 
Q 959 1119 1226 758 
Q 1494 397 1959 397 
Q 2419 397 2687 759 
Q 2956 1122 2956 1747 
Q 2956 2369 2687 2733 
Q 2419 3097 1959 3097 
z
M 1959 3584 
Q 2709 3584 3137 3096 
Q 3566 2609 3566 1747 
Q 3566 888 3137 398 
Q 2709 -91 1959 -91 
Q 1206 -91 779 398 
Q 353 888 353 1747 
Q 353 2609 779 3096 
Q 1206 3584 1959 3584 
z
" transform="scale(0.015625)"/>
     <path id="DejaVuSans-64" d="M 2906 2969 
L 2906 4863 
L 3481 4863 
L 3481 0 
L 2906 0 
L 2906 525 
Q 2725 213 2448 61 
Q 2172 -91 1784 -91 
Q 1150 -91 751 415 
Q 353 922 353 1747 
Q 353 2572 751 3078 
Q 1150 3584 1784 3584 
Q 2172 3584 2448 3432 
Q 2725 3281 2906 2969 
z
M 947 1747 
Q 947 1113 1208 752 
Q 1469 391 1925 391 
Q 2381 391 2643 752 
Q 2906 1113 2906 1747 
Q 2906 2381 2643 2742 
Q 2381 3103 1925 3103 
Q 1469 3103 1208 2742 
Q 947 2381 947 1747 
z
" transform="scale(0.015625)"/>
     <path id="DejaVuSans-75" d="M 544 1381 
L 544 3500 
L 1119 3500 
L 1119 1403 
Q 1119 906 1312 657 
Q 1506 409 1894 409 
Q 2359 409 2629 706 
Q 2900 1003 2900 1516 
L 2900 3500 
L 3475 3500 
L 3475 0 
L 2900 0 
L 2900 538 
Q 2691 219 2414 64 
Q 2138 -91 1772 -91 
Q 1169 -91 856 284 
Q 544 659 544 1381 
z
M 1991 3584 
L 1991 3584 
z
" transform="scale(0.015625)"/>
     <path id="DejaVuSans-69" d="M 603 3500 
L 1178 3500 
L 1178 0 
L 603 0 
L 603 3500 
z
M 603 4863 
L 1178 4863 
L 1178 4134 
L 603 4134 
L 603 4863 
z
" transform="scale(0.015625)"/>
     <path id="DejaVuSans-66" d="M 2375 4863 
L 2375 4384 
L 1825 4384 
Q 1516 4384 1395 4259 
Q 1275 4134 1275 3809 
L 1275 3500 
L 2222 3500 
L 2222 3053 
L 1275 3053 
L 1275 0 
L 697 0 
L 697 3053 
L 147 3053 
L 147 3500 
L 697 3500 
L 697 3744 
Q 697 4328 969 4595 
Q 1241 4863 1831 4863 
L 2375 4863 
z
" transform="scale(0.015625)"/>
     <path id="DejaVuSans-6d" d="M 3328 2828 
Q 3544 3216 3844 3400 
Q 4144 3584 4550 3584 
Q 5097 3584 5394 3201 
Q 5691 2819 5691 2113 
L 5691 0 
L 5113 0 
L 5113 2094 
Q 5113 2597 4934 2840 
Q 4756 3084 4391 3084 
Q 3944 3084 3684 2787 
Q 3425 2491 3425 1978 
L 3425 0 
L 2847 0 
L 2847 2094 
Q 2847 2600 2669 2842 
Q 2491 3084 2119 3084 
Q 1678 3084 1418 2786 
Q 1159 2488 1159 1978 
L 1159 0 
L 581 0 
L 581 3500 
L 1159 3500 
L 1159 2956 
Q 1356 3278 1631 3431 
Q 1906 3584 2284 3584 
Q 2666 3584 2933 3390 
Q 3200 3197 3328 2828 
z
" transform="scale(0.015625)"/>
     <path id="DejaVuSans-2d" d="M 313 2009 
L 1997 2009 
L 1997 1497 
L 313 1497 
L 313 2009 
z
" transform="scale(0.015625)"/>
     <path id="DejaVuSans-6b" d="M 581 4863 
L 1159 4863 
L 1159 1991 
L 2875 3500 
L 3609 3500 
L 1753 1863 
L 3688 0 
L 2938 0 
L 1159 1709 
L 1159 0 
L 581 0 
L 581 4863 
z
" transform="scale(0.015625)"/>
     <path id="DejaVuSans-6c" d="M 603 4863 
L 1178 4863 
L 1178 0 
L 603 0 
L 603 4863 
z
" transform="scale(0.015625)"/>
     <path id="DejaVuSans-76" d="M 191 3500 
L 800 3500 
L 1894 563 
L 2988 3500 
L 3597 3500 
L 2284 0 
L 1503 0 
L 191 3500 
z
" transform="scale(0.015625)"/>
    </defs>
    <use xlink:href="#DejaVuSans-50"/>
    <use xlink:href="#DejaVuSans-72" x="58.552734"/>
    <use xlink:href="#DejaVuSans-6f" x="97.416016"/>
    <use xlink:href="#DejaVuSans-64" x="158.597656"/>
    <use xlink:href="#DejaVuSans-75" x="222.074219"/>
    <use xlink:href="#DejaVuSans-63" x="285.453125"/>
    <use xlink:href="#DejaVuSans-74" x="340.433594"/>
    <use xlink:href="#DejaVuSans-69" x="379.642578"/>
    <use xlink:href="#DejaVuSans-6f" x="407.425781"/>
    <use xlink:href="#DejaVuSans-6e" x="468.607422"/>
    <use xlink:href="#DejaVuSans-20" x="531.986328"/>
    <use xlink:href="#DejaVuSans-63" x="563.773438"/>
    <use xlink:href="#DejaVuSans-68" x="618.753906"/>
    <use xlink:href="#DejaVuSans-61" x="682.132812"/>
    <use xlink:href="#DejaVuSans-6e" x="743.412109"/>
    <use xlink:href="#DejaVuSans-67" x="806.791016"/>
    <use xlink:href="#DejaVuSans-65" x="870.267578"/>
    <use xlink:href="#DejaVuSans-20" x="931.791016"/>
    <use xlink:href="#DejaVuSans-66" x="963.578125"/>
    <use xlink:href="#DejaVuSans-72" x="998.783203"/>
    <use xlink:href="#DejaVuSans-6f" x="1037.646484"/>
    <use xlink:href="#DejaVuSans-6d" x="1098.828125"/>
    <use xlink:href="#DejaVuSans-20" x="1196.240234"/>
    <use xlink:href="#DejaVuSans-70" x="1228.027344"/>
    <use xlink:href="#DejaVuSans-72" x="1291.503906"/>
    <use xlink:href="#DejaVuSans-65" x="1330.367188"/>
    <use xlink:href="#DejaVuSans-2d" x="1391.890625"/>
    <use xlink:href="#DejaVuSans-73" x="1427.974609"/>
    <use xlink:href="#DejaVuSans-68" x="1480.074219"/>
    <use xlink:href="#DejaVuSans-6f" x="1543.453125"/>
    <use xlink:href="#DejaVuSans-63" x="1604.634766"/>
    <use xlink:href="#DejaVuSans-6b" x="1659.615234"/>
    <use xlink:href="#DejaVuSans-20" x="1717.525391"/>
    <use xlink:href="#DejaVuSans-6c" x="1749.3125"/>
    <use xlink:href="#DejaVuSans-65" x="1777.095703"/>
    <use xlink:href="#DejaVuSans-76" x="1838.619141"/>
    <use xlink:href="#DejaVuSans-65" x="1897.798828"/>
    <use xlink:href="#DejaVuSans-6c" x="1959.322266"/>
   </g>
  </g>
  <g id="legend_1">
   <g id="patch_17">
    <path d="M 11.82 584.31675 
L 1292.617547 584.31675 
Q 1297.237547 584.31675 1297.237547 579.69675 
L 1297.237547 476.97 
Q 1297.237547 472.35 1292.617547 472.35 
L 11.82 472.35 
Q 7.2 472.35 7.2 476.97 
L 7.2 579.69675 
Q 7.2 584.31675 11.82 584.31675 
z
" style="fill: #eaeaf2; opacity: 0.8; stroke: #cccccc; stroke-linejoin: miter"/>
   </g>
   <g id="text_28">
    <!-- Experiences -->
    <g style="fill: #262626" transform="translate(575.384367 500.738062) scale(0.252 -0.252)">
     <defs>
      <path id="DejaVuSans-45" d="M 628 4666 
L 3578 4666 
L 3578 4134 
L 1259 4134 
L 1259 2753 
L 3481 2753 
L 3481 2222 
L 1259 2222 
L 1259 531 
L 3634 531 
L 3634 0 
L 628 0 
L 628 4666 
z
" transform="scale(0.015625)"/>
      <path id="DejaVuSans-78" d="M 3513 3500 
L 2247 1797 
L 3578 0 
L 2900 0 
L 1881 1375 
L 863 0 
L 184 0 
L 1544 1831 
L 300 3500 
L 978 3500 
L 1906 2253 
L 2834 3500 
L 3513 3500 
z
" transform="scale(0.015625)"/>
     </defs>
     <use xlink:href="#DejaVuSans-45"/>
     <use xlink:href="#DejaVuSans-78" x="63.183594"/>
     <use xlink:href="#DejaVuSans-70" x="122.363281"/>
     <use xlink:href="#DejaVuSans-65" x="185.839844"/>
     <use xlink:href="#DejaVuSans-72" x="247.363281"/>
     <use xlink:href="#DejaVuSans-69" x="288.476562"/>
     <use xlink:href="#DejaVuSans-65" x="316.259766"/>
     <use xlink:href="#DejaVuSans-6e" x="377.783203"/>
     <use xlink:href="#DejaVuSans-63" x="441.162109"/>
     <use xlink:href="#DejaVuSans-65" x="496.142578"/>
     <use xlink:href="#DejaVuSans-73" x="557.666016"/>
    </g>
   </g>
   <g id="line2d_61">
    <path d="M 16.44 526.996266 
L 39.54 526.996266 
L 62.64 526.996266 
" style="fill: none; stroke: #4c72b0; stroke-opacity: 0.9; stroke-width: 3; stroke-linecap: round"/>
   </g>
   <g id="text_29">
    <!-- eora26_full_2000 -->
    <g style="fill: #262626" transform="translate(81.12 535.081266) scale(0.231 -0.231)">
     <defs>
      <path id="DejaVuSans-5f" d="M 3263 -1063 
L 3263 -1509 
L -63 -1509 
L -63 -1063 
L 3263 -1063 
z
" transform="scale(0.015625)"/>
     </defs>
     <use xlink:href="#DejaVuSans-65"/>
     <use xlink:href="#DejaVuSans-6f" x="61.523438"/>
     <use xlink:href="#DejaVuSans-72" x="122.705078"/>
     <use xlink:href="#DejaVuSans-61" x="163.818359"/>
     <use xlink:href="#DejaVuSans-32" x="225.097656"/>
     <use xlink:href="#DejaVuSans-36" x="288.720703"/>
     <use xlink:href="#DejaVuSans-5f" x="352.34375"/>
     <use xlink:href="#DejaVuSans-66" x="402.34375"/>
     <use xlink:href="#DejaVuSans-75" x="437.548828"/>
     <use xlink:href="#DejaVuSans-6c" x="500.927734"/>
     <use xlink:href="#DejaVuSans-6c" x="528.710938"/>
     <use xlink:href="#DejaVuSans-5f" x="556.494141"/>
     <use xlink:href="#DejaVuSans-32" x="606.494141"/>
     <use xlink:href="#DejaVuSans-30" x="670.117188"/>
     <use xlink:href="#DejaVuSans-30" x="733.740234"/>
     <use xlink:href="#DejaVuSans-30" x="797.363281"/>
    </g>
   </g>
   <g id="line2d_62">
    <path d="M 16.44 561.545203 
L 39.54 561.545203 
L 62.64 561.545203 
" style="fill: none; stroke: #dd8452; stroke-opacity: 0.9; stroke-width: 3; stroke-linecap: round"/>
   </g>
   <g id="text_30">
    <!-- eora26_full_2010 -->
    <g style="fill: #262626" transform="translate(81.12 569.630203) scale(0.231 -0.231)">
     <defs>
      <path id="DejaVuSans-31" d="M 794 531 
L 1825 531 
L 1825 4091 
L 703 3866 
L 703 4441 
L 1819 4666 
L 2450 4666 
L 2450 531 
L 3481 531 
L 3481 0 
L 794 0 
L 794 531 
z
" transform="scale(0.015625)"/>
     </defs>
     <use xlink:href="#DejaVuSans-65"/>
     <use xlink:href="#DejaVuSans-6f" x="61.523438"/>
     <use xlink:href="#DejaVuSans-72" x="122.705078"/>
     <use xlink:href="#DejaVuSans-61" x="163.818359"/>
     <use xlink:href="#DejaVuSans-32" x="225.097656"/>
     <use xlink:href="#DejaVuSans-36" x="288.720703"/>
     <use xlink:href="#DejaVuSans-5f" x="352.34375"/>
     <use xlink:href="#DejaVuSans-66" x="402.34375"/>
     <use xlink:href="#DejaVuSans-75" x="437.548828"/>
     <use xlink:href="#DejaVuSans-6c" x="500.927734"/>
     <use xlink:href="#DejaVuSans-6c" x="528.710938"/>
     <use xlink:href="#DejaVuSans-5f" x="556.494141"/>
     <use xlink:href="#DejaVuSans-32" x="606.494141"/>
     <use xlink:href="#DejaVuSans-30" x="670.117188"/>
     <use xlink:href="#DejaVuSans-31" x="733.740234"/>
     <use xlink:href="#DejaVuSans-30" x="797.363281"/>
    </g>
   </g>
   <g id="line2d_63">
    <path d="M 326.211 526.996266 
L 349.311 526.996266 
L 372.411 526.996266 
" style="fill: none; stroke: #55a868; stroke-opacity: 0.9; stroke-width: 3; stroke-linecap: round"/>
   </g>
   <g id="text_31">
    <!-- euregio_full_2000 -->
    <g style="fill: #262626" transform="translate(390.891 535.081266) scale(0.231 -0.231)">
     <use xlink:href="#DejaVuSans-65"/>
     <use xlink:href="#DejaVuSans-75" x="61.523438"/>
     <use xlink:href="#DejaVuSans-72" x="124.902344"/>
     <use xlink:href="#DejaVuSans-65" x="163.765625"/>
     <use xlink:href="#DejaVuSans-67" x="225.289062"/>
     <use xlink:href="#DejaVuSans-69" x="288.765625"/>
     <use xlink:href="#DejaVuSans-6f" x="316.548828"/>
     <use xlink:href="#DejaVuSans-5f" x="377.730469"/>
     <use xlink:href="#DejaVuSans-66" x="427.730469"/>
     <use xlink:href="#DejaVuSans-75" x="462.935547"/>
     <use xlink:href="#DejaVuSans-6c" x="526.314453"/>
     <use xlink:href="#DejaVuSans-6c" x="554.097656"/>
     <use xlink:href="#DejaVuSans-5f" x="581.880859"/>
     <use xlink:href="#DejaVuSans-32" x="631.880859"/>
     <use xlink:href="#DejaVuSans-30" x="695.503906"/>
     <use xlink:href="#DejaVuSans-30" x="759.126953"/>
     <use xlink:href="#DejaVuSans-30" x="822.75"/>
    </g>
   </g>
   <g id="line2d_64">
    <path d="M 326.211 561.545203 
L 349.311 561.545203 
L 372.411 561.545203 
" style="fill: none; stroke: #c44e52; stroke-opacity: 0.9; stroke-width: 3; stroke-linecap: round"/>
   </g>
   <g id="text_32">
    <!-- euregio_full_2010 -->
    <g style="fill: #262626" transform="translate(390.891 569.630203) scale(0.231 -0.231)">
     <use xlink:href="#DejaVuSans-65"/>
     <use xlink:href="#DejaVuSans-75" x="61.523438"/>
     <use xlink:href="#DejaVuSans-72" x="124.902344"/>
     <use xlink:href="#DejaVuSans-65" x="163.765625"/>
     <use xlink:href="#DejaVuSans-67" x="225.289062"/>
     <use xlink:href="#DejaVuSans-69" x="288.765625"/>
     <use xlink:href="#DejaVuSans-6f" x="316.548828"/>
     <use xlink:href="#DejaVuSans-5f" x="377.730469"/>
     <use xlink:href="#DejaVuSans-66" x="427.730469"/>
     <use xlink:href="#DejaVuSans-75" x="462.935547"/>
     <use xlink:href="#DejaVuSans-6c" x="526.314453"/>
     <use xlink:href="#DejaVuSans-6c" x="554.097656"/>
     <use xlink:href="#DejaVuSans-5f" x="581.880859"/>
     <use xlink:href="#DejaVuSans-32" x="631.880859"/>
     <use xlink:href="#DejaVuSans-30" x="695.503906"/>
     <use xlink:href="#DejaVuSans-31" x="759.126953"/>
     <use xlink:href="#DejaVuSans-30" x="822.75"/>
    </g>
   </g>
   <g id="line2d_65">
    <path d="M 641.847234 526.996266 
L 664.947234 526.996266 
L 688.047234 526.996266 
" style="fill: none; stroke: #8172b3; stroke-opacity: 0.9; stroke-width: 3; stroke-linecap: round"/>
   </g>
   <g id="text_33">
    <!-- exiobase3_full_2000 -->
    <g style="fill: #262626" transform="translate(706.527234 535.081266) scale(0.231 -0.231)">
     <defs>
      <path id="DejaVuSans-62" d="M 3116 1747 
Q 3116 2381 2855 2742 
Q 2594 3103 2138 3103 
Q 1681 3103 1420 2742 
Q 1159 2381 1159 1747 
Q 1159 1113 1420 752 
Q 1681 391 2138 391 
Q 2594 391 2855 752 
Q 3116 1113 3116 1747 
z
M 1159 2969 
Q 1341 3281 1617 3432 
Q 1894 3584 2278 3584 
Q 2916 3584 3314 3078 
Q 3713 2572 3713 1747 
Q 3713 922 3314 415 
Q 2916 -91 2278 -91 
Q 1894 -91 1617 61 
Q 1341 213 1159 525 
L 1159 0 
L 581 0 
L 581 4863 
L 1159 4863 
L 1159 2969 
z
" transform="scale(0.015625)"/>
     </defs>
     <use xlink:href="#DejaVuSans-65"/>
     <use xlink:href="#DejaVuSans-78" x="59.773438"/>
     <use xlink:href="#DejaVuSans-69" x="118.953125"/>
     <use xlink:href="#DejaVuSans-6f" x="146.736328"/>
     <use xlink:href="#DejaVuSans-62" x="207.917969"/>
     <use xlink:href="#DejaVuSans-61" x="271.394531"/>
     <use xlink:href="#DejaVuSans-73" x="332.673828"/>
     <use xlink:href="#DejaVuSans-65" x="384.773438"/>
     <use xlink:href="#DejaVuSans-33" x="446.296875"/>
     <use xlink:href="#DejaVuSans-5f" x="509.919922"/>
     <use xlink:href="#DejaVuSans-66" x="559.919922"/>
     <use xlink:href="#DejaVuSans-75" x="595.125"/>
     <use xlink:href="#DejaVuSans-6c" x="658.503906"/>
     <use xlink:href="#DejaVuSans-6c" x="686.287109"/>
     <use xlink:href="#DejaVuSans-5f" x="714.070312"/>
     <use xlink:href="#DejaVuSans-32" x="764.070312"/>
     <use xlink:href="#DejaVuSans-30" x="827.693359"/>
     <use xlink:href="#DejaVuSans-30" x="891.316406"/>
     <use xlink:href="#DejaVuSans-30" x="954.939453"/>
    </g>
   </g>
   <g id="line2d_66">
    <path d="M 988.022391 526.996266 
L 1011.122391 526.996266 
L 1034.222391 526.996266 
" style="fill: none; stroke: #937860; stroke-opacity: 0.9; stroke-width: 3; stroke-linecap: round"/>
   </g>
   <g id="text_34">
    <!-- exiobase3_full_2010 -->
    <g style="fill: #262626" transform="translate(1052.702391 535.081266) scale(0.231 -0.231)">
     <use xlink:href="#DejaVuSans-65"/>
     <use xlink:href="#DejaVuSans-78" x="59.773438"/>
     <use xlink:href="#DejaVuSans-69" x="118.953125"/>
     <use xlink:href="#DejaVuSans-6f" x="146.736328"/>
     <use xlink:href="#DejaVuSans-62" x="207.917969"/>
     <use xlink:href="#DejaVuSans-61" x="271.394531"/>
     <use xlink:href="#DejaVuSans-73" x="332.673828"/>
     <use xlink:href="#DejaVuSans-65" x="384.773438"/>
     <use xlink:href="#DejaVuSans-33" x="446.296875"/>
     <use xlink:href="#DejaVuSans-5f" x="509.919922"/>
     <use xlink:href="#DejaVuSans-66" x="559.919922"/>
     <use xlink:href="#DejaVuSans-75" x="595.125"/>
     <use xlink:href="#DejaVuSans-6c" x="658.503906"/>
     <use xlink:href="#DejaVuSans-6c" x="686.287109"/>
     <use xlink:href="#DejaVuSans-5f" x="714.070312"/>
     <use xlink:href="#DejaVuSans-32" x="764.070312"/>
     <use xlink:href="#DejaVuSans-30" x="827.693359"/>
     <use xlink:href="#DejaVuSans-31" x="891.316406"/>
     <use xlink:href="#DejaVuSans-30" x="954.939453"/>
    </g>
   </g>
  </g>
 </g>
 <defs>
  <clipPath id="p9718288a39">
   <rect x="189.250488" y="81.456" width="286.154263" height="102.156"/>
  </clipPath>
  <clipPath id="pa62f4da0cf">
   <rect x="501.852899" y="81.456" width="286.154263" height="102.156"/>
  </clipPath>
  <clipPath id="pb5ec211572">
   <rect x="814.45531" y="81.456" width="286.154263" height="102.156"/>
  </clipPath>
  <clipPath id="pbf429a6150">
   <rect x="189.250488" y="271.128" width="286.154263" height="102.156"/>
  </clipPath>
  <clipPath id="p42ef6062fb">
   <rect x="501.852899" y="271.128" width="286.154263" height="102.156"/>
  </clipPath>
 </defs>
</svg>
