<?xml version="1.0" encoding="utf-8" standalone="no"?>
<!DOCTYPE svg PUBLIC "-//W3C//DTD SVG 1.1//EN"
  "http://www.w3.org/Graphics/SVG/1.1/DTD/svg11.dtd">
<svg xmlns:xlink="http://www.w3.org/1999/xlink" width="1304.437547pt" height="591.51675pt" viewBox="0 0 1304.437547 591.51675" xmlns="http://www.w3.org/2000/svg" version="1.1">
 <metadata>
  <rdf:RDF xmlns:dc="http://purl.org/dc/elements/1.1/" xmlns:cc="http://creativecommons.org/ns#" xmlns:rdf="http://www.w3.org/1999/02/22-rdf-syntax-ns#">
   <cc:Work>
    <dc:type rdf:resource="http://purl.org/dc/dcmitype/StillImage"/>
    <dc:date>2023-04-28T12:10:01.302745</dc:date>
    <dc:format>image/svg+xml</dc:format>
    <dc:creator>
     <cc:Agent>
      <dc:title>Matplotlib v3.7.1, https://matplotlib.org/</dc:title>
     </cc:Agent>
    </dc:creator>
   </cc:Work>
  </rdf:RDF>
 </metadata>
 <defs>
  <style type="text/css">*{stroke-linejoin: round; stroke-linecap: butt}</style>
 </defs>
 <g id="figure_1">
  <g id="patch_1">
   <path d="M 0 591.51675 
L 1304.437547 591.51675 
L 1304.437547 -0 
L 0 -0 
z
" style="fill: #ffffff"/>
  </g>
  <g id="axes_1">
   <g id="patch_2">
    <path d="M 189.250488 183.612 
L 475.404752 183.612 
L 475.404752 81.456 
L 189.250488 81.456 
z
" style="fill: #eaeaf2"/>
   </g>
   <g id="matplotlib.axis_1">
    <g id="xtick_1">
     <g id="line2d_1">
      <path d="M 202.2575 183.612 
L 202.2575 81.456 
" clip-path="url(#p16e585f2b3)" style="fill: none; stroke: #ffffff; stroke-linecap: round"/>
     </g>
    </g>
    <g id="xtick_2">
     <g id="line2d_2">
      <path d="M 291.468831 183.612 
L 291.468831 81.456 
" clip-path="url(#p16e585f2b3)" style="fill: none; stroke: #ffffff; stroke-linecap: round"/>
     </g>
    </g>
    <g id="xtick_3">
     <g id="line2d_3">
      <path d="M 380.680161 183.612 
L 380.680161 81.456 
" clip-path="url(#p16e585f2b3)" style="fill: none; stroke: #ffffff; stroke-linecap: round"/>
     </g>
    </g>
    <g id="xtick_4">
     <g id="line2d_4">
      <path d="M 469.891491 183.612 
L 469.891491 81.456 
" clip-path="url(#p16e585f2b3)" style="fill: none; stroke: #ffffff; stroke-linecap: round"/>
     </g>
    </g>
   </g>
   <g id="matplotlib.axis_2">
    <g id="ytick_1">
     <g id="line2d_5">
      <path d="M 189.250488 145.936055 
L 475.404752 145.936055 
" clip-path="url(#p16e585f2b3)" style="fill: none; stroke: #ffffff; stroke-linecap: round"/>
     </g>
     <g id="text_1">
      <!-- −0.05 -->
      <g style="fill: #262626" transform="translate(108.959816 154.71225) scale(0.231 -0.231)">
       <defs>
        <path id="DejaVuSans-2212" d="M 678 2272 
L 4684 2272 
L 4684 1741 
L 678 1741 
L 678 2272 
z
" transform="scale(0.015625)"/>
        <path id="DejaVuSans-30" d="M 2034 4250 
Q 1547 4250 1301 3770 
Q 1056 3291 1056 2328 
Q 1056 1369 1301 889 
Q 1547 409 2034 409 
Q 2525 409 2770 889 
Q 3016 1369 3016 2328 
Q 3016 3291 2770 3770 
Q 2525 4250 2034 4250 
z
M 2034 4750 
Q 2819 4750 3233 4129 
Q 3647 3509 3647 2328 
Q 3647 1150 3233 529 
Q 2819 -91 2034 -91 
Q 1250 -91 836 529 
Q 422 1150 422 2328 
Q 422 3509 836 4129 
Q 1250 4750 2034 4750 
z
" transform="scale(0.015625)"/>
        <path id="DejaVuSans-2e" d="M 684 794 
L 1344 794 
L 1344 0 
L 684 0 
L 684 794 
z
" transform="scale(0.015625)"/>
        <path id="DejaVuSans-35" d="M 691 4666 
L 3169 4666 
L 3169 4134 
L 1269 4134 
L 1269 2991 
Q 1406 3038 1543 3061 
Q 1681 3084 1819 3084 
Q 2600 3084 3056 2656 
Q 3513 2228 3513 1497 
Q 3513 744 3044 326 
Q 2575 -91 1722 -91 
Q 1428 -91 1123 -41 
Q 819 9 494 109 
L 494 744 
Q 775 591 1075 516 
Q 1375 441 1709 441 
Q 2250 441 2565 725 
Q 2881 1009 2881 1497 
Q 2881 1984 2565 2268 
Q 2250 2553 1709 2553 
Q 1456 2553 1204 2497 
Q 953 2441 691 2322 
L 691 4666 
z
" transform="scale(0.015625)"/>
       </defs>
       <use xlink:href="#DejaVuSans-2212"/>
       <use xlink:href="#DejaVuSans-30" x="83.789062"/>
       <use xlink:href="#DejaVuSans-2e" x="147.412109"/>
       <use xlink:href="#DejaVuSans-30" x="179.199219"/>
       <use xlink:href="#DejaVuSans-35" x="242.822266"/>
      </g>
     </g>
    </g>
    <g id="ytick_2">
     <g id="line2d_6">
      <path d="M 189.250488 86.099455 
L 475.404752 86.099455 
" clip-path="url(#p16e585f2b3)" style="fill: none; stroke: #ffffff; stroke-linecap: round"/>
     </g>
     <g id="text_2">
      <!-- 0.00 -->
      <g style="fill: #262626" transform="translate(128.316894 94.87565) scale(0.231 -0.231)">
       <use xlink:href="#DejaVuSans-30"/>
       <use xlink:href="#DejaVuSans-2e" x="63.623047"/>
       <use xlink:href="#DejaVuSans-30" x="95.410156"/>
       <use xlink:href="#DejaVuSans-30" x="159.033203"/>
      </g>
     </g>
    </g>
    <g id="text_3">
     <!-- % change -->
     <g style="fill: #262626" transform="translate(99.719004 194.882344) rotate(-90) scale(0.252 -0.252)">
      <defs>
       <path id="DejaVuSans-25" d="M 4653 2053 
Q 4381 2053 4226 1822 
Q 4072 1591 4072 1178 
Q 4072 772 4226 539 
Q 4381 306 4653 306 
Q 4919 306 5073 539 
Q 5228 772 5228 1178 
Q 5228 1588 5073 1820 
Q 4919 2053 4653 2053 
z
M 4653 2450 
Q 5147 2450 5437 2106 
Q 5728 1763 5728 1178 
Q 5728 594 5436 251 
Q 5144 -91 4653 -91 
Q 4153 -91 3862 251 
Q 3572 594 3572 1178 
Q 3572 1766 3864 2108 
Q 4156 2450 4653 2450 
z
M 1428 4353 
Q 1159 4353 1004 4120 
Q 850 3888 850 3481 
Q 850 3069 1003 2837 
Q 1156 2606 1428 2606 
Q 1700 2606 1854 2837 
Q 2009 3069 2009 3481 
Q 2009 3884 1853 4118 
Q 1697 4353 1428 4353 
z
M 4250 4750 
L 4750 4750 
L 1831 -91 
L 1331 -91 
L 4250 4750 
z
M 1428 4750 
Q 1922 4750 2215 4408 
Q 2509 4066 2509 3481 
Q 2509 2891 2217 2550 
Q 1925 2209 1428 2209 
Q 931 2209 642 2551 
Q 353 2894 353 3481 
Q 353 4063 643 4406 
Q 934 4750 1428 4750 
z
" transform="scale(0.015625)"/>
       <path id="DejaVuSans-20" transform="scale(0.015625)"/>
       <path id="DejaVuSans-63" d="M 3122 3366 
L 3122 2828 
Q 2878 2963 2633 3030 
Q 2388 3097 2138 3097 
Q 1578 3097 1268 2742 
Q 959 2388 959 1747 
Q 959 1106 1268 751 
Q 1578 397 2138 397 
Q 2388 397 2633 464 
Q 2878 531 3122 666 
L 3122 134 
Q 2881 22 2623 -34 
Q 2366 -91 2075 -91 
Q 1284 -91 818 406 
Q 353 903 353 1747 
Q 353 2603 823 3093 
Q 1294 3584 2113 3584 
Q 2378 3584 2631 3529 
Q 2884 3475 3122 3366 
z
" transform="scale(0.015625)"/>
       <path id="DejaVuSans-68" d="M 3513 2113 
L 3513 0 
L 2938 0 
L 2938 2094 
Q 2938 2591 2744 2837 
Q 2550 3084 2163 3084 
Q 1697 3084 1428 2787 
Q 1159 2491 1159 1978 
L 1159 0 
L 581 0 
L 581 4863 
L 1159 4863 
L 1159 2956 
Q 1366 3272 1645 3428 
Q 1925 3584 2291 3584 
Q 2894 3584 3203 3211 
Q 3513 2838 3513 2113 
z
" transform="scale(0.015625)"/>
       <path id="DejaVuSans-61" d="M 2194 1759 
Q 1497 1759 1228 1600 
Q 959 1441 959 1056 
Q 959 750 1161 570 
Q 1363 391 1709 391 
Q 2188 391 2477 730 
Q 2766 1069 2766 1631 
L 2766 1759 
L 2194 1759 
z
M 3341 1997 
L 3341 0 
L 2766 0 
L 2766 531 
Q 2569 213 2275 61 
Q 1981 -91 1556 -91 
Q 1019 -91 701 211 
Q 384 513 384 1019 
Q 384 1609 779 1909 
Q 1175 2209 1959 2209 
L 2766 2209 
L 2766 2266 
Q 2766 2663 2505 2880 
Q 2244 3097 1772 3097 
Q 1472 3097 1187 3025 
Q 903 2953 641 2809 
L 641 3341 
Q 956 3463 1253 3523 
Q 1550 3584 1831 3584 
Q 2591 3584 2966 3190 
Q 3341 2797 3341 1997 
z
" transform="scale(0.015625)"/>
       <path id="DejaVuSans-6e" d="M 3513 2113 
L 3513 0 
L 2938 0 
L 2938 2094 
Q 2938 2591 2744 2837 
Q 2550 3084 2163 3084 
Q 1697 3084 1428 2787 
Q 1159 2491 1159 1978 
L 1159 0 
L 581 0 
L 581 3500 
L 1159 3500 
L 1159 2956 
Q 1366 3272 1645 3428 
Q 1925 3584 2291 3584 
Q 2894 3584 3203 3211 
Q 3513 2838 3513 2113 
z
" transform="scale(0.015625)"/>
       <path id="DejaVuSans-67" d="M 2906 1791 
Q 2906 2416 2648 2759 
Q 2391 3103 1925 3103 
Q 1463 3103 1205 2759 
Q 947 2416 947 1791 
Q 947 1169 1205 825 
Q 1463 481 1925 481 
Q 2391 481 2648 825 
Q 2906 1169 2906 1791 
z
M 3481 434 
Q 3481 -459 3084 -895 
Q 2688 -1331 1869 -1331 
Q 1566 -1331 1297 -1286 
Q 1028 -1241 775 -1147 
L 775 -588 
Q 1028 -725 1275 -790 
Q 1522 -856 1778 -856 
Q 2344 -856 2625 -561 
Q 2906 -266 2906 331 
L 2906 616 
Q 2728 306 2450 153 
Q 2172 0 1784 0 
Q 1141 0 747 490 
Q 353 981 353 1791 
Q 353 2603 747 3093 
Q 1141 3584 1784 3584 
Q 2172 3584 2450 3431 
Q 2728 3278 2906 2969 
L 2906 3500 
L 3481 3500 
L 3481 434 
z
" transform="scale(0.015625)"/>
       <path id="DejaVuSans-65" d="M 3597 1894 
L 3597 1613 
L 953 1613 
Q 991 1019 1311 708 
Q 1631 397 2203 397 
Q 2534 397 2845 478 
Q 3156 559 3463 722 
L 3463 178 
Q 3153 47 2828 -22 
Q 2503 -91 2169 -91 
Q 1331 -91 842 396 
Q 353 884 353 1716 
Q 353 2575 817 3079 
Q 1281 3584 2069 3584 
Q 2775 3584 3186 3129 
Q 3597 2675 3597 1894 
z
M 3022 2063 
Q 3016 2534 2758 2815 
Q 2500 3097 2075 3097 
Q 1594 3097 1305 2825 
Q 1016 2553 972 2059 
L 3022 2063 
z
" transform="scale(0.015625)"/>
      </defs>
      <use xlink:href="#DejaVuSans-25"/>
      <use xlink:href="#DejaVuSans-20" x="95.019531"/>
      <use xlink:href="#DejaVuSans-63" x="126.806641"/>
      <use xlink:href="#DejaVuSans-68" x="181.787109"/>
      <use xlink:href="#DejaVuSans-61" x="245.166016"/>
      <use xlink:href="#DejaVuSans-6e" x="306.445312"/>
      <use xlink:href="#DejaVuSans-67" x="369.824219"/>
      <use xlink:href="#DejaVuSans-65" x="433.300781"/>
     </g>
    </g>
   </g>
   <g id="PolyCollection_1"/>
   <g id="PolyCollection_2"/>
   <g id="PolyCollection_3"/>
   <g id="PolyCollection_4"/>
   <g id="PolyCollection_5"/>
   <g id="PolyCollection_6"/>
   <g id="line2d_7">
    <path d="M 202.2575 86.099455 
L 205.469108 94.469203 
L 209.751252 105.316508 
L 212.249169 110.993545 
L 214.747086 116.165552 
L 217.245004 120.870271 
L 219.742921 125.142392 
L 222.240838 129.014621 
L 224.738755 132.517847 
L 227.236673 135.679644 
L 229.73459 138.525237 
L 232.589352 141.420036 
L 235.444115 143.97115 
L 238.298878 146.213162 
L 241.15364 148.172323 
L 244.008403 149.876271 
L 247.220011 151.516129 
L 250.431619 152.889301 
L 253.643226 154.021007 
L 256.854834 154.934204 
L 260.423288 155.717913 
L 263.991741 156.283278 
L 267.917039 156.682145 
L 272.912874 156.951753 
L 278.265554 157.013949 
L 284.331924 156.851354 
L 293.253057 156.334881 
L 333.219733 153.676494 
L 371.759028 151.165627 
L 462.39774 145.874864 
L 462.39774 145.874864 
" clip-path="url(#p16e585f2b3)" style="fill: none; stroke: #4c72b0; stroke-opacity: 0.9; stroke-width: 3; stroke-linecap: round"/>
   </g>
   <g id="line2d_8">
    <path d="M 202.2575 86.099455 
L 204.755417 92.498212 
L 209.751252 105.097029 
L 212.249169 110.74884 
L 214.747086 115.909943 
L 217.245004 120.617078 
L 219.742921 124.903957 
L 222.240838 128.801536 
L 224.738755 132.338413 
L 227.593518 135.972805 
L 230.448281 139.208247 
L 233.303043 142.078817 
L 236.157806 144.615988 
L 239.012568 146.848369 
L 241.867331 148.804205 
L 244.722093 150.51475 
L 247.933701 152.175786 
L 251.145309 153.58721 
L 254.356917 154.772765 
L 257.92537 155.850824 
L 261.493823 156.70245 
L 265.419122 157.40571 
L 269.701266 157.927457 
L 274.6971 158.302491 
L 280.406626 158.493121 
L 286.472996 158.466813 
L 294.680438 158.175038 
L 306.456334 157.543745 
L 326.796517 156.186825 
L 462.39774 146.917919 
L 462.39774 146.917919 
" clip-path="url(#p16e585f2b3)" style="fill: none; stroke: #dd8452; stroke-opacity: 0.9; stroke-width: 3; stroke-linecap: round"/>
   </g>
   <g id="line2d_9">
    <path d="M 202.2575 86.099455 
L 204.398572 92.070673 
L 209.394407 105.839122 
L 211.892324 112.027408 
L 214.390241 117.662654 
L 216.888158 122.786546 
L 219.386076 127.438001 
L 221.883993 131.652236 
L 224.38191 135.461698 
L 226.879827 138.896645 
L 229.377745 141.984912 
L 231.875662 144.752782 
L 234.373579 147.22459 
L 237.228342 149.716512 
L 240.083104 151.882518 
L 242.937867 153.751811 
L 245.792629 155.351433 
L 248.647392 156.708437 
L 251.859 157.976069 
L 255.070608 158.998194 
L 258.282216 159.79949 
L 261.850669 160.456998 
L 265.419122 160.895173 
L 269.701266 161.179314 
L 274.340255 161.259002 
L 279.692935 161.11923 
L 287.543532 160.648659 
L 313.950086 158.756905 
L 334.647114 157.412024 
L 359.983132 156.030552 
L 418.505765 153.107144 
L 462.39774 150.939266 
L 462.39774 150.939266 
" clip-path="url(#p16e585f2b3)" style="fill: none; stroke: #55a868; stroke-opacity: 0.9; stroke-width: 3; stroke-linecap: round"/>
   </g>
   <g id="line2d_10">
    <path d="M 202.2575 86.099455 
L 204.398572 91.879113 
L 209.394407 105.21115 
L 211.892324 111.205622 
L 214.390241 116.665263 
L 216.888158 121.630132 
L 219.386076 126.137136 
L 221.883993 130.220147 
L 224.38191 133.910523 
L 226.879827 137.237455 
L 229.377745 140.227969 
L 231.875662 142.907707 
L 234.373579 145.300924 
L 237.228342 147.713734 
L 240.083104 149.81205 
L 242.937867 151.624239 
L 245.792629 153.176808 
L 248.647392 154.49517 
L 251.859 155.727223 
L 255.070608 156.722638 
L 258.639061 157.580521 
L 262.207514 158.205033 
L 266.132813 158.652928 
L 270.414957 158.909121 
L 275.410791 158.973116 
L 281.120316 158.81166 
L 291.111985 158.257424 
L 315.020622 156.664578 
L 339.286104 155.168017 
L 374.61379 153.274642 
L 462.39774 148.750686 
L 462.39774 148.750686 
" clip-path="url(#p16e585f2b3)" style="fill: none; stroke: #c44e52; stroke-opacity: 0.9; stroke-width: 3; stroke-linecap: round"/>
   </g>
   <g id="line2d_11">
    <path d="M 202.2575 86.099455 
L 205.112263 93.848966 
L 209.394407 105.221169 
L 211.892324 111.205318 
L 214.390241 116.65955 
L 216.888158 121.623565 
L 219.386076 126.133929 
L 221.883993 130.224359 
L 224.38191 133.926007 
L 226.879827 137.267722 
L 229.377745 140.276128 
L 231.875662 142.975969 
L 234.730424 145.712755 
L 237.585187 148.107316 
L 240.43995 150.189197 
L 243.294712 151.984711 
L 246.149475 153.517516 
L 249.004237 154.812085 
L 252.215845 156.012018 
L 255.427453 156.964666 
L 258.639061 157.692721 
L 262.207514 158.263338 
L 265.775967 158.610172 
L 270.058111 158.786521 
L 274.6971 158.740466 
L 280.04978 158.460053 
L 286.116151 157.921899 
L 293.609902 157.030076 
L 306.099489 155.252848 
L 318.94592 153.580394 
L 331.078661 152.224866 
L 343.568247 151.025092 
L 360.696823 149.618656 
L 377.825398 148.391834 
L 411.012013 146.290907 
L 462.39774 143.147581 
L 462.39774 143.147581 
" clip-path="url(#p16e585f2b3)" style="fill: none; stroke: #8172b3; stroke-opacity: 0.9; stroke-width: 3; stroke-linecap: round"/>
   </g>
   <g id="line2d_12">
    <path d="M 202.2575 86.099455 
L 205.469108 94.570189 
L 209.751252 105.540806 
L 212.249169 111.283458 
L 214.747086 116.520477 
L 217.245004 121.289811 
L 219.742921 125.626526 
L 222.240838 129.563075 
L 224.738755 133.129259 
L 227.236673 136.352574 
L 229.73459 139.258423 
L 232.589352 142.22123 
L 235.444115 144.833657 
L 238.298878 147.12516 
L 241.15364 149.122597 
L 244.008403 150.850532 
L 246.863165 152.332493 
L 250.074773 153.734889 
L 253.286381 154.882599 
L 256.497989 155.800104 
L 260.066442 156.575732 
L 263.634895 157.12031 
L 267.560194 157.485024 
L 271.842338 157.656191 
L 277.195018 157.632475 
L 283.261388 157.36207 
L 290.041449 156.822312 
L 298.248892 155.929786 
L 324.655445 152.864711 
L 346.779855 150.617714 
L 359.983132 149.501899 
L 383.891769 147.688631 
L 424.21529 144.958081 
L 462.39774 142.427169 
L 462.39774 142.427169 
" clip-path="url(#p16e585f2b3)" style="fill: none; stroke: #937860; stroke-opacity: 0.9; stroke-width: 3; stroke-linecap: round"/>
   </g>
   <g id="patch_3">
    <path d="M 189.250488 183.612 
L 189.250488 81.456 
" style="fill: none; stroke: #ffffff; stroke-width: 1.25; stroke-linejoin: miter; stroke-linecap: square"/>
   </g>
   <g id="patch_4">
    <path d="M 189.250488 183.612 
L 475.404752 183.612 
" style="fill: none; stroke: #ffffff; stroke-width: 1.25; stroke-linejoin: miter; stroke-linecap: square"/>
   </g>
   <g id="text_4">
    <!-- 0.8~90 -->
    <g style="fill: #262626" transform="translate(285.697776 75.456) scale(0.252 -0.252)">
     <defs>
      <path id="DejaVuSans-38" d="M 2034 2216 
Q 1584 2216 1326 1975 
Q 1069 1734 1069 1313 
Q 1069 891 1326 650 
Q 1584 409 2034 409 
Q 2484 409 2743 651 
Q 3003 894 3003 1313 
Q 3003 1734 2745 1975 
Q 2488 2216 2034 2216 
z
M 1403 2484 
Q 997 2584 770 2862 
Q 544 3141 544 3541 
Q 544 4100 942 4425 
Q 1341 4750 2034 4750 
Q 2731 4750 3128 4425 
Q 3525 4100 3525 3541 
Q 3525 3141 3298 2862 
Q 3072 2584 2669 2484 
Q 3125 2378 3379 2068 
Q 3634 1759 3634 1313 
Q 3634 634 3220 271 
Q 2806 -91 2034 -91 
Q 1263 -91 848 271 
Q 434 634 434 1313 
Q 434 1759 690 2068 
Q 947 2378 1403 2484 
z
M 1172 3481 
Q 1172 3119 1398 2916 
Q 1625 2713 2034 2713 
Q 2441 2713 2670 2916 
Q 2900 3119 2900 3481 
Q 2900 3844 2670 4047 
Q 2441 4250 2034 4250 
Q 1625 4250 1398 4047 
Q 1172 3844 1172 3481 
z
" transform="scale(0.015625)"/>
      <path id="DejaVuSans-7e" d="M 4684 2553 
L 4684 1997 
Q 4356 1750 4076 1644 
Q 3797 1538 3494 1538 
Q 3150 1538 2694 1722 
Q 2659 1734 2644 1741 
Q 2622 1750 2575 1766 
Q 2091 1959 1797 1959 
Q 1522 1959 1253 1839 
Q 984 1719 678 1459 
L 678 2016 
Q 1006 2263 1286 2370 
Q 1566 2478 1869 2478 
Q 2213 2478 2672 2291 
Q 2703 2278 2719 2272 
Q 2744 2263 2788 2247 
Q 3272 2053 3566 2053 
Q 3834 2053 4098 2172 
Q 4363 2291 4684 2553 
z
" transform="scale(0.015625)"/>
      <path id="DejaVuSans-39" d="M 703 97 
L 703 672 
Q 941 559 1184 500 
Q 1428 441 1663 441 
Q 2288 441 2617 861 
Q 2947 1281 2994 2138 
Q 2813 1869 2534 1725 
Q 2256 1581 1919 1581 
Q 1219 1581 811 2004 
Q 403 2428 403 3163 
Q 403 3881 828 4315 
Q 1253 4750 1959 4750 
Q 2769 4750 3195 4129 
Q 3622 3509 3622 2328 
Q 3622 1225 3098 567 
Q 2575 -91 1691 -91 
Q 1453 -91 1209 -44 
Q 966 3 703 97 
z
M 1959 2075 
Q 2384 2075 2632 2365 
Q 2881 2656 2881 3163 
Q 2881 3666 2632 3958 
Q 2384 4250 1959 4250 
Q 1534 4250 1286 3958 
Q 1038 3666 1038 3163 
Q 1038 2656 1286 2365 
Q 1534 2075 1959 2075 
z
" transform="scale(0.015625)"/>
     </defs>
     <use xlink:href="#DejaVuSans-30"/>
     <use xlink:href="#DejaVuSans-2e" x="63.623047"/>
     <use xlink:href="#DejaVuSans-38" x="95.410156"/>
     <use xlink:href="#DejaVuSans-7e" x="159.033203"/>
     <use xlink:href="#DejaVuSans-39" x="242.822266"/>
     <use xlink:href="#DejaVuSans-30" x="306.445312"/>
    </g>
   </g>
  </g>
  <g id="axes_2">
   <g id="patch_5">
    <path d="M 501.852899 183.612 
L 788.007162 183.612 
L 788.007162 81.456 
L 501.852899 81.456 
z
" style="fill: #eaeaf2"/>
   </g>
   <g id="matplotlib.axis_3">
    <g id="xtick_5">
     <g id="line2d_13">
      <path d="M 514.859911 183.612 
L 514.859911 81.456 
" clip-path="url(#p40f25ddd38)" style="fill: none; stroke: #ffffff; stroke-linecap: round"/>
     </g>
    </g>
    <g id="xtick_6">
     <g id="line2d_14">
      <path d="M 604.071241 183.612 
L 604.071241 81.456 
" clip-path="url(#p40f25ddd38)" style="fill: none; stroke: #ffffff; stroke-linecap: round"/>
     </g>
    </g>
    <g id="xtick_7">
     <g id="line2d_15">
      <path d="M 693.282572 183.612 
L 693.282572 81.456 
" clip-path="url(#p40f25ddd38)" style="fill: none; stroke: #ffffff; stroke-linecap: round"/>
     </g>
    </g>
    <g id="xtick_8">
     <g id="line2d_16">
      <path d="M 782.493902 183.612 
L 782.493902 81.456 
" clip-path="url(#p40f25ddd38)" style="fill: none; stroke: #ffffff; stroke-linecap: round"/>
     </g>
    </g>
   </g>
   <g id="matplotlib.axis_4">
    <g id="ytick_3">
     <g id="line2d_17">
      <path d="M 501.852899 145.936055 
L 788.007162 145.936055 
" clip-path="url(#p40f25ddd38)" style="fill: none; stroke: #ffffff; stroke-linecap: round"/>
     </g>
    </g>
    <g id="ytick_4">
     <g id="line2d_18">
      <path d="M 501.852899 86.099455 
L 788.007162 86.099455 
" clip-path="url(#p40f25ddd38)" style="fill: none; stroke: #ffffff; stroke-linecap: round"/>
     </g>
    </g>
   </g>
   <g id="PolyCollection_7"/>
   <g id="PolyCollection_8"/>
   <g id="PolyCollection_9"/>
   <g id="PolyCollection_10"/>
   <g id="PolyCollection_11"/>
   <g id="PolyCollection_12"/>
   <g id="line2d_19">
    <path d="M 514.859911 86.099455 
L 517.714674 93.570695 
L 522.710508 106.430737 
L 525.565271 113.025592 
L 528.420033 119.037559 
L 531.274796 124.515419 
L 534.129558 129.503743 
L 536.984321 134.043319 
L 539.839084 138.171507 
L 542.693846 141.922538 
L 545.548609 145.327783 
L 548.403371 148.415971 
L 551.614979 151.543892 
L 554.826587 154.338362 
L 558.038195 156.83069 
L 561.249803 159.049035 
L 564.461411 161.019237 
L 568.029864 162.945284 
L 571.598317 164.62186 
L 575.523616 166.20859 
L 579.448914 167.559837 
L 583.731058 168.799132 
L 588.370047 169.902152 
L 593.365882 170.848577 
L 598.718562 171.623913 
L 604.428087 172.21974 
L 610.494457 172.633059 
L 617.274518 172.873147 
L 626.552497 172.945812 
L 637.614702 172.800564 
L 651.174824 172.389809 
L 669.01709 171.841781 
L 699.348942 171.216394 
L 767.506399 170.010403 
L 775.000151 169.885765 
L 775.000151 169.885765 
" clip-path="url(#p40f25ddd38)" style="fill: none; stroke: #4c72b0; stroke-opacity: 0.9; stroke-width: 3; stroke-linecap: round"/>
   </g>
   <g id="line2d_20">
    <path d="M 514.859911 86.099455 
L 517.000983 91.589168 
L 522.710508 106.165281 
L 525.565271 112.700129 
L 528.420033 118.661064 
L 531.274796 124.096151 
L 534.129558 129.049285 
L 536.984321 133.560622 
L 539.839084 137.666968 
L 542.693846 141.402068 
L 545.548609 144.796937 
L 548.403371 147.879931 
L 551.614979 151.007723 
L 554.826587 153.807222 
L 558.038195 156.308939 
L 561.249803 158.540509 
L 564.818256 160.733621 
L 568.386709 162.65575 
L 571.955163 164.334891 
L 575.880461 165.930932 
L 579.80576 167.293153 
L 584.087903 168.543591 
L 588.726893 169.660386 
L 593.722727 170.631387 
L 599.075407 171.443623 
L 604.784932 172.088924 
L 611.208148 172.586299 
L 618.345054 172.905308 
L 627.266187 173.055593 
L 638.328392 173.013758 
L 651.531669 172.734004 
L 692.212036 171.677685 
L 775.000151 170.116526 
L 775.000151 170.116526 
" clip-path="url(#p40f25ddd38)" style="fill: none; stroke: #dd8452; stroke-opacity: 0.9; stroke-width: 3; stroke-linecap: round"/>
   </g>
   <g id="line2d_21">
    <path d="M 514.859911 86.099455 
L 516.644138 91.075526 
L 522.353663 107.026595 
L 525.208425 114.206698 
L 528.063188 120.750277 
L 530.917951 126.710803 
L 533.772713 132.137148 
L 536.627476 137.074392 
L 539.482238 141.563482 
L 542.337001 145.641647 
L 545.191763 149.343004 
L 548.046526 152.698898 
L 550.901289 155.738006 
L 554.112896 158.810925 
L 557.324504 161.550213 
L 560.536112 163.986951 
L 563.74772 166.149518 
L 566.959328 168.06363 
L 570.527781 169.927538 
L 574.096234 171.542734 
L 578.021533 173.063615 
L 581.946832 174.346419 
L 586.228975 175.506554 
L 590.867965 176.517427 
L 595.863799 177.361797 
L 601.216479 178.031002 
L 606.926004 178.519792 
L 613.34922 178.838195 
L 620.842972 178.966355 
L 629.764105 178.888946 
L 641.183155 178.55673 
L 662.95072 177.902239 
L 691.1415 177.293768 
L 723.97127 176.796308 
L 775.000151 176.139278 
L 775.000151 176.139278 
" clip-path="url(#p40f25ddd38)" style="fill: none; stroke: #55a868; stroke-opacity: 0.9; stroke-width: 3; stroke-linecap: round"/>
   </g>
   <g id="line2d_22">
    <path d="M 514.859911 86.099455 
L 516.644138 90.915628 
L 522.353663 106.359806 
L 525.208425 113.314155 
L 528.063188 119.652917 
L 530.917951 125.427659 
L 533.772713 130.685493 
L 536.627476 135.469502 
L 539.482238 139.819147 
L 542.337001 143.770555 
L 545.191763 147.356816 
L 548.046526 150.608283 
L 550.901289 153.552787 
L 554.112896 156.530077 
L 557.324504 159.18414 
L 560.536112 161.54505 
L 563.74772 163.640262 
L 567.316173 165.686766 
L 570.884627 167.466853 
L 574.45308 169.008795 
L 578.378378 170.459991 
L 582.303677 171.683933 
L 586.585821 172.791052 
L 591.22481 173.756649 
L 596.220644 174.563712 
L 601.573324 175.202874 
L 607.639695 175.693155 
L 614.06291 175.987403 
L 621.913508 176.106102 
L 631.191486 176.016946 
L 645.108453 175.626326 
L 671.871853 174.948274 
L 708.983766 174.234345 
L 775.000151 173.340349 
L 775.000151 173.340349 
" clip-path="url(#p40f25ddd38)" style="fill: none; stroke: #c44e52; stroke-opacity: 0.9; stroke-width: 3; stroke-linecap: round"/>
   </g>
   <g id="line2d_23">
    <path d="M 514.859911 86.099455 
L 517.357828 92.903579 
L 522.353663 106.366226 
L 525.208425 113.304809 
L 528.063188 119.631125 
L 530.917951 125.396486 
L 533.772713 130.647825 
L 536.627476 135.428069 
L 539.482238 139.776502 
L 542.337001 143.729087 
L 545.191763 147.318763 
L 548.046526 150.57569 
L 550.901289 153.527465 
L 554.112896 156.514838 
L 557.324504 159.180681 
L 560.536112 161.554685 
L 563.74772 163.663775 
L 567.316173 165.726133 
L 570.884627 167.521761 
L 574.45308 169.077762 
L 578.378378 170.541516 
L 582.303677 171.774109 
L 586.585821 172.885591 
L 591.22481 173.848207 
L 596.220644 174.642922 
L 601.573324 175.258213 
L 607.282849 175.685155 
L 613.34922 175.920127 
L 620.486126 175.970298 
L 629.407259 175.797169 
L 641.54 175.311891 
L 659.739112 174.336407 
L 691.855191 172.594968 
L 710.767993 171.934065 
L 737.531392 171.215353 
L 775.000151 170.380248 
L 775.000151 170.380248 
" clip-path="url(#p40f25ddd38)" style="fill: none; stroke: #8172b3; stroke-opacity: 0.9; stroke-width: 3; stroke-linecap: round"/>
   </g>
   <g id="line2d_24">
    <path d="M 514.859911 86.099455 
L 517.714674 93.660675 
L 522.710508 106.655354 
L 525.565271 113.315486 
L 528.420033 119.388765 
L 531.274796 124.924419 
L 534.129558 129.967494 
L 536.984321 134.55922 
L 539.839084 138.737322 
L 542.693846 142.536388 
L 545.548609 145.988066 
L 548.403371 149.121286 
L 551.614979 152.298393 
L 554.826587 155.140259 
L 558.038195 157.678007 
L 561.249803 159.939833 
L 564.461411 161.951252 
L 568.029864 163.920537 
L 571.598317 165.637837 
L 575.523616 167.266945 
L 579.448914 168.653431 
L 583.731058 169.920951 
L 588.013202 170.962857 
L 592.652191 171.868832 
L 597.648026 172.622282 
L 603.000706 173.210522 
L 609.067076 173.645416 
L 615.490292 173.882448 
L 622.984044 173.934132 
L 632.975713 173.77197 
L 646.178989 173.325226 
L 666.876018 172.362439 
L 688.643583 171.393226 
L 713.622755 170.574955 
L 749.307287 169.62071 
L 775.000151 169.04375 
L 775.000151 169.04375 
" clip-path="url(#p40f25ddd38)" style="fill: none; stroke: #937860; stroke-opacity: 0.9; stroke-width: 3; stroke-linecap: round"/>
   </g>
   <g id="patch_6">
    <path d="M 501.852899 183.612 
L 501.852899 81.456 
" style="fill: none; stroke: #ffffff; stroke-width: 1.25; stroke-linejoin: miter; stroke-linecap: square"/>
   </g>
   <g id="patch_7">
    <path d="M 501.852899 183.612 
L 788.007162 183.612 
" style="fill: none; stroke: #ffffff; stroke-width: 1.25; stroke-linejoin: miter; stroke-linecap: square"/>
   </g>
   <g id="text_5">
    <!-- 0.8~365 -->
    <g style="fill: #262626" transform="translate(590.283437 75.456) scale(0.252 -0.252)">
     <defs>
      <path id="DejaVuSans-33" d="M 2597 2516 
Q 3050 2419 3304 2112 
Q 3559 1806 3559 1356 
Q 3559 666 3084 287 
Q 2609 -91 1734 -91 
Q 1441 -91 1130 -33 
Q 819 25 488 141 
L 488 750 
Q 750 597 1062 519 
Q 1375 441 1716 441 
Q 2309 441 2620 675 
Q 2931 909 2931 1356 
Q 2931 1769 2642 2001 
Q 2353 2234 1838 2234 
L 1294 2234 
L 1294 2753 
L 1863 2753 
Q 2328 2753 2575 2939 
Q 2822 3125 2822 3475 
Q 2822 3834 2567 4026 
Q 2313 4219 1838 4219 
Q 1578 4219 1281 4162 
Q 984 4106 628 3988 
L 628 4550 
Q 988 4650 1302 4700 
Q 1616 4750 1894 4750 
Q 2613 4750 3031 4423 
Q 3450 4097 3450 3541 
Q 3450 3153 3228 2886 
Q 3006 2619 2597 2516 
z
" transform="scale(0.015625)"/>
      <path id="DejaVuSans-36" d="M 2113 2584 
Q 1688 2584 1439 2293 
Q 1191 2003 1191 1497 
Q 1191 994 1439 701 
Q 1688 409 2113 409 
Q 2538 409 2786 701 
Q 3034 994 3034 1497 
Q 3034 2003 2786 2293 
Q 2538 2584 2113 2584 
z
M 3366 4563 
L 3366 3988 
Q 3128 4100 2886 4159 
Q 2644 4219 2406 4219 
Q 1781 4219 1451 3797 
Q 1122 3375 1075 2522 
Q 1259 2794 1537 2939 
Q 1816 3084 2150 3084 
Q 2853 3084 3261 2657 
Q 3669 2231 3669 1497 
Q 3669 778 3244 343 
Q 2819 -91 2113 -91 
Q 1303 -91 875 529 
Q 447 1150 447 2328 
Q 447 3434 972 4092 
Q 1497 4750 2381 4750 
Q 2619 4750 2861 4703 
Q 3103 4656 3366 4563 
z
" transform="scale(0.015625)"/>
     </defs>
     <use xlink:href="#DejaVuSans-30"/>
     <use xlink:href="#DejaVuSans-2e" x="63.623047"/>
     <use xlink:href="#DejaVuSans-38" x="95.410156"/>
     <use xlink:href="#DejaVuSans-7e" x="159.033203"/>
     <use xlink:href="#DejaVuSans-33" x="242.822266"/>
     <use xlink:href="#DejaVuSans-36" x="306.445312"/>
     <use xlink:href="#DejaVuSans-35" x="370.068359"/>
    </g>
   </g>
  </g>
  <g id="axes_3">
   <g id="patch_8">
    <path d="M 814.45531 183.612 
L 1100.609573 183.612 
L 1100.609573 81.456 
L 814.45531 81.456 
z
" style="fill: #eaeaf2"/>
   </g>
   <g id="matplotlib.axis_5">
    <g id="xtick_9">
     <g id="line2d_25">
      <path d="M 827.462322 183.612 
L 827.462322 81.456 
" clip-path="url(#p3888cc8828)" style="fill: none; stroke: #ffffff; stroke-linecap: round"/>
     </g>
     <g id="text_6">
      <!-- 0 -->
      <g style="fill: #262626" transform="translate(820.113635 210.664391) scale(0.231 -0.231)">
       <use xlink:href="#DejaVuSans-30"/>
      </g>
     </g>
    </g>
    <g id="xtick_10">
     <g id="line2d_26">
      <path d="M 916.673652 183.612 
L 916.673652 81.456 
" clip-path="url(#p3888cc8828)" style="fill: none; stroke: #ffffff; stroke-linecap: round"/>
     </g>
     <g id="text_7">
      <!-- 250 -->
      <g style="fill: #262626" transform="translate(894.62759 210.664391) scale(0.231 -0.231)">
       <defs>
        <path id="DejaVuSans-32" d="M 1228 531 
L 3431 531 
L 3431 0 
L 469 0 
L 469 531 
Q 828 903 1448 1529 
Q 2069 2156 2228 2338 
Q 2531 2678 2651 2914 
Q 2772 3150 2772 3378 
Q 2772 3750 2511 3984 
Q 2250 4219 1831 4219 
Q 1534 4219 1204 4116 
Q 875 4013 500 3803 
L 500 4441 
Q 881 4594 1212 4672 
Q 1544 4750 1819 4750 
Q 2544 4750 2975 4387 
Q 3406 4025 3406 3419 
Q 3406 3131 3298 2873 
Q 3191 2616 2906 2266 
Q 2828 2175 2409 1742 
Q 1991 1309 1228 531 
z
" transform="scale(0.015625)"/>
       </defs>
       <use xlink:href="#DejaVuSans-32"/>
       <use xlink:href="#DejaVuSans-35" x="63.623047"/>
       <use xlink:href="#DejaVuSans-30" x="127.246094"/>
      </g>
     </g>
    </g>
    <g id="xtick_11">
     <g id="line2d_27">
      <path d="M 1005.884983 183.612 
L 1005.884983 81.456 
" clip-path="url(#p3888cc8828)" style="fill: none; stroke: #ffffff; stroke-linecap: round"/>
     </g>
     <g id="text_8">
      <!-- 500 -->
      <g style="fill: #262626" transform="translate(983.83892 210.664391) scale(0.231 -0.231)">
       <use xlink:href="#DejaVuSans-35"/>
       <use xlink:href="#DejaVuSans-30" x="63.623047"/>
       <use xlink:href="#DejaVuSans-30" x="127.246094"/>
      </g>
     </g>
    </g>
    <g id="xtick_12">
     <g id="line2d_28">
      <path d="M 1095.096313 183.612 
L 1095.096313 81.456 
" clip-path="url(#p3888cc8828)" style="fill: none; stroke: #ffffff; stroke-linecap: round"/>
     </g>
     <g id="text_9">
      <!-- 750 -->
      <g style="fill: #262626" transform="translate(1073.050251 210.664391) scale(0.231 -0.231)">
       <defs>
        <path id="DejaVuSans-37" d="M 525 4666 
L 3525 4666 
L 3525 4397 
L 1831 0 
L 1172 0 
L 2766 4134 
L 525 4134 
L 525 4666 
z
" transform="scale(0.015625)"/>
       </defs>
       <use xlink:href="#DejaVuSans-37"/>
       <use xlink:href="#DejaVuSans-35" x="63.623047"/>
       <use xlink:href="#DejaVuSans-30" x="127.246094"/>
      </g>
     </g>
    </g>
    <g id="text_10">
     <!-- step -->
     <g style="fill: #262626" transform="translate(930.277067 238.616531) scale(0.252 -0.252)">
      <defs>
       <path id="DejaVuSans-73" d="M 2834 3397 
L 2834 2853 
Q 2591 2978 2328 3040 
Q 2066 3103 1784 3103 
Q 1356 3103 1142 2972 
Q 928 2841 928 2578 
Q 928 2378 1081 2264 
Q 1234 2150 1697 2047 
L 1894 2003 
Q 2506 1872 2764 1633 
Q 3022 1394 3022 966 
Q 3022 478 2636 193 
Q 2250 -91 1575 -91 
Q 1294 -91 989 -36 
Q 684 19 347 128 
L 347 722 
Q 666 556 975 473 
Q 1284 391 1588 391 
Q 1994 391 2212 530 
Q 2431 669 2431 922 
Q 2431 1156 2273 1281 
Q 2116 1406 1581 1522 
L 1381 1569 
Q 847 1681 609 1914 
Q 372 2147 372 2553 
Q 372 3047 722 3315 
Q 1072 3584 1716 3584 
Q 2034 3584 2315 3537 
Q 2597 3491 2834 3397 
z
" transform="scale(0.015625)"/>
       <path id="DejaVuSans-74" d="M 1172 4494 
L 1172 3500 
L 2356 3500 
L 2356 3053 
L 1172 3053 
L 1172 1153 
Q 1172 725 1289 603 
Q 1406 481 1766 481 
L 2356 481 
L 2356 0 
L 1766 0 
Q 1100 0 847 248 
Q 594 497 594 1153 
L 594 3053 
L 172 3053 
L 172 3500 
L 594 3500 
L 594 4494 
L 1172 4494 
z
" transform="scale(0.015625)"/>
       <path id="DejaVuSans-70" d="M 1159 525 
L 1159 -1331 
L 581 -1331 
L 581 3500 
L 1159 3500 
L 1159 2969 
Q 1341 3281 1617 3432 
Q 1894 3584 2278 3584 
Q 2916 3584 3314 3078 
Q 3713 2572 3713 1747 
Q 3713 922 3314 415 
Q 2916 -91 2278 -91 
Q 1894 -91 1617 61 
Q 1341 213 1159 525 
z
M 3116 1747 
Q 3116 2381 2855 2742 
Q 2594 3103 2138 3103 
Q 1681 3103 1420 2742 
Q 1159 2381 1159 1747 
Q 1159 1113 1420 752 
Q 1681 391 2138 391 
Q 2594 391 2855 752 
Q 3116 1113 3116 1747 
z
" transform="scale(0.015625)"/>
      </defs>
      <use xlink:href="#DejaVuSans-73"/>
      <use xlink:href="#DejaVuSans-74" x="52.099609"/>
      <use xlink:href="#DejaVuSans-65" x="91.308594"/>
      <use xlink:href="#DejaVuSans-70" x="152.832031"/>
     </g>
    </g>
   </g>
   <g id="matplotlib.axis_6">
    <g id="ytick_5">
     <g id="line2d_29">
      <path d="M 814.45531 145.936055 
L 1100.609573 145.936055 
" clip-path="url(#p3888cc8828)" style="fill: none; stroke: #ffffff; stroke-linecap: round"/>
     </g>
    </g>
    <g id="ytick_6">
     <g id="line2d_30">
      <path d="M 814.45531 86.099455 
L 1100.609573 86.099455 
" clip-path="url(#p3888cc8828)" style="fill: none; stroke: #ffffff; stroke-linecap: round"/>
     </g>
    </g>
   </g>
   <g id="PolyCollection_13"/>
   <g id="PolyCollection_14"/>
   <g id="PolyCollection_15"/>
   <g id="PolyCollection_16"/>
   <g id="PolyCollection_17"/>
   <g id="PolyCollection_18"/>
   <g id="line2d_31">
    <path d="M 827.462322 86.099455 
L 830.67393 94.469203 
L 834.956074 105.316508 
L 837.453991 110.993545 
L 839.951908 116.165552 
L 842.449826 120.870271 
L 844.947743 125.142392 
L 847.44566 129.014621 
L 849.943577 132.517847 
L 852.441495 135.679644 
L 854.939412 138.525237 
L 857.794174 141.420036 
L 860.648937 143.97115 
L 863.5037 146.213162 
L 866.358462 148.172323 
L 869.213225 149.876271 
L 872.424833 151.516129 
L 875.63644 152.889301 
L 878.848048 154.021007 
L 882.059656 154.934204 
L 885.628109 155.717913 
L 889.196563 156.283278 
L 893.121861 156.682145 
L 898.117696 156.951753 
L 903.470376 157.013949 
L 909.536746 156.851354 
L 918.457879 156.334881 
L 958.424555 153.676494 
L 996.96385 151.165627 
L 1087.602561 145.874864 
L 1087.602561 145.874864 
" clip-path="url(#p3888cc8828)" style="fill: none; stroke: #4c72b0; stroke-opacity: 0.9; stroke-width: 3; stroke-linecap: round"/>
   </g>
   <g id="line2d_32">
    <path d="M 827.462322 86.099455 
L 829.960239 92.498212 
L 834.956074 105.097029 
L 837.453991 110.74884 
L 839.951908 115.909943 
L 842.449826 120.617078 
L 844.947743 124.903957 
L 847.44566 128.801536 
L 849.943577 132.338413 
L 852.79834 135.972805 
L 855.653102 139.208247 
L 858.507865 142.078817 
L 861.362628 144.615988 
L 864.21739 146.848369 
L 867.072153 148.804205 
L 869.926915 150.51475 
L 873.138523 152.175786 
L 876.350131 153.58721 
L 879.561739 154.772765 
L 883.130192 155.850824 
L 886.698645 156.70245 
L 890.623944 157.40571 
L 894.906088 157.927457 
L 899.901922 158.302491 
L 905.611447 158.493121 
L 911.677818 158.466813 
L 919.88526 158.175038 
L 931.661156 157.543745 
L 952.001339 156.186825 
L 1087.602561 146.917919 
L 1087.602561 146.917919 
" clip-path="url(#p3888cc8828)" style="fill: none; stroke: #dd8452; stroke-opacity: 0.9; stroke-width: 3; stroke-linecap: round"/>
   </g>
   <g id="line2d_33">
    <path d="M 827.462322 86.099455 
L 829.603394 92.070673 
L 834.599228 105.839122 
L 837.097146 112.027408 
L 839.595063 117.662654 
L 842.09298 122.786546 
L 844.590897 127.438001 
L 847.088815 131.652236 
L 849.586732 135.461698 
L 852.084649 138.896645 
L 854.582566 141.984912 
L 857.080484 144.752782 
L 859.578401 147.22459 
L 862.433164 149.716512 
L 865.287926 151.882518 
L 868.142689 153.751811 
L 870.997451 155.351433 
L 873.852214 156.708437 
L 877.063822 157.976069 
L 880.27543 158.998194 
L 883.487038 159.79949 
L 887.055491 160.456998 
L 890.623944 160.895173 
L 894.906088 161.179314 
L 899.545077 161.259002 
L 904.897757 161.11923 
L 912.748354 160.648659 
L 939.154908 158.756905 
L 959.851936 157.412024 
L 985.187954 156.030552 
L 1043.710587 153.107144 
L 1087.602561 150.939266 
L 1087.602561 150.939266 
" clip-path="url(#p3888cc8828)" style="fill: none; stroke: #55a868; stroke-opacity: 0.9; stroke-width: 3; stroke-linecap: round"/>
   </g>
   <g id="line2d_34">
    <path d="M 827.462322 86.099455 
L 829.603394 91.879113 
L 834.599228 105.21115 
L 837.097146 111.205622 
L 839.595063 116.665263 
L 842.09298 121.630132 
L 844.590897 126.137136 
L 847.088815 130.220147 
L 849.586732 133.910523 
L 852.084649 137.237455 
L 854.582566 140.227969 
L 857.080484 142.907707 
L 859.578401 145.300924 
L 862.433164 147.713734 
L 865.287926 149.81205 
L 868.142689 151.624239 
L 870.997451 153.176808 
L 873.852214 154.49517 
L 877.063822 155.727223 
L 880.27543 156.722638 
L 883.843883 157.580521 
L 887.412336 158.205033 
L 891.337635 158.652928 
L 895.619778 158.909121 
L 900.615613 158.973116 
L 906.325138 158.81166 
L 916.316807 158.257424 
L 940.225444 156.664578 
L 964.490926 155.168017 
L 999.818612 153.274642 
L 1087.602561 148.750686 
L 1087.602561 148.750686 
" clip-path="url(#p3888cc8828)" style="fill: none; stroke: #c44e52; stroke-opacity: 0.9; stroke-width: 3; stroke-linecap: round"/>
   </g>
   <g id="line2d_35">
    <path d="M 827.462322 86.099455 
L 830.317085 93.848966 
L 834.599228 105.221169 
L 837.097146 111.205318 
L 839.595063 116.65955 
L 842.09298 121.623565 
L 844.590897 126.133929 
L 847.088815 130.224359 
L 849.586732 133.926007 
L 852.084649 137.267722 
L 854.582566 140.276128 
L 857.080484 142.975969 
L 859.935246 145.712755 
L 862.790009 148.107316 
L 865.644771 150.189197 
L 868.499534 151.984711 
L 871.354297 153.517516 
L 874.209059 154.812085 
L 877.420667 156.012018 
L 880.632275 156.964666 
L 883.843883 157.692721 
L 887.412336 158.263338 
L 890.980789 158.610172 
L 895.262933 158.786521 
L 899.901922 158.740466 
L 905.254602 158.460053 
L 911.320973 157.921899 
L 918.814724 157.030076 
L 931.304311 155.252848 
L 944.150742 153.580394 
L 956.283483 152.224866 
L 968.773069 151.025092 
L 985.901645 149.618656 
L 1003.03022 148.391834 
L 1036.216835 146.290907 
L 1087.602561 143.147581 
L 1087.602561 143.147581 
" clip-path="url(#p3888cc8828)" style="fill: none; stroke: #8172b3; stroke-opacity: 0.9; stroke-width: 3; stroke-linecap: round"/>
   </g>
   <g id="line2d_36">
    <path d="M 827.462322 86.099455 
L 830.67393 94.570189 
L 834.956074 105.540806 
L 837.453991 111.283458 
L 839.951908 116.520477 
L 842.449826 121.289811 
L 844.947743 125.626526 
L 847.44566 129.563075 
L 849.943577 133.129259 
L 852.441495 136.352574 
L 854.939412 139.258423 
L 857.794174 142.22123 
L 860.648937 144.833657 
L 863.5037 147.12516 
L 866.358462 149.122597 
L 869.213225 150.850532 
L 872.067987 152.332493 
L 875.279595 153.734889 
L 878.491203 154.882599 
L 881.702811 155.800104 
L 885.271264 156.575732 
L 888.839717 157.12031 
L 892.765016 157.485024 
L 897.04716 157.656191 
L 902.39984 157.632475 
L 908.46621 157.36207 
L 915.246271 156.822312 
L 923.453714 155.929786 
L 949.860267 152.864711 
L 971.984677 150.617714 
L 985.187954 149.501899 
L 1009.096591 147.688631 
L 1049.420112 144.958081 
L 1087.602561 142.427169 
L 1087.602561 142.427169 
" clip-path="url(#p3888cc8828)" style="fill: none; stroke: #937860; stroke-opacity: 0.9; stroke-width: 3; stroke-linecap: round"/>
   </g>
   <g id="patch_9">
    <path d="M 814.45531 183.612 
L 814.45531 81.456 
" style="fill: none; stroke: #ffffff; stroke-width: 1.25; stroke-linejoin: miter; stroke-linecap: square"/>
   </g>
   <g id="patch_10">
    <path d="M 814.45531 183.612 
L 1100.609573 183.612 
" style="fill: none; stroke: #ffffff; stroke-width: 1.25; stroke-linejoin: miter; stroke-linecap: square"/>
   </g>
   <g id="text_11">
    <!-- 0.85~90 -->
    <g style="fill: #262626" transform="translate(902.885848 75.456) scale(0.252 -0.252)">
     <use xlink:href="#DejaVuSans-30"/>
     <use xlink:href="#DejaVuSans-2e" x="63.623047"/>
     <use xlink:href="#DejaVuSans-38" x="95.410156"/>
     <use xlink:href="#DejaVuSans-35" x="159.033203"/>
     <use xlink:href="#DejaVuSans-7e" x="222.65625"/>
     <use xlink:href="#DejaVuSans-39" x="306.445312"/>
     <use xlink:href="#DejaVuSans-30" x="370.068359"/>
    </g>
   </g>
  </g>
  <g id="axes_4">
   <g id="patch_11">
    <path d="M 189.250488 373.284 
L 475.404752 373.284 
L 475.404752 271.128 
L 189.250488 271.128 
z
" style="fill: #eaeaf2"/>
   </g>
   <g id="matplotlib.axis_7">
    <g id="xtick_13">
     <g id="line2d_37">
      <path d="M 202.2575 373.284 
L 202.2575 271.128 
" clip-path="url(#p74e7d65155)" style="fill: none; stroke: #ffffff; stroke-linecap: round"/>
     </g>
     <g id="text_12">
      <!-- 0 -->
      <g style="fill: #262626" transform="translate(194.908813 400.336391) scale(0.231 -0.231)">
       <use xlink:href="#DejaVuSans-30"/>
      </g>
     </g>
    </g>
    <g id="xtick_14">
     <g id="line2d_38">
      <path d="M 291.468831 373.284 
L 291.468831 271.128 
" clip-path="url(#p74e7d65155)" style="fill: none; stroke: #ffffff; stroke-linecap: round"/>
     </g>
     <g id="text_13">
      <!-- 250 -->
      <g style="fill: #262626" transform="translate(269.422768 400.336391) scale(0.231 -0.231)">
       <use xlink:href="#DejaVuSans-32"/>
       <use xlink:href="#DejaVuSans-35" x="63.623047"/>
       <use xlink:href="#DejaVuSans-30" x="127.246094"/>
      </g>
     </g>
    </g>
    <g id="xtick_15">
     <g id="line2d_39">
      <path d="M 380.680161 373.284 
L 380.680161 271.128 
" clip-path="url(#p74e7d65155)" style="fill: none; stroke: #ffffff; stroke-linecap: round"/>
     </g>
     <g id="text_14">
      <!-- 500 -->
      <g style="fill: #262626" transform="translate(358.634098 400.336391) scale(0.231 -0.231)">
       <use xlink:href="#DejaVuSans-35"/>
       <use xlink:href="#DejaVuSans-30" x="63.623047"/>
       <use xlink:href="#DejaVuSans-30" x="127.246094"/>
      </g>
     </g>
    </g>
    <g id="xtick_16">
     <g id="line2d_40">
      <path d="M 469.891491 373.284 
L 469.891491 271.128 
" clip-path="url(#p74e7d65155)" style="fill: none; stroke: #ffffff; stroke-linecap: round"/>
     </g>
     <g id="text_15">
      <!-- 750 -->
      <g style="fill: #262626" transform="translate(447.845429 400.336391) scale(0.231 -0.231)">
       <use xlink:href="#DejaVuSans-37"/>
       <use xlink:href="#DejaVuSans-35" x="63.623047"/>
       <use xlink:href="#DejaVuSans-30" x="127.246094"/>
      </g>
     </g>
    </g>
    <g id="text_16">
     <!-- step -->
     <g style="fill: #262626" transform="translate(305.072245 428.288531) scale(0.252 -0.252)">
      <use xlink:href="#DejaVuSans-73"/>
      <use xlink:href="#DejaVuSans-74" x="52.099609"/>
      <use xlink:href="#DejaVuSans-65" x="91.308594"/>
      <use xlink:href="#DejaVuSans-70" x="152.832031"/>
     </g>
    </g>
   </g>
   <g id="matplotlib.axis_8">
    <g id="ytick_7">
     <g id="line2d_41">
      <path d="M 189.250488 335.608055 
L 475.404752 335.608055 
" clip-path="url(#p74e7d65155)" style="fill: none; stroke: #ffffff; stroke-linecap: round"/>
     </g>
     <g id="text_17">
      <!-- −0.05 -->
      <g style="fill: #262626" transform="translate(108.959816 344.38425) scale(0.231 -0.231)">
       <use xlink:href="#DejaVuSans-2212"/>
       <use xlink:href="#DejaVuSans-30" x="83.789062"/>
       <use xlink:href="#DejaVuSans-2e" x="147.412109"/>
       <use xlink:href="#DejaVuSans-30" x="179.199219"/>
       <use xlink:href="#DejaVuSans-35" x="242.822266"/>
      </g>
     </g>
    </g>
    <g id="ytick_8">
     <g id="line2d_42">
      <path d="M 189.250488 275.771455 
L 475.404752 275.771455 
" clip-path="url(#p74e7d65155)" style="fill: none; stroke: #ffffff; stroke-linecap: round"/>
     </g>
     <g id="text_18">
      <!-- 0.00 -->
      <g style="fill: #262626" transform="translate(128.316894 284.54765) scale(0.231 -0.231)">
       <use xlink:href="#DejaVuSans-30"/>
       <use xlink:href="#DejaVuSans-2e" x="63.623047"/>
       <use xlink:href="#DejaVuSans-30" x="95.410156"/>
       <use xlink:href="#DejaVuSans-30" x="159.033203"/>
      </g>
     </g>
    </g>
    <g id="text_19">
     <!-- % change -->
     <g style="fill: #262626" transform="translate(99.719004 384.554344) rotate(-90) scale(0.252 -0.252)">
      <use xlink:href="#DejaVuSans-25"/>
      <use xlink:href="#DejaVuSans-20" x="95.019531"/>
      <use xlink:href="#DejaVuSans-63" x="126.806641"/>
      <use xlink:href="#DejaVuSans-68" x="181.787109"/>
      <use xlink:href="#DejaVuSans-61" x="245.166016"/>
      <use xlink:href="#DejaVuSans-6e" x="306.445312"/>
      <use xlink:href="#DejaVuSans-67" x="369.824219"/>
      <use xlink:href="#DejaVuSans-65" x="433.300781"/>
     </g>
    </g>
   </g>
   <g id="PolyCollection_19"/>
   <g id="PolyCollection_20"/>
   <g id="PolyCollection_21"/>
   <g id="PolyCollection_22"/>
   <g id="PolyCollection_23"/>
   <g id="PolyCollection_24"/>
   <g id="line2d_43">
    <path d="M 202.2575 275.771455 
L 205.112263 283.242695 
L 210.108097 296.102737 
L 212.96286 302.697592 
L 215.817622 308.709559 
L 218.672385 314.187419 
L 221.527147 319.175743 
L 224.38191 323.715319 
L 227.236673 327.843507 
L 230.091435 331.594538 
L 232.946198 334.999783 
L 235.80096 338.087971 
L 239.012568 341.215892 
L 242.224176 344.010362 
L 245.435784 346.50269 
L 248.647392 348.721035 
L 251.859 350.691237 
L 255.427453 352.617284 
L 258.995906 354.29386 
L 262.921205 355.88059 
L 266.846503 357.231837 
L 271.128647 358.471132 
L 275.767636 359.574152 
L 280.763471 360.520577 
L 286.116151 361.295913 
L 291.825676 361.89174 
L 297.892046 362.305059 
L 304.672107 362.545147 
L 313.950086 362.617812 
L 325.012291 362.472564 
L 338.572413 362.061809 
L 356.414679 361.513781 
L 386.746531 360.888394 
L 454.903988 359.682403 
L 462.39774 359.557765 
L 462.39774 359.557765 
" clip-path="url(#p74e7d65155)" style="fill: none; stroke: #4c72b0; stroke-opacity: 0.9; stroke-width: 3; stroke-linecap: round"/>
   </g>
   <g id="line2d_44">
    <path d="M 202.2575 275.771455 
L 204.398572 281.261168 
L 210.108097 295.837281 
L 212.96286 302.372129 
L 215.817622 308.333064 
L 218.672385 313.768151 
L 221.527147 318.721285 
L 224.38191 323.232622 
L 227.236673 327.338968 
L 230.091435 331.074068 
L 232.946198 334.468937 
L 235.80096 337.551931 
L 239.012568 340.679723 
L 242.224176 343.479222 
L 245.435784 345.980939 
L 248.647392 348.212509 
L 252.215845 350.405621 
L 255.784298 352.32775 
L 259.352752 354.006891 
L 263.27805 355.602932 
L 267.203349 356.965153 
L 271.485493 358.215591 
L 276.124482 359.332386 
L 281.120316 360.303387 
L 286.472996 361.115623 
L 292.182521 361.760924 
L 298.605737 362.258299 
L 305.742643 362.577308 
L 314.663776 362.727593 
L 325.725981 362.685758 
L 338.929258 362.406004 
L 379.609625 361.349685 
L 462.39774 359.788526 
L 462.39774 359.788526 
" clip-path="url(#p74e7d65155)" style="fill: none; stroke: #dd8452; stroke-opacity: 0.9; stroke-width: 3; stroke-linecap: round"/>
   </g>
   <g id="line2d_45">
    <path d="M 202.2575 275.771455 
L 204.041727 280.747526 
L 209.751252 296.698595 
L 212.606014 303.878698 
L 215.460777 310.422277 
L 218.31554 316.382803 
L 221.170302 321.809148 
L 224.025065 326.746392 
L 226.879827 331.235482 
L 229.73459 335.313647 
L 232.589352 339.015004 
L 235.444115 342.370898 
L 238.298878 345.410006 
L 241.510485 348.482925 
L 244.722093 351.222213 
L 247.933701 353.658951 
L 251.145309 355.821518 
L 254.356917 357.73563 
L 257.92537 359.599538 
L 261.493823 361.214734 
L 265.419122 362.735615 
L 269.344421 364.018419 
L 273.626564 365.178554 
L 278.265554 366.189427 
L 283.261388 367.033797 
L 288.614068 367.703002 
L 294.323593 368.191792 
L 300.746809 368.510195 
L 308.240561 368.638355 
L 317.161694 368.560946 
L 328.580744 368.22873 
L 350.348309 367.574239 
L 378.539089 366.965768 
L 411.368859 366.468308 
L 462.39774 365.811278 
L 462.39774 365.811278 
" clip-path="url(#p74e7d65155)" style="fill: none; stroke: #55a868; stroke-opacity: 0.9; stroke-width: 3; stroke-linecap: round"/>
   </g>
   <g id="line2d_46">
    <path d="M 202.2575 275.771455 
L 204.041727 280.587628 
L 209.751252 296.031806 
L 212.606014 302.986155 
L 215.460777 309.324917 
L 218.31554 315.099659 
L 221.170302 320.357493 
L 224.025065 325.141502 
L 226.879827 329.491147 
L 229.73459 333.442555 
L 232.589352 337.028816 
L 235.444115 340.280283 
L 238.298878 343.224787 
L 241.510485 346.202077 
L 244.722093 348.85614 
L 247.933701 351.21705 
L 251.145309 353.312262 
L 254.713762 355.358766 
L 258.282216 357.138853 
L 261.850669 358.680795 
L 265.775967 360.131991 
L 269.701266 361.355933 
L 273.98341 362.463052 
L 278.622399 363.428649 
L 283.618233 364.235712 
L 288.970913 364.874874 
L 295.037284 365.365155 
L 301.4605 365.659403 
L 309.311097 365.778102 
L 318.589075 365.688946 
L 332.506042 365.298326 
L 359.269442 364.620274 
L 396.381355 363.906345 
L 462.39774 363.012349 
L 462.39774 363.012349 
" clip-path="url(#p74e7d65155)" style="fill: none; stroke: #c44e52; stroke-opacity: 0.9; stroke-width: 3; stroke-linecap: round"/>
   </g>
   <g id="line2d_47">
    <path d="M 202.2575 275.771455 
L 204.755417 282.575579 
L 209.751252 296.038226 
L 212.606014 302.976809 
L 215.460777 309.303125 
L 218.31554 315.068486 
L 221.170302 320.319825 
L 224.025065 325.100069 
L 226.879827 329.448502 
L 229.73459 333.401087 
L 232.589352 336.990763 
L 235.444115 340.24769 
L 238.298878 343.199465 
L 241.510485 346.186838 
L 244.722093 348.852681 
L 247.933701 351.226685 
L 251.145309 353.335775 
L 254.713762 355.398133 
L 258.282216 357.193761 
L 261.850669 358.749762 
L 265.775967 360.213516 
L 269.701266 361.446109 
L 273.98341 362.557591 
L 278.622399 363.520207 
L 283.618233 364.314922 
L 288.970913 364.930213 
L 294.680438 365.357155 
L 300.746809 365.592127 
L 307.883715 365.642298 
L 316.804848 365.469169 
L 328.937589 364.983891 
L 347.136701 364.008407 
L 379.25278 362.266968 
L 398.165582 361.606065 
L 424.928981 360.887353 
L 462.39774 360.052248 
L 462.39774 360.052248 
" clip-path="url(#p74e7d65155)" style="fill: none; stroke: #8172b3; stroke-opacity: 0.9; stroke-width: 3; stroke-linecap: round"/>
   </g>
   <g id="line2d_48">
    <path d="M 202.2575 275.771455 
L 205.112263 283.332675 
L 210.108097 296.327354 
L 212.96286 302.987486 
L 215.817622 309.060765 
L 218.672385 314.596419 
L 221.527147 319.639494 
L 224.38191 324.23122 
L 227.236673 328.409322 
L 230.091435 332.208388 
L 232.946198 335.660066 
L 235.80096 338.793286 
L 239.012568 341.970393 
L 242.224176 344.812259 
L 245.435784 347.350007 
L 248.647392 349.611833 
L 251.859 351.623252 
L 255.427453 353.592537 
L 258.995906 355.309837 
L 262.921205 356.938945 
L 266.846503 358.325431 
L 271.128647 359.592951 
L 275.410791 360.634857 
L 280.04978 361.540832 
L 285.045615 362.294282 
L 290.398295 362.882522 
L 296.464665 363.317416 
L 302.887881 363.554448 
L 310.381633 363.606132 
L 320.373302 363.44397 
L 333.576578 362.997226 
L 354.273607 362.034439 
L 376.041172 361.065226 
L 401.020344 360.246955 
L 436.704876 359.29271 
L 462.39774 358.71575 
L 462.39774 358.71575 
" clip-path="url(#p74e7d65155)" style="fill: none; stroke: #937860; stroke-opacity: 0.9; stroke-width: 3; stroke-linecap: round"/>
   </g>
   <g id="patch_12">
    <path d="M 189.250488 373.284 
L 189.250488 271.128 
" style="fill: none; stroke: #ffffff; stroke-width: 1.25; stroke-linejoin: miter; stroke-linecap: square"/>
   </g>
   <g id="patch_13">
    <path d="M 189.250488 373.284 
L 475.404752 373.284 
" style="fill: none; stroke: #ffffff; stroke-width: 1.25; stroke-linejoin: miter; stroke-linecap: square"/>
   </g>
   <g id="text_20">
    <!-- 0.85~365 -->
    <g style="fill: #262626" transform="translate(269.664276 265.128) scale(0.252 -0.252)">
     <use xlink:href="#DejaVuSans-30"/>
     <use xlink:href="#DejaVuSans-2e" x="63.623047"/>
     <use xlink:href="#DejaVuSans-38" x="95.410156"/>
     <use xlink:href="#DejaVuSans-35" x="159.033203"/>
     <use xlink:href="#DejaVuSans-7e" x="222.65625"/>
     <use xlink:href="#DejaVuSans-33" x="306.445312"/>
     <use xlink:href="#DejaVuSans-36" x="370.068359"/>
     <use xlink:href="#DejaVuSans-35" x="433.691406"/>
    </g>
   </g>
  </g>
  <g id="axes_5">
   <g id="patch_14">
    <path d="M 501.852899 373.284 
L 788.007162 373.284 
L 788.007162 271.128 
L 501.852899 271.128 
z
" style="fill: #eaeaf2"/>
   </g>
   <g id="matplotlib.axis_9">
    <g id="xtick_17">
     <g id="line2d_49">
      <path d="M 514.859911 373.284 
L 514.859911 271.128 
" clip-path="url(#p9cb1d62765)" style="fill: none; stroke: #ffffff; stroke-linecap: round"/>
     </g>
     <g id="text_21">
      <!-- 0 -->
      <g style="fill: #262626" transform="translate(507.511224 400.336391) scale(0.231 -0.231)">
       <use xlink:href="#DejaVuSans-30"/>
      </g>
     </g>
    </g>
    <g id="xtick_18">
     <g id="line2d_50">
      <path d="M 604.071241 373.284 
L 604.071241 271.128 
" clip-path="url(#p9cb1d62765)" style="fill: none; stroke: #ffffff; stroke-linecap: round"/>
     </g>
     <g id="text_22">
      <!-- 250 -->
      <g style="fill: #262626" transform="translate(582.025179 400.336391) scale(0.231 -0.231)">
       <use xlink:href="#DejaVuSans-32"/>
       <use xlink:href="#DejaVuSans-35" x="63.623047"/>
       <use xlink:href="#DejaVuSans-30" x="127.246094"/>
      </g>
     </g>
    </g>
    <g id="xtick_19">
     <g id="line2d_51">
      <path d="M 693.282572 373.284 
L 693.282572 271.128 
" clip-path="url(#p9cb1d62765)" style="fill: none; stroke: #ffffff; stroke-linecap: round"/>
     </g>
     <g id="text_23">
      <!-- 500 -->
      <g style="fill: #262626" transform="translate(671.236509 400.336391) scale(0.231 -0.231)">
       <use xlink:href="#DejaVuSans-35"/>
       <use xlink:href="#DejaVuSans-30" x="63.623047"/>
       <use xlink:href="#DejaVuSans-30" x="127.246094"/>
      </g>
     </g>
    </g>
    <g id="xtick_20">
     <g id="line2d_52">
      <path d="M 782.493902 373.284 
L 782.493902 271.128 
" clip-path="url(#p9cb1d62765)" style="fill: none; stroke: #ffffff; stroke-linecap: round"/>
     </g>
     <g id="text_24">
      <!-- 750 -->
      <g style="fill: #262626" transform="translate(760.44784 400.336391) scale(0.231 -0.231)">
       <use xlink:href="#DejaVuSans-37"/>
       <use xlink:href="#DejaVuSans-35" x="63.623047"/>
       <use xlink:href="#DejaVuSans-30" x="127.246094"/>
      </g>
     </g>
    </g>
    <g id="text_25">
     <!-- step -->
     <g style="fill: #262626" transform="translate(617.674656 428.288531) scale(0.252 -0.252)">
      <use xlink:href="#DejaVuSans-73"/>
      <use xlink:href="#DejaVuSans-74" x="52.099609"/>
      <use xlink:href="#DejaVuSans-65" x="91.308594"/>
      <use xlink:href="#DejaVuSans-70" x="152.832031"/>
     </g>
    </g>
   </g>
   <g id="matplotlib.axis_10">
    <g id="ytick_9">
     <g id="line2d_53">
      <path d="M 501.852899 335.608055 
L 788.007162 335.608055 
" clip-path="url(#p9cb1d62765)" style="fill: none; stroke: #ffffff; stroke-linecap: round"/>
     </g>
    </g>
    <g id="ytick_10">
     <g id="line2d_54">
      <path d="M 501.852899 275.771455 
L 788.007162 275.771455 
" clip-path="url(#p9cb1d62765)" style="fill: none; stroke: #ffffff; stroke-linecap: round"/>
     </g>
    </g>
   </g>
   <g id="PolyCollection_25"/>
   <g id="PolyCollection_26"/>
   <g id="PolyCollection_27"/>
   <g id="PolyCollection_28"/>
   <g id="PolyCollection_29"/>
   <g id="PolyCollection_30"/>
   <g id="line2d_55">
    <path d="M 514.859911 275.771455 
L 518.071519 284.141203 
L 522.353663 294.988508 
L 524.85158 300.665545 
L 527.349497 305.837552 
L 529.847415 310.542271 
L 532.345332 314.814392 
L 534.843249 318.686621 
L 537.341166 322.189847 
L 539.839084 325.351644 
L 542.337001 328.197237 
L 545.191763 331.092036 
L 548.046526 333.64315 
L 550.901289 335.885162 
L 553.756051 337.844323 
L 556.610814 339.548271 
L 559.822422 341.188129 
L 563.034029 342.561301 
L 566.245637 343.693007 
L 569.457245 344.606204 
L 573.025698 345.389913 
L 576.594152 345.955278 
L 580.51945 346.354145 
L 585.515285 346.623753 
L 590.867965 346.685949 
L 596.934335 346.523354 
L 605.855468 346.006881 
L 645.822144 343.348494 
L 684.361439 340.837627 
L 775.000151 335.546864 
L 775.000151 335.546864 
" clip-path="url(#p9cb1d62765)" style="fill: none; stroke: #4c72b0; stroke-opacity: 0.9; stroke-width: 3; stroke-linecap: round"/>
   </g>
   <g id="line2d_56">
    <path d="M 514.859911 275.771455 
L 517.357828 282.170212 
L 522.353663 294.769029 
L 524.85158 300.42084 
L 527.349497 305.581943 
L 529.847415 310.289078 
L 532.345332 314.575957 
L 534.843249 318.473536 
L 537.341166 322.010413 
L 540.195929 325.644805 
L 543.050691 328.880247 
L 545.905454 331.750817 
L 548.760217 334.287988 
L 551.614979 336.520369 
L 554.469742 338.476205 
L 557.324504 340.18675 
L 560.536112 341.847786 
L 563.74772 343.25921 
L 566.959328 344.444765 
L 570.527781 345.522824 
L 574.096234 346.37445 
L 578.021533 347.07771 
L 582.303677 347.599457 
L 587.299511 347.974491 
L 593.009036 348.165121 
L 599.075407 348.138813 
L 607.282849 347.847038 
L 619.058745 347.215745 
L 639.398928 345.858825 
L 775.000151 336.589919 
L 775.000151 336.589919 
" clip-path="url(#p9cb1d62765)" style="fill: none; stroke: #dd8452; stroke-opacity: 0.9; stroke-width: 3; stroke-linecap: round"/>
   </g>
   <g id="line2d_57">
    <path d="M 514.859911 275.771455 
L 517.000983 281.742673 
L 521.996818 295.511122 
L 524.494735 301.699408 
L 526.992652 307.334654 
L 529.490569 312.458546 
L 531.988487 317.110001 
L 534.486404 321.324236 
L 536.984321 325.133698 
L 539.482238 328.568645 
L 541.980156 331.656912 
L 544.478073 334.424782 
L 546.97599 336.89659 
L 549.830753 339.388512 
L 552.685515 341.554894 
L 555.540278 343.426967 
L 558.39504 345.03076 
L 561.249803 346.392484 
L 564.461411 347.666084 
L 567.673019 348.693382 
L 570.884627 349.497359 
L 574.45308 350.157952 
L 578.021533 350.599907 
L 582.303677 350.887342 
L 586.942666 350.966907 
L 592.295346 350.82646 
L 600.145943 350.355275 
L 626.909342 348.438087 
L 647.606371 347.097708 
L 673.299234 345.700734 
L 734.319784 342.656083 
L 775.000151 340.646737 
L 775.000151 340.646737 
" clip-path="url(#p9cb1d62765)" style="fill: none; stroke: #55a868; stroke-opacity: 0.9; stroke-width: 3; stroke-linecap: round"/>
   </g>
   <g id="line2d_58">
    <path d="M 514.859911 275.771455 
L 517.000983 281.551113 
L 521.996818 294.88315 
L 524.494735 300.877622 
L 526.992652 306.337263 
L 529.490569 311.302132 
L 531.988487 315.809136 
L 534.486404 319.892147 
L 536.984321 323.582523 
L 539.482238 326.909455 
L 541.980156 329.899969 
L 544.478073 332.58081 
L 547.332835 335.30133 
L 550.187598 337.685793 
L 553.04236 339.762637 
L 555.897123 341.558772 
L 558.751886 343.098999 
L 561.606648 344.40759 
L 564.818256 345.631342 
L 568.029864 346.617984 
L 571.598317 347.464236 
L 575.16677 348.076392 
L 579.092069 348.508794 
L 583.374213 348.747455 
L 588.370047 348.792016 
L 594.436418 348.599676 
L 605.855468 347.942329 
L 666.876018 344.165951 
L 731.108176 340.831922 
L 775.000151 338.562995 
L 775.000151 338.562995 
" clip-path="url(#p9cb1d62765)" style="fill: none; stroke: #c44e52; stroke-opacity: 0.9; stroke-width: 3; stroke-linecap: round"/>
   </g>
   <g id="line2d_59">
    <path d="M 514.859911 275.771455 
L 517.714674 283.520966 
L 521.996818 294.893169 
L 524.494735 300.877318 
L 526.992652 306.33155 
L 529.490569 311.295565 
L 531.988487 315.805929 
L 534.486404 319.896359 
L 536.984321 323.598007 
L 539.482238 326.939722 
L 541.980156 329.948128 
L 544.478073 332.647969 
L 547.332835 335.384755 
L 550.187598 337.779316 
L 553.04236 339.861197 
L 555.897123 341.656711 
L 558.751886 343.189516 
L 561.606648 344.484085 
L 564.818256 345.684018 
L 568.029864 346.636666 
L 571.241472 347.364721 
L 574.809925 347.935338 
L 578.378378 348.282172 
L 582.660522 348.458521 
L 587.299511 348.412466 
L 592.652191 348.132053 
L 598.718562 347.593899 
L 606.212313 346.702076 
L 618.7019 344.924848 
L 631.548331 343.252394 
L 643.681072 341.896866 
L 656.170658 340.697092 
L 673.299234 339.290656 
L 690.427809 338.063834 
L 723.614424 335.962907 
L 775.000151 332.819581 
L 775.000151 332.819581 
" clip-path="url(#p9cb1d62765)" style="fill: none; stroke: #8172b3; stroke-opacity: 0.9; stroke-width: 3; stroke-linecap: round"/>
   </g>
   <g id="line2d_60">
    <path d="M 514.859911 275.771455 
L 518.071519 284.242189 
L 522.353663 295.212806 
L 524.85158 300.955458 
L 527.349497 306.192477 
L 529.847415 310.961811 
L 532.345332 315.298526 
L 534.843249 319.235075 
L 537.341166 322.801259 
L 539.839084 326.024574 
L 542.337001 328.930423 
L 545.191763 331.89323 
L 548.046526 334.505657 
L 550.901289 336.79716 
L 553.756051 338.794597 
L 556.610814 340.522532 
L 559.465576 342.004493 
L 562.677184 343.406889 
L 565.888792 344.554599 
L 569.1004 345.472104 
L 572.668853 346.247732 
L 576.237306 346.79231 
L 580.162605 347.157024 
L 584.444749 347.328191 
L 589.797429 347.304475 
L 595.863799 347.03407 
L 602.64386 346.494312 
L 610.851303 345.601786 
L 637.257856 342.536711 
L 659.382266 340.289714 
L 672.585543 339.173899 
L 696.49418 337.360631 
L 736.817701 334.630081 
L 775.000151 332.099169 
L 775.000151 332.099169 
" clip-path="url(#p9cb1d62765)" style="fill: none; stroke: #937860; stroke-opacity: 0.9; stroke-width: 3; stroke-linecap: round"/>
   </g>
   <g id="patch_15">
    <path d="M 501.852899 373.284 
L 501.852899 271.128 
" style="fill: none; stroke: #ffffff; stroke-width: 1.25; stroke-linejoin: miter; stroke-linecap: square"/>
   </g>
   <g id="patch_16">
    <path d="M 501.852899 373.284 
L 788.007162 373.284 
" style="fill: none; stroke: #ffffff; stroke-width: 1.25; stroke-linejoin: miter; stroke-linecap: square"/>
   </g>
   <g id="text_26">
    <!-- 0.95~90 -->
    <g style="fill: #262626" transform="translate(590.283437 265.128) scale(0.252 -0.252)">
     <use xlink:href="#DejaVuSans-30"/>
     <use xlink:href="#DejaVuSans-2e" x="63.623047"/>
     <use xlink:href="#DejaVuSans-39" x="95.410156"/>
     <use xlink:href="#DejaVuSans-35" x="159.033203"/>
     <use xlink:href="#DejaVuSans-7e" x="222.65625"/>
     <use xlink:href="#DejaVuSans-39" x="306.445312"/>
     <use xlink:href="#DejaVuSans-30" x="370.068359"/>
    </g>
   </g>
  </g>
  <g id="text_27">
   <!-- Production change from pre-shock level -->
   <g style="fill: #262626" transform="translate(280.766836 30.177675) scale(0.3024 -0.3024)">
    <defs>
     <path id="DejaVuSans-50" d="M 1259 4147 
L 1259 2394 
L 2053 2394 
Q 2494 2394 2734 2622 
Q 2975 2850 2975 3272 
Q 2975 3691 2734 3919 
Q 2494 4147 2053 4147 
L 1259 4147 
z
M 628 4666 
L 2053 4666 
Q 2838 4666 3239 4311 
Q 3641 3956 3641 3272 
Q 3641 2581 3239 2228 
Q 2838 1875 2053 1875 
L 1259 1875 
L 1259 0 
L 628 0 
L 628 4666 
z
" transform="scale(0.015625)"/>
     <path id="DejaVuSans-72" d="M 2631 2963 
Q 2534 3019 2420 3045 
Q 2306 3072 2169 3072 
Q 1681 3072 1420 2755 
Q 1159 2438 1159 1844 
L 1159 0 
L 581 0 
L 581 3500 
L 1159 3500 
L 1159 2956 
Q 1341 3275 1631 3429 
Q 1922 3584 2338 3584 
Q 2397 3584 2469 3576 
Q 2541 3569 2628 3553 
L 2631 2963 
z
" transform="scale(0.015625)"/>
     <path id="DejaVuSans-6f" d="M 1959 3097 
Q 1497 3097 1228 2736 
Q 959 2375 959 1747 
Q 959 1119 1226 758 
Q 1494 397 1959 397 
Q 2419 397 2687 759 
Q 2956 1122 2956 1747 
Q 2956 2369 2687 2733 
Q 2419 3097 1959 3097 
z
M 1959 3584 
Q 2709 3584 3137 3096 
Q 3566 2609 3566 1747 
Q 3566 888 3137 398 
Q 2709 -91 1959 -91 
Q 1206 -91 779 398 
Q 353 888 353 1747 
Q 353 2609 779 3096 
Q 1206 3584 1959 3584 
z
" transform="scale(0.015625)"/>
     <path id="DejaVuSans-64" d="M 2906 2969 
L 2906 4863 
L 3481 4863 
L 3481 0 
L 2906 0 
L 2906 525 
Q 2725 213 2448 61 
Q 2172 -91 1784 -91 
Q 1150 -91 751 415 
Q 353 922 353 1747 
Q 353 2572 751 3078 
Q 1150 3584 1784 3584 
Q 2172 3584 2448 3432 
Q 2725 3281 2906 2969 
z
M 947 1747 
Q 947 1113 1208 752 
Q 1469 391 1925 391 
Q 2381 391 2643 752 
Q 2906 1113 2906 1747 
Q 2906 2381 2643 2742 
Q 2381 3103 1925 3103 
Q 1469 3103 1208 2742 
Q 947 2381 947 1747 
z
" transform="scale(0.015625)"/>
     <path id="DejaVuSans-75" d="M 544 1381 
L 544 3500 
L 1119 3500 
L 1119 1403 
Q 1119 906 1312 657 
Q 1506 409 1894 409 
Q 2359 409 2629 706 
Q 2900 1003 2900 1516 
L 2900 3500 
L 3475 3500 
L 3475 0 
L 2900 0 
L 2900 538 
Q 2691 219 2414 64 
Q 2138 -91 1772 -91 
Q 1169 -91 856 284 
Q 544 659 544 1381 
z
M 1991 3584 
L 1991 3584 
z
" transform="scale(0.015625)"/>
     <path id="DejaVuSans-69" d="M 603 3500 
L 1178 3500 
L 1178 0 
L 603 0 
L 603 3500 
z
M 603 4863 
L 1178 4863 
L 1178 4134 
L 603 4134 
L 603 4863 
z
" transform="scale(0.015625)"/>
     <path id="DejaVuSans-66" d="M 2375 4863 
L 2375 4384 
L 1825 4384 
Q 1516 4384 1395 4259 
Q 1275 4134 1275 3809 
L 1275 3500 
L 2222 3500 
L 2222 3053 
L 1275 3053 
L 1275 0 
L 697 0 
L 697 3053 
L 147 3053 
L 147 3500 
L 697 3500 
L 697 3744 
Q 697 4328 969 4595 
Q 1241 4863 1831 4863 
L 2375 4863 
z
" transform="scale(0.015625)"/>
     <path id="DejaVuSans-6d" d="M 3328 2828 
Q 3544 3216 3844 3400 
Q 4144 3584 4550 3584 
Q 5097 3584 5394 3201 
Q 5691 2819 5691 2113 
L 5691 0 
L 5113 0 
L 5113 2094 
Q 5113 2597 4934 2840 
Q 4756 3084 4391 3084 
Q 3944 3084 3684 2787 
Q 3425 2491 3425 1978 
L 3425 0 
L 2847 0 
L 2847 2094 
Q 2847 2600 2669 2842 
Q 2491 3084 2119 3084 
Q 1678 3084 1418 2786 
Q 1159 2488 1159 1978 
L 1159 0 
L 581 0 
L 581 3500 
L 1159 3500 
L 1159 2956 
Q 1356 3278 1631 3431 
Q 1906 3584 2284 3584 
Q 2666 3584 2933 3390 
Q 3200 3197 3328 2828 
z
" transform="scale(0.015625)"/>
     <path id="DejaVuSans-2d" d="M 313 2009 
L 1997 2009 
L 1997 1497 
L 313 1497 
L 313 2009 
z
" transform="scale(0.015625)"/>
     <path id="DejaVuSans-6b" d="M 581 4863 
L 1159 4863 
L 1159 1991 
L 2875 3500 
L 3609 3500 
L 1753 1863 
L 3688 0 
L 2938 0 
L 1159 1709 
L 1159 0 
L 581 0 
L 581 4863 
z
" transform="scale(0.015625)"/>
     <path id="DejaVuSans-6c" d="M 603 4863 
L 1178 4863 
L 1178 0 
L 603 0 
L 603 4863 
z
" transform="scale(0.015625)"/>
     <path id="DejaVuSans-76" d="M 191 3500 
L 800 3500 
L 1894 563 
L 2988 3500 
L 3597 3500 
L 2284 0 
L 1503 0 
L 191 3500 
z
" transform="scale(0.015625)"/>
    </defs>
    <use xlink:href="#DejaVuSans-50"/>
    <use xlink:href="#DejaVuSans-72" x="58.552734"/>
    <use xlink:href="#DejaVuSans-6f" x="97.416016"/>
    <use xlink:href="#DejaVuSans-64" x="158.597656"/>
    <use xlink:href="#DejaVuSans-75" x="222.074219"/>
    <use xlink:href="#DejaVuSans-63" x="285.453125"/>
    <use xlink:href="#DejaVuSans-74" x="340.433594"/>
    <use xlink:href="#DejaVuSans-69" x="379.642578"/>
    <use xlink:href="#DejaVuSans-6f" x="407.425781"/>
    <use xlink:href="#DejaVuSans-6e" x="468.607422"/>
    <use xlink:href="#DejaVuSans-20" x="531.986328"/>
    <use xlink:href="#DejaVuSans-63" x="563.773438"/>
    <use xlink:href="#DejaVuSans-68" x="618.753906"/>
    <use xlink:href="#DejaVuSans-61" x="682.132812"/>
    <use xlink:href="#DejaVuSans-6e" x="743.412109"/>
    <use xlink:href="#DejaVuSans-67" x="806.791016"/>
    <use xlink:href="#DejaVuSans-65" x="870.267578"/>
    <use xlink:href="#DejaVuSans-20" x="931.791016"/>
    <use xlink:href="#DejaVuSans-66" x="963.578125"/>
    <use xlink:href="#DejaVuSans-72" x="998.783203"/>
    <use xlink:href="#DejaVuSans-6f" x="1037.646484"/>
    <use xlink:href="#DejaVuSans-6d" x="1098.828125"/>
    <use xlink:href="#DejaVuSans-20" x="1196.240234"/>
    <use xlink:href="#DejaVuSans-70" x="1228.027344"/>
    <use xlink:href="#DejaVuSans-72" x="1291.503906"/>
    <use xlink:href="#DejaVuSans-65" x="1330.367188"/>
    <use xlink:href="#DejaVuSans-2d" x="1391.890625"/>
    <use xlink:href="#DejaVuSans-73" x="1427.974609"/>
    <use xlink:href="#DejaVuSans-68" x="1480.074219"/>
    <use xlink:href="#DejaVuSans-6f" x="1543.453125"/>
    <use xlink:href="#DejaVuSans-63" x="1604.634766"/>
    <use xlink:href="#DejaVuSans-6b" x="1659.615234"/>
    <use xlink:href="#DejaVuSans-20" x="1717.525391"/>
    <use xlink:href="#DejaVuSans-6c" x="1749.3125"/>
    <use xlink:href="#DejaVuSans-65" x="1777.095703"/>
    <use xlink:href="#DejaVuSans-76" x="1838.619141"/>
    <use xlink:href="#DejaVuSans-65" x="1897.798828"/>
    <use xlink:href="#DejaVuSans-6c" x="1959.322266"/>
   </g>
  </g>
  <g id="legend_1">
   <g id="patch_17">
    <path d="M 11.82 584.31675 
L 1292.617547 584.31675 
Q 1297.237547 584.31675 1297.237547 579.69675 
L 1297.237547 476.97 
Q 1297.237547 472.35 1292.617547 472.35 
L 11.82 472.35 
Q 7.2 472.35 7.2 476.97 
L 7.2 579.69675 
Q 7.2 584.31675 11.82 584.31675 
z
" style="fill: #eaeaf2; opacity: 0.8; stroke: #cccccc; stroke-linejoin: miter"/>
   </g>
   <g id="text_28">
    <!-- Experiences -->
    <g style="fill: #262626" transform="translate(575.384367 500.738062) scale(0.252 -0.252)">
     <defs>
      <path id="DejaVuSans-45" d="M 628 4666 
L 3578 4666 
L 3578 4134 
L 1259 4134 
L 1259 2753 
L 3481 2753 
L 3481 2222 
L 1259 2222 
L 1259 531 
L 3634 531 
L 3634 0 
L 628 0 
L 628 4666 
z
" transform="scale(0.015625)"/>
      <path id="DejaVuSans-78" d="M 3513 3500 
L 2247 1797 
L 3578 0 
L 2900 0 
L 1881 1375 
L 863 0 
L 184 0 
L 1544 1831 
L 300 3500 
L 978 3500 
L 1906 2253 
L 2834 3500 
L 3513 3500 
z
" transform="scale(0.015625)"/>
     </defs>
     <use xlink:href="#DejaVuSans-45"/>
     <use xlink:href="#DejaVuSans-78" x="63.183594"/>
     <use xlink:href="#DejaVuSans-70" x="122.363281"/>
     <use xlink:href="#DejaVuSans-65" x="185.839844"/>
     <use xlink:href="#DejaVuSans-72" x="247.363281"/>
     <use xlink:href="#DejaVuSans-69" x="288.476562"/>
     <use xlink:href="#DejaVuSans-65" x="316.259766"/>
     <use xlink:href="#DejaVuSans-6e" x="377.783203"/>
     <use xlink:href="#DejaVuSans-63" x="441.162109"/>
     <use xlink:href="#DejaVuSans-65" x="496.142578"/>
     <use xlink:href="#DejaVuSans-73" x="557.666016"/>
    </g>
   </g>
   <g id="line2d_61">
    <path d="M 16.44 526.996266 
L 39.54 526.996266 
L 62.64 526.996266 
" style="fill: none; stroke: #4c72b0; stroke-opacity: 0.9; stroke-width: 3; stroke-linecap: round"/>
   </g>
   <g id="text_29">
    <!-- eora26_full_2000 -->
    <g style="fill: #262626" transform="translate(81.12 535.081266) scale(0.231 -0.231)">
     <defs>
      <path id="DejaVuSans-5f" d="M 3263 -1063 
L 3263 -1509 
L -63 -1509 
L -63 -1063 
L 3263 -1063 
z
" transform="scale(0.015625)"/>
     </defs>
     <use xlink:href="#DejaVuSans-65"/>
     <use xlink:href="#DejaVuSans-6f" x="61.523438"/>
     <use xlink:href="#DejaVuSans-72" x="122.705078"/>
     <use xlink:href="#DejaVuSans-61" x="163.818359"/>
     <use xlink:href="#DejaVuSans-32" x="225.097656"/>
     <use xlink:href="#DejaVuSans-36" x="288.720703"/>
     <use xlink:href="#DejaVuSans-5f" x="352.34375"/>
     <use xlink:href="#DejaVuSans-66" x="402.34375"/>
     <use xlink:href="#DejaVuSans-75" x="437.548828"/>
     <use xlink:href="#DejaVuSans-6c" x="500.927734"/>
     <use xlink:href="#DejaVuSans-6c" x="528.710938"/>
     <use xlink:href="#DejaVuSans-5f" x="556.494141"/>
     <use xlink:href="#DejaVuSans-32" x="606.494141"/>
     <use xlink:href="#DejaVuSans-30" x="670.117188"/>
     <use xlink:href="#DejaVuSans-30" x="733.740234"/>
     <use xlink:href="#DejaVuSans-30" x="797.363281"/>
    </g>
   </g>
   <g id="line2d_62">
    <path d="M 16.44 561.545203 
L 39.54 561.545203 
L 62.64 561.545203 
" style="fill: none; stroke: #dd8452; stroke-opacity: 0.9; stroke-width: 3; stroke-linecap: round"/>
   </g>
   <g id="text_30">
    <!-- eora26_full_2010 -->
    <g style="fill: #262626" transform="translate(81.12 569.630203) scale(0.231 -0.231)">
     <defs>
      <path id="DejaVuSans-31" d="M 794 531 
L 1825 531 
L 1825 4091 
L 703 3866 
L 703 4441 
L 1819 4666 
L 2450 4666 
L 2450 531 
L 3481 531 
L 3481 0 
L 794 0 
L 794 531 
z
" transform="scale(0.015625)"/>
     </defs>
     <use xlink:href="#DejaVuSans-65"/>
     <use xlink:href="#DejaVuSans-6f" x="61.523438"/>
     <use xlink:href="#DejaVuSans-72" x="122.705078"/>
     <use xlink:href="#DejaVuSans-61" x="163.818359"/>
     <use xlink:href="#DejaVuSans-32" x="225.097656"/>
     <use xlink:href="#DejaVuSans-36" x="288.720703"/>
     <use xlink:href="#DejaVuSans-5f" x="352.34375"/>
     <use xlink:href="#DejaVuSans-66" x="402.34375"/>
     <use xlink:href="#DejaVuSans-75" x="437.548828"/>
     <use xlink:href="#DejaVuSans-6c" x="500.927734"/>
     <use xlink:href="#DejaVuSans-6c" x="528.710938"/>
     <use xlink:href="#DejaVuSans-5f" x="556.494141"/>
     <use xlink:href="#DejaVuSans-32" x="606.494141"/>
     <use xlink:href="#DejaVuSans-30" x="670.117188"/>
     <use xlink:href="#DejaVuSans-31" x="733.740234"/>
     <use xlink:href="#DejaVuSans-30" x="797.363281"/>
    </g>
   </g>
   <g id="line2d_63">
    <path d="M 326.211 526.996266 
L 349.311 526.996266 
L 372.411 526.996266 
" style="fill: none; stroke: #55a868; stroke-opacity: 0.9; stroke-width: 3; stroke-linecap: round"/>
   </g>
   <g id="text_31">
    <!-- euregio_full_2000 -->
    <g style="fill: #262626" transform="translate(390.891 535.081266) scale(0.231 -0.231)">
     <use xlink:href="#DejaVuSans-65"/>
     <use xlink:href="#DejaVuSans-75" x="61.523438"/>
     <use xlink:href="#DejaVuSans-72" x="124.902344"/>
     <use xlink:href="#DejaVuSans-65" x="163.765625"/>
     <use xlink:href="#DejaVuSans-67" x="225.289062"/>
     <use xlink:href="#DejaVuSans-69" x="288.765625"/>
     <use xlink:href="#DejaVuSans-6f" x="316.548828"/>
     <use xlink:href="#DejaVuSans-5f" x="377.730469"/>
     <use xlink:href="#DejaVuSans-66" x="427.730469"/>
     <use xlink:href="#DejaVuSans-75" x="462.935547"/>
     <use xlink:href="#DejaVuSans-6c" x="526.314453"/>
     <use xlink:href="#DejaVuSans-6c" x="554.097656"/>
     <use xlink:href="#DejaVuSans-5f" x="581.880859"/>
     <use xlink:href="#DejaVuSans-32" x="631.880859"/>
     <use xlink:href="#DejaVuSans-30" x="695.503906"/>
     <use xlink:href="#DejaVuSans-30" x="759.126953"/>
     <use xlink:href="#DejaVuSans-30" x="822.75"/>
    </g>
   </g>
   <g id="line2d_64">
    <path d="M 326.211 561.545203 
L 349.311 561.545203 
L 372.411 561.545203 
" style="fill: none; stroke: #c44e52; stroke-opacity: 0.9; stroke-width: 3; stroke-linecap: round"/>
   </g>
   <g id="text_32">
    <!-- euregio_full_2010 -->
    <g style="fill: #262626" transform="translate(390.891 569.630203) scale(0.231 -0.231)">
     <use xlink:href="#DejaVuSans-65"/>
     <use xlink:href="#DejaVuSans-75" x="61.523438"/>
     <use xlink:href="#DejaVuSans-72" x="124.902344"/>
     <use xlink:href="#DejaVuSans-65" x="163.765625"/>
     <use xlink:href="#DejaVuSans-67" x="225.289062"/>
     <use xlink:href="#DejaVuSans-69" x="288.765625"/>
     <use xlink:href="#DejaVuSans-6f" x="316.548828"/>
     <use xlink:href="#DejaVuSans-5f" x="377.730469"/>
     <use xlink:href="#DejaVuSans-66" x="427.730469"/>
     <use xlink:href="#DejaVuSans-75" x="462.935547"/>
     <use xlink:href="#DejaVuSans-6c" x="526.314453"/>
     <use xlink:href="#DejaVuSans-6c" x="554.097656"/>
     <use xlink:href="#DejaVuSans-5f" x="581.880859"/>
     <use xlink:href="#DejaVuSans-32" x="631.880859"/>
     <use xlink:href="#DejaVuSans-30" x="695.503906"/>
     <use xlink:href="#DejaVuSans-31" x="759.126953"/>
     <use xlink:href="#DejaVuSans-30" x="822.75"/>
    </g>
   </g>
   <g id="line2d_65">
    <path d="M 641.847234 526.996266 
L 664.947234 526.996266 
L 688.047234 526.996266 
" style="fill: none; stroke: #8172b3; stroke-opacity: 0.9; stroke-width: 3; stroke-linecap: round"/>
   </g>
   <g id="text_33">
    <!-- exiobase3_full_2000 -->
    <g style="fill: #262626" transform="translate(706.527234 535.081266) scale(0.231 -0.231)">
     <defs>
      <path id="DejaVuSans-62" d="M 3116 1747 
Q 3116 2381 2855 2742 
Q 2594 3103 2138 3103 
Q 1681 3103 1420 2742 
Q 1159 2381 1159 1747 
Q 1159 1113 1420 752 
Q 1681 391 2138 391 
Q 2594 391 2855 752 
Q 3116 1113 3116 1747 
z
M 1159 2969 
Q 1341 3281 1617 3432 
Q 1894 3584 2278 3584 
Q 2916 3584 3314 3078 
Q 3713 2572 3713 1747 
Q 3713 922 3314 415 
Q 2916 -91 2278 -91 
Q 1894 -91 1617 61 
Q 1341 213 1159 525 
L 1159 0 
L 581 0 
L 581 4863 
L 1159 4863 
L 1159 2969 
z
" transform="scale(0.015625)"/>
     </defs>
     <use xlink:href="#DejaVuSans-65"/>
     <use xlink:href="#DejaVuSans-78" x="59.773438"/>
     <use xlink:href="#DejaVuSans-69" x="118.953125"/>
     <use xlink:href="#DejaVuSans-6f" x="146.736328"/>
     <use xlink:href="#DejaVuSans-62" x="207.917969"/>
     <use xlink:href="#DejaVuSans-61" x="271.394531"/>
     <use xlink:href="#DejaVuSans-73" x="332.673828"/>
     <use xlink:href="#DejaVuSans-65" x="384.773438"/>
     <use xlink:href="#DejaVuSans-33" x="446.296875"/>
     <use xlink:href="#DejaVuSans-5f" x="509.919922"/>
     <use xlink:href="#DejaVuSans-66" x="559.919922"/>
     <use xlink:href="#DejaVuSans-75" x="595.125"/>
     <use xlink:href="#DejaVuSans-6c" x="658.503906"/>
     <use xlink:href="#DejaVuSans-6c" x="686.287109"/>
     <use xlink:href="#DejaVuSans-5f" x="714.070312"/>
     <use xlink:href="#DejaVuSans-32" x="764.070312"/>
     <use xlink:href="#DejaVuSans-30" x="827.693359"/>
     <use xlink:href="#DejaVuSans-30" x="891.316406"/>
     <use xlink:href="#DejaVuSans-30" x="954.939453"/>
    </g>
   </g>
   <g id="line2d_66">
    <path d="M 988.022391 526.996266 
L 1011.122391 526.996266 
L 1034.222391 526.996266 
" style="fill: none; stroke: #937860; stroke-opacity: 0.9; stroke-width: 3; stroke-linecap: round"/>
   </g>
   <g id="text_34">
    <!-- exiobase3_full_2010 -->
    <g style="fill: #262626" transform="translate(1052.702391 535.081266) scale(0.231 -0.231)">
     <use xlink:href="#DejaVuSans-65"/>
     <use xlink:href="#DejaVuSans-78" x="59.773438"/>
     <use xlink:href="#DejaVuSans-69" x="118.953125"/>
     <use xlink:href="#DejaVuSans-6f" x="146.736328"/>
     <use xlink:href="#DejaVuSans-62" x="207.917969"/>
     <use xlink:href="#DejaVuSans-61" x="271.394531"/>
     <use xlink:href="#DejaVuSans-73" x="332.673828"/>
     <use xlink:href="#DejaVuSans-65" x="384.773438"/>
     <use xlink:href="#DejaVuSans-33" x="446.296875"/>
     <use xlink:href="#DejaVuSans-5f" x="509.919922"/>
     <use xlink:href="#DejaVuSans-66" x="559.919922"/>
     <use xlink:href="#DejaVuSans-75" x="595.125"/>
     <use xlink:href="#DejaVuSans-6c" x="658.503906"/>
     <use xlink:href="#DejaVuSans-6c" x="686.287109"/>
     <use xlink:href="#DejaVuSans-5f" x="714.070312"/>
     <use xlink:href="#DejaVuSans-32" x="764.070312"/>
     <use xlink:href="#DejaVuSans-30" x="827.693359"/>
     <use xlink:href="#DejaVuSans-31" x="891.316406"/>
     <use xlink:href="#DejaVuSans-30" x="954.939453"/>
    </g>
   </g>
  </g>
 </g>
 <defs>
  <clipPath id="p16e585f2b3">
   <rect x="189.250488" y="81.456" width="286.154263" height="102.156"/>
  </clipPath>
  <clipPath id="p40f25ddd38">
   <rect x="501.852899" y="81.456" width="286.154263" height="102.156"/>
  </clipPath>
  <clipPath id="p3888cc8828">
   <rect x="814.45531" y="81.456" width="286.154263" height="102.156"/>
  </clipPath>
  <clipPath id="p74e7d65155">
   <rect x="189.250488" y="271.128" width="286.154263" height="102.156"/>
  </clipPath>
  <clipPath id="p9cb1d62765">
   <rect x="501.852899" y="271.128" width="286.154263" height="102.156"/>
  </clipPath>
 </defs>
</svg>
