<?xml version="1.0" encoding="utf-8" standalone="no"?>
<!DOCTYPE svg PUBLIC "-//W3C//DTD SVG 1.1//EN"
  "http://www.w3.org/Graphics/SVG/1.1/DTD/svg11.dtd">
<svg xmlns:xlink="http://www.w3.org/1999/xlink" width="1304.437547pt" height="591.51675pt" viewBox="0 0 1304.437547 591.51675" xmlns="http://www.w3.org/2000/svg" version="1.1">
 <metadata>
  <rdf:RDF xmlns:dc="http://purl.org/dc/elements/1.1/" xmlns:cc="http://creativecommons.org/ns#" xmlns:rdf="http://www.w3.org/1999/02/22-rdf-syntax-ns#">
   <cc:Work>
    <dc:type rdf:resource="http://purl.org/dc/dcmitype/StillImage"/>
    <dc:date>2023-04-27T10:21:54.046380</dc:date>
    <dc:format>image/svg+xml</dc:format>
    <dc:creator>
     <cc:Agent>
      <dc:title>Matplotlib v3.7.1, https://matplotlib.org/</dc:title>
     </cc:Agent>
    </dc:creator>
   </cc:Work>
  </rdf:RDF>
 </metadata>
 <defs>
  <style type="text/css">*{stroke-linejoin: round; stroke-linecap: butt}</style>
 </defs>
 <g id="figure_1">
  <g id="patch_1">
   <path d="M 0 591.51675 
L 1304.437547 591.51675 
L 1304.437547 -0 
L 0 -0 
z
" style="fill: #ffffff"/>
  </g>
  <g id="axes_1">
   <g id="patch_2">
    <path d="M 170.340091 201.042 
L 462.70916 201.042 
L 462.70916 81.456 
L 170.340091 81.456 
z
" style="fill: #eaeaf2"/>
   </g>
   <g id="matplotlib.axis_1">
    <g id="xtick_1">
     <g id="line2d_1">
      <path d="M 183.629594 201.042 
L 183.629594 81.456 
" clip-path="url(#pd1b55217ba)" style="fill: none; stroke: #ffffff; stroke-linecap: round"/>
     </g>
    </g>
    <g id="xtick_2">
     <g id="line2d_2">
      <path d="M 274.77845 201.042 
L 274.77845 81.456 
" clip-path="url(#pd1b55217ba)" style="fill: none; stroke: #ffffff; stroke-linecap: round"/>
     </g>
    </g>
    <g id="xtick_3">
     <g id="line2d_3">
      <path d="M 365.927305 201.042 
L 365.927305 81.456 
" clip-path="url(#pd1b55217ba)" style="fill: none; stroke: #ffffff; stroke-linecap: round"/>
     </g>
    </g>
    <g id="xtick_4">
     <g id="line2d_4">
      <path d="M 457.076161 201.042 
L 457.076161 81.456 
" clip-path="url(#pd1b55217ba)" style="fill: none; stroke: #ffffff; stroke-linecap: round"/>
     </g>
    </g>
   </g>
   <g id="matplotlib.axis_2">
    <g id="ytick_1">
     <g id="line2d_5">
      <path d="M 170.340091 154.120106 
L 462.70916 154.120106 
" clip-path="url(#pd1b55217ba)" style="fill: none; stroke: #ffffff; stroke-linecap: round"/>
     </g>
     <g id="text_1">
      <!-- −0.1 -->
      <g style="fill: #262626" transform="translate(104.746794 162.896301) scale(0.231 -0.231)">
       <defs>
        <path id="DejaVuSans-2212" d="M 678 2272 
L 4684 2272 
L 4684 1741 
L 678 1741 
L 678 2272 
z
" transform="scale(0.015625)"/>
        <path id="DejaVuSans-30" d="M 2034 4250 
Q 1547 4250 1301 3770 
Q 1056 3291 1056 2328 
Q 1056 1369 1301 889 
Q 1547 409 2034 409 
Q 2525 409 2770 889 
Q 3016 1369 3016 2328 
Q 3016 3291 2770 3770 
Q 2525 4250 2034 4250 
z
M 2034 4750 
Q 2819 4750 3233 4129 
Q 3647 3509 3647 2328 
Q 3647 1150 3233 529 
Q 2819 -91 2034 -91 
Q 1250 -91 836 529 
Q 422 1150 422 2328 
Q 422 3509 836 4129 
Q 1250 4750 2034 4750 
z
" transform="scale(0.015625)"/>
        <path id="DejaVuSans-2e" d="M 684 794 
L 1344 794 
L 1344 0 
L 684 0 
L 684 794 
z
" transform="scale(0.015625)"/>
        <path id="DejaVuSans-31" d="M 794 531 
L 1825 531 
L 1825 4091 
L 703 3866 
L 703 4441 
L 1819 4666 
L 2450 4666 
L 2450 531 
L 3481 531 
L 3481 0 
L 794 0 
L 794 531 
z
" transform="scale(0.015625)"/>
       </defs>
       <use xlink:href="#DejaVuSans-2212"/>
       <use xlink:href="#DejaVuSans-30" x="83.789062"/>
       <use xlink:href="#DejaVuSans-2e" x="147.412109"/>
       <use xlink:href="#DejaVuSans-31" x="179.199219"/>
      </g>
     </g>
    </g>
    <g id="ytick_2">
     <g id="line2d_6">
      <path d="M 170.340091 86.891727 
L 462.70916 86.891727 
" clip-path="url(#pd1b55217ba)" style="fill: none; stroke: #ffffff; stroke-linecap: round"/>
     </g>
     <g id="text_2">
      <!-- 0.0 -->
      <g style="fill: #262626" transform="translate(124.103872 95.667923) scale(0.231 -0.231)">
       <use xlink:href="#DejaVuSans-30"/>
       <use xlink:href="#DejaVuSans-2e" x="63.623047"/>
       <use xlink:href="#DejaVuSans-30" x="95.410156"/>
      </g>
     </g>
    </g>
    <g id="text_3">
     <!-- % change -->
     <g style="fill: #262626" transform="translate(95.505982 203.597344) rotate(-90) scale(0.252 -0.252)">
      <defs>
       <path id="DejaVuSans-25" d="M 4653 2053 
Q 4381 2053 4226 1822 
Q 4072 1591 4072 1178 
Q 4072 772 4226 539 
Q 4381 306 4653 306 
Q 4919 306 5073 539 
Q 5228 772 5228 1178 
Q 5228 1588 5073 1820 
Q 4919 2053 4653 2053 
z
M 4653 2450 
Q 5147 2450 5437 2106 
Q 5728 1763 5728 1178 
Q 5728 594 5436 251 
Q 5144 -91 4653 -91 
Q 4153 -91 3862 251 
Q 3572 594 3572 1178 
Q 3572 1766 3864 2108 
Q 4156 2450 4653 2450 
z
M 1428 4353 
Q 1159 4353 1004 4120 
Q 850 3888 850 3481 
Q 850 3069 1003 2837 
Q 1156 2606 1428 2606 
Q 1700 2606 1854 2837 
Q 2009 3069 2009 3481 
Q 2009 3884 1853 4118 
Q 1697 4353 1428 4353 
z
M 4250 4750 
L 4750 4750 
L 1831 -91 
L 1331 -91 
L 4250 4750 
z
M 1428 4750 
Q 1922 4750 2215 4408 
Q 2509 4066 2509 3481 
Q 2509 2891 2217 2550 
Q 1925 2209 1428 2209 
Q 931 2209 642 2551 
Q 353 2894 353 3481 
Q 353 4063 643 4406 
Q 934 4750 1428 4750 
z
" transform="scale(0.015625)"/>
       <path id="DejaVuSans-20" transform="scale(0.015625)"/>
       <path id="DejaVuSans-63" d="M 3122 3366 
L 3122 2828 
Q 2878 2963 2633 3030 
Q 2388 3097 2138 3097 
Q 1578 3097 1268 2742 
Q 959 2388 959 1747 
Q 959 1106 1268 751 
Q 1578 397 2138 397 
Q 2388 397 2633 464 
Q 2878 531 3122 666 
L 3122 134 
Q 2881 22 2623 -34 
Q 2366 -91 2075 -91 
Q 1284 -91 818 406 
Q 353 903 353 1747 
Q 353 2603 823 3093 
Q 1294 3584 2113 3584 
Q 2378 3584 2631 3529 
Q 2884 3475 3122 3366 
z
" transform="scale(0.015625)"/>
       <path id="DejaVuSans-68" d="M 3513 2113 
L 3513 0 
L 2938 0 
L 2938 2094 
Q 2938 2591 2744 2837 
Q 2550 3084 2163 3084 
Q 1697 3084 1428 2787 
Q 1159 2491 1159 1978 
L 1159 0 
L 581 0 
L 581 4863 
L 1159 4863 
L 1159 2956 
Q 1366 3272 1645 3428 
Q 1925 3584 2291 3584 
Q 2894 3584 3203 3211 
Q 3513 2838 3513 2113 
z
" transform="scale(0.015625)"/>
       <path id="DejaVuSans-61" d="M 2194 1759 
Q 1497 1759 1228 1600 
Q 959 1441 959 1056 
Q 959 750 1161 570 
Q 1363 391 1709 391 
Q 2188 391 2477 730 
Q 2766 1069 2766 1631 
L 2766 1759 
L 2194 1759 
z
M 3341 1997 
L 3341 0 
L 2766 0 
L 2766 531 
Q 2569 213 2275 61 
Q 1981 -91 1556 -91 
Q 1019 -91 701 211 
Q 384 513 384 1019 
Q 384 1609 779 1909 
Q 1175 2209 1959 2209 
L 2766 2209 
L 2766 2266 
Q 2766 2663 2505 2880 
Q 2244 3097 1772 3097 
Q 1472 3097 1187 3025 
Q 903 2953 641 2809 
L 641 3341 
Q 956 3463 1253 3523 
Q 1550 3584 1831 3584 
Q 2591 3584 2966 3190 
Q 3341 2797 3341 1997 
z
" transform="scale(0.015625)"/>
       <path id="DejaVuSans-6e" d="M 3513 2113 
L 3513 0 
L 2938 0 
L 2938 2094 
Q 2938 2591 2744 2837 
Q 2550 3084 2163 3084 
Q 1697 3084 1428 2787 
Q 1159 2491 1159 1978 
L 1159 0 
L 581 0 
L 581 3500 
L 1159 3500 
L 1159 2956 
Q 1366 3272 1645 3428 
Q 1925 3584 2291 3584 
Q 2894 3584 3203 3211 
Q 3513 2838 3513 2113 
z
" transform="scale(0.015625)"/>
       <path id="DejaVuSans-67" d="M 2906 1791 
Q 2906 2416 2648 2759 
Q 2391 3103 1925 3103 
Q 1463 3103 1205 2759 
Q 947 2416 947 1791 
Q 947 1169 1205 825 
Q 1463 481 1925 481 
Q 2391 481 2648 825 
Q 2906 1169 2906 1791 
z
M 3481 434 
Q 3481 -459 3084 -895 
Q 2688 -1331 1869 -1331 
Q 1566 -1331 1297 -1286 
Q 1028 -1241 775 -1147 
L 775 -588 
Q 1028 -725 1275 -790 
Q 1522 -856 1778 -856 
Q 2344 -856 2625 -561 
Q 2906 -266 2906 331 
L 2906 616 
Q 2728 306 2450 153 
Q 2172 0 1784 0 
Q 1141 0 747 490 
Q 353 981 353 1791 
Q 353 2603 747 3093 
Q 1141 3584 1784 3584 
Q 2172 3584 2450 3431 
Q 2728 3278 2906 2969 
L 2906 3500 
L 3481 3500 
L 3481 434 
z
" transform="scale(0.015625)"/>
       <path id="DejaVuSans-65" d="M 3597 1894 
L 3597 1613 
L 953 1613 
Q 991 1019 1311 708 
Q 1631 397 2203 397 
Q 2534 397 2845 478 
Q 3156 559 3463 722 
L 3463 178 
Q 3153 47 2828 -22 
Q 2503 -91 2169 -91 
Q 1331 -91 842 396 
Q 353 884 353 1716 
Q 353 2575 817 3079 
Q 1281 3584 2069 3584 
Q 2775 3584 3186 3129 
Q 3597 2675 3597 1894 
z
M 3022 2063 
Q 3016 2534 2758 2815 
Q 2500 3097 2075 3097 
Q 1594 3097 1305 2825 
Q 1016 2553 972 2059 
L 3022 2063 
z
" transform="scale(0.015625)"/>
      </defs>
      <use xlink:href="#DejaVuSans-25"/>
      <use xlink:href="#DejaVuSans-20" x="95.019531"/>
      <use xlink:href="#DejaVuSans-63" x="126.806641"/>
      <use xlink:href="#DejaVuSans-68" x="181.787109"/>
      <use xlink:href="#DejaVuSans-61" x="245.166016"/>
      <use xlink:href="#DejaVuSans-6e" x="306.445312"/>
      <use xlink:href="#DejaVuSans-67" x="369.824219"/>
      <use xlink:href="#DejaVuSans-65" x="433.300781"/>
     </g>
    </g>
   </g>
   <g id="PolyCollection_1"/>
   <g id="PolyCollection_2"/>
   <g id="PolyCollection_3"/>
   <g id="PolyCollection_4"/>
   <g id="PolyCollection_5"/>
   <g id="PolyCollection_6"/>
   <g id="line2d_7">
    <path d="M 183.629594 86.891727 
L 186.910953 95.579286 
L 191.650694 107.844915 
L 194.932052 115.706411 
L 198.213411 123.009242 
L 201.49477 129.76061 
L 204.776129 135.968407 
L 207.692892 141.036593 
L 210.609655 145.686754 
L 213.526419 149.92325 
L 216.443182 153.75051 
L 219.359946 157.174847 
L 221.912114 159.852837 
L 224.464282 162.237792 
L 227.01645 164.33279 
L 229.568617 166.144439 
L 232.120785 167.675938 
L 234.672953 168.929618 
L 237.225121 169.907766 
L 239.777289 170.612682 
L 241.964862 171.000998 
L 244.51703 171.221814 
L 247.433793 171.234464 
L 250.350557 171.007094 
L 253.26732 170.546524 
L 257.642465 169.561722 
L 265.663564 167.827017 
L 272.226282 166.665722 
L 279.882786 165.548018 
L 290.091458 164.300961 
L 301.758511 163.10137 
L 317.436114 161.720224 
L 332.384527 160.614763 
L 367.021092 158.315516 
L 449.419657 153.043243 
L 449.419657 153.043243 
" clip-path="url(#pd1b55217ba)" style="fill: none; stroke: #4c72b0; stroke-opacity: 0.9; stroke-width: 3; stroke-linecap: round"/>
   </g>
   <g id="line2d_8">
    <path d="M 183.629594 86.891727 
L 186.181762 90.621332 
L 192.015289 99.025816 
L 195.661243 103.849328 
L 199.307197 108.30226 
L 202.953152 112.389244 
L 206.599106 116.114427 
L 209.880465 119.161048 
L 213.161823 121.921301 
L 216.443182 124.398836 
L 219.724541 126.596785 
L 223.0059 128.519074 
L 226.287259 130.169154 
L 229.568617 131.55699 
L 232.849976 132.690825 
L 236.131335 133.576948 
L 239.412694 134.218124 
L 242.694053 134.616289 
L 245.975411 134.789721 
L 249.621366 134.77119 
L 253.26732 134.540141 
L 259.830038 133.809189 
L 272.590877 132.457645 
L 283.52874 131.53414 
L 296.654175 130.646048 
L 320.352878 129.37959 
L 350.978893 127.958738 
L 410.772542 125.46352 
L 449.419657 123.865315 
L 449.419657 123.865315 
" clip-path="url(#pd1b55217ba)" style="fill: none; stroke: #dd8452; stroke-opacity: 0.9; stroke-width: 3; stroke-linecap: round"/>
   </g>
   <g id="line2d_9">
    <path d="M 183.629594 86.891727 
L 185.817167 93.069337 
L 191.286098 108.38086 
L 194.567457 116.889865 
L 197.848816 124.797606 
L 201.130175 132.11242 
L 204.411533 138.842668 
L 207.328297 144.340075 
L 210.24506 149.38614 
L 213.161823 153.985249 
L 216.078587 158.142439 
L 218.630755 161.421629 
L 221.182923 164.37071 
L 223.735091 166.993587 
L 226.287259 169.29381 
L 228.839427 171.276007 
L 231.391595 172.944884 
L 233.579167 174.132124 
L 235.76674 175.100383 
L 237.954312 175.854124 
L 240.141885 176.396212 
L 242.329457 176.729194 
L 244.881625 176.882138 
L 247.433793 176.806525 
L 249.985961 176.519674 
L 252.902725 175.956192 
L 267.486541 172.626449 
L 274.413854 171.413004 
L 282.070358 170.303429 
L 289.726862 169.417887 
L 299.206343 168.564799 
L 311.967183 167.646614 
L 332.384527 166.424742 
L 376.135977 164.078895 
L 449.419657 160.22231 
L 449.419657 160.22231 
" clip-path="url(#pd1b55217ba)" style="fill: none; stroke: #55a868; stroke-opacity: 0.9; stroke-width: 3; stroke-linecap: round"/>
   </g>
   <g id="line2d_10">
    <path d="M 183.629594 86.891727 
L 185.817167 91.751177 
L 191.286098 103.796242 
L 194.567457 110.489741 
L 197.848816 116.709732 
L 201.130175 122.462514 
L 204.411533 127.753795 
L 207.692892 132.588922 
L 210.609655 136.508273 
L 213.526419 140.075405 
L 216.443182 143.294567 
L 219.359946 146.170796 
L 222.276709 148.709066 
L 224.828877 150.65681 
L 227.381045 152.353073 
L 229.933213 153.802134 
L 232.485381 155.0084 
L 235.037549 155.978061 
L 237.589717 156.717513 
L 240.141885 157.23162 
L 242.694053 157.524463 
L 245.610816 157.624224 
L 248.527579 157.495597 
L 251.808938 157.10509 
L 256.184083 156.305203 
L 263.475992 155.043592 
L 271.861686 153.834751 
L 280.976572 152.748263 
L 289.726862 151.916252 
L 300.664725 151.128285 
L 316.706923 150.216205 
L 345.145366 148.857426 
L 449.419657 144.185657 
L 449.419657 144.185657 
" clip-path="url(#pd1b55217ba)" style="fill: none; stroke: #c44e52; stroke-opacity: 0.9; stroke-width: 3; stroke-linecap: round"/>
   </g>
   <g id="line2d_11">
    <path d="M 183.629594 86.891727 
L 186.546358 94.341031 
L 191.650694 107.101338 
L 194.932052 114.681391 
L 198.213411 121.724391 
L 201.49477 128.237338 
L 204.776129 134.226844 
L 207.692892 139.116562 
L 210.609655 143.602137 
L 213.526419 147.687879 
L 216.443182 151.378182 
L 219.359946 154.677231 
L 221.912114 157.246048 
L 224.464282 159.521432 
L 227.01645 161.506825 
L 229.568617 163.204703 
L 232.120785 164.617888 
L 234.672953 165.753601 
L 237.225121 166.615727 
L 239.412694 167.138505 
L 241.600266 167.46344 
L 244.152434 167.610557 
L 246.704602 167.540802 
L 249.621366 167.219687 
L 252.538129 166.676756 
L 256.548679 165.661681 
L 269.674114 162.332937 
L 278.789 160.233084 
L 285.716313 158.898184 
L 292.643626 157.790179 
L 302.123107 156.514985 
L 311.967183 155.39624 
L 324.363427 154.217358 
L 337.853458 153.141276 
L 360.82297 151.569952 
L 415.147688 148.126783 
L 449.419657 145.985147 
L 449.419657 145.985147 
" clip-path="url(#pd1b55217ba)" style="fill: none; stroke: #8172b3; stroke-opacity: 0.9; stroke-width: 3; stroke-linecap: round"/>
   </g>
   <g id="line2d_12">
    <path d="M 183.629594 86.891727 
L 186.910953 93.578468 
L 191.650694 103.015889 
L 195.296648 109.715346 
L 198.578007 115.297641 
L 201.859365 120.462046 
L 205.140724 125.213945 
L 208.422083 129.558397 
L 211.703442 133.500203 
L 214.620205 136.669793 
L 217.536969 139.52861 
L 220.453732 142.080598 
L 223.370495 144.328891 
L 226.287259 146.276499 
L 229.204022 147.926338 
L 231.75619 149.12872 
L 234.308358 150.110832 
L 236.860526 150.874919 
L 239.412694 151.423358 
L 241.964862 151.758717 
L 244.881625 151.896146 
L 247.798389 151.814195 
L 251.079747 151.503638 
L 254.361106 150.980026 
L 270.7679 147.91108 
L 280.247381 146.341743 
L 288.633076 145.205811 
L 299.206343 144.008753 
L 313.060969 142.677446 
L 324.363427 141.773337 
L 342.593198 140.546182 
L 373.583809 138.729349 
L 449.419657 134.512745 
L 449.419657 134.512745 
" clip-path="url(#pd1b55217ba)" style="fill: none; stroke: #937860; stroke-opacity: 0.9; stroke-width: 3; stroke-linecap: round"/>
   </g>
   <g id="patch_3">
    <path d="M 170.340091 201.042 
L 170.340091 81.456 
" style="fill: none; stroke: #ffffff; stroke-width: 1.25; stroke-linejoin: miter; stroke-linecap: square"/>
   </g>
   <g id="patch_4">
    <path d="M 170.340091 201.042 
L 462.70916 201.042 
" style="fill: none; stroke: #ffffff; stroke-width: 1.25; stroke-linejoin: miter; stroke-linecap: square"/>
   </g>
   <g id="text_4">
    <!-- 0.8~90 -->
    <g style="fill: #262626" transform="translate(269.894782 75.456) scale(0.252 -0.252)">
     <defs>
      <path id="DejaVuSans-38" d="M 2034 2216 
Q 1584 2216 1326 1975 
Q 1069 1734 1069 1313 
Q 1069 891 1326 650 
Q 1584 409 2034 409 
Q 2484 409 2743 651 
Q 3003 894 3003 1313 
Q 3003 1734 2745 1975 
Q 2488 2216 2034 2216 
z
M 1403 2484 
Q 997 2584 770 2862 
Q 544 3141 544 3541 
Q 544 4100 942 4425 
Q 1341 4750 2034 4750 
Q 2731 4750 3128 4425 
Q 3525 4100 3525 3541 
Q 3525 3141 3298 2862 
Q 3072 2584 2669 2484 
Q 3125 2378 3379 2068 
Q 3634 1759 3634 1313 
Q 3634 634 3220 271 
Q 2806 -91 2034 -91 
Q 1263 -91 848 271 
Q 434 634 434 1313 
Q 434 1759 690 2068 
Q 947 2378 1403 2484 
z
M 1172 3481 
Q 1172 3119 1398 2916 
Q 1625 2713 2034 2713 
Q 2441 2713 2670 2916 
Q 2900 3119 2900 3481 
Q 2900 3844 2670 4047 
Q 2441 4250 2034 4250 
Q 1625 4250 1398 4047 
Q 1172 3844 1172 3481 
z
" transform="scale(0.015625)"/>
      <path id="DejaVuSans-7e" d="M 4684 2553 
L 4684 1997 
Q 4356 1750 4076 1644 
Q 3797 1538 3494 1538 
Q 3150 1538 2694 1722 
Q 2659 1734 2644 1741 
Q 2622 1750 2575 1766 
Q 2091 1959 1797 1959 
Q 1522 1959 1253 1839 
Q 984 1719 678 1459 
L 678 2016 
Q 1006 2263 1286 2370 
Q 1566 2478 1869 2478 
Q 2213 2478 2672 2291 
Q 2703 2278 2719 2272 
Q 2744 2263 2788 2247 
Q 3272 2053 3566 2053 
Q 3834 2053 4098 2172 
Q 4363 2291 4684 2553 
z
" transform="scale(0.015625)"/>
      <path id="DejaVuSans-39" d="M 703 97 
L 703 672 
Q 941 559 1184 500 
Q 1428 441 1663 441 
Q 2288 441 2617 861 
Q 2947 1281 2994 2138 
Q 2813 1869 2534 1725 
Q 2256 1581 1919 1581 
Q 1219 1581 811 2004 
Q 403 2428 403 3163 
Q 403 3881 828 4315 
Q 1253 4750 1959 4750 
Q 2769 4750 3195 4129 
Q 3622 3509 3622 2328 
Q 3622 1225 3098 567 
Q 2575 -91 1691 -91 
Q 1453 -91 1209 -44 
Q 966 3 703 97 
z
M 1959 2075 
Q 2384 2075 2632 2365 
Q 2881 2656 2881 3163 
Q 2881 3666 2632 3958 
Q 2384 4250 1959 4250 
Q 1534 4250 1286 3958 
Q 1038 3666 1038 3163 
Q 1038 2656 1286 2365 
Q 1534 2075 1959 2075 
z
" transform="scale(0.015625)"/>
     </defs>
     <use xlink:href="#DejaVuSans-30"/>
     <use xlink:href="#DejaVuSans-2e" x="63.623047"/>
     <use xlink:href="#DejaVuSans-38" x="95.410156"/>
     <use xlink:href="#DejaVuSans-7e" x="159.033203"/>
     <use xlink:href="#DejaVuSans-39" x="242.822266"/>
     <use xlink:href="#DejaVuSans-30" x="306.445312"/>
    </g>
   </g>
  </g>
  <g id="axes_2">
   <g id="patch_5">
    <path d="M 489.290298 201.042 
L 781.659367 201.042 
L 781.659367 81.456 
L 489.290298 81.456 
z
" style="fill: #eaeaf2"/>
   </g>
   <g id="matplotlib.axis_3">
    <g id="xtick_5">
     <g id="line2d_13">
      <path d="M 502.579801 201.042 
L 502.579801 81.456 
" clip-path="url(#p1ce862e68b)" style="fill: none; stroke: #ffffff; stroke-linecap: round"/>
     </g>
    </g>
    <g id="xtick_6">
     <g id="line2d_14">
      <path d="M 593.728656 201.042 
L 593.728656 81.456 
" clip-path="url(#p1ce862e68b)" style="fill: none; stroke: #ffffff; stroke-linecap: round"/>
     </g>
    </g>
    <g id="xtick_7">
     <g id="line2d_15">
      <path d="M 684.877512 201.042 
L 684.877512 81.456 
" clip-path="url(#p1ce862e68b)" style="fill: none; stroke: #ffffff; stroke-linecap: round"/>
     </g>
    </g>
    <g id="xtick_8">
     <g id="line2d_16">
      <path d="M 776.026368 201.042 
L 776.026368 81.456 
" clip-path="url(#p1ce862e68b)" style="fill: none; stroke: #ffffff; stroke-linecap: round"/>
     </g>
    </g>
   </g>
   <g id="matplotlib.axis_4">
    <g id="ytick_3">
     <g id="line2d_17">
      <path d="M 489.290298 154.120106 
L 781.659367 154.120106 
" clip-path="url(#p1ce862e68b)" style="fill: none; stroke: #ffffff; stroke-linecap: round"/>
     </g>
    </g>
    <g id="ytick_4">
     <g id="line2d_18">
      <path d="M 489.290298 86.891727 
L 781.659367 86.891727 
" clip-path="url(#p1ce862e68b)" style="fill: none; stroke: #ffffff; stroke-linecap: round"/>
     </g>
    </g>
   </g>
   <g id="PolyCollection_7"/>
   <g id="PolyCollection_8"/>
   <g id="PolyCollection_9"/>
   <g id="PolyCollection_10"/>
   <g id="PolyCollection_11"/>
   <g id="PolyCollection_12"/>
   <g id="line2d_19">
    <path d="M 502.579801 86.891727 
L 505.496564 94.646518 
L 511.330091 109.975142 
L 514.976045 118.875805 
L 518.621999 127.195309 
L 522.267954 134.935491 
L 525.549312 141.407726 
L 528.830671 147.413306 
L 532.11203 152.953497 
L 535.393389 158.029607 
L 538.310152 162.153189 
L 541.226916 165.912088 
L 544.143679 169.307278 
L 547.060442 172.34001 
L 549.61261 174.697408 
L 552.164778 176.779062 
L 554.716946 178.586034 
L 557.269114 180.119104 
L 559.821282 181.378944 
L 562.37345 182.367133 
L 564.925618 183.089889 
L 567.477786 183.5516 
L 570.029954 183.75376 
L 572.582122 183.715273 
L 578.780244 183.229505 
L 608.312473 181.009239 
L 629.459008 179.605612 
L 641.490657 179.070598 
L 660.449619 178.481898 
L 688.888062 177.832281 
L 743.21278 176.835965 
L 768.369864 176.410682 
L 768.369864 176.410682 
" clip-path="url(#p1ce862e68b)" style="fill: none; stroke: #4c72b0; stroke-opacity: 0.9; stroke-width: 3; stroke-linecap: round"/>
   </g>
   <g id="line2d_20">
    <path d="M 502.579801 86.891727 
L 505.131969 90.632922 
L 511.694686 100.194086 
L 515.705236 105.584654 
L 519.715786 110.588691 
L 523.36174 114.803365 
L 527.007694 118.70031 
L 530.653648 122.280347 
L 534.299603 125.544392 
L 537.945557 128.493337 
L 541.226916 130.878747 
L 544.508274 133.010347 
L 547.789633 134.888819 
L 551.070992 136.514855 
L 554.352351 137.889127 
L 557.63371 139.012297 
L 560.915068 139.885143 
L 564.196427 140.509002 
L 567.477786 140.887934 
L 570.759145 141.032048 
L 574.405099 140.951662 
L 611.958428 139.546468 
L 641.855252 138.586278 
L 663.366382 138.192506 
L 715.138932 137.530933 
L 768.369864 136.930746 
L 768.369864 136.930746 
" clip-path="url(#p1ce862e68b)" style="fill: none; stroke: #dd8452; stroke-opacity: 0.9; stroke-width: 3; stroke-linecap: round"/>
   </g>
   <g id="line2d_21">
    <path d="M 502.579801 86.891727 
L 504.402778 92.039171 
L 511.330091 111.634651 
L 514.976045 121.184876 
L 518.621999 130.109505 
L 522.267954 138.410742 
L 525.549312 145.350724 
L 528.830671 151.789523 
L 532.11203 157.72858 
L 535.393389 163.169096 
L 538.310152 167.587598 
L 541.226916 171.614179 
L 544.143679 175.249787 
L 547.060442 178.495345 
L 549.61261 181.016061 
L 552.164778 183.239751 
L 554.716946 185.167251 
L 557.269114 186.799681 
L 559.821282 188.138382 
L 562.008855 189.053338 
L 564.196427 189.755005 
L 566.384 190.244661 
L 568.571572 190.52625 
L 571.12374 190.607982 
L 573.675908 190.46206 
L 609.40626 187.186047 
L 620.708718 186.400507 
L 632.740367 185.800736 
L 648.053374 185.277735 
L 667.376932 184.849078 
L 705.659451 184.260938 
L 768.369864 183.426942 
L 768.369864 183.426942 
" clip-path="url(#p1ce862e68b)" style="fill: none; stroke: #55a868; stroke-opacity: 0.9; stroke-width: 3; stroke-linecap: round"/>
   </g>
   <g id="line2d_22">
    <path d="M 502.579801 86.891727 
L 504.402778 90.94083 
L 511.330091 106.359225 
L 514.976045 113.875193 
L 518.621999 120.899526 
L 522.267954 127.433855 
L 525.913908 133.479623 
L 529.195267 138.504259 
L 532.476625 143.135336 
L 535.757984 147.373893 
L 539.039343 151.221019 
L 541.956106 154.31299 
L 544.87287 157.097384 
L 547.789633 159.575008 
L 550.706397 161.746717 
L 553.62316 163.613514 
L 556.175328 164.9977 
L 558.727496 166.150033 
L 561.279664 167.071873 
L 563.831832 167.765036 
L 566.384 168.231773 
L 568.936168 168.47649 
L 571.852931 168.508585 
L 575.498885 168.284179 
L 612.687618 165.732571 
L 625.813054 165.11686 
L 642.584443 164.572145 
L 662.637191 164.133698 
L 699.461329 163.633984 
L 768.369864 162.853982 
L 768.369864 162.853982 
" clip-path="url(#p1ce862e68b)" style="fill: none; stroke: #c44e52; stroke-opacity: 0.9; stroke-width: 3; stroke-linecap: round"/>
   </g>
   <g id="line2d_23">
    <path d="M 502.579801 86.891727 
L 505.131969 93.432186 
L 511.330091 109.154754 
L 514.976045 117.734617 
L 518.621999 125.754724 
L 522.267954 133.21694 
L 525.549312 139.457402 
L 528.830671 145.248629 
L 532.11203 150.591844 
L 535.393389 155.488268 
L 538.310152 159.466562 
L 541.226916 163.093664 
L 544.143679 166.370415 
L 547.060442 169.297642 
L 549.61261 171.572883 
L 552.164778 173.581693 
L 554.716946 175.324642 
L 557.269114 176.802314 
L 559.821282 178.015286 
L 562.37345 178.964122 
L 564.925618 179.649785 
L 567.477786 180.073636 
L 570.029954 180.240515 
L 572.582122 180.170219 
L 578.051053 179.662521 
L 612.323023 176.499063 
L 630.917389 175.065757 
L 653.522306 173.541659 
L 665.91855 172.92214 
L 684.877512 172.22692 
L 707.847024 171.593732 
L 753.421451 170.591034 
L 768.369864 170.298119 
L 768.369864 170.298119 
" clip-path="url(#p1ce862e68b)" style="fill: none; stroke: #8172b3; stroke-opacity: 0.9; stroke-width: 3; stroke-linecap: round"/>
   </g>
   <g id="line2d_24">
    <path d="M 502.579801 86.891727 
L 505.496564 92.860458 
L 511.330091 104.644186 
L 514.976045 111.485855 
L 518.621999 117.882559 
L 522.267954 123.835819 
L 525.913908 129.347092 
L 529.195267 133.930516 
L 532.476625 138.158104 
L 535.757984 142.030876 
L 539.039343 145.5498 
L 542.320702 148.715843 
L 545.237465 151.234627 
L 548.154229 153.476012 
L 551.070992 155.440667 
L 553.987755 157.129244 
L 556.904519 158.542376 
L 559.821282 159.680708 
L 562.37345 160.452198 
L 564.925618 161.014746 
L 567.477786 161.368908 
L 570.029954 161.517967 
L 572.946717 161.45439 
L 587.530534 160.405273 
L 610.500046 158.905977 
L 632.375771 157.69781 
L 652.793115 156.756207 
L 671.752077 156.126836 
L 701.284306 155.39165 
L 735.19168 154.734546 
L 768.369864 154.162814 
L 768.369864 154.162814 
" clip-path="url(#p1ce862e68b)" style="fill: none; stroke: #937860; stroke-opacity: 0.9; stroke-width: 3; stroke-linecap: round"/>
   </g>
   <g id="patch_6">
    <path d="M 489.290298 201.042 
L 489.290298 81.456 
" style="fill: none; stroke: #ffffff; stroke-width: 1.25; stroke-linejoin: miter; stroke-linecap: square"/>
   </g>
   <g id="patch_7">
    <path d="M 489.290298 201.042 
L 781.659367 201.042 
" style="fill: none; stroke: #ffffff; stroke-width: 1.25; stroke-linejoin: miter; stroke-linecap: square"/>
   </g>
   <g id="text_5">
    <!-- 0.8~365 -->
    <g style="fill: #262626" transform="translate(580.828239 75.456) scale(0.252 -0.252)">
     <defs>
      <path id="DejaVuSans-33" d="M 2597 2516 
Q 3050 2419 3304 2112 
Q 3559 1806 3559 1356 
Q 3559 666 3084 287 
Q 2609 -91 1734 -91 
Q 1441 -91 1130 -33 
Q 819 25 488 141 
L 488 750 
Q 750 597 1062 519 
Q 1375 441 1716 441 
Q 2309 441 2620 675 
Q 2931 909 2931 1356 
Q 2931 1769 2642 2001 
Q 2353 2234 1838 2234 
L 1294 2234 
L 1294 2753 
L 1863 2753 
Q 2328 2753 2575 2939 
Q 2822 3125 2822 3475 
Q 2822 3834 2567 4026 
Q 2313 4219 1838 4219 
Q 1578 4219 1281 4162 
Q 984 4106 628 3988 
L 628 4550 
Q 988 4650 1302 4700 
Q 1616 4750 1894 4750 
Q 2613 4750 3031 4423 
Q 3450 4097 3450 3541 
Q 3450 3153 3228 2886 
Q 3006 2619 2597 2516 
z
" transform="scale(0.015625)"/>
      <path id="DejaVuSans-36" d="M 2113 2584 
Q 1688 2584 1439 2293 
Q 1191 2003 1191 1497 
Q 1191 994 1439 701 
Q 1688 409 2113 409 
Q 2538 409 2786 701 
Q 3034 994 3034 1497 
Q 3034 2003 2786 2293 
Q 2538 2584 2113 2584 
z
M 3366 4563 
L 3366 3988 
Q 3128 4100 2886 4159 
Q 2644 4219 2406 4219 
Q 1781 4219 1451 3797 
Q 1122 3375 1075 2522 
Q 1259 2794 1537 2939 
Q 1816 3084 2150 3084 
Q 2853 3084 3261 2657 
Q 3669 2231 3669 1497 
Q 3669 778 3244 343 
Q 2819 -91 2113 -91 
Q 1303 -91 875 529 
Q 447 1150 447 2328 
Q 447 3434 972 4092 
Q 1497 4750 2381 4750 
Q 2619 4750 2861 4703 
Q 3103 4656 3366 4563 
z
" transform="scale(0.015625)"/>
      <path id="DejaVuSans-35" d="M 691 4666 
L 3169 4666 
L 3169 4134 
L 1269 4134 
L 1269 2991 
Q 1406 3038 1543 3061 
Q 1681 3084 1819 3084 
Q 2600 3084 3056 2656 
Q 3513 2228 3513 1497 
Q 3513 744 3044 326 
Q 2575 -91 1722 -91 
Q 1428 -91 1123 -41 
Q 819 9 494 109 
L 494 744 
Q 775 591 1075 516 
Q 1375 441 1709 441 
Q 2250 441 2565 725 
Q 2881 1009 2881 1497 
Q 2881 1984 2565 2268 
Q 2250 2553 1709 2553 
Q 1456 2553 1204 2497 
Q 953 2441 691 2322 
L 691 4666 
z
" transform="scale(0.015625)"/>
     </defs>
     <use xlink:href="#DejaVuSans-30"/>
     <use xlink:href="#DejaVuSans-2e" x="63.623047"/>
     <use xlink:href="#DejaVuSans-38" x="95.410156"/>
     <use xlink:href="#DejaVuSans-7e" x="159.033203"/>
     <use xlink:href="#DejaVuSans-33" x="242.822266"/>
     <use xlink:href="#DejaVuSans-36" x="306.445312"/>
     <use xlink:href="#DejaVuSans-35" x="370.068359"/>
    </g>
   </g>
  </g>
  <g id="axes_3">
   <g id="patch_8">
    <path d="M 808.240504 201.042 
L 1100.609573 201.042 
L 1100.609573 81.456 
L 808.240504 81.456 
z
" style="fill: #eaeaf2"/>
   </g>
   <g id="matplotlib.axis_5">
    <g id="xtick_9">
     <g id="line2d_25">
      <path d="M 821.530007 201.042 
L 821.530007 81.456 
" clip-path="url(#pb1e2e1b535)" style="fill: none; stroke: #ffffff; stroke-linecap: round"/>
     </g>
    </g>
    <g id="xtick_10">
     <g id="line2d_26">
      <path d="M 912.678863 201.042 
L 912.678863 81.456 
" clip-path="url(#pb1e2e1b535)" style="fill: none; stroke: #ffffff; stroke-linecap: round"/>
     </g>
    </g>
    <g id="xtick_11">
     <g id="line2d_27">
      <path d="M 1003.827719 201.042 
L 1003.827719 81.456 
" clip-path="url(#pb1e2e1b535)" style="fill: none; stroke: #ffffff; stroke-linecap: round"/>
     </g>
    </g>
    <g id="xtick_12">
     <g id="line2d_28">
      <path d="M 1094.976574 201.042 
L 1094.976574 81.456 
" clip-path="url(#pb1e2e1b535)" style="fill: none; stroke: #ffffff; stroke-linecap: round"/>
     </g>
    </g>
   </g>
   <g id="matplotlib.axis_6">
    <g id="ytick_5">
     <g id="line2d_29">
      <path d="M 808.240504 154.120106 
L 1100.609573 154.120106 
" clip-path="url(#pb1e2e1b535)" style="fill: none; stroke: #ffffff; stroke-linecap: round"/>
     </g>
    </g>
    <g id="ytick_6">
     <g id="line2d_30">
      <path d="M 808.240504 86.891727 
L 1100.609573 86.891727 
" clip-path="url(#pb1e2e1b535)" style="fill: none; stroke: #ffffff; stroke-linecap: round"/>
     </g>
    </g>
   </g>
   <g id="PolyCollection_13"/>
   <g id="PolyCollection_14"/>
   <g id="PolyCollection_15"/>
   <g id="PolyCollection_16"/>
   <g id="PolyCollection_17"/>
   <g id="PolyCollection_18"/>
   <g id="line2d_31">
    <path d="M 821.530007 86.891727 
L 824.811366 95.579286 
L 829.551107 107.844915 
L 832.832465 115.706411 
L 836.113824 123.009242 
L 839.395183 129.76061 
L 842.676542 135.968407 
L 845.593305 141.036593 
L 848.510069 145.686754 
L 851.426832 149.92325 
L 854.343595 153.75051 
L 857.260359 157.174847 
L 859.812527 159.852837 
L 862.364695 162.237792 
L 864.916863 164.33279 
L 867.469031 166.144439 
L 870.021198 167.675938 
L 872.573366 168.929618 
L 875.125534 169.907766 
L 877.677702 170.612682 
L 879.865275 171.000998 
L 882.417443 171.221814 
L 885.334206 171.234464 
L 888.25097 171.007094 
L 891.167733 170.546524 
L 895.542878 169.561722 
L 903.563977 167.827017 
L 910.126695 166.665722 
L 917.783199 165.548018 
L 927.991871 164.300961 
L 939.658924 163.10137 
L 955.336527 161.720224 
L 970.28494 160.614763 
L 1004.921505 158.315516 
L 1087.32007 153.043243 
L 1087.32007 153.043243 
" clip-path="url(#pb1e2e1b535)" style="fill: none; stroke: #4c72b0; stroke-opacity: 0.9; stroke-width: 3; stroke-linecap: round"/>
   </g>
   <g id="line2d_32">
    <path d="M 821.530007 86.891727 
L 824.082175 90.621332 
L 829.915702 99.025816 
L 833.561656 103.849328 
L 837.20761 108.30226 
L 840.853565 112.389244 
L 844.499519 116.114427 
L 847.780878 119.161048 
L 851.062237 121.921301 
L 854.343595 124.398836 
L 857.624954 126.596785 
L 860.906313 128.519074 
L 864.187672 130.169154 
L 867.469031 131.55699 
L 870.750389 132.690825 
L 874.031748 133.576948 
L 877.313107 134.218124 
L 880.594466 134.616289 
L 883.875825 134.789721 
L 887.521779 134.77119 
L 891.167733 134.540141 
L 897.730451 133.809189 
L 910.49129 132.457645 
L 921.429153 131.53414 
L 934.554588 130.646048 
L 958.253291 129.37959 
L 988.879306 127.958738 
L 1048.672956 125.46352 
L 1087.32007 123.865315 
L 1087.32007 123.865315 
" clip-path="url(#pb1e2e1b535)" style="fill: none; stroke: #dd8452; stroke-opacity: 0.9; stroke-width: 3; stroke-linecap: round"/>
   </g>
   <g id="line2d_33">
    <path d="M 821.530007 86.891727 
L 823.71758 93.069337 
L 829.186511 108.38086 
L 832.46787 116.889865 
L 835.749229 124.797606 
L 839.030588 132.11242 
L 842.311946 138.842668 
L 845.22871 144.340075 
L 848.145473 149.38614 
L 851.062237 153.985249 
L 853.979 158.142439 
L 856.531168 161.421629 
L 859.083336 164.37071 
L 861.635504 166.993587 
L 864.187672 169.29381 
L 866.73984 171.276007 
L 869.292008 172.944884 
L 871.47958 174.132124 
L 873.667153 175.100383 
L 875.854725 175.854124 
L 878.042298 176.396212 
L 880.22987 176.729194 
L 882.782038 176.882138 
L 885.334206 176.806525 
L 887.886374 176.519674 
L 890.803138 175.956192 
L 905.386954 172.626449 
L 912.314267 171.413004 
L 919.970771 170.303429 
L 927.627275 169.417887 
L 937.106756 168.564799 
L 949.867596 167.646614 
L 970.28494 166.424742 
L 1014.03639 164.078895 
L 1087.32007 160.22231 
L 1087.32007 160.22231 
" clip-path="url(#pb1e2e1b535)" style="fill: none; stroke: #55a868; stroke-opacity: 0.9; stroke-width: 3; stroke-linecap: round"/>
   </g>
   <g id="line2d_34">
    <path d="M 821.530007 86.891727 
L 823.71758 91.751177 
L 829.186511 103.796242 
L 832.46787 110.489741 
L 835.749229 116.709732 
L 839.030588 122.462514 
L 842.311946 127.753795 
L 845.593305 132.588922 
L 848.510069 136.508273 
L 851.426832 140.075405 
L 854.343595 143.294567 
L 857.260359 146.170796 
L 860.177122 148.709066 
L 862.72929 150.65681 
L 865.281458 152.353073 
L 867.833626 153.802134 
L 870.385794 155.0084 
L 872.937962 155.978061 
L 875.49013 156.717513 
L 878.042298 157.23162 
L 880.594466 157.524463 
L 883.511229 157.624224 
L 886.427992 157.495597 
L 889.709351 157.10509 
L 894.084496 156.305203 
L 901.376405 155.043592 
L 909.7621 153.834751 
L 918.876985 152.748263 
L 927.627275 151.916252 
L 938.565138 151.128285 
L 954.607336 150.216205 
L 983.045779 148.857426 
L 1087.32007 144.185657 
L 1087.32007 144.185657 
" clip-path="url(#pb1e2e1b535)" style="fill: none; stroke: #c44e52; stroke-opacity: 0.9; stroke-width: 3; stroke-linecap: round"/>
   </g>
   <g id="line2d_35">
    <path d="M 821.530007 86.891727 
L 824.446771 94.341031 
L 829.551107 107.101338 
L 832.832465 114.681391 
L 836.113824 121.724391 
L 839.395183 128.237338 
L 842.676542 134.226844 
L 845.593305 139.116562 
L 848.510069 143.602137 
L 851.426832 147.687879 
L 854.343595 151.378182 
L 857.260359 154.677231 
L 859.812527 157.246048 
L 862.364695 159.521432 
L 864.916863 161.506825 
L 867.469031 163.204703 
L 870.021198 164.617888 
L 872.573366 165.753601 
L 875.125534 166.615727 
L 877.313107 167.138505 
L 879.500679 167.46344 
L 882.052847 167.610557 
L 884.605015 167.540802 
L 887.521779 167.219687 
L 890.438542 166.676756 
L 894.449092 165.661681 
L 907.574527 162.332937 
L 916.689413 160.233084 
L 923.616726 158.898184 
L 930.544039 157.790179 
L 940.02352 156.514985 
L 949.867596 155.39624 
L 962.26384 154.217358 
L 975.753871 153.141276 
L 998.723383 151.569952 
L 1053.048101 148.126783 
L 1087.32007 145.985147 
L 1087.32007 145.985147 
" clip-path="url(#pb1e2e1b535)" style="fill: none; stroke: #8172b3; stroke-opacity: 0.9; stroke-width: 3; stroke-linecap: round"/>
   </g>
   <g id="line2d_36">
    <path d="M 821.530007 86.891727 
L 824.811366 93.578468 
L 829.551107 103.015889 
L 833.197061 109.715346 
L 836.47842 115.297641 
L 839.759778 120.462046 
L 843.041137 125.213945 
L 846.322496 129.558397 
L 849.603855 133.500203 
L 852.520618 136.669793 
L 855.437382 139.52861 
L 858.354145 142.080598 
L 861.270908 144.328891 
L 864.187672 146.276499 
L 867.104435 147.926338 
L 869.656603 149.12872 
L 872.208771 150.110832 
L 874.760939 150.874919 
L 877.313107 151.423358 
L 879.865275 151.758717 
L 882.782038 151.896146 
L 885.698802 151.814195 
L 888.98016 151.503638 
L 892.261519 150.980026 
L 908.668313 147.91108 
L 918.147794 146.341743 
L 926.533489 145.205811 
L 937.106756 144.008753 
L 950.961382 142.677446 
L 962.26384 141.773337 
L 980.493611 140.546182 
L 1011.484222 138.729349 
L 1087.32007 134.512745 
L 1087.32007 134.512745 
" clip-path="url(#pb1e2e1b535)" style="fill: none; stroke: #937860; stroke-opacity: 0.9; stroke-width: 3; stroke-linecap: round"/>
   </g>
   <g id="patch_9">
    <path d="M 808.240504 201.042 
L 808.240504 81.456 
" style="fill: none; stroke: #ffffff; stroke-width: 1.25; stroke-linejoin: miter; stroke-linecap: square"/>
   </g>
   <g id="patch_10">
    <path d="M 808.240504 201.042 
L 1100.609573 201.042 
" style="fill: none; stroke: #ffffff; stroke-width: 1.25; stroke-linejoin: miter; stroke-linecap: square"/>
   </g>
   <g id="text_6">
    <!-- 0.85~90 -->
    <g style="fill: #262626" transform="translate(899.778445 75.456) scale(0.252 -0.252)">
     <use xlink:href="#DejaVuSans-30"/>
     <use xlink:href="#DejaVuSans-2e" x="63.623047"/>
     <use xlink:href="#DejaVuSans-38" x="95.410156"/>
     <use xlink:href="#DejaVuSans-35" x="159.033203"/>
     <use xlink:href="#DejaVuSans-7e" x="222.65625"/>
     <use xlink:href="#DejaVuSans-39" x="306.445312"/>
     <use xlink:href="#DejaVuSans-30" x="370.068359"/>
    </g>
   </g>
  </g>
  <g id="axes_4">
   <g id="patch_11">
    <path d="M 170.340091 373.284 
L 462.70916 373.284 
L 462.70916 253.698 
L 170.340091 253.698 
z
" style="fill: #eaeaf2"/>
   </g>
   <g id="matplotlib.axis_7">
    <g id="xtick_13">
     <g id="line2d_37">
      <path d="M 183.629594 373.284 
L 183.629594 253.698 
" clip-path="url(#p09d0e62d09)" style="fill: none; stroke: #ffffff; stroke-linecap: round"/>
     </g>
     <g id="text_7">
      <!-- 0 -->
      <g style="fill: #262626" transform="translate(176.280907 400.336391) scale(0.231 -0.231)">
       <use xlink:href="#DejaVuSans-30"/>
      </g>
     </g>
    </g>
    <g id="xtick_14">
     <g id="line2d_38">
      <path d="M 274.77845 373.284 
L 274.77845 253.698 
" clip-path="url(#p09d0e62d09)" style="fill: none; stroke: #ffffff; stroke-linecap: round"/>
     </g>
     <g id="text_8">
      <!-- 250 -->
      <g style="fill: #262626" transform="translate(252.732387 400.336391) scale(0.231 -0.231)">
       <defs>
        <path id="DejaVuSans-32" d="M 1228 531 
L 3431 531 
L 3431 0 
L 469 0 
L 469 531 
Q 828 903 1448 1529 
Q 2069 2156 2228 2338 
Q 2531 2678 2651 2914 
Q 2772 3150 2772 3378 
Q 2772 3750 2511 3984 
Q 2250 4219 1831 4219 
Q 1534 4219 1204 4116 
Q 875 4013 500 3803 
L 500 4441 
Q 881 4594 1212 4672 
Q 1544 4750 1819 4750 
Q 2544 4750 2975 4387 
Q 3406 4025 3406 3419 
Q 3406 3131 3298 2873 
Q 3191 2616 2906 2266 
Q 2828 2175 2409 1742 
Q 1991 1309 1228 531 
z
" transform="scale(0.015625)"/>
       </defs>
       <use xlink:href="#DejaVuSans-32"/>
       <use xlink:href="#DejaVuSans-35" x="63.623047"/>
       <use xlink:href="#DejaVuSans-30" x="127.246094"/>
      </g>
     </g>
    </g>
    <g id="xtick_15">
     <g id="line2d_39">
      <path d="M 365.927305 373.284 
L 365.927305 253.698 
" clip-path="url(#p09d0e62d09)" style="fill: none; stroke: #ffffff; stroke-linecap: round"/>
     </g>
     <g id="text_9">
      <!-- 500 -->
      <g style="fill: #262626" transform="translate(343.881243 400.336391) scale(0.231 -0.231)">
       <use xlink:href="#DejaVuSans-35"/>
       <use xlink:href="#DejaVuSans-30" x="63.623047"/>
       <use xlink:href="#DejaVuSans-30" x="127.246094"/>
      </g>
     </g>
    </g>
    <g id="xtick_16">
     <g id="line2d_40">
      <path d="M 457.076161 373.284 
L 457.076161 253.698 
" clip-path="url(#p09d0e62d09)" style="fill: none; stroke: #ffffff; stroke-linecap: round"/>
     </g>
     <g id="text_10">
      <!-- 750 -->
      <g style="fill: #262626" transform="translate(435.030099 400.336391) scale(0.231 -0.231)">
       <defs>
        <path id="DejaVuSans-37" d="M 525 4666 
L 3525 4666 
L 3525 4397 
L 1831 0 
L 1172 0 
L 2766 4134 
L 525 4134 
L 525 4666 
z
" transform="scale(0.015625)"/>
       </defs>
       <use xlink:href="#DejaVuSans-37"/>
       <use xlink:href="#DejaVuSans-35" x="63.623047"/>
       <use xlink:href="#DejaVuSans-30" x="127.246094"/>
      </g>
     </g>
    </g>
    <g id="text_11">
     <!-- step -->
     <g style="fill: #262626" transform="translate(289.269251 428.288531) scale(0.252 -0.252)">
      <defs>
       <path id="DejaVuSans-73" d="M 2834 3397 
L 2834 2853 
Q 2591 2978 2328 3040 
Q 2066 3103 1784 3103 
Q 1356 3103 1142 2972 
Q 928 2841 928 2578 
Q 928 2378 1081 2264 
Q 1234 2150 1697 2047 
L 1894 2003 
Q 2506 1872 2764 1633 
Q 3022 1394 3022 966 
Q 3022 478 2636 193 
Q 2250 -91 1575 -91 
Q 1294 -91 989 -36 
Q 684 19 347 128 
L 347 722 
Q 666 556 975 473 
Q 1284 391 1588 391 
Q 1994 391 2212 530 
Q 2431 669 2431 922 
Q 2431 1156 2273 1281 
Q 2116 1406 1581 1522 
L 1381 1569 
Q 847 1681 609 1914 
Q 372 2147 372 2553 
Q 372 3047 722 3315 
Q 1072 3584 1716 3584 
Q 2034 3584 2315 3537 
Q 2597 3491 2834 3397 
z
" transform="scale(0.015625)"/>
       <path id="DejaVuSans-74" d="M 1172 4494 
L 1172 3500 
L 2356 3500 
L 2356 3053 
L 1172 3053 
L 1172 1153 
Q 1172 725 1289 603 
Q 1406 481 1766 481 
L 2356 481 
L 2356 0 
L 1766 0 
Q 1100 0 847 248 
Q 594 497 594 1153 
L 594 3053 
L 172 3053 
L 172 3500 
L 594 3500 
L 594 4494 
L 1172 4494 
z
" transform="scale(0.015625)"/>
       <path id="DejaVuSans-70" d="M 1159 525 
L 1159 -1331 
L 581 -1331 
L 581 3500 
L 1159 3500 
L 1159 2969 
Q 1341 3281 1617 3432 
Q 1894 3584 2278 3584 
Q 2916 3584 3314 3078 
Q 3713 2572 3713 1747 
Q 3713 922 3314 415 
Q 2916 -91 2278 -91 
Q 1894 -91 1617 61 
Q 1341 213 1159 525 
z
M 3116 1747 
Q 3116 2381 2855 2742 
Q 2594 3103 2138 3103 
Q 1681 3103 1420 2742 
Q 1159 2381 1159 1747 
Q 1159 1113 1420 752 
Q 1681 391 2138 391 
Q 2594 391 2855 752 
Q 3116 1113 3116 1747 
z
" transform="scale(0.015625)"/>
      </defs>
      <use xlink:href="#DejaVuSans-73"/>
      <use xlink:href="#DejaVuSans-74" x="52.099609"/>
      <use xlink:href="#DejaVuSans-65" x="91.308594"/>
      <use xlink:href="#DejaVuSans-70" x="152.832031"/>
     </g>
    </g>
   </g>
   <g id="matplotlib.axis_8">
    <g id="ytick_7">
     <g id="line2d_41">
      <path d="M 170.340091 326.362106 
L 462.70916 326.362106 
" clip-path="url(#p09d0e62d09)" style="fill: none; stroke: #ffffff; stroke-linecap: round"/>
     </g>
     <g id="text_12">
      <!-- −0.1 -->
      <g style="fill: #262626" transform="translate(104.746794 335.138301) scale(0.231 -0.231)">
       <use xlink:href="#DejaVuSans-2212"/>
       <use xlink:href="#DejaVuSans-30" x="83.789062"/>
       <use xlink:href="#DejaVuSans-2e" x="147.412109"/>
       <use xlink:href="#DejaVuSans-31" x="179.199219"/>
      </g>
     </g>
    </g>
    <g id="ytick_8">
     <g id="line2d_42">
      <path d="M 170.340091 259.133727 
L 462.70916 259.133727 
" clip-path="url(#p09d0e62d09)" style="fill: none; stroke: #ffffff; stroke-linecap: round"/>
     </g>
     <g id="text_13">
      <!-- 0.0 -->
      <g style="fill: #262626" transform="translate(124.103872 267.909923) scale(0.231 -0.231)">
       <use xlink:href="#DejaVuSans-30"/>
       <use xlink:href="#DejaVuSans-2e" x="63.623047"/>
       <use xlink:href="#DejaVuSans-30" x="95.410156"/>
      </g>
     </g>
    </g>
    <g id="text_14">
     <!-- % change -->
     <g style="fill: #262626" transform="translate(95.505982 375.839344) rotate(-90) scale(0.252 -0.252)">
      <use xlink:href="#DejaVuSans-25"/>
      <use xlink:href="#DejaVuSans-20" x="95.019531"/>
      <use xlink:href="#DejaVuSans-63" x="126.806641"/>
      <use xlink:href="#DejaVuSans-68" x="181.787109"/>
      <use xlink:href="#DejaVuSans-61" x="245.166016"/>
      <use xlink:href="#DejaVuSans-6e" x="306.445312"/>
      <use xlink:href="#DejaVuSans-67" x="369.824219"/>
      <use xlink:href="#DejaVuSans-65" x="433.300781"/>
     </g>
    </g>
   </g>
   <g id="PolyCollection_19"/>
   <g id="PolyCollection_20"/>
   <g id="PolyCollection_21"/>
   <g id="PolyCollection_22"/>
   <g id="PolyCollection_23"/>
   <g id="PolyCollection_24"/>
   <g id="line2d_43">
    <path d="M 183.629594 259.133727 
L 186.546358 266.888518 
L 192.379884 282.217142 
L 196.025839 291.117805 
L 199.671793 299.437309 
L 203.317747 307.177491 
L 206.599106 313.649726 
L 209.880465 319.655306 
L 213.161823 325.195497 
L 216.443182 330.271607 
L 219.359946 334.395189 
L 222.276709 338.154088 
L 225.193472 341.549278 
L 228.110236 344.58201 
L 230.662404 346.939408 
L 233.214572 349.021062 
L 235.76674 350.828034 
L 238.318908 352.361104 
L 240.871076 353.620944 
L 243.423244 354.609133 
L 245.975411 355.331889 
L 248.527579 355.7936 
L 251.079747 355.99576 
L 253.631915 355.957273 
L 259.830038 355.471505 
L 289.362267 353.251239 
L 310.508801 351.847612 
L 322.54045 351.312598 
L 341.499412 350.723898 
L 369.937855 350.074281 
L 424.262573 349.077965 
L 449.419657 348.652682 
L 449.419657 348.652682 
" clip-path="url(#p09d0e62d09)" style="fill: none; stroke: #4c72b0; stroke-opacity: 0.9; stroke-width: 3; stroke-linecap: round"/>
   </g>
   <g id="line2d_44">
    <path d="M 183.629594 259.133727 
L 186.181762 262.874922 
L 192.74448 272.436086 
L 196.755029 277.826654 
L 200.765579 282.830691 
L 204.411533 287.045365 
L 208.057488 290.94231 
L 211.703442 294.522347 
L 215.349396 297.786392 
L 218.99535 300.735337 
L 222.276709 303.120747 
L 225.558068 305.252347 
L 228.839427 307.130819 
L 232.120785 308.756855 
L 235.402144 310.131127 
L 238.683503 311.254297 
L 241.964862 312.127143 
L 245.246221 312.751002 
L 248.527579 313.129934 
L 251.808938 313.274048 
L 255.454892 313.193662 
L 293.008221 311.788468 
L 322.905046 310.828278 
L 344.416176 310.434506 
L 396.188726 309.772933 
L 449.419657 309.172746 
L 449.419657 309.172746 
" clip-path="url(#p09d0e62d09)" style="fill: none; stroke: #dd8452; stroke-opacity: 0.9; stroke-width: 3; stroke-linecap: round"/>
   </g>
   <g id="line2d_45">
    <path d="M 183.629594 259.133727 
L 185.452571 264.281171 
L 192.379884 283.876651 
L 196.025839 293.426876 
L 199.671793 302.351505 
L 203.317747 310.652742 
L 206.599106 317.592724 
L 209.880465 324.031523 
L 213.161823 329.97058 
L 216.443182 335.411096 
L 219.359946 339.829598 
L 222.276709 343.856179 
L 225.193472 347.491787 
L 228.110236 350.737345 
L 230.662404 353.258061 
L 233.214572 355.481751 
L 235.76674 357.409251 
L 238.318908 359.041681 
L 240.871076 360.380382 
L 243.058648 361.295338 
L 245.246221 361.997005 
L 247.433793 362.486661 
L 249.621366 362.76825 
L 252.173534 362.849982 
L 254.725702 362.70406 
L 290.456053 359.428047 
L 301.758511 358.642507 
L 313.79016 358.042736 
L 329.103168 357.519735 
L 348.426725 357.091078 
L 386.709245 356.502938 
L 449.419657 355.668942 
L 449.419657 355.668942 
" clip-path="url(#p09d0e62d09)" style="fill: none; stroke: #55a868; stroke-opacity: 0.9; stroke-width: 3; stroke-linecap: round"/>
   </g>
   <g id="line2d_46">
    <path d="M 183.629594 259.133727 
L 185.452571 263.18283 
L 192.379884 278.601225 
L 196.025839 286.117193 
L 199.671793 293.141526 
L 203.317747 299.675855 
L 206.963701 305.721623 
L 210.24506 310.746259 
L 213.526419 315.377336 
L 216.807778 319.615893 
L 220.089136 323.463019 
L 223.0059 326.55499 
L 225.922663 329.339384 
L 228.839427 331.817008 
L 231.75619 333.988717 
L 234.672953 335.855514 
L 237.225121 337.2397 
L 239.777289 338.392033 
L 242.329457 339.313873 
L 244.881625 340.007036 
L 247.433793 340.473773 
L 249.985961 340.71849 
L 252.902725 340.750585 
L 256.548679 340.526179 
L 293.737412 337.974571 
L 306.862847 337.35886 
L 323.634236 336.814145 
L 343.686985 336.375698 
L 380.511122 335.875984 
L 449.419657 335.095982 
L 449.419657 335.095982 
" clip-path="url(#p09d0e62d09)" style="fill: none; stroke: #c44e52; stroke-opacity: 0.9; stroke-width: 3; stroke-linecap: round"/>
   </g>
   <g id="line2d_47">
    <path d="M 183.629594 259.133727 
L 186.181762 265.674186 
L 192.379884 281.396754 
L 196.025839 289.976617 
L 199.671793 297.996724 
L 203.317747 305.45894 
L 206.599106 311.699402 
L 209.880465 317.490629 
L 213.161823 322.833844 
L 216.443182 327.730268 
L 219.359946 331.708562 
L 222.276709 335.335664 
L 225.193472 338.612415 
L 228.110236 341.539642 
L 230.662404 343.814883 
L 233.214572 345.823693 
L 235.76674 347.566642 
L 238.318908 349.044314 
L 240.871076 350.257286 
L 243.423244 351.206122 
L 245.975411 351.891785 
L 248.527579 352.315636 
L 251.079747 352.482515 
L 253.631915 352.412219 
L 259.100847 351.904521 
L 293.372816 348.741063 
L 311.967183 347.307757 
L 334.572099 345.783659 
L 346.968344 345.16414 
L 365.927305 344.46892 
L 388.896817 343.835732 
L 434.471245 342.833034 
L 449.419657 342.540119 
L 449.419657 342.540119 
" clip-path="url(#p09d0e62d09)" style="fill: none; stroke: #8172b3; stroke-opacity: 0.9; stroke-width: 3; stroke-linecap: round"/>
   </g>
   <g id="line2d_48">
    <path d="M 183.629594 259.133727 
L 186.546358 265.102458 
L 192.379884 276.886186 
L 196.025839 283.727855 
L 199.671793 290.124559 
L 203.317747 296.077819 
L 206.963701 301.589092 
L 210.24506 306.172516 
L 213.526419 310.400104 
L 216.807778 314.272876 
L 220.089136 317.7918 
L 223.370495 320.957843 
L 226.287259 323.476627 
L 229.204022 325.718012 
L 232.120785 327.682667 
L 235.037549 329.371244 
L 237.954312 330.784376 
L 240.871076 331.922708 
L 243.423244 332.694198 
L 245.975411 333.256746 
L 248.527579 333.610908 
L 251.079747 333.759967 
L 253.996511 333.69639 
L 268.580328 332.647273 
L 291.549839 331.147977 
L 313.425565 329.93981 
L 333.842908 328.998207 
L 352.80187 328.368836 
L 382.334099 327.63365 
L 416.241474 326.976546 
L 449.419657 326.404814 
L 449.419657 326.404814 
" clip-path="url(#p09d0e62d09)" style="fill: none; stroke: #937860; stroke-opacity: 0.9; stroke-width: 3; stroke-linecap: round"/>
   </g>
   <g id="patch_12">
    <path d="M 170.340091 373.284 
L 170.340091 253.698 
" style="fill: none; stroke: #ffffff; stroke-width: 1.25; stroke-linejoin: miter; stroke-linecap: square"/>
   </g>
   <g id="patch_13">
    <path d="M 170.340091 373.284 
L 462.70916 373.284 
" style="fill: none; stroke: #ffffff; stroke-width: 1.25; stroke-linejoin: miter; stroke-linecap: square"/>
   </g>
   <g id="text_15">
    <!-- 0.85~365 -->
    <g style="fill: #262626" transform="translate(253.861282 247.698) scale(0.252 -0.252)">
     <use xlink:href="#DejaVuSans-30"/>
     <use xlink:href="#DejaVuSans-2e" x="63.623047"/>
     <use xlink:href="#DejaVuSans-38" x="95.410156"/>
     <use xlink:href="#DejaVuSans-35" x="159.033203"/>
     <use xlink:href="#DejaVuSans-7e" x="222.65625"/>
     <use xlink:href="#DejaVuSans-33" x="306.445312"/>
     <use xlink:href="#DejaVuSans-36" x="370.068359"/>
     <use xlink:href="#DejaVuSans-35" x="433.691406"/>
    </g>
   </g>
  </g>
  <g id="axes_5">
   <g id="patch_14">
    <path d="M 489.290298 373.284 
L 781.659367 373.284 
L 781.659367 253.698 
L 489.290298 253.698 
z
" style="fill: #eaeaf2"/>
   </g>
   <g id="matplotlib.axis_9">
    <g id="xtick_17">
     <g id="line2d_49">
      <path d="M 502.579801 373.284 
L 502.579801 253.698 
" clip-path="url(#pf267653683)" style="fill: none; stroke: #ffffff; stroke-linecap: round"/>
     </g>
     <g id="text_16">
      <!-- 0 -->
      <g style="fill: #262626" transform="translate(495.231113 400.336391) scale(0.231 -0.231)">
       <use xlink:href="#DejaVuSans-30"/>
      </g>
     </g>
    </g>
    <g id="xtick_18">
     <g id="line2d_50">
      <path d="M 593.728656 373.284 
L 593.728656 253.698 
" clip-path="url(#pf267653683)" style="fill: none; stroke: #ffffff; stroke-linecap: round"/>
     </g>
     <g id="text_17">
      <!-- 250 -->
      <g style="fill: #262626" transform="translate(571.682594 400.336391) scale(0.231 -0.231)">
       <use xlink:href="#DejaVuSans-32"/>
       <use xlink:href="#DejaVuSans-35" x="63.623047"/>
       <use xlink:href="#DejaVuSans-30" x="127.246094"/>
      </g>
     </g>
    </g>
    <g id="xtick_19">
     <g id="line2d_51">
      <path d="M 684.877512 373.284 
L 684.877512 253.698 
" clip-path="url(#pf267653683)" style="fill: none; stroke: #ffffff; stroke-linecap: round"/>
     </g>
     <g id="text_18">
      <!-- 500 -->
      <g style="fill: #262626" transform="translate(662.83145 400.336391) scale(0.231 -0.231)">
       <use xlink:href="#DejaVuSans-35"/>
       <use xlink:href="#DejaVuSans-30" x="63.623047"/>
       <use xlink:href="#DejaVuSans-30" x="127.246094"/>
      </g>
     </g>
    </g>
    <g id="xtick_20">
     <g id="line2d_52">
      <path d="M 776.026368 373.284 
L 776.026368 253.698 
" clip-path="url(#pf267653683)" style="fill: none; stroke: #ffffff; stroke-linecap: round"/>
     </g>
     <g id="text_19">
      <!-- 750 -->
      <g style="fill: #262626" transform="translate(753.980305 400.336391) scale(0.231 -0.231)">
       <use xlink:href="#DejaVuSans-37"/>
       <use xlink:href="#DejaVuSans-35" x="63.623047"/>
       <use xlink:href="#DejaVuSans-30" x="127.246094"/>
      </g>
     </g>
    </g>
    <g id="text_20">
     <!-- step -->
     <g style="fill: #262626" transform="translate(608.219457 428.288531) scale(0.252 -0.252)">
      <use xlink:href="#DejaVuSans-73"/>
      <use xlink:href="#DejaVuSans-74" x="52.099609"/>
      <use xlink:href="#DejaVuSans-65" x="91.308594"/>
      <use xlink:href="#DejaVuSans-70" x="152.832031"/>
     </g>
    </g>
   </g>
   <g id="matplotlib.axis_10">
    <g id="ytick_9">
     <g id="line2d_53">
      <path d="M 489.290298 326.362106 
L 781.659367 326.362106 
" clip-path="url(#pf267653683)" style="fill: none; stroke: #ffffff; stroke-linecap: round"/>
     </g>
    </g>
    <g id="ytick_10">
     <g id="line2d_54">
      <path d="M 489.290298 259.133727 
L 781.659367 259.133727 
" clip-path="url(#pf267653683)" style="fill: none; stroke: #ffffff; stroke-linecap: round"/>
     </g>
    </g>
   </g>
   <g id="PolyCollection_25"/>
   <g id="PolyCollection_26"/>
   <g id="PolyCollection_27"/>
   <g id="PolyCollection_28"/>
   <g id="PolyCollection_29"/>
   <g id="PolyCollection_30"/>
   <g id="line2d_55">
    <path d="M 502.579801 259.133727 
L 505.86116 267.821286 
L 510.6009 280.086915 
L 513.882259 287.948411 
L 517.163618 295.251242 
L 520.444976 302.00261 
L 523.726335 308.210407 
L 526.643099 313.278593 
L 529.559862 317.928754 
L 532.476625 322.16525 
L 535.393389 325.99251 
L 538.310152 329.416847 
L 540.86232 332.094837 
L 543.414488 334.479792 
L 545.966656 336.57479 
L 548.518824 338.386439 
L 551.070992 339.917938 
L 553.62316 341.171618 
L 556.175328 342.149766 
L 558.727496 342.854682 
L 560.915068 343.242998 
L 563.467236 343.463814 
L 566.384 343.476464 
L 569.300763 343.249094 
L 572.217526 342.788524 
L 576.592672 341.803722 
L 584.613771 340.069017 
L 591.176488 338.907722 
L 598.832992 337.790018 
L 609.041664 336.542961 
L 620.708718 335.34337 
L 636.386321 333.962224 
L 651.334733 332.856763 
L 685.971298 330.557516 
L 768.369864 325.285243 
L 768.369864 325.285243 
" clip-path="url(#pf267653683)" style="fill: none; stroke: #4c72b0; stroke-opacity: 0.9; stroke-width: 3; stroke-linecap: round"/>
   </g>
   <g id="line2d_56">
    <path d="M 502.579801 259.133727 
L 505.131969 262.863332 
L 510.965495 271.267816 
L 514.61145 276.091328 
L 518.257404 280.54426 
L 521.903358 284.631244 
L 525.549312 288.356427 
L 528.830671 291.403048 
L 532.11203 294.163301 
L 535.393389 296.640836 
L 538.674748 298.838785 
L 541.956106 300.761074 
L 545.237465 302.411154 
L 548.518824 303.79899 
L 551.800183 304.932825 
L 555.081542 305.818948 
L 558.3629 306.460124 
L 561.644259 306.858289 
L 564.925618 307.031721 
L 568.571572 307.01319 
L 572.217526 306.782141 
L 578.780244 306.051189 
L 591.541084 304.699645 
L 602.478947 303.77614 
L 615.604382 302.888048 
L 639.303084 301.62159 
L 669.9291 300.200738 
L 729.722749 297.70552 
L 768.369864 296.107315 
L 768.369864 296.107315 
" clip-path="url(#pf267653683)" style="fill: none; stroke: #dd8452; stroke-opacity: 0.9; stroke-width: 3; stroke-linecap: round"/>
   </g>
   <g id="line2d_57">
    <path d="M 502.579801 259.133727 
L 504.767373 265.311337 
L 510.236305 280.62286 
L 513.517663 289.131865 
L 516.799022 297.039606 
L 520.080381 304.35442 
L 523.36174 311.084668 
L 526.278503 316.582075 
L 529.195267 321.628678 
L 532.11203 326.23801 
L 535.028793 330.428214 
L 537.945557 334.21908 
L 540.86232 337.624409 
L 543.779084 340.664541 
L 546.331251 343.028383 
L 548.883419 345.111425 
L 551.435587 346.910353 
L 553.987755 348.426514 
L 556.539923 349.672864 
L 559.092091 350.655997 
L 561.644259 351.383406 
L 564.196427 351.884829 
L 566.748595 352.174437 
L 569.300763 352.261956 
L 572.217526 352.129001 
L 576.592672 351.633754 
L 587.89513 350.159005 
L 597.739206 348.6478 
L 606.489496 347.33194 
L 614.146 346.431987 
L 624.354672 345.476282 
L 638.573893 344.393573 
L 661.17881 342.924342 
L 718.055695 339.527788 
L 768.369864 336.544894 
L 768.369864 336.544894 
" clip-path="url(#pf267653683)" style="fill: none; stroke: #55a868; stroke-opacity: 0.9; stroke-width: 3; stroke-linecap: round"/>
   </g>
   <g id="line2d_58">
    <path d="M 502.579801 259.133727 
L 504.767373 263.993177 
L 510.236305 276.038242 
L 513.517663 282.731741 
L 516.799022 288.951732 
L 520.080381 294.704514 
L 523.36174 299.995795 
L 526.643099 304.830957 
L 529.924457 309.226984 
L 532.841221 312.780042 
L 535.757984 316.000947 
L 538.674748 318.899993 
L 541.591511 321.492649 
L 544.508274 323.795548 
L 547.425038 325.807966 
L 550.341801 327.525662 
L 552.893969 328.785057 
L 555.810732 329.95817 
L 558.3629 330.760006 
L 560.915068 331.355038 
L 563.831832 331.804326 
L 566.748595 332.029372 
L 569.665358 332.041 
L 572.946717 331.830243 
L 580.967817 330.963009 
L 590.447298 329.732458 
L 602.478947 328.177754 
L 610.864641 327.331404 
L 621.437908 326.508366 
L 637.115512 325.53197 
L 664.095573 324.104423 
L 768.369864 318.933419 
L 768.369864 318.933419 
" clip-path="url(#pf267653683)" style="fill: none; stroke: #c44e52; stroke-opacity: 0.9; stroke-width: 3; stroke-linecap: round"/>
   </g>
   <g id="line2d_59">
    <path d="M 502.579801 259.133727 
L 505.496564 266.583031 
L 510.6009 279.343338 
L 513.882259 286.923391 
L 517.163618 293.966391 
L 520.444976 300.479338 
L 523.726335 306.468844 
L 526.643099 311.358562 
L 529.559862 315.844137 
L 532.476625 319.929879 
L 535.393389 323.620182 
L 538.310152 326.919231 
L 540.86232 329.488048 
L 543.414488 331.763432 
L 545.966656 333.748825 
L 548.518824 335.446703 
L 551.070992 336.859888 
L 553.62316 337.995601 
L 556.175328 338.857727 
L 558.3629 339.380505 
L 560.550473 339.70544 
L 563.102641 339.852557 
L 565.654809 339.782802 
L 568.571572 339.461687 
L 571.488336 338.918756 
L 575.498885 337.903681 
L 588.62432 334.574937 
L 597.739206 332.475084 
L 604.666519 331.140184 
L 611.593832 330.032179 
L 621.073313 328.756985 
L 630.917389 327.63824 
L 643.313634 326.459358 
L 656.803664 325.383276 
L 679.773176 323.811952 
L 734.097894 320.368783 
L 768.369864 318.227147 
L 768.369864 318.227147 
" clip-path="url(#pf267653683)" style="fill: none; stroke: #8172b3; stroke-opacity: 0.9; stroke-width: 3; stroke-linecap: round"/>
   </g>
   <g id="line2d_60">
    <path d="M 502.579801 259.133727 
L 505.86116 265.820468 
L 510.6009 275.257889 
L 514.246854 281.957346 
L 517.528213 287.539641 
L 520.809572 292.704046 
L 524.090931 297.455945 
L 527.372289 301.800397 
L 530.653648 305.742203 
L 533.570412 308.911793 
L 536.487175 311.77061 
L 539.403938 314.322598 
L 542.320702 316.570891 
L 545.237465 318.518499 
L 548.154229 320.168338 
L 550.706397 321.37072 
L 553.258564 322.352832 
L 555.810732 323.116919 
L 558.3629 323.665358 
L 560.915068 324.000717 
L 563.831832 324.138146 
L 566.748595 324.056195 
L 570.029954 323.745638 
L 573.311313 323.222026 
L 589.718107 320.15308 
L 599.197588 318.583743 
L 607.583282 317.447811 
L 618.15655 316.250753 
L 632.011176 314.919446 
L 643.313634 314.015337 
L 661.543405 312.788182 
L 692.534016 310.971349 
L 768.369864 306.754745 
L 768.369864 306.754745 
" clip-path="url(#pf267653683)" style="fill: none; stroke: #937860; stroke-opacity: 0.9; stroke-width: 3; stroke-linecap: round"/>
   </g>
   <g id="patch_15">
    <path d="M 489.290298 373.284 
L 489.290298 253.698 
" style="fill: none; stroke: #ffffff; stroke-width: 1.25; stroke-linejoin: miter; stroke-linecap: square"/>
   </g>
   <g id="patch_16">
    <path d="M 489.290298 373.284 
L 781.659367 373.284 
" style="fill: none; stroke: #ffffff; stroke-width: 1.25; stroke-linejoin: miter; stroke-linecap: square"/>
   </g>
   <g id="text_21">
    <!-- 0.95~90 -->
    <g style="fill: #262626" transform="translate(580.828239 247.698) scale(0.252 -0.252)">
     <use xlink:href="#DejaVuSans-30"/>
     <use xlink:href="#DejaVuSans-2e" x="63.623047"/>
     <use xlink:href="#DejaVuSans-39" x="95.410156"/>
     <use xlink:href="#DejaVuSans-35" x="159.033203"/>
     <use xlink:href="#DejaVuSans-7e" x="222.65625"/>
     <use xlink:href="#DejaVuSans-39" x="306.445312"/>
     <use xlink:href="#DejaVuSans-30" x="370.068359"/>
    </g>
   </g>
  </g>
  <g id="axes_6">
   <g id="patch_17">
    <path d="M 808.240504 373.284 
L 1100.609573 373.284 
L 1100.609573 253.698 
L 808.240504 253.698 
z
" style="fill: #eaeaf2"/>
   </g>
   <g id="matplotlib.axis_11">
    <g id="xtick_21">
     <g id="line2d_61">
      <path d="M 821.530007 373.284 
L 821.530007 253.698 
" clip-path="url(#p159f5f1583)" style="fill: none; stroke: #ffffff; stroke-linecap: round"/>
     </g>
     <g id="text_22">
      <!-- 0 -->
      <g style="fill: #262626" transform="translate(814.18132 400.336391) scale(0.231 -0.231)">
       <use xlink:href="#DejaVuSans-30"/>
      </g>
     </g>
    </g>
    <g id="xtick_22">
     <g id="line2d_62">
      <path d="M 912.678863 373.284 
L 912.678863 253.698 
" clip-path="url(#p159f5f1583)" style="fill: none; stroke: #ffffff; stroke-linecap: round"/>
     </g>
     <g id="text_23">
      <!-- 250 -->
      <g style="fill: #262626" transform="translate(890.6328 400.336391) scale(0.231 -0.231)">
       <use xlink:href="#DejaVuSans-32"/>
       <use xlink:href="#DejaVuSans-35" x="63.623047"/>
       <use xlink:href="#DejaVuSans-30" x="127.246094"/>
      </g>
     </g>
    </g>
    <g id="xtick_23">
     <g id="line2d_63">
      <path d="M 1003.827719 373.284 
L 1003.827719 253.698 
" clip-path="url(#p159f5f1583)" style="fill: none; stroke: #ffffff; stroke-linecap: round"/>
     </g>
     <g id="text_24">
      <!-- 500 -->
      <g style="fill: #262626" transform="translate(981.781656 400.336391) scale(0.231 -0.231)">
       <use xlink:href="#DejaVuSans-35"/>
       <use xlink:href="#DejaVuSans-30" x="63.623047"/>
       <use xlink:href="#DejaVuSans-30" x="127.246094"/>
      </g>
     </g>
    </g>
    <g id="xtick_24">
     <g id="line2d_64">
      <path d="M 1094.976574 373.284 
L 1094.976574 253.698 
" clip-path="url(#p159f5f1583)" style="fill: none; stroke: #ffffff; stroke-linecap: round"/>
     </g>
     <g id="text_25">
      <!-- 750 -->
      <g style="fill: #262626" transform="translate(1072.930512 400.336391) scale(0.231 -0.231)">
       <use xlink:href="#DejaVuSans-37"/>
       <use xlink:href="#DejaVuSans-35" x="63.623047"/>
       <use xlink:href="#DejaVuSans-30" x="127.246094"/>
      </g>
     </g>
    </g>
    <g id="text_26">
     <!-- step -->
     <g style="fill: #262626" transform="translate(927.169664 428.288531) scale(0.252 -0.252)">
      <use xlink:href="#DejaVuSans-73"/>
      <use xlink:href="#DejaVuSans-74" x="52.099609"/>
      <use xlink:href="#DejaVuSans-65" x="91.308594"/>
      <use xlink:href="#DejaVuSans-70" x="152.832031"/>
     </g>
    </g>
   </g>
   <g id="matplotlib.axis_12">
    <g id="ytick_11">
     <g id="line2d_65">
      <path d="M 808.240504 326.362106 
L 1100.609573 326.362106 
" clip-path="url(#p159f5f1583)" style="fill: none; stroke: #ffffff; stroke-linecap: round"/>
     </g>
    </g>
    <g id="ytick_12">
     <g id="line2d_66">
      <path d="M 808.240504 259.133727 
L 1100.609573 259.133727 
" clip-path="url(#p159f5f1583)" style="fill: none; stroke: #ffffff; stroke-linecap: round"/>
     </g>
    </g>
   </g>
   <g id="PolyCollection_31"/>
   <g id="PolyCollection_32"/>
   <g id="PolyCollection_33"/>
   <g id="PolyCollection_34"/>
   <g id="PolyCollection_35"/>
   <g id="PolyCollection_36"/>
   <g id="line2d_67">
    <path d="M 821.530007 259.133727 
L 824.446771 266.888518 
L 830.280297 282.217142 
L 833.926252 291.117805 
L 837.572206 299.437309 
L 841.21816 307.177491 
L 844.499519 313.649726 
L 847.780878 319.655306 
L 851.062237 325.195497 
L 854.343595 330.271607 
L 857.260359 334.395189 
L 860.177122 338.154088 
L 863.093885 341.549278 
L 866.010649 344.58201 
L 868.562817 346.939408 
L 871.114985 349.021062 
L 873.667153 350.828034 
L 876.219321 352.361104 
L 878.771489 353.620944 
L 881.323657 354.609133 
L 883.875825 355.331889 
L 886.427992 355.7936 
L 888.98016 355.99576 
L 891.532328 355.957273 
L 897.730451 355.471505 
L 927.26268 353.251239 
L 948.409214 351.847612 
L 960.440863 351.312598 
L 979.399825 350.723898 
L 1007.838268 350.074281 
L 1062.162986 349.077965 
L 1087.32007 348.652682 
L 1087.32007 348.652682 
" clip-path="url(#p159f5f1583)" style="fill: none; stroke: #4c72b0; stroke-opacity: 0.9; stroke-width: 3; stroke-linecap: round"/>
   </g>
   <g id="line2d_68">
    <path d="M 821.530007 259.133727 
L 824.082175 262.874922 
L 830.644893 272.436086 
L 834.655442 277.826654 
L 838.665992 282.830691 
L 842.311946 287.045365 
L 845.957901 290.94231 
L 849.603855 294.522347 
L 853.249809 297.786392 
L 856.895763 300.735337 
L 860.177122 303.120747 
L 863.458481 305.252347 
L 866.73984 307.130819 
L 870.021198 308.756855 
L 873.302557 310.131127 
L 876.583916 311.254297 
L 879.865275 312.127143 
L 883.146634 312.751002 
L 886.427992 313.129934 
L 889.709351 313.274048 
L 893.355306 313.193662 
L 930.908634 311.788468 
L 960.805459 310.828278 
L 982.316589 310.434506 
L 1034.089139 309.772933 
L 1087.32007 309.172746 
L 1087.32007 309.172746 
" clip-path="url(#p159f5f1583)" style="fill: none; stroke: #dd8452; stroke-opacity: 0.9; stroke-width: 3; stroke-linecap: round"/>
   </g>
   <g id="line2d_69">
    <path d="M 821.530007 259.133727 
L 823.352984 264.281171 
L 830.280297 283.876651 
L 833.926252 293.426876 
L 837.572206 302.351505 
L 841.21816 310.652742 
L 844.499519 317.592724 
L 847.780878 324.031939 
L 851.062237 329.981636 
L 854.343595 335.455277 
L 857.624954 340.46837 
L 860.906313 345.053289 
L 863.823076 348.774787 
L 866.73984 352.16416 
L 869.656603 355.215396 
L 872.573366 357.919177 
L 875.125534 359.99331 
L 877.677702 361.795385 
L 880.22987 363.335851 
L 882.782038 364.619411 
L 885.334206 365.64947 
L 887.886374 366.424881 
L 890.438542 366.957042 
L 892.99071 367.274424 
L 898.095046 367.642237 
L 903.928573 367.832976 
L 909.7621 367.806357 
L 915.960222 367.549123 
L 922.522939 367.045431 
L 939.658924 365.603682 
L 950.961382 364.933455 
L 964.816008 364.351727 
L 982.316589 363.842742 
L 1011.119627 363.268733 
L 1087.32007 362.042075 
L 1087.32007 362.042075 
" clip-path="url(#p159f5f1583)" style="fill: none; stroke: #55a868; stroke-opacity: 0.9; stroke-width: 3; stroke-linecap: round"/>
   </g>
   <g id="line2d_70">
    <path d="M 821.530007 259.133727 
L 823.352984 263.18283 
L 830.280297 278.601225 
L 833.926252 286.117193 
L 837.572206 293.141526 
L 841.21816 299.675855 
L 844.864114 305.721623 
L 848.145473 310.752605 
L 851.426832 315.41239 
L 854.708191 319.701546 
L 857.98955 323.620521 
L 861.270908 327.18959 
L 864.552267 330.42343 
L 867.833626 333.320526 
L 870.750389 335.605107 
L 873.667153 337.610558 
L 876.583916 339.332705 
L 879.500679 340.780888 
L 882.417443 341.957552 
L 884.969611 342.764036 
L 887.521779 343.362497 
L 890.438542 343.804547 
L 893.719901 344.048385 
L 899.918023 344.262217 
L 906.116145 344.255817 
L 912.678863 344.018039 
L 921.429153 343.434615 
L 936.377565 342.462405 
L 949.503001 341.845446 
L 967.003581 341.263332 
L 986.327138 340.826968 
L 1024.609658 340.25009 
L 1087.32007 339.427499 
L 1087.32007 339.427499 
" clip-path="url(#p159f5f1583)" style="fill: none; stroke: #c44e52; stroke-opacity: 0.9; stroke-width: 3; stroke-linecap: round"/>
   </g>
   <g id="line2d_71">
    <path d="M 821.530007 259.133727 
L 824.082175 265.674186 
L 830.280297 281.396754 
L 833.926252 289.976617 
L 837.572206 297.996724 
L 841.21816 305.45894 
L 844.499519 311.699402 
L 847.780878 317.490629 
L 851.062237 322.833844 
L 854.343595 327.730268 
L 857.260359 331.708562 
L 860.177122 335.335664 
L 863.093885 338.612415 
L 866.010649 341.539642 
L 868.562817 343.814883 
L 871.114985 345.823693 
L 873.667153 347.566642 
L 876.219321 349.044314 
L 878.771489 350.257286 
L 881.323657 351.206122 
L 883.875825 351.891785 
L 886.427992 352.315636 
L 888.98016 352.482515 
L 891.532328 352.412219 
L 897.00126 351.904521 
L 931.273229 348.741063 
L 949.867596 347.307757 
L 972.472512 345.783659 
L 984.868757 345.16414 
L 1003.827719 344.46892 
L 1026.79723 343.835732 
L 1072.371658 342.833034 
L 1087.32007 342.540119 
L 1087.32007 342.540119 
" clip-path="url(#p159f5f1583)" style="fill: none; stroke: #8172b3; stroke-opacity: 0.9; stroke-width: 3; stroke-linecap: round"/>
   </g>
   <g id="line2d_72">
    <path d="M 821.530007 259.133727 
L 824.446771 265.102458 
L 830.280297 276.886186 
L 833.926252 283.727855 
L 837.572206 290.124559 
L 841.21816 296.077819 
L 844.864114 301.589092 
L 848.145473 306.172516 
L 851.426832 310.400104 
L 854.708191 314.272876 
L 857.98955 317.7918 
L 861.270908 320.957843 
L 864.187672 323.476627 
L 867.104435 325.718012 
L 870.021198 327.682667 
L 872.937962 329.371244 
L 875.854725 330.784376 
L 878.771489 331.922708 
L 881.323657 332.694198 
L 883.875825 333.256746 
L 886.427992 333.610908 
L 888.98016 333.759967 
L 891.896924 333.69639 
L 906.480741 332.647273 
L 929.450252 331.147977 
L 951.325978 329.93981 
L 971.743321 328.998207 
L 990.702283 328.368836 
L 1020.234513 327.63365 
L 1054.141887 326.976546 
L 1087.32007 326.404814 
L 1087.32007 326.404814 
" clip-path="url(#p159f5f1583)" style="fill: none; stroke: #937860; stroke-opacity: 0.9; stroke-width: 3; stroke-linecap: round"/>
   </g>
   <g id="patch_18">
    <path d="M 808.240504 373.284 
L 808.240504 253.698 
" style="fill: none; stroke: #ffffff; stroke-width: 1.25; stroke-linejoin: miter; stroke-linecap: square"/>
   </g>
   <g id="patch_19">
    <path d="M 808.240504 373.284 
L 1100.609573 373.284 
" style="fill: none; stroke: #ffffff; stroke-width: 1.25; stroke-linejoin: miter; stroke-linecap: square"/>
   </g>
   <g id="text_27">
    <!-- 0.95~365 -->
    <g style="fill: #262626" transform="translate(891.761695 247.698) scale(0.252 -0.252)">
     <use xlink:href="#DejaVuSans-30"/>
     <use xlink:href="#DejaVuSans-2e" x="63.623047"/>
     <use xlink:href="#DejaVuSans-39" x="95.410156"/>
     <use xlink:href="#DejaVuSans-35" x="159.033203"/>
     <use xlink:href="#DejaVuSans-7e" x="222.65625"/>
     <use xlink:href="#DejaVuSans-33" x="306.445312"/>
     <use xlink:href="#DejaVuSans-36" x="370.068359"/>
     <use xlink:href="#DejaVuSans-35" x="433.691406"/>
    </g>
   </g>
  </g>
  <g id="text_28">
   <!-- Production change from pre-shock level -->
   <g style="fill: #262626" transform="translate(280.766836 30.177675) scale(0.3024 -0.3024)">
    <defs>
     <path id="DejaVuSans-50" d="M 1259 4147 
L 1259 2394 
L 2053 2394 
Q 2494 2394 2734 2622 
Q 2975 2850 2975 3272 
Q 2975 3691 2734 3919 
Q 2494 4147 2053 4147 
L 1259 4147 
z
M 628 4666 
L 2053 4666 
Q 2838 4666 3239 4311 
Q 3641 3956 3641 3272 
Q 3641 2581 3239 2228 
Q 2838 1875 2053 1875 
L 1259 1875 
L 1259 0 
L 628 0 
L 628 4666 
z
" transform="scale(0.015625)"/>
     <path id="DejaVuSans-72" d="M 2631 2963 
Q 2534 3019 2420 3045 
Q 2306 3072 2169 3072 
Q 1681 3072 1420 2755 
Q 1159 2438 1159 1844 
L 1159 0 
L 581 0 
L 581 3500 
L 1159 3500 
L 1159 2956 
Q 1341 3275 1631 3429 
Q 1922 3584 2338 3584 
Q 2397 3584 2469 3576 
Q 2541 3569 2628 3553 
L 2631 2963 
z
" transform="scale(0.015625)"/>
     <path id="DejaVuSans-6f" d="M 1959 3097 
Q 1497 3097 1228 2736 
Q 959 2375 959 1747 
Q 959 1119 1226 758 
Q 1494 397 1959 397 
Q 2419 397 2687 759 
Q 2956 1122 2956 1747 
Q 2956 2369 2687 2733 
Q 2419 3097 1959 3097 
z
M 1959 3584 
Q 2709 3584 3137 3096 
Q 3566 2609 3566 1747 
Q 3566 888 3137 398 
Q 2709 -91 1959 -91 
Q 1206 -91 779 398 
Q 353 888 353 1747 
Q 353 2609 779 3096 
Q 1206 3584 1959 3584 
z
" transform="scale(0.015625)"/>
     <path id="DejaVuSans-64" d="M 2906 2969 
L 2906 4863 
L 3481 4863 
L 3481 0 
L 2906 0 
L 2906 525 
Q 2725 213 2448 61 
Q 2172 -91 1784 -91 
Q 1150 -91 751 415 
Q 353 922 353 1747 
Q 353 2572 751 3078 
Q 1150 3584 1784 3584 
Q 2172 3584 2448 3432 
Q 2725 3281 2906 2969 
z
M 947 1747 
Q 947 1113 1208 752 
Q 1469 391 1925 391 
Q 2381 391 2643 752 
Q 2906 1113 2906 1747 
Q 2906 2381 2643 2742 
Q 2381 3103 1925 3103 
Q 1469 3103 1208 2742 
Q 947 2381 947 1747 
z
" transform="scale(0.015625)"/>
     <path id="DejaVuSans-75" d="M 544 1381 
L 544 3500 
L 1119 3500 
L 1119 1403 
Q 1119 906 1312 657 
Q 1506 409 1894 409 
Q 2359 409 2629 706 
Q 2900 1003 2900 1516 
L 2900 3500 
L 3475 3500 
L 3475 0 
L 2900 0 
L 2900 538 
Q 2691 219 2414 64 
Q 2138 -91 1772 -91 
Q 1169 -91 856 284 
Q 544 659 544 1381 
z
M 1991 3584 
L 1991 3584 
z
" transform="scale(0.015625)"/>
     <path id="DejaVuSans-69" d="M 603 3500 
L 1178 3500 
L 1178 0 
L 603 0 
L 603 3500 
z
M 603 4863 
L 1178 4863 
L 1178 4134 
L 603 4134 
L 603 4863 
z
" transform="scale(0.015625)"/>
     <path id="DejaVuSans-66" d="M 2375 4863 
L 2375 4384 
L 1825 4384 
Q 1516 4384 1395 4259 
Q 1275 4134 1275 3809 
L 1275 3500 
L 2222 3500 
L 2222 3053 
L 1275 3053 
L 1275 0 
L 697 0 
L 697 3053 
L 147 3053 
L 147 3500 
L 697 3500 
L 697 3744 
Q 697 4328 969 4595 
Q 1241 4863 1831 4863 
L 2375 4863 
z
" transform="scale(0.015625)"/>
     <path id="DejaVuSans-6d" d="M 3328 2828 
Q 3544 3216 3844 3400 
Q 4144 3584 4550 3584 
Q 5097 3584 5394 3201 
Q 5691 2819 5691 2113 
L 5691 0 
L 5113 0 
L 5113 2094 
Q 5113 2597 4934 2840 
Q 4756 3084 4391 3084 
Q 3944 3084 3684 2787 
Q 3425 2491 3425 1978 
L 3425 0 
L 2847 0 
L 2847 2094 
Q 2847 2600 2669 2842 
Q 2491 3084 2119 3084 
Q 1678 3084 1418 2786 
Q 1159 2488 1159 1978 
L 1159 0 
L 581 0 
L 581 3500 
L 1159 3500 
L 1159 2956 
Q 1356 3278 1631 3431 
Q 1906 3584 2284 3584 
Q 2666 3584 2933 3390 
Q 3200 3197 3328 2828 
z
" transform="scale(0.015625)"/>
     <path id="DejaVuSans-2d" d="M 313 2009 
L 1997 2009 
L 1997 1497 
L 313 1497 
L 313 2009 
z
" transform="scale(0.015625)"/>
     <path id="DejaVuSans-6b" d="M 581 4863 
L 1159 4863 
L 1159 1991 
L 2875 3500 
L 3609 3500 
L 1753 1863 
L 3688 0 
L 2938 0 
L 1159 1709 
L 1159 0 
L 581 0 
L 581 4863 
z
" transform="scale(0.015625)"/>
     <path id="DejaVuSans-6c" d="M 603 4863 
L 1178 4863 
L 1178 0 
L 603 0 
L 603 4863 
z
" transform="scale(0.015625)"/>
     <path id="DejaVuSans-76" d="M 191 3500 
L 800 3500 
L 1894 563 
L 2988 3500 
L 3597 3500 
L 2284 0 
L 1503 0 
L 191 3500 
z
" transform="scale(0.015625)"/>
    </defs>
    <use xlink:href="#DejaVuSans-50"/>
    <use xlink:href="#DejaVuSans-72" x="58.552734"/>
    <use xlink:href="#DejaVuSans-6f" x="97.416016"/>
    <use xlink:href="#DejaVuSans-64" x="158.597656"/>
    <use xlink:href="#DejaVuSans-75" x="222.074219"/>
    <use xlink:href="#DejaVuSans-63" x="285.453125"/>
    <use xlink:href="#DejaVuSans-74" x="340.433594"/>
    <use xlink:href="#DejaVuSans-69" x="379.642578"/>
    <use xlink:href="#DejaVuSans-6f" x="407.425781"/>
    <use xlink:href="#DejaVuSans-6e" x="468.607422"/>
    <use xlink:href="#DejaVuSans-20" x="531.986328"/>
    <use xlink:href="#DejaVuSans-63" x="563.773438"/>
    <use xlink:href="#DejaVuSans-68" x="618.753906"/>
    <use xlink:href="#DejaVuSans-61" x="682.132812"/>
    <use xlink:href="#DejaVuSans-6e" x="743.412109"/>
    <use xlink:href="#DejaVuSans-67" x="806.791016"/>
    <use xlink:href="#DejaVuSans-65" x="870.267578"/>
    <use xlink:href="#DejaVuSans-20" x="931.791016"/>
    <use xlink:href="#DejaVuSans-66" x="963.578125"/>
    <use xlink:href="#DejaVuSans-72" x="998.783203"/>
    <use xlink:href="#DejaVuSans-6f" x="1037.646484"/>
    <use xlink:href="#DejaVuSans-6d" x="1098.828125"/>
    <use xlink:href="#DejaVuSans-20" x="1196.240234"/>
    <use xlink:href="#DejaVuSans-70" x="1228.027344"/>
    <use xlink:href="#DejaVuSans-72" x="1291.503906"/>
    <use xlink:href="#DejaVuSans-65" x="1330.367188"/>
    <use xlink:href="#DejaVuSans-2d" x="1391.890625"/>
    <use xlink:href="#DejaVuSans-73" x="1427.974609"/>
    <use xlink:href="#DejaVuSans-68" x="1480.074219"/>
    <use xlink:href="#DejaVuSans-6f" x="1543.453125"/>
    <use xlink:href="#DejaVuSans-63" x="1604.634766"/>
    <use xlink:href="#DejaVuSans-6b" x="1659.615234"/>
    <use xlink:href="#DejaVuSans-20" x="1717.525391"/>
    <use xlink:href="#DejaVuSans-6c" x="1749.3125"/>
    <use xlink:href="#DejaVuSans-65" x="1777.095703"/>
    <use xlink:href="#DejaVuSans-76" x="1838.619141"/>
    <use xlink:href="#DejaVuSans-65" x="1897.798828"/>
    <use xlink:href="#DejaVuSans-6c" x="1959.322266"/>
   </g>
  </g>
  <g id="legend_1">
   <g id="patch_20">
    <path d="M 11.82 584.31675 
L 1292.617547 584.31675 
Q 1297.237547 584.31675 1297.237547 579.69675 
L 1297.237547 476.97 
Q 1297.237547 472.35 1292.617547 472.35 
L 11.82 472.35 
Q 7.2 472.35 7.2 476.97 
L 7.2 579.69675 
Q 7.2 584.31675 11.82 584.31675 
z
" style="fill: #eaeaf2; opacity: 0.8; stroke: #cccccc; stroke-linejoin: miter"/>
   </g>
   <g id="text_29">
    <!-- Experiences -->
    <g style="fill: #262626" transform="translate(575.384367 500.738062) scale(0.252 -0.252)">
     <defs>
      <path id="DejaVuSans-45" d="M 628 4666 
L 3578 4666 
L 3578 4134 
L 1259 4134 
L 1259 2753 
L 3481 2753 
L 3481 2222 
L 1259 2222 
L 1259 531 
L 3634 531 
L 3634 0 
L 628 0 
L 628 4666 
z
" transform="scale(0.015625)"/>
      <path id="DejaVuSans-78" d="M 3513 3500 
L 2247 1797 
L 3578 0 
L 2900 0 
L 1881 1375 
L 863 0 
L 184 0 
L 1544 1831 
L 300 3500 
L 978 3500 
L 1906 2253 
L 2834 3500 
L 3513 3500 
z
" transform="scale(0.015625)"/>
     </defs>
     <use xlink:href="#DejaVuSans-45"/>
     <use xlink:href="#DejaVuSans-78" x="63.183594"/>
     <use xlink:href="#DejaVuSans-70" x="122.363281"/>
     <use xlink:href="#DejaVuSans-65" x="185.839844"/>
     <use xlink:href="#DejaVuSans-72" x="247.363281"/>
     <use xlink:href="#DejaVuSans-69" x="288.476562"/>
     <use xlink:href="#DejaVuSans-65" x="316.259766"/>
     <use xlink:href="#DejaVuSans-6e" x="377.783203"/>
     <use xlink:href="#DejaVuSans-63" x="441.162109"/>
     <use xlink:href="#DejaVuSans-65" x="496.142578"/>
     <use xlink:href="#DejaVuSans-73" x="557.666016"/>
    </g>
   </g>
   <g id="line2d_73">
    <path d="M 16.44 526.996266 
L 39.54 526.996266 
L 62.64 526.996266 
" style="fill: none; stroke: #4c72b0; stroke-opacity: 0.9; stroke-width: 3; stroke-linecap: round"/>
   </g>
   <g id="text_30">
    <!-- eora26_full_2000 -->
    <g style="fill: #262626" transform="translate(81.12 535.081266) scale(0.231 -0.231)">
     <defs>
      <path id="DejaVuSans-5f" d="M 3263 -1063 
L 3263 -1509 
L -63 -1509 
L -63 -1063 
L 3263 -1063 
z
" transform="scale(0.015625)"/>
     </defs>
     <use xlink:href="#DejaVuSans-65"/>
     <use xlink:href="#DejaVuSans-6f" x="61.523438"/>
     <use xlink:href="#DejaVuSans-72" x="122.705078"/>
     <use xlink:href="#DejaVuSans-61" x="163.818359"/>
     <use xlink:href="#DejaVuSans-32" x="225.097656"/>
     <use xlink:href="#DejaVuSans-36" x="288.720703"/>
     <use xlink:href="#DejaVuSans-5f" x="352.34375"/>
     <use xlink:href="#DejaVuSans-66" x="402.34375"/>
     <use xlink:href="#DejaVuSans-75" x="437.548828"/>
     <use xlink:href="#DejaVuSans-6c" x="500.927734"/>
     <use xlink:href="#DejaVuSans-6c" x="528.710938"/>
     <use xlink:href="#DejaVuSans-5f" x="556.494141"/>
     <use xlink:href="#DejaVuSans-32" x="606.494141"/>
     <use xlink:href="#DejaVuSans-30" x="670.117188"/>
     <use xlink:href="#DejaVuSans-30" x="733.740234"/>
     <use xlink:href="#DejaVuSans-30" x="797.363281"/>
    </g>
   </g>
   <g id="line2d_74">
    <path d="M 16.44 561.545203 
L 39.54 561.545203 
L 62.64 561.545203 
" style="fill: none; stroke: #dd8452; stroke-opacity: 0.9; stroke-width: 3; stroke-linecap: round"/>
   </g>
   <g id="text_31">
    <!-- eora26_full_2010 -->
    <g style="fill: #262626" transform="translate(81.12 569.630203) scale(0.231 -0.231)">
     <use xlink:href="#DejaVuSans-65"/>
     <use xlink:href="#DejaVuSans-6f" x="61.523438"/>
     <use xlink:href="#DejaVuSans-72" x="122.705078"/>
     <use xlink:href="#DejaVuSans-61" x="163.818359"/>
     <use xlink:href="#DejaVuSans-32" x="225.097656"/>
     <use xlink:href="#DejaVuSans-36" x="288.720703"/>
     <use xlink:href="#DejaVuSans-5f" x="352.34375"/>
     <use xlink:href="#DejaVuSans-66" x="402.34375"/>
     <use xlink:href="#DejaVuSans-75" x="437.548828"/>
     <use xlink:href="#DejaVuSans-6c" x="500.927734"/>
     <use xlink:href="#DejaVuSans-6c" x="528.710938"/>
     <use xlink:href="#DejaVuSans-5f" x="556.494141"/>
     <use xlink:href="#DejaVuSans-32" x="606.494141"/>
     <use xlink:href="#DejaVuSans-30" x="670.117188"/>
     <use xlink:href="#DejaVuSans-31" x="733.740234"/>
     <use xlink:href="#DejaVuSans-30" x="797.363281"/>
    </g>
   </g>
   <g id="line2d_75">
    <path d="M 326.211 526.996266 
L 349.311 526.996266 
L 372.411 526.996266 
" style="fill: none; stroke: #55a868; stroke-opacity: 0.9; stroke-width: 3; stroke-linecap: round"/>
   </g>
   <g id="text_32">
    <!-- euregio_full_2000 -->
    <g style="fill: #262626" transform="translate(390.891 535.081266) scale(0.231 -0.231)">
     <use xlink:href="#DejaVuSans-65"/>
     <use xlink:href="#DejaVuSans-75" x="61.523438"/>
     <use xlink:href="#DejaVuSans-72" x="124.902344"/>
     <use xlink:href="#DejaVuSans-65" x="163.765625"/>
     <use xlink:href="#DejaVuSans-67" x="225.289062"/>
     <use xlink:href="#DejaVuSans-69" x="288.765625"/>
     <use xlink:href="#DejaVuSans-6f" x="316.548828"/>
     <use xlink:href="#DejaVuSans-5f" x="377.730469"/>
     <use xlink:href="#DejaVuSans-66" x="427.730469"/>
     <use xlink:href="#DejaVuSans-75" x="462.935547"/>
     <use xlink:href="#DejaVuSans-6c" x="526.314453"/>
     <use xlink:href="#DejaVuSans-6c" x="554.097656"/>
     <use xlink:href="#DejaVuSans-5f" x="581.880859"/>
     <use xlink:href="#DejaVuSans-32" x="631.880859"/>
     <use xlink:href="#DejaVuSans-30" x="695.503906"/>
     <use xlink:href="#DejaVuSans-30" x="759.126953"/>
     <use xlink:href="#DejaVuSans-30" x="822.75"/>
    </g>
   </g>
   <g id="line2d_76">
    <path d="M 326.211 561.545203 
L 349.311 561.545203 
L 372.411 561.545203 
" style="fill: none; stroke: #c44e52; stroke-opacity: 0.9; stroke-width: 3; stroke-linecap: round"/>
   </g>
   <g id="text_33">
    <!-- euregio_full_2010 -->
    <g style="fill: #262626" transform="translate(390.891 569.630203) scale(0.231 -0.231)">
     <use xlink:href="#DejaVuSans-65"/>
     <use xlink:href="#DejaVuSans-75" x="61.523438"/>
     <use xlink:href="#DejaVuSans-72" x="124.902344"/>
     <use xlink:href="#DejaVuSans-65" x="163.765625"/>
     <use xlink:href="#DejaVuSans-67" x="225.289062"/>
     <use xlink:href="#DejaVuSans-69" x="288.765625"/>
     <use xlink:href="#DejaVuSans-6f" x="316.548828"/>
     <use xlink:href="#DejaVuSans-5f" x="377.730469"/>
     <use xlink:href="#DejaVuSans-66" x="427.730469"/>
     <use xlink:href="#DejaVuSans-75" x="462.935547"/>
     <use xlink:href="#DejaVuSans-6c" x="526.314453"/>
     <use xlink:href="#DejaVuSans-6c" x="554.097656"/>
     <use xlink:href="#DejaVuSans-5f" x="581.880859"/>
     <use xlink:href="#DejaVuSans-32" x="631.880859"/>
     <use xlink:href="#DejaVuSans-30" x="695.503906"/>
     <use xlink:href="#DejaVuSans-31" x="759.126953"/>
     <use xlink:href="#DejaVuSans-30" x="822.75"/>
    </g>
   </g>
   <g id="line2d_77">
    <path d="M 641.847234 526.996266 
L 664.947234 526.996266 
L 688.047234 526.996266 
" style="fill: none; stroke: #8172b3; stroke-opacity: 0.9; stroke-width: 3; stroke-linecap: round"/>
   </g>
   <g id="text_34">
    <!-- exiobase3_full_2000 -->
    <g style="fill: #262626" transform="translate(706.527234 535.081266) scale(0.231 -0.231)">
     <defs>
      <path id="DejaVuSans-62" d="M 3116 1747 
Q 3116 2381 2855 2742 
Q 2594 3103 2138 3103 
Q 1681 3103 1420 2742 
Q 1159 2381 1159 1747 
Q 1159 1113 1420 752 
Q 1681 391 2138 391 
Q 2594 391 2855 752 
Q 3116 1113 3116 1747 
z
M 1159 2969 
Q 1341 3281 1617 3432 
Q 1894 3584 2278 3584 
Q 2916 3584 3314 3078 
Q 3713 2572 3713 1747 
Q 3713 922 3314 415 
Q 2916 -91 2278 -91 
Q 1894 -91 1617 61 
Q 1341 213 1159 525 
L 1159 0 
L 581 0 
L 581 4863 
L 1159 4863 
L 1159 2969 
z
" transform="scale(0.015625)"/>
     </defs>
     <use xlink:href="#DejaVuSans-65"/>
     <use xlink:href="#DejaVuSans-78" x="59.773438"/>
     <use xlink:href="#DejaVuSans-69" x="118.953125"/>
     <use xlink:href="#DejaVuSans-6f" x="146.736328"/>
     <use xlink:href="#DejaVuSans-62" x="207.917969"/>
     <use xlink:href="#DejaVuSans-61" x="271.394531"/>
     <use xlink:href="#DejaVuSans-73" x="332.673828"/>
     <use xlink:href="#DejaVuSans-65" x="384.773438"/>
     <use xlink:href="#DejaVuSans-33" x="446.296875"/>
     <use xlink:href="#DejaVuSans-5f" x="509.919922"/>
     <use xlink:href="#DejaVuSans-66" x="559.919922"/>
     <use xlink:href="#DejaVuSans-75" x="595.125"/>
     <use xlink:href="#DejaVuSans-6c" x="658.503906"/>
     <use xlink:href="#DejaVuSans-6c" x="686.287109"/>
     <use xlink:href="#DejaVuSans-5f" x="714.070312"/>
     <use xlink:href="#DejaVuSans-32" x="764.070312"/>
     <use xlink:href="#DejaVuSans-30" x="827.693359"/>
     <use xlink:href="#DejaVuSans-30" x="891.316406"/>
     <use xlink:href="#DejaVuSans-30" x="954.939453"/>
    </g>
   </g>
   <g id="line2d_78">
    <path d="M 988.022391 526.996266 
L 1011.122391 526.996266 
L 1034.222391 526.996266 
" style="fill: none; stroke: #937860; stroke-opacity: 0.9; stroke-width: 3; stroke-linecap: round"/>
   </g>
   <g id="text_35">
    <!-- exiobase3_full_2010 -->
    <g style="fill: #262626" transform="translate(1052.702391 535.081266) scale(0.231 -0.231)">
     <use xlink:href="#DejaVuSans-65"/>
     <use xlink:href="#DejaVuSans-78" x="59.773438"/>
     <use xlink:href="#DejaVuSans-69" x="118.953125"/>
     <use xlink:href="#DejaVuSans-6f" x="146.736328"/>
     <use xlink:href="#DejaVuSans-62" x="207.917969"/>
     <use xlink:href="#DejaVuSans-61" x="271.394531"/>
     <use xlink:href="#DejaVuSans-73" x="332.673828"/>
     <use xlink:href="#DejaVuSans-65" x="384.773438"/>
     <use xlink:href="#DejaVuSans-33" x="446.296875"/>
     <use xlink:href="#DejaVuSans-5f" x="509.919922"/>
     <use xlink:href="#DejaVuSans-66" x="559.919922"/>
     <use xlink:href="#DejaVuSans-75" x="595.125"/>
     <use xlink:href="#DejaVuSans-6c" x="658.503906"/>
     <use xlink:href="#DejaVuSans-6c" x="686.287109"/>
     <use xlink:href="#DejaVuSans-5f" x="714.070312"/>
     <use xlink:href="#DejaVuSans-32" x="764.070312"/>
     <use xlink:href="#DejaVuSans-30" x="827.693359"/>
     <use xlink:href="#DejaVuSans-31" x="891.316406"/>
     <use xlink:href="#DejaVuSans-30" x="954.939453"/>
    </g>
   </g>
  </g>
 </g>
 <defs>
  <clipPath id="pd1b55217ba">
   <rect x="170.340091" y="81.456" width="292.369069" height="119.586"/>
  </clipPath>
  <clipPath id="p1ce862e68b">
   <rect x="489.290298" y="81.456" width="292.369069" height="119.586"/>
  </clipPath>
  <clipPath id="pb1e2e1b535">
   <rect x="808.240504" y="81.456" width="292.369069" height="119.586"/>
  </clipPath>
  <clipPath id="p09d0e62d09">
   <rect x="170.340091" y="253.698" width="292.369069" height="119.586"/>
  </clipPath>
  <clipPath id="pf267653683">
   <rect x="489.290298" y="253.698" width="292.369069" height="119.586"/>
  </clipPath>
  <clipPath id="p159f5f1583">
   <rect x="808.240504" y="253.698" width="292.369069" height="119.586"/>
  </clipPath>
 </defs>
</svg>
