<?xml version="1.0" encoding="utf-8" standalone="no"?>
<!DOCTYPE svg PUBLIC "-//W3C//DTD SVG 1.1//EN"
  "http://www.w3.org/Graphics/SVG/1.1/DTD/svg11.dtd">
<svg xmlns:xlink="http://www.w3.org/1999/xlink" width="1304.437547pt" height="591.51675pt" viewBox="0 0 1304.437547 591.51675" xmlns="http://www.w3.org/2000/svg" version="1.1">
 <metadata>
  <rdf:RDF xmlns:dc="http://purl.org/dc/elements/1.1/" xmlns:cc="http://creativecommons.org/ns#" xmlns:rdf="http://www.w3.org/1999/02/22-rdf-syntax-ns#">
   <cc:Work>
    <dc:type rdf:resource="http://purl.org/dc/dcmitype/StillImage"/>
    <dc:date>2023-04-28T12:10:01.678321</dc:date>
    <dc:format>image/svg+xml</dc:format>
    <dc:creator>
     <cc:Agent>
      <dc:title>Matplotlib v3.7.1, https://matplotlib.org/</dc:title>
     </cc:Agent>
    </dc:creator>
   </cc:Work>
  </rdf:RDF>
 </metadata>
 <defs>
  <style type="text/css">*{stroke-linejoin: round; stroke-linecap: butt}</style>
 </defs>
 <g id="figure_1">
  <g id="patch_1">
   <path d="M 0 591.51675 
L 1304.437547 591.51675 
L 1304.437547 -0 
L 0 -0 
z
" style="fill: #ffffff"/>
  </g>
  <g id="axes_1">
   <g id="patch_2">
    <path d="M 170.340091 201.042 
L 462.70916 201.042 
L 462.70916 81.456 
L 170.340091 81.456 
z
" style="fill: #eaeaf2"/>
   </g>
   <g id="matplotlib.axis_1">
    <g id="xtick_1">
     <g id="line2d_1">
      <path d="M 183.629594 201.042 
L 183.629594 81.456 
" clip-path="url(#pbc3a4ab1a8)" style="fill: none; stroke: #ffffff; stroke-linecap: round"/>
     </g>
    </g>
    <g id="xtick_2">
     <g id="line2d_2">
      <path d="M 274.77845 201.042 
L 274.77845 81.456 
" clip-path="url(#pbc3a4ab1a8)" style="fill: none; stroke: #ffffff; stroke-linecap: round"/>
     </g>
    </g>
    <g id="xtick_3">
     <g id="line2d_3">
      <path d="M 365.927305 201.042 
L 365.927305 81.456 
" clip-path="url(#pbc3a4ab1a8)" style="fill: none; stroke: #ffffff; stroke-linecap: round"/>
     </g>
    </g>
    <g id="xtick_4">
     <g id="line2d_4">
      <path d="M 457.076161 201.042 
L 457.076161 81.456 
" clip-path="url(#pbc3a4ab1a8)" style="fill: none; stroke: #ffffff; stroke-linecap: round"/>
     </g>
    </g>
   </g>
   <g id="matplotlib.axis_2">
    <g id="ytick_1">
     <g id="line2d_5">
      <path d="M 170.340091 160.689513 
L 462.70916 160.689513 
" clip-path="url(#pbc3a4ab1a8)" style="fill: none; stroke: #ffffff; stroke-linecap: round"/>
     </g>
     <g id="text_1">
      <!-- −0.2 -->
      <g style="fill: #262626" transform="translate(104.746794 169.465709) scale(0.231 -0.231)">
       <defs>
        <path id="DejaVuSans-2212" d="M 678 2272 
L 4684 2272 
L 4684 1741 
L 678 1741 
L 678 2272 
z
" transform="scale(0.015625)"/>
        <path id="DejaVuSans-30" d="M 2034 4250 
Q 1547 4250 1301 3770 
Q 1056 3291 1056 2328 
Q 1056 1369 1301 889 
Q 1547 409 2034 409 
Q 2525 409 2770 889 
Q 3016 1369 3016 2328 
Q 3016 3291 2770 3770 
Q 2525 4250 2034 4250 
z
M 2034 4750 
Q 2819 4750 3233 4129 
Q 3647 3509 3647 2328 
Q 3647 1150 3233 529 
Q 2819 -91 2034 -91 
Q 1250 -91 836 529 
Q 422 1150 422 2328 
Q 422 3509 836 4129 
Q 1250 4750 2034 4750 
z
" transform="scale(0.015625)"/>
        <path id="DejaVuSans-2e" d="M 684 794 
L 1344 794 
L 1344 0 
L 684 0 
L 684 794 
z
" transform="scale(0.015625)"/>
        <path id="DejaVuSans-32" d="M 1228 531 
L 3431 531 
L 3431 0 
L 469 0 
L 469 531 
Q 828 903 1448 1529 
Q 2069 2156 2228 2338 
Q 2531 2678 2651 2914 
Q 2772 3150 2772 3378 
Q 2772 3750 2511 3984 
Q 2250 4219 1831 4219 
Q 1534 4219 1204 4116 
Q 875 4013 500 3803 
L 500 4441 
Q 881 4594 1212 4672 
Q 1544 4750 1819 4750 
Q 2544 4750 2975 4387 
Q 3406 4025 3406 3419 
Q 3406 3131 3298 2873 
Q 3191 2616 2906 2266 
Q 2828 2175 2409 1742 
Q 1991 1309 1228 531 
z
" transform="scale(0.015625)"/>
       </defs>
       <use xlink:href="#DejaVuSans-2212"/>
       <use xlink:href="#DejaVuSans-30" x="83.789062"/>
       <use xlink:href="#DejaVuSans-2e" x="147.412109"/>
       <use xlink:href="#DejaVuSans-32" x="179.199219"/>
      </g>
     </g>
    </g>
    <g id="ytick_2">
     <g id="line2d_6">
      <path d="M 170.340091 96.683332 
L 462.70916 96.683332 
" clip-path="url(#pbc3a4ab1a8)" style="fill: none; stroke: #ffffff; stroke-linecap: round"/>
     </g>
     <g id="text_2">
      <!-- 0.0 -->
      <g style="fill: #262626" transform="translate(124.103872 105.459527) scale(0.231 -0.231)">
       <use xlink:href="#DejaVuSans-30"/>
       <use xlink:href="#DejaVuSans-2e" x="63.623047"/>
       <use xlink:href="#DejaVuSans-30" x="95.410156"/>
      </g>
     </g>
    </g>
    <g id="text_3">
     <!-- % change -->
     <g style="fill: #262626" transform="translate(95.505982 203.597344) rotate(-90) scale(0.252 -0.252)">
      <defs>
       <path id="DejaVuSans-25" d="M 4653 2053 
Q 4381 2053 4226 1822 
Q 4072 1591 4072 1178 
Q 4072 772 4226 539 
Q 4381 306 4653 306 
Q 4919 306 5073 539 
Q 5228 772 5228 1178 
Q 5228 1588 5073 1820 
Q 4919 2053 4653 2053 
z
M 4653 2450 
Q 5147 2450 5437 2106 
Q 5728 1763 5728 1178 
Q 5728 594 5436 251 
Q 5144 -91 4653 -91 
Q 4153 -91 3862 251 
Q 3572 594 3572 1178 
Q 3572 1766 3864 2108 
Q 4156 2450 4653 2450 
z
M 1428 4353 
Q 1159 4353 1004 4120 
Q 850 3888 850 3481 
Q 850 3069 1003 2837 
Q 1156 2606 1428 2606 
Q 1700 2606 1854 2837 
Q 2009 3069 2009 3481 
Q 2009 3884 1853 4118 
Q 1697 4353 1428 4353 
z
M 4250 4750 
L 4750 4750 
L 1831 -91 
L 1331 -91 
L 4250 4750 
z
M 1428 4750 
Q 1922 4750 2215 4408 
Q 2509 4066 2509 3481 
Q 2509 2891 2217 2550 
Q 1925 2209 1428 2209 
Q 931 2209 642 2551 
Q 353 2894 353 3481 
Q 353 4063 643 4406 
Q 934 4750 1428 4750 
z
" transform="scale(0.015625)"/>
       <path id="DejaVuSans-20" transform="scale(0.015625)"/>
       <path id="DejaVuSans-63" d="M 3122 3366 
L 3122 2828 
Q 2878 2963 2633 3030 
Q 2388 3097 2138 3097 
Q 1578 3097 1268 2742 
Q 959 2388 959 1747 
Q 959 1106 1268 751 
Q 1578 397 2138 397 
Q 2388 397 2633 464 
Q 2878 531 3122 666 
L 3122 134 
Q 2881 22 2623 -34 
Q 2366 -91 2075 -91 
Q 1284 -91 818 406 
Q 353 903 353 1747 
Q 353 2603 823 3093 
Q 1294 3584 2113 3584 
Q 2378 3584 2631 3529 
Q 2884 3475 3122 3366 
z
" transform="scale(0.015625)"/>
       <path id="DejaVuSans-68" d="M 3513 2113 
L 3513 0 
L 2938 0 
L 2938 2094 
Q 2938 2591 2744 2837 
Q 2550 3084 2163 3084 
Q 1697 3084 1428 2787 
Q 1159 2491 1159 1978 
L 1159 0 
L 581 0 
L 581 4863 
L 1159 4863 
L 1159 2956 
Q 1366 3272 1645 3428 
Q 1925 3584 2291 3584 
Q 2894 3584 3203 3211 
Q 3513 2838 3513 2113 
z
" transform="scale(0.015625)"/>
       <path id="DejaVuSans-61" d="M 2194 1759 
Q 1497 1759 1228 1600 
Q 959 1441 959 1056 
Q 959 750 1161 570 
Q 1363 391 1709 391 
Q 2188 391 2477 730 
Q 2766 1069 2766 1631 
L 2766 1759 
L 2194 1759 
z
M 3341 1997 
L 3341 0 
L 2766 0 
L 2766 531 
Q 2569 213 2275 61 
Q 1981 -91 1556 -91 
Q 1019 -91 701 211 
Q 384 513 384 1019 
Q 384 1609 779 1909 
Q 1175 2209 1959 2209 
L 2766 2209 
L 2766 2266 
Q 2766 2663 2505 2880 
Q 2244 3097 1772 3097 
Q 1472 3097 1187 3025 
Q 903 2953 641 2809 
L 641 3341 
Q 956 3463 1253 3523 
Q 1550 3584 1831 3584 
Q 2591 3584 2966 3190 
Q 3341 2797 3341 1997 
z
" transform="scale(0.015625)"/>
       <path id="DejaVuSans-6e" d="M 3513 2113 
L 3513 0 
L 2938 0 
L 2938 2094 
Q 2938 2591 2744 2837 
Q 2550 3084 2163 3084 
Q 1697 3084 1428 2787 
Q 1159 2491 1159 1978 
L 1159 0 
L 581 0 
L 581 3500 
L 1159 3500 
L 1159 2956 
Q 1366 3272 1645 3428 
Q 1925 3584 2291 3584 
Q 2894 3584 3203 3211 
Q 3513 2838 3513 2113 
z
" transform="scale(0.015625)"/>
       <path id="DejaVuSans-67" d="M 2906 1791 
Q 2906 2416 2648 2759 
Q 2391 3103 1925 3103 
Q 1463 3103 1205 2759 
Q 947 2416 947 1791 
Q 947 1169 1205 825 
Q 1463 481 1925 481 
Q 2391 481 2648 825 
Q 2906 1169 2906 1791 
z
M 3481 434 
Q 3481 -459 3084 -895 
Q 2688 -1331 1869 -1331 
Q 1566 -1331 1297 -1286 
Q 1028 -1241 775 -1147 
L 775 -588 
Q 1028 -725 1275 -790 
Q 1522 -856 1778 -856 
Q 2344 -856 2625 -561 
Q 2906 -266 2906 331 
L 2906 616 
Q 2728 306 2450 153 
Q 2172 0 1784 0 
Q 1141 0 747 490 
Q 353 981 353 1791 
Q 353 2603 747 3093 
Q 1141 3584 1784 3584 
Q 2172 3584 2450 3431 
Q 2728 3278 2906 2969 
L 2906 3500 
L 3481 3500 
L 3481 434 
z
" transform="scale(0.015625)"/>
       <path id="DejaVuSans-65" d="M 3597 1894 
L 3597 1613 
L 953 1613 
Q 991 1019 1311 708 
Q 1631 397 2203 397 
Q 2534 397 2845 478 
Q 3156 559 3463 722 
L 3463 178 
Q 3153 47 2828 -22 
Q 2503 -91 2169 -91 
Q 1331 -91 842 396 
Q 353 884 353 1716 
Q 353 2575 817 3079 
Q 1281 3584 2069 3584 
Q 2775 3584 3186 3129 
Q 3597 2675 3597 1894 
z
M 3022 2063 
Q 3016 2534 2758 2815 
Q 2500 3097 2075 3097 
Q 1594 3097 1305 2825 
Q 1016 2553 972 2059 
L 3022 2063 
z
" transform="scale(0.015625)"/>
      </defs>
      <use xlink:href="#DejaVuSans-25"/>
      <use xlink:href="#DejaVuSans-20" x="95.019531"/>
      <use xlink:href="#DejaVuSans-63" x="126.806641"/>
      <use xlink:href="#DejaVuSans-68" x="181.787109"/>
      <use xlink:href="#DejaVuSans-61" x="245.166016"/>
      <use xlink:href="#DejaVuSans-6e" x="306.445312"/>
      <use xlink:href="#DejaVuSans-67" x="369.824219"/>
      <use xlink:href="#DejaVuSans-65" x="433.300781"/>
     </g>
    </g>
   </g>
   <g id="PolyCollection_1"/>
   <g id="PolyCollection_2"/>
   <g id="PolyCollection_3"/>
   <g id="PolyCollection_4"/>
   <g id="PolyCollection_5"/>
   <g id="PolyCollection_6"/>
   <g id="line2d_7">
    <path d="M 183.629594 96.683332 
L 183.99419 184.36306 
L 184.358785 187.383515 
L 184.723381 188.10521 
L 185.087976 188.194524 
L 186.181762 187.817695 
L 189.098526 186.57443 
L 190.192312 184.731723 
L 198.578007 169.756067 
L 206.23451 156.538761 
L 214.620205 142.535152 
L 220.089136 133.75837 
L 227.74564 122.071766 
L 236.860526 108.743598 
L 243.058648 99.99722 
L 244.152434 98.81924 
L 248.527579 94.517247 
L 253.631915 89.775748 
L 254.725702 88.812015 
L 256.184083 88.784108 
L 259.830038 88.864776 
L 265.663564 89.974944 
L 271.861686 91.095969 
L 277.330618 91.832086 
L 283.164145 92.371384 
L 292.643626 92.981304 
L 301.393916 93.402928 
L 327.280191 94.226699 
L 344.416176 94.392444 
L 381.604909 94.482552 
L 449.419657 94.485308 
L 449.419657 94.485308 
" clip-path="url(#pbc3a4ab1a8)" style="fill: none; stroke: #4c72b0; stroke-opacity: 0.9; stroke-width: 3; stroke-linecap: round"/>
   </g>
   <g id="line2d_8">
    <path d="M 183.629594 96.683332 
L 183.99419 181.842563 
L 184.358785 185.400889 
L 184.723381 186.567771 
L 185.087976 186.913561 
L 185.817167 186.891204 
L 188.004739 186.130383 
L 189.098526 185.732772 
L 189.827716 184.669047 
L 197.48422 171.558399 
L 206.599106 156.358108 
L 214.984801 142.779496 
L 223.370495 129.624936 
L 228.110236 122.503871 
L 233.943763 114.186949 
L 243.058648 101.599827 
L 244.881625 99.468838 
L 249.25677 95.112312 
L 254.725702 89.82279 
L 256.184083 89.765728 
L 262.382205 89.748508 
L 279.153595 91.651509 
L 284.987122 92.126119 
L 291.914435 92.662458 
L 295.924984 93.104019 
L 311.237992 93.49108 
L 350.978893 94.021263 
L 419.158237 94.157533 
L 449.419657 94.159194 
L 449.419657 94.159194 
" clip-path="url(#pbc3a4ab1a8)" style="fill: none; stroke: #dd8452; stroke-opacity: 0.9; stroke-width: 3; stroke-linecap: round"/>
   </g>
   <g id="line2d_9">
    <path d="M 183.629594 96.683332 
L 183.99419 188.876388 
L 184.358785 193.8097 
L 184.723381 194.965755 
L 185.087976 195.178966 
L 185.817167 194.987471 
L 189.098526 193.459382 
L 190.192312 191.454831 
L 198.578007 175.217592 
L 206.599106 160.24286 
L 214.620205 145.730949 
L 221.912114 132.979512 
L 228.839427 121.286804 
L 233.579167 113.653102 
L 239.412694 104.731699 
L 242.694053 99.956202 
L 246.340007 95.542551 
L 249.621366 91.943208 
L 252.538129 89.096739 
L 253.996511 88.075724 
L 254.725702 87.678156 
L 255.454892 87.731547 
L 269.674114 90.402001 
L 277.330618 91.52543 
L 291.549839 93.328759 
L 297.747961 93.799161 
L 307.227442 94.272639 
L 318.165305 94.565018 
L 333.842908 94.754842 
L 361.187565 94.85796 
L 447.232085 94.860758 
L 449.419657 94.860139 
L 449.419657 94.860139 
" clip-path="url(#pbc3a4ab1a8)" style="fill: none; stroke: #55a868; stroke-opacity: 0.9; stroke-width: 3; stroke-linecap: round"/>
   </g>
   <g id="line2d_10">
    <path d="M 183.629594 96.683332 
L 183.99419 185.829488 
L 184.358785 190.709809 
L 184.723381 191.83498 
L 185.087976 192.036802 
L 185.817167 191.850989 
L 189.098526 190.389261 
L 190.192312 188.463031 
L 198.942602 172.102604 
L 207.328297 156.948705 
L 215.349396 142.909489 
L 222.641304 130.616573 
L 229.204022 119.972644 
L 234.308358 112.06904 
L 239.777289 104.041555 
L 242.694053 99.96755 
L 247.433793 94.545073 
L 249.985961 91.936028 
L 252.173534 89.925745 
L 253.26732 89.197482 
L 254.725702 88.441359 
L 255.454892 88.49739 
L 263.840587 90.008716 
L 270.038709 90.86958 
L 279.882786 91.985485 
L 286.810099 92.811367 
L 291.549839 93.341733 
L 298.477152 93.849749 
L 307.592038 94.254662 
L 319.259091 94.53368 
L 336.030481 94.711223 
L 369.937855 94.790786 
L 449.419657 94.775325 
L 449.419657 94.775325 
" clip-path="url(#pbc3a4ab1a8)" style="fill: none; stroke: #c44e52; stroke-opacity: 0.9; stroke-width: 3; stroke-linecap: round"/>
   </g>
   <g id="line2d_11">
    <path d="M 183.629594 96.683332 
L 183.99419 187.578949 
L 184.358785 191.488669 
L 184.723381 192.048611 
L 185.087976 192.041965 
L 186.546358 191.444319 
L 189.098526 190.328941 
L 190.556907 187.652754 
L 198.213411 173.461 
L 206.599106 158.40237 
L 214.984801 143.80852 
L 223.370495 129.66163 
L 231.75619 115.98812 
L 240.50648 102.429931 
L 242.694053 99.248257 
L 245.246221 96.078157 
L 248.527579 92.370673 
L 252.538129 88.64395 
L 254.725702 86.928133 
L 255.819488 86.915221 
L 270.7679 87.734255 
L 274.77845 88.07816 
L 282.799549 89.618939 
L 287.903885 90.548958 
L 292.27903 91.1969 
L 297.018771 91.679123 
L 312.331778 92.840561 
L 321.082069 93.288561 
L 346.603748 94.130182 
L 367.385687 94.29057 
L 410.772542 94.36226 
L 449.419657 94.362632 
L 449.419657 94.362632 
" clip-path="url(#pbc3a4ab1a8)" style="fill: none; stroke: #8172b3; stroke-opacity: 0.9; stroke-width: 3; stroke-linecap: round"/>
   </g>
   <g id="line2d_12">
    <path d="M 183.629594 96.683332 
L 183.99419 185.498581 
L 184.358785 188.73863 
L 184.723381 189.258576 
L 185.087976 189.252455 
L 186.546358 188.696654 
L 189.098526 187.660987 
L 190.556907 185.087538 
L 198.213411 171.445259 
L 206.23451 157.596507 
L 214.620205 143.548696 
L 222.276709 131.126787 
L 230.662404 117.903833 
L 239.048098 105.27617 
L 243.058648 99.468917 
L 245.246221 96.78417 
L 247.433793 94.476725 
L 251.808938 90.440271 
L 254.725702 87.948488 
L 255.819488 87.929378 
L 266.757351 88.45566 
L 274.77845 89.0203 
L 289.362267 91.167619 
L 295.560389 91.708938 
L 306.498252 92.380222 
L 315.977733 92.876302 
L 321.446664 93.274692 
L 341.499412 93.850507 
L 356.447824 94.043285 
L 388.167626 94.162308 
L 449.419657 94.187331 
L 449.419657 94.187331 
" clip-path="url(#pbc3a4ab1a8)" style="fill: none; stroke: #937860; stroke-opacity: 0.9; stroke-width: 3; stroke-linecap: round"/>
   </g>
   <g id="patch_3">
    <path d="M 170.340091 201.042 
L 170.340091 81.456 
" style="fill: none; stroke: #ffffff; stroke-width: 1.25; stroke-linejoin: miter; stroke-linecap: square"/>
   </g>
   <g id="patch_4">
    <path d="M 170.340091 201.042 
L 462.70916 201.042 
" style="fill: none; stroke: #ffffff; stroke-width: 1.25; stroke-linejoin: miter; stroke-linecap: square"/>
   </g>
   <g id="text_4">
    <!-- 0.8~90 -->
    <g style="fill: #262626" transform="translate(269.894782 75.456) scale(0.252 -0.252)">
     <defs>
      <path id="DejaVuSans-38" d="M 2034 2216 
Q 1584 2216 1326 1975 
Q 1069 1734 1069 1313 
Q 1069 891 1326 650 
Q 1584 409 2034 409 
Q 2484 409 2743 651 
Q 3003 894 3003 1313 
Q 3003 1734 2745 1975 
Q 2488 2216 2034 2216 
z
M 1403 2484 
Q 997 2584 770 2862 
Q 544 3141 544 3541 
Q 544 4100 942 4425 
Q 1341 4750 2034 4750 
Q 2731 4750 3128 4425 
Q 3525 4100 3525 3541 
Q 3525 3141 3298 2862 
Q 3072 2584 2669 2484 
Q 3125 2378 3379 2068 
Q 3634 1759 3634 1313 
Q 3634 634 3220 271 
Q 2806 -91 2034 -91 
Q 1263 -91 848 271 
Q 434 634 434 1313 
Q 434 1759 690 2068 
Q 947 2378 1403 2484 
z
M 1172 3481 
Q 1172 3119 1398 2916 
Q 1625 2713 2034 2713 
Q 2441 2713 2670 2916 
Q 2900 3119 2900 3481 
Q 2900 3844 2670 4047 
Q 2441 4250 2034 4250 
Q 1625 4250 1398 4047 
Q 1172 3844 1172 3481 
z
" transform="scale(0.015625)"/>
      <path id="DejaVuSans-7e" d="M 4684 2553 
L 4684 1997 
Q 4356 1750 4076 1644 
Q 3797 1538 3494 1538 
Q 3150 1538 2694 1722 
Q 2659 1734 2644 1741 
Q 2622 1750 2575 1766 
Q 2091 1959 1797 1959 
Q 1522 1959 1253 1839 
Q 984 1719 678 1459 
L 678 2016 
Q 1006 2263 1286 2370 
Q 1566 2478 1869 2478 
Q 2213 2478 2672 2291 
Q 2703 2278 2719 2272 
Q 2744 2263 2788 2247 
Q 3272 2053 3566 2053 
Q 3834 2053 4098 2172 
Q 4363 2291 4684 2553 
z
" transform="scale(0.015625)"/>
      <path id="DejaVuSans-39" d="M 703 97 
L 703 672 
Q 941 559 1184 500 
Q 1428 441 1663 441 
Q 2288 441 2617 861 
Q 2947 1281 2994 2138 
Q 2813 1869 2534 1725 
Q 2256 1581 1919 1581 
Q 1219 1581 811 2004 
Q 403 2428 403 3163 
Q 403 3881 828 4315 
Q 1253 4750 1959 4750 
Q 2769 4750 3195 4129 
Q 3622 3509 3622 2328 
Q 3622 1225 3098 567 
Q 2575 -91 1691 -91 
Q 1453 -91 1209 -44 
Q 966 3 703 97 
z
M 1959 2075 
Q 2384 2075 2632 2365 
Q 2881 2656 2881 3163 
Q 2881 3666 2632 3958 
Q 2384 4250 1959 4250 
Q 1534 4250 1286 3958 
Q 1038 3666 1038 3163 
Q 1038 2656 1286 2365 
Q 1534 2075 1959 2075 
z
" transform="scale(0.015625)"/>
     </defs>
     <use xlink:href="#DejaVuSans-30"/>
     <use xlink:href="#DejaVuSans-2e" x="63.623047"/>
     <use xlink:href="#DejaVuSans-38" x="95.410156"/>
     <use xlink:href="#DejaVuSans-7e" x="159.033203"/>
     <use xlink:href="#DejaVuSans-39" x="242.822266"/>
     <use xlink:href="#DejaVuSans-30" x="306.445312"/>
    </g>
   </g>
  </g>
  <g id="axes_2">
   <g id="patch_5">
    <path d="M 489.290298 201.042 
L 781.659367 201.042 
L 781.659367 81.456 
L 489.290298 81.456 
z
" style="fill: #eaeaf2"/>
   </g>
   <g id="matplotlib.axis_3">
    <g id="xtick_5">
     <g id="line2d_13">
      <path d="M 502.579801 201.042 
L 502.579801 81.456 
" clip-path="url(#p49c14c5370)" style="fill: none; stroke: #ffffff; stroke-linecap: round"/>
     </g>
    </g>
    <g id="xtick_6">
     <g id="line2d_14">
      <path d="M 593.728656 201.042 
L 593.728656 81.456 
" clip-path="url(#p49c14c5370)" style="fill: none; stroke: #ffffff; stroke-linecap: round"/>
     </g>
    </g>
    <g id="xtick_7">
     <g id="line2d_15">
      <path d="M 684.877512 201.042 
L 684.877512 81.456 
" clip-path="url(#p49c14c5370)" style="fill: none; stroke: #ffffff; stroke-linecap: round"/>
     </g>
    </g>
    <g id="xtick_8">
     <g id="line2d_16">
      <path d="M 776.026368 201.042 
L 776.026368 81.456 
" clip-path="url(#p49c14c5370)" style="fill: none; stroke: #ffffff; stroke-linecap: round"/>
     </g>
    </g>
   </g>
   <g id="matplotlib.axis_4">
    <g id="ytick_3">
     <g id="line2d_17">
      <path d="M 489.290298 160.689513 
L 781.659367 160.689513 
" clip-path="url(#p49c14c5370)" style="fill: none; stroke: #ffffff; stroke-linecap: round"/>
     </g>
    </g>
    <g id="ytick_4">
     <g id="line2d_18">
      <path d="M 489.290298 96.683332 
L 781.659367 96.683332 
" clip-path="url(#p49c14c5370)" style="fill: none; stroke: #ffffff; stroke-linecap: round"/>
     </g>
    </g>
   </g>
   <g id="PolyCollection_7"/>
   <g id="PolyCollection_8"/>
   <g id="PolyCollection_9"/>
   <g id="PolyCollection_10"/>
   <g id="PolyCollection_11"/>
   <g id="PolyCollection_12"/>
   <g id="line2d_19">
    <path d="M 502.579801 96.683332 
L 502.944396 184.36306 
L 503.308992 187.480889 
L 503.673587 188.315518 
L 504.038182 188.521772 
L 504.767373 188.53191 
L 508.048732 188.187205 
L 508.777923 187.229939 
L 549.61261 126.756791 
L 562.37345 108.416982 
L 570.029954 97.912882 
L 572.217526 95.302026 
L 573.675908 93.921744 
L 575.498885 93.9259 
L 595.916229 94.122302 
L 621.437908 94.404127 
L 625.813054 94.586989 
L 633.834153 95.088824 
L 643.678229 95.477123 
L 655.345283 95.697007 
L 684.512917 95.967297 
L 742.483589 96.098368 
L 768.369864 96.100793 
L 768.369864 96.100793 
" clip-path="url(#p49c14c5370)" style="fill: none; stroke: #4c72b0; stroke-opacity: 0.9; stroke-width: 3; stroke-linecap: round"/>
   </g>
   <g id="line2d_20">
    <path d="M 502.579801 96.683332 
L 502.944396 181.842563 
L 503.308992 185.480761 
L 503.673587 186.741248 
L 504.038182 187.185362 
L 504.767373 187.36322 
L 506.59035 187.235363 
L 508.048732 187.100264 
L 508.777923 186.233567 
L 512.423877 180.893033 
L 531.382839 153.193835 
L 549.977206 126.417254 
L 565.290213 104.711102 
L 570.394549 97.931743 
L 572.946717 94.989481 
L 573.675908 94.231729 
L 575.13429 94.225397 
L 592.270275 94.406256 
L 630.917389 94.741178 
L 640.032275 95.173701 
L 657.532855 95.709778 
L 682.325344 95.895281 
L 718.055695 95.971567 
L 768.369864 96.016473 
L 768.369864 96.016473 
" clip-path="url(#p49c14c5370)" style="fill: none; stroke: #dd8452; stroke-opacity: 0.9; stroke-width: 3; stroke-linecap: round"/>
   </g>
   <g id="line2d_21">
    <path d="M 502.579801 96.683332 
L 502.944396 188.876388 
L 503.308992 193.914581 
L 503.673587 195.193136 
L 504.038182 195.533445 
L 504.767373 195.598279 
L 508.048732 195.213646 
L 508.777923 194.170754 
L 546.695847 133.472297 
L 560.915068 111.323576 
L 568.571572 99.773959 
L 570.394549 97.285788 
L 573.675908 93.44322 
L 576.957267 93.414034 
L 595.916229 93.503646 
L 606.124901 93.753029 
L 613.781405 94.186873 
L 637.115512 95.402737 
L 653.522306 95.847877 
L 667.012336 96.047574 
L 693.992398 96.189639 
L 753.056856 96.231721 
L 768.369864 96.231833 
L 768.369864 96.231833 
" clip-path="url(#p49c14c5370)" style="fill: none; stroke: #55a868; stroke-opacity: 0.9; stroke-width: 3; stroke-linecap: round"/>
   </g>
   <g id="line2d_22">
    <path d="M 502.579801 96.683332 
L 502.944396 185.829488 
L 503.308992 190.810271 
L 503.673587 192.053308 
L 504.038182 192.377368 
L 504.767373 192.438392 
L 508.048732 192.078205 
L 508.777923 191.079797 
L 520.444976 172.801246 
L 538.310152 145.154082 
L 554.716946 120.165733 
L 565.290213 104.410611 
L 569.665358 98.196024 
L 571.12374 96.511044 
L 573.675908 93.688422 
L 577.321862 93.64422 
L 591.176488 93.650132 
L 604.301924 93.896503 
L 614.510595 94.422261 
L 632.740367 95.270855 
L 645.501206 95.579397 
L 676.491817 96.096891 
L 712.222169 96.197933 
L 768.369864 96.211072 
L 768.369864 96.211072 
" clip-path="url(#p49c14c5370)" style="fill: none; stroke: #c44e52; stroke-opacity: 0.9; stroke-width: 3; stroke-linecap: round"/>
   </g>
   <g id="line2d_23">
    <path d="M 502.579801 96.683332 
L 502.944396 187.578949 
L 503.308992 191.600702 
L 503.673587 192.280627 
L 504.038182 192.395143 
L 505.496564 192.280936 
L 508.048732 192.001635 
L 509.507114 189.794095 
L 526.278503 163.706391 
L 544.143679 136.326995 
L 562.008855 109.350166 
L 570.029954 97.529192 
L 571.852931 95.185537 
L 573.675908 93.187516 
L 576.592672 93.157232 
L 594.457847 93.161908 
L 648.053374 94.262802 
L 652.793115 94.433544 
L 660.814214 94.899256 
L 671.022886 95.2463 
L 687.794275 95.534727 
L 700.919711 95.728239 
L 733.368703 95.884291 
L 768.369864 95.975403 
L 768.369864 95.975403 
" clip-path="url(#p49c14c5370)" style="fill: none; stroke: #8172b3; stroke-opacity: 0.9; stroke-width: 3; stroke-linecap: round"/>
   </g>
   <g id="line2d_24">
    <path d="M 502.579801 96.683332 
L 502.944396 185.498581 
L 503.308992 188.843073 
L 503.673587 189.474556 
L 504.402778 189.57635 
L 508.048732 189.214564 
L 509.507114 187.078123 
L 526.278503 161.829481 
L 544.143679 135.343379 
L 562.008855 109.253905 
L 570.394549 97.304504 
L 572.217526 95.022538 
L 573.675908 93.393222 
L 576.592672 93.388422 
L 595.916229 93.674059 
L 617.062763 94.118358 
L 633.104962 94.367843 
L 642.584443 94.596706 
L 654.980687 94.992361 
L 667.012336 95.296898 
L 687.42968 95.584188 
L 743.21278 95.893919 
L 768.369864 95.93075 
L 768.369864 95.93075 
" clip-path="url(#p49c14c5370)" style="fill: none; stroke: #937860; stroke-opacity: 0.9; stroke-width: 3; stroke-linecap: round"/>
   </g>
   <g id="patch_6">
    <path d="M 489.290298 201.042 
L 489.290298 81.456 
" style="fill: none; stroke: #ffffff; stroke-width: 1.25; stroke-linejoin: miter; stroke-linecap: square"/>
   </g>
   <g id="patch_7">
    <path d="M 489.290298 201.042 
L 781.659367 201.042 
" style="fill: none; stroke: #ffffff; stroke-width: 1.25; stroke-linejoin: miter; stroke-linecap: square"/>
   </g>
   <g id="text_5">
    <!-- 0.8~365 -->
    <g style="fill: #262626" transform="translate(580.828239 75.456) scale(0.252 -0.252)">
     <defs>
      <path id="DejaVuSans-33" d="M 2597 2516 
Q 3050 2419 3304 2112 
Q 3559 1806 3559 1356 
Q 3559 666 3084 287 
Q 2609 -91 1734 -91 
Q 1441 -91 1130 -33 
Q 819 25 488 141 
L 488 750 
Q 750 597 1062 519 
Q 1375 441 1716 441 
Q 2309 441 2620 675 
Q 2931 909 2931 1356 
Q 2931 1769 2642 2001 
Q 2353 2234 1838 2234 
L 1294 2234 
L 1294 2753 
L 1863 2753 
Q 2328 2753 2575 2939 
Q 2822 3125 2822 3475 
Q 2822 3834 2567 4026 
Q 2313 4219 1838 4219 
Q 1578 4219 1281 4162 
Q 984 4106 628 3988 
L 628 4550 
Q 988 4650 1302 4700 
Q 1616 4750 1894 4750 
Q 2613 4750 3031 4423 
Q 3450 4097 3450 3541 
Q 3450 3153 3228 2886 
Q 3006 2619 2597 2516 
z
" transform="scale(0.015625)"/>
      <path id="DejaVuSans-36" d="M 2113 2584 
Q 1688 2584 1439 2293 
Q 1191 2003 1191 1497 
Q 1191 994 1439 701 
Q 1688 409 2113 409 
Q 2538 409 2786 701 
Q 3034 994 3034 1497 
Q 3034 2003 2786 2293 
Q 2538 2584 2113 2584 
z
M 3366 4563 
L 3366 3988 
Q 3128 4100 2886 4159 
Q 2644 4219 2406 4219 
Q 1781 4219 1451 3797 
Q 1122 3375 1075 2522 
Q 1259 2794 1537 2939 
Q 1816 3084 2150 3084 
Q 2853 3084 3261 2657 
Q 3669 2231 3669 1497 
Q 3669 778 3244 343 
Q 2819 -91 2113 -91 
Q 1303 -91 875 529 
Q 447 1150 447 2328 
Q 447 3434 972 4092 
Q 1497 4750 2381 4750 
Q 2619 4750 2861 4703 
Q 3103 4656 3366 4563 
z
" transform="scale(0.015625)"/>
      <path id="DejaVuSans-35" d="M 691 4666 
L 3169 4666 
L 3169 4134 
L 1269 4134 
L 1269 2991 
Q 1406 3038 1543 3061 
Q 1681 3084 1819 3084 
Q 2600 3084 3056 2656 
Q 3513 2228 3513 1497 
Q 3513 744 3044 326 
Q 2575 -91 1722 -91 
Q 1428 -91 1123 -41 
Q 819 9 494 109 
L 494 744 
Q 775 591 1075 516 
Q 1375 441 1709 441 
Q 2250 441 2565 725 
Q 2881 1009 2881 1497 
Q 2881 1984 2565 2268 
Q 2250 2553 1709 2553 
Q 1456 2553 1204 2497 
Q 953 2441 691 2322 
L 691 4666 
z
" transform="scale(0.015625)"/>
     </defs>
     <use xlink:href="#DejaVuSans-30"/>
     <use xlink:href="#DejaVuSans-2e" x="63.623047"/>
     <use xlink:href="#DejaVuSans-38" x="95.410156"/>
     <use xlink:href="#DejaVuSans-7e" x="159.033203"/>
     <use xlink:href="#DejaVuSans-33" x="242.822266"/>
     <use xlink:href="#DejaVuSans-36" x="306.445312"/>
     <use xlink:href="#DejaVuSans-35" x="370.068359"/>
    </g>
   </g>
  </g>
  <g id="axes_3">
   <g id="patch_8">
    <path d="M 808.240504 201.042 
L 1100.609573 201.042 
L 1100.609573 81.456 
L 808.240504 81.456 
z
" style="fill: #eaeaf2"/>
   </g>
   <g id="matplotlib.axis_5">
    <g id="xtick_9">
     <g id="line2d_25">
      <path d="M 821.530007 201.042 
L 821.530007 81.456 
" clip-path="url(#pb3018fcdac)" style="fill: none; stroke: #ffffff; stroke-linecap: round"/>
     </g>
    </g>
    <g id="xtick_10">
     <g id="line2d_26">
      <path d="M 912.678863 201.042 
L 912.678863 81.456 
" clip-path="url(#pb3018fcdac)" style="fill: none; stroke: #ffffff; stroke-linecap: round"/>
     </g>
    </g>
    <g id="xtick_11">
     <g id="line2d_27">
      <path d="M 1003.827719 201.042 
L 1003.827719 81.456 
" clip-path="url(#pb3018fcdac)" style="fill: none; stroke: #ffffff; stroke-linecap: round"/>
     </g>
    </g>
    <g id="xtick_12">
     <g id="line2d_28">
      <path d="M 1094.976574 201.042 
L 1094.976574 81.456 
" clip-path="url(#pb3018fcdac)" style="fill: none; stroke: #ffffff; stroke-linecap: round"/>
     </g>
    </g>
   </g>
   <g id="matplotlib.axis_6">
    <g id="ytick_5">
     <g id="line2d_29">
      <path d="M 808.240504 160.689513 
L 1100.609573 160.689513 
" clip-path="url(#pb3018fcdac)" style="fill: none; stroke: #ffffff; stroke-linecap: round"/>
     </g>
    </g>
    <g id="ytick_6">
     <g id="line2d_30">
      <path d="M 808.240504 96.683332 
L 1100.609573 96.683332 
" clip-path="url(#pb3018fcdac)" style="fill: none; stroke: #ffffff; stroke-linecap: round"/>
     </g>
    </g>
   </g>
   <g id="PolyCollection_13"/>
   <g id="PolyCollection_14"/>
   <g id="PolyCollection_15"/>
   <g id="PolyCollection_16"/>
   <g id="PolyCollection_17"/>
   <g id="PolyCollection_18"/>
   <g id="line2d_31">
    <path d="M 821.530007 96.683332 
L 821.894603 184.36306 
L 822.259198 187.383515 
L 822.623794 188.10521 
L 822.988389 188.194524 
L 824.082175 187.817695 
L 826.998939 186.57443 
L 828.092725 184.731723 
L 836.47842 169.756067 
L 844.134923 156.538761 
L 852.520618 142.535152 
L 857.98955 133.75837 
L 865.646053 122.071766 
L 874.760939 108.743598 
L 880.959061 99.99722 
L 882.052847 98.81924 
L 886.427992 94.517247 
L 891.532328 89.775748 
L 892.626115 88.812015 
L 894.084496 88.784108 
L 897.730451 88.864776 
L 903.563977 89.974944 
L 909.7621 91.095969 
L 915.231031 91.832086 
L 921.064558 92.371384 
L 930.544039 92.981304 
L 939.294329 93.402928 
L 965.180604 94.226699 
L 982.316589 94.392444 
L 1019.505322 94.482552 
L 1087.32007 94.485308 
L 1087.32007 94.485308 
" clip-path="url(#pb3018fcdac)" style="fill: none; stroke: #4c72b0; stroke-opacity: 0.9; stroke-width: 3; stroke-linecap: round"/>
   </g>
   <g id="line2d_32">
    <path d="M 821.530007 96.683332 
L 821.894603 181.842563 
L 822.259198 185.400889 
L 822.623794 186.567771 
L 822.988389 186.913561 
L 823.71758 186.891204 
L 825.905152 186.130383 
L 826.998939 185.732772 
L 827.728129 184.669047 
L 835.384633 171.558399 
L 844.499519 156.358108 
L 852.885214 142.779496 
L 861.270908 129.624936 
L 866.010649 122.503871 
L 871.844176 114.186949 
L 880.959061 101.599827 
L 882.782038 99.468838 
L 887.157183 95.112312 
L 892.626115 89.82279 
L 894.084496 89.765728 
L 900.282619 89.748508 
L 917.054008 91.651509 
L 922.887535 92.126119 
L 929.814848 92.662458 
L 933.825397 93.104019 
L 949.138405 93.49108 
L 988.879306 94.021263 
L 1057.05865 94.157533 
L 1087.32007 94.159194 
L 1087.32007 94.159194 
" clip-path="url(#pb3018fcdac)" style="fill: none; stroke: #dd8452; stroke-opacity: 0.9; stroke-width: 3; stroke-linecap: round"/>
   </g>
   <g id="line2d_33">
    <path d="M 821.530007 96.683332 
L 821.894603 188.876388 
L 822.259198 193.8097 
L 822.623794 194.965755 
L 822.988389 195.178966 
L 823.71758 194.987471 
L 826.998939 193.459382 
L 828.092725 191.454831 
L 836.47842 175.217592 
L 844.499519 160.24286 
L 852.520618 145.730949 
L 859.812527 132.979512 
L 866.73984 121.286804 
L 871.47958 113.653102 
L 877.313107 104.731699 
L 880.594466 99.956202 
L 884.24042 95.542551 
L 887.521779 91.943208 
L 890.438542 89.096739 
L 891.896924 88.075724 
L 892.626115 87.678156 
L 893.355306 87.731547 
L 907.574527 90.402001 
L 915.231031 91.52543 
L 929.450252 93.328759 
L 935.648375 93.799161 
L 945.127856 94.272639 
L 956.065718 94.565018 
L 971.743321 94.754842 
L 999.087978 94.85796 
L 1085.132498 94.860758 
L 1087.32007 94.860139 
L 1087.32007 94.860139 
" clip-path="url(#pb3018fcdac)" style="fill: none; stroke: #55a868; stroke-opacity: 0.9; stroke-width: 3; stroke-linecap: round"/>
   </g>
   <g id="line2d_34">
    <path d="M 821.530007 96.683332 
L 821.894603 185.829488 
L 822.259198 190.709809 
L 822.623794 191.83498 
L 822.988389 192.036802 
L 823.71758 191.850989 
L 826.998939 190.389261 
L 828.092725 188.463031 
L 836.843015 172.102604 
L 845.22871 156.948705 
L 853.249809 142.909489 
L 860.541717 130.616573 
L 867.104435 119.972644 
L 872.208771 112.06904 
L 877.677702 104.041555 
L 880.594466 99.96755 
L 885.334206 94.545073 
L 887.886374 91.936028 
L 890.073947 89.925745 
L 891.167733 89.197482 
L 892.626115 88.441359 
L 893.355306 88.49739 
L 901.741 90.008716 
L 907.939122 90.86958 
L 917.783199 91.985485 
L 924.710512 92.811367 
L 929.450252 93.341733 
L 936.377565 93.849749 
L 945.492451 94.254662 
L 957.159504 94.53368 
L 973.930894 94.711223 
L 1007.838268 94.790786 
L 1087.32007 94.775325 
L 1087.32007 94.775325 
" clip-path="url(#pb3018fcdac)" style="fill: none; stroke: #c44e52; stroke-opacity: 0.9; stroke-width: 3; stroke-linecap: round"/>
   </g>
   <g id="line2d_35">
    <path d="M 821.530007 96.683332 
L 821.894603 187.578949 
L 822.259198 191.488669 
L 822.623794 192.048611 
L 822.988389 192.041965 
L 824.446771 191.444319 
L 826.998939 190.328941 
L 828.45732 187.652754 
L 836.113824 173.461 
L 844.499519 158.40237 
L 852.885214 143.80852 
L 861.270908 129.66163 
L 869.656603 115.98812 
L 878.406893 102.429931 
L 880.594466 99.248257 
L 883.146634 96.078157 
L 886.427992 92.370673 
L 890.438542 88.64395 
L 892.626115 86.928133 
L 893.719901 86.915221 
L 908.668313 87.734255 
L 912.678863 88.07816 
L 920.699962 89.618939 
L 925.804298 90.548958 
L 930.179443 91.1969 
L 934.919184 91.679123 
L 950.232191 92.840561 
L 958.982482 93.288561 
L 984.504161 94.130182 
L 1005.2861 94.29057 
L 1048.672956 94.36226 
L 1087.32007 94.362632 
L 1087.32007 94.362632 
" clip-path="url(#pb3018fcdac)" style="fill: none; stroke: #8172b3; stroke-opacity: 0.9; stroke-width: 3; stroke-linecap: round"/>
   </g>
   <g id="line2d_36">
    <path d="M 821.530007 96.683332 
L 821.894603 185.498581 
L 822.259198 188.73863 
L 822.623794 189.258576 
L 822.988389 189.252455 
L 824.446771 188.696654 
L 826.998939 187.660987 
L 828.45732 185.087538 
L 836.113824 171.445259 
L 844.134923 157.596507 
L 852.520618 143.548696 
L 860.177122 131.126787 
L 868.562817 117.903833 
L 876.948512 105.27617 
L 880.959061 99.468917 
L 883.146634 96.78417 
L 885.334206 94.476725 
L 889.709351 90.440271 
L 892.626115 87.948488 
L 893.719901 87.929378 
L 904.657764 88.45566 
L 912.678863 89.0203 
L 927.26268 91.167619 
L 933.460802 91.708938 
L 944.398665 92.380222 
L 953.878146 92.876302 
L 959.347077 93.274692 
L 979.399825 93.850507 
L 994.348238 94.043285 
L 1026.068039 94.162308 
L 1087.32007 94.187331 
L 1087.32007 94.187331 
" clip-path="url(#pb3018fcdac)" style="fill: none; stroke: #937860; stroke-opacity: 0.9; stroke-width: 3; stroke-linecap: round"/>
   </g>
   <g id="patch_9">
    <path d="M 808.240504 201.042 
L 808.240504 81.456 
" style="fill: none; stroke: #ffffff; stroke-width: 1.25; stroke-linejoin: miter; stroke-linecap: square"/>
   </g>
   <g id="patch_10">
    <path d="M 808.240504 201.042 
L 1100.609573 201.042 
" style="fill: none; stroke: #ffffff; stroke-width: 1.25; stroke-linejoin: miter; stroke-linecap: square"/>
   </g>
   <g id="text_6">
    <!-- 0.85~90 -->
    <g style="fill: #262626" transform="translate(899.778445 75.456) scale(0.252 -0.252)">
     <use xlink:href="#DejaVuSans-30"/>
     <use xlink:href="#DejaVuSans-2e" x="63.623047"/>
     <use xlink:href="#DejaVuSans-38" x="95.410156"/>
     <use xlink:href="#DejaVuSans-35" x="159.033203"/>
     <use xlink:href="#DejaVuSans-7e" x="222.65625"/>
     <use xlink:href="#DejaVuSans-39" x="306.445312"/>
     <use xlink:href="#DejaVuSans-30" x="370.068359"/>
    </g>
   </g>
  </g>
  <g id="axes_4">
   <g id="patch_11">
    <path d="M 170.340091 373.284 
L 462.70916 373.284 
L 462.70916 253.698 
L 170.340091 253.698 
z
" style="fill: #eaeaf2"/>
   </g>
   <g id="matplotlib.axis_7">
    <g id="xtick_13">
     <g id="line2d_37">
      <path d="M 183.629594 373.284 
L 183.629594 253.698 
" clip-path="url(#p88f2635041)" style="fill: none; stroke: #ffffff; stroke-linecap: round"/>
     </g>
     <g id="text_7">
      <!-- 0 -->
      <g style="fill: #262626" transform="translate(176.280907 400.336391) scale(0.231 -0.231)">
       <use xlink:href="#DejaVuSans-30"/>
      </g>
     </g>
    </g>
    <g id="xtick_14">
     <g id="line2d_38">
      <path d="M 274.77845 373.284 
L 274.77845 253.698 
" clip-path="url(#p88f2635041)" style="fill: none; stroke: #ffffff; stroke-linecap: round"/>
     </g>
     <g id="text_8">
      <!-- 250 -->
      <g style="fill: #262626" transform="translate(252.732387 400.336391) scale(0.231 -0.231)">
       <use xlink:href="#DejaVuSans-32"/>
       <use xlink:href="#DejaVuSans-35" x="63.623047"/>
       <use xlink:href="#DejaVuSans-30" x="127.246094"/>
      </g>
     </g>
    </g>
    <g id="xtick_15">
     <g id="line2d_39">
      <path d="M 365.927305 373.284 
L 365.927305 253.698 
" clip-path="url(#p88f2635041)" style="fill: none; stroke: #ffffff; stroke-linecap: round"/>
     </g>
     <g id="text_9">
      <!-- 500 -->
      <g style="fill: #262626" transform="translate(343.881243 400.336391) scale(0.231 -0.231)">
       <use xlink:href="#DejaVuSans-35"/>
       <use xlink:href="#DejaVuSans-30" x="63.623047"/>
       <use xlink:href="#DejaVuSans-30" x="127.246094"/>
      </g>
     </g>
    </g>
    <g id="xtick_16">
     <g id="line2d_40">
      <path d="M 457.076161 373.284 
L 457.076161 253.698 
" clip-path="url(#p88f2635041)" style="fill: none; stroke: #ffffff; stroke-linecap: round"/>
     </g>
     <g id="text_10">
      <!-- 750 -->
      <g style="fill: #262626" transform="translate(435.030099 400.336391) scale(0.231 -0.231)">
       <defs>
        <path id="DejaVuSans-37" d="M 525 4666 
L 3525 4666 
L 3525 4397 
L 1831 0 
L 1172 0 
L 2766 4134 
L 525 4134 
L 525 4666 
z
" transform="scale(0.015625)"/>
       </defs>
       <use xlink:href="#DejaVuSans-37"/>
       <use xlink:href="#DejaVuSans-35" x="63.623047"/>
       <use xlink:href="#DejaVuSans-30" x="127.246094"/>
      </g>
     </g>
    </g>
    <g id="text_11">
     <!-- step -->
     <g style="fill: #262626" transform="translate(289.269251 428.288531) scale(0.252 -0.252)">
      <defs>
       <path id="DejaVuSans-73" d="M 2834 3397 
L 2834 2853 
Q 2591 2978 2328 3040 
Q 2066 3103 1784 3103 
Q 1356 3103 1142 2972 
Q 928 2841 928 2578 
Q 928 2378 1081 2264 
Q 1234 2150 1697 2047 
L 1894 2003 
Q 2506 1872 2764 1633 
Q 3022 1394 3022 966 
Q 3022 478 2636 193 
Q 2250 -91 1575 -91 
Q 1294 -91 989 -36 
Q 684 19 347 128 
L 347 722 
Q 666 556 975 473 
Q 1284 391 1588 391 
Q 1994 391 2212 530 
Q 2431 669 2431 922 
Q 2431 1156 2273 1281 
Q 2116 1406 1581 1522 
L 1381 1569 
Q 847 1681 609 1914 
Q 372 2147 372 2553 
Q 372 3047 722 3315 
Q 1072 3584 1716 3584 
Q 2034 3584 2315 3537 
Q 2597 3491 2834 3397 
z
" transform="scale(0.015625)"/>
       <path id="DejaVuSans-74" d="M 1172 4494 
L 1172 3500 
L 2356 3500 
L 2356 3053 
L 1172 3053 
L 1172 1153 
Q 1172 725 1289 603 
Q 1406 481 1766 481 
L 2356 481 
L 2356 0 
L 1766 0 
Q 1100 0 847 248 
Q 594 497 594 1153 
L 594 3053 
L 172 3053 
L 172 3500 
L 594 3500 
L 594 4494 
L 1172 4494 
z
" transform="scale(0.015625)"/>
       <path id="DejaVuSans-70" d="M 1159 525 
L 1159 -1331 
L 581 -1331 
L 581 3500 
L 1159 3500 
L 1159 2969 
Q 1341 3281 1617 3432 
Q 1894 3584 2278 3584 
Q 2916 3584 3314 3078 
Q 3713 2572 3713 1747 
Q 3713 922 3314 415 
Q 2916 -91 2278 -91 
Q 1894 -91 1617 61 
Q 1341 213 1159 525 
z
M 3116 1747 
Q 3116 2381 2855 2742 
Q 2594 3103 2138 3103 
Q 1681 3103 1420 2742 
Q 1159 2381 1159 1747 
Q 1159 1113 1420 752 
Q 1681 391 2138 391 
Q 2594 391 2855 752 
Q 3116 1113 3116 1747 
z
" transform="scale(0.015625)"/>
      </defs>
      <use xlink:href="#DejaVuSans-73"/>
      <use xlink:href="#DejaVuSans-74" x="52.099609"/>
      <use xlink:href="#DejaVuSans-65" x="91.308594"/>
      <use xlink:href="#DejaVuSans-70" x="152.832031"/>
     </g>
    </g>
   </g>
   <g id="matplotlib.axis_8">
    <g id="ytick_7">
     <g id="line2d_41">
      <path d="M 170.340091 332.931513 
L 462.70916 332.931513 
" clip-path="url(#p88f2635041)" style="fill: none; stroke: #ffffff; stroke-linecap: round"/>
     </g>
     <g id="text_12">
      <!-- −0.2 -->
      <g style="fill: #262626" transform="translate(104.746794 341.707709) scale(0.231 -0.231)">
       <use xlink:href="#DejaVuSans-2212"/>
       <use xlink:href="#DejaVuSans-30" x="83.789062"/>
       <use xlink:href="#DejaVuSans-2e" x="147.412109"/>
       <use xlink:href="#DejaVuSans-32" x="179.199219"/>
      </g>
     </g>
    </g>
    <g id="ytick_8">
     <g id="line2d_42">
      <path d="M 170.340091 268.925332 
L 462.70916 268.925332 
" clip-path="url(#p88f2635041)" style="fill: none; stroke: #ffffff; stroke-linecap: round"/>
     </g>
     <g id="text_13">
      <!-- 0.0 -->
      <g style="fill: #262626" transform="translate(124.103872 277.701527) scale(0.231 -0.231)">
       <use xlink:href="#DejaVuSans-30"/>
       <use xlink:href="#DejaVuSans-2e" x="63.623047"/>
       <use xlink:href="#DejaVuSans-30" x="95.410156"/>
      </g>
     </g>
    </g>
    <g id="text_14">
     <!-- % change -->
     <g style="fill: #262626" transform="translate(95.505982 375.839344) rotate(-90) scale(0.252 -0.252)">
      <use xlink:href="#DejaVuSans-25"/>
      <use xlink:href="#DejaVuSans-20" x="95.019531"/>
      <use xlink:href="#DejaVuSans-63" x="126.806641"/>
      <use xlink:href="#DejaVuSans-68" x="181.787109"/>
      <use xlink:href="#DejaVuSans-61" x="245.166016"/>
      <use xlink:href="#DejaVuSans-6e" x="306.445312"/>
      <use xlink:href="#DejaVuSans-67" x="369.824219"/>
      <use xlink:href="#DejaVuSans-65" x="433.300781"/>
     </g>
    </g>
   </g>
   <g id="PolyCollection_19"/>
   <g id="PolyCollection_20"/>
   <g id="PolyCollection_21"/>
   <g id="PolyCollection_22"/>
   <g id="PolyCollection_23"/>
   <g id="PolyCollection_24"/>
   <g id="line2d_43">
    <path d="M 183.629594 268.925332 
L 183.99419 356.60506 
L 184.358785 359.722889 
L 184.723381 360.557518 
L 185.087976 360.763772 
L 185.817167 360.77391 
L 189.098526 360.429205 
L 189.827716 359.471939 
L 230.662404 298.998791 
L 243.423244 280.658982 
L 251.079747 270.154882 
L 253.26732 267.544026 
L 254.725702 266.163744 
L 256.548679 266.1679 
L 276.966022 266.364302 
L 302.487702 266.646127 
L 306.862847 266.828989 
L 314.883946 267.330824 
L 324.728023 267.719123 
L 336.395076 267.939007 
L 365.56271 268.209297 
L 423.533382 268.340368 
L 449.419657 268.342793 
L 449.419657 268.342793 
" clip-path="url(#p88f2635041)" style="fill: none; stroke: #4c72b0; stroke-opacity: 0.9; stroke-width: 3; stroke-linecap: round"/>
   </g>
   <g id="line2d_44">
    <path d="M 183.629594 268.925332 
L 183.99419 354.084563 
L 184.358785 357.722761 
L 184.723381 358.983248 
L 185.087976 359.427362 
L 185.817167 359.60522 
L 187.640144 359.477363 
L 189.098526 359.342264 
L 189.827716 358.475567 
L 193.473671 353.135033 
L 212.432633 325.435835 
L 231.026999 298.659254 
L 246.340007 276.953102 
L 251.444343 270.173743 
L 253.996511 267.231481 
L 254.725702 266.473729 
L 256.184083 266.467397 
L 273.320068 266.648256 
L 311.967183 266.983178 
L 321.082069 267.415701 
L 338.582649 267.951778 
L 363.375138 268.137281 
L 399.105489 268.213567 
L 449.419657 268.258473 
L 449.419657 268.258473 
" clip-path="url(#p88f2635041)" style="fill: none; stroke: #dd8452; stroke-opacity: 0.9; stroke-width: 3; stroke-linecap: round"/>
   </g>
   <g id="line2d_45">
    <path d="M 183.629594 268.925332 
L 183.99419 361.118388 
L 184.358785 366.156581 
L 184.723381 367.435136 
L 185.087976 367.775445 
L 185.817167 367.840279 
L 189.098526 367.455646 
L 189.827716 366.412754 
L 227.74564 305.714297 
L 241.964862 283.565576 
L 249.621366 272.015959 
L 251.444343 269.527788 
L 254.725702 265.68522 
L 258.00706 265.656034 
L 276.966022 265.745646 
L 287.174694 265.995029 
L 294.831198 266.428873 
L 318.165305 267.644737 
L 334.572099 268.089877 
L 348.06213 268.289574 
L 375.042191 268.431639 
L 434.106649 268.473721 
L 449.419657 268.473833 
L 449.419657 268.473833 
" clip-path="url(#p88f2635041)" style="fill: none; stroke: #55a868; stroke-opacity: 0.9; stroke-width: 3; stroke-linecap: round"/>
   </g>
   <g id="line2d_46">
    <path d="M 183.629594 268.925332 
L 183.99419 358.071488 
L 184.358785 363.052271 
L 184.723381 364.295308 
L 185.087976 364.619368 
L 185.817167 364.680392 
L 189.098526 364.320205 
L 189.827716 363.321797 
L 201.49477 345.043246 
L 219.359946 317.396082 
L 235.76674 292.407733 
L 246.340007 276.652611 
L 250.715152 270.438024 
L 252.173534 268.753044 
L 254.725702 265.930422 
L 258.371656 265.88622 
L 272.226282 265.892132 
L 285.351717 266.138503 
L 295.560389 266.664261 
L 313.79016 267.512855 
L 326.551 267.821397 
L 357.541611 268.338891 
L 393.271962 268.439933 
L 449.419657 268.453072 
L 449.419657 268.453072 
" clip-path="url(#p88f2635041)" style="fill: none; stroke: #c44e52; stroke-opacity: 0.9; stroke-width: 3; stroke-linecap: round"/>
   </g>
   <g id="line2d_47">
    <path d="M 183.629594 268.925332 
L 183.99419 359.820949 
L 184.358785 363.842702 
L 184.723381 364.522627 
L 185.087976 364.637143 
L 186.546358 364.522936 
L 189.098526 364.243635 
L 190.556907 362.036095 
L 207.328297 335.948391 
L 225.193472 308.568995 
L 243.058648 281.592166 
L 251.079747 269.771192 
L 252.902725 267.427537 
L 254.725702 265.429516 
L 257.642465 265.399232 
L 275.507641 265.403908 
L 329.103168 266.504802 
L 333.842908 266.675544 
L 341.864008 267.141256 
L 352.072679 267.4883 
L 368.844069 267.776727 
L 381.969504 267.970239 
L 414.418497 268.126291 
L 449.419657 268.217403 
L 449.419657 268.217403 
" clip-path="url(#p88f2635041)" style="fill: none; stroke: #8172b3; stroke-opacity: 0.9; stroke-width: 3; stroke-linecap: round"/>
   </g>
   <g id="line2d_48">
    <path d="M 183.629594 268.925332 
L 183.99419 357.740581 
L 184.358785 361.085073 
L 184.723381 361.716556 
L 185.452571 361.81835 
L 189.098526 361.456564 
L 190.556907 359.320123 
L 207.328297 334.071481 
L 225.193472 307.585379 
L 243.058648 281.495905 
L 251.444343 269.546504 
L 253.26732 267.264538 
L 254.725702 265.635222 
L 257.642465 265.630422 
L 276.966022 265.916059 
L 298.112557 266.360358 
L 314.154755 266.609843 
L 323.634236 266.838706 
L 336.030481 267.234361 
L 348.06213 267.538898 
L 368.479473 267.826188 
L 424.262573 268.135919 
L 449.419657 268.17275 
L 449.419657 268.17275 
" clip-path="url(#p88f2635041)" style="fill: none; stroke: #937860; stroke-opacity: 0.9; stroke-width: 3; stroke-linecap: round"/>
   </g>
   <g id="patch_12">
    <path d="M 170.340091 373.284 
L 170.340091 253.698 
" style="fill: none; stroke: #ffffff; stroke-width: 1.25; stroke-linejoin: miter; stroke-linecap: square"/>
   </g>
   <g id="patch_13">
    <path d="M 170.340091 373.284 
L 462.70916 373.284 
" style="fill: none; stroke: #ffffff; stroke-width: 1.25; stroke-linejoin: miter; stroke-linecap: square"/>
   </g>
   <g id="text_15">
    <!-- 0.85~365 -->
    <g style="fill: #262626" transform="translate(253.861282 247.698) scale(0.252 -0.252)">
     <use xlink:href="#DejaVuSans-30"/>
     <use xlink:href="#DejaVuSans-2e" x="63.623047"/>
     <use xlink:href="#DejaVuSans-38" x="95.410156"/>
     <use xlink:href="#DejaVuSans-35" x="159.033203"/>
     <use xlink:href="#DejaVuSans-7e" x="222.65625"/>
     <use xlink:href="#DejaVuSans-33" x="306.445312"/>
     <use xlink:href="#DejaVuSans-36" x="370.068359"/>
     <use xlink:href="#DejaVuSans-35" x="433.691406"/>
    </g>
   </g>
  </g>
  <g id="axes_5">
   <g id="patch_14">
    <path d="M 489.290298 373.284 
L 781.659367 373.284 
L 781.659367 253.698 
L 489.290298 253.698 
z
" style="fill: #eaeaf2"/>
   </g>
   <g id="matplotlib.axis_9">
    <g id="xtick_17">
     <g id="line2d_49">
      <path d="M 502.579801 373.284 
L 502.579801 253.698 
" clip-path="url(#p05305b1b50)" style="fill: none; stroke: #ffffff; stroke-linecap: round"/>
     </g>
     <g id="text_16">
      <!-- 0 -->
      <g style="fill: #262626" transform="translate(495.231113 400.336391) scale(0.231 -0.231)">
       <use xlink:href="#DejaVuSans-30"/>
      </g>
     </g>
    </g>
    <g id="xtick_18">
     <g id="line2d_50">
      <path d="M 593.728656 373.284 
L 593.728656 253.698 
" clip-path="url(#p05305b1b50)" style="fill: none; stroke: #ffffff; stroke-linecap: round"/>
     </g>
     <g id="text_17">
      <!-- 250 -->
      <g style="fill: #262626" transform="translate(571.682594 400.336391) scale(0.231 -0.231)">
       <use xlink:href="#DejaVuSans-32"/>
       <use xlink:href="#DejaVuSans-35" x="63.623047"/>
       <use xlink:href="#DejaVuSans-30" x="127.246094"/>
      </g>
     </g>
    </g>
    <g id="xtick_19">
     <g id="line2d_51">
      <path d="M 684.877512 373.284 
L 684.877512 253.698 
" clip-path="url(#p05305b1b50)" style="fill: none; stroke: #ffffff; stroke-linecap: round"/>
     </g>
     <g id="text_18">
      <!-- 500 -->
      <g style="fill: #262626" transform="translate(662.83145 400.336391) scale(0.231 -0.231)">
       <use xlink:href="#DejaVuSans-35"/>
       <use xlink:href="#DejaVuSans-30" x="63.623047"/>
       <use xlink:href="#DejaVuSans-30" x="127.246094"/>
      </g>
     </g>
    </g>
    <g id="xtick_20">
     <g id="line2d_52">
      <path d="M 776.026368 373.284 
L 776.026368 253.698 
" clip-path="url(#p05305b1b50)" style="fill: none; stroke: #ffffff; stroke-linecap: round"/>
     </g>
     <g id="text_19">
      <!-- 750 -->
      <g style="fill: #262626" transform="translate(753.980305 400.336391) scale(0.231 -0.231)">
       <use xlink:href="#DejaVuSans-37"/>
       <use xlink:href="#DejaVuSans-35" x="63.623047"/>
       <use xlink:href="#DejaVuSans-30" x="127.246094"/>
      </g>
     </g>
    </g>
    <g id="text_20">
     <!-- step -->
     <g style="fill: #262626" transform="translate(608.219457 428.288531) scale(0.252 -0.252)">
      <use xlink:href="#DejaVuSans-73"/>
      <use xlink:href="#DejaVuSans-74" x="52.099609"/>
      <use xlink:href="#DejaVuSans-65" x="91.308594"/>
      <use xlink:href="#DejaVuSans-70" x="152.832031"/>
     </g>
    </g>
   </g>
   <g id="matplotlib.axis_10">
    <g id="ytick_9">
     <g id="line2d_53">
      <path d="M 489.290298 332.931513 
L 781.659367 332.931513 
" clip-path="url(#p05305b1b50)" style="fill: none; stroke: #ffffff; stroke-linecap: round"/>
     </g>
    </g>
    <g id="ytick_10">
     <g id="line2d_54">
      <path d="M 489.290298 268.925332 
L 781.659367 268.925332 
" clip-path="url(#p05305b1b50)" style="fill: none; stroke: #ffffff; stroke-linecap: round"/>
     </g>
    </g>
   </g>
   <g id="PolyCollection_25"/>
   <g id="PolyCollection_26"/>
   <g id="PolyCollection_27"/>
   <g id="PolyCollection_28"/>
   <g id="PolyCollection_29"/>
   <g id="PolyCollection_30"/>
   <g id="line2d_55">
    <path d="M 502.579801 268.925332 
L 502.944396 356.60506 
L 503.308992 359.625515 
L 503.673587 360.34721 
L 504.038182 360.436524 
L 505.131969 360.059695 
L 508.048732 358.81643 
L 509.142518 356.973723 
L 517.528213 341.998067 
L 525.184717 328.780761 
L 533.570412 314.777152 
L 539.039343 306.00037 
L 546.695847 294.313766 
L 555.810732 280.985598 
L 562.008855 272.23922 
L 563.102641 271.06124 
L 567.477786 266.759247 
L 572.582122 262.017748 
L 573.675908 261.054015 
L 575.13429 261.026108 
L 578.780244 261.106776 
L 584.613771 262.216944 
L 590.811893 263.337969 
L 596.280824 264.074086 
L 602.114351 264.613384 
L 611.593832 265.223304 
L 620.344122 265.644928 
L 646.230397 266.468699 
L 663.366382 266.634444 
L 700.555115 266.724552 
L 768.369864 266.727308 
L 768.369864 266.727308 
" clip-path="url(#p05305b1b50)" style="fill: none; stroke: #4c72b0; stroke-opacity: 0.9; stroke-width: 3; stroke-linecap: round"/>
   </g>
   <g id="line2d_56">
    <path d="M 502.579801 268.925332 
L 502.944396 354.084563 
L 503.308992 357.642889 
L 503.673587 358.809771 
L 504.038182 359.155561 
L 504.767373 359.133204 
L 506.954946 358.372383 
L 508.048732 357.974772 
L 508.777923 356.911047 
L 516.434427 343.800399 
L 525.549312 328.600108 
L 533.935007 315.021496 
L 542.320702 301.866936 
L 547.060442 294.745871 
L 552.893969 286.428949 
L 562.008855 273.841827 
L 563.831832 271.710838 
L 568.206977 267.354312 
L 573.675908 262.06479 
L 575.13429 262.007728 
L 581.332412 261.990508 
L 598.103801 263.893509 
L 603.937328 264.368119 
L 610.864641 264.904458 
L 614.875191 265.346019 
L 630.188199 265.73308 
L 669.9291 266.263263 
L 738.108444 266.399533 
L 768.369864 266.401194 
L 768.369864 266.401194 
" clip-path="url(#p05305b1b50)" style="fill: none; stroke: #dd8452; stroke-opacity: 0.9; stroke-width: 3; stroke-linecap: round"/>
   </g>
   <g id="line2d_57">
    <path d="M 502.579801 268.925332 
L 502.944396 361.118388 
L 503.308992 366.0517 
L 503.673587 367.207755 
L 504.038182 367.420966 
L 504.767373 367.229471 
L 508.048732 365.701382 
L 509.142518 363.696831 
L 517.528213 347.459592 
L 525.549312 332.48486 
L 533.570412 317.972949 
L 539.768534 307.173448 
L 544.508274 299.34313 
L 549.61261 291.319802 
L 554.716946 283.621533 
L 561.279664 274.337896 
L 566.384 268.239381 
L 570.394549 263.841061 
L 571.852931 262.419777 
L 572.946717 261.547613 
L 573.675908 261.058218 
L 574.405099 260.962307 
L 576.592672 260.988392 
L 579.87403 261.253632 
L 588.62432 262.47324 
L 595.916229 263.591749 
L 609.40626 265.401772 
L 615.239786 265.899524 
L 623.990076 266.396446 
L 633.834153 266.716002 
L 647.324183 266.938519 
L 671.022886 267.076403 
L 726.076795 267.106573 
L 768.369864 267.094114 
L 768.369864 267.094114 
" clip-path="url(#p05305b1b50)" style="fill: none; stroke: #55a868; stroke-opacity: 0.9; stroke-width: 3; stroke-linecap: round"/>
   </g>
   <g id="line2d_58">
    <path d="M 502.579801 268.925332 
L 502.944396 358.071488 
L 503.308992 362.951809 
L 503.673587 364.07698 
L 504.038182 364.278802 
L 504.767373 364.092989 
L 508.048732 362.631261 
L 509.142518 360.705031 
L 517.892809 344.344604 
L 526.278503 329.190705 
L 532.841221 317.721941 
L 539.403938 306.886326 
L 544.87287 298.13611 
L 551.070992 288.767849 
L 555.081542 282.940109 
L 561.644259 273.992881 
L 567.842381 266.895464 
L 570.759145 263.891314 
L 572.217526 262.750943 
L 573.675908 261.80416 
L 574.405099 261.695227 
L 577.321862 261.715023 
L 582.061603 262.087216 
L 586.436748 262.571122 
L 594.093252 263.570156 
L 613.781405 265.785489 
L 620.708718 266.209553 
L 631.281985 266.595844 
L 645.136611 266.84232 
L 666.283145 266.974442 
L 716.232718 267.004979 
L 768.369864 266.983818 
L 768.369864 266.983818 
" clip-path="url(#p05305b1b50)" style="fill: none; stroke: #c44e52; stroke-opacity: 0.9; stroke-width: 3; stroke-linecap: round"/>
   </g>
   <g id="line2d_59">
    <path d="M 502.579801 268.925332 
L 502.944396 359.820949 
L 503.308992 363.730669 
L 503.673587 364.290611 
L 504.038182 364.283965 
L 505.496564 363.686319 
L 508.048732 362.570941 
L 509.507114 359.894754 
L 517.163618 345.703 
L 525.549312 330.64437 
L 533.935007 316.05052 
L 542.320702 301.90363 
L 550.706397 288.23012 
L 559.456687 274.671931 
L 561.644259 271.490257 
L 564.196427 268.320157 
L 567.477786 264.612673 
L 571.488336 260.88595 
L 573.675908 259.170133 
L 574.769694 259.157221 
L 589.718107 259.976255 
L 593.728656 260.32016 
L 601.749756 261.860939 
L 606.854092 262.790958 
L 611.229237 263.4389 
L 615.968977 263.921123 
L 631.281985 265.082561 
L 640.032275 265.530561 
L 665.553955 266.372182 
L 686.335894 266.53257 
L 729.722749 266.60426 
L 768.369864 266.604632 
L 768.369864 266.604632 
" clip-path="url(#p05305b1b50)" style="fill: none; stroke: #8172b3; stroke-opacity: 0.9; stroke-width: 3; stroke-linecap: round"/>
   </g>
   <g id="line2d_60">
    <path d="M 502.579801 268.925332 
L 502.944396 357.740581 
L 503.308992 360.98063 
L 503.673587 361.500576 
L 504.038182 361.494455 
L 505.496564 360.938654 
L 508.048732 359.902987 
L 509.507114 357.329538 
L 517.163618 343.687259 
L 525.184717 329.838507 
L 533.570412 315.790696 
L 541.226916 303.368787 
L 549.61261 290.145833 
L 557.998305 277.51817 
L 562.008855 271.710917 
L 564.196427 269.02617 
L 566.384 266.718725 
L 570.759145 262.682271 
L 573.675908 260.190488 
L 574.769694 260.171378 
L 585.707557 260.69766 
L 593.728656 261.2623 
L 608.312473 263.409619 
L 614.510595 263.950938 
L 625.448458 264.622222 
L 634.927939 265.118302 
L 640.39687 265.516692 
L 660.449619 266.092507 
L 675.398031 266.285285 
L 707.117833 266.404308 
L 768.369864 266.429331 
L 768.369864 266.429331 
" clip-path="url(#p05305b1b50)" style="fill: none; stroke: #937860; stroke-opacity: 0.9; stroke-width: 3; stroke-linecap: round"/>
   </g>
   <g id="patch_15">
    <path d="M 489.290298 373.284 
L 489.290298 253.698 
" style="fill: none; stroke: #ffffff; stroke-width: 1.25; stroke-linejoin: miter; stroke-linecap: square"/>
   </g>
   <g id="patch_16">
    <path d="M 489.290298 373.284 
L 781.659367 373.284 
" style="fill: none; stroke: #ffffff; stroke-width: 1.25; stroke-linejoin: miter; stroke-linecap: square"/>
   </g>
   <g id="text_21">
    <!-- 0.95~90 -->
    <g style="fill: #262626" transform="translate(580.828239 247.698) scale(0.252 -0.252)">
     <use xlink:href="#DejaVuSans-30"/>
     <use xlink:href="#DejaVuSans-2e" x="63.623047"/>
     <use xlink:href="#DejaVuSans-39" x="95.410156"/>
     <use xlink:href="#DejaVuSans-35" x="159.033203"/>
     <use xlink:href="#DejaVuSans-7e" x="222.65625"/>
     <use xlink:href="#DejaVuSans-39" x="306.445312"/>
     <use xlink:href="#DejaVuSans-30" x="370.068359"/>
    </g>
   </g>
  </g>
  <g id="axes_6">
   <g id="patch_17">
    <path d="M 808.240504 373.284 
L 1100.609573 373.284 
L 1100.609573 253.698 
L 808.240504 253.698 
z
" style="fill: #eaeaf2"/>
   </g>
   <g id="matplotlib.axis_11">
    <g id="xtick_21">
     <g id="line2d_61">
      <path d="M 821.530007 373.284 
L 821.530007 253.698 
" clip-path="url(#p48a1187267)" style="fill: none; stroke: #ffffff; stroke-linecap: round"/>
     </g>
     <g id="text_22">
      <!-- 0 -->
      <g style="fill: #262626" transform="translate(814.18132 400.336391) scale(0.231 -0.231)">
       <use xlink:href="#DejaVuSans-30"/>
      </g>
     </g>
    </g>
    <g id="xtick_22">
     <g id="line2d_62">
      <path d="M 912.678863 373.284 
L 912.678863 253.698 
" clip-path="url(#p48a1187267)" style="fill: none; stroke: #ffffff; stroke-linecap: round"/>
     </g>
     <g id="text_23">
      <!-- 250 -->
      <g style="fill: #262626" transform="translate(890.6328 400.336391) scale(0.231 -0.231)">
       <use xlink:href="#DejaVuSans-32"/>
       <use xlink:href="#DejaVuSans-35" x="63.623047"/>
       <use xlink:href="#DejaVuSans-30" x="127.246094"/>
      </g>
     </g>
    </g>
    <g id="xtick_23">
     <g id="line2d_63">
      <path d="M 1003.827719 373.284 
L 1003.827719 253.698 
" clip-path="url(#p48a1187267)" style="fill: none; stroke: #ffffff; stroke-linecap: round"/>
     </g>
     <g id="text_24">
      <!-- 500 -->
      <g style="fill: #262626" transform="translate(981.781656 400.336391) scale(0.231 -0.231)">
       <use xlink:href="#DejaVuSans-35"/>
       <use xlink:href="#DejaVuSans-30" x="63.623047"/>
       <use xlink:href="#DejaVuSans-30" x="127.246094"/>
      </g>
     </g>
    </g>
    <g id="xtick_24">
     <g id="line2d_64">
      <path d="M 1094.976574 373.284 
L 1094.976574 253.698 
" clip-path="url(#p48a1187267)" style="fill: none; stroke: #ffffff; stroke-linecap: round"/>
     </g>
     <g id="text_25">
      <!-- 750 -->
      <g style="fill: #262626" transform="translate(1072.930512 400.336391) scale(0.231 -0.231)">
       <use xlink:href="#DejaVuSans-37"/>
       <use xlink:href="#DejaVuSans-35" x="63.623047"/>
       <use xlink:href="#DejaVuSans-30" x="127.246094"/>
      </g>
     </g>
    </g>
    <g id="text_26">
     <!-- step -->
     <g style="fill: #262626" transform="translate(927.169664 428.288531) scale(0.252 -0.252)">
      <use xlink:href="#DejaVuSans-73"/>
      <use xlink:href="#DejaVuSans-74" x="52.099609"/>
      <use xlink:href="#DejaVuSans-65" x="91.308594"/>
      <use xlink:href="#DejaVuSans-70" x="152.832031"/>
     </g>
    </g>
   </g>
   <g id="matplotlib.axis_12">
    <g id="ytick_11">
     <g id="line2d_65">
      <path d="M 808.240504 332.931513 
L 1100.609573 332.931513 
" clip-path="url(#p48a1187267)" style="fill: none; stroke: #ffffff; stroke-linecap: round"/>
     </g>
    </g>
    <g id="ytick_12">
     <g id="line2d_66">
      <path d="M 808.240504 268.925332 
L 1100.609573 268.925332 
" clip-path="url(#p48a1187267)" style="fill: none; stroke: #ffffff; stroke-linecap: round"/>
     </g>
    </g>
   </g>
   <g id="PolyCollection_31"/>
   <g id="PolyCollection_32"/>
   <g id="PolyCollection_33"/>
   <g id="PolyCollection_34"/>
   <g id="PolyCollection_35"/>
   <g id="PolyCollection_36"/>
   <g id="line2d_67">
    <path d="M 821.530007 268.925332 
L 821.894603 356.60506 
L 822.259198 359.722889 
L 822.623794 360.557518 
L 822.988389 360.763772 
L 823.71758 360.77391 
L 826.998939 360.429205 
L 827.728129 359.471939 
L 868.562817 298.998791 
L 881.323657 280.658982 
L 888.98016 270.154882 
L 891.167733 267.544026 
L 892.626115 266.163744 
L 894.449092 266.1679 
L 914.866435 266.364302 
L 940.388115 266.646127 
L 944.76326 266.828989 
L 952.784359 267.330824 
L 962.628436 267.719123 
L 974.295489 267.939007 
L 1003.463123 268.209297 
L 1061.433795 268.340368 
L 1087.32007 268.342793 
L 1087.32007 268.342793 
" clip-path="url(#p48a1187267)" style="fill: none; stroke: #4c72b0; stroke-opacity: 0.9; stroke-width: 3; stroke-linecap: round"/>
   </g>
   <g id="line2d_68">
    <path d="M 821.530007 268.925332 
L 821.894603 354.084563 
L 822.259198 357.722761 
L 822.623794 358.983248 
L 822.988389 359.427362 
L 823.71758 359.60522 
L 825.540557 359.477363 
L 826.998939 359.342264 
L 827.728129 358.475567 
L 831.374084 353.135033 
L 850.333046 325.435835 
L 868.927412 298.659254 
L 884.24042 276.953102 
L 889.344756 270.173743 
L 891.896924 267.231481 
L 892.626115 266.473729 
L 894.084496 266.467397 
L 911.220481 266.648256 
L 949.867596 266.983178 
L 958.982482 267.415701 
L 976.483062 267.951778 
L 1001.275551 268.137281 
L 1037.005902 268.213567 
L 1087.32007 268.258473 
L 1087.32007 268.258473 
" clip-path="url(#p48a1187267)" style="fill: none; stroke: #dd8452; stroke-opacity: 0.9; stroke-width: 3; stroke-linecap: round"/>
   </g>
   <g id="line2d_69">
    <path d="M 821.530007 268.925332 
L 821.894603 361.118388 
L 822.259198 366.156581 
L 822.623794 367.435136 
L 822.988389 367.775445 
L 823.71758 367.840279 
L 826.998939 367.455646 
L 827.728129 366.412754 
L 860.177122 314.48273 
L 867.104435 304.063045 
L 884.24042 279.354794 
L 889.344756 272.270229 
L 892.626115 268.367758 
L 896.272069 267.414354 
L 899.918023 266.583946 
L 902.470191 266.199545 
L 906.480741 265.786322 
L 913.043458 265.650524 
L 924.710512 265.87311 
L 933.460802 266.375649 
L 956.065718 267.595769 
L 971.014131 268.022466 
L 984.139566 268.25001 
L 1007.838268 268.402415 
L 1055.964864 268.461544 
L 1087.32007 268.46368 
L 1087.32007 268.46368 
" clip-path="url(#p48a1187267)" style="fill: none; stroke: #55a868; stroke-opacity: 0.9; stroke-width: 3; stroke-linecap: round"/>
   </g>
   <g id="line2d_70">
    <path d="M 821.530007 268.925332 
L 821.894603 358.071488 
L 822.259198 363.052271 
L 822.623794 364.295308 
L 822.988389 364.619368 
L 823.71758 364.680392 
L 826.998939 364.320205 
L 827.728129 363.321797 
L 839.395183 345.043246 
L 852.520618 324.782058 
L 870.750389 298.263563 
L 888.615565 273.276561 
L 890.438542 271.146536 
L 892.626115 268.657032 
L 896.272069 267.677376 
L 900.282619 266.731722 
L 903.563977 266.258961 
L 907.574527 265.938854 
L 911.585077 265.823799 
L 924.710512 266.08445 
L 931.637825 266.461841 
L 949.867596 267.383173 
L 961.53465 267.718395 
L 994.348238 268.31098 
L 1027.161826 268.4179 
L 1087.32007 268.435037 
L 1087.32007 268.435037 
" clip-path="url(#p48a1187267)" style="fill: none; stroke: #c44e52; stroke-opacity: 0.9; stroke-width: 3; stroke-linecap: round"/>
   </g>
   <g id="line2d_71">
    <path d="M 821.530007 268.925332 
L 821.894603 359.820949 
L 822.259198 363.842702 
L 822.623794 364.522627 
L 822.988389 364.637143 
L 824.446771 364.522936 
L 826.998939 364.243635 
L 828.45732 362.036095 
L 845.22871 335.948391 
L 863.093885 308.568995 
L 880.959061 281.592166 
L 888.98016 269.771192 
L 890.803138 267.427537 
L 892.626115 265.429516 
L 895.542878 265.399232 
L 913.408054 265.403908 
L 967.003581 266.504802 
L 971.743321 266.675544 
L 979.764421 267.141256 
L 989.973092 267.4883 
L 1006.744482 267.776727 
L 1019.869917 267.970239 
L 1052.31891 268.126291 
L 1087.32007 268.217403 
L 1087.32007 268.217403 
" clip-path="url(#p48a1187267)" style="fill: none; stroke: #8172b3; stroke-opacity: 0.9; stroke-width: 3; stroke-linecap: round"/>
   </g>
   <g id="line2d_72">
    <path d="M 821.530007 268.925332 
L 821.894603 357.740581 
L 822.259198 361.085073 
L 822.623794 361.716556 
L 823.352984 361.81835 
L 826.998939 361.456564 
L 828.45732 359.320123 
L 845.22871 334.071481 
L 863.093885 307.585379 
L 880.959061 281.495905 
L 889.344756 269.546504 
L 891.167733 267.264538 
L 892.626115 265.635222 
L 895.542878 265.630422 
L 914.866435 265.916059 
L 936.01297 266.360358 
L 952.055169 266.609843 
L 961.53465 266.838706 
L 973.930894 267.234361 
L 985.962543 267.538898 
L 1006.379886 267.826188 
L 1062.162986 268.135919 
L 1087.32007 268.17275 
L 1087.32007 268.17275 
" clip-path="url(#p48a1187267)" style="fill: none; stroke: #937860; stroke-opacity: 0.9; stroke-width: 3; stroke-linecap: round"/>
   </g>
   <g id="patch_18">
    <path d="M 808.240504 373.284 
L 808.240504 253.698 
" style="fill: none; stroke: #ffffff; stroke-width: 1.25; stroke-linejoin: miter; stroke-linecap: square"/>
   </g>
   <g id="patch_19">
    <path d="M 808.240504 373.284 
L 1100.609573 373.284 
" style="fill: none; stroke: #ffffff; stroke-width: 1.25; stroke-linejoin: miter; stroke-linecap: square"/>
   </g>
   <g id="text_27">
    <!-- 0.95~365 -->
    <g style="fill: #262626" transform="translate(891.761695 247.698) scale(0.252 -0.252)">
     <use xlink:href="#DejaVuSans-30"/>
     <use xlink:href="#DejaVuSans-2e" x="63.623047"/>
     <use xlink:href="#DejaVuSans-39" x="95.410156"/>
     <use xlink:href="#DejaVuSans-35" x="159.033203"/>
     <use xlink:href="#DejaVuSans-7e" x="222.65625"/>
     <use xlink:href="#DejaVuSans-33" x="306.445312"/>
     <use xlink:href="#DejaVuSans-36" x="370.068359"/>
     <use xlink:href="#DejaVuSans-35" x="433.691406"/>
    </g>
   </g>
  </g>
  <g id="text_28">
   <!-- Production change from pre-shock level -->
   <g style="fill: #262626" transform="translate(280.766836 30.177675) scale(0.3024 -0.3024)">
    <defs>
     <path id="DejaVuSans-50" d="M 1259 4147 
L 1259 2394 
L 2053 2394 
Q 2494 2394 2734 2622 
Q 2975 2850 2975 3272 
Q 2975 3691 2734 3919 
Q 2494 4147 2053 4147 
L 1259 4147 
z
M 628 4666 
L 2053 4666 
Q 2838 4666 3239 4311 
Q 3641 3956 3641 3272 
Q 3641 2581 3239 2228 
Q 2838 1875 2053 1875 
L 1259 1875 
L 1259 0 
L 628 0 
L 628 4666 
z
" transform="scale(0.015625)"/>
     <path id="DejaVuSans-72" d="M 2631 2963 
Q 2534 3019 2420 3045 
Q 2306 3072 2169 3072 
Q 1681 3072 1420 2755 
Q 1159 2438 1159 1844 
L 1159 0 
L 581 0 
L 581 3500 
L 1159 3500 
L 1159 2956 
Q 1341 3275 1631 3429 
Q 1922 3584 2338 3584 
Q 2397 3584 2469 3576 
Q 2541 3569 2628 3553 
L 2631 2963 
z
" transform="scale(0.015625)"/>
     <path id="DejaVuSans-6f" d="M 1959 3097 
Q 1497 3097 1228 2736 
Q 959 2375 959 1747 
Q 959 1119 1226 758 
Q 1494 397 1959 397 
Q 2419 397 2687 759 
Q 2956 1122 2956 1747 
Q 2956 2369 2687 2733 
Q 2419 3097 1959 3097 
z
M 1959 3584 
Q 2709 3584 3137 3096 
Q 3566 2609 3566 1747 
Q 3566 888 3137 398 
Q 2709 -91 1959 -91 
Q 1206 -91 779 398 
Q 353 888 353 1747 
Q 353 2609 779 3096 
Q 1206 3584 1959 3584 
z
" transform="scale(0.015625)"/>
     <path id="DejaVuSans-64" d="M 2906 2969 
L 2906 4863 
L 3481 4863 
L 3481 0 
L 2906 0 
L 2906 525 
Q 2725 213 2448 61 
Q 2172 -91 1784 -91 
Q 1150 -91 751 415 
Q 353 922 353 1747 
Q 353 2572 751 3078 
Q 1150 3584 1784 3584 
Q 2172 3584 2448 3432 
Q 2725 3281 2906 2969 
z
M 947 1747 
Q 947 1113 1208 752 
Q 1469 391 1925 391 
Q 2381 391 2643 752 
Q 2906 1113 2906 1747 
Q 2906 2381 2643 2742 
Q 2381 3103 1925 3103 
Q 1469 3103 1208 2742 
Q 947 2381 947 1747 
z
" transform="scale(0.015625)"/>
     <path id="DejaVuSans-75" d="M 544 1381 
L 544 3500 
L 1119 3500 
L 1119 1403 
Q 1119 906 1312 657 
Q 1506 409 1894 409 
Q 2359 409 2629 706 
Q 2900 1003 2900 1516 
L 2900 3500 
L 3475 3500 
L 3475 0 
L 2900 0 
L 2900 538 
Q 2691 219 2414 64 
Q 2138 -91 1772 -91 
Q 1169 -91 856 284 
Q 544 659 544 1381 
z
M 1991 3584 
L 1991 3584 
z
" transform="scale(0.015625)"/>
     <path id="DejaVuSans-69" d="M 603 3500 
L 1178 3500 
L 1178 0 
L 603 0 
L 603 3500 
z
M 603 4863 
L 1178 4863 
L 1178 4134 
L 603 4134 
L 603 4863 
z
" transform="scale(0.015625)"/>
     <path id="DejaVuSans-66" d="M 2375 4863 
L 2375 4384 
L 1825 4384 
Q 1516 4384 1395 4259 
Q 1275 4134 1275 3809 
L 1275 3500 
L 2222 3500 
L 2222 3053 
L 1275 3053 
L 1275 0 
L 697 0 
L 697 3053 
L 147 3053 
L 147 3500 
L 697 3500 
L 697 3744 
Q 697 4328 969 4595 
Q 1241 4863 1831 4863 
L 2375 4863 
z
" transform="scale(0.015625)"/>
     <path id="DejaVuSans-6d" d="M 3328 2828 
Q 3544 3216 3844 3400 
Q 4144 3584 4550 3584 
Q 5097 3584 5394 3201 
Q 5691 2819 5691 2113 
L 5691 0 
L 5113 0 
L 5113 2094 
Q 5113 2597 4934 2840 
Q 4756 3084 4391 3084 
Q 3944 3084 3684 2787 
Q 3425 2491 3425 1978 
L 3425 0 
L 2847 0 
L 2847 2094 
Q 2847 2600 2669 2842 
Q 2491 3084 2119 3084 
Q 1678 3084 1418 2786 
Q 1159 2488 1159 1978 
L 1159 0 
L 581 0 
L 581 3500 
L 1159 3500 
L 1159 2956 
Q 1356 3278 1631 3431 
Q 1906 3584 2284 3584 
Q 2666 3584 2933 3390 
Q 3200 3197 3328 2828 
z
" transform="scale(0.015625)"/>
     <path id="DejaVuSans-2d" d="M 313 2009 
L 1997 2009 
L 1997 1497 
L 313 1497 
L 313 2009 
z
" transform="scale(0.015625)"/>
     <path id="DejaVuSans-6b" d="M 581 4863 
L 1159 4863 
L 1159 1991 
L 2875 3500 
L 3609 3500 
L 1753 1863 
L 3688 0 
L 2938 0 
L 1159 1709 
L 1159 0 
L 581 0 
L 581 4863 
z
" transform="scale(0.015625)"/>
     <path id="DejaVuSans-6c" d="M 603 4863 
L 1178 4863 
L 1178 0 
L 603 0 
L 603 4863 
z
" transform="scale(0.015625)"/>
     <path id="DejaVuSans-76" d="M 191 3500 
L 800 3500 
L 1894 563 
L 2988 3500 
L 3597 3500 
L 2284 0 
L 1503 0 
L 191 3500 
z
" transform="scale(0.015625)"/>
    </defs>
    <use xlink:href="#DejaVuSans-50"/>
    <use xlink:href="#DejaVuSans-72" x="58.552734"/>
    <use xlink:href="#DejaVuSans-6f" x="97.416016"/>
    <use xlink:href="#DejaVuSans-64" x="158.597656"/>
    <use xlink:href="#DejaVuSans-75" x="222.074219"/>
    <use xlink:href="#DejaVuSans-63" x="285.453125"/>
    <use xlink:href="#DejaVuSans-74" x="340.433594"/>
    <use xlink:href="#DejaVuSans-69" x="379.642578"/>
    <use xlink:href="#DejaVuSans-6f" x="407.425781"/>
    <use xlink:href="#DejaVuSans-6e" x="468.607422"/>
    <use xlink:href="#DejaVuSans-20" x="531.986328"/>
    <use xlink:href="#DejaVuSans-63" x="563.773438"/>
    <use xlink:href="#DejaVuSans-68" x="618.753906"/>
    <use xlink:href="#DejaVuSans-61" x="682.132812"/>
    <use xlink:href="#DejaVuSans-6e" x="743.412109"/>
    <use xlink:href="#DejaVuSans-67" x="806.791016"/>
    <use xlink:href="#DejaVuSans-65" x="870.267578"/>
    <use xlink:href="#DejaVuSans-20" x="931.791016"/>
    <use xlink:href="#DejaVuSans-66" x="963.578125"/>
    <use xlink:href="#DejaVuSans-72" x="998.783203"/>
    <use xlink:href="#DejaVuSans-6f" x="1037.646484"/>
    <use xlink:href="#DejaVuSans-6d" x="1098.828125"/>
    <use xlink:href="#DejaVuSans-20" x="1196.240234"/>
    <use xlink:href="#DejaVuSans-70" x="1228.027344"/>
    <use xlink:href="#DejaVuSans-72" x="1291.503906"/>
    <use xlink:href="#DejaVuSans-65" x="1330.367188"/>
    <use xlink:href="#DejaVuSans-2d" x="1391.890625"/>
    <use xlink:href="#DejaVuSans-73" x="1427.974609"/>
    <use xlink:href="#DejaVuSans-68" x="1480.074219"/>
    <use xlink:href="#DejaVuSans-6f" x="1543.453125"/>
    <use xlink:href="#DejaVuSans-63" x="1604.634766"/>
    <use xlink:href="#DejaVuSans-6b" x="1659.615234"/>
    <use xlink:href="#DejaVuSans-20" x="1717.525391"/>
    <use xlink:href="#DejaVuSans-6c" x="1749.3125"/>
    <use xlink:href="#DejaVuSans-65" x="1777.095703"/>
    <use xlink:href="#DejaVuSans-76" x="1838.619141"/>
    <use xlink:href="#DejaVuSans-65" x="1897.798828"/>
    <use xlink:href="#DejaVuSans-6c" x="1959.322266"/>
   </g>
  </g>
  <g id="legend_1">
   <g id="patch_20">
    <path d="M 11.82 584.31675 
L 1292.617547 584.31675 
Q 1297.237547 584.31675 1297.237547 579.69675 
L 1297.237547 476.97 
Q 1297.237547 472.35 1292.617547 472.35 
L 11.82 472.35 
Q 7.2 472.35 7.2 476.97 
L 7.2 579.69675 
Q 7.2 584.31675 11.82 584.31675 
z
" style="fill: #eaeaf2; opacity: 0.8; stroke: #cccccc; stroke-linejoin: miter"/>
   </g>
   <g id="text_29">
    <!-- Experiences -->
    <g style="fill: #262626" transform="translate(575.384367 500.738062) scale(0.252 -0.252)">
     <defs>
      <path id="DejaVuSans-45" d="M 628 4666 
L 3578 4666 
L 3578 4134 
L 1259 4134 
L 1259 2753 
L 3481 2753 
L 3481 2222 
L 1259 2222 
L 1259 531 
L 3634 531 
L 3634 0 
L 628 0 
L 628 4666 
z
" transform="scale(0.015625)"/>
      <path id="DejaVuSans-78" d="M 3513 3500 
L 2247 1797 
L 3578 0 
L 2900 0 
L 1881 1375 
L 863 0 
L 184 0 
L 1544 1831 
L 300 3500 
L 978 3500 
L 1906 2253 
L 2834 3500 
L 3513 3500 
z
" transform="scale(0.015625)"/>
     </defs>
     <use xlink:href="#DejaVuSans-45"/>
     <use xlink:href="#DejaVuSans-78" x="63.183594"/>
     <use xlink:href="#DejaVuSans-70" x="122.363281"/>
     <use xlink:href="#DejaVuSans-65" x="185.839844"/>
     <use xlink:href="#DejaVuSans-72" x="247.363281"/>
     <use xlink:href="#DejaVuSans-69" x="288.476562"/>
     <use xlink:href="#DejaVuSans-65" x="316.259766"/>
     <use xlink:href="#DejaVuSans-6e" x="377.783203"/>
     <use xlink:href="#DejaVuSans-63" x="441.162109"/>
     <use xlink:href="#DejaVuSans-65" x="496.142578"/>
     <use xlink:href="#DejaVuSans-73" x="557.666016"/>
    </g>
   </g>
   <g id="line2d_73">
    <path d="M 16.44 526.996266 
L 39.54 526.996266 
L 62.64 526.996266 
" style="fill: none; stroke: #4c72b0; stroke-opacity: 0.9; stroke-width: 3; stroke-linecap: round"/>
   </g>
   <g id="text_30">
    <!-- eora26_full_2000 -->
    <g style="fill: #262626" transform="translate(81.12 535.081266) scale(0.231 -0.231)">
     <defs>
      <path id="DejaVuSans-5f" d="M 3263 -1063 
L 3263 -1509 
L -63 -1509 
L -63 -1063 
L 3263 -1063 
z
" transform="scale(0.015625)"/>
     </defs>
     <use xlink:href="#DejaVuSans-65"/>
     <use xlink:href="#DejaVuSans-6f" x="61.523438"/>
     <use xlink:href="#DejaVuSans-72" x="122.705078"/>
     <use xlink:href="#DejaVuSans-61" x="163.818359"/>
     <use xlink:href="#DejaVuSans-32" x="225.097656"/>
     <use xlink:href="#DejaVuSans-36" x="288.720703"/>
     <use xlink:href="#DejaVuSans-5f" x="352.34375"/>
     <use xlink:href="#DejaVuSans-66" x="402.34375"/>
     <use xlink:href="#DejaVuSans-75" x="437.548828"/>
     <use xlink:href="#DejaVuSans-6c" x="500.927734"/>
     <use xlink:href="#DejaVuSans-6c" x="528.710938"/>
     <use xlink:href="#DejaVuSans-5f" x="556.494141"/>
     <use xlink:href="#DejaVuSans-32" x="606.494141"/>
     <use xlink:href="#DejaVuSans-30" x="670.117188"/>
     <use xlink:href="#DejaVuSans-30" x="733.740234"/>
     <use xlink:href="#DejaVuSans-30" x="797.363281"/>
    </g>
   </g>
   <g id="line2d_74">
    <path d="M 16.44 561.545203 
L 39.54 561.545203 
L 62.64 561.545203 
" style="fill: none; stroke: #dd8452; stroke-opacity: 0.9; stroke-width: 3; stroke-linecap: round"/>
   </g>
   <g id="text_31">
    <!-- eora26_full_2010 -->
    <g style="fill: #262626" transform="translate(81.12 569.630203) scale(0.231 -0.231)">
     <defs>
      <path id="DejaVuSans-31" d="M 794 531 
L 1825 531 
L 1825 4091 
L 703 3866 
L 703 4441 
L 1819 4666 
L 2450 4666 
L 2450 531 
L 3481 531 
L 3481 0 
L 794 0 
L 794 531 
z
" transform="scale(0.015625)"/>
     </defs>
     <use xlink:href="#DejaVuSans-65"/>
     <use xlink:href="#DejaVuSans-6f" x="61.523438"/>
     <use xlink:href="#DejaVuSans-72" x="122.705078"/>
     <use xlink:href="#DejaVuSans-61" x="163.818359"/>
     <use xlink:href="#DejaVuSans-32" x="225.097656"/>
     <use xlink:href="#DejaVuSans-36" x="288.720703"/>
     <use xlink:href="#DejaVuSans-5f" x="352.34375"/>
     <use xlink:href="#DejaVuSans-66" x="402.34375"/>
     <use xlink:href="#DejaVuSans-75" x="437.548828"/>
     <use xlink:href="#DejaVuSans-6c" x="500.927734"/>
     <use xlink:href="#DejaVuSans-6c" x="528.710938"/>
     <use xlink:href="#DejaVuSans-5f" x="556.494141"/>
     <use xlink:href="#DejaVuSans-32" x="606.494141"/>
     <use xlink:href="#DejaVuSans-30" x="670.117188"/>
     <use xlink:href="#DejaVuSans-31" x="733.740234"/>
     <use xlink:href="#DejaVuSans-30" x="797.363281"/>
    </g>
   </g>
   <g id="line2d_75">
    <path d="M 326.211 526.996266 
L 349.311 526.996266 
L 372.411 526.996266 
" style="fill: none; stroke: #55a868; stroke-opacity: 0.9; stroke-width: 3; stroke-linecap: round"/>
   </g>
   <g id="text_32">
    <!-- euregio_full_2000 -->
    <g style="fill: #262626" transform="translate(390.891 535.081266) scale(0.231 -0.231)">
     <use xlink:href="#DejaVuSans-65"/>
     <use xlink:href="#DejaVuSans-75" x="61.523438"/>
     <use xlink:href="#DejaVuSans-72" x="124.902344"/>
     <use xlink:href="#DejaVuSans-65" x="163.765625"/>
     <use xlink:href="#DejaVuSans-67" x="225.289062"/>
     <use xlink:href="#DejaVuSans-69" x="288.765625"/>
     <use xlink:href="#DejaVuSans-6f" x="316.548828"/>
     <use xlink:href="#DejaVuSans-5f" x="377.730469"/>
     <use xlink:href="#DejaVuSans-66" x="427.730469"/>
     <use xlink:href="#DejaVuSans-75" x="462.935547"/>
     <use xlink:href="#DejaVuSans-6c" x="526.314453"/>
     <use xlink:href="#DejaVuSans-6c" x="554.097656"/>
     <use xlink:href="#DejaVuSans-5f" x="581.880859"/>
     <use xlink:href="#DejaVuSans-32" x="631.880859"/>
     <use xlink:href="#DejaVuSans-30" x="695.503906"/>
     <use xlink:href="#DejaVuSans-30" x="759.126953"/>
     <use xlink:href="#DejaVuSans-30" x="822.75"/>
    </g>
   </g>
   <g id="line2d_76">
    <path d="M 326.211 561.545203 
L 349.311 561.545203 
L 372.411 561.545203 
" style="fill: none; stroke: #c44e52; stroke-opacity: 0.9; stroke-width: 3; stroke-linecap: round"/>
   </g>
   <g id="text_33">
    <!-- euregio_full_2010 -->
    <g style="fill: #262626" transform="translate(390.891 569.630203) scale(0.231 -0.231)">
     <use xlink:href="#DejaVuSans-65"/>
     <use xlink:href="#DejaVuSans-75" x="61.523438"/>
     <use xlink:href="#DejaVuSans-72" x="124.902344"/>
     <use xlink:href="#DejaVuSans-65" x="163.765625"/>
     <use xlink:href="#DejaVuSans-67" x="225.289062"/>
     <use xlink:href="#DejaVuSans-69" x="288.765625"/>
     <use xlink:href="#DejaVuSans-6f" x="316.548828"/>
     <use xlink:href="#DejaVuSans-5f" x="377.730469"/>
     <use xlink:href="#DejaVuSans-66" x="427.730469"/>
     <use xlink:href="#DejaVuSans-75" x="462.935547"/>
     <use xlink:href="#DejaVuSans-6c" x="526.314453"/>
     <use xlink:href="#DejaVuSans-6c" x="554.097656"/>
     <use xlink:href="#DejaVuSans-5f" x="581.880859"/>
     <use xlink:href="#DejaVuSans-32" x="631.880859"/>
     <use xlink:href="#DejaVuSans-30" x="695.503906"/>
     <use xlink:href="#DejaVuSans-31" x="759.126953"/>
     <use xlink:href="#DejaVuSans-30" x="822.75"/>
    </g>
   </g>
   <g id="line2d_77">
    <path d="M 641.847234 526.996266 
L 664.947234 526.996266 
L 688.047234 526.996266 
" style="fill: none; stroke: #8172b3; stroke-opacity: 0.9; stroke-width: 3; stroke-linecap: round"/>
   </g>
   <g id="text_34">
    <!-- exiobase3_full_2000 -->
    <g style="fill: #262626" transform="translate(706.527234 535.081266) scale(0.231 -0.231)">
     <defs>
      <path id="DejaVuSans-62" d="M 3116 1747 
Q 3116 2381 2855 2742 
Q 2594 3103 2138 3103 
Q 1681 3103 1420 2742 
Q 1159 2381 1159 1747 
Q 1159 1113 1420 752 
Q 1681 391 2138 391 
Q 2594 391 2855 752 
Q 3116 1113 3116 1747 
z
M 1159 2969 
Q 1341 3281 1617 3432 
Q 1894 3584 2278 3584 
Q 2916 3584 3314 3078 
Q 3713 2572 3713 1747 
Q 3713 922 3314 415 
Q 2916 -91 2278 -91 
Q 1894 -91 1617 61 
Q 1341 213 1159 525 
L 1159 0 
L 581 0 
L 581 4863 
L 1159 4863 
L 1159 2969 
z
" transform="scale(0.015625)"/>
     </defs>
     <use xlink:href="#DejaVuSans-65"/>
     <use xlink:href="#DejaVuSans-78" x="59.773438"/>
     <use xlink:href="#DejaVuSans-69" x="118.953125"/>
     <use xlink:href="#DejaVuSans-6f" x="146.736328"/>
     <use xlink:href="#DejaVuSans-62" x="207.917969"/>
     <use xlink:href="#DejaVuSans-61" x="271.394531"/>
     <use xlink:href="#DejaVuSans-73" x="332.673828"/>
     <use xlink:href="#DejaVuSans-65" x="384.773438"/>
     <use xlink:href="#DejaVuSans-33" x="446.296875"/>
     <use xlink:href="#DejaVuSans-5f" x="509.919922"/>
     <use xlink:href="#DejaVuSans-66" x="559.919922"/>
     <use xlink:href="#DejaVuSans-75" x="595.125"/>
     <use xlink:href="#DejaVuSans-6c" x="658.503906"/>
     <use xlink:href="#DejaVuSans-6c" x="686.287109"/>
     <use xlink:href="#DejaVuSans-5f" x="714.070312"/>
     <use xlink:href="#DejaVuSans-32" x="764.070312"/>
     <use xlink:href="#DejaVuSans-30" x="827.693359"/>
     <use xlink:href="#DejaVuSans-30" x="891.316406"/>
     <use xlink:href="#DejaVuSans-30" x="954.939453"/>
    </g>
   </g>
   <g id="line2d_78">
    <path d="M 988.022391 526.996266 
L 1011.122391 526.996266 
L 1034.222391 526.996266 
" style="fill: none; stroke: #937860; stroke-opacity: 0.9; stroke-width: 3; stroke-linecap: round"/>
   </g>
   <g id="text_35">
    <!-- exiobase3_full_2010 -->
    <g style="fill: #262626" transform="translate(1052.702391 535.081266) scale(0.231 -0.231)">
     <use xlink:href="#DejaVuSans-65"/>
     <use xlink:href="#DejaVuSans-78" x="59.773438"/>
     <use xlink:href="#DejaVuSans-69" x="118.953125"/>
     <use xlink:href="#DejaVuSans-6f" x="146.736328"/>
     <use xlink:href="#DejaVuSans-62" x="207.917969"/>
     <use xlink:href="#DejaVuSans-61" x="271.394531"/>
     <use xlink:href="#DejaVuSans-73" x="332.673828"/>
     <use xlink:href="#DejaVuSans-65" x="384.773438"/>
     <use xlink:href="#DejaVuSans-33" x="446.296875"/>
     <use xlink:href="#DejaVuSans-5f" x="509.919922"/>
     <use xlink:href="#DejaVuSans-66" x="559.919922"/>
     <use xlink:href="#DejaVuSans-75" x="595.125"/>
     <use xlink:href="#DejaVuSans-6c" x="658.503906"/>
     <use xlink:href="#DejaVuSans-6c" x="686.287109"/>
     <use xlink:href="#DejaVuSans-5f" x="714.070312"/>
     <use xlink:href="#DejaVuSans-32" x="764.070312"/>
     <use xlink:href="#DejaVuSans-30" x="827.693359"/>
     <use xlink:href="#DejaVuSans-31" x="891.316406"/>
     <use xlink:href="#DejaVuSans-30" x="954.939453"/>
    </g>
   </g>
  </g>
 </g>
 <defs>
  <clipPath id="pbc3a4ab1a8">
   <rect x="170.340091" y="81.456" width="292.369069" height="119.586"/>
  </clipPath>
  <clipPath id="p49c14c5370">
   <rect x="489.290298" y="81.456" width="292.369069" height="119.586"/>
  </clipPath>
  <clipPath id="pb3018fcdac">
   <rect x="808.240504" y="81.456" width="292.369069" height="119.586"/>
  </clipPath>
  <clipPath id="p88f2635041">
   <rect x="170.340091" y="253.698" width="292.369069" height="119.586"/>
  </clipPath>
  <clipPath id="p05305b1b50">
   <rect x="489.290298" y="253.698" width="292.369069" height="119.586"/>
  </clipPath>
  <clipPath id="p48a1187267">
   <rect x="808.240504" y="253.698" width="292.369069" height="119.586"/>
  </clipPath>
 </defs>
</svg>
