<?xml version="1.0" encoding="utf-8" standalone="no"?>
<!DOCTYPE svg PUBLIC "-//W3C//DTD SVG 1.1//EN"
  "http://www.w3.org/Graphics/SVG/1.1/DTD/svg11.dtd">
<svg xmlns:xlink="http://www.w3.org/1999/xlink" width="1304.437547pt" height="591.51675pt" viewBox="0 0 1304.437547 591.51675" xmlns="http://www.w3.org/2000/svg" version="1.1">
 <metadata>
  <rdf:RDF xmlns:dc="http://purl.org/dc/elements/1.1/" xmlns:cc="http://creativecommons.org/ns#" xmlns:rdf="http://www.w3.org/1999/02/22-rdf-syntax-ns#">
   <cc:Work>
    <dc:type rdf:resource="http://purl.org/dc/dcmitype/StillImage"/>
    <dc:date>2023-04-25T16:28:43.285424</dc:date>
    <dc:format>image/svg+xml</dc:format>
    <dc:creator>
     <cc:Agent>
      <dc:title>Matplotlib v3.7.1, https://matplotlib.org/</dc:title>
     </cc:Agent>
    </dc:creator>
   </cc:Work>
  </rdf:RDF>
 </metadata>
 <defs>
  <style type="text/css">*{stroke-linejoin: round; stroke-linecap: butt}</style>
 </defs>
 <g id="figure_1">
  <g id="patch_1">
   <path d="M 0 591.51675 
L 1304.437547 591.51675 
L 1304.437547 -0 
L 0 -0 
z
" style="fill: #ffffff"/>
  </g>
  <g id="axes_1">
   <g id="patch_2">
    <path d="M 142.032503 196.550453 
L 443.709706 196.550453 
L 443.709706 81.456 
L 142.032503 81.456 
z
" style="fill: #eaeaf2"/>
   </g>
   <g id="matplotlib.axis_1">
    <g id="xtick_1">
     <g id="line2d_1">
      <path d="M 155.745103 196.550453 
L 155.745103 81.456 
" clip-path="url(#p18ad1bc229)" style="fill: none; stroke: #ffffff; stroke-linecap: round"/>
     </g>
    </g>
    <g id="xtick_2">
     <g id="line2d_2">
      <path d="M 249.795858 196.550453 
L 249.795858 81.456 
" clip-path="url(#p18ad1bc229)" style="fill: none; stroke: #ffffff; stroke-linecap: round"/>
     </g>
    </g>
    <g id="xtick_3">
     <g id="line2d_3">
      <path d="M 343.846614 196.550453 
L 343.846614 81.456 
" clip-path="url(#p18ad1bc229)" style="fill: none; stroke: #ffffff; stroke-linecap: round"/>
     </g>
    </g>
    <g id="xtick_4">
     <g id="line2d_4">
      <path d="M 437.897369 196.550453 
L 437.897369 81.456 
" clip-path="url(#p18ad1bc229)" style="fill: none; stroke: #ffffff; stroke-linecap: round"/>
     </g>
    </g>
   </g>
   <g id="matplotlib.axis_2">
    <g id="ytick_1">
     <g id="line2d_5">
      <path d="M 142.032503 191.965937 
L 443.709706 191.965937 
" clip-path="url(#p18ad1bc229)" style="fill: none; stroke: #ffffff; stroke-linecap: round"/>
     </g>
     <g id="text_1">
      <!-- −2 -->
      <g style="fill: #262626" transform="translate(98.47805 200.742132) scale(0.231 -0.231)">
       <defs>
        <path id="DejaVuSans-2212" d="M 678 2272 
L 4684 2272 
L 4684 1741 
L 678 1741 
L 678 2272 
z
" transform="scale(0.015625)"/>
        <path id="DejaVuSans-32" d="M 1228 531 
L 3431 531 
L 3431 0 
L 469 0 
L 469 531 
Q 828 903 1448 1529 
Q 2069 2156 2228 2338 
Q 2531 2678 2651 2914 
Q 2772 3150 2772 3378 
Q 2772 3750 2511 3984 
Q 2250 4219 1831 4219 
Q 1534 4219 1204 4116 
Q 875 4013 500 3803 
L 500 4441 
Q 881 4594 1212 4672 
Q 1544 4750 1819 4750 
Q 2544 4750 2975 4387 
Q 3406 4025 3406 3419 
Q 3406 3131 3298 2873 
Q 3191 2616 2906 2266 
Q 2828 2175 2409 1742 
Q 1991 1309 1228 531 
z
" transform="scale(0.015625)"/>
       </defs>
       <use xlink:href="#DejaVuSans-2212"/>
       <use xlink:href="#DejaVuSans-32" x="83.789062"/>
      </g>
     </g>
    </g>
    <g id="ytick_2">
     <g id="line2d_6">
      <path d="M 142.032503 109.803157 
L 443.709706 109.803157 
" clip-path="url(#p18ad1bc229)" style="fill: none; stroke: #ffffff; stroke-linecap: round"/>
     </g>
     <g id="text_2">
      <!-- 0 -->
      <g style="fill: #262626" transform="translate(117.835128 118.579352) scale(0.231 -0.231)">
       <defs>
        <path id="DejaVuSans-30" d="M 2034 4250 
Q 1547 4250 1301 3770 
Q 1056 3291 1056 2328 
Q 1056 1369 1301 889 
Q 1547 409 2034 409 
Q 2525 409 2770 889 
Q 3016 1369 3016 2328 
Q 3016 3291 2770 3770 
Q 2525 4250 2034 4250 
z
M 2034 4750 
Q 2819 4750 3233 4129 
Q 3647 3509 3647 2328 
Q 3647 1150 3233 529 
Q 2819 -91 2034 -91 
Q 1250 -91 836 529 
Q 422 1150 422 2328 
Q 422 3509 836 4129 
Q 1250 4750 2034 4750 
z
" transform="scale(0.015625)"/>
       </defs>
       <use xlink:href="#DejaVuSans-30"/>
      </g>
     </g>
    </g>
    <g id="text_3">
     <!-- % change -->
     <g style="fill: #262626" transform="translate(89.237237 201.35157) rotate(-90) scale(0.252 -0.252)">
      <defs>
       <path id="DejaVuSans-25" d="M 4653 2053 
Q 4381 2053 4226 1822 
Q 4072 1591 4072 1178 
Q 4072 772 4226 539 
Q 4381 306 4653 306 
Q 4919 306 5073 539 
Q 5228 772 5228 1178 
Q 5228 1588 5073 1820 
Q 4919 2053 4653 2053 
z
M 4653 2450 
Q 5147 2450 5437 2106 
Q 5728 1763 5728 1178 
Q 5728 594 5436 251 
Q 5144 -91 4653 -91 
Q 4153 -91 3862 251 
Q 3572 594 3572 1178 
Q 3572 1766 3864 2108 
Q 4156 2450 4653 2450 
z
M 1428 4353 
Q 1159 4353 1004 4120 
Q 850 3888 850 3481 
Q 850 3069 1003 2837 
Q 1156 2606 1428 2606 
Q 1700 2606 1854 2837 
Q 2009 3069 2009 3481 
Q 2009 3884 1853 4118 
Q 1697 4353 1428 4353 
z
M 4250 4750 
L 4750 4750 
L 1831 -91 
L 1331 -91 
L 4250 4750 
z
M 1428 4750 
Q 1922 4750 2215 4408 
Q 2509 4066 2509 3481 
Q 2509 2891 2217 2550 
Q 1925 2209 1428 2209 
Q 931 2209 642 2551 
Q 353 2894 353 3481 
Q 353 4063 643 4406 
Q 934 4750 1428 4750 
z
" transform="scale(0.015625)"/>
       <path id="DejaVuSans-20" transform="scale(0.015625)"/>
       <path id="DejaVuSans-63" d="M 3122 3366 
L 3122 2828 
Q 2878 2963 2633 3030 
Q 2388 3097 2138 3097 
Q 1578 3097 1268 2742 
Q 959 2388 959 1747 
Q 959 1106 1268 751 
Q 1578 397 2138 397 
Q 2388 397 2633 464 
Q 2878 531 3122 666 
L 3122 134 
Q 2881 22 2623 -34 
Q 2366 -91 2075 -91 
Q 1284 -91 818 406 
Q 353 903 353 1747 
Q 353 2603 823 3093 
Q 1294 3584 2113 3584 
Q 2378 3584 2631 3529 
Q 2884 3475 3122 3366 
z
" transform="scale(0.015625)"/>
       <path id="DejaVuSans-68" d="M 3513 2113 
L 3513 0 
L 2938 0 
L 2938 2094 
Q 2938 2591 2744 2837 
Q 2550 3084 2163 3084 
Q 1697 3084 1428 2787 
Q 1159 2491 1159 1978 
L 1159 0 
L 581 0 
L 581 4863 
L 1159 4863 
L 1159 2956 
Q 1366 3272 1645 3428 
Q 1925 3584 2291 3584 
Q 2894 3584 3203 3211 
Q 3513 2838 3513 2113 
z
" transform="scale(0.015625)"/>
       <path id="DejaVuSans-61" d="M 2194 1759 
Q 1497 1759 1228 1600 
Q 959 1441 959 1056 
Q 959 750 1161 570 
Q 1363 391 1709 391 
Q 2188 391 2477 730 
Q 2766 1069 2766 1631 
L 2766 1759 
L 2194 1759 
z
M 3341 1997 
L 3341 0 
L 2766 0 
L 2766 531 
Q 2569 213 2275 61 
Q 1981 -91 1556 -91 
Q 1019 -91 701 211 
Q 384 513 384 1019 
Q 384 1609 779 1909 
Q 1175 2209 1959 2209 
L 2766 2209 
L 2766 2266 
Q 2766 2663 2505 2880 
Q 2244 3097 1772 3097 
Q 1472 3097 1187 3025 
Q 903 2953 641 2809 
L 641 3341 
Q 956 3463 1253 3523 
Q 1550 3584 1831 3584 
Q 2591 3584 2966 3190 
Q 3341 2797 3341 1997 
z
" transform="scale(0.015625)"/>
       <path id="DejaVuSans-6e" d="M 3513 2113 
L 3513 0 
L 2938 0 
L 2938 2094 
Q 2938 2591 2744 2837 
Q 2550 3084 2163 3084 
Q 1697 3084 1428 2787 
Q 1159 2491 1159 1978 
L 1159 0 
L 581 0 
L 581 3500 
L 1159 3500 
L 1159 2956 
Q 1366 3272 1645 3428 
Q 1925 3584 2291 3584 
Q 2894 3584 3203 3211 
Q 3513 2838 3513 2113 
z
" transform="scale(0.015625)"/>
       <path id="DejaVuSans-67" d="M 2906 1791 
Q 2906 2416 2648 2759 
Q 2391 3103 1925 3103 
Q 1463 3103 1205 2759 
Q 947 2416 947 1791 
Q 947 1169 1205 825 
Q 1463 481 1925 481 
Q 2391 481 2648 825 
Q 2906 1169 2906 1791 
z
M 3481 434 
Q 3481 -459 3084 -895 
Q 2688 -1331 1869 -1331 
Q 1566 -1331 1297 -1286 
Q 1028 -1241 775 -1147 
L 775 -588 
Q 1028 -725 1275 -790 
Q 1522 -856 1778 -856 
Q 2344 -856 2625 -561 
Q 2906 -266 2906 331 
L 2906 616 
Q 2728 306 2450 153 
Q 2172 0 1784 0 
Q 1141 0 747 490 
Q 353 981 353 1791 
Q 353 2603 747 3093 
Q 1141 3584 1784 3584 
Q 2172 3584 2450 3431 
Q 2728 3278 2906 2969 
L 2906 3500 
L 3481 3500 
L 3481 434 
z
" transform="scale(0.015625)"/>
       <path id="DejaVuSans-65" d="M 3597 1894 
L 3597 1613 
L 953 1613 
Q 991 1019 1311 708 
Q 1631 397 2203 397 
Q 2534 397 2845 478 
Q 3156 559 3463 722 
L 3463 178 
Q 3153 47 2828 -22 
Q 2503 -91 2169 -91 
Q 1331 -91 842 396 
Q 353 884 353 1716 
Q 353 2575 817 3079 
Q 1281 3584 2069 3584 
Q 2775 3584 3186 3129 
Q 3597 2675 3597 1894 
z
M 3022 2063 
Q 3016 2534 2758 2815 
Q 2500 3097 2075 3097 
Q 1594 3097 1305 2825 
Q 1016 2553 972 2059 
L 3022 2063 
z
" transform="scale(0.015625)"/>
      </defs>
      <use xlink:href="#DejaVuSans-25"/>
      <use xlink:href="#DejaVuSans-20" x="95.019531"/>
      <use xlink:href="#DejaVuSans-63" x="126.806641"/>
      <use xlink:href="#DejaVuSans-68" x="181.787109"/>
      <use xlink:href="#DejaVuSans-61" x="245.166016"/>
      <use xlink:href="#DejaVuSans-6e" x="306.445312"/>
      <use xlink:href="#DejaVuSans-67" x="369.824219"/>
      <use xlink:href="#DejaVuSans-65" x="433.300781"/>
     </g>
    </g>
   </g>
   <g id="PolyCollection_1"/>
   <g id="PolyCollection_2"/>
   <g id="PolyCollection_3"/>
   <g id="PolyCollection_4"/>
   <g id="PolyCollection_5"/>
   <g id="PolyCollection_6"/>
   <g id="line2d_7">
    <path d="M 155.745103 109.803157 
L 156.121306 130.598967 
L 156.497509 131.315283 
L 156.873712 131.486493 
L 158.002321 131.454547 
L 161.011945 131.161623 
L 161.388148 130.41921 
L 164.021569 129.194703 
L 172.298036 125.551698 
L 183.207924 120.994963 
L 190.355781 118.212509 
L 200.13706 114.629782 
L 209.918338 111.282942 
L 219.699617 108.174783 
L 229.480895 105.301734 
L 239.262174 102.661933 
L 249.043452 100.249584 
L 258.824731 98.059497 
L 268.982213 96.015654 
L 279.139694 94.19945 
L 289.673379 92.546885 
L 300.207063 91.118513 
L 305.850109 90.50179 
L 313.374169 90.361088 
L 323.907854 90.655125 
L 334.817741 90.93582 
L 349.489659 91.614116 
L 360.77575 92.363105 
L 377.704886 93.200503 
L 394.634022 94.079483 
L 408.177331 95.105467 
L 429.997106 96.340547 
L 429.997106 96.340547 
" clip-path="url(#p18ad1bc229)" style="fill: none; stroke: #4c72b0; stroke-opacity: 0.9; stroke-width: 3; stroke-linecap: round"/>
   </g>
   <g id="line2d_8">
    <path d="M 155.745103 109.803157 
L 156.121306 121.145306 
L 156.497509 121.619227 
L 157.249915 121.820693 
L 159.507133 121.751813 
L 161.011945 121.681023 
L 161.388148 121.202731 
L 164.397773 120.460072 
L 171.921833 118.782788 
L 185.088939 116.065718 
L 196.375029 113.93428 
L 210.294541 111.540583 
L 223.83785 109.440075 
L 237.757362 107.508006 
L 252.053077 105.75076 
L 266.724994 104.17395 
L 281.396912 102.818927 
L 296.445033 101.64893 
L 302.840485 101.298365 
L 312.621763 101.142604 
L 329.550899 101.185687 
L 353.627893 101.26466 
L 365.290186 101.525062 
L 382.219322 101.829721 
L 425.106467 102.551444 
L 429.997106 102.639965 
L 429.997106 102.639965 
" clip-path="url(#p18ad1bc229)" style="fill: none; stroke: #dd8452; stroke-opacity: 0.9; stroke-width: 3; stroke-linecap: round"/>
   </g>
   <g id="line2d_9">
    <path d="M 155.745103 109.803157 
L 156.121306 131.595258 
L 156.497509 132.761383 
L 156.873712 133.035904 
L 157.626118 133.076274 
L 161.011945 132.737585 
L 161.764351 132.189096 
L 166.654991 130.049097 
L 175.30766 126.465224 
L 181.326908 124.178421 
L 185.841345 122.674396 
L 190.355781 121.468647 
L 192.989202 120.872333 
L 200.889466 119.511251 
L 217.442399 116.596705 
L 234.747738 113.506266 
L 262.210558 108.745415 
L 275.377664 106.692418 
L 288.920973 104.82721 
L 298.326048 103.721928 
L 306.226312 103.0097 
L 316.383793 102.311193 
L 325.412666 101.931358 
L 333.689132 101.815891 
L 347.608644 101.865651 
L 363.409171 102.121373 
L 384.47654 102.524722 
L 399.148458 102.940996 
L 418.334812 103.205859 
L 429.997106 103.329312 
L 429.997106 103.329312 
" clip-path="url(#p18ad1bc229)" style="fill: none; stroke: #55a868; stroke-opacity: 0.9; stroke-width: 3; stroke-linecap: round"/>
   </g>
   <g id="line2d_10">
    <path d="M 155.745103 109.803157 
L 156.121306 126.92994 
L 156.497509 127.866613 
L 156.873712 128.083004 
L 157.626118 128.112491 
L 161.011945 127.844225 
L 161.764351 127.43744 
L 168.159803 125.228517 
L 176.812472 122.415299 
L 181.326908 121.108379 
L 189.603375 119.325193 
L 192.989202 118.802593 
L 202.394278 117.66736 
L 230.233301 114.331514 
L 252.42928 111.17063 
L 274.625258 108.192005 
L 288.54477 106.550123 
L 300.583266 105.362718 
L 316.383793 104.042527 
L 323.907854 103.649233 
L 329.927102 103.568333 
L 340.460787 103.532604 
L 373.19045 103.081071 
L 398.396052 102.881804 
L 414.572782 102.52326 
L 429.997106 102.131137 
L 429.997106 102.131137 
" clip-path="url(#p18ad1bc229)" style="fill: none; stroke: #c44e52; stroke-opacity: 0.9; stroke-width: 3; stroke-linecap: round"/>
   </g>
   <g id="line2d_11">
    <path d="M 155.745103 109.803157 
L 156.121306 129.768373 
L 156.497509 130.627087 
L 156.873712 130.750139 
L 158.378524 130.652913 
L 161.011945 130.408328 
L 162.140554 129.778767 
L 168.536006 126.764253 
L 177.564878 122.788799 
L 188.850969 118.33525 
L 199.384654 114.417353 
L 208.789729 111.139414 
L 219.323414 107.720443 
L 229.104692 104.764611 
L 239.638377 101.817704 
L 250.172062 99.106875 
L 260.329543 96.72053 
L 270.487025 94.560167 
L 280.644506 92.625233 
L 290.801988 90.913985 
L 300.207063 89.542736 
L 305.097703 88.970125 
L 314.878981 88.660438 
L 321.650636 88.579544 
L 333.689132 89.158345 
L 354.756502 90.886565 
L 359.270938 91.302937 
L 379.209698 93.491611 
L 387.862368 94.606328 
L 395.010225 95.335982 
L 407.801128 96.353237 
L 425.858873 97.543403 
L 429.997106 97.775 
L 429.997106 97.775 
" clip-path="url(#p18ad1bc229)" style="fill: none; stroke: #8172b3; stroke-opacity: 0.9; stroke-width: 3; stroke-linecap: round"/>
   </g>
   <g id="line2d_12">
    <path d="M 155.745103 109.803157 
L 156.121306 125.823527 
L 156.497509 126.407955 
L 157.249915 126.500705 
L 161.011945 126.240607 
L 161.764351 125.886345 
L 170.040818 123.036516 
L 179.822096 119.930747 
L 192.236796 116.349458 
L 203.89909 113.209498 
L 214.808977 110.491758 
L 226.471271 107.814968 
L 238.509768 105.283994 
L 250.548265 102.981139 
L 262.586761 100.908529 
L 274.625258 99.067253 
L 286.663755 97.455635 
L 298.326048 96.115792 
L 303.216688 95.715786 
L 319.017215 95.321588 
L 327.293681 95.409962 
L 334.817741 95.581745 
L 372.061841 97.418029 
L 380.71451 98.178522 
L 385.981352 98.604139 
L 394.634022 99.251608 
L 402.534285 99.788978 
L 415.325188 100.418774 
L 429.997106 100.996609 
L 429.997106 100.996609 
" clip-path="url(#p18ad1bc229)" style="fill: none; stroke: #937860; stroke-opacity: 0.9; stroke-width: 3; stroke-linecap: round"/>
   </g>
   <g id="patch_3">
    <path d="M 142.032503 196.550453 
L 142.032503 81.456 
" style="fill: none; stroke: #ffffff; stroke-width: 1.25; stroke-linejoin: miter; stroke-linecap: square"/>
   </g>
   <g id="patch_4">
    <path d="M 142.032503 196.550453 
L 443.709706 196.550453 
" style="fill: none; stroke: #ffffff; stroke-width: 1.25; stroke-linejoin: miter; stroke-linecap: square"/>
   </g>
   <g id="text_4">
    <!-- 0.8~90 -->
    <g style="fill: #262626" transform="translate(246.241261 75.456) scale(0.252 -0.252)">
     <defs>
      <path id="DejaVuSans-2e" d="M 684 794 
L 1344 794 
L 1344 0 
L 684 0 
L 684 794 
z
" transform="scale(0.015625)"/>
      <path id="DejaVuSans-38" d="M 2034 2216 
Q 1584 2216 1326 1975 
Q 1069 1734 1069 1313 
Q 1069 891 1326 650 
Q 1584 409 2034 409 
Q 2484 409 2743 651 
Q 3003 894 3003 1313 
Q 3003 1734 2745 1975 
Q 2488 2216 2034 2216 
z
M 1403 2484 
Q 997 2584 770 2862 
Q 544 3141 544 3541 
Q 544 4100 942 4425 
Q 1341 4750 2034 4750 
Q 2731 4750 3128 4425 
Q 3525 4100 3525 3541 
Q 3525 3141 3298 2862 
Q 3072 2584 2669 2484 
Q 3125 2378 3379 2068 
Q 3634 1759 3634 1313 
Q 3634 634 3220 271 
Q 2806 -91 2034 -91 
Q 1263 -91 848 271 
Q 434 634 434 1313 
Q 434 1759 690 2068 
Q 947 2378 1403 2484 
z
M 1172 3481 
Q 1172 3119 1398 2916 
Q 1625 2713 2034 2713 
Q 2441 2713 2670 2916 
Q 2900 3119 2900 3481 
Q 2900 3844 2670 4047 
Q 2441 4250 2034 4250 
Q 1625 4250 1398 4047 
Q 1172 3844 1172 3481 
z
" transform="scale(0.015625)"/>
      <path id="DejaVuSans-7e" d="M 4684 2553 
L 4684 1997 
Q 4356 1750 4076 1644 
Q 3797 1538 3494 1538 
Q 3150 1538 2694 1722 
Q 2659 1734 2644 1741 
Q 2622 1750 2575 1766 
Q 2091 1959 1797 1959 
Q 1522 1959 1253 1839 
Q 984 1719 678 1459 
L 678 2016 
Q 1006 2263 1286 2370 
Q 1566 2478 1869 2478 
Q 2213 2478 2672 2291 
Q 2703 2278 2719 2272 
Q 2744 2263 2788 2247 
Q 3272 2053 3566 2053 
Q 3834 2053 4098 2172 
Q 4363 2291 4684 2553 
z
" transform="scale(0.015625)"/>
      <path id="DejaVuSans-39" d="M 703 97 
L 703 672 
Q 941 559 1184 500 
Q 1428 441 1663 441 
Q 2288 441 2617 861 
Q 2947 1281 2994 2138 
Q 2813 1869 2534 1725 
Q 2256 1581 1919 1581 
Q 1219 1581 811 2004 
Q 403 2428 403 3163 
Q 403 3881 828 4315 
Q 1253 4750 1959 4750 
Q 2769 4750 3195 4129 
Q 3622 3509 3622 2328 
Q 3622 1225 3098 567 
Q 2575 -91 1691 -91 
Q 1453 -91 1209 -44 
Q 966 3 703 97 
z
M 1959 2075 
Q 2384 2075 2632 2365 
Q 2881 2656 2881 3163 
Q 2881 3666 2632 3958 
Q 2384 4250 1959 4250 
Q 1534 4250 1286 3958 
Q 1038 3666 1038 3163 
Q 1038 2656 1286 2365 
Q 1534 2075 1959 2075 
z
" transform="scale(0.015625)"/>
     </defs>
     <use xlink:href="#DejaVuSans-30"/>
     <use xlink:href="#DejaVuSans-2e" x="63.623047"/>
     <use xlink:href="#DejaVuSans-38" x="95.410156"/>
     <use xlink:href="#DejaVuSans-7e" x="159.033203"/>
     <use xlink:href="#DejaVuSans-39" x="242.822266"/>
     <use xlink:href="#DejaVuSans-30" x="306.445312"/>
    </g>
   </g>
  </g>
  <g id="axes_2">
   <g id="patch_5">
    <path d="M 470.482436 196.550453 
L 772.15964 196.550453 
L 772.15964 81.456 
L 470.482436 81.456 
z
" style="fill: #eaeaf2"/>
   </g>
   <g id="matplotlib.axis_3">
    <g id="xtick_5">
     <g id="line2d_13">
      <path d="M 484.195037 196.550453 
L 484.195037 81.456 
" clip-path="url(#p0bfb3401f7)" style="fill: none; stroke: #ffffff; stroke-linecap: round"/>
     </g>
    </g>
    <g id="xtick_6">
     <g id="line2d_14">
      <path d="M 578.245792 196.550453 
L 578.245792 81.456 
" clip-path="url(#p0bfb3401f7)" style="fill: none; stroke: #ffffff; stroke-linecap: round"/>
     </g>
    </g>
    <g id="xtick_7">
     <g id="line2d_15">
      <path d="M 672.296548 196.550453 
L 672.296548 81.456 
" clip-path="url(#p0bfb3401f7)" style="fill: none; stroke: #ffffff; stroke-linecap: round"/>
     </g>
    </g>
    <g id="xtick_8">
     <g id="line2d_16">
      <path d="M 766.347303 196.550453 
L 766.347303 81.456 
" clip-path="url(#p0bfb3401f7)" style="fill: none; stroke: #ffffff; stroke-linecap: round"/>
     </g>
    </g>
   </g>
   <g id="matplotlib.axis_4">
    <g id="ytick_3">
     <g id="line2d_17">
      <path d="M 470.482436 191.965937 
L 772.15964 191.965937 
" clip-path="url(#p0bfb3401f7)" style="fill: none; stroke: #ffffff; stroke-linecap: round"/>
     </g>
    </g>
    <g id="ytick_4">
     <g id="line2d_18">
      <path d="M 470.482436 109.803157 
L 772.15964 109.803157 
" clip-path="url(#p0bfb3401f7)" style="fill: none; stroke: #ffffff; stroke-linecap: round"/>
     </g>
    </g>
   </g>
   <g id="PolyCollection_7"/>
   <g id="PolyCollection_8"/>
   <g id="PolyCollection_9"/>
   <g id="PolyCollection_10"/>
   <g id="PolyCollection_11"/>
   <g id="PolyCollection_12"/>
   <g id="line2d_19">
    <path d="M 484.195037 109.803157 
L 484.57124 130.598967 
L 484.947443 131.338298 
L 485.323646 131.536198 
L 486.452255 131.587566 
L 489.461879 131.515364 
L 489.838082 130.821212 
L 493.600112 129.962963 
L 507.895827 126.938079 
L 522.191542 124.13874 
L 537.239663 121.420662 
L 551.911581 118.988314 
L 565.454889 116.952441 
L 581.255416 114.832687 
L 597.432146 112.889008 
L 614.361282 111.081676 
L 632.042824 109.42115 
L 650.476772 107.913331 
L 670.039329 106.536441 
L 690.730496 105.303196 
L 712.926474 104.204901 
L 737.003467 103.2416 
L 749.041964 102.915321 
L 758.44704 103.144021 
L 758.44704 103.144021 
" clip-path="url(#p0bfb3401f7)" style="fill: none; stroke: #4c72b0; stroke-opacity: 0.9; stroke-width: 3; stroke-linecap: round"/>
   </g>
   <g id="line2d_20">
    <path d="M 484.195037 109.803157 
L 484.57124 121.145306 
L 484.947443 121.629863 
L 485.699849 121.856888 
L 487.957067 121.867982 
L 489.461879 121.850063 
L 489.838082 121.392879 
L 493.600112 120.914887 
L 511.657857 118.876406 
L 531.97282 116.862345 
L 551.159175 115.169687 
L 571.474138 113.595006 
L 593.293913 112.165286 
L 616.242297 110.885909 
L 641.071697 109.728258 
L 667.782111 108.707687 
L 697.125947 107.813719 
L 729.103204 107.06573 
L 746.408543 106.825653 
L 758.44704 106.944719 
L 758.44704 106.944719 
" clip-path="url(#p0bfb3401f7)" style="fill: none; stroke: #dd8452; stroke-opacity: 0.9; stroke-width: 3; stroke-linecap: round"/>
   </g>
   <g id="line2d_21">
    <path d="M 484.195037 109.803157 
L 484.57124 131.595258 
L 484.947443 132.785252 
L 485.323646 133.087638 
L 486.076052 133.186026 
L 489.461879 133.107254 
L 489.838082 132.830885 
L 490.966691 132.535396 
L 505.638609 129.477694 
L 512.410263 128.217775 
L 516.9247 127.59371 
L 525.201166 126.860643 
L 530.091805 126.72799 
L 539.120678 126.42535 
L 553.792596 125.654951 
L 576.74098 124.093272 
L 595.927334 122.30566 
L 615.489891 120.461289 
L 657.62463 116.704482 
L 682.830232 114.704365 
L 706.15482 113.062005 
L 731.736625 111.507945 
L 750.546776 110.611555 
L 758.44704 110.280365 
L 758.44704 110.280365 
" clip-path="url(#p0bfb3401f7)" style="fill: none; stroke: #55a868; stroke-opacity: 0.9; stroke-width: 3; stroke-linecap: round"/>
   </g>
   <g id="line2d_22">
    <path d="M 484.195037 109.803157 
L 484.57124 126.92994 
L 484.947443 127.885508 
L 485.323646 128.124054 
L 486.452255 128.198397 
L 489.461879 128.138585 
L 490.214285 127.850332 
L 497.738345 126.572809 
L 509.776842 124.68141 
L 516.548497 124.079084 
L 523.320151 123.718596 
L 534.230039 123.611582 
L 562.445265 123.508551 
L 570.721732 123.169231 
L 578.998198 122.582092 
L 589.15568 121.607652 
L 603.827598 120.168938 
L 614.361282 119.228585 
L 679.068202 114.190138 
L 711.797865 111.872339 
L 734.370046 110.465477 
L 758.44704 109.05638 
L 758.44704 109.05638 
" clip-path="url(#p0bfb3401f7)" style="fill: none; stroke: #c44e52; stroke-opacity: 0.9; stroke-width: 3; stroke-linecap: round"/>
   </g>
   <g id="line2d_23">
    <path d="M 484.195037 109.803157 
L 484.57124 129.768373 
L 484.947443 130.651628 
L 485.323646 130.800963 
L 486.828458 130.809776 
L 489.461879 130.748697 
L 490.214285 130.483118 
L 499.995564 128.286965 
L 513.162669 125.526585 
L 527.834587 122.699707 
L 542.506505 120.095607 
L 555.297408 118.04917 
L 571.097935 115.768381 
L 587.274665 113.658198 
L 604.203801 111.67774 
L 620.756734 109.962314 
L 639.190682 108.283297 
L 658.000833 106.793725 
L 678.315796 105.41137 
L 699.759368 104.177712 
L 722.707753 103.085391 
L 743.398919 102.310606 
L 751.299182 102.192679 
L 758.44704 102.298457 
L 758.44704 102.298457 
" clip-path="url(#p0bfb3401f7)" style="fill: none; stroke: #8172b3; stroke-opacity: 0.9; stroke-width: 3; stroke-linecap: round"/>
   </g>
   <g id="line2d_24">
    <path d="M 484.195037 109.803157 
L 484.57124 125.823527 
L 484.947443 126.426766 
L 485.699849 126.559897 
L 489.461879 126.500582 
L 490.214285 126.270665 
L 501.124173 124.407442 
L 517.300903 121.844751 
L 532.725226 119.61959 
L 549.654362 117.420067 
L 564.702483 115.680411 
L 582.760228 113.814423 
L 601.570379 112.09514 
L 621.132937 110.532311 
L 641.824103 109.116095 
L 664.020081 107.822712 
L 687.720872 106.667643 
L 712.926474 105.662799 
L 740.013092 104.804519 
L 747.160949 104.740461 
L 758.44704 104.816871 
L 758.44704 104.816871 
" clip-path="url(#p0bfb3401f7)" style="fill: none; stroke: #937860; stroke-opacity: 0.9; stroke-width: 3; stroke-linecap: round"/>
   </g>
   <g id="patch_6">
    <path d="M 470.482436 196.550453 
L 470.482436 81.456 
" style="fill: none; stroke: #ffffff; stroke-width: 1.25; stroke-linejoin: miter; stroke-linecap: square"/>
   </g>
   <g id="patch_7">
    <path d="M 470.482436 196.550453 
L 772.15964 196.550453 
" style="fill: none; stroke: #ffffff; stroke-width: 1.25; stroke-linejoin: miter; stroke-linecap: square"/>
   </g>
   <g id="text_5">
    <!-- 0.8~365 -->
    <g style="fill: #262626" transform="translate(566.674444 75.456) scale(0.252 -0.252)">
     <defs>
      <path id="DejaVuSans-33" d="M 2597 2516 
Q 3050 2419 3304 2112 
Q 3559 1806 3559 1356 
Q 3559 666 3084 287 
Q 2609 -91 1734 -91 
Q 1441 -91 1130 -33 
Q 819 25 488 141 
L 488 750 
Q 750 597 1062 519 
Q 1375 441 1716 441 
Q 2309 441 2620 675 
Q 2931 909 2931 1356 
Q 2931 1769 2642 2001 
Q 2353 2234 1838 2234 
L 1294 2234 
L 1294 2753 
L 1863 2753 
Q 2328 2753 2575 2939 
Q 2822 3125 2822 3475 
Q 2822 3834 2567 4026 
Q 2313 4219 1838 4219 
Q 1578 4219 1281 4162 
Q 984 4106 628 3988 
L 628 4550 
Q 988 4650 1302 4700 
Q 1616 4750 1894 4750 
Q 2613 4750 3031 4423 
Q 3450 4097 3450 3541 
Q 3450 3153 3228 2886 
Q 3006 2619 2597 2516 
z
" transform="scale(0.015625)"/>
      <path id="DejaVuSans-36" d="M 2113 2584 
Q 1688 2584 1439 2293 
Q 1191 2003 1191 1497 
Q 1191 994 1439 701 
Q 1688 409 2113 409 
Q 2538 409 2786 701 
Q 3034 994 3034 1497 
Q 3034 2003 2786 2293 
Q 2538 2584 2113 2584 
z
M 3366 4563 
L 3366 3988 
Q 3128 4100 2886 4159 
Q 2644 4219 2406 4219 
Q 1781 4219 1451 3797 
Q 1122 3375 1075 2522 
Q 1259 2794 1537 2939 
Q 1816 3084 2150 3084 
Q 2853 3084 3261 2657 
Q 3669 2231 3669 1497 
Q 3669 778 3244 343 
Q 2819 -91 2113 -91 
Q 1303 -91 875 529 
Q 447 1150 447 2328 
Q 447 3434 972 4092 
Q 1497 4750 2381 4750 
Q 2619 4750 2861 4703 
Q 3103 4656 3366 4563 
z
" transform="scale(0.015625)"/>
      <path id="DejaVuSans-35" d="M 691 4666 
L 3169 4666 
L 3169 4134 
L 1269 4134 
L 1269 2991 
Q 1406 3038 1543 3061 
Q 1681 3084 1819 3084 
Q 2600 3084 3056 2656 
Q 3513 2228 3513 1497 
Q 3513 744 3044 326 
Q 2575 -91 1722 -91 
Q 1428 -91 1123 -41 
Q 819 9 494 109 
L 494 744 
Q 775 591 1075 516 
Q 1375 441 1709 441 
Q 2250 441 2565 725 
Q 2881 1009 2881 1497 
Q 2881 1984 2565 2268 
Q 2250 2553 1709 2553 
Q 1456 2553 1204 2497 
Q 953 2441 691 2322 
L 691 4666 
z
" transform="scale(0.015625)"/>
     </defs>
     <use xlink:href="#DejaVuSans-30"/>
     <use xlink:href="#DejaVuSans-2e" x="63.623047"/>
     <use xlink:href="#DejaVuSans-38" x="95.410156"/>
     <use xlink:href="#DejaVuSans-7e" x="159.033203"/>
     <use xlink:href="#DejaVuSans-33" x="242.822266"/>
     <use xlink:href="#DejaVuSans-36" x="306.445312"/>
     <use xlink:href="#DejaVuSans-35" x="370.068359"/>
    </g>
   </g>
  </g>
  <g id="axes_3">
   <g id="patch_8">
    <path d="M 798.93237 196.550453 
L 1100.609573 196.550453 
L 1100.609573 81.456 
L 798.93237 81.456 
z
" style="fill: #eaeaf2"/>
   </g>
   <g id="matplotlib.axis_5">
    <g id="xtick_9">
     <g id="line2d_25">
      <path d="M 812.64497 196.550453 
L 812.64497 81.456 
" clip-path="url(#p4d83a87ffb)" style="fill: none; stroke: #ffffff; stroke-linecap: round"/>
     </g>
    </g>
    <g id="xtick_10">
     <g id="line2d_26">
      <path d="M 906.695726 196.550453 
L 906.695726 81.456 
" clip-path="url(#p4d83a87ffb)" style="fill: none; stroke: #ffffff; stroke-linecap: round"/>
     </g>
    </g>
    <g id="xtick_11">
     <g id="line2d_27">
      <path d="M 1000.746481 196.550453 
L 1000.746481 81.456 
" clip-path="url(#p4d83a87ffb)" style="fill: none; stroke: #ffffff; stroke-linecap: round"/>
     </g>
    </g>
    <g id="xtick_12">
     <g id="line2d_28">
      <path d="M 1094.797237 196.550453 
L 1094.797237 81.456 
" clip-path="url(#p4d83a87ffb)" style="fill: none; stroke: #ffffff; stroke-linecap: round"/>
     </g>
    </g>
   </g>
   <g id="matplotlib.axis_6">
    <g id="ytick_5">
     <g id="line2d_29">
      <path d="M 798.93237 191.965937 
L 1100.609573 191.965937 
" clip-path="url(#p4d83a87ffb)" style="fill: none; stroke: #ffffff; stroke-linecap: round"/>
     </g>
    </g>
    <g id="ytick_6">
     <g id="line2d_30">
      <path d="M 798.93237 109.803157 
L 1100.609573 109.803157 
" clip-path="url(#p4d83a87ffb)" style="fill: none; stroke: #ffffff; stroke-linecap: round"/>
     </g>
    </g>
   </g>
   <g id="PolyCollection_13"/>
   <g id="PolyCollection_14"/>
   <g id="PolyCollection_15"/>
   <g id="PolyCollection_16"/>
   <g id="PolyCollection_17"/>
   <g id="PolyCollection_18"/>
   <g id="line2d_31">
    <path d="M 812.64497 109.803157 
L 813.021173 130.598967 
L 813.397376 131.315283 
L 813.773579 131.486493 
L 814.902188 131.454547 
L 817.911813 131.161623 
L 818.288016 130.41921 
L 820.921437 129.194703 
L 829.197903 125.551698 
L 840.107791 120.994963 
L 847.255648 118.212509 
L 857.036927 114.629782 
L 866.818205 111.282942 
L 876.599484 108.174783 
L 886.380763 105.301734 
L 896.162041 102.661933 
L 905.94332 100.249584 
L 915.724598 98.059497 
L 925.88208 96.015654 
L 936.039561 94.19945 
L 946.573246 92.546885 
L 957.106931 91.118513 
L 962.749976 90.50179 
L 970.274036 90.361088 
L 980.807721 90.655125 
L 991.717609 90.93582 
L 1006.389527 91.614116 
L 1017.675617 92.363105 
L 1034.604753 93.200503 
L 1051.533889 94.079483 
L 1065.077198 95.105467 
L 1086.896973 96.340547 
L 1086.896973 96.340547 
" clip-path="url(#p4d83a87ffb)" style="fill: none; stroke: #4c72b0; stroke-opacity: 0.9; stroke-width: 3; stroke-linecap: round"/>
   </g>
   <g id="line2d_32">
    <path d="M 812.64497 109.803157 
L 813.021173 121.145306 
L 813.397376 121.619227 
L 814.149782 121.820693 
L 816.407001 121.751813 
L 817.911813 121.681023 
L 818.288016 121.202731 
L 821.29764 120.460072 
L 828.8217 118.782788 
L 841.988806 116.065718 
L 853.274897 113.93428 
L 867.194408 111.540583 
L 880.737717 109.440075 
L 894.657229 107.508006 
L 908.952944 105.75076 
L 923.624862 104.17395 
L 938.29678 102.818927 
L 953.344901 101.64893 
L 959.740352 101.298365 
L 969.52163 101.142604 
L 986.450766 101.185687 
L 1010.52776 101.26466 
L 1022.190054 101.525062 
L 1039.11919 101.829721 
L 1082.006334 102.551444 
L 1086.896973 102.639965 
L 1086.896973 102.639965 
" clip-path="url(#p4d83a87ffb)" style="fill: none; stroke: #dd8452; stroke-opacity: 0.9; stroke-width: 3; stroke-linecap: round"/>
   </g>
   <g id="line2d_33">
    <path d="M 812.64497 109.803157 
L 813.021173 131.595258 
L 813.397376 132.761383 
L 813.773579 133.035904 
L 814.525985 133.076274 
L 817.911813 132.737585 
L 818.664219 132.189096 
L 823.554858 130.049097 
L 831.831324 126.616666 
L 837.098167 124.682222 
L 840.107791 123.773405 
L 845.374633 122.464747 
L 848.008054 122.1038 
L 853.6511 121.487073 
L 857.41313 121.209976 
L 866.065799 120.902588 
L 873.213657 120.634118 
L 880.361514 120.042703 
L 884.875951 119.404206 
L 889.390387 118.53865 
L 894.657229 117.291859 
L 899.924071 115.806624 
L 913.46738 111.807837 
L 922.496253 109.387512 
L 928.139298 108.002194 
L 934.158546 106.789578 
L 942.05881 105.571838 
L 948.454261 104.77815 
L 957.106931 103.880998 
L 966.135803 103.199868 
L 974.788473 102.731203 
L 983.817345 102.456792 
L 994.35103 102.42798 
L 1008.270542 102.631416 
L 1037.614377 103.43606 
L 1053.791107 104.07478 
L 1073.353664 104.575349 
L 1086.896973 104.885673 
L 1086.896973 104.885673 
" clip-path="url(#p4d83a87ffb)" style="fill: none; stroke: #55a868; stroke-opacity: 0.9; stroke-width: 3; stroke-linecap: round"/>
   </g>
   <g id="line2d_34">
    <path d="M 812.64497 109.803157 
L 813.021173 126.92994 
L 813.397376 127.866613 
L 813.773579 128.083004 
L 814.525985 128.112491 
L 817.911813 127.844225 
L 818.664219 127.43744 
L 825.05967 125.228517 
L 832.959933 122.66435 
L 837.850573 121.463709 
L 841.988806 120.626323 
L 844.246024 120.306472 
L 847.631851 120.032578 
L 852.522491 119.89178 
L 859.670348 120.16028 
L 869.075424 120.500227 
L 874.342266 120.493454 
L 878.856702 120.314278 
L 883.747341 119.908902 
L 888.637981 119.276858 
L 895.785838 118.08946 
L 903.686102 116.536026 
L 911.962568 114.775148 
L 925.505877 111.65241 
L 943.563622 107.410832 
L 948.454261 106.638657 
L 953.344901 106.100353 
L 969.145427 104.857425 
L 977.798097 104.364667 
L 983.441142 104.234242 
L 991.717609 104.327864 
L 1003.003699 104.334243 
L 1047.019453 104.574082 
L 1060.938965 104.590452 
L 1086.896973 104.395206 
L 1086.896973 104.395206 
" clip-path="url(#p4d83a87ffb)" style="fill: none; stroke: #c44e52; stroke-opacity: 0.9; stroke-width: 3; stroke-linecap: round"/>
   </g>
   <g id="line2d_35">
    <path d="M 812.64497 109.803157 
L 813.021173 129.768373 
L 813.397376 130.627087 
L 813.773579 130.750139 
L 815.278391 130.652913 
L 817.911813 130.408328 
L 819.040422 129.778767 
L 825.435873 126.764253 
L 834.464746 122.788799 
L 845.750836 118.33525 
L 856.284521 114.417353 
L 865.689596 111.139414 
L 876.223281 107.720443 
L 886.00456 104.764611 
L 896.538244 101.817704 
L 907.071929 99.106875 
L 917.22941 96.72053 
L 927.386892 94.560167 
L 937.544374 92.625233 
L 947.701855 90.913985 
L 957.106931 89.542736 
L 961.99757 88.970125 
L 971.778849 88.660438 
L 978.550503 88.579544 
L 990.589 89.158345 
L 1011.656369 90.886565 
L 1016.170805 91.302937 
L 1036.109565 93.491611 
L 1044.762235 94.606328 
L 1051.910092 95.335982 
L 1064.700995 96.353237 
L 1082.75874 97.543403 
L 1086.896973 97.775 
L 1086.896973 97.775 
" clip-path="url(#p4d83a87ffb)" style="fill: none; stroke: #8172b3; stroke-opacity: 0.9; stroke-width: 3; stroke-linecap: round"/>
   </g>
   <g id="line2d_36">
    <path d="M 812.64497 109.803157 
L 813.021173 125.823527 
L 813.397376 126.407955 
L 814.149782 126.500705 
L 817.911813 126.240607 
L 818.664219 125.886345 
L 826.940685 123.036516 
L 836.721964 119.930747 
L 849.136663 116.349458 
L 860.798957 113.209498 
L 871.708845 110.491758 
L 883.371138 107.814968 
L 895.409635 105.283994 
L 907.448132 102.981139 
L 919.486629 100.908529 
L 931.525125 99.067253 
L 943.563622 97.455635 
L 955.225916 96.115792 
L 960.116555 95.715786 
L 975.917082 95.321588 
L 984.193548 95.409962 
L 991.717609 95.581745 
L 1028.961708 97.418029 
L 1037.614377 98.178522 
L 1042.88122 98.604139 
L 1051.533889 99.251608 
L 1059.434153 99.788978 
L 1072.225055 100.418774 
L 1086.896973 100.996609 
L 1086.896973 100.996609 
" clip-path="url(#p4d83a87ffb)" style="fill: none; stroke: #937860; stroke-opacity: 0.9; stroke-width: 3; stroke-linecap: round"/>
   </g>
   <g id="patch_9">
    <path d="M 798.93237 196.550453 
L 798.93237 81.456 
" style="fill: none; stroke: #ffffff; stroke-width: 1.25; stroke-linejoin: miter; stroke-linecap: square"/>
   </g>
   <g id="patch_10">
    <path d="M 798.93237 196.550453 
L 1100.609573 196.550453 
" style="fill: none; stroke: #ffffff; stroke-width: 1.25; stroke-linejoin: miter; stroke-linecap: square"/>
   </g>
   <g id="text_6">
    <!-- 0.85~90 -->
    <g style="fill: #262626" transform="translate(895.124378 75.456) scale(0.252 -0.252)">
     <use xlink:href="#DejaVuSans-30"/>
     <use xlink:href="#DejaVuSans-2e" x="63.623047"/>
     <use xlink:href="#DejaVuSans-38" x="95.410156"/>
     <use xlink:href="#DejaVuSans-35" x="159.033203"/>
     <use xlink:href="#DejaVuSans-7e" x="222.65625"/>
     <use xlink:href="#DejaVuSans-39" x="306.445312"/>
     <use xlink:href="#DejaVuSans-30" x="370.068359"/>
    </g>
   </g>
  </g>
  <g id="axes_4">
   <g id="patch_11">
    <path d="M 142.032503 373.284 
L 443.709706 373.284 
L 443.709706 258.189547 
L 142.032503 258.189547 
z
" style="fill: #eaeaf2"/>
   </g>
   <g id="matplotlib.axis_7">
    <g id="xtick_13">
     <g id="line2d_37">
      <path d="M 155.745103 373.284 
L 155.745103 258.189547 
" clip-path="url(#pede50191cf)" style="fill: none; stroke: #ffffff; stroke-linecap: round"/>
     </g>
     <g id="text_7">
      <!-- 0 -->
      <g style="fill: #262626" transform="translate(148.396415 400.336391) scale(0.231 -0.231)">
       <use xlink:href="#DejaVuSans-30"/>
      </g>
     </g>
    </g>
    <g id="xtick_14">
     <g id="line2d_38">
      <path d="M 249.795858 373.284 
L 249.795858 258.189547 
" clip-path="url(#pede50191cf)" style="fill: none; stroke: #ffffff; stroke-linecap: round"/>
     </g>
     <g id="text_8">
      <!-- 250 -->
      <g style="fill: #262626" transform="translate(227.749796 400.336391) scale(0.231 -0.231)">
       <use xlink:href="#DejaVuSans-32"/>
       <use xlink:href="#DejaVuSans-35" x="63.623047"/>
       <use xlink:href="#DejaVuSans-30" x="127.246094"/>
      </g>
     </g>
    </g>
    <g id="xtick_15">
     <g id="line2d_39">
      <path d="M 343.846614 373.284 
L 343.846614 258.189547 
" clip-path="url(#pede50191cf)" style="fill: none; stroke: #ffffff; stroke-linecap: round"/>
     </g>
     <g id="text_9">
      <!-- 500 -->
      <g style="fill: #262626" transform="translate(321.800551 400.336391) scale(0.231 -0.231)">
       <use xlink:href="#DejaVuSans-35"/>
       <use xlink:href="#DejaVuSans-30" x="63.623047"/>
       <use xlink:href="#DejaVuSans-30" x="127.246094"/>
      </g>
     </g>
    </g>
    <g id="xtick_16">
     <g id="line2d_40">
      <path d="M 437.897369 373.284 
L 437.897369 258.189547 
" clip-path="url(#pede50191cf)" style="fill: none; stroke: #ffffff; stroke-linecap: round"/>
     </g>
     <g id="text_10">
      <!-- 750 -->
      <g style="fill: #262626" transform="translate(415.851307 400.336391) scale(0.231 -0.231)">
       <defs>
        <path id="DejaVuSans-37" d="M 525 4666 
L 3525 4666 
L 3525 4397 
L 1831 0 
L 1172 0 
L 2766 4134 
L 525 4134 
L 525 4666 
z
" transform="scale(0.015625)"/>
       </defs>
       <use xlink:href="#DejaVuSans-37"/>
       <use xlink:href="#DejaVuSans-35" x="63.623047"/>
       <use xlink:href="#DejaVuSans-30" x="127.246094"/>
      </g>
     </g>
    </g>
    <g id="text_11">
     <!-- step -->
     <g style="fill: #262626" transform="translate(265.615729 428.288531) scale(0.252 -0.252)">
      <defs>
       <path id="DejaVuSans-73" d="M 2834 3397 
L 2834 2853 
Q 2591 2978 2328 3040 
Q 2066 3103 1784 3103 
Q 1356 3103 1142 2972 
Q 928 2841 928 2578 
Q 928 2378 1081 2264 
Q 1234 2150 1697 2047 
L 1894 2003 
Q 2506 1872 2764 1633 
Q 3022 1394 3022 966 
Q 3022 478 2636 193 
Q 2250 -91 1575 -91 
Q 1294 -91 989 -36 
Q 684 19 347 128 
L 347 722 
Q 666 556 975 473 
Q 1284 391 1588 391 
Q 1994 391 2212 530 
Q 2431 669 2431 922 
Q 2431 1156 2273 1281 
Q 2116 1406 1581 1522 
L 1381 1569 
Q 847 1681 609 1914 
Q 372 2147 372 2553 
Q 372 3047 722 3315 
Q 1072 3584 1716 3584 
Q 2034 3584 2315 3537 
Q 2597 3491 2834 3397 
z
" transform="scale(0.015625)"/>
       <path id="DejaVuSans-74" d="M 1172 4494 
L 1172 3500 
L 2356 3500 
L 2356 3053 
L 1172 3053 
L 1172 1153 
Q 1172 725 1289 603 
Q 1406 481 1766 481 
L 2356 481 
L 2356 0 
L 1766 0 
Q 1100 0 847 248 
Q 594 497 594 1153 
L 594 3053 
L 172 3053 
L 172 3500 
L 594 3500 
L 594 4494 
L 1172 4494 
z
" transform="scale(0.015625)"/>
       <path id="DejaVuSans-70" d="M 1159 525 
L 1159 -1331 
L 581 -1331 
L 581 3500 
L 1159 3500 
L 1159 2969 
Q 1341 3281 1617 3432 
Q 1894 3584 2278 3584 
Q 2916 3584 3314 3078 
Q 3713 2572 3713 1747 
Q 3713 922 3314 415 
Q 2916 -91 2278 -91 
Q 1894 -91 1617 61 
Q 1341 213 1159 525 
z
M 3116 1747 
Q 3116 2381 2855 2742 
Q 2594 3103 2138 3103 
Q 1681 3103 1420 2742 
Q 1159 2381 1159 1747 
Q 1159 1113 1420 752 
Q 1681 391 2138 391 
Q 2594 391 2855 752 
Q 3116 1113 3116 1747 
z
" transform="scale(0.015625)"/>
      </defs>
      <use xlink:href="#DejaVuSans-73"/>
      <use xlink:href="#DejaVuSans-74" x="52.099609"/>
      <use xlink:href="#DejaVuSans-65" x="91.308594"/>
      <use xlink:href="#DejaVuSans-70" x="152.832031"/>
     </g>
    </g>
   </g>
   <g id="matplotlib.axis_8">
    <g id="ytick_7">
     <g id="line2d_41">
      <path d="M 142.032503 368.699485 
L 443.709706 368.699485 
" clip-path="url(#pede50191cf)" style="fill: none; stroke: #ffffff; stroke-linecap: round"/>
     </g>
     <g id="text_12">
      <!-- −2 -->
      <g style="fill: #262626" transform="translate(98.47805 377.47568) scale(0.231 -0.231)">
       <use xlink:href="#DejaVuSans-2212"/>
       <use xlink:href="#DejaVuSans-32" x="83.789062"/>
      </g>
     </g>
    </g>
    <g id="ytick_8">
     <g id="line2d_42">
      <path d="M 142.032503 286.536704 
L 443.709706 286.536704 
" clip-path="url(#pede50191cf)" style="fill: none; stroke: #ffffff; stroke-linecap: round"/>
     </g>
     <g id="text_13">
      <!-- 0 -->
      <g style="fill: #262626" transform="translate(117.835128 295.3129) scale(0.231 -0.231)">
       <use xlink:href="#DejaVuSans-30"/>
      </g>
     </g>
    </g>
    <g id="text_14">
     <!-- % change -->
     <g style="fill: #262626" transform="translate(89.237237 378.085117) rotate(-90) scale(0.252 -0.252)">
      <use xlink:href="#DejaVuSans-25"/>
      <use xlink:href="#DejaVuSans-20" x="95.019531"/>
      <use xlink:href="#DejaVuSans-63" x="126.806641"/>
      <use xlink:href="#DejaVuSans-68" x="181.787109"/>
      <use xlink:href="#DejaVuSans-61" x="245.166016"/>
      <use xlink:href="#DejaVuSans-6e" x="306.445312"/>
      <use xlink:href="#DejaVuSans-67" x="369.824219"/>
      <use xlink:href="#DejaVuSans-65" x="433.300781"/>
     </g>
    </g>
   </g>
   <g id="PolyCollection_19"/>
   <g id="PolyCollection_20"/>
   <g id="PolyCollection_21"/>
   <g id="PolyCollection_22"/>
   <g id="PolyCollection_23"/>
   <g id="PolyCollection_24"/>
   <g id="line2d_43">
    <path d="M 155.745103 286.536704 
L 156.121306 307.332515 
L 156.497509 308.071845 
L 156.873712 308.269745 
L 158.002321 308.321114 
L 161.011945 308.248912 
L 161.388148 307.554759 
L 165.150179 306.69651 
L 179.445893 303.671627 
L 193.741608 300.872288 
L 208.789729 298.15421 
L 223.461647 295.721861 
L 237.004956 293.685988 
L 252.805483 291.566235 
L 268.982213 289.622555 
L 285.911349 287.815224 
L 303.592891 286.154697 
L 322.026839 284.646879 
L 341.589396 283.269989 
L 362.280562 282.036744 
L 384.47654 280.938448 
L 408.553534 279.975148 
L 420.59203 279.648868 
L 429.997106 279.877568 
L 429.997106 279.877568 
" clip-path="url(#pede50191cf)" style="fill: none; stroke: #4c72b0; stroke-opacity: 0.9; stroke-width: 3; stroke-linecap: round"/>
   </g>
   <g id="line2d_44">
    <path d="M 155.745103 286.536704 
L 156.121306 297.878854 
L 156.497509 298.363411 
L 157.249915 298.590435 
L 159.507133 298.60153 
L 161.011945 298.583611 
L 161.388148 298.126426 
L 165.150179 297.648434 
L 183.207924 295.609954 
L 203.522887 293.595892 
L 222.709241 291.903234 
L 243.024204 290.328553 
L 264.843979 288.898833 
L 287.792364 287.619457 
L 312.621763 286.461806 
L 339.332178 285.441234 
L 368.676013 284.547267 
L 400.65327 283.799278 
L 417.958609 283.559201 
L 429.997106 283.678267 
L 429.997106 283.678267 
" clip-path="url(#pede50191cf)" style="fill: none; stroke: #dd8452; stroke-opacity: 0.9; stroke-width: 3; stroke-linecap: round"/>
   </g>
   <g id="line2d_45">
    <path d="M 155.745103 286.536704 
L 156.121306 308.328806 
L 156.497509 309.5188 
L 156.873712 309.821186 
L 157.626118 309.919574 
L 161.011945 309.840802 
L 161.388148 309.564432 
L 162.516757 309.268944 
L 176.060066 306.448531 
L 181.703112 305.49508 
L 188.098563 304.800417 
L 190.731984 304.671978 
L 194.494014 304.697116 
L 197.503638 304.919713 
L 200.513263 305.376428 
L 215.18518 308.515978 
L 219.699617 309.202949 
L 224.214053 309.729142 
L 229.104692 310.164398 
L 233.619129 310.34609 
L 238.509768 310.320409 
L 243.77661 310.054847 
L 249.043452 309.561987 
L 254.686498 308.803731 
L 260.705746 307.760145 
L 266.724994 306.498652 
L 273.872852 304.765522 
L 284.406537 301.916407 
L 290.801988 300.213619 
L 297.197439 298.621139 
L 303.592891 297.35014 
L 320.145824 294.570764 
L 325.412666 293.939982 
L 337.07496 292.945272 
L 362.280562 291.086959 
L 381.843119 289.857033 
L 404.4153 288.663974 
L 420.968233 288.008953 
L 429.997106 287.706372 
L 429.997106 287.706372 
" clip-path="url(#pede50191cf)" style="fill: none; stroke: #55a868; stroke-opacity: 0.9; stroke-width: 3; stroke-linecap: round"/>
   </g>
   <g id="line2d_46">
    <path d="M 155.745103 286.536704 
L 156.121306 303.663487 
L 156.497509 304.619055 
L 156.873712 304.857602 
L 158.002321 304.931944 
L 161.011945 304.872132 
L 161.764351 304.583879 
L 169.288412 303.306357 
L 177.564878 302.033303 
L 181.703112 301.648679 
L 188.474766 301.333078 
L 191.860593 301.448667 
L 194.870217 301.808566 
L 202.770481 303.197327 
L 218.947211 306.687548 
L 224.214053 307.44994 
L 229.104692 307.928105 
L 233.995332 308.174886 
L 239.262174 308.201809 
L 244.529016 308.00089 
L 250.172062 307.552911 
L 256.19131 306.83964 
L 264.091573 305.640545 
L 271.239431 304.29548 
L 283.277927 301.711441 
L 286.663755 301.081199 
L 314.126575 296.265412 
L 330.679508 293.305112 
L 335.193944 292.659302 
L 339.332178 292.202594 
L 344.222817 291.851997 
L 373.566653 289.929665 
L 400.277067 288.418362 
L 429.997106 287.007167 
L 429.997106 287.007167 
" clip-path="url(#pede50191cf)" style="fill: none; stroke: #c44e52; stroke-opacity: 0.9; stroke-width: 3; stroke-linecap: round"/>
   </g>
   <g id="line2d_47">
    <path d="M 155.745103 286.536704 
L 156.121306 306.50192 
L 156.497509 307.385175 
L 156.873712 307.534511 
L 158.378524 307.543323 
L 161.011945 307.482244 
L 161.764351 307.216666 
L 171.54563 305.020512 
L 184.712736 302.260133 
L 199.384654 299.433255 
L 214.056571 296.829155 
L 226.847474 294.782717 
L 242.648001 292.501929 
L 258.824731 290.391745 
L 275.753867 288.411287 
L 292.3068 286.695861 
L 310.740748 285.016844 
L 329.550899 283.527272 
L 349.865862 282.144917 
L 371.309435 280.911259 
L 394.257819 279.818939 
L 414.948985 279.044153 
L 422.849249 278.926226 
L 429.997106 279.032004 
L 429.997106 279.032004 
" clip-path="url(#pede50191cf)" style="fill: none; stroke: #8172b3; stroke-opacity: 0.9; stroke-width: 3; stroke-linecap: round"/>
   </g>
   <g id="line2d_48">
    <path d="M 155.745103 286.536704 
L 156.121306 302.557074 
L 156.497509 303.160313 
L 157.249915 303.293444 
L 161.011945 303.234129 
L 161.764351 303.004213 
L 172.674239 301.140989 
L 188.850969 298.578298 
L 204.275293 296.353137 
L 221.204429 294.153615 
L 236.25255 292.413958 
L 254.310295 290.54797 
L 273.120446 288.828687 
L 292.683003 287.265858 
L 313.374169 285.849642 
L 335.570147 284.556259 
L 359.270938 283.40119 
L 384.47654 282.396347 
L 411.563158 281.538066 
L 418.711015 281.474009 
L 429.997106 281.550419 
L 429.997106 281.550419 
" clip-path="url(#pede50191cf)" style="fill: none; stroke: #937860; stroke-opacity: 0.9; stroke-width: 3; stroke-linecap: round"/>
   </g>
   <g id="patch_12">
    <path d="M 142.032503 373.284 
L 142.032503 258.189547 
" style="fill: none; stroke: #ffffff; stroke-width: 1.25; stroke-linejoin: miter; stroke-linecap: square"/>
   </g>
   <g id="patch_13">
    <path d="M 142.032503 373.284 
L 443.709706 373.284 
" style="fill: none; stroke: #ffffff; stroke-width: 1.25; stroke-linejoin: miter; stroke-linecap: square"/>
   </g>
   <g id="text_15">
    <!-- 0.85~365 -->
    <g style="fill: #262626" transform="translate(230.207761 252.189547) scale(0.252 -0.252)">
     <use xlink:href="#DejaVuSans-30"/>
     <use xlink:href="#DejaVuSans-2e" x="63.623047"/>
     <use xlink:href="#DejaVuSans-38" x="95.410156"/>
     <use xlink:href="#DejaVuSans-35" x="159.033203"/>
     <use xlink:href="#DejaVuSans-7e" x="222.65625"/>
     <use xlink:href="#DejaVuSans-33" x="306.445312"/>
     <use xlink:href="#DejaVuSans-36" x="370.068359"/>
     <use xlink:href="#DejaVuSans-35" x="433.691406"/>
    </g>
   </g>
  </g>
  <g id="axes_5">
   <g id="patch_14">
    <path d="M 470.482436 373.284 
L 772.15964 373.284 
L 772.15964 258.189547 
L 470.482436 258.189547 
z
" style="fill: #eaeaf2"/>
   </g>
   <g id="matplotlib.axis_9">
    <g id="xtick_17">
     <g id="line2d_49">
      <path d="M 484.195037 373.284 
L 484.195037 258.189547 
" clip-path="url(#p202811b363)" style="fill: none; stroke: #ffffff; stroke-linecap: round"/>
     </g>
     <g id="text_16">
      <!-- 0 -->
      <g style="fill: #262626" transform="translate(476.846349 400.336391) scale(0.231 -0.231)">
       <use xlink:href="#DejaVuSans-30"/>
      </g>
     </g>
    </g>
    <g id="xtick_18">
     <g id="line2d_50">
      <path d="M 578.245792 373.284 
L 578.245792 258.189547 
" clip-path="url(#p202811b363)" style="fill: none; stroke: #ffffff; stroke-linecap: round"/>
     </g>
     <g id="text_17">
      <!-- 250 -->
      <g style="fill: #262626" transform="translate(556.19973 400.336391) scale(0.231 -0.231)">
       <use xlink:href="#DejaVuSans-32"/>
       <use xlink:href="#DejaVuSans-35" x="63.623047"/>
       <use xlink:href="#DejaVuSans-30" x="127.246094"/>
      </g>
     </g>
    </g>
    <g id="xtick_19">
     <g id="line2d_51">
      <path d="M 672.296548 373.284 
L 672.296548 258.189547 
" clip-path="url(#p202811b363)" style="fill: none; stroke: #ffffff; stroke-linecap: round"/>
     </g>
     <g id="text_18">
      <!-- 500 -->
      <g style="fill: #262626" transform="translate(650.250485 400.336391) scale(0.231 -0.231)">
       <use xlink:href="#DejaVuSans-35"/>
       <use xlink:href="#DejaVuSans-30" x="63.623047"/>
       <use xlink:href="#DejaVuSans-30" x="127.246094"/>
      </g>
     </g>
    </g>
    <g id="xtick_20">
     <g id="line2d_52">
      <path d="M 766.347303 373.284 
L 766.347303 258.189547 
" clip-path="url(#p202811b363)" style="fill: none; stroke: #ffffff; stroke-linecap: round"/>
     </g>
     <g id="text_19">
      <!-- 750 -->
      <g style="fill: #262626" transform="translate(744.301241 400.336391) scale(0.231 -0.231)">
       <use xlink:href="#DejaVuSans-37"/>
       <use xlink:href="#DejaVuSans-35" x="63.623047"/>
       <use xlink:href="#DejaVuSans-30" x="127.246094"/>
      </g>
     </g>
    </g>
    <g id="text_20">
     <!-- step -->
     <g style="fill: #262626" transform="translate(594.065663 428.288531) scale(0.252 -0.252)">
      <use xlink:href="#DejaVuSans-73"/>
      <use xlink:href="#DejaVuSans-74" x="52.099609"/>
      <use xlink:href="#DejaVuSans-65" x="91.308594"/>
      <use xlink:href="#DejaVuSans-70" x="152.832031"/>
     </g>
    </g>
   </g>
   <g id="matplotlib.axis_10">
    <g id="ytick_9">
     <g id="line2d_53">
      <path d="M 470.482436 368.699485 
L 772.15964 368.699485 
" clip-path="url(#p202811b363)" style="fill: none; stroke: #ffffff; stroke-linecap: round"/>
     </g>
    </g>
    <g id="ytick_10">
     <g id="line2d_54">
      <path d="M 470.482436 286.536704 
L 772.15964 286.536704 
" clip-path="url(#p202811b363)" style="fill: none; stroke: #ffffff; stroke-linecap: round"/>
     </g>
    </g>
   </g>
   <g id="PolyCollection_25"/>
   <g id="PolyCollection_26"/>
   <g id="PolyCollection_27"/>
   <g id="line2d_55">
    <path d="M 484.195037 286.536704 
L 484.57124 297.878854 
L 484.947443 298.352774 
L 485.699849 298.55424 
L 487.957067 298.485361 
L 489.461879 298.41457 
L 489.838082 297.936278 
L 492.847706 297.19362 
L 500.371767 295.516335 
L 508.27203 293.900908 
L 512.03406 294.206141 
L 512.410263 294.649207 
L 513.538872 297.330085 
L 513.915075 298.428819 
L 520.68673 324.169578 
L 523.320151 332.705722 
L 525.577369 339.303299 
L 527.834587 345.219076 
L 530.091805 350.443572 
L 531.97282 354.274998 
L 533.853836 357.657098 
L 536.111054 361.172148 
L 537.615866 363.150417 
L 539.120678 364.791292 
L 540.62549 366.094951 
L 542.130302 367.066691 
L 543.635114 367.707605 
L 544.763723 367.971989 
L 545.892332 368.052434 
L 547.020941 367.949608 
L 548.14955 367.664912 
L 549.278159 367.199136 
L 550.782972 366.289628 
L 552.287784 365.05969 
L 553.792596 363.511746 
L 555.297408 361.650656 
L 557.178423 358.896061 
L 559.059438 355.65279 
L 560.940453 352.072344 
L 562.821468 348.035168 
L 565.078686 342.626769 
L 567.335904 336.65997 
L 569.969326 329.090837 
L 572.97895 319.705782 
L 575.988574 309.582282 
L 579.374401 297.383339 
L 584.641244 278.038185 
L 586.522259 272.481767 
L 587.274665 270.919847 
L 588.779477 268.755964 
L 590.660492 266.440149 
L 591.789101 265.231953 
L 592.541507 265.022929 
L 595.927334 264.60866 
L 608.718237 263.633268 
L 612.480267 263.455276 
L 622.261546 263.527533 
L 624.142561 263.867087 
L 627.904591 264.736423 
L 631.666621 264.923282 
L 671.920345 266.475997 
L 677.187187 266.86881 
L 680.573014 267.120988 
L 695.244932 268.375572 
L 698.630759 268.651847 
L 700.887977 269.080307 
L 702.392789 269.352789 
L 706.907226 269.698518 
L 711.797865 269.964046 
L 729.103204 270.63488 
L 753.180197 271.332544 
L 758.44704 271.461413 
L 758.44704 271.461413 
" clip-path="url(#p202811b363)" style="fill: none; stroke: #dd8452; stroke-opacity: 0.9; stroke-width: 3; stroke-linecap: round"/>
   </g>
   <g id="line2d_56">
    <path d="M 484.195037 286.536704 
L 484.57124 306.50192 
L 484.947443 307.360634 
L 485.323646 307.483687 
L 486.828458 307.38646 
L 489.461879 307.141876 
L 490.590488 306.512314 
L 496.985939 303.4978 
L 506.014812 299.522346 
L 517.300903 295.068797 
L 527.834587 291.150901 
L 537.239663 287.872962 
L 547.773347 284.45399 
L 557.554626 281.498159 
L 568.088311 278.551252 
L 578.621995 275.840422 
L 588.779477 273.454077 
L 598.936958 271.293715 
L 609.09444 269.35878 
L 619.251922 267.647532 
L 628.656997 266.276284 
L 633.547636 265.703673 
L 643.328915 265.393986 
L 650.100569 265.313092 
L 662.139066 265.891893 
L 683.206435 267.620112 
L 687.720872 268.036484 
L 707.659632 270.225159 
L 716.312301 271.339876 
L 723.460159 272.069529 
L 736.251061 273.086784 
L 754.308806 274.276951 
L 758.44704 274.508548 
L 758.44704 274.508548 
" clip-path="url(#p202811b363)" style="fill: none; stroke: #8172b3; stroke-opacity: 0.9; stroke-width: 3; stroke-linecap: round"/>
   </g>
   <g id="line2d_57">
    <path d="M 484.195037 286.536704 
L 484.57124 302.557074 
L 484.947443 303.141503 
L 485.699849 303.234252 
L 489.461879 302.974154 
L 490.214285 302.619893 
L 498.490751 299.770064 
L 508.27203 296.664294 
L 520.68673 293.083006 
L 532.349023 289.943046 
L 543.258911 287.225305 
L 554.921205 284.548515 
L 566.959701 282.017542 
L 578.998198 279.714686 
L 591.036695 277.642077 
L 603.075192 275.8008 
L 615.113688 274.189182 
L 626.775982 272.849339 
L 631.666621 272.449333 
L 647.467148 272.055135 
L 655.743615 272.14351 
L 663.267675 272.315292 
L 700.511774 274.151576 
L 709.164444 274.91207 
L 714.431286 275.337686 
L 723.083956 275.985155 
L 730.984219 276.522525 
L 743.775122 277.152322 
L 758.44704 277.730156 
L 758.44704 277.730156 
" clip-path="url(#p202811b363)" style="fill: none; stroke: #937860; stroke-opacity: 0.9; stroke-width: 3; stroke-linecap: round"/>
   </g>
   <g id="patch_15">
    <path d="M 470.482436 373.284 
L 470.482436 258.189547 
" style="fill: none; stroke: #ffffff; stroke-width: 1.25; stroke-linejoin: miter; stroke-linecap: square"/>
   </g>
   <g id="patch_16">
    <path d="M 470.482436 373.284 
L 772.15964 373.284 
" style="fill: none; stroke: #ffffff; stroke-width: 1.25; stroke-linejoin: miter; stroke-linecap: square"/>
   </g>
   <g id="text_21">
    <!-- 0.95~90 -->
    <g style="fill: #262626" transform="translate(566.674444 252.189547) scale(0.252 -0.252)">
     <use xlink:href="#DejaVuSans-30"/>
     <use xlink:href="#DejaVuSans-2e" x="63.623047"/>
     <use xlink:href="#DejaVuSans-39" x="95.410156"/>
     <use xlink:href="#DejaVuSans-35" x="159.033203"/>
     <use xlink:href="#DejaVuSans-7e" x="222.65625"/>
     <use xlink:href="#DejaVuSans-39" x="306.445312"/>
     <use xlink:href="#DejaVuSans-30" x="370.068359"/>
    </g>
   </g>
  </g>
  <g id="axes_6">
   <g id="patch_17">
    <path d="M 798.93237 373.284 
L 1100.609573 373.284 
L 1100.609573 258.189547 
L 798.93237 258.189547 
z
" style="fill: #eaeaf2"/>
   </g>
   <g id="matplotlib.axis_11">
    <g id="xtick_21">
     <g id="line2d_58">
      <path d="M 812.64497 373.284 
L 812.64497 258.189547 
" clip-path="url(#p944e8f5ba9)" style="fill: none; stroke: #ffffff; stroke-linecap: round"/>
     </g>
     <g id="text_22">
      <!-- 0 -->
      <g style="fill: #262626" transform="translate(805.296283 400.336391) scale(0.231 -0.231)">
       <use xlink:href="#DejaVuSans-30"/>
      </g>
     </g>
    </g>
    <g id="xtick_22">
     <g id="line2d_59">
      <path d="M 906.695726 373.284 
L 906.695726 258.189547 
" clip-path="url(#p944e8f5ba9)" style="fill: none; stroke: #ffffff; stroke-linecap: round"/>
     </g>
     <g id="text_23">
      <!-- 250 -->
      <g style="fill: #262626" transform="translate(884.649663 400.336391) scale(0.231 -0.231)">
       <use xlink:href="#DejaVuSans-32"/>
       <use xlink:href="#DejaVuSans-35" x="63.623047"/>
       <use xlink:href="#DejaVuSans-30" x="127.246094"/>
      </g>
     </g>
    </g>
    <g id="xtick_23">
     <g id="line2d_60">
      <path d="M 1000.746481 373.284 
L 1000.746481 258.189547 
" clip-path="url(#p944e8f5ba9)" style="fill: none; stroke: #ffffff; stroke-linecap: round"/>
     </g>
     <g id="text_24">
      <!-- 500 -->
      <g style="fill: #262626" transform="translate(978.700419 400.336391) scale(0.231 -0.231)">
       <use xlink:href="#DejaVuSans-35"/>
       <use xlink:href="#DejaVuSans-30" x="63.623047"/>
       <use xlink:href="#DejaVuSans-30" x="127.246094"/>
      </g>
     </g>
    </g>
    <g id="xtick_24">
     <g id="line2d_61">
      <path d="M 1094.797237 373.284 
L 1094.797237 258.189547 
" clip-path="url(#p944e8f5ba9)" style="fill: none; stroke: #ffffff; stroke-linecap: round"/>
     </g>
     <g id="text_25">
      <!-- 750 -->
      <g style="fill: #262626" transform="translate(1072.751174 400.336391) scale(0.231 -0.231)">
       <use xlink:href="#DejaVuSans-37"/>
       <use xlink:href="#DejaVuSans-35" x="63.623047"/>
       <use xlink:href="#DejaVuSans-30" x="127.246094"/>
      </g>
     </g>
    </g>
    <g id="text_26">
     <!-- step -->
     <g style="fill: #262626" transform="translate(922.515597 428.288531) scale(0.252 -0.252)">
      <use xlink:href="#DejaVuSans-73"/>
      <use xlink:href="#DejaVuSans-74" x="52.099609"/>
      <use xlink:href="#DejaVuSans-65" x="91.308594"/>
      <use xlink:href="#DejaVuSans-70" x="152.832031"/>
     </g>
    </g>
   </g>
   <g id="matplotlib.axis_12">
    <g id="ytick_11">
     <g id="line2d_62">
      <path d="M 798.93237 368.699485 
L 1100.609573 368.699485 
" clip-path="url(#p944e8f5ba9)" style="fill: none; stroke: #ffffff; stroke-linecap: round"/>
     </g>
    </g>
    <g id="ytick_12">
     <g id="line2d_63">
      <path d="M 798.93237 286.536704 
L 1100.609573 286.536704 
" clip-path="url(#p944e8f5ba9)" style="fill: none; stroke: #ffffff; stroke-linecap: round"/>
     </g>
    </g>
   </g>
   <g id="PolyCollection_28"/>
   <g id="PolyCollection_29"/>
   <g id="line2d_64">
    <path d="M 812.64497 286.536704 
L 813.021173 306.50192 
L 813.397376 307.385175 
L 813.773579 307.534511 
L 815.278391 307.543323 
L 817.911813 307.482244 
L 818.664219 307.216666 
L 828.445497 305.020512 
L 841.612603 302.260133 
L 856.284521 299.433255 
L 870.956439 296.829155 
L 883.747341 294.782717 
L 899.547868 292.501929 
L 915.724598 290.391745 
L 932.653734 288.411287 
L 949.206667 286.695861 
L 967.640615 285.016844 
L 986.450766 283.527272 
L 1006.76573 282.144917 
L 1028.209302 280.911259 
L 1051.157686 279.818939 
L 1071.848852 279.044153 
L 1079.749116 278.926226 
L 1086.896973 279.032004 
L 1086.896973 279.032004 
" clip-path="url(#p944e8f5ba9)" style="fill: none; stroke: #8172b3; stroke-opacity: 0.9; stroke-width: 3; stroke-linecap: round"/>
   </g>
   <g id="line2d_65">
    <path d="M 812.64497 286.536704 
L 813.021173 302.557074 
L 813.397376 303.160313 
L 814.149782 303.293444 
L 817.911813 303.234129 
L 818.664219 303.004213 
L 829.574106 301.140989 
L 845.750836 298.578298 
L 861.17516 296.353137 
L 878.104296 294.153615 
L 893.152417 292.413958 
L 911.210162 290.54797 
L 930.020313 288.828687 
L 949.58287 287.265858 
L 970.274036 285.849642 
L 992.470015 284.556259 
L 1016.170805 283.40119 
L 1041.376408 282.396347 
L 1068.463025 281.538066 
L 1075.610883 281.474009 
L 1086.896973 281.550419 
L 1086.896973 281.550419 
" clip-path="url(#p944e8f5ba9)" style="fill: none; stroke: #937860; stroke-opacity: 0.9; stroke-width: 3; stroke-linecap: round"/>
   </g>
   <g id="patch_18">
    <path d="M 798.93237 373.284 
L 798.93237 258.189547 
" style="fill: none; stroke: #ffffff; stroke-width: 1.25; stroke-linejoin: miter; stroke-linecap: square"/>
   </g>
   <g id="patch_19">
    <path d="M 798.93237 373.284 
L 1100.609573 373.284 
" style="fill: none; stroke: #ffffff; stroke-width: 1.25; stroke-linejoin: miter; stroke-linecap: square"/>
   </g>
   <g id="text_27">
    <!-- 0.95~365 -->
    <g style="fill: #262626" transform="translate(887.107628 252.189547) scale(0.252 -0.252)">
     <use xlink:href="#DejaVuSans-30"/>
     <use xlink:href="#DejaVuSans-2e" x="63.623047"/>
     <use xlink:href="#DejaVuSans-39" x="95.410156"/>
     <use xlink:href="#DejaVuSans-35" x="159.033203"/>
     <use xlink:href="#DejaVuSans-7e" x="222.65625"/>
     <use xlink:href="#DejaVuSans-33" x="306.445312"/>
     <use xlink:href="#DejaVuSans-36" x="370.068359"/>
     <use xlink:href="#DejaVuSans-35" x="433.691406"/>
    </g>
   </g>
  </g>
  <g id="text_28">
   <!-- Production change from pre-shock level -->
   <g style="fill: #262626" transform="translate(280.766836 30.177675) scale(0.3024 -0.3024)">
    <defs>
     <path id="DejaVuSans-50" d="M 1259 4147 
L 1259 2394 
L 2053 2394 
Q 2494 2394 2734 2622 
Q 2975 2850 2975 3272 
Q 2975 3691 2734 3919 
Q 2494 4147 2053 4147 
L 1259 4147 
z
M 628 4666 
L 2053 4666 
Q 2838 4666 3239 4311 
Q 3641 3956 3641 3272 
Q 3641 2581 3239 2228 
Q 2838 1875 2053 1875 
L 1259 1875 
L 1259 0 
L 628 0 
L 628 4666 
z
" transform="scale(0.015625)"/>
     <path id="DejaVuSans-72" d="M 2631 2963 
Q 2534 3019 2420 3045 
Q 2306 3072 2169 3072 
Q 1681 3072 1420 2755 
Q 1159 2438 1159 1844 
L 1159 0 
L 581 0 
L 581 3500 
L 1159 3500 
L 1159 2956 
Q 1341 3275 1631 3429 
Q 1922 3584 2338 3584 
Q 2397 3584 2469 3576 
Q 2541 3569 2628 3553 
L 2631 2963 
z
" transform="scale(0.015625)"/>
     <path id="DejaVuSans-6f" d="M 1959 3097 
Q 1497 3097 1228 2736 
Q 959 2375 959 1747 
Q 959 1119 1226 758 
Q 1494 397 1959 397 
Q 2419 397 2687 759 
Q 2956 1122 2956 1747 
Q 2956 2369 2687 2733 
Q 2419 3097 1959 3097 
z
M 1959 3584 
Q 2709 3584 3137 3096 
Q 3566 2609 3566 1747 
Q 3566 888 3137 398 
Q 2709 -91 1959 -91 
Q 1206 -91 779 398 
Q 353 888 353 1747 
Q 353 2609 779 3096 
Q 1206 3584 1959 3584 
z
" transform="scale(0.015625)"/>
     <path id="DejaVuSans-64" d="M 2906 2969 
L 2906 4863 
L 3481 4863 
L 3481 0 
L 2906 0 
L 2906 525 
Q 2725 213 2448 61 
Q 2172 -91 1784 -91 
Q 1150 -91 751 415 
Q 353 922 353 1747 
Q 353 2572 751 3078 
Q 1150 3584 1784 3584 
Q 2172 3584 2448 3432 
Q 2725 3281 2906 2969 
z
M 947 1747 
Q 947 1113 1208 752 
Q 1469 391 1925 391 
Q 2381 391 2643 752 
Q 2906 1113 2906 1747 
Q 2906 2381 2643 2742 
Q 2381 3103 1925 3103 
Q 1469 3103 1208 2742 
Q 947 2381 947 1747 
z
" transform="scale(0.015625)"/>
     <path id="DejaVuSans-75" d="M 544 1381 
L 544 3500 
L 1119 3500 
L 1119 1403 
Q 1119 906 1312 657 
Q 1506 409 1894 409 
Q 2359 409 2629 706 
Q 2900 1003 2900 1516 
L 2900 3500 
L 3475 3500 
L 3475 0 
L 2900 0 
L 2900 538 
Q 2691 219 2414 64 
Q 2138 -91 1772 -91 
Q 1169 -91 856 284 
Q 544 659 544 1381 
z
M 1991 3584 
L 1991 3584 
z
" transform="scale(0.015625)"/>
     <path id="DejaVuSans-69" d="M 603 3500 
L 1178 3500 
L 1178 0 
L 603 0 
L 603 3500 
z
M 603 4863 
L 1178 4863 
L 1178 4134 
L 603 4134 
L 603 4863 
z
" transform="scale(0.015625)"/>
     <path id="DejaVuSans-66" d="M 2375 4863 
L 2375 4384 
L 1825 4384 
Q 1516 4384 1395 4259 
Q 1275 4134 1275 3809 
L 1275 3500 
L 2222 3500 
L 2222 3053 
L 1275 3053 
L 1275 0 
L 697 0 
L 697 3053 
L 147 3053 
L 147 3500 
L 697 3500 
L 697 3744 
Q 697 4328 969 4595 
Q 1241 4863 1831 4863 
L 2375 4863 
z
" transform="scale(0.015625)"/>
     <path id="DejaVuSans-6d" d="M 3328 2828 
Q 3544 3216 3844 3400 
Q 4144 3584 4550 3584 
Q 5097 3584 5394 3201 
Q 5691 2819 5691 2113 
L 5691 0 
L 5113 0 
L 5113 2094 
Q 5113 2597 4934 2840 
Q 4756 3084 4391 3084 
Q 3944 3084 3684 2787 
Q 3425 2491 3425 1978 
L 3425 0 
L 2847 0 
L 2847 2094 
Q 2847 2600 2669 2842 
Q 2491 3084 2119 3084 
Q 1678 3084 1418 2786 
Q 1159 2488 1159 1978 
L 1159 0 
L 581 0 
L 581 3500 
L 1159 3500 
L 1159 2956 
Q 1356 3278 1631 3431 
Q 1906 3584 2284 3584 
Q 2666 3584 2933 3390 
Q 3200 3197 3328 2828 
z
" transform="scale(0.015625)"/>
     <path id="DejaVuSans-2d" d="M 313 2009 
L 1997 2009 
L 1997 1497 
L 313 1497 
L 313 2009 
z
" transform="scale(0.015625)"/>
     <path id="DejaVuSans-6b" d="M 581 4863 
L 1159 4863 
L 1159 1991 
L 2875 3500 
L 3609 3500 
L 1753 1863 
L 3688 0 
L 2938 0 
L 1159 1709 
L 1159 0 
L 581 0 
L 581 4863 
z
" transform="scale(0.015625)"/>
     <path id="DejaVuSans-6c" d="M 603 4863 
L 1178 4863 
L 1178 0 
L 603 0 
L 603 4863 
z
" transform="scale(0.015625)"/>
     <path id="DejaVuSans-76" d="M 191 3500 
L 800 3500 
L 1894 563 
L 2988 3500 
L 3597 3500 
L 2284 0 
L 1503 0 
L 191 3500 
z
" transform="scale(0.015625)"/>
    </defs>
    <use xlink:href="#DejaVuSans-50"/>
    <use xlink:href="#DejaVuSans-72" x="58.552734"/>
    <use xlink:href="#DejaVuSans-6f" x="97.416016"/>
    <use xlink:href="#DejaVuSans-64" x="158.597656"/>
    <use xlink:href="#DejaVuSans-75" x="222.074219"/>
    <use xlink:href="#DejaVuSans-63" x="285.453125"/>
    <use xlink:href="#DejaVuSans-74" x="340.433594"/>
    <use xlink:href="#DejaVuSans-69" x="379.642578"/>
    <use xlink:href="#DejaVuSans-6f" x="407.425781"/>
    <use xlink:href="#DejaVuSans-6e" x="468.607422"/>
    <use xlink:href="#DejaVuSans-20" x="531.986328"/>
    <use xlink:href="#DejaVuSans-63" x="563.773438"/>
    <use xlink:href="#DejaVuSans-68" x="618.753906"/>
    <use xlink:href="#DejaVuSans-61" x="682.132812"/>
    <use xlink:href="#DejaVuSans-6e" x="743.412109"/>
    <use xlink:href="#DejaVuSans-67" x="806.791016"/>
    <use xlink:href="#DejaVuSans-65" x="870.267578"/>
    <use xlink:href="#DejaVuSans-20" x="931.791016"/>
    <use xlink:href="#DejaVuSans-66" x="963.578125"/>
    <use xlink:href="#DejaVuSans-72" x="998.783203"/>
    <use xlink:href="#DejaVuSans-6f" x="1037.646484"/>
    <use xlink:href="#DejaVuSans-6d" x="1098.828125"/>
    <use xlink:href="#DejaVuSans-20" x="1196.240234"/>
    <use xlink:href="#DejaVuSans-70" x="1228.027344"/>
    <use xlink:href="#DejaVuSans-72" x="1291.503906"/>
    <use xlink:href="#DejaVuSans-65" x="1330.367188"/>
    <use xlink:href="#DejaVuSans-2d" x="1391.890625"/>
    <use xlink:href="#DejaVuSans-73" x="1427.974609"/>
    <use xlink:href="#DejaVuSans-68" x="1480.074219"/>
    <use xlink:href="#DejaVuSans-6f" x="1543.453125"/>
    <use xlink:href="#DejaVuSans-63" x="1604.634766"/>
    <use xlink:href="#DejaVuSans-6b" x="1659.615234"/>
    <use xlink:href="#DejaVuSans-20" x="1717.525391"/>
    <use xlink:href="#DejaVuSans-6c" x="1749.3125"/>
    <use xlink:href="#DejaVuSans-65" x="1777.095703"/>
    <use xlink:href="#DejaVuSans-76" x="1838.619141"/>
    <use xlink:href="#DejaVuSans-65" x="1897.798828"/>
    <use xlink:href="#DejaVuSans-6c" x="1959.322266"/>
   </g>
  </g>
  <g id="legend_1">
   <g id="patch_20">
    <path d="M 11.82 584.31675 
L 1292.617547 584.31675 
Q 1297.237547 584.31675 1297.237547 579.69675 
L 1297.237547 476.97 
Q 1297.237547 472.35 1292.617547 472.35 
L 11.82 472.35 
Q 7.2 472.35 7.2 476.97 
L 7.2 579.69675 
Q 7.2 584.31675 11.82 584.31675 
z
" style="fill: #eaeaf2; opacity: 0.8; stroke: #cccccc; stroke-linejoin: miter"/>
   </g>
   <g id="text_29">
    <!-- Experiences -->
    <g style="fill: #262626" transform="translate(575.384367 500.738062) scale(0.252 -0.252)">
     <defs>
      <path id="DejaVuSans-45" d="M 628 4666 
L 3578 4666 
L 3578 4134 
L 1259 4134 
L 1259 2753 
L 3481 2753 
L 3481 2222 
L 1259 2222 
L 1259 531 
L 3634 531 
L 3634 0 
L 628 0 
L 628 4666 
z
" transform="scale(0.015625)"/>
      <path id="DejaVuSans-78" d="M 3513 3500 
L 2247 1797 
L 3578 0 
L 2900 0 
L 1881 1375 
L 863 0 
L 184 0 
L 1544 1831 
L 300 3500 
L 978 3500 
L 1906 2253 
L 2834 3500 
L 3513 3500 
z
" transform="scale(0.015625)"/>
     </defs>
     <use xlink:href="#DejaVuSans-45"/>
     <use xlink:href="#DejaVuSans-78" x="63.183594"/>
     <use xlink:href="#DejaVuSans-70" x="122.363281"/>
     <use xlink:href="#DejaVuSans-65" x="185.839844"/>
     <use xlink:href="#DejaVuSans-72" x="247.363281"/>
     <use xlink:href="#DejaVuSans-69" x="288.476562"/>
     <use xlink:href="#DejaVuSans-65" x="316.259766"/>
     <use xlink:href="#DejaVuSans-6e" x="377.783203"/>
     <use xlink:href="#DejaVuSans-63" x="441.162109"/>
     <use xlink:href="#DejaVuSans-65" x="496.142578"/>
     <use xlink:href="#DejaVuSans-73" x="557.666016"/>
    </g>
   </g>
   <g id="line2d_66">
    <path d="M 16.44 526.996266 
L 39.54 526.996266 
L 62.64 526.996266 
" style="fill: none; stroke: #4c72b0; stroke-opacity: 0.9; stroke-width: 3; stroke-linecap: round"/>
   </g>
   <g id="text_30">
    <!-- eora26_full_2000 -->
    <g style="fill: #262626" transform="translate(81.12 535.081266) scale(0.231 -0.231)">
     <defs>
      <path id="DejaVuSans-5f" d="M 3263 -1063 
L 3263 -1509 
L -63 -1509 
L -63 -1063 
L 3263 -1063 
z
" transform="scale(0.015625)"/>
     </defs>
     <use xlink:href="#DejaVuSans-65"/>
     <use xlink:href="#DejaVuSans-6f" x="61.523438"/>
     <use xlink:href="#DejaVuSans-72" x="122.705078"/>
     <use xlink:href="#DejaVuSans-61" x="163.818359"/>
     <use xlink:href="#DejaVuSans-32" x="225.097656"/>
     <use xlink:href="#DejaVuSans-36" x="288.720703"/>
     <use xlink:href="#DejaVuSans-5f" x="352.34375"/>
     <use xlink:href="#DejaVuSans-66" x="402.34375"/>
     <use xlink:href="#DejaVuSans-75" x="437.548828"/>
     <use xlink:href="#DejaVuSans-6c" x="500.927734"/>
     <use xlink:href="#DejaVuSans-6c" x="528.710938"/>
     <use xlink:href="#DejaVuSans-5f" x="556.494141"/>
     <use xlink:href="#DejaVuSans-32" x="606.494141"/>
     <use xlink:href="#DejaVuSans-30" x="670.117188"/>
     <use xlink:href="#DejaVuSans-30" x="733.740234"/>
     <use xlink:href="#DejaVuSans-30" x="797.363281"/>
    </g>
   </g>
   <g id="line2d_67">
    <path d="M 16.44 561.545203 
L 39.54 561.545203 
L 62.64 561.545203 
" style="fill: none; stroke: #dd8452; stroke-opacity: 0.9; stroke-width: 3; stroke-linecap: round"/>
   </g>
   <g id="text_31">
    <!-- eora26_full_2010 -->
    <g style="fill: #262626" transform="translate(81.12 569.630203) scale(0.231 -0.231)">
     <defs>
      <path id="DejaVuSans-31" d="M 794 531 
L 1825 531 
L 1825 4091 
L 703 3866 
L 703 4441 
L 1819 4666 
L 2450 4666 
L 2450 531 
L 3481 531 
L 3481 0 
L 794 0 
L 794 531 
z
" transform="scale(0.015625)"/>
     </defs>
     <use xlink:href="#DejaVuSans-65"/>
     <use xlink:href="#DejaVuSans-6f" x="61.523438"/>
     <use xlink:href="#DejaVuSans-72" x="122.705078"/>
     <use xlink:href="#DejaVuSans-61" x="163.818359"/>
     <use xlink:href="#DejaVuSans-32" x="225.097656"/>
     <use xlink:href="#DejaVuSans-36" x="288.720703"/>
     <use xlink:href="#DejaVuSans-5f" x="352.34375"/>
     <use xlink:href="#DejaVuSans-66" x="402.34375"/>
     <use xlink:href="#DejaVuSans-75" x="437.548828"/>
     <use xlink:href="#DejaVuSans-6c" x="500.927734"/>
     <use xlink:href="#DejaVuSans-6c" x="528.710938"/>
     <use xlink:href="#DejaVuSans-5f" x="556.494141"/>
     <use xlink:href="#DejaVuSans-32" x="606.494141"/>
     <use xlink:href="#DejaVuSans-30" x="670.117188"/>
     <use xlink:href="#DejaVuSans-31" x="733.740234"/>
     <use xlink:href="#DejaVuSans-30" x="797.363281"/>
    </g>
   </g>
   <g id="line2d_68">
    <path d="M 326.211 526.996266 
L 349.311 526.996266 
L 372.411 526.996266 
" style="fill: none; stroke: #55a868; stroke-opacity: 0.9; stroke-width: 3; stroke-linecap: round"/>
   </g>
   <g id="text_32">
    <!-- euregio_full_2000 -->
    <g style="fill: #262626" transform="translate(390.891 535.081266) scale(0.231 -0.231)">
     <use xlink:href="#DejaVuSans-65"/>
     <use xlink:href="#DejaVuSans-75" x="61.523438"/>
     <use xlink:href="#DejaVuSans-72" x="124.902344"/>
     <use xlink:href="#DejaVuSans-65" x="163.765625"/>
     <use xlink:href="#DejaVuSans-67" x="225.289062"/>
     <use xlink:href="#DejaVuSans-69" x="288.765625"/>
     <use xlink:href="#DejaVuSans-6f" x="316.548828"/>
     <use xlink:href="#DejaVuSans-5f" x="377.730469"/>
     <use xlink:href="#DejaVuSans-66" x="427.730469"/>
     <use xlink:href="#DejaVuSans-75" x="462.935547"/>
     <use xlink:href="#DejaVuSans-6c" x="526.314453"/>
     <use xlink:href="#DejaVuSans-6c" x="554.097656"/>
     <use xlink:href="#DejaVuSans-5f" x="581.880859"/>
     <use xlink:href="#DejaVuSans-32" x="631.880859"/>
     <use xlink:href="#DejaVuSans-30" x="695.503906"/>
     <use xlink:href="#DejaVuSans-30" x="759.126953"/>
     <use xlink:href="#DejaVuSans-30" x="822.75"/>
    </g>
   </g>
   <g id="line2d_69">
    <path d="M 326.211 561.545203 
L 349.311 561.545203 
L 372.411 561.545203 
" style="fill: none; stroke: #c44e52; stroke-opacity: 0.9; stroke-width: 3; stroke-linecap: round"/>
   </g>
   <g id="text_33">
    <!-- euregio_full_2010 -->
    <g style="fill: #262626" transform="translate(390.891 569.630203) scale(0.231 -0.231)">
     <use xlink:href="#DejaVuSans-65"/>
     <use xlink:href="#DejaVuSans-75" x="61.523438"/>
     <use xlink:href="#DejaVuSans-72" x="124.902344"/>
     <use xlink:href="#DejaVuSans-65" x="163.765625"/>
     <use xlink:href="#DejaVuSans-67" x="225.289062"/>
     <use xlink:href="#DejaVuSans-69" x="288.765625"/>
     <use xlink:href="#DejaVuSans-6f" x="316.548828"/>
     <use xlink:href="#DejaVuSans-5f" x="377.730469"/>
     <use xlink:href="#DejaVuSans-66" x="427.730469"/>
     <use xlink:href="#DejaVuSans-75" x="462.935547"/>
     <use xlink:href="#DejaVuSans-6c" x="526.314453"/>
     <use xlink:href="#DejaVuSans-6c" x="554.097656"/>
     <use xlink:href="#DejaVuSans-5f" x="581.880859"/>
     <use xlink:href="#DejaVuSans-32" x="631.880859"/>
     <use xlink:href="#DejaVuSans-30" x="695.503906"/>
     <use xlink:href="#DejaVuSans-31" x="759.126953"/>
     <use xlink:href="#DejaVuSans-30" x="822.75"/>
    </g>
   </g>
   <g id="line2d_70">
    <path d="M 641.847234 526.996266 
L 664.947234 526.996266 
L 688.047234 526.996266 
" style="fill: none; stroke: #8172b3; stroke-opacity: 0.9; stroke-width: 3; stroke-linecap: round"/>
   </g>
   <g id="text_34">
    <!-- exiobase3_full_2000 -->
    <g style="fill: #262626" transform="translate(706.527234 535.081266) scale(0.231 -0.231)">
     <defs>
      <path id="DejaVuSans-62" d="M 3116 1747 
Q 3116 2381 2855 2742 
Q 2594 3103 2138 3103 
Q 1681 3103 1420 2742 
Q 1159 2381 1159 1747 
Q 1159 1113 1420 752 
Q 1681 391 2138 391 
Q 2594 391 2855 752 
Q 3116 1113 3116 1747 
z
M 1159 2969 
Q 1341 3281 1617 3432 
Q 1894 3584 2278 3584 
Q 2916 3584 3314 3078 
Q 3713 2572 3713 1747 
Q 3713 922 3314 415 
Q 2916 -91 2278 -91 
Q 1894 -91 1617 61 
Q 1341 213 1159 525 
L 1159 0 
L 581 0 
L 581 4863 
L 1159 4863 
L 1159 2969 
z
" transform="scale(0.015625)"/>
     </defs>
     <use xlink:href="#DejaVuSans-65"/>
     <use xlink:href="#DejaVuSans-78" x="59.773438"/>
     <use xlink:href="#DejaVuSans-69" x="118.953125"/>
     <use xlink:href="#DejaVuSans-6f" x="146.736328"/>
     <use xlink:href="#DejaVuSans-62" x="207.917969"/>
     <use xlink:href="#DejaVuSans-61" x="271.394531"/>
     <use xlink:href="#DejaVuSans-73" x="332.673828"/>
     <use xlink:href="#DejaVuSans-65" x="384.773438"/>
     <use xlink:href="#DejaVuSans-33" x="446.296875"/>
     <use xlink:href="#DejaVuSans-5f" x="509.919922"/>
     <use xlink:href="#DejaVuSans-66" x="559.919922"/>
     <use xlink:href="#DejaVuSans-75" x="595.125"/>
     <use xlink:href="#DejaVuSans-6c" x="658.503906"/>
     <use xlink:href="#DejaVuSans-6c" x="686.287109"/>
     <use xlink:href="#DejaVuSans-5f" x="714.070312"/>
     <use xlink:href="#DejaVuSans-32" x="764.070312"/>
     <use xlink:href="#DejaVuSans-30" x="827.693359"/>
     <use xlink:href="#DejaVuSans-30" x="891.316406"/>
     <use xlink:href="#DejaVuSans-30" x="954.939453"/>
    </g>
   </g>
   <g id="line2d_71">
    <path d="M 988.022391 526.996266 
L 1011.122391 526.996266 
L 1034.222391 526.996266 
" style="fill: none; stroke: #937860; stroke-opacity: 0.9; stroke-width: 3; stroke-linecap: round"/>
   </g>
   <g id="text_35">
    <!-- exiobase3_full_2010 -->
    <g style="fill: #262626" transform="translate(1052.702391 535.081266) scale(0.231 -0.231)">
     <use xlink:href="#DejaVuSans-65"/>
     <use xlink:href="#DejaVuSans-78" x="59.773438"/>
     <use xlink:href="#DejaVuSans-69" x="118.953125"/>
     <use xlink:href="#DejaVuSans-6f" x="146.736328"/>
     <use xlink:href="#DejaVuSans-62" x="207.917969"/>
     <use xlink:href="#DejaVuSans-61" x="271.394531"/>
     <use xlink:href="#DejaVuSans-73" x="332.673828"/>
     <use xlink:href="#DejaVuSans-65" x="384.773438"/>
     <use xlink:href="#DejaVuSans-33" x="446.296875"/>
     <use xlink:href="#DejaVuSans-5f" x="509.919922"/>
     <use xlink:href="#DejaVuSans-66" x="559.919922"/>
     <use xlink:href="#DejaVuSans-75" x="595.125"/>
     <use xlink:href="#DejaVuSans-6c" x="658.503906"/>
     <use xlink:href="#DejaVuSans-6c" x="686.287109"/>
     <use xlink:href="#DejaVuSans-5f" x="714.070312"/>
     <use xlink:href="#DejaVuSans-32" x="764.070312"/>
     <use xlink:href="#DejaVuSans-30" x="827.693359"/>
     <use xlink:href="#DejaVuSans-31" x="891.316406"/>
     <use xlink:href="#DejaVuSans-30" x="954.939453"/>
    </g>
   </g>
  </g>
 </g>
 <defs>
  <clipPath id="p18ad1bc229">
   <rect x="142.032503" y="81.456" width="301.677203" height="115.094453"/>
  </clipPath>
  <clipPath id="p0bfb3401f7">
   <rect x="470.482436" y="81.456" width="301.677203" height="115.094453"/>
  </clipPath>
  <clipPath id="p4d83a87ffb">
   <rect x="798.93237" y="81.456" width="301.677203" height="115.094453"/>
  </clipPath>
  <clipPath id="pede50191cf">
   <rect x="142.032503" y="258.189547" width="301.677203" height="115.094453"/>
  </clipPath>
  <clipPath id="p202811b363">
   <rect x="470.482436" y="258.189547" width="301.677203" height="115.094453"/>
  </clipPath>
  <clipPath id="p944e8f5ba9">
   <rect x="798.93237" y="258.189547" width="301.677203" height="115.094453"/>
  </clipPath>
 </defs>
</svg>
