<?xml version="1.0" encoding="utf-8" standalone="no"?>
<!DOCTYPE svg PUBLIC "-//W3C//DTD SVG 1.1//EN"
  "http://www.w3.org/Graphics/SVG/1.1/DTD/svg11.dtd">
<svg xmlns:xlink="http://www.w3.org/1999/xlink" width="1304.437547pt" height="591.51675pt" viewBox="0 0 1304.437547 591.51675" xmlns="http://www.w3.org/2000/svg" version="1.1">
 <metadata>
  <rdf:RDF xmlns:dc="http://purl.org/dc/elements/1.1/" xmlns:cc="http://creativecommons.org/ns#" xmlns:rdf="http://www.w3.org/1999/02/22-rdf-syntax-ns#">
   <cc:Work>
    <dc:type rdf:resource="http://purl.org/dc/dcmitype/StillImage"/>
    <dc:date>2023-04-28T12:08:41.020718</dc:date>
    <dc:format>image/svg+xml</dc:format>
    <dc:creator>
     <cc:Agent>
      <dc:title>Matplotlib v3.7.1, https://matplotlib.org/</dc:title>
     </cc:Agent>
    </dc:creator>
   </cc:Work>
  </rdf:RDF>
 </metadata>
 <defs>
  <style type="text/css">*{stroke-linejoin: round; stroke-linecap: butt}</style>
 </defs>
 <g id="figure_1">
  <g id="patch_1">
   <path d="M 0 591.51675 
L 1304.437547 591.51675 
L 1304.437547 -0 
L 0 -0 
z
" style="fill: #ffffff"/>
  </g>
  <g id="axes_1">
   <g id="patch_2">
    <path d="M 170.340091 200.970099 
L 462.70916 200.970099 
L 462.70916 81.456 
L 170.340091 81.456 
z
" style="fill: #eaeaf2"/>
   </g>
   <g id="matplotlib.axis_1">
    <g id="xtick_1">
     <g id="line2d_1">
      <path d="M 183.629594 200.970099 
L 183.629594 81.456 
" clip-path="url(#p71a5001a25)" style="fill: none; stroke: #ffffff; stroke-linecap: round"/>
     </g>
    </g>
    <g id="xtick_2">
     <g id="line2d_2">
      <path d="M 274.77845 200.970099 
L 274.77845 81.456 
" clip-path="url(#p71a5001a25)" style="fill: none; stroke: #ffffff; stroke-linecap: round"/>
     </g>
    </g>
    <g id="xtick_3">
     <g id="line2d_3">
      <path d="M 365.927305 200.970099 
L 365.927305 81.456 
" clip-path="url(#p71a5001a25)" style="fill: none; stroke: #ffffff; stroke-linecap: round"/>
     </g>
    </g>
    <g id="xtick_4">
     <g id="line2d_4">
      <path d="M 457.076161 200.970099 
L 457.076161 81.456 
" clip-path="url(#p71a5001a25)" style="fill: none; stroke: #ffffff; stroke-linecap: round"/>
     </g>
    </g>
   </g>
   <g id="matplotlib.axis_2">
    <g id="ytick_1">
     <g id="line2d_5">
      <path d="M 170.340091 187.250447 
L 462.70916 187.250447 
" clip-path="url(#p71a5001a25)" style="fill: none; stroke: #ffffff; stroke-linecap: round"/>
     </g>
     <g id="text_1">
      <!-- −0.5 -->
      <g style="fill: #262626" transform="translate(104.746794 196.026642) scale(0.231 -0.231)">
       <defs>
        <path id="DejaVuSans-2212" d="M 678 2272 
L 4684 2272 
L 4684 1741 
L 678 1741 
L 678 2272 
z
" transform="scale(0.015625)"/>
        <path id="DejaVuSans-30" d="M 2034 4250 
Q 1547 4250 1301 3770 
Q 1056 3291 1056 2328 
Q 1056 1369 1301 889 
Q 1547 409 2034 409 
Q 2525 409 2770 889 
Q 3016 1369 3016 2328 
Q 3016 3291 2770 3770 
Q 2525 4250 2034 4250 
z
M 2034 4750 
Q 2819 4750 3233 4129 
Q 3647 3509 3647 2328 
Q 3647 1150 3233 529 
Q 2819 -91 2034 -91 
Q 1250 -91 836 529 
Q 422 1150 422 2328 
Q 422 3509 836 4129 
Q 1250 4750 2034 4750 
z
" transform="scale(0.015625)"/>
        <path id="DejaVuSans-2e" d="M 684 794 
L 1344 794 
L 1344 0 
L 684 0 
L 684 794 
z
" transform="scale(0.015625)"/>
        <path id="DejaVuSans-35" d="M 691 4666 
L 3169 4666 
L 3169 4134 
L 1269 4134 
L 1269 2991 
Q 1406 3038 1543 3061 
Q 1681 3084 1819 3084 
Q 2600 3084 3056 2656 
Q 3513 2228 3513 1497 
Q 3513 744 3044 326 
Q 2575 -91 1722 -91 
Q 1428 -91 1123 -41 
Q 819 9 494 109 
L 494 744 
Q 775 591 1075 516 
Q 1375 441 1709 441 
Q 2250 441 2565 725 
Q 2881 1009 2881 1497 
Q 2881 1984 2565 2268 
Q 2250 2553 1709 2553 
Q 1456 2553 1204 2497 
Q 953 2441 691 2322 
L 691 4666 
z
" transform="scale(0.015625)"/>
       </defs>
       <use xlink:href="#DejaVuSans-2212"/>
       <use xlink:href="#DejaVuSans-30" x="83.789062"/>
       <use xlink:href="#DejaVuSans-2e" x="147.412109"/>
       <use xlink:href="#DejaVuSans-35" x="179.199219"/>
      </g>
     </g>
    </g>
    <g id="ytick_2">
     <g id="line2d_6">
      <path d="M 170.340091 106.643632 
L 462.70916 106.643632 
" clip-path="url(#p71a5001a25)" style="fill: none; stroke: #ffffff; stroke-linecap: round"/>
     </g>
     <g id="text_2">
      <!-- 0.0 -->
      <g style="fill: #262626" transform="translate(124.103872 115.419827) scale(0.231 -0.231)">
       <use xlink:href="#DejaVuSans-30"/>
       <use xlink:href="#DejaVuSans-2e" x="63.623047"/>
       <use xlink:href="#DejaVuSans-30" x="95.410156"/>
      </g>
     </g>
    </g>
    <g id="text_3">
     <!-- % change -->
     <g style="fill: #262626" transform="translate(95.505982 203.561393) rotate(-90) scale(0.252 -0.252)">
      <defs>
       <path id="DejaVuSans-25" d="M 4653 2053 
Q 4381 2053 4226 1822 
Q 4072 1591 4072 1178 
Q 4072 772 4226 539 
Q 4381 306 4653 306 
Q 4919 306 5073 539 
Q 5228 772 5228 1178 
Q 5228 1588 5073 1820 
Q 4919 2053 4653 2053 
z
M 4653 2450 
Q 5147 2450 5437 2106 
Q 5728 1763 5728 1178 
Q 5728 594 5436 251 
Q 5144 -91 4653 -91 
Q 4153 -91 3862 251 
Q 3572 594 3572 1178 
Q 3572 1766 3864 2108 
Q 4156 2450 4653 2450 
z
M 1428 4353 
Q 1159 4353 1004 4120 
Q 850 3888 850 3481 
Q 850 3069 1003 2837 
Q 1156 2606 1428 2606 
Q 1700 2606 1854 2837 
Q 2009 3069 2009 3481 
Q 2009 3884 1853 4118 
Q 1697 4353 1428 4353 
z
M 4250 4750 
L 4750 4750 
L 1831 -91 
L 1331 -91 
L 4250 4750 
z
M 1428 4750 
Q 1922 4750 2215 4408 
Q 2509 4066 2509 3481 
Q 2509 2891 2217 2550 
Q 1925 2209 1428 2209 
Q 931 2209 642 2551 
Q 353 2894 353 3481 
Q 353 4063 643 4406 
Q 934 4750 1428 4750 
z
" transform="scale(0.015625)"/>
       <path id="DejaVuSans-20" transform="scale(0.015625)"/>
       <path id="DejaVuSans-63" d="M 3122 3366 
L 3122 2828 
Q 2878 2963 2633 3030 
Q 2388 3097 2138 3097 
Q 1578 3097 1268 2742 
Q 959 2388 959 1747 
Q 959 1106 1268 751 
Q 1578 397 2138 397 
Q 2388 397 2633 464 
Q 2878 531 3122 666 
L 3122 134 
Q 2881 22 2623 -34 
Q 2366 -91 2075 -91 
Q 1284 -91 818 406 
Q 353 903 353 1747 
Q 353 2603 823 3093 
Q 1294 3584 2113 3584 
Q 2378 3584 2631 3529 
Q 2884 3475 3122 3366 
z
" transform="scale(0.015625)"/>
       <path id="DejaVuSans-68" d="M 3513 2113 
L 3513 0 
L 2938 0 
L 2938 2094 
Q 2938 2591 2744 2837 
Q 2550 3084 2163 3084 
Q 1697 3084 1428 2787 
Q 1159 2491 1159 1978 
L 1159 0 
L 581 0 
L 581 4863 
L 1159 4863 
L 1159 2956 
Q 1366 3272 1645 3428 
Q 1925 3584 2291 3584 
Q 2894 3584 3203 3211 
Q 3513 2838 3513 2113 
z
" transform="scale(0.015625)"/>
       <path id="DejaVuSans-61" d="M 2194 1759 
Q 1497 1759 1228 1600 
Q 959 1441 959 1056 
Q 959 750 1161 570 
Q 1363 391 1709 391 
Q 2188 391 2477 730 
Q 2766 1069 2766 1631 
L 2766 1759 
L 2194 1759 
z
M 3341 1997 
L 3341 0 
L 2766 0 
L 2766 531 
Q 2569 213 2275 61 
Q 1981 -91 1556 -91 
Q 1019 -91 701 211 
Q 384 513 384 1019 
Q 384 1609 779 1909 
Q 1175 2209 1959 2209 
L 2766 2209 
L 2766 2266 
Q 2766 2663 2505 2880 
Q 2244 3097 1772 3097 
Q 1472 3097 1187 3025 
Q 903 2953 641 2809 
L 641 3341 
Q 956 3463 1253 3523 
Q 1550 3584 1831 3584 
Q 2591 3584 2966 3190 
Q 3341 2797 3341 1997 
z
" transform="scale(0.015625)"/>
       <path id="DejaVuSans-6e" d="M 3513 2113 
L 3513 0 
L 2938 0 
L 2938 2094 
Q 2938 2591 2744 2837 
Q 2550 3084 2163 3084 
Q 1697 3084 1428 2787 
Q 1159 2491 1159 1978 
L 1159 0 
L 581 0 
L 581 3500 
L 1159 3500 
L 1159 2956 
Q 1366 3272 1645 3428 
Q 1925 3584 2291 3584 
Q 2894 3584 3203 3211 
Q 3513 2838 3513 2113 
z
" transform="scale(0.015625)"/>
       <path id="DejaVuSans-67" d="M 2906 1791 
Q 2906 2416 2648 2759 
Q 2391 3103 1925 3103 
Q 1463 3103 1205 2759 
Q 947 2416 947 1791 
Q 947 1169 1205 825 
Q 1463 481 1925 481 
Q 2391 481 2648 825 
Q 2906 1169 2906 1791 
z
M 3481 434 
Q 3481 -459 3084 -895 
Q 2688 -1331 1869 -1331 
Q 1566 -1331 1297 -1286 
Q 1028 -1241 775 -1147 
L 775 -588 
Q 1028 -725 1275 -790 
Q 1522 -856 1778 -856 
Q 2344 -856 2625 -561 
Q 2906 -266 2906 331 
L 2906 616 
Q 2728 306 2450 153 
Q 2172 0 1784 0 
Q 1141 0 747 490 
Q 353 981 353 1791 
Q 353 2603 747 3093 
Q 1141 3584 1784 3584 
Q 2172 3584 2450 3431 
Q 2728 3278 2906 2969 
L 2906 3500 
L 3481 3500 
L 3481 434 
z
" transform="scale(0.015625)"/>
       <path id="DejaVuSans-65" d="M 3597 1894 
L 3597 1613 
L 953 1613 
Q 991 1019 1311 708 
Q 1631 397 2203 397 
Q 2534 397 2845 478 
Q 3156 559 3463 722 
L 3463 178 
Q 3153 47 2828 -22 
Q 2503 -91 2169 -91 
Q 1331 -91 842 396 
Q 353 884 353 1716 
Q 353 2575 817 3079 
Q 1281 3584 2069 3584 
Q 2775 3584 3186 3129 
Q 3597 2675 3597 1894 
z
M 3022 2063 
Q 3016 2534 2758 2815 
Q 2500 3097 2075 3097 
Q 1594 3097 1305 2825 
Q 1016 2553 972 2059 
L 3022 2063 
z
" transform="scale(0.015625)"/>
      </defs>
      <use xlink:href="#DejaVuSans-25"/>
      <use xlink:href="#DejaVuSans-20" x="95.019531"/>
      <use xlink:href="#DejaVuSans-63" x="126.806641"/>
      <use xlink:href="#DejaVuSans-68" x="181.787109"/>
      <use xlink:href="#DejaVuSans-61" x="245.166016"/>
      <use xlink:href="#DejaVuSans-6e" x="306.445312"/>
      <use xlink:href="#DejaVuSans-67" x="369.824219"/>
      <use xlink:href="#DejaVuSans-65" x="433.300781"/>
     </g>
    </g>
   </g>
   <g id="PolyCollection_1"/>
   <g id="PolyCollection_2"/>
   <g id="PolyCollection_3"/>
   <g id="PolyCollection_4"/>
   <g id="PolyCollection_5"/>
   <g id="PolyCollection_6"/>
   <g id="line2d_7">
    <path d="M 183.629594 106.643632 
L 196.755029 110.896038 
L 204.046938 112.919743 
L 211.338846 114.710653 
L 218.630755 116.272844 
L 225.922663 117.612336 
L 233.579167 118.791098 
L 241.235671 119.744311 
L 248.892175 120.480055 
L 256.913274 121.026928 
L 264.934373 121.354698 
L 273.320068 121.474175 
L 282.070358 121.367867 
L 290.820648 121.038774 
L 299.935534 120.473298 
L 309.415015 119.659645 
L 319.259091 118.588661 
L 329.467763 117.254042 
L 340.405626 115.593497 
L 351.708084 113.651862 
L 364.104328 111.291147 
L 383.792481 107.274212 
L 409.314161 101.847825 
L 449.419657 93.162153 
L 449.419657 93.162153 
" clip-path="url(#p71a5001a25)" style="fill: none; stroke: #4c72b0; stroke-opacity: 0.9; stroke-width: 3; stroke-linecap: round"/>
   </g>
   <g id="line2d_8">
    <path d="M 183.629594 106.643632 
L 198.942602 111.471839 
L 206.599106 113.527814 
L 214.620205 115.445996 
L 222.641304 117.129124 
L 230.662404 118.58369 
L 239.048098 119.873131 
L 247.433793 120.936064 
L 255.819488 121.781212 
L 264.569778 122.441202 
L 273.684664 122.899505 
L 282.799549 123.136097 
L 292.27903 123.160075 
L 302.123107 122.959227 
L 312.331778 122.522705 
L 322.905046 121.841302 
L 333.842908 120.908209 
L 345.145366 119.719336 
L 357.177015 118.22487 
L 371.031641 116.263937 
L 390.719794 113.256297 
L 411.866329 109.794133 
L 435.929627 105.617939 
L 449.419657 103.232051 
L 449.419657 103.232051 
" clip-path="url(#p71a5001a25)" style="fill: none; stroke: #dd8452; stroke-opacity: 0.9; stroke-width: 3; stroke-linecap: round"/>
   </g>
   <g id="line2d_9">
    <path d="M 183.629594 106.643632 
L 190.921503 109.30554 
L 197.848816 111.623052 
L 204.776129 113.713143 
L 212.068037 115.675049 
L 219.359946 117.403942 
L 227.01645 118.982598 
L 234.672953 120.331405 
L 242.329457 121.459717 
L 250.350557 122.415882 
L 258.371656 123.152447 
L 266.757351 123.698009 
L 275.143045 124.023427 
L 283.893335 124.139081 
L 293.008221 124.032475 
L 302.487702 123.693796 
L 312.331778 123.1152 
L 322.54045 122.292221 
L 333.478313 121.182429 
L 345.145366 119.772845 
L 358.270802 117.958405 
L 372.490023 115.765653 
L 389.626008 112.890816 
L 417.33526 107.976243 
L 449.419657 102.225642 
L 449.419657 102.225642 
" clip-path="url(#p71a5001a25)" style="fill: none; stroke: #55a868; stroke-opacity: 0.9; stroke-width: 3; stroke-linecap: round"/>
   </g>
   <g id="line2d_10">
    <path d="M 183.629594 106.643632 
L 190.556907 109.097287 
L 197.848816 111.470739 
L 205.140724 113.601385 
L 212.432633 115.497338 
L 219.724541 117.171163 
L 227.381045 118.703924 
L 235.76674 120.147323 
L 244.152434 121.356572 
L 252.538129 122.339128 
L 260.923824 123.101967 
L 269.309519 123.649189 
L 278.059809 123.99552 
L 286.810099 124.119725 
L 295.924984 124.024612 
L 305.404465 123.701727 
L 315.248542 123.145799 
L 325.821809 122.324923 
L 337.488863 121.188138 
L 350.249702 119.714209 
L 363.739733 117.927635 
L 379.052741 115.665774 
L 404.939016 111.575524 
L 442.492344 105.390776 
L 449.419657 104.24855 
L 449.419657 104.24855 
" clip-path="url(#p71a5001a25)" style="fill: none; stroke: #c44e52; stroke-opacity: 0.9; stroke-width: 3; stroke-linecap: round"/>
   </g>
   <g id="line2d_11">
    <path d="M 183.629594 106.643632 
L 198.578007 111.681437 
L 205.50532 113.649958 
L 212.432633 115.384321 
L 219.359946 116.892686 
L 226.651854 118.249757 
L 233.943763 119.375657 
L 241.235671 120.275883 
L 248.527579 120.956513 
L 256.184083 121.442082 
L 263.840587 121.700838 
L 271.497091 121.7424 
L 279.51819 121.562437 
L 287.53929 121.163601 
L 295.924984 120.524364 
L 304.675275 119.627701 
L 313.425565 118.510048 
L 322.54045 117.126188 
L 332.019931 115.466729 
L 342.228603 113.449787 
L 352.80187 111.134178 
L 364.104328 108.433294 
L 382.334099 103.789582 
L 434.106649 90.529594 
L 449.419657 86.888459 
L 449.419657 86.888459 
" clip-path="url(#p71a5001a25)" style="fill: none; stroke: #8172b3; stroke-opacity: 0.9; stroke-width: 3; stroke-linecap: round"/>
   </g>
   <g id="line2d_12">
    <path d="M 183.629594 106.643632 
L 198.578007 111.555429 
L 205.869915 113.599122 
L 213.161823 115.412283 
L 220.453732 117.001985 
L 228.110236 118.442539 
L 235.76674 119.655779 
L 243.423244 120.647906 
L 251.444343 121.457517 
L 259.465442 122.039877 
L 267.486541 122.403188 
L 275.872236 122.558795 
L 284.257931 122.496316 
L 293.008221 122.209537 
L 302.123107 121.682354 
L 311.237992 120.934947 
L 320.717473 119.9385 
L 330.56155 118.683656 
L 341.134817 117.106076 
L 352.072679 115.246747 
L 363.739733 113.036043 
L 380.511122 109.588731 
L 411.501733 102.962443 
L 444.679917 95.903778 
L 449.419657 94.953111 
L 449.419657 94.953111 
" clip-path="url(#p71a5001a25)" style="fill: none; stroke: #937860; stroke-opacity: 0.9; stroke-width: 3; stroke-linecap: round"/>
   </g>
   <g id="patch_3">
    <path d="M 170.340091 200.970099 
L 170.340091 81.456 
" style="fill: none; stroke: #ffffff; stroke-width: 1.25; stroke-linejoin: miter; stroke-linecap: square"/>
   </g>
   <g id="patch_4">
    <path d="M 170.340091 200.970099 
L 462.70916 200.970099 
" style="fill: none; stroke: #ffffff; stroke-width: 1.25; stroke-linejoin: miter; stroke-linecap: square"/>
   </g>
   <g id="text_4">
    <!-- 0.8~90 -->
    <g style="fill: #262626" transform="translate(269.894782 75.456) scale(0.252 -0.252)">
     <defs>
      <path id="DejaVuSans-38" d="M 2034 2216 
Q 1584 2216 1326 1975 
Q 1069 1734 1069 1313 
Q 1069 891 1326 650 
Q 1584 409 2034 409 
Q 2484 409 2743 651 
Q 3003 894 3003 1313 
Q 3003 1734 2745 1975 
Q 2488 2216 2034 2216 
z
M 1403 2484 
Q 997 2584 770 2862 
Q 544 3141 544 3541 
Q 544 4100 942 4425 
Q 1341 4750 2034 4750 
Q 2731 4750 3128 4425 
Q 3525 4100 3525 3541 
Q 3525 3141 3298 2862 
Q 3072 2584 2669 2484 
Q 3125 2378 3379 2068 
Q 3634 1759 3634 1313 
Q 3634 634 3220 271 
Q 2806 -91 2034 -91 
Q 1263 -91 848 271 
Q 434 634 434 1313 
Q 434 1759 690 2068 
Q 947 2378 1403 2484 
z
M 1172 3481 
Q 1172 3119 1398 2916 
Q 1625 2713 2034 2713 
Q 2441 2713 2670 2916 
Q 2900 3119 2900 3481 
Q 2900 3844 2670 4047 
Q 2441 4250 2034 4250 
Q 1625 4250 1398 4047 
Q 1172 3844 1172 3481 
z
" transform="scale(0.015625)"/>
      <path id="DejaVuSans-7e" d="M 4684 2553 
L 4684 1997 
Q 4356 1750 4076 1644 
Q 3797 1538 3494 1538 
Q 3150 1538 2694 1722 
Q 2659 1734 2644 1741 
Q 2622 1750 2575 1766 
Q 2091 1959 1797 1959 
Q 1522 1959 1253 1839 
Q 984 1719 678 1459 
L 678 2016 
Q 1006 2263 1286 2370 
Q 1566 2478 1869 2478 
Q 2213 2478 2672 2291 
Q 2703 2278 2719 2272 
Q 2744 2263 2788 2247 
Q 3272 2053 3566 2053 
Q 3834 2053 4098 2172 
Q 4363 2291 4684 2553 
z
" transform="scale(0.015625)"/>
      <path id="DejaVuSans-39" d="M 703 97 
L 703 672 
Q 941 559 1184 500 
Q 1428 441 1663 441 
Q 2288 441 2617 861 
Q 2947 1281 2994 2138 
Q 2813 1869 2534 1725 
Q 2256 1581 1919 1581 
Q 1219 1581 811 2004 
Q 403 2428 403 3163 
Q 403 3881 828 4315 
Q 1253 4750 1959 4750 
Q 2769 4750 3195 4129 
Q 3622 3509 3622 2328 
Q 3622 1225 3098 567 
Q 2575 -91 1691 -91 
Q 1453 -91 1209 -44 
Q 966 3 703 97 
z
M 1959 2075 
Q 2384 2075 2632 2365 
Q 2881 2656 2881 3163 
Q 2881 3666 2632 3958 
Q 2384 4250 1959 4250 
Q 1534 4250 1286 3958 
Q 1038 3666 1038 3163 
Q 1038 2656 1286 2365 
Q 1534 2075 1959 2075 
z
" transform="scale(0.015625)"/>
     </defs>
     <use xlink:href="#DejaVuSans-30"/>
     <use xlink:href="#DejaVuSans-2e" x="63.623047"/>
     <use xlink:href="#DejaVuSans-38" x="95.410156"/>
     <use xlink:href="#DejaVuSans-7e" x="159.033203"/>
     <use xlink:href="#DejaVuSans-39" x="242.822266"/>
     <use xlink:href="#DejaVuSans-30" x="306.445312"/>
    </g>
   </g>
  </g>
  <g id="axes_2">
   <g id="patch_5">
    <path d="M 489.290298 200.970099 
L 781.659367 200.970099 
L 781.659367 81.456 
L 489.290298 81.456 
z
" style="fill: #eaeaf2"/>
   </g>
   <g id="matplotlib.axis_3">
    <g id="xtick_5">
     <g id="line2d_13">
      <path d="M 502.579801 200.970099 
L 502.579801 81.456 
" clip-path="url(#p2a739c684a)" style="fill: none; stroke: #ffffff; stroke-linecap: round"/>
     </g>
    </g>
    <g id="xtick_6">
     <g id="line2d_14">
      <path d="M 593.728656 200.970099 
L 593.728656 81.456 
" clip-path="url(#p2a739c684a)" style="fill: none; stroke: #ffffff; stroke-linecap: round"/>
     </g>
    </g>
    <g id="xtick_7">
     <g id="line2d_15">
      <path d="M 684.877512 200.970099 
L 684.877512 81.456 
" clip-path="url(#p2a739c684a)" style="fill: none; stroke: #ffffff; stroke-linecap: round"/>
     </g>
    </g>
    <g id="xtick_8">
     <g id="line2d_16">
      <path d="M 776.026368 200.970099 
L 776.026368 81.456 
" clip-path="url(#p2a739c684a)" style="fill: none; stroke: #ffffff; stroke-linecap: round"/>
     </g>
    </g>
   </g>
   <g id="matplotlib.axis_4">
    <g id="ytick_3">
     <g id="line2d_17">
      <path d="M 489.290298 187.250447 
L 781.659367 187.250447 
" clip-path="url(#p2a739c684a)" style="fill: none; stroke: #ffffff; stroke-linecap: round"/>
     </g>
    </g>
    <g id="ytick_4">
     <g id="line2d_18">
      <path d="M 489.290298 106.643632 
L 781.659367 106.643632 
" clip-path="url(#p2a739c684a)" style="fill: none; stroke: #ffffff; stroke-linecap: round"/>
     </g>
    </g>
   </g>
   <g id="PolyCollection_7"/>
   <g id="PolyCollection_8"/>
   <g id="PolyCollection_9"/>
   <g id="PolyCollection_10"/>
   <g id="PolyCollection_11"/>
   <g id="PolyCollection_12"/>
   <g id="line2d_19">
    <path d="M 502.579801 106.643632 
L 522.997144 113.306541 
L 533.935007 116.514129 
L 544.87287 119.485753 
L 555.810732 122.227942 
L 567.113191 124.827438 
L 578.415649 127.196741 
L 590.082702 129.409564 
L 601.749756 131.395111 
L 613.781405 133.216662 
L 626.177649 134.869204 
L 638.938489 136.344727 
L 652.063924 137.636068 
L 665.553955 138.737161 
L 679.408581 139.643111 
L 693.627802 140.350232 
L 708.211619 140.855933 
L 723.524627 141.163401 
L 739.20223 141.257329 
L 755.609024 141.133761 
L 768.369864 140.891916 
L 768.369864 140.891916 
" clip-path="url(#p2a739c684a)" style="fill: none; stroke: #4c72b0; stroke-opacity: 0.9; stroke-width: 3; stroke-linecap: round"/>
   </g>
   <g id="line2d_20">
    <path d="M 502.579801 106.643632 
L 526.278503 114.171358 
L 537.580961 117.370677 
L 548.883419 120.337765 
L 560.550473 123.168065 
L 572.217526 125.769992 
L 584.249175 128.222249 
L 596.280824 130.449272 
L 608.677069 132.518129 
L 621.437908 134.419714 
L 634.563344 136.150074 
L 648.053374 137.705629 
L 661.908 139.081176 
L 676.127222 140.272542 
L 691.075634 141.299029 
L 706.388642 142.125828 
L 722.430841 142.764278 
L 738.837635 143.192801 
L 755.973619 143.415609 
L 768.369864 143.443372 
L 768.369864 143.443372 
" clip-path="url(#p2a739c684a)" style="fill: none; stroke: #dd8452; stroke-opacity: 0.9; stroke-width: 3; stroke-linecap: round"/>
   </g>
   <g id="line2d_21">
    <path d="M 502.579801 106.643632 
L 507.684137 108.540482 
L 517.528213 112.061003 
L 528.10148 115.608111 
L 538.674748 118.917288 
L 549.248015 121.993352 
L 559.821282 124.842375 
L 571.488336 127.747143 
L 583.519985 130.514143 
L 595.551633 133.051955 
L 607.583282 135.35731 
L 619.250336 137.3694 
L 630.917389 139.160708 
L 642.584443 140.7321 
L 654.616092 142.123676 
L 667.376932 143.363598 
L 680.866962 144.455136 
L 695.086184 145.379316 
L 709.670001 146.101955 
L 724.618413 146.621015 
L 740.296016 146.940459 
L 756.70281 147.047754 
L 768.369864 146.993779 
L 768.369864 146.993779 
" clip-path="url(#p2a739c684a)" style="fill: none; stroke: #55a868; stroke-opacity: 0.9; stroke-width: 3; stroke-linecap: round"/>
   </g>
   <g id="line2d_22">
    <path d="M 502.579801 106.643632 
L 507.684137 108.479836 
L 517.892809 112.016602 
L 528.466076 115.450521 
L 539.039343 118.655363 
L 550.706397 121.953147 
L 562.738045 125.130469 
L 575.13429 128.164557 
L 587.530534 130.969785 
L 600.291374 133.628192 
L 612.687618 135.983236 
L 624.354672 137.97873 
L 636.021725 139.747176 
L 647.688779 141.288159 
L 659.720428 142.647462 
L 672.116672 143.819196 
L 685.242107 144.834051 
L 699.096733 145.676779 
L 713.68055 146.340883 
L 729.358154 146.827083 
L 745.400352 147.100772 
L 762.171742 147.164514 
L 768.369864 147.134613 
L 768.369864 147.134613 
" clip-path="url(#p2a739c684a)" style="fill: none; stroke: #c44e52; stroke-opacity: 0.9; stroke-width: 3; stroke-linecap: round"/>
   </g>
   <g id="line2d_23">
    <path d="M 502.579801 106.643632 
L 510.965495 109.646356 
L 521.174167 113.109226 
L 531.382839 116.338362 
L 541.591511 119.339045 
L 552.164778 122.211786 
L 562.738045 124.852795 
L 573.311313 127.268738 
L 584.249175 129.538042 
L 595.187038 131.58232 
L 606.489496 133.468165 
L 618.15655 135.186731 
L 630.188199 136.728722 
L 642.219848 138.046901 
L 654.616092 139.181806 
L 667.376932 140.125021 
L 680.502367 140.869387 
L 693.992398 141.408892 
L 707.847024 141.738833 
L 722.066245 141.856106 
L 737.014657 141.75475 
L 752.327665 141.428373 
L 768.369864 140.862739 
L 768.369864 140.862739 
" clip-path="url(#p2a739c684a)" style="fill: none; stroke: #8172b3; stroke-opacity: 0.9; stroke-width: 3; stroke-linecap: round"/>
   </g>
   <g id="line2d_24">
    <path d="M 502.579801 106.643632 
L 527.372289 114.862751 
L 537.945557 117.988848 
L 548.883419 120.987999 
L 559.821282 123.754524 
L 570.759145 126.295485 
L 582.061603 128.69312 
L 593.728656 130.934968 
L 605.39571 132.949248 
L 617.427359 134.799533 
L 629.823603 136.479122 
L 642.584443 137.978815 
L 655.345283 139.256964 
L 668.470718 140.35222 
L 681.960749 141.25847 
L 695.815375 141.970477 
L 710.399192 142.494585 
L 725.347604 142.807133 
L 741.025207 142.90822 
L 757.067406 142.789173 
L 768.369864 142.579013 
L 768.369864 142.579013 
" clip-path="url(#p2a739c684a)" style="fill: none; stroke: #937860; stroke-opacity: 0.9; stroke-width: 3; stroke-linecap: round"/>
   </g>
   <g id="patch_6">
    <path d="M 489.290298 200.970099 
L 489.290298 81.456 
" style="fill: none; stroke: #ffffff; stroke-width: 1.25; stroke-linejoin: miter; stroke-linecap: square"/>
   </g>
   <g id="patch_7">
    <path d="M 489.290298 200.970099 
L 781.659367 200.970099 
" style="fill: none; stroke: #ffffff; stroke-width: 1.25; stroke-linejoin: miter; stroke-linecap: square"/>
   </g>
   <g id="text_5">
    <!-- 0.8~365 -->
    <g style="fill: #262626" transform="translate(580.828239 75.456) scale(0.252 -0.252)">
     <defs>
      <path id="DejaVuSans-33" d="M 2597 2516 
Q 3050 2419 3304 2112 
Q 3559 1806 3559 1356 
Q 3559 666 3084 287 
Q 2609 -91 1734 -91 
Q 1441 -91 1130 -33 
Q 819 25 488 141 
L 488 750 
Q 750 597 1062 519 
Q 1375 441 1716 441 
Q 2309 441 2620 675 
Q 2931 909 2931 1356 
Q 2931 1769 2642 2001 
Q 2353 2234 1838 2234 
L 1294 2234 
L 1294 2753 
L 1863 2753 
Q 2328 2753 2575 2939 
Q 2822 3125 2822 3475 
Q 2822 3834 2567 4026 
Q 2313 4219 1838 4219 
Q 1578 4219 1281 4162 
Q 984 4106 628 3988 
L 628 4550 
Q 988 4650 1302 4700 
Q 1616 4750 1894 4750 
Q 2613 4750 3031 4423 
Q 3450 4097 3450 3541 
Q 3450 3153 3228 2886 
Q 3006 2619 2597 2516 
z
" transform="scale(0.015625)"/>
      <path id="DejaVuSans-36" d="M 2113 2584 
Q 1688 2584 1439 2293 
Q 1191 2003 1191 1497 
Q 1191 994 1439 701 
Q 1688 409 2113 409 
Q 2538 409 2786 701 
Q 3034 994 3034 1497 
Q 3034 2003 2786 2293 
Q 2538 2584 2113 2584 
z
M 3366 4563 
L 3366 3988 
Q 3128 4100 2886 4159 
Q 2644 4219 2406 4219 
Q 1781 4219 1451 3797 
Q 1122 3375 1075 2522 
Q 1259 2794 1537 2939 
Q 1816 3084 2150 3084 
Q 2853 3084 3261 2657 
Q 3669 2231 3669 1497 
Q 3669 778 3244 343 
Q 2819 -91 2113 -91 
Q 1303 -91 875 529 
Q 447 1150 447 2328 
Q 447 3434 972 4092 
Q 1497 4750 2381 4750 
Q 2619 4750 2861 4703 
Q 3103 4656 3366 4563 
z
" transform="scale(0.015625)"/>
     </defs>
     <use xlink:href="#DejaVuSans-30"/>
     <use xlink:href="#DejaVuSans-2e" x="63.623047"/>
     <use xlink:href="#DejaVuSans-38" x="95.410156"/>
     <use xlink:href="#DejaVuSans-7e" x="159.033203"/>
     <use xlink:href="#DejaVuSans-33" x="242.822266"/>
     <use xlink:href="#DejaVuSans-36" x="306.445312"/>
     <use xlink:href="#DejaVuSans-35" x="370.068359"/>
    </g>
   </g>
  </g>
  <g id="axes_3">
   <g id="patch_8">
    <path d="M 808.240504 200.970099 
L 1100.609573 200.970099 
L 1100.609573 81.456 
L 808.240504 81.456 
z
" style="fill: #eaeaf2"/>
   </g>
   <g id="matplotlib.axis_5">
    <g id="xtick_9">
     <g id="line2d_25">
      <path d="M 821.530007 200.970099 
L 821.530007 81.456 
" clip-path="url(#pdbac5a9fc6)" style="fill: none; stroke: #ffffff; stroke-linecap: round"/>
     </g>
    </g>
    <g id="xtick_10">
     <g id="line2d_26">
      <path d="M 912.678863 200.970099 
L 912.678863 81.456 
" clip-path="url(#pdbac5a9fc6)" style="fill: none; stroke: #ffffff; stroke-linecap: round"/>
     </g>
    </g>
    <g id="xtick_11">
     <g id="line2d_27">
      <path d="M 1003.827719 200.970099 
L 1003.827719 81.456 
" clip-path="url(#pdbac5a9fc6)" style="fill: none; stroke: #ffffff; stroke-linecap: round"/>
     </g>
    </g>
    <g id="xtick_12">
     <g id="line2d_28">
      <path d="M 1094.976574 200.970099 
L 1094.976574 81.456 
" clip-path="url(#pdbac5a9fc6)" style="fill: none; stroke: #ffffff; stroke-linecap: round"/>
     </g>
    </g>
   </g>
   <g id="matplotlib.axis_6">
    <g id="ytick_5">
     <g id="line2d_29">
      <path d="M 808.240504 187.250447 
L 1100.609573 187.250447 
" clip-path="url(#pdbac5a9fc6)" style="fill: none; stroke: #ffffff; stroke-linecap: round"/>
     </g>
    </g>
    <g id="ytick_6">
     <g id="line2d_30">
      <path d="M 808.240504 106.643632 
L 1100.609573 106.643632 
" clip-path="url(#pdbac5a9fc6)" style="fill: none; stroke: #ffffff; stroke-linecap: round"/>
     </g>
    </g>
   </g>
   <g id="PolyCollection_13"/>
   <g id="PolyCollection_14"/>
   <g id="PolyCollection_15"/>
   <g id="PolyCollection_16"/>
   <g id="PolyCollection_17"/>
   <g id="PolyCollection_18"/>
   <g id="line2d_31">
    <path d="M 821.530007 106.643632 
L 834.655442 110.896038 
L 841.947351 112.919743 
L 849.239259 114.710653 
L 856.531168 116.272844 
L 863.823076 117.612336 
L 871.47958 118.791098 
L 879.136084 119.744311 
L 886.792588 120.480055 
L 894.813687 121.026928 
L 902.834787 121.354698 
L 911.220481 121.474175 
L 919.970771 121.367867 
L 928.721062 121.038774 
L 937.835947 120.473298 
L 947.315428 119.659645 
L 957.159504 118.588661 
L 967.368176 117.254042 
L 978.306039 115.593497 
L 989.608497 113.651862 
L 1002.004741 111.291147 
L 1021.692894 107.274212 
L 1047.214574 101.847825 
L 1087.32007 93.162153 
L 1087.32007 93.162153 
" clip-path="url(#pdbac5a9fc6)" style="fill: none; stroke: #4c72b0; stroke-opacity: 0.9; stroke-width: 3; stroke-linecap: round"/>
   </g>
   <g id="line2d_32">
    <path d="M 821.530007 106.643632 
L 836.843015 111.471839 
L 844.499519 113.527814 
L 852.520618 115.445996 
L 860.541717 117.129124 
L 868.562817 118.58369 
L 876.948512 119.873131 
L 885.334206 120.936064 
L 893.719901 121.781212 
L 902.470191 122.441202 
L 911.585077 122.899505 
L 920.699962 123.136097 
L 930.179443 123.160075 
L 940.02352 122.959227 
L 950.232191 122.522705 
L 960.805459 121.841302 
L 971.743321 120.908209 
L 983.045779 119.719336 
L 995.077428 118.22487 
L 1008.932054 116.263937 
L 1028.620207 113.256297 
L 1049.766742 109.794133 
L 1073.83004 105.617939 
L 1087.32007 103.232051 
L 1087.32007 103.232051 
" clip-path="url(#pdbac5a9fc6)" style="fill: none; stroke: #dd8452; stroke-opacity: 0.9; stroke-width: 3; stroke-linecap: round"/>
   </g>
   <g id="line2d_33">
    <path d="M 821.530007 106.643632 
L 828.821916 109.30554 
L 835.749229 111.623052 
L 842.676542 113.713143 
L 849.96845 115.675049 
L 857.260359 117.403942 
L 864.916863 118.986834 
L 873.302557 120.492935 
L 882.417443 121.901761 
L 891.532328 123.084764 
L 900.647214 124.036091 
L 909.7621 124.759156 
L 918.51239 125.229339 
L 927.26268 125.472839 
L 936.01297 125.485833 
L 944.76326 125.268383 
L 953.51355 124.825797 
L 962.26384 124.163494 
L 971.378726 123.249612 
L 981.587398 121.993386 
L 993.619047 120.278584 
L 1007.838268 118.027423 
L 1024.609658 115.137618 
L 1051.954314 110.162285 
L 1087.32007 103.682313 
L 1087.32007 103.682313 
" clip-path="url(#pdbac5a9fc6)" style="fill: none; stroke: #55a868; stroke-opacity: 0.9; stroke-width: 3; stroke-linecap: round"/>
   </g>
   <g id="line2d_34">
    <path d="M 821.530007 106.643632 
L 828.45732 109.097287 
L 835.749229 111.470739 
L 843.041137 113.601385 
L 850.333046 115.497338 
L 858.354145 117.339618 
L 866.73984 119.036155 
L 875.854725 120.649552 
L 885.334206 122.107303 
L 894.813687 123.340613 
L 904.293168 124.35266 
L 913.408054 125.103103 
L 922.158344 125.60682 
L 930.908634 125.89101 
L 939.658924 125.952539 
L 948.409214 125.792815 
L 957.5241 125.398396 
L 966.638985 124.780253 
L 976.118466 123.912213 
L 986.327138 122.748032 
L 997.994192 121.179123 
L 1011.848818 119.084486 
L 1034.089139 115.455519 
L 1069.81949 109.408412 
L 1087.32007 106.427822 
L 1087.32007 106.427822 
" clip-path="url(#pdbac5a9fc6)" style="fill: none; stroke: #c44e52; stroke-opacity: 0.9; stroke-width: 3; stroke-linecap: round"/>
   </g>
   <g id="line2d_35">
    <path d="M 821.530007 106.643632 
L 836.47842 111.681437 
L 843.405733 113.649958 
L 850.333046 115.384321 
L 857.260359 116.892686 
L 864.552267 118.249757 
L 871.844176 119.375657 
L 879.136084 120.275883 
L 886.427992 120.956513 
L 894.084496 121.442082 
L 901.741 121.700838 
L 909.397504 121.7424 
L 917.418603 121.562437 
L 925.439703 121.163601 
L 933.825397 120.524364 
L 942.575688 119.627701 
L 951.325978 118.510048 
L 960.440863 117.126188 
L 969.920344 115.466729 
L 980.129016 113.449787 
L 990.702283 111.134178 
L 1002.004741 108.433294 
L 1020.234513 103.789582 
L 1072.007063 90.529594 
L 1087.32007 86.888459 
L 1087.32007 86.888459 
" clip-path="url(#pdbac5a9fc6)" style="fill: none; stroke: #8172b3; stroke-opacity: 0.9; stroke-width: 3; stroke-linecap: round"/>
   </g>
   <g id="line2d_36">
    <path d="M 821.530007 106.643632 
L 836.47842 111.555429 
L 843.770328 113.599122 
L 851.062237 115.412283 
L 858.354145 117.001985 
L 866.010649 118.442539 
L 873.667153 119.655779 
L 881.323657 120.647906 
L 889.344756 121.457517 
L 897.365855 122.039877 
L 905.386954 122.403188 
L 913.772649 122.558795 
L 922.158344 122.496316 
L 930.908634 122.209537 
L 940.02352 121.682354 
L 949.138405 120.934947 
L 958.617886 119.9385 
L 968.461963 118.683656 
L 979.03523 117.106076 
L 989.973092 115.246747 
L 1001.640146 113.036043 
L 1018.411535 109.588731 
L 1049.402146 102.962443 
L 1082.58033 95.903778 
L 1087.32007 94.953111 
L 1087.32007 94.953111 
" clip-path="url(#pdbac5a9fc6)" style="fill: none; stroke: #937860; stroke-opacity: 0.9; stroke-width: 3; stroke-linecap: round"/>
   </g>
   <g id="patch_9">
    <path d="M 808.240504 200.970099 
L 808.240504 81.456 
" style="fill: none; stroke: #ffffff; stroke-width: 1.25; stroke-linejoin: miter; stroke-linecap: square"/>
   </g>
   <g id="patch_10">
    <path d="M 808.240504 200.970099 
L 1100.609573 200.970099 
" style="fill: none; stroke: #ffffff; stroke-width: 1.25; stroke-linejoin: miter; stroke-linecap: square"/>
   </g>
   <g id="text_6">
    <!-- 0.85~90 -->
    <g style="fill: #262626" transform="translate(899.778445 75.456) scale(0.252 -0.252)">
     <use xlink:href="#DejaVuSans-30"/>
     <use xlink:href="#DejaVuSans-2e" x="63.623047"/>
     <use xlink:href="#DejaVuSans-38" x="95.410156"/>
     <use xlink:href="#DejaVuSans-35" x="159.033203"/>
     <use xlink:href="#DejaVuSans-7e" x="222.65625"/>
     <use xlink:href="#DejaVuSans-39" x="306.445312"/>
     <use xlink:href="#DejaVuSans-30" x="370.068359"/>
    </g>
   </g>
  </g>
  <g id="axes_4">
   <g id="patch_11">
    <path d="M 170.340091 373.284 
L 462.70916 373.284 
L 462.70916 253.769901 
L 170.340091 253.769901 
z
" style="fill: #eaeaf2"/>
   </g>
   <g id="matplotlib.axis_7">
    <g id="xtick_13">
     <g id="line2d_37">
      <path d="M 183.629594 373.284 
L 183.629594 253.769901 
" clip-path="url(#p4d92eca0f6)" style="fill: none; stroke: #ffffff; stroke-linecap: round"/>
     </g>
     <g id="text_7">
      <!-- 0 -->
      <g style="fill: #262626" transform="translate(176.280907 400.336391) scale(0.231 -0.231)">
       <use xlink:href="#DejaVuSans-30"/>
      </g>
     </g>
    </g>
    <g id="xtick_14">
     <g id="line2d_38">
      <path d="M 274.77845 373.284 
L 274.77845 253.769901 
" clip-path="url(#p4d92eca0f6)" style="fill: none; stroke: #ffffff; stroke-linecap: round"/>
     </g>
     <g id="text_8">
      <!-- 250 -->
      <g style="fill: #262626" transform="translate(252.732387 400.336391) scale(0.231 -0.231)">
       <defs>
        <path id="DejaVuSans-32" d="M 1228 531 
L 3431 531 
L 3431 0 
L 469 0 
L 469 531 
Q 828 903 1448 1529 
Q 2069 2156 2228 2338 
Q 2531 2678 2651 2914 
Q 2772 3150 2772 3378 
Q 2772 3750 2511 3984 
Q 2250 4219 1831 4219 
Q 1534 4219 1204 4116 
Q 875 4013 500 3803 
L 500 4441 
Q 881 4594 1212 4672 
Q 1544 4750 1819 4750 
Q 2544 4750 2975 4387 
Q 3406 4025 3406 3419 
Q 3406 3131 3298 2873 
Q 3191 2616 2906 2266 
Q 2828 2175 2409 1742 
Q 1991 1309 1228 531 
z
" transform="scale(0.015625)"/>
       </defs>
       <use xlink:href="#DejaVuSans-32"/>
       <use xlink:href="#DejaVuSans-35" x="63.623047"/>
       <use xlink:href="#DejaVuSans-30" x="127.246094"/>
      </g>
     </g>
    </g>
    <g id="xtick_15">
     <g id="line2d_39">
      <path d="M 365.927305 373.284 
L 365.927305 253.769901 
" clip-path="url(#p4d92eca0f6)" style="fill: none; stroke: #ffffff; stroke-linecap: round"/>
     </g>
     <g id="text_9">
      <!-- 500 -->
      <g style="fill: #262626" transform="translate(343.881243 400.336391) scale(0.231 -0.231)">
       <use xlink:href="#DejaVuSans-35"/>
       <use xlink:href="#DejaVuSans-30" x="63.623047"/>
       <use xlink:href="#DejaVuSans-30" x="127.246094"/>
      </g>
     </g>
    </g>
    <g id="xtick_16">
     <g id="line2d_40">
      <path d="M 457.076161 373.284 
L 457.076161 253.769901 
" clip-path="url(#p4d92eca0f6)" style="fill: none; stroke: #ffffff; stroke-linecap: round"/>
     </g>
     <g id="text_10">
      <!-- 750 -->
      <g style="fill: #262626" transform="translate(435.030099 400.336391) scale(0.231 -0.231)">
       <defs>
        <path id="DejaVuSans-37" d="M 525 4666 
L 3525 4666 
L 3525 4397 
L 1831 0 
L 1172 0 
L 2766 4134 
L 525 4134 
L 525 4666 
z
" transform="scale(0.015625)"/>
       </defs>
       <use xlink:href="#DejaVuSans-37"/>
       <use xlink:href="#DejaVuSans-35" x="63.623047"/>
       <use xlink:href="#DejaVuSans-30" x="127.246094"/>
      </g>
     </g>
    </g>
    <g id="text_11">
     <!-- step -->
     <g style="fill: #262626" transform="translate(289.269251 428.288531) scale(0.252 -0.252)">
      <defs>
       <path id="DejaVuSans-73" d="M 2834 3397 
L 2834 2853 
Q 2591 2978 2328 3040 
Q 2066 3103 1784 3103 
Q 1356 3103 1142 2972 
Q 928 2841 928 2578 
Q 928 2378 1081 2264 
Q 1234 2150 1697 2047 
L 1894 2003 
Q 2506 1872 2764 1633 
Q 3022 1394 3022 966 
Q 3022 478 2636 193 
Q 2250 -91 1575 -91 
Q 1294 -91 989 -36 
Q 684 19 347 128 
L 347 722 
Q 666 556 975 473 
Q 1284 391 1588 391 
Q 1994 391 2212 530 
Q 2431 669 2431 922 
Q 2431 1156 2273 1281 
Q 2116 1406 1581 1522 
L 1381 1569 
Q 847 1681 609 1914 
Q 372 2147 372 2553 
Q 372 3047 722 3315 
Q 1072 3584 1716 3584 
Q 2034 3584 2315 3537 
Q 2597 3491 2834 3397 
z
" transform="scale(0.015625)"/>
       <path id="DejaVuSans-74" d="M 1172 4494 
L 1172 3500 
L 2356 3500 
L 2356 3053 
L 1172 3053 
L 1172 1153 
Q 1172 725 1289 603 
Q 1406 481 1766 481 
L 2356 481 
L 2356 0 
L 1766 0 
Q 1100 0 847 248 
Q 594 497 594 1153 
L 594 3053 
L 172 3053 
L 172 3500 
L 594 3500 
L 594 4494 
L 1172 4494 
z
" transform="scale(0.015625)"/>
       <path id="DejaVuSans-70" d="M 1159 525 
L 1159 -1331 
L 581 -1331 
L 581 3500 
L 1159 3500 
L 1159 2969 
Q 1341 3281 1617 3432 
Q 1894 3584 2278 3584 
Q 2916 3584 3314 3078 
Q 3713 2572 3713 1747 
Q 3713 922 3314 415 
Q 2916 -91 2278 -91 
Q 1894 -91 1617 61 
Q 1341 213 1159 525 
z
M 3116 1747 
Q 3116 2381 2855 2742 
Q 2594 3103 2138 3103 
Q 1681 3103 1420 2742 
Q 1159 2381 1159 1747 
Q 1159 1113 1420 752 
Q 1681 391 2138 391 
Q 2594 391 2855 752 
Q 3116 1113 3116 1747 
z
" transform="scale(0.015625)"/>
      </defs>
      <use xlink:href="#DejaVuSans-73"/>
      <use xlink:href="#DejaVuSans-74" x="52.099609"/>
      <use xlink:href="#DejaVuSans-65" x="91.308594"/>
      <use xlink:href="#DejaVuSans-70" x="152.832031"/>
     </g>
    </g>
   </g>
   <g id="matplotlib.axis_8">
    <g id="ytick_7">
     <g id="line2d_41">
      <path d="M 170.340091 359.564348 
L 462.70916 359.564348 
" clip-path="url(#p4d92eca0f6)" style="fill: none; stroke: #ffffff; stroke-linecap: round"/>
     </g>
     <g id="text_12">
      <!-- −0.5 -->
      <g style="fill: #262626" transform="translate(104.746794 368.340544) scale(0.231 -0.231)">
       <use xlink:href="#DejaVuSans-2212"/>
       <use xlink:href="#DejaVuSans-30" x="83.789062"/>
       <use xlink:href="#DejaVuSans-2e" x="147.412109"/>
       <use xlink:href="#DejaVuSans-35" x="179.199219"/>
      </g>
     </g>
    </g>
    <g id="ytick_8">
     <g id="line2d_42">
      <path d="M 170.340091 278.957533 
L 462.70916 278.957533 
" clip-path="url(#p4d92eca0f6)" style="fill: none; stroke: #ffffff; stroke-linecap: round"/>
     </g>
     <g id="text_13">
      <!-- 0.0 -->
      <g style="fill: #262626" transform="translate(124.103872 287.733728) scale(0.231 -0.231)">
       <use xlink:href="#DejaVuSans-30"/>
       <use xlink:href="#DejaVuSans-2e" x="63.623047"/>
       <use xlink:href="#DejaVuSans-30" x="95.410156"/>
      </g>
     </g>
    </g>
    <g id="text_14">
     <!-- % change -->
     <g style="fill: #262626" transform="translate(95.505982 375.875294) rotate(-90) scale(0.252 -0.252)">
      <use xlink:href="#DejaVuSans-25"/>
      <use xlink:href="#DejaVuSans-20" x="95.019531"/>
      <use xlink:href="#DejaVuSans-63" x="126.806641"/>
      <use xlink:href="#DejaVuSans-68" x="181.787109"/>
      <use xlink:href="#DejaVuSans-61" x="245.166016"/>
      <use xlink:href="#DejaVuSans-6e" x="306.445312"/>
      <use xlink:href="#DejaVuSans-67" x="369.824219"/>
      <use xlink:href="#DejaVuSans-65" x="433.300781"/>
     </g>
    </g>
   </g>
   <g id="PolyCollection_19"/>
   <g id="PolyCollection_20"/>
   <g id="PolyCollection_21"/>
   <g id="PolyCollection_22"/>
   <g id="PolyCollection_23"/>
   <g id="PolyCollection_24"/>
   <g id="line2d_43">
    <path d="M 183.629594 278.957533 
L 204.046938 285.620442 
L 214.984801 288.828031 
L 225.922663 291.799654 
L 236.860526 294.541844 
L 248.162984 297.14134 
L 259.465442 299.510643 
L 271.132496 301.723466 
L 282.799549 303.709012 
L 294.831198 305.530564 
L 307.227442 307.183105 
L 319.988282 308.658628 
L 333.113717 309.949969 
L 346.603748 311.051062 
L 360.458374 311.957012 
L 374.677596 312.664133 
L 389.261413 313.169835 
L 404.57442 313.477303 
L 420.252023 313.57123 
L 436.658817 313.447662 
L 449.419657 313.205817 
L 449.419657 313.205817 
" clip-path="url(#p4d92eca0f6)" style="fill: none; stroke: #4c72b0; stroke-opacity: 0.9; stroke-width: 3; stroke-linecap: round"/>
   </g>
   <g id="line2d_44">
    <path d="M 183.629594 278.957533 
L 207.328297 286.485259 
L 218.630755 289.684579 
L 229.933213 292.651666 
L 241.600266 295.481966 
L 253.26732 298.083893 
L 265.298969 300.536151 
L 277.330618 302.763173 
L 289.726862 304.83203 
L 302.487702 306.733615 
L 315.613137 308.463975 
L 329.103168 310.01953 
L 342.957794 311.395077 
L 357.177015 312.586443 
L 372.125428 313.612931 
L 387.438435 314.439729 
L 403.480634 315.07818 
L 419.887428 315.506702 
L 437.023413 315.72951 
L 449.419657 315.757274 
L 449.419657 315.757274 
" clip-path="url(#p4d92eca0f6)" style="fill: none; stroke: #dd8452; stroke-opacity: 0.9; stroke-width: 3; stroke-linecap: round"/>
   </g>
   <g id="line2d_45">
    <path d="M 183.629594 278.957533 
L 188.73393 280.854383 
L 198.578007 284.374904 
L 209.151274 287.922012 
L 219.724541 291.231255 
L 231.75619 294.747324 
L 247.798389 299.189782 
L 263.840587 303.408693 
L 278.789 307.117526 
L 291.914435 310.153154 
L 304.310679 312.795758 
L 315.977733 315.062007 
L 327.644786 317.099491 
L 338.947244 318.845499 
L 349.885107 320.315199 
L 360.82297 321.564767 
L 371.760832 322.592283 
L 383.06329 323.42822 
L 394.365748 324.03937 
L 406.032802 324.447638 
L 419.158237 324.67733 
L 435.200436 324.723993 
L 449.419657 324.591403 
L 449.419657 324.591403 
" clip-path="url(#p4d92eca0f6)" style="fill: none; stroke: #55a868; stroke-opacity: 0.9; stroke-width: 3; stroke-linecap: round"/>
   </g>
   <g id="line2d_46">
    <path d="M 183.629594 278.957533 
L 188.73393 280.793737 
L 198.942602 284.330503 
L 209.515869 287.764422 
L 221.182923 291.311074 
L 235.037549 295.295663 
L 252.902725 300.210439 
L 271.132496 304.993207 
L 285.351717 308.502115 
L 298.477152 311.512414 
L 310.508801 314.048783 
L 322.175855 316.286155 
L 333.478313 318.232347 
L 344.780771 319.952566 
L 356.083229 321.441941 
L 367.021092 322.661007 
L 378.32355 323.693665 
L 389.626008 324.505796 
L 400.928466 325.10115 
L 412.59552 325.494224 
L 425.356359 325.696197 
L 440.304772 325.709323 
L 449.419657 325.620846 
L 449.419657 325.620846 
" clip-path="url(#p4d92eca0f6)" style="fill: none; stroke: #c44e52; stroke-opacity: 0.9; stroke-width: 3; stroke-linecap: round"/>
   </g>
   <g id="line2d_47">
    <path d="M 183.629594 278.957533 
L 192.015289 281.960258 
L 202.223961 285.423127 
L 212.432633 288.652264 
L 222.641304 291.652946 
L 233.214572 294.525688 
L 243.787839 297.166696 
L 254.361106 299.582639 
L 265.298969 301.851943 
L 276.236832 303.896222 
L 287.53929 305.782066 
L 299.206343 307.500633 
L 311.237992 309.042623 
L 323.269641 310.360802 
L 335.665885 311.495707 
L 348.426725 312.438922 
L 361.55216 313.183288 
L 375.042191 313.722793 
L 388.896817 314.052734 
L 403.116039 314.170007 
L 418.064451 314.068651 
L 433.377459 313.742274 
L 449.419657 313.17664 
L 449.419657 313.17664 
" clip-path="url(#p4d92eca0f6)" style="fill: none; stroke: #8172b3; stroke-opacity: 0.9; stroke-width: 3; stroke-linecap: round"/>
   </g>
   <g id="line2d_48">
    <path d="M 183.629594 278.957533 
L 208.422083 287.176653 
L 218.99535 290.302749 
L 229.933213 293.3019 
L 240.871076 296.068425 
L 251.808938 298.609387 
L 263.111396 301.007022 
L 274.77845 303.248869 
L 286.445503 305.263149 
L 298.477152 307.113434 
L 310.873397 308.793023 
L 323.634236 310.292717 
L 336.395076 311.570865 
L 349.520511 312.666121 
L 363.010542 313.572371 
L 376.865168 314.284379 
L 391.448985 314.808486 
L 406.397397 315.121034 
L 422.075001 315.222122 
L 438.117199 315.103074 
L 449.419657 314.892914 
L 449.419657 314.892914 
" clip-path="url(#p4d92eca0f6)" style="fill: none; stroke: #937860; stroke-opacity: 0.9; stroke-width: 3; stroke-linecap: round"/>
   </g>
   <g id="patch_12">
    <path d="M 170.340091 373.284 
L 170.340091 253.769901 
" style="fill: none; stroke: #ffffff; stroke-width: 1.25; stroke-linejoin: miter; stroke-linecap: square"/>
   </g>
   <g id="patch_13">
    <path d="M 170.340091 373.284 
L 462.70916 373.284 
" style="fill: none; stroke: #ffffff; stroke-width: 1.25; stroke-linejoin: miter; stroke-linecap: square"/>
   </g>
   <g id="text_15">
    <!-- 0.85~365 -->
    <g style="fill: #262626" transform="translate(253.861282 247.769901) scale(0.252 -0.252)">
     <use xlink:href="#DejaVuSans-30"/>
     <use xlink:href="#DejaVuSans-2e" x="63.623047"/>
     <use xlink:href="#DejaVuSans-38" x="95.410156"/>
     <use xlink:href="#DejaVuSans-35" x="159.033203"/>
     <use xlink:href="#DejaVuSans-7e" x="222.65625"/>
     <use xlink:href="#DejaVuSans-33" x="306.445312"/>
     <use xlink:href="#DejaVuSans-36" x="370.068359"/>
     <use xlink:href="#DejaVuSans-35" x="433.691406"/>
    </g>
   </g>
  </g>
  <g id="axes_5">
   <g id="patch_14">
    <path d="M 489.290298 373.284 
L 781.659367 373.284 
L 781.659367 253.769901 
L 489.290298 253.769901 
z
" style="fill: #eaeaf2"/>
   </g>
   <g id="matplotlib.axis_9">
    <g id="xtick_17">
     <g id="line2d_49">
      <path d="M 502.579801 373.284 
L 502.579801 253.769901 
" clip-path="url(#pea818efff0)" style="fill: none; stroke: #ffffff; stroke-linecap: round"/>
     </g>
     <g id="text_16">
      <!-- 0 -->
      <g style="fill: #262626" transform="translate(495.231113 400.336391) scale(0.231 -0.231)">
       <use xlink:href="#DejaVuSans-30"/>
      </g>
     </g>
    </g>
    <g id="xtick_18">
     <g id="line2d_50">
      <path d="M 593.728656 373.284 
L 593.728656 253.769901 
" clip-path="url(#pea818efff0)" style="fill: none; stroke: #ffffff; stroke-linecap: round"/>
     </g>
     <g id="text_17">
      <!-- 250 -->
      <g style="fill: #262626" transform="translate(571.682594 400.336391) scale(0.231 -0.231)">
       <use xlink:href="#DejaVuSans-32"/>
       <use xlink:href="#DejaVuSans-35" x="63.623047"/>
       <use xlink:href="#DejaVuSans-30" x="127.246094"/>
      </g>
     </g>
    </g>
    <g id="xtick_19">
     <g id="line2d_51">
      <path d="M 684.877512 373.284 
L 684.877512 253.769901 
" clip-path="url(#pea818efff0)" style="fill: none; stroke: #ffffff; stroke-linecap: round"/>
     </g>
     <g id="text_18">
      <!-- 500 -->
      <g style="fill: #262626" transform="translate(662.83145 400.336391) scale(0.231 -0.231)">
       <use xlink:href="#DejaVuSans-35"/>
       <use xlink:href="#DejaVuSans-30" x="63.623047"/>
       <use xlink:href="#DejaVuSans-30" x="127.246094"/>
      </g>
     </g>
    </g>
    <g id="xtick_20">
     <g id="line2d_52">
      <path d="M 776.026368 373.284 
L 776.026368 253.769901 
" clip-path="url(#pea818efff0)" style="fill: none; stroke: #ffffff; stroke-linecap: round"/>
     </g>
     <g id="text_19">
      <!-- 750 -->
      <g style="fill: #262626" transform="translate(753.980305 400.336391) scale(0.231 -0.231)">
       <use xlink:href="#DejaVuSans-37"/>
       <use xlink:href="#DejaVuSans-35" x="63.623047"/>
       <use xlink:href="#DejaVuSans-30" x="127.246094"/>
      </g>
     </g>
    </g>
    <g id="text_20">
     <!-- step -->
     <g style="fill: #262626" transform="translate(608.219457 428.288531) scale(0.252 -0.252)">
      <use xlink:href="#DejaVuSans-73"/>
      <use xlink:href="#DejaVuSans-74" x="52.099609"/>
      <use xlink:href="#DejaVuSans-65" x="91.308594"/>
      <use xlink:href="#DejaVuSans-70" x="152.832031"/>
     </g>
    </g>
   </g>
   <g id="matplotlib.axis_10">
    <g id="ytick_9">
     <g id="line2d_53">
      <path d="M 489.290298 359.564348 
L 781.659367 359.564348 
" clip-path="url(#pea818efff0)" style="fill: none; stroke: #ffffff; stroke-linecap: round"/>
     </g>
    </g>
    <g id="ytick_10">
     <g id="line2d_54">
      <path d="M 489.290298 278.957533 
L 781.659367 278.957533 
" clip-path="url(#pea818efff0)" style="fill: none; stroke: #ffffff; stroke-linecap: round"/>
     </g>
    </g>
   </g>
   <g id="PolyCollection_25"/>
   <g id="PolyCollection_26"/>
   <g id="PolyCollection_27"/>
   <g id="PolyCollection_28"/>
   <g id="PolyCollection_29"/>
   <g id="PolyCollection_30"/>
   <g id="line2d_55">
    <path d="M 502.579801 278.957533 
L 515.705236 283.209939 
L 522.997144 285.233645 
L 530.289053 287.024554 
L 537.580961 288.586745 
L 544.87287 289.926238 
L 552.529374 291.104999 
L 560.185878 292.058212 
L 567.842381 292.793956 
L 575.863481 293.340829 
L 583.88458 293.668599 
L 592.270275 293.788076 
L 601.020565 293.681768 
L 609.770855 293.352675 
L 618.885741 292.7872 
L 628.365222 291.973546 
L 638.209298 290.902562 
L 648.41797 289.567943 
L 659.355832 287.907399 
L 670.658291 285.965763 
L 683.054535 283.605048 
L 702.742688 279.588113 
L 728.264367 274.161726 
L 768.369864 265.476054 
L 768.369864 265.476054 
" clip-path="url(#pea818efff0)" style="fill: none; stroke: #4c72b0; stroke-opacity: 0.9; stroke-width: 3; stroke-linecap: round"/>
   </g>
   <g id="line2d_56">
    <path d="M 502.579801 278.957533 
L 517.892809 283.78574 
L 525.549312 285.841715 
L 533.570412 287.759897 
L 541.591511 289.443025 
L 549.61261 290.897591 
L 557.998305 292.187032 
L 566.384 293.249966 
L 574.769694 294.095113 
L 583.519985 294.755103 
L 592.63487 295.213407 
L 601.749756 295.449998 
L 611.229237 295.473976 
L 621.073313 295.273128 
L 631.281985 294.836606 
L 641.855252 294.155203 
L 652.793115 293.22211 
L 664.095573 292.033237 
L 676.127222 290.538772 
L 689.981848 288.577839 
L 709.670001 285.570198 
L 730.816535 282.108034 
L 754.879833 277.93184 
L 768.369864 275.545952 
L 768.369864 275.545952 
" clip-path="url(#pea818efff0)" style="fill: none; stroke: #dd8452; stroke-opacity: 0.9; stroke-width: 3; stroke-linecap: round"/>
   </g>
   <g id="line2d_57">
    <path d="M 502.579801 278.957533 
L 509.871709 281.619441 
L 516.799022 283.936953 
L 524.090931 286.140378 
L 533.570412 288.755297 
L 552.529374 293.708535 
L 574.769694 299.376693 
L 583.519985 301.35749 
L 591.176488 302.870034 
L 598.468397 304.084759 
L 605.760305 305.073108 
L 613.052214 305.844105 
L 620.708718 306.42728 
L 629.094412 306.836219 
L 638.209298 307.055975 
L 647.688779 307.058557 
L 657.532855 306.831083 
L 667.741527 306.368683 
L 678.67939 305.642642 
L 689.981848 304.663749 
L 702.013497 303.395117 
L 715.503527 301.742253 
L 731.545726 299.543591 
L 748.681711 296.969218 
L 766.182291 294.111763 
L 768.369864 293.738978 
L 768.369864 293.738978 
" clip-path="url(#pea818efff0)" style="fill: none; stroke: #55a868; stroke-opacity: 0.9; stroke-width: 3; stroke-linecap: round"/>
   </g>
   <g id="line2d_58">
    <path d="M 502.579801 278.957533 
L 509.507114 281.411188 
L 516.799022 283.78464 
L 524.820122 286.14168 
L 546.331251 292.291437 
L 555.081542 295.148685 
L 570.394549 300.449621 
L 582.061603 304.367161 
L 590.447298 306.948281 
L 597.739206 308.966453 
L 604.666519 310.649081 
L 611.229237 312.007274 
L 617.427359 313.064894 
L 623.625481 313.899452 
L 629.823603 314.511341 
L 636.750916 314.959423 
L 644.042825 315.198747 
L 651.334733 315.214164 
L 658.991237 315.007951 
L 668.470718 314.513983 
L 679.408581 313.727022 
L 691.075634 312.659528 
L 704.565665 311.191699 
L 720.607863 309.223355 
L 737.379253 306.934927 
L 755.973619 304.169048 
L 768.369864 302.19874 
L 768.369864 302.19874 
" clip-path="url(#pea818efff0)" style="fill: none; stroke: #c44e52; stroke-opacity: 0.9; stroke-width: 3; stroke-linecap: round"/>
   </g>
   <g id="line2d_59">
    <path d="M 502.579801 278.957533 
L 517.528213 283.995338 
L 524.455526 285.963859 
L 531.382839 287.698223 
L 538.310152 289.206587 
L 545.602061 290.563658 
L 552.893969 291.689558 
L 560.185878 292.589784 
L 567.477786 293.270414 
L 575.13429 293.755984 
L 582.790794 294.014739 
L 590.447298 294.056301 
L 598.468397 293.876338 
L 606.489496 293.477503 
L 614.875191 292.838266 
L 623.625481 291.941602 
L 632.375771 290.82395 
L 641.490657 289.440089 
L 650.970138 287.780631 
L 661.17881 285.763688 
L 671.752077 283.448079 
L 683.054535 280.747195 
L 701.284306 276.103483 
L 753.056856 262.843495 
L 768.369864 259.20236 
L 768.369864 259.20236 
" clip-path="url(#pea818efff0)" style="fill: none; stroke: #8172b3; stroke-opacity: 0.9; stroke-width: 3; stroke-linecap: round"/>
   </g>
   <g id="line2d_60">
    <path d="M 502.579801 278.957533 
L 517.528213 283.869331 
L 524.820122 285.913024 
L 532.11203 287.726184 
L 539.403938 289.315886 
L 547.060442 290.75644 
L 554.716946 291.969681 
L 562.37345 292.961808 
L 570.394549 293.771418 
L 578.415649 294.353778 
L 586.436748 294.717089 
L 594.822443 294.872696 
L 603.208137 294.810217 
L 611.958428 294.523438 
L 621.073313 293.996255 
L 630.188199 293.248848 
L 639.66768 292.252401 
L 649.511756 290.997557 
L 660.085023 289.419977 
L 671.022886 287.560648 
L 682.689939 285.349945 
L 699.461329 281.902632 
L 730.45194 275.276344 
L 763.630123 268.217679 
L 768.369864 267.267012 
L 768.369864 267.267012 
" clip-path="url(#pea818efff0)" style="fill: none; stroke: #937860; stroke-opacity: 0.9; stroke-width: 3; stroke-linecap: round"/>
   </g>
   <g id="patch_15">
    <path d="M 489.290298 373.284 
L 489.290298 253.769901 
" style="fill: none; stroke: #ffffff; stroke-width: 1.25; stroke-linejoin: miter; stroke-linecap: square"/>
   </g>
   <g id="patch_16">
    <path d="M 489.290298 373.284 
L 781.659367 373.284 
" style="fill: none; stroke: #ffffff; stroke-width: 1.25; stroke-linejoin: miter; stroke-linecap: square"/>
   </g>
   <g id="text_21">
    <!-- 0.95~90 -->
    <g style="fill: #262626" transform="translate(580.828239 247.769901) scale(0.252 -0.252)">
     <use xlink:href="#DejaVuSans-30"/>
     <use xlink:href="#DejaVuSans-2e" x="63.623047"/>
     <use xlink:href="#DejaVuSans-39" x="95.410156"/>
     <use xlink:href="#DejaVuSans-35" x="159.033203"/>
     <use xlink:href="#DejaVuSans-7e" x="222.65625"/>
     <use xlink:href="#DejaVuSans-39" x="306.445312"/>
     <use xlink:href="#DejaVuSans-30" x="370.068359"/>
    </g>
   </g>
  </g>
  <g id="axes_6">
   <g id="patch_17">
    <path d="M 808.240504 373.284 
L 1100.609573 373.284 
L 1100.609573 253.769901 
L 808.240504 253.769901 
z
" style="fill: #eaeaf2"/>
   </g>
   <g id="matplotlib.axis_11">
    <g id="xtick_21">
     <g id="line2d_61">
      <path d="M 821.530007 373.284 
L 821.530007 253.769901 
" clip-path="url(#pefae5aae85)" style="fill: none; stroke: #ffffff; stroke-linecap: round"/>
     </g>
     <g id="text_22">
      <!-- 0 -->
      <g style="fill: #262626" transform="translate(814.18132 400.336391) scale(0.231 -0.231)">
       <use xlink:href="#DejaVuSans-30"/>
      </g>
     </g>
    </g>
    <g id="xtick_22">
     <g id="line2d_62">
      <path d="M 912.678863 373.284 
L 912.678863 253.769901 
" clip-path="url(#pefae5aae85)" style="fill: none; stroke: #ffffff; stroke-linecap: round"/>
     </g>
     <g id="text_23">
      <!-- 250 -->
      <g style="fill: #262626" transform="translate(890.6328 400.336391) scale(0.231 -0.231)">
       <use xlink:href="#DejaVuSans-32"/>
       <use xlink:href="#DejaVuSans-35" x="63.623047"/>
       <use xlink:href="#DejaVuSans-30" x="127.246094"/>
      </g>
     </g>
    </g>
    <g id="xtick_23">
     <g id="line2d_63">
      <path d="M 1003.827719 373.284 
L 1003.827719 253.769901 
" clip-path="url(#pefae5aae85)" style="fill: none; stroke: #ffffff; stroke-linecap: round"/>
     </g>
     <g id="text_24">
      <!-- 500 -->
      <g style="fill: #262626" transform="translate(981.781656 400.336391) scale(0.231 -0.231)">
       <use xlink:href="#DejaVuSans-35"/>
       <use xlink:href="#DejaVuSans-30" x="63.623047"/>
       <use xlink:href="#DejaVuSans-30" x="127.246094"/>
      </g>
     </g>
    </g>
    <g id="xtick_24">
     <g id="line2d_64">
      <path d="M 1094.976574 373.284 
L 1094.976574 253.769901 
" clip-path="url(#pefae5aae85)" style="fill: none; stroke: #ffffff; stroke-linecap: round"/>
     </g>
     <g id="text_25">
      <!-- 750 -->
      <g style="fill: #262626" transform="translate(1072.930512 400.336391) scale(0.231 -0.231)">
       <use xlink:href="#DejaVuSans-37"/>
       <use xlink:href="#DejaVuSans-35" x="63.623047"/>
       <use xlink:href="#DejaVuSans-30" x="127.246094"/>
      </g>
     </g>
    </g>
    <g id="text_26">
     <!-- step -->
     <g style="fill: #262626" transform="translate(927.169664 428.288531) scale(0.252 -0.252)">
      <use xlink:href="#DejaVuSans-73"/>
      <use xlink:href="#DejaVuSans-74" x="52.099609"/>
      <use xlink:href="#DejaVuSans-65" x="91.308594"/>
      <use xlink:href="#DejaVuSans-70" x="152.832031"/>
     </g>
    </g>
   </g>
   <g id="matplotlib.axis_12">
    <g id="ytick_11">
     <g id="line2d_65">
      <path d="M 808.240504 359.564348 
L 1100.609573 359.564348 
" clip-path="url(#pefae5aae85)" style="fill: none; stroke: #ffffff; stroke-linecap: round"/>
     </g>
    </g>
    <g id="ytick_12">
     <g id="line2d_66">
      <path d="M 808.240504 278.957533 
L 1100.609573 278.957533 
" clip-path="url(#pefae5aae85)" style="fill: none; stroke: #ffffff; stroke-linecap: round"/>
     </g>
    </g>
   </g>
   <g id="PolyCollection_31"/>
   <g id="PolyCollection_32"/>
   <g id="PolyCollection_33"/>
   <g id="PolyCollection_34"/>
   <g id="PolyCollection_35"/>
   <g id="PolyCollection_36"/>
   <g id="line2d_67">
    <path d="M 821.530007 278.957533 
L 841.947351 285.620442 
L 852.885214 288.828031 
L 863.823076 291.799654 
L 874.760939 294.541844 
L 886.063397 297.14134 
L 897.365855 299.510643 
L 909.032909 301.723466 
L 920.699962 303.709012 
L 932.731611 305.530564 
L 945.127856 307.183105 
L 957.888695 308.658628 
L 971.014131 309.949969 
L 984.504161 311.051062 
L 998.358787 311.957012 
L 1012.578009 312.664133 
L 1027.161826 313.169835 
L 1042.474833 313.477303 
L 1058.152436 313.57123 
L 1074.55923 313.447662 
L 1087.32007 313.205817 
L 1087.32007 313.205817 
" clip-path="url(#pefae5aae85)" style="fill: none; stroke: #4c72b0; stroke-opacity: 0.9; stroke-width: 3; stroke-linecap: round"/>
   </g>
   <g id="line2d_68">
    <path d="M 821.530007 278.957533 
L 845.22871 286.485259 
L 856.531168 289.684579 
L 867.833626 292.651666 
L 879.500679 295.481966 
L 891.167733 298.083893 
L 903.199382 300.536151 
L 915.231031 302.763173 
L 927.627275 304.83203 
L 940.388115 306.733615 
L 953.51355 308.463975 
L 967.003581 310.01953 
L 980.858207 311.395077 
L 995.077428 312.586443 
L 1010.025841 313.612931 
L 1025.338848 314.439729 
L 1041.381047 315.07818 
L 1057.787841 315.506702 
L 1074.923826 315.72951 
L 1087.32007 315.757274 
L 1087.32007 315.757274 
" clip-path="url(#pefae5aae85)" style="fill: none; stroke: #dd8452; stroke-opacity: 0.9; stroke-width: 3; stroke-linecap: round"/>
   </g>
   <g id="line2d_69">
    <path d="M 821.530007 278.957533 
L 826.634343 280.854383 
L 836.47842 284.374925 
L 849.96845 288.934465 
L 863.823076 293.680709 
L 872.208771 296.789233 
L 881.323657 300.418065 
L 891.896924 304.884714 
L 931.637825 321.942702 
L 941.117306 325.639422 
L 949.867596 328.821669 
L 958.253291 331.637804 
L 966.27439 334.102217 
L 974.295489 336.338107 
L 982.681184 338.444639 
L 991.79607 340.497389 
L 1001.275551 342.403002 
L 1011.119627 344.155994 
L 1022.422085 345.936459 
L 1034.453734 347.608021 
L 1046.485383 349.058502 
L 1058.881627 350.326362 
L 1071.277872 351.370118 
L 1084.038711 352.217708 
L 1087.32007 352.399317 
L 1087.32007 352.399317 
" clip-path="url(#pefae5aae85)" style="fill: none; stroke: #55a868; stroke-opacity: 0.9; stroke-width: 3; stroke-linecap: round"/>
   </g>
   <g id="line2d_70">
    <path d="M 821.530007 278.957533 
L 826.634343 280.793737 
L 836.843015 284.330654 
L 859.083336 291.902007 
L 865.646053 294.498114 
L 872.208771 297.339006 
L 879.136084 300.591424 
L 887.157183 304.615041 
L 897.365855 310.00338 
L 936.742161 331.059253 
L 946.221642 335.723022 
L 954.971932 339.774438 
L 962.993031 343.250033 
L 971.014131 346.481754 
L 978.670634 349.328277 
L 986.327138 351.935114 
L 993.983642 354.299397 
L 1001.640146 356.420025 
L 1009.29665 358.303626 
L 1016.953154 359.960514 
L 1025.703444 361.617468 
L 1034.453734 363.053122 
L 1043.56862 364.319658 
L 1052.683505 365.360978 
L 1062.892177 366.290223 
L 1075.653017 367.20753 
L 1087.32007 367.851541 
L 1087.32007 367.851541 
" clip-path="url(#pefae5aae85)" style="fill: none; stroke: #c44e52; stroke-opacity: 0.9; stroke-width: 3; stroke-linecap: round"/>
   </g>
   <g id="line2d_71">
    <path d="M 821.530007 278.957533 
L 829.915702 281.960258 
L 840.124374 285.423127 
L 850.333046 288.652264 
L 860.541717 291.652946 
L 871.114985 294.525688 
L 881.688252 297.166696 
L 892.261519 299.582639 
L 903.199382 301.851943 
L 914.137245 303.896222 
L 925.439703 305.782066 
L 937.106756 307.500633 
L 949.138405 309.042623 
L 961.170054 310.360802 
L 973.566298 311.495707 
L 986.327138 312.438922 
L 999.452573 313.183288 
L 1012.942604 313.722793 
L 1026.79723 314.052734 
L 1041.016452 314.170007 
L 1055.964864 314.068651 
L 1071.277872 313.742274 
L 1087.32007 313.17664 
L 1087.32007 313.17664 
" clip-path="url(#pefae5aae85)" style="fill: none; stroke: #8172b3; stroke-opacity: 0.9; stroke-width: 3; stroke-linecap: round"/>
   </g>
   <g id="line2d_72">
    <path d="M 821.530007 278.957533 
L 846.322496 287.176653 
L 856.895763 290.302749 
L 867.833626 293.3019 
L 878.771489 296.068425 
L 889.709351 298.609387 
L 901.011809 301.007022 
L 912.678863 303.248869 
L 924.345916 305.263149 
L 936.377565 307.113434 
L 948.77381 308.793023 
L 961.53465 310.292717 
L 974.295489 311.570865 
L 987.420925 312.666121 
L 1000.910955 313.572371 
L 1014.765581 314.284379 
L 1029.349398 314.808486 
L 1044.29781 315.121034 
L 1059.975414 315.222122 
L 1076.017612 315.103074 
L 1087.32007 314.892914 
L 1087.32007 314.892914 
" clip-path="url(#pefae5aae85)" style="fill: none; stroke: #937860; stroke-opacity: 0.9; stroke-width: 3; stroke-linecap: round"/>
   </g>
   <g id="patch_18">
    <path d="M 808.240504 373.284 
L 808.240504 253.769901 
" style="fill: none; stroke: #ffffff; stroke-width: 1.25; stroke-linejoin: miter; stroke-linecap: square"/>
   </g>
   <g id="patch_19">
    <path d="M 808.240504 373.284 
L 1100.609573 373.284 
" style="fill: none; stroke: #ffffff; stroke-width: 1.25; stroke-linejoin: miter; stroke-linecap: square"/>
   </g>
   <g id="text_27">
    <!-- 0.95~365 -->
    <g style="fill: #262626" transform="translate(891.761695 247.769901) scale(0.252 -0.252)">
     <use xlink:href="#DejaVuSans-30"/>
     <use xlink:href="#DejaVuSans-2e" x="63.623047"/>
     <use xlink:href="#DejaVuSans-39" x="95.410156"/>
     <use xlink:href="#DejaVuSans-35" x="159.033203"/>
     <use xlink:href="#DejaVuSans-7e" x="222.65625"/>
     <use xlink:href="#DejaVuSans-33" x="306.445312"/>
     <use xlink:href="#DejaVuSans-36" x="370.068359"/>
     <use xlink:href="#DejaVuSans-35" x="433.691406"/>
    </g>
   </g>
  </g>
  <g id="text_28">
   <!-- Production change from pre-shock level -->
   <g style="fill: #262626" transform="translate(280.766836 30.177675) scale(0.3024 -0.3024)">
    <defs>
     <path id="DejaVuSans-50" d="M 1259 4147 
L 1259 2394 
L 2053 2394 
Q 2494 2394 2734 2622 
Q 2975 2850 2975 3272 
Q 2975 3691 2734 3919 
Q 2494 4147 2053 4147 
L 1259 4147 
z
M 628 4666 
L 2053 4666 
Q 2838 4666 3239 4311 
Q 3641 3956 3641 3272 
Q 3641 2581 3239 2228 
Q 2838 1875 2053 1875 
L 1259 1875 
L 1259 0 
L 628 0 
L 628 4666 
z
" transform="scale(0.015625)"/>
     <path id="DejaVuSans-72" d="M 2631 2963 
Q 2534 3019 2420 3045 
Q 2306 3072 2169 3072 
Q 1681 3072 1420 2755 
Q 1159 2438 1159 1844 
L 1159 0 
L 581 0 
L 581 3500 
L 1159 3500 
L 1159 2956 
Q 1341 3275 1631 3429 
Q 1922 3584 2338 3584 
Q 2397 3584 2469 3576 
Q 2541 3569 2628 3553 
L 2631 2963 
z
" transform="scale(0.015625)"/>
     <path id="DejaVuSans-6f" d="M 1959 3097 
Q 1497 3097 1228 2736 
Q 959 2375 959 1747 
Q 959 1119 1226 758 
Q 1494 397 1959 397 
Q 2419 397 2687 759 
Q 2956 1122 2956 1747 
Q 2956 2369 2687 2733 
Q 2419 3097 1959 3097 
z
M 1959 3584 
Q 2709 3584 3137 3096 
Q 3566 2609 3566 1747 
Q 3566 888 3137 398 
Q 2709 -91 1959 -91 
Q 1206 -91 779 398 
Q 353 888 353 1747 
Q 353 2609 779 3096 
Q 1206 3584 1959 3584 
z
" transform="scale(0.015625)"/>
     <path id="DejaVuSans-64" d="M 2906 2969 
L 2906 4863 
L 3481 4863 
L 3481 0 
L 2906 0 
L 2906 525 
Q 2725 213 2448 61 
Q 2172 -91 1784 -91 
Q 1150 -91 751 415 
Q 353 922 353 1747 
Q 353 2572 751 3078 
Q 1150 3584 1784 3584 
Q 2172 3584 2448 3432 
Q 2725 3281 2906 2969 
z
M 947 1747 
Q 947 1113 1208 752 
Q 1469 391 1925 391 
Q 2381 391 2643 752 
Q 2906 1113 2906 1747 
Q 2906 2381 2643 2742 
Q 2381 3103 1925 3103 
Q 1469 3103 1208 2742 
Q 947 2381 947 1747 
z
" transform="scale(0.015625)"/>
     <path id="DejaVuSans-75" d="M 544 1381 
L 544 3500 
L 1119 3500 
L 1119 1403 
Q 1119 906 1312 657 
Q 1506 409 1894 409 
Q 2359 409 2629 706 
Q 2900 1003 2900 1516 
L 2900 3500 
L 3475 3500 
L 3475 0 
L 2900 0 
L 2900 538 
Q 2691 219 2414 64 
Q 2138 -91 1772 -91 
Q 1169 -91 856 284 
Q 544 659 544 1381 
z
M 1991 3584 
L 1991 3584 
z
" transform="scale(0.015625)"/>
     <path id="DejaVuSans-69" d="M 603 3500 
L 1178 3500 
L 1178 0 
L 603 0 
L 603 3500 
z
M 603 4863 
L 1178 4863 
L 1178 4134 
L 603 4134 
L 603 4863 
z
" transform="scale(0.015625)"/>
     <path id="DejaVuSans-66" d="M 2375 4863 
L 2375 4384 
L 1825 4384 
Q 1516 4384 1395 4259 
Q 1275 4134 1275 3809 
L 1275 3500 
L 2222 3500 
L 2222 3053 
L 1275 3053 
L 1275 0 
L 697 0 
L 697 3053 
L 147 3053 
L 147 3500 
L 697 3500 
L 697 3744 
Q 697 4328 969 4595 
Q 1241 4863 1831 4863 
L 2375 4863 
z
" transform="scale(0.015625)"/>
     <path id="DejaVuSans-6d" d="M 3328 2828 
Q 3544 3216 3844 3400 
Q 4144 3584 4550 3584 
Q 5097 3584 5394 3201 
Q 5691 2819 5691 2113 
L 5691 0 
L 5113 0 
L 5113 2094 
Q 5113 2597 4934 2840 
Q 4756 3084 4391 3084 
Q 3944 3084 3684 2787 
Q 3425 2491 3425 1978 
L 3425 0 
L 2847 0 
L 2847 2094 
Q 2847 2600 2669 2842 
Q 2491 3084 2119 3084 
Q 1678 3084 1418 2786 
Q 1159 2488 1159 1978 
L 1159 0 
L 581 0 
L 581 3500 
L 1159 3500 
L 1159 2956 
Q 1356 3278 1631 3431 
Q 1906 3584 2284 3584 
Q 2666 3584 2933 3390 
Q 3200 3197 3328 2828 
z
" transform="scale(0.015625)"/>
     <path id="DejaVuSans-2d" d="M 313 2009 
L 1997 2009 
L 1997 1497 
L 313 1497 
L 313 2009 
z
" transform="scale(0.015625)"/>
     <path id="DejaVuSans-6b" d="M 581 4863 
L 1159 4863 
L 1159 1991 
L 2875 3500 
L 3609 3500 
L 1753 1863 
L 3688 0 
L 2938 0 
L 1159 1709 
L 1159 0 
L 581 0 
L 581 4863 
z
" transform="scale(0.015625)"/>
     <path id="DejaVuSans-6c" d="M 603 4863 
L 1178 4863 
L 1178 0 
L 603 0 
L 603 4863 
z
" transform="scale(0.015625)"/>
     <path id="DejaVuSans-76" d="M 191 3500 
L 800 3500 
L 1894 563 
L 2988 3500 
L 3597 3500 
L 2284 0 
L 1503 0 
L 191 3500 
z
" transform="scale(0.015625)"/>
    </defs>
    <use xlink:href="#DejaVuSans-50"/>
    <use xlink:href="#DejaVuSans-72" x="58.552734"/>
    <use xlink:href="#DejaVuSans-6f" x="97.416016"/>
    <use xlink:href="#DejaVuSans-64" x="158.597656"/>
    <use xlink:href="#DejaVuSans-75" x="222.074219"/>
    <use xlink:href="#DejaVuSans-63" x="285.453125"/>
    <use xlink:href="#DejaVuSans-74" x="340.433594"/>
    <use xlink:href="#DejaVuSans-69" x="379.642578"/>
    <use xlink:href="#DejaVuSans-6f" x="407.425781"/>
    <use xlink:href="#DejaVuSans-6e" x="468.607422"/>
    <use xlink:href="#DejaVuSans-20" x="531.986328"/>
    <use xlink:href="#DejaVuSans-63" x="563.773438"/>
    <use xlink:href="#DejaVuSans-68" x="618.753906"/>
    <use xlink:href="#DejaVuSans-61" x="682.132812"/>
    <use xlink:href="#DejaVuSans-6e" x="743.412109"/>
    <use xlink:href="#DejaVuSans-67" x="806.791016"/>
    <use xlink:href="#DejaVuSans-65" x="870.267578"/>
    <use xlink:href="#DejaVuSans-20" x="931.791016"/>
    <use xlink:href="#DejaVuSans-66" x="963.578125"/>
    <use xlink:href="#DejaVuSans-72" x="998.783203"/>
    <use xlink:href="#DejaVuSans-6f" x="1037.646484"/>
    <use xlink:href="#DejaVuSans-6d" x="1098.828125"/>
    <use xlink:href="#DejaVuSans-20" x="1196.240234"/>
    <use xlink:href="#DejaVuSans-70" x="1228.027344"/>
    <use xlink:href="#DejaVuSans-72" x="1291.503906"/>
    <use xlink:href="#DejaVuSans-65" x="1330.367188"/>
    <use xlink:href="#DejaVuSans-2d" x="1391.890625"/>
    <use xlink:href="#DejaVuSans-73" x="1427.974609"/>
    <use xlink:href="#DejaVuSans-68" x="1480.074219"/>
    <use xlink:href="#DejaVuSans-6f" x="1543.453125"/>
    <use xlink:href="#DejaVuSans-63" x="1604.634766"/>
    <use xlink:href="#DejaVuSans-6b" x="1659.615234"/>
    <use xlink:href="#DejaVuSans-20" x="1717.525391"/>
    <use xlink:href="#DejaVuSans-6c" x="1749.3125"/>
    <use xlink:href="#DejaVuSans-65" x="1777.095703"/>
    <use xlink:href="#DejaVuSans-76" x="1838.619141"/>
    <use xlink:href="#DejaVuSans-65" x="1897.798828"/>
    <use xlink:href="#DejaVuSans-6c" x="1959.322266"/>
   </g>
  </g>
  <g id="legend_1">
   <g id="patch_20">
    <path d="M 11.82 584.31675 
L 1292.617547 584.31675 
Q 1297.237547 584.31675 1297.237547 579.69675 
L 1297.237547 476.97 
Q 1297.237547 472.35 1292.617547 472.35 
L 11.82 472.35 
Q 7.2 472.35 7.2 476.97 
L 7.2 579.69675 
Q 7.2 584.31675 11.82 584.31675 
z
" style="fill: #eaeaf2; opacity: 0.8; stroke: #cccccc; stroke-linejoin: miter"/>
   </g>
   <g id="text_29">
    <!-- Experiences -->
    <g style="fill: #262626" transform="translate(575.384367 500.738062) scale(0.252 -0.252)">
     <defs>
      <path id="DejaVuSans-45" d="M 628 4666 
L 3578 4666 
L 3578 4134 
L 1259 4134 
L 1259 2753 
L 3481 2753 
L 3481 2222 
L 1259 2222 
L 1259 531 
L 3634 531 
L 3634 0 
L 628 0 
L 628 4666 
z
" transform="scale(0.015625)"/>
      <path id="DejaVuSans-78" d="M 3513 3500 
L 2247 1797 
L 3578 0 
L 2900 0 
L 1881 1375 
L 863 0 
L 184 0 
L 1544 1831 
L 300 3500 
L 978 3500 
L 1906 2253 
L 2834 3500 
L 3513 3500 
z
" transform="scale(0.015625)"/>
     </defs>
     <use xlink:href="#DejaVuSans-45"/>
     <use xlink:href="#DejaVuSans-78" x="63.183594"/>
     <use xlink:href="#DejaVuSans-70" x="122.363281"/>
     <use xlink:href="#DejaVuSans-65" x="185.839844"/>
     <use xlink:href="#DejaVuSans-72" x="247.363281"/>
     <use xlink:href="#DejaVuSans-69" x="288.476562"/>
     <use xlink:href="#DejaVuSans-65" x="316.259766"/>
     <use xlink:href="#DejaVuSans-6e" x="377.783203"/>
     <use xlink:href="#DejaVuSans-63" x="441.162109"/>
     <use xlink:href="#DejaVuSans-65" x="496.142578"/>
     <use xlink:href="#DejaVuSans-73" x="557.666016"/>
    </g>
   </g>
   <g id="line2d_73">
    <path d="M 16.44 526.996266 
L 39.54 526.996266 
L 62.64 526.996266 
" style="fill: none; stroke: #4c72b0; stroke-opacity: 0.9; stroke-width: 3; stroke-linecap: round"/>
   </g>
   <g id="text_30">
    <!-- eora26_full_2000 -->
    <g style="fill: #262626" transform="translate(81.12 535.081266) scale(0.231 -0.231)">
     <defs>
      <path id="DejaVuSans-5f" d="M 3263 -1063 
L 3263 -1509 
L -63 -1509 
L -63 -1063 
L 3263 -1063 
z
" transform="scale(0.015625)"/>
     </defs>
     <use xlink:href="#DejaVuSans-65"/>
     <use xlink:href="#DejaVuSans-6f" x="61.523438"/>
     <use xlink:href="#DejaVuSans-72" x="122.705078"/>
     <use xlink:href="#DejaVuSans-61" x="163.818359"/>
     <use xlink:href="#DejaVuSans-32" x="225.097656"/>
     <use xlink:href="#DejaVuSans-36" x="288.720703"/>
     <use xlink:href="#DejaVuSans-5f" x="352.34375"/>
     <use xlink:href="#DejaVuSans-66" x="402.34375"/>
     <use xlink:href="#DejaVuSans-75" x="437.548828"/>
     <use xlink:href="#DejaVuSans-6c" x="500.927734"/>
     <use xlink:href="#DejaVuSans-6c" x="528.710938"/>
     <use xlink:href="#DejaVuSans-5f" x="556.494141"/>
     <use xlink:href="#DejaVuSans-32" x="606.494141"/>
     <use xlink:href="#DejaVuSans-30" x="670.117188"/>
     <use xlink:href="#DejaVuSans-30" x="733.740234"/>
     <use xlink:href="#DejaVuSans-30" x="797.363281"/>
    </g>
   </g>
   <g id="line2d_74">
    <path d="M 16.44 561.545203 
L 39.54 561.545203 
L 62.64 561.545203 
" style="fill: none; stroke: #dd8452; stroke-opacity: 0.9; stroke-width: 3; stroke-linecap: round"/>
   </g>
   <g id="text_31">
    <!-- eora26_full_2010 -->
    <g style="fill: #262626" transform="translate(81.12 569.630203) scale(0.231 -0.231)">
     <defs>
      <path id="DejaVuSans-31" d="M 794 531 
L 1825 531 
L 1825 4091 
L 703 3866 
L 703 4441 
L 1819 4666 
L 2450 4666 
L 2450 531 
L 3481 531 
L 3481 0 
L 794 0 
L 794 531 
z
" transform="scale(0.015625)"/>
     </defs>
     <use xlink:href="#DejaVuSans-65"/>
     <use xlink:href="#DejaVuSans-6f" x="61.523438"/>
     <use xlink:href="#DejaVuSans-72" x="122.705078"/>
     <use xlink:href="#DejaVuSans-61" x="163.818359"/>
     <use xlink:href="#DejaVuSans-32" x="225.097656"/>
     <use xlink:href="#DejaVuSans-36" x="288.720703"/>
     <use xlink:href="#DejaVuSans-5f" x="352.34375"/>
     <use xlink:href="#DejaVuSans-66" x="402.34375"/>
     <use xlink:href="#DejaVuSans-75" x="437.548828"/>
     <use xlink:href="#DejaVuSans-6c" x="500.927734"/>
     <use xlink:href="#DejaVuSans-6c" x="528.710938"/>
     <use xlink:href="#DejaVuSans-5f" x="556.494141"/>
     <use xlink:href="#DejaVuSans-32" x="606.494141"/>
     <use xlink:href="#DejaVuSans-30" x="670.117188"/>
     <use xlink:href="#DejaVuSans-31" x="733.740234"/>
     <use xlink:href="#DejaVuSans-30" x="797.363281"/>
    </g>
   </g>
   <g id="line2d_75">
    <path d="M 326.211 526.996266 
L 349.311 526.996266 
L 372.411 526.996266 
" style="fill: none; stroke: #55a868; stroke-opacity: 0.9; stroke-width: 3; stroke-linecap: round"/>
   </g>
   <g id="text_32">
    <!-- euregio_full_2000 -->
    <g style="fill: #262626" transform="translate(390.891 535.081266) scale(0.231 -0.231)">
     <use xlink:href="#DejaVuSans-65"/>
     <use xlink:href="#DejaVuSans-75" x="61.523438"/>
     <use xlink:href="#DejaVuSans-72" x="124.902344"/>
     <use xlink:href="#DejaVuSans-65" x="163.765625"/>
     <use xlink:href="#DejaVuSans-67" x="225.289062"/>
     <use xlink:href="#DejaVuSans-69" x="288.765625"/>
     <use xlink:href="#DejaVuSans-6f" x="316.548828"/>
     <use xlink:href="#DejaVuSans-5f" x="377.730469"/>
     <use xlink:href="#DejaVuSans-66" x="427.730469"/>
     <use xlink:href="#DejaVuSans-75" x="462.935547"/>
     <use xlink:href="#DejaVuSans-6c" x="526.314453"/>
     <use xlink:href="#DejaVuSans-6c" x="554.097656"/>
     <use xlink:href="#DejaVuSans-5f" x="581.880859"/>
     <use xlink:href="#DejaVuSans-32" x="631.880859"/>
     <use xlink:href="#DejaVuSans-30" x="695.503906"/>
     <use xlink:href="#DejaVuSans-30" x="759.126953"/>
     <use xlink:href="#DejaVuSans-30" x="822.75"/>
    </g>
   </g>
   <g id="line2d_76">
    <path d="M 326.211 561.545203 
L 349.311 561.545203 
L 372.411 561.545203 
" style="fill: none; stroke: #c44e52; stroke-opacity: 0.9; stroke-width: 3; stroke-linecap: round"/>
   </g>
   <g id="text_33">
    <!-- euregio_full_2010 -->
    <g style="fill: #262626" transform="translate(390.891 569.630203) scale(0.231 -0.231)">
     <use xlink:href="#DejaVuSans-65"/>
     <use xlink:href="#DejaVuSans-75" x="61.523438"/>
     <use xlink:href="#DejaVuSans-72" x="124.902344"/>
     <use xlink:href="#DejaVuSans-65" x="163.765625"/>
     <use xlink:href="#DejaVuSans-67" x="225.289062"/>
     <use xlink:href="#DejaVuSans-69" x="288.765625"/>
     <use xlink:href="#DejaVuSans-6f" x="316.548828"/>
     <use xlink:href="#DejaVuSans-5f" x="377.730469"/>
     <use xlink:href="#DejaVuSans-66" x="427.730469"/>
     <use xlink:href="#DejaVuSans-75" x="462.935547"/>
     <use xlink:href="#DejaVuSans-6c" x="526.314453"/>
     <use xlink:href="#DejaVuSans-6c" x="554.097656"/>
     <use xlink:href="#DejaVuSans-5f" x="581.880859"/>
     <use xlink:href="#DejaVuSans-32" x="631.880859"/>
     <use xlink:href="#DejaVuSans-30" x="695.503906"/>
     <use xlink:href="#DejaVuSans-31" x="759.126953"/>
     <use xlink:href="#DejaVuSans-30" x="822.75"/>
    </g>
   </g>
   <g id="line2d_77">
    <path d="M 641.847234 526.996266 
L 664.947234 526.996266 
L 688.047234 526.996266 
" style="fill: none; stroke: #8172b3; stroke-opacity: 0.9; stroke-width: 3; stroke-linecap: round"/>
   </g>
   <g id="text_34">
    <!-- exiobase3_full_2000 -->
    <g style="fill: #262626" transform="translate(706.527234 535.081266) scale(0.231 -0.231)">
     <defs>
      <path id="DejaVuSans-62" d="M 3116 1747 
Q 3116 2381 2855 2742 
Q 2594 3103 2138 3103 
Q 1681 3103 1420 2742 
Q 1159 2381 1159 1747 
Q 1159 1113 1420 752 
Q 1681 391 2138 391 
Q 2594 391 2855 752 
Q 3116 1113 3116 1747 
z
M 1159 2969 
Q 1341 3281 1617 3432 
Q 1894 3584 2278 3584 
Q 2916 3584 3314 3078 
Q 3713 2572 3713 1747 
Q 3713 922 3314 415 
Q 2916 -91 2278 -91 
Q 1894 -91 1617 61 
Q 1341 213 1159 525 
L 1159 0 
L 581 0 
L 581 4863 
L 1159 4863 
L 1159 2969 
z
" transform="scale(0.015625)"/>
     </defs>
     <use xlink:href="#DejaVuSans-65"/>
     <use xlink:href="#DejaVuSans-78" x="59.773438"/>
     <use xlink:href="#DejaVuSans-69" x="118.953125"/>
     <use xlink:href="#DejaVuSans-6f" x="146.736328"/>
     <use xlink:href="#DejaVuSans-62" x="207.917969"/>
     <use xlink:href="#DejaVuSans-61" x="271.394531"/>
     <use xlink:href="#DejaVuSans-73" x="332.673828"/>
     <use xlink:href="#DejaVuSans-65" x="384.773438"/>
     <use xlink:href="#DejaVuSans-33" x="446.296875"/>
     <use xlink:href="#DejaVuSans-5f" x="509.919922"/>
     <use xlink:href="#DejaVuSans-66" x="559.919922"/>
     <use xlink:href="#DejaVuSans-75" x="595.125"/>
     <use xlink:href="#DejaVuSans-6c" x="658.503906"/>
     <use xlink:href="#DejaVuSans-6c" x="686.287109"/>
     <use xlink:href="#DejaVuSans-5f" x="714.070312"/>
     <use xlink:href="#DejaVuSans-32" x="764.070312"/>
     <use xlink:href="#DejaVuSans-30" x="827.693359"/>
     <use xlink:href="#DejaVuSans-30" x="891.316406"/>
     <use xlink:href="#DejaVuSans-30" x="954.939453"/>
    </g>
   </g>
   <g id="line2d_78">
    <path d="M 988.022391 526.996266 
L 1011.122391 526.996266 
L 1034.222391 526.996266 
" style="fill: none; stroke: #937860; stroke-opacity: 0.9; stroke-width: 3; stroke-linecap: round"/>
   </g>
   <g id="text_35">
    <!-- exiobase3_full_2010 -->
    <g style="fill: #262626" transform="translate(1052.702391 535.081266) scale(0.231 -0.231)">
     <use xlink:href="#DejaVuSans-65"/>
     <use xlink:href="#DejaVuSans-78" x="59.773438"/>
     <use xlink:href="#DejaVuSans-69" x="118.953125"/>
     <use xlink:href="#DejaVuSans-6f" x="146.736328"/>
     <use xlink:href="#DejaVuSans-62" x="207.917969"/>
     <use xlink:href="#DejaVuSans-61" x="271.394531"/>
     <use xlink:href="#DejaVuSans-73" x="332.673828"/>
     <use xlink:href="#DejaVuSans-65" x="384.773438"/>
     <use xlink:href="#DejaVuSans-33" x="446.296875"/>
     <use xlink:href="#DejaVuSans-5f" x="509.919922"/>
     <use xlink:href="#DejaVuSans-66" x="559.919922"/>
     <use xlink:href="#DejaVuSans-75" x="595.125"/>
     <use xlink:href="#DejaVuSans-6c" x="658.503906"/>
     <use xlink:href="#DejaVuSans-6c" x="686.287109"/>
     <use xlink:href="#DejaVuSans-5f" x="714.070312"/>
     <use xlink:href="#DejaVuSans-32" x="764.070312"/>
     <use xlink:href="#DejaVuSans-30" x="827.693359"/>
     <use xlink:href="#DejaVuSans-31" x="891.316406"/>
     <use xlink:href="#DejaVuSans-30" x="954.939453"/>
    </g>
   </g>
  </g>
 </g>
 <defs>
  <clipPath id="p71a5001a25">
   <rect x="170.340091" y="81.456" width="292.369069" height="119.514099"/>
  </clipPath>
  <clipPath id="p2a739c684a">
   <rect x="489.290298" y="81.456" width="292.369069" height="119.514099"/>
  </clipPath>
  <clipPath id="pdbac5a9fc6">
   <rect x="808.240504" y="81.456" width="292.369069" height="119.514099"/>
  </clipPath>
  <clipPath id="p4d92eca0f6">
   <rect x="170.340091" y="253.769901" width="292.369069" height="119.514099"/>
  </clipPath>
  <clipPath id="pea818efff0">
   <rect x="489.290298" y="253.769901" width="292.369069" height="119.514099"/>
  </clipPath>
  <clipPath id="pefae5aae85">
   <rect x="808.240504" y="253.769901" width="292.369069" height="119.514099"/>
  </clipPath>
 </defs>
</svg>
