<?xml version="1.0" encoding="utf-8" standalone="no"?>
<!DOCTYPE svg PUBLIC "-//W3C//DTD SVG 1.1//EN"
  "http://www.w3.org/Graphics/SVG/1.1/DTD/svg11.dtd">
<svg xmlns:xlink="http://www.w3.org/1999/xlink" width="1304.437547pt" height="591.51675pt" viewBox="0 0 1304.437547 591.51675" xmlns="http://www.w3.org/2000/svg" version="1.1">
 <metadata>
  <rdf:RDF xmlns:dc="http://purl.org/dc/elements/1.1/" xmlns:cc="http://creativecommons.org/ns#" xmlns:rdf="http://www.w3.org/1999/02/22-rdf-syntax-ns#">
   <cc:Work>
    <dc:type rdf:resource="http://purl.org/dc/dcmitype/StillImage"/>
    <dc:date>2023-04-07T18:31:40.371327</dc:date>
    <dc:format>image/svg+xml</dc:format>
    <dc:creator>
     <cc:Agent>
      <dc:title>Matplotlib v3.7.1, https://matplotlib.org/</dc:title>
     </cc:Agent>
    </dc:creator>
   </cc:Work>
  </rdf:RDF>
 </metadata>
 <defs>
  <style type="text/css">*{stroke-linejoin: round; stroke-linecap: butt}</style>
 </defs>
 <g id="figure_1">
  <g id="patch_1">
   <path d="M 0 591.51675 
L 1304.437547 591.51675 
L 1304.437547 -0 
L 0 -0 
z
" style="fill: #ffffff"/>
  </g>
  <g id="axes_1">
   <g id="patch_2">
    <path d="M 142.032503 197.432644 
L 443.709706 197.432644 
L 443.709706 81.456 
L 142.032503 81.456 
z
" style="fill: #eaeaf2"/>
   </g>
   <g id="matplotlib.axis_1">
    <g id="xtick_1">
     <g id="line2d_1">
      <path d="M 155.745103 197.432644 
L 155.745103 81.456 
" clip-path="url(#p76ae618bd5)" style="fill: none; stroke: #ffffff; stroke-linecap: round"/>
     </g>
    </g>
    <g id="xtick_2">
     <g id="line2d_2">
      <path d="M 249.795858 197.432644 
L 249.795858 81.456 
" clip-path="url(#p76ae618bd5)" style="fill: none; stroke: #ffffff; stroke-linecap: round"/>
     </g>
    </g>
    <g id="xtick_3">
     <g id="line2d_3">
      <path d="M 343.846614 197.432644 
L 343.846614 81.456 
" clip-path="url(#p76ae618bd5)" style="fill: none; stroke: #ffffff; stroke-linecap: round"/>
     </g>
    </g>
    <g id="xtick_4">
     <g id="line2d_4">
      <path d="M 437.897369 197.432644 
L 437.897369 81.456 
" clip-path="url(#p76ae618bd5)" style="fill: none; stroke: #ffffff; stroke-linecap: round"/>
     </g>
    </g>
   </g>
   <g id="matplotlib.axis_2">
    <g id="ytick_1">
     <g id="line2d_5">
      <path d="M 142.032503 191.077624 
L 443.709706 191.077624 
" clip-path="url(#p76ae618bd5)" style="fill: none; stroke: #ffffff; stroke-linecap: round"/>
     </g>
     <g id="text_1">
      <!-- −1 -->
      <g style="fill: #262626" transform="translate(98.47805 199.853819) scale(0.231 -0.231)">
       <defs>
        <path id="DejaVuSans-2212" d="M 678 2272 
L 4684 2272 
L 4684 1741 
L 678 1741 
L 678 2272 
z
" transform="scale(0.015625)"/>
        <path id="DejaVuSans-31" d="M 794 531 
L 1825 531 
L 1825 4091 
L 703 3866 
L 703 4441 
L 1819 4666 
L 2450 4666 
L 2450 531 
L 3481 531 
L 3481 0 
L 794 0 
L 794 531 
z
" transform="scale(0.015625)"/>
       </defs>
       <use xlink:href="#DejaVuSans-2212"/>
       <use xlink:href="#DejaVuSans-31" x="83.789062"/>
      </g>
     </g>
    </g>
    <g id="ytick_2">
     <g id="line2d_6">
      <path d="M 142.032503 126.393457 
L 443.709706 126.393457 
" clip-path="url(#p76ae618bd5)" style="fill: none; stroke: #ffffff; stroke-linecap: round"/>
     </g>
     <g id="text_2">
      <!-- 0 -->
      <g style="fill: #262626" transform="translate(117.835128 135.169652) scale(0.231 -0.231)">
       <defs>
        <path id="DejaVuSans-30" d="M 2034 4250 
Q 1547 4250 1301 3770 
Q 1056 3291 1056 2328 
Q 1056 1369 1301 889 
Q 1547 409 2034 409 
Q 2525 409 2770 889 
Q 3016 1369 3016 2328 
Q 3016 3291 2770 3770 
Q 2525 4250 2034 4250 
z
M 2034 4750 
Q 2819 4750 3233 4129 
Q 3647 3509 3647 2328 
Q 3647 1150 3233 529 
Q 2819 -91 2034 -91 
Q 1250 -91 836 529 
Q 422 1150 422 2328 
Q 422 3509 836 4129 
Q 1250 4750 2034 4750 
z
" transform="scale(0.015625)"/>
       </defs>
       <use xlink:href="#DejaVuSans-30"/>
      </g>
     </g>
    </g>
    <g id="text_3">
     <!-- % change -->
     <g style="fill: #262626" transform="translate(89.237237 201.792666) rotate(-90) scale(0.252 -0.252)">
      <defs>
       <path id="DejaVuSans-25" d="M 4653 2053 
Q 4381 2053 4226 1822 
Q 4072 1591 4072 1178 
Q 4072 772 4226 539 
Q 4381 306 4653 306 
Q 4919 306 5073 539 
Q 5228 772 5228 1178 
Q 5228 1588 5073 1820 
Q 4919 2053 4653 2053 
z
M 4653 2450 
Q 5147 2450 5437 2106 
Q 5728 1763 5728 1178 
Q 5728 594 5436 251 
Q 5144 -91 4653 -91 
Q 4153 -91 3862 251 
Q 3572 594 3572 1178 
Q 3572 1766 3864 2108 
Q 4156 2450 4653 2450 
z
M 1428 4353 
Q 1159 4353 1004 4120 
Q 850 3888 850 3481 
Q 850 3069 1003 2837 
Q 1156 2606 1428 2606 
Q 1700 2606 1854 2837 
Q 2009 3069 2009 3481 
Q 2009 3884 1853 4118 
Q 1697 4353 1428 4353 
z
M 4250 4750 
L 4750 4750 
L 1831 -91 
L 1331 -91 
L 4250 4750 
z
M 1428 4750 
Q 1922 4750 2215 4408 
Q 2509 4066 2509 3481 
Q 2509 2891 2217 2550 
Q 1925 2209 1428 2209 
Q 931 2209 642 2551 
Q 353 2894 353 3481 
Q 353 4063 643 4406 
Q 934 4750 1428 4750 
z
" transform="scale(0.015625)"/>
       <path id="DejaVuSans-20" transform="scale(0.015625)"/>
       <path id="DejaVuSans-63" d="M 3122 3366 
L 3122 2828 
Q 2878 2963 2633 3030 
Q 2388 3097 2138 3097 
Q 1578 3097 1268 2742 
Q 959 2388 959 1747 
Q 959 1106 1268 751 
Q 1578 397 2138 397 
Q 2388 397 2633 464 
Q 2878 531 3122 666 
L 3122 134 
Q 2881 22 2623 -34 
Q 2366 -91 2075 -91 
Q 1284 -91 818 406 
Q 353 903 353 1747 
Q 353 2603 823 3093 
Q 1294 3584 2113 3584 
Q 2378 3584 2631 3529 
Q 2884 3475 3122 3366 
z
" transform="scale(0.015625)"/>
       <path id="DejaVuSans-68" d="M 3513 2113 
L 3513 0 
L 2938 0 
L 2938 2094 
Q 2938 2591 2744 2837 
Q 2550 3084 2163 3084 
Q 1697 3084 1428 2787 
Q 1159 2491 1159 1978 
L 1159 0 
L 581 0 
L 581 4863 
L 1159 4863 
L 1159 2956 
Q 1366 3272 1645 3428 
Q 1925 3584 2291 3584 
Q 2894 3584 3203 3211 
Q 3513 2838 3513 2113 
z
" transform="scale(0.015625)"/>
       <path id="DejaVuSans-61" d="M 2194 1759 
Q 1497 1759 1228 1600 
Q 959 1441 959 1056 
Q 959 750 1161 570 
Q 1363 391 1709 391 
Q 2188 391 2477 730 
Q 2766 1069 2766 1631 
L 2766 1759 
L 2194 1759 
z
M 3341 1997 
L 3341 0 
L 2766 0 
L 2766 531 
Q 2569 213 2275 61 
Q 1981 -91 1556 -91 
Q 1019 -91 701 211 
Q 384 513 384 1019 
Q 384 1609 779 1909 
Q 1175 2209 1959 2209 
L 2766 2209 
L 2766 2266 
Q 2766 2663 2505 2880 
Q 2244 3097 1772 3097 
Q 1472 3097 1187 3025 
Q 903 2953 641 2809 
L 641 3341 
Q 956 3463 1253 3523 
Q 1550 3584 1831 3584 
Q 2591 3584 2966 3190 
Q 3341 2797 3341 1997 
z
" transform="scale(0.015625)"/>
       <path id="DejaVuSans-6e" d="M 3513 2113 
L 3513 0 
L 2938 0 
L 2938 2094 
Q 2938 2591 2744 2837 
Q 2550 3084 2163 3084 
Q 1697 3084 1428 2787 
Q 1159 2491 1159 1978 
L 1159 0 
L 581 0 
L 581 3500 
L 1159 3500 
L 1159 2956 
Q 1366 3272 1645 3428 
Q 1925 3584 2291 3584 
Q 2894 3584 3203 3211 
Q 3513 2838 3513 2113 
z
" transform="scale(0.015625)"/>
       <path id="DejaVuSans-67" d="M 2906 1791 
Q 2906 2416 2648 2759 
Q 2391 3103 1925 3103 
Q 1463 3103 1205 2759 
Q 947 2416 947 1791 
Q 947 1169 1205 825 
Q 1463 481 1925 481 
Q 2391 481 2648 825 
Q 2906 1169 2906 1791 
z
M 3481 434 
Q 3481 -459 3084 -895 
Q 2688 -1331 1869 -1331 
Q 1566 -1331 1297 -1286 
Q 1028 -1241 775 -1147 
L 775 -588 
Q 1028 -725 1275 -790 
Q 1522 -856 1778 -856 
Q 2344 -856 2625 -561 
Q 2906 -266 2906 331 
L 2906 616 
Q 2728 306 2450 153 
Q 2172 0 1784 0 
Q 1141 0 747 490 
Q 353 981 353 1791 
Q 353 2603 747 3093 
Q 1141 3584 1784 3584 
Q 2172 3584 2450 3431 
Q 2728 3278 2906 2969 
L 2906 3500 
L 3481 3500 
L 3481 434 
z
" transform="scale(0.015625)"/>
       <path id="DejaVuSans-65" d="M 3597 1894 
L 3597 1613 
L 953 1613 
Q 991 1019 1311 708 
Q 1631 397 2203 397 
Q 2534 397 2845 478 
Q 3156 559 3463 722 
L 3463 178 
Q 3153 47 2828 -22 
Q 2503 -91 2169 -91 
Q 1331 -91 842 396 
Q 353 884 353 1716 
Q 353 2575 817 3079 
Q 1281 3584 2069 3584 
Q 2775 3584 3186 3129 
Q 3597 2675 3597 1894 
z
M 3022 2063 
Q 3016 2534 2758 2815 
Q 2500 3097 2075 3097 
Q 1594 3097 1305 2825 
Q 1016 2553 972 2059 
L 3022 2063 
z
" transform="scale(0.015625)"/>
      </defs>
      <use xlink:href="#DejaVuSans-25"/>
      <use xlink:href="#DejaVuSans-20" x="95.019531"/>
      <use xlink:href="#DejaVuSans-63" x="126.806641"/>
      <use xlink:href="#DejaVuSans-68" x="181.787109"/>
      <use xlink:href="#DejaVuSans-61" x="245.166016"/>
      <use xlink:href="#DejaVuSans-6e" x="306.445312"/>
      <use xlink:href="#DejaVuSans-67" x="369.824219"/>
      <use xlink:href="#DejaVuSans-65" x="433.300781"/>
     </g>
    </g>
   </g>
   <g id="PolyCollection_1"/>
   <g id="PolyCollection_2"/>
   <g id="PolyCollection_3"/>
   <g id="PolyCollection_4"/>
   <g id="PolyCollection_5"/>
   <g id="PolyCollection_6"/>
   <g id="line2d_7">
    <path d="M 155.745103 126.393457 
L 156.121306 178.469684 
L 156.497509 180.110936 
L 156.873712 180.36412 
L 157.626118 180.004148 
L 161.388148 177.363741 
L 162.516757 173.418311 
L 164.397773 166.875604 
L 166.278788 161.073207 
L 168.159803 155.941484 
L 170.040818 151.378274 
L 171.921833 147.472278 
L 173.802848 144.000779 
L 175.683863 140.942923 
L 177.941081 137.743748 
L 180.198299 134.96244 
L 182.455518 132.545767 
L 184.712736 130.444951 
L 185.841345 129.606066 
L 188.474766 128.139519 
L 191.108187 126.914411 
L 194.117811 125.746085 
L 197.127435 124.810833 
L 199.008451 124.359724 
L 203.146684 123.838869 
L 207.284917 123.595301 
L 215.937587 123.403346 
L 226.095068 123.364907 
L 240.766986 123.687124 
L 254.686498 124.249344 
L 270.487025 124.409876 
L 304.7215 124.494932 
L 429.997106 124.513681 
L 429.997106 124.513681 
" clip-path="url(#p76ae618bd5)" style="fill: none; stroke: #4c72b0; stroke-opacity: 0.9; stroke-width: 3; stroke-linecap: round"/>
   </g>
   <g id="line2d_8">
    <path d="M 155.745103 126.393457 
L 156.121306 154.796124 
L 156.497509 155.912231 
L 156.873712 156.219029 
L 157.626118 156.176431 
L 160.259539 155.310177 
L 161.388148 154.93416 
L 162.140554 153.63424 
L 164.773976 148.689486 
L 167.031194 145.01693 
L 169.288412 141.825551 
L 171.54563 139.06691 
L 173.802848 136.679207 
L 176.060066 134.691133 
L 178.317284 132.983065 
L 180.950705 131.300189 
L 183.584127 129.871719 
L 186.217548 128.67551 
L 189.227172 127.757892 
L 192.612999 126.9301 
L 197.127435 126.056088 
L 200.889466 125.534673 
L 207.284917 125.039981 
L 214.432774 124.745436 
L 228.728489 124.551423 
L 246.786234 124.703319 
L 256.19131 124.823754 
L 264.843979 124.930462 
L 376.576277 125.121361 
L 429.997106 125.121751 
L 429.997106 125.121751 
" clip-path="url(#p76ae618bd5)" style="fill: none; stroke: #dd8452; stroke-opacity: 0.9; stroke-width: 3; stroke-linecap: round"/>
   </g>
   <g id="line2d_9">
    <path d="M 155.745103 126.393457 
L 156.121306 180.96558 
L 156.497509 183.736043 
L 156.873712 184.254487 
L 157.249915 184.211029 
L 158.378524 183.498209 
L 161.388148 181.423957 
L 162.516757 177.201634 
L 164.397773 170.191603 
L 166.278788 163.935985 
L 168.159803 158.378837 
L 170.040818 153.443886 
L 171.921833 149.076916 
L 173.802848 145.205042 
L 175.683863 141.778125 
L 177.564878 138.779215 
L 179.445893 136.168555 
L 181.703112 133.447722 
L 183.96033 131.099206 
L 185.465142 129.757167 
L 187.72236 128.157285 
L 189.979578 126.848278 
L 192.236796 125.792547 
L 194.870217 124.830496 
L 196.751232 124.34874 
L 199.760857 123.888421 
L 204.275293 123.459172 
L 209.165932 123.229578 
L 215.561383 123.171552 
L 221.956835 123.337119 
L 255.815107 124.490427 
L 273.496649 124.681881 
L 307.354921 124.77724 
L 429.997106 124.795097 
L 429.997106 124.795097 
" clip-path="url(#p76ae618bd5)" style="fill: none; stroke: #55a868; stroke-opacity: 0.9; stroke-width: 3; stroke-linecap: round"/>
   </g>
   <g id="line2d_10">
    <path d="M 155.745103 126.393457 
L 156.121306 169.282622 
L 156.497509 171.503467 
L 156.873712 171.90623 
L 157.249915 171.863173 
L 158.378524 171.284056 
L 161.388148 169.606865 
L 162.516757 166.293007 
L 164.773976 159.739474 
L 166.654991 154.924295 
L 168.536006 150.642096 
L 170.417021 146.844781 
L 172.298036 143.492483 
L 174.179051 140.525286 
L 176.060066 137.912685 
L 177.941081 135.625412 
L 179.822096 133.63458 
L 182.079315 131.565426 
L 184.336533 129.778092 
L 185.841345 128.781531 
L 188.098563 127.596751 
L 190.731984 126.468053 
L 193.365405 125.613785 
L 195.622623 125.074505 
L 199.384654 124.572491 
L 204.651496 124.167389 
L 210.670744 123.936067 
L 217.066196 123.902981 
L 230.609504 124.223517 
L 247.162437 124.641667 
L 263.339167 124.855709 
L 289.673379 124.980963 
L 361.904359 125.017525 
L 429.997106 125.018041 
L 429.997106 125.018041 
" clip-path="url(#p76ae618bd5)" style="fill: none; stroke: #c44e52; stroke-opacity: 0.9; stroke-width: 3; stroke-linecap: round"/>
   </g>
   <g id="line2d_11">
    <path d="M 155.745103 126.393457 
L 156.121306 176.390028 
L 156.497509 178.377859 
L 156.873712 178.51313 
L 157.626118 178.094196 
L 161.388148 175.567205 
L 165.526382 161.888375 
L 167.407397 156.683679 
L 169.288412 152.05881 
L 171.169427 147.950148 
L 173.050442 144.305685 
L 174.931457 141.07716 
L 176.812472 138.220208 
L 179.06969 135.272839 
L 181.326908 132.712345 
L 183.584127 130.483436 
L 185.088939 129.250807 
L 187.346157 127.748063 
L 189.979578 126.302047 
L 192.612999 125.229824 
L 195.24642 124.348147 
L 198.632247 123.491483 
L 202.394278 122.747459 
L 206.156308 122.242869 
L 208.789729 122.036169 
L 215.561383 122.037024 
L 221.204429 122.218401 
L 241.143189 123.533227 
L 245.281422 123.898058 
L 251.676874 124.19732 
L 262.210558 124.440277 
L 281.773115 124.59385 
L 324.66026 124.67204 
L 429.997106 124.683221 
L 429.997106 124.683221 
" clip-path="url(#p76ae618bd5)" style="fill: none; stroke: #8172b3; stroke-opacity: 0.9; stroke-width: 3; stroke-linecap: round"/>
   </g>
   <g id="line2d_12">
    <path d="M 155.745103 126.393457 
L 156.121306 166.511353 
L 156.497509 167.850192 
L 156.873712 167.952816 
L 158.002321 167.437257 
L 161.388148 165.70144 
L 165.526382 154.874995 
L 167.407397 150.756238 
L 169.288412 147.097244 
L 171.169427 143.857639 
L 173.426645 140.442585 
L 175.683863 137.47857 
L 177.941081 134.955739 
L 180.198299 132.770498 
L 182.455518 130.87872 
L 184.712736 129.256363 
L 186.217548 128.366186 
L 188.474766 127.304255 
L 191.48439 126.224537 
L 194.870217 125.288055 
L 198.632247 124.474292 
L 203.146684 123.769104 
L 207.66112 123.308258 
L 212.551759 123.145221 
L 220.07582 123.157506 
L 231.738113 123.400268 
L 241.895595 123.833129 
L 249.419655 124.325705 
L 257.319919 124.562099 
L 271.615634 124.71441 
L 300.583266 124.813545 
L 400.277067 124.840655 
L 429.997106 124.840643 
L 429.997106 124.840643 
" clip-path="url(#p76ae618bd5)" style="fill: none; stroke: #937860; stroke-opacity: 0.9; stroke-width: 3; stroke-linecap: round"/>
   </g>
   <g id="patch_3">
    <path d="M 142.032503 197.432644 
L 142.032503 81.456 
" style="fill: none; stroke: #ffffff; stroke-width: 1.25; stroke-linejoin: miter; stroke-linecap: square"/>
   </g>
   <g id="patch_4">
    <path d="M 142.032503 197.432644 
L 443.709706 197.432644 
" style="fill: none; stroke: #ffffff; stroke-width: 1.25; stroke-linejoin: miter; stroke-linecap: square"/>
   </g>
   <g id="text_4">
    <!-- 0.5~30 -->
    <g style="fill: #262626" transform="translate(246.241261 75.456) scale(0.252 -0.252)">
     <defs>
      <path id="DejaVuSans-2e" d="M 684 794 
L 1344 794 
L 1344 0 
L 684 0 
L 684 794 
z
" transform="scale(0.015625)"/>
      <path id="DejaVuSans-35" d="M 691 4666 
L 3169 4666 
L 3169 4134 
L 1269 4134 
L 1269 2991 
Q 1406 3038 1543 3061 
Q 1681 3084 1819 3084 
Q 2600 3084 3056 2656 
Q 3513 2228 3513 1497 
Q 3513 744 3044 326 
Q 2575 -91 1722 -91 
Q 1428 -91 1123 -41 
Q 819 9 494 109 
L 494 744 
Q 775 591 1075 516 
Q 1375 441 1709 441 
Q 2250 441 2565 725 
Q 2881 1009 2881 1497 
Q 2881 1984 2565 2268 
Q 2250 2553 1709 2553 
Q 1456 2553 1204 2497 
Q 953 2441 691 2322 
L 691 4666 
z
" transform="scale(0.015625)"/>
      <path id="DejaVuSans-7e" d="M 4684 2553 
L 4684 1997 
Q 4356 1750 4076 1644 
Q 3797 1538 3494 1538 
Q 3150 1538 2694 1722 
Q 2659 1734 2644 1741 
Q 2622 1750 2575 1766 
Q 2091 1959 1797 1959 
Q 1522 1959 1253 1839 
Q 984 1719 678 1459 
L 678 2016 
Q 1006 2263 1286 2370 
Q 1566 2478 1869 2478 
Q 2213 2478 2672 2291 
Q 2703 2278 2719 2272 
Q 2744 2263 2788 2247 
Q 3272 2053 3566 2053 
Q 3834 2053 4098 2172 
Q 4363 2291 4684 2553 
z
" transform="scale(0.015625)"/>
      <path id="DejaVuSans-33" d="M 2597 2516 
Q 3050 2419 3304 2112 
Q 3559 1806 3559 1356 
Q 3559 666 3084 287 
Q 2609 -91 1734 -91 
Q 1441 -91 1130 -33 
Q 819 25 488 141 
L 488 750 
Q 750 597 1062 519 
Q 1375 441 1716 441 
Q 2309 441 2620 675 
Q 2931 909 2931 1356 
Q 2931 1769 2642 2001 
Q 2353 2234 1838 2234 
L 1294 2234 
L 1294 2753 
L 1863 2753 
Q 2328 2753 2575 2939 
Q 2822 3125 2822 3475 
Q 2822 3834 2567 4026 
Q 2313 4219 1838 4219 
Q 1578 4219 1281 4162 
Q 984 4106 628 3988 
L 628 4550 
Q 988 4650 1302 4700 
Q 1616 4750 1894 4750 
Q 2613 4750 3031 4423 
Q 3450 4097 3450 3541 
Q 3450 3153 3228 2886 
Q 3006 2619 2597 2516 
z
" transform="scale(0.015625)"/>
     </defs>
     <use xlink:href="#DejaVuSans-30"/>
     <use xlink:href="#DejaVuSans-2e" x="63.623047"/>
     <use xlink:href="#DejaVuSans-35" x="95.410156"/>
     <use xlink:href="#DejaVuSans-7e" x="159.033203"/>
     <use xlink:href="#DejaVuSans-33" x="242.822266"/>
     <use xlink:href="#DejaVuSans-30" x="306.445312"/>
    </g>
   </g>
  </g>
  <g id="axes_2">
   <g id="patch_5">
    <path d="M 470.482436 197.432644 
L 772.15964 197.432644 
L 772.15964 81.456 
L 470.482436 81.456 
z
" style="fill: #eaeaf2"/>
   </g>
   <g id="matplotlib.axis_3">
    <g id="xtick_5">
     <g id="line2d_13">
      <path d="M 484.195037 197.432644 
L 484.195037 81.456 
" clip-path="url(#p620618e2c3)" style="fill: none; stroke: #ffffff; stroke-linecap: round"/>
     </g>
    </g>
    <g id="xtick_6">
     <g id="line2d_14">
      <path d="M 578.245792 197.432644 
L 578.245792 81.456 
" clip-path="url(#p620618e2c3)" style="fill: none; stroke: #ffffff; stroke-linecap: round"/>
     </g>
    </g>
    <g id="xtick_7">
     <g id="line2d_15">
      <path d="M 672.296548 197.432644 
L 672.296548 81.456 
" clip-path="url(#p620618e2c3)" style="fill: none; stroke: #ffffff; stroke-linecap: round"/>
     </g>
    </g>
    <g id="xtick_8">
     <g id="line2d_16">
      <path d="M 766.347303 197.432644 
L 766.347303 81.456 
" clip-path="url(#p620618e2c3)" style="fill: none; stroke: #ffffff; stroke-linecap: round"/>
     </g>
    </g>
   </g>
   <g id="matplotlib.axis_4">
    <g id="ytick_3">
     <g id="line2d_17">
      <path d="M 470.482436 191.077624 
L 772.15964 191.077624 
" clip-path="url(#p620618e2c3)" style="fill: none; stroke: #ffffff; stroke-linecap: round"/>
     </g>
    </g>
    <g id="ytick_4">
     <g id="line2d_18">
      <path d="M 470.482436 126.393457 
L 772.15964 126.393457 
" clip-path="url(#p620618e2c3)" style="fill: none; stroke: #ffffff; stroke-linecap: round"/>
     </g>
    </g>
   </g>
   <g id="PolyCollection_7"/>
   <g id="PolyCollection_8"/>
   <g id="PolyCollection_9"/>
   <g id="PolyCollection_10"/>
   <g id="PolyCollection_11"/>
   <g id="PolyCollection_12"/>
   <g id="line2d_19">
    <path d="M 484.195037 126.393457 
L 484.57124 178.469684 
L 484.947443 180.320614 
L 485.323646 180.816011 
L 486.076052 180.956341 
L 489.838082 180.741804 
L 490.590488 178.652999 
L 492.847706 171.964395 
L 494.728721 167.012988 
L 496.609736 162.582976 
L 498.866955 157.877817 
L 501.124173 153.760035 
L 503.381391 150.156703 
L 505.638609 147.002496 
L 507.895827 144.241221 
L 510.153045 141.823733 
L 512.410263 139.707007 
L 515.043684 137.567895 
L 517.677106 135.736833 
L 520.310527 134.171499 
L 523.320151 132.657419 
L 526.329775 131.387919 
L 529.339399 130.336628 
L 533.101429 129.281159 
L 537.239663 128.371685 
L 542.130302 127.544915 
L 547.773347 126.841389 
L 553.04019 126.403125 
L 558.683235 126.134358 
L 570.345529 125.840618 
L 586.146056 125.685906 
L 603.451395 125.712753 
L 619.251922 125.966072 
L 641.824103 126.08985 
L 686.592262 126.168061 
L 758.44704 126.195989 
L 758.44704 126.195989 
" clip-path="url(#p620618e2c3)" style="fill: none; stroke: #4c72b0; stroke-opacity: 0.9; stroke-width: 3; stroke-linecap: round"/>
   </g>
   <g id="line2d_20">
    <path d="M 484.195037 126.393457 
L 484.57124 154.796124 
L 484.947443 156.009343 
L 485.323646 156.42955 
L 486.076052 156.625739 
L 488.33327 156.594362 
L 489.838082 156.54942 
L 490.590488 155.480804 
L 493.600112 150.662888 
L 495.85733 147.539995 
L 498.114548 144.808642 
L 500.371767 142.418431 
L 502.628985 140.326322 
L 505.262406 138.212909 
L 507.895827 136.40353 
L 510.529248 134.854492 
L 513.538872 133.355128 
L 516.548497 132.099405 
L 519.934324 130.928154 
L 523.696354 129.872385 
L 527.834587 128.953378 
L 532.349023 128.1777 
L 536.86346 127.605843 
L 543.258911 127.029737 
L 550.782972 126.580265 
L 559.811844 126.294035 
L 576.364777 126.09807 
L 605.708613 126.013109 
L 649.724366 126.229552 
L 758.44704 126.264926 
L 758.44704 126.264926 
" clip-path="url(#p620618e2c3)" style="fill: none; stroke: #dd8452; stroke-opacity: 0.9; stroke-width: 3; stroke-linecap: round"/>
   </g>
   <g id="line2d_21">
    <path d="M 484.195037 126.393457 
L 484.57124 180.96558 
L 484.947443 183.942535 
L 485.323646 184.700575 
L 485.699849 184.904158 
L 486.828458 184.929778 
L 489.838082 184.740498 
L 490.590488 182.474381 
L 492.847706 175.294357 
L 494.728721 169.973223 
L 496.609736 165.21076 
L 498.866955 160.151997 
L 501.124173 155.724302 
L 503.381391 151.852428 
L 505.638609 148.463271 
L 507.895827 145.495495 
L 510.153045 142.897131 
L 512.410263 140.622033 
L 514.667481 138.629359 
L 517.300903 136.615626 
L 519.934324 134.890785 
L 522.567745 133.414885 
L 525.577369 131.989627 
L 528.586993 130.799903 
L 531.97282 129.694236 
L 535.734851 128.704564 
L 539.873084 127.866848 
L 544.763723 127.124156 
L 549.654362 126.594756 
L 556.80222 126.117624 
L 565.078686 125.78931 
L 576.364777 125.587193 
L 588.027071 125.612524 
L 636.181058 126.134139 
L 669.663126 126.219599 
L 758.44704 126.238507 
L 758.44704 126.238507 
" clip-path="url(#p620618e2c3)" style="fill: none; stroke: #55a868; stroke-opacity: 0.9; stroke-width: 3; stroke-linecap: round"/>
   </g>
   <g id="line2d_22">
    <path d="M 484.195037 126.393457 
L 484.57124 169.282622 
L 484.947443 171.669389 
L 485.323646 172.265573 
L 485.699849 172.421959 
L 486.828458 172.439855 
L 489.838082 172.29134 
L 490.590488 170.525393 
L 492.847706 164.88107 
L 495.104924 159.914434 
L 497.362142 155.566701 
L 499.619361 151.761041 
L 501.876579 148.429403 
L 504.133797 145.512877 
L 506.391015 142.959636 
L 508.648233 140.724045 
L 510.905451 138.766719 
L 513.538872 136.78874 
L 516.172294 135.09434 
L 518.805715 133.642955 
L 521.815339 132.238243 
L 525.201166 130.930052 
L 528.586993 129.86409 
L 532.349023 128.911256 
L 536.487257 128.088662 
L 541.001693 127.412511 
L 546.644738 126.798949 
L 551.535378 126.45669 
L 560.56425 126.064478 
L 571.474138 125.825279 
L 584.26504 125.773113 
L 674.553766 126.250126 
L 758.44704 126.262022 
L 758.44704 126.262022 
" clip-path="url(#p620618e2c3)" style="fill: none; stroke: #c44e52; stroke-opacity: 0.9; stroke-width: 3; stroke-linecap: round"/>
   </g>
   <g id="line2d_23">
    <path d="M 484.195037 126.393457 
L 484.57124 176.390028 
L 484.947443 178.601579 
L 485.323646 178.975539 
L 486.076052 179.035919 
L 489.838082 178.823753 
L 495.104924 164.557484 
L 497.362142 159.617416 
L 499.619361 155.294584 
L 501.876579 151.511505 
L 504.133797 148.200399 
L 506.391015 145.302125 
L 508.648233 142.764973 
L 510.905451 140.543653 
L 513.162669 138.598472 
L 515.79609 136.632073 
L 518.429512 134.946873 
L 521.439136 133.313696 
L 524.44876 131.944047 
L 527.834587 130.664727 
L 531.220414 129.615046 
L 534.982445 128.669544 
L 539.120678 127.851507 
L 544.011317 127.115966 
L 549.278159 126.534075 
L 555.297408 126.11596 
L 564.702483 125.746358 
L 575.988574 125.541514 
L 592.541507 125.52404 
L 637.68587 125.818459 
L 656.496021 125.987022 
L 709.164444 126.138128 
L 758.44704 126.173724 
L 758.44704 126.173724 
" clip-path="url(#p620618e2c3)" style="fill: none; stroke: #8172b3; stroke-opacity: 0.9; stroke-width: 3; stroke-linecap: round"/>
   </g>
   <g id="line2d_24">
    <path d="M 484.195037 126.393457 
L 484.57124 166.511353 
L 484.947443 168.021801 
L 485.323646 168.307018 
L 486.452255 168.339818 
L 489.838082 168.190469 
L 495.104924 156.828697 
L 497.362142 152.894471 
L 499.619361 149.452074 
L 501.876579 146.439867 
L 504.133797 143.803796 
L 506.391015 141.496717 
L 508.648233 139.477331 
L 511.281654 137.437569 
L 513.915075 135.691168 
L 516.548497 134.19531 
L 519.558121 132.746364 
L 522.567745 131.531684 
L 525.953572 130.397739 
L 529.715602 129.377541 
L 533.853836 128.485794 
L 538.368272 127.733524 
L 544.011317 127.042097 
L 550.030565 126.52569 
L 556.80222 126.166034 
L 565.078686 125.935475 
L 577.493386 125.803299 
L 601.194176 125.798314 
L 635.052448 125.977368 
L 667.782111 126.111753 
L 758.44704 126.201276 
L 758.44704 126.201276 
" clip-path="url(#p620618e2c3)" style="fill: none; stroke: #937860; stroke-opacity: 0.9; stroke-width: 3; stroke-linecap: round"/>
   </g>
   <g id="patch_6">
    <path d="M 470.482436 197.432644 
L 470.482436 81.456 
" style="fill: none; stroke: #ffffff; stroke-width: 1.25; stroke-linejoin: miter; stroke-linecap: square"/>
   </g>
   <g id="patch_7">
    <path d="M 470.482436 197.432644 
L 772.15964 197.432644 
" style="fill: none; stroke: #ffffff; stroke-width: 1.25; stroke-linejoin: miter; stroke-linecap: square"/>
   </g>
   <g id="text_5">
    <!-- 0.5~365 -->
    <g style="fill: #262626" transform="translate(566.674444 75.456) scale(0.252 -0.252)">
     <defs>
      <path id="DejaVuSans-36" d="M 2113 2584 
Q 1688 2584 1439 2293 
Q 1191 2003 1191 1497 
Q 1191 994 1439 701 
Q 1688 409 2113 409 
Q 2538 409 2786 701 
Q 3034 994 3034 1497 
Q 3034 2003 2786 2293 
Q 2538 2584 2113 2584 
z
M 3366 4563 
L 3366 3988 
Q 3128 4100 2886 4159 
Q 2644 4219 2406 4219 
Q 1781 4219 1451 3797 
Q 1122 3375 1075 2522 
Q 1259 2794 1537 2939 
Q 1816 3084 2150 3084 
Q 2853 3084 3261 2657 
Q 3669 2231 3669 1497 
Q 3669 778 3244 343 
Q 2819 -91 2113 -91 
Q 1303 -91 875 529 
Q 447 1150 447 2328 
Q 447 3434 972 4092 
Q 1497 4750 2381 4750 
Q 2619 4750 2861 4703 
Q 3103 4656 3366 4563 
z
" transform="scale(0.015625)"/>
     </defs>
     <use xlink:href="#DejaVuSans-30"/>
     <use xlink:href="#DejaVuSans-2e" x="63.623047"/>
     <use xlink:href="#DejaVuSans-35" x="95.410156"/>
     <use xlink:href="#DejaVuSans-7e" x="159.033203"/>
     <use xlink:href="#DejaVuSans-33" x="242.822266"/>
     <use xlink:href="#DejaVuSans-36" x="306.445312"/>
     <use xlink:href="#DejaVuSans-35" x="370.068359"/>
    </g>
   </g>
  </g>
  <g id="axes_3">
   <g id="patch_8">
    <path d="M 798.93237 197.432644 
L 1100.609573 197.432644 
L 1100.609573 81.456 
L 798.93237 81.456 
z
" style="fill: #eaeaf2"/>
   </g>
   <g id="matplotlib.axis_5">
    <g id="xtick_9">
     <g id="line2d_25">
      <path d="M 812.64497 197.432644 
L 812.64497 81.456 
" clip-path="url(#pa5a4476ddc)" style="fill: none; stroke: #ffffff; stroke-linecap: round"/>
     </g>
    </g>
    <g id="xtick_10">
     <g id="line2d_26">
      <path d="M 906.695726 197.432644 
L 906.695726 81.456 
" clip-path="url(#pa5a4476ddc)" style="fill: none; stroke: #ffffff; stroke-linecap: round"/>
     </g>
    </g>
    <g id="xtick_11">
     <g id="line2d_27">
      <path d="M 1000.746481 197.432644 
L 1000.746481 81.456 
" clip-path="url(#pa5a4476ddc)" style="fill: none; stroke: #ffffff; stroke-linecap: round"/>
     </g>
    </g>
    <g id="xtick_12">
     <g id="line2d_28">
      <path d="M 1094.797237 197.432644 
L 1094.797237 81.456 
" clip-path="url(#pa5a4476ddc)" style="fill: none; stroke: #ffffff; stroke-linecap: round"/>
     </g>
    </g>
   </g>
   <g id="matplotlib.axis_6">
    <g id="ytick_5">
     <g id="line2d_29">
      <path d="M 798.93237 191.077624 
L 1100.609573 191.077624 
" clip-path="url(#pa5a4476ddc)" style="fill: none; stroke: #ffffff; stroke-linecap: round"/>
     </g>
    </g>
    <g id="ytick_6">
     <g id="line2d_30">
      <path d="M 798.93237 126.393457 
L 1100.609573 126.393457 
" clip-path="url(#pa5a4476ddc)" style="fill: none; stroke: #ffffff; stroke-linecap: round"/>
     </g>
    </g>
   </g>
   <g id="PolyCollection_13"/>
   <g id="PolyCollection_14"/>
   <g id="PolyCollection_15"/>
   <g id="PolyCollection_16"/>
   <g id="PolyCollection_17"/>
   <g id="PolyCollection_18"/>
   <g id="line2d_31">
    <path d="M 812.64497 126.393457 
L 813.021173 178.469684 
L 813.397376 180.110936 
L 813.773579 180.36412 
L 814.525985 180.004148 
L 818.288016 177.363741 
L 819.416625 173.418311 
L 821.29764 166.875604 
L 823.178655 161.073207 
L 825.05967 155.941484 
L 826.940685 151.378274 
L 828.8217 147.472278 
L 830.702715 144.000779 
L 832.58373 140.942923 
L 834.840949 137.743748 
L 837.098167 134.96244 
L 839.355385 132.545767 
L 841.612603 130.444951 
L 842.741212 129.606066 
L 845.374633 128.139519 
L 848.008054 126.914411 
L 851.017679 125.746085 
L 854.027303 124.810833 
L 855.908318 124.359724 
L 860.046551 123.838869 
L 864.184784 123.595301 
L 872.837454 123.403346 
L 882.994935 123.364907 
L 897.666853 123.687124 
L 911.586365 124.249344 
L 927.386892 124.409876 
L 961.621367 124.494932 
L 1086.896973 124.513681 
L 1086.896973 124.513681 
" clip-path="url(#pa5a4476ddc)" style="fill: none; stroke: #4c72b0; stroke-opacity: 0.9; stroke-width: 3; stroke-linecap: round"/>
   </g>
   <g id="line2d_32">
    <path d="M 812.64497 126.393457 
L 813.021173 154.796124 
L 813.397376 155.912231 
L 813.773579 156.219029 
L 814.525985 156.176431 
L 817.159407 155.310177 
L 818.288016 154.93416 
L 819.040422 153.63424 
L 821.673843 148.689486 
L 823.931061 145.01693 
L 826.188279 141.825551 
L 828.445497 139.06691 
L 830.702715 136.679207 
L 832.959933 134.691133 
L 835.217152 132.983065 
L 837.850573 131.300189 
L 840.483994 129.871719 
L 843.117415 128.67551 
L 846.127039 127.757892 
L 849.512866 126.9301 
L 854.027303 126.056088 
L 857.789333 125.534673 
L 864.184784 125.039981 
L 871.332642 124.745436 
L 885.628357 124.551423 
L 903.686102 124.703319 
L 913.091177 124.823754 
L 921.743847 124.930462 
L 1033.476144 125.121361 
L 1086.896973 125.121751 
L 1086.896973 125.121751 
" clip-path="url(#pa5a4476ddc)" style="fill: none; stroke: #dd8452; stroke-opacity: 0.9; stroke-width: 3; stroke-linecap: round"/>
   </g>
   <g id="line2d_33">
    <path d="M 812.64497 126.393457 
L 813.021173 180.96558 
L 813.397376 183.736043 
L 813.773579 184.254487 
L 814.149782 184.211029 
L 815.278391 183.498209 
L 818.288016 181.423957 
L 819.416625 177.201634 
L 821.29764 170.191603 
L 823.178655 163.935985 
L 825.05967 158.378837 
L 826.940685 153.443886 
L 828.8217 149.076916 
L 830.702715 145.205042 
L 832.58373 141.778125 
L 834.464746 138.779215 
L 836.345761 136.168555 
L 838.602979 133.447722 
L 840.860197 131.099206 
L 842.365009 129.757167 
L 844.622227 128.157285 
L 846.879445 126.848278 
L 849.136663 125.792547 
L 851.770085 124.830496 
L 853.6511 124.34874 
L 856.660724 123.888421 
L 861.17516 123.459172 
L 866.065799 123.229578 
L 872.461251 123.171552 
L 878.856702 123.337119 
L 912.714974 124.490427 
L 930.396516 124.681881 
L 964.254788 124.77724 
L 1086.896973 124.795097 
L 1086.896973 124.795097 
" clip-path="url(#pa5a4476ddc)" style="fill: none; stroke: #55a868; stroke-opacity: 0.9; stroke-width: 3; stroke-linecap: round"/>
   </g>
   <g id="line2d_34">
    <path d="M 812.64497 126.393457 
L 813.021173 169.282622 
L 813.397376 171.503467 
L 813.773579 171.90623 
L 814.149782 171.863173 
L 815.278391 171.284056 
L 818.288016 169.606865 
L 819.416625 166.293007 
L 821.673843 159.739474 
L 823.554858 154.924295 
L 825.435873 150.642096 
L 827.316888 146.844781 
L 829.197903 143.492483 
L 831.078918 140.525286 
L 832.959933 137.912685 
L 834.840949 135.625412 
L 836.721964 133.63458 
L 838.979182 131.565426 
L 841.2364 129.778092 
L 842.741212 128.781531 
L 844.99843 127.596751 
L 847.631851 126.468053 
L 850.265272 125.613785 
L 852.522491 125.074505 
L 856.284521 124.572491 
L 861.551363 124.167389 
L 867.570611 123.936067 
L 873.966063 123.902981 
L 887.509372 124.223517 
L 904.062305 124.641667 
L 920.239035 124.855709 
L 946.573246 124.980963 
L 1018.804226 125.017525 
L 1086.896973 125.018041 
L 1086.896973 125.018041 
" clip-path="url(#pa5a4476ddc)" style="fill: none; stroke: #c44e52; stroke-opacity: 0.9; stroke-width: 3; stroke-linecap: round"/>
   </g>
   <g id="line2d_35">
    <path d="M 812.64497 126.393457 
L 813.021173 176.390028 
L 813.397376 178.377859 
L 813.773579 178.51313 
L 814.525985 178.094196 
L 818.288016 175.567205 
L 822.426249 161.888375 
L 824.307264 156.683679 
L 826.188279 152.05881 
L 828.069294 147.950148 
L 829.950309 144.305685 
L 831.831324 141.07716 
L 833.71234 138.220208 
L 835.969558 135.272839 
L 838.226776 132.712345 
L 840.483994 130.483436 
L 841.988806 129.250807 
L 844.246024 127.748063 
L 846.879445 126.302047 
L 849.512866 125.229824 
L 852.146288 124.348147 
L 855.532115 123.491483 
L 859.294145 122.747459 
L 863.056175 122.242869 
L 865.689596 122.036169 
L 872.461251 122.037024 
L 878.104296 122.218401 
L 898.043056 123.533227 
L 902.18129 123.898058 
L 908.576741 124.19732 
L 919.110426 124.440277 
L 938.672983 124.59385 
L 981.560127 124.67204 
L 1086.896973 124.683221 
L 1086.896973 124.683221 
" clip-path="url(#pa5a4476ddc)" style="fill: none; stroke: #8172b3; stroke-opacity: 0.9; stroke-width: 3; stroke-linecap: round"/>
   </g>
   <g id="line2d_36">
    <path d="M 812.64497 126.393457 
L 813.021173 166.511353 
L 813.397376 167.850192 
L 813.773579 167.952816 
L 814.902188 167.437257 
L 818.288016 165.70144 
L 822.426249 154.874995 
L 824.307264 150.756238 
L 826.188279 147.097244 
L 828.069294 143.857639 
L 830.326512 140.442585 
L 832.58373 137.47857 
L 834.840949 134.955739 
L 837.098167 132.770498 
L 839.355385 130.87872 
L 841.612603 129.256363 
L 843.117415 128.366186 
L 845.374633 127.304255 
L 848.384257 126.224537 
L 851.770085 125.288055 
L 855.532115 124.474292 
L 860.046551 123.769104 
L 864.560987 123.308258 
L 869.451627 123.145221 
L 876.975687 123.157506 
L 888.637981 123.400268 
L 898.795462 123.833129 
L 906.319523 124.325705 
L 914.219786 124.562099 
L 928.515501 124.71441 
L 957.483134 124.813545 
L 1057.176935 124.840655 
L 1086.896973 124.840643 
L 1086.896973 124.840643 
" clip-path="url(#pa5a4476ddc)" style="fill: none; stroke: #937860; stroke-opacity: 0.9; stroke-width: 3; stroke-linecap: round"/>
   </g>
   <g id="patch_9">
    <path d="M 798.93237 197.432644 
L 798.93237 81.456 
" style="fill: none; stroke: #ffffff; stroke-width: 1.25; stroke-linejoin: miter; stroke-linecap: square"/>
   </g>
   <g id="patch_10">
    <path d="M 798.93237 197.432644 
L 1100.609573 197.432644 
" style="fill: none; stroke: #ffffff; stroke-width: 1.25; stroke-linejoin: miter; stroke-linecap: square"/>
   </g>
   <g id="text_6">
    <!-- 0.8~30 -->
    <g style="fill: #262626" transform="translate(903.141128 75.456) scale(0.252 -0.252)">
     <defs>
      <path id="DejaVuSans-38" d="M 2034 2216 
Q 1584 2216 1326 1975 
Q 1069 1734 1069 1313 
Q 1069 891 1326 650 
Q 1584 409 2034 409 
Q 2484 409 2743 651 
Q 3003 894 3003 1313 
Q 3003 1734 2745 1975 
Q 2488 2216 2034 2216 
z
M 1403 2484 
Q 997 2584 770 2862 
Q 544 3141 544 3541 
Q 544 4100 942 4425 
Q 1341 4750 2034 4750 
Q 2731 4750 3128 4425 
Q 3525 4100 3525 3541 
Q 3525 3141 3298 2862 
Q 3072 2584 2669 2484 
Q 3125 2378 3379 2068 
Q 3634 1759 3634 1313 
Q 3634 634 3220 271 
Q 2806 -91 2034 -91 
Q 1263 -91 848 271 
Q 434 634 434 1313 
Q 434 1759 690 2068 
Q 947 2378 1403 2484 
z
M 1172 3481 
Q 1172 3119 1398 2916 
Q 1625 2713 2034 2713 
Q 2441 2713 2670 2916 
Q 2900 3119 2900 3481 
Q 2900 3844 2670 4047 
Q 2441 4250 2034 4250 
Q 1625 4250 1398 4047 
Q 1172 3844 1172 3481 
z
" transform="scale(0.015625)"/>
     </defs>
     <use xlink:href="#DejaVuSans-30"/>
     <use xlink:href="#DejaVuSans-2e" x="63.623047"/>
     <use xlink:href="#DejaVuSans-38" x="95.410156"/>
     <use xlink:href="#DejaVuSans-7e" x="159.033203"/>
     <use xlink:href="#DejaVuSans-33" x="242.822266"/>
     <use xlink:href="#DejaVuSans-30" x="306.445312"/>
    </g>
   </g>
  </g>
  <g id="axes_4">
   <g id="patch_11">
    <path d="M 142.032503 373.284 
L 443.709706 373.284 
L 443.709706 257.307356 
L 142.032503 257.307356 
z
" style="fill: #eaeaf2"/>
   </g>
   <g id="matplotlib.axis_7">
    <g id="xtick_13">
     <g id="line2d_37">
      <path d="M 155.745103 373.284 
L 155.745103 257.307356 
" clip-path="url(#p665cef9a2d)" style="fill: none; stroke: #ffffff; stroke-linecap: round"/>
     </g>
     <g id="text_7">
      <!-- 0 -->
      <g style="fill: #262626" transform="translate(148.396415 400.336391) scale(0.231 -0.231)">
       <use xlink:href="#DejaVuSans-30"/>
      </g>
     </g>
    </g>
    <g id="xtick_14">
     <g id="line2d_38">
      <path d="M 249.795858 373.284 
L 249.795858 257.307356 
" clip-path="url(#p665cef9a2d)" style="fill: none; stroke: #ffffff; stroke-linecap: round"/>
     </g>
     <g id="text_8">
      <!-- 250 -->
      <g style="fill: #262626" transform="translate(227.749796 400.336391) scale(0.231 -0.231)">
       <defs>
        <path id="DejaVuSans-32" d="M 1228 531 
L 3431 531 
L 3431 0 
L 469 0 
L 469 531 
Q 828 903 1448 1529 
Q 2069 2156 2228 2338 
Q 2531 2678 2651 2914 
Q 2772 3150 2772 3378 
Q 2772 3750 2511 3984 
Q 2250 4219 1831 4219 
Q 1534 4219 1204 4116 
Q 875 4013 500 3803 
L 500 4441 
Q 881 4594 1212 4672 
Q 1544 4750 1819 4750 
Q 2544 4750 2975 4387 
Q 3406 4025 3406 3419 
Q 3406 3131 3298 2873 
Q 3191 2616 2906 2266 
Q 2828 2175 2409 1742 
Q 1991 1309 1228 531 
z
" transform="scale(0.015625)"/>
       </defs>
       <use xlink:href="#DejaVuSans-32"/>
       <use xlink:href="#DejaVuSans-35" x="63.623047"/>
       <use xlink:href="#DejaVuSans-30" x="127.246094"/>
      </g>
     </g>
    </g>
    <g id="xtick_15">
     <g id="line2d_39">
      <path d="M 343.846614 373.284 
L 343.846614 257.307356 
" clip-path="url(#p665cef9a2d)" style="fill: none; stroke: #ffffff; stroke-linecap: round"/>
     </g>
     <g id="text_9">
      <!-- 500 -->
      <g style="fill: #262626" transform="translate(321.800551 400.336391) scale(0.231 -0.231)">
       <use xlink:href="#DejaVuSans-35"/>
       <use xlink:href="#DejaVuSans-30" x="63.623047"/>
       <use xlink:href="#DejaVuSans-30" x="127.246094"/>
      </g>
     </g>
    </g>
    <g id="xtick_16">
     <g id="line2d_40">
      <path d="M 437.897369 373.284 
L 437.897369 257.307356 
" clip-path="url(#p665cef9a2d)" style="fill: none; stroke: #ffffff; stroke-linecap: round"/>
     </g>
     <g id="text_10">
      <!-- 750 -->
      <g style="fill: #262626" transform="translate(415.851307 400.336391) scale(0.231 -0.231)">
       <defs>
        <path id="DejaVuSans-37" d="M 525 4666 
L 3525 4666 
L 3525 4397 
L 1831 0 
L 1172 0 
L 2766 4134 
L 525 4134 
L 525 4666 
z
" transform="scale(0.015625)"/>
       </defs>
       <use xlink:href="#DejaVuSans-37"/>
       <use xlink:href="#DejaVuSans-35" x="63.623047"/>
       <use xlink:href="#DejaVuSans-30" x="127.246094"/>
      </g>
     </g>
    </g>
    <g id="text_11">
     <!-- step -->
     <g style="fill: #262626" transform="translate(265.615729 428.288531) scale(0.252 -0.252)">
      <defs>
       <path id="DejaVuSans-73" d="M 2834 3397 
L 2834 2853 
Q 2591 2978 2328 3040 
Q 2066 3103 1784 3103 
Q 1356 3103 1142 2972 
Q 928 2841 928 2578 
Q 928 2378 1081 2264 
Q 1234 2150 1697 2047 
L 1894 2003 
Q 2506 1872 2764 1633 
Q 3022 1394 3022 966 
Q 3022 478 2636 193 
Q 2250 -91 1575 -91 
Q 1294 -91 989 -36 
Q 684 19 347 128 
L 347 722 
Q 666 556 975 473 
Q 1284 391 1588 391 
Q 1994 391 2212 530 
Q 2431 669 2431 922 
Q 2431 1156 2273 1281 
Q 2116 1406 1581 1522 
L 1381 1569 
Q 847 1681 609 1914 
Q 372 2147 372 2553 
Q 372 3047 722 3315 
Q 1072 3584 1716 3584 
Q 2034 3584 2315 3537 
Q 2597 3491 2834 3397 
z
" transform="scale(0.015625)"/>
       <path id="DejaVuSans-74" d="M 1172 4494 
L 1172 3500 
L 2356 3500 
L 2356 3053 
L 1172 3053 
L 1172 1153 
Q 1172 725 1289 603 
Q 1406 481 1766 481 
L 2356 481 
L 2356 0 
L 1766 0 
Q 1100 0 847 248 
Q 594 497 594 1153 
L 594 3053 
L 172 3053 
L 172 3500 
L 594 3500 
L 594 4494 
L 1172 4494 
z
" transform="scale(0.015625)"/>
       <path id="DejaVuSans-70" d="M 1159 525 
L 1159 -1331 
L 581 -1331 
L 581 3500 
L 1159 3500 
L 1159 2969 
Q 1341 3281 1617 3432 
Q 1894 3584 2278 3584 
Q 2916 3584 3314 3078 
Q 3713 2572 3713 1747 
Q 3713 922 3314 415 
Q 2916 -91 2278 -91 
Q 1894 -91 1617 61 
Q 1341 213 1159 525 
z
M 3116 1747 
Q 3116 2381 2855 2742 
Q 2594 3103 2138 3103 
Q 1681 3103 1420 2742 
Q 1159 2381 1159 1747 
Q 1159 1113 1420 752 
Q 1681 391 2138 391 
Q 2594 391 2855 752 
Q 3116 1113 3116 1747 
z
" transform="scale(0.015625)"/>
      </defs>
      <use xlink:href="#DejaVuSans-73"/>
      <use xlink:href="#DejaVuSans-74" x="52.099609"/>
      <use xlink:href="#DejaVuSans-65" x="91.308594"/>
      <use xlink:href="#DejaVuSans-70" x="152.832031"/>
     </g>
    </g>
   </g>
   <g id="matplotlib.axis_8">
    <g id="ytick_7">
     <g id="line2d_41">
      <path d="M 142.032503 366.92898 
L 443.709706 366.92898 
" clip-path="url(#p665cef9a2d)" style="fill: none; stroke: #ffffff; stroke-linecap: round"/>
     </g>
     <g id="text_12">
      <!-- −1 -->
      <g style="fill: #262626" transform="translate(98.47805 375.705175) scale(0.231 -0.231)">
       <use xlink:href="#DejaVuSans-2212"/>
       <use xlink:href="#DejaVuSans-31" x="83.789062"/>
      </g>
     </g>
    </g>
    <g id="ytick_8">
     <g id="line2d_42">
      <path d="M 142.032503 302.244813 
L 443.709706 302.244813 
" clip-path="url(#p665cef9a2d)" style="fill: none; stroke: #ffffff; stroke-linecap: round"/>
     </g>
     <g id="text_13">
      <!-- 0 -->
      <g style="fill: #262626" transform="translate(117.835128 311.021008) scale(0.231 -0.231)">
       <use xlink:href="#DejaVuSans-30"/>
      </g>
     </g>
    </g>
    <g id="text_14">
     <!-- % change -->
     <g style="fill: #262626" transform="translate(89.237237 377.644022) rotate(-90) scale(0.252 -0.252)">
      <use xlink:href="#DejaVuSans-25"/>
      <use xlink:href="#DejaVuSans-20" x="95.019531"/>
      <use xlink:href="#DejaVuSans-63" x="126.806641"/>
      <use xlink:href="#DejaVuSans-68" x="181.787109"/>
      <use xlink:href="#DejaVuSans-61" x="245.166016"/>
      <use xlink:href="#DejaVuSans-6e" x="306.445312"/>
      <use xlink:href="#DejaVuSans-67" x="369.824219"/>
      <use xlink:href="#DejaVuSans-65" x="433.300781"/>
     </g>
    </g>
   </g>
   <g id="PolyCollection_19"/>
   <g id="PolyCollection_20"/>
   <g id="PolyCollection_21"/>
   <g id="PolyCollection_22"/>
   <g id="PolyCollection_23"/>
   <g id="PolyCollection_24"/>
   <g id="line2d_43">
    <path d="M 155.745103 302.244813 
L 156.121306 354.321039 
L 156.497509 356.17197 
L 156.873712 356.667367 
L 157.626118 356.807697 
L 161.388148 356.59316 
L 162.140554 354.504354 
L 164.397773 347.815751 
L 166.278788 342.864344 
L 168.159803 338.434332 
L 170.417021 333.729172 
L 172.674239 329.611391 
L 174.931457 326.008059 
L 177.188675 322.853852 
L 179.445893 320.092576 
L 181.703112 317.675089 
L 183.96033 315.558363 
L 186.593751 313.419251 
L 189.227172 311.588189 
L 191.860593 310.022855 
L 194.870217 308.508775 
L 197.879841 307.239274 
L 200.889466 306.187983 
L 204.651496 305.132514 
L 208.789729 304.223041 
L 213.680368 303.396271 
L 219.323414 302.692744 
L 224.590256 302.254481 
L 230.233301 301.985714 
L 241.895595 301.691974 
L 257.696122 301.537261 
L 275.001461 301.564109 
L 290.801988 301.817428 
L 313.374169 301.941206 
L 358.142329 302.019417 
L 429.997106 302.047345 
L 429.997106 302.047345 
" clip-path="url(#p665cef9a2d)" style="fill: none; stroke: #4c72b0; stroke-opacity: 0.9; stroke-width: 3; stroke-linecap: round"/>
   </g>
   <g id="line2d_44">
    <path d="M 155.745103 302.244813 
L 156.121306 330.64748 
L 156.497509 331.860699 
L 156.873712 332.280905 
L 157.626118 332.477095 
L 159.883336 332.445717 
L 161.388148 332.400776 
L 162.140554 331.332159 
L 165.150179 326.514244 
L 167.407397 323.391351 
L 169.664615 320.659998 
L 171.921833 318.269787 
L 174.179051 316.177678 
L 176.812472 314.064265 
L 179.445893 312.254886 
L 182.079315 310.705848 
L 185.088939 309.206484 
L 188.098563 307.950761 
L 191.48439 306.77951 
L 195.24642 305.723741 
L 199.384654 304.804734 
L 203.89909 304.029056 
L 208.413526 303.457199 
L 214.808977 302.881092 
L 222.333038 302.431621 
L 231.36191 302.14539 
L 247.914843 301.949426 
L 277.258679 301.864465 
L 321.274433 302.080908 
L 429.997106 302.116281 
L 429.997106 302.116281 
" clip-path="url(#p665cef9a2d)" style="fill: none; stroke: #dd8452; stroke-opacity: 0.9; stroke-width: 3; stroke-linecap: round"/>
   </g>
   <g id="line2d_45">
    <path d="M 155.745103 302.244813 
L 156.121306 356.816936 
L 156.497509 359.793891 
L 156.873712 360.55193 
L 157.249915 360.755513 
L 158.378524 360.781133 
L 161.388148 360.591853 
L 162.140554 358.325737 
L 164.397773 351.145713 
L 166.278788 345.824579 
L 168.159803 341.062116 
L 170.417021 336.003352 
L 172.674239 331.575658 
L 174.931457 327.703783 
L 177.188675 324.314627 
L 179.445893 321.34685 
L 181.703112 318.748487 
L 183.96033 316.473389 
L 186.217548 314.480715 
L 188.850969 312.466982 
L 191.48439 310.742141 
L 194.117811 309.26624 
L 197.127435 307.840983 
L 200.13706 306.651258 
L 203.522887 305.545592 
L 207.284917 304.55592 
L 211.42315 303.718203 
L 216.31379 302.975512 
L 221.204429 302.446112 
L 228.352286 301.96898 
L 236.628753 301.640666 
L 247.914843 301.438549 
L 259.577137 301.463879 
L 307.731124 301.985495 
L 341.213193 302.070955 
L 429.997106 302.089862 
L 429.997106 302.089862 
" clip-path="url(#p665cef9a2d)" style="fill: none; stroke: #55a868; stroke-opacity: 0.9; stroke-width: 3; stroke-linecap: round"/>
   </g>
   <g id="line2d_46">
    <path d="M 155.745103 302.244813 
L 156.121306 345.133978 
L 156.497509 347.520745 
L 156.873712 348.116929 
L 157.249915 348.273315 
L 158.378524 348.291211 
L 161.388148 348.142695 
L 162.140554 346.376749 
L 164.397773 340.732426 
L 166.654991 335.76579 
L 168.912209 331.418057 
L 171.169427 327.612397 
L 173.426645 324.280759 
L 175.683863 321.364233 
L 177.941081 318.810992 
L 180.198299 316.575401 
L 182.455518 314.618074 
L 185.088939 312.640096 
L 187.72236 310.945696 
L 190.355781 309.494311 
L 193.365405 308.089599 
L 196.751232 306.781407 
L 200.13706 305.715446 
L 203.89909 304.762611 
L 208.037323 303.940018 
L 212.551759 303.263867 
L 218.194805 302.650305 
L 223.085444 302.308046 
L 232.114316 301.915834 
L 243.024204 301.676634 
L 255.815107 301.624468 
L 346.103832 302.101481 
L 429.997106 302.113377 
L 429.997106 302.113377 
" clip-path="url(#p665cef9a2d)" style="fill: none; stroke: #c44e52; stroke-opacity: 0.9; stroke-width: 3; stroke-linecap: round"/>
   </g>
   <g id="line2d_47">
    <path d="M 155.745103 302.244813 
L 156.121306 352.241383 
L 156.497509 354.452935 
L 156.873712 354.826894 
L 157.626118 354.887275 
L 161.388148 354.675109 
L 166.654991 340.40884 
L 168.912209 335.468771 
L 171.169427 331.14594 
L 173.426645 327.362861 
L 175.683863 324.051755 
L 177.941081 321.15348 
L 180.198299 318.616329 
L 182.455518 316.395009 
L 184.712736 314.449828 
L 187.346157 312.483428 
L 189.979578 310.798229 
L 192.989202 309.165052 
L 195.998826 307.795403 
L 199.384654 306.516083 
L 202.770481 305.466402 
L 206.532511 304.520899 
L 210.670744 303.702863 
L 215.561383 302.967322 
L 220.828226 302.38543 
L 226.847474 301.967315 
L 236.25255 301.597713 
L 247.53864 301.392869 
L 264.091573 301.375396 
L 309.235936 301.669814 
L 328.046087 301.838377 
L 380.71451 301.989484 
L 429.997106 302.02508 
L 429.997106 302.02508 
" clip-path="url(#p665cef9a2d)" style="fill: none; stroke: #8172b3; stroke-opacity: 0.9; stroke-width: 3; stroke-linecap: round"/>
   </g>
   <g id="line2d_48">
    <path d="M 155.745103 302.244813 
L 156.121306 342.362708 
L 156.497509 343.873156 
L 156.873712 344.158374 
L 158.002321 344.191173 
L 161.388148 344.041825 
L 166.654991 332.680052 
L 168.912209 328.745827 
L 171.169427 325.30343 
L 173.426645 322.291223 
L 175.683863 319.655151 
L 177.941081 317.348073 
L 180.198299 315.328687 
L 182.831721 313.288925 
L 185.465142 311.542524 
L 188.098563 310.046666 
L 191.108187 308.59772 
L 194.117811 307.38304 
L 197.503638 306.249095 
L 201.265669 305.228897 
L 205.403902 304.337149 
L 209.918338 303.58488 
L 215.561383 302.893453 
L 221.580632 302.377046 
L 228.352286 302.01739 
L 236.628753 301.786831 
L 249.043452 301.654654 
L 272.744243 301.64967 
L 306.602515 301.828724 
L 339.332178 301.963109 
L 429.997106 302.052631 
L 429.997106 302.052631 
" clip-path="url(#p665cef9a2d)" style="fill: none; stroke: #937860; stroke-opacity: 0.9; stroke-width: 3; stroke-linecap: round"/>
   </g>
   <g id="patch_12">
    <path d="M 142.032503 373.284 
L 142.032503 257.307356 
" style="fill: none; stroke: #ffffff; stroke-width: 1.25; stroke-linejoin: miter; stroke-linecap: square"/>
   </g>
   <g id="patch_13">
    <path d="M 142.032503 373.284 
L 443.709706 373.284 
" style="fill: none; stroke: #ffffff; stroke-width: 1.25; stroke-linejoin: miter; stroke-linecap: square"/>
   </g>
   <g id="text_15">
    <!-- 0.8~365 -->
    <g style="fill: #262626" transform="translate(238.224511 251.307356) scale(0.252 -0.252)">
     <use xlink:href="#DejaVuSans-30"/>
     <use xlink:href="#DejaVuSans-2e" x="63.623047"/>
     <use xlink:href="#DejaVuSans-38" x="95.410156"/>
     <use xlink:href="#DejaVuSans-7e" x="159.033203"/>
     <use xlink:href="#DejaVuSans-33" x="242.822266"/>
     <use xlink:href="#DejaVuSans-36" x="306.445312"/>
     <use xlink:href="#DejaVuSans-35" x="370.068359"/>
    </g>
   </g>
  </g>
  <g id="axes_5">
   <g id="patch_14">
    <path d="M 470.482436 373.284 
L 772.15964 373.284 
L 772.15964 257.307356 
L 470.482436 257.307356 
z
" style="fill: #eaeaf2"/>
   </g>
   <g id="matplotlib.axis_9">
    <g id="xtick_17">
     <g id="line2d_49">
      <path d="M 484.195037 373.284 
L 484.195037 257.307356 
" clip-path="url(#pd46015bb1e)" style="fill: none; stroke: #ffffff; stroke-linecap: round"/>
     </g>
     <g id="text_16">
      <!-- 0 -->
      <g style="fill: #262626" transform="translate(476.846349 400.336391) scale(0.231 -0.231)">
       <use xlink:href="#DejaVuSans-30"/>
      </g>
     </g>
    </g>
    <g id="xtick_18">
     <g id="line2d_50">
      <path d="M 578.245792 373.284 
L 578.245792 257.307356 
" clip-path="url(#pd46015bb1e)" style="fill: none; stroke: #ffffff; stroke-linecap: round"/>
     </g>
     <g id="text_17">
      <!-- 250 -->
      <g style="fill: #262626" transform="translate(556.19973 400.336391) scale(0.231 -0.231)">
       <use xlink:href="#DejaVuSans-32"/>
       <use xlink:href="#DejaVuSans-35" x="63.623047"/>
       <use xlink:href="#DejaVuSans-30" x="127.246094"/>
      </g>
     </g>
    </g>
    <g id="xtick_19">
     <g id="line2d_51">
      <path d="M 672.296548 373.284 
L 672.296548 257.307356 
" clip-path="url(#pd46015bb1e)" style="fill: none; stroke: #ffffff; stroke-linecap: round"/>
     </g>
     <g id="text_18">
      <!-- 500 -->
      <g style="fill: #262626" transform="translate(650.250485 400.336391) scale(0.231 -0.231)">
       <use xlink:href="#DejaVuSans-35"/>
       <use xlink:href="#DejaVuSans-30" x="63.623047"/>
       <use xlink:href="#DejaVuSans-30" x="127.246094"/>
      </g>
     </g>
    </g>
    <g id="xtick_20">
     <g id="line2d_52">
      <path d="M 766.347303 373.284 
L 766.347303 257.307356 
" clip-path="url(#pd46015bb1e)" style="fill: none; stroke: #ffffff; stroke-linecap: round"/>
     </g>
     <g id="text_19">
      <!-- 750 -->
      <g style="fill: #262626" transform="translate(744.301241 400.336391) scale(0.231 -0.231)">
       <use xlink:href="#DejaVuSans-37"/>
       <use xlink:href="#DejaVuSans-35" x="63.623047"/>
       <use xlink:href="#DejaVuSans-30" x="127.246094"/>
      </g>
     </g>
    </g>
    <g id="text_20">
     <!-- step -->
     <g style="fill: #262626" transform="translate(594.065663 428.288531) scale(0.252 -0.252)">
      <use xlink:href="#DejaVuSans-73"/>
      <use xlink:href="#DejaVuSans-74" x="52.099609"/>
      <use xlink:href="#DejaVuSans-65" x="91.308594"/>
      <use xlink:href="#DejaVuSans-70" x="152.832031"/>
     </g>
    </g>
   </g>
   <g id="matplotlib.axis_10">
    <g id="ytick_9">
     <g id="line2d_53">
      <path d="M 470.482436 366.92898 
L 772.15964 366.92898 
" clip-path="url(#pd46015bb1e)" style="fill: none; stroke: #ffffff; stroke-linecap: round"/>
     </g>
    </g>
    <g id="ytick_10">
     <g id="line2d_54">
      <path d="M 470.482436 302.244813 
L 772.15964 302.244813 
" clip-path="url(#pd46015bb1e)" style="fill: none; stroke: #ffffff; stroke-linecap: round"/>
     </g>
    </g>
   </g>
   <g id="PolyCollection_25"/>
   <g id="PolyCollection_26"/>
   <g id="PolyCollection_27"/>
   <g id="PolyCollection_28"/>
   <g id="PolyCollection_29"/>
   <g id="PolyCollection_30"/>
   <g id="line2d_55">
    <path d="M 484.195037 302.244813 
L 484.57124 354.321039 
L 484.947443 355.962292 
L 485.323646 356.215476 
L 486.076052 355.855503 
L 487.204661 355.131707 
L 489.838082 354.217506 
L 490.590488 351.935992 
L 490.966691 350.688552 
L 491.719097 349.122325 
L 492.847706 347.859066 
L 493.223909 347.512294 
L 493.976315 347.636449 
L 495.85733 348.268392 
L 497.362142 349.502598 
L 499.619361 350.775397 
L 500.74797 351.01664 
L 501.876579 350.95718 
L 503.757594 350.61344 
L 510.153045 350.305602 
L 512.786466 349.948363 
L 515.419887 349.366658 
L 518.053309 348.572543 
L 521.062933 347.402903 
L 524.072557 345.978006 
L 527.082181 344.319136 
L 530.468008 342.184147 
L 533.853836 339.781066 
L 537.615866 336.848587 
L 542.130302 333.045438 
L 548.14955 327.658546 
L 551.535378 324.701099 
L 553.04019 323.831998 
L 556.049814 322.557671 
L 559.059438 321.457293 
L 569.593123 317.973011 
L 577.869589 315.982028 
L 593.293913 312.275359 
L 600.065567 310.283499 
L 606.461019 308.172997 
L 613.232673 305.701986 
L 620.380531 302.857726 
L 630.161809 298.692638 
L 640.319291 294.095329 
L 666.277299 282.202489 
L 674.929969 278.605332 
L 678.315796 277.369082 
L 682.830232 275.932759 
L 688.097075 274.599669 
L 695.621135 272.878266 
L 699.006962 272.310493 
L 702.768992 271.909795 
L 706.15482 271.714757 
L 714.807489 271.414567 
L 717.44091 271.429158 
L 726.469783 271.737829 
L 740.389295 271.945528 
L 758.44704 272.040047 
L 758.44704 272.040047 
" clip-path="url(#pd46015bb1e)" style="fill: none; stroke: #4c72b0; stroke-opacity: 0.9; stroke-width: 3; stroke-linecap: round"/>
   </g>
   <g id="line2d_56">
    <path d="M 484.195037 302.244813 
L 484.57124 330.64748 
L 484.947443 331.763587 
L 485.323646 332.070385 
L 486.076052 332.027786 
L 489.838082 330.95822 
L 490.590488 329.762974 
L 492.471503 326.412104 
L 493.223909 325.626721 
L 494.352518 324.965447 
L 495.85733 324.88234 
L 497.362142 324.980033 
L 498.866955 325.432922 
L 501.500376 325.823618 
L 503.005188 325.701916 
L 504.886203 325.265406 
L 506.014812 325.06795 
L 513.162669 324.084538 
L 517.300903 323.251326 
L 521.062933 322.267118 
L 525.201166 320.934953 
L 529.339399 319.358637 
L 533.477633 317.539269 
L 537.615866 315.459956 
L 543.258911 312.327733 
L 553.416393 306.624443 
L 555.297408 305.920357 
L 556.80222 305.516359 
L 559.059438 305.090542 
L 565.078686 304.214697 
L 568.088311 303.957179 
L 573.355153 303.948727 
L 579.374401 304.199375 
L 583.512634 304.592561 
L 590.284289 305.491313 
L 600.065567 307.030602 
L 608.342034 308.293817 
L 615.489891 309.166326 
L 623.013952 309.851939 
L 629.409403 310.218435 
L 635.804854 310.358804 
L 641.824103 310.263648 
L 647.467148 309.965991 
L 652.73399 309.449915 
L 657.62463 308.757978 
L 662.515269 307.831481 
L 667.405908 306.674751 
L 672.296548 305.299219 
L 677.187187 303.714435 
L 682.454029 301.773703 
L 688.473278 299.307325 
L 697.125947 295.460283 
L 703.145195 292.468354 
L 713.67888 286.916292 
L 724.964971 280.477728 
L 740.765498 271.464911 
L 747.160949 267.981095 
L 753.180197 264.945186 
L 757.318431 263.063531 
L 758.44704 262.579021 
L 758.44704 262.579021 
" clip-path="url(#pd46015bb1e)" style="fill: none; stroke: #dd8452; stroke-opacity: 0.9; stroke-width: 3; stroke-linecap: round"/>
   </g>
   <g id="line2d_57">
    <path d="M 484.195037 302.244813 
L 484.57124 356.816936 
L 484.947443 359.587398 
L 485.323646 360.105843 
L 485.699849 360.062385 
L 486.828458 359.353208 
L 487.957067 358.682995 
L 489.085676 358.225219 
L 489.838082 358.007997 
L 490.966691 354.266937 
L 492.847706 348.138188 
L 494.728721 342.868321 
L 496.233533 339.226527 
L 497.362142 336.991256 
L 498.490751 335.365845 
L 499.243158 334.597278 
L 499.995564 334.06999 
L 501.876579 333.106161 
L 503.381391 332.687197 
L 507.895827 331.848251 
L 513.538872 331.667194 
L 522.567745 331.003961 
L 527.458384 330.330814 
L 531.97282 329.48165 
L 536.487257 328.411604 
L 541.754099 326.934702 
L 548.14955 324.889691 
L 554.921205 322.47771 
L 563.197671 319.284209 
L 574.107559 315.04837 
L 582.007822 312.356803 
L 591.036695 309.541542 
L 605.33241 305.39861 
L 616.6185 302.326754 
L 624.894967 300.296958 
L 631.290418 298.940897 
L 641.4479 297.055762 
L 647.467148 296.141564 
L 655.367412 295.199627 
L 665.524893 294.211703 
L 673.425157 293.669661 
L 687.344668 292.936272 
L 704.650008 292.323032 
L 726.09358 291.759622 
L 748.665761 291.425892 
L 758.44704 291.33224 
L 758.44704 291.33224 
" clip-path="url(#pd46015bb1e)" style="fill: none; stroke: #55a868; stroke-opacity: 0.9; stroke-width: 3; stroke-linecap: round"/>
   </g>
   <g id="line2d_58">
    <path d="M 484.195037 302.244813 
L 484.57124 345.133978 
L 484.947443 347.354823 
L 485.323646 347.757585 
L 485.699849 347.71499 
L 487.204661 346.955331 
L 489.085676 346.085692 
L 489.838082 345.81308 
L 490.966691 342.804565 
L 492.847706 337.905545 
L 494.352518 334.480326 
L 496.233533 330.828407 
L 497.362142 329.089157 
L 498.490751 327.797352 
L 499.243158 327.208589 
L 500.371767 326.650813 
L 502.252782 326.025921 
L 505.638609 325.417345 
L 509.400639 325.045787 
L 528.963196 323.439746 
L 535.734851 322.496239 
L 542.130302 321.385217 
L 548.14955 320.101621 
L 554.545002 318.515189 
L 562.445265 316.313669 
L 577.869589 311.961797 
L 586.898462 309.63251 
L 597.808349 307.026063 
L 609.09444 304.573739 
L 619.251922 302.600231 
L 629.409403 300.951001 
L 639.190682 299.576526 
L 650.476772 298.234727 
L 658.753239 297.449273 
L 668.534517 296.787905 
L 684.335044 295.977122 
L 702.016586 295.285212 
L 714.055083 295.009913 
L 740.013092 294.589002 
L 758.44704 294.361901 
L 758.44704 294.361901 
" clip-path="url(#pd46015bb1e)" style="fill: none; stroke: #c44e52; stroke-opacity: 0.9; stroke-width: 3; stroke-linecap: round"/>
   </g>
   <g id="line2d_59">
    <path d="M 484.195037 302.244813 
L 484.57124 352.241383 
L 484.947443 354.229214 
L 485.323646 354.364486 
L 486.076052 353.945552 
L 487.204661 353.243764 
L 489.838082 352.240755 
L 491.342894 347.835946 
L 492.471503 345.150751 
L 493.600112 343.052244 
L 493.976315 342.689054 
L 494.728721 342.459909 
L 495.481127 342.340716 
L 495.85733 342.396 
L 496.985939 343.108312 
L 498.114548 343.809538 
L 499.619361 344.437078 
L 500.74797 344.622457 
L 501.876579 344.552763 
L 504.51 344.043392 
L 509.024436 342.972163 
L 513.915075 341.568076 
L 517.300903 340.311454 
L 521.062933 338.660163 
L 526.329775 336.082877 
L 530.091805 334.314041 
L 533.101429 333.16196 
L 540.62549 330.44825 
L 544.38752 328.889667 
L 548.525753 326.931963 
L 553.04019 324.556131 
L 556.426017 322.752141 
L 557.554626 322.454029 
L 559.435641 322.280737 
L 560.56425 322.343396 
L 565.078686 322.969912 
L 572.602747 324.439264 
L 578.245792 325.257401 
L 581.631619 325.517997 
L 585.017447 325.561309 
L 589.908086 325.368217 
L 594.422522 325.023422 
L 598.936958 324.464011 
L 610.975455 322.778117 
L 619.628125 321.655891 
L 625.647373 320.497527 
L 629.785606 319.504802 
L 633.923839 318.271614 
L 638.438276 316.676578 
L 643.705118 314.571082 
L 650.476772 311.607213 
L 663.267675 305.925161 
L 666.653502 304.674791 
L 675.306172 301.598548 
L 681.32542 299.063337 
L 685.463653 297.366732 
L 688.097075 296.564569 
L 692.611511 295.394938 
L 708.412038 291.653251 
L 709.540647 291.543225 
L 711.045459 291.695467 
L 714.807489 292.220797 
L 717.44091 292.371478 
L 721.579143 292.416471 
L 733.993843 292.335885 
L 736.627264 292.493571 
L 741.894107 293.003693 
L 747.537152 293.81942 
L 752.803994 294.886064 
L 758.44704 296.18224 
L 758.44704 296.18224 
" clip-path="url(#pd46015bb1e)" style="fill: none; stroke: #8172b3; stroke-opacity: 0.9; stroke-width: 3; stroke-linecap: round"/>
   </g>
   <g id="line2d_60">
    <path d="M 484.195037 302.244813 
L 484.57124 342.362708 
L 484.947443 343.701548 
L 485.323646 343.804171 
L 486.452255 343.288613 
L 488.33327 342.387123 
L 489.838082 341.937728 
L 490.966691 339.352237 
L 492.0953 337.115904 
L 493.223909 335.36775 
L 493.600112 334.848942 
L 494.352518 334.347921 
L 495.104924 334.146619 
L 495.85733 334.137406 
L 496.609736 334.358753 
L 498.866955 335.567472 
L 499.995564 335.929222 
L 501.124173 336.04751 
L 502.252782 335.948667 
L 509.400639 334.387668 
L 513.162669 333.382315 
L 516.548497 332.22628 
L 519.934324 330.885258 
L 523.696354 329.138938 
L 527.834587 326.964509 
L 534.230039 323.649486 
L 538.744475 321.864244 
L 544.763723 319.460946 
L 550.030565 317.334477 
L 552.287784 316.744269 
L 555.297408 316.283654 
L 565.454889 314.837252 
L 579.750604 312.12371 
L 587.650868 310.661405 
L 592.165304 309.601375 
L 598.184552 307.932534 
L 606.837222 305.256273 
L 627.528388 298.822588 
L 638.062073 296.081706 
L 645.586133 294.309788 
L 658.000833 291.586797 
L 680.949217 287.496726 
L 683.582638 287.260113 
L 685.08745 287.381856 
L 691.106699 288.150806 
L 697.50215 288.52095 
L 717.817113 289.485702 
L 740.765498 290.082133 
L 758.44704 290.487685 
L 758.44704 290.487685 
" clip-path="url(#pd46015bb1e)" style="fill: none; stroke: #937860; stroke-opacity: 0.9; stroke-width: 3; stroke-linecap: round"/>
   </g>
   <g id="patch_15">
    <path d="M 470.482436 373.284 
L 470.482436 257.307356 
" style="fill: none; stroke: #ffffff; stroke-width: 1.25; stroke-linejoin: miter; stroke-linecap: square"/>
   </g>
   <g id="patch_16">
    <path d="M 470.482436 373.284 
L 772.15964 373.284 
" style="fill: none; stroke: #ffffff; stroke-width: 1.25; stroke-linejoin: miter; stroke-linecap: square"/>
   </g>
   <g id="text_21">
    <!-- 0.999~30 -->
    <g style="fill: #262626" transform="translate(558.657694 251.307356) scale(0.252 -0.252)">
     <defs>
      <path id="DejaVuSans-39" d="M 703 97 
L 703 672 
Q 941 559 1184 500 
Q 1428 441 1663 441 
Q 2288 441 2617 861 
Q 2947 1281 2994 2138 
Q 2813 1869 2534 1725 
Q 2256 1581 1919 1581 
Q 1219 1581 811 2004 
Q 403 2428 403 3163 
Q 403 3881 828 4315 
Q 1253 4750 1959 4750 
Q 2769 4750 3195 4129 
Q 3622 3509 3622 2328 
Q 3622 1225 3098 567 
Q 2575 -91 1691 -91 
Q 1453 -91 1209 -44 
Q 966 3 703 97 
z
M 1959 2075 
Q 2384 2075 2632 2365 
Q 2881 2656 2881 3163 
Q 2881 3666 2632 3958 
Q 2384 4250 1959 4250 
Q 1534 4250 1286 3958 
Q 1038 3666 1038 3163 
Q 1038 2656 1286 2365 
Q 1534 2075 1959 2075 
z
" transform="scale(0.015625)"/>
     </defs>
     <use xlink:href="#DejaVuSans-30"/>
     <use xlink:href="#DejaVuSans-2e" x="63.623047"/>
     <use xlink:href="#DejaVuSans-39" x="95.410156"/>
     <use xlink:href="#DejaVuSans-39" x="159.033203"/>
     <use xlink:href="#DejaVuSans-39" x="222.65625"/>
     <use xlink:href="#DejaVuSans-7e" x="286.279297"/>
     <use xlink:href="#DejaVuSans-33" x="370.068359"/>
     <use xlink:href="#DejaVuSans-30" x="433.691406"/>
    </g>
   </g>
  </g>
  <g id="axes_6">
   <g id="patch_17">
    <path d="M 798.93237 373.284 
L 1100.609573 373.284 
L 1100.609573 257.307356 
L 798.93237 257.307356 
z
" style="fill: #eaeaf2"/>
   </g>
   <g id="matplotlib.axis_11">
    <g id="xtick_21">
     <g id="line2d_61">
      <path d="M 812.64497 373.284 
L 812.64497 257.307356 
" clip-path="url(#pbb8d55ae4c)" style="fill: none; stroke: #ffffff; stroke-linecap: round"/>
     </g>
     <g id="text_22">
      <!-- 0 -->
      <g style="fill: #262626" transform="translate(805.296283 400.336391) scale(0.231 -0.231)">
       <use xlink:href="#DejaVuSans-30"/>
      </g>
     </g>
    </g>
    <g id="xtick_22">
     <g id="line2d_62">
      <path d="M 906.695726 373.284 
L 906.695726 257.307356 
" clip-path="url(#pbb8d55ae4c)" style="fill: none; stroke: #ffffff; stroke-linecap: round"/>
     </g>
     <g id="text_23">
      <!-- 250 -->
      <g style="fill: #262626" transform="translate(884.649663 400.336391) scale(0.231 -0.231)">
       <use xlink:href="#DejaVuSans-32"/>
       <use xlink:href="#DejaVuSans-35" x="63.623047"/>
       <use xlink:href="#DejaVuSans-30" x="127.246094"/>
      </g>
     </g>
    </g>
    <g id="xtick_23">
     <g id="line2d_63">
      <path d="M 1000.746481 373.284 
L 1000.746481 257.307356 
" clip-path="url(#pbb8d55ae4c)" style="fill: none; stroke: #ffffff; stroke-linecap: round"/>
     </g>
     <g id="text_24">
      <!-- 500 -->
      <g style="fill: #262626" transform="translate(978.700419 400.336391) scale(0.231 -0.231)">
       <use xlink:href="#DejaVuSans-35"/>
       <use xlink:href="#DejaVuSans-30" x="63.623047"/>
       <use xlink:href="#DejaVuSans-30" x="127.246094"/>
      </g>
     </g>
    </g>
    <g id="xtick_24">
     <g id="line2d_64">
      <path d="M 1094.797237 373.284 
L 1094.797237 257.307356 
" clip-path="url(#pbb8d55ae4c)" style="fill: none; stroke: #ffffff; stroke-linecap: round"/>
     </g>
     <g id="text_25">
      <!-- 750 -->
      <g style="fill: #262626" transform="translate(1072.751174 400.336391) scale(0.231 -0.231)">
       <use xlink:href="#DejaVuSans-37"/>
       <use xlink:href="#DejaVuSans-35" x="63.623047"/>
       <use xlink:href="#DejaVuSans-30" x="127.246094"/>
      </g>
     </g>
    </g>
    <g id="text_26">
     <!-- step -->
     <g style="fill: #262626" transform="translate(922.515597 428.288531) scale(0.252 -0.252)">
      <use xlink:href="#DejaVuSans-73"/>
      <use xlink:href="#DejaVuSans-74" x="52.099609"/>
      <use xlink:href="#DejaVuSans-65" x="91.308594"/>
      <use xlink:href="#DejaVuSans-70" x="152.832031"/>
     </g>
    </g>
   </g>
   <g id="matplotlib.axis_12">
    <g id="ytick_11">
     <g id="line2d_65">
      <path d="M 798.93237 366.92898 
L 1100.609573 366.92898 
" clip-path="url(#pbb8d55ae4c)" style="fill: none; stroke: #ffffff; stroke-linecap: round"/>
     </g>
    </g>
    <g id="ytick_12">
     <g id="line2d_66">
      <path d="M 798.93237 302.244813 
L 1100.609573 302.244813 
" clip-path="url(#pbb8d55ae4c)" style="fill: none; stroke: #ffffff; stroke-linecap: round"/>
     </g>
    </g>
   </g>
   <g id="PolyCollection_31"/>
   <g id="PolyCollection_32"/>
   <g id="PolyCollection_33"/>
   <g id="PolyCollection_34"/>
   <g id="PolyCollection_35"/>
   <g id="PolyCollection_36"/>
   <g id="line2d_67">
    <path d="M 812.64497 302.244813 
L 813.021173 354.321039 
L 813.397376 356.17197 
L 813.773579 356.667367 
L 814.525985 356.807697 
L 815.654594 356.835126 
L 818.288016 357.647232 
L 819.040422 355.913884 
L 819.416625 354.90744 
L 819.792828 354.26967 
L 820.169031 353.851938 
L 820.921437 353.519591 
L 822.050046 353.204569 
L 822.426249 353.43677 
L 824.683467 356.182665 
L 826.188279 358.507575 
L 827.316888 359.991691 
L 829.574106 362.381704 
L 830.702715 363.348998 
L 831.831324 364.058261 
L 832.959933 364.532931 
L 834.088543 364.794455 
L 835.593355 365.066963 
L 839.355385 365.785848 
L 847.631851 367.461978 
L 851.017679 367.875698 
L 854.027303 368.012334 
L 856.660724 367.928629 
L 859.294145 367.648786 
L 862.303769 367.105305 
L 864.93719 366.429026 
L 867.946815 365.410553 
L 870.956439 364.13771 
L 873.966063 362.615532 
L 877.35189 360.631768 
L 881.11392 358.134599 
L 885.252154 355.091336 
L 890.142793 351.18949 
L 897.29065 345.161652 
L 901.805086 341.436708 
L 903.309899 340.434283 
L 910.833959 336.014904 
L 922.12005 331.630225 
L 928.139298 329.394332 
L 932.653734 328.096216 
L 941.306404 325.839715 
L 949.206667 324.101324 
L 960.492758 322.020183 
L 994.727233 315.687483 
L 1012.032572 312.216797 
L 1031.595129 308.052513 
L 1069.967837 299.80533 
L 1073.353664 299.398449 
L 1082.006334 298.748062 
L 1086.896973 298.837107 
L 1086.896973 298.837107 
" clip-path="url(#pbb8d55ae4c)" style="fill: none; stroke: #4c72b0; stroke-opacity: 0.9; stroke-width: 3; stroke-linecap: round"/>
   </g>
   <g id="line2d_68">
    <path d="M 812.64497 302.244813 
L 813.021173 330.64748 
L 813.397376 331.860699 
L 813.773579 332.280905 
L 814.525985 332.477095 
L 818.288016 332.594393 
L 819.040422 331.639713 
L 820.921437 328.858669 
L 821.29764 328.565003 
L 822.426249 328.239868 
L 823.178655 328.093794 
L 823.931061 328.345477 
L 825.812076 329.365985 
L 827.316888 330.472036 
L 828.8217 331.367316 
L 831.078918 332.386767 
L 832.58373 332.865909 
L 834.088543 333.137926 
L 835.969558 333.224731 
L 844.99843 333.030241 
L 851.393882 332.937792 
L 855.532115 332.669568 
L 859.670348 332.171099 
L 863.808581 331.42813 
L 867.946815 330.44533 
L 872.085048 329.222804 
L 876.223281 327.775712 
L 880.737717 325.955674 
L 885.628357 323.740473 
L 905.567117 314.401709 
L 908.200538 313.639674 
L 911.962568 312.823399 
L 915.724598 312.18687 
L 925.129674 310.948063 
L 943.939825 308.743899 
L 954.097307 308.07447 
L 985.322157 306.616948 
L 1013.537384 305.177085 
L 1034.604753 303.855342 
L 1057.176935 302.426646 
L 1075.987086 301.570631 
L 1086.896973 301.212989 
L 1086.896973 301.212989 
" clip-path="url(#pbb8d55ae4c)" style="fill: none; stroke: #dd8452; stroke-opacity: 0.9; stroke-width: 3; stroke-linecap: round"/>
   </g>
   <g id="line2d_69">
    <path d="M 812.64497 302.244813 
L 813.021173 356.816936 
L 813.397376 359.793891 
L 813.773579 360.55193 
L 814.149782 360.755513 
L 815.278391 360.784845 
L 816.407001 360.825333 
L 817.53561 361.062143 
L 818.288016 361.293555 
L 819.040422 359.331912 
L 820.921437 354.134245 
L 822.426249 350.511936 
L 824.307264 346.623894 
L 825.435873 344.669139 
L 826.564482 343.192157 
L 827.693091 342.137339 
L 828.8217 341.444353 
L 829.574106 341.171695 
L 830.702715 341.031442 
L 834.088543 340.91768 
L 840.860197 341.178512 
L 843.117415 341.425634 
L 848.008054 342.002902 
L 852.522491 342.302619 
L 857.41313 342.503432 
L 861.551363 342.450963 
L 865.313393 342.199601 
L 869.075424 341.757244 
L 872.837454 341.108511 
L 876.975687 340.174525 
L 881.490123 338.924128 
L 886.380763 337.325622 
L 892.023808 335.229707 
L 898.795462 332.467177 
L 908.576741 328.202422 
L 931.148922 318.291996 
L 937.544374 315.848692 
L 944.316028 313.51668 
L 951.840088 311.18599 
L 959.364149 309.078226 
L 968.016818 306.924037 
L 975.540879 305.265229 
L 982.688736 303.906328 
L 989.460391 302.853367 
L 995.479639 302.126183 
L 1001.122684 301.678021 
L 1006.76573 301.464397 
L 1014.28979 301.404135 
L 1054.919716 301.104867 
L 1086.896973 301.130082 
L 1086.896973 301.130082 
" clip-path="url(#pbb8d55ae4c)" style="fill: none; stroke: #55a868; stroke-opacity: 0.9; stroke-width: 3; stroke-linecap: round"/>
   </g>
   <g id="line2d_70">
    <path d="M 812.64497 302.244813 
L 813.021173 345.133978 
L 813.397376 347.520745 
L 813.773579 348.116929 
L 814.149782 348.273755 
L 815.654594 348.307053 
L 817.911813 348.429947 
L 818.288016 348.480995 
L 819.040422 346.896397 
L 820.921437 342.719554 
L 822.426249 339.815057 
L 823.931061 337.361147 
L 825.435873 335.312598 
L 826.564482 334.1579 
L 827.693091 333.355876 
L 828.8217 332.877848 
L 829.950309 332.672206 
L 834.088543 332.703211 
L 838.602979 332.957346 
L 843.117415 333.12702 
L 850.641476 333.542574 
L 857.789333 333.816092 
L 862.303769 333.79 
L 866.818205 333.536094 
L 871.708845 333.027213 
L 876.223281 332.348794 
L 880.737717 331.452017 
L 886.00456 330.162172 
L 892.023808 328.424589 
L 898.795462 326.222862 
L 909.70535 322.39959 
L 934.534749 313.67748 
L 941.306404 311.601157 
L 949.58287 309.289609 
L 957.483134 307.325149 
L 964.254788 305.865494 
L 971.026443 304.619688 
L 979.679112 303.273872 
L 986.450766 302.431641 
L 993.222421 301.831381 
L 1001.122684 301.362691 
L 1008.646745 301.149008 
L 1016.923211 301.147806 
L 1034.604753 301.419536 
L 1086.896973 301.369893 
L 1086.896973 301.369893 
" clip-path="url(#pbb8d55ae4c)" style="fill: none; stroke: #c44e52; stroke-opacity: 0.9; stroke-width: 3; stroke-linecap: round"/>
   </g>
   <g id="line2d_71">
    <path d="M 812.64497 302.244813 
L 813.021173 352.241383 
L 813.397376 354.452935 
L 813.773579 354.826894 
L 814.525985 354.887275 
L 815.654594 354.902511 
L 818.288016 355.542264 
L 819.792828 352.117558 
L 820.545234 350.689717 
L 821.673843 349.059415 
L 822.426249 348.241433 
L 822.802452 348.148078 
L 823.554858 348.467756 
L 824.307264 348.865707 
L 825.05967 349.654365 
L 826.188279 351.24146 
L 828.069294 353.382997 
L 830.326512 355.371588 
L 831.455121 356.043648 
L 832.58373 356.502314 
L 835.593355 357.283084 
L 837.098167 357.304534 
L 840.483994 357.061824 
L 847.631851 356.556174 
L 851.770085 356.021825 
L 855.155912 355.406743 
L 858.541739 354.581634 
L 861.927566 353.529534 
L 865.689596 352.122027 
L 869.82783 350.348568 
L 881.11392 345.281144 
L 887.885575 342.729187 
L 904.062305 336.962191 
L 905.94332 336.442923 
L 908.200538 336.088561 
L 911.210162 335.827448 
L 915.724598 335.960906 
L 920.239035 336.2149 
L 935.663358 337.218634 
L 943.939825 337.602071 
L 952.592494 337.784149 
L 962.373773 337.751696 
L 971.026443 337.49509 
L 979.302909 337.031016 
L 987.579375 336.35043 
L 996.232045 335.420577 
L 1006.013324 334.141149 
L 1016.547008 332.533612 
L 1030.090317 330.215797 
L 1040.247799 328.238191 
L 1050.40528 326.017014 
L 1066.958213 322.13235 
L 1086.896973 317.31689 
L 1086.896973 317.31689 
" clip-path="url(#pbb8d55ae4c)" style="fill: none; stroke: #8172b3; stroke-opacity: 0.9; stroke-width: 3; stroke-linecap: round"/>
   </g>
   <g id="line2d_72">
    <path d="M 812.64497 302.244813 
L 813.021173 342.362708 
L 813.397376 343.873156 
L 813.773579 344.158374 
L 814.902188 344.191173 
L 816.783204 344.192473 
L 818.288016 344.456539 
L 819.416625 342.442338 
L 820.545234 340.757364 
L 821.673843 339.562334 
L 822.426249 339.010384 
L 822.802452 338.865947 
L 823.931061 339.159482 
L 824.683467 339.606611 
L 825.435873 340.414861 
L 826.940685 342.028143 
L 828.8217 343.731258 
L 829.950309 344.592479 
L 831.455121 345.422315 
L 832.959933 345.932723 
L 835.217152 346.350998 
L 836.721964 346.384221 
L 843.869821 345.952043 
L 848.384257 345.601588 
L 852.146288 345.166171 
L 855.532115 344.556299 
L 858.917942 343.720154 
L 862.303769 342.656016 
L 866.065799 341.220188 
L 869.82783 339.538408 
L 873.966063 337.444714 
L 878.480499 334.890575 
L 886.00456 330.563972 
L 888.261778 329.561169 
L 891.271402 328.412997 
L 893.152417 327.967804 
L 895.033432 327.68267 
L 900.300274 327.217293 
L 911.210162 326.271871 
L 921.367644 325.070252 
L 932.653734 323.498637 
L 945.444637 321.487437 
L 984.945954 315.060159 
L 1005.260918 312.218127 
L 1023.318663 309.475889 
L 1044.009829 306.08113 
L 1057.929341 303.799444 
L 1063.572386 303.065515 
L 1069.591634 302.499297 
L 1075.23468 302.199701 
L 1086.896973 301.779662 
L 1086.896973 301.779662 
" clip-path="url(#pbb8d55ae4c)" style="fill: none; stroke: #937860; stroke-opacity: 0.9; stroke-width: 3; stroke-linecap: round"/>
   </g>
   <g id="patch_18">
    <path d="M 798.93237 373.284 
L 798.93237 257.307356 
" style="fill: none; stroke: #ffffff; stroke-width: 1.25; stroke-linejoin: miter; stroke-linecap: square"/>
   </g>
   <g id="patch_19">
    <path d="M 798.93237 373.284 
L 1100.609573 373.284 
" style="fill: none; stroke: #ffffff; stroke-width: 1.25; stroke-linejoin: miter; stroke-linecap: square"/>
   </g>
   <g id="text_27">
    <!-- 0.999~365 -->
    <g style="fill: #262626" transform="translate(879.090878 251.307356) scale(0.252 -0.252)">
     <use xlink:href="#DejaVuSans-30"/>
     <use xlink:href="#DejaVuSans-2e" x="63.623047"/>
     <use xlink:href="#DejaVuSans-39" x="95.410156"/>
     <use xlink:href="#DejaVuSans-39" x="159.033203"/>
     <use xlink:href="#DejaVuSans-39" x="222.65625"/>
     <use xlink:href="#DejaVuSans-7e" x="286.279297"/>
     <use xlink:href="#DejaVuSans-33" x="370.068359"/>
     <use xlink:href="#DejaVuSans-36" x="433.691406"/>
     <use xlink:href="#DejaVuSans-35" x="497.314453"/>
    </g>
   </g>
  </g>
  <g id="text_28">
   <!-- Production change from pre-shock level -->
   <g style="fill: #262626" transform="translate(280.766836 30.177675) scale(0.3024 -0.3024)">
    <defs>
     <path id="DejaVuSans-50" d="M 1259 4147 
L 1259 2394 
L 2053 2394 
Q 2494 2394 2734 2622 
Q 2975 2850 2975 3272 
Q 2975 3691 2734 3919 
Q 2494 4147 2053 4147 
L 1259 4147 
z
M 628 4666 
L 2053 4666 
Q 2838 4666 3239 4311 
Q 3641 3956 3641 3272 
Q 3641 2581 3239 2228 
Q 2838 1875 2053 1875 
L 1259 1875 
L 1259 0 
L 628 0 
L 628 4666 
z
" transform="scale(0.015625)"/>
     <path id="DejaVuSans-72" d="M 2631 2963 
Q 2534 3019 2420 3045 
Q 2306 3072 2169 3072 
Q 1681 3072 1420 2755 
Q 1159 2438 1159 1844 
L 1159 0 
L 581 0 
L 581 3500 
L 1159 3500 
L 1159 2956 
Q 1341 3275 1631 3429 
Q 1922 3584 2338 3584 
Q 2397 3584 2469 3576 
Q 2541 3569 2628 3553 
L 2631 2963 
z
" transform="scale(0.015625)"/>
     <path id="DejaVuSans-6f" d="M 1959 3097 
Q 1497 3097 1228 2736 
Q 959 2375 959 1747 
Q 959 1119 1226 758 
Q 1494 397 1959 397 
Q 2419 397 2687 759 
Q 2956 1122 2956 1747 
Q 2956 2369 2687 2733 
Q 2419 3097 1959 3097 
z
M 1959 3584 
Q 2709 3584 3137 3096 
Q 3566 2609 3566 1747 
Q 3566 888 3137 398 
Q 2709 -91 1959 -91 
Q 1206 -91 779 398 
Q 353 888 353 1747 
Q 353 2609 779 3096 
Q 1206 3584 1959 3584 
z
" transform="scale(0.015625)"/>
     <path id="DejaVuSans-64" d="M 2906 2969 
L 2906 4863 
L 3481 4863 
L 3481 0 
L 2906 0 
L 2906 525 
Q 2725 213 2448 61 
Q 2172 -91 1784 -91 
Q 1150 -91 751 415 
Q 353 922 353 1747 
Q 353 2572 751 3078 
Q 1150 3584 1784 3584 
Q 2172 3584 2448 3432 
Q 2725 3281 2906 2969 
z
M 947 1747 
Q 947 1113 1208 752 
Q 1469 391 1925 391 
Q 2381 391 2643 752 
Q 2906 1113 2906 1747 
Q 2906 2381 2643 2742 
Q 2381 3103 1925 3103 
Q 1469 3103 1208 2742 
Q 947 2381 947 1747 
z
" transform="scale(0.015625)"/>
     <path id="DejaVuSans-75" d="M 544 1381 
L 544 3500 
L 1119 3500 
L 1119 1403 
Q 1119 906 1312 657 
Q 1506 409 1894 409 
Q 2359 409 2629 706 
Q 2900 1003 2900 1516 
L 2900 3500 
L 3475 3500 
L 3475 0 
L 2900 0 
L 2900 538 
Q 2691 219 2414 64 
Q 2138 -91 1772 -91 
Q 1169 -91 856 284 
Q 544 659 544 1381 
z
M 1991 3584 
L 1991 3584 
z
" transform="scale(0.015625)"/>
     <path id="DejaVuSans-69" d="M 603 3500 
L 1178 3500 
L 1178 0 
L 603 0 
L 603 3500 
z
M 603 4863 
L 1178 4863 
L 1178 4134 
L 603 4134 
L 603 4863 
z
" transform="scale(0.015625)"/>
     <path id="DejaVuSans-66" d="M 2375 4863 
L 2375 4384 
L 1825 4384 
Q 1516 4384 1395 4259 
Q 1275 4134 1275 3809 
L 1275 3500 
L 2222 3500 
L 2222 3053 
L 1275 3053 
L 1275 0 
L 697 0 
L 697 3053 
L 147 3053 
L 147 3500 
L 697 3500 
L 697 3744 
Q 697 4328 969 4595 
Q 1241 4863 1831 4863 
L 2375 4863 
z
" transform="scale(0.015625)"/>
     <path id="DejaVuSans-6d" d="M 3328 2828 
Q 3544 3216 3844 3400 
Q 4144 3584 4550 3584 
Q 5097 3584 5394 3201 
Q 5691 2819 5691 2113 
L 5691 0 
L 5113 0 
L 5113 2094 
Q 5113 2597 4934 2840 
Q 4756 3084 4391 3084 
Q 3944 3084 3684 2787 
Q 3425 2491 3425 1978 
L 3425 0 
L 2847 0 
L 2847 2094 
Q 2847 2600 2669 2842 
Q 2491 3084 2119 3084 
Q 1678 3084 1418 2786 
Q 1159 2488 1159 1978 
L 1159 0 
L 581 0 
L 581 3500 
L 1159 3500 
L 1159 2956 
Q 1356 3278 1631 3431 
Q 1906 3584 2284 3584 
Q 2666 3584 2933 3390 
Q 3200 3197 3328 2828 
z
" transform="scale(0.015625)"/>
     <path id="DejaVuSans-2d" d="M 313 2009 
L 1997 2009 
L 1997 1497 
L 313 1497 
L 313 2009 
z
" transform="scale(0.015625)"/>
     <path id="DejaVuSans-6b" d="M 581 4863 
L 1159 4863 
L 1159 1991 
L 2875 3500 
L 3609 3500 
L 1753 1863 
L 3688 0 
L 2938 0 
L 1159 1709 
L 1159 0 
L 581 0 
L 581 4863 
z
" transform="scale(0.015625)"/>
     <path id="DejaVuSans-6c" d="M 603 4863 
L 1178 4863 
L 1178 0 
L 603 0 
L 603 4863 
z
" transform="scale(0.015625)"/>
     <path id="DejaVuSans-76" d="M 191 3500 
L 800 3500 
L 1894 563 
L 2988 3500 
L 3597 3500 
L 2284 0 
L 1503 0 
L 191 3500 
z
" transform="scale(0.015625)"/>
    </defs>
    <use xlink:href="#DejaVuSans-50"/>
    <use xlink:href="#DejaVuSans-72" x="58.552734"/>
    <use xlink:href="#DejaVuSans-6f" x="97.416016"/>
    <use xlink:href="#DejaVuSans-64" x="158.597656"/>
    <use xlink:href="#DejaVuSans-75" x="222.074219"/>
    <use xlink:href="#DejaVuSans-63" x="285.453125"/>
    <use xlink:href="#DejaVuSans-74" x="340.433594"/>
    <use xlink:href="#DejaVuSans-69" x="379.642578"/>
    <use xlink:href="#DejaVuSans-6f" x="407.425781"/>
    <use xlink:href="#DejaVuSans-6e" x="468.607422"/>
    <use xlink:href="#DejaVuSans-20" x="531.986328"/>
    <use xlink:href="#DejaVuSans-63" x="563.773438"/>
    <use xlink:href="#DejaVuSans-68" x="618.753906"/>
    <use xlink:href="#DejaVuSans-61" x="682.132812"/>
    <use xlink:href="#DejaVuSans-6e" x="743.412109"/>
    <use xlink:href="#DejaVuSans-67" x="806.791016"/>
    <use xlink:href="#DejaVuSans-65" x="870.267578"/>
    <use xlink:href="#DejaVuSans-20" x="931.791016"/>
    <use xlink:href="#DejaVuSans-66" x="963.578125"/>
    <use xlink:href="#DejaVuSans-72" x="998.783203"/>
    <use xlink:href="#DejaVuSans-6f" x="1037.646484"/>
    <use xlink:href="#DejaVuSans-6d" x="1098.828125"/>
    <use xlink:href="#DejaVuSans-20" x="1196.240234"/>
    <use xlink:href="#DejaVuSans-70" x="1228.027344"/>
    <use xlink:href="#DejaVuSans-72" x="1291.503906"/>
    <use xlink:href="#DejaVuSans-65" x="1330.367188"/>
    <use xlink:href="#DejaVuSans-2d" x="1391.890625"/>
    <use xlink:href="#DejaVuSans-73" x="1427.974609"/>
    <use xlink:href="#DejaVuSans-68" x="1480.074219"/>
    <use xlink:href="#DejaVuSans-6f" x="1543.453125"/>
    <use xlink:href="#DejaVuSans-63" x="1604.634766"/>
    <use xlink:href="#DejaVuSans-6b" x="1659.615234"/>
    <use xlink:href="#DejaVuSans-20" x="1717.525391"/>
    <use xlink:href="#DejaVuSans-6c" x="1749.3125"/>
    <use xlink:href="#DejaVuSans-65" x="1777.095703"/>
    <use xlink:href="#DejaVuSans-76" x="1838.619141"/>
    <use xlink:href="#DejaVuSans-65" x="1897.798828"/>
    <use xlink:href="#DejaVuSans-6c" x="1959.322266"/>
   </g>
  </g>
  <g id="legend_1">
   <g id="patch_20">
    <path d="M 11.82 584.31675 
L 1292.617547 584.31675 
Q 1297.237547 584.31675 1297.237547 579.69675 
L 1297.237547 476.97 
Q 1297.237547 472.35 1292.617547 472.35 
L 11.82 472.35 
Q 7.2 472.35 7.2 476.97 
L 7.2 579.69675 
Q 7.2 584.31675 11.82 584.31675 
z
" style="fill: #eaeaf2; opacity: 0.8; stroke: #cccccc; stroke-linejoin: miter"/>
   </g>
   <g id="text_29">
    <!-- Experiences -->
    <g style="fill: #262626" transform="translate(575.384367 500.738062) scale(0.252 -0.252)">
     <defs>
      <path id="DejaVuSans-45" d="M 628 4666 
L 3578 4666 
L 3578 4134 
L 1259 4134 
L 1259 2753 
L 3481 2753 
L 3481 2222 
L 1259 2222 
L 1259 531 
L 3634 531 
L 3634 0 
L 628 0 
L 628 4666 
z
" transform="scale(0.015625)"/>
      <path id="DejaVuSans-78" d="M 3513 3500 
L 2247 1797 
L 3578 0 
L 2900 0 
L 1881 1375 
L 863 0 
L 184 0 
L 1544 1831 
L 300 3500 
L 978 3500 
L 1906 2253 
L 2834 3500 
L 3513 3500 
z
" transform="scale(0.015625)"/>
     </defs>
     <use xlink:href="#DejaVuSans-45"/>
     <use xlink:href="#DejaVuSans-78" x="63.183594"/>
     <use xlink:href="#DejaVuSans-70" x="122.363281"/>
     <use xlink:href="#DejaVuSans-65" x="185.839844"/>
     <use xlink:href="#DejaVuSans-72" x="247.363281"/>
     <use xlink:href="#DejaVuSans-69" x="288.476562"/>
     <use xlink:href="#DejaVuSans-65" x="316.259766"/>
     <use xlink:href="#DejaVuSans-6e" x="377.783203"/>
     <use xlink:href="#DejaVuSans-63" x="441.162109"/>
     <use xlink:href="#DejaVuSans-65" x="496.142578"/>
     <use xlink:href="#DejaVuSans-73" x="557.666016"/>
    </g>
   </g>
   <g id="line2d_73">
    <path d="M 16.44 526.996266 
L 39.54 526.996266 
L 62.64 526.996266 
" style="fill: none; stroke: #4c72b0; stroke-opacity: 0.9; stroke-width: 3; stroke-linecap: round"/>
   </g>
   <g id="text_30">
    <!-- eora26_full_2000 -->
    <g style="fill: #262626" transform="translate(81.12 535.081266) scale(0.231 -0.231)">
     <defs>
      <path id="DejaVuSans-5f" d="M 3263 -1063 
L 3263 -1509 
L -63 -1509 
L -63 -1063 
L 3263 -1063 
z
" transform="scale(0.015625)"/>
     </defs>
     <use xlink:href="#DejaVuSans-65"/>
     <use xlink:href="#DejaVuSans-6f" x="61.523438"/>
     <use xlink:href="#DejaVuSans-72" x="122.705078"/>
     <use xlink:href="#DejaVuSans-61" x="163.818359"/>
     <use xlink:href="#DejaVuSans-32" x="225.097656"/>
     <use xlink:href="#DejaVuSans-36" x="288.720703"/>
     <use xlink:href="#DejaVuSans-5f" x="352.34375"/>
     <use xlink:href="#DejaVuSans-66" x="402.34375"/>
     <use xlink:href="#DejaVuSans-75" x="437.548828"/>
     <use xlink:href="#DejaVuSans-6c" x="500.927734"/>
     <use xlink:href="#DejaVuSans-6c" x="528.710938"/>
     <use xlink:href="#DejaVuSans-5f" x="556.494141"/>
     <use xlink:href="#DejaVuSans-32" x="606.494141"/>
     <use xlink:href="#DejaVuSans-30" x="670.117188"/>
     <use xlink:href="#DejaVuSans-30" x="733.740234"/>
     <use xlink:href="#DejaVuSans-30" x="797.363281"/>
    </g>
   </g>
   <g id="line2d_74">
    <path d="M 16.44 561.545203 
L 39.54 561.545203 
L 62.64 561.545203 
" style="fill: none; stroke: #dd8452; stroke-opacity: 0.9; stroke-width: 3; stroke-linecap: round"/>
   </g>
   <g id="text_31">
    <!-- eora26_full_2010 -->
    <g style="fill: #262626" transform="translate(81.12 569.630203) scale(0.231 -0.231)">
     <use xlink:href="#DejaVuSans-65"/>
     <use xlink:href="#DejaVuSans-6f" x="61.523438"/>
     <use xlink:href="#DejaVuSans-72" x="122.705078"/>
     <use xlink:href="#DejaVuSans-61" x="163.818359"/>
     <use xlink:href="#DejaVuSans-32" x="225.097656"/>
     <use xlink:href="#DejaVuSans-36" x="288.720703"/>
     <use xlink:href="#DejaVuSans-5f" x="352.34375"/>
     <use xlink:href="#DejaVuSans-66" x="402.34375"/>
     <use xlink:href="#DejaVuSans-75" x="437.548828"/>
     <use xlink:href="#DejaVuSans-6c" x="500.927734"/>
     <use xlink:href="#DejaVuSans-6c" x="528.710938"/>
     <use xlink:href="#DejaVuSans-5f" x="556.494141"/>
     <use xlink:href="#DejaVuSans-32" x="606.494141"/>
     <use xlink:href="#DejaVuSans-30" x="670.117188"/>
     <use xlink:href="#DejaVuSans-31" x="733.740234"/>
     <use xlink:href="#DejaVuSans-30" x="797.363281"/>
    </g>
   </g>
   <g id="line2d_75">
    <path d="M 326.211 526.996266 
L 349.311 526.996266 
L 372.411 526.996266 
" style="fill: none; stroke: #55a868; stroke-opacity: 0.9; stroke-width: 3; stroke-linecap: round"/>
   </g>
   <g id="text_32">
    <!-- euregio_full_2000 -->
    <g style="fill: #262626" transform="translate(390.891 535.081266) scale(0.231 -0.231)">
     <use xlink:href="#DejaVuSans-65"/>
     <use xlink:href="#DejaVuSans-75" x="61.523438"/>
     <use xlink:href="#DejaVuSans-72" x="124.902344"/>
     <use xlink:href="#DejaVuSans-65" x="163.765625"/>
     <use xlink:href="#DejaVuSans-67" x="225.289062"/>
     <use xlink:href="#DejaVuSans-69" x="288.765625"/>
     <use xlink:href="#DejaVuSans-6f" x="316.548828"/>
     <use xlink:href="#DejaVuSans-5f" x="377.730469"/>
     <use xlink:href="#DejaVuSans-66" x="427.730469"/>
     <use xlink:href="#DejaVuSans-75" x="462.935547"/>
     <use xlink:href="#DejaVuSans-6c" x="526.314453"/>
     <use xlink:href="#DejaVuSans-6c" x="554.097656"/>
     <use xlink:href="#DejaVuSans-5f" x="581.880859"/>
     <use xlink:href="#DejaVuSans-32" x="631.880859"/>
     <use xlink:href="#DejaVuSans-30" x="695.503906"/>
     <use xlink:href="#DejaVuSans-30" x="759.126953"/>
     <use xlink:href="#DejaVuSans-30" x="822.75"/>
    </g>
   </g>
   <g id="line2d_76">
    <path d="M 326.211 561.545203 
L 349.311 561.545203 
L 372.411 561.545203 
" style="fill: none; stroke: #c44e52; stroke-opacity: 0.9; stroke-width: 3; stroke-linecap: round"/>
   </g>
   <g id="text_33">
    <!-- euregio_full_2010 -->
    <g style="fill: #262626" transform="translate(390.891 569.630203) scale(0.231 -0.231)">
     <use xlink:href="#DejaVuSans-65"/>
     <use xlink:href="#DejaVuSans-75" x="61.523438"/>
     <use xlink:href="#DejaVuSans-72" x="124.902344"/>
     <use xlink:href="#DejaVuSans-65" x="163.765625"/>
     <use xlink:href="#DejaVuSans-67" x="225.289062"/>
     <use xlink:href="#DejaVuSans-69" x="288.765625"/>
     <use xlink:href="#DejaVuSans-6f" x="316.548828"/>
     <use xlink:href="#DejaVuSans-5f" x="377.730469"/>
     <use xlink:href="#DejaVuSans-66" x="427.730469"/>
     <use xlink:href="#DejaVuSans-75" x="462.935547"/>
     <use xlink:href="#DejaVuSans-6c" x="526.314453"/>
     <use xlink:href="#DejaVuSans-6c" x="554.097656"/>
     <use xlink:href="#DejaVuSans-5f" x="581.880859"/>
     <use xlink:href="#DejaVuSans-32" x="631.880859"/>
     <use xlink:href="#DejaVuSans-30" x="695.503906"/>
     <use xlink:href="#DejaVuSans-31" x="759.126953"/>
     <use xlink:href="#DejaVuSans-30" x="822.75"/>
    </g>
   </g>
   <g id="line2d_77">
    <path d="M 641.847234 526.996266 
L 664.947234 526.996266 
L 688.047234 526.996266 
" style="fill: none; stroke: #8172b3; stroke-opacity: 0.9; stroke-width: 3; stroke-linecap: round"/>
   </g>
   <g id="text_34">
    <!-- exiobase3_full_2000 -->
    <g style="fill: #262626" transform="translate(706.527234 535.081266) scale(0.231 -0.231)">
     <defs>
      <path id="DejaVuSans-62" d="M 3116 1747 
Q 3116 2381 2855 2742 
Q 2594 3103 2138 3103 
Q 1681 3103 1420 2742 
Q 1159 2381 1159 1747 
Q 1159 1113 1420 752 
Q 1681 391 2138 391 
Q 2594 391 2855 752 
Q 3116 1113 3116 1747 
z
M 1159 2969 
Q 1341 3281 1617 3432 
Q 1894 3584 2278 3584 
Q 2916 3584 3314 3078 
Q 3713 2572 3713 1747 
Q 3713 922 3314 415 
Q 2916 -91 2278 -91 
Q 1894 -91 1617 61 
Q 1341 213 1159 525 
L 1159 0 
L 581 0 
L 581 4863 
L 1159 4863 
L 1159 2969 
z
" transform="scale(0.015625)"/>
     </defs>
     <use xlink:href="#DejaVuSans-65"/>
     <use xlink:href="#DejaVuSans-78" x="59.773438"/>
     <use xlink:href="#DejaVuSans-69" x="118.953125"/>
     <use xlink:href="#DejaVuSans-6f" x="146.736328"/>
     <use xlink:href="#DejaVuSans-62" x="207.917969"/>
     <use xlink:href="#DejaVuSans-61" x="271.394531"/>
     <use xlink:href="#DejaVuSans-73" x="332.673828"/>
     <use xlink:href="#DejaVuSans-65" x="384.773438"/>
     <use xlink:href="#DejaVuSans-33" x="446.296875"/>
     <use xlink:href="#DejaVuSans-5f" x="509.919922"/>
     <use xlink:href="#DejaVuSans-66" x="559.919922"/>
     <use xlink:href="#DejaVuSans-75" x="595.125"/>
     <use xlink:href="#DejaVuSans-6c" x="658.503906"/>
     <use xlink:href="#DejaVuSans-6c" x="686.287109"/>
     <use xlink:href="#DejaVuSans-5f" x="714.070312"/>
     <use xlink:href="#DejaVuSans-32" x="764.070312"/>
     <use xlink:href="#DejaVuSans-30" x="827.693359"/>
     <use xlink:href="#DejaVuSans-30" x="891.316406"/>
     <use xlink:href="#DejaVuSans-30" x="954.939453"/>
    </g>
   </g>
   <g id="line2d_78">
    <path d="M 988.022391 526.996266 
L 1011.122391 526.996266 
L 1034.222391 526.996266 
" style="fill: none; stroke: #937860; stroke-opacity: 0.9; stroke-width: 3; stroke-linecap: round"/>
   </g>
   <g id="text_35">
    <!-- exiobase3_full_2010 -->
    <g style="fill: #262626" transform="translate(1052.702391 535.081266) scale(0.231 -0.231)">
     <use xlink:href="#DejaVuSans-65"/>
     <use xlink:href="#DejaVuSans-78" x="59.773438"/>
     <use xlink:href="#DejaVuSans-69" x="118.953125"/>
     <use xlink:href="#DejaVuSans-6f" x="146.736328"/>
     <use xlink:href="#DejaVuSans-62" x="207.917969"/>
     <use xlink:href="#DejaVuSans-61" x="271.394531"/>
     <use xlink:href="#DejaVuSans-73" x="332.673828"/>
     <use xlink:href="#DejaVuSans-65" x="384.773438"/>
     <use xlink:href="#DejaVuSans-33" x="446.296875"/>
     <use xlink:href="#DejaVuSans-5f" x="509.919922"/>
     <use xlink:href="#DejaVuSans-66" x="559.919922"/>
     <use xlink:href="#DejaVuSans-75" x="595.125"/>
     <use xlink:href="#DejaVuSans-6c" x="658.503906"/>
     <use xlink:href="#DejaVuSans-6c" x="686.287109"/>
     <use xlink:href="#DejaVuSans-5f" x="714.070312"/>
     <use xlink:href="#DejaVuSans-32" x="764.070312"/>
     <use xlink:href="#DejaVuSans-30" x="827.693359"/>
     <use xlink:href="#DejaVuSans-31" x="891.316406"/>
     <use xlink:href="#DejaVuSans-30" x="954.939453"/>
    </g>
   </g>
  </g>
 </g>
 <defs>
  <clipPath id="p76ae618bd5">
   <rect x="142.032503" y="81.456" width="301.677203" height="115.976644"/>
  </clipPath>
  <clipPath id="p620618e2c3">
   <rect x="470.482436" y="81.456" width="301.677203" height="115.976644"/>
  </clipPath>
  <clipPath id="pa5a4476ddc">
   <rect x="798.93237" y="81.456" width="301.677203" height="115.976644"/>
  </clipPath>
  <clipPath id="p665cef9a2d">
   <rect x="142.032503" y="257.307356" width="301.677203" height="115.976644"/>
  </clipPath>
  <clipPath id="pd46015bb1e">
   <rect x="470.482436" y="257.307356" width="301.677203" height="115.976644"/>
  </clipPath>
  <clipPath id="pbb8d55ae4c">
   <rect x="798.93237" y="257.307356" width="301.677203" height="115.976644"/>
  </clipPath>
 </defs>
</svg>
