<?xml version="1.0" encoding="utf-8" standalone="no"?>
<!DOCTYPE svg PUBLIC "-//W3C//DTD SVG 1.1//EN"
  "http://www.w3.org/Graphics/SVG/1.1/DTD/svg11.dtd">
<svg xmlns:xlink="http://www.w3.org/1999/xlink" width="1237.494469pt" height="556.967813pt" viewBox="0 0 1237.494469 556.967813" xmlns="http://www.w3.org/2000/svg" version="1.1">
 <metadata>
  <rdf:RDF xmlns:dc="http://purl.org/dc/elements/1.1/" xmlns:cc="http://creativecommons.org/ns#" xmlns:rdf="http://www.w3.org/1999/02/22-rdf-syntax-ns#">
   <cc:Work>
    <dc:type rdf:resource="http://purl.org/dc/dcmitype/StillImage"/>
    <dc:date>2023-04-07T16:46:48.103185</dc:date>
    <dc:format>image/svg+xml</dc:format>
    <dc:creator>
     <cc:Agent>
      <dc:title>Matplotlib v3.7.1, https://matplotlib.org/</dc:title>
     </cc:Agent>
    </dc:creator>
   </cc:Work>
  </rdf:RDF>
 </metadata>
 <defs>
  <style type="text/css">*{stroke-linejoin: round; stroke-linecap: butt}</style>
 </defs>
 <g id="figure_1">
  <g id="patch_1">
   <path d="M -0 556.967813 
L 1237.494469 556.967813 
L 1237.494469 0 
L -0 0 
z
" style="fill: #ffffff"/>
  </g>
  <g id="axes_1">
   <g id="patch_2">
    <path d="M 119.522628 201.042 
L 422.166926 201.042 
L 422.166926 81.456 
L 119.522628 81.456 
z
" style="fill: #eaeaf2"/>
   </g>
   <g id="matplotlib.axis_1">
    <g id="xtick_1">
     <g id="line2d_1">
      <path d="M 133.279187 201.042 
L 133.279187 81.456 
" clip-path="url(#pdc4ea823d1)" style="fill: none; stroke: #ffffff; stroke-linecap: round"/>
     </g>
    </g>
    <g id="xtick_2">
     <g id="line2d_2">
      <path d="M 227.631444 201.042 
L 227.631444 81.456 
" clip-path="url(#pdc4ea823d1)" style="fill: none; stroke: #ffffff; stroke-linecap: round"/>
     </g>
    </g>
    <g id="xtick_3">
     <g id="line2d_3">
      <path d="M 321.9837 201.042 
L 321.9837 81.456 
" clip-path="url(#pdc4ea823d1)" style="fill: none; stroke: #ffffff; stroke-linecap: round"/>
     </g>
    </g>
    <g id="xtick_4">
     <g id="line2d_4">
      <path d="M 416.335957 201.042 
L 416.335957 81.456 
" clip-path="url(#pdc4ea823d1)" style="fill: none; stroke: #ffffff; stroke-linecap: round"/>
     </g>
    </g>
   </g>
   <g id="matplotlib.axis_2">
    <g id="ytick_1">
     <g id="line2d_5">
      <path d="M 119.522628 162.47555 
L 422.166926 162.47555 
" clip-path="url(#pdc4ea823d1)" style="fill: none; stroke: #ffffff; stroke-linecap: round"/>
     </g>
     <g id="text_1">
      <!-- −1 -->
      <g style="fill: #262626" transform="translate(75.968175 171.251745) scale(0.231 -0.231)">
       <defs>
        <path id="DejaVuSans-2212" d="M 678 2272 
L 4684 2272 
L 4684 1741 
L 678 1741 
L 678 2272 
z
" transform="scale(0.015625)"/>
        <path id="DejaVuSans-31" d="M 794 531 
L 1825 531 
L 1825 4091 
L 703 3866 
L 703 4441 
L 1819 4666 
L 2450 4666 
L 2450 531 
L 3481 531 
L 3481 0 
L 794 0 
L 794 531 
z
" transform="scale(0.015625)"/>
       </defs>
       <use xlink:href="#DejaVuSans-2212"/>
       <use xlink:href="#DejaVuSans-31" x="83.789062"/>
      </g>
     </g>
    </g>
    <g id="ytick_2">
     <g id="line2d_6">
      <path d="M 119.522628 121.688715 
L 422.166926 121.688715 
" clip-path="url(#pdc4ea823d1)" style="fill: none; stroke: #ffffff; stroke-linecap: round"/>
     </g>
     <g id="text_2">
      <!-- 0 -->
      <g style="fill: #262626" transform="translate(95.325253 130.464911) scale(0.231 -0.231)">
       <defs>
        <path id="DejaVuSans-30" d="M 2034 4250 
Q 1547 4250 1301 3770 
Q 1056 3291 1056 2328 
Q 1056 1369 1301 889 
Q 1547 409 2034 409 
Q 2525 409 2770 889 
Q 3016 1369 3016 2328 
Q 3016 3291 2770 3770 
Q 2525 4250 2034 4250 
z
M 2034 4750 
Q 2819 4750 3233 4129 
Q 3647 3509 3647 2328 
Q 3647 1150 3233 529 
Q 2819 -91 2034 -91 
Q 1250 -91 836 529 
Q 422 1150 422 2328 
Q 422 3509 836 4129 
Q 1250 4750 2034 4750 
z
" transform="scale(0.015625)"/>
       </defs>
       <use xlink:href="#DejaVuSans-30"/>
      </g>
     </g>
    </g>
    <g id="text_3">
     <!-- % change -->
     <g style="fill: #262626" transform="translate(66.727363 203.597344) rotate(-90) scale(0.252 -0.252)">
      <defs>
       <path id="DejaVuSans-25" d="M 4653 2053 
Q 4381 2053 4226 1822 
Q 4072 1591 4072 1178 
Q 4072 772 4226 539 
Q 4381 306 4653 306 
Q 4919 306 5073 539 
Q 5228 772 5228 1178 
Q 5228 1588 5073 1820 
Q 4919 2053 4653 2053 
z
M 4653 2450 
Q 5147 2450 5437 2106 
Q 5728 1763 5728 1178 
Q 5728 594 5436 251 
Q 5144 -91 4653 -91 
Q 4153 -91 3862 251 
Q 3572 594 3572 1178 
Q 3572 1766 3864 2108 
Q 4156 2450 4653 2450 
z
M 1428 4353 
Q 1159 4353 1004 4120 
Q 850 3888 850 3481 
Q 850 3069 1003 2837 
Q 1156 2606 1428 2606 
Q 1700 2606 1854 2837 
Q 2009 3069 2009 3481 
Q 2009 3884 1853 4118 
Q 1697 4353 1428 4353 
z
M 4250 4750 
L 4750 4750 
L 1831 -91 
L 1331 -91 
L 4250 4750 
z
M 1428 4750 
Q 1922 4750 2215 4408 
Q 2509 4066 2509 3481 
Q 2509 2891 2217 2550 
Q 1925 2209 1428 2209 
Q 931 2209 642 2551 
Q 353 2894 353 3481 
Q 353 4063 643 4406 
Q 934 4750 1428 4750 
z
" transform="scale(0.015625)"/>
       <path id="DejaVuSans-20" transform="scale(0.015625)"/>
       <path id="DejaVuSans-63" d="M 3122 3366 
L 3122 2828 
Q 2878 2963 2633 3030 
Q 2388 3097 2138 3097 
Q 1578 3097 1268 2742 
Q 959 2388 959 1747 
Q 959 1106 1268 751 
Q 1578 397 2138 397 
Q 2388 397 2633 464 
Q 2878 531 3122 666 
L 3122 134 
Q 2881 22 2623 -34 
Q 2366 -91 2075 -91 
Q 1284 -91 818 406 
Q 353 903 353 1747 
Q 353 2603 823 3093 
Q 1294 3584 2113 3584 
Q 2378 3584 2631 3529 
Q 2884 3475 3122 3366 
z
" transform="scale(0.015625)"/>
       <path id="DejaVuSans-68" d="M 3513 2113 
L 3513 0 
L 2938 0 
L 2938 2094 
Q 2938 2591 2744 2837 
Q 2550 3084 2163 3084 
Q 1697 3084 1428 2787 
Q 1159 2491 1159 1978 
L 1159 0 
L 581 0 
L 581 4863 
L 1159 4863 
L 1159 2956 
Q 1366 3272 1645 3428 
Q 1925 3584 2291 3584 
Q 2894 3584 3203 3211 
Q 3513 2838 3513 2113 
z
" transform="scale(0.015625)"/>
       <path id="DejaVuSans-61" d="M 2194 1759 
Q 1497 1759 1228 1600 
Q 959 1441 959 1056 
Q 959 750 1161 570 
Q 1363 391 1709 391 
Q 2188 391 2477 730 
Q 2766 1069 2766 1631 
L 2766 1759 
L 2194 1759 
z
M 3341 1997 
L 3341 0 
L 2766 0 
L 2766 531 
Q 2569 213 2275 61 
Q 1981 -91 1556 -91 
Q 1019 -91 701 211 
Q 384 513 384 1019 
Q 384 1609 779 1909 
Q 1175 2209 1959 2209 
L 2766 2209 
L 2766 2266 
Q 2766 2663 2505 2880 
Q 2244 3097 1772 3097 
Q 1472 3097 1187 3025 
Q 903 2953 641 2809 
L 641 3341 
Q 956 3463 1253 3523 
Q 1550 3584 1831 3584 
Q 2591 3584 2966 3190 
Q 3341 2797 3341 1997 
z
" transform="scale(0.015625)"/>
       <path id="DejaVuSans-6e" d="M 3513 2113 
L 3513 0 
L 2938 0 
L 2938 2094 
Q 2938 2591 2744 2837 
Q 2550 3084 2163 3084 
Q 1697 3084 1428 2787 
Q 1159 2491 1159 1978 
L 1159 0 
L 581 0 
L 581 3500 
L 1159 3500 
L 1159 2956 
Q 1366 3272 1645 3428 
Q 1925 3584 2291 3584 
Q 2894 3584 3203 3211 
Q 3513 2838 3513 2113 
z
" transform="scale(0.015625)"/>
       <path id="DejaVuSans-67" d="M 2906 1791 
Q 2906 2416 2648 2759 
Q 2391 3103 1925 3103 
Q 1463 3103 1205 2759 
Q 947 2416 947 1791 
Q 947 1169 1205 825 
Q 1463 481 1925 481 
Q 2391 481 2648 825 
Q 2906 1169 2906 1791 
z
M 3481 434 
Q 3481 -459 3084 -895 
Q 2688 -1331 1869 -1331 
Q 1566 -1331 1297 -1286 
Q 1028 -1241 775 -1147 
L 775 -588 
Q 1028 -725 1275 -790 
Q 1522 -856 1778 -856 
Q 2344 -856 2625 -561 
Q 2906 -266 2906 331 
L 2906 616 
Q 2728 306 2450 153 
Q 2172 0 1784 0 
Q 1141 0 747 490 
Q 353 981 353 1791 
Q 353 2603 747 3093 
Q 1141 3584 1784 3584 
Q 2172 3584 2450 3431 
Q 2728 3278 2906 2969 
L 2906 3500 
L 3481 3500 
L 3481 434 
z
" transform="scale(0.015625)"/>
       <path id="DejaVuSans-65" d="M 3597 1894 
L 3597 1613 
L 953 1613 
Q 991 1019 1311 708 
Q 1631 397 2203 397 
Q 2534 397 2845 478 
Q 3156 559 3463 722 
L 3463 178 
Q 3153 47 2828 -22 
Q 2503 -91 2169 -91 
Q 1331 -91 842 396 
Q 353 884 353 1716 
Q 353 2575 817 3079 
Q 1281 3584 2069 3584 
Q 2775 3584 3186 3129 
Q 3597 2675 3597 1894 
z
M 3022 2063 
Q 3016 2534 2758 2815 
Q 2500 3097 2075 3097 
Q 1594 3097 1305 2825 
Q 1016 2553 972 2059 
L 3022 2063 
z
" transform="scale(0.015625)"/>
      </defs>
      <use xlink:href="#DejaVuSans-25"/>
      <use xlink:href="#DejaVuSans-20" x="95.019531"/>
      <use xlink:href="#DejaVuSans-63" x="126.806641"/>
      <use xlink:href="#DejaVuSans-68" x="181.787109"/>
      <use xlink:href="#DejaVuSans-61" x="245.166016"/>
      <use xlink:href="#DejaVuSans-6e" x="306.445312"/>
      <use xlink:href="#DejaVuSans-67" x="369.824219"/>
      <use xlink:href="#DejaVuSans-65" x="433.300781"/>
     </g>
    </g>
   </g>
   <g id="PolyCollection_1"/>
   <g id="PolyCollection_2"/>
   <g id="PolyCollection_3"/>
   <g id="PolyCollection_4"/>
   <g id="line2d_7">
    <path d="M 133.279187 121.688715 
L 133.656597 154.525567 
L 134.034006 155.560465 
L 134.411415 155.720111 
L 135.166233 155.493129 
L 138.940323 153.828211 
L 140.827368 152.135059 
L 145.356276 148.159515 
L 150.262594 144.118881 
L 156.301138 139.68611 
L 161.207455 136.317686 
L 168.000818 131.945953 
L 174.79418 127.844071 
L 180.077907 124.83258 
L 185.739042 122.51401 
L 191.022768 120.5237 
L 196.683904 119.162115 
L 201.96763 118.207348 
L 207.628766 117.337858 
L 215.931764 117.778535 
L 224.612172 118.300579 
L 235.934442 118.958899 
L 241.218169 119.260571 
L 248.766349 119.419927 
L 266.504574 119.561703 
L 311.038839 119.631535 
L 408.410367 119.639922 
L 408.410367 119.639922 
" clip-path="url(#pdc4ea823d1)" style="fill: none; stroke: #4c72b0; stroke-opacity: 0.9; stroke-width: 3; stroke-linecap: round"/>
   </g>
   <g id="line2d_8">
    <path d="M 133.279187 121.688715 
L 133.656597 139.598119 
L 134.034006 140.301884 
L 134.411415 140.495337 
L 135.166233 140.468477 
L 138.940323 139.685158 
L 140.827368 138.821134 
L 147.243321 135.8778 
L 154.414093 132.853349 
L 159.32041 130.971266 
L 166.113773 128.594552 
L 175.548998 125.555922 
L 181.964952 123.682833 
L 191.777586 121.510301 
L 203.854675 119.554084 
L 207.628766 119.128267 
L 221.21549 119.400093 
L 229.518489 119.702984 
L 286.507252 120.299731 
L 408.410367 120.315462 
L 408.410367 120.315462 
" clip-path="url(#pdc4ea823d1)" style="fill: none; stroke: #dd8452; stroke-opacity: 0.9; stroke-width: 3; stroke-linecap: round"/>
   </g>
   <g id="line2d_9">
    <path d="M 133.279187 121.688715 
L 133.656597 156.099364 
L 134.034006 157.846289 
L 134.411415 158.173196 
L 135.166233 158.018275 
L 138.940323 156.388395 
L 140.827368 154.633047 
L 145.733685 150.119723 
L 151.017412 145.570264 
L 156.301138 141.314849 
L 162.339682 136.754978 
L 167.623409 133.070681 
L 174.039362 128.879184 
L 180.077907 125.181658 
L 183.097179 123.604259 
L 186.49386 122.009478 
L 189.513132 120.820585 
L 192.909814 119.795291 
L 198.948358 118.433782 
L 205.74172 117.328239 
L 207.251357 117.159478 
L 211.025447 117.466099 
L 228.386262 118.991191 
L 238.576306 119.472444 
L 248.766349 119.728801 
L 264.617528 119.890267 
L 300.471386 119.974698 
L 408.410367 119.986043 
L 408.410367 119.986043 
" clip-path="url(#pdc4ea823d1)" style="fill: none; stroke: #55a868; stroke-opacity: 0.9; stroke-width: 3; stroke-linecap: round"/>
   </g>
   <g id="line2d_10">
    <path d="M 133.279187 121.688715 
L 133.656597 148.732633 
L 134.034006 150.132994 
L 134.411415 150.386958 
L 135.166233 150.255083 
L 138.940323 148.937085 
L 140.827368 147.543448 
L 146.111094 143.681439 
L 151.394821 140.087623 
L 157.433365 136.268438 
L 163.094501 132.947005 
L 168.755636 129.877548 
L 175.926407 126.277899 
L 181.210134 123.845793 
L 185.739042 122.151357 
L 189.135723 121.126547 
L 192.532405 120.35509 
L 198.570949 119.293903 
L 206.496538 118.25696 
L 207.628766 118.236439 
L 234.802215 119.708646 
L 245.747077 119.970131 
L 265.749755 120.149241 
L 305.377703 120.212539 
L 408.410367 120.216553 
L 408.410367 120.216553 
" clip-path="url(#pdc4ea823d1)" style="fill: none; stroke: #c44e52; stroke-opacity: 0.9; stroke-width: 3; stroke-linecap: round"/>
   </g>
   <g id="patch_3">
    <path d="M 119.522628 201.042 
L 119.522628 81.456 
" style="fill: none; stroke: #ffffff; stroke-width: 1.25; stroke-linejoin: miter; stroke-linecap: square"/>
   </g>
   <g id="patch_4">
    <path d="M 119.522628 201.042 
L 422.166926 201.042 
" style="fill: none; stroke: #ffffff; stroke-width: 1.25; stroke-linejoin: miter; stroke-linecap: square"/>
   </g>
   <g id="text_4">
    <!-- 0.5~30 -->
    <g style="fill: #262626" transform="translate(224.214934 75.456) scale(0.252 -0.252)">
     <defs>
      <path id="DejaVuSans-2e" d="M 684 794 
L 1344 794 
L 1344 0 
L 684 0 
L 684 794 
z
" transform="scale(0.015625)"/>
      <path id="DejaVuSans-35" d="M 691 4666 
L 3169 4666 
L 3169 4134 
L 1269 4134 
L 1269 2991 
Q 1406 3038 1543 3061 
Q 1681 3084 1819 3084 
Q 2600 3084 3056 2656 
Q 3513 2228 3513 1497 
Q 3513 744 3044 326 
Q 2575 -91 1722 -91 
Q 1428 -91 1123 -41 
Q 819 9 494 109 
L 494 744 
Q 775 591 1075 516 
Q 1375 441 1709 441 
Q 2250 441 2565 725 
Q 2881 1009 2881 1497 
Q 2881 1984 2565 2268 
Q 2250 2553 1709 2553 
Q 1456 2553 1204 2497 
Q 953 2441 691 2322 
L 691 4666 
z
" transform="scale(0.015625)"/>
      <path id="DejaVuSans-7e" d="M 4684 2553 
L 4684 1997 
Q 4356 1750 4076 1644 
Q 3797 1538 3494 1538 
Q 3150 1538 2694 1722 
Q 2659 1734 2644 1741 
Q 2622 1750 2575 1766 
Q 2091 1959 1797 1959 
Q 1522 1959 1253 1839 
Q 984 1719 678 1459 
L 678 2016 
Q 1006 2263 1286 2370 
Q 1566 2478 1869 2478 
Q 2213 2478 2672 2291 
Q 2703 2278 2719 2272 
Q 2744 2263 2788 2247 
Q 3272 2053 3566 2053 
Q 3834 2053 4098 2172 
Q 4363 2291 4684 2553 
z
" transform="scale(0.015625)"/>
      <path id="DejaVuSans-33" d="M 2597 2516 
Q 3050 2419 3304 2112 
Q 3559 1806 3559 1356 
Q 3559 666 3084 287 
Q 2609 -91 1734 -91 
Q 1441 -91 1130 -33 
Q 819 25 488 141 
L 488 750 
Q 750 597 1062 519 
Q 1375 441 1716 441 
Q 2309 441 2620 675 
Q 2931 909 2931 1356 
Q 2931 1769 2642 2001 
Q 2353 2234 1838 2234 
L 1294 2234 
L 1294 2753 
L 1863 2753 
Q 2328 2753 2575 2939 
Q 2822 3125 2822 3475 
Q 2822 3834 2567 4026 
Q 2313 4219 1838 4219 
Q 1578 4219 1281 4162 
Q 984 4106 628 3988 
L 628 4550 
Q 988 4650 1302 4700 
Q 1616 4750 1894 4750 
Q 2613 4750 3031 4423 
Q 3450 4097 3450 3541 
Q 3450 3153 3228 2886 
Q 3006 2619 2597 2516 
z
" transform="scale(0.015625)"/>
     </defs>
     <use xlink:href="#DejaVuSans-30"/>
     <use xlink:href="#DejaVuSans-2e" x="63.623047"/>
     <use xlink:href="#DejaVuSans-35" x="95.410156"/>
     <use xlink:href="#DejaVuSans-7e" x="159.033203"/>
     <use xlink:href="#DejaVuSans-33" x="242.822266"/>
     <use xlink:href="#DejaVuSans-30" x="306.445312"/>
    </g>
   </g>
  </g>
  <g id="axes_2">
   <g id="patch_5">
    <path d="M 449.025483 201.042 
L 751.66978 201.042 
L 751.66978 81.456 
L 449.025483 81.456 
z
" style="fill: #eaeaf2"/>
   </g>
   <g id="matplotlib.axis_3">
    <g id="xtick_5">
     <g id="line2d_11">
      <path d="M 462.782042 201.042 
L 462.782042 81.456 
" clip-path="url(#p4a60644cad)" style="fill: none; stroke: #ffffff; stroke-linecap: round"/>
     </g>
    </g>
    <g id="xtick_6">
     <g id="line2d_12">
      <path d="M 557.134298 201.042 
L 557.134298 81.456 
" clip-path="url(#p4a60644cad)" style="fill: none; stroke: #ffffff; stroke-linecap: round"/>
     </g>
    </g>
    <g id="xtick_7">
     <g id="line2d_13">
      <path d="M 651.486554 201.042 
L 651.486554 81.456 
" clip-path="url(#p4a60644cad)" style="fill: none; stroke: #ffffff; stroke-linecap: round"/>
     </g>
    </g>
    <g id="xtick_8">
     <g id="line2d_14">
      <path d="M 745.838811 201.042 
L 745.838811 81.456 
" clip-path="url(#p4a60644cad)" style="fill: none; stroke: #ffffff; stroke-linecap: round"/>
     </g>
    </g>
   </g>
   <g id="matplotlib.axis_4">
    <g id="ytick_3">
     <g id="line2d_15">
      <path d="M 449.025483 162.47555 
L 751.66978 162.47555 
" clip-path="url(#p4a60644cad)" style="fill: none; stroke: #ffffff; stroke-linecap: round"/>
     </g>
    </g>
    <g id="ytick_4">
     <g id="line2d_16">
      <path d="M 449.025483 121.688715 
L 751.66978 121.688715 
" clip-path="url(#p4a60644cad)" style="fill: none; stroke: #ffffff; stroke-linecap: round"/>
     </g>
    </g>
   </g>
   <g id="PolyCollection_5"/>
   <g id="PolyCollection_6"/>
   <g id="PolyCollection_7"/>
   <g id="PolyCollection_8"/>
   <g id="line2d_17">
    <path d="M 462.782042 121.688715 
L 463.159451 154.525567 
L 463.53686 155.692678 
L 463.914269 156.005053 
L 464.669087 156.093538 
L 468.443177 155.958261 
L 469.952813 155.192298 
L 494.4844 141.958389 
L 516.374123 130.38877 
L 528.828621 124.013052 
L 534.489756 121.330434 
L 536.376802 120.655507 
L 541.283119 120.672367 
L 595.630019 121.026992 
L 611.858607 121.262426 
L 645.44801 121.409891 
L 729.610223 121.472171 
L 737.913221 121.472692 
L 737.913221 121.472692 
" clip-path="url(#p4a60644cad)" style="fill: none; stroke: #4c72b0; stroke-opacity: 0.9; stroke-width: 3; stroke-linecap: round"/>
   </g>
   <g id="line2d_18">
    <path d="M 462.782042 121.688715 
L 463.159451 139.598119 
L 463.53686 140.363119 
L 463.914269 140.628082 
L 464.669087 140.751789 
L 468.065768 140.710762 
L 468.820586 140.622608 
L 472.972085 139.398479 
L 505.80667 129.700206 
L 530.338257 122.65738 
L 535.621984 121.332685 
L 536.754211 121.168247 
L 716.023498 121.544965 
L 737.913221 121.548457 
L 737.913221 121.548457 
" clip-path="url(#p4a60644cad)" style="fill: none; stroke: #dd8452; stroke-opacity: 0.9; stroke-width: 3; stroke-linecap: round"/>
   </g>
   <g id="line2d_19">
    <path d="M 462.782042 121.688715 
L 463.159451 156.099364 
L 463.53686 157.976493 
L 463.914269 158.454478 
L 464.669087 158.611432 
L 468.065768 158.494807 
L 468.443177 158.479652 
L 469.952813 157.656297 
L 495.994036 142.575538 
L 519.770804 129.07208 
L 531.093075 122.846963 
L 533.734938 121.590474 
L 536.376802 120.478517 
L 543.924982 120.468176 
L 568.456569 120.596731 
L 581.665885 120.860596 
L 600.158927 121.199287 
L 626.20015 121.427074 
L 667.337733 121.508547 
L 737.913221 121.518819 
L 737.913221 121.518819 
" clip-path="url(#p4a60644cad)" style="fill: none; stroke: #55a868; stroke-opacity: 0.9; stroke-width: 3; stroke-linecap: round"/>
   </g>
   <g id="line2d_20">
    <path d="M 462.782042 121.688715 
L 463.159451 148.732633 
L 463.53686 150.237617 
L 463.914269 150.613543 
L 464.669087 150.733592 
L 468.443177 150.62979 
L 469.952813 149.985215 
L 499.768126 136.421189 
L 523.544895 125.839458 
L 532.602711 122.007784 
L 536.376802 120.778939 
L 546.944254 120.757916 
L 569.966205 120.8754 
L 613.368243 121.372537 
L 656.392872 121.528623 
L 737.913221 121.544451 
L 737.913221 121.544451 
" clip-path="url(#p4a60644cad)" style="fill: none; stroke: #c44e52; stroke-opacity: 0.9; stroke-width: 3; stroke-linecap: round"/>
   </g>
   <g id="patch_6">
    <path d="M 449.025483 201.042 
L 449.025483 81.456 
" style="fill: none; stroke: #ffffff; stroke-width: 1.25; stroke-linejoin: miter; stroke-linecap: square"/>
   </g>
   <g id="patch_7">
    <path d="M 449.025483 201.042 
L 751.66978 201.042 
" style="fill: none; stroke: #ffffff; stroke-width: 1.25; stroke-linejoin: miter; stroke-linecap: square"/>
   </g>
   <g id="text_5">
    <!-- 0.5~365 -->
    <g style="fill: #262626" transform="translate(545.701038 75.456) scale(0.252 -0.252)">
     <defs>
      <path id="DejaVuSans-36" d="M 2113 2584 
Q 1688 2584 1439 2293 
Q 1191 2003 1191 1497 
Q 1191 994 1439 701 
Q 1688 409 2113 409 
Q 2538 409 2786 701 
Q 3034 994 3034 1497 
Q 3034 2003 2786 2293 
Q 2538 2584 2113 2584 
z
M 3366 4563 
L 3366 3988 
Q 3128 4100 2886 4159 
Q 2644 4219 2406 4219 
Q 1781 4219 1451 3797 
Q 1122 3375 1075 2522 
Q 1259 2794 1537 2939 
Q 1816 3084 2150 3084 
Q 2853 3084 3261 2657 
Q 3669 2231 3669 1497 
Q 3669 778 3244 343 
Q 2819 -91 2113 -91 
Q 1303 -91 875 529 
Q 447 1150 447 2328 
Q 447 3434 972 4092 
Q 1497 4750 2381 4750 
Q 2619 4750 2861 4703 
Q 3103 4656 3366 4563 
z
" transform="scale(0.015625)"/>
     </defs>
     <use xlink:href="#DejaVuSans-30"/>
     <use xlink:href="#DejaVuSans-2e" x="63.623047"/>
     <use xlink:href="#DejaVuSans-35" x="95.410156"/>
     <use xlink:href="#DejaVuSans-7e" x="159.033203"/>
     <use xlink:href="#DejaVuSans-33" x="242.822266"/>
     <use xlink:href="#DejaVuSans-36" x="306.445312"/>
     <use xlink:href="#DejaVuSans-35" x="370.068359"/>
    </g>
   </g>
  </g>
  <g id="axes_3">
   <g id="patch_8">
    <path d="M 778.528337 201.042 
L 1081.172634 201.042 
L 1081.172634 81.456 
L 778.528337 81.456 
z
" style="fill: #eaeaf2"/>
   </g>
   <g id="matplotlib.axis_5">
    <g id="xtick_9">
     <g id="line2d_21">
      <path d="M 792.284896 201.042 
L 792.284896 81.456 
" clip-path="url(#p49d996010c)" style="fill: none; stroke: #ffffff; stroke-linecap: round"/>
     </g>
    </g>
    <g id="xtick_10">
     <g id="line2d_22">
      <path d="M 886.637152 201.042 
L 886.637152 81.456 
" clip-path="url(#p49d996010c)" style="fill: none; stroke: #ffffff; stroke-linecap: round"/>
     </g>
    </g>
    <g id="xtick_11">
     <g id="line2d_23">
      <path d="M 980.989409 201.042 
L 980.989409 81.456 
" clip-path="url(#p49d996010c)" style="fill: none; stroke: #ffffff; stroke-linecap: round"/>
     </g>
    </g>
    <g id="xtick_12">
     <g id="line2d_24">
      <path d="M 1075.341665 201.042 
L 1075.341665 81.456 
" clip-path="url(#p49d996010c)" style="fill: none; stroke: #ffffff; stroke-linecap: round"/>
     </g>
    </g>
   </g>
   <g id="matplotlib.axis_6">
    <g id="ytick_5">
     <g id="line2d_25">
      <path d="M 778.528337 162.47555 
L 1081.172634 162.47555 
" clip-path="url(#p49d996010c)" style="fill: none; stroke: #ffffff; stroke-linecap: round"/>
     </g>
    </g>
    <g id="ytick_6">
     <g id="line2d_26">
      <path d="M 778.528337 121.688715 
L 1081.172634 121.688715 
" clip-path="url(#p49d996010c)" style="fill: none; stroke: #ffffff; stroke-linecap: round"/>
     </g>
    </g>
   </g>
   <g id="PolyCollection_9"/>
   <g id="PolyCollection_10"/>
   <g id="PolyCollection_11"/>
   <g id="PolyCollection_12"/>
   <g id="line2d_27">
    <path d="M 792.284896 121.688715 
L 792.662305 154.525567 
L 793.039714 155.560465 
L 793.417123 155.720111 
L 794.171941 155.493129 
L 797.946031 153.828211 
L 799.833076 152.135059 
L 804.361984 148.159515 
L 809.268302 144.118881 
L 815.306846 139.68611 
L 820.213164 136.317686 
L 827.006526 131.945953 
L 833.799888 127.844071 
L 839.083615 124.83258 
L 844.74475 122.51401 
L 850.028477 120.5237 
L 855.689612 119.162115 
L 860.973338 118.207348 
L 866.634474 117.337858 
L 874.937472 117.778535 
L 883.61788 118.300579 
L 894.940151 118.958899 
L 900.223877 119.260571 
L 907.772058 119.419927 
L 925.510282 119.561703 
L 970.044547 119.631535 
L 1067.416075 119.639922 
L 1067.416075 119.639922 
" clip-path="url(#p49d996010c)" style="fill: none; stroke: #4c72b0; stroke-opacity: 0.9; stroke-width: 3; stroke-linecap: round"/>
   </g>
   <g id="line2d_28">
    <path d="M 792.284896 121.688715 
L 792.662305 139.598119 
L 793.039714 140.301884 
L 793.417123 140.495337 
L 794.171941 140.468477 
L 797.946031 139.685158 
L 799.833076 138.821134 
L 806.24903 135.8778 
L 813.419801 132.853349 
L 818.326118 130.971266 
L 825.119481 128.594552 
L 834.554707 125.555922 
L 840.97066 123.682833 
L 850.783295 121.510301 
L 862.860383 119.554084 
L 866.634474 119.128267 
L 880.221199 119.400093 
L 888.524197 119.702984 
L 945.51296 120.299731 
L 1067.416075 120.315462 
L 1067.416075 120.315462 
" clip-path="url(#p49d996010c)" style="fill: none; stroke: #dd8452; stroke-opacity: 0.9; stroke-width: 3; stroke-linecap: round"/>
   </g>
   <g id="line2d_29">
    <path d="M 792.284896 121.688715 
L 792.662305 156.099364 
L 793.039714 157.846289 
L 793.417123 158.173196 
L 794.171941 158.018275 
L 797.946031 156.388395 
L 799.833076 154.633047 
L 804.739394 150.119723 
L 810.02312 145.570264 
L 815.306846 141.314849 
L 821.345391 136.754978 
L 826.629117 133.070681 
L 833.04507 128.879184 
L 839.083615 125.181658 
L 842.102887 123.604259 
L 845.499568 122.009478 
L 848.51884 120.820585 
L 851.915522 119.795291 
L 857.954066 118.433782 
L 864.747429 117.328239 
L 866.257065 117.159478 
L 870.031155 117.466099 
L 887.39197 118.991191 
L 897.582014 119.472444 
L 907.772058 119.728801 
L 923.623237 119.890267 
L 959.477094 119.974698 
L 1067.416075 119.986043 
L 1067.416075 119.986043 
" clip-path="url(#p49d996010c)" style="fill: none; stroke: #55a868; stroke-opacity: 0.9; stroke-width: 3; stroke-linecap: round"/>
   </g>
   <g id="line2d_30">
    <path d="M 792.284896 121.688715 
L 792.662305 148.732633 
L 793.039714 150.132994 
L 793.417123 150.386958 
L 794.171941 150.255083 
L 797.946031 148.937085 
L 799.833076 147.543448 
L 805.116803 143.681439 
L 810.400529 140.087623 
L 816.439073 136.268438 
L 822.100209 132.947005 
L 827.761344 129.877548 
L 834.932116 126.277899 
L 840.215842 123.845793 
L 844.74475 122.151357 
L 848.141431 121.126547 
L 851.538113 120.35509 
L 857.576657 119.293903 
L 865.502247 118.25696 
L 866.634474 118.236439 
L 893.807924 119.708646 
L 904.752785 119.970131 
L 924.755464 120.149241 
L 964.383411 120.212539 
L 1067.416075 120.216553 
L 1067.416075 120.216553 
" clip-path="url(#p49d996010c)" style="fill: none; stroke: #c44e52; stroke-opacity: 0.9; stroke-width: 3; stroke-linecap: round"/>
   </g>
   <g id="patch_9">
    <path d="M 778.528337 201.042 
L 778.528337 81.456 
" style="fill: none; stroke: #ffffff; stroke-width: 1.25; stroke-linejoin: miter; stroke-linecap: square"/>
   </g>
   <g id="patch_10">
    <path d="M 778.528337 201.042 
L 1081.172634 201.042 
" style="fill: none; stroke: #ffffff; stroke-width: 1.25; stroke-linejoin: miter; stroke-linecap: square"/>
   </g>
   <g id="text_6">
    <!-- 0.8~30 -->
    <g style="fill: #262626" transform="translate(883.220642 75.456) scale(0.252 -0.252)">
     <defs>
      <path id="DejaVuSans-38" d="M 2034 2216 
Q 1584 2216 1326 1975 
Q 1069 1734 1069 1313 
Q 1069 891 1326 650 
Q 1584 409 2034 409 
Q 2484 409 2743 651 
Q 3003 894 3003 1313 
Q 3003 1734 2745 1975 
Q 2488 2216 2034 2216 
z
M 1403 2484 
Q 997 2584 770 2862 
Q 544 3141 544 3541 
Q 544 4100 942 4425 
Q 1341 4750 2034 4750 
Q 2731 4750 3128 4425 
Q 3525 4100 3525 3541 
Q 3525 3141 3298 2862 
Q 3072 2584 2669 2484 
Q 3125 2378 3379 2068 
Q 3634 1759 3634 1313 
Q 3634 634 3220 271 
Q 2806 -91 2034 -91 
Q 1263 -91 848 271 
Q 434 634 434 1313 
Q 434 1759 690 2068 
Q 947 2378 1403 2484 
z
M 1172 3481 
Q 1172 3119 1398 2916 
Q 1625 2713 2034 2713 
Q 2441 2713 2670 2916 
Q 2900 3119 2900 3481 
Q 2900 3844 2670 4047 
Q 2441 4250 2034 4250 
Q 1625 4250 1398 4047 
Q 1172 3844 1172 3481 
z
" transform="scale(0.015625)"/>
     </defs>
     <use xlink:href="#DejaVuSans-30"/>
     <use xlink:href="#DejaVuSans-2e" x="63.623047"/>
     <use xlink:href="#DejaVuSans-38" x="95.410156"/>
     <use xlink:href="#DejaVuSans-7e" x="159.033203"/>
     <use xlink:href="#DejaVuSans-33" x="242.822266"/>
     <use xlink:href="#DejaVuSans-30" x="306.445312"/>
    </g>
   </g>
  </g>
  <g id="axes_4">
   <g id="patch_11">
    <path d="M 119.522628 373.284 
L 422.166926 373.284 
L 422.166926 253.698 
L 119.522628 253.698 
z
" style="fill: #eaeaf2"/>
   </g>
   <g id="matplotlib.axis_7">
    <g id="xtick_13">
     <g id="line2d_31">
      <path d="M 133.279187 373.284 
L 133.279187 253.698 
" clip-path="url(#paca53f9af9)" style="fill: none; stroke: #ffffff; stroke-linecap: round"/>
     </g>
     <g id="text_7">
      <!-- 0 -->
      <g style="fill: #262626" transform="translate(125.9305 400.336391) scale(0.231 -0.231)">
       <use xlink:href="#DejaVuSans-30"/>
      </g>
     </g>
    </g>
    <g id="xtick_14">
     <g id="line2d_32">
      <path d="M 227.631444 373.284 
L 227.631444 253.698 
" clip-path="url(#paca53f9af9)" style="fill: none; stroke: #ffffff; stroke-linecap: round"/>
     </g>
     <g id="text_8">
      <!-- 250 -->
      <g style="fill: #262626" transform="translate(205.585381 400.336391) scale(0.231 -0.231)">
       <defs>
        <path id="DejaVuSans-32" d="M 1228 531 
L 3431 531 
L 3431 0 
L 469 0 
L 469 531 
Q 828 903 1448 1529 
Q 2069 2156 2228 2338 
Q 2531 2678 2651 2914 
Q 2772 3150 2772 3378 
Q 2772 3750 2511 3984 
Q 2250 4219 1831 4219 
Q 1534 4219 1204 4116 
Q 875 4013 500 3803 
L 500 4441 
Q 881 4594 1212 4672 
Q 1544 4750 1819 4750 
Q 2544 4750 2975 4387 
Q 3406 4025 3406 3419 
Q 3406 3131 3298 2873 
Q 3191 2616 2906 2266 
Q 2828 2175 2409 1742 
Q 1991 1309 1228 531 
z
" transform="scale(0.015625)"/>
       </defs>
       <use xlink:href="#DejaVuSans-32"/>
       <use xlink:href="#DejaVuSans-35" x="63.623047"/>
       <use xlink:href="#DejaVuSans-30" x="127.246094"/>
      </g>
     </g>
    </g>
    <g id="xtick_15">
     <g id="line2d_33">
      <path d="M 321.9837 373.284 
L 321.9837 253.698 
" clip-path="url(#paca53f9af9)" style="fill: none; stroke: #ffffff; stroke-linecap: round"/>
     </g>
     <g id="text_9">
      <!-- 500 -->
      <g style="fill: #262626" transform="translate(299.937638 400.336391) scale(0.231 -0.231)">
       <use xlink:href="#DejaVuSans-35"/>
       <use xlink:href="#DejaVuSans-30" x="63.623047"/>
       <use xlink:href="#DejaVuSans-30" x="127.246094"/>
      </g>
     </g>
    </g>
    <g id="xtick_16">
     <g id="line2d_34">
      <path d="M 416.335957 373.284 
L 416.335957 253.698 
" clip-path="url(#paca53f9af9)" style="fill: none; stroke: #ffffff; stroke-linecap: round"/>
     </g>
     <g id="text_10">
      <!-- 750 -->
      <g style="fill: #262626" transform="translate(394.289894 400.336391) scale(0.231 -0.231)">
       <defs>
        <path id="DejaVuSans-37" d="M 525 4666 
L 3525 4666 
L 3525 4397 
L 1831 0 
L 1172 0 
L 2766 4134 
L 525 4134 
L 525 4666 
z
" transform="scale(0.015625)"/>
       </defs>
       <use xlink:href="#DejaVuSans-37"/>
       <use xlink:href="#DejaVuSans-35" x="63.623047"/>
       <use xlink:href="#DejaVuSans-30" x="127.246094"/>
      </g>
     </g>
    </g>
    <g id="text_11">
     <!-- step -->
     <g style="fill: #262626" transform="translate(243.589402 428.288531) scale(0.252 -0.252)">
      <defs>
       <path id="DejaVuSans-73" d="M 2834 3397 
L 2834 2853 
Q 2591 2978 2328 3040 
Q 2066 3103 1784 3103 
Q 1356 3103 1142 2972 
Q 928 2841 928 2578 
Q 928 2378 1081 2264 
Q 1234 2150 1697 2047 
L 1894 2003 
Q 2506 1872 2764 1633 
Q 3022 1394 3022 966 
Q 3022 478 2636 193 
Q 2250 -91 1575 -91 
Q 1294 -91 989 -36 
Q 684 19 347 128 
L 347 722 
Q 666 556 975 473 
Q 1284 391 1588 391 
Q 1994 391 2212 530 
Q 2431 669 2431 922 
Q 2431 1156 2273 1281 
Q 2116 1406 1581 1522 
L 1381 1569 
Q 847 1681 609 1914 
Q 372 2147 372 2553 
Q 372 3047 722 3315 
Q 1072 3584 1716 3584 
Q 2034 3584 2315 3537 
Q 2597 3491 2834 3397 
z
" transform="scale(0.015625)"/>
       <path id="DejaVuSans-74" d="M 1172 4494 
L 1172 3500 
L 2356 3500 
L 2356 3053 
L 1172 3053 
L 1172 1153 
Q 1172 725 1289 603 
Q 1406 481 1766 481 
L 2356 481 
L 2356 0 
L 1766 0 
Q 1100 0 847 248 
Q 594 497 594 1153 
L 594 3053 
L 172 3053 
L 172 3500 
L 594 3500 
L 594 4494 
L 1172 4494 
z
" transform="scale(0.015625)"/>
       <path id="DejaVuSans-70" d="M 1159 525 
L 1159 -1331 
L 581 -1331 
L 581 3500 
L 1159 3500 
L 1159 2969 
Q 1341 3281 1617 3432 
Q 1894 3584 2278 3584 
Q 2916 3584 3314 3078 
Q 3713 2572 3713 1747 
Q 3713 922 3314 415 
Q 2916 -91 2278 -91 
Q 1894 -91 1617 61 
Q 1341 213 1159 525 
z
M 3116 1747 
Q 3116 2381 2855 2742 
Q 2594 3103 2138 3103 
Q 1681 3103 1420 2742 
Q 1159 2381 1159 1747 
Q 1159 1113 1420 752 
Q 1681 391 2138 391 
Q 2594 391 2855 752 
Q 3116 1113 3116 1747 
z
" transform="scale(0.015625)"/>
      </defs>
      <use xlink:href="#DejaVuSans-73"/>
      <use xlink:href="#DejaVuSans-74" x="52.099609"/>
      <use xlink:href="#DejaVuSans-65" x="91.308594"/>
      <use xlink:href="#DejaVuSans-70" x="152.832031"/>
     </g>
    </g>
   </g>
   <g id="matplotlib.axis_8">
    <g id="ytick_7">
     <g id="line2d_35">
      <path d="M 119.522628 334.71755 
L 422.166926 334.71755 
" clip-path="url(#paca53f9af9)" style="fill: none; stroke: #ffffff; stroke-linecap: round"/>
     </g>
     <g id="text_12">
      <!-- −1 -->
      <g style="fill: #262626" transform="translate(75.968175 343.493745) scale(0.231 -0.231)">
       <use xlink:href="#DejaVuSans-2212"/>
       <use xlink:href="#DejaVuSans-31" x="83.789062"/>
      </g>
     </g>
    </g>
    <g id="ytick_8">
     <g id="line2d_36">
      <path d="M 119.522628 293.930715 
L 422.166926 293.930715 
" clip-path="url(#paca53f9af9)" style="fill: none; stroke: #ffffff; stroke-linecap: round"/>
     </g>
     <g id="text_13">
      <!-- 0 -->
      <g style="fill: #262626" transform="translate(95.325253 302.706911) scale(0.231 -0.231)">
       <use xlink:href="#DejaVuSans-30"/>
      </g>
     </g>
    </g>
    <g id="text_14">
     <!-- % change -->
     <g style="fill: #262626" transform="translate(66.727363 375.839344) rotate(-90) scale(0.252 -0.252)">
      <use xlink:href="#DejaVuSans-25"/>
      <use xlink:href="#DejaVuSans-20" x="95.019531"/>
      <use xlink:href="#DejaVuSans-63" x="126.806641"/>
      <use xlink:href="#DejaVuSans-68" x="181.787109"/>
      <use xlink:href="#DejaVuSans-61" x="245.166016"/>
      <use xlink:href="#DejaVuSans-6e" x="306.445312"/>
      <use xlink:href="#DejaVuSans-67" x="369.824219"/>
      <use xlink:href="#DejaVuSans-65" x="433.300781"/>
     </g>
    </g>
   </g>
   <g id="PolyCollection_13"/>
   <g id="PolyCollection_14"/>
   <g id="PolyCollection_15"/>
   <g id="PolyCollection_16"/>
   <g id="line2d_37">
    <path d="M 133.279187 293.930715 
L 133.656597 326.767567 
L 134.034006 327.934678 
L 134.411415 328.247053 
L 135.166233 328.335538 
L 138.940323 328.200261 
L 140.449959 327.434298 
L 164.981546 314.200389 
L 186.871269 302.63077 
L 199.325767 296.255052 
L 204.986902 293.572434 
L 206.873947 292.897507 
L 211.780265 292.914367 
L 266.127165 293.268992 
L 282.355753 293.504426 
L 315.945156 293.651891 
L 400.107369 293.714171 
L 408.410367 293.714692 
L 408.410367 293.714692 
" clip-path="url(#paca53f9af9)" style="fill: none; stroke: #4c72b0; stroke-opacity: 0.9; stroke-width: 3; stroke-linecap: round"/>
   </g>
   <g id="line2d_38">
    <path d="M 133.279187 293.930715 
L 133.656597 311.840119 
L 134.034006 312.605119 
L 134.411415 312.870082 
L 135.166233 312.993789 
L 138.562914 312.952762 
L 139.317732 312.864608 
L 143.469231 311.640479 
L 176.303816 301.942206 
L 200.835403 294.89938 
L 206.119129 293.574685 
L 207.251357 293.410247 
L 386.520644 293.786965 
L 408.410367 293.790457 
L 408.410367 293.790457 
" clip-path="url(#paca53f9af9)" style="fill: none; stroke: #dd8452; stroke-opacity: 0.9; stroke-width: 3; stroke-linecap: round"/>
   </g>
   <g id="line2d_39">
    <path d="M 133.279187 293.930715 
L 133.656597 328.341364 
L 134.034006 330.218493 
L 134.411415 330.696478 
L 135.166233 330.853432 
L 138.562914 330.736807 
L 138.940323 330.721652 
L 140.449959 329.898297 
L 166.491182 314.817538 
L 190.26795 301.31408 
L 201.590221 295.088963 
L 204.232084 293.832474 
L 206.873947 292.720517 
L 214.422128 292.710176 
L 238.953715 292.838731 
L 252.163031 293.102596 
L 270.656073 293.441287 
L 296.697296 293.669074 
L 337.834879 293.750547 
L 408.410367 293.760819 
L 408.410367 293.760819 
" clip-path="url(#paca53f9af9)" style="fill: none; stroke: #55a868; stroke-opacity: 0.9; stroke-width: 3; stroke-linecap: round"/>
   </g>
   <g id="line2d_40">
    <path d="M 133.279187 293.930715 
L 133.656597 320.974633 
L 134.034006 322.479617 
L 134.411415 322.855543 
L 135.166233 322.975592 
L 138.940323 322.87179 
L 140.449959 322.227215 
L 170.265272 308.663189 
L 192.909814 298.590709 
L 202.345039 294.543731 
L 204.232084 293.877947 
L 206.873947 293.020709 
L 217.4414 292.999709 
L 240.463351 293.117285 
L 283.865389 293.61451 
L 326.890018 293.770604 
L 408.410367 293.786424 
L 408.410367 293.786424 
" clip-path="url(#paca53f9af9)" style="fill: none; stroke: #c44e52; stroke-opacity: 0.9; stroke-width: 3; stroke-linecap: round"/>
   </g>
   <g id="patch_12">
    <path d="M 119.522628 373.284 
L 119.522628 253.698 
" style="fill: none; stroke: #ffffff; stroke-width: 1.25; stroke-linejoin: miter; stroke-linecap: square"/>
   </g>
   <g id="patch_13">
    <path d="M 119.522628 373.284 
L 422.166926 373.284 
" style="fill: none; stroke: #ffffff; stroke-width: 1.25; stroke-linejoin: miter; stroke-linecap: square"/>
   </g>
   <g id="text_15">
    <!-- 0.8~365 -->
    <g style="fill: #262626" transform="translate(216.198184 247.698) scale(0.252 -0.252)">
     <use xlink:href="#DejaVuSans-30"/>
     <use xlink:href="#DejaVuSans-2e" x="63.623047"/>
     <use xlink:href="#DejaVuSans-38" x="95.410156"/>
     <use xlink:href="#DejaVuSans-7e" x="159.033203"/>
     <use xlink:href="#DejaVuSans-33" x="242.822266"/>
     <use xlink:href="#DejaVuSans-36" x="306.445312"/>
     <use xlink:href="#DejaVuSans-35" x="370.068359"/>
    </g>
   </g>
  </g>
  <g id="axes_5">
   <g id="patch_14">
    <path d="M 449.025483 373.284 
L 751.66978 373.284 
L 751.66978 253.698 
L 449.025483 253.698 
z
" style="fill: #eaeaf2"/>
   </g>
   <g id="matplotlib.axis_9">
    <g id="xtick_17">
     <g id="line2d_41">
      <path d="M 462.782042 373.284 
L 462.782042 253.698 
" clip-path="url(#p6b9313469b)" style="fill: none; stroke: #ffffff; stroke-linecap: round"/>
     </g>
     <g id="text_16">
      <!-- 0 -->
      <g style="fill: #262626" transform="translate(455.433354 400.336391) scale(0.231 -0.231)">
       <use xlink:href="#DejaVuSans-30"/>
      </g>
     </g>
    </g>
    <g id="xtick_18">
     <g id="line2d_42">
      <path d="M 557.134298 373.284 
L 557.134298 253.698 
" clip-path="url(#p6b9313469b)" style="fill: none; stroke: #ffffff; stroke-linecap: round"/>
     </g>
     <g id="text_17">
      <!-- 250 -->
      <g style="fill: #262626" transform="translate(535.088235 400.336391) scale(0.231 -0.231)">
       <use xlink:href="#DejaVuSans-32"/>
       <use xlink:href="#DejaVuSans-35" x="63.623047"/>
       <use xlink:href="#DejaVuSans-30" x="127.246094"/>
      </g>
     </g>
    </g>
    <g id="xtick_19">
     <g id="line2d_43">
      <path d="M 651.486554 373.284 
L 651.486554 253.698 
" clip-path="url(#p6b9313469b)" style="fill: none; stroke: #ffffff; stroke-linecap: round"/>
     </g>
     <g id="text_18">
      <!-- 500 -->
      <g style="fill: #262626" transform="translate(629.440492 400.336391) scale(0.231 -0.231)">
       <use xlink:href="#DejaVuSans-35"/>
       <use xlink:href="#DejaVuSans-30" x="63.623047"/>
       <use xlink:href="#DejaVuSans-30" x="127.246094"/>
      </g>
     </g>
    </g>
    <g id="xtick_20">
     <g id="line2d_44">
      <path d="M 745.838811 373.284 
L 745.838811 253.698 
" clip-path="url(#p6b9313469b)" style="fill: none; stroke: #ffffff; stroke-linecap: round"/>
     </g>
     <g id="text_19">
      <!-- 750 -->
      <g style="fill: #262626" transform="translate(723.792748 400.336391) scale(0.231 -0.231)">
       <use xlink:href="#DejaVuSans-37"/>
       <use xlink:href="#DejaVuSans-35" x="63.623047"/>
       <use xlink:href="#DejaVuSans-30" x="127.246094"/>
      </g>
     </g>
    </g>
    <g id="text_20">
     <!-- step -->
     <g style="fill: #262626" transform="translate(573.092256 428.288531) scale(0.252 -0.252)">
      <use xlink:href="#DejaVuSans-73"/>
      <use xlink:href="#DejaVuSans-74" x="52.099609"/>
      <use xlink:href="#DejaVuSans-65" x="91.308594"/>
      <use xlink:href="#DejaVuSans-70" x="152.832031"/>
     </g>
    </g>
   </g>
   <g id="matplotlib.axis_10">
    <g id="ytick_9">
     <g id="line2d_45">
      <path d="M 449.025483 334.71755 
L 751.66978 334.71755 
" clip-path="url(#p6b9313469b)" style="fill: none; stroke: #ffffff; stroke-linecap: round"/>
     </g>
    </g>
    <g id="ytick_10">
     <g id="line2d_46">
      <path d="M 449.025483 293.930715 
L 751.66978 293.930715 
" clip-path="url(#p6b9313469b)" style="fill: none; stroke: #ffffff; stroke-linecap: round"/>
     </g>
    </g>
   </g>
   <g id="PolyCollection_17"/>
   <g id="PolyCollection_18"/>
   <g id="PolyCollection_19"/>
   <g id="PolyCollection_20"/>
   <g id="line2d_47">
    <path d="M 462.782042 293.930715 
L 463.159451 326.767567 
L 463.53686 327.802465 
L 463.914269 327.962111 
L 464.669087 327.735129 
L 466.178723 327.191775 
L 468.443177 326.702284 
L 469.952813 325.773946 
L 471.08504 325.875542 
L 472.972085 326.648909 
L 476.746176 330.280072 
L 478.633221 332.34757 
L 480.520266 334.017108 
L 482.029902 335.243892 
L 483.539538 336.179285 
L 485.049174 336.84327 
L 486.55881 337.252218 
L 488.068446 337.421751 
L 489.955491 337.561342 
L 500.522944 339.179225 
L 503.542216 339.318199 
L 506.18408 339.215154 
L 508.448534 338.924035 
L 511.467806 338.281804 
L 514.487078 337.373381 
L 517.50635 336.21962 
L 520.525623 334.808335 
L 523.922304 332.943452 
L 527.318985 330.826223 
L 531.470484 327.95403 
L 535.999393 324.539768 
L 540.528301 321.119506 
L 542.415346 320.172738 
L 546.944254 318.533943 
L 550.718345 317.348242 
L 559.398752 314.692796 
L 570.343614 312.285914 
L 577.891794 310.584636 
L 583.930339 308.983607 
L 590.723701 306.956522 
L 597.894473 304.56082 
L 605.442653 301.78518 
L 612.990834 298.783056 
L 622.04865 294.926813 
L 634.503148 289.352502 
L 651.863963 281.590476 
L 661.676598 277.478422 
L 666.582915 275.623359 
L 671.866642 273.789037 
L 676.772959 272.411768 
L 685.830776 270.112013 
L 699.040092 266.993577 
L 712.626817 264.008825 
L 725.836132 261.333482 
L 737.158403 259.256697 
L 737.913221 259.133727 
L 737.913221 259.133727 
" clip-path="url(#p6b9313469b)" style="fill: none; stroke: #4c72b0; stroke-opacity: 0.9; stroke-width: 3; stroke-linecap: round"/>
   </g>
   <g id="line2d_48">
    <path d="M 462.782042 293.930715 
L 463.159451 311.840119 
L 463.53686 312.543884 
L 463.914269 312.737337 
L 464.669087 312.710477 
L 469.197995 311.776599 
L 471.839858 310.846615 
L 472.972085 310.865012 
L 474.481721 311.172916 
L 478.633221 312.917771 
L 480.897675 314.028055 
L 483.916947 315.146566 
L 485.803992 315.601245 
L 487.691037 315.852827 
L 489.955491 315.908751 
L 495.239218 315.804654 
L 502.409989 315.847 
L 506.18408 315.662426 
L 509.580761 315.288689 
L 513.354851 314.639985 
L 517.128941 313.772779 
L 520.903032 312.685772 
L 524.677122 311.377311 
L 528.451212 309.827388 
L 532.602711 307.879862 
L 543.547573 302.614378 
L 545.057209 302.170735 
L 546.944254 301.780444 
L 552.982799 301.063451 
L 557.889116 300.635396 
L 559.776161 300.637178 
L 563.550251 300.806611 
L 569.588796 301.300966 
L 573.362886 301.826026 
L 581.288476 303.166797 
L 593.365564 305.230544 
L 601.291154 306.358021 
L 608.461925 307.159131 
L 614.877879 307.664486 
L 621.293832 307.949225 
L 628.464604 308.024995 
L 633.74833 307.874279 
L 638.277239 307.539663 
L 642.806147 306.980146 
L 647.335055 306.203104 
L 651.863963 305.20945 
L 656.770281 303.904228 
L 661.676598 302.357926 
L 666.960324 300.442657 
L 674.885914 297.257803 
L 680.16964 294.875078 
L 686.585594 291.706712 
L 692.246729 288.788231 
L 697.907865 285.624059 
L 704.323818 281.780042 
L 714.513862 275.344012 
L 721.307224 271.03263 
L 730.74245 265.091912 
L 737.913221 260.502954 
L 737.913221 260.502954 
" clip-path="url(#p6b9313469b)" style="fill: none; stroke: #dd8452; stroke-opacity: 0.9; stroke-width: 3; stroke-linecap: round"/>
   </g>
   <g id="line2d_49">
    <path d="M 462.782042 293.930715 
L 463.159451 328.341364 
L 463.53686 330.088289 
L 463.914269 330.415196 
L 464.669087 330.260275 
L 466.933541 329.406791 
L 468.820586 328.867708 
L 472.217267 326.720732 
L 475.236539 325.132528 
L 477.878403 323.95062 
L 479.01063 323.624055 
L 480.897675 323.332041 
L 482.78472 323.350183 
L 490.3329 324.32398 
L 492.974764 324.571291 
L 501.277762 325.058788 
L 505.80667 325.341014 
L 509.95817 325.384592 
L 515.619305 325.181218 
L 520.903032 324.840801 
L 525.809349 324.323688 
L 531.470484 323.491729 
L 537.509029 322.376495 
L 542.792755 321.128679 
L 548.076481 319.66878 
L 553.737617 317.882033 
L 561.663206 315.129356 
L 571.098432 311.885919 
L 588.836656 306.128174 
L 621.671241 295.79784 
L 632.993512 292.510481 
L 642.428738 289.991891 
L 649.599509 288.287129 
L 656.770281 286.816946 
L 662.808825 285.80077 
L 671.111824 284.667602 
L 677.527777 284.013458 
L 686.963003 283.276716 
L 699.417501 282.592678 
L 711.11718 282.153238 
L 728.100587 281.780817 
L 737.913221 281.629143 
L 737.913221 281.629143 
" clip-path="url(#p6b9313469b)" style="fill: none; stroke: #55a868; stroke-opacity: 0.9; stroke-width: 3; stroke-linecap: round"/>
   </g>
   <g id="line2d_50">
    <path d="M 462.782042 293.930715 
L 463.159451 320.974633 
L 463.53686 322.374994 
L 463.914269 322.628958 
L 464.669087 322.497915 
L 468.065768 321.485318 
L 468.443177 321.402843 
L 473.726903 318.737587 
L 477.123585 317.470793 
L 479.01063 317.009371 
L 480.520266 316.83641 
L 482.029902 316.80815 
L 488.068446 317.483639 
L 492.219946 317.872721 
L 496.748854 318.047996 
L 500.522944 318.179925 
L 507.693716 318.340992 
L 517.883759 318.24695 
L 525.809349 317.909139 
L 532.602711 317.384699 
L 538.641256 316.709929 
L 543.924982 315.859556 
L 551.095754 314.444958 
L 559.021343 312.652831 
L 585.062566 306.28058 
L 624.313105 296.352795 
L 635.257966 293.870838 
L 644.315783 292.038433 
L 652.996191 290.509531 
L 661.299189 289.270316 
L 669.602188 288.267827 
L 678.660004 287.387817 
L 687.717821 286.715575 
L 697.153047 286.244706 
L 717.155725 285.533599 
L 734.51654 285.180509 
L 737.913221 285.155543 
L 737.913221 285.155543 
" clip-path="url(#p6b9313469b)" style="fill: none; stroke: #c44e52; stroke-opacity: 0.9; stroke-width: 3; stroke-linecap: round"/>
   </g>
   <g id="patch_15">
    <path d="M 449.025483 373.284 
L 449.025483 253.698 
" style="fill: none; stroke: #ffffff; stroke-width: 1.25; stroke-linejoin: miter; stroke-linecap: square"/>
   </g>
   <g id="patch_16">
    <path d="M 449.025483 373.284 
L 751.66978 373.284 
" style="fill: none; stroke: #ffffff; stroke-width: 1.25; stroke-linejoin: miter; stroke-linecap: square"/>
   </g>
   <g id="text_21">
    <!-- 0.999~30 -->
    <g style="fill: #262626" transform="translate(537.684288 247.698) scale(0.252 -0.252)">
     <defs>
      <path id="DejaVuSans-39" d="M 703 97 
L 703 672 
Q 941 559 1184 500 
Q 1428 441 1663 441 
Q 2288 441 2617 861 
Q 2947 1281 2994 2138 
Q 2813 1869 2534 1725 
Q 2256 1581 1919 1581 
Q 1219 1581 811 2004 
Q 403 2428 403 3163 
Q 403 3881 828 4315 
Q 1253 4750 1959 4750 
Q 2769 4750 3195 4129 
Q 3622 3509 3622 2328 
Q 3622 1225 3098 567 
Q 2575 -91 1691 -91 
Q 1453 -91 1209 -44 
Q 966 3 703 97 
z
M 1959 2075 
Q 2384 2075 2632 2365 
Q 2881 2656 2881 3163 
Q 2881 3666 2632 3958 
Q 2384 4250 1959 4250 
Q 1534 4250 1286 3958 
Q 1038 3666 1038 3163 
Q 1038 2656 1286 2365 
Q 1534 2075 1959 2075 
z
" transform="scale(0.015625)"/>
     </defs>
     <use xlink:href="#DejaVuSans-30"/>
     <use xlink:href="#DejaVuSans-2e" x="63.623047"/>
     <use xlink:href="#DejaVuSans-39" x="95.410156"/>
     <use xlink:href="#DejaVuSans-39" x="159.033203"/>
     <use xlink:href="#DejaVuSans-39" x="222.65625"/>
     <use xlink:href="#DejaVuSans-7e" x="286.279297"/>
     <use xlink:href="#DejaVuSans-33" x="370.068359"/>
     <use xlink:href="#DejaVuSans-30" x="433.691406"/>
    </g>
   </g>
  </g>
  <g id="axes_6">
   <g id="patch_17">
    <path d="M 778.528337 373.284 
L 1081.172634 373.284 
L 1081.172634 253.698 
L 778.528337 253.698 
z
" style="fill: #eaeaf2"/>
   </g>
   <g id="matplotlib.axis_11">
    <g id="xtick_21">
     <g id="line2d_51">
      <path d="M 792.284896 373.284 
L 792.284896 253.698 
" clip-path="url(#pbcbaafdebd)" style="fill: none; stroke: #ffffff; stroke-linecap: round"/>
     </g>
     <g id="text_22">
      <!-- 0 -->
      <g style="fill: #262626" transform="translate(784.936208 400.336391) scale(0.231 -0.231)">
       <use xlink:href="#DejaVuSans-30"/>
      </g>
     </g>
    </g>
    <g id="xtick_22">
     <g id="line2d_52">
      <path d="M 886.637152 373.284 
L 886.637152 253.698 
" clip-path="url(#pbcbaafdebd)" style="fill: none; stroke: #ffffff; stroke-linecap: round"/>
     </g>
     <g id="text_23">
      <!-- 250 -->
      <g style="fill: #262626" transform="translate(864.59109 400.336391) scale(0.231 -0.231)">
       <use xlink:href="#DejaVuSans-32"/>
       <use xlink:href="#DejaVuSans-35" x="63.623047"/>
       <use xlink:href="#DejaVuSans-30" x="127.246094"/>
      </g>
     </g>
    </g>
    <g id="xtick_23">
     <g id="line2d_53">
      <path d="M 980.989409 373.284 
L 980.989409 253.698 
" clip-path="url(#pbcbaafdebd)" style="fill: none; stroke: #ffffff; stroke-linecap: round"/>
     </g>
     <g id="text_24">
      <!-- 500 -->
      <g style="fill: #262626" transform="translate(958.943346 400.336391) scale(0.231 -0.231)">
       <use xlink:href="#DejaVuSans-35"/>
       <use xlink:href="#DejaVuSans-30" x="63.623047"/>
       <use xlink:href="#DejaVuSans-30" x="127.246094"/>
      </g>
     </g>
    </g>
    <g id="xtick_24">
     <g id="line2d_54">
      <path d="M 1075.341665 373.284 
L 1075.341665 253.698 
" clip-path="url(#pbcbaafdebd)" style="fill: none; stroke: #ffffff; stroke-linecap: round"/>
     </g>
     <g id="text_25">
      <!-- 750 -->
      <g style="fill: #262626" transform="translate(1053.295602 400.336391) scale(0.231 -0.231)">
       <use xlink:href="#DejaVuSans-37"/>
       <use xlink:href="#DejaVuSans-35" x="63.623047"/>
       <use xlink:href="#DejaVuSans-30" x="127.246094"/>
      </g>
     </g>
    </g>
    <g id="text_26">
     <!-- step -->
     <g style="fill: #262626" transform="translate(902.595111 428.288531) scale(0.252 -0.252)">
      <use xlink:href="#DejaVuSans-73"/>
      <use xlink:href="#DejaVuSans-74" x="52.099609"/>
      <use xlink:href="#DejaVuSans-65" x="91.308594"/>
      <use xlink:href="#DejaVuSans-70" x="152.832031"/>
     </g>
    </g>
   </g>
   <g id="matplotlib.axis_12">
    <g id="ytick_11">
     <g id="line2d_55">
      <path d="M 778.528337 334.71755 
L 1081.172634 334.71755 
" clip-path="url(#pbcbaafdebd)" style="fill: none; stroke: #ffffff; stroke-linecap: round"/>
     </g>
    </g>
    <g id="ytick_12">
     <g id="line2d_56">
      <path d="M 778.528337 293.930715 
L 1081.172634 293.930715 
" clip-path="url(#pbcbaafdebd)" style="fill: none; stroke: #ffffff; stroke-linecap: round"/>
     </g>
    </g>
   </g>
   <g id="PolyCollection_21"/>
   <g id="PolyCollection_22"/>
   <g id="PolyCollection_23"/>
   <g id="PolyCollection_24"/>
   <g id="line2d_57">
    <path d="M 792.284896 293.930715 
L 792.662305 326.767567 
L 793.039714 327.934678 
L 793.417123 328.247053 
L 794.171941 328.335538 
L 795.304168 328.352834 
L 797.946031 328.86491 
L 799.455667 328.567482 
L 800.210485 328.940636 
L 801.342712 329.879207 
L 802.852348 331.186977 
L 804.739394 334.054457 
L 806.626439 337.143042 
L 808.890893 340.95142 
L 810.777938 343.779346 
L 813.419801 347.231642 
L 815.306846 349.478259 
L 817.193891 351.36598 
L 819.080936 352.917839 
L 820.967982 354.153144 
L 822.855027 355.090429 
L 833.04507 360.09388 
L 839.461024 363.315255 
L 843.235114 364.961083 
L 846.254386 366.048752 
L 850.028477 367.123574 
L 852.67034 367.600866 
L 855.312203 367.830259 
L 857.576657 367.815866 
L 859.841111 367.594316 
L 862.105565 367.160473 
L 864.37002 366.503282 
L 866.634474 365.625976 
L 869.276337 364.349982 
L 872.295609 362.609619 
L 875.314881 360.612957 
L 879.088972 357.82442 
L 883.240471 354.471964 
L 889.279015 349.279383 
L 895.31756 344.098314 
L 896.827196 343.121432 
L 905.130194 338.050323 
L 908.149467 336.560867 
L 913.433193 334.212925 
L 916.452465 333.163994 
L 924.755464 330.511443 
L 933.058462 328.174293 
L 941.361461 326.224161 
L 948.154823 324.816929 
L 975.705682 319.234982 
L 989.669816 316.164322 
L 1004.766177 312.611992 
L 1024.014037 307.839595 
L 1067.416075 296.894402 
L 1067.416075 296.894402 
" clip-path="url(#pbcbaafdebd)" style="fill: none; stroke: #4c72b0; stroke-opacity: 0.9; stroke-width: 3; stroke-linecap: round"/>
   </g>
   <g id="line2d_58">
    <path d="M 792.284896 293.930715 
L 792.662305 311.840119 
L 793.039714 312.605119 
L 793.417123 312.870082 
L 794.171941 312.993789 
L 798.32344 313.022174 
L 801.342712 312.563124 
L 802.09753 312.785678 
L 804.361984 313.770389 
L 807.003848 315.78651 
L 808.513484 317.087068 
L 811.155347 319.26043 
L 813.419801 320.846729 
L 817.193891 323.099557 
L 819.458346 324.149383 
L 821.7228 324.961195 
L 823.987254 325.550587 
L 826.251708 325.93304 
L 830.780616 326.580376 
L 847.009204 329.31492 
L 850.783295 329.599909 
L 854.179976 329.653111 
L 857.954066 329.479758 
L 861.350747 329.103139 
L 864.37002 328.559124 
L 867.389292 327.809154 
L 870.785973 326.729106 
L 874.182654 325.416647 
L 877.956744 323.72696 
L 882.863062 321.273481 
L 896.449787 314.284624 
L 897.959423 313.744487 
L 899.469059 313.377171 
L 904.375376 312.481285 
L 906.63983 312.201203 
L 913.810602 311.51804 
L 921.736191 310.646751 
L 939.474416 308.631641 
L 949.664459 308.040914 
L 967.025275 307.395718 
L 985.140908 306.671673 
L 999.105042 305.884833 
L 1013.823994 304.824482 
L 1031.562218 303.307622 
L 1055.716396 300.999759 
L 1067.416075 299.82982 
L 1067.416075 299.82982 
" clip-path="url(#pbcbaafdebd)" style="fill: none; stroke: #dd8452; stroke-opacity: 0.9; stroke-width: 3; stroke-linecap: round"/>
   </g>
   <g id="line2d_59">
    <path d="M 792.284896 293.930715 
L 792.662305 328.341364 
L 793.039714 330.218493 
L 793.417123 330.696478 
L 794.171941 330.853432 
L 796.436395 330.903862 
L 798.32344 331.081772 
L 802.09753 330.074055 
L 805.494212 329.494876 
L 807.381257 329.293244 
L 809.268302 329.39451 
L 811.155347 329.756156 
L 813.419801 330.413833 
L 814.929437 331.017046 
L 822.855027 334.365923 
L 826.251708 335.48934 
L 832.667661 337.262559 
L 839.838433 339.085221 
L 844.74475 340.272297 
L 848.89625 341.03879 
L 854.179976 341.74325 
L 857.954066 342.053865 
L 861.350747 342.120512 
L 864.747429 341.964399 
L 868.14411 341.581513 
L 871.540791 340.973834 
L 875.314881 340.058529 
L 879.466381 338.803255 
L 884.372698 337.052259 
L 889.656424 334.920634 
L 896.072378 332.070634 
L 906.63983 327.076386 
L 920.981373 320.304402 
L 927.774736 317.435611 
L 934.945507 314.656962 
L 942.493688 311.968252 
L 952.306323 308.727905 
L 962.873775 305.492362 
L 973.441228 302.481001 
L 984.38609 299.604248 
L 994.576133 297.148187 
L 1004.011359 295.084304 
L 1009.672494 294.063826 
L 1014.201403 293.474108 
L 1018.352902 293.150803 
L 1022.504401 293.066014 
L 1030.429991 292.914625 
L 1044.771534 292.663381 
L 1067.416075 292.506372 
L 1067.416075 292.506372 
" clip-path="url(#pbcbaafdebd)" style="fill: none; stroke: #55a868; stroke-opacity: 0.9; stroke-width: 3; stroke-linecap: round"/>
   </g>
   <g id="line2d_60">
    <path d="M 792.284896 293.930715 
L 792.662305 320.974633 
L 793.039714 322.479617 
L 793.417123 322.855543 
L 794.171941 322.976411 
L 798.700849 322.899101 
L 801.342712 322.260742 
L 803.607166 321.912373 
L 806.626439 321.656554 
L 808.513484 321.720347 
L 810.02312 321.919045 
L 812.664983 322.567739 
L 814.929437 323.364601 
L 822.100209 326.059418 
L 830.403207 328.313599 
L 845.122159 331.242408 
L 851.538113 332.234854 
L 856.067021 332.724553 
L 860.21852 332.959813 
L 863.992611 332.965765 
L 867.766701 332.759591 
L 871.540791 332.32872 
L 875.69229 331.613495 
L 879.84379 330.674547 
L 884.750107 329.320563 
L 890.788651 327.392815 
L 897.959423 324.85825 
L 914.188011 318.766796 
L 925.510282 314.619916 
L 933.435871 311.972137 
L 943.248506 308.914681 
L 952.683732 306.195512 
L 963.251184 303.3794 
L 974.950864 300.511366 
L 986.650544 297.876352 
L 998.350224 295.467982 
L 1007.40804 293.79641 
L 1011.936949 293.173889 
L 1016.465857 292.759468 
L 1021.372174 292.527905 
L 1025.523674 292.544363 
L 1037.223353 292.890636 
L 1051.942305 292.805326 
L 1067.416075 292.789827 
L 1067.416075 292.789827 
" clip-path="url(#pbcbaafdebd)" style="fill: none; stroke: #c44e52; stroke-opacity: 0.9; stroke-width: 3; stroke-linecap: round"/>
   </g>
   <g id="patch_18">
    <path d="M 778.528337 373.284 
L 778.528337 253.698 
" style="fill: none; stroke: #ffffff; stroke-width: 1.25; stroke-linejoin: miter; stroke-linecap: square"/>
   </g>
   <g id="patch_19">
    <path d="M 778.528337 373.284 
L 1081.172634 373.284 
" style="fill: none; stroke: #ffffff; stroke-width: 1.25; stroke-linejoin: miter; stroke-linecap: square"/>
   </g>
   <g id="text_27">
    <!-- 0.999~365 -->
    <g style="fill: #262626" transform="translate(859.170392 247.698) scale(0.252 -0.252)">
     <use xlink:href="#DejaVuSans-30"/>
     <use xlink:href="#DejaVuSans-2e" x="63.623047"/>
     <use xlink:href="#DejaVuSans-39" x="95.410156"/>
     <use xlink:href="#DejaVuSans-39" x="159.033203"/>
     <use xlink:href="#DejaVuSans-39" x="222.65625"/>
     <use xlink:href="#DejaVuSans-7e" x="286.279297"/>
     <use xlink:href="#DejaVuSans-33" x="370.068359"/>
     <use xlink:href="#DejaVuSans-36" x="433.691406"/>
     <use xlink:href="#DejaVuSans-35" x="497.314453"/>
    </g>
   </g>
  </g>
  <g id="text_28">
   <!-- Production change from pre-shock level -->
   <g style="fill: #262626" transform="translate(248.820797 30.177675) scale(0.3024 -0.3024)">
    <defs>
     <path id="DejaVuSans-50" d="M 1259 4147 
L 1259 2394 
L 2053 2394 
Q 2494 2394 2734 2622 
Q 2975 2850 2975 3272 
Q 2975 3691 2734 3919 
Q 2494 4147 2053 4147 
L 1259 4147 
z
M 628 4666 
L 2053 4666 
Q 2838 4666 3239 4311 
Q 3641 3956 3641 3272 
Q 3641 2581 3239 2228 
Q 2838 1875 2053 1875 
L 1259 1875 
L 1259 0 
L 628 0 
L 628 4666 
z
" transform="scale(0.015625)"/>
     <path id="DejaVuSans-72" d="M 2631 2963 
Q 2534 3019 2420 3045 
Q 2306 3072 2169 3072 
Q 1681 3072 1420 2755 
Q 1159 2438 1159 1844 
L 1159 0 
L 581 0 
L 581 3500 
L 1159 3500 
L 1159 2956 
Q 1341 3275 1631 3429 
Q 1922 3584 2338 3584 
Q 2397 3584 2469 3576 
Q 2541 3569 2628 3553 
L 2631 2963 
z
" transform="scale(0.015625)"/>
     <path id="DejaVuSans-6f" d="M 1959 3097 
Q 1497 3097 1228 2736 
Q 959 2375 959 1747 
Q 959 1119 1226 758 
Q 1494 397 1959 397 
Q 2419 397 2687 759 
Q 2956 1122 2956 1747 
Q 2956 2369 2687 2733 
Q 2419 3097 1959 3097 
z
M 1959 3584 
Q 2709 3584 3137 3096 
Q 3566 2609 3566 1747 
Q 3566 888 3137 398 
Q 2709 -91 1959 -91 
Q 1206 -91 779 398 
Q 353 888 353 1747 
Q 353 2609 779 3096 
Q 1206 3584 1959 3584 
z
" transform="scale(0.015625)"/>
     <path id="DejaVuSans-64" d="M 2906 2969 
L 2906 4863 
L 3481 4863 
L 3481 0 
L 2906 0 
L 2906 525 
Q 2725 213 2448 61 
Q 2172 -91 1784 -91 
Q 1150 -91 751 415 
Q 353 922 353 1747 
Q 353 2572 751 3078 
Q 1150 3584 1784 3584 
Q 2172 3584 2448 3432 
Q 2725 3281 2906 2969 
z
M 947 1747 
Q 947 1113 1208 752 
Q 1469 391 1925 391 
Q 2381 391 2643 752 
Q 2906 1113 2906 1747 
Q 2906 2381 2643 2742 
Q 2381 3103 1925 3103 
Q 1469 3103 1208 2742 
Q 947 2381 947 1747 
z
" transform="scale(0.015625)"/>
     <path id="DejaVuSans-75" d="M 544 1381 
L 544 3500 
L 1119 3500 
L 1119 1403 
Q 1119 906 1312 657 
Q 1506 409 1894 409 
Q 2359 409 2629 706 
Q 2900 1003 2900 1516 
L 2900 3500 
L 3475 3500 
L 3475 0 
L 2900 0 
L 2900 538 
Q 2691 219 2414 64 
Q 2138 -91 1772 -91 
Q 1169 -91 856 284 
Q 544 659 544 1381 
z
M 1991 3584 
L 1991 3584 
z
" transform="scale(0.015625)"/>
     <path id="DejaVuSans-69" d="M 603 3500 
L 1178 3500 
L 1178 0 
L 603 0 
L 603 3500 
z
M 603 4863 
L 1178 4863 
L 1178 4134 
L 603 4134 
L 603 4863 
z
" transform="scale(0.015625)"/>
     <path id="DejaVuSans-66" d="M 2375 4863 
L 2375 4384 
L 1825 4384 
Q 1516 4384 1395 4259 
Q 1275 4134 1275 3809 
L 1275 3500 
L 2222 3500 
L 2222 3053 
L 1275 3053 
L 1275 0 
L 697 0 
L 697 3053 
L 147 3053 
L 147 3500 
L 697 3500 
L 697 3744 
Q 697 4328 969 4595 
Q 1241 4863 1831 4863 
L 2375 4863 
z
" transform="scale(0.015625)"/>
     <path id="DejaVuSans-6d" d="M 3328 2828 
Q 3544 3216 3844 3400 
Q 4144 3584 4550 3584 
Q 5097 3584 5394 3201 
Q 5691 2819 5691 2113 
L 5691 0 
L 5113 0 
L 5113 2094 
Q 5113 2597 4934 2840 
Q 4756 3084 4391 3084 
Q 3944 3084 3684 2787 
Q 3425 2491 3425 1978 
L 3425 0 
L 2847 0 
L 2847 2094 
Q 2847 2600 2669 2842 
Q 2491 3084 2119 3084 
Q 1678 3084 1418 2786 
Q 1159 2488 1159 1978 
L 1159 0 
L 581 0 
L 581 3500 
L 1159 3500 
L 1159 2956 
Q 1356 3278 1631 3431 
Q 1906 3584 2284 3584 
Q 2666 3584 2933 3390 
Q 3200 3197 3328 2828 
z
" transform="scale(0.015625)"/>
     <path id="DejaVuSans-2d" d="M 313 2009 
L 1997 2009 
L 1997 1497 
L 313 1497 
L 313 2009 
z
" transform="scale(0.015625)"/>
     <path id="DejaVuSans-6b" d="M 581 4863 
L 1159 4863 
L 1159 1991 
L 2875 3500 
L 3609 3500 
L 1753 1863 
L 3688 0 
L 2938 0 
L 1159 1709 
L 1159 0 
L 581 0 
L 581 4863 
z
" transform="scale(0.015625)"/>
     <path id="DejaVuSans-6c" d="M 603 4863 
L 1178 4863 
L 1178 0 
L 603 0 
L 603 4863 
z
" transform="scale(0.015625)"/>
     <path id="DejaVuSans-76" d="M 191 3500 
L 800 3500 
L 1894 563 
L 2988 3500 
L 3597 3500 
L 2284 0 
L 1503 0 
L 191 3500 
z
" transform="scale(0.015625)"/>
    </defs>
    <use xlink:href="#DejaVuSans-50"/>
    <use xlink:href="#DejaVuSans-72" x="58.552734"/>
    <use xlink:href="#DejaVuSans-6f" x="97.416016"/>
    <use xlink:href="#DejaVuSans-64" x="158.597656"/>
    <use xlink:href="#DejaVuSans-75" x="222.074219"/>
    <use xlink:href="#DejaVuSans-63" x="285.453125"/>
    <use xlink:href="#DejaVuSans-74" x="340.433594"/>
    <use xlink:href="#DejaVuSans-69" x="379.642578"/>
    <use xlink:href="#DejaVuSans-6f" x="407.425781"/>
    <use xlink:href="#DejaVuSans-6e" x="468.607422"/>
    <use xlink:href="#DejaVuSans-20" x="531.986328"/>
    <use xlink:href="#DejaVuSans-63" x="563.773438"/>
    <use xlink:href="#DejaVuSans-68" x="618.753906"/>
    <use xlink:href="#DejaVuSans-61" x="682.132812"/>
    <use xlink:href="#DejaVuSans-6e" x="743.412109"/>
    <use xlink:href="#DejaVuSans-67" x="806.791016"/>
    <use xlink:href="#DejaVuSans-65" x="870.267578"/>
    <use xlink:href="#DejaVuSans-20" x="931.791016"/>
    <use xlink:href="#DejaVuSans-66" x="963.578125"/>
    <use xlink:href="#DejaVuSans-72" x="998.783203"/>
    <use xlink:href="#DejaVuSans-6f" x="1037.646484"/>
    <use xlink:href="#DejaVuSans-6d" x="1098.828125"/>
    <use xlink:href="#DejaVuSans-20" x="1196.240234"/>
    <use xlink:href="#DejaVuSans-70" x="1228.027344"/>
    <use xlink:href="#DejaVuSans-72" x="1291.503906"/>
    <use xlink:href="#DejaVuSans-65" x="1330.367188"/>
    <use xlink:href="#DejaVuSans-2d" x="1391.890625"/>
    <use xlink:href="#DejaVuSans-73" x="1427.974609"/>
    <use xlink:href="#DejaVuSans-68" x="1480.074219"/>
    <use xlink:href="#DejaVuSans-6f" x="1543.453125"/>
    <use xlink:href="#DejaVuSans-63" x="1604.634766"/>
    <use xlink:href="#DejaVuSans-6b" x="1659.615234"/>
    <use xlink:href="#DejaVuSans-20" x="1717.525391"/>
    <use xlink:href="#DejaVuSans-6c" x="1749.3125"/>
    <use xlink:href="#DejaVuSans-65" x="1777.095703"/>
    <use xlink:href="#DejaVuSans-76" x="1838.619141"/>
    <use xlink:href="#DejaVuSans-65" x="1897.798828"/>
    <use xlink:href="#DejaVuSans-6c" x="1959.322266"/>
   </g>
  </g>
  <g id="legend_1">
   <g id="patch_20">
    <path d="M 11.82 549.767812 
L 1225.674469 549.767812 
Q 1230.294469 549.767812 1230.294469 545.147812 
L 1230.294469 476.97 
Q 1230.294469 472.35 1225.674469 472.35 
L 11.82 472.35 
Q 7.2 472.35 7.2 476.97 
L 7.2 545.147812 
Q 7.2 549.767812 11.82 549.767812 
z
" style="fill: #eaeaf2; opacity: 0.8; stroke: #cccccc; stroke-linejoin: miter"/>
   </g>
   <g id="text_29">
    <!-- Experiences -->
    <g style="fill: #262626" transform="translate(541.912828 500.738063) scale(0.252 -0.252)">
     <defs>
      <path id="DejaVuSans-45" d="M 628 4666 
L 3578 4666 
L 3578 4134 
L 1259 4134 
L 1259 2753 
L 3481 2753 
L 3481 2222 
L 1259 2222 
L 1259 531 
L 3634 531 
L 3634 0 
L 628 0 
L 628 4666 
z
" transform="scale(0.015625)"/>
      <path id="DejaVuSans-78" d="M 3513 3500 
L 2247 1797 
L 3578 0 
L 2900 0 
L 1881 1375 
L 863 0 
L 184 0 
L 1544 1831 
L 300 3500 
L 978 3500 
L 1906 2253 
L 2834 3500 
L 3513 3500 
z
" transform="scale(0.015625)"/>
     </defs>
     <use xlink:href="#DejaVuSans-45"/>
     <use xlink:href="#DejaVuSans-78" x="63.183594"/>
     <use xlink:href="#DejaVuSans-70" x="122.363281"/>
     <use xlink:href="#DejaVuSans-65" x="185.839844"/>
     <use xlink:href="#DejaVuSans-72" x="247.363281"/>
     <use xlink:href="#DejaVuSans-69" x="288.476562"/>
     <use xlink:href="#DejaVuSans-65" x="316.259766"/>
     <use xlink:href="#DejaVuSans-6e" x="377.783203"/>
     <use xlink:href="#DejaVuSans-63" x="441.162109"/>
     <use xlink:href="#DejaVuSans-65" x="496.142578"/>
     <use xlink:href="#DejaVuSans-73" x="557.666016"/>
    </g>
   </g>
   <g id="line2d_61">
    <path d="M 16.44 526.996266 
L 39.54 526.996266 
L 62.64 526.996266 
" style="fill: none; stroke: #4c72b0; stroke-opacity: 0.9; stroke-width: 3; stroke-linecap: round"/>
   </g>
   <g id="text_30">
    <!-- eora26_full_2000 -->
    <g style="fill: #262626" transform="translate(81.12 535.081266) scale(0.231 -0.231)">
     <defs>
      <path id="DejaVuSans-5f" d="M 3263 -1063 
L 3263 -1509 
L -63 -1509 
L -63 -1063 
L 3263 -1063 
z
" transform="scale(0.015625)"/>
     </defs>
     <use xlink:href="#DejaVuSans-65"/>
     <use xlink:href="#DejaVuSans-6f" x="61.523438"/>
     <use xlink:href="#DejaVuSans-72" x="122.705078"/>
     <use xlink:href="#DejaVuSans-61" x="163.818359"/>
     <use xlink:href="#DejaVuSans-32" x="225.097656"/>
     <use xlink:href="#DejaVuSans-36" x="288.720703"/>
     <use xlink:href="#DejaVuSans-5f" x="352.34375"/>
     <use xlink:href="#DejaVuSans-66" x="402.34375"/>
     <use xlink:href="#DejaVuSans-75" x="437.548828"/>
     <use xlink:href="#DejaVuSans-6c" x="500.927734"/>
     <use xlink:href="#DejaVuSans-6c" x="528.710938"/>
     <use xlink:href="#DejaVuSans-5f" x="556.494141"/>
     <use xlink:href="#DejaVuSans-32" x="606.494141"/>
     <use xlink:href="#DejaVuSans-30" x="670.117188"/>
     <use xlink:href="#DejaVuSans-30" x="733.740234"/>
     <use xlink:href="#DejaVuSans-30" x="797.363281"/>
    </g>
   </g>
   <g id="line2d_62">
    <path d="M 326.211 526.996266 
L 349.311 526.996266 
L 372.411 526.996266 
" style="fill: none; stroke: #dd8452; stroke-opacity: 0.9; stroke-width: 3; stroke-linecap: round"/>
   </g>
   <g id="text_31">
    <!-- eora26_full_2010 -->
    <g style="fill: #262626" transform="translate(390.891 535.081266) scale(0.231 -0.231)">
     <use xlink:href="#DejaVuSans-65"/>
     <use xlink:href="#DejaVuSans-6f" x="61.523438"/>
     <use xlink:href="#DejaVuSans-72" x="122.705078"/>
     <use xlink:href="#DejaVuSans-61" x="163.818359"/>
     <use xlink:href="#DejaVuSans-32" x="225.097656"/>
     <use xlink:href="#DejaVuSans-36" x="288.720703"/>
     <use xlink:href="#DejaVuSans-5f" x="352.34375"/>
     <use xlink:href="#DejaVuSans-66" x="402.34375"/>
     <use xlink:href="#DejaVuSans-75" x="437.548828"/>
     <use xlink:href="#DejaVuSans-6c" x="500.927734"/>
     <use xlink:href="#DejaVuSans-6c" x="528.710938"/>
     <use xlink:href="#DejaVuSans-5f" x="556.494141"/>
     <use xlink:href="#DejaVuSans-32" x="606.494141"/>
     <use xlink:href="#DejaVuSans-30" x="670.117188"/>
     <use xlink:href="#DejaVuSans-31" x="733.740234"/>
     <use xlink:href="#DejaVuSans-30" x="797.363281"/>
    </g>
   </g>
   <g id="line2d_63">
    <path d="M 635.982 526.996266 
L 659.082 526.996266 
L 682.182 526.996266 
" style="fill: none; stroke: #55a868; stroke-opacity: 0.9; stroke-width: 3; stroke-linecap: round"/>
   </g>
   <g id="text_32">
    <!-- euregio_full_2000 -->
    <g style="fill: #262626" transform="translate(700.662 535.081266) scale(0.231 -0.231)">
     <use xlink:href="#DejaVuSans-65"/>
     <use xlink:href="#DejaVuSans-75" x="61.523438"/>
     <use xlink:href="#DejaVuSans-72" x="124.902344"/>
     <use xlink:href="#DejaVuSans-65" x="163.765625"/>
     <use xlink:href="#DejaVuSans-67" x="225.289062"/>
     <use xlink:href="#DejaVuSans-69" x="288.765625"/>
     <use xlink:href="#DejaVuSans-6f" x="316.548828"/>
     <use xlink:href="#DejaVuSans-5f" x="377.730469"/>
     <use xlink:href="#DejaVuSans-66" x="427.730469"/>
     <use xlink:href="#DejaVuSans-75" x="462.935547"/>
     <use xlink:href="#DejaVuSans-6c" x="526.314453"/>
     <use xlink:href="#DejaVuSans-6c" x="554.097656"/>
     <use xlink:href="#DejaVuSans-5f" x="581.880859"/>
     <use xlink:href="#DejaVuSans-32" x="631.880859"/>
     <use xlink:href="#DejaVuSans-30" x="695.503906"/>
     <use xlink:href="#DejaVuSans-30" x="759.126953"/>
     <use xlink:href="#DejaVuSans-30" x="822.75"/>
    </g>
   </g>
   <g id="line2d_64">
    <path d="M 951.618234 526.996266 
L 974.718234 526.996266 
L 997.818234 526.996266 
" style="fill: none; stroke: #c44e52; stroke-opacity: 0.9; stroke-width: 3; stroke-linecap: round"/>
   </g>
   <g id="text_33">
    <!-- euregio_full_2010 -->
    <g style="fill: #262626" transform="translate(1016.298234 535.081266) scale(0.231 -0.231)">
     <use xlink:href="#DejaVuSans-65"/>
     <use xlink:href="#DejaVuSans-75" x="61.523438"/>
     <use xlink:href="#DejaVuSans-72" x="124.902344"/>
     <use xlink:href="#DejaVuSans-65" x="163.765625"/>
     <use xlink:href="#DejaVuSans-67" x="225.289062"/>
     <use xlink:href="#DejaVuSans-69" x="288.765625"/>
     <use xlink:href="#DejaVuSans-6f" x="316.548828"/>
     <use xlink:href="#DejaVuSans-5f" x="377.730469"/>
     <use xlink:href="#DejaVuSans-66" x="427.730469"/>
     <use xlink:href="#DejaVuSans-75" x="462.935547"/>
     <use xlink:href="#DejaVuSans-6c" x="526.314453"/>
     <use xlink:href="#DejaVuSans-6c" x="554.097656"/>
     <use xlink:href="#DejaVuSans-5f" x="581.880859"/>
     <use xlink:href="#DejaVuSans-32" x="631.880859"/>
     <use xlink:href="#DejaVuSans-30" x="695.503906"/>
     <use xlink:href="#DejaVuSans-31" x="759.126953"/>
     <use xlink:href="#DejaVuSans-30" x="822.75"/>
    </g>
   </g>
  </g>
 </g>
 <defs>
  <clipPath id="pdc4ea823d1">
   <rect x="119.522628" y="81.456" width="302.644298" height="119.586"/>
  </clipPath>
  <clipPath id="p4a60644cad">
   <rect x="449.025483" y="81.456" width="302.644298" height="119.586"/>
  </clipPath>
  <clipPath id="p49d996010c">
   <rect x="778.528337" y="81.456" width="302.644298" height="119.586"/>
  </clipPath>
  <clipPath id="paca53f9af9">
   <rect x="119.522628" y="253.698" width="302.644298" height="119.586"/>
  </clipPath>
  <clipPath id="p6b9313469b">
   <rect x="449.025483" y="253.698" width="302.644298" height="119.586"/>
  </clipPath>
  <clipPath id="pbcbaafdebd">
   <rect x="778.528337" y="253.698" width="302.644298" height="119.586"/>
  </clipPath>
 </defs>
</svg>
