<?xml version="1.0" encoding="utf-8" standalone="no"?>
<!DOCTYPE svg PUBLIC "-//W3C//DTD SVG 1.1//EN"
  "http://www.w3.org/Graphics/SVG/1.1/DTD/svg11.dtd">
<svg xmlns:xlink="http://www.w3.org/1999/xlink" width="1304.437547pt" height="591.51675pt" viewBox="0 0 1304.437547 591.51675" xmlns="http://www.w3.org/2000/svg" version="1.1">
 <metadata>
  <rdf:RDF xmlns:dc="http://purl.org/dc/elements/1.1/" xmlns:cc="http://creativecommons.org/ns#" xmlns:rdf="http://www.w3.org/1999/02/22-rdf-syntax-ns#">
   <cc:Work>
    <dc:type rdf:resource="http://purl.org/dc/dcmitype/StillImage"/>
    <dc:date>2023-04-28T12:10:57.205342</dc:date>
    <dc:format>image/svg+xml</dc:format>
    <dc:creator>
     <cc:Agent>
      <dc:title>Matplotlib v3.7.1, https://matplotlib.org/</dc:title>
     </cc:Agent>
    </dc:creator>
   </cc:Work>
  </rdf:RDF>
 </metadata>
 <defs>
  <style type="text/css">*{stroke-linejoin: round; stroke-linecap: butt}</style>
 </defs>
 <g id="figure_1">
  <g id="patch_1">
   <path d="M 0 591.51675 
L 1304.437547 591.51675 
L 1304.437547 -0 
L 0 -0 
z
" style="fill: #ffffff"/>
  </g>
  <g id="axes_1">
   <g id="patch_2">
    <path d="M 170.340091 183.612 
L 462.70916 183.612 
L 462.70916 81.456 
L 170.340091 81.456 
z
" style="fill: #eaeaf2"/>
   </g>
   <g id="matplotlib.axis_1">
    <g id="xtick_1">
     <g id="line2d_1">
      <path d="M 183.629594 183.612 
L 183.629594 81.456 
" clip-path="url(#p55f027ebee)" style="fill: none; stroke: #ffffff; stroke-linecap: round"/>
     </g>
    </g>
    <g id="xtick_2">
     <g id="line2d_2">
      <path d="M 274.77845 183.612 
L 274.77845 81.456 
" clip-path="url(#p55f027ebee)" style="fill: none; stroke: #ffffff; stroke-linecap: round"/>
     </g>
    </g>
    <g id="xtick_3">
     <g id="line2d_3">
      <path d="M 365.927305 183.612 
L 365.927305 81.456 
" clip-path="url(#p55f027ebee)" style="fill: none; stroke: #ffffff; stroke-linecap: round"/>
     </g>
    </g>
    <g id="xtick_4">
     <g id="line2d_4">
      <path d="M 457.076161 183.612 
L 457.076161 81.456 
" clip-path="url(#p55f027ebee)" style="fill: none; stroke: #ffffff; stroke-linecap: round"/>
     </g>
    </g>
   </g>
   <g id="matplotlib.axis_2">
    <g id="ytick_1">
     <g id="line2d_5">
      <path d="M 170.340091 147.707269 
L 462.70916 147.707269 
" clip-path="url(#p55f027ebee)" style="fill: none; stroke: #ffffff; stroke-linecap: round"/>
     </g>
     <g id="text_1">
      <!-- −0.2 -->
      <g style="fill: #262626" transform="translate(104.746794 156.483464) scale(0.231 -0.231)">
       <defs>
        <path id="DejaVuSans-2212" d="M 678 2272 
L 4684 2272 
L 4684 1741 
L 678 1741 
L 678 2272 
z
" transform="scale(0.015625)"/>
        <path id="DejaVuSans-30" d="M 2034 4250 
Q 1547 4250 1301 3770 
Q 1056 3291 1056 2328 
Q 1056 1369 1301 889 
Q 1547 409 2034 409 
Q 2525 409 2770 889 
Q 3016 1369 3016 2328 
Q 3016 3291 2770 3770 
Q 2525 4250 2034 4250 
z
M 2034 4750 
Q 2819 4750 3233 4129 
Q 3647 3509 3647 2328 
Q 3647 1150 3233 529 
Q 2819 -91 2034 -91 
Q 1250 -91 836 529 
Q 422 1150 422 2328 
Q 422 3509 836 4129 
Q 1250 4750 2034 4750 
z
" transform="scale(0.015625)"/>
        <path id="DejaVuSans-2e" d="M 684 794 
L 1344 794 
L 1344 0 
L 684 0 
L 684 794 
z
" transform="scale(0.015625)"/>
        <path id="DejaVuSans-32" d="M 1228 531 
L 3431 531 
L 3431 0 
L 469 0 
L 469 531 
Q 828 903 1448 1529 
Q 2069 2156 2228 2338 
Q 2531 2678 2651 2914 
Q 2772 3150 2772 3378 
Q 2772 3750 2511 3984 
Q 2250 4219 1831 4219 
Q 1534 4219 1204 4116 
Q 875 4013 500 3803 
L 500 4441 
Q 881 4594 1212 4672 
Q 1544 4750 1819 4750 
Q 2544 4750 2975 4387 
Q 3406 4025 3406 3419 
Q 3406 3131 3298 2873 
Q 3191 2616 2906 2266 
Q 2828 2175 2409 1742 
Q 1991 1309 1228 531 
z
" transform="scale(0.015625)"/>
       </defs>
       <use xlink:href="#DejaVuSans-2212"/>
       <use xlink:href="#DejaVuSans-30" x="83.789062"/>
       <use xlink:href="#DejaVuSans-2e" x="147.412109"/>
       <use xlink:href="#DejaVuSans-32" x="179.199219"/>
      </g>
     </g>
    </g>
    <g id="ytick_2">
     <g id="line2d_6">
      <path d="M 170.340091 90.401982 
L 462.70916 90.401982 
" clip-path="url(#p55f027ebee)" style="fill: none; stroke: #ffffff; stroke-linecap: round"/>
     </g>
     <g id="text_2">
      <!-- 0.0 -->
      <g style="fill: #262626" transform="translate(124.103872 99.178177) scale(0.231 -0.231)">
       <use xlink:href="#DejaVuSans-30"/>
       <use xlink:href="#DejaVuSans-2e" x="63.623047"/>
       <use xlink:href="#DejaVuSans-30" x="95.410156"/>
      </g>
     </g>
    </g>
    <g id="text_3">
     <!-- % change -->
     <g style="fill: #262626" transform="translate(95.505982 194.882344) rotate(-90) scale(0.252 -0.252)">
      <defs>
       <path id="DejaVuSans-25" d="M 4653 2053 
Q 4381 2053 4226 1822 
Q 4072 1591 4072 1178 
Q 4072 772 4226 539 
Q 4381 306 4653 306 
Q 4919 306 5073 539 
Q 5228 772 5228 1178 
Q 5228 1588 5073 1820 
Q 4919 2053 4653 2053 
z
M 4653 2450 
Q 5147 2450 5437 2106 
Q 5728 1763 5728 1178 
Q 5728 594 5436 251 
Q 5144 -91 4653 -91 
Q 4153 -91 3862 251 
Q 3572 594 3572 1178 
Q 3572 1766 3864 2108 
Q 4156 2450 4653 2450 
z
M 1428 4353 
Q 1159 4353 1004 4120 
Q 850 3888 850 3481 
Q 850 3069 1003 2837 
Q 1156 2606 1428 2606 
Q 1700 2606 1854 2837 
Q 2009 3069 2009 3481 
Q 2009 3884 1853 4118 
Q 1697 4353 1428 4353 
z
M 4250 4750 
L 4750 4750 
L 1831 -91 
L 1331 -91 
L 4250 4750 
z
M 1428 4750 
Q 1922 4750 2215 4408 
Q 2509 4066 2509 3481 
Q 2509 2891 2217 2550 
Q 1925 2209 1428 2209 
Q 931 2209 642 2551 
Q 353 2894 353 3481 
Q 353 4063 643 4406 
Q 934 4750 1428 4750 
z
" transform="scale(0.015625)"/>
       <path id="DejaVuSans-20" transform="scale(0.015625)"/>
       <path id="DejaVuSans-63" d="M 3122 3366 
L 3122 2828 
Q 2878 2963 2633 3030 
Q 2388 3097 2138 3097 
Q 1578 3097 1268 2742 
Q 959 2388 959 1747 
Q 959 1106 1268 751 
Q 1578 397 2138 397 
Q 2388 397 2633 464 
Q 2878 531 3122 666 
L 3122 134 
Q 2881 22 2623 -34 
Q 2366 -91 2075 -91 
Q 1284 -91 818 406 
Q 353 903 353 1747 
Q 353 2603 823 3093 
Q 1294 3584 2113 3584 
Q 2378 3584 2631 3529 
Q 2884 3475 3122 3366 
z
" transform="scale(0.015625)"/>
       <path id="DejaVuSans-68" d="M 3513 2113 
L 3513 0 
L 2938 0 
L 2938 2094 
Q 2938 2591 2744 2837 
Q 2550 3084 2163 3084 
Q 1697 3084 1428 2787 
Q 1159 2491 1159 1978 
L 1159 0 
L 581 0 
L 581 4863 
L 1159 4863 
L 1159 2956 
Q 1366 3272 1645 3428 
Q 1925 3584 2291 3584 
Q 2894 3584 3203 3211 
Q 3513 2838 3513 2113 
z
" transform="scale(0.015625)"/>
       <path id="DejaVuSans-61" d="M 2194 1759 
Q 1497 1759 1228 1600 
Q 959 1441 959 1056 
Q 959 750 1161 570 
Q 1363 391 1709 391 
Q 2188 391 2477 730 
Q 2766 1069 2766 1631 
L 2766 1759 
L 2194 1759 
z
M 3341 1997 
L 3341 0 
L 2766 0 
L 2766 531 
Q 2569 213 2275 61 
Q 1981 -91 1556 -91 
Q 1019 -91 701 211 
Q 384 513 384 1019 
Q 384 1609 779 1909 
Q 1175 2209 1959 2209 
L 2766 2209 
L 2766 2266 
Q 2766 2663 2505 2880 
Q 2244 3097 1772 3097 
Q 1472 3097 1187 3025 
Q 903 2953 641 2809 
L 641 3341 
Q 956 3463 1253 3523 
Q 1550 3584 1831 3584 
Q 2591 3584 2966 3190 
Q 3341 2797 3341 1997 
z
" transform="scale(0.015625)"/>
       <path id="DejaVuSans-6e" d="M 3513 2113 
L 3513 0 
L 2938 0 
L 2938 2094 
Q 2938 2591 2744 2837 
Q 2550 3084 2163 3084 
Q 1697 3084 1428 2787 
Q 1159 2491 1159 1978 
L 1159 0 
L 581 0 
L 581 3500 
L 1159 3500 
L 1159 2956 
Q 1366 3272 1645 3428 
Q 1925 3584 2291 3584 
Q 2894 3584 3203 3211 
Q 3513 2838 3513 2113 
z
" transform="scale(0.015625)"/>
       <path id="DejaVuSans-67" d="M 2906 1791 
Q 2906 2416 2648 2759 
Q 2391 3103 1925 3103 
Q 1463 3103 1205 2759 
Q 947 2416 947 1791 
Q 947 1169 1205 825 
Q 1463 481 1925 481 
Q 2391 481 2648 825 
Q 2906 1169 2906 1791 
z
M 3481 434 
Q 3481 -459 3084 -895 
Q 2688 -1331 1869 -1331 
Q 1566 -1331 1297 -1286 
Q 1028 -1241 775 -1147 
L 775 -588 
Q 1028 -725 1275 -790 
Q 1522 -856 1778 -856 
Q 2344 -856 2625 -561 
Q 2906 -266 2906 331 
L 2906 616 
Q 2728 306 2450 153 
Q 2172 0 1784 0 
Q 1141 0 747 490 
Q 353 981 353 1791 
Q 353 2603 747 3093 
Q 1141 3584 1784 3584 
Q 2172 3584 2450 3431 
Q 2728 3278 2906 2969 
L 2906 3500 
L 3481 3500 
L 3481 434 
z
" transform="scale(0.015625)"/>
       <path id="DejaVuSans-65" d="M 3597 1894 
L 3597 1613 
L 953 1613 
Q 991 1019 1311 708 
Q 1631 397 2203 397 
Q 2534 397 2845 478 
Q 3156 559 3463 722 
L 3463 178 
Q 3153 47 2828 -22 
Q 2503 -91 2169 -91 
Q 1331 -91 842 396 
Q 353 884 353 1716 
Q 353 2575 817 3079 
Q 1281 3584 2069 3584 
Q 2775 3584 3186 3129 
Q 3597 2675 3597 1894 
z
M 3022 2063 
Q 3016 2534 2758 2815 
Q 2500 3097 2075 3097 
Q 1594 3097 1305 2825 
Q 1016 2553 972 2059 
L 3022 2063 
z
" transform="scale(0.015625)"/>
      </defs>
      <use xlink:href="#DejaVuSans-25"/>
      <use xlink:href="#DejaVuSans-20" x="95.019531"/>
      <use xlink:href="#DejaVuSans-63" x="126.806641"/>
      <use xlink:href="#DejaVuSans-68" x="181.787109"/>
      <use xlink:href="#DejaVuSans-61" x="245.166016"/>
      <use xlink:href="#DejaVuSans-6e" x="306.445312"/>
      <use xlink:href="#DejaVuSans-67" x="369.824219"/>
      <use xlink:href="#DejaVuSans-65" x="433.300781"/>
     </g>
    </g>
   </g>
   <g id="PolyCollection_1"/>
   <g id="PolyCollection_2"/>
   <g id="PolyCollection_3"/>
   <g id="PolyCollection_4"/>
   <g id="PolyCollection_5"/>
   <g id="PolyCollection_6"/>
   <g id="line2d_7">
    <path d="M 183.629594 90.401982 
L 183.99419 168.9024 
L 184.358785 171.60664 
L 184.723381 172.252779 
L 185.087976 172.332743 
L 186.181762 171.995365 
L 189.098526 170.882259 
L 190.192312 168.851234 
L 193.838266 161.836713 
L 197.48422 155.331032 
L 201.130175 149.292479 
L 204.776129 143.705179 
L 208.422083 138.531821 
L 212.068037 133.724947 
L 215.713991 129.26021 
L 218.99535 125.556428 
L 223.0059 121.479016 
L 227.01645 117.719787 
L 230.297808 114.909508 
L 234.672953 111.468152 
L 239.048098 108.323355 
L 243.423244 105.450872 
L 247.798389 102.829612 
L 252.538129 100.25116 
L 257.27787 97.919341 
L 262.382205 95.659734 
L 266.757351 93.945907 
L 269.674114 93.112661 
L 275.507641 91.716321 
L 282.434954 90.27927 
L 283.893335 90.077663 
L 298.112557 89.23258 
L 303.946084 88.999103 
L 317.071519 88.766901 
L 339.31184 88.292121 
L 363.375138 88.0424 
L 377.958954 88.161427 
L 403.480634 88.15604 
L 449.419657 88.062162 
L 449.419657 88.062162 
" clip-path="url(#p55f027ebee)" style="fill: none; stroke: #4c72b0; stroke-opacity: 0.9; stroke-width: 3; stroke-linecap: round"/>
   </g>
   <g id="line2d_8">
    <path d="M 183.629594 90.401982 
L 183.99419 166.645777 
L 184.358785 169.831578 
L 184.723381 170.876297 
L 185.087976 171.185886 
L 185.817167 171.165869 
L 188.004739 170.484699 
L 189.098526 170.128715 
L 189.827716 168.95238 
L 195.296648 158.957906 
L 198.942602 152.872775 
L 202.588556 147.221767 
L 206.23451 141.967354 
L 209.880465 137.085237 
L 213.526419 132.566417 
L 217.536969 127.964601 
L 221.182923 124.106683 
L 225.193472 120.186228 
L 228.474831 117.239886 
L 232.485381 114.018736 
L 236.131335 111.353898 
L 240.50648 108.456334 
L 245.246221 105.595876 
L 249.985961 102.999848 
L 254.725702 100.647048 
L 259.830038 98.359574 
L 265.298969 96.166387 
L 268.944923 94.889408 
L 272.226282 94.003066 
L 279.153595 92.432489 
L 285.351717 91.235821 
L 296.654175 90.287144 
L 308.685824 89.426705 
L 318.894496 88.932335 
L 332.749122 88.572598 
L 338.582649 88.623141 
L 355.718634 88.202658 
L 378.688145 87.841892 
L 392.542771 87.810238 
L 407.491184 87.747526 
L 438.481795 87.711711 
L 449.419657 87.758977 
L 449.419657 87.758977 
" clip-path="url(#p55f027ebee)" style="fill: none; stroke: #dd8452; stroke-opacity: 0.9; stroke-width: 3; stroke-linecap: round"/>
   </g>
   <g id="line2d_9">
    <path d="M 183.629594 90.401982 
L 183.99419 172.943222 
L 184.358785 177.360058 
L 184.723381 178.395084 
L 185.087976 178.585974 
L 185.817167 178.414527 
L 189.098526 177.046416 
L 190.192312 174.838932 
L 193.838266 167.23604 
L 197.48422 160.184939 
L 201.130175 153.661833 
L 204.776129 147.608659 
L 208.422083 141.994713 
L 212.068037 136.777701 
L 215.713991 131.946196 
L 219.359946 127.469484 
L 223.0059 123.334443 
L 226.651854 119.502021 
L 230.662404 115.634352 
L 234.308358 112.40814 
L 237.954312 109.471879 
L 241.600266 106.800213 
L 245.975411 103.89872 
L 250.350557 101.270256 
L 255.090297 98.694515 
L 259.830038 96.372103 
L 264.569778 94.289434 
L 267.851137 93.036084 
L 271.861686 91.819948 
L 275.507641 90.92602 
L 279.882786 90.093957 
L 283.893335 89.546407 
L 287.903885 89.302468 
L 295.560389 88.98704 
L 307.592038 88.663342 
L 318.894496 88.56794 
L 344.05158 88.505282 
L 362.281351 88.500308 
L 449.419657 88.37657 
L 449.419657 88.37657 
" clip-path="url(#p55f027ebee)" style="fill: none; stroke: #55a868; stroke-opacity: 0.9; stroke-width: 3; stroke-linecap: round"/>
   </g>
   <g id="line2d_10">
    <path d="M 183.629594 90.401982 
L 183.99419 170.215306 
L 184.358785 174.584699 
L 184.723381 175.592075 
L 185.087976 175.772767 
L 185.817167 175.606407 
L 189.098526 174.297709 
L 190.192312 172.175914 
L 193.838266 164.830292 
L 197.48422 158.013573 
L 201.130175 151.691237 
L 204.776129 145.819148 
L 208.422083 140.366583 
L 212.068037 135.304647 
L 215.713991 130.616559 
L 219.359946 126.28781 
L 223.0059 122.285738 
L 226.651854 118.591639 
L 230.297808 115.187812 
L 234.308358 111.760493 
L 237.954312 108.92766 
L 241.964862 106.090983 
L 245.975411 103.539454 
L 250.350557 101.013118 
L 255.090297 98.542921 
L 259.830038 96.318015 
L 264.569778 94.325712 
L 268.215732 93.00183 
L 271.861686 91.97447 
L 275.872236 91.059637 
L 280.247381 90.297828 
L 284.257931 89.831455 
L 291.549839 89.385475 
L 302.852297 88.92924 
L 313.060969 88.762686 
L 328.009382 88.624974 
L 349.520511 88.518421 
L 371.396237 88.454281 
L 440.669367 88.301792 
L 449.419657 88.289687 
L 449.419657 88.289687 
" clip-path="url(#p55f027ebee)" style="fill: none; stroke: #c44e52; stroke-opacity: 0.9; stroke-width: 3; stroke-linecap: round"/>
   </g>
   <g id="line2d_11">
    <path d="M 183.629594 90.401982 
L 183.99419 171.781613 
L 184.358785 175.282019 
L 184.723381 175.783341 
L 185.452571 175.664268 
L 189.098526 174.243705 
L 190.921503 170.544617 
L 194.567457 163.374392 
L 198.213411 156.726788 
L 201.859365 150.558254 
L 205.50532 144.831051 
L 209.151274 139.512705 
L 212.797228 134.573098 
L 216.443182 129.986648 
L 220.453732 125.31411 
L 224.464282 121.007647 
L 228.474831 117.049018 
L 232.485381 113.394083 
L 236.49593 110.022622 
L 240.50648 106.991253 
L 244.881625 103.954496 
L 249.621366 100.950103 
L 254.361106 98.220052 
L 259.100847 95.739106 
L 263.475992 93.668091 
L 267.121946 92.234659 
L 271.861686 90.637 
L 275.872236 89.592508 
L 282.070358 88.262326 
L 287.53929 87.342897 
L 295.195794 86.329518 
L 298.112557 86.101618 
L 325.821809 86.623062 
L 353.531061 87.434132 
L 371.031641 87.558904 
L 378.32355 87.749121 
L 391.08439 87.898014 
L 412.960115 87.959839 
L 449.419657 87.949593 
L 449.419657 87.949593 
" clip-path="url(#p55f027ebee)" style="fill: none; stroke: #8172b3; stroke-opacity: 0.9; stroke-width: 3; stroke-linecap: round"/>
   </g>
   <g id="line2d_12">
    <path d="M 183.629594 90.401982 
L 183.99419 169.919041 
L 184.358785 172.819886 
L 184.723381 173.285398 
L 185.452571 173.174786 
L 189.098526 171.855062 
L 190.921503 168.291457 
L 194.567457 161.38871 
L 198.213411 154.990696 
L 201.859365 149.058819 
L 205.50532 143.556806 
L 209.151274 138.448902 
L 212.797228 133.705553 
L 216.443182 129.307468 
L 220.453732 124.843211 
L 224.464282 120.727336 
L 228.474831 116.931568 
L 232.485381 113.430758 
L 236.131335 110.509795 
L 240.50648 107.315535 
L 244.881625 104.396066 
L 249.25677 101.734348 
L 253.996511 99.104895 
L 259.100847 96.541972 
L 263.840587 94.410381 
L 267.851137 92.830663 
L 270.403305 92.0326 
L 276.236832 90.564161 
L 283.164145 89.155685 
L 289.726862 88.033154 
L 295.560389 87.249048 
L 298.477152 87.004029 
L 306.498252 86.869827 
L 314.883946 86.873042 
L 347.697534 86.932121 
L 358.270802 87.390995 
L 375.771382 87.47052 
L 386.709245 87.591061 
L 408.220374 87.738406 
L 449.419657 87.731123 
L 449.419657 87.731123 
" clip-path="url(#p55f027ebee)" style="fill: none; stroke: #937860; stroke-opacity: 0.9; stroke-width: 3; stroke-linecap: round"/>
   </g>
   <g id="patch_3">
    <path d="M 170.340091 183.612 
L 170.340091 81.456 
" style="fill: none; stroke: #ffffff; stroke-width: 1.25; stroke-linejoin: miter; stroke-linecap: square"/>
   </g>
   <g id="patch_4">
    <path d="M 170.340091 183.612 
L 462.70916 183.612 
" style="fill: none; stroke: #ffffff; stroke-width: 1.25; stroke-linejoin: miter; stroke-linecap: square"/>
   </g>
   <g id="text_4">
    <!-- 0.8~90 -->
    <g style="fill: #262626" transform="translate(269.894782 75.456) scale(0.252 -0.252)">
     <defs>
      <path id="DejaVuSans-38" d="M 2034 2216 
Q 1584 2216 1326 1975 
Q 1069 1734 1069 1313 
Q 1069 891 1326 650 
Q 1584 409 2034 409 
Q 2484 409 2743 651 
Q 3003 894 3003 1313 
Q 3003 1734 2745 1975 
Q 2488 2216 2034 2216 
z
M 1403 2484 
Q 997 2584 770 2862 
Q 544 3141 544 3541 
Q 544 4100 942 4425 
Q 1341 4750 2034 4750 
Q 2731 4750 3128 4425 
Q 3525 4100 3525 3541 
Q 3525 3141 3298 2862 
Q 3072 2584 2669 2484 
Q 3125 2378 3379 2068 
Q 3634 1759 3634 1313 
Q 3634 634 3220 271 
Q 2806 -91 2034 -91 
Q 1263 -91 848 271 
Q 434 634 434 1313 
Q 434 1759 690 2068 
Q 947 2378 1403 2484 
z
M 1172 3481 
Q 1172 3119 1398 2916 
Q 1625 2713 2034 2713 
Q 2441 2713 2670 2916 
Q 2900 3119 2900 3481 
Q 2900 3844 2670 4047 
Q 2441 4250 2034 4250 
Q 1625 4250 1398 4047 
Q 1172 3844 1172 3481 
z
" transform="scale(0.015625)"/>
      <path id="DejaVuSans-7e" d="M 4684 2553 
L 4684 1997 
Q 4356 1750 4076 1644 
Q 3797 1538 3494 1538 
Q 3150 1538 2694 1722 
Q 2659 1734 2644 1741 
Q 2622 1750 2575 1766 
Q 2091 1959 1797 1959 
Q 1522 1959 1253 1839 
Q 984 1719 678 1459 
L 678 2016 
Q 1006 2263 1286 2370 
Q 1566 2478 1869 2478 
Q 2213 2478 2672 2291 
Q 2703 2278 2719 2272 
Q 2744 2263 2788 2247 
Q 3272 2053 3566 2053 
Q 3834 2053 4098 2172 
Q 4363 2291 4684 2553 
z
" transform="scale(0.015625)"/>
      <path id="DejaVuSans-39" d="M 703 97 
L 703 672 
Q 941 559 1184 500 
Q 1428 441 1663 441 
Q 2288 441 2617 861 
Q 2947 1281 2994 2138 
Q 2813 1869 2534 1725 
Q 2256 1581 1919 1581 
Q 1219 1581 811 2004 
Q 403 2428 403 3163 
Q 403 3881 828 4315 
Q 1253 4750 1959 4750 
Q 2769 4750 3195 4129 
Q 3622 3509 3622 2328 
Q 3622 1225 3098 567 
Q 2575 -91 1691 -91 
Q 1453 -91 1209 -44 
Q 966 3 703 97 
z
M 1959 2075 
Q 2384 2075 2632 2365 
Q 2881 2656 2881 3163 
Q 2881 3666 2632 3958 
Q 2384 4250 1959 4250 
Q 1534 4250 1286 3958 
Q 1038 3666 1038 3163 
Q 1038 2656 1286 2365 
Q 1534 2075 1959 2075 
z
" transform="scale(0.015625)"/>
     </defs>
     <use xlink:href="#DejaVuSans-30"/>
     <use xlink:href="#DejaVuSans-2e" x="63.623047"/>
     <use xlink:href="#DejaVuSans-38" x="95.410156"/>
     <use xlink:href="#DejaVuSans-7e" x="159.033203"/>
     <use xlink:href="#DejaVuSans-39" x="242.822266"/>
     <use xlink:href="#DejaVuSans-30" x="306.445312"/>
    </g>
   </g>
  </g>
  <g id="axes_2">
   <g id="patch_5">
    <path d="M 489.290298 183.612 
L 781.659367 183.612 
L 781.659367 81.456 
L 489.290298 81.456 
z
" style="fill: #eaeaf2"/>
   </g>
   <g id="matplotlib.axis_3">
    <g id="xtick_5">
     <g id="line2d_13">
      <path d="M 502.579801 183.612 
L 502.579801 81.456 
" clip-path="url(#pd18c34e48c)" style="fill: none; stroke: #ffffff; stroke-linecap: round"/>
     </g>
    </g>
    <g id="xtick_6">
     <g id="line2d_14">
      <path d="M 593.728656 183.612 
L 593.728656 81.456 
" clip-path="url(#pd18c34e48c)" style="fill: none; stroke: #ffffff; stroke-linecap: round"/>
     </g>
    </g>
    <g id="xtick_7">
     <g id="line2d_15">
      <path d="M 684.877512 183.612 
L 684.877512 81.456 
" clip-path="url(#pd18c34e48c)" style="fill: none; stroke: #ffffff; stroke-linecap: round"/>
     </g>
    </g>
    <g id="xtick_8">
     <g id="line2d_16">
      <path d="M 776.026368 183.612 
L 776.026368 81.456 
" clip-path="url(#pd18c34e48c)" style="fill: none; stroke: #ffffff; stroke-linecap: round"/>
     </g>
    </g>
   </g>
   <g id="matplotlib.axis_4">
    <g id="ytick_3">
     <g id="line2d_17">
      <path d="M 489.290298 147.707269 
L 781.659367 147.707269 
" clip-path="url(#pd18c34e48c)" style="fill: none; stroke: #ffffff; stroke-linecap: round"/>
     </g>
    </g>
    <g id="ytick_4">
     <g id="line2d_18">
      <path d="M 489.290298 90.401982 
L 781.659367 90.401982 
" clip-path="url(#pd18c34e48c)" style="fill: none; stroke: #ffffff; stroke-linecap: round"/>
     </g>
    </g>
   </g>
   <g id="PolyCollection_7"/>
   <g id="PolyCollection_8"/>
   <g id="PolyCollection_9"/>
   <g id="PolyCollection_10"/>
   <g id="PolyCollection_11"/>
   <g id="PolyCollection_12"/>
   <g id="line2d_19">
    <path d="M 502.579801 90.401982 
L 502.944396 168.9024 
L 503.308992 171.693819 
L 503.673587 172.44107 
L 504.038182 172.625731 
L 505.131969 172.604666 
L 508.048732 172.32619 
L 508.777923 171.222747 
L 513.153068 163.970273 
L 516.799022 158.383749 
L 520.444976 153.188862 
L 524.090931 148.356379 
L 528.10148 143.428568 
L 532.11203 138.876838 
L 536.12258 134.672424 
L 540.133129 130.78839 
L 544.143679 127.20266 
L 548.518824 123.608267 
L 552.893969 120.31177 
L 557.269114 117.292986 
L 562.008855 114.307685 
L 566.748595 111.589816 
L 571.488336 109.115504 
L 576.592672 106.704981 
L 582.061603 104.448518 
L 587.530534 102.43687 
L 593.364061 100.544941 
L 599.562183 98.76318 
L 606.124901 97.104023 
L 613.052214 95.576148 
L 620.708718 94.119479 
L 628.729817 92.818859 
L 637.480107 91.623558 
L 641.490657 91.226961 
L 652.793115 90.438121 
L 664.095573 89.83921 
L 702.013497 89.954155 
L 768.369864 89.748313 
L 768.369864 89.748313 
" clip-path="url(#pd18c34e48c)" style="fill: none; stroke: #4c72b0; stroke-opacity: 0.9; stroke-width: 3; stroke-linecap: round"/>
   </g>
   <g id="line2d_20">
    <path d="M 502.579801 90.401982 
L 502.944396 166.645777 
L 503.308992 169.903087 
L 503.673587 171.031612 
L 504.038182 171.429231 
L 504.767373 171.588469 
L 506.954946 171.443863 
L 508.048732 171.353042 
L 508.777923 170.352999 
L 514.976045 160.46775 
L 518.621999 155.179814 
L 522.267954 150.261788 
L 525.913908 145.686583 
L 529.924457 141.022381 
L 533.935007 136.715473 
L 537.945557 132.737921 
L 541.956106 129.064291 
L 545.966656 125.671022 
L 550.341801 122.263973 
L 554.716946 119.139617 
L 559.092091 116.275022 
L 563.831832 113.447798 
L 568.571572 110.873473 
L 573.675908 108.358213 
L 578.780244 106.088348 
L 584.249175 103.903827 
L 589.718107 101.952937 
L 595.187038 100.281709 
L 601.749756 98.534125 
L 608.677069 96.922922 
L 615.968977 95.453329 
L 623.990076 94.067908 
L 632.740367 92.793287 
L 641.126061 91.78402 
L 648.41797 91.201717 
L 661.543405 90.407022 
L 668.470718 90.142236 
L 688.888062 89.998905 
L 716.232718 89.8999 
L 724.618413 89.920015 
L 768.369864 89.727511 
L 768.369864 89.727511 
" clip-path="url(#pd18c34e48c)" style="fill: none; stroke: #dd8452; stroke-opacity: 0.9; stroke-width: 3; stroke-linecap: round"/>
   </g>
   <g id="line2d_21">
    <path d="M 502.579801 90.401982 
L 502.944396 172.943222 
L 503.308992 177.453959 
L 503.673587 178.598661 
L 504.038182 178.903342 
L 504.767373 178.961389 
L 508.048732 178.617024 
L 508.777923 177.416073 
L 513.153068 169.575587 
L 516.799022 163.536759 
L 520.444976 157.923571 
L 524.090931 152.708358 
L 527.736885 147.862865 
L 531.747435 142.921057 
L 535.757984 138.355059 
L 539.768534 134.137667 
L 543.779084 130.241247 
L 547.789633 126.640917 
L 552.164778 123.02553 
L 556.539923 119.713942 
L 560.915068 116.680347 
L 565.290213 113.902217 
L 570.029954 111.159053 
L 574.769694 108.668977 
L 579.87403 106.249154 
L 584.978366 104.068822 
L 590.447298 101.975666 
L 596.280824 99.990999 
L 601.749756 98.354785 
L 607.947878 96.734814 
L 614.875191 95.182208 
L 622.167099 93.775588 
L 630.188199 92.455667 
L 638.573893 91.297352 
L 644.40742 90.719228 
L 652.428519 90.143687 
L 658.991237 89.925227 
L 669.564504 89.942034 
L 768.369864 89.901474 
L 768.369864 89.901474 
" clip-path="url(#pd18c34e48c)" style="fill: none; stroke: #55a868; stroke-opacity: 0.9; stroke-width: 3; stroke-linecap: round"/>
   </g>
   <g id="line2d_22">
    <path d="M 502.579801 90.401982 
L 502.944396 170.215306 
L 503.308992 174.674643 
L 503.673587 175.787546 
L 504.038182 176.077679 
L 504.767373 176.132314 
L 508.048732 175.809836 
L 508.777923 174.659664 
L 513.517663 166.481664 
L 517.163618 160.685797 
L 520.809572 155.297213 
L 524.455526 150.285007 
L 528.10148 145.622266 
L 532.11203 140.867111 
L 536.12258 136.474402 
L 540.133129 132.416664 
L 544.143679 128.668478 
L 548.154229 125.205962 
L 552.529374 121.729415 
L 556.904519 118.543071 
L 561.279664 115.624991 
L 566.019404 112.738596 
L 570.759145 110.121524 
L 575.498885 107.748617 
L 580.603221 105.441269 
L 585.707557 103.369428 
L 591.176488 101.382465 
L 597.010015 99.506934 
L 602.843542 97.856712 
L 609.40626 96.244968 
L 615.604382 94.93523 
L 623.260886 93.541576 
L 631.64658 92.249985 
L 639.66768 91.227753 
L 646.230397 90.63935 
L 653.15771 90.218769 
L 660.085023 90.045101 
L 691.075634 89.927511 
L 722.430841 89.890032 
L 768.369864 89.890779 
L 768.369864 89.890779 
" clip-path="url(#pd18c34e48c)" style="fill: none; stroke: #c44e52; stroke-opacity: 0.9; stroke-width: 3; stroke-linecap: round"/>
   </g>
   <g id="line2d_23">
    <path d="M 502.579801 90.401982 
L 502.944396 171.781613 
L 503.308992 175.382324 
L 503.673587 175.991066 
L 504.402778 176.088979 
L 508.048732 175.741282 
L 509.507114 173.20826 
L 513.153068 166.962297 
L 516.799022 161.157329 
L 520.444976 155.760609 
L 524.090931 150.742256 
L 527.736885 146.074471 
L 531.747435 141.315043 
L 535.757984 136.918948 
L 539.768534 132.857834 
L 543.779084 129.105274 
L 547.789633 125.637225 
L 552.164778 122.152389 
L 556.539923 118.953677 
L 560.915068 116.01762 
L 565.654809 113.108586 
L 570.394549 110.457017 
L 575.498885 107.863369 
L 580.603221 105.516117 
L 586.072153 103.257354 
L 591.905679 101.101221 
L 597.739206 99.179131 
L 603.572733 97.485732 
L 610.13545 95.824962 
L 617.427359 94.217132 
L 625.083863 92.762613 
L 633.104962 91.462088 
L 638.938489 90.706166 
L 646.959588 89.924029 
L 655.709878 89.369227 
L 665.189359 88.956557 
L 680.502367 88.521446 
L 688.523466 88.474675 
L 701.284306 88.872928 
L 721.70165 89.221036 
L 754.150642 89.486962 
L 768.369864 89.506748 
L 768.369864 89.506748 
" clip-path="url(#pd18c34e48c)" style="fill: none; stroke: #8172b3; stroke-opacity: 0.9; stroke-width: 3; stroke-linecap: round"/>
   </g>
   <g id="line2d_24">
    <path d="M 502.579801 90.401982 
L 502.944396 169.919041 
L 503.308992 172.913394 
L 503.673587 173.478766 
L 504.402778 173.569904 
L 508.048732 173.245993 
L 509.507114 170.793055 
L 513.153068 164.744345 
L 516.799022 159.123291 
L 520.444976 153.898741 
L 524.090931 149.041857 
L 527.736885 144.526323 
L 531.747435 139.924362 
L 535.757984 135.675193 
L 539.768534 131.751022 
L 543.779084 128.126455 
L 548.154229 124.486682 
L 552.529374 121.14835 
L 556.904519 118.08576 
L 561.644259 115.052037 
L 566.384 112.288194 
L 571.12374 109.772112 
L 576.228076 107.317908 
L 581.697007 104.948301 
L 587.165939 102.820704 
L 592.999466 100.790036 
L 599.197588 98.873871 
L 605.39571 97.209749 
L 612.323023 95.579918 
L 619.614931 94.096321 
L 627.636031 92.696158 
L 635.65713 91.51655 
L 642.219848 90.751635 
L 651.334733 90.095929 
L 665.553955 89.363942 
L 676.856413 88.988378 
L 685.606703 88.850743 
L 717.6911 89.28439 
L 749.046306 89.340986 
L 765.088505 89.467851 
L 768.369864 89.476643 
L 768.369864 89.476643 
" clip-path="url(#pd18c34e48c)" style="fill: none; stroke: #937860; stroke-opacity: 0.9; stroke-width: 3; stroke-linecap: round"/>
   </g>
   <g id="patch_6">
    <path d="M 489.290298 183.612 
L 489.290298 81.456 
" style="fill: none; stroke: #ffffff; stroke-width: 1.25; stroke-linejoin: miter; stroke-linecap: square"/>
   </g>
   <g id="patch_7">
    <path d="M 489.290298 183.612 
L 781.659367 183.612 
" style="fill: none; stroke: #ffffff; stroke-width: 1.25; stroke-linejoin: miter; stroke-linecap: square"/>
   </g>
   <g id="text_5">
    <!-- 0.8~365 -->
    <g style="fill: #262626" transform="translate(580.828239 75.456) scale(0.252 -0.252)">
     <defs>
      <path id="DejaVuSans-33" d="M 2597 2516 
Q 3050 2419 3304 2112 
Q 3559 1806 3559 1356 
Q 3559 666 3084 287 
Q 2609 -91 1734 -91 
Q 1441 -91 1130 -33 
Q 819 25 488 141 
L 488 750 
Q 750 597 1062 519 
Q 1375 441 1716 441 
Q 2309 441 2620 675 
Q 2931 909 2931 1356 
Q 2931 1769 2642 2001 
Q 2353 2234 1838 2234 
L 1294 2234 
L 1294 2753 
L 1863 2753 
Q 2328 2753 2575 2939 
Q 2822 3125 2822 3475 
Q 2822 3834 2567 4026 
Q 2313 4219 1838 4219 
Q 1578 4219 1281 4162 
Q 984 4106 628 3988 
L 628 4550 
Q 988 4650 1302 4700 
Q 1616 4750 1894 4750 
Q 2613 4750 3031 4423 
Q 3450 4097 3450 3541 
Q 3450 3153 3228 2886 
Q 3006 2619 2597 2516 
z
" transform="scale(0.015625)"/>
      <path id="DejaVuSans-36" d="M 2113 2584 
Q 1688 2584 1439 2293 
Q 1191 2003 1191 1497 
Q 1191 994 1439 701 
Q 1688 409 2113 409 
Q 2538 409 2786 701 
Q 3034 994 3034 1497 
Q 3034 2003 2786 2293 
Q 2538 2584 2113 2584 
z
M 3366 4563 
L 3366 3988 
Q 3128 4100 2886 4159 
Q 2644 4219 2406 4219 
Q 1781 4219 1451 3797 
Q 1122 3375 1075 2522 
Q 1259 2794 1537 2939 
Q 1816 3084 2150 3084 
Q 2853 3084 3261 2657 
Q 3669 2231 3669 1497 
Q 3669 778 3244 343 
Q 2819 -91 2113 -91 
Q 1303 -91 875 529 
Q 447 1150 447 2328 
Q 447 3434 972 4092 
Q 1497 4750 2381 4750 
Q 2619 4750 2861 4703 
Q 3103 4656 3366 4563 
z
" transform="scale(0.015625)"/>
      <path id="DejaVuSans-35" d="M 691 4666 
L 3169 4666 
L 3169 4134 
L 1269 4134 
L 1269 2991 
Q 1406 3038 1543 3061 
Q 1681 3084 1819 3084 
Q 2600 3084 3056 2656 
Q 3513 2228 3513 1497 
Q 3513 744 3044 326 
Q 2575 -91 1722 -91 
Q 1428 -91 1123 -41 
Q 819 9 494 109 
L 494 744 
Q 775 591 1075 516 
Q 1375 441 1709 441 
Q 2250 441 2565 725 
Q 2881 1009 2881 1497 
Q 2881 1984 2565 2268 
Q 2250 2553 1709 2553 
Q 1456 2553 1204 2497 
Q 953 2441 691 2322 
L 691 4666 
z
" transform="scale(0.015625)"/>
     </defs>
     <use xlink:href="#DejaVuSans-30"/>
     <use xlink:href="#DejaVuSans-2e" x="63.623047"/>
     <use xlink:href="#DejaVuSans-38" x="95.410156"/>
     <use xlink:href="#DejaVuSans-7e" x="159.033203"/>
     <use xlink:href="#DejaVuSans-33" x="242.822266"/>
     <use xlink:href="#DejaVuSans-36" x="306.445312"/>
     <use xlink:href="#DejaVuSans-35" x="370.068359"/>
    </g>
   </g>
  </g>
  <g id="axes_3">
   <g id="patch_8">
    <path d="M 808.240504 183.612 
L 1100.609573 183.612 
L 1100.609573 81.456 
L 808.240504 81.456 
z
" style="fill: #eaeaf2"/>
   </g>
   <g id="matplotlib.axis_5">
    <g id="xtick_9">
     <g id="line2d_25">
      <path d="M 821.530007 183.612 
L 821.530007 81.456 
" clip-path="url(#p444ead2684)" style="fill: none; stroke: #ffffff; stroke-linecap: round"/>
     </g>
     <g id="text_6">
      <!-- 0 -->
      <g style="fill: #262626" transform="translate(814.18132 210.664391) scale(0.231 -0.231)">
       <use xlink:href="#DejaVuSans-30"/>
      </g>
     </g>
    </g>
    <g id="xtick_10">
     <g id="line2d_26">
      <path d="M 912.678863 183.612 
L 912.678863 81.456 
" clip-path="url(#p444ead2684)" style="fill: none; stroke: #ffffff; stroke-linecap: round"/>
     </g>
     <g id="text_7">
      <!-- 250 -->
      <g style="fill: #262626" transform="translate(890.6328 210.664391) scale(0.231 -0.231)">
       <use xlink:href="#DejaVuSans-32"/>
       <use xlink:href="#DejaVuSans-35" x="63.623047"/>
       <use xlink:href="#DejaVuSans-30" x="127.246094"/>
      </g>
     </g>
    </g>
    <g id="xtick_11">
     <g id="line2d_27">
      <path d="M 1003.827719 183.612 
L 1003.827719 81.456 
" clip-path="url(#p444ead2684)" style="fill: none; stroke: #ffffff; stroke-linecap: round"/>
     </g>
     <g id="text_8">
      <!-- 500 -->
      <g style="fill: #262626" transform="translate(981.781656 210.664391) scale(0.231 -0.231)">
       <use xlink:href="#DejaVuSans-35"/>
       <use xlink:href="#DejaVuSans-30" x="63.623047"/>
       <use xlink:href="#DejaVuSans-30" x="127.246094"/>
      </g>
     </g>
    </g>
    <g id="xtick_12">
     <g id="line2d_28">
      <path d="M 1094.976574 183.612 
L 1094.976574 81.456 
" clip-path="url(#p444ead2684)" style="fill: none; stroke: #ffffff; stroke-linecap: round"/>
     </g>
     <g id="text_9">
      <!-- 750 -->
      <g style="fill: #262626" transform="translate(1072.930512 210.664391) scale(0.231 -0.231)">
       <defs>
        <path id="DejaVuSans-37" d="M 525 4666 
L 3525 4666 
L 3525 4397 
L 1831 0 
L 1172 0 
L 2766 4134 
L 525 4134 
L 525 4666 
z
" transform="scale(0.015625)"/>
       </defs>
       <use xlink:href="#DejaVuSans-37"/>
       <use xlink:href="#DejaVuSans-35" x="63.623047"/>
       <use xlink:href="#DejaVuSans-30" x="127.246094"/>
      </g>
     </g>
    </g>
    <g id="text_10">
     <!-- step -->
     <g style="fill: #262626" transform="translate(927.169664 238.616531) scale(0.252 -0.252)">
      <defs>
       <path id="DejaVuSans-73" d="M 2834 3397 
L 2834 2853 
Q 2591 2978 2328 3040 
Q 2066 3103 1784 3103 
Q 1356 3103 1142 2972 
Q 928 2841 928 2578 
Q 928 2378 1081 2264 
Q 1234 2150 1697 2047 
L 1894 2003 
Q 2506 1872 2764 1633 
Q 3022 1394 3022 966 
Q 3022 478 2636 193 
Q 2250 -91 1575 -91 
Q 1294 -91 989 -36 
Q 684 19 347 128 
L 347 722 
Q 666 556 975 473 
Q 1284 391 1588 391 
Q 1994 391 2212 530 
Q 2431 669 2431 922 
Q 2431 1156 2273 1281 
Q 2116 1406 1581 1522 
L 1381 1569 
Q 847 1681 609 1914 
Q 372 2147 372 2553 
Q 372 3047 722 3315 
Q 1072 3584 1716 3584 
Q 2034 3584 2315 3537 
Q 2597 3491 2834 3397 
z
" transform="scale(0.015625)"/>
       <path id="DejaVuSans-74" d="M 1172 4494 
L 1172 3500 
L 2356 3500 
L 2356 3053 
L 1172 3053 
L 1172 1153 
Q 1172 725 1289 603 
Q 1406 481 1766 481 
L 2356 481 
L 2356 0 
L 1766 0 
Q 1100 0 847 248 
Q 594 497 594 1153 
L 594 3053 
L 172 3053 
L 172 3500 
L 594 3500 
L 594 4494 
L 1172 4494 
z
" transform="scale(0.015625)"/>
       <path id="DejaVuSans-70" d="M 1159 525 
L 1159 -1331 
L 581 -1331 
L 581 3500 
L 1159 3500 
L 1159 2969 
Q 1341 3281 1617 3432 
Q 1894 3584 2278 3584 
Q 2916 3584 3314 3078 
Q 3713 2572 3713 1747 
Q 3713 922 3314 415 
Q 2916 -91 2278 -91 
Q 1894 -91 1617 61 
Q 1341 213 1159 525 
z
M 3116 1747 
Q 3116 2381 2855 2742 
Q 2594 3103 2138 3103 
Q 1681 3103 1420 2742 
Q 1159 2381 1159 1747 
Q 1159 1113 1420 752 
Q 1681 391 2138 391 
Q 2594 391 2855 752 
Q 3116 1113 3116 1747 
z
" transform="scale(0.015625)"/>
      </defs>
      <use xlink:href="#DejaVuSans-73"/>
      <use xlink:href="#DejaVuSans-74" x="52.099609"/>
      <use xlink:href="#DejaVuSans-65" x="91.308594"/>
      <use xlink:href="#DejaVuSans-70" x="152.832031"/>
     </g>
    </g>
   </g>
   <g id="matplotlib.axis_6">
    <g id="ytick_5">
     <g id="line2d_29">
      <path d="M 808.240504 147.707269 
L 1100.609573 147.707269 
" clip-path="url(#p444ead2684)" style="fill: none; stroke: #ffffff; stroke-linecap: round"/>
     </g>
    </g>
    <g id="ytick_6">
     <g id="line2d_30">
      <path d="M 808.240504 90.401982 
L 1100.609573 90.401982 
" clip-path="url(#p444ead2684)" style="fill: none; stroke: #ffffff; stroke-linecap: round"/>
     </g>
    </g>
   </g>
   <g id="PolyCollection_13"/>
   <g id="PolyCollection_14"/>
   <g id="PolyCollection_15"/>
   <g id="PolyCollection_16"/>
   <g id="PolyCollection_17"/>
   <g id="PolyCollection_18"/>
   <g id="line2d_31">
    <path d="M 821.530007 90.401982 
L 821.894603 168.9024 
L 822.259198 171.60664 
L 822.623794 172.252779 
L 822.988389 172.332743 
L 824.082175 171.995365 
L 826.998939 170.882259 
L 828.092725 168.851234 
L 831.738679 161.836713 
L 835.384633 155.331032 
L 839.030588 149.292479 
L 842.676542 143.705179 
L 846.322496 138.531821 
L 849.96845 133.724947 
L 853.614404 129.26021 
L 856.895763 125.556428 
L 860.906313 121.479016 
L 864.916863 117.719787 
L 868.198221 114.909508 
L 872.573366 111.468152 
L 876.948512 108.323355 
L 881.323657 105.450872 
L 885.698802 102.829612 
L 890.438542 100.25116 
L 895.178283 97.919341 
L 900.282619 95.659734 
L 904.657764 93.945907 
L 907.574527 93.112661 
L 913.408054 91.716321 
L 920.335367 90.27927 
L 921.793748 90.077663 
L 936.01297 89.23258 
L 941.846497 88.999103 
L 954.971932 88.766901 
L 977.212253 88.292121 
L 1001.275551 88.0424 
L 1015.859367 88.161427 
L 1041.381047 88.15604 
L 1087.32007 88.062162 
L 1087.32007 88.062162 
" clip-path="url(#p444ead2684)" style="fill: none; stroke: #4c72b0; stroke-opacity: 0.9; stroke-width: 3; stroke-linecap: round"/>
   </g>
   <g id="line2d_32">
    <path d="M 821.530007 90.401982 
L 821.894603 166.645777 
L 822.259198 169.831578 
L 822.623794 170.876297 
L 822.988389 171.185886 
L 823.71758 171.165869 
L 825.905152 170.484699 
L 826.998939 170.128715 
L 827.728129 168.95238 
L 833.197061 158.957906 
L 836.843015 152.872775 
L 840.488969 147.221767 
L 844.134923 141.967354 
L 847.780878 137.085237 
L 851.426832 132.566417 
L 855.437382 127.964601 
L 859.083336 124.106683 
L 863.093885 120.186228 
L 866.375244 117.239886 
L 870.385794 114.018736 
L 874.031748 111.353898 
L 878.406893 108.456334 
L 883.146634 105.595876 
L 887.886374 102.999848 
L 892.626115 100.647048 
L 897.730451 98.359574 
L 903.199382 96.166387 
L 906.845336 94.889408 
L 910.126695 94.003066 
L 917.054008 92.432489 
L 923.25213 91.235821 
L 934.554588 90.287144 
L 946.586237 89.426705 
L 956.794909 88.932335 
L 970.649535 88.572598 
L 976.483062 88.623141 
L 993.619047 88.202658 
L 1016.588558 87.841892 
L 1030.443184 87.810238 
L 1045.391597 87.747526 
L 1076.382208 87.711711 
L 1087.32007 87.758977 
L 1087.32007 87.758977 
" clip-path="url(#p444ead2684)" style="fill: none; stroke: #dd8452; stroke-opacity: 0.9; stroke-width: 3; stroke-linecap: round"/>
   </g>
   <g id="line2d_33">
    <path d="M 821.530007 90.401982 
L 821.894603 172.943222 
L 822.259198 177.360058 
L 822.623794 178.395084 
L 822.988389 178.585974 
L 823.71758 178.414527 
L 826.998939 177.046416 
L 828.092725 174.838932 
L 831.738679 167.23604 
L 835.384633 160.184939 
L 839.030588 153.661833 
L 842.676542 147.608659 
L 846.322496 141.994713 
L 849.96845 136.777701 
L 853.614404 131.946196 
L 857.260359 127.469484 
L 860.906313 123.334443 
L 864.552267 119.502021 
L 868.562817 115.634352 
L 872.208771 112.40814 
L 875.854725 109.471879 
L 879.500679 106.800213 
L 883.875825 103.89872 
L 888.25097 101.270256 
L 892.99071 98.694515 
L 897.730451 96.372103 
L 902.470191 94.289434 
L 905.75155 93.036084 
L 909.7621 91.819948 
L 913.408054 90.92602 
L 917.783199 90.093957 
L 921.793748 89.546407 
L 925.804298 89.302468 
L 933.460802 88.98704 
L 945.492451 88.663342 
L 956.794909 88.56794 
L 981.951993 88.505282 
L 1000.181764 88.500308 
L 1087.32007 88.37657 
L 1087.32007 88.37657 
" clip-path="url(#p444ead2684)" style="fill: none; stroke: #55a868; stroke-opacity: 0.9; stroke-width: 3; stroke-linecap: round"/>
   </g>
   <g id="line2d_34">
    <path d="M 821.530007 90.401982 
L 821.894603 170.215306 
L 822.259198 174.584699 
L 822.623794 175.592075 
L 822.988389 175.772767 
L 823.71758 175.606407 
L 826.998939 174.297709 
L 828.092725 172.175914 
L 831.738679 164.830292 
L 835.384633 158.013573 
L 839.030588 151.691237 
L 842.676542 145.819148 
L 846.322496 140.366583 
L 849.96845 135.304647 
L 853.614404 130.616559 
L 857.260359 126.28781 
L 860.906313 122.285738 
L 864.552267 118.591639 
L 868.198221 115.187812 
L 872.208771 111.760493 
L 875.854725 108.92766 
L 879.865275 106.090983 
L 883.875825 103.539454 
L 888.25097 101.013118 
L 892.99071 98.542921 
L 897.730451 96.318015 
L 902.470191 94.325712 
L 906.116145 93.00183 
L 909.7621 91.97447 
L 913.772649 91.059637 
L 918.147794 90.297828 
L 922.158344 89.831455 
L 929.450252 89.385475 
L 940.75271 88.92924 
L 950.961382 88.762686 
L 965.909795 88.624974 
L 987.420925 88.518421 
L 1009.29665 88.454281 
L 1078.56978 88.301792 
L 1087.32007 88.289687 
L 1087.32007 88.289687 
" clip-path="url(#p444ead2684)" style="fill: none; stroke: #c44e52; stroke-opacity: 0.9; stroke-width: 3; stroke-linecap: round"/>
   </g>
   <g id="line2d_35">
    <path d="M 821.530007 90.401982 
L 821.894603 171.781613 
L 822.259198 175.282019 
L 822.623794 175.783341 
L 823.352984 175.664268 
L 826.998939 174.243705 
L 828.821916 170.544617 
L 832.46787 163.374392 
L 836.113824 156.726788 
L 839.759778 150.558254 
L 843.405733 144.831051 
L 847.051687 139.512705 
L 850.697641 134.573098 
L 854.343595 129.986648 
L 858.354145 125.31411 
L 862.364695 121.007647 
L 866.375244 117.049018 
L 870.385794 113.394083 
L 874.396344 110.022622 
L 878.406893 106.991253 
L 882.782038 103.954496 
L 887.521779 100.950103 
L 892.261519 98.220052 
L 897.00126 95.739106 
L 901.376405 93.668091 
L 905.022359 92.234659 
L 909.7621 90.637 
L 913.772649 89.592508 
L 919.970771 88.262326 
L 925.439703 87.342897 
L 933.096207 86.329518 
L 936.01297 86.101618 
L 963.722222 86.623062 
L 991.431474 87.434132 
L 1008.932054 87.558904 
L 1016.223963 87.749121 
L 1028.984803 87.898014 
L 1050.860528 87.959839 
L 1087.32007 87.949593 
L 1087.32007 87.949593 
" clip-path="url(#p444ead2684)" style="fill: none; stroke: #8172b3; stroke-opacity: 0.9; stroke-width: 3; stroke-linecap: round"/>
   </g>
   <g id="line2d_36">
    <path d="M 821.530007 90.401982 
L 821.894603 169.919041 
L 822.259198 172.819886 
L 822.623794 173.285398 
L 823.352984 173.174786 
L 826.998939 171.855062 
L 828.821916 168.291457 
L 832.46787 161.38871 
L 836.113824 154.990696 
L 839.759778 149.058819 
L 843.405733 143.556806 
L 847.051687 138.448902 
L 850.697641 133.705553 
L 854.343595 129.307468 
L 858.354145 124.843211 
L 862.364695 120.727336 
L 866.375244 116.931568 
L 870.385794 113.430758 
L 874.031748 110.509795 
L 878.406893 107.315535 
L 882.782038 104.396066 
L 887.157183 101.734348 
L 891.896924 99.104895 
L 897.00126 96.541972 
L 901.741 94.410381 
L 905.75155 92.830663 
L 908.303718 92.0326 
L 914.137245 90.564161 
L 921.064558 89.155685 
L 927.627275 88.033154 
L 933.460802 87.249048 
L 936.377565 87.004029 
L 944.398665 86.869827 
L 952.784359 86.873042 
L 985.597947 86.932121 
L 996.171215 87.390995 
L 1013.671795 87.47052 
L 1024.609658 87.591061 
L 1046.120788 87.738406 
L 1087.32007 87.731123 
L 1087.32007 87.731123 
" clip-path="url(#p444ead2684)" style="fill: none; stroke: #937860; stroke-opacity: 0.9; stroke-width: 3; stroke-linecap: round"/>
   </g>
   <g id="patch_9">
    <path d="M 808.240504 183.612 
L 808.240504 81.456 
" style="fill: none; stroke: #ffffff; stroke-width: 1.25; stroke-linejoin: miter; stroke-linecap: square"/>
   </g>
   <g id="patch_10">
    <path d="M 808.240504 183.612 
L 1100.609573 183.612 
" style="fill: none; stroke: #ffffff; stroke-width: 1.25; stroke-linejoin: miter; stroke-linecap: square"/>
   </g>
   <g id="text_11">
    <!-- 0.85~90 -->
    <g style="fill: #262626" transform="translate(899.778445 75.456) scale(0.252 -0.252)">
     <use xlink:href="#DejaVuSans-30"/>
     <use xlink:href="#DejaVuSans-2e" x="63.623047"/>
     <use xlink:href="#DejaVuSans-38" x="95.410156"/>
     <use xlink:href="#DejaVuSans-35" x="159.033203"/>
     <use xlink:href="#DejaVuSans-7e" x="222.65625"/>
     <use xlink:href="#DejaVuSans-39" x="306.445312"/>
     <use xlink:href="#DejaVuSans-30" x="370.068359"/>
    </g>
   </g>
  </g>
  <g id="axes_4">
   <g id="patch_11">
    <path d="M 170.340091 373.284 
L 462.70916 373.284 
L 462.70916 271.128 
L 170.340091 271.128 
z
" style="fill: #eaeaf2"/>
   </g>
   <g id="matplotlib.axis_7">
    <g id="xtick_13">
     <g id="line2d_37">
      <path d="M 183.629594 373.284 
L 183.629594 271.128 
" clip-path="url(#pd29e4f7cd8)" style="fill: none; stroke: #ffffff; stroke-linecap: round"/>
     </g>
     <g id="text_12">
      <!-- 0 -->
      <g style="fill: #262626" transform="translate(176.280907 400.336391) scale(0.231 -0.231)">
       <use xlink:href="#DejaVuSans-30"/>
      </g>
     </g>
    </g>
    <g id="xtick_14">
     <g id="line2d_38">
      <path d="M 274.77845 373.284 
L 274.77845 271.128 
" clip-path="url(#pd29e4f7cd8)" style="fill: none; stroke: #ffffff; stroke-linecap: round"/>
     </g>
     <g id="text_13">
      <!-- 250 -->
      <g style="fill: #262626" transform="translate(252.732387 400.336391) scale(0.231 -0.231)">
       <use xlink:href="#DejaVuSans-32"/>
       <use xlink:href="#DejaVuSans-35" x="63.623047"/>
       <use xlink:href="#DejaVuSans-30" x="127.246094"/>
      </g>
     </g>
    </g>
    <g id="xtick_15">
     <g id="line2d_39">
      <path d="M 365.927305 373.284 
L 365.927305 271.128 
" clip-path="url(#pd29e4f7cd8)" style="fill: none; stroke: #ffffff; stroke-linecap: round"/>
     </g>
     <g id="text_14">
      <!-- 500 -->
      <g style="fill: #262626" transform="translate(343.881243 400.336391) scale(0.231 -0.231)">
       <use xlink:href="#DejaVuSans-35"/>
       <use xlink:href="#DejaVuSans-30" x="63.623047"/>
       <use xlink:href="#DejaVuSans-30" x="127.246094"/>
      </g>
     </g>
    </g>
    <g id="xtick_16">
     <g id="line2d_40">
      <path d="M 457.076161 373.284 
L 457.076161 271.128 
" clip-path="url(#pd29e4f7cd8)" style="fill: none; stroke: #ffffff; stroke-linecap: round"/>
     </g>
     <g id="text_15">
      <!-- 750 -->
      <g style="fill: #262626" transform="translate(435.030099 400.336391) scale(0.231 -0.231)">
       <use xlink:href="#DejaVuSans-37"/>
       <use xlink:href="#DejaVuSans-35" x="63.623047"/>
       <use xlink:href="#DejaVuSans-30" x="127.246094"/>
      </g>
     </g>
    </g>
    <g id="text_16">
     <!-- step -->
     <g style="fill: #262626" transform="translate(289.269251 428.288531) scale(0.252 -0.252)">
      <use xlink:href="#DejaVuSans-73"/>
      <use xlink:href="#DejaVuSans-74" x="52.099609"/>
      <use xlink:href="#DejaVuSans-65" x="91.308594"/>
      <use xlink:href="#DejaVuSans-70" x="152.832031"/>
     </g>
    </g>
   </g>
   <g id="matplotlib.axis_8">
    <g id="ytick_7">
     <g id="line2d_41">
      <path d="M 170.340091 337.379269 
L 462.70916 337.379269 
" clip-path="url(#pd29e4f7cd8)" style="fill: none; stroke: #ffffff; stroke-linecap: round"/>
     </g>
     <g id="text_17">
      <!-- −0.2 -->
      <g style="fill: #262626" transform="translate(104.746794 346.155464) scale(0.231 -0.231)">
       <use xlink:href="#DejaVuSans-2212"/>
       <use xlink:href="#DejaVuSans-30" x="83.789062"/>
       <use xlink:href="#DejaVuSans-2e" x="147.412109"/>
       <use xlink:href="#DejaVuSans-32" x="179.199219"/>
      </g>
     </g>
    </g>
    <g id="ytick_8">
     <g id="line2d_42">
      <path d="M 170.340091 280.073982 
L 462.70916 280.073982 
" clip-path="url(#pd29e4f7cd8)" style="fill: none; stroke: #ffffff; stroke-linecap: round"/>
     </g>
     <g id="text_18">
      <!-- 0.0 -->
      <g style="fill: #262626" transform="translate(124.103872 288.850177) scale(0.231 -0.231)">
       <use xlink:href="#DejaVuSans-30"/>
       <use xlink:href="#DejaVuSans-2e" x="63.623047"/>
       <use xlink:href="#DejaVuSans-30" x="95.410156"/>
      </g>
     </g>
    </g>
    <g id="text_19">
     <!-- % change -->
     <g style="fill: #262626" transform="translate(95.505982 384.554344) rotate(-90) scale(0.252 -0.252)">
      <use xlink:href="#DejaVuSans-25"/>
      <use xlink:href="#DejaVuSans-20" x="95.019531"/>
      <use xlink:href="#DejaVuSans-63" x="126.806641"/>
      <use xlink:href="#DejaVuSans-68" x="181.787109"/>
      <use xlink:href="#DejaVuSans-61" x="245.166016"/>
      <use xlink:href="#DejaVuSans-6e" x="306.445312"/>
      <use xlink:href="#DejaVuSans-67" x="369.824219"/>
      <use xlink:href="#DejaVuSans-65" x="433.300781"/>
     </g>
    </g>
   </g>
   <g id="PolyCollection_19"/>
   <g id="PolyCollection_20"/>
   <g id="PolyCollection_21"/>
   <g id="PolyCollection_22"/>
   <g id="PolyCollection_23"/>
   <g id="PolyCollection_24"/>
   <g id="line2d_43">
    <path d="M 183.629594 280.073982 
L 183.99419 358.5744 
L 184.358785 361.365819 
L 184.723381 362.11307 
L 185.087976 362.297731 
L 186.181762 362.276666 
L 189.098526 361.99819 
L 189.827716 360.894747 
L 194.202861 353.642273 
L 197.848816 348.055749 
L 201.49477 342.860862 
L 205.140724 338.028379 
L 209.151274 333.100568 
L 213.161823 328.548838 
L 217.172373 324.344424 
L 221.182923 320.46039 
L 225.193472 316.87466 
L 229.568617 313.280267 
L 233.943763 309.98377 
L 238.318908 306.964986 
L 243.058648 303.979685 
L 247.798389 301.261816 
L 252.538129 298.787504 
L 257.642465 296.376981 
L 263.111396 294.120518 
L 268.580328 292.10887 
L 274.413854 290.216941 
L 280.611977 288.43518 
L 287.174694 286.776023 
L 294.102007 285.248148 
L 301.758511 283.791479 
L 309.77961 282.490859 
L 318.529901 281.295558 
L 322.54045 280.898961 
L 333.842908 280.110121 
L 345.145366 279.51121 
L 383.06329 279.626155 
L 449.419657 279.420313 
L 449.419657 279.420313 
" clip-path="url(#pd29e4f7cd8)" style="fill: none; stroke: #4c72b0; stroke-opacity: 0.9; stroke-width: 3; stroke-linecap: round"/>
   </g>
   <g id="line2d_44">
    <path d="M 183.629594 280.073982 
L 183.99419 356.317777 
L 184.358785 359.575087 
L 184.723381 360.703612 
L 185.087976 361.101231 
L 185.817167 361.260469 
L 188.004739 361.115863 
L 189.098526 361.025042 
L 189.827716 360.024999 
L 196.025839 350.13975 
L 199.671793 344.851814 
L 203.317747 339.933788 
L 206.963701 335.358583 
L 210.974251 330.694381 
L 214.984801 326.387473 
L 218.99535 322.409921 
L 223.0059 318.736291 
L 227.01645 315.343022 
L 231.391595 311.935973 
L 235.76674 308.811617 
L 240.141885 305.947022 
L 244.881625 303.119798 
L 249.621366 300.545473 
L 254.725702 298.030213 
L 259.830038 295.760348 
L 265.298969 293.575827 
L 270.7679 291.624937 
L 276.236832 289.953709 
L 282.799549 288.206125 
L 289.726862 286.594922 
L 297.018771 285.125329 
L 305.03987 283.739908 
L 313.79016 282.465287 
L 322.175855 281.45602 
L 329.467763 280.873717 
L 342.593198 280.079022 
L 349.520511 279.814236 
L 369.937855 279.670905 
L 397.282512 279.5719 
L 405.668207 279.592015 
L 449.419657 279.399511 
L 449.419657 279.399511 
" clip-path="url(#pd29e4f7cd8)" style="fill: none; stroke: #dd8452; stroke-opacity: 0.9; stroke-width: 3; stroke-linecap: round"/>
   </g>
   <g id="line2d_45">
    <path d="M 183.629594 280.073982 
L 183.99419 362.615222 
L 184.358785 367.125959 
L 184.723381 368.270661 
L 185.087976 368.575342 
L 185.817167 368.633389 
L 189.098526 368.289024 
L 189.827716 367.088073 
L 194.202861 359.247587 
L 197.848816 353.208759 
L 201.49477 347.595571 
L 205.140724 342.380358 
L 208.786678 337.534865 
L 212.797228 332.593057 
L 216.807778 328.027059 
L 220.818327 323.809667 
L 224.828877 319.913247 
L 228.839427 316.312917 
L 233.214572 312.69753 
L 237.589717 309.385942 
L 241.964862 306.352347 
L 246.340007 303.574217 
L 251.079747 300.831053 
L 255.819488 298.340977 
L 260.923824 295.921154 
L 266.02816 293.740822 
L 271.497091 291.647666 
L 277.330618 289.662999 
L 282.799549 288.026785 
L 288.997671 286.406814 
L 295.924984 284.854208 
L 303.216893 283.447588 
L 311.237992 282.127667 
L 319.623687 280.969352 
L 325.457214 280.391228 
L 333.478313 279.815687 
L 340.04103 279.597227 
L 350.614298 279.614034 
L 449.419657 279.573474 
L 449.419657 279.573474 
" clip-path="url(#pd29e4f7cd8)" style="fill: none; stroke: #55a868; stroke-opacity: 0.9; stroke-width: 3; stroke-linecap: round"/>
   </g>
   <g id="line2d_46">
    <path d="M 183.629594 280.073982 
L 183.99419 359.887306 
L 184.358785 364.346643 
L 184.723381 365.459546 
L 185.087976 365.749679 
L 185.817167 365.804314 
L 189.098526 365.481836 
L 189.827716 364.331664 
L 194.567457 356.153664 
L 198.213411 350.357797 
L 201.859365 344.969213 
L 205.50532 339.957007 
L 209.151274 335.294266 
L 213.161823 330.539111 
L 217.172373 326.146402 
L 221.182923 322.088664 
L 225.193472 318.340478 
L 229.204022 314.877962 
L 233.579167 311.401415 
L 237.954312 308.215071 
L 242.329457 305.296991 
L 247.069198 302.410596 
L 251.808938 299.793524 
L 256.548679 297.420617 
L 261.653015 295.113269 
L 266.757351 293.041428 
L 272.226282 291.054465 
L 278.059809 289.178934 
L 283.893335 287.528712 
L 290.456053 285.916968 
L 296.654175 284.60723 
L 304.310679 283.213576 
L 312.696374 281.921985 
L 320.717473 280.899753 
L 327.280191 280.31135 
L 334.207504 279.890769 
L 341.134817 279.717101 
L 372.125428 279.599511 
L 403.480634 279.562032 
L 449.419657 279.562779 
L 449.419657 279.562779 
" clip-path="url(#pd29e4f7cd8)" style="fill: none; stroke: #c44e52; stroke-opacity: 0.9; stroke-width: 3; stroke-linecap: round"/>
   </g>
   <g id="line2d_47">
    <path d="M 183.629594 280.073982 
L 183.99419 361.453613 
L 184.358785 365.054324 
L 184.723381 365.663066 
L 185.452571 365.760979 
L 189.098526 365.413282 
L 190.556907 362.88026 
L 194.202861 356.634297 
L 197.848816 350.829329 
L 201.49477 345.432609 
L 205.140724 340.414256 
L 208.786678 335.746471 
L 212.797228 330.987043 
L 216.807778 326.590948 
L 220.818327 322.529834 
L 224.828877 318.777274 
L 228.839427 315.309225 
L 233.214572 311.824389 
L 237.589717 308.625677 
L 241.964862 305.68962 
L 246.704602 302.780586 
L 251.444343 300.129017 
L 256.548679 297.535369 
L 261.653015 295.188117 
L 267.121946 292.929354 
L 272.955473 290.773221 
L 278.789 288.851131 
L 284.622526 287.157732 
L 291.185244 285.496962 
L 298.477152 283.889132 
L 306.133656 282.434613 
L 314.154755 281.134088 
L 319.988282 280.378166 
L 328.009382 279.596029 
L 336.759672 279.041227 
L 346.239153 278.628557 
L 361.55216 278.193446 
L 369.57326 278.146675 
L 382.334099 278.544928 
L 402.751443 278.893036 
L 435.200436 279.158962 
L 449.419657 279.178748 
L 449.419657 279.178748 
" clip-path="url(#pd29e4f7cd8)" style="fill: none; stroke: #8172b3; stroke-opacity: 0.9; stroke-width: 3; stroke-linecap: round"/>
   </g>
   <g id="line2d_48">
    <path d="M 183.629594 280.073982 
L 183.99419 359.591041 
L 184.358785 362.585394 
L 184.723381 363.150766 
L 185.452571 363.241904 
L 189.098526 362.917993 
L 190.556907 360.465055 
L 194.202861 354.416345 
L 197.848816 348.795291 
L 201.49477 343.570741 
L 205.140724 338.713857 
L 208.786678 334.198323 
L 212.797228 329.596362 
L 216.807778 325.347193 
L 220.818327 321.423022 
L 224.828877 317.798455 
L 229.204022 314.158682 
L 233.579167 310.82035 
L 237.954312 307.75776 
L 242.694053 304.724037 
L 247.433793 301.960194 
L 252.173534 299.444112 
L 257.27787 296.989908 
L 262.746801 294.620301 
L 268.215732 292.492704 
L 274.049259 290.462036 
L 280.247381 288.545871 
L 286.445503 286.881749 
L 293.372816 285.251918 
L 300.664725 283.768321 
L 308.685824 282.368158 
L 316.706923 281.18855 
L 323.269641 280.423635 
L 332.384527 279.767929 
L 346.603748 279.035942 
L 357.906206 278.660378 
L 366.656496 278.522743 
L 398.740894 278.95639 
L 430.0961 279.012986 
L 446.138298 279.139851 
L 449.419657 279.148643 
L 449.419657 279.148643 
" clip-path="url(#pd29e4f7cd8)" style="fill: none; stroke: #937860; stroke-opacity: 0.9; stroke-width: 3; stroke-linecap: round"/>
   </g>
   <g id="patch_12">
    <path d="M 170.340091 373.284 
L 170.340091 271.128 
" style="fill: none; stroke: #ffffff; stroke-width: 1.25; stroke-linejoin: miter; stroke-linecap: square"/>
   </g>
   <g id="patch_13">
    <path d="M 170.340091 373.284 
L 462.70916 373.284 
" style="fill: none; stroke: #ffffff; stroke-width: 1.25; stroke-linejoin: miter; stroke-linecap: square"/>
   </g>
   <g id="text_20">
    <!-- 0.85~365 -->
    <g style="fill: #262626" transform="translate(253.861282 265.128) scale(0.252 -0.252)">
     <use xlink:href="#DejaVuSans-30"/>
     <use xlink:href="#DejaVuSans-2e" x="63.623047"/>
     <use xlink:href="#DejaVuSans-38" x="95.410156"/>
     <use xlink:href="#DejaVuSans-35" x="159.033203"/>
     <use xlink:href="#DejaVuSans-7e" x="222.65625"/>
     <use xlink:href="#DejaVuSans-33" x="306.445312"/>
     <use xlink:href="#DejaVuSans-36" x="370.068359"/>
     <use xlink:href="#DejaVuSans-35" x="433.691406"/>
    </g>
   </g>
  </g>
  <g id="axes_5">
   <g id="patch_14">
    <path d="M 489.290298 373.284 
L 781.659367 373.284 
L 781.659367 271.128 
L 489.290298 271.128 
z
" style="fill: #eaeaf2"/>
   </g>
   <g id="matplotlib.axis_9">
    <g id="xtick_17">
     <g id="line2d_49">
      <path d="M 502.579801 373.284 
L 502.579801 271.128 
" clip-path="url(#p9153305587)" style="fill: none; stroke: #ffffff; stroke-linecap: round"/>
     </g>
     <g id="text_21">
      <!-- 0 -->
      <g style="fill: #262626" transform="translate(495.231113 400.336391) scale(0.231 -0.231)">
       <use xlink:href="#DejaVuSans-30"/>
      </g>
     </g>
    </g>
    <g id="xtick_18">
     <g id="line2d_50">
      <path d="M 593.728656 373.284 
L 593.728656 271.128 
" clip-path="url(#p9153305587)" style="fill: none; stroke: #ffffff; stroke-linecap: round"/>
     </g>
     <g id="text_22">
      <!-- 250 -->
      <g style="fill: #262626" transform="translate(571.682594 400.336391) scale(0.231 -0.231)">
       <use xlink:href="#DejaVuSans-32"/>
       <use xlink:href="#DejaVuSans-35" x="63.623047"/>
       <use xlink:href="#DejaVuSans-30" x="127.246094"/>
      </g>
     </g>
    </g>
    <g id="xtick_19">
     <g id="line2d_51">
      <path d="M 684.877512 373.284 
L 684.877512 271.128 
" clip-path="url(#p9153305587)" style="fill: none; stroke: #ffffff; stroke-linecap: round"/>
     </g>
     <g id="text_23">
      <!-- 500 -->
      <g style="fill: #262626" transform="translate(662.83145 400.336391) scale(0.231 -0.231)">
       <use xlink:href="#DejaVuSans-35"/>
       <use xlink:href="#DejaVuSans-30" x="63.623047"/>
       <use xlink:href="#DejaVuSans-30" x="127.246094"/>
      </g>
     </g>
    </g>
    <g id="xtick_20">
     <g id="line2d_52">
      <path d="M 776.026368 373.284 
L 776.026368 271.128 
" clip-path="url(#p9153305587)" style="fill: none; stroke: #ffffff; stroke-linecap: round"/>
     </g>
     <g id="text_24">
      <!-- 750 -->
      <g style="fill: #262626" transform="translate(753.980305 400.336391) scale(0.231 -0.231)">
       <use xlink:href="#DejaVuSans-37"/>
       <use xlink:href="#DejaVuSans-35" x="63.623047"/>
       <use xlink:href="#DejaVuSans-30" x="127.246094"/>
      </g>
     </g>
    </g>
    <g id="text_25">
     <!-- step -->
     <g style="fill: #262626" transform="translate(608.219457 428.288531) scale(0.252 -0.252)">
      <use xlink:href="#DejaVuSans-73"/>
      <use xlink:href="#DejaVuSans-74" x="52.099609"/>
      <use xlink:href="#DejaVuSans-65" x="91.308594"/>
      <use xlink:href="#DejaVuSans-70" x="152.832031"/>
     </g>
    </g>
   </g>
   <g id="matplotlib.axis_10">
    <g id="ytick_9">
     <g id="line2d_53">
      <path d="M 489.290298 337.379269 
L 781.659367 337.379269 
" clip-path="url(#p9153305587)" style="fill: none; stroke: #ffffff; stroke-linecap: round"/>
     </g>
    </g>
    <g id="ytick_10">
     <g id="line2d_54">
      <path d="M 489.290298 280.073982 
L 781.659367 280.073982 
" clip-path="url(#p9153305587)" style="fill: none; stroke: #ffffff; stroke-linecap: round"/>
     </g>
    </g>
   </g>
   <g id="PolyCollection_25"/>
   <g id="PolyCollection_26"/>
   <g id="PolyCollection_27"/>
   <g id="PolyCollection_28"/>
   <g id="PolyCollection_29"/>
   <g id="PolyCollection_30"/>
   <g id="line2d_55">
    <path d="M 502.579801 280.073982 
L 502.944396 358.5744 
L 503.308992 361.27864 
L 503.673587 361.924779 
L 504.038182 362.004743 
L 505.131969 361.667365 
L 508.048732 360.554259 
L 509.142518 358.523234 
L 512.788473 351.508713 
L 516.434427 345.003032 
L 520.080381 338.964479 
L 523.726335 333.377179 
L 527.372289 328.203821 
L 531.018244 323.396947 
L 534.664198 318.93221 
L 537.945557 315.228428 
L 541.956106 311.151016 
L 545.966656 307.391787 
L 549.248015 304.581508 
L 553.62316 301.140152 
L 557.998305 297.995355 
L 562.37345 295.122872 
L 566.748595 292.501612 
L 571.488336 289.92316 
L 576.228076 287.591341 
L 581.332412 285.331734 
L 585.707557 283.617907 
L 588.62432 282.784661 
L 594.457847 281.388321 
L 601.38516 279.95127 
L 602.843542 279.749663 
L 617.062763 278.90458 
L 622.89629 278.671103 
L 636.021725 278.438901 
L 658.262046 277.964121 
L 682.325344 277.7144 
L 696.909161 277.833427 
L 722.430841 277.82804 
L 768.369864 277.734162 
L 768.369864 277.734162 
" clip-path="url(#p9153305587)" style="fill: none; stroke: #4c72b0; stroke-opacity: 0.9; stroke-width: 3; stroke-linecap: round"/>
   </g>
   <g id="line2d_56">
    <path d="M 502.579801 280.073982 
L 502.944396 356.317777 
L 503.308992 359.503578 
L 503.673587 360.548297 
L 504.038182 360.857886 
L 504.767373 360.837869 
L 506.954946 360.156699 
L 508.048732 359.800715 
L 508.777923 358.62438 
L 514.246854 348.629906 
L 517.892809 342.544775 
L 521.538763 336.893767 
L 525.184717 331.639354 
L 528.830671 326.757237 
L 532.476625 322.238417 
L 536.487175 317.636601 
L 540.133129 313.778683 
L 544.143679 309.858228 
L 547.425038 306.911886 
L 551.435587 303.690736 
L 555.081542 301.025898 
L 559.456687 298.128334 
L 564.196427 295.267876 
L 568.936168 292.671848 
L 573.675908 290.319048 
L 578.780244 288.031574 
L 584.249175 285.838387 
L 587.89513 284.561408 
L 591.176488 283.675066 
L 598.103801 282.104489 
L 604.301924 280.907821 
L 615.604382 279.959144 
L 627.636031 279.098705 
L 637.844703 278.604335 
L 651.699329 278.244598 
L 657.532855 278.295141 
L 674.66884 277.874658 
L 697.638352 277.513892 
L 711.492978 277.482238 
L 726.44139 277.419526 
L 757.432001 277.383711 
L 768.369864 277.430977 
L 768.369864 277.430977 
" clip-path="url(#p9153305587)" style="fill: none; stroke: #dd8452; stroke-opacity: 0.9; stroke-width: 3; stroke-linecap: round"/>
   </g>
   <g id="line2d_57">
    <path d="M 502.579801 280.073982 
L 502.944396 362.615222 
L 503.308992 367.032058 
L 503.673587 368.067084 
L 504.038182 368.257974 
L 504.767373 368.086527 
L 508.048732 366.718416 
L 509.142518 364.510932 
L 512.788473 356.90804 
L 516.434427 349.856939 
L 520.080381 343.333833 
L 523.726335 337.280659 
L 527.372289 331.666713 
L 531.018244 326.449701 
L 534.664198 321.618196 
L 538.310152 317.141484 
L 541.591511 313.450559 
L 545.602061 309.281466 
L 549.61261 305.530218 
L 553.987755 301.818921 
L 558.3629 298.419224 
L 563.102641 295.057609 
L 567.477786 292.306975 
L 572.217526 289.581059 
L 577.321862 286.93893 
L 582.061603 284.7089 
L 586.072153 283.036971 
L 589.718107 281.859596 
L 593.364061 280.86 
L 597.374611 279.981805 
L 601.020565 279.422944 
L 604.301924 279.098062 
L 613.416809 278.693315 
L 624.719267 278.375216 
L 634.563344 278.266404 
L 662.272596 278.176725 
L 679.408581 278.178747 
L 768.369864 278.049285 
L 768.369864 278.049285 
" clip-path="url(#p9153305587)" style="fill: none; stroke: #55a868; stroke-opacity: 0.9; stroke-width: 3; stroke-linecap: round"/>
   </g>
   <g id="line2d_58">
    <path d="M 502.579801 280.073982 
L 502.944396 359.887306 
L 503.308992 364.256699 
L 503.673587 365.264075 
L 504.038182 365.444767 
L 504.767373 365.278407 
L 508.048732 363.969709 
L 509.142518 361.847914 
L 512.788473 354.502292 
L 516.434427 347.685573 
L 520.080381 341.363237 
L 523.726335 335.491148 
L 527.372289 330.038583 
L 531.018244 324.976647 
L 533.935007 321.25889 
L 537.580961 316.991801 
L 541.591511 312.655743 
L 545.602061 308.642954 
L 548.883419 305.630562 
L 552.893969 302.281315 
L 557.269114 298.884167 
L 562.008855 295.509834 
L 565.654809 293.171533 
L 570.029954 290.604341 
L 574.769694 288.134055 
L 580.238626 285.543215 
L 584.978366 283.521804 
L 587.89513 282.48565 
L 591.905679 281.344642 
L 595.916229 280.460361 
L 600.291374 279.777447 
L 604.301924 279.393681 
L 612.687618 278.924726 
L 622.531695 278.565725 
L 633.469557 278.418225 
L 653.15771 278.245633 
L 714.045146 278.052605 
L 768.369864 277.948094 
L 768.369864 277.948094 
" clip-path="url(#p9153305587)" style="fill: none; stroke: #c44e52; stroke-opacity: 0.9; stroke-width: 3; stroke-linecap: round"/>
   </g>
   <g id="line2d_59">
    <path d="M 502.579801 280.073982 
L 502.944396 361.453613 
L 503.308992 364.954019 
L 503.673587 365.455341 
L 504.402778 365.336268 
L 508.048732 363.915705 
L 509.871709 360.216617 
L 513.517663 353.046392 
L 517.163618 346.398788 
L 520.809572 340.230254 
L 524.455526 334.503051 
L 528.10148 329.184705 
L 531.747435 324.245098 
L 535.393389 319.658648 
L 539.403938 314.98611 
L 543.414488 310.679647 
L 547.425038 306.721018 
L 551.435587 303.066083 
L 555.446137 299.694622 
L 559.456687 296.663253 
L 563.831832 293.626496 
L 568.571572 290.622103 
L 573.311313 287.892052 
L 578.051053 285.411106 
L 582.426198 283.340091 
L 586.072153 281.906659 
L 590.811893 280.309 
L 594.822443 279.264508 
L 601.020565 277.934326 
L 606.489496 277.014897 
L 614.146 276.001518 
L 617.062763 275.773618 
L 644.772016 276.295062 
L 672.481268 277.106132 
L 689.981848 277.230904 
L 697.273756 277.421121 
L 710.034596 277.570014 
L 731.910322 277.631839 
L 768.369864 277.621593 
L 768.369864 277.621593 
" clip-path="url(#p9153305587)" style="fill: none; stroke: #8172b3; stroke-opacity: 0.9; stroke-width: 3; stroke-linecap: round"/>
   </g>
   <g id="line2d_60">
    <path d="M 502.579801 280.073982 
L 502.944396 359.591041 
L 503.308992 362.491886 
L 503.673587 362.957398 
L 504.402778 362.846786 
L 508.048732 361.527062 
L 509.871709 357.963457 
L 513.517663 351.06071 
L 517.163618 344.662696 
L 520.809572 338.730819 
L 524.455526 333.228806 
L 528.10148 328.120902 
L 531.747435 323.377553 
L 535.393389 318.979468 
L 539.403938 314.515211 
L 543.414488 310.399336 
L 547.425038 306.603568 
L 551.435587 303.102758 
L 555.081542 300.181795 
L 559.456687 296.987535 
L 563.831832 294.068066 
L 568.206977 291.406348 
L 572.946717 288.776895 
L 578.051053 286.213972 
L 582.790794 284.082381 
L 586.801343 282.502663 
L 589.353511 281.7046 
L 595.187038 280.236161 
L 602.114351 278.827685 
L 608.677069 277.705154 
L 614.510595 276.921048 
L 617.427359 276.676029 
L 625.448458 276.541827 
L 633.834153 276.545042 
L 666.647741 276.604121 
L 677.221008 277.062995 
L 694.721588 277.14252 
L 705.659451 277.263061 
L 727.170581 277.410406 
L 768.369864 277.403123 
L 768.369864 277.403123 
" clip-path="url(#p9153305587)" style="fill: none; stroke: #937860; stroke-opacity: 0.9; stroke-width: 3; stroke-linecap: round"/>
   </g>
   <g id="patch_15">
    <path d="M 489.290298 373.284 
L 489.290298 271.128 
" style="fill: none; stroke: #ffffff; stroke-width: 1.25; stroke-linejoin: miter; stroke-linecap: square"/>
   </g>
   <g id="patch_16">
    <path d="M 489.290298 373.284 
L 781.659367 373.284 
" style="fill: none; stroke: #ffffff; stroke-width: 1.25; stroke-linejoin: miter; stroke-linecap: square"/>
   </g>
   <g id="text_26">
    <!-- 0.95~90 -->
    <g style="fill: #262626" transform="translate(580.828239 265.128) scale(0.252 -0.252)">
     <use xlink:href="#DejaVuSans-30"/>
     <use xlink:href="#DejaVuSans-2e" x="63.623047"/>
     <use xlink:href="#DejaVuSans-39" x="95.410156"/>
     <use xlink:href="#DejaVuSans-35" x="159.033203"/>
     <use xlink:href="#DejaVuSans-7e" x="222.65625"/>
     <use xlink:href="#DejaVuSans-39" x="306.445312"/>
     <use xlink:href="#DejaVuSans-30" x="370.068359"/>
    </g>
   </g>
  </g>
  <g id="text_27">
   <!-- Production change from pre-shock level -->
   <g style="fill: #262626" transform="translate(280.766836 30.177675) scale(0.3024 -0.3024)">
    <defs>
     <path id="DejaVuSans-50" d="M 1259 4147 
L 1259 2394 
L 2053 2394 
Q 2494 2394 2734 2622 
Q 2975 2850 2975 3272 
Q 2975 3691 2734 3919 
Q 2494 4147 2053 4147 
L 1259 4147 
z
M 628 4666 
L 2053 4666 
Q 2838 4666 3239 4311 
Q 3641 3956 3641 3272 
Q 3641 2581 3239 2228 
Q 2838 1875 2053 1875 
L 1259 1875 
L 1259 0 
L 628 0 
L 628 4666 
z
" transform="scale(0.015625)"/>
     <path id="DejaVuSans-72" d="M 2631 2963 
Q 2534 3019 2420 3045 
Q 2306 3072 2169 3072 
Q 1681 3072 1420 2755 
Q 1159 2438 1159 1844 
L 1159 0 
L 581 0 
L 581 3500 
L 1159 3500 
L 1159 2956 
Q 1341 3275 1631 3429 
Q 1922 3584 2338 3584 
Q 2397 3584 2469 3576 
Q 2541 3569 2628 3553 
L 2631 2963 
z
" transform="scale(0.015625)"/>
     <path id="DejaVuSans-6f" d="M 1959 3097 
Q 1497 3097 1228 2736 
Q 959 2375 959 1747 
Q 959 1119 1226 758 
Q 1494 397 1959 397 
Q 2419 397 2687 759 
Q 2956 1122 2956 1747 
Q 2956 2369 2687 2733 
Q 2419 3097 1959 3097 
z
M 1959 3584 
Q 2709 3584 3137 3096 
Q 3566 2609 3566 1747 
Q 3566 888 3137 398 
Q 2709 -91 1959 -91 
Q 1206 -91 779 398 
Q 353 888 353 1747 
Q 353 2609 779 3096 
Q 1206 3584 1959 3584 
z
" transform="scale(0.015625)"/>
     <path id="DejaVuSans-64" d="M 2906 2969 
L 2906 4863 
L 3481 4863 
L 3481 0 
L 2906 0 
L 2906 525 
Q 2725 213 2448 61 
Q 2172 -91 1784 -91 
Q 1150 -91 751 415 
Q 353 922 353 1747 
Q 353 2572 751 3078 
Q 1150 3584 1784 3584 
Q 2172 3584 2448 3432 
Q 2725 3281 2906 2969 
z
M 947 1747 
Q 947 1113 1208 752 
Q 1469 391 1925 391 
Q 2381 391 2643 752 
Q 2906 1113 2906 1747 
Q 2906 2381 2643 2742 
Q 2381 3103 1925 3103 
Q 1469 3103 1208 2742 
Q 947 2381 947 1747 
z
" transform="scale(0.015625)"/>
     <path id="DejaVuSans-75" d="M 544 1381 
L 544 3500 
L 1119 3500 
L 1119 1403 
Q 1119 906 1312 657 
Q 1506 409 1894 409 
Q 2359 409 2629 706 
Q 2900 1003 2900 1516 
L 2900 3500 
L 3475 3500 
L 3475 0 
L 2900 0 
L 2900 538 
Q 2691 219 2414 64 
Q 2138 -91 1772 -91 
Q 1169 -91 856 284 
Q 544 659 544 1381 
z
M 1991 3584 
L 1991 3584 
z
" transform="scale(0.015625)"/>
     <path id="DejaVuSans-69" d="M 603 3500 
L 1178 3500 
L 1178 0 
L 603 0 
L 603 3500 
z
M 603 4863 
L 1178 4863 
L 1178 4134 
L 603 4134 
L 603 4863 
z
" transform="scale(0.015625)"/>
     <path id="DejaVuSans-66" d="M 2375 4863 
L 2375 4384 
L 1825 4384 
Q 1516 4384 1395 4259 
Q 1275 4134 1275 3809 
L 1275 3500 
L 2222 3500 
L 2222 3053 
L 1275 3053 
L 1275 0 
L 697 0 
L 697 3053 
L 147 3053 
L 147 3500 
L 697 3500 
L 697 3744 
Q 697 4328 969 4595 
Q 1241 4863 1831 4863 
L 2375 4863 
z
" transform="scale(0.015625)"/>
     <path id="DejaVuSans-6d" d="M 3328 2828 
Q 3544 3216 3844 3400 
Q 4144 3584 4550 3584 
Q 5097 3584 5394 3201 
Q 5691 2819 5691 2113 
L 5691 0 
L 5113 0 
L 5113 2094 
Q 5113 2597 4934 2840 
Q 4756 3084 4391 3084 
Q 3944 3084 3684 2787 
Q 3425 2491 3425 1978 
L 3425 0 
L 2847 0 
L 2847 2094 
Q 2847 2600 2669 2842 
Q 2491 3084 2119 3084 
Q 1678 3084 1418 2786 
Q 1159 2488 1159 1978 
L 1159 0 
L 581 0 
L 581 3500 
L 1159 3500 
L 1159 2956 
Q 1356 3278 1631 3431 
Q 1906 3584 2284 3584 
Q 2666 3584 2933 3390 
Q 3200 3197 3328 2828 
z
" transform="scale(0.015625)"/>
     <path id="DejaVuSans-2d" d="M 313 2009 
L 1997 2009 
L 1997 1497 
L 313 1497 
L 313 2009 
z
" transform="scale(0.015625)"/>
     <path id="DejaVuSans-6b" d="M 581 4863 
L 1159 4863 
L 1159 1991 
L 2875 3500 
L 3609 3500 
L 1753 1863 
L 3688 0 
L 2938 0 
L 1159 1709 
L 1159 0 
L 581 0 
L 581 4863 
z
" transform="scale(0.015625)"/>
     <path id="DejaVuSans-6c" d="M 603 4863 
L 1178 4863 
L 1178 0 
L 603 0 
L 603 4863 
z
" transform="scale(0.015625)"/>
     <path id="DejaVuSans-76" d="M 191 3500 
L 800 3500 
L 1894 563 
L 2988 3500 
L 3597 3500 
L 2284 0 
L 1503 0 
L 191 3500 
z
" transform="scale(0.015625)"/>
    </defs>
    <use xlink:href="#DejaVuSans-50"/>
    <use xlink:href="#DejaVuSans-72" x="58.552734"/>
    <use xlink:href="#DejaVuSans-6f" x="97.416016"/>
    <use xlink:href="#DejaVuSans-64" x="158.597656"/>
    <use xlink:href="#DejaVuSans-75" x="222.074219"/>
    <use xlink:href="#DejaVuSans-63" x="285.453125"/>
    <use xlink:href="#DejaVuSans-74" x="340.433594"/>
    <use xlink:href="#DejaVuSans-69" x="379.642578"/>
    <use xlink:href="#DejaVuSans-6f" x="407.425781"/>
    <use xlink:href="#DejaVuSans-6e" x="468.607422"/>
    <use xlink:href="#DejaVuSans-20" x="531.986328"/>
    <use xlink:href="#DejaVuSans-63" x="563.773438"/>
    <use xlink:href="#DejaVuSans-68" x="618.753906"/>
    <use xlink:href="#DejaVuSans-61" x="682.132812"/>
    <use xlink:href="#DejaVuSans-6e" x="743.412109"/>
    <use xlink:href="#DejaVuSans-67" x="806.791016"/>
    <use xlink:href="#DejaVuSans-65" x="870.267578"/>
    <use xlink:href="#DejaVuSans-20" x="931.791016"/>
    <use xlink:href="#DejaVuSans-66" x="963.578125"/>
    <use xlink:href="#DejaVuSans-72" x="998.783203"/>
    <use xlink:href="#DejaVuSans-6f" x="1037.646484"/>
    <use xlink:href="#DejaVuSans-6d" x="1098.828125"/>
    <use xlink:href="#DejaVuSans-20" x="1196.240234"/>
    <use xlink:href="#DejaVuSans-70" x="1228.027344"/>
    <use xlink:href="#DejaVuSans-72" x="1291.503906"/>
    <use xlink:href="#DejaVuSans-65" x="1330.367188"/>
    <use xlink:href="#DejaVuSans-2d" x="1391.890625"/>
    <use xlink:href="#DejaVuSans-73" x="1427.974609"/>
    <use xlink:href="#DejaVuSans-68" x="1480.074219"/>
    <use xlink:href="#DejaVuSans-6f" x="1543.453125"/>
    <use xlink:href="#DejaVuSans-63" x="1604.634766"/>
    <use xlink:href="#DejaVuSans-6b" x="1659.615234"/>
    <use xlink:href="#DejaVuSans-20" x="1717.525391"/>
    <use xlink:href="#DejaVuSans-6c" x="1749.3125"/>
    <use xlink:href="#DejaVuSans-65" x="1777.095703"/>
    <use xlink:href="#DejaVuSans-76" x="1838.619141"/>
    <use xlink:href="#DejaVuSans-65" x="1897.798828"/>
    <use xlink:href="#DejaVuSans-6c" x="1959.322266"/>
   </g>
  </g>
  <g id="legend_1">
   <g id="patch_17">
    <path d="M 11.82 584.31675 
L 1292.617547 584.31675 
Q 1297.237547 584.31675 1297.237547 579.69675 
L 1297.237547 476.97 
Q 1297.237547 472.35 1292.617547 472.35 
L 11.82 472.35 
Q 7.2 472.35 7.2 476.97 
L 7.2 579.69675 
Q 7.2 584.31675 11.82 584.31675 
z
" style="fill: #eaeaf2; opacity: 0.8; stroke: #cccccc; stroke-linejoin: miter"/>
   </g>
   <g id="text_28">
    <!-- Experiences -->
    <g style="fill: #262626" transform="translate(575.384367 500.738062) scale(0.252 -0.252)">
     <defs>
      <path id="DejaVuSans-45" d="M 628 4666 
L 3578 4666 
L 3578 4134 
L 1259 4134 
L 1259 2753 
L 3481 2753 
L 3481 2222 
L 1259 2222 
L 1259 531 
L 3634 531 
L 3634 0 
L 628 0 
L 628 4666 
z
" transform="scale(0.015625)"/>
      <path id="DejaVuSans-78" d="M 3513 3500 
L 2247 1797 
L 3578 0 
L 2900 0 
L 1881 1375 
L 863 0 
L 184 0 
L 1544 1831 
L 300 3500 
L 978 3500 
L 1906 2253 
L 2834 3500 
L 3513 3500 
z
" transform="scale(0.015625)"/>
     </defs>
     <use xlink:href="#DejaVuSans-45"/>
     <use xlink:href="#DejaVuSans-78" x="63.183594"/>
     <use xlink:href="#DejaVuSans-70" x="122.363281"/>
     <use xlink:href="#DejaVuSans-65" x="185.839844"/>
     <use xlink:href="#DejaVuSans-72" x="247.363281"/>
     <use xlink:href="#DejaVuSans-69" x="288.476562"/>
     <use xlink:href="#DejaVuSans-65" x="316.259766"/>
     <use xlink:href="#DejaVuSans-6e" x="377.783203"/>
     <use xlink:href="#DejaVuSans-63" x="441.162109"/>
     <use xlink:href="#DejaVuSans-65" x="496.142578"/>
     <use xlink:href="#DejaVuSans-73" x="557.666016"/>
    </g>
   </g>
   <g id="line2d_61">
    <path d="M 16.44 526.996266 
L 39.54 526.996266 
L 62.64 526.996266 
" style="fill: none; stroke: #4c72b0; stroke-opacity: 0.9; stroke-width: 3; stroke-linecap: round"/>
   </g>
   <g id="text_29">
    <!-- eora26_full_2000 -->
    <g style="fill: #262626" transform="translate(81.12 535.081266) scale(0.231 -0.231)">
     <defs>
      <path id="DejaVuSans-5f" d="M 3263 -1063 
L 3263 -1509 
L -63 -1509 
L -63 -1063 
L 3263 -1063 
z
" transform="scale(0.015625)"/>
     </defs>
     <use xlink:href="#DejaVuSans-65"/>
     <use xlink:href="#DejaVuSans-6f" x="61.523438"/>
     <use xlink:href="#DejaVuSans-72" x="122.705078"/>
     <use xlink:href="#DejaVuSans-61" x="163.818359"/>
     <use xlink:href="#DejaVuSans-32" x="225.097656"/>
     <use xlink:href="#DejaVuSans-36" x="288.720703"/>
     <use xlink:href="#DejaVuSans-5f" x="352.34375"/>
     <use xlink:href="#DejaVuSans-66" x="402.34375"/>
     <use xlink:href="#DejaVuSans-75" x="437.548828"/>
     <use xlink:href="#DejaVuSans-6c" x="500.927734"/>
     <use xlink:href="#DejaVuSans-6c" x="528.710938"/>
     <use xlink:href="#DejaVuSans-5f" x="556.494141"/>
     <use xlink:href="#DejaVuSans-32" x="606.494141"/>
     <use xlink:href="#DejaVuSans-30" x="670.117188"/>
     <use xlink:href="#DejaVuSans-30" x="733.740234"/>
     <use xlink:href="#DejaVuSans-30" x="797.363281"/>
    </g>
   </g>
   <g id="line2d_62">
    <path d="M 16.44 561.545203 
L 39.54 561.545203 
L 62.64 561.545203 
" style="fill: none; stroke: #dd8452; stroke-opacity: 0.9; stroke-width: 3; stroke-linecap: round"/>
   </g>
   <g id="text_30">
    <!-- eora26_full_2010 -->
    <g style="fill: #262626" transform="translate(81.12 569.630203) scale(0.231 -0.231)">
     <defs>
      <path id="DejaVuSans-31" d="M 794 531 
L 1825 531 
L 1825 4091 
L 703 3866 
L 703 4441 
L 1819 4666 
L 2450 4666 
L 2450 531 
L 3481 531 
L 3481 0 
L 794 0 
L 794 531 
z
" transform="scale(0.015625)"/>
     </defs>
     <use xlink:href="#DejaVuSans-65"/>
     <use xlink:href="#DejaVuSans-6f" x="61.523438"/>
     <use xlink:href="#DejaVuSans-72" x="122.705078"/>
     <use xlink:href="#DejaVuSans-61" x="163.818359"/>
     <use xlink:href="#DejaVuSans-32" x="225.097656"/>
     <use xlink:href="#DejaVuSans-36" x="288.720703"/>
     <use xlink:href="#DejaVuSans-5f" x="352.34375"/>
     <use xlink:href="#DejaVuSans-66" x="402.34375"/>
     <use xlink:href="#DejaVuSans-75" x="437.548828"/>
     <use xlink:href="#DejaVuSans-6c" x="500.927734"/>
     <use xlink:href="#DejaVuSans-6c" x="528.710938"/>
     <use xlink:href="#DejaVuSans-5f" x="556.494141"/>
     <use xlink:href="#DejaVuSans-32" x="606.494141"/>
     <use xlink:href="#DejaVuSans-30" x="670.117188"/>
     <use xlink:href="#DejaVuSans-31" x="733.740234"/>
     <use xlink:href="#DejaVuSans-30" x="797.363281"/>
    </g>
   </g>
   <g id="line2d_63">
    <path d="M 326.211 526.996266 
L 349.311 526.996266 
L 372.411 526.996266 
" style="fill: none; stroke: #55a868; stroke-opacity: 0.9; stroke-width: 3; stroke-linecap: round"/>
   </g>
   <g id="text_31">
    <!-- euregio_full_2000 -->
    <g style="fill: #262626" transform="translate(390.891 535.081266) scale(0.231 -0.231)">
     <use xlink:href="#DejaVuSans-65"/>
     <use xlink:href="#DejaVuSans-75" x="61.523438"/>
     <use xlink:href="#DejaVuSans-72" x="124.902344"/>
     <use xlink:href="#DejaVuSans-65" x="163.765625"/>
     <use xlink:href="#DejaVuSans-67" x="225.289062"/>
     <use xlink:href="#DejaVuSans-69" x="288.765625"/>
     <use xlink:href="#DejaVuSans-6f" x="316.548828"/>
     <use xlink:href="#DejaVuSans-5f" x="377.730469"/>
     <use xlink:href="#DejaVuSans-66" x="427.730469"/>
     <use xlink:href="#DejaVuSans-75" x="462.935547"/>
     <use xlink:href="#DejaVuSans-6c" x="526.314453"/>
     <use xlink:href="#DejaVuSans-6c" x="554.097656"/>
     <use xlink:href="#DejaVuSans-5f" x="581.880859"/>
     <use xlink:href="#DejaVuSans-32" x="631.880859"/>
     <use xlink:href="#DejaVuSans-30" x="695.503906"/>
     <use xlink:href="#DejaVuSans-30" x="759.126953"/>
     <use xlink:href="#DejaVuSans-30" x="822.75"/>
    </g>
   </g>
   <g id="line2d_64">
    <path d="M 326.211 561.545203 
L 349.311 561.545203 
L 372.411 561.545203 
" style="fill: none; stroke: #c44e52; stroke-opacity: 0.9; stroke-width: 3; stroke-linecap: round"/>
   </g>
   <g id="text_32">
    <!-- euregio_full_2010 -->
    <g style="fill: #262626" transform="translate(390.891 569.630203) scale(0.231 -0.231)">
     <use xlink:href="#DejaVuSans-65"/>
     <use xlink:href="#DejaVuSans-75" x="61.523438"/>
     <use xlink:href="#DejaVuSans-72" x="124.902344"/>
     <use xlink:href="#DejaVuSans-65" x="163.765625"/>
     <use xlink:href="#DejaVuSans-67" x="225.289062"/>
     <use xlink:href="#DejaVuSans-69" x="288.765625"/>
     <use xlink:href="#DejaVuSans-6f" x="316.548828"/>
     <use xlink:href="#DejaVuSans-5f" x="377.730469"/>
     <use xlink:href="#DejaVuSans-66" x="427.730469"/>
     <use xlink:href="#DejaVuSans-75" x="462.935547"/>
     <use xlink:href="#DejaVuSans-6c" x="526.314453"/>
     <use xlink:href="#DejaVuSans-6c" x="554.097656"/>
     <use xlink:href="#DejaVuSans-5f" x="581.880859"/>
     <use xlink:href="#DejaVuSans-32" x="631.880859"/>
     <use xlink:href="#DejaVuSans-30" x="695.503906"/>
     <use xlink:href="#DejaVuSans-31" x="759.126953"/>
     <use xlink:href="#DejaVuSans-30" x="822.75"/>
    </g>
   </g>
   <g id="line2d_65">
    <path d="M 641.847234 526.996266 
L 664.947234 526.996266 
L 688.047234 526.996266 
" style="fill: none; stroke: #8172b3; stroke-opacity: 0.9; stroke-width: 3; stroke-linecap: round"/>
   </g>
   <g id="text_33">
    <!-- exiobase3_full_2000 -->
    <g style="fill: #262626" transform="translate(706.527234 535.081266) scale(0.231 -0.231)">
     <defs>
      <path id="DejaVuSans-62" d="M 3116 1747 
Q 3116 2381 2855 2742 
Q 2594 3103 2138 3103 
Q 1681 3103 1420 2742 
Q 1159 2381 1159 1747 
Q 1159 1113 1420 752 
Q 1681 391 2138 391 
Q 2594 391 2855 752 
Q 3116 1113 3116 1747 
z
M 1159 2969 
Q 1341 3281 1617 3432 
Q 1894 3584 2278 3584 
Q 2916 3584 3314 3078 
Q 3713 2572 3713 1747 
Q 3713 922 3314 415 
Q 2916 -91 2278 -91 
Q 1894 -91 1617 61 
Q 1341 213 1159 525 
L 1159 0 
L 581 0 
L 581 4863 
L 1159 4863 
L 1159 2969 
z
" transform="scale(0.015625)"/>
     </defs>
     <use xlink:href="#DejaVuSans-65"/>
     <use xlink:href="#DejaVuSans-78" x="59.773438"/>
     <use xlink:href="#DejaVuSans-69" x="118.953125"/>
     <use xlink:href="#DejaVuSans-6f" x="146.736328"/>
     <use xlink:href="#DejaVuSans-62" x="207.917969"/>
     <use xlink:href="#DejaVuSans-61" x="271.394531"/>
     <use xlink:href="#DejaVuSans-73" x="332.673828"/>
     <use xlink:href="#DejaVuSans-65" x="384.773438"/>
     <use xlink:href="#DejaVuSans-33" x="446.296875"/>
     <use xlink:href="#DejaVuSans-5f" x="509.919922"/>
     <use xlink:href="#DejaVuSans-66" x="559.919922"/>
     <use xlink:href="#DejaVuSans-75" x="595.125"/>
     <use xlink:href="#DejaVuSans-6c" x="658.503906"/>
     <use xlink:href="#DejaVuSans-6c" x="686.287109"/>
     <use xlink:href="#DejaVuSans-5f" x="714.070312"/>
     <use xlink:href="#DejaVuSans-32" x="764.070312"/>
     <use xlink:href="#DejaVuSans-30" x="827.693359"/>
     <use xlink:href="#DejaVuSans-30" x="891.316406"/>
     <use xlink:href="#DejaVuSans-30" x="954.939453"/>
    </g>
   </g>
   <g id="line2d_66">
    <path d="M 988.022391 526.996266 
L 1011.122391 526.996266 
L 1034.222391 526.996266 
" style="fill: none; stroke: #937860; stroke-opacity: 0.9; stroke-width: 3; stroke-linecap: round"/>
   </g>
   <g id="text_34">
    <!-- exiobase3_full_2010 -->
    <g style="fill: #262626" transform="translate(1052.702391 535.081266) scale(0.231 -0.231)">
     <use xlink:href="#DejaVuSans-65"/>
     <use xlink:href="#DejaVuSans-78" x="59.773438"/>
     <use xlink:href="#DejaVuSans-69" x="118.953125"/>
     <use xlink:href="#DejaVuSans-6f" x="146.736328"/>
     <use xlink:href="#DejaVuSans-62" x="207.917969"/>
     <use xlink:href="#DejaVuSans-61" x="271.394531"/>
     <use xlink:href="#DejaVuSans-73" x="332.673828"/>
     <use xlink:href="#DejaVuSans-65" x="384.773438"/>
     <use xlink:href="#DejaVuSans-33" x="446.296875"/>
     <use xlink:href="#DejaVuSans-5f" x="509.919922"/>
     <use xlink:href="#DejaVuSans-66" x="559.919922"/>
     <use xlink:href="#DejaVuSans-75" x="595.125"/>
     <use xlink:href="#DejaVuSans-6c" x="658.503906"/>
     <use xlink:href="#DejaVuSans-6c" x="686.287109"/>
     <use xlink:href="#DejaVuSans-5f" x="714.070312"/>
     <use xlink:href="#DejaVuSans-32" x="764.070312"/>
     <use xlink:href="#DejaVuSans-30" x="827.693359"/>
     <use xlink:href="#DejaVuSans-31" x="891.316406"/>
     <use xlink:href="#DejaVuSans-30" x="954.939453"/>
    </g>
   </g>
  </g>
 </g>
 <defs>
  <clipPath id="p55f027ebee">
   <rect x="170.340091" y="81.456" width="292.369069" height="102.156"/>
  </clipPath>
  <clipPath id="pd18c34e48c">
   <rect x="489.290298" y="81.456" width="292.369069" height="102.156"/>
  </clipPath>
  <clipPath id="p444ead2684">
   <rect x="808.240504" y="81.456" width="292.369069" height="102.156"/>
  </clipPath>
  <clipPath id="pd29e4f7cd8">
   <rect x="170.340091" y="271.128" width="292.369069" height="102.156"/>
  </clipPath>
  <clipPath id="p9153305587">
   <rect x="489.290298" y="271.128" width="292.369069" height="102.156"/>
  </clipPath>
 </defs>
</svg>
