<?xml version="1.0" encoding="utf-8" standalone="no"?>
<!DOCTYPE svg PUBLIC "-//W3C//DTD SVG 1.1//EN"
  "http://www.w3.org/Graphics/SVG/1.1/DTD/svg11.dtd">
<svg xmlns:xlink="http://www.w3.org/1999/xlink" width="1304.437547pt" height="591.51675pt" viewBox="0 0 1304.437547 591.51675" xmlns="http://www.w3.org/2000/svg" version="1.1">
 <metadata>
  <rdf:RDF xmlns:dc="http://purl.org/dc/elements/1.1/" xmlns:cc="http://creativecommons.org/ns#" xmlns:rdf="http://www.w3.org/1999/02/22-rdf-syntax-ns#">
   <cc:Work>
    <dc:type rdf:resource="http://purl.org/dc/dcmitype/StillImage"/>
    <dc:date>2023-04-28T12:09:31.574994</dc:date>
    <dc:format>image/svg+xml</dc:format>
    <dc:creator>
     <cc:Agent>
      <dc:title>Matplotlib v3.7.1, https://matplotlib.org/</dc:title>
     </cc:Agent>
    </dc:creator>
   </cc:Work>
  </rdf:RDF>
 </metadata>
 <defs>
  <style type="text/css">*{stroke-linejoin: round; stroke-linecap: butt}</style>
 </defs>
 <g id="figure_1">
  <g id="patch_1">
   <path d="M 0 591.51675 
L 1304.437547 591.51675 
L 1304.437547 -0 
L 0 -0 
z
" style="fill: #ffffff"/>
  </g>
  <g id="axes_1">
   <g id="patch_2">
    <path d="M 170.340091 199.794407 
L 462.70916 199.794407 
L 462.70916 81.456 
L 170.340091 81.456 
z
" style="fill: #eaeaf2"/>
   </g>
   <g id="matplotlib.axis_1">
    <g id="xtick_1">
     <g id="line2d_1">
      <path d="M 183.629594 199.794407 
L 183.629594 81.456 
" clip-path="url(#p99b12ccda2)" style="fill: none; stroke: #ffffff; stroke-linecap: round"/>
     </g>
    </g>
    <g id="xtick_2">
     <g id="line2d_2">
      <path d="M 274.77845 199.794407 
L 274.77845 81.456 
" clip-path="url(#p99b12ccda2)" style="fill: none; stroke: #ffffff; stroke-linecap: round"/>
     </g>
    </g>
    <g id="xtick_3">
     <g id="line2d_3">
      <path d="M 365.927305 199.794407 
L 365.927305 81.456 
" clip-path="url(#p99b12ccda2)" style="fill: none; stroke: #ffffff; stroke-linecap: round"/>
     </g>
    </g>
    <g id="xtick_4">
     <g id="line2d_4">
      <path d="M 457.076161 199.794407 
L 457.076161 81.456 
" clip-path="url(#p99b12ccda2)" style="fill: none; stroke: #ffffff; stroke-linecap: round"/>
     </g>
    </g>
   </g>
   <g id="matplotlib.axis_2">
    <g id="ytick_1">
     <g id="line2d_5">
      <path d="M 170.340091 188.569526 
L 462.70916 188.569526 
" clip-path="url(#p99b12ccda2)" style="fill: none; stroke: #ffffff; stroke-linecap: round"/>
     </g>
     <g id="text_1">
      <!-- −0.1 -->
      <g style="fill: #262626" transform="translate(104.746794 197.345721) scale(0.231 -0.231)">
       <defs>
        <path id="DejaVuSans-2212" d="M 678 2272 
L 4684 2272 
L 4684 1741 
L 678 1741 
L 678 2272 
z
" transform="scale(0.015625)"/>
        <path id="DejaVuSans-30" d="M 2034 4250 
Q 1547 4250 1301 3770 
Q 1056 3291 1056 2328 
Q 1056 1369 1301 889 
Q 1547 409 2034 409 
Q 2525 409 2770 889 
Q 3016 1369 3016 2328 
Q 3016 3291 2770 3770 
Q 2525 4250 2034 4250 
z
M 2034 4750 
Q 2819 4750 3233 4129 
Q 3647 3509 3647 2328 
Q 3647 1150 3233 529 
Q 2819 -91 2034 -91 
Q 1250 -91 836 529 
Q 422 1150 422 2328 
Q 422 3509 836 4129 
Q 1250 4750 2034 4750 
z
" transform="scale(0.015625)"/>
        <path id="DejaVuSans-2e" d="M 684 794 
L 1344 794 
L 1344 0 
L 684 0 
L 684 794 
z
" transform="scale(0.015625)"/>
        <path id="DejaVuSans-31" d="M 794 531 
L 1825 531 
L 1825 4091 
L 703 3866 
L 703 4441 
L 1819 4666 
L 2450 4666 
L 2450 531 
L 3481 531 
L 3481 0 
L 794 0 
L 794 531 
z
" transform="scale(0.015625)"/>
       </defs>
       <use xlink:href="#DejaVuSans-2212"/>
       <use xlink:href="#DejaVuSans-30" x="83.789062"/>
       <use xlink:href="#DejaVuSans-2e" x="147.412109"/>
       <use xlink:href="#DejaVuSans-31" x="179.199219"/>
      </g>
     </g>
    </g>
    <g id="ytick_2">
     <g id="line2d_6">
      <path d="M 170.340091 86.835018 
L 462.70916 86.835018 
" clip-path="url(#p99b12ccda2)" style="fill: none; stroke: #ffffff; stroke-linecap: round"/>
     </g>
     <g id="text_2">
      <!-- 0.0 -->
      <g style="fill: #262626" transform="translate(124.103872 95.611214) scale(0.231 -0.231)">
       <use xlink:href="#DejaVuSans-30"/>
       <use xlink:href="#DejaVuSans-2e" x="63.623047"/>
       <use xlink:href="#DejaVuSans-30" x="95.410156"/>
      </g>
     </g>
    </g>
    <g id="text_3">
     <!-- % change -->
     <g style="fill: #262626" transform="translate(95.505982 202.973547) rotate(-90) scale(0.252 -0.252)">
      <defs>
       <path id="DejaVuSans-25" d="M 4653 2053 
Q 4381 2053 4226 1822 
Q 4072 1591 4072 1178 
Q 4072 772 4226 539 
Q 4381 306 4653 306 
Q 4919 306 5073 539 
Q 5228 772 5228 1178 
Q 5228 1588 5073 1820 
Q 4919 2053 4653 2053 
z
M 4653 2450 
Q 5147 2450 5437 2106 
Q 5728 1763 5728 1178 
Q 5728 594 5436 251 
Q 5144 -91 4653 -91 
Q 4153 -91 3862 251 
Q 3572 594 3572 1178 
Q 3572 1766 3864 2108 
Q 4156 2450 4653 2450 
z
M 1428 4353 
Q 1159 4353 1004 4120 
Q 850 3888 850 3481 
Q 850 3069 1003 2837 
Q 1156 2606 1428 2606 
Q 1700 2606 1854 2837 
Q 2009 3069 2009 3481 
Q 2009 3884 1853 4118 
Q 1697 4353 1428 4353 
z
M 4250 4750 
L 4750 4750 
L 1831 -91 
L 1331 -91 
L 4250 4750 
z
M 1428 4750 
Q 1922 4750 2215 4408 
Q 2509 4066 2509 3481 
Q 2509 2891 2217 2550 
Q 1925 2209 1428 2209 
Q 931 2209 642 2551 
Q 353 2894 353 3481 
Q 353 4063 643 4406 
Q 934 4750 1428 4750 
z
" transform="scale(0.015625)"/>
       <path id="DejaVuSans-20" transform="scale(0.015625)"/>
       <path id="DejaVuSans-63" d="M 3122 3366 
L 3122 2828 
Q 2878 2963 2633 3030 
Q 2388 3097 2138 3097 
Q 1578 3097 1268 2742 
Q 959 2388 959 1747 
Q 959 1106 1268 751 
Q 1578 397 2138 397 
Q 2388 397 2633 464 
Q 2878 531 3122 666 
L 3122 134 
Q 2881 22 2623 -34 
Q 2366 -91 2075 -91 
Q 1284 -91 818 406 
Q 353 903 353 1747 
Q 353 2603 823 3093 
Q 1294 3584 2113 3584 
Q 2378 3584 2631 3529 
Q 2884 3475 3122 3366 
z
" transform="scale(0.015625)"/>
       <path id="DejaVuSans-68" d="M 3513 2113 
L 3513 0 
L 2938 0 
L 2938 2094 
Q 2938 2591 2744 2837 
Q 2550 3084 2163 3084 
Q 1697 3084 1428 2787 
Q 1159 2491 1159 1978 
L 1159 0 
L 581 0 
L 581 4863 
L 1159 4863 
L 1159 2956 
Q 1366 3272 1645 3428 
Q 1925 3584 2291 3584 
Q 2894 3584 3203 3211 
Q 3513 2838 3513 2113 
z
" transform="scale(0.015625)"/>
       <path id="DejaVuSans-61" d="M 2194 1759 
Q 1497 1759 1228 1600 
Q 959 1441 959 1056 
Q 959 750 1161 570 
Q 1363 391 1709 391 
Q 2188 391 2477 730 
Q 2766 1069 2766 1631 
L 2766 1759 
L 2194 1759 
z
M 3341 1997 
L 3341 0 
L 2766 0 
L 2766 531 
Q 2569 213 2275 61 
Q 1981 -91 1556 -91 
Q 1019 -91 701 211 
Q 384 513 384 1019 
Q 384 1609 779 1909 
Q 1175 2209 1959 2209 
L 2766 2209 
L 2766 2266 
Q 2766 2663 2505 2880 
Q 2244 3097 1772 3097 
Q 1472 3097 1187 3025 
Q 903 2953 641 2809 
L 641 3341 
Q 956 3463 1253 3523 
Q 1550 3584 1831 3584 
Q 2591 3584 2966 3190 
Q 3341 2797 3341 1997 
z
" transform="scale(0.015625)"/>
       <path id="DejaVuSans-6e" d="M 3513 2113 
L 3513 0 
L 2938 0 
L 2938 2094 
Q 2938 2591 2744 2837 
Q 2550 3084 2163 3084 
Q 1697 3084 1428 2787 
Q 1159 2491 1159 1978 
L 1159 0 
L 581 0 
L 581 3500 
L 1159 3500 
L 1159 2956 
Q 1366 3272 1645 3428 
Q 1925 3584 2291 3584 
Q 2894 3584 3203 3211 
Q 3513 2838 3513 2113 
z
" transform="scale(0.015625)"/>
       <path id="DejaVuSans-67" d="M 2906 1791 
Q 2906 2416 2648 2759 
Q 2391 3103 1925 3103 
Q 1463 3103 1205 2759 
Q 947 2416 947 1791 
Q 947 1169 1205 825 
Q 1463 481 1925 481 
Q 2391 481 2648 825 
Q 2906 1169 2906 1791 
z
M 3481 434 
Q 3481 -459 3084 -895 
Q 2688 -1331 1869 -1331 
Q 1566 -1331 1297 -1286 
Q 1028 -1241 775 -1147 
L 775 -588 
Q 1028 -725 1275 -790 
Q 1522 -856 1778 -856 
Q 2344 -856 2625 -561 
Q 2906 -266 2906 331 
L 2906 616 
Q 2728 306 2450 153 
Q 2172 0 1784 0 
Q 1141 0 747 490 
Q 353 981 353 1791 
Q 353 2603 747 3093 
Q 1141 3584 1784 3584 
Q 2172 3584 2450 3431 
Q 2728 3278 2906 2969 
L 2906 3500 
L 3481 3500 
L 3481 434 
z
" transform="scale(0.015625)"/>
       <path id="DejaVuSans-65" d="M 3597 1894 
L 3597 1613 
L 953 1613 
Q 991 1019 1311 708 
Q 1631 397 2203 397 
Q 2534 397 2845 478 
Q 3156 559 3463 722 
L 3463 178 
Q 3153 47 2828 -22 
Q 2503 -91 2169 -91 
Q 1331 -91 842 396 
Q 353 884 353 1716 
Q 353 2575 817 3079 
Q 1281 3584 2069 3584 
Q 2775 3584 3186 3129 
Q 3597 2675 3597 1894 
z
M 3022 2063 
Q 3016 2534 2758 2815 
Q 2500 3097 2075 3097 
Q 1594 3097 1305 2825 
Q 1016 2553 972 2059 
L 3022 2063 
z
" transform="scale(0.015625)"/>
      </defs>
      <use xlink:href="#DejaVuSans-25"/>
      <use xlink:href="#DejaVuSans-20" x="95.019531"/>
      <use xlink:href="#DejaVuSans-63" x="126.806641"/>
      <use xlink:href="#DejaVuSans-68" x="181.787109"/>
      <use xlink:href="#DejaVuSans-61" x="245.166016"/>
      <use xlink:href="#DejaVuSans-6e" x="306.445312"/>
      <use xlink:href="#DejaVuSans-67" x="369.824219"/>
      <use xlink:href="#DejaVuSans-65" x="433.300781"/>
     </g>
    </g>
   </g>
   <g id="PolyCollection_1"/>
   <g id="PolyCollection_2"/>
   <g id="PolyCollection_3"/>
   <g id="PolyCollection_4"/>
   <g id="PolyCollection_5"/>
   <g id="PolyCollection_6"/>
   <g id="line2d_7">
    <path d="M 183.629594 86.835018 
L 186.910953 93.950164 
L 191.650694 103.960563 
L 194.932052 110.275497 
L 198.213411 116.071909 
L 201.49477 121.383556 
L 204.776129 126.242715 
L 208.057488 130.67987 
L 211.338846 134.722585 
L 214.620205 138.396154 
L 217.901564 141.7243 
L 221.182923 144.735798 
L 224.464282 147.457342 
L 227.74564 149.907582 
L 231.391595 152.336505 
L 235.037549 154.481163 
L 238.683503 156.362075 
L 242.329457 157.998376 
L 245.975411 159.407903 
L 249.985961 160.71635 
L 253.996511 161.791294 
L 258.371656 162.719991 
L 262.746801 163.416244 
L 267.486541 163.934153 
L 273.320068 164.321396 
L 279.51819 164.500048 
L 286.810099 164.465743 
L 298.841748 164.181756 
L 317.071519 163.473067 
L 334.936695 162.580664 
L 360.093779 161.091612 
L 398.011703 158.809914 
L 449.419657 155.668303 
L 449.419657 155.668303 
" clip-path="url(#p99b12ccda2)" style="fill: none; stroke: #4c72b0; stroke-opacity: 0.9; stroke-width: 3; stroke-linecap: round"/>
   </g>
   <g id="line2d_8">
    <path d="M 183.629594 86.835018 
L 186.181762 92.274619 
L 191.650694 103.766293 
L 194.932052 110.051468 
L 198.213411 115.836963 
L 201.49477 121.155228 
L 204.776129 126.036205 
L 208.057488 130.507609 
L 211.338846 134.595814 
L 214.620205 138.326495 
L 217.901564 141.722628 
L 221.182923 144.806227 
L 224.464282 147.598326 
L 227.74564 150.117836 
L 231.391595 152.626942 
L 235.037549 154.857968 
L 238.683503 156.836086 
L 242.694053 158.744296 
L 246.704602 160.393468 
L 250.715152 161.804 
L 255.090297 163.092884 
L 259.465442 164.143086 
L 263.840587 164.975493 
L 268.580328 165.654185 
L 274.049259 166.20837 
L 280.247381 166.610156 
L 287.174694 166.818403 
L 297.018771 166.883547 
L 307.592038 166.724556 
L 319.988282 166.308711 
L 338.947244 165.430137 
L 356.81242 164.463165 
L 378.688145 163.052501 
L 434.106649 159.150366 
L 449.419657 158.063931 
L 449.419657 158.063931 
" clip-path="url(#p99b12ccda2)" style="fill: none; stroke: #dd8452; stroke-opacity: 0.9; stroke-width: 3; stroke-linecap: round"/>
   </g>
   <g id="line2d_9">
    <path d="M 183.629594 86.835018 
L 185.817167 91.911167 
L 191.286098 104.455754 
L 194.567457 111.313378 
L 197.848816 117.604682 
L 201.130175 123.367731 
L 204.411533 128.637517 
L 207.692892 133.446193 
L 210.974251 137.823676 
L 214.25561 141.79781 
L 217.536969 145.395383 
L 220.818327 148.641585 
L 224.099686 151.560665 
L 227.381045 154.174284 
L 230.662404 156.503908 
L 233.943763 158.569402 
L 237.225121 160.391298 
L 240.871076 162.153536 
L 244.51703 163.664275 
L 248.162984 164.94461 
L 252.173534 166.108474 
L 256.184083 167.037207 
L 260.194633 167.750468 
L 264.569778 168.304791 
L 269.309519 168.673131 
L 274.77845 168.868513 
L 281.341167 168.868338 
L 291.185244 168.608792 
L 306.862847 167.972692 
L 338.582649 166.397666 
L 449.419657 160.62124 
L 449.419657 160.62124 
" clip-path="url(#p99b12ccda2)" style="fill: none; stroke: #55a868; stroke-opacity: 0.9; stroke-width: 3; stroke-linecap: round"/>
   </g>
   <g id="line2d_10">
    <path d="M 183.629594 86.835018 
L 185.817167 91.748322 
L 191.286098 103.895235 
L 194.567457 110.537836 
L 197.848816 116.632972 
L 201.130175 122.216648 
L 204.411533 127.321974 
L 207.692892 131.979702 
L 210.974251 136.218766 
L 214.25561 140.066388 
L 217.536969 143.548916 
L 220.818327 146.691647 
L 224.099686 149.517731 
L 227.381045 152.049182 
L 230.662404 154.306718 
L 233.943763 156.31041 
L 237.589717 158.261791 
L 241.235671 159.948811 
L 244.881625 161.394137 
L 248.892175 162.730802 
L 252.902725 163.824601 
L 256.913274 164.69649 
L 261.288419 165.416615 
L 265.663564 165.918269 
L 270.7679 166.26833 
L 276.601427 166.440542 
L 283.893335 166.421254 
L 295.560389 166.135134 
L 311.967183 165.488044 
L 344.05158 163.977055 
L 403.480634 160.881626 
L 449.419657 158.337836 
L 449.419657 158.337836 
" clip-path="url(#p99b12ccda2)" style="fill: none; stroke: #c44e52; stroke-opacity: 0.9; stroke-width: 3; stroke-linecap: round"/>
   </g>
   <g id="line2d_11">
    <path d="M 183.629594 86.835018 
L 186.546358 93.422899 
L 191.286098 103.90457 
L 194.567457 110.540212 
L 197.848816 116.6339 
L 201.130175 122.221089 
L 204.411533 127.334647 
L 207.692892 132.005148 
L 210.974251 136.261156 
L 214.25561 140.129339 
L 217.536969 143.63474 
L 220.818327 146.800499 
L 224.099686 149.648233 
L 227.381045 152.19925 
L 230.662404 154.47281 
L 233.943763 156.48643 
L 237.225121 158.256865 
L 240.871076 159.962593 
L 244.51703 161.413864 
L 248.162984 162.62859 
L 251.808938 163.623361 
L 255.819488 164.482196 
L 259.830038 165.113027 
L 264.205183 165.563158 
L 268.944923 165.812966 
L 274.049259 165.855477 
L 279.882786 165.684794 
L 286.445503 165.270611 
L 294.102007 164.562517 
L 341.134817 159.666165 
L 361.55216 158.017772 
L 387.438435 156.130633 
L 440.304772 152.667865 
L 449.419657 152.072123 
L 449.419657 152.072123 
" clip-path="url(#p99b12ccda2)" style="fill: none; stroke: #8172b3; stroke-opacity: 0.9; stroke-width: 3; stroke-linecap: round"/>
   </g>
   <g id="line2d_12">
    <path d="M 183.629594 86.835018 
L 186.910953 94.036012 
L 191.650694 104.162763 
L 194.932052 110.555606 
L 198.213411 116.430706 
L 201.49477 121.822154 
L 204.776129 126.761733 
L 208.057488 131.278869 
L 211.338846 135.400866 
L 214.620205 139.153188 
L 217.901564 142.560267 
L 221.182923 145.645157 
L 224.464282 148.428591 
L 227.74564 150.929904 
L 231.026999 153.16719 
L 234.308358 155.157369 
L 237.954312 157.100714 
L 241.600266 158.784123 
L 245.246221 160.226329 
L 248.892175 161.445135 
L 252.902725 162.54714 
L 256.913274 163.417965 
L 261.288419 164.125485 
L 265.663564 164.603247 
L 270.403305 164.897565 
L 276.236832 165.02642 
L 282.434954 164.939427 
L 289.362267 164.613014 
L 297.018771 164.026406 
L 323.998832 161.502576 
L 359.729183 158.253187 
L 396.188726 155.451519 
L 449.419657 151.667051 
L 449.419657 151.667051 
" clip-path="url(#p99b12ccda2)" style="fill: none; stroke: #937860; stroke-opacity: 0.9; stroke-width: 3; stroke-linecap: round"/>
   </g>
   <g id="patch_3">
    <path d="M 170.340091 199.794407 
L 170.340091 81.456 
" style="fill: none; stroke: #ffffff; stroke-width: 1.25; stroke-linejoin: miter; stroke-linecap: square"/>
   </g>
   <g id="patch_4">
    <path d="M 170.340091 199.794407 
L 462.70916 199.794407 
" style="fill: none; stroke: #ffffff; stroke-width: 1.25; stroke-linejoin: miter; stroke-linecap: square"/>
   </g>
   <g id="text_4">
    <!-- 0.8~90 -->
    <g style="fill: #262626" transform="translate(269.894782 75.456) scale(0.252 -0.252)">
     <defs>
      <path id="DejaVuSans-38" d="M 2034 2216 
Q 1584 2216 1326 1975 
Q 1069 1734 1069 1313 
Q 1069 891 1326 650 
Q 1584 409 2034 409 
Q 2484 409 2743 651 
Q 3003 894 3003 1313 
Q 3003 1734 2745 1975 
Q 2488 2216 2034 2216 
z
M 1403 2484 
Q 997 2584 770 2862 
Q 544 3141 544 3541 
Q 544 4100 942 4425 
Q 1341 4750 2034 4750 
Q 2731 4750 3128 4425 
Q 3525 4100 3525 3541 
Q 3525 3141 3298 2862 
Q 3072 2584 2669 2484 
Q 3125 2378 3379 2068 
Q 3634 1759 3634 1313 
Q 3634 634 3220 271 
Q 2806 -91 2034 -91 
Q 1263 -91 848 271 
Q 434 634 434 1313 
Q 434 1759 690 2068 
Q 947 2378 1403 2484 
z
M 1172 3481 
Q 1172 3119 1398 2916 
Q 1625 2713 2034 2713 
Q 2441 2713 2670 2916 
Q 2900 3119 2900 3481 
Q 2900 3844 2670 4047 
Q 2441 4250 2034 4250 
Q 1625 4250 1398 4047 
Q 1172 3844 1172 3481 
z
" transform="scale(0.015625)"/>
      <path id="DejaVuSans-7e" d="M 4684 2553 
L 4684 1997 
Q 4356 1750 4076 1644 
Q 3797 1538 3494 1538 
Q 3150 1538 2694 1722 
Q 2659 1734 2644 1741 
Q 2622 1750 2575 1766 
Q 2091 1959 1797 1959 
Q 1522 1959 1253 1839 
Q 984 1719 678 1459 
L 678 2016 
Q 1006 2263 1286 2370 
Q 1566 2478 1869 2478 
Q 2213 2478 2672 2291 
Q 2703 2278 2719 2272 
Q 2744 2263 2788 2247 
Q 3272 2053 3566 2053 
Q 3834 2053 4098 2172 
Q 4363 2291 4684 2553 
z
" transform="scale(0.015625)"/>
      <path id="DejaVuSans-39" d="M 703 97 
L 703 672 
Q 941 559 1184 500 
Q 1428 441 1663 441 
Q 2288 441 2617 861 
Q 2947 1281 2994 2138 
Q 2813 1869 2534 1725 
Q 2256 1581 1919 1581 
Q 1219 1581 811 2004 
Q 403 2428 403 3163 
Q 403 3881 828 4315 
Q 1253 4750 1959 4750 
Q 2769 4750 3195 4129 
Q 3622 3509 3622 2328 
Q 3622 1225 3098 567 
Q 2575 -91 1691 -91 
Q 1453 -91 1209 -44 
Q 966 3 703 97 
z
M 1959 2075 
Q 2384 2075 2632 2365 
Q 2881 2656 2881 3163 
Q 2881 3666 2632 3958 
Q 2384 4250 1959 4250 
Q 1534 4250 1286 3958 
Q 1038 3666 1038 3163 
Q 1038 2656 1286 2365 
Q 1534 2075 1959 2075 
z
" transform="scale(0.015625)"/>
     </defs>
     <use xlink:href="#DejaVuSans-30"/>
     <use xlink:href="#DejaVuSans-2e" x="63.623047"/>
     <use xlink:href="#DejaVuSans-38" x="95.410156"/>
     <use xlink:href="#DejaVuSans-7e" x="159.033203"/>
     <use xlink:href="#DejaVuSans-39" x="242.822266"/>
     <use xlink:href="#DejaVuSans-30" x="306.445312"/>
    </g>
   </g>
  </g>
  <g id="axes_2">
   <g id="patch_5">
    <path d="M 489.290298 199.794407 
L 781.659367 199.794407 
L 781.659367 81.456 
L 489.290298 81.456 
z
" style="fill: #eaeaf2"/>
   </g>
   <g id="matplotlib.axis_3">
    <g id="xtick_5">
     <g id="line2d_13">
      <path d="M 502.579801 199.794407 
L 502.579801 81.456 
" clip-path="url(#paa7800d8bb)" style="fill: none; stroke: #ffffff; stroke-linecap: round"/>
     </g>
    </g>
    <g id="xtick_6">
     <g id="line2d_14">
      <path d="M 593.728656 199.794407 
L 593.728656 81.456 
" clip-path="url(#paa7800d8bb)" style="fill: none; stroke: #ffffff; stroke-linecap: round"/>
     </g>
    </g>
    <g id="xtick_7">
     <g id="line2d_15">
      <path d="M 684.877512 199.794407 
L 684.877512 81.456 
" clip-path="url(#paa7800d8bb)" style="fill: none; stroke: #ffffff; stroke-linecap: round"/>
     </g>
    </g>
    <g id="xtick_8">
     <g id="line2d_16">
      <path d="M 776.026368 199.794407 
L 776.026368 81.456 
" clip-path="url(#paa7800d8bb)" style="fill: none; stroke: #ffffff; stroke-linecap: round"/>
     </g>
    </g>
   </g>
   <g id="matplotlib.axis_4">
    <g id="ytick_3">
     <g id="line2d_17">
      <path d="M 489.290298 188.569526 
L 781.659367 188.569526 
" clip-path="url(#paa7800d8bb)" style="fill: none; stroke: #ffffff; stroke-linecap: round"/>
     </g>
    </g>
    <g id="ytick_4">
     <g id="line2d_18">
      <path d="M 489.290298 86.835018 
L 781.659367 86.835018 
" clip-path="url(#paa7800d8bb)" style="fill: none; stroke: #ffffff; stroke-linecap: round"/>
     </g>
    </g>
   </g>
   <g id="PolyCollection_7"/>
   <g id="PolyCollection_8"/>
   <g id="PolyCollection_9"/>
   <g id="PolyCollection_10"/>
   <g id="PolyCollection_11"/>
   <g id="PolyCollection_12"/>
   <g id="line2d_19">
    <path d="M 502.579801 86.835018 
L 505.496564 93.18634 
L 510.965495 104.941035 
L 514.246854 111.434044 
L 517.528213 117.481959 
L 521.174167 123.714093 
L 524.820122 129.467464 
L 528.466076 134.775433 
L 532.11203 139.669016 
L 535.757984 144.177062 
L 539.403938 148.326399 
L 543.049893 152.141957 
L 546.695847 155.64735 
L 550.341801 158.864466 
L 554.352351 162.094223 
L 558.3629 165.024496 
L 562.37345 167.678507 
L 566.384 170.077355 
L 570.759145 172.426109 
L 575.13429 174.517656 
L 579.87403 176.520891 
L 584.613771 178.280189 
L 589.718107 179.92884 
L 594.822443 181.349408 
L 600.291374 182.643591 
L 606.124901 183.791286 
L 612.323023 184.776677 
L 618.885741 185.588235 
L 625.813054 186.218452 
L 633.469557 186.680711 
L 641.855252 186.950368 
L 652.793115 187.063555 
L 665.189359 186.958162 
L 768.369864 185.478655 
L 768.369864 185.478655 
" clip-path="url(#paa7800d8bb)" style="fill: none; stroke: #4c72b0; stroke-opacity: 0.9; stroke-width: 3; stroke-linecap: round"/>
   </g>
   <g id="line2d_20">
    <path d="M 502.579801 86.835018 
L 504.767373 91.501839 
L 510.965495 104.704056 
L 514.246854 111.133929 
L 517.892809 117.766974 
L 521.538763 123.89843 
L 525.184717 129.563316 
L 528.830671 134.79417 
L 532.476625 139.621376 
L 536.12258 144.073104 
L 539.768534 148.175559 
L 543.414488 151.953086 
L 547.060442 155.428308 
L 550.706397 158.622275 
L 554.716946 161.834133 
L 558.727496 164.753493 
L 562.738045 167.403155 
L 566.748595 169.804077 
L 571.12374 172.161808 
L 575.498885 174.268727 
L 580.238626 176.29261 
L 584.978366 178.071724 
L 590.082702 179.73945 
L 595.551633 181.275764 
L 601.020565 182.586648 
L 606.854092 183.763662 
L 613.052214 184.791646 
L 619.614931 185.659482 
L 626.90684 186.391128 
L 634.563344 186.931505 
L 642.949038 187.296698 
L 653.522306 187.524256 
L 665.553955 187.559194 
L 696.544566 187.273593 
L 758.525787 186.388953 
L 768.369864 186.2159 
L 768.369864 186.2159 
" clip-path="url(#paa7800d8bb)" style="fill: none; stroke: #dd8452; stroke-opacity: 0.9; stroke-width: 3; stroke-linecap: round"/>
   </g>
   <g id="line2d_21">
    <path d="M 502.579801 86.835018 
L 504.402778 91.06519 
L 510.965495 106.305052 
L 514.246854 113.293051 
L 517.528213 119.799855 
L 520.809572 125.856178 
L 524.090931 131.490758 
L 527.736885 137.289685 
L 531.382839 142.635496 
L 535.028793 147.559632 
L 538.674748 152.091417 
L 542.320702 156.258147 
L 545.966656 160.085163 
L 549.61261 163.596016 
L 553.258564 166.812697 
L 556.904519 169.755899 
L 560.915068 172.700621 
L 564.925618 175.361475 
L 568.936168 177.760766 
L 573.311313 180.103728 
L 577.686458 182.184409 
L 582.061603 184.02559 
L 586.801343 185.773642 
L 591.541084 187.288658 
L 596.64542 188.684885 
L 602.114351 189.938359 
L 607.947878 191.031963 
L 614.146 191.95413 
L 620.708718 192.695645 
L 627.636031 193.249847 
L 634.927939 193.613731 
L 643.313634 193.800629 
L 653.886901 193.798347 
L 687.42968 193.382718 
L 768.369864 192.310754 
L 768.369864 192.310754 
" clip-path="url(#paa7800d8bb)" style="fill: none; stroke: #55a868; stroke-opacity: 0.9; stroke-width: 3; stroke-linecap: round"/>
   </g>
   <g id="line2d_22">
    <path d="M 502.579801 86.835018 
L 504.402778 90.92926 
L 510.965495 105.684866 
L 514.246854 112.452902 
L 517.528213 118.755774 
L 520.809572 124.623057 
L 524.455526 130.664801 
L 528.10148 136.237883 
L 531.747435 141.374935 
L 535.393389 146.106284 
L 539.039343 150.460152 
L 542.685297 154.462804 
L 546.331251 158.138677 
L 549.977206 161.510495 
L 553.62316 164.599435 
L 557.63371 167.694134 
L 561.644259 170.495115 
L 565.654809 173.025007 
L 569.665358 175.304979 
L 574.040504 177.530559 
L 578.415649 179.506137 
L 583.155389 181.389417 
L 587.89513 183.030248 
L 592.999466 184.552465 
L 598.103801 185.846598 
L 603.572733 187.007265 
L 609.40626 188.018076 
L 615.604382 188.867053 
L 622.167099 189.546698 
L 629.459008 190.072164 
L 637.115512 190.399724 
L 646.230397 190.552181 
L 658.262046 190.51317 
L 702.013497 190.003992 
L 768.369864 189.100689 
L 768.369864 189.100689 
" clip-path="url(#paa7800d8bb)" style="fill: none; stroke: #c44e52; stroke-opacity: 0.9; stroke-width: 3; stroke-linecap: round"/>
   </g>
   <g id="line2d_23">
    <path d="M 502.579801 86.835018 
L 505.131969 92.619223 
L 510.965495 105.689924 
L 514.246854 112.446928 
L 517.528213 118.741424 
L 520.809572 124.602814 
L 524.455526 130.640835 
L 528.10148 136.213035 
L 531.747435 141.351924 
L 535.393389 146.087695 
L 539.039343 150.448407 
L 542.685297 154.460097 
L 546.331251 158.146945 
L 549.977206 161.531406 
L 553.62316 164.634346 
L 557.63371 167.745535 
L 561.644259 170.563489 
L 565.654809 173.110364 
L 569.665358 175.406635 
L 574.040504 177.648023 
L 578.415649 179.636224 
L 582.790794 181.392139 
L 587.530534 183.055092 
L 592.270275 184.490825 
L 597.374611 185.806081 
L 602.843542 186.975501 
L 608.677069 187.981897 
L 614.875191 188.809794 
L 621.437908 189.446671 
L 628.365222 189.884287 
L 635.65713 190.118812 
L 644.042825 190.161857 
L 654.616092 189.98033 
L 668.106123 189.514085 
L 685.606703 188.675926 
L 702.742688 187.882807 
L 724.983008 187.107187 
L 756.338215 186.261617 
L 768.369864 185.972324 
L 768.369864 185.972324 
" clip-path="url(#paa7800d8bb)" style="fill: none; stroke: #8172b3; stroke-opacity: 0.9; stroke-width: 3; stroke-linecap: round"/>
   </g>
   <g id="line2d_24">
    <path d="M 502.579801 86.835018 
L 505.496564 93.262832 
L 510.965495 105.143336 
L 514.246854 111.704449 
L 517.528213 117.817697 
L 521.174167 124.119579 
L 524.820122 129.940201 
L 528.466076 135.313394 
L 532.11203 140.270563 
L 535.757984 144.840853 
L 539.403938 149.051275 
L 543.049893 152.926922 
L 546.695847 156.491093 
L 550.341801 159.76544 
L 554.352351 163.056472 
L 558.3629 166.04596 
L 562.37345 168.756759 
L 566.384 171.209997 
L 570.759145 173.615427 
L 575.13429 175.761433 
L 579.509435 177.66965 
L 584.249175 179.491271 
L 588.988916 181.079653 
L 594.093252 182.553169 
L 599.562183 183.885221 
L 605.031114 184.989973 
L 610.864641 185.946259 
L 617.062763 186.738908 
L 623.625481 187.35705 
L 630.917389 187.810508 
L 638.573893 188.05977 
L 648.053374 188.127079 
L 659.720428 187.984756 
L 673.575054 187.586433 
L 736.285467 185.469833 
L 768.369864 184.587719 
L 768.369864 184.587719 
" clip-path="url(#paa7800d8bb)" style="fill: none; stroke: #937860; stroke-opacity: 0.9; stroke-width: 3; stroke-linecap: round"/>
   </g>
   <g id="patch_6">
    <path d="M 489.290298 199.794407 
L 489.290298 81.456 
" style="fill: none; stroke: #ffffff; stroke-width: 1.25; stroke-linejoin: miter; stroke-linecap: square"/>
   </g>
   <g id="patch_7">
    <path d="M 489.290298 199.794407 
L 781.659367 199.794407 
" style="fill: none; stroke: #ffffff; stroke-width: 1.25; stroke-linejoin: miter; stroke-linecap: square"/>
   </g>
   <g id="text_5">
    <!-- 0.8~365 -->
    <g style="fill: #262626" transform="translate(580.828239 75.456) scale(0.252 -0.252)">
     <defs>
      <path id="DejaVuSans-33" d="M 2597 2516 
Q 3050 2419 3304 2112 
Q 3559 1806 3559 1356 
Q 3559 666 3084 287 
Q 2609 -91 1734 -91 
Q 1441 -91 1130 -33 
Q 819 25 488 141 
L 488 750 
Q 750 597 1062 519 
Q 1375 441 1716 441 
Q 2309 441 2620 675 
Q 2931 909 2931 1356 
Q 2931 1769 2642 2001 
Q 2353 2234 1838 2234 
L 1294 2234 
L 1294 2753 
L 1863 2753 
Q 2328 2753 2575 2939 
Q 2822 3125 2822 3475 
Q 2822 3834 2567 4026 
Q 2313 4219 1838 4219 
Q 1578 4219 1281 4162 
Q 984 4106 628 3988 
L 628 4550 
Q 988 4650 1302 4700 
Q 1616 4750 1894 4750 
Q 2613 4750 3031 4423 
Q 3450 4097 3450 3541 
Q 3450 3153 3228 2886 
Q 3006 2619 2597 2516 
z
" transform="scale(0.015625)"/>
      <path id="DejaVuSans-36" d="M 2113 2584 
Q 1688 2584 1439 2293 
Q 1191 2003 1191 1497 
Q 1191 994 1439 701 
Q 1688 409 2113 409 
Q 2538 409 2786 701 
Q 3034 994 3034 1497 
Q 3034 2003 2786 2293 
Q 2538 2584 2113 2584 
z
M 3366 4563 
L 3366 3988 
Q 3128 4100 2886 4159 
Q 2644 4219 2406 4219 
Q 1781 4219 1451 3797 
Q 1122 3375 1075 2522 
Q 1259 2794 1537 2939 
Q 1816 3084 2150 3084 
Q 2853 3084 3261 2657 
Q 3669 2231 3669 1497 
Q 3669 778 3244 343 
Q 2819 -91 2113 -91 
Q 1303 -91 875 529 
Q 447 1150 447 2328 
Q 447 3434 972 4092 
Q 1497 4750 2381 4750 
Q 2619 4750 2861 4703 
Q 3103 4656 3366 4563 
z
" transform="scale(0.015625)"/>
      <path id="DejaVuSans-35" d="M 691 4666 
L 3169 4666 
L 3169 4134 
L 1269 4134 
L 1269 2991 
Q 1406 3038 1543 3061 
Q 1681 3084 1819 3084 
Q 2600 3084 3056 2656 
Q 3513 2228 3513 1497 
Q 3513 744 3044 326 
Q 2575 -91 1722 -91 
Q 1428 -91 1123 -41 
Q 819 9 494 109 
L 494 744 
Q 775 591 1075 516 
Q 1375 441 1709 441 
Q 2250 441 2565 725 
Q 2881 1009 2881 1497 
Q 2881 1984 2565 2268 
Q 2250 2553 1709 2553 
Q 1456 2553 1204 2497 
Q 953 2441 691 2322 
L 691 4666 
z
" transform="scale(0.015625)"/>
     </defs>
     <use xlink:href="#DejaVuSans-30"/>
     <use xlink:href="#DejaVuSans-2e" x="63.623047"/>
     <use xlink:href="#DejaVuSans-38" x="95.410156"/>
     <use xlink:href="#DejaVuSans-7e" x="159.033203"/>
     <use xlink:href="#DejaVuSans-33" x="242.822266"/>
     <use xlink:href="#DejaVuSans-36" x="306.445312"/>
     <use xlink:href="#DejaVuSans-35" x="370.068359"/>
    </g>
   </g>
  </g>
  <g id="axes_3">
   <g id="patch_8">
    <path d="M 808.240504 199.794407 
L 1100.609573 199.794407 
L 1100.609573 81.456 
L 808.240504 81.456 
z
" style="fill: #eaeaf2"/>
   </g>
   <g id="matplotlib.axis_5">
    <g id="xtick_9">
     <g id="line2d_25">
      <path d="M 821.530007 199.794407 
L 821.530007 81.456 
" clip-path="url(#p8ed44476df)" style="fill: none; stroke: #ffffff; stroke-linecap: round"/>
     </g>
    </g>
    <g id="xtick_10">
     <g id="line2d_26">
      <path d="M 912.678863 199.794407 
L 912.678863 81.456 
" clip-path="url(#p8ed44476df)" style="fill: none; stroke: #ffffff; stroke-linecap: round"/>
     </g>
    </g>
    <g id="xtick_11">
     <g id="line2d_27">
      <path d="M 1003.827719 199.794407 
L 1003.827719 81.456 
" clip-path="url(#p8ed44476df)" style="fill: none; stroke: #ffffff; stroke-linecap: round"/>
     </g>
    </g>
    <g id="xtick_12">
     <g id="line2d_28">
      <path d="M 1094.976574 199.794407 
L 1094.976574 81.456 
" clip-path="url(#p8ed44476df)" style="fill: none; stroke: #ffffff; stroke-linecap: round"/>
     </g>
    </g>
   </g>
   <g id="matplotlib.axis_6">
    <g id="ytick_5">
     <g id="line2d_29">
      <path d="M 808.240504 188.569526 
L 1100.609573 188.569526 
" clip-path="url(#p8ed44476df)" style="fill: none; stroke: #ffffff; stroke-linecap: round"/>
     </g>
    </g>
    <g id="ytick_6">
     <g id="line2d_30">
      <path d="M 808.240504 86.835018 
L 1100.609573 86.835018 
" clip-path="url(#p8ed44476df)" style="fill: none; stroke: #ffffff; stroke-linecap: round"/>
     </g>
    </g>
   </g>
   <g id="PolyCollection_13"/>
   <g id="PolyCollection_14"/>
   <g id="PolyCollection_15"/>
   <g id="PolyCollection_16"/>
   <g id="PolyCollection_17"/>
   <g id="PolyCollection_18"/>
   <g id="line2d_31">
    <path d="M 821.530007 86.835018 
L 824.811366 93.950164 
L 829.551107 103.960563 
L 832.832465 110.275497 
L 836.113824 116.071909 
L 839.395183 121.383556 
L 842.676542 126.242715 
L 845.957901 130.67987 
L 849.239259 134.722585 
L 852.520618 138.396154 
L 855.801977 141.7243 
L 859.083336 144.735798 
L 862.364695 147.457342 
L 865.646053 149.907582 
L 869.292008 152.336505 
L 872.937962 154.481163 
L 876.583916 156.362075 
L 880.22987 157.998376 
L 883.875825 159.407903 
L 887.886374 160.71635 
L 891.896924 161.791294 
L 896.272069 162.719991 
L 900.647214 163.416244 
L 905.386954 163.934153 
L 911.220481 164.321396 
L 917.418603 164.500048 
L 924.710512 164.465743 
L 936.742161 164.181756 
L 954.971932 163.473067 
L 972.837108 162.580664 
L 997.994192 161.091612 
L 1035.912116 158.809914 
L 1087.32007 155.668303 
L 1087.32007 155.668303 
" clip-path="url(#p8ed44476df)" style="fill: none; stroke: #4c72b0; stroke-opacity: 0.9; stroke-width: 3; stroke-linecap: round"/>
   </g>
   <g id="line2d_32">
    <path d="M 821.530007 86.835018 
L 824.082175 92.274619 
L 829.551107 103.766293 
L 832.832465 110.051468 
L 836.113824 115.836963 
L 839.395183 121.155228 
L 842.676542 126.036205 
L 845.957901 130.507609 
L 849.239259 134.595814 
L 852.520618 138.326495 
L 855.801977 141.722628 
L 859.083336 144.806227 
L 862.364695 147.598326 
L 865.646053 150.117836 
L 869.292008 152.626942 
L 872.937962 154.857968 
L 876.583916 156.836086 
L 880.594466 158.744296 
L 884.605015 160.393468 
L 888.615565 161.804 
L 892.99071 163.092884 
L 897.365855 164.143086 
L 901.741 164.975493 
L 906.480741 165.654185 
L 911.949672 166.20837 
L 918.147794 166.610156 
L 925.075107 166.818403 
L 934.919184 166.883547 
L 945.492451 166.724556 
L 957.888695 166.308711 
L 976.847657 165.430137 
L 994.712833 164.463165 
L 1016.588558 163.052501 
L 1072.007063 159.150366 
L 1087.32007 158.063931 
L 1087.32007 158.063931 
" clip-path="url(#p8ed44476df)" style="fill: none; stroke: #dd8452; stroke-opacity: 0.9; stroke-width: 3; stroke-linecap: round"/>
   </g>
   <g id="line2d_33">
    <path d="M 821.530007 86.835018 
L 823.71758 91.911167 
L 829.186511 104.455754 
L 832.46787 111.313378 
L 835.749229 117.604682 
L 839.030588 123.367731 
L 842.311946 128.637517 
L 845.593305 133.446193 
L 848.874664 137.823676 
L 852.156023 141.79781 
L 855.437382 145.395383 
L 858.71874 148.641585 
L 862.000099 151.560665 
L 865.281458 154.174284 
L 868.562817 156.503908 
L 871.844176 158.569402 
L 875.125534 160.391298 
L 878.771489 162.153536 
L 882.417443 163.664275 
L 886.063397 164.94461 
L 890.073947 166.108474 
L 894.084496 167.037207 
L 898.095046 167.750468 
L 902.470191 168.304791 
L 907.209932 168.673131 
L 912.678863 168.868513 
L 919.241581 168.868338 
L 929.085657 168.608792 
L 944.76326 167.972692 
L 976.483062 166.397666 
L 1087.32007 160.62124 
L 1087.32007 160.62124 
" clip-path="url(#p8ed44476df)" style="fill: none; stroke: #55a868; stroke-opacity: 0.9; stroke-width: 3; stroke-linecap: round"/>
   </g>
   <g id="line2d_34">
    <path d="M 821.530007 86.835018 
L 823.71758 91.748322 
L 829.186511 103.895235 
L 832.46787 110.537836 
L 835.749229 116.632972 
L 839.030588 122.216648 
L 842.311946 127.321974 
L 845.593305 131.979702 
L 848.874664 136.218766 
L 852.156023 140.066388 
L 855.437382 143.548916 
L 858.71874 146.691647 
L 862.000099 149.517731 
L 865.281458 152.049182 
L 868.562817 154.306718 
L 871.844176 156.31041 
L 875.49013 158.261791 
L 879.136084 159.948811 
L 882.782038 161.394137 
L 886.792588 162.730802 
L 890.803138 163.824601 
L 894.813687 164.69649 
L 899.188832 165.416615 
L 903.563977 165.918269 
L 908.668313 166.26833 
L 914.50184 166.440542 
L 921.793748 166.421254 
L 933.460802 166.135134 
L 949.867596 165.488044 
L 981.951993 163.977055 
L 1041.381047 160.881626 
L 1087.32007 158.337836 
L 1087.32007 158.337836 
" clip-path="url(#p8ed44476df)" style="fill: none; stroke: #c44e52; stroke-opacity: 0.9; stroke-width: 3; stroke-linecap: round"/>
   </g>
   <g id="line2d_35">
    <path d="M 821.530007 86.835018 
L 824.446771 93.422899 
L 829.186511 103.90457 
L 832.46787 110.540212 
L 835.749229 116.6339 
L 839.030588 122.221089 
L 842.311946 127.334647 
L 845.593305 132.005148 
L 848.874664 136.261156 
L 852.156023 140.129339 
L 855.437382 143.63474 
L 858.71874 146.800499 
L 862.000099 149.648233 
L 865.281458 152.19925 
L 868.562817 154.47281 
L 871.844176 156.48643 
L 875.125534 158.256865 
L 878.771489 159.962593 
L 882.417443 161.413864 
L 886.063397 162.62859 
L 889.709351 163.623361 
L 893.719901 164.482196 
L 897.730451 165.113027 
L 902.105596 165.563158 
L 906.845336 165.812966 
L 911.949672 165.855477 
L 917.783199 165.684794 
L 924.345916 165.270611 
L 932.00242 164.562517 
L 979.03523 159.666165 
L 999.452573 158.017772 
L 1025.338848 156.130633 
L 1078.205185 152.667865 
L 1087.32007 152.072123 
L 1087.32007 152.072123 
" clip-path="url(#p8ed44476df)" style="fill: none; stroke: #8172b3; stroke-opacity: 0.9; stroke-width: 3; stroke-linecap: round"/>
   </g>
   <g id="line2d_36">
    <path d="M 821.530007 86.835018 
L 824.811366 94.036012 
L 829.551107 104.162763 
L 832.832465 110.555606 
L 836.113824 116.430706 
L 839.395183 121.822154 
L 842.676542 126.761733 
L 845.957901 131.278869 
L 849.239259 135.400866 
L 852.520618 139.153188 
L 855.801977 142.560267 
L 859.083336 145.645157 
L 862.364695 148.428591 
L 865.646053 150.929904 
L 868.927412 153.16719 
L 872.208771 155.157369 
L 875.854725 157.100714 
L 879.500679 158.784123 
L 883.146634 160.226329 
L 886.792588 161.445135 
L 890.803138 162.54714 
L 894.813687 163.417965 
L 899.188832 164.125485 
L 903.563977 164.603247 
L 908.303718 164.897565 
L 914.137245 165.02642 
L 920.335367 164.939427 
L 927.26268 164.613014 
L 934.919184 164.026406 
L 961.899245 161.502576 
L 997.629596 158.253187 
L 1034.089139 155.451519 
L 1087.32007 151.667051 
L 1087.32007 151.667051 
" clip-path="url(#p8ed44476df)" style="fill: none; stroke: #937860; stroke-opacity: 0.9; stroke-width: 3; stroke-linecap: round"/>
   </g>
   <g id="patch_9">
    <path d="M 808.240504 199.794407 
L 808.240504 81.456 
" style="fill: none; stroke: #ffffff; stroke-width: 1.25; stroke-linejoin: miter; stroke-linecap: square"/>
   </g>
   <g id="patch_10">
    <path d="M 808.240504 199.794407 
L 1100.609573 199.794407 
" style="fill: none; stroke: #ffffff; stroke-width: 1.25; stroke-linejoin: miter; stroke-linecap: square"/>
   </g>
   <g id="text_6">
    <!-- 0.85~90 -->
    <g style="fill: #262626" transform="translate(899.778445 75.456) scale(0.252 -0.252)">
     <use xlink:href="#DejaVuSans-30"/>
     <use xlink:href="#DejaVuSans-2e" x="63.623047"/>
     <use xlink:href="#DejaVuSans-38" x="95.410156"/>
     <use xlink:href="#DejaVuSans-35" x="159.033203"/>
     <use xlink:href="#DejaVuSans-7e" x="222.65625"/>
     <use xlink:href="#DejaVuSans-39" x="306.445312"/>
     <use xlink:href="#DejaVuSans-30" x="370.068359"/>
    </g>
   </g>
  </g>
  <g id="axes_4">
   <g id="patch_11">
    <path d="M 170.340091 373.284 
L 462.70916 373.284 
L 462.70916 254.945593 
L 170.340091 254.945593 
z
" style="fill: #eaeaf2"/>
   </g>
   <g id="matplotlib.axis_7">
    <g id="xtick_13">
     <g id="line2d_37">
      <path d="M 183.629594 373.284 
L 183.629594 254.945593 
" clip-path="url(#p766736a516)" style="fill: none; stroke: #ffffff; stroke-linecap: round"/>
     </g>
     <g id="text_7">
      <!-- 0 -->
      <g style="fill: #262626" transform="translate(176.280907 400.336391) scale(0.231 -0.231)">
       <use xlink:href="#DejaVuSans-30"/>
      </g>
     </g>
    </g>
    <g id="xtick_14">
     <g id="line2d_38">
      <path d="M 274.77845 373.284 
L 274.77845 254.945593 
" clip-path="url(#p766736a516)" style="fill: none; stroke: #ffffff; stroke-linecap: round"/>
     </g>
     <g id="text_8">
      <!-- 250 -->
      <g style="fill: #262626" transform="translate(252.732387 400.336391) scale(0.231 -0.231)">
       <defs>
        <path id="DejaVuSans-32" d="M 1228 531 
L 3431 531 
L 3431 0 
L 469 0 
L 469 531 
Q 828 903 1448 1529 
Q 2069 2156 2228 2338 
Q 2531 2678 2651 2914 
Q 2772 3150 2772 3378 
Q 2772 3750 2511 3984 
Q 2250 4219 1831 4219 
Q 1534 4219 1204 4116 
Q 875 4013 500 3803 
L 500 4441 
Q 881 4594 1212 4672 
Q 1544 4750 1819 4750 
Q 2544 4750 2975 4387 
Q 3406 4025 3406 3419 
Q 3406 3131 3298 2873 
Q 3191 2616 2906 2266 
Q 2828 2175 2409 1742 
Q 1991 1309 1228 531 
z
" transform="scale(0.015625)"/>
       </defs>
       <use xlink:href="#DejaVuSans-32"/>
       <use xlink:href="#DejaVuSans-35" x="63.623047"/>
       <use xlink:href="#DejaVuSans-30" x="127.246094"/>
      </g>
     </g>
    </g>
    <g id="xtick_15">
     <g id="line2d_39">
      <path d="M 365.927305 373.284 
L 365.927305 254.945593 
" clip-path="url(#p766736a516)" style="fill: none; stroke: #ffffff; stroke-linecap: round"/>
     </g>
     <g id="text_9">
      <!-- 500 -->
      <g style="fill: #262626" transform="translate(343.881243 400.336391) scale(0.231 -0.231)">
       <use xlink:href="#DejaVuSans-35"/>
       <use xlink:href="#DejaVuSans-30" x="63.623047"/>
       <use xlink:href="#DejaVuSans-30" x="127.246094"/>
      </g>
     </g>
    </g>
    <g id="xtick_16">
     <g id="line2d_40">
      <path d="M 457.076161 373.284 
L 457.076161 254.945593 
" clip-path="url(#p766736a516)" style="fill: none; stroke: #ffffff; stroke-linecap: round"/>
     </g>
     <g id="text_10">
      <!-- 750 -->
      <g style="fill: #262626" transform="translate(435.030099 400.336391) scale(0.231 -0.231)">
       <defs>
        <path id="DejaVuSans-37" d="M 525 4666 
L 3525 4666 
L 3525 4397 
L 1831 0 
L 1172 0 
L 2766 4134 
L 525 4134 
L 525 4666 
z
" transform="scale(0.015625)"/>
       </defs>
       <use xlink:href="#DejaVuSans-37"/>
       <use xlink:href="#DejaVuSans-35" x="63.623047"/>
       <use xlink:href="#DejaVuSans-30" x="127.246094"/>
      </g>
     </g>
    </g>
    <g id="text_11">
     <!-- step -->
     <g style="fill: #262626" transform="translate(289.269251 428.288531) scale(0.252 -0.252)">
      <defs>
       <path id="DejaVuSans-73" d="M 2834 3397 
L 2834 2853 
Q 2591 2978 2328 3040 
Q 2066 3103 1784 3103 
Q 1356 3103 1142 2972 
Q 928 2841 928 2578 
Q 928 2378 1081 2264 
Q 1234 2150 1697 2047 
L 1894 2003 
Q 2506 1872 2764 1633 
Q 3022 1394 3022 966 
Q 3022 478 2636 193 
Q 2250 -91 1575 -91 
Q 1294 -91 989 -36 
Q 684 19 347 128 
L 347 722 
Q 666 556 975 473 
Q 1284 391 1588 391 
Q 1994 391 2212 530 
Q 2431 669 2431 922 
Q 2431 1156 2273 1281 
Q 2116 1406 1581 1522 
L 1381 1569 
Q 847 1681 609 1914 
Q 372 2147 372 2553 
Q 372 3047 722 3315 
Q 1072 3584 1716 3584 
Q 2034 3584 2315 3537 
Q 2597 3491 2834 3397 
z
" transform="scale(0.015625)"/>
       <path id="DejaVuSans-74" d="M 1172 4494 
L 1172 3500 
L 2356 3500 
L 2356 3053 
L 1172 3053 
L 1172 1153 
Q 1172 725 1289 603 
Q 1406 481 1766 481 
L 2356 481 
L 2356 0 
L 1766 0 
Q 1100 0 847 248 
Q 594 497 594 1153 
L 594 3053 
L 172 3053 
L 172 3500 
L 594 3500 
L 594 4494 
L 1172 4494 
z
" transform="scale(0.015625)"/>
       <path id="DejaVuSans-70" d="M 1159 525 
L 1159 -1331 
L 581 -1331 
L 581 3500 
L 1159 3500 
L 1159 2969 
Q 1341 3281 1617 3432 
Q 1894 3584 2278 3584 
Q 2916 3584 3314 3078 
Q 3713 2572 3713 1747 
Q 3713 922 3314 415 
Q 2916 -91 2278 -91 
Q 1894 -91 1617 61 
Q 1341 213 1159 525 
z
M 3116 1747 
Q 3116 2381 2855 2742 
Q 2594 3103 2138 3103 
Q 1681 3103 1420 2742 
Q 1159 2381 1159 1747 
Q 1159 1113 1420 752 
Q 1681 391 2138 391 
Q 2594 391 2855 752 
Q 3116 1113 3116 1747 
z
" transform="scale(0.015625)"/>
      </defs>
      <use xlink:href="#DejaVuSans-73"/>
      <use xlink:href="#DejaVuSans-74" x="52.099609"/>
      <use xlink:href="#DejaVuSans-65" x="91.308594"/>
      <use xlink:href="#DejaVuSans-70" x="152.832031"/>
     </g>
    </g>
   </g>
   <g id="matplotlib.axis_8">
    <g id="ytick_7">
     <g id="line2d_41">
      <path d="M 170.340091 362.059119 
L 462.70916 362.059119 
" clip-path="url(#p766736a516)" style="fill: none; stroke: #ffffff; stroke-linecap: round"/>
     </g>
     <g id="text_12">
      <!-- −0.1 -->
      <g style="fill: #262626" transform="translate(104.746794 370.835314) scale(0.231 -0.231)">
       <use xlink:href="#DejaVuSans-2212"/>
       <use xlink:href="#DejaVuSans-30" x="83.789062"/>
       <use xlink:href="#DejaVuSans-2e" x="147.412109"/>
       <use xlink:href="#DejaVuSans-31" x="179.199219"/>
      </g>
     </g>
    </g>
    <g id="ytick_8">
     <g id="line2d_42">
      <path d="M 170.340091 260.324612 
L 462.70916 260.324612 
" clip-path="url(#p766736a516)" style="fill: none; stroke: #ffffff; stroke-linecap: round"/>
     </g>
     <g id="text_13">
      <!-- 0.0 -->
      <g style="fill: #262626" transform="translate(124.103872 269.100807) scale(0.231 -0.231)">
       <use xlink:href="#DejaVuSans-30"/>
       <use xlink:href="#DejaVuSans-2e" x="63.623047"/>
       <use xlink:href="#DejaVuSans-30" x="95.410156"/>
      </g>
     </g>
    </g>
    <g id="text_14">
     <!-- % change -->
     <g style="fill: #262626" transform="translate(95.505982 376.46314) rotate(-90) scale(0.252 -0.252)">
      <use xlink:href="#DejaVuSans-25"/>
      <use xlink:href="#DejaVuSans-20" x="95.019531"/>
      <use xlink:href="#DejaVuSans-63" x="126.806641"/>
      <use xlink:href="#DejaVuSans-68" x="181.787109"/>
      <use xlink:href="#DejaVuSans-61" x="245.166016"/>
      <use xlink:href="#DejaVuSans-6e" x="306.445312"/>
      <use xlink:href="#DejaVuSans-67" x="369.824219"/>
      <use xlink:href="#DejaVuSans-65" x="433.300781"/>
     </g>
    </g>
   </g>
   <g id="PolyCollection_19"/>
   <g id="PolyCollection_20"/>
   <g id="PolyCollection_21"/>
   <g id="PolyCollection_22"/>
   <g id="PolyCollection_23"/>
   <g id="PolyCollection_24"/>
   <g id="line2d_43">
    <path d="M 183.629594 260.324612 
L 186.546358 266.675933 
L 192.015289 278.430628 
L 195.296648 284.923637 
L 198.578007 290.971552 
L 202.223961 297.203686 
L 205.869915 302.957057 
L 209.515869 308.265026 
L 213.161823 313.158609 
L 216.807778 317.666655 
L 220.453732 321.815992 
L 224.099686 325.63155 
L 227.74564 329.136943 
L 231.391595 332.354059 
L 235.402144 335.583816 
L 239.412694 338.514089 
L 243.423244 341.1681 
L 247.433793 343.566948 
L 251.808938 345.915702 
L 256.184083 348.007249 
L 260.923824 350.010484 
L 265.663564 351.769782 
L 270.7679 353.418433 
L 275.872236 354.839001 
L 281.341167 356.133184 
L 287.174694 357.280879 
L 293.372816 358.26627 
L 299.935534 359.077828 
L 306.862847 359.708045 
L 314.519351 360.170304 
L 322.905046 360.439961 
L 333.842908 360.553148 
L 346.239153 360.447755 
L 449.419657 358.968248 
L 449.419657 358.968248 
" clip-path="url(#p766736a516)" style="fill: none; stroke: #4c72b0; stroke-opacity: 0.9; stroke-width: 3; stroke-linecap: round"/>
   </g>
   <g id="line2d_44">
    <path d="M 183.629594 260.324612 
L 185.817167 264.991432 
L 192.015289 278.193649 
L 195.296648 284.623522 
L 198.942602 291.256567 
L 202.588556 297.388023 
L 206.23451 303.052909 
L 209.880465 308.283763 
L 213.526419 313.110969 
L 217.172373 317.562697 
L 220.818327 321.665152 
L 224.464282 325.442679 
L 228.110236 328.917901 
L 231.75619 332.111868 
L 235.76674 335.323726 
L 239.777289 338.243086 
L 243.787839 340.892748 
L 247.798389 343.29367 
L 252.173534 345.651401 
L 256.548679 347.75832 
L 261.288419 349.782203 
L 266.02816 351.561317 
L 271.132496 353.229043 
L 276.601427 354.765357 
L 282.070358 356.076241 
L 287.903885 357.253255 
L 294.102007 358.281239 
L 300.664725 359.149075 
L 307.956633 359.880721 
L 315.613137 360.421098 
L 323.998832 360.786291 
L 334.572099 361.013849 
L 346.603748 361.048787 
L 377.594359 360.763186 
L 439.575581 359.878546 
L 449.419657 359.705493 
L 449.419657 359.705493 
" clip-path="url(#p766736a516)" style="fill: none; stroke: #dd8452; stroke-opacity: 0.9; stroke-width: 3; stroke-linecap: round"/>
   </g>
   <g id="line2d_45">
    <path d="M 183.629594 260.324612 
L 185.452571 264.554783 
L 192.015289 279.794645 
L 195.296648 286.782644 
L 198.578007 293.289448 
L 201.859365 299.345771 
L 205.140724 304.980351 
L 208.786678 310.779278 
L 212.432633 316.125089 
L 216.078587 321.049225 
L 219.724541 325.58101 
L 223.370495 329.74774 
L 227.01645 333.574756 
L 230.662404 337.085609 
L 234.308358 340.30229 
L 237.954312 343.245492 
L 241.964862 346.190214 
L 245.975411 348.851068 
L 249.985961 351.250359 
L 254.361106 353.593321 
L 258.736251 355.674002 
L 263.111396 357.515183 
L 267.851137 359.263235 
L 272.590877 360.778251 
L 277.695213 362.174478 
L 283.164145 363.427952 
L 288.997671 364.521556 
L 295.195794 365.443723 
L 301.758511 366.185238 
L 308.685824 366.73944 
L 315.977733 367.103324 
L 324.363427 367.290222 
L 334.936695 367.28794 
L 368.479473 366.872311 
L 449.419657 365.800347 
L 449.419657 365.800347 
" clip-path="url(#p766736a516)" style="fill: none; stroke: #55a868; stroke-opacity: 0.9; stroke-width: 3; stroke-linecap: round"/>
   </g>
   <g id="line2d_46">
    <path d="M 183.629594 260.324612 
L 185.452571 264.418853 
L 192.015289 279.174459 
L 195.296648 285.942496 
L 198.578007 292.245368 
L 201.859365 298.11265 
L 205.50532 304.154394 
L 209.151274 309.727476 
L 212.797228 314.864528 
L 216.443182 319.595877 
L 220.089136 323.949745 
L 223.735091 327.952397 
L 227.381045 331.62827 
L 231.026999 335.000088 
L 234.672953 338.089028 
L 238.683503 341.183727 
L 242.694053 343.984708 
L 246.704602 346.5146 
L 250.715152 348.794573 
L 255.090297 351.020152 
L 259.465442 352.99573 
L 264.205183 354.87901 
L 268.944923 356.519841 
L 274.049259 358.042058 
L 279.153595 359.336191 
L 284.622526 360.496858 
L 290.456053 361.507669 
L 296.654175 362.356646 
L 303.216893 363.036291 
L 310.508801 363.561757 
L 318.165305 363.889317 
L 327.280191 364.041774 
L 339.31184 364.002763 
L 383.06329 363.493586 
L 449.419657 362.590282 
L 449.419657 362.590282 
" clip-path="url(#p766736a516)" style="fill: none; stroke: #c44e52; stroke-opacity: 0.9; stroke-width: 3; stroke-linecap: round"/>
   </g>
   <g id="line2d_47">
    <path d="M 183.629594 260.324612 
L 186.181762 266.108816 
L 192.015289 279.179517 
L 195.296648 285.936521 
L 198.578007 292.231017 
L 201.859365 298.092407 
L 205.50532 304.130428 
L 209.151274 309.702628 
L 212.797228 314.841517 
L 216.443182 319.577288 
L 220.089136 323.938 
L 223.735091 327.94969 
L 227.381045 331.636538 
L 231.026999 335.020999 
L 234.672953 338.123939 
L 238.683503 341.235128 
L 242.694053 344.053082 
L 246.704602 346.599957 
L 250.715152 348.896228 
L 255.090297 351.137616 
L 259.465442 353.125817 
L 263.840587 354.881732 
L 268.580328 356.544685 
L 273.320068 357.980418 
L 278.424404 359.295674 
L 283.893335 360.465094 
L 289.726862 361.47149 
L 295.924984 362.299387 
L 302.487702 362.936264 
L 309.415015 363.37388 
L 316.706923 363.608405 
L 325.092618 363.65145 
L 335.665885 363.469924 
L 349.155916 363.003678 
L 366.656496 362.165519 
L 383.792481 361.3724 
L 406.032802 360.59678 
L 437.388008 359.75121 
L 449.419657 359.461917 
L 449.419657 359.461917 
" clip-path="url(#p766736a516)" style="fill: none; stroke: #8172b3; stroke-opacity: 0.9; stroke-width: 3; stroke-linecap: round"/>
   </g>
   <g id="line2d_48">
    <path d="M 183.629594 260.324612 
L 186.546358 266.752425 
L 192.015289 278.632929 
L 195.296648 285.194042 
L 198.578007 291.30729 
L 202.223961 297.609172 
L 205.869915 303.429794 
L 209.515869 308.802987 
L 213.161823 313.760156 
L 216.807778 318.330446 
L 220.453732 322.540868 
L 224.099686 326.416515 
L 227.74564 329.980686 
L 231.391595 333.255033 
L 235.402144 336.546065 
L 239.412694 339.535554 
L 243.423244 342.246352 
L 247.433793 344.69959 
L 251.808938 347.10502 
L 256.184083 349.251026 
L 260.559228 351.159243 
L 265.298969 352.980864 
L 270.038709 354.569246 
L 275.143045 356.042762 
L 280.611977 357.374814 
L 286.080908 358.479566 
L 291.914435 359.435852 
L 298.112557 360.228501 
L 304.675275 360.846643 
L 311.967183 361.300101 
L 319.623687 361.549363 
L 329.103168 361.616672 
L 340.770221 361.474349 
L 354.624847 361.076026 
L 417.33526 358.959426 
L 449.419657 358.077312 
L 449.419657 358.077312 
" clip-path="url(#p766736a516)" style="fill: none; stroke: #937860; stroke-opacity: 0.9; stroke-width: 3; stroke-linecap: round"/>
   </g>
   <g id="patch_12">
    <path d="M 170.340091 373.284 
L 170.340091 254.945593 
" style="fill: none; stroke: #ffffff; stroke-width: 1.25; stroke-linejoin: miter; stroke-linecap: square"/>
   </g>
   <g id="patch_13">
    <path d="M 170.340091 373.284 
L 462.70916 373.284 
" style="fill: none; stroke: #ffffff; stroke-width: 1.25; stroke-linejoin: miter; stroke-linecap: square"/>
   </g>
   <g id="text_15">
    <!-- 0.85~365 -->
    <g style="fill: #262626" transform="translate(253.861282 248.945593) scale(0.252 -0.252)">
     <use xlink:href="#DejaVuSans-30"/>
     <use xlink:href="#DejaVuSans-2e" x="63.623047"/>
     <use xlink:href="#DejaVuSans-38" x="95.410156"/>
     <use xlink:href="#DejaVuSans-35" x="159.033203"/>
     <use xlink:href="#DejaVuSans-7e" x="222.65625"/>
     <use xlink:href="#DejaVuSans-33" x="306.445312"/>
     <use xlink:href="#DejaVuSans-36" x="370.068359"/>
     <use xlink:href="#DejaVuSans-35" x="433.691406"/>
    </g>
   </g>
  </g>
  <g id="axes_5">
   <g id="patch_14">
    <path d="M 489.290298 373.284 
L 781.659367 373.284 
L 781.659367 254.945593 
L 489.290298 254.945593 
z
" style="fill: #eaeaf2"/>
   </g>
   <g id="matplotlib.axis_9">
    <g id="xtick_17">
     <g id="line2d_49">
      <path d="M 502.579801 373.284 
L 502.579801 254.945593 
" clip-path="url(#p0363b3cd99)" style="fill: none; stroke: #ffffff; stroke-linecap: round"/>
     </g>
     <g id="text_16">
      <!-- 0 -->
      <g style="fill: #262626" transform="translate(495.231113 400.336391) scale(0.231 -0.231)">
       <use xlink:href="#DejaVuSans-30"/>
      </g>
     </g>
    </g>
    <g id="xtick_18">
     <g id="line2d_50">
      <path d="M 593.728656 373.284 
L 593.728656 254.945593 
" clip-path="url(#p0363b3cd99)" style="fill: none; stroke: #ffffff; stroke-linecap: round"/>
     </g>
     <g id="text_17">
      <!-- 250 -->
      <g style="fill: #262626" transform="translate(571.682594 400.336391) scale(0.231 -0.231)">
       <use xlink:href="#DejaVuSans-32"/>
       <use xlink:href="#DejaVuSans-35" x="63.623047"/>
       <use xlink:href="#DejaVuSans-30" x="127.246094"/>
      </g>
     </g>
    </g>
    <g id="xtick_19">
     <g id="line2d_51">
      <path d="M 684.877512 373.284 
L 684.877512 254.945593 
" clip-path="url(#p0363b3cd99)" style="fill: none; stroke: #ffffff; stroke-linecap: round"/>
     </g>
     <g id="text_18">
      <!-- 500 -->
      <g style="fill: #262626" transform="translate(662.83145 400.336391) scale(0.231 -0.231)">
       <use xlink:href="#DejaVuSans-35"/>
       <use xlink:href="#DejaVuSans-30" x="63.623047"/>
       <use xlink:href="#DejaVuSans-30" x="127.246094"/>
      </g>
     </g>
    </g>
    <g id="xtick_20">
     <g id="line2d_52">
      <path d="M 776.026368 373.284 
L 776.026368 254.945593 
" clip-path="url(#p0363b3cd99)" style="fill: none; stroke: #ffffff; stroke-linecap: round"/>
     </g>
     <g id="text_19">
      <!-- 750 -->
      <g style="fill: #262626" transform="translate(753.980305 400.336391) scale(0.231 -0.231)">
       <use xlink:href="#DejaVuSans-37"/>
       <use xlink:href="#DejaVuSans-35" x="63.623047"/>
       <use xlink:href="#DejaVuSans-30" x="127.246094"/>
      </g>
     </g>
    </g>
    <g id="text_20">
     <!-- step -->
     <g style="fill: #262626" transform="translate(608.219457 428.288531) scale(0.252 -0.252)">
      <use xlink:href="#DejaVuSans-73"/>
      <use xlink:href="#DejaVuSans-74" x="52.099609"/>
      <use xlink:href="#DejaVuSans-65" x="91.308594"/>
      <use xlink:href="#DejaVuSans-70" x="152.832031"/>
     </g>
    </g>
   </g>
   <g id="matplotlib.axis_10">
    <g id="ytick_9">
     <g id="line2d_53">
      <path d="M 489.290298 362.059119 
L 781.659367 362.059119 
" clip-path="url(#p0363b3cd99)" style="fill: none; stroke: #ffffff; stroke-linecap: round"/>
     </g>
    </g>
    <g id="ytick_10">
     <g id="line2d_54">
      <path d="M 489.290298 260.324612 
L 781.659367 260.324612 
" clip-path="url(#p0363b3cd99)" style="fill: none; stroke: #ffffff; stroke-linecap: round"/>
     </g>
    </g>
   </g>
   <g id="PolyCollection_25"/>
   <g id="PolyCollection_26"/>
   <g id="PolyCollection_27"/>
   <g id="PolyCollection_28"/>
   <g id="PolyCollection_29"/>
   <g id="PolyCollection_30"/>
   <g id="line2d_55">
    <path d="M 502.579801 260.324612 
L 505.86116 267.439757 
L 510.6009 277.450156 
L 513.882259 283.76509 
L 517.163618 289.561502 
L 520.444976 294.873149 
L 523.726335 299.732308 
L 527.007694 304.169463 
L 530.289053 308.212178 
L 533.570412 311.885747 
L 536.85177 315.213893 
L 540.133129 318.225391 
L 543.414488 320.946935 
L 546.695847 323.397175 
L 550.341801 325.826098 
L 553.987755 327.970756 
L 557.63371 329.851668 
L 561.279664 331.487969 
L 564.925618 332.897496 
L 568.936168 334.205943 
L 572.946717 335.280887 
L 577.321862 336.209584 
L 581.697007 336.905837 
L 586.436748 337.423746 
L 592.270275 337.810989 
L 598.468397 337.989641 
L 605.760305 337.955336 
L 617.791954 337.671349 
L 636.021725 336.96266 
L 653.886901 336.070257 
L 679.043985 334.581205 
L 716.961909 332.299507 
L 768.369864 329.157896 
L 768.369864 329.157896 
" clip-path="url(#p0363b3cd99)" style="fill: none; stroke: #4c72b0; stroke-opacity: 0.9; stroke-width: 3; stroke-linecap: round"/>
   </g>
   <g id="line2d_56">
    <path d="M 502.579801 260.324612 
L 505.131969 265.764212 
L 510.6009 277.255886 
L 513.882259 283.541061 
L 517.163618 289.326556 
L 520.444976 294.644821 
L 523.726335 299.525798 
L 527.007694 303.997202 
L 530.289053 308.085407 
L 533.570412 311.816088 
L 536.85177 315.212221 
L 540.133129 318.29582 
L 543.414488 321.087919 
L 546.695847 323.607429 
L 550.341801 326.116535 
L 553.987755 328.347561 
L 557.63371 330.325679 
L 561.644259 332.233889 
L 565.654809 333.883061 
L 569.665358 335.293593 
L 574.040504 336.582477 
L 578.415649 337.632679 
L 582.790794 338.465086 
L 587.530534 339.143778 
L 592.999466 339.697963 
L 599.197588 340.099749 
L 606.124901 340.307996 
L 615.968977 340.37314 
L 626.542244 340.214149 
L 638.938489 339.798304 
L 657.897451 338.91973 
L 675.762626 337.952759 
L 697.638352 336.542094 
L 753.056856 332.639959 
L 768.369864 331.553524 
L 768.369864 331.553524 
" clip-path="url(#p0363b3cd99)" style="fill: none; stroke: #dd8452; stroke-opacity: 0.9; stroke-width: 3; stroke-linecap: round"/>
   </g>
   <g id="line2d_57">
    <path d="M 502.579801 260.324612 
L 504.767373 265.40076 
L 510.236305 277.945347 
L 513.517663 284.802971 
L 516.799022 291.094275 
L 520.080381 296.857324 
L 523.36174 302.12711 
L 526.643099 306.935786 
L 529.924457 311.313269 
L 533.205816 315.287403 
L 536.487175 318.884976 
L 539.768534 322.131238 
L 543.049893 325.054135 
L 546.331251 327.676498 
L 549.61261 330.02223 
L 552.893969 332.112818 
L 556.539923 334.157797 
L 560.185878 335.930147 
L 563.831832 337.44936 
L 567.477786 338.737577 
L 571.488336 339.909021 
L 575.498885 340.843602 
L 579.509435 341.559595 
L 583.88458 342.110979 
L 588.62432 342.473175 
L 594.093252 342.659565 
L 600.655969 342.643109 
L 610.864641 342.360065 
L 626.90684 341.696626 
L 661.908 339.952887 
L 753.786047 335.190736 
L 768.369864 334.40599 
L 768.369864 334.40599 
" clip-path="url(#p0363b3cd99)" style="fill: none; stroke: #55a868; stroke-opacity: 0.9; stroke-width: 3; stroke-linecap: round"/>
   </g>
   <g id="line2d_58">
    <path d="M 502.579801 260.324612 
L 504.767373 265.237915 
L 510.236305 277.384828 
L 513.517663 284.027429 
L 516.799022 290.122565 
L 520.080381 295.706241 
L 523.36174 300.811567 
L 526.643099 305.469295 
L 529.924457 309.708359 
L 533.205816 313.556697 
L 536.487175 317.047796 
L 539.768534 320.209565 
L 543.049893 323.062877 
L 546.331251 325.626667 
L 549.61261 327.921358 
L 553.258564 330.183532 
L 556.904519 332.162189 
L 560.550473 333.875739 
L 564.196427 335.342483 
L 567.842381 336.584663 
L 571.852931 337.712671 
L 575.863481 338.614957 
L 580.238626 339.361557 
L 584.613771 339.879333 
L 589.353511 340.217074 
L 595.187038 340.397511 
L 602.478947 340.379196 
L 614.146 340.091136 
L 630.552794 339.440678 
L 663.730978 337.8699 
L 723.160031 334.760144 
L 768.369864 332.241483 
L 768.369864 332.241483 
" clip-path="url(#p0363b3cd99)" style="fill: none; stroke: #c44e52; stroke-opacity: 0.9; stroke-width: 3; stroke-linecap: round"/>
   </g>
   <g id="line2d_59">
    <path d="M 502.579801 260.324612 
L 505.496564 266.912492 
L 510.236305 277.394163 
L 513.517663 284.029805 
L 516.799022 290.123493 
L 520.080381 295.710682 
L 523.36174 300.82424 
L 526.643099 305.494741 
L 529.924457 309.750749 
L 533.205816 313.618932 
L 536.487175 317.124333 
L 539.768534 320.290092 
L 543.049893 323.137826 
L 546.331251 325.688843 
L 549.61261 327.962403 
L 552.893969 329.976023 
L 556.175328 331.746458 
L 559.821282 333.452186 
L 563.467236 334.903457 
L 567.113191 336.118183 
L 570.759145 337.112954 
L 574.769694 337.971789 
L 578.780244 338.60262 
L 583.155389 339.052751 
L 587.89513 339.302559 
L 592.999466 339.345071 
L 598.832992 339.174387 
L 605.39571 338.760205 
L 613.052214 338.05211 
L 660.085023 333.155758 
L 680.502367 331.507365 
L 706.388642 329.620226 
L 759.254978 326.157458 
L 768.369864 325.561716 
L 768.369864 325.561716 
" clip-path="url(#p0363b3cd99)" style="fill: none; stroke: #8172b3; stroke-opacity: 0.9; stroke-width: 3; stroke-linecap: round"/>
   </g>
   <g id="line2d_60">
    <path d="M 502.579801 260.324612 
L 505.86116 267.525605 
L 510.6009 277.652356 
L 513.882259 284.045199 
L 517.163618 289.920299 
L 520.444976 295.311747 
L 523.726335 300.251326 
L 527.007694 304.768462 
L 530.289053 308.890459 
L 533.570412 312.642781 
L 536.85177 316.04986 
L 540.133129 319.13475 
L 543.414488 321.918184 
L 546.695847 324.419497 
L 549.977206 326.656783 
L 553.258564 328.646962 
L 556.904519 330.590307 
L 560.550473 332.273716 
L 564.196427 333.715922 
L 567.842381 334.934728 
L 571.852931 336.036733 
L 575.863481 336.907558 
L 580.238626 337.615078 
L 584.613771 338.09284 
L 589.353511 338.387158 
L 595.187038 338.516013 
L 601.38516 338.42902 
L 608.312473 338.102607 
L 615.968977 337.515999 
L 642.949038 334.992169 
L 678.67939 331.74278 
L 715.138932 328.941112 
L 768.369864 325.156644 
L 768.369864 325.156644 
" clip-path="url(#p0363b3cd99)" style="fill: none; stroke: #937860; stroke-opacity: 0.9; stroke-width: 3; stroke-linecap: round"/>
   </g>
   <g id="patch_15">
    <path d="M 489.290298 373.284 
L 489.290298 254.945593 
" style="fill: none; stroke: #ffffff; stroke-width: 1.25; stroke-linejoin: miter; stroke-linecap: square"/>
   </g>
   <g id="patch_16">
    <path d="M 489.290298 373.284 
L 781.659367 373.284 
" style="fill: none; stroke: #ffffff; stroke-width: 1.25; stroke-linejoin: miter; stroke-linecap: square"/>
   </g>
   <g id="text_21">
    <!-- 0.95~90 -->
    <g style="fill: #262626" transform="translate(580.828239 248.945593) scale(0.252 -0.252)">
     <use xlink:href="#DejaVuSans-30"/>
     <use xlink:href="#DejaVuSans-2e" x="63.623047"/>
     <use xlink:href="#DejaVuSans-39" x="95.410156"/>
     <use xlink:href="#DejaVuSans-35" x="159.033203"/>
     <use xlink:href="#DejaVuSans-7e" x="222.65625"/>
     <use xlink:href="#DejaVuSans-39" x="306.445312"/>
     <use xlink:href="#DejaVuSans-30" x="370.068359"/>
    </g>
   </g>
  </g>
  <g id="axes_6">
   <g id="patch_17">
    <path d="M 808.240504 373.284 
L 1100.609573 373.284 
L 1100.609573 254.945593 
L 808.240504 254.945593 
z
" style="fill: #eaeaf2"/>
   </g>
   <g id="matplotlib.axis_11">
    <g id="xtick_21">
     <g id="line2d_61">
      <path d="M 821.530007 373.284 
L 821.530007 254.945593 
" clip-path="url(#p86d80ee4f3)" style="fill: none; stroke: #ffffff; stroke-linecap: round"/>
     </g>
     <g id="text_22">
      <!-- 0 -->
      <g style="fill: #262626" transform="translate(814.18132 400.336391) scale(0.231 -0.231)">
       <use xlink:href="#DejaVuSans-30"/>
      </g>
     </g>
    </g>
    <g id="xtick_22">
     <g id="line2d_62">
      <path d="M 912.678863 373.284 
L 912.678863 254.945593 
" clip-path="url(#p86d80ee4f3)" style="fill: none; stroke: #ffffff; stroke-linecap: round"/>
     </g>
     <g id="text_23">
      <!-- 250 -->
      <g style="fill: #262626" transform="translate(890.6328 400.336391) scale(0.231 -0.231)">
       <use xlink:href="#DejaVuSans-32"/>
       <use xlink:href="#DejaVuSans-35" x="63.623047"/>
       <use xlink:href="#DejaVuSans-30" x="127.246094"/>
      </g>
     </g>
    </g>
    <g id="xtick_23">
     <g id="line2d_63">
      <path d="M 1003.827719 373.284 
L 1003.827719 254.945593 
" clip-path="url(#p86d80ee4f3)" style="fill: none; stroke: #ffffff; stroke-linecap: round"/>
     </g>
     <g id="text_24">
      <!-- 500 -->
      <g style="fill: #262626" transform="translate(981.781656 400.336391) scale(0.231 -0.231)">
       <use xlink:href="#DejaVuSans-35"/>
       <use xlink:href="#DejaVuSans-30" x="63.623047"/>
       <use xlink:href="#DejaVuSans-30" x="127.246094"/>
      </g>
     </g>
    </g>
    <g id="xtick_24">
     <g id="line2d_64">
      <path d="M 1094.976574 373.284 
L 1094.976574 254.945593 
" clip-path="url(#p86d80ee4f3)" style="fill: none; stroke: #ffffff; stroke-linecap: round"/>
     </g>
     <g id="text_25">
      <!-- 750 -->
      <g style="fill: #262626" transform="translate(1072.930512 400.336391) scale(0.231 -0.231)">
       <use xlink:href="#DejaVuSans-37"/>
       <use xlink:href="#DejaVuSans-35" x="63.623047"/>
       <use xlink:href="#DejaVuSans-30" x="127.246094"/>
      </g>
     </g>
    </g>
    <g id="text_26">
     <!-- step -->
     <g style="fill: #262626" transform="translate(927.169664 428.288531) scale(0.252 -0.252)">
      <use xlink:href="#DejaVuSans-73"/>
      <use xlink:href="#DejaVuSans-74" x="52.099609"/>
      <use xlink:href="#DejaVuSans-65" x="91.308594"/>
      <use xlink:href="#DejaVuSans-70" x="152.832031"/>
     </g>
    </g>
   </g>
   <g id="matplotlib.axis_12">
    <g id="ytick_11">
     <g id="line2d_65">
      <path d="M 808.240504 362.059119 
L 1100.609573 362.059119 
" clip-path="url(#p86d80ee4f3)" style="fill: none; stroke: #ffffff; stroke-linecap: round"/>
     </g>
    </g>
    <g id="ytick_12">
     <g id="line2d_66">
      <path d="M 808.240504 260.324612 
L 1100.609573 260.324612 
" clip-path="url(#p86d80ee4f3)" style="fill: none; stroke: #ffffff; stroke-linecap: round"/>
     </g>
    </g>
   </g>
   <g id="PolyCollection_31"/>
   <g id="PolyCollection_32"/>
   <g id="PolyCollection_33"/>
   <g id="PolyCollection_34"/>
   <g id="PolyCollection_35"/>
   <g id="PolyCollection_36"/>
   <g id="line2d_67">
    <path d="M 821.530007 260.324612 
L 824.446771 266.675933 
L 829.915702 278.430628 
L 833.197061 284.923637 
L 836.47842 290.971552 
L 840.124374 297.203686 
L 843.770328 302.957057 
L 847.416282 308.265026 
L 851.062237 313.158609 
L 854.708191 317.666655 
L 858.354145 321.815992 
L 862.000099 325.63155 
L 865.646053 329.136943 
L 869.292008 332.354059 
L 873.302557 335.583816 
L 877.313107 338.514089 
L 881.323657 341.1681 
L 885.334206 343.566948 
L 889.709351 345.915702 
L 894.084496 348.007249 
L 898.824237 350.010484 
L 903.563977 351.769782 
L 908.668313 353.418433 
L 913.772649 354.839001 
L 919.241581 356.133184 
L 925.075107 357.280879 
L 931.273229 358.26627 
L 937.835947 359.077828 
L 944.76326 359.708045 
L 952.419764 360.170304 
L 960.805459 360.439961 
L 971.743321 360.553148 
L 984.139566 360.447755 
L 1087.32007 358.968248 
L 1087.32007 358.968248 
" clip-path="url(#p86d80ee4f3)" style="fill: none; stroke: #4c72b0; stroke-opacity: 0.9; stroke-width: 3; stroke-linecap: round"/>
   </g>
   <g id="line2d_68">
    <path d="M 821.530007 260.324612 
L 823.71758 264.991432 
L 829.915702 278.193649 
L 833.197061 284.623522 
L 836.843015 291.256567 
L 840.488969 297.388023 
L 844.134923 303.052909 
L 847.780878 308.283763 
L 851.426832 313.110969 
L 855.072786 317.562697 
L 858.71874 321.665152 
L 862.364695 325.442679 
L 866.010649 328.917901 
L 869.656603 332.111868 
L 873.667153 335.323726 
L 877.677702 338.243086 
L 881.688252 340.892748 
L 885.698802 343.29367 
L 890.073947 345.651401 
L 894.449092 347.75832 
L 899.188832 349.782203 
L 903.928573 351.561317 
L 909.032909 353.229043 
L 914.50184 354.765357 
L 919.970771 356.076241 
L 925.804298 357.253255 
L 932.00242 358.281239 
L 938.565138 359.149075 
L 945.857046 359.880721 
L 953.51355 360.421098 
L 961.899245 360.786291 
L 972.472512 361.013849 
L 984.504161 361.048787 
L 1015.494772 360.763186 
L 1077.475994 359.878546 
L 1087.32007 359.705493 
L 1087.32007 359.705493 
" clip-path="url(#p86d80ee4f3)" style="fill: none; stroke: #dd8452; stroke-opacity: 0.9; stroke-width: 3; stroke-linecap: round"/>
   </g>
   <g id="line2d_69">
    <path d="M 821.530007 260.324612 
L 823.352984 264.554783 
L 829.915702 279.794645 
L 833.197061 286.782644 
L 836.47842 293.289448 
L 839.759778 299.345771 
L 843.041137 304.980351 
L 846.687091 310.779278 
L 850.333046 316.125089 
L 853.979 321.049225 
L 857.624954 325.58101 
L 861.270908 329.749759 
L 864.916863 333.588728 
L 868.562817 337.121945 
L 872.573366 340.68429 
L 876.583916 343.933692 
L 880.594466 346.890077 
L 884.605015 349.568784 
L 888.615565 351.985304 
L 892.99071 354.347161 
L 897.365855 356.447601 
L 901.741 358.304907 
L 906.480741 360.06154 
L 911.220481 361.576835 
L 916.324817 362.961626 
L 921.429153 364.11973 
L 926.898084 365.139533 
L 933.096207 366.057013 
L 939.658924 366.793586 
L 946.586237 367.342533 
L 953.878146 367.700864 
L 962.26384 367.882161 
L 972.837108 367.874468 
L 1009.29665 367.414257 
L 1087.32007 366.369577 
L 1087.32007 366.369577 
" clip-path="url(#p86d80ee4f3)" style="fill: none; stroke: #55a868; stroke-opacity: 0.9; stroke-width: 3; stroke-linecap: round"/>
   </g>
   <g id="line2d_70">
    <path d="M 821.530007 260.324612 
L 823.352984 264.418853 
L 829.915702 279.174459 
L 833.197061 285.942496 
L 836.47842 292.245368 
L 839.759778 298.11265 
L 843.405733 304.154394 
L 847.051687 309.727476 
L 850.697641 314.864528 
L 854.343595 319.601178 
L 857.98955 323.977751 
L 861.635504 328.016872 
L 865.281458 331.738738 
L 868.927412 335.163635 
L 872.937962 338.618623 
L 876.948512 341.77325 
L 880.959061 344.644802 
L 884.969611 347.246972 
L 888.98016 349.593638 
L 893.355306 351.884833 
L 897.730451 353.918972 
L 902.105596 355.713927 
L 906.845336 357.410761 
L 911.585077 358.875071 
L 916.689413 360.21476 
L 921.793748 361.33114 
L 927.26268 362.308457 
L 933.460802 363.188466 
L 940.02352 363.895838 
L 946.950833 364.424593 
L 954.607336 364.784024 
L 963.357627 364.959011 
L 974.660085 364.946343 
L 1011.119627 364.533866 
L 1087.32007 363.474309 
L 1087.32007 363.474309 
" clip-path="url(#p86d80ee4f3)" style="fill: none; stroke: #c44e52; stroke-opacity: 0.9; stroke-width: 3; stroke-linecap: round"/>
   </g>
   <g id="line2d_71">
    <path d="M 821.530007 260.324612 
L 824.082175 266.108816 
L 829.915702 279.179517 
L 833.197061 285.936521 
L 836.47842 292.231017 
L 839.759778 298.092407 
L 843.405733 304.130428 
L 847.051687 309.702628 
L 850.697641 314.841517 
L 854.343595 319.577288 
L 857.98955 323.938 
L 861.635504 327.94969 
L 865.281458 331.636538 
L 868.927412 335.020999 
L 872.573366 338.123939 
L 876.583916 341.235128 
L 880.594466 344.053082 
L 884.605015 346.599957 
L 888.615565 348.896228 
L 892.99071 351.137616 
L 897.365855 353.125817 
L 901.741 354.881732 
L 906.480741 356.544685 
L 911.220481 357.980418 
L 916.324817 359.295674 
L 921.793748 360.465094 
L 927.627275 361.47149 
L 933.825397 362.299387 
L 940.388115 362.936264 
L 947.315428 363.37388 
L 954.607336 363.608405 
L 962.993031 363.65145 
L 973.566298 363.469924 
L 987.056329 363.003678 
L 1004.556909 362.165519 
L 1021.692894 361.3724 
L 1043.933215 360.59678 
L 1075.288421 359.75121 
L 1087.32007 359.461917 
L 1087.32007 359.461917 
" clip-path="url(#p86d80ee4f3)" style="fill: none; stroke: #8172b3; stroke-opacity: 0.9; stroke-width: 3; stroke-linecap: round"/>
   </g>
   <g id="line2d_72">
    <path d="M 821.530007 260.324612 
L 824.446771 266.752425 
L 829.915702 278.632929 
L 833.197061 285.194042 
L 836.47842 291.30729 
L 840.124374 297.609172 
L 843.770328 303.429794 
L 847.416282 308.802987 
L 851.062237 313.760156 
L 854.708191 318.330446 
L 858.354145 322.540868 
L 862.000099 326.416515 
L 865.646053 329.980686 
L 869.292008 333.255033 
L 873.302557 336.546065 
L 877.313107 339.535554 
L 881.323657 342.246352 
L 885.334206 344.69959 
L 889.709351 347.10502 
L 894.084496 349.251026 
L 898.459641 351.159243 
L 903.199382 352.980864 
L 907.939122 354.569246 
L 913.043458 356.042762 
L 918.51239 357.374814 
L 923.981321 358.479566 
L 929.814848 359.435852 
L 936.01297 360.228501 
L 942.575688 360.846643 
L 949.867596 361.300101 
L 957.5241 361.549363 
L 967.003581 361.616672 
L 978.670634 361.474349 
L 992.52526 361.076026 
L 1055.235673 358.959426 
L 1087.32007 358.077312 
L 1087.32007 358.077312 
" clip-path="url(#p86d80ee4f3)" style="fill: none; stroke: #937860; stroke-opacity: 0.9; stroke-width: 3; stroke-linecap: round"/>
   </g>
   <g id="patch_18">
    <path d="M 808.240504 373.284 
L 808.240504 254.945593 
" style="fill: none; stroke: #ffffff; stroke-width: 1.25; stroke-linejoin: miter; stroke-linecap: square"/>
   </g>
   <g id="patch_19">
    <path d="M 808.240504 373.284 
L 1100.609573 373.284 
" style="fill: none; stroke: #ffffff; stroke-width: 1.25; stroke-linejoin: miter; stroke-linecap: square"/>
   </g>
   <g id="text_27">
    <!-- 0.95~365 -->
    <g style="fill: #262626" transform="translate(891.761695 248.945593) scale(0.252 -0.252)">
     <use xlink:href="#DejaVuSans-30"/>
     <use xlink:href="#DejaVuSans-2e" x="63.623047"/>
     <use xlink:href="#DejaVuSans-39" x="95.410156"/>
     <use xlink:href="#DejaVuSans-35" x="159.033203"/>
     <use xlink:href="#DejaVuSans-7e" x="222.65625"/>
     <use xlink:href="#DejaVuSans-33" x="306.445312"/>
     <use xlink:href="#DejaVuSans-36" x="370.068359"/>
     <use xlink:href="#DejaVuSans-35" x="433.691406"/>
    </g>
   </g>
  </g>
  <g id="text_28">
   <!-- Production change from pre-shock level -->
   <g style="fill: #262626" transform="translate(280.766836 30.177675) scale(0.3024 -0.3024)">
    <defs>
     <path id="DejaVuSans-50" d="M 1259 4147 
L 1259 2394 
L 2053 2394 
Q 2494 2394 2734 2622 
Q 2975 2850 2975 3272 
Q 2975 3691 2734 3919 
Q 2494 4147 2053 4147 
L 1259 4147 
z
M 628 4666 
L 2053 4666 
Q 2838 4666 3239 4311 
Q 3641 3956 3641 3272 
Q 3641 2581 3239 2228 
Q 2838 1875 2053 1875 
L 1259 1875 
L 1259 0 
L 628 0 
L 628 4666 
z
" transform="scale(0.015625)"/>
     <path id="DejaVuSans-72" d="M 2631 2963 
Q 2534 3019 2420 3045 
Q 2306 3072 2169 3072 
Q 1681 3072 1420 2755 
Q 1159 2438 1159 1844 
L 1159 0 
L 581 0 
L 581 3500 
L 1159 3500 
L 1159 2956 
Q 1341 3275 1631 3429 
Q 1922 3584 2338 3584 
Q 2397 3584 2469 3576 
Q 2541 3569 2628 3553 
L 2631 2963 
z
" transform="scale(0.015625)"/>
     <path id="DejaVuSans-6f" d="M 1959 3097 
Q 1497 3097 1228 2736 
Q 959 2375 959 1747 
Q 959 1119 1226 758 
Q 1494 397 1959 397 
Q 2419 397 2687 759 
Q 2956 1122 2956 1747 
Q 2956 2369 2687 2733 
Q 2419 3097 1959 3097 
z
M 1959 3584 
Q 2709 3584 3137 3096 
Q 3566 2609 3566 1747 
Q 3566 888 3137 398 
Q 2709 -91 1959 -91 
Q 1206 -91 779 398 
Q 353 888 353 1747 
Q 353 2609 779 3096 
Q 1206 3584 1959 3584 
z
" transform="scale(0.015625)"/>
     <path id="DejaVuSans-64" d="M 2906 2969 
L 2906 4863 
L 3481 4863 
L 3481 0 
L 2906 0 
L 2906 525 
Q 2725 213 2448 61 
Q 2172 -91 1784 -91 
Q 1150 -91 751 415 
Q 353 922 353 1747 
Q 353 2572 751 3078 
Q 1150 3584 1784 3584 
Q 2172 3584 2448 3432 
Q 2725 3281 2906 2969 
z
M 947 1747 
Q 947 1113 1208 752 
Q 1469 391 1925 391 
Q 2381 391 2643 752 
Q 2906 1113 2906 1747 
Q 2906 2381 2643 2742 
Q 2381 3103 1925 3103 
Q 1469 3103 1208 2742 
Q 947 2381 947 1747 
z
" transform="scale(0.015625)"/>
     <path id="DejaVuSans-75" d="M 544 1381 
L 544 3500 
L 1119 3500 
L 1119 1403 
Q 1119 906 1312 657 
Q 1506 409 1894 409 
Q 2359 409 2629 706 
Q 2900 1003 2900 1516 
L 2900 3500 
L 3475 3500 
L 3475 0 
L 2900 0 
L 2900 538 
Q 2691 219 2414 64 
Q 2138 -91 1772 -91 
Q 1169 -91 856 284 
Q 544 659 544 1381 
z
M 1991 3584 
L 1991 3584 
z
" transform="scale(0.015625)"/>
     <path id="DejaVuSans-69" d="M 603 3500 
L 1178 3500 
L 1178 0 
L 603 0 
L 603 3500 
z
M 603 4863 
L 1178 4863 
L 1178 4134 
L 603 4134 
L 603 4863 
z
" transform="scale(0.015625)"/>
     <path id="DejaVuSans-66" d="M 2375 4863 
L 2375 4384 
L 1825 4384 
Q 1516 4384 1395 4259 
Q 1275 4134 1275 3809 
L 1275 3500 
L 2222 3500 
L 2222 3053 
L 1275 3053 
L 1275 0 
L 697 0 
L 697 3053 
L 147 3053 
L 147 3500 
L 697 3500 
L 697 3744 
Q 697 4328 969 4595 
Q 1241 4863 1831 4863 
L 2375 4863 
z
" transform="scale(0.015625)"/>
     <path id="DejaVuSans-6d" d="M 3328 2828 
Q 3544 3216 3844 3400 
Q 4144 3584 4550 3584 
Q 5097 3584 5394 3201 
Q 5691 2819 5691 2113 
L 5691 0 
L 5113 0 
L 5113 2094 
Q 5113 2597 4934 2840 
Q 4756 3084 4391 3084 
Q 3944 3084 3684 2787 
Q 3425 2491 3425 1978 
L 3425 0 
L 2847 0 
L 2847 2094 
Q 2847 2600 2669 2842 
Q 2491 3084 2119 3084 
Q 1678 3084 1418 2786 
Q 1159 2488 1159 1978 
L 1159 0 
L 581 0 
L 581 3500 
L 1159 3500 
L 1159 2956 
Q 1356 3278 1631 3431 
Q 1906 3584 2284 3584 
Q 2666 3584 2933 3390 
Q 3200 3197 3328 2828 
z
" transform="scale(0.015625)"/>
     <path id="DejaVuSans-2d" d="M 313 2009 
L 1997 2009 
L 1997 1497 
L 313 1497 
L 313 2009 
z
" transform="scale(0.015625)"/>
     <path id="DejaVuSans-6b" d="M 581 4863 
L 1159 4863 
L 1159 1991 
L 2875 3500 
L 3609 3500 
L 1753 1863 
L 3688 0 
L 2938 0 
L 1159 1709 
L 1159 0 
L 581 0 
L 581 4863 
z
" transform="scale(0.015625)"/>
     <path id="DejaVuSans-6c" d="M 603 4863 
L 1178 4863 
L 1178 0 
L 603 0 
L 603 4863 
z
" transform="scale(0.015625)"/>
     <path id="DejaVuSans-76" d="M 191 3500 
L 800 3500 
L 1894 563 
L 2988 3500 
L 3597 3500 
L 2284 0 
L 1503 0 
L 191 3500 
z
" transform="scale(0.015625)"/>
    </defs>
    <use xlink:href="#DejaVuSans-50"/>
    <use xlink:href="#DejaVuSans-72" x="58.552734"/>
    <use xlink:href="#DejaVuSans-6f" x="97.416016"/>
    <use xlink:href="#DejaVuSans-64" x="158.597656"/>
    <use xlink:href="#DejaVuSans-75" x="222.074219"/>
    <use xlink:href="#DejaVuSans-63" x="285.453125"/>
    <use xlink:href="#DejaVuSans-74" x="340.433594"/>
    <use xlink:href="#DejaVuSans-69" x="379.642578"/>
    <use xlink:href="#DejaVuSans-6f" x="407.425781"/>
    <use xlink:href="#DejaVuSans-6e" x="468.607422"/>
    <use xlink:href="#DejaVuSans-20" x="531.986328"/>
    <use xlink:href="#DejaVuSans-63" x="563.773438"/>
    <use xlink:href="#DejaVuSans-68" x="618.753906"/>
    <use xlink:href="#DejaVuSans-61" x="682.132812"/>
    <use xlink:href="#DejaVuSans-6e" x="743.412109"/>
    <use xlink:href="#DejaVuSans-67" x="806.791016"/>
    <use xlink:href="#DejaVuSans-65" x="870.267578"/>
    <use xlink:href="#DejaVuSans-20" x="931.791016"/>
    <use xlink:href="#DejaVuSans-66" x="963.578125"/>
    <use xlink:href="#DejaVuSans-72" x="998.783203"/>
    <use xlink:href="#DejaVuSans-6f" x="1037.646484"/>
    <use xlink:href="#DejaVuSans-6d" x="1098.828125"/>
    <use xlink:href="#DejaVuSans-20" x="1196.240234"/>
    <use xlink:href="#DejaVuSans-70" x="1228.027344"/>
    <use xlink:href="#DejaVuSans-72" x="1291.503906"/>
    <use xlink:href="#DejaVuSans-65" x="1330.367188"/>
    <use xlink:href="#DejaVuSans-2d" x="1391.890625"/>
    <use xlink:href="#DejaVuSans-73" x="1427.974609"/>
    <use xlink:href="#DejaVuSans-68" x="1480.074219"/>
    <use xlink:href="#DejaVuSans-6f" x="1543.453125"/>
    <use xlink:href="#DejaVuSans-63" x="1604.634766"/>
    <use xlink:href="#DejaVuSans-6b" x="1659.615234"/>
    <use xlink:href="#DejaVuSans-20" x="1717.525391"/>
    <use xlink:href="#DejaVuSans-6c" x="1749.3125"/>
    <use xlink:href="#DejaVuSans-65" x="1777.095703"/>
    <use xlink:href="#DejaVuSans-76" x="1838.619141"/>
    <use xlink:href="#DejaVuSans-65" x="1897.798828"/>
    <use xlink:href="#DejaVuSans-6c" x="1959.322266"/>
   </g>
  </g>
  <g id="legend_1">
   <g id="patch_20">
    <path d="M 11.82 584.31675 
L 1292.617547 584.31675 
Q 1297.237547 584.31675 1297.237547 579.69675 
L 1297.237547 476.97 
Q 1297.237547 472.35 1292.617547 472.35 
L 11.82 472.35 
Q 7.2 472.35 7.2 476.97 
L 7.2 579.69675 
Q 7.2 584.31675 11.82 584.31675 
z
" style="fill: #eaeaf2; opacity: 0.8; stroke: #cccccc; stroke-linejoin: miter"/>
   </g>
   <g id="text_29">
    <!-- Experiences -->
    <g style="fill: #262626" transform="translate(575.384367 500.738062) scale(0.252 -0.252)">
     <defs>
      <path id="DejaVuSans-45" d="M 628 4666 
L 3578 4666 
L 3578 4134 
L 1259 4134 
L 1259 2753 
L 3481 2753 
L 3481 2222 
L 1259 2222 
L 1259 531 
L 3634 531 
L 3634 0 
L 628 0 
L 628 4666 
z
" transform="scale(0.015625)"/>
      <path id="DejaVuSans-78" d="M 3513 3500 
L 2247 1797 
L 3578 0 
L 2900 0 
L 1881 1375 
L 863 0 
L 184 0 
L 1544 1831 
L 300 3500 
L 978 3500 
L 1906 2253 
L 2834 3500 
L 3513 3500 
z
" transform="scale(0.015625)"/>
     </defs>
     <use xlink:href="#DejaVuSans-45"/>
     <use xlink:href="#DejaVuSans-78" x="63.183594"/>
     <use xlink:href="#DejaVuSans-70" x="122.363281"/>
     <use xlink:href="#DejaVuSans-65" x="185.839844"/>
     <use xlink:href="#DejaVuSans-72" x="247.363281"/>
     <use xlink:href="#DejaVuSans-69" x="288.476562"/>
     <use xlink:href="#DejaVuSans-65" x="316.259766"/>
     <use xlink:href="#DejaVuSans-6e" x="377.783203"/>
     <use xlink:href="#DejaVuSans-63" x="441.162109"/>
     <use xlink:href="#DejaVuSans-65" x="496.142578"/>
     <use xlink:href="#DejaVuSans-73" x="557.666016"/>
    </g>
   </g>
   <g id="line2d_73">
    <path d="M 16.44 526.996266 
L 39.54 526.996266 
L 62.64 526.996266 
" style="fill: none; stroke: #4c72b0; stroke-opacity: 0.9; stroke-width: 3; stroke-linecap: round"/>
   </g>
   <g id="text_30">
    <!-- eora26_full_2000 -->
    <g style="fill: #262626" transform="translate(81.12 535.081266) scale(0.231 -0.231)">
     <defs>
      <path id="DejaVuSans-5f" d="M 3263 -1063 
L 3263 -1509 
L -63 -1509 
L -63 -1063 
L 3263 -1063 
z
" transform="scale(0.015625)"/>
     </defs>
     <use xlink:href="#DejaVuSans-65"/>
     <use xlink:href="#DejaVuSans-6f" x="61.523438"/>
     <use xlink:href="#DejaVuSans-72" x="122.705078"/>
     <use xlink:href="#DejaVuSans-61" x="163.818359"/>
     <use xlink:href="#DejaVuSans-32" x="225.097656"/>
     <use xlink:href="#DejaVuSans-36" x="288.720703"/>
     <use xlink:href="#DejaVuSans-5f" x="352.34375"/>
     <use xlink:href="#DejaVuSans-66" x="402.34375"/>
     <use xlink:href="#DejaVuSans-75" x="437.548828"/>
     <use xlink:href="#DejaVuSans-6c" x="500.927734"/>
     <use xlink:href="#DejaVuSans-6c" x="528.710938"/>
     <use xlink:href="#DejaVuSans-5f" x="556.494141"/>
     <use xlink:href="#DejaVuSans-32" x="606.494141"/>
     <use xlink:href="#DejaVuSans-30" x="670.117188"/>
     <use xlink:href="#DejaVuSans-30" x="733.740234"/>
     <use xlink:href="#DejaVuSans-30" x="797.363281"/>
    </g>
   </g>
   <g id="line2d_74">
    <path d="M 16.44 561.545203 
L 39.54 561.545203 
L 62.64 561.545203 
" style="fill: none; stroke: #dd8452; stroke-opacity: 0.9; stroke-width: 3; stroke-linecap: round"/>
   </g>
   <g id="text_31">
    <!-- eora26_full_2010 -->
    <g style="fill: #262626" transform="translate(81.12 569.630203) scale(0.231 -0.231)">
     <use xlink:href="#DejaVuSans-65"/>
     <use xlink:href="#DejaVuSans-6f" x="61.523438"/>
     <use xlink:href="#DejaVuSans-72" x="122.705078"/>
     <use xlink:href="#DejaVuSans-61" x="163.818359"/>
     <use xlink:href="#DejaVuSans-32" x="225.097656"/>
     <use xlink:href="#DejaVuSans-36" x="288.720703"/>
     <use xlink:href="#DejaVuSans-5f" x="352.34375"/>
     <use xlink:href="#DejaVuSans-66" x="402.34375"/>
     <use xlink:href="#DejaVuSans-75" x="437.548828"/>
     <use xlink:href="#DejaVuSans-6c" x="500.927734"/>
     <use xlink:href="#DejaVuSans-6c" x="528.710938"/>
     <use xlink:href="#DejaVuSans-5f" x="556.494141"/>
     <use xlink:href="#DejaVuSans-32" x="606.494141"/>
     <use xlink:href="#DejaVuSans-30" x="670.117188"/>
     <use xlink:href="#DejaVuSans-31" x="733.740234"/>
     <use xlink:href="#DejaVuSans-30" x="797.363281"/>
    </g>
   </g>
   <g id="line2d_75">
    <path d="M 326.211 526.996266 
L 349.311 526.996266 
L 372.411 526.996266 
" style="fill: none; stroke: #55a868; stroke-opacity: 0.9; stroke-width: 3; stroke-linecap: round"/>
   </g>
   <g id="text_32">
    <!-- euregio_full_2000 -->
    <g style="fill: #262626" transform="translate(390.891 535.081266) scale(0.231 -0.231)">
     <use xlink:href="#DejaVuSans-65"/>
     <use xlink:href="#DejaVuSans-75" x="61.523438"/>
     <use xlink:href="#DejaVuSans-72" x="124.902344"/>
     <use xlink:href="#DejaVuSans-65" x="163.765625"/>
     <use xlink:href="#DejaVuSans-67" x="225.289062"/>
     <use xlink:href="#DejaVuSans-69" x="288.765625"/>
     <use xlink:href="#DejaVuSans-6f" x="316.548828"/>
     <use xlink:href="#DejaVuSans-5f" x="377.730469"/>
     <use xlink:href="#DejaVuSans-66" x="427.730469"/>
     <use xlink:href="#DejaVuSans-75" x="462.935547"/>
     <use xlink:href="#DejaVuSans-6c" x="526.314453"/>
     <use xlink:href="#DejaVuSans-6c" x="554.097656"/>
     <use xlink:href="#DejaVuSans-5f" x="581.880859"/>
     <use xlink:href="#DejaVuSans-32" x="631.880859"/>
     <use xlink:href="#DejaVuSans-30" x="695.503906"/>
     <use xlink:href="#DejaVuSans-30" x="759.126953"/>
     <use xlink:href="#DejaVuSans-30" x="822.75"/>
    </g>
   </g>
   <g id="line2d_76">
    <path d="M 326.211 561.545203 
L 349.311 561.545203 
L 372.411 561.545203 
" style="fill: none; stroke: #c44e52; stroke-opacity: 0.9; stroke-width: 3; stroke-linecap: round"/>
   </g>
   <g id="text_33">
    <!-- euregio_full_2010 -->
    <g style="fill: #262626" transform="translate(390.891 569.630203) scale(0.231 -0.231)">
     <use xlink:href="#DejaVuSans-65"/>
     <use xlink:href="#DejaVuSans-75" x="61.523438"/>
     <use xlink:href="#DejaVuSans-72" x="124.902344"/>
     <use xlink:href="#DejaVuSans-65" x="163.765625"/>
     <use xlink:href="#DejaVuSans-67" x="225.289062"/>
     <use xlink:href="#DejaVuSans-69" x="288.765625"/>
     <use xlink:href="#DejaVuSans-6f" x="316.548828"/>
     <use xlink:href="#DejaVuSans-5f" x="377.730469"/>
     <use xlink:href="#DejaVuSans-66" x="427.730469"/>
     <use xlink:href="#DejaVuSans-75" x="462.935547"/>
     <use xlink:href="#DejaVuSans-6c" x="526.314453"/>
     <use xlink:href="#DejaVuSans-6c" x="554.097656"/>
     <use xlink:href="#DejaVuSans-5f" x="581.880859"/>
     <use xlink:href="#DejaVuSans-32" x="631.880859"/>
     <use xlink:href="#DejaVuSans-30" x="695.503906"/>
     <use xlink:href="#DejaVuSans-31" x="759.126953"/>
     <use xlink:href="#DejaVuSans-30" x="822.75"/>
    </g>
   </g>
   <g id="line2d_77">
    <path d="M 641.847234 526.996266 
L 664.947234 526.996266 
L 688.047234 526.996266 
" style="fill: none; stroke: #8172b3; stroke-opacity: 0.9; stroke-width: 3; stroke-linecap: round"/>
   </g>
   <g id="text_34">
    <!-- exiobase3_full_2000 -->
    <g style="fill: #262626" transform="translate(706.527234 535.081266) scale(0.231 -0.231)">
     <defs>
      <path id="DejaVuSans-62" d="M 3116 1747 
Q 3116 2381 2855 2742 
Q 2594 3103 2138 3103 
Q 1681 3103 1420 2742 
Q 1159 2381 1159 1747 
Q 1159 1113 1420 752 
Q 1681 391 2138 391 
Q 2594 391 2855 752 
Q 3116 1113 3116 1747 
z
M 1159 2969 
Q 1341 3281 1617 3432 
Q 1894 3584 2278 3584 
Q 2916 3584 3314 3078 
Q 3713 2572 3713 1747 
Q 3713 922 3314 415 
Q 2916 -91 2278 -91 
Q 1894 -91 1617 61 
Q 1341 213 1159 525 
L 1159 0 
L 581 0 
L 581 4863 
L 1159 4863 
L 1159 2969 
z
" transform="scale(0.015625)"/>
     </defs>
     <use xlink:href="#DejaVuSans-65"/>
     <use xlink:href="#DejaVuSans-78" x="59.773438"/>
     <use xlink:href="#DejaVuSans-69" x="118.953125"/>
     <use xlink:href="#DejaVuSans-6f" x="146.736328"/>
     <use xlink:href="#DejaVuSans-62" x="207.917969"/>
     <use xlink:href="#DejaVuSans-61" x="271.394531"/>
     <use xlink:href="#DejaVuSans-73" x="332.673828"/>
     <use xlink:href="#DejaVuSans-65" x="384.773438"/>
     <use xlink:href="#DejaVuSans-33" x="446.296875"/>
     <use xlink:href="#DejaVuSans-5f" x="509.919922"/>
     <use xlink:href="#DejaVuSans-66" x="559.919922"/>
     <use xlink:href="#DejaVuSans-75" x="595.125"/>
     <use xlink:href="#DejaVuSans-6c" x="658.503906"/>
     <use xlink:href="#DejaVuSans-6c" x="686.287109"/>
     <use xlink:href="#DejaVuSans-5f" x="714.070312"/>
     <use xlink:href="#DejaVuSans-32" x="764.070312"/>
     <use xlink:href="#DejaVuSans-30" x="827.693359"/>
     <use xlink:href="#DejaVuSans-30" x="891.316406"/>
     <use xlink:href="#DejaVuSans-30" x="954.939453"/>
    </g>
   </g>
   <g id="line2d_78">
    <path d="M 988.022391 526.996266 
L 1011.122391 526.996266 
L 1034.222391 526.996266 
" style="fill: none; stroke: #937860; stroke-opacity: 0.9; stroke-width: 3; stroke-linecap: round"/>
   </g>
   <g id="text_35">
    <!-- exiobase3_full_2010 -->
    <g style="fill: #262626" transform="translate(1052.702391 535.081266) scale(0.231 -0.231)">
     <use xlink:href="#DejaVuSans-65"/>
     <use xlink:href="#DejaVuSans-78" x="59.773438"/>
     <use xlink:href="#DejaVuSans-69" x="118.953125"/>
     <use xlink:href="#DejaVuSans-6f" x="146.736328"/>
     <use xlink:href="#DejaVuSans-62" x="207.917969"/>
     <use xlink:href="#DejaVuSans-61" x="271.394531"/>
     <use xlink:href="#DejaVuSans-73" x="332.673828"/>
     <use xlink:href="#DejaVuSans-65" x="384.773438"/>
     <use xlink:href="#DejaVuSans-33" x="446.296875"/>
     <use xlink:href="#DejaVuSans-5f" x="509.919922"/>
     <use xlink:href="#DejaVuSans-66" x="559.919922"/>
     <use xlink:href="#DejaVuSans-75" x="595.125"/>
     <use xlink:href="#DejaVuSans-6c" x="658.503906"/>
     <use xlink:href="#DejaVuSans-6c" x="686.287109"/>
     <use xlink:href="#DejaVuSans-5f" x="714.070312"/>
     <use xlink:href="#DejaVuSans-32" x="764.070312"/>
     <use xlink:href="#DejaVuSans-30" x="827.693359"/>
     <use xlink:href="#DejaVuSans-31" x="891.316406"/>
     <use xlink:href="#DejaVuSans-30" x="954.939453"/>
    </g>
   </g>
  </g>
 </g>
 <defs>
  <clipPath id="p99b12ccda2">
   <rect x="170.340091" y="81.456" width="292.369069" height="118.338407"/>
  </clipPath>
  <clipPath id="paa7800d8bb">
   <rect x="489.290298" y="81.456" width="292.369069" height="118.338407"/>
  </clipPath>
  <clipPath id="p8ed44476df">
   <rect x="808.240504" y="81.456" width="292.369069" height="118.338407"/>
  </clipPath>
  <clipPath id="p766736a516">
   <rect x="170.340091" y="254.945593" width="292.369069" height="118.338407"/>
  </clipPath>
  <clipPath id="p0363b3cd99">
   <rect x="489.290298" y="254.945593" width="292.369069" height="118.338407"/>
  </clipPath>
  <clipPath id="p86d80ee4f3">
   <rect x="808.240504" y="254.945593" width="292.369069" height="118.338407"/>
  </clipPath>
 </defs>
</svg>
