<?xml version="1.0" encoding="utf-8" standalone="no"?>
<!DOCTYPE svg PUBLIC "-//W3C//DTD SVG 1.1//EN"
  "http://www.w3.org/Graphics/SVG/1.1/DTD/svg11.dtd">
<svg xmlns:xlink="http://www.w3.org/1999/xlink" width="1304.437547pt" height="591.51675pt" viewBox="0 0 1304.437547 591.51675" xmlns="http://www.w3.org/2000/svg" version="1.1">
 <metadata>
  <rdf:RDF xmlns:dc="http://purl.org/dc/elements/1.1/" xmlns:cc="http://creativecommons.org/ns#" xmlns:rdf="http://www.w3.org/1999/02/22-rdf-syntax-ns#">
   <cc:Work>
    <dc:type rdf:resource="http://purl.org/dc/dcmitype/StillImage"/>
    <dc:date>2023-04-20T13:53:31.766312</dc:date>
    <dc:format>image/svg+xml</dc:format>
    <dc:creator>
     <cc:Agent>
      <dc:title>Matplotlib v3.7.1, https://matplotlib.org/</dc:title>
     </cc:Agent>
    </dc:creator>
   </cc:Work>
  </rdf:RDF>
 </metadata>
 <defs>
  <style type="text/css">*{stroke-linejoin: round; stroke-linecap: butt}</style>
 </defs>
 <g id="figure_1">
  <g id="patch_1">
   <path d="M 0 591.51675 
L 1304.437547 591.51675 
L 1304.437547 -0 
L 0 -0 
z
" style="fill: #ffffff"/>
  </g>
  <g id="axes_1">
   <g id="patch_2">
    <path d="M 142.032503 201.042 
L 443.709706 201.042 
L 443.709706 81.456 
L 142.032503 81.456 
z
" style="fill: #eaeaf2"/>
   </g>
   <g id="matplotlib.axis_1">
    <g id="xtick_1">
     <g id="line2d_1">
      <path d="M 155.745103 201.042 
L 155.745103 81.456 
" clip-path="url(#pfcced7b8f7)" style="fill: none; stroke: #ffffff; stroke-linecap: round"/>
     </g>
    </g>
    <g id="xtick_2">
     <g id="line2d_2">
      <path d="M 249.795858 201.042 
L 249.795858 81.456 
" clip-path="url(#pfcced7b8f7)" style="fill: none; stroke: #ffffff; stroke-linecap: round"/>
     </g>
    </g>
    <g id="xtick_3">
     <g id="line2d_3">
      <path d="M 343.846614 201.042 
L 343.846614 81.456 
" clip-path="url(#pfcced7b8f7)" style="fill: none; stroke: #ffffff; stroke-linecap: round"/>
     </g>
    </g>
    <g id="xtick_4">
     <g id="line2d_4">
      <path d="M 437.897369 201.042 
L 437.897369 81.456 
" clip-path="url(#pfcced7b8f7)" style="fill: none; stroke: #ffffff; stroke-linecap: round"/>
     </g>
    </g>
   </g>
   <g id="matplotlib.axis_2">
    <g id="ytick_1">
     <g id="line2d_5">
      <path d="M 142.032503 182.559001 
L 443.709706 182.559001 
" clip-path="url(#pfcced7b8f7)" style="fill: none; stroke: #ffffff; stroke-linecap: round"/>
     </g>
     <g id="text_1">
      <!-- −5 -->
      <g style="fill: #262626" transform="translate(98.47805 191.335196) scale(0.231 -0.231)">
       <defs>
        <path id="DejaVuSans-2212" d="M 678 2272 
L 4684 2272 
L 4684 1741 
L 678 1741 
L 678 2272 
z
" transform="scale(0.015625)"/>
        <path id="DejaVuSans-35" d="M 691 4666 
L 3169 4666 
L 3169 4134 
L 1269 4134 
L 1269 2991 
Q 1406 3038 1543 3061 
Q 1681 3084 1819 3084 
Q 2600 3084 3056 2656 
Q 3513 2228 3513 1497 
Q 3513 744 3044 326 
Q 2575 -91 1722 -91 
Q 1428 -91 1123 -41 
Q 819 9 494 109 
L 494 744 
Q 775 591 1075 516 
Q 1375 441 1709 441 
Q 2250 441 2565 725 
Q 2881 1009 2881 1497 
Q 2881 1984 2565 2268 
Q 2250 2553 1709 2553 
Q 1456 2553 1204 2497 
Q 953 2441 691 2322 
L 691 4666 
z
" transform="scale(0.015625)"/>
       </defs>
       <use xlink:href="#DejaVuSans-2212"/>
       <use xlink:href="#DejaVuSans-35" x="83.789062"/>
      </g>
     </g>
    </g>
    <g id="ytick_2">
     <g id="line2d_6">
      <path d="M 142.032503 117.567268 
L 443.709706 117.567268 
" clip-path="url(#pfcced7b8f7)" style="fill: none; stroke: #ffffff; stroke-linecap: round"/>
     </g>
     <g id="text_2">
      <!-- 0 -->
      <g style="fill: #262626" transform="translate(117.835128 126.343464) scale(0.231 -0.231)">
       <defs>
        <path id="DejaVuSans-30" d="M 2034 4250 
Q 1547 4250 1301 3770 
Q 1056 3291 1056 2328 
Q 1056 1369 1301 889 
Q 1547 409 2034 409 
Q 2525 409 2770 889 
Q 3016 1369 3016 2328 
Q 3016 3291 2770 3770 
Q 2525 4250 2034 4250 
z
M 2034 4750 
Q 2819 4750 3233 4129 
Q 3647 3509 3647 2328 
Q 3647 1150 3233 529 
Q 2819 -91 2034 -91 
Q 1250 -91 836 529 
Q 422 1150 422 2328 
Q 422 3509 836 4129 
Q 1250 4750 2034 4750 
z
" transform="scale(0.015625)"/>
       </defs>
       <use xlink:href="#DejaVuSans-30"/>
      </g>
     </g>
    </g>
    <g id="text_3">
     <!-- % change -->
     <g style="fill: #262626" transform="translate(89.237237 203.597344) rotate(-90) scale(0.252 -0.252)">
      <defs>
       <path id="DejaVuSans-25" d="M 4653 2053 
Q 4381 2053 4226 1822 
Q 4072 1591 4072 1178 
Q 4072 772 4226 539 
Q 4381 306 4653 306 
Q 4919 306 5073 539 
Q 5228 772 5228 1178 
Q 5228 1588 5073 1820 
Q 4919 2053 4653 2053 
z
M 4653 2450 
Q 5147 2450 5437 2106 
Q 5728 1763 5728 1178 
Q 5728 594 5436 251 
Q 5144 -91 4653 -91 
Q 4153 -91 3862 251 
Q 3572 594 3572 1178 
Q 3572 1766 3864 2108 
Q 4156 2450 4653 2450 
z
M 1428 4353 
Q 1159 4353 1004 4120 
Q 850 3888 850 3481 
Q 850 3069 1003 2837 
Q 1156 2606 1428 2606 
Q 1700 2606 1854 2837 
Q 2009 3069 2009 3481 
Q 2009 3884 1853 4118 
Q 1697 4353 1428 4353 
z
M 4250 4750 
L 4750 4750 
L 1831 -91 
L 1331 -91 
L 4250 4750 
z
M 1428 4750 
Q 1922 4750 2215 4408 
Q 2509 4066 2509 3481 
Q 2509 2891 2217 2550 
Q 1925 2209 1428 2209 
Q 931 2209 642 2551 
Q 353 2894 353 3481 
Q 353 4063 643 4406 
Q 934 4750 1428 4750 
z
" transform="scale(0.015625)"/>
       <path id="DejaVuSans-20" transform="scale(0.015625)"/>
       <path id="DejaVuSans-63" d="M 3122 3366 
L 3122 2828 
Q 2878 2963 2633 3030 
Q 2388 3097 2138 3097 
Q 1578 3097 1268 2742 
Q 959 2388 959 1747 
Q 959 1106 1268 751 
Q 1578 397 2138 397 
Q 2388 397 2633 464 
Q 2878 531 3122 666 
L 3122 134 
Q 2881 22 2623 -34 
Q 2366 -91 2075 -91 
Q 1284 -91 818 406 
Q 353 903 353 1747 
Q 353 2603 823 3093 
Q 1294 3584 2113 3584 
Q 2378 3584 2631 3529 
Q 2884 3475 3122 3366 
z
" transform="scale(0.015625)"/>
       <path id="DejaVuSans-68" d="M 3513 2113 
L 3513 0 
L 2938 0 
L 2938 2094 
Q 2938 2591 2744 2837 
Q 2550 3084 2163 3084 
Q 1697 3084 1428 2787 
Q 1159 2491 1159 1978 
L 1159 0 
L 581 0 
L 581 4863 
L 1159 4863 
L 1159 2956 
Q 1366 3272 1645 3428 
Q 1925 3584 2291 3584 
Q 2894 3584 3203 3211 
Q 3513 2838 3513 2113 
z
" transform="scale(0.015625)"/>
       <path id="DejaVuSans-61" d="M 2194 1759 
Q 1497 1759 1228 1600 
Q 959 1441 959 1056 
Q 959 750 1161 570 
Q 1363 391 1709 391 
Q 2188 391 2477 730 
Q 2766 1069 2766 1631 
L 2766 1759 
L 2194 1759 
z
M 3341 1997 
L 3341 0 
L 2766 0 
L 2766 531 
Q 2569 213 2275 61 
Q 1981 -91 1556 -91 
Q 1019 -91 701 211 
Q 384 513 384 1019 
Q 384 1609 779 1909 
Q 1175 2209 1959 2209 
L 2766 2209 
L 2766 2266 
Q 2766 2663 2505 2880 
Q 2244 3097 1772 3097 
Q 1472 3097 1187 3025 
Q 903 2953 641 2809 
L 641 3341 
Q 956 3463 1253 3523 
Q 1550 3584 1831 3584 
Q 2591 3584 2966 3190 
Q 3341 2797 3341 1997 
z
" transform="scale(0.015625)"/>
       <path id="DejaVuSans-6e" d="M 3513 2113 
L 3513 0 
L 2938 0 
L 2938 2094 
Q 2938 2591 2744 2837 
Q 2550 3084 2163 3084 
Q 1697 3084 1428 2787 
Q 1159 2491 1159 1978 
L 1159 0 
L 581 0 
L 581 3500 
L 1159 3500 
L 1159 2956 
Q 1366 3272 1645 3428 
Q 1925 3584 2291 3584 
Q 2894 3584 3203 3211 
Q 3513 2838 3513 2113 
z
" transform="scale(0.015625)"/>
       <path id="DejaVuSans-67" d="M 2906 1791 
Q 2906 2416 2648 2759 
Q 2391 3103 1925 3103 
Q 1463 3103 1205 2759 
Q 947 2416 947 1791 
Q 947 1169 1205 825 
Q 1463 481 1925 481 
Q 2391 481 2648 825 
Q 2906 1169 2906 1791 
z
M 3481 434 
Q 3481 -459 3084 -895 
Q 2688 -1331 1869 -1331 
Q 1566 -1331 1297 -1286 
Q 1028 -1241 775 -1147 
L 775 -588 
Q 1028 -725 1275 -790 
Q 1522 -856 1778 -856 
Q 2344 -856 2625 -561 
Q 2906 -266 2906 331 
L 2906 616 
Q 2728 306 2450 153 
Q 2172 0 1784 0 
Q 1141 0 747 490 
Q 353 981 353 1791 
Q 353 2603 747 3093 
Q 1141 3584 1784 3584 
Q 2172 3584 2450 3431 
Q 2728 3278 2906 2969 
L 2906 3500 
L 3481 3500 
L 3481 434 
z
" transform="scale(0.015625)"/>
       <path id="DejaVuSans-65" d="M 3597 1894 
L 3597 1613 
L 953 1613 
Q 991 1019 1311 708 
Q 1631 397 2203 397 
Q 2534 397 2845 478 
Q 3156 559 3463 722 
L 3463 178 
Q 3153 47 2828 -22 
Q 2503 -91 2169 -91 
Q 1331 -91 842 396 
Q 353 884 353 1716 
Q 353 2575 817 3079 
Q 1281 3584 2069 3584 
Q 2775 3584 3186 3129 
Q 3597 2675 3597 1894 
z
M 3022 2063 
Q 3016 2534 2758 2815 
Q 2500 3097 2075 3097 
Q 1594 3097 1305 2825 
Q 1016 2553 972 2059 
L 3022 2063 
z
" transform="scale(0.015625)"/>
      </defs>
      <use xlink:href="#DejaVuSans-25"/>
      <use xlink:href="#DejaVuSans-20" x="95.019531"/>
      <use xlink:href="#DejaVuSans-63" x="126.806641"/>
      <use xlink:href="#DejaVuSans-68" x="181.787109"/>
      <use xlink:href="#DejaVuSans-61" x="245.166016"/>
      <use xlink:href="#DejaVuSans-6e" x="306.445312"/>
      <use xlink:href="#DejaVuSans-67" x="369.824219"/>
      <use xlink:href="#DejaVuSans-65" x="433.300781"/>
     </g>
    </g>
   </g>
   <g id="PolyCollection_1"/>
   <g id="PolyCollection_2"/>
   <g id="PolyCollection_3"/>
   <g id="PolyCollection_4"/>
   <g id="PolyCollection_5"/>
   <g id="PolyCollection_6"/>
   <g id="line2d_7">
    <path d="M 155.745103 117.567268 
L 156.121306 124.147161 
L 156.497509 124.354476 
L 157.626118 124.340541 
L 161.011945 124.037913 
L 161.388148 123.788277 
L 168.536006 122.035069 
L 177.188675 120.094153 
L 189.227172 117.63172 
L 201.265669 115.397523 
L 212.927962 113.455403 
L 224.214053 111.795975 
L 235.123941 110.411898 
L 246.033828 109.252125 
L 255.815107 108.415137 
L 264.091573 108.061917 
L 278.387288 107.861542 
L 288.168567 107.960199 
L 303.216688 108.431051 
L 311.493154 108.876328 
L 329.927102 109.409753 
L 358.894735 110.051916 
L 407.424925 110.88437 
L 429.997106 111.208076 
L 429.997106 111.208076 
" clip-path="url(#pfcced7b8f7)" style="fill: none; stroke: #4c72b0; stroke-opacity: 0.9; stroke-width: 3; stroke-linecap: round"/>
   </g>
   <g id="line2d_8">
    <path d="M 155.745103 117.567268 
L 156.121306 121.155978 
L 156.873712 121.335748 
L 159.507133 121.252704 
L 161.011945 121.188668 
L 161.764351 120.979145 
L 170.040818 120.003355 
L 183.584127 118.605733 
L 201.265669 117.009624 
L 220.07582 115.538779 
L 238.885971 114.287912 
L 254.310295 113.46868 
L 267.101197 113.073675 
L 290.801988 112.640755 
L 300.583266 112.669732 
L 323.531651 112.844586 
L 337.07496 112.949754 
L 344.59902 113.094313 
L 350.994471 113.287442 
L 378.081089 113.522817 
L 429.997106 113.85896 
L 429.997106 113.85896 
" clip-path="url(#pfcced7b8f7)" style="fill: none; stroke: #dd8452; stroke-opacity: 0.9; stroke-width: 3; stroke-linecap: round"/>
   </g>
   <g id="line2d_9">
    <path d="M 155.745103 117.567268 
L 156.121306 124.462393 
L 156.497509 124.811312 
L 157.249915 124.867373 
L 161.011945 124.526086 
L 162.140554 124.182174 
L 168.536006 122.69167 
L 176.060066 121.20796 
L 186.969954 119.285533 
L 199.760857 117.247502 
L 212.551759 115.436605 
L 224.590256 113.956421 
L 236.25255 112.747515 
L 247.162437 111.830353 
L 256.943716 111.233396 
L 265.220182 110.91972 
L 275.753867 110.783002 
L 290.801988 110.806244 
L 379.209698 112.051266 
L 429.997106 112.668112 
L 429.997106 112.668112 
" clip-path="url(#pfcced7b8f7)" style="fill: none; stroke: #55a868; stroke-opacity: 0.9; stroke-width: 3; stroke-linecap: round"/>
   </g>
   <g id="line2d_10">
    <path d="M 155.745103 117.567268 
L 156.121306 122.986264 
L 156.497509 123.266761 
L 157.249915 123.310121 
L 161.011945 123.038031 
L 162.516757 122.697941 
L 169.664615 121.398899 
L 178.693487 120.021203 
L 191.860593 118.252213 
L 205.780105 116.600876 
L 219.699617 115.171194 
L 232.866722 114.038884 
L 245.281422 113.190501 
L 256.567513 112.626807 
L 265.596385 112.361993 
L 276.882476 112.301741 
L 296.445033 112.448312 
L 325.788869 112.758889 
L 414.572782 113.619624 
L 429.997106 113.755378 
L 429.997106 113.755378 
" clip-path="url(#pfcced7b8f7)" style="fill: none; stroke: #c44e52; stroke-opacity: 0.9; stroke-width: 3; stroke-linecap: round"/>
   </g>
   <g id="line2d_11">
    <path d="M 155.745103 117.567268 
L 156.121306 123.884357 
L 156.497509 124.135446 
L 157.626118 124.099221 
L 161.388148 123.686064 
L 167.407397 122.11159 
L 173.426645 120.737774 
L 185.841345 118.088639 
L 198.632247 115.609496 
L 212.175556 113.21817 
L 224.214053 111.316354 
L 235.123941 109.816149 
L 245.281422 108.636325 
L 254.686498 107.757873 
L 261.834355 107.374252 
L 269.358416 107.154341 
L 276.882476 107.269035 
L 282.901724 107.596566 
L 291.930597 108.279527 
L 300.959469 109.319211 
L 309.612139 109.742462 
L 322.403042 110.214007 
L 345.351426 110.802912 
L 383.347931 111.528187 
L 429.997106 112.232204 
L 429.997106 112.232204 
" clip-path="url(#pfcced7b8f7)" style="fill: none; stroke: #8172b3; stroke-opacity: 0.9; stroke-width: 3; stroke-linecap: round"/>
   </g>
   <g id="line2d_12">
    <path d="M 155.745103 117.567268 
L 156.121306 122.636189 
L 156.497509 122.805306 
L 158.002321 122.752814 
L 161.388148 122.457719 
L 168.536006 121.133576 
L 180.198299 119.26181 
L 194.117811 117.223179 
L 209.918338 115.148658 
L 224.590256 113.437277 
L 237.757362 112.121074 
L 249.795858 111.13657 
L 256.943716 110.729445 
L 267.477401 110.379031 
L 274.625258 110.335076 
L 286.663755 110.526294 
L 297.197439 111.099298 
L 304.7215 111.749062 
L 314.502778 112.063613 
L 337.07496 112.520768 
L 375.071465 113.021095 
L 429.997106 113.556832 
L 429.997106 113.556832 
" clip-path="url(#pfcced7b8f7)" style="fill: none; stroke: #937860; stroke-opacity: 0.9; stroke-width: 3; stroke-linecap: round"/>
   </g>
   <g id="patch_3">
    <path d="M 142.032503 201.042 
L 142.032503 81.456 
" style="fill: none; stroke: #ffffff; stroke-width: 1.25; stroke-linejoin: miter; stroke-linecap: square"/>
   </g>
   <g id="patch_4">
    <path d="M 142.032503 201.042 
L 443.709706 201.042 
" style="fill: none; stroke: #ffffff; stroke-width: 1.25; stroke-linejoin: miter; stroke-linecap: square"/>
   </g>
   <g id="text_4">
    <!-- 0.5~30 -->
    <g style="fill: #262626" transform="translate(246.241261 75.456) scale(0.252 -0.252)">
     <defs>
      <path id="DejaVuSans-2e" d="M 684 794 
L 1344 794 
L 1344 0 
L 684 0 
L 684 794 
z
" transform="scale(0.015625)"/>
      <path id="DejaVuSans-7e" d="M 4684 2553 
L 4684 1997 
Q 4356 1750 4076 1644 
Q 3797 1538 3494 1538 
Q 3150 1538 2694 1722 
Q 2659 1734 2644 1741 
Q 2622 1750 2575 1766 
Q 2091 1959 1797 1959 
Q 1522 1959 1253 1839 
Q 984 1719 678 1459 
L 678 2016 
Q 1006 2263 1286 2370 
Q 1566 2478 1869 2478 
Q 2213 2478 2672 2291 
Q 2703 2278 2719 2272 
Q 2744 2263 2788 2247 
Q 3272 2053 3566 2053 
Q 3834 2053 4098 2172 
Q 4363 2291 4684 2553 
z
" transform="scale(0.015625)"/>
      <path id="DejaVuSans-33" d="M 2597 2516 
Q 3050 2419 3304 2112 
Q 3559 1806 3559 1356 
Q 3559 666 3084 287 
Q 2609 -91 1734 -91 
Q 1441 -91 1130 -33 
Q 819 25 488 141 
L 488 750 
Q 750 597 1062 519 
Q 1375 441 1716 441 
Q 2309 441 2620 675 
Q 2931 909 2931 1356 
Q 2931 1769 2642 2001 
Q 2353 2234 1838 2234 
L 1294 2234 
L 1294 2753 
L 1863 2753 
Q 2328 2753 2575 2939 
Q 2822 3125 2822 3475 
Q 2822 3834 2567 4026 
Q 2313 4219 1838 4219 
Q 1578 4219 1281 4162 
Q 984 4106 628 3988 
L 628 4550 
Q 988 4650 1302 4700 
Q 1616 4750 1894 4750 
Q 2613 4750 3031 4423 
Q 3450 4097 3450 3541 
Q 3450 3153 3228 2886 
Q 3006 2619 2597 2516 
z
" transform="scale(0.015625)"/>
     </defs>
     <use xlink:href="#DejaVuSans-30"/>
     <use xlink:href="#DejaVuSans-2e" x="63.623047"/>
     <use xlink:href="#DejaVuSans-35" x="95.410156"/>
     <use xlink:href="#DejaVuSans-7e" x="159.033203"/>
     <use xlink:href="#DejaVuSans-33" x="242.822266"/>
     <use xlink:href="#DejaVuSans-30" x="306.445312"/>
    </g>
   </g>
  </g>
  <g id="axes_2">
   <g id="patch_5">
    <path d="M 470.482436 201.042 
L 772.15964 201.042 
L 772.15964 81.456 
L 470.482436 81.456 
z
" style="fill: #eaeaf2"/>
   </g>
   <g id="matplotlib.axis_3">
    <g id="xtick_5">
     <g id="line2d_13">
      <path d="M 484.195037 201.042 
L 484.195037 81.456 
" clip-path="url(#p868e23b8e8)" style="fill: none; stroke: #ffffff; stroke-linecap: round"/>
     </g>
    </g>
    <g id="xtick_6">
     <g id="line2d_14">
      <path d="M 578.245792 201.042 
L 578.245792 81.456 
" clip-path="url(#p868e23b8e8)" style="fill: none; stroke: #ffffff; stroke-linecap: round"/>
     </g>
    </g>
    <g id="xtick_7">
     <g id="line2d_15">
      <path d="M 672.296548 201.042 
L 672.296548 81.456 
" clip-path="url(#p868e23b8e8)" style="fill: none; stroke: #ffffff; stroke-linecap: round"/>
     </g>
    </g>
    <g id="xtick_8">
     <g id="line2d_16">
      <path d="M 766.347303 201.042 
L 766.347303 81.456 
" clip-path="url(#p868e23b8e8)" style="fill: none; stroke: #ffffff; stroke-linecap: round"/>
     </g>
    </g>
   </g>
   <g id="matplotlib.axis_4">
    <g id="ytick_3">
     <g id="line2d_17">
      <path d="M 470.482436 182.559001 
L 772.15964 182.559001 
" clip-path="url(#p868e23b8e8)" style="fill: none; stroke: #ffffff; stroke-linecap: round"/>
     </g>
    </g>
    <g id="ytick_4">
     <g id="line2d_18">
      <path d="M 470.482436 117.567268 
L 772.15964 117.567268 
" clip-path="url(#p868e23b8e8)" style="fill: none; stroke: #ffffff; stroke-linecap: round"/>
     </g>
    </g>
   </g>
   <g id="PolyCollection_7"/>
   <g id="PolyCollection_8"/>
   <g id="PolyCollection_9"/>
   <g id="PolyCollection_10"/>
   <g id="PolyCollection_11"/>
   <g id="PolyCollection_12"/>
   <g id="line2d_19">
    <path d="M 484.195037 117.567268 
L 484.57124 124.147161 
L 484.947443 124.381089 
L 486.076052 124.46143 
L 489.461879 124.437114 
L 489.838082 124.219584 
L 499.619361 123.72718 
L 537.615866 121.984097 
L 574.483762 120.514625 
L 606.461019 119.450415 
L 645.20993 118.374301 
L 686.968465 117.440222 
L 732.489031 116.646594 
L 758.44704 116.283869 
L 758.44704 116.283869 
" clip-path="url(#p868e23b8e8)" style="fill: none; stroke: #4c72b0; stroke-opacity: 0.9; stroke-width: 3; stroke-linecap: round"/>
   </g>
   <g id="line2d_20">
    <path d="M 484.195037 117.567268 
L 484.57124 121.155978 
L 485.323646 121.362411 
L 487.957067 121.384636 
L 489.461879 121.378967 
L 489.838082 121.238999 
L 495.481127 121.075641 
L 542.882708 119.930253 
L 592.165304 118.95994 
L 644.833727 118.173437 
L 703.897601 117.51971 
L 758.44704 117.083265 
L 758.44704 117.083265 
" clip-path="url(#p868e23b8e8)" style="fill: none; stroke: #dd8452; stroke-opacity: 0.9; stroke-width: 3; stroke-linecap: round"/>
   </g>
   <g id="line2d_21">
    <path d="M 484.195037 117.567268 
L 484.57124 124.462393 
L 484.947443 124.838912 
L 485.699849 124.960154 
L 489.461879 124.940795 
L 490.214285 124.822633 
L 504.51 124.118862 
L 545.139926 122.275029 
L 578.621995 120.972017 
L 615.113688 119.783156 
L 654.991209 118.706791 
L 698.630759 117.754818 
L 743.775122 116.991295 
L 758.44704 116.791968 
L 758.44704 116.791968 
" clip-path="url(#p868e23b8e8)" style="fill: none; stroke: #55a868; stroke-opacity: 0.9; stroke-width: 3; stroke-linecap: round"/>
   </g>
   <g id="line2d_22">
    <path d="M 484.195037 117.567268 
L 484.57124 122.986264 
L 484.947443 123.28861 
L 485.699849 123.383806 
L 489.461879 123.368685 
L 490.590488 123.267167 
L 530.091805 121.77585 
L 563.950077 120.675339 
L 623.766358 119.093975 
L 661.38666 118.315206 
L 710.669256 117.513929 
L 758.44704 116.941201 
L 758.44704 116.941201 
" clip-path="url(#p868e23b8e8)" style="fill: none; stroke: #c44e52; stroke-opacity: 0.9; stroke-width: 3; stroke-linecap: round"/>
   </g>
   <g id="line2d_23">
    <path d="M 484.195037 117.567268 
L 484.57124 123.884357 
L 484.947443 124.163823 
L 486.076052 124.218686 
L 490.966691 124.08057 
L 525.577369 122.395155 
L 562.445265 120.825389 
L 595.551131 119.637577 
L 634.676245 118.455599 
L 674.929969 117.462831 
L 718.945722 116.605306 
L 758.44704 116.006481 
L 758.44704 116.006481 
" clip-path="url(#p868e23b8e8)" style="fill: none; stroke: #8172b3; stroke-opacity: 0.9; stroke-width: 3; stroke-linecap: round"/>
   </g>
   <g id="line2d_24">
    <path d="M 484.195037 117.567268 
L 484.57124 122.636189 
L 484.947443 122.827057 
L 486.452255 122.867225 
L 491.342894 122.739865 
L 532.349023 121.233483 
L 571.474138 120.00571 
L 610.223049 119.004108 
L 655.367412 118.051983 
L 702.768992 117.273632 
L 756.942228 116.608556 
L 758.44704 116.593044 
L 758.44704 116.593044 
" clip-path="url(#p868e23b8e8)" style="fill: none; stroke: #937860; stroke-opacity: 0.9; stroke-width: 3; stroke-linecap: round"/>
   </g>
   <g id="patch_6">
    <path d="M 470.482436 201.042 
L 470.482436 81.456 
" style="fill: none; stroke: #ffffff; stroke-width: 1.25; stroke-linejoin: miter; stroke-linecap: square"/>
   </g>
   <g id="patch_7">
    <path d="M 470.482436 201.042 
L 772.15964 201.042 
" style="fill: none; stroke: #ffffff; stroke-width: 1.25; stroke-linejoin: miter; stroke-linecap: square"/>
   </g>
   <g id="text_5">
    <!-- 0.5~365 -->
    <g style="fill: #262626" transform="translate(566.674444 75.456) scale(0.252 -0.252)">
     <defs>
      <path id="DejaVuSans-36" d="M 2113 2584 
Q 1688 2584 1439 2293 
Q 1191 2003 1191 1497 
Q 1191 994 1439 701 
Q 1688 409 2113 409 
Q 2538 409 2786 701 
Q 3034 994 3034 1497 
Q 3034 2003 2786 2293 
Q 2538 2584 2113 2584 
z
M 3366 4563 
L 3366 3988 
Q 3128 4100 2886 4159 
Q 2644 4219 2406 4219 
Q 1781 4219 1451 3797 
Q 1122 3375 1075 2522 
Q 1259 2794 1537 2939 
Q 1816 3084 2150 3084 
Q 2853 3084 3261 2657 
Q 3669 2231 3669 1497 
Q 3669 778 3244 343 
Q 2819 -91 2113 -91 
Q 1303 -91 875 529 
Q 447 1150 447 2328 
Q 447 3434 972 4092 
Q 1497 4750 2381 4750 
Q 2619 4750 2861 4703 
Q 3103 4656 3366 4563 
z
" transform="scale(0.015625)"/>
     </defs>
     <use xlink:href="#DejaVuSans-30"/>
     <use xlink:href="#DejaVuSans-2e" x="63.623047"/>
     <use xlink:href="#DejaVuSans-35" x="95.410156"/>
     <use xlink:href="#DejaVuSans-7e" x="159.033203"/>
     <use xlink:href="#DejaVuSans-33" x="242.822266"/>
     <use xlink:href="#DejaVuSans-36" x="306.445312"/>
     <use xlink:href="#DejaVuSans-35" x="370.068359"/>
    </g>
   </g>
  </g>
  <g id="axes_3">
   <g id="patch_8">
    <path d="M 798.93237 201.042 
L 1100.609573 201.042 
L 1100.609573 81.456 
L 798.93237 81.456 
z
" style="fill: #eaeaf2"/>
   </g>
   <g id="matplotlib.axis_5">
    <g id="xtick_9">
     <g id="line2d_25">
      <path d="M 812.64497 201.042 
L 812.64497 81.456 
" clip-path="url(#p92b651e741)" style="fill: none; stroke: #ffffff; stroke-linecap: round"/>
     </g>
    </g>
    <g id="xtick_10">
     <g id="line2d_26">
      <path d="M 906.695726 201.042 
L 906.695726 81.456 
" clip-path="url(#p92b651e741)" style="fill: none; stroke: #ffffff; stroke-linecap: round"/>
     </g>
    </g>
    <g id="xtick_11">
     <g id="line2d_27">
      <path d="M 1000.746481 201.042 
L 1000.746481 81.456 
" clip-path="url(#p92b651e741)" style="fill: none; stroke: #ffffff; stroke-linecap: round"/>
     </g>
    </g>
    <g id="xtick_12">
     <g id="line2d_28">
      <path d="M 1094.797237 201.042 
L 1094.797237 81.456 
" clip-path="url(#p92b651e741)" style="fill: none; stroke: #ffffff; stroke-linecap: round"/>
     </g>
    </g>
   </g>
   <g id="matplotlib.axis_6">
    <g id="ytick_5">
     <g id="line2d_29">
      <path d="M 798.93237 182.559001 
L 1100.609573 182.559001 
" clip-path="url(#p92b651e741)" style="fill: none; stroke: #ffffff; stroke-linecap: round"/>
     </g>
    </g>
    <g id="ytick_6">
     <g id="line2d_30">
      <path d="M 798.93237 117.567268 
L 1100.609573 117.567268 
" clip-path="url(#p92b651e741)" style="fill: none; stroke: #ffffff; stroke-linecap: round"/>
     </g>
    </g>
   </g>
   <g id="PolyCollection_13"/>
   <g id="PolyCollection_14"/>
   <g id="PolyCollection_15"/>
   <g id="PolyCollection_16"/>
   <g id="PolyCollection_17"/>
   <g id="PolyCollection_18"/>
   <g id="line2d_31">
    <path d="M 812.64497 117.567268 
L 813.021173 124.147161 
L 813.397376 124.354476 
L 814.525985 124.340541 
L 817.911813 124.037913 
L 818.288016 123.788277 
L 825.435873 122.035069 
L 834.088543 120.094153 
L 846.127039 117.63172 
L 858.165536 115.397523 
L 869.82783 113.455403 
L 881.11392 111.795975 
L 892.023808 110.411898 
L 902.933696 109.252125 
L 912.714974 108.415137 
L 920.991441 108.061917 
L 935.287155 107.861542 
L 945.068434 107.960199 
L 960.116555 108.431051 
L 968.393021 108.876328 
L 986.826969 109.409753 
L 1015.794602 110.051916 
L 1064.324792 110.88437 
L 1086.896973 111.208076 
L 1086.896973 111.208076 
" clip-path="url(#p92b651e741)" style="fill: none; stroke: #4c72b0; stroke-opacity: 0.9; stroke-width: 3; stroke-linecap: round"/>
   </g>
   <g id="line2d_32">
    <path d="M 812.64497 117.567268 
L 813.021173 121.155978 
L 813.773579 121.335748 
L 816.407001 121.252704 
L 817.911813 121.188668 
L 818.664219 120.979145 
L 826.940685 120.003355 
L 840.483994 118.605733 
L 858.165536 117.009624 
L 876.975687 115.538779 
L 895.785838 114.287912 
L 911.210162 113.46868 
L 924.001065 113.073675 
L 947.701855 112.640755 
L 957.483134 112.669732 
L 980.431518 112.844586 
L 993.974827 112.949754 
L 1001.498887 113.094313 
L 1007.894339 113.287442 
L 1034.980956 113.522817 
L 1086.896973 113.85896 
L 1086.896973 113.85896 
" clip-path="url(#p92b651e741)" style="fill: none; stroke: #dd8452; stroke-opacity: 0.9; stroke-width: 3; stroke-linecap: round"/>
   </g>
   <g id="line2d_33">
    <path d="M 812.64497 117.567268 
L 813.021173 124.462393 
L 813.397376 124.811312 
L 814.149782 124.867373 
L 817.911813 124.526086 
L 819.040422 124.182174 
L 825.435873 122.69167 
L 832.959933 121.20796 
L 843.117415 119.423835 
L 850.641476 118.281567 
L 858.541739 117.316818 
L 877.35189 115.335205 
L 890.895199 114.122039 
L 904.062305 113.190585 
L 914.595989 112.668181 
L 923.624862 112.432025 
L 940.177795 112.356681 
L 956.354525 112.502978 
L 1029.337911 113.155204 
L 1070.34404 113.275676 
L 1086.896973 113.261657 
L 1086.896973 113.261657 
" clip-path="url(#p92b651e741)" style="fill: none; stroke: #55a868; stroke-opacity: 0.9; stroke-width: 3; stroke-linecap: round"/>
   </g>
   <g id="line2d_34">
    <path d="M 812.64497 117.567268 
L 813.021173 122.986264 
L 813.397376 123.266761 
L 814.149782 123.310121 
L 817.911813 123.038031 
L 819.416625 122.697941 
L 826.564482 121.398899 
L 835.593355 120.021203 
L 844.99843 118.789057 
L 855.908318 117.612609 
L 872.085048 116.234732 
L 887.133169 115.156545 
L 902.557493 114.23881 
L 915.724598 113.67031 
L 925.129674 113.476803 
L 944.316028 113.422313 
L 997.360654 113.443908 
L 1061.315168 113.427099 
L 1086.896973 113.611888 
L 1086.896973 113.611888 
" clip-path="url(#p92b651e741)" style="fill: none; stroke: #c44e52; stroke-opacity: 0.9; stroke-width: 3; stroke-linecap: round"/>
   </g>
   <g id="line2d_35">
    <path d="M 812.64497 117.567268 
L 813.021173 123.884357 
L 813.397376 124.135446 
L 814.525985 124.099221 
L 818.288016 123.686064 
L 824.307264 122.11159 
L 830.326512 120.737774 
L 842.741212 118.088639 
L 855.532115 115.609496 
L 869.075424 113.21817 
L 881.11392 111.316354 
L 892.023808 109.816149 
L 902.18129 108.636325 
L 911.586365 107.757873 
L 918.734222 107.374252 
L 926.258283 107.154341 
L 933.782343 107.269035 
L 939.801592 107.596566 
L 948.830464 108.279527 
L 957.859337 109.319211 
L 966.512006 109.742462 
L 979.302909 110.214007 
L 1002.251293 110.802912 
L 1040.247799 111.528187 
L 1086.896973 112.232204 
L 1086.896973 112.232204 
" clip-path="url(#p92b651e741)" style="fill: none; stroke: #8172b3; stroke-opacity: 0.9; stroke-width: 3; stroke-linecap: round"/>
   </g>
   <g id="line2d_36">
    <path d="M 812.64497 117.567268 
L 813.021173 122.636189 
L 813.397376 122.805306 
L 814.902188 122.752814 
L 818.288016 122.457719 
L 825.435873 121.133576 
L 837.098167 119.26181 
L 851.017679 117.223179 
L 866.818205 115.148658 
L 881.490123 113.437277 
L 894.657229 112.121074 
L 906.695726 111.13657 
L 913.843583 110.729445 
L 924.377268 110.379031 
L 931.525125 110.335076 
L 943.563622 110.526294 
L 954.097307 111.099298 
L 961.621367 111.749062 
L 971.402646 112.063613 
L 993.974827 112.520768 
L 1031.971332 113.021095 
L 1086.896973 113.556832 
L 1086.896973 113.556832 
" clip-path="url(#p92b651e741)" style="fill: none; stroke: #937860; stroke-opacity: 0.9; stroke-width: 3; stroke-linecap: round"/>
   </g>
   <g id="patch_9">
    <path d="M 798.93237 201.042 
L 798.93237 81.456 
" style="fill: none; stroke: #ffffff; stroke-width: 1.25; stroke-linejoin: miter; stroke-linecap: square"/>
   </g>
   <g id="patch_10">
    <path d="M 798.93237 201.042 
L 1100.609573 201.042 
" style="fill: none; stroke: #ffffff; stroke-width: 1.25; stroke-linejoin: miter; stroke-linecap: square"/>
   </g>
   <g id="text_6">
    <!-- 0.8~30 -->
    <g style="fill: #262626" transform="translate(903.141128 75.456) scale(0.252 -0.252)">
     <defs>
      <path id="DejaVuSans-38" d="M 2034 2216 
Q 1584 2216 1326 1975 
Q 1069 1734 1069 1313 
Q 1069 891 1326 650 
Q 1584 409 2034 409 
Q 2484 409 2743 651 
Q 3003 894 3003 1313 
Q 3003 1734 2745 1975 
Q 2488 2216 2034 2216 
z
M 1403 2484 
Q 997 2584 770 2862 
Q 544 3141 544 3541 
Q 544 4100 942 4425 
Q 1341 4750 2034 4750 
Q 2731 4750 3128 4425 
Q 3525 4100 3525 3541 
Q 3525 3141 3298 2862 
Q 3072 2584 2669 2484 
Q 3125 2378 3379 2068 
Q 3634 1759 3634 1313 
Q 3634 634 3220 271 
Q 2806 -91 2034 -91 
Q 1263 -91 848 271 
Q 434 634 434 1313 
Q 434 1759 690 2068 
Q 947 2378 1403 2484 
z
M 1172 3481 
Q 1172 3119 1398 2916 
Q 1625 2713 2034 2713 
Q 2441 2713 2670 2916 
Q 2900 3119 2900 3481 
Q 2900 3844 2670 4047 
Q 2441 4250 2034 4250 
Q 1625 4250 1398 4047 
Q 1172 3844 1172 3481 
z
" transform="scale(0.015625)"/>
     </defs>
     <use xlink:href="#DejaVuSans-30"/>
     <use xlink:href="#DejaVuSans-2e" x="63.623047"/>
     <use xlink:href="#DejaVuSans-38" x="95.410156"/>
     <use xlink:href="#DejaVuSans-7e" x="159.033203"/>
     <use xlink:href="#DejaVuSans-33" x="242.822266"/>
     <use xlink:href="#DejaVuSans-30" x="306.445312"/>
    </g>
   </g>
  </g>
  <g id="axes_4">
   <g id="patch_11">
    <path d="M 142.032503 373.284 
L 443.709706 373.284 
L 443.709706 253.698 
L 142.032503 253.698 
z
" style="fill: #eaeaf2"/>
   </g>
   <g id="matplotlib.axis_7">
    <g id="xtick_13">
     <g id="line2d_37">
      <path d="M 155.745103 373.284 
L 155.745103 253.698 
" clip-path="url(#p718d6c529b)" style="fill: none; stroke: #ffffff; stroke-linecap: round"/>
     </g>
     <g id="text_7">
      <!-- 0 -->
      <g style="fill: #262626" transform="translate(148.396415 400.336391) scale(0.231 -0.231)">
       <use xlink:href="#DejaVuSans-30"/>
      </g>
     </g>
    </g>
    <g id="xtick_14">
     <g id="line2d_38">
      <path d="M 249.795858 373.284 
L 249.795858 253.698 
" clip-path="url(#p718d6c529b)" style="fill: none; stroke: #ffffff; stroke-linecap: round"/>
     </g>
     <g id="text_8">
      <!-- 250 -->
      <g style="fill: #262626" transform="translate(227.749796 400.336391) scale(0.231 -0.231)">
       <defs>
        <path id="DejaVuSans-32" d="M 1228 531 
L 3431 531 
L 3431 0 
L 469 0 
L 469 531 
Q 828 903 1448 1529 
Q 2069 2156 2228 2338 
Q 2531 2678 2651 2914 
Q 2772 3150 2772 3378 
Q 2772 3750 2511 3984 
Q 2250 4219 1831 4219 
Q 1534 4219 1204 4116 
Q 875 4013 500 3803 
L 500 4441 
Q 881 4594 1212 4672 
Q 1544 4750 1819 4750 
Q 2544 4750 2975 4387 
Q 3406 4025 3406 3419 
Q 3406 3131 3298 2873 
Q 3191 2616 2906 2266 
Q 2828 2175 2409 1742 
Q 1991 1309 1228 531 
z
" transform="scale(0.015625)"/>
       </defs>
       <use xlink:href="#DejaVuSans-32"/>
       <use xlink:href="#DejaVuSans-35" x="63.623047"/>
       <use xlink:href="#DejaVuSans-30" x="127.246094"/>
      </g>
     </g>
    </g>
    <g id="xtick_15">
     <g id="line2d_39">
      <path d="M 343.846614 373.284 
L 343.846614 253.698 
" clip-path="url(#p718d6c529b)" style="fill: none; stroke: #ffffff; stroke-linecap: round"/>
     </g>
     <g id="text_9">
      <!-- 500 -->
      <g style="fill: #262626" transform="translate(321.800551 400.336391) scale(0.231 -0.231)">
       <use xlink:href="#DejaVuSans-35"/>
       <use xlink:href="#DejaVuSans-30" x="63.623047"/>
       <use xlink:href="#DejaVuSans-30" x="127.246094"/>
      </g>
     </g>
    </g>
    <g id="xtick_16">
     <g id="line2d_40">
      <path d="M 437.897369 373.284 
L 437.897369 253.698 
" clip-path="url(#p718d6c529b)" style="fill: none; stroke: #ffffff; stroke-linecap: round"/>
     </g>
     <g id="text_10">
      <!-- 750 -->
      <g style="fill: #262626" transform="translate(415.851307 400.336391) scale(0.231 -0.231)">
       <defs>
        <path id="DejaVuSans-37" d="M 525 4666 
L 3525 4666 
L 3525 4397 
L 1831 0 
L 1172 0 
L 2766 4134 
L 525 4134 
L 525 4666 
z
" transform="scale(0.015625)"/>
       </defs>
       <use xlink:href="#DejaVuSans-37"/>
       <use xlink:href="#DejaVuSans-35" x="63.623047"/>
       <use xlink:href="#DejaVuSans-30" x="127.246094"/>
      </g>
     </g>
    </g>
    <g id="text_11">
     <!-- step -->
     <g style="fill: #262626" transform="translate(265.615729 428.288531) scale(0.252 -0.252)">
      <defs>
       <path id="DejaVuSans-73" d="M 2834 3397 
L 2834 2853 
Q 2591 2978 2328 3040 
Q 2066 3103 1784 3103 
Q 1356 3103 1142 2972 
Q 928 2841 928 2578 
Q 928 2378 1081 2264 
Q 1234 2150 1697 2047 
L 1894 2003 
Q 2506 1872 2764 1633 
Q 3022 1394 3022 966 
Q 3022 478 2636 193 
Q 2250 -91 1575 -91 
Q 1294 -91 989 -36 
Q 684 19 347 128 
L 347 722 
Q 666 556 975 473 
Q 1284 391 1588 391 
Q 1994 391 2212 530 
Q 2431 669 2431 922 
Q 2431 1156 2273 1281 
Q 2116 1406 1581 1522 
L 1381 1569 
Q 847 1681 609 1914 
Q 372 2147 372 2553 
Q 372 3047 722 3315 
Q 1072 3584 1716 3584 
Q 2034 3584 2315 3537 
Q 2597 3491 2834 3397 
z
" transform="scale(0.015625)"/>
       <path id="DejaVuSans-74" d="M 1172 4494 
L 1172 3500 
L 2356 3500 
L 2356 3053 
L 1172 3053 
L 1172 1153 
Q 1172 725 1289 603 
Q 1406 481 1766 481 
L 2356 481 
L 2356 0 
L 1766 0 
Q 1100 0 847 248 
Q 594 497 594 1153 
L 594 3053 
L 172 3053 
L 172 3500 
L 594 3500 
L 594 4494 
L 1172 4494 
z
" transform="scale(0.015625)"/>
       <path id="DejaVuSans-70" d="M 1159 525 
L 1159 -1331 
L 581 -1331 
L 581 3500 
L 1159 3500 
L 1159 2969 
Q 1341 3281 1617 3432 
Q 1894 3584 2278 3584 
Q 2916 3584 3314 3078 
Q 3713 2572 3713 1747 
Q 3713 922 3314 415 
Q 2916 -91 2278 -91 
Q 1894 -91 1617 61 
Q 1341 213 1159 525 
z
M 3116 1747 
Q 3116 2381 2855 2742 
Q 2594 3103 2138 3103 
Q 1681 3103 1420 2742 
Q 1159 2381 1159 1747 
Q 1159 1113 1420 752 
Q 1681 391 2138 391 
Q 2594 391 2855 752 
Q 3116 1113 3116 1747 
z
" transform="scale(0.015625)"/>
      </defs>
      <use xlink:href="#DejaVuSans-73"/>
      <use xlink:href="#DejaVuSans-74" x="52.099609"/>
      <use xlink:href="#DejaVuSans-65" x="91.308594"/>
      <use xlink:href="#DejaVuSans-70" x="152.832031"/>
     </g>
    </g>
   </g>
   <g id="matplotlib.axis_8">
    <g id="ytick_7">
     <g id="line2d_41">
      <path d="M 142.032503 354.801001 
L 443.709706 354.801001 
" clip-path="url(#p718d6c529b)" style="fill: none; stroke: #ffffff; stroke-linecap: round"/>
     </g>
     <g id="text_12">
      <!-- −5 -->
      <g style="fill: #262626" transform="translate(98.47805 363.577196) scale(0.231 -0.231)">
       <use xlink:href="#DejaVuSans-2212"/>
       <use xlink:href="#DejaVuSans-35" x="83.789062"/>
      </g>
     </g>
    </g>
    <g id="ytick_8">
     <g id="line2d_42">
      <path d="M 142.032503 289.809268 
L 443.709706 289.809268 
" clip-path="url(#p718d6c529b)" style="fill: none; stroke: #ffffff; stroke-linecap: round"/>
     </g>
     <g id="text_13">
      <!-- 0 -->
      <g style="fill: #262626" transform="translate(117.835128 298.585464) scale(0.231 -0.231)">
       <use xlink:href="#DejaVuSans-30"/>
      </g>
     </g>
    </g>
    <g id="text_14">
     <!-- % change -->
     <g style="fill: #262626" transform="translate(89.237237 375.839344) rotate(-90) scale(0.252 -0.252)">
      <use xlink:href="#DejaVuSans-25"/>
      <use xlink:href="#DejaVuSans-20" x="95.019531"/>
      <use xlink:href="#DejaVuSans-63" x="126.806641"/>
      <use xlink:href="#DejaVuSans-68" x="181.787109"/>
      <use xlink:href="#DejaVuSans-61" x="245.166016"/>
      <use xlink:href="#DejaVuSans-6e" x="306.445312"/>
      <use xlink:href="#DejaVuSans-67" x="369.824219"/>
      <use xlink:href="#DejaVuSans-65" x="433.300781"/>
     </g>
    </g>
   </g>
   <g id="PolyCollection_19"/>
   <g id="PolyCollection_20"/>
   <g id="PolyCollection_21"/>
   <g id="PolyCollection_22"/>
   <g id="PolyCollection_23"/>
   <g id="PolyCollection_24"/>
   <g id="line2d_43">
    <path d="M 155.745103 289.809268 
L 156.121306 296.389161 
L 156.497509 296.623089 
L 157.626118 296.70343 
L 161.011945 296.679114 
L 161.388148 296.461584 
L 171.169427 295.96918 
L 209.165932 294.226097 
L 246.033828 292.756625 
L 278.011085 291.692415 
L 316.759996 290.616301 
L 358.518532 289.682222 
L 404.039097 288.888594 
L 429.997106 288.525869 
L 429.997106 288.525869 
" clip-path="url(#p718d6c529b)" style="fill: none; stroke: #4c72b0; stroke-opacity: 0.9; stroke-width: 3; stroke-linecap: round"/>
   </g>
   <g id="line2d_44">
    <path d="M 155.745103 289.809268 
L 156.121306 293.397978 
L 156.873712 293.604411 
L 159.507133 293.626636 
L 161.011945 293.620967 
L 161.388148 293.480999 
L 167.031194 293.317641 
L 214.432774 292.172253 
L 263.71537 291.20194 
L 316.383793 290.415437 
L 375.447668 289.76171 
L 429.997106 289.325265 
L 429.997106 289.325265 
" clip-path="url(#p718d6c529b)" style="fill: none; stroke: #dd8452; stroke-opacity: 0.9; stroke-width: 3; stroke-linecap: round"/>
   </g>
   <g id="line2d_45">
    <path d="M 155.745103 289.809268 
L 156.121306 296.704393 
L 156.497509 297.080912 
L 157.249915 297.202154 
L 161.011945 297.182795 
L 161.764351 297.064633 
L 176.060066 296.360862 
L 193.365405 295.639389 
L 209.918338 295.346864 
L 231.36191 295.035845 
L 278.387288 294.036866 
L 352.875486 292.065388 
L 413.444173 290.613391 
L 429.997106 290.261265 
L 429.997106 290.261265 
" clip-path="url(#p718d6c529b)" style="fill: none; stroke: #55a868; stroke-opacity: 0.9; stroke-width: 3; stroke-linecap: round"/>
   </g>
   <g id="line2d_46">
    <path d="M 155.745103 289.809268 
L 156.121306 295.228264 
L 156.497509 295.53061 
L 157.249915 295.625806 
L 161.011945 295.610685 
L 162.140554 295.509167 
L 187.72236 294.583138 
L 207.66112 294.27111 
L 260.705746 293.644586 
L 298.326048 292.82313 
L 429.997106 289.706412 
L 429.997106 289.706412 
" clip-path="url(#p718d6c529b)" style="fill: none; stroke: #c44e52; stroke-opacity: 0.9; stroke-width: 3; stroke-linecap: round"/>
   </g>
   <g id="line2d_47">
    <path d="M 155.745103 289.809268 
L 156.121306 296.126357 
L 156.497509 296.405823 
L 157.626118 296.460686 
L 162.516757 296.32257 
L 197.127435 294.637155 
L 233.995332 293.067389 
L 267.101197 291.879577 
L 306.226312 290.697599 
L 346.480035 289.704831 
L 390.495789 288.847306 
L 429.997106 288.248481 
L 429.997106 288.248481 
" clip-path="url(#p718d6c529b)" style="fill: none; stroke: #8172b3; stroke-opacity: 0.9; stroke-width: 3; stroke-linecap: round"/>
   </g>
   <g id="line2d_48">
    <path d="M 155.745103 289.809268 
L 156.121306 294.878189 
L 156.497509 295.069057 
L 158.002321 295.109225 
L 162.89296 294.981865 
L 203.89909 293.475483 
L 243.024204 292.24771 
L 281.773115 291.246108 
L 326.917478 290.293983 
L 374.319059 289.515632 
L 428.492294 288.850556 
L 429.997106 288.835044 
L 429.997106 288.835044 
" clip-path="url(#p718d6c529b)" style="fill: none; stroke: #937860; stroke-opacity: 0.9; stroke-width: 3; stroke-linecap: round"/>
   </g>
   <g id="patch_12">
    <path d="M 142.032503 373.284 
L 142.032503 253.698 
" style="fill: none; stroke: #ffffff; stroke-width: 1.25; stroke-linejoin: miter; stroke-linecap: square"/>
   </g>
   <g id="patch_13">
    <path d="M 142.032503 373.284 
L 443.709706 373.284 
" style="fill: none; stroke: #ffffff; stroke-width: 1.25; stroke-linejoin: miter; stroke-linecap: square"/>
   </g>
   <g id="text_15">
    <!-- 0.8~365 -->
    <g style="fill: #262626" transform="translate(238.224511 247.698) scale(0.252 -0.252)">
     <use xlink:href="#DejaVuSans-30"/>
     <use xlink:href="#DejaVuSans-2e" x="63.623047"/>
     <use xlink:href="#DejaVuSans-38" x="95.410156"/>
     <use xlink:href="#DejaVuSans-7e" x="159.033203"/>
     <use xlink:href="#DejaVuSans-33" x="242.822266"/>
     <use xlink:href="#DejaVuSans-36" x="306.445312"/>
     <use xlink:href="#DejaVuSans-35" x="370.068359"/>
    </g>
   </g>
  </g>
  <g id="axes_5">
   <g id="patch_14">
    <path d="M 470.482436 373.284 
L 772.15964 373.284 
L 772.15964 253.698 
L 470.482436 253.698 
z
" style="fill: #eaeaf2"/>
   </g>
   <g id="matplotlib.axis_9">
    <g id="xtick_17">
     <g id="line2d_49">
      <path d="M 484.195037 373.284 
L 484.195037 253.698 
" clip-path="url(#pb9cf4b3369)" style="fill: none; stroke: #ffffff; stroke-linecap: round"/>
     </g>
     <g id="text_16">
      <!-- 0 -->
      <g style="fill: #262626" transform="translate(476.846349 400.336391) scale(0.231 -0.231)">
       <use xlink:href="#DejaVuSans-30"/>
      </g>
     </g>
    </g>
    <g id="xtick_18">
     <g id="line2d_50">
      <path d="M 578.245792 373.284 
L 578.245792 253.698 
" clip-path="url(#pb9cf4b3369)" style="fill: none; stroke: #ffffff; stroke-linecap: round"/>
     </g>
     <g id="text_17">
      <!-- 250 -->
      <g style="fill: #262626" transform="translate(556.19973 400.336391) scale(0.231 -0.231)">
       <use xlink:href="#DejaVuSans-32"/>
       <use xlink:href="#DejaVuSans-35" x="63.623047"/>
       <use xlink:href="#DejaVuSans-30" x="127.246094"/>
      </g>
     </g>
    </g>
    <g id="xtick_19">
     <g id="line2d_51">
      <path d="M 672.296548 373.284 
L 672.296548 253.698 
" clip-path="url(#pb9cf4b3369)" style="fill: none; stroke: #ffffff; stroke-linecap: round"/>
     </g>
     <g id="text_18">
      <!-- 500 -->
      <g style="fill: #262626" transform="translate(650.250485 400.336391) scale(0.231 -0.231)">
       <use xlink:href="#DejaVuSans-35"/>
       <use xlink:href="#DejaVuSans-30" x="63.623047"/>
       <use xlink:href="#DejaVuSans-30" x="127.246094"/>
      </g>
     </g>
    </g>
    <g id="xtick_20">
     <g id="line2d_52">
      <path d="M 766.347303 373.284 
L 766.347303 253.698 
" clip-path="url(#pb9cf4b3369)" style="fill: none; stroke: #ffffff; stroke-linecap: round"/>
     </g>
     <g id="text_19">
      <!-- 750 -->
      <g style="fill: #262626" transform="translate(744.301241 400.336391) scale(0.231 -0.231)">
       <use xlink:href="#DejaVuSans-37"/>
       <use xlink:href="#DejaVuSans-35" x="63.623047"/>
       <use xlink:href="#DejaVuSans-30" x="127.246094"/>
      </g>
     </g>
    </g>
    <g id="text_20">
     <!-- step -->
     <g style="fill: #262626" transform="translate(594.065663 428.288531) scale(0.252 -0.252)">
      <use xlink:href="#DejaVuSans-73"/>
      <use xlink:href="#DejaVuSans-74" x="52.099609"/>
      <use xlink:href="#DejaVuSans-65" x="91.308594"/>
      <use xlink:href="#DejaVuSans-70" x="152.832031"/>
     </g>
    </g>
   </g>
   <g id="matplotlib.axis_10">
    <g id="ytick_9">
     <g id="line2d_53">
      <path d="M 470.482436 354.801001 
L 772.15964 354.801001 
" clip-path="url(#pb9cf4b3369)" style="fill: none; stroke: #ffffff; stroke-linecap: round"/>
     </g>
    </g>
    <g id="ytick_10">
     <g id="line2d_54">
      <path d="M 470.482436 289.809268 
L 772.15964 289.809268 
" clip-path="url(#pb9cf4b3369)" style="fill: none; stroke: #ffffff; stroke-linecap: round"/>
     </g>
    </g>
   </g>
   <g id="PolyCollection_25"/>
   <g id="PolyCollection_26"/>
   <g id="PolyCollection_27"/>
   <g id="PolyCollection_28"/>
   <g id="PolyCollection_29"/>
   <g id="line2d_55">
    <path d="M 484.195037 289.809268 
L 484.57124 293.397978 
L 485.323646 293.577748 
L 487.957067 293.494704 
L 490.214285 293.353836 
L 490.590488 293.714675 
L 491.342894 295.262098 
L 499.619361 315.794943 
L 503.381391 324.514757 
L 506.767218 331.840121 
L 510.153045 338.608659 
L 513.162669 344.103407 
L 515.79609 348.47404 
L 518.429512 352.422049 
L 521.062933 355.95737 
L 523.320151 358.642662 
L 525.577369 361.001512 
L 527.834587 363.02843 
L 529.715602 364.453632 
L 531.596617 365.630151 
L 533.477633 366.555935 
L 535.358648 367.231009 
L 537.239663 367.658254 
L 539.120678 367.840826 
L 541.001693 367.782466 
L 542.882708 367.486073 
L 544.763723 366.944232 
L 546.644738 366.152314 
L 548.525753 365.112248 
L 550.406769 363.834641 
L 552.663987 362.006331 
L 554.921205 359.881408 
L 557.554626 357.06508 
L 560.188047 353.950175 
L 563.197671 350.048283 
L 566.959701 344.805546 
L 569.969326 340.626999 
L 570.721732 340.020928 
L 574.483762 337.819266 
L 575.236168 337.494368 
L 577.117183 336.965178 
L 582.384025 336.231718 
L 587.274665 336.181913 
L 589.531883 336.298318 
L 592.91771 336.559868 
L 602.698989 338.103004 
L 609.470643 339.188175 
L 625.27117 341.110353 
L 629.409403 341.284297 
L 633.171433 341.260569 
L 636.933464 341.014413 
L 640.319291 340.576346 
L 643.705118 339.924312 
L 647.090945 339.050571 
L 650.476772 337.953277 
L 653.8626 336.632843 
L 657.62463 334.908533 
L 661.38666 332.915872 
L 664.772487 330.85947 
L 668.158314 328.548384 
L 671.920345 325.701779 
L 676.058578 322.264257 
L 680.573014 318.212288 
L 685.839856 313.165652 
L 689.601887 309.600481 
L 695.244932 304.350469 
L 702.016586 297.668018 
L 704.273804 295.494775 
L 706.531023 293.855168 
L 710.669256 290.837453 
L 715.936098 286.699629 
L 724.964971 279.516855 
L 728.350798 277.090895 
L 737.755873 270.620714 
L 743.775122 266.951381 
L 750.170573 263.365951 
L 756.189822 260.239436 
L 758.44704 259.133727 
L 758.44704 259.133727 
" clip-path="url(#pb9cf4b3369)" style="fill: none; stroke: #dd8452; stroke-opacity: 0.9; stroke-width: 3; stroke-linecap: round"/>
   </g>
   <g id="line2d_56">
    <path d="M 484.195037 289.809268 
L 484.57124 296.704393 
L 484.947443 297.053312 
L 485.699849 297.109373 
L 489.461879 296.781225 
L 490.214285 296.591033 
L 490.590488 296.651143 
L 491.342894 297.11157 
L 492.0953 297.836565 
L 493.223909 299.250767 
L 495.481127 302.70143 
L 498.114548 307.179616 
L 504.886203 318.856789 
L 508.648233 324.969493 
L 512.410263 330.647454 
L 515.79609 335.335654 
L 518.805715 339.131848 
L 521.815339 342.571761 
L 524.824963 345.643236 
L 527.458384 348.021859 
L 530.091805 350.115059 
L 532.725226 351.934561 
L 535.358648 353.492821 
L 537.992069 354.808105 
L 540.62549 355.873275 
L 543.258911 356.681394 
L 545.892332 357.25151 
L 548.525753 357.581985 
L 551.159175 357.681678 
L 553.792596 357.553078 
L 556.426017 357.206031 
L 559.059438 356.657536 
L 562.069062 355.789592 
L 565.454889 354.547751 
L 569.21692 352.915891 
L 573.355153 350.857805 
L 578.245792 348.162388 
L 585.017447 344.146772 
L 593.670116 338.817299 
L 600.44177 334.763223 
L 614.361282 326.354522 
L 626.023576 318.928524 
L 639.190682 310.61288 
L 646.714742 306.120831 
L 653.8626 302.121682 
L 659.881848 298.98758 
L 665.524893 296.289413 
L 671.167939 293.837815 
L 676.810984 291.616454 
L 682.454029 289.619656 
L 688.849481 287.596764 
L 695.621135 285.694531 
L 702.768992 283.929354 
L 710.293053 282.310791 
L 718.569519 280.769828 
L 727.598392 279.320718 
L 737.37967 277.983551 
L 747.913355 276.771829 
L 758.44704 275.759065 
L 758.44704 275.759065 
" clip-path="url(#pb9cf4b3369)" style="fill: none; stroke: #55a868; stroke-opacity: 0.9; stroke-width: 3; stroke-linecap: round"/>
   </g>
   <g id="line2d_57">
    <path d="M 484.195037 289.809268 
L 484.57124 295.228264 
L 484.947443 295.508761 
L 485.699849 295.552121 
L 489.461879 295.292253 
L 490.214285 295.148053 
L 490.590488 295.213512 
L 491.342894 295.675068 
L 492.471503 296.92867 
L 493.976315 298.999767 
L 496.609736 303.146979 
L 506.014812 318.525607 
L 509.776842 324.210228 
L 513.162669 328.939485 
L 516.548497 333.283602 
L 519.558121 336.799988 
L 522.567745 339.99391 
L 525.577369 342.870761 
L 528.21079 345.112673 
L 531.220414 347.362342 
L 533.853836 349.051382 
L 536.487257 350.487331 
L 539.120678 351.673479 
L 541.754099 352.606187 
L 544.38752 353.285159 
L 547.020941 353.715042 
L 549.654362 353.904805 
L 552.287784 353.86536 
L 554.921205 353.614124 
L 557.930829 353.105365 
L 560.940453 352.35686 
L 564.32628 351.262548 
L 567.712108 349.935809 
L 571.474138 348.22684 
L 576.74098 345.568608 
L 582.760228 342.271408 
L 599.689364 332.827593 
L 609.09444 327.940891 
L 624.894967 319.618684 
L 644.833727 309.041971 
L 653.486397 304.7109 
L 661.762863 300.796846 
L 669.663126 297.324846 
L 677.56339 294.09008 
L 684.335044 291.558322 
L 691.106699 289.27471 
L 697.878353 287.236984 
L 705.026211 285.318976 
L 711.797865 283.722175 
L 719.698128 282.090754 
L 727.598392 280.679356 
L 737.003467 279.231967 
L 747.537152 277.845775 
L 758.44704 276.608781 
L 758.44704 276.608781 
" clip-path="url(#pb9cf4b3369)" style="fill: none; stroke: #c44e52; stroke-opacity: 0.9; stroke-width: 3; stroke-linecap: round"/>
   </g>
   <g id="line2d_58">
    <path d="M 484.195037 289.809268 
L 484.57124 296.126357 
L 484.947443 296.377446 
L 486.076052 296.341221 
L 490.966691 296.005 
L 492.0953 296.116047 
L 492.847706 296.341779 
L 493.976315 297.161471 
L 494.728721 297.835924 
L 496.233533 299.560737 
L 504.886203 310.922612 
L 507.895827 314.368221 
L 510.905451 317.471472 
L 513.538872 319.898074 
L 516.548497 322.354666 
L 519.181918 324.283321 
L 524.824963 328.027787 
L 527.834587 329.800199 
L 533.101429 332.533322 
L 536.86346 334.258073 
L 540.249287 335.584967 
L 543.258911 336.473009 
L 547.397144 337.36666 
L 549.654362 337.687159 
L 552.663987 337.873047 
L 555.673611 337.821258 
L 557.930829 337.605367 
L 560.188047 337.163154 
L 562.445265 336.489398 
L 565.078686 335.446694 
L 567.712108 334.135591 
L 570.345529 332.584746 
L 573.731356 330.299855 
L 578.621995 326.646229 
L 580.879213 325.138349 
L 582.760228 324.172129 
L 583.888837 323.810575 
L 585.017447 323.662012 
L 586.898462 323.715834 
L 588.779477 324.006886 
L 595.174928 325.763553 
L 597.432146 326.125145 
L 600.065567 326.315331 
L 603.827598 326.2925 
L 609.09444 326.102567 
L 610.975455 326.124675 
L 617.747109 326.399196 
L 621.132937 326.280661 
L 625.27117 325.878056 
L 633.923839 324.699414 
L 636.933464 324.194447 
L 639.943088 323.48551 
L 643.705118 322.36307 
L 647.090945 321.12925 
L 651.229178 319.363916 
L 657.62463 316.358989 
L 664.396284 313.17088 
L 668.158314 311.684568 
L 672.672751 310.187685 
L 674.177563 309.848908 
L 676.058578 309.721412 
L 682.830232 309.674863 
L 686.216059 309.549542 
L 690.730496 309.127279 
L 702.392789 307.933627 
L 705.402414 307.800247 
L 712.550271 307.732708 
L 718.569519 307.385375 
L 733.61764 306.987786 
L 735.498655 307.046429 
L 740.389295 307.470981 
L 745.656137 308.104702 
L 754.685009 309.163823 
L 758.44704 309.580019 
L 758.44704 309.580019 
" clip-path="url(#pb9cf4b3369)" style="fill: none; stroke: #8172b3; stroke-opacity: 0.9; stroke-width: 3; stroke-linecap: round"/>
   </g>
   <g id="line2d_59">
    <path d="M 484.195037 289.809268 
L 484.57124 294.878189 
L 484.947443 295.047306 
L 486.452255 294.994814 
L 491.342894 294.745138 
L 492.847706 294.95129 
L 493.600112 295.262559 
L 494.728721 296.024565 
L 495.85733 297.040247 
L 497.738345 299.108056 
L 502.628985 304.452178 
L 506.014812 307.905511 
L 510.529248 312.12456 
L 514.291278 315.344964 
L 518.429512 318.628542 
L 524.44876 323.110204 
L 528.21079 325.639492 
L 531.596617 327.638394 
L 534.606242 329.169412 
L 537.615866 330.50477 
L 540.62549 331.588695 
L 543.258911 332.323174 
L 545.892332 332.84254 
L 548.525753 333.164011 
L 551.159175 333.260042 
L 553.792596 333.122552 
L 556.426017 332.746567 
L 559.059438 332.120682 
L 561.692859 331.241655 
L 564.32628 330.130837 
L 567.335904 328.653336 
L 572.97895 325.724166 
L 579.374401 322.931881 
L 585.017447 320.844577 
L 589.908086 319.264989 
L 592.165304 318.70211 
L 594.046319 318.364995 
L 607.589628 316.348357 
L 611.727861 315.473431 
L 617.370906 314.097953 
L 625.27117 311.929736 
L 633.547636 309.571658 
L 637.68587 308.788434 
L 640.695494 308.423204 
L 653.8626 307.324347 
L 665.901096 306.330106 
L 667.782111 305.82756 
L 670.039329 305.00108 
L 673.425157 303.454732 
L 676.434781 302.132764 
L 678.315796 301.567268 
L 680.949217 301.012813 
L 682.454029 300.940817 
L 684.711247 301.045513 
L 687.720872 301.449058 
L 696.749744 302.795424 
L 701.640383 303.256314 
L 706.531023 303.489053 
L 711.045459 303.478872 
L 715.183692 303.261811 
L 719.321925 302.829838 
L 723.836362 302.129097 
L 726.09358 301.878016 
L 728.727001 301.743763 
L 731.360422 301.806022 
L 735.122452 302.159453 
L 740.765498 302.928567 
L 748.289558 304.199323 
L 753.180197 305.180902 
L 758.44704 306.374291 
L 758.44704 306.374291 
" clip-path="url(#pb9cf4b3369)" style="fill: none; stroke: #937860; stroke-opacity: 0.9; stroke-width: 3; stroke-linecap: round"/>
   </g>
   <g id="patch_15">
    <path d="M 470.482436 373.284 
L 470.482436 253.698 
" style="fill: none; stroke: #ffffff; stroke-width: 1.25; stroke-linejoin: miter; stroke-linecap: square"/>
   </g>
   <g id="patch_16">
    <path d="M 470.482436 373.284 
L 772.15964 373.284 
" style="fill: none; stroke: #ffffff; stroke-width: 1.25; stroke-linejoin: miter; stroke-linecap: square"/>
   </g>
   <g id="text_21">
    <!-- 0.999~30 -->
    <g style="fill: #262626" transform="translate(558.657694 247.698) scale(0.252 -0.252)">
     <defs>
      <path id="DejaVuSans-39" d="M 703 97 
L 703 672 
Q 941 559 1184 500 
Q 1428 441 1663 441 
Q 2288 441 2617 861 
Q 2947 1281 2994 2138 
Q 2813 1869 2534 1725 
Q 2256 1581 1919 1581 
Q 1219 1581 811 2004 
Q 403 2428 403 3163 
Q 403 3881 828 4315 
Q 1253 4750 1959 4750 
Q 2769 4750 3195 4129 
Q 3622 3509 3622 2328 
Q 3622 1225 3098 567 
Q 2575 -91 1691 -91 
Q 1453 -91 1209 -44 
Q 966 3 703 97 
z
M 1959 2075 
Q 2384 2075 2632 2365 
Q 2881 2656 2881 3163 
Q 2881 3666 2632 3958 
Q 2384 4250 1959 4250 
Q 1534 4250 1286 3958 
Q 1038 3666 1038 3163 
Q 1038 2656 1286 2365 
Q 1534 2075 1959 2075 
z
" transform="scale(0.015625)"/>
     </defs>
     <use xlink:href="#DejaVuSans-30"/>
     <use xlink:href="#DejaVuSans-2e" x="63.623047"/>
     <use xlink:href="#DejaVuSans-39" x="95.410156"/>
     <use xlink:href="#DejaVuSans-39" x="159.033203"/>
     <use xlink:href="#DejaVuSans-39" x="222.65625"/>
     <use xlink:href="#DejaVuSans-7e" x="286.279297"/>
     <use xlink:href="#DejaVuSans-33" x="370.068359"/>
     <use xlink:href="#DejaVuSans-30" x="433.691406"/>
    </g>
   </g>
  </g>
  <g id="axes_6">
   <g id="patch_17">
    <path d="M 798.93237 373.284 
L 1100.609573 373.284 
L 1100.609573 253.698 
L 798.93237 253.698 
z
" style="fill: #eaeaf2"/>
   </g>
   <g id="matplotlib.axis_11">
    <g id="xtick_21">
     <g id="line2d_60">
      <path d="M 812.64497 373.284 
L 812.64497 253.698 
" clip-path="url(#pcdd069eb80)" style="fill: none; stroke: #ffffff; stroke-linecap: round"/>
     </g>
     <g id="text_22">
      <!-- 0 -->
      <g style="fill: #262626" transform="translate(805.296283 400.336391) scale(0.231 -0.231)">
       <use xlink:href="#DejaVuSans-30"/>
      </g>
     </g>
    </g>
    <g id="xtick_22">
     <g id="line2d_61">
      <path d="M 906.695726 373.284 
L 906.695726 253.698 
" clip-path="url(#pcdd069eb80)" style="fill: none; stroke: #ffffff; stroke-linecap: round"/>
     </g>
     <g id="text_23">
      <!-- 250 -->
      <g style="fill: #262626" transform="translate(884.649663 400.336391) scale(0.231 -0.231)">
       <use xlink:href="#DejaVuSans-32"/>
       <use xlink:href="#DejaVuSans-35" x="63.623047"/>
       <use xlink:href="#DejaVuSans-30" x="127.246094"/>
      </g>
     </g>
    </g>
    <g id="xtick_23">
     <g id="line2d_62">
      <path d="M 1000.746481 373.284 
L 1000.746481 253.698 
" clip-path="url(#pcdd069eb80)" style="fill: none; stroke: #ffffff; stroke-linecap: round"/>
     </g>
     <g id="text_24">
      <!-- 500 -->
      <g style="fill: #262626" transform="translate(978.700419 400.336391) scale(0.231 -0.231)">
       <use xlink:href="#DejaVuSans-35"/>
       <use xlink:href="#DejaVuSans-30" x="63.623047"/>
       <use xlink:href="#DejaVuSans-30" x="127.246094"/>
      </g>
     </g>
    </g>
    <g id="xtick_24">
     <g id="line2d_63">
      <path d="M 1094.797237 373.284 
L 1094.797237 253.698 
" clip-path="url(#pcdd069eb80)" style="fill: none; stroke: #ffffff; stroke-linecap: round"/>
     </g>
     <g id="text_25">
      <!-- 750 -->
      <g style="fill: #262626" transform="translate(1072.751174 400.336391) scale(0.231 -0.231)">
       <use xlink:href="#DejaVuSans-37"/>
       <use xlink:href="#DejaVuSans-35" x="63.623047"/>
       <use xlink:href="#DejaVuSans-30" x="127.246094"/>
      </g>
     </g>
    </g>
    <g id="text_26">
     <!-- step -->
     <g style="fill: #262626" transform="translate(922.515597 428.288531) scale(0.252 -0.252)">
      <use xlink:href="#DejaVuSans-73"/>
      <use xlink:href="#DejaVuSans-74" x="52.099609"/>
      <use xlink:href="#DejaVuSans-65" x="91.308594"/>
      <use xlink:href="#DejaVuSans-70" x="152.832031"/>
     </g>
    </g>
   </g>
   <g id="matplotlib.axis_12">
    <g id="ytick_11">
     <g id="line2d_64">
      <path d="M 798.93237 354.801001 
L 1100.609573 354.801001 
" clip-path="url(#pcdd069eb80)" style="fill: none; stroke: #ffffff; stroke-linecap: round"/>
     </g>
    </g>
    <g id="ytick_12">
     <g id="line2d_65">
      <path d="M 798.93237 289.809268 
L 1100.609573 289.809268 
" clip-path="url(#pcdd069eb80)" style="fill: none; stroke: #ffffff; stroke-linecap: round"/>
     </g>
    </g>
   </g>
   <g id="PolyCollection_30"/>
   <g id="PolyCollection_31"/>
   <g id="line2d_66">
    <path d="M 812.64497 289.809268 
L 813.021173 296.126357 
L 813.397376 296.405823 
L 814.525985 296.460686 
L 818.664219 296.517782 
L 819.792828 296.671437 
L 821.29764 297.142418 
L 822.050046 297.672494 
L 823.178655 298.669159 
L 825.05967 300.825849 
L 826.564482 302.806354 
L 833.71234 312.795947 
L 837.850573 318.352563 
L 841.988806 323.561305 
L 846.127039 328.434757 
L 850.265272 332.968988 
L 854.403506 337.16722 
L 858.165536 340.683194 
L 861.927566 343.911589 
L 865.689596 346.855197 
L 869.451627 349.51844 
L 873.213657 351.897557 
L 876.599484 353.792068 
L 879.985311 355.457229 
L 883.371138 356.889532 
L 886.756966 358.093325 
L 890.142793 359.074562 
L 893.52862 359.83714 
L 896.914447 360.379353 
L 900.300274 360.696041 
L 903.686102 360.797007 
L 907.448132 360.670344 
L 910.833959 360.348054 
L 914.595989 359.757256 
L 918.734222 358.859579 
L 923.248659 357.639421 
L 929.64411 355.641519 
L 941.682607 351.746964 
L 945.444637 350.855371 
L 948.830464 350.351245 
L 951.840088 350.313356 
L 955.225916 350.555437 
L 960.492758 351.119092 
L 968.393021 352.41767 
L 985.322157 355.212057 
L 996.232045 356.561348 
L 1003.003699 357.137826 
L 1009.775354 357.473174 
L 1015.418399 357.517537 
L 1020.685241 357.351442 
L 1026.328287 356.95148 
L 1032.347535 356.287728 
L 1038.366783 355.401354 
L 1045.138438 354.173862 
L 1052.286295 352.654269 
L 1060.562762 350.656904 
L 1069.591634 348.257756 
L 1075.610883 346.471245 
L 1081.253928 344.575229 
L 1086.896973 342.471563 
L 1086.896973 342.471563 
" clip-path="url(#pcdd069eb80)" style="fill: none; stroke: #8172b3; stroke-opacity: 0.9; stroke-width: 3; stroke-linecap: round"/>
   </g>
   <g id="line2d_67">
    <path d="M 812.64497 289.809268 
L 813.021173 294.878189 
L 813.397376 295.069057 
L 814.902188 295.109225 
L 819.416625 295.181305 
L 820.921437 295.48733 
L 822.050046 295.926077 
L 823.554858 296.961671 
L 826.188279 299.59253 
L 836.345761 311.023233 
L 841.2364 316.116927 
L 845.750836 320.527621 
L 850.265272 324.609962 
L 854.403506 328.068507 
L 858.541739 331.247193 
L 862.679972 334.145476 
L 866.818205 336.767221 
L 870.956439 339.116048 
L 874.718469 341.00813 
L 878.480499 342.668559 
L 882.242529 344.100894 
L 886.00456 345.312703 
L 889.76659 346.304323 
L 893.52862 347.078199 
L 898.043056 347.766475 
L 902.18129 348.162267 
L 906.319523 348.328689 
L 910.457756 348.267685 
L 914.972192 347.962118 
L 919.862832 347.401538 
L 925.129674 346.598287 
L 931.901328 345.317322 
L 956.354525 340.528834 
L 969.897833 338.407485 
L 981.93633 336.658459 
L 1008.270542 333.5037 
L 1013.913587 333.016676 
L 1025.952084 332.427231 
L 1042.88122 331.727943 
L 1048.900468 331.194764 
L 1054.919716 330.432014 
L 1062.067574 329.28665 
L 1068.839228 327.938966 
L 1076.739492 326.147764 
L 1086.896973 323.782635 
L 1086.896973 323.782635 
" clip-path="url(#pcdd069eb80)" style="fill: none; stroke: #937860; stroke-opacity: 0.9; stroke-width: 3; stroke-linecap: round"/>
   </g>
   <g id="patch_18">
    <path d="M 798.93237 373.284 
L 798.93237 253.698 
" style="fill: none; stroke: #ffffff; stroke-width: 1.25; stroke-linejoin: miter; stroke-linecap: square"/>
   </g>
   <g id="patch_19">
    <path d="M 798.93237 373.284 
L 1100.609573 373.284 
" style="fill: none; stroke: #ffffff; stroke-width: 1.25; stroke-linejoin: miter; stroke-linecap: square"/>
   </g>
   <g id="text_27">
    <!-- 0.999~365 -->
    <g style="fill: #262626" transform="translate(879.090878 247.698) scale(0.252 -0.252)">
     <use xlink:href="#DejaVuSans-30"/>
     <use xlink:href="#DejaVuSans-2e" x="63.623047"/>
     <use xlink:href="#DejaVuSans-39" x="95.410156"/>
     <use xlink:href="#DejaVuSans-39" x="159.033203"/>
     <use xlink:href="#DejaVuSans-39" x="222.65625"/>
     <use xlink:href="#DejaVuSans-7e" x="286.279297"/>
     <use xlink:href="#DejaVuSans-33" x="370.068359"/>
     <use xlink:href="#DejaVuSans-36" x="433.691406"/>
     <use xlink:href="#DejaVuSans-35" x="497.314453"/>
    </g>
   </g>
  </g>
  <g id="text_28">
   <!-- Production change from pre-shock level -->
   <g style="fill: #262626" transform="translate(280.766836 30.177675) scale(0.3024 -0.3024)">
    <defs>
     <path id="DejaVuSans-50" d="M 1259 4147 
L 1259 2394 
L 2053 2394 
Q 2494 2394 2734 2622 
Q 2975 2850 2975 3272 
Q 2975 3691 2734 3919 
Q 2494 4147 2053 4147 
L 1259 4147 
z
M 628 4666 
L 2053 4666 
Q 2838 4666 3239 4311 
Q 3641 3956 3641 3272 
Q 3641 2581 3239 2228 
Q 2838 1875 2053 1875 
L 1259 1875 
L 1259 0 
L 628 0 
L 628 4666 
z
" transform="scale(0.015625)"/>
     <path id="DejaVuSans-72" d="M 2631 2963 
Q 2534 3019 2420 3045 
Q 2306 3072 2169 3072 
Q 1681 3072 1420 2755 
Q 1159 2438 1159 1844 
L 1159 0 
L 581 0 
L 581 3500 
L 1159 3500 
L 1159 2956 
Q 1341 3275 1631 3429 
Q 1922 3584 2338 3584 
Q 2397 3584 2469 3576 
Q 2541 3569 2628 3553 
L 2631 2963 
z
" transform="scale(0.015625)"/>
     <path id="DejaVuSans-6f" d="M 1959 3097 
Q 1497 3097 1228 2736 
Q 959 2375 959 1747 
Q 959 1119 1226 758 
Q 1494 397 1959 397 
Q 2419 397 2687 759 
Q 2956 1122 2956 1747 
Q 2956 2369 2687 2733 
Q 2419 3097 1959 3097 
z
M 1959 3584 
Q 2709 3584 3137 3096 
Q 3566 2609 3566 1747 
Q 3566 888 3137 398 
Q 2709 -91 1959 -91 
Q 1206 -91 779 398 
Q 353 888 353 1747 
Q 353 2609 779 3096 
Q 1206 3584 1959 3584 
z
" transform="scale(0.015625)"/>
     <path id="DejaVuSans-64" d="M 2906 2969 
L 2906 4863 
L 3481 4863 
L 3481 0 
L 2906 0 
L 2906 525 
Q 2725 213 2448 61 
Q 2172 -91 1784 -91 
Q 1150 -91 751 415 
Q 353 922 353 1747 
Q 353 2572 751 3078 
Q 1150 3584 1784 3584 
Q 2172 3584 2448 3432 
Q 2725 3281 2906 2969 
z
M 947 1747 
Q 947 1113 1208 752 
Q 1469 391 1925 391 
Q 2381 391 2643 752 
Q 2906 1113 2906 1747 
Q 2906 2381 2643 2742 
Q 2381 3103 1925 3103 
Q 1469 3103 1208 2742 
Q 947 2381 947 1747 
z
" transform="scale(0.015625)"/>
     <path id="DejaVuSans-75" d="M 544 1381 
L 544 3500 
L 1119 3500 
L 1119 1403 
Q 1119 906 1312 657 
Q 1506 409 1894 409 
Q 2359 409 2629 706 
Q 2900 1003 2900 1516 
L 2900 3500 
L 3475 3500 
L 3475 0 
L 2900 0 
L 2900 538 
Q 2691 219 2414 64 
Q 2138 -91 1772 -91 
Q 1169 -91 856 284 
Q 544 659 544 1381 
z
M 1991 3584 
L 1991 3584 
z
" transform="scale(0.015625)"/>
     <path id="DejaVuSans-69" d="M 603 3500 
L 1178 3500 
L 1178 0 
L 603 0 
L 603 3500 
z
M 603 4863 
L 1178 4863 
L 1178 4134 
L 603 4134 
L 603 4863 
z
" transform="scale(0.015625)"/>
     <path id="DejaVuSans-66" d="M 2375 4863 
L 2375 4384 
L 1825 4384 
Q 1516 4384 1395 4259 
Q 1275 4134 1275 3809 
L 1275 3500 
L 2222 3500 
L 2222 3053 
L 1275 3053 
L 1275 0 
L 697 0 
L 697 3053 
L 147 3053 
L 147 3500 
L 697 3500 
L 697 3744 
Q 697 4328 969 4595 
Q 1241 4863 1831 4863 
L 2375 4863 
z
" transform="scale(0.015625)"/>
     <path id="DejaVuSans-6d" d="M 3328 2828 
Q 3544 3216 3844 3400 
Q 4144 3584 4550 3584 
Q 5097 3584 5394 3201 
Q 5691 2819 5691 2113 
L 5691 0 
L 5113 0 
L 5113 2094 
Q 5113 2597 4934 2840 
Q 4756 3084 4391 3084 
Q 3944 3084 3684 2787 
Q 3425 2491 3425 1978 
L 3425 0 
L 2847 0 
L 2847 2094 
Q 2847 2600 2669 2842 
Q 2491 3084 2119 3084 
Q 1678 3084 1418 2786 
Q 1159 2488 1159 1978 
L 1159 0 
L 581 0 
L 581 3500 
L 1159 3500 
L 1159 2956 
Q 1356 3278 1631 3431 
Q 1906 3584 2284 3584 
Q 2666 3584 2933 3390 
Q 3200 3197 3328 2828 
z
" transform="scale(0.015625)"/>
     <path id="DejaVuSans-2d" d="M 313 2009 
L 1997 2009 
L 1997 1497 
L 313 1497 
L 313 2009 
z
" transform="scale(0.015625)"/>
     <path id="DejaVuSans-6b" d="M 581 4863 
L 1159 4863 
L 1159 1991 
L 2875 3500 
L 3609 3500 
L 1753 1863 
L 3688 0 
L 2938 0 
L 1159 1709 
L 1159 0 
L 581 0 
L 581 4863 
z
" transform="scale(0.015625)"/>
     <path id="DejaVuSans-6c" d="M 603 4863 
L 1178 4863 
L 1178 0 
L 603 0 
L 603 4863 
z
" transform="scale(0.015625)"/>
     <path id="DejaVuSans-76" d="M 191 3500 
L 800 3500 
L 1894 563 
L 2988 3500 
L 3597 3500 
L 2284 0 
L 1503 0 
L 191 3500 
z
" transform="scale(0.015625)"/>
    </defs>
    <use xlink:href="#DejaVuSans-50"/>
    <use xlink:href="#DejaVuSans-72" x="58.552734"/>
    <use xlink:href="#DejaVuSans-6f" x="97.416016"/>
    <use xlink:href="#DejaVuSans-64" x="158.597656"/>
    <use xlink:href="#DejaVuSans-75" x="222.074219"/>
    <use xlink:href="#DejaVuSans-63" x="285.453125"/>
    <use xlink:href="#DejaVuSans-74" x="340.433594"/>
    <use xlink:href="#DejaVuSans-69" x="379.642578"/>
    <use xlink:href="#DejaVuSans-6f" x="407.425781"/>
    <use xlink:href="#DejaVuSans-6e" x="468.607422"/>
    <use xlink:href="#DejaVuSans-20" x="531.986328"/>
    <use xlink:href="#DejaVuSans-63" x="563.773438"/>
    <use xlink:href="#DejaVuSans-68" x="618.753906"/>
    <use xlink:href="#DejaVuSans-61" x="682.132812"/>
    <use xlink:href="#DejaVuSans-6e" x="743.412109"/>
    <use xlink:href="#DejaVuSans-67" x="806.791016"/>
    <use xlink:href="#DejaVuSans-65" x="870.267578"/>
    <use xlink:href="#DejaVuSans-20" x="931.791016"/>
    <use xlink:href="#DejaVuSans-66" x="963.578125"/>
    <use xlink:href="#DejaVuSans-72" x="998.783203"/>
    <use xlink:href="#DejaVuSans-6f" x="1037.646484"/>
    <use xlink:href="#DejaVuSans-6d" x="1098.828125"/>
    <use xlink:href="#DejaVuSans-20" x="1196.240234"/>
    <use xlink:href="#DejaVuSans-70" x="1228.027344"/>
    <use xlink:href="#DejaVuSans-72" x="1291.503906"/>
    <use xlink:href="#DejaVuSans-65" x="1330.367188"/>
    <use xlink:href="#DejaVuSans-2d" x="1391.890625"/>
    <use xlink:href="#DejaVuSans-73" x="1427.974609"/>
    <use xlink:href="#DejaVuSans-68" x="1480.074219"/>
    <use xlink:href="#DejaVuSans-6f" x="1543.453125"/>
    <use xlink:href="#DejaVuSans-63" x="1604.634766"/>
    <use xlink:href="#DejaVuSans-6b" x="1659.615234"/>
    <use xlink:href="#DejaVuSans-20" x="1717.525391"/>
    <use xlink:href="#DejaVuSans-6c" x="1749.3125"/>
    <use xlink:href="#DejaVuSans-65" x="1777.095703"/>
    <use xlink:href="#DejaVuSans-76" x="1838.619141"/>
    <use xlink:href="#DejaVuSans-65" x="1897.798828"/>
    <use xlink:href="#DejaVuSans-6c" x="1959.322266"/>
   </g>
  </g>
  <g id="legend_1">
   <g id="patch_20">
    <path d="M 11.82 584.31675 
L 1292.617547 584.31675 
Q 1297.237547 584.31675 1297.237547 579.69675 
L 1297.237547 476.97 
Q 1297.237547 472.35 1292.617547 472.35 
L 11.82 472.35 
Q 7.2 472.35 7.2 476.97 
L 7.2 579.69675 
Q 7.2 584.31675 11.82 584.31675 
z
" style="fill: #eaeaf2; opacity: 0.8; stroke: #cccccc; stroke-linejoin: miter"/>
   </g>
   <g id="text_29">
    <!-- Experiences -->
    <g style="fill: #262626" transform="translate(575.384367 500.738062) scale(0.252 -0.252)">
     <defs>
      <path id="DejaVuSans-45" d="M 628 4666 
L 3578 4666 
L 3578 4134 
L 1259 4134 
L 1259 2753 
L 3481 2753 
L 3481 2222 
L 1259 2222 
L 1259 531 
L 3634 531 
L 3634 0 
L 628 0 
L 628 4666 
z
" transform="scale(0.015625)"/>
      <path id="DejaVuSans-78" d="M 3513 3500 
L 2247 1797 
L 3578 0 
L 2900 0 
L 1881 1375 
L 863 0 
L 184 0 
L 1544 1831 
L 300 3500 
L 978 3500 
L 1906 2253 
L 2834 3500 
L 3513 3500 
z
" transform="scale(0.015625)"/>
     </defs>
     <use xlink:href="#DejaVuSans-45"/>
     <use xlink:href="#DejaVuSans-78" x="63.183594"/>
     <use xlink:href="#DejaVuSans-70" x="122.363281"/>
     <use xlink:href="#DejaVuSans-65" x="185.839844"/>
     <use xlink:href="#DejaVuSans-72" x="247.363281"/>
     <use xlink:href="#DejaVuSans-69" x="288.476562"/>
     <use xlink:href="#DejaVuSans-65" x="316.259766"/>
     <use xlink:href="#DejaVuSans-6e" x="377.783203"/>
     <use xlink:href="#DejaVuSans-63" x="441.162109"/>
     <use xlink:href="#DejaVuSans-65" x="496.142578"/>
     <use xlink:href="#DejaVuSans-73" x="557.666016"/>
    </g>
   </g>
   <g id="line2d_68">
    <path d="M 16.44 526.996266 
L 39.54 526.996266 
L 62.64 526.996266 
" style="fill: none; stroke: #4c72b0; stroke-opacity: 0.9; stroke-width: 3; stroke-linecap: round"/>
   </g>
   <g id="text_30">
    <!-- eora26_full_2000 -->
    <g style="fill: #262626" transform="translate(81.12 535.081266) scale(0.231 -0.231)">
     <defs>
      <path id="DejaVuSans-5f" d="M 3263 -1063 
L 3263 -1509 
L -63 -1509 
L -63 -1063 
L 3263 -1063 
z
" transform="scale(0.015625)"/>
     </defs>
     <use xlink:href="#DejaVuSans-65"/>
     <use xlink:href="#DejaVuSans-6f" x="61.523438"/>
     <use xlink:href="#DejaVuSans-72" x="122.705078"/>
     <use xlink:href="#DejaVuSans-61" x="163.818359"/>
     <use xlink:href="#DejaVuSans-32" x="225.097656"/>
     <use xlink:href="#DejaVuSans-36" x="288.720703"/>
     <use xlink:href="#DejaVuSans-5f" x="352.34375"/>
     <use xlink:href="#DejaVuSans-66" x="402.34375"/>
     <use xlink:href="#DejaVuSans-75" x="437.548828"/>
     <use xlink:href="#DejaVuSans-6c" x="500.927734"/>
     <use xlink:href="#DejaVuSans-6c" x="528.710938"/>
     <use xlink:href="#DejaVuSans-5f" x="556.494141"/>
     <use xlink:href="#DejaVuSans-32" x="606.494141"/>
     <use xlink:href="#DejaVuSans-30" x="670.117188"/>
     <use xlink:href="#DejaVuSans-30" x="733.740234"/>
     <use xlink:href="#DejaVuSans-30" x="797.363281"/>
    </g>
   </g>
   <g id="line2d_69">
    <path d="M 16.44 561.545203 
L 39.54 561.545203 
L 62.64 561.545203 
" style="fill: none; stroke: #dd8452; stroke-opacity: 0.9; stroke-width: 3; stroke-linecap: round"/>
   </g>
   <g id="text_31">
    <!-- eora26_full_2010 -->
    <g style="fill: #262626" transform="translate(81.12 569.630203) scale(0.231 -0.231)">
     <defs>
      <path id="DejaVuSans-31" d="M 794 531 
L 1825 531 
L 1825 4091 
L 703 3866 
L 703 4441 
L 1819 4666 
L 2450 4666 
L 2450 531 
L 3481 531 
L 3481 0 
L 794 0 
L 794 531 
z
" transform="scale(0.015625)"/>
     </defs>
     <use xlink:href="#DejaVuSans-65"/>
     <use xlink:href="#DejaVuSans-6f" x="61.523438"/>
     <use xlink:href="#DejaVuSans-72" x="122.705078"/>
     <use xlink:href="#DejaVuSans-61" x="163.818359"/>
     <use xlink:href="#DejaVuSans-32" x="225.097656"/>
     <use xlink:href="#DejaVuSans-36" x="288.720703"/>
     <use xlink:href="#DejaVuSans-5f" x="352.34375"/>
     <use xlink:href="#DejaVuSans-66" x="402.34375"/>
     <use xlink:href="#DejaVuSans-75" x="437.548828"/>
     <use xlink:href="#DejaVuSans-6c" x="500.927734"/>
     <use xlink:href="#DejaVuSans-6c" x="528.710938"/>
     <use xlink:href="#DejaVuSans-5f" x="556.494141"/>
     <use xlink:href="#DejaVuSans-32" x="606.494141"/>
     <use xlink:href="#DejaVuSans-30" x="670.117188"/>
     <use xlink:href="#DejaVuSans-31" x="733.740234"/>
     <use xlink:href="#DejaVuSans-30" x="797.363281"/>
    </g>
   </g>
   <g id="line2d_70">
    <path d="M 326.211 526.996266 
L 349.311 526.996266 
L 372.411 526.996266 
" style="fill: none; stroke: #55a868; stroke-opacity: 0.9; stroke-width: 3; stroke-linecap: round"/>
   </g>
   <g id="text_32">
    <!-- euregio_full_2000 -->
    <g style="fill: #262626" transform="translate(390.891 535.081266) scale(0.231 -0.231)">
     <use xlink:href="#DejaVuSans-65"/>
     <use xlink:href="#DejaVuSans-75" x="61.523438"/>
     <use xlink:href="#DejaVuSans-72" x="124.902344"/>
     <use xlink:href="#DejaVuSans-65" x="163.765625"/>
     <use xlink:href="#DejaVuSans-67" x="225.289062"/>
     <use xlink:href="#DejaVuSans-69" x="288.765625"/>
     <use xlink:href="#DejaVuSans-6f" x="316.548828"/>
     <use xlink:href="#DejaVuSans-5f" x="377.730469"/>
     <use xlink:href="#DejaVuSans-66" x="427.730469"/>
     <use xlink:href="#DejaVuSans-75" x="462.935547"/>
     <use xlink:href="#DejaVuSans-6c" x="526.314453"/>
     <use xlink:href="#DejaVuSans-6c" x="554.097656"/>
     <use xlink:href="#DejaVuSans-5f" x="581.880859"/>
     <use xlink:href="#DejaVuSans-32" x="631.880859"/>
     <use xlink:href="#DejaVuSans-30" x="695.503906"/>
     <use xlink:href="#DejaVuSans-30" x="759.126953"/>
     <use xlink:href="#DejaVuSans-30" x="822.75"/>
    </g>
   </g>
   <g id="line2d_71">
    <path d="M 326.211 561.545203 
L 349.311 561.545203 
L 372.411 561.545203 
" style="fill: none; stroke: #c44e52; stroke-opacity: 0.9; stroke-width: 3; stroke-linecap: round"/>
   </g>
   <g id="text_33">
    <!-- euregio_full_2010 -->
    <g style="fill: #262626" transform="translate(390.891 569.630203) scale(0.231 -0.231)">
     <use xlink:href="#DejaVuSans-65"/>
     <use xlink:href="#DejaVuSans-75" x="61.523438"/>
     <use xlink:href="#DejaVuSans-72" x="124.902344"/>
     <use xlink:href="#DejaVuSans-65" x="163.765625"/>
     <use xlink:href="#DejaVuSans-67" x="225.289062"/>
     <use xlink:href="#DejaVuSans-69" x="288.765625"/>
     <use xlink:href="#DejaVuSans-6f" x="316.548828"/>
     <use xlink:href="#DejaVuSans-5f" x="377.730469"/>
     <use xlink:href="#DejaVuSans-66" x="427.730469"/>
     <use xlink:href="#DejaVuSans-75" x="462.935547"/>
     <use xlink:href="#DejaVuSans-6c" x="526.314453"/>
     <use xlink:href="#DejaVuSans-6c" x="554.097656"/>
     <use xlink:href="#DejaVuSans-5f" x="581.880859"/>
     <use xlink:href="#DejaVuSans-32" x="631.880859"/>
     <use xlink:href="#DejaVuSans-30" x="695.503906"/>
     <use xlink:href="#DejaVuSans-31" x="759.126953"/>
     <use xlink:href="#DejaVuSans-30" x="822.75"/>
    </g>
   </g>
   <g id="line2d_72">
    <path d="M 641.847234 526.996266 
L 664.947234 526.996266 
L 688.047234 526.996266 
" style="fill: none; stroke: #8172b3; stroke-opacity: 0.9; stroke-width: 3; stroke-linecap: round"/>
   </g>
   <g id="text_34">
    <!-- exiobase3_full_2000 -->
    <g style="fill: #262626" transform="translate(706.527234 535.081266) scale(0.231 -0.231)">
     <defs>
      <path id="DejaVuSans-62" d="M 3116 1747 
Q 3116 2381 2855 2742 
Q 2594 3103 2138 3103 
Q 1681 3103 1420 2742 
Q 1159 2381 1159 1747 
Q 1159 1113 1420 752 
Q 1681 391 2138 391 
Q 2594 391 2855 752 
Q 3116 1113 3116 1747 
z
M 1159 2969 
Q 1341 3281 1617 3432 
Q 1894 3584 2278 3584 
Q 2916 3584 3314 3078 
Q 3713 2572 3713 1747 
Q 3713 922 3314 415 
Q 2916 -91 2278 -91 
Q 1894 -91 1617 61 
Q 1341 213 1159 525 
L 1159 0 
L 581 0 
L 581 4863 
L 1159 4863 
L 1159 2969 
z
" transform="scale(0.015625)"/>
     </defs>
     <use xlink:href="#DejaVuSans-65"/>
     <use xlink:href="#DejaVuSans-78" x="59.773438"/>
     <use xlink:href="#DejaVuSans-69" x="118.953125"/>
     <use xlink:href="#DejaVuSans-6f" x="146.736328"/>
     <use xlink:href="#DejaVuSans-62" x="207.917969"/>
     <use xlink:href="#DejaVuSans-61" x="271.394531"/>
     <use xlink:href="#DejaVuSans-73" x="332.673828"/>
     <use xlink:href="#DejaVuSans-65" x="384.773438"/>
     <use xlink:href="#DejaVuSans-33" x="446.296875"/>
     <use xlink:href="#DejaVuSans-5f" x="509.919922"/>
     <use xlink:href="#DejaVuSans-66" x="559.919922"/>
     <use xlink:href="#DejaVuSans-75" x="595.125"/>
     <use xlink:href="#DejaVuSans-6c" x="658.503906"/>
     <use xlink:href="#DejaVuSans-6c" x="686.287109"/>
     <use xlink:href="#DejaVuSans-5f" x="714.070312"/>
     <use xlink:href="#DejaVuSans-32" x="764.070312"/>
     <use xlink:href="#DejaVuSans-30" x="827.693359"/>
     <use xlink:href="#DejaVuSans-30" x="891.316406"/>
     <use xlink:href="#DejaVuSans-30" x="954.939453"/>
    </g>
   </g>
   <g id="line2d_73">
    <path d="M 988.022391 526.996266 
L 1011.122391 526.996266 
L 1034.222391 526.996266 
" style="fill: none; stroke: #937860; stroke-opacity: 0.9; stroke-width: 3; stroke-linecap: round"/>
   </g>
   <g id="text_35">
    <!-- exiobase3_full_2010 -->
    <g style="fill: #262626" transform="translate(1052.702391 535.081266) scale(0.231 -0.231)">
     <use xlink:href="#DejaVuSans-65"/>
     <use xlink:href="#DejaVuSans-78" x="59.773438"/>
     <use xlink:href="#DejaVuSans-69" x="118.953125"/>
     <use xlink:href="#DejaVuSans-6f" x="146.736328"/>
     <use xlink:href="#DejaVuSans-62" x="207.917969"/>
     <use xlink:href="#DejaVuSans-61" x="271.394531"/>
     <use xlink:href="#DejaVuSans-73" x="332.673828"/>
     <use xlink:href="#DejaVuSans-65" x="384.773438"/>
     <use xlink:href="#DejaVuSans-33" x="446.296875"/>
     <use xlink:href="#DejaVuSans-5f" x="509.919922"/>
     <use xlink:href="#DejaVuSans-66" x="559.919922"/>
     <use xlink:href="#DejaVuSans-75" x="595.125"/>
     <use xlink:href="#DejaVuSans-6c" x="658.503906"/>
     <use xlink:href="#DejaVuSans-6c" x="686.287109"/>
     <use xlink:href="#DejaVuSans-5f" x="714.070312"/>
     <use xlink:href="#DejaVuSans-32" x="764.070312"/>
     <use xlink:href="#DejaVuSans-30" x="827.693359"/>
     <use xlink:href="#DejaVuSans-31" x="891.316406"/>
     <use xlink:href="#DejaVuSans-30" x="954.939453"/>
    </g>
   </g>
  </g>
 </g>
 <defs>
  <clipPath id="pfcced7b8f7">
   <rect x="142.032503" y="81.456" width="301.677203" height="119.586"/>
  </clipPath>
  <clipPath id="p868e23b8e8">
   <rect x="470.482436" y="81.456" width="301.677203" height="119.586"/>
  </clipPath>
  <clipPath id="p92b651e741">
   <rect x="798.93237" y="81.456" width="301.677203" height="119.586"/>
  </clipPath>
  <clipPath id="p718d6c529b">
   <rect x="142.032503" y="253.698" width="301.677203" height="119.586"/>
  </clipPath>
  <clipPath id="pb9cf4b3369">
   <rect x="470.482436" y="253.698" width="301.677203" height="119.586"/>
  </clipPath>
  <clipPath id="pcdd069eb80">
   <rect x="798.93237" y="253.698" width="301.677203" height="119.586"/>
  </clipPath>
 </defs>
</svg>
