<?xml version="1.0" encoding="utf-8" standalone="no"?>
<!DOCTYPE svg PUBLIC "-//W3C//DTD SVG 1.1//EN"
  "http://www.w3.org/Graphics/SVG/1.1/DTD/svg11.dtd">
<svg xmlns:xlink="http://www.w3.org/1999/xlink" width="1304.437547pt" height="591.51675pt" viewBox="0 0 1304.437547 591.51675" xmlns="http://www.w3.org/2000/svg" version="1.1">
 <metadata>
  <rdf:RDF xmlns:dc="http://purl.org/dc/elements/1.1/" xmlns:cc="http://creativecommons.org/ns#" xmlns:rdf="http://www.w3.org/1999/02/22-rdf-syntax-ns#">
   <cc:Work>
    <dc:type rdf:resource="http://purl.org/dc/dcmitype/StillImage"/>
    <dc:date>2023-04-20T13:53:15.345132</dc:date>
    <dc:format>image/svg+xml</dc:format>
    <dc:creator>
     <cc:Agent>
      <dc:title>Matplotlib v3.7.1, https://matplotlib.org/</dc:title>
     </cc:Agent>
    </dc:creator>
   </cc:Work>
  </rdf:RDF>
 </metadata>
 <defs>
  <style type="text/css">*{stroke-linejoin: round; stroke-linecap: butt}</style>
 </defs>
 <g id="figure_1">
  <g id="patch_1">
   <path d="M 0 591.51675 
L 1304.437547 591.51675 
L 1304.437547 -0 
L 0 -0 
z
" style="fill: #ffffff"/>
  </g>
  <g id="axes_1">
   <g id="patch_2">
    <path d="M 142.032503 201.042 
L 443.709706 201.042 
L 443.709706 81.456 
L 142.032503 81.456 
z
" style="fill: #eaeaf2"/>
   </g>
   <g id="matplotlib.axis_1">
    <g id="xtick_1">
     <g id="line2d_1">
      <path d="M 155.745103 201.042 
L 155.745103 81.456 
" clip-path="url(#p77deb12d11)" style="fill: none; stroke: #ffffff; stroke-linecap: round"/>
     </g>
    </g>
    <g id="xtick_2">
     <g id="line2d_2">
      <path d="M 249.795858 201.042 
L 249.795858 81.456 
" clip-path="url(#p77deb12d11)" style="fill: none; stroke: #ffffff; stroke-linecap: round"/>
     </g>
    </g>
    <g id="xtick_3">
     <g id="line2d_3">
      <path d="M 343.846614 201.042 
L 343.846614 81.456 
" clip-path="url(#p77deb12d11)" style="fill: none; stroke: #ffffff; stroke-linecap: round"/>
     </g>
    </g>
    <g id="xtick_4">
     <g id="line2d_4">
      <path d="M 437.897369 201.042 
L 437.897369 81.456 
" clip-path="url(#p77deb12d11)" style="fill: none; stroke: #ffffff; stroke-linecap: round"/>
     </g>
    </g>
   </g>
   <g id="matplotlib.axis_2">
    <g id="ytick_1">
     <g id="line2d_5">
      <path d="M 142.032503 165.775231 
L 443.709706 165.775231 
" clip-path="url(#p77deb12d11)" style="fill: none; stroke: #ffffff; stroke-linecap: round"/>
     </g>
     <g id="text_1">
      <!-- −5 -->
      <g style="fill: #262626" transform="translate(98.47805 174.551427) scale(0.231 -0.231)">
       <defs>
        <path id="DejaVuSans-2212" d="M 678 2272 
L 4684 2272 
L 4684 1741 
L 678 1741 
L 678 2272 
z
" transform="scale(0.015625)"/>
        <path id="DejaVuSans-35" d="M 691 4666 
L 3169 4666 
L 3169 4134 
L 1269 4134 
L 1269 2991 
Q 1406 3038 1543 3061 
Q 1681 3084 1819 3084 
Q 2600 3084 3056 2656 
Q 3513 2228 3513 1497 
Q 3513 744 3044 326 
Q 2575 -91 1722 -91 
Q 1428 -91 1123 -41 
Q 819 9 494 109 
L 494 744 
Q 775 591 1075 516 
Q 1375 441 1709 441 
Q 2250 441 2565 725 
Q 2881 1009 2881 1497 
Q 2881 1984 2565 2268 
Q 2250 2553 1709 2553 
Q 1456 2553 1204 2497 
Q 953 2441 691 2322 
L 691 4666 
z
" transform="scale(0.015625)"/>
       </defs>
       <use xlink:href="#DejaVuSans-2212"/>
       <use xlink:href="#DejaVuSans-35" x="83.789062"/>
      </g>
     </g>
    </g>
    <g id="ytick_2">
     <g id="line2d_6">
      <path d="M 142.032503 100.782021 
L 443.709706 100.782021 
" clip-path="url(#p77deb12d11)" style="fill: none; stroke: #ffffff; stroke-linecap: round"/>
     </g>
     <g id="text_2">
      <!-- 0 -->
      <g style="fill: #262626" transform="translate(117.835128 109.558217) scale(0.231 -0.231)">
       <defs>
        <path id="DejaVuSans-30" d="M 2034 4250 
Q 1547 4250 1301 3770 
Q 1056 3291 1056 2328 
Q 1056 1369 1301 889 
Q 1547 409 2034 409 
Q 2525 409 2770 889 
Q 3016 1369 3016 2328 
Q 3016 3291 2770 3770 
Q 2525 4250 2034 4250 
z
M 2034 4750 
Q 2819 4750 3233 4129 
Q 3647 3509 3647 2328 
Q 3647 1150 3233 529 
Q 2819 -91 2034 -91 
Q 1250 -91 836 529 
Q 422 1150 422 2328 
Q 422 3509 836 4129 
Q 1250 4750 2034 4750 
z
" transform="scale(0.015625)"/>
       </defs>
       <use xlink:href="#DejaVuSans-30"/>
      </g>
     </g>
    </g>
    <g id="text_3">
     <!-- % change -->
     <g style="fill: #262626" transform="translate(89.237237 203.597344) rotate(-90) scale(0.252 -0.252)">
      <defs>
       <path id="DejaVuSans-25" d="M 4653 2053 
Q 4381 2053 4226 1822 
Q 4072 1591 4072 1178 
Q 4072 772 4226 539 
Q 4381 306 4653 306 
Q 4919 306 5073 539 
Q 5228 772 5228 1178 
Q 5228 1588 5073 1820 
Q 4919 2053 4653 2053 
z
M 4653 2450 
Q 5147 2450 5437 2106 
Q 5728 1763 5728 1178 
Q 5728 594 5436 251 
Q 5144 -91 4653 -91 
Q 4153 -91 3862 251 
Q 3572 594 3572 1178 
Q 3572 1766 3864 2108 
Q 4156 2450 4653 2450 
z
M 1428 4353 
Q 1159 4353 1004 4120 
Q 850 3888 850 3481 
Q 850 3069 1003 2837 
Q 1156 2606 1428 2606 
Q 1700 2606 1854 2837 
Q 2009 3069 2009 3481 
Q 2009 3884 1853 4118 
Q 1697 4353 1428 4353 
z
M 4250 4750 
L 4750 4750 
L 1831 -91 
L 1331 -91 
L 4250 4750 
z
M 1428 4750 
Q 1922 4750 2215 4408 
Q 2509 4066 2509 3481 
Q 2509 2891 2217 2550 
Q 1925 2209 1428 2209 
Q 931 2209 642 2551 
Q 353 2894 353 3481 
Q 353 4063 643 4406 
Q 934 4750 1428 4750 
z
" transform="scale(0.015625)"/>
       <path id="DejaVuSans-20" transform="scale(0.015625)"/>
       <path id="DejaVuSans-63" d="M 3122 3366 
L 3122 2828 
Q 2878 2963 2633 3030 
Q 2388 3097 2138 3097 
Q 1578 3097 1268 2742 
Q 959 2388 959 1747 
Q 959 1106 1268 751 
Q 1578 397 2138 397 
Q 2388 397 2633 464 
Q 2878 531 3122 666 
L 3122 134 
Q 2881 22 2623 -34 
Q 2366 -91 2075 -91 
Q 1284 -91 818 406 
Q 353 903 353 1747 
Q 353 2603 823 3093 
Q 1294 3584 2113 3584 
Q 2378 3584 2631 3529 
Q 2884 3475 3122 3366 
z
" transform="scale(0.015625)"/>
       <path id="DejaVuSans-68" d="M 3513 2113 
L 3513 0 
L 2938 0 
L 2938 2094 
Q 2938 2591 2744 2837 
Q 2550 3084 2163 3084 
Q 1697 3084 1428 2787 
Q 1159 2491 1159 1978 
L 1159 0 
L 581 0 
L 581 4863 
L 1159 4863 
L 1159 2956 
Q 1366 3272 1645 3428 
Q 1925 3584 2291 3584 
Q 2894 3584 3203 3211 
Q 3513 2838 3513 2113 
z
" transform="scale(0.015625)"/>
       <path id="DejaVuSans-61" d="M 2194 1759 
Q 1497 1759 1228 1600 
Q 959 1441 959 1056 
Q 959 750 1161 570 
Q 1363 391 1709 391 
Q 2188 391 2477 730 
Q 2766 1069 2766 1631 
L 2766 1759 
L 2194 1759 
z
M 3341 1997 
L 3341 0 
L 2766 0 
L 2766 531 
Q 2569 213 2275 61 
Q 1981 -91 1556 -91 
Q 1019 -91 701 211 
Q 384 513 384 1019 
Q 384 1609 779 1909 
Q 1175 2209 1959 2209 
L 2766 2209 
L 2766 2266 
Q 2766 2663 2505 2880 
Q 2244 3097 1772 3097 
Q 1472 3097 1187 3025 
Q 903 2953 641 2809 
L 641 3341 
Q 956 3463 1253 3523 
Q 1550 3584 1831 3584 
Q 2591 3584 2966 3190 
Q 3341 2797 3341 1997 
z
" transform="scale(0.015625)"/>
       <path id="DejaVuSans-6e" d="M 3513 2113 
L 3513 0 
L 2938 0 
L 2938 2094 
Q 2938 2591 2744 2837 
Q 2550 3084 2163 3084 
Q 1697 3084 1428 2787 
Q 1159 2491 1159 1978 
L 1159 0 
L 581 0 
L 581 3500 
L 1159 3500 
L 1159 2956 
Q 1366 3272 1645 3428 
Q 1925 3584 2291 3584 
Q 2894 3584 3203 3211 
Q 3513 2838 3513 2113 
z
" transform="scale(0.015625)"/>
       <path id="DejaVuSans-67" d="M 2906 1791 
Q 2906 2416 2648 2759 
Q 2391 3103 1925 3103 
Q 1463 3103 1205 2759 
Q 947 2416 947 1791 
Q 947 1169 1205 825 
Q 1463 481 1925 481 
Q 2391 481 2648 825 
Q 2906 1169 2906 1791 
z
M 3481 434 
Q 3481 -459 3084 -895 
Q 2688 -1331 1869 -1331 
Q 1566 -1331 1297 -1286 
Q 1028 -1241 775 -1147 
L 775 -588 
Q 1028 -725 1275 -790 
Q 1522 -856 1778 -856 
Q 2344 -856 2625 -561 
Q 2906 -266 2906 331 
L 2906 616 
Q 2728 306 2450 153 
Q 2172 0 1784 0 
Q 1141 0 747 490 
Q 353 981 353 1791 
Q 353 2603 747 3093 
Q 1141 3584 1784 3584 
Q 2172 3584 2450 3431 
Q 2728 3278 2906 2969 
L 2906 3500 
L 3481 3500 
L 3481 434 
z
" transform="scale(0.015625)"/>
       <path id="DejaVuSans-65" d="M 3597 1894 
L 3597 1613 
L 953 1613 
Q 991 1019 1311 708 
Q 1631 397 2203 397 
Q 2534 397 2845 478 
Q 3156 559 3463 722 
L 3463 178 
Q 3153 47 2828 -22 
Q 2503 -91 2169 -91 
Q 1331 -91 842 396 
Q 353 884 353 1716 
Q 353 2575 817 3079 
Q 1281 3584 2069 3584 
Q 2775 3584 3186 3129 
Q 3597 2675 3597 1894 
z
M 3022 2063 
Q 3016 2534 2758 2815 
Q 2500 3097 2075 3097 
Q 1594 3097 1305 2825 
Q 1016 2553 972 2059 
L 3022 2063 
z
" transform="scale(0.015625)"/>
      </defs>
      <use xlink:href="#DejaVuSans-25"/>
      <use xlink:href="#DejaVuSans-20" x="95.019531"/>
      <use xlink:href="#DejaVuSans-63" x="126.806641"/>
      <use xlink:href="#DejaVuSans-68" x="181.787109"/>
      <use xlink:href="#DejaVuSans-61" x="245.166016"/>
      <use xlink:href="#DejaVuSans-6e" x="306.445312"/>
      <use xlink:href="#DejaVuSans-67" x="369.824219"/>
      <use xlink:href="#DejaVuSans-65" x="433.300781"/>
     </g>
    </g>
   </g>
   <g id="PolyCollection_1"/>
   <g id="PolyCollection_2"/>
   <g id="PolyCollection_3"/>
   <g id="PolyCollection_4"/>
   <g id="PolyCollection_5"/>
   <g id="PolyCollection_6"/>
   <g id="line2d_7">
    <path d="M 155.745103 100.782021 
L 156.121306 107.362064 
L 156.497509 107.569384 
L 157.626118 107.555448 
L 161.011945 107.252813 
L 161.388148 106.977595 
L 167.7836 104.892137 
L 174.555254 102.878261 
L 184.336533 100.201593 
L 194.117811 97.756027 
L 203.89909 95.542526 
L 213.304165 93.640024 
L 222.333038 92.03221 
L 231.36191 90.645788 
L 240.390783 89.482629 
L 246.410031 88.878644 
L 254.686498 88.493053 
L 266.348791 88.465154 
L 273.496649 88.674346 
L 291.178191 89.686153 
L 296.445033 90.182596 
L 306.226312 90.792066 
L 319.017215 91.392337 
L 341.213193 92.20538 
L 371.685638 93.089922 
L 407.424925 93.900433 
L 429.997106 94.313308 
L 429.997106 94.313308 
" clip-path="url(#p77deb12d11)" style="fill: none; stroke: #4c72b0; stroke-opacity: 0.9; stroke-width: 3; stroke-linecap: round"/>
   </g>
   <g id="line2d_8">
    <path d="M 155.745103 100.782021 
L 156.121306 104.370813 
L 156.873712 104.550586 
L 159.507133 104.467541 
L 161.011945 104.403503 
L 161.764351 104.165797 
L 168.159803 103.151965 
L 178.693487 101.679168 
L 192.989202 99.911902 
L 208.037323 98.279306 
L 223.085444 96.86507 
L 237.757362 95.711585 
L 245.657625 95.256176 
L 257.319919 94.870569 
L 278.387288 94.540951 
L 300.583266 94.811202 
L 309.235936 95.01361 
L 318.264808 95.176876 
L 325.036463 95.390223 
L 333.689132 95.757982 
L 368.676013 96.255678 
L 422.849249 96.766919 
L 429.997106 96.82036 
L 429.997106 96.82036 
" clip-path="url(#p77deb12d11)" style="fill: none; stroke: #dd8452; stroke-opacity: 0.9; stroke-width: 3; stroke-linecap: round"/>
   </g>
   <g id="line2d_9">
    <path d="M 155.745103 100.782021 
L 156.121306 107.677302 
L 156.497509 108.02623 
L 157.249915 108.082292 
L 161.011945 107.740997 
L 162.516757 107.20574 
L 167.7836 105.649251 
L 174.179051 104.043068 
L 183.207924 101.995437 
L 194.117811 99.744939 
L 205.027699 97.727586 
L 215.18518 96.066906 
L 224.966459 94.684615 
L 234.747738 93.526923 
L 243.024204 92.744808 
L 251.676874 92.1813 
L 257.696122 91.984939 
L 265.220182 91.961834 
L 278.387288 92.152688 
L 294.187815 92.667064 
L 320.522027 93.475371 
L 334.817741 93.918992 
L 361.904359 94.622522 
L 407.801128 95.551747 
L 429.997106 95.898132 
L 429.997106 95.898132 
" clip-path="url(#p77deb12d11)" style="fill: none; stroke: #55a868; stroke-opacity: 0.9; stroke-width: 3; stroke-linecap: round"/>
   </g>
   <g id="line2d_10">
    <path d="M 155.745103 100.782021 
L 156.121306 106.20114 
L 156.497509 106.481644 
L 157.249915 106.525004 
L 161.011945 106.252909 
L 162.89296 105.741895 
L 168.536006 104.442492 
L 176.436269 102.905745 
L 187.72236 100.959071 
L 199.384654 99.168636 
L 211.42315 97.54416 
L 221.956835 96.340367 
L 233.242926 95.275108 
L 244.152813 94.479504 
L 253.934092 94.000918 
L 260.705746 93.902009 
L 273.120446 94.055064 
L 289.673379 94.522814 
L 307.731124 94.966481 
L 386.357555 96.418173 
L 429.997106 97.021416 
L 429.997106 97.021416 
" clip-path="url(#p77deb12d11)" style="fill: none; stroke: #c44e52; stroke-opacity: 0.9; stroke-width: 3; stroke-linecap: round"/>
   </g>
   <g id="line2d_11">
    <path d="M 155.745103 100.782021 
L 156.121306 107.099254 
L 156.497509 107.350348 
L 157.626118 107.314123 
L 161.011945 107.024711 
L 164.021569 105.939047 
L 168.912209 104.380342 
L 178.693487 101.546589 
L 188.850969 98.864048 
L 199.384654 96.305468 
L 209.918338 93.967746 
L 219.699617 92.026756 
L 228.728489 90.458572 
L 237.381159 89.181702 
L 244.905219 88.282816 
L 252.053077 87.858501 
L 260.329543 87.562078 
L 263.71537 87.632 
L 268.60601 87.96426 
L 275.753867 88.71657 
L 282.525521 89.533007 
L 291.930597 91.02716 
L 300.959469 91.688218 
L 311.493154 92.299919 
L 328.42229 93.022325 
L 352.875486 93.82615 
L 385.228946 94.661188 
L 423.225452 95.414821 
L 429.997106 95.528412 
L 429.997106 95.528412 
" clip-path="url(#p77deb12d11)" style="fill: none; stroke: #8172b3; stroke-opacity: 0.9; stroke-width: 3; stroke-linecap: round"/>
   </g>
   <g id="line2d_12">
    <path d="M 155.745103 100.782021 
L 156.121306 105.851058 
L 156.497509 106.020178 
L 158.002321 105.967685 
L 161.388148 105.655653 
L 167.407397 104.192535 
L 179.445893 101.659306 
L 191.108187 99.450679 
L 203.89909 97.255067 
L 215.937587 95.40502 
L 227.223677 93.896851 
L 237.381159 92.75805 
L 244.905219 92.117114 
L 254.686498 91.701301 
L 261.834355 91.566182 
L 270.863228 91.77514 
L 277.634882 92.149825 
L 288.168567 93.111431 
L 293.059206 93.751202 
L 299.454657 94.109151 
L 314.878981 94.697862 
L 335.193944 95.239722 
L 367.547404 95.867137 
L 411.563158 96.493998 
L 429.997106 96.701449 
L 429.997106 96.701449 
" clip-path="url(#p77deb12d11)" style="fill: none; stroke: #937860; stroke-opacity: 0.9; stroke-width: 3; stroke-linecap: round"/>
   </g>
   <g id="patch_3">
    <path d="M 142.032503 201.042 
L 142.032503 81.456 
" style="fill: none; stroke: #ffffff; stroke-width: 1.25; stroke-linejoin: miter; stroke-linecap: square"/>
   </g>
   <g id="patch_4">
    <path d="M 142.032503 201.042 
L 443.709706 201.042 
" style="fill: none; stroke: #ffffff; stroke-width: 1.25; stroke-linejoin: miter; stroke-linecap: square"/>
   </g>
   <g id="text_4">
    <!-- 0.5~30 -->
    <g style="fill: #262626" transform="translate(246.241261 75.456) scale(0.252 -0.252)">
     <defs>
      <path id="DejaVuSans-2e" d="M 684 794 
L 1344 794 
L 1344 0 
L 684 0 
L 684 794 
z
" transform="scale(0.015625)"/>
      <path id="DejaVuSans-7e" d="M 4684 2553 
L 4684 1997 
Q 4356 1750 4076 1644 
Q 3797 1538 3494 1538 
Q 3150 1538 2694 1722 
Q 2659 1734 2644 1741 
Q 2622 1750 2575 1766 
Q 2091 1959 1797 1959 
Q 1522 1959 1253 1839 
Q 984 1719 678 1459 
L 678 2016 
Q 1006 2263 1286 2370 
Q 1566 2478 1869 2478 
Q 2213 2478 2672 2291 
Q 2703 2278 2719 2272 
Q 2744 2263 2788 2247 
Q 3272 2053 3566 2053 
Q 3834 2053 4098 2172 
Q 4363 2291 4684 2553 
z
" transform="scale(0.015625)"/>
      <path id="DejaVuSans-33" d="M 2597 2516 
Q 3050 2419 3304 2112 
Q 3559 1806 3559 1356 
Q 3559 666 3084 287 
Q 2609 -91 1734 -91 
Q 1441 -91 1130 -33 
Q 819 25 488 141 
L 488 750 
Q 750 597 1062 519 
Q 1375 441 1716 441 
Q 2309 441 2620 675 
Q 2931 909 2931 1356 
Q 2931 1769 2642 2001 
Q 2353 2234 1838 2234 
L 1294 2234 
L 1294 2753 
L 1863 2753 
Q 2328 2753 2575 2939 
Q 2822 3125 2822 3475 
Q 2822 3834 2567 4026 
Q 2313 4219 1838 4219 
Q 1578 4219 1281 4162 
Q 984 4106 628 3988 
L 628 4550 
Q 988 4650 1302 4700 
Q 1616 4750 1894 4750 
Q 2613 4750 3031 4423 
Q 3450 4097 3450 3541 
Q 3450 3153 3228 2886 
Q 3006 2619 2597 2516 
z
" transform="scale(0.015625)"/>
     </defs>
     <use xlink:href="#DejaVuSans-30"/>
     <use xlink:href="#DejaVuSans-2e" x="63.623047"/>
     <use xlink:href="#DejaVuSans-35" x="95.410156"/>
     <use xlink:href="#DejaVuSans-7e" x="159.033203"/>
     <use xlink:href="#DejaVuSans-33" x="242.822266"/>
     <use xlink:href="#DejaVuSans-30" x="306.445312"/>
    </g>
   </g>
  </g>
  <g id="axes_2">
   <g id="patch_5">
    <path d="M 470.482436 201.042 
L 772.15964 201.042 
L 772.15964 81.456 
L 470.482436 81.456 
z
" style="fill: #eaeaf2"/>
   </g>
   <g id="matplotlib.axis_3">
    <g id="xtick_5">
     <g id="line2d_13">
      <path d="M 484.195037 201.042 
L 484.195037 81.456 
" clip-path="url(#p56b6ac14b4)" style="fill: none; stroke: #ffffff; stroke-linecap: round"/>
     </g>
    </g>
    <g id="xtick_6">
     <g id="line2d_14">
      <path d="M 578.245792 201.042 
L 578.245792 81.456 
" clip-path="url(#p56b6ac14b4)" style="fill: none; stroke: #ffffff; stroke-linecap: round"/>
     </g>
    </g>
    <g id="xtick_7">
     <g id="line2d_15">
      <path d="M 672.296548 201.042 
L 672.296548 81.456 
" clip-path="url(#p56b6ac14b4)" style="fill: none; stroke: #ffffff; stroke-linecap: round"/>
     </g>
    </g>
    <g id="xtick_8">
     <g id="line2d_16">
      <path d="M 766.347303 201.042 
L 766.347303 81.456 
" clip-path="url(#p56b6ac14b4)" style="fill: none; stroke: #ffffff; stroke-linecap: round"/>
     </g>
    </g>
   </g>
   <g id="matplotlib.axis_4">
    <g id="ytick_3">
     <g id="line2d_17">
      <path d="M 470.482436 165.775231 
L 772.15964 165.775231 
" clip-path="url(#p56b6ac14b4)" style="fill: none; stroke: #ffffff; stroke-linecap: round"/>
     </g>
    </g>
    <g id="ytick_4">
     <g id="line2d_18">
      <path d="M 470.482436 100.782021 
L 772.15964 100.782021 
" clip-path="url(#p56b6ac14b4)" style="fill: none; stroke: #ffffff; stroke-linecap: round"/>
     </g>
    </g>
   </g>
   <g id="PolyCollection_7"/>
   <g id="PolyCollection_8"/>
   <g id="PolyCollection_9"/>
   <g id="PolyCollection_10"/>
   <g id="PolyCollection_11"/>
   <g id="PolyCollection_12"/>
   <g id="line2d_19">
    <path d="M 484.195037 100.782021 
L 484.57124 107.362064 
L 484.947443 107.595997 
L 486.076052 107.676339 
L 489.461879 107.652023 
L 489.838082 107.432385 
L 499.619361 106.749185 
L 524.824963 105.162262 
L 551.159175 103.726114 
L 575.612371 102.604753 
L 604.203801 101.521191 
L 635.052448 100.578521 
L 668.91072 99.771689 
L 706.531023 99.103817 
L 747.537152 98.597121 
L 758.44704 98.674991 
L 758.44704 98.674991 
" clip-path="url(#p56b6ac14b4)" style="fill: none; stroke: #4c72b0; stroke-opacity: 0.9; stroke-width: 3; stroke-linecap: round"/>
   </g>
   <g id="line2d_20">
    <path d="M 484.195037 100.782021 
L 484.57124 104.370813 
L 485.323646 104.57725 
L 487.957067 104.599476 
L 489.461879 104.593806 
L 489.838082 104.449148 
L 499.995564 104.061192 
L 531.220414 103.038051 
L 566.207295 102.103505 
L 601.194176 101.382266 
L 643.705118 100.723391 
L 692.987714 100.188333 
L 745.279934 99.838654 
L 758.44704 99.877578 
L 758.44704 99.877578 
" clip-path="url(#p56b6ac14b4)" style="fill: none; stroke: #dd8452; stroke-opacity: 0.9; stroke-width: 3; stroke-linecap: round"/>
   </g>
   <g id="line2d_21">
    <path d="M 484.195037 100.782021 
L 484.57124 107.677302 
L 484.947443 108.053831 
L 485.699849 108.175075 
L 489.461879 108.155716 
L 490.590488 108.000879 
L 514.291278 106.464836 
L 541.377896 104.909841 
L 560.940453 103.98097 
L 588.779477 103.001907 
L 671.544142 100.310158 
L 708.035835 99.624387 
L 741.894107 99.216525 
L 758.44704 99.110699 
L 758.44704 99.110699 
" clip-path="url(#p56b6ac14b4)" style="fill: none; stroke: #55a868; stroke-opacity: 0.9; stroke-width: 3; stroke-linecap: round"/>
   </g>
   <g id="line2d_22">
    <path d="M 484.195037 100.782021 
L 484.57124 106.20114 
L 484.947443 106.503493 
L 485.699849 106.598691 
L 489.461879 106.58357 
L 490.966691 106.449694 
L 521.815339 104.884697 
L 543.258911 103.981362 
L 581.631619 102.721677 
L 622.261546 101.50242 
L 658.377036 100.634105 
L 693.363917 100.036934 
L 729.479407 99.631332 
L 758.44704 99.445269 
L 758.44704 99.445269 
" clip-path="url(#p56b6ac14b4)" style="fill: none; stroke: #c44e52; stroke-opacity: 0.9; stroke-width: 3; stroke-linecap: round"/>
   </g>
   <g id="line2d_23">
    <path d="M 484.195037 100.782021 
L 484.57124 107.099254 
L 484.947443 107.378726 
L 486.076052 107.43359 
L 490.590488 107.297357 
L 513.162669 105.757102 
L 539.120678 104.222076 
L 562.069062 103.073233 
L 590.660492 101.870719 
L 620.380531 100.843973 
L 653.110193 99.945778 
L 689.225684 99.18516 
L 729.103204 98.572194 
L 753.180197 98.375684 
L 758.44704 98.407445 
L 758.44704 98.407445 
" clip-path="url(#p56b6ac14b4)" style="fill: none; stroke: #8172b3; stroke-opacity: 0.9; stroke-width: 3; stroke-linecap: round"/>
   </g>
   <g id="line2d_24">
    <path d="M 484.195037 100.782021 
L 484.57124 105.851058 
L 484.947443 106.04193 
L 486.452255 106.082099 
L 490.966691 105.949985 
L 517.677106 104.574106 
L 545.139926 103.37047 
L 573.355153 102.350111 
L 606.461019 101.376936 
L 641.4479 100.572174 
L 681.32542 99.881782 
L 726.469783 99.327752 
L 752.051588 99.181516 
L 758.44704 99.204301 
L 758.44704 99.204301 
" clip-path="url(#p56b6ac14b4)" style="fill: none; stroke: #937860; stroke-opacity: 0.9; stroke-width: 3; stroke-linecap: round"/>
   </g>
   <g id="patch_6">
    <path d="M 470.482436 201.042 
L 470.482436 81.456 
" style="fill: none; stroke: #ffffff; stroke-width: 1.25; stroke-linejoin: miter; stroke-linecap: square"/>
   </g>
   <g id="patch_7">
    <path d="M 470.482436 201.042 
L 772.15964 201.042 
" style="fill: none; stroke: #ffffff; stroke-width: 1.25; stroke-linejoin: miter; stroke-linecap: square"/>
   </g>
   <g id="text_5">
    <!-- 0.5~365 -->
    <g style="fill: #262626" transform="translate(566.674444 75.456) scale(0.252 -0.252)">
     <defs>
      <path id="DejaVuSans-36" d="M 2113 2584 
Q 1688 2584 1439 2293 
Q 1191 2003 1191 1497 
Q 1191 994 1439 701 
Q 1688 409 2113 409 
Q 2538 409 2786 701 
Q 3034 994 3034 1497 
Q 3034 2003 2786 2293 
Q 2538 2584 2113 2584 
z
M 3366 4563 
L 3366 3988 
Q 3128 4100 2886 4159 
Q 2644 4219 2406 4219 
Q 1781 4219 1451 3797 
Q 1122 3375 1075 2522 
Q 1259 2794 1537 2939 
Q 1816 3084 2150 3084 
Q 2853 3084 3261 2657 
Q 3669 2231 3669 1497 
Q 3669 778 3244 343 
Q 2819 -91 2113 -91 
Q 1303 -91 875 529 
Q 447 1150 447 2328 
Q 447 3434 972 4092 
Q 1497 4750 2381 4750 
Q 2619 4750 2861 4703 
Q 3103 4656 3366 4563 
z
" transform="scale(0.015625)"/>
     </defs>
     <use xlink:href="#DejaVuSans-30"/>
     <use xlink:href="#DejaVuSans-2e" x="63.623047"/>
     <use xlink:href="#DejaVuSans-35" x="95.410156"/>
     <use xlink:href="#DejaVuSans-7e" x="159.033203"/>
     <use xlink:href="#DejaVuSans-33" x="242.822266"/>
     <use xlink:href="#DejaVuSans-36" x="306.445312"/>
     <use xlink:href="#DejaVuSans-35" x="370.068359"/>
    </g>
   </g>
  </g>
  <g id="axes_3">
   <g id="patch_8">
    <path d="M 798.93237 201.042 
L 1100.609573 201.042 
L 1100.609573 81.456 
L 798.93237 81.456 
z
" style="fill: #eaeaf2"/>
   </g>
   <g id="matplotlib.axis_5">
    <g id="xtick_9">
     <g id="line2d_25">
      <path d="M 812.64497 201.042 
L 812.64497 81.456 
" clip-path="url(#p4e9135294d)" style="fill: none; stroke: #ffffff; stroke-linecap: round"/>
     </g>
    </g>
    <g id="xtick_10">
     <g id="line2d_26">
      <path d="M 906.695726 201.042 
L 906.695726 81.456 
" clip-path="url(#p4e9135294d)" style="fill: none; stroke: #ffffff; stroke-linecap: round"/>
     </g>
    </g>
    <g id="xtick_11">
     <g id="line2d_27">
      <path d="M 1000.746481 201.042 
L 1000.746481 81.456 
" clip-path="url(#p4e9135294d)" style="fill: none; stroke: #ffffff; stroke-linecap: round"/>
     </g>
    </g>
    <g id="xtick_12">
     <g id="line2d_28">
      <path d="M 1094.797237 201.042 
L 1094.797237 81.456 
" clip-path="url(#p4e9135294d)" style="fill: none; stroke: #ffffff; stroke-linecap: round"/>
     </g>
    </g>
   </g>
   <g id="matplotlib.axis_6">
    <g id="ytick_5">
     <g id="line2d_29">
      <path d="M 798.93237 165.775231 
L 1100.609573 165.775231 
" clip-path="url(#p4e9135294d)" style="fill: none; stroke: #ffffff; stroke-linecap: round"/>
     </g>
    </g>
    <g id="ytick_6">
     <g id="line2d_30">
      <path d="M 798.93237 100.782021 
L 1100.609573 100.782021 
" clip-path="url(#p4e9135294d)" style="fill: none; stroke: #ffffff; stroke-linecap: round"/>
     </g>
    </g>
   </g>
   <g id="PolyCollection_13"/>
   <g id="PolyCollection_14"/>
   <g id="PolyCollection_15"/>
   <g id="PolyCollection_16"/>
   <g id="PolyCollection_17"/>
   <g id="PolyCollection_18"/>
   <g id="line2d_31">
    <path d="M 812.64497 100.782021 
L 813.021173 107.362064 
L 813.397376 107.569384 
L 814.525985 107.555448 
L 817.911813 107.252813 
L 818.288016 106.977595 
L 824.683467 104.892137 
L 831.455121 102.878261 
L 841.2364 100.201593 
L 851.017679 97.756027 
L 860.798957 95.542526 
L 870.204033 93.640024 
L 879.232905 92.03221 
L 888.261778 90.645788 
L 897.29065 89.482629 
L 903.309899 88.878644 
L 911.586365 88.493053 
L 923.248659 88.465154 
L 930.396516 88.674346 
L 948.078058 89.686153 
L 953.344901 90.182596 
L 963.126179 90.792066 
L 975.917082 91.392337 
L 998.11306 92.20538 
L 1028.585505 93.089922 
L 1064.324792 93.900433 
L 1086.896973 94.313308 
L 1086.896973 94.313308 
" clip-path="url(#p4e9135294d)" style="fill: none; stroke: #4c72b0; stroke-opacity: 0.9; stroke-width: 3; stroke-linecap: round"/>
   </g>
   <g id="line2d_32">
    <path d="M 812.64497 100.782021 
L 813.021173 104.370813 
L 813.773579 104.550586 
L 816.407001 104.467541 
L 817.911813 104.403503 
L 818.664219 104.165797 
L 825.05967 103.151965 
L 835.593355 101.679168 
L 849.889069 99.911902 
L 864.93719 98.279306 
L 879.985311 96.86507 
L 894.657229 95.711585 
L 902.557493 95.256176 
L 914.219786 94.870569 
L 935.287155 94.540951 
L 957.483134 94.811202 
L 966.135803 95.01361 
L 975.164676 95.176876 
L 981.93633 95.390223 
L 990.589 95.757982 
L 1025.575881 96.255678 
L 1079.749116 96.766919 
L 1086.896973 96.82036 
L 1086.896973 96.82036 
" clip-path="url(#p4e9135294d)" style="fill: none; stroke: #dd8452; stroke-opacity: 0.9; stroke-width: 3; stroke-linecap: round"/>
   </g>
   <g id="line2d_33">
    <path d="M 812.64497 100.782021 
L 813.021173 107.677302 
L 813.397376 108.02623 
L 814.149782 108.082292 
L 817.911813 107.740997 
L 819.416625 107.20574 
L 824.683467 105.649251 
L 831.078918 104.043068 
L 839.355385 102.177749 
L 844.99843 101.084339 
L 851.393882 100.101963 
L 868.699221 97.761592 
L 879.232905 96.534553 
L 891.271402 95.376419 
L 900.300274 94.699 
L 909.329147 94.268103 
L 916.477004 94.174495 
L 928.515501 94.33426 
L 940.177795 94.673244 
L 962.373773 95.432529 
L 978.1743 95.821854 
L 990.589 96.175133 
L 1011.656369 96.624603 
L 1040.247799 97.038844 
L 1073.729868 97.292935 
L 1086.896973 97.331271 
L 1086.896973 97.331271 
" clip-path="url(#p4e9135294d)" style="fill: none; stroke: #55a868; stroke-opacity: 0.9; stroke-width: 3; stroke-linecap: round"/>
   </g>
   <g id="line2d_34">
    <path d="M 812.64497 100.782021 
L 813.021173 106.20114 
L 813.397376 106.481644 
L 814.149782 106.525004 
L 817.911813 106.252909 
L 819.792828 105.741895 
L 825.435873 104.442492 
L 833.336137 102.905745 
L 840.483994 101.717475 
L 847.631851 100.744251 
L 858.541739 99.591181 
L 873.58986 98.190582 
L 888.637981 96.997564 
L 901.05268 96.247054 
L 911.586365 95.844365 
L 917.981816 95.822277 
L 934.158546 96.08371 
L 971.402646 96.845359 
L 1032.347535 97.285442 
L 1065.077198 97.2128 
L 1086.896973 97.113531 
L 1086.896973 97.113531 
" clip-path="url(#p4e9135294d)" style="fill: none; stroke: #c44e52; stroke-opacity: 0.9; stroke-width: 3; stroke-linecap: round"/>
   </g>
   <g id="line2d_35">
    <path d="M 812.64497 100.782021 
L 813.021173 107.099254 
L 813.397376 107.350348 
L 814.525985 107.314123 
L 817.911813 107.024711 
L 820.921437 105.939047 
L 825.812076 104.380342 
L 835.593355 101.546589 
L 845.750836 98.864048 
L 856.284521 96.305468 
L 866.818205 93.967746 
L 876.599484 92.026756 
L 885.628357 90.458572 
L 894.281026 89.181702 
L 901.805086 88.282816 
L 908.952944 87.858501 
L 917.22941 87.562078 
L 920.615238 87.632 
L 925.505877 87.96426 
L 932.653734 88.71657 
L 939.425389 89.533007 
L 948.830464 91.02716 
L 957.859337 91.688218 
L 968.393021 92.299919 
L 985.322157 93.022325 
L 1009.775354 93.82615 
L 1042.128814 94.661188 
L 1080.125319 95.414821 
L 1086.896973 95.528412 
L 1086.896973 95.528412 
" clip-path="url(#p4e9135294d)" style="fill: none; stroke: #8172b3; stroke-opacity: 0.9; stroke-width: 3; stroke-linecap: round"/>
   </g>
   <g id="line2d_36">
    <path d="M 812.64497 100.782021 
L 813.021173 105.851058 
L 813.397376 106.020178 
L 814.902188 105.967685 
L 818.288016 105.655653 
L 824.307264 104.192535 
L 836.345761 101.659306 
L 848.008054 99.450679 
L 860.798957 97.255067 
L 872.837454 95.40502 
L 884.123544 93.896851 
L 894.281026 92.75805 
L 901.805086 92.117114 
L 911.586365 91.701301 
L 918.734222 91.566182 
L 927.763095 91.77514 
L 934.534749 92.149825 
L 945.068434 93.111431 
L 949.959073 93.751202 
L 956.354525 94.109151 
L 971.778849 94.697862 
L 992.093812 95.239722 
L 1024.447272 95.867137 
L 1068.463025 96.493998 
L 1086.896973 96.701449 
L 1086.896973 96.701449 
" clip-path="url(#p4e9135294d)" style="fill: none; stroke: #937860; stroke-opacity: 0.9; stroke-width: 3; stroke-linecap: round"/>
   </g>
   <g id="patch_9">
    <path d="M 798.93237 201.042 
L 798.93237 81.456 
" style="fill: none; stroke: #ffffff; stroke-width: 1.25; stroke-linejoin: miter; stroke-linecap: square"/>
   </g>
   <g id="patch_10">
    <path d="M 798.93237 201.042 
L 1100.609573 201.042 
" style="fill: none; stroke: #ffffff; stroke-width: 1.25; stroke-linejoin: miter; stroke-linecap: square"/>
   </g>
   <g id="text_6">
    <!-- 0.8~30 -->
    <g style="fill: #262626" transform="translate(903.141128 75.456) scale(0.252 -0.252)">
     <defs>
      <path id="DejaVuSans-38" d="M 2034 2216 
Q 1584 2216 1326 1975 
Q 1069 1734 1069 1313 
Q 1069 891 1326 650 
Q 1584 409 2034 409 
Q 2484 409 2743 651 
Q 3003 894 3003 1313 
Q 3003 1734 2745 1975 
Q 2488 2216 2034 2216 
z
M 1403 2484 
Q 997 2584 770 2862 
Q 544 3141 544 3541 
Q 544 4100 942 4425 
Q 1341 4750 2034 4750 
Q 2731 4750 3128 4425 
Q 3525 4100 3525 3541 
Q 3525 3141 3298 2862 
Q 3072 2584 2669 2484 
Q 3125 2378 3379 2068 
Q 3634 1759 3634 1313 
Q 3634 634 3220 271 
Q 2806 -91 2034 -91 
Q 1263 -91 848 271 
Q 434 634 434 1313 
Q 434 1759 690 2068 
Q 947 2378 1403 2484 
z
M 1172 3481 
Q 1172 3119 1398 2916 
Q 1625 2713 2034 2713 
Q 2441 2713 2670 2916 
Q 2900 3119 2900 3481 
Q 2900 3844 2670 4047 
Q 2441 4250 2034 4250 
Q 1625 4250 1398 4047 
Q 1172 3844 1172 3481 
z
" transform="scale(0.015625)"/>
     </defs>
     <use xlink:href="#DejaVuSans-30"/>
     <use xlink:href="#DejaVuSans-2e" x="63.623047"/>
     <use xlink:href="#DejaVuSans-38" x="95.410156"/>
     <use xlink:href="#DejaVuSans-7e" x="159.033203"/>
     <use xlink:href="#DejaVuSans-33" x="242.822266"/>
     <use xlink:href="#DejaVuSans-30" x="306.445312"/>
    </g>
   </g>
  </g>
  <g id="axes_4">
   <g id="patch_11">
    <path d="M 142.032503 373.284 
L 443.709706 373.284 
L 443.709706 253.698 
L 142.032503 253.698 
z
" style="fill: #eaeaf2"/>
   </g>
   <g id="matplotlib.axis_7">
    <g id="xtick_13">
     <g id="line2d_37">
      <path d="M 155.745103 373.284 
L 155.745103 253.698 
" clip-path="url(#p6349f02f47)" style="fill: none; stroke: #ffffff; stroke-linecap: round"/>
     </g>
     <g id="text_7">
      <!-- 0 -->
      <g style="fill: #262626" transform="translate(148.396415 400.336391) scale(0.231 -0.231)">
       <use xlink:href="#DejaVuSans-30"/>
      </g>
     </g>
    </g>
    <g id="xtick_14">
     <g id="line2d_38">
      <path d="M 249.795858 373.284 
L 249.795858 253.698 
" clip-path="url(#p6349f02f47)" style="fill: none; stroke: #ffffff; stroke-linecap: round"/>
     </g>
     <g id="text_8">
      <!-- 250 -->
      <g style="fill: #262626" transform="translate(227.749796 400.336391) scale(0.231 -0.231)">
       <defs>
        <path id="DejaVuSans-32" d="M 1228 531 
L 3431 531 
L 3431 0 
L 469 0 
L 469 531 
Q 828 903 1448 1529 
Q 2069 2156 2228 2338 
Q 2531 2678 2651 2914 
Q 2772 3150 2772 3378 
Q 2772 3750 2511 3984 
Q 2250 4219 1831 4219 
Q 1534 4219 1204 4116 
Q 875 4013 500 3803 
L 500 4441 
Q 881 4594 1212 4672 
Q 1544 4750 1819 4750 
Q 2544 4750 2975 4387 
Q 3406 4025 3406 3419 
Q 3406 3131 3298 2873 
Q 3191 2616 2906 2266 
Q 2828 2175 2409 1742 
Q 1991 1309 1228 531 
z
" transform="scale(0.015625)"/>
       </defs>
       <use xlink:href="#DejaVuSans-32"/>
       <use xlink:href="#DejaVuSans-35" x="63.623047"/>
       <use xlink:href="#DejaVuSans-30" x="127.246094"/>
      </g>
     </g>
    </g>
    <g id="xtick_15">
     <g id="line2d_39">
      <path d="M 343.846614 373.284 
L 343.846614 253.698 
" clip-path="url(#p6349f02f47)" style="fill: none; stroke: #ffffff; stroke-linecap: round"/>
     </g>
     <g id="text_9">
      <!-- 500 -->
      <g style="fill: #262626" transform="translate(321.800551 400.336391) scale(0.231 -0.231)">
       <use xlink:href="#DejaVuSans-35"/>
       <use xlink:href="#DejaVuSans-30" x="63.623047"/>
       <use xlink:href="#DejaVuSans-30" x="127.246094"/>
      </g>
     </g>
    </g>
    <g id="xtick_16">
     <g id="line2d_40">
      <path d="M 437.897369 373.284 
L 437.897369 253.698 
" clip-path="url(#p6349f02f47)" style="fill: none; stroke: #ffffff; stroke-linecap: round"/>
     </g>
     <g id="text_10">
      <!-- 750 -->
      <g style="fill: #262626" transform="translate(415.851307 400.336391) scale(0.231 -0.231)">
       <defs>
        <path id="DejaVuSans-37" d="M 525 4666 
L 3525 4666 
L 3525 4397 
L 1831 0 
L 1172 0 
L 2766 4134 
L 525 4134 
L 525 4666 
z
" transform="scale(0.015625)"/>
       </defs>
       <use xlink:href="#DejaVuSans-37"/>
       <use xlink:href="#DejaVuSans-35" x="63.623047"/>
       <use xlink:href="#DejaVuSans-30" x="127.246094"/>
      </g>
     </g>
    </g>
    <g id="text_11">
     <!-- step -->
     <g style="fill: #262626" transform="translate(265.615729 428.288531) scale(0.252 -0.252)">
      <defs>
       <path id="DejaVuSans-73" d="M 2834 3397 
L 2834 2853 
Q 2591 2978 2328 3040 
Q 2066 3103 1784 3103 
Q 1356 3103 1142 2972 
Q 928 2841 928 2578 
Q 928 2378 1081 2264 
Q 1234 2150 1697 2047 
L 1894 2003 
Q 2506 1872 2764 1633 
Q 3022 1394 3022 966 
Q 3022 478 2636 193 
Q 2250 -91 1575 -91 
Q 1294 -91 989 -36 
Q 684 19 347 128 
L 347 722 
Q 666 556 975 473 
Q 1284 391 1588 391 
Q 1994 391 2212 530 
Q 2431 669 2431 922 
Q 2431 1156 2273 1281 
Q 2116 1406 1581 1522 
L 1381 1569 
Q 847 1681 609 1914 
Q 372 2147 372 2553 
Q 372 3047 722 3315 
Q 1072 3584 1716 3584 
Q 2034 3584 2315 3537 
Q 2597 3491 2834 3397 
z
" transform="scale(0.015625)"/>
       <path id="DejaVuSans-74" d="M 1172 4494 
L 1172 3500 
L 2356 3500 
L 2356 3053 
L 1172 3053 
L 1172 1153 
Q 1172 725 1289 603 
Q 1406 481 1766 481 
L 2356 481 
L 2356 0 
L 1766 0 
Q 1100 0 847 248 
Q 594 497 594 1153 
L 594 3053 
L 172 3053 
L 172 3500 
L 594 3500 
L 594 4494 
L 1172 4494 
z
" transform="scale(0.015625)"/>
       <path id="DejaVuSans-70" d="M 1159 525 
L 1159 -1331 
L 581 -1331 
L 581 3500 
L 1159 3500 
L 1159 2969 
Q 1341 3281 1617 3432 
Q 1894 3584 2278 3584 
Q 2916 3584 3314 3078 
Q 3713 2572 3713 1747 
Q 3713 922 3314 415 
Q 2916 -91 2278 -91 
Q 1894 -91 1617 61 
Q 1341 213 1159 525 
z
M 3116 1747 
Q 3116 2381 2855 2742 
Q 2594 3103 2138 3103 
Q 1681 3103 1420 2742 
Q 1159 2381 1159 1747 
Q 1159 1113 1420 752 
Q 1681 391 2138 391 
Q 2594 391 2855 752 
Q 3116 1113 3116 1747 
z
" transform="scale(0.015625)"/>
      </defs>
      <use xlink:href="#DejaVuSans-73"/>
      <use xlink:href="#DejaVuSans-74" x="52.099609"/>
      <use xlink:href="#DejaVuSans-65" x="91.308594"/>
      <use xlink:href="#DejaVuSans-70" x="152.832031"/>
     </g>
    </g>
   </g>
   <g id="matplotlib.axis_8">
    <g id="ytick_7">
     <g id="line2d_41">
      <path d="M 142.032503 338.017231 
L 443.709706 338.017231 
" clip-path="url(#p6349f02f47)" style="fill: none; stroke: #ffffff; stroke-linecap: round"/>
     </g>
     <g id="text_12">
      <!-- −5 -->
      <g style="fill: #262626" transform="translate(98.47805 346.793427) scale(0.231 -0.231)">
       <use xlink:href="#DejaVuSans-2212"/>
       <use xlink:href="#DejaVuSans-35" x="83.789062"/>
      </g>
     </g>
    </g>
    <g id="ytick_8">
     <g id="line2d_42">
      <path d="M 142.032503 273.024021 
L 443.709706 273.024021 
" clip-path="url(#p6349f02f47)" style="fill: none; stroke: #ffffff; stroke-linecap: round"/>
     </g>
     <g id="text_13">
      <!-- 0 -->
      <g style="fill: #262626" transform="translate(117.835128 281.800217) scale(0.231 -0.231)">
       <use xlink:href="#DejaVuSans-30"/>
      </g>
     </g>
    </g>
    <g id="text_14">
     <!-- % change -->
     <g style="fill: #262626" transform="translate(89.237237 375.839344) rotate(-90) scale(0.252 -0.252)">
      <use xlink:href="#DejaVuSans-25"/>
      <use xlink:href="#DejaVuSans-20" x="95.019531"/>
      <use xlink:href="#DejaVuSans-63" x="126.806641"/>
      <use xlink:href="#DejaVuSans-68" x="181.787109"/>
      <use xlink:href="#DejaVuSans-61" x="245.166016"/>
      <use xlink:href="#DejaVuSans-6e" x="306.445312"/>
      <use xlink:href="#DejaVuSans-67" x="369.824219"/>
      <use xlink:href="#DejaVuSans-65" x="433.300781"/>
     </g>
    </g>
   </g>
   <g id="PolyCollection_19"/>
   <g id="PolyCollection_20"/>
   <g id="PolyCollection_21"/>
   <g id="PolyCollection_22"/>
   <g id="PolyCollection_23"/>
   <g id="PolyCollection_24"/>
   <g id="line2d_43">
    <path d="M 155.745103 273.024021 
L 156.121306 279.604064 
L 156.497509 279.837997 
L 157.626118 279.918339 
L 161.011945 279.894023 
L 161.388148 279.674385 
L 171.169427 278.991185 
L 196.375029 277.404262 
L 222.709241 275.968114 
L 247.162437 274.846753 
L 275.753867 273.763191 
L 306.602515 272.820521 
L 340.460787 272.013689 
L 378.081089 271.345817 
L 419.087218 270.839121 
L 429.997106 270.916991 
L 429.997106 270.916991 
" clip-path="url(#p6349f02f47)" style="fill: none; stroke: #4c72b0; stroke-opacity: 0.9; stroke-width: 3; stroke-linecap: round"/>
   </g>
   <g id="line2d_44">
    <path d="M 155.745103 273.024021 
L 156.121306 276.612813 
L 156.873712 276.81925 
L 159.507133 276.841476 
L 161.011945 276.835806 
L 161.388148 276.691148 
L 171.54563 276.303192 
L 202.770481 275.280051 
L 237.757362 274.345505 
L 272.744243 273.624266 
L 315.255184 272.965391 
L 364.53778 272.430333 
L 416.83 272.080654 
L 429.997106 272.119578 
L 429.997106 272.119578 
" clip-path="url(#p6349f02f47)" style="fill: none; stroke: #dd8452; stroke-opacity: 0.9; stroke-width: 3; stroke-linecap: round"/>
   </g>
   <g id="line2d_45">
    <path d="M 155.745103 273.024021 
L 156.121306 279.919302 
L 156.497509 280.295831 
L 157.249915 280.417075 
L 161.011945 280.397716 
L 162.140554 280.242879 
L 183.207924 278.888651 
L 192.989202 278.505056 
L 199.760857 278.39147 
L 221.956835 278.106634 
L 254.686498 277.365186 
L 361.528156 274.407482 
L 402.910488 273.569865 
L 429.997106 273.175016 
L 429.997106 273.175016 
" clip-path="url(#p6349f02f47)" style="fill: none; stroke: #55a868; stroke-opacity: 0.9; stroke-width: 3; stroke-linecap: round"/>
   </g>
   <g id="line2d_46">
    <path d="M 155.745103 273.024021 
L 156.121306 278.44314 
L 156.497509 278.745493 
L 157.249915 278.840691 
L 161.011945 278.82557 
L 162.516757 278.691694 
L 183.207924 277.677461 
L 196.375029 277.417224 
L 215.937587 277.386552 
L 237.004956 277.331251 
L 250.924468 277.057236 
L 354.004096 274.332854 
L 405.54391 273.240542 
L 429.997106 272.787732 
L 429.997106 272.787732 
" clip-path="url(#p6349f02f47)" style="fill: none; stroke: #c44e52; stroke-opacity: 0.9; stroke-width: 3; stroke-linecap: round"/>
   </g>
   <g id="line2d_47">
    <path d="M 155.745103 273.024021 
L 156.121306 279.341254 
L 156.497509 279.620726 
L 157.626118 279.67559 
L 162.140554 279.539357 
L 184.712736 277.999102 
L 210.670744 276.464076 
L 233.619129 275.315233 
L 262.210558 274.112719 
L 291.930597 273.085973 
L 324.66026 272.187778 
L 360.77575 271.42716 
L 400.65327 270.814194 
L 424.730264 270.617684 
L 429.997106 270.649445 
L 429.997106 270.649445 
" clip-path="url(#p6349f02f47)" style="fill: none; stroke: #8172b3; stroke-opacity: 0.9; stroke-width: 3; stroke-linecap: round"/>
   </g>
   <g id="line2d_48">
    <path d="M 155.745103 273.024021 
L 156.121306 278.093058 
L 156.497509 278.28393 
L 158.002321 278.324099 
L 162.516757 278.191985 
L 189.227172 276.816106 
L 216.689993 275.61247 
L 244.905219 274.592111 
L 278.011085 273.618936 
L 312.997966 272.814174 
L 352.875486 272.123782 
L 398.019849 271.569752 
L 423.601655 271.423516 
L 429.997106 271.446301 
L 429.997106 271.446301 
" clip-path="url(#p6349f02f47)" style="fill: none; stroke: #937860; stroke-opacity: 0.9; stroke-width: 3; stroke-linecap: round"/>
   </g>
   <g id="patch_12">
    <path d="M 142.032503 373.284 
L 142.032503 253.698 
" style="fill: none; stroke: #ffffff; stroke-width: 1.25; stroke-linejoin: miter; stroke-linecap: square"/>
   </g>
   <g id="patch_13">
    <path d="M 142.032503 373.284 
L 443.709706 373.284 
" style="fill: none; stroke: #ffffff; stroke-width: 1.25; stroke-linejoin: miter; stroke-linecap: square"/>
   </g>
   <g id="text_15">
    <!-- 0.8~365 -->
    <g style="fill: #262626" transform="translate(238.224511 247.698) scale(0.252 -0.252)">
     <use xlink:href="#DejaVuSans-30"/>
     <use xlink:href="#DejaVuSans-2e" x="63.623047"/>
     <use xlink:href="#DejaVuSans-38" x="95.410156"/>
     <use xlink:href="#DejaVuSans-7e" x="159.033203"/>
     <use xlink:href="#DejaVuSans-33" x="242.822266"/>
     <use xlink:href="#DejaVuSans-36" x="306.445312"/>
     <use xlink:href="#DejaVuSans-35" x="370.068359"/>
    </g>
   </g>
  </g>
  <g id="axes_5">
   <g id="patch_14">
    <path d="M 470.482436 373.284 
L 772.15964 373.284 
L 772.15964 253.698 
L 470.482436 253.698 
z
" style="fill: #eaeaf2"/>
   </g>
   <g id="matplotlib.axis_9">
    <g id="xtick_17">
     <g id="line2d_49">
      <path d="M 484.195037 373.284 
L 484.195037 253.698 
" clip-path="url(#pf948426d83)" style="fill: none; stroke: #ffffff; stroke-linecap: round"/>
     </g>
     <g id="text_16">
      <!-- 0 -->
      <g style="fill: #262626" transform="translate(476.846349 400.336391) scale(0.231 -0.231)">
       <use xlink:href="#DejaVuSans-30"/>
      </g>
     </g>
    </g>
    <g id="xtick_18">
     <g id="line2d_50">
      <path d="M 578.245792 373.284 
L 578.245792 253.698 
" clip-path="url(#pf948426d83)" style="fill: none; stroke: #ffffff; stroke-linecap: round"/>
     </g>
     <g id="text_17">
      <!-- 250 -->
      <g style="fill: #262626" transform="translate(556.19973 400.336391) scale(0.231 -0.231)">
       <use xlink:href="#DejaVuSans-32"/>
       <use xlink:href="#DejaVuSans-35" x="63.623047"/>
       <use xlink:href="#DejaVuSans-30" x="127.246094"/>
      </g>
     </g>
    </g>
    <g id="xtick_19">
     <g id="line2d_51">
      <path d="M 672.296548 373.284 
L 672.296548 253.698 
" clip-path="url(#pf948426d83)" style="fill: none; stroke: #ffffff; stroke-linecap: round"/>
     </g>
     <g id="text_18">
      <!-- 500 -->
      <g style="fill: #262626" transform="translate(650.250485 400.336391) scale(0.231 -0.231)">
       <use xlink:href="#DejaVuSans-35"/>
       <use xlink:href="#DejaVuSans-30" x="63.623047"/>
       <use xlink:href="#DejaVuSans-30" x="127.246094"/>
      </g>
     </g>
    </g>
    <g id="xtick_20">
     <g id="line2d_52">
      <path d="M 766.347303 373.284 
L 766.347303 253.698 
" clip-path="url(#pf948426d83)" style="fill: none; stroke: #ffffff; stroke-linecap: round"/>
     </g>
     <g id="text_19">
      <!-- 750 -->
      <g style="fill: #262626" transform="translate(744.301241 400.336391) scale(0.231 -0.231)">
       <use xlink:href="#DejaVuSans-37"/>
       <use xlink:href="#DejaVuSans-35" x="63.623047"/>
       <use xlink:href="#DejaVuSans-30" x="127.246094"/>
      </g>
     </g>
    </g>
    <g id="text_20">
     <!-- step -->
     <g style="fill: #262626" transform="translate(594.065663 428.288531) scale(0.252 -0.252)">
      <use xlink:href="#DejaVuSans-73"/>
      <use xlink:href="#DejaVuSans-74" x="52.099609"/>
      <use xlink:href="#DejaVuSans-65" x="91.308594"/>
      <use xlink:href="#DejaVuSans-70" x="152.832031"/>
     </g>
    </g>
   </g>
   <g id="matplotlib.axis_10">
    <g id="ytick_9">
     <g id="line2d_53">
      <path d="M 470.482436 338.017231 
L 772.15964 338.017231 
" clip-path="url(#pf948426d83)" style="fill: none; stroke: #ffffff; stroke-linecap: round"/>
     </g>
    </g>
    <g id="ytick_10">
     <g id="line2d_54">
      <path d="M 470.482436 273.024021 
L 772.15964 273.024021 
" clip-path="url(#pf948426d83)" style="fill: none; stroke: #ffffff; stroke-linecap: round"/>
     </g>
    </g>
   </g>
   <g id="PolyCollection_25"/>
   <g id="PolyCollection_26"/>
   <g id="PolyCollection_27"/>
   <g id="PolyCollection_28"/>
   <g id="line2d_55">
    <path d="M 484.195037 273.024021 
L 484.57124 279.919302 
L 484.947443 280.26823 
L 485.699849 280.324292 
L 489.461879 279.996136 
L 490.214285 279.807204 
L 490.590488 280.011793 
L 491.342894 280.923142 
L 492.0953 282.212097 
L 493.600112 285.398558 
L 495.85733 290.728681 
L 503.757594 309.871954 
L 507.519624 318.338745 
L 510.905451 325.429444 
L 513.915075 331.249341 
L 516.9247 336.600937 
L 519.934324 341.469302 
L 522.567745 345.332959 
L 525.201166 348.821855 
L 527.834587 351.929247 
L 530.468008 354.669179 
L 533.101429 357.062364 
L 535.734851 359.111636 
L 537.992069 360.612882 
L 540.249287 361.8773 
L 542.506505 362.892161 
L 544.763723 363.665545 
L 547.397144 364.296557 
L 549.654362 364.603452 
L 551.911581 364.698899 
L 554.168799 364.584422 
L 556.80222 364.201164 
L 559.435641 363.557422 
L 562.069062 362.669022 
L 565.078686 361.383166 
L 568.464514 359.663127 
L 571.850341 357.673838 
L 575.612371 355.198684 
L 579.750604 352.215782 
L 585.39365 347.868511 
L 591.789101 342.742018 
L 603.827598 333.058861 
L 619.251922 320.816401 
L 640.319291 303.739539 
L 647.090945 298.602062 
L 654.238803 293.456121 
L 659.505645 289.923712 
L 664.772487 286.647467 
L 670.039329 283.617581 
L 675.306172 280.828273 
L 680.196811 278.475793 
L 685.839856 276.012701 
L 691.859105 273.638165 
L 697.878353 271.514422 
L 704.273804 269.491291 
L 710.669256 267.69191 
L 717.817113 265.921799 
L 725.717377 264.210457 
L 733.993843 262.649398 
L 743.022716 261.179108 
L 752.427791 259.868694 
L 758.44704 259.133727 
L 758.44704 259.133727 
" clip-path="url(#pf948426d83)" style="fill: none; stroke: #55a868; stroke-opacity: 0.9; stroke-width: 3; stroke-linecap: round"/>
   </g>
   <g id="line2d_56">
    <path d="M 484.195037 273.024021 
L 484.57124 278.44314 
L 484.947443 278.723644 
L 485.699849 278.767004 
L 489.461879 278.507131 
L 490.214285 278.367558 
L 490.590488 278.564469 
L 490.966691 278.968163 
L 492.0953 280.860805 
L 493.600112 283.991249 
L 495.85733 289.172712 
L 501.500376 302.283351 
L 505.638609 311.438779 
L 509.024436 318.401357 
L 512.410263 324.853099 
L 515.419887 330.138787 
L 518.429512 334.986598 
L 521.439136 339.422983 
L 524.072557 342.937838 
L 526.705978 346.109928 
L 529.339399 348.939656 
L 531.97282 351.434863 
L 534.606242 353.593621 
L 536.86346 355.182104 
L 539.120678 356.529813 
L 541.377896 357.641767 
L 543.635114 358.519196 
L 545.892332 359.157476 
L 548.14955 359.56745 
L 550.406769 359.755685 
L 552.663987 359.7243 
L 554.921205 359.4886 
L 557.554626 358.981039 
L 560.188047 358.241442 
L 562.821468 357.261672 
L 565.831092 355.896915 
L 568.840717 354.290144 
L 572.602747 352.005356 
L 577.117183 348.98237 
L 582.007822 345.460353 
L 598.560755 333.267879 
L 605.33241 328.73103 
L 646.714742 301.396808 
L 655.367412 295.991399 
L 662.891472 291.535599 
L 669.663126 287.759759 
L 676.810984 284.010112 
L 684.335044 280.30561 
L 691.106699 277.210442 
L 696.749744 274.867191 
L 702.768992 272.602187 
L 709.164444 270.443166 
L 715.559895 268.517577 
L 721.955347 266.832466 
L 729.103204 265.187565 
L 736.627264 263.687969 
L 745.656137 262.11467 
L 755.813618 260.575061 
L 758.44704 260.210013 
L 758.44704 260.210013 
" clip-path="url(#pf948426d83)" style="fill: none; stroke: #c44e52; stroke-opacity: 0.9; stroke-width: 3; stroke-linecap: round"/>
   </g>
   <g id="line2d_57">
    <path d="M 484.195037 273.024021 
L 484.57124 279.341254 
L 484.947443 279.592348 
L 486.076052 279.556123 
L 490.966691 279.232974 
L 491.719097 279.364594 
L 492.0953 279.555937 
L 492.847706 280.380107 
L 493.600112 281.514654 
L 496.233533 286.79783 
L 500.74797 295.859492 
L 503.757594 301.380151 
L 506.767218 306.401563 
L 509.776842 310.942636 
L 512.410263 314.510362 
L 515.043684 317.684442 
L 517.677106 320.477349 
L 519.934324 322.636233 
L 523.696354 325.810222 
L 527.082181 328.395609 
L 529.715602 330.153589 
L 532.725226 331.877615 
L 536.487257 333.767097 
L 539.873084 335.151144 
L 542.130302 335.909787 
L 544.38752 336.443409 
L 547.397144 336.870748 
L 550.030565 337.064349 
L 552.287784 336.998568 
L 554.921205 336.664341 
L 557.930829 336.021725 
L 559.811844 335.397941 
L 562.069062 334.400058 
L 564.32628 333.111862 
L 566.583498 331.592339 
L 569.21692 329.525676 
L 572.226544 326.858735 
L 576.364777 322.835319 
L 578.998198 320.32941 
L 580.879213 318.88084 
L 582.384025 318.166234 
L 583.136431 318.014765 
L 584.641244 318.013595 
L 588.027071 318.52719 
L 590.284289 319.307919 
L 592.91771 320.239424 
L 595.174928 320.859388 
L 597.432146 321.229681 
L 600.065567 321.397073 
L 604.956207 321.394561 
L 608.718237 321.303113 
L 615.489891 321.690086 
L 618.499515 321.583122 
L 621.50914 321.252481 
L 625.647373 320.53374 
L 634.300042 318.647544 
L 636.933464 317.834274 
L 640.319291 316.513988 
L 643.328915 315.120353 
L 646.714742 313.301294 
L 651.981584 310.158009 
L 656.119818 307.721867 
L 659.129442 306.299998 
L 662.891472 304.755543 
L 666.277299 303.590642 
L 668.91072 302.883561 
L 670.415533 302.63287 
L 671.920345 302.769635 
L 674.929969 303.147131 
L 678.691999 303.312525 
L 683.582638 303.347401 
L 686.968465 303.06609 
L 695.997338 301.961909 
L 702.768992 301.241711 
L 709.91685 301.193637 
L 721.955347 300.105352 
L 726.845986 299.585389 
L 733.993843 299.19457 
L 738.884482 299.448225 
L 743.398919 299.919636 
L 750.922979 300.954934 
L 758.44704 302.199411 
L 758.44704 302.199411 
" clip-path="url(#pf948426d83)" style="fill: none; stroke: #8172b3; stroke-opacity: 0.9; stroke-width: 3; stroke-linecap: round"/>
   </g>
   <g id="line2d_58">
    <path d="M 484.195037 273.024021 
L 484.57124 278.093058 
L 484.947443 278.262178 
L 486.452255 278.209685 
L 491.342894 277.990749 
L 492.0953 278.148956 
L 492.471503 278.362933 
L 493.223909 279.185314 
L 493.976315 280.248308 
L 496.609736 284.665522 
L 501.124173 292.066958 
L 504.133797 296.630718 
L 507.143421 300.82613 
L 511.281654 306.153937 
L 514.667481 310.115938 
L 518.429512 314.130272 
L 522.191542 317.825633 
L 525.953572 321.293374 
L 528.963196 323.774258 
L 531.596617 325.685534 
L 534.230039 327.339714 
L 536.86346 328.72923 
L 539.873084 330.017502 
L 542.506505 330.872402 
L 544.763723 331.370428 
L 547.020941 331.662611 
L 549.278159 331.73391 
L 551.535378 331.581428 
L 553.792596 331.194787 
L 556.049814 330.569378 
L 558.307032 329.685028 
L 560.56425 328.546747 
L 563.197671 326.974136 
L 565.831092 325.141956 
L 569.593123 322.451044 
L 573.731356 319.964891 
L 576.74098 318.308359 
L 581.631619 316.008928 
L 588.027071 313.172481 
L 590.660492 312.278713 
L 592.541507 311.756431 
L 601.946583 309.879905 
L 608.718237 308.30609 
L 614.361282 306.649926 
L 621.885343 304.146328 
L 627.152185 302.150541 
L 631.290418 300.584224 
L 635.052448 299.646624 
L 638.438276 299.081974 
L 641.824103 298.767662 
L 661.010457 297.993736 
L 662.891472 297.686529 
L 664.772487 297.161941 
L 666.653502 296.395896 
L 670.039329 294.687618 
L 674.177563 292.630621 
L 676.058578 291.958502 
L 677.56339 291.637716 
L 679.444405 291.482939 
L 681.701623 291.621805 
L 684.335044 291.928262 
L 687.720872 292.550384 
L 693.363917 293.671034 
L 697.878353 294.311977 
L 701.640383 294.635841 
L 705.402414 294.752437 
L 709.164444 294.653469 
L 712.550271 294.360239 
L 716.688504 293.752463 
L 720.074331 293.054634 
L 724.588768 292.058811 
L 727.222189 291.811696 
L 729.479407 291.801358 
L 732.489031 292.024313 
L 737.37967 292.692239 
L 743.398919 293.783842 
L 749.041964 294.997529 
L 754.308806 296.376429 
L 758.44704 297.503271 
L 758.44704 297.503271 
" clip-path="url(#pf948426d83)" style="fill: none; stroke: #937860; stroke-opacity: 0.9; stroke-width: 3; stroke-linecap: round"/>
   </g>
   <g id="patch_15">
    <path d="M 470.482436 373.284 
L 470.482436 253.698 
" style="fill: none; stroke: #ffffff; stroke-width: 1.25; stroke-linejoin: miter; stroke-linecap: square"/>
   </g>
   <g id="patch_16">
    <path d="M 470.482436 373.284 
L 772.15964 373.284 
" style="fill: none; stroke: #ffffff; stroke-width: 1.25; stroke-linejoin: miter; stroke-linecap: square"/>
   </g>
   <g id="text_21">
    <!-- 0.999~30 -->
    <g style="fill: #262626" transform="translate(558.657694 247.698) scale(0.252 -0.252)">
     <defs>
      <path id="DejaVuSans-39" d="M 703 97 
L 703 672 
Q 941 559 1184 500 
Q 1428 441 1663 441 
Q 2288 441 2617 861 
Q 2947 1281 2994 2138 
Q 2813 1869 2534 1725 
Q 2256 1581 1919 1581 
Q 1219 1581 811 2004 
Q 403 2428 403 3163 
Q 403 3881 828 4315 
Q 1253 4750 1959 4750 
Q 2769 4750 3195 4129 
Q 3622 3509 3622 2328 
Q 3622 1225 3098 567 
Q 2575 -91 1691 -91 
Q 1453 -91 1209 -44 
Q 966 3 703 97 
z
M 1959 2075 
Q 2384 2075 2632 2365 
Q 2881 2656 2881 3163 
Q 2881 3666 2632 3958 
Q 2384 4250 1959 4250 
Q 1534 4250 1286 3958 
Q 1038 3666 1038 3163 
Q 1038 2656 1286 2365 
Q 1534 2075 1959 2075 
z
" transform="scale(0.015625)"/>
     </defs>
     <use xlink:href="#DejaVuSans-30"/>
     <use xlink:href="#DejaVuSans-2e" x="63.623047"/>
     <use xlink:href="#DejaVuSans-39" x="95.410156"/>
     <use xlink:href="#DejaVuSans-39" x="159.033203"/>
     <use xlink:href="#DejaVuSans-39" x="222.65625"/>
     <use xlink:href="#DejaVuSans-7e" x="286.279297"/>
     <use xlink:href="#DejaVuSans-33" x="370.068359"/>
     <use xlink:href="#DejaVuSans-30" x="433.691406"/>
    </g>
   </g>
  </g>
  <g id="axes_6">
   <g id="patch_17">
    <path d="M 798.93237 373.284 
L 1100.609573 373.284 
L 1100.609573 253.698 
L 798.93237 253.698 
z
" style="fill: #eaeaf2"/>
   </g>
   <g id="matplotlib.axis_11">
    <g id="xtick_21">
     <g id="line2d_59">
      <path d="M 812.64497 373.284 
L 812.64497 253.698 
" clip-path="url(#p584c261a86)" style="fill: none; stroke: #ffffff; stroke-linecap: round"/>
     </g>
     <g id="text_22">
      <!-- 0 -->
      <g style="fill: #262626" transform="translate(805.296283 400.336391) scale(0.231 -0.231)">
       <use xlink:href="#DejaVuSans-30"/>
      </g>
     </g>
    </g>
    <g id="xtick_22">
     <g id="line2d_60">
      <path d="M 906.695726 373.284 
L 906.695726 253.698 
" clip-path="url(#p584c261a86)" style="fill: none; stroke: #ffffff; stroke-linecap: round"/>
     </g>
     <g id="text_23">
      <!-- 250 -->
      <g style="fill: #262626" transform="translate(884.649663 400.336391) scale(0.231 -0.231)">
       <use xlink:href="#DejaVuSans-32"/>
       <use xlink:href="#DejaVuSans-35" x="63.623047"/>
       <use xlink:href="#DejaVuSans-30" x="127.246094"/>
      </g>
     </g>
    </g>
    <g id="xtick_23">
     <g id="line2d_61">
      <path d="M 1000.746481 373.284 
L 1000.746481 253.698 
" clip-path="url(#p584c261a86)" style="fill: none; stroke: #ffffff; stroke-linecap: round"/>
     </g>
     <g id="text_24">
      <!-- 500 -->
      <g style="fill: #262626" transform="translate(978.700419 400.336391) scale(0.231 -0.231)">
       <use xlink:href="#DejaVuSans-35"/>
       <use xlink:href="#DejaVuSans-30" x="63.623047"/>
       <use xlink:href="#DejaVuSans-30" x="127.246094"/>
      </g>
     </g>
    </g>
    <g id="xtick_24">
     <g id="line2d_62">
      <path d="M 1094.797237 373.284 
L 1094.797237 253.698 
" clip-path="url(#p584c261a86)" style="fill: none; stroke: #ffffff; stroke-linecap: round"/>
     </g>
     <g id="text_25">
      <!-- 750 -->
      <g style="fill: #262626" transform="translate(1072.751174 400.336391) scale(0.231 -0.231)">
       <use xlink:href="#DejaVuSans-37"/>
       <use xlink:href="#DejaVuSans-35" x="63.623047"/>
       <use xlink:href="#DejaVuSans-30" x="127.246094"/>
      </g>
     </g>
    </g>
    <g id="text_26">
     <!-- step -->
     <g style="fill: #262626" transform="translate(922.515597 428.288531) scale(0.252 -0.252)">
      <use xlink:href="#DejaVuSans-73"/>
      <use xlink:href="#DejaVuSans-74" x="52.099609"/>
      <use xlink:href="#DejaVuSans-65" x="91.308594"/>
      <use xlink:href="#DejaVuSans-70" x="152.832031"/>
     </g>
    </g>
   </g>
   <g id="matplotlib.axis_12">
    <g id="ytick_11">
     <g id="line2d_63">
      <path d="M 798.93237 338.017231 
L 1100.609573 338.017231 
" clip-path="url(#p584c261a86)" style="fill: none; stroke: #ffffff; stroke-linecap: round"/>
     </g>
    </g>
    <g id="ytick_12">
     <g id="line2d_64">
      <path d="M 798.93237 273.024021 
L 1100.609573 273.024021 
" clip-path="url(#p584c261a86)" style="fill: none; stroke: #ffffff; stroke-linecap: round"/>
     </g>
    </g>
   </g>
   <g id="PolyCollection_29"/>
   <g id="PolyCollection_30"/>
   <g id="line2d_65">
    <path d="M 812.64497 273.024021 
L 813.021173 279.341254 
L 813.397376 279.620726 
L 814.525985 279.67559 
L 818.664219 279.733219 
L 819.792828 279.981696 
L 820.545234 280.291618 
L 821.29764 281.041439 
L 822.050046 282.08481 
L 823.178655 284.21677 
L 834.840949 307.900784 
L 838.602979 314.824139 
L 842.365009 321.305154 
L 846.127039 327.365563 
L 849.889069 332.99974 
L 853.6511 338.203623 
L 857.036927 342.520923 
L 860.422754 346.492386 
L 863.808581 350.121172 
L 867.194408 353.408138 
L 870.204033 356.041384 
L 873.213657 358.40407 
L 876.223281 360.497204 
L 879.232905 362.320367 
L 882.242529 363.877445 
L 885.252154 365.172254 
L 888.261778 366.209859 
L 891.271402 366.995291 
L 894.281026 367.530946 
L 896.914447 367.786333 
L 899.924071 367.837759 
L 902.933696 367.646491 
L 905.94332 367.22809 
L 908.952944 366.594115 
L 911.962568 365.756289 
L 915.348395 364.562461 
L 918.734222 363.124443 
L 922.496253 361.277541 
L 927.010689 358.801173 
L 933.782343 354.765099 
L 939.425389 351.462844 
L 941.682607 350.465685 
L 942.811216 350.117904 
L 944.316028 350.030347 
L 948.078058 350.240467 
L 950.711479 350.610179 
L 954.097307 351.30883 
L 957.483134 352.171476 
L 973.659864 356.53167 
L 979.302909 357.778512 
L 984.945954 358.795106 
L 990.212797 359.519839 
L 995.855842 360.070981 
L 1000.746481 360.362837 
L 1005.637121 360.44092 
L 1010.52776 360.299021 
L 1015.794602 359.914511 
L 1021.061444 359.299964 
L 1026.70449 358.409159 
L 1032.723738 357.224227 
L 1039.495393 355.654616 
L 1046.64325 353.782808 
L 1054.543513 351.47393 
L 1064.324792 348.364345 
L 1070.34404 346.282442 
L 1075.23468 344.33938 
L 1080.877725 341.829647 
L 1086.896973 338.913582 
L 1086.896973 338.913582 
" clip-path="url(#p584c261a86)" style="fill: none; stroke: #8172b3; stroke-opacity: 0.9; stroke-width: 3; stroke-linecap: round"/>
   </g>
   <g id="line2d_66">
    <path d="M 812.64497 273.024021 
L 813.021173 278.093058 
L 813.397376 278.28393 
L 814.902188 278.324099 
L 819.040422 278.36765 
L 820.169031 278.630213 
L 820.921437 278.942521 
L 821.673843 279.662565 
L 822.426249 280.622483 
L 824.307264 283.740133 
L 829.950309 293.306797 
L 835.969558 302.913178 
L 840.107791 309.044121 
L 844.246024 314.753718 
L 848.384257 320.054544 
L 852.146288 324.515221 
L 855.908318 328.623105 
L 859.670348 332.377062 
L 863.056175 335.455388 
L 866.442002 338.250173 
L 869.82783 340.764296 
L 873.213657 342.997716 
L 876.599484 344.951045 
L 879.985311 346.633326 
L 883.371138 348.047698 
L 886.756966 349.193417 
L 890.142793 350.077942 
L 893.52862 350.711749 
L 896.914447 351.099621 
L 900.300274 351.239537 
L 903.309899 351.154242 
L 906.695726 350.824867 
L 910.081553 350.269614 
L 913.843583 349.429738 
L 918.358019 348.183517 
L 922.872456 346.717266 
L 931.901328 343.442451 
L 939.049186 340.966493 
L 946.573246 338.744304 
L 949.959073 337.894543 
L 957.106931 336.450916 
L 977.421894 332.40393 
L 988.331782 330.103983 
L 992.846218 329.467994 
L 1006.389527 327.777922 
L 1016.547008 326.25584 
L 1024.447272 325.115882 
L 1030.842723 324.25805 
L 1035.733362 323.356116 
L 1048.148062 320.656913 
L 1055.295919 319.196678 
L 1062.067574 318.021225 
L 1086.896973 314.007148 
L 1086.896973 314.007148 
" clip-path="url(#p584c261a86)" style="fill: none; stroke: #937860; stroke-opacity: 0.9; stroke-width: 3; stroke-linecap: round"/>
   </g>
   <g id="patch_18">
    <path d="M 798.93237 373.284 
L 798.93237 253.698 
" style="fill: none; stroke: #ffffff; stroke-width: 1.25; stroke-linejoin: miter; stroke-linecap: square"/>
   </g>
   <g id="patch_19">
    <path d="M 798.93237 373.284 
L 1100.609573 373.284 
" style="fill: none; stroke: #ffffff; stroke-width: 1.25; stroke-linejoin: miter; stroke-linecap: square"/>
   </g>
   <g id="text_27">
    <!-- 0.999~365 -->
    <g style="fill: #262626" transform="translate(879.090878 247.698) scale(0.252 -0.252)">
     <use xlink:href="#DejaVuSans-30"/>
     <use xlink:href="#DejaVuSans-2e" x="63.623047"/>
     <use xlink:href="#DejaVuSans-39" x="95.410156"/>
     <use xlink:href="#DejaVuSans-39" x="159.033203"/>
     <use xlink:href="#DejaVuSans-39" x="222.65625"/>
     <use xlink:href="#DejaVuSans-7e" x="286.279297"/>
     <use xlink:href="#DejaVuSans-33" x="370.068359"/>
     <use xlink:href="#DejaVuSans-36" x="433.691406"/>
     <use xlink:href="#DejaVuSans-35" x="497.314453"/>
    </g>
   </g>
  </g>
  <g id="text_28">
   <!-- Production change from pre-shock level -->
   <g style="fill: #262626" transform="translate(280.766836 30.177675) scale(0.3024 -0.3024)">
    <defs>
     <path id="DejaVuSans-50" d="M 1259 4147 
L 1259 2394 
L 2053 2394 
Q 2494 2394 2734 2622 
Q 2975 2850 2975 3272 
Q 2975 3691 2734 3919 
Q 2494 4147 2053 4147 
L 1259 4147 
z
M 628 4666 
L 2053 4666 
Q 2838 4666 3239 4311 
Q 3641 3956 3641 3272 
Q 3641 2581 3239 2228 
Q 2838 1875 2053 1875 
L 1259 1875 
L 1259 0 
L 628 0 
L 628 4666 
z
" transform="scale(0.015625)"/>
     <path id="DejaVuSans-72" d="M 2631 2963 
Q 2534 3019 2420 3045 
Q 2306 3072 2169 3072 
Q 1681 3072 1420 2755 
Q 1159 2438 1159 1844 
L 1159 0 
L 581 0 
L 581 3500 
L 1159 3500 
L 1159 2956 
Q 1341 3275 1631 3429 
Q 1922 3584 2338 3584 
Q 2397 3584 2469 3576 
Q 2541 3569 2628 3553 
L 2631 2963 
z
" transform="scale(0.015625)"/>
     <path id="DejaVuSans-6f" d="M 1959 3097 
Q 1497 3097 1228 2736 
Q 959 2375 959 1747 
Q 959 1119 1226 758 
Q 1494 397 1959 397 
Q 2419 397 2687 759 
Q 2956 1122 2956 1747 
Q 2956 2369 2687 2733 
Q 2419 3097 1959 3097 
z
M 1959 3584 
Q 2709 3584 3137 3096 
Q 3566 2609 3566 1747 
Q 3566 888 3137 398 
Q 2709 -91 1959 -91 
Q 1206 -91 779 398 
Q 353 888 353 1747 
Q 353 2609 779 3096 
Q 1206 3584 1959 3584 
z
" transform="scale(0.015625)"/>
     <path id="DejaVuSans-64" d="M 2906 2969 
L 2906 4863 
L 3481 4863 
L 3481 0 
L 2906 0 
L 2906 525 
Q 2725 213 2448 61 
Q 2172 -91 1784 -91 
Q 1150 -91 751 415 
Q 353 922 353 1747 
Q 353 2572 751 3078 
Q 1150 3584 1784 3584 
Q 2172 3584 2448 3432 
Q 2725 3281 2906 2969 
z
M 947 1747 
Q 947 1113 1208 752 
Q 1469 391 1925 391 
Q 2381 391 2643 752 
Q 2906 1113 2906 1747 
Q 2906 2381 2643 2742 
Q 2381 3103 1925 3103 
Q 1469 3103 1208 2742 
Q 947 2381 947 1747 
z
" transform="scale(0.015625)"/>
     <path id="DejaVuSans-75" d="M 544 1381 
L 544 3500 
L 1119 3500 
L 1119 1403 
Q 1119 906 1312 657 
Q 1506 409 1894 409 
Q 2359 409 2629 706 
Q 2900 1003 2900 1516 
L 2900 3500 
L 3475 3500 
L 3475 0 
L 2900 0 
L 2900 538 
Q 2691 219 2414 64 
Q 2138 -91 1772 -91 
Q 1169 -91 856 284 
Q 544 659 544 1381 
z
M 1991 3584 
L 1991 3584 
z
" transform="scale(0.015625)"/>
     <path id="DejaVuSans-69" d="M 603 3500 
L 1178 3500 
L 1178 0 
L 603 0 
L 603 3500 
z
M 603 4863 
L 1178 4863 
L 1178 4134 
L 603 4134 
L 603 4863 
z
" transform="scale(0.015625)"/>
     <path id="DejaVuSans-66" d="M 2375 4863 
L 2375 4384 
L 1825 4384 
Q 1516 4384 1395 4259 
Q 1275 4134 1275 3809 
L 1275 3500 
L 2222 3500 
L 2222 3053 
L 1275 3053 
L 1275 0 
L 697 0 
L 697 3053 
L 147 3053 
L 147 3500 
L 697 3500 
L 697 3744 
Q 697 4328 969 4595 
Q 1241 4863 1831 4863 
L 2375 4863 
z
" transform="scale(0.015625)"/>
     <path id="DejaVuSans-6d" d="M 3328 2828 
Q 3544 3216 3844 3400 
Q 4144 3584 4550 3584 
Q 5097 3584 5394 3201 
Q 5691 2819 5691 2113 
L 5691 0 
L 5113 0 
L 5113 2094 
Q 5113 2597 4934 2840 
Q 4756 3084 4391 3084 
Q 3944 3084 3684 2787 
Q 3425 2491 3425 1978 
L 3425 0 
L 2847 0 
L 2847 2094 
Q 2847 2600 2669 2842 
Q 2491 3084 2119 3084 
Q 1678 3084 1418 2786 
Q 1159 2488 1159 1978 
L 1159 0 
L 581 0 
L 581 3500 
L 1159 3500 
L 1159 2956 
Q 1356 3278 1631 3431 
Q 1906 3584 2284 3584 
Q 2666 3584 2933 3390 
Q 3200 3197 3328 2828 
z
" transform="scale(0.015625)"/>
     <path id="DejaVuSans-2d" d="M 313 2009 
L 1997 2009 
L 1997 1497 
L 313 1497 
L 313 2009 
z
" transform="scale(0.015625)"/>
     <path id="DejaVuSans-6b" d="M 581 4863 
L 1159 4863 
L 1159 1991 
L 2875 3500 
L 3609 3500 
L 1753 1863 
L 3688 0 
L 2938 0 
L 1159 1709 
L 1159 0 
L 581 0 
L 581 4863 
z
" transform="scale(0.015625)"/>
     <path id="DejaVuSans-6c" d="M 603 4863 
L 1178 4863 
L 1178 0 
L 603 0 
L 603 4863 
z
" transform="scale(0.015625)"/>
     <path id="DejaVuSans-76" d="M 191 3500 
L 800 3500 
L 1894 563 
L 2988 3500 
L 3597 3500 
L 2284 0 
L 1503 0 
L 191 3500 
z
" transform="scale(0.015625)"/>
    </defs>
    <use xlink:href="#DejaVuSans-50"/>
    <use xlink:href="#DejaVuSans-72" x="58.552734"/>
    <use xlink:href="#DejaVuSans-6f" x="97.416016"/>
    <use xlink:href="#DejaVuSans-64" x="158.597656"/>
    <use xlink:href="#DejaVuSans-75" x="222.074219"/>
    <use xlink:href="#DejaVuSans-63" x="285.453125"/>
    <use xlink:href="#DejaVuSans-74" x="340.433594"/>
    <use xlink:href="#DejaVuSans-69" x="379.642578"/>
    <use xlink:href="#DejaVuSans-6f" x="407.425781"/>
    <use xlink:href="#DejaVuSans-6e" x="468.607422"/>
    <use xlink:href="#DejaVuSans-20" x="531.986328"/>
    <use xlink:href="#DejaVuSans-63" x="563.773438"/>
    <use xlink:href="#DejaVuSans-68" x="618.753906"/>
    <use xlink:href="#DejaVuSans-61" x="682.132812"/>
    <use xlink:href="#DejaVuSans-6e" x="743.412109"/>
    <use xlink:href="#DejaVuSans-67" x="806.791016"/>
    <use xlink:href="#DejaVuSans-65" x="870.267578"/>
    <use xlink:href="#DejaVuSans-20" x="931.791016"/>
    <use xlink:href="#DejaVuSans-66" x="963.578125"/>
    <use xlink:href="#DejaVuSans-72" x="998.783203"/>
    <use xlink:href="#DejaVuSans-6f" x="1037.646484"/>
    <use xlink:href="#DejaVuSans-6d" x="1098.828125"/>
    <use xlink:href="#DejaVuSans-20" x="1196.240234"/>
    <use xlink:href="#DejaVuSans-70" x="1228.027344"/>
    <use xlink:href="#DejaVuSans-72" x="1291.503906"/>
    <use xlink:href="#DejaVuSans-65" x="1330.367188"/>
    <use xlink:href="#DejaVuSans-2d" x="1391.890625"/>
    <use xlink:href="#DejaVuSans-73" x="1427.974609"/>
    <use xlink:href="#DejaVuSans-68" x="1480.074219"/>
    <use xlink:href="#DejaVuSans-6f" x="1543.453125"/>
    <use xlink:href="#DejaVuSans-63" x="1604.634766"/>
    <use xlink:href="#DejaVuSans-6b" x="1659.615234"/>
    <use xlink:href="#DejaVuSans-20" x="1717.525391"/>
    <use xlink:href="#DejaVuSans-6c" x="1749.3125"/>
    <use xlink:href="#DejaVuSans-65" x="1777.095703"/>
    <use xlink:href="#DejaVuSans-76" x="1838.619141"/>
    <use xlink:href="#DejaVuSans-65" x="1897.798828"/>
    <use xlink:href="#DejaVuSans-6c" x="1959.322266"/>
   </g>
  </g>
  <g id="legend_1">
   <g id="patch_20">
    <path d="M 11.82 584.31675 
L 1292.617547 584.31675 
Q 1297.237547 584.31675 1297.237547 579.69675 
L 1297.237547 476.97 
Q 1297.237547 472.35 1292.617547 472.35 
L 11.82 472.35 
Q 7.2 472.35 7.2 476.97 
L 7.2 579.69675 
Q 7.2 584.31675 11.82 584.31675 
z
" style="fill: #eaeaf2; opacity: 0.8; stroke: #cccccc; stroke-linejoin: miter"/>
   </g>
   <g id="text_29">
    <!-- Experiences -->
    <g style="fill: #262626" transform="translate(575.384367 500.738062) scale(0.252 -0.252)">
     <defs>
      <path id="DejaVuSans-45" d="M 628 4666 
L 3578 4666 
L 3578 4134 
L 1259 4134 
L 1259 2753 
L 3481 2753 
L 3481 2222 
L 1259 2222 
L 1259 531 
L 3634 531 
L 3634 0 
L 628 0 
L 628 4666 
z
" transform="scale(0.015625)"/>
      <path id="DejaVuSans-78" d="M 3513 3500 
L 2247 1797 
L 3578 0 
L 2900 0 
L 1881 1375 
L 863 0 
L 184 0 
L 1544 1831 
L 300 3500 
L 978 3500 
L 1906 2253 
L 2834 3500 
L 3513 3500 
z
" transform="scale(0.015625)"/>
     </defs>
     <use xlink:href="#DejaVuSans-45"/>
     <use xlink:href="#DejaVuSans-78" x="63.183594"/>
     <use xlink:href="#DejaVuSans-70" x="122.363281"/>
     <use xlink:href="#DejaVuSans-65" x="185.839844"/>
     <use xlink:href="#DejaVuSans-72" x="247.363281"/>
     <use xlink:href="#DejaVuSans-69" x="288.476562"/>
     <use xlink:href="#DejaVuSans-65" x="316.259766"/>
     <use xlink:href="#DejaVuSans-6e" x="377.783203"/>
     <use xlink:href="#DejaVuSans-63" x="441.162109"/>
     <use xlink:href="#DejaVuSans-65" x="496.142578"/>
     <use xlink:href="#DejaVuSans-73" x="557.666016"/>
    </g>
   </g>
   <g id="line2d_67">
    <path d="M 16.44 526.996266 
L 39.54 526.996266 
L 62.64 526.996266 
" style="fill: none; stroke: #4c72b0; stroke-opacity: 0.9; stroke-width: 3; stroke-linecap: round"/>
   </g>
   <g id="text_30">
    <!-- eora26_full_2000 -->
    <g style="fill: #262626" transform="translate(81.12 535.081266) scale(0.231 -0.231)">
     <defs>
      <path id="DejaVuSans-5f" d="M 3263 -1063 
L 3263 -1509 
L -63 -1509 
L -63 -1063 
L 3263 -1063 
z
" transform="scale(0.015625)"/>
     </defs>
     <use xlink:href="#DejaVuSans-65"/>
     <use xlink:href="#DejaVuSans-6f" x="61.523438"/>
     <use xlink:href="#DejaVuSans-72" x="122.705078"/>
     <use xlink:href="#DejaVuSans-61" x="163.818359"/>
     <use xlink:href="#DejaVuSans-32" x="225.097656"/>
     <use xlink:href="#DejaVuSans-36" x="288.720703"/>
     <use xlink:href="#DejaVuSans-5f" x="352.34375"/>
     <use xlink:href="#DejaVuSans-66" x="402.34375"/>
     <use xlink:href="#DejaVuSans-75" x="437.548828"/>
     <use xlink:href="#DejaVuSans-6c" x="500.927734"/>
     <use xlink:href="#DejaVuSans-6c" x="528.710938"/>
     <use xlink:href="#DejaVuSans-5f" x="556.494141"/>
     <use xlink:href="#DejaVuSans-32" x="606.494141"/>
     <use xlink:href="#DejaVuSans-30" x="670.117188"/>
     <use xlink:href="#DejaVuSans-30" x="733.740234"/>
     <use xlink:href="#DejaVuSans-30" x="797.363281"/>
    </g>
   </g>
   <g id="line2d_68">
    <path d="M 16.44 561.545203 
L 39.54 561.545203 
L 62.64 561.545203 
" style="fill: none; stroke: #dd8452; stroke-opacity: 0.9; stroke-width: 3; stroke-linecap: round"/>
   </g>
   <g id="text_31">
    <!-- eora26_full_2010 -->
    <g style="fill: #262626" transform="translate(81.12 569.630203) scale(0.231 -0.231)">
     <defs>
      <path id="DejaVuSans-31" d="M 794 531 
L 1825 531 
L 1825 4091 
L 703 3866 
L 703 4441 
L 1819 4666 
L 2450 4666 
L 2450 531 
L 3481 531 
L 3481 0 
L 794 0 
L 794 531 
z
" transform="scale(0.015625)"/>
     </defs>
     <use xlink:href="#DejaVuSans-65"/>
     <use xlink:href="#DejaVuSans-6f" x="61.523438"/>
     <use xlink:href="#DejaVuSans-72" x="122.705078"/>
     <use xlink:href="#DejaVuSans-61" x="163.818359"/>
     <use xlink:href="#DejaVuSans-32" x="225.097656"/>
     <use xlink:href="#DejaVuSans-36" x="288.720703"/>
     <use xlink:href="#DejaVuSans-5f" x="352.34375"/>
     <use xlink:href="#DejaVuSans-66" x="402.34375"/>
     <use xlink:href="#DejaVuSans-75" x="437.548828"/>
     <use xlink:href="#DejaVuSans-6c" x="500.927734"/>
     <use xlink:href="#DejaVuSans-6c" x="528.710938"/>
     <use xlink:href="#DejaVuSans-5f" x="556.494141"/>
     <use xlink:href="#DejaVuSans-32" x="606.494141"/>
     <use xlink:href="#DejaVuSans-30" x="670.117188"/>
     <use xlink:href="#DejaVuSans-31" x="733.740234"/>
     <use xlink:href="#DejaVuSans-30" x="797.363281"/>
    </g>
   </g>
   <g id="line2d_69">
    <path d="M 326.211 526.996266 
L 349.311 526.996266 
L 372.411 526.996266 
" style="fill: none; stroke: #55a868; stroke-opacity: 0.9; stroke-width: 3; stroke-linecap: round"/>
   </g>
   <g id="text_32">
    <!-- euregio_full_2000 -->
    <g style="fill: #262626" transform="translate(390.891 535.081266) scale(0.231 -0.231)">
     <use xlink:href="#DejaVuSans-65"/>
     <use xlink:href="#DejaVuSans-75" x="61.523438"/>
     <use xlink:href="#DejaVuSans-72" x="124.902344"/>
     <use xlink:href="#DejaVuSans-65" x="163.765625"/>
     <use xlink:href="#DejaVuSans-67" x="225.289062"/>
     <use xlink:href="#DejaVuSans-69" x="288.765625"/>
     <use xlink:href="#DejaVuSans-6f" x="316.548828"/>
     <use xlink:href="#DejaVuSans-5f" x="377.730469"/>
     <use xlink:href="#DejaVuSans-66" x="427.730469"/>
     <use xlink:href="#DejaVuSans-75" x="462.935547"/>
     <use xlink:href="#DejaVuSans-6c" x="526.314453"/>
     <use xlink:href="#DejaVuSans-6c" x="554.097656"/>
     <use xlink:href="#DejaVuSans-5f" x="581.880859"/>
     <use xlink:href="#DejaVuSans-32" x="631.880859"/>
     <use xlink:href="#DejaVuSans-30" x="695.503906"/>
     <use xlink:href="#DejaVuSans-30" x="759.126953"/>
     <use xlink:href="#DejaVuSans-30" x="822.75"/>
    </g>
   </g>
   <g id="line2d_70">
    <path d="M 326.211 561.545203 
L 349.311 561.545203 
L 372.411 561.545203 
" style="fill: none; stroke: #c44e52; stroke-opacity: 0.9; stroke-width: 3; stroke-linecap: round"/>
   </g>
   <g id="text_33">
    <!-- euregio_full_2010 -->
    <g style="fill: #262626" transform="translate(390.891 569.630203) scale(0.231 -0.231)">
     <use xlink:href="#DejaVuSans-65"/>
     <use xlink:href="#DejaVuSans-75" x="61.523438"/>
     <use xlink:href="#DejaVuSans-72" x="124.902344"/>
     <use xlink:href="#DejaVuSans-65" x="163.765625"/>
     <use xlink:href="#DejaVuSans-67" x="225.289062"/>
     <use xlink:href="#DejaVuSans-69" x="288.765625"/>
     <use xlink:href="#DejaVuSans-6f" x="316.548828"/>
     <use xlink:href="#DejaVuSans-5f" x="377.730469"/>
     <use xlink:href="#DejaVuSans-66" x="427.730469"/>
     <use xlink:href="#DejaVuSans-75" x="462.935547"/>
     <use xlink:href="#DejaVuSans-6c" x="526.314453"/>
     <use xlink:href="#DejaVuSans-6c" x="554.097656"/>
     <use xlink:href="#DejaVuSans-5f" x="581.880859"/>
     <use xlink:href="#DejaVuSans-32" x="631.880859"/>
     <use xlink:href="#DejaVuSans-30" x="695.503906"/>
     <use xlink:href="#DejaVuSans-31" x="759.126953"/>
     <use xlink:href="#DejaVuSans-30" x="822.75"/>
    </g>
   </g>
   <g id="line2d_71">
    <path d="M 641.847234 526.996266 
L 664.947234 526.996266 
L 688.047234 526.996266 
" style="fill: none; stroke: #8172b3; stroke-opacity: 0.9; stroke-width: 3; stroke-linecap: round"/>
   </g>
   <g id="text_34">
    <!-- exiobase3_full_2000 -->
    <g style="fill: #262626" transform="translate(706.527234 535.081266) scale(0.231 -0.231)">
     <defs>
      <path id="DejaVuSans-62" d="M 3116 1747 
Q 3116 2381 2855 2742 
Q 2594 3103 2138 3103 
Q 1681 3103 1420 2742 
Q 1159 2381 1159 1747 
Q 1159 1113 1420 752 
Q 1681 391 2138 391 
Q 2594 391 2855 752 
Q 3116 1113 3116 1747 
z
M 1159 2969 
Q 1341 3281 1617 3432 
Q 1894 3584 2278 3584 
Q 2916 3584 3314 3078 
Q 3713 2572 3713 1747 
Q 3713 922 3314 415 
Q 2916 -91 2278 -91 
Q 1894 -91 1617 61 
Q 1341 213 1159 525 
L 1159 0 
L 581 0 
L 581 4863 
L 1159 4863 
L 1159 2969 
z
" transform="scale(0.015625)"/>
     </defs>
     <use xlink:href="#DejaVuSans-65"/>
     <use xlink:href="#DejaVuSans-78" x="59.773438"/>
     <use xlink:href="#DejaVuSans-69" x="118.953125"/>
     <use xlink:href="#DejaVuSans-6f" x="146.736328"/>
     <use xlink:href="#DejaVuSans-62" x="207.917969"/>
     <use xlink:href="#DejaVuSans-61" x="271.394531"/>
     <use xlink:href="#DejaVuSans-73" x="332.673828"/>
     <use xlink:href="#DejaVuSans-65" x="384.773438"/>
     <use xlink:href="#DejaVuSans-33" x="446.296875"/>
     <use xlink:href="#DejaVuSans-5f" x="509.919922"/>
     <use xlink:href="#DejaVuSans-66" x="559.919922"/>
     <use xlink:href="#DejaVuSans-75" x="595.125"/>
     <use xlink:href="#DejaVuSans-6c" x="658.503906"/>
     <use xlink:href="#DejaVuSans-6c" x="686.287109"/>
     <use xlink:href="#DejaVuSans-5f" x="714.070312"/>
     <use xlink:href="#DejaVuSans-32" x="764.070312"/>
     <use xlink:href="#DejaVuSans-30" x="827.693359"/>
     <use xlink:href="#DejaVuSans-30" x="891.316406"/>
     <use xlink:href="#DejaVuSans-30" x="954.939453"/>
    </g>
   </g>
   <g id="line2d_72">
    <path d="M 988.022391 526.996266 
L 1011.122391 526.996266 
L 1034.222391 526.996266 
" style="fill: none; stroke: #937860; stroke-opacity: 0.9; stroke-width: 3; stroke-linecap: round"/>
   </g>
   <g id="text_35">
    <!-- exiobase3_full_2010 -->
    <g style="fill: #262626" transform="translate(1052.702391 535.081266) scale(0.231 -0.231)">
     <use xlink:href="#DejaVuSans-65"/>
     <use xlink:href="#DejaVuSans-78" x="59.773438"/>
     <use xlink:href="#DejaVuSans-69" x="118.953125"/>
     <use xlink:href="#DejaVuSans-6f" x="146.736328"/>
     <use xlink:href="#DejaVuSans-62" x="207.917969"/>
     <use xlink:href="#DejaVuSans-61" x="271.394531"/>
     <use xlink:href="#DejaVuSans-73" x="332.673828"/>
     <use xlink:href="#DejaVuSans-65" x="384.773438"/>
     <use xlink:href="#DejaVuSans-33" x="446.296875"/>
     <use xlink:href="#DejaVuSans-5f" x="509.919922"/>
     <use xlink:href="#DejaVuSans-66" x="559.919922"/>
     <use xlink:href="#DejaVuSans-75" x="595.125"/>
     <use xlink:href="#DejaVuSans-6c" x="658.503906"/>
     <use xlink:href="#DejaVuSans-6c" x="686.287109"/>
     <use xlink:href="#DejaVuSans-5f" x="714.070312"/>
     <use xlink:href="#DejaVuSans-32" x="764.070312"/>
     <use xlink:href="#DejaVuSans-30" x="827.693359"/>
     <use xlink:href="#DejaVuSans-31" x="891.316406"/>
     <use xlink:href="#DejaVuSans-30" x="954.939453"/>
    </g>
   </g>
  </g>
 </g>
 <defs>
  <clipPath id="p77deb12d11">
   <rect x="142.032503" y="81.456" width="301.677203" height="119.586"/>
  </clipPath>
  <clipPath id="p56b6ac14b4">
   <rect x="470.482436" y="81.456" width="301.677203" height="119.586"/>
  </clipPath>
  <clipPath id="p4e9135294d">
   <rect x="798.93237" y="81.456" width="301.677203" height="119.586"/>
  </clipPath>
  <clipPath id="p6349f02f47">
   <rect x="142.032503" y="253.698" width="301.677203" height="119.586"/>
  </clipPath>
  <clipPath id="pf948426d83">
   <rect x="470.482436" y="253.698" width="301.677203" height="119.586"/>
  </clipPath>
  <clipPath id="p584c261a86">
   <rect x="798.93237" y="253.698" width="301.677203" height="119.586"/>
  </clipPath>
 </defs>
</svg>
