<?xml version="1.0" encoding="utf-8" standalone="no"?>
<!DOCTYPE svg PUBLIC "-//W3C//DTD SVG 1.1//EN"
  "http://www.w3.org/Graphics/SVG/1.1/DTD/svg11.dtd">
<svg xmlns:xlink="http://www.w3.org/1999/xlink" width="1304.437547pt" height="591.51675pt" viewBox="0 0 1304.437547 591.51675" xmlns="http://www.w3.org/2000/svg" version="1.1">
 <metadata>
  <rdf:RDF xmlns:dc="http://purl.org/dc/elements/1.1/" xmlns:cc="http://creativecommons.org/ns#" xmlns:rdf="http://www.w3.org/1999/02/22-rdf-syntax-ns#">
   <cc:Work>
    <dc:type rdf:resource="http://purl.org/dc/dcmitype/StillImage"/>
    <dc:date>2023-04-28T12:09:35.019223</dc:date>
    <dc:format>image/svg+xml</dc:format>
    <dc:creator>
     <cc:Agent>
      <dc:title>Matplotlib v3.7.1, https://matplotlib.org/</dc:title>
     </cc:Agent>
    </dc:creator>
   </cc:Work>
  </rdf:RDF>
 </metadata>
 <defs>
  <style type="text/css">*{stroke-linejoin: round; stroke-linecap: butt}</style>
 </defs>
 <g id="figure_1">
  <g id="patch_1">
   <path d="M 0 591.51675 
L 1304.437547 591.51675 
L 1304.437547 -0 
L 0 -0 
z
" style="fill: #ffffff"/>
  </g>
  <g id="axes_1">
   <g id="patch_2">
    <path d="M 189.250488 195.962041 
L 475.404752 195.962041 
L 475.404752 81.456 
L 189.250488 81.456 
z
" style="fill: #eaeaf2"/>
   </g>
   <g id="matplotlib.axis_1">
    <g id="xtick_1">
     <g id="line2d_1">
      <path d="M 202.2575 195.962041 
L 202.2575 81.456 
" clip-path="url(#pa5c62e352b)" style="fill: none; stroke: #ffffff; stroke-linecap: round"/>
     </g>
    </g>
    <g id="xtick_2">
     <g id="line2d_2">
      <path d="M 291.468831 195.962041 
L 291.468831 81.456 
" clip-path="url(#pa5c62e352b)" style="fill: none; stroke: #ffffff; stroke-linecap: round"/>
     </g>
    </g>
    <g id="xtick_3">
     <g id="line2d_3">
      <path d="M 380.680161 195.962041 
L 380.680161 81.456 
" clip-path="url(#pa5c62e352b)" style="fill: none; stroke: #ffffff; stroke-linecap: round"/>
     </g>
    </g>
    <g id="xtick_4">
     <g id="line2d_4">
      <path d="M 469.891491 195.962041 
L 469.891491 81.456 
" clip-path="url(#pa5c62e352b)" style="fill: none; stroke: #ffffff; stroke-linecap: round"/>
     </g>
    </g>
   </g>
   <g id="matplotlib.axis_2">
    <g id="ytick_1">
     <g id="line2d_5">
      <path d="M 189.250488 192.543754 
L 475.404752 192.543754 
" clip-path="url(#pa5c62e352b)" style="fill: none; stroke: #ffffff; stroke-linecap: round"/>
     </g>
     <g id="text_1">
      <!-- −0.05 -->
      <g style="fill: #262626" transform="translate(108.959816 201.31995) scale(0.231 -0.231)">
       <defs>
        <path id="DejaVuSans-2212" d="M 678 2272 
L 4684 2272 
L 4684 1741 
L 678 1741 
L 678 2272 
z
" transform="scale(0.015625)"/>
        <path id="DejaVuSans-30" d="M 2034 4250 
Q 1547 4250 1301 3770 
Q 1056 3291 1056 2328 
Q 1056 1369 1301 889 
Q 1547 409 2034 409 
Q 2525 409 2770 889 
Q 3016 1369 3016 2328 
Q 3016 3291 2770 3770 
Q 2525 4250 2034 4250 
z
M 2034 4750 
Q 2819 4750 3233 4129 
Q 3647 3509 3647 2328 
Q 3647 1150 3233 529 
Q 2819 -91 2034 -91 
Q 1250 -91 836 529 
Q 422 1150 422 2328 
Q 422 3509 836 4129 
Q 1250 4750 2034 4750 
z
" transform="scale(0.015625)"/>
        <path id="DejaVuSans-2e" d="M 684 794 
L 1344 794 
L 1344 0 
L 684 0 
L 684 794 
z
" transform="scale(0.015625)"/>
        <path id="DejaVuSans-35" d="M 691 4666 
L 3169 4666 
L 3169 4134 
L 1269 4134 
L 1269 2991 
Q 1406 3038 1543 3061 
Q 1681 3084 1819 3084 
Q 2600 3084 3056 2656 
Q 3513 2228 3513 1497 
Q 3513 744 3044 326 
Q 2575 -91 1722 -91 
Q 1428 -91 1123 -41 
Q 819 9 494 109 
L 494 744 
Q 775 591 1075 516 
Q 1375 441 1709 441 
Q 2250 441 2565 725 
Q 2881 1009 2881 1497 
Q 2881 1984 2565 2268 
Q 2250 2553 1709 2553 
Q 1456 2553 1204 2497 
Q 953 2441 691 2322 
L 691 4666 
z
" transform="scale(0.015625)"/>
       </defs>
       <use xlink:href="#DejaVuSans-2212"/>
       <use xlink:href="#DejaVuSans-30" x="83.789062"/>
       <use xlink:href="#DejaVuSans-2e" x="147.412109"/>
       <use xlink:href="#DejaVuSans-30" x="179.199219"/>
       <use xlink:href="#DejaVuSans-35" x="242.822266"/>
      </g>
     </g>
    </g>
    <g id="ytick_2">
     <g id="line2d_6">
      <path d="M 189.250488 86.66082 
L 475.404752 86.66082 
" clip-path="url(#pa5c62e352b)" style="fill: none; stroke: #ffffff; stroke-linecap: round"/>
     </g>
     <g id="text_2">
      <!-- 0.00 -->
      <g style="fill: #262626" transform="translate(128.316894 95.437015) scale(0.231 -0.231)">
       <use xlink:href="#DejaVuSans-30"/>
       <use xlink:href="#DejaVuSans-2e" x="63.623047"/>
       <use xlink:href="#DejaVuSans-30" x="95.410156"/>
       <use xlink:href="#DejaVuSans-30" x="159.033203"/>
      </g>
     </g>
    </g>
    <g id="text_3">
     <!-- % change -->
     <g style="fill: #262626" transform="translate(99.719004 201.057364) rotate(-90) scale(0.252 -0.252)">
      <defs>
       <path id="DejaVuSans-25" d="M 4653 2053 
Q 4381 2053 4226 1822 
Q 4072 1591 4072 1178 
Q 4072 772 4226 539 
Q 4381 306 4653 306 
Q 4919 306 5073 539 
Q 5228 772 5228 1178 
Q 5228 1588 5073 1820 
Q 4919 2053 4653 2053 
z
M 4653 2450 
Q 5147 2450 5437 2106 
Q 5728 1763 5728 1178 
Q 5728 594 5436 251 
Q 5144 -91 4653 -91 
Q 4153 -91 3862 251 
Q 3572 594 3572 1178 
Q 3572 1766 3864 2108 
Q 4156 2450 4653 2450 
z
M 1428 4353 
Q 1159 4353 1004 4120 
Q 850 3888 850 3481 
Q 850 3069 1003 2837 
Q 1156 2606 1428 2606 
Q 1700 2606 1854 2837 
Q 2009 3069 2009 3481 
Q 2009 3884 1853 4118 
Q 1697 4353 1428 4353 
z
M 4250 4750 
L 4750 4750 
L 1831 -91 
L 1331 -91 
L 4250 4750 
z
M 1428 4750 
Q 1922 4750 2215 4408 
Q 2509 4066 2509 3481 
Q 2509 2891 2217 2550 
Q 1925 2209 1428 2209 
Q 931 2209 642 2551 
Q 353 2894 353 3481 
Q 353 4063 643 4406 
Q 934 4750 1428 4750 
z
" transform="scale(0.015625)"/>
       <path id="DejaVuSans-20" transform="scale(0.015625)"/>
       <path id="DejaVuSans-63" d="M 3122 3366 
L 3122 2828 
Q 2878 2963 2633 3030 
Q 2388 3097 2138 3097 
Q 1578 3097 1268 2742 
Q 959 2388 959 1747 
Q 959 1106 1268 751 
Q 1578 397 2138 397 
Q 2388 397 2633 464 
Q 2878 531 3122 666 
L 3122 134 
Q 2881 22 2623 -34 
Q 2366 -91 2075 -91 
Q 1284 -91 818 406 
Q 353 903 353 1747 
Q 353 2603 823 3093 
Q 1294 3584 2113 3584 
Q 2378 3584 2631 3529 
Q 2884 3475 3122 3366 
z
" transform="scale(0.015625)"/>
       <path id="DejaVuSans-68" d="M 3513 2113 
L 3513 0 
L 2938 0 
L 2938 2094 
Q 2938 2591 2744 2837 
Q 2550 3084 2163 3084 
Q 1697 3084 1428 2787 
Q 1159 2491 1159 1978 
L 1159 0 
L 581 0 
L 581 4863 
L 1159 4863 
L 1159 2956 
Q 1366 3272 1645 3428 
Q 1925 3584 2291 3584 
Q 2894 3584 3203 3211 
Q 3513 2838 3513 2113 
z
" transform="scale(0.015625)"/>
       <path id="DejaVuSans-61" d="M 2194 1759 
Q 1497 1759 1228 1600 
Q 959 1441 959 1056 
Q 959 750 1161 570 
Q 1363 391 1709 391 
Q 2188 391 2477 730 
Q 2766 1069 2766 1631 
L 2766 1759 
L 2194 1759 
z
M 3341 1997 
L 3341 0 
L 2766 0 
L 2766 531 
Q 2569 213 2275 61 
Q 1981 -91 1556 -91 
Q 1019 -91 701 211 
Q 384 513 384 1019 
Q 384 1609 779 1909 
Q 1175 2209 1959 2209 
L 2766 2209 
L 2766 2266 
Q 2766 2663 2505 2880 
Q 2244 3097 1772 3097 
Q 1472 3097 1187 3025 
Q 903 2953 641 2809 
L 641 3341 
Q 956 3463 1253 3523 
Q 1550 3584 1831 3584 
Q 2591 3584 2966 3190 
Q 3341 2797 3341 1997 
z
" transform="scale(0.015625)"/>
       <path id="DejaVuSans-6e" d="M 3513 2113 
L 3513 0 
L 2938 0 
L 2938 2094 
Q 2938 2591 2744 2837 
Q 2550 3084 2163 3084 
Q 1697 3084 1428 2787 
Q 1159 2491 1159 1978 
L 1159 0 
L 581 0 
L 581 3500 
L 1159 3500 
L 1159 2956 
Q 1366 3272 1645 3428 
Q 1925 3584 2291 3584 
Q 2894 3584 3203 3211 
Q 3513 2838 3513 2113 
z
" transform="scale(0.015625)"/>
       <path id="DejaVuSans-67" d="M 2906 1791 
Q 2906 2416 2648 2759 
Q 2391 3103 1925 3103 
Q 1463 3103 1205 2759 
Q 947 2416 947 1791 
Q 947 1169 1205 825 
Q 1463 481 1925 481 
Q 2391 481 2648 825 
Q 2906 1169 2906 1791 
z
M 3481 434 
Q 3481 -459 3084 -895 
Q 2688 -1331 1869 -1331 
Q 1566 -1331 1297 -1286 
Q 1028 -1241 775 -1147 
L 775 -588 
Q 1028 -725 1275 -790 
Q 1522 -856 1778 -856 
Q 2344 -856 2625 -561 
Q 2906 -266 2906 331 
L 2906 616 
Q 2728 306 2450 153 
Q 2172 0 1784 0 
Q 1141 0 747 490 
Q 353 981 353 1791 
Q 353 2603 747 3093 
Q 1141 3584 1784 3584 
Q 2172 3584 2450 3431 
Q 2728 3278 2906 2969 
L 2906 3500 
L 3481 3500 
L 3481 434 
z
" transform="scale(0.015625)"/>
       <path id="DejaVuSans-65" d="M 3597 1894 
L 3597 1613 
L 953 1613 
Q 991 1019 1311 708 
Q 1631 397 2203 397 
Q 2534 397 2845 478 
Q 3156 559 3463 722 
L 3463 178 
Q 3153 47 2828 -22 
Q 2503 -91 2169 -91 
Q 1331 -91 842 396 
Q 353 884 353 1716 
Q 353 2575 817 3079 
Q 1281 3584 2069 3584 
Q 2775 3584 3186 3129 
Q 3597 2675 3597 1894 
z
M 3022 2063 
Q 3016 2534 2758 2815 
Q 2500 3097 2075 3097 
Q 1594 3097 1305 2825 
Q 1016 2553 972 2059 
L 3022 2063 
z
" transform="scale(0.015625)"/>
      </defs>
      <use xlink:href="#DejaVuSans-25"/>
      <use xlink:href="#DejaVuSans-20" x="95.019531"/>
      <use xlink:href="#DejaVuSans-63" x="126.806641"/>
      <use xlink:href="#DejaVuSans-68" x="181.787109"/>
      <use xlink:href="#DejaVuSans-61" x="245.166016"/>
      <use xlink:href="#DejaVuSans-6e" x="306.445312"/>
      <use xlink:href="#DejaVuSans-67" x="369.824219"/>
      <use xlink:href="#DejaVuSans-65" x="433.300781"/>
     </g>
    </g>
   </g>
   <g id="PolyCollection_1"/>
   <g id="PolyCollection_2"/>
   <g id="PolyCollection_3"/>
   <g id="PolyCollection_4"/>
   <g id="PolyCollection_5"/>
   <g id="PolyCollection_6"/>
   <g id="line2d_7">
    <path d="M 202.2575 86.66082 
L 205.469108 101.471379 
L 209.394407 119.145956 
L 211.892324 129.257158 
L 214.390241 138.342797 
L 216.531313 145.322733 
L 218.672385 151.564129 
L 220.813457 157.073372 
L 222.597683 161.110446 
L 224.38191 164.649377 
L 226.166137 167.693796 
L 227.950363 170.247212 
L 229.377745 171.940814 
L 230.805126 173.332403 
L 232.232507 174.424193 
L 233.659888 175.221152 
L 235.08727 175.725469 
L 236.514651 175.943922 
L 237.942032 175.926318 
L 239.369414 175.707397 
L 266.489658 169.312759 
L 272.912874 168.168254 
L 280.763471 167.008949 
L 290.398295 165.818081 
L 302.887881 164.520724 
L 317.161694 163.24914 
L 336.431341 161.816921 
L 378.182244 158.97574 
L 462.39774 153.343714 
L 462.39774 153.343714 
" clip-path="url(#pa5c62e352b)" style="fill: none; stroke: #4c72b0; stroke-opacity: 0.9; stroke-width: 3; stroke-linecap: round"/>
   </g>
   <g id="line2d_8">
    <path d="M 202.2575 86.66082 
L 204.398572 96.350242 
L 209.394407 118.766709 
L 211.892324 128.832435 
L 214.390241 137.900855 
L 216.531313 144.887578 
L 218.672385 151.154639 
L 220.813457 156.707446 
L 222.597683 160.792953 
L 224.38191 164.389119 
L 226.166137 167.498984 
L 227.950363 170.125606 
L 229.377745 171.881035 
L 230.805126 173.331519 
L 232.232507 174.479844 
L 233.659888 175.334765 
L 235.08727 175.903347 
L 236.514651 176.191011 
L 237.942032 176.231691 
L 239.369414 176.063522 
L 256.854834 172.331386 
L 270.414957 169.505093 
L 277.908708 168.236832 
L 286.472996 167.005874 
L 296.82151 165.807556 
L 314.306931 164.010068 
L 333.576578 162.234503 
L 359.983132 160.066339 
L 462.39774 152.018803 
L 462.39774 152.018803 
" clip-path="url(#pa5c62e352b)" style="fill: none; stroke: #dd8452; stroke-opacity: 0.9; stroke-width: 3; stroke-linecap: round"/>
   </g>
   <g id="line2d_9">
    <path d="M 202.2575 86.66082 
L 204.041727 95.444953 
L 209.037561 119.937085 
L 211.535478 130.973624 
L 214.033396 140.898076 
L 216.174468 148.52932 
L 218.31554 155.361534 
L 220.456612 161.402173 
L 222.240838 165.836305 
L 224.025065 169.72936 
L 225.809291 173.085728 
L 227.593518 175.910078 
L 229.020899 177.790029 
L 230.448281 179.335894 
L 231.875662 180.550484 
L 233.303043 181.437633 
L 234.730424 182.005991 
L 236.157806 182.269953 
L 237.585187 182.27269 
L 239.012568 182.036835 
L 241.867331 181.181259 
L 255.427453 177.14294 
L 261.493823 175.596175 
L 267.560194 174.280234 
L 273.98341 173.109157 
L 281.120316 172.041045 
L 288.614068 171.162201 
L 298.605737 170.236336 
L 311.809014 169.254809 
L 332.862888 167.937596 
L 379.609625 165.293038 
L 462.39774 160.684641 
L 462.39774 160.684641 
" clip-path="url(#pa5c62e352b)" style="fill: none; stroke: #55a868; stroke-opacity: 0.9; stroke-width: 3; stroke-linecap: round"/>
   </g>
   <g id="line2d_10">
    <path d="M 202.2575 86.66082 
L 204.041727 95.162842 
L 209.037561 118.877868 
L 211.535478 129.568704 
L 214.033396 139.18416 
L 216.174468 146.579051 
L 218.31554 153.199867 
L 220.456612 159.053418 
L 222.240838 163.350066 
L 224.025065 167.122504 
L 225.809291 170.374768 
L 227.593518 173.110905 
L 229.020899 174.931821 
L 230.448281 176.429323 
L 231.875662 177.606839 
L 233.303043 178.468509 
L 234.730424 179.021699 
L 236.157806 179.281289 
L 237.585187 179.292534 
L 239.012568 179.073858 
L 242.224176 178.167692 
L 254.713762 174.685789 
L 261.136978 173.163613 
L 267.917039 171.798611 
L 275.410791 170.520073 
L 283.261388 169.40659 
L 290.75514 168.578583 
L 301.4605 167.634247 
L 316.448003 166.556229 
L 342.854557 164.916296 
L 434.563804 159.564697 
L 462.39774 157.935808 
L 462.39774 157.935808 
" clip-path="url(#pa5c62e352b)" style="fill: none; stroke: #c44e52; stroke-opacity: 0.9; stroke-width: 3; stroke-linecap: round"/>
   </g>
   <g id="line2d_11">
    <path d="M 202.2575 86.66082 
L 204.755417 98.655938 
L 209.394407 120.488658 
L 211.892324 131.005092 
L 214.033396 139.170283 
L 216.174468 146.559631 
L 218.31554 153.180207 
L 220.456612 159.038867 
L 222.240838 163.343861 
L 224.025065 167.128232 
L 225.809291 170.395797 
L 227.593518 173.150221 
L 229.020899 174.986766 
L 230.448281 176.499034 
L 231.875662 177.689341 
L 233.303043 178.559889 
L 234.730424 179.115414 
L 236.157806 179.364308 
L 237.585187 179.343657 
L 239.012568 179.087494 
L 241.867331 178.194127 
L 255.427453 173.96749 
L 265.775967 170.977303 
L 276.124482 168.222372 
L 281.834007 166.894101 
L 287.900377 165.717946 
L 295.750974 164.432247 
L 305.385798 163.082969 
L 315.734312 161.87921 
L 326.796517 160.819706 
L 343.925093 159.431308 
L 377.111708 157.002685 
L 462.39774 150.953013 
L 462.39774 150.953013 
" clip-path="url(#pa5c62e352b)" style="fill: none; stroke: #8172b3; stroke-opacity: 0.9; stroke-width: 3; stroke-linecap: round"/>
   </g>
   <g id="line2d_12">
    <path d="M 202.2575 86.66082 
L 205.469108 101.650077 
L 209.394407 119.525604 
L 211.892324 129.750433 
L 214.390241 138.945812 
L 216.531313 146.016578 
L 218.672385 152.345788 
L 220.813457 157.940125 
L 222.597683 162.045374 
L 224.38191 165.648318 
L 226.166137 168.752421 
L 227.950363 171.36124 
L 229.377745 173.094567 
L 230.805126 174.515496 
L 232.232507 175.625546 
L 233.659888 176.426461 
L 235.08727 176.923363 
L 236.514651 177.125214 
L 237.942032 177.06633 
L 239.369414 176.787205 
L 258.639061 171.452545 
L 269.344421 168.76644 
L 277.908708 166.815508 
L 284.688769 165.51496 
L 292.896212 164.175654 
L 303.244726 162.726485 
L 314.663776 161.335102 
L 326.796517 160.132663 
L 344.995629 158.577538 
L 379.96647 155.848332 
L 462.39774 149.6088 
L 462.39774 149.6088 
" clip-path="url(#pa5c62e352b)" style="fill: none; stroke: #937860; stroke-opacity: 0.9; stroke-width: 3; stroke-linecap: round"/>
   </g>
   <g id="patch_3">
    <path d="M 189.250488 195.962041 
L 189.250488 81.456 
" style="fill: none; stroke: #ffffff; stroke-width: 1.25; stroke-linejoin: miter; stroke-linecap: square"/>
   </g>
   <g id="patch_4">
    <path d="M 189.250488 195.962041 
L 475.404752 195.962041 
" style="fill: none; stroke: #ffffff; stroke-width: 1.25; stroke-linejoin: miter; stroke-linecap: square"/>
   </g>
   <g id="text_4">
    <!-- 0.8~90 -->
    <g style="fill: #262626" transform="translate(285.697776 75.456) scale(0.252 -0.252)">
     <defs>
      <path id="DejaVuSans-38" d="M 2034 2216 
Q 1584 2216 1326 1975 
Q 1069 1734 1069 1313 
Q 1069 891 1326 650 
Q 1584 409 2034 409 
Q 2484 409 2743 651 
Q 3003 894 3003 1313 
Q 3003 1734 2745 1975 
Q 2488 2216 2034 2216 
z
M 1403 2484 
Q 997 2584 770 2862 
Q 544 3141 544 3541 
Q 544 4100 942 4425 
Q 1341 4750 2034 4750 
Q 2731 4750 3128 4425 
Q 3525 4100 3525 3541 
Q 3525 3141 3298 2862 
Q 3072 2584 2669 2484 
Q 3125 2378 3379 2068 
Q 3634 1759 3634 1313 
Q 3634 634 3220 271 
Q 2806 -91 2034 -91 
Q 1263 -91 848 271 
Q 434 634 434 1313 
Q 434 1759 690 2068 
Q 947 2378 1403 2484 
z
M 1172 3481 
Q 1172 3119 1398 2916 
Q 1625 2713 2034 2713 
Q 2441 2713 2670 2916 
Q 2900 3119 2900 3481 
Q 2900 3844 2670 4047 
Q 2441 4250 2034 4250 
Q 1625 4250 1398 4047 
Q 1172 3844 1172 3481 
z
" transform="scale(0.015625)"/>
      <path id="DejaVuSans-7e" d="M 4684 2553 
L 4684 1997 
Q 4356 1750 4076 1644 
Q 3797 1538 3494 1538 
Q 3150 1538 2694 1722 
Q 2659 1734 2644 1741 
Q 2622 1750 2575 1766 
Q 2091 1959 1797 1959 
Q 1522 1959 1253 1839 
Q 984 1719 678 1459 
L 678 2016 
Q 1006 2263 1286 2370 
Q 1566 2478 1869 2478 
Q 2213 2478 2672 2291 
Q 2703 2278 2719 2272 
Q 2744 2263 2788 2247 
Q 3272 2053 3566 2053 
Q 3834 2053 4098 2172 
Q 4363 2291 4684 2553 
z
" transform="scale(0.015625)"/>
      <path id="DejaVuSans-39" d="M 703 97 
L 703 672 
Q 941 559 1184 500 
Q 1428 441 1663 441 
Q 2288 441 2617 861 
Q 2947 1281 2994 2138 
Q 2813 1869 2534 1725 
Q 2256 1581 1919 1581 
Q 1219 1581 811 2004 
Q 403 2428 403 3163 
Q 403 3881 828 4315 
Q 1253 4750 1959 4750 
Q 2769 4750 3195 4129 
Q 3622 3509 3622 2328 
Q 3622 1225 3098 567 
Q 2575 -91 1691 -91 
Q 1453 -91 1209 -44 
Q 966 3 703 97 
z
M 1959 2075 
Q 2384 2075 2632 2365 
Q 2881 2656 2881 3163 
Q 2881 3666 2632 3958 
Q 2384 4250 1959 4250 
Q 1534 4250 1286 3958 
Q 1038 3666 1038 3163 
Q 1038 2656 1286 2365 
Q 1534 2075 1959 2075 
z
" transform="scale(0.015625)"/>
     </defs>
     <use xlink:href="#DejaVuSans-30"/>
     <use xlink:href="#DejaVuSans-2e" x="63.623047"/>
     <use xlink:href="#DejaVuSans-38" x="95.410156"/>
     <use xlink:href="#DejaVuSans-7e" x="159.033203"/>
     <use xlink:href="#DejaVuSans-39" x="242.822266"/>
     <use xlink:href="#DejaVuSans-30" x="306.445312"/>
    </g>
   </g>
  </g>
  <g id="axes_2">
   <g id="patch_5">
    <path d="M 501.852899 195.962041 
L 788.007162 195.962041 
L 788.007162 81.456 
L 501.852899 81.456 
z
" style="fill: #eaeaf2"/>
   </g>
   <g id="matplotlib.axis_3">
    <g id="xtick_5">
     <g id="line2d_13">
      <path d="M 514.859911 195.962041 
L 514.859911 81.456 
" clip-path="url(#p66ea0347e9)" style="fill: none; stroke: #ffffff; stroke-linecap: round"/>
     </g>
    </g>
    <g id="xtick_6">
     <g id="line2d_14">
      <path d="M 604.071241 195.962041 
L 604.071241 81.456 
" clip-path="url(#p66ea0347e9)" style="fill: none; stroke: #ffffff; stroke-linecap: round"/>
     </g>
    </g>
    <g id="xtick_7">
     <g id="line2d_15">
      <path d="M 693.282572 195.962041 
L 693.282572 81.456 
" clip-path="url(#p66ea0347e9)" style="fill: none; stroke: #ffffff; stroke-linecap: round"/>
     </g>
    </g>
    <g id="xtick_8">
     <g id="line2d_16">
      <path d="M 782.493902 195.962041 
L 782.493902 81.456 
" clip-path="url(#p66ea0347e9)" style="fill: none; stroke: #ffffff; stroke-linecap: round"/>
     </g>
    </g>
   </g>
   <g id="matplotlib.axis_4">
    <g id="ytick_3">
     <g id="line2d_17">
      <path d="M 501.852899 192.543754 
L 788.007162 192.543754 
" clip-path="url(#p66ea0347e9)" style="fill: none; stroke: #ffffff; stroke-linecap: round"/>
     </g>
    </g>
    <g id="ytick_4">
     <g id="line2d_18">
      <path d="M 501.852899 86.66082 
L 788.007162 86.66082 
" clip-path="url(#p66ea0347e9)" style="fill: none; stroke: #ffffff; stroke-linecap: round"/>
     </g>
    </g>
   </g>
   <g id="PolyCollection_7"/>
   <g id="PolyCollection_8"/>
   <g id="PolyCollection_9"/>
   <g id="PolyCollection_10"/>
   <g id="PolyCollection_11"/>
   <g id="PolyCollection_12"/>
   <g id="line2d_19">
    <path d="M 514.859911 86.66082 
L 517.714674 99.881439 
L 522.353663 121.089471 
L 524.85158 131.395998 
L 527.349497 140.763952 
L 529.847415 149.195929 
L 531.988487 155.680161 
L 534.129558 161.479898 
L 536.27063 166.596578 
L 538.054857 170.33974 
L 539.839084 173.610408 
L 541.62331 176.409422 
L 543.407537 178.737624 
L 544.834918 180.261783 
L 546.262299 181.485607 
L 547.689681 182.409514 
L 549.117062 183.03396 
L 550.544443 183.359676 
L 551.971825 183.399131 
L 595.150108 179.94467 
L 619.058745 178.308983 
L 629.764105 177.752429 
L 645.465299 177.183467 
L 668.660245 176.575937 
L 711.124838 175.715784 
L 775.000151 174.591604 
L 775.000151 174.591604 
" clip-path="url(#p66ea0347e9)" style="fill: none; stroke: #4c72b0; stroke-opacity: 0.9; stroke-width: 3; stroke-linecap: round"/>
   </g>
   <g id="line2d_20">
    <path d="M 514.859911 86.66082 
L 517.000983 96.375058 
L 522.353663 120.634999 
L 524.85158 130.849124 
L 527.349497 140.140381 
L 529.847415 148.510917 
L 531.988487 154.954365 
L 534.129558 160.72402 
L 536.27063 165.821092 
L 538.054857 169.555757 
L 539.839084 172.824925 
L 541.62331 175.629346 
L 543.407537 177.96979 
L 544.834918 179.508574 
L 546.262299 180.751241 
L 547.689681 181.698103 
L 549.117062 182.349486 
L 550.544443 182.705795 
L 551.971825 182.774033 
L 567.316173 181.666068 
L 593.009036 179.898684 
L 627.266187 177.750478 
L 640.112619 177.187968 
L 662.237029 176.524571 
L 701.133169 175.605524 
L 775.000151 174.063037 
L 775.000151 174.063037 
" clip-path="url(#p66ea0347e9)" style="fill: none; stroke: #dd8452; stroke-opacity: 0.9; stroke-width: 3; stroke-linecap: round"/>
   </g>
   <g id="line2d_21">
    <path d="M 514.859911 86.66082 
L 516.644138 95.466151 
L 522.353663 123.678668 
L 524.85158 134.770971 
L 527.349497 144.849837 
L 529.847415 153.91836 
L 531.988487 160.889374 
L 534.129558 167.122322 
L 536.27063 172.619259 
L 538.054857 176.638919 
L 539.839084 180.149367 
L 541.62331 183.151543 
L 543.050691 185.187957 
L 544.478073 186.900106 
L 545.905454 188.288564 
L 547.332835 189.35382 
L 548.760217 190.096579 
L 549.830753 190.442762 
L 550.901289 190.609223 
L 552.32867 190.578724 
L 573.739389 188.56681 
L 600.145943 186.138333 
L 611.564993 185.29665 
L 622.984044 184.678191 
L 636.901011 184.158488 
L 655.100122 183.708691 
L 687.216201 183.165868 
L 775.000151 181.951029 
L 775.000151 181.951029 
" clip-path="url(#p66ea0347e9)" style="fill: none; stroke: #55a868; stroke-opacity: 0.9; stroke-width: 3; stroke-linecap: round"/>
   </g>
   <g id="line2d_22">
    <path d="M 514.859911 86.66082 
L 516.644138 95.183205 
L 522.353663 122.499274 
L 524.85158 133.243023 
L 527.349497 143.006734 
L 529.847415 151.793058 
L 531.988487 158.548205 
L 534.129558 164.588665 
L 536.27063 169.915969 
L 538.054857 173.811724 
L 539.839084 177.21417 
L 541.62331 180.124178 
L 543.407537 182.542686 
L 544.834918 184.124208 
L 546.262299 185.392177 
L 547.689681 186.347148 
L 549.117062 186.989906 
L 550.544443 187.322185 
L 551.971825 187.360558 
L 570.527781 185.759778 
L 601.573324 183.089456 
L 613.706065 182.292903 
L 626.552497 181.676975 
L 644.037917 181.079105 
L 663.66441 180.64758 
L 704.701622 179.993429 
L 775.000151 178.986722 
L 775.000151 178.986722 
" clip-path="url(#p66ea0347e9)" style="fill: none; stroke: #c44e52; stroke-opacity: 0.9; stroke-width: 3; stroke-linecap: round"/>
   </g>
   <g id="line2d_23">
    <path d="M 514.859911 86.66082 
L 517.357828 98.700953 
L 522.353663 122.509952 
L 524.85158 133.226836 
L 527.349497 142.966999 
L 529.847415 151.733022 
L 531.988487 158.473317 
L 534.129558 164.501287 
L 536.27063 169.818428 
L 538.054857 173.707455 
L 539.839084 177.104736 
L 541.62331 180.011119 
L 543.407537 182.427422 
L 544.834918 184.008133 
L 546.262299 185.276072 
L 547.689681 186.231602 
L 549.117062 186.875082 
L 550.187598 187.153142 
L 551.258134 187.256204 
L 552.685515 187.160902 
L 608.353385 181.587587 
L 627.979878 180.012251 
L 647.963216 178.616663 
L 660.809648 177.952094 
L 679.72245 177.215824 
L 705.058467 176.484265 
L 745.381989 175.539775 
L 775.000151 174.9321 
L 775.000151 174.9321 
" clip-path="url(#p66ea0347e9)" style="fill: none; stroke: #8172b3; stroke-opacity: 0.9; stroke-width: 3; stroke-linecap: round"/>
   </g>
   <g id="line2d_24">
    <path d="M 514.859911 86.66082 
L 517.714674 100.040661 
L 522.353663 121.471141 
L 524.85158 131.876863 
L 527.349497 141.335864 
L 529.847415 149.850601 
L 531.988487 156.399211 
L 534.129558 162.257323 
L 536.27063 167.426382 
L 538.054857 171.208604 
L 539.839084 174.514118 
L 541.62331 177.343725 
L 543.407537 179.698211 
L 544.834918 181.24024 
L 546.262299 182.479075 
L 547.689681 183.415068 
L 549.117062 184.048578 
L 550.544443 184.379936 
L 551.971825 184.414814 
L 605.141777 179.570572 
L 625.481961 178.129554 
L 644.037917 177.021855 
L 659.739112 176.298587 
L 682.220367 175.50344 
L 710.767993 174.699758 
L 762.86741 173.499172 
L 775.000151 173.239333 
L 775.000151 173.239333 
" clip-path="url(#p66ea0347e9)" style="fill: none; stroke: #937860; stroke-opacity: 0.9; stroke-width: 3; stroke-linecap: round"/>
   </g>
   <g id="patch_6">
    <path d="M 501.852899 195.962041 
L 501.852899 81.456 
" style="fill: none; stroke: #ffffff; stroke-width: 1.25; stroke-linejoin: miter; stroke-linecap: square"/>
   </g>
   <g id="patch_7">
    <path d="M 501.852899 195.962041 
L 788.007162 195.962041 
" style="fill: none; stroke: #ffffff; stroke-width: 1.25; stroke-linejoin: miter; stroke-linecap: square"/>
   </g>
   <g id="text_5">
    <!-- 0.8~365 -->
    <g style="fill: #262626" transform="translate(590.283437 75.456) scale(0.252 -0.252)">
     <defs>
      <path id="DejaVuSans-33" d="M 2597 2516 
Q 3050 2419 3304 2112 
Q 3559 1806 3559 1356 
Q 3559 666 3084 287 
Q 2609 -91 1734 -91 
Q 1441 -91 1130 -33 
Q 819 25 488 141 
L 488 750 
Q 750 597 1062 519 
Q 1375 441 1716 441 
Q 2309 441 2620 675 
Q 2931 909 2931 1356 
Q 2931 1769 2642 2001 
Q 2353 2234 1838 2234 
L 1294 2234 
L 1294 2753 
L 1863 2753 
Q 2328 2753 2575 2939 
Q 2822 3125 2822 3475 
Q 2822 3834 2567 4026 
Q 2313 4219 1838 4219 
Q 1578 4219 1281 4162 
Q 984 4106 628 3988 
L 628 4550 
Q 988 4650 1302 4700 
Q 1616 4750 1894 4750 
Q 2613 4750 3031 4423 
Q 3450 4097 3450 3541 
Q 3450 3153 3228 2886 
Q 3006 2619 2597 2516 
z
" transform="scale(0.015625)"/>
      <path id="DejaVuSans-36" d="M 2113 2584 
Q 1688 2584 1439 2293 
Q 1191 2003 1191 1497 
Q 1191 994 1439 701 
Q 1688 409 2113 409 
Q 2538 409 2786 701 
Q 3034 994 3034 1497 
Q 3034 2003 2786 2293 
Q 2538 2584 2113 2584 
z
M 3366 4563 
L 3366 3988 
Q 3128 4100 2886 4159 
Q 2644 4219 2406 4219 
Q 1781 4219 1451 3797 
Q 1122 3375 1075 2522 
Q 1259 2794 1537 2939 
Q 1816 3084 2150 3084 
Q 2853 3084 3261 2657 
Q 3669 2231 3669 1497 
Q 3669 778 3244 343 
Q 2819 -91 2113 -91 
Q 1303 -91 875 529 
Q 447 1150 447 2328 
Q 447 3434 972 4092 
Q 1497 4750 2381 4750 
Q 2619 4750 2861 4703 
Q 3103 4656 3366 4563 
z
" transform="scale(0.015625)"/>
     </defs>
     <use xlink:href="#DejaVuSans-30"/>
     <use xlink:href="#DejaVuSans-2e" x="63.623047"/>
     <use xlink:href="#DejaVuSans-38" x="95.410156"/>
     <use xlink:href="#DejaVuSans-7e" x="159.033203"/>
     <use xlink:href="#DejaVuSans-33" x="242.822266"/>
     <use xlink:href="#DejaVuSans-36" x="306.445312"/>
     <use xlink:href="#DejaVuSans-35" x="370.068359"/>
    </g>
   </g>
  </g>
  <g id="axes_3">
   <g id="patch_8">
    <path d="M 814.45531 195.962041 
L 1100.609573 195.962041 
L 1100.609573 81.456 
L 814.45531 81.456 
z
" style="fill: #eaeaf2"/>
   </g>
   <g id="matplotlib.axis_5">
    <g id="xtick_9">
     <g id="line2d_25">
      <path d="M 827.462322 195.962041 
L 827.462322 81.456 
" clip-path="url(#pd4271a3ad0)" style="fill: none; stroke: #ffffff; stroke-linecap: round"/>
     </g>
    </g>
    <g id="xtick_10">
     <g id="line2d_26">
      <path d="M 916.673652 195.962041 
L 916.673652 81.456 
" clip-path="url(#pd4271a3ad0)" style="fill: none; stroke: #ffffff; stroke-linecap: round"/>
     </g>
    </g>
    <g id="xtick_11">
     <g id="line2d_27">
      <path d="M 1005.884983 195.962041 
L 1005.884983 81.456 
" clip-path="url(#pd4271a3ad0)" style="fill: none; stroke: #ffffff; stroke-linecap: round"/>
     </g>
    </g>
    <g id="xtick_12">
     <g id="line2d_28">
      <path d="M 1095.096313 195.962041 
L 1095.096313 81.456 
" clip-path="url(#pd4271a3ad0)" style="fill: none; stroke: #ffffff; stroke-linecap: round"/>
     </g>
    </g>
   </g>
   <g id="matplotlib.axis_6">
    <g id="ytick_5">
     <g id="line2d_29">
      <path d="M 814.45531 192.543754 
L 1100.609573 192.543754 
" clip-path="url(#pd4271a3ad0)" style="fill: none; stroke: #ffffff; stroke-linecap: round"/>
     </g>
    </g>
    <g id="ytick_6">
     <g id="line2d_30">
      <path d="M 814.45531 86.66082 
L 1100.609573 86.66082 
" clip-path="url(#pd4271a3ad0)" style="fill: none; stroke: #ffffff; stroke-linecap: round"/>
     </g>
    </g>
   </g>
   <g id="PolyCollection_13"/>
   <g id="PolyCollection_14"/>
   <g id="PolyCollection_15"/>
   <g id="PolyCollection_16"/>
   <g id="PolyCollection_17"/>
   <g id="PolyCollection_18"/>
   <g id="line2d_31">
    <path d="M 827.462322 86.66082 
L 830.67393 101.471379 
L 834.599228 119.145956 
L 837.097146 129.257158 
L 839.595063 138.342797 
L 841.736135 145.322733 
L 843.877207 151.564129 
L 846.018279 157.073372 
L 847.802505 161.110446 
L 849.586732 164.649377 
L 851.370959 167.693796 
L 853.155185 170.247212 
L 854.582566 171.940814 
L 856.009948 173.332403 
L 857.437329 174.424193 
L 858.86471 175.221152 
L 860.292092 175.725469 
L 861.719473 175.943922 
L 863.146854 175.926318 
L 864.574235 175.707397 
L 891.69448 169.312759 
L 898.117696 168.168254 
L 905.968293 167.008949 
L 915.603116 165.818081 
L 928.092703 164.520724 
L 942.366516 163.24914 
L 961.636163 161.816921 
L 1003.387066 158.97574 
L 1087.602561 153.343714 
L 1087.602561 153.343714 
" clip-path="url(#pd4271a3ad0)" style="fill: none; stroke: #4c72b0; stroke-opacity: 0.9; stroke-width: 3; stroke-linecap: round"/>
   </g>
   <g id="line2d_32">
    <path d="M 827.462322 86.66082 
L 829.603394 96.350242 
L 834.599228 118.766709 
L 837.097146 128.832435 
L 839.595063 137.900855 
L 841.736135 144.887578 
L 843.877207 151.154639 
L 846.018279 156.707446 
L 847.802505 160.792953 
L 849.586732 164.389119 
L 851.370959 167.498984 
L 853.155185 170.125606 
L 854.582566 171.881035 
L 856.009948 173.331519 
L 857.437329 174.479844 
L 858.86471 175.334765 
L 860.292092 175.903347 
L 861.719473 176.191011 
L 863.146854 176.231691 
L 864.574235 176.063522 
L 882.059656 172.331386 
L 895.619778 169.505093 
L 903.11353 168.236832 
L 911.677818 167.005874 
L 922.026332 165.807556 
L 939.511753 164.010068 
L 958.7814 162.234503 
L 985.187954 160.066339 
L 1087.602561 152.018803 
L 1087.602561 152.018803 
" clip-path="url(#pd4271a3ad0)" style="fill: none; stroke: #dd8452; stroke-opacity: 0.9; stroke-width: 3; stroke-linecap: round"/>
   </g>
   <g id="line2d_33">
    <path d="M 827.462322 86.66082 
L 829.246549 95.444953 
L 834.242383 119.937085 
L 836.7403 130.973624 
L 839.238218 140.898076 
L 841.37929 148.52932 
L 843.520362 155.361534 
L 845.661433 161.402173 
L 847.44566 165.836305 
L 849.229887 169.72936 
L 851.014113 173.085728 
L 852.79834 175.910078 
L 854.225721 177.790029 
L 855.653102 179.335894 
L 857.080484 180.550484 
L 858.507865 181.437633 
L 859.935246 182.005991 
L 861.362628 182.269953 
L 862.790009 182.27269 
L 864.21739 182.036835 
L 867.072153 181.181259 
L 880.632275 177.14294 
L 886.698645 175.596175 
L 892.765016 174.280234 
L 899.188232 173.109157 
L 906.325138 172.041045 
L 913.81889 171.162201 
L 923.810559 170.236336 
L 937.013836 169.254809 
L 958.06771 167.937596 
L 1004.814447 165.293038 
L 1087.602561 160.684641 
L 1087.602561 160.684641 
" clip-path="url(#pd4271a3ad0)" style="fill: none; stroke: #55a868; stroke-opacity: 0.9; stroke-width: 3; stroke-linecap: round"/>
   </g>
   <g id="line2d_34">
    <path d="M 827.462322 86.66082 
L 829.246549 95.162842 
L 834.242383 118.877868 
L 836.7403 129.568704 
L 839.238218 139.18416 
L 841.37929 146.579051 
L 843.520362 153.199867 
L 845.661433 159.053418 
L 847.44566 163.350066 
L 849.229887 167.122504 
L 851.014113 170.374768 
L 852.79834 173.110905 
L 854.225721 174.931821 
L 855.653102 176.429323 
L 857.080484 177.606839 
L 858.507865 178.468509 
L 859.935246 179.021699 
L 861.362628 179.281289 
L 862.790009 179.292534 
L 864.21739 179.073858 
L 867.428998 178.167692 
L 879.918584 174.685789 
L 886.3418 173.163613 
L 893.121861 171.798611 
L 900.615613 170.520073 
L 908.46621 169.40659 
L 915.959962 168.578583 
L 926.665321 167.634247 
L 941.652825 166.556229 
L 968.059379 164.916296 
L 1059.768626 159.564697 
L 1087.602561 157.935808 
L 1087.602561 157.935808 
" clip-path="url(#pd4271a3ad0)" style="fill: none; stroke: #c44e52; stroke-opacity: 0.9; stroke-width: 3; stroke-linecap: round"/>
   </g>
   <g id="line2d_35">
    <path d="M 827.462322 86.66082 
L 829.960239 98.655938 
L 834.599228 120.488658 
L 837.097146 131.005092 
L 839.238218 139.170283 
L 841.37929 146.559631 
L 843.520362 153.180207 
L 845.661433 159.038867 
L 847.44566 163.343861 
L 849.229887 167.128232 
L 851.014113 170.395797 
L 852.79834 173.150221 
L 854.225721 174.986766 
L 855.653102 176.499034 
L 857.080484 177.689341 
L 858.507865 178.559889 
L 859.935246 179.115414 
L 861.362628 179.364308 
L 862.790009 179.343657 
L 864.21739 179.087494 
L 867.072153 178.194127 
L 880.632275 173.96749 
L 890.980789 170.977303 
L 901.329304 168.222372 
L 907.038829 166.894101 
L 913.105199 165.717946 
L 920.955796 164.432247 
L 930.59062 163.082969 
L 940.939134 161.87921 
L 952.001339 160.819706 
L 969.129915 159.431308 
L 1002.31653 157.002685 
L 1087.602561 150.953013 
L 1087.602561 150.953013 
" clip-path="url(#pd4271a3ad0)" style="fill: none; stroke: #8172b3; stroke-opacity: 0.9; stroke-width: 3; stroke-linecap: round"/>
   </g>
   <g id="line2d_36">
    <path d="M 827.462322 86.66082 
L 830.67393 101.650077 
L 834.599228 119.525604 
L 837.097146 129.750433 
L 839.595063 138.945812 
L 841.736135 146.016578 
L 843.877207 152.345788 
L 846.018279 157.940125 
L 847.802505 162.045374 
L 849.586732 165.648318 
L 851.370959 168.752421 
L 853.155185 171.36124 
L 854.582566 173.094567 
L 856.009948 174.515496 
L 857.437329 175.625546 
L 858.86471 176.426461 
L 860.292092 176.923363 
L 861.719473 177.125214 
L 863.146854 177.06633 
L 864.574235 176.787205 
L 883.843883 171.452545 
L 894.549242 168.76644 
L 903.11353 166.815508 
L 909.893591 165.51496 
L 918.101034 164.175654 
L 928.449548 162.726485 
L 939.868598 161.335102 
L 952.001339 160.132663 
L 970.200451 158.577538 
L 1005.171292 155.848332 
L 1087.602561 149.6088 
L 1087.602561 149.6088 
" clip-path="url(#pd4271a3ad0)" style="fill: none; stroke: #937860; stroke-opacity: 0.9; stroke-width: 3; stroke-linecap: round"/>
   </g>
   <g id="patch_9">
    <path d="M 814.45531 195.962041 
L 814.45531 81.456 
" style="fill: none; stroke: #ffffff; stroke-width: 1.25; stroke-linejoin: miter; stroke-linecap: square"/>
   </g>
   <g id="patch_10">
    <path d="M 814.45531 195.962041 
L 1100.609573 195.962041 
" style="fill: none; stroke: #ffffff; stroke-width: 1.25; stroke-linejoin: miter; stroke-linecap: square"/>
   </g>
   <g id="text_6">
    <!-- 0.85~90 -->
    <g style="fill: #262626" transform="translate(902.885848 75.456) scale(0.252 -0.252)">
     <use xlink:href="#DejaVuSans-30"/>
     <use xlink:href="#DejaVuSans-2e" x="63.623047"/>
     <use xlink:href="#DejaVuSans-38" x="95.410156"/>
     <use xlink:href="#DejaVuSans-35" x="159.033203"/>
     <use xlink:href="#DejaVuSans-7e" x="222.65625"/>
     <use xlink:href="#DejaVuSans-39" x="306.445312"/>
     <use xlink:href="#DejaVuSans-30" x="370.068359"/>
    </g>
   </g>
  </g>
  <g id="axes_4">
   <g id="patch_11">
    <path d="M 189.250488 373.284 
L 475.404752 373.284 
L 475.404752 258.777959 
L 189.250488 258.777959 
z
" style="fill: #eaeaf2"/>
   </g>
   <g id="matplotlib.axis_7">
    <g id="xtick_13">
     <g id="line2d_37">
      <path d="M 202.2575 373.284 
L 202.2575 258.777959 
" clip-path="url(#p3bc3f3232b)" style="fill: none; stroke: #ffffff; stroke-linecap: round"/>
     </g>
     <g id="text_7">
      <!-- 0 -->
      <g style="fill: #262626" transform="translate(194.908813 400.336391) scale(0.231 -0.231)">
       <use xlink:href="#DejaVuSans-30"/>
      </g>
     </g>
    </g>
    <g id="xtick_14">
     <g id="line2d_38">
      <path d="M 291.468831 373.284 
L 291.468831 258.777959 
" clip-path="url(#p3bc3f3232b)" style="fill: none; stroke: #ffffff; stroke-linecap: round"/>
     </g>
     <g id="text_8">
      <!-- 250 -->
      <g style="fill: #262626" transform="translate(269.422768 400.336391) scale(0.231 -0.231)">
       <defs>
        <path id="DejaVuSans-32" d="M 1228 531 
L 3431 531 
L 3431 0 
L 469 0 
L 469 531 
Q 828 903 1448 1529 
Q 2069 2156 2228 2338 
Q 2531 2678 2651 2914 
Q 2772 3150 2772 3378 
Q 2772 3750 2511 3984 
Q 2250 4219 1831 4219 
Q 1534 4219 1204 4116 
Q 875 4013 500 3803 
L 500 4441 
Q 881 4594 1212 4672 
Q 1544 4750 1819 4750 
Q 2544 4750 2975 4387 
Q 3406 4025 3406 3419 
Q 3406 3131 3298 2873 
Q 3191 2616 2906 2266 
Q 2828 2175 2409 1742 
Q 1991 1309 1228 531 
z
" transform="scale(0.015625)"/>
       </defs>
       <use xlink:href="#DejaVuSans-32"/>
       <use xlink:href="#DejaVuSans-35" x="63.623047"/>
       <use xlink:href="#DejaVuSans-30" x="127.246094"/>
      </g>
     </g>
    </g>
    <g id="xtick_15">
     <g id="line2d_39">
      <path d="M 380.680161 373.284 
L 380.680161 258.777959 
" clip-path="url(#p3bc3f3232b)" style="fill: none; stroke: #ffffff; stroke-linecap: round"/>
     </g>
     <g id="text_9">
      <!-- 500 -->
      <g style="fill: #262626" transform="translate(358.634098 400.336391) scale(0.231 -0.231)">
       <use xlink:href="#DejaVuSans-35"/>
       <use xlink:href="#DejaVuSans-30" x="63.623047"/>
       <use xlink:href="#DejaVuSans-30" x="127.246094"/>
      </g>
     </g>
    </g>
    <g id="xtick_16">
     <g id="line2d_40">
      <path d="M 469.891491 373.284 
L 469.891491 258.777959 
" clip-path="url(#p3bc3f3232b)" style="fill: none; stroke: #ffffff; stroke-linecap: round"/>
     </g>
     <g id="text_10">
      <!-- 750 -->
      <g style="fill: #262626" transform="translate(447.845429 400.336391) scale(0.231 -0.231)">
       <defs>
        <path id="DejaVuSans-37" d="M 525 4666 
L 3525 4666 
L 3525 4397 
L 1831 0 
L 1172 0 
L 2766 4134 
L 525 4134 
L 525 4666 
z
" transform="scale(0.015625)"/>
       </defs>
       <use xlink:href="#DejaVuSans-37"/>
       <use xlink:href="#DejaVuSans-35" x="63.623047"/>
       <use xlink:href="#DejaVuSans-30" x="127.246094"/>
      </g>
     </g>
    </g>
    <g id="text_11">
     <!-- step -->
     <g style="fill: #262626" transform="translate(305.072245 428.288531) scale(0.252 -0.252)">
      <defs>
       <path id="DejaVuSans-73" d="M 2834 3397 
L 2834 2853 
Q 2591 2978 2328 3040 
Q 2066 3103 1784 3103 
Q 1356 3103 1142 2972 
Q 928 2841 928 2578 
Q 928 2378 1081 2264 
Q 1234 2150 1697 2047 
L 1894 2003 
Q 2506 1872 2764 1633 
Q 3022 1394 3022 966 
Q 3022 478 2636 193 
Q 2250 -91 1575 -91 
Q 1294 -91 989 -36 
Q 684 19 347 128 
L 347 722 
Q 666 556 975 473 
Q 1284 391 1588 391 
Q 1994 391 2212 530 
Q 2431 669 2431 922 
Q 2431 1156 2273 1281 
Q 2116 1406 1581 1522 
L 1381 1569 
Q 847 1681 609 1914 
Q 372 2147 372 2553 
Q 372 3047 722 3315 
Q 1072 3584 1716 3584 
Q 2034 3584 2315 3537 
Q 2597 3491 2834 3397 
z
" transform="scale(0.015625)"/>
       <path id="DejaVuSans-74" d="M 1172 4494 
L 1172 3500 
L 2356 3500 
L 2356 3053 
L 1172 3053 
L 1172 1153 
Q 1172 725 1289 603 
Q 1406 481 1766 481 
L 2356 481 
L 2356 0 
L 1766 0 
Q 1100 0 847 248 
Q 594 497 594 1153 
L 594 3053 
L 172 3053 
L 172 3500 
L 594 3500 
L 594 4494 
L 1172 4494 
z
" transform="scale(0.015625)"/>
       <path id="DejaVuSans-70" d="M 1159 525 
L 1159 -1331 
L 581 -1331 
L 581 3500 
L 1159 3500 
L 1159 2969 
Q 1341 3281 1617 3432 
Q 1894 3584 2278 3584 
Q 2916 3584 3314 3078 
Q 3713 2572 3713 1747 
Q 3713 922 3314 415 
Q 2916 -91 2278 -91 
Q 1894 -91 1617 61 
Q 1341 213 1159 525 
z
M 3116 1747 
Q 3116 2381 2855 2742 
Q 2594 3103 2138 3103 
Q 1681 3103 1420 2742 
Q 1159 2381 1159 1747 
Q 1159 1113 1420 752 
Q 1681 391 2138 391 
Q 2594 391 2855 752 
Q 3116 1113 3116 1747 
z
" transform="scale(0.015625)"/>
      </defs>
      <use xlink:href="#DejaVuSans-73"/>
      <use xlink:href="#DejaVuSans-74" x="52.099609"/>
      <use xlink:href="#DejaVuSans-65" x="91.308594"/>
      <use xlink:href="#DejaVuSans-70" x="152.832031"/>
     </g>
    </g>
   </g>
   <g id="matplotlib.axis_8">
    <g id="ytick_7">
     <g id="line2d_41">
      <path d="M 189.250488 369.865713 
L 475.404752 369.865713 
" clip-path="url(#p3bc3f3232b)" style="fill: none; stroke: #ffffff; stroke-linecap: round"/>
     </g>
     <g id="text_12">
      <!-- −0.05 -->
      <g style="fill: #262626" transform="translate(108.959816 378.641908) scale(0.231 -0.231)">
       <use xlink:href="#DejaVuSans-2212"/>
       <use xlink:href="#DejaVuSans-30" x="83.789062"/>
       <use xlink:href="#DejaVuSans-2e" x="147.412109"/>
       <use xlink:href="#DejaVuSans-30" x="179.199219"/>
       <use xlink:href="#DejaVuSans-35" x="242.822266"/>
      </g>
     </g>
    </g>
    <g id="ytick_8">
     <g id="line2d_42">
      <path d="M 189.250488 263.982779 
L 475.404752 263.982779 
" clip-path="url(#p3bc3f3232b)" style="fill: none; stroke: #ffffff; stroke-linecap: round"/>
     </g>
     <g id="text_13">
      <!-- 0.00 -->
      <g style="fill: #262626" transform="translate(128.316894 272.758974) scale(0.231 -0.231)">
       <use xlink:href="#DejaVuSans-30"/>
       <use xlink:href="#DejaVuSans-2e" x="63.623047"/>
       <use xlink:href="#DejaVuSans-30" x="95.410156"/>
       <use xlink:href="#DejaVuSans-30" x="159.033203"/>
      </g>
     </g>
    </g>
    <g id="text_14">
     <!-- % change -->
     <g style="fill: #262626" transform="translate(99.719004 378.379323) rotate(-90) scale(0.252 -0.252)">
      <use xlink:href="#DejaVuSans-25"/>
      <use xlink:href="#DejaVuSans-20" x="95.019531"/>
      <use xlink:href="#DejaVuSans-63" x="126.806641"/>
      <use xlink:href="#DejaVuSans-68" x="181.787109"/>
      <use xlink:href="#DejaVuSans-61" x="245.166016"/>
      <use xlink:href="#DejaVuSans-6e" x="306.445312"/>
      <use xlink:href="#DejaVuSans-67" x="369.824219"/>
      <use xlink:href="#DejaVuSans-65" x="433.300781"/>
     </g>
    </g>
   </g>
   <g id="PolyCollection_19"/>
   <g id="PolyCollection_20"/>
   <g id="PolyCollection_21"/>
   <g id="PolyCollection_22"/>
   <g id="PolyCollection_23"/>
   <g id="PolyCollection_24"/>
   <g id="line2d_43">
    <path d="M 202.2575 263.982779 
L 205.112263 277.203398 
L 209.751252 298.41143 
L 212.249169 308.717957 
L 214.747086 318.08591 
L 217.245004 326.517887 
L 219.386076 333.00212 
L 221.527147 338.801857 
L 223.668219 343.918536 
L 225.452446 347.661699 
L 227.236673 350.932366 
L 229.020899 353.731381 
L 230.805126 356.059583 
L 232.232507 357.583741 
L 233.659888 358.807565 
L 235.08727 359.731473 
L 236.514651 360.355918 
L 237.942032 360.681635 
L 239.369414 360.72109 
L 282.547697 357.266629 
L 306.456334 355.630942 
L 317.161694 355.074388 
L 332.862888 354.505426 
L 356.057834 353.897896 
L 398.522427 353.037743 
L 462.39774 351.913562 
L 462.39774 351.913562 
" clip-path="url(#p3bc3f3232b)" style="fill: none; stroke: #4c72b0; stroke-opacity: 0.9; stroke-width: 3; stroke-linecap: round"/>
   </g>
   <g id="line2d_44">
    <path d="M 202.2575 263.982779 
L 204.398572 273.697017 
L 209.751252 297.956958 
L 212.249169 308.171082 
L 214.747086 317.46234 
L 217.245004 325.832876 
L 219.386076 332.276323 
L 221.527147 338.045979 
L 223.668219 343.14305 
L 225.452446 346.877716 
L 227.236673 350.146884 
L 229.020899 352.951304 
L 230.805126 355.291749 
L 232.232507 356.830533 
L 233.659888 358.0732 
L 235.08727 359.020061 
L 236.514651 359.671445 
L 237.942032 360.027754 
L 239.369414 360.095992 
L 254.713762 358.988026 
L 280.406626 357.220643 
L 314.663776 355.072436 
L 327.510208 354.509927 
L 349.634618 353.84653 
L 388.530758 352.927483 
L 462.39774 351.384996 
L 462.39774 351.384996 
" clip-path="url(#p3bc3f3232b)" style="fill: none; stroke: #dd8452; stroke-opacity: 0.9; stroke-width: 3; stroke-linecap: round"/>
   </g>
   <g id="line2d_45">
    <path d="M 202.2575 263.982779 
L 204.041727 272.78811 
L 209.751252 301.000627 
L 212.249169 312.09293 
L 214.747086 322.171796 
L 217.245004 331.240318 
L 219.386076 338.211333 
L 221.527147 344.44428 
L 223.668219 349.941218 
L 225.452446 353.960878 
L 227.236673 357.471326 
L 229.020899 360.473502 
L 230.448281 362.509915 
L 231.875662 364.222065 
L 233.303043 365.610522 
L 234.730424 366.675779 
L 236.157806 367.418538 
L 237.228342 367.764721 
L 238.298878 367.931182 
L 239.726259 367.900683 
L 261.136978 365.888768 
L 287.543532 363.460291 
L 298.962582 362.618609 
L 310.381633 362.00015 
L 324.2986 361.480447 
L 342.497711 361.03065 
L 374.61379 360.487827 
L 462.39774 359.272987 
L 462.39774 359.272987 
" clip-path="url(#p3bc3f3232b)" style="fill: none; stroke: #55a868; stroke-opacity: 0.9; stroke-width: 3; stroke-linecap: round"/>
   </g>
   <g id="line2d_46">
    <path d="M 202.2575 263.982779 
L 204.041727 272.505164 
L 209.751252 299.821233 
L 212.249169 310.564982 
L 214.747086 320.328692 
L 217.245004 329.115017 
L 219.386076 335.870164 
L 221.527147 341.910624 
L 223.668219 347.237928 
L 225.452446 351.133683 
L 227.236673 354.536129 
L 229.020899 357.446137 
L 230.805126 359.864645 
L 232.232507 361.446167 
L 233.659888 362.714136 
L 235.08727 363.669107 
L 236.514651 364.311865 
L 237.942032 364.644144 
L 239.369414 364.682517 
L 257.92537 363.081736 
L 288.970913 360.411415 
L 301.103654 359.614862 
L 313.950086 358.998934 
L 331.435507 358.401064 
L 351.061999 357.969538 
L 392.099211 357.315388 
L 462.39774 356.308681 
L 462.39774 356.308681 
" clip-path="url(#p3bc3f3232b)" style="fill: none; stroke: #c44e52; stroke-opacity: 0.9; stroke-width: 3; stroke-linecap: round"/>
   </g>
   <g id="line2d_47">
    <path d="M 202.2575 263.982779 
L 204.755417 276.022912 
L 209.751252 299.83191 
L 212.249169 310.548795 
L 214.747086 320.288958 
L 217.245004 329.054981 
L 219.386076 335.795275 
L 221.527147 341.823246 
L 223.668219 347.140387 
L 225.452446 351.029414 
L 227.236673 354.426695 
L 229.020899 357.333078 
L 230.805126 359.749381 
L 232.232507 361.330092 
L 233.659888 362.59803 
L 235.08727 363.553561 
L 236.514651 364.197041 
L 237.585187 364.475101 
L 238.655723 364.578162 
L 240.083104 364.48286 
L 295.750974 358.909546 
L 315.377467 357.33421 
L 335.360805 355.938621 
L 348.207237 355.274052 
L 367.120039 354.537783 
L 392.456057 353.806224 
L 432.779578 352.861734 
L 462.39774 352.254059 
L 462.39774 352.254059 
" clip-path="url(#p3bc3f3232b)" style="fill: none; stroke: #8172b3; stroke-opacity: 0.9; stroke-width: 3; stroke-linecap: round"/>
   </g>
   <g id="line2d_48">
    <path d="M 202.2575 263.982779 
L 205.112263 277.36262 
L 209.751252 298.7931 
L 212.249169 309.198822 
L 214.747086 318.657822 
L 217.245004 327.17256 
L 219.386076 333.72117 
L 221.527147 339.579282 
L 223.668219 344.748341 
L 225.452446 348.530562 
L 227.236673 351.836077 
L 229.020899 354.665683 
L 230.805126 357.02017 
L 232.232507 358.562199 
L 233.659888 359.801033 
L 235.08727 360.737027 
L 236.514651 361.370537 
L 237.942032 361.701895 
L 239.369414 361.736773 
L 292.539366 356.892531 
L 312.87955 355.451513 
L 331.435507 354.343814 
L 347.136701 353.620546 
L 369.617956 352.825398 
L 398.165582 352.021716 
L 450.264999 350.821131 
L 462.39774 350.561292 
L 462.39774 350.561292 
" clip-path="url(#p3bc3f3232b)" style="fill: none; stroke: #937860; stroke-opacity: 0.9; stroke-width: 3; stroke-linecap: round"/>
   </g>
   <g id="patch_12">
    <path d="M 189.250488 373.284 
L 189.250488 258.777959 
" style="fill: none; stroke: #ffffff; stroke-width: 1.25; stroke-linejoin: miter; stroke-linecap: square"/>
   </g>
   <g id="patch_13">
    <path d="M 189.250488 373.284 
L 475.404752 373.284 
" style="fill: none; stroke: #ffffff; stroke-width: 1.25; stroke-linejoin: miter; stroke-linecap: square"/>
   </g>
   <g id="text_15">
    <!-- 0.85~365 -->
    <g style="fill: #262626" transform="translate(269.664276 252.777959) scale(0.252 -0.252)">
     <use xlink:href="#DejaVuSans-30"/>
     <use xlink:href="#DejaVuSans-2e" x="63.623047"/>
     <use xlink:href="#DejaVuSans-38" x="95.410156"/>
     <use xlink:href="#DejaVuSans-35" x="159.033203"/>
     <use xlink:href="#DejaVuSans-7e" x="222.65625"/>
     <use xlink:href="#DejaVuSans-33" x="306.445312"/>
     <use xlink:href="#DejaVuSans-36" x="370.068359"/>
     <use xlink:href="#DejaVuSans-35" x="433.691406"/>
    </g>
   </g>
  </g>
  <g id="axes_5">
   <g id="patch_14">
    <path d="M 501.852899 373.284 
L 788.007162 373.284 
L 788.007162 258.777959 
L 501.852899 258.777959 
z
" style="fill: #eaeaf2"/>
   </g>
   <g id="matplotlib.axis_9">
    <g id="xtick_17">
     <g id="line2d_49">
      <path d="M 514.859911 373.284 
L 514.859911 258.777959 
" clip-path="url(#p35c1845d08)" style="fill: none; stroke: #ffffff; stroke-linecap: round"/>
     </g>
     <g id="text_16">
      <!-- 0 -->
      <g style="fill: #262626" transform="translate(507.511224 400.336391) scale(0.231 -0.231)">
       <use xlink:href="#DejaVuSans-30"/>
      </g>
     </g>
    </g>
    <g id="xtick_18">
     <g id="line2d_50">
      <path d="M 604.071241 373.284 
L 604.071241 258.777959 
" clip-path="url(#p35c1845d08)" style="fill: none; stroke: #ffffff; stroke-linecap: round"/>
     </g>
     <g id="text_17">
      <!-- 250 -->
      <g style="fill: #262626" transform="translate(582.025179 400.336391) scale(0.231 -0.231)">
       <use xlink:href="#DejaVuSans-32"/>
       <use xlink:href="#DejaVuSans-35" x="63.623047"/>
       <use xlink:href="#DejaVuSans-30" x="127.246094"/>
      </g>
     </g>
    </g>
    <g id="xtick_19">
     <g id="line2d_51">
      <path d="M 693.282572 373.284 
L 693.282572 258.777959 
" clip-path="url(#p35c1845d08)" style="fill: none; stroke: #ffffff; stroke-linecap: round"/>
     </g>
     <g id="text_18">
      <!-- 500 -->
      <g style="fill: #262626" transform="translate(671.236509 400.336391) scale(0.231 -0.231)">
       <use xlink:href="#DejaVuSans-35"/>
       <use xlink:href="#DejaVuSans-30" x="63.623047"/>
       <use xlink:href="#DejaVuSans-30" x="127.246094"/>
      </g>
     </g>
    </g>
    <g id="xtick_20">
     <g id="line2d_52">
      <path d="M 782.493902 373.284 
L 782.493902 258.777959 
" clip-path="url(#p35c1845d08)" style="fill: none; stroke: #ffffff; stroke-linecap: round"/>
     </g>
     <g id="text_19">
      <!-- 750 -->
      <g style="fill: #262626" transform="translate(760.44784 400.336391) scale(0.231 -0.231)">
       <use xlink:href="#DejaVuSans-37"/>
       <use xlink:href="#DejaVuSans-35" x="63.623047"/>
       <use xlink:href="#DejaVuSans-30" x="127.246094"/>
      </g>
     </g>
    </g>
    <g id="text_20">
     <!-- step -->
     <g style="fill: #262626" transform="translate(617.674656 428.288531) scale(0.252 -0.252)">
      <use xlink:href="#DejaVuSans-73"/>
      <use xlink:href="#DejaVuSans-74" x="52.099609"/>
      <use xlink:href="#DejaVuSans-65" x="91.308594"/>
      <use xlink:href="#DejaVuSans-70" x="152.832031"/>
     </g>
    </g>
   </g>
   <g id="matplotlib.axis_10">
    <g id="ytick_9">
     <g id="line2d_53">
      <path d="M 501.852899 369.865713 
L 788.007162 369.865713 
" clip-path="url(#p35c1845d08)" style="fill: none; stroke: #ffffff; stroke-linecap: round"/>
     </g>
    </g>
    <g id="ytick_10">
     <g id="line2d_54">
      <path d="M 501.852899 263.982779 
L 788.007162 263.982779 
" clip-path="url(#p35c1845d08)" style="fill: none; stroke: #ffffff; stroke-linecap: round"/>
     </g>
    </g>
   </g>
   <g id="PolyCollection_25"/>
   <g id="PolyCollection_26"/>
   <g id="PolyCollection_27"/>
   <g id="PolyCollection_28"/>
   <g id="PolyCollection_29"/>
   <g id="PolyCollection_30"/>
   <g id="line2d_55">
    <path d="M 514.859911 263.982779 
L 518.071519 278.793338 
L 521.996818 296.467915 
L 524.494735 306.579117 
L 526.992652 315.664755 
L 529.133724 322.644692 
L 531.274796 328.886088 
L 533.415868 334.39533 
L 535.200094 338.432405 
L 536.984321 341.971336 
L 538.768548 345.015755 
L 540.552774 347.56917 
L 541.980156 349.262773 
L 543.407537 350.654362 
L 544.834918 351.746152 
L 546.262299 352.54311 
L 547.689681 353.047427 
L 549.117062 353.265881 
L 550.544443 353.248277 
L 551.971825 353.029355 
L 579.092069 346.634718 
L 585.515285 345.490213 
L 593.365882 344.330907 
L 603.000706 343.14004 
L 615.490292 341.842683 
L 629.764105 340.571099 
L 649.033752 339.13888 
L 690.784655 336.297699 
L 775.000151 330.665673 
L 775.000151 330.665673 
" clip-path="url(#p35c1845d08)" style="fill: none; stroke: #4c72b0; stroke-opacity: 0.9; stroke-width: 3; stroke-linecap: round"/>
   </g>
   <g id="line2d_56">
    <path d="M 514.859911 263.982779 
L 517.000983 273.672201 
L 521.996818 296.088667 
L 524.494735 306.154394 
L 526.992652 315.222813 
L 529.133724 322.209537 
L 531.274796 328.476598 
L 533.415868 334.029405 
L 535.200094 338.114912 
L 536.984321 341.711078 
L 538.768548 344.820943 
L 540.552774 347.447565 
L 541.980156 349.202994 
L 543.407537 350.653478 
L 544.834918 351.801802 
L 546.262299 352.656723 
L 547.689681 353.225306 
L 549.117062 353.51297 
L 550.544443 353.55365 
L 551.971825 353.385481 
L 569.457245 349.653345 
L 583.017367 346.827052 
L 590.511119 345.558791 
L 599.075407 344.327833 
L 609.423921 343.129514 
L 626.909342 341.332026 
L 646.178989 339.556462 
L 672.585543 337.388298 
L 775.000151 329.340762 
L 775.000151 329.340762 
" clip-path="url(#p35c1845d08)" style="fill: none; stroke: #dd8452; stroke-opacity: 0.9; stroke-width: 3; stroke-linecap: round"/>
   </g>
   <g id="line2d_57">
    <path d="M 514.859911 263.982779 
L 516.644138 272.766911 
L 521.639972 297.259043 
L 524.137889 308.295583 
L 526.635807 318.220035 
L 528.776879 325.851279 
L 530.917951 332.683493 
L 533.059022 338.724132 
L 534.843249 343.158263 
L 536.627476 347.051318 
L 538.411702 350.407687 
L 540.195929 353.232037 
L 541.62331 355.111988 
L 543.050691 356.657852 
L 544.478073 357.872888 
L 545.905454 358.763825 
L 547.332835 359.344574 
L 548.760217 359.636208 
L 550.187598 359.682717 
L 551.614979 359.502136 
L 554.112896 358.855152 
L 561.606648 356.677449 
L 570.170936 354.226748 
L 576.237306 352.751101 
L 582.660522 351.435004 
L 589.440583 350.283517 
L 596.220644 349.34952 
L 604.428087 348.464667 
L 615.133446 347.545017 
L 630.12095 346.500021 
L 655.813813 344.961063 
L 733.606093 340.625735 
L 775.000151 338.319709 
L 775.000151 338.319709 
" clip-path="url(#p35c1845d08)" style="fill: none; stroke: #55a868; stroke-opacity: 0.9; stroke-width: 3; stroke-linecap: round"/>
   </g>
   <g id="line2d_58">
    <path d="M 514.859911 263.982779 
L 516.644138 272.4848 
L 521.639972 296.199827 
L 524.137889 306.890663 
L 526.635807 316.506119 
L 528.776879 323.90101 
L 530.917951 330.521826 
L 533.059022 336.375377 
L 534.843249 340.672025 
L 536.627476 344.444463 
L 538.411702 347.696727 
L 540.195929 350.43309 
L 541.62331 352.258126 
L 543.050691 353.764472 
L 544.478073 354.954754 
L 545.905454 355.832859 
L 547.332835 356.409283 
L 548.760217 356.70478 
L 550.187598 356.765558 
L 551.614979 356.608163 
L 554.112896 356.012734 
L 561.606648 353.985554 
L 569.457245 351.892351 
L 575.523616 350.510088 
L 582.303677 349.190883 
L 589.797429 347.955857 
L 597.29118 346.936575 
L 605.498623 346.073729 
L 616.917673 345.111804 
L 633.332558 343.974403 
L 664.378101 342.085924 
L 775.000151 335.625486 
L 775.000151 335.625486 
" clip-path="url(#p35c1845d08)" style="fill: none; stroke: #c44e52; stroke-opacity: 0.9; stroke-width: 3; stroke-linecap: round"/>
   </g>
   <g id="line2d_59">
    <path d="M 514.859911 263.982779 
L 517.357828 275.977896 
L 521.996818 297.810616 
L 524.494735 308.327051 
L 526.635807 316.492241 
L 528.776879 323.881589 
L 530.917951 330.502166 
L 533.059022 336.360826 
L 534.843249 340.665819 
L 536.627476 344.45019 
L 538.411702 347.717756 
L 540.195929 350.47218 
L 541.62331 352.308725 
L 543.050691 353.820992 
L 544.478073 355.0113 
L 545.905454 355.881847 
L 547.332835 356.437373 
L 548.760217 356.686267 
L 550.187598 356.665615 
L 551.614979 356.409453 
L 554.469742 355.516086 
L 568.029864 351.289449 
L 578.378378 348.299262 
L 588.726893 345.54433 
L 594.436418 344.21606 
L 600.502788 343.039905 
L 608.353385 341.754206 
L 617.988209 340.404928 
L 628.336723 339.201169 
L 639.398928 338.141664 
L 656.527504 336.753267 
L 689.714119 334.324644 
L 775.000151 328.274971 
L 775.000151 328.274971 
" clip-path="url(#p35c1845d08)" style="fill: none; stroke: #8172b3; stroke-opacity: 0.9; stroke-width: 3; stroke-linecap: round"/>
   </g>
   <g id="line2d_60">
    <path d="M 514.859911 263.982779 
L 518.071519 278.972036 
L 521.996818 296.847563 
L 524.494735 307.072392 
L 526.992652 316.267771 
L 529.133724 323.338536 
L 531.274796 329.667747 
L 533.415868 335.262084 
L 535.200094 339.367332 
L 536.984321 342.970277 
L 538.768548 346.07438 
L 540.552774 348.683199 
L 541.980156 350.416526 
L 543.407537 351.837454 
L 544.834918 352.947505 
L 546.262299 353.74842 
L 547.689681 354.245321 
L 549.117062 354.447172 
L 550.544443 354.388288 
L 551.971825 354.109164 
L 571.241472 348.774503 
L 581.946832 346.088399 
L 590.511119 344.137467 
L 597.29118 342.836919 
L 605.498623 341.497613 
L 615.847137 340.048444 
L 627.266187 338.65706 
L 639.398928 337.454621 
L 657.59804 335.899497 
L 692.568881 333.170291 
L 775.000151 326.930759 
L 775.000151 326.930759 
" clip-path="url(#p35c1845d08)" style="fill: none; stroke: #937860; stroke-opacity: 0.9; stroke-width: 3; stroke-linecap: round"/>
   </g>
   <g id="patch_15">
    <path d="M 501.852899 373.284 
L 501.852899 258.777959 
" style="fill: none; stroke: #ffffff; stroke-width: 1.25; stroke-linejoin: miter; stroke-linecap: square"/>
   </g>
   <g id="patch_16">
    <path d="M 501.852899 373.284 
L 788.007162 373.284 
" style="fill: none; stroke: #ffffff; stroke-width: 1.25; stroke-linejoin: miter; stroke-linecap: square"/>
   </g>
   <g id="text_21">
    <!-- 0.95~90 -->
    <g style="fill: #262626" transform="translate(590.283437 252.777959) scale(0.252 -0.252)">
     <use xlink:href="#DejaVuSans-30"/>
     <use xlink:href="#DejaVuSans-2e" x="63.623047"/>
     <use xlink:href="#DejaVuSans-39" x="95.410156"/>
     <use xlink:href="#DejaVuSans-35" x="159.033203"/>
     <use xlink:href="#DejaVuSans-7e" x="222.65625"/>
     <use xlink:href="#DejaVuSans-39" x="306.445312"/>
     <use xlink:href="#DejaVuSans-30" x="370.068359"/>
    </g>
   </g>
  </g>
  <g id="axes_6">
   <g id="patch_17">
    <path d="M 814.45531 373.284 
L 1100.609573 373.284 
L 1100.609573 258.777959 
L 814.45531 258.777959 
z
" style="fill: #eaeaf2"/>
   </g>
   <g id="matplotlib.axis_11">
    <g id="xtick_21">
     <g id="line2d_61">
      <path d="M 827.462322 373.284 
L 827.462322 258.777959 
" clip-path="url(#pa255261d1b)" style="fill: none; stroke: #ffffff; stroke-linecap: round"/>
     </g>
     <g id="text_22">
      <!-- 0 -->
      <g style="fill: #262626" transform="translate(820.113635 400.336391) scale(0.231 -0.231)">
       <use xlink:href="#DejaVuSans-30"/>
      </g>
     </g>
    </g>
    <g id="xtick_22">
     <g id="line2d_62">
      <path d="M 916.673652 373.284 
L 916.673652 258.777959 
" clip-path="url(#pa255261d1b)" style="fill: none; stroke: #ffffff; stroke-linecap: round"/>
     </g>
     <g id="text_23">
      <!-- 250 -->
      <g style="fill: #262626" transform="translate(894.62759 400.336391) scale(0.231 -0.231)">
       <use xlink:href="#DejaVuSans-32"/>
       <use xlink:href="#DejaVuSans-35" x="63.623047"/>
       <use xlink:href="#DejaVuSans-30" x="127.246094"/>
      </g>
     </g>
    </g>
    <g id="xtick_23">
     <g id="line2d_63">
      <path d="M 1005.884983 373.284 
L 1005.884983 258.777959 
" clip-path="url(#pa255261d1b)" style="fill: none; stroke: #ffffff; stroke-linecap: round"/>
     </g>
     <g id="text_24">
      <!-- 500 -->
      <g style="fill: #262626" transform="translate(983.83892 400.336391) scale(0.231 -0.231)">
       <use xlink:href="#DejaVuSans-35"/>
       <use xlink:href="#DejaVuSans-30" x="63.623047"/>
       <use xlink:href="#DejaVuSans-30" x="127.246094"/>
      </g>
     </g>
    </g>
    <g id="xtick_24">
     <g id="line2d_64">
      <path d="M 1095.096313 373.284 
L 1095.096313 258.777959 
" clip-path="url(#pa255261d1b)" style="fill: none; stroke: #ffffff; stroke-linecap: round"/>
     </g>
     <g id="text_25">
      <!-- 750 -->
      <g style="fill: #262626" transform="translate(1073.050251 400.336391) scale(0.231 -0.231)">
       <use xlink:href="#DejaVuSans-37"/>
       <use xlink:href="#DejaVuSans-35" x="63.623047"/>
       <use xlink:href="#DejaVuSans-30" x="127.246094"/>
      </g>
     </g>
    </g>
    <g id="text_26">
     <!-- step -->
     <g style="fill: #262626" transform="translate(930.277067 428.288531) scale(0.252 -0.252)">
      <use xlink:href="#DejaVuSans-73"/>
      <use xlink:href="#DejaVuSans-74" x="52.099609"/>
      <use xlink:href="#DejaVuSans-65" x="91.308594"/>
      <use xlink:href="#DejaVuSans-70" x="152.832031"/>
     </g>
    </g>
   </g>
   <g id="matplotlib.axis_12">
    <g id="ytick_11">
     <g id="line2d_65">
      <path d="M 814.45531 369.865713 
L 1100.609573 369.865713 
" clip-path="url(#pa255261d1b)" style="fill: none; stroke: #ffffff; stroke-linecap: round"/>
     </g>
    </g>
    <g id="ytick_12">
     <g id="line2d_66">
      <path d="M 814.45531 263.982779 
L 1100.609573 263.982779 
" clip-path="url(#pa255261d1b)" style="fill: none; stroke: #ffffff; stroke-linecap: round"/>
     </g>
    </g>
   </g>
   <g id="PolyCollection_31"/>
   <g id="PolyCollection_32"/>
   <g id="PolyCollection_33"/>
   <g id="PolyCollection_34"/>
   <g id="PolyCollection_35"/>
   <g id="PolyCollection_36"/>
   <g id="line2d_67">
    <path d="M 827.462322 263.982779 
L 830.317085 277.203398 
L 834.956074 298.41143 
L 837.453991 308.717957 
L 839.951908 318.08591 
L 842.449826 326.517887 
L 844.590897 333.00212 
L 846.731969 338.801857 
L 848.873041 343.918536 
L 850.657268 347.661699 
L 852.441495 350.932366 
L 854.225721 353.731381 
L 856.009948 356.059583 
L 857.437329 357.583741 
L 858.86471 358.807565 
L 860.292092 359.731473 
L 861.719473 360.355918 
L 863.146854 360.681635 
L 864.574235 360.72109 
L 907.752519 357.266629 
L 931.661156 355.630942 
L 942.366516 355.074388 
L 958.06771 354.505426 
L 981.262656 353.897896 
L 1023.727249 353.037743 
L 1087.602561 351.913562 
L 1087.602561 351.913562 
" clip-path="url(#pa255261d1b)" style="fill: none; stroke: #4c72b0; stroke-opacity: 0.9; stroke-width: 3; stroke-linecap: round"/>
   </g>
   <g id="line2d_68">
    <path d="M 827.462322 263.982779 
L 829.603394 273.697017 
L 834.956074 297.956958 
L 837.453991 308.171082 
L 839.951908 317.46234 
L 842.449826 325.832876 
L 844.590897 332.276323 
L 846.731969 338.045979 
L 848.873041 343.14305 
L 850.657268 346.877716 
L 852.441495 350.146884 
L 854.225721 352.951304 
L 856.009948 355.291749 
L 857.437329 356.830533 
L 858.86471 358.0732 
L 860.292092 359.020061 
L 861.719473 359.671445 
L 863.146854 360.027754 
L 864.574235 360.095992 
L 879.918584 358.988026 
L 905.611447 357.220643 
L 939.868598 355.072436 
L 952.71503 354.509927 
L 974.83944 353.84653 
L 1013.73558 352.927483 
L 1087.602561 351.384996 
L 1087.602561 351.384996 
" clip-path="url(#pa255261d1b)" style="fill: none; stroke: #dd8452; stroke-opacity: 0.9; stroke-width: 3; stroke-linecap: round"/>
   </g>
   <g id="line2d_69">
    <path d="M 827.462322 263.982779 
L 829.246549 272.78811 
L 834.956074 301.000627 
L 837.453991 312.09293 
L 839.951908 322.171796 
L 842.449826 331.240318 
L 844.590897 338.211333 
L 846.731969 344.44428 
L 848.873041 349.941218 
L 850.657268 353.960878 
L 852.441495 357.471326 
L 854.225721 360.473502 
L 855.653102 362.509915 
L 857.080484 364.222065 
L 858.507865 365.61291 
L 859.935246 366.684749 
L 861.362628 367.444298 
L 862.790009 367.901797 
L 864.21739 368.075054 
L 866.358462 368.010251 
L 871.711142 367.629826 
L 887.769181 366.095092 
L 913.105199 363.765071 
L 924.52425 362.926761 
L 935.9433 362.312515 
L 950.217113 361.785986 
L 968.773069 361.336147 
L 1001.959684 360.783684 
L 1087.602561 359.601877 
L 1087.602561 359.601877 
" clip-path="url(#pa255261d1b)" style="fill: none; stroke: #55a868; stroke-opacity: 0.9; stroke-width: 3; stroke-linecap: round"/>
   </g>
   <g id="line2d_70">
    <path d="M 827.462322 263.982779 
L 829.246549 272.505164 
L 834.956074 299.821233 
L 837.453991 310.564982 
L 839.951908 320.328692 
L 842.449826 329.115017 
L 844.590897 335.870164 
L 846.731969 341.910624 
L 848.873041 347.237928 
L 850.657268 351.133683 
L 852.441495 354.536129 
L 854.225721 357.448968 
L 856.009948 359.878467 
L 857.437329 361.475559 
L 858.86471 362.764855 
L 860.292092 363.746269 
L 861.719473 364.426712 
L 863.146854 364.815871 
L 864.574235 364.938874 
L 868.856379 364.769025 
L 875.63644 364.24689 
L 919.88526 360.487606 
L 932.018001 359.789769 
L 946.648659 359.187977 
L 964.13408 358.686114 
L 993.038551 358.151165 
L 1075.469821 356.948185 
L 1087.602561 356.774481 
L 1087.602561 356.774481 
" clip-path="url(#pa255261d1b)" style="fill: none; stroke: #c44e52; stroke-opacity: 0.9; stroke-width: 3; stroke-linecap: round"/>
   </g>
   <g id="line2d_71">
    <path d="M 827.462322 263.982779 
L 829.960239 276.022912 
L 834.956074 299.83191 
L 837.453991 310.548795 
L 839.951908 320.288958 
L 842.449826 329.054981 
L 844.590897 335.795275 
L 846.731969 341.823246 
L 848.873041 347.140387 
L 850.657268 351.029414 
L 852.441495 354.426695 
L 854.225721 357.333078 
L 856.009948 359.749381 
L 857.437329 361.330092 
L 858.86471 362.59803 
L 860.292092 363.553561 
L 861.719473 364.197041 
L 862.790009 364.475101 
L 863.860545 364.578162 
L 865.287926 364.48286 
L 920.955796 358.909546 
L 940.582289 357.33421 
L 960.565627 355.938621 
L 973.412059 355.274052 
L 992.324861 354.537783 
L 1017.660878 353.806224 
L 1057.9844 352.861734 
L 1087.602561 352.254059 
L 1087.602561 352.254059 
" clip-path="url(#pa255261d1b)" style="fill: none; stroke: #8172b3; stroke-opacity: 0.9; stroke-width: 3; stroke-linecap: round"/>
   </g>
   <g id="line2d_72">
    <path d="M 827.462322 263.982779 
L 830.317085 277.36262 
L 834.956074 298.7931 
L 837.453991 309.198822 
L 839.951908 318.657822 
L 842.449826 327.17256 
L 844.590897 333.72117 
L 846.731969 339.579282 
L 848.873041 344.748341 
L 850.657268 348.530562 
L 852.441495 351.836077 
L 854.225721 354.665683 
L 856.009948 357.02017 
L 857.437329 358.562199 
L 858.86471 359.801033 
L 860.292092 360.737027 
L 861.719473 361.370537 
L 863.146854 361.701895 
L 864.574235 361.736773 
L 917.744188 356.892531 
L 938.084372 355.451513 
L 956.640328 354.343814 
L 972.341523 353.620546 
L 994.822778 352.825398 
L 1023.370404 352.021716 
L 1075.469821 350.821131 
L 1087.602561 350.561292 
L 1087.602561 350.561292 
" clip-path="url(#pa255261d1b)" style="fill: none; stroke: #937860; stroke-opacity: 0.9; stroke-width: 3; stroke-linecap: round"/>
   </g>
   <g id="patch_18">
    <path d="M 814.45531 373.284 
L 814.45531 258.777959 
" style="fill: none; stroke: #ffffff; stroke-width: 1.25; stroke-linejoin: miter; stroke-linecap: square"/>
   </g>
   <g id="patch_19">
    <path d="M 814.45531 373.284 
L 1100.609573 373.284 
" style="fill: none; stroke: #ffffff; stroke-width: 1.25; stroke-linejoin: miter; stroke-linecap: square"/>
   </g>
   <g id="text_27">
    <!-- 0.95~365 -->
    <g style="fill: #262626" transform="translate(894.869098 252.777959) scale(0.252 -0.252)">
     <use xlink:href="#DejaVuSans-30"/>
     <use xlink:href="#DejaVuSans-2e" x="63.623047"/>
     <use xlink:href="#DejaVuSans-39" x="95.410156"/>
     <use xlink:href="#DejaVuSans-35" x="159.033203"/>
     <use xlink:href="#DejaVuSans-7e" x="222.65625"/>
     <use xlink:href="#DejaVuSans-33" x="306.445312"/>
     <use xlink:href="#DejaVuSans-36" x="370.068359"/>
     <use xlink:href="#DejaVuSans-35" x="433.691406"/>
    </g>
   </g>
  </g>
  <g id="text_28">
   <!-- Production change from pre-shock level -->
   <g style="fill: #262626" transform="translate(280.766836 30.177675) scale(0.3024 -0.3024)">
    <defs>
     <path id="DejaVuSans-50" d="M 1259 4147 
L 1259 2394 
L 2053 2394 
Q 2494 2394 2734 2622 
Q 2975 2850 2975 3272 
Q 2975 3691 2734 3919 
Q 2494 4147 2053 4147 
L 1259 4147 
z
M 628 4666 
L 2053 4666 
Q 2838 4666 3239 4311 
Q 3641 3956 3641 3272 
Q 3641 2581 3239 2228 
Q 2838 1875 2053 1875 
L 1259 1875 
L 1259 0 
L 628 0 
L 628 4666 
z
" transform="scale(0.015625)"/>
     <path id="DejaVuSans-72" d="M 2631 2963 
Q 2534 3019 2420 3045 
Q 2306 3072 2169 3072 
Q 1681 3072 1420 2755 
Q 1159 2438 1159 1844 
L 1159 0 
L 581 0 
L 581 3500 
L 1159 3500 
L 1159 2956 
Q 1341 3275 1631 3429 
Q 1922 3584 2338 3584 
Q 2397 3584 2469 3576 
Q 2541 3569 2628 3553 
L 2631 2963 
z
" transform="scale(0.015625)"/>
     <path id="DejaVuSans-6f" d="M 1959 3097 
Q 1497 3097 1228 2736 
Q 959 2375 959 1747 
Q 959 1119 1226 758 
Q 1494 397 1959 397 
Q 2419 397 2687 759 
Q 2956 1122 2956 1747 
Q 2956 2369 2687 2733 
Q 2419 3097 1959 3097 
z
M 1959 3584 
Q 2709 3584 3137 3096 
Q 3566 2609 3566 1747 
Q 3566 888 3137 398 
Q 2709 -91 1959 -91 
Q 1206 -91 779 398 
Q 353 888 353 1747 
Q 353 2609 779 3096 
Q 1206 3584 1959 3584 
z
" transform="scale(0.015625)"/>
     <path id="DejaVuSans-64" d="M 2906 2969 
L 2906 4863 
L 3481 4863 
L 3481 0 
L 2906 0 
L 2906 525 
Q 2725 213 2448 61 
Q 2172 -91 1784 -91 
Q 1150 -91 751 415 
Q 353 922 353 1747 
Q 353 2572 751 3078 
Q 1150 3584 1784 3584 
Q 2172 3584 2448 3432 
Q 2725 3281 2906 2969 
z
M 947 1747 
Q 947 1113 1208 752 
Q 1469 391 1925 391 
Q 2381 391 2643 752 
Q 2906 1113 2906 1747 
Q 2906 2381 2643 2742 
Q 2381 3103 1925 3103 
Q 1469 3103 1208 2742 
Q 947 2381 947 1747 
z
" transform="scale(0.015625)"/>
     <path id="DejaVuSans-75" d="M 544 1381 
L 544 3500 
L 1119 3500 
L 1119 1403 
Q 1119 906 1312 657 
Q 1506 409 1894 409 
Q 2359 409 2629 706 
Q 2900 1003 2900 1516 
L 2900 3500 
L 3475 3500 
L 3475 0 
L 2900 0 
L 2900 538 
Q 2691 219 2414 64 
Q 2138 -91 1772 -91 
Q 1169 -91 856 284 
Q 544 659 544 1381 
z
M 1991 3584 
L 1991 3584 
z
" transform="scale(0.015625)"/>
     <path id="DejaVuSans-69" d="M 603 3500 
L 1178 3500 
L 1178 0 
L 603 0 
L 603 3500 
z
M 603 4863 
L 1178 4863 
L 1178 4134 
L 603 4134 
L 603 4863 
z
" transform="scale(0.015625)"/>
     <path id="DejaVuSans-66" d="M 2375 4863 
L 2375 4384 
L 1825 4384 
Q 1516 4384 1395 4259 
Q 1275 4134 1275 3809 
L 1275 3500 
L 2222 3500 
L 2222 3053 
L 1275 3053 
L 1275 0 
L 697 0 
L 697 3053 
L 147 3053 
L 147 3500 
L 697 3500 
L 697 3744 
Q 697 4328 969 4595 
Q 1241 4863 1831 4863 
L 2375 4863 
z
" transform="scale(0.015625)"/>
     <path id="DejaVuSans-6d" d="M 3328 2828 
Q 3544 3216 3844 3400 
Q 4144 3584 4550 3584 
Q 5097 3584 5394 3201 
Q 5691 2819 5691 2113 
L 5691 0 
L 5113 0 
L 5113 2094 
Q 5113 2597 4934 2840 
Q 4756 3084 4391 3084 
Q 3944 3084 3684 2787 
Q 3425 2491 3425 1978 
L 3425 0 
L 2847 0 
L 2847 2094 
Q 2847 2600 2669 2842 
Q 2491 3084 2119 3084 
Q 1678 3084 1418 2786 
Q 1159 2488 1159 1978 
L 1159 0 
L 581 0 
L 581 3500 
L 1159 3500 
L 1159 2956 
Q 1356 3278 1631 3431 
Q 1906 3584 2284 3584 
Q 2666 3584 2933 3390 
Q 3200 3197 3328 2828 
z
" transform="scale(0.015625)"/>
     <path id="DejaVuSans-2d" d="M 313 2009 
L 1997 2009 
L 1997 1497 
L 313 1497 
L 313 2009 
z
" transform="scale(0.015625)"/>
     <path id="DejaVuSans-6b" d="M 581 4863 
L 1159 4863 
L 1159 1991 
L 2875 3500 
L 3609 3500 
L 1753 1863 
L 3688 0 
L 2938 0 
L 1159 1709 
L 1159 0 
L 581 0 
L 581 4863 
z
" transform="scale(0.015625)"/>
     <path id="DejaVuSans-6c" d="M 603 4863 
L 1178 4863 
L 1178 0 
L 603 0 
L 603 4863 
z
" transform="scale(0.015625)"/>
     <path id="DejaVuSans-76" d="M 191 3500 
L 800 3500 
L 1894 563 
L 2988 3500 
L 3597 3500 
L 2284 0 
L 1503 0 
L 191 3500 
z
" transform="scale(0.015625)"/>
    </defs>
    <use xlink:href="#DejaVuSans-50"/>
    <use xlink:href="#DejaVuSans-72" x="58.552734"/>
    <use xlink:href="#DejaVuSans-6f" x="97.416016"/>
    <use xlink:href="#DejaVuSans-64" x="158.597656"/>
    <use xlink:href="#DejaVuSans-75" x="222.074219"/>
    <use xlink:href="#DejaVuSans-63" x="285.453125"/>
    <use xlink:href="#DejaVuSans-74" x="340.433594"/>
    <use xlink:href="#DejaVuSans-69" x="379.642578"/>
    <use xlink:href="#DejaVuSans-6f" x="407.425781"/>
    <use xlink:href="#DejaVuSans-6e" x="468.607422"/>
    <use xlink:href="#DejaVuSans-20" x="531.986328"/>
    <use xlink:href="#DejaVuSans-63" x="563.773438"/>
    <use xlink:href="#DejaVuSans-68" x="618.753906"/>
    <use xlink:href="#DejaVuSans-61" x="682.132812"/>
    <use xlink:href="#DejaVuSans-6e" x="743.412109"/>
    <use xlink:href="#DejaVuSans-67" x="806.791016"/>
    <use xlink:href="#DejaVuSans-65" x="870.267578"/>
    <use xlink:href="#DejaVuSans-20" x="931.791016"/>
    <use xlink:href="#DejaVuSans-66" x="963.578125"/>
    <use xlink:href="#DejaVuSans-72" x="998.783203"/>
    <use xlink:href="#DejaVuSans-6f" x="1037.646484"/>
    <use xlink:href="#DejaVuSans-6d" x="1098.828125"/>
    <use xlink:href="#DejaVuSans-20" x="1196.240234"/>
    <use xlink:href="#DejaVuSans-70" x="1228.027344"/>
    <use xlink:href="#DejaVuSans-72" x="1291.503906"/>
    <use xlink:href="#DejaVuSans-65" x="1330.367188"/>
    <use xlink:href="#DejaVuSans-2d" x="1391.890625"/>
    <use xlink:href="#DejaVuSans-73" x="1427.974609"/>
    <use xlink:href="#DejaVuSans-68" x="1480.074219"/>
    <use xlink:href="#DejaVuSans-6f" x="1543.453125"/>
    <use xlink:href="#DejaVuSans-63" x="1604.634766"/>
    <use xlink:href="#DejaVuSans-6b" x="1659.615234"/>
    <use xlink:href="#DejaVuSans-20" x="1717.525391"/>
    <use xlink:href="#DejaVuSans-6c" x="1749.3125"/>
    <use xlink:href="#DejaVuSans-65" x="1777.095703"/>
    <use xlink:href="#DejaVuSans-76" x="1838.619141"/>
    <use xlink:href="#DejaVuSans-65" x="1897.798828"/>
    <use xlink:href="#DejaVuSans-6c" x="1959.322266"/>
   </g>
  </g>
  <g id="legend_1">
   <g id="patch_20">
    <path d="M 11.82 584.31675 
L 1292.617547 584.31675 
Q 1297.237547 584.31675 1297.237547 579.69675 
L 1297.237547 476.97 
Q 1297.237547 472.35 1292.617547 472.35 
L 11.82 472.35 
Q 7.2 472.35 7.2 476.97 
L 7.2 579.69675 
Q 7.2 584.31675 11.82 584.31675 
z
" style="fill: #eaeaf2; opacity: 0.8; stroke: #cccccc; stroke-linejoin: miter"/>
   </g>
   <g id="text_29">
    <!-- Experiences -->
    <g style="fill: #262626" transform="translate(575.384367 500.738062) scale(0.252 -0.252)">
     <defs>
      <path id="DejaVuSans-45" d="M 628 4666 
L 3578 4666 
L 3578 4134 
L 1259 4134 
L 1259 2753 
L 3481 2753 
L 3481 2222 
L 1259 2222 
L 1259 531 
L 3634 531 
L 3634 0 
L 628 0 
L 628 4666 
z
" transform="scale(0.015625)"/>
      <path id="DejaVuSans-78" d="M 3513 3500 
L 2247 1797 
L 3578 0 
L 2900 0 
L 1881 1375 
L 863 0 
L 184 0 
L 1544 1831 
L 300 3500 
L 978 3500 
L 1906 2253 
L 2834 3500 
L 3513 3500 
z
" transform="scale(0.015625)"/>
     </defs>
     <use xlink:href="#DejaVuSans-45"/>
     <use xlink:href="#DejaVuSans-78" x="63.183594"/>
     <use xlink:href="#DejaVuSans-70" x="122.363281"/>
     <use xlink:href="#DejaVuSans-65" x="185.839844"/>
     <use xlink:href="#DejaVuSans-72" x="247.363281"/>
     <use xlink:href="#DejaVuSans-69" x="288.476562"/>
     <use xlink:href="#DejaVuSans-65" x="316.259766"/>
     <use xlink:href="#DejaVuSans-6e" x="377.783203"/>
     <use xlink:href="#DejaVuSans-63" x="441.162109"/>
     <use xlink:href="#DejaVuSans-65" x="496.142578"/>
     <use xlink:href="#DejaVuSans-73" x="557.666016"/>
    </g>
   </g>
   <g id="line2d_73">
    <path d="M 16.44 526.996266 
L 39.54 526.996266 
L 62.64 526.996266 
" style="fill: none; stroke: #4c72b0; stroke-opacity: 0.9; stroke-width: 3; stroke-linecap: round"/>
   </g>
   <g id="text_30">
    <!-- eora26_full_2000 -->
    <g style="fill: #262626" transform="translate(81.12 535.081266) scale(0.231 -0.231)">
     <defs>
      <path id="DejaVuSans-5f" d="M 3263 -1063 
L 3263 -1509 
L -63 -1509 
L -63 -1063 
L 3263 -1063 
z
" transform="scale(0.015625)"/>
     </defs>
     <use xlink:href="#DejaVuSans-65"/>
     <use xlink:href="#DejaVuSans-6f" x="61.523438"/>
     <use xlink:href="#DejaVuSans-72" x="122.705078"/>
     <use xlink:href="#DejaVuSans-61" x="163.818359"/>
     <use xlink:href="#DejaVuSans-32" x="225.097656"/>
     <use xlink:href="#DejaVuSans-36" x="288.720703"/>
     <use xlink:href="#DejaVuSans-5f" x="352.34375"/>
     <use xlink:href="#DejaVuSans-66" x="402.34375"/>
     <use xlink:href="#DejaVuSans-75" x="437.548828"/>
     <use xlink:href="#DejaVuSans-6c" x="500.927734"/>
     <use xlink:href="#DejaVuSans-6c" x="528.710938"/>
     <use xlink:href="#DejaVuSans-5f" x="556.494141"/>
     <use xlink:href="#DejaVuSans-32" x="606.494141"/>
     <use xlink:href="#DejaVuSans-30" x="670.117188"/>
     <use xlink:href="#DejaVuSans-30" x="733.740234"/>
     <use xlink:href="#DejaVuSans-30" x="797.363281"/>
    </g>
   </g>
   <g id="line2d_74">
    <path d="M 16.44 561.545203 
L 39.54 561.545203 
L 62.64 561.545203 
" style="fill: none; stroke: #dd8452; stroke-opacity: 0.9; stroke-width: 3; stroke-linecap: round"/>
   </g>
   <g id="text_31">
    <!-- eora26_full_2010 -->
    <g style="fill: #262626" transform="translate(81.12 569.630203) scale(0.231 -0.231)">
     <defs>
      <path id="DejaVuSans-31" d="M 794 531 
L 1825 531 
L 1825 4091 
L 703 3866 
L 703 4441 
L 1819 4666 
L 2450 4666 
L 2450 531 
L 3481 531 
L 3481 0 
L 794 0 
L 794 531 
z
" transform="scale(0.015625)"/>
     </defs>
     <use xlink:href="#DejaVuSans-65"/>
     <use xlink:href="#DejaVuSans-6f" x="61.523438"/>
     <use xlink:href="#DejaVuSans-72" x="122.705078"/>
     <use xlink:href="#DejaVuSans-61" x="163.818359"/>
     <use xlink:href="#DejaVuSans-32" x="225.097656"/>
     <use xlink:href="#DejaVuSans-36" x="288.720703"/>
     <use xlink:href="#DejaVuSans-5f" x="352.34375"/>
     <use xlink:href="#DejaVuSans-66" x="402.34375"/>
     <use xlink:href="#DejaVuSans-75" x="437.548828"/>
     <use xlink:href="#DejaVuSans-6c" x="500.927734"/>
     <use xlink:href="#DejaVuSans-6c" x="528.710938"/>
     <use xlink:href="#DejaVuSans-5f" x="556.494141"/>
     <use xlink:href="#DejaVuSans-32" x="606.494141"/>
     <use xlink:href="#DejaVuSans-30" x="670.117188"/>
     <use xlink:href="#DejaVuSans-31" x="733.740234"/>
     <use xlink:href="#DejaVuSans-30" x="797.363281"/>
    </g>
   </g>
   <g id="line2d_75">
    <path d="M 326.211 526.996266 
L 349.311 526.996266 
L 372.411 526.996266 
" style="fill: none; stroke: #55a868; stroke-opacity: 0.9; stroke-width: 3; stroke-linecap: round"/>
   </g>
   <g id="text_32">
    <!-- euregio_full_2000 -->
    <g style="fill: #262626" transform="translate(390.891 535.081266) scale(0.231 -0.231)">
     <use xlink:href="#DejaVuSans-65"/>
     <use xlink:href="#DejaVuSans-75" x="61.523438"/>
     <use xlink:href="#DejaVuSans-72" x="124.902344"/>
     <use xlink:href="#DejaVuSans-65" x="163.765625"/>
     <use xlink:href="#DejaVuSans-67" x="225.289062"/>
     <use xlink:href="#DejaVuSans-69" x="288.765625"/>
     <use xlink:href="#DejaVuSans-6f" x="316.548828"/>
     <use xlink:href="#DejaVuSans-5f" x="377.730469"/>
     <use xlink:href="#DejaVuSans-66" x="427.730469"/>
     <use xlink:href="#DejaVuSans-75" x="462.935547"/>
     <use xlink:href="#DejaVuSans-6c" x="526.314453"/>
     <use xlink:href="#DejaVuSans-6c" x="554.097656"/>
     <use xlink:href="#DejaVuSans-5f" x="581.880859"/>
     <use xlink:href="#DejaVuSans-32" x="631.880859"/>
     <use xlink:href="#DejaVuSans-30" x="695.503906"/>
     <use xlink:href="#DejaVuSans-30" x="759.126953"/>
     <use xlink:href="#DejaVuSans-30" x="822.75"/>
    </g>
   </g>
   <g id="line2d_76">
    <path d="M 326.211 561.545203 
L 349.311 561.545203 
L 372.411 561.545203 
" style="fill: none; stroke: #c44e52; stroke-opacity: 0.9; stroke-width: 3; stroke-linecap: round"/>
   </g>
   <g id="text_33">
    <!-- euregio_full_2010 -->
    <g style="fill: #262626" transform="translate(390.891 569.630203) scale(0.231 -0.231)">
     <use xlink:href="#DejaVuSans-65"/>
     <use xlink:href="#DejaVuSans-75" x="61.523438"/>
     <use xlink:href="#DejaVuSans-72" x="124.902344"/>
     <use xlink:href="#DejaVuSans-65" x="163.765625"/>
     <use xlink:href="#DejaVuSans-67" x="225.289062"/>
     <use xlink:href="#DejaVuSans-69" x="288.765625"/>
     <use xlink:href="#DejaVuSans-6f" x="316.548828"/>
     <use xlink:href="#DejaVuSans-5f" x="377.730469"/>
     <use xlink:href="#DejaVuSans-66" x="427.730469"/>
     <use xlink:href="#DejaVuSans-75" x="462.935547"/>
     <use xlink:href="#DejaVuSans-6c" x="526.314453"/>
     <use xlink:href="#DejaVuSans-6c" x="554.097656"/>
     <use xlink:href="#DejaVuSans-5f" x="581.880859"/>
     <use xlink:href="#DejaVuSans-32" x="631.880859"/>
     <use xlink:href="#DejaVuSans-30" x="695.503906"/>
     <use xlink:href="#DejaVuSans-31" x="759.126953"/>
     <use xlink:href="#DejaVuSans-30" x="822.75"/>
    </g>
   </g>
   <g id="line2d_77">
    <path d="M 641.847234 526.996266 
L 664.947234 526.996266 
L 688.047234 526.996266 
" style="fill: none; stroke: #8172b3; stroke-opacity: 0.9; stroke-width: 3; stroke-linecap: round"/>
   </g>
   <g id="text_34">
    <!-- exiobase3_full_2000 -->
    <g style="fill: #262626" transform="translate(706.527234 535.081266) scale(0.231 -0.231)">
     <defs>
      <path id="DejaVuSans-62" d="M 3116 1747 
Q 3116 2381 2855 2742 
Q 2594 3103 2138 3103 
Q 1681 3103 1420 2742 
Q 1159 2381 1159 1747 
Q 1159 1113 1420 752 
Q 1681 391 2138 391 
Q 2594 391 2855 752 
Q 3116 1113 3116 1747 
z
M 1159 2969 
Q 1341 3281 1617 3432 
Q 1894 3584 2278 3584 
Q 2916 3584 3314 3078 
Q 3713 2572 3713 1747 
Q 3713 922 3314 415 
Q 2916 -91 2278 -91 
Q 1894 -91 1617 61 
Q 1341 213 1159 525 
L 1159 0 
L 581 0 
L 581 4863 
L 1159 4863 
L 1159 2969 
z
" transform="scale(0.015625)"/>
     </defs>
     <use xlink:href="#DejaVuSans-65"/>
     <use xlink:href="#DejaVuSans-78" x="59.773438"/>
     <use xlink:href="#DejaVuSans-69" x="118.953125"/>
     <use xlink:href="#DejaVuSans-6f" x="146.736328"/>
     <use xlink:href="#DejaVuSans-62" x="207.917969"/>
     <use xlink:href="#DejaVuSans-61" x="271.394531"/>
     <use xlink:href="#DejaVuSans-73" x="332.673828"/>
     <use xlink:href="#DejaVuSans-65" x="384.773438"/>
     <use xlink:href="#DejaVuSans-33" x="446.296875"/>
     <use xlink:href="#DejaVuSans-5f" x="509.919922"/>
     <use xlink:href="#DejaVuSans-66" x="559.919922"/>
     <use xlink:href="#DejaVuSans-75" x="595.125"/>
     <use xlink:href="#DejaVuSans-6c" x="658.503906"/>
     <use xlink:href="#DejaVuSans-6c" x="686.287109"/>
     <use xlink:href="#DejaVuSans-5f" x="714.070312"/>
     <use xlink:href="#DejaVuSans-32" x="764.070312"/>
     <use xlink:href="#DejaVuSans-30" x="827.693359"/>
     <use xlink:href="#DejaVuSans-30" x="891.316406"/>
     <use xlink:href="#DejaVuSans-30" x="954.939453"/>
    </g>
   </g>
   <g id="line2d_78">
    <path d="M 988.022391 526.996266 
L 1011.122391 526.996266 
L 1034.222391 526.996266 
" style="fill: none; stroke: #937860; stroke-opacity: 0.9; stroke-width: 3; stroke-linecap: round"/>
   </g>
   <g id="text_35">
    <!-- exiobase3_full_2010 -->
    <g style="fill: #262626" transform="translate(1052.702391 535.081266) scale(0.231 -0.231)">
     <use xlink:href="#DejaVuSans-65"/>
     <use xlink:href="#DejaVuSans-78" x="59.773438"/>
     <use xlink:href="#DejaVuSans-69" x="118.953125"/>
     <use xlink:href="#DejaVuSans-6f" x="146.736328"/>
     <use xlink:href="#DejaVuSans-62" x="207.917969"/>
     <use xlink:href="#DejaVuSans-61" x="271.394531"/>
     <use xlink:href="#DejaVuSans-73" x="332.673828"/>
     <use xlink:href="#DejaVuSans-65" x="384.773438"/>
     <use xlink:href="#DejaVuSans-33" x="446.296875"/>
     <use xlink:href="#DejaVuSans-5f" x="509.919922"/>
     <use xlink:href="#DejaVuSans-66" x="559.919922"/>
     <use xlink:href="#DejaVuSans-75" x="595.125"/>
     <use xlink:href="#DejaVuSans-6c" x="658.503906"/>
     <use xlink:href="#DejaVuSans-6c" x="686.287109"/>
     <use xlink:href="#DejaVuSans-5f" x="714.070312"/>
     <use xlink:href="#DejaVuSans-32" x="764.070312"/>
     <use xlink:href="#DejaVuSans-30" x="827.693359"/>
     <use xlink:href="#DejaVuSans-31" x="891.316406"/>
     <use xlink:href="#DejaVuSans-30" x="954.939453"/>
    </g>
   </g>
  </g>
 </g>
 <defs>
  <clipPath id="pa5c62e352b">
   <rect x="189.250488" y="81.456" width="286.154263" height="114.506041"/>
  </clipPath>
  <clipPath id="p66ea0347e9">
   <rect x="501.852899" y="81.456" width="286.154263" height="114.506041"/>
  </clipPath>
  <clipPath id="pd4271a3ad0">
   <rect x="814.45531" y="81.456" width="286.154263" height="114.506041"/>
  </clipPath>
  <clipPath id="p3bc3f3232b">
   <rect x="189.250488" y="258.777959" width="286.154263" height="114.506041"/>
  </clipPath>
  <clipPath id="p35c1845d08">
   <rect x="501.852899" y="258.777959" width="286.154263" height="114.506041"/>
  </clipPath>
  <clipPath id="pa255261d1b">
   <rect x="814.45531" y="258.777959" width="286.154263" height="114.506041"/>
  </clipPath>
 </defs>
</svg>
