<?xml version="1.0" encoding="utf-8" standalone="no"?>
<!DOCTYPE svg PUBLIC "-//W3C//DTD SVG 1.1//EN"
  "http://www.w3.org/Graphics/SVG/1.1/DTD/svg11.dtd">
<svg xmlns:xlink="http://www.w3.org/1999/xlink" width="1237.494469pt" height="556.967813pt" viewBox="0 0 1237.494469 556.967813" xmlns="http://www.w3.org/2000/svg" version="1.1">
 <metadata>
  <rdf:RDF xmlns:dc="http://purl.org/dc/elements/1.1/" xmlns:cc="http://creativecommons.org/ns#" xmlns:rdf="http://www.w3.org/1999/02/22-rdf-syntax-ns#">
   <cc:Work>
    <dc:type rdf:resource="http://purl.org/dc/dcmitype/StillImage"/>
    <dc:date>2023-04-07T16:46:44.658107</dc:date>
    <dc:format>image/svg+xml</dc:format>
    <dc:creator>
     <cc:Agent>
      <dc:title>Matplotlib v3.7.1, https://matplotlib.org/</dc:title>
     </cc:Agent>
    </dc:creator>
   </cc:Work>
  </rdf:RDF>
 </metadata>
 <defs>
  <style type="text/css">*{stroke-linejoin: round; stroke-linecap: butt}</style>
 </defs>
 <g id="figure_1">
  <g id="patch_1">
   <path d="M -0 556.967813 
L 1237.494469 556.967813 
L 1237.494469 0 
L -0 0 
z
" style="fill: #ffffff"/>
  </g>
  <g id="axes_1">
   <g id="patch_2">
    <path d="M 119.522628 195.521917 
L 422.166926 195.521917 
L 422.166926 81.456 
L 119.522628 81.456 
z
" style="fill: #eaeaf2"/>
   </g>
   <g id="matplotlib.axis_1">
    <g id="xtick_1">
     <g id="line2d_1">
      <path d="M 133.279187 195.521917 
L 133.279187 81.456 
" clip-path="url(#pf86b353a62)" style="fill: none; stroke: #ffffff; stroke-linecap: round"/>
     </g>
    </g>
    <g id="xtick_2">
     <g id="line2d_2">
      <path d="M 227.631444 195.521917 
L 227.631444 81.456 
" clip-path="url(#pf86b353a62)" style="fill: none; stroke: #ffffff; stroke-linecap: round"/>
     </g>
    </g>
    <g id="xtick_3">
     <g id="line2d_3">
      <path d="M 321.9837 195.521917 
L 321.9837 81.456 
" clip-path="url(#pf86b353a62)" style="fill: none; stroke: #ffffff; stroke-linecap: round"/>
     </g>
    </g>
    <g id="xtick_4">
     <g id="line2d_4">
      <path d="M 416.335957 195.521917 
L 416.335957 81.456 
" clip-path="url(#pf86b353a62)" style="fill: none; stroke: #ffffff; stroke-linecap: round"/>
     </g>
    </g>
   </g>
   <g id="matplotlib.axis_2">
    <g id="ytick_1">
     <g id="line2d_5">
      <path d="M 119.522628 192.968277 
L 422.166926 192.968277 
" clip-path="url(#pf86b353a62)" style="fill: none; stroke: #ffffff; stroke-linecap: round"/>
     </g>
     <g id="text_1">
      <!-- −1 -->
      <g style="fill: #262626" transform="translate(75.968175 201.744472) scale(0.231 -0.231)">
       <defs>
        <path id="DejaVuSans-2212" d="M 678 2272 
L 4684 2272 
L 4684 1741 
L 678 1741 
L 678 2272 
z
" transform="scale(0.015625)"/>
        <path id="DejaVuSans-31" d="M 794 531 
L 1825 531 
L 1825 4091 
L 703 3866 
L 703 4441 
L 1819 4666 
L 2450 4666 
L 2450 531 
L 3481 531 
L 3481 0 
L 794 0 
L 794 531 
z
" transform="scale(0.015625)"/>
       </defs>
       <use xlink:href="#DejaVuSans-2212"/>
       <use xlink:href="#DejaVuSans-31" x="83.789062"/>
      </g>
     </g>
    </g>
    <g id="ytick_2">
     <g id="line2d_6">
      <path d="M 119.522628 127.214175 
L 422.166926 127.214175 
" clip-path="url(#pf86b353a62)" style="fill: none; stroke: #ffffff; stroke-linecap: round"/>
     </g>
     <g id="text_2">
      <!-- 0 -->
      <g style="fill: #262626" transform="translate(95.325253 135.99037) scale(0.231 -0.231)">
       <defs>
        <path id="DejaVuSans-30" d="M 2034 4250 
Q 1547 4250 1301 3770 
Q 1056 3291 1056 2328 
Q 1056 1369 1301 889 
Q 1547 409 2034 409 
Q 2525 409 2770 889 
Q 3016 1369 3016 2328 
Q 3016 3291 2770 3770 
Q 2525 4250 2034 4250 
z
M 2034 4750 
Q 2819 4750 3233 4129 
Q 3647 3509 3647 2328 
Q 3647 1150 3233 529 
Q 2819 -91 2034 -91 
Q 1250 -91 836 529 
Q 422 1150 422 2328 
Q 422 3509 836 4129 
Q 1250 4750 2034 4750 
z
" transform="scale(0.015625)"/>
       </defs>
       <use xlink:href="#DejaVuSans-30"/>
      </g>
     </g>
    </g>
    <g id="text_3">
     <!-- % change -->
     <g style="fill: #262626" transform="translate(66.727363 200.837302) rotate(-90) scale(0.252 -0.252)">
      <defs>
       <path id="DejaVuSans-25" d="M 4653 2053 
Q 4381 2053 4226 1822 
Q 4072 1591 4072 1178 
Q 4072 772 4226 539 
Q 4381 306 4653 306 
Q 4919 306 5073 539 
Q 5228 772 5228 1178 
Q 5228 1588 5073 1820 
Q 4919 2053 4653 2053 
z
M 4653 2450 
Q 5147 2450 5437 2106 
Q 5728 1763 5728 1178 
Q 5728 594 5436 251 
Q 5144 -91 4653 -91 
Q 4153 -91 3862 251 
Q 3572 594 3572 1178 
Q 3572 1766 3864 2108 
Q 4156 2450 4653 2450 
z
M 1428 4353 
Q 1159 4353 1004 4120 
Q 850 3888 850 3481 
Q 850 3069 1003 2837 
Q 1156 2606 1428 2606 
Q 1700 2606 1854 2837 
Q 2009 3069 2009 3481 
Q 2009 3884 1853 4118 
Q 1697 4353 1428 4353 
z
M 4250 4750 
L 4750 4750 
L 1831 -91 
L 1331 -91 
L 4250 4750 
z
M 1428 4750 
Q 1922 4750 2215 4408 
Q 2509 4066 2509 3481 
Q 2509 2891 2217 2550 
Q 1925 2209 1428 2209 
Q 931 2209 642 2551 
Q 353 2894 353 3481 
Q 353 4063 643 4406 
Q 934 4750 1428 4750 
z
" transform="scale(0.015625)"/>
       <path id="DejaVuSans-20" transform="scale(0.015625)"/>
       <path id="DejaVuSans-63" d="M 3122 3366 
L 3122 2828 
Q 2878 2963 2633 3030 
Q 2388 3097 2138 3097 
Q 1578 3097 1268 2742 
Q 959 2388 959 1747 
Q 959 1106 1268 751 
Q 1578 397 2138 397 
Q 2388 397 2633 464 
Q 2878 531 3122 666 
L 3122 134 
Q 2881 22 2623 -34 
Q 2366 -91 2075 -91 
Q 1284 -91 818 406 
Q 353 903 353 1747 
Q 353 2603 823 3093 
Q 1294 3584 2113 3584 
Q 2378 3584 2631 3529 
Q 2884 3475 3122 3366 
z
" transform="scale(0.015625)"/>
       <path id="DejaVuSans-68" d="M 3513 2113 
L 3513 0 
L 2938 0 
L 2938 2094 
Q 2938 2591 2744 2837 
Q 2550 3084 2163 3084 
Q 1697 3084 1428 2787 
Q 1159 2491 1159 1978 
L 1159 0 
L 581 0 
L 581 4863 
L 1159 4863 
L 1159 2956 
Q 1366 3272 1645 3428 
Q 1925 3584 2291 3584 
Q 2894 3584 3203 3211 
Q 3513 2838 3513 2113 
z
" transform="scale(0.015625)"/>
       <path id="DejaVuSans-61" d="M 2194 1759 
Q 1497 1759 1228 1600 
Q 959 1441 959 1056 
Q 959 750 1161 570 
Q 1363 391 1709 391 
Q 2188 391 2477 730 
Q 2766 1069 2766 1631 
L 2766 1759 
L 2194 1759 
z
M 3341 1997 
L 3341 0 
L 2766 0 
L 2766 531 
Q 2569 213 2275 61 
Q 1981 -91 1556 -91 
Q 1019 -91 701 211 
Q 384 513 384 1019 
Q 384 1609 779 1909 
Q 1175 2209 1959 2209 
L 2766 2209 
L 2766 2266 
Q 2766 2663 2505 2880 
Q 2244 3097 1772 3097 
Q 1472 3097 1187 3025 
Q 903 2953 641 2809 
L 641 3341 
Q 956 3463 1253 3523 
Q 1550 3584 1831 3584 
Q 2591 3584 2966 3190 
Q 3341 2797 3341 1997 
z
" transform="scale(0.015625)"/>
       <path id="DejaVuSans-6e" d="M 3513 2113 
L 3513 0 
L 2938 0 
L 2938 2094 
Q 2938 2591 2744 2837 
Q 2550 3084 2163 3084 
Q 1697 3084 1428 2787 
Q 1159 2491 1159 1978 
L 1159 0 
L 581 0 
L 581 3500 
L 1159 3500 
L 1159 2956 
Q 1366 3272 1645 3428 
Q 1925 3584 2291 3584 
Q 2894 3584 3203 3211 
Q 3513 2838 3513 2113 
z
" transform="scale(0.015625)"/>
       <path id="DejaVuSans-67" d="M 2906 1791 
Q 2906 2416 2648 2759 
Q 2391 3103 1925 3103 
Q 1463 3103 1205 2759 
Q 947 2416 947 1791 
Q 947 1169 1205 825 
Q 1463 481 1925 481 
Q 2391 481 2648 825 
Q 2906 1169 2906 1791 
z
M 3481 434 
Q 3481 -459 3084 -895 
Q 2688 -1331 1869 -1331 
Q 1566 -1331 1297 -1286 
Q 1028 -1241 775 -1147 
L 775 -588 
Q 1028 -725 1275 -790 
Q 1522 -856 1778 -856 
Q 2344 -856 2625 -561 
Q 2906 -266 2906 331 
L 2906 616 
Q 2728 306 2450 153 
Q 2172 0 1784 0 
Q 1141 0 747 490 
Q 353 981 353 1791 
Q 353 2603 747 3093 
Q 1141 3584 1784 3584 
Q 2172 3584 2450 3431 
Q 2728 3278 2906 2969 
L 2906 3500 
L 3481 3500 
L 3481 434 
z
" transform="scale(0.015625)"/>
       <path id="DejaVuSans-65" d="M 3597 1894 
L 3597 1613 
L 953 1613 
Q 991 1019 1311 708 
Q 1631 397 2203 397 
Q 2534 397 2845 478 
Q 3156 559 3463 722 
L 3463 178 
Q 3153 47 2828 -22 
Q 2503 -91 2169 -91 
Q 1331 -91 842 396 
Q 353 884 353 1716 
Q 353 2575 817 3079 
Q 1281 3584 2069 3584 
Q 2775 3584 3186 3129 
Q 3597 2675 3597 1894 
z
M 3022 2063 
Q 3016 2534 2758 2815 
Q 2500 3097 2075 3097 
Q 1594 3097 1305 2825 
Q 1016 2553 972 2059 
L 3022 2063 
z
" transform="scale(0.015625)"/>
      </defs>
      <use xlink:href="#DejaVuSans-25"/>
      <use xlink:href="#DejaVuSans-20" x="95.019531"/>
      <use xlink:href="#DejaVuSans-63" x="126.806641"/>
      <use xlink:href="#DejaVuSans-68" x="181.787109"/>
      <use xlink:href="#DejaVuSans-61" x="245.166016"/>
      <use xlink:href="#DejaVuSans-6e" x="306.445312"/>
      <use xlink:href="#DejaVuSans-67" x="369.824219"/>
      <use xlink:href="#DejaVuSans-65" x="433.300781"/>
     </g>
    </g>
   </g>
   <g id="PolyCollection_1"/>
   <g id="PolyCollection_2"/>
   <g id="PolyCollection_3"/>
   <g id="PolyCollection_4"/>
   <g id="line2d_7">
    <path d="M 133.279187 127.214175 
L 133.656597 180.151789 
L 134.034006 181.82019 
L 134.411415 182.077561 
L 135.166233 181.711635 
L 138.940323 179.027554 
L 139.695141 176.915976 
L 144.601458 162.116542 
L 148.752958 150.396511 
L 153.281866 138.606652 
L 156.301138 131.144809 
L 157.810774 128.405714 
L 160.452637 124.044027 
L 161.584864 122.33923 
L 162.339682 122.176703 
L 164.226728 122.215621 
L 177.813453 123.426677 
L 187.248678 123.978074 
L 198.570949 124.493689 
L 204.986902 124.814062 
L 211.025447 125.154158 
L 218.573627 125.314931 
L 237.821488 125.475545 
L 279.33648 125.558459 
L 408.410367 125.570681 
L 408.410367 125.570681 
" clip-path="url(#pf86b353a62)" style="fill: none; stroke: #4c72b0; stroke-opacity: 0.9; stroke-width: 3; stroke-linecap: round"/>
   </g>
   <g id="line2d_8">
    <path d="M 133.279187 127.214175 
L 133.656597 156.086648 
L 134.034006 157.221216 
L 134.411415 157.533089 
L 135.166233 157.489786 
L 137.808096 156.609203 
L 138.940323 156.226967 
L 139.695141 155.158306 
L 147.998139 141.853585 
L 152.149639 135.696939 
L 156.301138 130.024533 
L 157.433365 128.776469 
L 161.584864 124.763988 
L 163.094501 124.693087 
L 168.000818 124.688618 
L 192.532405 125.408956 
L 196.683904 125.530081 
L 238.198897 126.034428 
L 263.107892 126.071227 
L 408.410367 126.085585 
L 408.410367 126.085585 
" clip-path="url(#pf86b353a62)" style="fill: none; stroke: #dd8452; stroke-opacity: 0.9; stroke-width: 3; stroke-linecap: round"/>
   </g>
   <g id="line2d_9">
    <path d="M 133.279187 127.214175 
L 133.656597 182.68897 
L 134.034006 185.505259 
L 134.411415 186.032278 
L 134.788824 185.988102 
L 135.921051 185.263491 
L 138.940323 183.154929 
L 139.695141 180.903964 
L 145.733685 161.483471 
L 149.885185 148.905894 
L 153.659275 138.064638 
L 156.301138 131.039184 
L 157.810774 127.804264 
L 159.697819 124.3781 
L 160.830046 122.81462 
L 161.584864 121.922939 
L 162.339682 121.796673 
L 166.491182 122.15057 
L 187.248678 124.100495 
L 192.909814 124.608204 
L 200.457994 125.06606 
L 209.515811 125.39477 
L 222.347718 125.62465 
L 244.237441 125.766455 
L 295.187659 125.823789 
L 408.410367 125.824546 
L 408.410367 125.824546 
" clip-path="url(#pf86b353a62)" style="fill: none; stroke: #55a868; stroke-opacity: 0.9; stroke-width: 3; stroke-linecap: round"/>
   </g>
   <g id="line2d_10">
    <path d="M 133.279187 127.214175 
L 133.656597 170.812766 
L 134.034006 173.070345 
L 134.411415 173.47977 
L 134.788824 173.436001 
L 135.921051 172.847305 
L 138.940323 171.142371 
L 139.695141 169.375823 
L 145.733685 154.068846 
L 149.885185 144.17042 
L 154.036684 134.874628 
L 156.301138 130.19835 
L 157.810774 127.697052 
L 159.697819 125.042902 
L 160.830046 123.886365 
L 161.584864 123.212216 
L 162.339682 123.114655 
L 169.510454 123.55185 
L 187.248678 124.66979 
L 192.909814 125.072187 
L 202.345039 125.493701 
L 214.044719 125.76593 
L 233.292579 125.93761 
L 270.656073 126.013574 
L 408.410367 126.01899 
L 408.410367 126.01899 
" clip-path="url(#pf86b353a62)" style="fill: none; stroke: #c44e52; stroke-opacity: 0.9; stroke-width: 3; stroke-linecap: round"/>
   </g>
   <g id="patch_3">
    <path d="M 119.522628 195.521917 
L 119.522628 81.456 
" style="fill: none; stroke: #ffffff; stroke-width: 1.25; stroke-linejoin: miter; stroke-linecap: square"/>
   </g>
   <g id="patch_4">
    <path d="M 119.522628 195.521917 
L 422.166926 195.521917 
" style="fill: none; stroke: #ffffff; stroke-width: 1.25; stroke-linejoin: miter; stroke-linecap: square"/>
   </g>
   <g id="text_4">
    <!-- 0.5~30 -->
    <g style="fill: #262626" transform="translate(224.214934 75.456) scale(0.252 -0.252)">
     <defs>
      <path id="DejaVuSans-2e" d="M 684 794 
L 1344 794 
L 1344 0 
L 684 0 
L 684 794 
z
" transform="scale(0.015625)"/>
      <path id="DejaVuSans-35" d="M 691 4666 
L 3169 4666 
L 3169 4134 
L 1269 4134 
L 1269 2991 
Q 1406 3038 1543 3061 
Q 1681 3084 1819 3084 
Q 2600 3084 3056 2656 
Q 3513 2228 3513 1497 
Q 3513 744 3044 326 
Q 2575 -91 1722 -91 
Q 1428 -91 1123 -41 
Q 819 9 494 109 
L 494 744 
Q 775 591 1075 516 
Q 1375 441 1709 441 
Q 2250 441 2565 725 
Q 2881 1009 2881 1497 
Q 2881 1984 2565 2268 
Q 2250 2553 1709 2553 
Q 1456 2553 1204 2497 
Q 953 2441 691 2322 
L 691 4666 
z
" transform="scale(0.015625)"/>
      <path id="DejaVuSans-7e" d="M 4684 2553 
L 4684 1997 
Q 4356 1750 4076 1644 
Q 3797 1538 3494 1538 
Q 3150 1538 2694 1722 
Q 2659 1734 2644 1741 
Q 2622 1750 2575 1766 
Q 2091 1959 1797 1959 
Q 1522 1959 1253 1839 
Q 984 1719 678 1459 
L 678 2016 
Q 1006 2263 1286 2370 
Q 1566 2478 1869 2478 
Q 2213 2478 2672 2291 
Q 2703 2278 2719 2272 
Q 2744 2263 2788 2247 
Q 3272 2053 3566 2053 
Q 3834 2053 4098 2172 
Q 4363 2291 4684 2553 
z
" transform="scale(0.015625)"/>
      <path id="DejaVuSans-33" d="M 2597 2516 
Q 3050 2419 3304 2112 
Q 3559 1806 3559 1356 
Q 3559 666 3084 287 
Q 2609 -91 1734 -91 
Q 1441 -91 1130 -33 
Q 819 25 488 141 
L 488 750 
Q 750 597 1062 519 
Q 1375 441 1716 441 
Q 2309 441 2620 675 
Q 2931 909 2931 1356 
Q 2931 1769 2642 2001 
Q 2353 2234 1838 2234 
L 1294 2234 
L 1294 2753 
L 1863 2753 
Q 2328 2753 2575 2939 
Q 2822 3125 2822 3475 
Q 2822 3834 2567 4026 
Q 2313 4219 1838 4219 
Q 1578 4219 1281 4162 
Q 984 4106 628 3988 
L 628 4550 
Q 988 4650 1302 4700 
Q 1616 4750 1894 4750 
Q 2613 4750 3031 4423 
Q 3450 4097 3450 3541 
Q 3450 3153 3228 2886 
Q 3006 2619 2597 2516 
z
" transform="scale(0.015625)"/>
     </defs>
     <use xlink:href="#DejaVuSans-30"/>
     <use xlink:href="#DejaVuSans-2e" x="63.623047"/>
     <use xlink:href="#DejaVuSans-35" x="95.410156"/>
     <use xlink:href="#DejaVuSans-7e" x="159.033203"/>
     <use xlink:href="#DejaVuSans-33" x="242.822266"/>
     <use xlink:href="#DejaVuSans-30" x="306.445312"/>
    </g>
   </g>
  </g>
  <g id="axes_2">
   <g id="patch_5">
    <path d="M 449.025483 195.521917 
L 751.66978 195.521917 
L 751.66978 81.456 
L 449.025483 81.456 
z
" style="fill: #eaeaf2"/>
   </g>
   <g id="matplotlib.axis_3">
    <g id="xtick_5">
     <g id="line2d_11">
      <path d="M 462.782042 195.521917 
L 462.782042 81.456 
" clip-path="url(#p942a63c077)" style="fill: none; stroke: #ffffff; stroke-linecap: round"/>
     </g>
    </g>
    <g id="xtick_6">
     <g id="line2d_12">
      <path d="M 557.134298 195.521917 
L 557.134298 81.456 
" clip-path="url(#p942a63c077)" style="fill: none; stroke: #ffffff; stroke-linecap: round"/>
     </g>
    </g>
    <g id="xtick_7">
     <g id="line2d_13">
      <path d="M 651.486554 195.521917 
L 651.486554 81.456 
" clip-path="url(#p942a63c077)" style="fill: none; stroke: #ffffff; stroke-linecap: round"/>
     </g>
    </g>
    <g id="xtick_8">
     <g id="line2d_14">
      <path d="M 745.838811 195.521917 
L 745.838811 81.456 
" clip-path="url(#p942a63c077)" style="fill: none; stroke: #ffffff; stroke-linecap: round"/>
     </g>
    </g>
   </g>
   <g id="matplotlib.axis_4">
    <g id="ytick_3">
     <g id="line2d_15">
      <path d="M 449.025483 192.968277 
L 751.66978 192.968277 
" clip-path="url(#p942a63c077)" style="fill: none; stroke: #ffffff; stroke-linecap: round"/>
     </g>
    </g>
    <g id="ytick_4">
     <g id="line2d_16">
      <path d="M 449.025483 127.214175 
L 751.66978 127.214175 
" clip-path="url(#p942a63c077)" style="fill: none; stroke: #ffffff; stroke-linecap: round"/>
     </g>
    </g>
   </g>
   <g id="PolyCollection_5"/>
   <g id="PolyCollection_6"/>
   <g id="PolyCollection_7"/>
   <g id="PolyCollection_8"/>
   <g id="line2d_17">
    <path d="M 462.782042 127.214175 
L 463.159451 180.151789 
L 463.53686 182.033336 
L 463.914269 182.536927 
L 464.669087 182.679578 
L 468.443177 182.461493 
L 469.197995 180.827239 
L 481.275084 150.659218 
L 490.710309 127.418826 
L 491.087718 126.58362 
L 491.842537 126.476128 
L 512.222624 126.480577 
L 595.25261 126.933785 
L 636.390193 127.02464 
L 737.913221 127.057829 
L 737.913221 127.057829 
" clip-path="url(#p942a63c077)" style="fill: none; stroke: #4c72b0; stroke-opacity: 0.9; stroke-width: 3; stroke-linecap: round"/>
   </g>
   <g id="line2d_18">
    <path d="M 462.782042 127.214175 
L 463.159451 156.086648 
L 463.53686 157.319934 
L 463.914269 157.747092 
L 464.669087 157.946526 
L 466.933541 157.91463 
L 468.443177 157.868945 
L 469.197995 157.033319 
L 472.972085 151.830682 
L 490.3329 127.963724 
L 491.087718 127.021843 
L 491.465128 126.880104 
L 503.164807 126.849235 
L 543.547573 126.883281 
L 584.685157 127.013119 
L 607.329698 127.071174 
L 726.590951 127.111512 
L 737.913221 127.111457 
L 737.913221 127.111457 
" clip-path="url(#p942a63c077)" style="fill: none; stroke: #dd8452; stroke-opacity: 0.9; stroke-width: 3; stroke-linecap: round"/>
   </g>
   <g id="line2d_19">
    <path d="M 462.782042 127.214175 
L 463.159451 182.68897 
L 463.53686 185.715167 
L 463.914269 186.485745 
L 464.291678 186.692695 
L 465.046496 186.736259 
L 468.443177 186.526328 
L 469.197995 184.754929 
L 477.878403 161.412268 
L 490.3329 128.253756 
L 491.087718 126.539738 
L 491.842537 126.428478 
L 519.015986 126.360867 
L 548.076481 126.518907 
L 592.988155 126.990575 
L 632.993512 127.076443 
L 737.913221 127.088897 
L 737.913221 127.088897 
" clip-path="url(#p942a63c077)" style="fill: none; stroke: #55a868; stroke-opacity: 0.9; stroke-width: 3; stroke-linecap: round"/>
   </g>
   <g id="line2d_20">
    <path d="M 462.782042 127.214175 
L 463.159451 170.812766 
L 463.53686 173.239012 
L 463.914269 173.845057 
L 464.291678 174.00403 
L 465.423905 174.022222 
L 468.443177 173.87125 
L 469.197995 172.490781 
L 477.500994 154.939628 
L 490.3329 128.064213 
L 491.087718 126.742243 
L 491.842537 126.631922 
L 522.790077 126.568767 
L 551.473163 126.717323 
L 594.120383 127.019173 
L 622.04865 127.087892 
L 731.874677 127.108047 
L 737.913221 127.107978 
L 737.913221 127.107978 
" clip-path="url(#p942a63c077)" style="fill: none; stroke: #c44e52; stroke-opacity: 0.9; stroke-width: 3; stroke-linecap: round"/>
   </g>
   <g id="patch_6">
    <path d="M 449.025483 195.521917 
L 449.025483 81.456 
" style="fill: none; stroke: #ffffff; stroke-width: 1.25; stroke-linejoin: miter; stroke-linecap: square"/>
   </g>
   <g id="patch_7">
    <path d="M 449.025483 195.521917 
L 751.66978 195.521917 
" style="fill: none; stroke: #ffffff; stroke-width: 1.25; stroke-linejoin: miter; stroke-linecap: square"/>
   </g>
   <g id="text_5">
    <!-- 0.5~365 -->
    <g style="fill: #262626" transform="translate(545.701038 75.456) scale(0.252 -0.252)">
     <defs>
      <path id="DejaVuSans-36" d="M 2113 2584 
Q 1688 2584 1439 2293 
Q 1191 2003 1191 1497 
Q 1191 994 1439 701 
Q 1688 409 2113 409 
Q 2538 409 2786 701 
Q 3034 994 3034 1497 
Q 3034 2003 2786 2293 
Q 2538 2584 2113 2584 
z
M 3366 4563 
L 3366 3988 
Q 3128 4100 2886 4159 
Q 2644 4219 2406 4219 
Q 1781 4219 1451 3797 
Q 1122 3375 1075 2522 
Q 1259 2794 1537 2939 
Q 1816 3084 2150 3084 
Q 2853 3084 3261 2657 
Q 3669 2231 3669 1497 
Q 3669 778 3244 343 
Q 2819 -91 2113 -91 
Q 1303 -91 875 529 
Q 447 1150 447 2328 
Q 447 3434 972 4092 
Q 1497 4750 2381 4750 
Q 2619 4750 2861 4703 
Q 3103 4656 3366 4563 
z
" transform="scale(0.015625)"/>
     </defs>
     <use xlink:href="#DejaVuSans-30"/>
     <use xlink:href="#DejaVuSans-2e" x="63.623047"/>
     <use xlink:href="#DejaVuSans-35" x="95.410156"/>
     <use xlink:href="#DejaVuSans-7e" x="159.033203"/>
     <use xlink:href="#DejaVuSans-33" x="242.822266"/>
     <use xlink:href="#DejaVuSans-36" x="306.445312"/>
     <use xlink:href="#DejaVuSans-35" x="370.068359"/>
    </g>
   </g>
  </g>
  <g id="axes_3">
   <g id="patch_8">
    <path d="M 778.528337 195.521917 
L 1081.172634 195.521917 
L 1081.172634 81.456 
L 778.528337 81.456 
z
" style="fill: #eaeaf2"/>
   </g>
   <g id="matplotlib.axis_5">
    <g id="xtick_9">
     <g id="line2d_21">
      <path d="M 792.284896 195.521917 
L 792.284896 81.456 
" clip-path="url(#peccbae6d00)" style="fill: none; stroke: #ffffff; stroke-linecap: round"/>
     </g>
    </g>
    <g id="xtick_10">
     <g id="line2d_22">
      <path d="M 886.637152 195.521917 
L 886.637152 81.456 
" clip-path="url(#peccbae6d00)" style="fill: none; stroke: #ffffff; stroke-linecap: round"/>
     </g>
    </g>
    <g id="xtick_11">
     <g id="line2d_23">
      <path d="M 980.989409 195.521917 
L 980.989409 81.456 
" clip-path="url(#peccbae6d00)" style="fill: none; stroke: #ffffff; stroke-linecap: round"/>
     </g>
    </g>
    <g id="xtick_12">
     <g id="line2d_24">
      <path d="M 1075.341665 195.521917 
L 1075.341665 81.456 
" clip-path="url(#peccbae6d00)" style="fill: none; stroke: #ffffff; stroke-linecap: round"/>
     </g>
    </g>
   </g>
   <g id="matplotlib.axis_6">
    <g id="ytick_5">
     <g id="line2d_25">
      <path d="M 778.528337 192.968277 
L 1081.172634 192.968277 
" clip-path="url(#peccbae6d00)" style="fill: none; stroke: #ffffff; stroke-linecap: round"/>
     </g>
    </g>
    <g id="ytick_6">
     <g id="line2d_26">
      <path d="M 778.528337 127.214175 
L 1081.172634 127.214175 
" clip-path="url(#peccbae6d00)" style="fill: none; stroke: #ffffff; stroke-linecap: round"/>
     </g>
    </g>
   </g>
   <g id="PolyCollection_9"/>
   <g id="PolyCollection_10"/>
   <g id="PolyCollection_11"/>
   <g id="PolyCollection_12"/>
   <g id="line2d_27">
    <path d="M 792.284896 127.214175 
L 792.662305 180.151789 
L 793.039714 181.82019 
L 793.417123 182.077561 
L 794.171941 181.711635 
L 797.946031 179.027554 
L 798.700849 176.915976 
L 803.607166 162.116542 
L 807.758666 150.396511 
L 812.287574 138.606652 
L 815.306846 131.144809 
L 816.816482 128.405714 
L 819.458346 124.044027 
L 820.590573 122.33923 
L 821.345391 122.176703 
L 823.232436 122.215621 
L 836.819161 123.426677 
L 846.254386 123.978074 
L 857.576657 124.493689 
L 863.992611 124.814062 
L 870.031155 125.154158 
L 877.579335 125.314931 
L 896.827196 125.475545 
L 938.342189 125.558459 
L 1067.416075 125.570681 
L 1067.416075 125.570681 
" clip-path="url(#peccbae6d00)" style="fill: none; stroke: #4c72b0; stroke-opacity: 0.9; stroke-width: 3; stroke-linecap: round"/>
   </g>
   <g id="line2d_28">
    <path d="M 792.284896 127.214175 
L 792.662305 156.086648 
L 793.039714 157.221216 
L 793.417123 157.533089 
L 794.171941 157.489786 
L 796.813804 156.609203 
L 797.946031 156.226967 
L 798.700849 155.158306 
L 807.003848 141.853585 
L 811.155347 135.696939 
L 815.306846 130.024533 
L 816.439073 128.776469 
L 820.590573 124.763988 
L 822.100209 124.693087 
L 827.006526 124.688618 
L 851.538113 125.408956 
L 855.689612 125.530081 
L 897.204605 126.034428 
L 922.1136 126.071227 
L 1067.416075 126.085585 
L 1067.416075 126.085585 
" clip-path="url(#peccbae6d00)" style="fill: none; stroke: #dd8452; stroke-opacity: 0.9; stroke-width: 3; stroke-linecap: round"/>
   </g>
   <g id="line2d_29">
    <path d="M 792.284896 127.214175 
L 792.662305 182.68897 
L 793.039714 185.505259 
L 793.417123 186.032278 
L 793.794532 185.988102 
L 794.926759 185.263491 
L 797.946031 183.154929 
L 798.700849 180.903964 
L 804.739394 161.483471 
L 808.890893 148.905894 
L 812.664983 138.064638 
L 815.306846 131.039184 
L 816.816482 127.804264 
L 818.703527 124.3781 
L 819.835755 122.81462 
L 820.590573 121.922939 
L 821.345391 121.796673 
L 825.49689 122.15057 
L 846.254386 124.100495 
L 851.915522 124.608204 
L 859.463702 125.06606 
L 868.521519 125.39477 
L 881.353426 125.62465 
L 903.243149 125.766455 
L 954.193368 125.823789 
L 1067.416075 125.824546 
L 1067.416075 125.824546 
" clip-path="url(#peccbae6d00)" style="fill: none; stroke: #55a868; stroke-opacity: 0.9; stroke-width: 3; stroke-linecap: round"/>
   </g>
   <g id="line2d_30">
    <path d="M 792.284896 127.214175 
L 792.662305 170.812766 
L 793.039714 173.070345 
L 793.417123 173.47977 
L 793.794532 173.436001 
L 794.926759 172.847305 
L 797.946031 171.142371 
L 798.700849 169.375823 
L 804.739394 154.068846 
L 808.890893 144.17042 
L 813.042392 134.874628 
L 815.306846 130.19835 
L 816.816482 127.697052 
L 818.703527 125.042902 
L 819.835755 123.886365 
L 820.590573 123.212216 
L 821.345391 123.114655 
L 828.516162 123.55185 
L 846.254386 124.66979 
L 851.915522 125.072187 
L 861.350747 125.493701 
L 873.050427 125.76593 
L 892.298287 125.93761 
L 929.661781 126.013574 
L 1067.416075 126.01899 
L 1067.416075 126.01899 
" clip-path="url(#peccbae6d00)" style="fill: none; stroke: #c44e52; stroke-opacity: 0.9; stroke-width: 3; stroke-linecap: round"/>
   </g>
   <g id="patch_9">
    <path d="M 778.528337 195.521917 
L 778.528337 81.456 
" style="fill: none; stroke: #ffffff; stroke-width: 1.25; stroke-linejoin: miter; stroke-linecap: square"/>
   </g>
   <g id="patch_10">
    <path d="M 778.528337 195.521917 
L 1081.172634 195.521917 
" style="fill: none; stroke: #ffffff; stroke-width: 1.25; stroke-linejoin: miter; stroke-linecap: square"/>
   </g>
   <g id="text_6">
    <!-- 0.8~30 -->
    <g style="fill: #262626" transform="translate(883.220642 75.456) scale(0.252 -0.252)">
     <defs>
      <path id="DejaVuSans-38" d="M 2034 2216 
Q 1584 2216 1326 1975 
Q 1069 1734 1069 1313 
Q 1069 891 1326 650 
Q 1584 409 2034 409 
Q 2484 409 2743 651 
Q 3003 894 3003 1313 
Q 3003 1734 2745 1975 
Q 2488 2216 2034 2216 
z
M 1403 2484 
Q 997 2584 770 2862 
Q 544 3141 544 3541 
Q 544 4100 942 4425 
Q 1341 4750 2034 4750 
Q 2731 4750 3128 4425 
Q 3525 4100 3525 3541 
Q 3525 3141 3298 2862 
Q 3072 2584 2669 2484 
Q 3125 2378 3379 2068 
Q 3634 1759 3634 1313 
Q 3634 634 3220 271 
Q 2806 -91 2034 -91 
Q 1263 -91 848 271 
Q 434 634 434 1313 
Q 434 1759 690 2068 
Q 947 2378 1403 2484 
z
M 1172 3481 
Q 1172 3119 1398 2916 
Q 1625 2713 2034 2713 
Q 2441 2713 2670 2916 
Q 2900 3119 2900 3481 
Q 2900 3844 2670 4047 
Q 2441 4250 2034 4250 
Q 1625 4250 1398 4047 
Q 1172 3844 1172 3481 
z
" transform="scale(0.015625)"/>
     </defs>
     <use xlink:href="#DejaVuSans-30"/>
     <use xlink:href="#DejaVuSans-2e" x="63.623047"/>
     <use xlink:href="#DejaVuSans-38" x="95.410156"/>
     <use xlink:href="#DejaVuSans-7e" x="159.033203"/>
     <use xlink:href="#DejaVuSans-33" x="242.822266"/>
     <use xlink:href="#DejaVuSans-30" x="306.445312"/>
    </g>
   </g>
  </g>
  <g id="axes_4">
   <g id="patch_11">
    <path d="M 119.522628 373.284 
L 422.166926 373.284 
L 422.166926 259.218083 
L 119.522628 259.218083 
z
" style="fill: #eaeaf2"/>
   </g>
   <g id="matplotlib.axis_7">
    <g id="xtick_13">
     <g id="line2d_31">
      <path d="M 133.279187 373.284 
L 133.279187 259.218083 
" clip-path="url(#p0df04b888a)" style="fill: none; stroke: #ffffff; stroke-linecap: round"/>
     </g>
     <g id="text_7">
      <!-- 0 -->
      <g style="fill: #262626" transform="translate(125.9305 400.336391) scale(0.231 -0.231)">
       <use xlink:href="#DejaVuSans-30"/>
      </g>
     </g>
    </g>
    <g id="xtick_14">
     <g id="line2d_32">
      <path d="M 227.631444 373.284 
L 227.631444 259.218083 
" clip-path="url(#p0df04b888a)" style="fill: none; stroke: #ffffff; stroke-linecap: round"/>
     </g>
     <g id="text_8">
      <!-- 250 -->
      <g style="fill: #262626" transform="translate(205.585381 400.336391) scale(0.231 -0.231)">
       <defs>
        <path id="DejaVuSans-32" d="M 1228 531 
L 3431 531 
L 3431 0 
L 469 0 
L 469 531 
Q 828 903 1448 1529 
Q 2069 2156 2228 2338 
Q 2531 2678 2651 2914 
Q 2772 3150 2772 3378 
Q 2772 3750 2511 3984 
Q 2250 4219 1831 4219 
Q 1534 4219 1204 4116 
Q 875 4013 500 3803 
L 500 4441 
Q 881 4594 1212 4672 
Q 1544 4750 1819 4750 
Q 2544 4750 2975 4387 
Q 3406 4025 3406 3419 
Q 3406 3131 3298 2873 
Q 3191 2616 2906 2266 
Q 2828 2175 2409 1742 
Q 1991 1309 1228 531 
z
" transform="scale(0.015625)"/>
       </defs>
       <use xlink:href="#DejaVuSans-32"/>
       <use xlink:href="#DejaVuSans-35" x="63.623047"/>
       <use xlink:href="#DejaVuSans-30" x="127.246094"/>
      </g>
     </g>
    </g>
    <g id="xtick_15">
     <g id="line2d_33">
      <path d="M 321.9837 373.284 
L 321.9837 259.218083 
" clip-path="url(#p0df04b888a)" style="fill: none; stroke: #ffffff; stroke-linecap: round"/>
     </g>
     <g id="text_9">
      <!-- 500 -->
      <g style="fill: #262626" transform="translate(299.937638 400.336391) scale(0.231 -0.231)">
       <use xlink:href="#DejaVuSans-35"/>
       <use xlink:href="#DejaVuSans-30" x="63.623047"/>
       <use xlink:href="#DejaVuSans-30" x="127.246094"/>
      </g>
     </g>
    </g>
    <g id="xtick_16">
     <g id="line2d_34">
      <path d="M 416.335957 373.284 
L 416.335957 259.218083 
" clip-path="url(#p0df04b888a)" style="fill: none; stroke: #ffffff; stroke-linecap: round"/>
     </g>
     <g id="text_10">
      <!-- 750 -->
      <g style="fill: #262626" transform="translate(394.289894 400.336391) scale(0.231 -0.231)">
       <defs>
        <path id="DejaVuSans-37" d="M 525 4666 
L 3525 4666 
L 3525 4397 
L 1831 0 
L 1172 0 
L 2766 4134 
L 525 4134 
L 525 4666 
z
" transform="scale(0.015625)"/>
       </defs>
       <use xlink:href="#DejaVuSans-37"/>
       <use xlink:href="#DejaVuSans-35" x="63.623047"/>
       <use xlink:href="#DejaVuSans-30" x="127.246094"/>
      </g>
     </g>
    </g>
    <g id="text_11">
     <!-- step -->
     <g style="fill: #262626" transform="translate(243.589402 428.288531) scale(0.252 -0.252)">
      <defs>
       <path id="DejaVuSans-73" d="M 2834 3397 
L 2834 2853 
Q 2591 2978 2328 3040 
Q 2066 3103 1784 3103 
Q 1356 3103 1142 2972 
Q 928 2841 928 2578 
Q 928 2378 1081 2264 
Q 1234 2150 1697 2047 
L 1894 2003 
Q 2506 1872 2764 1633 
Q 3022 1394 3022 966 
Q 3022 478 2636 193 
Q 2250 -91 1575 -91 
Q 1294 -91 989 -36 
Q 684 19 347 128 
L 347 722 
Q 666 556 975 473 
Q 1284 391 1588 391 
Q 1994 391 2212 530 
Q 2431 669 2431 922 
Q 2431 1156 2273 1281 
Q 2116 1406 1581 1522 
L 1381 1569 
Q 847 1681 609 1914 
Q 372 2147 372 2553 
Q 372 3047 722 3315 
Q 1072 3584 1716 3584 
Q 2034 3584 2315 3537 
Q 2597 3491 2834 3397 
z
" transform="scale(0.015625)"/>
       <path id="DejaVuSans-74" d="M 1172 4494 
L 1172 3500 
L 2356 3500 
L 2356 3053 
L 1172 3053 
L 1172 1153 
Q 1172 725 1289 603 
Q 1406 481 1766 481 
L 2356 481 
L 2356 0 
L 1766 0 
Q 1100 0 847 248 
Q 594 497 594 1153 
L 594 3053 
L 172 3053 
L 172 3500 
L 594 3500 
L 594 4494 
L 1172 4494 
z
" transform="scale(0.015625)"/>
       <path id="DejaVuSans-70" d="M 1159 525 
L 1159 -1331 
L 581 -1331 
L 581 3500 
L 1159 3500 
L 1159 2969 
Q 1341 3281 1617 3432 
Q 1894 3584 2278 3584 
Q 2916 3584 3314 3078 
Q 3713 2572 3713 1747 
Q 3713 922 3314 415 
Q 2916 -91 2278 -91 
Q 1894 -91 1617 61 
Q 1341 213 1159 525 
z
M 3116 1747 
Q 3116 2381 2855 2742 
Q 2594 3103 2138 3103 
Q 1681 3103 1420 2742 
Q 1159 2381 1159 1747 
Q 1159 1113 1420 752 
Q 1681 391 2138 391 
Q 2594 391 2855 752 
Q 3116 1113 3116 1747 
z
" transform="scale(0.015625)"/>
      </defs>
      <use xlink:href="#DejaVuSans-73"/>
      <use xlink:href="#DejaVuSans-74" x="52.099609"/>
      <use xlink:href="#DejaVuSans-65" x="91.308594"/>
      <use xlink:href="#DejaVuSans-70" x="152.832031"/>
     </g>
    </g>
   </g>
   <g id="matplotlib.axis_8">
    <g id="ytick_7">
     <g id="line2d_35">
      <path d="M 119.522628 370.73036 
L 422.166926 370.73036 
" clip-path="url(#p0df04b888a)" style="fill: none; stroke: #ffffff; stroke-linecap: round"/>
     </g>
     <g id="text_12">
      <!-- −1 -->
      <g style="fill: #262626" transform="translate(75.968175 379.506555) scale(0.231 -0.231)">
       <use xlink:href="#DejaVuSans-2212"/>
       <use xlink:href="#DejaVuSans-31" x="83.789062"/>
      </g>
     </g>
    </g>
    <g id="ytick_8">
     <g id="line2d_36">
      <path d="M 119.522628 304.976258 
L 422.166926 304.976258 
" clip-path="url(#p0df04b888a)" style="fill: none; stroke: #ffffff; stroke-linecap: round"/>
     </g>
     <g id="text_13">
      <!-- 0 -->
      <g style="fill: #262626" transform="translate(95.325253 313.752453) scale(0.231 -0.231)">
       <use xlink:href="#DejaVuSans-30"/>
      </g>
     </g>
    </g>
    <g id="text_14">
     <!-- % change -->
     <g style="fill: #262626" transform="translate(66.727363 378.599385) rotate(-90) scale(0.252 -0.252)">
      <use xlink:href="#DejaVuSans-25"/>
      <use xlink:href="#DejaVuSans-20" x="95.019531"/>
      <use xlink:href="#DejaVuSans-63" x="126.806641"/>
      <use xlink:href="#DejaVuSans-68" x="181.787109"/>
      <use xlink:href="#DejaVuSans-61" x="245.166016"/>
      <use xlink:href="#DejaVuSans-6e" x="306.445312"/>
      <use xlink:href="#DejaVuSans-67" x="369.824219"/>
      <use xlink:href="#DejaVuSans-65" x="433.300781"/>
     </g>
    </g>
   </g>
   <g id="PolyCollection_13"/>
   <g id="PolyCollection_14"/>
   <g id="PolyCollection_15"/>
   <g id="PolyCollection_16"/>
   <g id="line2d_37">
    <path d="M 133.279187 304.976258 
L 133.656597 357.913872 
L 134.034006 359.795419 
L 134.411415 360.29901 
L 135.166233 360.441662 
L 138.940323 360.223576 
L 139.695141 358.589322 
L 151.77223 328.421301 
L 161.207455 305.180909 
L 161.584864 304.345703 
L 162.339682 304.238211 
L 182.71977 304.24266 
L 265.749755 304.695868 
L 306.887339 304.786724 
L 408.410367 304.819912 
L 408.410367 304.819912 
" clip-path="url(#p0df04b888a)" style="fill: none; stroke: #4c72b0; stroke-opacity: 0.9; stroke-width: 3; stroke-linecap: round"/>
   </g>
   <g id="line2d_38">
    <path d="M 133.279187 304.976258 
L 133.656597 333.848731 
L 134.034006 335.082017 
L 134.411415 335.509175 
L 135.166233 335.708609 
L 137.430687 335.676713 
L 138.940323 335.631028 
L 139.695141 334.795402 
L 143.469231 329.592765 
L 160.830046 305.725807 
L 161.584864 304.783927 
L 161.962273 304.642187 
L 173.661953 304.611318 
L 214.044719 304.645364 
L 255.182303 304.775202 
L 277.826844 304.833257 
L 397.088096 304.873596 
L 408.410367 304.87354 
L 408.410367 304.87354 
" clip-path="url(#p0df04b888a)" style="fill: none; stroke: #dd8452; stroke-opacity: 0.9; stroke-width: 3; stroke-linecap: round"/>
   </g>
   <g id="line2d_39">
    <path d="M 133.279187 304.976258 
L 133.656597 360.451053 
L 134.034006 363.47725 
L 134.411415 364.247828 
L 134.788824 364.454779 
L 135.543642 364.498342 
L 138.940323 364.288412 
L 139.695141 362.517012 
L 148.375549 339.174351 
L 160.830046 306.015839 
L 161.584864 304.301821 
L 162.339682 304.190561 
L 189.513132 304.12295 
L 218.573627 304.28099 
L 263.485301 304.752658 
L 303.490658 304.838526 
L 408.410367 304.85098 
L 408.410367 304.85098 
" clip-path="url(#p0df04b888a)" style="fill: none; stroke: #55a868; stroke-opacity: 0.9; stroke-width: 3; stroke-linecap: round"/>
   </g>
   <g id="line2d_40">
    <path d="M 133.279187 304.976258 
L 133.656597 348.574849 
L 134.034006 351.001095 
L 134.411415 351.60714 
L 134.788824 351.766113 
L 135.921051 351.784305 
L 138.940323 351.633333 
L 139.695141 350.252864 
L 147.998139 332.701711 
L 160.830046 305.826296 
L 161.584864 304.504326 
L 162.339682 304.394005 
L 193.287223 304.33085 
L 221.970309 304.479407 
L 264.617528 304.781256 
L 292.545796 304.849975 
L 402.371823 304.87013 
L 408.410367 304.870061 
L 408.410367 304.870061 
" clip-path="url(#p0df04b888a)" style="fill: none; stroke: #c44e52; stroke-opacity: 0.9; stroke-width: 3; stroke-linecap: round"/>
   </g>
   <g id="patch_12">
    <path d="M 119.522628 373.284 
L 119.522628 259.218083 
" style="fill: none; stroke: #ffffff; stroke-width: 1.25; stroke-linejoin: miter; stroke-linecap: square"/>
   </g>
   <g id="patch_13">
    <path d="M 119.522628 373.284 
L 422.166926 373.284 
" style="fill: none; stroke: #ffffff; stroke-width: 1.25; stroke-linejoin: miter; stroke-linecap: square"/>
   </g>
   <g id="text_15">
    <!-- 0.8~365 -->
    <g style="fill: #262626" transform="translate(216.198184 253.218083) scale(0.252 -0.252)">
     <use xlink:href="#DejaVuSans-30"/>
     <use xlink:href="#DejaVuSans-2e" x="63.623047"/>
     <use xlink:href="#DejaVuSans-38" x="95.410156"/>
     <use xlink:href="#DejaVuSans-7e" x="159.033203"/>
     <use xlink:href="#DejaVuSans-33" x="242.822266"/>
     <use xlink:href="#DejaVuSans-36" x="306.445312"/>
     <use xlink:href="#DejaVuSans-35" x="370.068359"/>
    </g>
   </g>
  </g>
  <g id="axes_5">
   <g id="patch_14">
    <path d="M 449.025483 373.284 
L 751.66978 373.284 
L 751.66978 259.218083 
L 449.025483 259.218083 
z
" style="fill: #eaeaf2"/>
   </g>
   <g id="matplotlib.axis_9">
    <g id="xtick_17">
     <g id="line2d_41">
      <path d="M 462.782042 373.284 
L 462.782042 259.218083 
" clip-path="url(#p4d7af36d2d)" style="fill: none; stroke: #ffffff; stroke-linecap: round"/>
     </g>
     <g id="text_16">
      <!-- 0 -->
      <g style="fill: #262626" transform="translate(455.433354 400.336391) scale(0.231 -0.231)">
       <use xlink:href="#DejaVuSans-30"/>
      </g>
     </g>
    </g>
    <g id="xtick_18">
     <g id="line2d_42">
      <path d="M 557.134298 373.284 
L 557.134298 259.218083 
" clip-path="url(#p4d7af36d2d)" style="fill: none; stroke: #ffffff; stroke-linecap: round"/>
     </g>
     <g id="text_17">
      <!-- 250 -->
      <g style="fill: #262626" transform="translate(535.088235 400.336391) scale(0.231 -0.231)">
       <use xlink:href="#DejaVuSans-32"/>
       <use xlink:href="#DejaVuSans-35" x="63.623047"/>
       <use xlink:href="#DejaVuSans-30" x="127.246094"/>
      </g>
     </g>
    </g>
    <g id="xtick_19">
     <g id="line2d_43">
      <path d="M 651.486554 373.284 
L 651.486554 259.218083 
" clip-path="url(#p4d7af36d2d)" style="fill: none; stroke: #ffffff; stroke-linecap: round"/>
     </g>
     <g id="text_18">
      <!-- 500 -->
      <g style="fill: #262626" transform="translate(629.440492 400.336391) scale(0.231 -0.231)">
       <use xlink:href="#DejaVuSans-35"/>
       <use xlink:href="#DejaVuSans-30" x="63.623047"/>
       <use xlink:href="#DejaVuSans-30" x="127.246094"/>
      </g>
     </g>
    </g>
    <g id="xtick_20">
     <g id="line2d_44">
      <path d="M 745.838811 373.284 
L 745.838811 259.218083 
" clip-path="url(#p4d7af36d2d)" style="fill: none; stroke: #ffffff; stroke-linecap: round"/>
     </g>
     <g id="text_19">
      <!-- 750 -->
      <g style="fill: #262626" transform="translate(723.792748 400.336391) scale(0.231 -0.231)">
       <use xlink:href="#DejaVuSans-37"/>
       <use xlink:href="#DejaVuSans-35" x="63.623047"/>
       <use xlink:href="#DejaVuSans-30" x="127.246094"/>
      </g>
     </g>
    </g>
    <g id="text_20">
     <!-- step -->
     <g style="fill: #262626" transform="translate(573.092256 428.288531) scale(0.252 -0.252)">
      <use xlink:href="#DejaVuSans-73"/>
      <use xlink:href="#DejaVuSans-74" x="52.099609"/>
      <use xlink:href="#DejaVuSans-65" x="91.308594"/>
      <use xlink:href="#DejaVuSans-70" x="152.832031"/>
     </g>
    </g>
   </g>
   <g id="matplotlib.axis_10">
    <g id="ytick_9">
     <g id="line2d_45">
      <path d="M 449.025483 370.73036 
L 751.66978 370.73036 
" clip-path="url(#p4d7af36d2d)" style="fill: none; stroke: #ffffff; stroke-linecap: round"/>
     </g>
    </g>
    <g id="ytick_10">
     <g id="line2d_46">
      <path d="M 449.025483 304.976258 
L 751.66978 304.976258 
" clip-path="url(#p4d7af36d2d)" style="fill: none; stroke: #ffffff; stroke-linecap: round"/>
     </g>
    </g>
   </g>
   <g id="PolyCollection_17"/>
   <g id="PolyCollection_18"/>
   <g id="PolyCollection_19"/>
   <g id="PolyCollection_20"/>
   <g id="line2d_47">
    <path d="M 462.782042 304.976258 
L 463.159451 357.913872 
L 463.53686 359.582273 
L 463.914269 359.839645 
L 464.669087 359.473718 
L 465.801314 358.73795 
L 468.443177 357.808627 
L 469.197995 355.965467 
L 469.575404 354.941717 
L 470.330222 353.682712 
L 471.08504 352.999978 
L 471.839858 352.411549 
L 472.217267 352.319909 
L 474.85913 353.432478 
L 475.991357 354.375451 
L 477.878403 355.406493 
L 478.633221 355.588408 
L 479.388039 355.572389 
L 480.142857 355.36511 
L 480.897675 355.054016 
L 484.671765 354.632701 
L 488.445855 353.941375 
L 491.087718 353.186084 
L 494.861809 351.785825 
L 497.881081 350.368464 
L 500.900353 348.709703 
L 504.297034 346.576355 
L 507.693716 344.173712 
L 511.467806 341.229069 
L 515.996714 337.393226 
L 521.65785 332.277125 
L 527.696394 326.801921 
L 528.828621 326.125745 
L 531.847893 324.777036 
L 534.867165 323.62944 
L 544.6798 320.302639 
L 554.869844 317.799715 
L 563.172842 315.862887 
L 569.966205 314.035702 
L 576.382158 312.108885 
L 583.175521 309.830557 
L 590.346292 307.176708 
L 598.271882 303.990483 
L 606.952289 300.290909 
L 617.897151 295.366917 
L 639.032057 285.790222 
L 648.089873 282.018712 
L 652.241372 280.446394 
L 657.525099 278.765297 
L 661.676598 277.720234 
L 668.469961 276.181795 
L 671.489233 275.743909 
L 675.263323 275.456034 
L 684.32114 275.102335 
L 689.227457 275.073959 
L 697.530456 275.370655 
L 710.739771 275.586299 
L 733.761722 275.707624 
L 737.913221 275.716756 
L 737.913221 275.716756 
" clip-path="url(#p4d7af36d2d)" style="fill: none; stroke: #4c72b0; stroke-opacity: 0.9; stroke-width: 3; stroke-linecap: round"/>
   </g>
   <g id="line2d_48">
    <path d="M 462.782042 304.976258 
L 463.159451 333.848731 
L 463.53686 334.983299 
L 463.914269 335.295172 
L 464.669087 335.251869 
L 468.443177 334.164611 
L 469.197995 333.20209 
L 471.462449 329.933626 
L 472.217267 329.332597 
L 473.349494 328.845804 
L 475.991357 328.826501 
L 477.500994 329.229962 
L 479.388039 329.451729 
L 480.520266 329.312149 
L 481.652493 328.959352 
L 482.78472 328.635338 
L 489.955491 327.256003 
L 494.861809 326.004031 
L 498.635899 324.791704 
L 502.787398 323.21021 
L 506.938898 321.37686 
L 510.712988 319.478823 
L 515.241896 316.934481 
L 529.583439 308.657604 
L 531.470484 308.109152 
L 535.621984 307.352627 
L 541.660528 306.5198 
L 547.321663 306.477141 
L 553.737617 306.709606 
L 557.889116 307.086675 
L 564.682479 307.954642 
L 574.495113 309.454663 
L 582.798112 310.689902 
L 590.346292 311.581242 
L 597.894473 312.237016 
L 604.687835 312.594538 
L 611.103789 312.70082 
L 617.142333 312.574904 
L 622.803468 312.245263 
L 628.087195 311.698099 
L 632.993512 310.97426 
L 637.899829 310.016372 
L 642.806147 308.830743 
L 647.712464 307.429389 
L 652.996191 305.688639 
L 658.279917 303.709803 
L 665.073279 300.893216 
L 670.734415 298.393651 
L 676.39555 295.651308 
L 685.830776 290.807712 
L 692.246729 287.244298 
L 705.456045 279.831313 
L 713.004226 275.593956 
L 718.287952 272.670133 
L 724.326496 269.54635 
L 729.987632 266.846915 
L 733.384313 265.432035 
L 736.403585 264.713888 
L 737.913221 264.402898 
L 737.913221 264.402898 
" clip-path="url(#p4d7af36d2d)" style="fill: none; stroke: #dd8452; stroke-opacity: 0.9; stroke-width: 3; stroke-linecap: round"/>
   </g>
   <g id="line2d_49">
    <path d="M 462.782042 304.976258 
L 463.159451 360.451053 
L 463.53686 363.267342 
L 463.914269 363.794362 
L 464.291678 363.750185 
L 465.423905 363.029278 
L 466.556132 362.347979 
L 467.688359 361.882631 
L 468.443177 361.661816 
L 469.197995 359.730793 
L 473.349494 348.349245 
L 475.613948 342.660244 
L 476.746176 340.385817 
L 477.500994 339.169791 
L 478.255812 338.238182 
L 480.142857 336.54268 
L 481.652493 335.651728 
L 483.162129 334.856059 
L 484.294356 334.687208 
L 486.936219 334.483757 
L 490.710309 334.775421 
L 492.219946 334.836628 
L 495.616627 334.559234 
L 499.768126 333.976959 
L 503.542216 333.281189 
L 507.693716 332.294627 
L 512.222624 330.988049 
L 517.50635 329.236395 
L 523.544895 327.004781 
L 531.470484 323.811424 
L 550.718345 315.905718 
L 557.134298 313.709947 
L 564.682479 311.369504 
L 574.495113 308.533022 
L 587.32702 305.051766 
L 595.25261 303.114927 
L 602.045972 301.701037 
L 612.613425 299.800502 
L 618.651969 298.938135 
L 626.20015 298.089676 
L 634.880557 297.290221 
L 642.806147 296.77602 
L 656.015463 296.11463 
L 674.131096 295.48939 
L 695.64341 294.940166 
L 717.533134 294.633142 
L 737.913221 294.457052 
L 737.913221 294.457052 
" clip-path="url(#p4d7af36d2d)" style="fill: none; stroke: #55a868; stroke-opacity: 0.9; stroke-width: 3; stroke-linecap: round"/>
   </g>
   <g id="line2d_50">
    <path d="M 462.782042 304.976258 
L 463.159451 348.574849 
L 463.53686 350.832428 
L 463.914269 351.241853 
L 464.291678 351.198553 
L 465.801314 350.426328 
L 467.688359 349.542305 
L 468.443177 349.265184 
L 469.575404 346.836245 
L 472.972085 339.360245 
L 475.613948 334.14052 
L 476.746176 332.347293 
L 477.500994 331.367555 
L 478.633221 330.405499 
L 480.142857 329.432729 
L 482.029902 328.624368 
L 483.539538 328.20831 
L 486.936219 327.861728 
L 490.710309 327.846416 
L 492.219946 327.852618 
L 499.013308 327.227631 
L 504.674443 326.489134 
L 511.090397 325.4245 
L 516.751532 324.280108 
L 522.790077 322.810192 
L 529.20603 321.02479 
L 537.886438 318.331053 
L 548.076481 315.171746 
L 557.134298 312.613899 
L 565.814706 310.407927 
L 576.004749 308.051548 
L 585.062566 306.171001 
L 592.988155 304.743639 
L 602.80079 303.230818 
L 612.613425 301.941528 
L 623.180877 300.783586 
L 631.861285 300.087449 
L 643.183556 299.443261 
L 663.563643 298.551406 
L 676.018141 298.185466 
L 714.136453 297.543878 
L 734.893949 297.372527 
L 737.913221 297.366384 
L 737.913221 297.366384 
" clip-path="url(#p4d7af36d2d)" style="fill: none; stroke: #c44e52; stroke-opacity: 0.9; stroke-width: 3; stroke-linecap: round"/>
   </g>
   <g id="patch_15">
    <path d="M 449.025483 373.284 
L 449.025483 259.218083 
" style="fill: none; stroke: #ffffff; stroke-width: 1.25; stroke-linejoin: miter; stroke-linecap: square"/>
   </g>
   <g id="patch_16">
    <path d="M 449.025483 373.284 
L 751.66978 373.284 
" style="fill: none; stroke: #ffffff; stroke-width: 1.25; stroke-linejoin: miter; stroke-linecap: square"/>
   </g>
   <g id="text_21">
    <!-- 0.999~30 -->
    <g style="fill: #262626" transform="translate(537.684288 253.218083) scale(0.252 -0.252)">
     <defs>
      <path id="DejaVuSans-39" d="M 703 97 
L 703 672 
Q 941 559 1184 500 
Q 1428 441 1663 441 
Q 2288 441 2617 861 
Q 2947 1281 2994 2138 
Q 2813 1869 2534 1725 
Q 2256 1581 1919 1581 
Q 1219 1581 811 2004 
Q 403 2428 403 3163 
Q 403 3881 828 4315 
Q 1253 4750 1959 4750 
Q 2769 4750 3195 4129 
Q 3622 3509 3622 2328 
Q 3622 1225 3098 567 
Q 2575 -91 1691 -91 
Q 1453 -91 1209 -44 
Q 966 3 703 97 
z
M 1959 2075 
Q 2384 2075 2632 2365 
Q 2881 2656 2881 3163 
Q 2881 3666 2632 3958 
Q 2384 4250 1959 4250 
Q 1534 4250 1286 3958 
Q 1038 3666 1038 3163 
Q 1038 2656 1286 2365 
Q 1534 2075 1959 2075 
z
" transform="scale(0.015625)"/>
     </defs>
     <use xlink:href="#DejaVuSans-30"/>
     <use xlink:href="#DejaVuSans-2e" x="63.623047"/>
     <use xlink:href="#DejaVuSans-39" x="95.410156"/>
     <use xlink:href="#DejaVuSans-39" x="159.033203"/>
     <use xlink:href="#DejaVuSans-39" x="222.65625"/>
     <use xlink:href="#DejaVuSans-7e" x="286.279297"/>
     <use xlink:href="#DejaVuSans-33" x="370.068359"/>
     <use xlink:href="#DejaVuSans-30" x="433.691406"/>
    </g>
   </g>
  </g>
  <g id="axes_6">
   <g id="patch_17">
    <path d="M 778.528337 373.284 
L 1081.172634 373.284 
L 1081.172634 259.218083 
L 778.528337 259.218083 
z
" style="fill: #eaeaf2"/>
   </g>
   <g id="matplotlib.axis_11">
    <g id="xtick_21">
     <g id="line2d_51">
      <path d="M 792.284896 373.284 
L 792.284896 259.218083 
" clip-path="url(#pfd74164661)" style="fill: none; stroke: #ffffff; stroke-linecap: round"/>
     </g>
     <g id="text_22">
      <!-- 0 -->
      <g style="fill: #262626" transform="translate(784.936208 400.336391) scale(0.231 -0.231)">
       <use xlink:href="#DejaVuSans-30"/>
      </g>
     </g>
    </g>
    <g id="xtick_22">
     <g id="line2d_52">
      <path d="M 886.637152 373.284 
L 886.637152 259.218083 
" clip-path="url(#pfd74164661)" style="fill: none; stroke: #ffffff; stroke-linecap: round"/>
     </g>
     <g id="text_23">
      <!-- 250 -->
      <g style="fill: #262626" transform="translate(864.59109 400.336391) scale(0.231 -0.231)">
       <use xlink:href="#DejaVuSans-32"/>
       <use xlink:href="#DejaVuSans-35" x="63.623047"/>
       <use xlink:href="#DejaVuSans-30" x="127.246094"/>
      </g>
     </g>
    </g>
    <g id="xtick_23">
     <g id="line2d_53">
      <path d="M 980.989409 373.284 
L 980.989409 259.218083 
" clip-path="url(#pfd74164661)" style="fill: none; stroke: #ffffff; stroke-linecap: round"/>
     </g>
     <g id="text_24">
      <!-- 500 -->
      <g style="fill: #262626" transform="translate(958.943346 400.336391) scale(0.231 -0.231)">
       <use xlink:href="#DejaVuSans-35"/>
       <use xlink:href="#DejaVuSans-30" x="63.623047"/>
       <use xlink:href="#DejaVuSans-30" x="127.246094"/>
      </g>
     </g>
    </g>
    <g id="xtick_24">
     <g id="line2d_54">
      <path d="M 1075.341665 373.284 
L 1075.341665 259.218083 
" clip-path="url(#pfd74164661)" style="fill: none; stroke: #ffffff; stroke-linecap: round"/>
     </g>
     <g id="text_25">
      <!-- 750 -->
      <g style="fill: #262626" transform="translate(1053.295602 400.336391) scale(0.231 -0.231)">
       <use xlink:href="#DejaVuSans-37"/>
       <use xlink:href="#DejaVuSans-35" x="63.623047"/>
       <use xlink:href="#DejaVuSans-30" x="127.246094"/>
      </g>
     </g>
    </g>
    <g id="text_26">
     <!-- step -->
     <g style="fill: #262626" transform="translate(902.595111 428.288531) scale(0.252 -0.252)">
      <use xlink:href="#DejaVuSans-73"/>
      <use xlink:href="#DejaVuSans-74" x="52.099609"/>
      <use xlink:href="#DejaVuSans-65" x="91.308594"/>
      <use xlink:href="#DejaVuSans-70" x="152.832031"/>
     </g>
    </g>
   </g>
   <g id="matplotlib.axis_12">
    <g id="ytick_11">
     <g id="line2d_55">
      <path d="M 778.528337 370.73036 
L 1081.172634 370.73036 
" clip-path="url(#pfd74164661)" style="fill: none; stroke: #ffffff; stroke-linecap: round"/>
     </g>
    </g>
    <g id="ytick_12">
     <g id="line2d_56">
      <path d="M 778.528337 304.976258 
L 1081.172634 304.976258 
" clip-path="url(#pfd74164661)" style="fill: none; stroke: #ffffff; stroke-linecap: round"/>
     </g>
    </g>
   </g>
   <g id="PolyCollection_21"/>
   <g id="PolyCollection_22"/>
   <g id="PolyCollection_23"/>
   <g id="PolyCollection_24"/>
   <g id="line2d_57">
    <path d="M 792.284896 304.976258 
L 792.662305 357.913872 
L 793.039714 359.795419 
L 793.417123 360.29901 
L 794.171941 360.441662 
L 795.304168 360.469545 
L 797.946031 361.295083 
L 798.700849 360.006706 
L 799.078258 359.230028 
L 799.455667 358.738008 
L 799.833076 358.469305 
L 800.587894 358.362895 
L 802.09753 358.364217 
L 803.607166 360.241993 
L 804.361984 361.219174 
L 805.494212 363.077723 
L 807.003848 365.074917 
L 808.513484 366.512702 
L 809.645711 367.429424 
L 810.400529 367.808759 
L 811.155347 368.008519 
L 811.910165 368.032925 
L 812.664983 367.986129 
L 814.929437 368.070877 
L 818.703527 368.058543 
L 820.967982 367.929691 
L 823.232436 367.645581 
L 825.49689 367.140924 
L 828.138753 366.302489 
L 830.780616 365.223993 
L 833.799888 363.733648 
L 837.19657 361.774701 
L 840.593251 359.55854 
L 844.367341 356.825591 
L 848.51884 353.541076 
L 853.802567 349.071352 
L 869.276337 335.713438 
L 871.540791 334.24053 
L 873.805245 333.060232 
L 877.201926 331.812214 
L 887.014561 328.499803 
L 894.940151 326.057058 
L 902.110922 324.317081 
L 910.036512 322.627912 
L 917.584692 321.260603 
L 928.906963 319.531599 
L 956.457822 315.296659 
L 977.592727 311.81863 
L 1000.237269 307.849848 
L 1025.146265 303.486516 
L 1028.920355 303.067184 
L 1041.374853 302.202047 
L 1046.658579 302.264068 
L 1056.471214 302.519176 
L 1067.416075 302.637636 
L 1067.416075 302.637636 
" clip-path="url(#pfd74164661)" style="fill: none; stroke: #4c72b0; stroke-opacity: 0.9; stroke-width: 3; stroke-linecap: round"/>
   </g>
   <g id="line2d_58">
    <path d="M 792.284896 304.976258 
L 792.662305 333.848731 
L 793.039714 335.082017 
L 793.417123 335.509175 
L 794.171941 335.708609 
L 797.946031 335.827847 
L 798.700849 335.106795 
L 800.965303 332.548252 
L 801.720121 332.334705 
L 803.229757 332.188628 
L 805.116803 333.101289 
L 805.871621 333.623196 
L 807.381257 334.645714 
L 808.513484 335.198398 
L 810.777938 335.925566 
L 811.910165 336.02776 
L 813.042392 335.926301 
L 816.061664 335.408326 
L 823.609845 334.375043 
L 827.006526 333.637583 
L 830.403207 332.68315 
L 834.177298 331.391342 
L 838.328797 329.738893 
L 842.857705 327.710363 
L 848.51884 324.913984 
L 855.689612 321.0919 
L 863.615202 316.92053 
L 869.276337 314.157827 
L 871.9182 312.999424 
L 873.427836 312.571899 
L 877.201926 312.039042 
L 899.09165 309.278828 
L 912.678375 307.91023 
L 921.358782 307.419346 
L 945.135551 306.554245 
L 955.325595 306.284823 
L 988.537589 305.264998 
L 1029.675173 304.169115 
L 1058.735668 303.432931 
L 1067.416075 303.555481 
L 1067.416075 303.555481 
" clip-path="url(#pfd74164661)" style="fill: none; stroke: #dd8452; stroke-opacity: 0.9; stroke-width: 3; stroke-linecap: round"/>
   </g>
   <g id="line2d_59">
    <path d="M 792.284896 304.976258 
L 792.662305 360.451053 
L 793.039714 363.47725 
L 793.417123 364.247828 
L 793.794532 364.454779 
L 794.926759 364.484595 
L 796.058986 364.525754 
L 797.191213 364.76648 
L 797.946031 365.00172 
L 798.700849 363.540956 
L 803.607166 352.919711 
L 805.494212 349.201378 
L 806.626439 347.416952 
L 807.758666 345.995399 
L 808.890893 344.931415 
L 810.02312 344.295965 
L 813.042392 342.775298 
L 814.929437 342.110491 
L 815.684255 341.924813 
L 819.458346 341.899638 
L 821.7228 341.923803 
L 824.742072 341.671705 
L 828.516162 341.119249 
L 832.667661 340.260185 
L 837.19657 339.090944 
L 841.725478 337.703151 
L 846.631795 335.959421 
L 852.292931 333.69738 
L 860.595929 330.112201 
L 880.976017 321.16223 
L 888.524197 318.111594 
L 893.430515 316.354125 
L 899.09165 314.609253 
L 905.507603 312.887058 
L 913.055784 311.085492 
L 921.358782 309.316432 
L 929.284372 307.838863 
L 937.209962 306.586284 
L 944.758142 305.621113 
L 951.928914 304.939932 
L 957.967458 304.579088 
L 966.270457 304.318101 
L 975.328273 304.230794 
L 1067.416075 304.150061 
L 1067.416075 304.150061 
" clip-path="url(#pfd74164661)" style="fill: none; stroke: #55a868; stroke-opacity: 0.9; stroke-width: 3; stroke-linecap: round"/>
   </g>
   <g id="line2d_60">
    <path d="M 792.284896 304.976258 
L 792.662305 348.574849 
L 793.039714 351.001095 
L 793.417123 351.60714 
L 793.794532 351.76656 
L 795.304168 351.80041 
L 797.568622 351.925336 
L 797.946031 351.977228 
L 798.700849 350.781663 
L 802.474939 344.150194 
L 805.116803 339.996525 
L 806.626439 338.087859 
L 807.758666 337.001409 
L 808.890893 336.283852 
L 810.02312 335.825581 
L 811.910165 335.180781 
L 813.042392 334.908347 
L 816.439073 334.291365 
L 825.49689 333.668259 
L 831.158025 332.858086 
L 836.064343 331.952069 
L 841.348069 330.748053 
L 847.386613 329.13122 
L 853.802567 327.158713 
L 862.105565 324.344687 
L 886.259743 315.928191 
L 893.807924 313.619871 
L 899.846468 312.010685 
L 907.017239 310.362865 
L 913.810602 309.038844 
L 922.1136 307.646218 
L 930.03919 306.521587 
L 937.96478 305.624747 
L 946.267778 304.942066 
L 954.570777 304.475497 
L 963.628593 304.179886 
L 975.705682 304.028004 
L 982.499045 304.126789 
L 991.179452 304.325132 
L 1014.578812 304.329148 
L 1067.416075 304.329043 
L 1067.416075 304.329043 
" clip-path="url(#pfd74164661)" style="fill: none; stroke: #c44e52; stroke-opacity: 0.9; stroke-width: 3; stroke-linecap: round"/>
   </g>
   <g id="patch_18">
    <path d="M 778.528337 373.284 
L 778.528337 259.218083 
" style="fill: none; stroke: #ffffff; stroke-width: 1.25; stroke-linejoin: miter; stroke-linecap: square"/>
   </g>
   <g id="patch_19">
    <path d="M 778.528337 373.284 
L 1081.172634 373.284 
" style="fill: none; stroke: #ffffff; stroke-width: 1.25; stroke-linejoin: miter; stroke-linecap: square"/>
   </g>
   <g id="text_27">
    <!-- 0.999~365 -->
    <g style="fill: #262626" transform="translate(859.170392 253.218083) scale(0.252 -0.252)">
     <use xlink:href="#DejaVuSans-30"/>
     <use xlink:href="#DejaVuSans-2e" x="63.623047"/>
     <use xlink:href="#DejaVuSans-39" x="95.410156"/>
     <use xlink:href="#DejaVuSans-39" x="159.033203"/>
     <use xlink:href="#DejaVuSans-39" x="222.65625"/>
     <use xlink:href="#DejaVuSans-7e" x="286.279297"/>
     <use xlink:href="#DejaVuSans-33" x="370.068359"/>
     <use xlink:href="#DejaVuSans-36" x="433.691406"/>
     <use xlink:href="#DejaVuSans-35" x="497.314453"/>
    </g>
   </g>
  </g>
  <g id="text_28">
   <!-- Production change from pre-shock level -->
   <g style="fill: #262626" transform="translate(248.820797 30.177675) scale(0.3024 -0.3024)">
    <defs>
     <path id="DejaVuSans-50" d="M 1259 4147 
L 1259 2394 
L 2053 2394 
Q 2494 2394 2734 2622 
Q 2975 2850 2975 3272 
Q 2975 3691 2734 3919 
Q 2494 4147 2053 4147 
L 1259 4147 
z
M 628 4666 
L 2053 4666 
Q 2838 4666 3239 4311 
Q 3641 3956 3641 3272 
Q 3641 2581 3239 2228 
Q 2838 1875 2053 1875 
L 1259 1875 
L 1259 0 
L 628 0 
L 628 4666 
z
" transform="scale(0.015625)"/>
     <path id="DejaVuSans-72" d="M 2631 2963 
Q 2534 3019 2420 3045 
Q 2306 3072 2169 3072 
Q 1681 3072 1420 2755 
Q 1159 2438 1159 1844 
L 1159 0 
L 581 0 
L 581 3500 
L 1159 3500 
L 1159 2956 
Q 1341 3275 1631 3429 
Q 1922 3584 2338 3584 
Q 2397 3584 2469 3576 
Q 2541 3569 2628 3553 
L 2631 2963 
z
" transform="scale(0.015625)"/>
     <path id="DejaVuSans-6f" d="M 1959 3097 
Q 1497 3097 1228 2736 
Q 959 2375 959 1747 
Q 959 1119 1226 758 
Q 1494 397 1959 397 
Q 2419 397 2687 759 
Q 2956 1122 2956 1747 
Q 2956 2369 2687 2733 
Q 2419 3097 1959 3097 
z
M 1959 3584 
Q 2709 3584 3137 3096 
Q 3566 2609 3566 1747 
Q 3566 888 3137 398 
Q 2709 -91 1959 -91 
Q 1206 -91 779 398 
Q 353 888 353 1747 
Q 353 2609 779 3096 
Q 1206 3584 1959 3584 
z
" transform="scale(0.015625)"/>
     <path id="DejaVuSans-64" d="M 2906 2969 
L 2906 4863 
L 3481 4863 
L 3481 0 
L 2906 0 
L 2906 525 
Q 2725 213 2448 61 
Q 2172 -91 1784 -91 
Q 1150 -91 751 415 
Q 353 922 353 1747 
Q 353 2572 751 3078 
Q 1150 3584 1784 3584 
Q 2172 3584 2448 3432 
Q 2725 3281 2906 2969 
z
M 947 1747 
Q 947 1113 1208 752 
Q 1469 391 1925 391 
Q 2381 391 2643 752 
Q 2906 1113 2906 1747 
Q 2906 2381 2643 2742 
Q 2381 3103 1925 3103 
Q 1469 3103 1208 2742 
Q 947 2381 947 1747 
z
" transform="scale(0.015625)"/>
     <path id="DejaVuSans-75" d="M 544 1381 
L 544 3500 
L 1119 3500 
L 1119 1403 
Q 1119 906 1312 657 
Q 1506 409 1894 409 
Q 2359 409 2629 706 
Q 2900 1003 2900 1516 
L 2900 3500 
L 3475 3500 
L 3475 0 
L 2900 0 
L 2900 538 
Q 2691 219 2414 64 
Q 2138 -91 1772 -91 
Q 1169 -91 856 284 
Q 544 659 544 1381 
z
M 1991 3584 
L 1991 3584 
z
" transform="scale(0.015625)"/>
     <path id="DejaVuSans-69" d="M 603 3500 
L 1178 3500 
L 1178 0 
L 603 0 
L 603 3500 
z
M 603 4863 
L 1178 4863 
L 1178 4134 
L 603 4134 
L 603 4863 
z
" transform="scale(0.015625)"/>
     <path id="DejaVuSans-66" d="M 2375 4863 
L 2375 4384 
L 1825 4384 
Q 1516 4384 1395 4259 
Q 1275 4134 1275 3809 
L 1275 3500 
L 2222 3500 
L 2222 3053 
L 1275 3053 
L 1275 0 
L 697 0 
L 697 3053 
L 147 3053 
L 147 3500 
L 697 3500 
L 697 3744 
Q 697 4328 969 4595 
Q 1241 4863 1831 4863 
L 2375 4863 
z
" transform="scale(0.015625)"/>
     <path id="DejaVuSans-6d" d="M 3328 2828 
Q 3544 3216 3844 3400 
Q 4144 3584 4550 3584 
Q 5097 3584 5394 3201 
Q 5691 2819 5691 2113 
L 5691 0 
L 5113 0 
L 5113 2094 
Q 5113 2597 4934 2840 
Q 4756 3084 4391 3084 
Q 3944 3084 3684 2787 
Q 3425 2491 3425 1978 
L 3425 0 
L 2847 0 
L 2847 2094 
Q 2847 2600 2669 2842 
Q 2491 3084 2119 3084 
Q 1678 3084 1418 2786 
Q 1159 2488 1159 1978 
L 1159 0 
L 581 0 
L 581 3500 
L 1159 3500 
L 1159 2956 
Q 1356 3278 1631 3431 
Q 1906 3584 2284 3584 
Q 2666 3584 2933 3390 
Q 3200 3197 3328 2828 
z
" transform="scale(0.015625)"/>
     <path id="DejaVuSans-2d" d="M 313 2009 
L 1997 2009 
L 1997 1497 
L 313 1497 
L 313 2009 
z
" transform="scale(0.015625)"/>
     <path id="DejaVuSans-6b" d="M 581 4863 
L 1159 4863 
L 1159 1991 
L 2875 3500 
L 3609 3500 
L 1753 1863 
L 3688 0 
L 2938 0 
L 1159 1709 
L 1159 0 
L 581 0 
L 581 4863 
z
" transform="scale(0.015625)"/>
     <path id="DejaVuSans-6c" d="M 603 4863 
L 1178 4863 
L 1178 0 
L 603 0 
L 603 4863 
z
" transform="scale(0.015625)"/>
     <path id="DejaVuSans-76" d="M 191 3500 
L 800 3500 
L 1894 563 
L 2988 3500 
L 3597 3500 
L 2284 0 
L 1503 0 
L 191 3500 
z
" transform="scale(0.015625)"/>
    </defs>
    <use xlink:href="#DejaVuSans-50"/>
    <use xlink:href="#DejaVuSans-72" x="58.552734"/>
    <use xlink:href="#DejaVuSans-6f" x="97.416016"/>
    <use xlink:href="#DejaVuSans-64" x="158.597656"/>
    <use xlink:href="#DejaVuSans-75" x="222.074219"/>
    <use xlink:href="#DejaVuSans-63" x="285.453125"/>
    <use xlink:href="#DejaVuSans-74" x="340.433594"/>
    <use xlink:href="#DejaVuSans-69" x="379.642578"/>
    <use xlink:href="#DejaVuSans-6f" x="407.425781"/>
    <use xlink:href="#DejaVuSans-6e" x="468.607422"/>
    <use xlink:href="#DejaVuSans-20" x="531.986328"/>
    <use xlink:href="#DejaVuSans-63" x="563.773438"/>
    <use xlink:href="#DejaVuSans-68" x="618.753906"/>
    <use xlink:href="#DejaVuSans-61" x="682.132812"/>
    <use xlink:href="#DejaVuSans-6e" x="743.412109"/>
    <use xlink:href="#DejaVuSans-67" x="806.791016"/>
    <use xlink:href="#DejaVuSans-65" x="870.267578"/>
    <use xlink:href="#DejaVuSans-20" x="931.791016"/>
    <use xlink:href="#DejaVuSans-66" x="963.578125"/>
    <use xlink:href="#DejaVuSans-72" x="998.783203"/>
    <use xlink:href="#DejaVuSans-6f" x="1037.646484"/>
    <use xlink:href="#DejaVuSans-6d" x="1098.828125"/>
    <use xlink:href="#DejaVuSans-20" x="1196.240234"/>
    <use xlink:href="#DejaVuSans-70" x="1228.027344"/>
    <use xlink:href="#DejaVuSans-72" x="1291.503906"/>
    <use xlink:href="#DejaVuSans-65" x="1330.367188"/>
    <use xlink:href="#DejaVuSans-2d" x="1391.890625"/>
    <use xlink:href="#DejaVuSans-73" x="1427.974609"/>
    <use xlink:href="#DejaVuSans-68" x="1480.074219"/>
    <use xlink:href="#DejaVuSans-6f" x="1543.453125"/>
    <use xlink:href="#DejaVuSans-63" x="1604.634766"/>
    <use xlink:href="#DejaVuSans-6b" x="1659.615234"/>
    <use xlink:href="#DejaVuSans-20" x="1717.525391"/>
    <use xlink:href="#DejaVuSans-6c" x="1749.3125"/>
    <use xlink:href="#DejaVuSans-65" x="1777.095703"/>
    <use xlink:href="#DejaVuSans-76" x="1838.619141"/>
    <use xlink:href="#DejaVuSans-65" x="1897.798828"/>
    <use xlink:href="#DejaVuSans-6c" x="1959.322266"/>
   </g>
  </g>
  <g id="legend_1">
   <g id="patch_20">
    <path d="M 11.82 549.767812 
L 1225.674469 549.767812 
Q 1230.294469 549.767812 1230.294469 545.147812 
L 1230.294469 476.97 
Q 1230.294469 472.35 1225.674469 472.35 
L 11.82 472.35 
Q 7.2 472.35 7.2 476.97 
L 7.2 545.147812 
Q 7.2 549.767812 11.82 549.767812 
z
" style="fill: #eaeaf2; opacity: 0.8; stroke: #cccccc; stroke-linejoin: miter"/>
   </g>
   <g id="text_29">
    <!-- Experiences -->
    <g style="fill: #262626" transform="translate(541.912828 500.738063) scale(0.252 -0.252)">
     <defs>
      <path id="DejaVuSans-45" d="M 628 4666 
L 3578 4666 
L 3578 4134 
L 1259 4134 
L 1259 2753 
L 3481 2753 
L 3481 2222 
L 1259 2222 
L 1259 531 
L 3634 531 
L 3634 0 
L 628 0 
L 628 4666 
z
" transform="scale(0.015625)"/>
      <path id="DejaVuSans-78" d="M 3513 3500 
L 2247 1797 
L 3578 0 
L 2900 0 
L 1881 1375 
L 863 0 
L 184 0 
L 1544 1831 
L 300 3500 
L 978 3500 
L 1906 2253 
L 2834 3500 
L 3513 3500 
z
" transform="scale(0.015625)"/>
     </defs>
     <use xlink:href="#DejaVuSans-45"/>
     <use xlink:href="#DejaVuSans-78" x="63.183594"/>
     <use xlink:href="#DejaVuSans-70" x="122.363281"/>
     <use xlink:href="#DejaVuSans-65" x="185.839844"/>
     <use xlink:href="#DejaVuSans-72" x="247.363281"/>
     <use xlink:href="#DejaVuSans-69" x="288.476562"/>
     <use xlink:href="#DejaVuSans-65" x="316.259766"/>
     <use xlink:href="#DejaVuSans-6e" x="377.783203"/>
     <use xlink:href="#DejaVuSans-63" x="441.162109"/>
     <use xlink:href="#DejaVuSans-65" x="496.142578"/>
     <use xlink:href="#DejaVuSans-73" x="557.666016"/>
    </g>
   </g>
   <g id="line2d_61">
    <path d="M 16.44 526.996266 
L 39.54 526.996266 
L 62.64 526.996266 
" style="fill: none; stroke: #4c72b0; stroke-opacity: 0.9; stroke-width: 3; stroke-linecap: round"/>
   </g>
   <g id="text_30">
    <!-- eora26_full_2000 -->
    <g style="fill: #262626" transform="translate(81.12 535.081266) scale(0.231 -0.231)">
     <defs>
      <path id="DejaVuSans-5f" d="M 3263 -1063 
L 3263 -1509 
L -63 -1509 
L -63 -1063 
L 3263 -1063 
z
" transform="scale(0.015625)"/>
     </defs>
     <use xlink:href="#DejaVuSans-65"/>
     <use xlink:href="#DejaVuSans-6f" x="61.523438"/>
     <use xlink:href="#DejaVuSans-72" x="122.705078"/>
     <use xlink:href="#DejaVuSans-61" x="163.818359"/>
     <use xlink:href="#DejaVuSans-32" x="225.097656"/>
     <use xlink:href="#DejaVuSans-36" x="288.720703"/>
     <use xlink:href="#DejaVuSans-5f" x="352.34375"/>
     <use xlink:href="#DejaVuSans-66" x="402.34375"/>
     <use xlink:href="#DejaVuSans-75" x="437.548828"/>
     <use xlink:href="#DejaVuSans-6c" x="500.927734"/>
     <use xlink:href="#DejaVuSans-6c" x="528.710938"/>
     <use xlink:href="#DejaVuSans-5f" x="556.494141"/>
     <use xlink:href="#DejaVuSans-32" x="606.494141"/>
     <use xlink:href="#DejaVuSans-30" x="670.117188"/>
     <use xlink:href="#DejaVuSans-30" x="733.740234"/>
     <use xlink:href="#DejaVuSans-30" x="797.363281"/>
    </g>
   </g>
   <g id="line2d_62">
    <path d="M 326.211 526.996266 
L 349.311 526.996266 
L 372.411 526.996266 
" style="fill: none; stroke: #dd8452; stroke-opacity: 0.9; stroke-width: 3; stroke-linecap: round"/>
   </g>
   <g id="text_31">
    <!-- eora26_full_2010 -->
    <g style="fill: #262626" transform="translate(390.891 535.081266) scale(0.231 -0.231)">
     <use xlink:href="#DejaVuSans-65"/>
     <use xlink:href="#DejaVuSans-6f" x="61.523438"/>
     <use xlink:href="#DejaVuSans-72" x="122.705078"/>
     <use xlink:href="#DejaVuSans-61" x="163.818359"/>
     <use xlink:href="#DejaVuSans-32" x="225.097656"/>
     <use xlink:href="#DejaVuSans-36" x="288.720703"/>
     <use xlink:href="#DejaVuSans-5f" x="352.34375"/>
     <use xlink:href="#DejaVuSans-66" x="402.34375"/>
     <use xlink:href="#DejaVuSans-75" x="437.548828"/>
     <use xlink:href="#DejaVuSans-6c" x="500.927734"/>
     <use xlink:href="#DejaVuSans-6c" x="528.710938"/>
     <use xlink:href="#DejaVuSans-5f" x="556.494141"/>
     <use xlink:href="#DejaVuSans-32" x="606.494141"/>
     <use xlink:href="#DejaVuSans-30" x="670.117188"/>
     <use xlink:href="#DejaVuSans-31" x="733.740234"/>
     <use xlink:href="#DejaVuSans-30" x="797.363281"/>
    </g>
   </g>
   <g id="line2d_63">
    <path d="M 635.982 526.996266 
L 659.082 526.996266 
L 682.182 526.996266 
" style="fill: none; stroke: #55a868; stroke-opacity: 0.9; stroke-width: 3; stroke-linecap: round"/>
   </g>
   <g id="text_32">
    <!-- euregio_full_2000 -->
    <g style="fill: #262626" transform="translate(700.662 535.081266) scale(0.231 -0.231)">
     <use xlink:href="#DejaVuSans-65"/>
     <use xlink:href="#DejaVuSans-75" x="61.523438"/>
     <use xlink:href="#DejaVuSans-72" x="124.902344"/>
     <use xlink:href="#DejaVuSans-65" x="163.765625"/>
     <use xlink:href="#DejaVuSans-67" x="225.289062"/>
     <use xlink:href="#DejaVuSans-69" x="288.765625"/>
     <use xlink:href="#DejaVuSans-6f" x="316.548828"/>
     <use xlink:href="#DejaVuSans-5f" x="377.730469"/>
     <use xlink:href="#DejaVuSans-66" x="427.730469"/>
     <use xlink:href="#DejaVuSans-75" x="462.935547"/>
     <use xlink:href="#DejaVuSans-6c" x="526.314453"/>
     <use xlink:href="#DejaVuSans-6c" x="554.097656"/>
     <use xlink:href="#DejaVuSans-5f" x="581.880859"/>
     <use xlink:href="#DejaVuSans-32" x="631.880859"/>
     <use xlink:href="#DejaVuSans-30" x="695.503906"/>
     <use xlink:href="#DejaVuSans-30" x="759.126953"/>
     <use xlink:href="#DejaVuSans-30" x="822.75"/>
    </g>
   </g>
   <g id="line2d_64">
    <path d="M 951.618234 526.996266 
L 974.718234 526.996266 
L 997.818234 526.996266 
" style="fill: none; stroke: #c44e52; stroke-opacity: 0.9; stroke-width: 3; stroke-linecap: round"/>
   </g>
   <g id="text_33">
    <!-- euregio_full_2010 -->
    <g style="fill: #262626" transform="translate(1016.298234 535.081266) scale(0.231 -0.231)">
     <use xlink:href="#DejaVuSans-65"/>
     <use xlink:href="#DejaVuSans-75" x="61.523438"/>
     <use xlink:href="#DejaVuSans-72" x="124.902344"/>
     <use xlink:href="#DejaVuSans-65" x="163.765625"/>
     <use xlink:href="#DejaVuSans-67" x="225.289062"/>
     <use xlink:href="#DejaVuSans-69" x="288.765625"/>
     <use xlink:href="#DejaVuSans-6f" x="316.548828"/>
     <use xlink:href="#DejaVuSans-5f" x="377.730469"/>
     <use xlink:href="#DejaVuSans-66" x="427.730469"/>
     <use xlink:href="#DejaVuSans-75" x="462.935547"/>
     <use xlink:href="#DejaVuSans-6c" x="526.314453"/>
     <use xlink:href="#DejaVuSans-6c" x="554.097656"/>
     <use xlink:href="#DejaVuSans-5f" x="581.880859"/>
     <use xlink:href="#DejaVuSans-32" x="631.880859"/>
     <use xlink:href="#DejaVuSans-30" x="695.503906"/>
     <use xlink:href="#DejaVuSans-31" x="759.126953"/>
     <use xlink:href="#DejaVuSans-30" x="822.75"/>
    </g>
   </g>
  </g>
 </g>
 <defs>
  <clipPath id="pf86b353a62">
   <rect x="119.522628" y="81.456" width="302.644298" height="114.065917"/>
  </clipPath>
  <clipPath id="p942a63c077">
   <rect x="449.025483" y="81.456" width="302.644298" height="114.065917"/>
  </clipPath>
  <clipPath id="peccbae6d00">
   <rect x="778.528337" y="81.456" width="302.644298" height="114.065917"/>
  </clipPath>
  <clipPath id="p0df04b888a">
   <rect x="119.522628" y="259.218083" width="302.644298" height="114.065917"/>
  </clipPath>
  <clipPath id="p4d7af36d2d">
   <rect x="449.025483" y="259.218083" width="302.644298" height="114.065917"/>
  </clipPath>
  <clipPath id="pfd74164661">
   <rect x="778.528337" y="259.218083" width="302.644298" height="114.065917"/>
  </clipPath>
 </defs>
</svg>
