<?xml version="1.0" encoding="utf-8" standalone="no"?>
<!DOCTYPE svg PUBLIC "-//W3C//DTD SVG 1.1//EN"
  "http://www.w3.org/Graphics/SVG/1.1/DTD/svg11.dtd">
<svg xmlns:xlink="http://www.w3.org/1999/xlink" width="1304.437547pt" height="591.51675pt" viewBox="0 0 1304.437547 591.51675" xmlns="http://www.w3.org/2000/svg" version="1.1">
 <metadata>
  <rdf:RDF xmlns:dc="http://purl.org/dc/elements/1.1/" xmlns:cc="http://creativecommons.org/ns#" xmlns:rdf="http://www.w3.org/1999/02/22-rdf-syntax-ns#">
   <cc:Work>
    <dc:type rdf:resource="http://purl.org/dc/dcmitype/StillImage"/>
    <dc:date>2023-04-27T10:22:00.646958</dc:date>
    <dc:format>image/svg+xml</dc:format>
    <dc:creator>
     <cc:Agent>
      <dc:title>Matplotlib v3.7.1, https://matplotlib.org/</dc:title>
     </cc:Agent>
    </dc:creator>
   </cc:Work>
  </rdf:RDF>
 </metadata>
 <defs>
  <style type="text/css">*{stroke-linejoin: round; stroke-linecap: butt}</style>
 </defs>
 <g id="figure_1">
  <g id="patch_1">
   <path d="M 0 591.51675 
L 1304.437547 591.51675 
L 1304.437547 -0 
L 0 -0 
z
" style="fill: #ffffff"/>
  </g>
  <g id="axes_1">
   <g id="patch_2">
    <path d="M 170.340091 201.042 
L 462.70916 201.042 
L 462.70916 81.456 
L 170.340091 81.456 
z
" style="fill: #eaeaf2"/>
   </g>
   <g id="matplotlib.axis_1">
    <g id="xtick_1">
     <g id="line2d_1">
      <path d="M 183.629594 201.042 
L 183.629594 81.456 
" clip-path="url(#pe9bb63b705)" style="fill: none; stroke: #ffffff; stroke-linecap: round"/>
     </g>
    </g>
    <g id="xtick_2">
     <g id="line2d_2">
      <path d="M 274.77845 201.042 
L 274.77845 81.456 
" clip-path="url(#pe9bb63b705)" style="fill: none; stroke: #ffffff; stroke-linecap: round"/>
     </g>
    </g>
    <g id="xtick_3">
     <g id="line2d_3">
      <path d="M 365.927305 201.042 
L 365.927305 81.456 
" clip-path="url(#pe9bb63b705)" style="fill: none; stroke: #ffffff; stroke-linecap: round"/>
     </g>
    </g>
    <g id="xtick_4">
     <g id="line2d_4">
      <path d="M 457.076161 201.042 
L 457.076161 81.456 
" clip-path="url(#pe9bb63b705)" style="fill: none; stroke: #ffffff; stroke-linecap: round"/>
     </g>
    </g>
   </g>
   <g id="matplotlib.axis_2">
    <g id="ytick_1">
     <g id="line2d_5">
      <path d="M 170.340091 182.917418 
L 462.70916 182.917418 
" clip-path="url(#pe9bb63b705)" style="fill: none; stroke: #ffffff; stroke-linecap: round"/>
     </g>
     <g id="text_1">
      <!-- −0.5 -->
      <g style="fill: #262626" transform="translate(104.746794 191.693613) scale(0.231 -0.231)">
       <defs>
        <path id="DejaVuSans-2212" d="M 678 2272 
L 4684 2272 
L 4684 1741 
L 678 1741 
L 678 2272 
z
" transform="scale(0.015625)"/>
        <path id="DejaVuSans-30" d="M 2034 4250 
Q 1547 4250 1301 3770 
Q 1056 3291 1056 2328 
Q 1056 1369 1301 889 
Q 1547 409 2034 409 
Q 2525 409 2770 889 
Q 3016 1369 3016 2328 
Q 3016 3291 2770 3770 
Q 2525 4250 2034 4250 
z
M 2034 4750 
Q 2819 4750 3233 4129 
Q 3647 3509 3647 2328 
Q 3647 1150 3233 529 
Q 2819 -91 2034 -91 
Q 1250 -91 836 529 
Q 422 1150 422 2328 
Q 422 3509 836 4129 
Q 1250 4750 2034 4750 
z
" transform="scale(0.015625)"/>
        <path id="DejaVuSans-2e" d="M 684 794 
L 1344 794 
L 1344 0 
L 684 0 
L 684 794 
z
" transform="scale(0.015625)"/>
        <path id="DejaVuSans-35" d="M 691 4666 
L 3169 4666 
L 3169 4134 
L 1269 4134 
L 1269 2991 
Q 1406 3038 1543 3061 
Q 1681 3084 1819 3084 
Q 2600 3084 3056 2656 
Q 3513 2228 3513 1497 
Q 3513 744 3044 326 
Q 2575 -91 1722 -91 
Q 1428 -91 1123 -41 
Q 819 9 494 109 
L 494 744 
Q 775 591 1075 516 
Q 1375 441 1709 441 
Q 2250 441 2565 725 
Q 2881 1009 2881 1497 
Q 2881 1984 2565 2268 
Q 2250 2553 1709 2553 
Q 1456 2553 1204 2497 
Q 953 2441 691 2322 
L 691 4666 
z
" transform="scale(0.015625)"/>
       </defs>
       <use xlink:href="#DejaVuSans-2212"/>
       <use xlink:href="#DejaVuSans-30" x="83.789062"/>
       <use xlink:href="#DejaVuSans-2e" x="147.412109"/>
       <use xlink:href="#DejaVuSans-35" x="179.199219"/>
      </g>
     </g>
    </g>
    <g id="ytick_2">
     <g id="line2d_6">
      <path d="M 170.340091 91.229799 
L 462.70916 91.229799 
" clip-path="url(#pe9bb63b705)" style="fill: none; stroke: #ffffff; stroke-linecap: round"/>
     </g>
     <g id="text_2">
      <!-- 0.0 -->
      <g style="fill: #262626" transform="translate(124.103872 100.005994) scale(0.231 -0.231)">
       <use xlink:href="#DejaVuSans-30"/>
       <use xlink:href="#DejaVuSans-2e" x="63.623047"/>
       <use xlink:href="#DejaVuSans-30" x="95.410156"/>
      </g>
     </g>
    </g>
    <g id="text_3">
     <!-- % change -->
     <g style="fill: #262626" transform="translate(95.505982 203.597344) rotate(-90) scale(0.252 -0.252)">
      <defs>
       <path id="DejaVuSans-25" d="M 4653 2053 
Q 4381 2053 4226 1822 
Q 4072 1591 4072 1178 
Q 4072 772 4226 539 
Q 4381 306 4653 306 
Q 4919 306 5073 539 
Q 5228 772 5228 1178 
Q 5228 1588 5073 1820 
Q 4919 2053 4653 2053 
z
M 4653 2450 
Q 5147 2450 5437 2106 
Q 5728 1763 5728 1178 
Q 5728 594 5436 251 
Q 5144 -91 4653 -91 
Q 4153 -91 3862 251 
Q 3572 594 3572 1178 
Q 3572 1766 3864 2108 
Q 4156 2450 4653 2450 
z
M 1428 4353 
Q 1159 4353 1004 4120 
Q 850 3888 850 3481 
Q 850 3069 1003 2837 
Q 1156 2606 1428 2606 
Q 1700 2606 1854 2837 
Q 2009 3069 2009 3481 
Q 2009 3884 1853 4118 
Q 1697 4353 1428 4353 
z
M 4250 4750 
L 4750 4750 
L 1831 -91 
L 1331 -91 
L 4250 4750 
z
M 1428 4750 
Q 1922 4750 2215 4408 
Q 2509 4066 2509 3481 
Q 2509 2891 2217 2550 
Q 1925 2209 1428 2209 
Q 931 2209 642 2551 
Q 353 2894 353 3481 
Q 353 4063 643 4406 
Q 934 4750 1428 4750 
z
" transform="scale(0.015625)"/>
       <path id="DejaVuSans-20" transform="scale(0.015625)"/>
       <path id="DejaVuSans-63" d="M 3122 3366 
L 3122 2828 
Q 2878 2963 2633 3030 
Q 2388 3097 2138 3097 
Q 1578 3097 1268 2742 
Q 959 2388 959 1747 
Q 959 1106 1268 751 
Q 1578 397 2138 397 
Q 2388 397 2633 464 
Q 2878 531 3122 666 
L 3122 134 
Q 2881 22 2623 -34 
Q 2366 -91 2075 -91 
Q 1284 -91 818 406 
Q 353 903 353 1747 
Q 353 2603 823 3093 
Q 1294 3584 2113 3584 
Q 2378 3584 2631 3529 
Q 2884 3475 3122 3366 
z
" transform="scale(0.015625)"/>
       <path id="DejaVuSans-68" d="M 3513 2113 
L 3513 0 
L 2938 0 
L 2938 2094 
Q 2938 2591 2744 2837 
Q 2550 3084 2163 3084 
Q 1697 3084 1428 2787 
Q 1159 2491 1159 1978 
L 1159 0 
L 581 0 
L 581 4863 
L 1159 4863 
L 1159 2956 
Q 1366 3272 1645 3428 
Q 1925 3584 2291 3584 
Q 2894 3584 3203 3211 
Q 3513 2838 3513 2113 
z
" transform="scale(0.015625)"/>
       <path id="DejaVuSans-61" d="M 2194 1759 
Q 1497 1759 1228 1600 
Q 959 1441 959 1056 
Q 959 750 1161 570 
Q 1363 391 1709 391 
Q 2188 391 2477 730 
Q 2766 1069 2766 1631 
L 2766 1759 
L 2194 1759 
z
M 3341 1997 
L 3341 0 
L 2766 0 
L 2766 531 
Q 2569 213 2275 61 
Q 1981 -91 1556 -91 
Q 1019 -91 701 211 
Q 384 513 384 1019 
Q 384 1609 779 1909 
Q 1175 2209 1959 2209 
L 2766 2209 
L 2766 2266 
Q 2766 2663 2505 2880 
Q 2244 3097 1772 3097 
Q 1472 3097 1187 3025 
Q 903 2953 641 2809 
L 641 3341 
Q 956 3463 1253 3523 
Q 1550 3584 1831 3584 
Q 2591 3584 2966 3190 
Q 3341 2797 3341 1997 
z
" transform="scale(0.015625)"/>
       <path id="DejaVuSans-6e" d="M 3513 2113 
L 3513 0 
L 2938 0 
L 2938 2094 
Q 2938 2591 2744 2837 
Q 2550 3084 2163 3084 
Q 1697 3084 1428 2787 
Q 1159 2491 1159 1978 
L 1159 0 
L 581 0 
L 581 3500 
L 1159 3500 
L 1159 2956 
Q 1366 3272 1645 3428 
Q 1925 3584 2291 3584 
Q 2894 3584 3203 3211 
Q 3513 2838 3513 2113 
z
" transform="scale(0.015625)"/>
       <path id="DejaVuSans-67" d="M 2906 1791 
Q 2906 2416 2648 2759 
Q 2391 3103 1925 3103 
Q 1463 3103 1205 2759 
Q 947 2416 947 1791 
Q 947 1169 1205 825 
Q 1463 481 1925 481 
Q 2391 481 2648 825 
Q 2906 1169 2906 1791 
z
M 3481 434 
Q 3481 -459 3084 -895 
Q 2688 -1331 1869 -1331 
Q 1566 -1331 1297 -1286 
Q 1028 -1241 775 -1147 
L 775 -588 
Q 1028 -725 1275 -790 
Q 1522 -856 1778 -856 
Q 2344 -856 2625 -561 
Q 2906 -266 2906 331 
L 2906 616 
Q 2728 306 2450 153 
Q 2172 0 1784 0 
Q 1141 0 747 490 
Q 353 981 353 1791 
Q 353 2603 747 3093 
Q 1141 3584 1784 3584 
Q 2172 3584 2450 3431 
Q 2728 3278 2906 2969 
L 2906 3500 
L 3481 3500 
L 3481 434 
z
" transform="scale(0.015625)"/>
       <path id="DejaVuSans-65" d="M 3597 1894 
L 3597 1613 
L 953 1613 
Q 991 1019 1311 708 
Q 1631 397 2203 397 
Q 2534 397 2845 478 
Q 3156 559 3463 722 
L 3463 178 
Q 3153 47 2828 -22 
Q 2503 -91 2169 -91 
Q 1331 -91 842 396 
Q 353 884 353 1716 
Q 353 2575 817 3079 
Q 1281 3584 2069 3584 
Q 2775 3584 3186 3129 
Q 3597 2675 3597 1894 
z
M 3022 2063 
Q 3016 2534 2758 2815 
Q 2500 3097 2075 3097 
Q 1594 3097 1305 2825 
Q 1016 2553 972 2059 
L 3022 2063 
z
" transform="scale(0.015625)"/>
      </defs>
      <use xlink:href="#DejaVuSans-25"/>
      <use xlink:href="#DejaVuSans-20" x="95.019531"/>
      <use xlink:href="#DejaVuSans-63" x="126.806641"/>
      <use xlink:href="#DejaVuSans-68" x="181.787109"/>
      <use xlink:href="#DejaVuSans-61" x="245.166016"/>
      <use xlink:href="#DejaVuSans-6e" x="306.445312"/>
      <use xlink:href="#DejaVuSans-67" x="369.824219"/>
      <use xlink:href="#DejaVuSans-65" x="433.300781"/>
     </g>
    </g>
   </g>
   <g id="PolyCollection_1"/>
   <g id="PolyCollection_2"/>
   <g id="PolyCollection_3"/>
   <g id="PolyCollection_4"/>
   <g id="PolyCollection_5"/>
   <g id="PolyCollection_6"/>
   <g id="line2d_7">
    <path d="M 183.629594 91.229799 
L 183.99419 184.056403 
L 184.358785 187.253847 
L 184.723381 188.018086 
L 185.087976 188.113081 
L 185.817167 187.875487 
L 189.098526 186.404771 
L 189.827716 182.42717 
L 192.015289 169.846564 
L 193.838266 160.543902 
L 195.661243 152.225411 
L 197.48422 144.78511 
L 199.307197 138.128269 
L 201.130175 132.171647 
L 202.953152 126.863448 
L 205.140724 121.235279 
L 207.328297 116.309155 
L 209.151274 112.726053 
L 211.338846 108.995626 
L 213.526419 105.74144 
L 215.713991 102.934693 
L 217.901564 100.476512 
L 220.089136 98.323344 
L 222.641304 96.146923 
L 225.193472 94.27979 
L 227.01645 93.187708 
L 228.474831 92.513259 
L 231.391595 91.460038 
L 235.037549 90.405759 
L 239.048098 89.49972 
L 243.058648 88.807266 
L 248.527579 88.156054 
L 251.808938 87.922253 
L 256.913274 88.124922 
L 268.580328 88.711974 
L 279.882786 89.00635 
L 330.56155 89.829435 
L 369.208664 89.90208 
L 449.419657 89.908041 
L 449.419657 89.908041 
" clip-path="url(#pe9bb63b705)" style="fill: none; stroke: #4c72b0; stroke-opacity: 0.9; stroke-width: 3; stroke-linecap: round"/>
   </g>
   <g id="line2d_8">
    <path d="M 183.629594 91.229799 
L 183.99419 141.857951 
L 184.358785 143.973403 
L 184.723381 144.667116 
L 185.087976 144.872692 
L 185.817167 144.859416 
L 189.098526 144.17083 
L 189.827716 142.148032 
L 192.379884 134.192848 
L 194.567457 128.2359 
L 196.755029 123.026763 
L 198.942602 118.472445 
L 201.130175 114.486527 
L 203.317747 110.9976 
L 205.50532 107.943573 
L 207.692892 105.270272 
L 209.880465 102.944724 
L 212.068037 100.914451 
L 214.25561 99.178987 
L 216.807778 97.468779 
L 219.359946 96.029567 
L 222.276709 94.638785 
L 225.558068 93.339012 
L 228.110236 92.531266 
L 230.662404 91.938762 
L 235.402144 91.148797 
L 240.50648 90.52087 
L 246.704602 89.983749 
L 253.631915 89.591233 
L 265.298969 89.65453 
L 293.008221 90.091943 
L 342.593198 90.301975 
L 410.043352 90.361847 
L 449.419657 90.362524 
L 449.419657 90.362524 
" clip-path="url(#pe9bb63b705)" style="fill: none; stroke: #dd8452; stroke-opacity: 0.9; stroke-width: 3; stroke-linecap: round"/>
   </g>
   <g id="line2d_9">
    <path d="M 183.629594 91.229799 
L 183.99419 188.505373 
L 184.358785 193.710751 
L 184.723381 194.936161 
L 185.087976 195.167846 
L 185.817167 194.979483 
L 189.098526 193.431759 
L 189.827716 189.128461 
L 192.015289 175.599063 
L 193.838266 165.57784 
L 195.661243 156.613096 
L 197.48422 148.601533 
L 199.307197 141.43736 
L 201.130175 135.026058 
L 202.953152 129.287076 
L 204.776129 124.157065 
L 206.599106 119.574552 
L 208.786678 114.721175 
L 210.974251 110.492389 
L 213.161823 106.80576 
L 215.349396 103.603093 
L 217.536969 100.864494 
L 219.724541 98.527786 
L 221.912114 96.497362 
L 224.464282 94.450048 
L 225.922663 93.469223 
L 228.474831 92.122846 
L 231.026999 90.989043 
L 234.308358 89.83921 
L 237.589717 88.947136 
L 241.235671 88.219489 
L 243.787839 87.891897 
L 245.975411 87.793948 
L 251.808938 87.899232 
L 260.923824 88.233387 
L 294.831198 89.687161 
L 308.685824 89.918465 
L 329.103168 90.062791 
L 371.396237 90.122151 
L 449.419657 90.119176 
L 449.419657 90.119176 
" clip-path="url(#pe9bb63b705)" style="fill: none; stroke: #55a868; stroke-opacity: 0.9; stroke-width: 3; stroke-linecap: round"/>
   </g>
   <g id="line2d_10">
    <path d="M 183.629594 91.229799 
L 183.99419 167.680338 
L 184.358785 171.861499 
L 184.723381 172.827435 
L 185.087976 173.003088 
L 185.817167 172.84975 
L 189.098526 171.624864 
L 189.827716 168.267206 
L 192.015289 157.626504 
L 193.838266 149.743954 
L 195.661243 142.692341 
L 197.48422 136.385118 
L 199.307197 130.741559 
L 201.49477 124.746285 
L 203.682342 119.501404 
L 205.869915 114.912744 
L 208.057488 110.909605 
L 210.24506 107.42957 
L 212.432633 104.400943 
L 214.620205 101.773045 
L 216.807778 99.508033 
L 218.99535 97.56963 
L 221.547518 95.651828 
L 224.099686 94.017717 
L 225.922663 93.035214 
L 228.839427 91.870036 
L 232.120785 90.797828 
L 235.402144 89.954002 
L 239.412694 89.214081 
L 243.058648 88.767252 
L 245.975411 88.694416 
L 256.184083 88.841703 
L 275.872236 89.359302 
L 290.091458 89.858356 
L 305.03987 90.101721 
L 331.655336 90.255152 
L 393.636558 90.289742 
L 449.419657 90.284368 
L 449.419657 90.284368 
" clip-path="url(#pe9bb63b705)" style="fill: none; stroke: #c44e52; stroke-opacity: 0.9; stroke-width: 3; stroke-linecap: round"/>
   </g>
   <g id="line2d_11">
    <path d="M 183.629594 91.229799 
L 183.99419 180.349387 
L 184.358785 184.18258 
L 184.723381 184.731879 
L 185.087976 184.725757 
L 186.546358 184.141528 
L 189.098526 183.051124 
L 193.838266 157.897043 
L 195.661243 149.909702 
L 197.48422 142.766719 
L 199.307197 136.377934 
L 201.130175 130.662408 
L 203.317747 124.593946 
L 205.50532 119.284371 
L 207.692892 114.637952 
L 209.880465 110.570837 
L 212.068037 107.014761 
L 214.25561 103.906441 
L 216.443182 101.185734 
L 218.630755 98.85378 
L 220.818327 96.809587 
L 223.370495 94.736987 
L 225.558068 93.24618 
L 227.74564 92.042184 
L 230.297808 90.936108 
L 233.579167 89.778948 
L 236.860526 88.883681 
L 241.235671 88.089386 
L 244.51703 87.675286 
L 250.350557 87.212417 
L 255.454892 86.999713 
L 264.205183 86.8925 
L 266.392755 87.002393 
L 279.51819 88.055722 
L 286.445503 88.455813 
L 309.415015 89.285331 
L 340.770221 89.826243 
L 373.948405 89.921032 
L 449.419657 89.937049 
L 449.419657 89.937049 
" clip-path="url(#pe9bb63b705)" style="fill: none; stroke: #8172b3; stroke-opacity: 0.9; stroke-width: 3; stroke-linecap: round"/>
   </g>
   <g id="line2d_12">
    <path d="M 183.629594 91.229799 
L 183.99419 162.74051 
L 184.358785 165.349253 
L 184.723381 165.768016 
L 185.452571 165.668886 
L 189.098526 164.483953 
L 193.838266 144.49184 
L 195.661243 138.144965 
L 197.48422 132.471225 
L 199.671793 126.449568 
L 201.859365 121.185049 
L 204.046938 116.579766 
L 206.23451 112.550432 
L 208.422083 109.030988 
L 210.609655 105.955196 
L 212.797228 103.261733 
L 214.984801 100.90207 
L 217.172373 98.861085 
L 219.724541 96.809686 
L 222.276709 95.057213 
L 224.828877 93.571404 
L 227.381045 92.339196 
L 230.297808 91.288387 
L 233.579167 90.403075 
L 237.954312 89.6076 
L 242.329457 89.037783 
L 247.798389 88.547284 
L 254.361106 88.234334 
L 264.205183 88.097978 
L 269.309519 88.337175 
L 279.51819 88.81016 
L 291.185244 89.14213 
L 319.259091 89.75516 
L 338.582649 89.980104 
L 371.396237 90.069191 
L 449.419657 90.087466 
L 449.419657 90.087466 
" clip-path="url(#pe9bb63b705)" style="fill: none; stroke: #937860; stroke-opacity: 0.9; stroke-width: 3; stroke-linecap: round"/>
   </g>
   <g id="patch_3">
    <path d="M 170.340091 201.042 
L 170.340091 81.456 
" style="fill: none; stroke: #ffffff; stroke-width: 1.25; stroke-linejoin: miter; stroke-linecap: square"/>
   </g>
   <g id="patch_4">
    <path d="M 170.340091 201.042 
L 462.70916 201.042 
" style="fill: none; stroke: #ffffff; stroke-width: 1.25; stroke-linejoin: miter; stroke-linecap: square"/>
   </g>
   <g id="text_4">
    <!-- 0.8~90 -->
    <g style="fill: #262626" transform="translate(269.894782 75.456) scale(0.252 -0.252)">
     <defs>
      <path id="DejaVuSans-38" d="M 2034 2216 
Q 1584 2216 1326 1975 
Q 1069 1734 1069 1313 
Q 1069 891 1326 650 
Q 1584 409 2034 409 
Q 2484 409 2743 651 
Q 3003 894 3003 1313 
Q 3003 1734 2745 1975 
Q 2488 2216 2034 2216 
z
M 1403 2484 
Q 997 2584 770 2862 
Q 544 3141 544 3541 
Q 544 4100 942 4425 
Q 1341 4750 2034 4750 
Q 2731 4750 3128 4425 
Q 3525 4100 3525 3541 
Q 3525 3141 3298 2862 
Q 3072 2584 2669 2484 
Q 3125 2378 3379 2068 
Q 3634 1759 3634 1313 
Q 3634 634 3220 271 
Q 2806 -91 2034 -91 
Q 1263 -91 848 271 
Q 434 634 434 1313 
Q 434 1759 690 2068 
Q 947 2378 1403 2484 
z
M 1172 3481 
Q 1172 3119 1398 2916 
Q 1625 2713 2034 2713 
Q 2441 2713 2670 2916 
Q 2900 3119 2900 3481 
Q 2900 3844 2670 4047 
Q 2441 4250 2034 4250 
Q 1625 4250 1398 4047 
Q 1172 3844 1172 3481 
z
" transform="scale(0.015625)"/>
      <path id="DejaVuSans-7e" d="M 4684 2553 
L 4684 1997 
Q 4356 1750 4076 1644 
Q 3797 1538 3494 1538 
Q 3150 1538 2694 1722 
Q 2659 1734 2644 1741 
Q 2622 1750 2575 1766 
Q 2091 1959 1797 1959 
Q 1522 1959 1253 1839 
Q 984 1719 678 1459 
L 678 2016 
Q 1006 2263 1286 2370 
Q 1566 2478 1869 2478 
Q 2213 2478 2672 2291 
Q 2703 2278 2719 2272 
Q 2744 2263 2788 2247 
Q 3272 2053 3566 2053 
Q 3834 2053 4098 2172 
Q 4363 2291 4684 2553 
z
" transform="scale(0.015625)"/>
      <path id="DejaVuSans-39" d="M 703 97 
L 703 672 
Q 941 559 1184 500 
Q 1428 441 1663 441 
Q 2288 441 2617 861 
Q 2947 1281 2994 2138 
Q 2813 1869 2534 1725 
Q 2256 1581 1919 1581 
Q 1219 1581 811 2004 
Q 403 2428 403 3163 
Q 403 3881 828 4315 
Q 1253 4750 1959 4750 
Q 2769 4750 3195 4129 
Q 3622 3509 3622 2328 
Q 3622 1225 3098 567 
Q 2575 -91 1691 -91 
Q 1453 -91 1209 -44 
Q 966 3 703 97 
z
M 1959 2075 
Q 2384 2075 2632 2365 
Q 2881 2656 2881 3163 
Q 2881 3666 2632 3958 
Q 2384 4250 1959 4250 
Q 1534 4250 1286 3958 
Q 1038 3666 1038 3163 
Q 1038 2656 1286 2365 
Q 1534 2075 1959 2075 
z
" transform="scale(0.015625)"/>
     </defs>
     <use xlink:href="#DejaVuSans-30"/>
     <use xlink:href="#DejaVuSans-2e" x="63.623047"/>
     <use xlink:href="#DejaVuSans-38" x="95.410156"/>
     <use xlink:href="#DejaVuSans-7e" x="159.033203"/>
     <use xlink:href="#DejaVuSans-39" x="242.822266"/>
     <use xlink:href="#DejaVuSans-30" x="306.445312"/>
    </g>
   </g>
  </g>
  <g id="axes_2">
   <g id="patch_5">
    <path d="M 489.290298 201.042 
L 781.659367 201.042 
L 781.659367 81.456 
L 489.290298 81.456 
z
" style="fill: #eaeaf2"/>
   </g>
   <g id="matplotlib.axis_3">
    <g id="xtick_5">
     <g id="line2d_13">
      <path d="M 502.579801 201.042 
L 502.579801 81.456 
" clip-path="url(#p2bc0709f43)" style="fill: none; stroke: #ffffff; stroke-linecap: round"/>
     </g>
    </g>
    <g id="xtick_6">
     <g id="line2d_14">
      <path d="M 593.728656 201.042 
L 593.728656 81.456 
" clip-path="url(#p2bc0709f43)" style="fill: none; stroke: #ffffff; stroke-linecap: round"/>
     </g>
    </g>
    <g id="xtick_7">
     <g id="line2d_15">
      <path d="M 684.877512 201.042 
L 684.877512 81.456 
" clip-path="url(#p2bc0709f43)" style="fill: none; stroke: #ffffff; stroke-linecap: round"/>
     </g>
    </g>
    <g id="xtick_8">
     <g id="line2d_16">
      <path d="M 776.026368 201.042 
L 776.026368 81.456 
" clip-path="url(#p2bc0709f43)" style="fill: none; stroke: #ffffff; stroke-linecap: round"/>
     </g>
    </g>
   </g>
   <g id="matplotlib.axis_4">
    <g id="ytick_3">
     <g id="line2d_17">
      <path d="M 489.290298 182.917418 
L 781.659367 182.917418 
" clip-path="url(#p2bc0709f43)" style="fill: none; stroke: #ffffff; stroke-linecap: round"/>
     </g>
    </g>
    <g id="ytick_4">
     <g id="line2d_18">
      <path d="M 489.290298 91.229799 
L 781.659367 91.229799 
" clip-path="url(#p2bc0709f43)" style="fill: none; stroke: #ffffff; stroke-linecap: round"/>
     </g>
    </g>
   </g>
   <g id="PolyCollection_7"/>
   <g id="PolyCollection_8"/>
   <g id="PolyCollection_9"/>
   <g id="PolyCollection_10"/>
   <g id="PolyCollection_11"/>
   <g id="PolyCollection_12"/>
   <g id="line2d_19">
    <path d="M 502.579801 91.229799 
L 502.944396 184.056403 
L 503.308992 187.35658 
L 503.673587 188.239953 
L 504.038182 188.4583 
L 504.767373 188.469248 
L 508.048732 188.105667 
L 508.777923 184.382274 
L 510.965495 172.458862 
L 512.788473 163.632441 
L 514.61145 155.735605 
L 516.434427 148.669806 
L 518.257404 142.346907 
L 520.080381 136.690012 
L 522.267954 130.68078 
L 524.455526 125.420369 
L 526.643099 120.815183 
L 528.830671 116.783105 
L 531.018244 113.252644 
L 533.205816 110.161106 
L 535.393389 107.456977 
L 537.580961 105.092613 
L 539.768534 103.024641 
L 542.320702 100.933315 
L 544.87287 99.140586 
L 547.425038 97.646707 
L 550.341801 96.212185 
L 553.62316 94.886921 
L 556.904519 93.799228 
L 560.550473 92.817376 
L 564.561023 91.957534 
L 567.842381 91.438744 
L 571.852931 90.974797 
L 579.144839 90.520755 
L 588.259725 90.180464 
L 599.562183 89.985264 
L 615.239786 89.938548 
L 619.250336 90.06457 
L 630.552794 90.408424 
L 644.40742 90.611343 
L 677.585604 90.791769 
L 761.077955 90.875065 
L 768.369864 90.8752 
L 768.369864 90.8752 
" clip-path="url(#p2bc0709f43)" style="fill: none; stroke: #4c72b0; stroke-opacity: 0.9; stroke-width: 3; stroke-linecap: round"/>
   </g>
   <g id="line2d_20">
    <path d="M 502.579801 91.229799 
L 502.944396 141.857951 
L 503.308992 144.020881 
L 503.673587 144.770235 
L 504.038182 145.034256 
L 504.767373 145.139992 
L 507.684137 145.003795 
L 508.048732 144.983687 
L 508.777923 143.078805 
L 511.694686 134.490383 
L 513.882259 128.923565 
L 516.069831 124.054762 
L 518.257404 119.794105 
L 520.444976 116.064859 
L 522.632549 112.800674 
L 524.820122 109.943397 
L 527.007694 107.442327 
L 529.195267 105.252987 
L 531.747435 103.041433 
L 534.299603 101.147371 
L 536.85177 99.524648 
L 539.768534 97.952402 
L 542.685297 96.635962 
L 545.966656 95.411436 
L 549.61261 94.310478 
L 552.893969 93.538693 
L 557.269114 92.741023 
L 562.37345 92.040067 
L 567.842381 91.504949 
L 574.405099 91.10472 
L 585.342962 90.805446 
L 600.655969 90.620041 
L 621.802504 90.574571 
L 650.970138 90.90681 
L 702.378092 90.98021 
L 768.369864 91.000284 
L 768.369864 91.000284 
" clip-path="url(#p2bc0709f43)" style="fill: none; stroke: #dd8452; stroke-opacity: 0.9; stroke-width: 3; stroke-linecap: round"/>
   </g>
   <g id="line2d_21">
    <path d="M 502.579801 91.229799 
L 502.944396 188.505373 
L 503.308992 193.817298 
L 503.673587 195.167089 
L 504.038182 195.52776 
L 504.767373 195.599489 
L 508.048732 195.209298 
L 508.777923 191.166768 
L 510.965495 178.362297 
L 512.788473 168.875755 
L 514.61145 160.387876 
L 516.434427 152.793535 
L 518.257404 145.998067 
L 520.080381 139.9219 
L 522.267954 133.468977 
L 524.455526 127.819175 
L 526.643099 122.872334 
L 528.830671 118.541651 
L 531.018244 114.74895 
L 533.205816 111.427784 
L 535.393389 108.519685 
L 537.580961 105.973042 
L 539.768534 103.745464 
L 541.956106 101.799293 
L 544.508274 99.837297 
L 547.060442 98.163382 
L 549.61261 96.732088 
L 552.529374 95.354545 
L 555.446137 94.226897 
L 558.727496 93.202121 
L 562.738045 92.201393 
L 566.019404 91.593233 
L 571.12374 90.931964 
L 576.957267 90.402273 
L 584.249175 90.002123 
L 592.63487 89.764778 
L 601.020565 89.766541 
L 611.958428 90.052803 
L 629.094412 90.471176 
L 652.793115 90.791876 
L 679.408581 90.9134 
L 740.660612 90.954823 
L 768.369864 90.955131 
L 768.369864 90.955131 
" clip-path="url(#p2bc0709f43)" style="fill: none; stroke: #55a868; stroke-opacity: 0.9; stroke-width: 3; stroke-linecap: round"/>
   </g>
   <g id="line2d_22">
    <path d="M 502.579801 91.229799 
L 502.944396 167.680338 
L 503.308992 171.945843 
L 503.673587 173.010675 
L 504.038182 173.288863 
L 504.767373 173.342527 
L 508.048732 173.040466 
L 508.777923 169.890291 
L 510.965495 159.822916 
L 512.788473 152.361906 
L 514.61145 145.685376 
L 516.434427 139.711306 
L 518.621999 133.36496 
L 520.809572 127.809757 
L 522.997144 122.947258 
L 525.184717 118.690305 
L 527.372289 114.963086 
L 529.559862 111.700043 
L 531.747435 108.842706 
L 533.935007 106.340245 
L 536.12258 104.149027 
L 538.674748 101.93562 
L 541.226916 100.040625 
L 543.779084 98.423388 
L 546.331251 97.046095 
L 549.248015 95.719412 
L 552.529374 94.492775 
L 555.810732 93.506411 
L 559.456687 92.642801 
L 563.831832 91.836617 
L 567.113191 91.422136 
L 573.311313 90.863235 
L 580.603221 90.434997 
L 588.259725 90.191358 
L 597.374611 90.097899 
L 609.041664 90.27984 
L 626.90684 90.588568 
L 662.272596 90.912154 
L 706.388642 90.989966 
L 768.369864 90.996654 
L 768.369864 90.996654 
" clip-path="url(#p2bc0709f43)" style="fill: none; stroke: #c44e52; stroke-opacity: 0.9; stroke-width: 3; stroke-linecap: round"/>
   </g>
   <g id="line2d_23">
    <path d="M 502.579801 91.229799 
L 502.944396 180.349387 
L 503.308992 184.292125 
L 503.673587 184.958744 
L 504.038182 185.071092 
L 505.496564 184.959527 
L 508.048732 184.686433 
L 509.871709 174.879209 
L 511.694686 165.814574 
L 513.517663 157.705092 
L 515.340641 150.449743 
L 517.163618 143.958169 
L 518.986595 138.14961 
L 521.174167 131.979609 
L 523.36174 126.579101 
L 525.549312 121.851676 
L 527.736885 117.712974 
L 529.924457 114.08901 
L 532.11203 110.915117 
L 534.299603 108.134749 
L 536.487175 105.69868 
L 538.674748 103.564159 
L 541.226916 101.405062 
L 543.779084 99.553131 
L 546.331251 97.964583 
L 549.248015 96.42675 
L 552.164778 95.136842 
L 555.081542 94.064636 
L 558.727496 92.978029 
L 562.738045 92.025175 
L 566.748595 91.306521 
L 570.759145 90.80454 
L 577.321862 90.269575 
L 584.613771 89.891844 
L 592.270275 89.700491 
L 602.843542 89.665062 
L 632.011176 89.830752 
L 646.230397 90.045966 
L 658.626642 90.36907 
L 676.127222 90.55665 
L 728.993558 90.787251 
L 768.369864 90.838103 
L 768.369864 90.838103 
" clip-path="url(#p2bc0709f43)" style="fill: none; stroke: #8172b3; stroke-opacity: 0.9; stroke-width: 3; stroke-linecap: round"/>
   </g>
   <g id="line2d_24">
    <path d="M 502.579801 91.229799 
L 502.944396 162.74051 
L 503.308992 165.433218 
L 503.673587 165.941651 
L 504.402778 166.023679 
L 508.048732 165.732835 
L 513.153068 145.479715 
L 514.976045 139.571584 
L 517.163618 133.297385 
L 519.35119 127.807373 
L 521.538763 123.003018 
L 523.726335 118.798362 
L 525.913908 115.118106 
L 528.10148 111.896987 
L 530.289053 109.077576 
L 532.476625 106.608946 
L 534.664198 104.446946 
L 537.216366 102.261396 
L 539.768534 100.388245 
L 542.320702 98.782329 
L 545.237465 97.228307 
L 548.154229 95.925944 
L 551.435587 94.708904 
L 554.716946 93.715721 
L 558.727496 92.752005 
L 563.102641 91.9384 
L 567.842381 91.287706 
L 572.582122 90.851844 
L 578.415649 90.513635 
L 586.801343 90.264584 
L 599.926779 90.130191 
L 625.083863 90.197261 
L 642.949038 90.397101 
L 660.085023 90.606531 
L 691.44023 90.756018 
L 768.369864 90.887254 
L 768.369864 90.887254 
" clip-path="url(#p2bc0709f43)" style="fill: none; stroke: #937860; stroke-opacity: 0.9; stroke-width: 3; stroke-linecap: round"/>
   </g>
   <g id="patch_6">
    <path d="M 489.290298 201.042 
L 489.290298 81.456 
" style="fill: none; stroke: #ffffff; stroke-width: 1.25; stroke-linejoin: miter; stroke-linecap: square"/>
   </g>
   <g id="patch_7">
    <path d="M 489.290298 201.042 
L 781.659367 201.042 
" style="fill: none; stroke: #ffffff; stroke-width: 1.25; stroke-linejoin: miter; stroke-linecap: square"/>
   </g>
   <g id="text_5">
    <!-- 0.8~365 -->
    <g style="fill: #262626" transform="translate(580.828239 75.456) scale(0.252 -0.252)">
     <defs>
      <path id="DejaVuSans-33" d="M 2597 2516 
Q 3050 2419 3304 2112 
Q 3559 1806 3559 1356 
Q 3559 666 3084 287 
Q 2609 -91 1734 -91 
Q 1441 -91 1130 -33 
Q 819 25 488 141 
L 488 750 
Q 750 597 1062 519 
Q 1375 441 1716 441 
Q 2309 441 2620 675 
Q 2931 909 2931 1356 
Q 2931 1769 2642 2001 
Q 2353 2234 1838 2234 
L 1294 2234 
L 1294 2753 
L 1863 2753 
Q 2328 2753 2575 2939 
Q 2822 3125 2822 3475 
Q 2822 3834 2567 4026 
Q 2313 4219 1838 4219 
Q 1578 4219 1281 4162 
Q 984 4106 628 3988 
L 628 4550 
Q 988 4650 1302 4700 
Q 1616 4750 1894 4750 
Q 2613 4750 3031 4423 
Q 3450 4097 3450 3541 
Q 3450 3153 3228 2886 
Q 3006 2619 2597 2516 
z
" transform="scale(0.015625)"/>
      <path id="DejaVuSans-36" d="M 2113 2584 
Q 1688 2584 1439 2293 
Q 1191 2003 1191 1497 
Q 1191 994 1439 701 
Q 1688 409 2113 409 
Q 2538 409 2786 701 
Q 3034 994 3034 1497 
Q 3034 2003 2786 2293 
Q 2538 2584 2113 2584 
z
M 3366 4563 
L 3366 3988 
Q 3128 4100 2886 4159 
Q 2644 4219 2406 4219 
Q 1781 4219 1451 3797 
Q 1122 3375 1075 2522 
Q 1259 2794 1537 2939 
Q 1816 3084 2150 3084 
Q 2853 3084 3261 2657 
Q 3669 2231 3669 1497 
Q 3669 778 3244 343 
Q 2819 -91 2113 -91 
Q 1303 -91 875 529 
Q 447 1150 447 2328 
Q 447 3434 972 4092 
Q 1497 4750 2381 4750 
Q 2619 4750 2861 4703 
Q 3103 4656 3366 4563 
z
" transform="scale(0.015625)"/>
     </defs>
     <use xlink:href="#DejaVuSans-30"/>
     <use xlink:href="#DejaVuSans-2e" x="63.623047"/>
     <use xlink:href="#DejaVuSans-38" x="95.410156"/>
     <use xlink:href="#DejaVuSans-7e" x="159.033203"/>
     <use xlink:href="#DejaVuSans-33" x="242.822266"/>
     <use xlink:href="#DejaVuSans-36" x="306.445312"/>
     <use xlink:href="#DejaVuSans-35" x="370.068359"/>
    </g>
   </g>
  </g>
  <g id="axes_3">
   <g id="patch_8">
    <path d="M 808.240504 201.042 
L 1100.609573 201.042 
L 1100.609573 81.456 
L 808.240504 81.456 
z
" style="fill: #eaeaf2"/>
   </g>
   <g id="matplotlib.axis_5">
    <g id="xtick_9">
     <g id="line2d_25">
      <path d="M 821.530007 201.042 
L 821.530007 81.456 
" clip-path="url(#pa34009bcbf)" style="fill: none; stroke: #ffffff; stroke-linecap: round"/>
     </g>
    </g>
    <g id="xtick_10">
     <g id="line2d_26">
      <path d="M 912.678863 201.042 
L 912.678863 81.456 
" clip-path="url(#pa34009bcbf)" style="fill: none; stroke: #ffffff; stroke-linecap: round"/>
     </g>
    </g>
    <g id="xtick_11">
     <g id="line2d_27">
      <path d="M 1003.827719 201.042 
L 1003.827719 81.456 
" clip-path="url(#pa34009bcbf)" style="fill: none; stroke: #ffffff; stroke-linecap: round"/>
     </g>
    </g>
    <g id="xtick_12">
     <g id="line2d_28">
      <path d="M 1094.976574 201.042 
L 1094.976574 81.456 
" clip-path="url(#pa34009bcbf)" style="fill: none; stroke: #ffffff; stroke-linecap: round"/>
     </g>
    </g>
   </g>
   <g id="matplotlib.axis_6">
    <g id="ytick_5">
     <g id="line2d_29">
      <path d="M 808.240504 182.917418 
L 1100.609573 182.917418 
" clip-path="url(#pa34009bcbf)" style="fill: none; stroke: #ffffff; stroke-linecap: round"/>
     </g>
    </g>
    <g id="ytick_6">
     <g id="line2d_30">
      <path d="M 808.240504 91.229799 
L 1100.609573 91.229799 
" clip-path="url(#pa34009bcbf)" style="fill: none; stroke: #ffffff; stroke-linecap: round"/>
     </g>
    </g>
   </g>
   <g id="PolyCollection_13"/>
   <g id="PolyCollection_14"/>
   <g id="PolyCollection_15"/>
   <g id="PolyCollection_16"/>
   <g id="PolyCollection_17"/>
   <g id="PolyCollection_18"/>
   <g id="line2d_31">
    <path d="M 821.530007 91.229799 
L 821.894603 184.056403 
L 822.259198 187.253847 
L 822.623794 188.018086 
L 822.988389 188.113081 
L 823.71758 187.875487 
L 826.998939 186.404771 
L 827.728129 182.42717 
L 829.915702 169.846564 
L 831.738679 160.543902 
L 833.561656 152.225411 
L 835.384633 144.78511 
L 837.20761 138.128269 
L 839.030588 132.171647 
L 840.853565 126.863448 
L 843.041137 121.235279 
L 845.22871 116.309155 
L 847.051687 112.726053 
L 849.239259 108.995626 
L 851.426832 105.74144 
L 853.614404 102.934693 
L 855.801977 100.476512 
L 857.98955 98.323344 
L 860.541717 96.146923 
L 863.093885 94.27979 
L 864.916863 93.187708 
L 866.375244 92.513259 
L 869.292008 91.460038 
L 872.937962 90.405759 
L 876.948512 89.49972 
L 880.959061 88.807266 
L 886.427992 88.156054 
L 889.709351 87.922253 
L 894.813687 88.124922 
L 906.480741 88.711974 
L 917.783199 89.00635 
L 968.461963 89.829435 
L 1007.109077 89.90208 
L 1087.32007 89.908041 
L 1087.32007 89.908041 
" clip-path="url(#pa34009bcbf)" style="fill: none; stroke: #4c72b0; stroke-opacity: 0.9; stroke-width: 3; stroke-linecap: round"/>
   </g>
   <g id="line2d_32">
    <path d="M 821.530007 91.229799 
L 821.894603 141.857951 
L 822.259198 143.973403 
L 822.623794 144.667116 
L 822.988389 144.872692 
L 823.71758 144.859416 
L 826.998939 144.17083 
L 827.728129 142.148032 
L 830.280297 134.192848 
L 832.46787 128.2359 
L 834.655442 123.026763 
L 836.843015 118.472445 
L 839.030588 114.486527 
L 841.21816 110.9976 
L 843.405733 107.943573 
L 845.593305 105.270272 
L 847.780878 102.944724 
L 849.96845 100.914451 
L 852.156023 99.178987 
L 854.708191 97.468779 
L 857.260359 96.029567 
L 860.177122 94.638785 
L 863.458481 93.339012 
L 866.010649 92.531266 
L 868.562817 91.938762 
L 873.302557 91.148797 
L 878.406893 90.52087 
L 884.605015 89.983749 
L 891.532328 89.591233 
L 903.199382 89.65453 
L 930.908634 90.091943 
L 980.493611 90.301975 
L 1047.943765 90.361847 
L 1087.32007 90.362524 
L 1087.32007 90.362524 
" clip-path="url(#pa34009bcbf)" style="fill: none; stroke: #dd8452; stroke-opacity: 0.9; stroke-width: 3; stroke-linecap: round"/>
   </g>
   <g id="line2d_33">
    <path d="M 821.530007 91.229799 
L 821.894603 188.505373 
L 822.259198 193.710751 
L 822.623794 194.936161 
L 822.988389 195.167846 
L 823.71758 194.979483 
L 826.998939 193.431759 
L 827.728129 189.128461 
L 829.915702 175.599063 
L 831.738679 165.57784 
L 833.561656 156.613096 
L 835.384633 148.601533 
L 837.20761 141.43736 
L 839.030588 135.026058 
L 840.853565 129.287076 
L 842.676542 124.157065 
L 844.499519 119.574552 
L 846.687091 114.721175 
L 848.874664 110.492389 
L 851.062237 106.80576 
L 853.249809 103.603093 
L 855.437382 100.864494 
L 857.624954 98.527786 
L 859.812527 96.497362 
L 862.364695 94.450048 
L 863.823076 93.469223 
L 866.375244 92.122846 
L 868.927412 90.989043 
L 872.208771 89.83921 
L 875.49013 88.947136 
L 879.136084 88.219489 
L 881.688252 87.891897 
L 883.875825 87.793948 
L 889.709351 87.899232 
L 898.824237 88.233387 
L 932.731611 89.687161 
L 946.586237 89.918465 
L 967.003581 90.062791 
L 1009.29665 90.122151 
L 1087.32007 90.119176 
L 1087.32007 90.119176 
" clip-path="url(#pa34009bcbf)" style="fill: none; stroke: #55a868; stroke-opacity: 0.9; stroke-width: 3; stroke-linecap: round"/>
   </g>
   <g id="line2d_34">
    <path d="M 821.530007 91.229799 
L 821.894603 167.680338 
L 822.259198 171.861499 
L 822.623794 172.827435 
L 822.988389 173.003088 
L 823.71758 172.84975 
L 826.998939 171.624864 
L 827.728129 168.267206 
L 829.915702 157.626504 
L 831.738679 149.743954 
L 833.561656 142.692341 
L 835.384633 136.385118 
L 837.20761 130.741559 
L 839.395183 124.746285 
L 841.582756 119.501404 
L 843.770328 114.912744 
L 845.957901 110.909605 
L 848.145473 107.42957 
L 850.333046 104.400943 
L 852.520618 101.773045 
L 854.708191 99.508033 
L 856.895763 97.56963 
L 859.447931 95.651828 
L 862.000099 94.017717 
L 863.823076 93.035214 
L 866.73984 91.870036 
L 870.021198 90.797828 
L 873.302557 89.954002 
L 877.313107 89.214081 
L 880.959061 88.767252 
L 883.875825 88.694416 
L 894.084496 88.841703 
L 913.772649 89.359302 
L 927.991871 89.858356 
L 942.940283 90.101721 
L 969.555749 90.255152 
L 1031.536971 90.289742 
L 1087.32007 90.284368 
L 1087.32007 90.284368 
" clip-path="url(#pa34009bcbf)" style="fill: none; stroke: #c44e52; stroke-opacity: 0.9; stroke-width: 3; stroke-linecap: round"/>
   </g>
   <g id="line2d_35">
    <path d="M 821.530007 91.229799 
L 821.894603 180.349387 
L 822.259198 184.18258 
L 822.623794 184.731879 
L 822.988389 184.725757 
L 824.446771 184.141528 
L 826.998939 183.051124 
L 831.738679 157.897043 
L 833.561656 149.909702 
L 835.384633 142.766719 
L 837.20761 136.377934 
L 839.030588 130.662408 
L 841.21816 124.593946 
L 843.405733 119.284371 
L 845.593305 114.637952 
L 847.780878 110.570837 
L 849.96845 107.014761 
L 852.156023 103.906441 
L 854.343595 101.185734 
L 856.531168 98.85378 
L 858.71874 96.809587 
L 861.270908 94.736987 
L 863.458481 93.24618 
L 865.646053 92.042184 
L 868.198221 90.936108 
L 871.47958 89.778948 
L 874.760939 88.883681 
L 879.136084 88.089386 
L 882.417443 87.675286 
L 888.25097 87.212417 
L 893.355306 86.999713 
L 902.105596 86.8925 
L 904.293168 87.002393 
L 917.418603 88.055722 
L 924.345916 88.455813 
L 947.315428 89.285331 
L 978.670634 89.826243 
L 1011.848818 89.921032 
L 1087.32007 89.937049 
L 1087.32007 89.937049 
" clip-path="url(#pa34009bcbf)" style="fill: none; stroke: #8172b3; stroke-opacity: 0.9; stroke-width: 3; stroke-linecap: round"/>
   </g>
   <g id="line2d_36">
    <path d="M 821.530007 91.229799 
L 821.894603 162.74051 
L 822.259198 165.349253 
L 822.623794 165.768016 
L 823.352984 165.668886 
L 826.998939 164.483953 
L 831.738679 144.49184 
L 833.561656 138.144965 
L 835.384633 132.471225 
L 837.572206 126.449568 
L 839.759778 121.185049 
L 841.947351 116.579766 
L 844.134923 112.550432 
L 846.322496 109.030988 
L 848.510069 105.955196 
L 850.697641 103.261733 
L 852.885214 100.90207 
L 855.072786 98.861085 
L 857.624954 96.809686 
L 860.177122 95.057213 
L 862.72929 93.571404 
L 865.281458 92.339196 
L 868.198221 91.288387 
L 871.47958 90.403075 
L 875.854725 89.6076 
L 880.22987 89.037783 
L 885.698802 88.547284 
L 892.261519 88.234334 
L 902.105596 88.097978 
L 907.209932 88.337175 
L 917.418603 88.81016 
L 929.085657 89.14213 
L 957.159504 89.75516 
L 976.483062 89.980104 
L 1009.29665 90.069191 
L 1087.32007 90.087466 
L 1087.32007 90.087466 
" clip-path="url(#pa34009bcbf)" style="fill: none; stroke: #937860; stroke-opacity: 0.9; stroke-width: 3; stroke-linecap: round"/>
   </g>
   <g id="patch_9">
    <path d="M 808.240504 201.042 
L 808.240504 81.456 
" style="fill: none; stroke: #ffffff; stroke-width: 1.25; stroke-linejoin: miter; stroke-linecap: square"/>
   </g>
   <g id="patch_10">
    <path d="M 808.240504 201.042 
L 1100.609573 201.042 
" style="fill: none; stroke: #ffffff; stroke-width: 1.25; stroke-linejoin: miter; stroke-linecap: square"/>
   </g>
   <g id="text_6">
    <!-- 0.85~90 -->
    <g style="fill: #262626" transform="translate(899.778445 75.456) scale(0.252 -0.252)">
     <use xlink:href="#DejaVuSans-30"/>
     <use xlink:href="#DejaVuSans-2e" x="63.623047"/>
     <use xlink:href="#DejaVuSans-38" x="95.410156"/>
     <use xlink:href="#DejaVuSans-35" x="159.033203"/>
     <use xlink:href="#DejaVuSans-7e" x="222.65625"/>
     <use xlink:href="#DejaVuSans-39" x="306.445312"/>
     <use xlink:href="#DejaVuSans-30" x="370.068359"/>
    </g>
   </g>
  </g>
  <g id="axes_4">
   <g id="patch_11">
    <path d="M 170.340091 373.284 
L 462.70916 373.284 
L 462.70916 253.698 
L 170.340091 253.698 
z
" style="fill: #eaeaf2"/>
   </g>
   <g id="matplotlib.axis_7">
    <g id="xtick_13">
     <g id="line2d_37">
      <path d="M 183.629594 373.284 
L 183.629594 253.698 
" clip-path="url(#pbade1d1409)" style="fill: none; stroke: #ffffff; stroke-linecap: round"/>
     </g>
     <g id="text_7">
      <!-- 0 -->
      <g style="fill: #262626" transform="translate(176.280907 400.336391) scale(0.231 -0.231)">
       <use xlink:href="#DejaVuSans-30"/>
      </g>
     </g>
    </g>
    <g id="xtick_14">
     <g id="line2d_38">
      <path d="M 274.77845 373.284 
L 274.77845 253.698 
" clip-path="url(#pbade1d1409)" style="fill: none; stroke: #ffffff; stroke-linecap: round"/>
     </g>
     <g id="text_8">
      <!-- 250 -->
      <g style="fill: #262626" transform="translate(252.732387 400.336391) scale(0.231 -0.231)">
       <defs>
        <path id="DejaVuSans-32" d="M 1228 531 
L 3431 531 
L 3431 0 
L 469 0 
L 469 531 
Q 828 903 1448 1529 
Q 2069 2156 2228 2338 
Q 2531 2678 2651 2914 
Q 2772 3150 2772 3378 
Q 2772 3750 2511 3984 
Q 2250 4219 1831 4219 
Q 1534 4219 1204 4116 
Q 875 4013 500 3803 
L 500 4441 
Q 881 4594 1212 4672 
Q 1544 4750 1819 4750 
Q 2544 4750 2975 4387 
Q 3406 4025 3406 3419 
Q 3406 3131 3298 2873 
Q 3191 2616 2906 2266 
Q 2828 2175 2409 1742 
Q 1991 1309 1228 531 
z
" transform="scale(0.015625)"/>
       </defs>
       <use xlink:href="#DejaVuSans-32"/>
       <use xlink:href="#DejaVuSans-35" x="63.623047"/>
       <use xlink:href="#DejaVuSans-30" x="127.246094"/>
      </g>
     </g>
    </g>
    <g id="xtick_15">
     <g id="line2d_39">
      <path d="M 365.927305 373.284 
L 365.927305 253.698 
" clip-path="url(#pbade1d1409)" style="fill: none; stroke: #ffffff; stroke-linecap: round"/>
     </g>
     <g id="text_9">
      <!-- 500 -->
      <g style="fill: #262626" transform="translate(343.881243 400.336391) scale(0.231 -0.231)">
       <use xlink:href="#DejaVuSans-35"/>
       <use xlink:href="#DejaVuSans-30" x="63.623047"/>
       <use xlink:href="#DejaVuSans-30" x="127.246094"/>
      </g>
     </g>
    </g>
    <g id="xtick_16">
     <g id="line2d_40">
      <path d="M 457.076161 373.284 
L 457.076161 253.698 
" clip-path="url(#pbade1d1409)" style="fill: none; stroke: #ffffff; stroke-linecap: round"/>
     </g>
     <g id="text_10">
      <!-- 750 -->
      <g style="fill: #262626" transform="translate(435.030099 400.336391) scale(0.231 -0.231)">
       <defs>
        <path id="DejaVuSans-37" d="M 525 4666 
L 3525 4666 
L 3525 4397 
L 1831 0 
L 1172 0 
L 2766 4134 
L 525 4134 
L 525 4666 
z
" transform="scale(0.015625)"/>
       </defs>
       <use xlink:href="#DejaVuSans-37"/>
       <use xlink:href="#DejaVuSans-35" x="63.623047"/>
       <use xlink:href="#DejaVuSans-30" x="127.246094"/>
      </g>
     </g>
    </g>
    <g id="text_11">
     <!-- step -->
     <g style="fill: #262626" transform="translate(289.269251 428.288531) scale(0.252 -0.252)">
      <defs>
       <path id="DejaVuSans-73" d="M 2834 3397 
L 2834 2853 
Q 2591 2978 2328 3040 
Q 2066 3103 1784 3103 
Q 1356 3103 1142 2972 
Q 928 2841 928 2578 
Q 928 2378 1081 2264 
Q 1234 2150 1697 2047 
L 1894 2003 
Q 2506 1872 2764 1633 
Q 3022 1394 3022 966 
Q 3022 478 2636 193 
Q 2250 -91 1575 -91 
Q 1294 -91 989 -36 
Q 684 19 347 128 
L 347 722 
Q 666 556 975 473 
Q 1284 391 1588 391 
Q 1994 391 2212 530 
Q 2431 669 2431 922 
Q 2431 1156 2273 1281 
Q 2116 1406 1581 1522 
L 1381 1569 
Q 847 1681 609 1914 
Q 372 2147 372 2553 
Q 372 3047 722 3315 
Q 1072 3584 1716 3584 
Q 2034 3584 2315 3537 
Q 2597 3491 2834 3397 
z
" transform="scale(0.015625)"/>
       <path id="DejaVuSans-74" d="M 1172 4494 
L 1172 3500 
L 2356 3500 
L 2356 3053 
L 1172 3053 
L 1172 1153 
Q 1172 725 1289 603 
Q 1406 481 1766 481 
L 2356 481 
L 2356 0 
L 1766 0 
Q 1100 0 847 248 
Q 594 497 594 1153 
L 594 3053 
L 172 3053 
L 172 3500 
L 594 3500 
L 594 4494 
L 1172 4494 
z
" transform="scale(0.015625)"/>
       <path id="DejaVuSans-70" d="M 1159 525 
L 1159 -1331 
L 581 -1331 
L 581 3500 
L 1159 3500 
L 1159 2969 
Q 1341 3281 1617 3432 
Q 1894 3584 2278 3584 
Q 2916 3584 3314 3078 
Q 3713 2572 3713 1747 
Q 3713 922 3314 415 
Q 2916 -91 2278 -91 
Q 1894 -91 1617 61 
Q 1341 213 1159 525 
z
M 3116 1747 
Q 3116 2381 2855 2742 
Q 2594 3103 2138 3103 
Q 1681 3103 1420 2742 
Q 1159 2381 1159 1747 
Q 1159 1113 1420 752 
Q 1681 391 2138 391 
Q 2594 391 2855 752 
Q 3116 1113 3116 1747 
z
" transform="scale(0.015625)"/>
      </defs>
      <use xlink:href="#DejaVuSans-73"/>
      <use xlink:href="#DejaVuSans-74" x="52.099609"/>
      <use xlink:href="#DejaVuSans-65" x="91.308594"/>
      <use xlink:href="#DejaVuSans-70" x="152.832031"/>
     </g>
    </g>
   </g>
   <g id="matplotlib.axis_8">
    <g id="ytick_7">
     <g id="line2d_41">
      <path d="M 170.340091 355.159418 
L 462.70916 355.159418 
" clip-path="url(#pbade1d1409)" style="fill: none; stroke: #ffffff; stroke-linecap: round"/>
     </g>
     <g id="text_12">
      <!-- −0.5 -->
      <g style="fill: #262626" transform="translate(104.746794 363.935613) scale(0.231 -0.231)">
       <use xlink:href="#DejaVuSans-2212"/>
       <use xlink:href="#DejaVuSans-30" x="83.789062"/>
       <use xlink:href="#DejaVuSans-2e" x="147.412109"/>
       <use xlink:href="#DejaVuSans-35" x="179.199219"/>
      </g>
     </g>
    </g>
    <g id="ytick_8">
     <g id="line2d_42">
      <path d="M 170.340091 263.471799 
L 462.70916 263.471799 
" clip-path="url(#pbade1d1409)" style="fill: none; stroke: #ffffff; stroke-linecap: round"/>
     </g>
     <g id="text_13">
      <!-- 0.0 -->
      <g style="fill: #262626" transform="translate(124.103872 272.247994) scale(0.231 -0.231)">
       <use xlink:href="#DejaVuSans-30"/>
       <use xlink:href="#DejaVuSans-2e" x="63.623047"/>
       <use xlink:href="#DejaVuSans-30" x="95.410156"/>
      </g>
     </g>
    </g>
    <g id="text_14">
     <!-- % change -->
     <g style="fill: #262626" transform="translate(95.505982 375.839344) rotate(-90) scale(0.252 -0.252)">
      <use xlink:href="#DejaVuSans-25"/>
      <use xlink:href="#DejaVuSans-20" x="95.019531"/>
      <use xlink:href="#DejaVuSans-63" x="126.806641"/>
      <use xlink:href="#DejaVuSans-68" x="181.787109"/>
      <use xlink:href="#DejaVuSans-61" x="245.166016"/>
      <use xlink:href="#DejaVuSans-6e" x="306.445312"/>
      <use xlink:href="#DejaVuSans-67" x="369.824219"/>
      <use xlink:href="#DejaVuSans-65" x="433.300781"/>
     </g>
    </g>
   </g>
   <g id="PolyCollection_19"/>
   <g id="PolyCollection_20"/>
   <g id="PolyCollection_21"/>
   <g id="PolyCollection_22"/>
   <g id="PolyCollection_23"/>
   <g id="PolyCollection_24"/>
   <g id="line2d_43">
    <path d="M 183.629594 263.471799 
L 183.99419 356.298403 
L 184.358785 359.59858 
L 184.723381 360.481953 
L 185.087976 360.7003 
L 185.817167 360.711248 
L 189.098526 360.347667 
L 189.827716 356.624274 
L 192.015289 344.700862 
L 193.838266 335.874441 
L 195.661243 327.977605 
L 197.48422 320.911806 
L 199.307197 314.588907 
L 201.130175 308.932012 
L 203.317747 302.92278 
L 205.50532 297.662369 
L 207.692892 293.057183 
L 209.880465 289.025105 
L 212.068037 285.494644 
L 214.25561 282.403106 
L 216.443182 279.698977 
L 218.630755 277.334613 
L 220.818327 275.266641 
L 223.370495 273.175315 
L 225.922663 271.382586 
L 228.474831 269.888707 
L 231.391595 268.454185 
L 234.672953 267.128921 
L 237.954312 266.041228 
L 241.600266 265.059376 
L 245.610816 264.199534 
L 248.892175 263.680744 
L 252.902725 263.216797 
L 260.194633 262.762755 
L 269.309519 262.422464 
L 280.611977 262.227264 
L 296.28958 262.180548 
L 300.300129 262.30657 
L 311.602588 262.650424 
L 325.457214 262.853343 
L 358.635397 263.033769 
L 442.127749 263.117065 
L 449.419657 263.1172 
L 449.419657 263.1172 
" clip-path="url(#pbade1d1409)" style="fill: none; stroke: #4c72b0; stroke-opacity: 0.9; stroke-width: 3; stroke-linecap: round"/>
   </g>
   <g id="line2d_44">
    <path d="M 183.629594 263.471799 
L 183.99419 314.099951 
L 184.358785 316.262881 
L 184.723381 317.012235 
L 185.087976 317.276256 
L 185.817167 317.381992 
L 188.73393 317.245795 
L 189.098526 317.225687 
L 189.827716 315.320805 
L 192.74448 306.732383 
L 194.932052 301.165565 
L 197.119625 296.296762 
L 199.307197 292.036105 
L 201.49477 288.306859 
L 203.682342 285.042674 
L 205.869915 282.185397 
L 208.057488 279.684327 
L 210.24506 277.494987 
L 212.797228 275.283433 
L 215.349396 273.389371 
L 217.901564 271.766648 
L 220.818327 270.194402 
L 223.735091 268.877962 
L 227.01645 267.653436 
L 230.662404 266.552478 
L 233.943763 265.780693 
L 238.318908 264.983023 
L 243.423244 264.282067 
L 248.892175 263.746949 
L 255.454892 263.34672 
L 266.392755 263.047446 
L 281.705763 262.862041 
L 302.852297 262.816571 
L 332.019931 263.14881 
L 383.427886 263.22221 
L 449.419657 263.242284 
L 449.419657 263.242284 
" clip-path="url(#pbade1d1409)" style="fill: none; stroke: #dd8452; stroke-opacity: 0.9; stroke-width: 3; stroke-linecap: round"/>
   </g>
   <g id="line2d_45">
    <path d="M 183.629594 263.471799 
L 183.99419 360.747373 
L 184.358785 366.059298 
L 184.723381 367.409089 
L 185.087976 367.76976 
L 185.817167 367.841489 
L 189.098526 367.451298 
L 189.827716 363.408768 
L 192.015289 350.604297 
L 193.838266 341.117755 
L 195.661243 332.629876 
L 197.48422 325.035535 
L 199.307197 318.240067 
L 201.130175 312.1639 
L 203.317747 305.710977 
L 205.50532 300.061175 
L 207.692892 295.114334 
L 209.880465 290.783651 
L 212.068037 286.99095 
L 214.25561 283.669784 
L 216.443182 280.761685 
L 218.630755 278.215042 
L 220.818327 275.987464 
L 223.0059 274.041293 
L 225.558068 272.079297 
L 228.110236 270.405382 
L 230.662404 268.974088 
L 233.579167 267.596545 
L 236.49593 266.468897 
L 239.777289 265.444121 
L 243.787839 264.443393 
L 247.069198 263.835233 
L 252.173534 263.173964 
L 258.00706 262.644273 
L 265.298969 262.244123 
L 273.684664 262.006778 
L 282.070358 262.008541 
L 293.008221 262.294803 
L 310.144206 262.713176 
L 333.842908 263.033876 
L 360.458374 263.1554 
L 421.710405 263.196823 
L 449.419657 263.197131 
L 449.419657 263.197131 
" clip-path="url(#pbade1d1409)" style="fill: none; stroke: #55a868; stroke-opacity: 0.9; stroke-width: 3; stroke-linecap: round"/>
   </g>
   <g id="line2d_46">
    <path d="M 183.629594 263.471799 
L 183.99419 339.922338 
L 184.358785 344.187843 
L 184.723381 345.252675 
L 185.087976 345.530863 
L 185.817167 345.584527 
L 189.098526 345.282466 
L 189.827716 342.132291 
L 192.015289 332.064916 
L 193.838266 324.603906 
L 195.661243 317.927376 
L 197.48422 311.953306 
L 199.671793 305.60696 
L 201.859365 300.051757 
L 204.046938 295.189258 
L 206.23451 290.932305 
L 208.422083 287.205086 
L 210.609655 283.942043 
L 212.797228 281.084706 
L 214.984801 278.582245 
L 217.172373 276.391027 
L 219.724541 274.17762 
L 222.276709 272.282625 
L 224.828877 270.665388 
L 227.381045 269.288095 
L 230.297808 267.961412 
L 233.579167 266.734775 
L 236.860526 265.748411 
L 240.50648 264.884801 
L 244.881625 264.078617 
L 248.162984 263.664136 
L 254.361106 263.105235 
L 261.653015 262.676997 
L 269.309519 262.433358 
L 278.424404 262.339899 
L 290.091458 262.52184 
L 307.956633 262.830568 
L 343.322389 263.154154 
L 387.438435 263.231966 
L 449.419657 263.238654 
L 449.419657 263.238654 
" clip-path="url(#pbade1d1409)" style="fill: none; stroke: #c44e52; stroke-opacity: 0.9; stroke-width: 3; stroke-linecap: round"/>
   </g>
   <g id="line2d_47">
    <path d="M 183.629594 263.471799 
L 183.99419 352.591387 
L 184.358785 356.534125 
L 184.723381 357.200744 
L 185.087976 357.313092 
L 186.546358 357.201527 
L 189.098526 356.928433 
L 190.921503 347.121209 
L 192.74448 338.056574 
L 194.567457 329.947092 
L 196.390434 322.691743 
L 198.213411 316.200169 
L 200.036388 310.39161 
L 202.223961 304.221609 
L 204.411533 298.821101 
L 206.599106 294.093676 
L 208.786678 289.954974 
L 210.974251 286.33101 
L 213.161823 283.157117 
L 215.349396 280.376749 
L 217.536969 277.94068 
L 219.724541 275.806159 
L 222.276709 273.647062 
L 224.828877 271.795131 
L 227.381045 270.206583 
L 230.297808 268.66875 
L 233.214572 267.378842 
L 236.131335 266.306636 
L 239.777289 265.220029 
L 243.787839 264.267175 
L 247.798389 263.548521 
L 251.808938 263.04654 
L 258.371656 262.511575 
L 265.663564 262.133844 
L 273.320068 261.942491 
L 283.893335 261.907062 
L 313.060969 262.072752 
L 327.280191 262.287966 
L 339.676435 262.61107 
L 357.177015 262.79865 
L 410.043352 263.029251 
L 449.419657 263.080103 
L 449.419657 263.080103 
" clip-path="url(#pbade1d1409)" style="fill: none; stroke: #8172b3; stroke-opacity: 0.9; stroke-width: 3; stroke-linecap: round"/>
   </g>
   <g id="line2d_48">
    <path d="M 183.629594 263.471799 
L 183.99419 334.98251 
L 184.358785 337.675218 
L 184.723381 338.183651 
L 185.452571 338.265679 
L 189.098526 337.974835 
L 194.202861 317.721715 
L 196.025839 311.813584 
L 198.213411 305.539385 
L 200.400984 300.049373 
L 202.588556 295.245018 
L 204.776129 291.040362 
L 206.963701 287.360106 
L 209.151274 284.138987 
L 211.338846 281.319576 
L 213.526419 278.850946 
L 215.713991 276.688946 
L 218.266159 274.503396 
L 220.818327 272.630245 
L 223.370495 271.024329 
L 226.287259 269.470307 
L 229.204022 268.167944 
L 232.485381 266.950904 
L 235.76674 265.957721 
L 239.777289 264.994005 
L 244.152434 264.1804 
L 248.892175 263.529706 
L 253.631915 263.093844 
L 259.465442 262.755635 
L 267.851137 262.506584 
L 280.976572 262.372191 
L 306.133656 262.439261 
L 323.998832 262.639101 
L 341.134817 262.848531 
L 372.490023 262.998018 
L 449.419657 263.129254 
L 449.419657 263.129254 
" clip-path="url(#pbade1d1409)" style="fill: none; stroke: #937860; stroke-opacity: 0.9; stroke-width: 3; stroke-linecap: round"/>
   </g>
   <g id="patch_12">
    <path d="M 170.340091 373.284 
L 170.340091 253.698 
" style="fill: none; stroke: #ffffff; stroke-width: 1.25; stroke-linejoin: miter; stroke-linecap: square"/>
   </g>
   <g id="patch_13">
    <path d="M 170.340091 373.284 
L 462.70916 373.284 
" style="fill: none; stroke: #ffffff; stroke-width: 1.25; stroke-linejoin: miter; stroke-linecap: square"/>
   </g>
   <g id="text_15">
    <!-- 0.85~365 -->
    <g style="fill: #262626" transform="translate(253.861282 247.698) scale(0.252 -0.252)">
     <use xlink:href="#DejaVuSans-30"/>
     <use xlink:href="#DejaVuSans-2e" x="63.623047"/>
     <use xlink:href="#DejaVuSans-38" x="95.410156"/>
     <use xlink:href="#DejaVuSans-35" x="159.033203"/>
     <use xlink:href="#DejaVuSans-7e" x="222.65625"/>
     <use xlink:href="#DejaVuSans-33" x="306.445312"/>
     <use xlink:href="#DejaVuSans-36" x="370.068359"/>
     <use xlink:href="#DejaVuSans-35" x="433.691406"/>
    </g>
   </g>
  </g>
  <g id="axes_5">
   <g id="patch_14">
    <path d="M 489.290298 373.284 
L 781.659367 373.284 
L 781.659367 253.698 
L 489.290298 253.698 
z
" style="fill: #eaeaf2"/>
   </g>
   <g id="matplotlib.axis_9">
    <g id="xtick_17">
     <g id="line2d_49">
      <path d="M 502.579801 373.284 
L 502.579801 253.698 
" clip-path="url(#pc63508a54f)" style="fill: none; stroke: #ffffff; stroke-linecap: round"/>
     </g>
     <g id="text_16">
      <!-- 0 -->
      <g style="fill: #262626" transform="translate(495.231113 400.336391) scale(0.231 -0.231)">
       <use xlink:href="#DejaVuSans-30"/>
      </g>
     </g>
    </g>
    <g id="xtick_18">
     <g id="line2d_50">
      <path d="M 593.728656 373.284 
L 593.728656 253.698 
" clip-path="url(#pc63508a54f)" style="fill: none; stroke: #ffffff; stroke-linecap: round"/>
     </g>
     <g id="text_17">
      <!-- 250 -->
      <g style="fill: #262626" transform="translate(571.682594 400.336391) scale(0.231 -0.231)">
       <use xlink:href="#DejaVuSans-32"/>
       <use xlink:href="#DejaVuSans-35" x="63.623047"/>
       <use xlink:href="#DejaVuSans-30" x="127.246094"/>
      </g>
     </g>
    </g>
    <g id="xtick_19">
     <g id="line2d_51">
      <path d="M 684.877512 373.284 
L 684.877512 253.698 
" clip-path="url(#pc63508a54f)" style="fill: none; stroke: #ffffff; stroke-linecap: round"/>
     </g>
     <g id="text_18">
      <!-- 500 -->
      <g style="fill: #262626" transform="translate(662.83145 400.336391) scale(0.231 -0.231)">
       <use xlink:href="#DejaVuSans-35"/>
       <use xlink:href="#DejaVuSans-30" x="63.623047"/>
       <use xlink:href="#DejaVuSans-30" x="127.246094"/>
      </g>
     </g>
    </g>
    <g id="xtick_20">
     <g id="line2d_52">
      <path d="M 776.026368 373.284 
L 776.026368 253.698 
" clip-path="url(#pc63508a54f)" style="fill: none; stroke: #ffffff; stroke-linecap: round"/>
     </g>
     <g id="text_19">
      <!-- 750 -->
      <g style="fill: #262626" transform="translate(753.980305 400.336391) scale(0.231 -0.231)">
       <use xlink:href="#DejaVuSans-37"/>
       <use xlink:href="#DejaVuSans-35" x="63.623047"/>
       <use xlink:href="#DejaVuSans-30" x="127.246094"/>
      </g>
     </g>
    </g>
    <g id="text_20">
     <!-- step -->
     <g style="fill: #262626" transform="translate(608.219457 428.288531) scale(0.252 -0.252)">
      <use xlink:href="#DejaVuSans-73"/>
      <use xlink:href="#DejaVuSans-74" x="52.099609"/>
      <use xlink:href="#DejaVuSans-65" x="91.308594"/>
      <use xlink:href="#DejaVuSans-70" x="152.832031"/>
     </g>
    </g>
   </g>
   <g id="matplotlib.axis_10">
    <g id="ytick_9">
     <g id="line2d_53">
      <path d="M 489.290298 355.159418 
L 781.659367 355.159418 
" clip-path="url(#pc63508a54f)" style="fill: none; stroke: #ffffff; stroke-linecap: round"/>
     </g>
    </g>
    <g id="ytick_10">
     <g id="line2d_54">
      <path d="M 489.290298 263.471799 
L 781.659367 263.471799 
" clip-path="url(#pc63508a54f)" style="fill: none; stroke: #ffffff; stroke-linecap: round"/>
     </g>
    </g>
   </g>
   <g id="PolyCollection_25"/>
   <g id="PolyCollection_26"/>
   <g id="PolyCollection_27"/>
   <g id="PolyCollection_28"/>
   <g id="PolyCollection_29"/>
   <g id="PolyCollection_30"/>
   <g id="line2d_55">
    <path d="M 502.579801 263.471799 
L 502.944396 356.298403 
L 503.308992 359.495847 
L 503.673587 360.260086 
L 504.038182 360.355081 
L 504.767373 360.117487 
L 508.048732 358.646771 
L 508.777923 354.66917 
L 510.965495 342.088564 
L 512.788473 332.785902 
L 514.61145 324.467411 
L 516.434427 317.02711 
L 518.257404 310.370269 
L 520.080381 304.413647 
L 521.903358 299.105448 
L 524.090931 293.477279 
L 526.278503 288.551155 
L 528.10148 284.968053 
L 530.289053 281.237626 
L 532.476625 277.98344 
L 534.664198 275.176693 
L 536.85177 272.718512 
L 539.039343 270.565344 
L 541.591511 268.388923 
L 544.143679 266.52179 
L 545.966656 265.429708 
L 547.425038 264.755259 
L 550.341801 263.702038 
L 553.987755 262.647759 
L 557.998305 261.74172 
L 562.008855 261.049266 
L 567.477786 260.398054 
L 570.759145 260.164253 
L 575.863481 260.366922 
L 587.530534 260.953974 
L 598.832992 261.24835 
L 649.511756 262.071435 
L 688.158871 262.14408 
L 768.369864 262.150041 
L 768.369864 262.150041 
" clip-path="url(#pc63508a54f)" style="fill: none; stroke: #4c72b0; stroke-opacity: 0.9; stroke-width: 3; stroke-linecap: round"/>
   </g>
   <g id="line2d_56">
    <path d="M 502.579801 263.471799 
L 502.944396 314.099951 
L 503.308992 316.215403 
L 503.673587 316.909116 
L 504.038182 317.114692 
L 504.767373 317.101416 
L 508.048732 316.41283 
L 508.777923 314.390032 
L 511.330091 306.434848 
L 513.517663 300.4779 
L 515.705236 295.268763 
L 517.892809 290.714445 
L 520.080381 286.728527 
L 522.267954 283.2396 
L 524.455526 280.185573 
L 526.643099 277.512272 
L 528.830671 275.186724 
L 531.018244 273.156451 
L 533.205816 271.420987 
L 535.757984 269.710779 
L 538.310152 268.271567 
L 541.226916 266.880785 
L 544.508274 265.581012 
L 547.060442 264.773266 
L 549.61261 264.180762 
L 554.352351 263.390797 
L 559.456687 262.76287 
L 565.654809 262.225749 
L 572.582122 261.833233 
L 584.249175 261.89653 
L 611.958428 262.333943 
L 661.543405 262.543975 
L 728.993558 262.603847 
L 768.369864 262.604524 
L 768.369864 262.604524 
" clip-path="url(#pc63508a54f)" style="fill: none; stroke: #dd8452; stroke-opacity: 0.9; stroke-width: 3; stroke-linecap: round"/>
   </g>
   <g id="line2d_57">
    <path d="M 502.579801 263.471799 
L 502.944396 360.747373 
L 503.308992 365.952751 
L 503.673587 367.178161 
L 504.038182 367.409846 
L 504.767373 367.221483 
L 508.048732 365.673759 
L 508.777923 361.370461 
L 510.965495 347.841063 
L 512.788473 337.81984 
L 514.61145 328.855096 
L 516.434427 320.843533 
L 518.257404 313.67936 
L 520.080381 307.268058 
L 521.903358 301.529076 
L 523.726335 296.399065 
L 525.549312 291.818085 
L 527.372289 287.839241 
L 529.195267 284.347207 
L 531.382839 280.685684 
L 533.205816 278.028937 
L 535.393389 275.244555 
L 537.580961 272.819387 
L 540.133129 270.316597 
L 542.685297 268.204039 
L 544.87287 266.648205 
L 547.789633 264.980312 
L 550.341801 263.726513 
L 553.62316 262.374474 
L 556.539923 261.454518 
L 559.456687 260.740911 
L 562.37345 260.237619 
L 564.925618 260.014014 
L 568.206977 260.011157 
L 578.780244 260.381554 
L 615.968977 261.969656 
L 632.011176 262.198834 
L 657.532855 262.32567 
L 722.430841 262.358206 
L 768.369864 262.352437 
L 768.369864 262.352437 
" clip-path="url(#pc63508a54f)" style="fill: none; stroke: #55a868; stroke-opacity: 0.9; stroke-width: 3; stroke-linecap: round"/>
   </g>
   <g id="line2d_58">
    <path d="M 502.579801 263.471799 
L 502.944396 339.922338 
L 503.308992 344.103499 
L 503.673587 345.069435 
L 504.038182 345.245088 
L 504.767373 345.09175 
L 508.048732 343.866864 
L 508.777923 340.509206 
L 510.965495 329.868504 
L 512.788473 321.985954 
L 514.61145 314.934341 
L 516.434427 308.627118 
L 518.257404 302.983559 
L 520.444976 296.988285 
L 522.632549 291.743404 
L 524.455526 287.920898 
L 526.278503 284.559254 
L 528.466076 281.000186 
L 530.653648 277.884692 
L 532.841221 275.175064 
L 535.028793 272.874663 
L 537.216366 270.871139 
L 539.768534 268.842268 
L 542.320702 267.089283 
L 544.87287 265.62382 
L 547.425038 264.507995 
L 550.706397 263.345666 
L 553.987755 262.401904 
L 557.63371 261.620827 
L 560.915068 261.106596 
L 563.102641 260.927192 
L 566.748595 260.918398 
L 579.87403 261.16988 
L 596.64542 261.673859 
L 609.041664 262.097257 
L 623.990076 262.341035 
L 650.605542 262.493015 
L 711.857573 262.52605 
L 768.369864 262.519355 
L 768.369864 262.519355 
" clip-path="url(#pc63508a54f)" style="fill: none; stroke: #c44e52; stroke-opacity: 0.9; stroke-width: 3; stroke-linecap: round"/>
   </g>
   <g id="line2d_59">
    <path d="M 502.579801 263.471799 
L 502.944396 352.591387 
L 503.308992 356.42458 
L 503.673587 356.973879 
L 504.038182 356.967757 
L 505.496564 356.383528 
L 508.048732 355.293124 
L 512.788473 330.139043 
L 514.61145 322.151702 
L 516.434427 315.008719 
L 518.257404 308.619934 
L 520.080381 302.904408 
L 522.267954 296.835946 
L 524.455526 291.526371 
L 526.643099 286.879952 
L 528.830671 282.812837 
L 531.018244 279.256761 
L 533.205816 276.148441 
L 535.393389 273.427734 
L 537.580961 271.09578 
L 539.768534 269.051587 
L 542.320702 266.978987 
L 544.508274 265.48818 
L 546.695847 264.284184 
L 549.248015 263.178108 
L 552.529374 262.020948 
L 555.810732 261.125681 
L 560.185878 260.331386 
L 563.467236 259.917286 
L 569.300763 259.454417 
L 574.405099 259.241713 
L 583.155389 259.1345 
L 585.342962 259.244393 
L 598.468397 260.297722 
L 605.39571 260.697813 
L 628.365222 261.527331 
L 659.720428 262.068243 
L 692.898611 262.163032 
L 768.369864 262.179049 
L 768.369864 262.179049 
" clip-path="url(#pc63508a54f)" style="fill: none; stroke: #8172b3; stroke-opacity: 0.9; stroke-width: 3; stroke-linecap: round"/>
   </g>
   <g id="line2d_60">
    <path d="M 502.579801 263.471799 
L 502.944396 334.98251 
L 503.308992 337.591253 
L 503.673587 338.010016 
L 504.402778 337.910886 
L 508.048732 336.725953 
L 512.788473 316.73384 
L 514.61145 310.386965 
L 516.434427 304.713225 
L 518.621999 298.691568 
L 520.809572 293.427049 
L 522.997144 288.821766 
L 525.184717 284.792432 
L 527.372289 281.272988 
L 529.559862 278.197196 
L 531.747435 275.503733 
L 533.935007 273.14407 
L 536.12258 271.103085 
L 538.674748 269.051686 
L 541.226916 267.299213 
L 543.779084 265.813404 
L 546.331251 264.581196 
L 549.248015 263.530387 
L 552.529374 262.645075 
L 556.904519 261.8496 
L 561.279664 261.279783 
L 566.748595 260.789284 
L 573.311313 260.476334 
L 583.155389 260.339978 
L 588.259725 260.579175 
L 598.468397 261.05216 
L 610.13545 261.38413 
L 638.209298 261.99716 
L 657.532855 262.222104 
L 690.346443 262.311191 
L 768.369864 262.329466 
L 768.369864 262.329466 
" clip-path="url(#pc63508a54f)" style="fill: none; stroke: #937860; stroke-opacity: 0.9; stroke-width: 3; stroke-linecap: round"/>
   </g>
   <g id="patch_15">
    <path d="M 489.290298 373.284 
L 489.290298 253.698 
" style="fill: none; stroke: #ffffff; stroke-width: 1.25; stroke-linejoin: miter; stroke-linecap: square"/>
   </g>
   <g id="patch_16">
    <path d="M 489.290298 373.284 
L 781.659367 373.284 
" style="fill: none; stroke: #ffffff; stroke-width: 1.25; stroke-linejoin: miter; stroke-linecap: square"/>
   </g>
   <g id="text_21">
    <!-- 0.95~90 -->
    <g style="fill: #262626" transform="translate(580.828239 247.698) scale(0.252 -0.252)">
     <use xlink:href="#DejaVuSans-30"/>
     <use xlink:href="#DejaVuSans-2e" x="63.623047"/>
     <use xlink:href="#DejaVuSans-39" x="95.410156"/>
     <use xlink:href="#DejaVuSans-35" x="159.033203"/>
     <use xlink:href="#DejaVuSans-7e" x="222.65625"/>
     <use xlink:href="#DejaVuSans-39" x="306.445312"/>
     <use xlink:href="#DejaVuSans-30" x="370.068359"/>
    </g>
   </g>
  </g>
  <g id="axes_6">
   <g id="patch_17">
    <path d="M 808.240504 373.284 
L 1100.609573 373.284 
L 1100.609573 253.698 
L 808.240504 253.698 
z
" style="fill: #eaeaf2"/>
   </g>
   <g id="matplotlib.axis_11">
    <g id="xtick_21">
     <g id="line2d_61">
      <path d="M 821.530007 373.284 
L 821.530007 253.698 
" clip-path="url(#p7245916c34)" style="fill: none; stroke: #ffffff; stroke-linecap: round"/>
     </g>
     <g id="text_22">
      <!-- 0 -->
      <g style="fill: #262626" transform="translate(814.18132 400.336391) scale(0.231 -0.231)">
       <use xlink:href="#DejaVuSans-30"/>
      </g>
     </g>
    </g>
    <g id="xtick_22">
     <g id="line2d_62">
      <path d="M 912.678863 373.284 
L 912.678863 253.698 
" clip-path="url(#p7245916c34)" style="fill: none; stroke: #ffffff; stroke-linecap: round"/>
     </g>
     <g id="text_23">
      <!-- 250 -->
      <g style="fill: #262626" transform="translate(890.6328 400.336391) scale(0.231 -0.231)">
       <use xlink:href="#DejaVuSans-32"/>
       <use xlink:href="#DejaVuSans-35" x="63.623047"/>
       <use xlink:href="#DejaVuSans-30" x="127.246094"/>
      </g>
     </g>
    </g>
    <g id="xtick_23">
     <g id="line2d_63">
      <path d="M 1003.827719 373.284 
L 1003.827719 253.698 
" clip-path="url(#p7245916c34)" style="fill: none; stroke: #ffffff; stroke-linecap: round"/>
     </g>
     <g id="text_24">
      <!-- 500 -->
      <g style="fill: #262626" transform="translate(981.781656 400.336391) scale(0.231 -0.231)">
       <use xlink:href="#DejaVuSans-35"/>
       <use xlink:href="#DejaVuSans-30" x="63.623047"/>
       <use xlink:href="#DejaVuSans-30" x="127.246094"/>
      </g>
     </g>
    </g>
    <g id="xtick_24">
     <g id="line2d_64">
      <path d="M 1094.976574 373.284 
L 1094.976574 253.698 
" clip-path="url(#p7245916c34)" style="fill: none; stroke: #ffffff; stroke-linecap: round"/>
     </g>
     <g id="text_25">
      <!-- 750 -->
      <g style="fill: #262626" transform="translate(1072.930512 400.336391) scale(0.231 -0.231)">
       <use xlink:href="#DejaVuSans-37"/>
       <use xlink:href="#DejaVuSans-35" x="63.623047"/>
       <use xlink:href="#DejaVuSans-30" x="127.246094"/>
      </g>
     </g>
    </g>
    <g id="text_26">
     <!-- step -->
     <g style="fill: #262626" transform="translate(927.169664 428.288531) scale(0.252 -0.252)">
      <use xlink:href="#DejaVuSans-73"/>
      <use xlink:href="#DejaVuSans-74" x="52.099609"/>
      <use xlink:href="#DejaVuSans-65" x="91.308594"/>
      <use xlink:href="#DejaVuSans-70" x="152.832031"/>
     </g>
    </g>
   </g>
   <g id="matplotlib.axis_12">
    <g id="ytick_11">
     <g id="line2d_65">
      <path d="M 808.240504 355.159418 
L 1100.609573 355.159418 
" clip-path="url(#p7245916c34)" style="fill: none; stroke: #ffffff; stroke-linecap: round"/>
     </g>
    </g>
    <g id="ytick_12">
     <g id="line2d_66">
      <path d="M 808.240504 263.471799 
L 1100.609573 263.471799 
" clip-path="url(#p7245916c34)" style="fill: none; stroke: #ffffff; stroke-linecap: round"/>
     </g>
    </g>
   </g>
   <g id="PolyCollection_31"/>
   <g id="PolyCollection_32"/>
   <g id="PolyCollection_33"/>
   <g id="PolyCollection_34"/>
   <g id="PolyCollection_35"/>
   <g id="PolyCollection_36"/>
   <g id="line2d_67">
    <path d="M 821.530007 263.471799 
L 821.894603 356.298403 
L 822.259198 359.59858 
L 822.623794 360.481953 
L 822.988389 360.7003 
L 823.71758 360.711248 
L 826.998939 360.347667 
L 827.728129 356.624274 
L 829.915702 344.700862 
L 831.738679 335.874441 
L 833.561656 327.977605 
L 835.384633 320.911806 
L 837.20761 314.588907 
L 839.030588 308.932012 
L 841.21816 302.92278 
L 843.405733 297.662369 
L 845.593305 293.057183 
L 847.780878 289.025105 
L 849.96845 285.494644 
L 852.156023 282.403106 
L 854.343595 279.698977 
L 856.531168 277.334613 
L 858.71874 275.266641 
L 861.270908 273.175315 
L 863.823076 271.382586 
L 866.375244 269.888707 
L 869.292008 268.454185 
L 872.573366 267.128921 
L 875.854725 266.041228 
L 879.500679 265.059376 
L 883.511229 264.199534 
L 886.792588 263.680744 
L 890.803138 263.216797 
L 898.095046 262.762755 
L 907.209932 262.422464 
L 918.51239 262.227264 
L 934.189993 262.180548 
L 938.200542 262.30657 
L 949.503001 262.650424 
L 963.357627 262.853343 
L 996.53581 263.033769 
L 1080.028162 263.117065 
L 1087.32007 263.1172 
L 1087.32007 263.1172 
" clip-path="url(#p7245916c34)" style="fill: none; stroke: #4c72b0; stroke-opacity: 0.9; stroke-width: 3; stroke-linecap: round"/>
   </g>
   <g id="line2d_68">
    <path d="M 821.530007 263.471799 
L 821.894603 314.099951 
L 822.259198 316.262881 
L 822.623794 317.012235 
L 822.988389 317.276256 
L 823.71758 317.381992 
L 826.634343 317.245795 
L 826.998939 317.225687 
L 827.728129 315.320805 
L 830.644893 306.732383 
L 832.832465 301.165565 
L 835.020038 296.296762 
L 837.20761 292.036105 
L 839.395183 288.306859 
L 841.582756 285.042674 
L 843.770328 282.185397 
L 845.957901 279.684327 
L 848.145473 277.494987 
L 850.697641 275.283433 
L 853.249809 273.389371 
L 855.801977 271.766648 
L 858.71874 270.194402 
L 861.635504 268.877962 
L 864.916863 267.653436 
L 868.562817 266.552478 
L 871.844176 265.780693 
L 876.219321 264.983023 
L 881.323657 264.282067 
L 886.792588 263.746949 
L 893.355306 263.34672 
L 904.293168 263.047446 
L 919.606176 262.862041 
L 940.75271 262.816571 
L 969.920344 263.14881 
L 1021.328299 263.22221 
L 1087.32007 263.242284 
L 1087.32007 263.242284 
" clip-path="url(#p7245916c34)" style="fill: none; stroke: #dd8452; stroke-opacity: 0.9; stroke-width: 3; stroke-linecap: round"/>
   </g>
   <g id="line2d_69">
    <path d="M 821.530007 263.471799 
L 821.894603 360.747373 
L 822.259198 366.059298 
L 822.623794 367.409089 
L 822.988389 367.76976 
L 823.71758 367.841489 
L 826.998939 367.451298 
L 827.728129 363.408768 
L 829.915702 350.604297 
L 831.738679 341.117755 
L 833.561656 332.629876 
L 835.384633 325.035535 
L 837.20761 318.240067 
L 839.030588 312.1639 
L 841.21816 305.710977 
L 843.405733 300.061175 
L 845.22871 295.927916 
L 847.051687 292.293966 
L 849.239259 288.46099 
L 851.426832 285.195902 
L 853.614404 282.333911 
L 855.801977 279.89782 
L 858.354145 277.365978 
L 860.906313 275.118287 
L 863.823076 272.854397 
L 866.010649 271.387985 
L 868.927412 269.688704 
L 872.208771 268.038576 
L 875.125534 266.800729 
L 878.406893 265.635768 
L 882.417443 264.460805 
L 885.334206 263.850837 
L 888.98016 263.296174 
L 893.719901 262.792144 
L 899.188832 262.413017 
L 907.209932 262.085993 
L 915.595626 261.958275 
L 923.25213 262.063862 
L 961.53465 262.893164 
L 984.139566 263.10302 
L 1029.349398 263.184223 
L 1087.32007 263.190969 
L 1087.32007 263.190969 
" clip-path="url(#p7245916c34)" style="fill: none; stroke: #55a868; stroke-opacity: 0.9; stroke-width: 3; stroke-linecap: round"/>
   </g>
   <g id="line2d_70">
    <path d="M 821.530007 263.471799 
L 821.894603 339.922338 
L 822.259198 344.187843 
L 822.623794 345.252675 
L 822.988389 345.530863 
L 823.71758 345.584527 
L 826.998939 345.282466 
L 827.728129 342.132291 
L 829.915702 332.064916 
L 831.738679 324.603906 
L 833.561656 317.927376 
L 835.384633 311.953306 
L 837.572206 305.60696 
L 839.759778 300.051757 
L 841.947351 295.189258 
L 843.770328 291.646413 
L 845.957901 287.961269 
L 848.145473 284.715841 
L 850.333046 281.855915 
L 852.520618 279.33447 
L 854.708191 277.138249 
L 857.260359 274.94073 
L 859.812527 273.044858 
L 862.72929 271.157514 
L 865.646053 269.529581 
L 868.562817 268.133085 
L 871.47958 266.964861 
L 874.760939 265.897995 
L 878.406893 264.94367 
L 882.052847 264.203324 
L 885.334206 263.733605 
L 891.532328 263.14929 
L 898.459641 262.718639 
L 906.480741 262.441925 
L 915.960222 262.329288 
L 927.991871 262.514541 
L 945.492451 262.821839 
L 980.129016 263.146411 
L 1020.234513 263.226844 
L 1087.32007 263.235713 
L 1087.32007 263.235713 
" clip-path="url(#p7245916c34)" style="fill: none; stroke: #c44e52; stroke-opacity: 0.9; stroke-width: 3; stroke-linecap: round"/>
   </g>
   <g id="line2d_71">
    <path d="M 821.530007 263.471799 
L 821.894603 352.591387 
L 822.259198 356.534125 
L 822.623794 357.200744 
L 822.988389 357.313092 
L 824.446771 357.201527 
L 826.998939 356.928433 
L 828.821916 347.121209 
L 830.644893 338.056574 
L 832.46787 329.947092 
L 834.290847 322.691743 
L 836.113824 316.200169 
L 837.936801 310.39161 
L 840.124374 304.221609 
L 842.311946 298.821101 
L 844.499519 294.093676 
L 846.687091 289.954974 
L 848.874664 286.33101 
L 851.062237 283.157117 
L 853.249809 280.376749 
L 855.437382 277.94068 
L 857.624954 275.806159 
L 860.177122 273.647062 
L 862.72929 271.795131 
L 865.281458 270.206583 
L 868.198221 268.66875 
L 871.114985 267.378842 
L 874.031748 266.306636 
L 877.677702 265.220029 
L 881.688252 264.267175 
L 885.698802 263.548521 
L 889.709351 263.04654 
L 896.272069 262.511575 
L 903.563977 262.133844 
L 911.220481 261.942491 
L 921.793748 261.907062 
L 950.961382 262.072752 
L 965.180604 262.287966 
L 977.576848 262.61107 
L 995.077428 262.79865 
L 1047.943765 263.029251 
L 1087.32007 263.080103 
L 1087.32007 263.080103 
" clip-path="url(#p7245916c34)" style="fill: none; stroke: #8172b3; stroke-opacity: 0.9; stroke-width: 3; stroke-linecap: round"/>
   </g>
   <g id="line2d_72">
    <path d="M 821.530007 263.471799 
L 821.894603 334.98251 
L 822.259198 337.675218 
L 822.623794 338.183651 
L 823.352984 338.265679 
L 826.998939 337.974835 
L 832.103275 317.721715 
L 833.926252 311.813584 
L 836.113824 305.539385 
L 838.301397 300.049373 
L 840.488969 295.245018 
L 842.676542 291.040362 
L 844.864114 287.360106 
L 847.051687 284.138987 
L 849.239259 281.319576 
L 851.426832 278.850946 
L 853.614404 276.688946 
L 856.166572 274.503396 
L 858.71874 272.630245 
L 861.270908 271.024329 
L 864.187672 269.470307 
L 867.104435 268.167944 
L 870.385794 266.950904 
L 873.667153 265.957721 
L 877.677702 264.994005 
L 882.052847 264.1804 
L 886.792588 263.529706 
L 891.532328 263.093844 
L 897.365855 262.755635 
L 905.75155 262.506584 
L 918.876985 262.372191 
L 944.034069 262.439261 
L 961.899245 262.639101 
L 979.03523 262.848531 
L 1010.390436 262.998018 
L 1087.32007 263.129254 
L 1087.32007 263.129254 
" clip-path="url(#p7245916c34)" style="fill: none; stroke: #937860; stroke-opacity: 0.9; stroke-width: 3; stroke-linecap: round"/>
   </g>
   <g id="patch_18">
    <path d="M 808.240504 373.284 
L 808.240504 253.698 
" style="fill: none; stroke: #ffffff; stroke-width: 1.25; stroke-linejoin: miter; stroke-linecap: square"/>
   </g>
   <g id="patch_19">
    <path d="M 808.240504 373.284 
L 1100.609573 373.284 
" style="fill: none; stroke: #ffffff; stroke-width: 1.25; stroke-linejoin: miter; stroke-linecap: square"/>
   </g>
   <g id="text_27">
    <!-- 0.95~365 -->
    <g style="fill: #262626" transform="translate(891.761695 247.698) scale(0.252 -0.252)">
     <use xlink:href="#DejaVuSans-30"/>
     <use xlink:href="#DejaVuSans-2e" x="63.623047"/>
     <use xlink:href="#DejaVuSans-39" x="95.410156"/>
     <use xlink:href="#DejaVuSans-35" x="159.033203"/>
     <use xlink:href="#DejaVuSans-7e" x="222.65625"/>
     <use xlink:href="#DejaVuSans-33" x="306.445312"/>
     <use xlink:href="#DejaVuSans-36" x="370.068359"/>
     <use xlink:href="#DejaVuSans-35" x="433.691406"/>
    </g>
   </g>
  </g>
  <g id="text_28">
   <!-- Production change from pre-shock level -->
   <g style="fill: #262626" transform="translate(280.766836 30.177675) scale(0.3024 -0.3024)">
    <defs>
     <path id="DejaVuSans-50" d="M 1259 4147 
L 1259 2394 
L 2053 2394 
Q 2494 2394 2734 2622 
Q 2975 2850 2975 3272 
Q 2975 3691 2734 3919 
Q 2494 4147 2053 4147 
L 1259 4147 
z
M 628 4666 
L 2053 4666 
Q 2838 4666 3239 4311 
Q 3641 3956 3641 3272 
Q 3641 2581 3239 2228 
Q 2838 1875 2053 1875 
L 1259 1875 
L 1259 0 
L 628 0 
L 628 4666 
z
" transform="scale(0.015625)"/>
     <path id="DejaVuSans-72" d="M 2631 2963 
Q 2534 3019 2420 3045 
Q 2306 3072 2169 3072 
Q 1681 3072 1420 2755 
Q 1159 2438 1159 1844 
L 1159 0 
L 581 0 
L 581 3500 
L 1159 3500 
L 1159 2956 
Q 1341 3275 1631 3429 
Q 1922 3584 2338 3584 
Q 2397 3584 2469 3576 
Q 2541 3569 2628 3553 
L 2631 2963 
z
" transform="scale(0.015625)"/>
     <path id="DejaVuSans-6f" d="M 1959 3097 
Q 1497 3097 1228 2736 
Q 959 2375 959 1747 
Q 959 1119 1226 758 
Q 1494 397 1959 397 
Q 2419 397 2687 759 
Q 2956 1122 2956 1747 
Q 2956 2369 2687 2733 
Q 2419 3097 1959 3097 
z
M 1959 3584 
Q 2709 3584 3137 3096 
Q 3566 2609 3566 1747 
Q 3566 888 3137 398 
Q 2709 -91 1959 -91 
Q 1206 -91 779 398 
Q 353 888 353 1747 
Q 353 2609 779 3096 
Q 1206 3584 1959 3584 
z
" transform="scale(0.015625)"/>
     <path id="DejaVuSans-64" d="M 2906 2969 
L 2906 4863 
L 3481 4863 
L 3481 0 
L 2906 0 
L 2906 525 
Q 2725 213 2448 61 
Q 2172 -91 1784 -91 
Q 1150 -91 751 415 
Q 353 922 353 1747 
Q 353 2572 751 3078 
Q 1150 3584 1784 3584 
Q 2172 3584 2448 3432 
Q 2725 3281 2906 2969 
z
M 947 1747 
Q 947 1113 1208 752 
Q 1469 391 1925 391 
Q 2381 391 2643 752 
Q 2906 1113 2906 1747 
Q 2906 2381 2643 2742 
Q 2381 3103 1925 3103 
Q 1469 3103 1208 2742 
Q 947 2381 947 1747 
z
" transform="scale(0.015625)"/>
     <path id="DejaVuSans-75" d="M 544 1381 
L 544 3500 
L 1119 3500 
L 1119 1403 
Q 1119 906 1312 657 
Q 1506 409 1894 409 
Q 2359 409 2629 706 
Q 2900 1003 2900 1516 
L 2900 3500 
L 3475 3500 
L 3475 0 
L 2900 0 
L 2900 538 
Q 2691 219 2414 64 
Q 2138 -91 1772 -91 
Q 1169 -91 856 284 
Q 544 659 544 1381 
z
M 1991 3584 
L 1991 3584 
z
" transform="scale(0.015625)"/>
     <path id="DejaVuSans-69" d="M 603 3500 
L 1178 3500 
L 1178 0 
L 603 0 
L 603 3500 
z
M 603 4863 
L 1178 4863 
L 1178 4134 
L 603 4134 
L 603 4863 
z
" transform="scale(0.015625)"/>
     <path id="DejaVuSans-66" d="M 2375 4863 
L 2375 4384 
L 1825 4384 
Q 1516 4384 1395 4259 
Q 1275 4134 1275 3809 
L 1275 3500 
L 2222 3500 
L 2222 3053 
L 1275 3053 
L 1275 0 
L 697 0 
L 697 3053 
L 147 3053 
L 147 3500 
L 697 3500 
L 697 3744 
Q 697 4328 969 4595 
Q 1241 4863 1831 4863 
L 2375 4863 
z
" transform="scale(0.015625)"/>
     <path id="DejaVuSans-6d" d="M 3328 2828 
Q 3544 3216 3844 3400 
Q 4144 3584 4550 3584 
Q 5097 3584 5394 3201 
Q 5691 2819 5691 2113 
L 5691 0 
L 5113 0 
L 5113 2094 
Q 5113 2597 4934 2840 
Q 4756 3084 4391 3084 
Q 3944 3084 3684 2787 
Q 3425 2491 3425 1978 
L 3425 0 
L 2847 0 
L 2847 2094 
Q 2847 2600 2669 2842 
Q 2491 3084 2119 3084 
Q 1678 3084 1418 2786 
Q 1159 2488 1159 1978 
L 1159 0 
L 581 0 
L 581 3500 
L 1159 3500 
L 1159 2956 
Q 1356 3278 1631 3431 
Q 1906 3584 2284 3584 
Q 2666 3584 2933 3390 
Q 3200 3197 3328 2828 
z
" transform="scale(0.015625)"/>
     <path id="DejaVuSans-2d" d="M 313 2009 
L 1997 2009 
L 1997 1497 
L 313 1497 
L 313 2009 
z
" transform="scale(0.015625)"/>
     <path id="DejaVuSans-6b" d="M 581 4863 
L 1159 4863 
L 1159 1991 
L 2875 3500 
L 3609 3500 
L 1753 1863 
L 3688 0 
L 2938 0 
L 1159 1709 
L 1159 0 
L 581 0 
L 581 4863 
z
" transform="scale(0.015625)"/>
     <path id="DejaVuSans-6c" d="M 603 4863 
L 1178 4863 
L 1178 0 
L 603 0 
L 603 4863 
z
" transform="scale(0.015625)"/>
     <path id="DejaVuSans-76" d="M 191 3500 
L 800 3500 
L 1894 563 
L 2988 3500 
L 3597 3500 
L 2284 0 
L 1503 0 
L 191 3500 
z
" transform="scale(0.015625)"/>
    </defs>
    <use xlink:href="#DejaVuSans-50"/>
    <use xlink:href="#DejaVuSans-72" x="58.552734"/>
    <use xlink:href="#DejaVuSans-6f" x="97.416016"/>
    <use xlink:href="#DejaVuSans-64" x="158.597656"/>
    <use xlink:href="#DejaVuSans-75" x="222.074219"/>
    <use xlink:href="#DejaVuSans-63" x="285.453125"/>
    <use xlink:href="#DejaVuSans-74" x="340.433594"/>
    <use xlink:href="#DejaVuSans-69" x="379.642578"/>
    <use xlink:href="#DejaVuSans-6f" x="407.425781"/>
    <use xlink:href="#DejaVuSans-6e" x="468.607422"/>
    <use xlink:href="#DejaVuSans-20" x="531.986328"/>
    <use xlink:href="#DejaVuSans-63" x="563.773438"/>
    <use xlink:href="#DejaVuSans-68" x="618.753906"/>
    <use xlink:href="#DejaVuSans-61" x="682.132812"/>
    <use xlink:href="#DejaVuSans-6e" x="743.412109"/>
    <use xlink:href="#DejaVuSans-67" x="806.791016"/>
    <use xlink:href="#DejaVuSans-65" x="870.267578"/>
    <use xlink:href="#DejaVuSans-20" x="931.791016"/>
    <use xlink:href="#DejaVuSans-66" x="963.578125"/>
    <use xlink:href="#DejaVuSans-72" x="998.783203"/>
    <use xlink:href="#DejaVuSans-6f" x="1037.646484"/>
    <use xlink:href="#DejaVuSans-6d" x="1098.828125"/>
    <use xlink:href="#DejaVuSans-20" x="1196.240234"/>
    <use xlink:href="#DejaVuSans-70" x="1228.027344"/>
    <use xlink:href="#DejaVuSans-72" x="1291.503906"/>
    <use xlink:href="#DejaVuSans-65" x="1330.367188"/>
    <use xlink:href="#DejaVuSans-2d" x="1391.890625"/>
    <use xlink:href="#DejaVuSans-73" x="1427.974609"/>
    <use xlink:href="#DejaVuSans-68" x="1480.074219"/>
    <use xlink:href="#DejaVuSans-6f" x="1543.453125"/>
    <use xlink:href="#DejaVuSans-63" x="1604.634766"/>
    <use xlink:href="#DejaVuSans-6b" x="1659.615234"/>
    <use xlink:href="#DejaVuSans-20" x="1717.525391"/>
    <use xlink:href="#DejaVuSans-6c" x="1749.3125"/>
    <use xlink:href="#DejaVuSans-65" x="1777.095703"/>
    <use xlink:href="#DejaVuSans-76" x="1838.619141"/>
    <use xlink:href="#DejaVuSans-65" x="1897.798828"/>
    <use xlink:href="#DejaVuSans-6c" x="1959.322266"/>
   </g>
  </g>
  <g id="legend_1">
   <g id="patch_20">
    <path d="M 11.82 584.31675 
L 1292.617547 584.31675 
Q 1297.237547 584.31675 1297.237547 579.69675 
L 1297.237547 476.97 
Q 1297.237547 472.35 1292.617547 472.35 
L 11.82 472.35 
Q 7.2 472.35 7.2 476.97 
L 7.2 579.69675 
Q 7.2 584.31675 11.82 584.31675 
z
" style="fill: #eaeaf2; opacity: 0.8; stroke: #cccccc; stroke-linejoin: miter"/>
   </g>
   <g id="text_29">
    <!-- Experiences -->
    <g style="fill: #262626" transform="translate(575.384367 500.738062) scale(0.252 -0.252)">
     <defs>
      <path id="DejaVuSans-45" d="M 628 4666 
L 3578 4666 
L 3578 4134 
L 1259 4134 
L 1259 2753 
L 3481 2753 
L 3481 2222 
L 1259 2222 
L 1259 531 
L 3634 531 
L 3634 0 
L 628 0 
L 628 4666 
z
" transform="scale(0.015625)"/>
      <path id="DejaVuSans-78" d="M 3513 3500 
L 2247 1797 
L 3578 0 
L 2900 0 
L 1881 1375 
L 863 0 
L 184 0 
L 1544 1831 
L 300 3500 
L 978 3500 
L 1906 2253 
L 2834 3500 
L 3513 3500 
z
" transform="scale(0.015625)"/>
     </defs>
     <use xlink:href="#DejaVuSans-45"/>
     <use xlink:href="#DejaVuSans-78" x="63.183594"/>
     <use xlink:href="#DejaVuSans-70" x="122.363281"/>
     <use xlink:href="#DejaVuSans-65" x="185.839844"/>
     <use xlink:href="#DejaVuSans-72" x="247.363281"/>
     <use xlink:href="#DejaVuSans-69" x="288.476562"/>
     <use xlink:href="#DejaVuSans-65" x="316.259766"/>
     <use xlink:href="#DejaVuSans-6e" x="377.783203"/>
     <use xlink:href="#DejaVuSans-63" x="441.162109"/>
     <use xlink:href="#DejaVuSans-65" x="496.142578"/>
     <use xlink:href="#DejaVuSans-73" x="557.666016"/>
    </g>
   </g>
   <g id="line2d_73">
    <path d="M 16.44 526.996266 
L 39.54 526.996266 
L 62.64 526.996266 
" style="fill: none; stroke: #4c72b0; stroke-opacity: 0.9; stroke-width: 3; stroke-linecap: round"/>
   </g>
   <g id="text_30">
    <!-- eora26_full_2000 -->
    <g style="fill: #262626" transform="translate(81.12 535.081266) scale(0.231 -0.231)">
     <defs>
      <path id="DejaVuSans-5f" d="M 3263 -1063 
L 3263 -1509 
L -63 -1509 
L -63 -1063 
L 3263 -1063 
z
" transform="scale(0.015625)"/>
     </defs>
     <use xlink:href="#DejaVuSans-65"/>
     <use xlink:href="#DejaVuSans-6f" x="61.523438"/>
     <use xlink:href="#DejaVuSans-72" x="122.705078"/>
     <use xlink:href="#DejaVuSans-61" x="163.818359"/>
     <use xlink:href="#DejaVuSans-32" x="225.097656"/>
     <use xlink:href="#DejaVuSans-36" x="288.720703"/>
     <use xlink:href="#DejaVuSans-5f" x="352.34375"/>
     <use xlink:href="#DejaVuSans-66" x="402.34375"/>
     <use xlink:href="#DejaVuSans-75" x="437.548828"/>
     <use xlink:href="#DejaVuSans-6c" x="500.927734"/>
     <use xlink:href="#DejaVuSans-6c" x="528.710938"/>
     <use xlink:href="#DejaVuSans-5f" x="556.494141"/>
     <use xlink:href="#DejaVuSans-32" x="606.494141"/>
     <use xlink:href="#DejaVuSans-30" x="670.117188"/>
     <use xlink:href="#DejaVuSans-30" x="733.740234"/>
     <use xlink:href="#DejaVuSans-30" x="797.363281"/>
    </g>
   </g>
   <g id="line2d_74">
    <path d="M 16.44 561.545203 
L 39.54 561.545203 
L 62.64 561.545203 
" style="fill: none; stroke: #dd8452; stroke-opacity: 0.9; stroke-width: 3; stroke-linecap: round"/>
   </g>
   <g id="text_31">
    <!-- eora26_full_2010 -->
    <g style="fill: #262626" transform="translate(81.12 569.630203) scale(0.231 -0.231)">
     <defs>
      <path id="DejaVuSans-31" d="M 794 531 
L 1825 531 
L 1825 4091 
L 703 3866 
L 703 4441 
L 1819 4666 
L 2450 4666 
L 2450 531 
L 3481 531 
L 3481 0 
L 794 0 
L 794 531 
z
" transform="scale(0.015625)"/>
     </defs>
     <use xlink:href="#DejaVuSans-65"/>
     <use xlink:href="#DejaVuSans-6f" x="61.523438"/>
     <use xlink:href="#DejaVuSans-72" x="122.705078"/>
     <use xlink:href="#DejaVuSans-61" x="163.818359"/>
     <use xlink:href="#DejaVuSans-32" x="225.097656"/>
     <use xlink:href="#DejaVuSans-36" x="288.720703"/>
     <use xlink:href="#DejaVuSans-5f" x="352.34375"/>
     <use xlink:href="#DejaVuSans-66" x="402.34375"/>
     <use xlink:href="#DejaVuSans-75" x="437.548828"/>
     <use xlink:href="#DejaVuSans-6c" x="500.927734"/>
     <use xlink:href="#DejaVuSans-6c" x="528.710938"/>
     <use xlink:href="#DejaVuSans-5f" x="556.494141"/>
     <use xlink:href="#DejaVuSans-32" x="606.494141"/>
     <use xlink:href="#DejaVuSans-30" x="670.117188"/>
     <use xlink:href="#DejaVuSans-31" x="733.740234"/>
     <use xlink:href="#DejaVuSans-30" x="797.363281"/>
    </g>
   </g>
   <g id="line2d_75">
    <path d="M 326.211 526.996266 
L 349.311 526.996266 
L 372.411 526.996266 
" style="fill: none; stroke: #55a868; stroke-opacity: 0.9; stroke-width: 3; stroke-linecap: round"/>
   </g>
   <g id="text_32">
    <!-- euregio_full_2000 -->
    <g style="fill: #262626" transform="translate(390.891 535.081266) scale(0.231 -0.231)">
     <use xlink:href="#DejaVuSans-65"/>
     <use xlink:href="#DejaVuSans-75" x="61.523438"/>
     <use xlink:href="#DejaVuSans-72" x="124.902344"/>
     <use xlink:href="#DejaVuSans-65" x="163.765625"/>
     <use xlink:href="#DejaVuSans-67" x="225.289062"/>
     <use xlink:href="#DejaVuSans-69" x="288.765625"/>
     <use xlink:href="#DejaVuSans-6f" x="316.548828"/>
     <use xlink:href="#DejaVuSans-5f" x="377.730469"/>
     <use xlink:href="#DejaVuSans-66" x="427.730469"/>
     <use xlink:href="#DejaVuSans-75" x="462.935547"/>
     <use xlink:href="#DejaVuSans-6c" x="526.314453"/>
     <use xlink:href="#DejaVuSans-6c" x="554.097656"/>
     <use xlink:href="#DejaVuSans-5f" x="581.880859"/>
     <use xlink:href="#DejaVuSans-32" x="631.880859"/>
     <use xlink:href="#DejaVuSans-30" x="695.503906"/>
     <use xlink:href="#DejaVuSans-30" x="759.126953"/>
     <use xlink:href="#DejaVuSans-30" x="822.75"/>
    </g>
   </g>
   <g id="line2d_76">
    <path d="M 326.211 561.545203 
L 349.311 561.545203 
L 372.411 561.545203 
" style="fill: none; stroke: #c44e52; stroke-opacity: 0.9; stroke-width: 3; stroke-linecap: round"/>
   </g>
   <g id="text_33">
    <!-- euregio_full_2010 -->
    <g style="fill: #262626" transform="translate(390.891 569.630203) scale(0.231 -0.231)">
     <use xlink:href="#DejaVuSans-65"/>
     <use xlink:href="#DejaVuSans-75" x="61.523438"/>
     <use xlink:href="#DejaVuSans-72" x="124.902344"/>
     <use xlink:href="#DejaVuSans-65" x="163.765625"/>
     <use xlink:href="#DejaVuSans-67" x="225.289062"/>
     <use xlink:href="#DejaVuSans-69" x="288.765625"/>
     <use xlink:href="#DejaVuSans-6f" x="316.548828"/>
     <use xlink:href="#DejaVuSans-5f" x="377.730469"/>
     <use xlink:href="#DejaVuSans-66" x="427.730469"/>
     <use xlink:href="#DejaVuSans-75" x="462.935547"/>
     <use xlink:href="#DejaVuSans-6c" x="526.314453"/>
     <use xlink:href="#DejaVuSans-6c" x="554.097656"/>
     <use xlink:href="#DejaVuSans-5f" x="581.880859"/>
     <use xlink:href="#DejaVuSans-32" x="631.880859"/>
     <use xlink:href="#DejaVuSans-30" x="695.503906"/>
     <use xlink:href="#DejaVuSans-31" x="759.126953"/>
     <use xlink:href="#DejaVuSans-30" x="822.75"/>
    </g>
   </g>
   <g id="line2d_77">
    <path d="M 641.847234 526.996266 
L 664.947234 526.996266 
L 688.047234 526.996266 
" style="fill: none; stroke: #8172b3; stroke-opacity: 0.9; stroke-width: 3; stroke-linecap: round"/>
   </g>
   <g id="text_34">
    <!-- exiobase3_full_2000 -->
    <g style="fill: #262626" transform="translate(706.527234 535.081266) scale(0.231 -0.231)">
     <defs>
      <path id="DejaVuSans-62" d="M 3116 1747 
Q 3116 2381 2855 2742 
Q 2594 3103 2138 3103 
Q 1681 3103 1420 2742 
Q 1159 2381 1159 1747 
Q 1159 1113 1420 752 
Q 1681 391 2138 391 
Q 2594 391 2855 752 
Q 3116 1113 3116 1747 
z
M 1159 2969 
Q 1341 3281 1617 3432 
Q 1894 3584 2278 3584 
Q 2916 3584 3314 3078 
Q 3713 2572 3713 1747 
Q 3713 922 3314 415 
Q 2916 -91 2278 -91 
Q 1894 -91 1617 61 
Q 1341 213 1159 525 
L 1159 0 
L 581 0 
L 581 4863 
L 1159 4863 
L 1159 2969 
z
" transform="scale(0.015625)"/>
     </defs>
     <use xlink:href="#DejaVuSans-65"/>
     <use xlink:href="#DejaVuSans-78" x="59.773438"/>
     <use xlink:href="#DejaVuSans-69" x="118.953125"/>
     <use xlink:href="#DejaVuSans-6f" x="146.736328"/>
     <use xlink:href="#DejaVuSans-62" x="207.917969"/>
     <use xlink:href="#DejaVuSans-61" x="271.394531"/>
     <use xlink:href="#DejaVuSans-73" x="332.673828"/>
     <use xlink:href="#DejaVuSans-65" x="384.773438"/>
     <use xlink:href="#DejaVuSans-33" x="446.296875"/>
     <use xlink:href="#DejaVuSans-5f" x="509.919922"/>
     <use xlink:href="#DejaVuSans-66" x="559.919922"/>
     <use xlink:href="#DejaVuSans-75" x="595.125"/>
     <use xlink:href="#DejaVuSans-6c" x="658.503906"/>
     <use xlink:href="#DejaVuSans-6c" x="686.287109"/>
     <use xlink:href="#DejaVuSans-5f" x="714.070312"/>
     <use xlink:href="#DejaVuSans-32" x="764.070312"/>
     <use xlink:href="#DejaVuSans-30" x="827.693359"/>
     <use xlink:href="#DejaVuSans-30" x="891.316406"/>
     <use xlink:href="#DejaVuSans-30" x="954.939453"/>
    </g>
   </g>
   <g id="line2d_78">
    <path d="M 988.022391 526.996266 
L 1011.122391 526.996266 
L 1034.222391 526.996266 
" style="fill: none; stroke: #937860; stroke-opacity: 0.9; stroke-width: 3; stroke-linecap: round"/>
   </g>
   <g id="text_35">
    <!-- exiobase3_full_2010 -->
    <g style="fill: #262626" transform="translate(1052.702391 535.081266) scale(0.231 -0.231)">
     <use xlink:href="#DejaVuSans-65"/>
     <use xlink:href="#DejaVuSans-78" x="59.773438"/>
     <use xlink:href="#DejaVuSans-69" x="118.953125"/>
     <use xlink:href="#DejaVuSans-6f" x="146.736328"/>
     <use xlink:href="#DejaVuSans-62" x="207.917969"/>
     <use xlink:href="#DejaVuSans-61" x="271.394531"/>
     <use xlink:href="#DejaVuSans-73" x="332.673828"/>
     <use xlink:href="#DejaVuSans-65" x="384.773438"/>
     <use xlink:href="#DejaVuSans-33" x="446.296875"/>
     <use xlink:href="#DejaVuSans-5f" x="509.919922"/>
     <use xlink:href="#DejaVuSans-66" x="559.919922"/>
     <use xlink:href="#DejaVuSans-75" x="595.125"/>
     <use xlink:href="#DejaVuSans-6c" x="658.503906"/>
     <use xlink:href="#DejaVuSans-6c" x="686.287109"/>
     <use xlink:href="#DejaVuSans-5f" x="714.070312"/>
     <use xlink:href="#DejaVuSans-32" x="764.070312"/>
     <use xlink:href="#DejaVuSans-30" x="827.693359"/>
     <use xlink:href="#DejaVuSans-31" x="891.316406"/>
     <use xlink:href="#DejaVuSans-30" x="954.939453"/>
    </g>
   </g>
  </g>
 </g>
 <defs>
  <clipPath id="pe9bb63b705">
   <rect x="170.340091" y="81.456" width="292.369069" height="119.586"/>
  </clipPath>
  <clipPath id="p2bc0709f43">
   <rect x="489.290298" y="81.456" width="292.369069" height="119.586"/>
  </clipPath>
  <clipPath id="pa34009bcbf">
   <rect x="808.240504" y="81.456" width="292.369069" height="119.586"/>
  </clipPath>
  <clipPath id="pbade1d1409">
   <rect x="170.340091" y="253.698" width="292.369069" height="119.586"/>
  </clipPath>
  <clipPath id="pc63508a54f">
   <rect x="489.290298" y="253.698" width="292.369069" height="119.586"/>
  </clipPath>
  <clipPath id="p7245916c34">
   <rect x="808.240504" y="253.698" width="292.369069" height="119.586"/>
  </clipPath>
 </defs>
</svg>
