<?xml version="1.0" encoding="utf-8" standalone="no"?>
<!DOCTYPE svg PUBLIC "-//W3C//DTD SVG 1.1//EN"
  "http://www.w3.org/Graphics/SVG/1.1/DTD/svg11.dtd">
<svg xmlns:xlink="http://www.w3.org/1999/xlink" width="1304.437547pt" height="591.51675pt" viewBox="0 0 1304.437547 591.51675" xmlns="http://www.w3.org/2000/svg" version="1.1">
 <metadata>
  <rdf:RDF xmlns:dc="http://purl.org/dc/elements/1.1/" xmlns:cc="http://creativecommons.org/ns#" xmlns:rdf="http://www.w3.org/1999/02/22-rdf-syntax-ns#">
   <cc:Work>
    <dc:type rdf:resource="http://purl.org/dc/dcmitype/StillImage"/>
    <dc:date>2023-04-20T13:53:15.464743</dc:date>
    <dc:format>image/svg+xml</dc:format>
    <dc:creator>
     <cc:Agent>
      <dc:title>Matplotlib v3.7.1, https://matplotlib.org/</dc:title>
     </cc:Agent>
    </dc:creator>
   </cc:Work>
  </rdf:RDF>
 </metadata>
 <defs>
  <style type="text/css">*{stroke-linejoin: round; stroke-linecap: butt}</style>
 </defs>
 <g id="figure_1">
  <g id="patch_1">
   <path d="M 0 591.51675 
L 1304.437547 591.51675 
L 1304.437547 -0 
L 0 -0 
z
" style="fill: #ffffff"/>
  </g>
  <g id="axes_1">
   <g id="patch_2">
    <path d="M 160.9429 195.268591 
L 456.401316 195.268591 
L 456.401316 81.456 
L 160.9429 81.456 
z
" style="fill: #eaeaf2"/>
   </g>
   <g id="matplotlib.axis_1">
    <g id="xtick_1">
     <g id="line2d_1">
      <path d="M 174.372828 195.268591 
L 174.372828 81.456 
" clip-path="url(#p937a4a10ec)" style="fill: none; stroke: #ffffff; stroke-linecap: round"/>
     </g>
    </g>
    <g id="xtick_2">
     <g id="line2d_2">
      <path d="M 266.484817 195.268591 
L 266.484817 81.456 
" clip-path="url(#p937a4a10ec)" style="fill: none; stroke: #ffffff; stroke-linecap: round"/>
     </g>
    </g>
    <g id="xtick_3">
     <g id="line2d_3">
      <path d="M 358.596806 195.268591 
L 358.596806 81.456 
" clip-path="url(#p937a4a10ec)" style="fill: none; stroke: #ffffff; stroke-linecap: round"/>
     </g>
    </g>
    <g id="xtick_4">
     <g id="line2d_4">
      <path d="M 450.708795 195.268591 
L 450.708795 81.456 
" clip-path="url(#p937a4a10ec)" style="fill: none; stroke: #ffffff; stroke-linecap: round"/>
     </g>
    </g>
   </g>
   <g id="matplotlib.axis_2">
    <g id="ytick_1">
     <g id="line2d_5">
      <path d="M 160.9429 193.209642 
L 456.401316 193.209642 
" clip-path="url(#p937a4a10ec)" style="fill: none; stroke: #ffffff; stroke-linecap: round"/>
     </g>
     <g id="text_1">
      <!-- −10 -->
      <g style="fill: #262626" transform="translate(102.691072 201.985838) scale(0.231 -0.231)">
       <defs>
        <path id="DejaVuSans-2212" d="M 678 2272 
L 4684 2272 
L 4684 1741 
L 678 1741 
L 678 2272 
z
" transform="scale(0.015625)"/>
        <path id="DejaVuSans-31" d="M 794 531 
L 1825 531 
L 1825 4091 
L 703 3866 
L 703 4441 
L 1819 4666 
L 2450 4666 
L 2450 531 
L 3481 531 
L 3481 0 
L 794 0 
L 794 531 
z
" transform="scale(0.015625)"/>
        <path id="DejaVuSans-30" d="M 2034 4250 
Q 1547 4250 1301 3770 
Q 1056 3291 1056 2328 
Q 1056 1369 1301 889 
Q 1547 409 2034 409 
Q 2525 409 2770 889 
Q 3016 1369 3016 2328 
Q 3016 3291 2770 3770 
Q 2525 4250 2034 4250 
z
M 2034 4750 
Q 2819 4750 3233 4129 
Q 3647 3509 3647 2328 
Q 3647 1150 3233 529 
Q 2819 -91 2034 -91 
Q 1250 -91 836 529 
Q 422 1150 422 2328 
Q 422 3509 836 4129 
Q 1250 4750 2034 4750 
z
" transform="scale(0.015625)"/>
       </defs>
       <use xlink:href="#DejaVuSans-2212"/>
       <use xlink:href="#DejaVuSans-31" x="83.789062"/>
       <use xlink:href="#DejaVuSans-30" x="147.412109"/>
      </g>
     </g>
    </g>
    <g id="ytick_2">
     <g id="line2d_6">
      <path d="M 160.9429 108.362695 
L 456.401316 108.362695 
" clip-path="url(#p937a4a10ec)" style="fill: none; stroke: #ffffff; stroke-linecap: round"/>
     </g>
     <g id="text_2">
      <!-- 0 -->
      <g style="fill: #262626" transform="translate(136.745525 117.13889) scale(0.231 -0.231)">
       <use xlink:href="#DejaVuSans-30"/>
      </g>
     </g>
    </g>
    <g id="text_3">
     <!-- % change -->
     <g style="fill: #262626" transform="translate(93.450259 200.710639) rotate(-90) scale(0.252 -0.252)">
      <defs>
       <path id="DejaVuSans-25" d="M 4653 2053 
Q 4381 2053 4226 1822 
Q 4072 1591 4072 1178 
Q 4072 772 4226 539 
Q 4381 306 4653 306 
Q 4919 306 5073 539 
Q 5228 772 5228 1178 
Q 5228 1588 5073 1820 
Q 4919 2053 4653 2053 
z
M 4653 2450 
Q 5147 2450 5437 2106 
Q 5728 1763 5728 1178 
Q 5728 594 5436 251 
Q 5144 -91 4653 -91 
Q 4153 -91 3862 251 
Q 3572 594 3572 1178 
Q 3572 1766 3864 2108 
Q 4156 2450 4653 2450 
z
M 1428 4353 
Q 1159 4353 1004 4120 
Q 850 3888 850 3481 
Q 850 3069 1003 2837 
Q 1156 2606 1428 2606 
Q 1700 2606 1854 2837 
Q 2009 3069 2009 3481 
Q 2009 3884 1853 4118 
Q 1697 4353 1428 4353 
z
M 4250 4750 
L 4750 4750 
L 1831 -91 
L 1331 -91 
L 4250 4750 
z
M 1428 4750 
Q 1922 4750 2215 4408 
Q 2509 4066 2509 3481 
Q 2509 2891 2217 2550 
Q 1925 2209 1428 2209 
Q 931 2209 642 2551 
Q 353 2894 353 3481 
Q 353 4063 643 4406 
Q 934 4750 1428 4750 
z
" transform="scale(0.015625)"/>
       <path id="DejaVuSans-20" transform="scale(0.015625)"/>
       <path id="DejaVuSans-63" d="M 3122 3366 
L 3122 2828 
Q 2878 2963 2633 3030 
Q 2388 3097 2138 3097 
Q 1578 3097 1268 2742 
Q 959 2388 959 1747 
Q 959 1106 1268 751 
Q 1578 397 2138 397 
Q 2388 397 2633 464 
Q 2878 531 3122 666 
L 3122 134 
Q 2881 22 2623 -34 
Q 2366 -91 2075 -91 
Q 1284 -91 818 406 
Q 353 903 353 1747 
Q 353 2603 823 3093 
Q 1294 3584 2113 3584 
Q 2378 3584 2631 3529 
Q 2884 3475 3122 3366 
z
" transform="scale(0.015625)"/>
       <path id="DejaVuSans-68" d="M 3513 2113 
L 3513 0 
L 2938 0 
L 2938 2094 
Q 2938 2591 2744 2837 
Q 2550 3084 2163 3084 
Q 1697 3084 1428 2787 
Q 1159 2491 1159 1978 
L 1159 0 
L 581 0 
L 581 4863 
L 1159 4863 
L 1159 2956 
Q 1366 3272 1645 3428 
Q 1925 3584 2291 3584 
Q 2894 3584 3203 3211 
Q 3513 2838 3513 2113 
z
" transform="scale(0.015625)"/>
       <path id="DejaVuSans-61" d="M 2194 1759 
Q 1497 1759 1228 1600 
Q 959 1441 959 1056 
Q 959 750 1161 570 
Q 1363 391 1709 391 
Q 2188 391 2477 730 
Q 2766 1069 2766 1631 
L 2766 1759 
L 2194 1759 
z
M 3341 1997 
L 3341 0 
L 2766 0 
L 2766 531 
Q 2569 213 2275 61 
Q 1981 -91 1556 -91 
Q 1019 -91 701 211 
Q 384 513 384 1019 
Q 384 1609 779 1909 
Q 1175 2209 1959 2209 
L 2766 2209 
L 2766 2266 
Q 2766 2663 2505 2880 
Q 2244 3097 1772 3097 
Q 1472 3097 1187 3025 
Q 903 2953 641 2809 
L 641 3341 
Q 956 3463 1253 3523 
Q 1550 3584 1831 3584 
Q 2591 3584 2966 3190 
Q 3341 2797 3341 1997 
z
" transform="scale(0.015625)"/>
       <path id="DejaVuSans-6e" d="M 3513 2113 
L 3513 0 
L 2938 0 
L 2938 2094 
Q 2938 2591 2744 2837 
Q 2550 3084 2163 3084 
Q 1697 3084 1428 2787 
Q 1159 2491 1159 1978 
L 1159 0 
L 581 0 
L 581 3500 
L 1159 3500 
L 1159 2956 
Q 1366 3272 1645 3428 
Q 1925 3584 2291 3584 
Q 2894 3584 3203 3211 
Q 3513 2838 3513 2113 
z
" transform="scale(0.015625)"/>
       <path id="DejaVuSans-67" d="M 2906 1791 
Q 2906 2416 2648 2759 
Q 2391 3103 1925 3103 
Q 1463 3103 1205 2759 
Q 947 2416 947 1791 
Q 947 1169 1205 825 
Q 1463 481 1925 481 
Q 2391 481 2648 825 
Q 2906 1169 2906 1791 
z
M 3481 434 
Q 3481 -459 3084 -895 
Q 2688 -1331 1869 -1331 
Q 1566 -1331 1297 -1286 
Q 1028 -1241 775 -1147 
L 775 -588 
Q 1028 -725 1275 -790 
Q 1522 -856 1778 -856 
Q 2344 -856 2625 -561 
Q 2906 -266 2906 331 
L 2906 616 
Q 2728 306 2450 153 
Q 2172 0 1784 0 
Q 1141 0 747 490 
Q 353 981 353 1791 
Q 353 2603 747 3093 
Q 1141 3584 1784 3584 
Q 2172 3584 2450 3431 
Q 2728 3278 2906 2969 
L 2906 3500 
L 3481 3500 
L 3481 434 
z
" transform="scale(0.015625)"/>
       <path id="DejaVuSans-65" d="M 3597 1894 
L 3597 1613 
L 953 1613 
Q 991 1019 1311 708 
Q 1631 397 2203 397 
Q 2534 397 2845 478 
Q 3156 559 3463 722 
L 3463 178 
Q 3153 47 2828 -22 
Q 2503 -91 2169 -91 
Q 1331 -91 842 396 
Q 353 884 353 1716 
Q 353 2575 817 3079 
Q 1281 3584 2069 3584 
Q 2775 3584 3186 3129 
Q 3597 2675 3597 1894 
z
M 3022 2063 
Q 3016 2534 2758 2815 
Q 2500 3097 2075 3097 
Q 1594 3097 1305 2825 
Q 1016 2553 972 2059 
L 3022 2063 
z
" transform="scale(0.015625)"/>
      </defs>
      <use xlink:href="#DejaVuSans-25"/>
      <use xlink:href="#DejaVuSans-20" x="95.019531"/>
      <use xlink:href="#DejaVuSans-63" x="126.806641"/>
      <use xlink:href="#DejaVuSans-68" x="181.787109"/>
      <use xlink:href="#DejaVuSans-61" x="245.166016"/>
      <use xlink:href="#DejaVuSans-6e" x="306.445312"/>
      <use xlink:href="#DejaVuSans-67" x="369.824219"/>
      <use xlink:href="#DejaVuSans-65" x="433.300781"/>
     </g>
    </g>
   </g>
   <g id="PolyCollection_1"/>
   <g id="PolyCollection_2"/>
   <g id="PolyCollection_3"/>
   <g id="PolyCollection_4"/>
   <g id="PolyCollection_5"/>
   <g id="PolyCollection_6"/>
   <g id="line2d_7">
    <path d="M 174.372828 108.362695 
L 174.741276 112.657695 
L 175.478172 112.81382 
L 179.531099 112.586383 
L 180.267995 112.288748 
L 185.057819 110.874793 
L 189.847642 109.668201 
L 195.742809 108.412397 
L 202.374873 107.234743 
L 209.375384 106.220146 
L 217.112791 105.333493 
L 223.376406 104.800863 
L 232.219157 104.700556 
L 238.85122 104.781464 
L 248.799315 105.184195 
L 283.064975 106.619569 
L 302.961165 106.878027 
L 335.384585 107.056183 
L 398.757634 107.143262 
L 442.971388 107.154058 
L 442.971388 107.154058 
" clip-path="url(#p937a4a10ec)" style="fill: none; stroke: #4c72b0; stroke-opacity: 0.9; stroke-width: 3; stroke-linecap: round"/>
   </g>
   <g id="line2d_8">
    <path d="M 174.372828 108.362695 
L 174.741276 110.705212 
L 175.478172 110.822555 
L 179.162651 110.736918 
L 179.899547 110.615427 
L 185.794715 109.731439 
L 193.163674 108.859336 
L 202.006425 108.046995 
L 212.322967 107.333225 
L 223.007958 106.809217 
L 237.008981 106.698873 
L 258.010514 106.857092 
L 264.642577 106.93448 
L 287.117903 107.227156 
L 299.276685 107.411664 
L 341.6482 107.525514 
L 442.971388 107.560784 
L 442.971388 107.560784 
" clip-path="url(#p937a4a10ec)" style="fill: none; stroke: #dd8452; stroke-opacity: 0.9; stroke-width: 3; stroke-linecap: round"/>
   </g>
   <g id="line2d_9">
    <path d="M 174.372828 108.362695 
L 174.741276 112.863192 
L 175.109724 113.090931 
L 176.215068 113.109488 
L 179.899547 112.798486 
L 184.689371 111.436082 
L 189.479194 110.326713 
L 195.742809 109.10918 
L 203.111769 107.911613 
L 210.849176 106.877363 
L 218.955031 106.011204 
L 225.587094 105.511878 
L 233.692949 105.12917 
L 239.588116 105.083044 
L 245.114836 105.284917 
L 278.6436 106.742785 
L 300.750477 107.154364 
L 327.27873 107.368076 
L 372.966277 107.488828 
L 442.971388 107.522482 
L 442.971388 107.522482 
" clip-path="url(#p937a4a10ec)" style="fill: none; stroke: #55a868; stroke-opacity: 0.9; stroke-width: 3; stroke-linecap: round"/>
   </g>
   <g id="line2d_10">
    <path d="M 174.372828 108.362695 
L 174.741276 111.899712 
L 175.109724 112.082789 
L 176.215068 112.096586 
L 179.899547 111.853615 
L 185.426267 110.626591 
L 190.952986 109.650105 
L 198.321945 108.584504 
L 206.4278 107.633311 
L 215.638999 106.777744 
L 223.744854 106.23232 
L 231.850709 105.908787 
L 240.325012 105.867789 
L 246.588627 106.028705 
L 279.748944 107.144194 
L 295.592206 107.393925 
L 322.857354 107.5885 
L 372.966277 107.695439 
L 442.971388 107.720271 
L 442.971388 107.720271 
" clip-path="url(#p937a4a10ec)" style="fill: none; stroke: #c44e52; stroke-opacity: 0.9; stroke-width: 3; stroke-linecap: round"/>
   </g>
   <g id="line2d_11">
    <path d="M 174.372828 108.362695 
L 174.741276 112.486083 
L 175.109724 112.649966 
L 176.583516 112.605183 
L 179.899547 112.339772 
L 184.689371 110.86413 
L 190.21609 109.495913 
L 196.111257 108.260569 
L 202.743321 107.104806 
L 210.11228 106.045259 
L 217.849687 105.156851 
L 223.744854 104.678723 
L 232.587605 104.513423 
L 240.325012 104.545062 
L 248.062419 104.942064 
L 277.906704 106.711512 
L 293.381518 107.029687 
L 316.962187 107.24851 
L 358.228358 107.380395 
L 442.971388 107.426341 
L 442.971388 107.426341 
" clip-path="url(#p937a4a10ec)" style="fill: none; stroke: #8172b3; stroke-opacity: 0.9; stroke-width: 3; stroke-linecap: round"/>
   </g>
   <g id="line2d_12">
    <path d="M 174.372828 108.362695 
L 174.741276 111.671365 
L 175.478172 111.790171 
L 179.531099 111.619426 
L 192.426778 109.065959 
L 199.427289 108.058836 
L 207.533144 107.119508 
L 216.375895 106.311885 
L 224.113302 105.808609 
L 237.745876 105.652855 
L 244.009492 105.742137 
L 271.274641 106.806084 
L 277.169808 107.042875 
L 293.381518 107.280722 
L 320.646667 107.447234 
L 378.124548 107.536775 
L 442.971388 107.551726 
L 442.971388 107.551726 
" clip-path="url(#p937a4a10ec)" style="fill: none; stroke: #937860; stroke-opacity: 0.9; stroke-width: 3; stroke-linecap: round"/>
   </g>
   <g id="patch_3">
    <path d="M 160.9429 195.268591 
L 160.9429 81.456 
" style="fill: none; stroke: #ffffff; stroke-width: 1.25; stroke-linejoin: miter; stroke-linecap: square"/>
   </g>
   <g id="patch_4">
    <path d="M 160.9429 195.268591 
L 456.401316 195.268591 
" style="fill: none; stroke: #ffffff; stroke-width: 1.25; stroke-linejoin: miter; stroke-linecap: square"/>
   </g>
   <g id="text_4">
    <!-- 0.5~30 -->
    <g style="fill: #262626" transform="translate(262.042264 75.456) scale(0.252 -0.252)">
     <defs>
      <path id="DejaVuSans-2e" d="M 684 794 
L 1344 794 
L 1344 0 
L 684 0 
L 684 794 
z
" transform="scale(0.015625)"/>
      <path id="DejaVuSans-35" d="M 691 4666 
L 3169 4666 
L 3169 4134 
L 1269 4134 
L 1269 2991 
Q 1406 3038 1543 3061 
Q 1681 3084 1819 3084 
Q 2600 3084 3056 2656 
Q 3513 2228 3513 1497 
Q 3513 744 3044 326 
Q 2575 -91 1722 -91 
Q 1428 -91 1123 -41 
Q 819 9 494 109 
L 494 744 
Q 775 591 1075 516 
Q 1375 441 1709 441 
Q 2250 441 2565 725 
Q 2881 1009 2881 1497 
Q 2881 1984 2565 2268 
Q 2250 2553 1709 2553 
Q 1456 2553 1204 2497 
Q 953 2441 691 2322 
L 691 4666 
z
" transform="scale(0.015625)"/>
      <path id="DejaVuSans-7e" d="M 4684 2553 
L 4684 1997 
Q 4356 1750 4076 1644 
Q 3797 1538 3494 1538 
Q 3150 1538 2694 1722 
Q 2659 1734 2644 1741 
Q 2622 1750 2575 1766 
Q 2091 1959 1797 1959 
Q 1522 1959 1253 1839 
Q 984 1719 678 1459 
L 678 2016 
Q 1006 2263 1286 2370 
Q 1566 2478 1869 2478 
Q 2213 2478 2672 2291 
Q 2703 2278 2719 2272 
Q 2744 2263 2788 2247 
Q 3272 2053 3566 2053 
Q 3834 2053 4098 2172 
Q 4363 2291 4684 2553 
z
" transform="scale(0.015625)"/>
      <path id="DejaVuSans-33" d="M 2597 2516 
Q 3050 2419 3304 2112 
Q 3559 1806 3559 1356 
Q 3559 666 3084 287 
Q 2609 -91 1734 -91 
Q 1441 -91 1130 -33 
Q 819 25 488 141 
L 488 750 
Q 750 597 1062 519 
Q 1375 441 1716 441 
Q 2309 441 2620 675 
Q 2931 909 2931 1356 
Q 2931 1769 2642 2001 
Q 2353 2234 1838 2234 
L 1294 2234 
L 1294 2753 
L 1863 2753 
Q 2328 2753 2575 2939 
Q 2822 3125 2822 3475 
Q 2822 3834 2567 4026 
Q 2313 4219 1838 4219 
Q 1578 4219 1281 4162 
Q 984 4106 628 3988 
L 628 4550 
Q 988 4650 1302 4700 
Q 1616 4750 1894 4750 
Q 2613 4750 3031 4423 
Q 3450 4097 3450 3541 
Q 3450 3153 3228 2886 
Q 3006 2619 2597 2516 
z
" transform="scale(0.015625)"/>
     </defs>
     <use xlink:href="#DejaVuSans-30"/>
     <use xlink:href="#DejaVuSans-2e" x="63.623047"/>
     <use xlink:href="#DejaVuSans-35" x="95.410156"/>
     <use xlink:href="#DejaVuSans-7e" x="159.033203"/>
     <use xlink:href="#DejaVuSans-33" x="242.822266"/>
     <use xlink:href="#DejaVuSans-30" x="306.445312"/>
    </g>
   </g>
  </g>
  <g id="axes_2">
   <g id="patch_5">
    <path d="M 483.047028 195.268591 
L 778.505445 195.268591 
L 778.505445 81.456 
L 483.047028 81.456 
z
" style="fill: #eaeaf2"/>
   </g>
   <g id="matplotlib.axis_3">
    <g id="xtick_5">
     <g id="line2d_13">
      <path d="M 496.476956 195.268591 
L 496.476956 81.456 
" clip-path="url(#pb3838cb345)" style="fill: none; stroke: #ffffff; stroke-linecap: round"/>
     </g>
    </g>
    <g id="xtick_6">
     <g id="line2d_14">
      <path d="M 588.588946 195.268591 
L 588.588946 81.456 
" clip-path="url(#pb3838cb345)" style="fill: none; stroke: #ffffff; stroke-linecap: round"/>
     </g>
    </g>
    <g id="xtick_7">
     <g id="line2d_15">
      <path d="M 680.700935 195.268591 
L 680.700935 81.456 
" clip-path="url(#pb3838cb345)" style="fill: none; stroke: #ffffff; stroke-linecap: round"/>
     </g>
    </g>
    <g id="xtick_8">
     <g id="line2d_16">
      <path d="M 772.812924 195.268591 
L 772.812924 81.456 
" clip-path="url(#pb3838cb345)" style="fill: none; stroke: #ffffff; stroke-linecap: round"/>
     </g>
    </g>
   </g>
   <g id="matplotlib.axis_4">
    <g id="ytick_3">
     <g id="line2d_17">
      <path d="M 483.047028 193.209642 
L 778.505445 193.209642 
" clip-path="url(#pb3838cb345)" style="fill: none; stroke: #ffffff; stroke-linecap: round"/>
     </g>
    </g>
    <g id="ytick_4">
     <g id="line2d_18">
      <path d="M 483.047028 108.362695 
L 778.505445 108.362695 
" clip-path="url(#pb3838cb345)" style="fill: none; stroke: #ffffff; stroke-linecap: round"/>
     </g>
    </g>
   </g>
   <g id="PolyCollection_7"/>
   <g id="PolyCollection_8"/>
   <g id="PolyCollection_9"/>
   <g id="PolyCollection_10"/>
   <g id="PolyCollection_11"/>
   <g id="PolyCollection_12"/>
   <g id="line2d_19">
    <path d="M 496.476956 108.362695 
L 496.845404 112.657695 
L 497.5823 112.851262 
L 501.26678 112.84887 
L 501.635228 112.84696 
L 502.372124 112.652327 
L 510.477979 111.627036 
L 519.32073 110.741321 
L 529.268825 109.972248 
L 540.690711 109.313916 
L 553.954838 108.778113 
L 570.534996 108.342874 
L 591.904977 108.018004 
L 613.274959 107.895899 
L 714.598147 108.226496 
L 765.075517 108.255134 
L 765.075517 108.255134 
" clip-path="url(#pb3838cb345)" style="fill: none; stroke: #4c72b0; stroke-opacity: 0.9; stroke-width: 3; stroke-linecap: round"/>
   </g>
   <g id="line2d_20">
    <path d="M 496.476956 108.362695 
L 496.845404 110.705212 
L 497.5823 110.83996 
L 501.26678 110.851696 
L 502.003676 110.756317 
L 513.79401 109.963439 
L 525.952793 109.385097 
L 541.059159 108.898023 
L 559.850005 108.526923 
L 585.641362 108.260183 
L 616.59099 108.157015 
L 734.494336 108.292252 
L 765.075517 108.296978 
L 765.075517 108.296978 
" clip-path="url(#pb3838cb345)" style="fill: none; stroke: #dd8452; stroke-opacity: 0.9; stroke-width: 3; stroke-linecap: round"/>
   </g>
   <g id="line2d_21">
    <path d="M 496.476956 108.362695 
L 496.845404 112.863192 
L 497.213852 113.108946 
L 498.319196 113.191714 
L 502.003676 113.118302 
L 508.635739 112.277154 
L 518.215386 111.273571 
L 528.900377 110.390194 
L 540.690711 109.649804 
L 553.954838 109.050232 
L 570.166548 108.54861 
L 590.062737 108.16282 
L 614.748751 107.910439 
L 633.908044 107.922944 
L 706.123844 108.241998 
L 765.075517 108.274182 
L 765.075517 108.274182 
" clip-path="url(#pb3838cb345)" style="fill: none; stroke: #55a868; stroke-opacity: 0.9; stroke-width: 3; stroke-linecap: round"/>
   </g>
   <g id="line2d_22">
    <path d="M 496.476956 108.362695 
L 496.845404 111.899712 
L 497.213852 112.09705 
L 498.319196 112.161934 
L 502.372124 112.068449 
L 512.320219 111.113132 
L 523.373657 110.283569 
L 535.53244 109.593687 
L 549.533462 109.026826 
L 566.482068 108.570866 
L 588.220498 108.218936 
L 616.222542 107.996561 
L 638.32942 108.043756 
L 703.913156 108.26727 
L 765.075517 108.294544 
L 765.075517 108.294544 
" clip-path="url(#pb3838cb345)" style="fill: none; stroke: #c44e52; stroke-opacity: 0.9; stroke-width: 3; stroke-linecap: round"/>
   </g>
   <g id="line2d_23">
    <path d="M 496.476956 108.362695 
L 496.845404 112.486083 
L 497.213852 112.668489 
L 498.687644 112.702864 
L 502.372124 112.602973 
L 510.477979 111.571944 
L 519.32073 110.683443 
L 529.268825 109.917393 
L 540.690711 109.266189 
L 554.691734 108.720088 
L 571.64034 108.292959 
L 593.747217 107.974677 
L 614.011855 107.87669 
L 765.075517 108.253222 
L 765.075517 108.253222 
" clip-path="url(#pb3838cb345)" style="fill: none; stroke: #8172b3; stroke-opacity: 0.9; stroke-width: 3; stroke-linecap: round"/>
   </g>
   <g id="line2d_24">
    <path d="M 496.476956 108.362695 
L 496.845404 111.671365 
L 497.5823 111.819476 
L 502.003676 111.778902 
L 512.320219 110.765756 
L 522.636761 110.007026 
L 534.427096 109.374063 
L 548.428118 108.858256 
L 566.11362 108.445554 
L 589.325842 108.144719 
L 615.117199 108.019793 
L 710.913667 108.238787 
L 765.075517 108.266372 
L 765.075517 108.266372 
" clip-path="url(#pb3838cb345)" style="fill: none; stroke: #937860; stroke-opacity: 0.9; stroke-width: 3; stroke-linecap: round"/>
   </g>
   <g id="patch_6">
    <path d="M 483.047028 195.268591 
L 483.047028 81.456 
" style="fill: none; stroke: #ffffff; stroke-width: 1.25; stroke-linejoin: miter; stroke-linecap: square"/>
   </g>
   <g id="patch_7">
    <path d="M 483.047028 195.268591 
L 778.505445 195.268591 
" style="fill: none; stroke: #ffffff; stroke-width: 1.25; stroke-linejoin: miter; stroke-linecap: square"/>
   </g>
   <g id="text_5">
    <!-- 0.5~365 -->
    <g style="fill: #262626" transform="translate(576.129643 75.456) scale(0.252 -0.252)">
     <defs>
      <path id="DejaVuSans-36" d="M 2113 2584 
Q 1688 2584 1439 2293 
Q 1191 2003 1191 1497 
Q 1191 994 1439 701 
Q 1688 409 2113 409 
Q 2538 409 2786 701 
Q 3034 994 3034 1497 
Q 3034 2003 2786 2293 
Q 2538 2584 2113 2584 
z
M 3366 4563 
L 3366 3988 
Q 3128 4100 2886 4159 
Q 2644 4219 2406 4219 
Q 1781 4219 1451 3797 
Q 1122 3375 1075 2522 
Q 1259 2794 1537 2939 
Q 1816 3084 2150 3084 
Q 2853 3084 3261 2657 
Q 3669 2231 3669 1497 
Q 3669 778 3244 343 
Q 2819 -91 2113 -91 
Q 1303 -91 875 529 
Q 447 1150 447 2328 
Q 447 3434 972 4092 
Q 1497 4750 2381 4750 
Q 2619 4750 2861 4703 
Q 3103 4656 3366 4563 
z
" transform="scale(0.015625)"/>
     </defs>
     <use xlink:href="#DejaVuSans-30"/>
     <use xlink:href="#DejaVuSans-2e" x="63.623047"/>
     <use xlink:href="#DejaVuSans-35" x="95.410156"/>
     <use xlink:href="#DejaVuSans-7e" x="159.033203"/>
     <use xlink:href="#DejaVuSans-33" x="242.822266"/>
     <use xlink:href="#DejaVuSans-36" x="306.445312"/>
     <use xlink:href="#DejaVuSans-35" x="370.068359"/>
    </g>
   </g>
  </g>
  <g id="axes_3">
   <g id="patch_8">
    <path d="M 805.151157 195.268591 
L 1100.609573 195.268591 
L 1100.609573 81.456 
L 805.151157 81.456 
z
" style="fill: #eaeaf2"/>
   </g>
   <g id="matplotlib.axis_5">
    <g id="xtick_9">
     <g id="line2d_25">
      <path d="M 818.581085 195.268591 
L 818.581085 81.456 
" clip-path="url(#p6ddc46ca93)" style="fill: none; stroke: #ffffff; stroke-linecap: round"/>
     </g>
    </g>
    <g id="xtick_10">
     <g id="line2d_26">
      <path d="M 910.693074 195.268591 
L 910.693074 81.456 
" clip-path="url(#p6ddc46ca93)" style="fill: none; stroke: #ffffff; stroke-linecap: round"/>
     </g>
    </g>
    <g id="xtick_11">
     <g id="line2d_27">
      <path d="M 1002.805063 195.268591 
L 1002.805063 81.456 
" clip-path="url(#p6ddc46ca93)" style="fill: none; stroke: #ffffff; stroke-linecap: round"/>
     </g>
    </g>
    <g id="xtick_12">
     <g id="line2d_28">
      <path d="M 1094.917053 195.268591 
L 1094.917053 81.456 
" clip-path="url(#p6ddc46ca93)" style="fill: none; stroke: #ffffff; stroke-linecap: round"/>
     </g>
    </g>
   </g>
   <g id="matplotlib.axis_6">
    <g id="ytick_5">
     <g id="line2d_29">
      <path d="M 805.151157 193.209642 
L 1100.609573 193.209642 
" clip-path="url(#p6ddc46ca93)" style="fill: none; stroke: #ffffff; stroke-linecap: round"/>
     </g>
    </g>
    <g id="ytick_6">
     <g id="line2d_30">
      <path d="M 805.151157 108.362695 
L 1100.609573 108.362695 
" clip-path="url(#p6ddc46ca93)" style="fill: none; stroke: #ffffff; stroke-linecap: round"/>
     </g>
    </g>
   </g>
   <g id="PolyCollection_13"/>
   <g id="PolyCollection_14"/>
   <g id="PolyCollection_15"/>
   <g id="PolyCollection_16"/>
   <g id="PolyCollection_17"/>
   <g id="PolyCollection_18"/>
   <g id="line2d_31">
    <path d="M 818.581085 108.362695 
L 818.949533 112.657695 
L 819.686429 112.81382 
L 823.739356 112.586383 
L 824.476252 112.288748 
L 829.266076 110.874793 
L 834.055899 109.668201 
L 839.951066 108.412397 
L 846.58313 107.234743 
L 853.583641 106.220146 
L 861.321048 105.333493 
L 867.584663 104.800863 
L 876.427414 104.700556 
L 883.059477 104.781464 
L 893.007572 105.184195 
L 927.273232 106.619569 
L 947.169422 106.878027 
L 979.592842 107.056183 
L 1042.965891 107.143262 
L 1087.179645 107.154058 
L 1087.179645 107.154058 
" clip-path="url(#p6ddc46ca93)" style="fill: none; stroke: #4c72b0; stroke-opacity: 0.9; stroke-width: 3; stroke-linecap: round"/>
   </g>
   <g id="line2d_32">
    <path d="M 818.581085 108.362695 
L 818.949533 110.705212 
L 819.686429 110.822555 
L 823.370908 110.736918 
L 824.107804 110.615427 
L 830.002972 109.731439 
L 837.371931 108.859336 
L 846.214682 108.046995 
L 856.531225 107.333225 
L 867.216215 106.809217 
L 881.217238 106.698873 
L 902.218771 106.857092 
L 908.850834 106.93448 
L 931.32616 107.227156 
L 943.484942 107.411664 
L 985.856457 107.525514 
L 1087.179645 107.560784 
L 1087.179645 107.560784 
" clip-path="url(#p6ddc46ca93)" style="fill: none; stroke: #dd8452; stroke-opacity: 0.9; stroke-width: 3; stroke-linecap: round"/>
   </g>
   <g id="line2d_33">
    <path d="M 818.581085 108.362695 
L 818.949533 112.863192 
L 819.317981 113.090931 
L 820.423325 113.109488 
L 824.107804 112.798486 
L 828.897628 111.436082 
L 833.687451 110.326713 
L 839.951066 109.10918 
L 846.214682 108.107124 
L 851.372953 107.512264 
L 859.847256 106.764341 
L 866.847767 106.317412 
L 876.795862 105.936327 
L 883.796373 105.911537 
L 890.059989 106.16657 
L 904.797907 106.848406 
L 913.27221 106.995507 
L 923.588753 106.95077 
L 938.695119 106.83445 
L 973.329227 107.286604 
L 1014.22695 107.412201 
L 1087.179645 107.453905 
L 1087.179645 107.453905 
" clip-path="url(#p6ddc46ca93)" style="fill: none; stroke: #55a868; stroke-opacity: 0.9; stroke-width: 3; stroke-linecap: round"/>
   </g>
   <g id="line2d_34">
    <path d="M 818.581085 108.362695 
L 818.949533 111.899712 
L 819.317981 112.082789 
L 820.423325 112.096586 
L 824.107804 111.853615 
L 829.634524 110.626591 
L 835.161243 109.650105 
L 842.161754 108.635459 
L 849.162265 107.888495 
L 855.425881 107.397997 
L 864.268632 106.886506 
L 874.585174 106.499538 
L 883.059477 106.410567 
L 890.428437 106.50955 
L 908.113938 106.84159 
L 978.855946 107.566574 
L 1041.123651 107.650223 
L 1087.179645 107.660894 
L 1087.179645 107.660894 
" clip-path="url(#p6ddc46ca93)" style="fill: none; stroke: #c44e52; stroke-opacity: 0.9; stroke-width: 3; stroke-linecap: round"/>
   </g>
   <g id="line2d_35">
    <path d="M 818.581085 108.362695 
L 818.949533 112.486083 
L 819.317981 112.649966 
L 820.791773 112.605183 
L 824.107804 112.339772 
L 828.897628 110.86413 
L 834.424347 109.495913 
L 840.319514 108.260569 
L 846.951578 107.104806 
L 854.320537 106.045259 
L 862.057944 105.156851 
L 867.953111 104.678723 
L 876.795862 104.513423 
L 884.533269 104.545062 
L 892.270676 104.942064 
L 922.114961 106.711512 
L 937.589775 107.029687 
L 961.170444 107.24851 
L 1002.436615 107.380395 
L 1087.179645 107.426341 
L 1087.179645 107.426341 
" clip-path="url(#p6ddc46ca93)" style="fill: none; stroke: #8172b3; stroke-opacity: 0.9; stroke-width: 3; stroke-linecap: round"/>
   </g>
   <g id="line2d_36">
    <path d="M 818.581085 108.362695 
L 818.949533 111.671365 
L 819.686429 111.790171 
L 823.739356 111.619426 
L 836.635035 109.065959 
L 843.635546 108.058836 
L 851.741401 107.119508 
L 860.584152 106.311885 
L 868.321559 105.808609 
L 881.954134 105.652855 
L 888.217749 105.742137 
L 915.482898 106.806084 
L 921.378065 107.042875 
L 937.589775 107.280722 
L 964.854924 107.447234 
L 1022.332805 107.536775 
L 1087.179645 107.551726 
L 1087.179645 107.551726 
" clip-path="url(#p6ddc46ca93)" style="fill: none; stroke: #937860; stroke-opacity: 0.9; stroke-width: 3; stroke-linecap: round"/>
   </g>
   <g id="patch_9">
    <path d="M 805.151157 195.268591 
L 805.151157 81.456 
" style="fill: none; stroke: #ffffff; stroke-width: 1.25; stroke-linejoin: miter; stroke-linecap: square"/>
   </g>
   <g id="patch_10">
    <path d="M 805.151157 195.268591 
L 1100.609573 195.268591 
" style="fill: none; stroke: #ffffff; stroke-width: 1.25; stroke-linejoin: miter; stroke-linecap: square"/>
   </g>
   <g id="text_6">
    <!-- 0.8~30 -->
    <g style="fill: #262626" transform="translate(906.250521 75.456) scale(0.252 -0.252)">
     <defs>
      <path id="DejaVuSans-38" d="M 2034 2216 
Q 1584 2216 1326 1975 
Q 1069 1734 1069 1313 
Q 1069 891 1326 650 
Q 1584 409 2034 409 
Q 2484 409 2743 651 
Q 3003 894 3003 1313 
Q 3003 1734 2745 1975 
Q 2488 2216 2034 2216 
z
M 1403 2484 
Q 997 2584 770 2862 
Q 544 3141 544 3541 
Q 544 4100 942 4425 
Q 1341 4750 2034 4750 
Q 2731 4750 3128 4425 
Q 3525 4100 3525 3541 
Q 3525 3141 3298 2862 
Q 3072 2584 2669 2484 
Q 3125 2378 3379 2068 
Q 3634 1759 3634 1313 
Q 3634 634 3220 271 
Q 2806 -91 2034 -91 
Q 1263 -91 848 271 
Q 434 634 434 1313 
Q 434 1759 690 2068 
Q 947 2378 1403 2484 
z
M 1172 3481 
Q 1172 3119 1398 2916 
Q 1625 2713 2034 2713 
Q 2441 2713 2670 2916 
Q 2900 3119 2900 3481 
Q 2900 3844 2670 4047 
Q 2441 4250 2034 4250 
Q 1625 4250 1398 4047 
Q 1172 3844 1172 3481 
z
" transform="scale(0.015625)"/>
     </defs>
     <use xlink:href="#DejaVuSans-30"/>
     <use xlink:href="#DejaVuSans-2e" x="63.623047"/>
     <use xlink:href="#DejaVuSans-38" x="95.410156"/>
     <use xlink:href="#DejaVuSans-7e" x="159.033203"/>
     <use xlink:href="#DejaVuSans-33" x="242.822266"/>
     <use xlink:href="#DejaVuSans-30" x="306.445312"/>
    </g>
   </g>
  </g>
  <g id="axes_4">
   <g id="patch_11">
    <path d="M 160.9429 373.284 
L 456.401316 373.284 
L 456.401316 259.471409 
L 160.9429 259.471409 
z
" style="fill: #eaeaf2"/>
   </g>
   <g id="matplotlib.axis_7">
    <g id="xtick_13">
     <g id="line2d_37">
      <path d="M 174.372828 373.284 
L 174.372828 259.471409 
" clip-path="url(#p5b624c2cf5)" style="fill: none; stroke: #ffffff; stroke-linecap: round"/>
     </g>
     <g id="text_7">
      <!-- 0 -->
      <g style="fill: #262626" transform="translate(167.02414 400.336391) scale(0.231 -0.231)">
       <use xlink:href="#DejaVuSans-30"/>
      </g>
     </g>
    </g>
    <g id="xtick_14">
     <g id="line2d_38">
      <path d="M 266.484817 373.284 
L 266.484817 259.471409 
" clip-path="url(#p5b624c2cf5)" style="fill: none; stroke: #ffffff; stroke-linecap: round"/>
     </g>
     <g id="text_8">
      <!-- 250 -->
      <g style="fill: #262626" transform="translate(244.438755 400.336391) scale(0.231 -0.231)">
       <defs>
        <path id="DejaVuSans-32" d="M 1228 531 
L 3431 531 
L 3431 0 
L 469 0 
L 469 531 
Q 828 903 1448 1529 
Q 2069 2156 2228 2338 
Q 2531 2678 2651 2914 
Q 2772 3150 2772 3378 
Q 2772 3750 2511 3984 
Q 2250 4219 1831 4219 
Q 1534 4219 1204 4116 
Q 875 4013 500 3803 
L 500 4441 
Q 881 4594 1212 4672 
Q 1544 4750 1819 4750 
Q 2544 4750 2975 4387 
Q 3406 4025 3406 3419 
Q 3406 3131 3298 2873 
Q 3191 2616 2906 2266 
Q 2828 2175 2409 1742 
Q 1991 1309 1228 531 
z
" transform="scale(0.015625)"/>
       </defs>
       <use xlink:href="#DejaVuSans-32"/>
       <use xlink:href="#DejaVuSans-35" x="63.623047"/>
       <use xlink:href="#DejaVuSans-30" x="127.246094"/>
      </g>
     </g>
    </g>
    <g id="xtick_15">
     <g id="line2d_39">
      <path d="M 358.596806 373.284 
L 358.596806 259.471409 
" clip-path="url(#p5b624c2cf5)" style="fill: none; stroke: #ffffff; stroke-linecap: round"/>
     </g>
     <g id="text_9">
      <!-- 500 -->
      <g style="fill: #262626" transform="translate(336.550744 400.336391) scale(0.231 -0.231)">
       <use xlink:href="#DejaVuSans-35"/>
       <use xlink:href="#DejaVuSans-30" x="63.623047"/>
       <use xlink:href="#DejaVuSans-30" x="127.246094"/>
      </g>
     </g>
    </g>
    <g id="xtick_16">
     <g id="line2d_40">
      <path d="M 450.708795 373.284 
L 450.708795 259.471409 
" clip-path="url(#p5b624c2cf5)" style="fill: none; stroke: #ffffff; stroke-linecap: round"/>
     </g>
     <g id="text_10">
      <!-- 750 -->
      <g style="fill: #262626" transform="translate(428.662733 400.336391) scale(0.231 -0.231)">
       <defs>
        <path id="DejaVuSans-37" d="M 525 4666 
L 3525 4666 
L 3525 4397 
L 1831 0 
L 1172 0 
L 2766 4134 
L 525 4134 
L 525 4666 
z
" transform="scale(0.015625)"/>
       </defs>
       <use xlink:href="#DejaVuSans-37"/>
       <use xlink:href="#DejaVuSans-35" x="63.623047"/>
       <use xlink:href="#DejaVuSans-30" x="127.246094"/>
      </g>
     </g>
    </g>
    <g id="text_11">
     <!-- step -->
     <g style="fill: #262626" transform="translate(281.416733 428.288531) scale(0.252 -0.252)">
      <defs>
       <path id="DejaVuSans-73" d="M 2834 3397 
L 2834 2853 
Q 2591 2978 2328 3040 
Q 2066 3103 1784 3103 
Q 1356 3103 1142 2972 
Q 928 2841 928 2578 
Q 928 2378 1081 2264 
Q 1234 2150 1697 2047 
L 1894 2003 
Q 2506 1872 2764 1633 
Q 3022 1394 3022 966 
Q 3022 478 2636 193 
Q 2250 -91 1575 -91 
Q 1294 -91 989 -36 
Q 684 19 347 128 
L 347 722 
Q 666 556 975 473 
Q 1284 391 1588 391 
Q 1994 391 2212 530 
Q 2431 669 2431 922 
Q 2431 1156 2273 1281 
Q 2116 1406 1581 1522 
L 1381 1569 
Q 847 1681 609 1914 
Q 372 2147 372 2553 
Q 372 3047 722 3315 
Q 1072 3584 1716 3584 
Q 2034 3584 2315 3537 
Q 2597 3491 2834 3397 
z
" transform="scale(0.015625)"/>
       <path id="DejaVuSans-74" d="M 1172 4494 
L 1172 3500 
L 2356 3500 
L 2356 3053 
L 1172 3053 
L 1172 1153 
Q 1172 725 1289 603 
Q 1406 481 1766 481 
L 2356 481 
L 2356 0 
L 1766 0 
Q 1100 0 847 248 
Q 594 497 594 1153 
L 594 3053 
L 172 3053 
L 172 3500 
L 594 3500 
L 594 4494 
L 1172 4494 
z
" transform="scale(0.015625)"/>
       <path id="DejaVuSans-70" d="M 1159 525 
L 1159 -1331 
L 581 -1331 
L 581 3500 
L 1159 3500 
L 1159 2969 
Q 1341 3281 1617 3432 
Q 1894 3584 2278 3584 
Q 2916 3584 3314 3078 
Q 3713 2572 3713 1747 
Q 3713 922 3314 415 
Q 2916 -91 2278 -91 
Q 1894 -91 1617 61 
Q 1341 213 1159 525 
z
M 3116 1747 
Q 3116 2381 2855 2742 
Q 2594 3103 2138 3103 
Q 1681 3103 1420 2742 
Q 1159 2381 1159 1747 
Q 1159 1113 1420 752 
Q 1681 391 2138 391 
Q 2594 391 2855 752 
Q 3116 1113 3116 1747 
z
" transform="scale(0.015625)"/>
      </defs>
      <use xlink:href="#DejaVuSans-73"/>
      <use xlink:href="#DejaVuSans-74" x="52.099609"/>
      <use xlink:href="#DejaVuSans-65" x="91.308594"/>
      <use xlink:href="#DejaVuSans-70" x="152.832031"/>
     </g>
    </g>
   </g>
   <g id="matplotlib.axis_8">
    <g id="ytick_7">
     <g id="line2d_41">
      <path d="M 160.9429 371.225051 
L 456.401316 371.225051 
" clip-path="url(#p5b624c2cf5)" style="fill: none; stroke: #ffffff; stroke-linecap: round"/>
     </g>
     <g id="text_12">
      <!-- −10 -->
      <g style="fill: #262626" transform="translate(102.691072 380.001246) scale(0.231 -0.231)">
       <use xlink:href="#DejaVuSans-2212"/>
       <use xlink:href="#DejaVuSans-31" x="83.789062"/>
       <use xlink:href="#DejaVuSans-30" x="147.412109"/>
      </g>
     </g>
    </g>
    <g id="ytick_8">
     <g id="line2d_42">
      <path d="M 160.9429 286.378104 
L 456.401316 286.378104 
" clip-path="url(#p5b624c2cf5)" style="fill: none; stroke: #ffffff; stroke-linecap: round"/>
     </g>
     <g id="text_13">
      <!-- 0 -->
      <g style="fill: #262626" transform="translate(136.745525 295.154299) scale(0.231 -0.231)">
       <use xlink:href="#DejaVuSans-30"/>
      </g>
     </g>
    </g>
    <g id="text_14">
     <!-- % change -->
     <g style="fill: #262626" transform="translate(93.450259 378.726048) rotate(-90) scale(0.252 -0.252)">
      <use xlink:href="#DejaVuSans-25"/>
      <use xlink:href="#DejaVuSans-20" x="95.019531"/>
      <use xlink:href="#DejaVuSans-63" x="126.806641"/>
      <use xlink:href="#DejaVuSans-68" x="181.787109"/>
      <use xlink:href="#DejaVuSans-61" x="245.166016"/>
      <use xlink:href="#DejaVuSans-6e" x="306.445312"/>
      <use xlink:href="#DejaVuSans-67" x="369.824219"/>
      <use xlink:href="#DejaVuSans-65" x="433.300781"/>
     </g>
    </g>
   </g>
   <g id="PolyCollection_19"/>
   <g id="PolyCollection_20"/>
   <g id="PolyCollection_21"/>
   <g id="PolyCollection_22"/>
   <g id="PolyCollection_23"/>
   <g id="PolyCollection_24"/>
   <g id="line2d_43">
    <path d="M 174.372828 286.378104 
L 174.741276 290.673104 
L 175.478172 290.866671 
L 179.162651 290.864279 
L 179.531099 290.862368 
L 180.267995 290.667735 
L 188.37385 289.642445 
L 197.216601 288.75673 
L 207.164696 287.987656 
L 218.586583 287.329324 
L 231.850709 286.793522 
L 248.430867 286.358283 
L 269.800849 286.033413 
L 291.17083 285.911308 
L 392.494018 286.241905 
L 442.971388 286.270542 
L 442.971388 286.270542 
" clip-path="url(#p5b624c2cf5)" style="fill: none; stroke: #4c72b0; stroke-opacity: 0.9; stroke-width: 3; stroke-linecap: round"/>
   </g>
   <g id="line2d_44">
    <path d="M 174.372828 286.378104 
L 174.741276 288.720621 
L 175.478172 288.855368 
L 179.162651 288.867105 
L 179.899547 288.771726 
L 191.689882 287.978848 
L 203.848664 287.400506 
L 218.955031 286.913432 
L 237.745876 286.542332 
L 263.537233 286.275592 
L 294.486862 286.172424 
L 412.390208 286.307661 
L 442.971388 286.312387 
L 442.971388 286.312387 
" clip-path="url(#p5b624c2cf5)" style="fill: none; stroke: #dd8452; stroke-opacity: 0.9; stroke-width: 3; stroke-linecap: round"/>
   </g>
   <g id="line2d_45">
    <path d="M 174.372828 286.378104 
L 174.741276 290.878601 
L 175.109724 291.124355 
L 176.215068 291.207123 
L 179.899547 291.133711 
L 186.531611 290.292563 
L 196.111257 289.28898 
L 203.848664 288.671634 
L 212.691415 288.263958 
L 233.324501 287.75686 
L 294.118414 286.490545 
L 319.909771 285.98779 
L 328.384074 285.98692 
L 379.59834 286.211353 
L 442.971388 286.26554 
L 442.971388 286.26554 
" clip-path="url(#p5b624c2cf5)" style="fill: none; stroke: #55a868; stroke-opacity: 0.9; stroke-width: 3; stroke-linecap: round"/>
   </g>
   <g id="line2d_46">
    <path d="M 174.372828 286.378104 
L 174.741276 289.915121 
L 175.109724 290.112459 
L 176.215068 290.177343 
L 180.267995 290.083858 
L 190.21609 289.128541 
L 199.795737 288.421534 
L 210.480728 287.954928 
L 227.060886 287.603697 
L 263.905681 286.878519 
L 307.014092 285.981608 
L 337.963721 286.118549 
L 408.33728 286.28369 
L 442.971388 286.292527 
L 442.971388 286.292527 
" clip-path="url(#p5b624c2cf5)" style="fill: none; stroke: #c44e52; stroke-opacity: 0.9; stroke-width: 3; stroke-linecap: round"/>
   </g>
   <g id="line2d_47">
    <path d="M 174.372828 286.378104 
L 174.741276 290.501491 
L 175.109724 290.683898 
L 176.583516 290.718273 
L 180.267995 290.618382 
L 188.37385 289.587353 
L 197.216601 288.698852 
L 207.164696 287.932802 
L 218.586583 287.281598 
L 232.587605 286.735497 
L 249.536211 286.308368 
L 271.643089 285.990086 
L 291.907726 285.892098 
L 442.971388 286.26863 
L 442.971388 286.26863 
" clip-path="url(#p5b624c2cf5)" style="fill: none; stroke: #8172b3; stroke-opacity: 0.9; stroke-width: 3; stroke-linecap: round"/>
   </g>
   <g id="line2d_48">
    <path d="M 174.372828 286.378104 
L 174.741276 289.686773 
L 175.478172 289.834884 
L 179.899547 289.794311 
L 190.21609 288.781164 
L 200.532633 288.022435 
L 212.322967 287.389472 
L 226.32399 286.873665 
L 244.009492 286.460963 
L 267.221713 286.160127 
L 293.01307 286.035202 
L 388.809539 286.254196 
L 442.971388 286.28178 
L 442.971388 286.28178 
" clip-path="url(#p5b624c2cf5)" style="fill: none; stroke: #937860; stroke-opacity: 0.9; stroke-width: 3; stroke-linecap: round"/>
   </g>
   <g id="patch_12">
    <path d="M 160.9429 373.284 
L 160.9429 259.471409 
" style="fill: none; stroke: #ffffff; stroke-width: 1.25; stroke-linejoin: miter; stroke-linecap: square"/>
   </g>
   <g id="patch_13">
    <path d="M 160.9429 373.284 
L 456.401316 373.284 
" style="fill: none; stroke: #ffffff; stroke-width: 1.25; stroke-linejoin: miter; stroke-linecap: square"/>
   </g>
   <g id="text_15">
    <!-- 0.8~365 -->
    <g style="fill: #262626" transform="translate(254.025514 253.471409) scale(0.252 -0.252)">
     <use xlink:href="#DejaVuSans-30"/>
     <use xlink:href="#DejaVuSans-2e" x="63.623047"/>
     <use xlink:href="#DejaVuSans-38" x="95.410156"/>
     <use xlink:href="#DejaVuSans-7e" x="159.033203"/>
     <use xlink:href="#DejaVuSans-33" x="242.822266"/>
     <use xlink:href="#DejaVuSans-36" x="306.445312"/>
     <use xlink:href="#DejaVuSans-35" x="370.068359"/>
    </g>
   </g>
  </g>
  <g id="axes_5">
   <g id="patch_14">
    <path d="M 483.047028 373.284 
L 778.505445 373.284 
L 778.505445 259.471409 
L 483.047028 259.471409 
z
" style="fill: #eaeaf2"/>
   </g>
   <g id="matplotlib.axis_9">
    <g id="xtick_17">
     <g id="line2d_49">
      <path d="M 496.476956 373.284 
L 496.476956 259.471409 
" clip-path="url(#p21eb0fc26e)" style="fill: none; stroke: #ffffff; stroke-linecap: round"/>
     </g>
     <g id="text_16">
      <!-- 0 -->
      <g style="fill: #262626" transform="translate(489.128269 400.336391) scale(0.231 -0.231)">
       <use xlink:href="#DejaVuSans-30"/>
      </g>
     </g>
    </g>
    <g id="xtick_18">
     <g id="line2d_50">
      <path d="M 588.588946 373.284 
L 588.588946 259.471409 
" clip-path="url(#p21eb0fc26e)" style="fill: none; stroke: #ffffff; stroke-linecap: round"/>
     </g>
     <g id="text_17">
      <!-- 250 -->
      <g style="fill: #262626" transform="translate(566.542883 400.336391) scale(0.231 -0.231)">
       <use xlink:href="#DejaVuSans-32"/>
       <use xlink:href="#DejaVuSans-35" x="63.623047"/>
       <use xlink:href="#DejaVuSans-30" x="127.246094"/>
      </g>
     </g>
    </g>
    <g id="xtick_19">
     <g id="line2d_51">
      <path d="M 680.700935 373.284 
L 680.700935 259.471409 
" clip-path="url(#p21eb0fc26e)" style="fill: none; stroke: #ffffff; stroke-linecap: round"/>
     </g>
     <g id="text_18">
      <!-- 500 -->
      <g style="fill: #262626" transform="translate(658.654872 400.336391) scale(0.231 -0.231)">
       <use xlink:href="#DejaVuSans-35"/>
       <use xlink:href="#DejaVuSans-30" x="63.623047"/>
       <use xlink:href="#DejaVuSans-30" x="127.246094"/>
      </g>
     </g>
    </g>
    <g id="xtick_20">
     <g id="line2d_52">
      <path d="M 772.812924 373.284 
L 772.812924 259.471409 
" clip-path="url(#p21eb0fc26e)" style="fill: none; stroke: #ffffff; stroke-linecap: round"/>
     </g>
     <g id="text_19">
      <!-- 750 -->
      <g style="fill: #262626" transform="translate(750.766861 400.336391) scale(0.231 -0.231)">
       <use xlink:href="#DejaVuSans-37"/>
       <use xlink:href="#DejaVuSans-35" x="63.623047"/>
       <use xlink:href="#DejaVuSans-30" x="127.246094"/>
      </g>
     </g>
    </g>
    <g id="text_20">
     <!-- step -->
     <g style="fill: #262626" transform="translate(603.520862 428.288531) scale(0.252 -0.252)">
      <use xlink:href="#DejaVuSans-73"/>
      <use xlink:href="#DejaVuSans-74" x="52.099609"/>
      <use xlink:href="#DejaVuSans-65" x="91.308594"/>
      <use xlink:href="#DejaVuSans-70" x="152.832031"/>
     </g>
    </g>
   </g>
   <g id="matplotlib.axis_10">
    <g id="ytick_9">
     <g id="line2d_53">
      <path d="M 483.047028 371.225051 
L 778.505445 371.225051 
" clip-path="url(#p21eb0fc26e)" style="fill: none; stroke: #ffffff; stroke-linecap: round"/>
     </g>
    </g>
    <g id="ytick_10">
     <g id="line2d_54">
      <path d="M 483.047028 286.378104 
L 778.505445 286.378104 
" clip-path="url(#p21eb0fc26e)" style="fill: none; stroke: #ffffff; stroke-linecap: round"/>
     </g>
    </g>
   </g>
   <g id="PolyCollection_25"/>
   <g id="PolyCollection_26"/>
   <g id="PolyCollection_27"/>
   <g id="PolyCollection_28"/>
   <g id="PolyCollection_29"/>
   <g id="PolyCollection_30"/>
   <g id="line2d_55">
    <path d="M 496.476956 286.378104 
L 496.845404 290.673104 
L 497.5823 290.829229 
L 501.635228 290.65001 
L 502.003676 290.539979 
L 502.372124 290.928869 
L 502.740572 291.945373 
L 510.109531 319.448438 
L 512.688667 327.720457 
L 515.267802 335.220961 
L 517.47849 341.036747 
L 519.689178 346.27103 
L 521.899865 350.922023 
L 524.110553 354.994292 
L 525.952793 357.962017 
L 527.795033 360.544386 
L 529.637273 362.742231 
L 531.479512 364.558312 
L 532.953304 365.738496 
L 534.427096 366.677939 
L 535.900888 367.379096 
L 537.37468 367.84482 
L 538.848471 368.077661 
L 540.322263 368.087863 
L 541.796055 367.879079 
L 543.269847 367.462473 
L 545.112087 366.669405 
L 546.954327 365.596818 
L 548.796566 364.267536 
L 551.007254 362.358001 
L 553.217942 360.138029 
L 555.797077 357.207591 
L 558.744661 353.480279 
L 562.060693 348.900538 
L 566.11362 342.893693 
L 569.429652 337.842007 
L 573.114131 334.514873 
L 574.219475 333.853526 
L 576.430163 332.908926 
L 577.535507 332.599291 
L 580.851539 331.763075 
L 584.536018 330.580611 
L 586.746706 329.914392 
L 593.010321 327.879264 
L 605.537552 323.460302 
L 611.064271 321.404245 
L 616.59099 319.164591 
L 622.486158 316.521694 
L 629.486669 313.119384 
L 636.48718 309.442037 
L 646.066827 304.137526 
L 664.120777 293.982475 
L 670.015944 290.968483 
L 677.753351 287.385341 
L 682.174727 285.53022 
L 692.859717 281.268142 
L 697.281093 279.698671 
L 702.070916 278.217933 
L 711.282115 275.611758 
L 720.124866 273.334162 
L 729.336065 271.209515 
L 737.44192 269.580902 
L 746.284671 268.043054 
L 755.864318 266.614496 
L 765.075517 265.439029 
L 765.075517 265.439029 
" clip-path="url(#p21eb0fc26e)" style="fill: none; stroke: #4c72b0; stroke-opacity: 0.9; stroke-width: 3; stroke-linecap: round"/>
   </g>
   <g id="line2d_56">
    <path d="M 496.476956 286.378104 
L 496.845404 288.720621 
L 497.5823 288.837964 
L 501.26678 288.752327 
L 502.372124 288.750016 
L 502.740572 289.260682 
L 504.951259 294.389753 
L 508.267291 301.849395 
L 510.846427 307.096264 
L 513.425562 311.85152 
L 516.004698 316.117809 
L 518.215386 319.370535 
L 520.426074 322.246852 
L 522.636761 324.745342 
L 524.847449 326.871664 
L 527.058137 328.644436 
L 528.900377 329.846912 
L 530.742616 330.801341 
L 532.584856 331.511503 
L 534.427096 331.981708 
L 536.269336 332.215671 
L 538.111576 332.221136 
L 539.953815 332.011399 
L 541.796055 331.601409 
L 544.006743 330.868316 
L 546.217431 329.896993 
L 548.428118 328.706629 
L 551.007254 327.048662 
L 553.954838 324.837998 
L 556.902421 322.319322 
L 560.218453 319.175013 
L 565.008276 314.255333 
L 567.95586 311.344176 
L 568.324308 311.042874 
L 569.429652 310.638707 
L 572.008788 310.294566 
L 579.746195 310.287376 
L 584.16757 310.309409 
L 588.957394 310.506577 
L 592.273425 310.794573 
L 611.801167 313.123701 
L 624.696845 314.113801 
L 629.855117 314.316823 
L 635.381836 314.293333 
L 639.803212 314.063946 
L 644.224587 313.614707 
L 648.645963 312.936618 
L 653.067338 312.02702 
L 657.488714 310.879629 
L 661.541641 309.589275 
L 665.594569 308.077505 
L 670.015944 306.194269 
L 674.805768 303.909263 
L 679.964039 301.216835 
L 699.491781 290.412447 
L 702.070916 288.98979 
L 710.545219 285.179326 
L 725.651586 278.056207 
L 735.59968 274.007094 
L 742.968639 271.340738 
L 751.074495 268.667304 
L 758.811902 266.361529 
L 765.075517 264.644708 
L 765.075517 264.644708 
" clip-path="url(#p21eb0fc26e)" style="fill: none; stroke: #dd8452; stroke-opacity: 0.9; stroke-width: 3; stroke-linecap: round"/>
   </g>
   <g id="line2d_57">
    <path d="M 496.476956 286.378104 
L 496.845404 290.878601 
L 497.213852 291.10634 
L 498.319196 291.124897 
L 502.740572 290.884464 
L 503.477468 291.427141 
L 504.214364 292.22407 
L 506.056603 294.709474 
L 514.162458 306.364157 
L 517.110042 310.056924 
L 519.689178 312.950148 
L 522.268313 315.520197 
L 524.847449 317.769026 
L 527.426585 319.708444 
L 530.005721 321.349075 
L 532.216408 322.511467 
L 534.427096 323.45109 
L 536.637784 324.173076 
L 539.216919 324.761329 
L 541.796055 325.090196 
L 544.375191 325.18139 
L 546.954327 325.048231 
L 549.533462 324.720141 
L 552.481046 324.125843 
L 555.42863 323.320634 
L 558.744661 322.166438 
L 563.166037 320.347827 
L 568.324308 317.976746 
L 577.167059 313.856513 
L 580.483091 312.694951 
L 585.272914 311.321099 
L 600.010832 307.158222 
L 608.853583 304.36372 
L 625.065293 298.91599 
L 639.066316 294.333263 
L 648.645963 291.439547 
L 657.120266 289.111016 
L 665.226121 287.106571 
L 673.700424 285.24642 
L 682.543175 283.537765 
L 691.754374 281.99523 
L 702.070916 280.498965 
L 712.755907 279.173393 
L 724.546242 277.936763 
L 737.44192 276.814479 
L 751.074495 275.856675 
L 760.285693 275.411358 
L 765.075517 275.293845 
L 765.075517 275.293845 
" clip-path="url(#p21eb0fc26e)" style="fill: none; stroke: #55a868; stroke-opacity: 0.9; stroke-width: 3; stroke-linecap: round"/>
   </g>
   <g id="line2d_58">
    <path d="M 496.476956 286.378104 
L 496.845404 289.915121 
L 497.213852 290.098198 
L 498.319196 290.111995 
L 502.740572 289.952602 
L 503.477468 290.550461 
L 504.582811 291.837845 
L 507.161947 295.433441 
L 511.214875 301.14691 
L 514.530906 305.472177 
L 517.47849 308.913207 
L 520.057626 311.601004 
L 522.636761 313.998959 
L 525.215897 316.111156 
L 527.795033 317.926406 
L 530.374168 319.449815 
L 532.953304 320.692446 
L 535.163992 321.53387 
L 537.743128 322.263493 
L 540.322263 322.732784 
L 542.901399 322.959796 
L 545.480535 322.963554 
L 548.428118 322.719157 
L 551.375702 322.240731 
L 554.691734 321.453838 
L 558.007765 320.448345 
L 561.692245 319.110098 
L 566.11362 317.267306 
L 578.640851 311.907072 
L 582.32533 310.725429 
L 591.168081 308.179515 
L 610.695823 302.46597 
L 643.119243 292.54951 
L 653.435786 289.744256 
L 662.646985 287.47652 
L 671.489736 285.536743 
L 680.332487 283.818442 
L 689.543686 282.254635 
L 699.123333 280.857771 
L 709.808323 279.531834 
L 721.598658 278.291447 
L 734.862784 277.123806 
L 748.863807 276.113821 
L 762.127933 275.376151 
L 765.075517 275.25061 
L 765.075517 275.25061 
" clip-path="url(#p21eb0fc26e)" style="fill: none; stroke: #c44e52; stroke-opacity: 0.9; stroke-width: 3; stroke-linecap: round"/>
   </g>
   <g id="line2d_59">
    <path d="M 496.476956 286.378104 
L 496.845404 290.501491 
L 497.213852 290.665375 
L 498.687644 290.620592 
L 503.845916 290.372024 
L 504.582811 290.733811 
L 505.319707 291.324978 
L 506.425051 292.619824 
L 510.109531 297.074601 
L 512.688667 299.893278 
L 514.899354 302.003291 
L 517.47849 304.138797 
L 520.057626 305.943588 
L 522.268313 307.233386 
L 524.479001 308.285535 
L 527.058137 309.262573 
L 530.005721 310.119677 
L 534.058648 311.043637 
L 537.006232 311.46081 
L 541.059159 311.772371 
L 544.006743 311.775903 
L 546.585879 311.574007 
L 549.533462 311.094616 
L 552.481046 310.394154 
L 555.797077 309.36374 
L 560.586901 307.589753 
L 569.429652 304.216644 
L 574.587923 302.746407 
L 578.272403 301.864194 
L 579.746195 301.734648 
L 581.956882 301.761978 
L 586.746706 302.096818 
L 590.062737 302.606889 
L 594.115665 303.106826 
L 602.958416 303.796777 
L 609.590479 304.165095 
L 616.959438 304.311851 
L 626.170637 304.23738 
L 630.960461 303.945006 
L 636.118732 303.415887 
L 640.540108 302.740823 
L 645.698379 301.70763 
L 652.69889 300.054274 
L 662.646985 297.696931 
L 668.9106 296.563379 
L 674.068872 295.874425 
L 677.753351 295.558392 
L 680.700935 295.48828 
L 687.701446 295.35157 
L 721.967106 294.370681 
L 731.546753 294.496389 
L 741.1264 295.024636 
L 765.075517 296.560816 
L 765.075517 296.560816 
" clip-path="url(#p21eb0fc26e)" style="fill: none; stroke: #8172b3; stroke-opacity: 0.9; stroke-width: 3; stroke-linecap: round"/>
   </g>
   <g id="line2d_60">
    <path d="M 496.476956 286.378104 
L 496.845404 289.686773 
L 497.5823 289.80558 
L 502.372124 289.566206 
L 503.845916 289.543434 
L 504.582811 289.733531 
L 505.688155 290.543192 
L 513.057114 297.563939 
L 515.63625 299.557304 
L 518.583834 301.520214 
L 521.531418 303.228374 
L 524.479001 304.675244 
L 527.795033 306.055308 
L 532.216408 307.62317 
L 535.163992 308.441766 
L 538.111576 309.035686 
L 541.059159 309.404393 
L 544.375191 309.564638 
L 546.954327 309.467518 
L 549.90191 309.127135 
L 552.849494 308.566952 
L 556.165525 307.708527 
L 559.481557 306.644358 
L 567.587412 303.852416 
L 570.903444 303.085968 
L 582.693778 301.253089 
L 591.168081 300.112112 
L 599.273936 299.392524 
L 607.011343 298.83403 
L 618.801678 297.676243 
L 626.907533 296.513378 
L 632.434252 295.814294 
L 637.592524 295.458473 
L 659.699401 294.744347 
L 663.015433 294.327067 
L 668.9106 293.313175 
L 679.595591 291.507126 
L 681.437831 291.425104 
L 686.96455 291.523151 
L 695.070405 291.606982 
L 702.807812 291.463239 
L 711.282115 291.075189 
L 716.808835 290.86101 
L 720.493314 290.931108 
L 727.125377 291.27846 
L 735.231232 291.974722 
L 747.390015 293.286692 
L 760.285693 294.725139 
L 765.075517 295.150235 
L 765.075517 295.150235 
" clip-path="url(#p21eb0fc26e)" style="fill: none; stroke: #937860; stroke-opacity: 0.9; stroke-width: 3; stroke-linecap: round"/>
   </g>
   <g id="patch_15">
    <path d="M 483.047028 373.284 
L 483.047028 259.471409 
" style="fill: none; stroke: #ffffff; stroke-width: 1.25; stroke-linejoin: miter; stroke-linecap: square"/>
   </g>
   <g id="patch_16">
    <path d="M 483.047028 373.284 
L 778.505445 373.284 
" style="fill: none; stroke: #ffffff; stroke-width: 1.25; stroke-linejoin: miter; stroke-linecap: square"/>
   </g>
   <g id="text_21">
    <!-- 0.999~30 -->
    <g style="fill: #262626" transform="translate(568.112893 253.471409) scale(0.252 -0.252)">
     <defs>
      <path id="DejaVuSans-39" d="M 703 97 
L 703 672 
Q 941 559 1184 500 
Q 1428 441 1663 441 
Q 2288 441 2617 861 
Q 2947 1281 2994 2138 
Q 2813 1869 2534 1725 
Q 2256 1581 1919 1581 
Q 1219 1581 811 2004 
Q 403 2428 403 3163 
Q 403 3881 828 4315 
Q 1253 4750 1959 4750 
Q 2769 4750 3195 4129 
Q 3622 3509 3622 2328 
Q 3622 1225 3098 567 
Q 2575 -91 1691 -91 
Q 1453 -91 1209 -44 
Q 966 3 703 97 
z
M 1959 2075 
Q 2384 2075 2632 2365 
Q 2881 2656 2881 3163 
Q 2881 3666 2632 3958 
Q 2384 4250 1959 4250 
Q 1534 4250 1286 3958 
Q 1038 3666 1038 3163 
Q 1038 2656 1286 2365 
Q 1534 2075 1959 2075 
z
" transform="scale(0.015625)"/>
     </defs>
     <use xlink:href="#DejaVuSans-30"/>
     <use xlink:href="#DejaVuSans-2e" x="63.623047"/>
     <use xlink:href="#DejaVuSans-39" x="95.410156"/>
     <use xlink:href="#DejaVuSans-39" x="159.033203"/>
     <use xlink:href="#DejaVuSans-39" x="222.65625"/>
     <use xlink:href="#DejaVuSans-7e" x="286.279297"/>
     <use xlink:href="#DejaVuSans-33" x="370.068359"/>
     <use xlink:href="#DejaVuSans-30" x="433.691406"/>
    </g>
   </g>
  </g>
  <g id="axes_6">
   <g id="patch_17">
    <path d="M 805.151157 373.284 
L 1100.609573 373.284 
L 1100.609573 259.471409 
L 805.151157 259.471409 
z
" style="fill: #eaeaf2"/>
   </g>
   <g id="matplotlib.axis_11">
    <g id="xtick_21">
     <g id="line2d_61">
      <path d="M 818.581085 373.284 
L 818.581085 259.471409 
" clip-path="url(#pccc2c79b17)" style="fill: none; stroke: #ffffff; stroke-linecap: round"/>
     </g>
     <g id="text_22">
      <!-- 0 -->
      <g style="fill: #262626" transform="translate(811.232397 400.336391) scale(0.231 -0.231)">
       <use xlink:href="#DejaVuSans-30"/>
      </g>
     </g>
    </g>
    <g id="xtick_22">
     <g id="line2d_62">
      <path d="M 910.693074 373.284 
L 910.693074 259.471409 
" clip-path="url(#pccc2c79b17)" style="fill: none; stroke: #ffffff; stroke-linecap: round"/>
     </g>
     <g id="text_23">
      <!-- 250 -->
      <g style="fill: #262626" transform="translate(888.647012 400.336391) scale(0.231 -0.231)">
       <use xlink:href="#DejaVuSans-32"/>
       <use xlink:href="#DejaVuSans-35" x="63.623047"/>
       <use xlink:href="#DejaVuSans-30" x="127.246094"/>
      </g>
     </g>
    </g>
    <g id="xtick_23">
     <g id="line2d_63">
      <path d="M 1002.805063 373.284 
L 1002.805063 259.471409 
" clip-path="url(#pccc2c79b17)" style="fill: none; stroke: #ffffff; stroke-linecap: round"/>
     </g>
     <g id="text_24">
      <!-- 500 -->
      <g style="fill: #262626" transform="translate(980.759001 400.336391) scale(0.231 -0.231)">
       <use xlink:href="#DejaVuSans-35"/>
       <use xlink:href="#DejaVuSans-30" x="63.623047"/>
       <use xlink:href="#DejaVuSans-30" x="127.246094"/>
      </g>
     </g>
    </g>
    <g id="xtick_24">
     <g id="line2d_64">
      <path d="M 1094.917053 373.284 
L 1094.917053 259.471409 
" clip-path="url(#pccc2c79b17)" style="fill: none; stroke: #ffffff; stroke-linecap: round"/>
     </g>
     <g id="text_25">
      <!-- 750 -->
      <g style="fill: #262626" transform="translate(1072.87099 400.336391) scale(0.231 -0.231)">
       <use xlink:href="#DejaVuSans-37"/>
       <use xlink:href="#DejaVuSans-35" x="63.623047"/>
       <use xlink:href="#DejaVuSans-30" x="127.246094"/>
      </g>
     </g>
    </g>
    <g id="text_26">
     <!-- step -->
     <g style="fill: #262626" transform="translate(925.62499 428.288531) scale(0.252 -0.252)">
      <use xlink:href="#DejaVuSans-73"/>
      <use xlink:href="#DejaVuSans-74" x="52.099609"/>
      <use xlink:href="#DejaVuSans-65" x="91.308594"/>
      <use xlink:href="#DejaVuSans-70" x="152.832031"/>
     </g>
    </g>
   </g>
   <g id="matplotlib.axis_12">
    <g id="ytick_11">
     <g id="line2d_65">
      <path d="M 805.151157 371.225051 
L 1100.609573 371.225051 
" clip-path="url(#pccc2c79b17)" style="fill: none; stroke: #ffffff; stroke-linecap: round"/>
     </g>
    </g>
    <g id="ytick_12">
     <g id="line2d_66">
      <path d="M 805.151157 286.378104 
L 1100.609573 286.378104 
" clip-path="url(#pccc2c79b17)" style="fill: none; stroke: #ffffff; stroke-linecap: round"/>
     </g>
    </g>
   </g>
   <g id="PolyCollection_31"/>
   <g id="PolyCollection_32"/>
   <g id="PolyCollection_33"/>
   <g id="PolyCollection_34"/>
   <g id="PolyCollection_35"/>
   <g id="line2d_67">
    <path d="M 818.581085 286.378104 
L 818.949533 288.720621 
L 819.686429 288.855368 
L 823.370908 288.867105 
L 824.476252 288.911717 
L 824.8447 289.424085 
L 826.68694 293.834436 
L 830.002972 301.366347 
L 832.950555 307.507984 
L 835.898139 313.121739 
L 838.845723 318.227189 
L 841.424858 322.29492 
L 844.003994 325.993831 
L 846.58313 329.336288 
L 849.162265 332.347344 
L 851.741401 335.025269 
L 854.320537 337.382622 
L 856.899672 339.43076 
L 859.478808 341.182146 
L 862.057944 342.650031 
L 864.63708 343.847634 
L 867.216215 344.787098 
L 869.795351 345.473255 
L 872.374487 345.91863 
L 874.953622 346.137112 
L 877.532758 346.143557 
L 880.111894 345.95049 
L 883.059477 345.493668 
L 886.007061 344.802279 
L 889.323093 343.770802 
L 892.639124 342.500948 
L 895.955156 340.96788 
L 899.271187 339.192405 
L 903.324115 336.750105 
L 908.113938 333.574833 
L 914.746002 329.126563 
L 917.693585 327.367869 
L 919.167377 326.883404 
L 921.378065 326.507246 
L 928.010128 325.706717 
L 937.589775 325.142271 
L 942.748046 324.532842 
L 949.38011 323.496172 
L 959.328204 321.92658 
L 966.328716 321.193664 
L 973.697675 320.740369 
L 995.067656 319.863264 
L 1005.384199 319.190571 
L 1015.700742 318.292629 
L 1026.754181 317.100185 
L 1039.281411 315.515308 
L 1055.124673 313.272354 
L 1076.494655 310.00923 
L 1087.179645 308.318774 
L 1087.179645 308.318774 
" clip-path="url(#pccc2c79b17)" style="fill: none; stroke: #dd8452; stroke-opacity: 0.9; stroke-width: 3; stroke-linecap: round"/>
   </g>
   <g id="line2d_68">
    <path d="M 818.581085 286.378104 
L 818.949533 290.878601 
L 819.317981 291.124355 
L 820.423325 291.207123 
L 824.8447 291.290858 
L 825.581596 291.888898 
L 826.68694 293.172972 
L 828.897628 296.251402 
L 836.266587 306.857991 
L 839.951066 311.634976 
L 843.267098 315.551341 
L 846.214682 318.729244 
L 849.162265 321.608057 
L 852.109849 324.197251 
L 855.057433 326.514001 
L 858.373464 328.820033 
L 861.321048 330.599213 
L 864.268632 332.125865 
L 867.216215 333.420045 
L 870.163799 334.492199 
L 873.479831 335.447233 
L 876.795862 336.142407 
L 880.111894 336.582553 
L 883.427925 336.776279 
L 886.743957 336.745405 
L 890.428437 336.478256 
L 894.112916 335.965595 
L 897.797396 335.228602 
L 901.850323 334.194769 
L 906.640147 332.722791 
L 912.535314 330.660627 
L 922.114961 327.031521 
L 933.905295 322.364914 
L 943.484942 318.614306 
L 951.959245 315.590506 
L 962.644236 312.025551 
L 975.539915 307.973966 
L 988.804041 304.03438 
L 1000.594376 300.753784 
L 1012.016262 297.807795 
L 1021.595909 295.569177 
L 1030.070212 293.81564 
L 1038.912963 292.218325 
L 1048.124162 290.78957 
L 1058.072257 289.477101 
L 1069.125696 288.256026 
L 1081.652926 287.102015 
L 1087.179645 286.65844 
L 1087.179645 286.65844 
" clip-path="url(#pccc2c79b17)" style="fill: none; stroke: #55a868; stroke-opacity: 0.9; stroke-width: 3; stroke-linecap: round"/>
   </g>
   <g id="line2d_69">
    <path d="M 818.581085 286.378104 
L 818.949533 289.915121 
L 819.317981 290.112459 
L 820.423325 290.177343 
L 824.8447 290.281572 
L 825.581596 290.903463 
L 827.055388 292.695077 
L 830.739868 297.871064 
L 834.424347 302.946617 
L 838.108827 307.667358 
L 841.424858 311.561559 
L 844.74089 315.086723 
L 848.056921 318.260854 
L 851.372953 321.10031 
L 854.688985 323.626607 
L 857.636568 325.610036 
L 860.9526 327.559545 
L 864.268632 329.229319 
L 867.584663 330.624403 
L 870.900695 331.756896 
L 874.216726 332.638726 
L 877.532758 333.281246 
L 880.84879 333.695706 
L 884.164821 333.88403 
L 887.480853 333.85984 
L 891.165332 333.602069 
L 894.849812 333.129962 
L 898.90274 332.377871 
L 902.955667 331.401968 
L 907.74549 330.01612 
L 913.27221 328.174436 
L 920.641169 325.47464 
L 933.905295 320.348778 
L 943.85339 316.574998 
L 951.959245 313.731109 
L 961.538892 310.580448 
L 973.329227 306.959296 
L 984.382665 303.787254 
L 996.173 300.634652 
L 1007.594887 297.807926 
L 1017.91143 295.491134 
L 1026.754181 293.724454 
L 1035.596931 292.181341 
L 1044.439682 290.861207 
L 1054.387777 289.601568 
L 1065.809664 288.384198 
L 1078.705342 287.23868 
L 1087.179645 286.592801 
L 1087.179645 286.592801 
" clip-path="url(#pccc2c79b17)" style="fill: none; stroke: #c44e52; stroke-opacity: 0.9; stroke-width: 3; stroke-linecap: round"/>
   </g>
   <g id="line2d_70">
    <path d="M 818.581085 286.378104 
L 818.949533 290.501491 
L 819.317981 290.683898 
L 820.791773 290.718273 
L 825.581596 290.799269 
L 826.318492 290.95413 
L 827.055388 291.429023 
L 827.792284 292.076523 
L 829.266076 293.828678 
L 832.213659 297.430368 
L 836.635035 302.393713 
L 839.582618 305.294511 
L 842.530202 307.861901 
L 845.477786 310.127185 
L 848.425369 312.111237 
L 851.372953 313.826521 
L 854.320537 315.288496 
L 857.26812 316.51053 
L 860.215704 317.504261 
L 863.163288 318.282812 
L 866.479319 318.917986 
L 869.795351 319.313302 
L 873.111383 319.478245 
L 876.427414 319.42387 
L 880.111894 319.124614 
L 883.796373 318.592292 
L 887.480853 317.842355 
L 891.53378 316.778504 
L 895.955156 315.364902 
L 900.376531 313.72208 
L 910.324626 309.871493 
L 912.166866 309.627556 
L 915.11445 309.453447 
L 932.063056 309.264341 
L 941.274255 309.502495 
L 949.011662 310.037723 
L 964.486476 311.201919 
L 972.592331 311.541923 
L 980.698186 311.656026 
L 989.172489 311.548251 
L 998.383688 311.193849 
L 1008.700231 310.58866 
L 1020.122117 309.693006 
L 1033.386244 308.422503 
L 1049.966402 306.617259 
L 1058.440705 305.467773 
L 1068.757248 303.831552 
L 1087.179645 300.817364 
L 1087.179645 300.817364 
" clip-path="url(#pccc2c79b17)" style="fill: none; stroke: #8172b3; stroke-opacity: 0.9; stroke-width: 3; stroke-linecap: round"/>
   </g>
   <g id="line2d_71">
    <path d="M 818.581085 286.378104 
L 818.949533 289.686773 
L 819.686429 289.834884 
L 826.318492 289.98324 
L 827.055388 290.284348 
L 828.160732 291.136237 
L 831.108315 294.116132 
L 834.055899 296.92535 
L 837.371931 299.805143 
L 840.319514 302.102762 
L 843.267098 304.136668 
L 846.58313 306.136323 
L 849.899161 307.850019 
L 853.215193 309.296544 
L 856.531225 310.490948 
L 859.847256 311.446643 
L 863.163288 312.179059 
L 866.847767 312.750019 
L 870.532247 313.081459 
L 874.216726 313.190076 
L 877.901206 313.092853 
L 881.954134 312.75851 
L 886.375509 312.164355 
L 891.165332 311.296864 
L 895.955156 310.193905 
L 903.324115 308.202051 
L 908.482386 306.833414 
L 911.42997 306.195226 
L 914.377554 305.789662 
L 918.430481 305.610644 
L 939.800463 305.055202 
L 949.748558 304.429851 
L 961.538892 303.453744 
L 976.27681 301.999216 
L 988.435593 300.823246 
L 993.593864 300.544805 
L 1002.805063 300.225368 
L 1009.068679 300.157915 
L 1022.701253 300.016625 
L 1032.2809 299.635801 
L 1046.65037 298.825589 
L 1069.494143 297.516307 
L 1080.547582 296.943229 
L 1087.179645 296.472689 
L 1087.179645 296.472689 
" clip-path="url(#pccc2c79b17)" style="fill: none; stroke: #937860; stroke-opacity: 0.9; stroke-width: 3; stroke-linecap: round"/>
   </g>
   <g id="patch_18">
    <path d="M 805.151157 373.284 
L 805.151157 259.471409 
" style="fill: none; stroke: #ffffff; stroke-width: 1.25; stroke-linejoin: miter; stroke-linecap: square"/>
   </g>
   <g id="patch_19">
    <path d="M 805.151157 373.284 
L 1100.609573 373.284 
" style="fill: none; stroke: #ffffff; stroke-width: 1.25; stroke-linejoin: miter; stroke-linecap: square"/>
   </g>
   <g id="text_27">
    <!-- 0.999~365 -->
    <g style="fill: #262626" transform="translate(882.200271 253.471409) scale(0.252 -0.252)">
     <use xlink:href="#DejaVuSans-30"/>
     <use xlink:href="#DejaVuSans-2e" x="63.623047"/>
     <use xlink:href="#DejaVuSans-39" x="95.410156"/>
     <use xlink:href="#DejaVuSans-39" x="159.033203"/>
     <use xlink:href="#DejaVuSans-39" x="222.65625"/>
     <use xlink:href="#DejaVuSans-7e" x="286.279297"/>
     <use xlink:href="#DejaVuSans-33" x="370.068359"/>
     <use xlink:href="#DejaVuSans-36" x="433.691406"/>
     <use xlink:href="#DejaVuSans-35" x="497.314453"/>
    </g>
   </g>
  </g>
  <g id="text_28">
   <!-- Production change from pre-shock level -->
   <g style="fill: #262626" transform="translate(280.766836 30.177675) scale(0.3024 -0.3024)">
    <defs>
     <path id="DejaVuSans-50" d="M 1259 4147 
L 1259 2394 
L 2053 2394 
Q 2494 2394 2734 2622 
Q 2975 2850 2975 3272 
Q 2975 3691 2734 3919 
Q 2494 4147 2053 4147 
L 1259 4147 
z
M 628 4666 
L 2053 4666 
Q 2838 4666 3239 4311 
Q 3641 3956 3641 3272 
Q 3641 2581 3239 2228 
Q 2838 1875 2053 1875 
L 1259 1875 
L 1259 0 
L 628 0 
L 628 4666 
z
" transform="scale(0.015625)"/>
     <path id="DejaVuSans-72" d="M 2631 2963 
Q 2534 3019 2420 3045 
Q 2306 3072 2169 3072 
Q 1681 3072 1420 2755 
Q 1159 2438 1159 1844 
L 1159 0 
L 581 0 
L 581 3500 
L 1159 3500 
L 1159 2956 
Q 1341 3275 1631 3429 
Q 1922 3584 2338 3584 
Q 2397 3584 2469 3576 
Q 2541 3569 2628 3553 
L 2631 2963 
z
" transform="scale(0.015625)"/>
     <path id="DejaVuSans-6f" d="M 1959 3097 
Q 1497 3097 1228 2736 
Q 959 2375 959 1747 
Q 959 1119 1226 758 
Q 1494 397 1959 397 
Q 2419 397 2687 759 
Q 2956 1122 2956 1747 
Q 2956 2369 2687 2733 
Q 2419 3097 1959 3097 
z
M 1959 3584 
Q 2709 3584 3137 3096 
Q 3566 2609 3566 1747 
Q 3566 888 3137 398 
Q 2709 -91 1959 -91 
Q 1206 -91 779 398 
Q 353 888 353 1747 
Q 353 2609 779 3096 
Q 1206 3584 1959 3584 
z
" transform="scale(0.015625)"/>
     <path id="DejaVuSans-64" d="M 2906 2969 
L 2906 4863 
L 3481 4863 
L 3481 0 
L 2906 0 
L 2906 525 
Q 2725 213 2448 61 
Q 2172 -91 1784 -91 
Q 1150 -91 751 415 
Q 353 922 353 1747 
Q 353 2572 751 3078 
Q 1150 3584 1784 3584 
Q 2172 3584 2448 3432 
Q 2725 3281 2906 2969 
z
M 947 1747 
Q 947 1113 1208 752 
Q 1469 391 1925 391 
Q 2381 391 2643 752 
Q 2906 1113 2906 1747 
Q 2906 2381 2643 2742 
Q 2381 3103 1925 3103 
Q 1469 3103 1208 2742 
Q 947 2381 947 1747 
z
" transform="scale(0.015625)"/>
     <path id="DejaVuSans-75" d="M 544 1381 
L 544 3500 
L 1119 3500 
L 1119 1403 
Q 1119 906 1312 657 
Q 1506 409 1894 409 
Q 2359 409 2629 706 
Q 2900 1003 2900 1516 
L 2900 3500 
L 3475 3500 
L 3475 0 
L 2900 0 
L 2900 538 
Q 2691 219 2414 64 
Q 2138 -91 1772 -91 
Q 1169 -91 856 284 
Q 544 659 544 1381 
z
M 1991 3584 
L 1991 3584 
z
" transform="scale(0.015625)"/>
     <path id="DejaVuSans-69" d="M 603 3500 
L 1178 3500 
L 1178 0 
L 603 0 
L 603 3500 
z
M 603 4863 
L 1178 4863 
L 1178 4134 
L 603 4134 
L 603 4863 
z
" transform="scale(0.015625)"/>
     <path id="DejaVuSans-66" d="M 2375 4863 
L 2375 4384 
L 1825 4384 
Q 1516 4384 1395 4259 
Q 1275 4134 1275 3809 
L 1275 3500 
L 2222 3500 
L 2222 3053 
L 1275 3053 
L 1275 0 
L 697 0 
L 697 3053 
L 147 3053 
L 147 3500 
L 697 3500 
L 697 3744 
Q 697 4328 969 4595 
Q 1241 4863 1831 4863 
L 2375 4863 
z
" transform="scale(0.015625)"/>
     <path id="DejaVuSans-6d" d="M 3328 2828 
Q 3544 3216 3844 3400 
Q 4144 3584 4550 3584 
Q 5097 3584 5394 3201 
Q 5691 2819 5691 2113 
L 5691 0 
L 5113 0 
L 5113 2094 
Q 5113 2597 4934 2840 
Q 4756 3084 4391 3084 
Q 3944 3084 3684 2787 
Q 3425 2491 3425 1978 
L 3425 0 
L 2847 0 
L 2847 2094 
Q 2847 2600 2669 2842 
Q 2491 3084 2119 3084 
Q 1678 3084 1418 2786 
Q 1159 2488 1159 1978 
L 1159 0 
L 581 0 
L 581 3500 
L 1159 3500 
L 1159 2956 
Q 1356 3278 1631 3431 
Q 1906 3584 2284 3584 
Q 2666 3584 2933 3390 
Q 3200 3197 3328 2828 
z
" transform="scale(0.015625)"/>
     <path id="DejaVuSans-2d" d="M 313 2009 
L 1997 2009 
L 1997 1497 
L 313 1497 
L 313 2009 
z
" transform="scale(0.015625)"/>
     <path id="DejaVuSans-6b" d="M 581 4863 
L 1159 4863 
L 1159 1991 
L 2875 3500 
L 3609 3500 
L 1753 1863 
L 3688 0 
L 2938 0 
L 1159 1709 
L 1159 0 
L 581 0 
L 581 4863 
z
" transform="scale(0.015625)"/>
     <path id="DejaVuSans-6c" d="M 603 4863 
L 1178 4863 
L 1178 0 
L 603 0 
L 603 4863 
z
" transform="scale(0.015625)"/>
     <path id="DejaVuSans-76" d="M 191 3500 
L 800 3500 
L 1894 563 
L 2988 3500 
L 3597 3500 
L 2284 0 
L 1503 0 
L 191 3500 
z
" transform="scale(0.015625)"/>
    </defs>
    <use xlink:href="#DejaVuSans-50"/>
    <use xlink:href="#DejaVuSans-72" x="58.552734"/>
    <use xlink:href="#DejaVuSans-6f" x="97.416016"/>
    <use xlink:href="#DejaVuSans-64" x="158.597656"/>
    <use xlink:href="#DejaVuSans-75" x="222.074219"/>
    <use xlink:href="#DejaVuSans-63" x="285.453125"/>
    <use xlink:href="#DejaVuSans-74" x="340.433594"/>
    <use xlink:href="#DejaVuSans-69" x="379.642578"/>
    <use xlink:href="#DejaVuSans-6f" x="407.425781"/>
    <use xlink:href="#DejaVuSans-6e" x="468.607422"/>
    <use xlink:href="#DejaVuSans-20" x="531.986328"/>
    <use xlink:href="#DejaVuSans-63" x="563.773438"/>
    <use xlink:href="#DejaVuSans-68" x="618.753906"/>
    <use xlink:href="#DejaVuSans-61" x="682.132812"/>
    <use xlink:href="#DejaVuSans-6e" x="743.412109"/>
    <use xlink:href="#DejaVuSans-67" x="806.791016"/>
    <use xlink:href="#DejaVuSans-65" x="870.267578"/>
    <use xlink:href="#DejaVuSans-20" x="931.791016"/>
    <use xlink:href="#DejaVuSans-66" x="963.578125"/>
    <use xlink:href="#DejaVuSans-72" x="998.783203"/>
    <use xlink:href="#DejaVuSans-6f" x="1037.646484"/>
    <use xlink:href="#DejaVuSans-6d" x="1098.828125"/>
    <use xlink:href="#DejaVuSans-20" x="1196.240234"/>
    <use xlink:href="#DejaVuSans-70" x="1228.027344"/>
    <use xlink:href="#DejaVuSans-72" x="1291.503906"/>
    <use xlink:href="#DejaVuSans-65" x="1330.367188"/>
    <use xlink:href="#DejaVuSans-2d" x="1391.890625"/>
    <use xlink:href="#DejaVuSans-73" x="1427.974609"/>
    <use xlink:href="#DejaVuSans-68" x="1480.074219"/>
    <use xlink:href="#DejaVuSans-6f" x="1543.453125"/>
    <use xlink:href="#DejaVuSans-63" x="1604.634766"/>
    <use xlink:href="#DejaVuSans-6b" x="1659.615234"/>
    <use xlink:href="#DejaVuSans-20" x="1717.525391"/>
    <use xlink:href="#DejaVuSans-6c" x="1749.3125"/>
    <use xlink:href="#DejaVuSans-65" x="1777.095703"/>
    <use xlink:href="#DejaVuSans-76" x="1838.619141"/>
    <use xlink:href="#DejaVuSans-65" x="1897.798828"/>
    <use xlink:href="#DejaVuSans-6c" x="1959.322266"/>
   </g>
  </g>
  <g id="legend_1">
   <g id="patch_20">
    <path d="M 11.82 584.31675 
L 1292.617547 584.31675 
Q 1297.237547 584.31675 1297.237547 579.69675 
L 1297.237547 476.97 
Q 1297.237547 472.35 1292.617547 472.35 
L 11.82 472.35 
Q 7.2 472.35 7.2 476.97 
L 7.2 579.69675 
Q 7.2 584.31675 11.82 584.31675 
z
" style="fill: #eaeaf2; opacity: 0.8; stroke: #cccccc; stroke-linejoin: miter"/>
   </g>
   <g id="text_29">
    <!-- Experiences -->
    <g style="fill: #262626" transform="translate(575.384367 500.738062) scale(0.252 -0.252)">
     <defs>
      <path id="DejaVuSans-45" d="M 628 4666 
L 3578 4666 
L 3578 4134 
L 1259 4134 
L 1259 2753 
L 3481 2753 
L 3481 2222 
L 1259 2222 
L 1259 531 
L 3634 531 
L 3634 0 
L 628 0 
L 628 4666 
z
" transform="scale(0.015625)"/>
      <path id="DejaVuSans-78" d="M 3513 3500 
L 2247 1797 
L 3578 0 
L 2900 0 
L 1881 1375 
L 863 0 
L 184 0 
L 1544 1831 
L 300 3500 
L 978 3500 
L 1906 2253 
L 2834 3500 
L 3513 3500 
z
" transform="scale(0.015625)"/>
     </defs>
     <use xlink:href="#DejaVuSans-45"/>
     <use xlink:href="#DejaVuSans-78" x="63.183594"/>
     <use xlink:href="#DejaVuSans-70" x="122.363281"/>
     <use xlink:href="#DejaVuSans-65" x="185.839844"/>
     <use xlink:href="#DejaVuSans-72" x="247.363281"/>
     <use xlink:href="#DejaVuSans-69" x="288.476562"/>
     <use xlink:href="#DejaVuSans-65" x="316.259766"/>
     <use xlink:href="#DejaVuSans-6e" x="377.783203"/>
     <use xlink:href="#DejaVuSans-63" x="441.162109"/>
     <use xlink:href="#DejaVuSans-65" x="496.142578"/>
     <use xlink:href="#DejaVuSans-73" x="557.666016"/>
    </g>
   </g>
   <g id="line2d_72">
    <path d="M 16.44 526.996266 
L 39.54 526.996266 
L 62.64 526.996266 
" style="fill: none; stroke: #4c72b0; stroke-opacity: 0.9; stroke-width: 3; stroke-linecap: round"/>
   </g>
   <g id="text_30">
    <!-- eora26_full_2000 -->
    <g style="fill: #262626" transform="translate(81.12 535.081266) scale(0.231 -0.231)">
     <defs>
      <path id="DejaVuSans-5f" d="M 3263 -1063 
L 3263 -1509 
L -63 -1509 
L -63 -1063 
L 3263 -1063 
z
" transform="scale(0.015625)"/>
     </defs>
     <use xlink:href="#DejaVuSans-65"/>
     <use xlink:href="#DejaVuSans-6f" x="61.523438"/>
     <use xlink:href="#DejaVuSans-72" x="122.705078"/>
     <use xlink:href="#DejaVuSans-61" x="163.818359"/>
     <use xlink:href="#DejaVuSans-32" x="225.097656"/>
     <use xlink:href="#DejaVuSans-36" x="288.720703"/>
     <use xlink:href="#DejaVuSans-5f" x="352.34375"/>
     <use xlink:href="#DejaVuSans-66" x="402.34375"/>
     <use xlink:href="#DejaVuSans-75" x="437.548828"/>
     <use xlink:href="#DejaVuSans-6c" x="500.927734"/>
     <use xlink:href="#DejaVuSans-6c" x="528.710938"/>
     <use xlink:href="#DejaVuSans-5f" x="556.494141"/>
     <use xlink:href="#DejaVuSans-32" x="606.494141"/>
     <use xlink:href="#DejaVuSans-30" x="670.117188"/>
     <use xlink:href="#DejaVuSans-30" x="733.740234"/>
     <use xlink:href="#DejaVuSans-30" x="797.363281"/>
    </g>
   </g>
   <g id="line2d_73">
    <path d="M 16.44 561.545203 
L 39.54 561.545203 
L 62.64 561.545203 
" style="fill: none; stroke: #dd8452; stroke-opacity: 0.9; stroke-width: 3; stroke-linecap: round"/>
   </g>
   <g id="text_31">
    <!-- eora26_full_2010 -->
    <g style="fill: #262626" transform="translate(81.12 569.630203) scale(0.231 -0.231)">
     <use xlink:href="#DejaVuSans-65"/>
     <use xlink:href="#DejaVuSans-6f" x="61.523438"/>
     <use xlink:href="#DejaVuSans-72" x="122.705078"/>
     <use xlink:href="#DejaVuSans-61" x="163.818359"/>
     <use xlink:href="#DejaVuSans-32" x="225.097656"/>
     <use xlink:href="#DejaVuSans-36" x="288.720703"/>
     <use xlink:href="#DejaVuSans-5f" x="352.34375"/>
     <use xlink:href="#DejaVuSans-66" x="402.34375"/>
     <use xlink:href="#DejaVuSans-75" x="437.548828"/>
     <use xlink:href="#DejaVuSans-6c" x="500.927734"/>
     <use xlink:href="#DejaVuSans-6c" x="528.710938"/>
     <use xlink:href="#DejaVuSans-5f" x="556.494141"/>
     <use xlink:href="#DejaVuSans-32" x="606.494141"/>
     <use xlink:href="#DejaVuSans-30" x="670.117188"/>
     <use xlink:href="#DejaVuSans-31" x="733.740234"/>
     <use xlink:href="#DejaVuSans-30" x="797.363281"/>
    </g>
   </g>
   <g id="line2d_74">
    <path d="M 326.211 526.996266 
L 349.311 526.996266 
L 372.411 526.996266 
" style="fill: none; stroke: #55a868; stroke-opacity: 0.9; stroke-width: 3; stroke-linecap: round"/>
   </g>
   <g id="text_32">
    <!-- euregio_full_2000 -->
    <g style="fill: #262626" transform="translate(390.891 535.081266) scale(0.231 -0.231)">
     <use xlink:href="#DejaVuSans-65"/>
     <use xlink:href="#DejaVuSans-75" x="61.523438"/>
     <use xlink:href="#DejaVuSans-72" x="124.902344"/>
     <use xlink:href="#DejaVuSans-65" x="163.765625"/>
     <use xlink:href="#DejaVuSans-67" x="225.289062"/>
     <use xlink:href="#DejaVuSans-69" x="288.765625"/>
     <use xlink:href="#DejaVuSans-6f" x="316.548828"/>
     <use xlink:href="#DejaVuSans-5f" x="377.730469"/>
     <use xlink:href="#DejaVuSans-66" x="427.730469"/>
     <use xlink:href="#DejaVuSans-75" x="462.935547"/>
     <use xlink:href="#DejaVuSans-6c" x="526.314453"/>
     <use xlink:href="#DejaVuSans-6c" x="554.097656"/>
     <use xlink:href="#DejaVuSans-5f" x="581.880859"/>
     <use xlink:href="#DejaVuSans-32" x="631.880859"/>
     <use xlink:href="#DejaVuSans-30" x="695.503906"/>
     <use xlink:href="#DejaVuSans-30" x="759.126953"/>
     <use xlink:href="#DejaVuSans-30" x="822.75"/>
    </g>
   </g>
   <g id="line2d_75">
    <path d="M 326.211 561.545203 
L 349.311 561.545203 
L 372.411 561.545203 
" style="fill: none; stroke: #c44e52; stroke-opacity: 0.9; stroke-width: 3; stroke-linecap: round"/>
   </g>
   <g id="text_33">
    <!-- euregio_full_2010 -->
    <g style="fill: #262626" transform="translate(390.891 569.630203) scale(0.231 -0.231)">
     <use xlink:href="#DejaVuSans-65"/>
     <use xlink:href="#DejaVuSans-75" x="61.523438"/>
     <use xlink:href="#DejaVuSans-72" x="124.902344"/>
     <use xlink:href="#DejaVuSans-65" x="163.765625"/>
     <use xlink:href="#DejaVuSans-67" x="225.289062"/>
     <use xlink:href="#DejaVuSans-69" x="288.765625"/>
     <use xlink:href="#DejaVuSans-6f" x="316.548828"/>
     <use xlink:href="#DejaVuSans-5f" x="377.730469"/>
     <use xlink:href="#DejaVuSans-66" x="427.730469"/>
     <use xlink:href="#DejaVuSans-75" x="462.935547"/>
     <use xlink:href="#DejaVuSans-6c" x="526.314453"/>
     <use xlink:href="#DejaVuSans-6c" x="554.097656"/>
     <use xlink:href="#DejaVuSans-5f" x="581.880859"/>
     <use xlink:href="#DejaVuSans-32" x="631.880859"/>
     <use xlink:href="#DejaVuSans-30" x="695.503906"/>
     <use xlink:href="#DejaVuSans-31" x="759.126953"/>
     <use xlink:href="#DejaVuSans-30" x="822.75"/>
    </g>
   </g>
   <g id="line2d_76">
    <path d="M 641.847234 526.996266 
L 664.947234 526.996266 
L 688.047234 526.996266 
" style="fill: none; stroke: #8172b3; stroke-opacity: 0.9; stroke-width: 3; stroke-linecap: round"/>
   </g>
   <g id="text_34">
    <!-- exiobase3_full_2000 -->
    <g style="fill: #262626" transform="translate(706.527234 535.081266) scale(0.231 -0.231)">
     <defs>
      <path id="DejaVuSans-62" d="M 3116 1747 
Q 3116 2381 2855 2742 
Q 2594 3103 2138 3103 
Q 1681 3103 1420 2742 
Q 1159 2381 1159 1747 
Q 1159 1113 1420 752 
Q 1681 391 2138 391 
Q 2594 391 2855 752 
Q 3116 1113 3116 1747 
z
M 1159 2969 
Q 1341 3281 1617 3432 
Q 1894 3584 2278 3584 
Q 2916 3584 3314 3078 
Q 3713 2572 3713 1747 
Q 3713 922 3314 415 
Q 2916 -91 2278 -91 
Q 1894 -91 1617 61 
Q 1341 213 1159 525 
L 1159 0 
L 581 0 
L 581 4863 
L 1159 4863 
L 1159 2969 
z
" transform="scale(0.015625)"/>
     </defs>
     <use xlink:href="#DejaVuSans-65"/>
     <use xlink:href="#DejaVuSans-78" x="59.773438"/>
     <use xlink:href="#DejaVuSans-69" x="118.953125"/>
     <use xlink:href="#DejaVuSans-6f" x="146.736328"/>
     <use xlink:href="#DejaVuSans-62" x="207.917969"/>
     <use xlink:href="#DejaVuSans-61" x="271.394531"/>
     <use xlink:href="#DejaVuSans-73" x="332.673828"/>
     <use xlink:href="#DejaVuSans-65" x="384.773438"/>
     <use xlink:href="#DejaVuSans-33" x="446.296875"/>
     <use xlink:href="#DejaVuSans-5f" x="509.919922"/>
     <use xlink:href="#DejaVuSans-66" x="559.919922"/>
     <use xlink:href="#DejaVuSans-75" x="595.125"/>
     <use xlink:href="#DejaVuSans-6c" x="658.503906"/>
     <use xlink:href="#DejaVuSans-6c" x="686.287109"/>
     <use xlink:href="#DejaVuSans-5f" x="714.070312"/>
     <use xlink:href="#DejaVuSans-32" x="764.070312"/>
     <use xlink:href="#DejaVuSans-30" x="827.693359"/>
     <use xlink:href="#DejaVuSans-30" x="891.316406"/>
     <use xlink:href="#DejaVuSans-30" x="954.939453"/>
    </g>
   </g>
   <g id="line2d_77">
    <path d="M 988.022391 526.996266 
L 1011.122391 526.996266 
L 1034.222391 526.996266 
" style="fill: none; stroke: #937860; stroke-opacity: 0.9; stroke-width: 3; stroke-linecap: round"/>
   </g>
   <g id="text_35">
    <!-- exiobase3_full_2010 -->
    <g style="fill: #262626" transform="translate(1052.702391 535.081266) scale(0.231 -0.231)">
     <use xlink:href="#DejaVuSans-65"/>
     <use xlink:href="#DejaVuSans-78" x="59.773438"/>
     <use xlink:href="#DejaVuSans-69" x="118.953125"/>
     <use xlink:href="#DejaVuSans-6f" x="146.736328"/>
     <use xlink:href="#DejaVuSans-62" x="207.917969"/>
     <use xlink:href="#DejaVuSans-61" x="271.394531"/>
     <use xlink:href="#DejaVuSans-73" x="332.673828"/>
     <use xlink:href="#DejaVuSans-65" x="384.773438"/>
     <use xlink:href="#DejaVuSans-33" x="446.296875"/>
     <use xlink:href="#DejaVuSans-5f" x="509.919922"/>
     <use xlink:href="#DejaVuSans-66" x="559.919922"/>
     <use xlink:href="#DejaVuSans-75" x="595.125"/>
     <use xlink:href="#DejaVuSans-6c" x="658.503906"/>
     <use xlink:href="#DejaVuSans-6c" x="686.287109"/>
     <use xlink:href="#DejaVuSans-5f" x="714.070312"/>
     <use xlink:href="#DejaVuSans-32" x="764.070312"/>
     <use xlink:href="#DejaVuSans-30" x="827.693359"/>
     <use xlink:href="#DejaVuSans-31" x="891.316406"/>
     <use xlink:href="#DejaVuSans-30" x="954.939453"/>
    </g>
   </g>
  </g>
 </g>
 <defs>
  <clipPath id="p937a4a10ec">
   <rect x="160.9429" y="81.456" width="295.458416" height="113.812591"/>
  </clipPath>
  <clipPath id="pb3838cb345">
   <rect x="483.047028" y="81.456" width="295.458416" height="113.812591"/>
  </clipPath>
  <clipPath id="p6ddc46ca93">
   <rect x="805.151157" y="81.456" width="295.458416" height="113.812591"/>
  </clipPath>
  <clipPath id="p5b624c2cf5">
   <rect x="160.9429" y="259.471409" width="295.458416" height="113.812591"/>
  </clipPath>
  <clipPath id="p21eb0fc26e">
   <rect x="483.047028" y="259.471409" width="295.458416" height="113.812591"/>
  </clipPath>
  <clipPath id="pccc2c79b17">
   <rect x="805.151157" y="259.471409" width="295.458416" height="113.812591"/>
  </clipPath>
 </defs>
</svg>
