<?xml version="1.0" encoding="utf-8" standalone="no"?>
<!DOCTYPE svg PUBLIC "-//W3C//DTD SVG 1.1//EN"
  "http://www.w3.org/Graphics/SVG/1.1/DTD/svg11.dtd">
<svg xmlns:xlink="http://www.w3.org/1999/xlink" width="1304.437547pt" height="591.51675pt" viewBox="0 0 1304.437547 591.51675" xmlns="http://www.w3.org/2000/svg" version="1.1">
 <metadata>
  <rdf:RDF xmlns:dc="http://purl.org/dc/elements/1.1/" xmlns:cc="http://creativecommons.org/ns#" xmlns:rdf="http://www.w3.org/1999/02/22-rdf-syntax-ns#">
   <cc:Work>
    <dc:type rdf:resource="http://purl.org/dc/dcmitype/StillImage"/>
    <dc:date>2023-04-27T10:22:15.833666</dc:date>
    <dc:format>image/svg+xml</dc:format>
    <dc:creator>
     <cc:Agent>
      <dc:title>Matplotlib v3.7.1, https://matplotlib.org/</dc:title>
     </cc:Agent>
    </dc:creator>
   </cc:Work>
  </rdf:RDF>
 </metadata>
 <defs>
  <style type="text/css">*{stroke-linejoin: round; stroke-linecap: butt}</style>
 </defs>
 <g id="figure_1">
  <g id="patch_1">
   <path d="M 0 591.51675 
L 1304.437547 591.51675 
L 1304.437547 -0 
L 0 -0 
z
" style="fill: #ffffff"/>
  </g>
  <g id="axes_1">
   <g id="patch_2">
    <path d="M 170.340091 198.286327 
L 462.70916 198.286327 
L 462.70916 81.456 
L 170.340091 81.456 
z
" style="fill: #eaeaf2"/>
   </g>
   <g id="matplotlib.axis_1">
    <g id="xtick_1">
     <g id="line2d_1">
      <path d="M 183.629594 198.286327 
L 183.629594 81.456 
" clip-path="url(#p1c13e73956)" style="fill: none; stroke: #ffffff; stroke-linecap: round"/>
     </g>
    </g>
    <g id="xtick_2">
     <g id="line2d_2">
      <path d="M 274.77845 198.286327 
L 274.77845 81.456 
" clip-path="url(#p1c13e73956)" style="fill: none; stroke: #ffffff; stroke-linecap: round"/>
     </g>
    </g>
    <g id="xtick_3">
     <g id="line2d_3">
      <path d="M 365.927305 198.286327 
L 365.927305 81.456 
" clip-path="url(#p1c13e73956)" style="fill: none; stroke: #ffffff; stroke-linecap: round"/>
     </g>
    </g>
    <g id="xtick_4">
     <g id="line2d_4">
      <path d="M 457.076161 198.286327 
L 457.076161 81.456 
" clip-path="url(#p1c13e73956)" style="fill: none; stroke: #ffffff; stroke-linecap: round"/>
     </g>
    </g>
   </g>
   <g id="matplotlib.axis_2">
    <g id="ytick_1">
     <g id="line2d_5">
      <path d="M 170.340091 190.192883 
L 462.70916 190.192883 
" clip-path="url(#p1c13e73956)" style="fill: none; stroke: #ffffff; stroke-linecap: round"/>
     </g>
     <g id="text_1">
      <!-- −0.2 -->
      <g style="fill: #262626" transform="translate(104.746794 198.969078) scale(0.231 -0.231)">
       <defs>
        <path id="DejaVuSans-2212" d="M 678 2272 
L 4684 2272 
L 4684 1741 
L 678 1741 
L 678 2272 
z
" transform="scale(0.015625)"/>
        <path id="DejaVuSans-30" d="M 2034 4250 
Q 1547 4250 1301 3770 
Q 1056 3291 1056 2328 
Q 1056 1369 1301 889 
Q 1547 409 2034 409 
Q 2525 409 2770 889 
Q 3016 1369 3016 2328 
Q 3016 3291 2770 3770 
Q 2525 4250 2034 4250 
z
M 2034 4750 
Q 2819 4750 3233 4129 
Q 3647 3509 3647 2328 
Q 3647 1150 3233 529 
Q 2819 -91 2034 -91 
Q 1250 -91 836 529 
Q 422 1150 422 2328 
Q 422 3509 836 4129 
Q 1250 4750 2034 4750 
z
" transform="scale(0.015625)"/>
        <path id="DejaVuSans-2e" d="M 684 794 
L 1344 794 
L 1344 0 
L 684 0 
L 684 794 
z
" transform="scale(0.015625)"/>
        <path id="DejaVuSans-32" d="M 1228 531 
L 3431 531 
L 3431 0 
L 469 0 
L 469 531 
Q 828 903 1448 1529 
Q 2069 2156 2228 2338 
Q 2531 2678 2651 2914 
Q 2772 3150 2772 3378 
Q 2772 3750 2511 3984 
Q 2250 4219 1831 4219 
Q 1534 4219 1204 4116 
Q 875 4013 500 3803 
L 500 4441 
Q 881 4594 1212 4672 
Q 1544 4750 1819 4750 
Q 2544 4750 2975 4387 
Q 3406 4025 3406 3419 
Q 3406 3131 3298 2873 
Q 3191 2616 2906 2266 
Q 2828 2175 2409 1742 
Q 1991 1309 1228 531 
z
" transform="scale(0.015625)"/>
       </defs>
       <use xlink:href="#DejaVuSans-2212"/>
       <use xlink:href="#DejaVuSans-30" x="83.789062"/>
       <use xlink:href="#DejaVuSans-2e" x="147.412109"/>
       <use xlink:href="#DejaVuSans-32" x="179.199219"/>
      </g>
     </g>
    </g>
    <g id="ytick_2">
     <g id="line2d_6">
      <path d="M 170.340091 86.766469 
L 462.70916 86.766469 
" clip-path="url(#p1c13e73956)" style="fill: none; stroke: #ffffff; stroke-linecap: round"/>
     </g>
     <g id="text_2">
      <!-- 0.0 -->
      <g style="fill: #262626" transform="translate(124.103872 95.542665) scale(0.231 -0.231)">
       <use xlink:href="#DejaVuSans-30"/>
       <use xlink:href="#DejaVuSans-2e" x="63.623047"/>
       <use xlink:href="#DejaVuSans-30" x="95.410156"/>
      </g>
     </g>
    </g>
    <g id="text_3">
     <!-- % change -->
     <g style="fill: #262626" transform="translate(95.505982 202.219507) rotate(-90) scale(0.252 -0.252)">
      <defs>
       <path id="DejaVuSans-25" d="M 4653 2053 
Q 4381 2053 4226 1822 
Q 4072 1591 4072 1178 
Q 4072 772 4226 539 
Q 4381 306 4653 306 
Q 4919 306 5073 539 
Q 5228 772 5228 1178 
Q 5228 1588 5073 1820 
Q 4919 2053 4653 2053 
z
M 4653 2450 
Q 5147 2450 5437 2106 
Q 5728 1763 5728 1178 
Q 5728 594 5436 251 
Q 5144 -91 4653 -91 
Q 4153 -91 3862 251 
Q 3572 594 3572 1178 
Q 3572 1766 3864 2108 
Q 4156 2450 4653 2450 
z
M 1428 4353 
Q 1159 4353 1004 4120 
Q 850 3888 850 3481 
Q 850 3069 1003 2837 
Q 1156 2606 1428 2606 
Q 1700 2606 1854 2837 
Q 2009 3069 2009 3481 
Q 2009 3884 1853 4118 
Q 1697 4353 1428 4353 
z
M 4250 4750 
L 4750 4750 
L 1831 -91 
L 1331 -91 
L 4250 4750 
z
M 1428 4750 
Q 1922 4750 2215 4408 
Q 2509 4066 2509 3481 
Q 2509 2891 2217 2550 
Q 1925 2209 1428 2209 
Q 931 2209 642 2551 
Q 353 2894 353 3481 
Q 353 4063 643 4406 
Q 934 4750 1428 4750 
z
" transform="scale(0.015625)"/>
       <path id="DejaVuSans-20" transform="scale(0.015625)"/>
       <path id="DejaVuSans-63" d="M 3122 3366 
L 3122 2828 
Q 2878 2963 2633 3030 
Q 2388 3097 2138 3097 
Q 1578 3097 1268 2742 
Q 959 2388 959 1747 
Q 959 1106 1268 751 
Q 1578 397 2138 397 
Q 2388 397 2633 464 
Q 2878 531 3122 666 
L 3122 134 
Q 2881 22 2623 -34 
Q 2366 -91 2075 -91 
Q 1284 -91 818 406 
Q 353 903 353 1747 
Q 353 2603 823 3093 
Q 1294 3584 2113 3584 
Q 2378 3584 2631 3529 
Q 2884 3475 3122 3366 
z
" transform="scale(0.015625)"/>
       <path id="DejaVuSans-68" d="M 3513 2113 
L 3513 0 
L 2938 0 
L 2938 2094 
Q 2938 2591 2744 2837 
Q 2550 3084 2163 3084 
Q 1697 3084 1428 2787 
Q 1159 2491 1159 1978 
L 1159 0 
L 581 0 
L 581 4863 
L 1159 4863 
L 1159 2956 
Q 1366 3272 1645 3428 
Q 1925 3584 2291 3584 
Q 2894 3584 3203 3211 
Q 3513 2838 3513 2113 
z
" transform="scale(0.015625)"/>
       <path id="DejaVuSans-61" d="M 2194 1759 
Q 1497 1759 1228 1600 
Q 959 1441 959 1056 
Q 959 750 1161 570 
Q 1363 391 1709 391 
Q 2188 391 2477 730 
Q 2766 1069 2766 1631 
L 2766 1759 
L 2194 1759 
z
M 3341 1997 
L 3341 0 
L 2766 0 
L 2766 531 
Q 2569 213 2275 61 
Q 1981 -91 1556 -91 
Q 1019 -91 701 211 
Q 384 513 384 1019 
Q 384 1609 779 1909 
Q 1175 2209 1959 2209 
L 2766 2209 
L 2766 2266 
Q 2766 2663 2505 2880 
Q 2244 3097 1772 3097 
Q 1472 3097 1187 3025 
Q 903 2953 641 2809 
L 641 3341 
Q 956 3463 1253 3523 
Q 1550 3584 1831 3584 
Q 2591 3584 2966 3190 
Q 3341 2797 3341 1997 
z
" transform="scale(0.015625)"/>
       <path id="DejaVuSans-6e" d="M 3513 2113 
L 3513 0 
L 2938 0 
L 2938 2094 
Q 2938 2591 2744 2837 
Q 2550 3084 2163 3084 
Q 1697 3084 1428 2787 
Q 1159 2491 1159 1978 
L 1159 0 
L 581 0 
L 581 3500 
L 1159 3500 
L 1159 2956 
Q 1366 3272 1645 3428 
Q 1925 3584 2291 3584 
Q 2894 3584 3203 3211 
Q 3513 2838 3513 2113 
z
" transform="scale(0.015625)"/>
       <path id="DejaVuSans-67" d="M 2906 1791 
Q 2906 2416 2648 2759 
Q 2391 3103 1925 3103 
Q 1463 3103 1205 2759 
Q 947 2416 947 1791 
Q 947 1169 1205 825 
Q 1463 481 1925 481 
Q 2391 481 2648 825 
Q 2906 1169 2906 1791 
z
M 3481 434 
Q 3481 -459 3084 -895 
Q 2688 -1331 1869 -1331 
Q 1566 -1331 1297 -1286 
Q 1028 -1241 775 -1147 
L 775 -588 
Q 1028 -725 1275 -790 
Q 1522 -856 1778 -856 
Q 2344 -856 2625 -561 
Q 2906 -266 2906 331 
L 2906 616 
Q 2728 306 2450 153 
Q 2172 0 1784 0 
Q 1141 0 747 490 
Q 353 981 353 1791 
Q 353 2603 747 3093 
Q 1141 3584 1784 3584 
Q 2172 3584 2450 3431 
Q 2728 3278 2906 2969 
L 2906 3500 
L 3481 3500 
L 3481 434 
z
" transform="scale(0.015625)"/>
       <path id="DejaVuSans-65" d="M 3597 1894 
L 3597 1613 
L 953 1613 
Q 991 1019 1311 708 
Q 1631 397 2203 397 
Q 2534 397 2845 478 
Q 3156 559 3463 722 
L 3463 178 
Q 3153 47 2828 -22 
Q 2503 -91 2169 -91 
Q 1331 -91 842 396 
Q 353 884 353 1716 
Q 353 2575 817 3079 
Q 1281 3584 2069 3584 
Q 2775 3584 3186 3129 
Q 3597 2675 3597 1894 
z
M 3022 2063 
Q 3016 2534 2758 2815 
Q 2500 3097 2075 3097 
Q 1594 3097 1305 2825 
Q 1016 2553 972 2059 
L 3022 2063 
z
" transform="scale(0.015625)"/>
      </defs>
      <use xlink:href="#DejaVuSans-25"/>
      <use xlink:href="#DejaVuSans-20" x="95.019531"/>
      <use xlink:href="#DejaVuSans-63" x="126.806641"/>
      <use xlink:href="#DejaVuSans-68" x="181.787109"/>
      <use xlink:href="#DejaVuSans-61" x="245.166016"/>
      <use xlink:href="#DejaVuSans-6e" x="306.445312"/>
      <use xlink:href="#DejaVuSans-67" x="369.824219"/>
      <use xlink:href="#DejaVuSans-65" x="433.300781"/>
     </g>
    </g>
   </g>
   <g id="PolyCollection_1"/>
   <g id="PolyCollection_2"/>
   <g id="PolyCollection_3"/>
   <g id="PolyCollection_4"/>
   <g id="PolyCollection_5"/>
   <g id="PolyCollection_6"/>
   <g id="line2d_7">
    <path d="M 183.629594 86.766469 
L 186.910953 93.449087 
L 191.650694 102.851616 
L 194.932052 108.783549 
L 198.213411 114.228774 
L 201.49477 119.218962 
L 204.776129 123.784398 
L 208.057488 127.953667 
L 211.338846 131.752666 
L 214.620205 135.205134 
L 217.901564 138.33334 
L 221.182923 141.163972 
L 224.464282 143.722395 
L 228.110236 146.267085 
L 231.75619 148.523325 
L 235.402144 150.514645 
L 239.048098 152.260168 
L 242.694053 153.777717 
L 246.704602 155.203518 
L 250.715152 156.394199 
L 255.090297 157.447451 
L 259.465442 158.266441 
L 264.205183 158.91358 
L 269.309519 159.367228 
L 275.507641 159.680253 
L 282.070358 159.778048 
L 291.914435 159.644474 
L 305.03987 159.25431 
L 326.551 158.377866 
L 349.520511 157.173715 
L 449.419657 151.471974 
L 449.419657 151.471974 
" clip-path="url(#p1c13e73956)" style="fill: none; stroke: #4c72b0; stroke-opacity: 0.9; stroke-width: 3; stroke-linecap: round"/>
   </g>
   <g id="line2d_8">
    <path d="M 183.629594 86.766469 
L 186.546358 90.048631 
L 192.015289 96.078025 
L 195.661243 99.711205 
L 199.307197 103.023849 
L 202.953152 106.038927 
L 206.599106 108.777429 
L 210.24506 111.258821 
L 214.25561 113.713895 
L 218.266159 115.903406 
L 222.276709 117.848585 
L 226.651854 119.715041 
L 231.026999 121.340439 
L 235.76674 122.861628 
L 240.871076 124.252602 
L 245.975411 125.413826 
L 251.444343 126.428834 
L 257.27787 127.27812 
L 263.475992 127.946688 
L 270.038709 128.425915 
L 278.059809 128.780074 
L 287.174694 128.951295 
L 301.02932 128.967613 
L 316.706923 128.749724 
L 342.228603 128.13382 
L 368.844069 127.312375 
L 420.616619 125.414567 
L 449.419657 124.334183 
L 449.419657 124.334183 
" clip-path="url(#p1c13e73956)" style="fill: none; stroke: #dd8452; stroke-opacity: 0.9; stroke-width: 3; stroke-linecap: round"/>
   </g>
   <g id="line2d_9">
    <path d="M 183.629594 86.766469 
L 185.817167 91.518391 
L 191.286098 103.27001 
L 194.567457 109.699608 
L 197.848816 115.60186 
L 201.130175 121.011629 
L 204.411533 125.961532 
L 207.692892 130.481351 
L 210.974251 134.598888 
L 214.25561 138.339843 
L 217.536969 141.729141 
L 220.818327 144.790129 
L 224.099686 147.545464 
L 227.381045 150.015381 
L 230.662404 152.219751 
L 233.943763 154.176988 
L 237.589717 156.084422 
L 241.235671 157.734648 
L 244.881625 159.15034 
L 248.892175 160.460343 
L 252.902725 161.532987 
L 256.913274 162.388586 
L 261.288419 163.095646 
L 266.02816 163.620286 
L 271.132496 163.94647 
L 276.966022 164.090389 
L 284.257931 164.034075 
L 296.654175 163.665325 
L 316.706923 162.818679 
L 376.500573 159.997286 
L 449.419657 156.411902 
L 449.419657 156.411902 
" clip-path="url(#p1c13e73956)" style="fill: none; stroke: #55a868; stroke-opacity: 0.9; stroke-width: 3; stroke-linecap: round"/>
   </g>
   <g id="line2d_10">
    <path d="M 183.629594 86.766469 
L 185.817167 90.50444 
L 191.286098 99.74916 
L 194.567457 104.807136 
L 197.848816 109.449927 
L 201.130175 113.70468 
L 204.411533 117.596412 
L 207.692892 121.148363 
L 210.974251 124.382419 
L 214.25561 127.319183 
L 217.536969 129.978549 
L 221.182923 132.631337 
L 224.828877 134.989331 
L 228.474831 137.07511 
L 232.120785 138.910078 
L 235.76674 140.51443 
L 239.777289 142.036035 
L 243.787839 143.326561 
L 248.162984 144.496908 
L 252.538129 145.443364 
L 257.27787 146.24027 
L 262.382205 146.85929 
L 267.486541 147.257763 
L 273.684664 147.5067 
L 280.976572 147.57167 
L 291.914435 147.419309 
L 309.05042 146.938171 
L 345.874557 145.62561 
L 414.783092 142.880977 
L 449.419657 141.418714 
L 449.419657 141.418714 
" clip-path="url(#p1c13e73956)" style="fill: none; stroke: #c44e52; stroke-opacity: 0.9; stroke-width: 3; stroke-linecap: round"/>
   </g>
   <g id="line2d_11">
    <path d="M 183.629594 86.766469 
L 186.546358 92.4966 
L 191.286098 101.613999 
L 194.567457 107.386287 
L 197.848816 112.687388 
L 201.130175 117.548117 
L 204.411533 121.997041 
L 207.692892 126.060737 
L 210.974251 129.764036 
L 214.25561 133.130123 
L 217.536969 136.180769 
L 220.818327 138.936101 
L 224.099686 141.414905 
L 227.381045 143.635695 
L 231.026999 145.820961 
L 234.672953 147.729177 
L 238.318908 149.380793 
L 241.964862 150.798668 
L 245.975411 152.10892 
L 249.985961 153.177369 
L 253.996511 154.022708 
L 258.371656 154.710827 
L 262.746801 155.174997 
L 267.486541 155.456579 
L 272.955473 155.550123 
L 279.153595 155.425596 
L 286.080908 155.064308 
L 294.466603 154.393095 
L 340.405626 150.218211 
L 361.55216 148.729141 
L 389.261413 146.981407 
L 449.419657 143.561589 
L 449.419657 143.561589 
" clip-path="url(#p1c13e73956)" style="fill: none; stroke: #8172b3; stroke-opacity: 0.9; stroke-width: 3; stroke-linecap: round"/>
   </g>
   <g id="line2d_12">
    <path d="M 183.629594 86.766469 
L 187.275548 92.480588 
L 191.650694 99.143601 
L 194.932052 103.710171 
L 198.213411 107.907012 
L 201.49477 111.758462 
L 204.776129 115.287213 
L 208.057488 118.514277 
L 211.338846 121.459149 
L 214.984801 124.422345 
L 218.630755 127.083481 
L 222.276709 129.464695 
L 225.922663 131.585906 
L 229.568617 133.465567 
L 233.579167 135.274622 
L 237.589717 136.83473 
L 241.600266 138.168396 
L 245.975411 139.386132 
L 250.350557 140.377546 
L 255.090297 141.218615 
L 259.830038 141.839012 
L 264.934373 142.284608 
L 270.7679 142.552927 
L 277.695213 142.634295 
L 285.351717 142.495504 
L 294.102007 142.099537 
L 308.321229 141.174876 
L 360.82297 137.736984 
L 402.751443 135.462839 
L 449.419657 133.096817 
L 449.419657 133.096817 
" clip-path="url(#p1c13e73956)" style="fill: none; stroke: #937860; stroke-opacity: 0.9; stroke-width: 3; stroke-linecap: round"/>
   </g>
   <g id="patch_3">
    <path d="M 170.340091 198.286327 
L 170.340091 81.456 
" style="fill: none; stroke: #ffffff; stroke-width: 1.25; stroke-linejoin: miter; stroke-linecap: square"/>
   </g>
   <g id="patch_4">
    <path d="M 170.340091 198.286327 
L 462.70916 198.286327 
" style="fill: none; stroke: #ffffff; stroke-width: 1.25; stroke-linejoin: miter; stroke-linecap: square"/>
   </g>
   <g id="text_4">
    <!-- 0.8~90 -->
    <g style="fill: #262626" transform="translate(269.894782 75.456) scale(0.252 -0.252)">
     <defs>
      <path id="DejaVuSans-38" d="M 2034 2216 
Q 1584 2216 1326 1975 
Q 1069 1734 1069 1313 
Q 1069 891 1326 650 
Q 1584 409 2034 409 
Q 2484 409 2743 651 
Q 3003 894 3003 1313 
Q 3003 1734 2745 1975 
Q 2488 2216 2034 2216 
z
M 1403 2484 
Q 997 2584 770 2862 
Q 544 3141 544 3541 
Q 544 4100 942 4425 
Q 1341 4750 2034 4750 
Q 2731 4750 3128 4425 
Q 3525 4100 3525 3541 
Q 3525 3141 3298 2862 
Q 3072 2584 2669 2484 
Q 3125 2378 3379 2068 
Q 3634 1759 3634 1313 
Q 3634 634 3220 271 
Q 2806 -91 2034 -91 
Q 1263 -91 848 271 
Q 434 634 434 1313 
Q 434 1759 690 2068 
Q 947 2378 1403 2484 
z
M 1172 3481 
Q 1172 3119 1398 2916 
Q 1625 2713 2034 2713 
Q 2441 2713 2670 2916 
Q 2900 3119 2900 3481 
Q 2900 3844 2670 4047 
Q 2441 4250 2034 4250 
Q 1625 4250 1398 4047 
Q 1172 3844 1172 3481 
z
" transform="scale(0.015625)"/>
      <path id="DejaVuSans-7e" d="M 4684 2553 
L 4684 1997 
Q 4356 1750 4076 1644 
Q 3797 1538 3494 1538 
Q 3150 1538 2694 1722 
Q 2659 1734 2644 1741 
Q 2622 1750 2575 1766 
Q 2091 1959 1797 1959 
Q 1522 1959 1253 1839 
Q 984 1719 678 1459 
L 678 2016 
Q 1006 2263 1286 2370 
Q 1566 2478 1869 2478 
Q 2213 2478 2672 2291 
Q 2703 2278 2719 2272 
Q 2744 2263 2788 2247 
Q 3272 2053 3566 2053 
Q 3834 2053 4098 2172 
Q 4363 2291 4684 2553 
z
" transform="scale(0.015625)"/>
      <path id="DejaVuSans-39" d="M 703 97 
L 703 672 
Q 941 559 1184 500 
Q 1428 441 1663 441 
Q 2288 441 2617 861 
Q 2947 1281 2994 2138 
Q 2813 1869 2534 1725 
Q 2256 1581 1919 1581 
Q 1219 1581 811 2004 
Q 403 2428 403 3163 
Q 403 3881 828 4315 
Q 1253 4750 1959 4750 
Q 2769 4750 3195 4129 
Q 3622 3509 3622 2328 
Q 3622 1225 3098 567 
Q 2575 -91 1691 -91 
Q 1453 -91 1209 -44 
Q 966 3 703 97 
z
M 1959 2075 
Q 2384 2075 2632 2365 
Q 2881 2656 2881 3163 
Q 2881 3666 2632 3958 
Q 2384 4250 1959 4250 
Q 1534 4250 1286 3958 
Q 1038 3666 1038 3163 
Q 1038 2656 1286 2365 
Q 1534 2075 1959 2075 
z
" transform="scale(0.015625)"/>
     </defs>
     <use xlink:href="#DejaVuSans-30"/>
     <use xlink:href="#DejaVuSans-2e" x="63.623047"/>
     <use xlink:href="#DejaVuSans-38" x="95.410156"/>
     <use xlink:href="#DejaVuSans-7e" x="159.033203"/>
     <use xlink:href="#DejaVuSans-39" x="242.822266"/>
     <use xlink:href="#DejaVuSans-30" x="306.445312"/>
    </g>
   </g>
  </g>
  <g id="axes_2">
   <g id="patch_5">
    <path d="M 489.290298 198.286327 
L 781.659367 198.286327 
L 781.659367 81.456 
L 489.290298 81.456 
z
" style="fill: #eaeaf2"/>
   </g>
   <g id="matplotlib.axis_3">
    <g id="xtick_5">
     <g id="line2d_13">
      <path d="M 502.579801 198.286327 
L 502.579801 81.456 
" clip-path="url(#p183126ac32)" style="fill: none; stroke: #ffffff; stroke-linecap: round"/>
     </g>
    </g>
    <g id="xtick_6">
     <g id="line2d_14">
      <path d="M 593.728656 198.286327 
L 593.728656 81.456 
" clip-path="url(#p183126ac32)" style="fill: none; stroke: #ffffff; stroke-linecap: round"/>
     </g>
    </g>
    <g id="xtick_7">
     <g id="line2d_15">
      <path d="M 684.877512 198.286327 
L 684.877512 81.456 
" clip-path="url(#p183126ac32)" style="fill: none; stroke: #ffffff; stroke-linecap: round"/>
     </g>
    </g>
    <g id="xtick_8">
     <g id="line2d_16">
      <path d="M 776.026368 198.286327 
L 776.026368 81.456 
" clip-path="url(#p183126ac32)" style="fill: none; stroke: #ffffff; stroke-linecap: round"/>
     </g>
    </g>
   </g>
   <g id="matplotlib.axis_4">
    <g id="ytick_3">
     <g id="line2d_17">
      <path d="M 489.290298 190.192883 
L 781.659367 190.192883 
" clip-path="url(#p183126ac32)" style="fill: none; stroke: #ffffff; stroke-linecap: round"/>
     </g>
    </g>
    <g id="ytick_4">
     <g id="line2d_18">
      <path d="M 489.290298 86.766469 
L 781.659367 86.766469 
" clip-path="url(#p183126ac32)" style="fill: none; stroke: #ffffff; stroke-linecap: round"/>
     </g>
    </g>
   </g>
   <g id="PolyCollection_7"/>
   <g id="PolyCollection_8"/>
   <g id="PolyCollection_9"/>
   <g id="PolyCollection_10"/>
   <g id="PolyCollection_11"/>
   <g id="PolyCollection_12"/>
   <g id="line2d_19">
    <path d="M 502.579801 86.766469 
L 505.496564 92.731586 
L 510.965495 103.771673 
L 514.246854 109.870065 
L 517.892809 116.157019 
L 521.538763 121.964122 
L 525.184717 127.324868 
L 528.830671 132.270353 
L 532.476625 136.829491 
L 536.12258 141.029175 
L 539.768534 144.894414 
L 543.414488 148.448458 
L 547.060442 151.713375 
L 551.070992 154.995074 
L 555.081542 157.976321 
L 559.092091 160.680446 
L 563.102641 163.128843 
L 567.477786 165.531065 
L 571.852931 167.675481 
L 576.228076 169.583525 
L 580.967817 171.410854 
L 586.072153 173.128796 
L 591.176488 174.614458 
L 596.64542 175.975987 
L 602.478947 177.193001 
L 608.677069 178.24943 
L 615.239786 179.13354 
L 622.167099 179.837723 
L 629.459008 180.358211 
L 637.480107 180.706005 
L 647.324183 180.892814 
L 658.991237 180.896403 
L 684.148321 180.572581 
L 768.369864 179.428004 
L 768.369864 179.428004 
" clip-path="url(#p183126ac32)" style="fill: none; stroke: #4c72b0; stroke-opacity: 0.9; stroke-width: 3; stroke-linecap: round"/>
   </g>
   <g id="line2d_20">
    <path d="M 502.579801 86.766469 
L 505.131969 89.64426 
L 511.330091 96.579349 
L 515.340641 100.660275 
L 519.35119 104.40434 
L 523.36174 107.837431 
L 527.372289 110.983316 
L 531.382839 113.863991 
L 535.757984 116.727913 
L 540.133129 119.324596 
L 544.508274 121.676237 
L 549.248015 123.97086 
L 553.987755 126.025355 
L 559.092091 127.993958 
L 564.561023 129.849899 
L 570.029954 131.470426 
L 575.863481 132.966647 
L 582.061603 134.322606 
L 588.62432 135.526719 
L 595.916229 136.62492 
L 603.572733 137.552297 
L 611.958428 138.34211 
L 621.073313 138.974301 
L 631.281985 139.45001 
L 642.584443 139.744653 
L 657.532855 139.889527 
L 678.314794 139.83996 
L 733.368703 139.483061 
L 768.369864 139.180794 
L 768.369864 139.180794 
" clip-path="url(#p183126ac32)" style="fill: none; stroke: #dd8452; stroke-opacity: 0.9; stroke-width: 3; stroke-linecap: round"/>
   </g>
   <g id="line2d_21">
    <path d="M 502.579801 86.766469 
L 504.402778 90.72597 
L 510.965495 104.993148 
L 514.246854 111.536558 
L 517.528213 117.630115 
L 520.809572 123.302434 
L 524.455526 129.143433 
L 528.10148 134.53189 
L 531.747435 139.499535 
L 535.393389 144.075537 
L 539.039343 148.287055 
L 542.685297 152.159437 
L 546.331251 155.716203 
L 549.977206 158.979212 
L 553.62316 161.968847 
L 557.63371 164.964597 
L 561.644259 167.676632 
L 565.654809 170.126735 
L 570.029954 172.524975 
L 574.405099 174.66024 
L 578.780244 176.555365 
L 583.519985 178.361447 
L 588.259725 179.93377 
L 593.364061 181.390869 
L 598.832992 182.707679 
L 604.301924 183.800258 
L 610.13545 184.748674 
L 616.698168 185.58276 
L 623.625481 186.230217 
L 630.917389 186.687951 
L 638.938489 186.964523 
L 648.782565 187.058888 
L 662.637191 186.938126 
L 768.369864 185.637842 
L 768.369864 185.637842 
" clip-path="url(#p183126ac32)" style="fill: none; stroke: #55a868; stroke-opacity: 0.9; stroke-width: 3; stroke-linecap: round"/>
   </g>
   <g id="line2d_22">
    <path d="M 502.579801 86.766469 
L 504.767373 90.51553 
L 510.965495 101.107076 
L 514.61145 106.806742 
L 518.257404 112.07303 
L 521.903358 116.936353 
L 525.549312 121.424832 
L 529.195267 125.564572 
L 532.841221 129.379824 
L 536.487175 132.893131 
L 540.497725 136.434033 
L 544.508274 139.660857 
L 548.518824 142.597535 
L 552.529374 145.266171 
L 556.904519 147.895764 
L 561.279664 150.255448 
L 565.654809 152.367847 
L 570.394549 154.40146 
L 575.13429 156.194193 
L 580.238626 157.881264 
L 585.342962 159.340696 
L 590.811893 160.677999 
L 596.64542 161.874607 
L 602.843542 162.916836 
L 609.40626 163.796684 
L 616.698168 164.542592 
L 624.354672 165.102657 
L 632.740367 165.49334 
L 642.219848 165.702705 
L 654.251497 165.730146 
L 688.158871 165.456651 
L 768.369864 164.628483 
L 768.369864 164.628483 
" clip-path="url(#p183126ac32)" style="fill: none; stroke: #c44e52; stroke-opacity: 0.9; stroke-width: 3; stroke-linecap: round"/>
   </g>
   <g id="line2d_23">
    <path d="M 502.579801 86.766469 
L 505.131969 91.797501 
L 510.965495 103.166372 
L 514.61145 109.671406 
L 518.257404 115.683417 
L 521.903358 121.237082 
L 525.549312 126.364534 
L 529.195267 131.095554 
L 532.841221 135.457793 
L 536.487175 139.476936 
L 540.133129 143.176852 
L 543.779084 146.579682 
L 547.789633 150.004168 
L 551.800183 153.119377 
L 555.810732 155.948684 
L 559.821282 158.513683 
L 564.196427 161.03384 
L 568.571572 163.287075 
L 572.946717 165.295271 
L 577.686458 167.217553 
L 582.426198 168.899225 
L 587.530534 170.466369 
L 592.63487 171.804285 
L 598.103801 173.008261 
L 603.937328 174.058487 
L 610.13545 174.942855 
L 616.698168 175.650169 
L 623.625481 176.172347 
L 631.281985 176.516653 
L 639.66768 176.657686 
L 649.511756 176.596021 
L 662.272596 176.289973 
L 679.043985 175.657246 
L 710.034596 174.429987 
L 735.556276 173.724939 
L 768.369864 173.009571 
L 768.369864 173.009571 
" clip-path="url(#p183126ac32)" style="fill: none; stroke: #8172b3; stroke-opacity: 0.9; stroke-width: 3; stroke-linecap: round"/>
   </g>
   <g id="line2d_24">
    <path d="M 502.579801 86.766469 
L 505.86116 91.934731 
L 511.330091 100.380947 
L 514.976045 105.527553 
L 518.621999 110.284951 
L 522.267954 114.680591 
L 525.913908 118.73993 
L 529.559862 122.486593 
L 533.570412 126.272924 
L 537.580961 129.734409 
L 541.591511 132.895891 
L 545.602061 135.780276 
L 549.61261 138.408682 
L 553.987755 141.006965 
L 558.3629 143.347054 
L 563.102641 145.615418 
L 567.842381 147.630438 
L 572.582122 149.414764 
L 577.686458 151.102389 
L 583.155389 152.667109 
L 588.62432 154.005139 
L 594.457847 155.20854 
L 600.655969 156.261554 
L 607.218687 157.155199 
L 614.510595 157.915909 
L 622.167099 158.487185 
L 630.552794 158.884172 
L 639.66768 159.088702 
L 651.334733 159.10988 
L 665.91855 158.913081 
L 685.606703 158.402427 
L 711.492978 157.747537 
L 768.369864 156.594979 
L 768.369864 156.594979 
" clip-path="url(#p183126ac32)" style="fill: none; stroke: #937860; stroke-opacity: 0.9; stroke-width: 3; stroke-linecap: round"/>
   </g>
   <g id="patch_6">
    <path d="M 489.290298 198.286327 
L 489.290298 81.456 
" style="fill: none; stroke: #ffffff; stroke-width: 1.25; stroke-linejoin: miter; stroke-linecap: square"/>
   </g>
   <g id="patch_7">
    <path d="M 489.290298 198.286327 
L 781.659367 198.286327 
" style="fill: none; stroke: #ffffff; stroke-width: 1.25; stroke-linejoin: miter; stroke-linecap: square"/>
   </g>
   <g id="text_5">
    <!-- 0.8~365 -->
    <g style="fill: #262626" transform="translate(580.828239 75.456) scale(0.252 -0.252)">
     <defs>
      <path id="DejaVuSans-33" d="M 2597 2516 
Q 3050 2419 3304 2112 
Q 3559 1806 3559 1356 
Q 3559 666 3084 287 
Q 2609 -91 1734 -91 
Q 1441 -91 1130 -33 
Q 819 25 488 141 
L 488 750 
Q 750 597 1062 519 
Q 1375 441 1716 441 
Q 2309 441 2620 675 
Q 2931 909 2931 1356 
Q 2931 1769 2642 2001 
Q 2353 2234 1838 2234 
L 1294 2234 
L 1294 2753 
L 1863 2753 
Q 2328 2753 2575 2939 
Q 2822 3125 2822 3475 
Q 2822 3834 2567 4026 
Q 2313 4219 1838 4219 
Q 1578 4219 1281 4162 
Q 984 4106 628 3988 
L 628 4550 
Q 988 4650 1302 4700 
Q 1616 4750 1894 4750 
Q 2613 4750 3031 4423 
Q 3450 4097 3450 3541 
Q 3450 3153 3228 2886 
Q 3006 2619 2597 2516 
z
" transform="scale(0.015625)"/>
      <path id="DejaVuSans-36" d="M 2113 2584 
Q 1688 2584 1439 2293 
Q 1191 2003 1191 1497 
Q 1191 994 1439 701 
Q 1688 409 2113 409 
Q 2538 409 2786 701 
Q 3034 994 3034 1497 
Q 3034 2003 2786 2293 
Q 2538 2584 2113 2584 
z
M 3366 4563 
L 3366 3988 
Q 3128 4100 2886 4159 
Q 2644 4219 2406 4219 
Q 1781 4219 1451 3797 
Q 1122 3375 1075 2522 
Q 1259 2794 1537 2939 
Q 1816 3084 2150 3084 
Q 2853 3084 3261 2657 
Q 3669 2231 3669 1497 
Q 3669 778 3244 343 
Q 2819 -91 2113 -91 
Q 1303 -91 875 529 
Q 447 1150 447 2328 
Q 447 3434 972 4092 
Q 1497 4750 2381 4750 
Q 2619 4750 2861 4703 
Q 3103 4656 3366 4563 
z
" transform="scale(0.015625)"/>
      <path id="DejaVuSans-35" d="M 691 4666 
L 3169 4666 
L 3169 4134 
L 1269 4134 
L 1269 2991 
Q 1406 3038 1543 3061 
Q 1681 3084 1819 3084 
Q 2600 3084 3056 2656 
Q 3513 2228 3513 1497 
Q 3513 744 3044 326 
Q 2575 -91 1722 -91 
Q 1428 -91 1123 -41 
Q 819 9 494 109 
L 494 744 
Q 775 591 1075 516 
Q 1375 441 1709 441 
Q 2250 441 2565 725 
Q 2881 1009 2881 1497 
Q 2881 1984 2565 2268 
Q 2250 2553 1709 2553 
Q 1456 2553 1204 2497 
Q 953 2441 691 2322 
L 691 4666 
z
" transform="scale(0.015625)"/>
     </defs>
     <use xlink:href="#DejaVuSans-30"/>
     <use xlink:href="#DejaVuSans-2e" x="63.623047"/>
     <use xlink:href="#DejaVuSans-38" x="95.410156"/>
     <use xlink:href="#DejaVuSans-7e" x="159.033203"/>
     <use xlink:href="#DejaVuSans-33" x="242.822266"/>
     <use xlink:href="#DejaVuSans-36" x="306.445312"/>
     <use xlink:href="#DejaVuSans-35" x="370.068359"/>
    </g>
   </g>
  </g>
  <g id="axes_3">
   <g id="patch_8">
    <path d="M 808.240504 198.286327 
L 1100.609573 198.286327 
L 1100.609573 81.456 
L 808.240504 81.456 
z
" style="fill: #eaeaf2"/>
   </g>
   <g id="matplotlib.axis_5">
    <g id="xtick_9">
     <g id="line2d_25">
      <path d="M 821.530007 198.286327 
L 821.530007 81.456 
" clip-path="url(#p39e79e3cb1)" style="fill: none; stroke: #ffffff; stroke-linecap: round"/>
     </g>
    </g>
    <g id="xtick_10">
     <g id="line2d_26">
      <path d="M 912.678863 198.286327 
L 912.678863 81.456 
" clip-path="url(#p39e79e3cb1)" style="fill: none; stroke: #ffffff; stroke-linecap: round"/>
     </g>
    </g>
    <g id="xtick_11">
     <g id="line2d_27">
      <path d="M 1003.827719 198.286327 
L 1003.827719 81.456 
" clip-path="url(#p39e79e3cb1)" style="fill: none; stroke: #ffffff; stroke-linecap: round"/>
     </g>
    </g>
    <g id="xtick_12">
     <g id="line2d_28">
      <path d="M 1094.976574 198.286327 
L 1094.976574 81.456 
" clip-path="url(#p39e79e3cb1)" style="fill: none; stroke: #ffffff; stroke-linecap: round"/>
     </g>
    </g>
   </g>
   <g id="matplotlib.axis_6">
    <g id="ytick_5">
     <g id="line2d_29">
      <path d="M 808.240504 190.192883 
L 1100.609573 190.192883 
" clip-path="url(#p39e79e3cb1)" style="fill: none; stroke: #ffffff; stroke-linecap: round"/>
     </g>
    </g>
    <g id="ytick_6">
     <g id="line2d_30">
      <path d="M 808.240504 86.766469 
L 1100.609573 86.766469 
" clip-path="url(#p39e79e3cb1)" style="fill: none; stroke: #ffffff; stroke-linecap: round"/>
     </g>
    </g>
   </g>
   <g id="PolyCollection_13"/>
   <g id="PolyCollection_14"/>
   <g id="PolyCollection_15"/>
   <g id="PolyCollection_16"/>
   <g id="PolyCollection_17"/>
   <g id="PolyCollection_18"/>
   <g id="line2d_31">
    <path d="M 821.530007 86.766469 
L 824.811366 93.449087 
L 829.551107 102.851616 
L 832.832465 108.783549 
L 836.113824 114.228774 
L 839.395183 119.218962 
L 842.676542 123.784398 
L 845.957901 127.953667 
L 849.239259 131.752666 
L 852.520618 135.205134 
L 855.801977 138.33334 
L 859.083336 141.163972 
L 862.364695 143.722395 
L 866.010649 146.267085 
L 869.656603 148.523325 
L 873.302557 150.514645 
L 876.948512 152.260168 
L 880.594466 153.777717 
L 884.605015 155.203518 
L 888.615565 156.394199 
L 892.99071 157.447451 
L 897.365855 158.266441 
L 902.105596 158.91358 
L 907.209932 159.367228 
L 913.408054 159.680253 
L 919.970771 159.778048 
L 929.814848 159.644474 
L 942.940283 159.25431 
L 964.451413 158.377866 
L 987.420925 157.173715 
L 1087.32007 151.471974 
L 1087.32007 151.471974 
" clip-path="url(#p39e79e3cb1)" style="fill: none; stroke: #4c72b0; stroke-opacity: 0.9; stroke-width: 3; stroke-linecap: round"/>
   </g>
   <g id="line2d_32">
    <path d="M 821.530007 86.766469 
L 824.446771 90.048631 
L 829.915702 96.078025 
L 833.561656 99.711205 
L 837.20761 103.023849 
L 840.853565 106.038927 
L 844.499519 108.777429 
L 848.145473 111.258821 
L 852.156023 113.713895 
L 856.166572 115.903406 
L 860.177122 117.848585 
L 864.552267 119.715041 
L 868.927412 121.340439 
L 873.667153 122.861628 
L 878.771489 124.252602 
L 883.875825 125.413826 
L 889.344756 126.428834 
L 895.178283 127.27812 
L 901.376405 127.946688 
L 907.939122 128.425915 
L 915.960222 128.780074 
L 925.075107 128.951295 
L 938.929733 128.967613 
L 954.607336 128.749724 
L 980.129016 128.13382 
L 1006.744482 127.312375 
L 1058.517032 125.414567 
L 1087.32007 124.334183 
L 1087.32007 124.334183 
" clip-path="url(#p39e79e3cb1)" style="fill: none; stroke: #dd8452; stroke-opacity: 0.9; stroke-width: 3; stroke-linecap: round"/>
   </g>
   <g id="line2d_33">
    <path d="M 821.530007 86.766469 
L 823.71758 91.518391 
L 829.186511 103.27001 
L 832.46787 109.699608 
L 835.749229 115.60186 
L 839.030588 121.011629 
L 842.311946 125.961532 
L 845.593305 130.481351 
L 848.874664 134.598888 
L 852.156023 138.339843 
L 855.437382 141.729141 
L 858.71874 144.790129 
L 862.000099 147.545464 
L 865.281458 150.015381 
L 868.562817 152.219751 
L 871.844176 154.176988 
L 875.49013 156.084422 
L 879.136084 157.734648 
L 882.782038 159.15034 
L 886.792588 160.460343 
L 890.803138 161.532987 
L 894.813687 162.388586 
L 899.188832 163.095646 
L 903.928573 163.620286 
L 909.032909 163.94647 
L 914.866435 164.090389 
L 922.158344 164.034075 
L 934.554588 163.665325 
L 954.607336 162.818679 
L 1014.400986 159.997286 
L 1087.32007 156.411902 
L 1087.32007 156.411902 
" clip-path="url(#p39e79e3cb1)" style="fill: none; stroke: #55a868; stroke-opacity: 0.9; stroke-width: 3; stroke-linecap: round"/>
   </g>
   <g id="line2d_34">
    <path d="M 821.530007 86.766469 
L 823.71758 90.50444 
L 829.186511 99.74916 
L 832.46787 104.807136 
L 835.749229 109.449927 
L 839.030588 113.70468 
L 842.311946 117.596412 
L 845.593305 121.148363 
L 848.874664 124.382419 
L 852.156023 127.319183 
L 855.437382 129.978549 
L 859.083336 132.631337 
L 862.72929 134.989331 
L 866.375244 137.07511 
L 870.021198 138.910078 
L 873.667153 140.51443 
L 877.677702 142.036035 
L 881.688252 143.326561 
L 886.063397 144.496908 
L 890.438542 145.443364 
L 895.178283 146.24027 
L 900.282619 146.85929 
L 905.386954 147.257763 
L 911.585077 147.5067 
L 918.876985 147.57167 
L 929.814848 147.419309 
L 946.950833 146.938171 
L 983.77497 145.62561 
L 1052.683505 142.880977 
L 1087.32007 141.418714 
L 1087.32007 141.418714 
" clip-path="url(#p39e79e3cb1)" style="fill: none; stroke: #c44e52; stroke-opacity: 0.9; stroke-width: 3; stroke-linecap: round"/>
   </g>
   <g id="line2d_35">
    <path d="M 821.530007 86.766469 
L 824.446771 92.4966 
L 829.186511 101.613999 
L 832.46787 107.386287 
L 835.749229 112.687388 
L 839.030588 117.548117 
L 842.311946 121.997041 
L 845.593305 126.060737 
L 848.874664 129.764036 
L 852.156023 133.130123 
L 855.437382 136.180769 
L 858.71874 138.936101 
L 862.000099 141.414905 
L 865.281458 143.635695 
L 868.927412 145.820961 
L 872.573366 147.729177 
L 876.219321 149.380793 
L 879.865275 150.798668 
L 883.875825 152.10892 
L 887.886374 153.177369 
L 891.896924 154.022708 
L 896.272069 154.710827 
L 900.647214 155.174997 
L 905.386954 155.456579 
L 910.855886 155.550123 
L 917.054008 155.425596 
L 923.981321 155.064308 
L 932.367016 154.393095 
L 978.306039 150.218211 
L 999.452573 148.729141 
L 1027.161826 146.981407 
L 1087.32007 143.561589 
L 1087.32007 143.561589 
" clip-path="url(#p39e79e3cb1)" style="fill: none; stroke: #8172b3; stroke-opacity: 0.9; stroke-width: 3; stroke-linecap: round"/>
   </g>
   <g id="line2d_36">
    <path d="M 821.530007 86.766469 
L 825.175962 92.480588 
L 829.551107 99.143601 
L 832.832465 103.710171 
L 836.113824 107.907012 
L 839.395183 111.758462 
L 842.676542 115.287213 
L 845.957901 118.514277 
L 849.239259 121.459149 
L 852.885214 124.422345 
L 856.531168 127.083481 
L 860.177122 129.464695 
L 863.823076 131.585906 
L 867.469031 133.465567 
L 871.47958 135.274622 
L 875.49013 136.83473 
L 879.500679 138.168396 
L 883.875825 139.386132 
L 888.25097 140.377546 
L 892.99071 141.218615 
L 897.730451 141.839012 
L 902.834787 142.284608 
L 908.668313 142.552927 
L 915.595626 142.634295 
L 923.25213 142.495504 
L 932.00242 142.099537 
L 946.221642 141.174876 
L 998.723383 137.736984 
L 1040.651856 135.462839 
L 1087.32007 133.096817 
L 1087.32007 133.096817 
" clip-path="url(#p39e79e3cb1)" style="fill: none; stroke: #937860; stroke-opacity: 0.9; stroke-width: 3; stroke-linecap: round"/>
   </g>
   <g id="patch_9">
    <path d="M 808.240504 198.286327 
L 808.240504 81.456 
" style="fill: none; stroke: #ffffff; stroke-width: 1.25; stroke-linejoin: miter; stroke-linecap: square"/>
   </g>
   <g id="patch_10">
    <path d="M 808.240504 198.286327 
L 1100.609573 198.286327 
" style="fill: none; stroke: #ffffff; stroke-width: 1.25; stroke-linejoin: miter; stroke-linecap: square"/>
   </g>
   <g id="text_6">
    <!-- 0.85~90 -->
    <g style="fill: #262626" transform="translate(899.778445 75.456) scale(0.252 -0.252)">
     <use xlink:href="#DejaVuSans-30"/>
     <use xlink:href="#DejaVuSans-2e" x="63.623047"/>
     <use xlink:href="#DejaVuSans-38" x="95.410156"/>
     <use xlink:href="#DejaVuSans-35" x="159.033203"/>
     <use xlink:href="#DejaVuSans-7e" x="222.65625"/>
     <use xlink:href="#DejaVuSans-39" x="306.445312"/>
     <use xlink:href="#DejaVuSans-30" x="370.068359"/>
    </g>
   </g>
  </g>
  <g id="axes_4">
   <g id="patch_11">
    <path d="M 170.340091 373.284 
L 462.70916 373.284 
L 462.70916 256.453673 
L 170.340091 256.453673 
z
" style="fill: #eaeaf2"/>
   </g>
   <g id="matplotlib.axis_7">
    <g id="xtick_13">
     <g id="line2d_37">
      <path d="M 183.629594 373.284 
L 183.629594 256.453673 
" clip-path="url(#pb7c621b533)" style="fill: none; stroke: #ffffff; stroke-linecap: round"/>
     </g>
     <g id="text_7">
      <!-- 0 -->
      <g style="fill: #262626" transform="translate(176.280907 400.336391) scale(0.231 -0.231)">
       <use xlink:href="#DejaVuSans-30"/>
      </g>
     </g>
    </g>
    <g id="xtick_14">
     <g id="line2d_38">
      <path d="M 274.77845 373.284 
L 274.77845 256.453673 
" clip-path="url(#pb7c621b533)" style="fill: none; stroke: #ffffff; stroke-linecap: round"/>
     </g>
     <g id="text_8">
      <!-- 250 -->
      <g style="fill: #262626" transform="translate(252.732387 400.336391) scale(0.231 -0.231)">
       <use xlink:href="#DejaVuSans-32"/>
       <use xlink:href="#DejaVuSans-35" x="63.623047"/>
       <use xlink:href="#DejaVuSans-30" x="127.246094"/>
      </g>
     </g>
    </g>
    <g id="xtick_15">
     <g id="line2d_39">
      <path d="M 365.927305 373.284 
L 365.927305 256.453673 
" clip-path="url(#pb7c621b533)" style="fill: none; stroke: #ffffff; stroke-linecap: round"/>
     </g>
     <g id="text_9">
      <!-- 500 -->
      <g style="fill: #262626" transform="translate(343.881243 400.336391) scale(0.231 -0.231)">
       <use xlink:href="#DejaVuSans-35"/>
       <use xlink:href="#DejaVuSans-30" x="63.623047"/>
       <use xlink:href="#DejaVuSans-30" x="127.246094"/>
      </g>
     </g>
    </g>
    <g id="xtick_16">
     <g id="line2d_40">
      <path d="M 457.076161 373.284 
L 457.076161 256.453673 
" clip-path="url(#pb7c621b533)" style="fill: none; stroke: #ffffff; stroke-linecap: round"/>
     </g>
     <g id="text_10">
      <!-- 750 -->
      <g style="fill: #262626" transform="translate(435.030099 400.336391) scale(0.231 -0.231)">
       <defs>
        <path id="DejaVuSans-37" d="M 525 4666 
L 3525 4666 
L 3525 4397 
L 1831 0 
L 1172 0 
L 2766 4134 
L 525 4134 
L 525 4666 
z
" transform="scale(0.015625)"/>
       </defs>
       <use xlink:href="#DejaVuSans-37"/>
       <use xlink:href="#DejaVuSans-35" x="63.623047"/>
       <use xlink:href="#DejaVuSans-30" x="127.246094"/>
      </g>
     </g>
    </g>
    <g id="text_11">
     <!-- step -->
     <g style="fill: #262626" transform="translate(289.269251 428.288531) scale(0.252 -0.252)">
      <defs>
       <path id="DejaVuSans-73" d="M 2834 3397 
L 2834 2853 
Q 2591 2978 2328 3040 
Q 2066 3103 1784 3103 
Q 1356 3103 1142 2972 
Q 928 2841 928 2578 
Q 928 2378 1081 2264 
Q 1234 2150 1697 2047 
L 1894 2003 
Q 2506 1872 2764 1633 
Q 3022 1394 3022 966 
Q 3022 478 2636 193 
Q 2250 -91 1575 -91 
Q 1294 -91 989 -36 
Q 684 19 347 128 
L 347 722 
Q 666 556 975 473 
Q 1284 391 1588 391 
Q 1994 391 2212 530 
Q 2431 669 2431 922 
Q 2431 1156 2273 1281 
Q 2116 1406 1581 1522 
L 1381 1569 
Q 847 1681 609 1914 
Q 372 2147 372 2553 
Q 372 3047 722 3315 
Q 1072 3584 1716 3584 
Q 2034 3584 2315 3537 
Q 2597 3491 2834 3397 
z
" transform="scale(0.015625)"/>
       <path id="DejaVuSans-74" d="M 1172 4494 
L 1172 3500 
L 2356 3500 
L 2356 3053 
L 1172 3053 
L 1172 1153 
Q 1172 725 1289 603 
Q 1406 481 1766 481 
L 2356 481 
L 2356 0 
L 1766 0 
Q 1100 0 847 248 
Q 594 497 594 1153 
L 594 3053 
L 172 3053 
L 172 3500 
L 594 3500 
L 594 4494 
L 1172 4494 
z
" transform="scale(0.015625)"/>
       <path id="DejaVuSans-70" d="M 1159 525 
L 1159 -1331 
L 581 -1331 
L 581 3500 
L 1159 3500 
L 1159 2969 
Q 1341 3281 1617 3432 
Q 1894 3584 2278 3584 
Q 2916 3584 3314 3078 
Q 3713 2572 3713 1747 
Q 3713 922 3314 415 
Q 2916 -91 2278 -91 
Q 1894 -91 1617 61 
Q 1341 213 1159 525 
z
M 3116 1747 
Q 3116 2381 2855 2742 
Q 2594 3103 2138 3103 
Q 1681 3103 1420 2742 
Q 1159 2381 1159 1747 
Q 1159 1113 1420 752 
Q 1681 391 2138 391 
Q 2594 391 2855 752 
Q 3116 1113 3116 1747 
z
" transform="scale(0.015625)"/>
      </defs>
      <use xlink:href="#DejaVuSans-73"/>
      <use xlink:href="#DejaVuSans-74" x="52.099609"/>
      <use xlink:href="#DejaVuSans-65" x="91.308594"/>
      <use xlink:href="#DejaVuSans-70" x="152.832031"/>
     </g>
    </g>
   </g>
   <g id="matplotlib.axis_8">
    <g id="ytick_7">
     <g id="line2d_41">
      <path d="M 170.340091 365.190556 
L 462.70916 365.190556 
" clip-path="url(#pb7c621b533)" style="fill: none; stroke: #ffffff; stroke-linecap: round"/>
     </g>
     <g id="text_12">
      <!-- −0.2 -->
      <g style="fill: #262626" transform="translate(104.746794 373.966751) scale(0.231 -0.231)">
       <use xlink:href="#DejaVuSans-2212"/>
       <use xlink:href="#DejaVuSans-30" x="83.789062"/>
       <use xlink:href="#DejaVuSans-2e" x="147.412109"/>
       <use xlink:href="#DejaVuSans-32" x="179.199219"/>
      </g>
     </g>
    </g>
    <g id="ytick_8">
     <g id="line2d_42">
      <path d="M 170.340091 261.764142 
L 462.70916 261.764142 
" clip-path="url(#pb7c621b533)" style="fill: none; stroke: #ffffff; stroke-linecap: round"/>
     </g>
     <g id="text_13">
      <!-- 0.0 -->
      <g style="fill: #262626" transform="translate(124.103872 270.540337) scale(0.231 -0.231)">
       <use xlink:href="#DejaVuSans-30"/>
       <use xlink:href="#DejaVuSans-2e" x="63.623047"/>
       <use xlink:href="#DejaVuSans-30" x="95.410156"/>
      </g>
     </g>
    </g>
    <g id="text_14">
     <!-- % change -->
     <g style="fill: #262626" transform="translate(95.505982 377.21718) rotate(-90) scale(0.252 -0.252)">
      <use xlink:href="#DejaVuSans-25"/>
      <use xlink:href="#DejaVuSans-20" x="95.019531"/>
      <use xlink:href="#DejaVuSans-63" x="126.806641"/>
      <use xlink:href="#DejaVuSans-68" x="181.787109"/>
      <use xlink:href="#DejaVuSans-61" x="245.166016"/>
      <use xlink:href="#DejaVuSans-6e" x="306.445312"/>
      <use xlink:href="#DejaVuSans-67" x="369.824219"/>
      <use xlink:href="#DejaVuSans-65" x="433.300781"/>
     </g>
    </g>
   </g>
   <g id="PolyCollection_19"/>
   <g id="PolyCollection_20"/>
   <g id="PolyCollection_21"/>
   <g id="PolyCollection_22"/>
   <g id="PolyCollection_23"/>
   <g id="PolyCollection_24"/>
   <g id="line2d_43">
    <path d="M 183.629594 261.764142 
L 186.546358 267.729259 
L 192.015289 278.769346 
L 195.296648 284.867738 
L 198.942602 291.154692 
L 202.588556 296.961794 
L 206.23451 302.32254 
L 209.880465 307.268026 
L 213.526419 311.827164 
L 217.172373 316.026848 
L 220.818327 319.892087 
L 224.464282 323.44613 
L 228.110236 326.711048 
L 232.120785 329.992746 
L 236.131335 332.973994 
L 240.141885 335.678119 
L 244.152434 338.126515 
L 248.527579 340.528738 
L 252.902725 342.673154 
L 257.27787 344.581198 
L 262.01761 346.408527 
L 267.121946 348.126469 
L 272.226282 349.612131 
L 277.695213 350.97366 
L 283.52874 352.190673 
L 289.726862 353.247102 
L 296.28958 354.131213 
L 303.216893 354.835395 
L 310.508801 355.355883 
L 318.529901 355.703677 
L 328.373977 355.890487 
L 340.04103 355.894075 
L 365.198115 355.570254 
L 449.419657 354.425677 
L 449.419657 354.425677 
" clip-path="url(#pb7c621b533)" style="fill: none; stroke: #4c72b0; stroke-opacity: 0.9; stroke-width: 3; stroke-linecap: round"/>
   </g>
   <g id="line2d_44">
    <path d="M 183.629594 261.764142 
L 186.181762 264.641933 
L 192.379884 271.577021 
L 196.390434 275.657947 
L 200.400984 279.402013 
L 204.411533 282.835103 
L 208.422083 285.980989 
L 212.432633 288.861663 
L 216.807778 291.725585 
L 221.182923 294.322269 
L 225.558068 296.67391 
L 230.297808 298.968533 
L 235.037549 301.023027 
L 240.141885 302.99163 
L 245.610816 304.847572 
L 251.079747 306.468099 
L 256.913274 307.96432 
L 263.111396 309.320279 
L 269.674114 310.524391 
L 276.966022 311.622593 
L 284.622526 312.54997 
L 293.008221 313.339783 
L 302.123107 313.971974 
L 312.331778 314.447683 
L 323.634236 314.742326 
L 338.582649 314.8872 
L 359.364588 314.837632 
L 414.418497 314.480734 
L 449.419657 314.178466 
L 449.419657 314.178466 
" clip-path="url(#pb7c621b533)" style="fill: none; stroke: #dd8452; stroke-opacity: 0.9; stroke-width: 3; stroke-linecap: round"/>
   </g>
   <g id="line2d_45">
    <path d="M 183.629594 261.764142 
L 185.452571 265.723643 
L 192.015289 279.990821 
L 195.296648 286.534231 
L 198.578007 292.627788 
L 201.859365 298.300106 
L 205.50532 304.141106 
L 209.151274 309.529563 
L 212.797228 314.497207 
L 216.443182 319.07321 
L 220.089136 323.284728 
L 223.735091 327.15711 
L 227.381045 330.713875 
L 231.026999 333.976884 
L 234.672953 336.96652 
L 238.683503 339.96227 
L 242.694053 342.674304 
L 246.704602 345.124408 
L 251.079747 347.522647 
L 255.454892 349.657913 
L 259.830038 351.553038 
L 264.569778 353.35912 
L 269.309519 354.931443 
L 274.413854 356.388542 
L 279.882786 357.705352 
L 285.351717 358.797931 
L 291.185244 359.746347 
L 297.747961 360.580433 
L 304.675275 361.22789 
L 311.967183 361.685624 
L 319.988282 361.962196 
L 329.832359 362.056561 
L 343.686985 361.935799 
L 449.419657 360.635515 
L 449.419657 360.635515 
" clip-path="url(#pb7c621b533)" style="fill: none; stroke: #55a868; stroke-opacity: 0.9; stroke-width: 3; stroke-linecap: round"/>
   </g>
   <g id="line2d_46">
    <path d="M 183.629594 261.764142 
L 185.817167 265.513203 
L 192.015289 276.104748 
L 195.661243 281.804415 
L 199.307197 287.070703 
L 202.953152 291.934026 
L 206.599106 296.422505 
L 210.24506 300.562244 
L 213.891014 304.377496 
L 217.536969 307.890804 
L 221.547518 311.431705 
L 225.558068 314.65853 
L 229.568617 317.595208 
L 233.579167 320.263843 
L 237.954312 322.893437 
L 242.329457 325.253121 
L 246.704602 327.365519 
L 251.444343 329.399133 
L 256.184083 331.191866 
L 261.288419 332.878937 
L 266.392755 334.338368 
L 271.861686 335.675672 
L 277.695213 336.872279 
L 283.893335 337.914508 
L 290.456053 338.794357 
L 297.747961 339.540264 
L 305.404465 340.100329 
L 313.79016 340.491013 
L 323.269641 340.700378 
L 335.30129 340.727818 
L 369.208664 340.454324 
L 449.419657 339.626156 
L 449.419657 339.626156 
" clip-path="url(#pb7c621b533)" style="fill: none; stroke: #c44e52; stroke-opacity: 0.9; stroke-width: 3; stroke-linecap: round"/>
   </g>
   <g id="line2d_47">
    <path d="M 183.629594 261.764142 
L 186.181762 266.795174 
L 192.015289 278.164044 
L 195.661243 284.669078 
L 199.307197 290.68109 
L 202.953152 296.234754 
L 206.599106 301.362207 
L 210.24506 306.093227 
L 213.891014 310.455465 
L 217.536969 314.474609 
L 221.182923 318.174524 
L 224.828877 321.577355 
L 228.839427 325.001841 
L 232.849976 328.117049 
L 236.860526 330.946356 
L 240.871076 333.511356 
L 245.246221 336.031512 
L 249.621366 338.284747 
L 253.996511 340.292944 
L 258.736251 342.215226 
L 263.475992 343.896898 
L 268.580328 345.464041 
L 273.684664 346.801958 
L 279.153595 348.005934 
L 284.987122 349.05616 
L 291.185244 349.940528 
L 297.747961 350.647841 
L 304.675275 351.17002 
L 312.331778 351.514326 
L 320.717473 351.655359 
L 330.56155 351.593693 
L 343.322389 351.287645 
L 360.093779 350.654919 
L 391.08439 349.427659 
L 416.606069 348.722612 
L 449.419657 348.007243 
L 449.419657 348.007243 
" clip-path="url(#pb7c621b533)" style="fill: none; stroke: #8172b3; stroke-opacity: 0.9; stroke-width: 3; stroke-linecap: round"/>
   </g>
   <g id="line2d_48">
    <path d="M 183.629594 261.764142 
L 186.910953 266.932404 
L 192.379884 275.378619 
L 196.025839 280.525226 
L 199.671793 285.282624 
L 203.317747 289.678264 
L 206.963701 293.737602 
L 210.609655 297.484266 
L 214.620205 301.270597 
L 218.630755 304.732081 
L 222.641304 307.893563 
L 226.651854 310.777948 
L 230.662404 313.406355 
L 235.037549 316.004638 
L 239.412694 318.344727 
L 244.152434 320.613091 
L 248.892175 322.628111 
L 253.631915 324.412437 
L 258.736251 326.100062 
L 264.205183 327.664781 
L 269.674114 329.002811 
L 275.507641 330.206213 
L 281.705763 331.259226 
L 288.26848 332.152871 
L 295.560389 332.913581 
L 303.216893 333.484858 
L 311.602588 333.881844 
L 320.717473 334.086375 
L 332.384527 334.107553 
L 346.968344 333.910753 
L 366.656496 333.400099 
L 392.542771 332.745209 
L 449.419657 331.592652 
L 449.419657 331.592652 
" clip-path="url(#pb7c621b533)" style="fill: none; stroke: #937860; stroke-opacity: 0.9; stroke-width: 3; stroke-linecap: round"/>
   </g>
   <g id="patch_12">
    <path d="M 170.340091 373.284 
L 170.340091 256.453673 
" style="fill: none; stroke: #ffffff; stroke-width: 1.25; stroke-linejoin: miter; stroke-linecap: square"/>
   </g>
   <g id="patch_13">
    <path d="M 170.340091 373.284 
L 462.70916 373.284 
" style="fill: none; stroke: #ffffff; stroke-width: 1.25; stroke-linejoin: miter; stroke-linecap: square"/>
   </g>
   <g id="text_15">
    <!-- 0.85~365 -->
    <g style="fill: #262626" transform="translate(253.861282 250.453673) scale(0.252 -0.252)">
     <use xlink:href="#DejaVuSans-30"/>
     <use xlink:href="#DejaVuSans-2e" x="63.623047"/>
     <use xlink:href="#DejaVuSans-38" x="95.410156"/>
     <use xlink:href="#DejaVuSans-35" x="159.033203"/>
     <use xlink:href="#DejaVuSans-7e" x="222.65625"/>
     <use xlink:href="#DejaVuSans-33" x="306.445312"/>
     <use xlink:href="#DejaVuSans-36" x="370.068359"/>
     <use xlink:href="#DejaVuSans-35" x="433.691406"/>
    </g>
   </g>
  </g>
  <g id="axes_5">
   <g id="patch_14">
    <path d="M 489.290298 373.284 
L 781.659367 373.284 
L 781.659367 256.453673 
L 489.290298 256.453673 
z
" style="fill: #eaeaf2"/>
   </g>
   <g id="matplotlib.axis_9">
    <g id="xtick_17">
     <g id="line2d_49">
      <path d="M 502.579801 373.284 
L 502.579801 256.453673 
" clip-path="url(#p1435ca9087)" style="fill: none; stroke: #ffffff; stroke-linecap: round"/>
     </g>
     <g id="text_16">
      <!-- 0 -->
      <g style="fill: #262626" transform="translate(495.231113 400.336391) scale(0.231 -0.231)">
       <use xlink:href="#DejaVuSans-30"/>
      </g>
     </g>
    </g>
    <g id="xtick_18">
     <g id="line2d_50">
      <path d="M 593.728656 373.284 
L 593.728656 256.453673 
" clip-path="url(#p1435ca9087)" style="fill: none; stroke: #ffffff; stroke-linecap: round"/>
     </g>
     <g id="text_17">
      <!-- 250 -->
      <g style="fill: #262626" transform="translate(571.682594 400.336391) scale(0.231 -0.231)">
       <use xlink:href="#DejaVuSans-32"/>
       <use xlink:href="#DejaVuSans-35" x="63.623047"/>
       <use xlink:href="#DejaVuSans-30" x="127.246094"/>
      </g>
     </g>
    </g>
    <g id="xtick_19">
     <g id="line2d_51">
      <path d="M 684.877512 373.284 
L 684.877512 256.453673 
" clip-path="url(#p1435ca9087)" style="fill: none; stroke: #ffffff; stroke-linecap: round"/>
     </g>
     <g id="text_18">
      <!-- 500 -->
      <g style="fill: #262626" transform="translate(662.83145 400.336391) scale(0.231 -0.231)">
       <use xlink:href="#DejaVuSans-35"/>
       <use xlink:href="#DejaVuSans-30" x="63.623047"/>
       <use xlink:href="#DejaVuSans-30" x="127.246094"/>
      </g>
     </g>
    </g>
    <g id="xtick_20">
     <g id="line2d_52">
      <path d="M 776.026368 373.284 
L 776.026368 256.453673 
" clip-path="url(#p1435ca9087)" style="fill: none; stroke: #ffffff; stroke-linecap: round"/>
     </g>
     <g id="text_19">
      <!-- 750 -->
      <g style="fill: #262626" transform="translate(753.980305 400.336391) scale(0.231 -0.231)">
       <use xlink:href="#DejaVuSans-37"/>
       <use xlink:href="#DejaVuSans-35" x="63.623047"/>
       <use xlink:href="#DejaVuSans-30" x="127.246094"/>
      </g>
     </g>
    </g>
    <g id="text_20">
     <!-- step -->
     <g style="fill: #262626" transform="translate(608.219457 428.288531) scale(0.252 -0.252)">
      <use xlink:href="#DejaVuSans-73"/>
      <use xlink:href="#DejaVuSans-74" x="52.099609"/>
      <use xlink:href="#DejaVuSans-65" x="91.308594"/>
      <use xlink:href="#DejaVuSans-70" x="152.832031"/>
     </g>
    </g>
   </g>
   <g id="matplotlib.axis_10">
    <g id="ytick_9">
     <g id="line2d_53">
      <path d="M 489.290298 365.190556 
L 781.659367 365.190556 
" clip-path="url(#p1435ca9087)" style="fill: none; stroke: #ffffff; stroke-linecap: round"/>
     </g>
    </g>
    <g id="ytick_10">
     <g id="line2d_54">
      <path d="M 489.290298 261.764142 
L 781.659367 261.764142 
" clip-path="url(#p1435ca9087)" style="fill: none; stroke: #ffffff; stroke-linecap: round"/>
     </g>
    </g>
   </g>
   <g id="PolyCollection_25"/>
   <g id="PolyCollection_26"/>
   <g id="PolyCollection_27"/>
   <g id="PolyCollection_28"/>
   <g id="PolyCollection_29"/>
   <g id="PolyCollection_30"/>
   <g id="line2d_55">
    <path d="M 502.579801 261.764142 
L 505.86116 268.446759 
L 510.6009 277.849289 
L 513.882259 283.781221 
L 517.163618 289.226447 
L 520.444976 294.216635 
L 523.726335 298.78207 
L 527.007694 302.95134 
L 530.289053 306.750339 
L 533.570412 310.202806 
L 536.85177 313.331012 
L 540.133129 316.161644 
L 543.414488 318.720068 
L 547.060442 321.264758 
L 550.706397 323.520997 
L 554.352351 325.512318 
L 557.998305 327.257841 
L 561.644259 328.77539 
L 565.654809 330.201191 
L 569.665358 331.391872 
L 574.040504 332.445124 
L 578.415649 333.264114 
L 583.155389 333.911252 
L 588.259725 334.364901 
L 594.457847 334.677926 
L 601.020565 334.775721 
L 610.864641 334.642147 
L 623.990076 334.251983 
L 645.501206 333.375538 
L 668.470718 332.171387 
L 768.369864 326.469647 
L 768.369864 326.469647 
" clip-path="url(#p1435ca9087)" style="fill: none; stroke: #4c72b0; stroke-opacity: 0.9; stroke-width: 3; stroke-linecap: round"/>
   </g>
   <g id="line2d_56">
    <path d="M 502.579801 261.764142 
L 505.496564 265.046304 
L 510.965495 271.075698 
L 514.61145 274.708878 
L 518.257404 278.021521 
L 521.903358 281.036599 
L 525.549312 283.775102 
L 529.195267 286.256494 
L 533.205816 288.711567 
L 537.216366 290.901079 
L 541.226916 292.846258 
L 545.602061 294.712714 
L 549.977206 296.338112 
L 554.716946 297.859301 
L 559.821282 299.250275 
L 564.925618 300.411498 
L 570.394549 301.426506 
L 576.228076 302.275793 
L 582.426198 302.94436 
L 588.988916 303.423588 
L 597.010015 303.777747 
L 606.124901 303.948968 
L 619.979527 303.965286 
L 635.65713 303.747397 
L 661.17881 303.131492 
L 687.794275 302.310048 
L 739.566825 300.412239 
L 768.369864 299.331855 
L 768.369864 299.331855 
" clip-path="url(#p1435ca9087)" style="fill: none; stroke: #dd8452; stroke-opacity: 0.9; stroke-width: 3; stroke-linecap: round"/>
   </g>
   <g id="line2d_57">
    <path d="M 502.579801 261.764142 
L 504.767373 266.516064 
L 510.236305 278.267682 
L 513.517663 284.69728 
L 516.799022 290.599532 
L 520.080381 296.009302 
L 523.36174 300.959205 
L 526.643099 305.479024 
L 529.924457 309.597667 
L 533.205816 313.351038 
L 536.487175 316.775046 
L 539.768534 319.902621 
L 543.414488 323.061365 
L 547.060442 325.921969 
L 550.706397 328.500322 
L 554.352351 330.806869 
L 557.998305 332.853889 
L 561.644259 334.655496 
L 565.654809 336.380848 
L 569.665358 337.861133 
L 573.675908 339.113038 
L 578.051053 340.234986 
L 582.426198 341.118777 
L 586.801343 341.78118 
L 591.905679 342.316024 
L 597.374611 342.648169 
L 603.208137 342.776941 
L 610.500046 342.704926 
L 618.885741 342.389973 
L 636.021725 341.463566 
L 683.054535 338.959216 
L 765.817696 334.567101 
L 768.369864 334.428429 
L 768.369864 334.428429 
" clip-path="url(#p1435ca9087)" style="fill: none; stroke: #55a868; stroke-opacity: 0.9; stroke-width: 3; stroke-linecap: round"/>
   </g>
   <g id="line2d_58">
    <path d="M 502.579801 261.764142 
L 504.767373 265.502113 
L 510.236305 274.746832 
L 513.517663 279.804809 
L 516.799022 284.447599 
L 520.080381 288.702353 
L 523.36174 292.594085 
L 526.643099 296.146047 
L 529.924457 299.388362 
L 533.205816 302.349263 
L 536.85177 305.329142 
L 540.497725 308.013246 
L 544.143679 310.433068 
L 548.154229 312.82284 
L 552.164778 314.940934 
L 556.175328 316.799499 
L 560.185878 318.411703 
L 564.561023 319.915152 
L 568.936168 321.180041 
L 573.311313 322.224685 
L 578.051053 323.12477 
L 582.790794 323.799954 
L 587.89513 324.297117 
L 593.364061 324.608965 
L 599.562183 324.738853 
L 607.947878 324.664951 
L 619.979527 324.319884 
L 653.886901 323.019653 
L 721.337054 320.204846 
L 768.369864 318.108291 
L 768.369864 318.108291 
" clip-path="url(#p1435ca9087)" style="fill: none; stroke: #c44e52; stroke-opacity: 0.9; stroke-width: 3; stroke-linecap: round"/>
   </g>
   <g id="line2d_59">
    <path d="M 502.579801 261.764142 
L 505.496564 267.494273 
L 510.236305 276.611671 
L 513.517663 282.38396 
L 516.799022 287.685061 
L 520.080381 292.54579 
L 523.36174 296.994714 
L 526.643099 301.058409 
L 529.924457 304.761709 
L 533.205816 308.127795 
L 536.487175 311.178442 
L 539.768534 313.933774 
L 543.049893 316.412577 
L 546.331251 318.633367 
L 549.977206 320.818633 
L 553.62316 322.72685 
L 557.269114 324.378466 
L 560.915068 325.796341 
L 564.925618 327.106593 
L 568.936168 328.175042 
L 572.946717 329.020381 
L 577.321862 329.7085 
L 581.697007 330.17267 
L 586.436748 330.454251 
L 591.905679 330.547795 
L 598.103801 330.423269 
L 605.031114 330.06198 
L 613.416809 329.390768 
L 659.355832 325.215884 
L 680.502367 323.726814 
L 708.211619 321.97908 
L 768.369864 318.559262 
L 768.369864 318.559262 
" clip-path="url(#p1435ca9087)" style="fill: none; stroke: #8172b3; stroke-opacity: 0.9; stroke-width: 3; stroke-linecap: round"/>
   </g>
   <g id="line2d_60">
    <path d="M 502.579801 261.764142 
L 506.225755 267.47826 
L 510.6009 274.141274 
L 513.882259 278.707844 
L 517.163618 282.904685 
L 520.444976 286.756135 
L 523.726335 290.284886 
L 527.007694 293.511949 
L 530.289053 296.456822 
L 533.935007 299.420018 
L 537.580961 302.081154 
L 541.226916 304.462368 
L 544.87287 306.583579 
L 548.518824 308.46324 
L 552.529374 310.272295 
L 556.539923 311.832402 
L 560.550473 313.166069 
L 564.925618 314.383805 
L 569.300763 315.375219 
L 574.040504 316.216287 
L 578.780244 316.836685 
L 583.88458 317.28228 
L 589.718107 317.550599 
L 596.64542 317.631967 
L 604.301924 317.493176 
L 613.052214 317.09721 
L 627.271435 316.172548 
L 679.773176 312.734657 
L 721.70165 310.460512 
L 768.369864 308.094489 
L 768.369864 308.094489 
" clip-path="url(#p1435ca9087)" style="fill: none; stroke: #937860; stroke-opacity: 0.9; stroke-width: 3; stroke-linecap: round"/>
   </g>
   <g id="patch_15">
    <path d="M 489.290298 373.284 
L 489.290298 256.453673 
" style="fill: none; stroke: #ffffff; stroke-width: 1.25; stroke-linejoin: miter; stroke-linecap: square"/>
   </g>
   <g id="patch_16">
    <path d="M 489.290298 373.284 
L 781.659367 373.284 
" style="fill: none; stroke: #ffffff; stroke-width: 1.25; stroke-linejoin: miter; stroke-linecap: square"/>
   </g>
   <g id="text_21">
    <!-- 0.95~90 -->
    <g style="fill: #262626" transform="translate(580.828239 250.453673) scale(0.252 -0.252)">
     <use xlink:href="#DejaVuSans-30"/>
     <use xlink:href="#DejaVuSans-2e" x="63.623047"/>
     <use xlink:href="#DejaVuSans-39" x="95.410156"/>
     <use xlink:href="#DejaVuSans-35" x="159.033203"/>
     <use xlink:href="#DejaVuSans-7e" x="222.65625"/>
     <use xlink:href="#DejaVuSans-39" x="306.445312"/>
     <use xlink:href="#DejaVuSans-30" x="370.068359"/>
    </g>
   </g>
  </g>
  <g id="axes_6">
   <g id="patch_17">
    <path d="M 808.240504 373.284 
L 1100.609573 373.284 
L 1100.609573 256.453673 
L 808.240504 256.453673 
z
" style="fill: #eaeaf2"/>
   </g>
   <g id="matplotlib.axis_11">
    <g id="xtick_21">
     <g id="line2d_61">
      <path d="M 821.530007 373.284 
L 821.530007 256.453673 
" clip-path="url(#pe0e7f2f82a)" style="fill: none; stroke: #ffffff; stroke-linecap: round"/>
     </g>
     <g id="text_22">
      <!-- 0 -->
      <g style="fill: #262626" transform="translate(814.18132 400.336391) scale(0.231 -0.231)">
       <use xlink:href="#DejaVuSans-30"/>
      </g>
     </g>
    </g>
    <g id="xtick_22">
     <g id="line2d_62">
      <path d="M 912.678863 373.284 
L 912.678863 256.453673 
" clip-path="url(#pe0e7f2f82a)" style="fill: none; stroke: #ffffff; stroke-linecap: round"/>
     </g>
     <g id="text_23">
      <!-- 250 -->
      <g style="fill: #262626" transform="translate(890.6328 400.336391) scale(0.231 -0.231)">
       <use xlink:href="#DejaVuSans-32"/>
       <use xlink:href="#DejaVuSans-35" x="63.623047"/>
       <use xlink:href="#DejaVuSans-30" x="127.246094"/>
      </g>
     </g>
    </g>
    <g id="xtick_23">
     <g id="line2d_63">
      <path d="M 1003.827719 373.284 
L 1003.827719 256.453673 
" clip-path="url(#pe0e7f2f82a)" style="fill: none; stroke: #ffffff; stroke-linecap: round"/>
     </g>
     <g id="text_24">
      <!-- 500 -->
      <g style="fill: #262626" transform="translate(981.781656 400.336391) scale(0.231 -0.231)">
       <use xlink:href="#DejaVuSans-35"/>
       <use xlink:href="#DejaVuSans-30" x="63.623047"/>
       <use xlink:href="#DejaVuSans-30" x="127.246094"/>
      </g>
     </g>
    </g>
    <g id="xtick_24">
     <g id="line2d_64">
      <path d="M 1094.976574 373.284 
L 1094.976574 256.453673 
" clip-path="url(#pe0e7f2f82a)" style="fill: none; stroke: #ffffff; stroke-linecap: round"/>
     </g>
     <g id="text_25">
      <!-- 750 -->
      <g style="fill: #262626" transform="translate(1072.930512 400.336391) scale(0.231 -0.231)">
       <use xlink:href="#DejaVuSans-37"/>
       <use xlink:href="#DejaVuSans-35" x="63.623047"/>
       <use xlink:href="#DejaVuSans-30" x="127.246094"/>
      </g>
     </g>
    </g>
    <g id="text_26">
     <!-- step -->
     <g style="fill: #262626" transform="translate(927.169664 428.288531) scale(0.252 -0.252)">
      <use xlink:href="#DejaVuSans-73"/>
      <use xlink:href="#DejaVuSans-74" x="52.099609"/>
      <use xlink:href="#DejaVuSans-65" x="91.308594"/>
      <use xlink:href="#DejaVuSans-70" x="152.832031"/>
     </g>
    </g>
   </g>
   <g id="matplotlib.axis_12">
    <g id="ytick_11">
     <g id="line2d_65">
      <path d="M 808.240504 365.190556 
L 1100.609573 365.190556 
" clip-path="url(#pe0e7f2f82a)" style="fill: none; stroke: #ffffff; stroke-linecap: round"/>
     </g>
    </g>
    <g id="ytick_12">
     <g id="line2d_66">
      <path d="M 808.240504 261.764142 
L 1100.609573 261.764142 
" clip-path="url(#pe0e7f2f82a)" style="fill: none; stroke: #ffffff; stroke-linecap: round"/>
     </g>
    </g>
   </g>
   <g id="PolyCollection_31"/>
   <g id="PolyCollection_32"/>
   <g id="PolyCollection_33"/>
   <g id="PolyCollection_34"/>
   <g id="PolyCollection_35"/>
   <g id="PolyCollection_36"/>
   <g id="line2d_67">
    <path d="M 821.530007 261.764142 
L 824.446771 267.729259 
L 829.915702 278.769346 
L 833.197061 284.867738 
L 836.843015 291.154692 
L 840.488969 296.961794 
L 844.134923 302.32254 
L 847.780878 307.268026 
L 851.426832 311.827164 
L 855.072786 316.026848 
L 858.71874 319.892087 
L 862.364695 323.44613 
L 866.010649 326.711048 
L 870.021198 329.992746 
L 874.031748 332.973994 
L 878.042298 335.678119 
L 882.052847 338.126515 
L 886.427992 340.528738 
L 890.803138 342.673154 
L 895.178283 344.581198 
L 899.918023 346.408527 
L 905.022359 348.126469 
L 910.126695 349.612131 
L 915.595626 350.97366 
L 921.429153 352.190673 
L 927.627275 353.247102 
L 934.189993 354.131213 
L 941.117306 354.835395 
L 948.409214 355.355883 
L 956.430314 355.703677 
L 966.27439 355.890487 
L 977.941444 355.894075 
L 1003.098528 355.570254 
L 1087.32007 354.425677 
L 1087.32007 354.425677 
" clip-path="url(#pe0e7f2f82a)" style="fill: none; stroke: #4c72b0; stroke-opacity: 0.9; stroke-width: 3; stroke-linecap: round"/>
   </g>
   <g id="line2d_68">
    <path d="M 821.530007 261.764142 
L 824.082175 264.641933 
L 830.280297 271.577021 
L 834.290847 275.657947 
L 838.301397 279.402013 
L 842.311946 282.835103 
L 846.322496 285.980989 
L 850.333046 288.861663 
L 854.708191 291.725585 
L 859.083336 294.322269 
L 863.458481 296.67391 
L 868.198221 298.968533 
L 872.937962 301.023027 
L 878.042298 302.99163 
L 883.511229 304.847572 
L 888.98016 306.468099 
L 894.813687 307.96432 
L 901.011809 309.320279 
L 907.574527 310.524391 
L 914.866435 311.622593 
L 922.522939 312.54997 
L 930.908634 313.339783 
L 940.02352 313.971974 
L 950.232191 314.447683 
L 961.53465 314.742326 
L 976.483062 314.8872 
L 997.265001 314.837632 
L 1052.31891 314.480734 
L 1087.32007 314.178466 
L 1087.32007 314.178466 
" clip-path="url(#pe0e7f2f82a)" style="fill: none; stroke: #dd8452; stroke-opacity: 0.9; stroke-width: 3; stroke-linecap: round"/>
   </g>
   <g id="line2d_69">
    <path d="M 821.530007 261.764142 
L 823.352984 265.723643 
L 829.915702 279.990821 
L 833.197061 286.534231 
L 836.47842 292.627788 
L 839.759778 298.300106 
L 843.405733 304.141106 
L 847.051687 309.529569 
L 850.697641 314.503568 
L 854.343595 319.103266 
L 857.98955 323.365864 
L 862.000099 327.718665 
L 866.010649 331.754501 
L 870.021198 335.495668 
L 874.031748 338.95649 
L 878.042298 342.146385 
L 882.052847 345.075846 
L 886.427992 347.987524 
L 890.803138 350.628605 
L 895.178283 353.025343 
L 899.918023 355.365837 
L 904.657764 357.458821 
L 909.397504 359.320846 
L 914.50184 361.084755 
L 919.606176 362.613149 
L 924.710512 363.919724 
L 930.179443 365.089407 
L 935.648375 366.035956 
L 941.481901 366.815869 
L 947.315428 367.376304 
L 953.51355 367.751558 
L 960.440863 367.941939 
L 969.555749 367.954411 
L 984.868757 367.702862 
L 1049.402146 366.635927 
L 1087.32007 366.078321 
L 1087.32007 366.078321 
" clip-path="url(#pe0e7f2f82a)" style="fill: none; stroke: #55a868; stroke-opacity: 0.9; stroke-width: 3; stroke-linecap: round"/>
   </g>
   <g id="line2d_70">
    <path d="M 821.530007 261.764142 
L 823.71758 265.513203 
L 829.915702 276.104748 
L 833.561656 281.804415 
L 837.20761 287.070703 
L 840.853565 291.934026 
L 844.499519 296.422505 
L 848.145473 300.566809 
L 852.156023 304.773533 
L 856.166572 308.638792 
L 860.177122 312.19005 
L 864.552267 315.757751 
L 868.927412 319.037114 
L 873.302557 322.044692 
L 877.677702 324.789424 
L 882.052847 327.283614 
L 886.792588 329.718345 
L 891.532328 331.902388 
L 896.636664 333.998314 
L 901.741 335.849109 
L 906.845336 337.472354 
L 912.314267 338.975362 
L 917.783199 340.249805 
L 923.616726 341.376369 
L 929.450252 342.28026 
L 935.648375 343.016203 
L 942.211092 343.570655 
L 949.503001 343.957923 
L 957.888695 344.178312 
L 969.191153 344.228327 
L 990.337688 344.023852 
L 1087.32007 342.869855 
L 1087.32007 342.869855 
" clip-path="url(#pe0e7f2f82a)" style="fill: none; stroke: #c44e52; stroke-opacity: 0.9; stroke-width: 3; stroke-linecap: round"/>
   </g>
   <g id="line2d_71">
    <path d="M 821.530007 261.764142 
L 824.082175 266.795174 
L 829.915702 278.164044 
L 833.561656 284.669078 
L 837.20761 290.68109 
L 840.853565 296.234754 
L 844.499519 301.362207 
L 848.145473 306.093227 
L 851.791427 310.455465 
L 855.437382 314.474609 
L 859.083336 318.174524 
L 862.72929 321.577355 
L 866.73984 325.001841 
L 870.750389 328.117049 
L 874.760939 330.946356 
L 878.771489 333.511356 
L 883.146634 336.031512 
L 887.521779 338.284747 
L 891.896924 340.292944 
L 896.636664 342.215226 
L 901.376405 343.896898 
L 906.480741 345.464041 
L 911.585077 346.801958 
L 917.054008 348.005934 
L 922.887535 349.05616 
L 929.085657 349.940528 
L 935.648375 350.647841 
L 942.575688 351.17002 
L 950.232191 351.514326 
L 958.617886 351.655359 
L 968.461963 351.593693 
L 981.222802 351.287645 
L 997.994192 350.654919 
L 1028.984803 349.427659 
L 1054.506482 348.722612 
L 1087.32007 348.007243 
L 1087.32007 348.007243 
" clip-path="url(#pe0e7f2f82a)" style="fill: none; stroke: #8172b3; stroke-opacity: 0.9; stroke-width: 3; stroke-linecap: round"/>
   </g>
   <g id="line2d_72">
    <path d="M 821.530007 261.764142 
L 824.811366 266.932404 
L 830.280297 275.378619 
L 833.926252 280.525226 
L 837.572206 285.282624 
L 841.21816 289.678264 
L 844.864114 293.737602 
L 848.510069 297.484266 
L 852.520618 301.270597 
L 856.531168 304.732081 
L 860.541717 307.893563 
L 864.552267 310.777948 
L 868.562817 313.406355 
L 872.937962 316.004638 
L 877.313107 318.344727 
L 882.052847 320.613091 
L 886.792588 322.628111 
L 891.532328 324.412437 
L 896.636664 326.100062 
L 902.105596 327.664781 
L 907.574527 329.002811 
L 913.408054 330.206213 
L 919.606176 331.259226 
L 926.168894 332.152871 
L 933.460802 332.913581 
L 941.117306 333.484858 
L 949.503001 333.881844 
L 958.617886 334.086375 
L 970.28494 334.107553 
L 984.868757 333.910753 
L 1004.556909 333.400099 
L 1030.443184 332.745209 
L 1087.32007 331.592652 
L 1087.32007 331.592652 
" clip-path="url(#pe0e7f2f82a)" style="fill: none; stroke: #937860; stroke-opacity: 0.9; stroke-width: 3; stroke-linecap: round"/>
   </g>
   <g id="patch_18">
    <path d="M 808.240504 373.284 
L 808.240504 256.453673 
" style="fill: none; stroke: #ffffff; stroke-width: 1.25; stroke-linejoin: miter; stroke-linecap: square"/>
   </g>
   <g id="patch_19">
    <path d="M 808.240504 373.284 
L 1100.609573 373.284 
" style="fill: none; stroke: #ffffff; stroke-width: 1.25; stroke-linejoin: miter; stroke-linecap: square"/>
   </g>
   <g id="text_27">
    <!-- 0.95~365 -->
    <g style="fill: #262626" transform="translate(891.761695 250.453673) scale(0.252 -0.252)">
     <use xlink:href="#DejaVuSans-30"/>
     <use xlink:href="#DejaVuSans-2e" x="63.623047"/>
     <use xlink:href="#DejaVuSans-39" x="95.410156"/>
     <use xlink:href="#DejaVuSans-35" x="159.033203"/>
     <use xlink:href="#DejaVuSans-7e" x="222.65625"/>
     <use xlink:href="#DejaVuSans-33" x="306.445312"/>
     <use xlink:href="#DejaVuSans-36" x="370.068359"/>
     <use xlink:href="#DejaVuSans-35" x="433.691406"/>
    </g>
   </g>
  </g>
  <g id="text_28">
   <!-- Production change from pre-shock level -->
   <g style="fill: #262626" transform="translate(280.766836 30.177675) scale(0.3024 -0.3024)">
    <defs>
     <path id="DejaVuSans-50" d="M 1259 4147 
L 1259 2394 
L 2053 2394 
Q 2494 2394 2734 2622 
Q 2975 2850 2975 3272 
Q 2975 3691 2734 3919 
Q 2494 4147 2053 4147 
L 1259 4147 
z
M 628 4666 
L 2053 4666 
Q 2838 4666 3239 4311 
Q 3641 3956 3641 3272 
Q 3641 2581 3239 2228 
Q 2838 1875 2053 1875 
L 1259 1875 
L 1259 0 
L 628 0 
L 628 4666 
z
" transform="scale(0.015625)"/>
     <path id="DejaVuSans-72" d="M 2631 2963 
Q 2534 3019 2420 3045 
Q 2306 3072 2169 3072 
Q 1681 3072 1420 2755 
Q 1159 2438 1159 1844 
L 1159 0 
L 581 0 
L 581 3500 
L 1159 3500 
L 1159 2956 
Q 1341 3275 1631 3429 
Q 1922 3584 2338 3584 
Q 2397 3584 2469 3576 
Q 2541 3569 2628 3553 
L 2631 2963 
z
" transform="scale(0.015625)"/>
     <path id="DejaVuSans-6f" d="M 1959 3097 
Q 1497 3097 1228 2736 
Q 959 2375 959 1747 
Q 959 1119 1226 758 
Q 1494 397 1959 397 
Q 2419 397 2687 759 
Q 2956 1122 2956 1747 
Q 2956 2369 2687 2733 
Q 2419 3097 1959 3097 
z
M 1959 3584 
Q 2709 3584 3137 3096 
Q 3566 2609 3566 1747 
Q 3566 888 3137 398 
Q 2709 -91 1959 -91 
Q 1206 -91 779 398 
Q 353 888 353 1747 
Q 353 2609 779 3096 
Q 1206 3584 1959 3584 
z
" transform="scale(0.015625)"/>
     <path id="DejaVuSans-64" d="M 2906 2969 
L 2906 4863 
L 3481 4863 
L 3481 0 
L 2906 0 
L 2906 525 
Q 2725 213 2448 61 
Q 2172 -91 1784 -91 
Q 1150 -91 751 415 
Q 353 922 353 1747 
Q 353 2572 751 3078 
Q 1150 3584 1784 3584 
Q 2172 3584 2448 3432 
Q 2725 3281 2906 2969 
z
M 947 1747 
Q 947 1113 1208 752 
Q 1469 391 1925 391 
Q 2381 391 2643 752 
Q 2906 1113 2906 1747 
Q 2906 2381 2643 2742 
Q 2381 3103 1925 3103 
Q 1469 3103 1208 2742 
Q 947 2381 947 1747 
z
" transform="scale(0.015625)"/>
     <path id="DejaVuSans-75" d="M 544 1381 
L 544 3500 
L 1119 3500 
L 1119 1403 
Q 1119 906 1312 657 
Q 1506 409 1894 409 
Q 2359 409 2629 706 
Q 2900 1003 2900 1516 
L 2900 3500 
L 3475 3500 
L 3475 0 
L 2900 0 
L 2900 538 
Q 2691 219 2414 64 
Q 2138 -91 1772 -91 
Q 1169 -91 856 284 
Q 544 659 544 1381 
z
M 1991 3584 
L 1991 3584 
z
" transform="scale(0.015625)"/>
     <path id="DejaVuSans-69" d="M 603 3500 
L 1178 3500 
L 1178 0 
L 603 0 
L 603 3500 
z
M 603 4863 
L 1178 4863 
L 1178 4134 
L 603 4134 
L 603 4863 
z
" transform="scale(0.015625)"/>
     <path id="DejaVuSans-66" d="M 2375 4863 
L 2375 4384 
L 1825 4384 
Q 1516 4384 1395 4259 
Q 1275 4134 1275 3809 
L 1275 3500 
L 2222 3500 
L 2222 3053 
L 1275 3053 
L 1275 0 
L 697 0 
L 697 3053 
L 147 3053 
L 147 3500 
L 697 3500 
L 697 3744 
Q 697 4328 969 4595 
Q 1241 4863 1831 4863 
L 2375 4863 
z
" transform="scale(0.015625)"/>
     <path id="DejaVuSans-6d" d="M 3328 2828 
Q 3544 3216 3844 3400 
Q 4144 3584 4550 3584 
Q 5097 3584 5394 3201 
Q 5691 2819 5691 2113 
L 5691 0 
L 5113 0 
L 5113 2094 
Q 5113 2597 4934 2840 
Q 4756 3084 4391 3084 
Q 3944 3084 3684 2787 
Q 3425 2491 3425 1978 
L 3425 0 
L 2847 0 
L 2847 2094 
Q 2847 2600 2669 2842 
Q 2491 3084 2119 3084 
Q 1678 3084 1418 2786 
Q 1159 2488 1159 1978 
L 1159 0 
L 581 0 
L 581 3500 
L 1159 3500 
L 1159 2956 
Q 1356 3278 1631 3431 
Q 1906 3584 2284 3584 
Q 2666 3584 2933 3390 
Q 3200 3197 3328 2828 
z
" transform="scale(0.015625)"/>
     <path id="DejaVuSans-2d" d="M 313 2009 
L 1997 2009 
L 1997 1497 
L 313 1497 
L 313 2009 
z
" transform="scale(0.015625)"/>
     <path id="DejaVuSans-6b" d="M 581 4863 
L 1159 4863 
L 1159 1991 
L 2875 3500 
L 3609 3500 
L 1753 1863 
L 3688 0 
L 2938 0 
L 1159 1709 
L 1159 0 
L 581 0 
L 581 4863 
z
" transform="scale(0.015625)"/>
     <path id="DejaVuSans-6c" d="M 603 4863 
L 1178 4863 
L 1178 0 
L 603 0 
L 603 4863 
z
" transform="scale(0.015625)"/>
     <path id="DejaVuSans-76" d="M 191 3500 
L 800 3500 
L 1894 563 
L 2988 3500 
L 3597 3500 
L 2284 0 
L 1503 0 
L 191 3500 
z
" transform="scale(0.015625)"/>
    </defs>
    <use xlink:href="#DejaVuSans-50"/>
    <use xlink:href="#DejaVuSans-72" x="58.552734"/>
    <use xlink:href="#DejaVuSans-6f" x="97.416016"/>
    <use xlink:href="#DejaVuSans-64" x="158.597656"/>
    <use xlink:href="#DejaVuSans-75" x="222.074219"/>
    <use xlink:href="#DejaVuSans-63" x="285.453125"/>
    <use xlink:href="#DejaVuSans-74" x="340.433594"/>
    <use xlink:href="#DejaVuSans-69" x="379.642578"/>
    <use xlink:href="#DejaVuSans-6f" x="407.425781"/>
    <use xlink:href="#DejaVuSans-6e" x="468.607422"/>
    <use xlink:href="#DejaVuSans-20" x="531.986328"/>
    <use xlink:href="#DejaVuSans-63" x="563.773438"/>
    <use xlink:href="#DejaVuSans-68" x="618.753906"/>
    <use xlink:href="#DejaVuSans-61" x="682.132812"/>
    <use xlink:href="#DejaVuSans-6e" x="743.412109"/>
    <use xlink:href="#DejaVuSans-67" x="806.791016"/>
    <use xlink:href="#DejaVuSans-65" x="870.267578"/>
    <use xlink:href="#DejaVuSans-20" x="931.791016"/>
    <use xlink:href="#DejaVuSans-66" x="963.578125"/>
    <use xlink:href="#DejaVuSans-72" x="998.783203"/>
    <use xlink:href="#DejaVuSans-6f" x="1037.646484"/>
    <use xlink:href="#DejaVuSans-6d" x="1098.828125"/>
    <use xlink:href="#DejaVuSans-20" x="1196.240234"/>
    <use xlink:href="#DejaVuSans-70" x="1228.027344"/>
    <use xlink:href="#DejaVuSans-72" x="1291.503906"/>
    <use xlink:href="#DejaVuSans-65" x="1330.367188"/>
    <use xlink:href="#DejaVuSans-2d" x="1391.890625"/>
    <use xlink:href="#DejaVuSans-73" x="1427.974609"/>
    <use xlink:href="#DejaVuSans-68" x="1480.074219"/>
    <use xlink:href="#DejaVuSans-6f" x="1543.453125"/>
    <use xlink:href="#DejaVuSans-63" x="1604.634766"/>
    <use xlink:href="#DejaVuSans-6b" x="1659.615234"/>
    <use xlink:href="#DejaVuSans-20" x="1717.525391"/>
    <use xlink:href="#DejaVuSans-6c" x="1749.3125"/>
    <use xlink:href="#DejaVuSans-65" x="1777.095703"/>
    <use xlink:href="#DejaVuSans-76" x="1838.619141"/>
    <use xlink:href="#DejaVuSans-65" x="1897.798828"/>
    <use xlink:href="#DejaVuSans-6c" x="1959.322266"/>
   </g>
  </g>
  <g id="legend_1">
   <g id="patch_20">
    <path d="M 11.82 584.31675 
L 1292.617547 584.31675 
Q 1297.237547 584.31675 1297.237547 579.69675 
L 1297.237547 476.97 
Q 1297.237547 472.35 1292.617547 472.35 
L 11.82 472.35 
Q 7.2 472.35 7.2 476.97 
L 7.2 579.69675 
Q 7.2 584.31675 11.82 584.31675 
z
" style="fill: #eaeaf2; opacity: 0.8; stroke: #cccccc; stroke-linejoin: miter"/>
   </g>
   <g id="text_29">
    <!-- Experiences -->
    <g style="fill: #262626" transform="translate(575.384367 500.738062) scale(0.252 -0.252)">
     <defs>
      <path id="DejaVuSans-45" d="M 628 4666 
L 3578 4666 
L 3578 4134 
L 1259 4134 
L 1259 2753 
L 3481 2753 
L 3481 2222 
L 1259 2222 
L 1259 531 
L 3634 531 
L 3634 0 
L 628 0 
L 628 4666 
z
" transform="scale(0.015625)"/>
      <path id="DejaVuSans-78" d="M 3513 3500 
L 2247 1797 
L 3578 0 
L 2900 0 
L 1881 1375 
L 863 0 
L 184 0 
L 1544 1831 
L 300 3500 
L 978 3500 
L 1906 2253 
L 2834 3500 
L 3513 3500 
z
" transform="scale(0.015625)"/>
     </defs>
     <use xlink:href="#DejaVuSans-45"/>
     <use xlink:href="#DejaVuSans-78" x="63.183594"/>
     <use xlink:href="#DejaVuSans-70" x="122.363281"/>
     <use xlink:href="#DejaVuSans-65" x="185.839844"/>
     <use xlink:href="#DejaVuSans-72" x="247.363281"/>
     <use xlink:href="#DejaVuSans-69" x="288.476562"/>
     <use xlink:href="#DejaVuSans-65" x="316.259766"/>
     <use xlink:href="#DejaVuSans-6e" x="377.783203"/>
     <use xlink:href="#DejaVuSans-63" x="441.162109"/>
     <use xlink:href="#DejaVuSans-65" x="496.142578"/>
     <use xlink:href="#DejaVuSans-73" x="557.666016"/>
    </g>
   </g>
   <g id="line2d_73">
    <path d="M 16.44 526.996266 
L 39.54 526.996266 
L 62.64 526.996266 
" style="fill: none; stroke: #4c72b0; stroke-opacity: 0.9; stroke-width: 3; stroke-linecap: round"/>
   </g>
   <g id="text_30">
    <!-- eora26_full_2000 -->
    <g style="fill: #262626" transform="translate(81.12 535.081266) scale(0.231 -0.231)">
     <defs>
      <path id="DejaVuSans-5f" d="M 3263 -1063 
L 3263 -1509 
L -63 -1509 
L -63 -1063 
L 3263 -1063 
z
" transform="scale(0.015625)"/>
     </defs>
     <use xlink:href="#DejaVuSans-65"/>
     <use xlink:href="#DejaVuSans-6f" x="61.523438"/>
     <use xlink:href="#DejaVuSans-72" x="122.705078"/>
     <use xlink:href="#DejaVuSans-61" x="163.818359"/>
     <use xlink:href="#DejaVuSans-32" x="225.097656"/>
     <use xlink:href="#DejaVuSans-36" x="288.720703"/>
     <use xlink:href="#DejaVuSans-5f" x="352.34375"/>
     <use xlink:href="#DejaVuSans-66" x="402.34375"/>
     <use xlink:href="#DejaVuSans-75" x="437.548828"/>
     <use xlink:href="#DejaVuSans-6c" x="500.927734"/>
     <use xlink:href="#DejaVuSans-6c" x="528.710938"/>
     <use xlink:href="#DejaVuSans-5f" x="556.494141"/>
     <use xlink:href="#DejaVuSans-32" x="606.494141"/>
     <use xlink:href="#DejaVuSans-30" x="670.117188"/>
     <use xlink:href="#DejaVuSans-30" x="733.740234"/>
     <use xlink:href="#DejaVuSans-30" x="797.363281"/>
    </g>
   </g>
   <g id="line2d_74">
    <path d="M 16.44 561.545203 
L 39.54 561.545203 
L 62.64 561.545203 
" style="fill: none; stroke: #dd8452; stroke-opacity: 0.9; stroke-width: 3; stroke-linecap: round"/>
   </g>
   <g id="text_31">
    <!-- eora26_full_2010 -->
    <g style="fill: #262626" transform="translate(81.12 569.630203) scale(0.231 -0.231)">
     <defs>
      <path id="DejaVuSans-31" d="M 794 531 
L 1825 531 
L 1825 4091 
L 703 3866 
L 703 4441 
L 1819 4666 
L 2450 4666 
L 2450 531 
L 3481 531 
L 3481 0 
L 794 0 
L 794 531 
z
" transform="scale(0.015625)"/>
     </defs>
     <use xlink:href="#DejaVuSans-65"/>
     <use xlink:href="#DejaVuSans-6f" x="61.523438"/>
     <use xlink:href="#DejaVuSans-72" x="122.705078"/>
     <use xlink:href="#DejaVuSans-61" x="163.818359"/>
     <use xlink:href="#DejaVuSans-32" x="225.097656"/>
     <use xlink:href="#DejaVuSans-36" x="288.720703"/>
     <use xlink:href="#DejaVuSans-5f" x="352.34375"/>
     <use xlink:href="#DejaVuSans-66" x="402.34375"/>
     <use xlink:href="#DejaVuSans-75" x="437.548828"/>
     <use xlink:href="#DejaVuSans-6c" x="500.927734"/>
     <use xlink:href="#DejaVuSans-6c" x="528.710938"/>
     <use xlink:href="#DejaVuSans-5f" x="556.494141"/>
     <use xlink:href="#DejaVuSans-32" x="606.494141"/>
     <use xlink:href="#DejaVuSans-30" x="670.117188"/>
     <use xlink:href="#DejaVuSans-31" x="733.740234"/>
     <use xlink:href="#DejaVuSans-30" x="797.363281"/>
    </g>
   </g>
   <g id="line2d_75">
    <path d="M 326.211 526.996266 
L 349.311 526.996266 
L 372.411 526.996266 
" style="fill: none; stroke: #55a868; stroke-opacity: 0.9; stroke-width: 3; stroke-linecap: round"/>
   </g>
   <g id="text_32">
    <!-- euregio_full_2000 -->
    <g style="fill: #262626" transform="translate(390.891 535.081266) scale(0.231 -0.231)">
     <use xlink:href="#DejaVuSans-65"/>
     <use xlink:href="#DejaVuSans-75" x="61.523438"/>
     <use xlink:href="#DejaVuSans-72" x="124.902344"/>
     <use xlink:href="#DejaVuSans-65" x="163.765625"/>
     <use xlink:href="#DejaVuSans-67" x="225.289062"/>
     <use xlink:href="#DejaVuSans-69" x="288.765625"/>
     <use xlink:href="#DejaVuSans-6f" x="316.548828"/>
     <use xlink:href="#DejaVuSans-5f" x="377.730469"/>
     <use xlink:href="#DejaVuSans-66" x="427.730469"/>
     <use xlink:href="#DejaVuSans-75" x="462.935547"/>
     <use xlink:href="#DejaVuSans-6c" x="526.314453"/>
     <use xlink:href="#DejaVuSans-6c" x="554.097656"/>
     <use xlink:href="#DejaVuSans-5f" x="581.880859"/>
     <use xlink:href="#DejaVuSans-32" x="631.880859"/>
     <use xlink:href="#DejaVuSans-30" x="695.503906"/>
     <use xlink:href="#DejaVuSans-30" x="759.126953"/>
     <use xlink:href="#DejaVuSans-30" x="822.75"/>
    </g>
   </g>
   <g id="line2d_76">
    <path d="M 326.211 561.545203 
L 349.311 561.545203 
L 372.411 561.545203 
" style="fill: none; stroke: #c44e52; stroke-opacity: 0.9; stroke-width: 3; stroke-linecap: round"/>
   </g>
   <g id="text_33">
    <!-- euregio_full_2010 -->
    <g style="fill: #262626" transform="translate(390.891 569.630203) scale(0.231 -0.231)">
     <use xlink:href="#DejaVuSans-65"/>
     <use xlink:href="#DejaVuSans-75" x="61.523438"/>
     <use xlink:href="#DejaVuSans-72" x="124.902344"/>
     <use xlink:href="#DejaVuSans-65" x="163.765625"/>
     <use xlink:href="#DejaVuSans-67" x="225.289062"/>
     <use xlink:href="#DejaVuSans-69" x="288.765625"/>
     <use xlink:href="#DejaVuSans-6f" x="316.548828"/>
     <use xlink:href="#DejaVuSans-5f" x="377.730469"/>
     <use xlink:href="#DejaVuSans-66" x="427.730469"/>
     <use xlink:href="#DejaVuSans-75" x="462.935547"/>
     <use xlink:href="#DejaVuSans-6c" x="526.314453"/>
     <use xlink:href="#DejaVuSans-6c" x="554.097656"/>
     <use xlink:href="#DejaVuSans-5f" x="581.880859"/>
     <use xlink:href="#DejaVuSans-32" x="631.880859"/>
     <use xlink:href="#DejaVuSans-30" x="695.503906"/>
     <use xlink:href="#DejaVuSans-31" x="759.126953"/>
     <use xlink:href="#DejaVuSans-30" x="822.75"/>
    </g>
   </g>
   <g id="line2d_77">
    <path d="M 641.847234 526.996266 
L 664.947234 526.996266 
L 688.047234 526.996266 
" style="fill: none; stroke: #8172b3; stroke-opacity: 0.9; stroke-width: 3; stroke-linecap: round"/>
   </g>
   <g id="text_34">
    <!-- exiobase3_full_2000 -->
    <g style="fill: #262626" transform="translate(706.527234 535.081266) scale(0.231 -0.231)">
     <defs>
      <path id="DejaVuSans-62" d="M 3116 1747 
Q 3116 2381 2855 2742 
Q 2594 3103 2138 3103 
Q 1681 3103 1420 2742 
Q 1159 2381 1159 1747 
Q 1159 1113 1420 752 
Q 1681 391 2138 391 
Q 2594 391 2855 752 
Q 3116 1113 3116 1747 
z
M 1159 2969 
Q 1341 3281 1617 3432 
Q 1894 3584 2278 3584 
Q 2916 3584 3314 3078 
Q 3713 2572 3713 1747 
Q 3713 922 3314 415 
Q 2916 -91 2278 -91 
Q 1894 -91 1617 61 
Q 1341 213 1159 525 
L 1159 0 
L 581 0 
L 581 4863 
L 1159 4863 
L 1159 2969 
z
" transform="scale(0.015625)"/>
     </defs>
     <use xlink:href="#DejaVuSans-65"/>
     <use xlink:href="#DejaVuSans-78" x="59.773438"/>
     <use xlink:href="#DejaVuSans-69" x="118.953125"/>
     <use xlink:href="#DejaVuSans-6f" x="146.736328"/>
     <use xlink:href="#DejaVuSans-62" x="207.917969"/>
     <use xlink:href="#DejaVuSans-61" x="271.394531"/>
     <use xlink:href="#DejaVuSans-73" x="332.673828"/>
     <use xlink:href="#DejaVuSans-65" x="384.773438"/>
     <use xlink:href="#DejaVuSans-33" x="446.296875"/>
     <use xlink:href="#DejaVuSans-5f" x="509.919922"/>
     <use xlink:href="#DejaVuSans-66" x="559.919922"/>
     <use xlink:href="#DejaVuSans-75" x="595.125"/>
     <use xlink:href="#DejaVuSans-6c" x="658.503906"/>
     <use xlink:href="#DejaVuSans-6c" x="686.287109"/>
     <use xlink:href="#DejaVuSans-5f" x="714.070312"/>
     <use xlink:href="#DejaVuSans-32" x="764.070312"/>
     <use xlink:href="#DejaVuSans-30" x="827.693359"/>
     <use xlink:href="#DejaVuSans-30" x="891.316406"/>
     <use xlink:href="#DejaVuSans-30" x="954.939453"/>
    </g>
   </g>
   <g id="line2d_78">
    <path d="M 988.022391 526.996266 
L 1011.122391 526.996266 
L 1034.222391 526.996266 
" style="fill: none; stroke: #937860; stroke-opacity: 0.9; stroke-width: 3; stroke-linecap: round"/>
   </g>
   <g id="text_35">
    <!-- exiobase3_full_2010 -->
    <g style="fill: #262626" transform="translate(1052.702391 535.081266) scale(0.231 -0.231)">
     <use xlink:href="#DejaVuSans-65"/>
     <use xlink:href="#DejaVuSans-78" x="59.773438"/>
     <use xlink:href="#DejaVuSans-69" x="118.953125"/>
     <use xlink:href="#DejaVuSans-6f" x="146.736328"/>
     <use xlink:href="#DejaVuSans-62" x="207.917969"/>
     <use xlink:href="#DejaVuSans-61" x="271.394531"/>
     <use xlink:href="#DejaVuSans-73" x="332.673828"/>
     <use xlink:href="#DejaVuSans-65" x="384.773438"/>
     <use xlink:href="#DejaVuSans-33" x="446.296875"/>
     <use xlink:href="#DejaVuSans-5f" x="509.919922"/>
     <use xlink:href="#DejaVuSans-66" x="559.919922"/>
     <use xlink:href="#DejaVuSans-75" x="595.125"/>
     <use xlink:href="#DejaVuSans-6c" x="658.503906"/>
     <use xlink:href="#DejaVuSans-6c" x="686.287109"/>
     <use xlink:href="#DejaVuSans-5f" x="714.070312"/>
     <use xlink:href="#DejaVuSans-32" x="764.070312"/>
     <use xlink:href="#DejaVuSans-30" x="827.693359"/>
     <use xlink:href="#DejaVuSans-31" x="891.316406"/>
     <use xlink:href="#DejaVuSans-30" x="954.939453"/>
    </g>
   </g>
  </g>
 </g>
 <defs>
  <clipPath id="p1c13e73956">
   <rect x="170.340091" y="81.456" width="292.369069" height="116.830327"/>
  </clipPath>
  <clipPath id="p183126ac32">
   <rect x="489.290298" y="81.456" width="292.369069" height="116.830327"/>
  </clipPath>
  <clipPath id="p39e79e3cb1">
   <rect x="808.240504" y="81.456" width="292.369069" height="116.830327"/>
  </clipPath>
  <clipPath id="pb7c621b533">
   <rect x="170.340091" y="256.453673" width="292.369069" height="116.830327"/>
  </clipPath>
  <clipPath id="p1435ca9087">
   <rect x="489.290298" y="256.453673" width="292.369069" height="116.830327"/>
  </clipPath>
  <clipPath id="pe0e7f2f82a">
   <rect x="808.240504" y="256.453673" width="292.369069" height="116.830327"/>
  </clipPath>
 </defs>
</svg>
