<?xml version="1.0" encoding="utf-8" standalone="no"?>
<!DOCTYPE svg PUBLIC "-//W3C//DTD SVG 1.1//EN"
  "http://www.w3.org/Graphics/SVG/1.1/DTD/svg11.dtd">
<svg xmlns:xlink="http://www.w3.org/1999/xlink" width="1304.437547pt" height="591.51675pt" viewBox="0 0 1304.437547 591.51675" xmlns="http://www.w3.org/2000/svg" version="1.1">
 <metadata>
  <rdf:RDF xmlns:dc="http://purl.org/dc/elements/1.1/" xmlns:cc="http://creativecommons.org/ns#" xmlns:rdf="http://www.w3.org/1999/02/22-rdf-syntax-ns#">
   <cc:Work>
    <dc:type rdf:resource="http://purl.org/dc/dcmitype/StillImage"/>
    <dc:date>2023-04-25T16:28:43.173408</dc:date>
    <dc:format>image/svg+xml</dc:format>
    <dc:creator>
     <cc:Agent>
      <dc:title>Matplotlib v3.7.1, https://matplotlib.org/</dc:title>
     </cc:Agent>
    </dc:creator>
   </cc:Work>
  </rdf:RDF>
 </metadata>
 <defs>
  <style type="text/css">*{stroke-linejoin: round; stroke-linecap: butt}</style>
 </defs>
 <g id="figure_1">
  <g id="patch_1">
   <path d="M 0 591.51675 
L 1304.437547 591.51675 
L 1304.437547 -0 
L 0 -0 
z
" style="fill: #ffffff"/>
  </g>
  <g id="axes_1">
   <g id="patch_2">
    <path d="M 142.032503 201.042 
L 443.709706 201.042 
L 443.709706 81.456 
L 142.032503 81.456 
z
" style="fill: #eaeaf2"/>
   </g>
   <g id="matplotlib.axis_1">
    <g id="xtick_1">
     <g id="line2d_1">
      <path d="M 155.745103 201.042 
L 155.745103 81.456 
" clip-path="url(#p92b382eba5)" style="fill: none; stroke: #ffffff; stroke-linecap: round"/>
     </g>
    </g>
    <g id="xtick_2">
     <g id="line2d_2">
      <path d="M 249.795858 201.042 
L 249.795858 81.456 
" clip-path="url(#p92b382eba5)" style="fill: none; stroke: #ffffff; stroke-linecap: round"/>
     </g>
    </g>
    <g id="xtick_3">
     <g id="line2d_3">
      <path d="M 343.846614 201.042 
L 343.846614 81.456 
" clip-path="url(#p92b382eba5)" style="fill: none; stroke: #ffffff; stroke-linecap: round"/>
     </g>
    </g>
    <g id="xtick_4">
     <g id="line2d_4">
      <path d="M 437.897369 201.042 
L 437.897369 81.456 
" clip-path="url(#p92b382eba5)" style="fill: none; stroke: #ffffff; stroke-linecap: round"/>
     </g>
    </g>
   </g>
   <g id="matplotlib.axis_2">
    <g id="ytick_1">
     <g id="line2d_5">
      <path d="M 142.032503 181.607566 
L 443.709706 181.607566 
" clip-path="url(#p92b382eba5)" style="fill: none; stroke: #ffffff; stroke-linecap: round"/>
     </g>
     <g id="text_1">
      <!-- −1 -->
      <g style="fill: #262626" transform="translate(98.47805 190.383761) scale(0.231 -0.231)">
       <defs>
        <path id="DejaVuSans-2212" d="M 678 2272 
L 4684 2272 
L 4684 1741 
L 678 1741 
L 678 2272 
z
" transform="scale(0.015625)"/>
        <path id="DejaVuSans-31" d="M 794 531 
L 1825 531 
L 1825 4091 
L 703 3866 
L 703 4441 
L 1819 4666 
L 2450 4666 
L 2450 531 
L 3481 531 
L 3481 0 
L 794 0 
L 794 531 
z
" transform="scale(0.015625)"/>
       </defs>
       <use xlink:href="#DejaVuSans-2212"/>
       <use xlink:href="#DejaVuSans-31" x="83.789062"/>
      </g>
     </g>
    </g>
    <g id="ytick_2">
     <g id="line2d_6">
      <path d="M 142.032503 100.851982 
L 443.709706 100.851982 
" clip-path="url(#p92b382eba5)" style="fill: none; stroke: #ffffff; stroke-linecap: round"/>
     </g>
     <g id="text_2">
      <!-- 0 -->
      <g style="fill: #262626" transform="translate(117.835128 109.628178) scale(0.231 -0.231)">
       <defs>
        <path id="DejaVuSans-30" d="M 2034 4250 
Q 1547 4250 1301 3770 
Q 1056 3291 1056 2328 
Q 1056 1369 1301 889 
Q 1547 409 2034 409 
Q 2525 409 2770 889 
Q 3016 1369 3016 2328 
Q 3016 3291 2770 3770 
Q 2525 4250 2034 4250 
z
M 2034 4750 
Q 2819 4750 3233 4129 
Q 3647 3509 3647 2328 
Q 3647 1150 3233 529 
Q 2819 -91 2034 -91 
Q 1250 -91 836 529 
Q 422 1150 422 2328 
Q 422 3509 836 4129 
Q 1250 4750 2034 4750 
z
" transform="scale(0.015625)"/>
       </defs>
       <use xlink:href="#DejaVuSans-30"/>
      </g>
     </g>
    </g>
    <g id="text_3">
     <!-- % change -->
     <g style="fill: #262626" transform="translate(89.237237 203.597344) rotate(-90) scale(0.252 -0.252)">
      <defs>
       <path id="DejaVuSans-25" d="M 4653 2053 
Q 4381 2053 4226 1822 
Q 4072 1591 4072 1178 
Q 4072 772 4226 539 
Q 4381 306 4653 306 
Q 4919 306 5073 539 
Q 5228 772 5228 1178 
Q 5228 1588 5073 1820 
Q 4919 2053 4653 2053 
z
M 4653 2450 
Q 5147 2450 5437 2106 
Q 5728 1763 5728 1178 
Q 5728 594 5436 251 
Q 5144 -91 4653 -91 
Q 4153 -91 3862 251 
Q 3572 594 3572 1178 
Q 3572 1766 3864 2108 
Q 4156 2450 4653 2450 
z
M 1428 4353 
Q 1159 4353 1004 4120 
Q 850 3888 850 3481 
Q 850 3069 1003 2837 
Q 1156 2606 1428 2606 
Q 1700 2606 1854 2837 
Q 2009 3069 2009 3481 
Q 2009 3884 1853 4118 
Q 1697 4353 1428 4353 
z
M 4250 4750 
L 4750 4750 
L 1831 -91 
L 1331 -91 
L 4250 4750 
z
M 1428 4750 
Q 1922 4750 2215 4408 
Q 2509 4066 2509 3481 
Q 2509 2891 2217 2550 
Q 1925 2209 1428 2209 
Q 931 2209 642 2551 
Q 353 2894 353 3481 
Q 353 4063 643 4406 
Q 934 4750 1428 4750 
z
" transform="scale(0.015625)"/>
       <path id="DejaVuSans-20" transform="scale(0.015625)"/>
       <path id="DejaVuSans-63" d="M 3122 3366 
L 3122 2828 
Q 2878 2963 2633 3030 
Q 2388 3097 2138 3097 
Q 1578 3097 1268 2742 
Q 959 2388 959 1747 
Q 959 1106 1268 751 
Q 1578 397 2138 397 
Q 2388 397 2633 464 
Q 2878 531 3122 666 
L 3122 134 
Q 2881 22 2623 -34 
Q 2366 -91 2075 -91 
Q 1284 -91 818 406 
Q 353 903 353 1747 
Q 353 2603 823 3093 
Q 1294 3584 2113 3584 
Q 2378 3584 2631 3529 
Q 2884 3475 3122 3366 
z
" transform="scale(0.015625)"/>
       <path id="DejaVuSans-68" d="M 3513 2113 
L 3513 0 
L 2938 0 
L 2938 2094 
Q 2938 2591 2744 2837 
Q 2550 3084 2163 3084 
Q 1697 3084 1428 2787 
Q 1159 2491 1159 1978 
L 1159 0 
L 581 0 
L 581 4863 
L 1159 4863 
L 1159 2956 
Q 1366 3272 1645 3428 
Q 1925 3584 2291 3584 
Q 2894 3584 3203 3211 
Q 3513 2838 3513 2113 
z
" transform="scale(0.015625)"/>
       <path id="DejaVuSans-61" d="M 2194 1759 
Q 1497 1759 1228 1600 
Q 959 1441 959 1056 
Q 959 750 1161 570 
Q 1363 391 1709 391 
Q 2188 391 2477 730 
Q 2766 1069 2766 1631 
L 2766 1759 
L 2194 1759 
z
M 3341 1997 
L 3341 0 
L 2766 0 
L 2766 531 
Q 2569 213 2275 61 
Q 1981 -91 1556 -91 
Q 1019 -91 701 211 
Q 384 513 384 1019 
Q 384 1609 779 1909 
Q 1175 2209 1959 2209 
L 2766 2209 
L 2766 2266 
Q 2766 2663 2505 2880 
Q 2244 3097 1772 3097 
Q 1472 3097 1187 3025 
Q 903 2953 641 2809 
L 641 3341 
Q 956 3463 1253 3523 
Q 1550 3584 1831 3584 
Q 2591 3584 2966 3190 
Q 3341 2797 3341 1997 
z
" transform="scale(0.015625)"/>
       <path id="DejaVuSans-6e" d="M 3513 2113 
L 3513 0 
L 2938 0 
L 2938 2094 
Q 2938 2591 2744 2837 
Q 2550 3084 2163 3084 
Q 1697 3084 1428 2787 
Q 1159 2491 1159 1978 
L 1159 0 
L 581 0 
L 581 3500 
L 1159 3500 
L 1159 2956 
Q 1366 3272 1645 3428 
Q 1925 3584 2291 3584 
Q 2894 3584 3203 3211 
Q 3513 2838 3513 2113 
z
" transform="scale(0.015625)"/>
       <path id="DejaVuSans-67" d="M 2906 1791 
Q 2906 2416 2648 2759 
Q 2391 3103 1925 3103 
Q 1463 3103 1205 2759 
Q 947 2416 947 1791 
Q 947 1169 1205 825 
Q 1463 481 1925 481 
Q 2391 481 2648 825 
Q 2906 1169 2906 1791 
z
M 3481 434 
Q 3481 -459 3084 -895 
Q 2688 -1331 1869 -1331 
Q 1566 -1331 1297 -1286 
Q 1028 -1241 775 -1147 
L 775 -588 
Q 1028 -725 1275 -790 
Q 1522 -856 1778 -856 
Q 2344 -856 2625 -561 
Q 2906 -266 2906 331 
L 2906 616 
Q 2728 306 2450 153 
Q 2172 0 1784 0 
Q 1141 0 747 490 
Q 353 981 353 1791 
Q 353 2603 747 3093 
Q 1141 3584 1784 3584 
Q 2172 3584 2450 3431 
Q 2728 3278 2906 2969 
L 2906 3500 
L 3481 3500 
L 3481 434 
z
" transform="scale(0.015625)"/>
       <path id="DejaVuSans-65" d="M 3597 1894 
L 3597 1613 
L 953 1613 
Q 991 1019 1311 708 
Q 1631 397 2203 397 
Q 2534 397 2845 478 
Q 3156 559 3463 722 
L 3463 178 
Q 3153 47 2828 -22 
Q 2503 -91 2169 -91 
Q 1331 -91 842 396 
Q 353 884 353 1716 
Q 353 2575 817 3079 
Q 1281 3584 2069 3584 
Q 2775 3584 3186 3129 
Q 3597 2675 3597 1894 
z
M 3022 2063 
Q 3016 2534 2758 2815 
Q 2500 3097 2075 3097 
Q 1594 3097 1305 2825 
Q 1016 2553 972 2059 
L 3022 2063 
z
" transform="scale(0.015625)"/>
      </defs>
      <use xlink:href="#DejaVuSans-25"/>
      <use xlink:href="#DejaVuSans-20" x="95.019531"/>
      <use xlink:href="#DejaVuSans-63" x="126.806641"/>
      <use xlink:href="#DejaVuSans-68" x="181.787109"/>
      <use xlink:href="#DejaVuSans-61" x="245.166016"/>
      <use xlink:href="#DejaVuSans-6e" x="306.445312"/>
      <use xlink:href="#DejaVuSans-67" x="369.824219"/>
      <use xlink:href="#DejaVuSans-65" x="433.300781"/>
     </g>
    </g>
   </g>
   <g id="PolyCollection_1"/>
   <g id="PolyCollection_2"/>
   <g id="PolyCollection_3"/>
   <g id="PolyCollection_4"/>
   <g id="PolyCollection_5"/>
   <g id="PolyCollection_6"/>
   <g id="line2d_7">
    <path d="M 155.745103 100.851982 
L 156.121306 141.730915 
L 156.497509 143.138988 
L 156.873712 143.47554 
L 157.626118 143.476611 
L 161.011945 142.836932 
L 161.388148 141.457467 
L 164.397773 138.491587 
L 169.288412 133.972928 
L 174.179051 129.762446 
L 179.445893 125.526174 
L 184.712736 121.573297 
L 189.979578 117.885288 
L 194.494014 115.000178 
L 200.13706 111.642235 
L 205.780105 108.544562 
L 211.42315 105.693777 
L 217.442399 102.908804 
L 223.461647 100.370323 
L 229.857098 97.923086 
L 236.25255 95.717819 
L 243.024204 93.627971 
L 249.795858 91.772294 
L 256.943716 90.050377 
L 259.95334 89.471798 
L 266.348791 89.04793 
L 275.001461 88.834503 
L 284.406537 89.268034 
L 292.683003 89.727402 
L 300.207063 90.303697 
L 306.978718 90.835659 
L 317.512402 91.43444 
L 345.727629 92.828363 
L 355.132705 93.61529 
L 364.913983 94.076946 
L 381.466916 94.628689 
L 404.791504 95.1693 
L 429.997106 95.569557 
L 429.997106 95.569557 
" clip-path="url(#p92b382eba5)" style="fill: none; stroke: #4c72b0; stroke-opacity: 0.9; stroke-width: 3; stroke-linecap: round"/>
   </g>
   <g id="line2d_8">
    <path d="M 155.745103 100.851982 
L 156.121306 123.147577 
L 156.497509 124.079173 
L 156.873712 124.384667 
L 157.626118 124.486867 
L 160.259539 124.270191 
L 161.011945 124.200644 
L 161.388148 123.448396 
L 162.140554 122.873232 
L 167.407397 120.203596 
L 172.674239 117.758833 
L 179.06969 115.060043 
L 185.841345 112.455993 
L 192.989202 109.957838 
L 199.008451 108.073441 
L 206.532511 105.949518 
L 214.432774 103.956254 
L 222.333038 102.188953 
L 230.985707 100.486801 
L 240.01458 98.945537 
L 249.419655 97.565631 
L 258.824731 96.392185 
L 264.467776 96.128296 
L 275.377664 95.824517 
L 288.54477 95.888087 
L 309.235936 95.992783 
L 326.165072 96.496766 
L 351.746877 96.711029 
L 371.309435 96.945086 
L 380.338307 97.234774 
L 387.862368 97.435127 
L 392.376804 97.509 
L 429.997106 97.804218 
L 429.997106 97.804218 
" clip-path="url(#p92b382eba5)" style="fill: none; stroke: #dd8452; stroke-opacity: 0.9; stroke-width: 3; stroke-linecap: round"/>
   </g>
   <g id="line2d_9">
    <path d="M 155.745103 100.851982 
L 156.121306 143.686793 
L 156.497509 145.978907 
L 156.873712 146.518513 
L 157.249915 146.620535 
L 158.378524 146.465758 
L 161.011945 145.932126 
L 161.764351 144.894262 
L 165.526382 141.209555 
L 170.793224 136.35089 
L 176.060066 131.805049 
L 181.326908 127.569044 
L 185.841345 124.198452 
L 190.355781 121.094899 
L 194.870217 118.325684 
L 199.008451 116.093607 
L 203.522887 113.961128 
L 210.294541 111.204548 
L 219.699617 107.591231 
L 229.857098 103.980047 
L 254.686498 95.770277 
L 260.705746 93.957871 
L 267.853604 92.044792 
L 273.496649 90.770736 
L 279.139694 89.922464 
L 282.901724 89.684683 
L 285.158943 89.698508 
L 291.178191 90.051303 
L 300.583266 90.693807 
L 310.364545 91.325384 
L 322.779245 92.086198 
L 349.865862 93.92906 
L 371.309435 94.875378 
L 391.248195 95.508247 
L 417.206203 96.07275 
L 429.997106 96.280545 
L 429.997106 96.280545 
" clip-path="url(#p92b382eba5)" style="fill: none; stroke: #55a868; stroke-opacity: 0.9; stroke-width: 3; stroke-linecap: round"/>
   </g>
   <g id="line2d_10">
    <path d="M 155.745103 100.851982 
L 156.121306 134.516587 
L 156.497509 136.357669 
L 156.873712 136.783003 
L 157.626118 136.840962 
L 161.011945 136.313649 
L 161.764351 135.541756 
L 165.902585 132.328755 
L 171.54563 128.21586 
L 177.188675 124.373721 
L 182.079315 121.303012 
L 187.346157 118.244756 
L 189.603375 117.108508 
L 196.751232 113.80551 
L 202.394278 111.429971 
L 208.789729 108.994145 
L 214.056571 107.180484 
L 226.847474 103.089423 
L 247.162437 96.980255 
L 253.934092 95.255211 
L 259.95334 93.943804 
L 264.091573 93.219817 
L 268.229807 92.737745 
L 271.991837 92.489875 
L 277.258679 92.345822 
L 284.78274 92.339894 
L 296.06883 92.814892 
L 321.274433 94.349131 
L 330.679508 94.902792 
L 351.370674 95.784996 
L 382.219322 96.66256 
L 407.424925 97.09524 
L 429.997106 97.358721 
L 429.997106 97.358721 
" clip-path="url(#p92b382eba5)" style="fill: none; stroke: #c44e52; stroke-opacity: 0.9; stroke-width: 3; stroke-linecap: round"/>
   </g>
   <g id="line2d_11">
    <path d="M 155.745103 100.851982 
L 156.121306 140.097539 
L 156.497509 141.785406 
L 156.873712 142.027273 
L 157.626118 141.970204 
L 161.011945 141.355365 
L 163.269163 139.019306 
L 167.7836 134.635547 
L 172.298036 130.560699 
L 177.564878 126.142704 
L 182.831721 122.031657 
L 186.969954 119.075152 
L 192.612999 115.354451 
L 198.256044 111.901244 
L 203.89909 108.700929 
L 209.918338 105.549821 
L 215.937587 102.655661 
L 222.333038 99.86175 
L 228.728489 97.317218 
L 235.123941 95.013912 
L 241.895595 92.808529 
L 249.043452 90.724274 
L 255.062701 89.185881 
L 259.95334 88.146267 
L 264.091573 87.784421 
L 272.744243 87.263897 
L 282.901724 86.891727 
L 286.663755 87.006893 
L 294.940221 88.14273 
L 301.335672 88.852038 
L 309.988342 89.591224 
L 335.946351 92.203565 
L 350.994471 93.659807 
L 358.894735 94.191278 
L 372.438044 94.821832 
L 390.495789 95.449753 
L 412.315564 95.932969 
L 429.997106 96.206975 
L 429.997106 96.206975 
" clip-path="url(#p92b382eba5)" style="fill: none; stroke: #8172b3; stroke-opacity: 0.9; stroke-width: 3; stroke-linecap: round"/>
   </g>
   <g id="line2d_12">
    <path d="M 155.745103 100.851982 
L 156.121306 132.343221 
L 156.497509 133.492023 
L 156.873712 133.676446 
L 158.002321 133.582501 
L 161.011945 133.163067 
L 162.140554 132.20731 
L 167.031194 128.550092 
L 172.298036 124.890287 
L 177.564878 121.504564 
L 183.207924 118.1748 
L 188.474766 115.318785 
L 194.494014 112.348431 
L 200.889466 109.447555 
L 207.284917 106.79233 
L 214.056571 104.228556 
L 220.828226 101.905824 
L 227.976083 99.705326 
L 235.500144 97.631598 
L 243.400407 95.696941 
L 251.300671 93.992084 
L 258.448528 92.681688 
L 261.081949 92.325539 
L 267.101197 92.025695 
L 285.535146 91.341351 
L 292.3068 91.674607 
L 304.7215 92.47956 
L 339.708381 94.335601 
L 346.480035 94.952431 
L 369.804622 96.068934 
L 387.862368 96.497465 
L 413.820376 96.882258 
L 429.997106 97.039084 
L 429.997106 97.039084 
" clip-path="url(#p92b382eba5)" style="fill: none; stroke: #937860; stroke-opacity: 0.9; stroke-width: 3; stroke-linecap: round"/>
   </g>
   <g id="patch_3">
    <path d="M 142.032503 201.042 
L 142.032503 81.456 
" style="fill: none; stroke: #ffffff; stroke-width: 1.25; stroke-linejoin: miter; stroke-linecap: square"/>
   </g>
   <g id="patch_4">
    <path d="M 142.032503 201.042 
L 443.709706 201.042 
" style="fill: none; stroke: #ffffff; stroke-width: 1.25; stroke-linejoin: miter; stroke-linecap: square"/>
   </g>
   <g id="text_4">
    <!-- 0.8~90 -->
    <g style="fill: #262626" transform="translate(246.241261 75.456) scale(0.252 -0.252)">
     <defs>
      <path id="DejaVuSans-2e" d="M 684 794 
L 1344 794 
L 1344 0 
L 684 0 
L 684 794 
z
" transform="scale(0.015625)"/>
      <path id="DejaVuSans-38" d="M 2034 2216 
Q 1584 2216 1326 1975 
Q 1069 1734 1069 1313 
Q 1069 891 1326 650 
Q 1584 409 2034 409 
Q 2484 409 2743 651 
Q 3003 894 3003 1313 
Q 3003 1734 2745 1975 
Q 2488 2216 2034 2216 
z
M 1403 2484 
Q 997 2584 770 2862 
Q 544 3141 544 3541 
Q 544 4100 942 4425 
Q 1341 4750 2034 4750 
Q 2731 4750 3128 4425 
Q 3525 4100 3525 3541 
Q 3525 3141 3298 2862 
Q 3072 2584 2669 2484 
Q 3125 2378 3379 2068 
Q 3634 1759 3634 1313 
Q 3634 634 3220 271 
Q 2806 -91 2034 -91 
Q 1263 -91 848 271 
Q 434 634 434 1313 
Q 434 1759 690 2068 
Q 947 2378 1403 2484 
z
M 1172 3481 
Q 1172 3119 1398 2916 
Q 1625 2713 2034 2713 
Q 2441 2713 2670 2916 
Q 2900 3119 2900 3481 
Q 2900 3844 2670 4047 
Q 2441 4250 2034 4250 
Q 1625 4250 1398 4047 
Q 1172 3844 1172 3481 
z
" transform="scale(0.015625)"/>
      <path id="DejaVuSans-7e" d="M 4684 2553 
L 4684 1997 
Q 4356 1750 4076 1644 
Q 3797 1538 3494 1538 
Q 3150 1538 2694 1722 
Q 2659 1734 2644 1741 
Q 2622 1750 2575 1766 
Q 2091 1959 1797 1959 
Q 1522 1959 1253 1839 
Q 984 1719 678 1459 
L 678 2016 
Q 1006 2263 1286 2370 
Q 1566 2478 1869 2478 
Q 2213 2478 2672 2291 
Q 2703 2278 2719 2272 
Q 2744 2263 2788 2247 
Q 3272 2053 3566 2053 
Q 3834 2053 4098 2172 
Q 4363 2291 4684 2553 
z
" transform="scale(0.015625)"/>
      <path id="DejaVuSans-39" d="M 703 97 
L 703 672 
Q 941 559 1184 500 
Q 1428 441 1663 441 
Q 2288 441 2617 861 
Q 2947 1281 2994 2138 
Q 2813 1869 2534 1725 
Q 2256 1581 1919 1581 
Q 1219 1581 811 2004 
Q 403 2428 403 3163 
Q 403 3881 828 4315 
Q 1253 4750 1959 4750 
Q 2769 4750 3195 4129 
Q 3622 3509 3622 2328 
Q 3622 1225 3098 567 
Q 2575 -91 1691 -91 
Q 1453 -91 1209 -44 
Q 966 3 703 97 
z
M 1959 2075 
Q 2384 2075 2632 2365 
Q 2881 2656 2881 3163 
Q 2881 3666 2632 3958 
Q 2384 4250 1959 4250 
Q 1534 4250 1286 3958 
Q 1038 3666 1038 3163 
Q 1038 2656 1286 2365 
Q 1534 2075 1959 2075 
z
" transform="scale(0.015625)"/>
     </defs>
     <use xlink:href="#DejaVuSans-30"/>
     <use xlink:href="#DejaVuSans-2e" x="63.623047"/>
     <use xlink:href="#DejaVuSans-38" x="95.410156"/>
     <use xlink:href="#DejaVuSans-7e" x="159.033203"/>
     <use xlink:href="#DejaVuSans-39" x="242.822266"/>
     <use xlink:href="#DejaVuSans-30" x="306.445312"/>
    </g>
   </g>
  </g>
  <g id="axes_2">
   <g id="patch_5">
    <path d="M 470.482436 201.042 
L 772.15964 201.042 
L 772.15964 81.456 
L 470.482436 81.456 
z
" style="fill: #eaeaf2"/>
   </g>
   <g id="matplotlib.axis_3">
    <g id="xtick_5">
     <g id="line2d_13">
      <path d="M 484.195037 201.042 
L 484.195037 81.456 
" clip-path="url(#p39a37635bd)" style="fill: none; stroke: #ffffff; stroke-linecap: round"/>
     </g>
    </g>
    <g id="xtick_6">
     <g id="line2d_14">
      <path d="M 578.245792 201.042 
L 578.245792 81.456 
" clip-path="url(#p39a37635bd)" style="fill: none; stroke: #ffffff; stroke-linecap: round"/>
     </g>
    </g>
    <g id="xtick_7">
     <g id="line2d_15">
      <path d="M 672.296548 201.042 
L 672.296548 81.456 
" clip-path="url(#p39a37635bd)" style="fill: none; stroke: #ffffff; stroke-linecap: round"/>
     </g>
    </g>
    <g id="xtick_8">
     <g id="line2d_16">
      <path d="M 766.347303 201.042 
L 766.347303 81.456 
" clip-path="url(#p39a37635bd)" style="fill: none; stroke: #ffffff; stroke-linecap: round"/>
     </g>
    </g>
   </g>
   <g id="matplotlib.axis_4">
    <g id="ytick_3">
     <g id="line2d_17">
      <path d="M 470.482436 181.607566 
L 772.15964 181.607566 
" clip-path="url(#p39a37635bd)" style="fill: none; stroke: #ffffff; stroke-linecap: round"/>
     </g>
    </g>
    <g id="ytick_4">
     <g id="line2d_18">
      <path d="M 470.482436 100.851982 
L 772.15964 100.851982 
" clip-path="url(#p39a37635bd)" style="fill: none; stroke: #ffffff; stroke-linecap: round"/>
     </g>
    </g>
   </g>
   <g id="PolyCollection_7"/>
   <g id="PolyCollection_8"/>
   <g id="PolyCollection_9"/>
   <g id="PolyCollection_10"/>
   <g id="PolyCollection_11"/>
   <g id="PolyCollection_12"/>
   <g id="line2d_19">
    <path d="M 484.195037 100.851982 
L 484.57124 141.730915 
L 484.947443 143.184229 
L 485.323646 143.573245 
L 486.076052 143.683359 
L 489.461879 143.532291 
L 489.838082 142.187503 
L 493.600112 139.596495 
L 498.866955 136.232365 
L 504.51 132.883483 
L 510.529248 129.580055 
L 516.548497 126.533304 
L 522.567745 123.726065 
L 528.963196 120.985926 
L 535.734851 118.332811 
L 542.506505 115.9143 
L 549.654362 113.592645 
L 557.178423 111.385933 
L 564.32628 109.519124 
L 572.602747 107.599248 
L 581.255416 105.822444 
L 590.284289 104.192205 
L 600.065567 102.654138 
L 610.599252 101.229834 
L 621.885343 99.935391 
L 633.923839 98.780931 
L 647.090945 97.744707 
L 655.743615 97.2271 
L 667.405908 97.162035 
L 677.187187 97.274952 
L 692.987714 97.731372 
L 728.350798 98.573671 
L 758.44704 98.864239 
L 758.44704 98.864239 
" clip-path="url(#p39a37635bd)" style="fill: none; stroke: #4c72b0; stroke-opacity: 0.9; stroke-width: 3; stroke-linecap: round"/>
   </g>
   <g id="line2d_20">
    <path d="M 484.195037 100.851982 
L 484.57124 123.147577 
L 484.947443 124.100081 
L 485.323646 124.430078 
L 486.076052 124.584168 
L 488.709473 124.550631 
L 489.461879 124.532932 
L 489.838082 123.831751 
L 490.590488 123.33925 
L 495.85733 121.40067 
L 503.005188 119.010584 
L 510.529248 116.736291 
L 518.429512 114.589008 
L 525.953572 112.762445 
L 534.606242 110.89305 
L 543.635114 109.16598 
L 553.416393 107.526968 
L 563.573874 106.04881 
L 573.731356 104.789036 
L 585.769853 103.527918 
L 598.560755 102.411589 
L 612.85647 101.391418 
L 628.656997 100.492311 
L 646.338539 99.713353 
L 657.248427 99.402218 
L 679.444405 99.370747 
L 699.006962 99.521933 
L 718.193316 99.705347 
L 727.222189 99.784299 
L 754.685009 99.899952 
L 758.44704 99.908269 
L 758.44704 99.908269 
" clip-path="url(#p39a37635bd)" style="fill: none; stroke: #dd8452; stroke-opacity: 0.9; stroke-width: 3; stroke-linecap: round"/>
   </g>
   <g id="line2d_21">
    <path d="M 484.195037 100.851982 
L 484.57124 143.686793 
L 484.947443 146.025825 
L 485.323646 146.620202 
L 485.699849 146.779023 
L 486.828458 146.795987 
L 489.461879 146.658762 
L 489.838082 146.140263 
L 490.966691 145.286985 
L 496.609736 141.534829 
L 502.628985 137.799841 
L 508.648233 134.318251 
L 515.043684 130.878128 
L 519.181918 128.863795 
L 524.824963 126.417334 
L 532.349023 123.744326 
L 537.992069 122.174543 
L 548.901956 119.400192 
L 564.32628 115.800303 
L 583.136431 111.670769 
L 601.946583 107.294147 
L 629.0332 100.935927 
L 636.933464 99.397317 
L 641.4479 98.741448 
L 653.110193 97.827789 
L 663.267675 97.26828 
L 670.415533 97.087973 
L 679.444405 97.140101 
L 757.694634 98.809109 
L 758.44704 98.820708 
L 758.44704 98.820708 
" clip-path="url(#p39a37635bd)" style="fill: none; stroke: #55a868; stroke-opacity: 0.9; stroke-width: 3; stroke-linecap: round"/>
   </g>
   <g id="line2d_22">
    <path d="M 484.195037 100.851982 
L 484.57124 134.516587 
L 484.947443 136.39481 
L 485.323646 136.863692 
L 486.076052 137.012358 
L 489.461879 136.892252 
L 490.214285 136.278926 
L 494.728721 133.84874 
L 501.124173 130.627983 
L 507.895827 127.473451 
L 514.667481 124.560722 
L 517.300903 123.58682 
L 526.329775 120.664698 
L 534.606242 118.196331 
L 540.62549 116.75393 
L 558.683235 112.801718 
L 580.50301 108.259615 
L 604.203801 103.334097 
L 612.104064 102.023255 
L 618.875719 101.154508 
L 628.656997 100.19556 
L 641.4479 99.211486 
L 653.486397 98.515412 
L 663.643878 98.118564 
L 673.80136 98.053434 
L 689.601887 98.249793 
L 758.44704 99.379929 
L 758.44704 99.379929 
" clip-path="url(#p39a37635bd)" style="fill: none; stroke: #c44e52; stroke-opacity: 0.9; stroke-width: 3; stroke-linecap: round"/>
   </g>
   <g id="line2d_23">
    <path d="M 484.195037 100.851982 
L 484.57124 140.097539 
L 484.947443 141.833647 
L 485.323646 142.127178 
L 486.076052 142.174464 
L 489.461879 142.024433 
L 490.966691 140.922667 
L 496.233533 137.405314 
L 501.876579 133.911343 
L 507.519624 130.676195 
L 513.538872 127.489789 
L 519.558121 124.553197 
L 525.577369 121.852105 
L 531.97282 119.221765 
L 538.744475 116.674863 
L 545.892332 114.228152 
L 552.663987 112.129795 
L 559.811844 110.134249 
L 568.088311 108.093332 
L 576.74098 106.195843 
L 585.769853 104.447698 
L 595.174928 102.850512 
L 605.33241 101.351367 
L 616.242297 99.98447 
L 627.904591 98.752549 
L 640.695494 97.629194 
L 653.110193 96.750025 
L 657.248427 96.610837 
L 679.068202 96.523254 
L 689.97809 96.607687 
L 696.749744 96.917422 
L 705.778617 97.362013 
L 717.817113 97.716899 
L 758.44704 98.576657 
L 758.44704 98.576657 
" clip-path="url(#p39a37635bd)" style="fill: none; stroke: #8172b3; stroke-opacity: 0.9; stroke-width: 3; stroke-linecap: round"/>
   </g>
   <g id="line2d_24">
    <path d="M 484.195037 100.851982 
L 484.57124 132.343221 
L 484.947443 133.528999 
L 485.323646 133.752911 
L 486.452255 133.77856 
L 489.461879 133.67411 
L 490.214285 133.17392 
L 495.481127 130.380561 
L 501.500376 127.433262 
L 507.895827 124.558603 
L 514.291278 121.924876 
L 521.062933 119.375729 
L 528.21079 116.929659 
L 535.734851 114.601877 
L 543.258911 112.513922 
L 551.535378 110.463087 
L 559.811844 108.637678 
L 567.712108 107.108868 
L 577.493386 105.439638 
L 587.650868 103.934357 
L 598.560755 102.544682 
L 610.223049 101.284643 
L 623.013952 100.142736 
L 636.933464 99.124917 
L 651.981584 98.24958 
L 658.000833 98.064002 
L 676.434781 97.997824 
L 692.987714 98.021216 
L 710.293053 98.500239 
L 743.775122 98.955316 
L 758.44704 99.106396 
L 758.44704 99.106396 
" clip-path="url(#p39a37635bd)" style="fill: none; stroke: #937860; stroke-opacity: 0.9; stroke-width: 3; stroke-linecap: round"/>
   </g>
   <g id="patch_6">
    <path d="M 470.482436 201.042 
L 470.482436 81.456 
" style="fill: none; stroke: #ffffff; stroke-width: 1.25; stroke-linejoin: miter; stroke-linecap: square"/>
   </g>
   <g id="patch_7">
    <path d="M 470.482436 201.042 
L 772.15964 201.042 
" style="fill: none; stroke: #ffffff; stroke-width: 1.25; stroke-linejoin: miter; stroke-linecap: square"/>
   </g>
   <g id="text_5">
    <!-- 0.8~365 -->
    <g style="fill: #262626" transform="translate(566.674444 75.456) scale(0.252 -0.252)">
     <defs>
      <path id="DejaVuSans-33" d="M 2597 2516 
Q 3050 2419 3304 2112 
Q 3559 1806 3559 1356 
Q 3559 666 3084 287 
Q 2609 -91 1734 -91 
Q 1441 -91 1130 -33 
Q 819 25 488 141 
L 488 750 
Q 750 597 1062 519 
Q 1375 441 1716 441 
Q 2309 441 2620 675 
Q 2931 909 2931 1356 
Q 2931 1769 2642 2001 
Q 2353 2234 1838 2234 
L 1294 2234 
L 1294 2753 
L 1863 2753 
Q 2328 2753 2575 2939 
Q 2822 3125 2822 3475 
Q 2822 3834 2567 4026 
Q 2313 4219 1838 4219 
Q 1578 4219 1281 4162 
Q 984 4106 628 3988 
L 628 4550 
Q 988 4650 1302 4700 
Q 1616 4750 1894 4750 
Q 2613 4750 3031 4423 
Q 3450 4097 3450 3541 
Q 3450 3153 3228 2886 
Q 3006 2619 2597 2516 
z
" transform="scale(0.015625)"/>
      <path id="DejaVuSans-36" d="M 2113 2584 
Q 1688 2584 1439 2293 
Q 1191 2003 1191 1497 
Q 1191 994 1439 701 
Q 1688 409 2113 409 
Q 2538 409 2786 701 
Q 3034 994 3034 1497 
Q 3034 2003 2786 2293 
Q 2538 2584 2113 2584 
z
M 3366 4563 
L 3366 3988 
Q 3128 4100 2886 4159 
Q 2644 4219 2406 4219 
Q 1781 4219 1451 3797 
Q 1122 3375 1075 2522 
Q 1259 2794 1537 2939 
Q 1816 3084 2150 3084 
Q 2853 3084 3261 2657 
Q 3669 2231 3669 1497 
Q 3669 778 3244 343 
Q 2819 -91 2113 -91 
Q 1303 -91 875 529 
Q 447 1150 447 2328 
Q 447 3434 972 4092 
Q 1497 4750 2381 4750 
Q 2619 4750 2861 4703 
Q 3103 4656 3366 4563 
z
" transform="scale(0.015625)"/>
      <path id="DejaVuSans-35" d="M 691 4666 
L 3169 4666 
L 3169 4134 
L 1269 4134 
L 1269 2991 
Q 1406 3038 1543 3061 
Q 1681 3084 1819 3084 
Q 2600 3084 3056 2656 
Q 3513 2228 3513 1497 
Q 3513 744 3044 326 
Q 2575 -91 1722 -91 
Q 1428 -91 1123 -41 
Q 819 9 494 109 
L 494 744 
Q 775 591 1075 516 
Q 1375 441 1709 441 
Q 2250 441 2565 725 
Q 2881 1009 2881 1497 
Q 2881 1984 2565 2268 
Q 2250 2553 1709 2553 
Q 1456 2553 1204 2497 
Q 953 2441 691 2322 
L 691 4666 
z
" transform="scale(0.015625)"/>
     </defs>
     <use xlink:href="#DejaVuSans-30"/>
     <use xlink:href="#DejaVuSans-2e" x="63.623047"/>
     <use xlink:href="#DejaVuSans-38" x="95.410156"/>
     <use xlink:href="#DejaVuSans-7e" x="159.033203"/>
     <use xlink:href="#DejaVuSans-33" x="242.822266"/>
     <use xlink:href="#DejaVuSans-36" x="306.445312"/>
     <use xlink:href="#DejaVuSans-35" x="370.068359"/>
    </g>
   </g>
  </g>
  <g id="axes_3">
   <g id="patch_8">
    <path d="M 798.93237 201.042 
L 1100.609573 201.042 
L 1100.609573 81.456 
L 798.93237 81.456 
z
" style="fill: #eaeaf2"/>
   </g>
   <g id="matplotlib.axis_5">
    <g id="xtick_9">
     <g id="line2d_25">
      <path d="M 812.64497 201.042 
L 812.64497 81.456 
" clip-path="url(#p112984757e)" style="fill: none; stroke: #ffffff; stroke-linecap: round"/>
     </g>
    </g>
    <g id="xtick_10">
     <g id="line2d_26">
      <path d="M 906.695726 201.042 
L 906.695726 81.456 
" clip-path="url(#p112984757e)" style="fill: none; stroke: #ffffff; stroke-linecap: round"/>
     </g>
    </g>
    <g id="xtick_11">
     <g id="line2d_27">
      <path d="M 1000.746481 201.042 
L 1000.746481 81.456 
" clip-path="url(#p112984757e)" style="fill: none; stroke: #ffffff; stroke-linecap: round"/>
     </g>
    </g>
    <g id="xtick_12">
     <g id="line2d_28">
      <path d="M 1094.797237 201.042 
L 1094.797237 81.456 
" clip-path="url(#p112984757e)" style="fill: none; stroke: #ffffff; stroke-linecap: round"/>
     </g>
    </g>
   </g>
   <g id="matplotlib.axis_6">
    <g id="ytick_5">
     <g id="line2d_29">
      <path d="M 798.93237 181.607566 
L 1100.609573 181.607566 
" clip-path="url(#p112984757e)" style="fill: none; stroke: #ffffff; stroke-linecap: round"/>
     </g>
    </g>
    <g id="ytick_6">
     <g id="line2d_30">
      <path d="M 798.93237 100.851982 
L 1100.609573 100.851982 
" clip-path="url(#p112984757e)" style="fill: none; stroke: #ffffff; stroke-linecap: round"/>
     </g>
    </g>
   </g>
   <g id="PolyCollection_13"/>
   <g id="PolyCollection_14"/>
   <g id="PolyCollection_15"/>
   <g id="PolyCollection_16"/>
   <g id="PolyCollection_17"/>
   <g id="PolyCollection_18"/>
   <g id="line2d_31">
    <path d="M 812.64497 100.851982 
L 813.021173 141.730915 
L 813.397376 143.138988 
L 813.773579 143.47554 
L 814.525985 143.476611 
L 817.911813 142.836932 
L 818.288016 141.457467 
L 821.29764 138.491587 
L 826.188279 133.972928 
L 831.078918 129.762446 
L 836.345761 125.526174 
L 841.612603 121.573297 
L 846.879445 117.885288 
L 851.393882 115.000178 
L 857.036927 111.642235 
L 862.679972 108.544562 
L 868.323018 105.693777 
L 874.342266 102.908804 
L 880.361514 100.370323 
L 886.756966 97.923086 
L 893.152417 95.717819 
L 899.924071 93.627971 
L 906.695726 91.772294 
L 913.843583 90.050377 
L 916.853207 89.471798 
L 923.248659 89.04793 
L 931.901328 88.834503 
L 941.306404 89.268034 
L 949.58287 89.727402 
L 957.106931 90.303697 
L 963.878585 90.835659 
L 974.41227 91.43444 
L 1002.627496 92.828363 
L 1012.032572 93.61529 
L 1021.81385 94.076946 
L 1038.366783 94.628689 
L 1061.691371 95.1693 
L 1086.896973 95.569557 
L 1086.896973 95.569557 
" clip-path="url(#p112984757e)" style="fill: none; stroke: #4c72b0; stroke-opacity: 0.9; stroke-width: 3; stroke-linecap: round"/>
   </g>
   <g id="line2d_32">
    <path d="M 812.64497 100.851982 
L 813.021173 123.147577 
L 813.397376 124.079173 
L 813.773579 124.384667 
L 814.525985 124.486867 
L 817.159407 124.270191 
L 817.911813 124.200644 
L 818.288016 123.448396 
L 819.040422 122.873232 
L 824.307264 120.203596 
L 829.574106 117.758833 
L 835.969558 115.060043 
L 842.741212 112.455993 
L 849.889069 109.957838 
L 855.908318 108.073441 
L 863.432378 105.949518 
L 871.332642 103.956254 
L 879.232905 102.188953 
L 887.885575 100.486801 
L 896.914447 98.945537 
L 906.319523 97.565631 
L 915.724598 96.392185 
L 921.367644 96.128296 
L 932.277531 95.824517 
L 945.444637 95.888087 
L 966.135803 95.992783 
L 983.064939 96.496766 
L 1008.646745 96.711029 
L 1028.209302 96.945086 
L 1037.238174 97.234774 
L 1044.762235 97.435127 
L 1049.276671 97.509 
L 1086.896973 97.804218 
L 1086.896973 97.804218 
" clip-path="url(#p112984757e)" style="fill: none; stroke: #dd8452; stroke-opacity: 0.9; stroke-width: 3; stroke-linecap: round"/>
   </g>
   <g id="line2d_33">
    <path d="M 812.64497 100.851982 
L 813.021173 143.686793 
L 813.397376 145.978907 
L 813.773579 146.518513 
L 814.149782 146.620535 
L 815.278391 146.465758 
L 817.911813 145.932126 
L 818.664219 144.894262 
L 822.426249 141.209555 
L 827.693091 136.35089 
L 832.959933 131.805049 
L 837.850573 127.878484 
L 841.612603 125.134132 
L 844.99843 122.921578 
L 850.265272 120.006485 
L 854.779709 118.055124 
L 858.917942 116.444154 
L 871.332642 111.81761 
L 877.35189 109.748411 
L 902.933696 101.670851 
L 914.219786 98.396084 
L 920.991441 96.668762 
L 927.763095 95.144988 
L 933.029937 94.189622 
L 938.29678 93.436124 
L 943.939825 92.894269 
L 951.463885 92.107508 
L 956.354525 91.655497 
L 967.640615 90.838947 
L 969.897833 90.817867 
L 976.293285 91.18629 
L 994.35103 92.551468 
L 1006.76573 93.514449 
L 1020.309038 94.242394 
L 1034.604753 94.816659 
L 1054.919716 95.398666 
L 1079.749116 95.896311 
L 1086.896973 96.009948 
L 1086.896973 96.009948 
" clip-path="url(#p112984757e)" style="fill: none; stroke: #55a868; stroke-opacity: 0.9; stroke-width: 3; stroke-linecap: round"/>
   </g>
   <g id="line2d_34">
    <path d="M 812.64497 100.851982 
L 813.021173 134.516587 
L 813.397376 136.357669 
L 813.773579 136.783003 
L 814.525985 136.840962 
L 817.911813 136.313649 
L 818.664219 135.541756 
L 822.802452 132.328755 
L 828.445497 128.21586 
L 834.088543 124.373721 
L 838.226776 121.781449 
L 840.860197 120.367976 
L 847.631851 117.073482 
L 851.017679 115.673153 
L 857.789333 113.371586 
L 863.432378 111.613747 
L 872.085048 109.139909 
L 889.390387 104.343248 
L 913.091177 97.746443 
L 922.872456 95.262828 
L 927.010689 94.433109 
L 935.287155 93.105444 
L 942.811216 92.244906 
L 945.82084 92.078192 
L 951.463885 92.185421 
L 960.492758 92.78746 
L 967.264412 93.143411 
L 973.283661 93.490504 
L 999.994075 95.108918 
L 1015.794602 95.712133 
L 1037.99058 96.364517 
L 1062.443777 96.820095 
L 1086.896973 97.124612 
L 1086.896973 97.124612 
" clip-path="url(#p112984757e)" style="fill: none; stroke: #c44e52; stroke-opacity: 0.9; stroke-width: 3; stroke-linecap: round"/>
   </g>
   <g id="line2d_35">
    <path d="M 812.64497 100.851982 
L 813.021173 140.097539 
L 813.397376 141.785406 
L 813.773579 142.027273 
L 814.525985 141.970204 
L 817.911813 141.355365 
L 820.169031 139.019306 
L 824.683467 134.635547 
L 829.197903 130.560699 
L 834.464746 126.142704 
L 839.731588 122.031657 
L 843.869821 119.075152 
L 849.512866 115.354451 
L 855.155912 111.901244 
L 860.798957 108.700929 
L 866.818205 105.549821 
L 872.837454 102.655661 
L 879.232905 99.86175 
L 885.628357 97.317218 
L 892.023808 95.013912 
L 898.795462 92.808529 
L 905.94332 90.724274 
L 911.962568 89.185881 
L 916.853207 88.146267 
L 920.991441 87.784421 
L 929.64411 87.263897 
L 939.801592 86.891727 
L 943.563622 87.006893 
L 951.840088 88.14273 
L 958.23554 88.852038 
L 966.888209 89.591224 
L 992.846218 92.203565 
L 1007.894339 93.659807 
L 1015.794602 94.191278 
L 1029.337911 94.821832 
L 1047.395656 95.449753 
L 1069.215431 95.932969 
L 1086.896973 96.206975 
L 1086.896973 96.206975 
" clip-path="url(#p112984757e)" style="fill: none; stroke: #8172b3; stroke-opacity: 0.9; stroke-width: 3; stroke-linecap: round"/>
   </g>
   <g id="line2d_36">
    <path d="M 812.64497 100.851982 
L 813.021173 132.343221 
L 813.397376 133.492023 
L 813.773579 133.676446 
L 814.902188 133.582501 
L 817.911813 133.163067 
L 819.040422 132.20731 
L 823.931061 128.550092 
L 829.197903 124.890287 
L 834.464746 121.504564 
L 840.107791 118.1748 
L 845.374633 115.318785 
L 851.393882 112.348431 
L 857.789333 109.447555 
L 864.184784 106.79233 
L 870.956439 104.228556 
L 877.728093 101.905824 
L 884.875951 99.705326 
L 892.400011 97.631598 
L 900.300274 95.696941 
L 908.200538 93.992084 
L 915.348395 92.681688 
L 917.981816 92.325539 
L 924.001065 92.025695 
L 942.435013 91.341351 
L 949.206667 91.674607 
L 961.621367 92.47956 
L 996.608248 94.335601 
L 1003.379902 94.952431 
L 1026.70449 96.068934 
L 1044.762235 96.497465 
L 1070.720243 96.882258 
L 1086.896973 97.039084 
L 1086.896973 97.039084 
" clip-path="url(#p112984757e)" style="fill: none; stroke: #937860; stroke-opacity: 0.9; stroke-width: 3; stroke-linecap: round"/>
   </g>
   <g id="patch_9">
    <path d="M 798.93237 201.042 
L 798.93237 81.456 
" style="fill: none; stroke: #ffffff; stroke-width: 1.25; stroke-linejoin: miter; stroke-linecap: square"/>
   </g>
   <g id="patch_10">
    <path d="M 798.93237 201.042 
L 1100.609573 201.042 
" style="fill: none; stroke: #ffffff; stroke-width: 1.25; stroke-linejoin: miter; stroke-linecap: square"/>
   </g>
   <g id="text_6">
    <!-- 0.85~90 -->
    <g style="fill: #262626" transform="translate(895.124378 75.456) scale(0.252 -0.252)">
     <use xlink:href="#DejaVuSans-30"/>
     <use xlink:href="#DejaVuSans-2e" x="63.623047"/>
     <use xlink:href="#DejaVuSans-38" x="95.410156"/>
     <use xlink:href="#DejaVuSans-35" x="159.033203"/>
     <use xlink:href="#DejaVuSans-7e" x="222.65625"/>
     <use xlink:href="#DejaVuSans-39" x="306.445312"/>
     <use xlink:href="#DejaVuSans-30" x="370.068359"/>
    </g>
   </g>
  </g>
  <g id="axes_4">
   <g id="patch_11">
    <path d="M 142.032503 373.284 
L 443.709706 373.284 
L 443.709706 253.698 
L 142.032503 253.698 
z
" style="fill: #eaeaf2"/>
   </g>
   <g id="matplotlib.axis_7">
    <g id="xtick_13">
     <g id="line2d_37">
      <path d="M 155.745103 373.284 
L 155.745103 253.698 
" clip-path="url(#pdba41c75a4)" style="fill: none; stroke: #ffffff; stroke-linecap: round"/>
     </g>
     <g id="text_7">
      <!-- 0 -->
      <g style="fill: #262626" transform="translate(148.396415 400.336391) scale(0.231 -0.231)">
       <use xlink:href="#DejaVuSans-30"/>
      </g>
     </g>
    </g>
    <g id="xtick_14">
     <g id="line2d_38">
      <path d="M 249.795858 373.284 
L 249.795858 253.698 
" clip-path="url(#pdba41c75a4)" style="fill: none; stroke: #ffffff; stroke-linecap: round"/>
     </g>
     <g id="text_8">
      <!-- 250 -->
      <g style="fill: #262626" transform="translate(227.749796 400.336391) scale(0.231 -0.231)">
       <defs>
        <path id="DejaVuSans-32" d="M 1228 531 
L 3431 531 
L 3431 0 
L 469 0 
L 469 531 
Q 828 903 1448 1529 
Q 2069 2156 2228 2338 
Q 2531 2678 2651 2914 
Q 2772 3150 2772 3378 
Q 2772 3750 2511 3984 
Q 2250 4219 1831 4219 
Q 1534 4219 1204 4116 
Q 875 4013 500 3803 
L 500 4441 
Q 881 4594 1212 4672 
Q 1544 4750 1819 4750 
Q 2544 4750 2975 4387 
Q 3406 4025 3406 3419 
Q 3406 3131 3298 2873 
Q 3191 2616 2906 2266 
Q 2828 2175 2409 1742 
Q 1991 1309 1228 531 
z
" transform="scale(0.015625)"/>
       </defs>
       <use xlink:href="#DejaVuSans-32"/>
       <use xlink:href="#DejaVuSans-35" x="63.623047"/>
       <use xlink:href="#DejaVuSans-30" x="127.246094"/>
      </g>
     </g>
    </g>
    <g id="xtick_15">
     <g id="line2d_39">
      <path d="M 343.846614 373.284 
L 343.846614 253.698 
" clip-path="url(#pdba41c75a4)" style="fill: none; stroke: #ffffff; stroke-linecap: round"/>
     </g>
     <g id="text_9">
      <!-- 500 -->
      <g style="fill: #262626" transform="translate(321.800551 400.336391) scale(0.231 -0.231)">
       <use xlink:href="#DejaVuSans-35"/>
       <use xlink:href="#DejaVuSans-30" x="63.623047"/>
       <use xlink:href="#DejaVuSans-30" x="127.246094"/>
      </g>
     </g>
    </g>
    <g id="xtick_16">
     <g id="line2d_40">
      <path d="M 437.897369 373.284 
L 437.897369 253.698 
" clip-path="url(#pdba41c75a4)" style="fill: none; stroke: #ffffff; stroke-linecap: round"/>
     </g>
     <g id="text_10">
      <!-- 750 -->
      <g style="fill: #262626" transform="translate(415.851307 400.336391) scale(0.231 -0.231)">
       <defs>
        <path id="DejaVuSans-37" d="M 525 4666 
L 3525 4666 
L 3525 4397 
L 1831 0 
L 1172 0 
L 2766 4134 
L 525 4134 
L 525 4666 
z
" transform="scale(0.015625)"/>
       </defs>
       <use xlink:href="#DejaVuSans-37"/>
       <use xlink:href="#DejaVuSans-35" x="63.623047"/>
       <use xlink:href="#DejaVuSans-30" x="127.246094"/>
      </g>
     </g>
    </g>
    <g id="text_11">
     <!-- step -->
     <g style="fill: #262626" transform="translate(265.615729 428.288531) scale(0.252 -0.252)">
      <defs>
       <path id="DejaVuSans-73" d="M 2834 3397 
L 2834 2853 
Q 2591 2978 2328 3040 
Q 2066 3103 1784 3103 
Q 1356 3103 1142 2972 
Q 928 2841 928 2578 
Q 928 2378 1081 2264 
Q 1234 2150 1697 2047 
L 1894 2003 
Q 2506 1872 2764 1633 
Q 3022 1394 3022 966 
Q 3022 478 2636 193 
Q 2250 -91 1575 -91 
Q 1294 -91 989 -36 
Q 684 19 347 128 
L 347 722 
Q 666 556 975 473 
Q 1284 391 1588 391 
Q 1994 391 2212 530 
Q 2431 669 2431 922 
Q 2431 1156 2273 1281 
Q 2116 1406 1581 1522 
L 1381 1569 
Q 847 1681 609 1914 
Q 372 2147 372 2553 
Q 372 3047 722 3315 
Q 1072 3584 1716 3584 
Q 2034 3584 2315 3537 
Q 2597 3491 2834 3397 
z
" transform="scale(0.015625)"/>
       <path id="DejaVuSans-74" d="M 1172 4494 
L 1172 3500 
L 2356 3500 
L 2356 3053 
L 1172 3053 
L 1172 1153 
Q 1172 725 1289 603 
Q 1406 481 1766 481 
L 2356 481 
L 2356 0 
L 1766 0 
Q 1100 0 847 248 
Q 594 497 594 1153 
L 594 3053 
L 172 3053 
L 172 3500 
L 594 3500 
L 594 4494 
L 1172 4494 
z
" transform="scale(0.015625)"/>
       <path id="DejaVuSans-70" d="M 1159 525 
L 1159 -1331 
L 581 -1331 
L 581 3500 
L 1159 3500 
L 1159 2969 
Q 1341 3281 1617 3432 
Q 1894 3584 2278 3584 
Q 2916 3584 3314 3078 
Q 3713 2572 3713 1747 
Q 3713 922 3314 415 
Q 2916 -91 2278 -91 
Q 1894 -91 1617 61 
Q 1341 213 1159 525 
z
M 3116 1747 
Q 3116 2381 2855 2742 
Q 2594 3103 2138 3103 
Q 1681 3103 1420 2742 
Q 1159 2381 1159 1747 
Q 1159 1113 1420 752 
Q 1681 391 2138 391 
Q 2594 391 2855 752 
Q 3116 1113 3116 1747 
z
" transform="scale(0.015625)"/>
      </defs>
      <use xlink:href="#DejaVuSans-73"/>
      <use xlink:href="#DejaVuSans-74" x="52.099609"/>
      <use xlink:href="#DejaVuSans-65" x="91.308594"/>
      <use xlink:href="#DejaVuSans-70" x="152.832031"/>
     </g>
    </g>
   </g>
   <g id="matplotlib.axis_8">
    <g id="ytick_7">
     <g id="line2d_41">
      <path d="M 142.032503 353.849566 
L 443.709706 353.849566 
" clip-path="url(#pdba41c75a4)" style="fill: none; stroke: #ffffff; stroke-linecap: round"/>
     </g>
     <g id="text_12">
      <!-- −1 -->
      <g style="fill: #262626" transform="translate(98.47805 362.625761) scale(0.231 -0.231)">
       <use xlink:href="#DejaVuSans-2212"/>
       <use xlink:href="#DejaVuSans-31" x="83.789062"/>
      </g>
     </g>
    </g>
    <g id="ytick_8">
     <g id="line2d_42">
      <path d="M 142.032503 273.093982 
L 443.709706 273.093982 
" clip-path="url(#pdba41c75a4)" style="fill: none; stroke: #ffffff; stroke-linecap: round"/>
     </g>
     <g id="text_13">
      <!-- 0 -->
      <g style="fill: #262626" transform="translate(117.835128 281.870178) scale(0.231 -0.231)">
       <use xlink:href="#DejaVuSans-30"/>
      </g>
     </g>
    </g>
    <g id="text_14">
     <!-- % change -->
     <g style="fill: #262626" transform="translate(89.237237 375.839344) rotate(-90) scale(0.252 -0.252)">
      <use xlink:href="#DejaVuSans-25"/>
      <use xlink:href="#DejaVuSans-20" x="95.019531"/>
      <use xlink:href="#DejaVuSans-63" x="126.806641"/>
      <use xlink:href="#DejaVuSans-68" x="181.787109"/>
      <use xlink:href="#DejaVuSans-61" x="245.166016"/>
      <use xlink:href="#DejaVuSans-6e" x="306.445312"/>
      <use xlink:href="#DejaVuSans-67" x="369.824219"/>
      <use xlink:href="#DejaVuSans-65" x="433.300781"/>
     </g>
    </g>
   </g>
   <g id="PolyCollection_19"/>
   <g id="PolyCollection_20"/>
   <g id="PolyCollection_21"/>
   <g id="PolyCollection_22"/>
   <g id="PolyCollection_23"/>
   <g id="PolyCollection_24"/>
   <g id="line2d_43">
    <path d="M 155.745103 273.093982 
L 156.121306 313.972915 
L 156.497509 315.426229 
L 156.873712 315.815245 
L 157.626118 315.925359 
L 161.011945 315.774291 
L 161.388148 314.429503 
L 165.150179 311.838495 
L 170.417021 308.474365 
L 176.060066 305.125483 
L 182.079315 301.822055 
L 188.098563 298.775304 
L 194.117811 295.968065 
L 200.513263 293.227926 
L 207.284917 290.574811 
L 214.056571 288.1563 
L 221.204429 285.834645 
L 228.728489 283.627933 
L 235.876347 281.761124 
L 244.152813 279.841248 
L 252.805483 278.064444 
L 261.834355 276.434205 
L 271.615634 274.896138 
L 282.149318 273.471834 
L 293.435409 272.177391 
L 305.473906 271.022931 
L 318.641011 269.986707 
L 327.293681 269.4691 
L 338.955975 269.404035 
L 348.737253 269.516952 
L 364.53778 269.973372 
L 399.900864 270.815671 
L 429.997106 271.106239 
L 429.997106 271.106239 
" clip-path="url(#pdba41c75a4)" style="fill: none; stroke: #4c72b0; stroke-opacity: 0.9; stroke-width: 3; stroke-linecap: round"/>
   </g>
   <g id="line2d_44">
    <path d="M 155.745103 273.093982 
L 156.121306 295.389577 
L 156.497509 296.342081 
L 156.873712 296.672078 
L 157.626118 296.826168 
L 160.259539 296.792631 
L 161.011945 296.774932 
L 161.388148 296.073751 
L 162.140554 295.58125 
L 167.407397 293.64267 
L 174.555254 291.252584 
L 182.079315 288.978291 
L 189.979578 286.831008 
L 197.503638 285.004445 
L 206.156308 283.13505 
L 215.18518 281.40798 
L 224.966459 279.768968 
L 235.123941 278.29081 
L 245.281422 277.031036 
L 257.319919 275.769918 
L 270.110822 274.653589 
L 284.406537 273.633418 
L 300.207063 272.734311 
L 317.888605 271.955353 
L 328.798493 271.644218 
L 350.994471 271.612747 
L 370.557029 271.763933 
L 389.743383 271.947347 
L 398.772255 272.026299 
L 426.235076 272.141952 
L 429.997106 272.150269 
L 429.997106 272.150269 
" clip-path="url(#pdba41c75a4)" style="fill: none; stroke: #dd8452; stroke-opacity: 0.9; stroke-width: 3; stroke-linecap: round"/>
   </g>
   <g id="line2d_45">
    <path d="M 155.745103 273.093982 
L 156.121306 315.928793 
L 156.497509 318.267825 
L 156.873712 318.862202 
L 157.249915 319.021023 
L 158.378524 319.037987 
L 161.011945 318.900762 
L 161.388148 318.382263 
L 162.516757 317.528985 
L 168.159803 313.776829 
L 174.179051 310.041841 
L 180.198299 306.564586 
L 184.712736 304.24477 
L 188.474766 302.538623 
L 192.612999 300.955721 
L 196.751232 299.543746 
L 200.889466 298.457696 
L 225.342662 292.800353 
L 244.905219 288.856936 
L 270.487025 283.484001 
L 326.165072 271.628832 
L 335.570147 269.963901 
L 341.589396 269.180206 
L 343.846614 269.046827 
L 349.865862 269.048579 
L 359.647141 269.303319 
L 373.942856 269.639906 
L 397.267443 270.19505 
L 417.958609 270.658628 
L 429.997106 270.911393 
L 429.997106 270.911393 
" clip-path="url(#pdba41c75a4)" style="fill: none; stroke: #55a868; stroke-opacity: 0.9; stroke-width: 3; stroke-linecap: round"/>
   </g>
   <g id="line2d_46">
    <path d="M 155.745103 273.093982 
L 156.121306 306.758587 
L 156.497509 308.63681 
L 156.873712 309.105692 
L 157.626118 309.254358 
L 161.011945 309.134252 
L 161.764351 308.520926 
L 166.278788 306.09074 
L 172.674239 302.869983 
L 179.445893 299.715451 
L 182.455518 298.475923 
L 186.593751 297.072201 
L 192.989202 295.070057 
L 196.751232 294.093402 
L 206.908714 291.991405 
L 222.709241 289.17919 
L 236.25255 286.770491 
L 253.181686 283.519227 
L 274.249055 279.225688 
L 299.078454 274.114308 
L 310.364545 272.027473 
L 316.00759 271.165238 
L 322.403042 270.650564 
L 330.303305 270.269023 
L 338.203569 270.069271 
L 350.994471 270.078825 
L 364.53778 270.313576 
L 392.753007 270.869531 
L 409.682143 271.194369 
L 429.997106 271.470834 
L 429.997106 271.470834 
" clip-path="url(#pdba41c75a4)" style="fill: none; stroke: #c44e52; stroke-opacity: 0.9; stroke-width: 3; stroke-linecap: round"/>
   </g>
   <g id="line2d_47">
    <path d="M 155.745103 273.093982 
L 156.121306 312.339539 
L 156.497509 314.075647 
L 156.873712 314.369178 
L 157.626118 314.416464 
L 161.011945 314.266433 
L 162.516757 313.164667 
L 167.7836 309.647314 
L 173.426645 306.153343 
L 179.06969 302.918195 
L 185.088939 299.731789 
L 191.108187 296.795197 
L 197.127435 294.094105 
L 203.522887 291.463765 
L 210.294541 288.916863 
L 217.442399 286.470152 
L 224.214053 284.371795 
L 231.36191 282.376249 
L 239.638377 280.335332 
L 248.291046 278.437843 
L 257.319919 276.689698 
L 266.724994 275.092512 
L 276.882476 273.593367 
L 287.792364 272.22647 
L 299.454657 270.994549 
L 312.24556 269.871194 
L 324.66026 268.992025 
L 328.798493 268.852837 
L 350.618268 268.765254 
L 361.528156 268.849687 
L 368.29981 269.159422 
L 377.328683 269.604013 
L 389.36718 269.958899 
L 429.997106 270.818657 
L 429.997106 270.818657 
" clip-path="url(#pdba41c75a4)" style="fill: none; stroke: #8172b3; stroke-opacity: 0.9; stroke-width: 3; stroke-linecap: round"/>
   </g>
   <g id="line2d_48">
    <path d="M 155.745103 273.093982 
L 156.121306 304.585221 
L 156.497509 305.770999 
L 156.873712 305.994911 
L 158.002321 306.02056 
L 161.011945 305.91611 
L 161.764351 305.41592 
L 167.031194 302.622561 
L 173.050442 299.675262 
L 179.445893 296.800603 
L 185.841345 294.166876 
L 192.612999 291.617729 
L 199.760857 289.171659 
L 207.284917 286.843877 
L 214.808977 284.755922 
L 223.085444 282.705087 
L 231.36191 280.879678 
L 239.262174 279.350868 
L 249.043452 277.681638 
L 259.200934 276.176357 
L 270.110822 274.786682 
L 281.773115 273.526643 
L 294.564018 272.384736 
L 308.48353 271.366917 
L 323.531651 270.49158 
L 329.550899 270.306002 
L 347.984847 270.239824 
L 364.53778 270.263216 
L 381.843119 270.742239 
L 415.325188 271.197316 
L 429.997106 271.348396 
L 429.997106 271.348396 
" clip-path="url(#pdba41c75a4)" style="fill: none; stroke: #937860; stroke-opacity: 0.9; stroke-width: 3; stroke-linecap: round"/>
   </g>
   <g id="patch_12">
    <path d="M 142.032503 373.284 
L 142.032503 253.698 
" style="fill: none; stroke: #ffffff; stroke-width: 1.25; stroke-linejoin: miter; stroke-linecap: square"/>
   </g>
   <g id="patch_13">
    <path d="M 142.032503 373.284 
L 443.709706 373.284 
" style="fill: none; stroke: #ffffff; stroke-width: 1.25; stroke-linejoin: miter; stroke-linecap: square"/>
   </g>
   <g id="text_15">
    <!-- 0.85~365 -->
    <g style="fill: #262626" transform="translate(230.207761 247.698) scale(0.252 -0.252)">
     <use xlink:href="#DejaVuSans-30"/>
     <use xlink:href="#DejaVuSans-2e" x="63.623047"/>
     <use xlink:href="#DejaVuSans-38" x="95.410156"/>
     <use xlink:href="#DejaVuSans-35" x="159.033203"/>
     <use xlink:href="#DejaVuSans-7e" x="222.65625"/>
     <use xlink:href="#DejaVuSans-33" x="306.445312"/>
     <use xlink:href="#DejaVuSans-36" x="370.068359"/>
     <use xlink:href="#DejaVuSans-35" x="433.691406"/>
    </g>
   </g>
  </g>
  <g id="axes_5">
   <g id="patch_14">
    <path d="M 470.482436 373.284 
L 772.15964 373.284 
L 772.15964 253.698 
L 470.482436 253.698 
z
" style="fill: #eaeaf2"/>
   </g>
   <g id="matplotlib.axis_9">
    <g id="xtick_17">
     <g id="line2d_49">
      <path d="M 484.195037 373.284 
L 484.195037 253.698 
" clip-path="url(#p26d1adf2d5)" style="fill: none; stroke: #ffffff; stroke-linecap: round"/>
     </g>
     <g id="text_16">
      <!-- 0 -->
      <g style="fill: #262626" transform="translate(476.846349 400.336391) scale(0.231 -0.231)">
       <use xlink:href="#DejaVuSans-30"/>
      </g>
     </g>
    </g>
    <g id="xtick_18">
     <g id="line2d_50">
      <path d="M 578.245792 373.284 
L 578.245792 253.698 
" clip-path="url(#p26d1adf2d5)" style="fill: none; stroke: #ffffff; stroke-linecap: round"/>
     </g>
     <g id="text_17">
      <!-- 250 -->
      <g style="fill: #262626" transform="translate(556.19973 400.336391) scale(0.231 -0.231)">
       <use xlink:href="#DejaVuSans-32"/>
       <use xlink:href="#DejaVuSans-35" x="63.623047"/>
       <use xlink:href="#DejaVuSans-30" x="127.246094"/>
      </g>
     </g>
    </g>
    <g id="xtick_19">
     <g id="line2d_51">
      <path d="M 672.296548 373.284 
L 672.296548 253.698 
" clip-path="url(#p26d1adf2d5)" style="fill: none; stroke: #ffffff; stroke-linecap: round"/>
     </g>
     <g id="text_18">
      <!-- 500 -->
      <g style="fill: #262626" transform="translate(650.250485 400.336391) scale(0.231 -0.231)">
       <use xlink:href="#DejaVuSans-35"/>
       <use xlink:href="#DejaVuSans-30" x="63.623047"/>
       <use xlink:href="#DejaVuSans-30" x="127.246094"/>
      </g>
     </g>
    </g>
    <g id="xtick_20">
     <g id="line2d_52">
      <path d="M 766.347303 373.284 
L 766.347303 253.698 
" clip-path="url(#p26d1adf2d5)" style="fill: none; stroke: #ffffff; stroke-linecap: round"/>
     </g>
     <g id="text_19">
      <!-- 750 -->
      <g style="fill: #262626" transform="translate(744.301241 400.336391) scale(0.231 -0.231)">
       <use xlink:href="#DejaVuSans-37"/>
       <use xlink:href="#DejaVuSans-35" x="63.623047"/>
       <use xlink:href="#DejaVuSans-30" x="127.246094"/>
      </g>
     </g>
    </g>
    <g id="text_20">
     <!-- step -->
     <g style="fill: #262626" transform="translate(594.065663 428.288531) scale(0.252 -0.252)">
      <use xlink:href="#DejaVuSans-73"/>
      <use xlink:href="#DejaVuSans-74" x="52.099609"/>
      <use xlink:href="#DejaVuSans-65" x="91.308594"/>
      <use xlink:href="#DejaVuSans-70" x="152.832031"/>
     </g>
    </g>
   </g>
   <g id="matplotlib.axis_10">
    <g id="ytick_9">
     <g id="line2d_53">
      <path d="M 470.482436 353.849566 
L 772.15964 353.849566 
" clip-path="url(#p26d1adf2d5)" style="fill: none; stroke: #ffffff; stroke-linecap: round"/>
     </g>
    </g>
    <g id="ytick_10">
     <g id="line2d_54">
      <path d="M 470.482436 273.093982 
L 772.15964 273.093982 
" clip-path="url(#p26d1adf2d5)" style="fill: none; stroke: #ffffff; stroke-linecap: round"/>
     </g>
    </g>
   </g>
   <g id="PolyCollection_25"/>
   <g id="PolyCollection_26"/>
   <g id="PolyCollection_27"/>
   <g id="PolyCollection_28"/>
   <g id="PolyCollection_29"/>
   <g id="PolyCollection_30"/>
   <g id="line2d_55">
    <path d="M 484.195037 273.093982 
L 484.57124 313.972915 
L 484.947443 315.380988 
L 485.323646 315.71754 
L 486.076052 315.718611 
L 489.461879 315.078932 
L 489.838082 313.699467 
L 492.847706 310.733587 
L 497.738345 306.214928 
L 502.628985 302.004446 
L 507.895827 297.768174 
L 513.162669 293.815297 
L 513.915075 293.460234 
L 518.053309 291.935638 
L 520.310527 291.231653 
L 521.062933 291.584989 
L 522.943948 293.760801 
L 525.201166 296.905873 
L 526.705978 298.572221 
L 527.834587 299.410469 
L 528.963196 299.886045 
L 529.715602 299.99549 
L 530.468008 299.93957 
L 531.220414 299.719058 
L 531.97282 299.334782 
L 533.101429 298.453066 
L 534.230039 297.207433 
L 535.358648 295.60184 
L 536.487257 293.647102 
L 537.992069 290.505815 
L 539.873084 285.940632 
L 542.882708 278.401329 
L 544.011317 276.70913 
L 544.763723 275.959088 
L 547.773347 273.455773 
L 548.901956 272.604854 
L 554.545002 270.274475 
L 560.940453 267.93532 
L 567.335904 265.833949 
L 574.107559 263.849641 
L 580.50301 262.202516 
L 584.641244 261.312933 
L 591.036695 260.958067 
L 599.689364 260.629503 
L 604.203801 260.565 
L 613.232673 261.040716 
L 618.499515 261.358692 
L 633.923839 262.667038 
L 644.081321 263.256788 
L 671.920345 264.68321 
L 688.097075 265.906692 
L 701.640383 266.424055 
L 722.707753 266.994558 
L 749.79437 267.493489 
L 758.44704 267.614157 
L 758.44704 267.614157 
" clip-path="url(#p26d1adf2d5)" style="fill: none; stroke: #4c72b0; stroke-opacity: 0.9; stroke-width: 3; stroke-linecap: round"/>
   </g>
   <g id="line2d_56">
    <path d="M 484.195037 273.093982 
L 484.57124 295.389577 
L 484.947443 296.321173 
L 485.323646 296.626667 
L 486.076052 296.728867 
L 488.709473 296.512191 
L 489.461879 296.442644 
L 489.838082 295.690396 
L 490.590488 295.115232 
L 495.85733 292.445596 
L 501.124173 290.000833 
L 507.519624 287.302043 
L 514.291278 284.697993 
L 521.439136 282.199838 
L 527.458384 280.315441 
L 534.982445 278.191518 
L 542.882708 276.198254 
L 550.782972 274.430953 
L 559.435641 272.728801 
L 568.464514 271.187537 
L 577.869589 269.807631 
L 587.274665 268.634185 
L 592.91771 268.370296 
L 603.827598 268.066517 
L 616.994703 268.130087 
L 637.68587 268.234783 
L 654.615006 268.738766 
L 680.196811 268.953029 
L 699.759368 269.187086 
L 708.788241 269.476774 
L 716.312301 269.677127 
L 720.826737 269.751 
L 758.44704 270.046218 
L 758.44704 270.046218 
" clip-path="url(#p26d1adf2d5)" style="fill: none; stroke: #dd8452; stroke-opacity: 0.9; stroke-width: 3; stroke-linecap: round"/>
   </g>
   <g id="line2d_57">
    <path d="M 484.195037 273.093982 
L 484.57124 315.928793 
L 484.947443 318.220907 
L 485.323646 318.760513 
L 485.699849 318.862535 
L 486.828458 318.707758 
L 489.461879 318.174126 
L 490.214285 317.136262 
L 493.976315 313.451555 
L 498.490751 309.287802 
L 502.628985 305.790419 
L 504.886203 304.143615 
L 507.143421 302.71035 
L 508.648233 302.10049 
L 510.529248 301.62864 
L 512.03406 301.724145 
L 513.538872 302.022603 
L 517.300903 302.890873 
L 520.310527 303.364148 
L 526.329775 303.971945 
L 530.844211 304.043385 
L 533.853836 303.815399 
L 537.992069 303.207473 
L 541.377896 302.510248 
L 544.763723 301.596574 
L 548.14955 300.457612 
L 551.911581 298.958925 
L 556.049814 297.056113 
L 560.188047 294.907707 
L 564.702483 292.307111 
L 569.969326 288.991902 
L 576.74098 284.449386 
L 585.017447 278.608701 
L 588.403274 276.308893 
L 592.541507 273.96182 
L 594.798725 272.824843 
L 597.055943 271.967963 
L 600.44177 270.951974 
L 603.451395 270.339901 
L 606.461019 270.127734 
L 612.104064 269.924925 
L 624.142561 270.058202 
L 635.052448 270.141904 
L 641.824103 269.935829 
L 656.872224 269.273862 
L 663.643878 268.753774 
L 672.296548 267.846837 
L 698.630759 264.955913 
L 702.768992 264.95897 
L 708.035835 265.164697 
L 734.370046 266.363078 
L 753.5564 266.81226 
L 758.44704 266.899894 
L 758.44704 266.899894 
" clip-path="url(#p26d1adf2d5)" style="fill: none; stroke: #55a868; stroke-opacity: 0.9; stroke-width: 3; stroke-linecap: round"/>
   </g>
   <g id="line2d_58">
    <path d="M 484.195037 273.093982 
L 484.57124 306.758587 
L 484.947443 308.599669 
L 485.323646 309.025003 
L 486.076052 309.082962 
L 489.461879 308.555649 
L 490.214285 307.783756 
L 494.352518 304.570755 
L 499.243158 301.027794 
L 503.005188 298.685676 
L 505.262406 297.631886 
L 507.519624 296.769982 
L 508.648233 296.549212 
L 510.153045 296.538698 
L 512.03406 296.960233 
L 525.577369 300.286348 
L 528.963196 300.709416 
L 531.97282 300.951062 
L 534.982445 300.965876 
L 537.992069 300.764124 
L 541.001693 300.36048 
L 544.38752 299.677376 
L 547.773347 298.775408 
L 551.535378 297.535714 
L 555.297408 296.057344 
L 559.435641 294.196146 
L 563.573874 292.128955 
L 568.088311 289.627553 
L 573.355153 286.444699 
L 588.027071 277.369911 
L 591.036695 275.822777 
L 595.551131 273.893964 
L 600.44177 272.068305 
L 603.451395 271.169586 
L 607.589628 270.17619 
L 609.470643 269.957334 
L 618.123312 269.502809 
L 630.914215 269.032321 
L 637.68587 268.72527 
L 664.020081 266.988053 
L 679.068202 265.799585 
L 683.206435 265.713069 
L 690.354293 265.955546 
L 701.26418 266.467417 
L 714.431286 266.94562 
L 733.241437 267.381999 
L 758.44704 267.755327 
L 758.44704 267.755327 
" clip-path="url(#p26d1adf2d5)" style="fill: none; stroke: #c44e52; stroke-opacity: 0.9; stroke-width: 3; stroke-linecap: round"/>
   </g>
   <g id="line2d_59">
    <path d="M 484.195037 273.093982 
L 484.57124 312.339539 
L 484.947443 314.027406 
L 485.323646 314.269273 
L 486.076052 314.212204 
L 489.461879 313.597365 
L 491.719097 311.261306 
L 496.233533 306.877547 
L 500.74797 302.802699 
L 506.014812 298.384704 
L 511.281654 294.273657 
L 515.419887 291.317152 
L 521.062933 287.596451 
L 526.705978 284.143244 
L 532.349023 280.942929 
L 538.368272 277.791821 
L 544.38752 274.897661 
L 550.782972 272.10375 
L 557.178423 269.559218 
L 563.573874 267.255912 
L 570.345529 265.050529 
L 577.493386 262.966274 
L 583.512634 261.427881 
L 588.403274 260.388267 
L 592.541507 260.026421 
L 601.194176 259.505897 
L 611.351658 259.133727 
L 615.113688 259.248893 
L 623.390155 260.38473 
L 629.785606 261.094038 
L 638.438276 261.833224 
L 664.396284 264.445565 
L 679.444405 265.901807 
L 687.344668 266.433278 
L 700.887977 267.063832 
L 718.945722 267.691753 
L 740.765498 268.174969 
L 758.44704 268.448975 
L 758.44704 268.448975 
" clip-path="url(#p26d1adf2d5)" style="fill: none; stroke: #8172b3; stroke-opacity: 0.9; stroke-width: 3; stroke-linecap: round"/>
   </g>
   <g id="line2d_60">
    <path d="M 484.195037 273.093982 
L 484.57124 304.585221 
L 484.947443 305.734023 
L 485.323646 305.918446 
L 486.452255 305.824501 
L 489.461879 305.405067 
L 490.590488 304.44931 
L 495.481127 300.792092 
L 500.74797 297.132287 
L 506.014812 293.746564 
L 511.657857 290.4168 
L 516.9247 287.560785 
L 522.943948 284.590431 
L 529.339399 281.689555 
L 535.734851 279.03433 
L 542.506505 276.470556 
L 549.278159 274.147824 
L 556.426017 271.947326 
L 563.950077 269.873598 
L 571.850341 267.938941 
L 579.750604 266.234084 
L 586.898462 264.923688 
L 589.531883 264.567539 
L 595.551131 264.267695 
L 613.985079 263.583351 
L 620.756734 263.916607 
L 633.171433 264.72156 
L 668.158314 266.577601 
L 674.929969 267.194431 
L 698.254556 268.310934 
L 716.312301 268.739465 
L 742.27031 269.124258 
L 758.44704 269.281084 
L 758.44704 269.281084 
" clip-path="url(#p26d1adf2d5)" style="fill: none; stroke: #937860; stroke-opacity: 0.9; stroke-width: 3; stroke-linecap: round"/>
   </g>
   <g id="patch_15">
    <path d="M 470.482436 373.284 
L 470.482436 253.698 
" style="fill: none; stroke: #ffffff; stroke-width: 1.25; stroke-linejoin: miter; stroke-linecap: square"/>
   </g>
   <g id="patch_16">
    <path d="M 470.482436 373.284 
L 772.15964 373.284 
" style="fill: none; stroke: #ffffff; stroke-width: 1.25; stroke-linejoin: miter; stroke-linecap: square"/>
   </g>
   <g id="text_21">
    <!-- 0.95~90 -->
    <g style="fill: #262626" transform="translate(566.674444 247.698) scale(0.252 -0.252)">
     <use xlink:href="#DejaVuSans-30"/>
     <use xlink:href="#DejaVuSans-2e" x="63.623047"/>
     <use xlink:href="#DejaVuSans-39" x="95.410156"/>
     <use xlink:href="#DejaVuSans-35" x="159.033203"/>
     <use xlink:href="#DejaVuSans-7e" x="222.65625"/>
     <use xlink:href="#DejaVuSans-39" x="306.445312"/>
     <use xlink:href="#DejaVuSans-30" x="370.068359"/>
    </g>
   </g>
  </g>
  <g id="axes_6">
   <g id="patch_17">
    <path d="M 798.93237 373.284 
L 1100.609573 373.284 
L 1100.609573 253.698 
L 798.93237 253.698 
z
" style="fill: #eaeaf2"/>
   </g>
   <g id="matplotlib.axis_11">
    <g id="xtick_21">
     <g id="line2d_61">
      <path d="M 812.64497 373.284 
L 812.64497 253.698 
" clip-path="url(#p4c582ad687)" style="fill: none; stroke: #ffffff; stroke-linecap: round"/>
     </g>
     <g id="text_22">
      <!-- 0 -->
      <g style="fill: #262626" transform="translate(805.296283 400.336391) scale(0.231 -0.231)">
       <use xlink:href="#DejaVuSans-30"/>
      </g>
     </g>
    </g>
    <g id="xtick_22">
     <g id="line2d_62">
      <path d="M 906.695726 373.284 
L 906.695726 253.698 
" clip-path="url(#p4c582ad687)" style="fill: none; stroke: #ffffff; stroke-linecap: round"/>
     </g>
     <g id="text_23">
      <!-- 250 -->
      <g style="fill: #262626" transform="translate(884.649663 400.336391) scale(0.231 -0.231)">
       <use xlink:href="#DejaVuSans-32"/>
       <use xlink:href="#DejaVuSans-35" x="63.623047"/>
       <use xlink:href="#DejaVuSans-30" x="127.246094"/>
      </g>
     </g>
    </g>
    <g id="xtick_23">
     <g id="line2d_63">
      <path d="M 1000.746481 373.284 
L 1000.746481 253.698 
" clip-path="url(#p4c582ad687)" style="fill: none; stroke: #ffffff; stroke-linecap: round"/>
     </g>
     <g id="text_24">
      <!-- 500 -->
      <g style="fill: #262626" transform="translate(978.700419 400.336391) scale(0.231 -0.231)">
       <use xlink:href="#DejaVuSans-35"/>
       <use xlink:href="#DejaVuSans-30" x="63.623047"/>
       <use xlink:href="#DejaVuSans-30" x="127.246094"/>
      </g>
     </g>
    </g>
    <g id="xtick_24">
     <g id="line2d_64">
      <path d="M 1094.797237 373.284 
L 1094.797237 253.698 
" clip-path="url(#p4c582ad687)" style="fill: none; stroke: #ffffff; stroke-linecap: round"/>
     </g>
     <g id="text_25">
      <!-- 750 -->
      <g style="fill: #262626" transform="translate(1072.751174 400.336391) scale(0.231 -0.231)">
       <use xlink:href="#DejaVuSans-37"/>
       <use xlink:href="#DejaVuSans-35" x="63.623047"/>
       <use xlink:href="#DejaVuSans-30" x="127.246094"/>
      </g>
     </g>
    </g>
    <g id="text_26">
     <!-- step -->
     <g style="fill: #262626" transform="translate(922.515597 428.288531) scale(0.252 -0.252)">
      <use xlink:href="#DejaVuSans-73"/>
      <use xlink:href="#DejaVuSans-74" x="52.099609"/>
      <use xlink:href="#DejaVuSans-65" x="91.308594"/>
      <use xlink:href="#DejaVuSans-70" x="152.832031"/>
     </g>
    </g>
   </g>
   <g id="matplotlib.axis_12">
    <g id="ytick_11">
     <g id="line2d_65">
      <path d="M 798.93237 353.849566 
L 1100.609573 353.849566 
" clip-path="url(#p4c582ad687)" style="fill: none; stroke: #ffffff; stroke-linecap: round"/>
     </g>
    </g>
    <g id="ytick_12">
     <g id="line2d_66">
      <path d="M 798.93237 273.093982 
L 1100.609573 273.093982 
" clip-path="url(#p4c582ad687)" style="fill: none; stroke: #ffffff; stroke-linecap: round"/>
     </g>
    </g>
   </g>
   <g id="PolyCollection_31"/>
   <g id="PolyCollection_32"/>
   <g id="PolyCollection_33"/>
   <g id="PolyCollection_34"/>
   <g id="PolyCollection_35"/>
   <g id="PolyCollection_36"/>
   <g id="line2d_67">
    <path d="M 812.64497 273.093982 
L 813.021173 313.972915 
L 813.397376 315.426229 
L 813.773579 315.815245 
L 814.525985 315.925359 
L 817.911813 315.774291 
L 818.288016 314.429503 
L 822.050046 311.838495 
L 827.316888 308.474365 
L 832.959933 305.125483 
L 838.979182 301.822055 
L 840.860197 300.843325 
L 842.365009 300.82604 
L 842.741212 301.082207 
L 843.493618 303.614238 
L 844.622227 308.462419 
L 846.879445 320.601058 
L 848.384257 327.768309 
L 849.889069 334.004901 
L 851.770085 340.964049 
L 853.6511 347.110822 
L 855.532115 352.447277 
L 857.036927 356.135645 
L 858.541739 359.311084 
L 860.046551 361.97759 
L 861.551363 364.139028 
L 862.679972 365.431287 
L 863.808581 366.44433 
L 864.93719 367.182549 
L 866.065799 367.648151 
L 867.194408 367.843084 
L 868.323018 367.76947 
L 869.451627 367.429494 
L 870.580236 366.825532 
L 871.708845 365.960001 
L 872.837454 364.835598 
L 873.966063 363.455189 
L 875.470875 361.22112 
L 876.975687 358.544605 
L 878.480499 355.433941 
L 880.361514 350.94776 
L 882.242529 345.808966 
L 884.123544 340.033317 
L 886.380763 332.281792 
L 888.637981 323.653577 
L 891.271402 312.56024 
L 893.904823 300.479477 
L 896.538244 288.24476 
L 898.043056 282.542991 
L 898.795462 280.770076 
L 900.300274 278.066289 
L 901.428883 276.322626 
L 901.805086 276.081749 
L 909.329147 274.490085 
L 918.358019 272.804867 
L 927.763095 271.279047 
L 937.920577 269.861567 
L 944.692231 269.134614 
L 956.730728 268.039413 
L 967.264412 267.304835 
L 977.421894 266.875247 
L 1004.884715 267.099471 
L 1013.537384 267.279361 
L 1016.923211 267.436916 
L 1039.495393 268.540267 
L 1051.910092 268.9188 
L 1062.067574 269.271085 
L 1071.848852 269.56241 
L 1086.896973 269.906109 
L 1086.896973 269.906109 
" clip-path="url(#p4c582ad687)" style="fill: none; stroke: #4c72b0; stroke-opacity: 0.9; stroke-width: 3; stroke-linecap: round"/>
   </g>
   <g id="line2d_68">
    <path d="M 812.64497 273.093982 
L 813.021173 295.389577 
L 813.397376 296.342081 
L 813.773579 296.672078 
L 814.525985 296.826168 
L 817.159407 296.792631 
L 817.911813 296.774932 
L 818.288016 296.073751 
L 819.040422 295.58125 
L 824.307264 293.64267 
L 831.455121 291.252584 
L 838.979182 288.978291 
L 846.879445 286.831008 
L 854.403506 285.004445 
L 863.056175 283.13505 
L 872.085048 281.40798 
L 881.866326 279.768968 
L 892.023808 278.29081 
L 902.18129 277.031036 
L 914.219786 275.769918 
L 927.010689 274.653589 
L 941.306404 273.633418 
L 957.106931 272.734311 
L 974.788473 271.955353 
L 985.69836 271.644218 
L 1007.894339 271.612747 
L 1027.456896 271.763933 
L 1046.64325 271.947347 
L 1055.672122 272.026299 
L 1083.134943 272.141952 
L 1086.896973 272.150269 
L 1086.896973 272.150269 
" clip-path="url(#p4c582ad687)" style="fill: none; stroke: #dd8452; stroke-opacity: 0.9; stroke-width: 3; stroke-linecap: round"/>
   </g>
   <g id="line2d_69">
    <path d="M 812.64497 273.093982 
L 813.021173 315.928793 
L 813.397376 318.267825 
L 813.773579 318.862202 
L 814.149782 319.021023 
L 815.278391 319.037987 
L 817.911813 318.900762 
L 818.288016 318.382263 
L 819.416625 317.528985 
L 825.05967 313.776829 
L 829.197903 311.246222 
L 831.831324 309.797137 
L 834.840949 308.487862 
L 836.345761 308.138121 
L 839.355385 307.800389 
L 840.483994 308.046059 
L 843.869821 309.438513 
L 848.76046 311.353204 
L 852.146288 312.425164 
L 857.789333 313.9061 
L 862.679972 314.796023 
L 866.065799 315.170436 
L 869.451627 315.308582 
L 875.847078 315.237897 
L 879.609108 314.882813 
L 883.371138 314.304932 
L 887.133169 313.519722 
L 891.271402 312.431241 
L 895.785838 311.004682 
L 900.300274 309.339589 
L 905.190914 307.301723 
L 911.210162 304.546056 
L 918.734222 300.840599 
L 927.386892 296.291849 
L 945.068434 286.864457 
L 950.335276 284.684434 
L 954.47351 283.34017 
L 958.611743 282.187517 
L 964.254788 280.895346 
L 971.402646 279.762005 
L 985.69836 277.667945 
L 998.865466 275.948983 
L 1008.270542 275.086715 
L 1041.000205 272.295078 
L 1073.353664 269.385633 
L 1078.244304 269.440687 
L 1086.896973 269.745673 
L 1086.896973 269.745673 
" clip-path="url(#p4c582ad687)" style="fill: none; stroke: #55a868; stroke-opacity: 0.9; stroke-width: 3; stroke-linecap: round"/>
   </g>
   <g id="line2d_70">
    <path d="M 812.64497 273.093982 
L 813.021173 306.758587 
L 813.397376 308.63681 
L 813.773579 309.105692 
L 814.525985 309.254358 
L 817.911813 309.134252 
L 818.664219 308.520926 
L 823.178655 306.09074 
L 827.693091 303.829304 
L 831.831324 302.134482 
L 834.464746 301.53158 
L 836.345761 301.243086 
L 837.47437 301.186894 
L 838.979182 301.452986 
L 842.365009 302.704659 
L 847.631851 304.948276 
L 855.155912 307.839691 
L 858.541739 308.832718 
L 863.056175 309.858403 
L 866.442002 310.42483 
L 869.82783 310.763884 
L 873.213657 310.892007 
L 876.975687 310.796894 
L 880.737717 310.465361 
L 884.499747 309.915965 
L 888.637981 309.084727 
L 892.776214 308.037861 
L 897.29065 306.666116 
L 902.18129 304.931122 
L 907.448132 302.822558 
L 913.46738 300.156436 
L 920.615238 296.771946 
L 941.682607 286.59014 
L 945.444637 285.145696 
L 957.483134 281.170146 
L 963.878585 279.296586 
L 968.769224 278.218445 
L 978.550503 276.741153 
L 994.727233 274.510559 
L 1004.132308 273.502795 
L 1033.852347 270.803669 
L 1046.64325 269.684556 
L 1051.157686 269.535936 
L 1057.929341 269.587365 
L 1065.453401 269.894223 
L 1077.491898 270.332825 
L 1086.896973 270.553208 
L 1086.896973 270.553208 
" clip-path="url(#p4c582ad687)" style="fill: none; stroke: #c44e52; stroke-opacity: 0.9; stroke-width: 3; stroke-linecap: round"/>
   </g>
   <g id="line2d_71">
    <path d="M 812.64497 273.093982 
L 813.021173 312.339539 
L 813.397376 314.075647 
L 813.773579 314.369178 
L 814.525985 314.416464 
L 817.911813 314.266433 
L 819.416625 313.164667 
L 824.683467 309.647314 
L 830.326512 306.153343 
L 835.969558 302.918195 
L 841.988806 299.731789 
L 848.008054 296.795197 
L 854.027303 294.094105 
L 860.422754 291.463765 
L 867.194408 288.916863 
L 874.342266 286.470152 
L 881.11392 284.371795 
L 888.261778 282.376249 
L 896.538244 280.335332 
L 905.190914 278.437843 
L 914.219786 276.689698 
L 923.624862 275.092512 
L 933.782343 273.593367 
L 944.692231 272.22647 
L 956.354525 270.994549 
L 969.145427 269.871194 
L 981.560127 268.992025 
L 985.69836 268.852837 
L 1007.518136 268.765254 
L 1018.428023 268.849687 
L 1025.199678 269.159422 
L 1034.22855 269.604013 
L 1046.267047 269.958899 
L 1086.896973 270.818657 
L 1086.896973 270.818657 
" clip-path="url(#p4c582ad687)" style="fill: none; stroke: #8172b3; stroke-opacity: 0.9; stroke-width: 3; stroke-linecap: round"/>
   </g>
   <g id="line2d_72">
    <path d="M 812.64497 273.093982 
L 813.021173 304.585221 
L 813.397376 305.770999 
L 813.773579 305.994911 
L 814.902188 306.02056 
L 817.911813 305.91611 
L 818.664219 305.41592 
L 823.931061 302.622561 
L 829.950309 299.675262 
L 836.345761 296.800603 
L 842.741212 294.166876 
L 849.512866 291.617729 
L 856.660724 289.171659 
L 864.184784 286.843877 
L 871.708845 284.755922 
L 879.985311 282.705087 
L 888.261778 280.879678 
L 896.162041 279.350868 
L 905.94332 277.681638 
L 916.100801 276.176357 
L 927.010689 274.786682 
L 938.672983 273.526643 
L 951.463885 272.384736 
L 965.383397 271.366917 
L 980.431518 270.49158 
L 986.450766 270.306002 
L 1004.884715 270.239824 
L 1021.437647 270.263216 
L 1038.742986 270.742239 
L 1072.225055 271.197316 
L 1086.896973 271.348396 
L 1086.896973 271.348396 
" clip-path="url(#p4c582ad687)" style="fill: none; stroke: #937860; stroke-opacity: 0.9; stroke-width: 3; stroke-linecap: round"/>
   </g>
   <g id="patch_18">
    <path d="M 798.93237 373.284 
L 798.93237 253.698 
" style="fill: none; stroke: #ffffff; stroke-width: 1.25; stroke-linejoin: miter; stroke-linecap: square"/>
   </g>
   <g id="patch_19">
    <path d="M 798.93237 373.284 
L 1100.609573 373.284 
" style="fill: none; stroke: #ffffff; stroke-width: 1.25; stroke-linejoin: miter; stroke-linecap: square"/>
   </g>
   <g id="text_27">
    <!-- 0.95~365 -->
    <g style="fill: #262626" transform="translate(887.107628 247.698) scale(0.252 -0.252)">
     <use xlink:href="#DejaVuSans-30"/>
     <use xlink:href="#DejaVuSans-2e" x="63.623047"/>
     <use xlink:href="#DejaVuSans-39" x="95.410156"/>
     <use xlink:href="#DejaVuSans-35" x="159.033203"/>
     <use xlink:href="#DejaVuSans-7e" x="222.65625"/>
     <use xlink:href="#DejaVuSans-33" x="306.445312"/>
     <use xlink:href="#DejaVuSans-36" x="370.068359"/>
     <use xlink:href="#DejaVuSans-35" x="433.691406"/>
    </g>
   </g>
  </g>
  <g id="text_28">
   <!-- Production change from pre-shock level -->
   <g style="fill: #262626" transform="translate(280.766836 30.177675) scale(0.3024 -0.3024)">
    <defs>
     <path id="DejaVuSans-50" d="M 1259 4147 
L 1259 2394 
L 2053 2394 
Q 2494 2394 2734 2622 
Q 2975 2850 2975 3272 
Q 2975 3691 2734 3919 
Q 2494 4147 2053 4147 
L 1259 4147 
z
M 628 4666 
L 2053 4666 
Q 2838 4666 3239 4311 
Q 3641 3956 3641 3272 
Q 3641 2581 3239 2228 
Q 2838 1875 2053 1875 
L 1259 1875 
L 1259 0 
L 628 0 
L 628 4666 
z
" transform="scale(0.015625)"/>
     <path id="DejaVuSans-72" d="M 2631 2963 
Q 2534 3019 2420 3045 
Q 2306 3072 2169 3072 
Q 1681 3072 1420 2755 
Q 1159 2438 1159 1844 
L 1159 0 
L 581 0 
L 581 3500 
L 1159 3500 
L 1159 2956 
Q 1341 3275 1631 3429 
Q 1922 3584 2338 3584 
Q 2397 3584 2469 3576 
Q 2541 3569 2628 3553 
L 2631 2963 
z
" transform="scale(0.015625)"/>
     <path id="DejaVuSans-6f" d="M 1959 3097 
Q 1497 3097 1228 2736 
Q 959 2375 959 1747 
Q 959 1119 1226 758 
Q 1494 397 1959 397 
Q 2419 397 2687 759 
Q 2956 1122 2956 1747 
Q 2956 2369 2687 2733 
Q 2419 3097 1959 3097 
z
M 1959 3584 
Q 2709 3584 3137 3096 
Q 3566 2609 3566 1747 
Q 3566 888 3137 398 
Q 2709 -91 1959 -91 
Q 1206 -91 779 398 
Q 353 888 353 1747 
Q 353 2609 779 3096 
Q 1206 3584 1959 3584 
z
" transform="scale(0.015625)"/>
     <path id="DejaVuSans-64" d="M 2906 2969 
L 2906 4863 
L 3481 4863 
L 3481 0 
L 2906 0 
L 2906 525 
Q 2725 213 2448 61 
Q 2172 -91 1784 -91 
Q 1150 -91 751 415 
Q 353 922 353 1747 
Q 353 2572 751 3078 
Q 1150 3584 1784 3584 
Q 2172 3584 2448 3432 
Q 2725 3281 2906 2969 
z
M 947 1747 
Q 947 1113 1208 752 
Q 1469 391 1925 391 
Q 2381 391 2643 752 
Q 2906 1113 2906 1747 
Q 2906 2381 2643 2742 
Q 2381 3103 1925 3103 
Q 1469 3103 1208 2742 
Q 947 2381 947 1747 
z
" transform="scale(0.015625)"/>
     <path id="DejaVuSans-75" d="M 544 1381 
L 544 3500 
L 1119 3500 
L 1119 1403 
Q 1119 906 1312 657 
Q 1506 409 1894 409 
Q 2359 409 2629 706 
Q 2900 1003 2900 1516 
L 2900 3500 
L 3475 3500 
L 3475 0 
L 2900 0 
L 2900 538 
Q 2691 219 2414 64 
Q 2138 -91 1772 -91 
Q 1169 -91 856 284 
Q 544 659 544 1381 
z
M 1991 3584 
L 1991 3584 
z
" transform="scale(0.015625)"/>
     <path id="DejaVuSans-69" d="M 603 3500 
L 1178 3500 
L 1178 0 
L 603 0 
L 603 3500 
z
M 603 4863 
L 1178 4863 
L 1178 4134 
L 603 4134 
L 603 4863 
z
" transform="scale(0.015625)"/>
     <path id="DejaVuSans-66" d="M 2375 4863 
L 2375 4384 
L 1825 4384 
Q 1516 4384 1395 4259 
Q 1275 4134 1275 3809 
L 1275 3500 
L 2222 3500 
L 2222 3053 
L 1275 3053 
L 1275 0 
L 697 0 
L 697 3053 
L 147 3053 
L 147 3500 
L 697 3500 
L 697 3744 
Q 697 4328 969 4595 
Q 1241 4863 1831 4863 
L 2375 4863 
z
" transform="scale(0.015625)"/>
     <path id="DejaVuSans-6d" d="M 3328 2828 
Q 3544 3216 3844 3400 
Q 4144 3584 4550 3584 
Q 5097 3584 5394 3201 
Q 5691 2819 5691 2113 
L 5691 0 
L 5113 0 
L 5113 2094 
Q 5113 2597 4934 2840 
Q 4756 3084 4391 3084 
Q 3944 3084 3684 2787 
Q 3425 2491 3425 1978 
L 3425 0 
L 2847 0 
L 2847 2094 
Q 2847 2600 2669 2842 
Q 2491 3084 2119 3084 
Q 1678 3084 1418 2786 
Q 1159 2488 1159 1978 
L 1159 0 
L 581 0 
L 581 3500 
L 1159 3500 
L 1159 2956 
Q 1356 3278 1631 3431 
Q 1906 3584 2284 3584 
Q 2666 3584 2933 3390 
Q 3200 3197 3328 2828 
z
" transform="scale(0.015625)"/>
     <path id="DejaVuSans-2d" d="M 313 2009 
L 1997 2009 
L 1997 1497 
L 313 1497 
L 313 2009 
z
" transform="scale(0.015625)"/>
     <path id="DejaVuSans-6b" d="M 581 4863 
L 1159 4863 
L 1159 1991 
L 2875 3500 
L 3609 3500 
L 1753 1863 
L 3688 0 
L 2938 0 
L 1159 1709 
L 1159 0 
L 581 0 
L 581 4863 
z
" transform="scale(0.015625)"/>
     <path id="DejaVuSans-6c" d="M 603 4863 
L 1178 4863 
L 1178 0 
L 603 0 
L 603 4863 
z
" transform="scale(0.015625)"/>
     <path id="DejaVuSans-76" d="M 191 3500 
L 800 3500 
L 1894 563 
L 2988 3500 
L 3597 3500 
L 2284 0 
L 1503 0 
L 191 3500 
z
" transform="scale(0.015625)"/>
    </defs>
    <use xlink:href="#DejaVuSans-50"/>
    <use xlink:href="#DejaVuSans-72" x="58.552734"/>
    <use xlink:href="#DejaVuSans-6f" x="97.416016"/>
    <use xlink:href="#DejaVuSans-64" x="158.597656"/>
    <use xlink:href="#DejaVuSans-75" x="222.074219"/>
    <use xlink:href="#DejaVuSans-63" x="285.453125"/>
    <use xlink:href="#DejaVuSans-74" x="340.433594"/>
    <use xlink:href="#DejaVuSans-69" x="379.642578"/>
    <use xlink:href="#DejaVuSans-6f" x="407.425781"/>
    <use xlink:href="#DejaVuSans-6e" x="468.607422"/>
    <use xlink:href="#DejaVuSans-20" x="531.986328"/>
    <use xlink:href="#DejaVuSans-63" x="563.773438"/>
    <use xlink:href="#DejaVuSans-68" x="618.753906"/>
    <use xlink:href="#DejaVuSans-61" x="682.132812"/>
    <use xlink:href="#DejaVuSans-6e" x="743.412109"/>
    <use xlink:href="#DejaVuSans-67" x="806.791016"/>
    <use xlink:href="#DejaVuSans-65" x="870.267578"/>
    <use xlink:href="#DejaVuSans-20" x="931.791016"/>
    <use xlink:href="#DejaVuSans-66" x="963.578125"/>
    <use xlink:href="#DejaVuSans-72" x="998.783203"/>
    <use xlink:href="#DejaVuSans-6f" x="1037.646484"/>
    <use xlink:href="#DejaVuSans-6d" x="1098.828125"/>
    <use xlink:href="#DejaVuSans-20" x="1196.240234"/>
    <use xlink:href="#DejaVuSans-70" x="1228.027344"/>
    <use xlink:href="#DejaVuSans-72" x="1291.503906"/>
    <use xlink:href="#DejaVuSans-65" x="1330.367188"/>
    <use xlink:href="#DejaVuSans-2d" x="1391.890625"/>
    <use xlink:href="#DejaVuSans-73" x="1427.974609"/>
    <use xlink:href="#DejaVuSans-68" x="1480.074219"/>
    <use xlink:href="#DejaVuSans-6f" x="1543.453125"/>
    <use xlink:href="#DejaVuSans-63" x="1604.634766"/>
    <use xlink:href="#DejaVuSans-6b" x="1659.615234"/>
    <use xlink:href="#DejaVuSans-20" x="1717.525391"/>
    <use xlink:href="#DejaVuSans-6c" x="1749.3125"/>
    <use xlink:href="#DejaVuSans-65" x="1777.095703"/>
    <use xlink:href="#DejaVuSans-76" x="1838.619141"/>
    <use xlink:href="#DejaVuSans-65" x="1897.798828"/>
    <use xlink:href="#DejaVuSans-6c" x="1959.322266"/>
   </g>
  </g>
  <g id="legend_1">
   <g id="patch_20">
    <path d="M 11.82 584.31675 
L 1292.617547 584.31675 
Q 1297.237547 584.31675 1297.237547 579.69675 
L 1297.237547 476.97 
Q 1297.237547 472.35 1292.617547 472.35 
L 11.82 472.35 
Q 7.2 472.35 7.2 476.97 
L 7.2 579.69675 
Q 7.2 584.31675 11.82 584.31675 
z
" style="fill: #eaeaf2; opacity: 0.8; stroke: #cccccc; stroke-linejoin: miter"/>
   </g>
   <g id="text_29">
    <!-- Experiences -->
    <g style="fill: #262626" transform="translate(575.384367 500.738062) scale(0.252 -0.252)">
     <defs>
      <path id="DejaVuSans-45" d="M 628 4666 
L 3578 4666 
L 3578 4134 
L 1259 4134 
L 1259 2753 
L 3481 2753 
L 3481 2222 
L 1259 2222 
L 1259 531 
L 3634 531 
L 3634 0 
L 628 0 
L 628 4666 
z
" transform="scale(0.015625)"/>
      <path id="DejaVuSans-78" d="M 3513 3500 
L 2247 1797 
L 3578 0 
L 2900 0 
L 1881 1375 
L 863 0 
L 184 0 
L 1544 1831 
L 300 3500 
L 978 3500 
L 1906 2253 
L 2834 3500 
L 3513 3500 
z
" transform="scale(0.015625)"/>
     </defs>
     <use xlink:href="#DejaVuSans-45"/>
     <use xlink:href="#DejaVuSans-78" x="63.183594"/>
     <use xlink:href="#DejaVuSans-70" x="122.363281"/>
     <use xlink:href="#DejaVuSans-65" x="185.839844"/>
     <use xlink:href="#DejaVuSans-72" x="247.363281"/>
     <use xlink:href="#DejaVuSans-69" x="288.476562"/>
     <use xlink:href="#DejaVuSans-65" x="316.259766"/>
     <use xlink:href="#DejaVuSans-6e" x="377.783203"/>
     <use xlink:href="#DejaVuSans-63" x="441.162109"/>
     <use xlink:href="#DejaVuSans-65" x="496.142578"/>
     <use xlink:href="#DejaVuSans-73" x="557.666016"/>
    </g>
   </g>
   <g id="line2d_73">
    <path d="M 16.44 526.996266 
L 39.54 526.996266 
L 62.64 526.996266 
" style="fill: none; stroke: #4c72b0; stroke-opacity: 0.9; stroke-width: 3; stroke-linecap: round"/>
   </g>
   <g id="text_30">
    <!-- eora26_full_2000 -->
    <g style="fill: #262626" transform="translate(81.12 535.081266) scale(0.231 -0.231)">
     <defs>
      <path id="DejaVuSans-5f" d="M 3263 -1063 
L 3263 -1509 
L -63 -1509 
L -63 -1063 
L 3263 -1063 
z
" transform="scale(0.015625)"/>
     </defs>
     <use xlink:href="#DejaVuSans-65"/>
     <use xlink:href="#DejaVuSans-6f" x="61.523438"/>
     <use xlink:href="#DejaVuSans-72" x="122.705078"/>
     <use xlink:href="#DejaVuSans-61" x="163.818359"/>
     <use xlink:href="#DejaVuSans-32" x="225.097656"/>
     <use xlink:href="#DejaVuSans-36" x="288.720703"/>
     <use xlink:href="#DejaVuSans-5f" x="352.34375"/>
     <use xlink:href="#DejaVuSans-66" x="402.34375"/>
     <use xlink:href="#DejaVuSans-75" x="437.548828"/>
     <use xlink:href="#DejaVuSans-6c" x="500.927734"/>
     <use xlink:href="#DejaVuSans-6c" x="528.710938"/>
     <use xlink:href="#DejaVuSans-5f" x="556.494141"/>
     <use xlink:href="#DejaVuSans-32" x="606.494141"/>
     <use xlink:href="#DejaVuSans-30" x="670.117188"/>
     <use xlink:href="#DejaVuSans-30" x="733.740234"/>
     <use xlink:href="#DejaVuSans-30" x="797.363281"/>
    </g>
   </g>
   <g id="line2d_74">
    <path d="M 16.44 561.545203 
L 39.54 561.545203 
L 62.64 561.545203 
" style="fill: none; stroke: #dd8452; stroke-opacity: 0.9; stroke-width: 3; stroke-linecap: round"/>
   </g>
   <g id="text_31">
    <!-- eora26_full_2010 -->
    <g style="fill: #262626" transform="translate(81.12 569.630203) scale(0.231 -0.231)">
     <use xlink:href="#DejaVuSans-65"/>
     <use xlink:href="#DejaVuSans-6f" x="61.523438"/>
     <use xlink:href="#DejaVuSans-72" x="122.705078"/>
     <use xlink:href="#DejaVuSans-61" x="163.818359"/>
     <use xlink:href="#DejaVuSans-32" x="225.097656"/>
     <use xlink:href="#DejaVuSans-36" x="288.720703"/>
     <use xlink:href="#DejaVuSans-5f" x="352.34375"/>
     <use xlink:href="#DejaVuSans-66" x="402.34375"/>
     <use xlink:href="#DejaVuSans-75" x="437.548828"/>
     <use xlink:href="#DejaVuSans-6c" x="500.927734"/>
     <use xlink:href="#DejaVuSans-6c" x="528.710938"/>
     <use xlink:href="#DejaVuSans-5f" x="556.494141"/>
     <use xlink:href="#DejaVuSans-32" x="606.494141"/>
     <use xlink:href="#DejaVuSans-30" x="670.117188"/>
     <use xlink:href="#DejaVuSans-31" x="733.740234"/>
     <use xlink:href="#DejaVuSans-30" x="797.363281"/>
    </g>
   </g>
   <g id="line2d_75">
    <path d="M 326.211 526.996266 
L 349.311 526.996266 
L 372.411 526.996266 
" style="fill: none; stroke: #55a868; stroke-opacity: 0.9; stroke-width: 3; stroke-linecap: round"/>
   </g>
   <g id="text_32">
    <!-- euregio_full_2000 -->
    <g style="fill: #262626" transform="translate(390.891 535.081266) scale(0.231 -0.231)">
     <use xlink:href="#DejaVuSans-65"/>
     <use xlink:href="#DejaVuSans-75" x="61.523438"/>
     <use xlink:href="#DejaVuSans-72" x="124.902344"/>
     <use xlink:href="#DejaVuSans-65" x="163.765625"/>
     <use xlink:href="#DejaVuSans-67" x="225.289062"/>
     <use xlink:href="#DejaVuSans-69" x="288.765625"/>
     <use xlink:href="#DejaVuSans-6f" x="316.548828"/>
     <use xlink:href="#DejaVuSans-5f" x="377.730469"/>
     <use xlink:href="#DejaVuSans-66" x="427.730469"/>
     <use xlink:href="#DejaVuSans-75" x="462.935547"/>
     <use xlink:href="#DejaVuSans-6c" x="526.314453"/>
     <use xlink:href="#DejaVuSans-6c" x="554.097656"/>
     <use xlink:href="#DejaVuSans-5f" x="581.880859"/>
     <use xlink:href="#DejaVuSans-32" x="631.880859"/>
     <use xlink:href="#DejaVuSans-30" x="695.503906"/>
     <use xlink:href="#DejaVuSans-30" x="759.126953"/>
     <use xlink:href="#DejaVuSans-30" x="822.75"/>
    </g>
   </g>
   <g id="line2d_76">
    <path d="M 326.211 561.545203 
L 349.311 561.545203 
L 372.411 561.545203 
" style="fill: none; stroke: #c44e52; stroke-opacity: 0.9; stroke-width: 3; stroke-linecap: round"/>
   </g>
   <g id="text_33">
    <!-- euregio_full_2010 -->
    <g style="fill: #262626" transform="translate(390.891 569.630203) scale(0.231 -0.231)">
     <use xlink:href="#DejaVuSans-65"/>
     <use xlink:href="#DejaVuSans-75" x="61.523438"/>
     <use xlink:href="#DejaVuSans-72" x="124.902344"/>
     <use xlink:href="#DejaVuSans-65" x="163.765625"/>
     <use xlink:href="#DejaVuSans-67" x="225.289062"/>
     <use xlink:href="#DejaVuSans-69" x="288.765625"/>
     <use xlink:href="#DejaVuSans-6f" x="316.548828"/>
     <use xlink:href="#DejaVuSans-5f" x="377.730469"/>
     <use xlink:href="#DejaVuSans-66" x="427.730469"/>
     <use xlink:href="#DejaVuSans-75" x="462.935547"/>
     <use xlink:href="#DejaVuSans-6c" x="526.314453"/>
     <use xlink:href="#DejaVuSans-6c" x="554.097656"/>
     <use xlink:href="#DejaVuSans-5f" x="581.880859"/>
     <use xlink:href="#DejaVuSans-32" x="631.880859"/>
     <use xlink:href="#DejaVuSans-30" x="695.503906"/>
     <use xlink:href="#DejaVuSans-31" x="759.126953"/>
     <use xlink:href="#DejaVuSans-30" x="822.75"/>
    </g>
   </g>
   <g id="line2d_77">
    <path d="M 641.847234 526.996266 
L 664.947234 526.996266 
L 688.047234 526.996266 
" style="fill: none; stroke: #8172b3; stroke-opacity: 0.9; stroke-width: 3; stroke-linecap: round"/>
   </g>
   <g id="text_34">
    <!-- exiobase3_full_2000 -->
    <g style="fill: #262626" transform="translate(706.527234 535.081266) scale(0.231 -0.231)">
     <defs>
      <path id="DejaVuSans-62" d="M 3116 1747 
Q 3116 2381 2855 2742 
Q 2594 3103 2138 3103 
Q 1681 3103 1420 2742 
Q 1159 2381 1159 1747 
Q 1159 1113 1420 752 
Q 1681 391 2138 391 
Q 2594 391 2855 752 
Q 3116 1113 3116 1747 
z
M 1159 2969 
Q 1341 3281 1617 3432 
Q 1894 3584 2278 3584 
Q 2916 3584 3314 3078 
Q 3713 2572 3713 1747 
Q 3713 922 3314 415 
Q 2916 -91 2278 -91 
Q 1894 -91 1617 61 
Q 1341 213 1159 525 
L 1159 0 
L 581 0 
L 581 4863 
L 1159 4863 
L 1159 2969 
z
" transform="scale(0.015625)"/>
     </defs>
     <use xlink:href="#DejaVuSans-65"/>
     <use xlink:href="#DejaVuSans-78" x="59.773438"/>
     <use xlink:href="#DejaVuSans-69" x="118.953125"/>
     <use xlink:href="#DejaVuSans-6f" x="146.736328"/>
     <use xlink:href="#DejaVuSans-62" x="207.917969"/>
     <use xlink:href="#DejaVuSans-61" x="271.394531"/>
     <use xlink:href="#DejaVuSans-73" x="332.673828"/>
     <use xlink:href="#DejaVuSans-65" x="384.773438"/>
     <use xlink:href="#DejaVuSans-33" x="446.296875"/>
     <use xlink:href="#DejaVuSans-5f" x="509.919922"/>
     <use xlink:href="#DejaVuSans-66" x="559.919922"/>
     <use xlink:href="#DejaVuSans-75" x="595.125"/>
     <use xlink:href="#DejaVuSans-6c" x="658.503906"/>
     <use xlink:href="#DejaVuSans-6c" x="686.287109"/>
     <use xlink:href="#DejaVuSans-5f" x="714.070312"/>
     <use xlink:href="#DejaVuSans-32" x="764.070312"/>
     <use xlink:href="#DejaVuSans-30" x="827.693359"/>
     <use xlink:href="#DejaVuSans-30" x="891.316406"/>
     <use xlink:href="#DejaVuSans-30" x="954.939453"/>
    </g>
   </g>
   <g id="line2d_78">
    <path d="M 988.022391 526.996266 
L 1011.122391 526.996266 
L 1034.222391 526.996266 
" style="fill: none; stroke: #937860; stroke-opacity: 0.9; stroke-width: 3; stroke-linecap: round"/>
   </g>
   <g id="text_35">
    <!-- exiobase3_full_2010 -->
    <g style="fill: #262626" transform="translate(1052.702391 535.081266) scale(0.231 -0.231)">
     <use xlink:href="#DejaVuSans-65"/>
     <use xlink:href="#DejaVuSans-78" x="59.773438"/>
     <use xlink:href="#DejaVuSans-69" x="118.953125"/>
     <use xlink:href="#DejaVuSans-6f" x="146.736328"/>
     <use xlink:href="#DejaVuSans-62" x="207.917969"/>
     <use xlink:href="#DejaVuSans-61" x="271.394531"/>
     <use xlink:href="#DejaVuSans-73" x="332.673828"/>
     <use xlink:href="#DejaVuSans-65" x="384.773438"/>
     <use xlink:href="#DejaVuSans-33" x="446.296875"/>
     <use xlink:href="#DejaVuSans-5f" x="509.919922"/>
     <use xlink:href="#DejaVuSans-66" x="559.919922"/>
     <use xlink:href="#DejaVuSans-75" x="595.125"/>
     <use xlink:href="#DejaVuSans-6c" x="658.503906"/>
     <use xlink:href="#DejaVuSans-6c" x="686.287109"/>
     <use xlink:href="#DejaVuSans-5f" x="714.070312"/>
     <use xlink:href="#DejaVuSans-32" x="764.070312"/>
     <use xlink:href="#DejaVuSans-30" x="827.693359"/>
     <use xlink:href="#DejaVuSans-31" x="891.316406"/>
     <use xlink:href="#DejaVuSans-30" x="954.939453"/>
    </g>
   </g>
  </g>
 </g>
 <defs>
  <clipPath id="p92b382eba5">
   <rect x="142.032503" y="81.456" width="301.677203" height="119.586"/>
  </clipPath>
  <clipPath id="p39a37635bd">
   <rect x="470.482436" y="81.456" width="301.677203" height="119.586"/>
  </clipPath>
  <clipPath id="p112984757e">
   <rect x="798.93237" y="81.456" width="301.677203" height="119.586"/>
  </clipPath>
  <clipPath id="pdba41c75a4">
   <rect x="142.032503" y="253.698" width="301.677203" height="119.586"/>
  </clipPath>
  <clipPath id="p26d1adf2d5">
   <rect x="470.482436" y="253.698" width="301.677203" height="119.586"/>
  </clipPath>
  <clipPath id="p4c582ad687">
   <rect x="798.93237" y="253.698" width="301.677203" height="119.586"/>
  </clipPath>
 </defs>
</svg>
