<?xml version="1.0" encoding="utf-8" standalone="no"?>
<!DOCTYPE svg PUBLIC "-//W3C//DTD SVG 1.1//EN"
  "http://www.w3.org/Graphics/SVG/1.1/DTD/svg11.dtd">
<svg xmlns:xlink="http://www.w3.org/1999/xlink" width="1304.437547pt" height="591.51675pt" viewBox="0 0 1304.437547 591.51675" xmlns="http://www.w3.org/2000/svg" version="1.1">
 <metadata>
  <rdf:RDF xmlns:dc="http://purl.org/dc/elements/1.1/" xmlns:cc="http://creativecommons.org/ns#" xmlns:rdf="http://www.w3.org/1999/02/22-rdf-syntax-ns#">
   <cc:Work>
    <dc:type rdf:resource="http://purl.org/dc/dcmitype/StillImage"/>
    <dc:date>2023-04-07T18:31:53.242994</dc:date>
    <dc:format>image/svg+xml</dc:format>
    <dc:creator>
     <cc:Agent>
      <dc:title>Matplotlib v3.7.1, https://matplotlib.org/</dc:title>
     </cc:Agent>
    </dc:creator>
   </cc:Work>
  </rdf:RDF>
 </metadata>
 <defs>
  <style type="text/css">*{stroke-linejoin: round; stroke-linecap: butt}</style>
 </defs>
 <g id="figure_1">
  <g id="patch_1">
   <path d="M 0 591.51675 
L 1304.437547 591.51675 
L 1304.437547 -0 
L 0 -0 
z
" style="fill: #ffffff"/>
  </g>
  <g id="axes_1">
   <g id="patch_2">
    <path d="M 142.032503 195.521917 
L 443.709706 195.521917 
L 443.709706 81.456 
L 142.032503 81.456 
z
" style="fill: #eaeaf2"/>
   </g>
   <g id="matplotlib.axis_1">
    <g id="xtick_1">
     <g id="line2d_1">
      <path d="M 155.745103 195.521917 
L 155.745103 81.456 
" clip-path="url(#pfdbe208d45)" style="fill: none; stroke: #ffffff; stroke-linecap: round"/>
     </g>
    </g>
    <g id="xtick_2">
     <g id="line2d_2">
      <path d="M 249.795858 195.521917 
L 249.795858 81.456 
" clip-path="url(#pfdbe208d45)" style="fill: none; stroke: #ffffff; stroke-linecap: round"/>
     </g>
    </g>
    <g id="xtick_3">
     <g id="line2d_3">
      <path d="M 343.846614 195.521917 
L 343.846614 81.456 
" clip-path="url(#pfdbe208d45)" style="fill: none; stroke: #ffffff; stroke-linecap: round"/>
     </g>
    </g>
    <g id="xtick_4">
     <g id="line2d_4">
      <path d="M 437.897369 195.521917 
L 437.897369 81.456 
" clip-path="url(#pfdbe208d45)" style="fill: none; stroke: #ffffff; stroke-linecap: round"/>
     </g>
    </g>
   </g>
   <g id="matplotlib.axis_2">
    <g id="ytick_1">
     <g id="line2d_5">
      <path d="M 142.032503 192.968277 
L 443.709706 192.968277 
" clip-path="url(#pfdbe208d45)" style="fill: none; stroke: #ffffff; stroke-linecap: round"/>
     </g>
     <g id="text_1">
      <!-- −1 -->
      <g style="fill: #262626" transform="translate(98.47805 201.744472) scale(0.231 -0.231)">
       <defs>
        <path id="DejaVuSans-2212" d="M 678 2272 
L 4684 2272 
L 4684 1741 
L 678 1741 
L 678 2272 
z
" transform="scale(0.015625)"/>
        <path id="DejaVuSans-31" d="M 794 531 
L 1825 531 
L 1825 4091 
L 703 3866 
L 703 4441 
L 1819 4666 
L 2450 4666 
L 2450 531 
L 3481 531 
L 3481 0 
L 794 0 
L 794 531 
z
" transform="scale(0.015625)"/>
       </defs>
       <use xlink:href="#DejaVuSans-2212"/>
       <use xlink:href="#DejaVuSans-31" x="83.789062"/>
      </g>
     </g>
    </g>
    <g id="ytick_2">
     <g id="line2d_6">
      <path d="M 142.032503 127.214175 
L 443.709706 127.214175 
" clip-path="url(#pfdbe208d45)" style="fill: none; stroke: #ffffff; stroke-linecap: round"/>
     </g>
     <g id="text_2">
      <!-- 0 -->
      <g style="fill: #262626" transform="translate(117.835128 135.99037) scale(0.231 -0.231)">
       <defs>
        <path id="DejaVuSans-30" d="M 2034 4250 
Q 1547 4250 1301 3770 
Q 1056 3291 1056 2328 
Q 1056 1369 1301 889 
Q 1547 409 2034 409 
Q 2525 409 2770 889 
Q 3016 1369 3016 2328 
Q 3016 3291 2770 3770 
Q 2525 4250 2034 4250 
z
M 2034 4750 
Q 2819 4750 3233 4129 
Q 3647 3509 3647 2328 
Q 3647 1150 3233 529 
Q 2819 -91 2034 -91 
Q 1250 -91 836 529 
Q 422 1150 422 2328 
Q 422 3509 836 4129 
Q 1250 4750 2034 4750 
z
" transform="scale(0.015625)"/>
       </defs>
       <use xlink:href="#DejaVuSans-30"/>
      </g>
     </g>
    </g>
    <g id="text_3">
     <!-- % change -->
     <g style="fill: #262626" transform="translate(89.237237 200.837302) rotate(-90) scale(0.252 -0.252)">
      <defs>
       <path id="DejaVuSans-25" d="M 4653 2053 
Q 4381 2053 4226 1822 
Q 4072 1591 4072 1178 
Q 4072 772 4226 539 
Q 4381 306 4653 306 
Q 4919 306 5073 539 
Q 5228 772 5228 1178 
Q 5228 1588 5073 1820 
Q 4919 2053 4653 2053 
z
M 4653 2450 
Q 5147 2450 5437 2106 
Q 5728 1763 5728 1178 
Q 5728 594 5436 251 
Q 5144 -91 4653 -91 
Q 4153 -91 3862 251 
Q 3572 594 3572 1178 
Q 3572 1766 3864 2108 
Q 4156 2450 4653 2450 
z
M 1428 4353 
Q 1159 4353 1004 4120 
Q 850 3888 850 3481 
Q 850 3069 1003 2837 
Q 1156 2606 1428 2606 
Q 1700 2606 1854 2837 
Q 2009 3069 2009 3481 
Q 2009 3884 1853 4118 
Q 1697 4353 1428 4353 
z
M 4250 4750 
L 4750 4750 
L 1831 -91 
L 1331 -91 
L 4250 4750 
z
M 1428 4750 
Q 1922 4750 2215 4408 
Q 2509 4066 2509 3481 
Q 2509 2891 2217 2550 
Q 1925 2209 1428 2209 
Q 931 2209 642 2551 
Q 353 2894 353 3481 
Q 353 4063 643 4406 
Q 934 4750 1428 4750 
z
" transform="scale(0.015625)"/>
       <path id="DejaVuSans-20" transform="scale(0.015625)"/>
       <path id="DejaVuSans-63" d="M 3122 3366 
L 3122 2828 
Q 2878 2963 2633 3030 
Q 2388 3097 2138 3097 
Q 1578 3097 1268 2742 
Q 959 2388 959 1747 
Q 959 1106 1268 751 
Q 1578 397 2138 397 
Q 2388 397 2633 464 
Q 2878 531 3122 666 
L 3122 134 
Q 2881 22 2623 -34 
Q 2366 -91 2075 -91 
Q 1284 -91 818 406 
Q 353 903 353 1747 
Q 353 2603 823 3093 
Q 1294 3584 2113 3584 
Q 2378 3584 2631 3529 
Q 2884 3475 3122 3366 
z
" transform="scale(0.015625)"/>
       <path id="DejaVuSans-68" d="M 3513 2113 
L 3513 0 
L 2938 0 
L 2938 2094 
Q 2938 2591 2744 2837 
Q 2550 3084 2163 3084 
Q 1697 3084 1428 2787 
Q 1159 2491 1159 1978 
L 1159 0 
L 581 0 
L 581 4863 
L 1159 4863 
L 1159 2956 
Q 1366 3272 1645 3428 
Q 1925 3584 2291 3584 
Q 2894 3584 3203 3211 
Q 3513 2838 3513 2113 
z
" transform="scale(0.015625)"/>
       <path id="DejaVuSans-61" d="M 2194 1759 
Q 1497 1759 1228 1600 
Q 959 1441 959 1056 
Q 959 750 1161 570 
Q 1363 391 1709 391 
Q 2188 391 2477 730 
Q 2766 1069 2766 1631 
L 2766 1759 
L 2194 1759 
z
M 3341 1997 
L 3341 0 
L 2766 0 
L 2766 531 
Q 2569 213 2275 61 
Q 1981 -91 1556 -91 
Q 1019 -91 701 211 
Q 384 513 384 1019 
Q 384 1609 779 1909 
Q 1175 2209 1959 2209 
L 2766 2209 
L 2766 2266 
Q 2766 2663 2505 2880 
Q 2244 3097 1772 3097 
Q 1472 3097 1187 3025 
Q 903 2953 641 2809 
L 641 3341 
Q 956 3463 1253 3523 
Q 1550 3584 1831 3584 
Q 2591 3584 2966 3190 
Q 3341 2797 3341 1997 
z
" transform="scale(0.015625)"/>
       <path id="DejaVuSans-6e" d="M 3513 2113 
L 3513 0 
L 2938 0 
L 2938 2094 
Q 2938 2591 2744 2837 
Q 2550 3084 2163 3084 
Q 1697 3084 1428 2787 
Q 1159 2491 1159 1978 
L 1159 0 
L 581 0 
L 581 3500 
L 1159 3500 
L 1159 2956 
Q 1366 3272 1645 3428 
Q 1925 3584 2291 3584 
Q 2894 3584 3203 3211 
Q 3513 2838 3513 2113 
z
" transform="scale(0.015625)"/>
       <path id="DejaVuSans-67" d="M 2906 1791 
Q 2906 2416 2648 2759 
Q 2391 3103 1925 3103 
Q 1463 3103 1205 2759 
Q 947 2416 947 1791 
Q 947 1169 1205 825 
Q 1463 481 1925 481 
Q 2391 481 2648 825 
Q 2906 1169 2906 1791 
z
M 3481 434 
Q 3481 -459 3084 -895 
Q 2688 -1331 1869 -1331 
Q 1566 -1331 1297 -1286 
Q 1028 -1241 775 -1147 
L 775 -588 
Q 1028 -725 1275 -790 
Q 1522 -856 1778 -856 
Q 2344 -856 2625 -561 
Q 2906 -266 2906 331 
L 2906 616 
Q 2728 306 2450 153 
Q 2172 0 1784 0 
Q 1141 0 747 490 
Q 353 981 353 1791 
Q 353 2603 747 3093 
Q 1141 3584 1784 3584 
Q 2172 3584 2450 3431 
Q 2728 3278 2906 2969 
L 2906 3500 
L 3481 3500 
L 3481 434 
z
" transform="scale(0.015625)"/>
       <path id="DejaVuSans-65" d="M 3597 1894 
L 3597 1613 
L 953 1613 
Q 991 1019 1311 708 
Q 1631 397 2203 397 
Q 2534 397 2845 478 
Q 3156 559 3463 722 
L 3463 178 
Q 3153 47 2828 -22 
Q 2503 -91 2169 -91 
Q 1331 -91 842 396 
Q 353 884 353 1716 
Q 353 2575 817 3079 
Q 1281 3584 2069 3584 
Q 2775 3584 3186 3129 
Q 3597 2675 3597 1894 
z
M 3022 2063 
Q 3016 2534 2758 2815 
Q 2500 3097 2075 3097 
Q 1594 3097 1305 2825 
Q 1016 2553 972 2059 
L 3022 2063 
z
" transform="scale(0.015625)"/>
      </defs>
      <use xlink:href="#DejaVuSans-25"/>
      <use xlink:href="#DejaVuSans-20" x="95.019531"/>
      <use xlink:href="#DejaVuSans-63" x="126.806641"/>
      <use xlink:href="#DejaVuSans-68" x="181.787109"/>
      <use xlink:href="#DejaVuSans-61" x="245.166016"/>
      <use xlink:href="#DejaVuSans-6e" x="306.445312"/>
      <use xlink:href="#DejaVuSans-67" x="369.824219"/>
      <use xlink:href="#DejaVuSans-65" x="433.300781"/>
     </g>
    </g>
   </g>
   <g id="PolyCollection_1"/>
   <g id="PolyCollection_2"/>
   <g id="PolyCollection_3"/>
   <g id="PolyCollection_4"/>
   <g id="PolyCollection_5"/>
   <g id="PolyCollection_6"/>
   <g id="line2d_7">
    <path d="M 155.745103 127.214175 
L 156.121306 180.151789 
L 156.497509 181.82019 
L 156.873712 182.077561 
L 157.626118 181.711635 
L 161.388148 179.027554 
L 162.140554 176.915976 
L 167.031194 162.116542 
L 171.169427 150.396511 
L 175.683863 138.606652 
L 178.693487 131.144809 
L 180.198299 128.405714 
L 182.831721 124.044027 
L 183.96033 122.33923 
L 184.712736 122.176703 
L 186.593751 122.215621 
L 200.13706 123.426677 
L 209.542135 123.978074 
L 220.828226 124.493689 
L 227.223677 124.814062 
L 233.242926 125.154158 
L 240.766986 125.314931 
L 259.95334 125.475545 
L 301.335672 125.558459 
L 429.997106 125.570681 
L 429.997106 125.570681 
" clip-path="url(#pfdbe208d45)" style="fill: none; stroke: #4c72b0; stroke-opacity: 0.9; stroke-width: 3; stroke-linecap: round"/>
   </g>
   <g id="line2d_8">
    <path d="M 155.745103 127.214175 
L 156.121306 156.086648 
L 156.497509 157.221216 
L 156.873712 157.533089 
L 157.626118 157.489786 
L 160.259539 156.609203 
L 161.388148 156.226967 
L 162.140554 155.158306 
L 170.417021 141.853585 
L 174.555254 135.696939 
L 178.693487 130.024533 
L 179.822096 128.776469 
L 183.96033 124.763988 
L 185.465142 124.693087 
L 190.355781 124.688618 
L 214.808977 125.408956 
L 218.947211 125.530081 
L 260.329543 126.034428 
L 285.158943 126.071227 
L 429.997106 126.085585 
L 429.997106 126.085585 
" clip-path="url(#pfdbe208d45)" style="fill: none; stroke: #dd8452; stroke-opacity: 0.9; stroke-width: 3; stroke-linecap: round"/>
   </g>
   <g id="line2d_9">
    <path d="M 155.745103 127.214175 
L 156.121306 182.68897 
L 156.497509 185.505259 
L 156.873712 186.032278 
L 157.249915 185.988102 
L 158.378524 185.263491 
L 161.388148 183.154929 
L 162.140554 180.903964 
L 168.159803 161.483471 
L 172.674239 147.794299 
L 176.436269 137.027617 
L 178.693487 131.039184 
L 180.198299 127.804264 
L 182.079315 124.3781 
L 183.207924 122.81462 
L 183.96033 121.922939 
L 184.712736 121.796673 
L 188.850969 122.15057 
L 209.542135 124.100495 
L 215.18518 124.608204 
L 222.709241 125.06606 
L 231.738113 125.39477 
L 244.529016 125.62465 
L 266.348791 125.766455 
L 317.136199 125.823789 
L 429.997106 125.824546 
L 429.997106 125.824546 
" clip-path="url(#pfdbe208d45)" style="fill: none; stroke: #55a868; stroke-opacity: 0.9; stroke-width: 3; stroke-linecap: round"/>
   </g>
   <g id="line2d_10">
    <path d="M 155.745103 127.214175 
L 156.121306 170.812766 
L 156.497509 173.070345 
L 156.873712 173.47977 
L 157.249915 173.436001 
L 158.378524 172.847305 
L 161.388148 171.142371 
L 162.140554 169.375823 
L 168.159803 154.068846 
L 172.298036 144.17042 
L 176.436269 134.874628 
L 178.693487 130.19835 
L 180.198299 127.697052 
L 182.079315 125.042902 
L 183.207924 123.886365 
L 183.96033 123.212216 
L 184.712736 123.114655 
L 191.860593 123.55185 
L 209.542135 124.66979 
L 215.18518 125.072187 
L 224.590256 125.493701 
L 236.25255 125.76593 
L 255.438904 125.93761 
L 292.683003 126.013574 
L 429.997106 126.01899 
L 429.997106 126.01899 
" clip-path="url(#pfdbe208d45)" style="fill: none; stroke: #c44e52; stroke-opacity: 0.9; stroke-width: 3; stroke-linecap: round"/>
   </g>
   <g id="line2d_11">
    <path d="M 155.745103 127.214175 
L 156.121306 178.037734 
L 156.497509 180.058445 
L 156.873712 180.195954 
L 157.626118 179.770091 
L 161.388148 177.201301 
L 162.89296 172.794687 
L 167.031194 160.758525 
L 171.54563 148.33681 
L 175.683863 137.577003 
L 178.693487 130.325573 
L 180.574502 126.721777 
L 181.703112 124.898994 
L 183.96033 121.819728 
L 184.712736 121.694305 
L 189.227172 121.668003 
L 197.879841 121.864311 
L 207.66112 122.855305 
L 213.680368 123.437786 
L 224.590256 124.393143 
L 228.728489 124.849424 
L 234.747738 125.153924 
L 244.152813 125.406188 
L 261.081949 125.583494 
L 294.940221 125.682513 
L 415.701391 125.704342 
L 429.997106 125.704337 
L 429.997106 125.704337 
" clip-path="url(#pfdbe208d45)" style="fill: none; stroke: #8172b3; stroke-opacity: 0.9; stroke-width: 3; stroke-linecap: round"/>
   </g>
   <g id="line2d_12">
    <path d="M 155.745103 127.214175 
L 156.121306 167.995657 
L 156.497509 169.356642 
L 156.873712 169.460963 
L 158.002321 168.936877 
L 161.388148 167.172348 
L 162.89296 163.688392 
L 167.407397 153.330013 
L 171.921833 143.553229 
L 176.060066 135.074021 
L 179.06969 129.356049 
L 180.574502 127.147492 
L 182.455518 124.83377 
L 183.96033 123.174322 
L 184.712736 123.065508 
L 189.603375 123.061876 
L 198.256044 123.228692 
L 218.571008 124.446916 
L 226.847474 124.91793 
L 231.36191 125.307209 
L 238.885971 125.537477 
L 252.42928 125.707016 
L 278.011085 125.817037 
L 355.885111 125.853048 
L 429.997106 125.853027 
L 429.997106 125.853027 
" clip-path="url(#pfdbe208d45)" style="fill: none; stroke: #937860; stroke-opacity: 0.9; stroke-width: 3; stroke-linecap: round"/>
   </g>
   <g id="patch_3">
    <path d="M 142.032503 195.521917 
L 142.032503 81.456 
" style="fill: none; stroke: #ffffff; stroke-width: 1.25; stroke-linejoin: miter; stroke-linecap: square"/>
   </g>
   <g id="patch_4">
    <path d="M 142.032503 195.521917 
L 443.709706 195.521917 
" style="fill: none; stroke: #ffffff; stroke-width: 1.25; stroke-linejoin: miter; stroke-linecap: square"/>
   </g>
   <g id="text_4">
    <!-- 0.5~30 -->
    <g style="fill: #262626" transform="translate(246.241261 75.456) scale(0.252 -0.252)">
     <defs>
      <path id="DejaVuSans-2e" d="M 684 794 
L 1344 794 
L 1344 0 
L 684 0 
L 684 794 
z
" transform="scale(0.015625)"/>
      <path id="DejaVuSans-35" d="M 691 4666 
L 3169 4666 
L 3169 4134 
L 1269 4134 
L 1269 2991 
Q 1406 3038 1543 3061 
Q 1681 3084 1819 3084 
Q 2600 3084 3056 2656 
Q 3513 2228 3513 1497 
Q 3513 744 3044 326 
Q 2575 -91 1722 -91 
Q 1428 -91 1123 -41 
Q 819 9 494 109 
L 494 744 
Q 775 591 1075 516 
Q 1375 441 1709 441 
Q 2250 441 2565 725 
Q 2881 1009 2881 1497 
Q 2881 1984 2565 2268 
Q 2250 2553 1709 2553 
Q 1456 2553 1204 2497 
Q 953 2441 691 2322 
L 691 4666 
z
" transform="scale(0.015625)"/>
      <path id="DejaVuSans-7e" d="M 4684 2553 
L 4684 1997 
Q 4356 1750 4076 1644 
Q 3797 1538 3494 1538 
Q 3150 1538 2694 1722 
Q 2659 1734 2644 1741 
Q 2622 1750 2575 1766 
Q 2091 1959 1797 1959 
Q 1522 1959 1253 1839 
Q 984 1719 678 1459 
L 678 2016 
Q 1006 2263 1286 2370 
Q 1566 2478 1869 2478 
Q 2213 2478 2672 2291 
Q 2703 2278 2719 2272 
Q 2744 2263 2788 2247 
Q 3272 2053 3566 2053 
Q 3834 2053 4098 2172 
Q 4363 2291 4684 2553 
z
" transform="scale(0.015625)"/>
      <path id="DejaVuSans-33" d="M 2597 2516 
Q 3050 2419 3304 2112 
Q 3559 1806 3559 1356 
Q 3559 666 3084 287 
Q 2609 -91 1734 -91 
Q 1441 -91 1130 -33 
Q 819 25 488 141 
L 488 750 
Q 750 597 1062 519 
Q 1375 441 1716 441 
Q 2309 441 2620 675 
Q 2931 909 2931 1356 
Q 2931 1769 2642 2001 
Q 2353 2234 1838 2234 
L 1294 2234 
L 1294 2753 
L 1863 2753 
Q 2328 2753 2575 2939 
Q 2822 3125 2822 3475 
Q 2822 3834 2567 4026 
Q 2313 4219 1838 4219 
Q 1578 4219 1281 4162 
Q 984 4106 628 3988 
L 628 4550 
Q 988 4650 1302 4700 
Q 1616 4750 1894 4750 
Q 2613 4750 3031 4423 
Q 3450 4097 3450 3541 
Q 3450 3153 3228 2886 
Q 3006 2619 2597 2516 
z
" transform="scale(0.015625)"/>
     </defs>
     <use xlink:href="#DejaVuSans-30"/>
     <use xlink:href="#DejaVuSans-2e" x="63.623047"/>
     <use xlink:href="#DejaVuSans-35" x="95.410156"/>
     <use xlink:href="#DejaVuSans-7e" x="159.033203"/>
     <use xlink:href="#DejaVuSans-33" x="242.822266"/>
     <use xlink:href="#DejaVuSans-30" x="306.445312"/>
    </g>
   </g>
  </g>
  <g id="axes_2">
   <g id="patch_5">
    <path d="M 470.482436 195.521917 
L 772.15964 195.521917 
L 772.15964 81.456 
L 470.482436 81.456 
z
" style="fill: #eaeaf2"/>
   </g>
   <g id="matplotlib.axis_3">
    <g id="xtick_5">
     <g id="line2d_13">
      <path d="M 484.195037 195.521917 
L 484.195037 81.456 
" clip-path="url(#pbed697aafd)" style="fill: none; stroke: #ffffff; stroke-linecap: round"/>
     </g>
    </g>
    <g id="xtick_6">
     <g id="line2d_14">
      <path d="M 578.245792 195.521917 
L 578.245792 81.456 
" clip-path="url(#pbed697aafd)" style="fill: none; stroke: #ffffff; stroke-linecap: round"/>
     </g>
    </g>
    <g id="xtick_7">
     <g id="line2d_15">
      <path d="M 672.296548 195.521917 
L 672.296548 81.456 
" clip-path="url(#pbed697aafd)" style="fill: none; stroke: #ffffff; stroke-linecap: round"/>
     </g>
    </g>
    <g id="xtick_8">
     <g id="line2d_16">
      <path d="M 766.347303 195.521917 
L 766.347303 81.456 
" clip-path="url(#pbed697aafd)" style="fill: none; stroke: #ffffff; stroke-linecap: round"/>
     </g>
    </g>
   </g>
   <g id="matplotlib.axis_4">
    <g id="ytick_3">
     <g id="line2d_17">
      <path d="M 470.482436 192.968277 
L 772.15964 192.968277 
" clip-path="url(#pbed697aafd)" style="fill: none; stroke: #ffffff; stroke-linecap: round"/>
     </g>
    </g>
    <g id="ytick_4">
     <g id="line2d_18">
      <path d="M 470.482436 127.214175 
L 772.15964 127.214175 
" clip-path="url(#pbed697aafd)" style="fill: none; stroke: #ffffff; stroke-linecap: round"/>
     </g>
    </g>
   </g>
   <g id="PolyCollection_7"/>
   <g id="PolyCollection_8"/>
   <g id="PolyCollection_9"/>
   <g id="PolyCollection_10"/>
   <g id="PolyCollection_11"/>
   <g id="PolyCollection_12"/>
   <g id="line2d_19">
    <path d="M 484.195037 127.214175 
L 484.57124 180.151789 
L 484.947443 182.033336 
L 485.323646 182.536927 
L 486.076052 182.679578 
L 489.838082 182.461493 
L 490.590488 180.827239 
L 503.005188 149.721556 
L 512.410263 126.58362 
L 513.162669 126.476128 
L 533.477633 126.480577 
L 616.242297 126.933785 
L 657.248427 127.02464 
L 758.44704 127.057829 
L 758.44704 127.057829 
" clip-path="url(#pbed697aafd)" style="fill: none; stroke: #4c72b0; stroke-opacity: 0.9; stroke-width: 3; stroke-linecap: round"/>
   </g>
   <g id="line2d_20">
    <path d="M 484.195037 127.214175 
L 484.57124 156.086648 
L 484.947443 157.319934 
L 485.323646 157.747092 
L 486.076052 157.946526 
L 488.33327 157.91463 
L 489.838082 157.868945 
L 490.590488 157.033319 
L 494.352518 151.830682 
L 511.657857 127.963724 
L 512.410263 127.021843 
L 512.786466 126.880104 
L 524.44876 126.849235 
L 564.702483 126.883281 
L 605.708613 127.013119 
L 628.280794 127.071174 
L 747.160949 127.111512 
L 758.44704 127.111457 
L 758.44704 127.111457 
" clip-path="url(#pbed697aafd)" style="fill: none; stroke: #dd8452; stroke-opacity: 0.9; stroke-width: 3; stroke-linecap: round"/>
   </g>
   <g id="line2d_21">
    <path d="M 484.195037 127.214175 
L 484.57124 182.68897 
L 484.947443 185.715167 
L 485.323646 186.485745 
L 485.699849 186.692695 
L 486.452255 186.736259 
L 489.838082 186.526328 
L 490.590488 184.754929 
L 499.619361 160.400247 
L 511.657857 128.253756 
L 512.410263 126.539738 
L 513.162669 126.428478 
L 540.249287 126.360867 
L 569.21692 126.518907 
L 613.985079 126.990575 
L 653.8626 127.076443 
L 758.44704 127.088897 
L 758.44704 127.088897 
" clip-path="url(#pbed697aafd)" style="fill: none; stroke: #55a868; stroke-opacity: 0.9; stroke-width: 3; stroke-linecap: round"/>
   </g>
   <g id="line2d_22">
    <path d="M 484.195037 127.214175 
L 484.57124 170.812766 
L 484.947443 173.239012 
L 485.323646 173.845057 
L 485.699849 174.00403 
L 486.828458 174.022222 
L 489.838082 173.87125 
L 490.590488 172.490781 
L 499.243158 154.143756 
L 511.657857 128.064213 
L 512.410263 126.742243 
L 513.162669 126.631922 
L 544.011317 126.568767 
L 572.602747 126.717323 
L 615.113688 127.019173 
L 642.952712 127.087892 
L 752.427791 127.108047 
L 758.44704 127.107978 
L 758.44704 127.107978 
" clip-path="url(#pbed697aafd)" style="fill: none; stroke: #c44e52; stroke-opacity: 0.9; stroke-width: 3; stroke-linecap: round"/>
   </g>
   <g id="line2d_23">
    <path d="M 484.195037 127.214175 
L 484.57124 178.037734 
L 484.947443 180.285866 
L 485.323646 180.666012 
L 486.076052 180.727391 
L 489.838082 180.511716 
L 490.966691 177.901183 
L 507.519624 137.987328 
L 512.410263 126.432712 
L 513.538872 126.38364 
L 539.496881 126.354713 
L 571.850341 126.476663 
L 659.505645 126.962836 
L 737.37967 127.045332 
L 758.44704 127.048083 
L 758.44704 127.048083 
" clip-path="url(#pbed697aafd)" style="fill: none; stroke: #8172b3; stroke-opacity: 0.9; stroke-width: 3; stroke-linecap: round"/>
   </g>
   <g id="line2d_24">
    <path d="M 484.195037 127.214175 
L 484.57124 167.995657 
L 484.947443 169.531089 
L 485.323646 169.821024 
L 486.076052 169.867883 
L 489.838082 169.702547 
L 490.966691 167.624117 
L 508.27203 134.401659 
L 512.410263 126.621284 
L 513.915075 126.576408 
L 539.873084 126.568213 
L 602.322786 126.806655 
L 698.254556 127.052183 
L 758.44704 127.069865 
L 758.44704 127.069865 
" clip-path="url(#pbed697aafd)" style="fill: none; stroke: #937860; stroke-opacity: 0.9; stroke-width: 3; stroke-linecap: round"/>
   </g>
   <g id="patch_6">
    <path d="M 470.482436 195.521917 
L 470.482436 81.456 
" style="fill: none; stroke: #ffffff; stroke-width: 1.25; stroke-linejoin: miter; stroke-linecap: square"/>
   </g>
   <g id="patch_7">
    <path d="M 470.482436 195.521917 
L 772.15964 195.521917 
" style="fill: none; stroke: #ffffff; stroke-width: 1.25; stroke-linejoin: miter; stroke-linecap: square"/>
   </g>
   <g id="text_5">
    <!-- 0.5~365 -->
    <g style="fill: #262626" transform="translate(566.674444 75.456) scale(0.252 -0.252)">
     <defs>
      <path id="DejaVuSans-36" d="M 2113 2584 
Q 1688 2584 1439 2293 
Q 1191 2003 1191 1497 
Q 1191 994 1439 701 
Q 1688 409 2113 409 
Q 2538 409 2786 701 
Q 3034 994 3034 1497 
Q 3034 2003 2786 2293 
Q 2538 2584 2113 2584 
z
M 3366 4563 
L 3366 3988 
Q 3128 4100 2886 4159 
Q 2644 4219 2406 4219 
Q 1781 4219 1451 3797 
Q 1122 3375 1075 2522 
Q 1259 2794 1537 2939 
Q 1816 3084 2150 3084 
Q 2853 3084 3261 2657 
Q 3669 2231 3669 1497 
Q 3669 778 3244 343 
Q 2819 -91 2113 -91 
Q 1303 -91 875 529 
Q 447 1150 447 2328 
Q 447 3434 972 4092 
Q 1497 4750 2381 4750 
Q 2619 4750 2861 4703 
Q 3103 4656 3366 4563 
z
" transform="scale(0.015625)"/>
     </defs>
     <use xlink:href="#DejaVuSans-30"/>
     <use xlink:href="#DejaVuSans-2e" x="63.623047"/>
     <use xlink:href="#DejaVuSans-35" x="95.410156"/>
     <use xlink:href="#DejaVuSans-7e" x="159.033203"/>
     <use xlink:href="#DejaVuSans-33" x="242.822266"/>
     <use xlink:href="#DejaVuSans-36" x="306.445312"/>
     <use xlink:href="#DejaVuSans-35" x="370.068359"/>
    </g>
   </g>
  </g>
  <g id="axes_3">
   <g id="patch_8">
    <path d="M 798.93237 195.521917 
L 1100.609573 195.521917 
L 1100.609573 81.456 
L 798.93237 81.456 
z
" style="fill: #eaeaf2"/>
   </g>
   <g id="matplotlib.axis_5">
    <g id="xtick_9">
     <g id="line2d_25">
      <path d="M 812.64497 195.521917 
L 812.64497 81.456 
" clip-path="url(#p9067437104)" style="fill: none; stroke: #ffffff; stroke-linecap: round"/>
     </g>
    </g>
    <g id="xtick_10">
     <g id="line2d_26">
      <path d="M 906.695726 195.521917 
L 906.695726 81.456 
" clip-path="url(#p9067437104)" style="fill: none; stroke: #ffffff; stroke-linecap: round"/>
     </g>
    </g>
    <g id="xtick_11">
     <g id="line2d_27">
      <path d="M 1000.746481 195.521917 
L 1000.746481 81.456 
" clip-path="url(#p9067437104)" style="fill: none; stroke: #ffffff; stroke-linecap: round"/>
     </g>
    </g>
    <g id="xtick_12">
     <g id="line2d_28">
      <path d="M 1094.797237 195.521917 
L 1094.797237 81.456 
" clip-path="url(#p9067437104)" style="fill: none; stroke: #ffffff; stroke-linecap: round"/>
     </g>
    </g>
   </g>
   <g id="matplotlib.axis_6">
    <g id="ytick_5">
     <g id="line2d_29">
      <path d="M 798.93237 192.968277 
L 1100.609573 192.968277 
" clip-path="url(#p9067437104)" style="fill: none; stroke: #ffffff; stroke-linecap: round"/>
     </g>
    </g>
    <g id="ytick_6">
     <g id="line2d_30">
      <path d="M 798.93237 127.214175 
L 1100.609573 127.214175 
" clip-path="url(#p9067437104)" style="fill: none; stroke: #ffffff; stroke-linecap: round"/>
     </g>
    </g>
   </g>
   <g id="PolyCollection_13"/>
   <g id="PolyCollection_14"/>
   <g id="PolyCollection_15"/>
   <g id="PolyCollection_16"/>
   <g id="PolyCollection_17"/>
   <g id="PolyCollection_18"/>
   <g id="line2d_31">
    <path d="M 812.64497 127.214175 
L 813.021173 180.151789 
L 813.397376 181.82019 
L 813.773579 182.077561 
L 814.525985 181.711635 
L 818.288016 179.027554 
L 819.040422 176.915976 
L 823.931061 162.116542 
L 828.069294 150.396511 
L 832.58373 138.606652 
L 835.593355 131.144809 
L 837.098167 128.405714 
L 839.731588 124.044027 
L 840.860197 122.33923 
L 841.612603 122.176703 
L 843.493618 122.215621 
L 857.036927 123.426677 
L 866.442002 123.978074 
L 877.728093 124.493689 
L 884.123544 124.814062 
L 890.142793 125.154158 
L 897.666853 125.314931 
L 916.853207 125.475545 
L 958.23554 125.558459 
L 1086.896973 125.570681 
L 1086.896973 125.570681 
" clip-path="url(#p9067437104)" style="fill: none; stroke: #4c72b0; stroke-opacity: 0.9; stroke-width: 3; stroke-linecap: round"/>
   </g>
   <g id="line2d_32">
    <path d="M 812.64497 127.214175 
L 813.021173 156.086648 
L 813.397376 157.221216 
L 813.773579 157.533089 
L 814.525985 157.489786 
L 817.159407 156.609203 
L 818.288016 156.226967 
L 819.040422 155.158306 
L 827.316888 141.853585 
L 831.455121 135.696939 
L 835.593355 130.024533 
L 836.721964 128.776469 
L 840.860197 124.763988 
L 842.365009 124.693087 
L 847.255648 124.688618 
L 871.708845 125.408956 
L 875.847078 125.530081 
L 917.22941 126.034428 
L 942.05881 126.071227 
L 1086.896973 126.085585 
L 1086.896973 126.085585 
" clip-path="url(#p9067437104)" style="fill: none; stroke: #dd8452; stroke-opacity: 0.9; stroke-width: 3; stroke-linecap: round"/>
   </g>
   <g id="line2d_33">
    <path d="M 812.64497 127.214175 
L 813.021173 182.68897 
L 813.397376 185.505259 
L 813.773579 186.032278 
L 814.149782 185.988102 
L 815.278391 185.263491 
L 818.288016 183.154929 
L 819.040422 180.903964 
L 825.05967 161.483471 
L 829.574106 147.794299 
L 833.336137 137.027617 
L 835.593355 131.039184 
L 837.098167 127.804264 
L 838.979182 124.3781 
L 840.107791 122.81462 
L 840.860197 121.922939 
L 841.612603 121.796673 
L 845.750836 122.15057 
L 866.442002 124.100495 
L 872.085048 124.608204 
L 879.609108 125.06606 
L 888.637981 125.39477 
L 901.428883 125.62465 
L 923.248659 125.766455 
L 974.036067 125.823789 
L 1086.896973 125.824546 
L 1086.896973 125.824546 
" clip-path="url(#p9067437104)" style="fill: none; stroke: #55a868; stroke-opacity: 0.9; stroke-width: 3; stroke-linecap: round"/>
   </g>
   <g id="line2d_34">
    <path d="M 812.64497 127.214175 
L 813.021173 170.812766 
L 813.397376 173.070345 
L 813.773579 173.47977 
L 814.149782 173.436001 
L 815.278391 172.847305 
L 818.288016 171.142371 
L 819.040422 169.375823 
L 825.05967 154.068846 
L 829.197903 144.17042 
L 833.336137 134.874628 
L 835.593355 130.19835 
L 837.098167 127.697052 
L 838.979182 125.042902 
L 840.107791 123.886365 
L 840.860197 123.212216 
L 841.612603 123.114655 
L 848.76046 123.55185 
L 866.442002 124.66979 
L 872.085048 125.072187 
L 881.490123 125.493701 
L 893.152417 125.76593 
L 912.338771 125.93761 
L 949.58287 126.013574 
L 1086.896973 126.01899 
L 1086.896973 126.01899 
" clip-path="url(#p9067437104)" style="fill: none; stroke: #c44e52; stroke-opacity: 0.9; stroke-width: 3; stroke-linecap: round"/>
   </g>
   <g id="line2d_35">
    <path d="M 812.64497 127.214175 
L 813.021173 178.037734 
L 813.397376 180.058445 
L 813.773579 180.195954 
L 814.525985 179.770091 
L 818.288016 177.201301 
L 819.792828 172.794687 
L 823.931061 160.758525 
L 828.445497 148.33681 
L 832.58373 137.577003 
L 835.593355 130.325573 
L 837.47437 126.721777 
L 838.602979 124.898994 
L 840.860197 121.819728 
L 841.612603 121.694305 
L 846.127039 121.668003 
L 854.779709 121.864311 
L 864.560987 122.855305 
L 870.580236 123.437786 
L 881.490123 124.393143 
L 885.628357 124.849424 
L 891.647605 125.153924 
L 901.05268 125.406188 
L 917.981816 125.583494 
L 951.840088 125.682513 
L 1072.601258 125.704342 
L 1086.896973 125.704337 
L 1086.896973 125.704337 
" clip-path="url(#p9067437104)" style="fill: none; stroke: #8172b3; stroke-opacity: 0.9; stroke-width: 3; stroke-linecap: round"/>
   </g>
   <g id="line2d_36">
    <path d="M 812.64497 127.214175 
L 813.021173 167.995657 
L 813.397376 169.356642 
L 813.773579 169.460963 
L 814.902188 168.936877 
L 818.288016 167.172348 
L 819.792828 163.688392 
L 824.307264 153.330013 
L 828.8217 143.553229 
L 832.959933 135.074021 
L 835.969558 129.356049 
L 837.47437 127.147492 
L 839.355385 124.83377 
L 840.860197 123.174322 
L 841.612603 123.065508 
L 846.503242 123.061876 
L 855.155912 123.228692 
L 875.470875 124.446916 
L 883.747341 124.91793 
L 888.261778 125.307209 
L 895.785838 125.537477 
L 909.329147 125.707016 
L 934.910952 125.817037 
L 1012.784978 125.853048 
L 1086.896973 125.853027 
L 1086.896973 125.853027 
" clip-path="url(#p9067437104)" style="fill: none; stroke: #937860; stroke-opacity: 0.9; stroke-width: 3; stroke-linecap: round"/>
   </g>
   <g id="patch_9">
    <path d="M 798.93237 195.521917 
L 798.93237 81.456 
" style="fill: none; stroke: #ffffff; stroke-width: 1.25; stroke-linejoin: miter; stroke-linecap: square"/>
   </g>
   <g id="patch_10">
    <path d="M 798.93237 195.521917 
L 1100.609573 195.521917 
" style="fill: none; stroke: #ffffff; stroke-width: 1.25; stroke-linejoin: miter; stroke-linecap: square"/>
   </g>
   <g id="text_6">
    <!-- 0.8~30 -->
    <g style="fill: #262626" transform="translate(903.141128 75.456) scale(0.252 -0.252)">
     <defs>
      <path id="DejaVuSans-38" d="M 2034 2216 
Q 1584 2216 1326 1975 
Q 1069 1734 1069 1313 
Q 1069 891 1326 650 
Q 1584 409 2034 409 
Q 2484 409 2743 651 
Q 3003 894 3003 1313 
Q 3003 1734 2745 1975 
Q 2488 2216 2034 2216 
z
M 1403 2484 
Q 997 2584 770 2862 
Q 544 3141 544 3541 
Q 544 4100 942 4425 
Q 1341 4750 2034 4750 
Q 2731 4750 3128 4425 
Q 3525 4100 3525 3541 
Q 3525 3141 3298 2862 
Q 3072 2584 2669 2484 
Q 3125 2378 3379 2068 
Q 3634 1759 3634 1313 
Q 3634 634 3220 271 
Q 2806 -91 2034 -91 
Q 1263 -91 848 271 
Q 434 634 434 1313 
Q 434 1759 690 2068 
Q 947 2378 1403 2484 
z
M 1172 3481 
Q 1172 3119 1398 2916 
Q 1625 2713 2034 2713 
Q 2441 2713 2670 2916 
Q 2900 3119 2900 3481 
Q 2900 3844 2670 4047 
Q 2441 4250 2034 4250 
Q 1625 4250 1398 4047 
Q 1172 3844 1172 3481 
z
" transform="scale(0.015625)"/>
     </defs>
     <use xlink:href="#DejaVuSans-30"/>
     <use xlink:href="#DejaVuSans-2e" x="63.623047"/>
     <use xlink:href="#DejaVuSans-38" x="95.410156"/>
     <use xlink:href="#DejaVuSans-7e" x="159.033203"/>
     <use xlink:href="#DejaVuSans-33" x="242.822266"/>
     <use xlink:href="#DejaVuSans-30" x="306.445312"/>
    </g>
   </g>
  </g>
  <g id="axes_4">
   <g id="patch_11">
    <path d="M 142.032503 373.284 
L 443.709706 373.284 
L 443.709706 259.218083 
L 142.032503 259.218083 
z
" style="fill: #eaeaf2"/>
   </g>
   <g id="matplotlib.axis_7">
    <g id="xtick_13">
     <g id="line2d_37">
      <path d="M 155.745103 373.284 
L 155.745103 259.218083 
" clip-path="url(#pc66dbd5bb0)" style="fill: none; stroke: #ffffff; stroke-linecap: round"/>
     </g>
     <g id="text_7">
      <!-- 0 -->
      <g style="fill: #262626" transform="translate(148.396415 400.336391) scale(0.231 -0.231)">
       <use xlink:href="#DejaVuSans-30"/>
      </g>
     </g>
    </g>
    <g id="xtick_14">
     <g id="line2d_38">
      <path d="M 249.795858 373.284 
L 249.795858 259.218083 
" clip-path="url(#pc66dbd5bb0)" style="fill: none; stroke: #ffffff; stroke-linecap: round"/>
     </g>
     <g id="text_8">
      <!-- 250 -->
      <g style="fill: #262626" transform="translate(227.749796 400.336391) scale(0.231 -0.231)">
       <defs>
        <path id="DejaVuSans-32" d="M 1228 531 
L 3431 531 
L 3431 0 
L 469 0 
L 469 531 
Q 828 903 1448 1529 
Q 2069 2156 2228 2338 
Q 2531 2678 2651 2914 
Q 2772 3150 2772 3378 
Q 2772 3750 2511 3984 
Q 2250 4219 1831 4219 
Q 1534 4219 1204 4116 
Q 875 4013 500 3803 
L 500 4441 
Q 881 4594 1212 4672 
Q 1544 4750 1819 4750 
Q 2544 4750 2975 4387 
Q 3406 4025 3406 3419 
Q 3406 3131 3298 2873 
Q 3191 2616 2906 2266 
Q 2828 2175 2409 1742 
Q 1991 1309 1228 531 
z
" transform="scale(0.015625)"/>
       </defs>
       <use xlink:href="#DejaVuSans-32"/>
       <use xlink:href="#DejaVuSans-35" x="63.623047"/>
       <use xlink:href="#DejaVuSans-30" x="127.246094"/>
      </g>
     </g>
    </g>
    <g id="xtick_15">
     <g id="line2d_39">
      <path d="M 343.846614 373.284 
L 343.846614 259.218083 
" clip-path="url(#pc66dbd5bb0)" style="fill: none; stroke: #ffffff; stroke-linecap: round"/>
     </g>
     <g id="text_9">
      <!-- 500 -->
      <g style="fill: #262626" transform="translate(321.800551 400.336391) scale(0.231 -0.231)">
       <use xlink:href="#DejaVuSans-35"/>
       <use xlink:href="#DejaVuSans-30" x="63.623047"/>
       <use xlink:href="#DejaVuSans-30" x="127.246094"/>
      </g>
     </g>
    </g>
    <g id="xtick_16">
     <g id="line2d_40">
      <path d="M 437.897369 373.284 
L 437.897369 259.218083 
" clip-path="url(#pc66dbd5bb0)" style="fill: none; stroke: #ffffff; stroke-linecap: round"/>
     </g>
     <g id="text_10">
      <!-- 750 -->
      <g style="fill: #262626" transform="translate(415.851307 400.336391) scale(0.231 -0.231)">
       <defs>
        <path id="DejaVuSans-37" d="M 525 4666 
L 3525 4666 
L 3525 4397 
L 1831 0 
L 1172 0 
L 2766 4134 
L 525 4134 
L 525 4666 
z
" transform="scale(0.015625)"/>
       </defs>
       <use xlink:href="#DejaVuSans-37"/>
       <use xlink:href="#DejaVuSans-35" x="63.623047"/>
       <use xlink:href="#DejaVuSans-30" x="127.246094"/>
      </g>
     </g>
    </g>
    <g id="text_11">
     <!-- step -->
     <g style="fill: #262626" transform="translate(265.615729 428.288531) scale(0.252 -0.252)">
      <defs>
       <path id="DejaVuSans-73" d="M 2834 3397 
L 2834 2853 
Q 2591 2978 2328 3040 
Q 2066 3103 1784 3103 
Q 1356 3103 1142 2972 
Q 928 2841 928 2578 
Q 928 2378 1081 2264 
Q 1234 2150 1697 2047 
L 1894 2003 
Q 2506 1872 2764 1633 
Q 3022 1394 3022 966 
Q 3022 478 2636 193 
Q 2250 -91 1575 -91 
Q 1294 -91 989 -36 
Q 684 19 347 128 
L 347 722 
Q 666 556 975 473 
Q 1284 391 1588 391 
Q 1994 391 2212 530 
Q 2431 669 2431 922 
Q 2431 1156 2273 1281 
Q 2116 1406 1581 1522 
L 1381 1569 
Q 847 1681 609 1914 
Q 372 2147 372 2553 
Q 372 3047 722 3315 
Q 1072 3584 1716 3584 
Q 2034 3584 2315 3537 
Q 2597 3491 2834 3397 
z
" transform="scale(0.015625)"/>
       <path id="DejaVuSans-74" d="M 1172 4494 
L 1172 3500 
L 2356 3500 
L 2356 3053 
L 1172 3053 
L 1172 1153 
Q 1172 725 1289 603 
Q 1406 481 1766 481 
L 2356 481 
L 2356 0 
L 1766 0 
Q 1100 0 847 248 
Q 594 497 594 1153 
L 594 3053 
L 172 3053 
L 172 3500 
L 594 3500 
L 594 4494 
L 1172 4494 
z
" transform="scale(0.015625)"/>
       <path id="DejaVuSans-70" d="M 1159 525 
L 1159 -1331 
L 581 -1331 
L 581 3500 
L 1159 3500 
L 1159 2969 
Q 1341 3281 1617 3432 
Q 1894 3584 2278 3584 
Q 2916 3584 3314 3078 
Q 3713 2572 3713 1747 
Q 3713 922 3314 415 
Q 2916 -91 2278 -91 
Q 1894 -91 1617 61 
Q 1341 213 1159 525 
z
M 3116 1747 
Q 3116 2381 2855 2742 
Q 2594 3103 2138 3103 
Q 1681 3103 1420 2742 
Q 1159 2381 1159 1747 
Q 1159 1113 1420 752 
Q 1681 391 2138 391 
Q 2594 391 2855 752 
Q 3116 1113 3116 1747 
z
" transform="scale(0.015625)"/>
      </defs>
      <use xlink:href="#DejaVuSans-73"/>
      <use xlink:href="#DejaVuSans-74" x="52.099609"/>
      <use xlink:href="#DejaVuSans-65" x="91.308594"/>
      <use xlink:href="#DejaVuSans-70" x="152.832031"/>
     </g>
    </g>
   </g>
   <g id="matplotlib.axis_8">
    <g id="ytick_7">
     <g id="line2d_41">
      <path d="M 142.032503 370.73036 
L 443.709706 370.73036 
" clip-path="url(#pc66dbd5bb0)" style="fill: none; stroke: #ffffff; stroke-linecap: round"/>
     </g>
     <g id="text_12">
      <!-- −1 -->
      <g style="fill: #262626" transform="translate(98.47805 379.506555) scale(0.231 -0.231)">
       <use xlink:href="#DejaVuSans-2212"/>
       <use xlink:href="#DejaVuSans-31" x="83.789062"/>
      </g>
     </g>
    </g>
    <g id="ytick_8">
     <g id="line2d_42">
      <path d="M 142.032503 304.976258 
L 443.709706 304.976258 
" clip-path="url(#pc66dbd5bb0)" style="fill: none; stroke: #ffffff; stroke-linecap: round"/>
     </g>
     <g id="text_13">
      <!-- 0 -->
      <g style="fill: #262626" transform="translate(117.835128 313.752453) scale(0.231 -0.231)">
       <use xlink:href="#DejaVuSans-30"/>
      </g>
     </g>
    </g>
    <g id="text_14">
     <!-- % change -->
     <g style="fill: #262626" transform="translate(89.237237 378.599385) rotate(-90) scale(0.252 -0.252)">
      <use xlink:href="#DejaVuSans-25"/>
      <use xlink:href="#DejaVuSans-20" x="95.019531"/>
      <use xlink:href="#DejaVuSans-63" x="126.806641"/>
      <use xlink:href="#DejaVuSans-68" x="181.787109"/>
      <use xlink:href="#DejaVuSans-61" x="245.166016"/>
      <use xlink:href="#DejaVuSans-6e" x="306.445312"/>
      <use xlink:href="#DejaVuSans-67" x="369.824219"/>
      <use xlink:href="#DejaVuSans-65" x="433.300781"/>
     </g>
    </g>
   </g>
   <g id="PolyCollection_19"/>
   <g id="PolyCollection_20"/>
   <g id="PolyCollection_21"/>
   <g id="PolyCollection_22"/>
   <g id="PolyCollection_23"/>
   <g id="PolyCollection_24"/>
   <g id="line2d_43">
    <path d="M 155.745103 304.976258 
L 156.121306 357.913872 
L 156.497509 359.795419 
L 156.873712 360.29901 
L 157.626118 360.441662 
L 161.388148 360.223576 
L 162.140554 358.589322 
L 174.555254 327.483639 
L 183.96033 304.345703 
L 184.712736 304.238211 
L 205.027699 304.24266 
L 287.792364 304.695868 
L 328.798493 304.786724 
L 429.997106 304.819912 
L 429.997106 304.819912 
" clip-path="url(#pc66dbd5bb0)" style="fill: none; stroke: #4c72b0; stroke-opacity: 0.9; stroke-width: 3; stroke-linecap: round"/>
   </g>
   <g id="line2d_44">
    <path d="M 155.745103 304.976258 
L 156.121306 333.848731 
L 156.497509 335.082017 
L 156.873712 335.509175 
L 157.626118 335.708609 
L 159.883336 335.676713 
L 161.388148 335.631028 
L 162.140554 334.795402 
L 165.902585 329.592765 
L 183.207924 305.725807 
L 183.96033 304.783927 
L 184.336533 304.642187 
L 195.998826 304.611318 
L 236.25255 304.645364 
L 277.258679 304.775202 
L 299.83086 304.833257 
L 418.711015 304.873596 
L 429.997106 304.87354 
L 429.997106 304.87354 
" clip-path="url(#pc66dbd5bb0)" style="fill: none; stroke: #dd8452; stroke-opacity: 0.9; stroke-width: 3; stroke-linecap: round"/>
   </g>
   <g id="line2d_45">
    <path d="M 155.745103 304.976258 
L 156.121306 360.451053 
L 156.497509 363.47725 
L 156.873712 364.247828 
L 157.249915 364.454779 
L 158.002321 364.498342 
L 161.388148 364.288412 
L 162.140554 362.517012 
L 171.169427 338.16233 
L 183.207924 306.015839 
L 183.96033 304.301821 
L 184.712736 304.190561 
L 211.799353 304.12295 
L 240.766986 304.28099 
L 285.535146 304.752658 
L 325.412666 304.838526 
L 429.997106 304.85098 
L 429.997106 304.85098 
" clip-path="url(#pc66dbd5bb0)" style="fill: none; stroke: #55a868; stroke-opacity: 0.9; stroke-width: 3; stroke-linecap: round"/>
   </g>
   <g id="line2d_46">
    <path d="M 155.745103 304.976258 
L 156.121306 348.574849 
L 156.497509 351.001095 
L 156.873712 351.60714 
L 157.249915 351.766113 
L 158.378524 351.784305 
L 161.388148 351.633333 
L 162.140554 350.252864 
L 170.793224 331.905839 
L 183.207924 305.826296 
L 183.96033 304.504326 
L 184.712736 304.394005 
L 215.561383 304.33085 
L 244.152813 304.479407 
L 286.663755 304.781256 
L 314.502778 304.849975 
L 423.977858 304.87013 
L 429.997106 304.870061 
L 429.997106 304.870061 
" clip-path="url(#pc66dbd5bb0)" style="fill: none; stroke: #c44e52; stroke-opacity: 0.9; stroke-width: 3; stroke-linecap: round"/>
   </g>
   <g id="line2d_47">
    <path d="M 155.745103 304.976258 
L 156.121306 355.799817 
L 156.497509 358.047949 
L 156.873712 358.428095 
L 157.626118 358.489474 
L 161.388148 358.273799 
L 162.516757 355.663267 
L 179.06969 315.749412 
L 183.96033 304.194795 
L 185.088939 304.145723 
L 211.046947 304.116796 
L 243.400407 304.238746 
L 331.055711 304.724919 
L 408.929737 304.807415 
L 429.997106 304.810167 
L 429.997106 304.810167 
" clip-path="url(#pc66dbd5bb0)" style="fill: none; stroke: #8172b3; stroke-opacity: 0.9; stroke-width: 3; stroke-linecap: round"/>
   </g>
   <g id="line2d_48">
    <path d="M 155.745103 304.976258 
L 156.121306 345.75774 
L 156.497509 347.293172 
L 156.873712 347.583107 
L 157.626118 347.629966 
L 161.388148 347.464631 
L 162.516757 345.3862 
L 179.822096 312.163742 
L 183.96033 304.383367 
L 185.465142 304.338492 
L 211.42315 304.330296 
L 273.872852 304.568738 
L 369.804622 304.814266 
L 429.997106 304.831948 
L 429.997106 304.831948 
" clip-path="url(#pc66dbd5bb0)" style="fill: none; stroke: #937860; stroke-opacity: 0.9; stroke-width: 3; stroke-linecap: round"/>
   </g>
   <g id="patch_12">
    <path d="M 142.032503 373.284 
L 142.032503 259.218083 
" style="fill: none; stroke: #ffffff; stroke-width: 1.25; stroke-linejoin: miter; stroke-linecap: square"/>
   </g>
   <g id="patch_13">
    <path d="M 142.032503 373.284 
L 443.709706 373.284 
" style="fill: none; stroke: #ffffff; stroke-width: 1.25; stroke-linejoin: miter; stroke-linecap: square"/>
   </g>
   <g id="text_15">
    <!-- 0.8~365 -->
    <g style="fill: #262626" transform="translate(238.224511 253.218083) scale(0.252 -0.252)">
     <use xlink:href="#DejaVuSans-30"/>
     <use xlink:href="#DejaVuSans-2e" x="63.623047"/>
     <use xlink:href="#DejaVuSans-38" x="95.410156"/>
     <use xlink:href="#DejaVuSans-7e" x="159.033203"/>
     <use xlink:href="#DejaVuSans-33" x="242.822266"/>
     <use xlink:href="#DejaVuSans-36" x="306.445312"/>
     <use xlink:href="#DejaVuSans-35" x="370.068359"/>
    </g>
   </g>
  </g>
  <g id="axes_5">
   <g id="patch_14">
    <path d="M 470.482436 373.284 
L 772.15964 373.284 
L 772.15964 259.218083 
L 470.482436 259.218083 
z
" style="fill: #eaeaf2"/>
   </g>
   <g id="matplotlib.axis_9">
    <g id="xtick_17">
     <g id="line2d_49">
      <path d="M 484.195037 373.284 
L 484.195037 259.218083 
" clip-path="url(#p2d4842e2f7)" style="fill: none; stroke: #ffffff; stroke-linecap: round"/>
     </g>
     <g id="text_16">
      <!-- 0 -->
      <g style="fill: #262626" transform="translate(476.846349 400.336391) scale(0.231 -0.231)">
       <use xlink:href="#DejaVuSans-30"/>
      </g>
     </g>
    </g>
    <g id="xtick_18">
     <g id="line2d_50">
      <path d="M 578.245792 373.284 
L 578.245792 259.218083 
" clip-path="url(#p2d4842e2f7)" style="fill: none; stroke: #ffffff; stroke-linecap: round"/>
     </g>
     <g id="text_17">
      <!-- 250 -->
      <g style="fill: #262626" transform="translate(556.19973 400.336391) scale(0.231 -0.231)">
       <use xlink:href="#DejaVuSans-32"/>
       <use xlink:href="#DejaVuSans-35" x="63.623047"/>
       <use xlink:href="#DejaVuSans-30" x="127.246094"/>
      </g>
     </g>
    </g>
    <g id="xtick_19">
     <g id="line2d_51">
      <path d="M 672.296548 373.284 
L 672.296548 259.218083 
" clip-path="url(#p2d4842e2f7)" style="fill: none; stroke: #ffffff; stroke-linecap: round"/>
     </g>
     <g id="text_18">
      <!-- 500 -->
      <g style="fill: #262626" transform="translate(650.250485 400.336391) scale(0.231 -0.231)">
       <use xlink:href="#DejaVuSans-35"/>
       <use xlink:href="#DejaVuSans-30" x="63.623047"/>
       <use xlink:href="#DejaVuSans-30" x="127.246094"/>
      </g>
     </g>
    </g>
    <g id="xtick_20">
     <g id="line2d_52">
      <path d="M 766.347303 373.284 
L 766.347303 259.218083 
" clip-path="url(#p2d4842e2f7)" style="fill: none; stroke: #ffffff; stroke-linecap: round"/>
     </g>
     <g id="text_19">
      <!-- 750 -->
      <g style="fill: #262626" transform="translate(744.301241 400.336391) scale(0.231 -0.231)">
       <use xlink:href="#DejaVuSans-37"/>
       <use xlink:href="#DejaVuSans-35" x="63.623047"/>
       <use xlink:href="#DejaVuSans-30" x="127.246094"/>
      </g>
     </g>
    </g>
    <g id="text_20">
     <!-- step -->
     <g style="fill: #262626" transform="translate(594.065663 428.288531) scale(0.252 -0.252)">
      <use xlink:href="#DejaVuSans-73"/>
      <use xlink:href="#DejaVuSans-74" x="52.099609"/>
      <use xlink:href="#DejaVuSans-65" x="91.308594"/>
      <use xlink:href="#DejaVuSans-70" x="152.832031"/>
     </g>
    </g>
   </g>
   <g id="matplotlib.axis_10">
    <g id="ytick_9">
     <g id="line2d_53">
      <path d="M 470.482436 370.73036 
L 772.15964 370.73036 
" clip-path="url(#p2d4842e2f7)" style="fill: none; stroke: #ffffff; stroke-linecap: round"/>
     </g>
    </g>
    <g id="ytick_10">
     <g id="line2d_54">
      <path d="M 470.482436 304.976258 
L 772.15964 304.976258 
" clip-path="url(#p2d4842e2f7)" style="fill: none; stroke: #ffffff; stroke-linecap: round"/>
     </g>
    </g>
   </g>
   <g id="PolyCollection_25"/>
   <g id="PolyCollection_26"/>
   <g id="PolyCollection_27"/>
   <g id="PolyCollection_28"/>
   <g id="PolyCollection_29"/>
   <g id="PolyCollection_30"/>
   <g id="line2d_55">
    <path d="M 484.195037 304.976258 
L 484.57124 357.913872 
L 484.947443 359.582273 
L 485.323646 359.839645 
L 486.076052 359.473718 
L 487.204661 358.73795 
L 489.838082 357.808627 
L 490.590488 355.965467 
L 490.966691 354.941717 
L 491.719097 353.682712 
L 492.471503 352.999978 
L 493.223909 352.411549 
L 493.600112 352.319909 
L 496.233533 353.432478 
L 497.362142 354.375451 
L 499.243158 355.406493 
L 499.995564 355.588408 
L 500.74797 355.572389 
L 501.500376 355.36511 
L 502.252782 355.054016 
L 506.014812 354.632701 
L 509.776842 353.941375 
L 512.410263 353.186084 
L 516.172294 351.785825 
L 519.181918 350.368464 
L 522.191542 348.709703 
L 525.577369 346.576355 
L 528.963196 344.173712 
L 532.725226 341.229069 
L 537.239663 337.393226 
L 542.882708 332.277125 
L 548.901956 326.801921 
L 550.030565 326.125745 
L 553.04019 324.777036 
L 556.049814 323.62944 
L 565.831092 320.302639 
L 575.988574 317.799715 
L 584.26504 315.862887 
L 591.036695 314.035702 
L 597.432146 312.108885 
L 604.203801 309.830557 
L 611.351658 307.176708 
L 619.251922 303.990483 
L 627.904591 300.290909 
L 638.814479 295.366917 
L 659.881848 285.790222 
L 668.91072 282.018712 
L 673.048954 280.446394 
L 678.315796 278.765297 
L 682.454029 277.720234 
L 689.225684 276.181795 
L 692.235308 275.743909 
L 695.997338 275.456034 
L 705.026211 275.102335 
L 709.91685 275.073959 
L 718.193316 275.370655 
L 731.360422 275.586299 
L 754.308806 275.707624 
L 758.44704 275.716756 
L 758.44704 275.716756 
" clip-path="url(#p2d4842e2f7)" style="fill: none; stroke: #4c72b0; stroke-opacity: 0.9; stroke-width: 3; stroke-linecap: round"/>
   </g>
   <g id="line2d_56">
    <path d="M 484.195037 304.976258 
L 484.57124 333.848731 
L 484.947443 334.983299 
L 485.323646 335.295172 
L 486.076052 335.251869 
L 489.838082 334.164611 
L 490.590488 333.20209 
L 492.847706 329.933626 
L 493.600112 329.332597 
L 494.728721 328.845804 
L 497.362142 328.826501 
L 498.866955 329.229962 
L 500.74797 329.451729 
L 501.876579 329.312149 
L 503.005188 328.959352 
L 504.133797 328.635338 
L 511.281654 327.256003 
L 516.172294 326.004031 
L 519.934324 324.791704 
L 524.072557 323.21021 
L 528.21079 321.37686 
L 531.97282 319.478823 
L 536.487257 316.934481 
L 550.782972 308.657604 
L 552.663987 308.109152 
L 556.80222 307.352627 
L 562.821468 306.5198 
L 568.464514 306.477141 
L 574.859965 306.709606 
L 578.998198 307.086675 
L 585.769853 307.954642 
L 595.551131 309.454663 
L 603.827598 310.689902 
L 611.351658 311.581242 
L 618.875719 312.237016 
L 625.647373 312.594538 
L 632.042824 312.70082 
L 638.062073 312.574904 
L 643.705118 312.245263 
L 648.97196 311.698099 
L 653.8626 310.97426 
L 658.753239 310.016372 
L 663.643878 308.830743 
L 668.534517 307.429389 
L 673.80136 305.688639 
L 679.068202 303.709803 
L 685.839856 300.893216 
L 691.482902 298.393651 
L 697.125947 295.651308 
L 706.531023 290.807712 
L 712.926474 287.244298 
L 726.09358 279.831313 
L 733.61764 275.593956 
L 738.884482 272.670133 
L 744.903731 269.54635 
L 750.546776 266.846915 
L 753.932603 265.432035 
L 756.942228 264.713888 
L 758.44704 264.402898 
L 758.44704 264.402898 
" clip-path="url(#p2d4842e2f7)" style="fill: none; stroke: #dd8452; stroke-opacity: 0.9; stroke-width: 3; stroke-linecap: round"/>
   </g>
   <g id="line2d_57">
    <path d="M 484.195037 304.976258 
L 484.57124 360.451053 
L 484.947443 363.267342 
L 485.323646 363.794362 
L 485.699849 363.750185 
L 486.828458 363.029278 
L 487.957067 362.347979 
L 489.085676 361.882631 
L 489.838082 361.661816 
L 490.590488 359.730793 
L 494.728721 348.349245 
L 496.985939 342.660244 
L 498.114548 340.385817 
L 498.866955 339.169791 
L 499.619361 338.238182 
L 501.500376 336.54268 
L 503.005188 335.651728 
L 504.51 334.856059 
L 505.638609 334.687208 
L 508.27203 334.483757 
L 512.03406 334.775421 
L 513.538872 334.836628 
L 516.9247 334.559234 
L 521.062933 333.976959 
L 524.824963 333.281189 
L 528.963196 332.294627 
L 533.477633 330.988049 
L 538.744475 329.236395 
L 544.763723 327.004781 
L 552.663987 323.811424 
L 571.850341 315.905718 
L 578.245792 313.709947 
L 585.769853 311.369504 
L 595.551131 308.533022 
L 608.342034 305.051766 
L 616.242297 303.114927 
L 623.013952 301.701037 
L 633.547636 299.800502 
L 639.566885 298.938135 
L 647.090945 298.089676 
L 655.743615 297.290221 
L 663.643878 296.77602 
L 676.810984 296.11463 
L 694.868729 295.48939 
L 716.312301 294.940166 
L 738.132076 294.633142 
L 758.44704 294.457052 
L 758.44704 294.457052 
" clip-path="url(#p2d4842e2f7)" style="fill: none; stroke: #55a868; stroke-opacity: 0.9; stroke-width: 3; stroke-linecap: round"/>
   </g>
   <g id="line2d_58">
    <path d="M 484.195037 304.976258 
L 484.57124 348.574849 
L 484.947443 350.832428 
L 485.323646 351.241853 
L 485.699849 351.198553 
L 487.204661 350.426328 
L 489.085676 349.542305 
L 489.838082 349.265184 
L 490.966691 346.836245 
L 494.352518 339.360245 
L 496.985939 334.14052 
L 498.114548 332.347293 
L 498.866955 331.367555 
L 499.995564 330.405499 
L 501.500376 329.432729 
L 503.381391 328.624368 
L 504.886203 328.20831 
L 508.27203 327.861728 
L 512.03406 327.846416 
L 513.538872 327.852618 
L 520.310527 327.227631 
L 525.953572 326.489134 
L 532.349023 325.4245 
L 537.992069 324.280108 
L 544.011317 322.810192 
L 550.406769 321.02479 
L 559.059438 318.331053 
L 569.21692 315.171746 
L 578.245792 312.613899 
L 586.898462 310.407927 
L 597.055943 308.051548 
L 606.084816 306.171001 
L 613.985079 304.743639 
L 623.766358 303.230818 
L 633.547636 301.941528 
L 644.081321 300.783586 
L 652.73399 300.087449 
L 664.020081 299.443261 
L 684.335044 298.551406 
L 696.749744 298.185466 
L 734.746249 297.543878 
L 755.437415 297.372527 
L 758.44704 297.366384 
L 758.44704 297.366384 
" clip-path="url(#p2d4842e2f7)" style="fill: none; stroke: #c44e52; stroke-opacity: 0.9; stroke-width: 3; stroke-linecap: round"/>
   </g>
   <g id="line2d_59">
    <path d="M 484.195037 304.976258 
L 484.57124 355.799817 
L 484.947443 357.820529 
L 485.323646 357.958037 
L 486.076052 357.532174 
L 487.204661 356.818778 
L 489.838082 355.799178 
L 491.719097 351.423874 
L 492.847706 349.258899 
L 493.600112 347.942151 
L 493.976315 347.542159 
L 494.728721 347.246927 
L 495.85733 347.126689 
L 496.609736 347.460375 
L 498.114548 348.408813 
L 499.243158 348.845863 
L 499.995564 348.981327 
L 500.74797 348.938235 
L 503.757594 348.149469 
L 507.143421 347.119461 
L 511.281654 345.592729 
L 514.667481 344.113683 
L 518.429512 342.213042 
L 528.963196 336.696266 
L 542.130302 331.047242 
L 546.644738 328.686435 
L 551.911581 325.654604 
L 553.04019 325.115002 
L 554.168799 324.799598 
L 556.426017 324.552604 
L 559.059438 324.76937 
L 561.692859 325.088091 
L 569.21692 326.395837 
L 575.236168 327.15646 
L 578.621995 327.345627 
L 582.384025 327.320323 
L 587.274665 327.040587 
L 593.670116 326.390573 
L 598.936958 325.601585 
L 606.084816 324.566923 
L 610.975455 323.991962 
L 615.113688 323.458852 
L 620.380531 322.522659 
L 625.27117 321.460418 
L 629.0332 320.418013 
L 633.171433 319.042624 
L 638.062073 317.176321 
L 644.081321 314.632703 
L 657.248427 308.710938 
L 661.010457 307.116546 
L 664.772487 305.778681 
L 671.544142 303.419643 
L 678.315796 300.677173 
L 681.701623 299.391949 
L 685.463653 298.31665 
L 691.859105 296.719714 
L 704.273804 293.828063 
L 706.15482 293.601432 
L 707.283429 293.657898 
L 714.431286 294.422324 
L 718.193316 294.530033 
L 730.984219 294.849649 
L 737.755873 295.506209 
L 743.398919 296.310948 
L 749.418167 297.459467 
L 754.308806 298.594304 
L 758.44704 299.646683 
L 758.44704 299.646683 
" clip-path="url(#p2d4842e2f7)" style="fill: none; stroke: #8172b3; stroke-opacity: 0.9; stroke-width: 3; stroke-linecap: round"/>
   </g>
   <g id="line2d_60">
    <path d="M 484.195037 304.976258 
L 484.57124 345.75774 
L 484.947443 347.118725 
L 485.323646 347.223046 
L 486.452255 346.69896 
L 488.33327 345.782559 
L 489.838082 345.32573 
L 491.342894 342.632541 
L 492.471503 340.859835 
L 493.976315 338.965666 
L 494.728721 338.63397 
L 495.481127 338.500329 
L 496.233533 338.538074 
L 496.985939 338.821709 
L 498.866955 339.785039 
L 499.995564 340.074836 
L 501.124173 340.031575 
L 502.252782 339.677755 
L 503.381391 339.380792 
L 507.519624 338.295624 
L 510.905451 337.165959 
L 513.915075 335.94544 
L 518.053309 333.998688 
L 522.191542 331.793856 
L 527.458384 328.75052 
L 530.468008 327.15311 
L 535.734851 324.865906 
L 541.377896 322.386355 
L 547.020941 319.904545 
L 549.654362 319.196031 
L 553.416393 318.540249 
L 559.811844 317.470364 
L 574.107559 314.598715 
L 583.888837 313.063168 
L 588.027071 312.178434 
L 592.91771 310.869763 
L 599.689364 308.798669 
L 608.718237 305.827363 
L 618.875719 302.540909 
L 625.647373 300.672882 
L 636.557261 297.879917 
L 650.476772 294.650123 
L 655.743615 293.563079 
L 668.158314 291.321927 
L 673.80136 290.476414 
L 676.058578 290.289139 
L 677.56339 290.380414 
L 685.08745 291.219923 
L 693.363917 291.611365 
L 717.44091 292.592717 
L 735.874858 293.065255 
L 758.44704 293.571552 
L 758.44704 293.571552 
" clip-path="url(#p2d4842e2f7)" style="fill: none; stroke: #937860; stroke-opacity: 0.9; stroke-width: 3; stroke-linecap: round"/>
   </g>
   <g id="patch_15">
    <path d="M 470.482436 373.284 
L 470.482436 259.218083 
" style="fill: none; stroke: #ffffff; stroke-width: 1.25; stroke-linejoin: miter; stroke-linecap: square"/>
   </g>
   <g id="patch_16">
    <path d="M 470.482436 373.284 
L 772.15964 373.284 
" style="fill: none; stroke: #ffffff; stroke-width: 1.25; stroke-linejoin: miter; stroke-linecap: square"/>
   </g>
   <g id="text_21">
    <!-- 0.999~30 -->
    <g style="fill: #262626" transform="translate(558.657694 253.218083) scale(0.252 -0.252)">
     <defs>
      <path id="DejaVuSans-39" d="M 703 97 
L 703 672 
Q 941 559 1184 500 
Q 1428 441 1663 441 
Q 2288 441 2617 861 
Q 2947 1281 2994 2138 
Q 2813 1869 2534 1725 
Q 2256 1581 1919 1581 
Q 1219 1581 811 2004 
Q 403 2428 403 3163 
Q 403 3881 828 4315 
Q 1253 4750 1959 4750 
Q 2769 4750 3195 4129 
Q 3622 3509 3622 2328 
Q 3622 1225 3098 567 
Q 2575 -91 1691 -91 
Q 1453 -91 1209 -44 
Q 966 3 703 97 
z
M 1959 2075 
Q 2384 2075 2632 2365 
Q 2881 2656 2881 3163 
Q 2881 3666 2632 3958 
Q 2384 4250 1959 4250 
Q 1534 4250 1286 3958 
Q 1038 3666 1038 3163 
Q 1038 2656 1286 2365 
Q 1534 2075 1959 2075 
z
" transform="scale(0.015625)"/>
     </defs>
     <use xlink:href="#DejaVuSans-30"/>
     <use xlink:href="#DejaVuSans-2e" x="63.623047"/>
     <use xlink:href="#DejaVuSans-39" x="95.410156"/>
     <use xlink:href="#DejaVuSans-39" x="159.033203"/>
     <use xlink:href="#DejaVuSans-39" x="222.65625"/>
     <use xlink:href="#DejaVuSans-7e" x="286.279297"/>
     <use xlink:href="#DejaVuSans-33" x="370.068359"/>
     <use xlink:href="#DejaVuSans-30" x="433.691406"/>
    </g>
   </g>
  </g>
  <g id="axes_6">
   <g id="patch_17">
    <path d="M 798.93237 373.284 
L 1100.609573 373.284 
L 1100.609573 259.218083 
L 798.93237 259.218083 
z
" style="fill: #eaeaf2"/>
   </g>
   <g id="matplotlib.axis_11">
    <g id="xtick_21">
     <g id="line2d_61">
      <path d="M 812.64497 373.284 
L 812.64497 259.218083 
" clip-path="url(#p6914f6c556)" style="fill: none; stroke: #ffffff; stroke-linecap: round"/>
     </g>
     <g id="text_22">
      <!-- 0 -->
      <g style="fill: #262626" transform="translate(805.296283 400.336391) scale(0.231 -0.231)">
       <use xlink:href="#DejaVuSans-30"/>
      </g>
     </g>
    </g>
    <g id="xtick_22">
     <g id="line2d_62">
      <path d="M 906.695726 373.284 
L 906.695726 259.218083 
" clip-path="url(#p6914f6c556)" style="fill: none; stroke: #ffffff; stroke-linecap: round"/>
     </g>
     <g id="text_23">
      <!-- 250 -->
      <g style="fill: #262626" transform="translate(884.649663 400.336391) scale(0.231 -0.231)">
       <use xlink:href="#DejaVuSans-32"/>
       <use xlink:href="#DejaVuSans-35" x="63.623047"/>
       <use xlink:href="#DejaVuSans-30" x="127.246094"/>
      </g>
     </g>
    </g>
    <g id="xtick_23">
     <g id="line2d_63">
      <path d="M 1000.746481 373.284 
L 1000.746481 259.218083 
" clip-path="url(#p6914f6c556)" style="fill: none; stroke: #ffffff; stroke-linecap: round"/>
     </g>
     <g id="text_24">
      <!-- 500 -->
      <g style="fill: #262626" transform="translate(978.700419 400.336391) scale(0.231 -0.231)">
       <use xlink:href="#DejaVuSans-35"/>
       <use xlink:href="#DejaVuSans-30" x="63.623047"/>
       <use xlink:href="#DejaVuSans-30" x="127.246094"/>
      </g>
     </g>
    </g>
    <g id="xtick_24">
     <g id="line2d_64">
      <path d="M 1094.797237 373.284 
L 1094.797237 259.218083 
" clip-path="url(#p6914f6c556)" style="fill: none; stroke: #ffffff; stroke-linecap: round"/>
     </g>
     <g id="text_25">
      <!-- 750 -->
      <g style="fill: #262626" transform="translate(1072.751174 400.336391) scale(0.231 -0.231)">
       <use xlink:href="#DejaVuSans-37"/>
       <use xlink:href="#DejaVuSans-35" x="63.623047"/>
       <use xlink:href="#DejaVuSans-30" x="127.246094"/>
      </g>
     </g>
    </g>
    <g id="text_26">
     <!-- step -->
     <g style="fill: #262626" transform="translate(922.515597 428.288531) scale(0.252 -0.252)">
      <use xlink:href="#DejaVuSans-73"/>
      <use xlink:href="#DejaVuSans-74" x="52.099609"/>
      <use xlink:href="#DejaVuSans-65" x="91.308594"/>
      <use xlink:href="#DejaVuSans-70" x="152.832031"/>
     </g>
    </g>
   </g>
   <g id="matplotlib.axis_12">
    <g id="ytick_11">
     <g id="line2d_65">
      <path d="M 798.93237 370.73036 
L 1100.609573 370.73036 
" clip-path="url(#p6914f6c556)" style="fill: none; stroke: #ffffff; stroke-linecap: round"/>
     </g>
    </g>
    <g id="ytick_12">
     <g id="line2d_66">
      <path d="M 798.93237 304.976258 
L 1100.609573 304.976258 
" clip-path="url(#p6914f6c556)" style="fill: none; stroke: #ffffff; stroke-linecap: round"/>
     </g>
    </g>
   </g>
   <g id="PolyCollection_31"/>
   <g id="PolyCollection_32"/>
   <g id="PolyCollection_33"/>
   <g id="PolyCollection_34"/>
   <g id="PolyCollection_35"/>
   <g id="PolyCollection_36"/>
   <g id="line2d_67">
    <path d="M 812.64497 304.976258 
L 813.021173 357.913872 
L 813.397376 359.795419 
L 813.773579 360.29901 
L 814.525985 360.441662 
L 815.654594 360.469545 
L 818.288016 361.295083 
L 819.040422 360.006706 
L 819.416625 359.230028 
L 819.792828 358.738008 
L 820.169031 358.469305 
L 820.921437 358.362895 
L 822.426249 358.364217 
L 823.931061 360.241993 
L 824.683467 361.219174 
L 825.812076 363.077723 
L 827.316888 365.074917 
L 828.8217 366.512702 
L 829.950309 367.429424 
L 830.702715 367.808759 
L 831.455121 368.008519 
L 832.207527 368.032925 
L 832.959933 367.986129 
L 835.217152 368.070877 
L 838.979182 368.058543 
L 841.2364 367.929691 
L 843.493618 367.645581 
L 845.750836 367.140924 
L 848.384257 366.302489 
L 851.017679 365.223993 
L 854.027303 363.733648 
L 857.41313 361.774701 
L 860.798957 359.55854 
L 864.560987 356.825591 
L 868.699221 353.541076 
L 873.966063 349.071352 
L 889.390387 335.713438 
L 891.647605 334.24053 
L 893.904823 333.060232 
L 897.29065 331.812214 
L 907.071929 328.499803 
L 914.972192 326.057058 
L 922.12005 324.317081 
L 930.020313 322.627912 
L 937.544374 321.260603 
L 948.830464 319.531599 
L 976.293285 315.296659 
L 997.360654 311.81863 
L 1019.932835 307.849848 
L 1044.762235 303.486516 
L 1048.524265 303.067184 
L 1060.938965 302.202047 
L 1066.205807 302.264068 
L 1075.987086 302.519176 
L 1086.896973 302.637636 
L 1086.896973 302.637636 
" clip-path="url(#p6914f6c556)" style="fill: none; stroke: #4c72b0; stroke-opacity: 0.9; stroke-width: 3; stroke-linecap: round"/>
   </g>
   <g id="line2d_68">
    <path d="M 812.64497 304.976258 
L 813.021173 333.848731 
L 813.397376 335.082017 
L 813.773579 335.509175 
L 814.525985 335.708609 
L 818.288016 335.827847 
L 819.040422 335.106795 
L 821.29764 332.548252 
L 822.050046 332.334705 
L 823.554858 332.188628 
L 825.435873 333.101289 
L 826.188279 333.623196 
L 827.693091 334.645714 
L 828.8217 335.198398 
L 831.078918 335.925566 
L 832.207527 336.02776 
L 833.336137 335.926301 
L 836.345761 335.408326 
L 843.869821 334.375043 
L 847.255648 333.637583 
L 850.641476 332.68315 
L 854.403506 331.391342 
L 858.541739 329.738893 
L 863.056175 327.710363 
L 868.699221 324.913984 
L 875.847078 321.0919 
L 883.747341 316.92053 
L 889.390387 314.157827 
L 892.023808 312.999424 
L 893.52862 312.571899 
L 897.29065 312.039042 
L 919.110426 309.278828 
L 932.653734 307.91023 
L 941.306404 307.419346 
L 965.007194 306.554245 
L 975.164676 306.284823 
L 1008.270542 305.264998 
L 1049.276671 304.169115 
L 1078.244304 303.432931 
L 1086.896973 303.555481 
L 1086.896973 303.555481 
" clip-path="url(#p6914f6c556)" style="fill: none; stroke: #dd8452; stroke-opacity: 0.9; stroke-width: 3; stroke-linecap: round"/>
   </g>
   <g id="line2d_69">
    <path d="M 812.64497 304.976258 
L 813.021173 360.451053 
L 813.397376 363.47725 
L 813.773579 364.247828 
L 814.149782 364.454779 
L 815.278391 364.484595 
L 816.407001 364.525754 
L 817.53561 364.76648 
L 818.288016 365.00172 
L 819.040422 363.540956 
L 823.931061 352.919711 
L 825.812076 349.201378 
L 826.940685 347.416952 
L 828.069294 345.995399 
L 829.197903 344.931415 
L 830.326512 344.295965 
L 833.336137 342.775298 
L 835.217152 342.110491 
L 835.969558 341.924813 
L 839.731588 341.899638 
L 841.988806 341.923803 
L 844.99843 341.671705 
L 848.76046 341.119249 
L 852.898694 340.260185 
L 857.41313 339.090944 
L 861.927566 337.703151 
L 866.818205 335.959421 
L 872.461251 333.69738 
L 880.737717 330.112201 
L 901.05268 321.16223 
L 908.576741 318.111594 
L 913.46738 316.354125 
L 919.110426 314.609253 
L 925.505877 312.887058 
L 933.029937 311.085492 
L 941.306404 309.316432 
L 949.206667 307.838863 
L 957.106931 306.586284 
L 964.630991 305.621113 
L 971.778849 304.939932 
L 977.798097 304.579088 
L 986.074563 304.318101 
L 995.103436 304.230794 
L 1086.896973 304.150061 
L 1086.896973 304.150061 
" clip-path="url(#p6914f6c556)" style="fill: none; stroke: #55a868; stroke-opacity: 0.9; stroke-width: 3; stroke-linecap: round"/>
   </g>
   <g id="line2d_70">
    <path d="M 812.64497 304.976258 
L 813.021173 348.574849 
L 813.397376 351.001095 
L 813.773579 351.60714 
L 814.149782 351.76656 
L 815.654594 351.80041 
L 817.911813 351.925336 
L 818.288016 351.977228 
L 819.040422 350.781663 
L 822.802452 344.150194 
L 825.435873 339.996525 
L 826.940685 338.087859 
L 828.069294 337.001409 
L 829.197903 336.283852 
L 830.326512 335.825581 
L 832.207527 335.180781 
L 833.336137 334.908347 
L 836.721964 334.291365 
L 845.750836 333.668259 
L 851.393882 332.858086 
L 856.284521 331.952069 
L 861.551363 330.748053 
L 867.570611 329.13122 
L 873.966063 327.158713 
L 882.242529 324.344687 
L 906.319523 315.928191 
L 913.843583 313.619871 
L 919.862832 312.010685 
L 927.010689 310.362865 
L 933.782343 309.038844 
L 942.05881 307.646218 
L 949.959073 306.521587 
L 957.859337 305.624747 
L 966.135803 304.942066 
L 974.41227 304.475497 
L 983.441142 304.179886 
L 995.479639 304.028004 
L 1002.251293 304.126789 
L 1010.903963 304.325132 
L 1034.22855 304.329148 
L 1086.896973 304.329043 
L 1086.896973 304.329043 
" clip-path="url(#p6914f6c556)" style="fill: none; stroke: #c44e52; stroke-opacity: 0.9; stroke-width: 3; stroke-linecap: round"/>
   </g>
   <g id="line2d_71">
    <path d="M 812.64497 304.976258 
L 813.021173 355.799817 
L 813.397376 358.047949 
L 813.773579 358.428095 
L 814.525985 358.489474 
L 815.654594 358.504963 
L 818.288016 359.155297 
L 819.792828 356.59718 
L 820.921437 354.995023 
L 822.426249 353.396009 
L 822.802452 353.108941 
L 823.554858 353.423936 
L 824.683467 354.07485 
L 825.435873 355.013985 
L 826.564482 356.534187 
L 828.069294 358.112583 
L 829.574106 359.313055 
L 830.702715 359.831273 
L 831.455121 359.976221 
L 832.58373 360.131204 
L 833.336137 360.174886 
L 834.464746 359.981828 
L 838.226776 359.147377 
L 840.860197 358.348509 
L 843.493618 357.331262 
L 847.631851 355.457541 
L 851.017679 353.682562 
L 854.779709 351.463227 
L 860.422754 347.83994 
L 866.442002 343.945992 
L 869.82783 342.029864 
L 873.966063 340.009713 
L 878.856702 337.7977 
L 889.76659 333.331018 
L 893.152417 332.31266 
L 896.538244 331.638949 
L 899.171665 331.438281 
L 901.428883 331.396672 
L 919.486629 332.277537 
L 930.396516 332.596492 
L 942.811216 332.729121 
L 953.344901 332.625352 
L 963.878585 332.315067 
L 973.283661 331.840565 
L 983.441142 331.096392 
L 993.598624 330.123013 
L 1004.508511 328.85526 
L 1016.547008 327.222335 
L 1029.337911 325.233068 
L 1045.514641 322.487519 
L 1062.067574 319.446678 
L 1080.501522 315.841703 
L 1086.896973 314.542765 
L 1086.896973 314.542765 
" clip-path="url(#p6914f6c556)" style="fill: none; stroke: #8172b3; stroke-opacity: 0.9; stroke-width: 3; stroke-linecap: round"/>
   </g>
   <g id="line2d_72">
    <path d="M 812.64497 304.976258 
L 813.021173 345.75774 
L 813.397376 347.293172 
L 813.773579 347.583107 
L 814.525985 347.629966 
L 816.783204 347.61777 
L 818.288016 347.886204 
L 819.416625 346.410612 
L 820.921437 344.768679 
L 822.426249 343.63587 
L 822.802452 343.484976 
L 823.178655 343.472936 
L 824.683467 344.09306 
L 825.435873 344.80783 
L 826.564482 346.088905 
L 828.445497 347.746841 
L 829.574106 348.550131 
L 830.702715 349.04012 
L 831.831324 349.240504 
L 833.71234 349.250735 
L 841.2364 347.620543 
L 844.246024 346.597101 
L 848.008054 345.061156 
L 851.393882 343.457143 
L 855.155912 341.425966 
L 859.670348 338.70722 
L 864.93719 335.259973 
L 872.085048 330.562022 
L 875.094672 328.993953 
L 878.856702 327.351218 
L 881.490123 326.389806 
L 884.499747 325.561116 
L 887.509372 325.083728 
L 892.400011 324.718402 
L 906.319523 323.698658 
L 916.477004 322.669976 
L 928.891704 321.179388 
L 947.325652 318.702512 
L 984.569751 313.622248 
L 1003.379902 311.311731 
L 1027.080693 308.191479 
L 1051.910092 304.69462 
L 1062.443777 303.257973 
L 1066.958213 302.803204 
L 1069.967837 302.700501 
L 1073.353664 302.798844 
L 1080.501522 303.127156 
L 1086.896973 303.237381 
L 1086.896973 303.237381 
" clip-path="url(#p6914f6c556)" style="fill: none; stroke: #937860; stroke-opacity: 0.9; stroke-width: 3; stroke-linecap: round"/>
   </g>
   <g id="patch_18">
    <path d="M 798.93237 373.284 
L 798.93237 259.218083 
" style="fill: none; stroke: #ffffff; stroke-width: 1.25; stroke-linejoin: miter; stroke-linecap: square"/>
   </g>
   <g id="patch_19">
    <path d="M 798.93237 373.284 
L 1100.609573 373.284 
" style="fill: none; stroke: #ffffff; stroke-width: 1.25; stroke-linejoin: miter; stroke-linecap: square"/>
   </g>
   <g id="text_27">
    <!-- 0.999~365 -->
    <g style="fill: #262626" transform="translate(879.090878 253.218083) scale(0.252 -0.252)">
     <use xlink:href="#DejaVuSans-30"/>
     <use xlink:href="#DejaVuSans-2e" x="63.623047"/>
     <use xlink:href="#DejaVuSans-39" x="95.410156"/>
     <use xlink:href="#DejaVuSans-39" x="159.033203"/>
     <use xlink:href="#DejaVuSans-39" x="222.65625"/>
     <use xlink:href="#DejaVuSans-7e" x="286.279297"/>
     <use xlink:href="#DejaVuSans-33" x="370.068359"/>
     <use xlink:href="#DejaVuSans-36" x="433.691406"/>
     <use xlink:href="#DejaVuSans-35" x="497.314453"/>
    </g>
   </g>
  </g>
  <g id="text_28">
   <!-- Production change from pre-shock level -->
   <g style="fill: #262626" transform="translate(280.766836 30.177675) scale(0.3024 -0.3024)">
    <defs>
     <path id="DejaVuSans-50" d="M 1259 4147 
L 1259 2394 
L 2053 2394 
Q 2494 2394 2734 2622 
Q 2975 2850 2975 3272 
Q 2975 3691 2734 3919 
Q 2494 4147 2053 4147 
L 1259 4147 
z
M 628 4666 
L 2053 4666 
Q 2838 4666 3239 4311 
Q 3641 3956 3641 3272 
Q 3641 2581 3239 2228 
Q 2838 1875 2053 1875 
L 1259 1875 
L 1259 0 
L 628 0 
L 628 4666 
z
" transform="scale(0.015625)"/>
     <path id="DejaVuSans-72" d="M 2631 2963 
Q 2534 3019 2420 3045 
Q 2306 3072 2169 3072 
Q 1681 3072 1420 2755 
Q 1159 2438 1159 1844 
L 1159 0 
L 581 0 
L 581 3500 
L 1159 3500 
L 1159 2956 
Q 1341 3275 1631 3429 
Q 1922 3584 2338 3584 
Q 2397 3584 2469 3576 
Q 2541 3569 2628 3553 
L 2631 2963 
z
" transform="scale(0.015625)"/>
     <path id="DejaVuSans-6f" d="M 1959 3097 
Q 1497 3097 1228 2736 
Q 959 2375 959 1747 
Q 959 1119 1226 758 
Q 1494 397 1959 397 
Q 2419 397 2687 759 
Q 2956 1122 2956 1747 
Q 2956 2369 2687 2733 
Q 2419 3097 1959 3097 
z
M 1959 3584 
Q 2709 3584 3137 3096 
Q 3566 2609 3566 1747 
Q 3566 888 3137 398 
Q 2709 -91 1959 -91 
Q 1206 -91 779 398 
Q 353 888 353 1747 
Q 353 2609 779 3096 
Q 1206 3584 1959 3584 
z
" transform="scale(0.015625)"/>
     <path id="DejaVuSans-64" d="M 2906 2969 
L 2906 4863 
L 3481 4863 
L 3481 0 
L 2906 0 
L 2906 525 
Q 2725 213 2448 61 
Q 2172 -91 1784 -91 
Q 1150 -91 751 415 
Q 353 922 353 1747 
Q 353 2572 751 3078 
Q 1150 3584 1784 3584 
Q 2172 3584 2448 3432 
Q 2725 3281 2906 2969 
z
M 947 1747 
Q 947 1113 1208 752 
Q 1469 391 1925 391 
Q 2381 391 2643 752 
Q 2906 1113 2906 1747 
Q 2906 2381 2643 2742 
Q 2381 3103 1925 3103 
Q 1469 3103 1208 2742 
Q 947 2381 947 1747 
z
" transform="scale(0.015625)"/>
     <path id="DejaVuSans-75" d="M 544 1381 
L 544 3500 
L 1119 3500 
L 1119 1403 
Q 1119 906 1312 657 
Q 1506 409 1894 409 
Q 2359 409 2629 706 
Q 2900 1003 2900 1516 
L 2900 3500 
L 3475 3500 
L 3475 0 
L 2900 0 
L 2900 538 
Q 2691 219 2414 64 
Q 2138 -91 1772 -91 
Q 1169 -91 856 284 
Q 544 659 544 1381 
z
M 1991 3584 
L 1991 3584 
z
" transform="scale(0.015625)"/>
     <path id="DejaVuSans-69" d="M 603 3500 
L 1178 3500 
L 1178 0 
L 603 0 
L 603 3500 
z
M 603 4863 
L 1178 4863 
L 1178 4134 
L 603 4134 
L 603 4863 
z
" transform="scale(0.015625)"/>
     <path id="DejaVuSans-66" d="M 2375 4863 
L 2375 4384 
L 1825 4384 
Q 1516 4384 1395 4259 
Q 1275 4134 1275 3809 
L 1275 3500 
L 2222 3500 
L 2222 3053 
L 1275 3053 
L 1275 0 
L 697 0 
L 697 3053 
L 147 3053 
L 147 3500 
L 697 3500 
L 697 3744 
Q 697 4328 969 4595 
Q 1241 4863 1831 4863 
L 2375 4863 
z
" transform="scale(0.015625)"/>
     <path id="DejaVuSans-6d" d="M 3328 2828 
Q 3544 3216 3844 3400 
Q 4144 3584 4550 3584 
Q 5097 3584 5394 3201 
Q 5691 2819 5691 2113 
L 5691 0 
L 5113 0 
L 5113 2094 
Q 5113 2597 4934 2840 
Q 4756 3084 4391 3084 
Q 3944 3084 3684 2787 
Q 3425 2491 3425 1978 
L 3425 0 
L 2847 0 
L 2847 2094 
Q 2847 2600 2669 2842 
Q 2491 3084 2119 3084 
Q 1678 3084 1418 2786 
Q 1159 2488 1159 1978 
L 1159 0 
L 581 0 
L 581 3500 
L 1159 3500 
L 1159 2956 
Q 1356 3278 1631 3431 
Q 1906 3584 2284 3584 
Q 2666 3584 2933 3390 
Q 3200 3197 3328 2828 
z
" transform="scale(0.015625)"/>
     <path id="DejaVuSans-2d" d="M 313 2009 
L 1997 2009 
L 1997 1497 
L 313 1497 
L 313 2009 
z
" transform="scale(0.015625)"/>
     <path id="DejaVuSans-6b" d="M 581 4863 
L 1159 4863 
L 1159 1991 
L 2875 3500 
L 3609 3500 
L 1753 1863 
L 3688 0 
L 2938 0 
L 1159 1709 
L 1159 0 
L 581 0 
L 581 4863 
z
" transform="scale(0.015625)"/>
     <path id="DejaVuSans-6c" d="M 603 4863 
L 1178 4863 
L 1178 0 
L 603 0 
L 603 4863 
z
" transform="scale(0.015625)"/>
     <path id="DejaVuSans-76" d="M 191 3500 
L 800 3500 
L 1894 563 
L 2988 3500 
L 3597 3500 
L 2284 0 
L 1503 0 
L 191 3500 
z
" transform="scale(0.015625)"/>
    </defs>
    <use xlink:href="#DejaVuSans-50"/>
    <use xlink:href="#DejaVuSans-72" x="58.552734"/>
    <use xlink:href="#DejaVuSans-6f" x="97.416016"/>
    <use xlink:href="#DejaVuSans-64" x="158.597656"/>
    <use xlink:href="#DejaVuSans-75" x="222.074219"/>
    <use xlink:href="#DejaVuSans-63" x="285.453125"/>
    <use xlink:href="#DejaVuSans-74" x="340.433594"/>
    <use xlink:href="#DejaVuSans-69" x="379.642578"/>
    <use xlink:href="#DejaVuSans-6f" x="407.425781"/>
    <use xlink:href="#DejaVuSans-6e" x="468.607422"/>
    <use xlink:href="#DejaVuSans-20" x="531.986328"/>
    <use xlink:href="#DejaVuSans-63" x="563.773438"/>
    <use xlink:href="#DejaVuSans-68" x="618.753906"/>
    <use xlink:href="#DejaVuSans-61" x="682.132812"/>
    <use xlink:href="#DejaVuSans-6e" x="743.412109"/>
    <use xlink:href="#DejaVuSans-67" x="806.791016"/>
    <use xlink:href="#DejaVuSans-65" x="870.267578"/>
    <use xlink:href="#DejaVuSans-20" x="931.791016"/>
    <use xlink:href="#DejaVuSans-66" x="963.578125"/>
    <use xlink:href="#DejaVuSans-72" x="998.783203"/>
    <use xlink:href="#DejaVuSans-6f" x="1037.646484"/>
    <use xlink:href="#DejaVuSans-6d" x="1098.828125"/>
    <use xlink:href="#DejaVuSans-20" x="1196.240234"/>
    <use xlink:href="#DejaVuSans-70" x="1228.027344"/>
    <use xlink:href="#DejaVuSans-72" x="1291.503906"/>
    <use xlink:href="#DejaVuSans-65" x="1330.367188"/>
    <use xlink:href="#DejaVuSans-2d" x="1391.890625"/>
    <use xlink:href="#DejaVuSans-73" x="1427.974609"/>
    <use xlink:href="#DejaVuSans-68" x="1480.074219"/>
    <use xlink:href="#DejaVuSans-6f" x="1543.453125"/>
    <use xlink:href="#DejaVuSans-63" x="1604.634766"/>
    <use xlink:href="#DejaVuSans-6b" x="1659.615234"/>
    <use xlink:href="#DejaVuSans-20" x="1717.525391"/>
    <use xlink:href="#DejaVuSans-6c" x="1749.3125"/>
    <use xlink:href="#DejaVuSans-65" x="1777.095703"/>
    <use xlink:href="#DejaVuSans-76" x="1838.619141"/>
    <use xlink:href="#DejaVuSans-65" x="1897.798828"/>
    <use xlink:href="#DejaVuSans-6c" x="1959.322266"/>
   </g>
  </g>
  <g id="legend_1">
   <g id="patch_20">
    <path d="M 11.82 584.31675 
L 1292.617547 584.31675 
Q 1297.237547 584.31675 1297.237547 579.69675 
L 1297.237547 476.97 
Q 1297.237547 472.35 1292.617547 472.35 
L 11.82 472.35 
Q 7.2 472.35 7.2 476.97 
L 7.2 579.69675 
Q 7.2 584.31675 11.82 584.31675 
z
" style="fill: #eaeaf2; opacity: 0.8; stroke: #cccccc; stroke-linejoin: miter"/>
   </g>
   <g id="text_29">
    <!-- Experiences -->
    <g style="fill: #262626" transform="translate(575.384367 500.738062) scale(0.252 -0.252)">
     <defs>
      <path id="DejaVuSans-45" d="M 628 4666 
L 3578 4666 
L 3578 4134 
L 1259 4134 
L 1259 2753 
L 3481 2753 
L 3481 2222 
L 1259 2222 
L 1259 531 
L 3634 531 
L 3634 0 
L 628 0 
L 628 4666 
z
" transform="scale(0.015625)"/>
      <path id="DejaVuSans-78" d="M 3513 3500 
L 2247 1797 
L 3578 0 
L 2900 0 
L 1881 1375 
L 863 0 
L 184 0 
L 1544 1831 
L 300 3500 
L 978 3500 
L 1906 2253 
L 2834 3500 
L 3513 3500 
z
" transform="scale(0.015625)"/>
     </defs>
     <use xlink:href="#DejaVuSans-45"/>
     <use xlink:href="#DejaVuSans-78" x="63.183594"/>
     <use xlink:href="#DejaVuSans-70" x="122.363281"/>
     <use xlink:href="#DejaVuSans-65" x="185.839844"/>
     <use xlink:href="#DejaVuSans-72" x="247.363281"/>
     <use xlink:href="#DejaVuSans-69" x="288.476562"/>
     <use xlink:href="#DejaVuSans-65" x="316.259766"/>
     <use xlink:href="#DejaVuSans-6e" x="377.783203"/>
     <use xlink:href="#DejaVuSans-63" x="441.162109"/>
     <use xlink:href="#DejaVuSans-65" x="496.142578"/>
     <use xlink:href="#DejaVuSans-73" x="557.666016"/>
    </g>
   </g>
   <g id="line2d_73">
    <path d="M 16.44 526.996266 
L 39.54 526.996266 
L 62.64 526.996266 
" style="fill: none; stroke: #4c72b0; stroke-opacity: 0.9; stroke-width: 3; stroke-linecap: round"/>
   </g>
   <g id="text_30">
    <!-- eora26_full_2000 -->
    <g style="fill: #262626" transform="translate(81.12 535.081266) scale(0.231 -0.231)">
     <defs>
      <path id="DejaVuSans-5f" d="M 3263 -1063 
L 3263 -1509 
L -63 -1509 
L -63 -1063 
L 3263 -1063 
z
" transform="scale(0.015625)"/>
     </defs>
     <use xlink:href="#DejaVuSans-65"/>
     <use xlink:href="#DejaVuSans-6f" x="61.523438"/>
     <use xlink:href="#DejaVuSans-72" x="122.705078"/>
     <use xlink:href="#DejaVuSans-61" x="163.818359"/>
     <use xlink:href="#DejaVuSans-32" x="225.097656"/>
     <use xlink:href="#DejaVuSans-36" x="288.720703"/>
     <use xlink:href="#DejaVuSans-5f" x="352.34375"/>
     <use xlink:href="#DejaVuSans-66" x="402.34375"/>
     <use xlink:href="#DejaVuSans-75" x="437.548828"/>
     <use xlink:href="#DejaVuSans-6c" x="500.927734"/>
     <use xlink:href="#DejaVuSans-6c" x="528.710938"/>
     <use xlink:href="#DejaVuSans-5f" x="556.494141"/>
     <use xlink:href="#DejaVuSans-32" x="606.494141"/>
     <use xlink:href="#DejaVuSans-30" x="670.117188"/>
     <use xlink:href="#DejaVuSans-30" x="733.740234"/>
     <use xlink:href="#DejaVuSans-30" x="797.363281"/>
    </g>
   </g>
   <g id="line2d_74">
    <path d="M 16.44 561.545203 
L 39.54 561.545203 
L 62.64 561.545203 
" style="fill: none; stroke: #dd8452; stroke-opacity: 0.9; stroke-width: 3; stroke-linecap: round"/>
   </g>
   <g id="text_31">
    <!-- eora26_full_2010 -->
    <g style="fill: #262626" transform="translate(81.12 569.630203) scale(0.231 -0.231)">
     <use xlink:href="#DejaVuSans-65"/>
     <use xlink:href="#DejaVuSans-6f" x="61.523438"/>
     <use xlink:href="#DejaVuSans-72" x="122.705078"/>
     <use xlink:href="#DejaVuSans-61" x="163.818359"/>
     <use xlink:href="#DejaVuSans-32" x="225.097656"/>
     <use xlink:href="#DejaVuSans-36" x="288.720703"/>
     <use xlink:href="#DejaVuSans-5f" x="352.34375"/>
     <use xlink:href="#DejaVuSans-66" x="402.34375"/>
     <use xlink:href="#DejaVuSans-75" x="437.548828"/>
     <use xlink:href="#DejaVuSans-6c" x="500.927734"/>
     <use xlink:href="#DejaVuSans-6c" x="528.710938"/>
     <use xlink:href="#DejaVuSans-5f" x="556.494141"/>
     <use xlink:href="#DejaVuSans-32" x="606.494141"/>
     <use xlink:href="#DejaVuSans-30" x="670.117188"/>
     <use xlink:href="#DejaVuSans-31" x="733.740234"/>
     <use xlink:href="#DejaVuSans-30" x="797.363281"/>
    </g>
   </g>
   <g id="line2d_75">
    <path d="M 326.211 526.996266 
L 349.311 526.996266 
L 372.411 526.996266 
" style="fill: none; stroke: #55a868; stroke-opacity: 0.9; stroke-width: 3; stroke-linecap: round"/>
   </g>
   <g id="text_32">
    <!-- euregio_full_2000 -->
    <g style="fill: #262626" transform="translate(390.891 535.081266) scale(0.231 -0.231)">
     <use xlink:href="#DejaVuSans-65"/>
     <use xlink:href="#DejaVuSans-75" x="61.523438"/>
     <use xlink:href="#DejaVuSans-72" x="124.902344"/>
     <use xlink:href="#DejaVuSans-65" x="163.765625"/>
     <use xlink:href="#DejaVuSans-67" x="225.289062"/>
     <use xlink:href="#DejaVuSans-69" x="288.765625"/>
     <use xlink:href="#DejaVuSans-6f" x="316.548828"/>
     <use xlink:href="#DejaVuSans-5f" x="377.730469"/>
     <use xlink:href="#DejaVuSans-66" x="427.730469"/>
     <use xlink:href="#DejaVuSans-75" x="462.935547"/>
     <use xlink:href="#DejaVuSans-6c" x="526.314453"/>
     <use xlink:href="#DejaVuSans-6c" x="554.097656"/>
     <use xlink:href="#DejaVuSans-5f" x="581.880859"/>
     <use xlink:href="#DejaVuSans-32" x="631.880859"/>
     <use xlink:href="#DejaVuSans-30" x="695.503906"/>
     <use xlink:href="#DejaVuSans-30" x="759.126953"/>
     <use xlink:href="#DejaVuSans-30" x="822.75"/>
    </g>
   </g>
   <g id="line2d_76">
    <path d="M 326.211 561.545203 
L 349.311 561.545203 
L 372.411 561.545203 
" style="fill: none; stroke: #c44e52; stroke-opacity: 0.9; stroke-width: 3; stroke-linecap: round"/>
   </g>
   <g id="text_33">
    <!-- euregio_full_2010 -->
    <g style="fill: #262626" transform="translate(390.891 569.630203) scale(0.231 -0.231)">
     <use xlink:href="#DejaVuSans-65"/>
     <use xlink:href="#DejaVuSans-75" x="61.523438"/>
     <use xlink:href="#DejaVuSans-72" x="124.902344"/>
     <use xlink:href="#DejaVuSans-65" x="163.765625"/>
     <use xlink:href="#DejaVuSans-67" x="225.289062"/>
     <use xlink:href="#DejaVuSans-69" x="288.765625"/>
     <use xlink:href="#DejaVuSans-6f" x="316.548828"/>
     <use xlink:href="#DejaVuSans-5f" x="377.730469"/>
     <use xlink:href="#DejaVuSans-66" x="427.730469"/>
     <use xlink:href="#DejaVuSans-75" x="462.935547"/>
     <use xlink:href="#DejaVuSans-6c" x="526.314453"/>
     <use xlink:href="#DejaVuSans-6c" x="554.097656"/>
     <use xlink:href="#DejaVuSans-5f" x="581.880859"/>
     <use xlink:href="#DejaVuSans-32" x="631.880859"/>
     <use xlink:href="#DejaVuSans-30" x="695.503906"/>
     <use xlink:href="#DejaVuSans-31" x="759.126953"/>
     <use xlink:href="#DejaVuSans-30" x="822.75"/>
    </g>
   </g>
   <g id="line2d_77">
    <path d="M 641.847234 526.996266 
L 664.947234 526.996266 
L 688.047234 526.996266 
" style="fill: none; stroke: #8172b3; stroke-opacity: 0.9; stroke-width: 3; stroke-linecap: round"/>
   </g>
   <g id="text_34">
    <!-- exiobase3_full_2000 -->
    <g style="fill: #262626" transform="translate(706.527234 535.081266) scale(0.231 -0.231)">
     <defs>
      <path id="DejaVuSans-62" d="M 3116 1747 
Q 3116 2381 2855 2742 
Q 2594 3103 2138 3103 
Q 1681 3103 1420 2742 
Q 1159 2381 1159 1747 
Q 1159 1113 1420 752 
Q 1681 391 2138 391 
Q 2594 391 2855 752 
Q 3116 1113 3116 1747 
z
M 1159 2969 
Q 1341 3281 1617 3432 
Q 1894 3584 2278 3584 
Q 2916 3584 3314 3078 
Q 3713 2572 3713 1747 
Q 3713 922 3314 415 
Q 2916 -91 2278 -91 
Q 1894 -91 1617 61 
Q 1341 213 1159 525 
L 1159 0 
L 581 0 
L 581 4863 
L 1159 4863 
L 1159 2969 
z
" transform="scale(0.015625)"/>
     </defs>
     <use xlink:href="#DejaVuSans-65"/>
     <use xlink:href="#DejaVuSans-78" x="59.773438"/>
     <use xlink:href="#DejaVuSans-69" x="118.953125"/>
     <use xlink:href="#DejaVuSans-6f" x="146.736328"/>
     <use xlink:href="#DejaVuSans-62" x="207.917969"/>
     <use xlink:href="#DejaVuSans-61" x="271.394531"/>
     <use xlink:href="#DejaVuSans-73" x="332.673828"/>
     <use xlink:href="#DejaVuSans-65" x="384.773438"/>
     <use xlink:href="#DejaVuSans-33" x="446.296875"/>
     <use xlink:href="#DejaVuSans-5f" x="509.919922"/>
     <use xlink:href="#DejaVuSans-66" x="559.919922"/>
     <use xlink:href="#DejaVuSans-75" x="595.125"/>
     <use xlink:href="#DejaVuSans-6c" x="658.503906"/>
     <use xlink:href="#DejaVuSans-6c" x="686.287109"/>
     <use xlink:href="#DejaVuSans-5f" x="714.070312"/>
     <use xlink:href="#DejaVuSans-32" x="764.070312"/>
     <use xlink:href="#DejaVuSans-30" x="827.693359"/>
     <use xlink:href="#DejaVuSans-30" x="891.316406"/>
     <use xlink:href="#DejaVuSans-30" x="954.939453"/>
    </g>
   </g>
   <g id="line2d_78">
    <path d="M 988.022391 526.996266 
L 1011.122391 526.996266 
L 1034.222391 526.996266 
" style="fill: none; stroke: #937860; stroke-opacity: 0.9; stroke-width: 3; stroke-linecap: round"/>
   </g>
   <g id="text_35">
    <!-- exiobase3_full_2010 -->
    <g style="fill: #262626" transform="translate(1052.702391 535.081266) scale(0.231 -0.231)">
     <use xlink:href="#DejaVuSans-65"/>
     <use xlink:href="#DejaVuSans-78" x="59.773438"/>
     <use xlink:href="#DejaVuSans-69" x="118.953125"/>
     <use xlink:href="#DejaVuSans-6f" x="146.736328"/>
     <use xlink:href="#DejaVuSans-62" x="207.917969"/>
     <use xlink:href="#DejaVuSans-61" x="271.394531"/>
     <use xlink:href="#DejaVuSans-73" x="332.673828"/>
     <use xlink:href="#DejaVuSans-65" x="384.773438"/>
     <use xlink:href="#DejaVuSans-33" x="446.296875"/>
     <use xlink:href="#DejaVuSans-5f" x="509.919922"/>
     <use xlink:href="#DejaVuSans-66" x="559.919922"/>
     <use xlink:href="#DejaVuSans-75" x="595.125"/>
     <use xlink:href="#DejaVuSans-6c" x="658.503906"/>
     <use xlink:href="#DejaVuSans-6c" x="686.287109"/>
     <use xlink:href="#DejaVuSans-5f" x="714.070312"/>
     <use xlink:href="#DejaVuSans-32" x="764.070312"/>
     <use xlink:href="#DejaVuSans-30" x="827.693359"/>
     <use xlink:href="#DejaVuSans-31" x="891.316406"/>
     <use xlink:href="#DejaVuSans-30" x="954.939453"/>
    </g>
   </g>
  </g>
 </g>
 <defs>
  <clipPath id="pfdbe208d45">
   <rect x="142.032503" y="81.456" width="301.677203" height="114.065917"/>
  </clipPath>
  <clipPath id="pbed697aafd">
   <rect x="470.482436" y="81.456" width="301.677203" height="114.065917"/>
  </clipPath>
  <clipPath id="p9067437104">
   <rect x="798.93237" y="81.456" width="301.677203" height="114.065917"/>
  </clipPath>
  <clipPath id="pc66dbd5bb0">
   <rect x="142.032503" y="259.218083" width="301.677203" height="114.065917"/>
  </clipPath>
  <clipPath id="p2d4842e2f7">
   <rect x="470.482436" y="259.218083" width="301.677203" height="114.065917"/>
  </clipPath>
  <clipPath id="p6914f6c556">
   <rect x="798.93237" y="259.218083" width="301.677203" height="114.065917"/>
  </clipPath>
 </defs>
</svg>
