<?xml version="1.0" encoding="utf-8" standalone="no"?>
<!DOCTYPE svg PUBLIC "-//W3C//DTD SVG 1.1//EN"
  "http://www.w3.org/Graphics/SVG/1.1/DTD/svg11.dtd">
<svg xmlns:xlink="http://www.w3.org/1999/xlink" width="1304.437547pt" height="591.51675pt" viewBox="0 0 1304.437547 591.51675" xmlns="http://www.w3.org/2000/svg" version="1.1">
 <metadata>
  <rdf:RDF xmlns:dc="http://purl.org/dc/elements/1.1/" xmlns:cc="http://creativecommons.org/ns#" xmlns:rdf="http://www.w3.org/1999/02/22-rdf-syntax-ns#">
   <cc:Work>
    <dc:type rdf:resource="http://purl.org/dc/dcmitype/StillImage"/>
    <dc:date>2023-04-25T16:28:42.162800</dc:date>
    <dc:format>image/svg+xml</dc:format>
    <dc:creator>
     <cc:Agent>
      <dc:title>Matplotlib v3.7.1, https://matplotlib.org/</dc:title>
     </cc:Agent>
    </dc:creator>
   </cc:Work>
  </rdf:RDF>
 </metadata>
 <defs>
  <style type="text/css">*{stroke-linejoin: round; stroke-linecap: butt}</style>
 </defs>
 <g id="figure_1">
  <g id="patch_1">
   <path d="M 0 591.51675 
L 1304.437547 591.51675 
L 1304.437547 -0 
L 0 -0 
z
" style="fill: #ffffff"/>
  </g>
  <g id="axes_1">
   <g id="patch_2">
    <path d="M 170.340091 201.042 
L 462.70916 201.042 
L 462.70916 81.456 
L 170.340091 81.456 
z
" style="fill: #eaeaf2"/>
   </g>
   <g id="matplotlib.axis_1">
    <g id="xtick_1">
     <g id="line2d_1">
      <path d="M 183.629594 201.042 
L 183.629594 81.456 
" clip-path="url(#p9add2f8e98)" style="fill: none; stroke: #ffffff; stroke-linecap: round"/>
     </g>
    </g>
    <g id="xtick_2">
     <g id="line2d_2">
      <path d="M 274.77845 201.042 
L 274.77845 81.456 
" clip-path="url(#p9add2f8e98)" style="fill: none; stroke: #ffffff; stroke-linecap: round"/>
     </g>
    </g>
    <g id="xtick_3">
     <g id="line2d_3">
      <path d="M 365.927305 201.042 
L 365.927305 81.456 
" clip-path="url(#p9add2f8e98)" style="fill: none; stroke: #ffffff; stroke-linecap: round"/>
     </g>
    </g>
    <g id="xtick_4">
     <g id="line2d_4">
      <path d="M 457.076161 201.042 
L 457.076161 81.456 
" clip-path="url(#p9add2f8e98)" style="fill: none; stroke: #ffffff; stroke-linecap: round"/>
     </g>
    </g>
   </g>
   <g id="matplotlib.axis_2">
    <g id="ytick_1">
     <g id="line2d_5">
      <path d="M 170.340091 168.214452 
L 462.70916 168.214452 
" clip-path="url(#p9add2f8e98)" style="fill: none; stroke: #ffffff; stroke-linecap: round"/>
     </g>
     <g id="text_1">
      <!-- −2.5 -->
      <g style="fill: #262626" transform="translate(104.746794 176.990648) scale(0.231 -0.231)">
       <defs>
        <path id="DejaVuSans-2212" d="M 678 2272 
L 4684 2272 
L 4684 1741 
L 678 1741 
L 678 2272 
z
" transform="scale(0.015625)"/>
        <path id="DejaVuSans-32" d="M 1228 531 
L 3431 531 
L 3431 0 
L 469 0 
L 469 531 
Q 828 903 1448 1529 
Q 2069 2156 2228 2338 
Q 2531 2678 2651 2914 
Q 2772 3150 2772 3378 
Q 2772 3750 2511 3984 
Q 2250 4219 1831 4219 
Q 1534 4219 1204 4116 
Q 875 4013 500 3803 
L 500 4441 
Q 881 4594 1212 4672 
Q 1544 4750 1819 4750 
Q 2544 4750 2975 4387 
Q 3406 4025 3406 3419 
Q 3406 3131 3298 2873 
Q 3191 2616 2906 2266 
Q 2828 2175 2409 1742 
Q 1991 1309 1228 531 
z
" transform="scale(0.015625)"/>
        <path id="DejaVuSans-2e" d="M 684 794 
L 1344 794 
L 1344 0 
L 684 0 
L 684 794 
z
" transform="scale(0.015625)"/>
        <path id="DejaVuSans-35" d="M 691 4666 
L 3169 4666 
L 3169 4134 
L 1269 4134 
L 1269 2991 
Q 1406 3038 1543 3061 
Q 1681 3084 1819 3084 
Q 2600 3084 3056 2656 
Q 3513 2228 3513 1497 
Q 3513 744 3044 326 
Q 2575 -91 1722 -91 
Q 1428 -91 1123 -41 
Q 819 9 494 109 
L 494 744 
Q 775 591 1075 516 
Q 1375 441 1709 441 
Q 2250 441 2565 725 
Q 2881 1009 2881 1497 
Q 2881 1984 2565 2268 
Q 2250 2553 1709 2553 
Q 1456 2553 1204 2497 
Q 953 2441 691 2322 
L 691 4666 
z
" transform="scale(0.015625)"/>
       </defs>
       <use xlink:href="#DejaVuSans-2212"/>
       <use xlink:href="#DejaVuSans-32" x="83.789062"/>
       <use xlink:href="#DejaVuSans-2e" x="147.412109"/>
       <use xlink:href="#DejaVuSans-35" x="179.199219"/>
      </g>
     </g>
    </g>
    <g id="ytick_2">
     <g id="line2d_6">
      <path d="M 170.340091 104.337909 
L 462.70916 104.337909 
" clip-path="url(#p9add2f8e98)" style="fill: none; stroke: #ffffff; stroke-linecap: round"/>
     </g>
     <g id="text_2">
      <!-- 0.0 -->
      <g style="fill: #262626" transform="translate(124.103872 113.114104) scale(0.231 -0.231)">
       <defs>
        <path id="DejaVuSans-30" d="M 2034 4250 
Q 1547 4250 1301 3770 
Q 1056 3291 1056 2328 
Q 1056 1369 1301 889 
Q 1547 409 2034 409 
Q 2525 409 2770 889 
Q 3016 1369 3016 2328 
Q 3016 3291 2770 3770 
Q 2525 4250 2034 4250 
z
M 2034 4750 
Q 2819 4750 3233 4129 
Q 3647 3509 3647 2328 
Q 3647 1150 3233 529 
Q 2819 -91 2034 -91 
Q 1250 -91 836 529 
Q 422 1150 422 2328 
Q 422 3509 836 4129 
Q 1250 4750 2034 4750 
z
" transform="scale(0.015625)"/>
       </defs>
       <use xlink:href="#DejaVuSans-30"/>
       <use xlink:href="#DejaVuSans-2e" x="63.623047"/>
       <use xlink:href="#DejaVuSans-30" x="95.410156"/>
      </g>
     </g>
    </g>
    <g id="text_3">
     <!-- % change -->
     <g style="fill: #262626" transform="translate(95.505982 203.597344) rotate(-90) scale(0.252 -0.252)">
      <defs>
       <path id="DejaVuSans-25" d="M 4653 2053 
Q 4381 2053 4226 1822 
Q 4072 1591 4072 1178 
Q 4072 772 4226 539 
Q 4381 306 4653 306 
Q 4919 306 5073 539 
Q 5228 772 5228 1178 
Q 5228 1588 5073 1820 
Q 4919 2053 4653 2053 
z
M 4653 2450 
Q 5147 2450 5437 2106 
Q 5728 1763 5728 1178 
Q 5728 594 5436 251 
Q 5144 -91 4653 -91 
Q 4153 -91 3862 251 
Q 3572 594 3572 1178 
Q 3572 1766 3864 2108 
Q 4156 2450 4653 2450 
z
M 1428 4353 
Q 1159 4353 1004 4120 
Q 850 3888 850 3481 
Q 850 3069 1003 2837 
Q 1156 2606 1428 2606 
Q 1700 2606 1854 2837 
Q 2009 3069 2009 3481 
Q 2009 3884 1853 4118 
Q 1697 4353 1428 4353 
z
M 4250 4750 
L 4750 4750 
L 1831 -91 
L 1331 -91 
L 4250 4750 
z
M 1428 4750 
Q 1922 4750 2215 4408 
Q 2509 4066 2509 3481 
Q 2509 2891 2217 2550 
Q 1925 2209 1428 2209 
Q 931 2209 642 2551 
Q 353 2894 353 3481 
Q 353 4063 643 4406 
Q 934 4750 1428 4750 
z
" transform="scale(0.015625)"/>
       <path id="DejaVuSans-20" transform="scale(0.015625)"/>
       <path id="DejaVuSans-63" d="M 3122 3366 
L 3122 2828 
Q 2878 2963 2633 3030 
Q 2388 3097 2138 3097 
Q 1578 3097 1268 2742 
Q 959 2388 959 1747 
Q 959 1106 1268 751 
Q 1578 397 2138 397 
Q 2388 397 2633 464 
Q 2878 531 3122 666 
L 3122 134 
Q 2881 22 2623 -34 
Q 2366 -91 2075 -91 
Q 1284 -91 818 406 
Q 353 903 353 1747 
Q 353 2603 823 3093 
Q 1294 3584 2113 3584 
Q 2378 3584 2631 3529 
Q 2884 3475 3122 3366 
z
" transform="scale(0.015625)"/>
       <path id="DejaVuSans-68" d="M 3513 2113 
L 3513 0 
L 2938 0 
L 2938 2094 
Q 2938 2591 2744 2837 
Q 2550 3084 2163 3084 
Q 1697 3084 1428 2787 
Q 1159 2491 1159 1978 
L 1159 0 
L 581 0 
L 581 4863 
L 1159 4863 
L 1159 2956 
Q 1366 3272 1645 3428 
Q 1925 3584 2291 3584 
Q 2894 3584 3203 3211 
Q 3513 2838 3513 2113 
z
" transform="scale(0.015625)"/>
       <path id="DejaVuSans-61" d="M 2194 1759 
Q 1497 1759 1228 1600 
Q 959 1441 959 1056 
Q 959 750 1161 570 
Q 1363 391 1709 391 
Q 2188 391 2477 730 
Q 2766 1069 2766 1631 
L 2766 1759 
L 2194 1759 
z
M 3341 1997 
L 3341 0 
L 2766 0 
L 2766 531 
Q 2569 213 2275 61 
Q 1981 -91 1556 -91 
Q 1019 -91 701 211 
Q 384 513 384 1019 
Q 384 1609 779 1909 
Q 1175 2209 1959 2209 
L 2766 2209 
L 2766 2266 
Q 2766 2663 2505 2880 
Q 2244 3097 1772 3097 
Q 1472 3097 1187 3025 
Q 903 2953 641 2809 
L 641 3341 
Q 956 3463 1253 3523 
Q 1550 3584 1831 3584 
Q 2591 3584 2966 3190 
Q 3341 2797 3341 1997 
z
" transform="scale(0.015625)"/>
       <path id="DejaVuSans-6e" d="M 3513 2113 
L 3513 0 
L 2938 0 
L 2938 2094 
Q 2938 2591 2744 2837 
Q 2550 3084 2163 3084 
Q 1697 3084 1428 2787 
Q 1159 2491 1159 1978 
L 1159 0 
L 581 0 
L 581 3500 
L 1159 3500 
L 1159 2956 
Q 1366 3272 1645 3428 
Q 1925 3584 2291 3584 
Q 2894 3584 3203 3211 
Q 3513 2838 3513 2113 
z
" transform="scale(0.015625)"/>
       <path id="DejaVuSans-67" d="M 2906 1791 
Q 2906 2416 2648 2759 
Q 2391 3103 1925 3103 
Q 1463 3103 1205 2759 
Q 947 2416 947 1791 
Q 947 1169 1205 825 
Q 1463 481 1925 481 
Q 2391 481 2648 825 
Q 2906 1169 2906 1791 
z
M 3481 434 
Q 3481 -459 3084 -895 
Q 2688 -1331 1869 -1331 
Q 1566 -1331 1297 -1286 
Q 1028 -1241 775 -1147 
L 775 -588 
Q 1028 -725 1275 -790 
Q 1522 -856 1778 -856 
Q 2344 -856 2625 -561 
Q 2906 -266 2906 331 
L 2906 616 
Q 2728 306 2450 153 
Q 2172 0 1784 0 
Q 1141 0 747 490 
Q 353 981 353 1791 
Q 353 2603 747 3093 
Q 1141 3584 1784 3584 
Q 2172 3584 2450 3431 
Q 2728 3278 2906 2969 
L 2906 3500 
L 3481 3500 
L 3481 434 
z
" transform="scale(0.015625)"/>
       <path id="DejaVuSans-65" d="M 3597 1894 
L 3597 1613 
L 953 1613 
Q 991 1019 1311 708 
Q 1631 397 2203 397 
Q 2534 397 2845 478 
Q 3156 559 3463 722 
L 3463 178 
Q 3153 47 2828 -22 
Q 2503 -91 2169 -91 
Q 1331 -91 842 396 
Q 353 884 353 1716 
Q 353 2575 817 3079 
Q 1281 3584 2069 3584 
Q 2775 3584 3186 3129 
Q 3597 2675 3597 1894 
z
M 3022 2063 
Q 3016 2534 2758 2815 
Q 2500 3097 2075 3097 
Q 1594 3097 1305 2825 
Q 1016 2553 972 2059 
L 3022 2063 
z
" transform="scale(0.015625)"/>
      </defs>
      <use xlink:href="#DejaVuSans-25"/>
      <use xlink:href="#DejaVuSans-20" x="95.019531"/>
      <use xlink:href="#DejaVuSans-63" x="126.806641"/>
      <use xlink:href="#DejaVuSans-68" x="181.787109"/>
      <use xlink:href="#DejaVuSans-61" x="245.166016"/>
      <use xlink:href="#DejaVuSans-6e" x="306.445312"/>
      <use xlink:href="#DejaVuSans-67" x="369.824219"/>
      <use xlink:href="#DejaVuSans-65" x="433.300781"/>
     </g>
    </g>
   </g>
   <g id="PolyCollection_1"/>
   <g id="PolyCollection_2"/>
   <g id="PolyCollection_3"/>
   <g id="PolyCollection_4"/>
   <g id="PolyCollection_5"/>
   <g id="PolyCollection_6"/>
   <g id="line2d_7">
    <path d="M 183.629594 104.337909 
L 183.99419 117.271776 
L 184.358785 117.717282 
L 185.087976 117.837001 
L 188.73393 117.621713 
L 189.098526 117.159288 
L 193.109075 114.93142 
L 197.119625 112.946927 
L 201.49477 111.015658 
L 206.23451 109.161274 
L 210.609655 107.672194 
L 216.078587 106.056177 
L 221.547518 104.668704 
L 227.381045 103.407946 
L 233.943763 102.221733 
L 240.871076 101.197314 
L 248.527579 100.293871 
L 255.819488 99.644049 
L 257.27787 99.633719 
L 276.601427 100.13912 
L 301.02932 101.503002 
L 340.405626 102.674716 
L 364.468924 102.8888 
L 407.126588 103.013917 
L 449.419657 103.045861 
L 449.419657 103.045861 
" clip-path="url(#p9add2f8e98)" style="fill: none; stroke: #4c72b0; stroke-opacity: 0.9; stroke-width: 3; stroke-linecap: round"/>
   </g>
   <g id="line2d_8">
    <path d="M 183.629594 104.337909 
L 183.99419 111.392111 
L 184.358785 111.686863 
L 185.087976 111.812163 
L 188.369335 111.736291 
L 188.73393 111.725296 
L 189.098526 111.427498 
L 194.567457 109.818758 
L 200.400984 108.398402 
L 206.599106 107.125648 
L 213.161823 106.008053 
L 220.818327 104.953739 
L 229.204022 104.03588 
L 238.318908 103.263034 
L 248.892175 102.595435 
L 256.913274 102.265094 
L 277.330618 102.42258 
L 325.092618 103.147155 
L 394.001153 103.534126 
L 449.419657 103.561601 
L 449.419657 103.561601 
" clip-path="url(#p9add2f8e98)" style="fill: none; stroke: #dd8452; stroke-opacity: 0.9; stroke-width: 3; stroke-linecap: round"/>
   </g>
   <g id="line2d_9">
    <path d="M 183.629594 104.337909 
L 183.99419 117.890605 
L 184.358785 118.615817 
L 184.723381 118.786545 
L 185.817167 118.792581 
L 188.73393 118.601015 
L 192.015289 116.794539 
L 196.755029 114.439242 
L 201.49477 112.349123 
L 205.869915 110.653386 
L 209.880465 109.320395 
L 213.526419 108.327137 
L 217.172373 107.576112 
L 223.0059 106.66601 
L 232.120785 105.472699 
L 248.162984 103.828085 
L 257.642465 103.02691 
L 268.580328 102.394635 
L 274.77845 102.295675 
L 292.27903 102.285834 
L 301.02932 101.996179 
L 313.060969 101.610045 
L 325.821809 102.10834 
L 334.936695 102.440697 
L 351.708084 102.792951 
L 373.948405 103.004671 
L 413.689306 103.13756 
L 449.419657 103.171873 
L 449.419657 103.171873 
" clip-path="url(#p9add2f8e98)" style="fill: none; stroke: #55a868; stroke-opacity: 0.9; stroke-width: 3; stroke-linecap: round"/>
   </g>
   <g id="line2d_10">
    <path d="M 183.629594 104.337909 
L 183.99419 114.989202 
L 184.358785 115.571711 
L 185.087976 115.730756 
L 188.369335 115.57686 
L 188.73393 115.557783 
L 196.755029 112.268625 
L 201.49477 110.609333 
L 206.599106 109.062182 
L 210.24506 108.209107 
L 215.349396 107.203689 
L 219.359946 106.643097 
L 227.01645 105.767272 
L 260.923824 102.809378 
L 269.674114 102.269131 
L 278.789 101.926152 
L 296.654175 101.646148 
L 302.487702 101.927666 
L 321.811259 102.666536 
L 335.30129 102.976716 
L 356.447824 103.232425 
L 391.448985 103.37904 
L 449.419657 103.436921 
L 449.419657 103.436921 
" clip-path="url(#p9add2f8e98)" style="fill: none; stroke: #c44e52; stroke-opacity: 0.9; stroke-width: 3; stroke-linecap: round"/>
   </g>
   <g id="line2d_11">
    <path d="M 183.629594 104.337909 
L 183.99419 116.754985 
L 184.358785 117.289016 
L 185.087976 117.364687 
L 188.73393 117.152954 
L 189.827716 116.567367 
L 193.838266 114.327401 
L 198.213411 112.185859 
L 202.588556 110.299255 
L 207.328297 108.559302 
L 212.432633 106.91729 
L 217.901564 105.392426 
L 223.370495 104.092023 
L 229.568617 102.83847 
L 236.49593 101.673075 
L 244.152434 100.622564 
L 251.444343 99.841448 
L 256.548679 99.481578 
L 267.486541 99.60106 
L 278.424404 99.858073 
L 315.248542 101.836357 
L 344.416176 102.823375 
L 365.927305 103.053277 
L 399.105489 103.17972 
L 449.419657 103.226405 
L 449.419657 103.226405 
" clip-path="url(#p9add2f8e98)" style="fill: none; stroke: #8172b3; stroke-opacity: 0.9; stroke-width: 3; stroke-linecap: round"/>
   </g>
   <g id="line2d_12">
    <path d="M 183.629594 104.337909 
L 183.99419 114.301562 
L 184.358785 114.665036 
L 185.087976 114.722723 
L 188.73393 114.560956 
L 190.556907 113.774817 
L 194.932052 111.958394 
L 199.307197 110.367061 
L 204.411533 108.761686 
L 209.880465 107.308288 
L 215.713991 105.980099 
L 221.912114 104.78763 
L 228.839427 103.684571 
L 236.49593 102.690771 
L 245.246221 101.789534 
L 253.631915 101.143694 
L 258.371656 100.943134 
L 286.445503 101.446727 
L 299.935534 101.95943 
L 324.363427 102.595693 
L 336.030481 102.941471 
L 348.06213 103.131548 
L 375.771382 103.299442 
L 431.919077 103.375813 
L 449.419657 103.381513 
L 449.419657 103.381513 
" clip-path="url(#p9add2f8e98)" style="fill: none; stroke: #937860; stroke-opacity: 0.9; stroke-width: 3; stroke-linecap: round"/>
   </g>
   <g id="patch_3">
    <path d="M 170.340091 201.042 
L 170.340091 81.456 
" style="fill: none; stroke: #ffffff; stroke-width: 1.25; stroke-linejoin: miter; stroke-linecap: square"/>
   </g>
   <g id="patch_4">
    <path d="M 170.340091 201.042 
L 462.70916 201.042 
" style="fill: none; stroke: #ffffff; stroke-width: 1.25; stroke-linejoin: miter; stroke-linecap: square"/>
   </g>
   <g id="text_4">
    <!-- 0.8~90 -->
    <g style="fill: #262626" transform="translate(269.894782 75.456) scale(0.252 -0.252)">
     <defs>
      <path id="DejaVuSans-38" d="M 2034 2216 
Q 1584 2216 1326 1975 
Q 1069 1734 1069 1313 
Q 1069 891 1326 650 
Q 1584 409 2034 409 
Q 2484 409 2743 651 
Q 3003 894 3003 1313 
Q 3003 1734 2745 1975 
Q 2488 2216 2034 2216 
z
M 1403 2484 
Q 997 2584 770 2862 
Q 544 3141 544 3541 
Q 544 4100 942 4425 
Q 1341 4750 2034 4750 
Q 2731 4750 3128 4425 
Q 3525 4100 3525 3541 
Q 3525 3141 3298 2862 
Q 3072 2584 2669 2484 
Q 3125 2378 3379 2068 
Q 3634 1759 3634 1313 
Q 3634 634 3220 271 
Q 2806 -91 2034 -91 
Q 1263 -91 848 271 
Q 434 634 434 1313 
Q 434 1759 690 2068 
Q 947 2378 1403 2484 
z
M 1172 3481 
Q 1172 3119 1398 2916 
Q 1625 2713 2034 2713 
Q 2441 2713 2670 2916 
Q 2900 3119 2900 3481 
Q 2900 3844 2670 4047 
Q 2441 4250 2034 4250 
Q 1625 4250 1398 4047 
Q 1172 3844 1172 3481 
z
" transform="scale(0.015625)"/>
      <path id="DejaVuSans-7e" d="M 4684 2553 
L 4684 1997 
Q 4356 1750 4076 1644 
Q 3797 1538 3494 1538 
Q 3150 1538 2694 1722 
Q 2659 1734 2644 1741 
Q 2622 1750 2575 1766 
Q 2091 1959 1797 1959 
Q 1522 1959 1253 1839 
Q 984 1719 678 1459 
L 678 2016 
Q 1006 2263 1286 2370 
Q 1566 2478 1869 2478 
Q 2213 2478 2672 2291 
Q 2703 2278 2719 2272 
Q 2744 2263 2788 2247 
Q 3272 2053 3566 2053 
Q 3834 2053 4098 2172 
Q 4363 2291 4684 2553 
z
" transform="scale(0.015625)"/>
      <path id="DejaVuSans-39" d="M 703 97 
L 703 672 
Q 941 559 1184 500 
Q 1428 441 1663 441 
Q 2288 441 2617 861 
Q 2947 1281 2994 2138 
Q 2813 1869 2534 1725 
Q 2256 1581 1919 1581 
Q 1219 1581 811 2004 
Q 403 2428 403 3163 
Q 403 3881 828 4315 
Q 1253 4750 1959 4750 
Q 2769 4750 3195 4129 
Q 3622 3509 3622 2328 
Q 3622 1225 3098 567 
Q 2575 -91 1691 -91 
Q 1453 -91 1209 -44 
Q 966 3 703 97 
z
M 1959 2075 
Q 2384 2075 2632 2365 
Q 2881 2656 2881 3163 
Q 2881 3666 2632 3958 
Q 2384 4250 1959 4250 
Q 1534 4250 1286 3958 
Q 1038 3666 1038 3163 
Q 1038 2656 1286 2365 
Q 1534 2075 1959 2075 
z
" transform="scale(0.015625)"/>
     </defs>
     <use xlink:href="#DejaVuSans-30"/>
     <use xlink:href="#DejaVuSans-2e" x="63.623047"/>
     <use xlink:href="#DejaVuSans-38" x="95.410156"/>
     <use xlink:href="#DejaVuSans-7e" x="159.033203"/>
     <use xlink:href="#DejaVuSans-39" x="242.822266"/>
     <use xlink:href="#DejaVuSans-30" x="306.445312"/>
    </g>
   </g>
  </g>
  <g id="axes_2">
   <g id="patch_5">
    <path d="M 489.290298 201.042 
L 781.659367 201.042 
L 781.659367 81.456 
L 489.290298 81.456 
z
" style="fill: #eaeaf2"/>
   </g>
   <g id="matplotlib.axis_3">
    <g id="xtick_5">
     <g id="line2d_13">
      <path d="M 502.579801 201.042 
L 502.579801 81.456 
" clip-path="url(#p725cad13c3)" style="fill: none; stroke: #ffffff; stroke-linecap: round"/>
     </g>
    </g>
    <g id="xtick_6">
     <g id="line2d_14">
      <path d="M 593.728656 201.042 
L 593.728656 81.456 
" clip-path="url(#p725cad13c3)" style="fill: none; stroke: #ffffff; stroke-linecap: round"/>
     </g>
    </g>
    <g id="xtick_7">
     <g id="line2d_15">
      <path d="M 684.877512 201.042 
L 684.877512 81.456 
" clip-path="url(#p725cad13c3)" style="fill: none; stroke: #ffffff; stroke-linecap: round"/>
     </g>
    </g>
    <g id="xtick_8">
     <g id="line2d_16">
      <path d="M 776.026368 201.042 
L 776.026368 81.456 
" clip-path="url(#p725cad13c3)" style="fill: none; stroke: #ffffff; stroke-linecap: round"/>
     </g>
    </g>
   </g>
   <g id="matplotlib.axis_4">
    <g id="ytick_3">
     <g id="line2d_17">
      <path d="M 489.290298 168.214452 
L 781.659367 168.214452 
" clip-path="url(#p725cad13c3)" style="fill: none; stroke: #ffffff; stroke-linecap: round"/>
     </g>
    </g>
    <g id="ytick_4">
     <g id="line2d_18">
      <path d="M 489.290298 104.337909 
L 781.659367 104.337909 
" clip-path="url(#p725cad13c3)" style="fill: none; stroke: #ffffff; stroke-linecap: round"/>
     </g>
    </g>
   </g>
   <g id="PolyCollection_7"/>
   <g id="PolyCollection_8"/>
   <g id="PolyCollection_9"/>
   <g id="PolyCollection_10"/>
   <g id="PolyCollection_11"/>
   <g id="PolyCollection_12"/>
   <g id="line2d_19">
    <path d="M 502.579801 104.337909 
L 502.944396 117.271776 
L 503.308992 117.731596 
L 504.038182 117.885101 
L 507.684137 117.841721 
L 508.048732 117.409832 
L 513.517663 115.209979 
L 518.621999 113.439745 
L 523.726335 111.90188 
L 529.195267 110.479678 
L 535.393389 109.110716 
L 541.956106 107.896345 
L 549.248015 106.78514 
L 556.539923 105.894379 
L 565.290213 105.049929 
L 575.13429 104.324122 
L 586.801343 103.696027 
L 600.655969 103.18561 
L 614.510595 102.878749 
L 640.032275 103.163631 
L 649.511756 103.375476 
L 663.001787 103.600381 
L 685.242107 103.808224 
L 736.650062 103.969732 
L 768.369864 104.014001 
L 768.369864 104.014001 
" clip-path="url(#p725cad13c3)" style="fill: none; stroke: #4c72b0; stroke-opacity: 0.9; stroke-width: 3; stroke-linecap: round"/>
   </g>
   <g id="line2d_20">
    <path d="M 502.579801 104.337909 
L 502.944396 111.392111 
L 503.308992 111.693478 
L 504.038182 111.834674 
L 507.319541 111.833231 
L 507.684137 111.830429 
L 508.048732 111.546007 
L 515.340641 109.960746 
L 521.903358 108.793187 
L 528.830671 107.783464 
L 536.85177 106.843586 
L 545.602061 106.037193 
L 555.810732 105.321683 
L 567.842381 104.722325 
L 582.426198 104.229713 
L 600.655969 103.849901 
L 617.427359 103.696366 
L 702.742688 104.101307 
L 768.369864 104.140011 
L 768.369864 104.140011 
" clip-path="url(#p725cad13c3)" style="fill: none; stroke: #dd8452; stroke-opacity: 0.9; stroke-width: 3; stroke-linecap: round"/>
   </g>
   <g id="line2d_21">
    <path d="M 502.579801 104.337909 
L 502.944396 117.890605 
L 503.308992 118.630661 
L 503.673587 118.818719 
L 504.767373 118.878963 
L 507.684137 118.830919 
L 509.871709 117.909703 
L 514.976045 115.996687 
L 520.444976 114.186942 
L 526.278503 112.502185 
L 530.653648 111.458609 
L 534.299603 110.800844 
L 538.310152 110.245342 
L 545.602061 109.568967 
L 556.539923 108.745145 
L 606.489496 105.701796 
L 643.313634 103.283803 
L 651.334733 103.085933 
L 686.700489 103.656622 
L 716.961909 103.900162 
L 768.005268 103.998705 
L 768.369864 103.998935 
L 768.369864 103.998935 
" clip-path="url(#p725cad13c3)" style="fill: none; stroke: #55a868; stroke-opacity: 0.9; stroke-width: 3; stroke-linecap: round"/>
   </g>
   <g id="line2d_22">
    <path d="M 502.579801 104.337909 
L 502.944396 114.989202 
L 503.308992 115.583462 
L 504.038182 115.770571 
L 507.319541 115.745735 
L 507.684137 115.74085 
L 513.517663 113.922263 
L 519.35119 112.340407 
L 525.549312 110.891687 
L 529.559862 110.196808 
L 535.757984 109.311295 
L 543.049893 108.697454 
L 549.61261 108.283954 
L 572.946717 107.028292 
L 592.63487 105.741078 
L 618.521145 103.7706 
L 625.448458 103.335375 
L 630.552794 103.171107 
L 637.480107 103.176945 
L 696.909161 103.928663 
L 733.733299 104.053081 
L 768.369864 104.080205 
L 768.369864 104.080205 
" clip-path="url(#p725cad13c3)" style="fill: none; stroke: #c44e52; stroke-opacity: 0.9; stroke-width: 3; stroke-linecap: round"/>
   </g>
   <g id="line2d_23">
    <path d="M 502.579801 104.337909 
L 502.944396 116.754985 
L 503.308992 117.304279 
L 504.038182 117.412803 
L 507.684137 117.364643 
L 508.777923 116.951014 
L 513.517663 115.051526 
L 518.257404 113.388736 
L 523.36174 111.829659 
L 528.830671 110.396586 
L 534.664198 109.094281 
L 541.226916 107.862514 
L 547.789633 106.853676 
L 555.810732 105.865507 
L 564.561023 105.015553 
L 574.405099 104.285157 
L 586.072153 103.653581 
L 599.926779 103.135674 
L 613.416809 102.826026 
L 647.324183 103.176741 
L 698.367543 103.785195 
L 734.462489 103.937723 
L 768.369864 104.008243 
L 768.369864 104.008243 
" clip-path="url(#p725cad13c3)" style="fill: none; stroke: #8172b3; stroke-opacity: 0.9; stroke-width: 3; stroke-linecap: round"/>
   </g>
   <g id="line2d_24">
    <path d="M 502.579801 104.337909 
L 502.944396 114.301562 
L 503.308992 114.676735 
L 504.038182 114.759538 
L 507.684137 114.722647 
L 509.507114 114.137809 
L 514.61145 112.565336 
L 520.080381 111.116206 
L 525.913908 109.800089 
L 532.476625 108.558774 
L 539.403938 107.484432 
L 547.060442 106.523413 
L 555.081542 105.732946 
L 564.925618 104.982005 
L 576.228076 104.347481 
L 589.718107 103.822205 
L 606.124901 103.410333 
L 618.15655 103.284731 
L 642.949038 103.468847 
L 669.199909 103.718622 
L 698.367543 103.906082 
L 752.692261 104.032975 
L 768.369864 104.047843 
L 768.369864 104.047843 
" clip-path="url(#p725cad13c3)" style="fill: none; stroke: #937860; stroke-opacity: 0.9; stroke-width: 3; stroke-linecap: round"/>
   </g>
   <g id="patch_6">
    <path d="M 489.290298 201.042 
L 489.290298 81.456 
" style="fill: none; stroke: #ffffff; stroke-width: 1.25; stroke-linejoin: miter; stroke-linecap: square"/>
   </g>
   <g id="patch_7">
    <path d="M 489.290298 201.042 
L 781.659367 201.042 
" style="fill: none; stroke: #ffffff; stroke-width: 1.25; stroke-linejoin: miter; stroke-linecap: square"/>
   </g>
   <g id="text_5">
    <!-- 0.8~365 -->
    <g style="fill: #262626" transform="translate(580.828239 75.456) scale(0.252 -0.252)">
     <defs>
      <path id="DejaVuSans-33" d="M 2597 2516 
Q 3050 2419 3304 2112 
Q 3559 1806 3559 1356 
Q 3559 666 3084 287 
Q 2609 -91 1734 -91 
Q 1441 -91 1130 -33 
Q 819 25 488 141 
L 488 750 
Q 750 597 1062 519 
Q 1375 441 1716 441 
Q 2309 441 2620 675 
Q 2931 909 2931 1356 
Q 2931 1769 2642 2001 
Q 2353 2234 1838 2234 
L 1294 2234 
L 1294 2753 
L 1863 2753 
Q 2328 2753 2575 2939 
Q 2822 3125 2822 3475 
Q 2822 3834 2567 4026 
Q 2313 4219 1838 4219 
Q 1578 4219 1281 4162 
Q 984 4106 628 3988 
L 628 4550 
Q 988 4650 1302 4700 
Q 1616 4750 1894 4750 
Q 2613 4750 3031 4423 
Q 3450 4097 3450 3541 
Q 3450 3153 3228 2886 
Q 3006 2619 2597 2516 
z
" transform="scale(0.015625)"/>
      <path id="DejaVuSans-36" d="M 2113 2584 
Q 1688 2584 1439 2293 
Q 1191 2003 1191 1497 
Q 1191 994 1439 701 
Q 1688 409 2113 409 
Q 2538 409 2786 701 
Q 3034 994 3034 1497 
Q 3034 2003 2786 2293 
Q 2538 2584 2113 2584 
z
M 3366 4563 
L 3366 3988 
Q 3128 4100 2886 4159 
Q 2644 4219 2406 4219 
Q 1781 4219 1451 3797 
Q 1122 3375 1075 2522 
Q 1259 2794 1537 2939 
Q 1816 3084 2150 3084 
Q 2853 3084 3261 2657 
Q 3669 2231 3669 1497 
Q 3669 778 3244 343 
Q 2819 -91 2113 -91 
Q 1303 -91 875 529 
Q 447 1150 447 2328 
Q 447 3434 972 4092 
Q 1497 4750 2381 4750 
Q 2619 4750 2861 4703 
Q 3103 4656 3366 4563 
z
" transform="scale(0.015625)"/>
     </defs>
     <use xlink:href="#DejaVuSans-30"/>
     <use xlink:href="#DejaVuSans-2e" x="63.623047"/>
     <use xlink:href="#DejaVuSans-38" x="95.410156"/>
     <use xlink:href="#DejaVuSans-7e" x="159.033203"/>
     <use xlink:href="#DejaVuSans-33" x="242.822266"/>
     <use xlink:href="#DejaVuSans-36" x="306.445312"/>
     <use xlink:href="#DejaVuSans-35" x="370.068359"/>
    </g>
   </g>
  </g>
  <g id="axes_3">
   <g id="patch_8">
    <path d="M 808.240504 201.042 
L 1100.609573 201.042 
L 1100.609573 81.456 
L 808.240504 81.456 
z
" style="fill: #eaeaf2"/>
   </g>
   <g id="matplotlib.axis_5">
    <g id="xtick_9">
     <g id="line2d_25">
      <path d="M 821.530007 201.042 
L 821.530007 81.456 
" clip-path="url(#p2490a3d78f)" style="fill: none; stroke: #ffffff; stroke-linecap: round"/>
     </g>
    </g>
    <g id="xtick_10">
     <g id="line2d_26">
      <path d="M 912.678863 201.042 
L 912.678863 81.456 
" clip-path="url(#p2490a3d78f)" style="fill: none; stroke: #ffffff; stroke-linecap: round"/>
     </g>
    </g>
    <g id="xtick_11">
     <g id="line2d_27">
      <path d="M 1003.827719 201.042 
L 1003.827719 81.456 
" clip-path="url(#p2490a3d78f)" style="fill: none; stroke: #ffffff; stroke-linecap: round"/>
     </g>
    </g>
    <g id="xtick_12">
     <g id="line2d_28">
      <path d="M 1094.976574 201.042 
L 1094.976574 81.456 
" clip-path="url(#p2490a3d78f)" style="fill: none; stroke: #ffffff; stroke-linecap: round"/>
     </g>
    </g>
   </g>
   <g id="matplotlib.axis_6">
    <g id="ytick_5">
     <g id="line2d_29">
      <path d="M 808.240504 168.214452 
L 1100.609573 168.214452 
" clip-path="url(#p2490a3d78f)" style="fill: none; stroke: #ffffff; stroke-linecap: round"/>
     </g>
    </g>
    <g id="ytick_6">
     <g id="line2d_30">
      <path d="M 808.240504 104.337909 
L 1100.609573 104.337909 
" clip-path="url(#p2490a3d78f)" style="fill: none; stroke: #ffffff; stroke-linecap: round"/>
     </g>
    </g>
   </g>
   <g id="PolyCollection_13"/>
   <g id="PolyCollection_14"/>
   <g id="PolyCollection_15"/>
   <g id="PolyCollection_16"/>
   <g id="PolyCollection_17"/>
   <g id="PolyCollection_18"/>
   <g id="line2d_31">
    <path d="M 821.530007 104.337909 
L 821.894603 117.271776 
L 822.259198 117.717282 
L 822.988389 117.837001 
L 826.634343 117.621713 
L 826.998939 117.159288 
L 831.009488 114.93142 
L 835.020038 112.946927 
L 839.395183 111.015658 
L 844.134923 109.161274 
L 848.510069 107.672194 
L 853.979 106.056177 
L 859.447931 104.668704 
L 865.281458 103.407946 
L 871.844176 102.221733 
L 878.771489 101.197314 
L 886.427992 100.293871 
L 893.719901 99.644049 
L 895.178283 99.633719 
L 914.50184 100.13912 
L 938.929733 101.503002 
L 978.306039 102.674716 
L 1002.369337 102.8888 
L 1045.027001 103.013917 
L 1087.32007 103.045861 
L 1087.32007 103.045861 
" clip-path="url(#p2490a3d78f)" style="fill: none; stroke: #4c72b0; stroke-opacity: 0.9; stroke-width: 3; stroke-linecap: round"/>
   </g>
   <g id="line2d_32">
    <path d="M 821.530007 104.337909 
L 821.894603 111.392111 
L 822.259198 111.686863 
L 822.988389 111.812163 
L 826.269748 111.736291 
L 826.634343 111.725296 
L 826.998939 111.427498 
L 832.46787 109.818758 
L 838.301397 108.398402 
L 844.499519 107.125648 
L 851.062237 106.008053 
L 858.71874 104.953739 
L 867.104435 104.03588 
L 876.219321 103.263034 
L 886.792588 102.595435 
L 894.813687 102.265094 
L 915.231031 102.42258 
L 962.993031 103.147155 
L 1031.901566 103.534126 
L 1087.32007 103.561601 
L 1087.32007 103.561601 
" clip-path="url(#p2490a3d78f)" style="fill: none; stroke: #dd8452; stroke-opacity: 0.9; stroke-width: 3; stroke-linecap: round"/>
   </g>
   <g id="line2d_33">
    <path d="M 821.530007 104.337909 
L 821.894603 117.890605 
L 822.259198 118.615817 
L 822.623794 118.786545 
L 823.71758 118.792581 
L 826.634343 118.601015 
L 829.915702 116.794539 
L 834.655442 114.439242 
L 839.395183 112.349123 
L 843.041137 110.957075 
L 846.322496 109.924924 
L 849.603855 109.115801 
L 854.343595 108.287199 
L 863.823076 106.871299 
L 868.927412 106.279618 
L 882.417443 104.892055 
L 893.719901 103.933805 
L 903.563977 103.400665 
L 909.397504 103.256648 
L 915.960222 103.347961 
L 933.096207 103.641198 
L 941.481901 103.500862 
L 949.503001 103.11324 
L 958.982482 102.435137 
L 964.816008 102.049727 
L 969.191153 101.951504 
L 974.295489 102.163765 
L 983.77497 102.464078 
L 1001.275551 102.79964 
L 1025.338848 102.980331 
L 1073.83004 103.086373 
L 1087.32007 103.09592 
L 1087.32007 103.09592 
" clip-path="url(#p2490a3d78f)" style="fill: none; stroke: #55a868; stroke-opacity: 0.9; stroke-width: 3; stroke-linecap: round"/>
   </g>
   <g id="line2d_34">
    <path d="M 821.530007 104.337909 
L 821.894603 114.989202 
L 822.259198 115.571711 
L 822.988389 115.730756 
L 826.269748 115.57686 
L 826.634343 115.557783 
L 834.655442 112.268625 
L 839.395183 110.609333 
L 842.676542 109.65841 
L 847.416282 108.577902 
L 850.697641 108.053947 
L 855.437382 107.47421 
L 863.093885 106.712142 
L 887.886374 104.584998 
L 898.824237 103.815252 
L 906.845336 103.43677 
L 917.418603 103.209445 
L 925.804298 103.032451 
L 952.419764 102.102565 
L 960.805459 102.450971 
L 973.566298 102.818769 
L 991.79607 103.095935 
L 1019.505322 103.257584 
L 1079.663566 103.344644 
L 1087.32007 103.3477 
L 1087.32007 103.3477 
" clip-path="url(#p2490a3d78f)" style="fill: none; stroke: #c44e52; stroke-opacity: 0.9; stroke-width: 3; stroke-linecap: round"/>
   </g>
   <g id="line2d_35">
    <path d="M 821.530007 104.337909 
L 821.894603 116.754985 
L 822.259198 117.289016 
L 822.988389 117.364687 
L 826.634343 117.152954 
L 827.728129 116.567367 
L 831.738679 114.327401 
L 836.113824 112.185859 
L 840.488969 110.299255 
L 845.22871 108.559302 
L 850.333046 106.91729 
L 855.801977 105.392426 
L 861.270908 104.092023 
L 867.469031 102.83847 
L 874.396344 101.673075 
L 882.052847 100.622564 
L 889.344756 99.841448 
L 894.449092 99.481578 
L 905.386954 99.60106 
L 916.324817 99.858073 
L 953.148955 101.836357 
L 982.316589 102.823375 
L 1003.827719 103.053277 
L 1037.005902 103.17972 
L 1087.32007 103.226405 
L 1087.32007 103.226405 
" clip-path="url(#p2490a3d78f)" style="fill: none; stroke: #8172b3; stroke-opacity: 0.9; stroke-width: 3; stroke-linecap: round"/>
   </g>
   <g id="line2d_36">
    <path d="M 821.530007 104.337909 
L 821.894603 114.301562 
L 822.259198 114.665036 
L 822.988389 114.722723 
L 826.634343 114.560956 
L 828.45732 113.774817 
L 832.832465 111.958394 
L 837.20761 110.367061 
L 842.311946 108.761686 
L 847.780878 107.308288 
L 853.614404 105.980099 
L 859.812527 104.78763 
L 866.73984 103.684571 
L 874.396344 102.690771 
L 883.146634 101.789534 
L 891.532328 101.143694 
L 896.272069 100.943134 
L 924.345916 101.446727 
L 937.835947 101.95943 
L 962.26384 102.595693 
L 973.930894 102.941471 
L 985.962543 103.131548 
L 1013.671795 103.299442 
L 1069.81949 103.375813 
L 1087.32007 103.381513 
L 1087.32007 103.381513 
" clip-path="url(#p2490a3d78f)" style="fill: none; stroke: #937860; stroke-opacity: 0.9; stroke-width: 3; stroke-linecap: round"/>
   </g>
   <g id="patch_9">
    <path d="M 808.240504 201.042 
L 808.240504 81.456 
" style="fill: none; stroke: #ffffff; stroke-width: 1.25; stroke-linejoin: miter; stroke-linecap: square"/>
   </g>
   <g id="patch_10">
    <path d="M 808.240504 201.042 
L 1100.609573 201.042 
" style="fill: none; stroke: #ffffff; stroke-width: 1.25; stroke-linejoin: miter; stroke-linecap: square"/>
   </g>
   <g id="text_6">
    <!-- 0.85~90 -->
    <g style="fill: #262626" transform="translate(899.778445 75.456) scale(0.252 -0.252)">
     <use xlink:href="#DejaVuSans-30"/>
     <use xlink:href="#DejaVuSans-2e" x="63.623047"/>
     <use xlink:href="#DejaVuSans-38" x="95.410156"/>
     <use xlink:href="#DejaVuSans-35" x="159.033203"/>
     <use xlink:href="#DejaVuSans-7e" x="222.65625"/>
     <use xlink:href="#DejaVuSans-39" x="306.445312"/>
     <use xlink:href="#DejaVuSans-30" x="370.068359"/>
    </g>
   </g>
  </g>
  <g id="axes_4">
   <g id="patch_11">
    <path d="M 170.340091 373.284 
L 462.70916 373.284 
L 462.70916 253.698 
L 170.340091 253.698 
z
" style="fill: #eaeaf2"/>
   </g>
   <g id="matplotlib.axis_7">
    <g id="xtick_13">
     <g id="line2d_37">
      <path d="M 183.629594 373.284 
L 183.629594 253.698 
" clip-path="url(#pc9891cce82)" style="fill: none; stroke: #ffffff; stroke-linecap: round"/>
     </g>
     <g id="text_7">
      <!-- 0 -->
      <g style="fill: #262626" transform="translate(176.280907 400.336391) scale(0.231 -0.231)">
       <use xlink:href="#DejaVuSans-30"/>
      </g>
     </g>
    </g>
    <g id="xtick_14">
     <g id="line2d_38">
      <path d="M 274.77845 373.284 
L 274.77845 253.698 
" clip-path="url(#pc9891cce82)" style="fill: none; stroke: #ffffff; stroke-linecap: round"/>
     </g>
     <g id="text_8">
      <!-- 250 -->
      <g style="fill: #262626" transform="translate(252.732387 400.336391) scale(0.231 -0.231)">
       <use xlink:href="#DejaVuSans-32"/>
       <use xlink:href="#DejaVuSans-35" x="63.623047"/>
       <use xlink:href="#DejaVuSans-30" x="127.246094"/>
      </g>
     </g>
    </g>
    <g id="xtick_15">
     <g id="line2d_39">
      <path d="M 365.927305 373.284 
L 365.927305 253.698 
" clip-path="url(#pc9891cce82)" style="fill: none; stroke: #ffffff; stroke-linecap: round"/>
     </g>
     <g id="text_9">
      <!-- 500 -->
      <g style="fill: #262626" transform="translate(343.881243 400.336391) scale(0.231 -0.231)">
       <use xlink:href="#DejaVuSans-35"/>
       <use xlink:href="#DejaVuSans-30" x="63.623047"/>
       <use xlink:href="#DejaVuSans-30" x="127.246094"/>
      </g>
     </g>
    </g>
    <g id="xtick_16">
     <g id="line2d_40">
      <path d="M 457.076161 373.284 
L 457.076161 253.698 
" clip-path="url(#pc9891cce82)" style="fill: none; stroke: #ffffff; stroke-linecap: round"/>
     </g>
     <g id="text_10">
      <!-- 750 -->
      <g style="fill: #262626" transform="translate(435.030099 400.336391) scale(0.231 -0.231)">
       <defs>
        <path id="DejaVuSans-37" d="M 525 4666 
L 3525 4666 
L 3525 4397 
L 1831 0 
L 1172 0 
L 2766 4134 
L 525 4134 
L 525 4666 
z
" transform="scale(0.015625)"/>
       </defs>
       <use xlink:href="#DejaVuSans-37"/>
       <use xlink:href="#DejaVuSans-35" x="63.623047"/>
       <use xlink:href="#DejaVuSans-30" x="127.246094"/>
      </g>
     </g>
    </g>
    <g id="text_11">
     <!-- step -->
     <g style="fill: #262626" transform="translate(289.269251 428.288531) scale(0.252 -0.252)">
      <defs>
       <path id="DejaVuSans-73" d="M 2834 3397 
L 2834 2853 
Q 2591 2978 2328 3040 
Q 2066 3103 1784 3103 
Q 1356 3103 1142 2972 
Q 928 2841 928 2578 
Q 928 2378 1081 2264 
Q 1234 2150 1697 2047 
L 1894 2003 
Q 2506 1872 2764 1633 
Q 3022 1394 3022 966 
Q 3022 478 2636 193 
Q 2250 -91 1575 -91 
Q 1294 -91 989 -36 
Q 684 19 347 128 
L 347 722 
Q 666 556 975 473 
Q 1284 391 1588 391 
Q 1994 391 2212 530 
Q 2431 669 2431 922 
Q 2431 1156 2273 1281 
Q 2116 1406 1581 1522 
L 1381 1569 
Q 847 1681 609 1914 
Q 372 2147 372 2553 
Q 372 3047 722 3315 
Q 1072 3584 1716 3584 
Q 2034 3584 2315 3537 
Q 2597 3491 2834 3397 
z
" transform="scale(0.015625)"/>
       <path id="DejaVuSans-74" d="M 1172 4494 
L 1172 3500 
L 2356 3500 
L 2356 3053 
L 1172 3053 
L 1172 1153 
Q 1172 725 1289 603 
Q 1406 481 1766 481 
L 2356 481 
L 2356 0 
L 1766 0 
Q 1100 0 847 248 
Q 594 497 594 1153 
L 594 3053 
L 172 3053 
L 172 3500 
L 594 3500 
L 594 4494 
L 1172 4494 
z
" transform="scale(0.015625)"/>
       <path id="DejaVuSans-70" d="M 1159 525 
L 1159 -1331 
L 581 -1331 
L 581 3500 
L 1159 3500 
L 1159 2969 
Q 1341 3281 1617 3432 
Q 1894 3584 2278 3584 
Q 2916 3584 3314 3078 
Q 3713 2572 3713 1747 
Q 3713 922 3314 415 
Q 2916 -91 2278 -91 
Q 1894 -91 1617 61 
Q 1341 213 1159 525 
z
M 3116 1747 
Q 3116 2381 2855 2742 
Q 2594 3103 2138 3103 
Q 1681 3103 1420 2742 
Q 1159 2381 1159 1747 
Q 1159 1113 1420 752 
Q 1681 391 2138 391 
Q 2594 391 2855 752 
Q 3116 1113 3116 1747 
z
" transform="scale(0.015625)"/>
      </defs>
      <use xlink:href="#DejaVuSans-73"/>
      <use xlink:href="#DejaVuSans-74" x="52.099609"/>
      <use xlink:href="#DejaVuSans-65" x="91.308594"/>
      <use xlink:href="#DejaVuSans-70" x="152.832031"/>
     </g>
    </g>
   </g>
   <g id="matplotlib.axis_8">
    <g id="ytick_7">
     <g id="line2d_41">
      <path d="M 170.340091 340.456452 
L 462.70916 340.456452 
" clip-path="url(#pc9891cce82)" style="fill: none; stroke: #ffffff; stroke-linecap: round"/>
     </g>
     <g id="text_12">
      <!-- −2.5 -->
      <g style="fill: #262626" transform="translate(104.746794 349.232648) scale(0.231 -0.231)">
       <use xlink:href="#DejaVuSans-2212"/>
       <use xlink:href="#DejaVuSans-32" x="83.789062"/>
       <use xlink:href="#DejaVuSans-2e" x="147.412109"/>
       <use xlink:href="#DejaVuSans-35" x="179.199219"/>
      </g>
     </g>
    </g>
    <g id="ytick_8">
     <g id="line2d_42">
      <path d="M 170.340091 276.579909 
L 462.70916 276.579909 
" clip-path="url(#pc9891cce82)" style="fill: none; stroke: #ffffff; stroke-linecap: round"/>
     </g>
     <g id="text_13">
      <!-- 0.0 -->
      <g style="fill: #262626" transform="translate(124.103872 285.356104) scale(0.231 -0.231)">
       <use xlink:href="#DejaVuSans-30"/>
       <use xlink:href="#DejaVuSans-2e" x="63.623047"/>
       <use xlink:href="#DejaVuSans-30" x="95.410156"/>
      </g>
     </g>
    </g>
    <g id="text_14">
     <!-- % change -->
     <g style="fill: #262626" transform="translate(95.505982 375.839344) rotate(-90) scale(0.252 -0.252)">
      <use xlink:href="#DejaVuSans-25"/>
      <use xlink:href="#DejaVuSans-20" x="95.019531"/>
      <use xlink:href="#DejaVuSans-63" x="126.806641"/>
      <use xlink:href="#DejaVuSans-68" x="181.787109"/>
      <use xlink:href="#DejaVuSans-61" x="245.166016"/>
      <use xlink:href="#DejaVuSans-6e" x="306.445312"/>
      <use xlink:href="#DejaVuSans-67" x="369.824219"/>
      <use xlink:href="#DejaVuSans-65" x="433.300781"/>
     </g>
    </g>
   </g>
   <g id="PolyCollection_19"/>
   <g id="PolyCollection_20"/>
   <g id="PolyCollection_21"/>
   <g id="PolyCollection_22"/>
   <g id="PolyCollection_23"/>
   <g id="PolyCollection_24"/>
   <g id="line2d_43">
    <path d="M 183.629594 276.579909 
L 183.99419 289.513776 
L 184.358785 289.973596 
L 185.087976 290.127101 
L 188.73393 290.083721 
L 189.098526 289.651832 
L 194.567457 287.451979 
L 199.671793 285.681745 
L 204.776129 284.14388 
L 210.24506 282.721678 
L 216.443182 281.352716 
L 223.0059 280.138345 
L 230.297808 279.02714 
L 237.589717 278.136379 
L 246.340007 277.291929 
L 256.184083 276.566122 
L 267.851137 275.938027 
L 281.705763 275.42761 
L 295.560389 275.120749 
L 321.082069 275.405631 
L 330.56155 275.617476 
L 344.05158 275.842381 
L 366.291901 276.050224 
L 417.699855 276.211732 
L 449.419657 276.256001 
L 449.419657 276.256001 
" clip-path="url(#pc9891cce82)" style="fill: none; stroke: #4c72b0; stroke-opacity: 0.9; stroke-width: 3; stroke-linecap: round"/>
   </g>
   <g id="line2d_44">
    <path d="M 183.629594 276.579909 
L 183.99419 283.634111 
L 184.358785 283.935478 
L 185.087976 284.076674 
L 188.369335 284.075231 
L 188.73393 284.072429 
L 189.098526 283.788007 
L 196.390434 282.202746 
L 202.953152 281.035187 
L 209.880465 280.025464 
L 217.901564 279.085586 
L 226.651854 278.279193 
L 236.860526 277.563683 
L 248.892175 276.964325 
L 263.475992 276.471713 
L 281.705763 276.091901 
L 298.477152 275.938366 
L 383.792481 276.343307 
L 449.419657 276.382011 
L 449.419657 276.382011 
" clip-path="url(#pc9891cce82)" style="fill: none; stroke: #dd8452; stroke-opacity: 0.9; stroke-width: 3; stroke-linecap: round"/>
   </g>
   <g id="line2d_45">
    <path d="M 183.629594 276.579909 
L 183.99419 290.132605 
L 184.358785 290.872661 
L 184.723381 291.060719 
L 185.817167 291.120963 
L 188.73393 291.072919 
L 190.921503 290.151703 
L 196.025839 288.238687 
L 201.49477 286.428942 
L 205.869915 285.192867 
L 209.151274 284.454192 
L 213.891014 283.642666 
L 220.453732 282.981525 
L 231.75619 282.025302 
L 253.631915 280.753589 
L 319.259091 277.236171 
L 337.124267 276.315277 
L 351.343489 275.559328 
L 356.083229 275.549551 
L 372.490023 275.834876 
L 397.282512 276.071837 
L 431.919077 276.183198 
L 449.419657 276.20212 
L 449.419657 276.20212 
" clip-path="url(#pc9891cce82)" style="fill: none; stroke: #55a868; stroke-opacity: 0.9; stroke-width: 3; stroke-linecap: round"/>
   </g>
   <g id="line2d_46">
    <path d="M 183.629594 276.579909 
L 183.99419 287.231202 
L 184.358785 287.825462 
L 185.087976 288.012571 
L 188.369335 287.987735 
L 188.73393 287.98285 
L 194.567457 286.164263 
L 200.400984 284.582407 
L 204.411533 283.668282 
L 209.880465 282.76365 
L 213.526419 282.345821 
L 219.359946 281.915233 
L 229.933213 281.320826 
L 264.934373 279.521902 
L 288.26848 278.099042 
L 322.54045 275.90812 
L 330.196954 275.621279 
L 336.395076 275.594821 
L 388.896817 276.175409 
L 429.731504 276.272044 
L 449.419657 276.284569 
L 449.419657 276.284569 
" clip-path="url(#pc9891cce82)" style="fill: none; stroke: #c44e52; stroke-opacity: 0.9; stroke-width: 3; stroke-linecap: round"/>
   </g>
   <g id="line2d_47">
    <path d="M 183.629594 276.579909 
L 183.99419 288.996985 
L 184.358785 289.546279 
L 185.087976 289.654803 
L 188.73393 289.606643 
L 189.827716 289.193014 
L 194.567457 287.293526 
L 199.307197 285.630736 
L 204.411533 284.071659 
L 209.880465 282.638586 
L 215.713991 281.336281 
L 222.276709 280.104514 
L 228.839427 279.095676 
L 236.860526 278.107507 
L 245.610816 277.257553 
L 255.454892 276.527157 
L 267.121946 275.895581 
L 280.976572 275.377674 
L 294.466603 275.068026 
L 328.373977 275.418741 
L 379.417336 276.027195 
L 415.512283 276.179723 
L 449.419657 276.250243 
L 449.419657 276.250243 
" clip-path="url(#pc9891cce82)" style="fill: none; stroke: #8172b3; stroke-opacity: 0.9; stroke-width: 3; stroke-linecap: round"/>
   </g>
   <g id="line2d_48">
    <path d="M 183.629594 276.579909 
L 183.99419 286.543562 
L 184.358785 286.918735 
L 185.087976 287.001538 
L 188.73393 286.964647 
L 190.556907 286.379809 
L 195.661243 284.807336 
L 201.130175 283.358206 
L 206.963701 282.042089 
L 213.526419 280.800774 
L 220.453732 279.726432 
L 228.110236 278.765413 
L 236.131335 277.974946 
L 245.975411 277.224005 
L 257.27787 276.589481 
L 270.7679 276.064205 
L 287.174694 275.652333 
L 299.206343 275.526731 
L 323.998832 275.710847 
L 350.249702 275.960622 
L 379.417336 276.148082 
L 433.742054 276.274975 
L 449.419657 276.289843 
L 449.419657 276.289843 
" clip-path="url(#pc9891cce82)" style="fill: none; stroke: #937860; stroke-opacity: 0.9; stroke-width: 3; stroke-linecap: round"/>
   </g>
   <g id="patch_12">
    <path d="M 170.340091 373.284 
L 170.340091 253.698 
" style="fill: none; stroke: #ffffff; stroke-width: 1.25; stroke-linejoin: miter; stroke-linecap: square"/>
   </g>
   <g id="patch_13">
    <path d="M 170.340091 373.284 
L 462.70916 373.284 
" style="fill: none; stroke: #ffffff; stroke-width: 1.25; stroke-linejoin: miter; stroke-linecap: square"/>
   </g>
   <g id="text_15">
    <!-- 0.85~365 -->
    <g style="fill: #262626" transform="translate(253.861282 247.698) scale(0.252 -0.252)">
     <use xlink:href="#DejaVuSans-30"/>
     <use xlink:href="#DejaVuSans-2e" x="63.623047"/>
     <use xlink:href="#DejaVuSans-38" x="95.410156"/>
     <use xlink:href="#DejaVuSans-35" x="159.033203"/>
     <use xlink:href="#DejaVuSans-7e" x="222.65625"/>
     <use xlink:href="#DejaVuSans-33" x="306.445312"/>
     <use xlink:href="#DejaVuSans-36" x="370.068359"/>
     <use xlink:href="#DejaVuSans-35" x="433.691406"/>
    </g>
   </g>
  </g>
  <g id="axes_5">
   <g id="patch_14">
    <path d="M 489.290298 373.284 
L 781.659367 373.284 
L 781.659367 253.698 
L 489.290298 253.698 
z
" style="fill: #eaeaf2"/>
   </g>
   <g id="matplotlib.axis_9">
    <g id="xtick_17">
     <g id="line2d_49">
      <path d="M 502.579801 373.284 
L 502.579801 253.698 
" clip-path="url(#p9d7457787b)" style="fill: none; stroke: #ffffff; stroke-linecap: round"/>
     </g>
     <g id="text_16">
      <!-- 0 -->
      <g style="fill: #262626" transform="translate(495.231113 400.336391) scale(0.231 -0.231)">
       <use xlink:href="#DejaVuSans-30"/>
      </g>
     </g>
    </g>
    <g id="xtick_18">
     <g id="line2d_50">
      <path d="M 593.728656 373.284 
L 593.728656 253.698 
" clip-path="url(#p9d7457787b)" style="fill: none; stroke: #ffffff; stroke-linecap: round"/>
     </g>
     <g id="text_17">
      <!-- 250 -->
      <g style="fill: #262626" transform="translate(571.682594 400.336391) scale(0.231 -0.231)">
       <use xlink:href="#DejaVuSans-32"/>
       <use xlink:href="#DejaVuSans-35" x="63.623047"/>
       <use xlink:href="#DejaVuSans-30" x="127.246094"/>
      </g>
     </g>
    </g>
    <g id="xtick_19">
     <g id="line2d_51">
      <path d="M 684.877512 373.284 
L 684.877512 253.698 
" clip-path="url(#p9d7457787b)" style="fill: none; stroke: #ffffff; stroke-linecap: round"/>
     </g>
     <g id="text_18">
      <!-- 500 -->
      <g style="fill: #262626" transform="translate(662.83145 400.336391) scale(0.231 -0.231)">
       <use xlink:href="#DejaVuSans-35"/>
       <use xlink:href="#DejaVuSans-30" x="63.623047"/>
       <use xlink:href="#DejaVuSans-30" x="127.246094"/>
      </g>
     </g>
    </g>
    <g id="xtick_20">
     <g id="line2d_52">
      <path d="M 776.026368 373.284 
L 776.026368 253.698 
" clip-path="url(#p9d7457787b)" style="fill: none; stroke: #ffffff; stroke-linecap: round"/>
     </g>
     <g id="text_19">
      <!-- 750 -->
      <g style="fill: #262626" transform="translate(753.980305 400.336391) scale(0.231 -0.231)">
       <use xlink:href="#DejaVuSans-37"/>
       <use xlink:href="#DejaVuSans-35" x="63.623047"/>
       <use xlink:href="#DejaVuSans-30" x="127.246094"/>
      </g>
     </g>
    </g>
    <g id="text_20">
     <!-- step -->
     <g style="fill: #262626" transform="translate(608.219457 428.288531) scale(0.252 -0.252)">
      <use xlink:href="#DejaVuSans-73"/>
      <use xlink:href="#DejaVuSans-74" x="52.099609"/>
      <use xlink:href="#DejaVuSans-65" x="91.308594"/>
      <use xlink:href="#DejaVuSans-70" x="152.832031"/>
     </g>
    </g>
   </g>
   <g id="matplotlib.axis_10">
    <g id="ytick_9">
     <g id="line2d_53">
      <path d="M 489.290298 340.456452 
L 781.659367 340.456452 
" clip-path="url(#p9d7457787b)" style="fill: none; stroke: #ffffff; stroke-linecap: round"/>
     </g>
    </g>
    <g id="ytick_10">
     <g id="line2d_54">
      <path d="M 489.290298 276.579909 
L 781.659367 276.579909 
" clip-path="url(#p9d7457787b)" style="fill: none; stroke: #ffffff; stroke-linecap: round"/>
     </g>
    </g>
   </g>
   <g id="PolyCollection_25"/>
   <g id="PolyCollection_26"/>
   <g id="PolyCollection_27"/>
   <g id="PolyCollection_28"/>
   <g id="PolyCollection_29"/>
   <g id="PolyCollection_30"/>
   <g id="line2d_55">
    <path d="M 502.579801 276.579909 
L 502.944396 289.513776 
L 503.308992 289.959282 
L 504.038182 290.079001 
L 507.684137 289.863713 
L 508.048732 289.401288 
L 512.059282 287.17342 
L 516.069831 285.188927 
L 517.528213 284.520006 
L 518.257404 284.531488 
L 519.35119 284.653565 
L 519.715786 285.370748 
L 520.444976 288.891649 
L 524.090931 309.907912 
L 527.007694 324.763267 
L 528.830671 332.989228 
L 530.653648 340.287993 
L 532.476625 346.683839 
L 534.299603 352.202121 
L 535.757984 356.000876 
L 537.216366 359.258987 
L 538.674748 361.984167 
L 540.133129 364.182132 
L 541.226916 365.488469 
L 542.320702 366.504992 
L 543.414488 367.234989 
L 544.508274 367.681616 
L 545.602061 367.848273 
L 546.695847 367.73845 
L 547.789633 367.355803 
L 548.883419 366.704272 
L 549.977206 365.787281 
L 551.070992 364.607427 
L 552.529374 362.632435 
L 553.987755 360.208426 
L 555.446137 357.346326 
L 556.904519 354.055137 
L 558.727496 349.351815 
L 560.550473 344.010227 
L 562.738045 336.801241 
L 564.925618 328.795293 
L 567.477786 318.593276 
L 570.394549 305.930885 
L 573.675908 290.570273 
L 578.051053 269.820727 
L 578.780244 266.994287 
L 579.87403 264.080264 
L 580.967817 261.979776 
L 582.061603 260.254849 
L 582.790794 259.274865 
L 583.519985 259.133727 
L 585.342962 259.310532 
L 589.353511 260.033105 
L 593.728656 260.922717 
L 598.468397 261.648581 
L 613.781405 263.763003 
L 617.427359 264.544769 
L 624.354672 265.710262 
L 625.813054 266.019022 
L 632.740367 267.965001 
L 635.65713 268.306706 
L 641.126061 268.679857 
L 650.240947 269.066395 
L 663.730978 269.389852 
L 683.41913 269.624931 
L 716.597314 269.770873 
L 768.369864 269.824796 
L 768.369864 269.824796 
" clip-path="url(#p9d7457787b)" style="fill: none; stroke: #4c72b0; stroke-opacity: 0.9; stroke-width: 3; stroke-linecap: round"/>
   </g>
   <g id="line2d_56">
    <path d="M 502.579801 276.579909 
L 502.944396 283.634111 
L 503.308992 283.928863 
L 504.038182 284.054163 
L 507.319541 283.978291 
L 507.684137 283.967296 
L 508.048732 283.669498 
L 513.517663 282.060758 
L 519.35119 280.640402 
L 525.549312 279.367648 
L 532.11203 278.250053 
L 539.768534 277.195739 
L 548.154229 276.27788 
L 557.269114 275.505034 
L 567.842381 274.837435 
L 575.863481 274.507094 
L 596.280824 274.66458 
L 644.042825 275.389155 
L 712.95136 275.776126 
L 768.369864 275.803601 
L 768.369864 275.803601 
" clip-path="url(#p9d7457787b)" style="fill: none; stroke: #dd8452; stroke-opacity: 0.9; stroke-width: 3; stroke-linecap: round"/>
   </g>
   <g id="line2d_57">
    <path d="M 502.579801 276.579909 
L 502.944396 290.132605 
L 503.308992 290.857817 
L 503.673587 291.028545 
L 504.767373 291.034581 
L 507.684137 290.843015 
L 510.965495 289.036539 
L 515.340641 286.869644 
L 517.528213 285.928484 
L 518.621999 285.668691 
L 519.715786 285.529338 
L 521.174167 285.670743 
L 522.997144 286.136399 
L 524.090931 286.602573 
L 525.184717 287.233713 
L 529.195267 290.178606 
L 533.570412 293.171461 
L 535.757984 294.336024 
L 537.945557 295.22579 
L 540.497725 295.964246 
L 542.685297 296.341219 
L 544.87287 296.476081 
L 547.060442 296.377392 
L 549.248015 296.060539 
L 551.435587 295.539597 
L 553.987755 294.686529 
L 556.904519 293.436674 
L 561.279664 291.247182 
L 565.290213 288.959252 
L 569.300763 286.447851 
L 571.852931 284.890087 
L 573.675908 283.95403 
L 576.228076 282.92616 
L 579.509435 281.925934 
L 594.822443 277.527842 
L 600.291374 276.199424 
L 602.114351 275.951211 
L 605.031114 275.748783 
L 609.770855 275.728427 
L 613.781405 276.013203 
L 620.344122 276.533032 
L 630.917389 276.974024 
L 636.750916 277.012579 
L 644.042825 276.818387 
L 654.251497 276.317659 
L 676.127222 274.929508 
L 684.877512 274.499509 
L 698.367543 274.12319 
L 708.94081 274.158082 
L 752.327665 274.417894 
L 768.369864 274.439157 
L 768.369864 274.439157 
" clip-path="url(#p9d7457787b)" style="fill: none; stroke: #55a868; stroke-opacity: 0.9; stroke-width: 3; stroke-linecap: round"/>
   </g>
   <g id="line2d_58">
    <path d="M 502.579801 276.579909 
L 502.944396 287.231202 
L 503.308992 287.813711 
L 504.038182 287.972756 
L 507.319541 287.81886 
L 507.684137 287.799783 
L 515.340641 284.674503 
L 517.528213 284.035209 
L 518.986595 283.904922 
L 520.080381 284.028151 
L 521.538763 284.331715 
L 524.090931 285.100754 
L 527.372289 286.230289 
L 529.195267 286.96548 
L 537.216366 290.616163 
L 539.403938 291.239881 
L 541.591511 291.62876 
L 543.779084 291.79118 
L 545.966656 291.73548 
L 548.154229 291.476573 
L 550.706397 290.962111 
L 553.62316 290.143114 
L 562.738045 287.384327 
L 567.842381 286.264673 
L 573.675908 284.879757 
L 581.697007 282.685341 
L 599.197588 277.909509 
L 602.843542 277.25412 
L 607.947878 276.548123 
L 612.323023 276.185461 
L 617.791954 276.086692 
L 622.531695 276.196157 
L 629.459008 276.243285 
L 644.40742 276.004964 
L 657.897451 275.439984 
L 675.762626 274.705299 
L 688.523466 274.44109 
L 705.294856 274.543462 
L 729.722749 274.671502 
L 768.369864 274.722057 
L 768.369864 274.722057 
" clip-path="url(#p9d7457787b)" style="fill: none; stroke: #c44e52; stroke-opacity: 0.9; stroke-width: 3; stroke-linecap: round"/>
   </g>
   <g id="line2d_59">
    <path d="M 502.579801 276.579909 
L 502.944396 288.996985 
L 503.308992 289.531016 
L 504.038182 289.606687 
L 507.684137 289.394954 
L 508.777923 288.809367 
L 512.788473 286.569401 
L 517.163618 284.427859 
L 521.538763 282.541255 
L 526.278503 280.801302 
L 531.382839 279.15929 
L 536.85177 277.634426 
L 542.320702 276.334023 
L 548.518824 275.08047 
L 555.446137 273.915075 
L 563.102641 272.864564 
L 570.394549 272.083448 
L 575.498885 271.723578 
L 586.436748 271.84306 
L 597.374611 272.100073 
L 634.198748 274.078357 
L 663.366382 275.065375 
L 684.877512 275.295277 
L 718.055695 275.42172 
L 768.369864 275.468405 
L 768.369864 275.468405 
" clip-path="url(#p9d7457787b)" style="fill: none; stroke: #8172b3; stroke-opacity: 0.9; stroke-width: 3; stroke-linecap: round"/>
   </g>
   <g id="line2d_60">
    <path d="M 502.579801 276.579909 
L 502.944396 286.543562 
L 503.308992 286.907036 
L 504.038182 286.964723 
L 507.684137 286.802956 
L 509.507114 286.016817 
L 513.882259 284.200394 
L 518.257404 282.609061 
L 523.36174 281.003686 
L 528.830671 279.550288 
L 534.664198 278.222099 
L 540.86232 277.02963 
L 547.789633 275.926571 
L 555.446137 274.932771 
L 564.196427 274.031534 
L 572.582122 273.385694 
L 577.321862 273.185134 
L 605.39571 273.688727 
L 618.885741 274.20143 
L 643.313634 274.837693 
L 654.980687 275.183471 
L 667.012336 275.373548 
L 694.721588 275.541442 
L 750.869283 275.617813 
L 768.369864 275.623513 
L 768.369864 275.623513 
" clip-path="url(#p9d7457787b)" style="fill: none; stroke: #937860; stroke-opacity: 0.9; stroke-width: 3; stroke-linecap: round"/>
   </g>
   <g id="patch_15">
    <path d="M 489.290298 373.284 
L 489.290298 253.698 
" style="fill: none; stroke: #ffffff; stroke-width: 1.25; stroke-linejoin: miter; stroke-linecap: square"/>
   </g>
   <g id="patch_16">
    <path d="M 489.290298 373.284 
L 781.659367 373.284 
" style="fill: none; stroke: #ffffff; stroke-width: 1.25; stroke-linejoin: miter; stroke-linecap: square"/>
   </g>
   <g id="text_21">
    <!-- 0.95~90 -->
    <g style="fill: #262626" transform="translate(580.828239 247.698) scale(0.252 -0.252)">
     <use xlink:href="#DejaVuSans-30"/>
     <use xlink:href="#DejaVuSans-2e" x="63.623047"/>
     <use xlink:href="#DejaVuSans-39" x="95.410156"/>
     <use xlink:href="#DejaVuSans-35" x="159.033203"/>
     <use xlink:href="#DejaVuSans-7e" x="222.65625"/>
     <use xlink:href="#DejaVuSans-39" x="306.445312"/>
     <use xlink:href="#DejaVuSans-30" x="370.068359"/>
    </g>
   </g>
  </g>
  <g id="axes_6">
   <g id="patch_17">
    <path d="M 808.240504 373.284 
L 1100.609573 373.284 
L 1100.609573 253.698 
L 808.240504 253.698 
z
" style="fill: #eaeaf2"/>
   </g>
   <g id="matplotlib.axis_11">
    <g id="xtick_21">
     <g id="line2d_61">
      <path d="M 821.530007 373.284 
L 821.530007 253.698 
" clip-path="url(#p22f297cab5)" style="fill: none; stroke: #ffffff; stroke-linecap: round"/>
     </g>
     <g id="text_22">
      <!-- 0 -->
      <g style="fill: #262626" transform="translate(814.18132 400.336391) scale(0.231 -0.231)">
       <use xlink:href="#DejaVuSans-30"/>
      </g>
     </g>
    </g>
    <g id="xtick_22">
     <g id="line2d_62">
      <path d="M 912.678863 373.284 
L 912.678863 253.698 
" clip-path="url(#p22f297cab5)" style="fill: none; stroke: #ffffff; stroke-linecap: round"/>
     </g>
     <g id="text_23">
      <!-- 250 -->
      <g style="fill: #262626" transform="translate(890.6328 400.336391) scale(0.231 -0.231)">
       <use xlink:href="#DejaVuSans-32"/>
       <use xlink:href="#DejaVuSans-35" x="63.623047"/>
       <use xlink:href="#DejaVuSans-30" x="127.246094"/>
      </g>
     </g>
    </g>
    <g id="xtick_23">
     <g id="line2d_63">
      <path d="M 1003.827719 373.284 
L 1003.827719 253.698 
" clip-path="url(#p22f297cab5)" style="fill: none; stroke: #ffffff; stroke-linecap: round"/>
     </g>
     <g id="text_24">
      <!-- 500 -->
      <g style="fill: #262626" transform="translate(981.781656 400.336391) scale(0.231 -0.231)">
       <use xlink:href="#DejaVuSans-35"/>
       <use xlink:href="#DejaVuSans-30" x="63.623047"/>
       <use xlink:href="#DejaVuSans-30" x="127.246094"/>
      </g>
     </g>
    </g>
    <g id="xtick_24">
     <g id="line2d_64">
      <path d="M 1094.976574 373.284 
L 1094.976574 253.698 
" clip-path="url(#p22f297cab5)" style="fill: none; stroke: #ffffff; stroke-linecap: round"/>
     </g>
     <g id="text_25">
      <!-- 750 -->
      <g style="fill: #262626" transform="translate(1072.930512 400.336391) scale(0.231 -0.231)">
       <use xlink:href="#DejaVuSans-37"/>
       <use xlink:href="#DejaVuSans-35" x="63.623047"/>
       <use xlink:href="#DejaVuSans-30" x="127.246094"/>
      </g>
     </g>
    </g>
    <g id="text_26">
     <!-- step -->
     <g style="fill: #262626" transform="translate(927.169664 428.288531) scale(0.252 -0.252)">
      <use xlink:href="#DejaVuSans-73"/>
      <use xlink:href="#DejaVuSans-74" x="52.099609"/>
      <use xlink:href="#DejaVuSans-65" x="91.308594"/>
      <use xlink:href="#DejaVuSans-70" x="152.832031"/>
     </g>
    </g>
   </g>
   <g id="matplotlib.axis_12">
    <g id="ytick_11">
     <g id="line2d_65">
      <path d="M 808.240504 340.456452 
L 1100.609573 340.456452 
" clip-path="url(#p22f297cab5)" style="fill: none; stroke: #ffffff; stroke-linecap: round"/>
     </g>
    </g>
    <g id="ytick_12">
     <g id="line2d_66">
      <path d="M 808.240504 276.579909 
L 1100.609573 276.579909 
" clip-path="url(#p22f297cab5)" style="fill: none; stroke: #ffffff; stroke-linecap: round"/>
     </g>
    </g>
   </g>
   <g id="PolyCollection_31"/>
   <g id="PolyCollection_32"/>
   <g id="PolyCollection_33"/>
   <g id="PolyCollection_34"/>
   <g id="PolyCollection_35"/>
   <g id="line2d_67">
    <path d="M 821.530007 276.579909 
L 821.894603 283.634111 
L 822.259198 283.935478 
L 822.988389 284.076674 
L 826.269748 284.075231 
L 826.634343 284.072429 
L 826.998939 283.788007 
L 834.290847 282.202746 
L 840.853565 281.035187 
L 847.780878 280.025464 
L 855.801977 279.085586 
L 864.552267 278.279193 
L 874.760939 277.563683 
L 886.792588 276.964325 
L 901.376405 276.471713 
L 919.606176 276.091901 
L 936.377565 275.938366 
L 1021.692894 276.343307 
L 1087.32007 276.382011 
L 1087.32007 276.382011 
" clip-path="url(#p22f297cab5)" style="fill: none; stroke: #dd8452; stroke-opacity: 0.9; stroke-width: 3; stroke-linecap: round"/>
   </g>
   <g id="line2d_68">
    <path d="M 821.530007 276.579909 
L 821.894603 290.132605 
L 822.259198 290.872661 
L 822.623794 291.060719 
L 823.71758 291.120963 
L 826.634343 291.072919 
L 828.821916 290.151703 
L 833.926252 288.248777 
L 836.843015 287.364513 
L 838.665992 287.225166 
L 840.124374 287.366235 
L 841.947351 287.869112 
L 843.405733 288.691793 
L 845.957901 290.692519 
L 853.979 297.0545 
L 856.166572 298.353962 
L 858.354145 299.416233 
L 860.541717 300.255619 
L 863.093885 300.99846 
L 865.281458 301.427009 
L 867.833626 301.679933 
L 870.385794 301.684789 
L 872.937962 301.459855 
L 875.49013 301.022577 
L 878.406893 300.280935 
L 881.323657 299.294208 
L 884.605015 297.931043 
L 890.438542 295.182998 
L 897.730451 291.593183 
L 901.741 289.597474 
L 904.657764 288.44338 
L 907.574527 287.587417 
L 929.814848 282.02616 
L 937.835947 280.056416 
L 941.117306 279.460121 
L 945.492451 278.887058 
L 950.961382 278.573202 
L 956.065718 278.462447 
L 987.78552 277.941897 
L 1004.556909 277.325884 
L 1021.692894 276.442589 
L 1037.005902 275.717183 
L 1045.391597 275.570427 
L 1060.704604 275.657872 
L 1082.215734 275.79148 
L 1087.32007 275.80425 
L 1087.32007 275.80425 
" clip-path="url(#p22f297cab5)" style="fill: none; stroke: #55a868; stroke-opacity: 0.9; stroke-width: 3; stroke-linecap: round"/>
   </g>
   <g id="line2d_69">
    <path d="M 821.530007 276.579909 
L 821.894603 287.231202 
L 822.259198 287.825462 
L 822.988389 288.012571 
L 826.269748 287.987735 
L 826.634343 287.98285 
L 832.46787 286.164263 
L 835.384633 285.423283 
L 837.20761 285.188073 
L 838.665992 285.271413 
L 840.488969 285.711878 
L 844.499519 287.036274 
L 846.322496 287.775495 
L 849.239259 289.527691 
L 853.979 292.591486 
L 856.895763 294.083058 
L 859.447931 295.131066 
L 861.635504 295.790017 
L 863.823076 296.235093 
L 866.010649 296.478245 
L 868.562817 296.521791 
L 871.114985 296.328166 
L 873.667153 295.937599 
L 876.583916 295.26659 
L 880.22987 294.148586 
L 888.25097 291.499724 
L 892.626115 290.402878 
L 905.75155 287.93981 
L 914.137245 286.034877 
L 925.075107 283.311076 
L 933.825397 281.166447 
L 938.929733 280.120445 
L 944.398665 279.236231 
L 951.325978 278.421888 
L 956.065718 278.122246 
L 964.451413 277.845856 
L 985.962543 277.188675 
L 1024.609658 275.726681 
L 1032.995352 275.679056 
L 1087.32007 275.920946 
L 1087.32007 275.920946 
" clip-path="url(#p22f297cab5)" style="fill: none; stroke: #c44e52; stroke-opacity: 0.9; stroke-width: 3; stroke-linecap: round"/>
   </g>
   <g id="line2d_70">
    <path d="M 821.530007 276.579909 
L 821.894603 288.996985 
L 822.259198 289.546279 
L 822.988389 289.654803 
L 826.634343 289.606643 
L 827.728129 289.193014 
L 832.46787 287.293526 
L 837.20761 285.630736 
L 842.311946 284.071659 
L 847.780878 282.638586 
L 853.614404 281.336281 
L 860.177122 280.104514 
L 866.73984 279.095676 
L 874.760939 278.107507 
L 883.511229 277.257553 
L 893.355306 276.527157 
L 905.022359 275.895581 
L 918.876985 275.377674 
L 932.367016 275.068026 
L 966.27439 275.418741 
L 1017.317749 276.027195 
L 1053.412696 276.179723 
L 1087.32007 276.250243 
L 1087.32007 276.250243 
" clip-path="url(#p22f297cab5)" style="fill: none; stroke: #8172b3; stroke-opacity: 0.9; stroke-width: 3; stroke-linecap: round"/>
   </g>
   <g id="line2d_71">
    <path d="M 821.530007 276.579909 
L 821.894603 286.543562 
L 822.259198 286.918735 
L 822.988389 287.001538 
L 826.634343 286.964647 
L 828.45732 286.379809 
L 833.561656 284.807336 
L 839.030588 283.358206 
L 844.864114 282.042089 
L 851.426832 280.800774 
L 858.354145 279.726432 
L 866.010649 278.765413 
L 874.031748 277.974946 
L 883.875825 277.224005 
L 895.178283 276.589481 
L 908.668313 276.064205 
L 925.075107 275.652333 
L 937.106756 275.526731 
L 961.899245 275.710847 
L 988.150115 275.960622 
L 1017.317749 276.148082 
L 1071.642467 276.274975 
L 1087.32007 276.289843 
L 1087.32007 276.289843 
" clip-path="url(#p22f297cab5)" style="fill: none; stroke: #937860; stroke-opacity: 0.9; stroke-width: 3; stroke-linecap: round"/>
   </g>
   <g id="patch_18">
    <path d="M 808.240504 373.284 
L 808.240504 253.698 
" style="fill: none; stroke: #ffffff; stroke-width: 1.25; stroke-linejoin: miter; stroke-linecap: square"/>
   </g>
   <g id="patch_19">
    <path d="M 808.240504 373.284 
L 1100.609573 373.284 
" style="fill: none; stroke: #ffffff; stroke-width: 1.25; stroke-linejoin: miter; stroke-linecap: square"/>
   </g>
   <g id="text_27">
    <!-- 0.95~365 -->
    <g style="fill: #262626" transform="translate(891.761695 247.698) scale(0.252 -0.252)">
     <use xlink:href="#DejaVuSans-30"/>
     <use xlink:href="#DejaVuSans-2e" x="63.623047"/>
     <use xlink:href="#DejaVuSans-39" x="95.410156"/>
     <use xlink:href="#DejaVuSans-35" x="159.033203"/>
     <use xlink:href="#DejaVuSans-7e" x="222.65625"/>
     <use xlink:href="#DejaVuSans-33" x="306.445312"/>
     <use xlink:href="#DejaVuSans-36" x="370.068359"/>
     <use xlink:href="#DejaVuSans-35" x="433.691406"/>
    </g>
   </g>
  </g>
  <g id="text_28">
   <!-- Production change from pre-shock level -->
   <g style="fill: #262626" transform="translate(280.766836 30.177675) scale(0.3024 -0.3024)">
    <defs>
     <path id="DejaVuSans-50" d="M 1259 4147 
L 1259 2394 
L 2053 2394 
Q 2494 2394 2734 2622 
Q 2975 2850 2975 3272 
Q 2975 3691 2734 3919 
Q 2494 4147 2053 4147 
L 1259 4147 
z
M 628 4666 
L 2053 4666 
Q 2838 4666 3239 4311 
Q 3641 3956 3641 3272 
Q 3641 2581 3239 2228 
Q 2838 1875 2053 1875 
L 1259 1875 
L 1259 0 
L 628 0 
L 628 4666 
z
" transform="scale(0.015625)"/>
     <path id="DejaVuSans-72" d="M 2631 2963 
Q 2534 3019 2420 3045 
Q 2306 3072 2169 3072 
Q 1681 3072 1420 2755 
Q 1159 2438 1159 1844 
L 1159 0 
L 581 0 
L 581 3500 
L 1159 3500 
L 1159 2956 
Q 1341 3275 1631 3429 
Q 1922 3584 2338 3584 
Q 2397 3584 2469 3576 
Q 2541 3569 2628 3553 
L 2631 2963 
z
" transform="scale(0.015625)"/>
     <path id="DejaVuSans-6f" d="M 1959 3097 
Q 1497 3097 1228 2736 
Q 959 2375 959 1747 
Q 959 1119 1226 758 
Q 1494 397 1959 397 
Q 2419 397 2687 759 
Q 2956 1122 2956 1747 
Q 2956 2369 2687 2733 
Q 2419 3097 1959 3097 
z
M 1959 3584 
Q 2709 3584 3137 3096 
Q 3566 2609 3566 1747 
Q 3566 888 3137 398 
Q 2709 -91 1959 -91 
Q 1206 -91 779 398 
Q 353 888 353 1747 
Q 353 2609 779 3096 
Q 1206 3584 1959 3584 
z
" transform="scale(0.015625)"/>
     <path id="DejaVuSans-64" d="M 2906 2969 
L 2906 4863 
L 3481 4863 
L 3481 0 
L 2906 0 
L 2906 525 
Q 2725 213 2448 61 
Q 2172 -91 1784 -91 
Q 1150 -91 751 415 
Q 353 922 353 1747 
Q 353 2572 751 3078 
Q 1150 3584 1784 3584 
Q 2172 3584 2448 3432 
Q 2725 3281 2906 2969 
z
M 947 1747 
Q 947 1113 1208 752 
Q 1469 391 1925 391 
Q 2381 391 2643 752 
Q 2906 1113 2906 1747 
Q 2906 2381 2643 2742 
Q 2381 3103 1925 3103 
Q 1469 3103 1208 2742 
Q 947 2381 947 1747 
z
" transform="scale(0.015625)"/>
     <path id="DejaVuSans-75" d="M 544 1381 
L 544 3500 
L 1119 3500 
L 1119 1403 
Q 1119 906 1312 657 
Q 1506 409 1894 409 
Q 2359 409 2629 706 
Q 2900 1003 2900 1516 
L 2900 3500 
L 3475 3500 
L 3475 0 
L 2900 0 
L 2900 538 
Q 2691 219 2414 64 
Q 2138 -91 1772 -91 
Q 1169 -91 856 284 
Q 544 659 544 1381 
z
M 1991 3584 
L 1991 3584 
z
" transform="scale(0.015625)"/>
     <path id="DejaVuSans-69" d="M 603 3500 
L 1178 3500 
L 1178 0 
L 603 0 
L 603 3500 
z
M 603 4863 
L 1178 4863 
L 1178 4134 
L 603 4134 
L 603 4863 
z
" transform="scale(0.015625)"/>
     <path id="DejaVuSans-66" d="M 2375 4863 
L 2375 4384 
L 1825 4384 
Q 1516 4384 1395 4259 
Q 1275 4134 1275 3809 
L 1275 3500 
L 2222 3500 
L 2222 3053 
L 1275 3053 
L 1275 0 
L 697 0 
L 697 3053 
L 147 3053 
L 147 3500 
L 697 3500 
L 697 3744 
Q 697 4328 969 4595 
Q 1241 4863 1831 4863 
L 2375 4863 
z
" transform="scale(0.015625)"/>
     <path id="DejaVuSans-6d" d="M 3328 2828 
Q 3544 3216 3844 3400 
Q 4144 3584 4550 3584 
Q 5097 3584 5394 3201 
Q 5691 2819 5691 2113 
L 5691 0 
L 5113 0 
L 5113 2094 
Q 5113 2597 4934 2840 
Q 4756 3084 4391 3084 
Q 3944 3084 3684 2787 
Q 3425 2491 3425 1978 
L 3425 0 
L 2847 0 
L 2847 2094 
Q 2847 2600 2669 2842 
Q 2491 3084 2119 3084 
Q 1678 3084 1418 2786 
Q 1159 2488 1159 1978 
L 1159 0 
L 581 0 
L 581 3500 
L 1159 3500 
L 1159 2956 
Q 1356 3278 1631 3431 
Q 1906 3584 2284 3584 
Q 2666 3584 2933 3390 
Q 3200 3197 3328 2828 
z
" transform="scale(0.015625)"/>
     <path id="DejaVuSans-2d" d="M 313 2009 
L 1997 2009 
L 1997 1497 
L 313 1497 
L 313 2009 
z
" transform="scale(0.015625)"/>
     <path id="DejaVuSans-6b" d="M 581 4863 
L 1159 4863 
L 1159 1991 
L 2875 3500 
L 3609 3500 
L 1753 1863 
L 3688 0 
L 2938 0 
L 1159 1709 
L 1159 0 
L 581 0 
L 581 4863 
z
" transform="scale(0.015625)"/>
     <path id="DejaVuSans-6c" d="M 603 4863 
L 1178 4863 
L 1178 0 
L 603 0 
L 603 4863 
z
" transform="scale(0.015625)"/>
     <path id="DejaVuSans-76" d="M 191 3500 
L 800 3500 
L 1894 563 
L 2988 3500 
L 3597 3500 
L 2284 0 
L 1503 0 
L 191 3500 
z
" transform="scale(0.015625)"/>
    </defs>
    <use xlink:href="#DejaVuSans-50"/>
    <use xlink:href="#DejaVuSans-72" x="58.552734"/>
    <use xlink:href="#DejaVuSans-6f" x="97.416016"/>
    <use xlink:href="#DejaVuSans-64" x="158.597656"/>
    <use xlink:href="#DejaVuSans-75" x="222.074219"/>
    <use xlink:href="#DejaVuSans-63" x="285.453125"/>
    <use xlink:href="#DejaVuSans-74" x="340.433594"/>
    <use xlink:href="#DejaVuSans-69" x="379.642578"/>
    <use xlink:href="#DejaVuSans-6f" x="407.425781"/>
    <use xlink:href="#DejaVuSans-6e" x="468.607422"/>
    <use xlink:href="#DejaVuSans-20" x="531.986328"/>
    <use xlink:href="#DejaVuSans-63" x="563.773438"/>
    <use xlink:href="#DejaVuSans-68" x="618.753906"/>
    <use xlink:href="#DejaVuSans-61" x="682.132812"/>
    <use xlink:href="#DejaVuSans-6e" x="743.412109"/>
    <use xlink:href="#DejaVuSans-67" x="806.791016"/>
    <use xlink:href="#DejaVuSans-65" x="870.267578"/>
    <use xlink:href="#DejaVuSans-20" x="931.791016"/>
    <use xlink:href="#DejaVuSans-66" x="963.578125"/>
    <use xlink:href="#DejaVuSans-72" x="998.783203"/>
    <use xlink:href="#DejaVuSans-6f" x="1037.646484"/>
    <use xlink:href="#DejaVuSans-6d" x="1098.828125"/>
    <use xlink:href="#DejaVuSans-20" x="1196.240234"/>
    <use xlink:href="#DejaVuSans-70" x="1228.027344"/>
    <use xlink:href="#DejaVuSans-72" x="1291.503906"/>
    <use xlink:href="#DejaVuSans-65" x="1330.367188"/>
    <use xlink:href="#DejaVuSans-2d" x="1391.890625"/>
    <use xlink:href="#DejaVuSans-73" x="1427.974609"/>
    <use xlink:href="#DejaVuSans-68" x="1480.074219"/>
    <use xlink:href="#DejaVuSans-6f" x="1543.453125"/>
    <use xlink:href="#DejaVuSans-63" x="1604.634766"/>
    <use xlink:href="#DejaVuSans-6b" x="1659.615234"/>
    <use xlink:href="#DejaVuSans-20" x="1717.525391"/>
    <use xlink:href="#DejaVuSans-6c" x="1749.3125"/>
    <use xlink:href="#DejaVuSans-65" x="1777.095703"/>
    <use xlink:href="#DejaVuSans-76" x="1838.619141"/>
    <use xlink:href="#DejaVuSans-65" x="1897.798828"/>
    <use xlink:href="#DejaVuSans-6c" x="1959.322266"/>
   </g>
  </g>
  <g id="legend_1">
   <g id="patch_20">
    <path d="M 11.82 584.31675 
L 1292.617547 584.31675 
Q 1297.237547 584.31675 1297.237547 579.69675 
L 1297.237547 476.97 
Q 1297.237547 472.35 1292.617547 472.35 
L 11.82 472.35 
Q 7.2 472.35 7.2 476.97 
L 7.2 579.69675 
Q 7.2 584.31675 11.82 584.31675 
z
" style="fill: #eaeaf2; opacity: 0.8; stroke: #cccccc; stroke-linejoin: miter"/>
   </g>
   <g id="text_29">
    <!-- Experiences -->
    <g style="fill: #262626" transform="translate(575.384367 500.738062) scale(0.252 -0.252)">
     <defs>
      <path id="DejaVuSans-45" d="M 628 4666 
L 3578 4666 
L 3578 4134 
L 1259 4134 
L 1259 2753 
L 3481 2753 
L 3481 2222 
L 1259 2222 
L 1259 531 
L 3634 531 
L 3634 0 
L 628 0 
L 628 4666 
z
" transform="scale(0.015625)"/>
      <path id="DejaVuSans-78" d="M 3513 3500 
L 2247 1797 
L 3578 0 
L 2900 0 
L 1881 1375 
L 863 0 
L 184 0 
L 1544 1831 
L 300 3500 
L 978 3500 
L 1906 2253 
L 2834 3500 
L 3513 3500 
z
" transform="scale(0.015625)"/>
     </defs>
     <use xlink:href="#DejaVuSans-45"/>
     <use xlink:href="#DejaVuSans-78" x="63.183594"/>
     <use xlink:href="#DejaVuSans-70" x="122.363281"/>
     <use xlink:href="#DejaVuSans-65" x="185.839844"/>
     <use xlink:href="#DejaVuSans-72" x="247.363281"/>
     <use xlink:href="#DejaVuSans-69" x="288.476562"/>
     <use xlink:href="#DejaVuSans-65" x="316.259766"/>
     <use xlink:href="#DejaVuSans-6e" x="377.783203"/>
     <use xlink:href="#DejaVuSans-63" x="441.162109"/>
     <use xlink:href="#DejaVuSans-65" x="496.142578"/>
     <use xlink:href="#DejaVuSans-73" x="557.666016"/>
    </g>
   </g>
   <g id="line2d_72">
    <path d="M 16.44 526.996266 
L 39.54 526.996266 
L 62.64 526.996266 
" style="fill: none; stroke: #4c72b0; stroke-opacity: 0.9; stroke-width: 3; stroke-linecap: round"/>
   </g>
   <g id="text_30">
    <!-- eora26_full_2000 -->
    <g style="fill: #262626" transform="translate(81.12 535.081266) scale(0.231 -0.231)">
     <defs>
      <path id="DejaVuSans-5f" d="M 3263 -1063 
L 3263 -1509 
L -63 -1509 
L -63 -1063 
L 3263 -1063 
z
" transform="scale(0.015625)"/>
     </defs>
     <use xlink:href="#DejaVuSans-65"/>
     <use xlink:href="#DejaVuSans-6f" x="61.523438"/>
     <use xlink:href="#DejaVuSans-72" x="122.705078"/>
     <use xlink:href="#DejaVuSans-61" x="163.818359"/>
     <use xlink:href="#DejaVuSans-32" x="225.097656"/>
     <use xlink:href="#DejaVuSans-36" x="288.720703"/>
     <use xlink:href="#DejaVuSans-5f" x="352.34375"/>
     <use xlink:href="#DejaVuSans-66" x="402.34375"/>
     <use xlink:href="#DejaVuSans-75" x="437.548828"/>
     <use xlink:href="#DejaVuSans-6c" x="500.927734"/>
     <use xlink:href="#DejaVuSans-6c" x="528.710938"/>
     <use xlink:href="#DejaVuSans-5f" x="556.494141"/>
     <use xlink:href="#DejaVuSans-32" x="606.494141"/>
     <use xlink:href="#DejaVuSans-30" x="670.117188"/>
     <use xlink:href="#DejaVuSans-30" x="733.740234"/>
     <use xlink:href="#DejaVuSans-30" x="797.363281"/>
    </g>
   </g>
   <g id="line2d_73">
    <path d="M 16.44 561.545203 
L 39.54 561.545203 
L 62.64 561.545203 
" style="fill: none; stroke: #dd8452; stroke-opacity: 0.9; stroke-width: 3; stroke-linecap: round"/>
   </g>
   <g id="text_31">
    <!-- eora26_full_2010 -->
    <g style="fill: #262626" transform="translate(81.12 569.630203) scale(0.231 -0.231)">
     <defs>
      <path id="DejaVuSans-31" d="M 794 531 
L 1825 531 
L 1825 4091 
L 703 3866 
L 703 4441 
L 1819 4666 
L 2450 4666 
L 2450 531 
L 3481 531 
L 3481 0 
L 794 0 
L 794 531 
z
" transform="scale(0.015625)"/>
     </defs>
     <use xlink:href="#DejaVuSans-65"/>
     <use xlink:href="#DejaVuSans-6f" x="61.523438"/>
     <use xlink:href="#DejaVuSans-72" x="122.705078"/>
     <use xlink:href="#DejaVuSans-61" x="163.818359"/>
     <use xlink:href="#DejaVuSans-32" x="225.097656"/>
     <use xlink:href="#DejaVuSans-36" x="288.720703"/>
     <use xlink:href="#DejaVuSans-5f" x="352.34375"/>
     <use xlink:href="#DejaVuSans-66" x="402.34375"/>
     <use xlink:href="#DejaVuSans-75" x="437.548828"/>
     <use xlink:href="#DejaVuSans-6c" x="500.927734"/>
     <use xlink:href="#DejaVuSans-6c" x="528.710938"/>
     <use xlink:href="#DejaVuSans-5f" x="556.494141"/>
     <use xlink:href="#DejaVuSans-32" x="606.494141"/>
     <use xlink:href="#DejaVuSans-30" x="670.117188"/>
     <use xlink:href="#DejaVuSans-31" x="733.740234"/>
     <use xlink:href="#DejaVuSans-30" x="797.363281"/>
    </g>
   </g>
   <g id="line2d_74">
    <path d="M 326.211 526.996266 
L 349.311 526.996266 
L 372.411 526.996266 
" style="fill: none; stroke: #55a868; stroke-opacity: 0.9; stroke-width: 3; stroke-linecap: round"/>
   </g>
   <g id="text_32">
    <!-- euregio_full_2000 -->
    <g style="fill: #262626" transform="translate(390.891 535.081266) scale(0.231 -0.231)">
     <use xlink:href="#DejaVuSans-65"/>
     <use xlink:href="#DejaVuSans-75" x="61.523438"/>
     <use xlink:href="#DejaVuSans-72" x="124.902344"/>
     <use xlink:href="#DejaVuSans-65" x="163.765625"/>
     <use xlink:href="#DejaVuSans-67" x="225.289062"/>
     <use xlink:href="#DejaVuSans-69" x="288.765625"/>
     <use xlink:href="#DejaVuSans-6f" x="316.548828"/>
     <use xlink:href="#DejaVuSans-5f" x="377.730469"/>
     <use xlink:href="#DejaVuSans-66" x="427.730469"/>
     <use xlink:href="#DejaVuSans-75" x="462.935547"/>
     <use xlink:href="#DejaVuSans-6c" x="526.314453"/>
     <use xlink:href="#DejaVuSans-6c" x="554.097656"/>
     <use xlink:href="#DejaVuSans-5f" x="581.880859"/>
     <use xlink:href="#DejaVuSans-32" x="631.880859"/>
     <use xlink:href="#DejaVuSans-30" x="695.503906"/>
     <use xlink:href="#DejaVuSans-30" x="759.126953"/>
     <use xlink:href="#DejaVuSans-30" x="822.75"/>
    </g>
   </g>
   <g id="line2d_75">
    <path d="M 326.211 561.545203 
L 349.311 561.545203 
L 372.411 561.545203 
" style="fill: none; stroke: #c44e52; stroke-opacity: 0.9; stroke-width: 3; stroke-linecap: round"/>
   </g>
   <g id="text_33">
    <!-- euregio_full_2010 -->
    <g style="fill: #262626" transform="translate(390.891 569.630203) scale(0.231 -0.231)">
     <use xlink:href="#DejaVuSans-65"/>
     <use xlink:href="#DejaVuSans-75" x="61.523438"/>
     <use xlink:href="#DejaVuSans-72" x="124.902344"/>
     <use xlink:href="#DejaVuSans-65" x="163.765625"/>
     <use xlink:href="#DejaVuSans-67" x="225.289062"/>
     <use xlink:href="#DejaVuSans-69" x="288.765625"/>
     <use xlink:href="#DejaVuSans-6f" x="316.548828"/>
     <use xlink:href="#DejaVuSans-5f" x="377.730469"/>
     <use xlink:href="#DejaVuSans-66" x="427.730469"/>
     <use xlink:href="#DejaVuSans-75" x="462.935547"/>
     <use xlink:href="#DejaVuSans-6c" x="526.314453"/>
     <use xlink:href="#DejaVuSans-6c" x="554.097656"/>
     <use xlink:href="#DejaVuSans-5f" x="581.880859"/>
     <use xlink:href="#DejaVuSans-32" x="631.880859"/>
     <use xlink:href="#DejaVuSans-30" x="695.503906"/>
     <use xlink:href="#DejaVuSans-31" x="759.126953"/>
     <use xlink:href="#DejaVuSans-30" x="822.75"/>
    </g>
   </g>
   <g id="line2d_76">
    <path d="M 641.847234 526.996266 
L 664.947234 526.996266 
L 688.047234 526.996266 
" style="fill: none; stroke: #8172b3; stroke-opacity: 0.9; stroke-width: 3; stroke-linecap: round"/>
   </g>
   <g id="text_34">
    <!-- exiobase3_full_2000 -->
    <g style="fill: #262626" transform="translate(706.527234 535.081266) scale(0.231 -0.231)">
     <defs>
      <path id="DejaVuSans-62" d="M 3116 1747 
Q 3116 2381 2855 2742 
Q 2594 3103 2138 3103 
Q 1681 3103 1420 2742 
Q 1159 2381 1159 1747 
Q 1159 1113 1420 752 
Q 1681 391 2138 391 
Q 2594 391 2855 752 
Q 3116 1113 3116 1747 
z
M 1159 2969 
Q 1341 3281 1617 3432 
Q 1894 3584 2278 3584 
Q 2916 3584 3314 3078 
Q 3713 2572 3713 1747 
Q 3713 922 3314 415 
Q 2916 -91 2278 -91 
Q 1894 -91 1617 61 
Q 1341 213 1159 525 
L 1159 0 
L 581 0 
L 581 4863 
L 1159 4863 
L 1159 2969 
z
" transform="scale(0.015625)"/>
     </defs>
     <use xlink:href="#DejaVuSans-65"/>
     <use xlink:href="#DejaVuSans-78" x="59.773438"/>
     <use xlink:href="#DejaVuSans-69" x="118.953125"/>
     <use xlink:href="#DejaVuSans-6f" x="146.736328"/>
     <use xlink:href="#DejaVuSans-62" x="207.917969"/>
     <use xlink:href="#DejaVuSans-61" x="271.394531"/>
     <use xlink:href="#DejaVuSans-73" x="332.673828"/>
     <use xlink:href="#DejaVuSans-65" x="384.773438"/>
     <use xlink:href="#DejaVuSans-33" x="446.296875"/>
     <use xlink:href="#DejaVuSans-5f" x="509.919922"/>
     <use xlink:href="#DejaVuSans-66" x="559.919922"/>
     <use xlink:href="#DejaVuSans-75" x="595.125"/>
     <use xlink:href="#DejaVuSans-6c" x="658.503906"/>
     <use xlink:href="#DejaVuSans-6c" x="686.287109"/>
     <use xlink:href="#DejaVuSans-5f" x="714.070312"/>
     <use xlink:href="#DejaVuSans-32" x="764.070312"/>
     <use xlink:href="#DejaVuSans-30" x="827.693359"/>
     <use xlink:href="#DejaVuSans-30" x="891.316406"/>
     <use xlink:href="#DejaVuSans-30" x="954.939453"/>
    </g>
   </g>
   <g id="line2d_77">
    <path d="M 988.022391 526.996266 
L 1011.122391 526.996266 
L 1034.222391 526.996266 
" style="fill: none; stroke: #937860; stroke-opacity: 0.9; stroke-width: 3; stroke-linecap: round"/>
   </g>
   <g id="text_35">
    <!-- exiobase3_full_2010 -->
    <g style="fill: #262626" transform="translate(1052.702391 535.081266) scale(0.231 -0.231)">
     <use xlink:href="#DejaVuSans-65"/>
     <use xlink:href="#DejaVuSans-78" x="59.773438"/>
     <use xlink:href="#DejaVuSans-69" x="118.953125"/>
     <use xlink:href="#DejaVuSans-6f" x="146.736328"/>
     <use xlink:href="#DejaVuSans-62" x="207.917969"/>
     <use xlink:href="#DejaVuSans-61" x="271.394531"/>
     <use xlink:href="#DejaVuSans-73" x="332.673828"/>
     <use xlink:href="#DejaVuSans-65" x="384.773438"/>
     <use xlink:href="#DejaVuSans-33" x="446.296875"/>
     <use xlink:href="#DejaVuSans-5f" x="509.919922"/>
     <use xlink:href="#DejaVuSans-66" x="559.919922"/>
     <use xlink:href="#DejaVuSans-75" x="595.125"/>
     <use xlink:href="#DejaVuSans-6c" x="658.503906"/>
     <use xlink:href="#DejaVuSans-6c" x="686.287109"/>
     <use xlink:href="#DejaVuSans-5f" x="714.070312"/>
     <use xlink:href="#DejaVuSans-32" x="764.070312"/>
     <use xlink:href="#DejaVuSans-30" x="827.693359"/>
     <use xlink:href="#DejaVuSans-31" x="891.316406"/>
     <use xlink:href="#DejaVuSans-30" x="954.939453"/>
    </g>
   </g>
  </g>
 </g>
 <defs>
  <clipPath id="p9add2f8e98">
   <rect x="170.340091" y="81.456" width="292.369069" height="119.586"/>
  </clipPath>
  <clipPath id="p725cad13c3">
   <rect x="489.290298" y="81.456" width="292.369069" height="119.586"/>
  </clipPath>
  <clipPath id="p2490a3d78f">
   <rect x="808.240504" y="81.456" width="292.369069" height="119.586"/>
  </clipPath>
  <clipPath id="pc9891cce82">
   <rect x="170.340091" y="253.698" width="292.369069" height="119.586"/>
  </clipPath>
  <clipPath id="p9d7457787b">
   <rect x="489.290298" y="253.698" width="292.369069" height="119.586"/>
  </clipPath>
  <clipPath id="p22f297cab5">
   <rect x="808.240504" y="253.698" width="292.369069" height="119.586"/>
  </clipPath>
 </defs>
</svg>
