<?xml version="1.0" encoding="utf-8" standalone="no"?>
<!DOCTYPE svg PUBLIC "-//W3C//DTD SVG 1.1//EN"
  "http://www.w3.org/Graphics/SVG/1.1/DTD/svg11.dtd">
<svg xmlns:xlink="http://www.w3.org/1999/xlink" width="1304.437547pt" height="591.51675pt" viewBox="0 0 1304.437547 591.51675" xmlns="http://www.w3.org/2000/svg" version="1.1">
 <metadata>
  <rdf:RDF xmlns:dc="http://purl.org/dc/elements/1.1/" xmlns:cc="http://creativecommons.org/ns#" xmlns:rdf="http://www.w3.org/1999/02/22-rdf-syntax-ns#">
   <cc:Work>
    <dc:type rdf:resource="http://purl.org/dc/dcmitype/StillImage"/>
    <dc:date>2023-04-13T17:28:12.854892</dc:date>
    <dc:format>image/svg+xml</dc:format>
    <dc:creator>
     <cc:Agent>
      <dc:title>Matplotlib v3.7.1, https://matplotlib.org/</dc:title>
     </cc:Agent>
    </dc:creator>
   </cc:Work>
  </rdf:RDF>
 </metadata>
 <defs>
  <style type="text/css">*{stroke-linejoin: round; stroke-linecap: butt}</style>
 </defs>
 <g id="figure_1">
  <g id="patch_1">
   <path d="M 0 591.51675 
L 1304.437547 591.51675 
L 1304.437547 -0 
L 0 -0 
z
" style="fill: #ffffff"/>
  </g>
  <g id="axes_1">
   <g id="patch_2">
    <path d="M 142.032503 199.648952 
L 443.709706 199.648952 
L 443.709706 81.456 
L 142.032503 81.456 
z
" style="fill: #eaeaf2"/>
   </g>
   <g id="matplotlib.axis_1">
    <g id="xtick_1">
     <g id="line2d_1">
      <path d="M 155.745103 199.648952 
L 155.745103 81.456 
" clip-path="url(#p93a0004051)" style="fill: none; stroke: #ffffff; stroke-linecap: round"/>
     </g>
    </g>
    <g id="xtick_2">
     <g id="line2d_2">
      <path d="M 249.795858 199.648952 
L 249.795858 81.456 
" clip-path="url(#p93a0004051)" style="fill: none; stroke: #ffffff; stroke-linecap: round"/>
     </g>
    </g>
    <g id="xtick_3">
     <g id="line2d_3">
      <path d="M 343.846614 199.648952 
L 343.846614 81.456 
" clip-path="url(#p93a0004051)" style="fill: none; stroke: #ffffff; stroke-linecap: round"/>
     </g>
    </g>
    <g id="xtick_4">
     <g id="line2d_4">
      <path d="M 437.897369 199.648952 
L 437.897369 81.456 
" clip-path="url(#p93a0004051)" style="fill: none; stroke: #ffffff; stroke-linecap: round"/>
     </g>
    </g>
   </g>
   <g id="matplotlib.axis_2">
    <g id="ytick_1">
     <g id="line2d_5">
      <path d="M 142.032503 188.729461 
L 443.709706 188.729461 
" clip-path="url(#p93a0004051)" style="fill: none; stroke: #ffffff; stroke-linecap: round"/>
     </g>
     <g id="text_1">
      <!-- −1 -->
      <g style="fill: #262626" transform="translate(98.47805 197.505657) scale(0.231 -0.231)">
       <defs>
        <path id="DejaVuSans-2212" d="M 678 2272 
L 4684 2272 
L 4684 1741 
L 678 1741 
L 678 2272 
z
" transform="scale(0.015625)"/>
        <path id="DejaVuSans-31" d="M 794 531 
L 1825 531 
L 1825 4091 
L 703 3866 
L 703 4441 
L 1819 4666 
L 2450 4666 
L 2450 531 
L 3481 531 
L 3481 0 
L 794 0 
L 794 531 
z
" transform="scale(0.015625)"/>
       </defs>
       <use xlink:href="#DejaVuSans-2212"/>
       <use xlink:href="#DejaVuSans-31" x="83.789062"/>
      </g>
     </g>
    </g>
    <g id="ytick_2">
     <g id="line2d_6">
      <path d="M 142.032503 121.661872 
L 443.709706 121.661872 
" clip-path="url(#p93a0004051)" style="fill: none; stroke: #ffffff; stroke-linecap: round"/>
     </g>
     <g id="text_2">
      <!-- 0 -->
      <g style="fill: #262626" transform="translate(117.835128 130.438067) scale(0.231 -0.231)">
       <defs>
        <path id="DejaVuSans-30" d="M 2034 4250 
Q 1547 4250 1301 3770 
Q 1056 3291 1056 2328 
Q 1056 1369 1301 889 
Q 1547 409 2034 409 
Q 2525 409 2770 889 
Q 3016 1369 3016 2328 
Q 3016 3291 2770 3770 
Q 2525 4250 2034 4250 
z
M 2034 4750 
Q 2819 4750 3233 4129 
Q 3647 3509 3647 2328 
Q 3647 1150 3233 529 
Q 2819 -91 2034 -91 
Q 1250 -91 836 529 
Q 422 1150 422 2328 
Q 422 3509 836 4129 
Q 1250 4750 2034 4750 
z
" transform="scale(0.015625)"/>
       </defs>
       <use xlink:href="#DejaVuSans-30"/>
      </g>
     </g>
    </g>
    <g id="text_3">
     <!-- % change -->
     <g style="fill: #262626" transform="translate(89.237237 202.90082) rotate(-90) scale(0.252 -0.252)">
      <defs>
       <path id="DejaVuSans-25" d="M 4653 2053 
Q 4381 2053 4226 1822 
Q 4072 1591 4072 1178 
Q 4072 772 4226 539 
Q 4381 306 4653 306 
Q 4919 306 5073 539 
Q 5228 772 5228 1178 
Q 5228 1588 5073 1820 
Q 4919 2053 4653 2053 
z
M 4653 2450 
Q 5147 2450 5437 2106 
Q 5728 1763 5728 1178 
Q 5728 594 5436 251 
Q 5144 -91 4653 -91 
Q 4153 -91 3862 251 
Q 3572 594 3572 1178 
Q 3572 1766 3864 2108 
Q 4156 2450 4653 2450 
z
M 1428 4353 
Q 1159 4353 1004 4120 
Q 850 3888 850 3481 
Q 850 3069 1003 2837 
Q 1156 2606 1428 2606 
Q 1700 2606 1854 2837 
Q 2009 3069 2009 3481 
Q 2009 3884 1853 4118 
Q 1697 4353 1428 4353 
z
M 4250 4750 
L 4750 4750 
L 1831 -91 
L 1331 -91 
L 4250 4750 
z
M 1428 4750 
Q 1922 4750 2215 4408 
Q 2509 4066 2509 3481 
Q 2509 2891 2217 2550 
Q 1925 2209 1428 2209 
Q 931 2209 642 2551 
Q 353 2894 353 3481 
Q 353 4063 643 4406 
Q 934 4750 1428 4750 
z
" transform="scale(0.015625)"/>
       <path id="DejaVuSans-20" transform="scale(0.015625)"/>
       <path id="DejaVuSans-63" d="M 3122 3366 
L 3122 2828 
Q 2878 2963 2633 3030 
Q 2388 3097 2138 3097 
Q 1578 3097 1268 2742 
Q 959 2388 959 1747 
Q 959 1106 1268 751 
Q 1578 397 2138 397 
Q 2388 397 2633 464 
Q 2878 531 3122 666 
L 3122 134 
Q 2881 22 2623 -34 
Q 2366 -91 2075 -91 
Q 1284 -91 818 406 
Q 353 903 353 1747 
Q 353 2603 823 3093 
Q 1294 3584 2113 3584 
Q 2378 3584 2631 3529 
Q 2884 3475 3122 3366 
z
" transform="scale(0.015625)"/>
       <path id="DejaVuSans-68" d="M 3513 2113 
L 3513 0 
L 2938 0 
L 2938 2094 
Q 2938 2591 2744 2837 
Q 2550 3084 2163 3084 
Q 1697 3084 1428 2787 
Q 1159 2491 1159 1978 
L 1159 0 
L 581 0 
L 581 4863 
L 1159 4863 
L 1159 2956 
Q 1366 3272 1645 3428 
Q 1925 3584 2291 3584 
Q 2894 3584 3203 3211 
Q 3513 2838 3513 2113 
z
" transform="scale(0.015625)"/>
       <path id="DejaVuSans-61" d="M 2194 1759 
Q 1497 1759 1228 1600 
Q 959 1441 959 1056 
Q 959 750 1161 570 
Q 1363 391 1709 391 
Q 2188 391 2477 730 
Q 2766 1069 2766 1631 
L 2766 1759 
L 2194 1759 
z
M 3341 1997 
L 3341 0 
L 2766 0 
L 2766 531 
Q 2569 213 2275 61 
Q 1981 -91 1556 -91 
Q 1019 -91 701 211 
Q 384 513 384 1019 
Q 384 1609 779 1909 
Q 1175 2209 1959 2209 
L 2766 2209 
L 2766 2266 
Q 2766 2663 2505 2880 
Q 2244 3097 1772 3097 
Q 1472 3097 1187 3025 
Q 903 2953 641 2809 
L 641 3341 
Q 956 3463 1253 3523 
Q 1550 3584 1831 3584 
Q 2591 3584 2966 3190 
Q 3341 2797 3341 1997 
z
" transform="scale(0.015625)"/>
       <path id="DejaVuSans-6e" d="M 3513 2113 
L 3513 0 
L 2938 0 
L 2938 2094 
Q 2938 2591 2744 2837 
Q 2550 3084 2163 3084 
Q 1697 3084 1428 2787 
Q 1159 2491 1159 1978 
L 1159 0 
L 581 0 
L 581 3500 
L 1159 3500 
L 1159 2956 
Q 1366 3272 1645 3428 
Q 1925 3584 2291 3584 
Q 2894 3584 3203 3211 
Q 3513 2838 3513 2113 
z
" transform="scale(0.015625)"/>
       <path id="DejaVuSans-67" d="M 2906 1791 
Q 2906 2416 2648 2759 
Q 2391 3103 1925 3103 
Q 1463 3103 1205 2759 
Q 947 2416 947 1791 
Q 947 1169 1205 825 
Q 1463 481 1925 481 
Q 2391 481 2648 825 
Q 2906 1169 2906 1791 
z
M 3481 434 
Q 3481 -459 3084 -895 
Q 2688 -1331 1869 -1331 
Q 1566 -1331 1297 -1286 
Q 1028 -1241 775 -1147 
L 775 -588 
Q 1028 -725 1275 -790 
Q 1522 -856 1778 -856 
Q 2344 -856 2625 -561 
Q 2906 -266 2906 331 
L 2906 616 
Q 2728 306 2450 153 
Q 2172 0 1784 0 
Q 1141 0 747 490 
Q 353 981 353 1791 
Q 353 2603 747 3093 
Q 1141 3584 1784 3584 
Q 2172 3584 2450 3431 
Q 2728 3278 2906 2969 
L 2906 3500 
L 3481 3500 
L 3481 434 
z
" transform="scale(0.015625)"/>
       <path id="DejaVuSans-65" d="M 3597 1894 
L 3597 1613 
L 953 1613 
Q 991 1019 1311 708 
Q 1631 397 2203 397 
Q 2534 397 2845 478 
Q 3156 559 3463 722 
L 3463 178 
Q 3153 47 2828 -22 
Q 2503 -91 2169 -91 
Q 1331 -91 842 396 
Q 353 884 353 1716 
Q 353 2575 817 3079 
Q 1281 3584 2069 3584 
Q 2775 3584 3186 3129 
Q 3597 2675 3597 1894 
z
M 3022 2063 
Q 3016 2534 2758 2815 
Q 2500 3097 2075 3097 
Q 1594 3097 1305 2825 
Q 1016 2553 972 2059 
L 3022 2063 
z
" transform="scale(0.015625)"/>
      </defs>
      <use xlink:href="#DejaVuSans-25"/>
      <use xlink:href="#DejaVuSans-20" x="95.019531"/>
      <use xlink:href="#DejaVuSans-63" x="126.806641"/>
      <use xlink:href="#DejaVuSans-68" x="181.787109"/>
      <use xlink:href="#DejaVuSans-61" x="245.166016"/>
      <use xlink:href="#DejaVuSans-6e" x="306.445312"/>
      <use xlink:href="#DejaVuSans-67" x="369.824219"/>
      <use xlink:href="#DejaVuSans-65" x="433.300781"/>
     </g>
    </g>
   </g>
   <g id="PolyCollection_1"/>
   <g id="PolyCollection_2"/>
   <g id="PolyCollection_3"/>
   <g id="PolyCollection_4"/>
   <g id="PolyCollection_5"/>
   <g id="PolyCollection_6"/>
   <g id="line2d_7">
    <path d="M 155.745103 121.661872 
L 156.121306 155.612239 
L 156.497509 156.681931 
L 156.873712 156.84636 
L 157.626118 156.610027 
L 161.388148 154.878908 
L 163.269163 153.12356 
L 167.7836 149.003194 
L 172.674239 144.82044 
L 178.693487 140.22893 
L 183.584127 136.744499 
L 189.979578 132.464797 
L 196.751232 128.209152 
L 202.394278 124.880142 
L 208.037323 122.487819 
L 213.304165 120.4576 
L 220.07582 118.819307 
L 224.590256 117.997997 
L 229.857098 117.164299 
L 237.757362 117.592724 
L 246.786234 118.158588 
L 257.696122 118.813575 
L 262.962964 119.137201 
L 270.110822 119.302876 
L 287.039958 119.453271 
L 327.669884 119.528993 
L 429.997106 119.540078 
L 429.997106 119.540078 
" clip-path="url(#p93a0004051)" style="fill: none; stroke: #4c72b0; stroke-opacity: 0.9; stroke-width: 3; stroke-linecap: round"/>
   </g>
   <g id="line2d_8">
    <path d="M 155.745103 121.661872 
L 156.121306 140.178593 
L 156.497509 140.906202 
L 156.873712 141.106154 
L 157.626118 141.078053 
L 161.388148 140.26573 
L 163.269163 139.371209 
L 169.664615 136.324457 
L 176.436269 133.353289 
L 181.703112 131.248633 
L 188.474766 128.791152 
L 197.879841 125.649495 
L 203.89909 123.807882 
L 213.304165 121.633945 
L 215.937587 121.152466 
L 227.59988 119.244224 
L 229.857098 119.014732 
L 243.024204 119.277091 
L 252.42928 119.617131 
L 273.872852 119.992635 
L 296.821236 120.212027 
L 395.010225 120.240581 
L 429.997106 120.240807 
L 429.997106 120.240807 
" clip-path="url(#p93a0004051)" style="fill: none; stroke: #dd8452; stroke-opacity: 0.9; stroke-width: 3; stroke-linecap: round"/>
   </g>
   <g id="line2d_9">
    <path d="M 155.745103 121.661872 
L 156.121306 157.239403 
L 156.497509 159.039772 
L 156.873712 159.367935 
L 157.626118 159.186471 
L 161.388148 157.39209 
L 163.269163 155.529206 
L 167.7836 151.11679 
L 172.674239 146.641189 
L 177.564878 142.452206 
L 182.831721 138.214653 
L 187.346157 134.835268 
L 192.989202 130.900461 
L 199.384654 126.720241 
L 203.146684 124.453595 
L 207.284917 122.364437 
L 210.670744 120.929737 
L 213.680368 119.937893 
L 218.947211 118.669375 
L 224.966459 117.583468 
L 229.480895 116.9351 
L 233.242926 117.253457 
L 250.172062 118.815256 
L 259.95334 119.312734 
L 269.734619 119.588009 
L 284.406537 119.759311 
L 315.255184 119.854525 
L 429.997106 119.872658 
L 429.997106 119.872658 
" clip-path="url(#p93a0004051)" style="fill: none; stroke: #55a868; stroke-opacity: 0.9; stroke-width: 3; stroke-linecap: round"/>
   </g>
   <g id="line2d_10">
    <path d="M 155.745103 121.661872 
L 156.121306 149.622863 
L 156.497509 151.070192 
L 156.873712 151.328019 
L 157.626118 151.17927 
L 161.388148 149.749619 
L 163.269163 148.278228 
L 168.536006 144.212016 
L 173.426645 140.705216 
L 179.06969 136.93979 
L 184.336533 133.672395 
L 189.603375 130.658486 
L 196.375029 127.086251 
L 202.394278 124.130417 
L 205.403902 122.911896 
L 209.165932 121.595402 
L 212.551759 120.659921 
L 217.442399 119.694587 
L 225.342662 118.518216 
L 229.480895 118.060439 
L 238.885971 118.632182 
L 252.805483 119.440263 
L 264.091573 119.800164 
L 279.139694 120.001606 
L 306.978718 120.102419 
L 409.682143 120.122186 
L 429.997106 120.121748 
L 429.997106 120.121748 
" clip-path="url(#p93a0004051)" style="fill: none; stroke: #c44e52; stroke-opacity: 0.9; stroke-width: 3; stroke-linecap: round"/>
   </g>
   <g id="line2d_11">
    <path d="M 155.745103 121.661872 
L 156.121306 154.256436 
L 156.497509 155.552032 
L 156.873712 155.639616 
L 158.002321 155.198067 
L 161.388148 153.710044 
L 173.802848 143.005005 
L 179.06969 138.938518 
L 184.712736 134.864132 
L 190.731984 130.885871 
L 197.503638 126.668929 
L 202.018075 124.064605 
L 206.156308 122.061419 
L 210.294541 120.40726 
L 213.680368 119.213145 
L 219.323414 117.472045 
L 221.956835 116.873925 
L 228.352286 115.926486 
L 229.857098 115.829801 
L 233.619129 116.167028 
L 241.143189 117.007126 
L 250.548265 117.958445 
L 259.200934 118.888649 
L 265.596385 119.217655 
L 275.377664 119.473793 
L 293.435409 119.643864 
L 330.679508 119.731851 
L 429.997106 119.748266 
L 429.997106 119.748266 
" clip-path="url(#p93a0004051)" style="fill: none; stroke: #8172b3; stroke-opacity: 0.9; stroke-width: 3; stroke-linecap: round"/>
   </g>
   <g id="line2d_12">
    <path d="M 155.745103 121.661872 
L 156.121306 147.816172 
L 156.497509 148.688773 
L 156.873712 148.755311 
L 158.378524 148.289394 
L 161.764351 147.025001 
L 168.159803 142.556187 
L 173.802848 138.910135 
L 179.822096 135.28597 
L 185.088939 132.339943 
L 191.860593 128.827254 
L 199.384654 125.184281 
L 203.146684 123.520075 
L 206.532511 122.32937 
L 212.175556 120.597879 
L 217.442399 119.168779 
L 221.204429 118.31452 
L 228.352286 117.215468 
L 229.857098 117.111751 
L 236.628753 117.519513 
L 255.062701 118.735181 
L 260.705746 119.229697 
L 268.60601 119.553494 
L 279.515897 119.726138 
L 305.473906 119.869129 
L 373.19045 119.913832 
L 429.997106 119.914153 
L 429.997106 119.914153 
" clip-path="url(#p93a0004051)" style="fill: none; stroke: #937860; stroke-opacity: 0.9; stroke-width: 3; stroke-linecap: round"/>
   </g>
   <g id="patch_3">
    <path d="M 142.032503 199.648952 
L 142.032503 81.456 
" style="fill: none; stroke: #ffffff; stroke-width: 1.25; stroke-linejoin: miter; stroke-linecap: square"/>
   </g>
   <g id="patch_4">
    <path d="M 142.032503 199.648952 
L 443.709706 199.648952 
" style="fill: none; stroke: #ffffff; stroke-width: 1.25; stroke-linejoin: miter; stroke-linecap: square"/>
   </g>
   <g id="text_4">
    <!-- 0.5~30 -->
    <g style="fill: #262626" transform="translate(246.241261 75.456) scale(0.252 -0.252)">
     <defs>
      <path id="DejaVuSans-2e" d="M 684 794 
L 1344 794 
L 1344 0 
L 684 0 
L 684 794 
z
" transform="scale(0.015625)"/>
      <path id="DejaVuSans-35" d="M 691 4666 
L 3169 4666 
L 3169 4134 
L 1269 4134 
L 1269 2991 
Q 1406 3038 1543 3061 
Q 1681 3084 1819 3084 
Q 2600 3084 3056 2656 
Q 3513 2228 3513 1497 
Q 3513 744 3044 326 
Q 2575 -91 1722 -91 
Q 1428 -91 1123 -41 
Q 819 9 494 109 
L 494 744 
Q 775 591 1075 516 
Q 1375 441 1709 441 
Q 2250 441 2565 725 
Q 2881 1009 2881 1497 
Q 2881 1984 2565 2268 
Q 2250 2553 1709 2553 
Q 1456 2553 1204 2497 
Q 953 2441 691 2322 
L 691 4666 
z
" transform="scale(0.015625)"/>
      <path id="DejaVuSans-7e" d="M 4684 2553 
L 4684 1997 
Q 4356 1750 4076 1644 
Q 3797 1538 3494 1538 
Q 3150 1538 2694 1722 
Q 2659 1734 2644 1741 
Q 2622 1750 2575 1766 
Q 2091 1959 1797 1959 
Q 1522 1959 1253 1839 
Q 984 1719 678 1459 
L 678 2016 
Q 1006 2263 1286 2370 
Q 1566 2478 1869 2478 
Q 2213 2478 2672 2291 
Q 2703 2278 2719 2272 
Q 2744 2263 2788 2247 
Q 3272 2053 3566 2053 
Q 3834 2053 4098 2172 
Q 4363 2291 4684 2553 
z
" transform="scale(0.015625)"/>
      <path id="DejaVuSans-33" d="M 2597 2516 
Q 3050 2419 3304 2112 
Q 3559 1806 3559 1356 
Q 3559 666 3084 287 
Q 2609 -91 1734 -91 
Q 1441 -91 1130 -33 
Q 819 25 488 141 
L 488 750 
Q 750 597 1062 519 
Q 1375 441 1716 441 
Q 2309 441 2620 675 
Q 2931 909 2931 1356 
Q 2931 1769 2642 2001 
Q 2353 2234 1838 2234 
L 1294 2234 
L 1294 2753 
L 1863 2753 
Q 2328 2753 2575 2939 
Q 2822 3125 2822 3475 
Q 2822 3834 2567 4026 
Q 2313 4219 1838 4219 
Q 1578 4219 1281 4162 
Q 984 4106 628 3988 
L 628 4550 
Q 988 4650 1302 4700 
Q 1616 4750 1894 4750 
Q 2613 4750 3031 4423 
Q 3450 4097 3450 3541 
Q 3450 3153 3228 2886 
Q 3006 2619 2597 2516 
z
" transform="scale(0.015625)"/>
     </defs>
     <use xlink:href="#DejaVuSans-30"/>
     <use xlink:href="#DejaVuSans-2e" x="63.623047"/>
     <use xlink:href="#DejaVuSans-35" x="95.410156"/>
     <use xlink:href="#DejaVuSans-7e" x="159.033203"/>
     <use xlink:href="#DejaVuSans-33" x="242.822266"/>
     <use xlink:href="#DejaVuSans-30" x="306.445312"/>
    </g>
   </g>
  </g>
  <g id="axes_2">
   <g id="patch_5">
    <path d="M 470.482436 199.648952 
L 772.15964 199.648952 
L 772.15964 81.456 
L 470.482436 81.456 
z
" style="fill: #eaeaf2"/>
   </g>
   <g id="matplotlib.axis_3">
    <g id="xtick_5">
     <g id="line2d_13">
      <path d="M 484.195037 199.648952 
L 484.195037 81.456 
" clip-path="url(#pfc075be432)" style="fill: none; stroke: #ffffff; stroke-linecap: round"/>
     </g>
    </g>
    <g id="xtick_6">
     <g id="line2d_14">
      <path d="M 578.245792 199.648952 
L 578.245792 81.456 
" clip-path="url(#pfc075be432)" style="fill: none; stroke: #ffffff; stroke-linecap: round"/>
     </g>
    </g>
    <g id="xtick_7">
     <g id="line2d_15">
      <path d="M 672.296548 199.648952 
L 672.296548 81.456 
" clip-path="url(#pfc075be432)" style="fill: none; stroke: #ffffff; stroke-linecap: round"/>
     </g>
    </g>
    <g id="xtick_8">
     <g id="line2d_16">
      <path d="M 766.347303 199.648952 
L 766.347303 81.456 
" clip-path="url(#pfc075be432)" style="fill: none; stroke: #ffffff; stroke-linecap: round"/>
     </g>
    </g>
   </g>
   <g id="matplotlib.axis_4">
    <g id="ytick_3">
     <g id="line2d_17">
      <path d="M 470.482436 188.729461 
L 772.15964 188.729461 
" clip-path="url(#pfc075be432)" style="fill: none; stroke: #ffffff; stroke-linecap: round"/>
     </g>
    </g>
    <g id="ytick_4">
     <g id="line2d_18">
      <path d="M 470.482436 121.661872 
L 772.15964 121.661872 
" clip-path="url(#pfc075be432)" style="fill: none; stroke: #ffffff; stroke-linecap: round"/>
     </g>
    </g>
   </g>
   <g id="PolyCollection_7"/>
   <g id="PolyCollection_8"/>
   <g id="PolyCollection_9"/>
   <g id="PolyCollection_10"/>
   <g id="PolyCollection_11"/>
   <g id="PolyCollection_12"/>
   <g id="line2d_19">
    <path d="M 484.195037 121.661872 
L 484.57124 155.612239 
L 484.947443 156.819244 
L 485.323646 157.142329 
L 486.076052 157.23378 
L 489.838082 157.093215 
L 491.342894 156.301008 
L 515.419887 142.824132 
L 537.239663 130.85751 
L 549.654362 124.256677 
L 555.673611 121.29042 
L 557.554626 120.593028 
L 562.445265 120.610384 
L 616.242297 120.972395 
L 632.042824 121.215864 
L 659.881848 121.35748 
L 721.579143 121.431547 
L 758.44704 121.438572 
L 758.44704 121.438572 
" clip-path="url(#pfc075be432)" style="fill: none; stroke: #4c72b0; stroke-opacity: 0.9; stroke-width: 3; stroke-linecap: round"/>
   </g>
   <g id="line2d_20">
    <path d="M 484.195037 121.661872 
L 484.57124 140.178593 
L 484.947443 140.969662 
L 485.323646 141.24373 
L 486.076052 141.371705 
L 489.461879 141.329153 
L 490.214285 141.237974 
L 494.352518 139.972133 
L 526.329775 130.171977 
L 551.159175 122.768802 
L 556.80222 121.293578 
L 557.930829 121.123631 
L 735.498655 121.512881 
L 758.44704 121.516871 
L 758.44704 121.516871 
" clip-path="url(#pfc075be432)" style="fill: none; stroke: #dd8452; stroke-opacity: 0.9; stroke-width: 3; stroke-linecap: round"/>
   </g>
   <g id="line2d_21">
    <path d="M 484.195037 121.661872 
L 484.57124 157.239403 
L 484.947443 159.182185 
L 485.323646 159.675857 
L 486.076052 159.836484 
L 489.461879 159.707882 
L 489.838082 159.691294 
L 491.342894 158.836712 
L 514.291278 145.017367 
L 537.239663 131.468452 
L 551.159175 123.471802 
L 554.545002 121.727369 
L 557.554626 120.411148 
L 564.702483 120.399274 
L 588.403274 120.504043 
L 601.570379 120.76167 
L 625.27117 121.19847 
L 656.119818 121.424567 
L 713.67888 121.484871 
L 758.44704 121.487011 
L 758.44704 121.487011 
" clip-path="url(#pfc075be432)" style="fill: none; stroke: #55a868; stroke-opacity: 0.9; stroke-width: 3; stroke-linecap: round"/>
   </g>
   <g id="line2d_22">
    <path d="M 484.195037 121.661872 
L 484.57124 149.622863 
L 484.947443 151.182927 
L 485.323646 151.572378 
L 486.076052 151.695857 
L 489.838082 151.583274 
L 491.342894 150.914787 
L 518.429512 138.105866 
L 542.130302 127.140951 
L 553.04019 122.294718 
L 554.921205 121.607885 
L 557.554626 120.721863 
L 568.088311 120.697911 
L 590.660492 120.809777 
L 638.062073 121.359538 
L 666.277299 121.482341 
L 757.694634 121.513389 
L 758.44704 121.51338 
L 758.44704 121.51338 
" clip-path="url(#pfc075be432)" style="fill: none; stroke: #c44e52; stroke-opacity: 0.9; stroke-width: 3; stroke-linecap: round"/>
   </g>
   <g id="line2d_23">
    <path d="M 484.195037 121.661872 
L 484.57124 154.256436 
L 484.947443 155.698452 
L 485.323646 155.94226 
L 486.452255 155.970207 
L 489.838082 155.842666 
L 492.0953 154.64143 
L 515.043684 142.274677 
L 539.496881 129.348336 
L 554.168799 121.785894 
L 556.80222 120.693509 
L 557.554626 120.408896 
L 565.831092 120.389614 
L 589.15568 120.486162 
L 695.244932 121.335188 
L 758.44704 121.408061 
L 758.44704 121.408061 
" clip-path="url(#pfc075be432)" style="fill: none; stroke: #8172b3; stroke-opacity: 0.9; stroke-width: 3; stroke-linecap: round"/>
   </g>
   <g id="line2d_24">
    <path d="M 484.195037 121.661872 
L 484.57124 147.816172 
L 484.947443 148.801002 
L 485.323646 148.986956 
L 486.452255 149.008256 
L 489.838082 148.910584 
L 492.471503 147.792993 
L 517.300903 137.171126 
L 544.011317 125.985914 
L 555.297408 121.424189 
L 557.554626 120.693153 
L 566.207295 120.707316 
L 621.50914 120.996171 
L 689.225684 121.361191 
L 758.44704 121.440264 
L 758.44704 121.440264 
" clip-path="url(#pfc075be432)" style="fill: none; stroke: #937860; stroke-opacity: 0.9; stroke-width: 3; stroke-linecap: round"/>
   </g>
   <g id="patch_6">
    <path d="M 470.482436 199.648952 
L 470.482436 81.456 
" style="fill: none; stroke: #ffffff; stroke-width: 1.25; stroke-linejoin: miter; stroke-linecap: square"/>
   </g>
   <g id="patch_7">
    <path d="M 470.482436 199.648952 
L 772.15964 199.648952 
" style="fill: none; stroke: #ffffff; stroke-width: 1.25; stroke-linejoin: miter; stroke-linecap: square"/>
   </g>
   <g id="text_5">
    <!-- 0.5~365 -->
    <g style="fill: #262626" transform="translate(566.674444 75.456) scale(0.252 -0.252)">
     <defs>
      <path id="DejaVuSans-36" d="M 2113 2584 
Q 1688 2584 1439 2293 
Q 1191 2003 1191 1497 
Q 1191 994 1439 701 
Q 1688 409 2113 409 
Q 2538 409 2786 701 
Q 3034 994 3034 1497 
Q 3034 2003 2786 2293 
Q 2538 2584 2113 2584 
z
M 3366 4563 
L 3366 3988 
Q 3128 4100 2886 4159 
Q 2644 4219 2406 4219 
Q 1781 4219 1451 3797 
Q 1122 3375 1075 2522 
Q 1259 2794 1537 2939 
Q 1816 3084 2150 3084 
Q 2853 3084 3261 2657 
Q 3669 2231 3669 1497 
Q 3669 778 3244 343 
Q 2819 -91 2113 -91 
Q 1303 -91 875 529 
Q 447 1150 447 2328 
Q 447 3434 972 4092 
Q 1497 4750 2381 4750 
Q 2619 4750 2861 4703 
Q 3103 4656 3366 4563 
z
" transform="scale(0.015625)"/>
     </defs>
     <use xlink:href="#DejaVuSans-30"/>
     <use xlink:href="#DejaVuSans-2e" x="63.623047"/>
     <use xlink:href="#DejaVuSans-35" x="95.410156"/>
     <use xlink:href="#DejaVuSans-7e" x="159.033203"/>
     <use xlink:href="#DejaVuSans-33" x="242.822266"/>
     <use xlink:href="#DejaVuSans-36" x="306.445312"/>
     <use xlink:href="#DejaVuSans-35" x="370.068359"/>
    </g>
   </g>
  </g>
  <g id="axes_3">
   <g id="patch_8">
    <path d="M 798.93237 199.648952 
L 1100.609573 199.648952 
L 1100.609573 81.456 
L 798.93237 81.456 
z
" style="fill: #eaeaf2"/>
   </g>
   <g id="matplotlib.axis_5">
    <g id="xtick_9">
     <g id="line2d_25">
      <path d="M 812.64497 199.648952 
L 812.64497 81.456 
" clip-path="url(#pc4794dccba)" style="fill: none; stroke: #ffffff; stroke-linecap: round"/>
     </g>
    </g>
    <g id="xtick_10">
     <g id="line2d_26">
      <path d="M 906.695726 199.648952 
L 906.695726 81.456 
" clip-path="url(#pc4794dccba)" style="fill: none; stroke: #ffffff; stroke-linecap: round"/>
     </g>
    </g>
    <g id="xtick_11">
     <g id="line2d_27">
      <path d="M 1000.746481 199.648952 
L 1000.746481 81.456 
" clip-path="url(#pc4794dccba)" style="fill: none; stroke: #ffffff; stroke-linecap: round"/>
     </g>
    </g>
    <g id="xtick_12">
     <g id="line2d_28">
      <path d="M 1094.797237 199.648952 
L 1094.797237 81.456 
" clip-path="url(#pc4794dccba)" style="fill: none; stroke: #ffffff; stroke-linecap: round"/>
     </g>
    </g>
   </g>
   <g id="matplotlib.axis_6">
    <g id="ytick_5">
     <g id="line2d_29">
      <path d="M 798.93237 188.729461 
L 1100.609573 188.729461 
" clip-path="url(#pc4794dccba)" style="fill: none; stroke: #ffffff; stroke-linecap: round"/>
     </g>
    </g>
    <g id="ytick_6">
     <g id="line2d_30">
      <path d="M 798.93237 121.661872 
L 1100.609573 121.661872 
" clip-path="url(#pc4794dccba)" style="fill: none; stroke: #ffffff; stroke-linecap: round"/>
     </g>
    </g>
   </g>
   <g id="PolyCollection_13"/>
   <g id="PolyCollection_14"/>
   <g id="PolyCollection_15"/>
   <g id="PolyCollection_16"/>
   <g id="PolyCollection_17"/>
   <g id="PolyCollection_18"/>
   <g id="line2d_31">
    <path d="M 812.64497 121.661872 
L 813.021173 155.612239 
L 813.397376 156.681931 
L 813.773579 156.84636 
L 814.525985 156.610027 
L 818.288016 154.878908 
L 820.169031 153.12356 
L 824.683467 149.003194 
L 829.574106 144.82044 
L 835.593355 140.22893 
L 840.483994 136.744499 
L 846.879445 132.464797 
L 853.6511 128.209152 
L 859.294145 124.880142 
L 864.93719 122.487819 
L 870.204033 120.4576 
L 876.975687 118.819307 
L 881.490123 117.997997 
L 886.756966 117.164299 
L 894.657229 117.592724 
L 903.686102 118.158588 
L 914.595989 118.813575 
L 919.862832 119.137201 
L 927.010689 119.302876 
L 943.939825 119.453271 
L 984.569751 119.528993 
L 1086.896973 119.540078 
L 1086.896973 119.540078 
" clip-path="url(#pc4794dccba)" style="fill: none; stroke: #4c72b0; stroke-opacity: 0.9; stroke-width: 3; stroke-linecap: round"/>
   </g>
   <g id="line2d_32">
    <path d="M 812.64497 121.661872 
L 813.021173 140.178593 
L 813.397376 140.906202 
L 813.773579 141.106154 
L 814.525985 141.078053 
L 818.288016 140.26573 
L 820.169031 139.371209 
L 826.564482 136.324457 
L 833.336137 133.353289 
L 838.602979 131.248633 
L 845.374633 128.791152 
L 854.779709 125.649495 
L 860.798957 123.807882 
L 870.204033 121.633945 
L 872.837454 121.152466 
L 884.499747 119.244224 
L 886.756966 119.014732 
L 899.924071 119.277091 
L 909.329147 119.617131 
L 930.772719 119.992635 
L 953.721104 120.212027 
L 1051.910092 120.240581 
L 1086.896973 120.240807 
L 1086.896973 120.240807 
" clip-path="url(#pc4794dccba)" style="fill: none; stroke: #dd8452; stroke-opacity: 0.9; stroke-width: 3; stroke-linecap: round"/>
   </g>
   <g id="line2d_33">
    <path d="M 812.64497 121.661872 
L 813.021173 157.239403 
L 813.397376 159.039772 
L 813.773579 159.367935 
L 814.525985 159.186471 
L 818.288016 157.39209 
L 820.169031 155.529206 
L 824.683467 151.11679 
L 829.574106 146.641189 
L 834.464746 142.452206 
L 839.731588 138.214653 
L 844.246024 134.835268 
L 849.889069 130.900461 
L 856.284521 126.720241 
L 860.046551 124.453595 
L 864.184784 122.364437 
L 867.570611 120.929737 
L 870.580236 119.937893 
L 875.847078 118.669375 
L 881.866326 117.583468 
L 886.380763 116.9351 
L 890.142793 117.253457 
L 907.071929 118.815256 
L 916.853207 119.312734 
L 926.634486 119.588009 
L 941.306404 119.759311 
L 972.155052 119.854525 
L 1086.896973 119.872658 
L 1086.896973 119.872658 
" clip-path="url(#pc4794dccba)" style="fill: none; stroke: #55a868; stroke-opacity: 0.9; stroke-width: 3; stroke-linecap: round"/>
   </g>
   <g id="line2d_34">
    <path d="M 812.64497 121.661872 
L 813.021173 149.622863 
L 813.397376 151.070192 
L 813.773579 151.328019 
L 814.525985 151.17927 
L 818.288016 149.749619 
L 820.169031 148.278228 
L 825.435873 144.212016 
L 830.326512 140.705216 
L 835.969558 136.93979 
L 841.2364 133.672395 
L 846.503242 130.658486 
L 853.274897 127.086251 
L 859.294145 124.130417 
L 862.303769 122.911896 
L 866.065799 121.595402 
L 869.451627 120.659921 
L 874.342266 119.694587 
L 882.242529 118.518216 
L 886.380763 118.060439 
L 895.785838 118.632182 
L 909.70535 119.440263 
L 920.991441 119.800164 
L 936.039561 120.001606 
L 963.878585 120.102419 
L 1066.58201 120.122186 
L 1086.896973 120.121748 
L 1086.896973 120.121748 
" clip-path="url(#pc4794dccba)" style="fill: none; stroke: #c44e52; stroke-opacity: 0.9; stroke-width: 3; stroke-linecap: round"/>
   </g>
   <g id="line2d_35">
    <path d="M 812.64497 121.661872 
L 813.021173 154.256436 
L 813.397376 155.552032 
L 813.773579 155.639616 
L 814.902188 155.198067 
L 818.288016 153.710044 
L 830.702715 143.005005 
L 835.969558 138.938518 
L 841.612603 134.864132 
L 847.631851 130.885871 
L 854.403506 126.668929 
L 858.917942 124.064605 
L 863.056175 122.061419 
L 867.194408 120.40726 
L 870.580236 119.213145 
L 876.223281 117.472045 
L 878.856702 116.873925 
L 885.252154 115.926486 
L 886.756966 115.829801 
L 890.518996 116.167028 
L 898.043056 117.007126 
L 907.448132 117.958445 
L 916.100801 118.888649 
L 922.496253 119.217655 
L 932.277531 119.473793 
L 950.335276 119.643864 
L 987.579375 119.731851 
L 1086.896973 119.748266 
L 1086.896973 119.748266 
" clip-path="url(#pc4794dccba)" style="fill: none; stroke: #8172b3; stroke-opacity: 0.9; stroke-width: 3; stroke-linecap: round"/>
   </g>
   <g id="line2d_36">
    <path d="M 812.64497 121.661872 
L 813.021173 147.816172 
L 813.397376 148.688773 
L 813.773579 148.755311 
L 815.278391 148.289394 
L 818.664219 147.025001 
L 825.05967 142.556187 
L 830.702715 138.910135 
L 836.721964 135.28597 
L 841.988806 132.339943 
L 848.76046 128.827254 
L 856.284521 125.184281 
L 860.046551 123.520075 
L 863.432378 122.32937 
L 869.075424 120.597879 
L 874.342266 119.168779 
L 878.104296 118.31452 
L 885.252154 117.215468 
L 886.756966 117.111751 
L 893.52862 117.519513 
L 911.962568 118.735181 
L 917.605613 119.229697 
L 925.505877 119.553494 
L 936.415765 119.726138 
L 962.373773 119.869129 
L 1030.090317 119.913832 
L 1086.896973 119.914153 
L 1086.896973 119.914153 
" clip-path="url(#pc4794dccba)" style="fill: none; stroke: #937860; stroke-opacity: 0.9; stroke-width: 3; stroke-linecap: round"/>
   </g>
   <g id="patch_9">
    <path d="M 798.93237 199.648952 
L 798.93237 81.456 
" style="fill: none; stroke: #ffffff; stroke-width: 1.25; stroke-linejoin: miter; stroke-linecap: square"/>
   </g>
   <g id="patch_10">
    <path d="M 798.93237 199.648952 
L 1100.609573 199.648952 
" style="fill: none; stroke: #ffffff; stroke-width: 1.25; stroke-linejoin: miter; stroke-linecap: square"/>
   </g>
   <g id="text_6">
    <!-- 0.8~30 -->
    <g style="fill: #262626" transform="translate(903.141128 75.456) scale(0.252 -0.252)">
     <defs>
      <path id="DejaVuSans-38" d="M 2034 2216 
Q 1584 2216 1326 1975 
Q 1069 1734 1069 1313 
Q 1069 891 1326 650 
Q 1584 409 2034 409 
Q 2484 409 2743 651 
Q 3003 894 3003 1313 
Q 3003 1734 2745 1975 
Q 2488 2216 2034 2216 
z
M 1403 2484 
Q 997 2584 770 2862 
Q 544 3141 544 3541 
Q 544 4100 942 4425 
Q 1341 4750 2034 4750 
Q 2731 4750 3128 4425 
Q 3525 4100 3525 3541 
Q 3525 3141 3298 2862 
Q 3072 2584 2669 2484 
Q 3125 2378 3379 2068 
Q 3634 1759 3634 1313 
Q 3634 634 3220 271 
Q 2806 -91 2034 -91 
Q 1263 -91 848 271 
Q 434 634 434 1313 
Q 434 1759 690 2068 
Q 947 2378 1403 2484 
z
M 1172 3481 
Q 1172 3119 1398 2916 
Q 1625 2713 2034 2713 
Q 2441 2713 2670 2916 
Q 2900 3119 2900 3481 
Q 2900 3844 2670 4047 
Q 2441 4250 2034 4250 
Q 1625 4250 1398 4047 
Q 1172 3844 1172 3481 
z
" transform="scale(0.015625)"/>
     </defs>
     <use xlink:href="#DejaVuSans-30"/>
     <use xlink:href="#DejaVuSans-2e" x="63.623047"/>
     <use xlink:href="#DejaVuSans-38" x="95.410156"/>
     <use xlink:href="#DejaVuSans-7e" x="159.033203"/>
     <use xlink:href="#DejaVuSans-33" x="242.822266"/>
     <use xlink:href="#DejaVuSans-30" x="306.445312"/>
    </g>
   </g>
  </g>
  <g id="axes_4">
   <g id="patch_11">
    <path d="M 142.032503 373.284 
L 443.709706 373.284 
L 443.709706 255.091048 
L 142.032503 255.091048 
z
" style="fill: #eaeaf2"/>
   </g>
   <g id="matplotlib.axis_7">
    <g id="xtick_13">
     <g id="line2d_37">
      <path d="M 155.745103 373.284 
L 155.745103 255.091048 
" clip-path="url(#p4bb8eb8ebe)" style="fill: none; stroke: #ffffff; stroke-linecap: round"/>
     </g>
     <g id="text_7">
      <!-- 0 -->
      <g style="fill: #262626" transform="translate(148.396415 400.336391) scale(0.231 -0.231)">
       <use xlink:href="#DejaVuSans-30"/>
      </g>
     </g>
    </g>
    <g id="xtick_14">
     <g id="line2d_38">
      <path d="M 249.795858 373.284 
L 249.795858 255.091048 
" clip-path="url(#p4bb8eb8ebe)" style="fill: none; stroke: #ffffff; stroke-linecap: round"/>
     </g>
     <g id="text_8">
      <!-- 250 -->
      <g style="fill: #262626" transform="translate(227.749796 400.336391) scale(0.231 -0.231)">
       <defs>
        <path id="DejaVuSans-32" d="M 1228 531 
L 3431 531 
L 3431 0 
L 469 0 
L 469 531 
Q 828 903 1448 1529 
Q 2069 2156 2228 2338 
Q 2531 2678 2651 2914 
Q 2772 3150 2772 3378 
Q 2772 3750 2511 3984 
Q 2250 4219 1831 4219 
Q 1534 4219 1204 4116 
Q 875 4013 500 3803 
L 500 4441 
Q 881 4594 1212 4672 
Q 1544 4750 1819 4750 
Q 2544 4750 2975 4387 
Q 3406 4025 3406 3419 
Q 3406 3131 3298 2873 
Q 3191 2616 2906 2266 
Q 2828 2175 2409 1742 
Q 1991 1309 1228 531 
z
" transform="scale(0.015625)"/>
       </defs>
       <use xlink:href="#DejaVuSans-32"/>
       <use xlink:href="#DejaVuSans-35" x="63.623047"/>
       <use xlink:href="#DejaVuSans-30" x="127.246094"/>
      </g>
     </g>
    </g>
    <g id="xtick_15">
     <g id="line2d_39">
      <path d="M 343.846614 373.284 
L 343.846614 255.091048 
" clip-path="url(#p4bb8eb8ebe)" style="fill: none; stroke: #ffffff; stroke-linecap: round"/>
     </g>
     <g id="text_9">
      <!-- 500 -->
      <g style="fill: #262626" transform="translate(321.800551 400.336391) scale(0.231 -0.231)">
       <use xlink:href="#DejaVuSans-35"/>
       <use xlink:href="#DejaVuSans-30" x="63.623047"/>
       <use xlink:href="#DejaVuSans-30" x="127.246094"/>
      </g>
     </g>
    </g>
    <g id="xtick_16">
     <g id="line2d_40">
      <path d="M 437.897369 373.284 
L 437.897369 255.091048 
" clip-path="url(#p4bb8eb8ebe)" style="fill: none; stroke: #ffffff; stroke-linecap: round"/>
     </g>
     <g id="text_10">
      <!-- 750 -->
      <g style="fill: #262626" transform="translate(415.851307 400.336391) scale(0.231 -0.231)">
       <defs>
        <path id="DejaVuSans-37" d="M 525 4666 
L 3525 4666 
L 3525 4397 
L 1831 0 
L 1172 0 
L 2766 4134 
L 525 4134 
L 525 4666 
z
" transform="scale(0.015625)"/>
       </defs>
       <use xlink:href="#DejaVuSans-37"/>
       <use xlink:href="#DejaVuSans-35" x="63.623047"/>
       <use xlink:href="#DejaVuSans-30" x="127.246094"/>
      </g>
     </g>
    </g>
    <g id="text_11">
     <!-- step -->
     <g style="fill: #262626" transform="translate(265.615729 428.288531) scale(0.252 -0.252)">
      <defs>
       <path id="DejaVuSans-73" d="M 2834 3397 
L 2834 2853 
Q 2591 2978 2328 3040 
Q 2066 3103 1784 3103 
Q 1356 3103 1142 2972 
Q 928 2841 928 2578 
Q 928 2378 1081 2264 
Q 1234 2150 1697 2047 
L 1894 2003 
Q 2506 1872 2764 1633 
Q 3022 1394 3022 966 
Q 3022 478 2636 193 
Q 2250 -91 1575 -91 
Q 1294 -91 989 -36 
Q 684 19 347 128 
L 347 722 
Q 666 556 975 473 
Q 1284 391 1588 391 
Q 1994 391 2212 530 
Q 2431 669 2431 922 
Q 2431 1156 2273 1281 
Q 2116 1406 1581 1522 
L 1381 1569 
Q 847 1681 609 1914 
Q 372 2147 372 2553 
Q 372 3047 722 3315 
Q 1072 3584 1716 3584 
Q 2034 3584 2315 3537 
Q 2597 3491 2834 3397 
z
" transform="scale(0.015625)"/>
       <path id="DejaVuSans-74" d="M 1172 4494 
L 1172 3500 
L 2356 3500 
L 2356 3053 
L 1172 3053 
L 1172 1153 
Q 1172 725 1289 603 
Q 1406 481 1766 481 
L 2356 481 
L 2356 0 
L 1766 0 
Q 1100 0 847 248 
Q 594 497 594 1153 
L 594 3053 
L 172 3053 
L 172 3500 
L 594 3500 
L 594 4494 
L 1172 4494 
z
" transform="scale(0.015625)"/>
       <path id="DejaVuSans-70" d="M 1159 525 
L 1159 -1331 
L 581 -1331 
L 581 3500 
L 1159 3500 
L 1159 2969 
Q 1341 3281 1617 3432 
Q 1894 3584 2278 3584 
Q 2916 3584 3314 3078 
Q 3713 2572 3713 1747 
Q 3713 922 3314 415 
Q 2916 -91 2278 -91 
Q 1894 -91 1617 61 
Q 1341 213 1159 525 
z
M 3116 1747 
Q 3116 2381 2855 2742 
Q 2594 3103 2138 3103 
Q 1681 3103 1420 2742 
Q 1159 2381 1159 1747 
Q 1159 1113 1420 752 
Q 1681 391 2138 391 
Q 2594 391 2855 752 
Q 3116 1113 3116 1747 
z
" transform="scale(0.015625)"/>
      </defs>
      <use xlink:href="#DejaVuSans-73"/>
      <use xlink:href="#DejaVuSans-74" x="52.099609"/>
      <use xlink:href="#DejaVuSans-65" x="91.308594"/>
      <use xlink:href="#DejaVuSans-70" x="152.832031"/>
     </g>
    </g>
   </g>
   <g id="matplotlib.axis_8">
    <g id="ytick_7">
     <g id="line2d_41">
      <path d="M 142.032503 362.364509 
L 443.709706 362.364509 
" clip-path="url(#p4bb8eb8ebe)" style="fill: none; stroke: #ffffff; stroke-linecap: round"/>
     </g>
     <g id="text_12">
      <!-- −1 -->
      <g style="fill: #262626" transform="translate(98.47805 371.140705) scale(0.231 -0.231)">
       <use xlink:href="#DejaVuSans-2212"/>
       <use xlink:href="#DejaVuSans-31" x="83.789062"/>
      </g>
     </g>
    </g>
    <g id="ytick_8">
     <g id="line2d_42">
      <path d="M 142.032503 295.29692 
L 443.709706 295.29692 
" clip-path="url(#p4bb8eb8ebe)" style="fill: none; stroke: #ffffff; stroke-linecap: round"/>
     </g>
     <g id="text_13">
      <!-- 0 -->
      <g style="fill: #262626" transform="translate(117.835128 304.073115) scale(0.231 -0.231)">
       <use xlink:href="#DejaVuSans-30"/>
      </g>
     </g>
    </g>
    <g id="text_14">
     <!-- % change -->
     <g style="fill: #262626" transform="translate(89.237237 376.535868) rotate(-90) scale(0.252 -0.252)">
      <use xlink:href="#DejaVuSans-25"/>
      <use xlink:href="#DejaVuSans-20" x="95.019531"/>
      <use xlink:href="#DejaVuSans-63" x="126.806641"/>
      <use xlink:href="#DejaVuSans-68" x="181.787109"/>
      <use xlink:href="#DejaVuSans-61" x="245.166016"/>
      <use xlink:href="#DejaVuSans-6e" x="306.445312"/>
      <use xlink:href="#DejaVuSans-67" x="369.824219"/>
      <use xlink:href="#DejaVuSans-65" x="433.300781"/>
     </g>
    </g>
   </g>
   <g id="PolyCollection_19"/>
   <g id="PolyCollection_20"/>
   <g id="PolyCollection_21"/>
   <g id="PolyCollection_22"/>
   <g id="PolyCollection_23"/>
   <g id="PolyCollection_24"/>
   <g id="line2d_43">
    <path d="M 155.745103 295.29692 
L 156.121306 329.247287 
L 156.497509 330.454292 
L 156.873712 330.777377 
L 157.626118 330.868828 
L 161.388148 330.728263 
L 162.89296 329.936056 
L 186.969954 316.45918 
L 208.789729 304.492558 
L 221.204429 297.891725 
L 227.223677 294.925469 
L 229.104692 294.228076 
L 233.995332 294.245432 
L 287.792364 294.607443 
L 303.592891 294.850912 
L 331.431914 294.992528 
L 393.12921 295.066595 
L 429.997106 295.07362 
L 429.997106 295.07362 
" clip-path="url(#p4bb8eb8ebe)" style="fill: none; stroke: #4c72b0; stroke-opacity: 0.9; stroke-width: 3; stroke-linecap: round"/>
   </g>
   <g id="line2d_44">
    <path d="M 155.745103 295.29692 
L 156.121306 313.813641 
L 156.497509 314.60471 
L 156.873712 314.878778 
L 157.626118 315.006753 
L 161.011945 314.964201 
L 161.764351 314.873023 
L 165.902585 313.607181 
L 197.879841 303.807025 
L 222.709241 296.40385 
L 228.352286 294.928626 
L 229.480895 294.758679 
L 407.048722 295.147929 
L 429.997106 295.15192 
L 429.997106 295.15192 
" clip-path="url(#p4bb8eb8ebe)" style="fill: none; stroke: #dd8452; stroke-opacity: 0.9; stroke-width: 3; stroke-linecap: round"/>
   </g>
   <g id="line2d_45">
    <path d="M 155.745103 295.29692 
L 156.121306 330.874451 
L 156.497509 332.817233 
L 156.873712 333.310905 
L 157.626118 333.471532 
L 161.011945 333.34293 
L 161.388148 333.326342 
L 162.89296 332.47176 
L 185.841345 318.652415 
L 208.789729 305.1035 
L 222.709241 297.10685 
L 226.095068 295.362417 
L 229.104692 294.046196 
L 236.25255 294.034322 
L 259.95334 294.139091 
L 273.120446 294.396718 
L 296.821236 294.833518 
L 327.669884 295.059615 
L 385.228946 295.119919 
L 429.997106 295.122059 
L 429.997106 295.122059 
" clip-path="url(#p4bb8eb8ebe)" style="fill: none; stroke: #55a868; stroke-opacity: 0.9; stroke-width: 3; stroke-linecap: round"/>
   </g>
   <g id="line2d_46">
    <path d="M 155.745103 295.29692 
L 156.121306 323.257911 
L 156.497509 324.817975 
L 156.873712 325.207426 
L 157.626118 325.330905 
L 161.388148 325.218322 
L 162.89296 324.549835 
L 189.979578 311.740915 
L 213.680368 300.776 
L 224.590256 295.929766 
L 226.471271 295.242934 
L 229.104692 294.356911 
L 239.638377 294.332959 
L 262.210558 294.444825 
L 309.612139 294.994586 
L 337.827366 295.11739 
L 429.2447 295.148437 
L 429.997106 295.148428 
L 429.997106 295.148428 
" clip-path="url(#p4bb8eb8ebe)" style="fill: none; stroke: #c44e52; stroke-opacity: 0.9; stroke-width: 3; stroke-linecap: round"/>
   </g>
   <g id="line2d_47">
    <path d="M 155.745103 295.29692 
L 156.121306 327.891484 
L 156.497509 329.3335 
L 156.873712 329.577308 
L 158.002321 329.605255 
L 161.388148 329.477714 
L 163.645366 328.276478 
L 186.593751 315.909725 
L 211.046947 302.983384 
L 225.718865 295.420942 
L 228.352286 294.328557 
L 229.104692 294.043944 
L 237.381159 294.024662 
L 260.705746 294.12121 
L 366.794998 294.970236 
L 429.997106 295.043109 
L 429.997106 295.043109 
" clip-path="url(#p4bb8eb8ebe)" style="fill: none; stroke: #8172b3; stroke-opacity: 0.9; stroke-width: 3; stroke-linecap: round"/>
   </g>
   <g id="line2d_48">
    <path d="M 155.745103 295.29692 
L 156.121306 321.45122 
L 156.497509 322.43605 
L 156.873712 322.622004 
L 158.002321 322.643304 
L 161.388148 322.545632 
L 164.021569 321.428041 
L 188.850969 310.806174 
L 215.561383 299.620962 
L 226.847474 295.059237 
L 229.104692 294.328201 
L 237.757362 294.342364 
L 293.059206 294.631219 
L 360.77575 294.996239 
L 429.997106 295.075312 
L 429.997106 295.075312 
" clip-path="url(#p4bb8eb8ebe)" style="fill: none; stroke: #937860; stroke-opacity: 0.9; stroke-width: 3; stroke-linecap: round"/>
   </g>
   <g id="patch_12">
    <path d="M 142.032503 373.284 
L 142.032503 255.091048 
" style="fill: none; stroke: #ffffff; stroke-width: 1.25; stroke-linejoin: miter; stroke-linecap: square"/>
   </g>
   <g id="patch_13">
    <path d="M 142.032503 373.284 
L 443.709706 373.284 
" style="fill: none; stroke: #ffffff; stroke-width: 1.25; stroke-linejoin: miter; stroke-linecap: square"/>
   </g>
   <g id="text_15">
    <!-- 0.8~365 -->
    <g style="fill: #262626" transform="translate(238.224511 249.091048) scale(0.252 -0.252)">
     <use xlink:href="#DejaVuSans-30"/>
     <use xlink:href="#DejaVuSans-2e" x="63.623047"/>
     <use xlink:href="#DejaVuSans-38" x="95.410156"/>
     <use xlink:href="#DejaVuSans-7e" x="159.033203"/>
     <use xlink:href="#DejaVuSans-33" x="242.822266"/>
     <use xlink:href="#DejaVuSans-36" x="306.445312"/>
     <use xlink:href="#DejaVuSans-35" x="370.068359"/>
    </g>
   </g>
  </g>
  <g id="axes_5">
   <g id="patch_14">
    <path d="M 470.482436 373.284 
L 772.15964 373.284 
L 772.15964 255.091048 
L 470.482436 255.091048 
z
" style="fill: #eaeaf2"/>
   </g>
   <g id="matplotlib.axis_9">
    <g id="xtick_17">
     <g id="line2d_49">
      <path d="M 484.195037 373.284 
L 484.195037 255.091048 
" clip-path="url(#p33b202115a)" style="fill: none; stroke: #ffffff; stroke-linecap: round"/>
     </g>
     <g id="text_16">
      <!-- 0 -->
      <g style="fill: #262626" transform="translate(476.846349 400.336391) scale(0.231 -0.231)">
       <use xlink:href="#DejaVuSans-30"/>
      </g>
     </g>
    </g>
    <g id="xtick_18">
     <g id="line2d_50">
      <path d="M 578.245792 373.284 
L 578.245792 255.091048 
" clip-path="url(#p33b202115a)" style="fill: none; stroke: #ffffff; stroke-linecap: round"/>
     </g>
     <g id="text_17">
      <!-- 250 -->
      <g style="fill: #262626" transform="translate(556.19973 400.336391) scale(0.231 -0.231)">
       <use xlink:href="#DejaVuSans-32"/>
       <use xlink:href="#DejaVuSans-35" x="63.623047"/>
       <use xlink:href="#DejaVuSans-30" x="127.246094"/>
      </g>
     </g>
    </g>
    <g id="xtick_19">
     <g id="line2d_51">
      <path d="M 672.296548 373.284 
L 672.296548 255.091048 
" clip-path="url(#p33b202115a)" style="fill: none; stroke: #ffffff; stroke-linecap: round"/>
     </g>
     <g id="text_18">
      <!-- 500 -->
      <g style="fill: #262626" transform="translate(650.250485 400.336391) scale(0.231 -0.231)">
       <use xlink:href="#DejaVuSans-35"/>
       <use xlink:href="#DejaVuSans-30" x="63.623047"/>
       <use xlink:href="#DejaVuSans-30" x="127.246094"/>
      </g>
     </g>
    </g>
    <g id="xtick_20">
     <g id="line2d_52">
      <path d="M 766.347303 373.284 
L 766.347303 255.091048 
" clip-path="url(#p33b202115a)" style="fill: none; stroke: #ffffff; stroke-linecap: round"/>
     </g>
     <g id="text_19">
      <!-- 750 -->
      <g style="fill: #262626" transform="translate(744.301241 400.336391) scale(0.231 -0.231)">
       <use xlink:href="#DejaVuSans-37"/>
       <use xlink:href="#DejaVuSans-35" x="63.623047"/>
       <use xlink:href="#DejaVuSans-30" x="127.246094"/>
      </g>
     </g>
    </g>
    <g id="text_20">
     <!-- step -->
     <g style="fill: #262626" transform="translate(594.065663 428.288531) scale(0.252 -0.252)">
      <use xlink:href="#DejaVuSans-73"/>
      <use xlink:href="#DejaVuSans-74" x="52.099609"/>
      <use xlink:href="#DejaVuSans-65" x="91.308594"/>
      <use xlink:href="#DejaVuSans-70" x="152.832031"/>
     </g>
    </g>
   </g>
   <g id="matplotlib.axis_10">
    <g id="ytick_9">
     <g id="line2d_53">
      <path d="M 470.482436 362.364509 
L 772.15964 362.364509 
" clip-path="url(#p33b202115a)" style="fill: none; stroke: #ffffff; stroke-linecap: round"/>
     </g>
    </g>
    <g id="ytick_10">
     <g id="line2d_54">
      <path d="M 470.482436 295.29692 
L 772.15964 295.29692 
" clip-path="url(#p33b202115a)" style="fill: none; stroke: #ffffff; stroke-linecap: round"/>
     </g>
    </g>
   </g>
   <g id="PolyCollection_25"/>
   <g id="PolyCollection_26"/>
   <g id="PolyCollection_27"/>
   <g id="PolyCollection_28"/>
   <g id="PolyCollection_29"/>
   <g id="PolyCollection_30"/>
   <g id="line2d_55">
    <path d="M 484.195037 295.29692 
L 484.57124 329.247287 
L 484.947443 330.316979 
L 485.323646 330.481408 
L 486.076052 330.245075 
L 488.33327 329.326021 
L 489.838082 328.977172 
L 491.342894 327.891811 
L 492.0953 327.45004 
L 492.847706 327.398855 
L 494.728721 327.944614 
L 495.481127 328.52052 
L 499.995564 332.761371 
L 501.500376 334.116959 
L 504.51 336.345336 
L 506.014812 337.074732 
L 507.519624 337.536506 
L 509.024436 337.747399 
L 513.162669 338.01552 
L 519.934324 338.773607 
L 522.943948 338.885773 
L 525.577369 338.787809 
L 528.21079 338.456033 
L 530.468008 337.959558 
L 533.101429 337.156559 
L 535.734851 336.155625 
L 538.744475 334.756754 
L 541.754099 333.094591 
L 545.139926 330.944747 
L 548.901956 328.259703 
L 553.04019 325.035571 
L 560.940453 318.738084 
L 562.445265 317.815541 
L 564.32628 316.821622 
L 570.345529 314.263973 
L 577.869589 311.430347 
L 579.374401 310.935705 
L 589.908086 308.241746 
L 598.184552 306.227387 
L 604.956207 304.324548 
L 611.727861 302.184176 
L 618.123312 299.94299 
L 624.894967 297.341848 
L 632.79523 294.057229 
L 641.4479 290.247197 
L 652.357787 285.182041 
L 671.920345 276.046834 
L 681.32542 272 
L 685.839856 270.233446 
L 690.730496 268.620464 
L 694.868729 267.533779 
L 702.392789 265.757314 
L 705.402414 265.268067 
L 708.412038 264.980131 
L 712.174068 264.767126 
L 717.817113 264.550078 
L 722.33155 264.427276 
L 741.894107 264.965128 
L 758.44704 265.094014 
L 758.44704 265.094014 
" clip-path="url(#p33b202115a)" style="fill: none; stroke: #4c72b0; stroke-opacity: 0.9; stroke-width: 3; stroke-linecap: round"/>
   </g>
   <g id="line2d_56">
    <path d="M 484.195037 295.29692 
L 484.57124 313.813641 
L 484.947443 314.54125 
L 485.323646 314.741202 
L 486.076052 314.713101 
L 489.838082 313.900778 
L 495.104924 311.940027 
L 495.85733 311.913995 
L 497.362142 312.146304 
L 501.500376 313.50316 
L 503.381391 314.278143 
L 506.391015 315.18173 
L 508.27203 315.505655 
L 510.153045 315.629674 
L 512.410263 315.536822 
L 516.548497 315.198019 
L 523.696354 314.827987 
L 527.834587 314.378929 
L 531.220414 313.793054 
L 534.982445 312.893432 
L 538.744475 311.780525 
L 542.506505 310.445338 
L 546.268535 308.885558 
L 550.406769 306.910463 
L 556.426017 303.748806 
L 561.316656 301.205878 
L 566.207295 299.122163 
L 568.464514 298.436449 
L 571.097935 297.889793 
L 575.988574 297.071375 
L 578.998198 296.677014 
L 583.512634 296.593905 
L 589.531883 296.754699 
L 594.046319 297.101422 
L 600.817973 297.935785 
L 610.223049 299.337978 
L 620.380531 300.843262 
L 627.528388 301.657221 
L 634.676245 302.245276 
L 641.071697 302.553333 
L 647.090945 302.632438 
L 653.110193 302.488623 
L 658.753239 302.139177 
L 663.643878 301.607316 
L 669.286923 300.750124 
L 674.177563 299.768064 
L 679.068202 298.560833 
L 684.335044 297.023917 
L 689.601887 295.247816 
L 694.868729 293.239482 
L 702.392789 290.084746 
L 708.035835 287.526015 
L 714.055083 284.54766 
L 724.588768 279.031432 
L 756.566025 261.40666 
L 758.44704 260.463455 
L 758.44704 260.463455 
" clip-path="url(#p33b202115a)" style="fill: none; stroke: #dd8452; stroke-opacity: 0.9; stroke-width: 3; stroke-linecap: round"/>
   </g>
   <g id="line2d_57">
    <path d="M 484.195037 295.29692 
L 484.57124 330.874451 
L 484.947443 332.67482 
L 485.323646 333.002983 
L 486.076052 332.82152 
L 490.214285 330.824348 
L 493.223909 328.352573 
L 495.85733 326.479721 
L 498.490751 324.833715 
L 500.371767 323.886837 
L 501.876579 323.399147 
L 503.005188 323.221403 
L 504.51 323.259861 
L 508.27203 323.741209 
L 511.281654 324.182164 
L 513.915075 324.404747 
L 517.677106 324.543211 
L 522.943948 324.851338 
L 528.963196 325.007621 
L 533.477633 325.010681 
L 537.992069 324.776421 
L 542.506505 324.320806 
L 547.397144 323.593989 
L 552.663987 322.585233 
L 558.307032 321.299139 
L 563.197671 319.841048 
L 568.840717 317.915873 
L 575.236168 315.482984 
L 596.303537 307.225063 
L 605.708613 303.91756 
L 616.6185 300.300316 
L 627.528388 296.877796 
L 635.804854 294.48667 
L 643.705118 292.481109 
L 651.981584 290.645473 
L 659.505645 289.204873 
L 665.524893 288.282704 
L 674.177563 287.211991 
L 683.206435 286.282605 
L 691.106699 285.704884 
L 703.521398 284.985841 
L 719.321925 284.360771 
L 741.141701 283.714746 
L 758.44704 283.397306 
L 758.44704 283.397306 
" clip-path="url(#p33b202115a)" style="fill: none; stroke: #55a868; stroke-opacity: 0.9; stroke-width: 3; stroke-linecap: round"/>
   </g>
   <g id="line2d_58">
    <path d="M 484.195037 295.29692 
L 484.57124 323.257911 
L 484.947443 324.70524 
L 485.323646 324.963067 
L 486.076052 324.814318 
L 490.214285 323.212677 
L 493.976315 320.582871 
L 496.609736 319.018195 
L 499.243158 317.677111 
L 501.124173 317.01704 
L 503.005188 316.639012 
L 504.886203 316.652232 
L 508.27203 316.922578 
L 513.538872 317.304905 
L 517.677106 317.296941 
L 526.329775 317.327888 
L 534.230039 317.419218 
L 539.496881 317.231274 
L 547.397144 316.675716 
L 554.168799 315.952365 
L 559.435641 315.180564 
L 564.702483 314.100751 
L 571.474138 312.45842 
L 578.621995 310.474242 
L 602.322786 303.740806 
L 615.489891 300.256883 
L 626.399779 297.611751 
L 634.300042 295.896214 
L 642.200306 294.411233 
L 652.357787 292.752361 
L 661.38666 291.494702 
L 671.167939 290.311538 
L 678.691999 289.635096 
L 689.97809 288.896414 
L 703.897601 288.167548 
L 722.33155 287.44867 
L 738.132076 287.123951 
L 758.44704 286.788401 
L 758.44704 286.788401 
" clip-path="url(#p33b202115a)" style="fill: none; stroke: #c44e52; stroke-opacity: 0.9; stroke-width: 3; stroke-linecap: round"/>
   </g>
   <g id="line2d_59">
    <path d="M 484.195037 295.29692 
L 484.57124 327.891484 
L 484.947443 329.18708 
L 485.323646 329.274664 
L 486.452255 328.833115 
L 488.33327 328.082589 
L 489.838082 327.700759 
L 492.0953 326.18295 
L 493.600112 325.546932 
L 495.104924 325.152379 
L 495.85733 325.238212 
L 498.490751 326.621502 
L 499.619361 327.543253 
L 501.500376 329.143985 
L 503.381391 330.428095 
L 505.262406 331.409571 
L 506.767218 331.92046 
L 508.27203 332.198416 
L 510.153045 332.2915 
L 512.03406 332.25916 
L 524.072557 331.140214 
L 527.458384 330.52039 
L 530.844211 329.679576 
L 537.615866 327.836905 
L 541.001693 327.308367 
L 545.139926 326.62548 
L 548.14955 325.941461 
L 551.535378 324.953381 
L 555.297408 323.614198 
L 559.435641 321.887959 
L 563.197671 320.080259 
L 568.464514 317.451478 
L 570.345529 317.04421 
L 571.474138 317.050676 
L 574.107559 317.29352 
L 576.74098 317.84247 
L 582.007822 318.89172 
L 586.522259 319.574169 
L 589.908086 319.899376 
L 593.293913 319.998562 
L 597.432146 319.864884 
L 602.322786 319.495608 
L 606.837222 318.932997 
L 635.052448 314.554415 
L 639.566885 313.558049 
L 643.705118 312.421521 
L 647.843351 311.060764 
L 652.357787 309.34578 
L 658.000833 306.953124 
L 665.901096 303.324608 
L 676.810984 298.32786 
L 681.701623 296.509036 
L 686.592262 294.613517 
L 691.859105 292.314322 
L 697.125947 290.059999 
L 700.511774 289.059153 
L 705.402414 287.804351 
L 721.955347 283.930637 
L 723.083956 283.984256 
L 726.09358 284.525663 
L 727.974595 284.839307 
L 731.360422 285.113581 
L 734.746249 285.173485 
L 748.665761 285.201344 
L 752.803994 285.547806 
L 757.318431 286.089564 
L 758.44704 286.247525 
L 758.44704 286.247525 
" clip-path="url(#p33b202115a)" style="fill: none; stroke: #8172b3; stroke-opacity: 0.9; stroke-width: 3; stroke-linecap: round"/>
   </g>
   <g id="line2d_60">
    <path d="M 484.195037 295.29692 
L 484.57124 321.45122 
L 484.947443 322.323821 
L 485.323646 322.390359 
L 486.828458 321.924442 
L 490.590488 320.573437 
L 491.719097 319.967127 
L 493.600112 319.33624 
L 495.481127 319.029987 
L 496.233533 319.120385 
L 497.738345 319.626182 
L 499.619361 320.529458 
L 504.133797 323.28433 
L 505.638609 323.874559 
L 507.143421 324.261384 
L 508.648233 324.459039 
L 510.529248 324.460796 
L 519.181918 323.649626 
L 523.696354 323.02319 
L 527.082181 322.367757 
L 530.091805 321.56418 
L 533.853836 320.307747 
L 541.377896 317.630585 
L 545.139926 316.730883 
L 549.278159 315.636798 
L 555.297408 313.798398 
L 559.811844 312.158955 
L 564.32628 310.483651 
L 566.583498 309.905897 
L 569.593123 309.408471 
L 573.731356 308.895838 
L 577.869589 308.116085 
L 599.313161 303.618242 
L 604.580004 302.255126 
L 611.351658 300.24551 
L 623.766358 296.208547 
L 635.804854 292.242102 
L 642.952712 290.244585 
L 651.229178 288.062907 
L 657.62463 286.57146 
L 667.029705 284.561662 
L 671.167939 283.814957 
L 692.987714 280.118906 
L 695.997338 279.83718 
L 697.878353 279.991778 
L 702.768992 280.568832 
L 709.540647 280.945323 
L 734.746249 282.040342 
L 754.685009 282.540709 
L 758.44704 282.635025 
L 758.44704 282.635025 
" clip-path="url(#p33b202115a)" style="fill: none; stroke: #937860; stroke-opacity: 0.9; stroke-width: 3; stroke-linecap: round"/>
   </g>
   <g id="patch_15">
    <path d="M 470.482436 373.284 
L 470.482436 255.091048 
" style="fill: none; stroke: #ffffff; stroke-width: 1.25; stroke-linejoin: miter; stroke-linecap: square"/>
   </g>
   <g id="patch_16">
    <path d="M 470.482436 373.284 
L 772.15964 373.284 
" style="fill: none; stroke: #ffffff; stroke-width: 1.25; stroke-linejoin: miter; stroke-linecap: square"/>
   </g>
   <g id="text_21">
    <!-- 0.999~30 -->
    <g style="fill: #262626" transform="translate(558.657694 249.091048) scale(0.252 -0.252)">
     <defs>
      <path id="DejaVuSans-39" d="M 703 97 
L 703 672 
Q 941 559 1184 500 
Q 1428 441 1663 441 
Q 2288 441 2617 861 
Q 2947 1281 2994 2138 
Q 2813 1869 2534 1725 
Q 2256 1581 1919 1581 
Q 1219 1581 811 2004 
Q 403 2428 403 3163 
Q 403 3881 828 4315 
Q 1253 4750 1959 4750 
Q 2769 4750 3195 4129 
Q 3622 3509 3622 2328 
Q 3622 1225 3098 567 
Q 2575 -91 1691 -91 
Q 1453 -91 1209 -44 
Q 966 3 703 97 
z
M 1959 2075 
Q 2384 2075 2632 2365 
Q 2881 2656 2881 3163 
Q 2881 3666 2632 3958 
Q 2384 4250 1959 4250 
Q 1534 4250 1286 3958 
Q 1038 3666 1038 3163 
Q 1038 2656 1286 2365 
Q 1534 2075 1959 2075 
z
" transform="scale(0.015625)"/>
     </defs>
     <use xlink:href="#DejaVuSans-30"/>
     <use xlink:href="#DejaVuSans-2e" x="63.623047"/>
     <use xlink:href="#DejaVuSans-39" x="95.410156"/>
     <use xlink:href="#DejaVuSans-39" x="159.033203"/>
     <use xlink:href="#DejaVuSans-39" x="222.65625"/>
     <use xlink:href="#DejaVuSans-7e" x="286.279297"/>
     <use xlink:href="#DejaVuSans-33" x="370.068359"/>
     <use xlink:href="#DejaVuSans-30" x="433.691406"/>
    </g>
   </g>
  </g>
  <g id="axes_6">
   <g id="patch_17">
    <path d="M 798.93237 373.284 
L 1100.609573 373.284 
L 1100.609573 255.091048 
L 798.93237 255.091048 
z
" style="fill: #eaeaf2"/>
   </g>
   <g id="matplotlib.axis_11">
    <g id="xtick_21">
     <g id="line2d_61">
      <path d="M 812.64497 373.284 
L 812.64497 255.091048 
" clip-path="url(#pd038e6bb54)" style="fill: none; stroke: #ffffff; stroke-linecap: round"/>
     </g>
     <g id="text_22">
      <!-- 0 -->
      <g style="fill: #262626" transform="translate(805.296283 400.336391) scale(0.231 -0.231)">
       <use xlink:href="#DejaVuSans-30"/>
      </g>
     </g>
    </g>
    <g id="xtick_22">
     <g id="line2d_62">
      <path d="M 906.695726 373.284 
L 906.695726 255.091048 
" clip-path="url(#pd038e6bb54)" style="fill: none; stroke: #ffffff; stroke-linecap: round"/>
     </g>
     <g id="text_23">
      <!-- 250 -->
      <g style="fill: #262626" transform="translate(884.649663 400.336391) scale(0.231 -0.231)">
       <use xlink:href="#DejaVuSans-32"/>
       <use xlink:href="#DejaVuSans-35" x="63.623047"/>
       <use xlink:href="#DejaVuSans-30" x="127.246094"/>
      </g>
     </g>
    </g>
    <g id="xtick_23">
     <g id="line2d_63">
      <path d="M 1000.746481 373.284 
L 1000.746481 255.091048 
" clip-path="url(#pd038e6bb54)" style="fill: none; stroke: #ffffff; stroke-linecap: round"/>
     </g>
     <g id="text_24">
      <!-- 500 -->
      <g style="fill: #262626" transform="translate(978.700419 400.336391) scale(0.231 -0.231)">
       <use xlink:href="#DejaVuSans-35"/>
       <use xlink:href="#DejaVuSans-30" x="63.623047"/>
       <use xlink:href="#DejaVuSans-30" x="127.246094"/>
      </g>
     </g>
    </g>
    <g id="xtick_24">
     <g id="line2d_64">
      <path d="M 1094.797237 373.284 
L 1094.797237 255.091048 
" clip-path="url(#pd038e6bb54)" style="fill: none; stroke: #ffffff; stroke-linecap: round"/>
     </g>
     <g id="text_25">
      <!-- 750 -->
      <g style="fill: #262626" transform="translate(1072.751174 400.336391) scale(0.231 -0.231)">
       <use xlink:href="#DejaVuSans-37"/>
       <use xlink:href="#DejaVuSans-35" x="63.623047"/>
       <use xlink:href="#DejaVuSans-30" x="127.246094"/>
      </g>
     </g>
    </g>
    <g id="text_26">
     <!-- step -->
     <g style="fill: #262626" transform="translate(922.515597 428.288531) scale(0.252 -0.252)">
      <use xlink:href="#DejaVuSans-73"/>
      <use xlink:href="#DejaVuSans-74" x="52.099609"/>
      <use xlink:href="#DejaVuSans-65" x="91.308594"/>
      <use xlink:href="#DejaVuSans-70" x="152.832031"/>
     </g>
    </g>
   </g>
   <g id="matplotlib.axis_12">
    <g id="ytick_11">
     <g id="line2d_65">
      <path d="M 798.93237 362.364509 
L 1100.609573 362.364509 
" clip-path="url(#pd038e6bb54)" style="fill: none; stroke: #ffffff; stroke-linecap: round"/>
     </g>
    </g>
    <g id="ytick_12">
     <g id="line2d_66">
      <path d="M 798.93237 295.29692 
L 1100.609573 295.29692 
" clip-path="url(#pd038e6bb54)" style="fill: none; stroke: #ffffff; stroke-linecap: round"/>
     </g>
    </g>
   </g>
   <g id="PolyCollection_31"/>
   <g id="PolyCollection_32"/>
   <g id="PolyCollection_33"/>
   <g id="PolyCollection_34"/>
   <g id="PolyCollection_35"/>
   <g id="PolyCollection_36"/>
   <g id="line2d_67">
    <path d="M 812.64497 295.29692 
L 813.021173 329.247287 
L 813.397376 330.454292 
L 813.773579 330.777377 
L 814.525985 330.868828 
L 816.783204 330.931582 
L 818.288016 331.227719 
L 819.792828 330.79859 
L 820.169031 330.677578 
L 820.545234 330.701981 
L 821.29764 331.069023 
L 823.178655 332.63195 
L 823.931061 333.279689 
L 828.8217 341.161347 
L 831.455121 345.210899 
L 833.71234 348.14417 
L 835.593355 350.460414 
L 837.47437 352.404228 
L 839.355385 353.999048 
L 841.2364 355.266581 
L 843.117415 356.226785 
L 846.879445 357.914714 
L 851.393882 360.08595 
L 859.294145 363.922717 
L 863.056175 365.488236 
L 866.065799 366.509861 
L 868.699221 367.194705 
L 871.332642 367.653695 
L 873.966063 367.877991 
L 876.223281 367.894241 
L 878.480499 367.702723 
L 880.737717 367.293404 
L 882.994935 366.659692 
L 885.252154 365.790189 
L 887.509372 364.687407 
L 890.142793 363.148607 
L 893.152417 361.113433 
L 896.538244 358.52955 
L 900.300274 355.366918 
L 905.190914 350.942266 
L 912.714974 343.790897 
L 915.348395 341.411627 
L 916.477004 340.55513 
L 925.505877 334.47813 
L 927.386892 333.507678 
L 938.672983 328.48755 
L 945.444637 326.148559 
L 952.592494 323.938089 
L 957.859337 322.510484 
L 963.878585 321.069657 
L 1016.170805 309.932583 
L 1032.723738 306.008637 
L 1054.919716 300.493991 
L 1086.896973 292.544393 
L 1086.896973 292.544393 
" clip-path="url(#pd038e6bb54)" style="fill: none; stroke: #4c72b0; stroke-opacity: 0.9; stroke-width: 3; stroke-linecap: round"/>
   </g>
   <g id="line2d_68">
    <path d="M 812.64497 295.29692 
L 813.021173 313.813641 
L 813.397376 314.60471 
L 813.773579 314.878778 
L 814.525985 315.006753 
L 817.911813 314.964201 
L 818.664219 314.896761 
L 823.178655 314.096887 
L 824.307264 314.457218 
L 826.188279 315.254755 
L 829.574106 317.759794 
L 832.207527 319.860036 
L 834.464746 321.393014 
L 837.850573 323.336697 
L 840.107791 324.368986 
L 842.365009 325.158135 
L 844.622227 325.719894 
L 846.879445 326.071009 
L 854.779709 327.003091 
L 863.808581 328.221074 
L 867.946815 328.545959 
L 871.708845 328.624528 
L 875.094672 328.483435 
L 878.480499 328.123259 
L 881.866326 327.530646 
L 884.875951 326.795151 
L 888.261778 325.720893 
L 891.647605 324.391977 
L 895.409635 322.652555 
L 899.924071 320.293941 
L 908.576741 315.42803 
L 916.477004 311.061234 
L 918.358019 310.290789 
L 921.743847 309.264389 
L 925.505877 308.395429 
L 933.40614 307.190683 
L 949.58287 304.97809 
L 955.602119 304.260653 
L 960.492758 303.85443 
L 969.52163 303.271869 
L 1000.370278 301.728754 
L 1020.685241 300.58403 
L 1038.366783 299.354828 
L 1059.05795 297.683797 
L 1086.896973 295.284028 
L 1086.896973 295.284028 
" clip-path="url(#pd038e6bb54)" style="fill: none; stroke: #dd8452; stroke-opacity: 0.9; stroke-width: 3; stroke-linecap: round"/>
   </g>
   <g id="line2d_69">
    <path d="M 812.64497 295.29692 
L 813.021173 330.874451 
L 813.397376 332.817233 
L 813.773579 333.310905 
L 814.525985 333.471532 
L 818.288016 333.425638 
L 824.683467 331.086065 
L 827.316888 330.439165 
L 828.8217 330.258956 
L 830.702715 330.329463 
L 832.207527 330.621685 
L 834.464746 331.353333 
L 836.721964 332.370412 
L 841.988806 334.776202 
L 844.99843 336.016026 
L 848.008054 337.015103 
L 851.393882 337.881224 
L 860.046551 340.04122 
L 864.93719 341.120167 
L 869.451627 342.033888 
L 873.213657 342.570102 
L 876.975687 342.863939 
L 880.361514 342.906817 
L 883.747341 342.721792 
L 887.133169 342.291507 
L 890.518996 341.601204 
L 893.904823 340.688049 
L 897.666853 339.441725 
L 901.805086 337.835679 
L 906.695726 335.692836 
L 912.338771 332.971133 
L 920.239035 328.888762 
L 943.563622 316.663448 
L 949.206667 314.079459 
L 955.602119 311.397344 
L 963.126179 308.515589 
L 971.026443 305.730497 
L 979.302909 303.052719 
L 986.826969 300.833143 
L 994.35103 298.856813 
L 1001.498887 297.209223 
L 1007.518136 296.045347 
L 1013.537384 295.143751 
L 1018.428023 294.628446 
L 1023.318663 294.367433 
L 1028.209302 294.321535 
L 1036.861971 294.287943 
L 1071.848852 293.929365 
L 1086.896973 293.905453 
L 1086.896973 293.905453 
" clip-path="url(#pd038e6bb54)" style="fill: none; stroke: #55a868; stroke-opacity: 0.9; stroke-width: 3; stroke-linecap: round"/>
   </g>
   <g id="line2d_70">
    <path d="M 812.64497 295.29692 
L 813.021173 323.257911 
L 813.397376 324.817975 
L 813.773579 325.207426 
L 814.525985 325.330905 
L 818.288016 325.301239 
L 820.169031 324.57364 
L 822.802452 323.648407 
L 825.812076 322.807214 
L 827.693091 322.446956 
L 829.574106 322.388875 
L 831.455121 322.511022 
L 832.959933 322.808774 
L 835.217152 323.524979 
L 844.246024 326.887349 
L 847.255648 327.668834 
L 852.146288 328.620058 
L 873.213657 332.087683 
L 877.35189 332.390695 
L 881.11392 332.4501 
L 884.875951 332.287189 
L 888.637981 331.893018 
L 892.400011 331.247139 
L 896.538244 330.286275 
L 901.05268 329.003255 
L 905.94332 327.365846 
L 912.338771 324.958461 
L 920.991441 321.424882 
L 943.187419 312.206912 
L 950.335276 309.514493 
L 958.611743 306.668163 
L 967.264412 303.934541 
L 975.540879 301.54843 
L 982.688736 299.699049 
L 989.836594 298.087561 
L 995.855842 296.939205 
L 1003.756105 295.675985 
L 1009.775354 294.954245 
L 1016.170805 294.431973 
L 1023.318663 294.069448 
L 1029.714114 293.967458 
L 1035.357159 294.073174 
L 1042.505017 294.298554 
L 1054.919716 294.316807 
L 1086.896973 294.258667 
L 1086.896973 294.258667 
" clip-path="url(#pd038e6bb54)" style="fill: none; stroke: #c44e52; stroke-opacity: 0.9; stroke-width: 3; stroke-linecap: round"/>
   </g>
   <g id="line2d_71">
    <path d="M 812.64497 295.29692 
L 813.021173 327.891484 
L 813.397376 329.3335 
L 813.773579 329.577308 
L 814.902188 329.605255 
L 816.783204 329.634512 
L 818.288016 329.865986 
L 820.545234 329.304198 
L 822.050046 329.322328 
L 823.554858 329.625607 
L 824.307264 329.877451 
L 825.05967 330.522524 
L 827.316888 333.000528 
L 828.445497 334.671244 
L 830.326512 337.404597 
L 832.58373 340.313698 
L 835.593355 343.645422 
L 837.47437 345.34194 
L 839.355385 346.726762 
L 841.2364 347.822455 
L 843.869821 349.182743 
L 845.750836 349.876717 
L 847.631851 350.312314 
L 853.6511 351.341191 
L 861.927566 352.82596 
L 865.313393 353.217007 
L 868.699221 353.366598 
L 871.708845 353.273112 
L 874.342266 352.983228 
L 877.35189 352.426295 
L 880.361514 351.651399 
L 883.371138 350.645701 
L 898.795462 344.84533 
L 906.695726 341.616025 
L 913.46738 338.620262 
L 918.734222 336.309778 
L 920.991441 335.657915 
L 922.872456 335.302287 
L 925.129674 335.184005 
L 930.772719 335.298498 
L 935.287155 335.641096 
L 951.087682 337.046651 
L 958.611743 337.449182 
L 968.016818 337.694809 
L 975.917082 337.651421 
L 983.441142 337.383302 
L 990.965203 336.892412 
L 998.865466 336.150167 
L 1007.141933 335.137565 
L 1015.794602 333.857965 
L 1025.575881 332.176501 
L 1036.109565 330.157948 
L 1046.64325 327.946952 
L 1054.543513 326.038106 
L 1064.700995 323.348717 
L 1080.501522 318.890767 
L 1086.896973 317.044575 
L 1086.896973 317.044575 
" clip-path="url(#pd038e6bb54)" style="fill: none; stroke: #8172b3; stroke-opacity: 0.9; stroke-width: 3; stroke-linecap: round"/>
   </g>
   <g id="line2d_72">
    <path d="M 812.64497 295.29692 
L 813.021173 321.45122 
L 813.397376 322.43605 
L 813.773579 322.622004 
L 814.902188 322.643304 
L 819.040422 322.454409 
L 820.169031 322.223903 
L 822.050046 322.248558 
L 823.931061 322.641473 
L 825.05967 323.168778 
L 827.693091 325.448588 
L 829.574106 327.71637 
L 831.831324 330.198714 
L 834.840949 333.117131 
L 836.721964 334.639585 
L 838.602979 335.897512 
L 840.483994 336.908201 
L 842.741212 337.836081 
L 844.622227 338.479068 
L 846.503242 338.917595 
L 849.136663 339.254256 
L 855.155912 340.14928 
L 862.303769 341.137032 
L 865.689596 341.350894 
L 868.699221 341.339345 
L 871.708845 341.115813 
L 874.718469 340.656302 
L 877.728093 339.945559 
L 880.737717 338.994258 
L 883.747341 337.806149 
L 886.756966 336.362123 
L 890.142793 334.469689 
L 898.419259 329.679097 
L 901.805086 328.096476 
L 906.319523 326.269326 
L 909.329147 325.449626 
L 912.714974 324.881839 
L 916.477004 324.406348 
L 920.991441 323.881942 
L 931.148922 322.457797 
L 942.435013 320.641716 
L 971.026443 315.671968 
L 1038.742986 303.778071 
L 1055.295919 300.521117 
L 1066.205807 298.532212 
L 1071.848852 297.776417 
L 1078.244304 297.177948 
L 1086.52077 296.685891 
L 1086.896973 296.667329 
L 1086.896973 296.667329 
" clip-path="url(#pd038e6bb54)" style="fill: none; stroke: #937860; stroke-opacity: 0.9; stroke-width: 3; stroke-linecap: round"/>
   </g>
   <g id="patch_18">
    <path d="M 798.93237 373.284 
L 798.93237 255.091048 
" style="fill: none; stroke: #ffffff; stroke-width: 1.25; stroke-linejoin: miter; stroke-linecap: square"/>
   </g>
   <g id="patch_19">
    <path d="M 798.93237 373.284 
L 1100.609573 373.284 
" style="fill: none; stroke: #ffffff; stroke-width: 1.25; stroke-linejoin: miter; stroke-linecap: square"/>
   </g>
   <g id="text_27">
    <!-- 0.999~365 -->
    <g style="fill: #262626" transform="translate(879.090878 249.091048) scale(0.252 -0.252)">
     <use xlink:href="#DejaVuSans-30"/>
     <use xlink:href="#DejaVuSans-2e" x="63.623047"/>
     <use xlink:href="#DejaVuSans-39" x="95.410156"/>
     <use xlink:href="#DejaVuSans-39" x="159.033203"/>
     <use xlink:href="#DejaVuSans-39" x="222.65625"/>
     <use xlink:href="#DejaVuSans-7e" x="286.279297"/>
     <use xlink:href="#DejaVuSans-33" x="370.068359"/>
     <use xlink:href="#DejaVuSans-36" x="433.691406"/>
     <use xlink:href="#DejaVuSans-35" x="497.314453"/>
    </g>
   </g>
  </g>
  <g id="text_28">
   <!-- Production change from pre-shock level -->
   <g style="fill: #262626" transform="translate(280.766836 30.177675) scale(0.3024 -0.3024)">
    <defs>
     <path id="DejaVuSans-50" d="M 1259 4147 
L 1259 2394 
L 2053 2394 
Q 2494 2394 2734 2622 
Q 2975 2850 2975 3272 
Q 2975 3691 2734 3919 
Q 2494 4147 2053 4147 
L 1259 4147 
z
M 628 4666 
L 2053 4666 
Q 2838 4666 3239 4311 
Q 3641 3956 3641 3272 
Q 3641 2581 3239 2228 
Q 2838 1875 2053 1875 
L 1259 1875 
L 1259 0 
L 628 0 
L 628 4666 
z
" transform="scale(0.015625)"/>
     <path id="DejaVuSans-72" d="M 2631 2963 
Q 2534 3019 2420 3045 
Q 2306 3072 2169 3072 
Q 1681 3072 1420 2755 
Q 1159 2438 1159 1844 
L 1159 0 
L 581 0 
L 581 3500 
L 1159 3500 
L 1159 2956 
Q 1341 3275 1631 3429 
Q 1922 3584 2338 3584 
Q 2397 3584 2469 3576 
Q 2541 3569 2628 3553 
L 2631 2963 
z
" transform="scale(0.015625)"/>
     <path id="DejaVuSans-6f" d="M 1959 3097 
Q 1497 3097 1228 2736 
Q 959 2375 959 1747 
Q 959 1119 1226 758 
Q 1494 397 1959 397 
Q 2419 397 2687 759 
Q 2956 1122 2956 1747 
Q 2956 2369 2687 2733 
Q 2419 3097 1959 3097 
z
M 1959 3584 
Q 2709 3584 3137 3096 
Q 3566 2609 3566 1747 
Q 3566 888 3137 398 
Q 2709 -91 1959 -91 
Q 1206 -91 779 398 
Q 353 888 353 1747 
Q 353 2609 779 3096 
Q 1206 3584 1959 3584 
z
" transform="scale(0.015625)"/>
     <path id="DejaVuSans-64" d="M 2906 2969 
L 2906 4863 
L 3481 4863 
L 3481 0 
L 2906 0 
L 2906 525 
Q 2725 213 2448 61 
Q 2172 -91 1784 -91 
Q 1150 -91 751 415 
Q 353 922 353 1747 
Q 353 2572 751 3078 
Q 1150 3584 1784 3584 
Q 2172 3584 2448 3432 
Q 2725 3281 2906 2969 
z
M 947 1747 
Q 947 1113 1208 752 
Q 1469 391 1925 391 
Q 2381 391 2643 752 
Q 2906 1113 2906 1747 
Q 2906 2381 2643 2742 
Q 2381 3103 1925 3103 
Q 1469 3103 1208 2742 
Q 947 2381 947 1747 
z
" transform="scale(0.015625)"/>
     <path id="DejaVuSans-75" d="M 544 1381 
L 544 3500 
L 1119 3500 
L 1119 1403 
Q 1119 906 1312 657 
Q 1506 409 1894 409 
Q 2359 409 2629 706 
Q 2900 1003 2900 1516 
L 2900 3500 
L 3475 3500 
L 3475 0 
L 2900 0 
L 2900 538 
Q 2691 219 2414 64 
Q 2138 -91 1772 -91 
Q 1169 -91 856 284 
Q 544 659 544 1381 
z
M 1991 3584 
L 1991 3584 
z
" transform="scale(0.015625)"/>
     <path id="DejaVuSans-69" d="M 603 3500 
L 1178 3500 
L 1178 0 
L 603 0 
L 603 3500 
z
M 603 4863 
L 1178 4863 
L 1178 4134 
L 603 4134 
L 603 4863 
z
" transform="scale(0.015625)"/>
     <path id="DejaVuSans-66" d="M 2375 4863 
L 2375 4384 
L 1825 4384 
Q 1516 4384 1395 4259 
Q 1275 4134 1275 3809 
L 1275 3500 
L 2222 3500 
L 2222 3053 
L 1275 3053 
L 1275 0 
L 697 0 
L 697 3053 
L 147 3053 
L 147 3500 
L 697 3500 
L 697 3744 
Q 697 4328 969 4595 
Q 1241 4863 1831 4863 
L 2375 4863 
z
" transform="scale(0.015625)"/>
     <path id="DejaVuSans-6d" d="M 3328 2828 
Q 3544 3216 3844 3400 
Q 4144 3584 4550 3584 
Q 5097 3584 5394 3201 
Q 5691 2819 5691 2113 
L 5691 0 
L 5113 0 
L 5113 2094 
Q 5113 2597 4934 2840 
Q 4756 3084 4391 3084 
Q 3944 3084 3684 2787 
Q 3425 2491 3425 1978 
L 3425 0 
L 2847 0 
L 2847 2094 
Q 2847 2600 2669 2842 
Q 2491 3084 2119 3084 
Q 1678 3084 1418 2786 
Q 1159 2488 1159 1978 
L 1159 0 
L 581 0 
L 581 3500 
L 1159 3500 
L 1159 2956 
Q 1356 3278 1631 3431 
Q 1906 3584 2284 3584 
Q 2666 3584 2933 3390 
Q 3200 3197 3328 2828 
z
" transform="scale(0.015625)"/>
     <path id="DejaVuSans-2d" d="M 313 2009 
L 1997 2009 
L 1997 1497 
L 313 1497 
L 313 2009 
z
" transform="scale(0.015625)"/>
     <path id="DejaVuSans-6b" d="M 581 4863 
L 1159 4863 
L 1159 1991 
L 2875 3500 
L 3609 3500 
L 1753 1863 
L 3688 0 
L 2938 0 
L 1159 1709 
L 1159 0 
L 581 0 
L 581 4863 
z
" transform="scale(0.015625)"/>
     <path id="DejaVuSans-6c" d="M 603 4863 
L 1178 4863 
L 1178 0 
L 603 0 
L 603 4863 
z
" transform="scale(0.015625)"/>
     <path id="DejaVuSans-76" d="M 191 3500 
L 800 3500 
L 1894 563 
L 2988 3500 
L 3597 3500 
L 2284 0 
L 1503 0 
L 191 3500 
z
" transform="scale(0.015625)"/>
    </defs>
    <use xlink:href="#DejaVuSans-50"/>
    <use xlink:href="#DejaVuSans-72" x="58.552734"/>
    <use xlink:href="#DejaVuSans-6f" x="97.416016"/>
    <use xlink:href="#DejaVuSans-64" x="158.597656"/>
    <use xlink:href="#DejaVuSans-75" x="222.074219"/>
    <use xlink:href="#DejaVuSans-63" x="285.453125"/>
    <use xlink:href="#DejaVuSans-74" x="340.433594"/>
    <use xlink:href="#DejaVuSans-69" x="379.642578"/>
    <use xlink:href="#DejaVuSans-6f" x="407.425781"/>
    <use xlink:href="#DejaVuSans-6e" x="468.607422"/>
    <use xlink:href="#DejaVuSans-20" x="531.986328"/>
    <use xlink:href="#DejaVuSans-63" x="563.773438"/>
    <use xlink:href="#DejaVuSans-68" x="618.753906"/>
    <use xlink:href="#DejaVuSans-61" x="682.132812"/>
    <use xlink:href="#DejaVuSans-6e" x="743.412109"/>
    <use xlink:href="#DejaVuSans-67" x="806.791016"/>
    <use xlink:href="#DejaVuSans-65" x="870.267578"/>
    <use xlink:href="#DejaVuSans-20" x="931.791016"/>
    <use xlink:href="#DejaVuSans-66" x="963.578125"/>
    <use xlink:href="#DejaVuSans-72" x="998.783203"/>
    <use xlink:href="#DejaVuSans-6f" x="1037.646484"/>
    <use xlink:href="#DejaVuSans-6d" x="1098.828125"/>
    <use xlink:href="#DejaVuSans-20" x="1196.240234"/>
    <use xlink:href="#DejaVuSans-70" x="1228.027344"/>
    <use xlink:href="#DejaVuSans-72" x="1291.503906"/>
    <use xlink:href="#DejaVuSans-65" x="1330.367188"/>
    <use xlink:href="#DejaVuSans-2d" x="1391.890625"/>
    <use xlink:href="#DejaVuSans-73" x="1427.974609"/>
    <use xlink:href="#DejaVuSans-68" x="1480.074219"/>
    <use xlink:href="#DejaVuSans-6f" x="1543.453125"/>
    <use xlink:href="#DejaVuSans-63" x="1604.634766"/>
    <use xlink:href="#DejaVuSans-6b" x="1659.615234"/>
    <use xlink:href="#DejaVuSans-20" x="1717.525391"/>
    <use xlink:href="#DejaVuSans-6c" x="1749.3125"/>
    <use xlink:href="#DejaVuSans-65" x="1777.095703"/>
    <use xlink:href="#DejaVuSans-76" x="1838.619141"/>
    <use xlink:href="#DejaVuSans-65" x="1897.798828"/>
    <use xlink:href="#DejaVuSans-6c" x="1959.322266"/>
   </g>
  </g>
  <g id="legend_1">
   <g id="patch_20">
    <path d="M 11.82 584.31675 
L 1292.617547 584.31675 
Q 1297.237547 584.31675 1297.237547 579.69675 
L 1297.237547 476.97 
Q 1297.237547 472.35 1292.617547 472.35 
L 11.82 472.35 
Q 7.2 472.35 7.2 476.97 
L 7.2 579.69675 
Q 7.2 584.31675 11.82 584.31675 
z
" style="fill: #eaeaf2; opacity: 0.8; stroke: #cccccc; stroke-linejoin: miter"/>
   </g>
   <g id="text_29">
    <!-- Experiences -->
    <g style="fill: #262626" transform="translate(575.384367 500.738062) scale(0.252 -0.252)">
     <defs>
      <path id="DejaVuSans-45" d="M 628 4666 
L 3578 4666 
L 3578 4134 
L 1259 4134 
L 1259 2753 
L 3481 2753 
L 3481 2222 
L 1259 2222 
L 1259 531 
L 3634 531 
L 3634 0 
L 628 0 
L 628 4666 
z
" transform="scale(0.015625)"/>
      <path id="DejaVuSans-78" d="M 3513 3500 
L 2247 1797 
L 3578 0 
L 2900 0 
L 1881 1375 
L 863 0 
L 184 0 
L 1544 1831 
L 300 3500 
L 978 3500 
L 1906 2253 
L 2834 3500 
L 3513 3500 
z
" transform="scale(0.015625)"/>
     </defs>
     <use xlink:href="#DejaVuSans-45"/>
     <use xlink:href="#DejaVuSans-78" x="63.183594"/>
     <use xlink:href="#DejaVuSans-70" x="122.363281"/>
     <use xlink:href="#DejaVuSans-65" x="185.839844"/>
     <use xlink:href="#DejaVuSans-72" x="247.363281"/>
     <use xlink:href="#DejaVuSans-69" x="288.476562"/>
     <use xlink:href="#DejaVuSans-65" x="316.259766"/>
     <use xlink:href="#DejaVuSans-6e" x="377.783203"/>
     <use xlink:href="#DejaVuSans-63" x="441.162109"/>
     <use xlink:href="#DejaVuSans-65" x="496.142578"/>
     <use xlink:href="#DejaVuSans-73" x="557.666016"/>
    </g>
   </g>
   <g id="line2d_73">
    <path d="M 16.44 526.996266 
L 39.54 526.996266 
L 62.64 526.996266 
" style="fill: none; stroke: #4c72b0; stroke-opacity: 0.9; stroke-width: 3; stroke-linecap: round"/>
   </g>
   <g id="text_30">
    <!-- eora26_full_2000 -->
    <g style="fill: #262626" transform="translate(81.12 535.081266) scale(0.231 -0.231)">
     <defs>
      <path id="DejaVuSans-5f" d="M 3263 -1063 
L 3263 -1509 
L -63 -1509 
L -63 -1063 
L 3263 -1063 
z
" transform="scale(0.015625)"/>
     </defs>
     <use xlink:href="#DejaVuSans-65"/>
     <use xlink:href="#DejaVuSans-6f" x="61.523438"/>
     <use xlink:href="#DejaVuSans-72" x="122.705078"/>
     <use xlink:href="#DejaVuSans-61" x="163.818359"/>
     <use xlink:href="#DejaVuSans-32" x="225.097656"/>
     <use xlink:href="#DejaVuSans-36" x="288.720703"/>
     <use xlink:href="#DejaVuSans-5f" x="352.34375"/>
     <use xlink:href="#DejaVuSans-66" x="402.34375"/>
     <use xlink:href="#DejaVuSans-75" x="437.548828"/>
     <use xlink:href="#DejaVuSans-6c" x="500.927734"/>
     <use xlink:href="#DejaVuSans-6c" x="528.710938"/>
     <use xlink:href="#DejaVuSans-5f" x="556.494141"/>
     <use xlink:href="#DejaVuSans-32" x="606.494141"/>
     <use xlink:href="#DejaVuSans-30" x="670.117188"/>
     <use xlink:href="#DejaVuSans-30" x="733.740234"/>
     <use xlink:href="#DejaVuSans-30" x="797.363281"/>
    </g>
   </g>
   <g id="line2d_74">
    <path d="M 16.44 561.545203 
L 39.54 561.545203 
L 62.64 561.545203 
" style="fill: none; stroke: #dd8452; stroke-opacity: 0.9; stroke-width: 3; stroke-linecap: round"/>
   </g>
   <g id="text_31">
    <!-- eora26_full_2010 -->
    <g style="fill: #262626" transform="translate(81.12 569.630203) scale(0.231 -0.231)">
     <use xlink:href="#DejaVuSans-65"/>
     <use xlink:href="#DejaVuSans-6f" x="61.523438"/>
     <use xlink:href="#DejaVuSans-72" x="122.705078"/>
     <use xlink:href="#DejaVuSans-61" x="163.818359"/>
     <use xlink:href="#DejaVuSans-32" x="225.097656"/>
     <use xlink:href="#DejaVuSans-36" x="288.720703"/>
     <use xlink:href="#DejaVuSans-5f" x="352.34375"/>
     <use xlink:href="#DejaVuSans-66" x="402.34375"/>
     <use xlink:href="#DejaVuSans-75" x="437.548828"/>
     <use xlink:href="#DejaVuSans-6c" x="500.927734"/>
     <use xlink:href="#DejaVuSans-6c" x="528.710938"/>
     <use xlink:href="#DejaVuSans-5f" x="556.494141"/>
     <use xlink:href="#DejaVuSans-32" x="606.494141"/>
     <use xlink:href="#DejaVuSans-30" x="670.117188"/>
     <use xlink:href="#DejaVuSans-31" x="733.740234"/>
     <use xlink:href="#DejaVuSans-30" x="797.363281"/>
    </g>
   </g>
   <g id="line2d_75">
    <path d="M 326.211 526.996266 
L 349.311 526.996266 
L 372.411 526.996266 
" style="fill: none; stroke: #55a868; stroke-opacity: 0.9; stroke-width: 3; stroke-linecap: round"/>
   </g>
   <g id="text_32">
    <!-- euregio_full_2000 -->
    <g style="fill: #262626" transform="translate(390.891 535.081266) scale(0.231 -0.231)">
     <use xlink:href="#DejaVuSans-65"/>
     <use xlink:href="#DejaVuSans-75" x="61.523438"/>
     <use xlink:href="#DejaVuSans-72" x="124.902344"/>
     <use xlink:href="#DejaVuSans-65" x="163.765625"/>
     <use xlink:href="#DejaVuSans-67" x="225.289062"/>
     <use xlink:href="#DejaVuSans-69" x="288.765625"/>
     <use xlink:href="#DejaVuSans-6f" x="316.548828"/>
     <use xlink:href="#DejaVuSans-5f" x="377.730469"/>
     <use xlink:href="#DejaVuSans-66" x="427.730469"/>
     <use xlink:href="#DejaVuSans-75" x="462.935547"/>
     <use xlink:href="#DejaVuSans-6c" x="526.314453"/>
     <use xlink:href="#DejaVuSans-6c" x="554.097656"/>
     <use xlink:href="#DejaVuSans-5f" x="581.880859"/>
     <use xlink:href="#DejaVuSans-32" x="631.880859"/>
     <use xlink:href="#DejaVuSans-30" x="695.503906"/>
     <use xlink:href="#DejaVuSans-30" x="759.126953"/>
     <use xlink:href="#DejaVuSans-30" x="822.75"/>
    </g>
   </g>
   <g id="line2d_76">
    <path d="M 326.211 561.545203 
L 349.311 561.545203 
L 372.411 561.545203 
" style="fill: none; stroke: #c44e52; stroke-opacity: 0.9; stroke-width: 3; stroke-linecap: round"/>
   </g>
   <g id="text_33">
    <!-- euregio_full_2010 -->
    <g style="fill: #262626" transform="translate(390.891 569.630203) scale(0.231 -0.231)">
     <use xlink:href="#DejaVuSans-65"/>
     <use xlink:href="#DejaVuSans-75" x="61.523438"/>
     <use xlink:href="#DejaVuSans-72" x="124.902344"/>
     <use xlink:href="#DejaVuSans-65" x="163.765625"/>
     <use xlink:href="#DejaVuSans-67" x="225.289062"/>
     <use xlink:href="#DejaVuSans-69" x="288.765625"/>
     <use xlink:href="#DejaVuSans-6f" x="316.548828"/>
     <use xlink:href="#DejaVuSans-5f" x="377.730469"/>
     <use xlink:href="#DejaVuSans-66" x="427.730469"/>
     <use xlink:href="#DejaVuSans-75" x="462.935547"/>
     <use xlink:href="#DejaVuSans-6c" x="526.314453"/>
     <use xlink:href="#DejaVuSans-6c" x="554.097656"/>
     <use xlink:href="#DejaVuSans-5f" x="581.880859"/>
     <use xlink:href="#DejaVuSans-32" x="631.880859"/>
     <use xlink:href="#DejaVuSans-30" x="695.503906"/>
     <use xlink:href="#DejaVuSans-31" x="759.126953"/>
     <use xlink:href="#DejaVuSans-30" x="822.75"/>
    </g>
   </g>
   <g id="line2d_77">
    <path d="M 641.847234 526.996266 
L 664.947234 526.996266 
L 688.047234 526.996266 
" style="fill: none; stroke: #8172b3; stroke-opacity: 0.9; stroke-width: 3; stroke-linecap: round"/>
   </g>
   <g id="text_34">
    <!-- exiobase3_full_2000 -->
    <g style="fill: #262626" transform="translate(706.527234 535.081266) scale(0.231 -0.231)">
     <defs>
      <path id="DejaVuSans-62" d="M 3116 1747 
Q 3116 2381 2855 2742 
Q 2594 3103 2138 3103 
Q 1681 3103 1420 2742 
Q 1159 2381 1159 1747 
Q 1159 1113 1420 752 
Q 1681 391 2138 391 
Q 2594 391 2855 752 
Q 3116 1113 3116 1747 
z
M 1159 2969 
Q 1341 3281 1617 3432 
Q 1894 3584 2278 3584 
Q 2916 3584 3314 3078 
Q 3713 2572 3713 1747 
Q 3713 922 3314 415 
Q 2916 -91 2278 -91 
Q 1894 -91 1617 61 
Q 1341 213 1159 525 
L 1159 0 
L 581 0 
L 581 4863 
L 1159 4863 
L 1159 2969 
z
" transform="scale(0.015625)"/>
     </defs>
     <use xlink:href="#DejaVuSans-65"/>
     <use xlink:href="#DejaVuSans-78" x="59.773438"/>
     <use xlink:href="#DejaVuSans-69" x="118.953125"/>
     <use xlink:href="#DejaVuSans-6f" x="146.736328"/>
     <use xlink:href="#DejaVuSans-62" x="207.917969"/>
     <use xlink:href="#DejaVuSans-61" x="271.394531"/>
     <use xlink:href="#DejaVuSans-73" x="332.673828"/>
     <use xlink:href="#DejaVuSans-65" x="384.773438"/>
     <use xlink:href="#DejaVuSans-33" x="446.296875"/>
     <use xlink:href="#DejaVuSans-5f" x="509.919922"/>
     <use xlink:href="#DejaVuSans-66" x="559.919922"/>
     <use xlink:href="#DejaVuSans-75" x="595.125"/>
     <use xlink:href="#DejaVuSans-6c" x="658.503906"/>
     <use xlink:href="#DejaVuSans-6c" x="686.287109"/>
     <use xlink:href="#DejaVuSans-5f" x="714.070312"/>
     <use xlink:href="#DejaVuSans-32" x="764.070312"/>
     <use xlink:href="#DejaVuSans-30" x="827.693359"/>
     <use xlink:href="#DejaVuSans-30" x="891.316406"/>
     <use xlink:href="#DejaVuSans-30" x="954.939453"/>
    </g>
   </g>
   <g id="line2d_78">
    <path d="M 988.022391 526.996266 
L 1011.122391 526.996266 
L 1034.222391 526.996266 
" style="fill: none; stroke: #937860; stroke-opacity: 0.9; stroke-width: 3; stroke-linecap: round"/>
   </g>
   <g id="text_35">
    <!-- exiobase3_full_2010 -->
    <g style="fill: #262626" transform="translate(1052.702391 535.081266) scale(0.231 -0.231)">
     <use xlink:href="#DejaVuSans-65"/>
     <use xlink:href="#DejaVuSans-78" x="59.773438"/>
     <use xlink:href="#DejaVuSans-69" x="118.953125"/>
     <use xlink:href="#DejaVuSans-6f" x="146.736328"/>
     <use xlink:href="#DejaVuSans-62" x="207.917969"/>
     <use xlink:href="#DejaVuSans-61" x="271.394531"/>
     <use xlink:href="#DejaVuSans-73" x="332.673828"/>
     <use xlink:href="#DejaVuSans-65" x="384.773438"/>
     <use xlink:href="#DejaVuSans-33" x="446.296875"/>
     <use xlink:href="#DejaVuSans-5f" x="509.919922"/>
     <use xlink:href="#DejaVuSans-66" x="559.919922"/>
     <use xlink:href="#DejaVuSans-75" x="595.125"/>
     <use xlink:href="#DejaVuSans-6c" x="658.503906"/>
     <use xlink:href="#DejaVuSans-6c" x="686.287109"/>
     <use xlink:href="#DejaVuSans-5f" x="714.070312"/>
     <use xlink:href="#DejaVuSans-32" x="764.070312"/>
     <use xlink:href="#DejaVuSans-30" x="827.693359"/>
     <use xlink:href="#DejaVuSans-31" x="891.316406"/>
     <use xlink:href="#DejaVuSans-30" x="954.939453"/>
    </g>
   </g>
  </g>
 </g>
 <defs>
  <clipPath id="p93a0004051">
   <rect x="142.032503" y="81.456" width="301.677203" height="118.192952"/>
  </clipPath>
  <clipPath id="pfc075be432">
   <rect x="470.482436" y="81.456" width="301.677203" height="118.192952"/>
  </clipPath>
  <clipPath id="pc4794dccba">
   <rect x="798.93237" y="81.456" width="301.677203" height="118.192952"/>
  </clipPath>
  <clipPath id="p4bb8eb8ebe">
   <rect x="142.032503" y="255.091048" width="301.677203" height="118.192952"/>
  </clipPath>
  <clipPath id="p33b202115a">
   <rect x="470.482436" y="255.091048" width="301.677203" height="118.192952"/>
  </clipPath>
  <clipPath id="pd038e6bb54">
   <rect x="798.93237" y="255.091048" width="301.677203" height="118.192952"/>
  </clipPath>
 </defs>
</svg>
