<?xml version="1.0" encoding="utf-8" standalone="no"?>
<!DOCTYPE svg PUBLIC "-//W3C//DTD SVG 1.1//EN"
  "http://www.w3.org/Graphics/SVG/1.1/DTD/svg11.dtd">
<svg xmlns:xlink="http://www.w3.org/1999/xlink" width="1304.437547pt" height="591.51675pt" viewBox="0 0 1304.437547 591.51675" xmlns="http://www.w3.org/2000/svg" version="1.1">
 <metadata>
  <rdf:RDF xmlns:dc="http://purl.org/dc/elements/1.1/" xmlns:cc="http://creativecommons.org/ns#" xmlns:rdf="http://www.w3.org/1999/02/22-rdf-syntax-ns#">
   <cc:Work>
    <dc:type rdf:resource="http://purl.org/dc/dcmitype/StillImage"/>
    <dc:date>2023-04-25T16:28:51.128837</dc:date>
    <dc:format>image/svg+xml</dc:format>
    <dc:creator>
     <cc:Agent>
      <dc:title>Matplotlib v3.7.1, https://matplotlib.org/</dc:title>
     </cc:Agent>
    </dc:creator>
   </cc:Work>
  </rdf:RDF>
 </metadata>
 <defs>
  <style type="text/css">*{stroke-linejoin: round; stroke-linecap: butt}</style>
 </defs>
 <g id="figure_1">
  <g id="patch_1">
   <path d="M 0 591.51675 
L 1304.437547 591.51675 
L 1304.437547 -0 
L 0 -0 
z
" style="fill: #ffffff"/>
  </g>
  <g id="axes_1">
   <g id="patch_2">
    <path d="M 208.160885 201.042 
L 488.10316 201.042 
L 488.10316 81.456 
L 208.160885 81.456 
z
" style="fill: #eaeaf2"/>
   </g>
   <g id="matplotlib.axis_1">
    <g id="xtick_1">
     <g id="line2d_1">
      <path d="M 220.885534 201.042 
L 220.885534 81.456 
" clip-path="url(#pe271ca5a19)" style="fill: none; stroke: #ffffff; stroke-linecap: round"/>
     </g>
    </g>
    <g id="xtick_2">
     <g id="line2d_2">
      <path d="M 308.160218 201.042 
L 308.160218 81.456 
" clip-path="url(#pe271ca5a19)" style="fill: none; stroke: #ffffff; stroke-linecap: round"/>
     </g>
    </g>
    <g id="xtick_3">
     <g id="line2d_3">
      <path d="M 395.434901 201.042 
L 395.434901 81.456 
" clip-path="url(#pe271ca5a19)" style="fill: none; stroke: #ffffff; stroke-linecap: round"/>
     </g>
    </g>
    <g id="xtick_4">
     <g id="line2d_4">
      <path d="M 482.709585 201.042 
L 482.709585 81.456 
" clip-path="url(#pe271ca5a19)" style="fill: none; stroke: #ffffff; stroke-linecap: round"/>
     </g>
    </g>
   </g>
   <g id="matplotlib.axis_2">
    <g id="ytick_1">
     <g id="line2d_5">
      <path d="M 208.160885 147.758365 
L 488.10316 147.758365 
" clip-path="url(#pe271ca5a19)" style="fill: none; stroke: #ffffff; stroke-linecap: round"/>
     </g>
     <g id="text_1">
      <!-- −0.025 -->
      <g style="fill: #262626" transform="translate(113.172838 156.534561) scale(0.231 -0.231)">
       <defs>
        <path id="DejaVuSans-2212" d="M 678 2272 
L 4684 2272 
L 4684 1741 
L 678 1741 
L 678 2272 
z
" transform="scale(0.015625)"/>
        <path id="DejaVuSans-30" d="M 2034 4250 
Q 1547 4250 1301 3770 
Q 1056 3291 1056 2328 
Q 1056 1369 1301 889 
Q 1547 409 2034 409 
Q 2525 409 2770 889 
Q 3016 1369 3016 2328 
Q 3016 3291 2770 3770 
Q 2525 4250 2034 4250 
z
M 2034 4750 
Q 2819 4750 3233 4129 
Q 3647 3509 3647 2328 
Q 3647 1150 3233 529 
Q 2819 -91 2034 -91 
Q 1250 -91 836 529 
Q 422 1150 422 2328 
Q 422 3509 836 4129 
Q 1250 4750 2034 4750 
z
" transform="scale(0.015625)"/>
        <path id="DejaVuSans-2e" d="M 684 794 
L 1344 794 
L 1344 0 
L 684 0 
L 684 794 
z
" transform="scale(0.015625)"/>
        <path id="DejaVuSans-32" d="M 1228 531 
L 3431 531 
L 3431 0 
L 469 0 
L 469 531 
Q 828 903 1448 1529 
Q 2069 2156 2228 2338 
Q 2531 2678 2651 2914 
Q 2772 3150 2772 3378 
Q 2772 3750 2511 3984 
Q 2250 4219 1831 4219 
Q 1534 4219 1204 4116 
Q 875 4013 500 3803 
L 500 4441 
Q 881 4594 1212 4672 
Q 1544 4750 1819 4750 
Q 2544 4750 2975 4387 
Q 3406 4025 3406 3419 
Q 3406 3131 3298 2873 
Q 3191 2616 2906 2266 
Q 2828 2175 2409 1742 
Q 1991 1309 1228 531 
z
" transform="scale(0.015625)"/>
        <path id="DejaVuSans-35" d="M 691 4666 
L 3169 4666 
L 3169 4134 
L 1269 4134 
L 1269 2991 
Q 1406 3038 1543 3061 
Q 1681 3084 1819 3084 
Q 2600 3084 3056 2656 
Q 3513 2228 3513 1497 
Q 3513 744 3044 326 
Q 2575 -91 1722 -91 
Q 1428 -91 1123 -41 
Q 819 9 494 109 
L 494 744 
Q 775 591 1075 516 
Q 1375 441 1709 441 
Q 2250 441 2565 725 
Q 2881 1009 2881 1497 
Q 2881 1984 2565 2268 
Q 2250 2553 1709 2553 
Q 1456 2553 1204 2497 
Q 953 2441 691 2322 
L 691 4666 
z
" transform="scale(0.015625)"/>
       </defs>
       <use xlink:href="#DejaVuSans-2212"/>
       <use xlink:href="#DejaVuSans-30" x="83.789062"/>
       <use xlink:href="#DejaVuSans-2e" x="147.412109"/>
       <use xlink:href="#DejaVuSans-30" x="179.199219"/>
       <use xlink:href="#DejaVuSans-32" x="242.822266"/>
       <use xlink:href="#DejaVuSans-35" x="306.445312"/>
      </g>
     </g>
    </g>
    <g id="ytick_2">
     <g id="line2d_6">
      <path d="M 208.160885 86.891727 
L 488.10316 86.891727 
" clip-path="url(#pe271ca5a19)" style="fill: none; stroke: #ffffff; stroke-linecap: round"/>
     </g>
     <g id="text_2">
      <!-- 0.000 -->
      <g style="fill: #262626" transform="translate(132.529916 95.667923) scale(0.231 -0.231)">
       <use xlink:href="#DejaVuSans-30"/>
       <use xlink:href="#DejaVuSans-2e" x="63.623047"/>
       <use xlink:href="#DejaVuSans-30" x="95.410156"/>
       <use xlink:href="#DejaVuSans-30" x="159.033203"/>
       <use xlink:href="#DejaVuSans-30" x="222.65625"/>
      </g>
     </g>
    </g>
    <g id="text_3">
     <!-- % change -->
     <g style="fill: #262626" transform="translate(103.932026 203.597344) rotate(-90) scale(0.252 -0.252)">
      <defs>
       <path id="DejaVuSans-25" d="M 4653 2053 
Q 4381 2053 4226 1822 
Q 4072 1591 4072 1178 
Q 4072 772 4226 539 
Q 4381 306 4653 306 
Q 4919 306 5073 539 
Q 5228 772 5228 1178 
Q 5228 1588 5073 1820 
Q 4919 2053 4653 2053 
z
M 4653 2450 
Q 5147 2450 5437 2106 
Q 5728 1763 5728 1178 
Q 5728 594 5436 251 
Q 5144 -91 4653 -91 
Q 4153 -91 3862 251 
Q 3572 594 3572 1178 
Q 3572 1766 3864 2108 
Q 4156 2450 4653 2450 
z
M 1428 4353 
Q 1159 4353 1004 4120 
Q 850 3888 850 3481 
Q 850 3069 1003 2837 
Q 1156 2606 1428 2606 
Q 1700 2606 1854 2837 
Q 2009 3069 2009 3481 
Q 2009 3884 1853 4118 
Q 1697 4353 1428 4353 
z
M 4250 4750 
L 4750 4750 
L 1831 -91 
L 1331 -91 
L 4250 4750 
z
M 1428 4750 
Q 1922 4750 2215 4408 
Q 2509 4066 2509 3481 
Q 2509 2891 2217 2550 
Q 1925 2209 1428 2209 
Q 931 2209 642 2551 
Q 353 2894 353 3481 
Q 353 4063 643 4406 
Q 934 4750 1428 4750 
z
" transform="scale(0.015625)"/>
       <path id="DejaVuSans-20" transform="scale(0.015625)"/>
       <path id="DejaVuSans-63" d="M 3122 3366 
L 3122 2828 
Q 2878 2963 2633 3030 
Q 2388 3097 2138 3097 
Q 1578 3097 1268 2742 
Q 959 2388 959 1747 
Q 959 1106 1268 751 
Q 1578 397 2138 397 
Q 2388 397 2633 464 
Q 2878 531 3122 666 
L 3122 134 
Q 2881 22 2623 -34 
Q 2366 -91 2075 -91 
Q 1284 -91 818 406 
Q 353 903 353 1747 
Q 353 2603 823 3093 
Q 1294 3584 2113 3584 
Q 2378 3584 2631 3529 
Q 2884 3475 3122 3366 
z
" transform="scale(0.015625)"/>
       <path id="DejaVuSans-68" d="M 3513 2113 
L 3513 0 
L 2938 0 
L 2938 2094 
Q 2938 2591 2744 2837 
Q 2550 3084 2163 3084 
Q 1697 3084 1428 2787 
Q 1159 2491 1159 1978 
L 1159 0 
L 581 0 
L 581 4863 
L 1159 4863 
L 1159 2956 
Q 1366 3272 1645 3428 
Q 1925 3584 2291 3584 
Q 2894 3584 3203 3211 
Q 3513 2838 3513 2113 
z
" transform="scale(0.015625)"/>
       <path id="DejaVuSans-61" d="M 2194 1759 
Q 1497 1759 1228 1600 
Q 959 1441 959 1056 
Q 959 750 1161 570 
Q 1363 391 1709 391 
Q 2188 391 2477 730 
Q 2766 1069 2766 1631 
L 2766 1759 
L 2194 1759 
z
M 3341 1997 
L 3341 0 
L 2766 0 
L 2766 531 
Q 2569 213 2275 61 
Q 1981 -91 1556 -91 
Q 1019 -91 701 211 
Q 384 513 384 1019 
Q 384 1609 779 1909 
Q 1175 2209 1959 2209 
L 2766 2209 
L 2766 2266 
Q 2766 2663 2505 2880 
Q 2244 3097 1772 3097 
Q 1472 3097 1187 3025 
Q 903 2953 641 2809 
L 641 3341 
Q 956 3463 1253 3523 
Q 1550 3584 1831 3584 
Q 2591 3584 2966 3190 
Q 3341 2797 3341 1997 
z
" transform="scale(0.015625)"/>
       <path id="DejaVuSans-6e" d="M 3513 2113 
L 3513 0 
L 2938 0 
L 2938 2094 
Q 2938 2591 2744 2837 
Q 2550 3084 2163 3084 
Q 1697 3084 1428 2787 
Q 1159 2491 1159 1978 
L 1159 0 
L 581 0 
L 581 3500 
L 1159 3500 
L 1159 2956 
Q 1366 3272 1645 3428 
Q 1925 3584 2291 3584 
Q 2894 3584 3203 3211 
Q 3513 2838 3513 2113 
z
" transform="scale(0.015625)"/>
       <path id="DejaVuSans-67" d="M 2906 1791 
Q 2906 2416 2648 2759 
Q 2391 3103 1925 3103 
Q 1463 3103 1205 2759 
Q 947 2416 947 1791 
Q 947 1169 1205 825 
Q 1463 481 1925 481 
Q 2391 481 2648 825 
Q 2906 1169 2906 1791 
z
M 3481 434 
Q 3481 -459 3084 -895 
Q 2688 -1331 1869 -1331 
Q 1566 -1331 1297 -1286 
Q 1028 -1241 775 -1147 
L 775 -588 
Q 1028 -725 1275 -790 
Q 1522 -856 1778 -856 
Q 2344 -856 2625 -561 
Q 2906 -266 2906 331 
L 2906 616 
Q 2728 306 2450 153 
Q 2172 0 1784 0 
Q 1141 0 747 490 
Q 353 981 353 1791 
Q 353 2603 747 3093 
Q 1141 3584 1784 3584 
Q 2172 3584 2450 3431 
Q 2728 3278 2906 2969 
L 2906 3500 
L 3481 3500 
L 3481 434 
z
" transform="scale(0.015625)"/>
       <path id="DejaVuSans-65" d="M 3597 1894 
L 3597 1613 
L 953 1613 
Q 991 1019 1311 708 
Q 1631 397 2203 397 
Q 2534 397 2845 478 
Q 3156 559 3463 722 
L 3463 178 
Q 3153 47 2828 -22 
Q 2503 -91 2169 -91 
Q 1331 -91 842 396 
Q 353 884 353 1716 
Q 353 2575 817 3079 
Q 1281 3584 2069 3584 
Q 2775 3584 3186 3129 
Q 3597 2675 3597 1894 
z
M 3022 2063 
Q 3016 2534 2758 2815 
Q 2500 3097 2075 3097 
Q 1594 3097 1305 2825 
Q 1016 2553 972 2059 
L 3022 2063 
z
" transform="scale(0.015625)"/>
      </defs>
      <use xlink:href="#DejaVuSans-25"/>
      <use xlink:href="#DejaVuSans-20" x="95.019531"/>
      <use xlink:href="#DejaVuSans-63" x="126.806641"/>
      <use xlink:href="#DejaVuSans-68" x="181.787109"/>
      <use xlink:href="#DejaVuSans-61" x="245.166016"/>
      <use xlink:href="#DejaVuSans-6e" x="306.445312"/>
      <use xlink:href="#DejaVuSans-67" x="369.824219"/>
      <use xlink:href="#DejaVuSans-65" x="433.300781"/>
     </g>
    </g>
   </g>
   <g id="PolyCollection_1"/>
   <g id="PolyCollection_2"/>
   <g id="PolyCollection_3"/>
   <g id="PolyCollection_4"/>
   <g id="PolyCollection_5"/>
   <g id="PolyCollection_6"/>
   <g id="line2d_7">
    <path d="M 220.885534 86.891727 
L 224.027423 118.35359 
L 226.820213 145.565591 
L 227.867509 153.578989 
L 228.914805 160.0325 
L 229.962101 165.209076 
L 231.009397 169.341985 
L 232.056694 172.622536 
L 233.10399 175.207689 
L 234.151286 177.224384 
L 235.198582 178.777107 
L 236.245878 179.951249 
L 237.293175 180.823467 
L 238.340471 181.453484 
L 239.736866 181.996004 
L 241.133261 182.27469 
L 242.878754 182.371542 
L 244.973347 182.2678 
L 247.766137 181.898631 
L 251.606223 181.14086 
L 257.89 179.628544 
L 275.694035 175.221047 
L 281.977813 174.023205 
L 289.657985 172.79397 
L 299.083651 171.516504 
L 311.302106 170.10223 
L 323.520562 168.888605 
L 341.673696 167.392113 
L 379.027261 164.572028 
L 475.378512 157.447604 
L 475.378512 157.447604 
" clip-path="url(#pe271ca5a19)" style="fill: none; stroke: #4c72b0; stroke-opacity: 0.9; stroke-width: 3; stroke-linecap: round"/>
   </g>
   <g id="line2d_8">
    <path d="M 220.885534 86.891727 
L 222.980126 98.449992 
L 226.820213 119.444533 
L 227.867509 123.96621 
L 228.914805 127.620041 
L 229.962101 130.559778 
L 231.009397 132.91557 
L 232.056694 134.793982 
L 233.10399 136.282211 
L 234.151286 137.451911 
L 235.198582 138.361453 
L 236.594977 139.25022 
L 237.991372 139.849707 
L 239.736866 140.305592 
L 241.482359 140.532896 
L 243.926051 140.612518 
L 247.417038 140.470423 
L 252.30442 140.024936 
L 261.031889 138.963728 
L 283.374208 136.166357 
L 293.84717 135.193013 
L 310.25481 134.006579 
L 334.691722 132.470454 
L 364.714213 130.871934 
L 475.378512 125.34057 
L 475.378512 125.34057 
" clip-path="url(#pe271ca5a19)" style="fill: none; stroke: #dd8452; stroke-opacity: 0.9; stroke-width: 3; stroke-linecap: round"/>
   </g>
   <g id="line2d_9">
    <path d="M 220.885534 86.891727 
L 222.631028 105.489928 
L 226.820213 149.753424 
L 227.867509 158.33263 
L 228.914805 165.237883 
L 229.962101 170.77236 
L 231.009397 175.186703 
L 232.056694 178.686169 
L 233.10399 181.437792 
L 234.151286 183.577957 
L 235.198582 185.21851 
L 236.245878 186.451715 
L 237.293175 187.354374 
L 238.340471 187.988716 
L 239.387767 188.409149 
L 240.784162 188.715139 
L 242.529656 188.823508 
L 244.624248 188.680699 
L 247.067939 188.272814 
L 250.558927 187.42729 
L 256.144506 185.784603 
L 266.617468 182.681307 
L 272.552147 181.185302 
L 278.835924 179.837783 
L 285.4688 178.646436 
L 292.101676 177.673684 
L 300.130947 176.74143 
L 310.603909 175.763077 
L 325.266056 174.640319 
L 350.401165 172.968791 
L 422.664603 168.475856 
L 475.378512 165.208122 
L 475.378512 165.208122 
" clip-path="url(#pe271ca5a19)" style="fill: none; stroke: #55a868; stroke-opacity: 0.9; stroke-width: 3; stroke-linecap: round"/>
   </g>
   <g id="line2d_10">
    <path d="M 220.885534 86.891727 
L 222.631028 101.521206 
L 226.820213 136.346918 
L 227.867509 143.105042 
L 228.914805 148.545778 
L 229.962101 152.907458 
L 231.009397 156.387089 
L 232.056694 159.145787 
L 233.10399 161.315145 
L 234.151286 163.002786 
L 235.198582 164.296761 
L 236.245878 165.26956 
L 237.293175 165.98201 
L 238.68957 166.611793 
L 240.085964 166.964615 
L 241.831458 167.142286 
L 243.926051 167.112784 
L 246.369742 166.857473 
L 249.860729 166.254007 
L 255.446309 165.020353 
L 266.617468 162.506938 
L 273.599443 161.188529 
L 281.628714 159.908919 
L 290.007084 158.797417 
L 297.687256 157.996817 
L 308.509316 157.117037 
L 323.869661 156.114617 
L 352.844856 154.490548 
L 459.31997 148.868195 
L 475.378512 148.018699 
L 475.378512 148.018699 
" clip-path="url(#pe271ca5a19)" style="fill: none; stroke: #c44e52; stroke-opacity: 0.9; stroke-width: 3; stroke-linecap: round"/>
   </g>
   <g id="line2d_11">
    <path d="M 220.885534 86.891727 
L 223.329225 110.489584 
L 226.820213 143.439156 
L 227.867509 151.077934 
L 228.914805 157.230148 
L 229.962101 162.167306 
L 231.009397 166.111611 
L 232.056694 169.24467 
L 233.10399 171.714622 
L 234.151286 173.642517 
L 235.198582 175.127324 
L 236.245878 176.249739 
L 237.293175 177.075712 
L 238.340471 177.66001 
L 239.736866 178.141209 
L 241.133261 178.364043 
L 242.878754 178.397129 
L 244.973347 178.204844 
L 247.766137 177.695779 
L 251.257124 176.821523 
L 257.89 174.871684 
L 273.250344 170.354577 
L 283.374208 167.631964 
L 288.959787 166.313406 
L 295.243565 165.080288 
L 303.272835 163.748956 
L 312.349403 162.456271 
L 322.124167 161.297364 
L 332.946228 160.2516 
L 350.401165 158.816994 
L 383.565544 156.354277 
L 475.378512 149.730995 
L 475.378512 149.730995 
" clip-path="url(#pe271ca5a19)" style="fill: none; stroke: #8172b3; stroke-opacity: 0.9; stroke-width: 3; stroke-linecap: round"/>
   </g>
   <g id="line2d_12">
    <path d="M 220.885534 86.891727 
L 224.027423 111.107656 
L 226.820213 132.003318 
L 227.867509 138.09971 
L 228.914805 143.013173 
L 229.962101 146.959763 
L 231.009397 150.116225 
L 232.056694 152.626983 
L 233.10399 154.610028 
L 234.151286 156.16178 
L 235.198582 157.36105 
L 236.245878 158.272356 
L 237.293175 158.948708 
L 238.68957 159.558011 
L 240.085964 159.908788 
L 241.831458 160.084882 
L 243.926051 160.045966 
L 246.71884 159.748362 
L 250.558927 159.092045 
L 257.191802 157.698851 
L 275.344937 153.818624 
L 284.770603 152.022505 
L 292.450775 150.802323 
L 301.876441 149.548199 
L 314.094896 148.163833 
L 324.21876 147.195948 
L 338.880906 146.057808 
L 365.063311 144.283998 
L 438.024947 139.649825 
L 475.378512 137.288647 
L 475.378512 137.288647 
" clip-path="url(#pe271ca5a19)" style="fill: none; stroke: #937860; stroke-opacity: 0.9; stroke-width: 3; stroke-linecap: round"/>
   </g>
   <g id="patch_3">
    <path d="M 208.160885 201.042 
L 208.160885 81.456 
" style="fill: none; stroke: #ffffff; stroke-width: 1.25; stroke-linejoin: miter; stroke-linecap: square"/>
   </g>
   <g id="patch_4">
    <path d="M 208.160885 201.042 
L 488.10316 201.042 
" style="fill: none; stroke: #ffffff; stroke-width: 1.25; stroke-linejoin: miter; stroke-linecap: square"/>
   </g>
   <g id="text_4">
    <!-- 0.8~90 -->
    <g style="fill: #262626" transform="translate(301.502179 75.456) scale(0.252 -0.252)">
     <defs>
      <path id="DejaVuSans-38" d="M 2034 2216 
Q 1584 2216 1326 1975 
Q 1069 1734 1069 1313 
Q 1069 891 1326 650 
Q 1584 409 2034 409 
Q 2484 409 2743 651 
Q 3003 894 3003 1313 
Q 3003 1734 2745 1975 
Q 2488 2216 2034 2216 
z
M 1403 2484 
Q 997 2584 770 2862 
Q 544 3141 544 3541 
Q 544 4100 942 4425 
Q 1341 4750 2034 4750 
Q 2731 4750 3128 4425 
Q 3525 4100 3525 3541 
Q 3525 3141 3298 2862 
Q 3072 2584 2669 2484 
Q 3125 2378 3379 2068 
Q 3634 1759 3634 1313 
Q 3634 634 3220 271 
Q 2806 -91 2034 -91 
Q 1263 -91 848 271 
Q 434 634 434 1313 
Q 434 1759 690 2068 
Q 947 2378 1403 2484 
z
M 1172 3481 
Q 1172 3119 1398 2916 
Q 1625 2713 2034 2713 
Q 2441 2713 2670 2916 
Q 2900 3119 2900 3481 
Q 2900 3844 2670 4047 
Q 2441 4250 2034 4250 
Q 1625 4250 1398 4047 
Q 1172 3844 1172 3481 
z
" transform="scale(0.015625)"/>
      <path id="DejaVuSans-7e" d="M 4684 2553 
L 4684 1997 
Q 4356 1750 4076 1644 
Q 3797 1538 3494 1538 
Q 3150 1538 2694 1722 
Q 2659 1734 2644 1741 
Q 2622 1750 2575 1766 
Q 2091 1959 1797 1959 
Q 1522 1959 1253 1839 
Q 984 1719 678 1459 
L 678 2016 
Q 1006 2263 1286 2370 
Q 1566 2478 1869 2478 
Q 2213 2478 2672 2291 
Q 2703 2278 2719 2272 
Q 2744 2263 2788 2247 
Q 3272 2053 3566 2053 
Q 3834 2053 4098 2172 
Q 4363 2291 4684 2553 
z
" transform="scale(0.015625)"/>
      <path id="DejaVuSans-39" d="M 703 97 
L 703 672 
Q 941 559 1184 500 
Q 1428 441 1663 441 
Q 2288 441 2617 861 
Q 2947 1281 2994 2138 
Q 2813 1869 2534 1725 
Q 2256 1581 1919 1581 
Q 1219 1581 811 2004 
Q 403 2428 403 3163 
Q 403 3881 828 4315 
Q 1253 4750 1959 4750 
Q 2769 4750 3195 4129 
Q 3622 3509 3622 2328 
Q 3622 1225 3098 567 
Q 2575 -91 1691 -91 
Q 1453 -91 1209 -44 
Q 966 3 703 97 
z
M 1959 2075 
Q 2384 2075 2632 2365 
Q 2881 2656 2881 3163 
Q 2881 3666 2632 3958 
Q 2384 4250 1959 4250 
Q 1534 4250 1286 3958 
Q 1038 3666 1038 3163 
Q 1038 2656 1286 2365 
Q 1534 2075 1959 2075 
z
" transform="scale(0.015625)"/>
     </defs>
     <use xlink:href="#DejaVuSans-30"/>
     <use xlink:href="#DejaVuSans-2e" x="63.623047"/>
     <use xlink:href="#DejaVuSans-38" x="95.410156"/>
     <use xlink:href="#DejaVuSans-7e" x="159.033203"/>
     <use xlink:href="#DejaVuSans-39" x="242.822266"/>
     <use xlink:href="#DejaVuSans-30" x="306.445312"/>
    </g>
   </g>
  </g>
  <g id="axes_2">
   <g id="patch_5">
    <path d="M 514.414092 201.042 
L 794.356367 201.042 
L 794.356367 81.456 
L 514.414092 81.456 
z
" style="fill: #eaeaf2"/>
   </g>
   <g id="matplotlib.axis_3">
    <g id="xtick_5">
     <g id="line2d_13">
      <path d="M 527.138741 201.042 
L 527.138741 81.456 
" clip-path="url(#p7373eba351)" style="fill: none; stroke: #ffffff; stroke-linecap: round"/>
     </g>
    </g>
    <g id="xtick_6">
     <g id="line2d_14">
      <path d="M 614.413424 201.042 
L 614.413424 81.456 
" clip-path="url(#p7373eba351)" style="fill: none; stroke: #ffffff; stroke-linecap: round"/>
     </g>
    </g>
    <g id="xtick_7">
     <g id="line2d_15">
      <path d="M 701.688108 201.042 
L 701.688108 81.456 
" clip-path="url(#p7373eba351)" style="fill: none; stroke: #ffffff; stroke-linecap: round"/>
     </g>
    </g>
    <g id="xtick_8">
     <g id="line2d_16">
      <path d="M 788.962792 201.042 
L 788.962792 81.456 
" clip-path="url(#p7373eba351)" style="fill: none; stroke: #ffffff; stroke-linecap: round"/>
     </g>
    </g>
   </g>
   <g id="matplotlib.axis_4">
    <g id="ytick_3">
     <g id="line2d_17">
      <path d="M 514.414092 147.758365 
L 794.356367 147.758365 
" clip-path="url(#p7373eba351)" style="fill: none; stroke: #ffffff; stroke-linecap: round"/>
     </g>
    </g>
    <g id="ytick_4">
     <g id="line2d_18">
      <path d="M 514.414092 86.891727 
L 794.356367 86.891727 
" clip-path="url(#p7373eba351)" style="fill: none; stroke: #ffffff; stroke-linecap: round"/>
     </g>
    </g>
   </g>
   <g id="PolyCollection_7"/>
   <g id="PolyCollection_8"/>
   <g id="PolyCollection_9"/>
   <g id="PolyCollection_10"/>
   <g id="PolyCollection_11"/>
   <g id="PolyCollection_12"/>
   <g id="line2d_19">
    <path d="M 527.138741 86.891727 
L 529.93153 114.975585 
L 533.073419 146.164248 
L 534.120715 154.416864 
L 535.168011 161.139292 
L 536.215308 166.608702 
L 537.262604 171.053806 
L 538.3099 174.661587 
L 539.357196 177.584842 
L 540.404492 179.948455 
L 541.451789 181.854495 
L 542.499085 183.386385 
L 543.546381 184.612649 
L 544.942776 185.867426 
L 546.339171 186.781897 
L 547.735566 187.436243 
L 549.48106 187.981746 
L 551.575652 188.357497 
L 554.019343 188.543123 
L 557.161232 188.549273 
L 561.699515 188.326464 
L 571.47428 187.551185 
L 608.478746 184.558917 
L 625.933682 183.374897 
L 638.501237 182.792479 
L 657.701667 182.148779 
L 688.771455 181.364959 
L 734.852488 180.420093 
L 781.631718 179.510346 
L 781.631718 179.510346 
" clip-path="url(#p7373eba351)" style="fill: none; stroke: #4c72b0; stroke-opacity: 0.9; stroke-width: 3; stroke-linecap: round"/>
   </g>
   <g id="line2d_20">
    <path d="M 527.138741 86.891727 
L 529.233333 98.47959 
L 533.422518 121.378813 
L 534.469814 125.712214 
L 535.51711 129.244096 
L 536.564406 132.118878 
L 537.611703 134.456395 
L 538.658999 136.354697 
L 539.706295 137.893927 
L 541.10269 139.499105 
L 542.499085 140.704223 
L 543.89548 141.603488 
L 545.291875 142.268828 
L 547.037368 142.854276 
L 549.131961 143.297686 
L 551.575652 143.57614 
L 555.066639 143.720335 
L 560.30312 143.678602 
L 569.728786 143.342881 
L 629.075571 140.989262 
L 645.83231 140.569606 
L 680.393085 139.980308 
L 766.620472 138.794941 
L 781.631718 138.596369 
L 781.631718 138.596369 
" clip-path="url(#p7373eba351)" style="fill: none; stroke: #dd8452; stroke-opacity: 0.9; stroke-width: 3; stroke-linecap: round"/>
   </g>
   <g id="line2d_21">
    <path d="M 527.138741 86.891727 
L 528.884234 105.533116 
L 533.073419 150.377752 
L 534.120715 159.207799 
L 535.168011 166.398727 
L 536.215308 172.247326 
L 537.262604 176.998733 
L 538.3099 180.853259 
L 539.357196 183.975074 
L 540.404492 186.498043 
L 541.451789 188.531342 
L 542.499085 190.164272 
L 543.546381 191.469819 
L 544.942776 192.802836 
L 546.339171 193.770963 
L 547.735566 194.46028 
L 549.48106 195.029588 
L 551.226553 195.362807 
L 553.670244 195.565918 
L 556.812133 195.575455 
L 561.350417 195.34263 
L 568.68149 194.707289 
L 610.573338 190.762417 
L 621.744498 190.077314 
L 634.661151 189.518389 
L 651.41789 189.024131 
L 678.647591 188.479569 
L 750.911029 187.350343 
L 781.631718 186.882793 
L 781.631718 186.882793 
" clip-path="url(#p7373eba351)" style="fill: none; stroke: #55a868; stroke-opacity: 0.9; stroke-width: 3; stroke-linecap: round"/>
   </g>
   <g id="line2d_22">
    <path d="M 527.138741 86.891727 
L 528.884234 101.555493 
L 533.073419 136.843557 
L 534.120715 143.800473 
L 535.168011 149.467079 
L 536.215308 154.076763 
L 537.262604 157.822376 
L 538.3099 160.861599 
L 539.357196 163.323291 
L 540.404492 165.312816 
L 541.451789 166.916318 
L 542.499085 168.204183 
L 543.89548 169.528253 
L 545.291875 170.500477 
L 546.68827 171.203688 
L 548.433763 171.799843 
L 550.179257 172.167449 
L 552.622948 172.423103 
L 555.764837 172.495538 
L 560.30312 172.36721 
L 567.983293 171.89218 
L 592.420204 170.027607 
L 607.43145 169.01291 
L 620.697201 168.343573 
L 636.755743 167.774431 
L 655.607075 167.318041 
L 689.469652 166.786446 
L 781.631718 165.586211 
L 781.631718 165.586211 
" clip-path="url(#p7373eba351)" style="fill: none; stroke: #c44e52; stroke-opacity: 0.9; stroke-width: 3; stroke-linecap: round"/>
   </g>
   <g id="line2d_23">
    <path d="M 527.138741 86.891727 
L 529.582432 110.5779 
L 533.073419 144.017056 
L 534.120715 151.882018 
L 535.168011 158.287648 
L 536.215308 163.500017 
L 537.262604 167.736999 
L 538.3099 171.176694 
L 539.357196 173.964648 
L 540.404492 176.219805 
L 541.451789 178.039385 
L 542.499085 179.502824 
L 543.89548 181.010532 
L 545.291875 182.121222 
L 546.68827 182.928093 
L 548.084665 183.502342 
L 549.830158 183.974607 
L 551.924751 184.283322 
L 554.368442 184.409461 
L 557.859429 184.339739 
L 563.09591 183.981644 
L 573.219774 183.025434 
L 609.875141 179.440088 
L 629.42467 177.880779 
L 648.974199 176.527704 
L 662.239951 175.855687 
L 681.091283 175.13073 
L 708.670083 174.339416 
L 747.070943 173.456688 
L 781.631718 172.750715 
L 781.631718 172.750715 
" clip-path="url(#p7373eba351)" style="fill: none; stroke: #8172b3; stroke-opacity: 0.9; stroke-width: 3; stroke-linecap: round"/>
   </g>
   <g id="line2d_24">
    <path d="M 527.138741 86.891727 
L 529.93153 108.507396 
L 533.073419 132.444526 
L 534.120715 138.712854 
L 535.168011 143.818864 
L 536.215308 147.974546 
L 537.262604 151.353506 
L 538.3099 154.097572 
L 539.357196 156.322648 
L 540.404492 158.123465 
L 541.451789 159.577433 
L 542.848184 161.084143 
L 544.244579 162.204321 
L 545.640973 163.02889 
L 547.386467 163.748153 
L 549.131961 164.213701 
L 551.226553 164.537708 
L 554.019343 164.710343 
L 557.859429 164.679321 
L 563.794108 164.368188 
L 577.408958 163.360651 
L 602.893166 161.528103 
L 624.188189 160.26631 
L 644.785014 159.251916 
L 662.58905 158.592113 
L 689.818751 157.825712 
L 721.935834 157.127731 
L 781.631718 156.037965 
L 781.631718 156.037965 
" clip-path="url(#p7373eba351)" style="fill: none; stroke: #937860; stroke-opacity: 0.9; stroke-width: 3; stroke-linecap: round"/>
   </g>
   <g id="patch_6">
    <path d="M 514.414092 201.042 
L 514.414092 81.456 
" style="fill: none; stroke: #ffffff; stroke-width: 1.25; stroke-linejoin: miter; stroke-linecap: square"/>
   </g>
   <g id="patch_7">
    <path d="M 514.414092 201.042 
L 794.356367 201.042 
" style="fill: none; stroke: #ffffff; stroke-width: 1.25; stroke-linejoin: miter; stroke-linecap: square"/>
   </g>
   <g id="text_5">
    <!-- 0.8~365 -->
    <g style="fill: #262626" transform="translate(599.738636 75.456) scale(0.252 -0.252)">
     <defs>
      <path id="DejaVuSans-33" d="M 2597 2516 
Q 3050 2419 3304 2112 
Q 3559 1806 3559 1356 
Q 3559 666 3084 287 
Q 2609 -91 1734 -91 
Q 1441 -91 1130 -33 
Q 819 25 488 141 
L 488 750 
Q 750 597 1062 519 
Q 1375 441 1716 441 
Q 2309 441 2620 675 
Q 2931 909 2931 1356 
Q 2931 1769 2642 2001 
Q 2353 2234 1838 2234 
L 1294 2234 
L 1294 2753 
L 1863 2753 
Q 2328 2753 2575 2939 
Q 2822 3125 2822 3475 
Q 2822 3834 2567 4026 
Q 2313 4219 1838 4219 
Q 1578 4219 1281 4162 
Q 984 4106 628 3988 
L 628 4550 
Q 988 4650 1302 4700 
Q 1616 4750 1894 4750 
Q 2613 4750 3031 4423 
Q 3450 4097 3450 3541 
Q 3450 3153 3228 2886 
Q 3006 2619 2597 2516 
z
" transform="scale(0.015625)"/>
      <path id="DejaVuSans-36" d="M 2113 2584 
Q 1688 2584 1439 2293 
Q 1191 2003 1191 1497 
Q 1191 994 1439 701 
Q 1688 409 2113 409 
Q 2538 409 2786 701 
Q 3034 994 3034 1497 
Q 3034 2003 2786 2293 
Q 2538 2584 2113 2584 
z
M 3366 4563 
L 3366 3988 
Q 3128 4100 2886 4159 
Q 2644 4219 2406 4219 
Q 1781 4219 1451 3797 
Q 1122 3375 1075 2522 
Q 1259 2794 1537 2939 
Q 1816 3084 2150 3084 
Q 2853 3084 3261 2657 
Q 3669 2231 3669 1497 
Q 3669 778 3244 343 
Q 2819 -91 2113 -91 
Q 1303 -91 875 529 
Q 447 1150 447 2328 
Q 447 3434 972 4092 
Q 1497 4750 2381 4750 
Q 2619 4750 2861 4703 
Q 3103 4656 3366 4563 
z
" transform="scale(0.015625)"/>
     </defs>
     <use xlink:href="#DejaVuSans-30"/>
     <use xlink:href="#DejaVuSans-2e" x="63.623047"/>
     <use xlink:href="#DejaVuSans-38" x="95.410156"/>
     <use xlink:href="#DejaVuSans-7e" x="159.033203"/>
     <use xlink:href="#DejaVuSans-33" x="242.822266"/>
     <use xlink:href="#DejaVuSans-36" x="306.445312"/>
     <use xlink:href="#DejaVuSans-35" x="370.068359"/>
    </g>
   </g>
  </g>
  <g id="axes_3">
   <g id="patch_8">
    <path d="M 820.667298 201.042 
L 1100.609573 201.042 
L 1100.609573 81.456 
L 820.667298 81.456 
z
" style="fill: #eaeaf2"/>
   </g>
   <g id="matplotlib.axis_5">
    <g id="xtick_9">
     <g id="line2d_25">
      <path d="M 833.391947 201.042 
L 833.391947 81.456 
" clip-path="url(#p001294a58e)" style="fill: none; stroke: #ffffff; stroke-linecap: round"/>
     </g>
    </g>
    <g id="xtick_10">
     <g id="line2d_26">
      <path d="M 920.666631 201.042 
L 920.666631 81.456 
" clip-path="url(#p001294a58e)" style="fill: none; stroke: #ffffff; stroke-linecap: round"/>
     </g>
    </g>
    <g id="xtick_11">
     <g id="line2d_27">
      <path d="M 1007.941314 201.042 
L 1007.941314 81.456 
" clip-path="url(#p001294a58e)" style="fill: none; stroke: #ffffff; stroke-linecap: round"/>
     </g>
    </g>
    <g id="xtick_12">
     <g id="line2d_28">
      <path d="M 1095.215998 201.042 
L 1095.215998 81.456 
" clip-path="url(#p001294a58e)" style="fill: none; stroke: #ffffff; stroke-linecap: round"/>
     </g>
    </g>
   </g>
   <g id="matplotlib.axis_6">
    <g id="ytick_5">
     <g id="line2d_29">
      <path d="M 820.667298 147.758365 
L 1100.609573 147.758365 
" clip-path="url(#p001294a58e)" style="fill: none; stroke: #ffffff; stroke-linecap: round"/>
     </g>
    </g>
    <g id="ytick_6">
     <g id="line2d_30">
      <path d="M 820.667298 86.891727 
L 1100.609573 86.891727 
" clip-path="url(#p001294a58e)" style="fill: none; stroke: #ffffff; stroke-linecap: round"/>
     </g>
    </g>
   </g>
   <g id="PolyCollection_13"/>
   <g id="PolyCollection_14"/>
   <g id="PolyCollection_15"/>
   <g id="PolyCollection_16"/>
   <g id="PolyCollection_17"/>
   <g id="PolyCollection_18"/>
   <g id="line2d_31">
    <path d="M 833.391947 86.891727 
L 836.533836 118.35359 
L 839.326626 145.565591 
L 840.373922 153.578989 
L 841.421218 160.0325 
L 842.468514 165.209076 
L 843.51581 169.341985 
L 844.563107 172.622536 
L 845.610403 175.207689 
L 846.657699 177.224384 
L 847.704995 178.777107 
L 848.752291 179.951249 
L 849.799588 180.823467 
L 850.846884 181.453484 
L 852.243279 181.996004 
L 853.639674 182.27469 
L 855.385167 182.371542 
L 857.47976 182.2678 
L 860.27255 181.898631 
L 864.112636 181.14086 
L 870.396413 179.628544 
L 888.200448 175.221047 
L 894.484226 174.023205 
L 902.164398 172.79397 
L 911.590064 171.516504 
L 923.808519 170.10223 
L 936.026975 168.888605 
L 954.180109 167.392113 
L 991.533674 164.572028 
L 1087.884925 157.447604 
L 1087.884925 157.447604 
" clip-path="url(#p001294a58e)" style="fill: none; stroke: #4c72b0; stroke-opacity: 0.9; stroke-width: 3; stroke-linecap: round"/>
   </g>
   <g id="line2d_32">
    <path d="M 833.391947 86.891727 
L 835.486539 98.449992 
L 839.326626 119.444533 
L 840.373922 123.96621 
L 841.421218 127.620041 
L 842.468514 130.559778 
L 843.51581 132.91557 
L 844.563107 134.793982 
L 845.610403 136.282211 
L 846.657699 137.451911 
L 847.704995 138.361453 
L 849.10139 139.25022 
L 850.497785 139.849707 
L 852.243279 140.305592 
L 853.988772 140.532896 
L 856.432464 140.612518 
L 859.923451 140.470423 
L 864.810833 140.024936 
L 873.538302 138.963728 
L 895.880621 136.166357 
L 906.353583 135.193013 
L 922.761223 134.006579 
L 947.198135 132.470454 
L 977.220626 130.871934 
L 1087.884925 125.34057 
L 1087.884925 125.34057 
" clip-path="url(#p001294a58e)" style="fill: none; stroke: #dd8452; stroke-opacity: 0.9; stroke-width: 3; stroke-linecap: round"/>
   </g>
   <g id="line2d_33">
    <path d="M 833.391947 86.891727 
L 835.137441 105.489928 
L 839.326626 149.753424 
L 840.373922 158.33263 
L 841.421218 165.237883 
L 842.468514 170.77236 
L 843.51581 175.186703 
L 844.563107 178.686169 
L 845.610403 181.437792 
L 846.657699 183.577957 
L 847.704995 185.21851 
L 848.752291 186.451715 
L 849.799588 187.354374 
L 850.846884 187.988716 
L 851.89418 188.409149 
L 853.290575 188.715139 
L 855.036069 188.823508 
L 857.130661 188.680699 
L 859.574352 188.272814 
L 863.065339 187.42729 
L 868.650919 185.784603 
L 879.123881 182.681307 
L 885.05856 181.185302 
L 891.342337 179.837783 
L 897.975213 178.646436 
L 904.608089 177.673684 
L 912.63736 176.74143 
L 923.110322 175.763077 
L 937.772469 174.640319 
L 962.907578 172.968791 
L 1035.171016 168.475856 
L 1087.884925 165.208122 
L 1087.884925 165.208122 
" clip-path="url(#p001294a58e)" style="fill: none; stroke: #55a868; stroke-opacity: 0.9; stroke-width: 3; stroke-linecap: round"/>
   </g>
   <g id="line2d_34">
    <path d="M 833.391947 86.891727 
L 835.137441 101.521206 
L 839.326626 136.346918 
L 840.373922 143.105042 
L 841.421218 148.545778 
L 842.468514 152.907458 
L 843.51581 156.387089 
L 844.563107 159.145787 
L 845.610403 161.315145 
L 846.657699 163.002786 
L 847.704995 164.296761 
L 848.752291 165.26956 
L 849.799588 165.98201 
L 851.195982 166.611793 
L 852.592377 166.964615 
L 854.337871 167.142286 
L 856.432464 167.112784 
L 858.876155 166.857473 
L 862.367142 166.254007 
L 867.952722 165.020353 
L 879.123881 162.506938 
L 886.105856 161.188529 
L 894.135127 159.908919 
L 902.513496 158.797417 
L 910.193669 157.996817 
L 921.015729 157.117037 
L 936.376074 156.114617 
L 965.351269 154.490548 
L 1071.826383 148.868195 
L 1087.884925 148.018699 
L 1087.884925 148.018699 
" clip-path="url(#p001294a58e)" style="fill: none; stroke: #c44e52; stroke-opacity: 0.9; stroke-width: 3; stroke-linecap: round"/>
   </g>
   <g id="line2d_35">
    <path d="M 833.391947 86.891727 
L 835.835638 110.489584 
L 839.326626 143.439156 
L 840.373922 151.077934 
L 841.421218 157.230148 
L 842.468514 162.167306 
L 843.51581 166.111611 
L 844.563107 169.24467 
L 845.610403 171.714622 
L 846.657699 173.642517 
L 847.704995 175.127324 
L 848.752291 176.249739 
L 849.799588 177.075712 
L 850.846884 177.66001 
L 852.243279 178.141209 
L 853.639674 178.364043 
L 855.385167 178.397129 
L 857.47976 178.204844 
L 860.27255 177.695779 
L 863.763537 176.821523 
L 870.396413 174.871684 
L 885.756757 170.354577 
L 895.880621 167.631964 
L 901.4662 166.313406 
L 907.749977 165.080288 
L 915.779248 163.748956 
L 924.855815 162.456271 
L 934.63058 161.297364 
L 945.452641 160.2516 
L 962.907578 158.816994 
L 996.071957 156.354277 
L 1087.884925 149.730995 
L 1087.884925 149.730995 
" clip-path="url(#p001294a58e)" style="fill: none; stroke: #8172b3; stroke-opacity: 0.9; stroke-width: 3; stroke-linecap: round"/>
   </g>
   <g id="line2d_36">
    <path d="M 833.391947 86.891727 
L 836.533836 111.107656 
L 839.326626 132.003318 
L 840.373922 138.09971 
L 841.421218 143.013173 
L 842.468514 146.959763 
L 843.51581 150.116225 
L 844.563107 152.626983 
L 845.610403 154.610028 
L 846.657699 156.16178 
L 847.704995 157.36105 
L 848.752291 158.272356 
L 849.799588 158.948708 
L 851.195982 159.558011 
L 852.592377 159.908788 
L 854.337871 160.084882 
L 856.432464 160.045966 
L 859.225253 159.748362 
L 863.065339 159.092045 
L 869.698215 157.698851 
L 887.85135 153.818624 
L 897.277015 152.022505 
L 904.957188 150.802323 
L 914.382853 149.548199 
L 926.601309 148.163833 
L 936.725172 147.195948 
L 951.387319 146.057808 
L 977.569724 144.283998 
L 1050.53136 139.649825 
L 1087.884925 137.288647 
L 1087.884925 137.288647 
" clip-path="url(#p001294a58e)" style="fill: none; stroke: #937860; stroke-opacity: 0.9; stroke-width: 3; stroke-linecap: round"/>
   </g>
   <g id="patch_9">
    <path d="M 820.667298 201.042 
L 820.667298 81.456 
" style="fill: none; stroke: #ffffff; stroke-width: 1.25; stroke-linejoin: miter; stroke-linecap: square"/>
   </g>
   <g id="patch_10">
    <path d="M 820.667298 201.042 
L 1100.609573 201.042 
" style="fill: none; stroke: #ffffff; stroke-width: 1.25; stroke-linejoin: miter; stroke-linecap: square"/>
   </g>
   <g id="text_6">
    <!-- 0.85~90 -->
    <g style="fill: #262626" transform="translate(905.991842 75.456) scale(0.252 -0.252)">
     <use xlink:href="#DejaVuSans-30"/>
     <use xlink:href="#DejaVuSans-2e" x="63.623047"/>
     <use xlink:href="#DejaVuSans-38" x="95.410156"/>
     <use xlink:href="#DejaVuSans-35" x="159.033203"/>
     <use xlink:href="#DejaVuSans-7e" x="222.65625"/>
     <use xlink:href="#DejaVuSans-39" x="306.445312"/>
     <use xlink:href="#DejaVuSans-30" x="370.068359"/>
    </g>
   </g>
  </g>
  <g id="axes_4">
   <g id="patch_11">
    <path d="M 208.160885 373.284 
L 488.10316 373.284 
L 488.10316 253.698 
L 208.160885 253.698 
z
" style="fill: #eaeaf2"/>
   </g>
   <g id="matplotlib.axis_7">
    <g id="xtick_13">
     <g id="line2d_37">
      <path d="M 220.885534 373.284 
L 220.885534 253.698 
" clip-path="url(#pfbf8579621)" style="fill: none; stroke: #ffffff; stroke-linecap: round"/>
     </g>
     <g id="text_7">
      <!-- 0 -->
      <g style="fill: #262626" transform="translate(213.536847 400.336391) scale(0.231 -0.231)">
       <use xlink:href="#DejaVuSans-30"/>
      </g>
     </g>
    </g>
    <g id="xtick_14">
     <g id="line2d_38">
      <path d="M 308.160218 373.284 
L 308.160218 253.698 
" clip-path="url(#pfbf8579621)" style="fill: none; stroke: #ffffff; stroke-linecap: round"/>
     </g>
     <g id="text_8">
      <!-- 250 -->
      <g style="fill: #262626" transform="translate(286.114155 400.336391) scale(0.231 -0.231)">
       <use xlink:href="#DejaVuSans-32"/>
       <use xlink:href="#DejaVuSans-35" x="63.623047"/>
       <use xlink:href="#DejaVuSans-30" x="127.246094"/>
      </g>
     </g>
    </g>
    <g id="xtick_15">
     <g id="line2d_39">
      <path d="M 395.434901 373.284 
L 395.434901 253.698 
" clip-path="url(#pfbf8579621)" style="fill: none; stroke: #ffffff; stroke-linecap: round"/>
     </g>
     <g id="text_9">
      <!-- 500 -->
      <g style="fill: #262626" transform="translate(373.388839 400.336391) scale(0.231 -0.231)">
       <use xlink:href="#DejaVuSans-35"/>
       <use xlink:href="#DejaVuSans-30" x="63.623047"/>
       <use xlink:href="#DejaVuSans-30" x="127.246094"/>
      </g>
     </g>
    </g>
    <g id="xtick_16">
     <g id="line2d_40">
      <path d="M 482.709585 373.284 
L 482.709585 253.698 
" clip-path="url(#pfbf8579621)" style="fill: none; stroke: #ffffff; stroke-linecap: round"/>
     </g>
     <g id="text_10">
      <!-- 750 -->
      <g style="fill: #262626" transform="translate(460.663523 400.336391) scale(0.231 -0.231)">
       <defs>
        <path id="DejaVuSans-37" d="M 525 4666 
L 3525 4666 
L 3525 4397 
L 1831 0 
L 1172 0 
L 2766 4134 
L 525 4134 
L 525 4666 
z
" transform="scale(0.015625)"/>
       </defs>
       <use xlink:href="#DejaVuSans-37"/>
       <use xlink:href="#DejaVuSans-35" x="63.623047"/>
       <use xlink:href="#DejaVuSans-30" x="127.246094"/>
      </g>
     </g>
    </g>
    <g id="text_11">
     <!-- step -->
     <g style="fill: #262626" transform="translate(320.876648 428.288531) scale(0.252 -0.252)">
      <defs>
       <path id="DejaVuSans-73" d="M 2834 3397 
L 2834 2853 
Q 2591 2978 2328 3040 
Q 2066 3103 1784 3103 
Q 1356 3103 1142 2972 
Q 928 2841 928 2578 
Q 928 2378 1081 2264 
Q 1234 2150 1697 2047 
L 1894 2003 
Q 2506 1872 2764 1633 
Q 3022 1394 3022 966 
Q 3022 478 2636 193 
Q 2250 -91 1575 -91 
Q 1294 -91 989 -36 
Q 684 19 347 128 
L 347 722 
Q 666 556 975 473 
Q 1284 391 1588 391 
Q 1994 391 2212 530 
Q 2431 669 2431 922 
Q 2431 1156 2273 1281 
Q 2116 1406 1581 1522 
L 1381 1569 
Q 847 1681 609 1914 
Q 372 2147 372 2553 
Q 372 3047 722 3315 
Q 1072 3584 1716 3584 
Q 2034 3584 2315 3537 
Q 2597 3491 2834 3397 
z
" transform="scale(0.015625)"/>
       <path id="DejaVuSans-74" d="M 1172 4494 
L 1172 3500 
L 2356 3500 
L 2356 3053 
L 1172 3053 
L 1172 1153 
Q 1172 725 1289 603 
Q 1406 481 1766 481 
L 2356 481 
L 2356 0 
L 1766 0 
Q 1100 0 847 248 
Q 594 497 594 1153 
L 594 3053 
L 172 3053 
L 172 3500 
L 594 3500 
L 594 4494 
L 1172 4494 
z
" transform="scale(0.015625)"/>
       <path id="DejaVuSans-70" d="M 1159 525 
L 1159 -1331 
L 581 -1331 
L 581 3500 
L 1159 3500 
L 1159 2969 
Q 1341 3281 1617 3432 
Q 1894 3584 2278 3584 
Q 2916 3584 3314 3078 
Q 3713 2572 3713 1747 
Q 3713 922 3314 415 
Q 2916 -91 2278 -91 
Q 1894 -91 1617 61 
Q 1341 213 1159 525 
z
M 3116 1747 
Q 3116 2381 2855 2742 
Q 2594 3103 2138 3103 
Q 1681 3103 1420 2742 
Q 1159 2381 1159 1747 
Q 1159 1113 1420 752 
Q 1681 391 2138 391 
Q 2594 391 2855 752 
Q 3116 1113 3116 1747 
z
" transform="scale(0.015625)"/>
      </defs>
      <use xlink:href="#DejaVuSans-73"/>
      <use xlink:href="#DejaVuSans-74" x="52.099609"/>
      <use xlink:href="#DejaVuSans-65" x="91.308594"/>
      <use xlink:href="#DejaVuSans-70" x="152.832031"/>
     </g>
    </g>
   </g>
   <g id="matplotlib.axis_8">
    <g id="ytick_7">
     <g id="line2d_41">
      <path d="M 208.160885 320.000365 
L 488.10316 320.000365 
" clip-path="url(#pfbf8579621)" style="fill: none; stroke: #ffffff; stroke-linecap: round"/>
     </g>
     <g id="text_12">
      <!-- −0.025 -->
      <g style="fill: #262626" transform="translate(113.172838 328.776561) scale(0.231 -0.231)">
       <use xlink:href="#DejaVuSans-2212"/>
       <use xlink:href="#DejaVuSans-30" x="83.789062"/>
       <use xlink:href="#DejaVuSans-2e" x="147.412109"/>
       <use xlink:href="#DejaVuSans-30" x="179.199219"/>
       <use xlink:href="#DejaVuSans-32" x="242.822266"/>
       <use xlink:href="#DejaVuSans-35" x="306.445312"/>
      </g>
     </g>
    </g>
    <g id="ytick_8">
     <g id="line2d_42">
      <path d="M 208.160885 259.133727 
L 488.10316 259.133727 
" clip-path="url(#pfbf8579621)" style="fill: none; stroke: #ffffff; stroke-linecap: round"/>
     </g>
     <g id="text_13">
      <!-- 0.000 -->
      <g style="fill: #262626" transform="translate(132.529916 267.909923) scale(0.231 -0.231)">
       <use xlink:href="#DejaVuSans-30"/>
       <use xlink:href="#DejaVuSans-2e" x="63.623047"/>
       <use xlink:href="#DejaVuSans-30" x="95.410156"/>
       <use xlink:href="#DejaVuSans-30" x="159.033203"/>
       <use xlink:href="#DejaVuSans-30" x="222.65625"/>
      </g>
     </g>
    </g>
    <g id="text_14">
     <!-- % change -->
     <g style="fill: #262626" transform="translate(103.932026 375.839344) rotate(-90) scale(0.252 -0.252)">
      <use xlink:href="#DejaVuSans-25"/>
      <use xlink:href="#DejaVuSans-20" x="95.019531"/>
      <use xlink:href="#DejaVuSans-63" x="126.806641"/>
      <use xlink:href="#DejaVuSans-68" x="181.787109"/>
      <use xlink:href="#DejaVuSans-61" x="245.166016"/>
      <use xlink:href="#DejaVuSans-6e" x="306.445312"/>
      <use xlink:href="#DejaVuSans-67" x="369.824219"/>
      <use xlink:href="#DejaVuSans-65" x="433.300781"/>
     </g>
    </g>
   </g>
   <g id="PolyCollection_19"/>
   <g id="PolyCollection_20"/>
   <g id="PolyCollection_21"/>
   <g id="PolyCollection_22"/>
   <g id="PolyCollection_23"/>
   <g id="PolyCollection_24"/>
   <g id="line2d_43">
    <path d="M 220.885534 259.133727 
L 223.678324 287.217585 
L 226.820213 318.406248 
L 227.867509 326.658864 
L 228.914805 333.381292 
L 229.962101 338.850702 
L 231.009397 343.295806 
L 232.056694 346.903587 
L 233.10399 349.826842 
L 234.151286 352.190455 
L 235.198582 354.096495 
L 236.245878 355.628385 
L 237.293175 356.854649 
L 238.68957 358.109426 
L 240.085964 359.023897 
L 241.482359 359.678243 
L 243.227853 360.223746 
L 245.322446 360.599497 
L 247.766137 360.785123 
L 250.908025 360.791273 
L 255.446309 360.568464 
L 265.221073 359.793185 
L 302.225539 356.800917 
L 319.680476 355.616897 
L 332.24803 355.034479 
L 351.448461 354.390779 
L 382.518248 353.606959 
L 428.599281 352.662093 
L 475.378512 351.752346 
L 475.378512 351.752346 
" clip-path="url(#pfbf8579621)" style="fill: none; stroke: #4c72b0; stroke-opacity: 0.9; stroke-width: 3; stroke-linecap: round"/>
   </g>
   <g id="line2d_44">
    <path d="M 220.885534 259.133727 
L 222.980126 270.72159 
L 227.169311 293.620813 
L 228.216608 297.954214 
L 229.263904 301.486096 
L 230.3112 304.360878 
L 231.358496 306.698395 
L 232.405792 308.596697 
L 233.453089 310.135927 
L 234.849483 311.741105 
L 236.245878 312.946223 
L 237.642273 313.845488 
L 239.038668 314.510828 
L 240.784162 315.096276 
L 242.878754 315.539686 
L 245.322446 315.81814 
L 248.813433 315.962335 
L 254.049914 315.920602 
L 263.47558 315.584881 
L 322.822365 313.231262 
L 339.579104 312.811606 
L 374.139879 312.222308 
L 460.367266 311.036941 
L 475.378512 310.838369 
L 475.378512 310.838369 
" clip-path="url(#pfbf8579621)" style="fill: none; stroke: #dd8452; stroke-opacity: 0.9; stroke-width: 3; stroke-linecap: round"/>
   </g>
   <g id="line2d_45">
    <path d="M 220.885534 259.133727 
L 222.631028 277.775116 
L 226.820213 322.619752 
L 227.867509 331.449799 
L 228.914805 338.640727 
L 229.962101 344.489326 
L 231.009397 349.240733 
L 232.056694 353.095259 
L 233.10399 356.217074 
L 234.151286 358.740043 
L 235.198582 360.773342 
L 236.245878 362.406272 
L 237.293175 363.711819 
L 238.68957 365.044836 
L 240.085964 366.012963 
L 241.482359 366.70228 
L 243.227853 367.271588 
L 244.973347 367.604807 
L 247.417038 367.807918 
L 250.558927 367.817455 
L 255.09721 367.58463 
L 262.428283 366.949289 
L 304.320132 363.004417 
L 315.491291 362.319314 
L 328.407944 361.760389 
L 345.164684 361.266131 
L 372.394385 360.721569 
L 444.657823 359.592343 
L 475.378512 359.124793 
L 475.378512 359.124793 
" clip-path="url(#pfbf8579621)" style="fill: none; stroke: #55a868; stroke-opacity: 0.9; stroke-width: 3; stroke-linecap: round"/>
   </g>
   <g id="line2d_46">
    <path d="M 220.885534 259.133727 
L 222.631028 273.797493 
L 226.820213 309.085557 
L 227.867509 316.042473 
L 228.914805 321.709079 
L 229.962101 326.318763 
L 231.009397 330.064376 
L 232.056694 333.103599 
L 233.10399 335.565291 
L 234.151286 337.554816 
L 235.198582 339.158318 
L 236.245878 340.446183 
L 237.642273 341.770253 
L 239.038668 342.742477 
L 240.435063 343.445688 
L 242.180557 344.041843 
L 243.926051 344.409449 
L 246.369742 344.665103 
L 249.51163 344.737538 
L 254.049914 344.60921 
L 261.730086 344.13418 
L 286.166997 342.269607 
L 301.178243 341.25491 
L 314.443995 340.585573 
L 330.502537 340.016431 
L 349.353868 339.560041 
L 383.216446 339.028446 
L 475.378512 337.828211 
L 475.378512 337.828211 
" clip-path="url(#pfbf8579621)" style="fill: none; stroke: #c44e52; stroke-opacity: 0.9; stroke-width: 3; stroke-linecap: round"/>
   </g>
   <g id="line2d_47">
    <path d="M 220.885534 259.133727 
L 223.329225 282.8199 
L 226.820213 316.259056 
L 227.867509 324.124018 
L 228.914805 330.529648 
L 229.962101 335.742017 
L 231.009397 339.978999 
L 232.056694 343.418694 
L 233.10399 346.206648 
L 234.151286 348.461805 
L 235.198582 350.281385 
L 236.245878 351.744824 
L 237.642273 353.252532 
L 239.038668 354.363222 
L 240.435063 355.170093 
L 241.831458 355.744342 
L 243.576952 356.216607 
L 245.671544 356.525322 
L 248.115235 356.651461 
L 251.606223 356.581739 
L 256.842704 356.223644 
L 266.966567 355.267434 
L 303.621934 351.682088 
L 323.171463 350.122779 
L 342.720992 348.769704 
L 355.986744 348.097687 
L 374.838076 347.37273 
L 402.416876 346.581416 
L 440.817737 345.698688 
L 475.378512 344.992715 
L 475.378512 344.992715 
" clip-path="url(#pfbf8579621)" style="fill: none; stroke: #8172b3; stroke-opacity: 0.9; stroke-width: 3; stroke-linecap: round"/>
   </g>
   <g id="line2d_48">
    <path d="M 220.885534 259.133727 
L 223.678324 280.749396 
L 226.820213 304.686526 
L 227.867509 310.954854 
L 228.914805 316.060864 
L 229.962101 320.216546 
L 231.009397 323.595506 
L 232.056694 326.339572 
L 233.10399 328.564648 
L 234.151286 330.365465 
L 235.198582 331.819433 
L 236.594977 333.326143 
L 237.991372 334.446321 
L 239.387767 335.27089 
L 241.133261 335.990153 
L 242.878754 336.455701 
L 244.973347 336.779708 
L 247.766137 336.952343 
L 251.606223 336.921321 
L 257.540901 336.610188 
L 271.155752 335.602651 
L 296.639959 333.770103 
L 317.934982 332.50831 
L 338.531808 331.493916 
L 356.335843 330.834113 
L 383.565544 330.067712 
L 415.682628 329.369731 
L 475.378512 328.279965 
L 475.378512 328.279965 
" clip-path="url(#pfbf8579621)" style="fill: none; stroke: #937860; stroke-opacity: 0.9; stroke-width: 3; stroke-linecap: round"/>
   </g>
   <g id="patch_12">
    <path d="M 208.160885 373.284 
L 208.160885 253.698 
" style="fill: none; stroke: #ffffff; stroke-width: 1.25; stroke-linejoin: miter; stroke-linecap: square"/>
   </g>
   <g id="patch_13">
    <path d="M 208.160885 373.284 
L 488.10316 373.284 
" style="fill: none; stroke: #ffffff; stroke-width: 1.25; stroke-linejoin: miter; stroke-linecap: square"/>
   </g>
   <g id="text_15">
    <!-- 0.85~365 -->
    <g style="fill: #262626" transform="translate(285.468679 247.698) scale(0.252 -0.252)">
     <use xlink:href="#DejaVuSans-30"/>
     <use xlink:href="#DejaVuSans-2e" x="63.623047"/>
     <use xlink:href="#DejaVuSans-38" x="95.410156"/>
     <use xlink:href="#DejaVuSans-35" x="159.033203"/>
     <use xlink:href="#DejaVuSans-7e" x="222.65625"/>
     <use xlink:href="#DejaVuSans-33" x="306.445312"/>
     <use xlink:href="#DejaVuSans-36" x="370.068359"/>
     <use xlink:href="#DejaVuSans-35" x="433.691406"/>
    </g>
   </g>
  </g>
  <g id="axes_5">
   <g id="patch_14">
    <path d="M 514.414092 373.284 
L 794.356367 373.284 
L 794.356367 253.698 
L 514.414092 253.698 
z
" style="fill: #eaeaf2"/>
   </g>
   <g id="matplotlib.axis_9">
    <g id="xtick_17">
     <g id="line2d_49">
      <path d="M 527.138741 373.284 
L 527.138741 253.698 
" clip-path="url(#pd65b72bc45)" style="fill: none; stroke: #ffffff; stroke-linecap: round"/>
     </g>
     <g id="text_16">
      <!-- 0 -->
      <g style="fill: #262626" transform="translate(519.790053 400.336391) scale(0.231 -0.231)">
       <use xlink:href="#DejaVuSans-30"/>
      </g>
     </g>
    </g>
    <g id="xtick_18">
     <g id="line2d_50">
      <path d="M 614.413424 373.284 
L 614.413424 253.698 
" clip-path="url(#pd65b72bc45)" style="fill: none; stroke: #ffffff; stroke-linecap: round"/>
     </g>
     <g id="text_17">
      <!-- 250 -->
      <g style="fill: #262626" transform="translate(592.367362 400.336391) scale(0.231 -0.231)">
       <use xlink:href="#DejaVuSans-32"/>
       <use xlink:href="#DejaVuSans-35" x="63.623047"/>
       <use xlink:href="#DejaVuSans-30" x="127.246094"/>
      </g>
     </g>
    </g>
    <g id="xtick_19">
     <g id="line2d_51">
      <path d="M 701.688108 373.284 
L 701.688108 253.698 
" clip-path="url(#pd65b72bc45)" style="fill: none; stroke: #ffffff; stroke-linecap: round"/>
     </g>
     <g id="text_18">
      <!-- 500 -->
      <g style="fill: #262626" transform="translate(679.642045 400.336391) scale(0.231 -0.231)">
       <use xlink:href="#DejaVuSans-35"/>
       <use xlink:href="#DejaVuSans-30" x="63.623047"/>
       <use xlink:href="#DejaVuSans-30" x="127.246094"/>
      </g>
     </g>
    </g>
    <g id="xtick_20">
     <g id="line2d_52">
      <path d="M 788.962792 373.284 
L 788.962792 253.698 
" clip-path="url(#pd65b72bc45)" style="fill: none; stroke: #ffffff; stroke-linecap: round"/>
     </g>
     <g id="text_19">
      <!-- 750 -->
      <g style="fill: #262626" transform="translate(766.916729 400.336391) scale(0.231 -0.231)">
       <use xlink:href="#DejaVuSans-37"/>
       <use xlink:href="#DejaVuSans-35" x="63.623047"/>
       <use xlink:href="#DejaVuSans-30" x="127.246094"/>
      </g>
     </g>
    </g>
    <g id="text_20">
     <!-- step -->
     <g style="fill: #262626" transform="translate(627.129854 428.288531) scale(0.252 -0.252)">
      <use xlink:href="#DejaVuSans-73"/>
      <use xlink:href="#DejaVuSans-74" x="52.099609"/>
      <use xlink:href="#DejaVuSans-65" x="91.308594"/>
      <use xlink:href="#DejaVuSans-70" x="152.832031"/>
     </g>
    </g>
   </g>
   <g id="matplotlib.axis_10">
    <g id="ytick_9">
     <g id="line2d_53">
      <path d="M 514.414092 320.000365 
L 794.356367 320.000365 
" clip-path="url(#pd65b72bc45)" style="fill: none; stroke: #ffffff; stroke-linecap: round"/>
     </g>
    </g>
    <g id="ytick_10">
     <g id="line2d_54">
      <path d="M 514.414092 259.133727 
L 794.356367 259.133727 
" clip-path="url(#pd65b72bc45)" style="fill: none; stroke: #ffffff; stroke-linecap: round"/>
     </g>
    </g>
   </g>
   <g id="PolyCollection_25"/>
   <g id="PolyCollection_26"/>
   <g id="PolyCollection_27"/>
   <g id="PolyCollection_28"/>
   <g id="PolyCollection_29"/>
   <g id="PolyCollection_30"/>
   <g id="line2d_55">
    <path d="M 527.138741 259.133727 
L 530.280629 290.59559 
L 533.073419 317.807591 
L 534.120715 325.820989 
L 535.168011 332.2745 
L 536.215308 337.451076 
L 537.262604 341.583985 
L 538.3099 344.864536 
L 539.357196 347.449689 
L 540.404492 349.466384 
L 541.451789 351.019107 
L 542.499085 352.193249 
L 543.546381 353.065467 
L 544.593677 353.695484 
L 545.990072 354.238004 
L 547.386467 354.51669 
L 549.131961 354.613542 
L 551.226553 354.5098 
L 554.019343 354.140631 
L 557.859429 353.38286 
L 564.143206 351.870544 
L 581.947242 347.463047 
L 588.231019 346.265205 
L 595.911191 345.03597 
L 605.336857 343.758504 
L 617.555313 342.34423 
L 629.773769 341.130605 
L 647.926903 339.634113 
L 685.280467 336.814028 
L 781.631718 329.689604 
L 781.631718 329.689604 
" clip-path="url(#pd65b72bc45)" style="fill: none; stroke: #4c72b0; stroke-opacity: 0.9; stroke-width: 3; stroke-linecap: round"/>
   </g>
   <g id="line2d_56">
    <path d="M 527.138741 259.133727 
L 529.233333 270.691992 
L 533.073419 291.686533 
L 534.120715 296.20821 
L 535.168011 299.862041 
L 536.215308 302.801778 
L 537.262604 305.15757 
L 538.3099 307.035982 
L 539.357196 308.524211 
L 540.404492 309.693911 
L 541.451789 310.603453 
L 542.848184 311.49222 
L 544.244579 312.091707 
L 545.990072 312.547592 
L 547.735566 312.774896 
L 550.179257 312.854518 
L 553.670244 312.712423 
L 558.557627 312.266936 
L 567.285095 311.205728 
L 589.627414 308.408357 
L 600.100376 307.435013 
L 616.508017 306.248579 
L 640.944928 304.712454 
L 670.967419 303.113934 
L 781.631718 297.58257 
L 781.631718 297.58257 
" clip-path="url(#pd65b72bc45)" style="fill: none; stroke: #dd8452; stroke-opacity: 0.9; stroke-width: 3; stroke-linecap: round"/>
   </g>
   <g id="line2d_57">
    <path d="M 527.138741 259.133727 
L 528.884234 277.731928 
L 533.073419 321.995424 
L 534.120715 330.57463 
L 535.168011 337.479883 
L 536.215308 343.01436 
L 537.262604 347.428703 
L 538.3099 350.928169 
L 539.357196 353.679792 
L 540.404492 355.819957 
L 541.451789 357.46051 
L 542.499085 358.693715 
L 543.546381 359.596374 
L 544.593677 360.231119 
L 545.640973 360.653605 
L 547.037368 360.963719 
L 548.782862 361.077787 
L 550.877455 360.940225 
L 553.321146 360.533258 
L 556.812133 359.687639 
L 562.397713 358.044824 
L 572.870675 354.941483 
L 578.805353 353.445537 
L 585.08913 352.098155 
L 591.722006 350.907037 
L 598.354882 349.93458 
L 606.384153 349.002682 
L 616.857115 348.024745 
L 631.519262 346.902442 
L 656.654371 345.231427 
L 728.56871 340.760295 
L 781.631718 337.471223 
L 781.631718 337.471223 
" clip-path="url(#pd65b72bc45)" style="fill: none; stroke: #55a868; stroke-opacity: 0.9; stroke-width: 3; stroke-linecap: round"/>
   </g>
   <g id="line2d_58">
    <path d="M 527.138741 259.133727 
L 528.884234 273.763206 
L 533.073419 308.588918 
L 534.120715 315.347042 
L 535.168011 320.787778 
L 536.215308 325.149458 
L 537.262604 328.629089 
L 538.3099 331.387787 
L 539.357196 333.557145 
L 540.404492 335.244786 
L 541.451789 336.538761 
L 542.499085 337.51156 
L 543.546381 338.224692 
L 544.942776 338.858326 
L 546.339171 339.216266 
L 548.084665 339.40034 
L 550.179257 339.376868 
L 552.622948 339.123669 
L 556.113936 338.520033 
L 561.699515 337.28613 
L 572.870675 334.77237 
L 579.852649 333.453856 
L 587.88192 332.174266 
L 596.26029 331.062911 
L 603.940462 330.262528 
L 614.762523 329.383046 
L 630.122867 328.380965 
L 659.098062 326.757338 
L 766.969571 321.061239 
L 781.631718 320.285432 
L 781.631718 320.285432 
" clip-path="url(#pd65b72bc45)" style="fill: none; stroke: #c44e52; stroke-opacity: 0.9; stroke-width: 3; stroke-linecap: round"/>
   </g>
   <g id="line2d_59">
    <path d="M 527.138741 259.133727 
L 529.582432 282.731584 
L 533.073419 315.681156 
L 534.120715 323.319934 
L 535.168011 329.472148 
L 536.215308 334.409306 
L 537.262604 338.353611 
L 538.3099 341.48667 
L 539.357196 343.956622 
L 540.404492 345.884517 
L 541.451789 347.369324 
L 542.499085 348.491739 
L 543.546381 349.317712 
L 544.593677 349.90201 
L 545.990072 350.383209 
L 547.386467 350.606043 
L 549.131961 350.639129 
L 551.226553 350.446844 
L 554.019343 349.937779 
L 557.51033 349.063523 
L 564.143206 347.113684 
L 579.503551 342.596577 
L 589.627414 339.873964 
L 595.212994 338.555406 
L 601.496771 337.322288 
L 609.526042 335.990956 
L 618.602609 334.698271 
L 628.377374 333.539364 
L 639.199434 332.4936 
L 656.654371 331.058994 
L 689.818751 328.596277 
L 781.631718 321.972995 
L 781.631718 321.972995 
" clip-path="url(#pd65b72bc45)" style="fill: none; stroke: #8172b3; stroke-opacity: 0.9; stroke-width: 3; stroke-linecap: round"/>
   </g>
   <g id="line2d_60">
    <path d="M 527.138741 259.133727 
L 530.280629 283.349656 
L 533.073419 304.245318 
L 534.120715 310.34171 
L 535.168011 315.255173 
L 536.215308 319.201763 
L 537.262604 322.358225 
L 538.3099 324.868983 
L 539.357196 326.852028 
L 540.404492 328.40378 
L 541.451789 329.60305 
L 542.499085 330.514356 
L 543.546381 331.190708 
L 544.942776 331.800011 
L 546.339171 332.150788 
L 548.084665 332.326882 
L 550.179257 332.287966 
L 552.972047 331.990362 
L 556.812133 331.334045 
L 563.445009 329.940851 
L 581.598143 326.060624 
L 591.023809 324.264505 
L 598.703981 323.044323 
L 608.129647 321.790199 
L 620.348103 320.405833 
L 630.471966 319.437948 
L 645.134113 318.299808 
L 671.316518 316.525998 
L 744.278153 311.891825 
L 781.631718 309.530647 
L 781.631718 309.530647 
" clip-path="url(#pd65b72bc45)" style="fill: none; stroke: #937860; stroke-opacity: 0.9; stroke-width: 3; stroke-linecap: round"/>
   </g>
   <g id="patch_15">
    <path d="M 514.414092 373.284 
L 514.414092 253.698 
" style="fill: none; stroke: #ffffff; stroke-width: 1.25; stroke-linejoin: miter; stroke-linecap: square"/>
   </g>
   <g id="patch_16">
    <path d="M 514.414092 373.284 
L 794.356367 373.284 
" style="fill: none; stroke: #ffffff; stroke-width: 1.25; stroke-linejoin: miter; stroke-linecap: square"/>
   </g>
   <g id="text_21">
    <!-- 0.95~90 -->
    <g style="fill: #262626" transform="translate(599.738636 247.698) scale(0.252 -0.252)">
     <use xlink:href="#DejaVuSans-30"/>
     <use xlink:href="#DejaVuSans-2e" x="63.623047"/>
     <use xlink:href="#DejaVuSans-39" x="95.410156"/>
     <use xlink:href="#DejaVuSans-35" x="159.033203"/>
     <use xlink:href="#DejaVuSans-7e" x="222.65625"/>
     <use xlink:href="#DejaVuSans-39" x="306.445312"/>
     <use xlink:href="#DejaVuSans-30" x="370.068359"/>
    </g>
   </g>
  </g>
  <g id="axes_6">
   <g id="patch_17">
    <path d="M 820.667298 373.284 
L 1100.609573 373.284 
L 1100.609573 253.698 
L 820.667298 253.698 
z
" style="fill: #eaeaf2"/>
   </g>
   <g id="matplotlib.axis_11">
    <g id="xtick_21">
     <g id="line2d_61">
      <path d="M 833.391947 373.284 
L 833.391947 253.698 
" clip-path="url(#pd278be91a4)" style="fill: none; stroke: #ffffff; stroke-linecap: round"/>
     </g>
     <g id="text_22">
      <!-- 0 -->
      <g style="fill: #262626" transform="translate(826.04326 400.336391) scale(0.231 -0.231)">
       <use xlink:href="#DejaVuSans-30"/>
      </g>
     </g>
    </g>
    <g id="xtick_22">
     <g id="line2d_62">
      <path d="M 920.666631 373.284 
L 920.666631 253.698 
" clip-path="url(#pd278be91a4)" style="fill: none; stroke: #ffffff; stroke-linecap: round"/>
     </g>
     <g id="text_23">
      <!-- 250 -->
      <g style="fill: #262626" transform="translate(898.620568 400.336391) scale(0.231 -0.231)">
       <use xlink:href="#DejaVuSans-32"/>
       <use xlink:href="#DejaVuSans-35" x="63.623047"/>
       <use xlink:href="#DejaVuSans-30" x="127.246094"/>
      </g>
     </g>
    </g>
    <g id="xtick_23">
     <g id="line2d_63">
      <path d="M 1007.941314 373.284 
L 1007.941314 253.698 
" clip-path="url(#pd278be91a4)" style="fill: none; stroke: #ffffff; stroke-linecap: round"/>
     </g>
     <g id="text_24">
      <!-- 500 -->
      <g style="fill: #262626" transform="translate(985.895252 400.336391) scale(0.231 -0.231)">
       <use xlink:href="#DejaVuSans-35"/>
       <use xlink:href="#DejaVuSans-30" x="63.623047"/>
       <use xlink:href="#DejaVuSans-30" x="127.246094"/>
      </g>
     </g>
    </g>
    <g id="xtick_24">
     <g id="line2d_64">
      <path d="M 1095.215998 373.284 
L 1095.215998 253.698 
" clip-path="url(#pd278be91a4)" style="fill: none; stroke: #ffffff; stroke-linecap: round"/>
     </g>
     <g id="text_25">
      <!-- 750 -->
      <g style="fill: #262626" transform="translate(1073.169935 400.336391) scale(0.231 -0.231)">
       <use xlink:href="#DejaVuSans-37"/>
       <use xlink:href="#DejaVuSans-35" x="63.623047"/>
       <use xlink:href="#DejaVuSans-30" x="127.246094"/>
      </g>
     </g>
    </g>
    <g id="text_26">
     <!-- step -->
     <g style="fill: #262626" transform="translate(933.383061 428.288531) scale(0.252 -0.252)">
      <use xlink:href="#DejaVuSans-73"/>
      <use xlink:href="#DejaVuSans-74" x="52.099609"/>
      <use xlink:href="#DejaVuSans-65" x="91.308594"/>
      <use xlink:href="#DejaVuSans-70" x="152.832031"/>
     </g>
    </g>
   </g>
   <g id="matplotlib.axis_12">
    <g id="ytick_11">
     <g id="line2d_65">
      <path d="M 820.667298 320.000365 
L 1100.609573 320.000365 
" clip-path="url(#pd278be91a4)" style="fill: none; stroke: #ffffff; stroke-linecap: round"/>
     </g>
    </g>
    <g id="ytick_12">
     <g id="line2d_66">
      <path d="M 820.667298 259.133727 
L 1100.609573 259.133727 
" clip-path="url(#pd278be91a4)" style="fill: none; stroke: #ffffff; stroke-linecap: round"/>
     </g>
    </g>
   </g>
   <g id="PolyCollection_31"/>
   <g id="PolyCollection_32"/>
   <g id="PolyCollection_33"/>
   <g id="PolyCollection_34"/>
   <g id="PolyCollection_35"/>
   <g id="PolyCollection_36"/>
   <g id="line2d_67">
    <path d="M 833.391947 259.133727 
L 836.184737 287.217585 
L 839.326626 318.406248 
L 840.373922 326.658864 
L 841.421218 333.381292 
L 842.468514 338.850702 
L 843.51581 343.295806 
L 844.563107 346.903587 
L 845.610403 349.826842 
L 846.657699 352.190455 
L 847.704995 354.096495 
L 848.752291 355.628385 
L 849.799588 356.854649 
L 851.195982 358.109426 
L 852.592377 359.023897 
L 853.988772 359.678243 
L 855.734266 360.223746 
L 857.828858 360.599497 
L 860.27255 360.785123 
L 863.414438 360.791273 
L 867.952722 360.568464 
L 877.727486 359.793185 
L 914.731952 356.800917 
L 932.186889 355.616897 
L 944.754443 355.034479 
L 963.954874 354.390779 
L 995.024661 353.606959 
L 1041.105694 352.662093 
L 1087.884925 351.752346 
L 1087.884925 351.752346 
" clip-path="url(#pd278be91a4)" style="fill: none; stroke: #4c72b0; stroke-opacity: 0.9; stroke-width: 3; stroke-linecap: round"/>
   </g>
   <g id="line2d_68">
    <path d="M 833.391947 259.133727 
L 835.486539 270.72159 
L 839.675724 293.620813 
L 840.72302 297.954214 
L 841.770317 301.486096 
L 842.817613 304.360878 
L 843.864909 306.698395 
L 844.912205 308.596697 
L 845.959501 310.135927 
L 847.355896 311.741105 
L 848.752291 312.946223 
L 850.148686 313.845488 
L 851.545081 314.510828 
L 853.290575 315.096276 
L 855.385167 315.539686 
L 857.828858 315.81814 
L 861.319846 315.962335 
L 866.556327 315.920602 
L 875.981993 315.584881 
L 935.328778 313.231262 
L 952.085517 312.811606 
L 986.646292 312.222308 
L 1072.873679 311.036941 
L 1087.884925 310.838369 
L 1087.884925 310.838369 
" clip-path="url(#pd278be91a4)" style="fill: none; stroke: #dd8452; stroke-opacity: 0.9; stroke-width: 3; stroke-linecap: round"/>
   </g>
   <g id="line2d_69">
    <path d="M 833.391947 259.133727 
L 835.137441 277.775116 
L 839.326626 322.619752 
L 840.373922 331.449799 
L 841.421218 338.640727 
L 842.468514 344.489326 
L 843.51581 349.240733 
L 844.563107 353.095259 
L 845.610403 356.217074 
L 846.657699 358.740043 
L 847.704995 360.773342 
L 848.752291 362.406272 
L 849.799588 363.711819 
L 851.195982 365.044836 
L 852.592377 366.013426 
L 853.988772 366.705239 
L 855.734266 367.278673 
L 857.47976 367.615022 
L 859.574352 367.803682 
L 862.716241 367.836275 
L 866.905426 367.643208 
L 873.538302 367.093197 
L 892.040534 365.235297 
L 909.495471 363.585621 
L 920.666631 362.753717 
L 932.186889 362.12548 
L 946.499937 361.582054 
L 965.00217 361.110052 
L 998.16655 360.512497 
L 1087.884925 359.135075 
L 1087.884925 359.135075 
" clip-path="url(#pd278be91a4)" style="fill: none; stroke: #55a868; stroke-opacity: 0.9; stroke-width: 3; stroke-linecap: round"/>
   </g>
   <g id="line2d_70">
    <path d="M 833.391947 259.133727 
L 835.137441 273.797493 
L 839.326626 309.085557 
L 840.373922 316.042473 
L 841.421218 321.709079 
L 842.468514 326.318763 
L 843.51581 330.064376 
L 844.563107 333.103599 
L 845.610403 335.565291 
L 846.657699 337.554816 
L 847.704995 339.158318 
L 848.752291 340.446183 
L 850.148686 341.770383 
L 851.545081 342.745301 
L 852.941476 343.453564 
L 854.68697 344.057057 
L 856.432464 344.431158 
L 858.527056 344.668662 
L 861.668945 344.764714 
L 866.207228 344.651534 
L 873.538302 344.209949 
L 893.436929 342.692568 
L 911.939162 341.384521 
L 925.204914 340.686438 
L 940.565259 340.11664 
L 959.765689 339.625609 
L 991.882773 339.106587 
L 1087.884925 337.852957 
L 1087.884925 337.852957 
" clip-path="url(#pd278be91a4)" style="fill: none; stroke: #c44e52; stroke-opacity: 0.9; stroke-width: 3; stroke-linecap: round"/>
   </g>
   <g id="line2d_71">
    <path d="M 833.391947 259.133727 
L 835.835638 282.8199 
L 839.326626 316.259056 
L 840.373922 324.124018 
L 841.421218 330.529648 
L 842.468514 335.742017 
L 843.51581 339.978999 
L 844.563107 343.418694 
L 845.610403 346.206648 
L 846.657699 348.461805 
L 847.704995 350.281385 
L 848.752291 351.744824 
L 850.148686 353.252532 
L 851.545081 354.363222 
L 852.941476 355.170093 
L 854.337871 355.744342 
L 856.083365 356.216607 
L 858.177957 356.525322 
L 860.621648 356.651461 
L 864.112636 356.581739 
L 869.349117 356.223644 
L 879.47298 355.267434 
L 916.128347 351.682088 
L 935.677876 350.122779 
L 955.227405 348.769704 
L 968.493157 348.097687 
L 987.344489 347.37273 
L 1014.923289 346.581416 
L 1053.32415 345.698688 
L 1087.884925 344.992715 
L 1087.884925 344.992715 
" clip-path="url(#pd278be91a4)" style="fill: none; stroke: #8172b3; stroke-opacity: 0.9; stroke-width: 3; stroke-linecap: round"/>
   </g>
   <g id="line2d_72">
    <path d="M 833.391947 259.133727 
L 836.184737 280.749396 
L 839.326626 304.686526 
L 840.373922 310.954854 
L 841.421218 316.060864 
L 842.468514 320.216546 
L 843.51581 323.595506 
L 844.563107 326.339572 
L 845.610403 328.564648 
L 846.657699 330.365465 
L 847.704995 331.819433 
L 849.10139 333.326143 
L 850.497785 334.446321 
L 851.89418 335.27089 
L 853.639674 335.990153 
L 855.385167 336.455701 
L 857.47976 336.779708 
L 860.27255 336.952343 
L 864.112636 336.921321 
L 870.047314 336.610188 
L 883.662165 335.602651 
L 909.146372 333.770103 
L 930.441395 332.50831 
L 951.038221 331.493916 
L 968.842256 330.834113 
L 996.071957 330.067712 
L 1028.189041 329.369731 
L 1087.884925 328.279965 
L 1087.884925 328.279965 
" clip-path="url(#pd278be91a4)" style="fill: none; stroke: #937860; stroke-opacity: 0.9; stroke-width: 3; stroke-linecap: round"/>
   </g>
   <g id="patch_18">
    <path d="M 820.667298 373.284 
L 820.667298 253.698 
" style="fill: none; stroke: #ffffff; stroke-width: 1.25; stroke-linejoin: miter; stroke-linecap: square"/>
   </g>
   <g id="patch_19">
    <path d="M 820.667298 373.284 
L 1100.609573 373.284 
" style="fill: none; stroke: #ffffff; stroke-width: 1.25; stroke-linejoin: miter; stroke-linecap: square"/>
   </g>
   <g id="text_27">
    <!-- 0.95~365 -->
    <g style="fill: #262626" transform="translate(897.975092 247.698) scale(0.252 -0.252)">
     <use xlink:href="#DejaVuSans-30"/>
     <use xlink:href="#DejaVuSans-2e" x="63.623047"/>
     <use xlink:href="#DejaVuSans-39" x="95.410156"/>
     <use xlink:href="#DejaVuSans-35" x="159.033203"/>
     <use xlink:href="#DejaVuSans-7e" x="222.65625"/>
     <use xlink:href="#DejaVuSans-33" x="306.445312"/>
     <use xlink:href="#DejaVuSans-36" x="370.068359"/>
     <use xlink:href="#DejaVuSans-35" x="433.691406"/>
    </g>
   </g>
  </g>
  <g id="text_28">
   <!-- Production change from pre-shock level -->
   <g style="fill: #262626" transform="translate(280.766836 30.177675) scale(0.3024 -0.3024)">
    <defs>
     <path id="DejaVuSans-50" d="M 1259 4147 
L 1259 2394 
L 2053 2394 
Q 2494 2394 2734 2622 
Q 2975 2850 2975 3272 
Q 2975 3691 2734 3919 
Q 2494 4147 2053 4147 
L 1259 4147 
z
M 628 4666 
L 2053 4666 
Q 2838 4666 3239 4311 
Q 3641 3956 3641 3272 
Q 3641 2581 3239 2228 
Q 2838 1875 2053 1875 
L 1259 1875 
L 1259 0 
L 628 0 
L 628 4666 
z
" transform="scale(0.015625)"/>
     <path id="DejaVuSans-72" d="M 2631 2963 
Q 2534 3019 2420 3045 
Q 2306 3072 2169 3072 
Q 1681 3072 1420 2755 
Q 1159 2438 1159 1844 
L 1159 0 
L 581 0 
L 581 3500 
L 1159 3500 
L 1159 2956 
Q 1341 3275 1631 3429 
Q 1922 3584 2338 3584 
Q 2397 3584 2469 3576 
Q 2541 3569 2628 3553 
L 2631 2963 
z
" transform="scale(0.015625)"/>
     <path id="DejaVuSans-6f" d="M 1959 3097 
Q 1497 3097 1228 2736 
Q 959 2375 959 1747 
Q 959 1119 1226 758 
Q 1494 397 1959 397 
Q 2419 397 2687 759 
Q 2956 1122 2956 1747 
Q 2956 2369 2687 2733 
Q 2419 3097 1959 3097 
z
M 1959 3584 
Q 2709 3584 3137 3096 
Q 3566 2609 3566 1747 
Q 3566 888 3137 398 
Q 2709 -91 1959 -91 
Q 1206 -91 779 398 
Q 353 888 353 1747 
Q 353 2609 779 3096 
Q 1206 3584 1959 3584 
z
" transform="scale(0.015625)"/>
     <path id="DejaVuSans-64" d="M 2906 2969 
L 2906 4863 
L 3481 4863 
L 3481 0 
L 2906 0 
L 2906 525 
Q 2725 213 2448 61 
Q 2172 -91 1784 -91 
Q 1150 -91 751 415 
Q 353 922 353 1747 
Q 353 2572 751 3078 
Q 1150 3584 1784 3584 
Q 2172 3584 2448 3432 
Q 2725 3281 2906 2969 
z
M 947 1747 
Q 947 1113 1208 752 
Q 1469 391 1925 391 
Q 2381 391 2643 752 
Q 2906 1113 2906 1747 
Q 2906 2381 2643 2742 
Q 2381 3103 1925 3103 
Q 1469 3103 1208 2742 
Q 947 2381 947 1747 
z
" transform="scale(0.015625)"/>
     <path id="DejaVuSans-75" d="M 544 1381 
L 544 3500 
L 1119 3500 
L 1119 1403 
Q 1119 906 1312 657 
Q 1506 409 1894 409 
Q 2359 409 2629 706 
Q 2900 1003 2900 1516 
L 2900 3500 
L 3475 3500 
L 3475 0 
L 2900 0 
L 2900 538 
Q 2691 219 2414 64 
Q 2138 -91 1772 -91 
Q 1169 -91 856 284 
Q 544 659 544 1381 
z
M 1991 3584 
L 1991 3584 
z
" transform="scale(0.015625)"/>
     <path id="DejaVuSans-69" d="M 603 3500 
L 1178 3500 
L 1178 0 
L 603 0 
L 603 3500 
z
M 603 4863 
L 1178 4863 
L 1178 4134 
L 603 4134 
L 603 4863 
z
" transform="scale(0.015625)"/>
     <path id="DejaVuSans-66" d="M 2375 4863 
L 2375 4384 
L 1825 4384 
Q 1516 4384 1395 4259 
Q 1275 4134 1275 3809 
L 1275 3500 
L 2222 3500 
L 2222 3053 
L 1275 3053 
L 1275 0 
L 697 0 
L 697 3053 
L 147 3053 
L 147 3500 
L 697 3500 
L 697 3744 
Q 697 4328 969 4595 
Q 1241 4863 1831 4863 
L 2375 4863 
z
" transform="scale(0.015625)"/>
     <path id="DejaVuSans-6d" d="M 3328 2828 
Q 3544 3216 3844 3400 
Q 4144 3584 4550 3584 
Q 5097 3584 5394 3201 
Q 5691 2819 5691 2113 
L 5691 0 
L 5113 0 
L 5113 2094 
Q 5113 2597 4934 2840 
Q 4756 3084 4391 3084 
Q 3944 3084 3684 2787 
Q 3425 2491 3425 1978 
L 3425 0 
L 2847 0 
L 2847 2094 
Q 2847 2600 2669 2842 
Q 2491 3084 2119 3084 
Q 1678 3084 1418 2786 
Q 1159 2488 1159 1978 
L 1159 0 
L 581 0 
L 581 3500 
L 1159 3500 
L 1159 2956 
Q 1356 3278 1631 3431 
Q 1906 3584 2284 3584 
Q 2666 3584 2933 3390 
Q 3200 3197 3328 2828 
z
" transform="scale(0.015625)"/>
     <path id="DejaVuSans-2d" d="M 313 2009 
L 1997 2009 
L 1997 1497 
L 313 1497 
L 313 2009 
z
" transform="scale(0.015625)"/>
     <path id="DejaVuSans-6b" d="M 581 4863 
L 1159 4863 
L 1159 1991 
L 2875 3500 
L 3609 3500 
L 1753 1863 
L 3688 0 
L 2938 0 
L 1159 1709 
L 1159 0 
L 581 0 
L 581 4863 
z
" transform="scale(0.015625)"/>
     <path id="DejaVuSans-6c" d="M 603 4863 
L 1178 4863 
L 1178 0 
L 603 0 
L 603 4863 
z
" transform="scale(0.015625)"/>
     <path id="DejaVuSans-76" d="M 191 3500 
L 800 3500 
L 1894 563 
L 2988 3500 
L 3597 3500 
L 2284 0 
L 1503 0 
L 191 3500 
z
" transform="scale(0.015625)"/>
    </defs>
    <use xlink:href="#DejaVuSans-50"/>
    <use xlink:href="#DejaVuSans-72" x="58.552734"/>
    <use xlink:href="#DejaVuSans-6f" x="97.416016"/>
    <use xlink:href="#DejaVuSans-64" x="158.597656"/>
    <use xlink:href="#DejaVuSans-75" x="222.074219"/>
    <use xlink:href="#DejaVuSans-63" x="285.453125"/>
    <use xlink:href="#DejaVuSans-74" x="340.433594"/>
    <use xlink:href="#DejaVuSans-69" x="379.642578"/>
    <use xlink:href="#DejaVuSans-6f" x="407.425781"/>
    <use xlink:href="#DejaVuSans-6e" x="468.607422"/>
    <use xlink:href="#DejaVuSans-20" x="531.986328"/>
    <use xlink:href="#DejaVuSans-63" x="563.773438"/>
    <use xlink:href="#DejaVuSans-68" x="618.753906"/>
    <use xlink:href="#DejaVuSans-61" x="682.132812"/>
    <use xlink:href="#DejaVuSans-6e" x="743.412109"/>
    <use xlink:href="#DejaVuSans-67" x="806.791016"/>
    <use xlink:href="#DejaVuSans-65" x="870.267578"/>
    <use xlink:href="#DejaVuSans-20" x="931.791016"/>
    <use xlink:href="#DejaVuSans-66" x="963.578125"/>
    <use xlink:href="#DejaVuSans-72" x="998.783203"/>
    <use xlink:href="#DejaVuSans-6f" x="1037.646484"/>
    <use xlink:href="#DejaVuSans-6d" x="1098.828125"/>
    <use xlink:href="#DejaVuSans-20" x="1196.240234"/>
    <use xlink:href="#DejaVuSans-70" x="1228.027344"/>
    <use xlink:href="#DejaVuSans-72" x="1291.503906"/>
    <use xlink:href="#DejaVuSans-65" x="1330.367188"/>
    <use xlink:href="#DejaVuSans-2d" x="1391.890625"/>
    <use xlink:href="#DejaVuSans-73" x="1427.974609"/>
    <use xlink:href="#DejaVuSans-68" x="1480.074219"/>
    <use xlink:href="#DejaVuSans-6f" x="1543.453125"/>
    <use xlink:href="#DejaVuSans-63" x="1604.634766"/>
    <use xlink:href="#DejaVuSans-6b" x="1659.615234"/>
    <use xlink:href="#DejaVuSans-20" x="1717.525391"/>
    <use xlink:href="#DejaVuSans-6c" x="1749.3125"/>
    <use xlink:href="#DejaVuSans-65" x="1777.095703"/>
    <use xlink:href="#DejaVuSans-76" x="1838.619141"/>
    <use xlink:href="#DejaVuSans-65" x="1897.798828"/>
    <use xlink:href="#DejaVuSans-6c" x="1959.322266"/>
   </g>
  </g>
  <g id="legend_1">
   <g id="patch_20">
    <path d="M 11.82 584.31675 
L 1292.617547 584.31675 
Q 1297.237547 584.31675 1297.237547 579.69675 
L 1297.237547 476.97 
Q 1297.237547 472.35 1292.617547 472.35 
L 11.82 472.35 
Q 7.2 472.35 7.2 476.97 
L 7.2 579.69675 
Q 7.2 584.31675 11.82 584.31675 
z
" style="fill: #eaeaf2; opacity: 0.8; stroke: #cccccc; stroke-linejoin: miter"/>
   </g>
   <g id="text_29">
    <!-- Experiences -->
    <g style="fill: #262626" transform="translate(575.384367 500.738062) scale(0.252 -0.252)">
     <defs>
      <path id="DejaVuSans-45" d="M 628 4666 
L 3578 4666 
L 3578 4134 
L 1259 4134 
L 1259 2753 
L 3481 2753 
L 3481 2222 
L 1259 2222 
L 1259 531 
L 3634 531 
L 3634 0 
L 628 0 
L 628 4666 
z
" transform="scale(0.015625)"/>
      <path id="DejaVuSans-78" d="M 3513 3500 
L 2247 1797 
L 3578 0 
L 2900 0 
L 1881 1375 
L 863 0 
L 184 0 
L 1544 1831 
L 300 3500 
L 978 3500 
L 1906 2253 
L 2834 3500 
L 3513 3500 
z
" transform="scale(0.015625)"/>
     </defs>
     <use xlink:href="#DejaVuSans-45"/>
     <use xlink:href="#DejaVuSans-78" x="63.183594"/>
     <use xlink:href="#DejaVuSans-70" x="122.363281"/>
     <use xlink:href="#DejaVuSans-65" x="185.839844"/>
     <use xlink:href="#DejaVuSans-72" x="247.363281"/>
     <use xlink:href="#DejaVuSans-69" x="288.476562"/>
     <use xlink:href="#DejaVuSans-65" x="316.259766"/>
     <use xlink:href="#DejaVuSans-6e" x="377.783203"/>
     <use xlink:href="#DejaVuSans-63" x="441.162109"/>
     <use xlink:href="#DejaVuSans-65" x="496.142578"/>
     <use xlink:href="#DejaVuSans-73" x="557.666016"/>
    </g>
   </g>
   <g id="line2d_73">
    <path d="M 16.44 526.996266 
L 39.54 526.996266 
L 62.64 526.996266 
" style="fill: none; stroke: #4c72b0; stroke-opacity: 0.9; stroke-width: 3; stroke-linecap: round"/>
   </g>
   <g id="text_30">
    <!-- eora26_full_2000 -->
    <g style="fill: #262626" transform="translate(81.12 535.081266) scale(0.231 -0.231)">
     <defs>
      <path id="DejaVuSans-5f" d="M 3263 -1063 
L 3263 -1509 
L -63 -1509 
L -63 -1063 
L 3263 -1063 
z
" transform="scale(0.015625)"/>
     </defs>
     <use xlink:href="#DejaVuSans-65"/>
     <use xlink:href="#DejaVuSans-6f" x="61.523438"/>
     <use xlink:href="#DejaVuSans-72" x="122.705078"/>
     <use xlink:href="#DejaVuSans-61" x="163.818359"/>
     <use xlink:href="#DejaVuSans-32" x="225.097656"/>
     <use xlink:href="#DejaVuSans-36" x="288.720703"/>
     <use xlink:href="#DejaVuSans-5f" x="352.34375"/>
     <use xlink:href="#DejaVuSans-66" x="402.34375"/>
     <use xlink:href="#DejaVuSans-75" x="437.548828"/>
     <use xlink:href="#DejaVuSans-6c" x="500.927734"/>
     <use xlink:href="#DejaVuSans-6c" x="528.710938"/>
     <use xlink:href="#DejaVuSans-5f" x="556.494141"/>
     <use xlink:href="#DejaVuSans-32" x="606.494141"/>
     <use xlink:href="#DejaVuSans-30" x="670.117188"/>
     <use xlink:href="#DejaVuSans-30" x="733.740234"/>
     <use xlink:href="#DejaVuSans-30" x="797.363281"/>
    </g>
   </g>
   <g id="line2d_74">
    <path d="M 16.44 561.545203 
L 39.54 561.545203 
L 62.64 561.545203 
" style="fill: none; stroke: #dd8452; stroke-opacity: 0.9; stroke-width: 3; stroke-linecap: round"/>
   </g>
   <g id="text_31">
    <!-- eora26_full_2010 -->
    <g style="fill: #262626" transform="translate(81.12 569.630203) scale(0.231 -0.231)">
     <defs>
      <path id="DejaVuSans-31" d="M 794 531 
L 1825 531 
L 1825 4091 
L 703 3866 
L 703 4441 
L 1819 4666 
L 2450 4666 
L 2450 531 
L 3481 531 
L 3481 0 
L 794 0 
L 794 531 
z
" transform="scale(0.015625)"/>
     </defs>
     <use xlink:href="#DejaVuSans-65"/>
     <use xlink:href="#DejaVuSans-6f" x="61.523438"/>
     <use xlink:href="#DejaVuSans-72" x="122.705078"/>
     <use xlink:href="#DejaVuSans-61" x="163.818359"/>
     <use xlink:href="#DejaVuSans-32" x="225.097656"/>
     <use xlink:href="#DejaVuSans-36" x="288.720703"/>
     <use xlink:href="#DejaVuSans-5f" x="352.34375"/>
     <use xlink:href="#DejaVuSans-66" x="402.34375"/>
     <use xlink:href="#DejaVuSans-75" x="437.548828"/>
     <use xlink:href="#DejaVuSans-6c" x="500.927734"/>
     <use xlink:href="#DejaVuSans-6c" x="528.710938"/>
     <use xlink:href="#DejaVuSans-5f" x="556.494141"/>
     <use xlink:href="#DejaVuSans-32" x="606.494141"/>
     <use xlink:href="#DejaVuSans-30" x="670.117188"/>
     <use xlink:href="#DejaVuSans-31" x="733.740234"/>
     <use xlink:href="#DejaVuSans-30" x="797.363281"/>
    </g>
   </g>
   <g id="line2d_75">
    <path d="M 326.211 526.996266 
L 349.311 526.996266 
L 372.411 526.996266 
" style="fill: none; stroke: #55a868; stroke-opacity: 0.9; stroke-width: 3; stroke-linecap: round"/>
   </g>
   <g id="text_32">
    <!-- euregio_full_2000 -->
    <g style="fill: #262626" transform="translate(390.891 535.081266) scale(0.231 -0.231)">
     <use xlink:href="#DejaVuSans-65"/>
     <use xlink:href="#DejaVuSans-75" x="61.523438"/>
     <use xlink:href="#DejaVuSans-72" x="124.902344"/>
     <use xlink:href="#DejaVuSans-65" x="163.765625"/>
     <use xlink:href="#DejaVuSans-67" x="225.289062"/>
     <use xlink:href="#DejaVuSans-69" x="288.765625"/>
     <use xlink:href="#DejaVuSans-6f" x="316.548828"/>
     <use xlink:href="#DejaVuSans-5f" x="377.730469"/>
     <use xlink:href="#DejaVuSans-66" x="427.730469"/>
     <use xlink:href="#DejaVuSans-75" x="462.935547"/>
     <use xlink:href="#DejaVuSans-6c" x="526.314453"/>
     <use xlink:href="#DejaVuSans-6c" x="554.097656"/>
     <use xlink:href="#DejaVuSans-5f" x="581.880859"/>
     <use xlink:href="#DejaVuSans-32" x="631.880859"/>
     <use xlink:href="#DejaVuSans-30" x="695.503906"/>
     <use xlink:href="#DejaVuSans-30" x="759.126953"/>
     <use xlink:href="#DejaVuSans-30" x="822.75"/>
    </g>
   </g>
   <g id="line2d_76">
    <path d="M 326.211 561.545203 
L 349.311 561.545203 
L 372.411 561.545203 
" style="fill: none; stroke: #c44e52; stroke-opacity: 0.9; stroke-width: 3; stroke-linecap: round"/>
   </g>
   <g id="text_33">
    <!-- euregio_full_2010 -->
    <g style="fill: #262626" transform="translate(390.891 569.630203) scale(0.231 -0.231)">
     <use xlink:href="#DejaVuSans-65"/>
     <use xlink:href="#DejaVuSans-75" x="61.523438"/>
     <use xlink:href="#DejaVuSans-72" x="124.902344"/>
     <use xlink:href="#DejaVuSans-65" x="163.765625"/>
     <use xlink:href="#DejaVuSans-67" x="225.289062"/>
     <use xlink:href="#DejaVuSans-69" x="288.765625"/>
     <use xlink:href="#DejaVuSans-6f" x="316.548828"/>
     <use xlink:href="#DejaVuSans-5f" x="377.730469"/>
     <use xlink:href="#DejaVuSans-66" x="427.730469"/>
     <use xlink:href="#DejaVuSans-75" x="462.935547"/>
     <use xlink:href="#DejaVuSans-6c" x="526.314453"/>
     <use xlink:href="#DejaVuSans-6c" x="554.097656"/>
     <use xlink:href="#DejaVuSans-5f" x="581.880859"/>
     <use xlink:href="#DejaVuSans-32" x="631.880859"/>
     <use xlink:href="#DejaVuSans-30" x="695.503906"/>
     <use xlink:href="#DejaVuSans-31" x="759.126953"/>
     <use xlink:href="#DejaVuSans-30" x="822.75"/>
    </g>
   </g>
   <g id="line2d_77">
    <path d="M 641.847234 526.996266 
L 664.947234 526.996266 
L 688.047234 526.996266 
" style="fill: none; stroke: #8172b3; stroke-opacity: 0.9; stroke-width: 3; stroke-linecap: round"/>
   </g>
   <g id="text_34">
    <!-- exiobase3_full_2000 -->
    <g style="fill: #262626" transform="translate(706.527234 535.081266) scale(0.231 -0.231)">
     <defs>
      <path id="DejaVuSans-62" d="M 3116 1747 
Q 3116 2381 2855 2742 
Q 2594 3103 2138 3103 
Q 1681 3103 1420 2742 
Q 1159 2381 1159 1747 
Q 1159 1113 1420 752 
Q 1681 391 2138 391 
Q 2594 391 2855 752 
Q 3116 1113 3116 1747 
z
M 1159 2969 
Q 1341 3281 1617 3432 
Q 1894 3584 2278 3584 
Q 2916 3584 3314 3078 
Q 3713 2572 3713 1747 
Q 3713 922 3314 415 
Q 2916 -91 2278 -91 
Q 1894 -91 1617 61 
Q 1341 213 1159 525 
L 1159 0 
L 581 0 
L 581 4863 
L 1159 4863 
L 1159 2969 
z
" transform="scale(0.015625)"/>
     </defs>
     <use xlink:href="#DejaVuSans-65"/>
     <use xlink:href="#DejaVuSans-78" x="59.773438"/>
     <use xlink:href="#DejaVuSans-69" x="118.953125"/>
     <use xlink:href="#DejaVuSans-6f" x="146.736328"/>
     <use xlink:href="#DejaVuSans-62" x="207.917969"/>
     <use xlink:href="#DejaVuSans-61" x="271.394531"/>
     <use xlink:href="#DejaVuSans-73" x="332.673828"/>
     <use xlink:href="#DejaVuSans-65" x="384.773438"/>
     <use xlink:href="#DejaVuSans-33" x="446.296875"/>
     <use xlink:href="#DejaVuSans-5f" x="509.919922"/>
     <use xlink:href="#DejaVuSans-66" x="559.919922"/>
     <use xlink:href="#DejaVuSans-75" x="595.125"/>
     <use xlink:href="#DejaVuSans-6c" x="658.503906"/>
     <use xlink:href="#DejaVuSans-6c" x="686.287109"/>
     <use xlink:href="#DejaVuSans-5f" x="714.070312"/>
     <use xlink:href="#DejaVuSans-32" x="764.070312"/>
     <use xlink:href="#DejaVuSans-30" x="827.693359"/>
     <use xlink:href="#DejaVuSans-30" x="891.316406"/>
     <use xlink:href="#DejaVuSans-30" x="954.939453"/>
    </g>
   </g>
   <g id="line2d_78">
    <path d="M 988.022391 526.996266 
L 1011.122391 526.996266 
L 1034.222391 526.996266 
" style="fill: none; stroke: #937860; stroke-opacity: 0.9; stroke-width: 3; stroke-linecap: round"/>
   </g>
   <g id="text_35">
    <!-- exiobase3_full_2010 -->
    <g style="fill: #262626" transform="translate(1052.702391 535.081266) scale(0.231 -0.231)">
     <use xlink:href="#DejaVuSans-65"/>
     <use xlink:href="#DejaVuSans-78" x="59.773438"/>
     <use xlink:href="#DejaVuSans-69" x="118.953125"/>
     <use xlink:href="#DejaVuSans-6f" x="146.736328"/>
     <use xlink:href="#DejaVuSans-62" x="207.917969"/>
     <use xlink:href="#DejaVuSans-61" x="271.394531"/>
     <use xlink:href="#DejaVuSans-73" x="332.673828"/>
     <use xlink:href="#DejaVuSans-65" x="384.773438"/>
     <use xlink:href="#DejaVuSans-33" x="446.296875"/>
     <use xlink:href="#DejaVuSans-5f" x="509.919922"/>
     <use xlink:href="#DejaVuSans-66" x="559.919922"/>
     <use xlink:href="#DejaVuSans-75" x="595.125"/>
     <use xlink:href="#DejaVuSans-6c" x="658.503906"/>
     <use xlink:href="#DejaVuSans-6c" x="686.287109"/>
     <use xlink:href="#DejaVuSans-5f" x="714.070312"/>
     <use xlink:href="#DejaVuSans-32" x="764.070312"/>
     <use xlink:href="#DejaVuSans-30" x="827.693359"/>
     <use xlink:href="#DejaVuSans-31" x="891.316406"/>
     <use xlink:href="#DejaVuSans-30" x="954.939453"/>
    </g>
   </g>
  </g>
 </g>
 <defs>
  <clipPath id="pe271ca5a19">
   <rect x="208.160885" y="81.456" width="279.942275" height="119.586"/>
  </clipPath>
  <clipPath id="p7373eba351">
   <rect x="514.414092" y="81.456" width="279.942275" height="119.586"/>
  </clipPath>
  <clipPath id="p001294a58e">
   <rect x="820.667298" y="81.456" width="279.942275" height="119.586"/>
  </clipPath>
  <clipPath id="pfbf8579621">
   <rect x="208.160885" y="253.698" width="279.942275" height="119.586"/>
  </clipPath>
  <clipPath id="pd65b72bc45">
   <rect x="514.414092" y="253.698" width="279.942275" height="119.586"/>
  </clipPath>
  <clipPath id="pd278be91a4">
   <rect x="820.667298" y="253.698" width="279.942275" height="119.586"/>
  </clipPath>
 </defs>
</svg>
