<?xml version="1.0" encoding="utf-8" standalone="no"?>
<!DOCTYPE svg PUBLIC "-//W3C//DTD SVG 1.1//EN"
  "http://www.w3.org/Graphics/SVG/1.1/DTD/svg11.dtd">
<svg xmlns:xlink="http://www.w3.org/1999/xlink" width="1237.494469pt" height="556.967813pt" viewBox="0 0 1237.494469 556.967813" xmlns="http://www.w3.org/2000/svg" version="1.1">
 <metadata>
  <rdf:RDF xmlns:dc="http://purl.org/dc/elements/1.1/" xmlns:cc="http://creativecommons.org/ns#" xmlns:rdf="http://www.w3.org/1999/02/22-rdf-syntax-ns#">
   <cc:Work>
    <dc:type rdf:resource="http://purl.org/dc/dcmitype/StillImage"/>
    <dc:date>2023-04-07T16:46:41.828824</dc:date>
    <dc:format>image/svg+xml</dc:format>
    <dc:creator>
     <cc:Agent>
      <dc:title>Matplotlib v3.7.1, https://matplotlib.org/</dc:title>
     </cc:Agent>
    </dc:creator>
   </cc:Work>
  </rdf:RDF>
 </metadata>
 <defs>
  <style type="text/css">*{stroke-linejoin: round; stroke-linecap: butt}</style>
 </defs>
 <g id="figure_1">
  <g id="patch_1">
   <path d="M -0 556.967813 
L 1237.494469 556.967813 
L 1237.494469 0 
L -0 0 
z
" style="fill: #ffffff"/>
  </g>
  <g id="axes_1">
   <g id="patch_2">
    <path d="M 119.522628 197.432644 
L 422.166926 197.432644 
L 422.166926 81.456 
L 119.522628 81.456 
z
" style="fill: #eaeaf2"/>
   </g>
   <g id="matplotlib.axis_1">
    <g id="xtick_1">
     <g id="line2d_1">
      <path d="M 133.279187 197.432644 
L 133.279187 81.456 
" clip-path="url(#p7794a8d12d)" style="fill: none; stroke: #ffffff; stroke-linecap: round"/>
     </g>
    </g>
    <g id="xtick_2">
     <g id="line2d_2">
      <path d="M 227.631444 197.432644 
L 227.631444 81.456 
" clip-path="url(#p7794a8d12d)" style="fill: none; stroke: #ffffff; stroke-linecap: round"/>
     </g>
    </g>
    <g id="xtick_3">
     <g id="line2d_3">
      <path d="M 321.9837 197.432644 
L 321.9837 81.456 
" clip-path="url(#p7794a8d12d)" style="fill: none; stroke: #ffffff; stroke-linecap: round"/>
     </g>
    </g>
    <g id="xtick_4">
     <g id="line2d_4">
      <path d="M 416.335957 197.432644 
L 416.335957 81.456 
" clip-path="url(#p7794a8d12d)" style="fill: none; stroke: #ffffff; stroke-linecap: round"/>
     </g>
    </g>
   </g>
   <g id="matplotlib.axis_2">
    <g id="ytick_1">
     <g id="line2d_5">
      <path d="M 119.522628 191.077624 
L 422.166926 191.077624 
" clip-path="url(#p7794a8d12d)" style="fill: none; stroke: #ffffff; stroke-linecap: round"/>
     </g>
     <g id="text_1">
      <!-- −1 -->
      <g style="fill: #262626" transform="translate(75.968175 199.853819) scale(0.231 -0.231)">
       <defs>
        <path id="DejaVuSans-2212" d="M 678 2272 
L 4684 2272 
L 4684 1741 
L 678 1741 
L 678 2272 
z
" transform="scale(0.015625)"/>
        <path id="DejaVuSans-31" d="M 794 531 
L 1825 531 
L 1825 4091 
L 703 3866 
L 703 4441 
L 1819 4666 
L 2450 4666 
L 2450 531 
L 3481 531 
L 3481 0 
L 794 0 
L 794 531 
z
" transform="scale(0.015625)"/>
       </defs>
       <use xlink:href="#DejaVuSans-2212"/>
       <use xlink:href="#DejaVuSans-31" x="83.789062"/>
      </g>
     </g>
    </g>
    <g id="ytick_2">
     <g id="line2d_6">
      <path d="M 119.522628 126.393457 
L 422.166926 126.393457 
" clip-path="url(#p7794a8d12d)" style="fill: none; stroke: #ffffff; stroke-linecap: round"/>
     </g>
     <g id="text_2">
      <!-- 0 -->
      <g style="fill: #262626" transform="translate(95.325253 135.169652) scale(0.231 -0.231)">
       <defs>
        <path id="DejaVuSans-30" d="M 2034 4250 
Q 1547 4250 1301 3770 
Q 1056 3291 1056 2328 
Q 1056 1369 1301 889 
Q 1547 409 2034 409 
Q 2525 409 2770 889 
Q 3016 1369 3016 2328 
Q 3016 3291 2770 3770 
Q 2525 4250 2034 4250 
z
M 2034 4750 
Q 2819 4750 3233 4129 
Q 3647 3509 3647 2328 
Q 3647 1150 3233 529 
Q 2819 -91 2034 -91 
Q 1250 -91 836 529 
Q 422 1150 422 2328 
Q 422 3509 836 4129 
Q 1250 4750 2034 4750 
z
" transform="scale(0.015625)"/>
       </defs>
       <use xlink:href="#DejaVuSans-30"/>
      </g>
     </g>
    </g>
    <g id="text_3">
     <!-- % change -->
     <g style="fill: #262626" transform="translate(66.727363 201.792666) rotate(-90) scale(0.252 -0.252)">
      <defs>
       <path id="DejaVuSans-25" d="M 4653 2053 
Q 4381 2053 4226 1822 
Q 4072 1591 4072 1178 
Q 4072 772 4226 539 
Q 4381 306 4653 306 
Q 4919 306 5073 539 
Q 5228 772 5228 1178 
Q 5228 1588 5073 1820 
Q 4919 2053 4653 2053 
z
M 4653 2450 
Q 5147 2450 5437 2106 
Q 5728 1763 5728 1178 
Q 5728 594 5436 251 
Q 5144 -91 4653 -91 
Q 4153 -91 3862 251 
Q 3572 594 3572 1178 
Q 3572 1766 3864 2108 
Q 4156 2450 4653 2450 
z
M 1428 4353 
Q 1159 4353 1004 4120 
Q 850 3888 850 3481 
Q 850 3069 1003 2837 
Q 1156 2606 1428 2606 
Q 1700 2606 1854 2837 
Q 2009 3069 2009 3481 
Q 2009 3884 1853 4118 
Q 1697 4353 1428 4353 
z
M 4250 4750 
L 4750 4750 
L 1831 -91 
L 1331 -91 
L 4250 4750 
z
M 1428 4750 
Q 1922 4750 2215 4408 
Q 2509 4066 2509 3481 
Q 2509 2891 2217 2550 
Q 1925 2209 1428 2209 
Q 931 2209 642 2551 
Q 353 2894 353 3481 
Q 353 4063 643 4406 
Q 934 4750 1428 4750 
z
" transform="scale(0.015625)"/>
       <path id="DejaVuSans-20" transform="scale(0.015625)"/>
       <path id="DejaVuSans-63" d="M 3122 3366 
L 3122 2828 
Q 2878 2963 2633 3030 
Q 2388 3097 2138 3097 
Q 1578 3097 1268 2742 
Q 959 2388 959 1747 
Q 959 1106 1268 751 
Q 1578 397 2138 397 
Q 2388 397 2633 464 
Q 2878 531 3122 666 
L 3122 134 
Q 2881 22 2623 -34 
Q 2366 -91 2075 -91 
Q 1284 -91 818 406 
Q 353 903 353 1747 
Q 353 2603 823 3093 
Q 1294 3584 2113 3584 
Q 2378 3584 2631 3529 
Q 2884 3475 3122 3366 
z
" transform="scale(0.015625)"/>
       <path id="DejaVuSans-68" d="M 3513 2113 
L 3513 0 
L 2938 0 
L 2938 2094 
Q 2938 2591 2744 2837 
Q 2550 3084 2163 3084 
Q 1697 3084 1428 2787 
Q 1159 2491 1159 1978 
L 1159 0 
L 581 0 
L 581 4863 
L 1159 4863 
L 1159 2956 
Q 1366 3272 1645 3428 
Q 1925 3584 2291 3584 
Q 2894 3584 3203 3211 
Q 3513 2838 3513 2113 
z
" transform="scale(0.015625)"/>
       <path id="DejaVuSans-61" d="M 2194 1759 
Q 1497 1759 1228 1600 
Q 959 1441 959 1056 
Q 959 750 1161 570 
Q 1363 391 1709 391 
Q 2188 391 2477 730 
Q 2766 1069 2766 1631 
L 2766 1759 
L 2194 1759 
z
M 3341 1997 
L 3341 0 
L 2766 0 
L 2766 531 
Q 2569 213 2275 61 
Q 1981 -91 1556 -91 
Q 1019 -91 701 211 
Q 384 513 384 1019 
Q 384 1609 779 1909 
Q 1175 2209 1959 2209 
L 2766 2209 
L 2766 2266 
Q 2766 2663 2505 2880 
Q 2244 3097 1772 3097 
Q 1472 3097 1187 3025 
Q 903 2953 641 2809 
L 641 3341 
Q 956 3463 1253 3523 
Q 1550 3584 1831 3584 
Q 2591 3584 2966 3190 
Q 3341 2797 3341 1997 
z
" transform="scale(0.015625)"/>
       <path id="DejaVuSans-6e" d="M 3513 2113 
L 3513 0 
L 2938 0 
L 2938 2094 
Q 2938 2591 2744 2837 
Q 2550 3084 2163 3084 
Q 1697 3084 1428 2787 
Q 1159 2491 1159 1978 
L 1159 0 
L 581 0 
L 581 3500 
L 1159 3500 
L 1159 2956 
Q 1366 3272 1645 3428 
Q 1925 3584 2291 3584 
Q 2894 3584 3203 3211 
Q 3513 2838 3513 2113 
z
" transform="scale(0.015625)"/>
       <path id="DejaVuSans-67" d="M 2906 1791 
Q 2906 2416 2648 2759 
Q 2391 3103 1925 3103 
Q 1463 3103 1205 2759 
Q 947 2416 947 1791 
Q 947 1169 1205 825 
Q 1463 481 1925 481 
Q 2391 481 2648 825 
Q 2906 1169 2906 1791 
z
M 3481 434 
Q 3481 -459 3084 -895 
Q 2688 -1331 1869 -1331 
Q 1566 -1331 1297 -1286 
Q 1028 -1241 775 -1147 
L 775 -588 
Q 1028 -725 1275 -790 
Q 1522 -856 1778 -856 
Q 2344 -856 2625 -561 
Q 2906 -266 2906 331 
L 2906 616 
Q 2728 306 2450 153 
Q 2172 0 1784 0 
Q 1141 0 747 490 
Q 353 981 353 1791 
Q 353 2603 747 3093 
Q 1141 3584 1784 3584 
Q 2172 3584 2450 3431 
Q 2728 3278 2906 2969 
L 2906 3500 
L 3481 3500 
L 3481 434 
z
" transform="scale(0.015625)"/>
       <path id="DejaVuSans-65" d="M 3597 1894 
L 3597 1613 
L 953 1613 
Q 991 1019 1311 708 
Q 1631 397 2203 397 
Q 2534 397 2845 478 
Q 3156 559 3463 722 
L 3463 178 
Q 3153 47 2828 -22 
Q 2503 -91 2169 -91 
Q 1331 -91 842 396 
Q 353 884 353 1716 
Q 353 2575 817 3079 
Q 1281 3584 2069 3584 
Q 2775 3584 3186 3129 
Q 3597 2675 3597 1894 
z
M 3022 2063 
Q 3016 2534 2758 2815 
Q 2500 3097 2075 3097 
Q 1594 3097 1305 2825 
Q 1016 2553 972 2059 
L 3022 2063 
z
" transform="scale(0.015625)"/>
      </defs>
      <use xlink:href="#DejaVuSans-25"/>
      <use xlink:href="#DejaVuSans-20" x="95.019531"/>
      <use xlink:href="#DejaVuSans-63" x="126.806641"/>
      <use xlink:href="#DejaVuSans-68" x="181.787109"/>
      <use xlink:href="#DejaVuSans-61" x="245.166016"/>
      <use xlink:href="#DejaVuSans-6e" x="306.445312"/>
      <use xlink:href="#DejaVuSans-67" x="369.824219"/>
      <use xlink:href="#DejaVuSans-65" x="433.300781"/>
     </g>
    </g>
   </g>
   <g id="PolyCollection_1"/>
   <g id="PolyCollection_2"/>
   <g id="PolyCollection_3"/>
   <g id="PolyCollection_4"/>
   <g id="line2d_7">
    <path d="M 133.279187 126.393457 
L 133.656597 178.469684 
L 134.034006 180.110936 
L 134.411415 180.36412 
L 135.166233 180.004148 
L 138.940323 177.363741 
L 140.07255 173.418311 
L 141.959595 166.875604 
L 143.84664 161.073207 
L 145.733685 155.941484 
L 147.62073 151.378274 
L 149.507776 147.472278 
L 151.394821 144.000779 
L 153.281866 140.942923 
L 155.54632 137.743748 
L 157.810774 134.96244 
L 160.075228 132.545767 
L 162.339682 130.444951 
L 163.47191 129.606066 
L 166.113773 128.139519 
L 168.755636 126.914411 
L 171.774908 125.746085 
L 174.79418 124.810833 
L 176.681225 124.359724 
L 180.832725 123.838869 
L 184.984224 123.595301 
L 193.664632 123.403346 
L 203.854675 123.364907 
L 218.573627 123.687124 
L 232.537761 124.249344 
L 248.38894 124.409876 
L 282.733162 124.494932 
L 408.410367 124.513681 
L 408.410367 124.513681 
" clip-path="url(#p7794a8d12d)" style="fill: none; stroke: #4c72b0; stroke-opacity: 0.9; stroke-width: 3; stroke-linecap: round"/>
   </g>
   <g id="line2d_8">
    <path d="M 133.279187 126.393457 
L 133.656597 154.796124 
L 134.034006 155.912231 
L 134.411415 156.219029 
L 135.166233 156.176431 
L 137.808096 155.310177 
L 138.940323 154.93416 
L 139.695141 153.63424 
L 142.337004 148.689486 
L 144.601458 145.01693 
L 146.865912 141.825551 
L 149.130367 139.06691 
L 151.394821 136.679207 
L 153.659275 134.691133 
L 155.923729 132.983065 
L 158.565592 131.300189 
L 161.207455 129.871719 
L 163.849319 128.67551 
L 166.868591 127.757892 
L 170.265272 126.9301 
L 174.79418 126.056088 
L 178.568271 125.534673 
L 184.984224 125.039981 
L 192.154995 124.745436 
L 206.496538 124.551423 
L 224.612172 124.703319 
L 234.047397 124.823754 
L 242.727805 124.930462 
L 354.818286 125.121361 
L 408.410367 125.121751 
L 408.410367 125.121751 
" clip-path="url(#p7794a8d12d)" style="fill: none; stroke: #dd8452; stroke-opacity: 0.9; stroke-width: 3; stroke-linecap: round"/>
   </g>
   <g id="line2d_9">
    <path d="M 133.279187 126.393457 
L 133.656597 180.96558 
L 134.034006 183.736043 
L 134.411415 184.254487 
L 134.788824 184.211029 
L 135.921051 183.498209 
L 138.940323 181.423957 
L 140.07255 177.201634 
L 141.959595 170.191603 
L 143.84664 163.935985 
L 145.733685 158.378837 
L 147.62073 153.443886 
L 149.507776 149.076916 
L 151.394821 145.205042 
L 153.281866 141.778125 
L 155.168911 138.779215 
L 157.055956 136.168555 
L 159.32041 133.447722 
L 161.584864 131.099206 
L 163.094501 129.757167 
L 165.358955 128.157285 
L 167.623409 126.848278 
L 169.887863 125.792547 
L 172.529726 124.830496 
L 174.416771 124.34874 
L 177.436043 123.888421 
L 181.964952 123.459172 
L 186.871269 123.229578 
L 193.287223 123.171552 
L 199.703176 123.337119 
L 233.669988 124.490427 
L 251.408213 124.681881 
L 285.375025 124.77724 
L 408.410367 124.795097 
L 408.410367 124.795097 
" clip-path="url(#p7794a8d12d)" style="fill: none; stroke: #55a868; stroke-opacity: 0.9; stroke-width: 3; stroke-linecap: round"/>
   </g>
   <g id="line2d_10">
    <path d="M 133.279187 126.393457 
L 133.656597 169.282622 
L 134.034006 171.503467 
L 134.411415 171.90623 
L 134.788824 171.863173 
L 135.921051 171.284056 
L 138.940323 169.606865 
L 140.07255 166.293007 
L 142.337004 159.739474 
L 144.224049 154.924295 
L 146.111094 150.642096 
L 147.998139 146.844781 
L 149.885185 143.492483 
L 151.77223 140.525286 
L 153.659275 137.912685 
L 155.54632 135.625412 
L 157.433365 133.63458 
L 159.697819 131.565426 
L 161.962273 129.778092 
L 163.47191 128.781531 
L 165.736364 127.596751 
L 168.378227 126.468053 
L 171.02009 125.613785 
L 173.284544 125.074505 
L 177.058634 124.572491 
L 182.342361 124.167389 
L 188.380905 123.936067 
L 194.796859 123.902981 
L 208.383584 124.223517 
L 224.989581 124.641667 
L 241.218169 124.855709 
L 267.636801 124.980963 
L 340.099334 125.017525 
L 408.410367 125.018041 
L 408.410367 125.018041 
" clip-path="url(#p7794a8d12d)" style="fill: none; stroke: #c44e52; stroke-opacity: 0.9; stroke-width: 3; stroke-linecap: round"/>
   </g>
   <g id="patch_3">
    <path d="M 119.522628 197.432644 
L 119.522628 81.456 
" style="fill: none; stroke: #ffffff; stroke-width: 1.25; stroke-linejoin: miter; stroke-linecap: square"/>
   </g>
   <g id="patch_4">
    <path d="M 119.522628 197.432644 
L 422.166926 197.432644 
" style="fill: none; stroke: #ffffff; stroke-width: 1.25; stroke-linejoin: miter; stroke-linecap: square"/>
   </g>
   <g id="text_4">
    <!-- 0.5~30 -->
    <g style="fill: #262626" transform="translate(224.214934 75.456) scale(0.252 -0.252)">
     <defs>
      <path id="DejaVuSans-2e" d="M 684 794 
L 1344 794 
L 1344 0 
L 684 0 
L 684 794 
z
" transform="scale(0.015625)"/>
      <path id="DejaVuSans-35" d="M 691 4666 
L 3169 4666 
L 3169 4134 
L 1269 4134 
L 1269 2991 
Q 1406 3038 1543 3061 
Q 1681 3084 1819 3084 
Q 2600 3084 3056 2656 
Q 3513 2228 3513 1497 
Q 3513 744 3044 326 
Q 2575 -91 1722 -91 
Q 1428 -91 1123 -41 
Q 819 9 494 109 
L 494 744 
Q 775 591 1075 516 
Q 1375 441 1709 441 
Q 2250 441 2565 725 
Q 2881 1009 2881 1497 
Q 2881 1984 2565 2268 
Q 2250 2553 1709 2553 
Q 1456 2553 1204 2497 
Q 953 2441 691 2322 
L 691 4666 
z
" transform="scale(0.015625)"/>
      <path id="DejaVuSans-7e" d="M 4684 2553 
L 4684 1997 
Q 4356 1750 4076 1644 
Q 3797 1538 3494 1538 
Q 3150 1538 2694 1722 
Q 2659 1734 2644 1741 
Q 2622 1750 2575 1766 
Q 2091 1959 1797 1959 
Q 1522 1959 1253 1839 
Q 984 1719 678 1459 
L 678 2016 
Q 1006 2263 1286 2370 
Q 1566 2478 1869 2478 
Q 2213 2478 2672 2291 
Q 2703 2278 2719 2272 
Q 2744 2263 2788 2247 
Q 3272 2053 3566 2053 
Q 3834 2053 4098 2172 
Q 4363 2291 4684 2553 
z
" transform="scale(0.015625)"/>
      <path id="DejaVuSans-33" d="M 2597 2516 
Q 3050 2419 3304 2112 
Q 3559 1806 3559 1356 
Q 3559 666 3084 287 
Q 2609 -91 1734 -91 
Q 1441 -91 1130 -33 
Q 819 25 488 141 
L 488 750 
Q 750 597 1062 519 
Q 1375 441 1716 441 
Q 2309 441 2620 675 
Q 2931 909 2931 1356 
Q 2931 1769 2642 2001 
Q 2353 2234 1838 2234 
L 1294 2234 
L 1294 2753 
L 1863 2753 
Q 2328 2753 2575 2939 
Q 2822 3125 2822 3475 
Q 2822 3834 2567 4026 
Q 2313 4219 1838 4219 
Q 1578 4219 1281 4162 
Q 984 4106 628 3988 
L 628 4550 
Q 988 4650 1302 4700 
Q 1616 4750 1894 4750 
Q 2613 4750 3031 4423 
Q 3450 4097 3450 3541 
Q 3450 3153 3228 2886 
Q 3006 2619 2597 2516 
z
" transform="scale(0.015625)"/>
     </defs>
     <use xlink:href="#DejaVuSans-30"/>
     <use xlink:href="#DejaVuSans-2e" x="63.623047"/>
     <use xlink:href="#DejaVuSans-35" x="95.410156"/>
     <use xlink:href="#DejaVuSans-7e" x="159.033203"/>
     <use xlink:href="#DejaVuSans-33" x="242.822266"/>
     <use xlink:href="#DejaVuSans-30" x="306.445312"/>
    </g>
   </g>
  </g>
  <g id="axes_2">
   <g id="patch_5">
    <path d="M 449.025483 197.432644 
L 751.66978 197.432644 
L 751.66978 81.456 
L 449.025483 81.456 
z
" style="fill: #eaeaf2"/>
   </g>
   <g id="matplotlib.axis_3">
    <g id="xtick_5">
     <g id="line2d_11">
      <path d="M 462.782042 197.432644 
L 462.782042 81.456 
" clip-path="url(#p7a96c7251d)" style="fill: none; stroke: #ffffff; stroke-linecap: round"/>
     </g>
    </g>
    <g id="xtick_6">
     <g id="line2d_12">
      <path d="M 557.134298 197.432644 
L 557.134298 81.456 
" clip-path="url(#p7a96c7251d)" style="fill: none; stroke: #ffffff; stroke-linecap: round"/>
     </g>
    </g>
    <g id="xtick_7">
     <g id="line2d_13">
      <path d="M 651.486554 197.432644 
L 651.486554 81.456 
" clip-path="url(#p7a96c7251d)" style="fill: none; stroke: #ffffff; stroke-linecap: round"/>
     </g>
    </g>
    <g id="xtick_8">
     <g id="line2d_14">
      <path d="M 745.838811 197.432644 
L 745.838811 81.456 
" clip-path="url(#p7a96c7251d)" style="fill: none; stroke: #ffffff; stroke-linecap: round"/>
     </g>
    </g>
   </g>
   <g id="matplotlib.axis_4">
    <g id="ytick_3">
     <g id="line2d_15">
      <path d="M 449.025483 191.077624 
L 751.66978 191.077624 
" clip-path="url(#p7a96c7251d)" style="fill: none; stroke: #ffffff; stroke-linecap: round"/>
     </g>
    </g>
    <g id="ytick_4">
     <g id="line2d_16">
      <path d="M 449.025483 126.393457 
L 751.66978 126.393457 
" clip-path="url(#p7a96c7251d)" style="fill: none; stroke: #ffffff; stroke-linecap: round"/>
     </g>
    </g>
   </g>
   <g id="PolyCollection_5"/>
   <g id="PolyCollection_6"/>
   <g id="PolyCollection_7"/>
   <g id="PolyCollection_8"/>
   <g id="line2d_17">
    <path d="M 462.782042 126.393457 
L 463.159451 178.469684 
L 463.53686 180.320614 
L 463.914269 180.816011 
L 464.669087 180.956341 
L 468.443177 180.741804 
L 469.197995 178.652999 
L 471.462449 171.964395 
L 473.349494 167.012988 
L 475.236539 162.582976 
L 477.500994 157.877817 
L 479.765448 153.760035 
L 482.029902 150.156703 
L 484.294356 147.002496 
L 486.55881 144.241221 
L 488.823264 141.823733 
L 491.087718 139.707007 
L 493.729582 137.567895 
L 496.371445 135.736833 
L 499.013308 134.171499 
L 502.03258 132.657419 
L 505.051852 131.387919 
L 508.071125 130.336628 
L 511.845215 129.281159 
L 515.996714 128.371685 
L 520.903032 127.544915 
L 526.564167 126.841389 
L 531.847893 126.403125 
L 537.509029 126.134358 
L 549.208708 125.840618 
L 565.059888 125.685906 
L 582.420703 125.712753 
L 598.271882 125.966072 
L 620.916423 126.08985 
L 665.828097 126.168061 
L 737.913221 126.195989 
L 737.913221 126.195989 
" clip-path="url(#p7a96c7251d)" style="fill: none; stroke: #4c72b0; stroke-opacity: 0.9; stroke-width: 3; stroke-linecap: round"/>
   </g>
   <g id="line2d_18">
    <path d="M 462.782042 126.393457 
L 463.159451 154.796124 
L 463.53686 156.009343 
L 463.914269 156.42955 
L 464.669087 156.625739 
L 466.933541 156.594362 
L 468.443177 156.54942 
L 469.197995 155.480804 
L 472.217267 150.662888 
L 474.481721 147.539995 
L 476.746176 144.808642 
L 479.01063 142.418431 
L 481.275084 140.326322 
L 483.916947 138.212909 
L 486.55881 136.40353 
L 489.200673 134.854492 
L 492.219946 133.355128 
L 495.239218 132.099405 
L 498.635899 130.928154 
L 502.409989 129.872385 
L 506.561489 128.953378 
L 511.090397 128.1777 
L 515.619305 127.605843 
L 522.035259 127.029737 
L 529.583439 126.580265 
L 538.641256 126.294035 
L 555.247253 126.09807 
L 584.685157 126.013109 
L 628.842013 126.229552 
L 737.913221 126.264926 
L 737.913221 126.264926 
" clip-path="url(#p7a96c7251d)" style="fill: none; stroke: #dd8452; stroke-opacity: 0.9; stroke-width: 3; stroke-linecap: round"/>
   </g>
   <g id="line2d_19">
    <path d="M 462.782042 126.393457 
L 463.159451 180.96558 
L 463.53686 183.942535 
L 463.914269 184.700575 
L 464.291678 184.904158 
L 465.423905 184.929778 
L 468.443177 184.740498 
L 469.197995 182.474381 
L 471.462449 175.294357 
L 473.349494 169.973223 
L 475.236539 165.21076 
L 477.500994 160.151997 
L 479.765448 155.724302 
L 482.029902 151.852428 
L 484.294356 148.463271 
L 486.55881 145.495495 
L 488.823264 142.897131 
L 491.087718 140.622033 
L 493.352173 138.629359 
L 495.994036 136.615626 
L 498.635899 134.890785 
L 501.277762 133.414885 
L 504.297034 131.989627 
L 507.316307 130.799903 
L 510.712988 129.694236 
L 514.487078 128.704564 
L 518.638577 127.866848 
L 523.544895 127.124156 
L 528.451212 126.594756 
L 535.621984 126.117624 
L 543.924982 125.78931 
L 555.247253 125.587193 
L 566.946933 125.612524 
L 615.255288 126.134139 
L 648.844691 126.219599 
L 737.913221 126.238507 
L 737.913221 126.238507 
" clip-path="url(#p7a96c7251d)" style="fill: none; stroke: #55a868; stroke-opacity: 0.9; stroke-width: 3; stroke-linecap: round"/>
   </g>
   <g id="line2d_20">
    <path d="M 462.782042 126.393457 
L 463.159451 169.282622 
L 463.53686 171.669389 
L 463.914269 172.265573 
L 464.291678 172.421959 
L 465.423905 172.439855 
L 468.443177 172.29134 
L 469.197995 170.525393 
L 471.462449 164.88107 
L 473.726903 159.914434 
L 475.991357 155.566701 
L 478.255812 151.761041 
L 480.520266 148.429403 
L 482.78472 145.512877 
L 485.049174 142.959636 
L 487.313628 140.724045 
L 489.578082 138.766719 
L 492.219946 136.78874 
L 494.861809 135.09434 
L 497.503672 133.642955 
L 500.522944 132.238243 
L 503.919625 130.930052 
L 507.316307 129.86409 
L 511.090397 128.911256 
L 515.241896 128.088662 
L 519.770804 127.412511 
L 525.43194 126.798949 
L 530.338257 126.45669 
L 539.396074 126.064478 
L 550.340936 125.825279 
L 563.172842 125.773113 
L 653.751009 126.250126 
L 737.913221 126.262022 
L 737.913221 126.262022 
" clip-path="url(#p7a96c7251d)" style="fill: none; stroke: #c44e52; stroke-opacity: 0.9; stroke-width: 3; stroke-linecap: round"/>
   </g>
   <g id="patch_6">
    <path d="M 449.025483 197.432644 
L 449.025483 81.456 
" style="fill: none; stroke: #ffffff; stroke-width: 1.25; stroke-linejoin: miter; stroke-linecap: square"/>
   </g>
   <g id="patch_7">
    <path d="M 449.025483 197.432644 
L 751.66978 197.432644 
" style="fill: none; stroke: #ffffff; stroke-width: 1.25; stroke-linejoin: miter; stroke-linecap: square"/>
   </g>
   <g id="text_5">
    <!-- 0.5~365 -->
    <g style="fill: #262626" transform="translate(545.701038 75.456) scale(0.252 -0.252)">
     <defs>
      <path id="DejaVuSans-36" d="M 2113 2584 
Q 1688 2584 1439 2293 
Q 1191 2003 1191 1497 
Q 1191 994 1439 701 
Q 1688 409 2113 409 
Q 2538 409 2786 701 
Q 3034 994 3034 1497 
Q 3034 2003 2786 2293 
Q 2538 2584 2113 2584 
z
M 3366 4563 
L 3366 3988 
Q 3128 4100 2886 4159 
Q 2644 4219 2406 4219 
Q 1781 4219 1451 3797 
Q 1122 3375 1075 2522 
Q 1259 2794 1537 2939 
Q 1816 3084 2150 3084 
Q 2853 3084 3261 2657 
Q 3669 2231 3669 1497 
Q 3669 778 3244 343 
Q 2819 -91 2113 -91 
Q 1303 -91 875 529 
Q 447 1150 447 2328 
Q 447 3434 972 4092 
Q 1497 4750 2381 4750 
Q 2619 4750 2861 4703 
Q 3103 4656 3366 4563 
z
" transform="scale(0.015625)"/>
     </defs>
     <use xlink:href="#DejaVuSans-30"/>
     <use xlink:href="#DejaVuSans-2e" x="63.623047"/>
     <use xlink:href="#DejaVuSans-35" x="95.410156"/>
     <use xlink:href="#DejaVuSans-7e" x="159.033203"/>
     <use xlink:href="#DejaVuSans-33" x="242.822266"/>
     <use xlink:href="#DejaVuSans-36" x="306.445312"/>
     <use xlink:href="#DejaVuSans-35" x="370.068359"/>
    </g>
   </g>
  </g>
  <g id="axes_3">
   <g id="patch_8">
    <path d="M 778.528337 197.432644 
L 1081.172634 197.432644 
L 1081.172634 81.456 
L 778.528337 81.456 
z
" style="fill: #eaeaf2"/>
   </g>
   <g id="matplotlib.axis_5">
    <g id="xtick_9">
     <g id="line2d_21">
      <path d="M 792.284896 197.432644 
L 792.284896 81.456 
" clip-path="url(#p3f63a3772a)" style="fill: none; stroke: #ffffff; stroke-linecap: round"/>
     </g>
    </g>
    <g id="xtick_10">
     <g id="line2d_22">
      <path d="M 886.637152 197.432644 
L 886.637152 81.456 
" clip-path="url(#p3f63a3772a)" style="fill: none; stroke: #ffffff; stroke-linecap: round"/>
     </g>
    </g>
    <g id="xtick_11">
     <g id="line2d_23">
      <path d="M 980.989409 197.432644 
L 980.989409 81.456 
" clip-path="url(#p3f63a3772a)" style="fill: none; stroke: #ffffff; stroke-linecap: round"/>
     </g>
    </g>
    <g id="xtick_12">
     <g id="line2d_24">
      <path d="M 1075.341665 197.432644 
L 1075.341665 81.456 
" clip-path="url(#p3f63a3772a)" style="fill: none; stroke: #ffffff; stroke-linecap: round"/>
     </g>
    </g>
   </g>
   <g id="matplotlib.axis_6">
    <g id="ytick_5">
     <g id="line2d_25">
      <path d="M 778.528337 191.077624 
L 1081.172634 191.077624 
" clip-path="url(#p3f63a3772a)" style="fill: none; stroke: #ffffff; stroke-linecap: round"/>
     </g>
    </g>
    <g id="ytick_6">
     <g id="line2d_26">
      <path d="M 778.528337 126.393457 
L 1081.172634 126.393457 
" clip-path="url(#p3f63a3772a)" style="fill: none; stroke: #ffffff; stroke-linecap: round"/>
     </g>
    </g>
   </g>
   <g id="PolyCollection_9"/>
   <g id="PolyCollection_10"/>
   <g id="PolyCollection_11"/>
   <g id="PolyCollection_12"/>
   <g id="line2d_27">
    <path d="M 792.284896 126.393457 
L 792.662305 178.469684 
L 793.039714 180.110936 
L 793.417123 180.36412 
L 794.171941 180.004148 
L 797.946031 177.363741 
L 799.078258 173.418311 
L 800.965303 166.875604 
L 802.852348 161.073207 
L 804.739394 155.941484 
L 806.626439 151.378274 
L 808.513484 147.472278 
L 810.400529 144.000779 
L 812.287574 140.942923 
L 814.552028 137.743748 
L 816.816482 134.96244 
L 819.080936 132.545767 
L 821.345391 130.444951 
L 822.477618 129.606066 
L 825.119481 128.139519 
L 827.761344 126.914411 
L 830.780616 125.746085 
L 833.799888 124.810833 
L 835.686934 124.359724 
L 839.838433 123.838869 
L 843.989932 123.595301 
L 852.67034 123.403346 
L 862.860383 123.364907 
L 877.579335 123.687124 
L 891.543469 124.249344 
L 907.394648 124.409876 
L 941.73887 124.494932 
L 1067.416075 124.513681 
L 1067.416075 124.513681 
" clip-path="url(#p3f63a3772a)" style="fill: none; stroke: #4c72b0; stroke-opacity: 0.9; stroke-width: 3; stroke-linecap: round"/>
   </g>
   <g id="line2d_28">
    <path d="M 792.284896 126.393457 
L 792.662305 154.796124 
L 793.039714 155.912231 
L 793.417123 156.219029 
L 794.171941 156.176431 
L 796.813804 155.310177 
L 797.946031 154.93416 
L 798.700849 153.63424 
L 801.342712 148.689486 
L 803.607166 145.01693 
L 805.871621 141.825551 
L 808.136075 139.06691 
L 810.400529 136.679207 
L 812.664983 134.691133 
L 814.929437 132.983065 
L 817.5713 131.300189 
L 820.213164 129.871719 
L 822.855027 128.67551 
L 825.874299 127.757892 
L 829.27098 126.9301 
L 833.799888 126.056088 
L 837.573979 125.534673 
L 843.989932 125.039981 
L 851.160704 124.745436 
L 865.502247 124.551423 
L 883.61788 124.703319 
L 893.053106 124.823754 
L 901.733513 124.930462 
L 1013.823994 125.121361 
L 1067.416075 125.121751 
L 1067.416075 125.121751 
" clip-path="url(#p3f63a3772a)" style="fill: none; stroke: #dd8452; stroke-opacity: 0.9; stroke-width: 3; stroke-linecap: round"/>
   </g>
   <g id="line2d_29">
    <path d="M 792.284896 126.393457 
L 792.662305 180.96558 
L 793.039714 183.736043 
L 793.417123 184.254487 
L 793.794532 184.211029 
L 794.926759 183.498209 
L 797.946031 181.423957 
L 799.078258 177.201634 
L 800.965303 170.191603 
L 802.852348 163.935985 
L 804.739394 158.378837 
L 806.626439 153.443886 
L 808.513484 149.076916 
L 810.400529 145.205042 
L 812.287574 141.778125 
L 814.174619 138.779215 
L 816.061664 136.168555 
L 818.326118 133.447722 
L 820.590573 131.099206 
L 822.100209 129.757167 
L 824.364663 128.157285 
L 826.629117 126.848278 
L 828.893571 125.792547 
L 831.535434 124.830496 
L 833.422479 124.34874 
L 836.441752 123.888421 
L 840.97066 123.459172 
L 845.876977 123.229578 
L 852.292931 123.171552 
L 858.708884 123.337119 
L 892.675696 124.490427 
L 910.413921 124.681881 
L 944.380733 124.77724 
L 1067.416075 124.795097 
L 1067.416075 124.795097 
" clip-path="url(#p3f63a3772a)" style="fill: none; stroke: #55a868; stroke-opacity: 0.9; stroke-width: 3; stroke-linecap: round"/>
   </g>
   <g id="line2d_30">
    <path d="M 792.284896 126.393457 
L 792.662305 169.282622 
L 793.039714 171.503467 
L 793.417123 171.90623 
L 793.794532 171.863173 
L 794.926759 171.284056 
L 797.946031 169.606865 
L 799.078258 166.293007 
L 801.342712 159.739474 
L 803.229757 154.924295 
L 805.116803 150.642096 
L 807.003848 146.844781 
L 808.890893 143.492483 
L 810.777938 140.525286 
L 812.664983 137.912685 
L 814.552028 135.625412 
L 816.439073 133.63458 
L 818.703527 131.565426 
L 820.967982 129.778092 
L 822.477618 128.781531 
L 824.742072 127.596751 
L 827.383935 126.468053 
L 830.025798 125.613785 
L 832.290252 125.074505 
L 836.064343 124.572491 
L 841.348069 124.167389 
L 847.386613 123.936067 
L 853.802567 123.902981 
L 867.389292 124.223517 
L 883.995289 124.641667 
L 900.223877 124.855709 
L 926.642509 124.980963 
L 999.105042 125.017525 
L 1067.416075 125.018041 
L 1067.416075 125.018041 
" clip-path="url(#p3f63a3772a)" style="fill: none; stroke: #c44e52; stroke-opacity: 0.9; stroke-width: 3; stroke-linecap: round"/>
   </g>
   <g id="patch_9">
    <path d="M 778.528337 197.432644 
L 778.528337 81.456 
" style="fill: none; stroke: #ffffff; stroke-width: 1.25; stroke-linejoin: miter; stroke-linecap: square"/>
   </g>
   <g id="patch_10">
    <path d="M 778.528337 197.432644 
L 1081.172634 197.432644 
" style="fill: none; stroke: #ffffff; stroke-width: 1.25; stroke-linejoin: miter; stroke-linecap: square"/>
   </g>
   <g id="text_6">
    <!-- 0.8~30 -->
    <g style="fill: #262626" transform="translate(883.220642 75.456) scale(0.252 -0.252)">
     <defs>
      <path id="DejaVuSans-38" d="M 2034 2216 
Q 1584 2216 1326 1975 
Q 1069 1734 1069 1313 
Q 1069 891 1326 650 
Q 1584 409 2034 409 
Q 2484 409 2743 651 
Q 3003 894 3003 1313 
Q 3003 1734 2745 1975 
Q 2488 2216 2034 2216 
z
M 1403 2484 
Q 997 2584 770 2862 
Q 544 3141 544 3541 
Q 544 4100 942 4425 
Q 1341 4750 2034 4750 
Q 2731 4750 3128 4425 
Q 3525 4100 3525 3541 
Q 3525 3141 3298 2862 
Q 3072 2584 2669 2484 
Q 3125 2378 3379 2068 
Q 3634 1759 3634 1313 
Q 3634 634 3220 271 
Q 2806 -91 2034 -91 
Q 1263 -91 848 271 
Q 434 634 434 1313 
Q 434 1759 690 2068 
Q 947 2378 1403 2484 
z
M 1172 3481 
Q 1172 3119 1398 2916 
Q 1625 2713 2034 2713 
Q 2441 2713 2670 2916 
Q 2900 3119 2900 3481 
Q 2900 3844 2670 4047 
Q 2441 4250 2034 4250 
Q 1625 4250 1398 4047 
Q 1172 3844 1172 3481 
z
" transform="scale(0.015625)"/>
     </defs>
     <use xlink:href="#DejaVuSans-30"/>
     <use xlink:href="#DejaVuSans-2e" x="63.623047"/>
     <use xlink:href="#DejaVuSans-38" x="95.410156"/>
     <use xlink:href="#DejaVuSans-7e" x="159.033203"/>
     <use xlink:href="#DejaVuSans-33" x="242.822266"/>
     <use xlink:href="#DejaVuSans-30" x="306.445312"/>
    </g>
   </g>
  </g>
  <g id="axes_4">
   <g id="patch_11">
    <path d="M 119.522628 373.284 
L 422.166926 373.284 
L 422.166926 257.307356 
L 119.522628 257.307356 
z
" style="fill: #eaeaf2"/>
   </g>
   <g id="matplotlib.axis_7">
    <g id="xtick_13">
     <g id="line2d_31">
      <path d="M 133.279187 373.284 
L 133.279187 257.307356 
" clip-path="url(#pa8854cc389)" style="fill: none; stroke: #ffffff; stroke-linecap: round"/>
     </g>
     <g id="text_7">
      <!-- 0 -->
      <g style="fill: #262626" transform="translate(125.9305 400.336391) scale(0.231 -0.231)">
       <use xlink:href="#DejaVuSans-30"/>
      </g>
     </g>
    </g>
    <g id="xtick_14">
     <g id="line2d_32">
      <path d="M 227.631444 373.284 
L 227.631444 257.307356 
" clip-path="url(#pa8854cc389)" style="fill: none; stroke: #ffffff; stroke-linecap: round"/>
     </g>
     <g id="text_8">
      <!-- 250 -->
      <g style="fill: #262626" transform="translate(205.585381 400.336391) scale(0.231 -0.231)">
       <defs>
        <path id="DejaVuSans-32" d="M 1228 531 
L 3431 531 
L 3431 0 
L 469 0 
L 469 531 
Q 828 903 1448 1529 
Q 2069 2156 2228 2338 
Q 2531 2678 2651 2914 
Q 2772 3150 2772 3378 
Q 2772 3750 2511 3984 
Q 2250 4219 1831 4219 
Q 1534 4219 1204 4116 
Q 875 4013 500 3803 
L 500 4441 
Q 881 4594 1212 4672 
Q 1544 4750 1819 4750 
Q 2544 4750 2975 4387 
Q 3406 4025 3406 3419 
Q 3406 3131 3298 2873 
Q 3191 2616 2906 2266 
Q 2828 2175 2409 1742 
Q 1991 1309 1228 531 
z
" transform="scale(0.015625)"/>
       </defs>
       <use xlink:href="#DejaVuSans-32"/>
       <use xlink:href="#DejaVuSans-35" x="63.623047"/>
       <use xlink:href="#DejaVuSans-30" x="127.246094"/>
      </g>
     </g>
    </g>
    <g id="xtick_15">
     <g id="line2d_33">
      <path d="M 321.9837 373.284 
L 321.9837 257.307356 
" clip-path="url(#pa8854cc389)" style="fill: none; stroke: #ffffff; stroke-linecap: round"/>
     </g>
     <g id="text_9">
      <!-- 500 -->
      <g style="fill: #262626" transform="translate(299.937638 400.336391) scale(0.231 -0.231)">
       <use xlink:href="#DejaVuSans-35"/>
       <use xlink:href="#DejaVuSans-30" x="63.623047"/>
       <use xlink:href="#DejaVuSans-30" x="127.246094"/>
      </g>
     </g>
    </g>
    <g id="xtick_16">
     <g id="line2d_34">
      <path d="M 416.335957 373.284 
L 416.335957 257.307356 
" clip-path="url(#pa8854cc389)" style="fill: none; stroke: #ffffff; stroke-linecap: round"/>
     </g>
     <g id="text_10">
      <!-- 750 -->
      <g style="fill: #262626" transform="translate(394.289894 400.336391) scale(0.231 -0.231)">
       <defs>
        <path id="DejaVuSans-37" d="M 525 4666 
L 3525 4666 
L 3525 4397 
L 1831 0 
L 1172 0 
L 2766 4134 
L 525 4134 
L 525 4666 
z
" transform="scale(0.015625)"/>
       </defs>
       <use xlink:href="#DejaVuSans-37"/>
       <use xlink:href="#DejaVuSans-35" x="63.623047"/>
       <use xlink:href="#DejaVuSans-30" x="127.246094"/>
      </g>
     </g>
    </g>
    <g id="text_11">
     <!-- step -->
     <g style="fill: #262626" transform="translate(243.589402 428.288531) scale(0.252 -0.252)">
      <defs>
       <path id="DejaVuSans-73" d="M 2834 3397 
L 2834 2853 
Q 2591 2978 2328 3040 
Q 2066 3103 1784 3103 
Q 1356 3103 1142 2972 
Q 928 2841 928 2578 
Q 928 2378 1081 2264 
Q 1234 2150 1697 2047 
L 1894 2003 
Q 2506 1872 2764 1633 
Q 3022 1394 3022 966 
Q 3022 478 2636 193 
Q 2250 -91 1575 -91 
Q 1294 -91 989 -36 
Q 684 19 347 128 
L 347 722 
Q 666 556 975 473 
Q 1284 391 1588 391 
Q 1994 391 2212 530 
Q 2431 669 2431 922 
Q 2431 1156 2273 1281 
Q 2116 1406 1581 1522 
L 1381 1569 
Q 847 1681 609 1914 
Q 372 2147 372 2553 
Q 372 3047 722 3315 
Q 1072 3584 1716 3584 
Q 2034 3584 2315 3537 
Q 2597 3491 2834 3397 
z
" transform="scale(0.015625)"/>
       <path id="DejaVuSans-74" d="M 1172 4494 
L 1172 3500 
L 2356 3500 
L 2356 3053 
L 1172 3053 
L 1172 1153 
Q 1172 725 1289 603 
Q 1406 481 1766 481 
L 2356 481 
L 2356 0 
L 1766 0 
Q 1100 0 847 248 
Q 594 497 594 1153 
L 594 3053 
L 172 3053 
L 172 3500 
L 594 3500 
L 594 4494 
L 1172 4494 
z
" transform="scale(0.015625)"/>
       <path id="DejaVuSans-70" d="M 1159 525 
L 1159 -1331 
L 581 -1331 
L 581 3500 
L 1159 3500 
L 1159 2969 
Q 1341 3281 1617 3432 
Q 1894 3584 2278 3584 
Q 2916 3584 3314 3078 
Q 3713 2572 3713 1747 
Q 3713 922 3314 415 
Q 2916 -91 2278 -91 
Q 1894 -91 1617 61 
Q 1341 213 1159 525 
z
M 3116 1747 
Q 3116 2381 2855 2742 
Q 2594 3103 2138 3103 
Q 1681 3103 1420 2742 
Q 1159 2381 1159 1747 
Q 1159 1113 1420 752 
Q 1681 391 2138 391 
Q 2594 391 2855 752 
Q 3116 1113 3116 1747 
z
" transform="scale(0.015625)"/>
      </defs>
      <use xlink:href="#DejaVuSans-73"/>
      <use xlink:href="#DejaVuSans-74" x="52.099609"/>
      <use xlink:href="#DejaVuSans-65" x="91.308594"/>
      <use xlink:href="#DejaVuSans-70" x="152.832031"/>
     </g>
    </g>
   </g>
   <g id="matplotlib.axis_8">
    <g id="ytick_7">
     <g id="line2d_35">
      <path d="M 119.522628 366.92898 
L 422.166926 366.92898 
" clip-path="url(#pa8854cc389)" style="fill: none; stroke: #ffffff; stroke-linecap: round"/>
     </g>
     <g id="text_12">
      <!-- −1 -->
      <g style="fill: #262626" transform="translate(75.968175 375.705175) scale(0.231 -0.231)">
       <use xlink:href="#DejaVuSans-2212"/>
       <use xlink:href="#DejaVuSans-31" x="83.789062"/>
      </g>
     </g>
    </g>
    <g id="ytick_8">
     <g id="line2d_36">
      <path d="M 119.522628 302.244813 
L 422.166926 302.244813 
" clip-path="url(#pa8854cc389)" style="fill: none; stroke: #ffffff; stroke-linecap: round"/>
     </g>
     <g id="text_13">
      <!-- 0 -->
      <g style="fill: #262626" transform="translate(95.325253 311.021008) scale(0.231 -0.231)">
       <use xlink:href="#DejaVuSans-30"/>
      </g>
     </g>
    </g>
    <g id="text_14">
     <!-- % change -->
     <g style="fill: #262626" transform="translate(66.727363 377.644022) rotate(-90) scale(0.252 -0.252)">
      <use xlink:href="#DejaVuSans-25"/>
      <use xlink:href="#DejaVuSans-20" x="95.019531"/>
      <use xlink:href="#DejaVuSans-63" x="126.806641"/>
      <use xlink:href="#DejaVuSans-68" x="181.787109"/>
      <use xlink:href="#DejaVuSans-61" x="245.166016"/>
      <use xlink:href="#DejaVuSans-6e" x="306.445312"/>
      <use xlink:href="#DejaVuSans-67" x="369.824219"/>
      <use xlink:href="#DejaVuSans-65" x="433.300781"/>
     </g>
    </g>
   </g>
   <g id="PolyCollection_13"/>
   <g id="PolyCollection_14"/>
   <g id="PolyCollection_15"/>
   <g id="PolyCollection_16"/>
   <g id="line2d_37">
    <path d="M 133.279187 302.244813 
L 133.656597 354.321039 
L 134.034006 356.17197 
L 134.411415 356.667367 
L 135.166233 356.807697 
L 138.940323 356.59316 
L 139.695141 354.504354 
L 141.959595 347.815751 
L 143.84664 342.864344 
L 145.733685 338.434332 
L 147.998139 333.729172 
L 150.262594 329.611391 
L 152.527048 326.008059 
L 154.791502 322.853852 
L 157.055956 320.092576 
L 159.32041 317.675089 
L 161.584864 315.558363 
L 164.226728 313.419251 
L 166.868591 311.588189 
L 169.510454 310.022855 
L 172.529726 308.508775 
L 175.548998 307.239274 
L 178.568271 306.187983 
L 182.342361 305.132514 
L 186.49386 304.223041 
L 191.400177 303.396271 
L 197.061313 302.692744 
L 202.345039 302.254481 
L 208.006175 301.985714 
L 219.705854 301.691974 
L 235.557033 301.537261 
L 252.917849 301.564109 
L 268.769028 301.817428 
L 291.413569 301.941206 
L 336.325243 302.019417 
L 408.410367 302.047345 
L 408.410367 302.047345 
" clip-path="url(#pa8854cc389)" style="fill: none; stroke: #4c72b0; stroke-opacity: 0.9; stroke-width: 3; stroke-linecap: round"/>
   </g>
   <g id="line2d_38">
    <path d="M 133.279187 302.244813 
L 133.656597 330.64748 
L 134.034006 331.860699 
L 134.411415 332.280905 
L 135.166233 332.477095 
L 137.430687 332.445717 
L 138.940323 332.400776 
L 139.695141 331.332159 
L 142.714413 326.514244 
L 144.978867 323.391351 
L 147.243321 320.659998 
L 149.507776 318.269787 
L 151.77223 316.177678 
L 154.414093 314.064265 
L 157.055956 312.254886 
L 159.697819 310.705848 
L 162.717091 309.206484 
L 165.736364 307.950761 
L 169.133045 306.77951 
L 172.907135 305.723741 
L 177.058634 304.804734 
L 181.587543 304.029056 
L 186.116451 303.457199 
L 192.532405 302.881092 
L 200.080585 302.431621 
L 209.138402 302.14539 
L 225.744399 301.949426 
L 255.182303 301.864465 
L 299.339159 302.080908 
L 408.410367 302.116281 
L 408.410367 302.116281 
" clip-path="url(#pa8854cc389)" style="fill: none; stroke: #dd8452; stroke-opacity: 0.9; stroke-width: 3; stroke-linecap: round"/>
   </g>
   <g id="line2d_39">
    <path d="M 133.279187 302.244813 
L 133.656597 356.816936 
L 134.034006 359.793891 
L 134.411415 360.55193 
L 134.788824 360.755513 
L 135.921051 360.781133 
L 138.940323 360.591853 
L 139.695141 358.325737 
L 141.959595 351.145713 
L 143.84664 345.824579 
L 145.733685 341.062116 
L 147.998139 336.003352 
L 150.262594 331.575658 
L 152.527048 327.703783 
L 154.791502 324.314627 
L 157.055956 321.34685 
L 159.32041 318.748487 
L 161.584864 316.473389 
L 163.849319 314.480715 
L 166.491182 312.466982 
L 169.133045 310.742141 
L 171.774908 309.26624 
L 174.79418 307.840983 
L 177.813453 306.651258 
L 181.210134 305.545592 
L 184.984224 304.55592 
L 189.135723 303.718203 
L 194.042041 302.975512 
L 198.948358 302.446112 
L 206.119129 301.96898 
L 214.422128 301.640666 
L 225.744399 301.438549 
L 237.444079 301.463879 
L 285.752434 301.985495 
L 319.341837 302.070955 
L 408.410367 302.089862 
L 408.410367 302.089862 
" clip-path="url(#pa8854cc389)" style="fill: none; stroke: #55a868; stroke-opacity: 0.9; stroke-width: 3; stroke-linecap: round"/>
   </g>
   <g id="line2d_40">
    <path d="M 133.279187 302.244813 
L 133.656597 345.133978 
L 134.034006 347.520745 
L 134.411415 348.116929 
L 134.788824 348.273315 
L 135.921051 348.291211 
L 138.940323 348.142695 
L 139.695141 346.376749 
L 141.959595 340.732426 
L 144.224049 335.76579 
L 146.488503 331.418057 
L 148.752958 327.612397 
L 151.017412 324.280759 
L 153.281866 321.364233 
L 155.54632 318.810992 
L 157.810774 316.575401 
L 160.075228 314.618074 
L 162.717091 312.640096 
L 165.358955 310.945696 
L 168.000818 309.494311 
L 171.02009 308.089599 
L 174.416771 306.781407 
L 177.813453 305.715446 
L 181.587543 304.762611 
L 185.739042 303.940018 
L 190.26795 303.263867 
L 195.929086 302.650305 
L 200.835403 302.308046 
L 209.89322 301.915834 
L 220.838081 301.676634 
L 233.669988 301.624468 
L 324.248154 302.101481 
L 408.410367 302.113377 
L 408.410367 302.113377 
" clip-path="url(#pa8854cc389)" style="fill: none; stroke: #c44e52; stroke-opacity: 0.9; stroke-width: 3; stroke-linecap: round"/>
   </g>
   <g id="patch_12">
    <path d="M 119.522628 373.284 
L 119.522628 257.307356 
" style="fill: none; stroke: #ffffff; stroke-width: 1.25; stroke-linejoin: miter; stroke-linecap: square"/>
   </g>
   <g id="patch_13">
    <path d="M 119.522628 373.284 
L 422.166926 373.284 
" style="fill: none; stroke: #ffffff; stroke-width: 1.25; stroke-linejoin: miter; stroke-linecap: square"/>
   </g>
   <g id="text_15">
    <!-- 0.8~365 -->
    <g style="fill: #262626" transform="translate(216.198184 251.307356) scale(0.252 -0.252)">
     <use xlink:href="#DejaVuSans-30"/>
     <use xlink:href="#DejaVuSans-2e" x="63.623047"/>
     <use xlink:href="#DejaVuSans-38" x="95.410156"/>
     <use xlink:href="#DejaVuSans-7e" x="159.033203"/>
     <use xlink:href="#DejaVuSans-33" x="242.822266"/>
     <use xlink:href="#DejaVuSans-36" x="306.445312"/>
     <use xlink:href="#DejaVuSans-35" x="370.068359"/>
    </g>
   </g>
  </g>
  <g id="axes_5">
   <g id="patch_14">
    <path d="M 449.025483 373.284 
L 751.66978 373.284 
L 751.66978 257.307356 
L 449.025483 257.307356 
z
" style="fill: #eaeaf2"/>
   </g>
   <g id="matplotlib.axis_9">
    <g id="xtick_17">
     <g id="line2d_41">
      <path d="M 462.782042 373.284 
L 462.782042 257.307356 
" clip-path="url(#p6eec0705b2)" style="fill: none; stroke: #ffffff; stroke-linecap: round"/>
     </g>
     <g id="text_16">
      <!-- 0 -->
      <g style="fill: #262626" transform="translate(455.433354 400.336391) scale(0.231 -0.231)">
       <use xlink:href="#DejaVuSans-30"/>
      </g>
     </g>
    </g>
    <g id="xtick_18">
     <g id="line2d_42">
      <path d="M 557.134298 373.284 
L 557.134298 257.307356 
" clip-path="url(#p6eec0705b2)" style="fill: none; stroke: #ffffff; stroke-linecap: round"/>
     </g>
     <g id="text_17">
      <!-- 250 -->
      <g style="fill: #262626" transform="translate(535.088235 400.336391) scale(0.231 -0.231)">
       <use xlink:href="#DejaVuSans-32"/>
       <use xlink:href="#DejaVuSans-35" x="63.623047"/>
       <use xlink:href="#DejaVuSans-30" x="127.246094"/>
      </g>
     </g>
    </g>
    <g id="xtick_19">
     <g id="line2d_43">
      <path d="M 651.486554 373.284 
L 651.486554 257.307356 
" clip-path="url(#p6eec0705b2)" style="fill: none; stroke: #ffffff; stroke-linecap: round"/>
     </g>
     <g id="text_18">
      <!-- 500 -->
      <g style="fill: #262626" transform="translate(629.440492 400.336391) scale(0.231 -0.231)">
       <use xlink:href="#DejaVuSans-35"/>
       <use xlink:href="#DejaVuSans-30" x="63.623047"/>
       <use xlink:href="#DejaVuSans-30" x="127.246094"/>
      </g>
     </g>
    </g>
    <g id="xtick_20">
     <g id="line2d_44">
      <path d="M 745.838811 373.284 
L 745.838811 257.307356 
" clip-path="url(#p6eec0705b2)" style="fill: none; stroke: #ffffff; stroke-linecap: round"/>
     </g>
     <g id="text_19">
      <!-- 750 -->
      <g style="fill: #262626" transform="translate(723.792748 400.336391) scale(0.231 -0.231)">
       <use xlink:href="#DejaVuSans-37"/>
       <use xlink:href="#DejaVuSans-35" x="63.623047"/>
       <use xlink:href="#DejaVuSans-30" x="127.246094"/>
      </g>
     </g>
    </g>
    <g id="text_20">
     <!-- step -->
     <g style="fill: #262626" transform="translate(573.092256 428.288531) scale(0.252 -0.252)">
      <use xlink:href="#DejaVuSans-73"/>
      <use xlink:href="#DejaVuSans-74" x="52.099609"/>
      <use xlink:href="#DejaVuSans-65" x="91.308594"/>
      <use xlink:href="#DejaVuSans-70" x="152.832031"/>
     </g>
    </g>
   </g>
   <g id="matplotlib.axis_10">
    <g id="ytick_9">
     <g id="line2d_45">
      <path d="M 449.025483 366.92898 
L 751.66978 366.92898 
" clip-path="url(#p6eec0705b2)" style="fill: none; stroke: #ffffff; stroke-linecap: round"/>
     </g>
    </g>
    <g id="ytick_10">
     <g id="line2d_46">
      <path d="M 449.025483 302.244813 
L 751.66978 302.244813 
" clip-path="url(#p6eec0705b2)" style="fill: none; stroke: #ffffff; stroke-linecap: round"/>
     </g>
    </g>
   </g>
   <g id="PolyCollection_17"/>
   <g id="PolyCollection_18"/>
   <g id="PolyCollection_19"/>
   <g id="PolyCollection_20"/>
   <g id="line2d_47">
    <path d="M 462.782042 302.244813 
L 463.159451 354.321039 
L 463.53686 355.962292 
L 463.914269 356.215476 
L 464.669087 355.855503 
L 465.801314 355.131707 
L 468.443177 354.217506 
L 469.197995 351.935992 
L 469.575404 350.688552 
L 470.330222 349.122325 
L 471.462449 347.859066 
L 471.839858 347.512294 
L 472.594676 347.636449 
L 474.481721 348.268392 
L 475.991357 349.502598 
L 478.255812 350.775397 
L 479.388039 351.01664 
L 480.520266 350.95718 
L 482.407311 350.61344 
L 488.823264 350.305602 
L 491.465128 349.948363 
L 494.106991 349.366658 
L 496.748854 348.572543 
L 499.390717 347.563447 
L 502.409989 346.169351 
L 505.429261 344.538768 
L 508.825943 342.435318 
L 512.222624 340.060013 
L 515.996714 337.152664 
L 520.525623 333.371931 
L 526.564167 328.002034 
L 530.338257 324.701099 
L 531.847893 323.831998 
L 534.867165 322.557671 
L 537.886438 321.457293 
L 548.45389 317.973011 
L 556.756889 315.982028 
L 572.230659 312.275359 
L 579.024021 310.283499 
L 585.439975 308.172997 
L 592.233337 305.701986 
L 599.404109 302.857726 
L 609.216744 298.692638 
L 619.406787 294.095329 
L 645.44801 282.202489 
L 654.128418 278.605332 
L 657.525099 277.369082 
L 662.054007 275.932759 
L 667.337733 274.599669 
L 674.885914 272.878266 
L 678.282595 272.310493 
L 682.056685 271.909795 
L 685.453367 271.714757 
L 694.133774 271.414567 
L 696.775637 271.429158 
L 705.833454 271.737829 
L 719.797588 271.945528 
L 737.913221 272.040047 
L 737.913221 272.040047 
" clip-path="url(#p6eec0705b2)" style="fill: none; stroke: #4c72b0; stroke-opacity: 0.9; stroke-width: 3; stroke-linecap: round"/>
   </g>
   <g id="line2d_48">
    <path d="M 462.782042 302.244813 
L 463.159451 330.64748 
L 463.53686 331.763587 
L 463.914269 332.070385 
L 464.669087 332.027786 
L 468.443177 330.95822 
L 469.197995 329.762974 
L 471.08504 326.412104 
L 471.839858 325.626721 
L 472.972085 324.965447 
L 474.481721 324.88234 
L 475.991357 324.980033 
L 477.500994 325.432922 
L 480.142857 325.823618 
L 481.652493 325.701916 
L 483.539538 325.265406 
L 484.671765 325.06795 
L 491.842537 324.084538 
L 495.994036 323.251326 
L 499.768126 322.267118 
L 503.919625 320.934953 
L 508.071125 319.358637 
L 512.222624 317.539269 
L 516.374123 315.459956 
L 522.035259 312.327733 
L 532.225302 306.624443 
L 534.112347 305.920357 
L 535.621984 305.516359 
L 537.886438 305.090542 
L 543.924982 304.214697 
L 546.944254 303.957179 
L 552.227981 303.948727 
L 558.266525 304.199375 
L 562.418024 304.592561 
L 569.211387 305.491313 
L 579.024021 307.030602 
L 587.32702 308.293817 
L 594.497792 309.166326 
L 602.045972 309.851939 
L 608.461925 310.218435 
L 614.877879 310.358804 
L 620.916423 310.263648 
L 626.577559 309.965991 
L 631.861285 309.449915 
L 636.767602 308.757978 
L 641.67392 307.831481 
L 646.580237 306.674751 
L 651.486554 305.299219 
L 656.392872 303.714435 
L 661.676598 301.773703 
L 667.715143 299.307325 
L 676.39555 295.460283 
L 682.434095 292.468354 
L 693.001547 286.916292 
L 704.323818 280.477728 
L 720.174997 271.464911 
L 726.590951 267.981095 
L 732.629495 264.945186 
L 736.780994 263.063531 
L 737.913221 262.579021 
L 737.913221 262.579021 
" clip-path="url(#p6eec0705b2)" style="fill: none; stroke: #dd8452; stroke-opacity: 0.9; stroke-width: 3; stroke-linecap: round"/>
   </g>
   <g id="line2d_49">
    <path d="M 462.782042 302.244813 
L 463.159451 356.816936 
L 463.53686 359.587398 
L 463.914269 360.105843 
L 464.291678 360.062385 
L 465.423905 359.353208 
L 466.556132 358.682995 
L 467.688359 358.225219 
L 468.443177 358.007997 
L 469.575404 354.266937 
L 471.462449 348.138188 
L 473.349494 342.868321 
L 474.85913 339.226527 
L 475.991357 336.991256 
L 477.123585 335.365845 
L 477.878403 334.597278 
L 478.633221 334.06999 
L 480.520266 333.106161 
L 482.029902 332.687197 
L 486.55881 331.848251 
L 492.219946 331.667194 
L 501.277762 331.003961 
L 506.18408 330.330814 
L 510.712988 329.48165 
L 515.241896 328.411604 
L 520.525623 326.934702 
L 526.941576 324.889691 
L 533.734938 322.47771 
L 542.037937 319.284209 
L 552.982799 315.04837 
L 560.908388 312.356803 
L 569.966205 309.541542 
L 584.307748 305.39861 
L 595.630019 302.326754 
L 603.933017 300.296958 
L 610.348971 298.940897 
L 620.539014 297.055762 
L 626.577559 296.141564 
L 634.503148 295.199627 
L 644.693192 294.211703 
L 652.618781 293.669661 
L 666.582915 292.936272 
L 683.943731 292.323032 
L 705.456045 291.759622 
L 728.100587 291.425892 
L 737.913221 291.33224 
L 737.913221 291.33224 
" clip-path="url(#p6eec0705b2)" style="fill: none; stroke: #55a868; stroke-opacity: 0.9; stroke-width: 3; stroke-linecap: round"/>
   </g>
   <g id="line2d_50">
    <path d="M 462.782042 302.244813 
L 463.159451 345.133978 
L 463.53686 347.354823 
L 463.914269 347.757585 
L 464.291678 347.71499 
L 465.801314 346.955331 
L 467.688359 346.085692 
L 468.443177 345.81308 
L 469.575404 342.804565 
L 471.462449 337.905545 
L 472.972085 334.480326 
L 474.481721 331.505984 
L 475.613948 329.624086 
L 476.746176 328.190022 
L 477.500994 327.454567 
L 478.633221 326.81435 
L 480.520266 326.114444 
L 483.162129 325.59104 
L 486.181401 325.179971 
L 502.03258 324.044108 
L 508.071125 323.393325 
L 514.864487 322.436862 
L 521.280441 321.311554 
L 527.318985 320.01455 
L 533.734938 318.415484 
L 542.037937 316.095965 
L 556.002071 312.165411 
L 565.437297 309.726251 
L 576.759567 307.026063 
L 588.081838 304.573739 
L 598.271882 302.600231 
L 608.461925 300.951001 
L 618.27456 299.576526 
L 629.596831 298.234727 
L 637.899829 297.449273 
L 647.712464 296.787905 
L 663.563643 295.977122 
L 681.301867 295.285212 
L 693.378956 295.009913 
L 719.420179 294.589002 
L 737.913221 294.361901 
L 737.913221 294.361901 
" clip-path="url(#p6eec0705b2)" style="fill: none; stroke: #c44e52; stroke-opacity: 0.9; stroke-width: 3; stroke-linecap: round"/>
   </g>
   <g id="patch_15">
    <path d="M 449.025483 373.284 
L 449.025483 257.307356 
" style="fill: none; stroke: #ffffff; stroke-width: 1.25; stroke-linejoin: miter; stroke-linecap: square"/>
   </g>
   <g id="patch_16">
    <path d="M 449.025483 373.284 
L 751.66978 373.284 
" style="fill: none; stroke: #ffffff; stroke-width: 1.25; stroke-linejoin: miter; stroke-linecap: square"/>
   </g>
   <g id="text_21">
    <!-- 0.999~30 -->
    <g style="fill: #262626" transform="translate(537.684288 251.307356) scale(0.252 -0.252)">
     <defs>
      <path id="DejaVuSans-39" d="M 703 97 
L 703 672 
Q 941 559 1184 500 
Q 1428 441 1663 441 
Q 2288 441 2617 861 
Q 2947 1281 2994 2138 
Q 2813 1869 2534 1725 
Q 2256 1581 1919 1581 
Q 1219 1581 811 2004 
Q 403 2428 403 3163 
Q 403 3881 828 4315 
Q 1253 4750 1959 4750 
Q 2769 4750 3195 4129 
Q 3622 3509 3622 2328 
Q 3622 1225 3098 567 
Q 2575 -91 1691 -91 
Q 1453 -91 1209 -44 
Q 966 3 703 97 
z
M 1959 2075 
Q 2384 2075 2632 2365 
Q 2881 2656 2881 3163 
Q 2881 3666 2632 3958 
Q 2384 4250 1959 4250 
Q 1534 4250 1286 3958 
Q 1038 3666 1038 3163 
Q 1038 2656 1286 2365 
Q 1534 2075 1959 2075 
z
" transform="scale(0.015625)"/>
     </defs>
     <use xlink:href="#DejaVuSans-30"/>
     <use xlink:href="#DejaVuSans-2e" x="63.623047"/>
     <use xlink:href="#DejaVuSans-39" x="95.410156"/>
     <use xlink:href="#DejaVuSans-39" x="159.033203"/>
     <use xlink:href="#DejaVuSans-39" x="222.65625"/>
     <use xlink:href="#DejaVuSans-7e" x="286.279297"/>
     <use xlink:href="#DejaVuSans-33" x="370.068359"/>
     <use xlink:href="#DejaVuSans-30" x="433.691406"/>
    </g>
   </g>
  </g>
  <g id="axes_6">
   <g id="patch_17">
    <path d="M 778.528337 373.284 
L 1081.172634 373.284 
L 1081.172634 257.307356 
L 778.528337 257.307356 
z
" style="fill: #eaeaf2"/>
   </g>
   <g id="matplotlib.axis_11">
    <g id="xtick_21">
     <g id="line2d_51">
      <path d="M 792.284896 373.284 
L 792.284896 257.307356 
" clip-path="url(#p0ae34a1289)" style="fill: none; stroke: #ffffff; stroke-linecap: round"/>
     </g>
     <g id="text_22">
      <!-- 0 -->
      <g style="fill: #262626" transform="translate(784.936208 400.336391) scale(0.231 -0.231)">
       <use xlink:href="#DejaVuSans-30"/>
      </g>
     </g>
    </g>
    <g id="xtick_22">
     <g id="line2d_52">
      <path d="M 886.637152 373.284 
L 886.637152 257.307356 
" clip-path="url(#p0ae34a1289)" style="fill: none; stroke: #ffffff; stroke-linecap: round"/>
     </g>
     <g id="text_23">
      <!-- 250 -->
      <g style="fill: #262626" transform="translate(864.59109 400.336391) scale(0.231 -0.231)">
       <use xlink:href="#DejaVuSans-32"/>
       <use xlink:href="#DejaVuSans-35" x="63.623047"/>
       <use xlink:href="#DejaVuSans-30" x="127.246094"/>
      </g>
     </g>
    </g>
    <g id="xtick_23">
     <g id="line2d_53">
      <path d="M 980.989409 373.284 
L 980.989409 257.307356 
" clip-path="url(#p0ae34a1289)" style="fill: none; stroke: #ffffff; stroke-linecap: round"/>
     </g>
     <g id="text_24">
      <!-- 500 -->
      <g style="fill: #262626" transform="translate(958.943346 400.336391) scale(0.231 -0.231)">
       <use xlink:href="#DejaVuSans-35"/>
       <use xlink:href="#DejaVuSans-30" x="63.623047"/>
       <use xlink:href="#DejaVuSans-30" x="127.246094"/>
      </g>
     </g>
    </g>
    <g id="xtick_24">
     <g id="line2d_54">
      <path d="M 1075.341665 373.284 
L 1075.341665 257.307356 
" clip-path="url(#p0ae34a1289)" style="fill: none; stroke: #ffffff; stroke-linecap: round"/>
     </g>
     <g id="text_25">
      <!-- 750 -->
      <g style="fill: #262626" transform="translate(1053.295602 400.336391) scale(0.231 -0.231)">
       <use xlink:href="#DejaVuSans-37"/>
       <use xlink:href="#DejaVuSans-35" x="63.623047"/>
       <use xlink:href="#DejaVuSans-30" x="127.246094"/>
      </g>
     </g>
    </g>
    <g id="text_26">
     <!-- step -->
     <g style="fill: #262626" transform="translate(902.595111 428.288531) scale(0.252 -0.252)">
      <use xlink:href="#DejaVuSans-73"/>
      <use xlink:href="#DejaVuSans-74" x="52.099609"/>
      <use xlink:href="#DejaVuSans-65" x="91.308594"/>
      <use xlink:href="#DejaVuSans-70" x="152.832031"/>
     </g>
    </g>
   </g>
   <g id="matplotlib.axis_12">
    <g id="ytick_11">
     <g id="line2d_55">
      <path d="M 778.528337 366.92898 
L 1081.172634 366.92898 
" clip-path="url(#p0ae34a1289)" style="fill: none; stroke: #ffffff; stroke-linecap: round"/>
     </g>
    </g>
    <g id="ytick_12">
     <g id="line2d_56">
      <path d="M 778.528337 302.244813 
L 1081.172634 302.244813 
" clip-path="url(#p0ae34a1289)" style="fill: none; stroke: #ffffff; stroke-linecap: round"/>
     </g>
    </g>
   </g>
   <g id="PolyCollection_21"/>
   <g id="PolyCollection_22"/>
   <g id="PolyCollection_23"/>
   <g id="PolyCollection_24"/>
   <g id="line2d_57">
    <path d="M 792.284896 302.244813 
L 792.662305 354.321039 
L 793.039714 356.17197 
L 793.417123 356.667367 
L 794.171941 356.807697 
L 795.304168 356.835126 
L 797.946031 357.647232 
L 798.700849 355.913884 
L 799.078258 354.90744 
L 799.455667 354.26967 
L 799.833076 353.851938 
L 800.587894 353.519591 
L 801.720121 353.204569 
L 802.09753 353.43677 
L 804.361984 356.182665 
L 805.871621 358.507575 
L 807.003848 359.991691 
L 809.268302 362.381704 
L 810.400529 363.348998 
L 811.532756 364.058261 
L 812.664983 364.532931 
L 813.79721 364.794455 
L 815.306846 365.066963 
L 819.080936 365.785848 
L 827.383935 367.461978 
L 830.780616 367.875698 
L 833.799888 368.012334 
L 836.441752 367.928629 
L 839.083615 367.648786 
L 842.102887 367.105305 
L 844.74475 366.429026 
L 847.764022 365.410553 
L 850.783295 364.13771 
L 853.802567 362.615532 
L 857.199248 360.631768 
L 860.973338 358.134599 
L 865.124838 355.091336 
L 870.031155 351.18949 
L 877.201926 345.161652 
L 881.730835 341.436708 
L 883.240471 340.434283 
L 890.788651 336.014904 
L 902.110922 331.630225 
L 908.149467 329.394332 
L 912.678375 328.096216 
L 921.358782 325.839715 
L 929.284372 324.101324 
L 940.606643 322.020183 
L 974.950864 315.687483 
L 992.311679 312.216797 
L 1011.936949 308.052513 
L 1050.432669 299.80533 
L 1053.82935 299.398449 
L 1062.509758 298.748062 
L 1067.416075 298.837107 
L 1067.416075 298.837107 
" clip-path="url(#p0ae34a1289)" style="fill: none; stroke: #4c72b0; stroke-opacity: 0.9; stroke-width: 3; stroke-linecap: round"/>
   </g>
   <g id="line2d_58">
    <path d="M 792.284896 302.244813 
L 792.662305 330.64748 
L 793.039714 331.860699 
L 793.417123 332.280905 
L 794.171941 332.477095 
L 797.946031 332.594393 
L 798.700849 331.639713 
L 800.587894 328.858669 
L 800.965303 328.565003 
L 801.720121 328.316226 
L 802.852348 328.093794 
L 803.607166 328.345477 
L 805.494212 329.365985 
L 807.003848 330.472036 
L 808.513484 331.367316 
L 810.777938 332.386767 
L 812.287574 332.865909 
L 813.79721 333.137926 
L 815.684255 333.224731 
L 824.742072 333.030241 
L 831.158025 332.937792 
L 835.309525 332.669568 
L 839.461024 332.171099 
L 843.612523 331.42813 
L 847.764022 330.44533 
L 851.915522 329.222804 
L 856.067021 327.775712 
L 860.595929 325.955674 
L 865.502247 323.740473 
L 885.504925 314.401709 
L 888.146788 313.639674 
L 891.920878 312.823399 
L 895.694969 312.18687 
L 905.130194 310.948063 
L 924.000646 308.743899 
L 934.190689 308.07447 
L 965.515638 306.616948 
L 993.821315 305.177085 
L 1014.956221 303.855342 
L 1037.600762 302.426646 
L 1056.471214 301.570631 
L 1067.416075 301.212989 
L 1067.416075 301.212989 
" clip-path="url(#p0ae34a1289)" style="fill: none; stroke: #dd8452; stroke-opacity: 0.9; stroke-width: 3; stroke-linecap: round"/>
   </g>
   <g id="line2d_59">
    <path d="M 792.284896 302.244813 
L 792.662305 356.816936 
L 793.039714 359.793891 
L 793.417123 360.55193 
L 793.794532 360.755513 
L 794.926759 360.784845 
L 796.058986 360.825333 
L 797.191213 361.062143 
L 797.946031 361.293555 
L 798.700849 359.331912 
L 800.587894 354.134245 
L 802.09753 350.511936 
L 803.984575 346.623894 
L 805.116803 344.669139 
L 806.24903 343.192157 
L 807.381257 342.137339 
L 808.513484 341.444353 
L 809.268302 341.171695 
L 810.400529 341.031442 
L 813.79721 340.91768 
L 820.590573 341.178512 
L 822.855027 341.425634 
L 827.761344 342.002902 
L 832.290252 342.302619 
L 837.19657 342.503432 
L 841.348069 342.450963 
L 845.122159 342.199601 
L 848.89625 341.757244 
L 852.67034 341.108511 
L 856.821839 340.174525 
L 861.350747 338.924128 
L 866.257065 337.325622 
L 871.9182 335.229707 
L 878.711563 332.467177 
L 888.524197 328.202422 
L 911.168739 318.291996 
L 917.584692 315.848692 
L 924.378055 313.51668 
L 931.926235 311.18599 
L 939.474416 309.078226 
L 948.154823 306.924037 
L 955.703004 305.265229 
L 962.873775 303.906328 
L 969.667138 302.853367 
L 975.705682 302.126183 
L 981.366818 301.678021 
L 987.027953 301.464397 
L 994.576133 301.404135 
L 1035.336308 301.104867 
L 1067.416075 301.130082 
L 1067.416075 301.130082 
" clip-path="url(#p0ae34a1289)" style="fill: none; stroke: #55a868; stroke-opacity: 0.9; stroke-width: 3; stroke-linecap: round"/>
   </g>
   <g id="line2d_60">
    <path d="M 792.284896 302.244813 
L 792.662305 345.133978 
L 793.039714 347.520745 
L 793.417123 348.116929 
L 793.794532 348.273755 
L 795.304168 348.307053 
L 797.568622 348.429947 
L 797.946031 348.480995 
L 798.700849 346.896397 
L 800.587894 342.719554 
L 802.09753 339.815057 
L 803.607166 337.361147 
L 805.116803 335.312598 
L 806.24903 334.1579 
L 807.381257 333.355876 
L 808.513484 332.877848 
L 809.645711 332.672206 
L 813.79721 332.703211 
L 818.326118 332.957346 
L 822.855027 333.12702 
L 830.403207 333.542574 
L 837.573979 333.816092 
L 842.102887 333.79 
L 846.631795 333.536094 
L 851.538113 333.027213 
L 856.067021 332.348794 
L 860.595929 331.452017 
L 865.879656 330.162172 
L 871.9182 328.424589 
L 878.711563 326.222862 
L 889.656424 322.39959 
L 914.56542 313.67748 
L 921.358782 311.601157 
L 929.661781 309.289609 
L 937.587371 307.325149 
L 944.380733 305.865494 
L 951.174095 304.619688 
L 959.854503 303.273872 
L 966.647866 302.431641 
L 973.441228 301.831381 
L 981.366818 301.362691 
L 988.914998 301.149008 
L 997.217997 301.147806 
L 1014.956221 301.419536 
L 1067.416075 301.369893 
L 1067.416075 301.369893 
" clip-path="url(#p0ae34a1289)" style="fill: none; stroke: #c44e52; stroke-opacity: 0.9; stroke-width: 3; stroke-linecap: round"/>
   </g>
   <g id="patch_18">
    <path d="M 778.528337 373.284 
L 778.528337 257.307356 
" style="fill: none; stroke: #ffffff; stroke-width: 1.25; stroke-linejoin: miter; stroke-linecap: square"/>
   </g>
   <g id="patch_19">
    <path d="M 778.528337 373.284 
L 1081.172634 373.284 
" style="fill: none; stroke: #ffffff; stroke-width: 1.25; stroke-linejoin: miter; stroke-linecap: square"/>
   </g>
   <g id="text_27">
    <!-- 0.999~365 -->
    <g style="fill: #262626" transform="translate(859.170392 251.307356) scale(0.252 -0.252)">
     <use xlink:href="#DejaVuSans-30"/>
     <use xlink:href="#DejaVuSans-2e" x="63.623047"/>
     <use xlink:href="#DejaVuSans-39" x="95.410156"/>
     <use xlink:href="#DejaVuSans-39" x="159.033203"/>
     <use xlink:href="#DejaVuSans-39" x="222.65625"/>
     <use xlink:href="#DejaVuSans-7e" x="286.279297"/>
     <use xlink:href="#DejaVuSans-33" x="370.068359"/>
     <use xlink:href="#DejaVuSans-36" x="433.691406"/>
     <use xlink:href="#DejaVuSans-35" x="497.314453"/>
    </g>
   </g>
  </g>
  <g id="text_28">
   <!-- Production change from pre-shock level -->
   <g style="fill: #262626" transform="translate(248.820797 30.177675) scale(0.3024 -0.3024)">
    <defs>
     <path id="DejaVuSans-50" d="M 1259 4147 
L 1259 2394 
L 2053 2394 
Q 2494 2394 2734 2622 
Q 2975 2850 2975 3272 
Q 2975 3691 2734 3919 
Q 2494 4147 2053 4147 
L 1259 4147 
z
M 628 4666 
L 2053 4666 
Q 2838 4666 3239 4311 
Q 3641 3956 3641 3272 
Q 3641 2581 3239 2228 
Q 2838 1875 2053 1875 
L 1259 1875 
L 1259 0 
L 628 0 
L 628 4666 
z
" transform="scale(0.015625)"/>
     <path id="DejaVuSans-72" d="M 2631 2963 
Q 2534 3019 2420 3045 
Q 2306 3072 2169 3072 
Q 1681 3072 1420 2755 
Q 1159 2438 1159 1844 
L 1159 0 
L 581 0 
L 581 3500 
L 1159 3500 
L 1159 2956 
Q 1341 3275 1631 3429 
Q 1922 3584 2338 3584 
Q 2397 3584 2469 3576 
Q 2541 3569 2628 3553 
L 2631 2963 
z
" transform="scale(0.015625)"/>
     <path id="DejaVuSans-6f" d="M 1959 3097 
Q 1497 3097 1228 2736 
Q 959 2375 959 1747 
Q 959 1119 1226 758 
Q 1494 397 1959 397 
Q 2419 397 2687 759 
Q 2956 1122 2956 1747 
Q 2956 2369 2687 2733 
Q 2419 3097 1959 3097 
z
M 1959 3584 
Q 2709 3584 3137 3096 
Q 3566 2609 3566 1747 
Q 3566 888 3137 398 
Q 2709 -91 1959 -91 
Q 1206 -91 779 398 
Q 353 888 353 1747 
Q 353 2609 779 3096 
Q 1206 3584 1959 3584 
z
" transform="scale(0.015625)"/>
     <path id="DejaVuSans-64" d="M 2906 2969 
L 2906 4863 
L 3481 4863 
L 3481 0 
L 2906 0 
L 2906 525 
Q 2725 213 2448 61 
Q 2172 -91 1784 -91 
Q 1150 -91 751 415 
Q 353 922 353 1747 
Q 353 2572 751 3078 
Q 1150 3584 1784 3584 
Q 2172 3584 2448 3432 
Q 2725 3281 2906 2969 
z
M 947 1747 
Q 947 1113 1208 752 
Q 1469 391 1925 391 
Q 2381 391 2643 752 
Q 2906 1113 2906 1747 
Q 2906 2381 2643 2742 
Q 2381 3103 1925 3103 
Q 1469 3103 1208 2742 
Q 947 2381 947 1747 
z
" transform="scale(0.015625)"/>
     <path id="DejaVuSans-75" d="M 544 1381 
L 544 3500 
L 1119 3500 
L 1119 1403 
Q 1119 906 1312 657 
Q 1506 409 1894 409 
Q 2359 409 2629 706 
Q 2900 1003 2900 1516 
L 2900 3500 
L 3475 3500 
L 3475 0 
L 2900 0 
L 2900 538 
Q 2691 219 2414 64 
Q 2138 -91 1772 -91 
Q 1169 -91 856 284 
Q 544 659 544 1381 
z
M 1991 3584 
L 1991 3584 
z
" transform="scale(0.015625)"/>
     <path id="DejaVuSans-69" d="M 603 3500 
L 1178 3500 
L 1178 0 
L 603 0 
L 603 3500 
z
M 603 4863 
L 1178 4863 
L 1178 4134 
L 603 4134 
L 603 4863 
z
" transform="scale(0.015625)"/>
     <path id="DejaVuSans-66" d="M 2375 4863 
L 2375 4384 
L 1825 4384 
Q 1516 4384 1395 4259 
Q 1275 4134 1275 3809 
L 1275 3500 
L 2222 3500 
L 2222 3053 
L 1275 3053 
L 1275 0 
L 697 0 
L 697 3053 
L 147 3053 
L 147 3500 
L 697 3500 
L 697 3744 
Q 697 4328 969 4595 
Q 1241 4863 1831 4863 
L 2375 4863 
z
" transform="scale(0.015625)"/>
     <path id="DejaVuSans-6d" d="M 3328 2828 
Q 3544 3216 3844 3400 
Q 4144 3584 4550 3584 
Q 5097 3584 5394 3201 
Q 5691 2819 5691 2113 
L 5691 0 
L 5113 0 
L 5113 2094 
Q 5113 2597 4934 2840 
Q 4756 3084 4391 3084 
Q 3944 3084 3684 2787 
Q 3425 2491 3425 1978 
L 3425 0 
L 2847 0 
L 2847 2094 
Q 2847 2600 2669 2842 
Q 2491 3084 2119 3084 
Q 1678 3084 1418 2786 
Q 1159 2488 1159 1978 
L 1159 0 
L 581 0 
L 581 3500 
L 1159 3500 
L 1159 2956 
Q 1356 3278 1631 3431 
Q 1906 3584 2284 3584 
Q 2666 3584 2933 3390 
Q 3200 3197 3328 2828 
z
" transform="scale(0.015625)"/>
     <path id="DejaVuSans-2d" d="M 313 2009 
L 1997 2009 
L 1997 1497 
L 313 1497 
L 313 2009 
z
" transform="scale(0.015625)"/>
     <path id="DejaVuSans-6b" d="M 581 4863 
L 1159 4863 
L 1159 1991 
L 2875 3500 
L 3609 3500 
L 1753 1863 
L 3688 0 
L 2938 0 
L 1159 1709 
L 1159 0 
L 581 0 
L 581 4863 
z
" transform="scale(0.015625)"/>
     <path id="DejaVuSans-6c" d="M 603 4863 
L 1178 4863 
L 1178 0 
L 603 0 
L 603 4863 
z
" transform="scale(0.015625)"/>
     <path id="DejaVuSans-76" d="M 191 3500 
L 800 3500 
L 1894 563 
L 2988 3500 
L 3597 3500 
L 2284 0 
L 1503 0 
L 191 3500 
z
" transform="scale(0.015625)"/>
    </defs>
    <use xlink:href="#DejaVuSans-50"/>
    <use xlink:href="#DejaVuSans-72" x="58.552734"/>
    <use xlink:href="#DejaVuSans-6f" x="97.416016"/>
    <use xlink:href="#DejaVuSans-64" x="158.597656"/>
    <use xlink:href="#DejaVuSans-75" x="222.074219"/>
    <use xlink:href="#DejaVuSans-63" x="285.453125"/>
    <use xlink:href="#DejaVuSans-74" x="340.433594"/>
    <use xlink:href="#DejaVuSans-69" x="379.642578"/>
    <use xlink:href="#DejaVuSans-6f" x="407.425781"/>
    <use xlink:href="#DejaVuSans-6e" x="468.607422"/>
    <use xlink:href="#DejaVuSans-20" x="531.986328"/>
    <use xlink:href="#DejaVuSans-63" x="563.773438"/>
    <use xlink:href="#DejaVuSans-68" x="618.753906"/>
    <use xlink:href="#DejaVuSans-61" x="682.132812"/>
    <use xlink:href="#DejaVuSans-6e" x="743.412109"/>
    <use xlink:href="#DejaVuSans-67" x="806.791016"/>
    <use xlink:href="#DejaVuSans-65" x="870.267578"/>
    <use xlink:href="#DejaVuSans-20" x="931.791016"/>
    <use xlink:href="#DejaVuSans-66" x="963.578125"/>
    <use xlink:href="#DejaVuSans-72" x="998.783203"/>
    <use xlink:href="#DejaVuSans-6f" x="1037.646484"/>
    <use xlink:href="#DejaVuSans-6d" x="1098.828125"/>
    <use xlink:href="#DejaVuSans-20" x="1196.240234"/>
    <use xlink:href="#DejaVuSans-70" x="1228.027344"/>
    <use xlink:href="#DejaVuSans-72" x="1291.503906"/>
    <use xlink:href="#DejaVuSans-65" x="1330.367188"/>
    <use xlink:href="#DejaVuSans-2d" x="1391.890625"/>
    <use xlink:href="#DejaVuSans-73" x="1427.974609"/>
    <use xlink:href="#DejaVuSans-68" x="1480.074219"/>
    <use xlink:href="#DejaVuSans-6f" x="1543.453125"/>
    <use xlink:href="#DejaVuSans-63" x="1604.634766"/>
    <use xlink:href="#DejaVuSans-6b" x="1659.615234"/>
    <use xlink:href="#DejaVuSans-20" x="1717.525391"/>
    <use xlink:href="#DejaVuSans-6c" x="1749.3125"/>
    <use xlink:href="#DejaVuSans-65" x="1777.095703"/>
    <use xlink:href="#DejaVuSans-76" x="1838.619141"/>
    <use xlink:href="#DejaVuSans-65" x="1897.798828"/>
    <use xlink:href="#DejaVuSans-6c" x="1959.322266"/>
   </g>
  </g>
  <g id="legend_1">
   <g id="patch_20">
    <path d="M 11.82 549.767812 
L 1225.674469 549.767812 
Q 1230.294469 549.767812 1230.294469 545.147812 
L 1230.294469 476.97 
Q 1230.294469 472.35 1225.674469 472.35 
L 11.82 472.35 
Q 7.2 472.35 7.2 476.97 
L 7.2 545.147812 
Q 7.2 549.767812 11.82 549.767812 
z
" style="fill: #eaeaf2; opacity: 0.8; stroke: #cccccc; stroke-linejoin: miter"/>
   </g>
   <g id="text_29">
    <!-- Experiences -->
    <g style="fill: #262626" transform="translate(541.912828 500.738063) scale(0.252 -0.252)">
     <defs>
      <path id="DejaVuSans-45" d="M 628 4666 
L 3578 4666 
L 3578 4134 
L 1259 4134 
L 1259 2753 
L 3481 2753 
L 3481 2222 
L 1259 2222 
L 1259 531 
L 3634 531 
L 3634 0 
L 628 0 
L 628 4666 
z
" transform="scale(0.015625)"/>
      <path id="DejaVuSans-78" d="M 3513 3500 
L 2247 1797 
L 3578 0 
L 2900 0 
L 1881 1375 
L 863 0 
L 184 0 
L 1544 1831 
L 300 3500 
L 978 3500 
L 1906 2253 
L 2834 3500 
L 3513 3500 
z
" transform="scale(0.015625)"/>
     </defs>
     <use xlink:href="#DejaVuSans-45"/>
     <use xlink:href="#DejaVuSans-78" x="63.183594"/>
     <use xlink:href="#DejaVuSans-70" x="122.363281"/>
     <use xlink:href="#DejaVuSans-65" x="185.839844"/>
     <use xlink:href="#DejaVuSans-72" x="247.363281"/>
     <use xlink:href="#DejaVuSans-69" x="288.476562"/>
     <use xlink:href="#DejaVuSans-65" x="316.259766"/>
     <use xlink:href="#DejaVuSans-6e" x="377.783203"/>
     <use xlink:href="#DejaVuSans-63" x="441.162109"/>
     <use xlink:href="#DejaVuSans-65" x="496.142578"/>
     <use xlink:href="#DejaVuSans-73" x="557.666016"/>
    </g>
   </g>
   <g id="line2d_61">
    <path d="M 16.44 526.996266 
L 39.54 526.996266 
L 62.64 526.996266 
" style="fill: none; stroke: #4c72b0; stroke-opacity: 0.9; stroke-width: 3; stroke-linecap: round"/>
   </g>
   <g id="text_30">
    <!-- eora26_full_2000 -->
    <g style="fill: #262626" transform="translate(81.12 535.081266) scale(0.231 -0.231)">
     <defs>
      <path id="DejaVuSans-5f" d="M 3263 -1063 
L 3263 -1509 
L -63 -1509 
L -63 -1063 
L 3263 -1063 
z
" transform="scale(0.015625)"/>
     </defs>
     <use xlink:href="#DejaVuSans-65"/>
     <use xlink:href="#DejaVuSans-6f" x="61.523438"/>
     <use xlink:href="#DejaVuSans-72" x="122.705078"/>
     <use xlink:href="#DejaVuSans-61" x="163.818359"/>
     <use xlink:href="#DejaVuSans-32" x="225.097656"/>
     <use xlink:href="#DejaVuSans-36" x="288.720703"/>
     <use xlink:href="#DejaVuSans-5f" x="352.34375"/>
     <use xlink:href="#DejaVuSans-66" x="402.34375"/>
     <use xlink:href="#DejaVuSans-75" x="437.548828"/>
     <use xlink:href="#DejaVuSans-6c" x="500.927734"/>
     <use xlink:href="#DejaVuSans-6c" x="528.710938"/>
     <use xlink:href="#DejaVuSans-5f" x="556.494141"/>
     <use xlink:href="#DejaVuSans-32" x="606.494141"/>
     <use xlink:href="#DejaVuSans-30" x="670.117188"/>
     <use xlink:href="#DejaVuSans-30" x="733.740234"/>
     <use xlink:href="#DejaVuSans-30" x="797.363281"/>
    </g>
   </g>
   <g id="line2d_62">
    <path d="M 326.211 526.996266 
L 349.311 526.996266 
L 372.411 526.996266 
" style="fill: none; stroke: #dd8452; stroke-opacity: 0.9; stroke-width: 3; stroke-linecap: round"/>
   </g>
   <g id="text_31">
    <!-- eora26_full_2010 -->
    <g style="fill: #262626" transform="translate(390.891 535.081266) scale(0.231 -0.231)">
     <use xlink:href="#DejaVuSans-65"/>
     <use xlink:href="#DejaVuSans-6f" x="61.523438"/>
     <use xlink:href="#DejaVuSans-72" x="122.705078"/>
     <use xlink:href="#DejaVuSans-61" x="163.818359"/>
     <use xlink:href="#DejaVuSans-32" x="225.097656"/>
     <use xlink:href="#DejaVuSans-36" x="288.720703"/>
     <use xlink:href="#DejaVuSans-5f" x="352.34375"/>
     <use xlink:href="#DejaVuSans-66" x="402.34375"/>
     <use xlink:href="#DejaVuSans-75" x="437.548828"/>
     <use xlink:href="#DejaVuSans-6c" x="500.927734"/>
     <use xlink:href="#DejaVuSans-6c" x="528.710938"/>
     <use xlink:href="#DejaVuSans-5f" x="556.494141"/>
     <use xlink:href="#DejaVuSans-32" x="606.494141"/>
     <use xlink:href="#DejaVuSans-30" x="670.117188"/>
     <use xlink:href="#DejaVuSans-31" x="733.740234"/>
     <use xlink:href="#DejaVuSans-30" x="797.363281"/>
    </g>
   </g>
   <g id="line2d_63">
    <path d="M 635.982 526.996266 
L 659.082 526.996266 
L 682.182 526.996266 
" style="fill: none; stroke: #55a868; stroke-opacity: 0.9; stroke-width: 3; stroke-linecap: round"/>
   </g>
   <g id="text_32">
    <!-- euregio_full_2000 -->
    <g style="fill: #262626" transform="translate(700.662 535.081266) scale(0.231 -0.231)">
     <use xlink:href="#DejaVuSans-65"/>
     <use xlink:href="#DejaVuSans-75" x="61.523438"/>
     <use xlink:href="#DejaVuSans-72" x="124.902344"/>
     <use xlink:href="#DejaVuSans-65" x="163.765625"/>
     <use xlink:href="#DejaVuSans-67" x="225.289062"/>
     <use xlink:href="#DejaVuSans-69" x="288.765625"/>
     <use xlink:href="#DejaVuSans-6f" x="316.548828"/>
     <use xlink:href="#DejaVuSans-5f" x="377.730469"/>
     <use xlink:href="#DejaVuSans-66" x="427.730469"/>
     <use xlink:href="#DejaVuSans-75" x="462.935547"/>
     <use xlink:href="#DejaVuSans-6c" x="526.314453"/>
     <use xlink:href="#DejaVuSans-6c" x="554.097656"/>
     <use xlink:href="#DejaVuSans-5f" x="581.880859"/>
     <use xlink:href="#DejaVuSans-32" x="631.880859"/>
     <use xlink:href="#DejaVuSans-30" x="695.503906"/>
     <use xlink:href="#DejaVuSans-30" x="759.126953"/>
     <use xlink:href="#DejaVuSans-30" x="822.75"/>
    </g>
   </g>
   <g id="line2d_64">
    <path d="M 951.618234 526.996266 
L 974.718234 526.996266 
L 997.818234 526.996266 
" style="fill: none; stroke: #c44e52; stroke-opacity: 0.9; stroke-width: 3; stroke-linecap: round"/>
   </g>
   <g id="text_33">
    <!-- euregio_full_2010 -->
    <g style="fill: #262626" transform="translate(1016.298234 535.081266) scale(0.231 -0.231)">
     <use xlink:href="#DejaVuSans-65"/>
     <use xlink:href="#DejaVuSans-75" x="61.523438"/>
     <use xlink:href="#DejaVuSans-72" x="124.902344"/>
     <use xlink:href="#DejaVuSans-65" x="163.765625"/>
     <use xlink:href="#DejaVuSans-67" x="225.289062"/>
     <use xlink:href="#DejaVuSans-69" x="288.765625"/>
     <use xlink:href="#DejaVuSans-6f" x="316.548828"/>
     <use xlink:href="#DejaVuSans-5f" x="377.730469"/>
     <use xlink:href="#DejaVuSans-66" x="427.730469"/>
     <use xlink:href="#DejaVuSans-75" x="462.935547"/>
     <use xlink:href="#DejaVuSans-6c" x="526.314453"/>
     <use xlink:href="#DejaVuSans-6c" x="554.097656"/>
     <use xlink:href="#DejaVuSans-5f" x="581.880859"/>
     <use xlink:href="#DejaVuSans-32" x="631.880859"/>
     <use xlink:href="#DejaVuSans-30" x="695.503906"/>
     <use xlink:href="#DejaVuSans-31" x="759.126953"/>
     <use xlink:href="#DejaVuSans-30" x="822.75"/>
    </g>
   </g>
  </g>
 </g>
 <defs>
  <clipPath id="p7794a8d12d">
   <rect x="119.522628" y="81.456" width="302.644298" height="115.976644"/>
  </clipPath>
  <clipPath id="p7a96c7251d">
   <rect x="449.025483" y="81.456" width="302.644298" height="115.976644"/>
  </clipPath>
  <clipPath id="p3f63a3772a">
   <rect x="778.528337" y="81.456" width="302.644298" height="115.976644"/>
  </clipPath>
  <clipPath id="pa8854cc389">
   <rect x="119.522628" y="257.307356" width="302.644298" height="115.976644"/>
  </clipPath>
  <clipPath id="p6eec0705b2">
   <rect x="449.025483" y="257.307356" width="302.644298" height="115.976644"/>
  </clipPath>
  <clipPath id="p0ae34a1289">
   <rect x="778.528337" y="257.307356" width="302.644298" height="115.976644"/>
  </clipPath>
 </defs>
</svg>
