<?xml version="1.0" encoding="utf-8" standalone="no"?>
<!DOCTYPE svg PUBLIC "-//W3C//DTD SVG 1.1//EN"
  "http://www.w3.org/Graphics/SVG/1.1/DTD/svg11.dtd">
<svg xmlns:xlink="http://www.w3.org/1999/xlink" width="1304.437547pt" height="591.51675pt" viewBox="0 0 1304.437547 591.51675" xmlns="http://www.w3.org/2000/svg" version="1.1">
 <metadata>
  <rdf:RDF xmlns:dc="http://purl.org/dc/elements/1.1/" xmlns:cc="http://creativecommons.org/ns#" xmlns:rdf="http://www.w3.org/1999/02/22-rdf-syntax-ns#">
   <cc:Work>
    <dc:type rdf:resource="http://purl.org/dc/dcmitype/StillImage"/>
    <dc:date>2023-04-19T14:06:24.708838</dc:date>
    <dc:format>image/svg+xml</dc:format>
    <dc:creator>
     <cc:Agent>
      <dc:title>Matplotlib v3.7.1, https://matplotlib.org/</dc:title>
     </cc:Agent>
    </dc:creator>
   </cc:Work>
  </rdf:RDF>
 </metadata>
 <defs>
  <style type="text/css">*{stroke-linejoin: round; stroke-linecap: butt}</style>
 </defs>
 <g id="figure_1">
  <g id="patch_1">
   <path d="M 0 591.51675 
L 1304.437547 591.51675 
L 1304.437547 -0 
L 0 -0 
z
" style="fill: #ffffff"/>
  </g>
  <g id="axes_1">
   <g id="patch_2">
    <path d="M 160.9429 201.042 
L 456.401316 201.042 
L 456.401316 81.456 
L 160.9429 81.456 
z
" style="fill: #eaeaf2"/>
   </g>
   <g id="matplotlib.axis_1">
    <g id="xtick_1">
     <g id="line2d_1">
      <path d="M 174.372828 201.042 
L 174.372828 81.456 
" clip-path="url(#p994ee2fa2b)" style="fill: none; stroke: #ffffff; stroke-linecap: round"/>
     </g>
    </g>
    <g id="xtick_2">
     <g id="line2d_2">
      <path d="M 266.484817 201.042 
L 266.484817 81.456 
" clip-path="url(#p994ee2fa2b)" style="fill: none; stroke: #ffffff; stroke-linecap: round"/>
     </g>
    </g>
    <g id="xtick_3">
     <g id="line2d_3">
      <path d="M 358.596806 201.042 
L 358.596806 81.456 
" clip-path="url(#p994ee2fa2b)" style="fill: none; stroke: #ffffff; stroke-linecap: round"/>
     </g>
    </g>
    <g id="xtick_4">
     <g id="line2d_4">
      <path d="M 450.708795 201.042 
L 450.708795 81.456 
" clip-path="url(#p994ee2fa2b)" style="fill: none; stroke: #ffffff; stroke-linecap: round"/>
     </g>
    </g>
   </g>
   <g id="matplotlib.axis_2">
    <g id="ytick_1">
     <g id="line2d_5">
      <path d="M 160.9429 152.426175 
L 456.401316 152.426175 
" clip-path="url(#p994ee2fa2b)" style="fill: none; stroke: #ffffff; stroke-linecap: round"/>
     </g>
     <g id="text_1">
      <!-- −10 -->
      <g style="fill: #262626" transform="translate(102.691072 161.20237) scale(0.231 -0.231)">
       <defs>
        <path id="DejaVuSans-2212" d="M 678 2272 
L 4684 2272 
L 4684 1741 
L 678 1741 
L 678 2272 
z
" transform="scale(0.015625)"/>
        <path id="DejaVuSans-31" d="M 794 531 
L 1825 531 
L 1825 4091 
L 703 3866 
L 703 4441 
L 1819 4666 
L 2450 4666 
L 2450 531 
L 3481 531 
L 3481 0 
L 794 0 
L 794 531 
z
" transform="scale(0.015625)"/>
        <path id="DejaVuSans-30" d="M 2034 4250 
Q 1547 4250 1301 3770 
Q 1056 3291 1056 2328 
Q 1056 1369 1301 889 
Q 1547 409 2034 409 
Q 2525 409 2770 889 
Q 3016 1369 3016 2328 
Q 3016 3291 2770 3770 
Q 2525 4250 2034 4250 
z
M 2034 4750 
Q 2819 4750 3233 4129 
Q 3647 3509 3647 2328 
Q 3647 1150 3233 529 
Q 2819 -91 2034 -91 
Q 1250 -91 836 529 
Q 422 1150 422 2328 
Q 422 3509 836 4129 
Q 1250 4750 2034 4750 
z
" transform="scale(0.015625)"/>
       </defs>
       <use xlink:href="#DejaVuSans-2212"/>
       <use xlink:href="#DejaVuSans-31" x="83.789062"/>
       <use xlink:href="#DejaVuSans-30" x="147.412109"/>
      </g>
     </g>
    </g>
    <g id="ytick_2">
     <g id="line2d_6">
      <path d="M 160.9429 101.688337 
L 456.401316 101.688337 
" clip-path="url(#p994ee2fa2b)" style="fill: none; stroke: #ffffff; stroke-linecap: round"/>
     </g>
     <g id="text_2">
      <!-- 0 -->
      <g style="fill: #262626" transform="translate(136.745525 110.464533) scale(0.231 -0.231)">
       <use xlink:href="#DejaVuSans-30"/>
      </g>
     </g>
    </g>
    <g id="text_3">
     <!-- % change -->
     <g style="fill: #262626" transform="translate(93.450259 203.597344) rotate(-90) scale(0.252 -0.252)">
      <defs>
       <path id="DejaVuSans-25" d="M 4653 2053 
Q 4381 2053 4226 1822 
Q 4072 1591 4072 1178 
Q 4072 772 4226 539 
Q 4381 306 4653 306 
Q 4919 306 5073 539 
Q 5228 772 5228 1178 
Q 5228 1588 5073 1820 
Q 4919 2053 4653 2053 
z
M 4653 2450 
Q 5147 2450 5437 2106 
Q 5728 1763 5728 1178 
Q 5728 594 5436 251 
Q 5144 -91 4653 -91 
Q 4153 -91 3862 251 
Q 3572 594 3572 1178 
Q 3572 1766 3864 2108 
Q 4156 2450 4653 2450 
z
M 1428 4353 
Q 1159 4353 1004 4120 
Q 850 3888 850 3481 
Q 850 3069 1003 2837 
Q 1156 2606 1428 2606 
Q 1700 2606 1854 2837 
Q 2009 3069 2009 3481 
Q 2009 3884 1853 4118 
Q 1697 4353 1428 4353 
z
M 4250 4750 
L 4750 4750 
L 1831 -91 
L 1331 -91 
L 4250 4750 
z
M 1428 4750 
Q 1922 4750 2215 4408 
Q 2509 4066 2509 3481 
Q 2509 2891 2217 2550 
Q 1925 2209 1428 2209 
Q 931 2209 642 2551 
Q 353 2894 353 3481 
Q 353 4063 643 4406 
Q 934 4750 1428 4750 
z
" transform="scale(0.015625)"/>
       <path id="DejaVuSans-20" transform="scale(0.015625)"/>
       <path id="DejaVuSans-63" d="M 3122 3366 
L 3122 2828 
Q 2878 2963 2633 3030 
Q 2388 3097 2138 3097 
Q 1578 3097 1268 2742 
Q 959 2388 959 1747 
Q 959 1106 1268 751 
Q 1578 397 2138 397 
Q 2388 397 2633 464 
Q 2878 531 3122 666 
L 3122 134 
Q 2881 22 2623 -34 
Q 2366 -91 2075 -91 
Q 1284 -91 818 406 
Q 353 903 353 1747 
Q 353 2603 823 3093 
Q 1294 3584 2113 3584 
Q 2378 3584 2631 3529 
Q 2884 3475 3122 3366 
z
" transform="scale(0.015625)"/>
       <path id="DejaVuSans-68" d="M 3513 2113 
L 3513 0 
L 2938 0 
L 2938 2094 
Q 2938 2591 2744 2837 
Q 2550 3084 2163 3084 
Q 1697 3084 1428 2787 
Q 1159 2491 1159 1978 
L 1159 0 
L 581 0 
L 581 4863 
L 1159 4863 
L 1159 2956 
Q 1366 3272 1645 3428 
Q 1925 3584 2291 3584 
Q 2894 3584 3203 3211 
Q 3513 2838 3513 2113 
z
" transform="scale(0.015625)"/>
       <path id="DejaVuSans-61" d="M 2194 1759 
Q 1497 1759 1228 1600 
Q 959 1441 959 1056 
Q 959 750 1161 570 
Q 1363 391 1709 391 
Q 2188 391 2477 730 
Q 2766 1069 2766 1631 
L 2766 1759 
L 2194 1759 
z
M 3341 1997 
L 3341 0 
L 2766 0 
L 2766 531 
Q 2569 213 2275 61 
Q 1981 -91 1556 -91 
Q 1019 -91 701 211 
Q 384 513 384 1019 
Q 384 1609 779 1909 
Q 1175 2209 1959 2209 
L 2766 2209 
L 2766 2266 
Q 2766 2663 2505 2880 
Q 2244 3097 1772 3097 
Q 1472 3097 1187 3025 
Q 903 2953 641 2809 
L 641 3341 
Q 956 3463 1253 3523 
Q 1550 3584 1831 3584 
Q 2591 3584 2966 3190 
Q 3341 2797 3341 1997 
z
" transform="scale(0.015625)"/>
       <path id="DejaVuSans-6e" d="M 3513 2113 
L 3513 0 
L 2938 0 
L 2938 2094 
Q 2938 2591 2744 2837 
Q 2550 3084 2163 3084 
Q 1697 3084 1428 2787 
Q 1159 2491 1159 1978 
L 1159 0 
L 581 0 
L 581 3500 
L 1159 3500 
L 1159 2956 
Q 1366 3272 1645 3428 
Q 1925 3584 2291 3584 
Q 2894 3584 3203 3211 
Q 3513 2838 3513 2113 
z
" transform="scale(0.015625)"/>
       <path id="DejaVuSans-67" d="M 2906 1791 
Q 2906 2416 2648 2759 
Q 2391 3103 1925 3103 
Q 1463 3103 1205 2759 
Q 947 2416 947 1791 
Q 947 1169 1205 825 
Q 1463 481 1925 481 
Q 2391 481 2648 825 
Q 2906 1169 2906 1791 
z
M 3481 434 
Q 3481 -459 3084 -895 
Q 2688 -1331 1869 -1331 
Q 1566 -1331 1297 -1286 
Q 1028 -1241 775 -1147 
L 775 -588 
Q 1028 -725 1275 -790 
Q 1522 -856 1778 -856 
Q 2344 -856 2625 -561 
Q 2906 -266 2906 331 
L 2906 616 
Q 2728 306 2450 153 
Q 2172 0 1784 0 
Q 1141 0 747 490 
Q 353 981 353 1791 
Q 353 2603 747 3093 
Q 1141 3584 1784 3584 
Q 2172 3584 2450 3431 
Q 2728 3278 2906 2969 
L 2906 3500 
L 3481 3500 
L 3481 434 
z
" transform="scale(0.015625)"/>
       <path id="DejaVuSans-65" d="M 3597 1894 
L 3597 1613 
L 953 1613 
Q 991 1019 1311 708 
Q 1631 397 2203 397 
Q 2534 397 2845 478 
Q 3156 559 3463 722 
L 3463 178 
Q 3153 47 2828 -22 
Q 2503 -91 2169 -91 
Q 1331 -91 842 396 
Q 353 884 353 1716 
Q 353 2575 817 3079 
Q 1281 3584 2069 3584 
Q 2775 3584 3186 3129 
Q 3597 2675 3597 1894 
z
M 3022 2063 
Q 3016 2534 2758 2815 
Q 2500 3097 2075 3097 
Q 1594 3097 1305 2825 
Q 1016 2553 972 2059 
L 3022 2063 
z
" transform="scale(0.015625)"/>
      </defs>
      <use xlink:href="#DejaVuSans-25"/>
      <use xlink:href="#DejaVuSans-20" x="95.019531"/>
      <use xlink:href="#DejaVuSans-63" x="126.806641"/>
      <use xlink:href="#DejaVuSans-68" x="181.787109"/>
      <use xlink:href="#DejaVuSans-61" x="245.166016"/>
      <use xlink:href="#DejaVuSans-6e" x="306.445312"/>
      <use xlink:href="#DejaVuSans-67" x="369.824219"/>
      <use xlink:href="#DejaVuSans-65" x="433.300781"/>
     </g>
    </g>
   </g>
   <g id="PolyCollection_1"/>
   <g id="PolyCollection_2"/>
   <g id="PolyCollection_3"/>
   <g id="PolyCollection_4"/>
   <g id="PolyCollection_5"/>
   <g id="PolyCollection_6"/>
   <g id="line2d_7">
    <path d="M 174.372828 101.688337 
L 174.741276 104.256715 
L 175.478172 104.350077 
L 179.531099 104.214071 
L 180.636443 103.380898 
L 182.478683 102.117173 
L 184.320923 101.162364 
L 186.531611 100.307893 
L 188.742298 99.695902 
L 191.321434 99.204124 
L 194.637466 98.812272 
L 196.479705 98.725905 
L 200.164185 99.197777 
L 208.638488 99.850271 
L 217.112791 100.237213 
L 228.534678 100.542819 
L 249.904659 100.927004 
L 287.117903 101.011501 
L 442.971388 101.026885 
L 442.971388 101.026885 
" clip-path="url(#p994ee2fa2b)" style="fill: none; stroke: #4c72b0; stroke-opacity: 0.9; stroke-width: 3; stroke-linecap: round"/>
   </g>
   <g id="line2d_8">
    <path d="M 174.372828 101.688337 
L 174.741276 103.089145 
L 175.84662 103.160752 
L 179.531099 103.101904 
L 184.320923 101.478111 
L 186.900058 100.992934 
L 190.21609 100.606985 
L 194.637466 100.339276 
L 196.479705 100.352611 
L 201.637977 100.601629 
L 210.480728 100.763489 
L 235.166741 101.045401 
L 311.435468 101.261083 
L 442.971388 101.263945 
L 442.971388 101.263945 
" clip-path="url(#p994ee2fa2b)" style="fill: none; stroke: #dd8452; stroke-opacity: 0.9; stroke-width: 3; stroke-linecap: round"/>
   </g>
   <g id="line2d_9">
    <path d="M 174.372828 101.688337 
L 174.741276 104.379601 
L 175.478172 104.540611 
L 179.531099 104.404458 
L 180.267995 104.014473 
L 182.110235 102.911044 
L 183.952475 102.092039 
L 186.163163 101.339087 
L 188.742298 100.679155 
L 192.05833 100.077504 
L 195.742809 99.64242 
L 200.164185 99.387295 
L 204.217112 99.341614 
L 209.375384 99.579519 
L 223.376406 100.755421 
L 229.640021 101.055387 
L 235.903637 101.132598 
L 243.272596 100.975694 
L 248.430867 100.880707 
L 276.80136 101.137304 
L 334.279241 101.18369 
L 442.971388 101.186179 
L 442.971388 101.186179 
" clip-path="url(#p994ee2fa2b)" style="fill: none; stroke: #55a868; stroke-opacity: 0.9; stroke-width: 3; stroke-linecap: round"/>
   </g>
   <g id="line2d_10">
    <path d="M 174.372828 101.688337 
L 174.741276 103.803447 
L 175.478172 103.932428 
L 179.531099 103.823647 
L 180.267995 103.520368 
L 182.110235 102.641877 
L 184.320923 101.882471 
L 186.900058 101.23834 
L 190.21609 100.660614 
L 194.269018 100.20658 
L 199.058841 99.904099 
L 202.743321 99.873366 
L 211.95452 100.290269 
L 218.955031 100.635429 
L 227.429334 100.953652 
L 267.958609 101.264682 
L 332.805449 101.308595 
L 442.971388 101.309861 
L 442.971388 101.309861 
" clip-path="url(#p994ee2fa2b)" style="fill: none; stroke: #c44e52; stroke-opacity: 0.9; stroke-width: 3; stroke-linecap: round"/>
   </g>
   <g id="line2d_11">
    <path d="M 174.372828 101.688337 
L 174.741276 104.154092 
L 175.478172 104.258717 
L 179.531099 104.124987 
L 179.899547 103.943239 
L 181.741787 102.52177 
L 183.584027 101.470697 
L 185.426267 100.678092 
L 187.636954 99.979437 
L 190.21609 99.418511 
L 193.163674 99.018287 
L 195.742809 98.831911 
L 197.216601 99.014808 
L 200.164185 99.349537 
L 205.690904 99.695864 
L 215.270551 100.122859 
L 229.271573 100.561569 
L 254.694482 101.059459 
L 286.381007 101.14384 
L 421.601407 101.163328 
L 442.971388 101.163378 
L 442.971388 101.163378 
" clip-path="url(#p994ee2fa2b)" style="fill: none; stroke: #8172b3; stroke-opacity: 0.9; stroke-width: 3; stroke-linecap: round"/>
   </g>
   <g id="line2d_12">
    <path d="M 174.372828 101.688337 
L 174.741276 103.666897 
L 175.478172 103.737942 
L 179.531099 103.635838 
L 180.267995 103.264182 
L 181.741787 102.416532 
L 183.584027 101.623537 
L 185.794715 100.935573 
L 188.37385 100.387433 
L 191.321434 99.991823 
L 195.005914 99.727953 
L 196.848153 99.724267 
L 200.901081 100.011078 
L 207.164696 100.235163 
L 220.428823 100.58647 
L 256.90517 101.151168 
L 302.224269 101.221892 
L 442.971388 101.229497 
L 442.971388 101.229497 
" clip-path="url(#p994ee2fa2b)" style="fill: none; stroke: #937860; stroke-opacity: 0.9; stroke-width: 3; stroke-linecap: round"/>
   </g>
   <g id="patch_3">
    <path d="M 160.9429 201.042 
L 160.9429 81.456 
" style="fill: none; stroke: #ffffff; stroke-width: 1.25; stroke-linejoin: miter; stroke-linecap: square"/>
   </g>
   <g id="patch_4">
    <path d="M 160.9429 201.042 
L 456.401316 201.042 
" style="fill: none; stroke: #ffffff; stroke-width: 1.25; stroke-linejoin: miter; stroke-linecap: square"/>
   </g>
   <g id="text_4">
    <!-- 0.5~30 -->
    <g style="fill: #262626" transform="translate(262.042264 75.456) scale(0.252 -0.252)">
     <defs>
      <path id="DejaVuSans-2e" d="M 684 794 
L 1344 794 
L 1344 0 
L 684 0 
L 684 794 
z
" transform="scale(0.015625)"/>
      <path id="DejaVuSans-35" d="M 691 4666 
L 3169 4666 
L 3169 4134 
L 1269 4134 
L 1269 2991 
Q 1406 3038 1543 3061 
Q 1681 3084 1819 3084 
Q 2600 3084 3056 2656 
Q 3513 2228 3513 1497 
Q 3513 744 3044 326 
Q 2575 -91 1722 -91 
Q 1428 -91 1123 -41 
Q 819 9 494 109 
L 494 744 
Q 775 591 1075 516 
Q 1375 441 1709 441 
Q 2250 441 2565 725 
Q 2881 1009 2881 1497 
Q 2881 1984 2565 2268 
Q 2250 2553 1709 2553 
Q 1456 2553 1204 2497 
Q 953 2441 691 2322 
L 691 4666 
z
" transform="scale(0.015625)"/>
      <path id="DejaVuSans-7e" d="M 4684 2553 
L 4684 1997 
Q 4356 1750 4076 1644 
Q 3797 1538 3494 1538 
Q 3150 1538 2694 1722 
Q 2659 1734 2644 1741 
Q 2622 1750 2575 1766 
Q 2091 1959 1797 1959 
Q 1522 1959 1253 1839 
Q 984 1719 678 1459 
L 678 2016 
Q 1006 2263 1286 2370 
Q 1566 2478 1869 2478 
Q 2213 2478 2672 2291 
Q 2703 2278 2719 2272 
Q 2744 2263 2788 2247 
Q 3272 2053 3566 2053 
Q 3834 2053 4098 2172 
Q 4363 2291 4684 2553 
z
" transform="scale(0.015625)"/>
      <path id="DejaVuSans-33" d="M 2597 2516 
Q 3050 2419 3304 2112 
Q 3559 1806 3559 1356 
Q 3559 666 3084 287 
Q 2609 -91 1734 -91 
Q 1441 -91 1130 -33 
Q 819 25 488 141 
L 488 750 
Q 750 597 1062 519 
Q 1375 441 1716 441 
Q 2309 441 2620 675 
Q 2931 909 2931 1356 
Q 2931 1769 2642 2001 
Q 2353 2234 1838 2234 
L 1294 2234 
L 1294 2753 
L 1863 2753 
Q 2328 2753 2575 2939 
Q 2822 3125 2822 3475 
Q 2822 3834 2567 4026 
Q 2313 4219 1838 4219 
Q 1578 4219 1281 4162 
Q 984 4106 628 3988 
L 628 4550 
Q 988 4650 1302 4700 
Q 1616 4750 1894 4750 
Q 2613 4750 3031 4423 
Q 3450 4097 3450 3541 
Q 3450 3153 3228 2886 
Q 3006 2619 2597 2516 
z
" transform="scale(0.015625)"/>
     </defs>
     <use xlink:href="#DejaVuSans-30"/>
     <use xlink:href="#DejaVuSans-2e" x="63.623047"/>
     <use xlink:href="#DejaVuSans-35" x="95.410156"/>
     <use xlink:href="#DejaVuSans-7e" x="159.033203"/>
     <use xlink:href="#DejaVuSans-33" x="242.822266"/>
     <use xlink:href="#DejaVuSans-30" x="306.445312"/>
    </g>
   </g>
  </g>
  <g id="axes_2">
   <g id="patch_5">
    <path d="M 483.047028 201.042 
L 778.505445 201.042 
L 778.505445 81.456 
L 483.047028 81.456 
z
" style="fill: #eaeaf2"/>
   </g>
   <g id="matplotlib.axis_3">
    <g id="xtick_5">
     <g id="line2d_13">
      <path d="M 496.476956 201.042 
L 496.476956 81.456 
" clip-path="url(#p4d0d05761d)" style="fill: none; stroke: #ffffff; stroke-linecap: round"/>
     </g>
    </g>
    <g id="xtick_6">
     <g id="line2d_14">
      <path d="M 588.588946 201.042 
L 588.588946 81.456 
" clip-path="url(#p4d0d05761d)" style="fill: none; stroke: #ffffff; stroke-linecap: round"/>
     </g>
    </g>
    <g id="xtick_7">
     <g id="line2d_15">
      <path d="M 680.700935 201.042 
L 680.700935 81.456 
" clip-path="url(#p4d0d05761d)" style="fill: none; stroke: #ffffff; stroke-linecap: round"/>
     </g>
    </g>
    <g id="xtick_8">
     <g id="line2d_16">
      <path d="M 772.812924 201.042 
L 772.812924 81.456 
" clip-path="url(#p4d0d05761d)" style="fill: none; stroke: #ffffff; stroke-linecap: round"/>
     </g>
    </g>
   </g>
   <g id="matplotlib.axis_4">
    <g id="ytick_3">
     <g id="line2d_17">
      <path d="M 483.047028 152.426175 
L 778.505445 152.426175 
" clip-path="url(#p4d0d05761d)" style="fill: none; stroke: #ffffff; stroke-linecap: round"/>
     </g>
    </g>
    <g id="ytick_4">
     <g id="line2d_18">
      <path d="M 483.047028 101.688337 
L 778.505445 101.688337 
" clip-path="url(#p4d0d05761d)" style="fill: none; stroke: #ffffff; stroke-linecap: round"/>
     </g>
    </g>
   </g>
   <g id="PolyCollection_7"/>
   <g id="PolyCollection_8"/>
   <g id="PolyCollection_9"/>
   <g id="PolyCollection_10"/>
   <g id="PolyCollection_11"/>
   <g id="PolyCollection_12"/>
   <g id="line2d_19">
    <path d="M 496.476956 101.688337 
L 496.845404 104.256715 
L 497.5823 104.372467 
L 501.635228 104.369894 
L 502.740572 103.977202 
L 504.951259 103.213848 
L 507.530395 102.582993 
L 510.477979 102.106988 
L 514.162458 101.756938 
L 519.32073 101.525125 
L 527.795033 101.401948 
L 548.428118 101.379484 
L 581.956882 101.52007 
L 656.38337 101.62968 
L 765.075517 101.640453 
L 765.075517 101.640453 
" clip-path="url(#p4d0d05761d)" style="fill: none; stroke: #4c72b0; stroke-opacity: 0.9; stroke-width: 3; stroke-linecap: round"/>
   </g>
   <g id="line2d_20">
    <path d="M 496.476956 101.688337 
L 496.845404 103.089145 
L 497.950748 103.177028 
L 502.003676 103.114421 
L 506.056603 102.333681 
L 509.372635 101.979508 
L 513.79401 101.735659 
L 521.16297 101.591165 
L 539.216919 101.538587 
L 599.273936 101.615261 
L 694.333509 101.65793 
L 765.075517 101.660495 
L 765.075517 101.660495 
" clip-path="url(#p4d0d05761d)" style="fill: none; stroke: #dd8452; stroke-opacity: 0.9; stroke-width: 3; stroke-linecap: round"/>
   </g>
   <g id="line2d_21">
    <path d="M 496.476956 101.688337 
L 496.845404 104.379601 
L 497.5823 104.563904 
L 501.635228 104.566326 
L 502.372124 104.402781 
L 504.951259 103.606735 
L 507.898843 102.959815 
L 511.214875 102.46353 
L 515.267802 102.078985 
L 521.16297 101.766879 
L 530.005721 101.55713 
L 536.637784 101.570689 
L 562.060693 101.772681 
L 572.008788 101.595679 
L 582.32533 101.436457 
L 654.54113 101.63387 
L 765.075517 101.643779 
L 765.075517 101.643779 
" clip-path="url(#p4d0d05761d)" style="fill: none; stroke: #55a868; stroke-opacity: 0.9; stroke-width: 3; stroke-linecap: round"/>
   </g>
   <g id="line2d_22">
    <path d="M 496.476956 101.688337 
L 496.845404 103.803447 
L 497.5823 103.950913 
L 501.635228 103.952707 
L 502.372124 103.827719 
L 505.319707 103.112916 
L 508.635739 102.571943 
L 512.688667 102.155526 
L 518.215386 101.842497 
L 526.321241 101.637581 
L 538.111576 101.660349 
L 554.691734 101.647659 
L 577.535507 101.480544 
L 650.85665 101.646807 
L 765.075517 101.655531 
L 765.075517 101.655531 
" clip-path="url(#p4d0d05761d)" style="fill: none; stroke: #c44e52; stroke-opacity: 0.9; stroke-width: 3; stroke-linecap: round"/>
   </g>
   <g id="line2d_23">
    <path d="M 496.476956 101.688337 
L 496.845404 104.154092 
L 497.5823 104.281612 
L 502.003676 104.242373 
L 504.951259 103.16281 
L 507.530395 102.52453 
L 510.477979 102.05623 
L 514.162458 101.72879 
L 519.32073 101.519068 
L 528.531929 101.409143 
L 552.481046 101.4342 
L 609.222031 101.563464 
L 754.022078 101.642119 
L 765.075517 101.642346 
L 765.075517 101.642346 
" clip-path="url(#p4d0d05761d)" style="fill: none; stroke: #8172b3; stroke-opacity: 0.9; stroke-width: 3; stroke-linecap: round"/>
   </g>
   <g id="line2d_24">
    <path d="M 496.476956 101.688337 
L 496.845404 103.666897 
L 497.5823 103.755466 
L 502.003676 103.72275 
L 504.951259 102.846315 
L 507.530395 102.341384 
L 510.846427 101.94692 
L 515.267802 101.68485 
L 522.268313 101.53335 
L 538.111576 101.477361 
L 581.219986 101.553728 
L 705.0185 101.642639 
L 765.075517 101.648398 
L 765.075517 101.648398 
" clip-path="url(#p4d0d05761d)" style="fill: none; stroke: #937860; stroke-opacity: 0.9; stroke-width: 3; stroke-linecap: round"/>
   </g>
   <g id="patch_6">
    <path d="M 483.047028 201.042 
L 483.047028 81.456 
" style="fill: none; stroke: #ffffff; stroke-width: 1.25; stroke-linejoin: miter; stroke-linecap: square"/>
   </g>
   <g id="patch_7">
    <path d="M 483.047028 201.042 
L 778.505445 201.042 
" style="fill: none; stroke: #ffffff; stroke-width: 1.25; stroke-linejoin: miter; stroke-linecap: square"/>
   </g>
   <g id="text_5">
    <!-- 0.5~365 -->
    <g style="fill: #262626" transform="translate(576.129643 75.456) scale(0.252 -0.252)">
     <defs>
      <path id="DejaVuSans-36" d="M 2113 2584 
Q 1688 2584 1439 2293 
Q 1191 2003 1191 1497 
Q 1191 994 1439 701 
Q 1688 409 2113 409 
Q 2538 409 2786 701 
Q 3034 994 3034 1497 
Q 3034 2003 2786 2293 
Q 2538 2584 2113 2584 
z
M 3366 4563 
L 3366 3988 
Q 3128 4100 2886 4159 
Q 2644 4219 2406 4219 
Q 1781 4219 1451 3797 
Q 1122 3375 1075 2522 
Q 1259 2794 1537 2939 
Q 1816 3084 2150 3084 
Q 2853 3084 3261 2657 
Q 3669 2231 3669 1497 
Q 3669 778 3244 343 
Q 2819 -91 2113 -91 
Q 1303 -91 875 529 
Q 447 1150 447 2328 
Q 447 3434 972 4092 
Q 1497 4750 2381 4750 
Q 2619 4750 2861 4703 
Q 3103 4656 3366 4563 
z
" transform="scale(0.015625)"/>
     </defs>
     <use xlink:href="#DejaVuSans-30"/>
     <use xlink:href="#DejaVuSans-2e" x="63.623047"/>
     <use xlink:href="#DejaVuSans-35" x="95.410156"/>
     <use xlink:href="#DejaVuSans-7e" x="159.033203"/>
     <use xlink:href="#DejaVuSans-33" x="242.822266"/>
     <use xlink:href="#DejaVuSans-36" x="306.445312"/>
     <use xlink:href="#DejaVuSans-35" x="370.068359"/>
    </g>
   </g>
  </g>
  <g id="axes_3">
   <g id="patch_8">
    <path d="M 805.151157 201.042 
L 1100.609573 201.042 
L 1100.609573 81.456 
L 805.151157 81.456 
z
" style="fill: #eaeaf2"/>
   </g>
   <g id="matplotlib.axis_5">
    <g id="xtick_9">
     <g id="line2d_25">
      <path d="M 818.581085 201.042 
L 818.581085 81.456 
" clip-path="url(#p3bf3e1857a)" style="fill: none; stroke: #ffffff; stroke-linecap: round"/>
     </g>
    </g>
    <g id="xtick_10">
     <g id="line2d_26">
      <path d="M 910.693074 201.042 
L 910.693074 81.456 
" clip-path="url(#p3bf3e1857a)" style="fill: none; stroke: #ffffff; stroke-linecap: round"/>
     </g>
    </g>
    <g id="xtick_11">
     <g id="line2d_27">
      <path d="M 1002.805063 201.042 
L 1002.805063 81.456 
" clip-path="url(#p3bf3e1857a)" style="fill: none; stroke: #ffffff; stroke-linecap: round"/>
     </g>
    </g>
    <g id="xtick_12">
     <g id="line2d_28">
      <path d="M 1094.917053 201.042 
L 1094.917053 81.456 
" clip-path="url(#p3bf3e1857a)" style="fill: none; stroke: #ffffff; stroke-linecap: round"/>
     </g>
    </g>
   </g>
   <g id="matplotlib.axis_6">
    <g id="ytick_5">
     <g id="line2d_29">
      <path d="M 805.151157 152.426175 
L 1100.609573 152.426175 
" clip-path="url(#p3bf3e1857a)" style="fill: none; stroke: #ffffff; stroke-linecap: round"/>
     </g>
    </g>
    <g id="ytick_6">
     <g id="line2d_30">
      <path d="M 805.151157 101.688337 
L 1100.609573 101.688337 
" clip-path="url(#p3bf3e1857a)" style="fill: none; stroke: #ffffff; stroke-linecap: round"/>
     </g>
    </g>
   </g>
   <g id="PolyCollection_13"/>
   <g id="PolyCollection_14"/>
   <g id="PolyCollection_15"/>
   <g id="PolyCollection_16"/>
   <g id="PolyCollection_17"/>
   <g id="PolyCollection_18"/>
   <g id="line2d_31">
    <path d="M 818.581085 101.688337 
L 818.949533 104.256715 
L 819.686429 104.350077 
L 823.739356 104.214071 
L 824.8447 103.380898 
L 826.68694 102.117173 
L 828.52918 101.162364 
L 830.739868 100.307893 
L 832.950555 99.695902 
L 835.529691 99.204124 
L 838.845723 98.812272 
L 840.687962 98.725905 
L 844.372442 99.197777 
L 852.846745 99.850271 
L 861.321048 100.237213 
L 872.742935 100.542819 
L 894.112916 100.927004 
L 931.32616 101.011501 
L 1087.179645 101.026885 
L 1087.179645 101.026885 
" clip-path="url(#p3bf3e1857a)" style="fill: none; stroke: #4c72b0; stroke-opacity: 0.9; stroke-width: 3; stroke-linecap: round"/>
   </g>
   <g id="line2d_32">
    <path d="M 818.581085 101.688337 
L 818.949533 103.089145 
L 820.054877 103.160752 
L 823.739356 103.101904 
L 828.52918 101.478111 
L 831.108315 100.992934 
L 834.424347 100.606985 
L 838.845723 100.339276 
L 840.687962 100.352611 
L 845.846234 100.601629 
L 854.688985 100.763489 
L 879.374998 101.045401 
L 955.643725 101.261083 
L 1087.179645 101.263945 
L 1087.179645 101.263945 
" clip-path="url(#p3bf3e1857a)" style="fill: none; stroke: #dd8452; stroke-opacity: 0.9; stroke-width: 3; stroke-linecap: round"/>
   </g>
   <g id="line2d_33">
    <path d="M 818.581085 101.688337 
L 818.949533 104.379601 
L 819.686429 104.540611 
L 823.739356 104.404458 
L 824.476252 104.014473 
L 826.318492 102.911044 
L 828.160732 102.092039 
L 830.37142 101.339087 
L 832.950555 100.694385 
L 835.898139 100.272576 
L 839.214171 100.11306 
L 842.161754 100.209382 
L 846.951578 100.358516 
L 854.320537 100.563748 
L 858.373464 100.80504 
L 872.742935 102.022214 
L 880.480342 102.253249 
L 891.902228 102.365725 
L 904.429459 102.271259 
L 915.482898 101.970227 
L 930.957712 101.266362 
L 940.168911 100.931963 
L 948.643214 100.948622 
L 977.382154 101.091125 
L 1061.01984 101.115822 
L 1087.179645 101.116017 
L 1087.179645 101.116017 
" clip-path="url(#p3bf3e1857a)" style="fill: none; stroke: #55a868; stroke-opacity: 0.9; stroke-width: 3; stroke-linecap: round"/>
   </g>
   <g id="line2d_34">
    <path d="M 818.581085 101.688337 
L 818.949533 103.803447 
L 819.686429 103.932428 
L 823.739356 103.823647 
L 824.476252 103.520368 
L 826.318492 102.641877 
L 828.52918 101.882471 
L 831.108315 101.23834 
L 833.687451 100.806597 
L 836.635035 100.574183 
L 839.582618 100.632568 
L 852.846745 101.320765 
L 864.268632 101.557788 
L 872.742935 102.083638 
L 880.111894 102.247191 
L 890.059989 102.239773 
L 899.639635 102.017573 
L 930.220816 101.032815 
L 1087.179645 101.203816 
L 1087.179645 101.203816 
" clip-path="url(#p3bf3e1857a)" style="fill: none; stroke: #c44e52; stroke-opacity: 0.9; stroke-width: 3; stroke-linecap: round"/>
   </g>
   <g id="line2d_35">
    <path d="M 818.581085 101.688337 
L 818.949533 104.154092 
L 819.686429 104.258717 
L 823.739356 104.124987 
L 824.107804 103.943239 
L 825.950044 102.52177 
L 827.792284 101.470697 
L 829.634524 100.678092 
L 831.845211 99.979437 
L 834.424347 99.418511 
L 837.371931 99.018287 
L 839.951066 98.831911 
L 841.424858 99.014808 
L 844.372442 99.349537 
L 849.899161 99.695864 
L 859.478808 100.122859 
L 873.479831 100.561569 
L 898.90274 101.059459 
L 930.589264 101.14384 
L 1065.809664 101.163328 
L 1087.179645 101.163378 
L 1087.179645 101.163378 
" clip-path="url(#p3bf3e1857a)" style="fill: none; stroke: #8172b3; stroke-opacity: 0.9; stroke-width: 3; stroke-linecap: round"/>
   </g>
   <g id="line2d_36">
    <path d="M 818.581085 101.688337 
L 818.949533 103.666897 
L 819.686429 103.737942 
L 823.739356 103.635838 
L 824.476252 103.264182 
L 825.950044 102.416532 
L 827.792284 101.623537 
L 830.002972 100.935573 
L 832.582107 100.387433 
L 835.529691 99.991823 
L 839.214171 99.727953 
L 841.05641 99.724267 
L 845.109338 100.011078 
L 851.372953 100.235163 
L 864.63708 100.58647 
L 901.113427 101.151168 
L 946.432526 101.221892 
L 1087.179645 101.229497 
L 1087.179645 101.229497 
" clip-path="url(#p3bf3e1857a)" style="fill: none; stroke: #937860; stroke-opacity: 0.9; stroke-width: 3; stroke-linecap: round"/>
   </g>
   <g id="patch_9">
    <path d="M 805.151157 201.042 
L 805.151157 81.456 
" style="fill: none; stroke: #ffffff; stroke-width: 1.25; stroke-linejoin: miter; stroke-linecap: square"/>
   </g>
   <g id="patch_10">
    <path d="M 805.151157 201.042 
L 1100.609573 201.042 
" style="fill: none; stroke: #ffffff; stroke-width: 1.25; stroke-linejoin: miter; stroke-linecap: square"/>
   </g>
   <g id="text_6">
    <!-- 0.8~30 -->
    <g style="fill: #262626" transform="translate(906.250521 75.456) scale(0.252 -0.252)">
     <defs>
      <path id="DejaVuSans-38" d="M 2034 2216 
Q 1584 2216 1326 1975 
Q 1069 1734 1069 1313 
Q 1069 891 1326 650 
Q 1584 409 2034 409 
Q 2484 409 2743 651 
Q 3003 894 3003 1313 
Q 3003 1734 2745 1975 
Q 2488 2216 2034 2216 
z
M 1403 2484 
Q 997 2584 770 2862 
Q 544 3141 544 3541 
Q 544 4100 942 4425 
Q 1341 4750 2034 4750 
Q 2731 4750 3128 4425 
Q 3525 4100 3525 3541 
Q 3525 3141 3298 2862 
Q 3072 2584 2669 2484 
Q 3125 2378 3379 2068 
Q 3634 1759 3634 1313 
Q 3634 634 3220 271 
Q 2806 -91 2034 -91 
Q 1263 -91 848 271 
Q 434 634 434 1313 
Q 434 1759 690 2068 
Q 947 2378 1403 2484 
z
M 1172 3481 
Q 1172 3119 1398 2916 
Q 1625 2713 2034 2713 
Q 2441 2713 2670 2916 
Q 2900 3119 2900 3481 
Q 2900 3844 2670 4047 
Q 2441 4250 2034 4250 
Q 1625 4250 1398 4047 
Q 1172 3844 1172 3481 
z
" transform="scale(0.015625)"/>
     </defs>
     <use xlink:href="#DejaVuSans-30"/>
     <use xlink:href="#DejaVuSans-2e" x="63.623047"/>
     <use xlink:href="#DejaVuSans-38" x="95.410156"/>
     <use xlink:href="#DejaVuSans-7e" x="159.033203"/>
     <use xlink:href="#DejaVuSans-33" x="242.822266"/>
     <use xlink:href="#DejaVuSans-30" x="306.445312"/>
    </g>
   </g>
  </g>
  <g id="axes_4">
   <g id="patch_11">
    <path d="M 160.9429 373.284 
L 456.401316 373.284 
L 456.401316 253.698 
L 160.9429 253.698 
z
" style="fill: #eaeaf2"/>
   </g>
   <g id="matplotlib.axis_7">
    <g id="xtick_13">
     <g id="line2d_37">
      <path d="M 174.372828 373.284 
L 174.372828 253.698 
" clip-path="url(#p965c160c65)" style="fill: none; stroke: #ffffff; stroke-linecap: round"/>
     </g>
     <g id="text_7">
      <!-- 0 -->
      <g style="fill: #262626" transform="translate(167.02414 400.336391) scale(0.231 -0.231)">
       <use xlink:href="#DejaVuSans-30"/>
      </g>
     </g>
    </g>
    <g id="xtick_14">
     <g id="line2d_38">
      <path d="M 266.484817 373.284 
L 266.484817 253.698 
" clip-path="url(#p965c160c65)" style="fill: none; stroke: #ffffff; stroke-linecap: round"/>
     </g>
     <g id="text_8">
      <!-- 250 -->
      <g style="fill: #262626" transform="translate(244.438755 400.336391) scale(0.231 -0.231)">
       <defs>
        <path id="DejaVuSans-32" d="M 1228 531 
L 3431 531 
L 3431 0 
L 469 0 
L 469 531 
Q 828 903 1448 1529 
Q 2069 2156 2228 2338 
Q 2531 2678 2651 2914 
Q 2772 3150 2772 3378 
Q 2772 3750 2511 3984 
Q 2250 4219 1831 4219 
Q 1534 4219 1204 4116 
Q 875 4013 500 3803 
L 500 4441 
Q 881 4594 1212 4672 
Q 1544 4750 1819 4750 
Q 2544 4750 2975 4387 
Q 3406 4025 3406 3419 
Q 3406 3131 3298 2873 
Q 3191 2616 2906 2266 
Q 2828 2175 2409 1742 
Q 1991 1309 1228 531 
z
" transform="scale(0.015625)"/>
       </defs>
       <use xlink:href="#DejaVuSans-32"/>
       <use xlink:href="#DejaVuSans-35" x="63.623047"/>
       <use xlink:href="#DejaVuSans-30" x="127.246094"/>
      </g>
     </g>
    </g>
    <g id="xtick_15">
     <g id="line2d_39">
      <path d="M 358.596806 373.284 
L 358.596806 253.698 
" clip-path="url(#p965c160c65)" style="fill: none; stroke: #ffffff; stroke-linecap: round"/>
     </g>
     <g id="text_9">
      <!-- 500 -->
      <g style="fill: #262626" transform="translate(336.550744 400.336391) scale(0.231 -0.231)">
       <use xlink:href="#DejaVuSans-35"/>
       <use xlink:href="#DejaVuSans-30" x="63.623047"/>
       <use xlink:href="#DejaVuSans-30" x="127.246094"/>
      </g>
     </g>
    </g>
    <g id="xtick_16">
     <g id="line2d_40">
      <path d="M 450.708795 373.284 
L 450.708795 253.698 
" clip-path="url(#p965c160c65)" style="fill: none; stroke: #ffffff; stroke-linecap: round"/>
     </g>
     <g id="text_10">
      <!-- 750 -->
      <g style="fill: #262626" transform="translate(428.662733 400.336391) scale(0.231 -0.231)">
       <defs>
        <path id="DejaVuSans-37" d="M 525 4666 
L 3525 4666 
L 3525 4397 
L 1831 0 
L 1172 0 
L 2766 4134 
L 525 4134 
L 525 4666 
z
" transform="scale(0.015625)"/>
       </defs>
       <use xlink:href="#DejaVuSans-37"/>
       <use xlink:href="#DejaVuSans-35" x="63.623047"/>
       <use xlink:href="#DejaVuSans-30" x="127.246094"/>
      </g>
     </g>
    </g>
    <g id="text_11">
     <!-- step -->
     <g style="fill: #262626" transform="translate(281.416733 428.288531) scale(0.252 -0.252)">
      <defs>
       <path id="DejaVuSans-73" d="M 2834 3397 
L 2834 2853 
Q 2591 2978 2328 3040 
Q 2066 3103 1784 3103 
Q 1356 3103 1142 2972 
Q 928 2841 928 2578 
Q 928 2378 1081 2264 
Q 1234 2150 1697 2047 
L 1894 2003 
Q 2506 1872 2764 1633 
Q 3022 1394 3022 966 
Q 3022 478 2636 193 
Q 2250 -91 1575 -91 
Q 1294 -91 989 -36 
Q 684 19 347 128 
L 347 722 
Q 666 556 975 473 
Q 1284 391 1588 391 
Q 1994 391 2212 530 
Q 2431 669 2431 922 
Q 2431 1156 2273 1281 
Q 2116 1406 1581 1522 
L 1381 1569 
Q 847 1681 609 1914 
Q 372 2147 372 2553 
Q 372 3047 722 3315 
Q 1072 3584 1716 3584 
Q 2034 3584 2315 3537 
Q 2597 3491 2834 3397 
z
" transform="scale(0.015625)"/>
       <path id="DejaVuSans-74" d="M 1172 4494 
L 1172 3500 
L 2356 3500 
L 2356 3053 
L 1172 3053 
L 1172 1153 
Q 1172 725 1289 603 
Q 1406 481 1766 481 
L 2356 481 
L 2356 0 
L 1766 0 
Q 1100 0 847 248 
Q 594 497 594 1153 
L 594 3053 
L 172 3053 
L 172 3500 
L 594 3500 
L 594 4494 
L 1172 4494 
z
" transform="scale(0.015625)"/>
       <path id="DejaVuSans-70" d="M 1159 525 
L 1159 -1331 
L 581 -1331 
L 581 3500 
L 1159 3500 
L 1159 2969 
Q 1341 3281 1617 3432 
Q 1894 3584 2278 3584 
Q 2916 3584 3314 3078 
Q 3713 2572 3713 1747 
Q 3713 922 3314 415 
Q 2916 -91 2278 -91 
Q 1894 -91 1617 61 
Q 1341 213 1159 525 
z
M 3116 1747 
Q 3116 2381 2855 2742 
Q 2594 3103 2138 3103 
Q 1681 3103 1420 2742 
Q 1159 2381 1159 1747 
Q 1159 1113 1420 752 
Q 1681 391 2138 391 
Q 2594 391 2855 752 
Q 3116 1113 3116 1747 
z
" transform="scale(0.015625)"/>
      </defs>
      <use xlink:href="#DejaVuSans-73"/>
      <use xlink:href="#DejaVuSans-74" x="52.099609"/>
      <use xlink:href="#DejaVuSans-65" x="91.308594"/>
      <use xlink:href="#DejaVuSans-70" x="152.832031"/>
     </g>
    </g>
   </g>
   <g id="matplotlib.axis_8">
    <g id="ytick_7">
     <g id="line2d_41">
      <path d="M 160.9429 324.668175 
L 456.401316 324.668175 
" clip-path="url(#p965c160c65)" style="fill: none; stroke: #ffffff; stroke-linecap: round"/>
     </g>
     <g id="text_12">
      <!-- −10 -->
      <g style="fill: #262626" transform="translate(102.691072 333.44437) scale(0.231 -0.231)">
       <use xlink:href="#DejaVuSans-2212"/>
       <use xlink:href="#DejaVuSans-31" x="83.789062"/>
       <use xlink:href="#DejaVuSans-30" x="147.412109"/>
      </g>
     </g>
    </g>
    <g id="ytick_8">
     <g id="line2d_42">
      <path d="M 160.9429 273.930337 
L 456.401316 273.930337 
" clip-path="url(#p965c160c65)" style="fill: none; stroke: #ffffff; stroke-linecap: round"/>
     </g>
     <g id="text_13">
      <!-- 0 -->
      <g style="fill: #262626" transform="translate(136.745525 282.706533) scale(0.231 -0.231)">
       <use xlink:href="#DejaVuSans-30"/>
      </g>
     </g>
    </g>
    <g id="text_14">
     <!-- % change -->
     <g style="fill: #262626" transform="translate(93.450259 375.839344) rotate(-90) scale(0.252 -0.252)">
      <use xlink:href="#DejaVuSans-25"/>
      <use xlink:href="#DejaVuSans-20" x="95.019531"/>
      <use xlink:href="#DejaVuSans-63" x="126.806641"/>
      <use xlink:href="#DejaVuSans-68" x="181.787109"/>
      <use xlink:href="#DejaVuSans-61" x="245.166016"/>
      <use xlink:href="#DejaVuSans-6e" x="306.445312"/>
      <use xlink:href="#DejaVuSans-67" x="369.824219"/>
      <use xlink:href="#DejaVuSans-65" x="433.300781"/>
     </g>
    </g>
   </g>
   <g id="PolyCollection_19"/>
   <g id="PolyCollection_20"/>
   <g id="PolyCollection_21"/>
   <g id="PolyCollection_22"/>
   <g id="PolyCollection_23"/>
   <g id="PolyCollection_24"/>
   <g id="line2d_43">
    <path d="M 174.372828 273.930337 
L 174.741276 276.498715 
L 175.478172 276.614467 
L 179.531099 276.611894 
L 180.636443 276.219202 
L 182.847131 275.455848 
L 185.426267 274.824993 
L 188.37385 274.348988 
L 192.05833 273.998938 
L 197.216601 273.767125 
L 205.690904 273.643948 
L 226.32399 273.621484 
L 259.852754 273.76207 
L 334.279241 273.87168 
L 442.971388 273.882453 
L 442.971388 273.882453 
" clip-path="url(#p965c160c65)" style="fill: none; stroke: #4c72b0; stroke-opacity: 0.9; stroke-width: 3; stroke-linecap: round"/>
   </g>
   <g id="line2d_44">
    <path d="M 174.372828 273.930337 
L 174.741276 275.331145 
L 175.84662 275.419028 
L 179.899547 275.356421 
L 183.952475 274.575681 
L 187.268506 274.221508 
L 191.689882 273.977659 
L 199.058841 273.833165 
L 217.112791 273.780587 
L 277.169808 273.857261 
L 372.229381 273.89993 
L 442.971388 273.902495 
L 442.971388 273.902495 
" clip-path="url(#p965c160c65)" style="fill: none; stroke: #dd8452; stroke-opacity: 0.9; stroke-width: 3; stroke-linecap: round"/>
   </g>
   <g id="line2d_45">
    <path d="M 174.372828 273.930337 
L 174.741276 276.621601 
L 175.478172 276.805904 
L 179.531099 276.808326 
L 180.267995 276.644781 
L 182.847131 275.848735 
L 185.794715 275.201815 
L 189.110746 274.70553 
L 192.426778 274.402122 
L 195.374361 274.352014 
L 199.427289 274.641402 
L 203.848664 274.834316 
L 207.901592 274.786104 
L 217.112791 274.60164 
L 238.114324 274.827214 
L 263.537233 274.927424 
L 277.906704 274.757193 
L 291.907726 274.354462 
L 312.172364 273.756593 
L 328.752522 273.794961 
L 395.441602 273.857333 
L 442.971388 273.859612 
L 442.971388 273.859612 
" clip-path="url(#p965c160c65)" style="fill: none; stroke: #55a868; stroke-opacity: 0.9; stroke-width: 3; stroke-linecap: round"/>
   </g>
   <g id="line2d_46">
    <path d="M 174.372828 273.930337 
L 174.741276 276.045447 
L 175.478172 276.192913 
L 179.531099 276.194707 
L 180.267995 276.069719 
L 183.215579 275.354916 
L 186.531611 274.813943 
L 190.584538 274.40549 
L 193.90057 274.306133 
L 196.848153 274.486883 
L 202.374873 274.939725 
L 206.4278 275.028353 
L 213.796759 274.949679 
L 225.955542 274.747119 
L 245.851732 274.82777 
L 260.58965 274.687203 
L 274.590672 274.312679 
L 294.118414 273.798351 
L 307.38254 273.78028 
L 385.493507 273.868763 
L 442.971388 273.870231 
L 442.971388 273.870231 
" clip-path="url(#p965c160c65)" style="fill: none; stroke: #c44e52; stroke-opacity: 0.9; stroke-width: 3; stroke-linecap: round"/>
   </g>
   <g id="line2d_47">
    <path d="M 174.372828 273.930337 
L 174.741276 276.396092 
L 175.478172 276.523612 
L 179.899547 276.484373 
L 182.847131 275.40481 
L 185.426267 274.76653 
L 188.37385 274.29823 
L 192.05833 273.97079 
L 197.216601 273.761068 
L 206.4278 273.651143 
L 230.376917 273.6762 
L 287.117903 273.805464 
L 431.91795 273.884119 
L 442.971388 273.884346 
L 442.971388 273.884346 
" clip-path="url(#p965c160c65)" style="fill: none; stroke: #8172b3; stroke-opacity: 0.9; stroke-width: 3; stroke-linecap: round"/>
   </g>
   <g id="line2d_48">
    <path d="M 174.372828 273.930337 
L 174.741276 275.908897 
L 175.478172 275.997466 
L 179.899547 275.96475 
L 182.847131 275.088315 
L 185.426267 274.583384 
L 188.742298 274.18892 
L 193.163674 273.92685 
L 200.164185 273.77535 
L 216.007447 273.719361 
L 259.115858 273.795728 
L 382.914371 273.884639 
L 442.971388 273.890398 
L 442.971388 273.890398 
" clip-path="url(#p965c160c65)" style="fill: none; stroke: #937860; stroke-opacity: 0.9; stroke-width: 3; stroke-linecap: round"/>
   </g>
   <g id="patch_12">
    <path d="M 160.9429 373.284 
L 160.9429 253.698 
" style="fill: none; stroke: #ffffff; stroke-width: 1.25; stroke-linejoin: miter; stroke-linecap: square"/>
   </g>
   <g id="patch_13">
    <path d="M 160.9429 373.284 
L 456.401316 373.284 
" style="fill: none; stroke: #ffffff; stroke-width: 1.25; stroke-linejoin: miter; stroke-linecap: square"/>
   </g>
   <g id="text_15">
    <!-- 0.8~365 -->
    <g style="fill: #262626" transform="translate(254.025514 247.698) scale(0.252 -0.252)">
     <use xlink:href="#DejaVuSans-30"/>
     <use xlink:href="#DejaVuSans-2e" x="63.623047"/>
     <use xlink:href="#DejaVuSans-38" x="95.410156"/>
     <use xlink:href="#DejaVuSans-7e" x="159.033203"/>
     <use xlink:href="#DejaVuSans-33" x="242.822266"/>
     <use xlink:href="#DejaVuSans-36" x="306.445312"/>
     <use xlink:href="#DejaVuSans-35" x="370.068359"/>
    </g>
   </g>
  </g>
  <g id="axes_5">
   <g id="patch_14">
    <path d="M 483.047028 373.284 
L 778.505445 373.284 
L 778.505445 253.698 
L 483.047028 253.698 
z
" style="fill: #eaeaf2"/>
   </g>
   <g id="matplotlib.axis_9">
    <g id="xtick_17">
     <g id="line2d_49">
      <path d="M 496.476956 373.284 
L 496.476956 253.698 
" clip-path="url(#pa3bf70e29e)" style="fill: none; stroke: #ffffff; stroke-linecap: round"/>
     </g>
     <g id="text_16">
      <!-- 0 -->
      <g style="fill: #262626" transform="translate(489.128269 400.336391) scale(0.231 -0.231)">
       <use xlink:href="#DejaVuSans-30"/>
      </g>
     </g>
    </g>
    <g id="xtick_18">
     <g id="line2d_50">
      <path d="M 588.588946 373.284 
L 588.588946 253.698 
" clip-path="url(#pa3bf70e29e)" style="fill: none; stroke: #ffffff; stroke-linecap: round"/>
     </g>
     <g id="text_17">
      <!-- 250 -->
      <g style="fill: #262626" transform="translate(566.542883 400.336391) scale(0.231 -0.231)">
       <use xlink:href="#DejaVuSans-32"/>
       <use xlink:href="#DejaVuSans-35" x="63.623047"/>
       <use xlink:href="#DejaVuSans-30" x="127.246094"/>
      </g>
     </g>
    </g>
    <g id="xtick_19">
     <g id="line2d_51">
      <path d="M 680.700935 373.284 
L 680.700935 253.698 
" clip-path="url(#pa3bf70e29e)" style="fill: none; stroke: #ffffff; stroke-linecap: round"/>
     </g>
     <g id="text_18">
      <!-- 500 -->
      <g style="fill: #262626" transform="translate(658.654872 400.336391) scale(0.231 -0.231)">
       <use xlink:href="#DejaVuSans-35"/>
       <use xlink:href="#DejaVuSans-30" x="63.623047"/>
       <use xlink:href="#DejaVuSans-30" x="127.246094"/>
      </g>
     </g>
    </g>
    <g id="xtick_20">
     <g id="line2d_52">
      <path d="M 772.812924 373.284 
L 772.812924 253.698 
" clip-path="url(#pa3bf70e29e)" style="fill: none; stroke: #ffffff; stroke-linecap: round"/>
     </g>
     <g id="text_19">
      <!-- 750 -->
      <g style="fill: #262626" transform="translate(750.766861 400.336391) scale(0.231 -0.231)">
       <use xlink:href="#DejaVuSans-37"/>
       <use xlink:href="#DejaVuSans-35" x="63.623047"/>
       <use xlink:href="#DejaVuSans-30" x="127.246094"/>
      </g>
     </g>
    </g>
    <g id="text_20">
     <!-- step -->
     <g style="fill: #262626" transform="translate(603.520862 428.288531) scale(0.252 -0.252)">
      <use xlink:href="#DejaVuSans-73"/>
      <use xlink:href="#DejaVuSans-74" x="52.099609"/>
      <use xlink:href="#DejaVuSans-65" x="91.308594"/>
      <use xlink:href="#DejaVuSans-70" x="152.832031"/>
     </g>
    </g>
   </g>
   <g id="matplotlib.axis_10">
    <g id="ytick_9">
     <g id="line2d_53">
      <path d="M 483.047028 324.668175 
L 778.505445 324.668175 
" clip-path="url(#pa3bf70e29e)" style="fill: none; stroke: #ffffff; stroke-linecap: round"/>
     </g>
    </g>
    <g id="ytick_10">
     <g id="line2d_54">
      <path d="M 483.047028 273.930337 
L 778.505445 273.930337 
" clip-path="url(#pa3bf70e29e)" style="fill: none; stroke: #ffffff; stroke-linecap: round"/>
     </g>
    </g>
   </g>
   <g id="PolyCollection_25"/>
   <g id="PolyCollection_26"/>
   <g id="PolyCollection_27"/>
   <g id="PolyCollection_28"/>
   <g id="PolyCollection_29"/>
   <g id="PolyCollection_30"/>
   <g id="line2d_55">
    <path d="M 496.476956 273.930337 
L 496.845404 276.498715 
L 497.5823 276.592077 
L 501.635228 276.484905 
L 502.003676 276.361569 
L 502.372124 278.185527 
L 505.688155 303.142594 
L 507.530395 315.018961 
L 509.372635 325.450784 
L 511.214875 334.478241 
L 512.688667 340.695633 
L 514.162458 346.036826 
L 515.63625 350.527271 
L 517.110042 354.219063 
L 518.215386 356.490116 
L 519.32073 358.352828 
L 520.426074 359.826441 
L 521.531418 360.93203 
L 522.636761 361.69165 
L 523.742105 362.127786 
L 524.847449 362.266499 
L 525.952793 362.142891 
L 527.058137 361.79072 
L 528.531929 361.02135 
L 530.005721 359.975801 
L 531.84796 358.359276 
L 534.058648 356.082647 
L 537.006232 352.661477 
L 540.690711 348.006902 
L 546.217431 340.627696 
L 557.639317 325.261446 
L 561.323797 320.570179 
L 562.429141 319.65607 
L 563.902933 318.776695 
L 565.376724 318.026621 
L 568.692756 316.793191 
L 571.64034 315.908732 
L 575.324819 314.91796 
L 589.325842 310.645973 
L 605.906 305.032673 
L 613.274959 302.255414 
L 620.27547 299.366365 
L 628.749773 295.611647 
L 643.119243 288.889213 
L 650.488202 285.503321 
L 657.857161 282.371029 
L 665.963017 279.296013 
L 672.59508 277.062696 
L 680.332487 274.612681 
L 685.490758 273.230868 
L 695.438853 270.829313 
L 703.544708 269.076181 
L 712.019011 267.493505 
L 721.23021 266.007853 
L 731.178305 264.636954 
L 741.863296 263.395516 
L 753.65363 262.259167 
L 765.075517 261.345499 
L 765.075517 261.345499 
" clip-path="url(#pa3bf70e29e)" style="fill: none; stroke: #4c72b0; stroke-opacity: 0.9; stroke-width: 3; stroke-linecap: round"/>
   </g>
   <g id="line2d_56">
    <path d="M 496.476956 273.930337 
L 496.845404 275.331145 
L 497.950748 275.402752 
L 502.003676 275.269999 
L 502.372124 276.619952 
L 504.582811 288.99532 
L 506.056603 296.04292 
L 507.530395 302.147205 
L 509.004187 307.350298 
L 510.477979 311.692136 
L 511.951771 315.226789 
L 513.057114 317.386599 
L 514.162458 319.157896 
L 515.267802 320.57666 
L 516.373146 321.677736 
L 517.47849 322.493822 
L 518.583834 323.04713 
L 519.689178 323.36445 
L 520.794522 323.476778 
L 522.268313 323.361802 
L 523.742105 323.002881 
L 525.584345 322.292325 
L 527.795033 321.163722 
L 530.742616 319.355453 
L 534.058648 317.050407 
L 539.585367 312.877251 
L 544.375191 308.990294 
L 551.375702 302.952214 
L 556.533973 298.614047 
L 558.376213 297.307484 
L 559.481557 296.721766 
L 561.323797 296.269776 
L 563.534485 296.022349 
L 570.166548 295.921705 
L 580.114643 295.64987 
L 588.588946 295.906144 
L 616.222542 297.118927 
L 623.223054 297.075219 
L 628.381325 296.820932 
L 633.539596 296.346132 
L 638.697868 295.644649 
L 643.856139 294.714662 
L 649.014411 293.555302 
L 653.804234 292.246076 
L 658.962505 290.59466 
L 664.489225 288.579634 
L 670.75284 286.050443 
L 679.595591 282.432149 
L 687.332998 279.201516 
L 691.017478 277.70606 
L 702.070916 274.196528 
L 711.650563 271.029399 
L 724.546242 267.227884 
L 733.020545 265.091991 
L 741.494848 263.195515 
L 750.706047 261.461197 
L 760.285693 259.857272 
L 765.075517 259.133727 
L 765.075517 259.133727 
" clip-path="url(#pa3bf70e29e)" style="fill: none; stroke: #dd8452; stroke-opacity: 0.9; stroke-width: 3; stroke-linecap: round"/>
   </g>
   <g id="line2d_57">
    <path d="M 496.476956 273.930337 
L 496.845404 276.621601 
L 497.5823 276.782611 
L 501.635228 276.651584 
L 502.003676 276.517054 
L 502.372124 276.845762 
L 503.10902 278.892806 
L 507.161947 291.188493 
L 509.004187 295.827928 
L 510.846427 299.811303 
L 512.688667 303.205594 
L 514.530906 306.061156 
L 516.004698 307.973728 
L 517.47849 309.582578 
L 518.952282 310.909684 
L 520.426074 311.977306 
L 521.899865 312.806477 
L 523.373657 313.422184 
L 524.847449 313.840726 
L 526.689689 314.125653 
L 528.531929 314.196737 
L 530.742616 314.037915 
L 533.321752 313.616568 
L 536.269336 312.90803 
L 539.953815 311.792089 
L 544.375191 310.209643 
L 549.165014 308.274793 
L 565.376724 301.484079 
L 568.692756 300.308698 
L 572.377236 299.232486 
L 579.746195 297.356735 
L 589.325842 294.902373 
L 597.800145 292.489315 
L 608.853583 289.102277 
L 626.539085 283.677582 
L 635.381836 281.224641 
L 644.224587 279.005018 
L 653.067338 277.019704 
L 661.910089 275.258261 
L 670.75284 273.707708 
L 680.332487 272.251726 
L 690.64903 270.916838 
L 702.070916 269.673849 
L 714.229699 268.57964 
L 727.862273 267.580383 
L 743.705535 266.648741 
L 761.022589 265.853677 
L 765.075517 265.700708 
L 765.075517 265.700708 
" clip-path="url(#pa3bf70e29e)" style="fill: none; stroke: #55a868; stroke-opacity: 0.9; stroke-width: 3; stroke-linecap: round"/>
   </g>
   <g id="line2d_58">
    <path d="M 496.476956 273.930337 
L 496.845404 276.045447 
L 497.5823 276.174428 
L 501.635228 276.070418 
L 502.003676 275.963147 
L 502.372124 276.308676 
L 503.477468 279.439525 
L 505.688155 286.074336 
L 507.530395 290.991408 
L 509.372635 295.253032 
L 511.214875 298.913889 
L 513.057114 302.009045 
L 514.530906 304.100839 
L 516.004698 305.87541 
L 517.47849 307.356711 
L 518.952282 308.568171 
L 520.426074 309.535601 
L 521.899865 310.282064 
L 523.742105 310.945751 
L 525.584345 311.351206 
L 527.426585 311.548667 
L 529.637273 311.556139 
L 532.216408 311.317719 
L 535.163992 310.785254 
L 538.480024 309.93507 
L 542.532951 308.63204 
L 549.165014 306.217785 
L 559.113109 302.293868 
L 565.376724 299.968389 
L 570.166548 298.395746 
L 575.324819 296.941653 
L 600.37928 290.15963 
L 624.696845 283.236956 
L 634.64494 280.6647 
L 643.856139 278.512342 
L 653.067338 276.578285 
L 662.278537 274.865609 
L 671.489736 273.378577 
L 681.437831 272.009601 
L 692.122821 270.760783 
L 704.281604 269.567168 
L 717.54573 268.49319 
L 733.757441 267.412213 
L 751.442943 266.453696 
L 765.075517 265.851665 
L 765.075517 265.851665 
" clip-path="url(#pa3bf70e29e)" style="fill: none; stroke: #c44e52; stroke-opacity: 0.9; stroke-width: 3; stroke-linecap: round"/>
   </g>
   <g id="line2d_59">
    <path d="M 496.476956 273.930337 
L 496.845404 276.396092 
L 497.5823 276.500717 
L 502.003676 276.31512 
L 502.372124 276.264285 
L 502.740572 276.988495 
L 505.319707 286.089355 
L 506.793499 290.160657 
L 508.267291 293.429415 
L 509.372635 295.415449 
L 510.477979 297.052235 
L 511.583323 298.379731 
L 512.688667 299.42983 
L 513.79401 300.233993 
L 514.899354 300.825461 
L 516.373146 301.331233 
L 517.846938 301.571952 
L 519.689178 301.61215 
L 521.531418 301.429473 
L 523.742105 300.996958 
L 526.689689 300.176055 
L 531.111064 298.66528 
L 536.269336 296.65181 
L 543.638295 293.529634 
L 551.74415 290.070897 
L 554.691734 289.260774 
L 557.270869 288.788757 
L 562.429141 287.996612 
L 565.376724 287.744141 
L 568.324308 287.749429 
L 582.32533 288.183999 
L 593.010321 288.338626 
L 602.958416 288.2302 
L 616.59099 287.90214 
L 622.854606 287.450783 
L 628.012877 286.879364 
L 633.171148 286.077451 
L 639.434764 284.862778 
L 644.961483 283.823417 
L 652.330442 282.976351 
L 660.067849 282.269657 
L 665.963017 282.280052 
L 675.174215 282.252152 
L 684.385414 282.124467 
L 695.070405 282.016925 
L 700.965572 281.969932 
L 721.598658 281.434121 
L 729.336065 281.592214 
L 758.075006 282.624686 
L 764.707069 283.153105 
L 765.075517 283.188611 
L 765.075517 283.188611 
" clip-path="url(#pa3bf70e29e)" style="fill: none; stroke: #8172b3; stroke-opacity: 0.9; stroke-width: 3; stroke-linecap: round"/>
   </g>
   <g id="line2d_60">
    <path d="M 496.476956 273.930337 
L 496.845404 275.908897 
L 497.5823 275.979942 
L 502.003676 275.824504 
L 502.372124 275.77896 
L 502.740572 276.421301 
L 504.951259 283.134323 
L 506.425051 286.685278 
L 507.898843 289.521752 
L 509.004187 291.235785 
L 510.109531 292.643631 
L 511.214875 293.784073 
L 512.688667 294.941428 
L 514.162458 295.746488 
L 515.63625 296.26506 
L 517.47849 296.629871 
L 519.32073 296.781346 
L 521.531418 296.734445 
L 524.110553 296.45305 
L 527.426585 295.853786 
L 531.84796 294.809917 
L 537.743128 293.160681 
L 544.375191 291.073161 
L 551.375702 288.841436 
L 553.954838 288.298512 
L 557.639317 287.764016 
L 563.534485 287.052763 
L 567.587412 286.535346 
L 584.904466 284.902526 
L 599.273936 283.704442 
L 609.222031 282.893791 
L 622.854606 281.598134 
L 629.118221 281.333066 
L 635.013388 281.253424 
L 645.329931 281.20454 
L 649.382858 280.889742 
L 660.436297 279.919184 
L 668.173704 279.242722 
L 672.59508 278.899755 
L 680.332487 278.751012 
L 688.80679 278.44285 
L 702.070916 277.900656 
L 707.597636 277.978346 
L 716.071939 278.309211 
L 724.91469 278.885758 
L 734.494336 279.710613 
L 747.390015 280.784238 
L 758.075006 281.469463 
L 765.075517 281.798253 
L 765.075517 281.798253 
" clip-path="url(#pa3bf70e29e)" style="fill: none; stroke: #937860; stroke-opacity: 0.9; stroke-width: 3; stroke-linecap: round"/>
   </g>
   <g id="patch_15">
    <path d="M 483.047028 373.284 
L 483.047028 253.698 
" style="fill: none; stroke: #ffffff; stroke-width: 1.25; stroke-linejoin: miter; stroke-linecap: square"/>
   </g>
   <g id="patch_16">
    <path d="M 483.047028 373.284 
L 778.505445 373.284 
" style="fill: none; stroke: #ffffff; stroke-width: 1.25; stroke-linejoin: miter; stroke-linecap: square"/>
   </g>
   <g id="text_21">
    <!-- 0.999~30 -->
    <g style="fill: #262626" transform="translate(568.112893 247.698) scale(0.252 -0.252)">
     <defs>
      <path id="DejaVuSans-39" d="M 703 97 
L 703 672 
Q 941 559 1184 500 
Q 1428 441 1663 441 
Q 2288 441 2617 861 
Q 2947 1281 2994 2138 
Q 2813 1869 2534 1725 
Q 2256 1581 1919 1581 
Q 1219 1581 811 2004 
Q 403 2428 403 3163 
Q 403 3881 828 4315 
Q 1253 4750 1959 4750 
Q 2769 4750 3195 4129 
Q 3622 3509 3622 2328 
Q 3622 1225 3098 567 
Q 2575 -91 1691 -91 
Q 1453 -91 1209 -44 
Q 966 3 703 97 
z
M 1959 2075 
Q 2384 2075 2632 2365 
Q 2881 2656 2881 3163 
Q 2881 3666 2632 3958 
Q 2384 4250 1959 4250 
Q 1534 4250 1286 3958 
Q 1038 3666 1038 3163 
Q 1038 2656 1286 2365 
Q 1534 2075 1959 2075 
z
" transform="scale(0.015625)"/>
     </defs>
     <use xlink:href="#DejaVuSans-30"/>
     <use xlink:href="#DejaVuSans-2e" x="63.623047"/>
     <use xlink:href="#DejaVuSans-39" x="95.410156"/>
     <use xlink:href="#DejaVuSans-39" x="159.033203"/>
     <use xlink:href="#DejaVuSans-39" x="222.65625"/>
     <use xlink:href="#DejaVuSans-7e" x="286.279297"/>
     <use xlink:href="#DejaVuSans-33" x="370.068359"/>
     <use xlink:href="#DejaVuSans-30" x="433.691406"/>
    </g>
   </g>
  </g>
  <g id="axes_6">
   <g id="patch_17">
    <path d="M 805.151157 373.284 
L 1100.609573 373.284 
L 1100.609573 253.698 
L 805.151157 253.698 
z
" style="fill: #eaeaf2"/>
   </g>
   <g id="matplotlib.axis_11">
    <g id="xtick_21">
     <g id="line2d_61">
      <path d="M 818.581085 373.284 
L 818.581085 253.698 
" clip-path="url(#p05cd8f14f6)" style="fill: none; stroke: #ffffff; stroke-linecap: round"/>
     </g>
     <g id="text_22">
      <!-- 0 -->
      <g style="fill: #262626" transform="translate(811.232397 400.336391) scale(0.231 -0.231)">
       <use xlink:href="#DejaVuSans-30"/>
      </g>
     </g>
    </g>
    <g id="xtick_22">
     <g id="line2d_62">
      <path d="M 910.693074 373.284 
L 910.693074 253.698 
" clip-path="url(#p05cd8f14f6)" style="fill: none; stroke: #ffffff; stroke-linecap: round"/>
     </g>
     <g id="text_23">
      <!-- 250 -->
      <g style="fill: #262626" transform="translate(888.647012 400.336391) scale(0.231 -0.231)">
       <use xlink:href="#DejaVuSans-32"/>
       <use xlink:href="#DejaVuSans-35" x="63.623047"/>
       <use xlink:href="#DejaVuSans-30" x="127.246094"/>
      </g>
     </g>
    </g>
    <g id="xtick_23">
     <g id="line2d_63">
      <path d="M 1002.805063 373.284 
L 1002.805063 253.698 
" clip-path="url(#p05cd8f14f6)" style="fill: none; stroke: #ffffff; stroke-linecap: round"/>
     </g>
     <g id="text_24">
      <!-- 500 -->
      <g style="fill: #262626" transform="translate(980.759001 400.336391) scale(0.231 -0.231)">
       <use xlink:href="#DejaVuSans-35"/>
       <use xlink:href="#DejaVuSans-30" x="63.623047"/>
       <use xlink:href="#DejaVuSans-30" x="127.246094"/>
      </g>
     </g>
    </g>
    <g id="xtick_24">
     <g id="line2d_64">
      <path d="M 1094.917053 373.284 
L 1094.917053 253.698 
" clip-path="url(#p05cd8f14f6)" style="fill: none; stroke: #ffffff; stroke-linecap: round"/>
     </g>
     <g id="text_25">
      <!-- 750 -->
      <g style="fill: #262626" transform="translate(1072.87099 400.336391) scale(0.231 -0.231)">
       <use xlink:href="#DejaVuSans-37"/>
       <use xlink:href="#DejaVuSans-35" x="63.623047"/>
       <use xlink:href="#DejaVuSans-30" x="127.246094"/>
      </g>
     </g>
    </g>
    <g id="text_26">
     <!-- step -->
     <g style="fill: #262626" transform="translate(925.62499 428.288531) scale(0.252 -0.252)">
      <use xlink:href="#DejaVuSans-73"/>
      <use xlink:href="#DejaVuSans-74" x="52.099609"/>
      <use xlink:href="#DejaVuSans-65" x="91.308594"/>
      <use xlink:href="#DejaVuSans-70" x="152.832031"/>
     </g>
    </g>
   </g>
   <g id="matplotlib.axis_12">
    <g id="ytick_11">
     <g id="line2d_65">
      <path d="M 805.151157 324.668175 
L 1100.609573 324.668175 
" clip-path="url(#p05cd8f14f6)" style="fill: none; stroke: #ffffff; stroke-linecap: round"/>
     </g>
    </g>
    <g id="ytick_12">
     <g id="line2d_66">
      <path d="M 805.151157 273.930337 
L 1100.609573 273.930337 
" clip-path="url(#p05cd8f14f6)" style="fill: none; stroke: #ffffff; stroke-linecap: round"/>
     </g>
    </g>
   </g>
   <g id="PolyCollection_31"/>
   <g id="PolyCollection_32"/>
   <g id="PolyCollection_33"/>
   <g id="PolyCollection_34"/>
   <g id="PolyCollection_35"/>
   <g id="PolyCollection_36"/>
   <g id="line2d_67">
    <path d="M 818.581085 273.930337 
L 818.949533 276.498715 
L 819.686429 276.614467 
L 824.107804 276.577796 
L 824.476252 278.348213 
L 827.792284 303.285848 
L 829.634524 315.221357 
L 831.476763 325.74911 
L 833.319003 334.924265 
L 834.792795 341.312381 
L 836.266587 346.881165 
L 837.740379 351.663707 
L 839.214171 355.700872 
L 840.687962 359.040719 
L 842.161754 361.737664 
L 843.267098 363.373847 
L 844.372442 364.71101 
L 845.477786 365.776237 
L 846.58313 366.593601 
L 847.688474 367.186425 
L 848.793817 367.57986 
L 850.267609 367.829884 
L 851.741401 367.802454 
L 853.215193 367.537211 
L 854.688985 367.067888 
L 856.531225 366.239229 
L 858.741912 364.954787 
L 861.321048 363.146419 
L 864.268632 360.79024 
L 867.953111 357.557302 
L 872.374487 353.390449 
L 877.901206 347.878964 
L 896.692052 328.808314 
L 898.165844 327.84023 
L 899.639635 327.107623 
L 909.58773 323.442983 
L 915.851346 321.585746 
L 925.430992 318.716691 
L 936.115983 316.06025 
L 947.906318 313.49713 
L 964.118028 310.438607 
L 987.698697 305.953075 
L 1003.910407 302.615149 
L 1021.227461 298.816986 
L 1047.018818 292.880668 
L 1073.915519 286.452595 
L 1086.811197 283.457364 
L 1087.179645 283.375395 
L 1087.179645 283.375395 
" clip-path="url(#p05cd8f14f6)" style="fill: none; stroke: #4c72b0; stroke-opacity: 0.9; stroke-width: 3; stroke-linecap: round"/>
   </g>
   <g id="line2d_68">
    <path d="M 818.581085 273.930337 
L 818.949533 275.331145 
L 820.054877 275.419028 
L 824.107804 275.370578 
L 824.476252 276.70607 
L 826.68694 289.066121 
L 828.160732 296.125368 
L 829.634524 302.25815 
L 831.108315 307.512391 
L 832.582107 311.939333 
L 834.055899 315.601025 
L 835.529691 318.56895 
L 837.003483 320.919788 
L 838.477275 322.739503 
L 839.582618 323.798884 
L 841.05641 324.858423 
L 842.530202 325.575435 
L 844.003994 326.011037 
L 845.477786 326.214087 
L 847.320026 326.202752 
L 849.162265 325.956962 
L 851.372953 325.42117 
L 853.952089 324.546951 
L 857.26812 323.159226 
L 862.057944 320.8639 
L 867.216215 318.139361 
L 874.216726 314.172358 
L 887.849301 306.31642 
L 891.53378 304.268928 
L 893.37602 303.506015 
L 895.586708 302.761146 
L 899.639635 301.639313 
L 902.587219 301.207107 
L 906.271699 301.204548 
L 915.11445 301.115552 
L 921.378065 300.778773 
L 928.010128 300.186022 
L 935.010639 299.325743 
L 946.064078 297.892955 
L 954.906829 297.144155 
L 961.538892 296.824703 
L 988.804041 295.788869 
L 1002.068167 295.003819 
L 1016.06919 293.950749 
L 1032.649348 292.471301 
L 1056.598465 290.082012 
L 1087.179645 286.818132 
L 1087.179645 286.818132 
" clip-path="url(#p05cd8f14f6)" style="fill: none; stroke: #dd8452; stroke-opacity: 0.9; stroke-width: 3; stroke-linecap: round"/>
   </g>
   <g id="line2d_69">
    <path d="M 818.581085 273.930337 
L 818.949533 276.621601 
L 819.686429 276.805904 
L 823.739356 276.813264 
L 824.107804 276.774488 
L 824.476252 277.141168 
L 825.213148 279.133239 
L 829.266076 291.239888 
L 831.108315 295.840273 
L 832.950555 299.824214 
L 834.792795 303.237756 
L 836.635035 306.129783 
L 838.477275 308.554302 
L 840.319514 310.559371 
L 842.161754 312.181818 
L 844.003994 313.471756 
L 845.846234 314.468196 
L 847.688474 315.211099 
L 849.530713 315.738217 
L 851.741401 316.138831 
L 853.952089 316.320735 
L 856.531225 316.308 
L 859.478808 316.085798 
L 863.163288 315.560766 
L 866.847767 314.809455 
L 871.637591 313.603158 
L 876.427414 312.167479 
L 882.322581 310.150862 
L 904.061011 302.588774 
L 909.58773 300.990871 
L 916.219793 299.282535 
L 926.536336 296.866604 
L 968.907851 287.355399 
L 982.540426 284.589725 
L 993.962312 282.492497 
L 1004.278855 280.822229 
L 1015.332294 279.259353 
L 1026.385733 277.921876 
L 1038.176067 276.722654 
L 1051.071746 275.641672 
L 1065.072768 274.69701 
L 1080.91603 273.854834 
L 1087.179645 273.576952 
L 1087.179645 273.576952 
" clip-path="url(#p05cd8f14f6)" style="fill: none; stroke: #55a868; stroke-opacity: 0.9; stroke-width: 3; stroke-linecap: round"/>
   </g>
   <g id="line2d_70">
    <path d="M 818.581085 273.930337 
L 818.949533 276.045447 
L 819.686429 276.192913 
L 823.739356 276.199656 
L 824.107804 276.172113 
L 824.476252 276.525212 
L 825.581596 279.607231 
L 828.160732 287.153263 
L 830.002972 291.878591 
L 831.845211 295.990974 
L 833.687451 299.517827 
L 835.529691 302.508728 
L 837.371931 305.01982 
L 839.214171 307.09095 
L 841.05641 308.776984 
L 842.89865 310.126414 
L 844.74089 311.191404 
L 846.58313 312.012953 
L 848.793817 312.732777 
L 851.004505 313.20653 
L 853.583641 313.505061 
L 856.531225 313.577845 
L 859.478808 313.42296 
L 862.79484 313.034759 
L 866.847767 312.318253 
L 872.006039 311.153408 
L 877.532758 309.673576 
L 883.796373 307.770653 
L 894.112916 304.327032 
L 902.587219 301.612344 
L 909.956178 299.460849 
L 917.693585 297.41111 
L 929.48392 294.507986 
L 941.642703 291.698463 
L 955.643725 288.692266 
L 970.750091 285.685345 
L 984.382665 283.19462 
L 996.541448 281.194148 
L 1007.594887 279.59728 
L 1017.91143 278.330817 
L 1029.333316 277.169708 
L 1041.860547 276.12877 
L 1056.230017 275.159223 
L 1072.810175 274.264698 
L 1087.179645 273.645954 
L 1087.179645 273.645954 
" clip-path="url(#p05cd8f14f6)" style="fill: none; stroke: #c44e52; stroke-opacity: 0.9; stroke-width: 3; stroke-linecap: round"/>
   </g>
   <g id="line2d_71">
    <path d="M 818.581085 273.930337 
L 818.949533 276.396092 
L 819.686429 276.523612 
L 824.476252 276.545984 
L 824.8447 277.139338 
L 827.792284 287.265326 
L 829.266076 291.208485 
L 830.739868 294.404854 
L 832.213659 296.961961 
L 833.687451 298.979056 
L 835.161243 300.544389 
L 836.635035 301.733419 
L 838.108827 302.612653 
L 839.582618 303.240024 
L 841.424858 303.749518 
L 843.267098 304.022815 
L 845.477786 304.110014 
L 848.056921 303.965544 
L 851.004505 303.566572 
L 854.688985 302.827473 
L 859.478808 301.624474 
L 865.005528 300.001519 
L 871.637591 297.821696 
L 879.374998 295.033633 
L 886.375509 292.531467 
L 888.586197 292.083561 
L 891.165332 291.821122 
L 902.587219 291.167659 
L 911.42997 290.8067 
L 919.904273 290.868495 
L 929.115472 291.12829 
L 939.800463 291.625315 
L 951.590797 292.080784 
L 961.170444 292.223145 
L 971.118539 292.141099 
L 981.435082 291.836769 
L 995.804552 291.164451 
L 1010.174022 290.267101 
L 1030.807108 288.721004 
L 1040.755203 287.819162 
L 1052.913985 286.46428 
L 1074.652415 284.025225 
L 1084.60051 283.220845 
L 1087.179645 283.108372 
L 1087.179645 283.108372 
" clip-path="url(#p05cd8f14f6)" style="fill: none; stroke: #8172b3; stroke-opacity: 0.9; stroke-width: 3; stroke-linecap: round"/>
   </g>
   <g id="line2d_72">
    <path d="M 818.581085 273.930337 
L 818.949533 275.908897 
L 819.686429 275.997466 
L 824.476252 275.993086 
L 824.8447 276.54221 
L 827.423836 284.13131 
L 828.897628 287.536324 
L 830.37142 290.269378 
L 831.845211 292.432015 
L 833.319003 294.121488 
L 834.792795 295.421005 
L 836.266587 296.400093 
L 837.740379 297.120527 
L 839.582618 297.737956 
L 841.424858 298.112631 
L 843.635546 298.321374 
L 846.214682 298.322674 
L 849.162265 298.099295 
L 852.846745 297.586683 
L 857.636568 296.687064 
L 863.531736 295.328508 
L 870.532247 293.465998 
L 879.743446 290.757133 
L 884.901717 289.311595 
L 886.743957 288.969216 
L 888.954645 288.76619 
L 896.692052 288.418855 
L 911.42997 287.826548 
L 923.588753 287.339751 
L 937.958223 286.539295 
L 955.643725 285.324961 
L 965.960268 284.669774 
L 974.434571 284.388865 
L 991.014729 284.045145 
L 1005.384199 283.883724 
L 1016.437638 283.486466 
L 1036.702275 282.474492 
L 1048.49261 281.977689 
L 1063.967424 281.391416 
L 1076.126207 280.688313 
L 1087.179645 279.898312 
L 1087.179645 279.898312 
" clip-path="url(#p05cd8f14f6)" style="fill: none; stroke: #937860; stroke-opacity: 0.9; stroke-width: 3; stroke-linecap: round"/>
   </g>
   <g id="patch_18">
    <path d="M 805.151157 373.284 
L 805.151157 253.698 
" style="fill: none; stroke: #ffffff; stroke-width: 1.25; stroke-linejoin: miter; stroke-linecap: square"/>
   </g>
   <g id="patch_19">
    <path d="M 805.151157 373.284 
L 1100.609573 373.284 
" style="fill: none; stroke: #ffffff; stroke-width: 1.25; stroke-linejoin: miter; stroke-linecap: square"/>
   </g>
   <g id="text_27">
    <!-- 0.999~365 -->
    <g style="fill: #262626" transform="translate(882.200271 247.698) scale(0.252 -0.252)">
     <use xlink:href="#DejaVuSans-30"/>
     <use xlink:href="#DejaVuSans-2e" x="63.623047"/>
     <use xlink:href="#DejaVuSans-39" x="95.410156"/>
     <use xlink:href="#DejaVuSans-39" x="159.033203"/>
     <use xlink:href="#DejaVuSans-39" x="222.65625"/>
     <use xlink:href="#DejaVuSans-7e" x="286.279297"/>
     <use xlink:href="#DejaVuSans-33" x="370.068359"/>
     <use xlink:href="#DejaVuSans-36" x="433.691406"/>
     <use xlink:href="#DejaVuSans-35" x="497.314453"/>
    </g>
   </g>
  </g>
  <g id="text_28">
   <!-- Production change from pre-shock level -->
   <g style="fill: #262626" transform="translate(280.766836 30.177675) scale(0.3024 -0.3024)">
    <defs>
     <path id="DejaVuSans-50" d="M 1259 4147 
L 1259 2394 
L 2053 2394 
Q 2494 2394 2734 2622 
Q 2975 2850 2975 3272 
Q 2975 3691 2734 3919 
Q 2494 4147 2053 4147 
L 1259 4147 
z
M 628 4666 
L 2053 4666 
Q 2838 4666 3239 4311 
Q 3641 3956 3641 3272 
Q 3641 2581 3239 2228 
Q 2838 1875 2053 1875 
L 1259 1875 
L 1259 0 
L 628 0 
L 628 4666 
z
" transform="scale(0.015625)"/>
     <path id="DejaVuSans-72" d="M 2631 2963 
Q 2534 3019 2420 3045 
Q 2306 3072 2169 3072 
Q 1681 3072 1420 2755 
Q 1159 2438 1159 1844 
L 1159 0 
L 581 0 
L 581 3500 
L 1159 3500 
L 1159 2956 
Q 1341 3275 1631 3429 
Q 1922 3584 2338 3584 
Q 2397 3584 2469 3576 
Q 2541 3569 2628 3553 
L 2631 2963 
z
" transform="scale(0.015625)"/>
     <path id="DejaVuSans-6f" d="M 1959 3097 
Q 1497 3097 1228 2736 
Q 959 2375 959 1747 
Q 959 1119 1226 758 
Q 1494 397 1959 397 
Q 2419 397 2687 759 
Q 2956 1122 2956 1747 
Q 2956 2369 2687 2733 
Q 2419 3097 1959 3097 
z
M 1959 3584 
Q 2709 3584 3137 3096 
Q 3566 2609 3566 1747 
Q 3566 888 3137 398 
Q 2709 -91 1959 -91 
Q 1206 -91 779 398 
Q 353 888 353 1747 
Q 353 2609 779 3096 
Q 1206 3584 1959 3584 
z
" transform="scale(0.015625)"/>
     <path id="DejaVuSans-64" d="M 2906 2969 
L 2906 4863 
L 3481 4863 
L 3481 0 
L 2906 0 
L 2906 525 
Q 2725 213 2448 61 
Q 2172 -91 1784 -91 
Q 1150 -91 751 415 
Q 353 922 353 1747 
Q 353 2572 751 3078 
Q 1150 3584 1784 3584 
Q 2172 3584 2448 3432 
Q 2725 3281 2906 2969 
z
M 947 1747 
Q 947 1113 1208 752 
Q 1469 391 1925 391 
Q 2381 391 2643 752 
Q 2906 1113 2906 1747 
Q 2906 2381 2643 2742 
Q 2381 3103 1925 3103 
Q 1469 3103 1208 2742 
Q 947 2381 947 1747 
z
" transform="scale(0.015625)"/>
     <path id="DejaVuSans-75" d="M 544 1381 
L 544 3500 
L 1119 3500 
L 1119 1403 
Q 1119 906 1312 657 
Q 1506 409 1894 409 
Q 2359 409 2629 706 
Q 2900 1003 2900 1516 
L 2900 3500 
L 3475 3500 
L 3475 0 
L 2900 0 
L 2900 538 
Q 2691 219 2414 64 
Q 2138 -91 1772 -91 
Q 1169 -91 856 284 
Q 544 659 544 1381 
z
M 1991 3584 
L 1991 3584 
z
" transform="scale(0.015625)"/>
     <path id="DejaVuSans-69" d="M 603 3500 
L 1178 3500 
L 1178 0 
L 603 0 
L 603 3500 
z
M 603 4863 
L 1178 4863 
L 1178 4134 
L 603 4134 
L 603 4863 
z
" transform="scale(0.015625)"/>
     <path id="DejaVuSans-66" d="M 2375 4863 
L 2375 4384 
L 1825 4384 
Q 1516 4384 1395 4259 
Q 1275 4134 1275 3809 
L 1275 3500 
L 2222 3500 
L 2222 3053 
L 1275 3053 
L 1275 0 
L 697 0 
L 697 3053 
L 147 3053 
L 147 3500 
L 697 3500 
L 697 3744 
Q 697 4328 969 4595 
Q 1241 4863 1831 4863 
L 2375 4863 
z
" transform="scale(0.015625)"/>
     <path id="DejaVuSans-6d" d="M 3328 2828 
Q 3544 3216 3844 3400 
Q 4144 3584 4550 3584 
Q 5097 3584 5394 3201 
Q 5691 2819 5691 2113 
L 5691 0 
L 5113 0 
L 5113 2094 
Q 5113 2597 4934 2840 
Q 4756 3084 4391 3084 
Q 3944 3084 3684 2787 
Q 3425 2491 3425 1978 
L 3425 0 
L 2847 0 
L 2847 2094 
Q 2847 2600 2669 2842 
Q 2491 3084 2119 3084 
Q 1678 3084 1418 2786 
Q 1159 2488 1159 1978 
L 1159 0 
L 581 0 
L 581 3500 
L 1159 3500 
L 1159 2956 
Q 1356 3278 1631 3431 
Q 1906 3584 2284 3584 
Q 2666 3584 2933 3390 
Q 3200 3197 3328 2828 
z
" transform="scale(0.015625)"/>
     <path id="DejaVuSans-2d" d="M 313 2009 
L 1997 2009 
L 1997 1497 
L 313 1497 
L 313 2009 
z
" transform="scale(0.015625)"/>
     <path id="DejaVuSans-6b" d="M 581 4863 
L 1159 4863 
L 1159 1991 
L 2875 3500 
L 3609 3500 
L 1753 1863 
L 3688 0 
L 2938 0 
L 1159 1709 
L 1159 0 
L 581 0 
L 581 4863 
z
" transform="scale(0.015625)"/>
     <path id="DejaVuSans-6c" d="M 603 4863 
L 1178 4863 
L 1178 0 
L 603 0 
L 603 4863 
z
" transform="scale(0.015625)"/>
     <path id="DejaVuSans-76" d="M 191 3500 
L 800 3500 
L 1894 563 
L 2988 3500 
L 3597 3500 
L 2284 0 
L 1503 0 
L 191 3500 
z
" transform="scale(0.015625)"/>
    </defs>
    <use xlink:href="#DejaVuSans-50"/>
    <use xlink:href="#DejaVuSans-72" x="58.552734"/>
    <use xlink:href="#DejaVuSans-6f" x="97.416016"/>
    <use xlink:href="#DejaVuSans-64" x="158.597656"/>
    <use xlink:href="#DejaVuSans-75" x="222.074219"/>
    <use xlink:href="#DejaVuSans-63" x="285.453125"/>
    <use xlink:href="#DejaVuSans-74" x="340.433594"/>
    <use xlink:href="#DejaVuSans-69" x="379.642578"/>
    <use xlink:href="#DejaVuSans-6f" x="407.425781"/>
    <use xlink:href="#DejaVuSans-6e" x="468.607422"/>
    <use xlink:href="#DejaVuSans-20" x="531.986328"/>
    <use xlink:href="#DejaVuSans-63" x="563.773438"/>
    <use xlink:href="#DejaVuSans-68" x="618.753906"/>
    <use xlink:href="#DejaVuSans-61" x="682.132812"/>
    <use xlink:href="#DejaVuSans-6e" x="743.412109"/>
    <use xlink:href="#DejaVuSans-67" x="806.791016"/>
    <use xlink:href="#DejaVuSans-65" x="870.267578"/>
    <use xlink:href="#DejaVuSans-20" x="931.791016"/>
    <use xlink:href="#DejaVuSans-66" x="963.578125"/>
    <use xlink:href="#DejaVuSans-72" x="998.783203"/>
    <use xlink:href="#DejaVuSans-6f" x="1037.646484"/>
    <use xlink:href="#DejaVuSans-6d" x="1098.828125"/>
    <use xlink:href="#DejaVuSans-20" x="1196.240234"/>
    <use xlink:href="#DejaVuSans-70" x="1228.027344"/>
    <use xlink:href="#DejaVuSans-72" x="1291.503906"/>
    <use xlink:href="#DejaVuSans-65" x="1330.367188"/>
    <use xlink:href="#DejaVuSans-2d" x="1391.890625"/>
    <use xlink:href="#DejaVuSans-73" x="1427.974609"/>
    <use xlink:href="#DejaVuSans-68" x="1480.074219"/>
    <use xlink:href="#DejaVuSans-6f" x="1543.453125"/>
    <use xlink:href="#DejaVuSans-63" x="1604.634766"/>
    <use xlink:href="#DejaVuSans-6b" x="1659.615234"/>
    <use xlink:href="#DejaVuSans-20" x="1717.525391"/>
    <use xlink:href="#DejaVuSans-6c" x="1749.3125"/>
    <use xlink:href="#DejaVuSans-65" x="1777.095703"/>
    <use xlink:href="#DejaVuSans-76" x="1838.619141"/>
    <use xlink:href="#DejaVuSans-65" x="1897.798828"/>
    <use xlink:href="#DejaVuSans-6c" x="1959.322266"/>
   </g>
  </g>
  <g id="legend_1">
   <g id="patch_20">
    <path d="M 11.82 584.31675 
L 1292.617547 584.31675 
Q 1297.237547 584.31675 1297.237547 579.69675 
L 1297.237547 476.97 
Q 1297.237547 472.35 1292.617547 472.35 
L 11.82 472.35 
Q 7.2 472.35 7.2 476.97 
L 7.2 579.69675 
Q 7.2 584.31675 11.82 584.31675 
z
" style="fill: #eaeaf2; opacity: 0.8; stroke: #cccccc; stroke-linejoin: miter"/>
   </g>
   <g id="text_29">
    <!-- Experiences -->
    <g style="fill: #262626" transform="translate(575.384367 500.738062) scale(0.252 -0.252)">
     <defs>
      <path id="DejaVuSans-45" d="M 628 4666 
L 3578 4666 
L 3578 4134 
L 1259 4134 
L 1259 2753 
L 3481 2753 
L 3481 2222 
L 1259 2222 
L 1259 531 
L 3634 531 
L 3634 0 
L 628 0 
L 628 4666 
z
" transform="scale(0.015625)"/>
      <path id="DejaVuSans-78" d="M 3513 3500 
L 2247 1797 
L 3578 0 
L 2900 0 
L 1881 1375 
L 863 0 
L 184 0 
L 1544 1831 
L 300 3500 
L 978 3500 
L 1906 2253 
L 2834 3500 
L 3513 3500 
z
" transform="scale(0.015625)"/>
     </defs>
     <use xlink:href="#DejaVuSans-45"/>
     <use xlink:href="#DejaVuSans-78" x="63.183594"/>
     <use xlink:href="#DejaVuSans-70" x="122.363281"/>
     <use xlink:href="#DejaVuSans-65" x="185.839844"/>
     <use xlink:href="#DejaVuSans-72" x="247.363281"/>
     <use xlink:href="#DejaVuSans-69" x="288.476562"/>
     <use xlink:href="#DejaVuSans-65" x="316.259766"/>
     <use xlink:href="#DejaVuSans-6e" x="377.783203"/>
     <use xlink:href="#DejaVuSans-63" x="441.162109"/>
     <use xlink:href="#DejaVuSans-65" x="496.142578"/>
     <use xlink:href="#DejaVuSans-73" x="557.666016"/>
    </g>
   </g>
   <g id="line2d_73">
    <path d="M 16.44 526.996266 
L 39.54 526.996266 
L 62.64 526.996266 
" style="fill: none; stroke: #4c72b0; stroke-opacity: 0.9; stroke-width: 3; stroke-linecap: round"/>
   </g>
   <g id="text_30">
    <!-- eora26_full_2000 -->
    <g style="fill: #262626" transform="translate(81.12 535.081266) scale(0.231 -0.231)">
     <defs>
      <path id="DejaVuSans-5f" d="M 3263 -1063 
L 3263 -1509 
L -63 -1509 
L -63 -1063 
L 3263 -1063 
z
" transform="scale(0.015625)"/>
     </defs>
     <use xlink:href="#DejaVuSans-65"/>
     <use xlink:href="#DejaVuSans-6f" x="61.523438"/>
     <use xlink:href="#DejaVuSans-72" x="122.705078"/>
     <use xlink:href="#DejaVuSans-61" x="163.818359"/>
     <use xlink:href="#DejaVuSans-32" x="225.097656"/>
     <use xlink:href="#DejaVuSans-36" x="288.720703"/>
     <use xlink:href="#DejaVuSans-5f" x="352.34375"/>
     <use xlink:href="#DejaVuSans-66" x="402.34375"/>
     <use xlink:href="#DejaVuSans-75" x="437.548828"/>
     <use xlink:href="#DejaVuSans-6c" x="500.927734"/>
     <use xlink:href="#DejaVuSans-6c" x="528.710938"/>
     <use xlink:href="#DejaVuSans-5f" x="556.494141"/>
     <use xlink:href="#DejaVuSans-32" x="606.494141"/>
     <use xlink:href="#DejaVuSans-30" x="670.117188"/>
     <use xlink:href="#DejaVuSans-30" x="733.740234"/>
     <use xlink:href="#DejaVuSans-30" x="797.363281"/>
    </g>
   </g>
   <g id="line2d_74">
    <path d="M 16.44 561.545203 
L 39.54 561.545203 
L 62.64 561.545203 
" style="fill: none; stroke: #dd8452; stroke-opacity: 0.9; stroke-width: 3; stroke-linecap: round"/>
   </g>
   <g id="text_31">
    <!-- eora26_full_2010 -->
    <g style="fill: #262626" transform="translate(81.12 569.630203) scale(0.231 -0.231)">
     <use xlink:href="#DejaVuSans-65"/>
     <use xlink:href="#DejaVuSans-6f" x="61.523438"/>
     <use xlink:href="#DejaVuSans-72" x="122.705078"/>
     <use xlink:href="#DejaVuSans-61" x="163.818359"/>
     <use xlink:href="#DejaVuSans-32" x="225.097656"/>
     <use xlink:href="#DejaVuSans-36" x="288.720703"/>
     <use xlink:href="#DejaVuSans-5f" x="352.34375"/>
     <use xlink:href="#DejaVuSans-66" x="402.34375"/>
     <use xlink:href="#DejaVuSans-75" x="437.548828"/>
     <use xlink:href="#DejaVuSans-6c" x="500.927734"/>
     <use xlink:href="#DejaVuSans-6c" x="528.710938"/>
     <use xlink:href="#DejaVuSans-5f" x="556.494141"/>
     <use xlink:href="#DejaVuSans-32" x="606.494141"/>
     <use xlink:href="#DejaVuSans-30" x="670.117188"/>
     <use xlink:href="#DejaVuSans-31" x="733.740234"/>
     <use xlink:href="#DejaVuSans-30" x="797.363281"/>
    </g>
   </g>
   <g id="line2d_75">
    <path d="M 326.211 526.996266 
L 349.311 526.996266 
L 372.411 526.996266 
" style="fill: none; stroke: #55a868; stroke-opacity: 0.9; stroke-width: 3; stroke-linecap: round"/>
   </g>
   <g id="text_32">
    <!-- euregio_full_2000 -->
    <g style="fill: #262626" transform="translate(390.891 535.081266) scale(0.231 -0.231)">
     <use xlink:href="#DejaVuSans-65"/>
     <use xlink:href="#DejaVuSans-75" x="61.523438"/>
     <use xlink:href="#DejaVuSans-72" x="124.902344"/>
     <use xlink:href="#DejaVuSans-65" x="163.765625"/>
     <use xlink:href="#DejaVuSans-67" x="225.289062"/>
     <use xlink:href="#DejaVuSans-69" x="288.765625"/>
     <use xlink:href="#DejaVuSans-6f" x="316.548828"/>
     <use xlink:href="#DejaVuSans-5f" x="377.730469"/>
     <use xlink:href="#DejaVuSans-66" x="427.730469"/>
     <use xlink:href="#DejaVuSans-75" x="462.935547"/>
     <use xlink:href="#DejaVuSans-6c" x="526.314453"/>
     <use xlink:href="#DejaVuSans-6c" x="554.097656"/>
     <use xlink:href="#DejaVuSans-5f" x="581.880859"/>
     <use xlink:href="#DejaVuSans-32" x="631.880859"/>
     <use xlink:href="#DejaVuSans-30" x="695.503906"/>
     <use xlink:href="#DejaVuSans-30" x="759.126953"/>
     <use xlink:href="#DejaVuSans-30" x="822.75"/>
    </g>
   </g>
   <g id="line2d_76">
    <path d="M 326.211 561.545203 
L 349.311 561.545203 
L 372.411 561.545203 
" style="fill: none; stroke: #c44e52; stroke-opacity: 0.9; stroke-width: 3; stroke-linecap: round"/>
   </g>
   <g id="text_33">
    <!-- euregio_full_2010 -->
    <g style="fill: #262626" transform="translate(390.891 569.630203) scale(0.231 -0.231)">
     <use xlink:href="#DejaVuSans-65"/>
     <use xlink:href="#DejaVuSans-75" x="61.523438"/>
     <use xlink:href="#DejaVuSans-72" x="124.902344"/>
     <use xlink:href="#DejaVuSans-65" x="163.765625"/>
     <use xlink:href="#DejaVuSans-67" x="225.289062"/>
     <use xlink:href="#DejaVuSans-69" x="288.765625"/>
     <use xlink:href="#DejaVuSans-6f" x="316.548828"/>
     <use xlink:href="#DejaVuSans-5f" x="377.730469"/>
     <use xlink:href="#DejaVuSans-66" x="427.730469"/>
     <use xlink:href="#DejaVuSans-75" x="462.935547"/>
     <use xlink:href="#DejaVuSans-6c" x="526.314453"/>
     <use xlink:href="#DejaVuSans-6c" x="554.097656"/>
     <use xlink:href="#DejaVuSans-5f" x="581.880859"/>
     <use xlink:href="#DejaVuSans-32" x="631.880859"/>
     <use xlink:href="#DejaVuSans-30" x="695.503906"/>
     <use xlink:href="#DejaVuSans-31" x="759.126953"/>
     <use xlink:href="#DejaVuSans-30" x="822.75"/>
    </g>
   </g>
   <g id="line2d_77">
    <path d="M 641.847234 526.996266 
L 664.947234 526.996266 
L 688.047234 526.996266 
" style="fill: none; stroke: #8172b3; stroke-opacity: 0.9; stroke-width: 3; stroke-linecap: round"/>
   </g>
   <g id="text_34">
    <!-- exiobase3_full_2000 -->
    <g style="fill: #262626" transform="translate(706.527234 535.081266) scale(0.231 -0.231)">
     <defs>
      <path id="DejaVuSans-62" d="M 3116 1747 
Q 3116 2381 2855 2742 
Q 2594 3103 2138 3103 
Q 1681 3103 1420 2742 
Q 1159 2381 1159 1747 
Q 1159 1113 1420 752 
Q 1681 391 2138 391 
Q 2594 391 2855 752 
Q 3116 1113 3116 1747 
z
M 1159 2969 
Q 1341 3281 1617 3432 
Q 1894 3584 2278 3584 
Q 2916 3584 3314 3078 
Q 3713 2572 3713 1747 
Q 3713 922 3314 415 
Q 2916 -91 2278 -91 
Q 1894 -91 1617 61 
Q 1341 213 1159 525 
L 1159 0 
L 581 0 
L 581 4863 
L 1159 4863 
L 1159 2969 
z
" transform="scale(0.015625)"/>
     </defs>
     <use xlink:href="#DejaVuSans-65"/>
     <use xlink:href="#DejaVuSans-78" x="59.773438"/>
     <use xlink:href="#DejaVuSans-69" x="118.953125"/>
     <use xlink:href="#DejaVuSans-6f" x="146.736328"/>
     <use xlink:href="#DejaVuSans-62" x="207.917969"/>
     <use xlink:href="#DejaVuSans-61" x="271.394531"/>
     <use xlink:href="#DejaVuSans-73" x="332.673828"/>
     <use xlink:href="#DejaVuSans-65" x="384.773438"/>
     <use xlink:href="#DejaVuSans-33" x="446.296875"/>
     <use xlink:href="#DejaVuSans-5f" x="509.919922"/>
     <use xlink:href="#DejaVuSans-66" x="559.919922"/>
     <use xlink:href="#DejaVuSans-75" x="595.125"/>
     <use xlink:href="#DejaVuSans-6c" x="658.503906"/>
     <use xlink:href="#DejaVuSans-6c" x="686.287109"/>
     <use xlink:href="#DejaVuSans-5f" x="714.070312"/>
     <use xlink:href="#DejaVuSans-32" x="764.070312"/>
     <use xlink:href="#DejaVuSans-30" x="827.693359"/>
     <use xlink:href="#DejaVuSans-30" x="891.316406"/>
     <use xlink:href="#DejaVuSans-30" x="954.939453"/>
    </g>
   </g>
   <g id="line2d_78">
    <path d="M 988.022391 526.996266 
L 1011.122391 526.996266 
L 1034.222391 526.996266 
" style="fill: none; stroke: #937860; stroke-opacity: 0.9; stroke-width: 3; stroke-linecap: round"/>
   </g>
   <g id="text_35">
    <!-- exiobase3_full_2010 -->
    <g style="fill: #262626" transform="translate(1052.702391 535.081266) scale(0.231 -0.231)">
     <use xlink:href="#DejaVuSans-65"/>
     <use xlink:href="#DejaVuSans-78" x="59.773438"/>
     <use xlink:href="#DejaVuSans-69" x="118.953125"/>
     <use xlink:href="#DejaVuSans-6f" x="146.736328"/>
     <use xlink:href="#DejaVuSans-62" x="207.917969"/>
     <use xlink:href="#DejaVuSans-61" x="271.394531"/>
     <use xlink:href="#DejaVuSans-73" x="332.673828"/>
     <use xlink:href="#DejaVuSans-65" x="384.773438"/>
     <use xlink:href="#DejaVuSans-33" x="446.296875"/>
     <use xlink:href="#DejaVuSans-5f" x="509.919922"/>
     <use xlink:href="#DejaVuSans-66" x="559.919922"/>
     <use xlink:href="#DejaVuSans-75" x="595.125"/>
     <use xlink:href="#DejaVuSans-6c" x="658.503906"/>
     <use xlink:href="#DejaVuSans-6c" x="686.287109"/>
     <use xlink:href="#DejaVuSans-5f" x="714.070312"/>
     <use xlink:href="#DejaVuSans-32" x="764.070312"/>
     <use xlink:href="#DejaVuSans-30" x="827.693359"/>
     <use xlink:href="#DejaVuSans-31" x="891.316406"/>
     <use xlink:href="#DejaVuSans-30" x="954.939453"/>
    </g>
   </g>
  </g>
 </g>
 <defs>
  <clipPath id="p994ee2fa2b">
   <rect x="160.9429" y="81.456" width="295.458416" height="119.586"/>
  </clipPath>
  <clipPath id="p4d0d05761d">
   <rect x="483.047028" y="81.456" width="295.458416" height="119.586"/>
  </clipPath>
  <clipPath id="p3bf3e1857a">
   <rect x="805.151157" y="81.456" width="295.458416" height="119.586"/>
  </clipPath>
  <clipPath id="p965c160c65">
   <rect x="160.9429" y="253.698" width="295.458416" height="119.586"/>
  </clipPath>
  <clipPath id="pa3bf70e29e">
   <rect x="483.047028" y="253.698" width="295.458416" height="119.586"/>
  </clipPath>
  <clipPath id="p05cd8f14f6">
   <rect x="805.151157" y="253.698" width="295.458416" height="119.586"/>
  </clipPath>
 </defs>
</svg>
