<?xml version="1.0" encoding="utf-8" standalone="no"?>
<!DOCTYPE svg PUBLIC "-//W3C//DTD SVG 1.1//EN"
  "http://www.w3.org/Graphics/SVG/1.1/DTD/svg11.dtd">
<svg xmlns:xlink="http://www.w3.org/1999/xlink" width="1304.437547pt" height="591.51675pt" viewBox="0 0 1304.437547 591.51675" xmlns="http://www.w3.org/2000/svg" version="1.1">
 <metadata>
  <rdf:RDF xmlns:dc="http://purl.org/dc/elements/1.1/" xmlns:cc="http://creativecommons.org/ns#" xmlns:rdf="http://www.w3.org/1999/02/22-rdf-syntax-ns#">
   <cc:Work>
    <dc:type rdf:resource="http://purl.org/dc/dcmitype/StillImage"/>
    <dc:date>2023-04-26T19:05:57.603032</dc:date>
    <dc:format>image/svg+xml</dc:format>
    <dc:creator>
     <cc:Agent>
      <dc:title>Matplotlib v3.7.1, https://matplotlib.org/</dc:title>
     </cc:Agent>
    </dc:creator>
   </cc:Work>
  </rdf:RDF>
 </metadata>
 <defs>
  <style type="text/css">*{stroke-linejoin: round; stroke-linecap: butt}</style>
 </defs>
 <g id="figure_1">
  <g id="patch_1">
   <path d="M 0 591.51675 
L 1304.437547 591.51675 
L 1304.437547 -0 
L 0 -0 
z
" style="fill: #ffffff"/>
  </g>
  <g id="axes_1">
   <g id="patch_2">
    <path d="M 170.340091 201.042 
L 462.70916 201.042 
L 462.70916 81.456 
L 170.340091 81.456 
z
" style="fill: #eaeaf2"/>
   </g>
   <g id="matplotlib.axis_1">
    <g id="xtick_1">
     <g id="line2d_1">
      <path d="M 183.629594 201.042 
L 183.629594 81.456 
" clip-path="url(#pb6846362e0)" style="fill: none; stroke: #ffffff; stroke-linecap: round"/>
     </g>
    </g>
    <g id="xtick_2">
     <g id="line2d_2">
      <path d="M 274.77845 201.042 
L 274.77845 81.456 
" clip-path="url(#pb6846362e0)" style="fill: none; stroke: #ffffff; stroke-linecap: round"/>
     </g>
    </g>
    <g id="xtick_3">
     <g id="line2d_3">
      <path d="M 365.927305 201.042 
L 365.927305 81.456 
" clip-path="url(#pb6846362e0)" style="fill: none; stroke: #ffffff; stroke-linecap: round"/>
     </g>
    </g>
    <g id="xtick_4">
     <g id="line2d_4">
      <path d="M 457.076161 201.042 
L 457.076161 81.456 
" clip-path="url(#pb6846362e0)" style="fill: none; stroke: #ffffff; stroke-linecap: round"/>
     </g>
    </g>
   </g>
   <g id="matplotlib.axis_2">
    <g id="ytick_1">
     <g id="line2d_5">
      <path d="M 170.340091 183.399608 
L 462.70916 183.399608 
" clip-path="url(#pb6846362e0)" style="fill: none; stroke: #ffffff; stroke-linecap: round"/>
     </g>
     <g id="text_1">
      <!-- −0.5 -->
      <g style="fill: #262626" transform="translate(104.746794 192.175803) scale(0.231 -0.231)">
       <defs>
        <path id="DejaVuSans-2212" d="M 678 2272 
L 4684 2272 
L 4684 1741 
L 678 1741 
L 678 2272 
z
" transform="scale(0.015625)"/>
        <path id="DejaVuSans-30" d="M 2034 4250 
Q 1547 4250 1301 3770 
Q 1056 3291 1056 2328 
Q 1056 1369 1301 889 
Q 1547 409 2034 409 
Q 2525 409 2770 889 
Q 3016 1369 3016 2328 
Q 3016 3291 2770 3770 
Q 2525 4250 2034 4250 
z
M 2034 4750 
Q 2819 4750 3233 4129 
Q 3647 3509 3647 2328 
Q 3647 1150 3233 529 
Q 2819 -91 2034 -91 
Q 1250 -91 836 529 
Q 422 1150 422 2328 
Q 422 3509 836 4129 
Q 1250 4750 2034 4750 
z
" transform="scale(0.015625)"/>
        <path id="DejaVuSans-2e" d="M 684 794 
L 1344 794 
L 1344 0 
L 684 0 
L 684 794 
z
" transform="scale(0.015625)"/>
        <path id="DejaVuSans-35" d="M 691 4666 
L 3169 4666 
L 3169 4134 
L 1269 4134 
L 1269 2991 
Q 1406 3038 1543 3061 
Q 1681 3084 1819 3084 
Q 2600 3084 3056 2656 
Q 3513 2228 3513 1497 
Q 3513 744 3044 326 
Q 2575 -91 1722 -91 
Q 1428 -91 1123 -41 
Q 819 9 494 109 
L 494 744 
Q 775 591 1075 516 
Q 1375 441 1709 441 
Q 2250 441 2565 725 
Q 2881 1009 2881 1497 
Q 2881 1984 2565 2268 
Q 2250 2553 1709 2553 
Q 1456 2553 1204 2497 
Q 953 2441 691 2322 
L 691 4666 
z
" transform="scale(0.015625)"/>
       </defs>
       <use xlink:href="#DejaVuSans-2212"/>
       <use xlink:href="#DejaVuSans-30" x="83.789062"/>
       <use xlink:href="#DejaVuSans-2e" x="147.412109"/>
       <use xlink:href="#DejaVuSans-35" x="179.199219"/>
      </g>
     </g>
    </g>
    <g id="ytick_2">
     <g id="line2d_6">
      <path d="M 170.340091 95.196219 
L 462.70916 95.196219 
" clip-path="url(#pb6846362e0)" style="fill: none; stroke: #ffffff; stroke-linecap: round"/>
     </g>
     <g id="text_2">
      <!-- 0.0 -->
      <g style="fill: #262626" transform="translate(124.103872 103.972414) scale(0.231 -0.231)">
       <use xlink:href="#DejaVuSans-30"/>
       <use xlink:href="#DejaVuSans-2e" x="63.623047"/>
       <use xlink:href="#DejaVuSans-30" x="95.410156"/>
      </g>
     </g>
    </g>
    <g id="text_3">
     <!-- % change -->
     <g style="fill: #262626" transform="translate(95.505982 203.597344) rotate(-90) scale(0.252 -0.252)">
      <defs>
       <path id="DejaVuSans-25" d="M 4653 2053 
Q 4381 2053 4226 1822 
Q 4072 1591 4072 1178 
Q 4072 772 4226 539 
Q 4381 306 4653 306 
Q 4919 306 5073 539 
Q 5228 772 5228 1178 
Q 5228 1588 5073 1820 
Q 4919 2053 4653 2053 
z
M 4653 2450 
Q 5147 2450 5437 2106 
Q 5728 1763 5728 1178 
Q 5728 594 5436 251 
Q 5144 -91 4653 -91 
Q 4153 -91 3862 251 
Q 3572 594 3572 1178 
Q 3572 1766 3864 2108 
Q 4156 2450 4653 2450 
z
M 1428 4353 
Q 1159 4353 1004 4120 
Q 850 3888 850 3481 
Q 850 3069 1003 2837 
Q 1156 2606 1428 2606 
Q 1700 2606 1854 2837 
Q 2009 3069 2009 3481 
Q 2009 3884 1853 4118 
Q 1697 4353 1428 4353 
z
M 4250 4750 
L 4750 4750 
L 1831 -91 
L 1331 -91 
L 4250 4750 
z
M 1428 4750 
Q 1922 4750 2215 4408 
Q 2509 4066 2509 3481 
Q 2509 2891 2217 2550 
Q 1925 2209 1428 2209 
Q 931 2209 642 2551 
Q 353 2894 353 3481 
Q 353 4063 643 4406 
Q 934 4750 1428 4750 
z
" transform="scale(0.015625)"/>
       <path id="DejaVuSans-20" transform="scale(0.015625)"/>
       <path id="DejaVuSans-63" d="M 3122 3366 
L 3122 2828 
Q 2878 2963 2633 3030 
Q 2388 3097 2138 3097 
Q 1578 3097 1268 2742 
Q 959 2388 959 1747 
Q 959 1106 1268 751 
Q 1578 397 2138 397 
Q 2388 397 2633 464 
Q 2878 531 3122 666 
L 3122 134 
Q 2881 22 2623 -34 
Q 2366 -91 2075 -91 
Q 1284 -91 818 406 
Q 353 903 353 1747 
Q 353 2603 823 3093 
Q 1294 3584 2113 3584 
Q 2378 3584 2631 3529 
Q 2884 3475 3122 3366 
z
" transform="scale(0.015625)"/>
       <path id="DejaVuSans-68" d="M 3513 2113 
L 3513 0 
L 2938 0 
L 2938 2094 
Q 2938 2591 2744 2837 
Q 2550 3084 2163 3084 
Q 1697 3084 1428 2787 
Q 1159 2491 1159 1978 
L 1159 0 
L 581 0 
L 581 4863 
L 1159 4863 
L 1159 2956 
Q 1366 3272 1645 3428 
Q 1925 3584 2291 3584 
Q 2894 3584 3203 3211 
Q 3513 2838 3513 2113 
z
" transform="scale(0.015625)"/>
       <path id="DejaVuSans-61" d="M 2194 1759 
Q 1497 1759 1228 1600 
Q 959 1441 959 1056 
Q 959 750 1161 570 
Q 1363 391 1709 391 
Q 2188 391 2477 730 
Q 2766 1069 2766 1631 
L 2766 1759 
L 2194 1759 
z
M 3341 1997 
L 3341 0 
L 2766 0 
L 2766 531 
Q 2569 213 2275 61 
Q 1981 -91 1556 -91 
Q 1019 -91 701 211 
Q 384 513 384 1019 
Q 384 1609 779 1909 
Q 1175 2209 1959 2209 
L 2766 2209 
L 2766 2266 
Q 2766 2663 2505 2880 
Q 2244 3097 1772 3097 
Q 1472 3097 1187 3025 
Q 903 2953 641 2809 
L 641 3341 
Q 956 3463 1253 3523 
Q 1550 3584 1831 3584 
Q 2591 3584 2966 3190 
Q 3341 2797 3341 1997 
z
" transform="scale(0.015625)"/>
       <path id="DejaVuSans-6e" d="M 3513 2113 
L 3513 0 
L 2938 0 
L 2938 2094 
Q 2938 2591 2744 2837 
Q 2550 3084 2163 3084 
Q 1697 3084 1428 2787 
Q 1159 2491 1159 1978 
L 1159 0 
L 581 0 
L 581 3500 
L 1159 3500 
L 1159 2956 
Q 1366 3272 1645 3428 
Q 1925 3584 2291 3584 
Q 2894 3584 3203 3211 
Q 3513 2838 3513 2113 
z
" transform="scale(0.015625)"/>
       <path id="DejaVuSans-67" d="M 2906 1791 
Q 2906 2416 2648 2759 
Q 2391 3103 1925 3103 
Q 1463 3103 1205 2759 
Q 947 2416 947 1791 
Q 947 1169 1205 825 
Q 1463 481 1925 481 
Q 2391 481 2648 825 
Q 2906 1169 2906 1791 
z
M 3481 434 
Q 3481 -459 3084 -895 
Q 2688 -1331 1869 -1331 
Q 1566 -1331 1297 -1286 
Q 1028 -1241 775 -1147 
L 775 -588 
Q 1028 -725 1275 -790 
Q 1522 -856 1778 -856 
Q 2344 -856 2625 -561 
Q 2906 -266 2906 331 
L 2906 616 
Q 2728 306 2450 153 
Q 2172 0 1784 0 
Q 1141 0 747 490 
Q 353 981 353 1791 
Q 353 2603 747 3093 
Q 1141 3584 1784 3584 
Q 2172 3584 2450 3431 
Q 2728 3278 2906 2969 
L 2906 3500 
L 3481 3500 
L 3481 434 
z
" transform="scale(0.015625)"/>
       <path id="DejaVuSans-65" d="M 3597 1894 
L 3597 1613 
L 953 1613 
Q 991 1019 1311 708 
Q 1631 397 2203 397 
Q 2534 397 2845 478 
Q 3156 559 3463 722 
L 3463 178 
Q 3153 47 2828 -22 
Q 2503 -91 2169 -91 
Q 1331 -91 842 396 
Q 353 884 353 1716 
Q 353 2575 817 3079 
Q 1281 3584 2069 3584 
Q 2775 3584 3186 3129 
Q 3597 2675 3597 1894 
z
M 3022 2063 
Q 3016 2534 2758 2815 
Q 2500 3097 2075 3097 
Q 1594 3097 1305 2825 
Q 1016 2553 972 2059 
L 3022 2063 
z
" transform="scale(0.015625)"/>
      </defs>
      <use xlink:href="#DejaVuSans-25"/>
      <use xlink:href="#DejaVuSans-20" x="95.019531"/>
      <use xlink:href="#DejaVuSans-63" x="126.806641"/>
      <use xlink:href="#DejaVuSans-68" x="181.787109"/>
      <use xlink:href="#DejaVuSans-61" x="245.166016"/>
      <use xlink:href="#DejaVuSans-6e" x="306.445312"/>
      <use xlink:href="#DejaVuSans-67" x="369.824219"/>
      <use xlink:href="#DejaVuSans-65" x="433.300781"/>
     </g>
    </g>
   </g>
   <g id="PolyCollection_1"/>
   <g id="PolyCollection_2"/>
   <g id="PolyCollection_3"/>
   <g id="PolyCollection_4"/>
   <g id="PolyCollection_5"/>
   <g id="PolyCollection_6"/>
   <g id="line2d_7">
    <path d="M 183.629594 95.196219 
L 183.99419 184.49531 
L 184.358785 187.571249 
L 184.723381 188.306445 
L 185.087976 188.39783 
L 185.817167 188.169266 
L 189.098526 186.754439 
L 190.921503 185.168015 
L 200.036388 177.158267 
L 210.24506 168.534404 
L 221.182923 159.594797 
L 227.74564 154.459851 
L 239.048098 146.2474 
L 245.610816 141.697838 
L 256.548679 134.432201 
L 267.121946 127.67797 
L 277.330618 121.413418 
L 287.53929 115.406633 
L 298.112557 109.443024 
L 308.685824 103.737313 
L 311.602588 102.318644 
L 316.342328 100.333395 
L 318.165305 99.741595 
L 326.551 97.970067 
L 345.145366 93.857957 
L 349.155916 93.314346 
L 357.541611 92.066513 
L 379.781932 88.638283 
L 388.532222 87.732242 
L 392.907367 88.027126 
L 402.022252 88.706714 
L 406.761993 89.177724 
L 412.960115 89.545993 
L 422.804191 89.786358 
L 438.117199 89.921979 
L 449.419657 89.958191 
L 449.419657 89.958191 
" clip-path="url(#pb6846362e0)" style="fill: none; stroke: #4c72b0; stroke-opacity: 0.9; stroke-width: 3; stroke-linecap: round"/>
   </g>
   <g id="line2d_8">
    <path d="M 183.629594 95.196219 
L 183.99419 143.900446 
L 184.358785 145.935508 
L 184.723381 146.602859 
L 185.087976 146.800623 
L 185.817167 146.787852 
L 189.098526 146.125433 
L 190.921503 145.319612 
L 203.682342 139.519568 
L 217.536969 133.454669 
L 231.026999 127.784202 
L 242.329457 123.263915 
L 253.996511 119.059401 
L 266.392755 114.897044 
L 281.705763 109.974612 
L 296.28958 105.520522 
L 311.237992 101.188347 
L 318.165305 99.524486 
L 319.988282 99.244278 
L 330.56155 97.759134 
L 358.270802 93.726045 
L 374.677596 91.948514 
L 381.240313 91.527638 
L 388.896817 90.698923 
L 394.001153 90.831993 
L 401.657657 91.00275 
L 412.960115 91.274262 
L 438.84639 91.701521 
L 449.419657 91.752847 
L 449.419657 91.752847 
" clip-path="url(#pb6846362e0)" style="fill: none; stroke: #dd8452; stroke-opacity: 0.9; stroke-width: 3; stroke-linecap: round"/>
   </g>
   <g id="line2d_9">
    <path d="M 183.629594 95.196219 
L 183.99419 188.775215 
L 184.358785 193.782783 
L 184.723381 194.961626 
L 185.087976 195.184507 
L 185.817167 195.003302 
L 189.098526 193.514393 
L 190.921503 191.81907 
L 199.671793 183.607863 
L 208.422083 175.717126 
L 219.359946 166.163033 
L 228.839427 158.184711 
L 237.954312 150.814869 
L 246.340007 144.291686 
L 255.454892 137.485357 
L 262.746801 132.34269 
L 271.132496 126.695305 
L 280.611977 120.604914 
L 290.820648 114.34683 
L 299.570939 109.235867 
L 305.03987 106.239364 
L 311.237992 103.080503 
L 315.977733 100.843149 
L 320.352878 99.104443 
L 323.269641 98.114698 
L 328.373977 96.596023 
L 331.655336 95.849451 
L 346.239153 93.163008 
L 349.885107 92.635736 
L 358.999992 91.519853 
L 381.240313 89.010553 
L 388.532222 88.49895 
L 391.448985 88.82506 
L 398.011703 89.467966 
L 405.303611 89.974042 
L 412.960115 90.328662 
L 426.814741 90.677653 
L 442.85694 90.822394 
L 449.419657 90.845841 
L 449.419657 90.845841 
" clip-path="url(#pb6846362e0)" style="fill: none; stroke: #55a868; stroke-opacity: 0.9; stroke-width: 3; stroke-linecap: round"/>
   </g>
   <g id="line2d_10">
    <path d="M 183.629594 95.196219 
L 183.99419 168.741554 
L 184.358785 172.763826 
L 184.723381 173.693056 
L 185.087976 173.862033 
L 185.817167 173.714523 
L 189.098526 172.536184 
L 190.921503 171.200661 
L 200.400984 164.184093 
L 211.338846 156.377854 
L 221.547518 149.345757 
L 230.662404 143.333744 
L 240.141885 137.328547 
L 248.892175 132.043231 
L 258.00706 126.796392 
L 266.02816 122.432268 
L 274.77845 117.906197 
L 285.351717 112.720098 
L 295.560389 107.975364 
L 302.123107 105.120376 
L 310.873397 101.62546 
L 316.342328 99.60419 
L 321.446664 98.141201 
L 326.186404 97.017655 
L 331.655336 95.97286 
L 343.322389 94.132643 
L 349.520511 93.46568 
L 358.999992 92.565019 
L 380.875718 90.275931 
L 388.532222 89.709756 
L 391.81358 89.997576 
L 397.647107 90.427047 
L 408.58497 90.946111 
L 418.793642 91.247338 
L 433.742054 91.430329 
L 449.419657 91.496003 
L 449.419657 91.496003 
" clip-path="url(#pb6846362e0)" style="fill: none; stroke: #c44e52; stroke-opacity: 0.9; stroke-width: 3; stroke-linecap: round"/>
   </g>
   <g id="line2d_11">
    <path d="M 183.629594 95.196219 
L 183.99419 180.929165 
L 184.358785 184.616693 
L 184.723381 185.145118 
L 185.087976 185.139228 
L 186.546358 184.5772 
L 189.098526 183.528233 
L 192.379884 180.738283 
L 201.859365 172.807133 
L 212.797228 163.945093 
L 223.735091 155.363818 
L 235.037549 146.77861 
L 246.340007 138.529826 
L 256.913274 131.075814 
L 266.757351 124.576614 
L 277.695213 117.608113 
L 287.903885 111.355042 
L 297.747961 105.566412 
L 307.592038 100.02925 
L 310.508801 98.532734 
L 316.342328 96.029151 
L 321.082069 94.214531 
L 328.373977 91.822112 
L 330.196954 91.360351 
L 346.968344 89.203039 
L 361.55216 87.880527 
L 371.396237 87.688942 
L 376.865168 87.800946 
L 381.969504 87.669553 
L 386.709245 87.545151 
L 389.261413 87.647699 
L 395.094939 88.183168 
L 402.022252 88.561574 
L 408.58497 88.931934 
L 414.053901 89.386871 
L 421.34581 89.711115 
L 433.377459 90.007034 
L 449.419657 90.180341 
L 449.419657 90.180341 
" clip-path="url(#pb6846362e0)" style="fill: none; stroke: #8172b3; stroke-opacity: 0.9; stroke-width: 3; stroke-linecap: round"/>
   </g>
   <g id="line2d_12">
    <path d="M 183.629594 95.196219 
L 183.99419 163.989445 
L 184.358785 166.499052 
L 184.723381 166.901902 
L 185.452571 166.806539 
L 189.098526 165.666635 
L 192.74448 163.244935 
L 202.953152 156.596217 
L 214.620205 149.271641 
L 225.558068 142.647515 
L 237.954312 135.424317 
L 249.985961 128.672 
L 258.371656 124.185767 
L 270.038709 118.210903 
L 281.341167 112.666571 
L 293.372816 107.001269 
L 305.03987 101.747296 
L 310.873397 99.281045 
L 315.248542 97.753807 
L 319.988282 96.315983 
L 330.196954 93.501894 
L 333.478313 92.885529 
L 340.405626 91.796337 
L 345.874557 91.073866 
L 351.343489 90.528893 
L 372.854619 88.598861 
L 382.334099 87.878274 
L 384.521672 87.838492 
L 388.896817 88.080769 
L 395.094939 88.981379 
L 401.657657 89.377416 
L 410.772542 89.677621 
L 415.512283 89.901927 
L 423.168787 90.209137 
L 440.304772 90.570612 
L 449.419657 90.650961 
L 449.419657 90.650961 
" clip-path="url(#pb6846362e0)" style="fill: none; stroke: #937860; stroke-opacity: 0.9; stroke-width: 3; stroke-linecap: round"/>
   </g>
   <g id="patch_3">
    <path d="M 170.340091 201.042 
L 170.340091 81.456 
" style="fill: none; stroke: #ffffff; stroke-width: 1.25; stroke-linejoin: miter; stroke-linecap: square"/>
   </g>
   <g id="patch_4">
    <path d="M 170.340091 201.042 
L 462.70916 201.042 
" style="fill: none; stroke: #ffffff; stroke-width: 1.25; stroke-linejoin: miter; stroke-linecap: square"/>
   </g>
   <g id="text_4">
    <!-- 0.8~90 -->
    <g style="fill: #262626" transform="translate(269.894782 75.456) scale(0.252 -0.252)">
     <defs>
      <path id="DejaVuSans-38" d="M 2034 2216 
Q 1584 2216 1326 1975 
Q 1069 1734 1069 1313 
Q 1069 891 1326 650 
Q 1584 409 2034 409 
Q 2484 409 2743 651 
Q 3003 894 3003 1313 
Q 3003 1734 2745 1975 
Q 2488 2216 2034 2216 
z
M 1403 2484 
Q 997 2584 770 2862 
Q 544 3141 544 3541 
Q 544 4100 942 4425 
Q 1341 4750 2034 4750 
Q 2731 4750 3128 4425 
Q 3525 4100 3525 3541 
Q 3525 3141 3298 2862 
Q 3072 2584 2669 2484 
Q 3125 2378 3379 2068 
Q 3634 1759 3634 1313 
Q 3634 634 3220 271 
Q 2806 -91 2034 -91 
Q 1263 -91 848 271 
Q 434 634 434 1313 
Q 434 1759 690 2068 
Q 947 2378 1403 2484 
z
M 1172 3481 
Q 1172 3119 1398 2916 
Q 1625 2713 2034 2713 
Q 2441 2713 2670 2916 
Q 2900 3119 2900 3481 
Q 2900 3844 2670 4047 
Q 2441 4250 2034 4250 
Q 1625 4250 1398 4047 
Q 1172 3844 1172 3481 
z
" transform="scale(0.015625)"/>
      <path id="DejaVuSans-7e" d="M 4684 2553 
L 4684 1997 
Q 4356 1750 4076 1644 
Q 3797 1538 3494 1538 
Q 3150 1538 2694 1722 
Q 2659 1734 2644 1741 
Q 2622 1750 2575 1766 
Q 2091 1959 1797 1959 
Q 1522 1959 1253 1839 
Q 984 1719 678 1459 
L 678 2016 
Q 1006 2263 1286 2370 
Q 1566 2478 1869 2478 
Q 2213 2478 2672 2291 
Q 2703 2278 2719 2272 
Q 2744 2263 2788 2247 
Q 3272 2053 3566 2053 
Q 3834 2053 4098 2172 
Q 4363 2291 4684 2553 
z
" transform="scale(0.015625)"/>
      <path id="DejaVuSans-39" d="M 703 97 
L 703 672 
Q 941 559 1184 500 
Q 1428 441 1663 441 
Q 2288 441 2617 861 
Q 2947 1281 2994 2138 
Q 2813 1869 2534 1725 
Q 2256 1581 1919 1581 
Q 1219 1581 811 2004 
Q 403 2428 403 3163 
Q 403 3881 828 4315 
Q 1253 4750 1959 4750 
Q 2769 4750 3195 4129 
Q 3622 3509 3622 2328 
Q 3622 1225 3098 567 
Q 2575 -91 1691 -91 
Q 1453 -91 1209 -44 
Q 966 3 703 97 
z
M 1959 2075 
Q 2384 2075 2632 2365 
Q 2881 2656 2881 3163 
Q 2881 3666 2632 3958 
Q 2384 4250 1959 4250 
Q 1534 4250 1286 3958 
Q 1038 3666 1038 3163 
Q 1038 2656 1286 2365 
Q 1534 2075 1959 2075 
z
" transform="scale(0.015625)"/>
     </defs>
     <use xlink:href="#DejaVuSans-30"/>
     <use xlink:href="#DejaVuSans-2e" x="63.623047"/>
     <use xlink:href="#DejaVuSans-38" x="95.410156"/>
     <use xlink:href="#DejaVuSans-7e" x="159.033203"/>
     <use xlink:href="#DejaVuSans-39" x="242.822266"/>
     <use xlink:href="#DejaVuSans-30" x="306.445312"/>
    </g>
   </g>
  </g>
  <g id="axes_2">
   <g id="patch_5">
    <path d="M 489.290298 201.042 
L 781.659367 201.042 
L 781.659367 81.456 
L 489.290298 81.456 
z
" style="fill: #eaeaf2"/>
   </g>
   <g id="matplotlib.axis_3">
    <g id="xtick_5">
     <g id="line2d_13">
      <path d="M 502.579801 201.042 
L 502.579801 81.456 
" clip-path="url(#pee587d82ac)" style="fill: none; stroke: #ffffff; stroke-linecap: round"/>
     </g>
    </g>
    <g id="xtick_6">
     <g id="line2d_14">
      <path d="M 593.728656 201.042 
L 593.728656 81.456 
" clip-path="url(#pee587d82ac)" style="fill: none; stroke: #ffffff; stroke-linecap: round"/>
     </g>
    </g>
    <g id="xtick_7">
     <g id="line2d_15">
      <path d="M 684.877512 201.042 
L 684.877512 81.456 
" clip-path="url(#pee587d82ac)" style="fill: none; stroke: #ffffff; stroke-linecap: round"/>
     </g>
    </g>
    <g id="xtick_8">
     <g id="line2d_16">
      <path d="M 776.026368 201.042 
L 776.026368 81.456 
" clip-path="url(#pee587d82ac)" style="fill: none; stroke: #ffffff; stroke-linecap: round"/>
     </g>
    </g>
   </g>
   <g id="matplotlib.axis_4">
    <g id="ytick_3">
     <g id="line2d_17">
      <path d="M 489.290298 183.399608 
L 781.659367 183.399608 
" clip-path="url(#pee587d82ac)" style="fill: none; stroke: #ffffff; stroke-linecap: round"/>
     </g>
    </g>
    <g id="ytick_4">
     <g id="line2d_18">
      <path d="M 489.290298 95.196219 
L 781.659367 95.196219 
" clip-path="url(#pee587d82ac)" style="fill: none; stroke: #ffffff; stroke-linecap: round"/>
     </g>
    </g>
   </g>
   <g id="PolyCollection_7"/>
   <g id="PolyCollection_8"/>
   <g id="PolyCollection_9"/>
   <g id="PolyCollection_10"/>
   <g id="PolyCollection_11"/>
   <g id="PolyCollection_12"/>
   <g id="line2d_19">
    <path d="M 502.579801 95.196219 
L 502.944396 184.49531 
L 503.308992 187.670077 
L 503.673587 188.519881 
L 504.038182 188.72993 
L 504.767373 188.740462 
L 508.048732 188.390698 
L 509.507114 187.596136 
L 541.591511 169.138187 
L 565.290213 155.714671 
L 585.342962 144.584993 
L 606.489496 133.097486 
L 613.781405 129.301768 
L 629.094412 121.561315 
L 650.240947 111.213571 
L 671.022886 101.291822 
L 679.773176 97.25588 
L 683.783726 95.931187 
L 695.815375 92.15722 
L 700.19052 91.606044 
L 707.117833 90.775323 
L 710.399192 91.198719 
L 716.232718 91.857201 
L 722.430841 92.330657 
L 730.087344 92.687617 
L 741.389802 92.975229 
L 768.369864 93.411067 
L 768.369864 93.411067 
" clip-path="url(#pee587d82ac)" style="fill: none; stroke: #4c72b0; stroke-opacity: 0.9; stroke-width: 3; stroke-linecap: round"/>
   </g>
   <g id="line2d_20">
    <path d="M 502.579801 95.196219 
L 502.944396 143.900446 
L 503.308992 145.981182 
L 503.673587 146.70206 
L 504.038182 146.956048 
L 504.767373 147.057766 
L 508.048732 146.9074 
L 509.871709 146.380179 
L 554.352351 132.544989 
L 584.978366 123.217967 
L 613.416809 114.792219 
L 633.104962 109.174979 
L 657.16826 102.83579 
L 681.231558 96.691024 
L 687.42968 95.525786 
L 699.096733 93.53416 
L 707.847024 92.729012 
L 733.368703 93.655577 
L 739.566825 93.873113 
L 743.577375 94.000442 
L 768.369864 94.143898 
L 768.369864 94.143898 
" clip-path="url(#pee587d82ac)" style="fill: none; stroke: #dd8452; stroke-opacity: 0.9; stroke-width: 3; stroke-linecap: round"/>
   </g>
   <g id="line2d_21">
    <path d="M 502.579801 95.196219 
L 502.944396 188.775215 
L 503.308992 193.885281 
L 503.673587 195.183779 
L 504.038182 195.530743 
L 504.767373 195.599747 
L 508.048732 195.224383 
L 509.507114 194.364976 
L 532.841221 179.911632 
L 563.467236 161.259944 
L 584.249175 148.843966 
L 602.478947 138.194889 
L 617.427359 129.678395 
L 634.563344 120.158192 
L 648.782565 112.501531 
L 660.085023 106.681539 
L 676.491817 98.516974 
L 680.502367 96.65959 
L 685.971298 94.570843 
L 689.981848 93.291222 
L 692.534016 92.661911 
L 694.721588 92.305536 
L 702.742688 91.301223 
L 707.117833 90.812668 
L 727.535176 92.456453 
L 750.869283 93.588 
L 764.72391 93.841378 
L 768.369864 93.877493 
L 768.369864 93.877493 
" clip-path="url(#pee587d82ac)" style="fill: none; stroke: #55a868; stroke-opacity: 0.9; stroke-width: 3; stroke-linecap: round"/>
   </g>
   <g id="line2d_22">
    <path d="M 502.579801 95.196219 
L 502.944396 168.741554 
L 503.308992 172.844965 
L 503.673587 173.869332 
L 504.038182 174.136949 
L 504.767373 174.188573 
L 508.048732 173.897991 
L 509.871709 173.048222 
L 540.497725 158.155589 
L 569.300763 144.369495 
L 591.176488 134.138949 
L 609.041664 126.01251 
L 627.636031 117.803933 
L 644.40742 110.654585 
L 657.532855 105.28191 
L 672.845863 99.295133 
L 680.502367 96.44004 
L 686.700489 94.640426 
L 691.075634 93.668164 
L 693.992398 93.242789 
L 700.555115 92.511414 
L 707.482428 91.909473 
L 718.784886 92.587794 
L 732.274917 93.089579 
L 741.754398 93.524751 
L 750.869283 93.839395 
L 764.359314 94.054696 
L 768.369864 94.090129 
L 768.369864 94.090129 
" clip-path="url(#pee587d82ac)" style="fill: none; stroke: #c44e52; stroke-opacity: 0.9; stroke-width: 3; stroke-linecap: round"/>
   </g>
   <g id="line2d_23">
    <path d="M 502.579801 95.196219 
L 502.944396 180.929165 
L 503.308992 184.722075 
L 503.673587 185.363362 
L 504.402778 185.466673 
L 508.048732 185.101399 
L 510.6009 183.70414 
L 538.674748 168.203433 
L 571.12374 150.516764 
L 597.010015 136.644618 
L 618.885741 125.170146 
L 639.303084 114.736755 
L 650.970138 108.971961 
L 670.658291 99.557223 
L 678.67939 95.88727 
L 684.148321 93.853907 
L 688.888062 92.431915 
L 694.721588 90.877753 
L 704.93026 88.565221 
L 707.117833 88.238893 
L 714.045146 88.610701 
L 725.347604 90.339652 
L 732.274917 91.014213 
L 742.848184 91.910304 
L 750.869283 92.293588 
L 768.369864 92.911078 
L 768.369864 92.911078 
" clip-path="url(#pee587d82ac)" style="fill: none; stroke: #8172b3; stroke-opacity: 0.9; stroke-width: 3; stroke-linecap: round"/>
   </g>
   <g id="line2d_24">
    <path d="M 502.579801 95.196219 
L 502.944396 163.989445 
L 503.308992 166.579827 
L 503.673587 167.068939 
L 504.402778 167.14785 
L 508.048732 166.868058 
L 510.965495 165.601958 
L 539.039343 153.361929 
L 571.852931 139.284713 
L 599.926779 127.477031 
L 624.719267 117.313943 
L 645.865802 108.869375 
L 666.647741 100.91492 
L 679.773176 96.073271 
L 682.325344 95.326088 
L 689.981848 93.461696 
L 698.732138 91.574174 
L 706.753237 90.146739 
L 709.305405 90.248935 
L 714.409741 90.597136 
L 728.993558 91.942885 
L 736.650062 92.368262 
L 745.400352 92.689522 
L 762.536337 93.0336 
L 768.369864 93.118009 
L 768.369864 93.118009 
" clip-path="url(#pee587d82ac)" style="fill: none; stroke: #937860; stroke-opacity: 0.9; stroke-width: 3; stroke-linecap: round"/>
   </g>
   <g id="patch_6">
    <path d="M 489.290298 201.042 
L 489.290298 81.456 
" style="fill: none; stroke: #ffffff; stroke-width: 1.25; stroke-linejoin: miter; stroke-linecap: square"/>
   </g>
   <g id="patch_7">
    <path d="M 489.290298 201.042 
L 781.659367 201.042 
" style="fill: none; stroke: #ffffff; stroke-width: 1.25; stroke-linejoin: miter; stroke-linecap: square"/>
   </g>
   <g id="text_5">
    <!-- 0.8~365 -->
    <g style="fill: #262626" transform="translate(580.828239 75.456) scale(0.252 -0.252)">
     <defs>
      <path id="DejaVuSans-33" d="M 2597 2516 
Q 3050 2419 3304 2112 
Q 3559 1806 3559 1356 
Q 3559 666 3084 287 
Q 2609 -91 1734 -91 
Q 1441 -91 1130 -33 
Q 819 25 488 141 
L 488 750 
Q 750 597 1062 519 
Q 1375 441 1716 441 
Q 2309 441 2620 675 
Q 2931 909 2931 1356 
Q 2931 1769 2642 2001 
Q 2353 2234 1838 2234 
L 1294 2234 
L 1294 2753 
L 1863 2753 
Q 2328 2753 2575 2939 
Q 2822 3125 2822 3475 
Q 2822 3834 2567 4026 
Q 2313 4219 1838 4219 
Q 1578 4219 1281 4162 
Q 984 4106 628 3988 
L 628 4550 
Q 988 4650 1302 4700 
Q 1616 4750 1894 4750 
Q 2613 4750 3031 4423 
Q 3450 4097 3450 3541 
Q 3450 3153 3228 2886 
Q 3006 2619 2597 2516 
z
" transform="scale(0.015625)"/>
      <path id="DejaVuSans-36" d="M 2113 2584 
Q 1688 2584 1439 2293 
Q 1191 2003 1191 1497 
Q 1191 994 1439 701 
Q 1688 409 2113 409 
Q 2538 409 2786 701 
Q 3034 994 3034 1497 
Q 3034 2003 2786 2293 
Q 2538 2584 2113 2584 
z
M 3366 4563 
L 3366 3988 
Q 3128 4100 2886 4159 
Q 2644 4219 2406 4219 
Q 1781 4219 1451 3797 
Q 1122 3375 1075 2522 
Q 1259 2794 1537 2939 
Q 1816 3084 2150 3084 
Q 2853 3084 3261 2657 
Q 3669 2231 3669 1497 
Q 3669 778 3244 343 
Q 2819 -91 2113 -91 
Q 1303 -91 875 529 
Q 447 1150 447 2328 
Q 447 3434 972 4092 
Q 1497 4750 2381 4750 
Q 2619 4750 2861 4703 
Q 3103 4656 3366 4563 
z
" transform="scale(0.015625)"/>
     </defs>
     <use xlink:href="#DejaVuSans-30"/>
     <use xlink:href="#DejaVuSans-2e" x="63.623047"/>
     <use xlink:href="#DejaVuSans-38" x="95.410156"/>
     <use xlink:href="#DejaVuSans-7e" x="159.033203"/>
     <use xlink:href="#DejaVuSans-33" x="242.822266"/>
     <use xlink:href="#DejaVuSans-36" x="306.445312"/>
     <use xlink:href="#DejaVuSans-35" x="370.068359"/>
    </g>
   </g>
  </g>
  <g id="axes_3">
   <g id="patch_8">
    <path d="M 808.240504 201.042 
L 1100.609573 201.042 
L 1100.609573 81.456 
L 808.240504 81.456 
z
" style="fill: #eaeaf2"/>
   </g>
   <g id="matplotlib.axis_5">
    <g id="xtick_9">
     <g id="line2d_25">
      <path d="M 821.530007 201.042 
L 821.530007 81.456 
" clip-path="url(#pe5ed85b2bf)" style="fill: none; stroke: #ffffff; stroke-linecap: round"/>
     </g>
    </g>
    <g id="xtick_10">
     <g id="line2d_26">
      <path d="M 912.678863 201.042 
L 912.678863 81.456 
" clip-path="url(#pe5ed85b2bf)" style="fill: none; stroke: #ffffff; stroke-linecap: round"/>
     </g>
    </g>
    <g id="xtick_11">
     <g id="line2d_27">
      <path d="M 1003.827719 201.042 
L 1003.827719 81.456 
" clip-path="url(#pe5ed85b2bf)" style="fill: none; stroke: #ffffff; stroke-linecap: round"/>
     </g>
    </g>
    <g id="xtick_12">
     <g id="line2d_28">
      <path d="M 1094.976574 201.042 
L 1094.976574 81.456 
" clip-path="url(#pe5ed85b2bf)" style="fill: none; stroke: #ffffff; stroke-linecap: round"/>
     </g>
    </g>
   </g>
   <g id="matplotlib.axis_6">
    <g id="ytick_5">
     <g id="line2d_29">
      <path d="M 808.240504 183.399608 
L 1100.609573 183.399608 
" clip-path="url(#pe5ed85b2bf)" style="fill: none; stroke: #ffffff; stroke-linecap: round"/>
     </g>
    </g>
    <g id="ytick_6">
     <g id="line2d_30">
      <path d="M 808.240504 95.196219 
L 1100.609573 95.196219 
" clip-path="url(#pe5ed85b2bf)" style="fill: none; stroke: #ffffff; stroke-linecap: round"/>
     </g>
    </g>
   </g>
   <g id="PolyCollection_13"/>
   <g id="PolyCollection_14"/>
   <g id="PolyCollection_15"/>
   <g id="PolyCollection_16"/>
   <g id="PolyCollection_17"/>
   <g id="PolyCollection_18"/>
   <g id="line2d_31">
    <path d="M 821.530007 95.196219 
L 821.894603 184.49531 
L 822.259198 187.571249 
L 822.623794 188.306445 
L 822.988389 188.39783 
L 823.71758 188.169266 
L 826.998939 186.754439 
L 828.821916 185.168015 
L 837.936801 177.158267 
L 848.145473 168.534404 
L 859.083336 159.594797 
L 865.646053 154.459851 
L 876.948512 146.2474 
L 883.511229 141.697838 
L 894.449092 134.432201 
L 905.022359 127.67797 
L 915.231031 121.413418 
L 925.439703 115.406633 
L 936.01297 109.443024 
L 946.586237 103.737313 
L 949.503001 102.318644 
L 954.242741 100.333395 
L 956.065718 99.741595 
L 964.451413 97.970067 
L 983.045779 93.857957 
L 987.056329 93.314346 
L 995.442024 92.066513 
L 1017.682345 88.638283 
L 1026.432635 87.732242 
L 1030.80778 88.027126 
L 1039.922665 88.706714 
L 1044.662406 89.177724 
L 1050.860528 89.545993 
L 1060.704604 89.786358 
L 1076.017612 89.921979 
L 1087.32007 89.958191 
L 1087.32007 89.958191 
" clip-path="url(#pe5ed85b2bf)" style="fill: none; stroke: #4c72b0; stroke-opacity: 0.9; stroke-width: 3; stroke-linecap: round"/>
   </g>
   <g id="line2d_32">
    <path d="M 821.530007 95.196219 
L 821.894603 143.900446 
L 822.259198 145.935508 
L 822.623794 146.602859 
L 822.988389 146.800623 
L 823.71758 146.787852 
L 826.998939 146.125433 
L 828.821916 145.319612 
L 841.582756 139.519568 
L 855.437382 133.454669 
L 868.927412 127.784202 
L 880.22987 123.263915 
L 891.896924 119.059401 
L 904.293168 114.897044 
L 919.606176 109.974612 
L 934.189993 105.520522 
L 949.138405 101.188347 
L 956.065718 99.524486 
L 957.888695 99.244278 
L 968.461963 97.759134 
L 996.171215 93.726045 
L 1012.578009 91.948514 
L 1019.140726 91.527638 
L 1026.79723 90.698923 
L 1031.901566 90.831993 
L 1039.55807 91.00275 
L 1050.860528 91.274262 
L 1076.746803 91.701521 
L 1087.32007 91.752847 
L 1087.32007 91.752847 
" clip-path="url(#pe5ed85b2bf)" style="fill: none; stroke: #dd8452; stroke-opacity: 0.9; stroke-width: 3; stroke-linecap: round"/>
   </g>
   <g id="line2d_33">
    <path d="M 821.530007 95.196219 
L 821.894603 188.775215 
L 822.259198 193.782783 
L 822.623794 194.961626 
L 822.988389 195.184507 
L 823.71758 195.003302 
L 826.998939 193.514393 
L 828.821916 191.81907 
L 837.572206 183.607863 
L 846.322496 175.717126 
L 857.260359 166.163033 
L 866.73984 158.184711 
L 875.854725 150.814869 
L 882.782038 145.447284 
L 893.355306 137.60848 
L 901.376405 131.959144 
L 909.7621 126.298243 
L 919.970771 119.702026 
L 927.991871 114.77423 
L 936.742161 109.64211 
L 942.940283 106.229206 
L 949.138405 103.070212 
L 953.878146 100.83304 
L 958.253291 99.094256 
L 961.170054 98.104325 
L 966.27439 96.58701 
L 969.555749 95.840379 
L 983.410375 93.293121 
L 987.78552 92.638351 
L 996.900406 91.521816 
L 1019.140726 89.010954 
L 1026.432635 88.49899 
L 1029.349398 88.825081 
L 1035.912116 89.4678 
L 1043.204024 89.973716 
L 1050.860528 90.328336 
L 1064.715154 90.675941 
L 1080.757353 90.821317 
L 1087.32007 90.844915 
L 1087.32007 90.844915 
" clip-path="url(#pe5ed85b2bf)" style="fill: none; stroke: #55a868; stroke-opacity: 0.9; stroke-width: 3; stroke-linecap: round"/>
   </g>
   <g id="line2d_34">
    <path d="M 821.530007 95.196219 
L 821.894603 168.741554 
L 822.259198 172.763826 
L 822.623794 173.693056 
L 822.988389 173.862033 
L 823.71758 173.714523 
L 826.998939 172.536184 
L 828.821916 171.200661 
L 838.301397 164.184093 
L 849.239259 156.377854 
L 859.447931 149.345757 
L 868.562817 143.333744 
L 876.583916 138.269823 
L 886.792588 132.157455 
L 897.00126 126.300729 
L 905.386954 121.73712 
L 913.772649 117.377875 
L 922.522939 113.056373 
L 932.731611 108.29382 
L 940.02352 105.108392 
L 948.77381 101.613652 
L 954.242741 99.593025 
L 959.347077 98.130377 
L 964.086817 97.008175 
L 969.191153 96.025068 
L 981.951993 94.044978 
L 987.420925 93.468177 
L 996.900406 92.56668 
L 1018.776131 90.276231 
L 1026.432635 89.709799 
L 1029.713994 89.997514 
L 1035.54752 90.426853 
L 1046.485383 90.945649 
L 1056.694055 91.246698 
L 1072.007063 91.430048 
L 1087.32007 91.494003 
L 1087.32007 91.494003 
" clip-path="url(#pe5ed85b2bf)" style="fill: none; stroke: #c44e52; stroke-opacity: 0.9; stroke-width: 3; stroke-linecap: round"/>
   </g>
   <g id="line2d_35">
    <path d="M 821.530007 95.196219 
L 821.894603 180.929165 
L 822.259198 184.616693 
L 822.623794 185.145118 
L 822.988389 185.139228 
L 824.446771 184.5772 
L 826.998939 183.528233 
L 830.280297 180.738283 
L 839.759778 172.807133 
L 850.697641 163.945093 
L 861.635504 155.363818 
L 872.937962 146.77861 
L 884.24042 138.529826 
L 894.813687 131.075814 
L 904.657764 124.576614 
L 915.595626 117.608113 
L 925.804298 111.355042 
L 935.648375 105.566412 
L 945.492451 100.02925 
L 948.409214 98.532734 
L 954.242741 96.029151 
L 958.982482 94.214531 
L 966.27439 91.822112 
L 968.097367 91.360351 
L 984.868757 89.203039 
L 999.452573 87.880527 
L 1009.29665 87.688942 
L 1014.765581 87.800946 
L 1019.869917 87.669553 
L 1024.609658 87.545151 
L 1027.161826 87.647699 
L 1032.995352 88.183168 
L 1039.922665 88.561574 
L 1046.485383 88.931934 
L 1051.954314 89.386871 
L 1059.246223 89.711115 
L 1071.277872 90.007034 
L 1087.32007 90.180341 
L 1087.32007 90.180341 
" clip-path="url(#pe5ed85b2bf)" style="fill: none; stroke: #8172b3; stroke-opacity: 0.9; stroke-width: 3; stroke-linecap: round"/>
   </g>
   <g id="line2d_36">
    <path d="M 821.530007 95.196219 
L 821.894603 163.989445 
L 822.259198 166.499052 
L 822.623794 166.901902 
L 823.352984 166.806539 
L 826.998939 165.666635 
L 830.644893 163.244935 
L 840.853565 156.596217 
L 852.520618 149.271641 
L 863.458481 142.647515 
L 875.854725 135.424317 
L 887.886374 128.672 
L 896.272069 124.185767 
L 907.939122 118.210903 
L 919.241581 112.666571 
L 931.273229 107.001269 
L 942.940283 101.747296 
L 948.77381 99.281045 
L 953.148955 97.753807 
L 957.888695 96.315983 
L 968.097367 93.501894 
L 971.378726 92.885529 
L 978.306039 91.796337 
L 983.77497 91.073866 
L 989.243902 90.528893 
L 1010.755032 88.598861 
L 1020.234513 87.878274 
L 1022.422085 87.838492 
L 1026.79723 88.080769 
L 1032.995352 88.981379 
L 1039.55807 89.377416 
L 1048.672956 89.677621 
L 1053.412696 89.901927 
L 1061.0692 90.209137 
L 1078.205185 90.570612 
L 1087.32007 90.650961 
L 1087.32007 90.650961 
" clip-path="url(#pe5ed85b2bf)" style="fill: none; stroke: #937860; stroke-opacity: 0.9; stroke-width: 3; stroke-linecap: round"/>
   </g>
   <g id="patch_9">
    <path d="M 808.240504 201.042 
L 808.240504 81.456 
" style="fill: none; stroke: #ffffff; stroke-width: 1.25; stroke-linejoin: miter; stroke-linecap: square"/>
   </g>
   <g id="patch_10">
    <path d="M 808.240504 201.042 
L 1100.609573 201.042 
" style="fill: none; stroke: #ffffff; stroke-width: 1.25; stroke-linejoin: miter; stroke-linecap: square"/>
   </g>
   <g id="text_6">
    <!-- 0.85~90 -->
    <g style="fill: #262626" transform="translate(899.778445 75.456) scale(0.252 -0.252)">
     <use xlink:href="#DejaVuSans-30"/>
     <use xlink:href="#DejaVuSans-2e" x="63.623047"/>
     <use xlink:href="#DejaVuSans-38" x="95.410156"/>
     <use xlink:href="#DejaVuSans-35" x="159.033203"/>
     <use xlink:href="#DejaVuSans-7e" x="222.65625"/>
     <use xlink:href="#DejaVuSans-39" x="306.445312"/>
     <use xlink:href="#DejaVuSans-30" x="370.068359"/>
    </g>
   </g>
  </g>
  <g id="axes_4">
   <g id="patch_11">
    <path d="M 170.340091 373.284 
L 462.70916 373.284 
L 462.70916 253.698 
L 170.340091 253.698 
z
" style="fill: #eaeaf2"/>
   </g>
   <g id="matplotlib.axis_7">
    <g id="xtick_13">
     <g id="line2d_37">
      <path d="M 183.629594 373.284 
L 183.629594 253.698 
" clip-path="url(#peaf67345ed)" style="fill: none; stroke: #ffffff; stroke-linecap: round"/>
     </g>
     <g id="text_7">
      <!-- 0 -->
      <g style="fill: #262626" transform="translate(176.280907 400.336391) scale(0.231 -0.231)">
       <use xlink:href="#DejaVuSans-30"/>
      </g>
     </g>
    </g>
    <g id="xtick_14">
     <g id="line2d_38">
      <path d="M 274.77845 373.284 
L 274.77845 253.698 
" clip-path="url(#peaf67345ed)" style="fill: none; stroke: #ffffff; stroke-linecap: round"/>
     </g>
     <g id="text_8">
      <!-- 250 -->
      <g style="fill: #262626" transform="translate(252.732387 400.336391) scale(0.231 -0.231)">
       <defs>
        <path id="DejaVuSans-32" d="M 1228 531 
L 3431 531 
L 3431 0 
L 469 0 
L 469 531 
Q 828 903 1448 1529 
Q 2069 2156 2228 2338 
Q 2531 2678 2651 2914 
Q 2772 3150 2772 3378 
Q 2772 3750 2511 3984 
Q 2250 4219 1831 4219 
Q 1534 4219 1204 4116 
Q 875 4013 500 3803 
L 500 4441 
Q 881 4594 1212 4672 
Q 1544 4750 1819 4750 
Q 2544 4750 2975 4387 
Q 3406 4025 3406 3419 
Q 3406 3131 3298 2873 
Q 3191 2616 2906 2266 
Q 2828 2175 2409 1742 
Q 1991 1309 1228 531 
z
" transform="scale(0.015625)"/>
       </defs>
       <use xlink:href="#DejaVuSans-32"/>
       <use xlink:href="#DejaVuSans-35" x="63.623047"/>
       <use xlink:href="#DejaVuSans-30" x="127.246094"/>
      </g>
     </g>
    </g>
    <g id="xtick_15">
     <g id="line2d_39">
      <path d="M 365.927305 373.284 
L 365.927305 253.698 
" clip-path="url(#peaf67345ed)" style="fill: none; stroke: #ffffff; stroke-linecap: round"/>
     </g>
     <g id="text_9">
      <!-- 500 -->
      <g style="fill: #262626" transform="translate(343.881243 400.336391) scale(0.231 -0.231)">
       <use xlink:href="#DejaVuSans-35"/>
       <use xlink:href="#DejaVuSans-30" x="63.623047"/>
       <use xlink:href="#DejaVuSans-30" x="127.246094"/>
      </g>
     </g>
    </g>
    <g id="xtick_16">
     <g id="line2d_40">
      <path d="M 457.076161 373.284 
L 457.076161 253.698 
" clip-path="url(#peaf67345ed)" style="fill: none; stroke: #ffffff; stroke-linecap: round"/>
     </g>
     <g id="text_10">
      <!-- 750 -->
      <g style="fill: #262626" transform="translate(435.030099 400.336391) scale(0.231 -0.231)">
       <defs>
        <path id="DejaVuSans-37" d="M 525 4666 
L 3525 4666 
L 3525 4397 
L 1831 0 
L 1172 0 
L 2766 4134 
L 525 4134 
L 525 4666 
z
" transform="scale(0.015625)"/>
       </defs>
       <use xlink:href="#DejaVuSans-37"/>
       <use xlink:href="#DejaVuSans-35" x="63.623047"/>
       <use xlink:href="#DejaVuSans-30" x="127.246094"/>
      </g>
     </g>
    </g>
    <g id="text_11">
     <!-- step -->
     <g style="fill: #262626" transform="translate(289.269251 428.288531) scale(0.252 -0.252)">
      <defs>
       <path id="DejaVuSans-73" d="M 2834 3397 
L 2834 2853 
Q 2591 2978 2328 3040 
Q 2066 3103 1784 3103 
Q 1356 3103 1142 2972 
Q 928 2841 928 2578 
Q 928 2378 1081 2264 
Q 1234 2150 1697 2047 
L 1894 2003 
Q 2506 1872 2764 1633 
Q 3022 1394 3022 966 
Q 3022 478 2636 193 
Q 2250 -91 1575 -91 
Q 1294 -91 989 -36 
Q 684 19 347 128 
L 347 722 
Q 666 556 975 473 
Q 1284 391 1588 391 
Q 1994 391 2212 530 
Q 2431 669 2431 922 
Q 2431 1156 2273 1281 
Q 2116 1406 1581 1522 
L 1381 1569 
Q 847 1681 609 1914 
Q 372 2147 372 2553 
Q 372 3047 722 3315 
Q 1072 3584 1716 3584 
Q 2034 3584 2315 3537 
Q 2597 3491 2834 3397 
z
" transform="scale(0.015625)"/>
       <path id="DejaVuSans-74" d="M 1172 4494 
L 1172 3500 
L 2356 3500 
L 2356 3053 
L 1172 3053 
L 1172 1153 
Q 1172 725 1289 603 
Q 1406 481 1766 481 
L 2356 481 
L 2356 0 
L 1766 0 
Q 1100 0 847 248 
Q 594 497 594 1153 
L 594 3053 
L 172 3053 
L 172 3500 
L 594 3500 
L 594 4494 
L 1172 4494 
z
" transform="scale(0.015625)"/>
       <path id="DejaVuSans-70" d="M 1159 525 
L 1159 -1331 
L 581 -1331 
L 581 3500 
L 1159 3500 
L 1159 2969 
Q 1341 3281 1617 3432 
Q 1894 3584 2278 3584 
Q 2916 3584 3314 3078 
Q 3713 2572 3713 1747 
Q 3713 922 3314 415 
Q 2916 -91 2278 -91 
Q 1894 -91 1617 61 
Q 1341 213 1159 525 
z
M 3116 1747 
Q 3116 2381 2855 2742 
Q 2594 3103 2138 3103 
Q 1681 3103 1420 2742 
Q 1159 2381 1159 1747 
Q 1159 1113 1420 752 
Q 1681 391 2138 391 
Q 2594 391 2855 752 
Q 3116 1113 3116 1747 
z
" transform="scale(0.015625)"/>
      </defs>
      <use xlink:href="#DejaVuSans-73"/>
      <use xlink:href="#DejaVuSans-74" x="52.099609"/>
      <use xlink:href="#DejaVuSans-65" x="91.308594"/>
      <use xlink:href="#DejaVuSans-70" x="152.832031"/>
     </g>
    </g>
   </g>
   <g id="matplotlib.axis_8">
    <g id="ytick_7">
     <g id="line2d_41">
      <path d="M 170.340091 355.641608 
L 462.70916 355.641608 
" clip-path="url(#peaf67345ed)" style="fill: none; stroke: #ffffff; stroke-linecap: round"/>
     </g>
     <g id="text_12">
      <!-- −0.5 -->
      <g style="fill: #262626" transform="translate(104.746794 364.417803) scale(0.231 -0.231)">
       <use xlink:href="#DejaVuSans-2212"/>
       <use xlink:href="#DejaVuSans-30" x="83.789062"/>
       <use xlink:href="#DejaVuSans-2e" x="147.412109"/>
       <use xlink:href="#DejaVuSans-35" x="179.199219"/>
      </g>
     </g>
    </g>
    <g id="ytick_8">
     <g id="line2d_42">
      <path d="M 170.340091 267.438219 
L 462.70916 267.438219 
" clip-path="url(#peaf67345ed)" style="fill: none; stroke: #ffffff; stroke-linecap: round"/>
     </g>
     <g id="text_13">
      <!-- 0.0 -->
      <g style="fill: #262626" transform="translate(124.103872 276.214414) scale(0.231 -0.231)">
       <use xlink:href="#DejaVuSans-30"/>
       <use xlink:href="#DejaVuSans-2e" x="63.623047"/>
       <use xlink:href="#DejaVuSans-30" x="95.410156"/>
      </g>
     </g>
    </g>
    <g id="text_14">
     <!-- % change -->
     <g style="fill: #262626" transform="translate(95.505982 375.839344) rotate(-90) scale(0.252 -0.252)">
      <use xlink:href="#DejaVuSans-25"/>
      <use xlink:href="#DejaVuSans-20" x="95.019531"/>
      <use xlink:href="#DejaVuSans-63" x="126.806641"/>
      <use xlink:href="#DejaVuSans-68" x="181.787109"/>
      <use xlink:href="#DejaVuSans-61" x="245.166016"/>
      <use xlink:href="#DejaVuSans-6e" x="306.445312"/>
      <use xlink:href="#DejaVuSans-67" x="369.824219"/>
      <use xlink:href="#DejaVuSans-65" x="433.300781"/>
     </g>
    </g>
   </g>
   <g id="PolyCollection_19"/>
   <g id="PolyCollection_20"/>
   <g id="PolyCollection_21"/>
   <g id="PolyCollection_22"/>
   <g id="PolyCollection_23"/>
   <g id="PolyCollection_24"/>
   <g id="line2d_43">
    <path d="M 183.629594 267.438219 
L 183.99419 356.73731 
L 184.358785 359.912077 
L 184.723381 360.761881 
L 185.087976 360.97193 
L 185.817167 360.982462 
L 189.098526 360.632698 
L 190.556907 359.838136 
L 222.641304 341.380187 
L 246.340007 327.956671 
L 266.392755 316.826993 
L 287.53929 305.339486 
L 294.831198 301.543768 
L 310.144206 293.803315 
L 331.29074 283.455571 
L 352.072679 273.533822 
L 360.82297 269.49788 
L 364.833519 268.173187 
L 376.865168 264.39922 
L 381.240313 263.848044 
L 388.167626 263.017323 
L 391.448985 263.440719 
L 397.282512 264.099201 
L 403.480634 264.572657 
L 411.137138 264.929617 
L 422.439596 265.217229 
L 449.419657 265.653067 
L 449.419657 265.653067 
" clip-path="url(#peaf67345ed)" style="fill: none; stroke: #4c72b0; stroke-opacity: 0.9; stroke-width: 3; stroke-linecap: round"/>
   </g>
   <g id="line2d_44">
    <path d="M 183.629594 267.438219 
L 183.99419 316.142446 
L 184.358785 318.223182 
L 184.723381 318.94406 
L 185.087976 319.198048 
L 185.817167 319.299766 
L 189.098526 319.1494 
L 190.921503 318.622179 
L 235.402144 304.786989 
L 266.02816 295.459967 
L 294.466603 287.034219 
L 314.154755 281.416979 
L 338.218053 275.07779 
L 362.281351 268.933024 
L 368.479473 267.767786 
L 380.146527 265.77616 
L 388.896817 264.971012 
L 414.418497 265.897577 
L 420.616619 266.115113 
L 424.627169 266.242442 
L 449.419657 266.385898 
L 449.419657 266.385898 
" clip-path="url(#peaf67345ed)" style="fill: none; stroke: #dd8452; stroke-opacity: 0.9; stroke-width: 3; stroke-linecap: round"/>
   </g>
   <g id="line2d_45">
    <path d="M 183.629594 267.438219 
L 183.99419 361.017215 
L 184.358785 366.127281 
L 184.723381 367.425779 
L 185.087976 367.772743 
L 185.817167 367.841747 
L 189.098526 367.466383 
L 190.556907 366.606976 
L 213.891014 352.153632 
L 242.694053 334.616964 
L 309.05042 295.996231 
L 325.457214 287.048023 
L 337.488863 280.762315 
L 350.978893 273.986828 
L 361.187565 269.037379 
L 367.021092 266.803067 
L 370.667046 265.62949 
L 373.583809 264.905413 
L 375.771382 264.54923 
L 383.792481 263.545282 
L 388.167626 263.057058 
L 408.58497 264.699189 
L 431.919077 265.829564 
L 446.138298 266.086961 
L 449.419657 266.119022 
L 449.419657 266.119022 
" clip-path="url(#peaf67345ed)" style="fill: none; stroke: #55a868; stroke-opacity: 0.9; stroke-width: 3; stroke-linecap: round"/>
   </g>
   <g id="line2d_46">
    <path d="M 183.629594 267.438219 
L 183.99419 340.983554 
L 184.358785 345.086965 
L 184.723381 346.111332 
L 185.087976 346.378949 
L 185.817167 346.430573 
L 189.098526 346.139991 
L 190.921503 345.290222 
L 221.547518 330.397589 
L 237.954312 322.597749 
L 259.465442 312.598276 
L 291.185244 297.893031 
L 308.321229 290.188245 
L 324.363427 283.339297 
L 337.124267 278.095342 
L 348.791321 273.498659 
L 361.187565 268.783386 
L 366.656496 267.158752 
L 370.302451 266.276418 
L 373.583809 265.668938 
L 381.969504 264.717114 
L 388.532222 264.152618 
L 399.83468 264.829322 
L 413.32471 265.330437 
L 422.439596 265.747744 
L 431.554482 266.070611 
L 444.679917 266.287455 
L 449.419657 266.330371 
L 449.419657 266.330371 
" clip-path="url(#peaf67345ed)" style="fill: none; stroke: #c44e52; stroke-opacity: 0.9; stroke-width: 3; stroke-linecap: round"/>
   </g>
   <g id="line2d_47">
    <path d="M 183.629594 267.438219 
L 183.99419 353.171165 
L 184.358785 356.964075 
L 184.723381 357.605362 
L 185.452571 357.708673 
L 189.098526 357.343399 
L 191.650694 355.94614 
L 219.724541 340.445433 
L 252.173534 322.758764 
L 278.059809 308.886618 
L 299.935534 297.412146 
L 320.352878 286.978755 
L 332.019931 281.213961 
L 351.708084 271.799223 
L 359.729183 268.12927 
L 365.198115 266.095907 
L 369.937855 264.673915 
L 375.771382 263.119753 
L 385.980054 260.807221 
L 388.167626 260.480893 
L 395.094939 260.852701 
L 406.397397 262.581652 
L 413.32471 263.256213 
L 423.897978 264.152304 
L 431.919077 264.535588 
L 449.419657 265.153078 
L 449.419657 265.153078 
" clip-path="url(#peaf67345ed)" style="fill: none; stroke: #8172b3; stroke-opacity: 0.9; stroke-width: 3; stroke-linecap: round"/>
   </g>
   <g id="line2d_48">
    <path d="M 183.629594 267.438219 
L 183.99419 336.231445 
L 184.358785 338.821827 
L 184.723381 339.310939 
L 185.452571 339.38985 
L 189.098526 339.110058 
L 192.015289 337.843958 
L 220.089136 325.603929 
L 252.902725 311.526713 
L 280.976572 299.719031 
L 305.769061 289.555943 
L 326.915595 281.111375 
L 347.697534 273.15692 
L 360.82297 268.315271 
L 363.375138 267.568088 
L 371.031641 265.703696 
L 379.781932 263.816174 
L 387.803031 262.388739 
L 390.355199 262.490935 
L 395.459535 262.839136 
L 410.043352 264.184885 
L 417.699855 264.610262 
L 426.450146 264.931522 
L 443.58613 265.2756 
L 449.419657 265.360009 
L 449.419657 265.360009 
" clip-path="url(#peaf67345ed)" style="fill: none; stroke: #937860; stroke-opacity: 0.9; stroke-width: 3; stroke-linecap: round"/>
   </g>
   <g id="patch_12">
    <path d="M 170.340091 373.284 
L 170.340091 253.698 
" style="fill: none; stroke: #ffffff; stroke-width: 1.25; stroke-linejoin: miter; stroke-linecap: square"/>
   </g>
   <g id="patch_13">
    <path d="M 170.340091 373.284 
L 462.70916 373.284 
" style="fill: none; stroke: #ffffff; stroke-width: 1.25; stroke-linejoin: miter; stroke-linecap: square"/>
   </g>
   <g id="text_15">
    <!-- 0.85~365 -->
    <g style="fill: #262626" transform="translate(253.861282 247.698) scale(0.252 -0.252)">
     <use xlink:href="#DejaVuSans-30"/>
     <use xlink:href="#DejaVuSans-2e" x="63.623047"/>
     <use xlink:href="#DejaVuSans-38" x="95.410156"/>
     <use xlink:href="#DejaVuSans-35" x="159.033203"/>
     <use xlink:href="#DejaVuSans-7e" x="222.65625"/>
     <use xlink:href="#DejaVuSans-33" x="306.445312"/>
     <use xlink:href="#DejaVuSans-36" x="370.068359"/>
     <use xlink:href="#DejaVuSans-35" x="433.691406"/>
    </g>
   </g>
  </g>
  <g id="axes_5">
   <g id="patch_14">
    <path d="M 489.290298 373.284 
L 781.659367 373.284 
L 781.659367 253.698 
L 489.290298 253.698 
z
" style="fill: #eaeaf2"/>
   </g>
   <g id="matplotlib.axis_9">
    <g id="xtick_17">
     <g id="line2d_49">
      <path d="M 502.579801 373.284 
L 502.579801 253.698 
" clip-path="url(#p8ee21cbfd4)" style="fill: none; stroke: #ffffff; stroke-linecap: round"/>
     </g>
     <g id="text_16">
      <!-- 0 -->
      <g style="fill: #262626" transform="translate(495.231113 400.336391) scale(0.231 -0.231)">
       <use xlink:href="#DejaVuSans-30"/>
      </g>
     </g>
    </g>
    <g id="xtick_18">
     <g id="line2d_50">
      <path d="M 593.728656 373.284 
L 593.728656 253.698 
" clip-path="url(#p8ee21cbfd4)" style="fill: none; stroke: #ffffff; stroke-linecap: round"/>
     </g>
     <g id="text_17">
      <!-- 250 -->
      <g style="fill: #262626" transform="translate(571.682594 400.336391) scale(0.231 -0.231)">
       <use xlink:href="#DejaVuSans-32"/>
       <use xlink:href="#DejaVuSans-35" x="63.623047"/>
       <use xlink:href="#DejaVuSans-30" x="127.246094"/>
      </g>
     </g>
    </g>
    <g id="xtick_19">
     <g id="line2d_51">
      <path d="M 684.877512 373.284 
L 684.877512 253.698 
" clip-path="url(#p8ee21cbfd4)" style="fill: none; stroke: #ffffff; stroke-linecap: round"/>
     </g>
     <g id="text_18">
      <!-- 500 -->
      <g style="fill: #262626" transform="translate(662.83145 400.336391) scale(0.231 -0.231)">
       <use xlink:href="#DejaVuSans-35"/>
       <use xlink:href="#DejaVuSans-30" x="63.623047"/>
       <use xlink:href="#DejaVuSans-30" x="127.246094"/>
      </g>
     </g>
    </g>
    <g id="xtick_20">
     <g id="line2d_52">
      <path d="M 776.026368 373.284 
L 776.026368 253.698 
" clip-path="url(#p8ee21cbfd4)" style="fill: none; stroke: #ffffff; stroke-linecap: round"/>
     </g>
     <g id="text_19">
      <!-- 750 -->
      <g style="fill: #262626" transform="translate(753.980305 400.336391) scale(0.231 -0.231)">
       <use xlink:href="#DejaVuSans-37"/>
       <use xlink:href="#DejaVuSans-35" x="63.623047"/>
       <use xlink:href="#DejaVuSans-30" x="127.246094"/>
      </g>
     </g>
    </g>
    <g id="text_20">
     <!-- step -->
     <g style="fill: #262626" transform="translate(608.219457 428.288531) scale(0.252 -0.252)">
      <use xlink:href="#DejaVuSans-73"/>
      <use xlink:href="#DejaVuSans-74" x="52.099609"/>
      <use xlink:href="#DejaVuSans-65" x="91.308594"/>
      <use xlink:href="#DejaVuSans-70" x="152.832031"/>
     </g>
    </g>
   </g>
   <g id="matplotlib.axis_10">
    <g id="ytick_9">
     <g id="line2d_53">
      <path d="M 489.290298 355.641608 
L 781.659367 355.641608 
" clip-path="url(#p8ee21cbfd4)" style="fill: none; stroke: #ffffff; stroke-linecap: round"/>
     </g>
    </g>
    <g id="ytick_10">
     <g id="line2d_54">
      <path d="M 489.290298 267.438219 
L 781.659367 267.438219 
" clip-path="url(#p8ee21cbfd4)" style="fill: none; stroke: #ffffff; stroke-linecap: round"/>
     </g>
    </g>
   </g>
   <g id="PolyCollection_25"/>
   <g id="PolyCollection_26"/>
   <g id="PolyCollection_27"/>
   <g id="PolyCollection_28"/>
   <g id="PolyCollection_29"/>
   <g id="PolyCollection_30"/>
   <g id="line2d_55">
    <path d="M 502.579801 267.438219 
L 502.944396 356.73731 
L 503.308992 359.813249 
L 503.673587 360.548445 
L 504.038182 360.63983 
L 504.767373 360.411266 
L 508.048732 358.996439 
L 509.871709 357.410015 
L 518.986595 349.400267 
L 529.195267 340.776404 
L 540.133129 331.836797 
L 546.695847 326.701851 
L 557.998305 318.4894 
L 564.561023 313.939838 
L 575.498885 306.674201 
L 586.072153 299.91997 
L 596.280824 293.655418 
L 606.489496 287.648633 
L 617.062763 281.685024 
L 627.636031 275.979313 
L 630.552794 274.560644 
L 635.292535 272.575395 
L 637.115512 271.983595 
L 645.501206 270.212067 
L 664.095573 266.099957 
L 668.106123 265.556346 
L 676.491817 264.308513 
L 698.732138 260.880283 
L 707.482428 259.974242 
L 711.857573 260.269126 
L 720.972459 260.948714 
L 725.712199 261.419724 
L 731.910322 261.787993 
L 741.754398 262.028358 
L 757.067406 262.163979 
L 768.369864 262.200191 
L 768.369864 262.200191 
" clip-path="url(#p8ee21cbfd4)" style="fill: none; stroke: #4c72b0; stroke-opacity: 0.9; stroke-width: 3; stroke-linecap: round"/>
   </g>
   <g id="line2d_56">
    <path d="M 502.579801 267.438219 
L 502.944396 316.142446 
L 503.308992 318.177508 
L 503.673587 318.844859 
L 504.038182 319.042623 
L 504.767373 319.029852 
L 508.048732 318.367433 
L 509.871709 317.561612 
L 522.632549 311.761568 
L 536.487175 305.696669 
L 549.977206 300.026202 
L 561.279664 295.505915 
L 572.946717 291.301401 
L 585.342962 287.139044 
L 600.655969 282.216612 
L 615.239786 277.762522 
L 630.188199 273.430347 
L 637.115512 271.766486 
L 638.938489 271.486278 
L 649.511756 270.001134 
L 677.221008 265.968045 
L 693.627802 264.190514 
L 700.19052 263.769638 
L 707.847024 262.940923 
L 712.95136 263.073993 
L 720.607863 263.24475 
L 731.910322 263.516262 
L 757.796597 263.943521 
L 768.369864 263.994847 
L 768.369864 263.994847 
" clip-path="url(#p8ee21cbfd4)" style="fill: none; stroke: #dd8452; stroke-opacity: 0.9; stroke-width: 3; stroke-linecap: round"/>
   </g>
   <g id="line2d_57">
    <path d="M 502.579801 267.438219 
L 502.944396 361.017215 
L 503.308992 366.024783 
L 503.673587 367.203626 
L 504.038182 367.426507 
L 504.767373 367.245302 
L 508.048732 365.756393 
L 509.871709 364.06107 
L 518.621999 355.849863 
L 527.372289 347.959126 
L 532.841221 343.248094 
L 537.580961 339.486806 
L 541.226916 336.800177 
L 546.331251 333.430011 
L 554.716946 328.240439 
L 561.644259 323.932436 
L 570.029954 318.445964 
L 579.87403 311.779981 
L 587.530534 306.673145 
L 597.374611 300.672998 
L 615.239786 290.183776 
L 621.802504 286.466557 
L 630.917389 281.636332 
L 634.927939 279.693643 
L 639.66768 277.673805 
L 644.40742 275.867212 
L 648.41797 274.479675 
L 654.616092 272.646645 
L 662.637191 270.176922 
L 677.221008 265.721819 
L 695.086184 260.50246 
L 698.367543 259.837136 
L 701.284306 259.506052 
L 705.659451 259.186103 
L 707.482428 259.159294 
L 709.670001 259.497314 
L 714.409741 260.188604 
L 720.972459 260.847645 
L 730.087344 261.485492 
L 738.837635 261.858636 
L 749.046306 262.096633 
L 766.546887 262.240367 
L 768.369864 262.247662 
L 768.369864 262.247662 
" clip-path="url(#p8ee21cbfd4)" style="fill: none; stroke: #55a868; stroke-opacity: 0.9; stroke-width: 3; stroke-linecap: round"/>
   </g>
   <g id="line2d_58">
    <path d="M 502.579801 267.438219 
L 502.944396 340.983554 
L 503.308992 345.005826 
L 503.673587 345.935056 
L 504.038182 346.104033 
L 504.767373 345.956523 
L 508.048732 344.778184 
L 509.871709 343.442661 
L 519.35119 336.426093 
L 528.830671 329.677174 
L 532.11203 327.613103 
L 542.685297 321.186716 
L 548.518824 318.152613 
L 564.561023 310.050065 
L 580.967817 301.265926 
L 584.613771 299.390943 
L 594.093252 294.752584 
L 611.229237 286.680171 
L 622.531695 281.530922 
L 634.927939 276.243841 
L 640.39687 274.327456 
L 646.230397 272.459157 
L 651.334733 270.983589 
L 676.127222 264.249638 
L 680.866962 263.320997 
L 686.335894 262.526187 
L 690.346443 262.208895 
L 707.482428 261.059998 
L 710.763787 261.366787 
L 716.961909 261.884682 
L 727.170581 262.413419 
L 738.837635 262.791539 
L 752.692261 262.969639 
L 768.369864 263.043813 
L 768.369864 263.043813 
" clip-path="url(#p8ee21cbfd4)" style="fill: none; stroke: #c44e52; stroke-opacity: 0.9; stroke-width: 3; stroke-linecap: round"/>
   </g>
   <g id="line2d_59">
    <path d="M 502.579801 267.438219 
L 502.944396 353.171165 
L 503.308992 356.858693 
L 503.673587 357.387118 
L 504.038182 357.381228 
L 505.496564 356.8192 
L 508.048732 355.770233 
L 511.330091 352.980283 
L 520.809572 345.049133 
L 531.747435 336.187093 
L 542.685297 327.605818 
L 553.987755 319.02061 
L 565.290213 310.771826 
L 575.863481 303.317814 
L 585.707557 296.818614 
L 596.64542 289.850113 
L 606.854092 283.597042 
L 616.698168 277.808412 
L 626.542244 272.27125 
L 629.459008 270.774734 
L 635.292535 268.271151 
L 640.032275 266.456531 
L 647.324183 264.064112 
L 649.147161 263.602351 
L 665.91855 261.445039 
L 680.502367 260.122527 
L 690.346443 259.930942 
L 695.815375 260.042946 
L 700.919711 259.911553 
L 705.659451 259.787151 
L 708.211619 259.889699 
L 714.045146 260.425168 
L 720.972459 260.803574 
L 727.535176 261.173934 
L 733.004108 261.628871 
L 740.296016 261.953115 
L 752.327665 262.249034 
L 768.369864 262.422341 
L 768.369864 262.422341 
" clip-path="url(#p8ee21cbfd4)" style="fill: none; stroke: #8172b3; stroke-opacity: 0.9; stroke-width: 3; stroke-linecap: round"/>
   </g>
   <g id="line2d_60">
    <path d="M 502.579801 267.438219 
L 502.944396 336.231445 
L 503.308992 338.741052 
L 503.673587 339.143902 
L 504.402778 339.048539 
L 508.048732 337.908635 
L 511.694686 335.486935 
L 521.903358 328.838217 
L 533.570412 321.513641 
L 544.508274 314.889515 
L 556.904519 307.666317 
L 568.936168 300.914 
L 577.321862 296.427767 
L 588.988916 290.452903 
L 600.291374 284.908571 
L 612.323023 279.243269 
L 623.990076 273.989296 
L 629.823603 271.523045 
L 634.198748 269.995807 
L 638.938489 268.557983 
L 649.147161 265.743894 
L 652.428519 265.127529 
L 659.355832 264.038337 
L 664.824764 263.315866 
L 670.293695 262.770893 
L 691.804825 260.840861 
L 701.284306 260.120274 
L 703.471879 260.080492 
L 707.847024 260.322769 
L 714.045146 261.223379 
L 720.607863 261.619416 
L 729.722749 261.919621 
L 734.462489 262.143927 
L 742.118993 262.451137 
L 759.254978 262.812612 
L 768.369864 262.892961 
L 768.369864 262.892961 
" clip-path="url(#p8ee21cbfd4)" style="fill: none; stroke: #937860; stroke-opacity: 0.9; stroke-width: 3; stroke-linecap: round"/>
   </g>
   <g id="patch_15">
    <path d="M 489.290298 373.284 
L 489.290298 253.698 
" style="fill: none; stroke: #ffffff; stroke-width: 1.25; stroke-linejoin: miter; stroke-linecap: square"/>
   </g>
   <g id="patch_16">
    <path d="M 489.290298 373.284 
L 781.659367 373.284 
" style="fill: none; stroke: #ffffff; stroke-width: 1.25; stroke-linejoin: miter; stroke-linecap: square"/>
   </g>
   <g id="text_21">
    <!-- 0.95~90 -->
    <g style="fill: #262626" transform="translate(580.828239 247.698) scale(0.252 -0.252)">
     <use xlink:href="#DejaVuSans-30"/>
     <use xlink:href="#DejaVuSans-2e" x="63.623047"/>
     <use xlink:href="#DejaVuSans-39" x="95.410156"/>
     <use xlink:href="#DejaVuSans-35" x="159.033203"/>
     <use xlink:href="#DejaVuSans-7e" x="222.65625"/>
     <use xlink:href="#DejaVuSans-39" x="306.445312"/>
     <use xlink:href="#DejaVuSans-30" x="370.068359"/>
    </g>
   </g>
  </g>
  <g id="axes_6">
   <g id="patch_17">
    <path d="M 808.240504 373.284 
L 1100.609573 373.284 
L 1100.609573 253.698 
L 808.240504 253.698 
z
" style="fill: #eaeaf2"/>
   </g>
   <g id="matplotlib.axis_11">
    <g id="xtick_21">
     <g id="line2d_61">
      <path d="M 821.530007 373.284 
L 821.530007 253.698 
" clip-path="url(#pd9eb31f823)" style="fill: none; stroke: #ffffff; stroke-linecap: round"/>
     </g>
     <g id="text_22">
      <!-- 0 -->
      <g style="fill: #262626" transform="translate(814.18132 400.336391) scale(0.231 -0.231)">
       <use xlink:href="#DejaVuSans-30"/>
      </g>
     </g>
    </g>
    <g id="xtick_22">
     <g id="line2d_62">
      <path d="M 912.678863 373.284 
L 912.678863 253.698 
" clip-path="url(#pd9eb31f823)" style="fill: none; stroke: #ffffff; stroke-linecap: round"/>
     </g>
     <g id="text_23">
      <!-- 250 -->
      <g style="fill: #262626" transform="translate(890.6328 400.336391) scale(0.231 -0.231)">
       <use xlink:href="#DejaVuSans-32"/>
       <use xlink:href="#DejaVuSans-35" x="63.623047"/>
       <use xlink:href="#DejaVuSans-30" x="127.246094"/>
      </g>
     </g>
    </g>
    <g id="xtick_23">
     <g id="line2d_63">
      <path d="M 1003.827719 373.284 
L 1003.827719 253.698 
" clip-path="url(#pd9eb31f823)" style="fill: none; stroke: #ffffff; stroke-linecap: round"/>
     </g>
     <g id="text_24">
      <!-- 500 -->
      <g style="fill: #262626" transform="translate(981.781656 400.336391) scale(0.231 -0.231)">
       <use xlink:href="#DejaVuSans-35"/>
       <use xlink:href="#DejaVuSans-30" x="63.623047"/>
       <use xlink:href="#DejaVuSans-30" x="127.246094"/>
      </g>
     </g>
    </g>
    <g id="xtick_24">
     <g id="line2d_64">
      <path d="M 1094.976574 373.284 
L 1094.976574 253.698 
" clip-path="url(#pd9eb31f823)" style="fill: none; stroke: #ffffff; stroke-linecap: round"/>
     </g>
     <g id="text_25">
      <!-- 750 -->
      <g style="fill: #262626" transform="translate(1072.930512 400.336391) scale(0.231 -0.231)">
       <use xlink:href="#DejaVuSans-37"/>
       <use xlink:href="#DejaVuSans-35" x="63.623047"/>
       <use xlink:href="#DejaVuSans-30" x="127.246094"/>
      </g>
     </g>
    </g>
    <g id="text_26">
     <!-- step -->
     <g style="fill: #262626" transform="translate(927.169664 428.288531) scale(0.252 -0.252)">
      <use xlink:href="#DejaVuSans-73"/>
      <use xlink:href="#DejaVuSans-74" x="52.099609"/>
      <use xlink:href="#DejaVuSans-65" x="91.308594"/>
      <use xlink:href="#DejaVuSans-70" x="152.832031"/>
     </g>
    </g>
   </g>
   <g id="matplotlib.axis_12">
    <g id="ytick_11">
     <g id="line2d_65">
      <path d="M 808.240504 355.641608 
L 1100.609573 355.641608 
" clip-path="url(#pd9eb31f823)" style="fill: none; stroke: #ffffff; stroke-linecap: round"/>
     </g>
    </g>
    <g id="ytick_12">
     <g id="line2d_66">
      <path d="M 808.240504 267.438219 
L 1100.609573 267.438219 
" clip-path="url(#pd9eb31f823)" style="fill: none; stroke: #ffffff; stroke-linecap: round"/>
     </g>
    </g>
   </g>
   <g id="PolyCollection_31"/>
   <g id="PolyCollection_32"/>
   <g id="PolyCollection_33"/>
   <g id="PolyCollection_34"/>
   <g id="PolyCollection_35"/>
   <g id="PolyCollection_36"/>
   <g id="line2d_67">
    <path d="M 821.530007 267.438219 
L 821.894603 356.73731 
L 822.259198 359.912077 
L 822.623794 360.761881 
L 822.988389 360.97193 
L 823.71758 360.982462 
L 826.998939 360.632698 
L 828.45732 359.838136 
L 860.541717 341.380187 
L 884.24042 327.956671 
L 904.293168 316.826993 
L 925.439703 305.339486 
L 932.731611 301.543768 
L 948.044619 293.803315 
L 969.191153 283.455571 
L 989.973092 273.533822 
L 998.723383 269.49788 
L 1002.733932 268.173187 
L 1014.765581 264.39922 
L 1019.140726 263.848044 
L 1026.068039 263.017323 
L 1029.349398 263.440719 
L 1035.182925 264.099201 
L 1041.381047 264.572657 
L 1049.037551 264.929617 
L 1060.340009 265.217229 
L 1087.32007 265.653067 
L 1087.32007 265.653067 
" clip-path="url(#pd9eb31f823)" style="fill: none; stroke: #4c72b0; stroke-opacity: 0.9; stroke-width: 3; stroke-linecap: round"/>
   </g>
   <g id="line2d_68">
    <path d="M 821.530007 267.438219 
L 821.894603 316.142446 
L 822.259198 318.223182 
L 822.623794 318.94406 
L 822.988389 319.198048 
L 823.71758 319.299766 
L 826.998939 319.1494 
L 828.821916 318.622179 
L 873.302557 304.786989 
L 903.928573 295.459967 
L 932.367016 287.034219 
L 952.055169 281.416979 
L 976.118466 275.07779 
L 1000.181764 268.933024 
L 1006.379886 267.767786 
L 1018.04694 265.77616 
L 1026.79723 264.971012 
L 1052.31891 265.897577 
L 1058.517032 266.115113 
L 1062.527582 266.242442 
L 1087.32007 266.385898 
L 1087.32007 266.385898 
" clip-path="url(#pd9eb31f823)" style="fill: none; stroke: #dd8452; stroke-opacity: 0.9; stroke-width: 3; stroke-linecap: round"/>
   </g>
   <g id="line2d_69">
    <path d="M 821.530007 267.438219 
L 821.894603 361.017215 
L 822.259198 366.127281 
L 822.623794 367.425779 
L 822.988389 367.772743 
L 823.71758 367.841747 
L 826.998939 367.466383 
L 828.45732 366.606976 
L 849.603855 353.504127 
L 856.531168 349.619809 
L 862.72929 346.529153 
L 867.833626 344.479669 
L 872.937962 342.427269 
L 893.719901 333.460558 
L 899.553428 330.507499 
L 912.314267 323.663156 
L 915.595626 321.944456 
L 930.179443 314.4701 
L 942.575688 307.830392 
L 957.888695 299.337724 
L 972.837108 290.736916 
L 999.087978 275.539173 
L 1007.109077 271.534464 
L 1010.390436 270.053415 
L 1012.942604 269.13 
L 1026.79723 265.01819 
L 1041.016452 263.228907 
L 1043.933215 263.295244 
L 1064.715154 264.834226 
L 1073.100849 265.226993 
L 1083.674116 265.526084 
L 1087.32007 265.58933 
L 1087.32007 265.58933 
" clip-path="url(#pd9eb31f823)" style="fill: none; stroke: #55a868; stroke-opacity: 0.9; stroke-width: 3; stroke-linecap: round"/>
   </g>
   <g id="line2d_70">
    <path d="M 821.530007 267.438219 
L 821.894603 340.983554 
L 822.259198 345.086965 
L 822.623794 346.111332 
L 822.988389 346.378949 
L 823.71758 346.430573 
L 826.998939 346.139991 
L 828.821916 345.290222 
L 848.145473 335.928063 
L 851.791427 334.402501 
L 865.646053 328.891469 
L 877.677702 325.03124 
L 883.875825 322.856811 
L 890.803138 320.215744 
L 898.459641 317.095987 
L 906.845336 313.425189 
L 911.949672 311.243455 
L 953.878146 293.875828 
L 967.003581 287.9918 
L 981.222802 281.356626 
L 1002.369337 271.456626 
L 1008.202864 269.127103 
L 1011.848818 267.918506 
L 1026.79723 263.952869 
L 1029.713994 263.730521 
L 1032.995352 263.72295 
L 1036.641307 263.890793 
L 1046.120788 264.41863 
L 1077.840589 265.788315 
L 1087.32007 265.9291 
L 1087.32007 265.9291 
" clip-path="url(#pd9eb31f823)" style="fill: none; stroke: #c44e52; stroke-opacity: 0.9; stroke-width: 3; stroke-linecap: round"/>
   </g>
   <g id="line2d_71">
    <path d="M 821.530007 267.438219 
L 821.894603 353.171165 
L 822.259198 356.964075 
L 822.623794 357.605362 
L 823.352984 357.708673 
L 826.998939 357.343399 
L 829.551107 355.94614 
L 857.624954 340.445433 
L 890.073947 322.758764 
L 915.960222 308.886618 
L 937.835947 297.412146 
L 958.253291 286.978755 
L 969.920344 281.213961 
L 989.608497 271.799223 
L 997.629596 268.12927 
L 1003.098528 266.095907 
L 1007.838268 264.673915 
L 1013.671795 263.119753 
L 1023.880467 260.807221 
L 1026.068039 260.480893 
L 1032.995352 260.852701 
L 1044.29781 262.581652 
L 1051.225123 263.256213 
L 1061.798391 264.152304 
L 1069.81949 264.535588 
L 1087.32007 265.153078 
L 1087.32007 265.153078 
" clip-path="url(#pd9eb31f823)" style="fill: none; stroke: #8172b3; stroke-opacity: 0.9; stroke-width: 3; stroke-linecap: round"/>
   </g>
   <g id="line2d_72">
    <path d="M 821.530007 267.438219 
L 821.894603 336.231445 
L 822.259198 338.821827 
L 822.623794 339.310939 
L 823.352984 339.38985 
L 826.998939 339.110058 
L 829.915702 337.843958 
L 857.98955 325.603929 
L 890.803138 311.526713 
L 918.876985 299.719031 
L 943.669474 289.555943 
L 964.816008 281.111375 
L 985.597947 273.15692 
L 998.723383 268.315271 
L 1001.275551 267.568088 
L 1008.932054 265.703696 
L 1017.682345 263.816174 
L 1025.703444 262.388739 
L 1028.255612 262.490935 
L 1033.359948 262.839136 
L 1047.943765 264.184885 
L 1055.600269 264.610262 
L 1064.350559 264.931522 
L 1081.486544 265.2756 
L 1087.32007 265.360009 
L 1087.32007 265.360009 
" clip-path="url(#pd9eb31f823)" style="fill: none; stroke: #937860; stroke-opacity: 0.9; stroke-width: 3; stroke-linecap: round"/>
   </g>
   <g id="patch_18">
    <path d="M 808.240504 373.284 
L 808.240504 253.698 
" style="fill: none; stroke: #ffffff; stroke-width: 1.25; stroke-linejoin: miter; stroke-linecap: square"/>
   </g>
   <g id="patch_19">
    <path d="M 808.240504 373.284 
L 1100.609573 373.284 
" style="fill: none; stroke: #ffffff; stroke-width: 1.25; stroke-linejoin: miter; stroke-linecap: square"/>
   </g>
   <g id="text_27">
    <!-- 0.95~365 -->
    <g style="fill: #262626" transform="translate(891.761695 247.698) scale(0.252 -0.252)">
     <use xlink:href="#DejaVuSans-30"/>
     <use xlink:href="#DejaVuSans-2e" x="63.623047"/>
     <use xlink:href="#DejaVuSans-39" x="95.410156"/>
     <use xlink:href="#DejaVuSans-35" x="159.033203"/>
     <use xlink:href="#DejaVuSans-7e" x="222.65625"/>
     <use xlink:href="#DejaVuSans-33" x="306.445312"/>
     <use xlink:href="#DejaVuSans-36" x="370.068359"/>
     <use xlink:href="#DejaVuSans-35" x="433.691406"/>
    </g>
   </g>
  </g>
  <g id="text_28">
   <!-- Production change from pre-shock level -->
   <g style="fill: #262626" transform="translate(280.766836 30.177675) scale(0.3024 -0.3024)">
    <defs>
     <path id="DejaVuSans-50" d="M 1259 4147 
L 1259 2394 
L 2053 2394 
Q 2494 2394 2734 2622 
Q 2975 2850 2975 3272 
Q 2975 3691 2734 3919 
Q 2494 4147 2053 4147 
L 1259 4147 
z
M 628 4666 
L 2053 4666 
Q 2838 4666 3239 4311 
Q 3641 3956 3641 3272 
Q 3641 2581 3239 2228 
Q 2838 1875 2053 1875 
L 1259 1875 
L 1259 0 
L 628 0 
L 628 4666 
z
" transform="scale(0.015625)"/>
     <path id="DejaVuSans-72" d="M 2631 2963 
Q 2534 3019 2420 3045 
Q 2306 3072 2169 3072 
Q 1681 3072 1420 2755 
Q 1159 2438 1159 1844 
L 1159 0 
L 581 0 
L 581 3500 
L 1159 3500 
L 1159 2956 
Q 1341 3275 1631 3429 
Q 1922 3584 2338 3584 
Q 2397 3584 2469 3576 
Q 2541 3569 2628 3553 
L 2631 2963 
z
" transform="scale(0.015625)"/>
     <path id="DejaVuSans-6f" d="M 1959 3097 
Q 1497 3097 1228 2736 
Q 959 2375 959 1747 
Q 959 1119 1226 758 
Q 1494 397 1959 397 
Q 2419 397 2687 759 
Q 2956 1122 2956 1747 
Q 2956 2369 2687 2733 
Q 2419 3097 1959 3097 
z
M 1959 3584 
Q 2709 3584 3137 3096 
Q 3566 2609 3566 1747 
Q 3566 888 3137 398 
Q 2709 -91 1959 -91 
Q 1206 -91 779 398 
Q 353 888 353 1747 
Q 353 2609 779 3096 
Q 1206 3584 1959 3584 
z
" transform="scale(0.015625)"/>
     <path id="DejaVuSans-64" d="M 2906 2969 
L 2906 4863 
L 3481 4863 
L 3481 0 
L 2906 0 
L 2906 525 
Q 2725 213 2448 61 
Q 2172 -91 1784 -91 
Q 1150 -91 751 415 
Q 353 922 353 1747 
Q 353 2572 751 3078 
Q 1150 3584 1784 3584 
Q 2172 3584 2448 3432 
Q 2725 3281 2906 2969 
z
M 947 1747 
Q 947 1113 1208 752 
Q 1469 391 1925 391 
Q 2381 391 2643 752 
Q 2906 1113 2906 1747 
Q 2906 2381 2643 2742 
Q 2381 3103 1925 3103 
Q 1469 3103 1208 2742 
Q 947 2381 947 1747 
z
" transform="scale(0.015625)"/>
     <path id="DejaVuSans-75" d="M 544 1381 
L 544 3500 
L 1119 3500 
L 1119 1403 
Q 1119 906 1312 657 
Q 1506 409 1894 409 
Q 2359 409 2629 706 
Q 2900 1003 2900 1516 
L 2900 3500 
L 3475 3500 
L 3475 0 
L 2900 0 
L 2900 538 
Q 2691 219 2414 64 
Q 2138 -91 1772 -91 
Q 1169 -91 856 284 
Q 544 659 544 1381 
z
M 1991 3584 
L 1991 3584 
z
" transform="scale(0.015625)"/>
     <path id="DejaVuSans-69" d="M 603 3500 
L 1178 3500 
L 1178 0 
L 603 0 
L 603 3500 
z
M 603 4863 
L 1178 4863 
L 1178 4134 
L 603 4134 
L 603 4863 
z
" transform="scale(0.015625)"/>
     <path id="DejaVuSans-66" d="M 2375 4863 
L 2375 4384 
L 1825 4384 
Q 1516 4384 1395 4259 
Q 1275 4134 1275 3809 
L 1275 3500 
L 2222 3500 
L 2222 3053 
L 1275 3053 
L 1275 0 
L 697 0 
L 697 3053 
L 147 3053 
L 147 3500 
L 697 3500 
L 697 3744 
Q 697 4328 969 4595 
Q 1241 4863 1831 4863 
L 2375 4863 
z
" transform="scale(0.015625)"/>
     <path id="DejaVuSans-6d" d="M 3328 2828 
Q 3544 3216 3844 3400 
Q 4144 3584 4550 3584 
Q 5097 3584 5394 3201 
Q 5691 2819 5691 2113 
L 5691 0 
L 5113 0 
L 5113 2094 
Q 5113 2597 4934 2840 
Q 4756 3084 4391 3084 
Q 3944 3084 3684 2787 
Q 3425 2491 3425 1978 
L 3425 0 
L 2847 0 
L 2847 2094 
Q 2847 2600 2669 2842 
Q 2491 3084 2119 3084 
Q 1678 3084 1418 2786 
Q 1159 2488 1159 1978 
L 1159 0 
L 581 0 
L 581 3500 
L 1159 3500 
L 1159 2956 
Q 1356 3278 1631 3431 
Q 1906 3584 2284 3584 
Q 2666 3584 2933 3390 
Q 3200 3197 3328 2828 
z
" transform="scale(0.015625)"/>
     <path id="DejaVuSans-2d" d="M 313 2009 
L 1997 2009 
L 1997 1497 
L 313 1497 
L 313 2009 
z
" transform="scale(0.015625)"/>
     <path id="DejaVuSans-6b" d="M 581 4863 
L 1159 4863 
L 1159 1991 
L 2875 3500 
L 3609 3500 
L 1753 1863 
L 3688 0 
L 2938 0 
L 1159 1709 
L 1159 0 
L 581 0 
L 581 4863 
z
" transform="scale(0.015625)"/>
     <path id="DejaVuSans-6c" d="M 603 4863 
L 1178 4863 
L 1178 0 
L 603 0 
L 603 4863 
z
" transform="scale(0.015625)"/>
     <path id="DejaVuSans-76" d="M 191 3500 
L 800 3500 
L 1894 563 
L 2988 3500 
L 3597 3500 
L 2284 0 
L 1503 0 
L 191 3500 
z
" transform="scale(0.015625)"/>
    </defs>
    <use xlink:href="#DejaVuSans-50"/>
    <use xlink:href="#DejaVuSans-72" x="58.552734"/>
    <use xlink:href="#DejaVuSans-6f" x="97.416016"/>
    <use xlink:href="#DejaVuSans-64" x="158.597656"/>
    <use xlink:href="#DejaVuSans-75" x="222.074219"/>
    <use xlink:href="#DejaVuSans-63" x="285.453125"/>
    <use xlink:href="#DejaVuSans-74" x="340.433594"/>
    <use xlink:href="#DejaVuSans-69" x="379.642578"/>
    <use xlink:href="#DejaVuSans-6f" x="407.425781"/>
    <use xlink:href="#DejaVuSans-6e" x="468.607422"/>
    <use xlink:href="#DejaVuSans-20" x="531.986328"/>
    <use xlink:href="#DejaVuSans-63" x="563.773438"/>
    <use xlink:href="#DejaVuSans-68" x="618.753906"/>
    <use xlink:href="#DejaVuSans-61" x="682.132812"/>
    <use xlink:href="#DejaVuSans-6e" x="743.412109"/>
    <use xlink:href="#DejaVuSans-67" x="806.791016"/>
    <use xlink:href="#DejaVuSans-65" x="870.267578"/>
    <use xlink:href="#DejaVuSans-20" x="931.791016"/>
    <use xlink:href="#DejaVuSans-66" x="963.578125"/>
    <use xlink:href="#DejaVuSans-72" x="998.783203"/>
    <use xlink:href="#DejaVuSans-6f" x="1037.646484"/>
    <use xlink:href="#DejaVuSans-6d" x="1098.828125"/>
    <use xlink:href="#DejaVuSans-20" x="1196.240234"/>
    <use xlink:href="#DejaVuSans-70" x="1228.027344"/>
    <use xlink:href="#DejaVuSans-72" x="1291.503906"/>
    <use xlink:href="#DejaVuSans-65" x="1330.367188"/>
    <use xlink:href="#DejaVuSans-2d" x="1391.890625"/>
    <use xlink:href="#DejaVuSans-73" x="1427.974609"/>
    <use xlink:href="#DejaVuSans-68" x="1480.074219"/>
    <use xlink:href="#DejaVuSans-6f" x="1543.453125"/>
    <use xlink:href="#DejaVuSans-63" x="1604.634766"/>
    <use xlink:href="#DejaVuSans-6b" x="1659.615234"/>
    <use xlink:href="#DejaVuSans-20" x="1717.525391"/>
    <use xlink:href="#DejaVuSans-6c" x="1749.3125"/>
    <use xlink:href="#DejaVuSans-65" x="1777.095703"/>
    <use xlink:href="#DejaVuSans-76" x="1838.619141"/>
    <use xlink:href="#DejaVuSans-65" x="1897.798828"/>
    <use xlink:href="#DejaVuSans-6c" x="1959.322266"/>
   </g>
  </g>
  <g id="legend_1">
   <g id="patch_20">
    <path d="M 11.82 584.31675 
L 1292.617547 584.31675 
Q 1297.237547 584.31675 1297.237547 579.69675 
L 1297.237547 476.97 
Q 1297.237547 472.35 1292.617547 472.35 
L 11.82 472.35 
Q 7.2 472.35 7.2 476.97 
L 7.2 579.69675 
Q 7.2 584.31675 11.82 584.31675 
z
" style="fill: #eaeaf2; opacity: 0.8; stroke: #cccccc; stroke-linejoin: miter"/>
   </g>
   <g id="text_29">
    <!-- Experiences -->
    <g style="fill: #262626" transform="translate(575.384367 500.738062) scale(0.252 -0.252)">
     <defs>
      <path id="DejaVuSans-45" d="M 628 4666 
L 3578 4666 
L 3578 4134 
L 1259 4134 
L 1259 2753 
L 3481 2753 
L 3481 2222 
L 1259 2222 
L 1259 531 
L 3634 531 
L 3634 0 
L 628 0 
L 628 4666 
z
" transform="scale(0.015625)"/>
      <path id="DejaVuSans-78" d="M 3513 3500 
L 2247 1797 
L 3578 0 
L 2900 0 
L 1881 1375 
L 863 0 
L 184 0 
L 1544 1831 
L 300 3500 
L 978 3500 
L 1906 2253 
L 2834 3500 
L 3513 3500 
z
" transform="scale(0.015625)"/>
     </defs>
     <use xlink:href="#DejaVuSans-45"/>
     <use xlink:href="#DejaVuSans-78" x="63.183594"/>
     <use xlink:href="#DejaVuSans-70" x="122.363281"/>
     <use xlink:href="#DejaVuSans-65" x="185.839844"/>
     <use xlink:href="#DejaVuSans-72" x="247.363281"/>
     <use xlink:href="#DejaVuSans-69" x="288.476562"/>
     <use xlink:href="#DejaVuSans-65" x="316.259766"/>
     <use xlink:href="#DejaVuSans-6e" x="377.783203"/>
     <use xlink:href="#DejaVuSans-63" x="441.162109"/>
     <use xlink:href="#DejaVuSans-65" x="496.142578"/>
     <use xlink:href="#DejaVuSans-73" x="557.666016"/>
    </g>
   </g>
   <g id="line2d_73">
    <path d="M 16.44 526.996266 
L 39.54 526.996266 
L 62.64 526.996266 
" style="fill: none; stroke: #4c72b0; stroke-opacity: 0.9; stroke-width: 3; stroke-linecap: round"/>
   </g>
   <g id="text_30">
    <!-- eora26_full_2000 -->
    <g style="fill: #262626" transform="translate(81.12 535.081266) scale(0.231 -0.231)">
     <defs>
      <path id="DejaVuSans-5f" d="M 3263 -1063 
L 3263 -1509 
L -63 -1509 
L -63 -1063 
L 3263 -1063 
z
" transform="scale(0.015625)"/>
     </defs>
     <use xlink:href="#DejaVuSans-65"/>
     <use xlink:href="#DejaVuSans-6f" x="61.523438"/>
     <use xlink:href="#DejaVuSans-72" x="122.705078"/>
     <use xlink:href="#DejaVuSans-61" x="163.818359"/>
     <use xlink:href="#DejaVuSans-32" x="225.097656"/>
     <use xlink:href="#DejaVuSans-36" x="288.720703"/>
     <use xlink:href="#DejaVuSans-5f" x="352.34375"/>
     <use xlink:href="#DejaVuSans-66" x="402.34375"/>
     <use xlink:href="#DejaVuSans-75" x="437.548828"/>
     <use xlink:href="#DejaVuSans-6c" x="500.927734"/>
     <use xlink:href="#DejaVuSans-6c" x="528.710938"/>
     <use xlink:href="#DejaVuSans-5f" x="556.494141"/>
     <use xlink:href="#DejaVuSans-32" x="606.494141"/>
     <use xlink:href="#DejaVuSans-30" x="670.117188"/>
     <use xlink:href="#DejaVuSans-30" x="733.740234"/>
     <use xlink:href="#DejaVuSans-30" x="797.363281"/>
    </g>
   </g>
   <g id="line2d_74">
    <path d="M 16.44 561.545203 
L 39.54 561.545203 
L 62.64 561.545203 
" style="fill: none; stroke: #dd8452; stroke-opacity: 0.9; stroke-width: 3; stroke-linecap: round"/>
   </g>
   <g id="text_31">
    <!-- eora26_full_2010 -->
    <g style="fill: #262626" transform="translate(81.12 569.630203) scale(0.231 -0.231)">
     <defs>
      <path id="DejaVuSans-31" d="M 794 531 
L 1825 531 
L 1825 4091 
L 703 3866 
L 703 4441 
L 1819 4666 
L 2450 4666 
L 2450 531 
L 3481 531 
L 3481 0 
L 794 0 
L 794 531 
z
" transform="scale(0.015625)"/>
     </defs>
     <use xlink:href="#DejaVuSans-65"/>
     <use xlink:href="#DejaVuSans-6f" x="61.523438"/>
     <use xlink:href="#DejaVuSans-72" x="122.705078"/>
     <use xlink:href="#DejaVuSans-61" x="163.818359"/>
     <use xlink:href="#DejaVuSans-32" x="225.097656"/>
     <use xlink:href="#DejaVuSans-36" x="288.720703"/>
     <use xlink:href="#DejaVuSans-5f" x="352.34375"/>
     <use xlink:href="#DejaVuSans-66" x="402.34375"/>
     <use xlink:href="#DejaVuSans-75" x="437.548828"/>
     <use xlink:href="#DejaVuSans-6c" x="500.927734"/>
     <use xlink:href="#DejaVuSans-6c" x="528.710938"/>
     <use xlink:href="#DejaVuSans-5f" x="556.494141"/>
     <use xlink:href="#DejaVuSans-32" x="606.494141"/>
     <use xlink:href="#DejaVuSans-30" x="670.117188"/>
     <use xlink:href="#DejaVuSans-31" x="733.740234"/>
     <use xlink:href="#DejaVuSans-30" x="797.363281"/>
    </g>
   </g>
   <g id="line2d_75">
    <path d="M 326.211 526.996266 
L 349.311 526.996266 
L 372.411 526.996266 
" style="fill: none; stroke: #55a868; stroke-opacity: 0.9; stroke-width: 3; stroke-linecap: round"/>
   </g>
   <g id="text_32">
    <!-- euregio_full_2000 -->
    <g style="fill: #262626" transform="translate(390.891 535.081266) scale(0.231 -0.231)">
     <use xlink:href="#DejaVuSans-65"/>
     <use xlink:href="#DejaVuSans-75" x="61.523438"/>
     <use xlink:href="#DejaVuSans-72" x="124.902344"/>
     <use xlink:href="#DejaVuSans-65" x="163.765625"/>
     <use xlink:href="#DejaVuSans-67" x="225.289062"/>
     <use xlink:href="#DejaVuSans-69" x="288.765625"/>
     <use xlink:href="#DejaVuSans-6f" x="316.548828"/>
     <use xlink:href="#DejaVuSans-5f" x="377.730469"/>
     <use xlink:href="#DejaVuSans-66" x="427.730469"/>
     <use xlink:href="#DejaVuSans-75" x="462.935547"/>
     <use xlink:href="#DejaVuSans-6c" x="526.314453"/>
     <use xlink:href="#DejaVuSans-6c" x="554.097656"/>
     <use xlink:href="#DejaVuSans-5f" x="581.880859"/>
     <use xlink:href="#DejaVuSans-32" x="631.880859"/>
     <use xlink:href="#DejaVuSans-30" x="695.503906"/>
     <use xlink:href="#DejaVuSans-30" x="759.126953"/>
     <use xlink:href="#DejaVuSans-30" x="822.75"/>
    </g>
   </g>
   <g id="line2d_76">
    <path d="M 326.211 561.545203 
L 349.311 561.545203 
L 372.411 561.545203 
" style="fill: none; stroke: #c44e52; stroke-opacity: 0.9; stroke-width: 3; stroke-linecap: round"/>
   </g>
   <g id="text_33">
    <!-- euregio_full_2010 -->
    <g style="fill: #262626" transform="translate(390.891 569.630203) scale(0.231 -0.231)">
     <use xlink:href="#DejaVuSans-65"/>
     <use xlink:href="#DejaVuSans-75" x="61.523438"/>
     <use xlink:href="#DejaVuSans-72" x="124.902344"/>
     <use xlink:href="#DejaVuSans-65" x="163.765625"/>
     <use xlink:href="#DejaVuSans-67" x="225.289062"/>
     <use xlink:href="#DejaVuSans-69" x="288.765625"/>
     <use xlink:href="#DejaVuSans-6f" x="316.548828"/>
     <use xlink:href="#DejaVuSans-5f" x="377.730469"/>
     <use xlink:href="#DejaVuSans-66" x="427.730469"/>
     <use xlink:href="#DejaVuSans-75" x="462.935547"/>
     <use xlink:href="#DejaVuSans-6c" x="526.314453"/>
     <use xlink:href="#DejaVuSans-6c" x="554.097656"/>
     <use xlink:href="#DejaVuSans-5f" x="581.880859"/>
     <use xlink:href="#DejaVuSans-32" x="631.880859"/>
     <use xlink:href="#DejaVuSans-30" x="695.503906"/>
     <use xlink:href="#DejaVuSans-31" x="759.126953"/>
     <use xlink:href="#DejaVuSans-30" x="822.75"/>
    </g>
   </g>
   <g id="line2d_77">
    <path d="M 641.847234 526.996266 
L 664.947234 526.996266 
L 688.047234 526.996266 
" style="fill: none; stroke: #8172b3; stroke-opacity: 0.9; stroke-width: 3; stroke-linecap: round"/>
   </g>
   <g id="text_34">
    <!-- exiobase3_full_2000 -->
    <g style="fill: #262626" transform="translate(706.527234 535.081266) scale(0.231 -0.231)">
     <defs>
      <path id="DejaVuSans-62" d="M 3116 1747 
Q 3116 2381 2855 2742 
Q 2594 3103 2138 3103 
Q 1681 3103 1420 2742 
Q 1159 2381 1159 1747 
Q 1159 1113 1420 752 
Q 1681 391 2138 391 
Q 2594 391 2855 752 
Q 3116 1113 3116 1747 
z
M 1159 2969 
Q 1341 3281 1617 3432 
Q 1894 3584 2278 3584 
Q 2916 3584 3314 3078 
Q 3713 2572 3713 1747 
Q 3713 922 3314 415 
Q 2916 -91 2278 -91 
Q 1894 -91 1617 61 
Q 1341 213 1159 525 
L 1159 0 
L 581 0 
L 581 4863 
L 1159 4863 
L 1159 2969 
z
" transform="scale(0.015625)"/>
     </defs>
     <use xlink:href="#DejaVuSans-65"/>
     <use xlink:href="#DejaVuSans-78" x="59.773438"/>
     <use xlink:href="#DejaVuSans-69" x="118.953125"/>
     <use xlink:href="#DejaVuSans-6f" x="146.736328"/>
     <use xlink:href="#DejaVuSans-62" x="207.917969"/>
     <use xlink:href="#DejaVuSans-61" x="271.394531"/>
     <use xlink:href="#DejaVuSans-73" x="332.673828"/>
     <use xlink:href="#DejaVuSans-65" x="384.773438"/>
     <use xlink:href="#DejaVuSans-33" x="446.296875"/>
     <use xlink:href="#DejaVuSans-5f" x="509.919922"/>
     <use xlink:href="#DejaVuSans-66" x="559.919922"/>
     <use xlink:href="#DejaVuSans-75" x="595.125"/>
     <use xlink:href="#DejaVuSans-6c" x="658.503906"/>
     <use xlink:href="#DejaVuSans-6c" x="686.287109"/>
     <use xlink:href="#DejaVuSans-5f" x="714.070312"/>
     <use xlink:href="#DejaVuSans-32" x="764.070312"/>
     <use xlink:href="#DejaVuSans-30" x="827.693359"/>
     <use xlink:href="#DejaVuSans-30" x="891.316406"/>
     <use xlink:href="#DejaVuSans-30" x="954.939453"/>
    </g>
   </g>
   <g id="line2d_78">
    <path d="M 988.022391 526.996266 
L 1011.122391 526.996266 
L 1034.222391 526.996266 
" style="fill: none; stroke: #937860; stroke-opacity: 0.9; stroke-width: 3; stroke-linecap: round"/>
   </g>
   <g id="text_35">
    <!-- exiobase3_full_2010 -->
    <g style="fill: #262626" transform="translate(1052.702391 535.081266) scale(0.231 -0.231)">
     <use xlink:href="#DejaVuSans-65"/>
     <use xlink:href="#DejaVuSans-78" x="59.773438"/>
     <use xlink:href="#DejaVuSans-69" x="118.953125"/>
     <use xlink:href="#DejaVuSans-6f" x="146.736328"/>
     <use xlink:href="#DejaVuSans-62" x="207.917969"/>
     <use xlink:href="#DejaVuSans-61" x="271.394531"/>
     <use xlink:href="#DejaVuSans-73" x="332.673828"/>
     <use xlink:href="#DejaVuSans-65" x="384.773438"/>
     <use xlink:href="#DejaVuSans-33" x="446.296875"/>
     <use xlink:href="#DejaVuSans-5f" x="509.919922"/>
     <use xlink:href="#DejaVuSans-66" x="559.919922"/>
     <use xlink:href="#DejaVuSans-75" x="595.125"/>
     <use xlink:href="#DejaVuSans-6c" x="658.503906"/>
     <use xlink:href="#DejaVuSans-6c" x="686.287109"/>
     <use xlink:href="#DejaVuSans-5f" x="714.070312"/>
     <use xlink:href="#DejaVuSans-32" x="764.070312"/>
     <use xlink:href="#DejaVuSans-30" x="827.693359"/>
     <use xlink:href="#DejaVuSans-31" x="891.316406"/>
     <use xlink:href="#DejaVuSans-30" x="954.939453"/>
    </g>
   </g>
  </g>
 </g>
 <defs>
  <clipPath id="pb6846362e0">
   <rect x="170.340091" y="81.456" width="292.369069" height="119.586"/>
  </clipPath>
  <clipPath id="pee587d82ac">
   <rect x="489.290298" y="81.456" width="292.369069" height="119.586"/>
  </clipPath>
  <clipPath id="pe5ed85b2bf">
   <rect x="808.240504" y="81.456" width="292.369069" height="119.586"/>
  </clipPath>
  <clipPath id="peaf67345ed">
   <rect x="170.340091" y="253.698" width="292.369069" height="119.586"/>
  </clipPath>
  <clipPath id="p8ee21cbfd4">
   <rect x="489.290298" y="253.698" width="292.369069" height="119.586"/>
  </clipPath>
  <clipPath id="pd9eb31f823">
   <rect x="808.240504" y="253.698" width="292.369069" height="119.586"/>
  </clipPath>
 </defs>
</svg>
