<?xml version="1.0" encoding="utf-8" standalone="no"?>
<!DOCTYPE svg PUBLIC "-//W3C//DTD SVG 1.1//EN"
  "http://www.w3.org/Graphics/SVG/1.1/DTD/svg11.dtd">
<svg xmlns:xlink="http://www.w3.org/1999/xlink" width="1304.437547pt" height="591.51675pt" viewBox="0 0 1304.437547 591.51675" xmlns="http://www.w3.org/2000/svg" version="1.1">
 <metadata>
  <rdf:RDF xmlns:dc="http://purl.org/dc/elements/1.1/" xmlns:cc="http://creativecommons.org/ns#" xmlns:rdf="http://www.w3.org/1999/02/22-rdf-syntax-ns#">
   <cc:Work>
    <dc:type rdf:resource="http://purl.org/dc/dcmitype/StillImage"/>
    <dc:date>2023-04-27T10:21:36.750959</dc:date>
    <dc:format>image/svg+xml</dc:format>
    <dc:creator>
     <cc:Agent>
      <dc:title>Matplotlib v3.7.1, https://matplotlib.org/</dc:title>
     </cc:Agent>
    </dc:creator>
   </cc:Work>
  </rdf:RDF>
 </metadata>
 <defs>
  <style type="text/css">*{stroke-linejoin: round; stroke-linecap: butt}</style>
 </defs>
 <g id="figure_1">
  <g id="patch_1">
   <path d="M 0 591.51675 
L 1304.437547 591.51675 
L 1304.437547 -0 
L 0 -0 
z
" style="fill: #ffffff"/>
  </g>
  <g id="axes_1">
   <g id="patch_2">
    <path d="M 170.340091 201.042 
L 462.70916 201.042 
L 462.70916 81.456 
L 170.340091 81.456 
z
" style="fill: #eaeaf2"/>
   </g>
   <g id="matplotlib.axis_1">
    <g id="xtick_1">
     <g id="line2d_1">
      <path d="M 183.629594 201.042 
L 183.629594 81.456 
" clip-path="url(#pdce153780c)" style="fill: none; stroke: #ffffff; stroke-linecap: round"/>
     </g>
    </g>
    <g id="xtick_2">
     <g id="line2d_2">
      <path d="M 274.77845 201.042 
L 274.77845 81.456 
" clip-path="url(#pdce153780c)" style="fill: none; stroke: #ffffff; stroke-linecap: round"/>
     </g>
    </g>
    <g id="xtick_3">
     <g id="line2d_3">
      <path d="M 365.927305 201.042 
L 365.927305 81.456 
" clip-path="url(#pdce153780c)" style="fill: none; stroke: #ffffff; stroke-linecap: round"/>
     </g>
    </g>
    <g id="xtick_4">
     <g id="line2d_4">
      <path d="M 457.076161 201.042 
L 457.076161 81.456 
" clip-path="url(#pdce153780c)" style="fill: none; stroke: #ffffff; stroke-linecap: round"/>
     </g>
    </g>
   </g>
   <g id="matplotlib.axis_2">
    <g id="ytick_1">
     <g id="line2d_5">
      <path d="M 170.340091 182.962734 
L 462.70916 182.962734 
" clip-path="url(#pdce153780c)" style="fill: none; stroke: #ffffff; stroke-linecap: round"/>
     </g>
     <g id="text_1">
      <!-- −0.5 -->
      <g style="fill: #262626" transform="translate(104.746794 191.738929) scale(0.231 -0.231)">
       <defs>
        <path id="DejaVuSans-2212" d="M 678 2272 
L 4684 2272 
L 4684 1741 
L 678 1741 
L 678 2272 
z
" transform="scale(0.015625)"/>
        <path id="DejaVuSans-30" d="M 2034 4250 
Q 1547 4250 1301 3770 
Q 1056 3291 1056 2328 
Q 1056 1369 1301 889 
Q 1547 409 2034 409 
Q 2525 409 2770 889 
Q 3016 1369 3016 2328 
Q 3016 3291 2770 3770 
Q 2525 4250 2034 4250 
z
M 2034 4750 
Q 2819 4750 3233 4129 
Q 3647 3509 3647 2328 
Q 3647 1150 3233 529 
Q 2819 -91 2034 -91 
Q 1250 -91 836 529 
Q 422 1150 422 2328 
Q 422 3509 836 4129 
Q 1250 4750 2034 4750 
z
" transform="scale(0.015625)"/>
        <path id="DejaVuSans-2e" d="M 684 794 
L 1344 794 
L 1344 0 
L 684 0 
L 684 794 
z
" transform="scale(0.015625)"/>
        <path id="DejaVuSans-35" d="M 691 4666 
L 3169 4666 
L 3169 4134 
L 1269 4134 
L 1269 2991 
Q 1406 3038 1543 3061 
Q 1681 3084 1819 3084 
Q 2600 3084 3056 2656 
Q 3513 2228 3513 1497 
Q 3513 744 3044 326 
Q 2575 -91 1722 -91 
Q 1428 -91 1123 -41 
Q 819 9 494 109 
L 494 744 
Q 775 591 1075 516 
Q 1375 441 1709 441 
Q 2250 441 2565 725 
Q 2881 1009 2881 1497 
Q 2881 1984 2565 2268 
Q 2250 2553 1709 2553 
Q 1456 2553 1204 2497 
Q 953 2441 691 2322 
L 691 4666 
z
" transform="scale(0.015625)"/>
       </defs>
       <use xlink:href="#DejaVuSans-2212"/>
       <use xlink:href="#DejaVuSans-30" x="83.789062"/>
       <use xlink:href="#DejaVuSans-2e" x="147.412109"/>
       <use xlink:href="#DejaVuSans-35" x="179.199219"/>
      </g>
     </g>
    </g>
    <g id="ytick_2">
     <g id="line2d_6">
      <path d="M 170.340091 91.602563 
L 462.70916 91.602563 
" clip-path="url(#pdce153780c)" style="fill: none; stroke: #ffffff; stroke-linecap: round"/>
     </g>
     <g id="text_2">
      <!-- 0.0 -->
      <g style="fill: #262626" transform="translate(124.103872 100.378758) scale(0.231 -0.231)">
       <use xlink:href="#DejaVuSans-30"/>
       <use xlink:href="#DejaVuSans-2e" x="63.623047"/>
       <use xlink:href="#DejaVuSans-30" x="95.410156"/>
      </g>
     </g>
    </g>
    <g id="text_3">
     <!-- % change -->
     <g style="fill: #262626" transform="translate(95.505982 203.597344) rotate(-90) scale(0.252 -0.252)">
      <defs>
       <path id="DejaVuSans-25" d="M 4653 2053 
Q 4381 2053 4226 1822 
Q 4072 1591 4072 1178 
Q 4072 772 4226 539 
Q 4381 306 4653 306 
Q 4919 306 5073 539 
Q 5228 772 5228 1178 
Q 5228 1588 5073 1820 
Q 4919 2053 4653 2053 
z
M 4653 2450 
Q 5147 2450 5437 2106 
Q 5728 1763 5728 1178 
Q 5728 594 5436 251 
Q 5144 -91 4653 -91 
Q 4153 -91 3862 251 
Q 3572 594 3572 1178 
Q 3572 1766 3864 2108 
Q 4156 2450 4653 2450 
z
M 1428 4353 
Q 1159 4353 1004 4120 
Q 850 3888 850 3481 
Q 850 3069 1003 2837 
Q 1156 2606 1428 2606 
Q 1700 2606 1854 2837 
Q 2009 3069 2009 3481 
Q 2009 3884 1853 4118 
Q 1697 4353 1428 4353 
z
M 4250 4750 
L 4750 4750 
L 1831 -91 
L 1331 -91 
L 4250 4750 
z
M 1428 4750 
Q 1922 4750 2215 4408 
Q 2509 4066 2509 3481 
Q 2509 2891 2217 2550 
Q 1925 2209 1428 2209 
Q 931 2209 642 2551 
Q 353 2894 353 3481 
Q 353 4063 643 4406 
Q 934 4750 1428 4750 
z
" transform="scale(0.015625)"/>
       <path id="DejaVuSans-20" transform="scale(0.015625)"/>
       <path id="DejaVuSans-63" d="M 3122 3366 
L 3122 2828 
Q 2878 2963 2633 3030 
Q 2388 3097 2138 3097 
Q 1578 3097 1268 2742 
Q 959 2388 959 1747 
Q 959 1106 1268 751 
Q 1578 397 2138 397 
Q 2388 397 2633 464 
Q 2878 531 3122 666 
L 3122 134 
Q 2881 22 2623 -34 
Q 2366 -91 2075 -91 
Q 1284 -91 818 406 
Q 353 903 353 1747 
Q 353 2603 823 3093 
Q 1294 3584 2113 3584 
Q 2378 3584 2631 3529 
Q 2884 3475 3122 3366 
z
" transform="scale(0.015625)"/>
       <path id="DejaVuSans-68" d="M 3513 2113 
L 3513 0 
L 2938 0 
L 2938 2094 
Q 2938 2591 2744 2837 
Q 2550 3084 2163 3084 
Q 1697 3084 1428 2787 
Q 1159 2491 1159 1978 
L 1159 0 
L 581 0 
L 581 4863 
L 1159 4863 
L 1159 2956 
Q 1366 3272 1645 3428 
Q 1925 3584 2291 3584 
Q 2894 3584 3203 3211 
Q 3513 2838 3513 2113 
z
" transform="scale(0.015625)"/>
       <path id="DejaVuSans-61" d="M 2194 1759 
Q 1497 1759 1228 1600 
Q 959 1441 959 1056 
Q 959 750 1161 570 
Q 1363 391 1709 391 
Q 2188 391 2477 730 
Q 2766 1069 2766 1631 
L 2766 1759 
L 2194 1759 
z
M 3341 1997 
L 3341 0 
L 2766 0 
L 2766 531 
Q 2569 213 2275 61 
Q 1981 -91 1556 -91 
Q 1019 -91 701 211 
Q 384 513 384 1019 
Q 384 1609 779 1909 
Q 1175 2209 1959 2209 
L 2766 2209 
L 2766 2266 
Q 2766 2663 2505 2880 
Q 2244 3097 1772 3097 
Q 1472 3097 1187 3025 
Q 903 2953 641 2809 
L 641 3341 
Q 956 3463 1253 3523 
Q 1550 3584 1831 3584 
Q 2591 3584 2966 3190 
Q 3341 2797 3341 1997 
z
" transform="scale(0.015625)"/>
       <path id="DejaVuSans-6e" d="M 3513 2113 
L 3513 0 
L 2938 0 
L 2938 2094 
Q 2938 2591 2744 2837 
Q 2550 3084 2163 3084 
Q 1697 3084 1428 2787 
Q 1159 2491 1159 1978 
L 1159 0 
L 581 0 
L 581 3500 
L 1159 3500 
L 1159 2956 
Q 1366 3272 1645 3428 
Q 1925 3584 2291 3584 
Q 2894 3584 3203 3211 
Q 3513 2838 3513 2113 
z
" transform="scale(0.015625)"/>
       <path id="DejaVuSans-67" d="M 2906 1791 
Q 2906 2416 2648 2759 
Q 2391 3103 1925 3103 
Q 1463 3103 1205 2759 
Q 947 2416 947 1791 
Q 947 1169 1205 825 
Q 1463 481 1925 481 
Q 2391 481 2648 825 
Q 2906 1169 2906 1791 
z
M 3481 434 
Q 3481 -459 3084 -895 
Q 2688 -1331 1869 -1331 
Q 1566 -1331 1297 -1286 
Q 1028 -1241 775 -1147 
L 775 -588 
Q 1028 -725 1275 -790 
Q 1522 -856 1778 -856 
Q 2344 -856 2625 -561 
Q 2906 -266 2906 331 
L 2906 616 
Q 2728 306 2450 153 
Q 2172 0 1784 0 
Q 1141 0 747 490 
Q 353 981 353 1791 
Q 353 2603 747 3093 
Q 1141 3584 1784 3584 
Q 2172 3584 2450 3431 
Q 2728 3278 2906 2969 
L 2906 3500 
L 3481 3500 
L 3481 434 
z
" transform="scale(0.015625)"/>
       <path id="DejaVuSans-65" d="M 3597 1894 
L 3597 1613 
L 953 1613 
Q 991 1019 1311 708 
Q 1631 397 2203 397 
Q 2534 397 2845 478 
Q 3156 559 3463 722 
L 3463 178 
Q 3153 47 2828 -22 
Q 2503 -91 2169 -91 
Q 1331 -91 842 396 
Q 353 884 353 1716 
Q 353 2575 817 3079 
Q 1281 3584 2069 3584 
Q 2775 3584 3186 3129 
Q 3597 2675 3597 1894 
z
M 3022 2063 
Q 3016 2534 2758 2815 
Q 2500 3097 2075 3097 
Q 1594 3097 1305 2825 
Q 1016 2553 972 2059 
L 3022 2063 
z
" transform="scale(0.015625)"/>
      </defs>
      <use xlink:href="#DejaVuSans-25"/>
      <use xlink:href="#DejaVuSans-20" x="95.019531"/>
      <use xlink:href="#DejaVuSans-63" x="126.806641"/>
      <use xlink:href="#DejaVuSans-68" x="181.787109"/>
      <use xlink:href="#DejaVuSans-61" x="245.166016"/>
      <use xlink:href="#DejaVuSans-6e" x="306.445312"/>
      <use xlink:href="#DejaVuSans-67" x="369.824219"/>
      <use xlink:href="#DejaVuSans-65" x="433.300781"/>
     </g>
    </g>
   </g>
   <g id="PolyCollection_1"/>
   <g id="PolyCollection_2"/>
   <g id="PolyCollection_3"/>
   <g id="PolyCollection_4"/>
   <g id="PolyCollection_5"/>
   <g id="PolyCollection_6"/>
   <g id="line2d_7">
    <path d="M 183.629594 91.602563 
L 183.99419 184.097651 
L 184.358785 187.283677 
L 184.723381 188.045186 
L 185.087976 188.139841 
L 185.817167 187.903097 
L 189.098526 186.437633 
L 190.192312 184.04627 
L 193.838266 175.786489 
L 197.48422 168.125474 
L 201.130175 161.014296 
L 204.776129 154.434063 
L 208.422083 148.341479 
L 212.068037 142.680467 
L 215.713991 137.422353 
L 218.99535 133.055804 
L 222.641304 128.674237 
L 226.651854 124.213709 
L 229.933213 120.867251 
L 233.943763 117.109662 
L 237.954312 113.649421 
L 241.964862 110.464247 
L 246.340007 107.279822 
L 250.715152 104.375797 
L 255.090297 101.729362 
L 259.830038 99.127048 
L 264.569778 96.776578 
L 267.486541 95.529336 
L 269.674114 94.820767 
L 274.77845 93.366608 
L 281.341167 91.728828 
L 283.893335 91.20177 
L 294.466603 90.455796 
L 303.946084 89.944266 
L 315.977733 89.707419 
L 343.322389 89.048198 
L 363.739733 88.827278 
L 375.406786 88.961491 
L 440.669367 88.865334 
L 449.419657 88.84943 
L 449.419657 88.84943 
" clip-path="url(#pdce153780c)" style="fill: none; stroke: #4c72b0; stroke-opacity: 0.9; stroke-width: 3; stroke-linecap: round"/>
   </g>
   <g id="line2d_8">
    <path d="M 183.629594 91.602563 
L 183.99419 142.049904 
L 184.358785 144.157801 
L 184.723381 144.849037 
L 185.087976 145.053878 
L 185.817167 145.04065 
L 189.098526 144.354524 
L 189.827716 143.576211 
L 195.661243 136.547177 
L 199.671793 132.167334 
L 203.682342 128.128649 
L 207.692892 124.400522 
L 211.703442 120.969173 
L 216.078587 117.535691 
L 220.453732 114.399107 
L 224.828877 111.537445 
L 228.839427 109.159733 
L 233.579167 106.67793 
L 237.954312 104.646486 
L 243.423244 102.362848 
L 248.892175 100.320337 
L 254.725702 98.381971 
L 260.923824 96.564737 
L 267.486541 94.882484 
L 270.7679 94.228143 
L 278.059809 93.100876 
L 285.351717 92.153999 
L 300.300129 91.334323 
L 312.696374 90.800051 
L 321.082069 90.580718 
L 333.478313 90.40535 
L 338.947244 90.418177 
L 361.187565 90.074499 
L 384.886267 89.87621 
L 423.533382 89.839962 
L 449.419657 89.853853 
L 449.419657 89.853853 
" clip-path="url(#pdce153780c)" style="fill: none; stroke: #dd8452; stroke-opacity: 0.9; stroke-width: 3; stroke-linecap: round"/>
   </g>
   <g id="line2d_9">
    <path d="M 183.629594 91.602563 
L 183.99419 188.530733 
L 184.358785 193.717521 
L 184.723381 194.938554 
L 185.087976 195.169412 
L 185.817167 194.981722 
L 189.098526 193.439525 
L 190.192312 190.866034 
L 193.838266 181.991255 
L 197.48422 173.7526 
L 200.765579 166.85846 
L 204.411533 159.725103 
L 208.057488 153.105272 
L 211.703442 146.953125 
L 215.349396 141.246857 
L 218.99535 135.957188 
L 222.641304 131.073898 
L 226.287259 126.546243 
L 229.933213 122.370708 
L 233.579167 118.513549 
L 236.860526 115.333493 
L 240.50648 112.090628 
L 244.51703 108.854045 
L 248.527579 105.91004 
L 252.538129 103.218095 
L 256.913274 100.539629 
L 261.288419 98.106461 
L 266.02816 95.735027 
L 268.580328 94.658206 
L 272.226282 93.352773 
L 275.872236 92.283839 
L 279.153595 91.522648 
L 282.799549 90.876371 
L 286.080908 90.480341 
L 297.018771 89.872251 
L 307.956633 89.55899 
L 319.988282 89.448353 
L 344.05158 89.386459 
L 360.093779 89.38818 
L 449.419657 89.236733 
L 449.419657 89.236733 
" clip-path="url(#pdce153780c)" style="fill: none; stroke: #55a868; stroke-opacity: 0.9; stroke-width: 3; stroke-linecap: round"/>
   </g>
   <g id="line2d_10">
    <path d="M 183.629594 91.602563 
L 183.99419 167.780071 
L 184.358785 171.9463 
L 184.723381 172.908786 
L 185.087976 173.083811 
L 185.817167 172.931022 
L 189.098526 171.71051 
L 190.192312 169.693929 
L 193.838266 162.707896 
L 197.48422 156.221353 
L 201.130175 150.203007 
L 204.776129 144.611476 
L 208.422083 139.417754 
L 212.068037 134.595438 
L 215.713991 130.126624 
L 219.359946 126.000158 
L 223.0059 122.183667 
L 227.01645 118.32284 
L 230.662404 115.102515 
L 234.672953 111.857815 
L 238.318908 109.173702 
L 242.329457 106.487172 
L 246.340007 104.063856 
L 251.079747 101.480576 
L 255.819488 99.156868 
L 260.923824 96.91228 
L 265.663564 95.059051 
L 268.944923 93.969459 
L 272.955473 92.926921 
L 276.966022 92.092682 
L 281.341167 91.413367 
L 285.716313 90.983237 
L 295.560389 90.437328 
L 304.310679 90.162578 
L 316.342328 90.02833 
L 403.116039 89.671703 
L 449.419657 89.592217 
L 449.419657 89.592217 
" clip-path="url(#pdce153780c)" style="fill: none; stroke: #c44e52; stroke-opacity: 0.9; stroke-width: 3; stroke-linecap: round"/>
   </g>
   <g id="line2d_11">
    <path d="M 183.629594 91.602563 
L 183.99419 180.403874 
L 184.358785 184.223378 
L 184.723381 184.770716 
L 185.087976 184.764615 
L 186.546358 184.182472 
L 189.098526 183.095963 
L 190.556907 179.876772 
L 193.838266 172.757701 
L 197.48422 165.396965 
L 201.130175 158.5674 
L 204.776129 152.226842 
L 208.422083 146.339099 
L 212.068037 140.870279 
L 215.713991 135.792935 
L 219.359946 131.074476 
L 223.370495 126.266143 
L 227.381045 121.852037 
L 231.391595 117.777477 
L 235.402144 114.015448 
L 238.683503 111.203776 
L 243.058648 107.767498 
L 247.433793 104.618964 
L 251.808938 101.73412 
L 256.548679 98.88397 
L 261.288419 96.296598 
L 264.934373 94.531068 
L 267.851137 93.346731 
L 272.226282 91.765508 
L 275.872236 90.738377 
L 281.705763 89.360808 
L 287.174694 88.339927 
L 294.831198 87.21955 
L 298.112557 86.891727 
L 322.905046 87.363692 
L 331.655336 87.64247 
L 336.759672 87.849447 
L 343.686985 88.140313 
L 360.458374 88.440486 
L 376.865168 88.67214 
L 387.07384 88.832271 
L 409.678756 88.937826 
L 449.419657 88.929443 
L 449.419657 88.929443 
" clip-path="url(#pdce153780c)" style="fill: none; stroke: #8172b3; stroke-opacity: 0.9; stroke-width: 3; stroke-linecap: round"/>
   </g>
   <g id="line2d_12">
    <path d="M 183.629594 91.602563 
L 183.99419 162.857885 
L 184.358785 165.457311 
L 184.723381 165.874578 
L 185.452571 165.775802 
L 189.098526 164.595102 
L 190.921503 161.402593 
L 194.567457 155.218514 
L 198.213411 149.486495 
L 201.859365 144.17199 
L 205.50532 139.242545 
L 209.151274 134.666145 
L 212.797228 130.41633 
L 216.443182 126.475707 
L 220.453732 122.475865 
L 224.464282 118.788139 
L 228.474831 115.387182 
L 232.849976 111.977756 
L 236.860526 109.138104 
L 241.235671 106.318107 
L 245.975411 103.537461 
L 250.715152 101.020492 
L 255.819488 98.565816 
L 260.923824 96.352775 
L 265.663564 94.529391 
L 269.309519 93.34419 
L 274.049259 92.218087 
L 278.789 91.264539 
L 286.445503 89.955569 
L 293.008221 89.062418 
L 298.477152 88.554097 
L 306.862847 88.431463 
L 321.811259 88.450327 
L 348.791321 88.545709 
L 357.177015 88.893106 
L 374.313 88.975392 
L 388.167626 89.100054 
L 411.501733 89.220212 
L 449.419657 89.210447 
L 449.419657 89.210447 
" clip-path="url(#pdce153780c)" style="fill: none; stroke: #937860; stroke-opacity: 0.9; stroke-width: 3; stroke-linecap: round"/>
   </g>
   <g id="patch_3">
    <path d="M 170.340091 201.042 
L 170.340091 81.456 
" style="fill: none; stroke: #ffffff; stroke-width: 1.25; stroke-linejoin: miter; stroke-linecap: square"/>
   </g>
   <g id="patch_4">
    <path d="M 170.340091 201.042 
L 462.70916 201.042 
" style="fill: none; stroke: #ffffff; stroke-width: 1.25; stroke-linejoin: miter; stroke-linecap: square"/>
   </g>
   <g id="text_4">
    <!-- 0.8~90 -->
    <g style="fill: #262626" transform="translate(269.894782 75.456) scale(0.252 -0.252)">
     <defs>
      <path id="DejaVuSans-38" d="M 2034 2216 
Q 1584 2216 1326 1975 
Q 1069 1734 1069 1313 
Q 1069 891 1326 650 
Q 1584 409 2034 409 
Q 2484 409 2743 651 
Q 3003 894 3003 1313 
Q 3003 1734 2745 1975 
Q 2488 2216 2034 2216 
z
M 1403 2484 
Q 997 2584 770 2862 
Q 544 3141 544 3541 
Q 544 4100 942 4425 
Q 1341 4750 2034 4750 
Q 2731 4750 3128 4425 
Q 3525 4100 3525 3541 
Q 3525 3141 3298 2862 
Q 3072 2584 2669 2484 
Q 3125 2378 3379 2068 
Q 3634 1759 3634 1313 
Q 3634 634 3220 271 
Q 2806 -91 2034 -91 
Q 1263 -91 848 271 
Q 434 634 434 1313 
Q 434 1759 690 2068 
Q 947 2378 1403 2484 
z
M 1172 3481 
Q 1172 3119 1398 2916 
Q 1625 2713 2034 2713 
Q 2441 2713 2670 2916 
Q 2900 3119 2900 3481 
Q 2900 3844 2670 4047 
Q 2441 4250 2034 4250 
Q 1625 4250 1398 4047 
Q 1172 3844 1172 3481 
z
" transform="scale(0.015625)"/>
      <path id="DejaVuSans-7e" d="M 4684 2553 
L 4684 1997 
Q 4356 1750 4076 1644 
Q 3797 1538 3494 1538 
Q 3150 1538 2694 1722 
Q 2659 1734 2644 1741 
Q 2622 1750 2575 1766 
Q 2091 1959 1797 1959 
Q 1522 1959 1253 1839 
Q 984 1719 678 1459 
L 678 2016 
Q 1006 2263 1286 2370 
Q 1566 2478 1869 2478 
Q 2213 2478 2672 2291 
Q 2703 2278 2719 2272 
Q 2744 2263 2788 2247 
Q 3272 2053 3566 2053 
Q 3834 2053 4098 2172 
Q 4363 2291 4684 2553 
z
" transform="scale(0.015625)"/>
      <path id="DejaVuSans-39" d="M 703 97 
L 703 672 
Q 941 559 1184 500 
Q 1428 441 1663 441 
Q 2288 441 2617 861 
Q 2947 1281 2994 2138 
Q 2813 1869 2534 1725 
Q 2256 1581 1919 1581 
Q 1219 1581 811 2004 
Q 403 2428 403 3163 
Q 403 3881 828 4315 
Q 1253 4750 1959 4750 
Q 2769 4750 3195 4129 
Q 3622 3509 3622 2328 
Q 3622 1225 3098 567 
Q 2575 -91 1691 -91 
Q 1453 -91 1209 -44 
Q 966 3 703 97 
z
M 1959 2075 
Q 2384 2075 2632 2365 
Q 2881 2656 2881 3163 
Q 2881 3666 2632 3958 
Q 2384 4250 1959 4250 
Q 1534 4250 1286 3958 
Q 1038 3666 1038 3163 
Q 1038 2656 1286 2365 
Q 1534 2075 1959 2075 
z
" transform="scale(0.015625)"/>
     </defs>
     <use xlink:href="#DejaVuSans-30"/>
     <use xlink:href="#DejaVuSans-2e" x="63.623047"/>
     <use xlink:href="#DejaVuSans-38" x="95.410156"/>
     <use xlink:href="#DejaVuSans-7e" x="159.033203"/>
     <use xlink:href="#DejaVuSans-39" x="242.822266"/>
     <use xlink:href="#DejaVuSans-30" x="306.445312"/>
    </g>
   </g>
  </g>
  <g id="axes_2">
   <g id="patch_5">
    <path d="M 489.290298 201.042 
L 781.659367 201.042 
L 781.659367 81.456 
L 489.290298 81.456 
z
" style="fill: #eaeaf2"/>
   </g>
   <g id="matplotlib.axis_3">
    <g id="xtick_5">
     <g id="line2d_13">
      <path d="M 502.579801 201.042 
L 502.579801 81.456 
" clip-path="url(#p73c5c18fb2)" style="fill: none; stroke: #ffffff; stroke-linecap: round"/>
     </g>
    </g>
    <g id="xtick_6">
     <g id="line2d_14">
      <path d="M 593.728656 201.042 
L 593.728656 81.456 
" clip-path="url(#p73c5c18fb2)" style="fill: none; stroke: #ffffff; stroke-linecap: round"/>
     </g>
    </g>
    <g id="xtick_7">
     <g id="line2d_15">
      <path d="M 684.877512 201.042 
L 684.877512 81.456 
" clip-path="url(#p73c5c18fb2)" style="fill: none; stroke: #ffffff; stroke-linecap: round"/>
     </g>
    </g>
    <g id="xtick_8">
     <g id="line2d_16">
      <path d="M 776.026368 201.042 
L 776.026368 81.456 
" clip-path="url(#p73c5c18fb2)" style="fill: none; stroke: #ffffff; stroke-linecap: round"/>
     </g>
    </g>
   </g>
   <g id="matplotlib.axis_4">
    <g id="ytick_3">
     <g id="line2d_17">
      <path d="M 489.290298 182.962734 
L 781.659367 182.962734 
" clip-path="url(#p73c5c18fb2)" style="fill: none; stroke: #ffffff; stroke-linecap: round"/>
     </g>
    </g>
    <g id="ytick_4">
     <g id="line2d_18">
      <path d="M 489.290298 91.602563 
L 781.659367 91.602563 
" clip-path="url(#p73c5c18fb2)" style="fill: none; stroke: #ffffff; stroke-linecap: round"/>
     </g>
    </g>
   </g>
   <g id="PolyCollection_7"/>
   <g id="PolyCollection_8"/>
   <g id="PolyCollection_9"/>
   <g id="PolyCollection_10"/>
   <g id="PolyCollection_11"/>
   <g id="PolyCollection_12"/>
   <g id="line2d_19">
    <path d="M 502.579801 91.602563 
L 502.944396 184.097651 
L 503.308992 187.386042 
L 503.673587 188.266261 
L 504.038182 188.483827 
L 504.767373 188.494736 
L 508.048732 188.132454 
L 508.777923 186.832569 
L 513.153068 178.288719 
L 516.799022 171.707297 
L 520.444976 165.587161 
L 524.090931 159.893917 
L 527.736885 154.597256 
L 531.382839 149.669346 
L 535.028793 145.084473 
L 539.039343 140.408577 
L 543.049893 136.089033 
L 547.060442 132.108019 
L 551.070992 128.430597 
L 555.081542 125.034353 
L 559.456687 121.631748 
L 563.831832 118.511613 
L 568.206977 115.650264 
L 572.946717 112.818077 
L 577.321862 110.448448 
L 582.426198 107.993991 
L 587.530534 105.789987 
L 592.999466 103.692485 
L 598.832992 101.694727 
L 605.031114 99.814052 
L 611.593832 98.063696 
L 618.521145 96.452329 
L 625.813054 94.984387 
L 633.834153 93.603798 
L 640.032275 92.729505 
L 645.136611 92.251336 
L 656.439069 91.392257 
L 664.824764 90.933293 
L 697.638352 91.086125 
L 755.609024 90.86869 
L 768.369864 90.832412 
L 768.369864 90.832412 
" clip-path="url(#p73c5c18fb2)" style="fill: none; stroke: #4c72b0; stroke-opacity: 0.9; stroke-width: 3; stroke-linecap: round"/>
   </g>
   <g id="line2d_20">
    <path d="M 502.579801 91.602563 
L 502.944396 142.049904 
L 503.308992 144.20511 
L 503.673587 144.951787 
L 504.038182 145.214866 
L 504.767373 145.320224 
L 507.684137 145.184514 
L 508.048732 145.164477 
L 508.777923 144.502796 
L 515.340641 137.600731 
L 519.35119 133.793661 
L 523.36174 130.278118 
L 527.736885 126.74866 
L 532.11203 123.513699 
L 536.487175 120.54745 
L 541.226916 117.611658 
L 545.966656 114.938764 
L 551.070992 112.32738 
L 556.175328 109.966891 
L 561.644259 107.692785 
L 567.477786 105.526947 
L 573.311313 103.597001 
L 579.509435 101.779838 
L 586.072153 100.088461 
L 592.270275 98.708666 
L 598.832992 97.478589 
L 607.218687 96.129573 
L 616.333573 94.89999 
L 626.177649 93.803099 
L 637.115512 92.8161 
L 644.772016 92.305436 
L 659.355832 91.682772 
L 669.564504 91.428986 
L 768.369864 91.156295 
L 768.369864 91.156295 
" clip-path="url(#p73c5c18fb2)" style="fill: none; stroke: #dd8452; stroke-opacity: 0.9; stroke-width: 3; stroke-linecap: round"/>
   </g>
   <g id="line2d_21">
    <path d="M 502.579801 91.602563 
L 502.944396 188.530733 
L 503.308992 193.823687 
L 503.673587 195.168658 
L 504.038182 195.52804 
L 504.767373 195.599513 
L 508.048732 195.210715 
L 508.777923 193.803574 
L 513.153068 184.612069 
L 516.799022 177.528904 
L 520.444976 170.943678 
L 524.090931 164.822429 
L 527.736885 159.135471 
L 531.382839 153.844456 
L 535.028793 148.919812 
L 538.674748 144.337392 
L 542.685297 139.663461 
L 546.695847 135.344614 
L 550.706397 131.353801 
L 554.716946 127.667974 
L 558.727496 124.26947 
L 563.102641 120.858189 
L 567.477786 117.737297 
L 571.852931 114.879915 
L 576.592672 112.063681 
L 581.332412 109.5101 
L 586.436748 107.022484 
L 591.541084 104.787688 
L 597.010015 102.641245 
L 602.114351 100.867448 
L 607.947878 99.079943 
L 614.146 97.432374 
L 621.073313 95.830378 
L 628.365222 94.375279 
L 636.021725 93.069617 
L 641.490657 92.316927 
L 649.147161 91.55782 
L 654.980687 91.176568 
L 661.17881 91.030301 
L 768.369864 91.014015 
L 768.369864 91.014015 
" clip-path="url(#p73c5c18fb2)" style="fill: none; stroke: #55a868; stroke-opacity: 0.9; stroke-width: 3; stroke-linecap: round"/>
   </g>
   <g id="line2d_22">
    <path d="M 502.579801 91.602563 
L 502.944396 167.780071 
L 503.308992 172.030343 
L 503.673587 173.091372 
L 504.038182 173.368566 
L 504.767373 173.422038 
L 508.048732 173.121056 
L 508.777923 172.024664 
L 513.517663 164.227693 
L 517.163618 158.700466 
L 520.809572 153.560988 
L 524.455526 148.779823 
L 528.466076 143.904207 
L 532.476625 139.400072 
L 536.487175 135.238977 
L 540.497725 131.394889 
L 544.508274 127.843844 
L 548.883419 124.277698 
L 553.258564 121.007377 
L 557.63371 118.010206 
L 562.37345 115.046983 
L 567.113191 112.352192 
L 571.852931 109.909075 
L 576.957267 107.532855 
L 582.061603 105.395808 
L 587.530534 103.347093 
L 593.364061 101.407804 
L 599.562183 99.598178 
L 605.760305 98.026047 
L 612.323023 96.584944 
L 619.979527 95.157513 
L 628.000626 93.889756 
L 636.750916 92.730153 
L 643.313634 92.06924 
L 651.334733 91.510034 
L 658.991237 91.270057 
L 672.845863 91.21069 
L 712.222169 91.095041 
L 756.70281 91.125861 
L 768.369864 91.114276 
L 768.369864 91.114276 
" clip-path="url(#p73c5c18fb2)" style="fill: none; stroke: #c44e52; stroke-opacity: 0.9; stroke-width: 3; stroke-linecap: round"/>
   </g>
   <g id="line2d_23">
    <path d="M 502.579801 91.602563 
L 502.944396 180.403874 
L 503.308992 184.332532 
L 503.673587 184.99677 
L 504.038182 185.108717 
L 505.496564 184.99755 
L 508.048732 184.725432 
L 509.507114 181.961786 
L 513.153068 175.147049 
L 516.799022 168.813353 
L 520.444976 162.925014 
L 524.090931 157.449453 
L 527.736885 152.356362 
L 531.382839 147.618489 
L 535.393389 142.78705 
L 539.403938 138.323866 
L 543.414488 134.199838 
L 547.425038 130.388558 
L 551.435587 126.865637 
L 555.810732 123.325244 
L 560.185878 120.075564 
L 564.561023 117.09286 
L 569.300763 114.137029 
L 574.040504 111.443134 
L 579.144839 108.807167 
L 584.249175 106.429553 
L 589.718107 104.135145 
L 595.187038 102.075066 
L 601.020565 100.112522 
L 606.489496 98.504111 
L 613.052214 96.794454 
L 619.979527 95.215705 
L 627.636031 93.708076 
L 635.292535 92.424649 
L 641.490657 91.639816 
L 648.053374 90.995904 
L 658.262046 90.336766 
L 668.835313 89.88982 
L 681.231558 89.539974 
L 688.888062 89.502802 
L 701.284306 89.927611 
L 720.243268 90.292582 
L 749.046306 90.588332 
L 768.369864 90.625803 
L 768.369864 90.625803 
" clip-path="url(#p73c5c18fb2)" style="fill: none; stroke: #8172b3; stroke-opacity: 0.9; stroke-width: 3; stroke-linecap: round"/>
   </g>
   <g id="line2d_24">
    <path d="M 502.579801 91.602563 
L 502.944396 162.857885 
L 503.308992 165.540976 
L 503.673587 166.047593 
L 504.402778 166.129329 
L 508.048732 165.839523 
L 509.507114 163.641603 
L 513.153068 158.221704 
L 516.799022 153.184956 
L 520.444976 148.50346 
L 524.455526 143.733388 
L 528.466076 139.3306 
L 532.476625 135.266443 
L 536.487175 131.51358 
L 540.497725 128.047674 
L 544.87287 124.567632 
L 549.248015 121.375815 
L 553.62316 118.448324 
L 558.3629 115.54875 
L 563.102641 112.907105 
L 568.206977 110.324381 
L 573.311313 107.99274 
L 578.780244 105.743926 
L 584.613771 103.597534 
L 590.447298 101.684182 
L 596.64542 99.878076 
L 602.843542 98.296308 
L 609.770855 96.759503 
L 617.427359 95.294028 
L 625.813054 93.928079 
L 634.563344 92.735125 
L 642.219848 91.917012 
L 651.699329 91.310064 
L 666.647741 90.632759 
L 679.043985 90.292127 
L 688.888062 90.2646 
L 719.514077 90.608623 
L 768.369864 90.773411 
L 768.369864 90.773411 
" clip-path="url(#p73c5c18fb2)" style="fill: none; stroke: #937860; stroke-opacity: 0.9; stroke-width: 3; stroke-linecap: round"/>
   </g>
   <g id="patch_6">
    <path d="M 489.290298 201.042 
L 489.290298 81.456 
" style="fill: none; stroke: #ffffff; stroke-width: 1.25; stroke-linejoin: miter; stroke-linecap: square"/>
   </g>
   <g id="patch_7">
    <path d="M 489.290298 201.042 
L 781.659367 201.042 
" style="fill: none; stroke: #ffffff; stroke-width: 1.25; stroke-linejoin: miter; stroke-linecap: square"/>
   </g>
   <g id="text_5">
    <!-- 0.8~365 -->
    <g style="fill: #262626" transform="translate(580.828239 75.456) scale(0.252 -0.252)">
     <defs>
      <path id="DejaVuSans-33" d="M 2597 2516 
Q 3050 2419 3304 2112 
Q 3559 1806 3559 1356 
Q 3559 666 3084 287 
Q 2609 -91 1734 -91 
Q 1441 -91 1130 -33 
Q 819 25 488 141 
L 488 750 
Q 750 597 1062 519 
Q 1375 441 1716 441 
Q 2309 441 2620 675 
Q 2931 909 2931 1356 
Q 2931 1769 2642 2001 
Q 2353 2234 1838 2234 
L 1294 2234 
L 1294 2753 
L 1863 2753 
Q 2328 2753 2575 2939 
Q 2822 3125 2822 3475 
Q 2822 3834 2567 4026 
Q 2313 4219 1838 4219 
Q 1578 4219 1281 4162 
Q 984 4106 628 3988 
L 628 4550 
Q 988 4650 1302 4700 
Q 1616 4750 1894 4750 
Q 2613 4750 3031 4423 
Q 3450 4097 3450 3541 
Q 3450 3153 3228 2886 
Q 3006 2619 2597 2516 
z
" transform="scale(0.015625)"/>
      <path id="DejaVuSans-36" d="M 2113 2584 
Q 1688 2584 1439 2293 
Q 1191 2003 1191 1497 
Q 1191 994 1439 701 
Q 1688 409 2113 409 
Q 2538 409 2786 701 
Q 3034 994 3034 1497 
Q 3034 2003 2786 2293 
Q 2538 2584 2113 2584 
z
M 3366 4563 
L 3366 3988 
Q 3128 4100 2886 4159 
Q 2644 4219 2406 4219 
Q 1781 4219 1451 3797 
Q 1122 3375 1075 2522 
Q 1259 2794 1537 2939 
Q 1816 3084 2150 3084 
Q 2853 3084 3261 2657 
Q 3669 2231 3669 1497 
Q 3669 778 3244 343 
Q 2819 -91 2113 -91 
Q 1303 -91 875 529 
Q 447 1150 447 2328 
Q 447 3434 972 4092 
Q 1497 4750 2381 4750 
Q 2619 4750 2861 4703 
Q 3103 4656 3366 4563 
z
" transform="scale(0.015625)"/>
     </defs>
     <use xlink:href="#DejaVuSans-30"/>
     <use xlink:href="#DejaVuSans-2e" x="63.623047"/>
     <use xlink:href="#DejaVuSans-38" x="95.410156"/>
     <use xlink:href="#DejaVuSans-7e" x="159.033203"/>
     <use xlink:href="#DejaVuSans-33" x="242.822266"/>
     <use xlink:href="#DejaVuSans-36" x="306.445312"/>
     <use xlink:href="#DejaVuSans-35" x="370.068359"/>
    </g>
   </g>
  </g>
  <g id="axes_3">
   <g id="patch_8">
    <path d="M 808.240504 201.042 
L 1100.609573 201.042 
L 1100.609573 81.456 
L 808.240504 81.456 
z
" style="fill: #eaeaf2"/>
   </g>
   <g id="matplotlib.axis_5">
    <g id="xtick_9">
     <g id="line2d_25">
      <path d="M 821.530007 201.042 
L 821.530007 81.456 
" clip-path="url(#pa37c6b3315)" style="fill: none; stroke: #ffffff; stroke-linecap: round"/>
     </g>
    </g>
    <g id="xtick_10">
     <g id="line2d_26">
      <path d="M 912.678863 201.042 
L 912.678863 81.456 
" clip-path="url(#pa37c6b3315)" style="fill: none; stroke: #ffffff; stroke-linecap: round"/>
     </g>
    </g>
    <g id="xtick_11">
     <g id="line2d_27">
      <path d="M 1003.827719 201.042 
L 1003.827719 81.456 
" clip-path="url(#pa37c6b3315)" style="fill: none; stroke: #ffffff; stroke-linecap: round"/>
     </g>
    </g>
    <g id="xtick_12">
     <g id="line2d_28">
      <path d="M 1094.976574 201.042 
L 1094.976574 81.456 
" clip-path="url(#pa37c6b3315)" style="fill: none; stroke: #ffffff; stroke-linecap: round"/>
     </g>
    </g>
   </g>
   <g id="matplotlib.axis_6">
    <g id="ytick_5">
     <g id="line2d_29">
      <path d="M 808.240504 182.962734 
L 1100.609573 182.962734 
" clip-path="url(#pa37c6b3315)" style="fill: none; stroke: #ffffff; stroke-linecap: round"/>
     </g>
    </g>
    <g id="ytick_6">
     <g id="line2d_30">
      <path d="M 808.240504 91.602563 
L 1100.609573 91.602563 
" clip-path="url(#pa37c6b3315)" style="fill: none; stroke: #ffffff; stroke-linecap: round"/>
     </g>
    </g>
   </g>
   <g id="PolyCollection_13"/>
   <g id="PolyCollection_14"/>
   <g id="PolyCollection_15"/>
   <g id="PolyCollection_16"/>
   <g id="PolyCollection_17"/>
   <g id="PolyCollection_18"/>
   <g id="line2d_31">
    <path d="M 821.530007 91.602563 
L 821.894603 184.097651 
L 822.259198 187.283677 
L 822.623794 188.045186 
L 822.988389 188.139841 
L 823.71758 187.903097 
L 826.998939 186.437633 
L 828.092725 184.04627 
L 831.738679 175.786489 
L 835.384633 168.125474 
L 839.030588 161.014296 
L 842.676542 154.434063 
L 846.322496 148.341479 
L 849.96845 142.680467 
L 853.614404 137.422353 
L 856.895763 133.055804 
L 860.541717 128.674237 
L 864.552267 124.213709 
L 867.833626 120.867251 
L 871.844176 117.109662 
L 875.854725 113.649421 
L 879.865275 110.464247 
L 884.24042 107.279822 
L 888.615565 104.375797 
L 892.99071 101.729362 
L 897.730451 99.127048 
L 902.470191 96.776578 
L 905.386954 95.529336 
L 907.574527 94.820767 
L 912.678863 93.366608 
L 919.241581 91.728828 
L 921.793748 91.20177 
L 932.367016 90.455796 
L 941.846497 89.944266 
L 953.878146 89.707419 
L 981.222802 89.048198 
L 1001.640146 88.827278 
L 1013.3072 88.961491 
L 1078.56978 88.865334 
L 1087.32007 88.84943 
L 1087.32007 88.84943 
" clip-path="url(#pa37c6b3315)" style="fill: none; stroke: #4c72b0; stroke-opacity: 0.9; stroke-width: 3; stroke-linecap: round"/>
   </g>
   <g id="line2d_32">
    <path d="M 821.530007 91.602563 
L 821.894603 142.049904 
L 822.259198 144.157801 
L 822.623794 144.849037 
L 822.988389 145.053878 
L 823.71758 145.04065 
L 826.998939 144.354524 
L 827.728129 143.576211 
L 833.561656 136.547177 
L 837.572206 132.167334 
L 841.582756 128.128649 
L 845.593305 124.400522 
L 849.603855 120.969173 
L 853.979 117.535691 
L 858.354145 114.399107 
L 862.72929 111.537445 
L 866.73984 109.159733 
L 871.47958 106.67793 
L 875.854725 104.646486 
L 881.323657 102.362848 
L 886.792588 100.320337 
L 892.626115 98.381971 
L 898.824237 96.564737 
L 905.386954 94.882484 
L 908.668313 94.228143 
L 915.960222 93.100876 
L 923.25213 92.153999 
L 938.200542 91.334323 
L 950.596787 90.800051 
L 958.982482 90.580718 
L 971.378726 90.40535 
L 976.847657 90.418177 
L 999.087978 90.074499 
L 1022.786681 89.87621 
L 1061.433795 89.839962 
L 1087.32007 89.853853 
L 1087.32007 89.853853 
" clip-path="url(#pa37c6b3315)" style="fill: none; stroke: #dd8452; stroke-opacity: 0.9; stroke-width: 3; stroke-linecap: round"/>
   </g>
   <g id="line2d_33">
    <path d="M 821.530007 91.602563 
L 821.894603 188.530733 
L 822.259198 193.717521 
L 822.623794 194.938554 
L 822.988389 195.169412 
L 823.71758 194.981722 
L 826.998939 193.439525 
L 828.092725 190.866034 
L 831.738679 181.991255 
L 835.384633 173.7526 
L 838.665992 166.85846 
L 842.311946 159.725103 
L 845.957901 153.105272 
L 849.603855 146.953125 
L 853.249809 141.246857 
L 856.895763 135.957188 
L 860.541717 131.073898 
L 864.187672 126.546243 
L 867.833626 122.370708 
L 871.47958 118.513549 
L 874.760939 115.333493 
L 878.406893 112.090628 
L 882.417443 108.854045 
L 886.427992 105.91004 
L 890.438542 103.218095 
L 894.813687 100.539629 
L 899.188832 98.106461 
L 903.928573 95.735027 
L 906.480741 94.658206 
L 910.126695 93.352773 
L 913.772649 92.283839 
L 917.054008 91.522648 
L 920.699962 90.876371 
L 923.981321 90.480341 
L 934.919184 89.872251 
L 945.857046 89.55899 
L 957.888695 89.448353 
L 981.951993 89.386459 
L 997.994192 89.38818 
L 1087.32007 89.236733 
L 1087.32007 89.236733 
" clip-path="url(#pa37c6b3315)" style="fill: none; stroke: #55a868; stroke-opacity: 0.9; stroke-width: 3; stroke-linecap: round"/>
   </g>
   <g id="line2d_34">
    <path d="M 821.530007 91.602563 
L 821.894603 167.780071 
L 822.259198 171.9463 
L 822.623794 172.908786 
L 822.988389 173.083811 
L 823.71758 172.931022 
L 826.998939 171.71051 
L 828.092725 169.693929 
L 831.738679 162.707896 
L 835.384633 156.221353 
L 839.030588 150.203007 
L 842.676542 144.611476 
L 846.322496 139.417754 
L 849.96845 134.595438 
L 853.614404 130.126624 
L 857.260359 126.000158 
L 860.906313 122.183667 
L 864.916863 118.32284 
L 868.562817 115.102515 
L 872.573366 111.857815 
L 876.219321 109.173702 
L 880.22987 106.487172 
L 884.24042 104.063856 
L 888.98016 101.480576 
L 893.719901 99.156868 
L 898.824237 96.91228 
L 903.563977 95.059051 
L 906.845336 93.969459 
L 910.855886 92.926921 
L 914.866435 92.092682 
L 919.241581 91.413367 
L 923.616726 90.983237 
L 933.460802 90.437328 
L 942.211092 90.162578 
L 954.242741 90.02833 
L 1041.016452 89.671703 
L 1087.32007 89.592217 
L 1087.32007 89.592217 
" clip-path="url(#pa37c6b3315)" style="fill: none; stroke: #c44e52; stroke-opacity: 0.9; stroke-width: 3; stroke-linecap: round"/>
   </g>
   <g id="line2d_35">
    <path d="M 821.530007 91.602563 
L 821.894603 180.403874 
L 822.259198 184.223378 
L 822.623794 184.770716 
L 822.988389 184.764615 
L 824.446771 184.182472 
L 826.998939 183.095963 
L 828.45732 179.876772 
L 831.738679 172.757701 
L 835.384633 165.396965 
L 839.030588 158.5674 
L 842.676542 152.226842 
L 846.322496 146.339099 
L 849.96845 140.870279 
L 853.614404 135.792935 
L 857.260359 131.074476 
L 861.270908 126.266143 
L 865.281458 121.852037 
L 869.292008 117.777477 
L 873.302557 114.015448 
L 876.583916 111.203776 
L 880.959061 107.767498 
L 885.334206 104.618964 
L 889.709351 101.73412 
L 894.449092 98.88397 
L 899.188832 96.296598 
L 902.834787 94.531068 
L 905.75155 93.346731 
L 910.126695 91.765508 
L 913.772649 90.738377 
L 919.606176 89.360808 
L 925.075107 88.339927 
L 932.731611 87.21955 
L 936.01297 86.891727 
L 960.805459 87.363692 
L 969.555749 87.64247 
L 974.660085 87.849447 
L 981.587398 88.140313 
L 998.358787 88.440486 
L 1014.765581 88.67214 
L 1024.974253 88.832271 
L 1047.579169 88.937826 
L 1087.32007 88.929443 
L 1087.32007 88.929443 
" clip-path="url(#pa37c6b3315)" style="fill: none; stroke: #8172b3; stroke-opacity: 0.9; stroke-width: 3; stroke-linecap: round"/>
   </g>
   <g id="line2d_36">
    <path d="M 821.530007 91.602563 
L 821.894603 162.857885 
L 822.259198 165.457311 
L 822.623794 165.874578 
L 823.352984 165.775802 
L 826.998939 164.595102 
L 828.821916 161.402593 
L 832.46787 155.218514 
L 836.113824 149.486495 
L 839.759778 144.17199 
L 843.405733 139.242545 
L 847.051687 134.666145 
L 850.697641 130.41633 
L 854.343595 126.475707 
L 858.354145 122.475865 
L 862.364695 118.788139 
L 866.375244 115.387182 
L 870.750389 111.977756 
L 874.760939 109.138104 
L 879.136084 106.318107 
L 883.875825 103.537461 
L 888.615565 101.020492 
L 893.719901 98.565816 
L 898.824237 96.352775 
L 903.563977 94.529391 
L 907.209932 93.34419 
L 911.949672 92.218087 
L 916.689413 91.264539 
L 924.345916 89.955569 
L 930.908634 89.062418 
L 936.377565 88.554097 
L 944.76326 88.431463 
L 959.711672 88.450327 
L 986.691734 88.545709 
L 995.077428 88.893106 
L 1012.213413 88.975392 
L 1026.068039 89.100054 
L 1049.402146 89.220212 
L 1087.32007 89.210447 
L 1087.32007 89.210447 
" clip-path="url(#pa37c6b3315)" style="fill: none; stroke: #937860; stroke-opacity: 0.9; stroke-width: 3; stroke-linecap: round"/>
   </g>
   <g id="patch_9">
    <path d="M 808.240504 201.042 
L 808.240504 81.456 
" style="fill: none; stroke: #ffffff; stroke-width: 1.25; stroke-linejoin: miter; stroke-linecap: square"/>
   </g>
   <g id="patch_10">
    <path d="M 808.240504 201.042 
L 1100.609573 201.042 
" style="fill: none; stroke: #ffffff; stroke-width: 1.25; stroke-linejoin: miter; stroke-linecap: square"/>
   </g>
   <g id="text_6">
    <!-- 0.85~90 -->
    <g style="fill: #262626" transform="translate(899.778445 75.456) scale(0.252 -0.252)">
     <use xlink:href="#DejaVuSans-30"/>
     <use xlink:href="#DejaVuSans-2e" x="63.623047"/>
     <use xlink:href="#DejaVuSans-38" x="95.410156"/>
     <use xlink:href="#DejaVuSans-35" x="159.033203"/>
     <use xlink:href="#DejaVuSans-7e" x="222.65625"/>
     <use xlink:href="#DejaVuSans-39" x="306.445312"/>
     <use xlink:href="#DejaVuSans-30" x="370.068359"/>
    </g>
   </g>
  </g>
  <g id="axes_4">
   <g id="patch_11">
    <path d="M 170.340091 373.284 
L 462.70916 373.284 
L 462.70916 253.698 
L 170.340091 253.698 
z
" style="fill: #eaeaf2"/>
   </g>
   <g id="matplotlib.axis_7">
    <g id="xtick_13">
     <g id="line2d_37">
      <path d="M 183.629594 373.284 
L 183.629594 253.698 
" clip-path="url(#pff1813b5ac)" style="fill: none; stroke: #ffffff; stroke-linecap: round"/>
     </g>
     <g id="text_7">
      <!-- 0 -->
      <g style="fill: #262626" transform="translate(176.280907 400.336391) scale(0.231 -0.231)">
       <use xlink:href="#DejaVuSans-30"/>
      </g>
     </g>
    </g>
    <g id="xtick_14">
     <g id="line2d_38">
      <path d="M 274.77845 373.284 
L 274.77845 253.698 
" clip-path="url(#pff1813b5ac)" style="fill: none; stroke: #ffffff; stroke-linecap: round"/>
     </g>
     <g id="text_8">
      <!-- 250 -->
      <g style="fill: #262626" transform="translate(252.732387 400.336391) scale(0.231 -0.231)">
       <defs>
        <path id="DejaVuSans-32" d="M 1228 531 
L 3431 531 
L 3431 0 
L 469 0 
L 469 531 
Q 828 903 1448 1529 
Q 2069 2156 2228 2338 
Q 2531 2678 2651 2914 
Q 2772 3150 2772 3378 
Q 2772 3750 2511 3984 
Q 2250 4219 1831 4219 
Q 1534 4219 1204 4116 
Q 875 4013 500 3803 
L 500 4441 
Q 881 4594 1212 4672 
Q 1544 4750 1819 4750 
Q 2544 4750 2975 4387 
Q 3406 4025 3406 3419 
Q 3406 3131 3298 2873 
Q 3191 2616 2906 2266 
Q 2828 2175 2409 1742 
Q 1991 1309 1228 531 
z
" transform="scale(0.015625)"/>
       </defs>
       <use xlink:href="#DejaVuSans-32"/>
       <use xlink:href="#DejaVuSans-35" x="63.623047"/>
       <use xlink:href="#DejaVuSans-30" x="127.246094"/>
      </g>
     </g>
    </g>
    <g id="xtick_15">
     <g id="line2d_39">
      <path d="M 365.927305 373.284 
L 365.927305 253.698 
" clip-path="url(#pff1813b5ac)" style="fill: none; stroke: #ffffff; stroke-linecap: round"/>
     </g>
     <g id="text_9">
      <!-- 500 -->
      <g style="fill: #262626" transform="translate(343.881243 400.336391) scale(0.231 -0.231)">
       <use xlink:href="#DejaVuSans-35"/>
       <use xlink:href="#DejaVuSans-30" x="63.623047"/>
       <use xlink:href="#DejaVuSans-30" x="127.246094"/>
      </g>
     </g>
    </g>
    <g id="xtick_16">
     <g id="line2d_40">
      <path d="M 457.076161 373.284 
L 457.076161 253.698 
" clip-path="url(#pff1813b5ac)" style="fill: none; stroke: #ffffff; stroke-linecap: round"/>
     </g>
     <g id="text_10">
      <!-- 750 -->
      <g style="fill: #262626" transform="translate(435.030099 400.336391) scale(0.231 -0.231)">
       <defs>
        <path id="DejaVuSans-37" d="M 525 4666 
L 3525 4666 
L 3525 4397 
L 1831 0 
L 1172 0 
L 2766 4134 
L 525 4134 
L 525 4666 
z
" transform="scale(0.015625)"/>
       </defs>
       <use xlink:href="#DejaVuSans-37"/>
       <use xlink:href="#DejaVuSans-35" x="63.623047"/>
       <use xlink:href="#DejaVuSans-30" x="127.246094"/>
      </g>
     </g>
    </g>
    <g id="text_11">
     <!-- step -->
     <g style="fill: #262626" transform="translate(289.269251 428.288531) scale(0.252 -0.252)">
      <defs>
       <path id="DejaVuSans-73" d="M 2834 3397 
L 2834 2853 
Q 2591 2978 2328 3040 
Q 2066 3103 1784 3103 
Q 1356 3103 1142 2972 
Q 928 2841 928 2578 
Q 928 2378 1081 2264 
Q 1234 2150 1697 2047 
L 1894 2003 
Q 2506 1872 2764 1633 
Q 3022 1394 3022 966 
Q 3022 478 2636 193 
Q 2250 -91 1575 -91 
Q 1294 -91 989 -36 
Q 684 19 347 128 
L 347 722 
Q 666 556 975 473 
Q 1284 391 1588 391 
Q 1994 391 2212 530 
Q 2431 669 2431 922 
Q 2431 1156 2273 1281 
Q 2116 1406 1581 1522 
L 1381 1569 
Q 847 1681 609 1914 
Q 372 2147 372 2553 
Q 372 3047 722 3315 
Q 1072 3584 1716 3584 
Q 2034 3584 2315 3537 
Q 2597 3491 2834 3397 
z
" transform="scale(0.015625)"/>
       <path id="DejaVuSans-74" d="M 1172 4494 
L 1172 3500 
L 2356 3500 
L 2356 3053 
L 1172 3053 
L 1172 1153 
Q 1172 725 1289 603 
Q 1406 481 1766 481 
L 2356 481 
L 2356 0 
L 1766 0 
Q 1100 0 847 248 
Q 594 497 594 1153 
L 594 3053 
L 172 3053 
L 172 3500 
L 594 3500 
L 594 4494 
L 1172 4494 
z
" transform="scale(0.015625)"/>
       <path id="DejaVuSans-70" d="M 1159 525 
L 1159 -1331 
L 581 -1331 
L 581 3500 
L 1159 3500 
L 1159 2969 
Q 1341 3281 1617 3432 
Q 1894 3584 2278 3584 
Q 2916 3584 3314 3078 
Q 3713 2572 3713 1747 
Q 3713 922 3314 415 
Q 2916 -91 2278 -91 
Q 1894 -91 1617 61 
Q 1341 213 1159 525 
z
M 3116 1747 
Q 3116 2381 2855 2742 
Q 2594 3103 2138 3103 
Q 1681 3103 1420 2742 
Q 1159 2381 1159 1747 
Q 1159 1113 1420 752 
Q 1681 391 2138 391 
Q 2594 391 2855 752 
Q 3116 1113 3116 1747 
z
" transform="scale(0.015625)"/>
      </defs>
      <use xlink:href="#DejaVuSans-73"/>
      <use xlink:href="#DejaVuSans-74" x="52.099609"/>
      <use xlink:href="#DejaVuSans-65" x="91.308594"/>
      <use xlink:href="#DejaVuSans-70" x="152.832031"/>
     </g>
    </g>
   </g>
   <g id="matplotlib.axis_8">
    <g id="ytick_7">
     <g id="line2d_41">
      <path d="M 170.340091 355.204734 
L 462.70916 355.204734 
" clip-path="url(#pff1813b5ac)" style="fill: none; stroke: #ffffff; stroke-linecap: round"/>
     </g>
     <g id="text_12">
      <!-- −0.5 -->
      <g style="fill: #262626" transform="translate(104.746794 363.980929) scale(0.231 -0.231)">
       <use xlink:href="#DejaVuSans-2212"/>
       <use xlink:href="#DejaVuSans-30" x="83.789062"/>
       <use xlink:href="#DejaVuSans-2e" x="147.412109"/>
       <use xlink:href="#DejaVuSans-35" x="179.199219"/>
      </g>
     </g>
    </g>
    <g id="ytick_8">
     <g id="line2d_42">
      <path d="M 170.340091 263.844563 
L 462.70916 263.844563 
" clip-path="url(#pff1813b5ac)" style="fill: none; stroke: #ffffff; stroke-linecap: round"/>
     </g>
     <g id="text_13">
      <!-- 0.0 -->
      <g style="fill: #262626" transform="translate(124.103872 272.620758) scale(0.231 -0.231)">
       <use xlink:href="#DejaVuSans-30"/>
       <use xlink:href="#DejaVuSans-2e" x="63.623047"/>
       <use xlink:href="#DejaVuSans-30" x="95.410156"/>
      </g>
     </g>
    </g>
    <g id="text_14">
     <!-- % change -->
     <g style="fill: #262626" transform="translate(95.505982 375.839344) rotate(-90) scale(0.252 -0.252)">
      <use xlink:href="#DejaVuSans-25"/>
      <use xlink:href="#DejaVuSans-20" x="95.019531"/>
      <use xlink:href="#DejaVuSans-63" x="126.806641"/>
      <use xlink:href="#DejaVuSans-68" x="181.787109"/>
      <use xlink:href="#DejaVuSans-61" x="245.166016"/>
      <use xlink:href="#DejaVuSans-6e" x="306.445312"/>
      <use xlink:href="#DejaVuSans-67" x="369.824219"/>
      <use xlink:href="#DejaVuSans-65" x="433.300781"/>
     </g>
    </g>
   </g>
   <g id="PolyCollection_19"/>
   <g id="PolyCollection_20"/>
   <g id="PolyCollection_21"/>
   <g id="PolyCollection_22"/>
   <g id="PolyCollection_23"/>
   <g id="PolyCollection_24"/>
   <g id="line2d_43">
    <path d="M 183.629594 263.844563 
L 183.99419 356.339651 
L 184.358785 359.628042 
L 184.723381 360.508261 
L 185.087976 360.725827 
L 185.817167 360.736736 
L 189.098526 360.374454 
L 189.827716 359.074569 
L 194.202861 350.530719 
L 197.848816 343.949297 
L 201.49477 337.829161 
L 205.140724 332.135917 
L 208.786678 326.839256 
L 212.432633 321.911346 
L 216.078587 317.326473 
L 220.089136 312.650577 
L 224.099686 308.331033 
L 228.110236 304.350019 
L 232.120785 300.672597 
L 236.131335 297.276353 
L 240.50648 293.873748 
L 244.881625 290.753613 
L 249.25677 287.892264 
L 253.996511 285.060077 
L 258.371656 282.690448 
L 263.475992 280.235991 
L 268.580328 278.031987 
L 274.049259 275.934485 
L 279.882786 273.936727 
L 286.080908 272.056052 
L 292.643626 270.305696 
L 299.570939 268.694329 
L 306.862847 267.226387 
L 314.883946 265.845798 
L 321.082069 264.971505 
L 326.186404 264.493336 
L 337.488863 263.634257 
L 345.874557 263.175293 
L 378.688145 263.328125 
L 436.658817 263.11069 
L 449.419657 263.074412 
L 449.419657 263.074412 
" clip-path="url(#pff1813b5ac)" style="fill: none; stroke: #4c72b0; stroke-opacity: 0.9; stroke-width: 3; stroke-linecap: round"/>
   </g>
   <g id="line2d_44">
    <path d="M 183.629594 263.844563 
L 183.99419 314.291904 
L 184.358785 316.44711 
L 184.723381 317.193787 
L 185.087976 317.456866 
L 185.817167 317.562224 
L 188.73393 317.426514 
L 189.098526 317.406477 
L 189.827716 316.744796 
L 196.390434 309.842731 
L 200.400984 306.035661 
L 204.411533 302.520118 
L 208.786678 298.99066 
L 213.161823 295.755699 
L 217.536969 292.78945 
L 222.276709 289.853658 
L 227.01645 287.180764 
L 232.120785 284.56938 
L 237.225121 282.208891 
L 242.694053 279.934785 
L 248.527579 277.768947 
L 254.361106 275.839001 
L 260.559228 274.021838 
L 267.121946 272.330461 
L 273.320068 270.950666 
L 279.882786 269.720589 
L 288.26848 268.371573 
L 297.383366 267.14199 
L 307.227442 266.045099 
L 318.165305 265.0581 
L 325.821809 264.547436 
L 340.405626 263.924772 
L 350.614298 263.670986 
L 449.419657 263.398295 
L 449.419657 263.398295 
" clip-path="url(#pff1813b5ac)" style="fill: none; stroke: #dd8452; stroke-opacity: 0.9; stroke-width: 3; stroke-linecap: round"/>
   </g>
   <g id="line2d_45">
    <path d="M 183.629594 263.844563 
L 183.99419 360.772733 
L 184.358785 366.065687 
L 184.723381 367.410658 
L 185.087976 367.77004 
L 185.817167 367.841513 
L 189.098526 367.452715 
L 189.827716 366.045574 
L 194.202861 356.854069 
L 197.848816 349.770904 
L 201.49477 343.185678 
L 205.140724 337.064429 
L 208.786678 331.377471 
L 212.432633 326.086456 
L 216.078587 321.161812 
L 219.724541 316.579392 
L 223.735091 311.905461 
L 227.74564 307.586614 
L 231.75619 303.595801 
L 235.76674 299.909974 
L 239.777289 296.51147 
L 244.152434 293.100189 
L 248.527579 289.979297 
L 252.902725 287.121915 
L 257.642465 284.305681 
L 262.382205 281.7521 
L 267.486541 279.264484 
L 272.590877 277.029688 
L 278.059809 274.883245 
L 283.164145 273.109448 
L 288.997671 271.321943 
L 295.195794 269.674374 
L 302.123107 268.072378 
L 309.415015 266.617279 
L 317.071519 265.311617 
L 322.54045 264.558927 
L 330.196954 263.79982 
L 336.030481 263.418568 
L 342.228603 263.272301 
L 449.419657 263.256015 
L 449.419657 263.256015 
" clip-path="url(#pff1813b5ac)" style="fill: none; stroke: #55a868; stroke-opacity: 0.9; stroke-width: 3; stroke-linecap: round"/>
   </g>
   <g id="line2d_46">
    <path d="M 183.629594 263.844563 
L 183.99419 340.022071 
L 184.358785 344.272343 
L 184.723381 345.333372 
L 185.087976 345.610566 
L 185.817167 345.664038 
L 189.098526 345.363056 
L 189.827716 344.266664 
L 194.567457 336.469693 
L 198.213411 330.942466 
L 201.859365 325.802988 
L 205.50532 321.021823 
L 209.515869 316.146207 
L 213.526419 311.642072 
L 217.536969 307.480977 
L 221.547518 303.636889 
L 225.558068 300.085844 
L 229.933213 296.519698 
L 234.308358 293.249377 
L 238.683503 290.252206 
L 243.423244 287.288983 
L 248.162984 284.594192 
L 252.902725 282.151075 
L 258.00706 279.774855 
L 263.111396 277.637808 
L 268.580328 275.589093 
L 274.413854 273.649804 
L 280.611977 271.840178 
L 286.810099 270.268047 
L 293.372816 268.826944 
L 301.02932 267.399513 
L 309.05042 266.131756 
L 317.80071 264.972153 
L 324.363427 264.31124 
L 332.384527 263.752034 
L 340.04103 263.512057 
L 353.895657 263.45269 
L 393.271962 263.337041 
L 437.752604 263.367861 
L 449.419657 263.356276 
L 449.419657 263.356276 
" clip-path="url(#pff1813b5ac)" style="fill: none; stroke: #c44e52; stroke-opacity: 0.9; stroke-width: 3; stroke-linecap: round"/>
   </g>
   <g id="line2d_47">
    <path d="M 183.629594 263.844563 
L 183.99419 352.645874 
L 184.358785 356.574532 
L 184.723381 357.23877 
L 185.087976 357.350717 
L 186.546358 357.23955 
L 189.098526 356.967432 
L 190.556907 354.203786 
L 194.202861 347.389049 
L 197.848816 341.055353 
L 201.49477 335.167014 
L 205.140724 329.691453 
L 208.786678 324.598362 
L 212.432633 319.860489 
L 216.443182 315.02905 
L 220.453732 310.565866 
L 224.464282 306.441838 
L 228.474831 302.630558 
L 232.485381 299.107637 
L 236.860526 295.567244 
L 241.235671 292.317564 
L 245.610816 289.33486 
L 250.350557 286.379029 
L 255.090297 283.685134 
L 260.194633 281.049167 
L 265.298969 278.671553 
L 270.7679 276.377145 
L 276.236832 274.317066 
L 282.070358 272.354522 
L 287.53929 270.746111 
L 294.102007 269.036454 
L 301.02932 267.457705 
L 308.685824 265.950076 
L 316.342328 264.666649 
L 322.54045 263.881816 
L 329.103168 263.237904 
L 339.31184 262.578766 
L 349.885107 262.13182 
L 362.281351 261.781974 
L 369.937855 261.744802 
L 382.334099 262.169611 
L 401.293061 262.534582 
L 430.0961 262.830332 
L 449.419657 262.867803 
L 449.419657 262.867803 
" clip-path="url(#pff1813b5ac)" style="fill: none; stroke: #8172b3; stroke-opacity: 0.9; stroke-width: 3; stroke-linecap: round"/>
   </g>
   <g id="line2d_48">
    <path d="M 183.629594 263.844563 
L 183.99419 335.099885 
L 184.358785 337.782976 
L 184.723381 338.289593 
L 185.452571 338.371329 
L 189.098526 338.081523 
L 190.556907 335.883603 
L 194.202861 330.463704 
L 197.848816 325.426956 
L 201.49477 320.74546 
L 205.50532 315.975388 
L 209.515869 311.5726 
L 213.526419 307.508443 
L 217.536969 303.75558 
L 221.547518 300.289674 
L 225.922663 296.809632 
L 230.297808 293.617815 
L 234.672953 290.690324 
L 239.412694 287.79075 
L 244.152434 285.149105 
L 249.25677 282.566381 
L 254.361106 280.23474 
L 259.830038 277.985926 
L 265.663564 275.839534 
L 271.497091 273.926182 
L 277.695213 272.120076 
L 283.893335 270.538308 
L 290.820648 269.001503 
L 298.477152 267.536028 
L 306.862847 266.170079 
L 315.613137 264.977125 
L 323.269641 264.159012 
L 332.749122 263.552064 
L 347.697534 262.874759 
L 360.093779 262.534127 
L 369.937855 262.5066 
L 400.563871 262.850623 
L 449.419657 263.015411 
L 449.419657 263.015411 
" clip-path="url(#pff1813b5ac)" style="fill: none; stroke: #937860; stroke-opacity: 0.9; stroke-width: 3; stroke-linecap: round"/>
   </g>
   <g id="patch_12">
    <path d="M 170.340091 373.284 
L 170.340091 253.698 
" style="fill: none; stroke: #ffffff; stroke-width: 1.25; stroke-linejoin: miter; stroke-linecap: square"/>
   </g>
   <g id="patch_13">
    <path d="M 170.340091 373.284 
L 462.70916 373.284 
" style="fill: none; stroke: #ffffff; stroke-width: 1.25; stroke-linejoin: miter; stroke-linecap: square"/>
   </g>
   <g id="text_15">
    <!-- 0.85~365 -->
    <g style="fill: #262626" transform="translate(253.861282 247.698) scale(0.252 -0.252)">
     <use xlink:href="#DejaVuSans-30"/>
     <use xlink:href="#DejaVuSans-2e" x="63.623047"/>
     <use xlink:href="#DejaVuSans-38" x="95.410156"/>
     <use xlink:href="#DejaVuSans-35" x="159.033203"/>
     <use xlink:href="#DejaVuSans-7e" x="222.65625"/>
     <use xlink:href="#DejaVuSans-33" x="306.445312"/>
     <use xlink:href="#DejaVuSans-36" x="370.068359"/>
     <use xlink:href="#DejaVuSans-35" x="433.691406"/>
    </g>
   </g>
  </g>
  <g id="axes_5">
   <g id="patch_14">
    <path d="M 489.290298 373.284 
L 781.659367 373.284 
L 781.659367 253.698 
L 489.290298 253.698 
z
" style="fill: #eaeaf2"/>
   </g>
   <g id="matplotlib.axis_9">
    <g id="xtick_17">
     <g id="line2d_49">
      <path d="M 502.579801 373.284 
L 502.579801 253.698 
" clip-path="url(#p6a472417d4)" style="fill: none; stroke: #ffffff; stroke-linecap: round"/>
     </g>
     <g id="text_16">
      <!-- 0 -->
      <g style="fill: #262626" transform="translate(495.231113 400.336391) scale(0.231 -0.231)">
       <use xlink:href="#DejaVuSans-30"/>
      </g>
     </g>
    </g>
    <g id="xtick_18">
     <g id="line2d_50">
      <path d="M 593.728656 373.284 
L 593.728656 253.698 
" clip-path="url(#p6a472417d4)" style="fill: none; stroke: #ffffff; stroke-linecap: round"/>
     </g>
     <g id="text_17">
      <!-- 250 -->
      <g style="fill: #262626" transform="translate(571.682594 400.336391) scale(0.231 -0.231)">
       <use xlink:href="#DejaVuSans-32"/>
       <use xlink:href="#DejaVuSans-35" x="63.623047"/>
       <use xlink:href="#DejaVuSans-30" x="127.246094"/>
      </g>
     </g>
    </g>
    <g id="xtick_19">
     <g id="line2d_51">
      <path d="M 684.877512 373.284 
L 684.877512 253.698 
" clip-path="url(#p6a472417d4)" style="fill: none; stroke: #ffffff; stroke-linecap: round"/>
     </g>
     <g id="text_18">
      <!-- 500 -->
      <g style="fill: #262626" transform="translate(662.83145 400.336391) scale(0.231 -0.231)">
       <use xlink:href="#DejaVuSans-35"/>
       <use xlink:href="#DejaVuSans-30" x="63.623047"/>
       <use xlink:href="#DejaVuSans-30" x="127.246094"/>
      </g>
     </g>
    </g>
    <g id="xtick_20">
     <g id="line2d_52">
      <path d="M 776.026368 373.284 
L 776.026368 253.698 
" clip-path="url(#p6a472417d4)" style="fill: none; stroke: #ffffff; stroke-linecap: round"/>
     </g>
     <g id="text_19">
      <!-- 750 -->
      <g style="fill: #262626" transform="translate(753.980305 400.336391) scale(0.231 -0.231)">
       <use xlink:href="#DejaVuSans-37"/>
       <use xlink:href="#DejaVuSans-35" x="63.623047"/>
       <use xlink:href="#DejaVuSans-30" x="127.246094"/>
      </g>
     </g>
    </g>
    <g id="text_20">
     <!-- step -->
     <g style="fill: #262626" transform="translate(608.219457 428.288531) scale(0.252 -0.252)">
      <use xlink:href="#DejaVuSans-73"/>
      <use xlink:href="#DejaVuSans-74" x="52.099609"/>
      <use xlink:href="#DejaVuSans-65" x="91.308594"/>
      <use xlink:href="#DejaVuSans-70" x="152.832031"/>
     </g>
    </g>
   </g>
   <g id="matplotlib.axis_10">
    <g id="ytick_9">
     <g id="line2d_53">
      <path d="M 489.290298 355.204734 
L 781.659367 355.204734 
" clip-path="url(#p6a472417d4)" style="fill: none; stroke: #ffffff; stroke-linecap: round"/>
     </g>
    </g>
    <g id="ytick_10">
     <g id="line2d_54">
      <path d="M 489.290298 263.844563 
L 781.659367 263.844563 
" clip-path="url(#p6a472417d4)" style="fill: none; stroke: #ffffff; stroke-linecap: round"/>
     </g>
    </g>
   </g>
   <g id="PolyCollection_25"/>
   <g id="PolyCollection_26"/>
   <g id="PolyCollection_27"/>
   <g id="PolyCollection_28"/>
   <g id="PolyCollection_29"/>
   <g id="PolyCollection_30"/>
   <g id="line2d_55">
    <path d="M 502.579801 263.844563 
L 502.944396 356.339651 
L 503.308992 359.525677 
L 503.673587 360.287186 
L 504.038182 360.381841 
L 504.767373 360.145097 
L 508.048732 358.679633 
L 509.142518 356.28827 
L 512.788473 348.028489 
L 516.434427 340.367474 
L 520.080381 333.256296 
L 523.726335 326.676063 
L 527.372289 320.583479 
L 531.018244 314.922467 
L 534.664198 309.664353 
L 537.945557 305.297804 
L 541.591511 300.916237 
L 545.602061 296.455709 
L 548.883419 293.109251 
L 552.893969 289.351662 
L 556.904519 285.891421 
L 560.915068 282.706247 
L 565.290213 279.521822 
L 569.665358 276.617797 
L 574.040504 273.971362 
L 578.780244 271.369048 
L 583.519985 269.018578 
L 586.436748 267.771336 
L 588.62432 267.062767 
L 593.728656 265.608608 
L 600.291374 263.970828 
L 602.843542 263.44377 
L 613.416809 262.697796 
L 622.89629 262.186266 
L 634.927939 261.949419 
L 662.272596 261.290198 
L 682.689939 261.069278 
L 694.356993 261.203491 
L 759.619574 261.107334 
L 768.369864 261.09143 
L 768.369864 261.09143 
" clip-path="url(#p6a472417d4)" style="fill: none; stroke: #4c72b0; stroke-opacity: 0.9; stroke-width: 3; stroke-linecap: round"/>
   </g>
   <g id="line2d_56">
    <path d="M 502.579801 263.844563 
L 502.944396 314.291904 
L 503.308992 316.399801 
L 503.673587 317.091037 
L 504.038182 317.295878 
L 504.767373 317.28265 
L 508.048732 316.596524 
L 508.777923 315.818211 
L 514.61145 308.789177 
L 518.621999 304.409334 
L 522.632549 300.370649 
L 526.643099 296.642522 
L 530.653648 293.211173 
L 535.028793 289.777691 
L 539.403938 286.641107 
L 543.779084 283.779445 
L 547.789633 281.401733 
L 552.529374 278.91993 
L 556.904519 276.888486 
L 562.37345 274.604848 
L 567.842381 272.562337 
L 573.675908 270.623971 
L 579.87403 268.806737 
L 586.436748 267.124484 
L 589.718107 266.470143 
L 597.010015 265.342876 
L 604.301924 264.395999 
L 619.250336 263.576323 
L 631.64658 263.042051 
L 640.032275 262.822718 
L 652.428519 262.64735 
L 657.897451 262.660177 
L 680.137772 262.316499 
L 703.836474 262.11821 
L 742.483589 262.081962 
L 768.369864 262.095853 
L 768.369864 262.095853 
" clip-path="url(#p6a472417d4)" style="fill: none; stroke: #dd8452; stroke-opacity: 0.9; stroke-width: 3; stroke-linecap: round"/>
   </g>
   <g id="line2d_57">
    <path d="M 502.579801 263.844563 
L 502.944396 360.772733 
L 503.308992 365.959521 
L 503.673587 367.180554 
L 504.038182 367.411412 
L 504.767373 367.223722 
L 508.048732 365.681525 
L 509.142518 363.108034 
L 512.788473 354.233255 
L 516.434427 345.9946 
L 519.715786 339.10046 
L 523.36174 331.967103 
L 527.007694 325.347272 
L 529.924457 320.446575 
L 532.841221 315.990905 
L 535.757984 311.914892 
L 539.768534 306.868426 
L 542.685297 303.55474 
L 548.154229 297.988588 
L 553.62316 292.73036 
L 557.998305 288.790644 
L 562.008855 285.445239 
L 566.384 282.211958 
L 571.12374 278.988556 
L 576.228076 275.784648 
L 581.697007 272.621828 
L 586.072153 270.300981 
L 590.447298 268.37568 
L 594.457847 266.8168 
L 598.468397 265.460832 
L 602.114351 264.415641 
L 605.031114 263.73205 
L 615.968977 261.88877 
L 619.614931 261.579672 
L 626.542244 261.235017 
L 636.386321 261.229715 
L 659.720428 261.347239 
L 679.043985 261.415788 
L 768.369864 261.288572 
L 768.369864 261.288572 
" clip-path="url(#p6a472417d4)" style="fill: none; stroke: #55a868; stroke-opacity: 0.9; stroke-width: 3; stroke-linecap: round"/>
   </g>
   <g id="line2d_58">
    <path d="M 502.579801 263.844563 
L 502.944396 340.022071 
L 503.308992 344.1883 
L 503.673587 345.150786 
L 504.038182 345.325811 
L 504.767373 345.173022 
L 508.048732 343.95251 
L 509.142518 341.935929 
L 512.788473 334.949896 
L 516.434427 328.463353 
L 520.080381 322.445007 
L 523.726335 316.853476 
L 527.007694 312.173809 
L 529.924457 308.475032 
L 533.935007 303.704052 
L 537.216366 300.083255 
L 541.226916 296.179184 
L 543.779084 293.949478 
L 549.977206 288.955774 
L 555.446137 284.824756 
L 560.185878 281.485729 
L 564.196427 279.004952 
L 568.936168 276.32599 
L 574.405099 273.485414 
L 580.238626 270.702062 
L 585.707557 268.329748 
L 588.988916 267.127058 
L 593.364061 265.719714 
L 598.103801 264.438812 
L 601.38516 263.786248 
L 605.031114 263.2473 
L 609.40626 262.830862 
L 617.062763 262.281091 
L 622.167099 262.15748 
L 634.198748 262.054944 
L 658.991237 261.954511 
L 768.369864 261.710145 
L 768.369864 261.710145 
" clip-path="url(#p6a472417d4)" style="fill: none; stroke: #c44e52; stroke-opacity: 0.9; stroke-width: 3; stroke-linecap: round"/>
   </g>
   <g id="line2d_59">
    <path d="M 502.579801 263.844563 
L 502.944396 352.645874 
L 503.308992 356.465378 
L 503.673587 357.012716 
L 504.038182 357.006615 
L 505.496564 356.424472 
L 508.048732 355.337963 
L 509.507114 352.118772 
L 512.788473 344.999701 
L 516.434427 337.638965 
L 520.080381 330.8094 
L 523.726335 324.468842 
L 527.372289 318.581099 
L 531.018244 313.112279 
L 534.664198 308.034935 
L 538.310152 303.316476 
L 542.320702 298.508143 
L 546.331251 294.094037 
L 550.341801 290.019477 
L 554.352351 286.257448 
L 557.63371 283.445776 
L 562.008855 280.009498 
L 566.384 276.860964 
L 570.759145 273.97612 
L 575.498885 271.12597 
L 580.238626 268.538598 
L 583.88458 266.773068 
L 586.801343 265.588731 
L 591.176488 264.007508 
L 594.822443 262.980377 
L 600.655969 261.602808 
L 606.124901 260.581927 
L 613.781405 259.46155 
L 617.062763 259.133727 
L 641.855252 259.605692 
L 650.605542 259.88447 
L 655.709878 260.091447 
L 662.637191 260.382313 
L 679.408581 260.682486 
L 695.815375 260.91414 
L 706.024047 261.074271 
L 728.628963 261.179826 
L 768.369864 261.171443 
L 768.369864 261.171443 
" clip-path="url(#p6a472417d4)" style="fill: none; stroke: #8172b3; stroke-opacity: 0.9; stroke-width: 3; stroke-linecap: round"/>
   </g>
   <g id="line2d_60">
    <path d="M 502.579801 263.844563 
L 502.944396 335.099885 
L 503.308992 337.699311 
L 503.673587 338.116578 
L 504.402778 338.017802 
L 508.048732 336.837102 
L 509.871709 333.644593 
L 513.517663 327.460514 
L 517.163618 321.728495 
L 520.809572 316.41399 
L 524.455526 311.484545 
L 528.10148 306.908145 
L 531.747435 302.65833 
L 535.393389 298.717707 
L 539.403938 294.717865 
L 543.414488 291.030139 
L 547.425038 287.629182 
L 551.800183 284.219756 
L 555.810732 281.380104 
L 560.185878 278.560107 
L 564.925618 275.779461 
L 569.665358 273.262492 
L 574.769694 270.807816 
L 579.87403 268.594775 
L 584.613771 266.771391 
L 588.259725 265.58619 
L 592.999466 264.460087 
L 597.739206 263.506539 
L 605.39571 262.197569 
L 611.958428 261.304418 
L 617.427359 260.796097 
L 625.813054 260.673463 
L 640.761466 260.692327 
L 667.741527 260.787709 
L 676.127222 261.135106 
L 693.263207 261.217392 
L 707.117833 261.342054 
L 730.45194 261.462212 
L 768.369864 261.452447 
L 768.369864 261.452447 
" clip-path="url(#p6a472417d4)" style="fill: none; stroke: #937860; stroke-opacity: 0.9; stroke-width: 3; stroke-linecap: round"/>
   </g>
   <g id="patch_15">
    <path d="M 489.290298 373.284 
L 489.290298 253.698 
" style="fill: none; stroke: #ffffff; stroke-width: 1.25; stroke-linejoin: miter; stroke-linecap: square"/>
   </g>
   <g id="patch_16">
    <path d="M 489.290298 373.284 
L 781.659367 373.284 
" style="fill: none; stroke: #ffffff; stroke-width: 1.25; stroke-linejoin: miter; stroke-linecap: square"/>
   </g>
   <g id="text_21">
    <!-- 0.95~90 -->
    <g style="fill: #262626" transform="translate(580.828239 247.698) scale(0.252 -0.252)">
     <use xlink:href="#DejaVuSans-30"/>
     <use xlink:href="#DejaVuSans-2e" x="63.623047"/>
     <use xlink:href="#DejaVuSans-39" x="95.410156"/>
     <use xlink:href="#DejaVuSans-35" x="159.033203"/>
     <use xlink:href="#DejaVuSans-7e" x="222.65625"/>
     <use xlink:href="#DejaVuSans-39" x="306.445312"/>
     <use xlink:href="#DejaVuSans-30" x="370.068359"/>
    </g>
   </g>
  </g>
  <g id="axes_6">
   <g id="patch_17">
    <path d="M 808.240504 373.284 
L 1100.609573 373.284 
L 1100.609573 253.698 
L 808.240504 253.698 
z
" style="fill: #eaeaf2"/>
   </g>
   <g id="matplotlib.axis_11">
    <g id="xtick_21">
     <g id="line2d_61">
      <path d="M 821.530007 373.284 
L 821.530007 253.698 
" clip-path="url(#p58841e867f)" style="fill: none; stroke: #ffffff; stroke-linecap: round"/>
     </g>
     <g id="text_22">
      <!-- 0 -->
      <g style="fill: #262626" transform="translate(814.18132 400.336391) scale(0.231 -0.231)">
       <use xlink:href="#DejaVuSans-30"/>
      </g>
     </g>
    </g>
    <g id="xtick_22">
     <g id="line2d_62">
      <path d="M 912.678863 373.284 
L 912.678863 253.698 
" clip-path="url(#p58841e867f)" style="fill: none; stroke: #ffffff; stroke-linecap: round"/>
     </g>
     <g id="text_23">
      <!-- 250 -->
      <g style="fill: #262626" transform="translate(890.6328 400.336391) scale(0.231 -0.231)">
       <use xlink:href="#DejaVuSans-32"/>
       <use xlink:href="#DejaVuSans-35" x="63.623047"/>
       <use xlink:href="#DejaVuSans-30" x="127.246094"/>
      </g>
     </g>
    </g>
    <g id="xtick_23">
     <g id="line2d_63">
      <path d="M 1003.827719 373.284 
L 1003.827719 253.698 
" clip-path="url(#p58841e867f)" style="fill: none; stroke: #ffffff; stroke-linecap: round"/>
     </g>
     <g id="text_24">
      <!-- 500 -->
      <g style="fill: #262626" transform="translate(981.781656 400.336391) scale(0.231 -0.231)">
       <use xlink:href="#DejaVuSans-35"/>
       <use xlink:href="#DejaVuSans-30" x="63.623047"/>
       <use xlink:href="#DejaVuSans-30" x="127.246094"/>
      </g>
     </g>
    </g>
    <g id="xtick_24">
     <g id="line2d_64">
      <path d="M 1094.976574 373.284 
L 1094.976574 253.698 
" clip-path="url(#p58841e867f)" style="fill: none; stroke: #ffffff; stroke-linecap: round"/>
     </g>
     <g id="text_25">
      <!-- 750 -->
      <g style="fill: #262626" transform="translate(1072.930512 400.336391) scale(0.231 -0.231)">
       <use xlink:href="#DejaVuSans-37"/>
       <use xlink:href="#DejaVuSans-35" x="63.623047"/>
       <use xlink:href="#DejaVuSans-30" x="127.246094"/>
      </g>
     </g>
    </g>
    <g id="text_26">
     <!-- step -->
     <g style="fill: #262626" transform="translate(927.169664 428.288531) scale(0.252 -0.252)">
      <use xlink:href="#DejaVuSans-73"/>
      <use xlink:href="#DejaVuSans-74" x="52.099609"/>
      <use xlink:href="#DejaVuSans-65" x="91.308594"/>
      <use xlink:href="#DejaVuSans-70" x="152.832031"/>
     </g>
    </g>
   </g>
   <g id="matplotlib.axis_12">
    <g id="ytick_11">
     <g id="line2d_65">
      <path d="M 808.240504 355.204734 
L 1100.609573 355.204734 
" clip-path="url(#p58841e867f)" style="fill: none; stroke: #ffffff; stroke-linecap: round"/>
     </g>
    </g>
    <g id="ytick_12">
     <g id="line2d_66">
      <path d="M 808.240504 263.844563 
L 1100.609573 263.844563 
" clip-path="url(#p58841e867f)" style="fill: none; stroke: #ffffff; stroke-linecap: round"/>
     </g>
    </g>
   </g>
   <g id="PolyCollection_31"/>
   <g id="PolyCollection_32"/>
   <g id="PolyCollection_33"/>
   <g id="PolyCollection_34"/>
   <g id="PolyCollection_35"/>
   <g id="PolyCollection_36"/>
   <g id="line2d_67">
    <path d="M 821.530007 263.844563 
L 821.894603 356.339651 
L 822.259198 359.628042 
L 822.623794 360.508261 
L 822.988389 360.725827 
L 823.71758 360.736736 
L 826.998939 360.374454 
L 827.728129 359.074569 
L 832.103275 350.530719 
L 835.749229 343.949297 
L 839.395183 337.829161 
L 843.041137 332.135917 
L 846.687091 326.839256 
L 850.333046 321.911346 
L 853.979 317.326473 
L 857.98955 312.650577 
L 862.000099 308.331033 
L 866.010649 304.350019 
L 870.021198 300.672597 
L 874.031748 297.276353 
L 878.406893 293.873748 
L 882.782038 290.753613 
L 887.157183 287.892264 
L 891.896924 285.060077 
L 896.272069 282.690448 
L 901.376405 280.235991 
L 906.480741 278.031987 
L 911.949672 275.934485 
L 917.783199 273.936727 
L 923.981321 272.056052 
L 930.544039 270.305696 
L 937.471352 268.694329 
L 944.76326 267.226387 
L 952.784359 265.845798 
L 958.982482 264.971505 
L 964.086817 264.493336 
L 975.389276 263.634257 
L 983.77497 263.175293 
L 1016.588558 263.328125 
L 1074.55923 263.11069 
L 1087.32007 263.074412 
L 1087.32007 263.074412 
" clip-path="url(#p58841e867f)" style="fill: none; stroke: #4c72b0; stroke-opacity: 0.9; stroke-width: 3; stroke-linecap: round"/>
   </g>
   <g id="line2d_68">
    <path d="M 821.530007 263.844563 
L 821.894603 314.291904 
L 822.259198 316.44711 
L 822.623794 317.193787 
L 822.988389 317.456866 
L 823.71758 317.562224 
L 826.634343 317.426514 
L 826.998939 317.406477 
L 827.728129 316.744796 
L 834.290847 309.842731 
L 838.301397 306.035661 
L 842.311946 302.520118 
L 846.687091 298.99066 
L 851.062237 295.755699 
L 855.437382 292.78945 
L 860.177122 289.853658 
L 864.916863 287.180764 
L 870.021198 284.56938 
L 875.125534 282.208891 
L 880.594466 279.934785 
L 886.427992 277.768947 
L 892.261519 275.839001 
L 898.459641 274.021838 
L 905.022359 272.330461 
L 911.220481 270.950666 
L 917.783199 269.720589 
L 926.168894 268.371573 
L 935.283779 267.14199 
L 945.127856 266.045099 
L 956.065718 265.0581 
L 963.722222 264.547436 
L 978.306039 263.924772 
L 988.514711 263.670986 
L 1087.32007 263.398295 
L 1087.32007 263.398295 
" clip-path="url(#p58841e867f)" style="fill: none; stroke: #dd8452; stroke-opacity: 0.9; stroke-width: 3; stroke-linecap: round"/>
   </g>
   <g id="line2d_69">
    <path d="M 821.530007 263.844563 
L 821.894603 360.772733 
L 822.259198 366.065687 
L 822.623794 367.410658 
L 822.988389 367.77004 
L 823.71758 367.841513 
L 826.998939 367.452715 
L 827.728129 366.045574 
L 832.103275 356.854069 
L 835.749229 349.770904 
L 839.395183 343.185678 
L 843.041137 337.064429 
L 846.687091 331.377471 
L 849.239259 327.721477 
L 852.520618 323.376464 
L 856.166572 318.982337 
L 859.083336 315.928225 
L 863.093885 312.149641 
L 867.104435 308.617194 
L 873.667153 303.246987 
L 879.865275 298.457406 
L 885.698802 294.227822 
L 888.25097 292.562379 
L 893.355306 289.49011 
L 898.824237 286.473144 
L 904.657764 283.525108 
L 910.855886 280.65096 
L 917.783199 277.693895 
L 924.710512 274.971626 
L 932.00242 272.351067 
L 940.02352 269.725567 
L 946.950833 267.682641 
L 954.242741 265.754493 
L 958.253291 264.899432 
L 964.086817 263.999366 
L 972.107917 263.226754 
L 977.212253 263.007677 
L 982.681184 262.978778 
L 1087.32007 263.145993 
L 1087.32007 263.145993 
" clip-path="url(#p58841e867f)" style="fill: none; stroke: #55a868; stroke-opacity: 0.9; stroke-width: 3; stroke-linecap: round"/>
   </g>
   <g id="line2d_70">
    <path d="M 821.530007 263.844563 
L 821.894603 340.022071 
L 822.259198 344.272343 
L 822.623794 345.333372 
L 822.988389 345.610566 
L 823.71758 345.664038 
L 826.998939 345.363056 
L 827.728129 344.266664 
L 832.46787 336.469693 
L 836.113824 330.942466 
L 839.759778 325.802988 
L 843.405733 321.021823 
L 846.687091 317.055858 
L 849.603855 313.913051 
L 853.979 309.500229 
L 858.354145 305.44366 
L 861.270908 303.121772 
L 866.73984 299.205719 
L 874.396344 294.151473 
L 880.22987 290.536218 
L 885.698802 287.378735 
L 891.167733 284.60819 
L 897.00126 281.91236 
L 903.199382 279.302778 
L 910.126695 276.626118 
L 917.418603 274.051145 
L 925.075107 271.614809 
L 932.367016 269.51944 
L 938.565138 267.939802 
L 944.398665 266.63885 
L 949.867596 265.664207 
L 956.430314 264.722791 
L 961.170054 264.24075 
L 970.28494 263.596221 
L 976.847657 263.372453 
L 985.233352 263.331871 
L 1087.32007 263.291775 
L 1087.32007 263.291775 
" clip-path="url(#p58841e867f)" style="fill: none; stroke: #c44e52; stroke-opacity: 0.9; stroke-width: 3; stroke-linecap: round"/>
   </g>
   <g id="line2d_71">
    <path d="M 821.530007 263.844563 
L 821.894603 352.645874 
L 822.259198 356.574532 
L 822.623794 357.23877 
L 822.988389 357.350717 
L 824.446771 357.23955 
L 826.998939 356.967432 
L 828.45732 354.203786 
L 832.103275 347.389049 
L 835.749229 341.055353 
L 839.395183 335.167014 
L 843.041137 329.691453 
L 846.687091 324.598362 
L 850.333046 319.860489 
L 854.343595 315.02905 
L 858.354145 310.565866 
L 862.364695 306.441838 
L 866.375244 302.630558 
L 870.385794 299.107637 
L 874.760939 295.567244 
L 879.136084 292.317564 
L 883.511229 289.33486 
L 888.25097 286.379029 
L 892.99071 283.685134 
L 898.095046 281.049167 
L 903.199382 278.671553 
L 908.668313 276.377145 
L 914.137245 274.317066 
L 919.970771 272.354522 
L 925.439703 270.746111 
L 932.00242 269.036454 
L 938.929733 267.457705 
L 946.586237 265.950076 
L 954.242741 264.666649 
L 960.440863 263.881816 
L 967.003581 263.237904 
L 977.212253 262.578766 
L 987.78552 262.13182 
L 1000.181764 261.781974 
L 1007.838268 261.744802 
L 1020.234513 262.169611 
L 1039.193475 262.534582 
L 1067.996513 262.830332 
L 1087.32007 262.867803 
L 1087.32007 262.867803 
" clip-path="url(#p58841e867f)" style="fill: none; stroke: #8172b3; stroke-opacity: 0.9; stroke-width: 3; stroke-linecap: round"/>
   </g>
   <g id="line2d_72">
    <path d="M 821.530007 263.844563 
L 821.894603 335.099885 
L 822.259198 337.782976 
L 822.623794 338.289593 
L 823.352984 338.371329 
L 826.998939 338.081523 
L 828.45732 335.883603 
L 832.103275 330.463704 
L 835.749229 325.426956 
L 839.395183 320.74546 
L 843.405733 315.975388 
L 847.416282 311.5726 
L 851.426832 307.508443 
L 855.437382 303.75558 
L 859.447931 300.289674 
L 863.823076 296.809632 
L 868.198221 293.617815 
L 872.573366 290.690324 
L 877.313107 287.79075 
L 882.052847 285.149105 
L 887.157183 282.566381 
L 892.261519 280.23474 
L 897.730451 277.985926 
L 903.563977 275.839534 
L 909.397504 273.926182 
L 915.595626 272.120076 
L 921.793748 270.538308 
L 928.721062 269.001503 
L 936.377565 267.536028 
L 944.76326 266.170079 
L 953.51355 264.977125 
L 961.170054 264.159012 
L 970.649535 263.552064 
L 985.597947 262.874759 
L 997.994192 262.534127 
L 1007.838268 262.5066 
L 1038.464284 262.850623 
L 1087.32007 263.015411 
L 1087.32007 263.015411 
" clip-path="url(#p58841e867f)" style="fill: none; stroke: #937860; stroke-opacity: 0.9; stroke-width: 3; stroke-linecap: round"/>
   </g>
   <g id="patch_18">
    <path d="M 808.240504 373.284 
L 808.240504 253.698 
" style="fill: none; stroke: #ffffff; stroke-width: 1.25; stroke-linejoin: miter; stroke-linecap: square"/>
   </g>
   <g id="patch_19">
    <path d="M 808.240504 373.284 
L 1100.609573 373.284 
" style="fill: none; stroke: #ffffff; stroke-width: 1.25; stroke-linejoin: miter; stroke-linecap: square"/>
   </g>
   <g id="text_27">
    <!-- 0.95~365 -->
    <g style="fill: #262626" transform="translate(891.761695 247.698) scale(0.252 -0.252)">
     <use xlink:href="#DejaVuSans-30"/>
     <use xlink:href="#DejaVuSans-2e" x="63.623047"/>
     <use xlink:href="#DejaVuSans-39" x="95.410156"/>
     <use xlink:href="#DejaVuSans-35" x="159.033203"/>
     <use xlink:href="#DejaVuSans-7e" x="222.65625"/>
     <use xlink:href="#DejaVuSans-33" x="306.445312"/>
     <use xlink:href="#DejaVuSans-36" x="370.068359"/>
     <use xlink:href="#DejaVuSans-35" x="433.691406"/>
    </g>
   </g>
  </g>
  <g id="text_28">
   <!-- Production change from pre-shock level -->
   <g style="fill: #262626" transform="translate(280.766836 30.177675) scale(0.3024 -0.3024)">
    <defs>
     <path id="DejaVuSans-50" d="M 1259 4147 
L 1259 2394 
L 2053 2394 
Q 2494 2394 2734 2622 
Q 2975 2850 2975 3272 
Q 2975 3691 2734 3919 
Q 2494 4147 2053 4147 
L 1259 4147 
z
M 628 4666 
L 2053 4666 
Q 2838 4666 3239 4311 
Q 3641 3956 3641 3272 
Q 3641 2581 3239 2228 
Q 2838 1875 2053 1875 
L 1259 1875 
L 1259 0 
L 628 0 
L 628 4666 
z
" transform="scale(0.015625)"/>
     <path id="DejaVuSans-72" d="M 2631 2963 
Q 2534 3019 2420 3045 
Q 2306 3072 2169 3072 
Q 1681 3072 1420 2755 
Q 1159 2438 1159 1844 
L 1159 0 
L 581 0 
L 581 3500 
L 1159 3500 
L 1159 2956 
Q 1341 3275 1631 3429 
Q 1922 3584 2338 3584 
Q 2397 3584 2469 3576 
Q 2541 3569 2628 3553 
L 2631 2963 
z
" transform="scale(0.015625)"/>
     <path id="DejaVuSans-6f" d="M 1959 3097 
Q 1497 3097 1228 2736 
Q 959 2375 959 1747 
Q 959 1119 1226 758 
Q 1494 397 1959 397 
Q 2419 397 2687 759 
Q 2956 1122 2956 1747 
Q 2956 2369 2687 2733 
Q 2419 3097 1959 3097 
z
M 1959 3584 
Q 2709 3584 3137 3096 
Q 3566 2609 3566 1747 
Q 3566 888 3137 398 
Q 2709 -91 1959 -91 
Q 1206 -91 779 398 
Q 353 888 353 1747 
Q 353 2609 779 3096 
Q 1206 3584 1959 3584 
z
" transform="scale(0.015625)"/>
     <path id="DejaVuSans-64" d="M 2906 2969 
L 2906 4863 
L 3481 4863 
L 3481 0 
L 2906 0 
L 2906 525 
Q 2725 213 2448 61 
Q 2172 -91 1784 -91 
Q 1150 -91 751 415 
Q 353 922 353 1747 
Q 353 2572 751 3078 
Q 1150 3584 1784 3584 
Q 2172 3584 2448 3432 
Q 2725 3281 2906 2969 
z
M 947 1747 
Q 947 1113 1208 752 
Q 1469 391 1925 391 
Q 2381 391 2643 752 
Q 2906 1113 2906 1747 
Q 2906 2381 2643 2742 
Q 2381 3103 1925 3103 
Q 1469 3103 1208 2742 
Q 947 2381 947 1747 
z
" transform="scale(0.015625)"/>
     <path id="DejaVuSans-75" d="M 544 1381 
L 544 3500 
L 1119 3500 
L 1119 1403 
Q 1119 906 1312 657 
Q 1506 409 1894 409 
Q 2359 409 2629 706 
Q 2900 1003 2900 1516 
L 2900 3500 
L 3475 3500 
L 3475 0 
L 2900 0 
L 2900 538 
Q 2691 219 2414 64 
Q 2138 -91 1772 -91 
Q 1169 -91 856 284 
Q 544 659 544 1381 
z
M 1991 3584 
L 1991 3584 
z
" transform="scale(0.015625)"/>
     <path id="DejaVuSans-69" d="M 603 3500 
L 1178 3500 
L 1178 0 
L 603 0 
L 603 3500 
z
M 603 4863 
L 1178 4863 
L 1178 4134 
L 603 4134 
L 603 4863 
z
" transform="scale(0.015625)"/>
     <path id="DejaVuSans-66" d="M 2375 4863 
L 2375 4384 
L 1825 4384 
Q 1516 4384 1395 4259 
Q 1275 4134 1275 3809 
L 1275 3500 
L 2222 3500 
L 2222 3053 
L 1275 3053 
L 1275 0 
L 697 0 
L 697 3053 
L 147 3053 
L 147 3500 
L 697 3500 
L 697 3744 
Q 697 4328 969 4595 
Q 1241 4863 1831 4863 
L 2375 4863 
z
" transform="scale(0.015625)"/>
     <path id="DejaVuSans-6d" d="M 3328 2828 
Q 3544 3216 3844 3400 
Q 4144 3584 4550 3584 
Q 5097 3584 5394 3201 
Q 5691 2819 5691 2113 
L 5691 0 
L 5113 0 
L 5113 2094 
Q 5113 2597 4934 2840 
Q 4756 3084 4391 3084 
Q 3944 3084 3684 2787 
Q 3425 2491 3425 1978 
L 3425 0 
L 2847 0 
L 2847 2094 
Q 2847 2600 2669 2842 
Q 2491 3084 2119 3084 
Q 1678 3084 1418 2786 
Q 1159 2488 1159 1978 
L 1159 0 
L 581 0 
L 581 3500 
L 1159 3500 
L 1159 2956 
Q 1356 3278 1631 3431 
Q 1906 3584 2284 3584 
Q 2666 3584 2933 3390 
Q 3200 3197 3328 2828 
z
" transform="scale(0.015625)"/>
     <path id="DejaVuSans-2d" d="M 313 2009 
L 1997 2009 
L 1997 1497 
L 313 1497 
L 313 2009 
z
" transform="scale(0.015625)"/>
     <path id="DejaVuSans-6b" d="M 581 4863 
L 1159 4863 
L 1159 1991 
L 2875 3500 
L 3609 3500 
L 1753 1863 
L 3688 0 
L 2938 0 
L 1159 1709 
L 1159 0 
L 581 0 
L 581 4863 
z
" transform="scale(0.015625)"/>
     <path id="DejaVuSans-6c" d="M 603 4863 
L 1178 4863 
L 1178 0 
L 603 0 
L 603 4863 
z
" transform="scale(0.015625)"/>
     <path id="DejaVuSans-76" d="M 191 3500 
L 800 3500 
L 1894 563 
L 2988 3500 
L 3597 3500 
L 2284 0 
L 1503 0 
L 191 3500 
z
" transform="scale(0.015625)"/>
    </defs>
    <use xlink:href="#DejaVuSans-50"/>
    <use xlink:href="#DejaVuSans-72" x="58.552734"/>
    <use xlink:href="#DejaVuSans-6f" x="97.416016"/>
    <use xlink:href="#DejaVuSans-64" x="158.597656"/>
    <use xlink:href="#DejaVuSans-75" x="222.074219"/>
    <use xlink:href="#DejaVuSans-63" x="285.453125"/>
    <use xlink:href="#DejaVuSans-74" x="340.433594"/>
    <use xlink:href="#DejaVuSans-69" x="379.642578"/>
    <use xlink:href="#DejaVuSans-6f" x="407.425781"/>
    <use xlink:href="#DejaVuSans-6e" x="468.607422"/>
    <use xlink:href="#DejaVuSans-20" x="531.986328"/>
    <use xlink:href="#DejaVuSans-63" x="563.773438"/>
    <use xlink:href="#DejaVuSans-68" x="618.753906"/>
    <use xlink:href="#DejaVuSans-61" x="682.132812"/>
    <use xlink:href="#DejaVuSans-6e" x="743.412109"/>
    <use xlink:href="#DejaVuSans-67" x="806.791016"/>
    <use xlink:href="#DejaVuSans-65" x="870.267578"/>
    <use xlink:href="#DejaVuSans-20" x="931.791016"/>
    <use xlink:href="#DejaVuSans-66" x="963.578125"/>
    <use xlink:href="#DejaVuSans-72" x="998.783203"/>
    <use xlink:href="#DejaVuSans-6f" x="1037.646484"/>
    <use xlink:href="#DejaVuSans-6d" x="1098.828125"/>
    <use xlink:href="#DejaVuSans-20" x="1196.240234"/>
    <use xlink:href="#DejaVuSans-70" x="1228.027344"/>
    <use xlink:href="#DejaVuSans-72" x="1291.503906"/>
    <use xlink:href="#DejaVuSans-65" x="1330.367188"/>
    <use xlink:href="#DejaVuSans-2d" x="1391.890625"/>
    <use xlink:href="#DejaVuSans-73" x="1427.974609"/>
    <use xlink:href="#DejaVuSans-68" x="1480.074219"/>
    <use xlink:href="#DejaVuSans-6f" x="1543.453125"/>
    <use xlink:href="#DejaVuSans-63" x="1604.634766"/>
    <use xlink:href="#DejaVuSans-6b" x="1659.615234"/>
    <use xlink:href="#DejaVuSans-20" x="1717.525391"/>
    <use xlink:href="#DejaVuSans-6c" x="1749.3125"/>
    <use xlink:href="#DejaVuSans-65" x="1777.095703"/>
    <use xlink:href="#DejaVuSans-76" x="1838.619141"/>
    <use xlink:href="#DejaVuSans-65" x="1897.798828"/>
    <use xlink:href="#DejaVuSans-6c" x="1959.322266"/>
   </g>
  </g>
  <g id="legend_1">
   <g id="patch_20">
    <path d="M 11.82 584.31675 
L 1292.617547 584.31675 
Q 1297.237547 584.31675 1297.237547 579.69675 
L 1297.237547 476.97 
Q 1297.237547 472.35 1292.617547 472.35 
L 11.82 472.35 
Q 7.2 472.35 7.2 476.97 
L 7.2 579.69675 
Q 7.2 584.31675 11.82 584.31675 
z
" style="fill: #eaeaf2; opacity: 0.8; stroke: #cccccc; stroke-linejoin: miter"/>
   </g>
   <g id="text_29">
    <!-- Experiences -->
    <g style="fill: #262626" transform="translate(575.384367 500.738062) scale(0.252 -0.252)">
     <defs>
      <path id="DejaVuSans-45" d="M 628 4666 
L 3578 4666 
L 3578 4134 
L 1259 4134 
L 1259 2753 
L 3481 2753 
L 3481 2222 
L 1259 2222 
L 1259 531 
L 3634 531 
L 3634 0 
L 628 0 
L 628 4666 
z
" transform="scale(0.015625)"/>
      <path id="DejaVuSans-78" d="M 3513 3500 
L 2247 1797 
L 3578 0 
L 2900 0 
L 1881 1375 
L 863 0 
L 184 0 
L 1544 1831 
L 300 3500 
L 978 3500 
L 1906 2253 
L 2834 3500 
L 3513 3500 
z
" transform="scale(0.015625)"/>
     </defs>
     <use xlink:href="#DejaVuSans-45"/>
     <use xlink:href="#DejaVuSans-78" x="63.183594"/>
     <use xlink:href="#DejaVuSans-70" x="122.363281"/>
     <use xlink:href="#DejaVuSans-65" x="185.839844"/>
     <use xlink:href="#DejaVuSans-72" x="247.363281"/>
     <use xlink:href="#DejaVuSans-69" x="288.476562"/>
     <use xlink:href="#DejaVuSans-65" x="316.259766"/>
     <use xlink:href="#DejaVuSans-6e" x="377.783203"/>
     <use xlink:href="#DejaVuSans-63" x="441.162109"/>
     <use xlink:href="#DejaVuSans-65" x="496.142578"/>
     <use xlink:href="#DejaVuSans-73" x="557.666016"/>
    </g>
   </g>
   <g id="line2d_73">
    <path d="M 16.44 526.996266 
L 39.54 526.996266 
L 62.64 526.996266 
" style="fill: none; stroke: #4c72b0; stroke-opacity: 0.9; stroke-width: 3; stroke-linecap: round"/>
   </g>
   <g id="text_30">
    <!-- eora26_full_2000 -->
    <g style="fill: #262626" transform="translate(81.12 535.081266) scale(0.231 -0.231)">
     <defs>
      <path id="DejaVuSans-5f" d="M 3263 -1063 
L 3263 -1509 
L -63 -1509 
L -63 -1063 
L 3263 -1063 
z
" transform="scale(0.015625)"/>
     </defs>
     <use xlink:href="#DejaVuSans-65"/>
     <use xlink:href="#DejaVuSans-6f" x="61.523438"/>
     <use xlink:href="#DejaVuSans-72" x="122.705078"/>
     <use xlink:href="#DejaVuSans-61" x="163.818359"/>
     <use xlink:href="#DejaVuSans-32" x="225.097656"/>
     <use xlink:href="#DejaVuSans-36" x="288.720703"/>
     <use xlink:href="#DejaVuSans-5f" x="352.34375"/>
     <use xlink:href="#DejaVuSans-66" x="402.34375"/>
     <use xlink:href="#DejaVuSans-75" x="437.548828"/>
     <use xlink:href="#DejaVuSans-6c" x="500.927734"/>
     <use xlink:href="#DejaVuSans-6c" x="528.710938"/>
     <use xlink:href="#DejaVuSans-5f" x="556.494141"/>
     <use xlink:href="#DejaVuSans-32" x="606.494141"/>
     <use xlink:href="#DejaVuSans-30" x="670.117188"/>
     <use xlink:href="#DejaVuSans-30" x="733.740234"/>
     <use xlink:href="#DejaVuSans-30" x="797.363281"/>
    </g>
   </g>
   <g id="line2d_74">
    <path d="M 16.44 561.545203 
L 39.54 561.545203 
L 62.64 561.545203 
" style="fill: none; stroke: #dd8452; stroke-opacity: 0.9; stroke-width: 3; stroke-linecap: round"/>
   </g>
   <g id="text_31">
    <!-- eora26_full_2010 -->
    <g style="fill: #262626" transform="translate(81.12 569.630203) scale(0.231 -0.231)">
     <defs>
      <path id="DejaVuSans-31" d="M 794 531 
L 1825 531 
L 1825 4091 
L 703 3866 
L 703 4441 
L 1819 4666 
L 2450 4666 
L 2450 531 
L 3481 531 
L 3481 0 
L 794 0 
L 794 531 
z
" transform="scale(0.015625)"/>
     </defs>
     <use xlink:href="#DejaVuSans-65"/>
     <use xlink:href="#DejaVuSans-6f" x="61.523438"/>
     <use xlink:href="#DejaVuSans-72" x="122.705078"/>
     <use xlink:href="#DejaVuSans-61" x="163.818359"/>
     <use xlink:href="#DejaVuSans-32" x="225.097656"/>
     <use xlink:href="#DejaVuSans-36" x="288.720703"/>
     <use xlink:href="#DejaVuSans-5f" x="352.34375"/>
     <use xlink:href="#DejaVuSans-66" x="402.34375"/>
     <use xlink:href="#DejaVuSans-75" x="437.548828"/>
     <use xlink:href="#DejaVuSans-6c" x="500.927734"/>
     <use xlink:href="#DejaVuSans-6c" x="528.710938"/>
     <use xlink:href="#DejaVuSans-5f" x="556.494141"/>
     <use xlink:href="#DejaVuSans-32" x="606.494141"/>
     <use xlink:href="#DejaVuSans-30" x="670.117188"/>
     <use xlink:href="#DejaVuSans-31" x="733.740234"/>
     <use xlink:href="#DejaVuSans-30" x="797.363281"/>
    </g>
   </g>
   <g id="line2d_75">
    <path d="M 326.211 526.996266 
L 349.311 526.996266 
L 372.411 526.996266 
" style="fill: none; stroke: #55a868; stroke-opacity: 0.9; stroke-width: 3; stroke-linecap: round"/>
   </g>
   <g id="text_32">
    <!-- euregio_full_2000 -->
    <g style="fill: #262626" transform="translate(390.891 535.081266) scale(0.231 -0.231)">
     <use xlink:href="#DejaVuSans-65"/>
     <use xlink:href="#DejaVuSans-75" x="61.523438"/>
     <use xlink:href="#DejaVuSans-72" x="124.902344"/>
     <use xlink:href="#DejaVuSans-65" x="163.765625"/>
     <use xlink:href="#DejaVuSans-67" x="225.289062"/>
     <use xlink:href="#DejaVuSans-69" x="288.765625"/>
     <use xlink:href="#DejaVuSans-6f" x="316.548828"/>
     <use xlink:href="#DejaVuSans-5f" x="377.730469"/>
     <use xlink:href="#DejaVuSans-66" x="427.730469"/>
     <use xlink:href="#DejaVuSans-75" x="462.935547"/>
     <use xlink:href="#DejaVuSans-6c" x="526.314453"/>
     <use xlink:href="#DejaVuSans-6c" x="554.097656"/>
     <use xlink:href="#DejaVuSans-5f" x="581.880859"/>
     <use xlink:href="#DejaVuSans-32" x="631.880859"/>
     <use xlink:href="#DejaVuSans-30" x="695.503906"/>
     <use xlink:href="#DejaVuSans-30" x="759.126953"/>
     <use xlink:href="#DejaVuSans-30" x="822.75"/>
    </g>
   </g>
   <g id="line2d_76">
    <path d="M 326.211 561.545203 
L 349.311 561.545203 
L 372.411 561.545203 
" style="fill: none; stroke: #c44e52; stroke-opacity: 0.9; stroke-width: 3; stroke-linecap: round"/>
   </g>
   <g id="text_33">
    <!-- euregio_full_2010 -->
    <g style="fill: #262626" transform="translate(390.891 569.630203) scale(0.231 -0.231)">
     <use xlink:href="#DejaVuSans-65"/>
     <use xlink:href="#DejaVuSans-75" x="61.523438"/>
     <use xlink:href="#DejaVuSans-72" x="124.902344"/>
     <use xlink:href="#DejaVuSans-65" x="163.765625"/>
     <use xlink:href="#DejaVuSans-67" x="225.289062"/>
     <use xlink:href="#DejaVuSans-69" x="288.765625"/>
     <use xlink:href="#DejaVuSans-6f" x="316.548828"/>
     <use xlink:href="#DejaVuSans-5f" x="377.730469"/>
     <use xlink:href="#DejaVuSans-66" x="427.730469"/>
     <use xlink:href="#DejaVuSans-75" x="462.935547"/>
     <use xlink:href="#DejaVuSans-6c" x="526.314453"/>
     <use xlink:href="#DejaVuSans-6c" x="554.097656"/>
     <use xlink:href="#DejaVuSans-5f" x="581.880859"/>
     <use xlink:href="#DejaVuSans-32" x="631.880859"/>
     <use xlink:href="#DejaVuSans-30" x="695.503906"/>
     <use xlink:href="#DejaVuSans-31" x="759.126953"/>
     <use xlink:href="#DejaVuSans-30" x="822.75"/>
    </g>
   </g>
   <g id="line2d_77">
    <path d="M 641.847234 526.996266 
L 664.947234 526.996266 
L 688.047234 526.996266 
" style="fill: none; stroke: #8172b3; stroke-opacity: 0.9; stroke-width: 3; stroke-linecap: round"/>
   </g>
   <g id="text_34">
    <!-- exiobase3_full_2000 -->
    <g style="fill: #262626" transform="translate(706.527234 535.081266) scale(0.231 -0.231)">
     <defs>
      <path id="DejaVuSans-62" d="M 3116 1747 
Q 3116 2381 2855 2742 
Q 2594 3103 2138 3103 
Q 1681 3103 1420 2742 
Q 1159 2381 1159 1747 
Q 1159 1113 1420 752 
Q 1681 391 2138 391 
Q 2594 391 2855 752 
Q 3116 1113 3116 1747 
z
M 1159 2969 
Q 1341 3281 1617 3432 
Q 1894 3584 2278 3584 
Q 2916 3584 3314 3078 
Q 3713 2572 3713 1747 
Q 3713 922 3314 415 
Q 2916 -91 2278 -91 
Q 1894 -91 1617 61 
Q 1341 213 1159 525 
L 1159 0 
L 581 0 
L 581 4863 
L 1159 4863 
L 1159 2969 
z
" transform="scale(0.015625)"/>
     </defs>
     <use xlink:href="#DejaVuSans-65"/>
     <use xlink:href="#DejaVuSans-78" x="59.773438"/>
     <use xlink:href="#DejaVuSans-69" x="118.953125"/>
     <use xlink:href="#DejaVuSans-6f" x="146.736328"/>
     <use xlink:href="#DejaVuSans-62" x="207.917969"/>
     <use xlink:href="#DejaVuSans-61" x="271.394531"/>
     <use xlink:href="#DejaVuSans-73" x="332.673828"/>
     <use xlink:href="#DejaVuSans-65" x="384.773438"/>
     <use xlink:href="#DejaVuSans-33" x="446.296875"/>
     <use xlink:href="#DejaVuSans-5f" x="509.919922"/>
     <use xlink:href="#DejaVuSans-66" x="559.919922"/>
     <use xlink:href="#DejaVuSans-75" x="595.125"/>
     <use xlink:href="#DejaVuSans-6c" x="658.503906"/>
     <use xlink:href="#DejaVuSans-6c" x="686.287109"/>
     <use xlink:href="#DejaVuSans-5f" x="714.070312"/>
     <use xlink:href="#DejaVuSans-32" x="764.070312"/>
     <use xlink:href="#DejaVuSans-30" x="827.693359"/>
     <use xlink:href="#DejaVuSans-30" x="891.316406"/>
     <use xlink:href="#DejaVuSans-30" x="954.939453"/>
    </g>
   </g>
   <g id="line2d_78">
    <path d="M 988.022391 526.996266 
L 1011.122391 526.996266 
L 1034.222391 526.996266 
" style="fill: none; stroke: #937860; stroke-opacity: 0.9; stroke-width: 3; stroke-linecap: round"/>
   </g>
   <g id="text_35">
    <!-- exiobase3_full_2010 -->
    <g style="fill: #262626" transform="translate(1052.702391 535.081266) scale(0.231 -0.231)">
     <use xlink:href="#DejaVuSans-65"/>
     <use xlink:href="#DejaVuSans-78" x="59.773438"/>
     <use xlink:href="#DejaVuSans-69" x="118.953125"/>
     <use xlink:href="#DejaVuSans-6f" x="146.736328"/>
     <use xlink:href="#DejaVuSans-62" x="207.917969"/>
     <use xlink:href="#DejaVuSans-61" x="271.394531"/>
     <use xlink:href="#DejaVuSans-73" x="332.673828"/>
     <use xlink:href="#DejaVuSans-65" x="384.773438"/>
     <use xlink:href="#DejaVuSans-33" x="446.296875"/>
     <use xlink:href="#DejaVuSans-5f" x="509.919922"/>
     <use xlink:href="#DejaVuSans-66" x="559.919922"/>
     <use xlink:href="#DejaVuSans-75" x="595.125"/>
     <use xlink:href="#DejaVuSans-6c" x="658.503906"/>
     <use xlink:href="#DejaVuSans-6c" x="686.287109"/>
     <use xlink:href="#DejaVuSans-5f" x="714.070312"/>
     <use xlink:href="#DejaVuSans-32" x="764.070312"/>
     <use xlink:href="#DejaVuSans-30" x="827.693359"/>
     <use xlink:href="#DejaVuSans-31" x="891.316406"/>
     <use xlink:href="#DejaVuSans-30" x="954.939453"/>
    </g>
   </g>
  </g>
 </g>
 <defs>
  <clipPath id="pdce153780c">
   <rect x="170.340091" y="81.456" width="292.369069" height="119.586"/>
  </clipPath>
  <clipPath id="p73c5c18fb2">
   <rect x="489.290298" y="81.456" width="292.369069" height="119.586"/>
  </clipPath>
  <clipPath id="pa37c6b3315">
   <rect x="808.240504" y="81.456" width="292.369069" height="119.586"/>
  </clipPath>
  <clipPath id="pff1813b5ac">
   <rect x="170.340091" y="253.698" width="292.369069" height="119.586"/>
  </clipPath>
  <clipPath id="p6a472417d4">
   <rect x="489.290298" y="253.698" width="292.369069" height="119.586"/>
  </clipPath>
  <clipPath id="p58841e867f">
   <rect x="808.240504" y="253.698" width="292.369069" height="119.586"/>
  </clipPath>
 </defs>
</svg>
