<?xml version="1.0" encoding="utf-8" standalone="no"?>
<!DOCTYPE svg PUBLIC "-//W3C//DTD SVG 1.1//EN"
  "http://www.w3.org/Graphics/SVG/1.1/DTD/svg11.dtd">
<svg xmlns:xlink="http://www.w3.org/1999/xlink" width="1304.437547pt" height="591.51675pt" viewBox="0 0 1304.437547 591.51675" xmlns="http://www.w3.org/2000/svg" version="1.1">
 <metadata>
  <rdf:RDF xmlns:dc="http://purl.org/dc/elements/1.1/" xmlns:cc="http://creativecommons.org/ns#" xmlns:rdf="http://www.w3.org/1999/02/22-rdf-syntax-ns#">
   <cc:Work>
    <dc:type rdf:resource="http://purl.org/dc/dcmitype/StillImage"/>
    <dc:date>2023-04-25T16:28:43.224314</dc:date>
    <dc:format>image/svg+xml</dc:format>
    <dc:creator>
     <cc:Agent>
      <dc:title>Matplotlib v3.7.1, https://matplotlib.org/</dc:title>
     </cc:Agent>
    </dc:creator>
   </cc:Work>
  </rdf:RDF>
 </metadata>
 <defs>
  <style type="text/css">*{stroke-linejoin: round; stroke-linecap: butt}</style>
 </defs>
 <g id="figure_1">
  <g id="patch_1">
   <path d="M 0 591.51675 
L 1304.437547 591.51675 
L 1304.437547 -0 
L 0 -0 
z
" style="fill: #ffffff"/>
  </g>
  <g id="axes_1">
   <g id="patch_2">
    <path d="M 189.250488 201.042 
L 475.404752 201.042 
L 475.404752 81.456 
L 189.250488 81.456 
z
" style="fill: #eaeaf2"/>
   </g>
   <g id="matplotlib.axis_1">
    <g id="xtick_1">
     <g id="line2d_1">
      <path d="M 202.2575 201.042 
L 202.2575 81.456 
" clip-path="url(#pa219775d65)" style="fill: none; stroke: #ffffff; stroke-linecap: round"/>
     </g>
    </g>
    <g id="xtick_2">
     <g id="line2d_2">
      <path d="M 291.468831 201.042 
L 291.468831 81.456 
" clip-path="url(#pa219775d65)" style="fill: none; stroke: #ffffff; stroke-linecap: round"/>
     </g>
    </g>
    <g id="xtick_3">
     <g id="line2d_3">
      <path d="M 380.680161 201.042 
L 380.680161 81.456 
" clip-path="url(#pa219775d65)" style="fill: none; stroke: #ffffff; stroke-linecap: round"/>
     </g>
    </g>
    <g id="xtick_4">
     <g id="line2d_4">
      <path d="M 469.891491 201.042 
L 469.891491 81.456 
" clip-path="url(#pa219775d65)" style="fill: none; stroke: #ffffff; stroke-linecap: round"/>
     </g>
    </g>
   </g>
   <g id="matplotlib.axis_2">
    <g id="ytick_1">
     <g id="line2d_5">
      <path d="M 189.250488 151.025918 
L 475.404752 151.025918 
" clip-path="url(#pa219775d65)" style="fill: none; stroke: #ffffff; stroke-linecap: round"/>
     </g>
     <g id="text_1">
      <!-- −0.25 -->
      <g style="fill: #262626" transform="translate(108.959816 159.802113) scale(0.231 -0.231)">
       <defs>
        <path id="DejaVuSans-2212" d="M 678 2272 
L 4684 2272 
L 4684 1741 
L 678 1741 
L 678 2272 
z
" transform="scale(0.015625)"/>
        <path id="DejaVuSans-30" d="M 2034 4250 
Q 1547 4250 1301 3770 
Q 1056 3291 1056 2328 
Q 1056 1369 1301 889 
Q 1547 409 2034 409 
Q 2525 409 2770 889 
Q 3016 1369 3016 2328 
Q 3016 3291 2770 3770 
Q 2525 4250 2034 4250 
z
M 2034 4750 
Q 2819 4750 3233 4129 
Q 3647 3509 3647 2328 
Q 3647 1150 3233 529 
Q 2819 -91 2034 -91 
Q 1250 -91 836 529 
Q 422 1150 422 2328 
Q 422 3509 836 4129 
Q 1250 4750 2034 4750 
z
" transform="scale(0.015625)"/>
        <path id="DejaVuSans-2e" d="M 684 794 
L 1344 794 
L 1344 0 
L 684 0 
L 684 794 
z
" transform="scale(0.015625)"/>
        <path id="DejaVuSans-32" d="M 1228 531 
L 3431 531 
L 3431 0 
L 469 0 
L 469 531 
Q 828 903 1448 1529 
Q 2069 2156 2228 2338 
Q 2531 2678 2651 2914 
Q 2772 3150 2772 3378 
Q 2772 3750 2511 3984 
Q 2250 4219 1831 4219 
Q 1534 4219 1204 4116 
Q 875 4013 500 3803 
L 500 4441 
Q 881 4594 1212 4672 
Q 1544 4750 1819 4750 
Q 2544 4750 2975 4387 
Q 3406 4025 3406 3419 
Q 3406 3131 3298 2873 
Q 3191 2616 2906 2266 
Q 2828 2175 2409 1742 
Q 1991 1309 1228 531 
z
" transform="scale(0.015625)"/>
        <path id="DejaVuSans-35" d="M 691 4666 
L 3169 4666 
L 3169 4134 
L 1269 4134 
L 1269 2991 
Q 1406 3038 1543 3061 
Q 1681 3084 1819 3084 
Q 2600 3084 3056 2656 
Q 3513 2228 3513 1497 
Q 3513 744 3044 326 
Q 2575 -91 1722 -91 
Q 1428 -91 1123 -41 
Q 819 9 494 109 
L 494 744 
Q 775 591 1075 516 
Q 1375 441 1709 441 
Q 2250 441 2565 725 
Q 2881 1009 2881 1497 
Q 2881 1984 2565 2268 
Q 2250 2553 1709 2553 
Q 1456 2553 1204 2497 
Q 953 2441 691 2322 
L 691 4666 
z
" transform="scale(0.015625)"/>
       </defs>
       <use xlink:href="#DejaVuSans-2212"/>
       <use xlink:href="#DejaVuSans-30" x="83.789062"/>
       <use xlink:href="#DejaVuSans-2e" x="147.412109"/>
       <use xlink:href="#DejaVuSans-32" x="179.199219"/>
       <use xlink:href="#DejaVuSans-35" x="242.822266"/>
      </g>
     </g>
    </g>
    <g id="ytick_2">
     <g id="line2d_6">
      <path d="M 189.250488 97.121779 
L 475.404752 97.121779 
" clip-path="url(#pa219775d65)" style="fill: none; stroke: #ffffff; stroke-linecap: round"/>
     </g>
     <g id="text_2">
      <!-- 0.00 -->
      <g style="fill: #262626" transform="translate(128.316894 105.897974) scale(0.231 -0.231)">
       <use xlink:href="#DejaVuSans-30"/>
       <use xlink:href="#DejaVuSans-2e" x="63.623047"/>
       <use xlink:href="#DejaVuSans-30" x="95.410156"/>
       <use xlink:href="#DejaVuSans-30" x="159.033203"/>
      </g>
     </g>
    </g>
    <g id="text_3">
     <!-- % change -->
     <g style="fill: #262626" transform="translate(99.719004 203.597344) rotate(-90) scale(0.252 -0.252)">
      <defs>
       <path id="DejaVuSans-25" d="M 4653 2053 
Q 4381 2053 4226 1822 
Q 4072 1591 4072 1178 
Q 4072 772 4226 539 
Q 4381 306 4653 306 
Q 4919 306 5073 539 
Q 5228 772 5228 1178 
Q 5228 1588 5073 1820 
Q 4919 2053 4653 2053 
z
M 4653 2450 
Q 5147 2450 5437 2106 
Q 5728 1763 5728 1178 
Q 5728 594 5436 251 
Q 5144 -91 4653 -91 
Q 4153 -91 3862 251 
Q 3572 594 3572 1178 
Q 3572 1766 3864 2108 
Q 4156 2450 4653 2450 
z
M 1428 4353 
Q 1159 4353 1004 4120 
Q 850 3888 850 3481 
Q 850 3069 1003 2837 
Q 1156 2606 1428 2606 
Q 1700 2606 1854 2837 
Q 2009 3069 2009 3481 
Q 2009 3884 1853 4118 
Q 1697 4353 1428 4353 
z
M 4250 4750 
L 4750 4750 
L 1831 -91 
L 1331 -91 
L 4250 4750 
z
M 1428 4750 
Q 1922 4750 2215 4408 
Q 2509 4066 2509 3481 
Q 2509 2891 2217 2550 
Q 1925 2209 1428 2209 
Q 931 2209 642 2551 
Q 353 2894 353 3481 
Q 353 4063 643 4406 
Q 934 4750 1428 4750 
z
" transform="scale(0.015625)"/>
       <path id="DejaVuSans-20" transform="scale(0.015625)"/>
       <path id="DejaVuSans-63" d="M 3122 3366 
L 3122 2828 
Q 2878 2963 2633 3030 
Q 2388 3097 2138 3097 
Q 1578 3097 1268 2742 
Q 959 2388 959 1747 
Q 959 1106 1268 751 
Q 1578 397 2138 397 
Q 2388 397 2633 464 
Q 2878 531 3122 666 
L 3122 134 
Q 2881 22 2623 -34 
Q 2366 -91 2075 -91 
Q 1284 -91 818 406 
Q 353 903 353 1747 
Q 353 2603 823 3093 
Q 1294 3584 2113 3584 
Q 2378 3584 2631 3529 
Q 2884 3475 3122 3366 
z
" transform="scale(0.015625)"/>
       <path id="DejaVuSans-68" d="M 3513 2113 
L 3513 0 
L 2938 0 
L 2938 2094 
Q 2938 2591 2744 2837 
Q 2550 3084 2163 3084 
Q 1697 3084 1428 2787 
Q 1159 2491 1159 1978 
L 1159 0 
L 581 0 
L 581 4863 
L 1159 4863 
L 1159 2956 
Q 1366 3272 1645 3428 
Q 1925 3584 2291 3584 
Q 2894 3584 3203 3211 
Q 3513 2838 3513 2113 
z
" transform="scale(0.015625)"/>
       <path id="DejaVuSans-61" d="M 2194 1759 
Q 1497 1759 1228 1600 
Q 959 1441 959 1056 
Q 959 750 1161 570 
Q 1363 391 1709 391 
Q 2188 391 2477 730 
Q 2766 1069 2766 1631 
L 2766 1759 
L 2194 1759 
z
M 3341 1997 
L 3341 0 
L 2766 0 
L 2766 531 
Q 2569 213 2275 61 
Q 1981 -91 1556 -91 
Q 1019 -91 701 211 
Q 384 513 384 1019 
Q 384 1609 779 1909 
Q 1175 2209 1959 2209 
L 2766 2209 
L 2766 2266 
Q 2766 2663 2505 2880 
Q 2244 3097 1772 3097 
Q 1472 3097 1187 3025 
Q 903 2953 641 2809 
L 641 3341 
Q 956 3463 1253 3523 
Q 1550 3584 1831 3584 
Q 2591 3584 2966 3190 
Q 3341 2797 3341 1997 
z
" transform="scale(0.015625)"/>
       <path id="DejaVuSans-6e" d="M 3513 2113 
L 3513 0 
L 2938 0 
L 2938 2094 
Q 2938 2591 2744 2837 
Q 2550 3084 2163 3084 
Q 1697 3084 1428 2787 
Q 1159 2491 1159 1978 
L 1159 0 
L 581 0 
L 581 3500 
L 1159 3500 
L 1159 2956 
Q 1366 3272 1645 3428 
Q 1925 3584 2291 3584 
Q 2894 3584 3203 3211 
Q 3513 2838 3513 2113 
z
" transform="scale(0.015625)"/>
       <path id="DejaVuSans-67" d="M 2906 1791 
Q 2906 2416 2648 2759 
Q 2391 3103 1925 3103 
Q 1463 3103 1205 2759 
Q 947 2416 947 1791 
Q 947 1169 1205 825 
Q 1463 481 1925 481 
Q 2391 481 2648 825 
Q 2906 1169 2906 1791 
z
M 3481 434 
Q 3481 -459 3084 -895 
Q 2688 -1331 1869 -1331 
Q 1566 -1331 1297 -1286 
Q 1028 -1241 775 -1147 
L 775 -588 
Q 1028 -725 1275 -790 
Q 1522 -856 1778 -856 
Q 2344 -856 2625 -561 
Q 2906 -266 2906 331 
L 2906 616 
Q 2728 306 2450 153 
Q 2172 0 1784 0 
Q 1141 0 747 490 
Q 353 981 353 1791 
Q 353 2603 747 3093 
Q 1141 3584 1784 3584 
Q 2172 3584 2450 3431 
Q 2728 3278 2906 2969 
L 2906 3500 
L 3481 3500 
L 3481 434 
z
" transform="scale(0.015625)"/>
       <path id="DejaVuSans-65" d="M 3597 1894 
L 3597 1613 
L 953 1613 
Q 991 1019 1311 708 
Q 1631 397 2203 397 
Q 2534 397 2845 478 
Q 3156 559 3463 722 
L 3463 178 
Q 3153 47 2828 -22 
Q 2503 -91 2169 -91 
Q 1331 -91 842 396 
Q 353 884 353 1716 
Q 353 2575 817 3079 
Q 1281 3584 2069 3584 
Q 2775 3584 3186 3129 
Q 3597 2675 3597 1894 
z
M 3022 2063 
Q 3016 2534 2758 2815 
Q 2500 3097 2075 3097 
Q 1594 3097 1305 2825 
Q 1016 2553 972 2059 
L 3022 2063 
z
" transform="scale(0.015625)"/>
      </defs>
      <use xlink:href="#DejaVuSans-25"/>
      <use xlink:href="#DejaVuSans-20" x="95.019531"/>
      <use xlink:href="#DejaVuSans-63" x="126.806641"/>
      <use xlink:href="#DejaVuSans-68" x="181.787109"/>
      <use xlink:href="#DejaVuSans-61" x="245.166016"/>
      <use xlink:href="#DejaVuSans-6e" x="306.445312"/>
      <use xlink:href="#DejaVuSans-67" x="369.824219"/>
      <use xlink:href="#DejaVuSans-65" x="433.300781"/>
     </g>
    </g>
   </g>
   <g id="PolyCollection_1"/>
   <g id="PolyCollection_2"/>
   <g id="PolyCollection_3"/>
   <g id="PolyCollection_4"/>
   <g id="PolyCollection_5"/>
   <g id="PolyCollection_6"/>
   <g id="line2d_7">
    <path d="M 202.2575 97.121779 
L 212.249169 105.360967 
L 215.817622 107.846109 
L 219.742921 110.300693 
L 223.668219 112.47859 
L 227.593518 114.394601 
L 231.518816 116.0625 
L 235.444115 117.495547 
L 239.726259 118.8103 
L 244.008403 119.88295 
L 248.290547 120.728426 
L 252.929536 121.404621 
L 257.568525 121.848467 
L 262.207514 122.076497 
L 267.203349 122.098613 
L 272.556028 121.885374 
L 277.908708 121.447764 
L 283.618233 120.756189 
L 289.684604 119.791962 
L 296.10782 118.541099 
L 303.601571 116.835276 
L 341.427176 107.943348 
L 353.559916 105.481082 
L 369.261111 102.53108 
L 382.821233 100.180608 
L 393.883438 98.487559 
L 409.584632 96.320202 
L 428.854279 93.893115 
L 451.69238 91.247697 
L 462.39774 90.071945 
L 462.39774 90.071945 
" clip-path="url(#pa219775d65)" style="fill: none; stroke: #4c72b0; stroke-opacity: 0.9; stroke-width: 3; stroke-linecap: round"/>
   </g>
   <g id="line2d_8">
    <path d="M 202.2575 97.121779 
L 214.033396 102.393874 
L 219.02923 104.203792 
L 224.025065 105.778381 
L 229.377745 107.223881 
L 234.730424 108.437883 
L 240.43995 109.497288 
L 246.50632 110.382305 
L 252.57269 111.042188 
L 258.995906 111.517625 
L 265.775967 111.794501 
L 272.912874 111.86241 
L 280.406626 111.714553 
L 288.614068 111.326418 
L 297.535201 110.672076 
L 309.667942 109.521597 
L 367.476884 103.828498 
L 403.518261 100.754377 
L 421.717373 99.372367 
L 450.978689 97.422611 
L 462.39774 96.701257 
L 462.39774 96.701257 
" clip-path="url(#pa219775d65)" style="fill: none; stroke: #dd8452; stroke-opacity: 0.9; stroke-width: 3; stroke-linecap: round"/>
   </g>
   <g id="line2d_9">
    <path d="M 202.2575 97.121779 
L 205.112263 99.769681 
L 210.108097 104.2795 
L 214.033396 107.470116 
L 217.958694 110.354313 
L 221.883993 112.947679 
L 225.809291 115.265414 
L 229.73459 117.323077 
L 233.659888 119.137747 
L 237.942032 120.863486 
L 242.224176 122.351676 
L 246.863165 123.73213 
L 251.859 124.986581 
L 256.854834 126.024153 
L 262.207514 126.902936 
L 267.560194 127.552006 
L 272.912874 127.979698 
L 278.622399 128.205555 
L 284.331924 128.195183 
L 290.041449 127.950773 
L 295.750974 127.476878 
L 301.4605 126.780207 
L 307.52687 125.820285 
L 314.306931 124.510406 
L 323.228064 122.534497 
L 337.501877 119.371945 
L 349.634618 116.917836 
L 362.837895 114.462959 
L 374.61379 112.499456 
L 387.460222 110.596778 
L 402.447726 108.602489 
L 419.219456 106.601784 
L 438.845948 104.488582 
L 462.39774 102.183162 
L 462.39774 102.183162 
" clip-path="url(#pa219775d65)" style="fill: none; stroke: #55a868; stroke-opacity: 0.9; stroke-width: 3; stroke-linecap: round"/>
   </g>
   <g id="line2d_10">
    <path d="M 202.2575 97.121779 
L 205.469108 99.466335 
L 210.464943 102.993161 
L 214.390241 105.481 
L 218.31554 107.72612 
L 222.597683 109.912387 
L 226.879827 111.840385 
L 231.161971 113.528239 
L 235.80096 115.110678 
L 240.796795 116.567801 
L 245.792629 117.786361 
L 251.145309 118.850541 
L 256.497989 119.685517 
L 262.207514 120.347148 
L 267.917039 120.781052 
L 273.626564 120.995765 
L 279.33609 120.994839 
L 285.045615 120.778439 
L 291.111985 120.323038 
L 297.535201 119.61707 
L 304.672107 118.60382 
L 315.020622 116.874946 
L 341.427176 112.400507 
L 355.344143 110.347123 
L 367.833729 108.7231 
L 382.464388 107.04638 
L 400.306654 105.239768 
L 419.933146 103.484624 
L 444.555473 101.517153 
L 462.39774 100.203068 
L 462.39774 100.203068 
" clip-path="url(#pa219775d65)" style="fill: none; stroke: #c44e52; stroke-opacity: 0.9; stroke-width: 3; stroke-linecap: round"/>
   </g>
   <g id="line2d_11">
    <path d="M 202.2575 97.121779 
L 206.539644 100.703004 
L 210.464943 103.834307 
L 214.033396 106.397455 
L 217.601849 108.704945 
L 221.527147 110.966277 
L 225.452446 112.95314 
L 229.377745 114.680765 
L 233.303043 116.168369 
L 237.228342 117.43314 
L 241.510485 118.57264 
L 245.792629 119.475649 
L 250.074773 120.156184 
L 254.713762 120.657879 
L 259.352752 120.930377 
L 264.348586 120.986444 
L 269.344421 120.814263 
L 274.6971 120.396208 
L 280.04978 119.756375 
L 285.759305 118.850076 
L 291.825676 117.656919 
L 298.248892 116.16389 
L 306.813179 113.914747 
L 321.086992 109.933251 
L 334.290269 106.274752 
L 344.281938 103.793967 
L 355.344143 101.272288 
L 366.049503 99.067281 
L 375.684326 97.309432 
L 386.032841 95.644407 
L 398.165582 93.941577 
L 413.50993 92.018598 
L 431.709042 89.975789 
L 454.190297 87.682993 
L 462.39774 86.891727 
L 462.39774 86.891727 
" clip-path="url(#pa219775d65)" style="fill: none; stroke: #8172b3; stroke-opacity: 0.9; stroke-width: 3; stroke-linecap: round"/>
   </g>
   <g id="line2d_12">
    <path d="M 202.2575 97.121779 
L 213.319705 104.139449 
L 217.601849 106.396443 
L 221.883993 108.387322 
L 226.166137 110.130594 
L 230.448281 111.6424 
L 235.08727 113.037322 
L 239.726259 114.199678 
L 244.365248 115.144479 
L 249.361083 115.934787 
L 254.356917 116.505813 
L 259.709597 116.891998 
L 265.419122 117.066841 
L 271.128647 117.018436 
L 277.195018 116.744083 
L 283.618233 116.226441 
L 290.398295 115.451772 
L 297.535201 114.411811 
L 306.456334 112.870021 
L 322.514373 109.869736 
L 339.642949 106.657431 
L 353.916762 104.260654 
L 367.476884 102.199553 
L 381.037006 100.359207 
L 394.240283 98.836563 
L 410.655168 97.192551 
L 432.779578 95.208408 
L 461.327204 92.881596 
L 462.39774 92.797852 
L 462.39774 92.797852 
" clip-path="url(#pa219775d65)" style="fill: none; stroke: #937860; stroke-opacity: 0.9; stroke-width: 3; stroke-linecap: round"/>
   </g>
   <g id="patch_3">
    <path d="M 189.250488 201.042 
L 189.250488 81.456 
" style="fill: none; stroke: #ffffff; stroke-width: 1.25; stroke-linejoin: miter; stroke-linecap: square"/>
   </g>
   <g id="patch_4">
    <path d="M 189.250488 201.042 
L 475.404752 201.042 
" style="fill: none; stroke: #ffffff; stroke-width: 1.25; stroke-linejoin: miter; stroke-linecap: square"/>
   </g>
   <g id="text_4">
    <!-- 0.8~90 -->
    <g style="fill: #262626" transform="translate(285.697776 75.456) scale(0.252 -0.252)">
     <defs>
      <path id="DejaVuSans-38" d="M 2034 2216 
Q 1584 2216 1326 1975 
Q 1069 1734 1069 1313 
Q 1069 891 1326 650 
Q 1584 409 2034 409 
Q 2484 409 2743 651 
Q 3003 894 3003 1313 
Q 3003 1734 2745 1975 
Q 2488 2216 2034 2216 
z
M 1403 2484 
Q 997 2584 770 2862 
Q 544 3141 544 3541 
Q 544 4100 942 4425 
Q 1341 4750 2034 4750 
Q 2731 4750 3128 4425 
Q 3525 4100 3525 3541 
Q 3525 3141 3298 2862 
Q 3072 2584 2669 2484 
Q 3125 2378 3379 2068 
Q 3634 1759 3634 1313 
Q 3634 634 3220 271 
Q 2806 -91 2034 -91 
Q 1263 -91 848 271 
Q 434 634 434 1313 
Q 434 1759 690 2068 
Q 947 2378 1403 2484 
z
M 1172 3481 
Q 1172 3119 1398 2916 
Q 1625 2713 2034 2713 
Q 2441 2713 2670 2916 
Q 2900 3119 2900 3481 
Q 2900 3844 2670 4047 
Q 2441 4250 2034 4250 
Q 1625 4250 1398 4047 
Q 1172 3844 1172 3481 
z
" transform="scale(0.015625)"/>
      <path id="DejaVuSans-7e" d="M 4684 2553 
L 4684 1997 
Q 4356 1750 4076 1644 
Q 3797 1538 3494 1538 
Q 3150 1538 2694 1722 
Q 2659 1734 2644 1741 
Q 2622 1750 2575 1766 
Q 2091 1959 1797 1959 
Q 1522 1959 1253 1839 
Q 984 1719 678 1459 
L 678 2016 
Q 1006 2263 1286 2370 
Q 1566 2478 1869 2478 
Q 2213 2478 2672 2291 
Q 2703 2278 2719 2272 
Q 2744 2263 2788 2247 
Q 3272 2053 3566 2053 
Q 3834 2053 4098 2172 
Q 4363 2291 4684 2553 
z
" transform="scale(0.015625)"/>
      <path id="DejaVuSans-39" d="M 703 97 
L 703 672 
Q 941 559 1184 500 
Q 1428 441 1663 441 
Q 2288 441 2617 861 
Q 2947 1281 2994 2138 
Q 2813 1869 2534 1725 
Q 2256 1581 1919 1581 
Q 1219 1581 811 2004 
Q 403 2428 403 3163 
Q 403 3881 828 4315 
Q 1253 4750 1959 4750 
Q 2769 4750 3195 4129 
Q 3622 3509 3622 2328 
Q 3622 1225 3098 567 
Q 2575 -91 1691 -91 
Q 1453 -91 1209 -44 
Q 966 3 703 97 
z
M 1959 2075 
Q 2384 2075 2632 2365 
Q 2881 2656 2881 3163 
Q 2881 3666 2632 3958 
Q 2384 4250 1959 4250 
Q 1534 4250 1286 3958 
Q 1038 3666 1038 3163 
Q 1038 2656 1286 2365 
Q 1534 2075 1959 2075 
z
" transform="scale(0.015625)"/>
     </defs>
     <use xlink:href="#DejaVuSans-30"/>
     <use xlink:href="#DejaVuSans-2e" x="63.623047"/>
     <use xlink:href="#DejaVuSans-38" x="95.410156"/>
     <use xlink:href="#DejaVuSans-7e" x="159.033203"/>
     <use xlink:href="#DejaVuSans-39" x="242.822266"/>
     <use xlink:href="#DejaVuSans-30" x="306.445312"/>
    </g>
   </g>
  </g>
  <g id="axes_2">
   <g id="patch_5">
    <path d="M 501.852899 201.042 
L 788.007162 201.042 
L 788.007162 81.456 
L 501.852899 81.456 
z
" style="fill: #eaeaf2"/>
   </g>
   <g id="matplotlib.axis_3">
    <g id="xtick_5">
     <g id="line2d_13">
      <path d="M 514.859911 201.042 
L 514.859911 81.456 
" clip-path="url(#p81977f6ddc)" style="fill: none; stroke: #ffffff; stroke-linecap: round"/>
     </g>
    </g>
    <g id="xtick_6">
     <g id="line2d_14">
      <path d="M 604.071241 201.042 
L 604.071241 81.456 
" clip-path="url(#p81977f6ddc)" style="fill: none; stroke: #ffffff; stroke-linecap: round"/>
     </g>
    </g>
    <g id="xtick_7">
     <g id="line2d_15">
      <path d="M 693.282572 201.042 
L 693.282572 81.456 
" clip-path="url(#p81977f6ddc)" style="fill: none; stroke: #ffffff; stroke-linecap: round"/>
     </g>
    </g>
    <g id="xtick_8">
     <g id="line2d_16">
      <path d="M 782.493902 201.042 
L 782.493902 81.456 
" clip-path="url(#p81977f6ddc)" style="fill: none; stroke: #ffffff; stroke-linecap: round"/>
     </g>
    </g>
   </g>
   <g id="matplotlib.axis_4">
    <g id="ytick_3">
     <g id="line2d_17">
      <path d="M 501.852899 151.025918 
L 788.007162 151.025918 
" clip-path="url(#p81977f6ddc)" style="fill: none; stroke: #ffffff; stroke-linecap: round"/>
     </g>
    </g>
    <g id="ytick_4">
     <g id="line2d_18">
      <path d="M 501.852899 97.121779 
L 788.007162 97.121779 
" clip-path="url(#p81977f6ddc)" style="fill: none; stroke: #ffffff; stroke-linecap: round"/>
     </g>
    </g>
   </g>
   <g id="PolyCollection_7"/>
   <g id="PolyCollection_8"/>
   <g id="PolyCollection_9"/>
   <g id="PolyCollection_10"/>
   <g id="PolyCollection_11"/>
   <g id="PolyCollection_12"/>
   <g id="line2d_19">
    <path d="M 514.859911 97.121779 
L 518.78521 100.547107 
L 522.710508 103.849053 
L 527.349497 107.440598 
L 531.988487 110.740245 
L 536.627476 113.76663 
L 541.266465 116.537108 
L 546.262299 119.253154 
L 551.258134 121.710332 
L 556.253968 123.926776 
L 561.606648 126.05318 
L 566.959328 127.941292 
L 572.668853 129.712535 
L 578.378378 131.252553 
L 584.444749 132.656128 
L 590.867965 133.904502 
L 597.648026 134.984879 
L 604.784932 135.884686 
L 612.278684 136.594385 
L 620.129281 137.107669 
L 628.336723 137.421293 
L 637.257856 137.535241 
L 646.89268 137.427776 
L 657.241194 137.083979 
L 668.660245 136.47332 
L 682.220367 135.507253 
L 713.26591 133.275488 
L 732.178712 132.181344 
L 755.016812 131.087824 
L 775.000151 130.239303 
L 775.000151 130.239303 
" clip-path="url(#p81977f6ddc)" style="fill: none; stroke: #4c72b0; stroke-opacity: 0.9; stroke-width: 3; stroke-linecap: round"/>
   </g>
   <g id="line2d_20">
    <path d="M 514.859911 97.121779 
L 519.4989 99.362355 
L 523.424199 101.156132 
L 529.133724 103.538908 
L 534.843249 105.686074 
L 540.90962 107.730219 
L 547.332835 109.650661 
L 553.756051 111.342505 
L 560.536112 112.904894 
L 567.673019 114.325029 
L 575.16677 115.592854 
L 583.017367 116.701527 
L 591.581655 117.68343 
L 600.859634 118.513305 
L 610.851303 119.174261 
L 621.556662 119.652847 
L 633.332558 119.947518 
L 646.178989 120.03883 
L 660.452802 119.911053 
L 676.510842 119.538818 
L 747.523061 117.574578 
L 775.000151 117.019509 
L 775.000151 117.019509 
" clip-path="url(#p81977f6ddc)" style="fill: none; stroke: #dd8452; stroke-opacity: 0.9; stroke-width: 3; stroke-linecap: round"/>
   </g>
   <g id="line2d_21">
    <path d="M 514.859911 97.121779 
L 517.357828 99.444802 
L 523.424199 105.016528 
L 528.063188 108.932218 
L 532.702177 112.554771 
L 537.341166 115.900537 
L 541.980156 118.98485 
L 546.97599 122.031457 
L 551.971825 124.822632 
L 557.68135 127.743106 
L 563.74772 130.580274 
L 570.170936 133.342228 
L 576.950997 136.009328 
L 583.731058 138.436944 
L 590.511119 140.630329 
L 597.648026 142.704703 
L 604.784932 144.539068 
L 611.564993 146.054329 
L 618.345054 147.342178 
L 625.125115 148.398277 
L 631.548331 149.181158 
L 637.971547 149.750107 
L 644.751608 150.124765 
L 651.531669 150.267942 
L 658.668576 150.18493 
L 667.232863 149.843475 
L 679.008759 149.148231 
L 695.423644 147.927137 
L 717.191208 146.353647 
L 740.386154 144.917089 
L 762.510564 143.79383 
L 775.000151 143.246718 
L 775.000151 143.246718 
" clip-path="url(#p81977f6ddc)" style="fill: none; stroke: #55a868; stroke-opacity: 0.9; stroke-width: 3; stroke-linecap: round"/>
   </g>
   <g id="line2d_22">
    <path d="M 514.859911 97.121779 
L 517.714674 99.213517 
L 523.781044 103.581748 
L 528.776879 106.871931 
L 533.772713 109.894061 
L 538.768548 112.664352 
L 544.121227 115.37024 
L 549.830753 117.995067 
L 555.897123 120.532781 
L 561.963494 122.824257 
L 568.743555 125.13216 
L 575.880461 127.317239 
L 583.017367 129.259003 
L 590.154274 130.96785 
L 597.29118 132.450411 
L 604.428087 133.703188 
L 611.564993 134.722561 
L 618.345054 135.47256 
L 625.481961 136.032717 
L 632.975713 136.394192 
L 641.183155 136.566621 
L 651.174824 136.544995 
L 662.593874 136.28844 
L 675.440306 135.769091 
L 692.925727 134.814563 
L 723.257579 133.18233 
L 745.381989 132.204741 
L 771.074852 131.314297 
L 775.000151 131.194052 
L 775.000151 131.194052 
" clip-path="url(#p81977f6ddc)" style="fill: none; stroke: #c44e52; stroke-opacity: 0.9; stroke-width: 3; stroke-linecap: round"/>
   </g>
   <g id="line2d_23">
    <path d="M 514.859911 97.121779 
L 518.428364 100.124793 
L 523.781044 104.513428 
L 528.420033 107.990327 
L 533.059022 111.177729 
L 537.698012 114.094347 
L 542.337001 116.757654 
L 547.332835 119.361304 
L 552.32867 121.709044 
L 557.324504 123.819244 
L 562.677184 125.835651 
L 568.029864 127.61736 
L 573.739389 129.278581 
L 579.448914 130.712232 
L 585.515285 132.007584 
L 591.938501 133.148037 
L 598.718562 134.119192 
L 605.855468 134.907697 
L 613.34922 135.503512 
L 621.199817 135.899719 
L 629.407259 136.092343 
L 638.328392 136.076608 
L 647.963216 135.831465 
L 658.31173 135.342114 
L 669.730781 134.572025 
L 684.361439 133.334048 
L 724.68496 129.899005 
L 743.597762 128.656504 
L 765.365327 127.439659 
L 775.000151 126.969296 
L 775.000151 126.969296 
" clip-path="url(#p81977f6ddc)" style="fill: none; stroke: #8172b3; stroke-opacity: 0.9; stroke-width: 3; stroke-linecap: round"/>
   </g>
   <g id="line2d_24">
    <path d="M 514.859911 97.121779 
L 519.855746 100.478042 
L 524.494735 103.455205 
L 529.490569 106.392598 
L 534.486404 109.070622 
L 539.482238 111.50742 
L 544.834918 113.869625 
L 550.187598 115.993274 
L 555.897123 118.015486 
L 561.606648 119.806339 
L 567.673019 121.476322 
L 574.096234 123.006292 
L 580.876296 124.380038 
L 587.656357 125.529297 
L 595.150108 126.566801 
L 603.000706 127.420459 
L 611.208148 128.085804 
L 620.129281 128.576645 
L 629.407259 128.862418 
L 639.398928 128.948793 
L 650.461133 128.817517 
L 662.593874 128.443272 
L 675.797151 127.811229 
L 745.025143 124.076151 
L 773.929615 122.940115 
L 775.000151 122.901718 
L 775.000151 122.901718 
" clip-path="url(#p81977f6ddc)" style="fill: none; stroke: #937860; stroke-opacity: 0.9; stroke-width: 3; stroke-linecap: round"/>
   </g>
   <g id="patch_6">
    <path d="M 501.852899 201.042 
L 501.852899 81.456 
" style="fill: none; stroke: #ffffff; stroke-width: 1.25; stroke-linejoin: miter; stroke-linecap: square"/>
   </g>
   <g id="patch_7">
    <path d="M 501.852899 201.042 
L 788.007162 201.042 
" style="fill: none; stroke: #ffffff; stroke-width: 1.25; stroke-linejoin: miter; stroke-linecap: square"/>
   </g>
   <g id="text_5">
    <!-- 0.8~365 -->
    <g style="fill: #262626" transform="translate(590.283437 75.456) scale(0.252 -0.252)">
     <defs>
      <path id="DejaVuSans-33" d="M 2597 2516 
Q 3050 2419 3304 2112 
Q 3559 1806 3559 1356 
Q 3559 666 3084 287 
Q 2609 -91 1734 -91 
Q 1441 -91 1130 -33 
Q 819 25 488 141 
L 488 750 
Q 750 597 1062 519 
Q 1375 441 1716 441 
Q 2309 441 2620 675 
Q 2931 909 2931 1356 
Q 2931 1769 2642 2001 
Q 2353 2234 1838 2234 
L 1294 2234 
L 1294 2753 
L 1863 2753 
Q 2328 2753 2575 2939 
Q 2822 3125 2822 3475 
Q 2822 3834 2567 4026 
Q 2313 4219 1838 4219 
Q 1578 4219 1281 4162 
Q 984 4106 628 3988 
L 628 4550 
Q 988 4650 1302 4700 
Q 1616 4750 1894 4750 
Q 2613 4750 3031 4423 
Q 3450 4097 3450 3541 
Q 3450 3153 3228 2886 
Q 3006 2619 2597 2516 
z
" transform="scale(0.015625)"/>
      <path id="DejaVuSans-36" d="M 2113 2584 
Q 1688 2584 1439 2293 
Q 1191 2003 1191 1497 
Q 1191 994 1439 701 
Q 1688 409 2113 409 
Q 2538 409 2786 701 
Q 3034 994 3034 1497 
Q 3034 2003 2786 2293 
Q 2538 2584 2113 2584 
z
M 3366 4563 
L 3366 3988 
Q 3128 4100 2886 4159 
Q 2644 4219 2406 4219 
Q 1781 4219 1451 3797 
Q 1122 3375 1075 2522 
Q 1259 2794 1537 2939 
Q 1816 3084 2150 3084 
Q 2853 3084 3261 2657 
Q 3669 2231 3669 1497 
Q 3669 778 3244 343 
Q 2819 -91 2113 -91 
Q 1303 -91 875 529 
Q 447 1150 447 2328 
Q 447 3434 972 4092 
Q 1497 4750 2381 4750 
Q 2619 4750 2861 4703 
Q 3103 4656 3366 4563 
z
" transform="scale(0.015625)"/>
     </defs>
     <use xlink:href="#DejaVuSans-30"/>
     <use xlink:href="#DejaVuSans-2e" x="63.623047"/>
     <use xlink:href="#DejaVuSans-38" x="95.410156"/>
     <use xlink:href="#DejaVuSans-7e" x="159.033203"/>
     <use xlink:href="#DejaVuSans-33" x="242.822266"/>
     <use xlink:href="#DejaVuSans-36" x="306.445312"/>
     <use xlink:href="#DejaVuSans-35" x="370.068359"/>
    </g>
   </g>
  </g>
  <g id="axes_3">
   <g id="patch_8">
    <path d="M 814.45531 201.042 
L 1100.609573 201.042 
L 1100.609573 81.456 
L 814.45531 81.456 
z
" style="fill: #eaeaf2"/>
   </g>
   <g id="matplotlib.axis_5">
    <g id="xtick_9">
     <g id="line2d_25">
      <path d="M 827.462322 201.042 
L 827.462322 81.456 
" clip-path="url(#p93b8d715c8)" style="fill: none; stroke: #ffffff; stroke-linecap: round"/>
     </g>
    </g>
    <g id="xtick_10">
     <g id="line2d_26">
      <path d="M 916.673652 201.042 
L 916.673652 81.456 
" clip-path="url(#p93b8d715c8)" style="fill: none; stroke: #ffffff; stroke-linecap: round"/>
     </g>
    </g>
    <g id="xtick_11">
     <g id="line2d_27">
      <path d="M 1005.884983 201.042 
L 1005.884983 81.456 
" clip-path="url(#p93b8d715c8)" style="fill: none; stroke: #ffffff; stroke-linecap: round"/>
     </g>
    </g>
    <g id="xtick_12">
     <g id="line2d_28">
      <path d="M 1095.096313 201.042 
L 1095.096313 81.456 
" clip-path="url(#p93b8d715c8)" style="fill: none; stroke: #ffffff; stroke-linecap: round"/>
     </g>
    </g>
   </g>
   <g id="matplotlib.axis_6">
    <g id="ytick_5">
     <g id="line2d_29">
      <path d="M 814.45531 151.025918 
L 1100.609573 151.025918 
" clip-path="url(#p93b8d715c8)" style="fill: none; stroke: #ffffff; stroke-linecap: round"/>
     </g>
    </g>
    <g id="ytick_6">
     <g id="line2d_30">
      <path d="M 814.45531 97.121779 
L 1100.609573 97.121779 
" clip-path="url(#p93b8d715c8)" style="fill: none; stroke: #ffffff; stroke-linecap: round"/>
     </g>
    </g>
   </g>
   <g id="PolyCollection_13"/>
   <g id="PolyCollection_14"/>
   <g id="PolyCollection_15"/>
   <g id="PolyCollection_16"/>
   <g id="PolyCollection_17"/>
   <g id="PolyCollection_18"/>
   <g id="line2d_31">
    <path d="M 827.462322 97.121779 
L 837.453991 105.360967 
L 841.022444 107.846109 
L 844.947743 110.300693 
L 848.873041 112.47859 
L 852.79834 114.394601 
L 856.723638 116.0625 
L 860.648937 117.495547 
L 864.931081 118.8103 
L 869.213225 119.88295 
L 873.495369 120.728426 
L 878.134358 121.404621 
L 882.773347 121.848467 
L 887.412336 122.076497 
L 892.408171 122.098613 
L 897.76085 121.885374 
L 903.11353 121.447764 
L 908.823055 120.756189 
L 914.889426 119.791962 
L 921.312642 118.541099 
L 928.806393 116.835276 
L 966.631997 107.943348 
L 978.764738 105.481082 
L 994.465933 102.53108 
L 1008.026055 100.180608 
L 1019.08826 98.487559 
L 1034.789454 96.320202 
L 1054.059101 93.893115 
L 1076.897202 91.247697 
L 1087.602561 90.071945 
L 1087.602561 90.071945 
" clip-path="url(#p93b8d715c8)" style="fill: none; stroke: #4c72b0; stroke-opacity: 0.9; stroke-width: 3; stroke-linecap: round"/>
   </g>
   <g id="line2d_32">
    <path d="M 827.462322 97.121779 
L 839.238218 102.393874 
L 844.234052 104.203792 
L 849.229887 105.778381 
L 854.582566 107.223881 
L 859.935246 108.437883 
L 865.644771 109.497288 
L 871.711142 110.382305 
L 877.777512 111.042188 
L 884.200728 111.517625 
L 890.980789 111.794501 
L 898.117696 111.86241 
L 905.611447 111.714553 
L 913.81889 111.326418 
L 922.740023 110.672076 
L 934.872764 109.521597 
L 992.681706 103.828498 
L 1028.723083 100.754377 
L 1046.922195 99.372367 
L 1076.183511 97.422611 
L 1087.602561 96.701257 
L 1087.602561 96.701257 
" clip-path="url(#p93b8d715c8)" style="fill: none; stroke: #dd8452; stroke-opacity: 0.9; stroke-width: 3; stroke-linecap: round"/>
   </g>
   <g id="line2d_33">
    <path d="M 827.462322 97.121779 
L 830.317085 99.769681 
L 835.312919 104.2795 
L 839.238218 107.470116 
L 843.163516 110.354313 
L 847.088815 112.947679 
L 851.014113 115.265528 
L 854.939412 117.327779 
L 859.221556 119.318537 
L 863.860545 121.216668 
L 868.856379 123.019824 
L 874.209059 124.715131 
L 879.561739 126.176868 
L 884.914419 127.410385 
L 890.623944 128.487833 
L 896.333469 129.339092 
L 902.042994 129.965845 
L 907.752519 130.368959 
L 913.462045 130.552151 
L 919.528415 130.515444 
L 925.594785 130.249882 
L 932.018001 129.742077 
L 938.798062 128.984121 
L 946.648659 127.88112 
L 956.997174 126.191014 
L 967.345688 124.27002 
L 1000.532303 117.897808 
L 1011.951353 116.087321 
L 1025.868321 114.119155 
L 1041.92636 112.080725 
L 1061.196008 109.865387 
L 1084.034108 107.472282 
L 1087.602561 107.11619 
L 1087.602561 107.11619 
" clip-path="url(#p93b8d715c8)" style="fill: none; stroke: #55a868; stroke-opacity: 0.9; stroke-width: 3; stroke-linecap: round"/>
   </g>
   <g id="line2d_34">
    <path d="M 827.462322 97.121779 
L 830.67393 99.466335 
L 835.669764 102.993161 
L 839.595063 105.481 
L 843.520362 107.72612 
L 847.802505 109.912387 
L 852.084649 111.840848 
L 856.723638 113.67929 
L 861.362628 115.289597 
L 866.715307 116.904504 
L 872.424833 118.392346 
L 878.491203 119.73077 
L 884.557573 120.837962 
L 890.623944 121.728359 
L 896.690314 122.398925 
L 902.756685 122.846218 
L 908.823055 123.067806 
L 914.889426 123.064782 
L 920.955796 122.841939 
L 927.022167 122.406356 
L 933.445383 121.724437 
L 940.939134 120.699827 
L 949.860267 119.24121 
L 975.55313 114.854819 
L 988.042717 113.012522 
L 1001.602839 111.258723 
L 1016.947188 109.508378 
L 1034.432609 107.736646 
L 1055.486483 105.836416 
L 1081.893036 103.686723 
L 1087.602561 103.246905 
L 1087.602561 103.246905 
" clip-path="url(#p93b8d715c8)" style="fill: none; stroke: #c44e52; stroke-opacity: 0.9; stroke-width: 3; stroke-linecap: round"/>
   </g>
   <g id="line2d_35">
    <path d="M 827.462322 97.121779 
L 831.744466 100.703004 
L 835.669764 103.834307 
L 839.238218 106.397455 
L 842.806671 108.704945 
L 846.731969 110.966277 
L 850.657268 112.95314 
L 854.582566 114.680765 
L 858.507865 116.168369 
L 862.433164 117.43314 
L 866.715307 118.57264 
L 870.997451 119.475649 
L 875.279595 120.156184 
L 879.918584 120.657879 
L 884.557573 120.930377 
L 889.553408 120.986444 
L 894.549242 120.814263 
L 899.901922 120.396208 
L 905.254602 119.756375 
L 910.964127 118.850076 
L 917.030498 117.656919 
L 923.453714 116.16389 
L 932.018001 113.914747 
L 946.291814 109.933251 
L 959.495091 106.274752 
L 969.48676 103.793967 
L 980.548965 101.272288 
L 991.254325 99.067281 
L 1000.889148 97.309432 
L 1011.237663 95.644407 
L 1023.370404 93.941577 
L 1038.714752 92.018598 
L 1056.913864 89.975789 
L 1079.395119 87.682993 
L 1087.602561 86.891727 
L 1087.602561 86.891727 
" clip-path="url(#p93b8d715c8)" style="fill: none; stroke: #8172b3; stroke-opacity: 0.9; stroke-width: 3; stroke-linecap: round"/>
   </g>
   <g id="line2d_36">
    <path d="M 827.462322 97.121779 
L 838.524527 104.139449 
L 842.806671 106.396443 
L 847.088815 108.387322 
L 851.370959 110.130594 
L 855.653102 111.6424 
L 860.292092 113.037322 
L 864.931081 114.199678 
L 869.57007 115.144479 
L 874.565904 115.934787 
L 879.561739 116.505813 
L 884.914419 116.891998 
L 890.623944 117.066841 
L 896.333469 117.018436 
L 902.39984 116.744083 
L 908.823055 116.226441 
L 915.603116 115.451772 
L 922.740023 114.411811 
L 931.661156 112.870021 
L 947.719195 109.869736 
L 964.847771 106.657431 
L 979.121584 104.260654 
L 992.681706 102.199553 
L 1006.241828 100.359207 
L 1019.445105 98.836563 
L 1035.85999 97.192551 
L 1057.9844 95.208408 
L 1086.532026 92.881596 
L 1087.602561 92.797852 
L 1087.602561 92.797852 
" clip-path="url(#p93b8d715c8)" style="fill: none; stroke: #937860; stroke-opacity: 0.9; stroke-width: 3; stroke-linecap: round"/>
   </g>
   <g id="patch_9">
    <path d="M 814.45531 201.042 
L 814.45531 81.456 
" style="fill: none; stroke: #ffffff; stroke-width: 1.25; stroke-linejoin: miter; stroke-linecap: square"/>
   </g>
   <g id="patch_10">
    <path d="M 814.45531 201.042 
L 1100.609573 201.042 
" style="fill: none; stroke: #ffffff; stroke-width: 1.25; stroke-linejoin: miter; stroke-linecap: square"/>
   </g>
   <g id="text_6">
    <!-- 0.85~90 -->
    <g style="fill: #262626" transform="translate(902.885848 75.456) scale(0.252 -0.252)">
     <use xlink:href="#DejaVuSans-30"/>
     <use xlink:href="#DejaVuSans-2e" x="63.623047"/>
     <use xlink:href="#DejaVuSans-38" x="95.410156"/>
     <use xlink:href="#DejaVuSans-35" x="159.033203"/>
     <use xlink:href="#DejaVuSans-7e" x="222.65625"/>
     <use xlink:href="#DejaVuSans-39" x="306.445312"/>
     <use xlink:href="#DejaVuSans-30" x="370.068359"/>
    </g>
   </g>
  </g>
  <g id="axes_4">
   <g id="patch_11">
    <path d="M 189.250488 373.284 
L 475.404752 373.284 
L 475.404752 253.698 
L 189.250488 253.698 
z
" style="fill: #eaeaf2"/>
   </g>
   <g id="matplotlib.axis_7">
    <g id="xtick_13">
     <g id="line2d_37">
      <path d="M 202.2575 373.284 
L 202.2575 253.698 
" clip-path="url(#p7eb5b68319)" style="fill: none; stroke: #ffffff; stroke-linecap: round"/>
     </g>
     <g id="text_7">
      <!-- 0 -->
      <g style="fill: #262626" transform="translate(194.908813 400.336391) scale(0.231 -0.231)">
       <use xlink:href="#DejaVuSans-30"/>
      </g>
     </g>
    </g>
    <g id="xtick_14">
     <g id="line2d_38">
      <path d="M 291.468831 373.284 
L 291.468831 253.698 
" clip-path="url(#p7eb5b68319)" style="fill: none; stroke: #ffffff; stroke-linecap: round"/>
     </g>
     <g id="text_8">
      <!-- 250 -->
      <g style="fill: #262626" transform="translate(269.422768 400.336391) scale(0.231 -0.231)">
       <use xlink:href="#DejaVuSans-32"/>
       <use xlink:href="#DejaVuSans-35" x="63.623047"/>
       <use xlink:href="#DejaVuSans-30" x="127.246094"/>
      </g>
     </g>
    </g>
    <g id="xtick_15">
     <g id="line2d_39">
      <path d="M 380.680161 373.284 
L 380.680161 253.698 
" clip-path="url(#p7eb5b68319)" style="fill: none; stroke: #ffffff; stroke-linecap: round"/>
     </g>
     <g id="text_9">
      <!-- 500 -->
      <g style="fill: #262626" transform="translate(358.634098 400.336391) scale(0.231 -0.231)">
       <use xlink:href="#DejaVuSans-35"/>
       <use xlink:href="#DejaVuSans-30" x="63.623047"/>
       <use xlink:href="#DejaVuSans-30" x="127.246094"/>
      </g>
     </g>
    </g>
    <g id="xtick_16">
     <g id="line2d_40">
      <path d="M 469.891491 373.284 
L 469.891491 253.698 
" clip-path="url(#p7eb5b68319)" style="fill: none; stroke: #ffffff; stroke-linecap: round"/>
     </g>
     <g id="text_10">
      <!-- 750 -->
      <g style="fill: #262626" transform="translate(447.845429 400.336391) scale(0.231 -0.231)">
       <defs>
        <path id="DejaVuSans-37" d="M 525 4666 
L 3525 4666 
L 3525 4397 
L 1831 0 
L 1172 0 
L 2766 4134 
L 525 4134 
L 525 4666 
z
" transform="scale(0.015625)"/>
       </defs>
       <use xlink:href="#DejaVuSans-37"/>
       <use xlink:href="#DejaVuSans-35" x="63.623047"/>
       <use xlink:href="#DejaVuSans-30" x="127.246094"/>
      </g>
     </g>
    </g>
    <g id="text_11">
     <!-- step -->
     <g style="fill: #262626" transform="translate(305.072245 428.288531) scale(0.252 -0.252)">
      <defs>
       <path id="DejaVuSans-73" d="M 2834 3397 
L 2834 2853 
Q 2591 2978 2328 3040 
Q 2066 3103 1784 3103 
Q 1356 3103 1142 2972 
Q 928 2841 928 2578 
Q 928 2378 1081 2264 
Q 1234 2150 1697 2047 
L 1894 2003 
Q 2506 1872 2764 1633 
Q 3022 1394 3022 966 
Q 3022 478 2636 193 
Q 2250 -91 1575 -91 
Q 1294 -91 989 -36 
Q 684 19 347 128 
L 347 722 
Q 666 556 975 473 
Q 1284 391 1588 391 
Q 1994 391 2212 530 
Q 2431 669 2431 922 
Q 2431 1156 2273 1281 
Q 2116 1406 1581 1522 
L 1381 1569 
Q 847 1681 609 1914 
Q 372 2147 372 2553 
Q 372 3047 722 3315 
Q 1072 3584 1716 3584 
Q 2034 3584 2315 3537 
Q 2597 3491 2834 3397 
z
" transform="scale(0.015625)"/>
       <path id="DejaVuSans-74" d="M 1172 4494 
L 1172 3500 
L 2356 3500 
L 2356 3053 
L 1172 3053 
L 1172 1153 
Q 1172 725 1289 603 
Q 1406 481 1766 481 
L 2356 481 
L 2356 0 
L 1766 0 
Q 1100 0 847 248 
Q 594 497 594 1153 
L 594 3053 
L 172 3053 
L 172 3500 
L 594 3500 
L 594 4494 
L 1172 4494 
z
" transform="scale(0.015625)"/>
       <path id="DejaVuSans-70" d="M 1159 525 
L 1159 -1331 
L 581 -1331 
L 581 3500 
L 1159 3500 
L 1159 2969 
Q 1341 3281 1617 3432 
Q 1894 3584 2278 3584 
Q 2916 3584 3314 3078 
Q 3713 2572 3713 1747 
Q 3713 922 3314 415 
Q 2916 -91 2278 -91 
Q 1894 -91 1617 61 
Q 1341 213 1159 525 
z
M 3116 1747 
Q 3116 2381 2855 2742 
Q 2594 3103 2138 3103 
Q 1681 3103 1420 2742 
Q 1159 2381 1159 1747 
Q 1159 1113 1420 752 
Q 1681 391 2138 391 
Q 2594 391 2855 752 
Q 3116 1113 3116 1747 
z
" transform="scale(0.015625)"/>
      </defs>
      <use xlink:href="#DejaVuSans-73"/>
      <use xlink:href="#DejaVuSans-74" x="52.099609"/>
      <use xlink:href="#DejaVuSans-65" x="91.308594"/>
      <use xlink:href="#DejaVuSans-70" x="152.832031"/>
     </g>
    </g>
   </g>
   <g id="matplotlib.axis_8">
    <g id="ytick_7">
     <g id="line2d_41">
      <path d="M 189.250488 323.267918 
L 475.404752 323.267918 
" clip-path="url(#p7eb5b68319)" style="fill: none; stroke: #ffffff; stroke-linecap: round"/>
     </g>
     <g id="text_12">
      <!-- −0.25 -->
      <g style="fill: #262626" transform="translate(108.959816 332.044113) scale(0.231 -0.231)">
       <use xlink:href="#DejaVuSans-2212"/>
       <use xlink:href="#DejaVuSans-30" x="83.789062"/>
       <use xlink:href="#DejaVuSans-2e" x="147.412109"/>
       <use xlink:href="#DejaVuSans-32" x="179.199219"/>
       <use xlink:href="#DejaVuSans-35" x="242.822266"/>
      </g>
     </g>
    </g>
    <g id="ytick_8">
     <g id="line2d_42">
      <path d="M 189.250488 269.363779 
L 475.404752 269.363779 
" clip-path="url(#p7eb5b68319)" style="fill: none; stroke: #ffffff; stroke-linecap: round"/>
     </g>
     <g id="text_13">
      <!-- 0.00 -->
      <g style="fill: #262626" transform="translate(128.316894 278.139974) scale(0.231 -0.231)">
       <use xlink:href="#DejaVuSans-30"/>
       <use xlink:href="#DejaVuSans-2e" x="63.623047"/>
       <use xlink:href="#DejaVuSans-30" x="95.410156"/>
       <use xlink:href="#DejaVuSans-30" x="159.033203"/>
      </g>
     </g>
    </g>
    <g id="text_14">
     <!-- % change -->
     <g style="fill: #262626" transform="translate(99.719004 375.839344) rotate(-90) scale(0.252 -0.252)">
      <use xlink:href="#DejaVuSans-25"/>
      <use xlink:href="#DejaVuSans-20" x="95.019531"/>
      <use xlink:href="#DejaVuSans-63" x="126.806641"/>
      <use xlink:href="#DejaVuSans-68" x="181.787109"/>
      <use xlink:href="#DejaVuSans-61" x="245.166016"/>
      <use xlink:href="#DejaVuSans-6e" x="306.445312"/>
      <use xlink:href="#DejaVuSans-67" x="369.824219"/>
      <use xlink:href="#DejaVuSans-65" x="433.300781"/>
     </g>
    </g>
   </g>
   <g id="PolyCollection_19"/>
   <g id="PolyCollection_20"/>
   <g id="PolyCollection_21"/>
   <g id="PolyCollection_22"/>
   <g id="PolyCollection_23"/>
   <g id="PolyCollection_24"/>
   <g id="line2d_43">
    <path d="M 202.2575 269.363779 
L 206.182799 272.789107 
L 210.108097 276.091053 
L 214.747086 279.682598 
L 219.386076 282.982245 
L 224.025065 286.00863 
L 228.664054 288.779108 
L 233.659888 291.495154 
L 238.655723 293.952332 
L 243.651557 296.168776 
L 249.004237 298.29518 
L 254.356917 300.183292 
L 260.066442 301.954535 
L 265.775967 303.494553 
L 271.842338 304.898128 
L 278.265554 306.146502 
L 285.045615 307.226879 
L 292.182521 308.126686 
L 299.676273 308.836385 
L 307.52687 309.349669 
L 315.734312 309.663293 
L 324.655445 309.777241 
L 334.290269 309.669776 
L 344.638783 309.325979 
L 356.057834 308.71532 
L 369.617956 307.749253 
L 400.663499 305.517488 
L 419.576301 304.423344 
L 442.414402 303.329824 
L 462.39774 302.481303 
L 462.39774 302.481303 
" clip-path="url(#p7eb5b68319)" style="fill: none; stroke: #4c72b0; stroke-opacity: 0.9; stroke-width: 3; stroke-linecap: round"/>
   </g>
   <g id="line2d_44">
    <path d="M 202.2575 269.363779 
L 206.896489 271.604355 
L 210.821788 273.398132 
L 216.531313 275.780908 
L 222.240838 277.928074 
L 228.307209 279.972219 
L 234.730424 281.892661 
L 241.15364 283.584505 
L 247.933701 285.146894 
L 255.070608 286.567029 
L 262.564359 287.834854 
L 270.414957 288.943527 
L 278.979244 289.92543 
L 288.257223 290.755305 
L 298.248892 291.416261 
L 308.954251 291.894847 
L 320.730147 292.189518 
L 333.576578 292.28083 
L 347.850391 292.153053 
L 363.908431 291.780818 
L 434.92065 289.816578 
L 462.39774 289.261509 
L 462.39774 289.261509 
" clip-path="url(#p7eb5b68319)" style="fill: none; stroke: #dd8452; stroke-opacity: 0.9; stroke-width: 3; stroke-linecap: round"/>
   </g>
   <g id="line2d_45">
    <path d="M 202.2575 269.363779 
L 204.755417 271.686802 
L 210.821788 277.258528 
L 215.460777 281.174218 
L 220.099766 284.796771 
L 224.738755 288.142537 
L 229.73459 291.459022 
L 235.08727 294.727858 
L 240.796795 297.950526 
L 247.576856 301.503495 
L 254.713762 304.987364 
L 261.850669 308.21387 
L 268.987575 311.186987 
L 276.481327 314.065517 
L 283.975079 316.699478 
L 291.111985 318.977095 
L 298.248892 321.026507 
L 305.385798 322.845129 
L 312.522704 324.429887 
L 319.659611 325.778163 
L 326.439672 326.838935 
L 333.219733 327.684553 
L 339.999794 328.31589 
L 346.779855 328.732858 
L 353.916762 328.942403 
L 361.053668 328.920626 
L 368.54742 328.663091 
L 376.754862 328.139665 
L 425.999517 324.475543 
L 445.982855 323.336347 
L 462.39774 322.542912 
L 462.39774 322.542912 
" clip-path="url(#p7eb5b68319)" style="fill: none; stroke: #55a868; stroke-opacity: 0.9; stroke-width: 3; stroke-linecap: round"/>
   </g>
   <g id="line2d_46">
    <path d="M 202.2575 269.363779 
L 205.112263 271.455517 
L 211.178633 275.823748 
L 216.174468 279.113931 
L 221.170302 282.136061 
L 226.166137 284.90662 
L 231.875662 287.810394 
L 237.942032 290.642358 
L 244.722093 293.552088 
L 252.215845 296.522157 
L 259.709597 299.263276 
L 267.917039 302.022014 
L 275.767636 304.425859 
L 283.261388 306.494159 
L 290.75514 308.332583 
L 297.892046 309.863045 
L 305.028953 311.17361 
L 312.165859 312.259646 
L 319.302766 313.115993 
L 326.439672 313.739518 
L 333.576578 314.132371 
L 340.713485 314.308404 
L 348.207237 314.266541 
L 356.414679 313.99089 
L 369.261111 313.312659 
L 424.21529 310.161791 
L 446.3397 309.230751 
L 462.39774 308.662155 
L 462.39774 308.662155 
" clip-path="url(#p7eb5b68319)" style="fill: none; stroke: #c44e52; stroke-opacity: 0.9; stroke-width: 3; stroke-linecap: round"/>
   </g>
   <g id="line2d_47">
    <path d="M 202.2575 269.363779 
L 205.825953 272.366793 
L 211.178633 276.755428 
L 215.817622 280.232327 
L 220.456612 283.419729 
L 225.095601 286.336347 
L 229.73459 288.999654 
L 234.730424 291.603304 
L 239.726259 293.951044 
L 244.722093 296.061244 
L 250.074773 298.077651 
L 255.427453 299.85936 
L 261.136978 301.520581 
L 266.846503 302.954232 
L 272.912874 304.249584 
L 279.33609 305.390037 
L 286.116151 306.361192 
L 293.253057 307.149697 
L 300.746809 307.745512 
L 308.597406 308.141719 
L 316.804848 308.334343 
L 325.725981 308.318608 
L 335.360805 308.073465 
L 345.709319 307.584114 
L 357.12837 306.814025 
L 371.759028 305.576048 
L 412.082549 302.141005 
L 430.995351 300.898504 
L 452.762916 299.681659 
L 462.39774 299.211296 
L 462.39774 299.211296 
" clip-path="url(#p7eb5b68319)" style="fill: none; stroke: #8172b3; stroke-opacity: 0.9; stroke-width: 3; stroke-linecap: round"/>
   </g>
   <g id="line2d_48">
    <path d="M 202.2575 269.363779 
L 207.253335 272.720042 
L 211.892324 275.697205 
L 216.888158 278.634598 
L 221.883993 281.312622 
L 226.879827 283.74942 
L 232.232507 286.111625 
L 237.585187 288.235274 
L 243.294712 290.257486 
L 249.004237 292.048339 
L 255.070608 293.718322 
L 261.493823 295.248292 
L 268.273885 296.622038 
L 275.053946 297.771297 
L 282.547697 298.808801 
L 290.398295 299.662459 
L 298.605737 300.327804 
L 307.52687 300.818645 
L 316.804848 301.104418 
L 326.796517 301.190793 
L 337.858722 301.059517 
L 349.991463 300.685272 
L 363.19474 300.053229 
L 432.422733 296.318151 
L 461.327204 295.182115 
L 462.39774 295.143718 
L 462.39774 295.143718 
" clip-path="url(#p7eb5b68319)" style="fill: none; stroke: #937860; stroke-opacity: 0.9; stroke-width: 3; stroke-linecap: round"/>
   </g>
   <g id="patch_12">
    <path d="M 189.250488 373.284 
L 189.250488 253.698 
" style="fill: none; stroke: #ffffff; stroke-width: 1.25; stroke-linejoin: miter; stroke-linecap: square"/>
   </g>
   <g id="patch_13">
    <path d="M 189.250488 373.284 
L 475.404752 373.284 
" style="fill: none; stroke: #ffffff; stroke-width: 1.25; stroke-linejoin: miter; stroke-linecap: square"/>
   </g>
   <g id="text_15">
    <!-- 0.85~365 -->
    <g style="fill: #262626" transform="translate(269.664276 247.698) scale(0.252 -0.252)">
     <use xlink:href="#DejaVuSans-30"/>
     <use xlink:href="#DejaVuSans-2e" x="63.623047"/>
     <use xlink:href="#DejaVuSans-38" x="95.410156"/>
     <use xlink:href="#DejaVuSans-35" x="159.033203"/>
     <use xlink:href="#DejaVuSans-7e" x="222.65625"/>
     <use xlink:href="#DejaVuSans-33" x="306.445312"/>
     <use xlink:href="#DejaVuSans-36" x="370.068359"/>
     <use xlink:href="#DejaVuSans-35" x="433.691406"/>
    </g>
   </g>
  </g>
  <g id="axes_5">
   <g id="patch_14">
    <path d="M 501.852899 373.284 
L 788.007162 373.284 
L 788.007162 253.698 
L 501.852899 253.698 
z
" style="fill: #eaeaf2"/>
   </g>
   <g id="matplotlib.axis_9">
    <g id="xtick_17">
     <g id="line2d_49">
      <path d="M 514.859911 373.284 
L 514.859911 253.698 
" clip-path="url(#p517bdff0b1)" style="fill: none; stroke: #ffffff; stroke-linecap: round"/>
     </g>
     <g id="text_16">
      <!-- 0 -->
      <g style="fill: #262626" transform="translate(507.511224 400.336391) scale(0.231 -0.231)">
       <use xlink:href="#DejaVuSans-30"/>
      </g>
     </g>
    </g>
    <g id="xtick_18">
     <g id="line2d_50">
      <path d="M 604.071241 373.284 
L 604.071241 253.698 
" clip-path="url(#p517bdff0b1)" style="fill: none; stroke: #ffffff; stroke-linecap: round"/>
     </g>
     <g id="text_17">
      <!-- 250 -->
      <g style="fill: #262626" transform="translate(582.025179 400.336391) scale(0.231 -0.231)">
       <use xlink:href="#DejaVuSans-32"/>
       <use xlink:href="#DejaVuSans-35" x="63.623047"/>
       <use xlink:href="#DejaVuSans-30" x="127.246094"/>
      </g>
     </g>
    </g>
    <g id="xtick_19">
     <g id="line2d_51">
      <path d="M 693.282572 373.284 
L 693.282572 253.698 
" clip-path="url(#p517bdff0b1)" style="fill: none; stroke: #ffffff; stroke-linecap: round"/>
     </g>
     <g id="text_18">
      <!-- 500 -->
      <g style="fill: #262626" transform="translate(671.236509 400.336391) scale(0.231 -0.231)">
       <use xlink:href="#DejaVuSans-35"/>
       <use xlink:href="#DejaVuSans-30" x="63.623047"/>
       <use xlink:href="#DejaVuSans-30" x="127.246094"/>
      </g>
     </g>
    </g>
    <g id="xtick_20">
     <g id="line2d_52">
      <path d="M 782.493902 373.284 
L 782.493902 253.698 
" clip-path="url(#p517bdff0b1)" style="fill: none; stroke: #ffffff; stroke-linecap: round"/>
     </g>
     <g id="text_19">
      <!-- 750 -->
      <g style="fill: #262626" transform="translate(760.44784 400.336391) scale(0.231 -0.231)">
       <use xlink:href="#DejaVuSans-37"/>
       <use xlink:href="#DejaVuSans-35" x="63.623047"/>
       <use xlink:href="#DejaVuSans-30" x="127.246094"/>
      </g>
     </g>
    </g>
    <g id="text_20">
     <!-- step -->
     <g style="fill: #262626" transform="translate(617.674656 428.288531) scale(0.252 -0.252)">
      <use xlink:href="#DejaVuSans-73"/>
      <use xlink:href="#DejaVuSans-74" x="52.099609"/>
      <use xlink:href="#DejaVuSans-65" x="91.308594"/>
      <use xlink:href="#DejaVuSans-70" x="152.832031"/>
     </g>
    </g>
   </g>
   <g id="matplotlib.axis_10">
    <g id="ytick_9">
     <g id="line2d_53">
      <path d="M 501.852899 323.267918 
L 788.007162 323.267918 
" clip-path="url(#p517bdff0b1)" style="fill: none; stroke: #ffffff; stroke-linecap: round"/>
     </g>
    </g>
    <g id="ytick_10">
     <g id="line2d_54">
      <path d="M 501.852899 269.363779 
L 788.007162 269.363779 
" clip-path="url(#p517bdff0b1)" style="fill: none; stroke: #ffffff; stroke-linecap: round"/>
     </g>
    </g>
   </g>
   <g id="PolyCollection_25"/>
   <g id="PolyCollection_26"/>
   <g id="PolyCollection_27"/>
   <g id="PolyCollection_28"/>
   <g id="PolyCollection_29"/>
   <g id="PolyCollection_30"/>
   <g id="line2d_55">
    <path d="M 514.859911 269.363779 
L 524.85158 277.602967 
L 528.420033 280.088109 
L 532.345332 282.542693 
L 536.27063 284.72059 
L 540.195929 286.636601 
L 544.478073 288.461386 
L 554.469742 292.593408 
L 559.108731 295.102729 
L 563.034029 297.126996 
L 565.531947 298.175505 
L 567.673019 298.841008 
L 569.814091 299.253492 
L 572.312008 299.47227 
L 575.880461 299.554027 
L 580.876296 299.398134 
L 586.228975 298.995965 
L 591.581655 298.374225 
L 597.29118 297.491503 
L 603.357551 296.330128 
L 610.137612 294.793941 
L 624.76827 291.140973 
L 642.967382 286.589942 
L 654.029586 284.063161 
L 666.519173 281.451443 
L 681.863522 278.472325 
L 695.066798 276.113398 
L 706.129003 274.373685 
L 721.830198 272.139967 
L 741.099845 269.631003 
L 763.937946 266.889757 
L 775.000151 265.629403 
L 775.000151 265.629403 
" clip-path="url(#p517bdff0b1)" style="fill: none; stroke: #4c72b0; stroke-opacity: 0.9; stroke-width: 3; stroke-linecap: round"/>
   </g>
   <g id="line2d_56">
    <path d="M 514.859911 269.363779 
L 526.635807 274.635874 
L 531.631641 276.445792 
L 536.627476 278.020381 
L 541.980156 279.465881 
L 547.332835 280.679883 
L 553.04236 281.739288 
L 559.108731 282.624305 
L 565.175101 283.284188 
L 571.598317 283.759625 
L 578.378378 284.036501 
L 585.515285 284.10441 
L 593.009036 283.956553 
L 601.216479 283.568418 
L 610.137612 282.914076 
L 622.270353 281.763597 
L 680.079295 276.070498 
L 716.120672 272.996377 
L 734.319784 271.614367 
L 763.5811 269.664611 
L 775.000151 268.943257 
L 775.000151 268.943257 
" clip-path="url(#p517bdff0b1)" style="fill: none; stroke: #dd8452; stroke-opacity: 0.9; stroke-width: 3; stroke-linecap: round"/>
   </g>
   <g id="line2d_57">
    <path d="M 514.859911 269.363779 
L 517.714674 272.011681 
L 522.710508 276.5215 
L 526.635807 279.712116 
L 530.561105 282.598723 
L 534.486404 285.208981 
L 539.125393 288.019832 
L 548.046526 293.366027 
L 559.465576 300.556736 
L 569.1004 306.53964 
L 575.523616 310.280099 
L 580.876296 313.150694 
L 585.87213 315.574417 
L 590.511119 317.567863 
L 594.793263 319.162682 
L 598.718562 320.401968 
L 602.64386 321.418811 
L 606.569159 322.206231 
L 610.494457 322.758189 
L 614.419756 323.077358 
L 618.7019 323.199091 
L 623.697734 323.107512 
L 630.834641 322.733683 
L 673.656079 320.004399 
L 686.502511 318.96103 
L 696.137334 317.965025 
L 705.415313 316.78692 
L 714.693291 315.389172 
L 743.597762 310.815456 
L 761.796874 308.308072 
L 775.000151 306.597324 
L 775.000151 306.597324 
" clip-path="url(#p517bdff0b1)" style="fill: none; stroke: #55a868; stroke-opacity: 0.9; stroke-width: 3; stroke-linecap: round"/>
   </g>
   <g id="line2d_58">
    <path d="M 514.859911 269.363779 
L 518.071519 271.708335 
L 523.067353 275.235161 
L 526.992652 277.723 
L 531.274796 280.166775 
L 535.913785 282.55209 
L 548.760217 288.972641 
L 555.897123 292.897065 
L 576.237306 304.240573 
L 581.946832 307.073999 
L 586.942666 309.314265 
L 591.581655 311.160503 
L 595.863799 312.639592 
L 600.145943 313.882677 
L 604.428087 314.878649 
L 608.353385 315.570374 
L 612.635529 316.090804 
L 617.274518 316.40561 
L 622.270353 316.512068 
L 627.623033 316.402654 
L 634.403094 316.02884 
L 648.676907 314.982532 
L 665.091791 313.561099 
L 678.651914 312.152344 
L 689.714119 310.788247 
L 701.133169 309.145618 
L 720.045971 306.394357 
L 736.460856 304.266716 
L 758.22842 301.681005 
L 775.000151 299.806802 
L 775.000151 299.806802 
" clip-path="url(#p517bdff0b1)" style="fill: none; stroke: #c44e52; stroke-opacity: 0.9; stroke-width: 3; stroke-linecap: round"/>
   </g>
   <g id="line2d_59">
    <path d="M 514.859911 269.363779 
L 519.142055 272.945004 
L 523.067353 276.076307 
L 526.635807 278.639455 
L 530.20426 280.946945 
L 534.129558 283.208277 
L 538.054857 285.19514 
L 541.980156 286.922765 
L 545.905454 288.410369 
L 549.830753 289.67514 
L 554.112896 290.81464 
L 558.39504 291.717649 
L 562.677184 292.398184 
L 567.316173 292.899879 
L 571.955163 293.172377 
L 576.950997 293.228444 
L 581.946832 293.056263 
L 587.299511 292.638208 
L 592.652191 291.998375 
L 598.361716 291.092076 
L 604.428087 289.898919 
L 610.851303 288.40589 
L 619.41559 286.156747 
L 633.689403 282.175251 
L 646.89268 278.516752 
L 656.884349 276.035967 
L 667.946554 273.514288 
L 678.651914 271.309281 
L 688.286737 269.551432 
L 698.635252 267.886407 
L 710.767993 266.183577 
L 726.112341 264.260598 
L 744.311453 262.217789 
L 766.792708 259.924993 
L 775.000151 259.133727 
L 775.000151 259.133727 
" clip-path="url(#p517bdff0b1)" style="fill: none; stroke: #8172b3; stroke-opacity: 0.9; stroke-width: 3; stroke-linecap: round"/>
   </g>
   <g id="line2d_60">
    <path d="M 514.859911 269.363779 
L 525.922116 276.381449 
L 530.20426 278.638443 
L 534.486404 280.629322 
L 538.768548 282.372594 
L 543.050691 283.8844 
L 547.689681 285.279322 
L 552.32867 286.441678 
L 556.967659 287.386479 
L 561.963494 288.176787 
L 566.959328 288.747813 
L 572.312008 289.133998 
L 578.021533 289.308841 
L 583.731058 289.260436 
L 589.797429 288.986083 
L 596.220644 288.468441 
L 603.000706 287.693772 
L 610.137612 286.653811 
L 619.058745 285.112021 
L 635.116784 282.111736 
L 652.24536 278.899431 
L 666.519173 276.502654 
L 680.079295 274.441553 
L 693.639417 272.601207 
L 706.842694 271.078563 
L 723.257579 269.434551 
L 745.381989 267.450408 
L 773.929615 265.123596 
L 775.000151 265.039852 
L 775.000151 265.039852 
" clip-path="url(#p517bdff0b1)" style="fill: none; stroke: #937860; stroke-opacity: 0.9; stroke-width: 3; stroke-linecap: round"/>
   </g>
   <g id="patch_15">
    <path d="M 501.852899 373.284 
L 501.852899 253.698 
" style="fill: none; stroke: #ffffff; stroke-width: 1.25; stroke-linejoin: miter; stroke-linecap: square"/>
   </g>
   <g id="patch_16">
    <path d="M 501.852899 373.284 
L 788.007162 373.284 
" style="fill: none; stroke: #ffffff; stroke-width: 1.25; stroke-linejoin: miter; stroke-linecap: square"/>
   </g>
   <g id="text_21">
    <!-- 0.95~90 -->
    <g style="fill: #262626" transform="translate(590.283437 247.698) scale(0.252 -0.252)">
     <use xlink:href="#DejaVuSans-30"/>
     <use xlink:href="#DejaVuSans-2e" x="63.623047"/>
     <use xlink:href="#DejaVuSans-39" x="95.410156"/>
     <use xlink:href="#DejaVuSans-35" x="159.033203"/>
     <use xlink:href="#DejaVuSans-7e" x="222.65625"/>
     <use xlink:href="#DejaVuSans-39" x="306.445312"/>
     <use xlink:href="#DejaVuSans-30" x="370.068359"/>
    </g>
   </g>
  </g>
  <g id="axes_6">
   <g id="patch_17">
    <path d="M 814.45531 373.284 
L 1100.609573 373.284 
L 1100.609573 253.698 
L 814.45531 253.698 
z
" style="fill: #eaeaf2"/>
   </g>
   <g id="matplotlib.axis_11">
    <g id="xtick_21">
     <g id="line2d_61">
      <path d="M 827.462322 373.284 
L 827.462322 253.698 
" clip-path="url(#p4c80b2b408)" style="fill: none; stroke: #ffffff; stroke-linecap: round"/>
     </g>
     <g id="text_22">
      <!-- 0 -->
      <g style="fill: #262626" transform="translate(820.113635 400.336391) scale(0.231 -0.231)">
       <use xlink:href="#DejaVuSans-30"/>
      </g>
     </g>
    </g>
    <g id="xtick_22">
     <g id="line2d_62">
      <path d="M 916.673652 373.284 
L 916.673652 253.698 
" clip-path="url(#p4c80b2b408)" style="fill: none; stroke: #ffffff; stroke-linecap: round"/>
     </g>
     <g id="text_23">
      <!-- 250 -->
      <g style="fill: #262626" transform="translate(894.62759 400.336391) scale(0.231 -0.231)">
       <use xlink:href="#DejaVuSans-32"/>
       <use xlink:href="#DejaVuSans-35" x="63.623047"/>
       <use xlink:href="#DejaVuSans-30" x="127.246094"/>
      </g>
     </g>
    </g>
    <g id="xtick_23">
     <g id="line2d_63">
      <path d="M 1005.884983 373.284 
L 1005.884983 253.698 
" clip-path="url(#p4c80b2b408)" style="fill: none; stroke: #ffffff; stroke-linecap: round"/>
     </g>
     <g id="text_24">
      <!-- 500 -->
      <g style="fill: #262626" transform="translate(983.83892 400.336391) scale(0.231 -0.231)">
       <use xlink:href="#DejaVuSans-35"/>
       <use xlink:href="#DejaVuSans-30" x="63.623047"/>
       <use xlink:href="#DejaVuSans-30" x="127.246094"/>
      </g>
     </g>
    </g>
    <g id="xtick_24">
     <g id="line2d_64">
      <path d="M 1095.096313 373.284 
L 1095.096313 253.698 
" clip-path="url(#p4c80b2b408)" style="fill: none; stroke: #ffffff; stroke-linecap: round"/>
     </g>
     <g id="text_25">
      <!-- 750 -->
      <g style="fill: #262626" transform="translate(1073.050251 400.336391) scale(0.231 -0.231)">
       <use xlink:href="#DejaVuSans-37"/>
       <use xlink:href="#DejaVuSans-35" x="63.623047"/>
       <use xlink:href="#DejaVuSans-30" x="127.246094"/>
      </g>
     </g>
    </g>
    <g id="text_26">
     <!-- step -->
     <g style="fill: #262626" transform="translate(930.277067 428.288531) scale(0.252 -0.252)">
      <use xlink:href="#DejaVuSans-73"/>
      <use xlink:href="#DejaVuSans-74" x="52.099609"/>
      <use xlink:href="#DejaVuSans-65" x="91.308594"/>
      <use xlink:href="#DejaVuSans-70" x="152.832031"/>
     </g>
    </g>
   </g>
   <g id="matplotlib.axis_12">
    <g id="ytick_11">
     <g id="line2d_65">
      <path d="M 814.45531 323.267918 
L 1100.609573 323.267918 
" clip-path="url(#p4c80b2b408)" style="fill: none; stroke: #ffffff; stroke-linecap: round"/>
     </g>
    </g>
    <g id="ytick_12">
     <g id="line2d_66">
      <path d="M 814.45531 269.363779 
L 1100.609573 269.363779 
" clip-path="url(#p4c80b2b408)" style="fill: none; stroke: #ffffff; stroke-linecap: round"/>
     </g>
    </g>
   </g>
   <g id="PolyCollection_31"/>
   <g id="PolyCollection_32"/>
   <g id="PolyCollection_33"/>
   <g id="PolyCollection_34"/>
   <g id="PolyCollection_35"/>
   <g id="PolyCollection_36"/>
   <g id="line2d_67">
    <path d="M 827.462322 269.363779 
L 831.387621 272.789107 
L 835.312919 276.091053 
L 839.951908 279.682598 
L 844.590897 282.982245 
L 849.229887 286.00863 
L 853.868876 288.779108 
L 857.437329 290.915099 
L 858.86471 292.041488 
L 860.648937 293.776744 
L 862.433164 295.834318 
L 864.574235 298.662811 
L 867.072153 302.389916 
L 869.926915 307.113223 
L 873.138523 312.87435 
L 877.777512 321.701919 
L 885.984955 337.402785 
L 889.553408 343.72246 
L 892.408171 348.357256 
L 894.906088 352.021487 
L 897.04716 354.82087 
L 899.188232 357.263879 
L 900.972458 359.000326 
L 902.756685 360.443093 
L 904.540911 361.573795 
L 905.968293 362.243604 
L 907.395674 362.71135 
L 909.179901 363.065419 
L 911.677818 363.322652 
L 918.457879 363.636123 
L 925.594785 363.75017 
L 933.445383 363.647732 
L 941.652825 363.315186 
L 950.573958 362.728143 
L 960.922472 361.819617 
L 972.341523 360.586549 
L 987.685871 358.681956 
L 1020.158796 354.66057 
L 1034.075763 353.146322 
L 1049.420112 351.699263 
L 1067.976069 350.170494 
L 1087.602561 348.792673 
L 1087.602561 348.792673 
" clip-path="url(#p4c80b2b408)" style="fill: none; stroke: #4c72b0; stroke-opacity: 0.9; stroke-width: 3; stroke-linecap: round"/>
   </g>
   <g id="line2d_68">
    <path d="M 827.462322 269.363779 
L 832.101311 271.604355 
L 836.02661 273.398132 
L 841.736135 275.780908 
L 847.44566 277.928074 
L 853.512031 279.972219 
L 859.935246 281.892661 
L 866.358462 283.584505 
L 873.138523 285.146894 
L 880.27543 286.567029 
L 887.769181 287.834854 
L 895.619778 288.943527 
L 904.184066 289.92543 
L 913.462045 290.755305 
L 923.453714 291.416261 
L 934.159073 291.894847 
L 945.934969 292.189518 
L 958.7814 292.28083 
L 973.055213 292.153053 
L 989.113253 291.780818 
L 1060.125472 289.816578 
L 1087.602561 289.261509 
L 1087.602561 289.261509 
" clip-path="url(#p4c80b2b408)" style="fill: none; stroke: #dd8452; stroke-opacity: 0.9; stroke-width: 3; stroke-linecap: round"/>
   </g>
   <g id="line2d_69">
    <path d="M 827.462322 269.363779 
L 829.960239 271.686802 
L 836.02661 277.258528 
L 840.665599 281.17429 
L 845.304588 284.804176 
L 851.014113 288.971397 
L 858.86471 294.703906 
L 864.931081 299.473483 
L 872.067987 305.381617 
L 882.416502 314.27275 
L 897.04716 326.797046 
L 904.184066 332.601949 
L 910.250437 337.264831 
L 915.959962 341.371136 
L 921.312642 344.937472 
L 926.308476 348.000282 
L 931.304311 350.791936 
L 935.9433 353.131705 
L 940.582289 355.220987 
L 945.221278 357.054248 
L 949.860267 358.632014 
L 954.499257 359.975586 
L 959.495091 361.201812 
L 965.204616 362.383149 
L 971.984677 363.54964 
L 980.19212 364.720958 
L 988.399562 365.671226 
L 996.96385 366.442569 
L 1005.884983 367.02393 
L 1016.590342 367.495128 
L 1028.366238 367.790919 
L 1039.071598 367.838227 
L 1049.420112 367.662512 
L 1059.768626 367.273736 
L 1069.760295 366.680765 
L 1087.602561 365.368757 
L 1087.602561 365.368757 
" clip-path="url(#p4c80b2b408)" style="fill: none; stroke: #55a868; stroke-opacity: 0.9; stroke-width: 3; stroke-linecap: round"/>
   </g>
   <g id="line2d_70">
    <path d="M 827.462322 269.363779 
L 830.317085 271.455517 
L 836.383455 275.823748 
L 841.37929 279.114322 
L 846.731969 282.369297 
L 859.221556 289.825007 
L 864.931081 293.630466 
L 870.997451 297.961762 
L 878.848048 303.864573 
L 902.042994 321.522075 
L 908.823055 326.284238 
L 914.53258 330.033683 
L 919.88526 333.294487 
L 924.881095 336.091978 
L 929.876929 338.63738 
L 934.515919 340.765841 
L 939.154908 342.663513 
L 943.793897 344.332181 
L 948.432886 345.77531 
L 953.428721 347.104138 
L 959.138246 348.38891 
L 964.847771 349.440397 
L 970.557296 350.271997 
L 977.337357 351.03075 
L 985.544799 351.728927 
L 994.109087 352.232732 
L 1003.03022 352.528482 
L 1013.021889 352.633729 
L 1023.727249 352.534843 
L 1034.075763 352.222273 
L 1044.424278 351.691257 
L 1057.9844 350.740772 
L 1074.75613 349.628771 
L 1087.602561 348.919412 
L 1087.602561 348.919412 
" clip-path="url(#p4c80b2b408)" style="fill: none; stroke: #c44e52; stroke-opacity: 0.9; stroke-width: 3; stroke-linecap: round"/>
   </g>
   <g id="line2d_71">
    <path d="M 827.462322 269.363779 
L 831.030775 272.366793 
L 836.383455 276.755428 
L 841.022444 280.232327 
L 845.661433 283.419729 
L 850.300423 286.336347 
L 854.939412 288.999654 
L 859.935246 291.603304 
L 864.931081 293.951044 
L 869.926915 296.061244 
L 875.279595 298.077651 
L 880.632275 299.85936 
L 886.3418 301.520581 
L 892.051325 302.954232 
L 898.117696 304.249584 
L 904.540911 305.390037 
L 911.320973 306.361192 
L 918.457879 307.149697 
L 925.951631 307.745512 
L 933.802228 308.141719 
L 942.00967 308.334343 
L 950.930803 308.318608 
L 960.565627 308.073465 
L 970.914141 307.584114 
L 982.333192 306.814025 
L 996.96385 305.576048 
L 1037.287371 302.141005 
L 1056.200173 300.898504 
L 1077.967738 299.681659 
L 1087.602561 299.211296 
L 1087.602561 299.211296 
" clip-path="url(#p4c80b2b408)" style="fill: none; stroke: #8172b3; stroke-opacity: 0.9; stroke-width: 3; stroke-linecap: round"/>
   </g>
   <g id="line2d_72">
    <path d="M 827.462322 269.363779 
L 832.458157 272.720042 
L 837.097146 275.697205 
L 842.09298 278.634598 
L 847.088815 281.312622 
L 852.084649 283.74942 
L 857.437329 286.111625 
L 862.790009 288.235274 
L 868.499534 290.257486 
L 874.209059 292.048339 
L 880.27543 293.718322 
L 886.698645 295.248292 
L 893.478707 296.622038 
L 900.258768 297.771297 
L 907.752519 298.808801 
L 915.603116 299.662459 
L 923.810559 300.327804 
L 932.731692 300.818645 
L 942.00967 301.104418 
L 952.001339 301.190793 
L 963.063544 301.059517 
L 975.196285 300.685272 
L 988.399562 300.053229 
L 1057.627554 296.318151 
L 1086.532026 295.182115 
L 1087.602561 295.143718 
L 1087.602561 295.143718 
" clip-path="url(#p4c80b2b408)" style="fill: none; stroke: #937860; stroke-opacity: 0.9; stroke-width: 3; stroke-linecap: round"/>
   </g>
   <g id="patch_18">
    <path d="M 814.45531 373.284 
L 814.45531 253.698 
" style="fill: none; stroke: #ffffff; stroke-width: 1.25; stroke-linejoin: miter; stroke-linecap: square"/>
   </g>
   <g id="patch_19">
    <path d="M 814.45531 373.284 
L 1100.609573 373.284 
" style="fill: none; stroke: #ffffff; stroke-width: 1.25; stroke-linejoin: miter; stroke-linecap: square"/>
   </g>
   <g id="text_27">
    <!-- 0.95~365 -->
    <g style="fill: #262626" transform="translate(894.869098 247.698) scale(0.252 -0.252)">
     <use xlink:href="#DejaVuSans-30"/>
     <use xlink:href="#DejaVuSans-2e" x="63.623047"/>
     <use xlink:href="#DejaVuSans-39" x="95.410156"/>
     <use xlink:href="#DejaVuSans-35" x="159.033203"/>
     <use xlink:href="#DejaVuSans-7e" x="222.65625"/>
     <use xlink:href="#DejaVuSans-33" x="306.445312"/>
     <use xlink:href="#DejaVuSans-36" x="370.068359"/>
     <use xlink:href="#DejaVuSans-35" x="433.691406"/>
    </g>
   </g>
  </g>
  <g id="text_28">
   <!-- Production change from pre-shock level -->
   <g style="fill: #262626" transform="translate(280.766836 30.177675) scale(0.3024 -0.3024)">
    <defs>
     <path id="DejaVuSans-50" d="M 1259 4147 
L 1259 2394 
L 2053 2394 
Q 2494 2394 2734 2622 
Q 2975 2850 2975 3272 
Q 2975 3691 2734 3919 
Q 2494 4147 2053 4147 
L 1259 4147 
z
M 628 4666 
L 2053 4666 
Q 2838 4666 3239 4311 
Q 3641 3956 3641 3272 
Q 3641 2581 3239 2228 
Q 2838 1875 2053 1875 
L 1259 1875 
L 1259 0 
L 628 0 
L 628 4666 
z
" transform="scale(0.015625)"/>
     <path id="DejaVuSans-72" d="M 2631 2963 
Q 2534 3019 2420 3045 
Q 2306 3072 2169 3072 
Q 1681 3072 1420 2755 
Q 1159 2438 1159 1844 
L 1159 0 
L 581 0 
L 581 3500 
L 1159 3500 
L 1159 2956 
Q 1341 3275 1631 3429 
Q 1922 3584 2338 3584 
Q 2397 3584 2469 3576 
Q 2541 3569 2628 3553 
L 2631 2963 
z
" transform="scale(0.015625)"/>
     <path id="DejaVuSans-6f" d="M 1959 3097 
Q 1497 3097 1228 2736 
Q 959 2375 959 1747 
Q 959 1119 1226 758 
Q 1494 397 1959 397 
Q 2419 397 2687 759 
Q 2956 1122 2956 1747 
Q 2956 2369 2687 2733 
Q 2419 3097 1959 3097 
z
M 1959 3584 
Q 2709 3584 3137 3096 
Q 3566 2609 3566 1747 
Q 3566 888 3137 398 
Q 2709 -91 1959 -91 
Q 1206 -91 779 398 
Q 353 888 353 1747 
Q 353 2609 779 3096 
Q 1206 3584 1959 3584 
z
" transform="scale(0.015625)"/>
     <path id="DejaVuSans-64" d="M 2906 2969 
L 2906 4863 
L 3481 4863 
L 3481 0 
L 2906 0 
L 2906 525 
Q 2725 213 2448 61 
Q 2172 -91 1784 -91 
Q 1150 -91 751 415 
Q 353 922 353 1747 
Q 353 2572 751 3078 
Q 1150 3584 1784 3584 
Q 2172 3584 2448 3432 
Q 2725 3281 2906 2969 
z
M 947 1747 
Q 947 1113 1208 752 
Q 1469 391 1925 391 
Q 2381 391 2643 752 
Q 2906 1113 2906 1747 
Q 2906 2381 2643 2742 
Q 2381 3103 1925 3103 
Q 1469 3103 1208 2742 
Q 947 2381 947 1747 
z
" transform="scale(0.015625)"/>
     <path id="DejaVuSans-75" d="M 544 1381 
L 544 3500 
L 1119 3500 
L 1119 1403 
Q 1119 906 1312 657 
Q 1506 409 1894 409 
Q 2359 409 2629 706 
Q 2900 1003 2900 1516 
L 2900 3500 
L 3475 3500 
L 3475 0 
L 2900 0 
L 2900 538 
Q 2691 219 2414 64 
Q 2138 -91 1772 -91 
Q 1169 -91 856 284 
Q 544 659 544 1381 
z
M 1991 3584 
L 1991 3584 
z
" transform="scale(0.015625)"/>
     <path id="DejaVuSans-69" d="M 603 3500 
L 1178 3500 
L 1178 0 
L 603 0 
L 603 3500 
z
M 603 4863 
L 1178 4863 
L 1178 4134 
L 603 4134 
L 603 4863 
z
" transform="scale(0.015625)"/>
     <path id="DejaVuSans-66" d="M 2375 4863 
L 2375 4384 
L 1825 4384 
Q 1516 4384 1395 4259 
Q 1275 4134 1275 3809 
L 1275 3500 
L 2222 3500 
L 2222 3053 
L 1275 3053 
L 1275 0 
L 697 0 
L 697 3053 
L 147 3053 
L 147 3500 
L 697 3500 
L 697 3744 
Q 697 4328 969 4595 
Q 1241 4863 1831 4863 
L 2375 4863 
z
" transform="scale(0.015625)"/>
     <path id="DejaVuSans-6d" d="M 3328 2828 
Q 3544 3216 3844 3400 
Q 4144 3584 4550 3584 
Q 5097 3584 5394 3201 
Q 5691 2819 5691 2113 
L 5691 0 
L 5113 0 
L 5113 2094 
Q 5113 2597 4934 2840 
Q 4756 3084 4391 3084 
Q 3944 3084 3684 2787 
Q 3425 2491 3425 1978 
L 3425 0 
L 2847 0 
L 2847 2094 
Q 2847 2600 2669 2842 
Q 2491 3084 2119 3084 
Q 1678 3084 1418 2786 
Q 1159 2488 1159 1978 
L 1159 0 
L 581 0 
L 581 3500 
L 1159 3500 
L 1159 2956 
Q 1356 3278 1631 3431 
Q 1906 3584 2284 3584 
Q 2666 3584 2933 3390 
Q 3200 3197 3328 2828 
z
" transform="scale(0.015625)"/>
     <path id="DejaVuSans-2d" d="M 313 2009 
L 1997 2009 
L 1997 1497 
L 313 1497 
L 313 2009 
z
" transform="scale(0.015625)"/>
     <path id="DejaVuSans-6b" d="M 581 4863 
L 1159 4863 
L 1159 1991 
L 2875 3500 
L 3609 3500 
L 1753 1863 
L 3688 0 
L 2938 0 
L 1159 1709 
L 1159 0 
L 581 0 
L 581 4863 
z
" transform="scale(0.015625)"/>
     <path id="DejaVuSans-6c" d="M 603 4863 
L 1178 4863 
L 1178 0 
L 603 0 
L 603 4863 
z
" transform="scale(0.015625)"/>
     <path id="DejaVuSans-76" d="M 191 3500 
L 800 3500 
L 1894 563 
L 2988 3500 
L 3597 3500 
L 2284 0 
L 1503 0 
L 191 3500 
z
" transform="scale(0.015625)"/>
    </defs>
    <use xlink:href="#DejaVuSans-50"/>
    <use xlink:href="#DejaVuSans-72" x="58.552734"/>
    <use xlink:href="#DejaVuSans-6f" x="97.416016"/>
    <use xlink:href="#DejaVuSans-64" x="158.597656"/>
    <use xlink:href="#DejaVuSans-75" x="222.074219"/>
    <use xlink:href="#DejaVuSans-63" x="285.453125"/>
    <use xlink:href="#DejaVuSans-74" x="340.433594"/>
    <use xlink:href="#DejaVuSans-69" x="379.642578"/>
    <use xlink:href="#DejaVuSans-6f" x="407.425781"/>
    <use xlink:href="#DejaVuSans-6e" x="468.607422"/>
    <use xlink:href="#DejaVuSans-20" x="531.986328"/>
    <use xlink:href="#DejaVuSans-63" x="563.773438"/>
    <use xlink:href="#DejaVuSans-68" x="618.753906"/>
    <use xlink:href="#DejaVuSans-61" x="682.132812"/>
    <use xlink:href="#DejaVuSans-6e" x="743.412109"/>
    <use xlink:href="#DejaVuSans-67" x="806.791016"/>
    <use xlink:href="#DejaVuSans-65" x="870.267578"/>
    <use xlink:href="#DejaVuSans-20" x="931.791016"/>
    <use xlink:href="#DejaVuSans-66" x="963.578125"/>
    <use xlink:href="#DejaVuSans-72" x="998.783203"/>
    <use xlink:href="#DejaVuSans-6f" x="1037.646484"/>
    <use xlink:href="#DejaVuSans-6d" x="1098.828125"/>
    <use xlink:href="#DejaVuSans-20" x="1196.240234"/>
    <use xlink:href="#DejaVuSans-70" x="1228.027344"/>
    <use xlink:href="#DejaVuSans-72" x="1291.503906"/>
    <use xlink:href="#DejaVuSans-65" x="1330.367188"/>
    <use xlink:href="#DejaVuSans-2d" x="1391.890625"/>
    <use xlink:href="#DejaVuSans-73" x="1427.974609"/>
    <use xlink:href="#DejaVuSans-68" x="1480.074219"/>
    <use xlink:href="#DejaVuSans-6f" x="1543.453125"/>
    <use xlink:href="#DejaVuSans-63" x="1604.634766"/>
    <use xlink:href="#DejaVuSans-6b" x="1659.615234"/>
    <use xlink:href="#DejaVuSans-20" x="1717.525391"/>
    <use xlink:href="#DejaVuSans-6c" x="1749.3125"/>
    <use xlink:href="#DejaVuSans-65" x="1777.095703"/>
    <use xlink:href="#DejaVuSans-76" x="1838.619141"/>
    <use xlink:href="#DejaVuSans-65" x="1897.798828"/>
    <use xlink:href="#DejaVuSans-6c" x="1959.322266"/>
   </g>
  </g>
  <g id="legend_1">
   <g id="patch_20">
    <path d="M 11.82 584.31675 
L 1292.617547 584.31675 
Q 1297.237547 584.31675 1297.237547 579.69675 
L 1297.237547 476.97 
Q 1297.237547 472.35 1292.617547 472.35 
L 11.82 472.35 
Q 7.2 472.35 7.2 476.97 
L 7.2 579.69675 
Q 7.2 584.31675 11.82 584.31675 
z
" style="fill: #eaeaf2; opacity: 0.8; stroke: #cccccc; stroke-linejoin: miter"/>
   </g>
   <g id="text_29">
    <!-- Experiences -->
    <g style="fill: #262626" transform="translate(575.384367 500.738062) scale(0.252 -0.252)">
     <defs>
      <path id="DejaVuSans-45" d="M 628 4666 
L 3578 4666 
L 3578 4134 
L 1259 4134 
L 1259 2753 
L 3481 2753 
L 3481 2222 
L 1259 2222 
L 1259 531 
L 3634 531 
L 3634 0 
L 628 0 
L 628 4666 
z
" transform="scale(0.015625)"/>
      <path id="DejaVuSans-78" d="M 3513 3500 
L 2247 1797 
L 3578 0 
L 2900 0 
L 1881 1375 
L 863 0 
L 184 0 
L 1544 1831 
L 300 3500 
L 978 3500 
L 1906 2253 
L 2834 3500 
L 3513 3500 
z
" transform="scale(0.015625)"/>
     </defs>
     <use xlink:href="#DejaVuSans-45"/>
     <use xlink:href="#DejaVuSans-78" x="63.183594"/>
     <use xlink:href="#DejaVuSans-70" x="122.363281"/>
     <use xlink:href="#DejaVuSans-65" x="185.839844"/>
     <use xlink:href="#DejaVuSans-72" x="247.363281"/>
     <use xlink:href="#DejaVuSans-69" x="288.476562"/>
     <use xlink:href="#DejaVuSans-65" x="316.259766"/>
     <use xlink:href="#DejaVuSans-6e" x="377.783203"/>
     <use xlink:href="#DejaVuSans-63" x="441.162109"/>
     <use xlink:href="#DejaVuSans-65" x="496.142578"/>
     <use xlink:href="#DejaVuSans-73" x="557.666016"/>
    </g>
   </g>
   <g id="line2d_73">
    <path d="M 16.44 526.996266 
L 39.54 526.996266 
L 62.64 526.996266 
" style="fill: none; stroke: #4c72b0; stroke-opacity: 0.9; stroke-width: 3; stroke-linecap: round"/>
   </g>
   <g id="text_30">
    <!-- eora26_full_2000 -->
    <g style="fill: #262626" transform="translate(81.12 535.081266) scale(0.231 -0.231)">
     <defs>
      <path id="DejaVuSans-5f" d="M 3263 -1063 
L 3263 -1509 
L -63 -1509 
L -63 -1063 
L 3263 -1063 
z
" transform="scale(0.015625)"/>
     </defs>
     <use xlink:href="#DejaVuSans-65"/>
     <use xlink:href="#DejaVuSans-6f" x="61.523438"/>
     <use xlink:href="#DejaVuSans-72" x="122.705078"/>
     <use xlink:href="#DejaVuSans-61" x="163.818359"/>
     <use xlink:href="#DejaVuSans-32" x="225.097656"/>
     <use xlink:href="#DejaVuSans-36" x="288.720703"/>
     <use xlink:href="#DejaVuSans-5f" x="352.34375"/>
     <use xlink:href="#DejaVuSans-66" x="402.34375"/>
     <use xlink:href="#DejaVuSans-75" x="437.548828"/>
     <use xlink:href="#DejaVuSans-6c" x="500.927734"/>
     <use xlink:href="#DejaVuSans-6c" x="528.710938"/>
     <use xlink:href="#DejaVuSans-5f" x="556.494141"/>
     <use xlink:href="#DejaVuSans-32" x="606.494141"/>
     <use xlink:href="#DejaVuSans-30" x="670.117188"/>
     <use xlink:href="#DejaVuSans-30" x="733.740234"/>
     <use xlink:href="#DejaVuSans-30" x="797.363281"/>
    </g>
   </g>
   <g id="line2d_74">
    <path d="M 16.44 561.545203 
L 39.54 561.545203 
L 62.64 561.545203 
" style="fill: none; stroke: #dd8452; stroke-opacity: 0.9; stroke-width: 3; stroke-linecap: round"/>
   </g>
   <g id="text_31">
    <!-- eora26_full_2010 -->
    <g style="fill: #262626" transform="translate(81.12 569.630203) scale(0.231 -0.231)">
     <defs>
      <path id="DejaVuSans-31" d="M 794 531 
L 1825 531 
L 1825 4091 
L 703 3866 
L 703 4441 
L 1819 4666 
L 2450 4666 
L 2450 531 
L 3481 531 
L 3481 0 
L 794 0 
L 794 531 
z
" transform="scale(0.015625)"/>
     </defs>
     <use xlink:href="#DejaVuSans-65"/>
     <use xlink:href="#DejaVuSans-6f" x="61.523438"/>
     <use xlink:href="#DejaVuSans-72" x="122.705078"/>
     <use xlink:href="#DejaVuSans-61" x="163.818359"/>
     <use xlink:href="#DejaVuSans-32" x="225.097656"/>
     <use xlink:href="#DejaVuSans-36" x="288.720703"/>
     <use xlink:href="#DejaVuSans-5f" x="352.34375"/>
     <use xlink:href="#DejaVuSans-66" x="402.34375"/>
     <use xlink:href="#DejaVuSans-75" x="437.548828"/>
     <use xlink:href="#DejaVuSans-6c" x="500.927734"/>
     <use xlink:href="#DejaVuSans-6c" x="528.710938"/>
     <use xlink:href="#DejaVuSans-5f" x="556.494141"/>
     <use xlink:href="#DejaVuSans-32" x="606.494141"/>
     <use xlink:href="#DejaVuSans-30" x="670.117188"/>
     <use xlink:href="#DejaVuSans-31" x="733.740234"/>
     <use xlink:href="#DejaVuSans-30" x="797.363281"/>
    </g>
   </g>
   <g id="line2d_75">
    <path d="M 326.211 526.996266 
L 349.311 526.996266 
L 372.411 526.996266 
" style="fill: none; stroke: #55a868; stroke-opacity: 0.9; stroke-width: 3; stroke-linecap: round"/>
   </g>
   <g id="text_32">
    <!-- euregio_full_2000 -->
    <g style="fill: #262626" transform="translate(390.891 535.081266) scale(0.231 -0.231)">
     <use xlink:href="#DejaVuSans-65"/>
     <use xlink:href="#DejaVuSans-75" x="61.523438"/>
     <use xlink:href="#DejaVuSans-72" x="124.902344"/>
     <use xlink:href="#DejaVuSans-65" x="163.765625"/>
     <use xlink:href="#DejaVuSans-67" x="225.289062"/>
     <use xlink:href="#DejaVuSans-69" x="288.765625"/>
     <use xlink:href="#DejaVuSans-6f" x="316.548828"/>
     <use xlink:href="#DejaVuSans-5f" x="377.730469"/>
     <use xlink:href="#DejaVuSans-66" x="427.730469"/>
     <use xlink:href="#DejaVuSans-75" x="462.935547"/>
     <use xlink:href="#DejaVuSans-6c" x="526.314453"/>
     <use xlink:href="#DejaVuSans-6c" x="554.097656"/>
     <use xlink:href="#DejaVuSans-5f" x="581.880859"/>
     <use xlink:href="#DejaVuSans-32" x="631.880859"/>
     <use xlink:href="#DejaVuSans-30" x="695.503906"/>
     <use xlink:href="#DejaVuSans-30" x="759.126953"/>
     <use xlink:href="#DejaVuSans-30" x="822.75"/>
    </g>
   </g>
   <g id="line2d_76">
    <path d="M 326.211 561.545203 
L 349.311 561.545203 
L 372.411 561.545203 
" style="fill: none; stroke: #c44e52; stroke-opacity: 0.9; stroke-width: 3; stroke-linecap: round"/>
   </g>
   <g id="text_33">
    <!-- euregio_full_2010 -->
    <g style="fill: #262626" transform="translate(390.891 569.630203) scale(0.231 -0.231)">
     <use xlink:href="#DejaVuSans-65"/>
     <use xlink:href="#DejaVuSans-75" x="61.523438"/>
     <use xlink:href="#DejaVuSans-72" x="124.902344"/>
     <use xlink:href="#DejaVuSans-65" x="163.765625"/>
     <use xlink:href="#DejaVuSans-67" x="225.289062"/>
     <use xlink:href="#DejaVuSans-69" x="288.765625"/>
     <use xlink:href="#DejaVuSans-6f" x="316.548828"/>
     <use xlink:href="#DejaVuSans-5f" x="377.730469"/>
     <use xlink:href="#DejaVuSans-66" x="427.730469"/>
     <use xlink:href="#DejaVuSans-75" x="462.935547"/>
     <use xlink:href="#DejaVuSans-6c" x="526.314453"/>
     <use xlink:href="#DejaVuSans-6c" x="554.097656"/>
     <use xlink:href="#DejaVuSans-5f" x="581.880859"/>
     <use xlink:href="#DejaVuSans-32" x="631.880859"/>
     <use xlink:href="#DejaVuSans-30" x="695.503906"/>
     <use xlink:href="#DejaVuSans-31" x="759.126953"/>
     <use xlink:href="#DejaVuSans-30" x="822.75"/>
    </g>
   </g>
   <g id="line2d_77">
    <path d="M 641.847234 526.996266 
L 664.947234 526.996266 
L 688.047234 526.996266 
" style="fill: none; stroke: #8172b3; stroke-opacity: 0.9; stroke-width: 3; stroke-linecap: round"/>
   </g>
   <g id="text_34">
    <!-- exiobase3_full_2000 -->
    <g style="fill: #262626" transform="translate(706.527234 535.081266) scale(0.231 -0.231)">
     <defs>
      <path id="DejaVuSans-62" d="M 3116 1747 
Q 3116 2381 2855 2742 
Q 2594 3103 2138 3103 
Q 1681 3103 1420 2742 
Q 1159 2381 1159 1747 
Q 1159 1113 1420 752 
Q 1681 391 2138 391 
Q 2594 391 2855 752 
Q 3116 1113 3116 1747 
z
M 1159 2969 
Q 1341 3281 1617 3432 
Q 1894 3584 2278 3584 
Q 2916 3584 3314 3078 
Q 3713 2572 3713 1747 
Q 3713 922 3314 415 
Q 2916 -91 2278 -91 
Q 1894 -91 1617 61 
Q 1341 213 1159 525 
L 1159 0 
L 581 0 
L 581 4863 
L 1159 4863 
L 1159 2969 
z
" transform="scale(0.015625)"/>
     </defs>
     <use xlink:href="#DejaVuSans-65"/>
     <use xlink:href="#DejaVuSans-78" x="59.773438"/>
     <use xlink:href="#DejaVuSans-69" x="118.953125"/>
     <use xlink:href="#DejaVuSans-6f" x="146.736328"/>
     <use xlink:href="#DejaVuSans-62" x="207.917969"/>
     <use xlink:href="#DejaVuSans-61" x="271.394531"/>
     <use xlink:href="#DejaVuSans-73" x="332.673828"/>
     <use xlink:href="#DejaVuSans-65" x="384.773438"/>
     <use xlink:href="#DejaVuSans-33" x="446.296875"/>
     <use xlink:href="#DejaVuSans-5f" x="509.919922"/>
     <use xlink:href="#DejaVuSans-66" x="559.919922"/>
     <use xlink:href="#DejaVuSans-75" x="595.125"/>
     <use xlink:href="#DejaVuSans-6c" x="658.503906"/>
     <use xlink:href="#DejaVuSans-6c" x="686.287109"/>
     <use xlink:href="#DejaVuSans-5f" x="714.070312"/>
     <use xlink:href="#DejaVuSans-32" x="764.070312"/>
     <use xlink:href="#DejaVuSans-30" x="827.693359"/>
     <use xlink:href="#DejaVuSans-30" x="891.316406"/>
     <use xlink:href="#DejaVuSans-30" x="954.939453"/>
    </g>
   </g>
   <g id="line2d_78">
    <path d="M 988.022391 526.996266 
L 1011.122391 526.996266 
L 1034.222391 526.996266 
" style="fill: none; stroke: #937860; stroke-opacity: 0.9; stroke-width: 3; stroke-linecap: round"/>
   </g>
   <g id="text_35">
    <!-- exiobase3_full_2010 -->
    <g style="fill: #262626" transform="translate(1052.702391 535.081266) scale(0.231 -0.231)">
     <use xlink:href="#DejaVuSans-65"/>
     <use xlink:href="#DejaVuSans-78" x="59.773438"/>
     <use xlink:href="#DejaVuSans-69" x="118.953125"/>
     <use xlink:href="#DejaVuSans-6f" x="146.736328"/>
     <use xlink:href="#DejaVuSans-62" x="207.917969"/>
     <use xlink:href="#DejaVuSans-61" x="271.394531"/>
     <use xlink:href="#DejaVuSans-73" x="332.673828"/>
     <use xlink:href="#DejaVuSans-65" x="384.773438"/>
     <use xlink:href="#DejaVuSans-33" x="446.296875"/>
     <use xlink:href="#DejaVuSans-5f" x="509.919922"/>
     <use xlink:href="#DejaVuSans-66" x="559.919922"/>
     <use xlink:href="#DejaVuSans-75" x="595.125"/>
     <use xlink:href="#DejaVuSans-6c" x="658.503906"/>
     <use xlink:href="#DejaVuSans-6c" x="686.287109"/>
     <use xlink:href="#DejaVuSans-5f" x="714.070312"/>
     <use xlink:href="#DejaVuSans-32" x="764.070312"/>
     <use xlink:href="#DejaVuSans-30" x="827.693359"/>
     <use xlink:href="#DejaVuSans-31" x="891.316406"/>
     <use xlink:href="#DejaVuSans-30" x="954.939453"/>
    </g>
   </g>
  </g>
 </g>
 <defs>
  <clipPath id="pa219775d65">
   <rect x="189.250488" y="81.456" width="286.154263" height="119.586"/>
  </clipPath>
  <clipPath id="p81977f6ddc">
   <rect x="501.852899" y="81.456" width="286.154263" height="119.586"/>
  </clipPath>
  <clipPath id="p93b8d715c8">
   <rect x="814.45531" y="81.456" width="286.154263" height="119.586"/>
  </clipPath>
  <clipPath id="p7eb5b68319">
   <rect x="189.250488" y="253.698" width="286.154263" height="119.586"/>
  </clipPath>
  <clipPath id="p517bdff0b1">
   <rect x="501.852899" y="253.698" width="286.154263" height="119.586"/>
  </clipPath>
  <clipPath id="p4c80b2b408">
   <rect x="814.45531" y="253.698" width="286.154263" height="119.586"/>
  </clipPath>
 </defs>
</svg>
