<?xml version="1.0" encoding="utf-8" standalone="no"?>
<!DOCTYPE svg PUBLIC "-//W3C//DTD SVG 1.1//EN"
  "http://www.w3.org/Graphics/SVG/1.1/DTD/svg11.dtd">
<svg xmlns:xlink="http://www.w3.org/1999/xlink" width="1304.437547pt" height="591.51675pt" viewBox="0 0 1304.437547 591.51675" xmlns="http://www.w3.org/2000/svg" version="1.1">
 <metadata>
  <rdf:RDF xmlns:dc="http://purl.org/dc/elements/1.1/" xmlns:cc="http://creativecommons.org/ns#" xmlns:rdf="http://www.w3.org/1999/02/22-rdf-syntax-ns#">
   <cc:Work>
    <dc:type rdf:resource="http://purl.org/dc/dcmitype/StillImage"/>
    <dc:date>2023-04-28T12:08:48.328462</dc:date>
    <dc:format>image/svg+xml</dc:format>
    <dc:creator>
     <cc:Agent>
      <dc:title>Matplotlib v3.7.1, https://matplotlib.org/</dc:title>
     </cc:Agent>
    </dc:creator>
   </cc:Work>
  </rdf:RDF>
 </metadata>
 <defs>
  <style type="text/css">*{stroke-linejoin: round; stroke-linecap: butt}</style>
 </defs>
 <g id="figure_1">
  <g id="patch_1">
   <path d="M 0 591.51675 
L 1304.437547 591.51675 
L 1304.437547 -0 
L 0 -0 
z
" style="fill: #ffffff"/>
  </g>
  <g id="axes_1">
   <g id="patch_2">
    <path d="M 170.340091 201.042 
L 462.70916 201.042 
L 462.70916 81.456 
L 170.340091 81.456 
z
" style="fill: #eaeaf2"/>
   </g>
   <g id="matplotlib.axis_1">
    <g id="xtick_1">
     <g id="line2d_1">
      <path d="M 183.629594 201.042 
L 183.629594 81.456 
" clip-path="url(#p60bceec2e8)" style="fill: none; stroke: #ffffff; stroke-linecap: round"/>
     </g>
    </g>
    <g id="xtick_2">
     <g id="line2d_2">
      <path d="M 274.77845 201.042 
L 274.77845 81.456 
" clip-path="url(#p60bceec2e8)" style="fill: none; stroke: #ffffff; stroke-linecap: round"/>
     </g>
    </g>
    <g id="xtick_3">
     <g id="line2d_3">
      <path d="M 365.927305 201.042 
L 365.927305 81.456 
" clip-path="url(#p60bceec2e8)" style="fill: none; stroke: #ffffff; stroke-linecap: round"/>
     </g>
    </g>
    <g id="xtick_4">
     <g id="line2d_4">
      <path d="M 457.076161 201.042 
L 457.076161 81.456 
" clip-path="url(#p60bceec2e8)" style="fill: none; stroke: #ffffff; stroke-linecap: round"/>
     </g>
    </g>
   </g>
   <g id="matplotlib.axis_2">
    <g id="ytick_1">
     <g id="line2d_5">
      <path d="M 170.340091 187.112703 
L 462.70916 187.112703 
" clip-path="url(#p60bceec2e8)" style="fill: none; stroke: #ffffff; stroke-linecap: round"/>
     </g>
     <g id="text_1">
      <!-- −0.2 -->
      <g style="fill: #262626" transform="translate(104.746794 195.888898) scale(0.231 -0.231)">
       <defs>
        <path id="DejaVuSans-2212" d="M 678 2272 
L 4684 2272 
L 4684 1741 
L 678 1741 
L 678 2272 
z
" transform="scale(0.015625)"/>
        <path id="DejaVuSans-30" d="M 2034 4250 
Q 1547 4250 1301 3770 
Q 1056 3291 1056 2328 
Q 1056 1369 1301 889 
Q 1547 409 2034 409 
Q 2525 409 2770 889 
Q 3016 1369 3016 2328 
Q 3016 3291 2770 3770 
Q 2525 4250 2034 4250 
z
M 2034 4750 
Q 2819 4750 3233 4129 
Q 3647 3509 3647 2328 
Q 3647 1150 3233 529 
Q 2819 -91 2034 -91 
Q 1250 -91 836 529 
Q 422 1150 422 2328 
Q 422 3509 836 4129 
Q 1250 4750 2034 4750 
z
" transform="scale(0.015625)"/>
        <path id="DejaVuSans-2e" d="M 684 794 
L 1344 794 
L 1344 0 
L 684 0 
L 684 794 
z
" transform="scale(0.015625)"/>
        <path id="DejaVuSans-32" d="M 1228 531 
L 3431 531 
L 3431 0 
L 469 0 
L 469 531 
Q 828 903 1448 1529 
Q 2069 2156 2228 2338 
Q 2531 2678 2651 2914 
Q 2772 3150 2772 3378 
Q 2772 3750 2511 3984 
Q 2250 4219 1831 4219 
Q 1534 4219 1204 4116 
Q 875 4013 500 3803 
L 500 4441 
Q 881 4594 1212 4672 
Q 1544 4750 1819 4750 
Q 2544 4750 2975 4387 
Q 3406 4025 3406 3419 
Q 3406 3131 3298 2873 
Q 3191 2616 2906 2266 
Q 2828 2175 2409 1742 
Q 1991 1309 1228 531 
z
" transform="scale(0.015625)"/>
       </defs>
       <use xlink:href="#DejaVuSans-2212"/>
       <use xlink:href="#DejaVuSans-30" x="83.789062"/>
       <use xlink:href="#DejaVuSans-2e" x="147.412109"/>
       <use xlink:href="#DejaVuSans-32" x="179.199219"/>
      </g>
     </g>
    </g>
    <g id="ytick_2">
     <g id="line2d_6">
      <path d="M 170.340091 86.891727 
L 462.70916 86.891727 
" clip-path="url(#p60bceec2e8)" style="fill: none; stroke: #ffffff; stroke-linecap: round"/>
     </g>
     <g id="text_2">
      <!-- 0.0 -->
      <g style="fill: #262626" transform="translate(124.103872 95.667923) scale(0.231 -0.231)">
       <use xlink:href="#DejaVuSans-30"/>
       <use xlink:href="#DejaVuSans-2e" x="63.623047"/>
       <use xlink:href="#DejaVuSans-30" x="95.410156"/>
      </g>
     </g>
    </g>
    <g id="text_3">
     <!-- % change -->
     <g style="fill: #262626" transform="translate(95.505982 203.597344) rotate(-90) scale(0.252 -0.252)">
      <defs>
       <path id="DejaVuSans-25" d="M 4653 2053 
Q 4381 2053 4226 1822 
Q 4072 1591 4072 1178 
Q 4072 772 4226 539 
Q 4381 306 4653 306 
Q 4919 306 5073 539 
Q 5228 772 5228 1178 
Q 5228 1588 5073 1820 
Q 4919 2053 4653 2053 
z
M 4653 2450 
Q 5147 2450 5437 2106 
Q 5728 1763 5728 1178 
Q 5728 594 5436 251 
Q 5144 -91 4653 -91 
Q 4153 -91 3862 251 
Q 3572 594 3572 1178 
Q 3572 1766 3864 2108 
Q 4156 2450 4653 2450 
z
M 1428 4353 
Q 1159 4353 1004 4120 
Q 850 3888 850 3481 
Q 850 3069 1003 2837 
Q 1156 2606 1428 2606 
Q 1700 2606 1854 2837 
Q 2009 3069 2009 3481 
Q 2009 3884 1853 4118 
Q 1697 4353 1428 4353 
z
M 4250 4750 
L 4750 4750 
L 1831 -91 
L 1331 -91 
L 4250 4750 
z
M 1428 4750 
Q 1922 4750 2215 4408 
Q 2509 4066 2509 3481 
Q 2509 2891 2217 2550 
Q 1925 2209 1428 2209 
Q 931 2209 642 2551 
Q 353 2894 353 3481 
Q 353 4063 643 4406 
Q 934 4750 1428 4750 
z
" transform="scale(0.015625)"/>
       <path id="DejaVuSans-20" transform="scale(0.015625)"/>
       <path id="DejaVuSans-63" d="M 3122 3366 
L 3122 2828 
Q 2878 2963 2633 3030 
Q 2388 3097 2138 3097 
Q 1578 3097 1268 2742 
Q 959 2388 959 1747 
Q 959 1106 1268 751 
Q 1578 397 2138 397 
Q 2388 397 2633 464 
Q 2878 531 3122 666 
L 3122 134 
Q 2881 22 2623 -34 
Q 2366 -91 2075 -91 
Q 1284 -91 818 406 
Q 353 903 353 1747 
Q 353 2603 823 3093 
Q 1294 3584 2113 3584 
Q 2378 3584 2631 3529 
Q 2884 3475 3122 3366 
z
" transform="scale(0.015625)"/>
       <path id="DejaVuSans-68" d="M 3513 2113 
L 3513 0 
L 2938 0 
L 2938 2094 
Q 2938 2591 2744 2837 
Q 2550 3084 2163 3084 
Q 1697 3084 1428 2787 
Q 1159 2491 1159 1978 
L 1159 0 
L 581 0 
L 581 4863 
L 1159 4863 
L 1159 2956 
Q 1366 3272 1645 3428 
Q 1925 3584 2291 3584 
Q 2894 3584 3203 3211 
Q 3513 2838 3513 2113 
z
" transform="scale(0.015625)"/>
       <path id="DejaVuSans-61" d="M 2194 1759 
Q 1497 1759 1228 1600 
Q 959 1441 959 1056 
Q 959 750 1161 570 
Q 1363 391 1709 391 
Q 2188 391 2477 730 
Q 2766 1069 2766 1631 
L 2766 1759 
L 2194 1759 
z
M 3341 1997 
L 3341 0 
L 2766 0 
L 2766 531 
Q 2569 213 2275 61 
Q 1981 -91 1556 -91 
Q 1019 -91 701 211 
Q 384 513 384 1019 
Q 384 1609 779 1909 
Q 1175 2209 1959 2209 
L 2766 2209 
L 2766 2266 
Q 2766 2663 2505 2880 
Q 2244 3097 1772 3097 
Q 1472 3097 1187 3025 
Q 903 2953 641 2809 
L 641 3341 
Q 956 3463 1253 3523 
Q 1550 3584 1831 3584 
Q 2591 3584 2966 3190 
Q 3341 2797 3341 1997 
z
" transform="scale(0.015625)"/>
       <path id="DejaVuSans-6e" d="M 3513 2113 
L 3513 0 
L 2938 0 
L 2938 2094 
Q 2938 2591 2744 2837 
Q 2550 3084 2163 3084 
Q 1697 3084 1428 2787 
Q 1159 2491 1159 1978 
L 1159 0 
L 581 0 
L 581 3500 
L 1159 3500 
L 1159 2956 
Q 1366 3272 1645 3428 
Q 1925 3584 2291 3584 
Q 2894 3584 3203 3211 
Q 3513 2838 3513 2113 
z
" transform="scale(0.015625)"/>
       <path id="DejaVuSans-67" d="M 2906 1791 
Q 2906 2416 2648 2759 
Q 2391 3103 1925 3103 
Q 1463 3103 1205 2759 
Q 947 2416 947 1791 
Q 947 1169 1205 825 
Q 1463 481 1925 481 
Q 2391 481 2648 825 
Q 2906 1169 2906 1791 
z
M 3481 434 
Q 3481 -459 3084 -895 
Q 2688 -1331 1869 -1331 
Q 1566 -1331 1297 -1286 
Q 1028 -1241 775 -1147 
L 775 -588 
Q 1028 -725 1275 -790 
Q 1522 -856 1778 -856 
Q 2344 -856 2625 -561 
Q 2906 -266 2906 331 
L 2906 616 
Q 2728 306 2450 153 
Q 2172 0 1784 0 
Q 1141 0 747 490 
Q 353 981 353 1791 
Q 353 2603 747 3093 
Q 1141 3584 1784 3584 
Q 2172 3584 2450 3431 
Q 2728 3278 2906 2969 
L 2906 3500 
L 3481 3500 
L 3481 434 
z
" transform="scale(0.015625)"/>
       <path id="DejaVuSans-65" d="M 3597 1894 
L 3597 1613 
L 953 1613 
Q 991 1019 1311 708 
Q 1631 397 2203 397 
Q 2534 397 2845 478 
Q 3156 559 3463 722 
L 3463 178 
Q 3153 47 2828 -22 
Q 2503 -91 2169 -91 
Q 1331 -91 842 396 
Q 353 884 353 1716 
Q 353 2575 817 3079 
Q 1281 3584 2069 3584 
Q 2775 3584 3186 3129 
Q 3597 2675 3597 1894 
z
M 3022 2063 
Q 3016 2534 2758 2815 
Q 2500 3097 2075 3097 
Q 1594 3097 1305 2825 
Q 1016 2553 972 2059 
L 3022 2063 
z
" transform="scale(0.015625)"/>
      </defs>
      <use xlink:href="#DejaVuSans-25"/>
      <use xlink:href="#DejaVuSans-20" x="95.019531"/>
      <use xlink:href="#DejaVuSans-63" x="126.806641"/>
      <use xlink:href="#DejaVuSans-68" x="181.787109"/>
      <use xlink:href="#DejaVuSans-61" x="245.166016"/>
      <use xlink:href="#DejaVuSans-6e" x="306.445312"/>
      <use xlink:href="#DejaVuSans-67" x="369.824219"/>
      <use xlink:href="#DejaVuSans-65" x="433.300781"/>
     </g>
    </g>
   </g>
   <g id="PolyCollection_1"/>
   <g id="PolyCollection_2"/>
   <g id="PolyCollection_3"/>
   <g id="PolyCollection_4"/>
   <g id="PolyCollection_5"/>
   <g id="PolyCollection_6"/>
   <g id="line2d_7">
    <path d="M 183.629594 86.891727 
L 188.004739 91.561223 
L 193.838266 97.610491 
L 199.307197 102.968159 
L 204.776129 108.026644 
L 210.24506 112.792275 
L 215.713991 117.270545 
L 221.182923 121.465862 
L 226.651854 125.383202 
L 232.120785 129.038325 
L 237.589717 132.440932 
L 243.058648 135.595816 
L 248.892175 138.699026 
L 254.725702 141.538805 
L 260.559228 144.120592 
L 266.392755 146.449928 
L 272.226282 148.532376 
L 278.059809 150.373635 
L 283.893335 151.979479 
L 289.726862 153.35564 
L 295.560389 154.507545 
L 301.393916 155.440571 
L 307.227442 156.160118 
L 313.425565 156.702752 
L 321.082069 157.134088 
L 330.56155 157.452766 
L 340.04103 157.536193 
L 349.885107 157.395073 
L 361.187565 157.021687 
L 371.760832 156.454626 
L 383.427886 155.608283 
L 412.230924 153.378916 
L 445.409108 151.316997 
L 449.419657 151.073761 
L 449.419657 151.073761 
" clip-path="url(#p60bceec2e8)" style="fill: none; stroke: #4c72b0; stroke-opacity: 0.9; stroke-width: 3; stroke-linecap: round"/>
   </g>
   <g id="line2d_8">
    <path d="M 183.629594 86.891727 
L 186.546358 89.957046 
L 193.473671 97.131757 
L 199.307197 102.835732 
L 205.140724 108.223701 
L 210.974251 113.300206 
L 216.807778 118.071067 
L 222.641304 122.540867 
L 228.474831 126.714519 
L 234.308358 130.598631 
L 239.777289 133.98201 
L 245.610816 137.326563 
L 251.444343 140.414462 
L 257.27787 143.255994 
L 263.111396 145.860268 
L 268.944923 148.231753 
L 274.77845 150.374611 
L 280.611977 152.293041 
L 286.810099 154.090388 
L 293.008221 155.64471 
L 299.206343 156.961156 
L 305.404465 158.044921 
L 311.602588 158.901199 
L 318.165305 159.584218 
L 326.915595 160.246548 
L 335.665885 160.683857 
L 344.05158 160.882791 
L 352.80187 160.861728 
L 361.55216 160.62298 
L 371.031641 160.151698 
L 383.792481 159.250986 
L 401.657657 157.663964 
L 423.897978 155.857536 
L 449.419657 153.996979 
L 449.419657 153.996979 
" clip-path="url(#p60bceec2e8)" style="fill: none; stroke: #dd8452; stroke-opacity: 0.9; stroke-width: 3; stroke-linecap: round"/>
   </g>
   <g id="line2d_9">
    <path d="M 183.629594 86.891727 
L 186.181762 89.813063 
L 192.74448 97.225833 
L 198.213411 103.054046 
L 203.682342 108.555852 
L 209.151274 113.73917 
L 214.620205 118.610043 
L 220.089136 123.173614 
L 225.558068 127.436112 
L 231.026999 131.404134 
L 236.49593 135.085042 
L 241.964862 138.48516 
L 247.433793 141.612096 
L 252.902725 144.472966 
L 258.371656 147.077226 
L 263.840587 149.434551 
L 269.309519 151.554047 
L 274.77845 153.443744 
L 280.247381 155.110612 
L 286.080908 156.649412 
L 291.914435 157.948064 
L 297.747961 159.013503 
L 303.581488 159.855765 
L 309.77961 160.523974 
L 315.977733 160.972872 
L 323.269641 161.271249 
L 332.019931 161.397393 
L 342.228603 161.329207 
L 353.895657 161.019862 
L 366.291901 160.467861 
L 379.052741 159.667281 
L 415.147688 157.237729 
L 447.59668 155.525344 
L 449.419657 155.432084 
L 449.419657 155.432084 
" clip-path="url(#p60bceec2e8)" style="fill: none; stroke: #55a868; stroke-opacity: 0.9; stroke-width: 3; stroke-linecap: round"/>
   </g>
   <g id="line2d_10">
    <path d="M 183.629594 86.891727 
L 186.181762 89.719425 
L 192.74448 96.897351 
L 198.213411 102.542744 
L 203.682342 107.87252 
L 209.151274 112.892675 
L 214.620205 117.608545 
L 220.089136 122.025723 
L 225.558068 126.151041 
L 231.026999 129.991971 
L 236.49593 133.555009 
L 241.964862 136.847428 
L 247.433793 139.876841 
L 252.902725 142.651472 
L 258.371656 145.178757 
L 263.840587 147.46825 
L 269.309519 149.528089 
L 275.143045 151.481222 
L 280.976572 153.191062 
L 286.810099 154.665032 
L 292.643626 155.909741 
L 298.477152 156.932832 
L 304.675275 157.791349 
L 310.873397 158.430158 
L 317.436114 158.880216 
L 325.092618 159.178173 
L 334.207504 159.306237 
L 344.416176 159.229396 
L 356.81242 158.907604 
L 368.479473 158.397578 
L 380.875718 157.628916 
L 415.876878 155.253097 
L 449.419657 153.422624 
L 449.419657 153.422624 
" clip-path="url(#p60bceec2e8)" style="fill: none; stroke: #c44e52; stroke-opacity: 0.9; stroke-width: 3; stroke-linecap: round"/>
   </g>
   <g id="line2d_11">
    <path d="M 183.629594 86.891727 
L 187.275548 90.947628 
L 193.473671 97.673972 
L 198.942602 103.278051 
L 204.411533 108.571695 
L 209.880465 113.560156 
L 215.349396 118.248218 
L 220.818327 122.64068 
L 226.287259 126.742279 
L 231.75619 130.557369 
L 237.225121 134.090854 
L 242.694053 137.348779 
L 248.162984 140.33572 
L 253.631915 143.056164 
L 259.100847 145.515942 
L 264.569778 147.725835 
L 270.038709 149.691645 
L 275.507641 151.417873 
L 280.976572 152.909078 
L 286.445503 154.170139 
L 291.914435 155.206014 
L 297.383366 156.021796 
L 302.852297 156.622933 
L 308.685824 157.033618 
L 314.883946 157.237761 
L 321.446664 157.237065 
L 328.738572 157.01656 
L 340.04103 156.394255 
L 353.166466 155.419253 
L 368.844069 154.009849 
L 402.386848 150.953838 
L 418.793642 149.708625 
L 446.138298 147.920688 
L 449.419657 147.714624 
L 449.419657 147.714624 
" clip-path="url(#p60bceec2e8)" style="fill: none; stroke: #8172b3; stroke-opacity: 0.9; stroke-width: 3; stroke-linecap: round"/>
   </g>
   <g id="line2d_12">
    <path d="M 183.629594 86.891727 
L 188.004739 91.617101 
L 194.202861 98.113164 
L 199.671793 103.526812 
L 205.140724 108.646549 
L 210.609655 113.4778 
L 216.078587 118.025289 
L 221.547518 122.293495 
L 227.01645 126.288053 
L 232.485381 130.01402 
L 237.954312 133.475752 
L 243.423244 136.677602 
L 248.892175 139.623992 
L 254.361106 142.319531 
L 259.830038 144.77277 
L 265.298969 146.989705 
L 270.7679 148.974913 
L 276.236832 150.73315 
L 281.705763 152.269169 
L 287.174694 153.587062 
L 293.008221 154.757116 
L 298.841748 155.688843 
L 304.675275 156.387679 
L 310.508801 156.860223 
L 317.071519 157.156926 
L 323.998832 157.251287 
L 331.29074 157.132925 
L 340.405626 156.756954 
L 351.343489 156.073499 
L 364.104328 155.052006 
L 377.229764 153.770762 
L 402.022252 151.241447 
L 422.075001 149.589655 
L 447.961276 147.730695 
L 449.419657 147.629841 
L 449.419657 147.629841 
" clip-path="url(#p60bceec2e8)" style="fill: none; stroke: #937860; stroke-opacity: 0.9; stroke-width: 3; stroke-linecap: round"/>
   </g>
   <g id="patch_3">
    <path d="M 170.340091 201.042 
L 170.340091 81.456 
" style="fill: none; stroke: #ffffff; stroke-width: 1.25; stroke-linejoin: miter; stroke-linecap: square"/>
   </g>
   <g id="patch_4">
    <path d="M 170.340091 201.042 
L 462.70916 201.042 
" style="fill: none; stroke: #ffffff; stroke-width: 1.25; stroke-linejoin: miter; stroke-linecap: square"/>
   </g>
   <g id="text_4">
    <!-- 0.8~90 -->
    <g style="fill: #262626" transform="translate(269.894782 75.456) scale(0.252 -0.252)">
     <defs>
      <path id="DejaVuSans-38" d="M 2034 2216 
Q 1584 2216 1326 1975 
Q 1069 1734 1069 1313 
Q 1069 891 1326 650 
Q 1584 409 2034 409 
Q 2484 409 2743 651 
Q 3003 894 3003 1313 
Q 3003 1734 2745 1975 
Q 2488 2216 2034 2216 
z
M 1403 2484 
Q 997 2584 770 2862 
Q 544 3141 544 3541 
Q 544 4100 942 4425 
Q 1341 4750 2034 4750 
Q 2731 4750 3128 4425 
Q 3525 4100 3525 3541 
Q 3525 3141 3298 2862 
Q 3072 2584 2669 2484 
Q 3125 2378 3379 2068 
Q 3634 1759 3634 1313 
Q 3634 634 3220 271 
Q 2806 -91 2034 -91 
Q 1263 -91 848 271 
Q 434 634 434 1313 
Q 434 1759 690 2068 
Q 947 2378 1403 2484 
z
M 1172 3481 
Q 1172 3119 1398 2916 
Q 1625 2713 2034 2713 
Q 2441 2713 2670 2916 
Q 2900 3119 2900 3481 
Q 2900 3844 2670 4047 
Q 2441 4250 2034 4250 
Q 1625 4250 1398 4047 
Q 1172 3844 1172 3481 
z
" transform="scale(0.015625)"/>
      <path id="DejaVuSans-7e" d="M 4684 2553 
L 4684 1997 
Q 4356 1750 4076 1644 
Q 3797 1538 3494 1538 
Q 3150 1538 2694 1722 
Q 2659 1734 2644 1741 
Q 2622 1750 2575 1766 
Q 2091 1959 1797 1959 
Q 1522 1959 1253 1839 
Q 984 1719 678 1459 
L 678 2016 
Q 1006 2263 1286 2370 
Q 1566 2478 1869 2478 
Q 2213 2478 2672 2291 
Q 2703 2278 2719 2272 
Q 2744 2263 2788 2247 
Q 3272 2053 3566 2053 
Q 3834 2053 4098 2172 
Q 4363 2291 4684 2553 
z
" transform="scale(0.015625)"/>
      <path id="DejaVuSans-39" d="M 703 97 
L 703 672 
Q 941 559 1184 500 
Q 1428 441 1663 441 
Q 2288 441 2617 861 
Q 2947 1281 2994 2138 
Q 2813 1869 2534 1725 
Q 2256 1581 1919 1581 
Q 1219 1581 811 2004 
Q 403 2428 403 3163 
Q 403 3881 828 4315 
Q 1253 4750 1959 4750 
Q 2769 4750 3195 4129 
Q 3622 3509 3622 2328 
Q 3622 1225 3098 567 
Q 2575 -91 1691 -91 
Q 1453 -91 1209 -44 
Q 966 3 703 97 
z
M 1959 2075 
Q 2384 2075 2632 2365 
Q 2881 2656 2881 3163 
Q 2881 3666 2632 3958 
Q 2384 4250 1959 4250 
Q 1534 4250 1286 3958 
Q 1038 3666 1038 3163 
Q 1038 2656 1286 2365 
Q 1534 2075 1959 2075 
z
" transform="scale(0.015625)"/>
     </defs>
     <use xlink:href="#DejaVuSans-30"/>
     <use xlink:href="#DejaVuSans-2e" x="63.623047"/>
     <use xlink:href="#DejaVuSans-38" x="95.410156"/>
     <use xlink:href="#DejaVuSans-7e" x="159.033203"/>
     <use xlink:href="#DejaVuSans-39" x="242.822266"/>
     <use xlink:href="#DejaVuSans-30" x="306.445312"/>
    </g>
   </g>
  </g>
  <g id="axes_2">
   <g id="patch_5">
    <path d="M 489.290298 201.042 
L 781.659367 201.042 
L 781.659367 81.456 
L 489.290298 81.456 
z
" style="fill: #eaeaf2"/>
   </g>
   <g id="matplotlib.axis_3">
    <g id="xtick_5">
     <g id="line2d_13">
      <path d="M 502.579801 201.042 
L 502.579801 81.456 
" clip-path="url(#pfe85fc01fa)" style="fill: none; stroke: #ffffff; stroke-linecap: round"/>
     </g>
    </g>
    <g id="xtick_6">
     <g id="line2d_14">
      <path d="M 593.728656 201.042 
L 593.728656 81.456 
" clip-path="url(#pfe85fc01fa)" style="fill: none; stroke: #ffffff; stroke-linecap: round"/>
     </g>
    </g>
    <g id="xtick_7">
     <g id="line2d_15">
      <path d="M 684.877512 201.042 
L 684.877512 81.456 
" clip-path="url(#pfe85fc01fa)" style="fill: none; stroke: #ffffff; stroke-linecap: round"/>
     </g>
    </g>
    <g id="xtick_8">
     <g id="line2d_16">
      <path d="M 776.026368 201.042 
L 776.026368 81.456 
" clip-path="url(#pfe85fc01fa)" style="fill: none; stroke: #ffffff; stroke-linecap: round"/>
     </g>
    </g>
   </g>
   <g id="matplotlib.axis_4">
    <g id="ytick_3">
     <g id="line2d_17">
      <path d="M 489.290298 187.112703 
L 781.659367 187.112703 
" clip-path="url(#pfe85fc01fa)" style="fill: none; stroke: #ffffff; stroke-linecap: round"/>
     </g>
    </g>
    <g id="ytick_4">
     <g id="line2d_18">
      <path d="M 489.290298 86.891727 
L 781.659367 86.891727 
" clip-path="url(#pfe85fc01fa)" style="fill: none; stroke: #ffffff; stroke-linecap: round"/>
     </g>
    </g>
   </g>
   <g id="PolyCollection_7"/>
   <g id="PolyCollection_8"/>
   <g id="PolyCollection_9"/>
   <g id="PolyCollection_10"/>
   <g id="PolyCollection_11"/>
   <g id="PolyCollection_12"/>
   <g id="line2d_19">
    <path d="M 502.579801 86.891727 
L 506.225755 90.807068 
L 514.61145 99.688737 
L 521.538763 106.678474 
L 528.466076 113.348783 
L 535.393389 119.700251 
L 541.956106 125.424009 
L 548.518824 130.863132 
L 555.081542 136.019192 
L 561.644259 140.89375 
L 568.206977 145.48811 
L 574.769694 149.80393 
L 581.332412 153.843512 
L 587.530534 157.406624 
L 593.728656 160.726437 
L 599.926779 163.804497 
L 606.124901 166.642461 
L 612.323023 169.244163 
L 618.521145 171.617203 
L 624.719267 173.763763 
L 631.281985 175.794929 
L 637.480107 177.487581 
L 643.678229 178.962585 
L 649.876351 180.221519 
L 656.074474 181.265983 
L 662.272596 182.097599 
L 668.835313 182.747818 
L 675.398031 183.162875 
L 681.960749 183.35118 
L 689.617253 183.353282 
L 697.638352 183.132736 
L 711.857573 182.484137 
L 726.44139 181.959758 
L 752.692261 181.27252 
L 768.369864 180.935878 
L 768.369864 180.935878 
" clip-path="url(#pfe85fc01fa)" style="fill: none; stroke: #4c72b0; stroke-opacity: 0.9; stroke-width: 3; stroke-linecap: round"/>
   </g>
   <g id="line2d_20">
    <path d="M 502.579801 86.891727 
L 505.496564 89.968258 
L 514.61145 99.527389 
L 521.538763 106.447845 
L 528.466076 113.060301 
L 535.393389 119.365319 
L 542.320702 125.363431 
L 549.248015 131.055422 
L 555.810732 136.16637 
L 562.37345 141.004417 
L 568.936168 145.570677 
L 575.498885 149.866644 
L 582.061603 153.894464 
L 588.62432 157.655627 
L 595.187038 161.151598 
L 601.749756 164.383864 
L 607.947878 167.195846 
L 614.146 169.77589 
L 620.344122 172.126061 
L 626.542244 174.247936 
L 632.740367 176.145383 
L 639.303084 177.920801 
L 645.865802 179.461425 
L 652.428519 180.769103 
L 658.991237 181.845374 
L 665.553955 182.691769 
L 672.116672 183.309699 
L 678.67939 183.700611 
L 685.606703 183.885982 
L 693.263207 183.875846 
L 701.648901 183.629046 
L 744.306566 182.013281 
L 768.369864 181.461073 
L 768.369864 181.461073 
" clip-path="url(#pfe85fc01fa)" style="fill: none; stroke: #dd8452; stroke-opacity: 0.9; stroke-width: 3; stroke-linecap: round"/>
   </g>
   <g id="line2d_21">
    <path d="M 502.579801 86.891727 
L 505.131969 89.823869 
L 513.882259 99.845134 
L 520.809572 107.402347 
L 527.372289 114.242091 
L 533.935007 120.772846 
L 540.497725 126.995836 
L 547.060442 132.911871 
L 553.62316 138.522094 
L 560.185878 143.827688 
L 566.384 148.560013 
L 572.582122 153.023311 
L 578.780244 157.219469 
L 584.978366 161.150277 
L 591.176488 164.817548 
L 597.374611 168.2238 
L 603.572733 171.371131 
L 609.770855 174.262081 
L 615.968977 176.899563 
L 622.167099 179.285989 
L 628.365222 181.423614 
L 634.563344 183.315398 
L 640.761466 184.963974 
L 646.959588 186.37286 
L 653.15771 187.547461 
L 659.355832 188.493301 
L 665.553955 189.21497 
L 671.752077 189.715159 
L 677.950199 189.996049 
L 684.877512 190.072466 
L 692.898611 189.921705 
L 705.294856 189.431356 
L 722.430841 188.698602 
L 741.389802 188.151327 
L 766.182291 187.700746 
L 768.369864 187.667073 
L 768.369864 187.667073 
" clip-path="url(#pfe85fc01fa)" style="fill: none; stroke: #55a868; stroke-opacity: 0.9; stroke-width: 3; stroke-linecap: round"/>
   </g>
   <g id="line2d_22">
    <path d="M 502.579801 86.891727 
L 504.767373 89.319169 
L 513.882259 99.433052 
L 520.809572 106.752651 
L 527.736885 113.737807 
L 534.299603 120.047802 
L 540.86232 126.05939 
L 547.425038 131.77352 
L 553.987755 137.191283 
L 560.550473 142.313966 
L 567.113191 147.143013 
L 573.311313 151.435682 
L 579.509435 155.469652 
L 585.707557 159.246836 
L 591.905679 162.769081 
L 598.103801 166.038706 
L 604.301924 169.058275 
L 610.500046 171.83035 
L 616.698168 174.357484 
L 622.89629 176.642268 
L 629.094412 178.687484 
L 635.292535 180.496077 
L 641.490657 182.071308 
L 647.688779 183.416278 
L 653.886901 184.535625 
L 660.085023 185.433628 
L 666.283145 186.115609 
L 672.481268 186.584738 
L 679.043985 186.852098 
L 686.335894 186.904494 
L 695.086184 186.726357 
L 707.117833 186.258264 
L 723.160031 185.618149 
L 743.577375 185.027121 
L 768.369864 184.574888 
L 768.369864 184.574888 
" clip-path="url(#pfe85fc01fa)" style="fill: none; stroke: #c44e52; stroke-opacity: 0.9; stroke-width: 3; stroke-linecap: round"/>
   </g>
   <g id="line2d_23">
    <path d="M 502.579801 86.891727 
L 505.86116 90.560834 
L 514.246854 99.828722 
L 521.174167 107.127225 
L 528.10148 114.094727 
L 534.664198 120.391048 
L 541.226916 126.391854 
L 547.789633 132.097926 
L 554.352351 137.510052 
L 560.915068 142.629062 
L 567.477786 147.455873 
L 573.675908 151.747097 
L 579.87403 155.779479 
L 586.072153 159.554098 
L 592.270275 163.072162 
L 598.468397 166.334949 
L 604.666519 169.343819 
L 610.864641 172.100132 
L 617.062763 174.605695 
L 623.260886 176.862944 
L 629.459008 178.873578 
L 635.65713 180.639467 
L 641.855252 182.162473 
L 648.053374 183.445628 
L 654.251497 184.495161 
L 660.449619 185.313679 
L 666.647741 185.902981 
L 672.845863 186.265019 
L 679.043985 186.403718 
L 685.971298 186.332262 
L 693.992398 186.019589 
L 702.742688 185.448467 
L 728.993558 183.499381 
L 743.21278 182.823924 
L 763.994719 182.093168 
L 768.369864 181.965208 
L 768.369864 181.965208 
" clip-path="url(#pfe85fc01fa)" style="fill: none; stroke: #8172b3; stroke-opacity: 0.9; stroke-width: 3; stroke-linecap: round"/>
   </g>
   <g id="line2d_24">
    <path d="M 502.579801 86.891727 
L 506.225755 90.853467 
L 514.61145 99.834621 
L 521.538763 106.906522 
L 528.466076 113.660027 
L 535.393389 120.096424 
L 542.320702 126.216843 
L 548.883419 131.724597 
L 555.446137 136.950598 
L 562.008855 141.895797 
L 568.571572 146.56124 
L 575.13429 150.948091 
L 581.697007 155.057455 
L 587.89513 158.684827 
L 594.093252 162.066917 
L 600.291374 165.205227 
L 606.489496 168.1016 
L 612.687618 170.757429 
L 618.885741 173.174109 
L 625.083863 175.353106 
L 631.281985 177.295925 
L 637.480107 179.004068 
L 643.678229 180.479211 
L 649.876351 181.725777 
L 656.074474 182.746944 
L 662.272596 183.544718 
L 668.470718 184.121297 
L 674.66884 184.478374 
L 681.231558 184.623516 
L 688.888062 184.553019 
L 696.909161 184.257873 
L 705.659451 183.708571 
L 722.795436 182.529238 
L 736.650062 181.85109 
L 758.525787 181.028304 
L 768.369864 180.707028 
L 768.369864 180.707028 
" clip-path="url(#pfe85fc01fa)" style="fill: none; stroke: #937860; stroke-opacity: 0.9; stroke-width: 3; stroke-linecap: round"/>
   </g>
   <g id="patch_6">
    <path d="M 489.290298 201.042 
L 489.290298 81.456 
" style="fill: none; stroke: #ffffff; stroke-width: 1.25; stroke-linejoin: miter; stroke-linecap: square"/>
   </g>
   <g id="patch_7">
    <path d="M 489.290298 201.042 
L 781.659367 201.042 
" style="fill: none; stroke: #ffffff; stroke-width: 1.25; stroke-linejoin: miter; stroke-linecap: square"/>
   </g>
   <g id="text_5">
    <!-- 0.8~365 -->
    <g style="fill: #262626" transform="translate(580.828239 75.456) scale(0.252 -0.252)">
     <defs>
      <path id="DejaVuSans-33" d="M 2597 2516 
Q 3050 2419 3304 2112 
Q 3559 1806 3559 1356 
Q 3559 666 3084 287 
Q 2609 -91 1734 -91 
Q 1441 -91 1130 -33 
Q 819 25 488 141 
L 488 750 
Q 750 597 1062 519 
Q 1375 441 1716 441 
Q 2309 441 2620 675 
Q 2931 909 2931 1356 
Q 2931 1769 2642 2001 
Q 2353 2234 1838 2234 
L 1294 2234 
L 1294 2753 
L 1863 2753 
Q 2328 2753 2575 2939 
Q 2822 3125 2822 3475 
Q 2822 3834 2567 4026 
Q 2313 4219 1838 4219 
Q 1578 4219 1281 4162 
Q 984 4106 628 3988 
L 628 4550 
Q 988 4650 1302 4700 
Q 1616 4750 1894 4750 
Q 2613 4750 3031 4423 
Q 3450 4097 3450 3541 
Q 3450 3153 3228 2886 
Q 3006 2619 2597 2516 
z
" transform="scale(0.015625)"/>
      <path id="DejaVuSans-36" d="M 2113 2584 
Q 1688 2584 1439 2293 
Q 1191 2003 1191 1497 
Q 1191 994 1439 701 
Q 1688 409 2113 409 
Q 2538 409 2786 701 
Q 3034 994 3034 1497 
Q 3034 2003 2786 2293 
Q 2538 2584 2113 2584 
z
M 3366 4563 
L 3366 3988 
Q 3128 4100 2886 4159 
Q 2644 4219 2406 4219 
Q 1781 4219 1451 3797 
Q 1122 3375 1075 2522 
Q 1259 2794 1537 2939 
Q 1816 3084 2150 3084 
Q 2853 3084 3261 2657 
Q 3669 2231 3669 1497 
Q 3669 778 3244 343 
Q 2819 -91 2113 -91 
Q 1303 -91 875 529 
Q 447 1150 447 2328 
Q 447 3434 972 4092 
Q 1497 4750 2381 4750 
Q 2619 4750 2861 4703 
Q 3103 4656 3366 4563 
z
" transform="scale(0.015625)"/>
      <path id="DejaVuSans-35" d="M 691 4666 
L 3169 4666 
L 3169 4134 
L 1269 4134 
L 1269 2991 
Q 1406 3038 1543 3061 
Q 1681 3084 1819 3084 
Q 2600 3084 3056 2656 
Q 3513 2228 3513 1497 
Q 3513 744 3044 326 
Q 2575 -91 1722 -91 
Q 1428 -91 1123 -41 
Q 819 9 494 109 
L 494 744 
Q 775 591 1075 516 
Q 1375 441 1709 441 
Q 2250 441 2565 725 
Q 2881 1009 2881 1497 
Q 2881 1984 2565 2268 
Q 2250 2553 1709 2553 
Q 1456 2553 1204 2497 
Q 953 2441 691 2322 
L 691 4666 
z
" transform="scale(0.015625)"/>
     </defs>
     <use xlink:href="#DejaVuSans-30"/>
     <use xlink:href="#DejaVuSans-2e" x="63.623047"/>
     <use xlink:href="#DejaVuSans-38" x="95.410156"/>
     <use xlink:href="#DejaVuSans-7e" x="159.033203"/>
     <use xlink:href="#DejaVuSans-33" x="242.822266"/>
     <use xlink:href="#DejaVuSans-36" x="306.445312"/>
     <use xlink:href="#DejaVuSans-35" x="370.068359"/>
    </g>
   </g>
  </g>
  <g id="axes_3">
   <g id="patch_8">
    <path d="M 808.240504 201.042 
L 1100.609573 201.042 
L 1100.609573 81.456 
L 808.240504 81.456 
z
" style="fill: #eaeaf2"/>
   </g>
   <g id="matplotlib.axis_5">
    <g id="xtick_9">
     <g id="line2d_25">
      <path d="M 821.530007 201.042 
L 821.530007 81.456 
" clip-path="url(#pe369ba359a)" style="fill: none; stroke: #ffffff; stroke-linecap: round"/>
     </g>
    </g>
    <g id="xtick_10">
     <g id="line2d_26">
      <path d="M 912.678863 201.042 
L 912.678863 81.456 
" clip-path="url(#pe369ba359a)" style="fill: none; stroke: #ffffff; stroke-linecap: round"/>
     </g>
    </g>
    <g id="xtick_11">
     <g id="line2d_27">
      <path d="M 1003.827719 201.042 
L 1003.827719 81.456 
" clip-path="url(#pe369ba359a)" style="fill: none; stroke: #ffffff; stroke-linecap: round"/>
     </g>
    </g>
    <g id="xtick_12">
     <g id="line2d_28">
      <path d="M 1094.976574 201.042 
L 1094.976574 81.456 
" clip-path="url(#pe369ba359a)" style="fill: none; stroke: #ffffff; stroke-linecap: round"/>
     </g>
    </g>
   </g>
   <g id="matplotlib.axis_6">
    <g id="ytick_5">
     <g id="line2d_29">
      <path d="M 808.240504 187.112703 
L 1100.609573 187.112703 
" clip-path="url(#pe369ba359a)" style="fill: none; stroke: #ffffff; stroke-linecap: round"/>
     </g>
    </g>
    <g id="ytick_6">
     <g id="line2d_30">
      <path d="M 808.240504 86.891727 
L 1100.609573 86.891727 
" clip-path="url(#pe369ba359a)" style="fill: none; stroke: #ffffff; stroke-linecap: round"/>
     </g>
    </g>
   </g>
   <g id="PolyCollection_13"/>
   <g id="PolyCollection_14"/>
   <g id="PolyCollection_15"/>
   <g id="PolyCollection_16"/>
   <g id="PolyCollection_17"/>
   <g id="PolyCollection_18"/>
   <g id="line2d_31">
    <path d="M 821.530007 86.891727 
L 825.905152 91.561223 
L 831.738679 97.610491 
L 837.20761 102.968159 
L 842.676542 108.026644 
L 848.145473 112.792275 
L 853.614404 117.270545 
L 859.083336 121.465862 
L 864.552267 125.383202 
L 870.021198 129.038325 
L 875.49013 132.440932 
L 880.959061 135.595816 
L 886.792588 138.699026 
L 892.626115 141.538805 
L 898.459641 144.120592 
L 904.293168 146.449928 
L 910.126695 148.532376 
L 915.960222 150.373635 
L 921.793748 151.979479 
L 927.627275 153.35564 
L 933.460802 154.507545 
L 939.294329 155.440571 
L 945.127856 156.160118 
L 951.325978 156.702752 
L 958.982482 157.134088 
L 968.461963 157.452766 
L 977.941444 157.536193 
L 987.78552 157.395073 
L 999.087978 157.021687 
L 1009.661245 156.454626 
L 1021.328299 155.608283 
L 1050.131337 153.378916 
L 1083.309521 151.316997 
L 1087.32007 151.073761 
L 1087.32007 151.073761 
" clip-path="url(#pe369ba359a)" style="fill: none; stroke: #4c72b0; stroke-opacity: 0.9; stroke-width: 3; stroke-linecap: round"/>
   </g>
   <g id="line2d_32">
    <path d="M 821.530007 86.891727 
L 824.446771 89.957046 
L 831.374084 97.131757 
L 837.20761 102.835732 
L 843.041137 108.223701 
L 848.874664 113.300206 
L 854.708191 118.071067 
L 860.541717 122.540867 
L 866.375244 126.714519 
L 872.208771 130.598631 
L 877.677702 133.98201 
L 883.511229 137.326563 
L 889.344756 140.414462 
L 895.178283 143.255994 
L 901.011809 145.860268 
L 906.845336 148.231753 
L 912.678863 150.374611 
L 918.51239 152.293041 
L 924.710512 154.090388 
L 930.908634 155.64471 
L 937.106756 156.961156 
L 943.304878 158.044921 
L 949.503001 158.901199 
L 956.065718 159.584218 
L 964.816008 160.246548 
L 973.566298 160.683857 
L 981.951993 160.882791 
L 990.702283 160.861728 
L 999.452573 160.62298 
L 1008.932054 160.151698 
L 1021.692894 159.250986 
L 1039.55807 157.663964 
L 1061.798391 155.857536 
L 1087.32007 153.996979 
L 1087.32007 153.996979 
" clip-path="url(#pe369ba359a)" style="fill: none; stroke: #dd8452; stroke-opacity: 0.9; stroke-width: 3; stroke-linecap: round"/>
   </g>
   <g id="line2d_33">
    <path d="M 821.530007 86.891727 
L 824.082175 89.813063 
L 830.644893 97.225833 
L 836.113824 103.054046 
L 841.582756 108.555852 
L 847.051687 113.73917 
L 852.520618 118.610043 
L 857.98955 123.173614 
L 863.458481 127.436112 
L 868.927412 131.404134 
L 874.396344 135.085042 
L 879.865275 138.48516 
L 885.334206 141.612096 
L 890.803138 144.472966 
L 896.272069 147.077226 
L 901.741 149.434551 
L 907.209932 151.554047 
L 912.678863 153.443744 
L 918.147794 155.110612 
L 923.981321 156.649412 
L 929.814848 157.948064 
L 935.648375 159.013503 
L 941.481901 159.855765 
L 947.680023 160.523974 
L 953.878146 160.972872 
L 961.170054 161.271249 
L 969.920344 161.397393 
L 980.129016 161.329207 
L 991.79607 161.019862 
L 1004.192314 160.467861 
L 1016.953154 159.667281 
L 1053.048101 157.237729 
L 1085.497093 155.525344 
L 1087.32007 155.432084 
L 1087.32007 155.432084 
" clip-path="url(#pe369ba359a)" style="fill: none; stroke: #55a868; stroke-opacity: 0.9; stroke-width: 3; stroke-linecap: round"/>
   </g>
   <g id="line2d_34">
    <path d="M 821.530007 86.891727 
L 824.082175 89.719425 
L 830.644893 96.897351 
L 836.113824 102.542744 
L 841.582756 107.87252 
L 847.051687 112.892675 
L 852.520618 117.608545 
L 857.98955 122.025723 
L 863.458481 126.151041 
L 868.927412 129.991971 
L 874.396344 133.555009 
L 879.865275 136.847428 
L 885.334206 139.876841 
L 890.803138 142.651472 
L 896.272069 145.178757 
L 901.741 147.46825 
L 907.209932 149.528089 
L 913.043458 151.481222 
L 918.876985 153.191062 
L 924.710512 154.665032 
L 930.544039 155.909741 
L 936.377565 156.932832 
L 942.575688 157.791349 
L 948.77381 158.430158 
L 955.336527 158.880216 
L 962.993031 159.178173 
L 972.107917 159.306237 
L 982.316589 159.229396 
L 994.712833 158.907604 
L 1006.379886 158.397578 
L 1018.776131 157.628916 
L 1053.777291 155.253097 
L 1087.32007 153.422624 
L 1087.32007 153.422624 
" clip-path="url(#pe369ba359a)" style="fill: none; stroke: #c44e52; stroke-opacity: 0.9; stroke-width: 3; stroke-linecap: round"/>
   </g>
   <g id="line2d_35">
    <path d="M 821.530007 86.891727 
L 825.175962 90.947628 
L 831.374084 97.673972 
L 836.843015 103.278051 
L 842.311946 108.571695 
L 847.780878 113.560156 
L 853.249809 118.248218 
L 858.71874 122.64068 
L 864.187672 126.742279 
L 869.656603 130.557369 
L 875.125534 134.090854 
L 880.594466 137.348779 
L 886.063397 140.33572 
L 891.532328 143.056164 
L 897.00126 145.515942 
L 902.470191 147.725835 
L 907.939122 149.691645 
L 913.408054 151.417873 
L 918.876985 152.909078 
L 924.345916 154.170139 
L 929.814848 155.206014 
L 935.283779 156.021796 
L 940.75271 156.622933 
L 946.586237 157.033618 
L 952.784359 157.237761 
L 959.347077 157.237065 
L 966.638985 157.01656 
L 977.941444 156.394255 
L 991.066879 155.419253 
L 1006.744482 154.009849 
L 1040.287261 150.953838 
L 1056.694055 149.708625 
L 1084.038711 147.920688 
L 1087.32007 147.714624 
L 1087.32007 147.714624 
" clip-path="url(#pe369ba359a)" style="fill: none; stroke: #8172b3; stroke-opacity: 0.9; stroke-width: 3; stroke-linecap: round"/>
   </g>
   <g id="line2d_36">
    <path d="M 821.530007 86.891727 
L 825.905152 91.617101 
L 832.103275 98.113164 
L 837.572206 103.526812 
L 843.041137 108.646549 
L 848.510069 113.4778 
L 853.979 118.025289 
L 859.447931 122.293495 
L 864.916863 126.288053 
L 870.385794 130.01402 
L 875.854725 133.475752 
L 881.323657 136.677602 
L 886.792588 139.623992 
L 892.261519 142.319531 
L 897.730451 144.77277 
L 903.199382 146.989705 
L 908.668313 148.974913 
L 914.137245 150.73315 
L 919.606176 152.269169 
L 925.075107 153.587062 
L 930.908634 154.757116 
L 936.742161 155.688843 
L 942.575688 156.387679 
L 948.409214 156.860223 
L 954.971932 157.156926 
L 961.899245 157.251287 
L 969.191153 157.132925 
L 978.306039 156.756954 
L 989.243902 156.073499 
L 1002.004741 155.052006 
L 1015.130177 153.770762 
L 1039.922665 151.241447 
L 1059.975414 149.589655 
L 1085.861689 147.730695 
L 1087.32007 147.629841 
L 1087.32007 147.629841 
" clip-path="url(#pe369ba359a)" style="fill: none; stroke: #937860; stroke-opacity: 0.9; stroke-width: 3; stroke-linecap: round"/>
   </g>
   <g id="patch_9">
    <path d="M 808.240504 201.042 
L 808.240504 81.456 
" style="fill: none; stroke: #ffffff; stroke-width: 1.25; stroke-linejoin: miter; stroke-linecap: square"/>
   </g>
   <g id="patch_10">
    <path d="M 808.240504 201.042 
L 1100.609573 201.042 
" style="fill: none; stroke: #ffffff; stroke-width: 1.25; stroke-linejoin: miter; stroke-linecap: square"/>
   </g>
   <g id="text_6">
    <!-- 0.85~90 -->
    <g style="fill: #262626" transform="translate(899.778445 75.456) scale(0.252 -0.252)">
     <use xlink:href="#DejaVuSans-30"/>
     <use xlink:href="#DejaVuSans-2e" x="63.623047"/>
     <use xlink:href="#DejaVuSans-38" x="95.410156"/>
     <use xlink:href="#DejaVuSans-35" x="159.033203"/>
     <use xlink:href="#DejaVuSans-7e" x="222.65625"/>
     <use xlink:href="#DejaVuSans-39" x="306.445312"/>
     <use xlink:href="#DejaVuSans-30" x="370.068359"/>
    </g>
   </g>
  </g>
  <g id="axes_4">
   <g id="patch_11">
    <path d="M 170.340091 373.284 
L 462.70916 373.284 
L 462.70916 253.698 
L 170.340091 253.698 
z
" style="fill: #eaeaf2"/>
   </g>
   <g id="matplotlib.axis_7">
    <g id="xtick_13">
     <g id="line2d_37">
      <path d="M 183.629594 373.284 
L 183.629594 253.698 
" clip-path="url(#pa6f28e19af)" style="fill: none; stroke: #ffffff; stroke-linecap: round"/>
     </g>
     <g id="text_7">
      <!-- 0 -->
      <g style="fill: #262626" transform="translate(176.280907 400.336391) scale(0.231 -0.231)">
       <use xlink:href="#DejaVuSans-30"/>
      </g>
     </g>
    </g>
    <g id="xtick_14">
     <g id="line2d_38">
      <path d="M 274.77845 373.284 
L 274.77845 253.698 
" clip-path="url(#pa6f28e19af)" style="fill: none; stroke: #ffffff; stroke-linecap: round"/>
     </g>
     <g id="text_8">
      <!-- 250 -->
      <g style="fill: #262626" transform="translate(252.732387 400.336391) scale(0.231 -0.231)">
       <use xlink:href="#DejaVuSans-32"/>
       <use xlink:href="#DejaVuSans-35" x="63.623047"/>
       <use xlink:href="#DejaVuSans-30" x="127.246094"/>
      </g>
     </g>
    </g>
    <g id="xtick_15">
     <g id="line2d_39">
      <path d="M 365.927305 373.284 
L 365.927305 253.698 
" clip-path="url(#pa6f28e19af)" style="fill: none; stroke: #ffffff; stroke-linecap: round"/>
     </g>
     <g id="text_9">
      <!-- 500 -->
      <g style="fill: #262626" transform="translate(343.881243 400.336391) scale(0.231 -0.231)">
       <use xlink:href="#DejaVuSans-35"/>
       <use xlink:href="#DejaVuSans-30" x="63.623047"/>
       <use xlink:href="#DejaVuSans-30" x="127.246094"/>
      </g>
     </g>
    </g>
    <g id="xtick_16">
     <g id="line2d_40">
      <path d="M 457.076161 373.284 
L 457.076161 253.698 
" clip-path="url(#pa6f28e19af)" style="fill: none; stroke: #ffffff; stroke-linecap: round"/>
     </g>
     <g id="text_10">
      <!-- 750 -->
      <g style="fill: #262626" transform="translate(435.030099 400.336391) scale(0.231 -0.231)">
       <defs>
        <path id="DejaVuSans-37" d="M 525 4666 
L 3525 4666 
L 3525 4397 
L 1831 0 
L 1172 0 
L 2766 4134 
L 525 4134 
L 525 4666 
z
" transform="scale(0.015625)"/>
       </defs>
       <use xlink:href="#DejaVuSans-37"/>
       <use xlink:href="#DejaVuSans-35" x="63.623047"/>
       <use xlink:href="#DejaVuSans-30" x="127.246094"/>
      </g>
     </g>
    </g>
    <g id="text_11">
     <!-- step -->
     <g style="fill: #262626" transform="translate(289.269251 428.288531) scale(0.252 -0.252)">
      <defs>
       <path id="DejaVuSans-73" d="M 2834 3397 
L 2834 2853 
Q 2591 2978 2328 3040 
Q 2066 3103 1784 3103 
Q 1356 3103 1142 2972 
Q 928 2841 928 2578 
Q 928 2378 1081 2264 
Q 1234 2150 1697 2047 
L 1894 2003 
Q 2506 1872 2764 1633 
Q 3022 1394 3022 966 
Q 3022 478 2636 193 
Q 2250 -91 1575 -91 
Q 1294 -91 989 -36 
Q 684 19 347 128 
L 347 722 
Q 666 556 975 473 
Q 1284 391 1588 391 
Q 1994 391 2212 530 
Q 2431 669 2431 922 
Q 2431 1156 2273 1281 
Q 2116 1406 1581 1522 
L 1381 1569 
Q 847 1681 609 1914 
Q 372 2147 372 2553 
Q 372 3047 722 3315 
Q 1072 3584 1716 3584 
Q 2034 3584 2315 3537 
Q 2597 3491 2834 3397 
z
" transform="scale(0.015625)"/>
       <path id="DejaVuSans-74" d="M 1172 4494 
L 1172 3500 
L 2356 3500 
L 2356 3053 
L 1172 3053 
L 1172 1153 
Q 1172 725 1289 603 
Q 1406 481 1766 481 
L 2356 481 
L 2356 0 
L 1766 0 
Q 1100 0 847 248 
Q 594 497 594 1153 
L 594 3053 
L 172 3053 
L 172 3500 
L 594 3500 
L 594 4494 
L 1172 4494 
z
" transform="scale(0.015625)"/>
       <path id="DejaVuSans-70" d="M 1159 525 
L 1159 -1331 
L 581 -1331 
L 581 3500 
L 1159 3500 
L 1159 2969 
Q 1341 3281 1617 3432 
Q 1894 3584 2278 3584 
Q 2916 3584 3314 3078 
Q 3713 2572 3713 1747 
Q 3713 922 3314 415 
Q 2916 -91 2278 -91 
Q 1894 -91 1617 61 
Q 1341 213 1159 525 
z
M 3116 1747 
Q 3116 2381 2855 2742 
Q 2594 3103 2138 3103 
Q 1681 3103 1420 2742 
Q 1159 2381 1159 1747 
Q 1159 1113 1420 752 
Q 1681 391 2138 391 
Q 2594 391 2855 752 
Q 3116 1113 3116 1747 
z
" transform="scale(0.015625)"/>
      </defs>
      <use xlink:href="#DejaVuSans-73"/>
      <use xlink:href="#DejaVuSans-74" x="52.099609"/>
      <use xlink:href="#DejaVuSans-65" x="91.308594"/>
      <use xlink:href="#DejaVuSans-70" x="152.832031"/>
     </g>
    </g>
   </g>
   <g id="matplotlib.axis_8">
    <g id="ytick_7">
     <g id="line2d_41">
      <path d="M 170.340091 359.354703 
L 462.70916 359.354703 
" clip-path="url(#pa6f28e19af)" style="fill: none; stroke: #ffffff; stroke-linecap: round"/>
     </g>
     <g id="text_12">
      <!-- −0.2 -->
      <g style="fill: #262626" transform="translate(104.746794 368.130898) scale(0.231 -0.231)">
       <use xlink:href="#DejaVuSans-2212"/>
       <use xlink:href="#DejaVuSans-30" x="83.789062"/>
       <use xlink:href="#DejaVuSans-2e" x="147.412109"/>
       <use xlink:href="#DejaVuSans-32" x="179.199219"/>
      </g>
     </g>
    </g>
    <g id="ytick_8">
     <g id="line2d_42">
      <path d="M 170.340091 259.133727 
L 462.70916 259.133727 
" clip-path="url(#pa6f28e19af)" style="fill: none; stroke: #ffffff; stroke-linecap: round"/>
     </g>
     <g id="text_13">
      <!-- 0.0 -->
      <g style="fill: #262626" transform="translate(124.103872 267.909923) scale(0.231 -0.231)">
       <use xlink:href="#DejaVuSans-30"/>
       <use xlink:href="#DejaVuSans-2e" x="63.623047"/>
       <use xlink:href="#DejaVuSans-30" x="95.410156"/>
      </g>
     </g>
    </g>
    <g id="text_14">
     <!-- % change -->
     <g style="fill: #262626" transform="translate(95.505982 375.839344) rotate(-90) scale(0.252 -0.252)">
      <use xlink:href="#DejaVuSans-25"/>
      <use xlink:href="#DejaVuSans-20" x="95.019531"/>
      <use xlink:href="#DejaVuSans-63" x="126.806641"/>
      <use xlink:href="#DejaVuSans-68" x="181.787109"/>
      <use xlink:href="#DejaVuSans-61" x="245.166016"/>
      <use xlink:href="#DejaVuSans-6e" x="306.445312"/>
      <use xlink:href="#DejaVuSans-67" x="369.824219"/>
      <use xlink:href="#DejaVuSans-65" x="433.300781"/>
     </g>
    </g>
   </g>
   <g id="PolyCollection_19"/>
   <g id="PolyCollection_20"/>
   <g id="PolyCollection_21"/>
   <g id="PolyCollection_22"/>
   <g id="PolyCollection_23"/>
   <g id="PolyCollection_24"/>
   <g id="line2d_43">
    <path d="M 183.629594 259.133727 
L 187.275548 263.049068 
L 195.661243 271.930737 
L 202.588556 278.920474 
L 209.515869 285.590783 
L 216.443182 291.942251 
L 223.0059 297.666009 
L 229.568617 303.105132 
L 236.131335 308.261192 
L 242.694053 313.13575 
L 249.25677 317.73011 
L 255.819488 322.04593 
L 262.382205 326.085512 
L 268.580328 329.648624 
L 274.77845 332.968437 
L 280.976572 336.046497 
L 287.174694 338.884461 
L 293.372816 341.486163 
L 299.570939 343.859203 
L 305.769061 346.005763 
L 312.331778 348.036929 
L 318.529901 349.729581 
L 324.728023 351.204585 
L 330.926145 352.463519 
L 337.124267 353.507983 
L 343.322389 354.339599 
L 349.885107 354.989818 
L 356.447824 355.404875 
L 363.010542 355.59318 
L 370.667046 355.595282 
L 378.688145 355.374736 
L 392.907367 354.726137 
L 407.491184 354.201758 
L 433.742054 353.51452 
L 449.419657 353.177878 
L 449.419657 353.177878 
" clip-path="url(#pa6f28e19af)" style="fill: none; stroke: #4c72b0; stroke-opacity: 0.9; stroke-width: 3; stroke-linecap: round"/>
   </g>
   <g id="line2d_44">
    <path d="M 183.629594 259.133727 
L 186.546358 262.210258 
L 195.661243 271.769389 
L 202.588556 278.689845 
L 209.515869 285.302301 
L 216.443182 291.607319 
L 223.370495 297.605431 
L 230.297808 303.297422 
L 236.860526 308.40837 
L 243.423244 313.246417 
L 249.985961 317.812677 
L 256.548679 322.108644 
L 263.111396 326.136464 
L 269.674114 329.897627 
L 276.236832 333.393598 
L 282.799549 336.625864 
L 288.997671 339.437846 
L 295.195794 342.01789 
L 301.393916 344.368061 
L 307.592038 346.489936 
L 313.79016 348.387383 
L 320.352878 350.162801 
L 326.915595 351.703425 
L 333.478313 353.011103 
L 340.04103 354.087374 
L 346.603748 354.933769 
L 353.166466 355.551699 
L 359.729183 355.942611 
L 366.656496 356.127982 
L 374.313 356.117846 
L 382.698695 355.871046 
L 425.356359 354.255281 
L 449.419657 353.703073 
L 449.419657 353.703073 
" clip-path="url(#pa6f28e19af)" style="fill: none; stroke: #dd8452; stroke-opacity: 0.9; stroke-width: 3; stroke-linecap: round"/>
   </g>
   <g id="line2d_45">
    <path d="M 183.629594 259.133727 
L 186.181762 262.065869 
L 194.932052 272.087134 
L 201.859365 279.644347 
L 208.422083 286.484091 
L 214.984801 293.014846 
L 221.547518 299.237836 
L 228.110236 305.153871 
L 234.672953 310.764094 
L 241.235671 316.069688 
L 247.433793 320.802013 
L 253.631915 325.265311 
L 259.830038 329.461469 
L 266.02816 333.392277 
L 272.226282 337.059548 
L 278.424404 340.4658 
L 284.622526 343.613131 
L 290.820648 346.504081 
L 297.018771 349.141563 
L 303.216893 351.527989 
L 309.415015 353.665614 
L 315.613137 355.557398 
L 321.811259 357.205974 
L 328.009382 358.61486 
L 334.207504 359.789461 
L 340.405626 360.735301 
L 346.603748 361.45697 
L 352.80187 361.957159 
L 358.999992 362.238049 
L 365.927305 362.314466 
L 373.948405 362.163705 
L 386.344649 361.673356 
L 403.480634 360.940602 
L 422.439596 360.393327 
L 447.232085 359.942746 
L 449.419657 359.909073 
L 449.419657 359.909073 
" clip-path="url(#pa6f28e19af)" style="fill: none; stroke: #55a868; stroke-opacity: 0.9; stroke-width: 3; stroke-linecap: round"/>
   </g>
   <g id="line2d_46">
    <path d="M 183.629594 259.133727 
L 185.817167 261.561169 
L 194.932052 271.675052 
L 201.859365 278.994651 
L 208.786678 285.979807 
L 215.349396 292.289802 
L 221.912114 298.30139 
L 228.474831 304.01552 
L 235.037549 309.433283 
L 241.600266 314.555966 
L 248.162984 319.385013 
L 254.361106 323.677682 
L 260.559228 327.711652 
L 266.757351 331.488836 
L 272.955473 335.011081 
L 279.153595 338.280706 
L 285.351717 341.300275 
L 291.549839 344.07235 
L 297.747961 346.599484 
L 303.946084 348.884268 
L 310.144206 350.929484 
L 316.342328 352.738077 
L 322.54045 354.313308 
L 328.738572 355.658278 
L 334.936695 356.777625 
L 341.134817 357.675628 
L 347.332939 358.357609 
L 353.531061 358.826738 
L 360.093779 359.094098 
L 367.385687 359.146494 
L 376.135977 358.968357 
L 388.167626 358.500264 
L 404.209825 357.860149 
L 424.627169 357.269121 
L 449.419657 356.816888 
L 449.419657 356.816888 
" clip-path="url(#pa6f28e19af)" style="fill: none; stroke: #c44e52; stroke-opacity: 0.9; stroke-width: 3; stroke-linecap: round"/>
   </g>
   <g id="line2d_47">
    <path d="M 183.629594 259.133727 
L 186.910953 262.802834 
L 195.296648 272.070722 
L 202.223961 279.369225 
L 209.151274 286.336727 
L 215.713991 292.633048 
L 222.276709 298.633854 
L 228.839427 304.339926 
L 235.402144 309.752052 
L 241.964862 314.871062 
L 248.527579 319.697873 
L 254.725702 323.989097 
L 260.923824 328.021479 
L 267.121946 331.796098 
L 273.320068 335.314162 
L 279.51819 338.576949 
L 285.716313 341.585819 
L 291.914435 344.342132 
L 298.112557 346.847695 
L 304.310679 349.104944 
L 310.508801 351.115578 
L 316.706923 352.881467 
L 322.905046 354.404473 
L 329.103168 355.687628 
L 335.30129 356.737161 
L 341.499412 357.555679 
L 347.697534 358.144981 
L 353.895657 358.507019 
L 360.093779 358.645718 
L 367.021092 358.574262 
L 375.042191 358.261589 
L 383.792481 357.690467 
L 410.043352 355.741381 
L 424.262573 355.065924 
L 445.044512 354.335168 
L 449.419657 354.207208 
L 449.419657 354.207208 
" clip-path="url(#pa6f28e19af)" style="fill: none; stroke: #8172b3; stroke-opacity: 0.9; stroke-width: 3; stroke-linecap: round"/>
   </g>
   <g id="line2d_48">
    <path d="M 183.629594 259.133727 
L 187.275548 263.095467 
L 195.661243 272.076621 
L 202.588556 279.148522 
L 209.515869 285.902027 
L 216.443182 292.338424 
L 223.370495 298.458843 
L 229.933213 303.966597 
L 236.49593 309.192598 
L 243.058648 314.137797 
L 249.621366 318.80324 
L 256.184083 323.190091 
L 262.746801 327.299455 
L 268.944923 330.926827 
L 275.143045 334.308917 
L 281.341167 337.447227 
L 287.53929 340.3436 
L 293.737412 342.999429 
L 299.935534 345.416109 
L 306.133656 347.595106 
L 312.331778 349.537925 
L 318.529901 351.246068 
L 324.728023 352.721211 
L 330.926145 353.967777 
L 337.124267 354.988944 
L 343.322389 355.786718 
L 349.520511 356.363297 
L 355.718634 356.720374 
L 362.281351 356.865516 
L 369.937855 356.795019 
L 377.958954 356.499873 
L 386.709245 355.950571 
L 403.845229 354.771238 
L 417.699855 354.09309 
L 439.575581 353.270304 
L 449.419657 352.949028 
L 449.419657 352.949028 
" clip-path="url(#pa6f28e19af)" style="fill: none; stroke: #937860; stroke-opacity: 0.9; stroke-width: 3; stroke-linecap: round"/>
   </g>
   <g id="patch_12">
    <path d="M 170.340091 373.284 
L 170.340091 253.698 
" style="fill: none; stroke: #ffffff; stroke-width: 1.25; stroke-linejoin: miter; stroke-linecap: square"/>
   </g>
   <g id="patch_13">
    <path d="M 170.340091 373.284 
L 462.70916 373.284 
" style="fill: none; stroke: #ffffff; stroke-width: 1.25; stroke-linejoin: miter; stroke-linecap: square"/>
   </g>
   <g id="text_15">
    <!-- 0.85~365 -->
    <g style="fill: #262626" transform="translate(253.861282 247.698) scale(0.252 -0.252)">
     <use xlink:href="#DejaVuSans-30"/>
     <use xlink:href="#DejaVuSans-2e" x="63.623047"/>
     <use xlink:href="#DejaVuSans-38" x="95.410156"/>
     <use xlink:href="#DejaVuSans-35" x="159.033203"/>
     <use xlink:href="#DejaVuSans-7e" x="222.65625"/>
     <use xlink:href="#DejaVuSans-33" x="306.445312"/>
     <use xlink:href="#DejaVuSans-36" x="370.068359"/>
     <use xlink:href="#DejaVuSans-35" x="433.691406"/>
    </g>
   </g>
  </g>
  <g id="axes_5">
   <g id="patch_14">
    <path d="M 489.290298 373.284 
L 781.659367 373.284 
L 781.659367 253.698 
L 489.290298 253.698 
z
" style="fill: #eaeaf2"/>
   </g>
   <g id="matplotlib.axis_9">
    <g id="xtick_17">
     <g id="line2d_49">
      <path d="M 502.579801 373.284 
L 502.579801 253.698 
" clip-path="url(#p76c451ea72)" style="fill: none; stroke: #ffffff; stroke-linecap: round"/>
     </g>
     <g id="text_16">
      <!-- 0 -->
      <g style="fill: #262626" transform="translate(495.231113 400.336391) scale(0.231 -0.231)">
       <use xlink:href="#DejaVuSans-30"/>
      </g>
     </g>
    </g>
    <g id="xtick_18">
     <g id="line2d_50">
      <path d="M 593.728656 373.284 
L 593.728656 253.698 
" clip-path="url(#p76c451ea72)" style="fill: none; stroke: #ffffff; stroke-linecap: round"/>
     </g>
     <g id="text_17">
      <!-- 250 -->
      <g style="fill: #262626" transform="translate(571.682594 400.336391) scale(0.231 -0.231)">
       <use xlink:href="#DejaVuSans-32"/>
       <use xlink:href="#DejaVuSans-35" x="63.623047"/>
       <use xlink:href="#DejaVuSans-30" x="127.246094"/>
      </g>
     </g>
    </g>
    <g id="xtick_19">
     <g id="line2d_51">
      <path d="M 684.877512 373.284 
L 684.877512 253.698 
" clip-path="url(#p76c451ea72)" style="fill: none; stroke: #ffffff; stroke-linecap: round"/>
     </g>
     <g id="text_18">
      <!-- 500 -->
      <g style="fill: #262626" transform="translate(662.83145 400.336391) scale(0.231 -0.231)">
       <use xlink:href="#DejaVuSans-35"/>
       <use xlink:href="#DejaVuSans-30" x="63.623047"/>
       <use xlink:href="#DejaVuSans-30" x="127.246094"/>
      </g>
     </g>
    </g>
    <g id="xtick_20">
     <g id="line2d_52">
      <path d="M 776.026368 373.284 
L 776.026368 253.698 
" clip-path="url(#p76c451ea72)" style="fill: none; stroke: #ffffff; stroke-linecap: round"/>
     </g>
     <g id="text_19">
      <!-- 750 -->
      <g style="fill: #262626" transform="translate(753.980305 400.336391) scale(0.231 -0.231)">
       <use xlink:href="#DejaVuSans-37"/>
       <use xlink:href="#DejaVuSans-35" x="63.623047"/>
       <use xlink:href="#DejaVuSans-30" x="127.246094"/>
      </g>
     </g>
    </g>
    <g id="text_20">
     <!-- step -->
     <g style="fill: #262626" transform="translate(608.219457 428.288531) scale(0.252 -0.252)">
      <use xlink:href="#DejaVuSans-73"/>
      <use xlink:href="#DejaVuSans-74" x="52.099609"/>
      <use xlink:href="#DejaVuSans-65" x="91.308594"/>
      <use xlink:href="#DejaVuSans-70" x="152.832031"/>
     </g>
    </g>
   </g>
   <g id="matplotlib.axis_10">
    <g id="ytick_9">
     <g id="line2d_53">
      <path d="M 489.290298 359.354703 
L 781.659367 359.354703 
" clip-path="url(#p76c451ea72)" style="fill: none; stroke: #ffffff; stroke-linecap: round"/>
     </g>
    </g>
    <g id="ytick_10">
     <g id="line2d_54">
      <path d="M 489.290298 259.133727 
L 781.659367 259.133727 
" clip-path="url(#p76c451ea72)" style="fill: none; stroke: #ffffff; stroke-linecap: round"/>
     </g>
    </g>
   </g>
   <g id="PolyCollection_25"/>
   <g id="PolyCollection_26"/>
   <g id="PolyCollection_27"/>
   <g id="PolyCollection_28"/>
   <g id="PolyCollection_29"/>
   <g id="PolyCollection_30"/>
   <g id="line2d_55">
    <path d="M 502.579801 259.133727 
L 506.954946 263.803223 
L 512.788473 269.852491 
L 518.257404 275.210159 
L 523.726335 280.268644 
L 529.195267 285.034275 
L 534.664198 289.512545 
L 540.133129 293.707862 
L 545.602061 297.625202 
L 551.070992 301.280325 
L 556.539923 304.682932 
L 562.008855 307.837816 
L 567.842381 310.941026 
L 573.675908 313.780805 
L 579.509435 316.362592 
L 585.342962 318.691928 
L 591.176488 320.774376 
L 597.010015 322.615635 
L 602.843542 324.221479 
L 608.677069 325.59764 
L 614.510595 326.749545 
L 620.344122 327.682571 
L 626.177649 328.402118 
L 632.375771 328.944752 
L 640.032275 329.376088 
L 649.511756 329.694766 
L 658.991237 329.778193 
L 668.835313 329.637073 
L 680.137772 329.263687 
L 690.711039 328.696626 
L 702.378092 327.850283 
L 731.181131 325.620916 
L 764.359314 323.558997 
L 768.369864 323.315761 
L 768.369864 323.315761 
" clip-path="url(#p76c451ea72)" style="fill: none; stroke: #4c72b0; stroke-opacity: 0.9; stroke-width: 3; stroke-linecap: round"/>
   </g>
   <g id="line2d_56">
    <path d="M 502.579801 259.133727 
L 505.496564 262.199046 
L 512.423877 269.373757 
L 518.257404 275.077732 
L 524.090931 280.465701 
L 529.924457 285.542206 
L 535.757984 290.313067 
L 541.591511 294.782867 
L 547.425038 298.956519 
L 553.258564 302.840631 
L 558.727496 306.22401 
L 564.561023 309.568563 
L 570.394549 312.656462 
L 576.228076 315.497994 
L 582.061603 318.102268 
L 587.89513 320.473753 
L 593.728656 322.616611 
L 599.562183 324.535041 
L 605.760305 326.332388 
L 611.958428 327.88671 
L 618.15655 329.203156 
L 624.354672 330.286921 
L 630.552794 331.143199 
L 637.115512 331.826218 
L 645.865802 332.488548 
L 654.616092 332.925857 
L 663.001787 333.124791 
L 671.752077 333.103728 
L 680.502367 332.86498 
L 689.981848 332.393698 
L 702.742688 331.492986 
L 720.607863 329.905964 
L 742.848184 328.099536 
L 768.369864 326.238979 
L 768.369864 326.238979 
" clip-path="url(#p76c451ea72)" style="fill: none; stroke: #dd8452; stroke-opacity: 0.9; stroke-width: 3; stroke-linecap: round"/>
   </g>
   <g id="line2d_57">
    <path d="M 502.579801 259.133727 
L 505.131969 262.055063 
L 511.694686 269.467833 
L 517.163618 275.296046 
L 522.632549 280.797852 
L 528.10148 285.98117 
L 533.570412 290.852043 
L 539.039343 295.415614 
L 544.508274 299.68319 
L 549.977206 303.679233 
L 555.446137 307.419161 
L 561.279664 311.140084 
L 567.113191 314.588368 
L 572.582122 317.565996 
L 578.051053 320.294184 
L 583.88458 322.94013 
L 589.718107 325.330033 
L 595.551633 327.470416 
L 601.38516 329.364348 
L 607.218687 331.012923 
L 612.687618 332.335563 
L 618.15655 333.442547 
L 623.990076 334.38905 
L 629.823603 335.103751 
L 635.65713 335.597709 
L 642.219848 335.925699 
L 649.876351 336.068688 
L 659.355832 336.019263 
L 669.564504 335.739016 
L 682.325344 335.167618 
L 695.086184 334.374608 
L 740.660612 331.289172 
L 768.369864 329.792952 
L 768.369864 329.792952 
" clip-path="url(#p76c451ea72)" style="fill: none; stroke: #55a868; stroke-opacity: 0.9; stroke-width: 3; stroke-linecap: round"/>
   </g>
   <g id="line2d_58">
    <path d="M 502.579801 259.133727 
L 505.131969 261.961425 
L 511.694686 269.139351 
L 517.163618 274.784744 
L 522.632549 280.11452 
L 528.10148 285.134675 
L 533.570412 289.850545 
L 539.039343 294.279875 
L 544.508274 298.440047 
L 549.977206 302.334871 
L 555.810732 306.21628 
L 561.644259 309.835422 
L 567.477786 313.190337 
L 572.946717 316.089099 
L 578.415649 318.745775 
L 584.249175 321.320634 
L 590.082702 323.644009 
L 595.916229 325.723401 
L 601.749756 327.562608 
L 607.583282 329.162517 
L 613.416809 330.523298 
L 619.250336 331.646276 
L 625.083863 332.539072 
L 630.917389 333.209265 
L 637.115512 333.689753 
L 644.042825 333.994697 
L 652.063924 334.119157 
L 661.543405 334.040204 
L 673.575054 333.690352 
L 685.971298 333.125669 
L 698.367543 332.338619 
L 739.931421 329.454249 
L 768.369864 327.832293 
L 768.369864 327.832293 
" clip-path="url(#p76c451ea72)" style="fill: none; stroke: #c44e52; stroke-opacity: 0.9; stroke-width: 3; stroke-linecap: round"/>
   </g>
   <g id="line2d_59">
    <path d="M 502.579801 259.133727 
L 506.225755 263.189628 
L 512.423877 269.915972 
L 517.892809 275.520051 
L 523.36174 280.813695 
L 528.830671 285.802156 
L 534.299603 290.490218 
L 539.768534 294.88268 
L 545.237465 298.984279 
L 550.706397 302.799369 
L 556.175328 306.332854 
L 561.644259 309.590779 
L 567.113191 312.57772 
L 572.582122 315.298164 
L 578.051053 317.757942 
L 583.519985 319.967835 
L 588.988916 321.933645 
L 594.457847 323.659873 
L 599.926779 325.151078 
L 605.39571 326.412139 
L 610.864641 327.448014 
L 616.333573 328.263796 
L 621.802504 328.864933 
L 627.636031 329.275618 
L 633.834153 329.479761 
L 640.39687 329.479065 
L 647.688779 329.25856 
L 658.991237 328.636255 
L 672.116672 327.661253 
L 687.794275 326.251849 
L 721.337054 323.195838 
L 737.743848 321.950625 
L 765.088505 320.162688 
L 768.369864 319.956624 
L 768.369864 319.956624 
" clip-path="url(#p76c451ea72)" style="fill: none; stroke: #8172b3; stroke-opacity: 0.9; stroke-width: 3; stroke-linecap: round"/>
   </g>
   <g id="line2d_60">
    <path d="M 502.579801 259.133727 
L 506.954946 263.859101 
L 513.153068 270.355164 
L 518.621999 275.768812 
L 524.090931 280.888549 
L 529.559862 285.7198 
L 535.028793 290.267289 
L 540.497725 294.535495 
L 545.966656 298.530053 
L 551.435587 302.25602 
L 556.904519 305.717752 
L 562.37345 308.919602 
L 567.842381 311.865992 
L 573.311313 314.561531 
L 578.780244 317.01477 
L 584.249175 319.231705 
L 589.718107 321.216913 
L 595.187038 322.97515 
L 600.655969 324.511169 
L 606.124901 325.829062 
L 611.958428 326.999116 
L 617.791954 327.930843 
L 623.625481 328.629679 
L 629.459008 329.102223 
L 636.021725 329.398926 
L 642.949038 329.493287 
L 650.240947 329.374925 
L 659.355832 328.998954 
L 670.293695 328.315499 
L 683.054535 327.294006 
L 696.17997 326.012762 
L 720.972459 323.483447 
L 741.025207 321.831655 
L 766.911482 319.972695 
L 768.369864 319.871841 
L 768.369864 319.871841 
" clip-path="url(#p76c451ea72)" style="fill: none; stroke: #937860; stroke-opacity: 0.9; stroke-width: 3; stroke-linecap: round"/>
   </g>
   <g id="patch_15">
    <path d="M 489.290298 373.284 
L 489.290298 253.698 
" style="fill: none; stroke: #ffffff; stroke-width: 1.25; stroke-linejoin: miter; stroke-linecap: square"/>
   </g>
   <g id="patch_16">
    <path d="M 489.290298 373.284 
L 781.659367 373.284 
" style="fill: none; stroke: #ffffff; stroke-width: 1.25; stroke-linejoin: miter; stroke-linecap: square"/>
   </g>
   <g id="text_21">
    <!-- 0.95~90 -->
    <g style="fill: #262626" transform="translate(580.828239 247.698) scale(0.252 -0.252)">
     <use xlink:href="#DejaVuSans-30"/>
     <use xlink:href="#DejaVuSans-2e" x="63.623047"/>
     <use xlink:href="#DejaVuSans-39" x="95.410156"/>
     <use xlink:href="#DejaVuSans-35" x="159.033203"/>
     <use xlink:href="#DejaVuSans-7e" x="222.65625"/>
     <use xlink:href="#DejaVuSans-39" x="306.445312"/>
     <use xlink:href="#DejaVuSans-30" x="370.068359"/>
    </g>
   </g>
  </g>
  <g id="axes_6">
   <g id="patch_17">
    <path d="M 808.240504 373.284 
L 1100.609573 373.284 
L 1100.609573 253.698 
L 808.240504 253.698 
z
" style="fill: #eaeaf2"/>
   </g>
   <g id="matplotlib.axis_11">
    <g id="xtick_21">
     <g id="line2d_61">
      <path d="M 821.530007 373.284 
L 821.530007 253.698 
" clip-path="url(#pd97bd69443)" style="fill: none; stroke: #ffffff; stroke-linecap: round"/>
     </g>
     <g id="text_22">
      <!-- 0 -->
      <g style="fill: #262626" transform="translate(814.18132 400.336391) scale(0.231 -0.231)">
       <use xlink:href="#DejaVuSans-30"/>
      </g>
     </g>
    </g>
    <g id="xtick_22">
     <g id="line2d_62">
      <path d="M 912.678863 373.284 
L 912.678863 253.698 
" clip-path="url(#pd97bd69443)" style="fill: none; stroke: #ffffff; stroke-linecap: round"/>
     </g>
     <g id="text_23">
      <!-- 250 -->
      <g style="fill: #262626" transform="translate(890.6328 400.336391) scale(0.231 -0.231)">
       <use xlink:href="#DejaVuSans-32"/>
       <use xlink:href="#DejaVuSans-35" x="63.623047"/>
       <use xlink:href="#DejaVuSans-30" x="127.246094"/>
      </g>
     </g>
    </g>
    <g id="xtick_23">
     <g id="line2d_63">
      <path d="M 1003.827719 373.284 
L 1003.827719 253.698 
" clip-path="url(#pd97bd69443)" style="fill: none; stroke: #ffffff; stroke-linecap: round"/>
     </g>
     <g id="text_24">
      <!-- 500 -->
      <g style="fill: #262626" transform="translate(981.781656 400.336391) scale(0.231 -0.231)">
       <use xlink:href="#DejaVuSans-35"/>
       <use xlink:href="#DejaVuSans-30" x="63.623047"/>
       <use xlink:href="#DejaVuSans-30" x="127.246094"/>
      </g>
     </g>
    </g>
    <g id="xtick_24">
     <g id="line2d_64">
      <path d="M 1094.976574 373.284 
L 1094.976574 253.698 
" clip-path="url(#pd97bd69443)" style="fill: none; stroke: #ffffff; stroke-linecap: round"/>
     </g>
     <g id="text_25">
      <!-- 750 -->
      <g style="fill: #262626" transform="translate(1072.930512 400.336391) scale(0.231 -0.231)">
       <use xlink:href="#DejaVuSans-37"/>
       <use xlink:href="#DejaVuSans-35" x="63.623047"/>
       <use xlink:href="#DejaVuSans-30" x="127.246094"/>
      </g>
     </g>
    </g>
    <g id="text_26">
     <!-- step -->
     <g style="fill: #262626" transform="translate(927.169664 428.288531) scale(0.252 -0.252)">
      <use xlink:href="#DejaVuSans-73"/>
      <use xlink:href="#DejaVuSans-74" x="52.099609"/>
      <use xlink:href="#DejaVuSans-65" x="91.308594"/>
      <use xlink:href="#DejaVuSans-70" x="152.832031"/>
     </g>
    </g>
   </g>
   <g id="matplotlib.axis_12">
    <g id="ytick_11">
     <g id="line2d_65">
      <path d="M 808.240504 359.354703 
L 1100.609573 359.354703 
" clip-path="url(#pd97bd69443)" style="fill: none; stroke: #ffffff; stroke-linecap: round"/>
     </g>
    </g>
    <g id="ytick_12">
     <g id="line2d_66">
      <path d="M 808.240504 259.133727 
L 1100.609573 259.133727 
" clip-path="url(#pd97bd69443)" style="fill: none; stroke: #ffffff; stroke-linecap: round"/>
     </g>
    </g>
   </g>
   <g id="PolyCollection_31"/>
   <g id="PolyCollection_32"/>
   <g id="PolyCollection_33"/>
   <g id="PolyCollection_34"/>
   <g id="PolyCollection_35"/>
   <g id="PolyCollection_36"/>
   <g id="line2d_67">
    <path d="M 821.530007 259.133727 
L 825.175962 263.049068 
L 833.561656 271.930737 
L 840.488969 278.920474 
L 847.416282 285.590783 
L 854.343595 291.942251 
L 860.906313 297.666009 
L 867.469031 303.105132 
L 874.031748 308.261192 
L 880.594466 313.13575 
L 887.157183 317.73011 
L 893.719901 322.04593 
L 900.282619 326.085512 
L 906.480741 329.648624 
L 912.678863 332.968437 
L 918.876985 336.046497 
L 925.075107 338.884461 
L 931.273229 341.486163 
L 937.471352 343.859203 
L 943.669474 346.005763 
L 950.232191 348.036929 
L 956.430314 349.729581 
L 962.628436 351.204585 
L 968.826558 352.463519 
L 975.02468 353.507983 
L 981.222802 354.339599 
L 987.78552 354.989818 
L 994.348238 355.404875 
L 1000.910955 355.59318 
L 1008.567459 355.595282 
L 1016.588558 355.374736 
L 1030.80778 354.726137 
L 1045.391597 354.201758 
L 1071.642467 353.51452 
L 1087.32007 353.177878 
L 1087.32007 353.177878 
" clip-path="url(#pd97bd69443)" style="fill: none; stroke: #4c72b0; stroke-opacity: 0.9; stroke-width: 3; stroke-linecap: round"/>
   </g>
   <g id="line2d_68">
    <path d="M 821.530007 259.133727 
L 824.446771 262.210258 
L 833.561656 271.769389 
L 840.488969 278.689845 
L 847.416282 285.302301 
L 854.343595 291.607319 
L 861.270908 297.605431 
L 868.198221 303.297422 
L 874.760939 308.40837 
L 881.323657 313.246417 
L 887.886374 317.812677 
L 894.449092 322.108644 
L 901.011809 326.136464 
L 907.574527 329.897627 
L 914.137245 333.393598 
L 920.699962 336.625864 
L 926.898084 339.437846 
L 933.096207 342.01789 
L 939.294329 344.368061 
L 945.492451 346.489936 
L 951.690573 348.387383 
L 958.253291 350.162801 
L 964.816008 351.703425 
L 971.378726 353.011103 
L 977.941444 354.087374 
L 984.504161 354.933769 
L 991.066879 355.551699 
L 997.629596 355.942611 
L 1004.556909 356.127982 
L 1012.213413 356.117846 
L 1020.599108 355.871046 
L 1063.256772 354.255281 
L 1087.32007 353.703073 
L 1087.32007 353.703073 
" clip-path="url(#pd97bd69443)" style="fill: none; stroke: #dd8452; stroke-opacity: 0.9; stroke-width: 3; stroke-linecap: round"/>
   </g>
   <g id="line2d_69">
    <path d="M 821.530007 259.133727 
L 824.082175 262.065869 
L 832.832465 272.087134 
L 839.759778 279.644347 
L 846.322496 286.484091 
L 852.885214 293.014846 
L 859.447931 299.238443 
L 866.375244 305.492935 
L 873.667153 311.75989 
L 880.959061 317.728507 
L 887.886374 323.123198 
L 894.449092 327.965539 
L 901.011809 332.534884 
L 907.574527 336.825354 
L 914.137245 340.850679 
L 920.699962 344.613904 
L 927.26268 348.113283 
L 933.460802 351.172477 
L 939.658924 353.988841 
L 945.857046 356.557216 
L 952.055169 358.87308 
L 957.888695 360.818312 
L 963.722222 362.530973 
L 969.555749 364.006721 
L 975.389276 365.24363 
L 981.222802 366.239958 
L 986.691734 366.956059 
L 992.160665 367.459901 
L 997.629596 367.750971 
L 1003.827719 367.848243 
L 1010.755032 367.729358 
L 1021.328299 367.292837 
L 1045.391597 366.167254 
L 1063.985963 365.614645 
L 1087.32007 365.153112 
L 1087.32007 365.153112 
" clip-path="url(#pd97bd69443)" style="fill: none; stroke: #55a868; stroke-opacity: 0.9; stroke-width: 3; stroke-linecap: round"/>
   </g>
   <g id="line2d_70">
    <path d="M 821.530007 259.133727 
L 823.71758 261.561169 
L 832.832465 271.675052 
L 839.759778 278.994651 
L 846.687091 285.979807 
L 853.249809 292.290084 
L 860.541717 298.980363 
L 867.469031 305.033558 
L 874.760939 311.101534 
L 882.052847 316.893785 
L 888.98016 322.128381 
L 895.542878 326.823747 
L 902.105596 331.24734 
L 908.668313 335.397075 
L 915.231031 339.287198 
L 921.793748 342.919777 
L 928.356466 346.292569 
L 934.554588 349.23603 
L 940.75271 351.94085 
L 946.950833 354.402947 
L 953.148955 356.616481 
L 958.982482 358.46794 
L 964.816008 360.090789 
L 970.649535 361.481978 
L 976.483062 362.640151 
L 982.316589 363.563288 
L 988.150115 364.251024 
L 993.983642 364.704071 
L 999.817169 364.927189 
L 1006.379886 364.951651 
L 1014.765581 364.738325 
L 1026.068039 364.224592 
L 1041.016452 363.548928 
L 1060.704604 362.889477 
L 1082.58033 362.410694 
L 1087.32007 362.323526 
L 1087.32007 362.323526 
" clip-path="url(#pd97bd69443)" style="fill: none; stroke: #c44e52; stroke-opacity: 0.9; stroke-width: 3; stroke-linecap: round"/>
   </g>
   <g id="line2d_71">
    <path d="M 821.530007 259.133727 
L 824.811366 262.802834 
L 833.197061 272.070722 
L 840.124374 279.369225 
L 847.051687 286.336727 
L 853.614404 292.633048 
L 860.177122 298.633854 
L 866.73984 304.339926 
L 873.302557 309.752052 
L 879.865275 314.871062 
L 886.427992 319.697873 
L 892.626115 323.989097 
L 898.824237 328.021479 
L 905.022359 331.796098 
L 911.220481 335.314162 
L 917.418603 338.576949 
L 923.616726 341.585819 
L 929.814848 344.342132 
L 936.01297 346.847695 
L 942.211092 349.104944 
L 948.409214 351.115578 
L 954.607336 352.881467 
L 960.805459 354.404473 
L 967.003581 355.687628 
L 973.201703 356.737161 
L 979.399825 357.555679 
L 985.597947 358.144981 
L 991.79607 358.507019 
L 997.994192 358.645718 
L 1004.921505 358.574262 
L 1012.942604 358.261589 
L 1021.692894 357.690467 
L 1047.943765 355.741381 
L 1062.162986 355.065924 
L 1082.944925 354.335168 
L 1087.32007 354.207208 
L 1087.32007 354.207208 
" clip-path="url(#pd97bd69443)" style="fill: none; stroke: #8172b3; stroke-opacity: 0.9; stroke-width: 3; stroke-linecap: round"/>
   </g>
   <g id="line2d_72">
    <path d="M 821.530007 259.133727 
L 825.175962 263.095467 
L 833.561656 272.076621 
L 840.488969 279.148522 
L 847.416282 285.902027 
L 854.343595 292.338424 
L 861.270908 298.458843 
L 867.833626 303.966597 
L 874.396344 309.192598 
L 880.959061 314.137797 
L 887.521779 318.80324 
L 894.084496 323.190091 
L 900.647214 327.299455 
L 906.845336 330.926827 
L 913.043458 334.308917 
L 919.241581 337.447227 
L 925.439703 340.3436 
L 931.637825 342.999429 
L 937.835947 345.416109 
L 944.034069 347.595106 
L 950.232191 349.537925 
L 956.430314 351.246068 
L 962.628436 352.721211 
L 968.826558 353.967777 
L 975.02468 354.988944 
L 981.222802 355.786718 
L 987.420925 356.363297 
L 993.619047 356.720374 
L 1000.181764 356.865516 
L 1007.838268 356.795019 
L 1015.859367 356.499873 
L 1024.609658 355.950571 
L 1041.745642 354.771238 
L 1055.600269 354.09309 
L 1077.475994 353.270304 
L 1087.32007 352.949028 
L 1087.32007 352.949028 
" clip-path="url(#pd97bd69443)" style="fill: none; stroke: #937860; stroke-opacity: 0.9; stroke-width: 3; stroke-linecap: round"/>
   </g>
   <g id="patch_18">
    <path d="M 808.240504 373.284 
L 808.240504 253.698 
" style="fill: none; stroke: #ffffff; stroke-width: 1.25; stroke-linejoin: miter; stroke-linecap: square"/>
   </g>
   <g id="patch_19">
    <path d="M 808.240504 373.284 
L 1100.609573 373.284 
" style="fill: none; stroke: #ffffff; stroke-width: 1.25; stroke-linejoin: miter; stroke-linecap: square"/>
   </g>
   <g id="text_27">
    <!-- 0.95~365 -->
    <g style="fill: #262626" transform="translate(891.761695 247.698) scale(0.252 -0.252)">
     <use xlink:href="#DejaVuSans-30"/>
     <use xlink:href="#DejaVuSans-2e" x="63.623047"/>
     <use xlink:href="#DejaVuSans-39" x="95.410156"/>
     <use xlink:href="#DejaVuSans-35" x="159.033203"/>
     <use xlink:href="#DejaVuSans-7e" x="222.65625"/>
     <use xlink:href="#DejaVuSans-33" x="306.445312"/>
     <use xlink:href="#DejaVuSans-36" x="370.068359"/>
     <use xlink:href="#DejaVuSans-35" x="433.691406"/>
    </g>
   </g>
  </g>
  <g id="text_28">
   <!-- Production change from pre-shock level -->
   <g style="fill: #262626" transform="translate(280.766836 30.177675) scale(0.3024 -0.3024)">
    <defs>
     <path id="DejaVuSans-50" d="M 1259 4147 
L 1259 2394 
L 2053 2394 
Q 2494 2394 2734 2622 
Q 2975 2850 2975 3272 
Q 2975 3691 2734 3919 
Q 2494 4147 2053 4147 
L 1259 4147 
z
M 628 4666 
L 2053 4666 
Q 2838 4666 3239 4311 
Q 3641 3956 3641 3272 
Q 3641 2581 3239 2228 
Q 2838 1875 2053 1875 
L 1259 1875 
L 1259 0 
L 628 0 
L 628 4666 
z
" transform="scale(0.015625)"/>
     <path id="DejaVuSans-72" d="M 2631 2963 
Q 2534 3019 2420 3045 
Q 2306 3072 2169 3072 
Q 1681 3072 1420 2755 
Q 1159 2438 1159 1844 
L 1159 0 
L 581 0 
L 581 3500 
L 1159 3500 
L 1159 2956 
Q 1341 3275 1631 3429 
Q 1922 3584 2338 3584 
Q 2397 3584 2469 3576 
Q 2541 3569 2628 3553 
L 2631 2963 
z
" transform="scale(0.015625)"/>
     <path id="DejaVuSans-6f" d="M 1959 3097 
Q 1497 3097 1228 2736 
Q 959 2375 959 1747 
Q 959 1119 1226 758 
Q 1494 397 1959 397 
Q 2419 397 2687 759 
Q 2956 1122 2956 1747 
Q 2956 2369 2687 2733 
Q 2419 3097 1959 3097 
z
M 1959 3584 
Q 2709 3584 3137 3096 
Q 3566 2609 3566 1747 
Q 3566 888 3137 398 
Q 2709 -91 1959 -91 
Q 1206 -91 779 398 
Q 353 888 353 1747 
Q 353 2609 779 3096 
Q 1206 3584 1959 3584 
z
" transform="scale(0.015625)"/>
     <path id="DejaVuSans-64" d="M 2906 2969 
L 2906 4863 
L 3481 4863 
L 3481 0 
L 2906 0 
L 2906 525 
Q 2725 213 2448 61 
Q 2172 -91 1784 -91 
Q 1150 -91 751 415 
Q 353 922 353 1747 
Q 353 2572 751 3078 
Q 1150 3584 1784 3584 
Q 2172 3584 2448 3432 
Q 2725 3281 2906 2969 
z
M 947 1747 
Q 947 1113 1208 752 
Q 1469 391 1925 391 
Q 2381 391 2643 752 
Q 2906 1113 2906 1747 
Q 2906 2381 2643 2742 
Q 2381 3103 1925 3103 
Q 1469 3103 1208 2742 
Q 947 2381 947 1747 
z
" transform="scale(0.015625)"/>
     <path id="DejaVuSans-75" d="M 544 1381 
L 544 3500 
L 1119 3500 
L 1119 1403 
Q 1119 906 1312 657 
Q 1506 409 1894 409 
Q 2359 409 2629 706 
Q 2900 1003 2900 1516 
L 2900 3500 
L 3475 3500 
L 3475 0 
L 2900 0 
L 2900 538 
Q 2691 219 2414 64 
Q 2138 -91 1772 -91 
Q 1169 -91 856 284 
Q 544 659 544 1381 
z
M 1991 3584 
L 1991 3584 
z
" transform="scale(0.015625)"/>
     <path id="DejaVuSans-69" d="M 603 3500 
L 1178 3500 
L 1178 0 
L 603 0 
L 603 3500 
z
M 603 4863 
L 1178 4863 
L 1178 4134 
L 603 4134 
L 603 4863 
z
" transform="scale(0.015625)"/>
     <path id="DejaVuSans-66" d="M 2375 4863 
L 2375 4384 
L 1825 4384 
Q 1516 4384 1395 4259 
Q 1275 4134 1275 3809 
L 1275 3500 
L 2222 3500 
L 2222 3053 
L 1275 3053 
L 1275 0 
L 697 0 
L 697 3053 
L 147 3053 
L 147 3500 
L 697 3500 
L 697 3744 
Q 697 4328 969 4595 
Q 1241 4863 1831 4863 
L 2375 4863 
z
" transform="scale(0.015625)"/>
     <path id="DejaVuSans-6d" d="M 3328 2828 
Q 3544 3216 3844 3400 
Q 4144 3584 4550 3584 
Q 5097 3584 5394 3201 
Q 5691 2819 5691 2113 
L 5691 0 
L 5113 0 
L 5113 2094 
Q 5113 2597 4934 2840 
Q 4756 3084 4391 3084 
Q 3944 3084 3684 2787 
Q 3425 2491 3425 1978 
L 3425 0 
L 2847 0 
L 2847 2094 
Q 2847 2600 2669 2842 
Q 2491 3084 2119 3084 
Q 1678 3084 1418 2786 
Q 1159 2488 1159 1978 
L 1159 0 
L 581 0 
L 581 3500 
L 1159 3500 
L 1159 2956 
Q 1356 3278 1631 3431 
Q 1906 3584 2284 3584 
Q 2666 3584 2933 3390 
Q 3200 3197 3328 2828 
z
" transform="scale(0.015625)"/>
     <path id="DejaVuSans-2d" d="M 313 2009 
L 1997 2009 
L 1997 1497 
L 313 1497 
L 313 2009 
z
" transform="scale(0.015625)"/>
     <path id="DejaVuSans-6b" d="M 581 4863 
L 1159 4863 
L 1159 1991 
L 2875 3500 
L 3609 3500 
L 1753 1863 
L 3688 0 
L 2938 0 
L 1159 1709 
L 1159 0 
L 581 0 
L 581 4863 
z
" transform="scale(0.015625)"/>
     <path id="DejaVuSans-6c" d="M 603 4863 
L 1178 4863 
L 1178 0 
L 603 0 
L 603 4863 
z
" transform="scale(0.015625)"/>
     <path id="DejaVuSans-76" d="M 191 3500 
L 800 3500 
L 1894 563 
L 2988 3500 
L 3597 3500 
L 2284 0 
L 1503 0 
L 191 3500 
z
" transform="scale(0.015625)"/>
    </defs>
    <use xlink:href="#DejaVuSans-50"/>
    <use xlink:href="#DejaVuSans-72" x="58.552734"/>
    <use xlink:href="#DejaVuSans-6f" x="97.416016"/>
    <use xlink:href="#DejaVuSans-64" x="158.597656"/>
    <use xlink:href="#DejaVuSans-75" x="222.074219"/>
    <use xlink:href="#DejaVuSans-63" x="285.453125"/>
    <use xlink:href="#DejaVuSans-74" x="340.433594"/>
    <use xlink:href="#DejaVuSans-69" x="379.642578"/>
    <use xlink:href="#DejaVuSans-6f" x="407.425781"/>
    <use xlink:href="#DejaVuSans-6e" x="468.607422"/>
    <use xlink:href="#DejaVuSans-20" x="531.986328"/>
    <use xlink:href="#DejaVuSans-63" x="563.773438"/>
    <use xlink:href="#DejaVuSans-68" x="618.753906"/>
    <use xlink:href="#DejaVuSans-61" x="682.132812"/>
    <use xlink:href="#DejaVuSans-6e" x="743.412109"/>
    <use xlink:href="#DejaVuSans-67" x="806.791016"/>
    <use xlink:href="#DejaVuSans-65" x="870.267578"/>
    <use xlink:href="#DejaVuSans-20" x="931.791016"/>
    <use xlink:href="#DejaVuSans-66" x="963.578125"/>
    <use xlink:href="#DejaVuSans-72" x="998.783203"/>
    <use xlink:href="#DejaVuSans-6f" x="1037.646484"/>
    <use xlink:href="#DejaVuSans-6d" x="1098.828125"/>
    <use xlink:href="#DejaVuSans-20" x="1196.240234"/>
    <use xlink:href="#DejaVuSans-70" x="1228.027344"/>
    <use xlink:href="#DejaVuSans-72" x="1291.503906"/>
    <use xlink:href="#DejaVuSans-65" x="1330.367188"/>
    <use xlink:href="#DejaVuSans-2d" x="1391.890625"/>
    <use xlink:href="#DejaVuSans-73" x="1427.974609"/>
    <use xlink:href="#DejaVuSans-68" x="1480.074219"/>
    <use xlink:href="#DejaVuSans-6f" x="1543.453125"/>
    <use xlink:href="#DejaVuSans-63" x="1604.634766"/>
    <use xlink:href="#DejaVuSans-6b" x="1659.615234"/>
    <use xlink:href="#DejaVuSans-20" x="1717.525391"/>
    <use xlink:href="#DejaVuSans-6c" x="1749.3125"/>
    <use xlink:href="#DejaVuSans-65" x="1777.095703"/>
    <use xlink:href="#DejaVuSans-76" x="1838.619141"/>
    <use xlink:href="#DejaVuSans-65" x="1897.798828"/>
    <use xlink:href="#DejaVuSans-6c" x="1959.322266"/>
   </g>
  </g>
  <g id="legend_1">
   <g id="patch_20">
    <path d="M 11.82 584.31675 
L 1292.617547 584.31675 
Q 1297.237547 584.31675 1297.237547 579.69675 
L 1297.237547 476.97 
Q 1297.237547 472.35 1292.617547 472.35 
L 11.82 472.35 
Q 7.2 472.35 7.2 476.97 
L 7.2 579.69675 
Q 7.2 584.31675 11.82 584.31675 
z
" style="fill: #eaeaf2; opacity: 0.8; stroke: #cccccc; stroke-linejoin: miter"/>
   </g>
   <g id="text_29">
    <!-- Experiences -->
    <g style="fill: #262626" transform="translate(575.384367 500.738062) scale(0.252 -0.252)">
     <defs>
      <path id="DejaVuSans-45" d="M 628 4666 
L 3578 4666 
L 3578 4134 
L 1259 4134 
L 1259 2753 
L 3481 2753 
L 3481 2222 
L 1259 2222 
L 1259 531 
L 3634 531 
L 3634 0 
L 628 0 
L 628 4666 
z
" transform="scale(0.015625)"/>
      <path id="DejaVuSans-78" d="M 3513 3500 
L 2247 1797 
L 3578 0 
L 2900 0 
L 1881 1375 
L 863 0 
L 184 0 
L 1544 1831 
L 300 3500 
L 978 3500 
L 1906 2253 
L 2834 3500 
L 3513 3500 
z
" transform="scale(0.015625)"/>
     </defs>
     <use xlink:href="#DejaVuSans-45"/>
     <use xlink:href="#DejaVuSans-78" x="63.183594"/>
     <use xlink:href="#DejaVuSans-70" x="122.363281"/>
     <use xlink:href="#DejaVuSans-65" x="185.839844"/>
     <use xlink:href="#DejaVuSans-72" x="247.363281"/>
     <use xlink:href="#DejaVuSans-69" x="288.476562"/>
     <use xlink:href="#DejaVuSans-65" x="316.259766"/>
     <use xlink:href="#DejaVuSans-6e" x="377.783203"/>
     <use xlink:href="#DejaVuSans-63" x="441.162109"/>
     <use xlink:href="#DejaVuSans-65" x="496.142578"/>
     <use xlink:href="#DejaVuSans-73" x="557.666016"/>
    </g>
   </g>
   <g id="line2d_73">
    <path d="M 16.44 526.996266 
L 39.54 526.996266 
L 62.64 526.996266 
" style="fill: none; stroke: #4c72b0; stroke-opacity: 0.9; stroke-width: 3; stroke-linecap: round"/>
   </g>
   <g id="text_30">
    <!-- eora26_full_2000 -->
    <g style="fill: #262626" transform="translate(81.12 535.081266) scale(0.231 -0.231)">
     <defs>
      <path id="DejaVuSans-5f" d="M 3263 -1063 
L 3263 -1509 
L -63 -1509 
L -63 -1063 
L 3263 -1063 
z
" transform="scale(0.015625)"/>
     </defs>
     <use xlink:href="#DejaVuSans-65"/>
     <use xlink:href="#DejaVuSans-6f" x="61.523438"/>
     <use xlink:href="#DejaVuSans-72" x="122.705078"/>
     <use xlink:href="#DejaVuSans-61" x="163.818359"/>
     <use xlink:href="#DejaVuSans-32" x="225.097656"/>
     <use xlink:href="#DejaVuSans-36" x="288.720703"/>
     <use xlink:href="#DejaVuSans-5f" x="352.34375"/>
     <use xlink:href="#DejaVuSans-66" x="402.34375"/>
     <use xlink:href="#DejaVuSans-75" x="437.548828"/>
     <use xlink:href="#DejaVuSans-6c" x="500.927734"/>
     <use xlink:href="#DejaVuSans-6c" x="528.710938"/>
     <use xlink:href="#DejaVuSans-5f" x="556.494141"/>
     <use xlink:href="#DejaVuSans-32" x="606.494141"/>
     <use xlink:href="#DejaVuSans-30" x="670.117188"/>
     <use xlink:href="#DejaVuSans-30" x="733.740234"/>
     <use xlink:href="#DejaVuSans-30" x="797.363281"/>
    </g>
   </g>
   <g id="line2d_74">
    <path d="M 16.44 561.545203 
L 39.54 561.545203 
L 62.64 561.545203 
" style="fill: none; stroke: #dd8452; stroke-opacity: 0.9; stroke-width: 3; stroke-linecap: round"/>
   </g>
   <g id="text_31">
    <!-- eora26_full_2010 -->
    <g style="fill: #262626" transform="translate(81.12 569.630203) scale(0.231 -0.231)">
     <defs>
      <path id="DejaVuSans-31" d="M 794 531 
L 1825 531 
L 1825 4091 
L 703 3866 
L 703 4441 
L 1819 4666 
L 2450 4666 
L 2450 531 
L 3481 531 
L 3481 0 
L 794 0 
L 794 531 
z
" transform="scale(0.015625)"/>
     </defs>
     <use xlink:href="#DejaVuSans-65"/>
     <use xlink:href="#DejaVuSans-6f" x="61.523438"/>
     <use xlink:href="#DejaVuSans-72" x="122.705078"/>
     <use xlink:href="#DejaVuSans-61" x="163.818359"/>
     <use xlink:href="#DejaVuSans-32" x="225.097656"/>
     <use xlink:href="#DejaVuSans-36" x="288.720703"/>
     <use xlink:href="#DejaVuSans-5f" x="352.34375"/>
     <use xlink:href="#DejaVuSans-66" x="402.34375"/>
     <use xlink:href="#DejaVuSans-75" x="437.548828"/>
     <use xlink:href="#DejaVuSans-6c" x="500.927734"/>
     <use xlink:href="#DejaVuSans-6c" x="528.710938"/>
     <use xlink:href="#DejaVuSans-5f" x="556.494141"/>
     <use xlink:href="#DejaVuSans-32" x="606.494141"/>
     <use xlink:href="#DejaVuSans-30" x="670.117188"/>
     <use xlink:href="#DejaVuSans-31" x="733.740234"/>
     <use xlink:href="#DejaVuSans-30" x="797.363281"/>
    </g>
   </g>
   <g id="line2d_75">
    <path d="M 326.211 526.996266 
L 349.311 526.996266 
L 372.411 526.996266 
" style="fill: none; stroke: #55a868; stroke-opacity: 0.9; stroke-width: 3; stroke-linecap: round"/>
   </g>
   <g id="text_32">
    <!-- euregio_full_2000 -->
    <g style="fill: #262626" transform="translate(390.891 535.081266) scale(0.231 -0.231)">
     <use xlink:href="#DejaVuSans-65"/>
     <use xlink:href="#DejaVuSans-75" x="61.523438"/>
     <use xlink:href="#DejaVuSans-72" x="124.902344"/>
     <use xlink:href="#DejaVuSans-65" x="163.765625"/>
     <use xlink:href="#DejaVuSans-67" x="225.289062"/>
     <use xlink:href="#DejaVuSans-69" x="288.765625"/>
     <use xlink:href="#DejaVuSans-6f" x="316.548828"/>
     <use xlink:href="#DejaVuSans-5f" x="377.730469"/>
     <use xlink:href="#DejaVuSans-66" x="427.730469"/>
     <use xlink:href="#DejaVuSans-75" x="462.935547"/>
     <use xlink:href="#DejaVuSans-6c" x="526.314453"/>
     <use xlink:href="#DejaVuSans-6c" x="554.097656"/>
     <use xlink:href="#DejaVuSans-5f" x="581.880859"/>
     <use xlink:href="#DejaVuSans-32" x="631.880859"/>
     <use xlink:href="#DejaVuSans-30" x="695.503906"/>
     <use xlink:href="#DejaVuSans-30" x="759.126953"/>
     <use xlink:href="#DejaVuSans-30" x="822.75"/>
    </g>
   </g>
   <g id="line2d_76">
    <path d="M 326.211 561.545203 
L 349.311 561.545203 
L 372.411 561.545203 
" style="fill: none; stroke: #c44e52; stroke-opacity: 0.9; stroke-width: 3; stroke-linecap: round"/>
   </g>
   <g id="text_33">
    <!-- euregio_full_2010 -->
    <g style="fill: #262626" transform="translate(390.891 569.630203) scale(0.231 -0.231)">
     <use xlink:href="#DejaVuSans-65"/>
     <use xlink:href="#DejaVuSans-75" x="61.523438"/>
     <use xlink:href="#DejaVuSans-72" x="124.902344"/>
     <use xlink:href="#DejaVuSans-65" x="163.765625"/>
     <use xlink:href="#DejaVuSans-67" x="225.289062"/>
     <use xlink:href="#DejaVuSans-69" x="288.765625"/>
     <use xlink:href="#DejaVuSans-6f" x="316.548828"/>
     <use xlink:href="#DejaVuSans-5f" x="377.730469"/>
     <use xlink:href="#DejaVuSans-66" x="427.730469"/>
     <use xlink:href="#DejaVuSans-75" x="462.935547"/>
     <use xlink:href="#DejaVuSans-6c" x="526.314453"/>
     <use xlink:href="#DejaVuSans-6c" x="554.097656"/>
     <use xlink:href="#DejaVuSans-5f" x="581.880859"/>
     <use xlink:href="#DejaVuSans-32" x="631.880859"/>
     <use xlink:href="#DejaVuSans-30" x="695.503906"/>
     <use xlink:href="#DejaVuSans-31" x="759.126953"/>
     <use xlink:href="#DejaVuSans-30" x="822.75"/>
    </g>
   </g>
   <g id="line2d_77">
    <path d="M 641.847234 526.996266 
L 664.947234 526.996266 
L 688.047234 526.996266 
" style="fill: none; stroke: #8172b3; stroke-opacity: 0.9; stroke-width: 3; stroke-linecap: round"/>
   </g>
   <g id="text_34">
    <!-- exiobase3_full_2000 -->
    <g style="fill: #262626" transform="translate(706.527234 535.081266) scale(0.231 -0.231)">
     <defs>
      <path id="DejaVuSans-62" d="M 3116 1747 
Q 3116 2381 2855 2742 
Q 2594 3103 2138 3103 
Q 1681 3103 1420 2742 
Q 1159 2381 1159 1747 
Q 1159 1113 1420 752 
Q 1681 391 2138 391 
Q 2594 391 2855 752 
Q 3116 1113 3116 1747 
z
M 1159 2969 
Q 1341 3281 1617 3432 
Q 1894 3584 2278 3584 
Q 2916 3584 3314 3078 
Q 3713 2572 3713 1747 
Q 3713 922 3314 415 
Q 2916 -91 2278 -91 
Q 1894 -91 1617 61 
Q 1341 213 1159 525 
L 1159 0 
L 581 0 
L 581 4863 
L 1159 4863 
L 1159 2969 
z
" transform="scale(0.015625)"/>
     </defs>
     <use xlink:href="#DejaVuSans-65"/>
     <use xlink:href="#DejaVuSans-78" x="59.773438"/>
     <use xlink:href="#DejaVuSans-69" x="118.953125"/>
     <use xlink:href="#DejaVuSans-6f" x="146.736328"/>
     <use xlink:href="#DejaVuSans-62" x="207.917969"/>
     <use xlink:href="#DejaVuSans-61" x="271.394531"/>
     <use xlink:href="#DejaVuSans-73" x="332.673828"/>
     <use xlink:href="#DejaVuSans-65" x="384.773438"/>
     <use xlink:href="#DejaVuSans-33" x="446.296875"/>
     <use xlink:href="#DejaVuSans-5f" x="509.919922"/>
     <use xlink:href="#DejaVuSans-66" x="559.919922"/>
     <use xlink:href="#DejaVuSans-75" x="595.125"/>
     <use xlink:href="#DejaVuSans-6c" x="658.503906"/>
     <use xlink:href="#DejaVuSans-6c" x="686.287109"/>
     <use xlink:href="#DejaVuSans-5f" x="714.070312"/>
     <use xlink:href="#DejaVuSans-32" x="764.070312"/>
     <use xlink:href="#DejaVuSans-30" x="827.693359"/>
     <use xlink:href="#DejaVuSans-30" x="891.316406"/>
     <use xlink:href="#DejaVuSans-30" x="954.939453"/>
    </g>
   </g>
   <g id="line2d_78">
    <path d="M 988.022391 526.996266 
L 1011.122391 526.996266 
L 1034.222391 526.996266 
" style="fill: none; stroke: #937860; stroke-opacity: 0.9; stroke-width: 3; stroke-linecap: round"/>
   </g>
   <g id="text_35">
    <!-- exiobase3_full_2010 -->
    <g style="fill: #262626" transform="translate(1052.702391 535.081266) scale(0.231 -0.231)">
     <use xlink:href="#DejaVuSans-65"/>
     <use xlink:href="#DejaVuSans-78" x="59.773438"/>
     <use xlink:href="#DejaVuSans-69" x="118.953125"/>
     <use xlink:href="#DejaVuSans-6f" x="146.736328"/>
     <use xlink:href="#DejaVuSans-62" x="207.917969"/>
     <use xlink:href="#DejaVuSans-61" x="271.394531"/>
     <use xlink:href="#DejaVuSans-73" x="332.673828"/>
     <use xlink:href="#DejaVuSans-65" x="384.773438"/>
     <use xlink:href="#DejaVuSans-33" x="446.296875"/>
     <use xlink:href="#DejaVuSans-5f" x="509.919922"/>
     <use xlink:href="#DejaVuSans-66" x="559.919922"/>
     <use xlink:href="#DejaVuSans-75" x="595.125"/>
     <use xlink:href="#DejaVuSans-6c" x="658.503906"/>
     <use xlink:href="#DejaVuSans-6c" x="686.287109"/>
     <use xlink:href="#DejaVuSans-5f" x="714.070312"/>
     <use xlink:href="#DejaVuSans-32" x="764.070312"/>
     <use xlink:href="#DejaVuSans-30" x="827.693359"/>
     <use xlink:href="#DejaVuSans-31" x="891.316406"/>
     <use xlink:href="#DejaVuSans-30" x="954.939453"/>
    </g>
   </g>
  </g>
 </g>
 <defs>
  <clipPath id="p60bceec2e8">
   <rect x="170.340091" y="81.456" width="292.369069" height="119.586"/>
  </clipPath>
  <clipPath id="pfe85fc01fa">
   <rect x="489.290298" y="81.456" width="292.369069" height="119.586"/>
  </clipPath>
  <clipPath id="pe369ba359a">
   <rect x="808.240504" y="81.456" width="292.369069" height="119.586"/>
  </clipPath>
  <clipPath id="pa6f28e19af">
   <rect x="170.340091" y="253.698" width="292.369069" height="119.586"/>
  </clipPath>
  <clipPath id="p76c451ea72">
   <rect x="489.290298" y="253.698" width="292.369069" height="119.586"/>
  </clipPath>
  <clipPath id="pd97bd69443">
   <rect x="808.240504" y="253.698" width="292.369069" height="119.586"/>
  </clipPath>
 </defs>
</svg>
