<?xml version="1.0" encoding="utf-8" standalone="no"?>
<!DOCTYPE svg PUBLIC "-//W3C//DTD SVG 1.1//EN"
  "http://www.w3.org/Graphics/SVG/1.1/DTD/svg11.dtd">
<svg xmlns:xlink="http://www.w3.org/1999/xlink" width="1304.437547pt" height="591.51675pt" viewBox="0 0 1304.437547 591.51675" xmlns="http://www.w3.org/2000/svg" version="1.1">
 <metadata>
  <rdf:RDF xmlns:dc="http://purl.org/dc/elements/1.1/" xmlns:cc="http://creativecommons.org/ns#" xmlns:rdf="http://www.w3.org/1999/02/22-rdf-syntax-ns#">
   <cc:Work>
    <dc:type rdf:resource="http://purl.org/dc/dcmitype/StillImage"/>
    <dc:date>2023-04-27T10:21:36.760759</dc:date>
    <dc:format>image/svg+xml</dc:format>
    <dc:creator>
     <cc:Agent>
      <dc:title>Matplotlib v3.7.1, https://matplotlib.org/</dc:title>
     </cc:Agent>
    </dc:creator>
   </cc:Work>
  </rdf:RDF>
 </metadata>
 <defs>
  <style type="text/css">*{stroke-linejoin: round; stroke-linecap: butt}</style>
 </defs>
 <g id="figure_1">
  <g id="patch_1">
   <path d="M 0 591.51675 
L 1304.437547 591.51675 
L 1304.437547 -0 
L 0 -0 
z
" style="fill: #ffffff"/>
  </g>
  <g id="axes_1">
   <g id="patch_2">
    <path d="M 189.250488 201.042 
L 475.404752 201.042 
L 475.404752 81.456 
L 189.250488 81.456 
z
" style="fill: #eaeaf2"/>
   </g>
   <g id="matplotlib.axis_1">
    <g id="xtick_1">
     <g id="line2d_1">
      <path d="M 202.2575 201.042 
L 202.2575 81.456 
" clip-path="url(#p241673c0a2)" style="fill: none; stroke: #ffffff; stroke-linecap: round"/>
     </g>
    </g>
    <g id="xtick_2">
     <g id="line2d_2">
      <path d="M 291.468831 201.042 
L 291.468831 81.456 
" clip-path="url(#p241673c0a2)" style="fill: none; stroke: #ffffff; stroke-linecap: round"/>
     </g>
    </g>
    <g id="xtick_3">
     <g id="line2d_3">
      <path d="M 380.680161 201.042 
L 380.680161 81.456 
" clip-path="url(#p241673c0a2)" style="fill: none; stroke: #ffffff; stroke-linecap: round"/>
     </g>
    </g>
    <g id="xtick_4">
     <g id="line2d_4">
      <path d="M 469.891491 201.042 
L 469.891491 81.456 
" clip-path="url(#p241673c0a2)" style="fill: none; stroke: #ffffff; stroke-linecap: round"/>
     </g>
    </g>
   </g>
   <g id="matplotlib.axis_2">
    <g id="ytick_1">
     <g id="line2d_5">
      <path d="M 189.250488 150.595103 
L 475.404752 150.595103 
" clip-path="url(#p241673c0a2)" style="fill: none; stroke: #ffffff; stroke-linecap: round"/>
     </g>
     <g id="text_1">
      <!-- −0.25 -->
      <g style="fill: #262626" transform="translate(108.959816 159.371298) scale(0.231 -0.231)">
       <defs>
        <path id="DejaVuSans-2212" d="M 678 2272 
L 4684 2272 
L 4684 1741 
L 678 1741 
L 678 2272 
z
" transform="scale(0.015625)"/>
        <path id="DejaVuSans-30" d="M 2034 4250 
Q 1547 4250 1301 3770 
Q 1056 3291 1056 2328 
Q 1056 1369 1301 889 
Q 1547 409 2034 409 
Q 2525 409 2770 889 
Q 3016 1369 3016 2328 
Q 3016 3291 2770 3770 
Q 2525 4250 2034 4250 
z
M 2034 4750 
Q 2819 4750 3233 4129 
Q 3647 3509 3647 2328 
Q 3647 1150 3233 529 
Q 2819 -91 2034 -91 
Q 1250 -91 836 529 
Q 422 1150 422 2328 
Q 422 3509 836 4129 
Q 1250 4750 2034 4750 
z
" transform="scale(0.015625)"/>
        <path id="DejaVuSans-2e" d="M 684 794 
L 1344 794 
L 1344 0 
L 684 0 
L 684 794 
z
" transform="scale(0.015625)"/>
        <path id="DejaVuSans-32" d="M 1228 531 
L 3431 531 
L 3431 0 
L 469 0 
L 469 531 
Q 828 903 1448 1529 
Q 2069 2156 2228 2338 
Q 2531 2678 2651 2914 
Q 2772 3150 2772 3378 
Q 2772 3750 2511 3984 
Q 2250 4219 1831 4219 
Q 1534 4219 1204 4116 
Q 875 4013 500 3803 
L 500 4441 
Q 881 4594 1212 4672 
Q 1544 4750 1819 4750 
Q 2544 4750 2975 4387 
Q 3406 4025 3406 3419 
Q 3406 3131 3298 2873 
Q 3191 2616 2906 2266 
Q 2828 2175 2409 1742 
Q 1991 1309 1228 531 
z
" transform="scale(0.015625)"/>
        <path id="DejaVuSans-35" d="M 691 4666 
L 3169 4666 
L 3169 4134 
L 1269 4134 
L 1269 2991 
Q 1406 3038 1543 3061 
Q 1681 3084 1819 3084 
Q 2600 3084 3056 2656 
Q 3513 2228 3513 1497 
Q 3513 744 3044 326 
Q 2575 -91 1722 -91 
Q 1428 -91 1123 -41 
Q 819 9 494 109 
L 494 744 
Q 775 591 1075 516 
Q 1375 441 1709 441 
Q 2250 441 2565 725 
Q 2881 1009 2881 1497 
Q 2881 1984 2565 2268 
Q 2250 2553 1709 2553 
Q 1456 2553 1204 2497 
Q 953 2441 691 2322 
L 691 4666 
z
" transform="scale(0.015625)"/>
       </defs>
       <use xlink:href="#DejaVuSans-2212"/>
       <use xlink:href="#DejaVuSans-30" x="83.789062"/>
       <use xlink:href="#DejaVuSans-2e" x="147.412109"/>
       <use xlink:href="#DejaVuSans-32" x="179.199219"/>
       <use xlink:href="#DejaVuSans-35" x="242.822266"/>
      </g>
     </g>
    </g>
    <g id="ytick_2">
     <g id="line2d_6">
      <path d="M 189.250488 86.891727 
L 475.404752 86.891727 
" clip-path="url(#p241673c0a2)" style="fill: none; stroke: #ffffff; stroke-linecap: round"/>
     </g>
     <g id="text_2">
      <!-- 0.00 -->
      <g style="fill: #262626" transform="translate(128.316894 95.667923) scale(0.231 -0.231)">
       <use xlink:href="#DejaVuSans-30"/>
       <use xlink:href="#DejaVuSans-2e" x="63.623047"/>
       <use xlink:href="#DejaVuSans-30" x="95.410156"/>
       <use xlink:href="#DejaVuSans-30" x="159.033203"/>
      </g>
     </g>
    </g>
    <g id="text_3">
     <!-- % change -->
     <g style="fill: #262626" transform="translate(99.719004 203.597344) rotate(-90) scale(0.252 -0.252)">
      <defs>
       <path id="DejaVuSans-25" d="M 4653 2053 
Q 4381 2053 4226 1822 
Q 4072 1591 4072 1178 
Q 4072 772 4226 539 
Q 4381 306 4653 306 
Q 4919 306 5073 539 
Q 5228 772 5228 1178 
Q 5228 1588 5073 1820 
Q 4919 2053 4653 2053 
z
M 4653 2450 
Q 5147 2450 5437 2106 
Q 5728 1763 5728 1178 
Q 5728 594 5436 251 
Q 5144 -91 4653 -91 
Q 4153 -91 3862 251 
Q 3572 594 3572 1178 
Q 3572 1766 3864 2108 
Q 4156 2450 4653 2450 
z
M 1428 4353 
Q 1159 4353 1004 4120 
Q 850 3888 850 3481 
Q 850 3069 1003 2837 
Q 1156 2606 1428 2606 
Q 1700 2606 1854 2837 
Q 2009 3069 2009 3481 
Q 2009 3884 1853 4118 
Q 1697 4353 1428 4353 
z
M 4250 4750 
L 4750 4750 
L 1831 -91 
L 1331 -91 
L 4250 4750 
z
M 1428 4750 
Q 1922 4750 2215 4408 
Q 2509 4066 2509 3481 
Q 2509 2891 2217 2550 
Q 1925 2209 1428 2209 
Q 931 2209 642 2551 
Q 353 2894 353 3481 
Q 353 4063 643 4406 
Q 934 4750 1428 4750 
z
" transform="scale(0.015625)"/>
       <path id="DejaVuSans-20" transform="scale(0.015625)"/>
       <path id="DejaVuSans-63" d="M 3122 3366 
L 3122 2828 
Q 2878 2963 2633 3030 
Q 2388 3097 2138 3097 
Q 1578 3097 1268 2742 
Q 959 2388 959 1747 
Q 959 1106 1268 751 
Q 1578 397 2138 397 
Q 2388 397 2633 464 
Q 2878 531 3122 666 
L 3122 134 
Q 2881 22 2623 -34 
Q 2366 -91 2075 -91 
Q 1284 -91 818 406 
Q 353 903 353 1747 
Q 353 2603 823 3093 
Q 1294 3584 2113 3584 
Q 2378 3584 2631 3529 
Q 2884 3475 3122 3366 
z
" transform="scale(0.015625)"/>
       <path id="DejaVuSans-68" d="M 3513 2113 
L 3513 0 
L 2938 0 
L 2938 2094 
Q 2938 2591 2744 2837 
Q 2550 3084 2163 3084 
Q 1697 3084 1428 2787 
Q 1159 2491 1159 1978 
L 1159 0 
L 581 0 
L 581 4863 
L 1159 4863 
L 1159 2956 
Q 1366 3272 1645 3428 
Q 1925 3584 2291 3584 
Q 2894 3584 3203 3211 
Q 3513 2838 3513 2113 
z
" transform="scale(0.015625)"/>
       <path id="DejaVuSans-61" d="M 2194 1759 
Q 1497 1759 1228 1600 
Q 959 1441 959 1056 
Q 959 750 1161 570 
Q 1363 391 1709 391 
Q 2188 391 2477 730 
Q 2766 1069 2766 1631 
L 2766 1759 
L 2194 1759 
z
M 3341 1997 
L 3341 0 
L 2766 0 
L 2766 531 
Q 2569 213 2275 61 
Q 1981 -91 1556 -91 
Q 1019 -91 701 211 
Q 384 513 384 1019 
Q 384 1609 779 1909 
Q 1175 2209 1959 2209 
L 2766 2209 
L 2766 2266 
Q 2766 2663 2505 2880 
Q 2244 3097 1772 3097 
Q 1472 3097 1187 3025 
Q 903 2953 641 2809 
L 641 3341 
Q 956 3463 1253 3523 
Q 1550 3584 1831 3584 
Q 2591 3584 2966 3190 
Q 3341 2797 3341 1997 
z
" transform="scale(0.015625)"/>
       <path id="DejaVuSans-6e" d="M 3513 2113 
L 3513 0 
L 2938 0 
L 2938 2094 
Q 2938 2591 2744 2837 
Q 2550 3084 2163 3084 
Q 1697 3084 1428 2787 
Q 1159 2491 1159 1978 
L 1159 0 
L 581 0 
L 581 3500 
L 1159 3500 
L 1159 2956 
Q 1366 3272 1645 3428 
Q 1925 3584 2291 3584 
Q 2894 3584 3203 3211 
Q 3513 2838 3513 2113 
z
" transform="scale(0.015625)"/>
       <path id="DejaVuSans-67" d="M 2906 1791 
Q 2906 2416 2648 2759 
Q 2391 3103 1925 3103 
Q 1463 3103 1205 2759 
Q 947 2416 947 1791 
Q 947 1169 1205 825 
Q 1463 481 1925 481 
Q 2391 481 2648 825 
Q 2906 1169 2906 1791 
z
M 3481 434 
Q 3481 -459 3084 -895 
Q 2688 -1331 1869 -1331 
Q 1566 -1331 1297 -1286 
Q 1028 -1241 775 -1147 
L 775 -588 
Q 1028 -725 1275 -790 
Q 1522 -856 1778 -856 
Q 2344 -856 2625 -561 
Q 2906 -266 2906 331 
L 2906 616 
Q 2728 306 2450 153 
Q 2172 0 1784 0 
Q 1141 0 747 490 
Q 353 981 353 1791 
Q 353 2603 747 3093 
Q 1141 3584 1784 3584 
Q 2172 3584 2450 3431 
Q 2728 3278 2906 2969 
L 2906 3500 
L 3481 3500 
L 3481 434 
z
" transform="scale(0.015625)"/>
       <path id="DejaVuSans-65" d="M 3597 1894 
L 3597 1613 
L 953 1613 
Q 991 1019 1311 708 
Q 1631 397 2203 397 
Q 2534 397 2845 478 
Q 3156 559 3463 722 
L 3463 178 
Q 3153 47 2828 -22 
Q 2503 -91 2169 -91 
Q 1331 -91 842 396 
Q 353 884 353 1716 
Q 353 2575 817 3079 
Q 1281 3584 2069 3584 
Q 2775 3584 3186 3129 
Q 3597 2675 3597 1894 
z
M 3022 2063 
Q 3016 2534 2758 2815 
Q 2500 3097 2075 3097 
Q 1594 3097 1305 2825 
Q 1016 2553 972 2059 
L 3022 2063 
z
" transform="scale(0.015625)"/>
      </defs>
      <use xlink:href="#DejaVuSans-25"/>
      <use xlink:href="#DejaVuSans-20" x="95.019531"/>
      <use xlink:href="#DejaVuSans-63" x="126.806641"/>
      <use xlink:href="#DejaVuSans-68" x="181.787109"/>
      <use xlink:href="#DejaVuSans-61" x="245.166016"/>
      <use xlink:href="#DejaVuSans-6e" x="306.445312"/>
      <use xlink:href="#DejaVuSans-67" x="369.824219"/>
      <use xlink:href="#DejaVuSans-65" x="433.300781"/>
     </g>
    </g>
   </g>
   <g id="PolyCollection_1"/>
   <g id="PolyCollection_2"/>
   <g id="PolyCollection_3"/>
   <g id="PolyCollection_4"/>
   <g id="PolyCollection_5"/>
   <g id="PolyCollection_6"/>
   <g id="line2d_7">
    <path d="M 202.2575 86.891727 
L 206.539644 91.279027 
L 212.606014 97.30777 
L 218.31554 102.648184 
L 224.025065 107.67041 
L 229.73459 112.381486 
L 235.08727 116.520816 
L 240.43995 120.39608 
L 245.792629 124.013115 
L 251.502154 127.604554 
L 257.21168 130.928186 
L 262.921205 133.990938 
L 268.63073 136.803455 
L 274.340255 139.371068 
L 280.04978 141.698883 
L 285.759305 143.792016 
L 291.468831 145.655673 
L 297.178356 147.295155 
L 302.887881 148.715811 
L 308.954251 149.991319 
L 315.020622 151.031629 
L 321.086992 151.842711 
L 327.153363 152.431181 
L 333.933424 152.863236 
L 343.568247 153.235484 
L 352.846226 153.37093 
L 362.48105 153.289289 
L 374.256945 152.959425 
L 384.962305 152.441142 
L 396.7382 151.64417 
L 429.56797 149.246238 
L 462.39774 147.305043 
L 462.39774 147.305043 
" clip-path="url(#p241673c0a2)" style="fill: none; stroke: #4c72b0; stroke-opacity: 0.9; stroke-width: 3; stroke-linecap: round"/>
   </g>
   <g id="line2d_8">
    <path d="M 202.2575 86.891727 
L 206.896489 89.522739 
L 214.033396 93.442641 
L 221.170302 97.09991 
L 228.307209 100.499052 
L 235.444115 103.64558 
L 242.581021 106.544431 
L 249.717928 109.201171 
L 256.854834 111.622194 
L 264.348586 113.921762 
L 271.842338 115.990101 
L 279.692935 117.922357 
L 287.543532 119.622149 
L 295.394129 121.095192 
L 303.244726 122.347381 
L 311.452169 123.426963 
L 319.659611 124.27858 
L 327.867053 124.909099 
L 337.145032 125.390786 
L 348.920927 125.780416 
L 360.339978 125.936754 
L 372.115873 125.871092 
L 384.962305 125.569208 
L 401.020344 124.938754 
L 438.132258 123.250805 
L 462.39774 122.298839 
L 462.39774 122.298839 
" clip-path="url(#p241673c0a2)" style="fill: none; stroke: #dd8452; stroke-opacity: 0.9; stroke-width: 3; stroke-linecap: round"/>
   </g>
   <g id="line2d_9">
    <path d="M 202.2575 86.891727 
L 204.755417 89.627566 
L 211.535478 96.949774 
L 216.888158 102.399164 
L 222.240838 107.548727 
L 227.593518 112.405748 
L 232.946198 116.975726 
L 238.298878 121.263194 
L 243.651557 125.273679 
L 249.004237 129.013119 
L 254.356917 132.488141 
L 259.709597 135.704457 
L 265.062277 138.668762 
L 270.414957 141.387217 
L 275.767636 143.866799 
L 281.477162 146.259143 
L 287.186687 148.399398 
L 292.896212 150.296207 
L 298.605737 151.956321 
L 304.315262 153.386357 
L 310.024787 154.592353 
L 315.734312 155.580991 
L 321.800683 156.403445 
L 327.867053 157.007872 
L 334.290269 157.429318 
L 341.784021 157.693659 
L 351.061999 157.778201 
L 361.410514 157.651765 
L 373.543254 157.261642 
L 386.032841 156.645722 
L 400.306654 155.700332 
L 417.792074 154.532637 
L 439.559639 153.365992 
L 462.39774 152.248231 
L 462.39774 152.248231 
" clip-path="url(#p241673c0a2)" style="fill: none; stroke: #55a868; stroke-opacity: 0.9; stroke-width: 3; stroke-linecap: round"/>
   </g>
   <g id="line2d_10">
    <path d="M 202.2575 86.891727 
L 205.112263 89.353552 
L 211.892324 95.096849 
L 217.601849 99.6427 
L 223.311374 103.919256 
L 229.020899 107.93175 
L 234.730424 111.685013 
L 240.43995 115.184336 
L 246.149475 118.436396 
L 251.859 121.447386 
L 257.92537 124.389213 
L 263.991741 127.073697 
L 270.058111 129.509666 
L 276.124482 131.705111 
L 282.190852 133.669434 
L 288.257223 135.411405 
L 294.680438 137.022876 
L 301.103654 138.402928 
L 307.52687 139.559264 
L 313.950086 140.499398 
L 320.730147 141.26938 
L 327.867053 141.852056 
L 335.360805 142.232655 
L 344.281938 142.456052 
L 354.987298 142.495108 
L 367.476884 142.306179 
L 381.393852 141.885655 
L 395.310819 141.232178 
L 432.065887 139.323245 
L 462.39774 138.050467 
L 462.39774 138.050467 
" clip-path="url(#p241673c0a2)" style="fill: none; stroke: #c44e52; stroke-opacity: 0.9; stroke-width: 3; stroke-linecap: round"/>
   </g>
   <g id="line2d_11">
    <path d="M 202.2575 86.891727 
L 206.182799 90.772801 
L 212.249169 96.607638 
L 217.958694 101.780806 
L 223.668219 106.647823 
L 229.377745 111.214148 
L 235.08727 115.48482 
L 240.796795 119.464939 
L 246.50632 123.15937 
L 251.859 126.367509 
L 257.568525 129.522856 
L 262.921205 132.235834 
L 268.273885 134.715484 
L 273.626564 136.965831 
L 279.33609 139.12208 
L 285.045615 141.035173 
L 290.75514 142.70984 
L 296.464665 144.150813 
L 302.17419 145.363084 
L 307.883715 146.351849 
L 313.59324 147.122353 
L 319.659611 147.708192 
L 325.725981 148.061103 
L 332.506042 148.217406 
L 339.642949 148.157455 
L 347.850391 147.859869 
L 359.626287 147.206042 
L 373.543254 146.208713 
L 432.065887 141.668128 
L 460.613513 140.012364 
L 462.39774 139.91301 
L 462.39774 139.91301 
" clip-path="url(#p241673c0a2)" style="fill: none; stroke: #8172b3; stroke-opacity: 0.9; stroke-width: 3; stroke-linecap: round"/>
   </g>
   <g id="line2d_12">
    <path d="M 202.2575 86.891727 
L 207.967025 91.384217 
L 214.033396 95.96259 
L 220.099766 100.267339 
L 226.166137 104.304604 
L 232.232507 108.07968 
L 238.298878 111.597283 
L 244.365248 114.862805 
L 250.431619 117.881768 
L 256.497989 120.658693 
L 262.564359 123.198111 
L 268.63073 125.504594 
L 274.6971 127.584258 
L 281.120316 129.548166 
L 287.543532 131.272807 
L 293.966748 132.764005 
L 300.389964 134.027451 
L 306.813179 135.068208 
L 313.236395 135.891417 
L 320.016456 136.530236 
L 326.796517 136.940095 
L 334.290269 137.164789 
L 342.497711 137.191864 
L 351.77569 136.99037 
L 363.551585 136.509778 
L 378.182244 135.68223 
L 393.169747 134.60966 
L 416.364693 132.890319 
L 439.202794 131.537007 
L 462.39774 130.333788 
L 462.39774 130.333788 
" clip-path="url(#p241673c0a2)" style="fill: none; stroke: #937860; stroke-opacity: 0.9; stroke-width: 3; stroke-linecap: round"/>
   </g>
   <g id="patch_3">
    <path d="M 189.250488 201.042 
L 189.250488 81.456 
" style="fill: none; stroke: #ffffff; stroke-width: 1.25; stroke-linejoin: miter; stroke-linecap: square"/>
   </g>
   <g id="patch_4">
    <path d="M 189.250488 201.042 
L 475.404752 201.042 
" style="fill: none; stroke: #ffffff; stroke-width: 1.25; stroke-linejoin: miter; stroke-linecap: square"/>
   </g>
   <g id="text_4">
    <!-- 0.8~90 -->
    <g style="fill: #262626" transform="translate(285.697776 75.456) scale(0.252 -0.252)">
     <defs>
      <path id="DejaVuSans-38" d="M 2034 2216 
Q 1584 2216 1326 1975 
Q 1069 1734 1069 1313 
Q 1069 891 1326 650 
Q 1584 409 2034 409 
Q 2484 409 2743 651 
Q 3003 894 3003 1313 
Q 3003 1734 2745 1975 
Q 2488 2216 2034 2216 
z
M 1403 2484 
Q 997 2584 770 2862 
Q 544 3141 544 3541 
Q 544 4100 942 4425 
Q 1341 4750 2034 4750 
Q 2731 4750 3128 4425 
Q 3525 4100 3525 3541 
Q 3525 3141 3298 2862 
Q 3072 2584 2669 2484 
Q 3125 2378 3379 2068 
Q 3634 1759 3634 1313 
Q 3634 634 3220 271 
Q 2806 -91 2034 -91 
Q 1263 -91 848 271 
Q 434 634 434 1313 
Q 434 1759 690 2068 
Q 947 2378 1403 2484 
z
M 1172 3481 
Q 1172 3119 1398 2916 
Q 1625 2713 2034 2713 
Q 2441 2713 2670 2916 
Q 2900 3119 2900 3481 
Q 2900 3844 2670 4047 
Q 2441 4250 2034 4250 
Q 1625 4250 1398 4047 
Q 1172 3844 1172 3481 
z
" transform="scale(0.015625)"/>
      <path id="DejaVuSans-7e" d="M 4684 2553 
L 4684 1997 
Q 4356 1750 4076 1644 
Q 3797 1538 3494 1538 
Q 3150 1538 2694 1722 
Q 2659 1734 2644 1741 
Q 2622 1750 2575 1766 
Q 2091 1959 1797 1959 
Q 1522 1959 1253 1839 
Q 984 1719 678 1459 
L 678 2016 
Q 1006 2263 1286 2370 
Q 1566 2478 1869 2478 
Q 2213 2478 2672 2291 
Q 2703 2278 2719 2272 
Q 2744 2263 2788 2247 
Q 3272 2053 3566 2053 
Q 3834 2053 4098 2172 
Q 4363 2291 4684 2553 
z
" transform="scale(0.015625)"/>
      <path id="DejaVuSans-39" d="M 703 97 
L 703 672 
Q 941 559 1184 500 
Q 1428 441 1663 441 
Q 2288 441 2617 861 
Q 2947 1281 2994 2138 
Q 2813 1869 2534 1725 
Q 2256 1581 1919 1581 
Q 1219 1581 811 2004 
Q 403 2428 403 3163 
Q 403 3881 828 4315 
Q 1253 4750 1959 4750 
Q 2769 4750 3195 4129 
Q 3622 3509 3622 2328 
Q 3622 1225 3098 567 
Q 2575 -91 1691 -91 
Q 1453 -91 1209 -44 
Q 966 3 703 97 
z
M 1959 2075 
Q 2384 2075 2632 2365 
Q 2881 2656 2881 3163 
Q 2881 3666 2632 3958 
Q 2384 4250 1959 4250 
Q 1534 4250 1286 3958 
Q 1038 3666 1038 3163 
Q 1038 2656 1286 2365 
Q 1534 2075 1959 2075 
z
" transform="scale(0.015625)"/>
     </defs>
     <use xlink:href="#DejaVuSans-30"/>
     <use xlink:href="#DejaVuSans-2e" x="63.623047"/>
     <use xlink:href="#DejaVuSans-38" x="95.410156"/>
     <use xlink:href="#DejaVuSans-7e" x="159.033203"/>
     <use xlink:href="#DejaVuSans-39" x="242.822266"/>
     <use xlink:href="#DejaVuSans-30" x="306.445312"/>
    </g>
   </g>
  </g>
  <g id="axes_2">
   <g id="patch_5">
    <path d="M 501.852899 201.042 
L 788.007162 201.042 
L 788.007162 81.456 
L 501.852899 81.456 
z
" style="fill: #eaeaf2"/>
   </g>
   <g id="matplotlib.axis_3">
    <g id="xtick_5">
     <g id="line2d_13">
      <path d="M 514.859911 201.042 
L 514.859911 81.456 
" clip-path="url(#p861f75621c)" style="fill: none; stroke: #ffffff; stroke-linecap: round"/>
     </g>
    </g>
    <g id="xtick_6">
     <g id="line2d_14">
      <path d="M 604.071241 201.042 
L 604.071241 81.456 
" clip-path="url(#p861f75621c)" style="fill: none; stroke: #ffffff; stroke-linecap: round"/>
     </g>
    </g>
    <g id="xtick_7">
     <g id="line2d_15">
      <path d="M 693.282572 201.042 
L 693.282572 81.456 
" clip-path="url(#p861f75621c)" style="fill: none; stroke: #ffffff; stroke-linecap: round"/>
     </g>
    </g>
    <g id="xtick_8">
     <g id="line2d_16">
      <path d="M 782.493902 201.042 
L 782.493902 81.456 
" clip-path="url(#p861f75621c)" style="fill: none; stroke: #ffffff; stroke-linecap: round"/>
     </g>
    </g>
   </g>
   <g id="matplotlib.axis_4">
    <g id="ytick_3">
     <g id="line2d_17">
      <path d="M 501.852899 150.595103 
L 788.007162 150.595103 
" clip-path="url(#p861f75621c)" style="fill: none; stroke: #ffffff; stroke-linecap: round"/>
     </g>
    </g>
    <g id="ytick_4">
     <g id="line2d_18">
      <path d="M 501.852899 86.891727 
L 788.007162 86.891727 
" clip-path="url(#p861f75621c)" style="fill: none; stroke: #ffffff; stroke-linecap: round"/>
     </g>
    </g>
   </g>
   <g id="PolyCollection_7"/>
   <g id="PolyCollection_8"/>
   <g id="PolyCollection_9"/>
   <g id="PolyCollection_10"/>
   <g id="PolyCollection_11"/>
   <g id="PolyCollection_12"/>
   <g id="line2d_19">
    <path d="M 514.859911 86.891727 
L 518.428364 90.570352 
L 526.635807 98.91524 
L 533.415868 105.48277 
L 540.195929 111.750387 
L 546.97599 117.71865 
L 553.756051 123.388282 
L 560.536112 128.760234 
L 567.316173 133.836307 
L 573.739389 138.373759 
L 580.162605 142.648353 
L 586.585821 146.661744 
L 593.009036 150.416042 
L 599.432252 153.912879 
L 605.855468 157.153932 
L 612.278684 160.140933 
L 618.7019 162.875768 
L 625.125115 165.365392 
L 631.548331 167.615341 
L 637.971547 169.628909 
L 644.394763 171.410747 
L 650.817979 172.962617 
L 657.241194 174.28625 
L 663.66441 175.383405 
L 670.087626 176.255871 
L 676.510842 176.905367 
L 682.934058 177.333524 
L 689.357273 177.544404 
L 697.20787 177.572975 
L 705.058467 177.38281 
L 718.975435 176.774154 
L 733.249248 176.27037 
L 758.942111 175.618256 
L 775.000151 175.286168 
L 775.000151 175.286168 
" clip-path="url(#p861f75621c)" style="fill: none; stroke: #4c72b0; stroke-opacity: 0.9; stroke-width: 3; stroke-linecap: round"/>
   </g>
   <g id="line2d_20">
    <path d="M 514.859911 86.891727 
L 518.78521 89.129979 
L 528.420033 94.534937 
L 536.984321 99.065966 
L 545.548609 103.337983 
L 553.756051 107.189467 
L 561.963494 110.804294 
L 570.170936 114.183409 
L 578.378378 117.327916 
L 586.585821 120.239293 
L 594.793263 122.919721 
L 603.000706 125.370865 
L 611.208148 127.594356 
L 619.41559 129.591905 
L 627.623033 131.365977 
L 635.830475 132.918942 
L 644.394763 134.308738 
L 652.959051 135.474977 
L 661.523338 136.422205 
L 670.087626 137.152382 
L 678.651914 137.667384 
L 687.573047 137.976956 
L 697.564716 138.078628 
L 708.270075 137.960844 
L 767.863244 136.871946 
L 775.000151 136.787304 
L 775.000151 136.787304 
" clip-path="url(#p861f75621c)" style="fill: none; stroke: #dd8452; stroke-opacity: 0.9; stroke-width: 3; stroke-linecap: round"/>
   </g>
   <g id="line2d_21">
    <path d="M 514.859911 86.891727 
L 517.357828 89.637301 
L 526.278961 99.403984 
L 533.059022 106.467567 
L 539.839084 113.208533 
L 546.619145 119.628904 
L 553.399206 125.730079 
L 559.822422 131.216482 
L 566.245637 136.418166 
L 572.668853 141.3362 
L 579.092069 145.971737 
L 585.515285 150.326429 
L 591.938501 154.402142 
L 598.004871 157.996943 
L 604.071241 161.346205 
L 610.137612 164.45221 
L 616.203982 167.316767 
L 622.270353 169.942356 
L 628.336723 172.331441 
L 634.403094 174.486109 
L 640.469464 176.408495 
L 646.535835 178.101361 
L 652.602205 179.566862 
L 658.668576 180.808941 
L 664.734946 181.832519 
L 671.158162 182.683631 
L 677.581378 183.299642 
L 684.004594 183.683335 
L 690.427809 183.841301 
L 697.921561 183.79231 
L 708.270075 183.462826 
L 743.240917 182.167603 
L 763.5811 181.763152 
L 775.000151 181.587825 
L 775.000151 181.587825 
" clip-path="url(#p861f75621c)" style="fill: none; stroke: #55a868; stroke-opacity: 0.9; stroke-width: 3; stroke-linecap: round"/>
   </g>
   <g id="line2d_22">
    <path d="M 514.859911 86.891727 
L 517.357828 89.051562 
L 526.635807 97.035328 
L 533.772713 102.865582 
L 540.90962 108.414961 
L 548.046526 113.684323 
L 555.183432 118.674495 
L 562.320339 123.386479 
L 569.457245 127.821448 
L 576.237306 131.779332 
L 583.017367 135.48979 
L 589.797429 138.954487 
L 596.57749 142.175338 
L 603.357551 145.154252 
L 610.137612 147.893574 
L 616.917673 150.395927 
L 623.697734 152.664045 
L 630.477795 154.700421 
L 637.257856 156.507907 
L 644.037917 158.089451 
L 650.817979 159.448423 
L 657.59804 160.588061 
L 664.734946 161.55584 
L 671.871853 162.291281 
L 679.008759 162.800236 
L 686.145665 163.085908 
L 693.996263 163.16262 
L 703.631086 163.015589 
L 717.904899 162.563475 
L 737.531392 162.002743 
L 759.298956 161.588553 
L 775.000151 161.380789 
L 775.000151 161.380789 
" clip-path="url(#p861f75621c)" style="fill: none; stroke: #c44e52; stroke-opacity: 0.9; stroke-width: 3; stroke-linecap: round"/>
   </g>
   <g id="line2d_23">
    <path d="M 514.859911 86.891727 
L 518.071519 90.084256 
L 526.635807 98.489926 
L 533.772713 105.150993 
L 540.552774 111.183646 
L 547.332835 116.929329 
L 554.112896 122.388782 
L 560.892958 127.562817 
L 567.673019 132.452243 
L 574.45308 137.05794 
L 580.876296 141.160378 
L 587.299511 145.009893 
L 593.722727 148.607518 
L 600.145943 151.954419 
L 606.569159 155.051886 
L 612.992375 157.901282 
L 619.41559 160.503995 
L 625.838806 162.861645 
L 632.262022 164.976734 
L 638.685238 166.851086 
L 645.108453 168.4866 
L 651.531669 169.885183 
L 657.954885 171.050113 
L 664.378101 171.987501 
L 670.801317 172.699811 
L 677.224532 173.188888 
L 683.647748 173.456779 
L 690.427809 173.511262 
L 698.278406 173.342137 
L 707.199539 172.916448 
L 717.191208 172.206393 
L 730.751331 171.287344 
L 744.668298 170.614511 
L 762.86741 169.985677 
L 775.000151 169.647327 
L 775.000151 169.647327 
" clip-path="url(#p861f75621c)" style="fill: none; stroke: #8172b3; stroke-opacity: 0.9; stroke-width: 3; stroke-linecap: round"/>
   </g>
   <g id="line2d_24">
    <path d="M 514.859911 86.891727 
L 519.142055 90.290631 
L 527.349497 96.682711 
L 534.843249 102.228173 
L 542.337001 107.496025 
L 549.830753 112.487474 
L 557.324504 117.203552 
L 564.461411 121.439971 
L 571.598317 125.428457 
L 578.735224 129.170002 
L 585.87213 132.665727 
L 593.009036 135.916723 
L 600.145943 138.924188 
L 607.282849 141.689483 
L 614.419756 144.214625 
L 621.556662 146.501412 
L 628.693569 148.551458 
L 635.830475 150.366451 
L 642.967382 151.948132 
L 650.104288 153.298259 
L 657.241194 154.419941 
L 664.378101 155.318014 
L 671.515007 155.994891 
L 678.651914 156.453052 
L 685.78882 156.694734 
L 693.639417 156.732147 
L 702.917396 156.550676 
L 712.909065 156.124266 
L 734.319784 155.086479 
L 753.232586 154.486373 
L 775.000151 153.939539 
L 775.000151 153.939539 
" clip-path="url(#p861f75621c)" style="fill: none; stroke: #937860; stroke-opacity: 0.9; stroke-width: 3; stroke-linecap: round"/>
   </g>
   <g id="patch_6">
    <path d="M 501.852899 201.042 
L 501.852899 81.456 
" style="fill: none; stroke: #ffffff; stroke-width: 1.25; stroke-linejoin: miter; stroke-linecap: square"/>
   </g>
   <g id="patch_7">
    <path d="M 501.852899 201.042 
L 788.007162 201.042 
" style="fill: none; stroke: #ffffff; stroke-width: 1.25; stroke-linejoin: miter; stroke-linecap: square"/>
   </g>
   <g id="text_5">
    <!-- 0.8~365 -->
    <g style="fill: #262626" transform="translate(590.283437 75.456) scale(0.252 -0.252)">
     <defs>
      <path id="DejaVuSans-33" d="M 2597 2516 
Q 3050 2419 3304 2112 
Q 3559 1806 3559 1356 
Q 3559 666 3084 287 
Q 2609 -91 1734 -91 
Q 1441 -91 1130 -33 
Q 819 25 488 141 
L 488 750 
Q 750 597 1062 519 
Q 1375 441 1716 441 
Q 2309 441 2620 675 
Q 2931 909 2931 1356 
Q 2931 1769 2642 2001 
Q 2353 2234 1838 2234 
L 1294 2234 
L 1294 2753 
L 1863 2753 
Q 2328 2753 2575 2939 
Q 2822 3125 2822 3475 
Q 2822 3834 2567 4026 
Q 2313 4219 1838 4219 
Q 1578 4219 1281 4162 
Q 984 4106 628 3988 
L 628 4550 
Q 988 4650 1302 4700 
Q 1616 4750 1894 4750 
Q 2613 4750 3031 4423 
Q 3450 4097 3450 3541 
Q 3450 3153 3228 2886 
Q 3006 2619 2597 2516 
z
" transform="scale(0.015625)"/>
      <path id="DejaVuSans-36" d="M 2113 2584 
Q 1688 2584 1439 2293 
Q 1191 2003 1191 1497 
Q 1191 994 1439 701 
Q 1688 409 2113 409 
Q 2538 409 2786 701 
Q 3034 994 3034 1497 
Q 3034 2003 2786 2293 
Q 2538 2584 2113 2584 
z
M 3366 4563 
L 3366 3988 
Q 3128 4100 2886 4159 
Q 2644 4219 2406 4219 
Q 1781 4219 1451 3797 
Q 1122 3375 1075 2522 
Q 1259 2794 1537 2939 
Q 1816 3084 2150 3084 
Q 2853 3084 3261 2657 
Q 3669 2231 3669 1497 
Q 3669 778 3244 343 
Q 2819 -91 2113 -91 
Q 1303 -91 875 529 
Q 447 1150 447 2328 
Q 447 3434 972 4092 
Q 1497 4750 2381 4750 
Q 2619 4750 2861 4703 
Q 3103 4656 3366 4563 
z
" transform="scale(0.015625)"/>
     </defs>
     <use xlink:href="#DejaVuSans-30"/>
     <use xlink:href="#DejaVuSans-2e" x="63.623047"/>
     <use xlink:href="#DejaVuSans-38" x="95.410156"/>
     <use xlink:href="#DejaVuSans-7e" x="159.033203"/>
     <use xlink:href="#DejaVuSans-33" x="242.822266"/>
     <use xlink:href="#DejaVuSans-36" x="306.445312"/>
     <use xlink:href="#DejaVuSans-35" x="370.068359"/>
    </g>
   </g>
  </g>
  <g id="axes_3">
   <g id="patch_8">
    <path d="M 814.45531 201.042 
L 1100.609573 201.042 
L 1100.609573 81.456 
L 814.45531 81.456 
z
" style="fill: #eaeaf2"/>
   </g>
   <g id="matplotlib.axis_5">
    <g id="xtick_9">
     <g id="line2d_25">
      <path d="M 827.462322 201.042 
L 827.462322 81.456 
" clip-path="url(#pc865660c60)" style="fill: none; stroke: #ffffff; stroke-linecap: round"/>
     </g>
    </g>
    <g id="xtick_10">
     <g id="line2d_26">
      <path d="M 916.673652 201.042 
L 916.673652 81.456 
" clip-path="url(#pc865660c60)" style="fill: none; stroke: #ffffff; stroke-linecap: round"/>
     </g>
    </g>
    <g id="xtick_11">
     <g id="line2d_27">
      <path d="M 1005.884983 201.042 
L 1005.884983 81.456 
" clip-path="url(#pc865660c60)" style="fill: none; stroke: #ffffff; stroke-linecap: round"/>
     </g>
    </g>
    <g id="xtick_12">
     <g id="line2d_28">
      <path d="M 1095.096313 201.042 
L 1095.096313 81.456 
" clip-path="url(#pc865660c60)" style="fill: none; stroke: #ffffff; stroke-linecap: round"/>
     </g>
    </g>
   </g>
   <g id="matplotlib.axis_6">
    <g id="ytick_5">
     <g id="line2d_29">
      <path d="M 814.45531 150.595103 
L 1100.609573 150.595103 
" clip-path="url(#pc865660c60)" style="fill: none; stroke: #ffffff; stroke-linecap: round"/>
     </g>
    </g>
    <g id="ytick_6">
     <g id="line2d_30">
      <path d="M 814.45531 86.891727 
L 1100.609573 86.891727 
" clip-path="url(#pc865660c60)" style="fill: none; stroke: #ffffff; stroke-linecap: round"/>
     </g>
    </g>
   </g>
   <g id="PolyCollection_13"/>
   <g id="PolyCollection_14"/>
   <g id="PolyCollection_15"/>
   <g id="PolyCollection_16"/>
   <g id="PolyCollection_17"/>
   <g id="PolyCollection_18"/>
   <g id="line2d_31">
    <path d="M 827.462322 86.891727 
L 831.744466 91.279027 
L 837.810836 97.30777 
L 843.520362 102.648184 
L 849.229887 107.67041 
L 854.939412 112.381486 
L 860.292092 116.520816 
L 865.644771 120.39608 
L 870.997451 124.013115 
L 876.706976 127.604554 
L 882.416502 130.928186 
L 888.126027 133.990938 
L 893.835552 136.803455 
L 899.545077 139.371068 
L 905.254602 141.698883 
L 910.964127 143.792016 
L 916.673652 145.655673 
L 922.383178 147.295155 
L 928.092703 148.715811 
L 934.159073 149.991319 
L 940.225444 151.031629 
L 946.291814 151.842711 
L 952.358185 152.431181 
L 959.138246 152.863236 
L 968.773069 153.235484 
L 978.051048 153.37093 
L 987.685871 153.289289 
L 999.461767 152.959425 
L 1010.167127 152.441142 
L 1021.943022 151.64417 
L 1054.772792 149.246238 
L 1087.602561 147.305043 
L 1087.602561 147.305043 
" clip-path="url(#pc865660c60)" style="fill: none; stroke: #4c72b0; stroke-opacity: 0.9; stroke-width: 3; stroke-linecap: round"/>
   </g>
   <g id="line2d_32">
    <path d="M 827.462322 86.891727 
L 832.101311 89.522739 
L 839.238218 93.442641 
L 846.375124 97.09991 
L 853.512031 100.499052 
L 860.648937 103.64558 
L 867.785843 106.544431 
L 874.92275 109.201171 
L 882.059656 111.622194 
L 889.553408 113.921762 
L 897.04716 115.990101 
L 904.897757 117.922357 
L 912.748354 119.622149 
L 920.598951 121.095192 
L 928.449548 122.347381 
L 936.65699 123.426963 
L 944.864433 124.27858 
L 953.071875 124.909099 
L 962.349854 125.390786 
L 974.125749 125.780416 
L 985.544799 125.936754 
L 997.320695 125.871092 
L 1010.167127 125.569208 
L 1026.225166 124.938754 
L 1063.33708 123.250805 
L 1087.602561 122.298839 
L 1087.602561 122.298839 
" clip-path="url(#pc865660c60)" style="fill: none; stroke: #dd8452; stroke-opacity: 0.9; stroke-width: 3; stroke-linecap: round"/>
   </g>
   <g id="line2d_33">
    <path d="M 827.462322 86.891727 
L 829.960239 89.627566 
L 836.7403 96.949774 
L 842.09298 102.399164 
L 847.44566 107.548727 
L 852.79834 112.405748 
L 858.15102 116.975726 
L 863.5037 121.263194 
L 868.856379 125.273679 
L 874.209059 129.013119 
L 879.561739 132.488141 
L 884.914419 135.704466 
L 890.267099 138.671315 
L 895.619778 141.395613 
L 900.972458 143.88255 
L 906.681983 146.282613 
L 912.391509 148.42922 
L 918.101034 150.330587 
L 923.810559 151.992676 
L 929.520084 153.422258 
L 935.229609 154.627624 
L 940.939134 155.61564 
L 947.005505 156.437416 
L 953.071875 157.041151 
L 959.495091 157.461876 
L 966.988843 157.725366 
L 976.266821 157.809268 
L 986.615335 157.683214 
L 998.748076 157.293412 
L 1011.237663 156.677698 
L 1025.511476 155.732386 
L 1042.996896 154.564675 
L 1064.764461 153.397935 
L 1087.602561 152.27985 
L 1087.602561 152.27985 
" clip-path="url(#pc865660c60)" style="fill: none; stroke: #55a868; stroke-opacity: 0.9; stroke-width: 3; stroke-linecap: round"/>
   </g>
   <g id="line2d_34">
    <path d="M 827.462322 86.891727 
L 830.317085 89.353552 
L 837.097146 95.096849 
L 842.806671 99.6427 
L 848.516196 103.919256 
L 854.225721 107.93175 
L 859.935246 111.685013 
L 865.644771 115.184336 
L 871.354297 118.436396 
L 877.063822 121.447386 
L 883.130192 124.390734 
L 889.196563 127.080901 
L 895.262933 129.524686 
L 901.329304 131.728157 
L 907.395674 133.699324 
L 913.462045 135.446046 
L 919.88526 137.059417 
L 926.308476 138.438695 
L 932.731692 139.594176 
L 939.154908 140.533461 
L 945.934969 141.302544 
L 953.071875 141.88428 
L 960.565627 142.263941 
L 969.48676 142.486335 
L 980.548965 142.523031 
L 993.038551 142.328828 
L 1006.955519 141.902602 
L 1020.872486 141.243541 
L 1056.200173 139.401178 
L 1087.602561 138.080532 
L 1087.602561 138.080532 
" clip-path="url(#pc865660c60)" style="fill: none; stroke: #c44e52; stroke-opacity: 0.9; stroke-width: 3; stroke-linecap: round"/>
   </g>
   <g id="line2d_35">
    <path d="M 827.462322 86.891727 
L 831.387621 90.772801 
L 837.453991 96.607638 
L 843.163516 101.780806 
L 848.873041 106.647823 
L 854.582566 111.214148 
L 860.292092 115.48482 
L 866.001617 119.464939 
L 871.711142 123.15937 
L 877.063822 126.367509 
L 882.773347 129.522856 
L 888.126027 132.235834 
L 893.478707 134.715484 
L 898.831386 136.965831 
L 904.540911 139.12208 
L 910.250437 141.035173 
L 915.959962 142.70984 
L 921.669487 144.150813 
L 927.379012 145.363084 
L 933.088537 146.351849 
L 938.798062 147.122353 
L 944.864433 147.708192 
L 950.930803 148.061103 
L 957.710864 148.217406 
L 964.847771 148.157455 
L 973.055213 147.859869 
L 984.831109 147.206042 
L 998.748076 146.208713 
L 1057.270709 141.668128 
L 1085.818335 140.012364 
L 1087.602561 139.91301 
L 1087.602561 139.91301 
" clip-path="url(#pc865660c60)" style="fill: none; stroke: #8172b3; stroke-opacity: 0.9; stroke-width: 3; stroke-linecap: round"/>
   </g>
   <g id="line2d_36">
    <path d="M 827.462322 86.891727 
L 833.171847 91.384217 
L 839.238218 95.96259 
L 845.304588 100.267339 
L 851.370959 104.304604 
L 857.437329 108.07968 
L 863.5037 111.597283 
L 869.57007 114.862805 
L 875.63644 117.881768 
L 881.702811 120.658693 
L 887.769181 123.198111 
L 893.835552 125.504594 
L 899.901922 127.584258 
L 906.325138 129.548166 
L 912.748354 131.272807 
L 919.17157 132.764005 
L 925.594785 134.027451 
L 932.018001 135.068208 
L 938.441217 135.891417 
L 945.221278 136.530236 
L 952.001339 136.940095 
L 959.495091 137.164789 
L 967.702533 137.191864 
L 976.980512 136.99037 
L 988.756407 136.509778 
L 1003.387066 135.68223 
L 1018.374569 134.60966 
L 1041.569515 132.890319 
L 1064.407616 131.537007 
L 1087.602561 130.333788 
L 1087.602561 130.333788 
" clip-path="url(#pc865660c60)" style="fill: none; stroke: #937860; stroke-opacity: 0.9; stroke-width: 3; stroke-linecap: round"/>
   </g>
   <g id="patch_9">
    <path d="M 814.45531 201.042 
L 814.45531 81.456 
" style="fill: none; stroke: #ffffff; stroke-width: 1.25; stroke-linejoin: miter; stroke-linecap: square"/>
   </g>
   <g id="patch_10">
    <path d="M 814.45531 201.042 
L 1100.609573 201.042 
" style="fill: none; stroke: #ffffff; stroke-width: 1.25; stroke-linejoin: miter; stroke-linecap: square"/>
   </g>
   <g id="text_6">
    <!-- 0.85~90 -->
    <g style="fill: #262626" transform="translate(902.885848 75.456) scale(0.252 -0.252)">
     <use xlink:href="#DejaVuSans-30"/>
     <use xlink:href="#DejaVuSans-2e" x="63.623047"/>
     <use xlink:href="#DejaVuSans-38" x="95.410156"/>
     <use xlink:href="#DejaVuSans-35" x="159.033203"/>
     <use xlink:href="#DejaVuSans-7e" x="222.65625"/>
     <use xlink:href="#DejaVuSans-39" x="306.445312"/>
     <use xlink:href="#DejaVuSans-30" x="370.068359"/>
    </g>
   </g>
  </g>
  <g id="axes_4">
   <g id="patch_11">
    <path d="M 189.250488 373.284 
L 475.404752 373.284 
L 475.404752 253.698 
L 189.250488 253.698 
z
" style="fill: #eaeaf2"/>
   </g>
   <g id="matplotlib.axis_7">
    <g id="xtick_13">
     <g id="line2d_37">
      <path d="M 202.2575 373.284 
L 202.2575 253.698 
" clip-path="url(#p799bf863cb)" style="fill: none; stroke: #ffffff; stroke-linecap: round"/>
     </g>
     <g id="text_7">
      <!-- 0 -->
      <g style="fill: #262626" transform="translate(194.908813 400.336391) scale(0.231 -0.231)">
       <use xlink:href="#DejaVuSans-30"/>
      </g>
     </g>
    </g>
    <g id="xtick_14">
     <g id="line2d_38">
      <path d="M 291.468831 373.284 
L 291.468831 253.698 
" clip-path="url(#p799bf863cb)" style="fill: none; stroke: #ffffff; stroke-linecap: round"/>
     </g>
     <g id="text_8">
      <!-- 250 -->
      <g style="fill: #262626" transform="translate(269.422768 400.336391) scale(0.231 -0.231)">
       <use xlink:href="#DejaVuSans-32"/>
       <use xlink:href="#DejaVuSans-35" x="63.623047"/>
       <use xlink:href="#DejaVuSans-30" x="127.246094"/>
      </g>
     </g>
    </g>
    <g id="xtick_15">
     <g id="line2d_39">
      <path d="M 380.680161 373.284 
L 380.680161 253.698 
" clip-path="url(#p799bf863cb)" style="fill: none; stroke: #ffffff; stroke-linecap: round"/>
     </g>
     <g id="text_9">
      <!-- 500 -->
      <g style="fill: #262626" transform="translate(358.634098 400.336391) scale(0.231 -0.231)">
       <use xlink:href="#DejaVuSans-35"/>
       <use xlink:href="#DejaVuSans-30" x="63.623047"/>
       <use xlink:href="#DejaVuSans-30" x="127.246094"/>
      </g>
     </g>
    </g>
    <g id="xtick_16">
     <g id="line2d_40">
      <path d="M 469.891491 373.284 
L 469.891491 253.698 
" clip-path="url(#p799bf863cb)" style="fill: none; stroke: #ffffff; stroke-linecap: round"/>
     </g>
     <g id="text_10">
      <!-- 750 -->
      <g style="fill: #262626" transform="translate(447.845429 400.336391) scale(0.231 -0.231)">
       <defs>
        <path id="DejaVuSans-37" d="M 525 4666 
L 3525 4666 
L 3525 4397 
L 1831 0 
L 1172 0 
L 2766 4134 
L 525 4134 
L 525 4666 
z
" transform="scale(0.015625)"/>
       </defs>
       <use xlink:href="#DejaVuSans-37"/>
       <use xlink:href="#DejaVuSans-35" x="63.623047"/>
       <use xlink:href="#DejaVuSans-30" x="127.246094"/>
      </g>
     </g>
    </g>
    <g id="text_11">
     <!-- step -->
     <g style="fill: #262626" transform="translate(305.072245 428.288531) scale(0.252 -0.252)">
      <defs>
       <path id="DejaVuSans-73" d="M 2834 3397 
L 2834 2853 
Q 2591 2978 2328 3040 
Q 2066 3103 1784 3103 
Q 1356 3103 1142 2972 
Q 928 2841 928 2578 
Q 928 2378 1081 2264 
Q 1234 2150 1697 2047 
L 1894 2003 
Q 2506 1872 2764 1633 
Q 3022 1394 3022 966 
Q 3022 478 2636 193 
Q 2250 -91 1575 -91 
Q 1294 -91 989 -36 
Q 684 19 347 128 
L 347 722 
Q 666 556 975 473 
Q 1284 391 1588 391 
Q 1994 391 2212 530 
Q 2431 669 2431 922 
Q 2431 1156 2273 1281 
Q 2116 1406 1581 1522 
L 1381 1569 
Q 847 1681 609 1914 
Q 372 2147 372 2553 
Q 372 3047 722 3315 
Q 1072 3584 1716 3584 
Q 2034 3584 2315 3537 
Q 2597 3491 2834 3397 
z
" transform="scale(0.015625)"/>
       <path id="DejaVuSans-74" d="M 1172 4494 
L 1172 3500 
L 2356 3500 
L 2356 3053 
L 1172 3053 
L 1172 1153 
Q 1172 725 1289 603 
Q 1406 481 1766 481 
L 2356 481 
L 2356 0 
L 1766 0 
Q 1100 0 847 248 
Q 594 497 594 1153 
L 594 3053 
L 172 3053 
L 172 3500 
L 594 3500 
L 594 4494 
L 1172 4494 
z
" transform="scale(0.015625)"/>
       <path id="DejaVuSans-70" d="M 1159 525 
L 1159 -1331 
L 581 -1331 
L 581 3500 
L 1159 3500 
L 1159 2969 
Q 1341 3281 1617 3432 
Q 1894 3584 2278 3584 
Q 2916 3584 3314 3078 
Q 3713 2572 3713 1747 
Q 3713 922 3314 415 
Q 2916 -91 2278 -91 
Q 1894 -91 1617 61 
Q 1341 213 1159 525 
z
M 3116 1747 
Q 3116 2381 2855 2742 
Q 2594 3103 2138 3103 
Q 1681 3103 1420 2742 
Q 1159 2381 1159 1747 
Q 1159 1113 1420 752 
Q 1681 391 2138 391 
Q 2594 391 2855 752 
Q 3116 1113 3116 1747 
z
" transform="scale(0.015625)"/>
      </defs>
      <use xlink:href="#DejaVuSans-73"/>
      <use xlink:href="#DejaVuSans-74" x="52.099609"/>
      <use xlink:href="#DejaVuSans-65" x="91.308594"/>
      <use xlink:href="#DejaVuSans-70" x="152.832031"/>
     </g>
    </g>
   </g>
   <g id="matplotlib.axis_8">
    <g id="ytick_7">
     <g id="line2d_41">
      <path d="M 189.250488 322.837103 
L 475.404752 322.837103 
" clip-path="url(#p799bf863cb)" style="fill: none; stroke: #ffffff; stroke-linecap: round"/>
     </g>
     <g id="text_12">
      <!-- −0.25 -->
      <g style="fill: #262626" transform="translate(108.959816 331.613298) scale(0.231 -0.231)">
       <use xlink:href="#DejaVuSans-2212"/>
       <use xlink:href="#DejaVuSans-30" x="83.789062"/>
       <use xlink:href="#DejaVuSans-2e" x="147.412109"/>
       <use xlink:href="#DejaVuSans-32" x="179.199219"/>
       <use xlink:href="#DejaVuSans-35" x="242.822266"/>
      </g>
     </g>
    </g>
    <g id="ytick_8">
     <g id="line2d_42">
      <path d="M 189.250488 259.133727 
L 475.404752 259.133727 
" clip-path="url(#p799bf863cb)" style="fill: none; stroke: #ffffff; stroke-linecap: round"/>
     </g>
     <g id="text_13">
      <!-- 0.00 -->
      <g style="fill: #262626" transform="translate(128.316894 267.909923) scale(0.231 -0.231)">
       <use xlink:href="#DejaVuSans-30"/>
       <use xlink:href="#DejaVuSans-2e" x="63.623047"/>
       <use xlink:href="#DejaVuSans-30" x="95.410156"/>
       <use xlink:href="#DejaVuSans-30" x="159.033203"/>
      </g>
     </g>
    </g>
    <g id="text_14">
     <!-- % change -->
     <g style="fill: #262626" transform="translate(99.719004 375.839344) rotate(-90) scale(0.252 -0.252)">
      <use xlink:href="#DejaVuSans-25"/>
      <use xlink:href="#DejaVuSans-20" x="95.019531"/>
      <use xlink:href="#DejaVuSans-63" x="126.806641"/>
      <use xlink:href="#DejaVuSans-68" x="181.787109"/>
      <use xlink:href="#DejaVuSans-61" x="245.166016"/>
      <use xlink:href="#DejaVuSans-6e" x="306.445312"/>
      <use xlink:href="#DejaVuSans-67" x="369.824219"/>
      <use xlink:href="#DejaVuSans-65" x="433.300781"/>
     </g>
    </g>
   </g>
   <g id="PolyCollection_19"/>
   <g id="PolyCollection_20"/>
   <g id="PolyCollection_21"/>
   <g id="PolyCollection_22"/>
   <g id="PolyCollection_23"/>
   <g id="PolyCollection_24"/>
   <g id="line2d_43">
    <path d="M 202.2575 259.133727 
L 205.825953 262.812352 
L 214.033396 271.15724 
L 220.813457 277.72477 
L 227.593518 283.992387 
L 234.373579 289.96065 
L 241.15364 295.630282 
L 247.933701 301.002234 
L 254.713762 306.078307 
L 261.136978 310.615759 
L 267.560194 314.890353 
L 273.98341 318.903744 
L 280.406626 322.658042 
L 286.829841 326.154879 
L 293.253057 329.395932 
L 299.676273 332.382933 
L 306.099489 335.117768 
L 312.522704 337.607392 
L 318.94592 339.857341 
L 325.369136 341.870909 
L 331.792352 343.652747 
L 338.215568 345.204617 
L 344.638783 346.52825 
L 351.061999 347.625405 
L 357.485215 348.497871 
L 363.908431 349.147367 
L 370.331647 349.575524 
L 376.754862 349.786404 
L 384.605459 349.814975 
L 392.456057 349.62481 
L 406.373024 349.016154 
L 420.646837 348.51237 
L 446.3397 347.860256 
L 462.39774 347.528168 
L 462.39774 347.528168 
" clip-path="url(#p799bf863cb)" style="fill: none; stroke: #4c72b0; stroke-opacity: 0.9; stroke-width: 3; stroke-linecap: round"/>
   </g>
   <g id="line2d_44">
    <path d="M 202.2575 259.133727 
L 206.182799 261.371979 
L 215.817622 266.776937 
L 224.38191 271.307966 
L 232.946198 275.579983 
L 241.15364 279.431467 
L 249.361083 283.046294 
L 257.568525 286.425409 
L 265.775967 289.569916 
L 273.98341 292.481293 
L 282.190852 295.161721 
L 290.398295 297.612865 
L 298.605737 299.836356 
L 306.813179 301.833905 
L 315.020622 303.607977 
L 323.228064 305.160942 
L 331.792352 306.550738 
L 340.35664 307.716977 
L 348.920927 308.664205 
L 357.485215 309.394382 
L 366.049503 309.909384 
L 374.970636 310.218956 
L 384.962305 310.320628 
L 395.667664 310.202844 
L 455.260833 309.113946 
L 462.39774 309.029304 
L 462.39774 309.029304 
" clip-path="url(#p799bf863cb)" style="fill: none; stroke: #dd8452; stroke-opacity: 0.9; stroke-width: 3; stroke-linecap: round"/>
   </g>
   <g id="line2d_45">
    <path d="M 202.2575 259.133727 
L 204.755417 261.879301 
L 213.67655 271.645984 
L 220.456612 278.709567 
L 227.236673 285.450533 
L 234.016734 291.870904 
L 240.796795 297.972079 
L 247.220011 303.458482 
L 253.643226 308.660166 
L 260.066442 313.578283 
L 266.489658 318.219338 
L 272.912874 322.585885 
L 279.33609 326.67701 
L 285.759305 330.492446 
L 291.825676 333.844074 
L 297.892046 336.953374 
L 303.958417 339.820016 
L 310.024787 342.444237 
L 316.091158 344.826676 
L 322.157528 346.969239 
L 328.223899 348.877147 
L 334.290269 350.555779 
L 340.35664 352.007059 
L 346.42301 353.235344 
L 352.489381 354.24541 
L 358.912596 355.082567 
L 365.335812 355.684848 
L 371.759028 356.054944 
L 378.182244 356.200515 
L 385.675995 356.140239 
L 396.02451 355.804131 
L 429.56797 354.551375 
L 449.551308 354.142818 
L 462.39774 353.943873 
L 462.39774 353.943873 
" clip-path="url(#p799bf863cb)" style="fill: none; stroke: #55a868; stroke-opacity: 0.9; stroke-width: 3; stroke-linecap: round"/>
   </g>
   <g id="line2d_46">
    <path d="M 202.2575 259.133727 
L 204.755417 261.293562 
L 214.033396 269.277328 
L 221.170302 275.107582 
L 228.307209 280.656961 
L 235.444115 285.926323 
L 242.581021 290.916495 
L 249.717928 295.628479 
L 256.854834 300.067221 
L 263.991741 304.239981 
L 270.771802 307.955701 
L 277.551863 311.42824 
L 284.331924 314.657355 
L 291.111985 317.643355 
L 297.892046 320.387313 
L 304.672107 322.890824 
L 311.452169 325.15579 
L 318.23223 327.184011 
L 325.012291 328.978842 
L 331.792352 330.547374 
L 338.572413 331.893501 
L 345.352474 333.020493 
L 352.489381 333.975292 
L 359.626287 334.698115 
L 366.763193 335.194733 
L 373.9001 335.468224 
L 381.750697 335.533754 
L 391.742366 335.370196 
L 406.729869 334.887416 
L 427.070053 334.324003 
L 448.480772 333.934445 
L 462.39774 333.752124 
L 462.39774 333.752124 
" clip-path="url(#p799bf863cb)" style="fill: none; stroke: #c44e52; stroke-opacity: 0.9; stroke-width: 3; stroke-linecap: round"/>
   </g>
   <g id="line2d_47">
    <path d="M 202.2575 259.133727 
L 205.469108 262.326256 
L 214.033396 270.731926 
L 221.170302 277.392993 
L 227.950363 283.425646 
L 234.730424 289.171329 
L 241.510485 294.630782 
L 248.290547 299.804817 
L 255.070608 304.694243 
L 261.850669 309.29994 
L 268.273885 313.402378 
L 274.6971 317.251893 
L 281.120316 320.849518 
L 287.543532 324.196419 
L 293.966748 327.293886 
L 300.389964 330.143282 
L 306.813179 332.745995 
L 313.236395 335.103645 
L 319.659611 337.218734 
L 326.082827 339.093086 
L 332.506042 340.7286 
L 338.929258 342.127183 
L 345.352474 343.292113 
L 351.77569 344.229501 
L 358.198906 344.941811 
L 364.622121 345.430888 
L 371.045337 345.698779 
L 377.825398 345.753262 
L 385.675995 345.584137 
L 394.597128 345.158448 
L 404.588797 344.448393 
L 418.14892 343.529344 
L 432.065887 342.856511 
L 450.264999 342.227677 
L 462.39774 341.889327 
L 462.39774 341.889327 
" clip-path="url(#p799bf863cb)" style="fill: none; stroke: #8172b3; stroke-opacity: 0.9; stroke-width: 3; stroke-linecap: round"/>
   </g>
   <g id="line2d_48">
    <path d="M 202.2575 259.133727 
L 206.539644 262.532631 
L 214.747086 268.924711 
L 222.240838 274.470173 
L 229.73459 279.738025 
L 237.228342 284.729474 
L 244.722093 289.445552 
L 251.859 293.681971 
L 258.995906 297.670457 
L 266.132813 301.412002 
L 273.269719 304.907727 
L 280.406626 308.158723 
L 287.543532 311.166188 
L 294.680438 313.931483 
L 301.817345 316.456625 
L 308.954251 318.743412 
L 316.091158 320.793458 
L 323.228064 322.608451 
L 330.364971 324.190132 
L 337.501877 325.540259 
L 344.638783 326.661941 
L 351.77569 327.560014 
L 358.912596 328.236891 
L 366.049503 328.695052 
L 373.186409 328.936734 
L 381.037006 328.974147 
L 390.314985 328.792676 
L 400.306654 328.366266 
L 421.717373 327.328479 
L 440.630175 326.728373 
L 462.39774 326.181539 
L 462.39774 326.181539 
" clip-path="url(#p799bf863cb)" style="fill: none; stroke: #937860; stroke-opacity: 0.9; stroke-width: 3; stroke-linecap: round"/>
   </g>
   <g id="patch_12">
    <path d="M 189.250488 373.284 
L 189.250488 253.698 
" style="fill: none; stroke: #ffffff; stroke-width: 1.25; stroke-linejoin: miter; stroke-linecap: square"/>
   </g>
   <g id="patch_13">
    <path d="M 189.250488 373.284 
L 475.404752 373.284 
" style="fill: none; stroke: #ffffff; stroke-width: 1.25; stroke-linejoin: miter; stroke-linecap: square"/>
   </g>
   <g id="text_15">
    <!-- 0.85~365 -->
    <g style="fill: #262626" transform="translate(269.664276 247.698) scale(0.252 -0.252)">
     <use xlink:href="#DejaVuSans-30"/>
     <use xlink:href="#DejaVuSans-2e" x="63.623047"/>
     <use xlink:href="#DejaVuSans-38" x="95.410156"/>
     <use xlink:href="#DejaVuSans-35" x="159.033203"/>
     <use xlink:href="#DejaVuSans-7e" x="222.65625"/>
     <use xlink:href="#DejaVuSans-33" x="306.445312"/>
     <use xlink:href="#DejaVuSans-36" x="370.068359"/>
     <use xlink:href="#DejaVuSans-35" x="433.691406"/>
    </g>
   </g>
  </g>
  <g id="axes_5">
   <g id="patch_14">
    <path d="M 501.852899 373.284 
L 788.007162 373.284 
L 788.007162 253.698 
L 501.852899 253.698 
z
" style="fill: #eaeaf2"/>
   </g>
   <g id="matplotlib.axis_9">
    <g id="xtick_17">
     <g id="line2d_49">
      <path d="M 514.859911 373.284 
L 514.859911 253.698 
" clip-path="url(#p7b3578d692)" style="fill: none; stroke: #ffffff; stroke-linecap: round"/>
     </g>
     <g id="text_16">
      <!-- 0 -->
      <g style="fill: #262626" transform="translate(507.511224 400.336391) scale(0.231 -0.231)">
       <use xlink:href="#DejaVuSans-30"/>
      </g>
     </g>
    </g>
    <g id="xtick_18">
     <g id="line2d_50">
      <path d="M 604.071241 373.284 
L 604.071241 253.698 
" clip-path="url(#p7b3578d692)" style="fill: none; stroke: #ffffff; stroke-linecap: round"/>
     </g>
     <g id="text_17">
      <!-- 250 -->
      <g style="fill: #262626" transform="translate(582.025179 400.336391) scale(0.231 -0.231)">
       <use xlink:href="#DejaVuSans-32"/>
       <use xlink:href="#DejaVuSans-35" x="63.623047"/>
       <use xlink:href="#DejaVuSans-30" x="127.246094"/>
      </g>
     </g>
    </g>
    <g id="xtick_19">
     <g id="line2d_51">
      <path d="M 693.282572 373.284 
L 693.282572 253.698 
" clip-path="url(#p7b3578d692)" style="fill: none; stroke: #ffffff; stroke-linecap: round"/>
     </g>
     <g id="text_18">
      <!-- 500 -->
      <g style="fill: #262626" transform="translate(671.236509 400.336391) scale(0.231 -0.231)">
       <use xlink:href="#DejaVuSans-35"/>
       <use xlink:href="#DejaVuSans-30" x="63.623047"/>
       <use xlink:href="#DejaVuSans-30" x="127.246094"/>
      </g>
     </g>
    </g>
    <g id="xtick_20">
     <g id="line2d_52">
      <path d="M 782.493902 373.284 
L 782.493902 253.698 
" clip-path="url(#p7b3578d692)" style="fill: none; stroke: #ffffff; stroke-linecap: round"/>
     </g>
     <g id="text_19">
      <!-- 750 -->
      <g style="fill: #262626" transform="translate(760.44784 400.336391) scale(0.231 -0.231)">
       <use xlink:href="#DejaVuSans-37"/>
       <use xlink:href="#DejaVuSans-35" x="63.623047"/>
       <use xlink:href="#DejaVuSans-30" x="127.246094"/>
      </g>
     </g>
    </g>
    <g id="text_20">
     <!-- step -->
     <g style="fill: #262626" transform="translate(617.674656 428.288531) scale(0.252 -0.252)">
      <use xlink:href="#DejaVuSans-73"/>
      <use xlink:href="#DejaVuSans-74" x="52.099609"/>
      <use xlink:href="#DejaVuSans-65" x="91.308594"/>
      <use xlink:href="#DejaVuSans-70" x="152.832031"/>
     </g>
    </g>
   </g>
   <g id="matplotlib.axis_10">
    <g id="ytick_9">
     <g id="line2d_53">
      <path d="M 501.852899 322.837103 
L 788.007162 322.837103 
" clip-path="url(#p7b3578d692)" style="fill: none; stroke: #ffffff; stroke-linecap: round"/>
     </g>
    </g>
    <g id="ytick_10">
     <g id="line2d_54">
      <path d="M 501.852899 259.133727 
L 788.007162 259.133727 
" clip-path="url(#p7b3578d692)" style="fill: none; stroke: #ffffff; stroke-linecap: round"/>
     </g>
    </g>
   </g>
   <g id="PolyCollection_25"/>
   <g id="PolyCollection_26"/>
   <g id="PolyCollection_27"/>
   <g id="PolyCollection_28"/>
   <g id="PolyCollection_29"/>
   <g id="PolyCollection_30"/>
   <g id="line2d_55">
    <path d="M 514.859911 259.133727 
L 519.142055 263.521027 
L 525.208425 269.54977 
L 530.917951 274.890184 
L 536.627476 279.91241 
L 542.337001 284.623486 
L 547.689681 288.762816 
L 553.04236 292.63808 
L 558.39504 296.255115 
L 564.104565 299.846554 
L 569.814091 303.170186 
L 575.523616 306.232938 
L 581.233141 309.045455 
L 586.942666 311.613068 
L 592.652191 313.940883 
L 598.361716 316.034016 
L 604.071241 317.897673 
L 609.780767 319.537155 
L 615.490292 320.957811 
L 621.556662 322.233319 
L 627.623033 323.273629 
L 633.689403 324.084711 
L 639.755774 324.673181 
L 646.535835 325.105236 
L 656.170658 325.477484 
L 665.448637 325.61293 
L 675.08346 325.531289 
L 686.859356 325.201425 
L 697.564716 324.683142 
L 709.340611 323.88617 
L 742.170381 321.488238 
L 775.000151 319.547043 
L 775.000151 319.547043 
" clip-path="url(#p7b3578d692)" style="fill: none; stroke: #4c72b0; stroke-opacity: 0.9; stroke-width: 3; stroke-linecap: round"/>
   </g>
   <g id="line2d_56">
    <path d="M 514.859911 259.133727 
L 519.4989 261.764739 
L 526.635807 265.684641 
L 533.772713 269.34191 
L 540.90962 272.741052 
L 548.046526 275.88758 
L 555.183432 278.786431 
L 562.320339 281.443171 
L 569.457245 283.864194 
L 576.950997 286.163762 
L 584.444749 288.232101 
L 592.295346 290.164357 
L 600.145943 291.864149 
L 607.99654 293.337192 
L 615.847137 294.589381 
L 624.054579 295.668963 
L 632.262022 296.52058 
L 640.469464 297.151099 
L 649.747443 297.632786 
L 661.523338 298.022416 
L 672.942389 298.178754 
L 684.718284 298.113092 
L 697.564716 297.811208 
L 713.622755 297.180754 
L 750.734669 295.492805 
L 775.000151 294.540839 
L 775.000151 294.540839 
" clip-path="url(#p7b3578d692)" style="fill: none; stroke: #dd8452; stroke-opacity: 0.9; stroke-width: 3; stroke-linecap: round"/>
   </g>
   <g id="line2d_57">
    <path d="M 514.859911 259.133727 
L 517.357828 261.869566 
L 524.137889 269.191774 
L 529.490569 274.641164 
L 534.843249 279.790727 
L 540.195929 284.647748 
L 545.548609 289.220786 
L 551.258134 293.809714 
L 557.324504 298.39353 
L 563.74772 302.956873 
L 570.170936 307.232091 
L 576.237306 311.000908 
L 581.946832 314.299319 
L 587.656357 317.350758 
L 593.365882 320.150646 
L 599.075407 322.703121 
L 605.141777 325.161451 
L 611.208148 327.368397 
L 617.274518 329.329032 
L 623.340889 331.045501 
L 629.407259 332.519233 
L 635.47363 333.759893 
L 641.54 334.779229 
L 647.963216 335.636003 
L 655.100122 336.363399 
L 662.95072 336.934125 
L 671.158162 337.307567 
L 679.008759 337.442457 
L 687.216201 337.355397 
L 695.423644 337.039759 
L 703.631086 336.498155 
L 715.763827 335.435305 
L 727.539723 334.475586 
L 744.668298 333.322228 
L 775.000151 331.530135 
L 775.000151 331.530135 
" clip-path="url(#p7b3578d692)" style="fill: none; stroke: #55a868; stroke-opacity: 0.9; stroke-width: 3; stroke-linecap: round"/>
   </g>
   <g id="line2d_58">
    <path d="M 514.859911 259.133727 
L 517.714674 261.595552 
L 524.494735 267.338849 
L 530.20426 271.8847 
L 535.913785 276.161256 
L 541.62331 280.17474 
L 547.689681 284.177455 
L 553.756051 287.923991 
L 560.179267 291.635618 
L 566.959328 295.299284 
L 573.382544 298.529378 
L 579.80576 301.516852 
L 586.228975 304.256352 
L 592.652191 306.743727 
L 599.075407 308.987641 
L 605.498623 311.002114 
L 611.921839 312.79327 
L 618.345054 314.364134 
L 624.76827 315.716642 
L 631.548331 316.910433 
L 638.328392 317.875153 
L 645.108453 318.616576 
L 652.602205 319.210571 
L 660.809648 319.628744 
L 669.01709 319.830122 
L 677.224532 319.815681 
L 686.145665 319.571759 
L 697.20787 319.023673 
L 713.979601 317.954495 
L 730.751331 316.882295 
L 754.303122 315.634978 
L 775.000151 314.615201 
L 775.000151 314.615201 
" clip-path="url(#p7b3578d692)" style="fill: none; stroke: #c44e52; stroke-opacity: 0.9; stroke-width: 3; stroke-linecap: round"/>
   </g>
   <g id="line2d_59">
    <path d="M 514.859911 259.133727 
L 518.78521 263.014801 
L 524.85158 268.849638 
L 530.561105 274.022806 
L 536.27063 278.889823 
L 541.980156 283.456148 
L 547.689681 287.72682 
L 553.399206 291.706939 
L 559.108731 295.40137 
L 564.461411 298.609509 
L 570.170936 301.764856 
L 575.523616 304.477834 
L 580.876296 306.957484 
L 586.228975 309.207831 
L 591.938501 311.36408 
L 597.648026 313.277173 
L 603.357551 314.95184 
L 609.067076 316.392813 
L 614.776601 317.605084 
L 620.486126 318.593849 
L 626.195651 319.364353 
L 632.262022 319.950192 
L 638.328392 320.303103 
L 645.108453 320.459406 
L 652.24536 320.399455 
L 660.452802 320.101869 
L 672.228698 319.448042 
L 686.145665 318.450713 
L 744.668298 313.910128 
L 773.215924 312.254364 
L 775.000151 312.15501 
L 775.000151 312.15501 
" clip-path="url(#p7b3578d692)" style="fill: none; stroke: #8172b3; stroke-opacity: 0.9; stroke-width: 3; stroke-linecap: round"/>
   </g>
   <g id="line2d_60">
    <path d="M 514.859911 259.133727 
L 520.569436 263.626217 
L 526.635807 268.20459 
L 532.702177 272.509339 
L 538.768548 276.546604 
L 544.834918 280.32168 
L 550.901289 283.839283 
L 556.967659 287.104805 
L 563.034029 290.123768 
L 569.1004 292.900693 
L 575.16677 295.440111 
L 581.233141 297.746594 
L 587.299511 299.826258 
L 593.722727 301.790166 
L 600.145943 303.514807 
L 606.569159 305.006005 
L 612.992375 306.269451 
L 619.41559 307.310208 
L 625.838806 308.133417 
L 632.618867 308.772236 
L 639.398928 309.182095 
L 646.89268 309.406789 
L 655.100122 309.433864 
L 664.378101 309.23237 
L 676.153996 308.751778 
L 690.784655 307.92423 
L 705.772158 306.85166 
L 728.967104 305.132319 
L 751.805205 303.779007 
L 775.000151 302.575788 
L 775.000151 302.575788 
" clip-path="url(#p7b3578d692)" style="fill: none; stroke: #937860; stroke-opacity: 0.9; stroke-width: 3; stroke-linecap: round"/>
   </g>
   <g id="patch_15">
    <path d="M 501.852899 373.284 
L 501.852899 253.698 
" style="fill: none; stroke: #ffffff; stroke-width: 1.25; stroke-linejoin: miter; stroke-linecap: square"/>
   </g>
   <g id="patch_16">
    <path d="M 501.852899 373.284 
L 788.007162 373.284 
" style="fill: none; stroke: #ffffff; stroke-width: 1.25; stroke-linejoin: miter; stroke-linecap: square"/>
   </g>
   <g id="text_21">
    <!-- 0.95~90 -->
    <g style="fill: #262626" transform="translate(590.283437 247.698) scale(0.252 -0.252)">
     <use xlink:href="#DejaVuSans-30"/>
     <use xlink:href="#DejaVuSans-2e" x="63.623047"/>
     <use xlink:href="#DejaVuSans-39" x="95.410156"/>
     <use xlink:href="#DejaVuSans-35" x="159.033203"/>
     <use xlink:href="#DejaVuSans-7e" x="222.65625"/>
     <use xlink:href="#DejaVuSans-39" x="306.445312"/>
     <use xlink:href="#DejaVuSans-30" x="370.068359"/>
    </g>
   </g>
  </g>
  <g id="axes_6">
   <g id="patch_17">
    <path d="M 814.45531 373.284 
L 1100.609573 373.284 
L 1100.609573 253.698 
L 814.45531 253.698 
z
" style="fill: #eaeaf2"/>
   </g>
   <g id="matplotlib.axis_11">
    <g id="xtick_21">
     <g id="line2d_61">
      <path d="M 827.462322 373.284 
L 827.462322 253.698 
" clip-path="url(#p2c14eeea2d)" style="fill: none; stroke: #ffffff; stroke-linecap: round"/>
     </g>
     <g id="text_22">
      <!-- 0 -->
      <g style="fill: #262626" transform="translate(820.113635 400.336391) scale(0.231 -0.231)">
       <use xlink:href="#DejaVuSans-30"/>
      </g>
     </g>
    </g>
    <g id="xtick_22">
     <g id="line2d_62">
      <path d="M 916.673652 373.284 
L 916.673652 253.698 
" clip-path="url(#p2c14eeea2d)" style="fill: none; stroke: #ffffff; stroke-linecap: round"/>
     </g>
     <g id="text_23">
      <!-- 250 -->
      <g style="fill: #262626" transform="translate(894.62759 400.336391) scale(0.231 -0.231)">
       <use xlink:href="#DejaVuSans-32"/>
       <use xlink:href="#DejaVuSans-35" x="63.623047"/>
       <use xlink:href="#DejaVuSans-30" x="127.246094"/>
      </g>
     </g>
    </g>
    <g id="xtick_23">
     <g id="line2d_63">
      <path d="M 1005.884983 373.284 
L 1005.884983 253.698 
" clip-path="url(#p2c14eeea2d)" style="fill: none; stroke: #ffffff; stroke-linecap: round"/>
     </g>
     <g id="text_24">
      <!-- 500 -->
      <g style="fill: #262626" transform="translate(983.83892 400.336391) scale(0.231 -0.231)">
       <use xlink:href="#DejaVuSans-35"/>
       <use xlink:href="#DejaVuSans-30" x="63.623047"/>
       <use xlink:href="#DejaVuSans-30" x="127.246094"/>
      </g>
     </g>
    </g>
    <g id="xtick_24">
     <g id="line2d_64">
      <path d="M 1095.096313 373.284 
L 1095.096313 253.698 
" clip-path="url(#p2c14eeea2d)" style="fill: none; stroke: #ffffff; stroke-linecap: round"/>
     </g>
     <g id="text_25">
      <!-- 750 -->
      <g style="fill: #262626" transform="translate(1073.050251 400.336391) scale(0.231 -0.231)">
       <use xlink:href="#DejaVuSans-37"/>
       <use xlink:href="#DejaVuSans-35" x="63.623047"/>
       <use xlink:href="#DejaVuSans-30" x="127.246094"/>
      </g>
     </g>
    </g>
    <g id="text_26">
     <!-- step -->
     <g style="fill: #262626" transform="translate(930.277067 428.288531) scale(0.252 -0.252)">
      <use xlink:href="#DejaVuSans-73"/>
      <use xlink:href="#DejaVuSans-74" x="52.099609"/>
      <use xlink:href="#DejaVuSans-65" x="91.308594"/>
      <use xlink:href="#DejaVuSans-70" x="152.832031"/>
     </g>
    </g>
   </g>
   <g id="matplotlib.axis_12">
    <g id="ytick_11">
     <g id="line2d_65">
      <path d="M 814.45531 322.837103 
L 1100.609573 322.837103 
" clip-path="url(#p2c14eeea2d)" style="fill: none; stroke: #ffffff; stroke-linecap: round"/>
     </g>
    </g>
    <g id="ytick_12">
     <g id="line2d_66">
      <path d="M 814.45531 259.133727 
L 1100.609573 259.133727 
" clip-path="url(#p2c14eeea2d)" style="fill: none; stroke: #ffffff; stroke-linecap: round"/>
     </g>
    </g>
   </g>
   <g id="PolyCollection_31"/>
   <g id="PolyCollection_32"/>
   <g id="PolyCollection_33"/>
   <g id="PolyCollection_34"/>
   <g id="PolyCollection_35"/>
   <g id="PolyCollection_36"/>
   <g id="line2d_67">
    <path d="M 827.462322 259.133727 
L 831.030775 262.812352 
L 839.238218 271.15724 
L 846.018279 277.72477 
L 852.79834 283.992387 
L 859.578401 289.96065 
L 866.358462 295.630282 
L 873.138523 301.002234 
L 879.918584 306.078307 
L 886.3418 310.615759 
L 892.765016 314.890353 
L 899.188232 318.903744 
L 905.611447 322.658042 
L 912.034663 326.154879 
L 918.457879 329.395932 
L 924.881095 332.382933 
L 931.304311 335.117768 
L 937.727526 337.607392 
L 944.150742 339.857341 
L 950.573958 341.870909 
L 956.997174 343.652747 
L 963.42039 345.204617 
L 969.843605 346.52825 
L 976.266821 347.625405 
L 982.690037 348.497871 
L 989.113253 349.147367 
L 995.536468 349.575524 
L 1001.959684 349.786404 
L 1009.810281 349.814975 
L 1017.660878 349.62481 
L 1031.577846 349.016154 
L 1045.851659 348.51237 
L 1071.544522 347.860256 
L 1087.602561 347.528168 
L 1087.602561 347.528168 
" clip-path="url(#p2c14eeea2d)" style="fill: none; stroke: #4c72b0; stroke-opacity: 0.9; stroke-width: 3; stroke-linecap: round"/>
   </g>
   <g id="line2d_68">
    <path d="M 827.462322 259.133727 
L 831.387621 261.371979 
L 841.022444 266.776937 
L 849.586732 271.307966 
L 858.15102 275.579983 
L 866.358462 279.431467 
L 874.565904 283.046294 
L 882.773347 286.425409 
L 890.980789 289.569916 
L 899.188232 292.481293 
L 907.395674 295.161721 
L 915.603116 297.612865 
L 923.810559 299.836356 
L 932.018001 301.833905 
L 940.225444 303.607977 
L 948.432886 305.160942 
L 956.997174 306.550738 
L 965.561461 307.716977 
L 974.125749 308.664205 
L 982.690037 309.394382 
L 991.254325 309.909384 
L 1000.175458 310.218956 
L 1010.167127 310.320628 
L 1020.872486 310.202844 
L 1080.465655 309.113946 
L 1087.602561 309.029304 
L 1087.602561 309.029304 
" clip-path="url(#p2c14eeea2d)" style="fill: none; stroke: #dd8452; stroke-opacity: 0.9; stroke-width: 3; stroke-linecap: round"/>
   </g>
   <g id="line2d_69">
    <path d="M 827.462322 259.133727 
L 829.960239 261.879301 
L 838.881372 271.645984 
L 845.661433 278.709567 
L 852.441495 285.450533 
L 859.221556 291.876621 
L 866.358462 298.330217 
L 874.209059 305.120945 
L 882.059656 311.627589 
L 889.910253 317.837203 
L 897.404005 323.490359 
L 904.540911 328.592882 
L 911.320973 333.160564 
L 917.744188 337.229872 
L 924.52425 341.259073 
L 931.304311 345.023158 
L 937.727526 348.339061 
L 944.150742 351.405893 
L 950.573958 354.218746 
L 956.640328 356.63899 
L 962.706699 358.826461 
L 968.773069 360.776083 
L 974.83944 362.485829 
L 980.548965 363.873114 
L 986.615335 365.112392 
L 992.324861 366.058211 
L 998.034386 366.788167 
L 1004.100756 367.334739 
L 1010.523972 367.68417 
L 1017.660878 367.83762 
L 1025.511476 367.7965 
L 1035.85999 367.48195 
L 1074.399285 366.085563 
L 1087.602561 365.794751 
L 1087.602561 365.794751 
" clip-path="url(#p2c14eeea2d)" style="fill: none; stroke: #55a868; stroke-opacity: 0.9; stroke-width: 3; stroke-linecap: round"/>
   </g>
   <g id="line2d_70">
    <path d="M 827.462322 259.133727 
L 829.960239 261.293562 
L 839.238218 269.277328 
L 846.375124 275.107582 
L 853.512031 280.657586 
L 861.362628 286.468536 
L 869.213225 291.99476 
L 877.777512 297.740367 
L 886.3418 303.214917 
L 894.192397 307.974332 
L 901.686149 312.263297 
L 908.823055 316.100325 
L 915.959962 319.683877 
L 923.096868 323.027125 
L 930.59062 326.286611 
L 937.727526 329.150602 
L 944.864433 331.777147 
L 952.001339 334.161941 
L 958.7814 336.197511 
L 965.561461 338.003055 
L 972.341523 339.573361 
L 978.764738 340.83967 
L 985.187954 341.886342 
L 991.61117 342.710883 
L 998.034386 343.310525 
L 1004.814447 343.706747 
L 1011.951353 343.891367 
L 1020.158796 343.871493 
L 1028.723083 343.626774 
L 1057.627554 342.595085 
L 1077.254047 342.153343 
L 1087.602561 341.972203 
L 1087.602561 341.972203 
" clip-path="url(#p2c14eeea2d)" style="fill: none; stroke: #c44e52; stroke-opacity: 0.9; stroke-width: 3; stroke-linecap: round"/>
   </g>
   <g id="line2d_71">
    <path d="M 827.462322 259.133727 
L 830.67393 262.326256 
L 839.238218 270.731926 
L 846.375124 277.392993 
L 853.155185 283.425646 
L 859.935246 289.171329 
L 866.715307 294.630782 
L 873.495369 299.804817 
L 880.27543 304.694243 
L 887.055491 309.29994 
L 893.478707 313.402378 
L 899.901922 317.251893 
L 906.325138 320.849518 
L 912.748354 324.196419 
L 919.17157 327.293886 
L 925.594785 330.143282 
L 932.018001 332.745995 
L 938.441217 335.103645 
L 944.864433 337.218734 
L 951.287649 339.093086 
L 957.710864 340.7286 
L 964.13408 342.127183 
L 970.557296 343.292113 
L 976.980512 344.229501 
L 983.403728 344.941811 
L 989.826943 345.430888 
L 996.250159 345.698779 
L 1003.03022 345.753262 
L 1010.880817 345.584137 
L 1019.80195 345.158448 
L 1029.793619 344.448393 
L 1043.353742 343.529344 
L 1057.270709 342.856511 
L 1075.469821 342.227677 
L 1087.602561 341.889327 
L 1087.602561 341.889327 
" clip-path="url(#p2c14eeea2d)" style="fill: none; stroke: #8172b3; stroke-opacity: 0.9; stroke-width: 3; stroke-linecap: round"/>
   </g>
   <g id="line2d_72">
    <path d="M 827.462322 259.133727 
L 831.744466 262.532631 
L 839.951908 268.924711 
L 847.44566 274.470173 
L 854.939412 279.738025 
L 862.433164 284.729474 
L 869.926915 289.445552 
L 877.063822 293.681971 
L 884.200728 297.670457 
L 891.337635 301.412002 
L 898.474541 304.907727 
L 905.611447 308.158723 
L 912.748354 311.166188 
L 919.88526 313.931483 
L 927.022167 316.456625 
L 934.159073 318.743412 
L 941.29598 320.793458 
L 948.432886 322.608451 
L 955.569792 324.190132 
L 962.706699 325.540259 
L 969.843605 326.661941 
L 976.980512 327.560014 
L 984.117418 328.236891 
L 991.254325 328.695052 
L 998.391231 328.936734 
L 1006.241828 328.974147 
L 1015.519807 328.792676 
L 1025.511476 328.366266 
L 1046.922195 327.328479 
L 1065.834997 326.728373 
L 1087.602561 326.181539 
L 1087.602561 326.181539 
" clip-path="url(#p2c14eeea2d)" style="fill: none; stroke: #937860; stroke-opacity: 0.9; stroke-width: 3; stroke-linecap: round"/>
   </g>
   <g id="patch_18">
    <path d="M 814.45531 373.284 
L 814.45531 253.698 
" style="fill: none; stroke: #ffffff; stroke-width: 1.25; stroke-linejoin: miter; stroke-linecap: square"/>
   </g>
   <g id="patch_19">
    <path d="M 814.45531 373.284 
L 1100.609573 373.284 
" style="fill: none; stroke: #ffffff; stroke-width: 1.25; stroke-linejoin: miter; stroke-linecap: square"/>
   </g>
   <g id="text_27">
    <!-- 0.95~365 -->
    <g style="fill: #262626" transform="translate(894.869098 247.698) scale(0.252 -0.252)">
     <use xlink:href="#DejaVuSans-30"/>
     <use xlink:href="#DejaVuSans-2e" x="63.623047"/>
     <use xlink:href="#DejaVuSans-39" x="95.410156"/>
     <use xlink:href="#DejaVuSans-35" x="159.033203"/>
     <use xlink:href="#DejaVuSans-7e" x="222.65625"/>
     <use xlink:href="#DejaVuSans-33" x="306.445312"/>
     <use xlink:href="#DejaVuSans-36" x="370.068359"/>
     <use xlink:href="#DejaVuSans-35" x="433.691406"/>
    </g>
   </g>
  </g>
  <g id="text_28">
   <!-- Production change from pre-shock level -->
   <g style="fill: #262626" transform="translate(280.766836 30.177675) scale(0.3024 -0.3024)">
    <defs>
     <path id="DejaVuSans-50" d="M 1259 4147 
L 1259 2394 
L 2053 2394 
Q 2494 2394 2734 2622 
Q 2975 2850 2975 3272 
Q 2975 3691 2734 3919 
Q 2494 4147 2053 4147 
L 1259 4147 
z
M 628 4666 
L 2053 4666 
Q 2838 4666 3239 4311 
Q 3641 3956 3641 3272 
Q 3641 2581 3239 2228 
Q 2838 1875 2053 1875 
L 1259 1875 
L 1259 0 
L 628 0 
L 628 4666 
z
" transform="scale(0.015625)"/>
     <path id="DejaVuSans-72" d="M 2631 2963 
Q 2534 3019 2420 3045 
Q 2306 3072 2169 3072 
Q 1681 3072 1420 2755 
Q 1159 2438 1159 1844 
L 1159 0 
L 581 0 
L 581 3500 
L 1159 3500 
L 1159 2956 
Q 1341 3275 1631 3429 
Q 1922 3584 2338 3584 
Q 2397 3584 2469 3576 
Q 2541 3569 2628 3553 
L 2631 2963 
z
" transform="scale(0.015625)"/>
     <path id="DejaVuSans-6f" d="M 1959 3097 
Q 1497 3097 1228 2736 
Q 959 2375 959 1747 
Q 959 1119 1226 758 
Q 1494 397 1959 397 
Q 2419 397 2687 759 
Q 2956 1122 2956 1747 
Q 2956 2369 2687 2733 
Q 2419 3097 1959 3097 
z
M 1959 3584 
Q 2709 3584 3137 3096 
Q 3566 2609 3566 1747 
Q 3566 888 3137 398 
Q 2709 -91 1959 -91 
Q 1206 -91 779 398 
Q 353 888 353 1747 
Q 353 2609 779 3096 
Q 1206 3584 1959 3584 
z
" transform="scale(0.015625)"/>
     <path id="DejaVuSans-64" d="M 2906 2969 
L 2906 4863 
L 3481 4863 
L 3481 0 
L 2906 0 
L 2906 525 
Q 2725 213 2448 61 
Q 2172 -91 1784 -91 
Q 1150 -91 751 415 
Q 353 922 353 1747 
Q 353 2572 751 3078 
Q 1150 3584 1784 3584 
Q 2172 3584 2448 3432 
Q 2725 3281 2906 2969 
z
M 947 1747 
Q 947 1113 1208 752 
Q 1469 391 1925 391 
Q 2381 391 2643 752 
Q 2906 1113 2906 1747 
Q 2906 2381 2643 2742 
Q 2381 3103 1925 3103 
Q 1469 3103 1208 2742 
Q 947 2381 947 1747 
z
" transform="scale(0.015625)"/>
     <path id="DejaVuSans-75" d="M 544 1381 
L 544 3500 
L 1119 3500 
L 1119 1403 
Q 1119 906 1312 657 
Q 1506 409 1894 409 
Q 2359 409 2629 706 
Q 2900 1003 2900 1516 
L 2900 3500 
L 3475 3500 
L 3475 0 
L 2900 0 
L 2900 538 
Q 2691 219 2414 64 
Q 2138 -91 1772 -91 
Q 1169 -91 856 284 
Q 544 659 544 1381 
z
M 1991 3584 
L 1991 3584 
z
" transform="scale(0.015625)"/>
     <path id="DejaVuSans-69" d="M 603 3500 
L 1178 3500 
L 1178 0 
L 603 0 
L 603 3500 
z
M 603 4863 
L 1178 4863 
L 1178 4134 
L 603 4134 
L 603 4863 
z
" transform="scale(0.015625)"/>
     <path id="DejaVuSans-66" d="M 2375 4863 
L 2375 4384 
L 1825 4384 
Q 1516 4384 1395 4259 
Q 1275 4134 1275 3809 
L 1275 3500 
L 2222 3500 
L 2222 3053 
L 1275 3053 
L 1275 0 
L 697 0 
L 697 3053 
L 147 3053 
L 147 3500 
L 697 3500 
L 697 3744 
Q 697 4328 969 4595 
Q 1241 4863 1831 4863 
L 2375 4863 
z
" transform="scale(0.015625)"/>
     <path id="DejaVuSans-6d" d="M 3328 2828 
Q 3544 3216 3844 3400 
Q 4144 3584 4550 3584 
Q 5097 3584 5394 3201 
Q 5691 2819 5691 2113 
L 5691 0 
L 5113 0 
L 5113 2094 
Q 5113 2597 4934 2840 
Q 4756 3084 4391 3084 
Q 3944 3084 3684 2787 
Q 3425 2491 3425 1978 
L 3425 0 
L 2847 0 
L 2847 2094 
Q 2847 2600 2669 2842 
Q 2491 3084 2119 3084 
Q 1678 3084 1418 2786 
Q 1159 2488 1159 1978 
L 1159 0 
L 581 0 
L 581 3500 
L 1159 3500 
L 1159 2956 
Q 1356 3278 1631 3431 
Q 1906 3584 2284 3584 
Q 2666 3584 2933 3390 
Q 3200 3197 3328 2828 
z
" transform="scale(0.015625)"/>
     <path id="DejaVuSans-2d" d="M 313 2009 
L 1997 2009 
L 1997 1497 
L 313 1497 
L 313 2009 
z
" transform="scale(0.015625)"/>
     <path id="DejaVuSans-6b" d="M 581 4863 
L 1159 4863 
L 1159 1991 
L 2875 3500 
L 3609 3500 
L 1753 1863 
L 3688 0 
L 2938 0 
L 1159 1709 
L 1159 0 
L 581 0 
L 581 4863 
z
" transform="scale(0.015625)"/>
     <path id="DejaVuSans-6c" d="M 603 4863 
L 1178 4863 
L 1178 0 
L 603 0 
L 603 4863 
z
" transform="scale(0.015625)"/>
     <path id="DejaVuSans-76" d="M 191 3500 
L 800 3500 
L 1894 563 
L 2988 3500 
L 3597 3500 
L 2284 0 
L 1503 0 
L 191 3500 
z
" transform="scale(0.015625)"/>
    </defs>
    <use xlink:href="#DejaVuSans-50"/>
    <use xlink:href="#DejaVuSans-72" x="58.552734"/>
    <use xlink:href="#DejaVuSans-6f" x="97.416016"/>
    <use xlink:href="#DejaVuSans-64" x="158.597656"/>
    <use xlink:href="#DejaVuSans-75" x="222.074219"/>
    <use xlink:href="#DejaVuSans-63" x="285.453125"/>
    <use xlink:href="#DejaVuSans-74" x="340.433594"/>
    <use xlink:href="#DejaVuSans-69" x="379.642578"/>
    <use xlink:href="#DejaVuSans-6f" x="407.425781"/>
    <use xlink:href="#DejaVuSans-6e" x="468.607422"/>
    <use xlink:href="#DejaVuSans-20" x="531.986328"/>
    <use xlink:href="#DejaVuSans-63" x="563.773438"/>
    <use xlink:href="#DejaVuSans-68" x="618.753906"/>
    <use xlink:href="#DejaVuSans-61" x="682.132812"/>
    <use xlink:href="#DejaVuSans-6e" x="743.412109"/>
    <use xlink:href="#DejaVuSans-67" x="806.791016"/>
    <use xlink:href="#DejaVuSans-65" x="870.267578"/>
    <use xlink:href="#DejaVuSans-20" x="931.791016"/>
    <use xlink:href="#DejaVuSans-66" x="963.578125"/>
    <use xlink:href="#DejaVuSans-72" x="998.783203"/>
    <use xlink:href="#DejaVuSans-6f" x="1037.646484"/>
    <use xlink:href="#DejaVuSans-6d" x="1098.828125"/>
    <use xlink:href="#DejaVuSans-20" x="1196.240234"/>
    <use xlink:href="#DejaVuSans-70" x="1228.027344"/>
    <use xlink:href="#DejaVuSans-72" x="1291.503906"/>
    <use xlink:href="#DejaVuSans-65" x="1330.367188"/>
    <use xlink:href="#DejaVuSans-2d" x="1391.890625"/>
    <use xlink:href="#DejaVuSans-73" x="1427.974609"/>
    <use xlink:href="#DejaVuSans-68" x="1480.074219"/>
    <use xlink:href="#DejaVuSans-6f" x="1543.453125"/>
    <use xlink:href="#DejaVuSans-63" x="1604.634766"/>
    <use xlink:href="#DejaVuSans-6b" x="1659.615234"/>
    <use xlink:href="#DejaVuSans-20" x="1717.525391"/>
    <use xlink:href="#DejaVuSans-6c" x="1749.3125"/>
    <use xlink:href="#DejaVuSans-65" x="1777.095703"/>
    <use xlink:href="#DejaVuSans-76" x="1838.619141"/>
    <use xlink:href="#DejaVuSans-65" x="1897.798828"/>
    <use xlink:href="#DejaVuSans-6c" x="1959.322266"/>
   </g>
  </g>
  <g id="legend_1">
   <g id="patch_20">
    <path d="M 11.82 584.31675 
L 1292.617547 584.31675 
Q 1297.237547 584.31675 1297.237547 579.69675 
L 1297.237547 476.97 
Q 1297.237547 472.35 1292.617547 472.35 
L 11.82 472.35 
Q 7.2 472.35 7.2 476.97 
L 7.2 579.69675 
Q 7.2 584.31675 11.82 584.31675 
z
" style="fill: #eaeaf2; opacity: 0.8; stroke: #cccccc; stroke-linejoin: miter"/>
   </g>
   <g id="text_29">
    <!-- Experiences -->
    <g style="fill: #262626" transform="translate(575.384367 500.738062) scale(0.252 -0.252)">
     <defs>
      <path id="DejaVuSans-45" d="M 628 4666 
L 3578 4666 
L 3578 4134 
L 1259 4134 
L 1259 2753 
L 3481 2753 
L 3481 2222 
L 1259 2222 
L 1259 531 
L 3634 531 
L 3634 0 
L 628 0 
L 628 4666 
z
" transform="scale(0.015625)"/>
      <path id="DejaVuSans-78" d="M 3513 3500 
L 2247 1797 
L 3578 0 
L 2900 0 
L 1881 1375 
L 863 0 
L 184 0 
L 1544 1831 
L 300 3500 
L 978 3500 
L 1906 2253 
L 2834 3500 
L 3513 3500 
z
" transform="scale(0.015625)"/>
     </defs>
     <use xlink:href="#DejaVuSans-45"/>
     <use xlink:href="#DejaVuSans-78" x="63.183594"/>
     <use xlink:href="#DejaVuSans-70" x="122.363281"/>
     <use xlink:href="#DejaVuSans-65" x="185.839844"/>
     <use xlink:href="#DejaVuSans-72" x="247.363281"/>
     <use xlink:href="#DejaVuSans-69" x="288.476562"/>
     <use xlink:href="#DejaVuSans-65" x="316.259766"/>
     <use xlink:href="#DejaVuSans-6e" x="377.783203"/>
     <use xlink:href="#DejaVuSans-63" x="441.162109"/>
     <use xlink:href="#DejaVuSans-65" x="496.142578"/>
     <use xlink:href="#DejaVuSans-73" x="557.666016"/>
    </g>
   </g>
   <g id="line2d_73">
    <path d="M 16.44 526.996266 
L 39.54 526.996266 
L 62.64 526.996266 
" style="fill: none; stroke: #4c72b0; stroke-opacity: 0.9; stroke-width: 3; stroke-linecap: round"/>
   </g>
   <g id="text_30">
    <!-- eora26_full_2000 -->
    <g style="fill: #262626" transform="translate(81.12 535.081266) scale(0.231 -0.231)">
     <defs>
      <path id="DejaVuSans-5f" d="M 3263 -1063 
L 3263 -1509 
L -63 -1509 
L -63 -1063 
L 3263 -1063 
z
" transform="scale(0.015625)"/>
     </defs>
     <use xlink:href="#DejaVuSans-65"/>
     <use xlink:href="#DejaVuSans-6f" x="61.523438"/>
     <use xlink:href="#DejaVuSans-72" x="122.705078"/>
     <use xlink:href="#DejaVuSans-61" x="163.818359"/>
     <use xlink:href="#DejaVuSans-32" x="225.097656"/>
     <use xlink:href="#DejaVuSans-36" x="288.720703"/>
     <use xlink:href="#DejaVuSans-5f" x="352.34375"/>
     <use xlink:href="#DejaVuSans-66" x="402.34375"/>
     <use xlink:href="#DejaVuSans-75" x="437.548828"/>
     <use xlink:href="#DejaVuSans-6c" x="500.927734"/>
     <use xlink:href="#DejaVuSans-6c" x="528.710938"/>
     <use xlink:href="#DejaVuSans-5f" x="556.494141"/>
     <use xlink:href="#DejaVuSans-32" x="606.494141"/>
     <use xlink:href="#DejaVuSans-30" x="670.117188"/>
     <use xlink:href="#DejaVuSans-30" x="733.740234"/>
     <use xlink:href="#DejaVuSans-30" x="797.363281"/>
    </g>
   </g>
   <g id="line2d_74">
    <path d="M 16.44 561.545203 
L 39.54 561.545203 
L 62.64 561.545203 
" style="fill: none; stroke: #dd8452; stroke-opacity: 0.9; stroke-width: 3; stroke-linecap: round"/>
   </g>
   <g id="text_31">
    <!-- eora26_full_2010 -->
    <g style="fill: #262626" transform="translate(81.12 569.630203) scale(0.231 -0.231)">
     <defs>
      <path id="DejaVuSans-31" d="M 794 531 
L 1825 531 
L 1825 4091 
L 703 3866 
L 703 4441 
L 1819 4666 
L 2450 4666 
L 2450 531 
L 3481 531 
L 3481 0 
L 794 0 
L 794 531 
z
" transform="scale(0.015625)"/>
     </defs>
     <use xlink:href="#DejaVuSans-65"/>
     <use xlink:href="#DejaVuSans-6f" x="61.523438"/>
     <use xlink:href="#DejaVuSans-72" x="122.705078"/>
     <use xlink:href="#DejaVuSans-61" x="163.818359"/>
     <use xlink:href="#DejaVuSans-32" x="225.097656"/>
     <use xlink:href="#DejaVuSans-36" x="288.720703"/>
     <use xlink:href="#DejaVuSans-5f" x="352.34375"/>
     <use xlink:href="#DejaVuSans-66" x="402.34375"/>
     <use xlink:href="#DejaVuSans-75" x="437.548828"/>
     <use xlink:href="#DejaVuSans-6c" x="500.927734"/>
     <use xlink:href="#DejaVuSans-6c" x="528.710938"/>
     <use xlink:href="#DejaVuSans-5f" x="556.494141"/>
     <use xlink:href="#DejaVuSans-32" x="606.494141"/>
     <use xlink:href="#DejaVuSans-30" x="670.117188"/>
     <use xlink:href="#DejaVuSans-31" x="733.740234"/>
     <use xlink:href="#DejaVuSans-30" x="797.363281"/>
    </g>
   </g>
   <g id="line2d_75">
    <path d="M 326.211 526.996266 
L 349.311 526.996266 
L 372.411 526.996266 
" style="fill: none; stroke: #55a868; stroke-opacity: 0.9; stroke-width: 3; stroke-linecap: round"/>
   </g>
   <g id="text_32">
    <!-- euregio_full_2000 -->
    <g style="fill: #262626" transform="translate(390.891 535.081266) scale(0.231 -0.231)">
     <use xlink:href="#DejaVuSans-65"/>
     <use xlink:href="#DejaVuSans-75" x="61.523438"/>
     <use xlink:href="#DejaVuSans-72" x="124.902344"/>
     <use xlink:href="#DejaVuSans-65" x="163.765625"/>
     <use xlink:href="#DejaVuSans-67" x="225.289062"/>
     <use xlink:href="#DejaVuSans-69" x="288.765625"/>
     <use xlink:href="#DejaVuSans-6f" x="316.548828"/>
     <use xlink:href="#DejaVuSans-5f" x="377.730469"/>
     <use xlink:href="#DejaVuSans-66" x="427.730469"/>
     <use xlink:href="#DejaVuSans-75" x="462.935547"/>
     <use xlink:href="#DejaVuSans-6c" x="526.314453"/>
     <use xlink:href="#DejaVuSans-6c" x="554.097656"/>
     <use xlink:href="#DejaVuSans-5f" x="581.880859"/>
     <use xlink:href="#DejaVuSans-32" x="631.880859"/>
     <use xlink:href="#DejaVuSans-30" x="695.503906"/>
     <use xlink:href="#DejaVuSans-30" x="759.126953"/>
     <use xlink:href="#DejaVuSans-30" x="822.75"/>
    </g>
   </g>
   <g id="line2d_76">
    <path d="M 326.211 561.545203 
L 349.311 561.545203 
L 372.411 561.545203 
" style="fill: none; stroke: #c44e52; stroke-opacity: 0.9; stroke-width: 3; stroke-linecap: round"/>
   </g>
   <g id="text_33">
    <!-- euregio_full_2010 -->
    <g style="fill: #262626" transform="translate(390.891 569.630203) scale(0.231 -0.231)">
     <use xlink:href="#DejaVuSans-65"/>
     <use xlink:href="#DejaVuSans-75" x="61.523438"/>
     <use xlink:href="#DejaVuSans-72" x="124.902344"/>
     <use xlink:href="#DejaVuSans-65" x="163.765625"/>
     <use xlink:href="#DejaVuSans-67" x="225.289062"/>
     <use xlink:href="#DejaVuSans-69" x="288.765625"/>
     <use xlink:href="#DejaVuSans-6f" x="316.548828"/>
     <use xlink:href="#DejaVuSans-5f" x="377.730469"/>
     <use xlink:href="#DejaVuSans-66" x="427.730469"/>
     <use xlink:href="#DejaVuSans-75" x="462.935547"/>
     <use xlink:href="#DejaVuSans-6c" x="526.314453"/>
     <use xlink:href="#DejaVuSans-6c" x="554.097656"/>
     <use xlink:href="#DejaVuSans-5f" x="581.880859"/>
     <use xlink:href="#DejaVuSans-32" x="631.880859"/>
     <use xlink:href="#DejaVuSans-30" x="695.503906"/>
     <use xlink:href="#DejaVuSans-31" x="759.126953"/>
     <use xlink:href="#DejaVuSans-30" x="822.75"/>
    </g>
   </g>
   <g id="line2d_77">
    <path d="M 641.847234 526.996266 
L 664.947234 526.996266 
L 688.047234 526.996266 
" style="fill: none; stroke: #8172b3; stroke-opacity: 0.9; stroke-width: 3; stroke-linecap: round"/>
   </g>
   <g id="text_34">
    <!-- exiobase3_full_2000 -->
    <g style="fill: #262626" transform="translate(706.527234 535.081266) scale(0.231 -0.231)">
     <defs>
      <path id="DejaVuSans-62" d="M 3116 1747 
Q 3116 2381 2855 2742 
Q 2594 3103 2138 3103 
Q 1681 3103 1420 2742 
Q 1159 2381 1159 1747 
Q 1159 1113 1420 752 
Q 1681 391 2138 391 
Q 2594 391 2855 752 
Q 3116 1113 3116 1747 
z
M 1159 2969 
Q 1341 3281 1617 3432 
Q 1894 3584 2278 3584 
Q 2916 3584 3314 3078 
Q 3713 2572 3713 1747 
Q 3713 922 3314 415 
Q 2916 -91 2278 -91 
Q 1894 -91 1617 61 
Q 1341 213 1159 525 
L 1159 0 
L 581 0 
L 581 4863 
L 1159 4863 
L 1159 2969 
z
" transform="scale(0.015625)"/>
     </defs>
     <use xlink:href="#DejaVuSans-65"/>
     <use xlink:href="#DejaVuSans-78" x="59.773438"/>
     <use xlink:href="#DejaVuSans-69" x="118.953125"/>
     <use xlink:href="#DejaVuSans-6f" x="146.736328"/>
     <use xlink:href="#DejaVuSans-62" x="207.917969"/>
     <use xlink:href="#DejaVuSans-61" x="271.394531"/>
     <use xlink:href="#DejaVuSans-73" x="332.673828"/>
     <use xlink:href="#DejaVuSans-65" x="384.773438"/>
     <use xlink:href="#DejaVuSans-33" x="446.296875"/>
     <use xlink:href="#DejaVuSans-5f" x="509.919922"/>
     <use xlink:href="#DejaVuSans-66" x="559.919922"/>
     <use xlink:href="#DejaVuSans-75" x="595.125"/>
     <use xlink:href="#DejaVuSans-6c" x="658.503906"/>
     <use xlink:href="#DejaVuSans-6c" x="686.287109"/>
     <use xlink:href="#DejaVuSans-5f" x="714.070312"/>
     <use xlink:href="#DejaVuSans-32" x="764.070312"/>
     <use xlink:href="#DejaVuSans-30" x="827.693359"/>
     <use xlink:href="#DejaVuSans-30" x="891.316406"/>
     <use xlink:href="#DejaVuSans-30" x="954.939453"/>
    </g>
   </g>
   <g id="line2d_78">
    <path d="M 988.022391 526.996266 
L 1011.122391 526.996266 
L 1034.222391 526.996266 
" style="fill: none; stroke: #937860; stroke-opacity: 0.9; stroke-width: 3; stroke-linecap: round"/>
   </g>
   <g id="text_35">
    <!-- exiobase3_full_2010 -->
    <g style="fill: #262626" transform="translate(1052.702391 535.081266) scale(0.231 -0.231)">
     <use xlink:href="#DejaVuSans-65"/>
     <use xlink:href="#DejaVuSans-78" x="59.773438"/>
     <use xlink:href="#DejaVuSans-69" x="118.953125"/>
     <use xlink:href="#DejaVuSans-6f" x="146.736328"/>
     <use xlink:href="#DejaVuSans-62" x="207.917969"/>
     <use xlink:href="#DejaVuSans-61" x="271.394531"/>
     <use xlink:href="#DejaVuSans-73" x="332.673828"/>
     <use xlink:href="#DejaVuSans-65" x="384.773438"/>
     <use xlink:href="#DejaVuSans-33" x="446.296875"/>
     <use xlink:href="#DejaVuSans-5f" x="509.919922"/>
     <use xlink:href="#DejaVuSans-66" x="559.919922"/>
     <use xlink:href="#DejaVuSans-75" x="595.125"/>
     <use xlink:href="#DejaVuSans-6c" x="658.503906"/>
     <use xlink:href="#DejaVuSans-6c" x="686.287109"/>
     <use xlink:href="#DejaVuSans-5f" x="714.070312"/>
     <use xlink:href="#DejaVuSans-32" x="764.070312"/>
     <use xlink:href="#DejaVuSans-30" x="827.693359"/>
     <use xlink:href="#DejaVuSans-31" x="891.316406"/>
     <use xlink:href="#DejaVuSans-30" x="954.939453"/>
    </g>
   </g>
  </g>
 </g>
 <defs>
  <clipPath id="p241673c0a2">
   <rect x="189.250488" y="81.456" width="286.154263" height="119.586"/>
  </clipPath>
  <clipPath id="p861f75621c">
   <rect x="501.852899" y="81.456" width="286.154263" height="119.586"/>
  </clipPath>
  <clipPath id="pc865660c60">
   <rect x="814.45531" y="81.456" width="286.154263" height="119.586"/>
  </clipPath>
  <clipPath id="p799bf863cb">
   <rect x="189.250488" y="253.698" width="286.154263" height="119.586"/>
  </clipPath>
  <clipPath id="p7b3578d692">
   <rect x="501.852899" y="253.698" width="286.154263" height="119.586"/>
  </clipPath>
  <clipPath id="p2c14eeea2d">
   <rect x="814.45531" y="253.698" width="286.154263" height="119.586"/>
  </clipPath>
 </defs>
</svg>
