<?xml version="1.0" encoding="utf-8" standalone="no"?>
<!DOCTYPE svg PUBLIC "-//W3C//DTD SVG 1.1//EN"
  "http://www.w3.org/Graphics/SVG/1.1/DTD/svg11.dtd">
<svg xmlns:xlink="http://www.w3.org/1999/xlink" width="1304.437547pt" height="591.51675pt" viewBox="0 0 1304.437547 591.51675" xmlns="http://www.w3.org/2000/svg" version="1.1">
 <metadata>
  <rdf:RDF xmlns:dc="http://purl.org/dc/elements/1.1/" xmlns:cc="http://creativecommons.org/ns#" xmlns:rdf="http://www.w3.org/1999/02/22-rdf-syntax-ns#">
   <cc:Work>
    <dc:type rdf:resource="http://purl.org/dc/dcmitype/StillImage"/>
    <dc:date>2023-04-28T12:09:12.487160</dc:date>
    <dc:format>image/svg+xml</dc:format>
    <dc:creator>
     <cc:Agent>
      <dc:title>Matplotlib v3.7.1, https://matplotlib.org/</dc:title>
     </cc:Agent>
    </dc:creator>
   </cc:Work>
  </rdf:RDF>
 </metadata>
 <defs>
  <style type="text/css">*{stroke-linejoin: round; stroke-linecap: butt}</style>
 </defs>
 <g id="figure_1">
  <g id="patch_1">
   <path d="M 0 591.51675 
L 1304.437547 591.51675 
L 1304.437547 -0 
L 0 -0 
z
" style="fill: #ffffff"/>
  </g>
  <g id="axes_1">
   <g id="patch_2">
    <path d="M 170.340091 201.042 
L 462.70916 201.042 
L 462.70916 81.456 
L 170.340091 81.456 
z
" style="fill: #eaeaf2"/>
   </g>
   <g id="matplotlib.axis_1">
    <g id="xtick_1">
     <g id="line2d_1">
      <path d="M 183.629594 201.042 
L 183.629594 81.456 
" clip-path="url(#p4fba874683)" style="fill: none; stroke: #ffffff; stroke-linecap: round"/>
     </g>
    </g>
    <g id="xtick_2">
     <g id="line2d_2">
      <path d="M 274.77845 201.042 
L 274.77845 81.456 
" clip-path="url(#p4fba874683)" style="fill: none; stroke: #ffffff; stroke-linecap: round"/>
     </g>
    </g>
    <g id="xtick_3">
     <g id="line2d_3">
      <path d="M 365.927305 201.042 
L 365.927305 81.456 
" clip-path="url(#p4fba874683)" style="fill: none; stroke: #ffffff; stroke-linecap: round"/>
     </g>
    </g>
    <g id="xtick_4">
     <g id="line2d_4">
      <path d="M 457.076161 201.042 
L 457.076161 81.456 
" clip-path="url(#p4fba874683)" style="fill: none; stroke: #ffffff; stroke-linecap: round"/>
     </g>
    </g>
   </g>
   <g id="matplotlib.axis_2">
    <g id="ytick_1">
     <g id="line2d_5">
      <path d="M 170.340091 160.598443 
L 462.70916 160.598443 
" clip-path="url(#p4fba874683)" style="fill: none; stroke: #ffffff; stroke-linecap: round"/>
     </g>
     <g id="text_1">
      <!-- −0.2 -->
      <g style="fill: #262626" transform="translate(104.746794 169.374638) scale(0.231 -0.231)">
       <defs>
        <path id="DejaVuSans-2212" d="M 678 2272 
L 4684 2272 
L 4684 1741 
L 678 1741 
L 678 2272 
z
" transform="scale(0.015625)"/>
        <path id="DejaVuSans-30" d="M 2034 4250 
Q 1547 4250 1301 3770 
Q 1056 3291 1056 2328 
Q 1056 1369 1301 889 
Q 1547 409 2034 409 
Q 2525 409 2770 889 
Q 3016 1369 3016 2328 
Q 3016 3291 2770 3770 
Q 2525 4250 2034 4250 
z
M 2034 4750 
Q 2819 4750 3233 4129 
Q 3647 3509 3647 2328 
Q 3647 1150 3233 529 
Q 2819 -91 2034 -91 
Q 1250 -91 836 529 
Q 422 1150 422 2328 
Q 422 3509 836 4129 
Q 1250 4750 2034 4750 
z
" transform="scale(0.015625)"/>
        <path id="DejaVuSans-2e" d="M 684 794 
L 1344 794 
L 1344 0 
L 684 0 
L 684 794 
z
" transform="scale(0.015625)"/>
        <path id="DejaVuSans-32" d="M 1228 531 
L 3431 531 
L 3431 0 
L 469 0 
L 469 531 
Q 828 903 1448 1529 
Q 2069 2156 2228 2338 
Q 2531 2678 2651 2914 
Q 2772 3150 2772 3378 
Q 2772 3750 2511 3984 
Q 2250 4219 1831 4219 
Q 1534 4219 1204 4116 
Q 875 4013 500 3803 
L 500 4441 
Q 881 4594 1212 4672 
Q 1544 4750 1819 4750 
Q 2544 4750 2975 4387 
Q 3406 4025 3406 3419 
Q 3406 3131 3298 2873 
Q 3191 2616 2906 2266 
Q 2828 2175 2409 1742 
Q 1991 1309 1228 531 
z
" transform="scale(0.015625)"/>
       </defs>
       <use xlink:href="#DejaVuSans-2212"/>
       <use xlink:href="#DejaVuSans-30" x="83.789062"/>
       <use xlink:href="#DejaVuSans-2e" x="147.412109"/>
       <use xlink:href="#DejaVuSans-32" x="179.199219"/>
      </g>
     </g>
    </g>
    <g id="ytick_2">
     <g id="line2d_6">
      <path d="M 170.340091 96.42532 
L 462.70916 96.42532 
" clip-path="url(#p4fba874683)" style="fill: none; stroke: #ffffff; stroke-linecap: round"/>
     </g>
     <g id="text_2">
      <!-- 0.0 -->
      <g style="fill: #262626" transform="translate(124.103872 105.201515) scale(0.231 -0.231)">
       <use xlink:href="#DejaVuSans-30"/>
       <use xlink:href="#DejaVuSans-2e" x="63.623047"/>
       <use xlink:href="#DejaVuSans-30" x="95.410156"/>
      </g>
     </g>
    </g>
    <g id="text_3">
     <!-- % change -->
     <g style="fill: #262626" transform="translate(95.505982 203.597344) rotate(-90) scale(0.252 -0.252)">
      <defs>
       <path id="DejaVuSans-25" d="M 4653 2053 
Q 4381 2053 4226 1822 
Q 4072 1591 4072 1178 
Q 4072 772 4226 539 
Q 4381 306 4653 306 
Q 4919 306 5073 539 
Q 5228 772 5228 1178 
Q 5228 1588 5073 1820 
Q 4919 2053 4653 2053 
z
M 4653 2450 
Q 5147 2450 5437 2106 
Q 5728 1763 5728 1178 
Q 5728 594 5436 251 
Q 5144 -91 4653 -91 
Q 4153 -91 3862 251 
Q 3572 594 3572 1178 
Q 3572 1766 3864 2108 
Q 4156 2450 4653 2450 
z
M 1428 4353 
Q 1159 4353 1004 4120 
Q 850 3888 850 3481 
Q 850 3069 1003 2837 
Q 1156 2606 1428 2606 
Q 1700 2606 1854 2837 
Q 2009 3069 2009 3481 
Q 2009 3884 1853 4118 
Q 1697 4353 1428 4353 
z
M 4250 4750 
L 4750 4750 
L 1831 -91 
L 1331 -91 
L 4250 4750 
z
M 1428 4750 
Q 1922 4750 2215 4408 
Q 2509 4066 2509 3481 
Q 2509 2891 2217 2550 
Q 1925 2209 1428 2209 
Q 931 2209 642 2551 
Q 353 2894 353 3481 
Q 353 4063 643 4406 
Q 934 4750 1428 4750 
z
" transform="scale(0.015625)"/>
       <path id="DejaVuSans-20" transform="scale(0.015625)"/>
       <path id="DejaVuSans-63" d="M 3122 3366 
L 3122 2828 
Q 2878 2963 2633 3030 
Q 2388 3097 2138 3097 
Q 1578 3097 1268 2742 
Q 959 2388 959 1747 
Q 959 1106 1268 751 
Q 1578 397 2138 397 
Q 2388 397 2633 464 
Q 2878 531 3122 666 
L 3122 134 
Q 2881 22 2623 -34 
Q 2366 -91 2075 -91 
Q 1284 -91 818 406 
Q 353 903 353 1747 
Q 353 2603 823 3093 
Q 1294 3584 2113 3584 
Q 2378 3584 2631 3529 
Q 2884 3475 3122 3366 
z
" transform="scale(0.015625)"/>
       <path id="DejaVuSans-68" d="M 3513 2113 
L 3513 0 
L 2938 0 
L 2938 2094 
Q 2938 2591 2744 2837 
Q 2550 3084 2163 3084 
Q 1697 3084 1428 2787 
Q 1159 2491 1159 1978 
L 1159 0 
L 581 0 
L 581 4863 
L 1159 4863 
L 1159 2956 
Q 1366 3272 1645 3428 
Q 1925 3584 2291 3584 
Q 2894 3584 3203 3211 
Q 3513 2838 3513 2113 
z
" transform="scale(0.015625)"/>
       <path id="DejaVuSans-61" d="M 2194 1759 
Q 1497 1759 1228 1600 
Q 959 1441 959 1056 
Q 959 750 1161 570 
Q 1363 391 1709 391 
Q 2188 391 2477 730 
Q 2766 1069 2766 1631 
L 2766 1759 
L 2194 1759 
z
M 3341 1997 
L 3341 0 
L 2766 0 
L 2766 531 
Q 2569 213 2275 61 
Q 1981 -91 1556 -91 
Q 1019 -91 701 211 
Q 384 513 384 1019 
Q 384 1609 779 1909 
Q 1175 2209 1959 2209 
L 2766 2209 
L 2766 2266 
Q 2766 2663 2505 2880 
Q 2244 3097 1772 3097 
Q 1472 3097 1187 3025 
Q 903 2953 641 2809 
L 641 3341 
Q 956 3463 1253 3523 
Q 1550 3584 1831 3584 
Q 2591 3584 2966 3190 
Q 3341 2797 3341 1997 
z
" transform="scale(0.015625)"/>
       <path id="DejaVuSans-6e" d="M 3513 2113 
L 3513 0 
L 2938 0 
L 2938 2094 
Q 2938 2591 2744 2837 
Q 2550 3084 2163 3084 
Q 1697 3084 1428 2787 
Q 1159 2491 1159 1978 
L 1159 0 
L 581 0 
L 581 3500 
L 1159 3500 
L 1159 2956 
Q 1366 3272 1645 3428 
Q 1925 3584 2291 3584 
Q 2894 3584 3203 3211 
Q 3513 2838 3513 2113 
z
" transform="scale(0.015625)"/>
       <path id="DejaVuSans-67" d="M 2906 1791 
Q 2906 2416 2648 2759 
Q 2391 3103 1925 3103 
Q 1463 3103 1205 2759 
Q 947 2416 947 1791 
Q 947 1169 1205 825 
Q 1463 481 1925 481 
Q 2391 481 2648 825 
Q 2906 1169 2906 1791 
z
M 3481 434 
Q 3481 -459 3084 -895 
Q 2688 -1331 1869 -1331 
Q 1566 -1331 1297 -1286 
Q 1028 -1241 775 -1147 
L 775 -588 
Q 1028 -725 1275 -790 
Q 1522 -856 1778 -856 
Q 2344 -856 2625 -561 
Q 2906 -266 2906 331 
L 2906 616 
Q 2728 306 2450 153 
Q 2172 0 1784 0 
Q 1141 0 747 490 
Q 353 981 353 1791 
Q 353 2603 747 3093 
Q 1141 3584 1784 3584 
Q 2172 3584 2450 3431 
Q 2728 3278 2906 2969 
L 2906 3500 
L 3481 3500 
L 3481 434 
z
" transform="scale(0.015625)"/>
       <path id="DejaVuSans-65" d="M 3597 1894 
L 3597 1613 
L 953 1613 
Q 991 1019 1311 708 
Q 1631 397 2203 397 
Q 2534 397 2845 478 
Q 3156 559 3463 722 
L 3463 178 
Q 3153 47 2828 -22 
Q 2503 -91 2169 -91 
Q 1331 -91 842 396 
Q 353 884 353 1716 
Q 353 2575 817 3079 
Q 1281 3584 2069 3584 
Q 2775 3584 3186 3129 
Q 3597 2675 3597 1894 
z
M 3022 2063 
Q 3016 2534 2758 2815 
Q 2500 3097 2075 3097 
Q 1594 3097 1305 2825 
Q 1016 2553 972 2059 
L 3022 2063 
z
" transform="scale(0.015625)"/>
      </defs>
      <use xlink:href="#DejaVuSans-25"/>
      <use xlink:href="#DejaVuSans-20" x="95.019531"/>
      <use xlink:href="#DejaVuSans-63" x="126.806641"/>
      <use xlink:href="#DejaVuSans-68" x="181.787109"/>
      <use xlink:href="#DejaVuSans-61" x="245.166016"/>
      <use xlink:href="#DejaVuSans-6e" x="306.445312"/>
      <use xlink:href="#DejaVuSans-67" x="369.824219"/>
      <use xlink:href="#DejaVuSans-65" x="433.300781"/>
     </g>
    </g>
   </g>
   <g id="PolyCollection_1"/>
   <g id="PolyCollection_2"/>
   <g id="PolyCollection_3"/>
   <g id="PolyCollection_4"/>
   <g id="PolyCollection_5"/>
   <g id="PolyCollection_6"/>
   <g id="line2d_7">
    <path d="M 183.629594 96.42532 
L 183.99419 184.333736 
L 184.358785 187.362069 
L 184.723381 188.085645 
L 185.087976 188.175192 
L 186.181762 187.797381 
L 189.098526 186.550873 
L 190.921503 184.9861 
L 200.036388 177.085597 
L 210.24506 168.57823 
L 221.547518 159.4681 
L 227.74564 154.699143 
L 239.048098 146.596274 
L 245.246221 142.359607 
L 256.184083 135.186332 
L 266.757351 128.520844 
L 276.966022 122.341756 
L 287.174694 116.420392 
L 297.747961 110.545352 
L 308.321229 104.928503 
L 311.237992 103.523435 
L 316.342328 101.420627 
L 317.436114 101.091073 
L 327.280191 99.013434 
L 341.134817 95.969307 
L 346.239153 94.952044 
L 356.083229 93.565812 
L 380.511122 89.885581 
L 388.532222 89.072801 
L 392.907367 89.361846 
L 402.022252 90.041316 
L 406.761993 90.500762 
L 412.960115 90.858261 
L 423.168787 91.099325 
L 438.84639 91.229319 
L 449.419657 91.261689 
L 449.419657 91.261689 
" clip-path="url(#p4fba874683)" style="fill: none; stroke: #4c72b0; stroke-opacity: 0.9; stroke-width: 3; stroke-linecap: round"/>
   </g>
   <g id="line2d_8">
    <path d="M 183.629594 96.42532 
L 183.99419 181.806664 
L 184.358785 185.374272 
L 184.723381 186.544197 
L 185.087976 186.890889 
L 185.817167 186.868474 
L 188.004739 186.105668 
L 189.463121 185.457419 
L 193.109075 182.520365 
L 203.682342 174.125671 
L 214.620205 165.69685 
L 226.287259 156.983626 
L 237.225121 149.138844 
L 243.058648 145.15387 
L 252.538129 139.140734 
L 262.01761 133.50124 
L 274.049259 126.589895 
L 285.716313 120.141802 
L 297.383366 113.951086 
L 309.05042 108.011314 
L 312.696374 106.295383 
L 318.529901 103.876688 
L 321.082069 103.271864 
L 329.103168 101.297674 
L 358.635397 93.774732 
L 370.667046 91.302202 
L 372.854619 90.923911 
L 376.500573 90.581298 
L 380.146527 90.205852 
L 384.886267 89.234339 
L 388.532222 88.544243 
L 391.448985 88.624432 
L 402.386848 89.091882 
L 407.126588 89.320037 
L 415.876878 89.639229 
L 427.543932 90.010151 
L 438.481795 90.293248 
L 449.419657 90.388558 
L 449.419657 90.388558 
" clip-path="url(#p4fba874683)" style="fill: none; stroke: #dd8452; stroke-opacity: 0.9; stroke-width: 3; stroke-linecap: round"/>
   </g>
   <g id="line2d_9">
    <path d="M 183.629594 96.42532 
L 183.99419 188.858835 
L 184.358785 193.805014 
L 184.723381 194.964084 
L 185.087976 195.177852 
L 185.817167 194.985857 
L 189.098526 193.453782 
L 190.921503 191.745591 
L 199.307197 183.82275 
L 208.422083 175.552404 
L 218.99535 166.26597 
L 228.474831 158.246377 
L 237.954312 150.553485 
L 245.975411 144.304023 
L 254.361106 138.042476 
L 262.382205 132.394657 
L 269.674114 127.519249 
L 277.330618 122.621729 
L 286.810099 116.804857 
L 295.924984 111.461491 
L 302.487702 107.84457 
L 308.685824 104.700984 
L 314.883946 101.749979 
L 318.529901 100.331964 
L 322.905046 98.895047 
L 326.915595 97.810388 
L 330.926145 96.994057 
L 340.770221 95.268317 
L 349.885107 93.929293 
L 359.729183 92.708112 
L 379.052741 90.45646 
L 388.896817 89.797485 
L 403.845229 91.126087 
L 411.137138 91.496199 
L 423.168787 91.842242 
L 436.294222 92.008806 
L 449.419657 92.068151 
L 449.419657 92.068151 
" clip-path="url(#p4fba874683)" style="fill: none; stroke: #55a868; stroke-opacity: 0.9; stroke-width: 3; stroke-linecap: round"/>
   </g>
   <g id="line2d_10">
    <path d="M 183.629594 96.42532 
L 183.99419 185.803988 
L 184.358785 190.697038 
L 184.723381 191.825144 
L 185.087976 192.027492 
L 185.817167 191.841194 
L 189.098526 190.375654 
L 190.921503 188.734049 
L 200.036388 180.440039 
L 210.24506 171.471354 
L 220.089136 163.107821 
L 228.110236 156.559276 
L 237.225121 149.391873 
L 245.610816 143.084529 
L 254.361106 136.811371 
L 261.653015 131.850776 
L 270.403305 126.195831 
L 279.882786 120.418819 
L 289.726862 114.704799 
L 298.112557 110.089429 
L 303.581488 107.317051 
L 312.696374 102.97085 
L 315.977733 101.550361 
L 319.988282 100.166742 
L 324.363427 98.888516 
L 329.103168 97.751609 
L 339.676435 95.733392 
L 347.697534 94.546281 
L 363.739733 92.567731 
L 376.135977 90.977265 
L 384.886267 90.005385 
L 388.532222 89.731563 
L 391.448985 90.040357 
L 396.553321 90.515633 
L 405.668207 91.080973 
L 416.606069 91.536678 
L 428.273123 91.762319 
L 449.419657 91.897152 
L 449.419657 91.897152 
" clip-path="url(#p4fba874683)" style="fill: none; stroke: #c44e52; stroke-opacity: 0.9; stroke-width: 3; stroke-linecap: round"/>
   </g>
   <g id="line2d_11">
    <path d="M 183.629594 96.42532 
L 183.99419 187.558012 
L 184.358785 191.477929 
L 184.723381 192.039332 
L 185.087976 192.032668 
L 186.546358 191.433463 
L 189.098526 190.315176 
L 192.015289 187.676181 
L 201.49477 179.222188 
L 212.068037 170.087046 
L 223.0059 160.929969 
L 234.308358 151.765128 
L 245.246221 143.241368 
L 255.819488 135.273697 
L 261.653015 131.110766 
L 272.590877 123.565534 
L 283.164145 116.544254 
L 293.372816 110.038599 
L 302.852297 104.256 
L 309.77961 100.243099 
L 312.696374 98.887631 
L 318.894496 96.169366 
L 322.54045 94.799215 
L 329.103168 92.569395 
L 333.842908 91.861711 
L 344.05158 90.395692 
L 358.999992 88.815674 
L 362.281351 88.631296 
L 371.760832 88.48569 
L 377.229764 88.575318 
L 382.334099 88.410604 
L 386.344649 88.307528 
L 389.261413 88.406685 
L 395.459535 88.995036 
L 402.386848 89.383842 
L 408.58497 89.77127 
L 414.053901 90.249418 
L 421.34581 90.59086 
L 433.012863 90.896433 
L 449.419657 91.085523 
L 449.419657 91.085523 
" clip-path="url(#p4fba874683)" style="fill: none; stroke: #8172b3; stroke-opacity: 0.9; stroke-width: 3; stroke-linecap: round"/>
   </g>
   <g id="line2d_12">
    <path d="M 183.629594 96.42532 
L 183.99419 185.472217 
L 184.358785 188.720718 
L 184.723381 189.24202 
L 185.087976 189.235883 
L 186.546358 188.678632 
L 189.098526 187.640264 
L 192.379884 184.817182 
L 201.859365 176.797911 
L 212.068037 168.449068 
L 222.641304 160.071639 
L 233.943763 151.45117 
L 244.881625 143.385067 
L 254.725702 136.387721 
L 265.663564 129.029729 
L 275.872236 122.425155 
L 287.174694 115.393036 
L 298.112557 108.853264 
L 307.956633 103.215346 
L 311.602588 101.325376 
L 316.342328 99.249593 
L 321.082069 97.444419 
L 329.832359 94.332224 
L 332.384527 93.700818 
L 337.488863 92.593502 
L 345.874557 91.089785 
L 350.614298 90.466164 
L 382.334099 86.948279 
L 384.157077 86.902595 
L 388.532222 87.161878 
L 390.719794 87.667074 
L 392.907367 88.133366 
L 396.917916 88.549481 
L 403.116039 88.971929 
L 427.908527 90.151632 
L 437.388008 90.390348 
L 449.419657 90.537497 
L 449.419657 90.537497 
" clip-path="url(#p4fba874683)" style="fill: none; stroke: #937860; stroke-opacity: 0.9; stroke-width: 3; stroke-linecap: round"/>
   </g>
   <g id="patch_3">
    <path d="M 170.340091 201.042 
L 170.340091 81.456 
" style="fill: none; stroke: #ffffff; stroke-width: 1.25; stroke-linejoin: miter; stroke-linecap: square"/>
   </g>
   <g id="patch_4">
    <path d="M 170.340091 201.042 
L 462.70916 201.042 
" style="fill: none; stroke: #ffffff; stroke-width: 1.25; stroke-linejoin: miter; stroke-linecap: square"/>
   </g>
   <g id="text_4">
    <!-- 0.8~90 -->
    <g style="fill: #262626" transform="translate(269.894782 75.456) scale(0.252 -0.252)">
     <defs>
      <path id="DejaVuSans-38" d="M 2034 2216 
Q 1584 2216 1326 1975 
Q 1069 1734 1069 1313 
Q 1069 891 1326 650 
Q 1584 409 2034 409 
Q 2484 409 2743 651 
Q 3003 894 3003 1313 
Q 3003 1734 2745 1975 
Q 2488 2216 2034 2216 
z
M 1403 2484 
Q 997 2584 770 2862 
Q 544 3141 544 3541 
Q 544 4100 942 4425 
Q 1341 4750 2034 4750 
Q 2731 4750 3128 4425 
Q 3525 4100 3525 3541 
Q 3525 3141 3298 2862 
Q 3072 2584 2669 2484 
Q 3125 2378 3379 2068 
Q 3634 1759 3634 1313 
Q 3634 634 3220 271 
Q 2806 -91 2034 -91 
Q 1263 -91 848 271 
Q 434 634 434 1313 
Q 434 1759 690 2068 
Q 947 2378 1403 2484 
z
M 1172 3481 
Q 1172 3119 1398 2916 
Q 1625 2713 2034 2713 
Q 2441 2713 2670 2916 
Q 2900 3119 2900 3481 
Q 2900 3844 2670 4047 
Q 2441 4250 2034 4250 
Q 1625 4250 1398 4047 
Q 1172 3844 1172 3481 
z
" transform="scale(0.015625)"/>
      <path id="DejaVuSans-7e" d="M 4684 2553 
L 4684 1997 
Q 4356 1750 4076 1644 
Q 3797 1538 3494 1538 
Q 3150 1538 2694 1722 
Q 2659 1734 2644 1741 
Q 2622 1750 2575 1766 
Q 2091 1959 1797 1959 
Q 1522 1959 1253 1839 
Q 984 1719 678 1459 
L 678 2016 
Q 1006 2263 1286 2370 
Q 1566 2478 1869 2478 
Q 2213 2478 2672 2291 
Q 2703 2278 2719 2272 
Q 2744 2263 2788 2247 
Q 3272 2053 3566 2053 
Q 3834 2053 4098 2172 
Q 4363 2291 4684 2553 
z
" transform="scale(0.015625)"/>
      <path id="DejaVuSans-39" d="M 703 97 
L 703 672 
Q 941 559 1184 500 
Q 1428 441 1663 441 
Q 2288 441 2617 861 
Q 2947 1281 2994 2138 
Q 2813 1869 2534 1725 
Q 2256 1581 1919 1581 
Q 1219 1581 811 2004 
Q 403 2428 403 3163 
Q 403 3881 828 4315 
Q 1253 4750 1959 4750 
Q 2769 4750 3195 4129 
Q 3622 3509 3622 2328 
Q 3622 1225 3098 567 
Q 2575 -91 1691 -91 
Q 1453 -91 1209 -44 
Q 966 3 703 97 
z
M 1959 2075 
Q 2384 2075 2632 2365 
Q 2881 2656 2881 3163 
Q 2881 3666 2632 3958 
Q 2384 4250 1959 4250 
Q 1534 4250 1286 3958 
Q 1038 3666 1038 3163 
Q 1038 2656 1286 2365 
Q 1534 2075 1959 2075 
z
" transform="scale(0.015625)"/>
     </defs>
     <use xlink:href="#DejaVuSans-30"/>
     <use xlink:href="#DejaVuSans-2e" x="63.623047"/>
     <use xlink:href="#DejaVuSans-38" x="95.410156"/>
     <use xlink:href="#DejaVuSans-7e" x="159.033203"/>
     <use xlink:href="#DejaVuSans-39" x="242.822266"/>
     <use xlink:href="#DejaVuSans-30" x="306.445312"/>
    </g>
   </g>
  </g>
  <g id="axes_2">
   <g id="patch_5">
    <path d="M 489.290298 201.042 
L 781.659367 201.042 
L 781.659367 81.456 
L 489.290298 81.456 
z
" style="fill: #eaeaf2"/>
   </g>
   <g id="matplotlib.axis_3">
    <g id="xtick_5">
     <g id="line2d_13">
      <path d="M 502.579801 201.042 
L 502.579801 81.456 
" clip-path="url(#pf6eb3e41b6)" style="fill: none; stroke: #ffffff; stroke-linecap: round"/>
     </g>
    </g>
    <g id="xtick_6">
     <g id="line2d_14">
      <path d="M 593.728656 201.042 
L 593.728656 81.456 
" clip-path="url(#pf6eb3e41b6)" style="fill: none; stroke: #ffffff; stroke-linecap: round"/>
     </g>
    </g>
    <g id="xtick_7">
     <g id="line2d_15">
      <path d="M 684.877512 201.042 
L 684.877512 81.456 
" clip-path="url(#pf6eb3e41b6)" style="fill: none; stroke: #ffffff; stroke-linecap: round"/>
     </g>
    </g>
    <g id="xtick_8">
     <g id="line2d_16">
      <path d="M 776.026368 201.042 
L 776.026368 81.456 
" clip-path="url(#pf6eb3e41b6)" style="fill: none; stroke: #ffffff; stroke-linecap: round"/>
     </g>
    </g>
   </g>
   <g id="matplotlib.axis_4">
    <g id="ytick_3">
     <g id="line2d_17">
      <path d="M 489.290298 160.598443 
L 781.659367 160.598443 
" clip-path="url(#pf6eb3e41b6)" style="fill: none; stroke: #ffffff; stroke-linecap: round"/>
     </g>
    </g>
    <g id="ytick_4">
     <g id="line2d_18">
      <path d="M 489.290298 96.42532 
L 781.659367 96.42532 
" clip-path="url(#pf6eb3e41b6)" style="fill: none; stroke: #ffffff; stroke-linecap: round"/>
     </g>
    </g>
   </g>
   <g id="PolyCollection_7"/>
   <g id="PolyCollection_8"/>
   <g id="PolyCollection_9"/>
   <g id="PolyCollection_10"/>
   <g id="PolyCollection_11"/>
   <g id="PolyCollection_12"/>
   <g id="line2d_19">
    <path d="M 502.579801 96.42532 
L 502.944396 184.333736 
L 503.308992 187.459697 
L 503.673587 188.296502 
L 504.038182 188.503294 
L 504.767373 188.513458 
L 508.048732 188.167855 
L 509.507114 187.385099 
L 541.956106 168.996554 
L 565.654809 155.776228 
L 585.707557 144.818195 
L 606.854092 133.510027 
L 613.781405 129.969805 
L 628.729817 122.530609 
L 649.876351 112.341873 
L 670.658291 102.574709 
L 679.773176 98.43821 
L 684.148321 97.021388 
L 695.450779 93.524877 
L 698.367543 93.155747 
L 707.482428 92.129495 
L 720.243268 93.472655 
L 727.535176 93.865483 
L 737.743848 94.171256 
L 765.088505 94.644444 
L 768.369864 94.668169 
L 768.369864 94.668169 
" clip-path="url(#pf6eb3e41b6)" style="fill: none; stroke: #4c72b0; stroke-opacity: 0.9; stroke-width: 3; stroke-linecap: round"/>
   </g>
   <g id="line2d_20">
    <path d="M 502.579801 96.42532 
L 502.944396 181.806664 
L 503.308992 185.454352 
L 503.673587 186.718126 
L 504.038182 187.163398 
L 504.767373 187.34172 
L 506.59035 187.21353 
L 508.048732 187.078078 
L 509.142518 186.551867 
L 578.780244 148.818925 
L 602.478947 136.404733 
L 621.437908 126.701082 
L 632.740367 121.103234 
L 645.136611 115.333748 
L 668.106123 104.858706 
L 681.231558 99.045298 
L 685.242107 97.714139 
L 697.638352 93.77898 
L 706.753237 92.0441 
L 708.94081 92.179354 
L 725.347604 93.376737 
L 733.368703 93.724678 
L 738.473039 93.999586 
L 742.848184 94.316462 
L 757.796597 94.476971 
L 768.369864 94.580547 
L 768.369864 94.580547 
" clip-path="url(#pf6eb3e41b6)" style="fill: none; stroke: #dd8452; stroke-opacity: 0.9; stroke-width: 3; stroke-linecap: round"/>
   </g>
   <g id="line2d_21">
    <path d="M 502.579801 96.42532 
L 502.944396 188.858835 
L 503.308992 193.910169 
L 503.673587 195.192059 
L 504.038182 195.533255 
L 504.767373 195.598258 
L 508.048732 195.212622 
L 509.507114 194.357231 
L 531.018244 181.110328 
L 560.915068 163.013733 
L 581.697007 150.678894 
L 599.562183 140.320478 
L 615.239786 131.462029 
L 632.011176 122.234523 
L 646.594993 114.458188 
L 657.897451 108.697771 
L 674.304245 100.637756 
L 680.137772 97.913653 
L 685.606703 95.871998 
L 689.252657 94.717174 
L 692.16942 93.989748 
L 694.356993 93.64672 
L 707.847024 92.196619 
L 718.420291 93.170163 
L 726.44139 93.674287 
L 753.056856 94.889984 
L 768.005268 95.118699 
L 768.369864 95.121881 
L 768.369864 95.121881 
" clip-path="url(#pf6eb3e41b6)" style="fill: none; stroke: #55a868; stroke-opacity: 0.9; stroke-width: 3; stroke-linecap: round"/>
   </g>
   <g id="line2d_22">
    <path d="M 502.579801 96.42532 
L 502.944396 185.803988 
L 503.308992 190.797762 
L 503.673587 192.044041 
L 504.038182 192.368946 
L 504.767373 192.430129 
L 508.048732 192.069003 
L 509.507114 191.249811 
L 538.310152 174.158048 
L 564.925618 158.59777 
L 584.978366 147.112871 
L 602.478947 137.333475 
L 618.15655 128.810549 
L 633.834153 120.528632 
L 648.41797 113.0797 
L 661.17881 106.84116 
L 677.585604 99.134856 
L 680.866962 97.750502 
L 686.700489 95.725319 
L 691.075634 94.560077 
L 693.263207 94.174783 
L 699.461329 93.334824 
L 707.117833 92.426507 
L 724.618413 93.547892 
L 741.025207 94.352191 
L 749.046306 94.719435 
L 760.348764 94.983734 
L 768.369864 95.08101 
L 768.369864 95.08101 
" clip-path="url(#pf6eb3e41b6)" style="fill: none; stroke: #c44e52; stroke-opacity: 0.9; stroke-width: 3; stroke-linecap: round"/>
   </g>
   <g id="line2d_23">
    <path d="M 502.579801 96.42532 
L 502.944396 187.558012 
L 503.308992 191.590255 
L 503.673587 192.271953 
L 504.038182 192.386768 
L 505.496564 192.272263 
L 508.048732 191.992233 
L 510.6009 190.506218 
L 537.945557 174.446962 
L 570.029954 155.839955 
L 595.551633 141.281175 
L 617.062763 129.261315 
L 637.115512 118.341951 
L 649.876351 111.60428 
L 669.199909 101.767632 
L 678.314794 97.291257 
L 683.783726 95.110633 
L 688.158871 93.698869 
L 693.627802 92.09898 
L 704.93026 89.367356 
L 707.117833 89.020592 
L 713.68055 89.400196 
L 723.524627 91.057288 
L 728.993558 91.684618 
L 742.848184 92.940853 
L 750.504688 93.330889 
L 768.369864 94.000672 
L 768.369864 94.000672 
" clip-path="url(#pf6eb3e41b6)" style="fill: none; stroke: #8172b3; stroke-opacity: 0.9; stroke-width: 3; stroke-linecap: round"/>
   </g>
   <g id="line2d_24">
    <path d="M 502.579801 96.42532 
L 502.944396 185.472217 
L 503.308992 188.825433 
L 503.673587 189.458563 
L 504.402778 189.560623 
L 508.048732 189.197893 
L 510.6009 187.766493 
L 535.393389 173.75505 
L 565.654809 156.900922 
L 592.63487 142.130419 
L 612.687618 131.387007 
L 634.563344 119.907923 
L 649.147161 112.465178 
L 668.106123 103.105369 
L 679.408581 97.71207 
L 681.960749 96.709993 
L 688.888062 94.502011 
L 696.544566 92.312864 
L 701.648901 91.023501 
L 706.753237 89.886358 
L 708.94081 89.995765 
L 713.68055 90.391303 
L 728.993558 92.219861 
L 735.556276 92.699974 
L 745.400352 93.181891 
L 759.254978 93.544149 
L 768.369864 93.734835 
L 768.369864 93.734835 
" clip-path="url(#pf6eb3e41b6)" style="fill: none; stroke: #937860; stroke-opacity: 0.9; stroke-width: 3; stroke-linecap: round"/>
   </g>
   <g id="patch_6">
    <path d="M 489.290298 201.042 
L 489.290298 81.456 
" style="fill: none; stroke: #ffffff; stroke-width: 1.25; stroke-linejoin: miter; stroke-linecap: square"/>
   </g>
   <g id="patch_7">
    <path d="M 489.290298 201.042 
L 781.659367 201.042 
" style="fill: none; stroke: #ffffff; stroke-width: 1.25; stroke-linejoin: miter; stroke-linecap: square"/>
   </g>
   <g id="text_5">
    <!-- 0.8~365 -->
    <g style="fill: #262626" transform="translate(580.828239 75.456) scale(0.252 -0.252)">
     <defs>
      <path id="DejaVuSans-33" d="M 2597 2516 
Q 3050 2419 3304 2112 
Q 3559 1806 3559 1356 
Q 3559 666 3084 287 
Q 2609 -91 1734 -91 
Q 1441 -91 1130 -33 
Q 819 25 488 141 
L 488 750 
Q 750 597 1062 519 
Q 1375 441 1716 441 
Q 2309 441 2620 675 
Q 2931 909 2931 1356 
Q 2931 1769 2642 2001 
Q 2353 2234 1838 2234 
L 1294 2234 
L 1294 2753 
L 1863 2753 
Q 2328 2753 2575 2939 
Q 2822 3125 2822 3475 
Q 2822 3834 2567 4026 
Q 2313 4219 1838 4219 
Q 1578 4219 1281 4162 
Q 984 4106 628 3988 
L 628 4550 
Q 988 4650 1302 4700 
Q 1616 4750 1894 4750 
Q 2613 4750 3031 4423 
Q 3450 4097 3450 3541 
Q 3450 3153 3228 2886 
Q 3006 2619 2597 2516 
z
" transform="scale(0.015625)"/>
      <path id="DejaVuSans-36" d="M 2113 2584 
Q 1688 2584 1439 2293 
Q 1191 2003 1191 1497 
Q 1191 994 1439 701 
Q 1688 409 2113 409 
Q 2538 409 2786 701 
Q 3034 994 3034 1497 
Q 3034 2003 2786 2293 
Q 2538 2584 2113 2584 
z
M 3366 4563 
L 3366 3988 
Q 3128 4100 2886 4159 
Q 2644 4219 2406 4219 
Q 1781 4219 1451 3797 
Q 1122 3375 1075 2522 
Q 1259 2794 1537 2939 
Q 1816 3084 2150 3084 
Q 2853 3084 3261 2657 
Q 3669 2231 3669 1497 
Q 3669 778 3244 343 
Q 2819 -91 2113 -91 
Q 1303 -91 875 529 
Q 447 1150 447 2328 
Q 447 3434 972 4092 
Q 1497 4750 2381 4750 
Q 2619 4750 2861 4703 
Q 3103 4656 3366 4563 
z
" transform="scale(0.015625)"/>
      <path id="DejaVuSans-35" d="M 691 4666 
L 3169 4666 
L 3169 4134 
L 1269 4134 
L 1269 2991 
Q 1406 3038 1543 3061 
Q 1681 3084 1819 3084 
Q 2600 3084 3056 2656 
Q 3513 2228 3513 1497 
Q 3513 744 3044 326 
Q 2575 -91 1722 -91 
Q 1428 -91 1123 -41 
Q 819 9 494 109 
L 494 744 
Q 775 591 1075 516 
Q 1375 441 1709 441 
Q 2250 441 2565 725 
Q 2881 1009 2881 1497 
Q 2881 1984 2565 2268 
Q 2250 2553 1709 2553 
Q 1456 2553 1204 2497 
Q 953 2441 691 2322 
L 691 4666 
z
" transform="scale(0.015625)"/>
     </defs>
     <use xlink:href="#DejaVuSans-30"/>
     <use xlink:href="#DejaVuSans-2e" x="63.623047"/>
     <use xlink:href="#DejaVuSans-38" x="95.410156"/>
     <use xlink:href="#DejaVuSans-7e" x="159.033203"/>
     <use xlink:href="#DejaVuSans-33" x="242.822266"/>
     <use xlink:href="#DejaVuSans-36" x="306.445312"/>
     <use xlink:href="#DejaVuSans-35" x="370.068359"/>
    </g>
   </g>
  </g>
  <g id="axes_3">
   <g id="patch_8">
    <path d="M 808.240504 201.042 
L 1100.609573 201.042 
L 1100.609573 81.456 
L 808.240504 81.456 
z
" style="fill: #eaeaf2"/>
   </g>
   <g id="matplotlib.axis_5">
    <g id="xtick_9">
     <g id="line2d_25">
      <path d="M 821.530007 201.042 
L 821.530007 81.456 
" clip-path="url(#p88822a0ad7)" style="fill: none; stroke: #ffffff; stroke-linecap: round"/>
     </g>
    </g>
    <g id="xtick_10">
     <g id="line2d_26">
      <path d="M 912.678863 201.042 
L 912.678863 81.456 
" clip-path="url(#p88822a0ad7)" style="fill: none; stroke: #ffffff; stroke-linecap: round"/>
     </g>
    </g>
    <g id="xtick_11">
     <g id="line2d_27">
      <path d="M 1003.827719 201.042 
L 1003.827719 81.456 
" clip-path="url(#p88822a0ad7)" style="fill: none; stroke: #ffffff; stroke-linecap: round"/>
     </g>
    </g>
    <g id="xtick_12">
     <g id="line2d_28">
      <path d="M 1094.976574 201.042 
L 1094.976574 81.456 
" clip-path="url(#p88822a0ad7)" style="fill: none; stroke: #ffffff; stroke-linecap: round"/>
     </g>
    </g>
   </g>
   <g id="matplotlib.axis_6">
    <g id="ytick_5">
     <g id="line2d_29">
      <path d="M 808.240504 160.598443 
L 1100.609573 160.598443 
" clip-path="url(#p88822a0ad7)" style="fill: none; stroke: #ffffff; stroke-linecap: round"/>
     </g>
    </g>
    <g id="ytick_6">
     <g id="line2d_30">
      <path d="M 808.240504 96.42532 
L 1100.609573 96.42532 
" clip-path="url(#p88822a0ad7)" style="fill: none; stroke: #ffffff; stroke-linecap: round"/>
     </g>
    </g>
   </g>
   <g id="PolyCollection_13"/>
   <g id="PolyCollection_14"/>
   <g id="PolyCollection_15"/>
   <g id="PolyCollection_16"/>
   <g id="PolyCollection_17"/>
   <g id="PolyCollection_18"/>
   <g id="line2d_31">
    <path d="M 821.530007 96.42532 
L 821.894603 184.333736 
L 822.259198 187.362069 
L 822.623794 188.085645 
L 822.988389 188.175192 
L 824.082175 187.797381 
L 826.998939 186.550873 
L 828.821916 184.9861 
L 837.936801 177.085597 
L 848.145473 168.57823 
L 859.447931 159.4681 
L 865.646053 154.699143 
L 876.948512 146.596274 
L 883.146634 142.359607 
L 894.084496 135.186332 
L 904.657764 128.520844 
L 914.866435 122.341756 
L 925.075107 116.420392 
L 935.648375 110.545352 
L 946.221642 104.928503 
L 949.138405 103.523435 
L 954.242741 101.420627 
L 955.336527 101.091073 
L 965.180604 99.013434 
L 979.03523 95.969307 
L 984.139566 94.952044 
L 993.983642 93.565812 
L 1018.411535 89.885581 
L 1026.432635 89.072801 
L 1030.80778 89.361846 
L 1039.922665 90.041316 
L 1044.662406 90.500762 
L 1050.860528 90.858261 
L 1061.0692 91.099325 
L 1076.746803 91.229319 
L 1087.32007 91.261689 
L 1087.32007 91.261689 
" clip-path="url(#p88822a0ad7)" style="fill: none; stroke: #4c72b0; stroke-opacity: 0.9; stroke-width: 3; stroke-linecap: round"/>
   </g>
   <g id="line2d_32">
    <path d="M 821.530007 96.42532 
L 821.894603 181.806664 
L 822.259198 185.374272 
L 822.623794 186.544197 
L 822.988389 186.890889 
L 823.71758 186.868474 
L 825.905152 186.105668 
L 827.363534 185.457419 
L 831.009488 182.520365 
L 841.582756 174.125671 
L 852.520618 165.69685 
L 864.187672 156.983626 
L 875.125534 149.138844 
L 880.959061 145.15387 
L 890.438542 139.140734 
L 899.918023 133.50124 
L 911.949672 126.589895 
L 923.616726 120.141802 
L 935.283779 113.951086 
L 946.950833 108.011314 
L 950.596787 106.295383 
L 956.430314 103.876688 
L 958.982482 103.271864 
L 967.003581 101.297674 
L 996.53581 93.774732 
L 1008.567459 91.302202 
L 1010.755032 90.923911 
L 1014.400986 90.581298 
L 1018.04694 90.205852 
L 1022.786681 89.234339 
L 1026.432635 88.544243 
L 1029.349398 88.624432 
L 1040.287261 89.091882 
L 1045.027001 89.320037 
L 1053.777291 89.639229 
L 1065.444345 90.010151 
L 1076.382208 90.293248 
L 1087.32007 90.388558 
L 1087.32007 90.388558 
" clip-path="url(#p88822a0ad7)" style="fill: none; stroke: #dd8452; stroke-opacity: 0.9; stroke-width: 3; stroke-linecap: round"/>
   </g>
   <g id="line2d_33">
    <path d="M 821.530007 96.42532 
L 821.894603 188.858835 
L 822.259198 193.805014 
L 822.623794 194.964084 
L 822.988389 195.177852 
L 823.71758 194.985857 
L 826.998939 193.453782 
L 828.821916 191.745591 
L 837.20761 183.82275 
L 846.322496 175.552404 
L 856.895763 166.26597 
L 866.375244 158.246377 
L 875.854725 150.553485 
L 883.875825 144.304023 
L 892.261519 138.042476 
L 900.282619 132.394657 
L 907.574527 127.519249 
L 915.231031 122.621729 
L 924.710512 116.804857 
L 933.825397 111.461491 
L 940.388115 107.84457 
L 946.586237 104.700984 
L 952.784359 101.749979 
L 956.430314 100.331964 
L 960.805459 98.895047 
L 964.816008 97.810388 
L 968.826558 96.994057 
L 978.670634 95.268317 
L 987.78552 93.929293 
L 997.629596 92.708112 
L 1016.953154 90.45646 
L 1026.79723 89.797485 
L 1041.745642 91.126087 
L 1049.037551 91.496199 
L 1061.0692 91.842242 
L 1074.194635 92.008806 
L 1087.32007 92.068151 
L 1087.32007 92.068151 
" clip-path="url(#p88822a0ad7)" style="fill: none; stroke: #55a868; stroke-opacity: 0.9; stroke-width: 3; stroke-linecap: round"/>
   </g>
   <g id="line2d_34">
    <path d="M 821.530007 96.42532 
L 821.894603 185.803988 
L 822.259198 190.697038 
L 822.623794 191.825144 
L 822.988389 192.027492 
L 823.71758 191.841194 
L 826.998939 190.375654 
L 828.821916 188.734049 
L 837.936801 180.440039 
L 848.145473 171.471354 
L 857.98955 163.107821 
L 866.010649 156.559276 
L 875.125534 149.391873 
L 883.511229 143.084529 
L 892.261519 136.811371 
L 899.553428 131.850776 
L 908.303718 126.195831 
L 917.783199 120.418819 
L 927.627275 114.704799 
L 936.01297 110.089429 
L 941.481901 107.317051 
L 950.596787 102.97085 
L 953.878146 101.550361 
L 957.888695 100.166742 
L 962.26384 98.888516 
L 967.003581 97.751609 
L 977.576848 95.733392 
L 985.597947 94.546281 
L 1001.640146 92.567731 
L 1014.03639 90.977265 
L 1022.786681 90.005385 
L 1026.432635 89.731563 
L 1029.349398 90.040357 
L 1034.453734 90.515633 
L 1043.56862 91.080973 
L 1054.506482 91.536678 
L 1066.173536 91.762319 
L 1087.32007 91.897152 
L 1087.32007 91.897152 
" clip-path="url(#p88822a0ad7)" style="fill: none; stroke: #c44e52; stroke-opacity: 0.9; stroke-width: 3; stroke-linecap: round"/>
   </g>
   <g id="line2d_35">
    <path d="M 821.530007 96.42532 
L 821.894603 187.558012 
L 822.259198 191.477929 
L 822.623794 192.039332 
L 822.988389 192.032668 
L 824.446771 191.433463 
L 826.998939 190.315176 
L 829.915702 187.676181 
L 839.395183 179.222188 
L 849.96845 170.087046 
L 860.906313 160.929969 
L 872.208771 151.765128 
L 883.146634 143.241368 
L 893.719901 135.273697 
L 899.553428 131.110766 
L 910.49129 123.565534 
L 921.064558 116.544254 
L 931.273229 110.038599 
L 940.75271 104.256 
L 947.680023 100.243099 
L 950.596787 98.887631 
L 956.794909 96.169366 
L 960.440863 94.799215 
L 967.003581 92.569395 
L 971.743321 91.861711 
L 981.951993 90.395692 
L 996.900406 88.815674 
L 1000.181764 88.631296 
L 1009.661245 88.48569 
L 1015.130177 88.575318 
L 1020.234513 88.410604 
L 1024.245062 88.307528 
L 1027.161826 88.406685 
L 1033.359948 88.995036 
L 1040.287261 89.383842 
L 1046.485383 89.77127 
L 1051.954314 90.249418 
L 1059.246223 90.59086 
L 1070.913276 90.896433 
L 1087.32007 91.085523 
L 1087.32007 91.085523 
" clip-path="url(#p88822a0ad7)" style="fill: none; stroke: #8172b3; stroke-opacity: 0.9; stroke-width: 3; stroke-linecap: round"/>
   </g>
   <g id="line2d_36">
    <path d="M 821.530007 96.42532 
L 821.894603 185.472217 
L 822.259198 188.720718 
L 822.623794 189.24202 
L 822.988389 189.235883 
L 824.446771 188.678632 
L 826.998939 187.640264 
L 830.280297 184.817182 
L 839.759778 176.797911 
L 849.96845 168.449068 
L 860.541717 160.071639 
L 871.844176 151.45117 
L 882.782038 143.385067 
L 892.626115 136.387721 
L 903.563977 129.029729 
L 913.772649 122.425155 
L 925.075107 115.393036 
L 936.01297 108.853264 
L 945.857046 103.215346 
L 949.503001 101.325376 
L 954.242741 99.249593 
L 958.982482 97.444419 
L 967.732772 94.332224 
L 970.28494 93.700818 
L 975.389276 92.593502 
L 983.77497 91.089785 
L 988.514711 90.466164 
L 1020.234513 86.948279 
L 1022.05749 86.902595 
L 1026.432635 87.161878 
L 1028.620207 87.667074 
L 1030.80778 88.133366 
L 1034.818329 88.549481 
L 1041.016452 88.971929 
L 1065.80894 90.151632 
L 1075.288421 90.390348 
L 1087.32007 90.537497 
L 1087.32007 90.537497 
" clip-path="url(#p88822a0ad7)" style="fill: none; stroke: #937860; stroke-opacity: 0.9; stroke-width: 3; stroke-linecap: round"/>
   </g>
   <g id="patch_9">
    <path d="M 808.240504 201.042 
L 808.240504 81.456 
" style="fill: none; stroke: #ffffff; stroke-width: 1.25; stroke-linejoin: miter; stroke-linecap: square"/>
   </g>
   <g id="patch_10">
    <path d="M 808.240504 201.042 
L 1100.609573 201.042 
" style="fill: none; stroke: #ffffff; stroke-width: 1.25; stroke-linejoin: miter; stroke-linecap: square"/>
   </g>
   <g id="text_6">
    <!-- 0.85~90 -->
    <g style="fill: #262626" transform="translate(899.778445 75.456) scale(0.252 -0.252)">
     <use xlink:href="#DejaVuSans-30"/>
     <use xlink:href="#DejaVuSans-2e" x="63.623047"/>
     <use xlink:href="#DejaVuSans-38" x="95.410156"/>
     <use xlink:href="#DejaVuSans-35" x="159.033203"/>
     <use xlink:href="#DejaVuSans-7e" x="222.65625"/>
     <use xlink:href="#DejaVuSans-39" x="306.445312"/>
     <use xlink:href="#DejaVuSans-30" x="370.068359"/>
    </g>
   </g>
  </g>
  <g id="axes_4">
   <g id="patch_11">
    <path d="M 170.340091 373.284 
L 462.70916 373.284 
L 462.70916 253.698 
L 170.340091 253.698 
z
" style="fill: #eaeaf2"/>
   </g>
   <g id="matplotlib.axis_7">
    <g id="xtick_13">
     <g id="line2d_37">
      <path d="M 183.629594 373.284 
L 183.629594 253.698 
" clip-path="url(#pc2a7c9258a)" style="fill: none; stroke: #ffffff; stroke-linecap: round"/>
     </g>
     <g id="text_7">
      <!-- 0 -->
      <g style="fill: #262626" transform="translate(176.280907 400.336391) scale(0.231 -0.231)">
       <use xlink:href="#DejaVuSans-30"/>
      </g>
     </g>
    </g>
    <g id="xtick_14">
     <g id="line2d_38">
      <path d="M 274.77845 373.284 
L 274.77845 253.698 
" clip-path="url(#pc2a7c9258a)" style="fill: none; stroke: #ffffff; stroke-linecap: round"/>
     </g>
     <g id="text_8">
      <!-- 250 -->
      <g style="fill: #262626" transform="translate(252.732387 400.336391) scale(0.231 -0.231)">
       <use xlink:href="#DejaVuSans-32"/>
       <use xlink:href="#DejaVuSans-35" x="63.623047"/>
       <use xlink:href="#DejaVuSans-30" x="127.246094"/>
      </g>
     </g>
    </g>
    <g id="xtick_15">
     <g id="line2d_39">
      <path d="M 365.927305 373.284 
L 365.927305 253.698 
" clip-path="url(#pc2a7c9258a)" style="fill: none; stroke: #ffffff; stroke-linecap: round"/>
     </g>
     <g id="text_9">
      <!-- 500 -->
      <g style="fill: #262626" transform="translate(343.881243 400.336391) scale(0.231 -0.231)">
       <use xlink:href="#DejaVuSans-35"/>
       <use xlink:href="#DejaVuSans-30" x="63.623047"/>
       <use xlink:href="#DejaVuSans-30" x="127.246094"/>
      </g>
     </g>
    </g>
    <g id="xtick_16">
     <g id="line2d_40">
      <path d="M 457.076161 373.284 
L 457.076161 253.698 
" clip-path="url(#pc2a7c9258a)" style="fill: none; stroke: #ffffff; stroke-linecap: round"/>
     </g>
     <g id="text_10">
      <!-- 750 -->
      <g style="fill: #262626" transform="translate(435.030099 400.336391) scale(0.231 -0.231)">
       <defs>
        <path id="DejaVuSans-37" d="M 525 4666 
L 3525 4666 
L 3525 4397 
L 1831 0 
L 1172 0 
L 2766 4134 
L 525 4134 
L 525 4666 
z
" transform="scale(0.015625)"/>
       </defs>
       <use xlink:href="#DejaVuSans-37"/>
       <use xlink:href="#DejaVuSans-35" x="63.623047"/>
       <use xlink:href="#DejaVuSans-30" x="127.246094"/>
      </g>
     </g>
    </g>
    <g id="text_11">
     <!-- step -->
     <g style="fill: #262626" transform="translate(289.269251 428.288531) scale(0.252 -0.252)">
      <defs>
       <path id="DejaVuSans-73" d="M 2834 3397 
L 2834 2853 
Q 2591 2978 2328 3040 
Q 2066 3103 1784 3103 
Q 1356 3103 1142 2972 
Q 928 2841 928 2578 
Q 928 2378 1081 2264 
Q 1234 2150 1697 2047 
L 1894 2003 
Q 2506 1872 2764 1633 
Q 3022 1394 3022 966 
Q 3022 478 2636 193 
Q 2250 -91 1575 -91 
Q 1294 -91 989 -36 
Q 684 19 347 128 
L 347 722 
Q 666 556 975 473 
Q 1284 391 1588 391 
Q 1994 391 2212 530 
Q 2431 669 2431 922 
Q 2431 1156 2273 1281 
Q 2116 1406 1581 1522 
L 1381 1569 
Q 847 1681 609 1914 
Q 372 2147 372 2553 
Q 372 3047 722 3315 
Q 1072 3584 1716 3584 
Q 2034 3584 2315 3537 
Q 2597 3491 2834 3397 
z
" transform="scale(0.015625)"/>
       <path id="DejaVuSans-74" d="M 1172 4494 
L 1172 3500 
L 2356 3500 
L 2356 3053 
L 1172 3053 
L 1172 1153 
Q 1172 725 1289 603 
Q 1406 481 1766 481 
L 2356 481 
L 2356 0 
L 1766 0 
Q 1100 0 847 248 
Q 594 497 594 1153 
L 594 3053 
L 172 3053 
L 172 3500 
L 594 3500 
L 594 4494 
L 1172 4494 
z
" transform="scale(0.015625)"/>
       <path id="DejaVuSans-70" d="M 1159 525 
L 1159 -1331 
L 581 -1331 
L 581 3500 
L 1159 3500 
L 1159 2969 
Q 1341 3281 1617 3432 
Q 1894 3584 2278 3584 
Q 2916 3584 3314 3078 
Q 3713 2572 3713 1747 
Q 3713 922 3314 415 
Q 2916 -91 2278 -91 
Q 1894 -91 1617 61 
Q 1341 213 1159 525 
z
M 3116 1747 
Q 3116 2381 2855 2742 
Q 2594 3103 2138 3103 
Q 1681 3103 1420 2742 
Q 1159 2381 1159 1747 
Q 1159 1113 1420 752 
Q 1681 391 2138 391 
Q 2594 391 2855 752 
Q 3116 1113 3116 1747 
z
" transform="scale(0.015625)"/>
      </defs>
      <use xlink:href="#DejaVuSans-73"/>
      <use xlink:href="#DejaVuSans-74" x="52.099609"/>
      <use xlink:href="#DejaVuSans-65" x="91.308594"/>
      <use xlink:href="#DejaVuSans-70" x="152.832031"/>
     </g>
    </g>
   </g>
   <g id="matplotlib.axis_8">
    <g id="ytick_7">
     <g id="line2d_41">
      <path d="M 170.340091 332.840443 
L 462.70916 332.840443 
" clip-path="url(#pc2a7c9258a)" style="fill: none; stroke: #ffffff; stroke-linecap: round"/>
     </g>
     <g id="text_12">
      <!-- −0.2 -->
      <g style="fill: #262626" transform="translate(104.746794 341.616638) scale(0.231 -0.231)">
       <use xlink:href="#DejaVuSans-2212"/>
       <use xlink:href="#DejaVuSans-30" x="83.789062"/>
       <use xlink:href="#DejaVuSans-2e" x="147.412109"/>
       <use xlink:href="#DejaVuSans-32" x="179.199219"/>
      </g>
     </g>
    </g>
    <g id="ytick_8">
     <g id="line2d_42">
      <path d="M 170.340091 268.66732 
L 462.70916 268.66732 
" clip-path="url(#pc2a7c9258a)" style="fill: none; stroke: #ffffff; stroke-linecap: round"/>
     </g>
     <g id="text_13">
      <!-- 0.0 -->
      <g style="fill: #262626" transform="translate(124.103872 277.443515) scale(0.231 -0.231)">
       <use xlink:href="#DejaVuSans-30"/>
       <use xlink:href="#DejaVuSans-2e" x="63.623047"/>
       <use xlink:href="#DejaVuSans-30" x="95.410156"/>
      </g>
     </g>
    </g>
    <g id="text_14">
     <!-- % change -->
     <g style="fill: #262626" transform="translate(95.505982 375.839344) rotate(-90) scale(0.252 -0.252)">
      <use xlink:href="#DejaVuSans-25"/>
      <use xlink:href="#DejaVuSans-20" x="95.019531"/>
      <use xlink:href="#DejaVuSans-63" x="126.806641"/>
      <use xlink:href="#DejaVuSans-68" x="181.787109"/>
      <use xlink:href="#DejaVuSans-61" x="245.166016"/>
      <use xlink:href="#DejaVuSans-6e" x="306.445312"/>
      <use xlink:href="#DejaVuSans-67" x="369.824219"/>
      <use xlink:href="#DejaVuSans-65" x="433.300781"/>
     </g>
    </g>
   </g>
   <g id="PolyCollection_19"/>
   <g id="PolyCollection_20"/>
   <g id="PolyCollection_21"/>
   <g id="PolyCollection_22"/>
   <g id="PolyCollection_23"/>
   <g id="PolyCollection_24"/>
   <g id="line2d_43">
    <path d="M 183.629594 268.66732 
L 183.99419 356.575736 
L 184.358785 359.701697 
L 184.723381 360.538502 
L 185.087976 360.745294 
L 185.817167 360.755458 
L 189.098526 360.409855 
L 190.556907 359.627099 
L 223.0059 341.238554 
L 246.704602 328.018228 
L 266.757351 317.060195 
L 287.903885 305.752027 
L 294.831198 302.211805 
L 309.77961 294.772609 
L 330.926145 284.583873 
L 351.708084 274.816709 
L 360.82297 270.68021 
L 365.198115 269.263388 
L 376.500573 265.766877 
L 379.417336 265.397747 
L 388.532222 264.371495 
L 401.293061 265.714655 
L 408.58497 266.107483 
L 418.793642 266.413256 
L 446.138298 266.886444 
L 449.419657 266.910169 
L 449.419657 266.910169 
" clip-path="url(#pc2a7c9258a)" style="fill: none; stroke: #4c72b0; stroke-opacity: 0.9; stroke-width: 3; stroke-linecap: round"/>
   </g>
   <g id="line2d_44">
    <path d="M 183.629594 268.66732 
L 183.99419 354.048664 
L 184.358785 357.696352 
L 184.723381 358.960126 
L 185.087976 359.405398 
L 185.817167 359.58372 
L 187.640144 359.45553 
L 189.098526 359.320078 
L 190.192312 358.793867 
L 259.830038 321.060925 
L 283.52874 308.646733 
L 302.487702 298.943082 
L 313.79016 293.345234 
L 326.186404 287.575748 
L 349.155916 277.100706 
L 362.281351 271.287298 
L 366.291901 269.956139 
L 378.688145 266.02098 
L 387.803031 264.2861 
L 389.990603 264.421354 
L 406.397397 265.618737 
L 414.418497 265.966678 
L 419.522833 266.241586 
L 423.897978 266.558462 
L 438.84639 266.718971 
L 449.419657 266.822547 
L 449.419657 266.822547 
" clip-path="url(#pc2a7c9258a)" style="fill: none; stroke: #dd8452; stroke-opacity: 0.9; stroke-width: 3; stroke-linecap: round"/>
   </g>
   <g id="line2d_45">
    <path d="M 183.629594 268.66732 
L 183.99419 361.100835 
L 184.358785 366.152169 
L 184.723381 367.434059 
L 185.087976 367.775255 
L 185.817167 367.840258 
L 189.098526 367.454622 
L 190.556907 366.599231 
L 212.068037 353.352328 
L 241.964862 335.255733 
L 262.746801 322.920894 
L 280.611977 312.562478 
L 296.28958 303.704029 
L 313.060969 294.476523 
L 327.644786 286.700188 
L 338.947244 280.939771 
L 355.354038 272.879756 
L 361.187565 270.155653 
L 366.656496 268.113998 
L 370.302451 266.959174 
L 373.219214 266.231748 
L 375.406786 265.88872 
L 388.896817 264.438619 
L 399.470084 265.412163 
L 407.491184 265.916287 
L 434.106649 267.131984 
L 449.055062 267.360699 
L 449.419657 267.363881 
L 449.419657 267.363881 
" clip-path="url(#pc2a7c9258a)" style="fill: none; stroke: #55a868; stroke-opacity: 0.9; stroke-width: 3; stroke-linecap: round"/>
   </g>
   <g id="line2d_46">
    <path d="M 183.629594 268.66732 
L 183.99419 358.045988 
L 184.358785 363.039762 
L 184.723381 364.286041 
L 185.087976 364.610946 
L 185.817167 364.672129 
L 189.098526 364.311003 
L 190.556907 363.491811 
L 219.359946 346.400048 
L 245.975411 330.83977 
L 266.02816 319.354871 
L 283.52874 309.575475 
L 299.206343 301.052549 
L 314.883946 292.770632 
L 329.467763 285.3217 
L 342.228603 279.08316 
L 358.635397 271.376856 
L 361.916756 269.992502 
L 367.750283 267.967319 
L 372.125428 266.802077 
L 374.313 266.416783 
L 380.511122 265.576824 
L 388.167626 264.668507 
L 405.668207 265.789892 
L 422.075001 266.594191 
L 430.0961 266.961435 
L 441.398558 267.225734 
L 449.419657 267.32301 
L 449.419657 267.32301 
" clip-path="url(#pc2a7c9258a)" style="fill: none; stroke: #c44e52; stroke-opacity: 0.9; stroke-width: 3; stroke-linecap: round"/>
   </g>
   <g id="line2d_47">
    <path d="M 183.629594 268.66732 
L 183.99419 359.800012 
L 184.358785 363.832255 
L 184.723381 364.513953 
L 185.087976 364.628768 
L 186.546358 364.514263 
L 189.098526 364.234233 
L 191.650694 362.748218 
L 218.99535 346.688962 
L 251.079747 328.081955 
L 276.601427 313.523175 
L 298.112557 301.503315 
L 318.165305 290.583951 
L 330.926145 283.84628 
L 350.249702 274.009632 
L 359.364588 269.533257 
L 364.833519 267.352633 
L 369.208664 265.940869 
L 374.677596 264.34098 
L 385.980054 261.609356 
L 388.167626 261.262592 
L 394.730344 261.642196 
L 404.57442 263.299288 
L 410.043352 263.926618 
L 423.897978 265.182853 
L 431.554482 265.572889 
L 449.419657 266.242672 
L 449.419657 266.242672 
" clip-path="url(#pc2a7c9258a)" style="fill: none; stroke: #8172b3; stroke-opacity: 0.9; stroke-width: 3; stroke-linecap: round"/>
   </g>
   <g id="line2d_48">
    <path d="M 183.629594 268.66732 
L 183.99419 357.714217 
L 184.358785 361.067433 
L 184.723381 361.700563 
L 185.452571 361.802623 
L 189.098526 361.439893 
L 191.650694 360.008493 
L 216.443182 345.99705 
L 246.704602 329.142922 
L 273.684664 314.372419 
L 293.737412 303.629007 
L 315.613137 292.149923 
L 330.196954 284.707178 
L 349.155916 275.347369 
L 360.458374 269.95407 
L 363.010542 268.951993 
L 369.937855 266.744011 
L 377.594359 264.554864 
L 382.698695 263.265501 
L 387.803031 262.128358 
L 389.990603 262.237765 
L 394.730344 262.633303 
L 410.043352 264.461861 
L 416.606069 264.941974 
L 426.450146 265.423891 
L 440.304772 265.786149 
L 449.419657 265.976835 
L 449.419657 265.976835 
" clip-path="url(#pc2a7c9258a)" style="fill: none; stroke: #937860; stroke-opacity: 0.9; stroke-width: 3; stroke-linecap: round"/>
   </g>
   <g id="patch_12">
    <path d="M 170.340091 373.284 
L 170.340091 253.698 
" style="fill: none; stroke: #ffffff; stroke-width: 1.25; stroke-linejoin: miter; stroke-linecap: square"/>
   </g>
   <g id="patch_13">
    <path d="M 170.340091 373.284 
L 462.70916 373.284 
" style="fill: none; stroke: #ffffff; stroke-width: 1.25; stroke-linejoin: miter; stroke-linecap: square"/>
   </g>
   <g id="text_15">
    <!-- 0.85~365 -->
    <g style="fill: #262626" transform="translate(253.861282 247.698) scale(0.252 -0.252)">
     <use xlink:href="#DejaVuSans-30"/>
     <use xlink:href="#DejaVuSans-2e" x="63.623047"/>
     <use xlink:href="#DejaVuSans-38" x="95.410156"/>
     <use xlink:href="#DejaVuSans-35" x="159.033203"/>
     <use xlink:href="#DejaVuSans-7e" x="222.65625"/>
     <use xlink:href="#DejaVuSans-33" x="306.445312"/>
     <use xlink:href="#DejaVuSans-36" x="370.068359"/>
     <use xlink:href="#DejaVuSans-35" x="433.691406"/>
    </g>
   </g>
  </g>
  <g id="axes_5">
   <g id="patch_14">
    <path d="M 489.290298 373.284 
L 781.659367 373.284 
L 781.659367 253.698 
L 489.290298 253.698 
z
" style="fill: #eaeaf2"/>
   </g>
   <g id="matplotlib.axis_9">
    <g id="xtick_17">
     <g id="line2d_49">
      <path d="M 502.579801 373.284 
L 502.579801 253.698 
" clip-path="url(#p855a89d333)" style="fill: none; stroke: #ffffff; stroke-linecap: round"/>
     </g>
     <g id="text_16">
      <!-- 0 -->
      <g style="fill: #262626" transform="translate(495.231113 400.336391) scale(0.231 -0.231)">
       <use xlink:href="#DejaVuSans-30"/>
      </g>
     </g>
    </g>
    <g id="xtick_18">
     <g id="line2d_50">
      <path d="M 593.728656 373.284 
L 593.728656 253.698 
" clip-path="url(#p855a89d333)" style="fill: none; stroke: #ffffff; stroke-linecap: round"/>
     </g>
     <g id="text_17">
      <!-- 250 -->
      <g style="fill: #262626" transform="translate(571.682594 400.336391) scale(0.231 -0.231)">
       <use xlink:href="#DejaVuSans-32"/>
       <use xlink:href="#DejaVuSans-35" x="63.623047"/>
       <use xlink:href="#DejaVuSans-30" x="127.246094"/>
      </g>
     </g>
    </g>
    <g id="xtick_19">
     <g id="line2d_51">
      <path d="M 684.877512 373.284 
L 684.877512 253.698 
" clip-path="url(#p855a89d333)" style="fill: none; stroke: #ffffff; stroke-linecap: round"/>
     </g>
     <g id="text_18">
      <!-- 500 -->
      <g style="fill: #262626" transform="translate(662.83145 400.336391) scale(0.231 -0.231)">
       <use xlink:href="#DejaVuSans-35"/>
       <use xlink:href="#DejaVuSans-30" x="63.623047"/>
       <use xlink:href="#DejaVuSans-30" x="127.246094"/>
      </g>
     </g>
    </g>
    <g id="xtick_20">
     <g id="line2d_52">
      <path d="M 776.026368 373.284 
L 776.026368 253.698 
" clip-path="url(#p855a89d333)" style="fill: none; stroke: #ffffff; stroke-linecap: round"/>
     </g>
     <g id="text_19">
      <!-- 750 -->
      <g style="fill: #262626" transform="translate(753.980305 400.336391) scale(0.231 -0.231)">
       <use xlink:href="#DejaVuSans-37"/>
       <use xlink:href="#DejaVuSans-35" x="63.623047"/>
       <use xlink:href="#DejaVuSans-30" x="127.246094"/>
      </g>
     </g>
    </g>
    <g id="text_20">
     <!-- step -->
     <g style="fill: #262626" transform="translate(608.219457 428.288531) scale(0.252 -0.252)">
      <use xlink:href="#DejaVuSans-73"/>
      <use xlink:href="#DejaVuSans-74" x="52.099609"/>
      <use xlink:href="#DejaVuSans-65" x="91.308594"/>
      <use xlink:href="#DejaVuSans-70" x="152.832031"/>
     </g>
    </g>
   </g>
   <g id="matplotlib.axis_10">
    <g id="ytick_9">
     <g id="line2d_53">
      <path d="M 489.290298 332.840443 
L 781.659367 332.840443 
" clip-path="url(#p855a89d333)" style="fill: none; stroke: #ffffff; stroke-linecap: round"/>
     </g>
    </g>
    <g id="ytick_10">
     <g id="line2d_54">
      <path d="M 489.290298 268.66732 
L 781.659367 268.66732 
" clip-path="url(#p855a89d333)" style="fill: none; stroke: #ffffff; stroke-linecap: round"/>
     </g>
    </g>
   </g>
   <g id="PolyCollection_25"/>
   <g id="PolyCollection_26"/>
   <g id="PolyCollection_27"/>
   <g id="PolyCollection_28"/>
   <g id="PolyCollection_29"/>
   <g id="PolyCollection_30"/>
   <g id="line2d_55">
    <path d="M 502.579801 268.66732 
L 502.944396 356.575736 
L 503.308992 359.604069 
L 503.673587 360.327645 
L 504.038182 360.417192 
L 505.131969 360.039381 
L 508.048732 358.792873 
L 509.871709 357.2281 
L 518.986595 349.327597 
L 529.195267 340.82023 
L 540.497725 331.7101 
L 546.695847 326.941143 
L 557.998305 318.838274 
L 564.196427 314.601607 
L 575.13429 307.428332 
L 585.707557 300.762844 
L 595.916229 294.583756 
L 606.124901 288.662392 
L 616.698168 282.787352 
L 627.271435 277.170503 
L 630.188199 275.765435 
L 635.292535 273.662627 
L 636.386321 273.333073 
L 646.230397 271.255434 
L 660.085023 268.211307 
L 665.189359 267.194044 
L 675.033436 265.807812 
L 699.461329 262.127581 
L 707.482428 261.314801 
L 711.857573 261.603846 
L 720.972459 262.283316 
L 725.712199 262.742762 
L 731.910322 263.100261 
L 742.118993 263.341325 
L 757.796597 263.471319 
L 768.369864 263.503689 
L 768.369864 263.503689 
" clip-path="url(#p855a89d333)" style="fill: none; stroke: #4c72b0; stroke-opacity: 0.9; stroke-width: 3; stroke-linecap: round"/>
   </g>
   <g id="line2d_56">
    <path d="M 502.579801 268.66732 
L 502.944396 354.048664 
L 503.308992 357.616272 
L 503.673587 358.786197 
L 504.038182 359.132889 
L 504.767373 359.110474 
L 506.954946 358.347668 
L 508.413328 357.699419 
L 512.059282 354.762365 
L 522.632549 346.367671 
L 533.570412 337.93885 
L 545.237465 329.225626 
L 556.175328 321.380844 
L 562.008855 317.39587 
L 571.488336 311.382734 
L 580.967817 305.74324 
L 592.999466 298.831895 
L 604.666519 292.383802 
L 616.333573 286.193086 
L 628.000626 280.253314 
L 631.64658 278.537383 
L 637.480107 276.118688 
L 640.032275 275.513864 
L 648.053374 273.539674 
L 677.585604 266.016732 
L 689.617253 263.544202 
L 691.804825 263.165911 
L 695.450779 262.823298 
L 699.096733 262.447852 
L 703.836474 261.476339 
L 707.482428 260.786243 
L 710.399192 260.866432 
L 721.337054 261.333882 
L 726.076795 261.562037 
L 734.827085 261.881229 
L 746.494138 262.252151 
L 757.432001 262.535248 
L 768.369864 262.630558 
L 768.369864 262.630558 
" clip-path="url(#p855a89d333)" style="fill: none; stroke: #dd8452; stroke-opacity: 0.9; stroke-width: 3; stroke-linecap: round"/>
   </g>
   <g id="line2d_57">
    <path d="M 502.579801 268.66732 
L 502.944396 361.100835 
L 503.308992 366.047014 
L 503.673587 367.206084 
L 504.038182 367.419852 
L 504.767373 367.227857 
L 508.048732 365.695782 
L 509.871709 363.987591 
L 518.257404 356.06475 
L 527.372289 347.794404 
L 537.945557 338.50797 
L 542.685297 334.568571 
L 547.789633 330.656595 
L 557.63371 323.634063 
L 565.290213 318.406611 
L 583.519985 305.778895 
L 592.999466 299.817659 
L 618.521145 284.129868 
L 625.813054 279.823955 
L 633.834153 275.384837 
L 638.209298 273.315646 
L 642.584443 271.457866 
L 645.136611 270.531251 
L 648.41797 269.612621 
L 652.063924 268.777469 
L 665.189359 266.163114 
L 675.398031 264.937631 
L 697.273756 262.548242 
L 707.847024 261.853021 
L 722.430841 263.174621 
L 730.087344 263.580363 
L 741.389802 263.912042 
L 754.515238 264.082657 
L 768.369864 264.153338 
L 768.369864 264.153338 
" clip-path="url(#p855a89d333)" style="fill: none; stroke: #55a868; stroke-opacity: 0.9; stroke-width: 3; stroke-linecap: round"/>
   </g>
   <g id="line2d_58">
    <path d="M 502.579801 268.66732 
L 502.944396 358.045988 
L 503.308992 362.939038 
L 503.673587 364.067144 
L 504.038182 364.269492 
L 504.767373 364.083194 
L 508.048732 362.617654 
L 509.871709 360.976049 
L 518.986595 352.682039 
L 529.195267 343.713354 
L 535.028793 338.796725 
L 549.248015 328.028153 
L 555.810732 323.524536 
L 564.561023 317.798913 
L 575.13429 310.566034 
L 581.697007 306.15567 
L 589.718107 301.146431 
L 605.031114 291.928499 
L 621.073313 282.426389 
L 630.917389 276.961189 
L 635.292535 274.710859 
L 640.39687 272.511002 
L 643.313634 271.471999 
L 648.053374 269.981883 
L 654.980687 268.35445 
L 663.366382 266.697887 
L 665.91855 266.351816 
L 671.022886 265.831634 
L 678.314794 265.003529 
L 697.638352 262.650876 
L 707.117833 261.721955 
L 708.94081 261.868592 
L 715.503527 262.521955 
L 724.618413 263.08619 
L 735.556276 263.538399 
L 746.858734 263.758298 
L 768.005268 263.892301 
L 768.369864 263.894079 
L 768.369864 263.894079 
" clip-path="url(#p855a89d333)" style="fill: none; stroke: #c44e52; stroke-opacity: 0.9; stroke-width: 3; stroke-linecap: round"/>
   </g>
   <g id="line2d_59">
    <path d="M 502.579801 268.66732 
L 502.944396 359.800012 
L 503.308992 363.719929 
L 503.673587 364.281332 
L 504.038182 364.274668 
L 505.496564 363.675463 
L 508.048732 362.557176 
L 510.965495 359.918181 
L 520.444976 351.464188 
L 531.018244 342.329046 
L 541.956106 333.171969 
L 553.258564 324.007128 
L 564.196427 315.483368 
L 574.769694 307.515697 
L 580.603221 303.352766 
L 591.541084 295.807534 
L 602.114351 288.786254 
L 612.323023 282.280599 
L 621.802504 276.498 
L 628.729817 272.485099 
L 631.64658 271.129631 
L 637.844703 268.411366 
L 641.490657 267.041215 
L 648.053374 264.811395 
L 652.793115 264.103711 
L 663.001787 262.637692 
L 677.950199 261.057674 
L 681.231558 260.873296 
L 690.711039 260.72769 
L 696.17997 260.817318 
L 701.284306 260.652604 
L 705.294856 260.549528 
L 708.211619 260.648685 
L 714.409741 261.237036 
L 721.337054 261.625842 
L 727.535176 262.01327 
L 733.004108 262.491418 
L 740.296016 262.83286 
L 751.96307 263.138433 
L 768.369864 263.327523 
L 768.369864 263.327523 
" clip-path="url(#p855a89d333)" style="fill: none; stroke: #8172b3; stroke-opacity: 0.9; stroke-width: 3; stroke-linecap: round"/>
   </g>
   <g id="line2d_60">
    <path d="M 502.579801 268.66732 
L 502.944396 357.714217 
L 503.308992 360.962718 
L 503.673587 361.48402 
L 504.038182 361.477883 
L 505.496564 360.920632 
L 508.048732 359.882264 
L 511.330091 357.059182 
L 520.809572 349.039911 
L 531.018244 340.691068 
L 541.591511 332.313639 
L 552.893969 323.69317 
L 563.831832 315.627067 
L 573.675908 308.629721 
L 584.613771 301.271729 
L 594.822443 294.667155 
L 606.124901 287.635036 
L 617.062763 281.095264 
L 626.90684 275.457346 
L 630.552794 273.567376 
L 635.292535 271.491593 
L 640.032275 269.686419 
L 648.782565 266.574224 
L 651.334733 265.942818 
L 656.439069 264.835502 
L 664.824764 263.331785 
L 669.564504 262.708164 
L 701.284306 259.190279 
L 703.107283 259.144595 
L 707.482428 259.403878 
L 709.670001 259.909074 
L 711.857573 260.375366 
L 715.868123 260.791481 
L 722.066245 261.213929 
L 746.858734 262.393632 
L 756.338215 262.632348 
L 768.369864 262.779497 
L 768.369864 262.779497 
" clip-path="url(#p855a89d333)" style="fill: none; stroke: #937860; stroke-opacity: 0.9; stroke-width: 3; stroke-linecap: round"/>
   </g>
   <g id="patch_15">
    <path d="M 489.290298 373.284 
L 489.290298 253.698 
" style="fill: none; stroke: #ffffff; stroke-width: 1.25; stroke-linejoin: miter; stroke-linecap: square"/>
   </g>
   <g id="patch_16">
    <path d="M 489.290298 373.284 
L 781.659367 373.284 
" style="fill: none; stroke: #ffffff; stroke-width: 1.25; stroke-linejoin: miter; stroke-linecap: square"/>
   </g>
   <g id="text_21">
    <!-- 0.95~90 -->
    <g style="fill: #262626" transform="translate(580.828239 247.698) scale(0.252 -0.252)">
     <use xlink:href="#DejaVuSans-30"/>
     <use xlink:href="#DejaVuSans-2e" x="63.623047"/>
     <use xlink:href="#DejaVuSans-39" x="95.410156"/>
     <use xlink:href="#DejaVuSans-35" x="159.033203"/>
     <use xlink:href="#DejaVuSans-7e" x="222.65625"/>
     <use xlink:href="#DejaVuSans-39" x="306.445312"/>
     <use xlink:href="#DejaVuSans-30" x="370.068359"/>
    </g>
   </g>
  </g>
  <g id="axes_6">
   <g id="patch_17">
    <path d="M 808.240504 373.284 
L 1100.609573 373.284 
L 1100.609573 253.698 
L 808.240504 253.698 
z
" style="fill: #eaeaf2"/>
   </g>
   <g id="matplotlib.axis_11">
    <g id="xtick_21">
     <g id="line2d_61">
      <path d="M 821.530007 373.284 
L 821.530007 253.698 
" clip-path="url(#p5c604ed7bd)" style="fill: none; stroke: #ffffff; stroke-linecap: round"/>
     </g>
     <g id="text_22">
      <!-- 0 -->
      <g style="fill: #262626" transform="translate(814.18132 400.336391) scale(0.231 -0.231)">
       <use xlink:href="#DejaVuSans-30"/>
      </g>
     </g>
    </g>
    <g id="xtick_22">
     <g id="line2d_62">
      <path d="M 912.678863 373.284 
L 912.678863 253.698 
" clip-path="url(#p5c604ed7bd)" style="fill: none; stroke: #ffffff; stroke-linecap: round"/>
     </g>
     <g id="text_23">
      <!-- 250 -->
      <g style="fill: #262626" transform="translate(890.6328 400.336391) scale(0.231 -0.231)">
       <use xlink:href="#DejaVuSans-32"/>
       <use xlink:href="#DejaVuSans-35" x="63.623047"/>
       <use xlink:href="#DejaVuSans-30" x="127.246094"/>
      </g>
     </g>
    </g>
    <g id="xtick_23">
     <g id="line2d_63">
      <path d="M 1003.827719 373.284 
L 1003.827719 253.698 
" clip-path="url(#p5c604ed7bd)" style="fill: none; stroke: #ffffff; stroke-linecap: round"/>
     </g>
     <g id="text_24">
      <!-- 500 -->
      <g style="fill: #262626" transform="translate(981.781656 400.336391) scale(0.231 -0.231)">
       <use xlink:href="#DejaVuSans-35"/>
       <use xlink:href="#DejaVuSans-30" x="63.623047"/>
       <use xlink:href="#DejaVuSans-30" x="127.246094"/>
      </g>
     </g>
    </g>
    <g id="xtick_24">
     <g id="line2d_64">
      <path d="M 1094.976574 373.284 
L 1094.976574 253.698 
" clip-path="url(#p5c604ed7bd)" style="fill: none; stroke: #ffffff; stroke-linecap: round"/>
     </g>
     <g id="text_25">
      <!-- 750 -->
      <g style="fill: #262626" transform="translate(1072.930512 400.336391) scale(0.231 -0.231)">
       <use xlink:href="#DejaVuSans-37"/>
       <use xlink:href="#DejaVuSans-35" x="63.623047"/>
       <use xlink:href="#DejaVuSans-30" x="127.246094"/>
      </g>
     </g>
    </g>
    <g id="text_26">
     <!-- step -->
     <g style="fill: #262626" transform="translate(927.169664 428.288531) scale(0.252 -0.252)">
      <use xlink:href="#DejaVuSans-73"/>
      <use xlink:href="#DejaVuSans-74" x="52.099609"/>
      <use xlink:href="#DejaVuSans-65" x="91.308594"/>
      <use xlink:href="#DejaVuSans-70" x="152.832031"/>
     </g>
    </g>
   </g>
   <g id="matplotlib.axis_12">
    <g id="ytick_11">
     <g id="line2d_65">
      <path d="M 808.240504 332.840443 
L 1100.609573 332.840443 
" clip-path="url(#p5c604ed7bd)" style="fill: none; stroke: #ffffff; stroke-linecap: round"/>
     </g>
    </g>
    <g id="ytick_12">
     <g id="line2d_66">
      <path d="M 808.240504 268.66732 
L 1100.609573 268.66732 
" clip-path="url(#p5c604ed7bd)" style="fill: none; stroke: #ffffff; stroke-linecap: round"/>
     </g>
    </g>
   </g>
   <g id="PolyCollection_31"/>
   <g id="PolyCollection_32"/>
   <g id="PolyCollection_33"/>
   <g id="PolyCollection_34"/>
   <g id="PolyCollection_35"/>
   <g id="PolyCollection_36"/>
   <g id="line2d_67">
    <path d="M 821.530007 268.66732 
L 821.894603 356.575736 
L 822.259198 359.701697 
L 822.623794 360.538502 
L 822.988389 360.745294 
L 823.71758 360.755458 
L 826.998939 360.409855 
L 828.45732 359.627099 
L 860.906313 341.238554 
L 884.605015 328.018228 
L 904.657764 317.060195 
L 925.804298 305.752027 
L 932.731611 302.211805 
L 947.680023 294.772609 
L 968.826558 284.583873 
L 989.608497 274.816709 
L 998.723383 270.68021 
L 1003.098528 269.263388 
L 1014.400986 265.766877 
L 1017.317749 265.397747 
L 1026.432635 264.371495 
L 1039.193475 265.714655 
L 1046.485383 266.107483 
L 1056.694055 266.413256 
L 1084.038711 266.886444 
L 1087.32007 266.910169 
L 1087.32007 266.910169 
" clip-path="url(#p5c604ed7bd)" style="fill: none; stroke: #4c72b0; stroke-opacity: 0.9; stroke-width: 3; stroke-linecap: round"/>
   </g>
   <g id="line2d_68">
    <path d="M 821.530007 268.66732 
L 821.894603 354.048664 
L 822.259198 357.696352 
L 822.623794 358.960126 
L 822.988389 359.405398 
L 823.71758 359.58372 
L 825.540557 359.45553 
L 826.998939 359.320078 
L 828.092725 358.793867 
L 897.730451 321.060925 
L 921.429153 308.646733 
L 940.388115 298.943082 
L 951.690573 293.345234 
L 964.086817 287.575748 
L 987.056329 277.100706 
L 1000.181764 271.287298 
L 1004.192314 269.956139 
L 1016.588558 266.02098 
L 1025.703444 264.2861 
L 1027.891016 264.421354 
L 1044.29781 265.618737 
L 1052.31891 265.966678 
L 1057.423246 266.241586 
L 1061.798391 266.558462 
L 1076.746803 266.718971 
L 1087.32007 266.822547 
L 1087.32007 266.822547 
" clip-path="url(#p5c604ed7bd)" style="fill: none; stroke: #dd8452; stroke-opacity: 0.9; stroke-width: 3; stroke-linecap: round"/>
   </g>
   <g id="line2d_69">
    <path d="M 821.530007 268.66732 
L 821.894603 361.100835 
L 822.259198 366.152169 
L 822.623794 367.434059 
L 822.988389 367.775255 
L 823.71758 367.840258 
L 826.998939 367.454622 
L 828.45732 366.599231 
L 849.96845 353.352328 
L 861.270908 346.581866 
L 868.927412 342.534447 
L 878.042298 338.146736 
L 883.875825 335.400762 
L 890.073947 332.226182 
L 900.282619 326.690235 
L 907.574527 322.731939 
L 935.648375 307.98308 
L 946.950833 301.734793 
L 958.253291 295.289441 
L 970.649535 287.939573 
L 994.348238 273.643382 
L 999.087978 270.886682 
L 1002.733932 269.132517 
L 1008.202864 266.868537 
L 1010.755032 266.105279 
L 1012.942604 265.661371 
L 1025.338848 263.886464 
L 1026.068039 263.863591 
L 1046.120788 265.6489 
L 1067.996513 266.797725 
L 1080.392757 267.098471 
L 1087.32007 267.184999 
L 1087.32007 267.184999 
" clip-path="url(#p5c604ed7bd)" style="fill: none; stroke: #55a868; stroke-opacity: 0.9; stroke-width: 3; stroke-linecap: round"/>
   </g>
   <g id="line2d_70">
    <path d="M 821.530007 268.66732 
L 821.894603 358.045988 
L 822.259198 363.039762 
L 822.623794 364.286041 
L 822.988389 364.610946 
L 823.71758 364.672129 
L 826.998939 364.311003 
L 828.45732 363.491811 
L 852.885214 349.003198 
L 855.801977 347.508079 
L 864.552267 342.931006 
L 869.656603 340.315572 
L 874.031748 338.360786 
L 883.875825 333.949671 
L 890.073947 330.874039 
L 897.730451 326.802743 
L 908.303718 321.128575 
L 934.919184 307.403085 
L 947.680023 300.519413 
L 959.347077 293.947245 
L 975.02468 284.835816 
L 998.723383 271.011828 
L 1001.275551 269.835888 
L 1006.744482 267.58295 
L 1009.661245 266.683769 
L 1012.213413 266.108856 
L 1022.422085 264.522899 
L 1026.068039 264.171811 
L 1042.110238 265.371032 
L 1076.017612 266.954949 
L 1087.32007 267.123981 
L 1087.32007 267.123981 
" clip-path="url(#p5c604ed7bd)" style="fill: none; stroke: #c44e52; stroke-opacity: 0.9; stroke-width: 3; stroke-linecap: round"/>
   </g>
   <g id="line2d_71">
    <path d="M 821.530007 268.66732 
L 821.894603 359.800012 
L 822.259198 363.832255 
L 822.623794 364.513953 
L 822.988389 364.628768 
L 824.446771 364.514263 
L 826.998939 364.234233 
L 829.551107 362.748218 
L 856.895763 346.688962 
L 888.98016 328.081955 
L 914.50184 313.523175 
L 936.01297 301.503315 
L 956.065718 290.583951 
L 968.826558 283.84628 
L 988.150115 274.009632 
L 997.265001 269.533257 
L 1002.733932 267.352633 
L 1007.109077 265.940869 
L 1012.578009 264.34098 
L 1023.880467 261.609356 
L 1026.068039 261.262592 
L 1032.630757 261.642196 
L 1042.474833 263.299288 
L 1047.943765 263.926618 
L 1061.798391 265.182853 
L 1069.454895 265.572889 
L 1087.32007 266.242672 
L 1087.32007 266.242672 
" clip-path="url(#p5c604ed7bd)" style="fill: none; stroke: #8172b3; stroke-opacity: 0.9; stroke-width: 3; stroke-linecap: round"/>
   </g>
   <g id="line2d_72">
    <path d="M 821.530007 268.66732 
L 821.894603 357.714217 
L 822.259198 361.067433 
L 822.623794 361.700563 
L 823.352984 361.802623 
L 826.998939 361.439893 
L 829.551107 360.008493 
L 854.343595 345.99705 
L 884.605015 329.142922 
L 911.585077 314.372419 
L 931.637825 303.629007 
L 953.51355 292.149923 
L 968.097367 284.707178 
L 987.056329 275.347369 
L 998.358787 269.95407 
L 1000.910955 268.951993 
L 1007.838268 266.744011 
L 1015.494772 264.554864 
L 1020.599108 263.265501 
L 1025.703444 262.128358 
L 1027.891016 262.237765 
L 1032.630757 262.633303 
L 1047.943765 264.461861 
L 1054.506482 264.941974 
L 1064.350559 265.423891 
L 1078.205185 265.786149 
L 1087.32007 265.976835 
L 1087.32007 265.976835 
" clip-path="url(#p5c604ed7bd)" style="fill: none; stroke: #937860; stroke-opacity: 0.9; stroke-width: 3; stroke-linecap: round"/>
   </g>
   <g id="patch_18">
    <path d="M 808.240504 373.284 
L 808.240504 253.698 
" style="fill: none; stroke: #ffffff; stroke-width: 1.25; stroke-linejoin: miter; stroke-linecap: square"/>
   </g>
   <g id="patch_19">
    <path d="M 808.240504 373.284 
L 1100.609573 373.284 
" style="fill: none; stroke: #ffffff; stroke-width: 1.25; stroke-linejoin: miter; stroke-linecap: square"/>
   </g>
   <g id="text_27">
    <!-- 0.95~365 -->
    <g style="fill: #262626" transform="translate(891.761695 247.698) scale(0.252 -0.252)">
     <use xlink:href="#DejaVuSans-30"/>
     <use xlink:href="#DejaVuSans-2e" x="63.623047"/>
     <use xlink:href="#DejaVuSans-39" x="95.410156"/>
     <use xlink:href="#DejaVuSans-35" x="159.033203"/>
     <use xlink:href="#DejaVuSans-7e" x="222.65625"/>
     <use xlink:href="#DejaVuSans-33" x="306.445312"/>
     <use xlink:href="#DejaVuSans-36" x="370.068359"/>
     <use xlink:href="#DejaVuSans-35" x="433.691406"/>
    </g>
   </g>
  </g>
  <g id="text_28">
   <!-- Production change from pre-shock level -->
   <g style="fill: #262626" transform="translate(280.766836 30.177675) scale(0.3024 -0.3024)">
    <defs>
     <path id="DejaVuSans-50" d="M 1259 4147 
L 1259 2394 
L 2053 2394 
Q 2494 2394 2734 2622 
Q 2975 2850 2975 3272 
Q 2975 3691 2734 3919 
Q 2494 4147 2053 4147 
L 1259 4147 
z
M 628 4666 
L 2053 4666 
Q 2838 4666 3239 4311 
Q 3641 3956 3641 3272 
Q 3641 2581 3239 2228 
Q 2838 1875 2053 1875 
L 1259 1875 
L 1259 0 
L 628 0 
L 628 4666 
z
" transform="scale(0.015625)"/>
     <path id="DejaVuSans-72" d="M 2631 2963 
Q 2534 3019 2420 3045 
Q 2306 3072 2169 3072 
Q 1681 3072 1420 2755 
Q 1159 2438 1159 1844 
L 1159 0 
L 581 0 
L 581 3500 
L 1159 3500 
L 1159 2956 
Q 1341 3275 1631 3429 
Q 1922 3584 2338 3584 
Q 2397 3584 2469 3576 
Q 2541 3569 2628 3553 
L 2631 2963 
z
" transform="scale(0.015625)"/>
     <path id="DejaVuSans-6f" d="M 1959 3097 
Q 1497 3097 1228 2736 
Q 959 2375 959 1747 
Q 959 1119 1226 758 
Q 1494 397 1959 397 
Q 2419 397 2687 759 
Q 2956 1122 2956 1747 
Q 2956 2369 2687 2733 
Q 2419 3097 1959 3097 
z
M 1959 3584 
Q 2709 3584 3137 3096 
Q 3566 2609 3566 1747 
Q 3566 888 3137 398 
Q 2709 -91 1959 -91 
Q 1206 -91 779 398 
Q 353 888 353 1747 
Q 353 2609 779 3096 
Q 1206 3584 1959 3584 
z
" transform="scale(0.015625)"/>
     <path id="DejaVuSans-64" d="M 2906 2969 
L 2906 4863 
L 3481 4863 
L 3481 0 
L 2906 0 
L 2906 525 
Q 2725 213 2448 61 
Q 2172 -91 1784 -91 
Q 1150 -91 751 415 
Q 353 922 353 1747 
Q 353 2572 751 3078 
Q 1150 3584 1784 3584 
Q 2172 3584 2448 3432 
Q 2725 3281 2906 2969 
z
M 947 1747 
Q 947 1113 1208 752 
Q 1469 391 1925 391 
Q 2381 391 2643 752 
Q 2906 1113 2906 1747 
Q 2906 2381 2643 2742 
Q 2381 3103 1925 3103 
Q 1469 3103 1208 2742 
Q 947 2381 947 1747 
z
" transform="scale(0.015625)"/>
     <path id="DejaVuSans-75" d="M 544 1381 
L 544 3500 
L 1119 3500 
L 1119 1403 
Q 1119 906 1312 657 
Q 1506 409 1894 409 
Q 2359 409 2629 706 
Q 2900 1003 2900 1516 
L 2900 3500 
L 3475 3500 
L 3475 0 
L 2900 0 
L 2900 538 
Q 2691 219 2414 64 
Q 2138 -91 1772 -91 
Q 1169 -91 856 284 
Q 544 659 544 1381 
z
M 1991 3584 
L 1991 3584 
z
" transform="scale(0.015625)"/>
     <path id="DejaVuSans-69" d="M 603 3500 
L 1178 3500 
L 1178 0 
L 603 0 
L 603 3500 
z
M 603 4863 
L 1178 4863 
L 1178 4134 
L 603 4134 
L 603 4863 
z
" transform="scale(0.015625)"/>
     <path id="DejaVuSans-66" d="M 2375 4863 
L 2375 4384 
L 1825 4384 
Q 1516 4384 1395 4259 
Q 1275 4134 1275 3809 
L 1275 3500 
L 2222 3500 
L 2222 3053 
L 1275 3053 
L 1275 0 
L 697 0 
L 697 3053 
L 147 3053 
L 147 3500 
L 697 3500 
L 697 3744 
Q 697 4328 969 4595 
Q 1241 4863 1831 4863 
L 2375 4863 
z
" transform="scale(0.015625)"/>
     <path id="DejaVuSans-6d" d="M 3328 2828 
Q 3544 3216 3844 3400 
Q 4144 3584 4550 3584 
Q 5097 3584 5394 3201 
Q 5691 2819 5691 2113 
L 5691 0 
L 5113 0 
L 5113 2094 
Q 5113 2597 4934 2840 
Q 4756 3084 4391 3084 
Q 3944 3084 3684 2787 
Q 3425 2491 3425 1978 
L 3425 0 
L 2847 0 
L 2847 2094 
Q 2847 2600 2669 2842 
Q 2491 3084 2119 3084 
Q 1678 3084 1418 2786 
Q 1159 2488 1159 1978 
L 1159 0 
L 581 0 
L 581 3500 
L 1159 3500 
L 1159 2956 
Q 1356 3278 1631 3431 
Q 1906 3584 2284 3584 
Q 2666 3584 2933 3390 
Q 3200 3197 3328 2828 
z
" transform="scale(0.015625)"/>
     <path id="DejaVuSans-2d" d="M 313 2009 
L 1997 2009 
L 1997 1497 
L 313 1497 
L 313 2009 
z
" transform="scale(0.015625)"/>
     <path id="DejaVuSans-6b" d="M 581 4863 
L 1159 4863 
L 1159 1991 
L 2875 3500 
L 3609 3500 
L 1753 1863 
L 3688 0 
L 2938 0 
L 1159 1709 
L 1159 0 
L 581 0 
L 581 4863 
z
" transform="scale(0.015625)"/>
     <path id="DejaVuSans-6c" d="M 603 4863 
L 1178 4863 
L 1178 0 
L 603 0 
L 603 4863 
z
" transform="scale(0.015625)"/>
     <path id="DejaVuSans-76" d="M 191 3500 
L 800 3500 
L 1894 563 
L 2988 3500 
L 3597 3500 
L 2284 0 
L 1503 0 
L 191 3500 
z
" transform="scale(0.015625)"/>
    </defs>
    <use xlink:href="#DejaVuSans-50"/>
    <use xlink:href="#DejaVuSans-72" x="58.552734"/>
    <use xlink:href="#DejaVuSans-6f" x="97.416016"/>
    <use xlink:href="#DejaVuSans-64" x="158.597656"/>
    <use xlink:href="#DejaVuSans-75" x="222.074219"/>
    <use xlink:href="#DejaVuSans-63" x="285.453125"/>
    <use xlink:href="#DejaVuSans-74" x="340.433594"/>
    <use xlink:href="#DejaVuSans-69" x="379.642578"/>
    <use xlink:href="#DejaVuSans-6f" x="407.425781"/>
    <use xlink:href="#DejaVuSans-6e" x="468.607422"/>
    <use xlink:href="#DejaVuSans-20" x="531.986328"/>
    <use xlink:href="#DejaVuSans-63" x="563.773438"/>
    <use xlink:href="#DejaVuSans-68" x="618.753906"/>
    <use xlink:href="#DejaVuSans-61" x="682.132812"/>
    <use xlink:href="#DejaVuSans-6e" x="743.412109"/>
    <use xlink:href="#DejaVuSans-67" x="806.791016"/>
    <use xlink:href="#DejaVuSans-65" x="870.267578"/>
    <use xlink:href="#DejaVuSans-20" x="931.791016"/>
    <use xlink:href="#DejaVuSans-66" x="963.578125"/>
    <use xlink:href="#DejaVuSans-72" x="998.783203"/>
    <use xlink:href="#DejaVuSans-6f" x="1037.646484"/>
    <use xlink:href="#DejaVuSans-6d" x="1098.828125"/>
    <use xlink:href="#DejaVuSans-20" x="1196.240234"/>
    <use xlink:href="#DejaVuSans-70" x="1228.027344"/>
    <use xlink:href="#DejaVuSans-72" x="1291.503906"/>
    <use xlink:href="#DejaVuSans-65" x="1330.367188"/>
    <use xlink:href="#DejaVuSans-2d" x="1391.890625"/>
    <use xlink:href="#DejaVuSans-73" x="1427.974609"/>
    <use xlink:href="#DejaVuSans-68" x="1480.074219"/>
    <use xlink:href="#DejaVuSans-6f" x="1543.453125"/>
    <use xlink:href="#DejaVuSans-63" x="1604.634766"/>
    <use xlink:href="#DejaVuSans-6b" x="1659.615234"/>
    <use xlink:href="#DejaVuSans-20" x="1717.525391"/>
    <use xlink:href="#DejaVuSans-6c" x="1749.3125"/>
    <use xlink:href="#DejaVuSans-65" x="1777.095703"/>
    <use xlink:href="#DejaVuSans-76" x="1838.619141"/>
    <use xlink:href="#DejaVuSans-65" x="1897.798828"/>
    <use xlink:href="#DejaVuSans-6c" x="1959.322266"/>
   </g>
  </g>
  <g id="legend_1">
   <g id="patch_20">
    <path d="M 11.82 584.31675 
L 1292.617547 584.31675 
Q 1297.237547 584.31675 1297.237547 579.69675 
L 1297.237547 476.97 
Q 1297.237547 472.35 1292.617547 472.35 
L 11.82 472.35 
Q 7.2 472.35 7.2 476.97 
L 7.2 579.69675 
Q 7.2 584.31675 11.82 584.31675 
z
" style="fill: #eaeaf2; opacity: 0.8; stroke: #cccccc; stroke-linejoin: miter"/>
   </g>
   <g id="text_29">
    <!-- Experiences -->
    <g style="fill: #262626" transform="translate(575.384367 500.738062) scale(0.252 -0.252)">
     <defs>
      <path id="DejaVuSans-45" d="M 628 4666 
L 3578 4666 
L 3578 4134 
L 1259 4134 
L 1259 2753 
L 3481 2753 
L 3481 2222 
L 1259 2222 
L 1259 531 
L 3634 531 
L 3634 0 
L 628 0 
L 628 4666 
z
" transform="scale(0.015625)"/>
      <path id="DejaVuSans-78" d="M 3513 3500 
L 2247 1797 
L 3578 0 
L 2900 0 
L 1881 1375 
L 863 0 
L 184 0 
L 1544 1831 
L 300 3500 
L 978 3500 
L 1906 2253 
L 2834 3500 
L 3513 3500 
z
" transform="scale(0.015625)"/>
     </defs>
     <use xlink:href="#DejaVuSans-45"/>
     <use xlink:href="#DejaVuSans-78" x="63.183594"/>
     <use xlink:href="#DejaVuSans-70" x="122.363281"/>
     <use xlink:href="#DejaVuSans-65" x="185.839844"/>
     <use xlink:href="#DejaVuSans-72" x="247.363281"/>
     <use xlink:href="#DejaVuSans-69" x="288.476562"/>
     <use xlink:href="#DejaVuSans-65" x="316.259766"/>
     <use xlink:href="#DejaVuSans-6e" x="377.783203"/>
     <use xlink:href="#DejaVuSans-63" x="441.162109"/>
     <use xlink:href="#DejaVuSans-65" x="496.142578"/>
     <use xlink:href="#DejaVuSans-73" x="557.666016"/>
    </g>
   </g>
   <g id="line2d_73">
    <path d="M 16.44 526.996266 
L 39.54 526.996266 
L 62.64 526.996266 
" style="fill: none; stroke: #4c72b0; stroke-opacity: 0.9; stroke-width: 3; stroke-linecap: round"/>
   </g>
   <g id="text_30">
    <!-- eora26_full_2000 -->
    <g style="fill: #262626" transform="translate(81.12 535.081266) scale(0.231 -0.231)">
     <defs>
      <path id="DejaVuSans-5f" d="M 3263 -1063 
L 3263 -1509 
L -63 -1509 
L -63 -1063 
L 3263 -1063 
z
" transform="scale(0.015625)"/>
     </defs>
     <use xlink:href="#DejaVuSans-65"/>
     <use xlink:href="#DejaVuSans-6f" x="61.523438"/>
     <use xlink:href="#DejaVuSans-72" x="122.705078"/>
     <use xlink:href="#DejaVuSans-61" x="163.818359"/>
     <use xlink:href="#DejaVuSans-32" x="225.097656"/>
     <use xlink:href="#DejaVuSans-36" x="288.720703"/>
     <use xlink:href="#DejaVuSans-5f" x="352.34375"/>
     <use xlink:href="#DejaVuSans-66" x="402.34375"/>
     <use xlink:href="#DejaVuSans-75" x="437.548828"/>
     <use xlink:href="#DejaVuSans-6c" x="500.927734"/>
     <use xlink:href="#DejaVuSans-6c" x="528.710938"/>
     <use xlink:href="#DejaVuSans-5f" x="556.494141"/>
     <use xlink:href="#DejaVuSans-32" x="606.494141"/>
     <use xlink:href="#DejaVuSans-30" x="670.117188"/>
     <use xlink:href="#DejaVuSans-30" x="733.740234"/>
     <use xlink:href="#DejaVuSans-30" x="797.363281"/>
    </g>
   </g>
   <g id="line2d_74">
    <path d="M 16.44 561.545203 
L 39.54 561.545203 
L 62.64 561.545203 
" style="fill: none; stroke: #dd8452; stroke-opacity: 0.9; stroke-width: 3; stroke-linecap: round"/>
   </g>
   <g id="text_31">
    <!-- eora26_full_2010 -->
    <g style="fill: #262626" transform="translate(81.12 569.630203) scale(0.231 -0.231)">
     <defs>
      <path id="DejaVuSans-31" d="M 794 531 
L 1825 531 
L 1825 4091 
L 703 3866 
L 703 4441 
L 1819 4666 
L 2450 4666 
L 2450 531 
L 3481 531 
L 3481 0 
L 794 0 
L 794 531 
z
" transform="scale(0.015625)"/>
     </defs>
     <use xlink:href="#DejaVuSans-65"/>
     <use xlink:href="#DejaVuSans-6f" x="61.523438"/>
     <use xlink:href="#DejaVuSans-72" x="122.705078"/>
     <use xlink:href="#DejaVuSans-61" x="163.818359"/>
     <use xlink:href="#DejaVuSans-32" x="225.097656"/>
     <use xlink:href="#DejaVuSans-36" x="288.720703"/>
     <use xlink:href="#DejaVuSans-5f" x="352.34375"/>
     <use xlink:href="#DejaVuSans-66" x="402.34375"/>
     <use xlink:href="#DejaVuSans-75" x="437.548828"/>
     <use xlink:href="#DejaVuSans-6c" x="500.927734"/>
     <use xlink:href="#DejaVuSans-6c" x="528.710938"/>
     <use xlink:href="#DejaVuSans-5f" x="556.494141"/>
     <use xlink:href="#DejaVuSans-32" x="606.494141"/>
     <use xlink:href="#DejaVuSans-30" x="670.117188"/>
     <use xlink:href="#DejaVuSans-31" x="733.740234"/>
     <use xlink:href="#DejaVuSans-30" x="797.363281"/>
    </g>
   </g>
   <g id="line2d_75">
    <path d="M 326.211 526.996266 
L 349.311 526.996266 
L 372.411 526.996266 
" style="fill: none; stroke: #55a868; stroke-opacity: 0.9; stroke-width: 3; stroke-linecap: round"/>
   </g>
   <g id="text_32">
    <!-- euregio_full_2000 -->
    <g style="fill: #262626" transform="translate(390.891 535.081266) scale(0.231 -0.231)">
     <use xlink:href="#DejaVuSans-65"/>
     <use xlink:href="#DejaVuSans-75" x="61.523438"/>
     <use xlink:href="#DejaVuSans-72" x="124.902344"/>
     <use xlink:href="#DejaVuSans-65" x="163.765625"/>
     <use xlink:href="#DejaVuSans-67" x="225.289062"/>
     <use xlink:href="#DejaVuSans-69" x="288.765625"/>
     <use xlink:href="#DejaVuSans-6f" x="316.548828"/>
     <use xlink:href="#DejaVuSans-5f" x="377.730469"/>
     <use xlink:href="#DejaVuSans-66" x="427.730469"/>
     <use xlink:href="#DejaVuSans-75" x="462.935547"/>
     <use xlink:href="#DejaVuSans-6c" x="526.314453"/>
     <use xlink:href="#DejaVuSans-6c" x="554.097656"/>
     <use xlink:href="#DejaVuSans-5f" x="581.880859"/>
     <use xlink:href="#DejaVuSans-32" x="631.880859"/>
     <use xlink:href="#DejaVuSans-30" x="695.503906"/>
     <use xlink:href="#DejaVuSans-30" x="759.126953"/>
     <use xlink:href="#DejaVuSans-30" x="822.75"/>
    </g>
   </g>
   <g id="line2d_76">
    <path d="M 326.211 561.545203 
L 349.311 561.545203 
L 372.411 561.545203 
" style="fill: none; stroke: #c44e52; stroke-opacity: 0.9; stroke-width: 3; stroke-linecap: round"/>
   </g>
   <g id="text_33">
    <!-- euregio_full_2010 -->
    <g style="fill: #262626" transform="translate(390.891 569.630203) scale(0.231 -0.231)">
     <use xlink:href="#DejaVuSans-65"/>
     <use xlink:href="#DejaVuSans-75" x="61.523438"/>
     <use xlink:href="#DejaVuSans-72" x="124.902344"/>
     <use xlink:href="#DejaVuSans-65" x="163.765625"/>
     <use xlink:href="#DejaVuSans-67" x="225.289062"/>
     <use xlink:href="#DejaVuSans-69" x="288.765625"/>
     <use xlink:href="#DejaVuSans-6f" x="316.548828"/>
     <use xlink:href="#DejaVuSans-5f" x="377.730469"/>
     <use xlink:href="#DejaVuSans-66" x="427.730469"/>
     <use xlink:href="#DejaVuSans-75" x="462.935547"/>
     <use xlink:href="#DejaVuSans-6c" x="526.314453"/>
     <use xlink:href="#DejaVuSans-6c" x="554.097656"/>
     <use xlink:href="#DejaVuSans-5f" x="581.880859"/>
     <use xlink:href="#DejaVuSans-32" x="631.880859"/>
     <use xlink:href="#DejaVuSans-30" x="695.503906"/>
     <use xlink:href="#DejaVuSans-31" x="759.126953"/>
     <use xlink:href="#DejaVuSans-30" x="822.75"/>
    </g>
   </g>
   <g id="line2d_77">
    <path d="M 641.847234 526.996266 
L 664.947234 526.996266 
L 688.047234 526.996266 
" style="fill: none; stroke: #8172b3; stroke-opacity: 0.9; stroke-width: 3; stroke-linecap: round"/>
   </g>
   <g id="text_34">
    <!-- exiobase3_full_2000 -->
    <g style="fill: #262626" transform="translate(706.527234 535.081266) scale(0.231 -0.231)">
     <defs>
      <path id="DejaVuSans-62" d="M 3116 1747 
Q 3116 2381 2855 2742 
Q 2594 3103 2138 3103 
Q 1681 3103 1420 2742 
Q 1159 2381 1159 1747 
Q 1159 1113 1420 752 
Q 1681 391 2138 391 
Q 2594 391 2855 752 
Q 3116 1113 3116 1747 
z
M 1159 2969 
Q 1341 3281 1617 3432 
Q 1894 3584 2278 3584 
Q 2916 3584 3314 3078 
Q 3713 2572 3713 1747 
Q 3713 922 3314 415 
Q 2916 -91 2278 -91 
Q 1894 -91 1617 61 
Q 1341 213 1159 525 
L 1159 0 
L 581 0 
L 581 4863 
L 1159 4863 
L 1159 2969 
z
" transform="scale(0.015625)"/>
     </defs>
     <use xlink:href="#DejaVuSans-65"/>
     <use xlink:href="#DejaVuSans-78" x="59.773438"/>
     <use xlink:href="#DejaVuSans-69" x="118.953125"/>
     <use xlink:href="#DejaVuSans-6f" x="146.736328"/>
     <use xlink:href="#DejaVuSans-62" x="207.917969"/>
     <use xlink:href="#DejaVuSans-61" x="271.394531"/>
     <use xlink:href="#DejaVuSans-73" x="332.673828"/>
     <use xlink:href="#DejaVuSans-65" x="384.773438"/>
     <use xlink:href="#DejaVuSans-33" x="446.296875"/>
     <use xlink:href="#DejaVuSans-5f" x="509.919922"/>
     <use xlink:href="#DejaVuSans-66" x="559.919922"/>
     <use xlink:href="#DejaVuSans-75" x="595.125"/>
     <use xlink:href="#DejaVuSans-6c" x="658.503906"/>
     <use xlink:href="#DejaVuSans-6c" x="686.287109"/>
     <use xlink:href="#DejaVuSans-5f" x="714.070312"/>
     <use xlink:href="#DejaVuSans-32" x="764.070312"/>
     <use xlink:href="#DejaVuSans-30" x="827.693359"/>
     <use xlink:href="#DejaVuSans-30" x="891.316406"/>
     <use xlink:href="#DejaVuSans-30" x="954.939453"/>
    </g>
   </g>
   <g id="line2d_78">
    <path d="M 988.022391 526.996266 
L 1011.122391 526.996266 
L 1034.222391 526.996266 
" style="fill: none; stroke: #937860; stroke-opacity: 0.9; stroke-width: 3; stroke-linecap: round"/>
   </g>
   <g id="text_35">
    <!-- exiobase3_full_2010 -->
    <g style="fill: #262626" transform="translate(1052.702391 535.081266) scale(0.231 -0.231)">
     <use xlink:href="#DejaVuSans-65"/>
     <use xlink:href="#DejaVuSans-78" x="59.773438"/>
     <use xlink:href="#DejaVuSans-69" x="118.953125"/>
     <use xlink:href="#DejaVuSans-6f" x="146.736328"/>
     <use xlink:href="#DejaVuSans-62" x="207.917969"/>
     <use xlink:href="#DejaVuSans-61" x="271.394531"/>
     <use xlink:href="#DejaVuSans-73" x="332.673828"/>
     <use xlink:href="#DejaVuSans-65" x="384.773438"/>
     <use xlink:href="#DejaVuSans-33" x="446.296875"/>
     <use xlink:href="#DejaVuSans-5f" x="509.919922"/>
     <use xlink:href="#DejaVuSans-66" x="559.919922"/>
     <use xlink:href="#DejaVuSans-75" x="595.125"/>
     <use xlink:href="#DejaVuSans-6c" x="658.503906"/>
     <use xlink:href="#DejaVuSans-6c" x="686.287109"/>
     <use xlink:href="#DejaVuSans-5f" x="714.070312"/>
     <use xlink:href="#DejaVuSans-32" x="764.070312"/>
     <use xlink:href="#DejaVuSans-30" x="827.693359"/>
     <use xlink:href="#DejaVuSans-31" x="891.316406"/>
     <use xlink:href="#DejaVuSans-30" x="954.939453"/>
    </g>
   </g>
  </g>
 </g>
 <defs>
  <clipPath id="p4fba874683">
   <rect x="170.340091" y="81.456" width="292.369069" height="119.586"/>
  </clipPath>
  <clipPath id="pf6eb3e41b6">
   <rect x="489.290298" y="81.456" width="292.369069" height="119.586"/>
  </clipPath>
  <clipPath id="p88822a0ad7">
   <rect x="808.240504" y="81.456" width="292.369069" height="119.586"/>
  </clipPath>
  <clipPath id="pc2a7c9258a">
   <rect x="170.340091" y="253.698" width="292.369069" height="119.586"/>
  </clipPath>
  <clipPath id="p855a89d333">
   <rect x="489.290298" y="253.698" width="292.369069" height="119.586"/>
  </clipPath>
  <clipPath id="p5c604ed7bd">
   <rect x="808.240504" y="253.698" width="292.369069" height="119.586"/>
  </clipPath>
 </defs>
</svg>
