<?xml version="1.0" encoding="utf-8" standalone="no"?>
<!DOCTYPE svg PUBLIC "-//W3C//DTD SVG 1.1//EN"
  "http://www.w3.org/Graphics/SVG/1.1/DTD/svg11.dtd">
<svg xmlns:xlink="http://www.w3.org/1999/xlink" width="1304.437547pt" height="364.71675pt" viewBox="0 0 1304.437547 364.71675" xmlns="http://www.w3.org/2000/svg" version="1.1">
 <metadata>
  <rdf:RDF xmlns:dc="http://purl.org/dc/elements/1.1/" xmlns:cc="http://creativecommons.org/ns#" xmlns:rdf="http://www.w3.org/1999/02/22-rdf-syntax-ns#">
   <cc:Work>
    <dc:type rdf:resource="http://purl.org/dc/dcmitype/StillImage"/>
    <dc:date>2023-04-26T19:06:19.074205</dc:date>
    <dc:format>image/svg+xml</dc:format>
    <dc:creator>
     <cc:Agent>
      <dc:title>Matplotlib v3.7.1, https://matplotlib.org/</dc:title>
     </cc:Agent>
    </dc:creator>
   </cc:Work>
  </rdf:RDF>
 </metadata>
 <defs>
  <style type="text/css">*{stroke-linejoin: round; stroke-linecap: butt}</style>
 </defs>
 <g id="figure_1">
  <g id="patch_1">
   <path d="M 0 364.71675 
L 1304.437547 364.71675 
L 1304.437547 0 
L 0 0 
z
" style="fill: #ffffff"/>
  </g>
  <g id="axes_1">
   <g id="patch_2">
    <path d="M 170.340091 146.484 
L 462.70916 146.484 
L 462.70916 70.656 
L 170.340091 70.656 
z
" style="fill: #eaeaf2"/>
   </g>
   <g id="matplotlib.axis_1">
    <g id="xtick_1">
     <g id="line2d_1">
      <path d="M 183.629594 146.484 
L 183.629594 70.656 
" clip-path="url(#p0438027074)" style="fill: none; stroke: #ffffff; stroke-linecap: round"/>
     </g>
     <g id="text_1">
      <!-- 0 -->
      <g style="fill: #262626" transform="translate(176.280907 173.536391) scale(0.231 -0.231)">
       <defs>
        <path id="DejaVuSans-30" d="M 2034 4250 
Q 1547 4250 1301 3770 
Q 1056 3291 1056 2328 
Q 1056 1369 1301 889 
Q 1547 409 2034 409 
Q 2525 409 2770 889 
Q 3016 1369 3016 2328 
Q 3016 3291 2770 3770 
Q 2525 4250 2034 4250 
z
M 2034 4750 
Q 2819 4750 3233 4129 
Q 3647 3509 3647 2328 
Q 3647 1150 3233 529 
Q 2819 -91 2034 -91 
Q 1250 -91 836 529 
Q 422 1150 422 2328 
Q 422 3509 836 4129 
Q 1250 4750 2034 4750 
z
" transform="scale(0.015625)"/>
       </defs>
       <use xlink:href="#DejaVuSans-30"/>
      </g>
     </g>
    </g>
    <g id="xtick_2">
     <g id="line2d_2">
      <path d="M 274.77845 146.484 
L 274.77845 70.656 
" clip-path="url(#p0438027074)" style="fill: none; stroke: #ffffff; stroke-linecap: round"/>
     </g>
     <g id="text_2">
      <!-- 250 -->
      <g style="fill: #262626" transform="translate(252.732387 173.536391) scale(0.231 -0.231)">
       <defs>
        <path id="DejaVuSans-32" d="M 1228 531 
L 3431 531 
L 3431 0 
L 469 0 
L 469 531 
Q 828 903 1448 1529 
Q 2069 2156 2228 2338 
Q 2531 2678 2651 2914 
Q 2772 3150 2772 3378 
Q 2772 3750 2511 3984 
Q 2250 4219 1831 4219 
Q 1534 4219 1204 4116 
Q 875 4013 500 3803 
L 500 4441 
Q 881 4594 1212 4672 
Q 1544 4750 1819 4750 
Q 2544 4750 2975 4387 
Q 3406 4025 3406 3419 
Q 3406 3131 3298 2873 
Q 3191 2616 2906 2266 
Q 2828 2175 2409 1742 
Q 1991 1309 1228 531 
z
" transform="scale(0.015625)"/>
        <path id="DejaVuSans-35" d="M 691 4666 
L 3169 4666 
L 3169 4134 
L 1269 4134 
L 1269 2991 
Q 1406 3038 1543 3061 
Q 1681 3084 1819 3084 
Q 2600 3084 3056 2656 
Q 3513 2228 3513 1497 
Q 3513 744 3044 326 
Q 2575 -91 1722 -91 
Q 1428 -91 1123 -41 
Q 819 9 494 109 
L 494 744 
Q 775 591 1075 516 
Q 1375 441 1709 441 
Q 2250 441 2565 725 
Q 2881 1009 2881 1497 
Q 2881 1984 2565 2268 
Q 2250 2553 1709 2553 
Q 1456 2553 1204 2497 
Q 953 2441 691 2322 
L 691 4666 
z
" transform="scale(0.015625)"/>
       </defs>
       <use xlink:href="#DejaVuSans-32"/>
       <use xlink:href="#DejaVuSans-35" x="63.623047"/>
       <use xlink:href="#DejaVuSans-30" x="127.246094"/>
      </g>
     </g>
    </g>
    <g id="xtick_3">
     <g id="line2d_3">
      <path d="M 365.927305 146.484 
L 365.927305 70.656 
" clip-path="url(#p0438027074)" style="fill: none; stroke: #ffffff; stroke-linecap: round"/>
     </g>
     <g id="text_3">
      <!-- 500 -->
      <g style="fill: #262626" transform="translate(343.881243 173.536391) scale(0.231 -0.231)">
       <use xlink:href="#DejaVuSans-35"/>
       <use xlink:href="#DejaVuSans-30" x="63.623047"/>
       <use xlink:href="#DejaVuSans-30" x="127.246094"/>
      </g>
     </g>
    </g>
    <g id="xtick_4">
     <g id="line2d_4">
      <path d="M 457.076161 146.484 
L 457.076161 70.656 
" clip-path="url(#p0438027074)" style="fill: none; stroke: #ffffff; stroke-linecap: round"/>
     </g>
     <g id="text_4">
      <!-- 750 -->
      <g style="fill: #262626" transform="translate(435.030099 173.536391) scale(0.231 -0.231)">
       <defs>
        <path id="DejaVuSans-37" d="M 525 4666 
L 3525 4666 
L 3525 4397 
L 1831 0 
L 1172 0 
L 2766 4134 
L 525 4134 
L 525 4666 
z
" transform="scale(0.015625)"/>
       </defs>
       <use xlink:href="#DejaVuSans-37"/>
       <use xlink:href="#DejaVuSans-35" x="63.623047"/>
       <use xlink:href="#DejaVuSans-30" x="127.246094"/>
      </g>
     </g>
    </g>
    <g id="text_5">
     <!-- step -->
     <g style="fill: #262626" transform="translate(289.269251 201.488531) scale(0.252 -0.252)">
      <defs>
       <path id="DejaVuSans-73" d="M 2834 3397 
L 2834 2853 
Q 2591 2978 2328 3040 
Q 2066 3103 1784 3103 
Q 1356 3103 1142 2972 
Q 928 2841 928 2578 
Q 928 2378 1081 2264 
Q 1234 2150 1697 2047 
L 1894 2003 
Q 2506 1872 2764 1633 
Q 3022 1394 3022 966 
Q 3022 478 2636 193 
Q 2250 -91 1575 -91 
Q 1294 -91 989 -36 
Q 684 19 347 128 
L 347 722 
Q 666 556 975 473 
Q 1284 391 1588 391 
Q 1994 391 2212 530 
Q 2431 669 2431 922 
Q 2431 1156 2273 1281 
Q 2116 1406 1581 1522 
L 1381 1569 
Q 847 1681 609 1914 
Q 372 2147 372 2553 
Q 372 3047 722 3315 
Q 1072 3584 1716 3584 
Q 2034 3584 2315 3537 
Q 2597 3491 2834 3397 
z
" transform="scale(0.015625)"/>
       <path id="DejaVuSans-74" d="M 1172 4494 
L 1172 3500 
L 2356 3500 
L 2356 3053 
L 1172 3053 
L 1172 1153 
Q 1172 725 1289 603 
Q 1406 481 1766 481 
L 2356 481 
L 2356 0 
L 1766 0 
Q 1100 0 847 248 
Q 594 497 594 1153 
L 594 3053 
L 172 3053 
L 172 3500 
L 594 3500 
L 594 4494 
L 1172 4494 
z
" transform="scale(0.015625)"/>
       <path id="DejaVuSans-65" d="M 3597 1894 
L 3597 1613 
L 953 1613 
Q 991 1019 1311 708 
Q 1631 397 2203 397 
Q 2534 397 2845 478 
Q 3156 559 3463 722 
L 3463 178 
Q 3153 47 2828 -22 
Q 2503 -91 2169 -91 
Q 1331 -91 842 396 
Q 353 884 353 1716 
Q 353 2575 817 3079 
Q 1281 3584 2069 3584 
Q 2775 3584 3186 3129 
Q 3597 2675 3597 1894 
z
M 3022 2063 
Q 3016 2534 2758 2815 
Q 2500 3097 2075 3097 
Q 1594 3097 1305 2825 
Q 1016 2553 972 2059 
L 3022 2063 
z
" transform="scale(0.015625)"/>
       <path id="DejaVuSans-70" d="M 1159 525 
L 1159 -1331 
L 581 -1331 
L 581 3500 
L 1159 3500 
L 1159 2969 
Q 1341 3281 1617 3432 
Q 1894 3584 2278 3584 
Q 2916 3584 3314 3078 
Q 3713 2572 3713 1747 
Q 3713 922 3314 415 
Q 2916 -91 2278 -91 
Q 1894 -91 1617 61 
Q 1341 213 1159 525 
z
M 3116 1747 
Q 3116 2381 2855 2742 
Q 2594 3103 2138 3103 
Q 1681 3103 1420 2742 
Q 1159 2381 1159 1747 
Q 1159 1113 1420 752 
Q 1681 391 2138 391 
Q 2594 391 2855 752 
Q 3116 1113 3116 1747 
z
" transform="scale(0.015625)"/>
      </defs>
      <use xlink:href="#DejaVuSans-73"/>
      <use xlink:href="#DejaVuSans-74" x="52.099609"/>
      <use xlink:href="#DejaVuSans-65" x="91.308594"/>
      <use xlink:href="#DejaVuSans-70" x="152.832031"/>
     </g>
    </g>
   </g>
   <g id="matplotlib.axis_2">
    <g id="ytick_1">
     <g id="line2d_5">
      <path d="M 170.340091 138.64927 
L 462.70916 138.64927 
" clip-path="url(#p0438027074)" style="fill: none; stroke: #ffffff; stroke-linecap: round"/>
     </g>
     <g id="text_6">
      <!-- −0.5 -->
      <g style="fill: #262626" transform="translate(104.746794 147.425465) scale(0.231 -0.231)">
       <defs>
        <path id="DejaVuSans-2212" d="M 678 2272 
L 4684 2272 
L 4684 1741 
L 678 1741 
L 678 2272 
z
" transform="scale(0.015625)"/>
        <path id="DejaVuSans-2e" d="M 684 794 
L 1344 794 
L 1344 0 
L 684 0 
L 684 794 
z
" transform="scale(0.015625)"/>
       </defs>
       <use xlink:href="#DejaVuSans-2212"/>
       <use xlink:href="#DejaVuSans-30" x="83.789062"/>
       <use xlink:href="#DejaVuSans-2e" x="147.412109"/>
       <use xlink:href="#DejaVuSans-35" x="179.199219"/>
      </g>
     </g>
    </g>
    <g id="ytick_2">
     <g id="line2d_6">
      <path d="M 170.340091 106.936707 
L 462.70916 106.936707 
" clip-path="url(#p0438027074)" style="fill: none; stroke: #ffffff; stroke-linecap: round"/>
     </g>
     <g id="text_7">
      <!-- 0.0 -->
      <g style="fill: #262626" transform="translate(124.103872 115.712903) scale(0.231 -0.231)">
       <use xlink:href="#DejaVuSans-30"/>
       <use xlink:href="#DejaVuSans-2e" x="63.623047"/>
       <use xlink:href="#DejaVuSans-30" x="95.410156"/>
      </g>
     </g>
    </g>
    <g id="ytick_3">
     <g id="line2d_7">
      <path d="M 170.340091 75.224145 
L 462.70916 75.224145 
" clip-path="url(#p0438027074)" style="fill: none; stroke: #ffffff; stroke-linecap: round"/>
     </g>
     <g id="text_8">
      <!-- 0.5 -->
      <g style="fill: #262626" transform="translate(124.103872 84.00034) scale(0.231 -0.231)">
       <use xlink:href="#DejaVuSans-30"/>
       <use xlink:href="#DejaVuSans-2e" x="63.623047"/>
       <use xlink:href="#DejaVuSans-35" x="95.410156"/>
      </g>
     </g>
    </g>
    <g id="text_9">
     <!-- % change -->
     <g style="fill: #262626" transform="translate(95.505982 170.918344) rotate(-90) scale(0.252 -0.252)">
      <defs>
       <path id="DejaVuSans-25" d="M 4653 2053 
Q 4381 2053 4226 1822 
Q 4072 1591 4072 1178 
Q 4072 772 4226 539 
Q 4381 306 4653 306 
Q 4919 306 5073 539 
Q 5228 772 5228 1178 
Q 5228 1588 5073 1820 
Q 4919 2053 4653 2053 
z
M 4653 2450 
Q 5147 2450 5437 2106 
Q 5728 1763 5728 1178 
Q 5728 594 5436 251 
Q 5144 -91 4653 -91 
Q 4153 -91 3862 251 
Q 3572 594 3572 1178 
Q 3572 1766 3864 2108 
Q 4156 2450 4653 2450 
z
M 1428 4353 
Q 1159 4353 1004 4120 
Q 850 3888 850 3481 
Q 850 3069 1003 2837 
Q 1156 2606 1428 2606 
Q 1700 2606 1854 2837 
Q 2009 3069 2009 3481 
Q 2009 3884 1853 4118 
Q 1697 4353 1428 4353 
z
M 4250 4750 
L 4750 4750 
L 1831 -91 
L 1331 -91 
L 4250 4750 
z
M 1428 4750 
Q 1922 4750 2215 4408 
Q 2509 4066 2509 3481 
Q 2509 2891 2217 2550 
Q 1925 2209 1428 2209 
Q 931 2209 642 2551 
Q 353 2894 353 3481 
Q 353 4063 643 4406 
Q 934 4750 1428 4750 
z
" transform="scale(0.015625)"/>
       <path id="DejaVuSans-20" transform="scale(0.015625)"/>
       <path id="DejaVuSans-63" d="M 3122 3366 
L 3122 2828 
Q 2878 2963 2633 3030 
Q 2388 3097 2138 3097 
Q 1578 3097 1268 2742 
Q 959 2388 959 1747 
Q 959 1106 1268 751 
Q 1578 397 2138 397 
Q 2388 397 2633 464 
Q 2878 531 3122 666 
L 3122 134 
Q 2881 22 2623 -34 
Q 2366 -91 2075 -91 
Q 1284 -91 818 406 
Q 353 903 353 1747 
Q 353 2603 823 3093 
Q 1294 3584 2113 3584 
Q 2378 3584 2631 3529 
Q 2884 3475 3122 3366 
z
" transform="scale(0.015625)"/>
       <path id="DejaVuSans-68" d="M 3513 2113 
L 3513 0 
L 2938 0 
L 2938 2094 
Q 2938 2591 2744 2837 
Q 2550 3084 2163 3084 
Q 1697 3084 1428 2787 
Q 1159 2491 1159 1978 
L 1159 0 
L 581 0 
L 581 4863 
L 1159 4863 
L 1159 2956 
Q 1366 3272 1645 3428 
Q 1925 3584 2291 3584 
Q 2894 3584 3203 3211 
Q 3513 2838 3513 2113 
z
" transform="scale(0.015625)"/>
       <path id="DejaVuSans-61" d="M 2194 1759 
Q 1497 1759 1228 1600 
Q 959 1441 959 1056 
Q 959 750 1161 570 
Q 1363 391 1709 391 
Q 2188 391 2477 730 
Q 2766 1069 2766 1631 
L 2766 1759 
L 2194 1759 
z
M 3341 1997 
L 3341 0 
L 2766 0 
L 2766 531 
Q 2569 213 2275 61 
Q 1981 -91 1556 -91 
Q 1019 -91 701 211 
Q 384 513 384 1019 
Q 384 1609 779 1909 
Q 1175 2209 1959 2209 
L 2766 2209 
L 2766 2266 
Q 2766 2663 2505 2880 
Q 2244 3097 1772 3097 
Q 1472 3097 1187 3025 
Q 903 2953 641 2809 
L 641 3341 
Q 956 3463 1253 3523 
Q 1550 3584 1831 3584 
Q 2591 3584 2966 3190 
Q 3341 2797 3341 1997 
z
" transform="scale(0.015625)"/>
       <path id="DejaVuSans-6e" d="M 3513 2113 
L 3513 0 
L 2938 0 
L 2938 2094 
Q 2938 2591 2744 2837 
Q 2550 3084 2163 3084 
Q 1697 3084 1428 2787 
Q 1159 2491 1159 1978 
L 1159 0 
L 581 0 
L 581 3500 
L 1159 3500 
L 1159 2956 
Q 1366 3272 1645 3428 
Q 1925 3584 2291 3584 
Q 2894 3584 3203 3211 
Q 3513 2838 3513 2113 
z
" transform="scale(0.015625)"/>
       <path id="DejaVuSans-67" d="M 2906 1791 
Q 2906 2416 2648 2759 
Q 2391 3103 1925 3103 
Q 1463 3103 1205 2759 
Q 947 2416 947 1791 
Q 947 1169 1205 825 
Q 1463 481 1925 481 
Q 2391 481 2648 825 
Q 2906 1169 2906 1791 
z
M 3481 434 
Q 3481 -459 3084 -895 
Q 2688 -1331 1869 -1331 
Q 1566 -1331 1297 -1286 
Q 1028 -1241 775 -1147 
L 775 -588 
Q 1028 -725 1275 -790 
Q 1522 -856 1778 -856 
Q 2344 -856 2625 -561 
Q 2906 -266 2906 331 
L 2906 616 
Q 2728 306 2450 153 
Q 2172 0 1784 0 
Q 1141 0 747 490 
Q 353 981 353 1791 
Q 353 2603 747 3093 
Q 1141 3584 1784 3584 
Q 2172 3584 2450 3431 
Q 2728 3278 2906 2969 
L 2906 3500 
L 3481 3500 
L 3481 434 
z
" transform="scale(0.015625)"/>
      </defs>
      <use xlink:href="#DejaVuSans-25"/>
      <use xlink:href="#DejaVuSans-20" x="95.019531"/>
      <use xlink:href="#DejaVuSans-63" x="126.806641"/>
      <use xlink:href="#DejaVuSans-68" x="181.787109"/>
      <use xlink:href="#DejaVuSans-61" x="245.166016"/>
      <use xlink:href="#DejaVuSans-6e" x="306.445312"/>
      <use xlink:href="#DejaVuSans-67" x="369.824219"/>
      <use xlink:href="#DejaVuSans-65" x="433.300781"/>
     </g>
    </g>
   </g>
   <g id="PolyCollection_1"/>
   <g id="PolyCollection_2"/>
   <g id="PolyCollection_3"/>
   <g id="PolyCollection_4"/>
   <g id="PolyCollection_5"/>
   <g id="PolyCollection_6"/>
   <g id="line2d_8">
    <path d="M 183.629594 106.936707 
L 183.99419 139.043139 
L 184.358785 140.149052 
L 184.723381 140.413382 
L 185.452571 140.414223 
L 188.73393 139.911818 
L 189.098526 138.765615 
L 191.286098 137.139316 
L 198.213411 132.251292 
L 206.963701 126.357741 
L 213.891014 121.915801 
L 222.276709 116.897009 
L 230.297808 112.357732 
L 238.318908 108.081258 
L 245.975411 104.24544 
L 253.996511 100.480446 
L 261.653015 97.127244 
L 269.674114 93.863096 
L 277.695213 90.846247 
L 285.716313 88.073586 
L 293.737412 85.540286 
L 301.758511 83.240056 
L 309.77961 81.16549 
L 318.165305 79.229092 
L 326.551 77.520751 
L 329.103168 77.137531 
L 336.030481 76.898089 
L 344.780771 77.323195 
L 357.906206 77.852444 
L 369.937855 78.67369 
L 378.688145 79.664588 
L 388.167626 80.506265 
L 416.241474 82.808161 
L 426.450146 84.076553 
L 449.419657 86.151926 
L 449.419657 86.151926 
" clip-path="url(#p0438027074)" style="fill: none; stroke: #4c72b0; stroke-opacity: 0.9; stroke-width: 3; stroke-linecap: round"/>
   </g>
   <g id="line2d_9">
    <path d="M 183.629594 106.936707 
L 183.99419 124.447732 
L 184.358785 125.179413 
L 184.723381 125.41935 
L 185.452571 125.49962 
L 188.73393 125.27482 
L 189.098526 124.536389 
L 191.286098 123.666984 
L 197.119625 121.555102 
L 207.328297 118.127756 
L 217.901564 114.804545 
L 229.204022 111.571582 
L 239.777289 108.77602 
L 250.350557 106.205982 
L 261.288419 103.776315 
L 272.226282 101.569801 
L 283.52874 99.51335 
L 294.831198 97.677315 
L 306.498252 96.006673 
L 318.529901 94.513221 
L 325.092618 93.853749 
L 334.572099 93.548607 
L 346.603748 93.635966 
L 375.406786 93.754212 
L 380.511122 93.904147 
L 424.627169 95.095798 
L 438.84639 95.508058 
L 449.419657 95.877531 
L 449.419657 95.877531 
" clip-path="url(#p0438027074)" style="fill: none; stroke: #dd8452; stroke-opacity: 0.9; stroke-width: 3; stroke-linecap: round"/>
   </g>
   <g id="line2d_10">
    <path d="M 183.629594 106.936707 
L 183.99419 140.581303 
L 184.358785 142.38167 
L 184.723381 142.805501 
L 185.452571 142.867827 
L 188.73393 142.344928 
L 189.098526 141.815864 
L 190.192312 140.971576 
L 197.48422 135.982252 
L 204.046938 131.741357 
L 208.422083 129.130526 
L 211.703442 127.368528 
L 214.25561 126.151505 
L 219.359946 124.134034 
L 225.558068 122.411006 
L 236.49593 119.406213 
L 245.975411 116.666822 
L 251.808938 115.029814 
L 268.580328 110.299205 
L 286.445503 105.399361 
L 297.018771 102.738133 
L 307.227442 100.41025 
L 317.436114 98.316144 
L 324.363427 97.14944 
L 332.384527 96.087209 
L 338.947244 95.401442 
L 346.239153 94.871766 
L 352.437275 94.644119 
L 362.645947 94.58014 
L 369.208664 94.676289 
L 380.511122 94.963804 
L 394.365748 95.256383 
L 401.293061 95.470401 
L 417.33526 96.269271 
L 428.637718 96.550565 
L 449.419657 96.941806 
L 449.419657 96.941806 
" clip-path="url(#p0438027074)" style="fill: none; stroke: #55a868; stroke-opacity: 0.9; stroke-width: 3; stroke-linecap: round"/>
   </g>
   <g id="line2d_11">
    <path d="M 183.629594 106.936707 
L 183.99419 133.378567 
L 184.358785 134.824686 
L 184.723381 135.158771 
L 185.452571 135.204295 
L 188.73393 134.790121 
L 189.463121 134.162092 
L 194.202861 131.539297 
L 202.223961 127.313317 
L 207.692892 124.683484 
L 210.24506 123.739618 
L 216.807778 121.529805 
L 219.359946 120.907951 
L 226.651854 119.474406 
L 248.527579 115.46287 
L 258.371656 113.364251 
L 298.112557 104.595857 
L 309.77961 102.35666 
L 320.352878 100.617464 
L 333.113717 98.811482 
L 340.405626 97.928744 
L 345.874557 97.473573 
L 350.614298 97.326708 
L 356.447824 97.351196 
L 362.645947 97.255668 
L 389.626008 96.630945 
L 402.022252 96.492686 
L 412.59552 96.359786 
L 423.168787 96.125769 
L 437.388008 95.564952 
L 449.419657 95.091956 
L 449.419657 95.091956 
" clip-path="url(#p0438027074)" style="fill: none; stroke: #c44e52; stroke-opacity: 0.9; stroke-width: 3; stroke-linecap: round"/>
   </g>
   <g id="line2d_12">
    <path d="M 183.629594 106.936707 
L 183.99419 137.760794 
L 184.358785 139.086553 
L 184.723381 139.276533 
L 185.817167 139.18008 
L 188.73393 138.748814 
L 189.463121 138.063435 
L 194.567457 134.181141 
L 202.223961 128.721605 
L 206.23451 126.046265 
L 215.349396 120.332203 
L 223.735091 115.325751 
L 232.120785 110.574299 
L 240.50648 106.127579 
L 248.892175 101.927603 
L 257.27787 97.986286 
L 265.663564 94.296944 
L 274.049259 90.853613 
L 282.070358 87.793911 
L 290.091458 84.965558 
L 298.112557 82.368875 
L 306.133656 80.002776 
L 314.154755 77.865649 
L 321.811259 76.052848 
L 327.644786 74.875924 
L 329.103168 74.724718 
L 337.124267 74.324554 
L 344.05158 74.14582 
L 355.718634 75.0146 
L 362.645947 76.053517 
L 369.208664 76.938484 
L 383.06329 78.737603 
L 395.82413 80.908503 
L 411.137138 83.93335 
L 416.241474 84.70284 
L 426.450146 86.003094 
L 441.763153 87.667589 
L 449.419657 88.366563 
L 449.419657 88.366563 
" clip-path="url(#p0438027074)" style="fill: none; stroke: #8172b3; stroke-opacity: 0.9; stroke-width: 3; stroke-linecap: round"/>
   </g>
   <g id="line2d_13">
    <path d="M 183.629594 106.936707 
L 183.99419 131.670387 
L 184.358785 132.572681 
L 184.723381 132.717522 
L 186.181762 132.602698 
L 188.73393 132.314312 
L 189.463121 131.767372 
L 196.025839 128.146688 
L 202.223961 124.928101 
L 209.151274 121.540933 
L 218.99535 117.043473 
L 228.474831 112.953681 
L 237.589717 109.26471 
L 247.069198 105.689714 
L 256.548679 102.360335 
L 266.02816 99.266141 
L 275.507641 96.404266 
L 284.987122 93.777142 
L 294.466603 91.385942 
L 303.946084 89.229684 
L 313.425565 87.306358 
L 322.175855 85.745525 
L 326.186404 85.206152 
L 338.582649 84.671127 
L 344.05158 84.614668 
L 357.177015 84.980419 
L 392.178176 87.680651 
L 400.928466 88.867221 
L 405.303611 89.498982 
L 414.418497 90.548925 
L 420.252023 91.227464 
L 428.273123 91.931649 
L 440.669367 92.812007 
L 449.419657 93.340371 
L 449.419657 93.340371 
" clip-path="url(#p0438027074)" style="fill: none; stroke: #937860; stroke-opacity: 0.9; stroke-width: 3; stroke-linecap: round"/>
   </g>
   <g id="patch_3">
    <path d="M 170.340091 146.484 
L 170.340091 70.656 
" style="fill: none; stroke: #ffffff; stroke-width: 1.25; stroke-linejoin: miter; stroke-linecap: square"/>
   </g>
   <g id="patch_4">
    <path d="M 170.340091 146.484 
L 462.70916 146.484 
" style="fill: none; stroke: #ffffff; stroke-width: 1.25; stroke-linejoin: miter; stroke-linecap: square"/>
   </g>
   <g id="text_10">
    <!-- 0.8~90 -->
    <g style="fill: #262626" transform="translate(269.894782 64.656) scale(0.252 -0.252)">
     <defs>
      <path id="DejaVuSans-38" d="M 2034 2216 
Q 1584 2216 1326 1975 
Q 1069 1734 1069 1313 
Q 1069 891 1326 650 
Q 1584 409 2034 409 
Q 2484 409 2743 651 
Q 3003 894 3003 1313 
Q 3003 1734 2745 1975 
Q 2488 2216 2034 2216 
z
M 1403 2484 
Q 997 2584 770 2862 
Q 544 3141 544 3541 
Q 544 4100 942 4425 
Q 1341 4750 2034 4750 
Q 2731 4750 3128 4425 
Q 3525 4100 3525 3541 
Q 3525 3141 3298 2862 
Q 3072 2584 2669 2484 
Q 3125 2378 3379 2068 
Q 3634 1759 3634 1313 
Q 3634 634 3220 271 
Q 2806 -91 2034 -91 
Q 1263 -91 848 271 
Q 434 634 434 1313 
Q 434 1759 690 2068 
Q 947 2378 1403 2484 
z
M 1172 3481 
Q 1172 3119 1398 2916 
Q 1625 2713 2034 2713 
Q 2441 2713 2670 2916 
Q 2900 3119 2900 3481 
Q 2900 3844 2670 4047 
Q 2441 4250 2034 4250 
Q 1625 4250 1398 4047 
Q 1172 3844 1172 3481 
z
" transform="scale(0.015625)"/>
      <path id="DejaVuSans-7e" d="M 4684 2553 
L 4684 1997 
Q 4356 1750 4076 1644 
Q 3797 1538 3494 1538 
Q 3150 1538 2694 1722 
Q 2659 1734 2644 1741 
Q 2622 1750 2575 1766 
Q 2091 1959 1797 1959 
Q 1522 1959 1253 1839 
Q 984 1719 678 1459 
L 678 2016 
Q 1006 2263 1286 2370 
Q 1566 2478 1869 2478 
Q 2213 2478 2672 2291 
Q 2703 2278 2719 2272 
Q 2744 2263 2788 2247 
Q 3272 2053 3566 2053 
Q 3834 2053 4098 2172 
Q 4363 2291 4684 2553 
z
" transform="scale(0.015625)"/>
      <path id="DejaVuSans-39" d="M 703 97 
L 703 672 
Q 941 559 1184 500 
Q 1428 441 1663 441 
Q 2288 441 2617 861 
Q 2947 1281 2994 2138 
Q 2813 1869 2534 1725 
Q 2256 1581 1919 1581 
Q 1219 1581 811 2004 
Q 403 2428 403 3163 
Q 403 3881 828 4315 
Q 1253 4750 1959 4750 
Q 2769 4750 3195 4129 
Q 3622 3509 3622 2328 
Q 3622 1225 3098 567 
Q 2575 -91 1691 -91 
Q 1453 -91 1209 -44 
Q 966 3 703 97 
z
M 1959 2075 
Q 2384 2075 2632 2365 
Q 2881 2656 2881 3163 
Q 2881 3666 2632 3958 
Q 2384 4250 1959 4250 
Q 1534 4250 1286 3958 
Q 1038 3666 1038 3163 
Q 1038 2656 1286 2365 
Q 1534 2075 1959 2075 
z
" transform="scale(0.015625)"/>
     </defs>
     <use xlink:href="#DejaVuSans-30"/>
     <use xlink:href="#DejaVuSans-2e" x="63.623047"/>
     <use xlink:href="#DejaVuSans-38" x="95.410156"/>
     <use xlink:href="#DejaVuSans-7e" x="159.033203"/>
     <use xlink:href="#DejaVuSans-39" x="242.822266"/>
     <use xlink:href="#DejaVuSans-30" x="306.445312"/>
    </g>
   </g>
  </g>
  <g id="axes_2">
   <g id="patch_5">
    <path d="M 489.290298 146.484 
L 781.659367 146.484 
L 781.659367 70.656 
L 489.290298 70.656 
z
" style="fill: #eaeaf2"/>
   </g>
   <g id="matplotlib.axis_3">
    <g id="xtick_5">
     <g id="line2d_14">
      <path d="M 502.579801 146.484 
L 502.579801 70.656 
" clip-path="url(#pc7eacd5fc6)" style="fill: none; stroke: #ffffff; stroke-linecap: round"/>
     </g>
     <g id="text_11">
      <!-- 0 -->
      <g style="fill: #262626" transform="translate(495.231113 173.536391) scale(0.231 -0.231)">
       <use xlink:href="#DejaVuSans-30"/>
      </g>
     </g>
    </g>
    <g id="xtick_6">
     <g id="line2d_15">
      <path d="M 593.728656 146.484 
L 593.728656 70.656 
" clip-path="url(#pc7eacd5fc6)" style="fill: none; stroke: #ffffff; stroke-linecap: round"/>
     </g>
     <g id="text_12">
      <!-- 250 -->
      <g style="fill: #262626" transform="translate(571.682594 173.536391) scale(0.231 -0.231)">
       <use xlink:href="#DejaVuSans-32"/>
       <use xlink:href="#DejaVuSans-35" x="63.623047"/>
       <use xlink:href="#DejaVuSans-30" x="127.246094"/>
      </g>
     </g>
    </g>
    <g id="xtick_7">
     <g id="line2d_16">
      <path d="M 684.877512 146.484 
L 684.877512 70.656 
" clip-path="url(#pc7eacd5fc6)" style="fill: none; stroke: #ffffff; stroke-linecap: round"/>
     </g>
     <g id="text_13">
      <!-- 500 -->
      <g style="fill: #262626" transform="translate(662.83145 173.536391) scale(0.231 -0.231)">
       <use xlink:href="#DejaVuSans-35"/>
       <use xlink:href="#DejaVuSans-30" x="63.623047"/>
       <use xlink:href="#DejaVuSans-30" x="127.246094"/>
      </g>
     </g>
    </g>
    <g id="xtick_8">
     <g id="line2d_17">
      <path d="M 776.026368 146.484 
L 776.026368 70.656 
" clip-path="url(#pc7eacd5fc6)" style="fill: none; stroke: #ffffff; stroke-linecap: round"/>
     </g>
     <g id="text_14">
      <!-- 750 -->
      <g style="fill: #262626" transform="translate(753.980305 173.536391) scale(0.231 -0.231)">
       <use xlink:href="#DejaVuSans-37"/>
       <use xlink:href="#DejaVuSans-35" x="63.623047"/>
       <use xlink:href="#DejaVuSans-30" x="127.246094"/>
      </g>
     </g>
    </g>
    <g id="text_15">
     <!-- step -->
     <g style="fill: #262626" transform="translate(608.219457 201.488531) scale(0.252 -0.252)">
      <use xlink:href="#DejaVuSans-73"/>
      <use xlink:href="#DejaVuSans-74" x="52.099609"/>
      <use xlink:href="#DejaVuSans-65" x="91.308594"/>
      <use xlink:href="#DejaVuSans-70" x="152.832031"/>
     </g>
    </g>
   </g>
   <g id="matplotlib.axis_4">
    <g id="ytick_4">
     <g id="line2d_18">
      <path d="M 489.290298 138.64927 
L 781.659367 138.64927 
" clip-path="url(#pc7eacd5fc6)" style="fill: none; stroke: #ffffff; stroke-linecap: round"/>
     </g>
    </g>
    <g id="ytick_5">
     <g id="line2d_19">
      <path d="M 489.290298 106.936707 
L 781.659367 106.936707 
" clip-path="url(#pc7eacd5fc6)" style="fill: none; stroke: #ffffff; stroke-linecap: round"/>
     </g>
    </g>
    <g id="ytick_6">
     <g id="line2d_20">
      <path d="M 489.290298 75.224145 
L 781.659367 75.224145 
" clip-path="url(#pc7eacd5fc6)" style="fill: none; stroke: #ffffff; stroke-linecap: round"/>
     </g>
    </g>
   </g>
   <g id="PolyCollection_7"/>
   <g id="PolyCollection_8"/>
   <g id="PolyCollection_9"/>
   <g id="PolyCollection_10"/>
   <g id="PolyCollection_11"/>
   <g id="PolyCollection_12"/>
   <g id="line2d_21">
    <path d="M 502.579801 106.936707 
L 502.944396 139.043139 
L 503.308992 140.184584 
L 503.673587 140.49012 
L 504.402778 140.576604 
L 507.684137 140.457955 
L 508.048732 139.386261 
L 510.6009 138.445088 
L 521.903358 134.586841 
L 533.205816 130.958907 
L 545.237465 127.348548 
L 557.269114 123.976033 
L 568.936168 120.934 
L 579.87403 118.304609 
L 592.270275 115.601226 
L 604.666519 113.123988 
L 617.427359 110.795752 
L 630.917389 108.564081 
L 644.772016 106.500537 
L 659.355832 104.558576 
L 674.304245 102.792194 
L 689.981848 101.162109 
L 706.388642 99.677885 
L 723.889222 98.319627 
L 742.483589 97.103117 
L 758.161192 96.276445 
L 761.442551 96.392549 
L 768.369864 96.655738 
L 768.369864 96.655738 
" clip-path="url(#pc7eacd5fc6)" style="fill: none; stroke: #4c72b0; stroke-opacity: 0.9; stroke-width: 3; stroke-linecap: round"/>
   </g>
   <g id="line2d_22">
    <path d="M 502.579801 106.936707 
L 502.944396 124.447732 
L 503.308992 125.195834 
L 503.673587 125.455017 
L 504.402778 125.57604 
L 507.684137 125.535799 
L 508.048732 124.829957 
L 510.6009 124.300348 
L 524.820122 121.694579 
L 536.85177 119.6948 
L 552.893969 117.243725 
L 568.936168 115.030133 
L 584.978366 113.039047 
L 601.749756 111.232419 
L 619.250336 109.57026 
L 637.844703 108.03102 
L 657.532855 106.62656 
L 678.67939 105.345792 
L 701.284306 104.2041 
L 725.347604 103.212832 
L 751.598474 102.356211 
L 755.973619 102.332991 
L 763.630123 102.458625 
L 768.369864 102.523595 
L 768.369864 102.523595 
" clip-path="url(#pc7eacd5fc6)" style="fill: none; stroke: #dd8452; stroke-opacity: 0.9; stroke-width: 3; stroke-linecap: round"/>
   </g>
   <g id="line2d_23">
    <path d="M 502.579801 106.936707 
L 502.944396 140.581303 
L 503.308992 142.418522 
L 503.673587 142.885373 
L 504.402778 143.037273 
L 507.684137 142.915658 
L 508.048732 142.488973 
L 509.142518 142.032772 
L 520.444976 138.256013 
L 528.466076 135.74171 
L 533.205816 134.602367 
L 537.945557 133.800121 
L 541.226916 133.37255 
L 544.143679 133.167369 
L 555.081542 132.650419 
L 566.748595 131.736631 
L 588.259725 129.533381 
L 598.468397 128.118838 
L 612.323023 126.006047 
L 623.625481 124.297065 
L 667.012336 118.081691 
L 687.065085 115.480884 
L 707.117833 113.107643 
L 724.983008 111.226426 
L 743.577375 109.476035 
L 757.796597 108.39022 
L 768.369864 107.673464 
L 768.369864 107.673464 
" clip-path="url(#pc7eacd5fc6)" style="fill: none; stroke: #55a868; stroke-opacity: 0.9; stroke-width: 3; stroke-linecap: round"/>
   </g>
   <g id="line2d_24">
    <path d="M 502.579801 106.936707 
L 502.944396 133.378567 
L 503.308992 134.853858 
L 503.673587 135.222148 
L 504.402778 135.338917 
L 507.684137 135.244581 
L 508.048732 134.945327 
L 509.142518 134.591355 
L 522.267954 131.114743 
L 527.372289 129.907085 
L 532.11203 129.225431 
L 536.487175 128.692411 
L 539.768534 128.446776 
L 546.695847 128.268531 
L 564.925618 128.287835 
L 570.759145 128.327042 
L 577.321862 128.14027 
L 583.88458 127.783296 
L 590.082702 127.204387 
L 596.280824 126.410028 
L 606.124901 124.860523 
L 624.719267 121.998339 
L 637.115512 120.422702 
L 680.137772 115.059824 
L 710.034596 111.562525 
L 733.004108 109.109983 
L 756.70281 106.878448 
L 768.369864 105.783766 
L 768.369864 105.783766 
" clip-path="url(#pc7eacd5fc6)" style="fill: none; stroke: #c44e52; stroke-opacity: 0.9; stroke-width: 3; stroke-linecap: round"/>
   </g>
   <g id="line2d_25">
    <path d="M 502.579801 106.936707 
L 502.944396 137.760794 
L 503.308992 139.124442 
L 503.673587 139.354999 
L 504.767373 139.381426 
L 507.684137 139.274306 
L 508.413328 138.864282 
L 515.705236 136.238399 
L 526.643099 132.511207 
L 536.487175 129.378841 
L 548.154229 125.888281 
L 559.821282 122.631784 
L 570.029954 120.021045 
L 582.426198 117.117467 
L 595.187038 114.361549 
L 608.312473 111.761249 
L 621.437908 109.386053 
L 634.198748 107.295708 
L 648.41797 105.193659 
L 663.001787 103.260515 
L 678.314794 101.460327 
L 694.356993 99.797376 
L 711.128382 98.2822 
L 728.993558 96.896317 
L 747.587925 95.679417 
L 757.067406 95.220962 
L 760.348764 95.181298 
L 768.005268 95.330338 
L 768.369864 95.35028 
L 768.369864 95.35028 
" clip-path="url(#pc7eacd5fc6)" style="fill: none; stroke: #8172b3; stroke-opacity: 0.9; stroke-width: 3; stroke-linecap: round"/>
   </g>
   <g id="line2d_26">
    <path d="M 502.579801 106.936707 
L 502.944396 131.670387 
L 503.308992 132.601722 
L 503.673587 132.777578 
L 505.131969 132.78789 
L 507.684137 132.715686 
L 508.413328 132.36072 
L 516.434427 130.161463 
L 529.195267 126.868189 
L 541.956106 123.80441 
L 553.258564 121.307038 
L 566.384 118.624946 
L 577.686458 116.524054 
L 591.905679 114.111561 
L 606.489496 111.866327 
L 621.437908 109.791499 
L 636.750916 107.891608 
L 652.793115 106.135891 
L 669.9291 104.485377 
L 688.158871 102.959488 
L 707.117833 101.597698 
L 727.170581 100.380664 
L 748.681711 99.300755 
L 754.879833 99.114785 
L 768.369864 99.238434 
L 768.369864 99.238434 
" clip-path="url(#pc7eacd5fc6)" style="fill: none; stroke: #937860; stroke-opacity: 0.9; stroke-width: 3; stroke-linecap: round"/>
   </g>
   <g id="patch_6">
    <path d="M 489.290298 146.484 
L 489.290298 70.656 
" style="fill: none; stroke: #ffffff; stroke-width: 1.25; stroke-linejoin: miter; stroke-linecap: square"/>
   </g>
   <g id="patch_7">
    <path d="M 489.290298 146.484 
L 781.659367 146.484 
" style="fill: none; stroke: #ffffff; stroke-width: 1.25; stroke-linejoin: miter; stroke-linecap: square"/>
   </g>
   <g id="text_16">
    <!-- 0.8~365 -->
    <g style="fill: #262626" transform="translate(580.828239 64.656) scale(0.252 -0.252)">
     <defs>
      <path id="DejaVuSans-33" d="M 2597 2516 
Q 3050 2419 3304 2112 
Q 3559 1806 3559 1356 
Q 3559 666 3084 287 
Q 2609 -91 1734 -91 
Q 1441 -91 1130 -33 
Q 819 25 488 141 
L 488 750 
Q 750 597 1062 519 
Q 1375 441 1716 441 
Q 2309 441 2620 675 
Q 2931 909 2931 1356 
Q 2931 1769 2642 2001 
Q 2353 2234 1838 2234 
L 1294 2234 
L 1294 2753 
L 1863 2753 
Q 2328 2753 2575 2939 
Q 2822 3125 2822 3475 
Q 2822 3834 2567 4026 
Q 2313 4219 1838 4219 
Q 1578 4219 1281 4162 
Q 984 4106 628 3988 
L 628 4550 
Q 988 4650 1302 4700 
Q 1616 4750 1894 4750 
Q 2613 4750 3031 4423 
Q 3450 4097 3450 3541 
Q 3450 3153 3228 2886 
Q 3006 2619 2597 2516 
z
" transform="scale(0.015625)"/>
      <path id="DejaVuSans-36" d="M 2113 2584 
Q 1688 2584 1439 2293 
Q 1191 2003 1191 1497 
Q 1191 994 1439 701 
Q 1688 409 2113 409 
Q 2538 409 2786 701 
Q 3034 994 3034 1497 
Q 3034 2003 2786 2293 
Q 2538 2584 2113 2584 
z
M 3366 4563 
L 3366 3988 
Q 3128 4100 2886 4159 
Q 2644 4219 2406 4219 
Q 1781 4219 1451 3797 
Q 1122 3375 1075 2522 
Q 1259 2794 1537 2939 
Q 1816 3084 2150 3084 
Q 2853 3084 3261 2657 
Q 3669 2231 3669 1497 
Q 3669 778 3244 343 
Q 2819 -91 2113 -91 
Q 1303 -91 875 529 
Q 447 1150 447 2328 
Q 447 3434 972 4092 
Q 1497 4750 2381 4750 
Q 2619 4750 2861 4703 
Q 3103 4656 3366 4563 
z
" transform="scale(0.015625)"/>
     </defs>
     <use xlink:href="#DejaVuSans-30"/>
     <use xlink:href="#DejaVuSans-2e" x="63.623047"/>
     <use xlink:href="#DejaVuSans-38" x="95.410156"/>
     <use xlink:href="#DejaVuSans-7e" x="159.033203"/>
     <use xlink:href="#DejaVuSans-33" x="242.822266"/>
     <use xlink:href="#DejaVuSans-36" x="306.445312"/>
     <use xlink:href="#DejaVuSans-35" x="370.068359"/>
    </g>
   </g>
  </g>
  <g id="axes_3">
   <g id="patch_8">
    <path d="M 808.240504 146.484 
L 1100.609573 146.484 
L 1100.609573 70.656 
L 808.240504 70.656 
z
" style="fill: #eaeaf2"/>
   </g>
   <g id="matplotlib.axis_5">
    <g id="xtick_9">
     <g id="line2d_27">
      <path d="M 821.530007 146.484 
L 821.530007 70.656 
" clip-path="url(#p175dba7030)" style="fill: none; stroke: #ffffff; stroke-linecap: round"/>
     </g>
     <g id="text_17">
      <!-- 0 -->
      <g style="fill: #262626" transform="translate(814.18132 173.536391) scale(0.231 -0.231)">
       <use xlink:href="#DejaVuSans-30"/>
      </g>
     </g>
    </g>
    <g id="xtick_10">
     <g id="line2d_28">
      <path d="M 912.678863 146.484 
L 912.678863 70.656 
" clip-path="url(#p175dba7030)" style="fill: none; stroke: #ffffff; stroke-linecap: round"/>
     </g>
     <g id="text_18">
      <!-- 250 -->
      <g style="fill: #262626" transform="translate(890.6328 173.536391) scale(0.231 -0.231)">
       <use xlink:href="#DejaVuSans-32"/>
       <use xlink:href="#DejaVuSans-35" x="63.623047"/>
       <use xlink:href="#DejaVuSans-30" x="127.246094"/>
      </g>
     </g>
    </g>
    <g id="xtick_11">
     <g id="line2d_29">
      <path d="M 1003.827719 146.484 
L 1003.827719 70.656 
" clip-path="url(#p175dba7030)" style="fill: none; stroke: #ffffff; stroke-linecap: round"/>
     </g>
     <g id="text_19">
      <!-- 500 -->
      <g style="fill: #262626" transform="translate(981.781656 173.536391) scale(0.231 -0.231)">
       <use xlink:href="#DejaVuSans-35"/>
       <use xlink:href="#DejaVuSans-30" x="63.623047"/>
       <use xlink:href="#DejaVuSans-30" x="127.246094"/>
      </g>
     </g>
    </g>
    <g id="xtick_12">
     <g id="line2d_30">
      <path d="M 1094.976574 146.484 
L 1094.976574 70.656 
" clip-path="url(#p175dba7030)" style="fill: none; stroke: #ffffff; stroke-linecap: round"/>
     </g>
     <g id="text_20">
      <!-- 750 -->
      <g style="fill: #262626" transform="translate(1072.930512 173.536391) scale(0.231 -0.231)">
       <use xlink:href="#DejaVuSans-37"/>
       <use xlink:href="#DejaVuSans-35" x="63.623047"/>
       <use xlink:href="#DejaVuSans-30" x="127.246094"/>
      </g>
     </g>
    </g>
    <g id="text_21">
     <!-- step -->
     <g style="fill: #262626" transform="translate(927.169664 201.488531) scale(0.252 -0.252)">
      <use xlink:href="#DejaVuSans-73"/>
      <use xlink:href="#DejaVuSans-74" x="52.099609"/>
      <use xlink:href="#DejaVuSans-65" x="91.308594"/>
      <use xlink:href="#DejaVuSans-70" x="152.832031"/>
     </g>
    </g>
   </g>
   <g id="matplotlib.axis_6">
    <g id="ytick_7">
     <g id="line2d_31">
      <path d="M 808.240504 138.64927 
L 1100.609573 138.64927 
" clip-path="url(#p175dba7030)" style="fill: none; stroke: #ffffff; stroke-linecap: round"/>
     </g>
    </g>
    <g id="ytick_8">
     <g id="line2d_32">
      <path d="M 808.240504 106.936707 
L 1100.609573 106.936707 
" clip-path="url(#p175dba7030)" style="fill: none; stroke: #ffffff; stroke-linecap: round"/>
     </g>
    </g>
    <g id="ytick_9">
     <g id="line2d_33">
      <path d="M 808.240504 75.224145 
L 1100.609573 75.224145 
" clip-path="url(#p175dba7030)" style="fill: none; stroke: #ffffff; stroke-linecap: round"/>
     </g>
    </g>
   </g>
   <g id="PolyCollection_13"/>
   <g id="PolyCollection_14"/>
   <g id="PolyCollection_15"/>
   <g id="PolyCollection_16"/>
   <g id="PolyCollection_17"/>
   <g id="PolyCollection_18"/>
   <g id="line2d_34">
    <path d="M 821.530007 106.936707 
L 821.894603 139.043139 
L 822.259198 140.149052 
L 822.623794 140.413382 
L 823.352984 140.414223 
L 826.634343 139.911818 
L 826.998939 138.765615 
L 829.186511 137.139316 
L 836.113824 132.251292 
L 844.864114 126.357741 
L 851.791427 121.915801 
L 860.177122 116.897009 
L 868.198221 112.357732 
L 876.219321 108.081258 
L 883.875825 104.24544 
L 891.896924 100.480446 
L 899.553428 97.127244 
L 907.574527 93.863096 
L 915.595626 90.846247 
L 923.616726 88.073586 
L 931.637825 85.540286 
L 939.658924 83.240056 
L 947.680023 81.16549 
L 956.065718 79.229092 
L 964.451413 77.520751 
L 967.003581 77.137531 
L 973.930894 76.898089 
L 982.681184 77.323195 
L 995.806619 77.852444 
L 1007.838268 78.67369 
L 1016.588558 79.664588 
L 1026.068039 80.506265 
L 1054.141887 82.808161 
L 1064.350559 84.076553 
L 1087.32007 86.151926 
L 1087.32007 86.151926 
" clip-path="url(#p175dba7030)" style="fill: none; stroke: #4c72b0; stroke-opacity: 0.9; stroke-width: 3; stroke-linecap: round"/>
   </g>
   <g id="line2d_35">
    <path d="M 821.530007 106.936707 
L 821.894603 124.447732 
L 822.259198 125.179413 
L 822.623794 125.41935 
L 823.352984 125.49962 
L 826.634343 125.27482 
L 826.998939 124.536389 
L 829.186511 123.666984 
L 835.020038 121.555102 
L 845.22871 118.127756 
L 855.801977 114.804545 
L 867.104435 111.571582 
L 877.677702 108.77602 
L 888.25097 106.205982 
L 899.188832 103.776315 
L 910.126695 101.569801 
L 921.429153 99.51335 
L 932.731611 97.677315 
L 944.398665 96.006673 
L 956.430314 94.513221 
L 962.993031 93.853749 
L 972.472512 93.548607 
L 984.504161 93.635966 
L 1013.3072 93.754212 
L 1018.411535 93.904147 
L 1062.527582 95.095798 
L 1076.746803 95.508058 
L 1087.32007 95.877531 
L 1087.32007 95.877531 
" clip-path="url(#p175dba7030)" style="fill: none; stroke: #dd8452; stroke-opacity: 0.9; stroke-width: 3; stroke-linecap: round"/>
   </g>
   <g id="line2d_36">
    <path d="M 821.530007 106.936707 
L 821.894603 140.581303 
L 822.259198 142.38167 
L 822.623794 142.805501 
L 823.352984 142.867827 
L 826.634343 142.344928 
L 826.998939 141.815864 
L 828.092725 140.971576 
L 835.384633 135.982252 
L 841.21816 132.225462 
L 845.22871 129.908339 
L 847.416282 128.84137 
L 851.426832 127.096829 
L 852.885214 126.587883 
L 855.072786 126.074292 
L 860.541717 125.09195 
L 864.187672 124.603924 
L 872.208771 124.099556 
L 877.313107 123.912601 
L 881.323657 123.531142 
L 887.521779 122.677449 
L 890.803138 121.949114 
L 894.449092 120.905475 
L 898.459641 119.508882 
L 902.470191 117.878492 
L 906.845336 115.851217 
L 917.418603 110.842356 
L 927.991871 106.294998 
L 932.00242 104.716539 
L 936.01297 103.278277 
L 939.294329 102.284075 
L 945.127856 100.826812 
L 950.232191 99.74107 
L 957.888695 98.352592 
L 963.722222 97.503979 
L 972.107917 96.550957 
L 979.399825 95.969655 
L 985.962543 95.629392 
L 993.254451 95.52273 
L 1004.192314 95.671564 
L 1013.671795 95.963942 
L 1037.005902 96.931591 
L 1054.871078 98.074544 
L 1067.267322 98.58317 
L 1087.32007 99.344657 
L 1087.32007 99.344657 
" clip-path="url(#p175dba7030)" style="fill: none; stroke: #55a868; stroke-opacity: 0.9; stroke-width: 3; stroke-linecap: round"/>
   </g>
   <g id="line2d_37">
    <path d="M 821.530007 106.936707 
L 821.894603 133.378567 
L 822.259198 134.824686 
L 822.623794 135.158771 
L 823.352984 135.204295 
L 826.634343 134.790121 
L 827.363534 134.162092 
L 832.103275 131.539297 
L 840.124374 127.313317 
L 842.311946 126.327413 
L 845.22871 125.206214 
L 848.874664 123.990328 
L 851.426832 123.30053 
L 853.979 122.845452 
L 859.083336 122.489479 
L 862.72929 122.655959 
L 879.500679 123.471323 
L 884.605015 123.263339 
L 888.615565 122.822137 
L 892.261519 122.2033 
L 896.272069 121.293212 
L 903.199382 119.407288 
L 910.49129 117.099056 
L 917.054008 114.869456 
L 927.26268 111.175423 
L 937.835947 107.092745 
L 943.304878 105.048559 
L 948.409214 103.243222 
L 952.055169 102.287781 
L 956.794909 101.371387 
L 967.003581 100.043544 
L 977.576848 98.85806 
L 983.77497 98.416518 
L 988.150115 98.338081 
L 993.619047 98.450671 
L 999.452573 98.499987 
L 1013.3072 98.508483 
L 1034.089139 98.652019 
L 1056.694055 98.916508 
L 1073.465444 98.769295 
L 1087.32007 98.587428 
L 1087.32007 98.587428 
" clip-path="url(#p175dba7030)" style="fill: none; stroke: #c44e52; stroke-opacity: 0.9; stroke-width: 3; stroke-linecap: round"/>
   </g>
   <g id="line2d_38">
    <path d="M 821.530007 106.936707 
L 821.894603 137.760794 
L 822.259198 139.086553 
L 822.623794 139.276533 
L 823.71758 139.18008 
L 826.634343 138.748814 
L 827.363534 138.063435 
L 832.46787 134.181141 
L 840.124374 128.721605 
L 844.134923 126.046265 
L 853.249809 120.332203 
L 861.635504 115.325751 
L 870.021198 110.574299 
L 878.406893 106.127579 
L 886.792588 101.927603 
L 895.178283 97.986286 
L 903.563977 94.296944 
L 911.949672 90.853613 
L 919.970771 87.793911 
L 927.991871 84.965558 
L 936.01297 82.368875 
L 944.034069 80.002776 
L 952.055169 77.865649 
L 959.711672 76.052848 
L 965.545199 74.875924 
L 967.003581 74.724718 
L 975.02468 74.324554 
L 981.951993 74.14582 
L 993.619047 75.0146 
L 1000.54636 76.053517 
L 1007.109077 76.938484 
L 1020.963703 78.737603 
L 1033.724543 80.908503 
L 1049.037551 83.93335 
L 1054.141887 84.70284 
L 1064.350559 86.003094 
L 1079.663566 87.667589 
L 1087.32007 88.366563 
L 1087.32007 88.366563 
" clip-path="url(#p175dba7030)" style="fill: none; stroke: #8172b3; stroke-opacity: 0.9; stroke-width: 3; stroke-linecap: round"/>
   </g>
   <g id="line2d_39">
    <path d="M 821.530007 106.936707 
L 821.894603 131.670387 
L 822.259198 132.572681 
L 822.623794 132.717522 
L 824.082175 132.602698 
L 826.634343 132.314312 
L 827.363534 131.767372 
L 833.926252 128.146688 
L 840.124374 124.928101 
L 847.051687 121.540933 
L 856.895763 117.043473 
L 866.375244 112.953681 
L 875.49013 109.26471 
L 884.969611 105.689714 
L 894.449092 102.360335 
L 903.928573 99.266141 
L 913.408054 96.404266 
L 922.887535 93.777142 
L 932.367016 91.385942 
L 941.846497 89.229684 
L 951.325978 87.306358 
L 960.076268 85.745525 
L 964.086817 85.206152 
L 976.483062 84.671127 
L 981.951993 84.614668 
L 995.077428 84.980419 
L 1030.078589 87.680651 
L 1038.828879 88.867221 
L 1043.204024 89.498982 
L 1052.31891 90.548925 
L 1058.152436 91.227464 
L 1066.173536 91.931649 
L 1078.56978 92.812007 
L 1087.32007 93.340371 
L 1087.32007 93.340371 
" clip-path="url(#p175dba7030)" style="fill: none; stroke: #937860; stroke-opacity: 0.9; stroke-width: 3; stroke-linecap: round"/>
   </g>
   <g id="patch_9">
    <path d="M 808.240504 146.484 
L 808.240504 70.656 
" style="fill: none; stroke: #ffffff; stroke-width: 1.25; stroke-linejoin: miter; stroke-linecap: square"/>
   </g>
   <g id="patch_10">
    <path d="M 808.240504 146.484 
L 1100.609573 146.484 
" style="fill: none; stroke: #ffffff; stroke-width: 1.25; stroke-linejoin: miter; stroke-linecap: square"/>
   </g>
   <g id="text_22">
    <!-- 0.85~90 -->
    <g style="fill: #262626" transform="translate(899.778445 64.656) scale(0.252 -0.252)">
     <use xlink:href="#DejaVuSans-30"/>
     <use xlink:href="#DejaVuSans-2e" x="63.623047"/>
     <use xlink:href="#DejaVuSans-38" x="95.410156"/>
     <use xlink:href="#DejaVuSans-35" x="159.033203"/>
     <use xlink:href="#DejaVuSans-7e" x="222.65625"/>
     <use xlink:href="#DejaVuSans-39" x="306.445312"/>
     <use xlink:href="#DejaVuSans-30" x="370.068359"/>
    </g>
   </g>
  </g>
  <g id="text_23">
   <!-- Production change from pre-shock level -->
   <g style="fill: #262626" transform="translate(280.766836 30.177675) scale(0.3024 -0.3024)">
    <defs>
     <path id="DejaVuSans-50" d="M 1259 4147 
L 1259 2394 
L 2053 2394 
Q 2494 2394 2734 2622 
Q 2975 2850 2975 3272 
Q 2975 3691 2734 3919 
Q 2494 4147 2053 4147 
L 1259 4147 
z
M 628 4666 
L 2053 4666 
Q 2838 4666 3239 4311 
Q 3641 3956 3641 3272 
Q 3641 2581 3239 2228 
Q 2838 1875 2053 1875 
L 1259 1875 
L 1259 0 
L 628 0 
L 628 4666 
z
" transform="scale(0.015625)"/>
     <path id="DejaVuSans-72" d="M 2631 2963 
Q 2534 3019 2420 3045 
Q 2306 3072 2169 3072 
Q 1681 3072 1420 2755 
Q 1159 2438 1159 1844 
L 1159 0 
L 581 0 
L 581 3500 
L 1159 3500 
L 1159 2956 
Q 1341 3275 1631 3429 
Q 1922 3584 2338 3584 
Q 2397 3584 2469 3576 
Q 2541 3569 2628 3553 
L 2631 2963 
z
" transform="scale(0.015625)"/>
     <path id="DejaVuSans-6f" d="M 1959 3097 
Q 1497 3097 1228 2736 
Q 959 2375 959 1747 
Q 959 1119 1226 758 
Q 1494 397 1959 397 
Q 2419 397 2687 759 
Q 2956 1122 2956 1747 
Q 2956 2369 2687 2733 
Q 2419 3097 1959 3097 
z
M 1959 3584 
Q 2709 3584 3137 3096 
Q 3566 2609 3566 1747 
Q 3566 888 3137 398 
Q 2709 -91 1959 -91 
Q 1206 -91 779 398 
Q 353 888 353 1747 
Q 353 2609 779 3096 
Q 1206 3584 1959 3584 
z
" transform="scale(0.015625)"/>
     <path id="DejaVuSans-64" d="M 2906 2969 
L 2906 4863 
L 3481 4863 
L 3481 0 
L 2906 0 
L 2906 525 
Q 2725 213 2448 61 
Q 2172 -91 1784 -91 
Q 1150 -91 751 415 
Q 353 922 353 1747 
Q 353 2572 751 3078 
Q 1150 3584 1784 3584 
Q 2172 3584 2448 3432 
Q 2725 3281 2906 2969 
z
M 947 1747 
Q 947 1113 1208 752 
Q 1469 391 1925 391 
Q 2381 391 2643 752 
Q 2906 1113 2906 1747 
Q 2906 2381 2643 2742 
Q 2381 3103 1925 3103 
Q 1469 3103 1208 2742 
Q 947 2381 947 1747 
z
" transform="scale(0.015625)"/>
     <path id="DejaVuSans-75" d="M 544 1381 
L 544 3500 
L 1119 3500 
L 1119 1403 
Q 1119 906 1312 657 
Q 1506 409 1894 409 
Q 2359 409 2629 706 
Q 2900 1003 2900 1516 
L 2900 3500 
L 3475 3500 
L 3475 0 
L 2900 0 
L 2900 538 
Q 2691 219 2414 64 
Q 2138 -91 1772 -91 
Q 1169 -91 856 284 
Q 544 659 544 1381 
z
M 1991 3584 
L 1991 3584 
z
" transform="scale(0.015625)"/>
     <path id="DejaVuSans-69" d="M 603 3500 
L 1178 3500 
L 1178 0 
L 603 0 
L 603 3500 
z
M 603 4863 
L 1178 4863 
L 1178 4134 
L 603 4134 
L 603 4863 
z
" transform="scale(0.015625)"/>
     <path id="DejaVuSans-66" d="M 2375 4863 
L 2375 4384 
L 1825 4384 
Q 1516 4384 1395 4259 
Q 1275 4134 1275 3809 
L 1275 3500 
L 2222 3500 
L 2222 3053 
L 1275 3053 
L 1275 0 
L 697 0 
L 697 3053 
L 147 3053 
L 147 3500 
L 697 3500 
L 697 3744 
Q 697 4328 969 4595 
Q 1241 4863 1831 4863 
L 2375 4863 
z
" transform="scale(0.015625)"/>
     <path id="DejaVuSans-6d" d="M 3328 2828 
Q 3544 3216 3844 3400 
Q 4144 3584 4550 3584 
Q 5097 3584 5394 3201 
Q 5691 2819 5691 2113 
L 5691 0 
L 5113 0 
L 5113 2094 
Q 5113 2597 4934 2840 
Q 4756 3084 4391 3084 
Q 3944 3084 3684 2787 
Q 3425 2491 3425 1978 
L 3425 0 
L 2847 0 
L 2847 2094 
Q 2847 2600 2669 2842 
Q 2491 3084 2119 3084 
Q 1678 3084 1418 2786 
Q 1159 2488 1159 1978 
L 1159 0 
L 581 0 
L 581 3500 
L 1159 3500 
L 1159 2956 
Q 1356 3278 1631 3431 
Q 1906 3584 2284 3584 
Q 2666 3584 2933 3390 
Q 3200 3197 3328 2828 
z
" transform="scale(0.015625)"/>
     <path id="DejaVuSans-2d" d="M 313 2009 
L 1997 2009 
L 1997 1497 
L 313 1497 
L 313 2009 
z
" transform="scale(0.015625)"/>
     <path id="DejaVuSans-6b" d="M 581 4863 
L 1159 4863 
L 1159 1991 
L 2875 3500 
L 3609 3500 
L 1753 1863 
L 3688 0 
L 2938 0 
L 1159 1709 
L 1159 0 
L 581 0 
L 581 4863 
z
" transform="scale(0.015625)"/>
     <path id="DejaVuSans-6c" d="M 603 4863 
L 1178 4863 
L 1178 0 
L 603 0 
L 603 4863 
z
" transform="scale(0.015625)"/>
     <path id="DejaVuSans-76" d="M 191 3500 
L 800 3500 
L 1894 563 
L 2988 3500 
L 3597 3500 
L 2284 0 
L 1503 0 
L 191 3500 
z
" transform="scale(0.015625)"/>
    </defs>
    <use xlink:href="#DejaVuSans-50"/>
    <use xlink:href="#DejaVuSans-72" x="58.552734"/>
    <use xlink:href="#DejaVuSans-6f" x="97.416016"/>
    <use xlink:href="#DejaVuSans-64" x="158.597656"/>
    <use xlink:href="#DejaVuSans-75" x="222.074219"/>
    <use xlink:href="#DejaVuSans-63" x="285.453125"/>
    <use xlink:href="#DejaVuSans-74" x="340.433594"/>
    <use xlink:href="#DejaVuSans-69" x="379.642578"/>
    <use xlink:href="#DejaVuSans-6f" x="407.425781"/>
    <use xlink:href="#DejaVuSans-6e" x="468.607422"/>
    <use xlink:href="#DejaVuSans-20" x="531.986328"/>
    <use xlink:href="#DejaVuSans-63" x="563.773438"/>
    <use xlink:href="#DejaVuSans-68" x="618.753906"/>
    <use xlink:href="#DejaVuSans-61" x="682.132812"/>
    <use xlink:href="#DejaVuSans-6e" x="743.412109"/>
    <use xlink:href="#DejaVuSans-67" x="806.791016"/>
    <use xlink:href="#DejaVuSans-65" x="870.267578"/>
    <use xlink:href="#DejaVuSans-20" x="931.791016"/>
    <use xlink:href="#DejaVuSans-66" x="963.578125"/>
    <use xlink:href="#DejaVuSans-72" x="998.783203"/>
    <use xlink:href="#DejaVuSans-6f" x="1037.646484"/>
    <use xlink:href="#DejaVuSans-6d" x="1098.828125"/>
    <use xlink:href="#DejaVuSans-20" x="1196.240234"/>
    <use xlink:href="#DejaVuSans-70" x="1228.027344"/>
    <use xlink:href="#DejaVuSans-72" x="1291.503906"/>
    <use xlink:href="#DejaVuSans-65" x="1330.367188"/>
    <use xlink:href="#DejaVuSans-2d" x="1391.890625"/>
    <use xlink:href="#DejaVuSans-73" x="1427.974609"/>
    <use xlink:href="#DejaVuSans-68" x="1480.074219"/>
    <use xlink:href="#DejaVuSans-6f" x="1543.453125"/>
    <use xlink:href="#DejaVuSans-63" x="1604.634766"/>
    <use xlink:href="#DejaVuSans-6b" x="1659.615234"/>
    <use xlink:href="#DejaVuSans-20" x="1717.525391"/>
    <use xlink:href="#DejaVuSans-6c" x="1749.3125"/>
    <use xlink:href="#DejaVuSans-65" x="1777.095703"/>
    <use xlink:href="#DejaVuSans-76" x="1838.619141"/>
    <use xlink:href="#DejaVuSans-65" x="1897.798828"/>
    <use xlink:href="#DejaVuSans-6c" x="1959.322266"/>
   </g>
  </g>
  <g id="legend_1">
   <g id="patch_11">
    <path d="M 11.82 357.51675 
L 1292.617547 357.51675 
Q 1297.237547 357.51675 1297.237547 352.89675 
L 1297.237547 250.17 
Q 1297.237547 245.55 1292.617547 245.55 
L 11.82 245.55 
Q 7.2 245.55 7.2 250.17 
L 7.2 352.89675 
Q 7.2 357.51675 11.82 357.51675 
z
" style="fill: #eaeaf2; opacity: 0.8; stroke: #cccccc; stroke-linejoin: miter"/>
   </g>
   <g id="text_24">
    <!-- Experiences -->
    <g style="fill: #262626" transform="translate(575.384367 273.938063) scale(0.252 -0.252)">
     <defs>
      <path id="DejaVuSans-45" d="M 628 4666 
L 3578 4666 
L 3578 4134 
L 1259 4134 
L 1259 2753 
L 3481 2753 
L 3481 2222 
L 1259 2222 
L 1259 531 
L 3634 531 
L 3634 0 
L 628 0 
L 628 4666 
z
" transform="scale(0.015625)"/>
      <path id="DejaVuSans-78" d="M 3513 3500 
L 2247 1797 
L 3578 0 
L 2900 0 
L 1881 1375 
L 863 0 
L 184 0 
L 1544 1831 
L 300 3500 
L 978 3500 
L 1906 2253 
L 2834 3500 
L 3513 3500 
z
" transform="scale(0.015625)"/>
     </defs>
     <use xlink:href="#DejaVuSans-45"/>
     <use xlink:href="#DejaVuSans-78" x="63.183594"/>
     <use xlink:href="#DejaVuSans-70" x="122.363281"/>
     <use xlink:href="#DejaVuSans-65" x="185.839844"/>
     <use xlink:href="#DejaVuSans-72" x="247.363281"/>
     <use xlink:href="#DejaVuSans-69" x="288.476562"/>
     <use xlink:href="#DejaVuSans-65" x="316.259766"/>
     <use xlink:href="#DejaVuSans-6e" x="377.783203"/>
     <use xlink:href="#DejaVuSans-63" x="441.162109"/>
     <use xlink:href="#DejaVuSans-65" x="496.142578"/>
     <use xlink:href="#DejaVuSans-73" x="557.666016"/>
    </g>
   </g>
   <g id="line2d_40">
    <path d="M 16.44 300.196266 
L 39.54 300.196266 
L 62.64 300.196266 
" style="fill: none; stroke: #4c72b0; stroke-opacity: 0.9; stroke-width: 3; stroke-linecap: round"/>
   </g>
   <g id="text_25">
    <!-- eora26_full_2000 -->
    <g style="fill: #262626" transform="translate(81.12 308.281266) scale(0.231 -0.231)">
     <defs>
      <path id="DejaVuSans-5f" d="M 3263 -1063 
L 3263 -1509 
L -63 -1509 
L -63 -1063 
L 3263 -1063 
z
" transform="scale(0.015625)"/>
     </defs>
     <use xlink:href="#DejaVuSans-65"/>
     <use xlink:href="#DejaVuSans-6f" x="61.523438"/>
     <use xlink:href="#DejaVuSans-72" x="122.705078"/>
     <use xlink:href="#DejaVuSans-61" x="163.818359"/>
     <use xlink:href="#DejaVuSans-32" x="225.097656"/>
     <use xlink:href="#DejaVuSans-36" x="288.720703"/>
     <use xlink:href="#DejaVuSans-5f" x="352.34375"/>
     <use xlink:href="#DejaVuSans-66" x="402.34375"/>
     <use xlink:href="#DejaVuSans-75" x="437.548828"/>
     <use xlink:href="#DejaVuSans-6c" x="500.927734"/>
     <use xlink:href="#DejaVuSans-6c" x="528.710938"/>
     <use xlink:href="#DejaVuSans-5f" x="556.494141"/>
     <use xlink:href="#DejaVuSans-32" x="606.494141"/>
     <use xlink:href="#DejaVuSans-30" x="670.117188"/>
     <use xlink:href="#DejaVuSans-30" x="733.740234"/>
     <use xlink:href="#DejaVuSans-30" x="797.363281"/>
    </g>
   </g>
   <g id="line2d_41">
    <path d="M 16.44 334.745203 
L 39.54 334.745203 
L 62.64 334.745203 
" style="fill: none; stroke: #dd8452; stroke-opacity: 0.9; stroke-width: 3; stroke-linecap: round"/>
   </g>
   <g id="text_26">
    <!-- eora26_full_2010 -->
    <g style="fill: #262626" transform="translate(81.12 342.830203) scale(0.231 -0.231)">
     <defs>
      <path id="DejaVuSans-31" d="M 794 531 
L 1825 531 
L 1825 4091 
L 703 3866 
L 703 4441 
L 1819 4666 
L 2450 4666 
L 2450 531 
L 3481 531 
L 3481 0 
L 794 0 
L 794 531 
z
" transform="scale(0.015625)"/>
     </defs>
     <use xlink:href="#DejaVuSans-65"/>
     <use xlink:href="#DejaVuSans-6f" x="61.523438"/>
     <use xlink:href="#DejaVuSans-72" x="122.705078"/>
     <use xlink:href="#DejaVuSans-61" x="163.818359"/>
     <use xlink:href="#DejaVuSans-32" x="225.097656"/>
     <use xlink:href="#DejaVuSans-36" x="288.720703"/>
     <use xlink:href="#DejaVuSans-5f" x="352.34375"/>
     <use xlink:href="#DejaVuSans-66" x="402.34375"/>
     <use xlink:href="#DejaVuSans-75" x="437.548828"/>
     <use xlink:href="#DejaVuSans-6c" x="500.927734"/>
     <use xlink:href="#DejaVuSans-6c" x="528.710938"/>
     <use xlink:href="#DejaVuSans-5f" x="556.494141"/>
     <use xlink:href="#DejaVuSans-32" x="606.494141"/>
     <use xlink:href="#DejaVuSans-30" x="670.117188"/>
     <use xlink:href="#DejaVuSans-31" x="733.740234"/>
     <use xlink:href="#DejaVuSans-30" x="797.363281"/>
    </g>
   </g>
   <g id="line2d_42">
    <path d="M 326.211 300.196266 
L 349.311 300.196266 
L 372.411 300.196266 
" style="fill: none; stroke: #55a868; stroke-opacity: 0.9; stroke-width: 3; stroke-linecap: round"/>
   </g>
   <g id="text_27">
    <!-- euregio_full_2000 -->
    <g style="fill: #262626" transform="translate(390.891 308.281266) scale(0.231 -0.231)">
     <use xlink:href="#DejaVuSans-65"/>
     <use xlink:href="#DejaVuSans-75" x="61.523438"/>
     <use xlink:href="#DejaVuSans-72" x="124.902344"/>
     <use xlink:href="#DejaVuSans-65" x="163.765625"/>
     <use xlink:href="#DejaVuSans-67" x="225.289062"/>
     <use xlink:href="#DejaVuSans-69" x="288.765625"/>
     <use xlink:href="#DejaVuSans-6f" x="316.548828"/>
     <use xlink:href="#DejaVuSans-5f" x="377.730469"/>
     <use xlink:href="#DejaVuSans-66" x="427.730469"/>
     <use xlink:href="#DejaVuSans-75" x="462.935547"/>
     <use xlink:href="#DejaVuSans-6c" x="526.314453"/>
     <use xlink:href="#DejaVuSans-6c" x="554.097656"/>
     <use xlink:href="#DejaVuSans-5f" x="581.880859"/>
     <use xlink:href="#DejaVuSans-32" x="631.880859"/>
     <use xlink:href="#DejaVuSans-30" x="695.503906"/>
     <use xlink:href="#DejaVuSans-30" x="759.126953"/>
     <use xlink:href="#DejaVuSans-30" x="822.75"/>
    </g>
   </g>
   <g id="line2d_43">
    <path d="M 326.211 334.745203 
L 349.311 334.745203 
L 372.411 334.745203 
" style="fill: none; stroke: #c44e52; stroke-opacity: 0.9; stroke-width: 3; stroke-linecap: round"/>
   </g>
   <g id="text_28">
    <!-- euregio_full_2010 -->
    <g style="fill: #262626" transform="translate(390.891 342.830203) scale(0.231 -0.231)">
     <use xlink:href="#DejaVuSans-65"/>
     <use xlink:href="#DejaVuSans-75" x="61.523438"/>
     <use xlink:href="#DejaVuSans-72" x="124.902344"/>
     <use xlink:href="#DejaVuSans-65" x="163.765625"/>
     <use xlink:href="#DejaVuSans-67" x="225.289062"/>
     <use xlink:href="#DejaVuSans-69" x="288.765625"/>
     <use xlink:href="#DejaVuSans-6f" x="316.548828"/>
     <use xlink:href="#DejaVuSans-5f" x="377.730469"/>
     <use xlink:href="#DejaVuSans-66" x="427.730469"/>
     <use xlink:href="#DejaVuSans-75" x="462.935547"/>
     <use xlink:href="#DejaVuSans-6c" x="526.314453"/>
     <use xlink:href="#DejaVuSans-6c" x="554.097656"/>
     <use xlink:href="#DejaVuSans-5f" x="581.880859"/>
     <use xlink:href="#DejaVuSans-32" x="631.880859"/>
     <use xlink:href="#DejaVuSans-30" x="695.503906"/>
     <use xlink:href="#DejaVuSans-31" x="759.126953"/>
     <use xlink:href="#DejaVuSans-30" x="822.75"/>
    </g>
   </g>
   <g id="line2d_44">
    <path d="M 641.847234 300.196266 
L 664.947234 300.196266 
L 688.047234 300.196266 
" style="fill: none; stroke: #8172b3; stroke-opacity: 0.9; stroke-width: 3; stroke-linecap: round"/>
   </g>
   <g id="text_29">
    <!-- exiobase3_full_2000 -->
    <g style="fill: #262626" transform="translate(706.527234 308.281266) scale(0.231 -0.231)">
     <defs>
      <path id="DejaVuSans-62" d="M 3116 1747 
Q 3116 2381 2855 2742 
Q 2594 3103 2138 3103 
Q 1681 3103 1420 2742 
Q 1159 2381 1159 1747 
Q 1159 1113 1420 752 
Q 1681 391 2138 391 
Q 2594 391 2855 752 
Q 3116 1113 3116 1747 
z
M 1159 2969 
Q 1341 3281 1617 3432 
Q 1894 3584 2278 3584 
Q 2916 3584 3314 3078 
Q 3713 2572 3713 1747 
Q 3713 922 3314 415 
Q 2916 -91 2278 -91 
Q 1894 -91 1617 61 
Q 1341 213 1159 525 
L 1159 0 
L 581 0 
L 581 4863 
L 1159 4863 
L 1159 2969 
z
" transform="scale(0.015625)"/>
     </defs>
     <use xlink:href="#DejaVuSans-65"/>
     <use xlink:href="#DejaVuSans-78" x="59.773438"/>
     <use xlink:href="#DejaVuSans-69" x="118.953125"/>
     <use xlink:href="#DejaVuSans-6f" x="146.736328"/>
     <use xlink:href="#DejaVuSans-62" x="207.917969"/>
     <use xlink:href="#DejaVuSans-61" x="271.394531"/>
     <use xlink:href="#DejaVuSans-73" x="332.673828"/>
     <use xlink:href="#DejaVuSans-65" x="384.773438"/>
     <use xlink:href="#DejaVuSans-33" x="446.296875"/>
     <use xlink:href="#DejaVuSans-5f" x="509.919922"/>
     <use xlink:href="#DejaVuSans-66" x="559.919922"/>
     <use xlink:href="#DejaVuSans-75" x="595.125"/>
     <use xlink:href="#DejaVuSans-6c" x="658.503906"/>
     <use xlink:href="#DejaVuSans-6c" x="686.287109"/>
     <use xlink:href="#DejaVuSans-5f" x="714.070312"/>
     <use xlink:href="#DejaVuSans-32" x="764.070312"/>
     <use xlink:href="#DejaVuSans-30" x="827.693359"/>
     <use xlink:href="#DejaVuSans-30" x="891.316406"/>
     <use xlink:href="#DejaVuSans-30" x="954.939453"/>
    </g>
   </g>
   <g id="line2d_45">
    <path d="M 988.022391 300.196266 
L 1011.122391 300.196266 
L 1034.222391 300.196266 
" style="fill: none; stroke: #937860; stroke-opacity: 0.9; stroke-width: 3; stroke-linecap: round"/>
   </g>
   <g id="text_30">
    <!-- exiobase3_full_2010 -->
    <g style="fill: #262626" transform="translate(1052.702391 308.281266) scale(0.231 -0.231)">
     <use xlink:href="#DejaVuSans-65"/>
     <use xlink:href="#DejaVuSans-78" x="59.773438"/>
     <use xlink:href="#DejaVuSans-69" x="118.953125"/>
     <use xlink:href="#DejaVuSans-6f" x="146.736328"/>
     <use xlink:href="#DejaVuSans-62" x="207.917969"/>
     <use xlink:href="#DejaVuSans-61" x="271.394531"/>
     <use xlink:href="#DejaVuSans-73" x="332.673828"/>
     <use xlink:href="#DejaVuSans-65" x="384.773438"/>
     <use xlink:href="#DejaVuSans-33" x="446.296875"/>
     <use xlink:href="#DejaVuSans-5f" x="509.919922"/>
     <use xlink:href="#DejaVuSans-66" x="559.919922"/>
     <use xlink:href="#DejaVuSans-75" x="595.125"/>
     <use xlink:href="#DejaVuSans-6c" x="658.503906"/>
     <use xlink:href="#DejaVuSans-6c" x="686.287109"/>
     <use xlink:href="#DejaVuSans-5f" x="714.070312"/>
     <use xlink:href="#DejaVuSans-32" x="764.070312"/>
     <use xlink:href="#DejaVuSans-30" x="827.693359"/>
     <use xlink:href="#DejaVuSans-31" x="891.316406"/>
     <use xlink:href="#DejaVuSans-30" x="954.939453"/>
    </g>
   </g>
  </g>
 </g>
 <defs>
  <clipPath id="p0438027074">
   <rect x="170.340091" y="70.656" width="292.369069" height="75.828"/>
  </clipPath>
  <clipPath id="pc7eacd5fc6">
   <rect x="489.290298" y="70.656" width="292.369069" height="75.828"/>
  </clipPath>
  <clipPath id="p175dba7030">
   <rect x="808.240504" y="70.656" width="292.369069" height="75.828"/>
  </clipPath>
 </defs>
</svg>
