<?xml version="1.0" encoding="utf-8" standalone="no"?>
<!DOCTYPE svg PUBLIC "-//W3C//DTD SVG 1.1//EN"
  "http://www.w3.org/Graphics/SVG/1.1/DTD/svg11.dtd">
<svg xmlns:xlink="http://www.w3.org/1999/xlink" width="1237.494469pt" height="2598.167812pt" viewBox="0 0 1237.494469 2598.167812" xmlns="http://www.w3.org/2000/svg" version="1.1">
 <metadata>
  <rdf:RDF xmlns:dc="http://purl.org/dc/elements/1.1/" xmlns:cc="http://creativecommons.org/ns#" xmlns:rdf="http://www.w3.org/1999/02/22-rdf-syntax-ns#">
   <cc:Work>
    <dc:type rdf:resource="http://purl.org/dc/dcmitype/StillImage"/>
    <dc:date>2023-04-07T09:14:25.722869</dc:date>
    <dc:format>image/svg+xml</dc:format>
    <dc:creator>
     <cc:Agent>
      <dc:title>Matplotlib v3.7.1, https://matplotlib.org/</dc:title>
     </cc:Agent>
    </dc:creator>
   </cc:Work>
  </rdf:RDF>
 </metadata>
 <defs>
  <style type="text/css">*{stroke-linejoin: round; stroke-linecap: butt}</style>
 </defs>
 <g id="figure_1">
  <g id="patch_1">
   <path d="M 0 2598.167812 
L 1237.494469 2598.167812 
L 1237.494469 0 
L 0 0 
z
" style="fill: #ffffff"/>
  </g>
  <g id="axes_1">
   <g id="patch_2">
    <path d="M 481.909805 257.055608 
L 642.911334 257.055608 
L 642.911334 220.594846 
L 481.909805 220.594846 
z
" style="fill: #eaeaf2"/>
   </g>
   <g id="matplotlib.axis_1">
    <g id="xtick_1">
     <g id="line2d_1">
      <path d="M 489.228056 257.055608 
L 489.228056 220.594846 
" clip-path="url(#p0831991665)" style="fill: none; stroke: #ffffff; stroke-linecap: round"/>
     </g>
    </g>
    <g id="xtick_2">
     <g id="line2d_2">
      <path d="M 589.615592 257.055608 
L 589.615592 220.594846 
" clip-path="url(#p0831991665)" style="fill: none; stroke: #ffffff; stroke-linecap: round"/>
     </g>
    </g>
   </g>
   <g id="matplotlib.axis_2">
    <g id="ytick_1">
     <g id="line2d_3">
      <path d="M 481.909805 248.793825 
L 642.911334 248.793825 
" clip-path="url(#p0831991665)" style="fill: none; stroke: #ffffff; stroke-linecap: round"/>
     </g>
     <g id="text_1">
      <!-- 0 -->
      <g style="fill: #262626" transform="translate(457.71243 257.57002) scale(0.231 -0.231)">
       <defs>
        <path id="DejaVuSans-30" d="M 2034 4250 
Q 1547 4250 1301 3770 
Q 1056 3291 1056 2328 
Q 1056 1369 1301 889 
Q 1547 409 2034 409 
Q 2525 409 2770 889 
Q 3016 1369 3016 2328 
Q 3016 3291 2770 3770 
Q 2525 4250 2034 4250 
z
M 2034 4750 
Q 2819 4750 3233 4129 
Q 3647 3509 3647 2328 
Q 3647 1150 3233 529 
Q 2819 -91 2034 -91 
Q 1250 -91 836 529 
Q 422 1150 422 2328 
Q 422 3509 836 4129 
Q 1250 4750 2034 4750 
z
" transform="scale(0.015625)"/>
       </defs>
       <use xlink:href="#DejaVuSans-30"/>
      </g>
     </g>
    </g>
    <g id="ytick_2">
     <g id="line2d_4">
      <path d="M 481.909805 227.402479 
L 642.911334 227.402479 
" clip-path="url(#p0831991665)" style="fill: none; stroke: #ffffff; stroke-linecap: round"/>
     </g>
     <g id="text_2">
      <!-- 1 -->
      <g style="fill: #262626" transform="translate(457.71243 236.178675) scale(0.231 -0.231)">
       <defs>
        <path id="DejaVuSans-31" d="M 794 531 
L 1825 531 
L 1825 4091 
L 703 3866 
L 703 4441 
L 1819 4666 
L 2450 4666 
L 2450 531 
L 3481 531 
L 3481 0 
L 794 0 
L 794 531 
z
" transform="scale(0.015625)"/>
       </defs>
       <use xlink:href="#DejaVuSans-31"/>
      </g>
     </g>
    </g>
    <g id="text_3">
     <!-- % change -->
     <g style="fill: #262626" transform="translate(448.471617 301.173571) rotate(-90) scale(0.252 -0.252)">
      <defs>
       <path id="DejaVuSans-25" d="M 4653 2053 
Q 4381 2053 4226 1822 
Q 4072 1591 4072 1178 
Q 4072 772 4226 539 
Q 4381 306 4653 306 
Q 4919 306 5073 539 
Q 5228 772 5228 1178 
Q 5228 1588 5073 1820 
Q 4919 2053 4653 2053 
z
M 4653 2450 
Q 5147 2450 5437 2106 
Q 5728 1763 5728 1178 
Q 5728 594 5436 251 
Q 5144 -91 4653 -91 
Q 4153 -91 3862 251 
Q 3572 594 3572 1178 
Q 3572 1766 3864 2108 
Q 4156 2450 4653 2450 
z
M 1428 4353 
Q 1159 4353 1004 4120 
Q 850 3888 850 3481 
Q 850 3069 1003 2837 
Q 1156 2606 1428 2606 
Q 1700 2606 1854 2837 
Q 2009 3069 2009 3481 
Q 2009 3884 1853 4118 
Q 1697 4353 1428 4353 
z
M 4250 4750 
L 4750 4750 
L 1831 -91 
L 1331 -91 
L 4250 4750 
z
M 1428 4750 
Q 1922 4750 2215 4408 
Q 2509 4066 2509 3481 
Q 2509 2891 2217 2550 
Q 1925 2209 1428 2209 
Q 931 2209 642 2551 
Q 353 2894 353 3481 
Q 353 4063 643 4406 
Q 934 4750 1428 4750 
z
" transform="scale(0.015625)"/>
       <path id="DejaVuSans-20" transform="scale(0.015625)"/>
       <path id="DejaVuSans-63" d="M 3122 3366 
L 3122 2828 
Q 2878 2963 2633 3030 
Q 2388 3097 2138 3097 
Q 1578 3097 1268 2742 
Q 959 2388 959 1747 
Q 959 1106 1268 751 
Q 1578 397 2138 397 
Q 2388 397 2633 464 
Q 2878 531 3122 666 
L 3122 134 
Q 2881 22 2623 -34 
Q 2366 -91 2075 -91 
Q 1284 -91 818 406 
Q 353 903 353 1747 
Q 353 2603 823 3093 
Q 1294 3584 2113 3584 
Q 2378 3584 2631 3529 
Q 2884 3475 3122 3366 
z
" transform="scale(0.015625)"/>
       <path id="DejaVuSans-68" d="M 3513 2113 
L 3513 0 
L 2938 0 
L 2938 2094 
Q 2938 2591 2744 2837 
Q 2550 3084 2163 3084 
Q 1697 3084 1428 2787 
Q 1159 2491 1159 1978 
L 1159 0 
L 581 0 
L 581 4863 
L 1159 4863 
L 1159 2956 
Q 1366 3272 1645 3428 
Q 1925 3584 2291 3584 
Q 2894 3584 3203 3211 
Q 3513 2838 3513 2113 
z
" transform="scale(0.015625)"/>
       <path id="DejaVuSans-61" d="M 2194 1759 
Q 1497 1759 1228 1600 
Q 959 1441 959 1056 
Q 959 750 1161 570 
Q 1363 391 1709 391 
Q 2188 391 2477 730 
Q 2766 1069 2766 1631 
L 2766 1759 
L 2194 1759 
z
M 3341 1997 
L 3341 0 
L 2766 0 
L 2766 531 
Q 2569 213 2275 61 
Q 1981 -91 1556 -91 
Q 1019 -91 701 211 
Q 384 513 384 1019 
Q 384 1609 779 1909 
Q 1175 2209 1959 2209 
L 2766 2209 
L 2766 2266 
Q 2766 2663 2505 2880 
Q 2244 3097 1772 3097 
Q 1472 3097 1187 3025 
Q 903 2953 641 2809 
L 641 3341 
Q 956 3463 1253 3523 
Q 1550 3584 1831 3584 
Q 2591 3584 2966 3190 
Q 3341 2797 3341 1997 
z
" transform="scale(0.015625)"/>
       <path id="DejaVuSans-6e" d="M 3513 2113 
L 3513 0 
L 2938 0 
L 2938 2094 
Q 2938 2591 2744 2837 
Q 2550 3084 2163 3084 
Q 1697 3084 1428 2787 
Q 1159 2491 1159 1978 
L 1159 0 
L 581 0 
L 581 3500 
L 1159 3500 
L 1159 2956 
Q 1366 3272 1645 3428 
Q 1925 3584 2291 3584 
Q 2894 3584 3203 3211 
Q 3513 2838 3513 2113 
z
" transform="scale(0.015625)"/>
       <path id="DejaVuSans-67" d="M 2906 1791 
Q 2906 2416 2648 2759 
Q 2391 3103 1925 3103 
Q 1463 3103 1205 2759 
Q 947 2416 947 1791 
Q 947 1169 1205 825 
Q 1463 481 1925 481 
Q 2391 481 2648 825 
Q 2906 1169 2906 1791 
z
M 3481 434 
Q 3481 -459 3084 -895 
Q 2688 -1331 1869 -1331 
Q 1566 -1331 1297 -1286 
Q 1028 -1241 775 -1147 
L 775 -588 
Q 1028 -725 1275 -790 
Q 1522 -856 1778 -856 
Q 2344 -856 2625 -561 
Q 2906 -266 2906 331 
L 2906 616 
Q 2728 306 2450 153 
Q 2172 0 1784 0 
Q 1141 0 747 490 
Q 353 981 353 1791 
Q 353 2603 747 3093 
Q 1141 3584 1784 3584 
Q 2172 3584 2450 3431 
Q 2728 3278 2906 2969 
L 2906 3500 
L 3481 3500 
L 3481 434 
z
" transform="scale(0.015625)"/>
       <path id="DejaVuSans-65" d="M 3597 1894 
L 3597 1613 
L 953 1613 
Q 991 1019 1311 708 
Q 1631 397 2203 397 
Q 2534 397 2845 478 
Q 3156 559 3463 722 
L 3463 178 
Q 3153 47 2828 -22 
Q 2503 -91 2169 -91 
Q 1331 -91 842 396 
Q 353 884 353 1716 
Q 353 2575 817 3079 
Q 1281 3584 2069 3584 
Q 2775 3584 3186 3129 
Q 3597 2675 3597 1894 
z
M 3022 2063 
Q 3016 2534 2758 2815 
Q 2500 3097 2075 3097 
Q 1594 3097 1305 2825 
Q 1016 2553 972 2059 
L 3022 2063 
z
" transform="scale(0.015625)"/>
      </defs>
      <use xlink:href="#DejaVuSans-25"/>
      <use xlink:href="#DejaVuSans-20" x="95.019531"/>
      <use xlink:href="#DejaVuSans-63" x="126.806641"/>
      <use xlink:href="#DejaVuSans-68" x="181.787109"/>
      <use xlink:href="#DejaVuSans-61" x="245.166016"/>
      <use xlink:href="#DejaVuSans-6e" x="306.445312"/>
      <use xlink:href="#DejaVuSans-67" x="369.824219"/>
      <use xlink:href="#DejaVuSans-65" x="433.300781"/>
     </g>
    </g>
   </g>
   <g id="PolyCollection_1"/>
   <g id="PolyCollection_2"/>
   <g id="PolyCollection_3"/>
   <g id="PolyCollection_4"/>
   <g id="line2d_5">
    <path d="M 489.228056 248.793825 
L 493.042783 249.603932 
L 494.448208 249.581509 
L 496.054409 249.31627 
L 497.861384 248.792884 
L 500.06991 247.924257 
L 503.081536 246.481961 
L 506.494712 244.846978 
L 510.309439 243.331332 
L 513.92339 242.165213 
L 518.541217 240.917512 
L 523.359818 239.848569 
L 528.379195 238.966688 
L 537.414073 237.658198 
L 554.078404 235.495813 
L 601.461321 229.654028 
L 635.593083 225.470769 
L 635.593083 225.470769 
" clip-path="url(#p0831991665)" style="fill: none; stroke: #4c72b0; stroke-opacity: 0.9; stroke-width: 3; stroke-linecap: round"/>
   </g>
   <g id="line2d_6">
    <path d="M 489.228056 248.793825 
L 493.645108 249.253795 
L 495.652859 249.13524 
L 498.262934 248.735845 
L 501.876886 247.923755 
L 508.502463 246.371427 
L 514.124165 245.352267 
L 520.147417 244.492465 
L 532.193921 243.010072 
L 540.224924 242.21935 
L 569.538085 239.758096 
L 635.593083 234.348659 
L 635.593083 234.348659 
" clip-path="url(#p0831991665)" style="fill: none; stroke: #dd8452; stroke-opacity: 0.9; stroke-width: 3; stroke-linecap: round"/>
   </g>
   <g id="line2d_7">
    <path d="M 489.228056 248.793825 
L 493.444333 249.739496 
L 495.050533 249.78236 
L 497.058284 249.609797 
L 499.467585 249.175591 
L 502.479211 248.404846 
L 509.305563 246.554631 
L 511.714864 246.252605 
L 514.32494 246.167393 
L 516.935016 246.309452 
L 519.344317 246.654702 
L 522.757493 247.411807 
L 535.004772 250.347702 
L 537.815623 250.673106 
L 545.645851 251.142084 
L 550.263678 251.281977 
L 553.877629 251.178128 
L 562.510957 250.776196 
L 574.758237 250.531714 
L 613.7086 250.057844 
L 635.593083 249.813984 
L 635.593083 249.813984 
" clip-path="url(#p0831991665)" style="fill: none; stroke: #55a868; stroke-opacity: 0.9; stroke-width: 3; stroke-linecap: round"/>
   </g>
   <g id="line2d_8">
    <path d="M 489.228056 248.793825 
L 493.645108 249.548219 
L 495.652859 249.540854 
L 498.062159 249.300986 
L 501.274561 248.73515 
L 510.309439 246.944544 
L 512.919515 246.833953 
L 515.328816 246.950417 
L 517.537341 247.27207 
L 520.548967 247.960787 
L 525.367569 249.324004 
L 530.989271 250.86185 
L 534.402447 251.546446 
L 550.464453 254.069893 
L 554.279179 254.401838 
L 557.290805 254.445642 
L 570.14041 254.235618 
L 583.99389 254.405504 
L 635.593083 255.398301 
L 635.593083 255.398301 
" clip-path="url(#p0831991665)" style="fill: none; stroke: #c44e52; stroke-opacity: 0.9; stroke-width: 3; stroke-linecap: round"/>
   </g>
   <g id="patch_3">
    <path d="M 481.909805 257.055608 
L 481.909805 220.594846 
" style="fill: none; stroke: #ffffff; stroke-width: 1.25; stroke-linejoin: miter; stroke-linecap: square"/>
   </g>
   <g id="patch_4">
    <path d="M 481.909805 257.055608 
L 642.911334 257.055608 
" style="fill: none; stroke: #ffffff; stroke-width: 1.25; stroke-linejoin: miter; stroke-linecap: square"/>
   </g>
   <g id="text_4">
    <!-- reb15 -->
    <g style="fill: #262626" transform="translate(651.372177 202.143477) rotate(-270) scale(0.252 -0.252)">
     <defs>
      <path id="DejaVuSans-72" d="M 2631 2963 
Q 2534 3019 2420 3045 
Q 2306 3072 2169 3072 
Q 1681 3072 1420 2755 
Q 1159 2438 1159 1844 
L 1159 0 
L 581 0 
L 581 3500 
L 1159 3500 
L 1159 2956 
Q 1341 3275 1631 3429 
Q 1922 3584 2338 3584 
Q 2397 3584 2469 3576 
Q 2541 3569 2628 3553 
L 2631 2963 
z
" transform="scale(0.015625)"/>
      <path id="DejaVuSans-62" d="M 3116 1747 
Q 3116 2381 2855 2742 
Q 2594 3103 2138 3103 
Q 1681 3103 1420 2742 
Q 1159 2381 1159 1747 
Q 1159 1113 1420 752 
Q 1681 391 2138 391 
Q 2594 391 2855 752 
Q 3116 1113 3116 1747 
z
M 1159 2969 
Q 1341 3281 1617 3432 
Q 1894 3584 2278 3584 
Q 2916 3584 3314 3078 
Q 3713 2572 3713 1747 
Q 3713 922 3314 415 
Q 2916 -91 2278 -91 
Q 1894 -91 1617 61 
Q 1341 213 1159 525 
L 1159 0 
L 581 0 
L 581 4863 
L 1159 4863 
L 1159 2969 
z
" transform="scale(0.015625)"/>
      <path id="DejaVuSans-35" d="M 691 4666 
L 3169 4666 
L 3169 4134 
L 1269 4134 
L 1269 2991 
Q 1406 3038 1543 3061 
Q 1681 3084 1819 3084 
Q 2600 3084 3056 2656 
Q 3513 2228 3513 1497 
Q 3513 744 3044 326 
Q 2575 -91 1722 -91 
Q 1428 -91 1123 -41 
Q 819 9 494 109 
L 494 744 
Q 775 591 1075 516 
Q 1375 441 1709 441 
Q 2250 441 2565 725 
Q 2881 1009 2881 1497 
Q 2881 1984 2565 2268 
Q 2250 2553 1709 2553 
Q 1456 2553 1204 2497 
Q 953 2441 691 2322 
L 691 4666 
z
" transform="scale(0.015625)"/>
     </defs>
     <use xlink:href="#DejaVuSans-72"/>
     <use xlink:href="#DejaVuSans-65" x="38.863281"/>
     <use xlink:href="#DejaVuSans-62" x="100.386719"/>
     <use xlink:href="#DejaVuSans-31" x="163.863281"/>
     <use xlink:href="#DejaVuSans-35" x="227.486328"/>
    </g>
   </g>
   <g id="text_5">
    <!-- 0.5~30 -->
    <g style="fill: #262626" transform="translate(515.780726 214.594846) scale(0.252 -0.252)">
     <defs>
      <path id="DejaVuSans-2e" d="M 684 794 
L 1344 794 
L 1344 0 
L 684 0 
L 684 794 
z
" transform="scale(0.015625)"/>
      <path id="DejaVuSans-7e" d="M 4684 2553 
L 4684 1997 
Q 4356 1750 4076 1644 
Q 3797 1538 3494 1538 
Q 3150 1538 2694 1722 
Q 2659 1734 2644 1741 
Q 2622 1750 2575 1766 
Q 2091 1959 1797 1959 
Q 1522 1959 1253 1839 
Q 984 1719 678 1459 
L 678 2016 
Q 1006 2263 1286 2370 
Q 1566 2478 1869 2478 
Q 2213 2478 2672 2291 
Q 2703 2278 2719 2272 
Q 2744 2263 2788 2247 
Q 3272 2053 3566 2053 
Q 3834 2053 4098 2172 
Q 4363 2291 4684 2553 
z
" transform="scale(0.015625)"/>
      <path id="DejaVuSans-33" d="M 2597 2516 
Q 3050 2419 3304 2112 
Q 3559 1806 3559 1356 
Q 3559 666 3084 287 
Q 2609 -91 1734 -91 
Q 1441 -91 1130 -33 
Q 819 25 488 141 
L 488 750 
Q 750 597 1062 519 
Q 1375 441 1716 441 
Q 2309 441 2620 675 
Q 2931 909 2931 1356 
Q 2931 1769 2642 2001 
Q 2353 2234 1838 2234 
L 1294 2234 
L 1294 2753 
L 1863 2753 
Q 2328 2753 2575 2939 
Q 2822 3125 2822 3475 
Q 2822 3834 2567 4026 
Q 2313 4219 1838 4219 
Q 1578 4219 1281 4162 
Q 984 4106 628 3988 
L 628 4550 
Q 988 4650 1302 4700 
Q 1616 4750 1894 4750 
Q 2613 4750 3031 4423 
Q 3450 4097 3450 3541 
Q 3450 3153 3228 2886 
Q 3006 2619 2597 2516 
z
" transform="scale(0.015625)"/>
     </defs>
     <use xlink:href="#DejaVuSans-30"/>
     <use xlink:href="#DejaVuSans-2e" x="63.623047"/>
     <use xlink:href="#DejaVuSans-35" x="95.410156"/>
     <use xlink:href="#DejaVuSans-7e" x="159.033203"/>
     <use xlink:href="#DejaVuSans-33" x="242.822266"/>
     <use xlink:href="#DejaVuSans-30" x="306.445312"/>
    </g>
   </g>
  </g>
  <g id="axes_2">
   <g id="patch_5">
    <path d="M 481.909805 471.510063 
L 642.911334 471.510063 
L 642.911334 435.049301 
L 481.909805 435.049301 
z
" style="fill: #eaeaf2"/>
   </g>
   <g id="matplotlib.axis_3">
    <g id="xtick_3">
     <g id="line2d_9">
      <path d="M 489.228056 471.510063 
L 489.228056 435.049301 
" clip-path="url(#p6a00e8c1ed)" style="fill: none; stroke: #ffffff; stroke-linecap: round"/>
     </g>
    </g>
    <g id="xtick_4">
     <g id="line2d_10">
      <path d="M 589.615592 471.510063 
L 589.615592 435.049301 
" clip-path="url(#p6a00e8c1ed)" style="fill: none; stroke: #ffffff; stroke-linecap: round"/>
     </g>
    </g>
   </g>
   <g id="matplotlib.axis_4">
    <g id="ytick_3">
     <g id="line2d_11">
      <path d="M 481.909805 463.248279 
L 642.911334 463.248279 
" clip-path="url(#p6a00e8c1ed)" style="fill: none; stroke: #ffffff; stroke-linecap: round"/>
     </g>
     <g id="text_6">
      <!-- 0 -->
      <g style="fill: #262626" transform="translate(457.71243 472.024475) scale(0.231 -0.231)">
       <use xlink:href="#DejaVuSans-30"/>
      </g>
     </g>
    </g>
    <g id="ytick_4">
     <g id="line2d_12">
      <path d="M 481.909805 441.856934 
L 642.911334 441.856934 
" clip-path="url(#p6a00e8c1ed)" style="fill: none; stroke: #ffffff; stroke-linecap: round"/>
     </g>
     <g id="text_7">
      <!-- 1 -->
      <g style="fill: #262626" transform="translate(457.71243 450.633129) scale(0.231 -0.231)">
       <use xlink:href="#DejaVuSans-31"/>
      </g>
     </g>
    </g>
    <g id="text_8">
     <!-- % change -->
     <g style="fill: #262626" transform="translate(448.471617 515.628026) rotate(-90) scale(0.252 -0.252)">
      <use xlink:href="#DejaVuSans-25"/>
      <use xlink:href="#DejaVuSans-20" x="95.019531"/>
      <use xlink:href="#DejaVuSans-63" x="126.806641"/>
      <use xlink:href="#DejaVuSans-68" x="181.787109"/>
      <use xlink:href="#DejaVuSans-61" x="245.166016"/>
      <use xlink:href="#DejaVuSans-6e" x="306.445312"/>
      <use xlink:href="#DejaVuSans-67" x="369.824219"/>
      <use xlink:href="#DejaVuSans-65" x="433.300781"/>
     </g>
    </g>
   </g>
   <g id="PolyCollection_5"/>
   <g id="PolyCollection_6"/>
   <g id="PolyCollection_7"/>
   <g id="PolyCollection_8"/>
   <g id="line2d_13">
    <path d="M 489.228056 463.248279 
L 493.444333 464.132867 
L 495.251308 464.178253 
L 497.660609 463.996427 
L 501.475336 463.449223 
L 506.494712 462.799039 
L 512.919515 462.203101 
L 521.954393 461.595835 
L 533.398572 461.073127 
L 571.34506 459.628734 
L 635.593083 457.254694 
L 635.593083 457.254694 
" clip-path="url(#p6a00e8c1ed)" style="fill: none; stroke: #4c72b0; stroke-opacity: 0.9; stroke-width: 3; stroke-linecap: round"/>
   </g>
   <g id="line2d_14">
    <path d="M 489.228056 463.248279 
L 494.046658 463.763677 
L 496.857509 463.728167 
L 502.077661 463.395636 
L 511.915639 462.85863 
L 525.367569 462.331534 
L 544.641976 461.772786 
L 635.593083 459.601031 
L 635.593083 459.601031 
" clip-path="url(#p6a00e8c1ed)" style="fill: none; stroke: #dd8452; stroke-opacity: 0.9; stroke-width: 3; stroke-linecap: round"/>
   </g>
   <g id="line2d_15">
    <path d="M 489.228056 463.248279 
L 493.845883 464.279478 
L 496.054409 464.391435 
L 498.86526 464.284534 
L 502.880761 463.885679 
L 513.12029 462.782754 
L 517.938891 462.553023 
L 524.765244 462.475773 
L 538.618724 462.360926 
L 562.912507 461.495033 
L 635.593083 459.370765 
L 635.593083 459.370765 
" clip-path="url(#p6a00e8c1ed)" style="fill: none; stroke: #55a868; stroke-opacity: 0.9; stroke-width: 3; stroke-linecap: round"/>
   </g>
   <g id="line2d_16">
    <path d="M 489.228056 463.248279 
L 494.046658 464.073483 
L 496.455959 464.139979 
L 499.869135 463.98967 
L 506.093162 463.437807 
L 512.919515 462.935295 
L 519.143542 462.709046 
L 542.232675 462.117063 
L 583.19079 461.197158 
L 635.593083 460.064126 
L 635.593083 460.064126 
" clip-path="url(#p6a00e8c1ed)" style="fill: none; stroke: #c44e52; stroke-opacity: 0.9; stroke-width: 3; stroke-linecap: round"/>
   </g>
   <g id="patch_6">
    <path d="M 481.909805 471.510063 
L 481.909805 435.049301 
" style="fill: none; stroke: #ffffff; stroke-width: 1.25; stroke-linejoin: miter; stroke-linecap: square"/>
   </g>
   <g id="patch_7">
    <path d="M 481.909805 471.510063 
L 642.911334 471.510063 
" style="fill: none; stroke: #ffffff; stroke-width: 1.25; stroke-linejoin: miter; stroke-linecap: square"/>
   </g>
   <g id="text_9">
    <!-- reb15q -->
    <g style="fill: #262626" transform="translate(651.372177 408.598901) rotate(-270) scale(0.252 -0.252)">
     <defs>
      <path id="DejaVuSans-71" d="M 947 1747 
Q 947 1113 1208 752 
Q 1469 391 1925 391 
Q 2381 391 2643 752 
Q 2906 1113 2906 1747 
Q 2906 2381 2643 2742 
Q 2381 3103 1925 3103 
Q 1469 3103 1208 2742 
Q 947 2381 947 1747 
z
M 2906 525 
Q 2725 213 2448 61 
Q 2172 -91 1784 -91 
Q 1150 -91 751 415 
Q 353 922 353 1747 
Q 353 2572 751 3078 
Q 1150 3584 1784 3584 
Q 2172 3584 2448 3432 
Q 2725 3281 2906 2969 
L 2906 3500 
L 3481 3500 
L 3481 -1331 
L 2906 -1331 
L 2906 525 
z
" transform="scale(0.015625)"/>
     </defs>
     <use xlink:href="#DejaVuSans-72"/>
     <use xlink:href="#DejaVuSans-65" x="38.863281"/>
     <use xlink:href="#DejaVuSans-62" x="100.386719"/>
     <use xlink:href="#DejaVuSans-31" x="163.863281"/>
     <use xlink:href="#DejaVuSans-35" x="227.486328"/>
     <use xlink:href="#DejaVuSans-71" x="291.109375"/>
    </g>
   </g>
  </g>
  <g id="axes_3">
   <g id="patch_8">
    <path d="M 481.909805 685.964517 
L 642.911334 685.964517 
L 642.911334 649.503755 
L 481.909805 649.503755 
z
" style="fill: #eaeaf2"/>
   </g>
   <g id="matplotlib.axis_5">
    <g id="xtick_5">
     <g id="line2d_17">
      <path d="M 489.228056 685.964517 
L 489.228056 649.503755 
" clip-path="url(#p84fb2f3793)" style="fill: none; stroke: #ffffff; stroke-linecap: round"/>
     </g>
    </g>
    <g id="xtick_6">
     <g id="line2d_18">
      <path d="M 589.615592 685.964517 
L 589.615592 649.503755 
" clip-path="url(#p84fb2f3793)" style="fill: none; stroke: #ffffff; stroke-linecap: round"/>
     </g>
    </g>
   </g>
   <g id="matplotlib.axis_6">
    <g id="ytick_5">
     <g id="line2d_19">
      <path d="M 481.909805 677.702734 
L 642.911334 677.702734 
" clip-path="url(#p84fb2f3793)" style="fill: none; stroke: #ffffff; stroke-linecap: round"/>
     </g>
     <g id="text_10">
      <!-- 0 -->
      <g style="fill: #262626" transform="translate(457.71243 686.478929) scale(0.231 -0.231)">
       <use xlink:href="#DejaVuSans-30"/>
      </g>
     </g>
    </g>
    <g id="ytick_6">
     <g id="line2d_20">
      <path d="M 481.909805 656.311388 
L 642.911334 656.311388 
" clip-path="url(#p84fb2f3793)" style="fill: none; stroke: #ffffff; stroke-linecap: round"/>
     </g>
     <g id="text_11">
      <!-- 1 -->
      <g style="fill: #262626" transform="translate(457.71243 665.087584) scale(0.231 -0.231)">
       <use xlink:href="#DejaVuSans-31"/>
      </g>
     </g>
    </g>
    <g id="text_12">
     <!-- % change -->
     <g style="fill: #262626" transform="translate(448.471617 730.08248) rotate(-90) scale(0.252 -0.252)">
      <use xlink:href="#DejaVuSans-25"/>
      <use xlink:href="#DejaVuSans-20" x="95.019531"/>
      <use xlink:href="#DejaVuSans-63" x="126.806641"/>
      <use xlink:href="#DejaVuSans-68" x="181.787109"/>
      <use xlink:href="#DejaVuSans-61" x="245.166016"/>
      <use xlink:href="#DejaVuSans-6e" x="306.445312"/>
      <use xlink:href="#DejaVuSans-67" x="369.824219"/>
      <use xlink:href="#DejaVuSans-65" x="433.300781"/>
     </g>
    </g>
   </g>
   <g id="PolyCollection_9"/>
   <g id="PolyCollection_10"/>
   <g id="PolyCollection_11"/>
   <g id="PolyCollection_12"/>
   <g id="line2d_21">
    <path d="M 489.228056 677.702734 
L 495.251308 679.008755 
L 499.26681 679.586822 
L 503.483086 679.956604 
L 507.699363 680.103781 
L 512.116414 680.037932 
L 516.734241 679.748421 
L 521.552843 679.228265 
L 526.772995 678.440976 
L 532.394697 677.367928 
L 538.819499 675.910936 
L 551.869878 672.659121 
L 563.715608 669.817228 
L 572.549711 667.943376 
L 584.596215 665.624557 
L 598.65047 663.150054 
L 614.310926 660.622813 
L 631.778357 658.033189 
L 635.593083 657.494731 
L 635.593083 657.494731 
" clip-path="url(#p84fb2f3793)" style="fill: none; stroke: #4c72b0; stroke-opacity: 0.9; stroke-width: 3; stroke-linecap: round"/>
   </g>
   <g id="line2d_22">
    <path d="M 489.228056 677.702734 
L 497.058284 678.599933 
L 502.880761 678.987078 
L 509.104788 679.170765 
L 515.730366 679.134727 
L 522.757493 678.866018 
L 530.186171 678.356238 
L 538.618724 677.544337 
L 551.267553 676.076237 
L 585.19854 672.00979 
L 605.075272 670.039043 
L 631.176031 667.676329 
L 635.593083 667.295709 
L 635.593083 667.295709 
" clip-path="url(#p84fb2f3793)" style="fill: none; stroke: #dd8452; stroke-opacity: 0.9; stroke-width: 3; stroke-linecap: round"/>
   </g>
   <g id="line2d_23">
    <path d="M 489.228056 677.702734 
L 496.255184 679.325117 
L 500.47146 679.995641 
L 505.089287 680.502153 
L 509.907889 680.801791 
L 514.927265 680.887434 
L 520.147417 680.754451 
L 525.769119 680.387255 
L 531.993146 679.758286 
L 539.421824 678.770982 
L 552.672979 676.728007 
L 569.73886 674.170402 
L 588.009391 671.671248 
L 609.492324 668.963656 
L 627.361305 666.930859 
L 635.593083 666.060675 
L 635.593083 666.060675 
" clip-path="url(#p84fb2f3793)" style="fill: none; stroke: #55a868; stroke-opacity: 0.9; stroke-width: 3; stroke-linecap: round"/>
   </g>
   <g id="line2d_24">
    <path d="M 489.228056 677.702734 
L 496.656734 679.033708 
L 501.475336 679.599472 
L 506.695487 679.984166 
L 512.116414 680.160561 
L 517.938891 680.12519 
L 524.363694 679.862226 
L 531.390821 679.3445 
L 539.421824 678.516527 
L 553.877629 676.735177 
L 572.148161 674.588087 
L 594.233418 672.225587 
L 614.11015 670.321728 
L 635.593083 668.489043 
L 635.593083 668.489043 
" clip-path="url(#p84fb2f3793)" style="fill: none; stroke: #c44e52; stroke-opacity: 0.9; stroke-width: 3; stroke-linecap: round"/>
   </g>
   <g id="patch_9">
    <path d="M 481.909805 685.964517 
L 481.909805 649.503755 
" style="fill: none; stroke: #ffffff; stroke-width: 1.25; stroke-linejoin: miter; stroke-linecap: square"/>
   </g>
   <g id="patch_10">
    <path d="M 481.909805 685.964517 
L 642.911334 685.964517 
" style="fill: none; stroke: #ffffff; stroke-width: 1.25; stroke-linejoin: miter; stroke-linecap: square"/>
   </g>
   <g id="text_13">
    <!-- reb365 -->
    <g style="fill: #262626" transform="translate(651.372177 623.035636) rotate(-270) scale(0.252 -0.252)">
     <defs>
      <path id="DejaVuSans-36" d="M 2113 2584 
Q 1688 2584 1439 2293 
Q 1191 2003 1191 1497 
Q 1191 994 1439 701 
Q 1688 409 2113 409 
Q 2538 409 2786 701 
Q 3034 994 3034 1497 
Q 3034 2003 2786 2293 
Q 2538 2584 2113 2584 
z
M 3366 4563 
L 3366 3988 
Q 3128 4100 2886 4159 
Q 2644 4219 2406 4219 
Q 1781 4219 1451 3797 
Q 1122 3375 1075 2522 
Q 1259 2794 1537 2939 
Q 1816 3084 2150 3084 
Q 2853 3084 3261 2657 
Q 3669 2231 3669 1497 
Q 3669 778 3244 343 
Q 2819 -91 2113 -91 
Q 1303 -91 875 529 
Q 447 1150 447 2328 
Q 447 3434 972 4092 
Q 1497 4750 2381 4750 
Q 2619 4750 2861 4703 
Q 3103 4656 3366 4563 
z
" transform="scale(0.015625)"/>
     </defs>
     <use xlink:href="#DejaVuSans-72"/>
     <use xlink:href="#DejaVuSans-65" x="38.863281"/>
     <use xlink:href="#DejaVuSans-62" x="100.386719"/>
     <use xlink:href="#DejaVuSans-33" x="163.863281"/>
     <use xlink:href="#DejaVuSans-36" x="227.486328"/>
     <use xlink:href="#DejaVuSans-35" x="291.109375"/>
    </g>
   </g>
  </g>
  <g id="axes_4">
   <g id="patch_11">
    <path d="M 481.909805 900.418972 
L 642.911334 900.418972 
L 642.911334 863.95821 
L 481.909805 863.95821 
z
" style="fill: #eaeaf2"/>
   </g>
   <g id="matplotlib.axis_7">
    <g id="xtick_7">
     <g id="line2d_25">
      <path d="M 489.228056 900.418972 
L 489.228056 863.95821 
" clip-path="url(#pc6c0a470a0)" style="fill: none; stroke: #ffffff; stroke-linecap: round"/>
     </g>
    </g>
    <g id="xtick_8">
     <g id="line2d_26">
      <path d="M 589.615592 900.418972 
L 589.615592 863.95821 
" clip-path="url(#pc6c0a470a0)" style="fill: none; stroke: #ffffff; stroke-linecap: round"/>
     </g>
    </g>
   </g>
   <g id="matplotlib.axis_8">
    <g id="ytick_7">
     <g id="line2d_27">
      <path d="M 481.909805 892.157189 
L 642.911334 892.157189 
" clip-path="url(#pc6c0a470a0)" style="fill: none; stroke: #ffffff; stroke-linecap: round"/>
     </g>
     <g id="text_14">
      <!-- 0 -->
      <g style="fill: #262626" transform="translate(457.71243 900.933384) scale(0.231 -0.231)">
       <use xlink:href="#DejaVuSans-30"/>
      </g>
     </g>
    </g>
    <g id="ytick_8">
     <g id="line2d_28">
      <path d="M 481.909805 870.765843 
L 642.911334 870.765843 
" clip-path="url(#pc6c0a470a0)" style="fill: none; stroke: #ffffff; stroke-linecap: round"/>
     </g>
     <g id="text_15">
      <!-- 1 -->
      <g style="fill: #262626" transform="translate(457.71243 879.542038) scale(0.231 -0.231)">
       <use xlink:href="#DejaVuSans-31"/>
      </g>
     </g>
    </g>
    <g id="text_16">
     <!-- % change -->
     <g style="fill: #262626" transform="translate(448.471617 944.536935) rotate(-90) scale(0.252 -0.252)">
      <use xlink:href="#DejaVuSans-25"/>
      <use xlink:href="#DejaVuSans-20" x="95.019531"/>
      <use xlink:href="#DejaVuSans-63" x="126.806641"/>
      <use xlink:href="#DejaVuSans-68" x="181.787109"/>
      <use xlink:href="#DejaVuSans-61" x="245.166016"/>
      <use xlink:href="#DejaVuSans-6e" x="306.445312"/>
      <use xlink:href="#DejaVuSans-67" x="369.824219"/>
      <use xlink:href="#DejaVuSans-65" x="433.300781"/>
     </g>
    </g>
   </g>
   <g id="PolyCollection_13"/>
   <g id="PolyCollection_14"/>
   <g id="PolyCollection_15"/>
   <g id="PolyCollection_16"/>
   <g id="line2d_29">
    <path d="M 489.228056 892.157189 
L 495.652859 893.555276 
L 500.06991 894.239124 
L 504.687737 894.731322 
L 509.506338 895.022975 
L 514.525715 895.10457 
L 519.745867 894.969151 
L 525.367569 894.595486 
L 531.190046 893.986616 
L 537.614848 893.088287 
L 544.842751 891.847488 
L 557.893131 889.330767 
L 574.557461 886.150173 
L 589.214042 883.657871 
L 607.083023 880.854061 
L 627.16053 877.932041 
L 635.593083 876.766407 
L 635.593083 876.766407 
" clip-path="url(#pc6c0a470a0)" style="fill: none; stroke: #4c72b0; stroke-opacity: 0.9; stroke-width: 3; stroke-linecap: round"/>
   </g>
   <g id="line2d_30">
    <path d="M 489.228056 892.157189 
L 497.660609 893.133139 
L 504.286187 893.624139 
L 511.313314 893.917137 
L 518.741992 894.001622 
L 526.572219 893.869364 
L 535.004772 893.504687 
L 544.441201 892.86567 
L 557.893131 891.703868 
L 618.326427 886.138724 
L 635.593083 884.746345 
L 635.593083 884.746345 
" clip-path="url(#pc6c0a470a0)" style="fill: none; stroke: #dd8452; stroke-opacity: 0.9; stroke-width: 3; stroke-linecap: round"/>
   </g>
   <g id="line2d_31">
    <path d="M 489.228056 892.157189 
L 496.857509 893.922129 
L 501.676111 894.724302 
L 506.896263 895.359519 
L 512.317189 895.788402 
L 517.938891 896.007673 
L 523.962144 896.012904 
L 530.386946 895.787885 
L 537.414073 895.310243 
L 545.645851 894.51844 
L 558.696231 893.001333 
L 605.677597 887.403184 
L 628.36518 884.962362 
L 635.593083 884.225393 
L 635.593083 884.225393 
" clip-path="url(#pc6c0a470a0)" style="fill: none; stroke: #55a868; stroke-opacity: 0.9; stroke-width: 3; stroke-linecap: round"/>
   </g>
   <g id="line2d_32">
    <path d="M 489.228056 892.157189 
L 497.259059 893.601476 
L 502.679986 894.275962 
L 508.502463 894.771332 
L 514.525715 895.063083 
L 520.950517 895.153206 
L 527.977645 895.028053 
L 535.807873 894.659684 
L 544.842751 894.002164 
L 560.302431 892.596641 
L 609.090774 888.134094 
L 635.593083 885.945854 
L 635.593083 885.945854 
" clip-path="url(#pc6c0a470a0)" style="fill: none; stroke: #c44e52; stroke-opacity: 0.9; stroke-width: 3; stroke-linecap: round"/>
   </g>
   <g id="patch_12">
    <path d="M 481.909805 900.418972 
L 481.909805 863.95821 
" style="fill: none; stroke: #ffffff; stroke-width: 1.25; stroke-linejoin: miter; stroke-linecap: square"/>
   </g>
   <g id="patch_13">
    <path d="M 481.909805 900.418972 
L 642.911334 900.418972 
" style="fill: none; stroke: #ffffff; stroke-width: 1.25; stroke-linejoin: miter; stroke-linecap: square"/>
   </g>
   <g id="text_17">
    <!-- reb545 -->
    <g style="fill: #262626" transform="translate(651.372177 837.490091) rotate(-270) scale(0.252 -0.252)">
     <defs>
      <path id="DejaVuSans-34" d="M 2419 4116 
L 825 1625 
L 2419 1625 
L 2419 4116 
z
M 2253 4666 
L 3047 4666 
L 3047 1625 
L 3713 1625 
L 3713 1100 
L 3047 1100 
L 3047 0 
L 2419 0 
L 2419 1100 
L 313 1100 
L 313 1709 
L 2253 4666 
z
" transform="scale(0.015625)"/>
     </defs>
     <use xlink:href="#DejaVuSans-72"/>
     <use xlink:href="#DejaVuSans-65" x="38.863281"/>
     <use xlink:href="#DejaVuSans-62" x="100.386719"/>
     <use xlink:href="#DejaVuSans-35" x="163.863281"/>
     <use xlink:href="#DejaVuSans-34" x="227.486328"/>
     <use xlink:href="#DejaVuSans-35" x="291.109375"/>
    </g>
   </g>
  </g>
  <g id="axes_5">
   <g id="patch_14">
    <path d="M 481.909805 1114.873427 
L 642.911334 1114.873427 
L 642.911334 1078.412664 
L 481.909805 1078.412664 
z
" style="fill: #eaeaf2"/>
   </g>
   <g id="matplotlib.axis_9">
    <g id="xtick_9">
     <g id="line2d_33">
      <path d="M 489.228056 1114.873427 
L 489.228056 1078.412664 
" clip-path="url(#pe29e708625)" style="fill: none; stroke: #ffffff; stroke-linecap: round"/>
     </g>
    </g>
    <g id="xtick_10">
     <g id="line2d_34">
      <path d="M 589.615592 1114.873427 
L 589.615592 1078.412664 
" clip-path="url(#pe29e708625)" style="fill: none; stroke: #ffffff; stroke-linecap: round"/>
     </g>
    </g>
   </g>
   <g id="matplotlib.axis_10">
    <g id="ytick_9">
     <g id="line2d_35">
      <path d="M 481.909805 1106.611643 
L 642.911334 1106.611643 
" clip-path="url(#pe29e708625)" style="fill: none; stroke: #ffffff; stroke-linecap: round"/>
     </g>
     <g id="text_18">
      <!-- 0 -->
      <g style="fill: #262626" transform="translate(457.71243 1115.387838) scale(0.231 -0.231)">
       <use xlink:href="#DejaVuSans-30"/>
      </g>
     </g>
    </g>
    <g id="ytick_10">
     <g id="line2d_36">
      <path d="M 481.909805 1085.220297 
L 642.911334 1085.220297 
" clip-path="url(#pe29e708625)" style="fill: none; stroke: #ffffff; stroke-linecap: round"/>
     </g>
     <g id="text_19">
      <!-- 1 -->
      <g style="fill: #262626" transform="translate(457.71243 1093.996493) scale(0.231 -0.231)">
       <use xlink:href="#DejaVuSans-31"/>
      </g>
     </g>
    </g>
    <g id="text_20">
     <!-- % change -->
     <g style="fill: #262626" transform="translate(448.471617 1158.991389) rotate(-90) scale(0.252 -0.252)">
      <use xlink:href="#DejaVuSans-25"/>
      <use xlink:href="#DejaVuSans-20" x="95.019531"/>
      <use xlink:href="#DejaVuSans-63" x="126.806641"/>
      <use xlink:href="#DejaVuSans-68" x="181.787109"/>
      <use xlink:href="#DejaVuSans-61" x="245.166016"/>
      <use xlink:href="#DejaVuSans-6e" x="306.445312"/>
      <use xlink:href="#DejaVuSans-67" x="369.824219"/>
      <use xlink:href="#DejaVuSans-65" x="433.300781"/>
     </g>
    </g>
   </g>
   <g id="PolyCollection_17"/>
   <g id="PolyCollection_18"/>
   <g id="PolyCollection_19"/>
   <g id="PolyCollection_20"/>
   <g id="line2d_37">
    <path d="M 489.228056 1106.611643 
L 494.046658 1107.639009 
L 496.455959 1107.854875 
L 499.066035 1107.858299 
L 501.876886 1107.625623 
L 504.888512 1107.137815 
L 508.100913 1106.381614 
L 511.514089 1105.350252 
L 515.328816 1103.966415 
L 519.946642 1102.038124 
L 528.57997 1098.348344 
L 533.800122 1096.406767 
L 538.819499 1094.77203 
L 542.835 1093.687138 
L 548.255927 1092.483584 
L 555.684605 1091.0698 
L 565.321808 1089.476905 
L 578.572963 1087.529858 
L 599.05202 1084.769148 
L 635.593083 1080.069972 
L 635.593083 1080.069972 
" clip-path="url(#pe29e708625)" style="fill: none; stroke: #4c72b0; stroke-opacity: 0.9; stroke-width: 3; stroke-linecap: round"/>
   </g>
   <g id="line2d_38">
    <path d="M 489.228056 1106.611643 
L 495.050533 1107.255187 
L 498.664485 1107.350946 
L 502.479211 1107.226181 
L 506.695487 1106.863231 
L 511.313314 1106.242356 
L 516.533466 1105.315749 
L 527.77687 1102.985266 
L 536.209423 1101.371082 
L 546.047401 1099.761254 
L 553.275304 1098.773145 
L 562.310182 1097.789889 
L 580.179163 1096.05981 
L 616.318676 1092.821284 
L 635.593083 1091.130128 
L 635.593083 1091.130128 
" clip-path="url(#pe29e708625)" style="fill: none; stroke: #dd8452; stroke-opacity: 0.9; stroke-width: 3; stroke-linecap: round"/>
   </g>
   <g id="line2d_39">
    <path d="M 489.228056 1106.611643 
L 494.648983 1107.846763 
L 497.459834 1108.169392 
L 500.47146 1108.290276 
L 503.683861 1108.196049 
L 507.097038 1107.875299 
L 510.911764 1107.287249 
L 515.328816 1106.366109 
L 521.151293 1104.905979 
L 534.201672 1101.550307 
L 539.020274 1100.60083 
L 544.039651 1099.860361 
L 550.464453 1099.155108 
L 558.696231 1098.486993 
L 567.329559 1098.011532 
L 578.773738 1097.624277 
L 596.441944 1097.269063 
L 635.593083 1096.649673 
L 635.593083 1096.649673 
" clip-path="url(#pe29e708625)" style="fill: none; stroke: #55a868; stroke-opacity: 0.9; stroke-width: 3; stroke-linecap: round"/>
   </g>
   <g id="line2d_40">
    <path d="M 489.228056 1106.611643 
L 495.050533 1107.628872 
L 498.262934 1107.874394 
L 501.676111 1107.914821 
L 505.490837 1107.730539 
L 509.707114 1107.294261 
L 514.72649 1106.542159 
L 521.552843 1105.26597 
L 533.599347 1102.967288 
L 538.618724 1102.301546 
L 544.641976 1101.743738 
L 552.672979 1101.246093 
L 562.310182 1100.865884 
L 573.955136 1100.638689 
L 597.44582 1100.471612 
L 617.523327 1100.220669 
L 632.179907 1099.813108 
L 635.593083 1099.68235 
L 635.593083 1099.68235 
" clip-path="url(#pe29e708625)" style="fill: none; stroke: #c44e52; stroke-opacity: 0.9; stroke-width: 3; stroke-linecap: round"/>
   </g>
   <g id="patch_15">
    <path d="M 481.909805 1114.873427 
L 481.909805 1078.412664 
" style="fill: none; stroke: #ffffff; stroke-width: 1.25; stroke-linejoin: miter; stroke-linecap: square"/>
   </g>
   <g id="patch_16">
    <path d="M 481.909805 1114.873427 
L 642.911334 1114.873427 
" style="fill: none; stroke: #ffffff; stroke-width: 1.25; stroke-linejoin: miter; stroke-linecap: square"/>
   </g>
   <g id="text_21">
    <!-- reb90 -->
    <g style="fill: #262626" transform="translate(651.372177 1059.961295) rotate(-270) scale(0.252 -0.252)">
     <defs>
      <path id="DejaVuSans-39" d="M 703 97 
L 703 672 
Q 941 559 1184 500 
Q 1428 441 1663 441 
Q 2288 441 2617 861 
Q 2947 1281 2994 2138 
Q 2813 1869 2534 1725 
Q 2256 1581 1919 1581 
Q 1219 1581 811 2004 
Q 403 2428 403 3163 
Q 403 3881 828 4315 
Q 1253 4750 1959 4750 
Q 2769 4750 3195 4129 
Q 3622 3509 3622 2328 
Q 3622 1225 3098 567 
Q 2575 -91 1691 -91 
Q 1453 -91 1209 -44 
Q 966 3 703 97 
z
M 1959 2075 
Q 2384 2075 2632 2365 
Q 2881 2656 2881 3163 
Q 2881 3666 2632 3958 
Q 2384 4250 1959 4250 
Q 1534 4250 1286 3958 
Q 1038 3666 1038 3163 
Q 1038 2656 1286 2365 
Q 1534 2075 1959 2075 
z
" transform="scale(0.015625)"/>
     </defs>
     <use xlink:href="#DejaVuSans-72"/>
     <use xlink:href="#DejaVuSans-65" x="38.863281"/>
     <use xlink:href="#DejaVuSans-62" x="100.386719"/>
     <use xlink:href="#DejaVuSans-39" x="163.863281"/>
     <use xlink:href="#DejaVuSans-30" x="227.486328"/>
    </g>
   </g>
  </g>
  <g id="axes_6">
   <g id="patch_17">
    <path d="M 481.909805 1329.327881 
L 642.911334 1329.327881 
L 642.911334 1292.867119 
L 481.909805 1292.867119 
z
" style="fill: #eaeaf2"/>
   </g>
   <g id="matplotlib.axis_11">
    <g id="xtick_11">
     <g id="line2d_41">
      <path d="M 489.228056 1329.327881 
L 489.228056 1292.867119 
" clip-path="url(#pb18ddeea38)" style="fill: none; stroke: #ffffff; stroke-linecap: round"/>
     </g>
    </g>
    <g id="xtick_12">
     <g id="line2d_42">
      <path d="M 589.615592 1329.327881 
L 589.615592 1292.867119 
" clip-path="url(#pb18ddeea38)" style="fill: none; stroke: #ffffff; stroke-linecap: round"/>
     </g>
    </g>
   </g>
   <g id="matplotlib.axis_12">
    <g id="ytick_11">
     <g id="line2d_43">
      <path d="M 481.909805 1321.066098 
L 642.911334 1321.066098 
" clip-path="url(#pb18ddeea38)" style="fill: none; stroke: #ffffff; stroke-linecap: round"/>
     </g>
     <g id="text_22">
      <!-- 0 -->
      <g style="fill: #262626" transform="translate(457.71243 1329.842293) scale(0.231 -0.231)">
       <use xlink:href="#DejaVuSans-30"/>
      </g>
     </g>
    </g>
    <g id="ytick_12">
     <g id="line2d_44">
      <path d="M 481.909805 1299.674752 
L 642.911334 1299.674752 
" clip-path="url(#pb18ddeea38)" style="fill: none; stroke: #ffffff; stroke-linecap: round"/>
     </g>
     <g id="text_23">
      <!-- 1 -->
      <g style="fill: #262626" transform="translate(457.71243 1308.450947) scale(0.231 -0.231)">
       <use xlink:href="#DejaVuSans-31"/>
      </g>
     </g>
    </g>
    <g id="text_24">
     <!-- % change -->
     <g style="fill: #262626" transform="translate(448.471617 1373.445844) rotate(-90) scale(0.252 -0.252)">
      <use xlink:href="#DejaVuSans-25"/>
      <use xlink:href="#DejaVuSans-20" x="95.019531"/>
      <use xlink:href="#DejaVuSans-63" x="126.806641"/>
      <use xlink:href="#DejaVuSans-68" x="181.787109"/>
      <use xlink:href="#DejaVuSans-61" x="245.166016"/>
      <use xlink:href="#DejaVuSans-6e" x="306.445312"/>
      <use xlink:href="#DejaVuSans-67" x="369.824219"/>
      <use xlink:href="#DejaVuSans-65" x="433.300781"/>
     </g>
    </g>
   </g>
   <g id="PolyCollection_21"/>
   <g id="PolyCollection_22"/>
   <g id="PolyCollection_23"/>
   <g id="PolyCollection_24"/>
   <g id="line2d_45">
    <path d="M 489.228056 1321.066098 
L 494.648983 1322.237617 
L 497.861384 1322.648802 
L 501.475336 1322.884782 
L 505.490837 1322.918716 
L 509.907889 1322.734109 
L 515.12804 1322.286354 
L 527.576095 1320.871743 
L 537.815623 1319.860343 
L 546.047401 1319.256825 
L 561.507082 1318.402172 
L 591.221792 1317.016377 
L 635.593083 1315.07862 
L 635.593083 1315.07862 
" clip-path="url(#pb18ddeea38)" style="fill: none; stroke: #4c72b0; stroke-opacity: 0.9; stroke-width: 3; stroke-linecap: round"/>
   </g>
   <g id="line2d_46">
    <path d="M 489.228056 1321.066098 
L 496.054409 1321.838085 
L 500.87301 1322.096039 
L 506.494712 1322.168717 
L 513.12029 1322.025891 
L 523.560593 1321.533613 
L 552.271429 1320.14511 
L 573.152036 1319.462995 
L 635.593083 1317.651267 
L 635.593083 1317.651267 
" clip-path="url(#pb18ddeea38)" style="fill: none; stroke: #dd8452; stroke-opacity: 0.9; stroke-width: 3; stroke-linecap: round"/>
   </g>
   <g id="line2d_47">
    <path d="M 489.228056 1321.066098 
L 495.452083 1322.491616 
L 498.86526 1322.963694 
L 502.679986 1323.269275 
L 506.896263 1323.383278 
L 511.514089 1323.288008 
L 516.935016 1322.95017 
L 524.564469 1322.231306 
L 535.406323 1321.228705 
L 545.043526 1320.586776 
L 558.897006 1319.895062 
L 578.773738 1319.132151 
L 620.735728 1317.797797 
L 635.593083 1317.345068 
L 635.593083 1317.345068 
" clip-path="url(#pb18ddeea38)" style="fill: none; stroke: #55a868; stroke-opacity: 0.9; stroke-width: 3; stroke-linecap: round"/>
   </g>
   <g id="line2d_48">
    <path d="M 489.228056 1321.066098 
L 495.853634 1322.237298 
L 499.869135 1322.630475 
L 504.286187 1322.837317 
L 509.305563 1322.845328 
L 515.12804 1322.622144 
L 523.159043 1322.064316 
L 537.815623 1321.034174 
L 549.661353 1320.475959 
L 567.329559 1319.879437 
L 601.461321 1319.001669 
L 635.593083 1318.196182 
L 635.593083 1318.196182 
" clip-path="url(#pb18ddeea38)" style="fill: none; stroke: #c44e52; stroke-opacity: 0.9; stroke-width: 3; stroke-linecap: round"/>
   </g>
   <g id="patch_18">
    <path d="M 481.909805 1329.327881 
L 481.909805 1292.867119 
" style="fill: none; stroke: #ffffff; stroke-width: 1.25; stroke-linejoin: miter; stroke-linecap: square"/>
   </g>
   <g id="patch_19">
    <path d="M 481.909805 1329.327881 
L 642.911334 1329.327881 
" style="fill: none; stroke: #ffffff; stroke-width: 1.25; stroke-linejoin: miter; stroke-linecap: square"/>
   </g>
   <g id="text_25">
    <!-- reb90q -->
    <g style="fill: #262626" transform="translate(651.372177 1266.416719) rotate(-270) scale(0.252 -0.252)">
     <use xlink:href="#DejaVuSans-72"/>
     <use xlink:href="#DejaVuSans-65" x="38.863281"/>
     <use xlink:href="#DejaVuSans-62" x="100.386719"/>
     <use xlink:href="#DejaVuSans-39" x="163.863281"/>
     <use xlink:href="#DejaVuSans-30" x="227.486328"/>
     <use xlink:href="#DejaVuSans-71" x="291.109375"/>
    </g>
   </g>
  </g>
  <g id="axes_7">
   <g id="patch_20">
    <path d="M 481.909805 1543.782336 
L 642.911334 1543.782336 
L 642.911334 1507.321573 
L 481.909805 1507.321573 
z
" style="fill: #eaeaf2"/>
   </g>
   <g id="matplotlib.axis_13">
    <g id="xtick_13">
     <g id="line2d_49">
      <path d="M 489.228056 1543.782336 
L 489.228056 1507.321573 
" clip-path="url(#p917ec5d65e)" style="fill: none; stroke: #ffffff; stroke-linecap: round"/>
     </g>
    </g>
    <g id="xtick_14">
     <g id="line2d_50">
      <path d="M 589.615592 1543.782336 
L 589.615592 1507.321573 
" clip-path="url(#p917ec5d65e)" style="fill: none; stroke: #ffffff; stroke-linecap: round"/>
     </g>
    </g>
   </g>
   <g id="matplotlib.axis_14">
    <g id="ytick_13">
     <g id="line2d_51">
      <path d="M 481.909805 1535.520552 
L 642.911334 1535.520552 
" clip-path="url(#p917ec5d65e)" style="fill: none; stroke: #ffffff; stroke-linecap: round"/>
     </g>
     <g id="text_26">
      <!-- 0 -->
      <g style="fill: #262626" transform="translate(457.71243 1544.296747) scale(0.231 -0.231)">
       <use xlink:href="#DejaVuSans-30"/>
      </g>
     </g>
    </g>
    <g id="ytick_14">
     <g id="line2d_52">
      <path d="M 481.909805 1514.129207 
L 642.911334 1514.129207 
" clip-path="url(#p917ec5d65e)" style="fill: none; stroke: #ffffff; stroke-linecap: round"/>
     </g>
     <g id="text_27">
      <!-- 1 -->
      <g style="fill: #262626" transform="translate(457.71243 1522.905402) scale(0.231 -0.231)">
       <use xlink:href="#DejaVuSans-31"/>
      </g>
     </g>
    </g>
    <g id="text_28">
     <!-- % change -->
     <g style="fill: #262626" transform="translate(448.471617 1587.900298) rotate(-90) scale(0.252 -0.252)">
      <use xlink:href="#DejaVuSans-25"/>
      <use xlink:href="#DejaVuSans-20" x="95.019531"/>
      <use xlink:href="#DejaVuSans-63" x="126.806641"/>
      <use xlink:href="#DejaVuSans-68" x="181.787109"/>
      <use xlink:href="#DejaVuSans-61" x="245.166016"/>
      <use xlink:href="#DejaVuSans-6e" x="306.445312"/>
      <use xlink:href="#DejaVuSans-67" x="369.824219"/>
      <use xlink:href="#DejaVuSans-65" x="433.300781"/>
     </g>
    </g>
   </g>
   <g id="PolyCollection_25"/>
   <g id="PolyCollection_26"/>
   <g id="PolyCollection_27"/>
   <g id="PolyCollection_28"/>
   <g id="line2d_53">
    <path d="M 489.228056 1535.520552 
L 493.845883 1536.503485 
L 496.255184 1536.674015 
L 500.672235 1536.71101 
L 635.593083 1535.91269 
L 635.593083 1535.91269 
" clip-path="url(#p917ec5d65e)" style="fill: none; stroke: #4c72b0; stroke-opacity: 0.9; stroke-width: 3; stroke-linecap: round"/>
   </g>
   <g id="line2d_54">
    <path d="M 489.228056 1535.520552 
L 494.648983 1536.117366 
L 498.664485 1536.197953 
L 512.116414 1536.13181 
L 564.317933 1535.909987 
L 635.593083 1535.666154 
L 635.593083 1535.666154 
" clip-path="url(#p917ec5d65e)" style="fill: none; stroke: #dd8452; stroke-opacity: 0.9; stroke-width: 3; stroke-linecap: round"/>
   </g>
   <g id="line2d_55">
    <path d="M 489.228056 1535.520552 
L 494.046658 1536.601705 
L 496.455959 1536.766272 
L 500.87301 1536.787542 
L 553.275304 1536.412006 
L 635.593083 1536.068246 
L 635.593083 1536.068246 
" clip-path="url(#p917ec5d65e)" style="fill: none; stroke: #55a868; stroke-opacity: 0.9; stroke-width: 3; stroke-linecap: round"/>
   </g>
   <g id="line2d_56">
    <path d="M 489.228056 1535.520552 
L 494.247433 1536.387899 
L 497.058284 1536.512041 
L 503.282311 1536.49681 
L 540.224924 1536.260186 
L 635.593083 1535.91727 
L 635.593083 1535.91727 
" clip-path="url(#p917ec5d65e)" style="fill: none; stroke: #c44e52; stroke-opacity: 0.9; stroke-width: 3; stroke-linecap: round"/>
   </g>
   <g id="patch_21">
    <path d="M 481.909805 1543.782336 
L 481.909805 1507.321573 
" style="fill: none; stroke: #ffffff; stroke-width: 1.25; stroke-linejoin: miter; stroke-linecap: square"/>
   </g>
   <g id="patch_22">
    <path d="M 481.909805 1543.782336 
L 642.911334 1543.782336 
" style="fill: none; stroke: #ffffff; stroke-width: 1.25; stroke-linejoin: miter; stroke-linecap: square"/>
   </g>
   <g id="text_29">
    <!-- recS2 -->
    <g style="fill: #262626" transform="translate(651.372177 1489.958923) rotate(-270) scale(0.252 -0.252)">
     <defs>
      <path id="DejaVuSans-53" d="M 3425 4513 
L 3425 3897 
Q 3066 4069 2747 4153 
Q 2428 4238 2131 4238 
Q 1616 4238 1336 4038 
Q 1056 3838 1056 3469 
Q 1056 3159 1242 3001 
Q 1428 2844 1947 2747 
L 2328 2669 
Q 3034 2534 3370 2195 
Q 3706 1856 3706 1288 
Q 3706 609 3251 259 
Q 2797 -91 1919 -91 
Q 1588 -91 1214 -16 
Q 841 59 441 206 
L 441 856 
Q 825 641 1194 531 
Q 1563 422 1919 422 
Q 2459 422 2753 634 
Q 3047 847 3047 1241 
Q 3047 1584 2836 1778 
Q 2625 1972 2144 2069 
L 1759 2144 
Q 1053 2284 737 2584 
Q 422 2884 422 3419 
Q 422 4038 858 4394 
Q 1294 4750 2059 4750 
Q 2388 4750 2728 4690 
Q 3069 4631 3425 4513 
z
" transform="scale(0.015625)"/>
      <path id="DejaVuSans-32" d="M 1228 531 
L 3431 531 
L 3431 0 
L 469 0 
L 469 531 
Q 828 903 1448 1529 
Q 2069 2156 2228 2338 
Q 2531 2678 2651 2914 
Q 2772 3150 2772 3378 
Q 2772 3750 2511 3984 
Q 2250 4219 1831 4219 
Q 1534 4219 1204 4116 
Q 875 4013 500 3803 
L 500 4441 
Q 881 4594 1212 4672 
Q 1544 4750 1819 4750 
Q 2544 4750 2975 4387 
Q 3406 4025 3406 3419 
Q 3406 3131 3298 2873 
Q 3191 2616 2906 2266 
Q 2828 2175 2409 1742 
Q 1991 1309 1228 531 
z
" transform="scale(0.015625)"/>
     </defs>
     <use xlink:href="#DejaVuSans-72"/>
     <use xlink:href="#DejaVuSans-65" x="38.863281"/>
     <use xlink:href="#DejaVuSans-63" x="100.386719"/>
     <use xlink:href="#DejaVuSans-53" x="155.367188"/>
     <use xlink:href="#DejaVuSans-32" x="218.84375"/>
    </g>
   </g>
  </g>
  <g id="axes_8">
   <g id="patch_23">
    <path d="M 481.909805 1758.23679 
L 642.911334 1758.23679 
L 642.911334 1721.776028 
L 481.909805 1721.776028 
z
" style="fill: #eaeaf2"/>
   </g>
   <g id="matplotlib.axis_15">
    <g id="xtick_15">
     <g id="line2d_57">
      <path d="M 489.228056 1758.23679 
L 489.228056 1721.776028 
" clip-path="url(#p473df259f0)" style="fill: none; stroke: #ffffff; stroke-linecap: round"/>
     </g>
    </g>
    <g id="xtick_16">
     <g id="line2d_58">
      <path d="M 589.615592 1758.23679 
L 589.615592 1721.776028 
" clip-path="url(#p473df259f0)" style="fill: none; stroke: #ffffff; stroke-linecap: round"/>
     </g>
    </g>
   </g>
   <g id="matplotlib.axis_16">
    <g id="ytick_15">
     <g id="line2d_59">
      <path d="M 481.909805 1749.975007 
L 642.911334 1749.975007 
" clip-path="url(#p473df259f0)" style="fill: none; stroke: #ffffff; stroke-linecap: round"/>
     </g>
     <g id="text_30">
      <!-- 0 -->
      <g style="fill: #262626" transform="translate(457.71243 1758.751202) scale(0.231 -0.231)">
       <use xlink:href="#DejaVuSans-30"/>
      </g>
     </g>
    </g>
    <g id="ytick_16">
     <g id="line2d_60">
      <path d="M 481.909805 1728.583661 
L 642.911334 1728.583661 
" clip-path="url(#p473df259f0)" style="fill: none; stroke: #ffffff; stroke-linecap: round"/>
     </g>
     <g id="text_31">
      <!-- 1 -->
      <g style="fill: #262626" transform="translate(457.71243 1737.359856) scale(0.231 -0.231)">
       <use xlink:href="#DejaVuSans-31"/>
      </g>
     </g>
    </g>
    <g id="text_32">
     <!-- % change -->
     <g style="fill: #262626" transform="translate(448.471617 1802.354753) rotate(-90) scale(0.252 -0.252)">
      <use xlink:href="#DejaVuSans-25"/>
      <use xlink:href="#DejaVuSans-20" x="95.019531"/>
      <use xlink:href="#DejaVuSans-63" x="126.806641"/>
      <use xlink:href="#DejaVuSans-68" x="181.787109"/>
      <use xlink:href="#DejaVuSans-61" x="245.166016"/>
      <use xlink:href="#DejaVuSans-6e" x="306.445312"/>
      <use xlink:href="#DejaVuSans-67" x="369.824219"/>
      <use xlink:href="#DejaVuSans-65" x="433.300781"/>
     </g>
    </g>
   </g>
   <g id="PolyCollection_29"/>
   <g id="PolyCollection_30"/>
   <g id="PolyCollection_31"/>
   <g id="PolyCollection_32"/>
   <g id="line2d_61">
    <path d="M 489.228056 1749.975007 
L 494.849758 1751.183529 
L 498.062159 1751.568559 
L 502.077661 1751.82102 
L 507.498588 1751.923203 
L 517.135791 1751.851477 
L 568.333434 1751.306755 
L 635.593083 1750.735242 
L 635.593083 1750.735242 
" clip-path="url(#p473df259f0)" style="fill: none; stroke: #4c72b0; stroke-opacity: 0.9; stroke-width: 3; stroke-linecap: round"/>
   </g>
   <g id="line2d_62">
    <path d="M 489.228056 1749.975007 
L 496.054409 1750.748638 
L 500.87301 1750.990053 
L 507.900138 1751.097915 
L 521.753618 1751.042664 
L 608.086898 1750.491358 
L 635.593083 1750.333489 
L 635.593083 1750.333489 
" clip-path="url(#p473df259f0)" style="fill: none; stroke: #dd8452; stroke-opacity: 0.9; stroke-width: 3; stroke-linecap: round"/>
   </g>
   <g id="line2d_63">
    <path d="M 489.228056 1749.975007 
L 495.050533 1751.309574 
L 498.262934 1751.712008 
L 502.077661 1751.959605 
L 507.297813 1752.058179 
L 516.935016 1751.970074 
L 551.066778 1751.598039 
L 635.593083 1750.982903 
L 635.593083 1750.982903 
" clip-path="url(#p473df259f0)" style="fill: none; stroke: #55a868; stroke-opacity: 0.9; stroke-width: 3; stroke-linecap: round"/>
   </g>
   <g id="line2d_64">
    <path d="M 489.228056 1749.975007 
L 495.452083 1751.072639 
L 499.066035 1751.3928 
L 503.683861 1751.572939 
L 510.710989 1751.599133 
L 635.593083 1750.711026 
L 635.593083 1750.711026 
" clip-path="url(#p473df259f0)" style="fill: none; stroke: #c44e52; stroke-opacity: 0.9; stroke-width: 3; stroke-linecap: round"/>
   </g>
   <g id="patch_24">
    <path d="M 481.909805 1758.23679 
L 481.909805 1721.776028 
" style="fill: none; stroke: #ffffff; stroke-width: 1.25; stroke-linejoin: miter; stroke-linecap: square"/>
   </g>
   <g id="patch_25">
    <path d="M 481.909805 1758.23679 
L 642.911334 1758.23679 
" style="fill: none; stroke: #ffffff; stroke-width: 1.25; stroke-linejoin: miter; stroke-linecap: square"/>
   </g>
   <g id="text_33">
    <!-- recS6 -->
    <g style="fill: #262626" transform="translate(651.372177 1704.413378) rotate(-270) scale(0.252 -0.252)">
     <use xlink:href="#DejaVuSans-72"/>
     <use xlink:href="#DejaVuSans-65" x="38.863281"/>
     <use xlink:href="#DejaVuSans-63" x="100.386719"/>
     <use xlink:href="#DejaVuSans-53" x="155.367188"/>
     <use xlink:href="#DejaVuSans-36" x="218.84375"/>
    </g>
   </g>
  </g>
  <g id="axes_9">
   <g id="patch_26">
    <path d="M 481.909805 1972.691245 
L 642.911334 1972.691245 
L 642.911334 1936.230483 
L 481.909805 1936.230483 
z
" style="fill: #eaeaf2"/>
   </g>
   <g id="matplotlib.axis_17">
    <g id="xtick_17">
     <g id="line2d_65">
      <path d="M 489.228056 1972.691245 
L 489.228056 1936.230483 
" clip-path="url(#peb32a862ad)" style="fill: none; stroke: #ffffff; stroke-linecap: round"/>
     </g>
    </g>
    <g id="xtick_18">
     <g id="line2d_66">
      <path d="M 589.615592 1972.691245 
L 589.615592 1936.230483 
" clip-path="url(#peb32a862ad)" style="fill: none; stroke: #ffffff; stroke-linecap: round"/>
     </g>
    </g>
   </g>
   <g id="matplotlib.axis_18">
    <g id="ytick_17">
     <g id="line2d_67">
      <path d="M 481.909805 1964.429461 
L 642.911334 1964.429461 
" clip-path="url(#peb32a862ad)" style="fill: none; stroke: #ffffff; stroke-linecap: round"/>
     </g>
     <g id="text_34">
      <!-- 0 -->
      <g style="fill: #262626" transform="translate(457.71243 1973.205657) scale(0.231 -0.231)">
       <use xlink:href="#DejaVuSans-30"/>
      </g>
     </g>
    </g>
    <g id="ytick_18">
     <g id="line2d_68">
      <path d="M 481.909805 1943.038116 
L 642.911334 1943.038116 
" clip-path="url(#peb32a862ad)" style="fill: none; stroke: #ffffff; stroke-linecap: round"/>
     </g>
     <g id="text_35">
      <!-- 1 -->
      <g style="fill: #262626" transform="translate(457.71243 1951.814311) scale(0.231 -0.231)">
       <use xlink:href="#DejaVuSans-31"/>
      </g>
     </g>
    </g>
    <g id="text_36">
     <!-- % change -->
     <g style="fill: #262626" transform="translate(448.471617 2016.809207) rotate(-90) scale(0.252 -0.252)">
      <use xlink:href="#DejaVuSans-25"/>
      <use xlink:href="#DejaVuSans-20" x="95.019531"/>
      <use xlink:href="#DejaVuSans-63" x="126.806641"/>
      <use xlink:href="#DejaVuSans-68" x="181.787109"/>
      <use xlink:href="#DejaVuSans-61" x="245.166016"/>
      <use xlink:href="#DejaVuSans-6e" x="306.445312"/>
      <use xlink:href="#DejaVuSans-67" x="369.824219"/>
      <use xlink:href="#DejaVuSans-65" x="433.300781"/>
     </g>
    </g>
   </g>
   <g id="PolyCollection_33"/>
   <g id="PolyCollection_34"/>
   <g id="PolyCollection_35"/>
   <g id="PolyCollection_36"/>
   <g id="line2d_69">
    <path d="M 489.228056 1964.429461 
L 493.645108 1965.370188 
L 495.452083 1965.418047 
L 527.37532 1965.157384 
L 635.593083 1964.725393 
L 635.593083 1964.725393 
" clip-path="url(#peb32a862ad)" style="fill: none; stroke: #4c72b0; stroke-opacity: 0.9; stroke-width: 3; stroke-linecap: round"/>
   </g>
   <g id="line2d_70">
    <path d="M 489.228056 1964.429461 
L 494.247433 1964.981667 
L 498.46371 1964.969981 
L 551.066778 1964.756952 
L 635.593083 1964.518847 
L 635.593083 1964.518847 
" clip-path="url(#peb32a862ad)" style="fill: none; stroke: #dd8452; stroke-opacity: 0.9; stroke-width: 3; stroke-linecap: round"/>
   </g>
   <g id="line2d_71">
    <path d="M 489.228056 1964.429461 
L 493.845883 1965.458846 
L 495.652859 1965.487127 
L 519.745867 1965.261553 
L 600.256671 1964.979403 
L 635.593083 1964.86194 
L 635.593083 1964.86194 
" clip-path="url(#peb32a862ad)" style="fill: none; stroke: #55a868; stroke-opacity: 0.9; stroke-width: 3; stroke-linecap: round"/>
   </g>
   <g id="line2d_72">
    <path d="M 489.228056 1964.429461 
L 494.046658 1965.250431 
L 496.455959 1965.253024 
L 525.166794 1965.061675 
L 635.593083 1964.740186 
L 635.593083 1964.740186 
" clip-path="url(#peb32a862ad)" style="fill: none; stroke: #c44e52; stroke-opacity: 0.9; stroke-width: 3; stroke-linecap: round"/>
   </g>
   <g id="patch_27">
    <path d="M 481.909805 1972.691245 
L 481.909805 1936.230483 
" style="fill: none; stroke: #ffffff; stroke-width: 1.25; stroke-linejoin: miter; stroke-linecap: square"/>
   </g>
   <g id="patch_28">
    <path d="M 481.909805 1972.691245 
L 642.911334 1972.691245 
" style="fill: none; stroke: #ffffff; stroke-width: 1.25; stroke-linejoin: miter; stroke-linecap: square"/>
   </g>
   <g id="text_37">
    <!-- recfast -->
    <g style="fill: #262626" transform="translate(651.372177 1911.223176) rotate(-270) scale(0.252 -0.252)">
     <defs>
      <path id="DejaVuSans-66" d="M 2375 4863 
L 2375 4384 
L 1825 4384 
Q 1516 4384 1395 4259 
Q 1275 4134 1275 3809 
L 1275 3500 
L 2222 3500 
L 2222 3053 
L 1275 3053 
L 1275 0 
L 697 0 
L 697 3053 
L 147 3053 
L 147 3500 
L 697 3500 
L 697 3744 
Q 697 4328 969 4595 
Q 1241 4863 1831 4863 
L 2375 4863 
z
" transform="scale(0.015625)"/>
      <path id="DejaVuSans-73" d="M 2834 3397 
L 2834 2853 
Q 2591 2978 2328 3040 
Q 2066 3103 1784 3103 
Q 1356 3103 1142 2972 
Q 928 2841 928 2578 
Q 928 2378 1081 2264 
Q 1234 2150 1697 2047 
L 1894 2003 
Q 2506 1872 2764 1633 
Q 3022 1394 3022 966 
Q 3022 478 2636 193 
Q 2250 -91 1575 -91 
Q 1294 -91 989 -36 
Q 684 19 347 128 
L 347 722 
Q 666 556 975 473 
Q 1284 391 1588 391 
Q 1994 391 2212 530 
Q 2431 669 2431 922 
Q 2431 1156 2273 1281 
Q 2116 1406 1581 1522 
L 1381 1569 
Q 847 1681 609 1914 
Q 372 2147 372 2553 
Q 372 3047 722 3315 
Q 1072 3584 1716 3584 
Q 2034 3584 2315 3537 
Q 2597 3491 2834 3397 
z
" transform="scale(0.015625)"/>
      <path id="DejaVuSans-74" d="M 1172 4494 
L 1172 3500 
L 2356 3500 
L 2356 3053 
L 1172 3053 
L 1172 1153 
Q 1172 725 1289 603 
Q 1406 481 1766 481 
L 2356 481 
L 2356 0 
L 1766 0 
Q 1100 0 847 248 
Q 594 497 594 1153 
L 594 3053 
L 172 3053 
L 172 3500 
L 594 3500 
L 594 4494 
L 1172 4494 
z
" transform="scale(0.015625)"/>
     </defs>
     <use xlink:href="#DejaVuSans-72"/>
     <use xlink:href="#DejaVuSans-65" x="38.863281"/>
     <use xlink:href="#DejaVuSans-63" x="100.386719"/>
     <use xlink:href="#DejaVuSans-66" x="155.367188"/>
     <use xlink:href="#DejaVuSans-61" x="190.572266"/>
     <use xlink:href="#DejaVuSans-73" x="251.851562"/>
     <use xlink:href="#DejaVuSans-74" x="303.951172"/>
    </g>
   </g>
  </g>
  <g id="axes_10">
   <g id="patch_29">
    <path d="M 481.909805 2187.145699 
L 642.911334 2187.145699 
L 642.911334 2150.684937 
L 481.909805 2150.684937 
z
" style="fill: #eaeaf2"/>
   </g>
   <g id="matplotlib.axis_19">
    <g id="xtick_19">
     <g id="line2d_73">
      <path d="M 489.228056 2187.145699 
L 489.228056 2150.684937 
" clip-path="url(#p40a253edb1)" style="fill: none; stroke: #ffffff; stroke-linecap: round"/>
     </g>
    </g>
    <g id="xtick_20">
     <g id="line2d_74">
      <path d="M 589.615592 2187.145699 
L 589.615592 2150.684937 
" clip-path="url(#p40a253edb1)" style="fill: none; stroke: #ffffff; stroke-linecap: round"/>
     </g>
    </g>
   </g>
   <g id="matplotlib.axis_20">
    <g id="ytick_19">
     <g id="line2d_75">
      <path d="M 481.909805 2178.883916 
L 642.911334 2178.883916 
" clip-path="url(#p40a253edb1)" style="fill: none; stroke: #ffffff; stroke-linecap: round"/>
     </g>
     <g id="text_38">
      <!-- 0 -->
      <g style="fill: #262626" transform="translate(457.71243 2187.660111) scale(0.231 -0.231)">
       <use xlink:href="#DejaVuSans-30"/>
      </g>
     </g>
    </g>
    <g id="ytick_20">
     <g id="line2d_76">
      <path d="M 481.909805 2157.49257 
L 642.911334 2157.49257 
" clip-path="url(#p40a253edb1)" style="fill: none; stroke: #ffffff; stroke-linecap: round"/>
     </g>
     <g id="text_39">
      <!-- 1 -->
      <g style="fill: #262626" transform="translate(457.71243 2166.268765) scale(0.231 -0.231)">
       <use xlink:href="#DejaVuSans-31"/>
      </g>
     </g>
    </g>
    <g id="text_40">
     <!-- % change -->
     <g style="fill: #262626" transform="translate(448.471617 2231.263662) rotate(-90) scale(0.252 -0.252)">
      <use xlink:href="#DejaVuSans-25"/>
      <use xlink:href="#DejaVuSans-20" x="95.019531"/>
      <use xlink:href="#DejaVuSans-63" x="126.806641"/>
      <use xlink:href="#DejaVuSans-68" x="181.787109"/>
      <use xlink:href="#DejaVuSans-61" x="245.166016"/>
      <use xlink:href="#DejaVuSans-6e" x="306.445312"/>
      <use xlink:href="#DejaVuSans-67" x="369.824219"/>
      <use xlink:href="#DejaVuSans-65" x="433.300781"/>
     </g>
    </g>
   </g>
   <g id="PolyCollection_37"/>
   <g id="PolyCollection_38"/>
   <g id="PolyCollection_39"/>
   <g id="PolyCollection_40"/>
   <g id="line2d_77">
    <path d="M 489.228056 2178.883916 
L 495.050533 2180.139641 
L 498.062159 2180.506132 
L 501.274561 2180.676057 
L 505.490837 2180.640533 
L 523.962144 2180.340173 
L 555.48383 2180.072363 
L 635.593083 2179.486168 
L 635.593083 2179.486168 
" clip-path="url(#p40a253edb1)" style="fill: none; stroke: #4c72b0; stroke-opacity: 0.9; stroke-width: 3; stroke-linecap: round"/>
   </g>
   <g id="line2d_78">
    <path d="M 489.228056 2178.883916 
L 496.455959 2179.700621 
L 500.672235 2179.891354 
L 505.892387 2179.885038 
L 539.823374 2179.610209 
L 635.593083 2179.125444 
L 635.593083 2179.125444 
" clip-path="url(#p40a253edb1)" style="fill: none; stroke: #dd8452; stroke-opacity: 0.9; stroke-width: 3; stroke-linecap: round"/>
   </g>
   <g id="line2d_79">
    <path d="M 489.228056 2178.883916 
L 495.452083 2180.303171 
L 498.46371 2180.669175 
L 501.475336 2180.8155 
L 505.691612 2180.76214 
L 522.757493 2180.474732 
L 557.49158 2180.223554 
L 635.593083 2179.741384 
L 635.593083 2179.741384 
" clip-path="url(#p40a253edb1)" style="fill: none; stroke: #55a868; stroke-opacity: 0.9; stroke-width: 3; stroke-linecap: round"/>
   </g>
   <g id="line2d_80">
    <path d="M 489.228056 2178.883916 
L 495.652859 2180.023385 
L 499.066035 2180.321198 
L 502.679986 2180.40372 
L 513.321065 2180.238878 
L 535.205548 2180.044635 
L 635.593083 2179.505696 
L 635.593083 2179.505696 
" clip-path="url(#p40a253edb1)" style="fill: none; stroke: #c44e52; stroke-opacity: 0.9; stroke-width: 3; stroke-linecap: round"/>
   </g>
   <g id="patch_30">
    <path d="M 481.909805 2187.145699 
L 481.909805 2150.684937 
" style="fill: none; stroke: #ffffff; stroke-width: 1.25; stroke-linejoin: miter; stroke-linecap: square"/>
   </g>
   <g id="patch_31">
    <path d="M 481.909805 2187.145699 
L 642.911334 2187.145699 
" style="fill: none; stroke: #ffffff; stroke-width: 1.25; stroke-linejoin: miter; stroke-linecap: square"/>
   </g>
   <g id="text_41">
    <!-- reclin2 -->
    <g style="fill: #262626" transform="translate(651.372177 2126.335193) rotate(-270) scale(0.252 -0.252)">
     <defs>
      <path id="DejaVuSans-6c" d="M 603 4863 
L 1178 4863 
L 1178 0 
L 603 0 
L 603 4863 
z
" transform="scale(0.015625)"/>
      <path id="DejaVuSans-69" d="M 603 3500 
L 1178 3500 
L 1178 0 
L 603 0 
L 603 3500 
z
M 603 4863 
L 1178 4863 
L 1178 4134 
L 603 4134 
L 603 4863 
z
" transform="scale(0.015625)"/>
     </defs>
     <use xlink:href="#DejaVuSans-72"/>
     <use xlink:href="#DejaVuSans-65" x="38.863281"/>
     <use xlink:href="#DejaVuSans-63" x="100.386719"/>
     <use xlink:href="#DejaVuSans-6c" x="155.367188"/>
     <use xlink:href="#DejaVuSans-69" x="183.150391"/>
     <use xlink:href="#DejaVuSans-6e" x="210.933594"/>
     <use xlink:href="#DejaVuSans-32" x="274.3125"/>
    </g>
   </g>
  </g>
  <g id="axes_11">
   <g id="patch_32">
    <path d="M 481.909805 2401.600154 
L 642.911334 2401.600154 
L 642.911334 2365.139392 
L 481.909805 2365.139392 
z
" style="fill: #eaeaf2"/>
   </g>
   <g id="matplotlib.axis_21">
    <g id="xtick_21">
     <g id="line2d_81">
      <path d="M 489.228056 2401.600154 
L 489.228056 2365.139392 
" clip-path="url(#p9bfef13c86)" style="fill: none; stroke: #ffffff; stroke-linecap: round"/>
     </g>
     <g id="text_42">
      <!-- 0 -->
      <g style="fill: #262626" transform="translate(481.879369 2428.652544) scale(0.231 -0.231)">
       <use xlink:href="#DejaVuSans-30"/>
      </g>
     </g>
    </g>
    <g id="xtick_22">
     <g id="line2d_82">
      <path d="M 589.615592 2401.600154 
L 589.615592 2365.139392 
" clip-path="url(#p9bfef13c86)" style="fill: none; stroke: #ffffff; stroke-linecap: round"/>
     </g>
     <g id="text_43">
      <!-- 500 -->
      <g style="fill: #262626" transform="translate(567.569529 2428.652544) scale(0.231 -0.231)">
       <use xlink:href="#DejaVuSans-35"/>
       <use xlink:href="#DejaVuSans-30" x="63.623047"/>
       <use xlink:href="#DejaVuSans-30" x="127.246094"/>
      </g>
     </g>
    </g>
    <g id="text_44">
     <!-- step -->
     <g style="fill: #262626" transform="translate(535.155195 2456.604685) scale(0.252 -0.252)">
      <defs>
       <path id="DejaVuSans-70" d="M 1159 525 
L 1159 -1331 
L 581 -1331 
L 581 3500 
L 1159 3500 
L 1159 2969 
Q 1341 3281 1617 3432 
Q 1894 3584 2278 3584 
Q 2916 3584 3314 3078 
Q 3713 2572 3713 1747 
Q 3713 922 3314 415 
Q 2916 -91 2278 -91 
Q 1894 -91 1617 61 
Q 1341 213 1159 525 
z
M 3116 1747 
Q 3116 2381 2855 2742 
Q 2594 3103 2138 3103 
Q 1681 3103 1420 2742 
Q 1159 2381 1159 1747 
Q 1159 1113 1420 752 
Q 1681 391 2138 391 
Q 2594 391 2855 752 
Q 3116 1113 3116 1747 
z
" transform="scale(0.015625)"/>
      </defs>
      <use xlink:href="#DejaVuSans-73"/>
      <use xlink:href="#DejaVuSans-74" x="52.099609"/>
      <use xlink:href="#DejaVuSans-65" x="91.308594"/>
      <use xlink:href="#DejaVuSans-70" x="152.832031"/>
     </g>
    </g>
   </g>
   <g id="matplotlib.axis_22">
    <g id="ytick_21">
     <g id="line2d_83">
      <path d="M 481.909805 2393.33837 
L 642.911334 2393.33837 
" clip-path="url(#p9bfef13c86)" style="fill: none; stroke: #ffffff; stroke-linecap: round"/>
     </g>
     <g id="text_45">
      <!-- 0 -->
      <g style="fill: #262626" transform="translate(457.71243 2402.114566) scale(0.231 -0.231)">
       <use xlink:href="#DejaVuSans-30"/>
      </g>
     </g>
    </g>
    <g id="ytick_22">
     <g id="line2d_84">
      <path d="M 481.909805 2371.947025 
L 642.911334 2371.947025 
" clip-path="url(#p9bfef13c86)" style="fill: none; stroke: #ffffff; stroke-linecap: round"/>
     </g>
     <g id="text_46">
      <!-- 1 -->
      <g style="fill: #262626" transform="translate(457.71243 2380.72322) scale(0.231 -0.231)">
       <use xlink:href="#DejaVuSans-31"/>
      </g>
     </g>
    </g>
    <g id="text_47">
     <!-- % change -->
     <g style="fill: #262626" transform="translate(448.471617 2445.718116) rotate(-90) scale(0.252 -0.252)">
      <use xlink:href="#DejaVuSans-25"/>
      <use xlink:href="#DejaVuSans-20" x="95.019531"/>
      <use xlink:href="#DejaVuSans-63" x="126.806641"/>
      <use xlink:href="#DejaVuSans-68" x="181.787109"/>
      <use xlink:href="#DejaVuSans-61" x="245.166016"/>
      <use xlink:href="#DejaVuSans-6e" x="306.445312"/>
      <use xlink:href="#DejaVuSans-67" x="369.824219"/>
      <use xlink:href="#DejaVuSans-65" x="433.300781"/>
     </g>
    </g>
   </g>
   <g id="PolyCollection_41"/>
   <g id="PolyCollection_42"/>
   <g id="PolyCollection_43"/>
   <g id="PolyCollection_44"/>
   <g id="line2d_85">
    <path d="M 489.228056 2393.33837 
L 496.054409 2394.838854 
L 500.672235 2395.572828 
L 505.490837 2396.117617 
L 510.710989 2396.479819 
L 516.131916 2396.631039 
L 522.958268 2396.592899 
L 536.008648 2396.239766 
L 554.279179 2395.885831 
L 635.593083 2394.683341 
L 635.593083 2394.683341 
" clip-path="url(#p9bfef13c86)" style="fill: none; stroke: #4c72b0; stroke-opacity: 0.9; stroke-width: 3; stroke-linecap: round"/>
   </g>
   <g id="line2d_86">
    <path d="M 489.228056 2393.33837 
L 498.46371 2394.414114 
L 504.888512 2394.884995 
L 511.915639 2395.176893 
L 519.745867 2395.272933 
L 529.985396 2395.160652 
L 557.290805 2394.780564 
L 635.593083 2394.004631 
L 635.593083 2394.004631 
" clip-path="url(#p9bfef13c86)" style="fill: none; stroke: #dd8452; stroke-opacity: 0.9; stroke-width: 3; stroke-linecap: round"/>
   </g>
   <g id="line2d_87">
    <path d="M 489.228056 2393.33837 
L 497.058284 2395.152337 
L 501.475336 2395.873769 
L 506.093162 2396.409443 
L 511.112539 2396.765014 
L 516.332691 2396.911054 
L 522.958268 2396.859959 
L 571.144285 2395.983612 
L 635.593083 2395.196919 
L 635.593083 2395.196919 
" clip-path="url(#p9bfef13c86)" style="fill: none; stroke: #55a868; stroke-opacity: 0.9; stroke-width: 3; stroke-linecap: round"/>
   </g>
   <g id="line2d_88">
    <path d="M 489.228056 2393.33837 
L 497.459834 2394.820137 
L 502.479211 2395.429467 
L 507.900138 2395.859351 
L 513.722615 2396.090046 
L 520.548967 2396.11596 
L 531.591596 2395.899575 
L 549.460578 2395.611089 
L 624.751229 2394.804738 
L 635.593083 2394.690527 
L 635.593083 2394.690527 
" clip-path="url(#p9bfef13c86)" style="fill: none; stroke: #c44e52; stroke-opacity: 0.9; stroke-width: 3; stroke-linecap: round"/>
   </g>
   <g id="patch_33">
    <path d="M 481.909805 2401.600154 
L 481.909805 2365.139392 
" style="fill: none; stroke: #ffffff; stroke-width: 1.25; stroke-linejoin: miter; stroke-linecap: square"/>
   </g>
   <g id="patch_34">
    <path d="M 481.909805 2401.600154 
L 642.911334 2401.600154 
" style="fill: none; stroke: #ffffff; stroke-width: 1.25; stroke-linejoin: miter; stroke-linecap: square"/>
   </g>
   <g id="text_48">
    <!-- reclin6 -->
    <g style="fill: #262626" transform="translate(651.372177 2340.789648) rotate(-270) scale(0.252 -0.252)">
     <use xlink:href="#DejaVuSans-72"/>
     <use xlink:href="#DejaVuSans-65" x="38.863281"/>
     <use xlink:href="#DejaVuSans-63" x="100.386719"/>
     <use xlink:href="#DejaVuSans-6c" x="155.367188"/>
     <use xlink:href="#DejaVuSans-69" x="183.150391"/>
     <use xlink:href="#DejaVuSans-6e" x="210.933594"/>
     <use xlink:href="#DejaVuSans-36" x="274.3125"/>
    </g>
   </g>
  </g>
  <g id="text_49">
   <!-- Production change from pre-shock level -->
   <g style="fill: #262626" transform="translate(287.700797 30.177675) scale(0.3024 -0.3024)">
    <defs>
     <path id="DejaVuSans-50" d="M 1259 4147 
L 1259 2394 
L 2053 2394 
Q 2494 2394 2734 2622 
Q 2975 2850 2975 3272 
Q 2975 3691 2734 3919 
Q 2494 4147 2053 4147 
L 1259 4147 
z
M 628 4666 
L 2053 4666 
Q 2838 4666 3239 4311 
Q 3641 3956 3641 3272 
Q 3641 2581 3239 2228 
Q 2838 1875 2053 1875 
L 1259 1875 
L 1259 0 
L 628 0 
L 628 4666 
z
" transform="scale(0.015625)"/>
     <path id="DejaVuSans-6f" d="M 1959 3097 
Q 1497 3097 1228 2736 
Q 959 2375 959 1747 
Q 959 1119 1226 758 
Q 1494 397 1959 397 
Q 2419 397 2687 759 
Q 2956 1122 2956 1747 
Q 2956 2369 2687 2733 
Q 2419 3097 1959 3097 
z
M 1959 3584 
Q 2709 3584 3137 3096 
Q 3566 2609 3566 1747 
Q 3566 888 3137 398 
Q 2709 -91 1959 -91 
Q 1206 -91 779 398 
Q 353 888 353 1747 
Q 353 2609 779 3096 
Q 1206 3584 1959 3584 
z
" transform="scale(0.015625)"/>
     <path id="DejaVuSans-64" d="M 2906 2969 
L 2906 4863 
L 3481 4863 
L 3481 0 
L 2906 0 
L 2906 525 
Q 2725 213 2448 61 
Q 2172 -91 1784 -91 
Q 1150 -91 751 415 
Q 353 922 353 1747 
Q 353 2572 751 3078 
Q 1150 3584 1784 3584 
Q 2172 3584 2448 3432 
Q 2725 3281 2906 2969 
z
M 947 1747 
Q 947 1113 1208 752 
Q 1469 391 1925 391 
Q 2381 391 2643 752 
Q 2906 1113 2906 1747 
Q 2906 2381 2643 2742 
Q 2381 3103 1925 3103 
Q 1469 3103 1208 2742 
Q 947 2381 947 1747 
z
" transform="scale(0.015625)"/>
     <path id="DejaVuSans-75" d="M 544 1381 
L 544 3500 
L 1119 3500 
L 1119 1403 
Q 1119 906 1312 657 
Q 1506 409 1894 409 
Q 2359 409 2629 706 
Q 2900 1003 2900 1516 
L 2900 3500 
L 3475 3500 
L 3475 0 
L 2900 0 
L 2900 538 
Q 2691 219 2414 64 
Q 2138 -91 1772 -91 
Q 1169 -91 856 284 
Q 544 659 544 1381 
z
M 1991 3584 
L 1991 3584 
z
" transform="scale(0.015625)"/>
     <path id="DejaVuSans-6d" d="M 3328 2828 
Q 3544 3216 3844 3400 
Q 4144 3584 4550 3584 
Q 5097 3584 5394 3201 
Q 5691 2819 5691 2113 
L 5691 0 
L 5113 0 
L 5113 2094 
Q 5113 2597 4934 2840 
Q 4756 3084 4391 3084 
Q 3944 3084 3684 2787 
Q 3425 2491 3425 1978 
L 3425 0 
L 2847 0 
L 2847 2094 
Q 2847 2600 2669 2842 
Q 2491 3084 2119 3084 
Q 1678 3084 1418 2786 
Q 1159 2488 1159 1978 
L 1159 0 
L 581 0 
L 581 3500 
L 1159 3500 
L 1159 2956 
Q 1356 3278 1631 3431 
Q 1906 3584 2284 3584 
Q 2666 3584 2933 3390 
Q 3200 3197 3328 2828 
z
" transform="scale(0.015625)"/>
     <path id="DejaVuSans-2d" d="M 313 2009 
L 1997 2009 
L 1997 1497 
L 313 1497 
L 313 2009 
z
" transform="scale(0.015625)"/>
     <path id="DejaVuSans-6b" d="M 581 4863 
L 1159 4863 
L 1159 1991 
L 2875 3500 
L 3609 3500 
L 1753 1863 
L 3688 0 
L 2938 0 
L 1159 1709 
L 1159 0 
L 581 0 
L 581 4863 
z
" transform="scale(0.015625)"/>
     <path id="DejaVuSans-76" d="M 191 3500 
L 800 3500 
L 1894 563 
L 2988 3500 
L 3597 3500 
L 2284 0 
L 1503 0 
L 191 3500 
z
" transform="scale(0.015625)"/>
    </defs>
    <use xlink:href="#DejaVuSans-50"/>
    <use xlink:href="#DejaVuSans-72" x="58.552734"/>
    <use xlink:href="#DejaVuSans-6f" x="97.416016"/>
    <use xlink:href="#DejaVuSans-64" x="158.597656"/>
    <use xlink:href="#DejaVuSans-75" x="222.074219"/>
    <use xlink:href="#DejaVuSans-63" x="285.453125"/>
    <use xlink:href="#DejaVuSans-74" x="340.433594"/>
    <use xlink:href="#DejaVuSans-69" x="379.642578"/>
    <use xlink:href="#DejaVuSans-6f" x="407.425781"/>
    <use xlink:href="#DejaVuSans-6e" x="468.607422"/>
    <use xlink:href="#DejaVuSans-20" x="531.986328"/>
    <use xlink:href="#DejaVuSans-63" x="563.773438"/>
    <use xlink:href="#DejaVuSans-68" x="618.753906"/>
    <use xlink:href="#DejaVuSans-61" x="682.132812"/>
    <use xlink:href="#DejaVuSans-6e" x="743.412109"/>
    <use xlink:href="#DejaVuSans-67" x="806.791016"/>
    <use xlink:href="#DejaVuSans-65" x="870.267578"/>
    <use xlink:href="#DejaVuSans-20" x="931.791016"/>
    <use xlink:href="#DejaVuSans-66" x="963.578125"/>
    <use xlink:href="#DejaVuSans-72" x="998.783203"/>
    <use xlink:href="#DejaVuSans-6f" x="1037.646484"/>
    <use xlink:href="#DejaVuSans-6d" x="1098.828125"/>
    <use xlink:href="#DejaVuSans-20" x="1196.240234"/>
    <use xlink:href="#DejaVuSans-70" x="1228.027344"/>
    <use xlink:href="#DejaVuSans-72" x="1291.503906"/>
    <use xlink:href="#DejaVuSans-65" x="1330.367188"/>
    <use xlink:href="#DejaVuSans-2d" x="1391.890625"/>
    <use xlink:href="#DejaVuSans-73" x="1427.974609"/>
    <use xlink:href="#DejaVuSans-68" x="1480.074219"/>
    <use xlink:href="#DejaVuSans-6f" x="1543.453125"/>
    <use xlink:href="#DejaVuSans-63" x="1604.634766"/>
    <use xlink:href="#DejaVuSans-6b" x="1659.615234"/>
    <use xlink:href="#DejaVuSans-20" x="1717.525391"/>
    <use xlink:href="#DejaVuSans-6c" x="1749.3125"/>
    <use xlink:href="#DejaVuSans-65" x="1777.095703"/>
    <use xlink:href="#DejaVuSans-76" x="1838.619141"/>
    <use xlink:href="#DejaVuSans-65" x="1897.798828"/>
    <use xlink:href="#DejaVuSans-6c" x="1959.322266"/>
   </g>
  </g>
  <g id="legend_1">
   <g id="patch_35">
    <path d="M 11.82 2590.967813 
L 1225.674469 2590.967813 
Q 1230.294469 2590.967813 1230.294469 2586.347812 
L 1230.294469 2518.17 
Q 1230.294469 2513.55 1225.674469 2513.55 
L 11.82 2513.55 
Q 7.2 2513.55 7.2 2518.17 
L 7.2 2586.347812 
Q 7.2 2590.967813 11.82 2590.967813 
z
" style="fill: #eaeaf2; opacity: 0.8; stroke: #cccccc; stroke-linejoin: miter"/>
   </g>
   <g id="text_50">
    <!-- Experiences -->
    <g style="fill: #262626" transform="translate(541.912828 2541.938062) scale(0.252 -0.252)">
     <defs>
      <path id="DejaVuSans-45" d="M 628 4666 
L 3578 4666 
L 3578 4134 
L 1259 4134 
L 1259 2753 
L 3481 2753 
L 3481 2222 
L 1259 2222 
L 1259 531 
L 3634 531 
L 3634 0 
L 628 0 
L 628 4666 
z
" transform="scale(0.015625)"/>
      <path id="DejaVuSans-78" d="M 3513 3500 
L 2247 1797 
L 3578 0 
L 2900 0 
L 1881 1375 
L 863 0 
L 184 0 
L 1544 1831 
L 300 3500 
L 978 3500 
L 1906 2253 
L 2834 3500 
L 3513 3500 
z
" transform="scale(0.015625)"/>
     </defs>
     <use xlink:href="#DejaVuSans-45"/>
     <use xlink:href="#DejaVuSans-78" x="63.183594"/>
     <use xlink:href="#DejaVuSans-70" x="122.363281"/>
     <use xlink:href="#DejaVuSans-65" x="185.839844"/>
     <use xlink:href="#DejaVuSans-72" x="247.363281"/>
     <use xlink:href="#DejaVuSans-69" x="288.476562"/>
     <use xlink:href="#DejaVuSans-65" x="316.259766"/>
     <use xlink:href="#DejaVuSans-6e" x="377.783203"/>
     <use xlink:href="#DejaVuSans-63" x="441.162109"/>
     <use xlink:href="#DejaVuSans-65" x="496.142578"/>
     <use xlink:href="#DejaVuSans-73" x="557.666016"/>
    </g>
   </g>
   <g id="line2d_89">
    <path d="M 16.44 2568.196266 
L 39.54 2568.196266 
L 62.64 2568.196266 
" style="fill: none; stroke: #4c72b0; stroke-opacity: 0.9; stroke-width: 3; stroke-linecap: round"/>
   </g>
   <g id="text_51">
    <!-- eora26_full_2000 -->
    <g style="fill: #262626" transform="translate(81.12 2576.281266) scale(0.231 -0.231)">
     <defs>
      <path id="DejaVuSans-5f" d="M 3263 -1063 
L 3263 -1509 
L -63 -1509 
L -63 -1063 
L 3263 -1063 
z
" transform="scale(0.015625)"/>
     </defs>
     <use xlink:href="#DejaVuSans-65"/>
     <use xlink:href="#DejaVuSans-6f" x="61.523438"/>
     <use xlink:href="#DejaVuSans-72" x="122.705078"/>
     <use xlink:href="#DejaVuSans-61" x="163.818359"/>
     <use xlink:href="#DejaVuSans-32" x="225.097656"/>
     <use xlink:href="#DejaVuSans-36" x="288.720703"/>
     <use xlink:href="#DejaVuSans-5f" x="352.34375"/>
     <use xlink:href="#DejaVuSans-66" x="402.34375"/>
     <use xlink:href="#DejaVuSans-75" x="437.548828"/>
     <use xlink:href="#DejaVuSans-6c" x="500.927734"/>
     <use xlink:href="#DejaVuSans-6c" x="528.710938"/>
     <use xlink:href="#DejaVuSans-5f" x="556.494141"/>
     <use xlink:href="#DejaVuSans-32" x="606.494141"/>
     <use xlink:href="#DejaVuSans-30" x="670.117188"/>
     <use xlink:href="#DejaVuSans-30" x="733.740234"/>
     <use xlink:href="#DejaVuSans-30" x="797.363281"/>
    </g>
   </g>
   <g id="line2d_90">
    <path d="M 326.211 2568.196266 
L 349.311 2568.196266 
L 372.411 2568.196266 
" style="fill: none; stroke: #dd8452; stroke-opacity: 0.9; stroke-width: 3; stroke-linecap: round"/>
   </g>
   <g id="text_52">
    <!-- eora26_full_2010 -->
    <g style="fill: #262626" transform="translate(390.891 2576.281266) scale(0.231 -0.231)">
     <use xlink:href="#DejaVuSans-65"/>
     <use xlink:href="#DejaVuSans-6f" x="61.523438"/>
     <use xlink:href="#DejaVuSans-72" x="122.705078"/>
     <use xlink:href="#DejaVuSans-61" x="163.818359"/>
     <use xlink:href="#DejaVuSans-32" x="225.097656"/>
     <use xlink:href="#DejaVuSans-36" x="288.720703"/>
     <use xlink:href="#DejaVuSans-5f" x="352.34375"/>
     <use xlink:href="#DejaVuSans-66" x="402.34375"/>
     <use xlink:href="#DejaVuSans-75" x="437.548828"/>
     <use xlink:href="#DejaVuSans-6c" x="500.927734"/>
     <use xlink:href="#DejaVuSans-6c" x="528.710938"/>
     <use xlink:href="#DejaVuSans-5f" x="556.494141"/>
     <use xlink:href="#DejaVuSans-32" x="606.494141"/>
     <use xlink:href="#DejaVuSans-30" x="670.117188"/>
     <use xlink:href="#DejaVuSans-31" x="733.740234"/>
     <use xlink:href="#DejaVuSans-30" x="797.363281"/>
    </g>
   </g>
   <g id="line2d_91">
    <path d="M 635.982 2568.196266 
L 659.082 2568.196266 
L 682.182 2568.196266 
" style="fill: none; stroke: #55a868; stroke-opacity: 0.9; stroke-width: 3; stroke-linecap: round"/>
   </g>
   <g id="text_53">
    <!-- euregio_full_2000 -->
    <g style="fill: #262626" transform="translate(700.662 2576.281266) scale(0.231 -0.231)">
     <use xlink:href="#DejaVuSans-65"/>
     <use xlink:href="#DejaVuSans-75" x="61.523438"/>
     <use xlink:href="#DejaVuSans-72" x="124.902344"/>
     <use xlink:href="#DejaVuSans-65" x="163.765625"/>
     <use xlink:href="#DejaVuSans-67" x="225.289062"/>
     <use xlink:href="#DejaVuSans-69" x="288.765625"/>
     <use xlink:href="#DejaVuSans-6f" x="316.548828"/>
     <use xlink:href="#DejaVuSans-5f" x="377.730469"/>
     <use xlink:href="#DejaVuSans-66" x="427.730469"/>
     <use xlink:href="#DejaVuSans-75" x="462.935547"/>
     <use xlink:href="#DejaVuSans-6c" x="526.314453"/>
     <use xlink:href="#DejaVuSans-6c" x="554.097656"/>
     <use xlink:href="#DejaVuSans-5f" x="581.880859"/>
     <use xlink:href="#DejaVuSans-32" x="631.880859"/>
     <use xlink:href="#DejaVuSans-30" x="695.503906"/>
     <use xlink:href="#DejaVuSans-30" x="759.126953"/>
     <use xlink:href="#DejaVuSans-30" x="822.75"/>
    </g>
   </g>
   <g id="line2d_92">
    <path d="M 951.618234 2568.196266 
L 974.718234 2568.196266 
L 997.818234 2568.196266 
" style="fill: none; stroke: #c44e52; stroke-opacity: 0.9; stroke-width: 3; stroke-linecap: round"/>
   </g>
   <g id="text_54">
    <!-- euregio_full_2010 -->
    <g style="fill: #262626" transform="translate(1016.298234 2576.281266) scale(0.231 -0.231)">
     <use xlink:href="#DejaVuSans-65"/>
     <use xlink:href="#DejaVuSans-75" x="61.523438"/>
     <use xlink:href="#DejaVuSans-72" x="124.902344"/>
     <use xlink:href="#DejaVuSans-65" x="163.765625"/>
     <use xlink:href="#DejaVuSans-67" x="225.289062"/>
     <use xlink:href="#DejaVuSans-69" x="288.765625"/>
     <use xlink:href="#DejaVuSans-6f" x="316.548828"/>
     <use xlink:href="#DejaVuSans-5f" x="377.730469"/>
     <use xlink:href="#DejaVuSans-66" x="427.730469"/>
     <use xlink:href="#DejaVuSans-75" x="462.935547"/>
     <use xlink:href="#DejaVuSans-6c" x="526.314453"/>
     <use xlink:href="#DejaVuSans-6c" x="554.097656"/>
     <use xlink:href="#DejaVuSans-5f" x="581.880859"/>
     <use xlink:href="#DejaVuSans-32" x="631.880859"/>
     <use xlink:href="#DejaVuSans-30" x="695.503906"/>
     <use xlink:href="#DejaVuSans-31" x="759.126953"/>
     <use xlink:href="#DejaVuSans-30" x="822.75"/>
    </g>
   </g>
  </g>
 </g>
 <defs>
  <clipPath id="p0831991665">
   <rect x="481.909805" y="220.594846" width="161.001529" height="36.460762"/>
  </clipPath>
  <clipPath id="p6a00e8c1ed">
   <rect x="481.909805" y="435.049301" width="161.001529" height="36.460762"/>
  </clipPath>
  <clipPath id="p84fb2f3793">
   <rect x="481.909805" y="649.503755" width="161.001529" height="36.460762"/>
  </clipPath>
  <clipPath id="pc6c0a470a0">
   <rect x="481.909805" y="863.95821" width="161.001529" height="36.460762"/>
  </clipPath>
  <clipPath id="pe29e708625">
   <rect x="481.909805" y="1078.412664" width="161.001529" height="36.460762"/>
  </clipPath>
  <clipPath id="pb18ddeea38">
   <rect x="481.909805" y="1292.867119" width="161.001529" height="36.460762"/>
  </clipPath>
  <clipPath id="p917ec5d65e">
   <rect x="481.909805" y="1507.321573" width="161.001529" height="36.460762"/>
  </clipPath>
  <clipPath id="p473df259f0">
   <rect x="481.909805" y="1721.776028" width="161.001529" height="36.460762"/>
  </clipPath>
  <clipPath id="peb32a862ad">
   <rect x="481.909805" y="1936.230483" width="161.001529" height="36.460762"/>
  </clipPath>
  <clipPath id="p40a253edb1">
   <rect x="481.909805" y="2150.684937" width="161.001529" height="36.460762"/>
  </clipPath>
  <clipPath id="p9bfef13c86">
   <rect x="481.909805" y="2365.139392" width="161.001529" height="36.460762"/>
  </clipPath>
 </defs>
</svg>
