<?xml version="1.0" encoding="utf-8" standalone="no"?>
<!DOCTYPE svg PUBLIC "-//W3C//DTD SVG 1.1//EN"
  "http://www.w3.org/Graphics/SVG/1.1/DTD/svg11.dtd">
<svg xmlns:xlink="http://www.w3.org/1999/xlink" width="1304.437547pt" height="591.51675pt" viewBox="0 0 1304.437547 591.51675" xmlns="http://www.w3.org/2000/svg" version="1.1">
 <metadata>
  <rdf:RDF xmlns:dc="http://purl.org/dc/elements/1.1/" xmlns:cc="http://creativecommons.org/ns#" xmlns:rdf="http://www.w3.org/1999/02/22-rdf-syntax-ns#">
   <cc:Work>
    <dc:type rdf:resource="http://purl.org/dc/dcmitype/StillImage"/>
    <dc:date>2023-04-28T12:10:54.858538</dc:date>
    <dc:format>image/svg+xml</dc:format>
    <dc:creator>
     <cc:Agent>
      <dc:title>Matplotlib v3.7.1, https://matplotlib.org/</dc:title>
     </cc:Agent>
    </dc:creator>
   </cc:Work>
  </rdf:RDF>
 </metadata>
 <defs>
  <style type="text/css">*{stroke-linejoin: round; stroke-linecap: butt}</style>
 </defs>
 <g id="figure_1">
  <g id="patch_1">
   <path d="M 0 591.51675 
L 1304.437547 591.51675 
L 1304.437547 -0 
L 0 -0 
z
" style="fill: #ffffff"/>
  </g>
  <g id="axes_1">
   <g id="patch_2">
    <path d="M 170.340091 201.042 
L 462.70916 201.042 
L 462.70916 81.456 
L 170.340091 81.456 
z
" style="fill: #eaeaf2"/>
   </g>
   <g id="matplotlib.axis_1">
    <g id="xtick_1">
     <g id="line2d_1">
      <path d="M 183.629594 201.042 
L 183.629594 81.456 
" clip-path="url(#pa5e7f15a6e)" style="fill: none; stroke: #ffffff; stroke-linecap: round"/>
     </g>
    </g>
    <g id="xtick_2">
     <g id="line2d_2">
      <path d="M 274.77845 201.042 
L 274.77845 81.456 
" clip-path="url(#pa5e7f15a6e)" style="fill: none; stroke: #ffffff; stroke-linecap: round"/>
     </g>
    </g>
    <g id="xtick_3">
     <g id="line2d_3">
      <path d="M 365.927305 201.042 
L 365.927305 81.456 
" clip-path="url(#pa5e7f15a6e)" style="fill: none; stroke: #ffffff; stroke-linecap: round"/>
     </g>
    </g>
    <g id="xtick_4">
     <g id="line2d_4">
      <path d="M 457.076161 201.042 
L 457.076161 81.456 
" clip-path="url(#pa5e7f15a6e)" style="fill: none; stroke: #ffffff; stroke-linecap: round"/>
     </g>
    </g>
   </g>
   <g id="matplotlib.axis_2">
    <g id="ytick_1">
     <g id="line2d_5">
      <path d="M 170.340091 175.092223 
L 462.70916 175.092223 
" clip-path="url(#pa5e7f15a6e)" style="fill: none; stroke: #ffffff; stroke-linecap: round"/>
     </g>
     <g id="text_1">
      <!-- −2.5 -->
      <g style="fill: #262626" transform="translate(104.746794 183.868418) scale(0.231 -0.231)">
       <defs>
        <path id="DejaVuSans-2212" d="M 678 2272 
L 4684 2272 
L 4684 1741 
L 678 1741 
L 678 2272 
z
" transform="scale(0.015625)"/>
        <path id="DejaVuSans-32" d="M 1228 531 
L 3431 531 
L 3431 0 
L 469 0 
L 469 531 
Q 828 903 1448 1529 
Q 2069 2156 2228 2338 
Q 2531 2678 2651 2914 
Q 2772 3150 2772 3378 
Q 2772 3750 2511 3984 
Q 2250 4219 1831 4219 
Q 1534 4219 1204 4116 
Q 875 4013 500 3803 
L 500 4441 
Q 881 4594 1212 4672 
Q 1544 4750 1819 4750 
Q 2544 4750 2975 4387 
Q 3406 4025 3406 3419 
Q 3406 3131 3298 2873 
Q 3191 2616 2906 2266 
Q 2828 2175 2409 1742 
Q 1991 1309 1228 531 
z
" transform="scale(0.015625)"/>
        <path id="DejaVuSans-2e" d="M 684 794 
L 1344 794 
L 1344 0 
L 684 0 
L 684 794 
z
" transform="scale(0.015625)"/>
        <path id="DejaVuSans-35" d="M 691 4666 
L 3169 4666 
L 3169 4134 
L 1269 4134 
L 1269 2991 
Q 1406 3038 1543 3061 
Q 1681 3084 1819 3084 
Q 2600 3084 3056 2656 
Q 3513 2228 3513 1497 
Q 3513 744 3044 326 
Q 2575 -91 1722 -91 
Q 1428 -91 1123 -41 
Q 819 9 494 109 
L 494 744 
Q 775 591 1075 516 
Q 1375 441 1709 441 
Q 2250 441 2565 725 
Q 2881 1009 2881 1497 
Q 2881 1984 2565 2268 
Q 2250 2553 1709 2553 
Q 1456 2553 1204 2497 
Q 953 2441 691 2322 
L 691 4666 
z
" transform="scale(0.015625)"/>
       </defs>
       <use xlink:href="#DejaVuSans-2212"/>
       <use xlink:href="#DejaVuSans-32" x="83.789062"/>
       <use xlink:href="#DejaVuSans-2e" x="147.412109"/>
       <use xlink:href="#DejaVuSans-35" x="179.199219"/>
      </g>
     </g>
    </g>
    <g id="ytick_2">
     <g id="line2d_6">
      <path d="M 170.340091 101.388252 
L 462.70916 101.388252 
" clip-path="url(#pa5e7f15a6e)" style="fill: none; stroke: #ffffff; stroke-linecap: round"/>
     </g>
     <g id="text_2">
      <!-- 0.0 -->
      <g style="fill: #262626" transform="translate(124.103872 110.164448) scale(0.231 -0.231)">
       <defs>
        <path id="DejaVuSans-30" d="M 2034 4250 
Q 1547 4250 1301 3770 
Q 1056 3291 1056 2328 
Q 1056 1369 1301 889 
Q 1547 409 2034 409 
Q 2525 409 2770 889 
Q 3016 1369 3016 2328 
Q 3016 3291 2770 3770 
Q 2525 4250 2034 4250 
z
M 2034 4750 
Q 2819 4750 3233 4129 
Q 3647 3509 3647 2328 
Q 3647 1150 3233 529 
Q 2819 -91 2034 -91 
Q 1250 -91 836 529 
Q 422 1150 422 2328 
Q 422 3509 836 4129 
Q 1250 4750 2034 4750 
z
" transform="scale(0.015625)"/>
       </defs>
       <use xlink:href="#DejaVuSans-30"/>
       <use xlink:href="#DejaVuSans-2e" x="63.623047"/>
       <use xlink:href="#DejaVuSans-30" x="95.410156"/>
      </g>
     </g>
    </g>
    <g id="text_3">
     <!-- % change -->
     <g style="fill: #262626" transform="translate(95.505982 203.597344) rotate(-90) scale(0.252 -0.252)">
      <defs>
       <path id="DejaVuSans-25" d="M 4653 2053 
Q 4381 2053 4226 1822 
Q 4072 1591 4072 1178 
Q 4072 772 4226 539 
Q 4381 306 4653 306 
Q 4919 306 5073 539 
Q 5228 772 5228 1178 
Q 5228 1588 5073 1820 
Q 4919 2053 4653 2053 
z
M 4653 2450 
Q 5147 2450 5437 2106 
Q 5728 1763 5728 1178 
Q 5728 594 5436 251 
Q 5144 -91 4653 -91 
Q 4153 -91 3862 251 
Q 3572 594 3572 1178 
Q 3572 1766 3864 2108 
Q 4156 2450 4653 2450 
z
M 1428 4353 
Q 1159 4353 1004 4120 
Q 850 3888 850 3481 
Q 850 3069 1003 2837 
Q 1156 2606 1428 2606 
Q 1700 2606 1854 2837 
Q 2009 3069 2009 3481 
Q 2009 3884 1853 4118 
Q 1697 4353 1428 4353 
z
M 4250 4750 
L 4750 4750 
L 1831 -91 
L 1331 -91 
L 4250 4750 
z
M 1428 4750 
Q 1922 4750 2215 4408 
Q 2509 4066 2509 3481 
Q 2509 2891 2217 2550 
Q 1925 2209 1428 2209 
Q 931 2209 642 2551 
Q 353 2894 353 3481 
Q 353 4063 643 4406 
Q 934 4750 1428 4750 
z
" transform="scale(0.015625)"/>
       <path id="DejaVuSans-20" transform="scale(0.015625)"/>
       <path id="DejaVuSans-63" d="M 3122 3366 
L 3122 2828 
Q 2878 2963 2633 3030 
Q 2388 3097 2138 3097 
Q 1578 3097 1268 2742 
Q 959 2388 959 1747 
Q 959 1106 1268 751 
Q 1578 397 2138 397 
Q 2388 397 2633 464 
Q 2878 531 3122 666 
L 3122 134 
Q 2881 22 2623 -34 
Q 2366 -91 2075 -91 
Q 1284 -91 818 406 
Q 353 903 353 1747 
Q 353 2603 823 3093 
Q 1294 3584 2113 3584 
Q 2378 3584 2631 3529 
Q 2884 3475 3122 3366 
z
" transform="scale(0.015625)"/>
       <path id="DejaVuSans-68" d="M 3513 2113 
L 3513 0 
L 2938 0 
L 2938 2094 
Q 2938 2591 2744 2837 
Q 2550 3084 2163 3084 
Q 1697 3084 1428 2787 
Q 1159 2491 1159 1978 
L 1159 0 
L 581 0 
L 581 4863 
L 1159 4863 
L 1159 2956 
Q 1366 3272 1645 3428 
Q 1925 3584 2291 3584 
Q 2894 3584 3203 3211 
Q 3513 2838 3513 2113 
z
" transform="scale(0.015625)"/>
       <path id="DejaVuSans-61" d="M 2194 1759 
Q 1497 1759 1228 1600 
Q 959 1441 959 1056 
Q 959 750 1161 570 
Q 1363 391 1709 391 
Q 2188 391 2477 730 
Q 2766 1069 2766 1631 
L 2766 1759 
L 2194 1759 
z
M 3341 1997 
L 3341 0 
L 2766 0 
L 2766 531 
Q 2569 213 2275 61 
Q 1981 -91 1556 -91 
Q 1019 -91 701 211 
Q 384 513 384 1019 
Q 384 1609 779 1909 
Q 1175 2209 1959 2209 
L 2766 2209 
L 2766 2266 
Q 2766 2663 2505 2880 
Q 2244 3097 1772 3097 
Q 1472 3097 1187 3025 
Q 903 2953 641 2809 
L 641 3341 
Q 956 3463 1253 3523 
Q 1550 3584 1831 3584 
Q 2591 3584 2966 3190 
Q 3341 2797 3341 1997 
z
" transform="scale(0.015625)"/>
       <path id="DejaVuSans-6e" d="M 3513 2113 
L 3513 0 
L 2938 0 
L 2938 2094 
Q 2938 2591 2744 2837 
Q 2550 3084 2163 3084 
Q 1697 3084 1428 2787 
Q 1159 2491 1159 1978 
L 1159 0 
L 581 0 
L 581 3500 
L 1159 3500 
L 1159 2956 
Q 1366 3272 1645 3428 
Q 1925 3584 2291 3584 
Q 2894 3584 3203 3211 
Q 3513 2838 3513 2113 
z
" transform="scale(0.015625)"/>
       <path id="DejaVuSans-67" d="M 2906 1791 
Q 2906 2416 2648 2759 
Q 2391 3103 1925 3103 
Q 1463 3103 1205 2759 
Q 947 2416 947 1791 
Q 947 1169 1205 825 
Q 1463 481 1925 481 
Q 2391 481 2648 825 
Q 2906 1169 2906 1791 
z
M 3481 434 
Q 3481 -459 3084 -895 
Q 2688 -1331 1869 -1331 
Q 1566 -1331 1297 -1286 
Q 1028 -1241 775 -1147 
L 775 -588 
Q 1028 -725 1275 -790 
Q 1522 -856 1778 -856 
Q 2344 -856 2625 -561 
Q 2906 -266 2906 331 
L 2906 616 
Q 2728 306 2450 153 
Q 2172 0 1784 0 
Q 1141 0 747 490 
Q 353 981 353 1791 
Q 353 2603 747 3093 
Q 1141 3584 1784 3584 
Q 2172 3584 2450 3431 
Q 2728 3278 2906 2969 
L 2906 3500 
L 3481 3500 
L 3481 434 
z
" transform="scale(0.015625)"/>
       <path id="DejaVuSans-65" d="M 3597 1894 
L 3597 1613 
L 953 1613 
Q 991 1019 1311 708 
Q 1631 397 2203 397 
Q 2534 397 2845 478 
Q 3156 559 3463 722 
L 3463 178 
Q 3153 47 2828 -22 
Q 2503 -91 2169 -91 
Q 1331 -91 842 396 
Q 353 884 353 1716 
Q 353 2575 817 3079 
Q 1281 3584 2069 3584 
Q 2775 3584 3186 3129 
Q 3597 2675 3597 1894 
z
M 3022 2063 
Q 3016 2534 2758 2815 
Q 2500 3097 2075 3097 
Q 1594 3097 1305 2825 
Q 1016 2553 972 2059 
L 3022 2063 
z
" transform="scale(0.015625)"/>
      </defs>
      <use xlink:href="#DejaVuSans-25"/>
      <use xlink:href="#DejaVuSans-20" x="95.019531"/>
      <use xlink:href="#DejaVuSans-63" x="126.806641"/>
      <use xlink:href="#DejaVuSans-68" x="181.787109"/>
      <use xlink:href="#DejaVuSans-61" x="245.166016"/>
      <use xlink:href="#DejaVuSans-6e" x="306.445312"/>
      <use xlink:href="#DejaVuSans-67" x="369.824219"/>
      <use xlink:href="#DejaVuSans-65" x="433.300781"/>
     </g>
    </g>
   </g>
   <g id="PolyCollection_1"/>
   <g id="PolyCollection_2"/>
   <g id="PolyCollection_3"/>
   <g id="PolyCollection_4"/>
   <g id="PolyCollection_5"/>
   <g id="PolyCollection_6"/>
   <g id="line2d_7">
    <path d="M 183.629594 101.388252 
L 183.99419 109.465363 
L 184.358785 109.743607 
L 185.087976 109.818317 
L 188.73393 109.68333 
L 189.098526 109.393965 
L 194.567457 108.369176 
L 210.609655 105.577647 
L 221.912114 103.806622 
L 236.49593 101.723111 
L 250.715152 99.913579 
L 265.298969 98.282782 
L 279.882786 96.873556 
L 294.831198 95.651074 
L 310.144206 94.620009 
L 323.998832 93.890504 
L 334.572099 93.810208 
L 350.978893 93.989661 
L 367.021092 94.215292 
L 385.250863 94.684129 
L 420.616619 95.512204 
L 436.658817 95.880037 
L 449.419657 96.177002 
L 449.419657 96.177002 
" clip-path="url(#pa5e7f15a6e)" style="fill: none; stroke: #4c72b0; stroke-opacity: 0.9; stroke-width: 3; stroke-linecap: round"/>
   </g>
   <g id="line2d_8">
    <path d="M 183.629594 101.388252 
L 183.99419 109.23319 
L 184.358785 109.560985 
L 185.087976 109.700333 
L 188.004739 109.628186 
L 188.73393 109.603711 
L 189.098526 109.272849 
L 193.109075 108.573312 
L 201.859365 107.20955 
L 217.536969 104.955924 
L 233.943763 102.882308 
L 249.621366 101.126979 
L 265.663564 99.553793 
L 282.434954 98.135453 
L 299.570939 96.912062 
L 317.071519 95.887183 
L 326.551 95.495879 
L 336.759672 95.406676 
L 358.635397 95.417264 
L 375.771382 95.490494 
L 391.81358 95.742402 
L 420.981214 96.047776 
L 449.055062 96.429213 
L 449.419657 96.433333 
L 449.419657 96.433333 
" clip-path="url(#pa5e7f15a6e)" style="fill: none; stroke: #dd8452; stroke-opacity: 0.9; stroke-width: 3; stroke-linecap: round"/>
   </g>
   <g id="line2d_9">
    <path d="M 183.629594 101.388252 
L 183.99419 109.880837 
L 184.358785 110.335276 
L 185.087976 110.46141 
L 188.73393 110.318721 
L 189.827716 110.025118 
L 201.49477 107.882506 
L 212.068037 106.149731 
L 219.724541 105.070355 
L 227.74564 104.263858 
L 267.486541 100.976246 
L 319.259091 96.399672 
L 335.30129 95.309215 
L 344.780771 94.864007 
L 353.895657 94.698128 
L 360.458374 94.783619 
L 384.521672 95.314005 
L 449.419657 96.650509 
L 449.419657 96.650509 
" clip-path="url(#pa5e7f15a6e)" style="fill: none; stroke: #55a868; stroke-opacity: 0.9; stroke-width: 3; stroke-linecap: round"/>
   </g>
   <g id="line2d_10">
    <path d="M 183.629594 101.388252 
L 183.99419 109.600227 
L 184.358785 110.049786 
L 185.087976 110.172025 
L 188.73393 110.03529 
L 189.827716 109.766514 
L 202.223961 107.600246 
L 211.703442 106.153077 
L 222.276709 104.989467 
L 231.391595 104.303301 
L 242.329457 103.588225 
L 257.642465 102.47085 
L 280.247381 100.572109 
L 314.519351 97.707319 
L 334.207504 96.292252 
L 343.686985 95.807872 
L 356.81242 95.480907 
L 368.114878 95.381193 
L 382.334099 95.529897 
L 435.929627 96.652426 
L 449.419657 96.893856 
L 449.419657 96.893856 
" clip-path="url(#pa5e7f15a6e)" style="fill: none; stroke: #c44e52; stroke-opacity: 0.9; stroke-width: 3; stroke-linecap: round"/>
   </g>
   <g id="line2d_11">
    <path d="M 183.629594 101.388252 
L 183.99419 109.761535 
L 184.358785 110.121681 
L 185.087976 110.172646 
L 188.73393 110.029449 
L 190.556907 109.605102 
L 200.400984 107.609672 
L 209.515869 105.938414 
L 225.193472 103.308191 
L 239.048098 101.20244 
L 253.996511 99.156876 
L 268.944923 97.340011 
L 283.893335 95.74792 
L 298.477152 94.415688 
L 313.425565 93.275659 
L 324.728023 92.598771 
L 341.134817 92.384501 
L 353.895657 92.675945 
L 367.021092 93.184241 
L 382.334099 93.736371 
L 397.647107 94.467453 
L 412.960115 95.250617 
L 432.648268 95.901699 
L 449.419657 96.344183 
L 449.419657 96.344183 
" clip-path="url(#pa5e7f15a6e)" style="fill: none; stroke: #8172b3; stroke-opacity: 0.9; stroke-width: 3; stroke-linecap: round"/>
   </g>
   <g id="line2d_12">
    <path d="M 183.629594 101.388252 
L 183.99419 109.569926 
L 184.358785 109.868399 
L 185.452571 109.904917 
L 189.098526 109.672819 
L 197.119625 108.194907 
L 209.515869 106.126123 
L 225.922663 103.669079 
L 240.871076 101.651421 
L 256.184083 99.807665 
L 272.226282 98.100716 
L 287.903885 96.652868 
L 303.581488 95.424247 
L 319.623687 94.391704 
L 325.457214 94.162137 
L 342.228603 93.961832 
L 358.999992 94.18105 
L 387.803031 94.859856 
L 433.012863 96.546679 
L 449.419657 96.888207 
L 449.419657 96.888207 
" clip-path="url(#pa5e7f15a6e)" style="fill: none; stroke: #937860; stroke-opacity: 0.9; stroke-width: 3; stroke-linecap: round"/>
   </g>
   <g id="patch_3">
    <path d="M 170.340091 201.042 
L 170.340091 81.456 
" style="fill: none; stroke: #ffffff; stroke-width: 1.25; stroke-linejoin: miter; stroke-linecap: square"/>
   </g>
   <g id="patch_4">
    <path d="M 170.340091 201.042 
L 462.70916 201.042 
" style="fill: none; stroke: #ffffff; stroke-width: 1.25; stroke-linejoin: miter; stroke-linecap: square"/>
   </g>
   <g id="text_4">
    <!-- 0.8~90 -->
    <g style="fill: #262626" transform="translate(269.894782 75.456) scale(0.252 -0.252)">
     <defs>
      <path id="DejaVuSans-38" d="M 2034 2216 
Q 1584 2216 1326 1975 
Q 1069 1734 1069 1313 
Q 1069 891 1326 650 
Q 1584 409 2034 409 
Q 2484 409 2743 651 
Q 3003 894 3003 1313 
Q 3003 1734 2745 1975 
Q 2488 2216 2034 2216 
z
M 1403 2484 
Q 997 2584 770 2862 
Q 544 3141 544 3541 
Q 544 4100 942 4425 
Q 1341 4750 2034 4750 
Q 2731 4750 3128 4425 
Q 3525 4100 3525 3541 
Q 3525 3141 3298 2862 
Q 3072 2584 2669 2484 
Q 3125 2378 3379 2068 
Q 3634 1759 3634 1313 
Q 3634 634 3220 271 
Q 2806 -91 2034 -91 
Q 1263 -91 848 271 
Q 434 634 434 1313 
Q 434 1759 690 2068 
Q 947 2378 1403 2484 
z
M 1172 3481 
Q 1172 3119 1398 2916 
Q 1625 2713 2034 2713 
Q 2441 2713 2670 2916 
Q 2900 3119 2900 3481 
Q 2900 3844 2670 4047 
Q 2441 4250 2034 4250 
Q 1625 4250 1398 4047 
Q 1172 3844 1172 3481 
z
" transform="scale(0.015625)"/>
      <path id="DejaVuSans-7e" d="M 4684 2553 
L 4684 1997 
Q 4356 1750 4076 1644 
Q 3797 1538 3494 1538 
Q 3150 1538 2694 1722 
Q 2659 1734 2644 1741 
Q 2622 1750 2575 1766 
Q 2091 1959 1797 1959 
Q 1522 1959 1253 1839 
Q 984 1719 678 1459 
L 678 2016 
Q 1006 2263 1286 2370 
Q 1566 2478 1869 2478 
Q 2213 2478 2672 2291 
Q 2703 2278 2719 2272 
Q 2744 2263 2788 2247 
Q 3272 2053 3566 2053 
Q 3834 2053 4098 2172 
Q 4363 2291 4684 2553 
z
" transform="scale(0.015625)"/>
      <path id="DejaVuSans-39" d="M 703 97 
L 703 672 
Q 941 559 1184 500 
Q 1428 441 1663 441 
Q 2288 441 2617 861 
Q 2947 1281 2994 2138 
Q 2813 1869 2534 1725 
Q 2256 1581 1919 1581 
Q 1219 1581 811 2004 
Q 403 2428 403 3163 
Q 403 3881 828 4315 
Q 1253 4750 1959 4750 
Q 2769 4750 3195 4129 
Q 3622 3509 3622 2328 
Q 3622 1225 3098 567 
Q 2575 -91 1691 -91 
Q 1453 -91 1209 -44 
Q 966 3 703 97 
z
M 1959 2075 
Q 2384 2075 2632 2365 
Q 2881 2656 2881 3163 
Q 2881 3666 2632 3958 
Q 2384 4250 1959 4250 
Q 1534 4250 1286 3958 
Q 1038 3666 1038 3163 
Q 1038 2656 1286 2365 
Q 1534 2075 1959 2075 
z
" transform="scale(0.015625)"/>
     </defs>
     <use xlink:href="#DejaVuSans-30"/>
     <use xlink:href="#DejaVuSans-2e" x="63.623047"/>
     <use xlink:href="#DejaVuSans-38" x="95.410156"/>
     <use xlink:href="#DejaVuSans-7e" x="159.033203"/>
     <use xlink:href="#DejaVuSans-39" x="242.822266"/>
     <use xlink:href="#DejaVuSans-30" x="306.445312"/>
    </g>
   </g>
  </g>
  <g id="axes_2">
   <g id="patch_5">
    <path d="M 489.290298 201.042 
L 781.659367 201.042 
L 781.659367 81.456 
L 489.290298 81.456 
z
" style="fill: #eaeaf2"/>
   </g>
   <g id="matplotlib.axis_3">
    <g id="xtick_5">
     <g id="line2d_13">
      <path d="M 502.579801 201.042 
L 502.579801 81.456 
" clip-path="url(#p4b2a214e72)" style="fill: none; stroke: #ffffff; stroke-linecap: round"/>
     </g>
    </g>
    <g id="xtick_6">
     <g id="line2d_14">
      <path d="M 593.728656 201.042 
L 593.728656 81.456 
" clip-path="url(#p4b2a214e72)" style="fill: none; stroke: #ffffff; stroke-linecap: round"/>
     </g>
    </g>
    <g id="xtick_7">
     <g id="line2d_15">
      <path d="M 684.877512 201.042 
L 684.877512 81.456 
" clip-path="url(#p4b2a214e72)" style="fill: none; stroke: #ffffff; stroke-linecap: round"/>
     </g>
    </g>
    <g id="xtick_8">
     <g id="line2d_16">
      <path d="M 776.026368 201.042 
L 776.026368 81.456 
" clip-path="url(#p4b2a214e72)" style="fill: none; stroke: #ffffff; stroke-linecap: round"/>
     </g>
    </g>
   </g>
   <g id="matplotlib.axis_4">
    <g id="ytick_3">
     <g id="line2d_17">
      <path d="M 489.290298 175.092223 
L 781.659367 175.092223 
" clip-path="url(#p4b2a214e72)" style="fill: none; stroke: #ffffff; stroke-linecap: round"/>
     </g>
    </g>
    <g id="ytick_4">
     <g id="line2d_18">
      <path d="M 489.290298 101.388252 
L 781.659367 101.388252 
" clip-path="url(#p4b2a214e72)" style="fill: none; stroke: #ffffff; stroke-linecap: round"/>
     </g>
    </g>
   </g>
   <g id="PolyCollection_7"/>
   <g id="PolyCollection_8"/>
   <g id="PolyCollection_9"/>
   <g id="PolyCollection_10"/>
   <g id="PolyCollection_11"/>
   <g id="PolyCollection_12"/>
   <g id="line2d_19">
    <path d="M 502.579801 101.388252 
L 502.944396 109.465363 
L 503.308992 109.752577 
L 504.038182 109.848463 
L 507.684137 109.821249 
L 508.048732 109.551362 
L 516.069831 108.821027 
L 537.580961 107.040151 
L 560.185878 105.395479 
L 581.697007 104.048225 
L 605.760305 102.788274 
L 631.281985 101.678731 
L 658.991237 100.70267 
L 689.252657 99.864936 
L 722.430841 99.172032 
L 754.150642 98.716701 
L 766.546887 98.828483 
L 768.369864 98.842808 
L 768.369864 98.842808 
" clip-path="url(#p4b2a214e72)" style="fill: none; stroke: #4c72b0; stroke-opacity: 0.9; stroke-width: 3; stroke-linecap: round"/>
   </g>
   <g id="line2d_20">
    <path d="M 502.579801 101.388252 
L 502.944396 109.23319 
L 503.308992 109.568343 
L 504.038182 109.725371 
L 506.954946 109.726877 
L 507.684137 109.720648 
L 508.048732 109.404418 
L 513.153068 108.949799 
L 533.570412 107.338671 
L 557.269114 105.721419 
L 580.967817 104.331222 
L 602.843542 103.258389 
L 629.459008 102.172293 
L 658.262046 101.223197 
L 689.981848 100.403382 
L 725.347604 99.716549 
L 755.609024 99.326811 
L 768.369864 99.413118 
L 768.369864 99.413118 
" clip-path="url(#p4b2a214e72)" style="fill: none; stroke: #dd8452; stroke-opacity: 0.9; stroke-width: 3; stroke-linecap: round"/>
   </g>
   <g id="line2d_21">
    <path d="M 502.579801 101.388252 
L 502.944396 109.880837 
L 503.308992 110.344938 
L 504.038182 110.494064 
L 507.684137 110.468725 
L 508.413328 110.310162 
L 519.35119 109.312229 
L 537.216366 107.837887 
L 543.414488 107.540684 
L 552.164778 107.345776 
L 586.801343 106.516207 
L 605.760305 105.737415 
L 629.823603 104.511408 
L 665.189359 102.473887 
L 712.95136 99.732304 
L 724.618413 99.315033 
L 749.410902 99.022583 
L 768.369864 98.910854 
L 768.369864 98.910854 
" clip-path="url(#p4b2a214e72)" style="fill: none; stroke: #55a868; stroke-opacity: 0.9; stroke-width: 3; stroke-linecap: round"/>
   </g>
   <g id="line2d_22">
    <path d="M 502.579801 101.388252 
L 502.944396 109.600227 
L 503.308992 110.059041 
L 504.038182 110.203398 
L 507.684137 110.179689 
L 508.777923 110.004827 
L 529.195267 108.273892 
L 536.85177 107.893513 
L 544.143679 107.642442 
L 577.321862 107.184247 
L 594.093252 106.647213 
L 614.510595 105.753072 
L 641.126061 104.353028 
L 688.523466 101.603349 
L 711.857573 100.309159 
L 727.899772 99.541431 
L 738.108444 99.294487 
L 755.609024 99.080222 
L 768.369864 98.993578 
L 768.369864 98.993578 
" clip-path="url(#p4b2a214e72)" style="fill: none; stroke: #c44e52; stroke-opacity: 0.9; stroke-width: 3; stroke-linecap: round"/>
   </g>
   <g id="line2d_23">
    <path d="M 502.579801 101.388252 
L 502.944396 109.761535 
L 503.308992 110.132001 
L 504.038182 110.205181 
L 508.048732 110.100955 
L 517.528213 109.158265 
L 536.85177 107.410271 
L 558.3629 105.692027 
L 577.686458 104.371113 
L 601.020565 102.997364 
L 625.813054 101.763316 
L 652.428519 100.677384 
L 680.502367 99.754289 
L 711.857573 98.948175 
L 746.129543 98.294267 
L 761.077955 98.197618 
L 768.369864 98.276293 
L 768.369864 98.276293 
" clip-path="url(#p4b2a214e72)" style="fill: none; stroke: #8172b3; stroke-opacity: 0.9; stroke-width: 3; stroke-linecap: round"/>
   </g>
   <g id="line2d_24">
    <path d="M 502.579801 101.388252 
L 502.944396 109.569926 
L 503.308992 109.87802 
L 504.402778 109.945572 
L 508.048732 109.835831 
L 516.799022 109.031007 
L 538.310152 107.22632 
L 558.727496 105.728869 
L 579.87403 104.391369 
L 604.301924 103.080517 
L 630.188199 101.917538 
L 657.897451 100.908954 
L 688.158871 100.032125 
L 721.70165 99.287102 
L 752.692261 98.804957 
L 768.369864 98.854288 
L 768.369864 98.854288 
" clip-path="url(#p4b2a214e72)" style="fill: none; stroke: #937860; stroke-opacity: 0.9; stroke-width: 3; stroke-linecap: round"/>
   </g>
   <g id="patch_6">
    <path d="M 489.290298 201.042 
L 489.290298 81.456 
" style="fill: none; stroke: #ffffff; stroke-width: 1.25; stroke-linejoin: miter; stroke-linecap: square"/>
   </g>
   <g id="patch_7">
    <path d="M 489.290298 201.042 
L 781.659367 201.042 
" style="fill: none; stroke: #ffffff; stroke-width: 1.25; stroke-linejoin: miter; stroke-linecap: square"/>
   </g>
   <g id="text_5">
    <!-- 0.8~365 -->
    <g style="fill: #262626" transform="translate(580.828239 75.456) scale(0.252 -0.252)">
     <defs>
      <path id="DejaVuSans-33" d="M 2597 2516 
Q 3050 2419 3304 2112 
Q 3559 1806 3559 1356 
Q 3559 666 3084 287 
Q 2609 -91 1734 -91 
Q 1441 -91 1130 -33 
Q 819 25 488 141 
L 488 750 
Q 750 597 1062 519 
Q 1375 441 1716 441 
Q 2309 441 2620 675 
Q 2931 909 2931 1356 
Q 2931 1769 2642 2001 
Q 2353 2234 1838 2234 
L 1294 2234 
L 1294 2753 
L 1863 2753 
Q 2328 2753 2575 2939 
Q 2822 3125 2822 3475 
Q 2822 3834 2567 4026 
Q 2313 4219 1838 4219 
Q 1578 4219 1281 4162 
Q 984 4106 628 3988 
L 628 4550 
Q 988 4650 1302 4700 
Q 1616 4750 1894 4750 
Q 2613 4750 3031 4423 
Q 3450 4097 3450 3541 
Q 3450 3153 3228 2886 
Q 3006 2619 2597 2516 
z
" transform="scale(0.015625)"/>
      <path id="DejaVuSans-36" d="M 2113 2584 
Q 1688 2584 1439 2293 
Q 1191 2003 1191 1497 
Q 1191 994 1439 701 
Q 1688 409 2113 409 
Q 2538 409 2786 701 
Q 3034 994 3034 1497 
Q 3034 2003 2786 2293 
Q 2538 2584 2113 2584 
z
M 3366 4563 
L 3366 3988 
Q 3128 4100 2886 4159 
Q 2644 4219 2406 4219 
Q 1781 4219 1451 3797 
Q 1122 3375 1075 2522 
Q 1259 2794 1537 2939 
Q 1816 3084 2150 3084 
Q 2853 3084 3261 2657 
Q 3669 2231 3669 1497 
Q 3669 778 3244 343 
Q 2819 -91 2113 -91 
Q 1303 -91 875 529 
Q 447 1150 447 2328 
Q 447 3434 972 4092 
Q 1497 4750 2381 4750 
Q 2619 4750 2861 4703 
Q 3103 4656 3366 4563 
z
" transform="scale(0.015625)"/>
     </defs>
     <use xlink:href="#DejaVuSans-30"/>
     <use xlink:href="#DejaVuSans-2e" x="63.623047"/>
     <use xlink:href="#DejaVuSans-38" x="95.410156"/>
     <use xlink:href="#DejaVuSans-7e" x="159.033203"/>
     <use xlink:href="#DejaVuSans-33" x="242.822266"/>
     <use xlink:href="#DejaVuSans-36" x="306.445312"/>
     <use xlink:href="#DejaVuSans-35" x="370.068359"/>
    </g>
   </g>
  </g>
  <g id="axes_3">
   <g id="patch_8">
    <path d="M 808.240504 201.042 
L 1100.609573 201.042 
L 1100.609573 81.456 
L 808.240504 81.456 
z
" style="fill: #eaeaf2"/>
   </g>
   <g id="matplotlib.axis_5">
    <g id="xtick_9">
     <g id="line2d_25">
      <path d="M 821.530007 201.042 
L 821.530007 81.456 
" clip-path="url(#pb6e9dba281)" style="fill: none; stroke: #ffffff; stroke-linecap: round"/>
     </g>
    </g>
    <g id="xtick_10">
     <g id="line2d_26">
      <path d="M 912.678863 201.042 
L 912.678863 81.456 
" clip-path="url(#pb6e9dba281)" style="fill: none; stroke: #ffffff; stroke-linecap: round"/>
     </g>
    </g>
    <g id="xtick_11">
     <g id="line2d_27">
      <path d="M 1003.827719 201.042 
L 1003.827719 81.456 
" clip-path="url(#pb6e9dba281)" style="fill: none; stroke: #ffffff; stroke-linecap: round"/>
     </g>
    </g>
    <g id="xtick_12">
     <g id="line2d_28">
      <path d="M 1094.976574 201.042 
L 1094.976574 81.456 
" clip-path="url(#pb6e9dba281)" style="fill: none; stroke: #ffffff; stroke-linecap: round"/>
     </g>
    </g>
   </g>
   <g id="matplotlib.axis_6">
    <g id="ytick_5">
     <g id="line2d_29">
      <path d="M 808.240504 175.092223 
L 1100.609573 175.092223 
" clip-path="url(#pb6e9dba281)" style="fill: none; stroke: #ffffff; stroke-linecap: round"/>
     </g>
    </g>
    <g id="ytick_6">
     <g id="line2d_30">
      <path d="M 808.240504 101.388252 
L 1100.609573 101.388252 
" clip-path="url(#pb6e9dba281)" style="fill: none; stroke: #ffffff; stroke-linecap: round"/>
     </g>
    </g>
   </g>
   <g id="PolyCollection_13"/>
   <g id="PolyCollection_14"/>
   <g id="PolyCollection_15"/>
   <g id="PolyCollection_16"/>
   <g id="PolyCollection_17"/>
   <g id="PolyCollection_18"/>
   <g id="line2d_31">
    <path d="M 821.530007 101.388252 
L 821.894603 109.465363 
L 822.259198 109.743607 
L 822.988389 109.818317 
L 826.634343 109.68333 
L 826.998939 109.393965 
L 832.46787 108.369176 
L 848.510069 105.577647 
L 859.812527 103.806622 
L 874.396344 101.723111 
L 888.615565 99.913579 
L 903.199382 98.282782 
L 917.783199 96.873556 
L 932.731611 95.651074 
L 948.044619 94.620009 
L 961.899245 93.890504 
L 972.472512 93.810208 
L 988.879306 93.989661 
L 1004.921505 94.215292 
L 1023.151276 94.684129 
L 1058.517032 95.512204 
L 1074.55923 95.880037 
L 1087.32007 96.177002 
L 1087.32007 96.177002 
" clip-path="url(#pb6e9dba281)" style="fill: none; stroke: #4c72b0; stroke-opacity: 0.9; stroke-width: 3; stroke-linecap: round"/>
   </g>
   <g id="line2d_32">
    <path d="M 821.530007 101.388252 
L 821.894603 109.23319 
L 822.259198 109.560985 
L 822.988389 109.700333 
L 825.905152 109.628186 
L 826.634343 109.603711 
L 826.998939 109.272849 
L 831.009488 108.573312 
L 839.759778 107.20955 
L 855.437382 104.955924 
L 871.844176 102.882308 
L 887.521779 101.126979 
L 903.563977 99.553793 
L 920.335367 98.135453 
L 937.471352 96.912062 
L 954.971932 95.887183 
L 964.451413 95.495879 
L 974.660085 95.406676 
L 996.53581 95.417264 
L 1013.671795 95.490494 
L 1029.713994 95.742402 
L 1058.881627 96.047776 
L 1086.955475 96.429213 
L 1087.32007 96.433333 
L 1087.32007 96.433333 
" clip-path="url(#pb6e9dba281)" style="fill: none; stroke: #dd8452; stroke-opacity: 0.9; stroke-width: 3; stroke-linecap: round"/>
   </g>
   <g id="line2d_33">
    <path d="M 821.530007 101.388252 
L 821.894603 109.880837 
L 822.259198 110.335276 
L 822.988389 110.46141 
L 826.634343 110.318721 
L 827.728129 110.025118 
L 839.395183 107.882506 
L 848.145473 106.469697 
L 852.156023 106.002569 
L 858.354145 105.517126 
L 879.136084 104.107992 
L 896.272069 102.752893 
L 954.242741 97.966332 
L 970.649535 96.936363 
L 983.410375 96.325054 
L 999.817169 95.879705 
L 1024.974253 95.345908 
L 1035.54752 95.318317 
L 1087.32007 96.516237 
L 1087.32007 96.516237 
" clip-path="url(#pb6e9dba281)" style="fill: none; stroke: #55a868; stroke-opacity: 0.9; stroke-width: 3; stroke-linecap: round"/>
   </g>
   <g id="line2d_34">
    <path d="M 821.530007 101.388252 
L 821.894603 109.600227 
L 822.259198 110.049786 
L 822.988389 110.172025 
L 826.634343 110.03529 
L 827.728129 109.766514 
L 840.124374 107.600246 
L 845.593305 106.805371 
L 852.885214 106.059551 
L 868.198221 105.214937 
L 880.959061 104.46449 
L 898.459641 103.187096 
L 962.628436 98.296946 
L 979.03523 97.352697 
L 987.78552 97.099728 
L 1013.3072 96.378056 
L 1023.880467 96.137834 
L 1043.204024 95.915671 
L 1053.048101 96.030452 
L 1087.32007 96.736691 
L 1087.32007 96.736691 
" clip-path="url(#pb6e9dba281)" style="fill: none; stroke: #c44e52; stroke-opacity: 0.9; stroke-width: 3; stroke-linecap: round"/>
   </g>
   <g id="line2d_35">
    <path d="M 821.530007 101.388252 
L 821.894603 109.761535 
L 822.259198 110.121681 
L 822.988389 110.172646 
L 826.634343 110.029449 
L 828.45732 109.605102 
L 838.301397 107.609672 
L 847.416282 105.938414 
L 863.093885 103.308191 
L 876.948512 101.20244 
L 891.896924 99.156876 
L 906.845336 97.340011 
L 921.793748 95.74792 
L 936.377565 94.415688 
L 951.325978 93.275659 
L 962.628436 92.598771 
L 979.03523 92.384501 
L 991.79607 92.675945 
L 1004.921505 93.184241 
L 1020.234513 93.736371 
L 1035.54752 94.467453 
L 1050.860528 95.250617 
L 1070.548681 95.901699 
L 1087.32007 96.344183 
L 1087.32007 96.344183 
" clip-path="url(#pb6e9dba281)" style="fill: none; stroke: #8172b3; stroke-opacity: 0.9; stroke-width: 3; stroke-linecap: round"/>
   </g>
   <g id="line2d_36">
    <path d="M 821.530007 101.388252 
L 821.894603 109.569926 
L 822.259198 109.868399 
L 823.352984 109.904917 
L 826.998939 109.672819 
L 835.020038 108.194907 
L 847.416282 106.126123 
L 863.823076 103.669079 
L 878.771489 101.651421 
L 894.084496 99.807665 
L 910.126695 98.100716 
L 925.804298 96.652868 
L 941.481901 95.424247 
L 957.5241 94.391704 
L 963.357627 94.162137 
L 980.129016 93.961832 
L 996.900406 94.18105 
L 1025.703444 94.859856 
L 1070.913276 96.546679 
L 1087.32007 96.888207 
L 1087.32007 96.888207 
" clip-path="url(#pb6e9dba281)" style="fill: none; stroke: #937860; stroke-opacity: 0.9; stroke-width: 3; stroke-linecap: round"/>
   </g>
   <g id="patch_9">
    <path d="M 808.240504 201.042 
L 808.240504 81.456 
" style="fill: none; stroke: #ffffff; stroke-width: 1.25; stroke-linejoin: miter; stroke-linecap: square"/>
   </g>
   <g id="patch_10">
    <path d="M 808.240504 201.042 
L 1100.609573 201.042 
" style="fill: none; stroke: #ffffff; stroke-width: 1.25; stroke-linejoin: miter; stroke-linecap: square"/>
   </g>
   <g id="text_6">
    <!-- 0.85~90 -->
    <g style="fill: #262626" transform="translate(899.778445 75.456) scale(0.252 -0.252)">
     <use xlink:href="#DejaVuSans-30"/>
     <use xlink:href="#DejaVuSans-2e" x="63.623047"/>
     <use xlink:href="#DejaVuSans-38" x="95.410156"/>
     <use xlink:href="#DejaVuSans-35" x="159.033203"/>
     <use xlink:href="#DejaVuSans-7e" x="222.65625"/>
     <use xlink:href="#DejaVuSans-39" x="306.445312"/>
     <use xlink:href="#DejaVuSans-30" x="370.068359"/>
    </g>
   </g>
  </g>
  <g id="axes_4">
   <g id="patch_11">
    <path d="M 170.340091 373.284 
L 462.70916 373.284 
L 462.70916 253.698 
L 170.340091 253.698 
z
" style="fill: #eaeaf2"/>
   </g>
   <g id="matplotlib.axis_7">
    <g id="xtick_13">
     <g id="line2d_37">
      <path d="M 183.629594 373.284 
L 183.629594 253.698 
" clip-path="url(#p4c418f48ab)" style="fill: none; stroke: #ffffff; stroke-linecap: round"/>
     </g>
     <g id="text_7">
      <!-- 0 -->
      <g style="fill: #262626" transform="translate(176.280907 400.336391) scale(0.231 -0.231)">
       <use xlink:href="#DejaVuSans-30"/>
      </g>
     </g>
    </g>
    <g id="xtick_14">
     <g id="line2d_38">
      <path d="M 274.77845 373.284 
L 274.77845 253.698 
" clip-path="url(#p4c418f48ab)" style="fill: none; stroke: #ffffff; stroke-linecap: round"/>
     </g>
     <g id="text_8">
      <!-- 250 -->
      <g style="fill: #262626" transform="translate(252.732387 400.336391) scale(0.231 -0.231)">
       <use xlink:href="#DejaVuSans-32"/>
       <use xlink:href="#DejaVuSans-35" x="63.623047"/>
       <use xlink:href="#DejaVuSans-30" x="127.246094"/>
      </g>
     </g>
    </g>
    <g id="xtick_15">
     <g id="line2d_39">
      <path d="M 365.927305 373.284 
L 365.927305 253.698 
" clip-path="url(#p4c418f48ab)" style="fill: none; stroke: #ffffff; stroke-linecap: round"/>
     </g>
     <g id="text_9">
      <!-- 500 -->
      <g style="fill: #262626" transform="translate(343.881243 400.336391) scale(0.231 -0.231)">
       <use xlink:href="#DejaVuSans-35"/>
       <use xlink:href="#DejaVuSans-30" x="63.623047"/>
       <use xlink:href="#DejaVuSans-30" x="127.246094"/>
      </g>
     </g>
    </g>
    <g id="xtick_16">
     <g id="line2d_40">
      <path d="M 457.076161 373.284 
L 457.076161 253.698 
" clip-path="url(#p4c418f48ab)" style="fill: none; stroke: #ffffff; stroke-linecap: round"/>
     </g>
     <g id="text_10">
      <!-- 750 -->
      <g style="fill: #262626" transform="translate(435.030099 400.336391) scale(0.231 -0.231)">
       <defs>
        <path id="DejaVuSans-37" d="M 525 4666 
L 3525 4666 
L 3525 4397 
L 1831 0 
L 1172 0 
L 2766 4134 
L 525 4134 
L 525 4666 
z
" transform="scale(0.015625)"/>
       </defs>
       <use xlink:href="#DejaVuSans-37"/>
       <use xlink:href="#DejaVuSans-35" x="63.623047"/>
       <use xlink:href="#DejaVuSans-30" x="127.246094"/>
      </g>
     </g>
    </g>
    <g id="text_11">
     <!-- step -->
     <g style="fill: #262626" transform="translate(289.269251 428.288531) scale(0.252 -0.252)">
      <defs>
       <path id="DejaVuSans-73" d="M 2834 3397 
L 2834 2853 
Q 2591 2978 2328 3040 
Q 2066 3103 1784 3103 
Q 1356 3103 1142 2972 
Q 928 2841 928 2578 
Q 928 2378 1081 2264 
Q 1234 2150 1697 2047 
L 1894 2003 
Q 2506 1872 2764 1633 
Q 3022 1394 3022 966 
Q 3022 478 2636 193 
Q 2250 -91 1575 -91 
Q 1294 -91 989 -36 
Q 684 19 347 128 
L 347 722 
Q 666 556 975 473 
Q 1284 391 1588 391 
Q 1994 391 2212 530 
Q 2431 669 2431 922 
Q 2431 1156 2273 1281 
Q 2116 1406 1581 1522 
L 1381 1569 
Q 847 1681 609 1914 
Q 372 2147 372 2553 
Q 372 3047 722 3315 
Q 1072 3584 1716 3584 
Q 2034 3584 2315 3537 
Q 2597 3491 2834 3397 
z
" transform="scale(0.015625)"/>
       <path id="DejaVuSans-74" d="M 1172 4494 
L 1172 3500 
L 2356 3500 
L 2356 3053 
L 1172 3053 
L 1172 1153 
Q 1172 725 1289 603 
Q 1406 481 1766 481 
L 2356 481 
L 2356 0 
L 1766 0 
Q 1100 0 847 248 
Q 594 497 594 1153 
L 594 3053 
L 172 3053 
L 172 3500 
L 594 3500 
L 594 4494 
L 1172 4494 
z
" transform="scale(0.015625)"/>
       <path id="DejaVuSans-70" d="M 1159 525 
L 1159 -1331 
L 581 -1331 
L 581 3500 
L 1159 3500 
L 1159 2969 
Q 1341 3281 1617 3432 
Q 1894 3584 2278 3584 
Q 2916 3584 3314 3078 
Q 3713 2572 3713 1747 
Q 3713 922 3314 415 
Q 2916 -91 2278 -91 
Q 1894 -91 1617 61 
Q 1341 213 1159 525 
z
M 3116 1747 
Q 3116 2381 2855 2742 
Q 2594 3103 2138 3103 
Q 1681 3103 1420 2742 
Q 1159 2381 1159 1747 
Q 1159 1113 1420 752 
Q 1681 391 2138 391 
Q 2594 391 2855 752 
Q 3116 1113 3116 1747 
z
" transform="scale(0.015625)"/>
      </defs>
      <use xlink:href="#DejaVuSans-73"/>
      <use xlink:href="#DejaVuSans-74" x="52.099609"/>
      <use xlink:href="#DejaVuSans-65" x="91.308594"/>
      <use xlink:href="#DejaVuSans-70" x="152.832031"/>
     </g>
    </g>
   </g>
   <g id="matplotlib.axis_8">
    <g id="ytick_7">
     <g id="line2d_41">
      <path d="M 170.340091 347.334223 
L 462.70916 347.334223 
" clip-path="url(#p4c418f48ab)" style="fill: none; stroke: #ffffff; stroke-linecap: round"/>
     </g>
     <g id="text_12">
      <!-- −2.5 -->
      <g style="fill: #262626" transform="translate(104.746794 356.110418) scale(0.231 -0.231)">
       <use xlink:href="#DejaVuSans-2212"/>
       <use xlink:href="#DejaVuSans-32" x="83.789062"/>
       <use xlink:href="#DejaVuSans-2e" x="147.412109"/>
       <use xlink:href="#DejaVuSans-35" x="179.199219"/>
      </g>
     </g>
    </g>
    <g id="ytick_8">
     <g id="line2d_42">
      <path d="M 170.340091 273.630252 
L 462.70916 273.630252 
" clip-path="url(#p4c418f48ab)" style="fill: none; stroke: #ffffff; stroke-linecap: round"/>
     </g>
     <g id="text_13">
      <!-- 0.0 -->
      <g style="fill: #262626" transform="translate(124.103872 282.406448) scale(0.231 -0.231)">
       <use xlink:href="#DejaVuSans-30"/>
       <use xlink:href="#DejaVuSans-2e" x="63.623047"/>
       <use xlink:href="#DejaVuSans-30" x="95.410156"/>
      </g>
     </g>
    </g>
    <g id="text_14">
     <!-- % change -->
     <g style="fill: #262626" transform="translate(95.505982 375.839344) rotate(-90) scale(0.252 -0.252)">
      <use xlink:href="#DejaVuSans-25"/>
      <use xlink:href="#DejaVuSans-20" x="95.019531"/>
      <use xlink:href="#DejaVuSans-63" x="126.806641"/>
      <use xlink:href="#DejaVuSans-68" x="181.787109"/>
      <use xlink:href="#DejaVuSans-61" x="245.166016"/>
      <use xlink:href="#DejaVuSans-6e" x="306.445312"/>
      <use xlink:href="#DejaVuSans-67" x="369.824219"/>
      <use xlink:href="#DejaVuSans-65" x="433.300781"/>
     </g>
    </g>
   </g>
   <g id="PolyCollection_19"/>
   <g id="PolyCollection_20"/>
   <g id="PolyCollection_21"/>
   <g id="PolyCollection_22"/>
   <g id="PolyCollection_23"/>
   <g id="PolyCollection_24"/>
   <g id="line2d_43">
    <path d="M 183.629594 273.630252 
L 183.99419 281.707363 
L 184.358785 281.994577 
L 185.087976 282.090463 
L 188.73393 282.063249 
L 189.098526 281.793362 
L 197.119625 281.063027 
L 218.630755 279.282151 
L 241.235671 277.637479 
L 262.746801 276.290225 
L 286.810099 275.030274 
L 312.331778 273.920731 
L 340.04103 272.94467 
L 370.302451 272.106936 
L 403.480634 271.414032 
L 435.200436 270.958701 
L 447.59668 271.070483 
L 449.419657 271.084808 
L 449.419657 271.084808 
" clip-path="url(#p4c418f48ab)" style="fill: none; stroke: #4c72b0; stroke-opacity: 0.9; stroke-width: 3; stroke-linecap: round"/>
   </g>
   <g id="line2d_44">
    <path d="M 183.629594 273.630252 
L 183.99419 281.47519 
L 184.358785 281.810343 
L 185.087976 281.967371 
L 188.004739 281.968877 
L 188.73393 281.962648 
L 189.098526 281.646418 
L 194.202861 281.191799 
L 214.620205 279.580671 
L 238.318908 277.963419 
L 262.01761 276.573222 
L 283.893335 275.500389 
L 310.508801 274.414293 
L 339.31184 273.465197 
L 371.031641 272.645382 
L 406.397397 271.958549 
L 436.658817 271.568811 
L 449.419657 271.655118 
L 449.419657 271.655118 
" clip-path="url(#p4c418f48ab)" style="fill: none; stroke: #dd8452; stroke-opacity: 0.9; stroke-width: 3; stroke-linecap: round"/>
   </g>
   <g id="line2d_45">
    <path d="M 183.629594 273.630252 
L 183.99419 282.122837 
L 184.358785 282.586938 
L 185.087976 282.736064 
L 188.73393 282.710725 
L 189.463121 282.552162 
L 200.400984 281.554229 
L 212.068037 280.631593 
L 219.724541 280.439525 
L 251.079747 280.158119 
L 267.121946 279.703964 
L 287.174694 278.907161 
L 314.154755 277.604641 
L 394.001153 273.446856 
L 434.471245 271.477726 
L 447.59668 271.045721 
L 449.419657 271.015569 
L 449.419657 271.015569 
" clip-path="url(#p4c418f48ab)" style="fill: none; stroke: #55a868; stroke-opacity: 0.9; stroke-width: 3; stroke-linecap: round"/>
   </g>
   <g id="line2d_46">
    <path d="M 183.629594 273.630252 
L 183.99419 281.842227 
L 184.358785 282.301041 
L 185.087976 282.445398 
L 188.73393 282.421689 
L 189.827716 282.246827 
L 206.23451 280.865785 
L 216.078587 280.522311 
L 252.538129 280.465515 
L 266.757351 280.081839 
L 285.716313 279.367456 
L 315.248542 277.995721 
L 368.844069 275.250539 
L 427.908527 272.292997 
L 449.419657 271.398913 
L 449.419657 271.398913 
" clip-path="url(#p4c418f48ab)" style="fill: none; stroke: #c44e52; stroke-opacity: 0.9; stroke-width: 3; stroke-linecap: round"/>
   </g>
   <g id="line2d_47">
    <path d="M 183.629594 273.630252 
L 183.99419 282.003535 
L 184.358785 282.374001 
L 185.087976 282.447181 
L 189.098526 282.342955 
L 198.578007 281.400265 
L 217.901564 279.652271 
L 239.412694 277.934027 
L 258.736251 276.613113 
L 282.070358 275.239364 
L 306.862847 274.005316 
L 333.478313 272.919384 
L 361.55216 271.996289 
L 392.907367 271.190175 
L 427.179336 270.536267 
L 442.127749 270.439618 
L 449.419657 270.518293 
L 449.419657 270.518293 
" clip-path="url(#p4c418f48ab)" style="fill: none; stroke: #8172b3; stroke-opacity: 0.9; stroke-width: 3; stroke-linecap: round"/>
   </g>
   <g id="line2d_48">
    <path d="M 183.629594 273.630252 
L 183.99419 281.811926 
L 184.358785 282.12002 
L 185.452571 282.187572 
L 189.098526 282.077831 
L 197.848816 281.273007 
L 219.359946 279.46832 
L 239.777289 277.970869 
L 260.923824 276.633369 
L 285.351717 275.322517 
L 311.237992 274.159538 
L 338.947244 273.150954 
L 369.208664 272.274125 
L 402.751443 271.529102 
L 433.742054 271.046957 
L 449.419657 271.096288 
L 449.419657 271.096288 
" clip-path="url(#p4c418f48ab)" style="fill: none; stroke: #937860; stroke-opacity: 0.9; stroke-width: 3; stroke-linecap: round"/>
   </g>
   <g id="patch_12">
    <path d="M 170.340091 373.284 
L 170.340091 253.698 
" style="fill: none; stroke: #ffffff; stroke-width: 1.25; stroke-linejoin: miter; stroke-linecap: square"/>
   </g>
   <g id="patch_13">
    <path d="M 170.340091 373.284 
L 462.70916 373.284 
" style="fill: none; stroke: #ffffff; stroke-width: 1.25; stroke-linejoin: miter; stroke-linecap: square"/>
   </g>
   <g id="text_15">
    <!-- 0.85~365 -->
    <g style="fill: #262626" transform="translate(253.861282 247.698) scale(0.252 -0.252)">
     <use xlink:href="#DejaVuSans-30"/>
     <use xlink:href="#DejaVuSans-2e" x="63.623047"/>
     <use xlink:href="#DejaVuSans-38" x="95.410156"/>
     <use xlink:href="#DejaVuSans-35" x="159.033203"/>
     <use xlink:href="#DejaVuSans-7e" x="222.65625"/>
     <use xlink:href="#DejaVuSans-33" x="306.445312"/>
     <use xlink:href="#DejaVuSans-36" x="370.068359"/>
     <use xlink:href="#DejaVuSans-35" x="433.691406"/>
    </g>
   </g>
  </g>
  <g id="axes_5">
   <g id="patch_14">
    <path d="M 489.290298 373.284 
L 781.659367 373.284 
L 781.659367 253.698 
L 489.290298 253.698 
z
" style="fill: #eaeaf2"/>
   </g>
   <g id="matplotlib.axis_9">
    <g id="xtick_17">
     <g id="line2d_49">
      <path d="M 502.579801 373.284 
L 502.579801 253.698 
" clip-path="url(#p75642029c2)" style="fill: none; stroke: #ffffff; stroke-linecap: round"/>
     </g>
     <g id="text_16">
      <!-- 0 -->
      <g style="fill: #262626" transform="translate(495.231113 400.336391) scale(0.231 -0.231)">
       <use xlink:href="#DejaVuSans-30"/>
      </g>
     </g>
    </g>
    <g id="xtick_18">
     <g id="line2d_50">
      <path d="M 593.728656 373.284 
L 593.728656 253.698 
" clip-path="url(#p75642029c2)" style="fill: none; stroke: #ffffff; stroke-linecap: round"/>
     </g>
     <g id="text_17">
      <!-- 250 -->
      <g style="fill: #262626" transform="translate(571.682594 400.336391) scale(0.231 -0.231)">
       <use xlink:href="#DejaVuSans-32"/>
       <use xlink:href="#DejaVuSans-35" x="63.623047"/>
       <use xlink:href="#DejaVuSans-30" x="127.246094"/>
      </g>
     </g>
    </g>
    <g id="xtick_19">
     <g id="line2d_51">
      <path d="M 684.877512 373.284 
L 684.877512 253.698 
" clip-path="url(#p75642029c2)" style="fill: none; stroke: #ffffff; stroke-linecap: round"/>
     </g>
     <g id="text_18">
      <!-- 500 -->
      <g style="fill: #262626" transform="translate(662.83145 400.336391) scale(0.231 -0.231)">
       <use xlink:href="#DejaVuSans-35"/>
       <use xlink:href="#DejaVuSans-30" x="63.623047"/>
       <use xlink:href="#DejaVuSans-30" x="127.246094"/>
      </g>
     </g>
    </g>
    <g id="xtick_20">
     <g id="line2d_52">
      <path d="M 776.026368 373.284 
L 776.026368 253.698 
" clip-path="url(#p75642029c2)" style="fill: none; stroke: #ffffff; stroke-linecap: round"/>
     </g>
     <g id="text_19">
      <!-- 750 -->
      <g style="fill: #262626" transform="translate(753.980305 400.336391) scale(0.231 -0.231)">
       <use xlink:href="#DejaVuSans-37"/>
       <use xlink:href="#DejaVuSans-35" x="63.623047"/>
       <use xlink:href="#DejaVuSans-30" x="127.246094"/>
      </g>
     </g>
    </g>
    <g id="text_20">
     <!-- step -->
     <g style="fill: #262626" transform="translate(608.219457 428.288531) scale(0.252 -0.252)">
      <use xlink:href="#DejaVuSans-73"/>
      <use xlink:href="#DejaVuSans-74" x="52.099609"/>
      <use xlink:href="#DejaVuSans-65" x="91.308594"/>
      <use xlink:href="#DejaVuSans-70" x="152.832031"/>
     </g>
    </g>
   </g>
   <g id="matplotlib.axis_10">
    <g id="ytick_9">
     <g id="line2d_53">
      <path d="M 489.290298 347.334223 
L 781.659367 347.334223 
" clip-path="url(#p75642029c2)" style="fill: none; stroke: #ffffff; stroke-linecap: round"/>
     </g>
    </g>
    <g id="ytick_10">
     <g id="line2d_54">
      <path d="M 489.290298 273.630252 
L 781.659367 273.630252 
" clip-path="url(#p75642029c2)" style="fill: none; stroke: #ffffff; stroke-linecap: round"/>
     </g>
    </g>
   </g>
   <g id="PolyCollection_25"/>
   <g id="PolyCollection_26"/>
   <g id="PolyCollection_27"/>
   <g id="PolyCollection_28"/>
   <g id="PolyCollection_29"/>
   <g id="PolyCollection_30"/>
   <g id="line2d_55">
    <path d="M 502.579801 273.630252 
L 502.944396 281.707363 
L 503.308992 281.985607 
L 504.038182 282.060317 
L 507.684137 281.92533 
L 508.048732 281.635965 
L 513.517663 280.611176 
L 527.736885 278.125219 
L 528.466076 278.120359 
L 531.747435 278.426096 
L 532.11203 278.730651 
L 532.841221 279.981934 
L 533.935007 282.657882 
L 537.216366 291.145423 
L 539.768534 297.030089 
L 541.956106 301.558657 
L 544.508274 306.283888 
L 546.695847 309.925241 
L 548.883419 313.067386 
L 550.706397 315.302977 
L 552.529374 317.178189 
L 554.352351 318.69489 
L 555.810732 319.651204 
L 557.269114 320.37975 
L 558.727496 320.881057 
L 560.185878 321.155825 
L 561.644259 321.205645 
L 563.102641 321.032506 
L 564.561023 320.638497 
L 566.019404 320.02577 
L 567.477786 319.196478 
L 569.300763 317.859013 
L 571.12374 316.189436 
L 572.946717 314.191414 
L 574.769694 311.872811 
L 576.957267 308.685661 
L 579.144839 305.077988 
L 581.697007 300.371745 
L 584.978366 293.728242 
L 587.89513 287.25137 
L 590.811893 280.214864 
L 597.010015 264.880071 
L 598.103801 263.184145 
L 599.562183 261.544254 
L 601.38516 260.031283 
L 602.478947 259.901178 
L 613.416809 259.307222 
L 622.531695 259.143168 
L 638.573893 259.801371 
L 650.240947 260.356815 
L 671.752077 261.313686 
L 681.960749 262.48984 
L 688.888062 263.031726 
L 699.461329 263.59205 
L 716.961909 264.275508 
L 742.848184 265.042902 
L 768.369864 265.64874 
L 768.369864 265.64874 
" clip-path="url(#p75642029c2)" style="fill: none; stroke: #4c72b0; stroke-opacity: 0.9; stroke-width: 3; stroke-linecap: round"/>
   </g>
   <g id="line2d_56">
    <path d="M 502.579801 273.630252 
L 502.944396 281.47519 
L 503.308992 281.802985 
L 504.038182 281.942333 
L 506.954946 281.870186 
L 507.684137 281.845711 
L 508.048732 281.514849 
L 512.059282 280.815312 
L 520.809572 279.45155 
L 527.007694 278.563951 
L 531.018244 278.748309 
L 531.382839 279.021779 
L 532.476625 280.674078 
L 533.205816 282.130589 
L 537.580961 293.11927 
L 540.133129 298.775272 
L 542.320702 303.121181 
L 544.508274 307.005551 
L 546.695847 310.421797 
L 548.518824 312.907091 
L 550.341801 315.060169 
L 552.164778 316.878455 
L 553.987755 318.362882 
L 555.810732 319.533515 
L 557.269114 320.226483 
L 558.727496 320.703086 
L 560.185878 320.971497 
L 561.644259 321.035318 
L 563.102641 320.877104 
L 564.561023 320.498987 
L 566.019404 319.900253 
L 567.477786 319.076194 
L 569.300763 317.782867 
L 571.12374 316.168192 
L 572.946717 314.236769 
L 574.769694 311.990544 
L 576.592672 309.433745 
L 578.780244 305.964903 
L 580.967817 302.09297 
L 583.519985 297.127586 
L 586.436748 290.924707 
L 589.353511 284.192394 
L 594.093252 272.501745 
L 595.187038 270.030201 
L 597.374611 265.671707 
L 598.468397 264.458296 
L 600.291374 262.697837 
L 601.749756 261.578934 
L 602.843542 261.389854 
L 610.500046 260.77866 
L 627.636031 259.925577 
L 638.938489 259.998809 
L 642.584443 260.384423 
L 644.40742 260.506425 
L 662.637191 260.993361 
L 688.523466 261.542878 
L 692.898611 261.813791 
L 697.273756 262.107073 
L 702.378092 262.446153 
L 708.576214 262.749226 
L 717.6911 263.144744 
L 721.337054 263.421377 
L 743.21278 264.105589 
L 768.369864 264.599867 
L 768.369864 264.599867 
" clip-path="url(#p75642029c2)" style="fill: none; stroke: #dd8452; stroke-opacity: 0.9; stroke-width: 3; stroke-linecap: round"/>
   </g>
   <g id="line2d_57">
    <path d="M 502.579801 273.630252 
L 502.944396 282.122837 
L 503.308992 282.577276 
L 504.038182 282.70341 
L 507.684137 282.560721 
L 508.777923 282.267118 
L 517.528213 280.677891 
L 521.903358 280.132007 
L 523.36174 280.12364 
L 525.913908 280.368764 
L 529.195267 281.116748 
L 539.039343 283.28552 
L 553.987755 286.325906 
L 557.269114 286.631803 
L 560.915068 286.737078 
L 564.561023 286.610091 
L 568.206977 286.265379 
L 572.217526 285.652062 
L 576.957267 284.692209 
L 593.364061 281.135585 
L 611.229237 277.28766 
L 629.459008 273.005161 
L 638.573893 270.938614 
L 643.313634 270.190905 
L 647.324183 269.772203 
L 652.428519 269.466562 
L 661.543405 269.29348 
L 669.199909 269.381754 
L 705.659451 270.054054 
L 734.097894 269.989971 
L 762.536337 269.610258 
L 768.369864 269.508462 
L 768.369864 269.508462 
" clip-path="url(#p75642029c2)" style="fill: none; stroke: #55a868; stroke-opacity: 0.9; stroke-width: 3; stroke-linecap: round"/>
   </g>
   <g id="line2d_58">
    <path d="M 502.579801 273.630252 
L 502.944396 281.842227 
L 503.308992 282.291786 
L 504.038182 282.414025 
L 507.684137 282.27729 
L 508.777923 282.008514 
L 516.799022 280.634811 
L 519.35119 280.371434 
L 521.174167 280.340016 
L 522.267954 280.480273 
L 524.090931 280.982492 
L 528.466076 282.418981 
L 533.205816 284.11004 
L 539.039343 286.19171 
L 550.706397 291.222022 
L 553.987755 292.226563 
L 556.904519 292.88358 
L 559.821282 293.317249 
L 562.738045 293.528998 
L 565.654809 293.528369 
L 568.571572 293.321275 
L 571.852931 292.862339 
L 575.13429 292.180715 
L 578.780244 291.200866 
L 582.790794 289.867555 
L 592.270275 286.662353 
L 598.103801 284.832161 
L 622.167099 279.315488 
L 654.616092 271.411524 
L 659.720428 270.574689 
L 665.553955 269.875206 
L 673.210458 269.345088 
L 680.137772 269.170224 
L 686.335894 269.30294 
L 706.753237 269.971933 
L 720.243268 270.020551 
L 742.848184 269.851541 
L 768.369864 269.47244 
L 768.369864 269.47244 
" clip-path="url(#p75642029c2)" style="fill: none; stroke: #c44e52; stroke-opacity: 0.9; stroke-width: 3; stroke-linecap: round"/>
   </g>
   <g id="line2d_59">
    <path d="M 502.579801 273.630252 
L 502.944396 282.003535 
L 503.308992 282.363681 
L 504.038182 282.414646 
L 507.684137 282.271449 
L 509.507114 281.847102 
L 519.35119 279.851672 
L 528.466076 278.180414 
L 544.143679 275.550191 
L 557.998305 273.44444 
L 572.946717 271.398876 
L 587.89513 269.582011 
L 602.843542 267.98992 
L 617.427359 266.657688 
L 632.375771 265.517659 
L 643.678229 264.840771 
L 660.085023 264.626501 
L 672.845863 264.917945 
L 685.971298 265.426241 
L 701.284306 265.978371 
L 716.597314 266.709453 
L 731.910322 267.492617 
L 751.598474 268.143699 
L 768.369864 268.586183 
L 768.369864 268.586183 
" clip-path="url(#p75642029c2)" style="fill: none; stroke: #8172b3; stroke-opacity: 0.9; stroke-width: 3; stroke-linecap: round"/>
   </g>
   <g id="line2d_60">
    <path d="M 502.579801 273.630252 
L 502.944396 281.811926 
L 503.308992 282.110399 
L 504.402778 282.146917 
L 508.048732 281.914819 
L 516.069831 280.436907 
L 528.466076 278.368123 
L 544.87287 275.911079 
L 559.821282 273.893421 
L 575.13429 272.049665 
L 591.176488 270.342716 
L 606.854092 268.894868 
L 622.531695 267.666247 
L 638.573893 266.633704 
L 644.40742 266.404137 
L 661.17881 266.203832 
L 677.950199 266.42305 
L 706.753237 267.101856 
L 751.96307 268.788679 
L 768.369864 269.130207 
L 768.369864 269.130207 
" clip-path="url(#p75642029c2)" style="fill: none; stroke: #937860; stroke-opacity: 0.9; stroke-width: 3; stroke-linecap: round"/>
   </g>
   <g id="patch_15">
    <path d="M 489.290298 373.284 
L 489.290298 253.698 
" style="fill: none; stroke: #ffffff; stroke-width: 1.25; stroke-linejoin: miter; stroke-linecap: square"/>
   </g>
   <g id="patch_16">
    <path d="M 489.290298 373.284 
L 781.659367 373.284 
" style="fill: none; stroke: #ffffff; stroke-width: 1.25; stroke-linejoin: miter; stroke-linecap: square"/>
   </g>
   <g id="text_21">
    <!-- 0.95~90 -->
    <g style="fill: #262626" transform="translate(580.828239 247.698) scale(0.252 -0.252)">
     <use xlink:href="#DejaVuSans-30"/>
     <use xlink:href="#DejaVuSans-2e" x="63.623047"/>
     <use xlink:href="#DejaVuSans-39" x="95.410156"/>
     <use xlink:href="#DejaVuSans-35" x="159.033203"/>
     <use xlink:href="#DejaVuSans-7e" x="222.65625"/>
     <use xlink:href="#DejaVuSans-39" x="306.445312"/>
     <use xlink:href="#DejaVuSans-30" x="370.068359"/>
    </g>
   </g>
  </g>
  <g id="axes_6">
   <g id="patch_17">
    <path d="M 808.240504 373.284 
L 1100.609573 373.284 
L 1100.609573 253.698 
L 808.240504 253.698 
z
" style="fill: #eaeaf2"/>
   </g>
   <g id="matplotlib.axis_11">
    <g id="xtick_21">
     <g id="line2d_61">
      <path d="M 821.530007 373.284 
L 821.530007 253.698 
" clip-path="url(#p3ee923274c)" style="fill: none; stroke: #ffffff; stroke-linecap: round"/>
     </g>
     <g id="text_22">
      <!-- 0 -->
      <g style="fill: #262626" transform="translate(814.18132 400.336391) scale(0.231 -0.231)">
       <use xlink:href="#DejaVuSans-30"/>
      </g>
     </g>
    </g>
    <g id="xtick_22">
     <g id="line2d_62">
      <path d="M 912.678863 373.284 
L 912.678863 253.698 
" clip-path="url(#p3ee923274c)" style="fill: none; stroke: #ffffff; stroke-linecap: round"/>
     </g>
     <g id="text_23">
      <!-- 250 -->
      <g style="fill: #262626" transform="translate(890.6328 400.336391) scale(0.231 -0.231)">
       <use xlink:href="#DejaVuSans-32"/>
       <use xlink:href="#DejaVuSans-35" x="63.623047"/>
       <use xlink:href="#DejaVuSans-30" x="127.246094"/>
      </g>
     </g>
    </g>
    <g id="xtick_23">
     <g id="line2d_63">
      <path d="M 1003.827719 373.284 
L 1003.827719 253.698 
" clip-path="url(#p3ee923274c)" style="fill: none; stroke: #ffffff; stroke-linecap: round"/>
     </g>
     <g id="text_24">
      <!-- 500 -->
      <g style="fill: #262626" transform="translate(981.781656 400.336391) scale(0.231 -0.231)">
       <use xlink:href="#DejaVuSans-35"/>
       <use xlink:href="#DejaVuSans-30" x="63.623047"/>
       <use xlink:href="#DejaVuSans-30" x="127.246094"/>
      </g>
     </g>
    </g>
    <g id="xtick_24">
     <g id="line2d_64">
      <path d="M 1094.976574 373.284 
L 1094.976574 253.698 
" clip-path="url(#p3ee923274c)" style="fill: none; stroke: #ffffff; stroke-linecap: round"/>
     </g>
     <g id="text_25">
      <!-- 750 -->
      <g style="fill: #262626" transform="translate(1072.930512 400.336391) scale(0.231 -0.231)">
       <use xlink:href="#DejaVuSans-37"/>
       <use xlink:href="#DejaVuSans-35" x="63.623047"/>
       <use xlink:href="#DejaVuSans-30" x="127.246094"/>
      </g>
     </g>
    </g>
    <g id="text_26">
     <!-- step -->
     <g style="fill: #262626" transform="translate(927.169664 428.288531) scale(0.252 -0.252)">
      <use xlink:href="#DejaVuSans-73"/>
      <use xlink:href="#DejaVuSans-74" x="52.099609"/>
      <use xlink:href="#DejaVuSans-65" x="91.308594"/>
      <use xlink:href="#DejaVuSans-70" x="152.832031"/>
     </g>
    </g>
   </g>
   <g id="matplotlib.axis_12">
    <g id="ytick_11">
     <g id="line2d_65">
      <path d="M 808.240504 347.334223 
L 1100.609573 347.334223 
" clip-path="url(#p3ee923274c)" style="fill: none; stroke: #ffffff; stroke-linecap: round"/>
     </g>
    </g>
    <g id="ytick_12">
     <g id="line2d_66">
      <path d="M 808.240504 273.630252 
L 1100.609573 273.630252 
" clip-path="url(#p3ee923274c)" style="fill: none; stroke: #ffffff; stroke-linecap: round"/>
     </g>
    </g>
   </g>
   <g id="PolyCollection_31"/>
   <g id="PolyCollection_32"/>
   <g id="PolyCollection_33"/>
   <g id="PolyCollection_34"/>
   <g id="PolyCollection_35"/>
   <g id="PolyCollection_36"/>
   <g id="line2d_67">
    <path d="M 821.530007 273.630252 
L 821.894603 281.707363 
L 822.259198 281.994577 
L 822.988389 282.090463 
L 826.634343 282.063249 
L 826.998939 281.793362 
L 835.020038 281.063027 
L 847.051687 280.053443 
L 848.145473 280.278974 
L 848.510069 280.845252 
L 849.239259 282.624862 
L 850.333046 286.266056 
L 852.885214 294.789125 
L 856.166572 304.809706 
L 859.447931 314.102746 
L 862.72929 323.023252 
L 865.646053 330.283936 
L 868.562817 336.894706 
L 871.114985 342.146924 
L 873.667153 346.907546 
L 876.219321 351.176639 
L 878.406893 354.442861 
L 880.594466 357.346311 
L 882.782038 359.890445 
L 884.969611 362.077111 
L 887.157183 363.9087 
L 888.98016 365.165502 
L 890.803138 366.178826 
L 892.626115 366.951257 
L 894.449092 367.484194 
L 896.272069 367.78009 
L 898.095046 367.842068 
L 899.918023 367.672571 
L 901.741 367.273133 
L 903.563977 366.643507 
L 905.386954 365.789797 
L 907.209932 364.718258 
L 909.397504 363.153838 
L 911.585077 361.296088 
L 913.772649 359.157254 
L 916.324817 356.326322 
L 918.876985 353.153867 
L 921.793748 349.154564 
L 924.710512 344.790273 
L 927.991871 339.483539 
L 931.637825 333.139085 
L 935.283779 326.351436 
L 939.294329 318.410984 
L 943.669474 309.222035 
L 950.596787 293.985085 
L 956.430314 280.554962 
L 958.253291 276.464573 
L 959.711672 273.807679 
L 960.805459 272.173547 
L 962.26384 270.665134 
L 963.357627 269.751684 
L 968.461963 266.426532 
L 969.191153 265.974332 
L 969.920344 265.872845 
L 983.410375 265.7249 
L 999.452573 265.635425 
L 1036.276711 265.727614 
L 1087.32007 267.23508 
L 1087.32007 267.23508 
" clip-path="url(#p3ee923274c)" style="fill: none; stroke: #4c72b0; stroke-opacity: 0.9; stroke-width: 3; stroke-linecap: round"/>
   </g>
   <g id="line2d_68">
    <path d="M 821.530007 273.630252 
L 821.894603 281.47519 
L 822.259198 281.810343 
L 822.988389 281.967371 
L 825.905152 281.968877 
L 826.634343 281.962648 
L 826.998939 281.646418 
L 832.103275 281.191799 
L 846.322496 280.040981 
L 847.416282 280.189199 
L 847.780878 280.335274 
L 848.874664 282.778129 
L 849.239259 283.745394 
L 852.885214 296.408725 
L 855.072786 303.080816 
L 858.354145 312.258212 
L 861.270908 319.801589 
L 864.187672 326.75036 
L 868.198221 335.601609 
L 870.750389 340.704623 
L 873.302557 345.298418 
L 875.854725 349.392246 
L 878.042298 352.503298 
L 880.22987 355.249868 
L 882.417443 357.627475 
L 884.605015 359.636419 
L 886.427992 361.02989 
L 888.25097 362.172376 
L 890.073947 363.06432 
L 891.896924 363.712053 
L 893.719901 364.120999 
L 895.542878 364.296178 
L 897.365855 364.241558 
L 899.188832 363.982355 
L 901.011809 363.492066 
L 902.834787 362.774688 
L 904.657764 361.835386 
L 906.480741 360.676114 
L 908.668313 358.99687 
L 910.855886 357.012756 
L 913.043458 354.733233 
L 915.595626 351.721655 
L 918.147794 348.349756 
L 921.064558 344.089396 
L 924.345916 338.886601 
L 927.991871 332.702476 
L 932.00242 325.444144 
L 938.565138 312.952405 
L 943.304878 303.405117 
L 954.607336 280.207002 
L 955.701123 278.38157 
L 958.617886 274.211699 
L 959.711672 273.143601 
L 962.628436 270.750773 
L 964.451413 269.655613 
L 969.555749 266.802883 
L 970.649535 266.700935 
L 981.951993 266.39416 
L 1018.411535 265.895865 
L 1030.078589 266.082575 
L 1038.828879 266.119357 
L 1061.798391 266.507585 
L 1071.277872 266.690147 
L 1087.32007 266.879765 
L 1087.32007 266.879765 
" clip-path="url(#p3ee923274c)" style="fill: none; stroke: #dd8452; stroke-opacity: 0.9; stroke-width: 3; stroke-linecap: round"/>
   </g>
   <g id="line2d_69">
    <path d="M 821.530007 273.630252 
L 821.894603 282.122837 
L 822.259198 282.586938 
L 822.988389 282.736064 
L 826.634343 282.710725 
L 827.363534 282.552162 
L 836.113824 281.777415 
L 840.488969 281.588483 
L 842.311946 281.63001 
L 844.864114 282.029404 
L 848.145473 283.026165 
L 853.614404 284.63994 
L 858.354145 286.098006 
L 860.906313 287.146483 
L 867.104435 289.86159 
L 871.114985 291.367647 
L 875.125534 292.628188 
L 879.136084 293.64915 
L 883.146634 294.434928 
L 887.157183 294.981846 
L 891.167733 295.297734 
L 895.542878 295.399158 
L 899.918023 295.269969 
L 904.293168 294.923806 
L 909.032909 294.339457 
L 914.137245 293.486822 
L 921.064558 292.084219 
L 927.26268 290.590511 
L 939.658924 287.484268 
L 945.857046 286.321984 
L 952.784359 285.284564 
L 968.826558 282.795743 
L 995.806619 278.341489 
L 1007.473673 276.504176 
L 1013.671795 275.757452 
L 1019.869917 275.222144 
L 1028.255612 274.739339 
L 1064.350559 273.517854 
L 1087.32007 272.895402 
L 1087.32007 272.895402 
" clip-path="url(#p3ee923274c)" style="fill: none; stroke: #55a868; stroke-opacity: 0.9; stroke-width: 3; stroke-linecap: round"/>
   </g>
   <g id="line2d_70">
    <path d="M 821.530007 273.630252 
L 821.894603 281.842227 
L 822.259198 282.301041 
L 822.988389 282.445398 
L 826.634343 282.421689 
L 827.728129 282.246827 
L 836.47842 281.558345 
L 838.665992 281.56612 
L 840.488969 281.682476 
L 841.947351 282.024886 
L 844.499519 282.96215 
L 853.979 286.797284 
L 856.895763 288.460946 
L 859.083336 289.931535 
L 867.469031 295.771768 
L 870.750389 297.769401 
L 874.396344 299.723949 
L 877.677702 301.236999 
L 880.959061 302.511052 
L 884.24042 303.555592 
L 887.521779 304.377348 
L 890.803138 304.980502 
L 894.084496 305.374126 
L 897.730451 305.575757 
L 901.376405 305.540768 
L 905.022359 305.279825 
L 908.668313 304.797343 
L 912.678863 304.060551 
L 917.054008 303.018582 
L 921.793748 301.641566 
L 927.627275 299.688662 
L 934.189993 297.226486 
L 946.950833 292.336763 
L 951.325978 291.024834 
L 956.065718 289.72615 
L 962.993031 288.363057 
L 1006.379886 280.611926 
L 1026.068039 277.061222 
L 1034.089139 275.836039 
L 1042.839429 274.803615 
L 1056.694055 273.562144 
L 1062.892177 273.195465 
L 1070.913276 272.939418 
L 1087.32007 272.663495 
L 1087.32007 272.663495 
" clip-path="url(#p3ee923274c)" style="fill: none; stroke: #c44e52; stroke-opacity: 0.9; stroke-width: 3; stroke-linecap: round"/>
   </g>
   <g id="line2d_71">
    <path d="M 821.530007 273.630252 
L 821.894603 282.003535 
L 822.259198 282.374001 
L 822.988389 282.447181 
L 826.998939 282.342955 
L 836.47842 281.400265 
L 855.801977 279.652271 
L 877.313107 277.934027 
L 896.636664 276.613113 
L 919.970771 275.239364 
L 944.76326 274.005316 
L 971.378726 272.919384 
L 999.452573 271.996289 
L 1030.80778 271.190175 
L 1065.07975 270.536267 
L 1080.028162 270.439618 
L 1087.32007 270.518293 
L 1087.32007 270.518293 
" clip-path="url(#p3ee923274c)" style="fill: none; stroke: #8172b3; stroke-opacity: 0.9; stroke-width: 3; stroke-linecap: round"/>
   </g>
   <g id="line2d_72">
    <path d="M 821.530007 273.630252 
L 821.894603 281.811926 
L 822.259198 282.12002 
L 823.352984 282.187572 
L 826.998939 282.077831 
L 835.749229 281.273007 
L 857.260359 279.46832 
L 877.677702 277.970869 
L 898.824237 276.633369 
L 923.25213 275.322517 
L 949.138405 274.159538 
L 976.847657 273.150954 
L 1007.109077 272.274125 
L 1040.651856 271.529102 
L 1071.642467 271.046957 
L 1087.32007 271.096288 
L 1087.32007 271.096288 
" clip-path="url(#p3ee923274c)" style="fill: none; stroke: #937860; stroke-opacity: 0.9; stroke-width: 3; stroke-linecap: round"/>
   </g>
   <g id="patch_18">
    <path d="M 808.240504 373.284 
L 808.240504 253.698 
" style="fill: none; stroke: #ffffff; stroke-width: 1.25; stroke-linejoin: miter; stroke-linecap: square"/>
   </g>
   <g id="patch_19">
    <path d="M 808.240504 373.284 
L 1100.609573 373.284 
" style="fill: none; stroke: #ffffff; stroke-width: 1.25; stroke-linejoin: miter; stroke-linecap: square"/>
   </g>
   <g id="text_27">
    <!-- 0.95~365 -->
    <g style="fill: #262626" transform="translate(891.761695 247.698) scale(0.252 -0.252)">
     <use xlink:href="#DejaVuSans-30"/>
     <use xlink:href="#DejaVuSans-2e" x="63.623047"/>
     <use xlink:href="#DejaVuSans-39" x="95.410156"/>
     <use xlink:href="#DejaVuSans-35" x="159.033203"/>
     <use xlink:href="#DejaVuSans-7e" x="222.65625"/>
     <use xlink:href="#DejaVuSans-33" x="306.445312"/>
     <use xlink:href="#DejaVuSans-36" x="370.068359"/>
     <use xlink:href="#DejaVuSans-35" x="433.691406"/>
    </g>
   </g>
  </g>
  <g id="text_28">
   <!-- Production change from pre-shock level -->
   <g style="fill: #262626" transform="translate(280.766836 30.177675) scale(0.3024 -0.3024)">
    <defs>
     <path id="DejaVuSans-50" d="M 1259 4147 
L 1259 2394 
L 2053 2394 
Q 2494 2394 2734 2622 
Q 2975 2850 2975 3272 
Q 2975 3691 2734 3919 
Q 2494 4147 2053 4147 
L 1259 4147 
z
M 628 4666 
L 2053 4666 
Q 2838 4666 3239 4311 
Q 3641 3956 3641 3272 
Q 3641 2581 3239 2228 
Q 2838 1875 2053 1875 
L 1259 1875 
L 1259 0 
L 628 0 
L 628 4666 
z
" transform="scale(0.015625)"/>
     <path id="DejaVuSans-72" d="M 2631 2963 
Q 2534 3019 2420 3045 
Q 2306 3072 2169 3072 
Q 1681 3072 1420 2755 
Q 1159 2438 1159 1844 
L 1159 0 
L 581 0 
L 581 3500 
L 1159 3500 
L 1159 2956 
Q 1341 3275 1631 3429 
Q 1922 3584 2338 3584 
Q 2397 3584 2469 3576 
Q 2541 3569 2628 3553 
L 2631 2963 
z
" transform="scale(0.015625)"/>
     <path id="DejaVuSans-6f" d="M 1959 3097 
Q 1497 3097 1228 2736 
Q 959 2375 959 1747 
Q 959 1119 1226 758 
Q 1494 397 1959 397 
Q 2419 397 2687 759 
Q 2956 1122 2956 1747 
Q 2956 2369 2687 2733 
Q 2419 3097 1959 3097 
z
M 1959 3584 
Q 2709 3584 3137 3096 
Q 3566 2609 3566 1747 
Q 3566 888 3137 398 
Q 2709 -91 1959 -91 
Q 1206 -91 779 398 
Q 353 888 353 1747 
Q 353 2609 779 3096 
Q 1206 3584 1959 3584 
z
" transform="scale(0.015625)"/>
     <path id="DejaVuSans-64" d="M 2906 2969 
L 2906 4863 
L 3481 4863 
L 3481 0 
L 2906 0 
L 2906 525 
Q 2725 213 2448 61 
Q 2172 -91 1784 -91 
Q 1150 -91 751 415 
Q 353 922 353 1747 
Q 353 2572 751 3078 
Q 1150 3584 1784 3584 
Q 2172 3584 2448 3432 
Q 2725 3281 2906 2969 
z
M 947 1747 
Q 947 1113 1208 752 
Q 1469 391 1925 391 
Q 2381 391 2643 752 
Q 2906 1113 2906 1747 
Q 2906 2381 2643 2742 
Q 2381 3103 1925 3103 
Q 1469 3103 1208 2742 
Q 947 2381 947 1747 
z
" transform="scale(0.015625)"/>
     <path id="DejaVuSans-75" d="M 544 1381 
L 544 3500 
L 1119 3500 
L 1119 1403 
Q 1119 906 1312 657 
Q 1506 409 1894 409 
Q 2359 409 2629 706 
Q 2900 1003 2900 1516 
L 2900 3500 
L 3475 3500 
L 3475 0 
L 2900 0 
L 2900 538 
Q 2691 219 2414 64 
Q 2138 -91 1772 -91 
Q 1169 -91 856 284 
Q 544 659 544 1381 
z
M 1991 3584 
L 1991 3584 
z
" transform="scale(0.015625)"/>
     <path id="DejaVuSans-69" d="M 603 3500 
L 1178 3500 
L 1178 0 
L 603 0 
L 603 3500 
z
M 603 4863 
L 1178 4863 
L 1178 4134 
L 603 4134 
L 603 4863 
z
" transform="scale(0.015625)"/>
     <path id="DejaVuSans-66" d="M 2375 4863 
L 2375 4384 
L 1825 4384 
Q 1516 4384 1395 4259 
Q 1275 4134 1275 3809 
L 1275 3500 
L 2222 3500 
L 2222 3053 
L 1275 3053 
L 1275 0 
L 697 0 
L 697 3053 
L 147 3053 
L 147 3500 
L 697 3500 
L 697 3744 
Q 697 4328 969 4595 
Q 1241 4863 1831 4863 
L 2375 4863 
z
" transform="scale(0.015625)"/>
     <path id="DejaVuSans-6d" d="M 3328 2828 
Q 3544 3216 3844 3400 
Q 4144 3584 4550 3584 
Q 5097 3584 5394 3201 
Q 5691 2819 5691 2113 
L 5691 0 
L 5113 0 
L 5113 2094 
Q 5113 2597 4934 2840 
Q 4756 3084 4391 3084 
Q 3944 3084 3684 2787 
Q 3425 2491 3425 1978 
L 3425 0 
L 2847 0 
L 2847 2094 
Q 2847 2600 2669 2842 
Q 2491 3084 2119 3084 
Q 1678 3084 1418 2786 
Q 1159 2488 1159 1978 
L 1159 0 
L 581 0 
L 581 3500 
L 1159 3500 
L 1159 2956 
Q 1356 3278 1631 3431 
Q 1906 3584 2284 3584 
Q 2666 3584 2933 3390 
Q 3200 3197 3328 2828 
z
" transform="scale(0.015625)"/>
     <path id="DejaVuSans-2d" d="M 313 2009 
L 1997 2009 
L 1997 1497 
L 313 1497 
L 313 2009 
z
" transform="scale(0.015625)"/>
     <path id="DejaVuSans-6b" d="M 581 4863 
L 1159 4863 
L 1159 1991 
L 2875 3500 
L 3609 3500 
L 1753 1863 
L 3688 0 
L 2938 0 
L 1159 1709 
L 1159 0 
L 581 0 
L 581 4863 
z
" transform="scale(0.015625)"/>
     <path id="DejaVuSans-6c" d="M 603 4863 
L 1178 4863 
L 1178 0 
L 603 0 
L 603 4863 
z
" transform="scale(0.015625)"/>
     <path id="DejaVuSans-76" d="M 191 3500 
L 800 3500 
L 1894 563 
L 2988 3500 
L 3597 3500 
L 2284 0 
L 1503 0 
L 191 3500 
z
" transform="scale(0.015625)"/>
    </defs>
    <use xlink:href="#DejaVuSans-50"/>
    <use xlink:href="#DejaVuSans-72" x="58.552734"/>
    <use xlink:href="#DejaVuSans-6f" x="97.416016"/>
    <use xlink:href="#DejaVuSans-64" x="158.597656"/>
    <use xlink:href="#DejaVuSans-75" x="222.074219"/>
    <use xlink:href="#DejaVuSans-63" x="285.453125"/>
    <use xlink:href="#DejaVuSans-74" x="340.433594"/>
    <use xlink:href="#DejaVuSans-69" x="379.642578"/>
    <use xlink:href="#DejaVuSans-6f" x="407.425781"/>
    <use xlink:href="#DejaVuSans-6e" x="468.607422"/>
    <use xlink:href="#DejaVuSans-20" x="531.986328"/>
    <use xlink:href="#DejaVuSans-63" x="563.773438"/>
    <use xlink:href="#DejaVuSans-68" x="618.753906"/>
    <use xlink:href="#DejaVuSans-61" x="682.132812"/>
    <use xlink:href="#DejaVuSans-6e" x="743.412109"/>
    <use xlink:href="#DejaVuSans-67" x="806.791016"/>
    <use xlink:href="#DejaVuSans-65" x="870.267578"/>
    <use xlink:href="#DejaVuSans-20" x="931.791016"/>
    <use xlink:href="#DejaVuSans-66" x="963.578125"/>
    <use xlink:href="#DejaVuSans-72" x="998.783203"/>
    <use xlink:href="#DejaVuSans-6f" x="1037.646484"/>
    <use xlink:href="#DejaVuSans-6d" x="1098.828125"/>
    <use xlink:href="#DejaVuSans-20" x="1196.240234"/>
    <use xlink:href="#DejaVuSans-70" x="1228.027344"/>
    <use xlink:href="#DejaVuSans-72" x="1291.503906"/>
    <use xlink:href="#DejaVuSans-65" x="1330.367188"/>
    <use xlink:href="#DejaVuSans-2d" x="1391.890625"/>
    <use xlink:href="#DejaVuSans-73" x="1427.974609"/>
    <use xlink:href="#DejaVuSans-68" x="1480.074219"/>
    <use xlink:href="#DejaVuSans-6f" x="1543.453125"/>
    <use xlink:href="#DejaVuSans-63" x="1604.634766"/>
    <use xlink:href="#DejaVuSans-6b" x="1659.615234"/>
    <use xlink:href="#DejaVuSans-20" x="1717.525391"/>
    <use xlink:href="#DejaVuSans-6c" x="1749.3125"/>
    <use xlink:href="#DejaVuSans-65" x="1777.095703"/>
    <use xlink:href="#DejaVuSans-76" x="1838.619141"/>
    <use xlink:href="#DejaVuSans-65" x="1897.798828"/>
    <use xlink:href="#DejaVuSans-6c" x="1959.322266"/>
   </g>
  </g>
  <g id="legend_1">
   <g id="patch_20">
    <path d="M 11.82 584.31675 
L 1292.617547 584.31675 
Q 1297.237547 584.31675 1297.237547 579.69675 
L 1297.237547 476.97 
Q 1297.237547 472.35 1292.617547 472.35 
L 11.82 472.35 
Q 7.2 472.35 7.2 476.97 
L 7.2 579.69675 
Q 7.2 584.31675 11.82 584.31675 
z
" style="fill: #eaeaf2; opacity: 0.8; stroke: #cccccc; stroke-linejoin: miter"/>
   </g>
   <g id="text_29">
    <!-- Experiences -->
    <g style="fill: #262626" transform="translate(575.384367 500.738062) scale(0.252 -0.252)">
     <defs>
      <path id="DejaVuSans-45" d="M 628 4666 
L 3578 4666 
L 3578 4134 
L 1259 4134 
L 1259 2753 
L 3481 2753 
L 3481 2222 
L 1259 2222 
L 1259 531 
L 3634 531 
L 3634 0 
L 628 0 
L 628 4666 
z
" transform="scale(0.015625)"/>
      <path id="DejaVuSans-78" d="M 3513 3500 
L 2247 1797 
L 3578 0 
L 2900 0 
L 1881 1375 
L 863 0 
L 184 0 
L 1544 1831 
L 300 3500 
L 978 3500 
L 1906 2253 
L 2834 3500 
L 3513 3500 
z
" transform="scale(0.015625)"/>
     </defs>
     <use xlink:href="#DejaVuSans-45"/>
     <use xlink:href="#DejaVuSans-78" x="63.183594"/>
     <use xlink:href="#DejaVuSans-70" x="122.363281"/>
     <use xlink:href="#DejaVuSans-65" x="185.839844"/>
     <use xlink:href="#DejaVuSans-72" x="247.363281"/>
     <use xlink:href="#DejaVuSans-69" x="288.476562"/>
     <use xlink:href="#DejaVuSans-65" x="316.259766"/>
     <use xlink:href="#DejaVuSans-6e" x="377.783203"/>
     <use xlink:href="#DejaVuSans-63" x="441.162109"/>
     <use xlink:href="#DejaVuSans-65" x="496.142578"/>
     <use xlink:href="#DejaVuSans-73" x="557.666016"/>
    </g>
   </g>
   <g id="line2d_73">
    <path d="M 16.44 526.996266 
L 39.54 526.996266 
L 62.64 526.996266 
" style="fill: none; stroke: #4c72b0; stroke-opacity: 0.9; stroke-width: 3; stroke-linecap: round"/>
   </g>
   <g id="text_30">
    <!-- eora26_full_2000 -->
    <g style="fill: #262626" transform="translate(81.12 535.081266) scale(0.231 -0.231)">
     <defs>
      <path id="DejaVuSans-5f" d="M 3263 -1063 
L 3263 -1509 
L -63 -1509 
L -63 -1063 
L 3263 -1063 
z
" transform="scale(0.015625)"/>
     </defs>
     <use xlink:href="#DejaVuSans-65"/>
     <use xlink:href="#DejaVuSans-6f" x="61.523438"/>
     <use xlink:href="#DejaVuSans-72" x="122.705078"/>
     <use xlink:href="#DejaVuSans-61" x="163.818359"/>
     <use xlink:href="#DejaVuSans-32" x="225.097656"/>
     <use xlink:href="#DejaVuSans-36" x="288.720703"/>
     <use xlink:href="#DejaVuSans-5f" x="352.34375"/>
     <use xlink:href="#DejaVuSans-66" x="402.34375"/>
     <use xlink:href="#DejaVuSans-75" x="437.548828"/>
     <use xlink:href="#DejaVuSans-6c" x="500.927734"/>
     <use xlink:href="#DejaVuSans-6c" x="528.710938"/>
     <use xlink:href="#DejaVuSans-5f" x="556.494141"/>
     <use xlink:href="#DejaVuSans-32" x="606.494141"/>
     <use xlink:href="#DejaVuSans-30" x="670.117188"/>
     <use xlink:href="#DejaVuSans-30" x="733.740234"/>
     <use xlink:href="#DejaVuSans-30" x="797.363281"/>
    </g>
   </g>
   <g id="line2d_74">
    <path d="M 16.44 561.545203 
L 39.54 561.545203 
L 62.64 561.545203 
" style="fill: none; stroke: #dd8452; stroke-opacity: 0.9; stroke-width: 3; stroke-linecap: round"/>
   </g>
   <g id="text_31">
    <!-- eora26_full_2010 -->
    <g style="fill: #262626" transform="translate(81.12 569.630203) scale(0.231 -0.231)">
     <defs>
      <path id="DejaVuSans-31" d="M 794 531 
L 1825 531 
L 1825 4091 
L 703 3866 
L 703 4441 
L 1819 4666 
L 2450 4666 
L 2450 531 
L 3481 531 
L 3481 0 
L 794 0 
L 794 531 
z
" transform="scale(0.015625)"/>
     </defs>
     <use xlink:href="#DejaVuSans-65"/>
     <use xlink:href="#DejaVuSans-6f" x="61.523438"/>
     <use xlink:href="#DejaVuSans-72" x="122.705078"/>
     <use xlink:href="#DejaVuSans-61" x="163.818359"/>
     <use xlink:href="#DejaVuSans-32" x="225.097656"/>
     <use xlink:href="#DejaVuSans-36" x="288.720703"/>
     <use xlink:href="#DejaVuSans-5f" x="352.34375"/>
     <use xlink:href="#DejaVuSans-66" x="402.34375"/>
     <use xlink:href="#DejaVuSans-75" x="437.548828"/>
     <use xlink:href="#DejaVuSans-6c" x="500.927734"/>
     <use xlink:href="#DejaVuSans-6c" x="528.710938"/>
     <use xlink:href="#DejaVuSans-5f" x="556.494141"/>
     <use xlink:href="#DejaVuSans-32" x="606.494141"/>
     <use xlink:href="#DejaVuSans-30" x="670.117188"/>
     <use xlink:href="#DejaVuSans-31" x="733.740234"/>
     <use xlink:href="#DejaVuSans-30" x="797.363281"/>
    </g>
   </g>
   <g id="line2d_75">
    <path d="M 326.211 526.996266 
L 349.311 526.996266 
L 372.411 526.996266 
" style="fill: none; stroke: #55a868; stroke-opacity: 0.9; stroke-width: 3; stroke-linecap: round"/>
   </g>
   <g id="text_32">
    <!-- euregio_full_2000 -->
    <g style="fill: #262626" transform="translate(390.891 535.081266) scale(0.231 -0.231)">
     <use xlink:href="#DejaVuSans-65"/>
     <use xlink:href="#DejaVuSans-75" x="61.523438"/>
     <use xlink:href="#DejaVuSans-72" x="124.902344"/>
     <use xlink:href="#DejaVuSans-65" x="163.765625"/>
     <use xlink:href="#DejaVuSans-67" x="225.289062"/>
     <use xlink:href="#DejaVuSans-69" x="288.765625"/>
     <use xlink:href="#DejaVuSans-6f" x="316.548828"/>
     <use xlink:href="#DejaVuSans-5f" x="377.730469"/>
     <use xlink:href="#DejaVuSans-66" x="427.730469"/>
     <use xlink:href="#DejaVuSans-75" x="462.935547"/>
     <use xlink:href="#DejaVuSans-6c" x="526.314453"/>
     <use xlink:href="#DejaVuSans-6c" x="554.097656"/>
     <use xlink:href="#DejaVuSans-5f" x="581.880859"/>
     <use xlink:href="#DejaVuSans-32" x="631.880859"/>
     <use xlink:href="#DejaVuSans-30" x="695.503906"/>
     <use xlink:href="#DejaVuSans-30" x="759.126953"/>
     <use xlink:href="#DejaVuSans-30" x="822.75"/>
    </g>
   </g>
   <g id="line2d_76">
    <path d="M 326.211 561.545203 
L 349.311 561.545203 
L 372.411 561.545203 
" style="fill: none; stroke: #c44e52; stroke-opacity: 0.9; stroke-width: 3; stroke-linecap: round"/>
   </g>
   <g id="text_33">
    <!-- euregio_full_2010 -->
    <g style="fill: #262626" transform="translate(390.891 569.630203) scale(0.231 -0.231)">
     <use xlink:href="#DejaVuSans-65"/>
     <use xlink:href="#DejaVuSans-75" x="61.523438"/>
     <use xlink:href="#DejaVuSans-72" x="124.902344"/>
     <use xlink:href="#DejaVuSans-65" x="163.765625"/>
     <use xlink:href="#DejaVuSans-67" x="225.289062"/>
     <use xlink:href="#DejaVuSans-69" x="288.765625"/>
     <use xlink:href="#DejaVuSans-6f" x="316.548828"/>
     <use xlink:href="#DejaVuSans-5f" x="377.730469"/>
     <use xlink:href="#DejaVuSans-66" x="427.730469"/>
     <use xlink:href="#DejaVuSans-75" x="462.935547"/>
     <use xlink:href="#DejaVuSans-6c" x="526.314453"/>
     <use xlink:href="#DejaVuSans-6c" x="554.097656"/>
     <use xlink:href="#DejaVuSans-5f" x="581.880859"/>
     <use xlink:href="#DejaVuSans-32" x="631.880859"/>
     <use xlink:href="#DejaVuSans-30" x="695.503906"/>
     <use xlink:href="#DejaVuSans-31" x="759.126953"/>
     <use xlink:href="#DejaVuSans-30" x="822.75"/>
    </g>
   </g>
   <g id="line2d_77">
    <path d="M 641.847234 526.996266 
L 664.947234 526.996266 
L 688.047234 526.996266 
" style="fill: none; stroke: #8172b3; stroke-opacity: 0.9; stroke-width: 3; stroke-linecap: round"/>
   </g>
   <g id="text_34">
    <!-- exiobase3_full_2000 -->
    <g style="fill: #262626" transform="translate(706.527234 535.081266) scale(0.231 -0.231)">
     <defs>
      <path id="DejaVuSans-62" d="M 3116 1747 
Q 3116 2381 2855 2742 
Q 2594 3103 2138 3103 
Q 1681 3103 1420 2742 
Q 1159 2381 1159 1747 
Q 1159 1113 1420 752 
Q 1681 391 2138 391 
Q 2594 391 2855 752 
Q 3116 1113 3116 1747 
z
M 1159 2969 
Q 1341 3281 1617 3432 
Q 1894 3584 2278 3584 
Q 2916 3584 3314 3078 
Q 3713 2572 3713 1747 
Q 3713 922 3314 415 
Q 2916 -91 2278 -91 
Q 1894 -91 1617 61 
Q 1341 213 1159 525 
L 1159 0 
L 581 0 
L 581 4863 
L 1159 4863 
L 1159 2969 
z
" transform="scale(0.015625)"/>
     </defs>
     <use xlink:href="#DejaVuSans-65"/>
     <use xlink:href="#DejaVuSans-78" x="59.773438"/>
     <use xlink:href="#DejaVuSans-69" x="118.953125"/>
     <use xlink:href="#DejaVuSans-6f" x="146.736328"/>
     <use xlink:href="#DejaVuSans-62" x="207.917969"/>
     <use xlink:href="#DejaVuSans-61" x="271.394531"/>
     <use xlink:href="#DejaVuSans-73" x="332.673828"/>
     <use xlink:href="#DejaVuSans-65" x="384.773438"/>
     <use xlink:href="#DejaVuSans-33" x="446.296875"/>
     <use xlink:href="#DejaVuSans-5f" x="509.919922"/>
     <use xlink:href="#DejaVuSans-66" x="559.919922"/>
     <use xlink:href="#DejaVuSans-75" x="595.125"/>
     <use xlink:href="#DejaVuSans-6c" x="658.503906"/>
     <use xlink:href="#DejaVuSans-6c" x="686.287109"/>
     <use xlink:href="#DejaVuSans-5f" x="714.070312"/>
     <use xlink:href="#DejaVuSans-32" x="764.070312"/>
     <use xlink:href="#DejaVuSans-30" x="827.693359"/>
     <use xlink:href="#DejaVuSans-30" x="891.316406"/>
     <use xlink:href="#DejaVuSans-30" x="954.939453"/>
    </g>
   </g>
   <g id="line2d_78">
    <path d="M 988.022391 526.996266 
L 1011.122391 526.996266 
L 1034.222391 526.996266 
" style="fill: none; stroke: #937860; stroke-opacity: 0.9; stroke-width: 3; stroke-linecap: round"/>
   </g>
   <g id="text_35">
    <!-- exiobase3_full_2010 -->
    <g style="fill: #262626" transform="translate(1052.702391 535.081266) scale(0.231 -0.231)">
     <use xlink:href="#DejaVuSans-65"/>
     <use xlink:href="#DejaVuSans-78" x="59.773438"/>
     <use xlink:href="#DejaVuSans-69" x="118.953125"/>
     <use xlink:href="#DejaVuSans-6f" x="146.736328"/>
     <use xlink:href="#DejaVuSans-62" x="207.917969"/>
     <use xlink:href="#DejaVuSans-61" x="271.394531"/>
     <use xlink:href="#DejaVuSans-73" x="332.673828"/>
     <use xlink:href="#DejaVuSans-65" x="384.773438"/>
     <use xlink:href="#DejaVuSans-33" x="446.296875"/>
     <use xlink:href="#DejaVuSans-5f" x="509.919922"/>
     <use xlink:href="#DejaVuSans-66" x="559.919922"/>
     <use xlink:href="#DejaVuSans-75" x="595.125"/>
     <use xlink:href="#DejaVuSans-6c" x="658.503906"/>
     <use xlink:href="#DejaVuSans-6c" x="686.287109"/>
     <use xlink:href="#DejaVuSans-5f" x="714.070312"/>
     <use xlink:href="#DejaVuSans-32" x="764.070312"/>
     <use xlink:href="#DejaVuSans-30" x="827.693359"/>
     <use xlink:href="#DejaVuSans-31" x="891.316406"/>
     <use xlink:href="#DejaVuSans-30" x="954.939453"/>
    </g>
   </g>
  </g>
 </g>
 <defs>
  <clipPath id="pa5e7f15a6e">
   <rect x="170.340091" y="81.456" width="292.369069" height="119.586"/>
  </clipPath>
  <clipPath id="p4b2a214e72">
   <rect x="489.290298" y="81.456" width="292.369069" height="119.586"/>
  </clipPath>
  <clipPath id="pb6e9dba281">
   <rect x="808.240504" y="81.456" width="292.369069" height="119.586"/>
  </clipPath>
  <clipPath id="p4c418f48ab">
   <rect x="170.340091" y="253.698" width="292.369069" height="119.586"/>
  </clipPath>
  <clipPath id="p75642029c2">
   <rect x="489.290298" y="253.698" width="292.369069" height="119.586"/>
  </clipPath>
  <clipPath id="p3ee923274c">
   <rect x="808.240504" y="253.698" width="292.369069" height="119.586"/>
  </clipPath>
 </defs>
</svg>
