<?xml version="1.0" encoding="utf-8" standalone="no"?>
<!DOCTYPE svg PUBLIC "-//W3C//DTD SVG 1.1//EN"
  "http://www.w3.org/Graphics/SVG/1.1/DTD/svg11.dtd">
<svg xmlns:xlink="http://www.w3.org/1999/xlink" width="1304.437547pt" height="591.51675pt" viewBox="0 0 1304.437547 591.51675" xmlns="http://www.w3.org/2000/svg" version="1.1">
 <metadata>
  <rdf:RDF xmlns:dc="http://purl.org/dc/elements/1.1/" xmlns:cc="http://creativecommons.org/ns#" xmlns:rdf="http://www.w3.org/1999/02/22-rdf-syntax-ns#">
   <cc:Work>
    <dc:type rdf:resource="http://purl.org/dc/dcmitype/StillImage"/>
    <dc:date>2023-04-28T12:09:08.233319</dc:date>
    <dc:format>image/svg+xml</dc:format>
    <dc:creator>
     <cc:Agent>
      <dc:title>Matplotlib v3.7.1, https://matplotlib.org/</dc:title>
     </cc:Agent>
    </dc:creator>
   </cc:Work>
  </rdf:RDF>
 </metadata>
 <defs>
  <style type="text/css">*{stroke-linejoin: round; stroke-linecap: butt}</style>
 </defs>
 <g id="figure_1">
  <g id="patch_1">
   <path d="M 0 591.51675 
L 1304.437547 591.51675 
L 1304.437547 -0 
L 0 -0 
z
" style="fill: #ffffff"/>
  </g>
  <g id="axes_1">
   <g id="patch_2">
    <path d="M 189.250488 183.612 
L 475.404752 183.612 
L 475.404752 81.456 
L 189.250488 81.456 
z
" style="fill: #eaeaf2"/>
   </g>
   <g id="matplotlib.axis_1">
    <g id="xtick_1">
     <g id="line2d_1">
      <path d="M 202.2575 183.612 
L 202.2575 81.456 
" clip-path="url(#p4629d0bf27)" style="fill: none; stroke: #ffffff; stroke-linecap: round"/>
     </g>
    </g>
    <g id="xtick_2">
     <g id="line2d_2">
      <path d="M 291.468831 183.612 
L 291.468831 81.456 
" clip-path="url(#p4629d0bf27)" style="fill: none; stroke: #ffffff; stroke-linecap: round"/>
     </g>
    </g>
    <g id="xtick_3">
     <g id="line2d_3">
      <path d="M 380.680161 183.612 
L 380.680161 81.456 
" clip-path="url(#p4629d0bf27)" style="fill: none; stroke: #ffffff; stroke-linecap: round"/>
     </g>
    </g>
    <g id="xtick_4">
     <g id="line2d_4">
      <path d="M 469.891491 183.612 
L 469.891491 81.456 
" clip-path="url(#p4629d0bf27)" style="fill: none; stroke: #ffffff; stroke-linecap: round"/>
     </g>
    </g>
   </g>
   <g id="matplotlib.axis_2">
    <g id="ytick_1">
     <g id="line2d_5">
      <path d="M 189.250488 141.56593 
L 475.404752 141.56593 
" clip-path="url(#p4629d0bf27)" style="fill: none; stroke: #ffffff; stroke-linecap: round"/>
     </g>
     <g id="text_1">
      <!-- −0.05 -->
      <g style="fill: #262626" transform="translate(108.959816 150.342126) scale(0.231 -0.231)">
       <defs>
        <path id="DejaVuSans-2212" d="M 678 2272 
L 4684 2272 
L 4684 1741 
L 678 1741 
L 678 2272 
z
" transform="scale(0.015625)"/>
        <path id="DejaVuSans-30" d="M 2034 4250 
Q 1547 4250 1301 3770 
Q 1056 3291 1056 2328 
Q 1056 1369 1301 889 
Q 1547 409 2034 409 
Q 2525 409 2770 889 
Q 3016 1369 3016 2328 
Q 3016 3291 2770 3770 
Q 2525 4250 2034 4250 
z
M 2034 4750 
Q 2819 4750 3233 4129 
Q 3647 3509 3647 2328 
Q 3647 1150 3233 529 
Q 2819 -91 2034 -91 
Q 1250 -91 836 529 
Q 422 1150 422 2328 
Q 422 3509 836 4129 
Q 1250 4750 2034 4750 
z
" transform="scale(0.015625)"/>
        <path id="DejaVuSans-2e" d="M 684 794 
L 1344 794 
L 1344 0 
L 684 0 
L 684 794 
z
" transform="scale(0.015625)"/>
        <path id="DejaVuSans-35" d="M 691 4666 
L 3169 4666 
L 3169 4134 
L 1269 4134 
L 1269 2991 
Q 1406 3038 1543 3061 
Q 1681 3084 1819 3084 
Q 2600 3084 3056 2656 
Q 3513 2228 3513 1497 
Q 3513 744 3044 326 
Q 2575 -91 1722 -91 
Q 1428 -91 1123 -41 
Q 819 9 494 109 
L 494 744 
Q 775 591 1075 516 
Q 1375 441 1709 441 
Q 2250 441 2565 725 
Q 2881 1009 2881 1497 
Q 2881 1984 2565 2268 
Q 2250 2553 1709 2553 
Q 1456 2553 1204 2497 
Q 953 2441 691 2322 
L 691 4666 
z
" transform="scale(0.015625)"/>
       </defs>
       <use xlink:href="#DejaVuSans-2212"/>
       <use xlink:href="#DejaVuSans-30" x="83.789062"/>
       <use xlink:href="#DejaVuSans-2e" x="147.412109"/>
       <use xlink:href="#DejaVuSans-30" x="179.199219"/>
       <use xlink:href="#DejaVuSans-35" x="242.822266"/>
      </g>
     </g>
    </g>
    <g id="ytick_2">
     <g id="line2d_6">
      <path d="M 189.250488 86.099455 
L 475.404752 86.099455 
" clip-path="url(#p4629d0bf27)" style="fill: none; stroke: #ffffff; stroke-linecap: round"/>
     </g>
     <g id="text_2">
      <!-- 0.00 -->
      <g style="fill: #262626" transform="translate(128.316894 94.87565) scale(0.231 -0.231)">
       <use xlink:href="#DejaVuSans-30"/>
       <use xlink:href="#DejaVuSans-2e" x="63.623047"/>
       <use xlink:href="#DejaVuSans-30" x="95.410156"/>
       <use xlink:href="#DejaVuSans-30" x="159.033203"/>
      </g>
     </g>
    </g>
    <g id="text_3">
     <!-- % change -->
     <g style="fill: #262626" transform="translate(99.719004 194.882344) rotate(-90) scale(0.252 -0.252)">
      <defs>
       <path id="DejaVuSans-25" d="M 4653 2053 
Q 4381 2053 4226 1822 
Q 4072 1591 4072 1178 
Q 4072 772 4226 539 
Q 4381 306 4653 306 
Q 4919 306 5073 539 
Q 5228 772 5228 1178 
Q 5228 1588 5073 1820 
Q 4919 2053 4653 2053 
z
M 4653 2450 
Q 5147 2450 5437 2106 
Q 5728 1763 5728 1178 
Q 5728 594 5436 251 
Q 5144 -91 4653 -91 
Q 4153 -91 3862 251 
Q 3572 594 3572 1178 
Q 3572 1766 3864 2108 
Q 4156 2450 4653 2450 
z
M 1428 4353 
Q 1159 4353 1004 4120 
Q 850 3888 850 3481 
Q 850 3069 1003 2837 
Q 1156 2606 1428 2606 
Q 1700 2606 1854 2837 
Q 2009 3069 2009 3481 
Q 2009 3884 1853 4118 
Q 1697 4353 1428 4353 
z
M 4250 4750 
L 4750 4750 
L 1831 -91 
L 1331 -91 
L 4250 4750 
z
M 1428 4750 
Q 1922 4750 2215 4408 
Q 2509 4066 2509 3481 
Q 2509 2891 2217 2550 
Q 1925 2209 1428 2209 
Q 931 2209 642 2551 
Q 353 2894 353 3481 
Q 353 4063 643 4406 
Q 934 4750 1428 4750 
z
" transform="scale(0.015625)"/>
       <path id="DejaVuSans-20" transform="scale(0.015625)"/>
       <path id="DejaVuSans-63" d="M 3122 3366 
L 3122 2828 
Q 2878 2963 2633 3030 
Q 2388 3097 2138 3097 
Q 1578 3097 1268 2742 
Q 959 2388 959 1747 
Q 959 1106 1268 751 
Q 1578 397 2138 397 
Q 2388 397 2633 464 
Q 2878 531 3122 666 
L 3122 134 
Q 2881 22 2623 -34 
Q 2366 -91 2075 -91 
Q 1284 -91 818 406 
Q 353 903 353 1747 
Q 353 2603 823 3093 
Q 1294 3584 2113 3584 
Q 2378 3584 2631 3529 
Q 2884 3475 3122 3366 
z
" transform="scale(0.015625)"/>
       <path id="DejaVuSans-68" d="M 3513 2113 
L 3513 0 
L 2938 0 
L 2938 2094 
Q 2938 2591 2744 2837 
Q 2550 3084 2163 3084 
Q 1697 3084 1428 2787 
Q 1159 2491 1159 1978 
L 1159 0 
L 581 0 
L 581 4863 
L 1159 4863 
L 1159 2956 
Q 1366 3272 1645 3428 
Q 1925 3584 2291 3584 
Q 2894 3584 3203 3211 
Q 3513 2838 3513 2113 
z
" transform="scale(0.015625)"/>
       <path id="DejaVuSans-61" d="M 2194 1759 
Q 1497 1759 1228 1600 
Q 959 1441 959 1056 
Q 959 750 1161 570 
Q 1363 391 1709 391 
Q 2188 391 2477 730 
Q 2766 1069 2766 1631 
L 2766 1759 
L 2194 1759 
z
M 3341 1997 
L 3341 0 
L 2766 0 
L 2766 531 
Q 2569 213 2275 61 
Q 1981 -91 1556 -91 
Q 1019 -91 701 211 
Q 384 513 384 1019 
Q 384 1609 779 1909 
Q 1175 2209 1959 2209 
L 2766 2209 
L 2766 2266 
Q 2766 2663 2505 2880 
Q 2244 3097 1772 3097 
Q 1472 3097 1187 3025 
Q 903 2953 641 2809 
L 641 3341 
Q 956 3463 1253 3523 
Q 1550 3584 1831 3584 
Q 2591 3584 2966 3190 
Q 3341 2797 3341 1997 
z
" transform="scale(0.015625)"/>
       <path id="DejaVuSans-6e" d="M 3513 2113 
L 3513 0 
L 2938 0 
L 2938 2094 
Q 2938 2591 2744 2837 
Q 2550 3084 2163 3084 
Q 1697 3084 1428 2787 
Q 1159 2491 1159 1978 
L 1159 0 
L 581 0 
L 581 3500 
L 1159 3500 
L 1159 2956 
Q 1366 3272 1645 3428 
Q 1925 3584 2291 3584 
Q 2894 3584 3203 3211 
Q 3513 2838 3513 2113 
z
" transform="scale(0.015625)"/>
       <path id="DejaVuSans-67" d="M 2906 1791 
Q 2906 2416 2648 2759 
Q 2391 3103 1925 3103 
Q 1463 3103 1205 2759 
Q 947 2416 947 1791 
Q 947 1169 1205 825 
Q 1463 481 1925 481 
Q 2391 481 2648 825 
Q 2906 1169 2906 1791 
z
M 3481 434 
Q 3481 -459 3084 -895 
Q 2688 -1331 1869 -1331 
Q 1566 -1331 1297 -1286 
Q 1028 -1241 775 -1147 
L 775 -588 
Q 1028 -725 1275 -790 
Q 1522 -856 1778 -856 
Q 2344 -856 2625 -561 
Q 2906 -266 2906 331 
L 2906 616 
Q 2728 306 2450 153 
Q 2172 0 1784 0 
Q 1141 0 747 490 
Q 353 981 353 1791 
Q 353 2603 747 3093 
Q 1141 3584 1784 3584 
Q 2172 3584 2450 3431 
Q 2728 3278 2906 2969 
L 2906 3500 
L 3481 3500 
L 3481 434 
z
" transform="scale(0.015625)"/>
       <path id="DejaVuSans-65" d="M 3597 1894 
L 3597 1613 
L 953 1613 
Q 991 1019 1311 708 
Q 1631 397 2203 397 
Q 2534 397 2845 478 
Q 3156 559 3463 722 
L 3463 178 
Q 3153 47 2828 -22 
Q 2503 -91 2169 -91 
Q 1331 -91 842 396 
Q 353 884 353 1716 
Q 353 2575 817 3079 
Q 1281 3584 2069 3584 
Q 2775 3584 3186 3129 
Q 3597 2675 3597 1894 
z
M 3022 2063 
Q 3016 2534 2758 2815 
Q 2500 3097 2075 3097 
Q 1594 3097 1305 2825 
Q 1016 2553 972 2059 
L 3022 2063 
z
" transform="scale(0.015625)"/>
      </defs>
      <use xlink:href="#DejaVuSans-25"/>
      <use xlink:href="#DejaVuSans-20" x="95.019531"/>
      <use xlink:href="#DejaVuSans-63" x="126.806641"/>
      <use xlink:href="#DejaVuSans-68" x="181.787109"/>
      <use xlink:href="#DejaVuSans-61" x="245.166016"/>
      <use xlink:href="#DejaVuSans-6e" x="306.445312"/>
      <use xlink:href="#DejaVuSans-67" x="369.824219"/>
      <use xlink:href="#DejaVuSans-65" x="433.300781"/>
     </g>
    </g>
   </g>
   <g id="PolyCollection_1"/>
   <g id="PolyCollection_2"/>
   <g id="PolyCollection_3"/>
   <g id="PolyCollection_4"/>
   <g id="PolyCollection_5"/>
   <g id="PolyCollection_6"/>
   <g id="line2d_7">
    <path d="M 202.2575 86.099455 
L 205.469108 93.857924 
L 210.108097 104.811036 
L 213.319705 111.830735 
L 216.531313 118.351143 
L 219.742921 124.378731 
L 222.954529 129.920582 
L 226.166137 134.983911 
L 229.020899 139.088145 
L 231.875662 142.823292 
L 234.730424 146.193325 
L 237.585187 149.205065 
L 240.43995 151.871692 
L 242.937867 153.925139 
L 245.435784 155.721228 
L 247.933701 157.265512 
L 250.431619 158.560231 
L 252.929536 159.607469 
L 255.427453 160.409289 
L 257.92537 160.967741 
L 260.423288 161.28594 
L 263.27805 161.40643 
L 266.132813 161.30869 
L 268.987575 160.999679 
L 272.199183 160.412271 
L 282.547697 158.33984 
L 289.327759 157.252312 
L 297.535201 156.178394 
L 308.240561 155.014273 
L 321.086992 153.849448 
L 337.501877 152.583184 
L 358.912596 151.215682 
L 417.078384 147.777308 
L 462.39774 145.124055 
L 462.39774 145.124055 
" clip-path="url(#p4629d0bf27)" style="fill: none; stroke: #4c72b0; stroke-opacity: 0.9; stroke-width: 3; stroke-linecap: round"/>
   </g>
   <g id="line2d_8">
    <path d="M 202.2575 86.099455 
L 204.755417 92.030883 
L 210.108097 104.597207 
L 213.67655 112.327673 
L 216.888158 118.7803 
L 220.099766 124.760362 
L 223.311374 130.272808 
L 226.522982 135.322244 
L 229.377745 139.425838 
L 232.232507 143.171831 
L 235.08727 146.563828 
L 237.942032 149.605484 
L 240.796795 152.301302 
L 243.294712 154.379233 
L 245.792629 156.202108 
L 248.290547 157.777714 
L 250.788464 159.111535 
L 253.286381 160.207523 
L 255.784298 161.067638 
L 258.282216 161.693399 
L 260.780133 162.086616 
L 263.634895 162.285864 
L 266.489658 162.262139 
L 269.344421 162.021702 
L 272.556028 161.50468 
L 287.900377 158.787337 
L 296.464665 157.550278 
L 307.170025 156.257826 
L 316.448003 155.351455 
L 336.074496 153.669321 
L 359.269442 151.892602 
L 397.095046 149.289756 
L 462.39774 144.899112 
L 462.39774 144.899112 
" clip-path="url(#p4629d0bf27)" style="fill: none; stroke: #dd8452; stroke-opacity: 0.9; stroke-width: 3; stroke-linecap: round"/>
   </g>
   <g id="line2d_9">
    <path d="M 202.2575 86.099455 
L 204.398572 91.634569 
L 209.751252 105.343934 
L 212.96286 112.956015 
L 216.174468 120.025717 
L 219.386076 126.561428 
L 222.597683 132.570898 
L 225.452446 137.476354 
L 228.307209 141.976104 
L 231.161971 146.074405 
L 234.016734 149.776307 
L 236.871496 153.086665 
L 239.369414 155.666773 
L 241.867331 157.955087 
L 244.365248 159.955193 
L 246.863165 161.671368 
L 249.361083 163.108903 
L 251.859 164.275401 
L 254.356917 165.178721 
L 256.854834 165.823624 
L 259.352752 166.213225 
L 261.850669 166.370754 
L 264.348586 166.323502 
L 267.203349 166.037703 
L 270.058111 165.527217 
L 284.331924 162.531815 
L 291.468831 161.386855 
L 299.319428 160.353492 
L 307.170025 159.541019 
L 317.518539 158.715405 
L 331.792352 157.813938 
L 356.414679 156.511608 
L 428.854279 152.997926 
L 462.39774 151.374531 
L 462.39774 151.374531 
" clip-path="url(#p4629d0bf27)" style="fill: none; stroke: #55a868; stroke-opacity: 0.9; stroke-width: 3; stroke-linecap: round"/>
   </g>
   <g id="line2d_10">
    <path d="M 202.2575 86.099455 
L 204.398572 91.457 
L 209.751252 104.731618 
L 212.96286 112.104761 
L 216.174468 118.953772 
L 219.386076 125.285942 
L 222.597683 131.107848 
L 225.452446 135.8595 
L 228.307209 140.217269 
L 231.161971 144.1856 
L 234.016734 147.769347 
L 236.871496 150.974149 
L 239.369414 153.471961 
L 241.867331 155.687861 
L 244.365248 157.625622 
L 246.863165 159.289817 
L 249.361083 160.685313 
L 251.859 161.818854 
L 254.356917 162.69751 
L 256.854834 163.327377 
L 259.352752 163.71189 
L 261.850669 163.873879 
L 264.705431 163.819979 
L 267.560194 163.528787 
L 270.771802 162.958386 
L 281.120316 160.900826 
L 288.970913 159.639928 
L 297.535201 158.492352 
L 305.742643 157.605701 
L 315.734312 156.779368 
L 330.008125 155.841872 
L 353.559916 154.545636 
L 425.999517 150.880543 
L 462.39774 149.038821 
L 462.39774 149.038821 
" clip-path="url(#p4629d0bf27)" style="fill: none; stroke: #c44e52; stroke-opacity: 0.9; stroke-width: 3; stroke-linecap: round"/>
   </g>
   <g id="line2d_11">
    <path d="M 202.2575 86.099455 
L 205.112263 93.282986 
L 210.108097 105.587392 
L 213.319705 112.896186 
L 216.531313 119.686809 
L 219.742921 125.966044 
L 222.954529 131.740293 
L 225.809291 136.454006 
L 228.664054 140.777862 
L 231.518816 144.716038 
L 234.373579 148.27279 
L 237.228342 151.452169 
L 239.726259 153.927565 
L 242.224176 156.119984 
L 244.722093 158.032744 
L 247.220011 159.668242 
L 249.717928 161.029237 
L 252.215845 162.122734 
L 254.713762 162.95244 
L 257.21168 163.520358 
L 259.709597 163.830512 
L 262.207514 163.908642 
L 264.705431 163.783589 
L 267.560194 163.416877 
L 270.771802 162.75842 
L 296.464665 156.569262 
L 303.244726 155.318603 
L 310.738478 154.180822 
L 320.730147 152.903386 
L 331.078661 151.805534 
L 344.995629 150.572024 
L 361.053668 149.401772 
L 393.169747 147.324931 
L 462.39774 143.039238 
L 462.39774 143.039238 
" clip-path="url(#p4629d0bf27)" style="fill: none; stroke: #8172b3; stroke-opacity: 0.9; stroke-width: 3; stroke-linecap: round"/>
   </g>
   <g id="line2d_12">
    <path d="M 202.2575 86.099455 
L 205.469108 93.951535 
L 210.108097 105.033363 
L 213.319705 112.141034 
L 216.531313 118.750555 
L 219.742921 124.868516 
L 222.954529 130.501279 
L 226.166137 135.654856 
L 229.020899 139.838122 
L 231.875662 143.651137 
L 234.730424 147.097987 
L 237.585187 150.183482 
L 240.43995 152.911428 
L 242.937867 155.007898 
L 245.435784 156.835688 
L 247.933701 158.397081 
L 250.431619 159.696874 
L 252.929536 160.73931 
L 255.427453 161.526949 
L 257.92537 162.062311 
L 260.423288 162.350585 
L 262.921205 162.41548 
L 265.775967 162.262387 
L 268.63073 161.89958 
L 271.842338 161.257747 
L 285.759305 158.117279 
L 295.394129 156.152385 
L 302.531035 154.939636 
L 311.452169 153.659439 
L 322.514373 152.302369 
L 335.360805 150.946627 
L 350.705154 149.63386 
L 372.115873 148.059305 
L 419.576301 144.845136 
L 462.39774 141.99865 
L 462.39774 141.99865 
" clip-path="url(#p4629d0bf27)" style="fill: none; stroke: #937860; stroke-opacity: 0.9; stroke-width: 3; stroke-linecap: round"/>
   </g>
   <g id="patch_3">
    <path d="M 189.250488 183.612 
L 189.250488 81.456 
" style="fill: none; stroke: #ffffff; stroke-width: 1.25; stroke-linejoin: miter; stroke-linecap: square"/>
   </g>
   <g id="patch_4">
    <path d="M 189.250488 183.612 
L 475.404752 183.612 
" style="fill: none; stroke: #ffffff; stroke-width: 1.25; stroke-linejoin: miter; stroke-linecap: square"/>
   </g>
   <g id="text_4">
    <!-- 0.8~90 -->
    <g style="fill: #262626" transform="translate(285.697776 75.456) scale(0.252 -0.252)">
     <defs>
      <path id="DejaVuSans-38" d="M 2034 2216 
Q 1584 2216 1326 1975 
Q 1069 1734 1069 1313 
Q 1069 891 1326 650 
Q 1584 409 2034 409 
Q 2484 409 2743 651 
Q 3003 894 3003 1313 
Q 3003 1734 2745 1975 
Q 2488 2216 2034 2216 
z
M 1403 2484 
Q 997 2584 770 2862 
Q 544 3141 544 3541 
Q 544 4100 942 4425 
Q 1341 4750 2034 4750 
Q 2731 4750 3128 4425 
Q 3525 4100 3525 3541 
Q 3525 3141 3298 2862 
Q 3072 2584 2669 2484 
Q 3125 2378 3379 2068 
Q 3634 1759 3634 1313 
Q 3634 634 3220 271 
Q 2806 -91 2034 -91 
Q 1263 -91 848 271 
Q 434 634 434 1313 
Q 434 1759 690 2068 
Q 947 2378 1403 2484 
z
M 1172 3481 
Q 1172 3119 1398 2916 
Q 1625 2713 2034 2713 
Q 2441 2713 2670 2916 
Q 2900 3119 2900 3481 
Q 2900 3844 2670 4047 
Q 2441 4250 2034 4250 
Q 1625 4250 1398 4047 
Q 1172 3844 1172 3481 
z
" transform="scale(0.015625)"/>
      <path id="DejaVuSans-7e" d="M 4684 2553 
L 4684 1997 
Q 4356 1750 4076 1644 
Q 3797 1538 3494 1538 
Q 3150 1538 2694 1722 
Q 2659 1734 2644 1741 
Q 2622 1750 2575 1766 
Q 2091 1959 1797 1959 
Q 1522 1959 1253 1839 
Q 984 1719 678 1459 
L 678 2016 
Q 1006 2263 1286 2370 
Q 1566 2478 1869 2478 
Q 2213 2478 2672 2291 
Q 2703 2278 2719 2272 
Q 2744 2263 2788 2247 
Q 3272 2053 3566 2053 
Q 3834 2053 4098 2172 
Q 4363 2291 4684 2553 
z
" transform="scale(0.015625)"/>
      <path id="DejaVuSans-39" d="M 703 97 
L 703 672 
Q 941 559 1184 500 
Q 1428 441 1663 441 
Q 2288 441 2617 861 
Q 2947 1281 2994 2138 
Q 2813 1869 2534 1725 
Q 2256 1581 1919 1581 
Q 1219 1581 811 2004 
Q 403 2428 403 3163 
Q 403 3881 828 4315 
Q 1253 4750 1959 4750 
Q 2769 4750 3195 4129 
Q 3622 3509 3622 2328 
Q 3622 1225 3098 567 
Q 2575 -91 1691 -91 
Q 1453 -91 1209 -44 
Q 966 3 703 97 
z
M 1959 2075 
Q 2384 2075 2632 2365 
Q 2881 2656 2881 3163 
Q 2881 3666 2632 3958 
Q 2384 4250 1959 4250 
Q 1534 4250 1286 3958 
Q 1038 3666 1038 3163 
Q 1038 2656 1286 2365 
Q 1534 2075 1959 2075 
z
" transform="scale(0.015625)"/>
     </defs>
     <use xlink:href="#DejaVuSans-30"/>
     <use xlink:href="#DejaVuSans-2e" x="63.623047"/>
     <use xlink:href="#DejaVuSans-38" x="95.410156"/>
     <use xlink:href="#DejaVuSans-7e" x="159.033203"/>
     <use xlink:href="#DejaVuSans-39" x="242.822266"/>
     <use xlink:href="#DejaVuSans-30" x="306.445312"/>
    </g>
   </g>
  </g>
  <g id="axes_2">
   <g id="patch_5">
    <path d="M 501.852899 183.612 
L 788.007162 183.612 
L 788.007162 81.456 
L 501.852899 81.456 
z
" style="fill: #eaeaf2"/>
   </g>
   <g id="matplotlib.axis_3">
    <g id="xtick_5">
     <g id="line2d_13">
      <path d="M 514.859911 183.612 
L 514.859911 81.456 
" clip-path="url(#p03f7cc5269)" style="fill: none; stroke: #ffffff; stroke-linecap: round"/>
     </g>
    </g>
    <g id="xtick_6">
     <g id="line2d_14">
      <path d="M 604.071241 183.612 
L 604.071241 81.456 
" clip-path="url(#p03f7cc5269)" style="fill: none; stroke: #ffffff; stroke-linecap: round"/>
     </g>
    </g>
    <g id="xtick_7">
     <g id="line2d_15">
      <path d="M 693.282572 183.612 
L 693.282572 81.456 
" clip-path="url(#p03f7cc5269)" style="fill: none; stroke: #ffffff; stroke-linecap: round"/>
     </g>
    </g>
    <g id="xtick_8">
     <g id="line2d_16">
      <path d="M 782.493902 183.612 
L 782.493902 81.456 
" clip-path="url(#p03f7cc5269)" style="fill: none; stroke: #ffffff; stroke-linecap: round"/>
     </g>
    </g>
   </g>
   <g id="matplotlib.axis_4">
    <g id="ytick_3">
     <g id="line2d_17">
      <path d="M 501.852899 141.56593 
L 788.007162 141.56593 
" clip-path="url(#p03f7cc5269)" style="fill: none; stroke: #ffffff; stroke-linecap: round"/>
     </g>
    </g>
    <g id="ytick_4">
     <g id="line2d_18">
      <path d="M 501.852899 86.099455 
L 788.007162 86.099455 
" clip-path="url(#p03f7cc5269)" style="fill: none; stroke: #ffffff; stroke-linecap: round"/>
     </g>
    </g>
   </g>
   <g id="PolyCollection_7"/>
   <g id="PolyCollection_8"/>
   <g id="PolyCollection_9"/>
   <g id="PolyCollection_10"/>
   <g id="PolyCollection_11"/>
   <g id="PolyCollection_12"/>
   <g id="line2d_19">
    <path d="M 514.859911 86.099455 
L 517.714674 93.025039 
L 523.424199 106.714387 
L 526.992652 114.66303 
L 530.561105 122.09256 
L 534.129558 129.00463 
L 537.698012 135.400757 
L 540.90962 140.717401 
L 544.121227 145.618509 
L 547.332835 150.105264 
L 550.544443 154.178871 
L 553.399206 157.453993 
L 556.253968 160.404525 
L 559.108731 163.031715 
L 561.963494 165.336666 
L 564.461411 167.090035 
L 566.959328 168.598459 
L 569.457245 169.862549 
L 571.955163 170.882917 
L 574.45308 171.662964 
L 576.950997 172.207881 
L 579.448914 172.520585 
L 581.946832 172.604809 
L 584.801594 172.465338 
L 612.635529 170.519281 
L 637.614702 168.960875 
L 649.747443 168.449933 
L 668.660245 167.906172 
L 697.921561 167.295861 
L 755.373658 166.342231 
L 775.000151 166.038124 
L 775.000151 166.038124 
" clip-path="url(#p03f7cc5269)" style="fill: none; stroke: #4c72b0; stroke-opacity: 0.9; stroke-width: 3; stroke-linecap: round"/>
   </g>
   <g id="line2d_20">
    <path d="M 514.859911 86.099455 
L 517.000983 91.188231 
L 523.424199 106.445134 
L 526.992652 114.31507 
L 530.561105 121.676664 
L 534.129558 128.531346 
L 537.698012 134.88035 
L 540.90962 140.163147 
L 544.121227 145.038405 
L 547.332835 149.507174 
L 550.544443 153.570514 
L 553.399206 156.842874 
L 556.253968 159.796492 
L 559.108731 162.432129 
L 561.963494 164.75056 
L 564.818256 166.752536 
L 567.316173 168.245255 
L 569.814091 169.49676 
L 572.312008 170.507775 
L 574.809925 171.279414 
L 577.307842 171.813919 
L 579.80576 172.120129 
L 582.303677 172.20518 
L 585.158439 172.074146 
L 612.635529 170.38214 
L 646.178989 168.516051 
L 661.523338 167.962846 
L 688.643583 167.31361 
L 747.523061 166.173785 
L 775.000151 165.679525 
L 775.000151 165.679525 
" clip-path="url(#p03f7cc5269)" style="fill: none; stroke: #dd8452; stroke-opacity: 0.9; stroke-width: 3; stroke-linecap: round"/>
   </g>
   <g id="line2d_21">
    <path d="M 514.859911 86.099455 
L 516.644138 90.712102 
L 523.424199 108.268529 
L 526.992652 116.822972 
L 530.561105 124.815955 
L 534.129558 132.249681 
L 537.341166 138.463805 
L 540.552774 144.228631 
L 543.764382 149.545425 
L 546.97599 154.415351 
L 549.830753 158.37007 
L 552.685515 161.973658 
L 555.540278 165.227022 
L 558.39504 168.13105 
L 561.249803 170.686812 
L 563.74772 172.638266 
L 566.245637 174.324741 
L 568.743555 175.747312 
L 571.241472 176.90728 
L 573.739389 177.806244 
L 576.237306 178.44594 
L 578.735224 178.829347 
L 581.233141 178.966955 
L 583.731058 178.892844 
L 593.009036 178.090062 
L 619.772436 175.865664 
L 631.548331 175.124445 
L 644.037917 174.572795 
L 660.452802 174.087865 
L 682.934058 173.671944 
L 732.535557 173.020533 
L 775.000151 172.508884 
L 775.000151 172.508884 
" clip-path="url(#p03f7cc5269)" style="fill: none; stroke: #55a868; stroke-opacity: 0.9; stroke-width: 3; stroke-linecap: round"/>
   </g>
   <g id="line2d_22">
    <path d="M 514.859911 86.099455 
L 516.644138 90.563882 
L 523.424199 107.562413 
L 526.992652 115.847527 
L 530.561105 123.590031 
L 534.129558 130.791849 
L 537.341166 136.812599 
L 540.552774 142.39798 
L 543.764382 147.549183 
L 546.97599 152.267418 
L 549.830753 156.098933 
L 552.685515 159.590248 
L 555.540278 162.742296 
L 558.39504 165.556001 
L 561.249803 168.032326 
L 563.74772 169.923205 
L 566.245637 171.557462 
L 568.743555 172.935869 
L 571.241472 174.059687 
L 573.739389 174.930645 
L 576.237306 175.551105 
L 578.735224 175.924393 
L 581.233141 176.060037 
L 584.087903 175.970295 
L 624.054579 172.894045 
L 636.544166 172.253644 
L 652.24536 171.687146 
L 671.158162 171.220084 
L 704.701622 170.70094 
L 775.000151 169.804638 
L 775.000151 169.804638 
" clip-path="url(#p03f7cc5269)" style="fill: none; stroke: #c44e52; stroke-opacity: 0.9; stroke-width: 3; stroke-linecap: round"/>
   </g>
   <g id="line2d_23">
    <path d="M 514.859911 86.099455 
L 517.357828 92.406644 
L 523.424199 107.568274 
L 526.992652 115.841905 
L 530.561105 123.575673 
L 534.129558 130.771389 
L 537.698012 137.430769 
L 540.90962 142.966991 
L 544.121227 148.071286 
L 547.332835 152.744842 
L 550.187598 156.538475 
L 553.04236 159.993538 
L 555.897123 163.110848 
L 558.751886 165.891203 
L 561.606648 168.335387 
L 564.104565 170.198919 
L 566.602483 171.806245 
L 569.1004 173.157934 
L 571.598317 174.254535 
L 574.096234 175.096627 
L 576.594152 175.685363 
L 579.092069 176.022437 
L 581.589986 176.114238 
L 584.087903 175.989194 
L 625.838806 172.214793 
L 646.178989 170.718784 
L 666.162327 169.452335 
L 680.079295 168.840178 
L 701.490014 168.138946 
L 732.892403 167.380632 
L 775.000151 166.524199 
L 775.000151 166.524199 
" clip-path="url(#p03f7cc5269)" style="fill: none; stroke: #8172b3; stroke-opacity: 0.9; stroke-width: 3; stroke-linecap: round"/>
   </g>
   <g id="line2d_24">
    <path d="M 514.859911 86.099455 
L 517.714674 93.108447 
L 523.424199 106.945813 
L 526.992652 114.979766 
L 530.561105 122.491169 
L 534.129558 129.481812 
L 537.698012 135.953411 
L 540.90962 141.335457 
L 544.121227 146.299641 
L 547.332835 150.847162 
L 550.544443 154.979162 
L 553.399206 158.304138 
L 556.253968 161.302489 
L 559.108731 163.975001 
L 561.963494 166.322462 
L 564.461411 168.110456 
L 566.959328 169.650674 
L 569.457245 170.943614 
L 571.955163 171.989919 
L 574.45308 172.790541 
L 576.950997 173.346056 
L 579.448914 173.657915 
L 581.946832 173.732676 
L 584.801594 173.563866 
L 610.851303 171.384184 
L 630.834641 169.946442 
L 653.315896 168.576076 
L 669.373935 167.810231 
L 690.070964 167.085775 
L 721.830198 166.223503 
L 775.000151 165.09153 
L 775.000151 165.09153 
" clip-path="url(#p03f7cc5269)" style="fill: none; stroke: #937860; stroke-opacity: 0.9; stroke-width: 3; stroke-linecap: round"/>
   </g>
   <g id="patch_6">
    <path d="M 501.852899 183.612 
L 501.852899 81.456 
" style="fill: none; stroke: #ffffff; stroke-width: 1.25; stroke-linejoin: miter; stroke-linecap: square"/>
   </g>
   <g id="patch_7">
    <path d="M 501.852899 183.612 
L 788.007162 183.612 
" style="fill: none; stroke: #ffffff; stroke-width: 1.25; stroke-linejoin: miter; stroke-linecap: square"/>
   </g>
   <g id="text_5">
    <!-- 0.8~365 -->
    <g style="fill: #262626" transform="translate(590.283437 75.456) scale(0.252 -0.252)">
     <defs>
      <path id="DejaVuSans-33" d="M 2597 2516 
Q 3050 2419 3304 2112 
Q 3559 1806 3559 1356 
Q 3559 666 3084 287 
Q 2609 -91 1734 -91 
Q 1441 -91 1130 -33 
Q 819 25 488 141 
L 488 750 
Q 750 597 1062 519 
Q 1375 441 1716 441 
Q 2309 441 2620 675 
Q 2931 909 2931 1356 
Q 2931 1769 2642 2001 
Q 2353 2234 1838 2234 
L 1294 2234 
L 1294 2753 
L 1863 2753 
Q 2328 2753 2575 2939 
Q 2822 3125 2822 3475 
Q 2822 3834 2567 4026 
Q 2313 4219 1838 4219 
Q 1578 4219 1281 4162 
Q 984 4106 628 3988 
L 628 4550 
Q 988 4650 1302 4700 
Q 1616 4750 1894 4750 
Q 2613 4750 3031 4423 
Q 3450 4097 3450 3541 
Q 3450 3153 3228 2886 
Q 3006 2619 2597 2516 
z
" transform="scale(0.015625)"/>
      <path id="DejaVuSans-36" d="M 2113 2584 
Q 1688 2584 1439 2293 
Q 1191 2003 1191 1497 
Q 1191 994 1439 701 
Q 1688 409 2113 409 
Q 2538 409 2786 701 
Q 3034 994 3034 1497 
Q 3034 2003 2786 2293 
Q 2538 2584 2113 2584 
z
M 3366 4563 
L 3366 3988 
Q 3128 4100 2886 4159 
Q 2644 4219 2406 4219 
Q 1781 4219 1451 3797 
Q 1122 3375 1075 2522 
Q 1259 2794 1537 2939 
Q 1816 3084 2150 3084 
Q 2853 3084 3261 2657 
Q 3669 2231 3669 1497 
Q 3669 778 3244 343 
Q 2819 -91 2113 -91 
Q 1303 -91 875 529 
Q 447 1150 447 2328 
Q 447 3434 972 4092 
Q 1497 4750 2381 4750 
Q 2619 4750 2861 4703 
Q 3103 4656 3366 4563 
z
" transform="scale(0.015625)"/>
     </defs>
     <use xlink:href="#DejaVuSans-30"/>
     <use xlink:href="#DejaVuSans-2e" x="63.623047"/>
     <use xlink:href="#DejaVuSans-38" x="95.410156"/>
     <use xlink:href="#DejaVuSans-7e" x="159.033203"/>
     <use xlink:href="#DejaVuSans-33" x="242.822266"/>
     <use xlink:href="#DejaVuSans-36" x="306.445312"/>
     <use xlink:href="#DejaVuSans-35" x="370.068359"/>
    </g>
   </g>
  </g>
  <g id="axes_3">
   <g id="patch_8">
    <path d="M 814.45531 183.612 
L 1100.609573 183.612 
L 1100.609573 81.456 
L 814.45531 81.456 
z
" style="fill: #eaeaf2"/>
   </g>
   <g id="matplotlib.axis_5">
    <g id="xtick_9">
     <g id="line2d_25">
      <path d="M 827.462322 183.612 
L 827.462322 81.456 
" clip-path="url(#p6069612214)" style="fill: none; stroke: #ffffff; stroke-linecap: round"/>
     </g>
     <g id="text_6">
      <!-- 0 -->
      <g style="fill: #262626" transform="translate(820.113635 210.664391) scale(0.231 -0.231)">
       <use xlink:href="#DejaVuSans-30"/>
      </g>
     </g>
    </g>
    <g id="xtick_10">
     <g id="line2d_26">
      <path d="M 916.673652 183.612 
L 916.673652 81.456 
" clip-path="url(#p6069612214)" style="fill: none; stroke: #ffffff; stroke-linecap: round"/>
     </g>
     <g id="text_7">
      <!-- 250 -->
      <g style="fill: #262626" transform="translate(894.62759 210.664391) scale(0.231 -0.231)">
       <defs>
        <path id="DejaVuSans-32" d="M 1228 531 
L 3431 531 
L 3431 0 
L 469 0 
L 469 531 
Q 828 903 1448 1529 
Q 2069 2156 2228 2338 
Q 2531 2678 2651 2914 
Q 2772 3150 2772 3378 
Q 2772 3750 2511 3984 
Q 2250 4219 1831 4219 
Q 1534 4219 1204 4116 
Q 875 4013 500 3803 
L 500 4441 
Q 881 4594 1212 4672 
Q 1544 4750 1819 4750 
Q 2544 4750 2975 4387 
Q 3406 4025 3406 3419 
Q 3406 3131 3298 2873 
Q 3191 2616 2906 2266 
Q 2828 2175 2409 1742 
Q 1991 1309 1228 531 
z
" transform="scale(0.015625)"/>
       </defs>
       <use xlink:href="#DejaVuSans-32"/>
       <use xlink:href="#DejaVuSans-35" x="63.623047"/>
       <use xlink:href="#DejaVuSans-30" x="127.246094"/>
      </g>
     </g>
    </g>
    <g id="xtick_11">
     <g id="line2d_27">
      <path d="M 1005.884983 183.612 
L 1005.884983 81.456 
" clip-path="url(#p6069612214)" style="fill: none; stroke: #ffffff; stroke-linecap: round"/>
     </g>
     <g id="text_8">
      <!-- 500 -->
      <g style="fill: #262626" transform="translate(983.83892 210.664391) scale(0.231 -0.231)">
       <use xlink:href="#DejaVuSans-35"/>
       <use xlink:href="#DejaVuSans-30" x="63.623047"/>
       <use xlink:href="#DejaVuSans-30" x="127.246094"/>
      </g>
     </g>
    </g>
    <g id="xtick_12">
     <g id="line2d_28">
      <path d="M 1095.096313 183.612 
L 1095.096313 81.456 
" clip-path="url(#p6069612214)" style="fill: none; stroke: #ffffff; stroke-linecap: round"/>
     </g>
     <g id="text_9">
      <!-- 750 -->
      <g style="fill: #262626" transform="translate(1073.050251 210.664391) scale(0.231 -0.231)">
       <defs>
        <path id="DejaVuSans-37" d="M 525 4666 
L 3525 4666 
L 3525 4397 
L 1831 0 
L 1172 0 
L 2766 4134 
L 525 4134 
L 525 4666 
z
" transform="scale(0.015625)"/>
       </defs>
       <use xlink:href="#DejaVuSans-37"/>
       <use xlink:href="#DejaVuSans-35" x="63.623047"/>
       <use xlink:href="#DejaVuSans-30" x="127.246094"/>
      </g>
     </g>
    </g>
    <g id="text_10">
     <!-- step -->
     <g style="fill: #262626" transform="translate(930.277067 238.616531) scale(0.252 -0.252)">
      <defs>
       <path id="DejaVuSans-73" d="M 2834 3397 
L 2834 2853 
Q 2591 2978 2328 3040 
Q 2066 3103 1784 3103 
Q 1356 3103 1142 2972 
Q 928 2841 928 2578 
Q 928 2378 1081 2264 
Q 1234 2150 1697 2047 
L 1894 2003 
Q 2506 1872 2764 1633 
Q 3022 1394 3022 966 
Q 3022 478 2636 193 
Q 2250 -91 1575 -91 
Q 1294 -91 989 -36 
Q 684 19 347 128 
L 347 722 
Q 666 556 975 473 
Q 1284 391 1588 391 
Q 1994 391 2212 530 
Q 2431 669 2431 922 
Q 2431 1156 2273 1281 
Q 2116 1406 1581 1522 
L 1381 1569 
Q 847 1681 609 1914 
Q 372 2147 372 2553 
Q 372 3047 722 3315 
Q 1072 3584 1716 3584 
Q 2034 3584 2315 3537 
Q 2597 3491 2834 3397 
z
" transform="scale(0.015625)"/>
       <path id="DejaVuSans-74" d="M 1172 4494 
L 1172 3500 
L 2356 3500 
L 2356 3053 
L 1172 3053 
L 1172 1153 
Q 1172 725 1289 603 
Q 1406 481 1766 481 
L 2356 481 
L 2356 0 
L 1766 0 
Q 1100 0 847 248 
Q 594 497 594 1153 
L 594 3053 
L 172 3053 
L 172 3500 
L 594 3500 
L 594 4494 
L 1172 4494 
z
" transform="scale(0.015625)"/>
       <path id="DejaVuSans-70" d="M 1159 525 
L 1159 -1331 
L 581 -1331 
L 581 3500 
L 1159 3500 
L 1159 2969 
Q 1341 3281 1617 3432 
Q 1894 3584 2278 3584 
Q 2916 3584 3314 3078 
Q 3713 2572 3713 1747 
Q 3713 922 3314 415 
Q 2916 -91 2278 -91 
Q 1894 -91 1617 61 
Q 1341 213 1159 525 
z
M 3116 1747 
Q 3116 2381 2855 2742 
Q 2594 3103 2138 3103 
Q 1681 3103 1420 2742 
Q 1159 2381 1159 1747 
Q 1159 1113 1420 752 
Q 1681 391 2138 391 
Q 2594 391 2855 752 
Q 3116 1113 3116 1747 
z
" transform="scale(0.015625)"/>
      </defs>
      <use xlink:href="#DejaVuSans-73"/>
      <use xlink:href="#DejaVuSans-74" x="52.099609"/>
      <use xlink:href="#DejaVuSans-65" x="91.308594"/>
      <use xlink:href="#DejaVuSans-70" x="152.832031"/>
     </g>
    </g>
   </g>
   <g id="matplotlib.axis_6">
    <g id="ytick_5">
     <g id="line2d_29">
      <path d="M 814.45531 141.56593 
L 1100.609573 141.56593 
" clip-path="url(#p6069612214)" style="fill: none; stroke: #ffffff; stroke-linecap: round"/>
     </g>
    </g>
    <g id="ytick_6">
     <g id="line2d_30">
      <path d="M 814.45531 86.099455 
L 1100.609573 86.099455 
" clip-path="url(#p6069612214)" style="fill: none; stroke: #ffffff; stroke-linecap: round"/>
     </g>
    </g>
   </g>
   <g id="PolyCollection_13"/>
   <g id="PolyCollection_14"/>
   <g id="PolyCollection_15"/>
   <g id="PolyCollection_16"/>
   <g id="PolyCollection_17"/>
   <g id="PolyCollection_18"/>
   <g id="line2d_31">
    <path d="M 827.462322 86.099455 
L 830.67393 93.857924 
L 835.312919 104.811036 
L 838.524527 111.830735 
L 841.736135 118.351143 
L 844.947743 124.378731 
L 848.159351 129.920582 
L 851.370959 134.983911 
L 854.225721 139.088145 
L 857.080484 142.823292 
L 859.935246 146.193325 
L 862.790009 149.205065 
L 865.644771 151.871692 
L 868.142689 153.925139 
L 870.640606 155.721228 
L 873.138523 157.265512 
L 875.63644 158.560231 
L 878.134358 159.607469 
L 880.632275 160.409289 
L 883.130192 160.967741 
L 885.628109 161.28594 
L 888.482872 161.40643 
L 891.337635 161.30869 
L 894.192397 160.999679 
L 897.404005 160.412271 
L 907.752519 158.33984 
L 914.53258 157.252312 
L 922.740023 156.178394 
L 933.445383 155.014273 
L 946.291814 153.849448 
L 962.706699 152.583184 
L 984.117418 151.215682 
L 1042.283206 147.777308 
L 1087.602561 145.124055 
L 1087.602561 145.124055 
" clip-path="url(#p6069612214)" style="fill: none; stroke: #4c72b0; stroke-opacity: 0.9; stroke-width: 3; stroke-linecap: round"/>
   </g>
   <g id="line2d_32">
    <path d="M 827.462322 86.099455 
L 829.960239 92.030883 
L 835.312919 104.597207 
L 838.881372 112.327673 
L 842.09298 118.7803 
L 845.304588 124.760362 
L 848.516196 130.272808 
L 851.727804 135.322244 
L 854.582566 139.425838 
L 857.437329 143.171831 
L 860.292092 146.563828 
L 863.146854 149.605484 
L 866.001617 152.301302 
L 868.499534 154.379233 
L 870.997451 156.202108 
L 873.495369 157.777714 
L 875.993286 159.111535 
L 878.491203 160.207523 
L 880.98912 161.067638 
L 883.487038 161.693399 
L 885.984955 162.086616 
L 888.839717 162.285864 
L 891.69448 162.262139 
L 894.549242 162.021702 
L 897.76085 161.50468 
L 913.105199 158.787337 
L 921.669487 157.550278 
L 932.374847 156.257826 
L 941.652825 155.351455 
L 961.279318 153.669321 
L 984.474264 151.892602 
L 1022.299868 149.289756 
L 1087.602561 144.899112 
L 1087.602561 144.899112 
" clip-path="url(#p6069612214)" style="fill: none; stroke: #dd8452; stroke-opacity: 0.9; stroke-width: 3; stroke-linecap: round"/>
   </g>
   <g id="line2d_33">
    <path d="M 827.462322 86.099455 
L 829.603394 91.634569 
L 834.956074 105.343934 
L 838.167682 112.956015 
L 841.37929 120.025717 
L 844.590897 126.561428 
L 847.802505 132.570898 
L 850.657268 137.476354 
L 853.512031 141.976104 
L 856.366793 146.074405 
L 859.221556 149.776307 
L 862.076318 153.086665 
L 864.574235 155.666773 
L 867.072153 157.955087 
L 869.57007 159.955193 
L 872.067987 161.671368 
L 874.565904 163.108903 
L 877.063822 164.275401 
L 879.561739 165.178721 
L 882.059656 165.823624 
L 884.557573 166.213225 
L 887.055491 166.370754 
L 889.553408 166.323502 
L 892.408171 166.037703 
L 895.262933 165.527217 
L 909.536746 162.531815 
L 916.673652 161.386855 
L 924.52425 160.353492 
L 932.374847 159.541019 
L 942.723361 158.715405 
L 956.997174 157.813938 
L 981.619501 156.511608 
L 1054.059101 152.997926 
L 1087.602561 151.374531 
L 1087.602561 151.374531 
" clip-path="url(#p6069612214)" style="fill: none; stroke: #55a868; stroke-opacity: 0.9; stroke-width: 3; stroke-linecap: round"/>
   </g>
   <g id="line2d_34">
    <path d="M 827.462322 86.099455 
L 829.603394 91.457 
L 834.956074 104.731618 
L 838.167682 112.104761 
L 841.37929 118.953772 
L 844.590897 125.285942 
L 847.802505 131.107848 
L 850.657268 135.8595 
L 853.512031 140.217269 
L 856.366793 144.1856 
L 859.221556 147.769347 
L 862.076318 150.974149 
L 864.574235 153.471961 
L 867.072153 155.687861 
L 869.57007 157.625622 
L 872.067987 159.289817 
L 874.565904 160.685313 
L 877.063822 161.818854 
L 879.561739 162.69751 
L 882.059656 163.327377 
L 884.557573 163.71189 
L 887.055491 163.873879 
L 889.910253 163.819979 
L 892.765016 163.528787 
L 895.976624 162.958386 
L 906.325138 160.900826 
L 914.175735 159.639928 
L 922.740023 158.492352 
L 930.947465 157.605701 
L 940.939134 156.779368 
L 955.212947 155.841872 
L 978.764738 154.545636 
L 1051.204339 150.880543 
L 1087.602561 149.038821 
L 1087.602561 149.038821 
" clip-path="url(#p6069612214)" style="fill: none; stroke: #c44e52; stroke-opacity: 0.9; stroke-width: 3; stroke-linecap: round"/>
   </g>
   <g id="line2d_35">
    <path d="M 827.462322 86.099455 
L 830.317085 93.282986 
L 835.312919 105.587392 
L 838.524527 112.896186 
L 841.736135 119.686809 
L 844.947743 125.966044 
L 848.159351 131.740293 
L 851.014113 136.454006 
L 853.868876 140.777862 
L 856.723638 144.716038 
L 859.578401 148.27279 
L 862.433164 151.452169 
L 864.931081 153.927565 
L 867.428998 156.119984 
L 869.926915 158.032744 
L 872.424833 159.668242 
L 874.92275 161.029237 
L 877.420667 162.122734 
L 879.918584 162.95244 
L 882.416502 163.520358 
L 884.914419 163.830512 
L 887.412336 163.908642 
L 889.910253 163.783589 
L 892.765016 163.416877 
L 895.976624 162.75842 
L 921.669487 156.569262 
L 928.449548 155.318603 
L 935.9433 154.180822 
L 945.934969 152.903386 
L 956.283483 151.805534 
L 970.200451 150.572024 
L 986.25849 149.401772 
L 1018.374569 147.324931 
L 1087.602561 143.039238 
L 1087.602561 143.039238 
" clip-path="url(#p6069612214)" style="fill: none; stroke: #8172b3; stroke-opacity: 0.9; stroke-width: 3; stroke-linecap: round"/>
   </g>
   <g id="line2d_36">
    <path d="M 827.462322 86.099455 
L 830.67393 93.951535 
L 835.312919 105.033363 
L 838.524527 112.141034 
L 841.736135 118.750555 
L 844.947743 124.868516 
L 848.159351 130.501279 
L 851.370959 135.654856 
L 854.225721 139.838122 
L 857.080484 143.651137 
L 859.935246 147.097987 
L 862.790009 150.183482 
L 865.644771 152.911428 
L 868.142689 155.007898 
L 870.640606 156.835688 
L 873.138523 158.397081 
L 875.63644 159.696874 
L 878.134358 160.73931 
L 880.632275 161.526949 
L 883.130192 162.062311 
L 885.628109 162.350585 
L 888.126027 162.41548 
L 890.980789 162.262387 
L 893.835552 161.89958 
L 897.04716 161.257747 
L 910.964127 158.117279 
L 920.598951 156.152385 
L 927.735857 154.939636 
L 936.65699 153.659439 
L 947.719195 152.302369 
L 960.565627 150.946627 
L 975.909976 149.63386 
L 997.320695 148.059305 
L 1044.781123 144.845136 
L 1087.602561 141.99865 
L 1087.602561 141.99865 
" clip-path="url(#p6069612214)" style="fill: none; stroke: #937860; stroke-opacity: 0.9; stroke-width: 3; stroke-linecap: round"/>
   </g>
   <g id="patch_9">
    <path d="M 814.45531 183.612 
L 814.45531 81.456 
" style="fill: none; stroke: #ffffff; stroke-width: 1.25; stroke-linejoin: miter; stroke-linecap: square"/>
   </g>
   <g id="patch_10">
    <path d="M 814.45531 183.612 
L 1100.609573 183.612 
" style="fill: none; stroke: #ffffff; stroke-width: 1.25; stroke-linejoin: miter; stroke-linecap: square"/>
   </g>
   <g id="text_11">
    <!-- 0.85~90 -->
    <g style="fill: #262626" transform="translate(902.885848 75.456) scale(0.252 -0.252)">
     <use xlink:href="#DejaVuSans-30"/>
     <use xlink:href="#DejaVuSans-2e" x="63.623047"/>
     <use xlink:href="#DejaVuSans-38" x="95.410156"/>
     <use xlink:href="#DejaVuSans-35" x="159.033203"/>
     <use xlink:href="#DejaVuSans-7e" x="222.65625"/>
     <use xlink:href="#DejaVuSans-39" x="306.445312"/>
     <use xlink:href="#DejaVuSans-30" x="370.068359"/>
    </g>
   </g>
  </g>
  <g id="axes_4">
   <g id="patch_11">
    <path d="M 189.250488 373.284 
L 475.404752 373.284 
L 475.404752 271.128 
L 189.250488 271.128 
z
" style="fill: #eaeaf2"/>
   </g>
   <g id="matplotlib.axis_7">
    <g id="xtick_13">
     <g id="line2d_37">
      <path d="M 202.2575 373.284 
L 202.2575 271.128 
" clip-path="url(#p81c0038841)" style="fill: none; stroke: #ffffff; stroke-linecap: round"/>
     </g>
     <g id="text_12">
      <!-- 0 -->
      <g style="fill: #262626" transform="translate(194.908813 400.336391) scale(0.231 -0.231)">
       <use xlink:href="#DejaVuSans-30"/>
      </g>
     </g>
    </g>
    <g id="xtick_14">
     <g id="line2d_38">
      <path d="M 291.468831 373.284 
L 291.468831 271.128 
" clip-path="url(#p81c0038841)" style="fill: none; stroke: #ffffff; stroke-linecap: round"/>
     </g>
     <g id="text_13">
      <!-- 250 -->
      <g style="fill: #262626" transform="translate(269.422768 400.336391) scale(0.231 -0.231)">
       <use xlink:href="#DejaVuSans-32"/>
       <use xlink:href="#DejaVuSans-35" x="63.623047"/>
       <use xlink:href="#DejaVuSans-30" x="127.246094"/>
      </g>
     </g>
    </g>
    <g id="xtick_15">
     <g id="line2d_39">
      <path d="M 380.680161 373.284 
L 380.680161 271.128 
" clip-path="url(#p81c0038841)" style="fill: none; stroke: #ffffff; stroke-linecap: round"/>
     </g>
     <g id="text_14">
      <!-- 500 -->
      <g style="fill: #262626" transform="translate(358.634098 400.336391) scale(0.231 -0.231)">
       <use xlink:href="#DejaVuSans-35"/>
       <use xlink:href="#DejaVuSans-30" x="63.623047"/>
       <use xlink:href="#DejaVuSans-30" x="127.246094"/>
      </g>
     </g>
    </g>
    <g id="xtick_16">
     <g id="line2d_40">
      <path d="M 469.891491 373.284 
L 469.891491 271.128 
" clip-path="url(#p81c0038841)" style="fill: none; stroke: #ffffff; stroke-linecap: round"/>
     </g>
     <g id="text_15">
      <!-- 750 -->
      <g style="fill: #262626" transform="translate(447.845429 400.336391) scale(0.231 -0.231)">
       <use xlink:href="#DejaVuSans-37"/>
       <use xlink:href="#DejaVuSans-35" x="63.623047"/>
       <use xlink:href="#DejaVuSans-30" x="127.246094"/>
      </g>
     </g>
    </g>
    <g id="text_16">
     <!-- step -->
     <g style="fill: #262626" transform="translate(305.072245 428.288531) scale(0.252 -0.252)">
      <use xlink:href="#DejaVuSans-73"/>
      <use xlink:href="#DejaVuSans-74" x="52.099609"/>
      <use xlink:href="#DejaVuSans-65" x="91.308594"/>
      <use xlink:href="#DejaVuSans-70" x="152.832031"/>
     </g>
    </g>
   </g>
   <g id="matplotlib.axis_8">
    <g id="ytick_7">
     <g id="line2d_41">
      <path d="M 189.250488 331.23793 
L 475.404752 331.23793 
" clip-path="url(#p81c0038841)" style="fill: none; stroke: #ffffff; stroke-linecap: round"/>
     </g>
     <g id="text_17">
      <!-- −0.05 -->
      <g style="fill: #262626" transform="translate(108.959816 340.014126) scale(0.231 -0.231)">
       <use xlink:href="#DejaVuSans-2212"/>
       <use xlink:href="#DejaVuSans-30" x="83.789062"/>
       <use xlink:href="#DejaVuSans-2e" x="147.412109"/>
       <use xlink:href="#DejaVuSans-30" x="179.199219"/>
       <use xlink:href="#DejaVuSans-35" x="242.822266"/>
      </g>
     </g>
    </g>
    <g id="ytick_8">
     <g id="line2d_42">
      <path d="M 189.250488 275.771455 
L 475.404752 275.771455 
" clip-path="url(#p81c0038841)" style="fill: none; stroke: #ffffff; stroke-linecap: round"/>
     </g>
     <g id="text_18">
      <!-- 0.00 -->
      <g style="fill: #262626" transform="translate(128.316894 284.54765) scale(0.231 -0.231)">
       <use xlink:href="#DejaVuSans-30"/>
       <use xlink:href="#DejaVuSans-2e" x="63.623047"/>
       <use xlink:href="#DejaVuSans-30" x="95.410156"/>
       <use xlink:href="#DejaVuSans-30" x="159.033203"/>
      </g>
     </g>
    </g>
    <g id="text_19">
     <!-- % change -->
     <g style="fill: #262626" transform="translate(99.719004 384.554344) rotate(-90) scale(0.252 -0.252)">
      <use xlink:href="#DejaVuSans-25"/>
      <use xlink:href="#DejaVuSans-20" x="95.019531"/>
      <use xlink:href="#DejaVuSans-63" x="126.806641"/>
      <use xlink:href="#DejaVuSans-68" x="181.787109"/>
      <use xlink:href="#DejaVuSans-61" x="245.166016"/>
      <use xlink:href="#DejaVuSans-6e" x="306.445312"/>
      <use xlink:href="#DejaVuSans-67" x="369.824219"/>
      <use xlink:href="#DejaVuSans-65" x="433.300781"/>
     </g>
    </g>
   </g>
   <g id="PolyCollection_19"/>
   <g id="PolyCollection_20"/>
   <g id="PolyCollection_21"/>
   <g id="PolyCollection_22"/>
   <g id="PolyCollection_23"/>
   <g id="PolyCollection_24"/>
   <g id="line2d_43">
    <path d="M 202.2575 275.771455 
L 205.112263 282.697039 
L 210.821788 296.386387 
L 214.390241 304.33503 
L 217.958694 311.76456 
L 221.527147 318.67663 
L 225.095601 325.072757 
L 228.307209 330.389401 
L 231.518816 335.290509 
L 234.730424 339.777264 
L 237.942032 343.850871 
L 240.796795 347.125993 
L 243.651557 350.076525 
L 246.50632 352.703715 
L 249.361083 355.008666 
L 251.859 356.762035 
L 254.356917 358.270459 
L 256.854834 359.534549 
L 259.352752 360.554917 
L 261.850669 361.334964 
L 264.348586 361.879881 
L 266.846503 362.192585 
L 269.344421 362.276809 
L 272.199183 362.137338 
L 300.033118 360.191281 
L 325.012291 358.632875 
L 337.145032 358.121933 
L 356.057834 357.578172 
L 385.31915 356.967861 
L 442.771247 356.014231 
L 462.39774 355.710124 
L 462.39774 355.710124 
" clip-path="url(#p81c0038841)" style="fill: none; stroke: #4c72b0; stroke-opacity: 0.9; stroke-width: 3; stroke-linecap: round"/>
   </g>
   <g id="line2d_44">
    <path d="M 202.2575 275.771455 
L 204.398572 280.860231 
L 210.821788 296.117134 
L 214.390241 303.98707 
L 217.958694 311.348664 
L 221.527147 318.203346 
L 225.095601 324.55235 
L 228.307209 329.835147 
L 231.518816 334.710405 
L 234.730424 339.179174 
L 237.942032 343.242514 
L 240.796795 346.514874 
L 243.651557 349.468492 
L 246.50632 352.104129 
L 249.361083 354.42256 
L 252.215845 356.424536 
L 254.713762 357.917255 
L 257.21168 359.16876 
L 259.709597 360.179775 
L 262.207514 360.951414 
L 264.705431 361.485919 
L 267.203349 361.792129 
L 269.701266 361.87718 
L 272.556028 361.746146 
L 300.033118 360.05414 
L 333.576578 358.188051 
L 348.920927 357.634846 
L 376.041172 356.98561 
L 434.92065 355.845785 
L 462.39774 355.351525 
L 462.39774 355.351525 
" clip-path="url(#p81c0038841)" style="fill: none; stroke: #dd8452; stroke-opacity: 0.9; stroke-width: 3; stroke-linecap: round"/>
   </g>
   <g id="line2d_45">
    <path d="M 202.2575 275.771455 
L 204.041727 280.384102 
L 210.821788 297.940529 
L 214.390241 306.494972 
L 217.958694 314.487955 
L 221.527147 321.921681 
L 224.738755 328.135805 
L 227.950363 333.900631 
L 231.161971 339.217425 
L 234.373579 344.087351 
L 237.228342 348.04207 
L 240.083104 351.645658 
L 242.937867 354.899022 
L 245.792629 357.80305 
L 248.647392 360.358812 
L 251.145309 362.310266 
L 253.643226 363.996741 
L 256.141144 365.419312 
L 258.639061 366.57928 
L 261.136978 367.478244 
L 263.634895 368.11794 
L 266.132813 368.501347 
L 268.63073 368.638955 
L 271.128647 368.564844 
L 280.406626 367.762062 
L 307.170025 365.537664 
L 318.94592 364.796445 
L 331.435507 364.244795 
L 347.850391 363.759865 
L 370.331647 363.343944 
L 419.933146 362.692533 
L 462.39774 362.180884 
L 462.39774 362.180884 
" clip-path="url(#p81c0038841)" style="fill: none; stroke: #55a868; stroke-opacity: 0.9; stroke-width: 3; stroke-linecap: round"/>
   </g>
   <g id="line2d_46">
    <path d="M 202.2575 275.771455 
L 204.041727 280.235882 
L 210.821788 297.234413 
L 214.390241 305.519527 
L 217.958694 313.262031 
L 221.527147 320.463849 
L 224.738755 326.484599 
L 227.950363 332.06998 
L 231.161971 337.221183 
L 234.373579 341.939418 
L 237.228342 345.770933 
L 240.083104 349.262248 
L 242.937867 352.414296 
L 245.792629 355.228001 
L 248.647392 357.704326 
L 251.145309 359.595205 
L 253.643226 361.229462 
L 256.141144 362.607869 
L 258.639061 363.731687 
L 261.136978 364.602645 
L 263.634895 365.223105 
L 266.132813 365.596393 
L 268.63073 365.732037 
L 271.485493 365.642295 
L 311.452169 362.566045 
L 323.941755 361.925644 
L 339.642949 361.359146 
L 358.555751 360.892084 
L 392.099211 360.37294 
L 462.39774 359.476638 
L 462.39774 359.476638 
" clip-path="url(#p81c0038841)" style="fill: none; stroke: #c44e52; stroke-opacity: 0.9; stroke-width: 3; stroke-linecap: round"/>
   </g>
   <g id="line2d_47">
    <path d="M 202.2575 275.771455 
L 204.755417 282.078644 
L 210.821788 297.240274 
L 214.390241 305.513905 
L 217.958694 313.247673 
L 221.527147 320.443389 
L 225.095601 327.102769 
L 228.307209 332.638991 
L 231.518816 337.743286 
L 234.730424 342.416842 
L 237.585187 346.210475 
L 240.43995 349.665538 
L 243.294712 352.782848 
L 246.149475 355.563203 
L 249.004237 358.007387 
L 251.502154 359.870919 
L 254.000072 361.478245 
L 256.497989 362.829934 
L 258.995906 363.926535 
L 261.493823 364.768627 
L 263.991741 365.357363 
L 266.489658 365.694437 
L 268.987575 365.786238 
L 271.485493 365.661194 
L 313.236395 361.886793 
L 333.576578 360.390784 
L 353.559916 359.124335 
L 367.476884 358.512178 
L 388.887603 357.810946 
L 420.289992 357.052632 
L 462.39774 356.196199 
L 462.39774 356.196199 
" clip-path="url(#p81c0038841)" style="fill: none; stroke: #8172b3; stroke-opacity: 0.9; stroke-width: 3; stroke-linecap: round"/>
   </g>
   <g id="line2d_48">
    <path d="M 202.2575 275.771455 
L 205.112263 282.780447 
L 210.821788 296.617813 
L 214.390241 304.651766 
L 217.958694 312.163169 
L 221.527147 319.153812 
L 225.095601 325.625411 
L 228.307209 331.007457 
L 231.518816 335.971641 
L 234.730424 340.519162 
L 237.942032 344.651162 
L 240.796795 347.976138 
L 243.651557 350.974489 
L 246.50632 353.647001 
L 249.361083 355.994462 
L 251.859 357.782456 
L 254.356917 359.322674 
L 256.854834 360.615614 
L 259.352752 361.661919 
L 261.850669 362.462541 
L 264.348586 363.018056 
L 266.846503 363.329915 
L 269.344421 363.404676 
L 272.199183 363.235866 
L 298.248892 361.056184 
L 318.23223 359.618442 
L 340.713485 358.248076 
L 356.771524 357.482231 
L 377.468553 356.757775 
L 409.227787 355.895503 
L 462.39774 354.76353 
L 462.39774 354.76353 
" clip-path="url(#p81c0038841)" style="fill: none; stroke: #937860; stroke-opacity: 0.9; stroke-width: 3; stroke-linecap: round"/>
   </g>
   <g id="patch_12">
    <path d="M 189.250488 373.284 
L 189.250488 271.128 
" style="fill: none; stroke: #ffffff; stroke-width: 1.25; stroke-linejoin: miter; stroke-linecap: square"/>
   </g>
   <g id="patch_13">
    <path d="M 189.250488 373.284 
L 475.404752 373.284 
" style="fill: none; stroke: #ffffff; stroke-width: 1.25; stroke-linejoin: miter; stroke-linecap: square"/>
   </g>
   <g id="text_20">
    <!-- 0.85~365 -->
    <g style="fill: #262626" transform="translate(269.664276 265.128) scale(0.252 -0.252)">
     <use xlink:href="#DejaVuSans-30"/>
     <use xlink:href="#DejaVuSans-2e" x="63.623047"/>
     <use xlink:href="#DejaVuSans-38" x="95.410156"/>
     <use xlink:href="#DejaVuSans-35" x="159.033203"/>
     <use xlink:href="#DejaVuSans-7e" x="222.65625"/>
     <use xlink:href="#DejaVuSans-33" x="306.445312"/>
     <use xlink:href="#DejaVuSans-36" x="370.068359"/>
     <use xlink:href="#DejaVuSans-35" x="433.691406"/>
    </g>
   </g>
  </g>
  <g id="axes_5">
   <g id="patch_14">
    <path d="M 501.852899 373.284 
L 788.007162 373.284 
L 788.007162 271.128 
L 501.852899 271.128 
z
" style="fill: #eaeaf2"/>
   </g>
   <g id="matplotlib.axis_9">
    <g id="xtick_17">
     <g id="line2d_49">
      <path d="M 514.859911 373.284 
L 514.859911 271.128 
" clip-path="url(#pc05ef0a932)" style="fill: none; stroke: #ffffff; stroke-linecap: round"/>
     </g>
     <g id="text_21">
      <!-- 0 -->
      <g style="fill: #262626" transform="translate(507.511224 400.336391) scale(0.231 -0.231)">
       <use xlink:href="#DejaVuSans-30"/>
      </g>
     </g>
    </g>
    <g id="xtick_18">
     <g id="line2d_50">
      <path d="M 604.071241 373.284 
L 604.071241 271.128 
" clip-path="url(#pc05ef0a932)" style="fill: none; stroke: #ffffff; stroke-linecap: round"/>
     </g>
     <g id="text_22">
      <!-- 250 -->
      <g style="fill: #262626" transform="translate(582.025179 400.336391) scale(0.231 -0.231)">
       <use xlink:href="#DejaVuSans-32"/>
       <use xlink:href="#DejaVuSans-35" x="63.623047"/>
       <use xlink:href="#DejaVuSans-30" x="127.246094"/>
      </g>
     </g>
    </g>
    <g id="xtick_19">
     <g id="line2d_51">
      <path d="M 693.282572 373.284 
L 693.282572 271.128 
" clip-path="url(#pc05ef0a932)" style="fill: none; stroke: #ffffff; stroke-linecap: round"/>
     </g>
     <g id="text_23">
      <!-- 500 -->
      <g style="fill: #262626" transform="translate(671.236509 400.336391) scale(0.231 -0.231)">
       <use xlink:href="#DejaVuSans-35"/>
       <use xlink:href="#DejaVuSans-30" x="63.623047"/>
       <use xlink:href="#DejaVuSans-30" x="127.246094"/>
      </g>
     </g>
    </g>
    <g id="xtick_20">
     <g id="line2d_52">
      <path d="M 782.493902 373.284 
L 782.493902 271.128 
" clip-path="url(#pc05ef0a932)" style="fill: none; stroke: #ffffff; stroke-linecap: round"/>
     </g>
     <g id="text_24">
      <!-- 750 -->
      <g style="fill: #262626" transform="translate(760.44784 400.336391) scale(0.231 -0.231)">
       <use xlink:href="#DejaVuSans-37"/>
       <use xlink:href="#DejaVuSans-35" x="63.623047"/>
       <use xlink:href="#DejaVuSans-30" x="127.246094"/>
      </g>
     </g>
    </g>
    <g id="text_25">
     <!-- step -->
     <g style="fill: #262626" transform="translate(617.674656 428.288531) scale(0.252 -0.252)">
      <use xlink:href="#DejaVuSans-73"/>
      <use xlink:href="#DejaVuSans-74" x="52.099609"/>
      <use xlink:href="#DejaVuSans-65" x="91.308594"/>
      <use xlink:href="#DejaVuSans-70" x="152.832031"/>
     </g>
    </g>
   </g>
   <g id="matplotlib.axis_10">
    <g id="ytick_9">
     <g id="line2d_53">
      <path d="M 501.852899 331.23793 
L 788.007162 331.23793 
" clip-path="url(#pc05ef0a932)" style="fill: none; stroke: #ffffff; stroke-linecap: round"/>
     </g>
    </g>
    <g id="ytick_10">
     <g id="line2d_54">
      <path d="M 501.852899 275.771455 
L 788.007162 275.771455 
" clip-path="url(#pc05ef0a932)" style="fill: none; stroke: #ffffff; stroke-linecap: round"/>
     </g>
    </g>
   </g>
   <g id="PolyCollection_25"/>
   <g id="PolyCollection_26"/>
   <g id="PolyCollection_27"/>
   <g id="PolyCollection_28"/>
   <g id="PolyCollection_29"/>
   <g id="PolyCollection_30"/>
   <g id="line2d_55">
    <path d="M 514.859911 275.771455 
L 518.071519 283.529924 
L 522.710508 294.483036 
L 525.922116 301.502735 
L 529.133724 308.023143 
L 532.345332 314.050731 
L 535.55694 319.592582 
L 538.768548 324.655911 
L 541.62331 328.760145 
L 544.478073 332.495292 
L 547.332835 335.865325 
L 550.187598 338.877065 
L 553.04236 341.543692 
L 555.540278 343.597139 
L 558.038195 345.393228 
L 560.536112 346.937512 
L 563.034029 348.232231 
L 565.531947 349.279469 
L 568.029864 350.081289 
L 570.527781 350.639741 
L 573.025698 350.95794 
L 575.880461 351.07843 
L 578.735224 350.98069 
L 581.589986 350.671679 
L 584.801594 350.084271 
L 595.150108 348.01184 
L 601.93017 346.924312 
L 610.137612 345.850394 
L 620.842972 344.686273 
L 633.689403 343.521448 
L 650.104288 342.255184 
L 671.515007 340.887682 
L 729.680795 337.449308 
L 775.000151 334.796055 
L 775.000151 334.796055 
" clip-path="url(#pc05ef0a932)" style="fill: none; stroke: #4c72b0; stroke-opacity: 0.9; stroke-width: 3; stroke-linecap: round"/>
   </g>
   <g id="line2d_56">
    <path d="M 514.859911 275.771455 
L 517.357828 281.702883 
L 522.710508 294.269207 
L 526.278961 301.999673 
L 529.490569 308.4523 
L 532.702177 314.432362 
L 535.913785 319.944808 
L 539.125393 324.994244 
L 541.980156 329.097838 
L 544.834918 332.843831 
L 547.689681 336.235828 
L 550.544443 339.277484 
L 553.399206 341.973302 
L 555.897123 344.051233 
L 558.39504 345.874108 
L 560.892958 347.449714 
L 563.390875 348.783535 
L 565.888792 349.879523 
L 568.386709 350.739638 
L 570.884627 351.365399 
L 573.382544 351.758616 
L 576.237306 351.957864 
L 579.092069 351.934139 
L 581.946832 351.693702 
L 585.158439 351.17668 
L 600.502788 348.459337 
L 609.067076 347.222278 
L 619.772436 345.929826 
L 629.050414 345.023455 
L 648.676907 343.341321 
L 671.871853 341.564602 
L 709.697457 338.961756 
L 775.000151 334.571112 
L 775.000151 334.571112 
" clip-path="url(#pc05ef0a932)" style="fill: none; stroke: #dd8452; stroke-opacity: 0.9; stroke-width: 3; stroke-linecap: round"/>
   </g>
   <g id="line2d_57">
    <path d="M 514.859911 275.771455 
L 517.000983 281.306569 
L 522.353663 295.015934 
L 525.565271 302.628015 
L 528.776879 309.697717 
L 531.988487 316.233428 
L 535.200094 322.242898 
L 538.054857 327.148354 
L 540.90962 331.648104 
L 543.764382 335.746405 
L 546.619145 339.448307 
L 549.473907 342.758737 
L 551.971825 345.342543 
L 554.469742 347.640948 
L 556.967659 349.663392 
L 559.465576 351.417302 
L 561.963494 352.906265 
L 564.461411 354.13415 
L 566.959328 355.111239 
L 569.457245 355.845618 
L 571.955163 356.338945 
L 574.45308 356.609859 
L 576.950997 356.677008 
L 579.80576 356.51566 
L 582.660522 356.116762 
L 587.299511 355.16252 
L 596.220644 353.387339 
L 603.357551 352.189708 
L 611.208148 351.111647 
L 619.058745 350.262771 
L 629.050414 349.43523 
L 642.610536 348.549945 
L 665.091791 347.333821 
L 721.473352 344.576638 
L 775.000151 341.979568 
L 775.000151 341.979568 
" clip-path="url(#pc05ef0a932)" style="fill: none; stroke: #55a868; stroke-opacity: 0.9; stroke-width: 3; stroke-linecap: round"/>
   </g>
   <g id="line2d_58">
    <path d="M 514.859911 275.771455 
L 517.000983 281.129 
L 522.353663 294.403618 
L 525.565271 301.776761 
L 528.776879 308.625772 
L 531.988487 314.957942 
L 535.200094 320.779848 
L 538.054857 325.5315 
L 540.90962 329.889269 
L 543.764382 333.857851 
L 546.619145 337.448995 
L 549.473907 340.673435 
L 552.32867 343.53499 
L 554.826587 345.743628 
L 557.324504 347.685863 
L 559.822422 349.369514 
L 562.320339 350.797416 
L 564.818256 351.972272 
L 567.316173 352.904074 
L 569.814091 353.600305 
L 572.312008 354.063434 
L 574.809925 354.315513 
L 577.307842 354.370577 
L 580.162605 354.202016 
L 583.017367 353.811882 
L 589.083738 352.664061 
L 598.718562 350.956106 
L 606.926004 349.746254 
L 615.490292 348.711224 
L 624.054579 347.914641 
L 636.18732 347.029106 
L 654.743277 345.924772 
L 693.639417 343.888073 
L 775.000151 339.717729 
L 775.000151 339.717729 
" clip-path="url(#pc05ef0a932)" style="fill: none; stroke: #c44e52; stroke-opacity: 0.9; stroke-width: 3; stroke-linecap: round"/>
   </g>
   <g id="line2d_59">
    <path d="M 514.859911 275.771455 
L 517.714674 282.954986 
L 522.710508 295.259392 
L 525.922116 302.568186 
L 529.133724 309.358809 
L 532.345332 315.638044 
L 535.55694 321.412293 
L 538.411702 326.126006 
L 541.266465 330.449862 
L 544.121227 334.388038 
L 546.97599 337.94479 
L 549.830753 341.124169 
L 552.32867 343.599565 
L 554.826587 345.791984 
L 557.324504 347.704744 
L 559.822422 349.340242 
L 562.320339 350.701237 
L 564.818256 351.794734 
L 567.316173 352.62444 
L 569.814091 353.192358 
L 572.312008 353.502512 
L 574.809925 353.580642 
L 577.307842 353.455589 
L 580.162605 353.088877 
L 583.374213 352.43042 
L 609.067076 346.241262 
L 615.847137 344.990603 
L 623.340889 343.852822 
L 633.332558 342.575386 
L 643.681072 341.477534 
L 657.59804 340.244024 
L 673.656079 339.073772 
L 705.772158 336.996931 
L 775.000151 332.711238 
L 775.000151 332.711238 
" clip-path="url(#pc05ef0a932)" style="fill: none; stroke: #8172b3; stroke-opacity: 0.9; stroke-width: 3; stroke-linecap: round"/>
   </g>
   <g id="line2d_60">
    <path d="M 514.859911 275.771455 
L 518.071519 283.623535 
L 522.710508 294.705363 
L 525.922116 301.813034 
L 529.133724 308.422555 
L 532.345332 314.540516 
L 535.55694 320.173279 
L 538.768548 325.326856 
L 541.62331 329.510122 
L 544.478073 333.323137 
L 547.332835 336.769987 
L 550.187598 339.855482 
L 553.04236 342.583428 
L 555.540278 344.679898 
L 558.038195 346.507688 
L 560.536112 348.069081 
L 563.034029 349.368874 
L 565.531947 350.41131 
L 568.029864 351.198949 
L 570.527781 351.734311 
L 573.025698 352.022585 
L 575.523616 352.08748 
L 578.378378 351.934387 
L 581.233141 351.57158 
L 584.444749 350.929747 
L 598.361716 347.789279 
L 607.99654 345.824385 
L 615.133446 344.611636 
L 624.054579 343.331439 
L 635.116784 341.974369 
L 647.963216 340.618627 
L 663.307565 339.30586 
L 684.718284 337.731305 
L 732.178712 334.517136 
L 775.000151 331.67065 
L 775.000151 331.67065 
" clip-path="url(#pc05ef0a932)" style="fill: none; stroke: #937860; stroke-opacity: 0.9; stroke-width: 3; stroke-linecap: round"/>
   </g>
   <g id="patch_15">
    <path d="M 501.852899 373.284 
L 501.852899 271.128 
" style="fill: none; stroke: #ffffff; stroke-width: 1.25; stroke-linejoin: miter; stroke-linecap: square"/>
   </g>
   <g id="patch_16">
    <path d="M 501.852899 373.284 
L 788.007162 373.284 
" style="fill: none; stroke: #ffffff; stroke-width: 1.25; stroke-linejoin: miter; stroke-linecap: square"/>
   </g>
   <g id="text_26">
    <!-- 0.95~90 -->
    <g style="fill: #262626" transform="translate(590.283437 265.128) scale(0.252 -0.252)">
     <use xlink:href="#DejaVuSans-30"/>
     <use xlink:href="#DejaVuSans-2e" x="63.623047"/>
     <use xlink:href="#DejaVuSans-39" x="95.410156"/>
     <use xlink:href="#DejaVuSans-35" x="159.033203"/>
     <use xlink:href="#DejaVuSans-7e" x="222.65625"/>
     <use xlink:href="#DejaVuSans-39" x="306.445312"/>
     <use xlink:href="#DejaVuSans-30" x="370.068359"/>
    </g>
   </g>
  </g>
  <g id="text_27">
   <!-- Production change from pre-shock level -->
   <g style="fill: #262626" transform="translate(280.766836 30.177675) scale(0.3024 -0.3024)">
    <defs>
     <path id="DejaVuSans-50" d="M 1259 4147 
L 1259 2394 
L 2053 2394 
Q 2494 2394 2734 2622 
Q 2975 2850 2975 3272 
Q 2975 3691 2734 3919 
Q 2494 4147 2053 4147 
L 1259 4147 
z
M 628 4666 
L 2053 4666 
Q 2838 4666 3239 4311 
Q 3641 3956 3641 3272 
Q 3641 2581 3239 2228 
Q 2838 1875 2053 1875 
L 1259 1875 
L 1259 0 
L 628 0 
L 628 4666 
z
" transform="scale(0.015625)"/>
     <path id="DejaVuSans-72" d="M 2631 2963 
Q 2534 3019 2420 3045 
Q 2306 3072 2169 3072 
Q 1681 3072 1420 2755 
Q 1159 2438 1159 1844 
L 1159 0 
L 581 0 
L 581 3500 
L 1159 3500 
L 1159 2956 
Q 1341 3275 1631 3429 
Q 1922 3584 2338 3584 
Q 2397 3584 2469 3576 
Q 2541 3569 2628 3553 
L 2631 2963 
z
" transform="scale(0.015625)"/>
     <path id="DejaVuSans-6f" d="M 1959 3097 
Q 1497 3097 1228 2736 
Q 959 2375 959 1747 
Q 959 1119 1226 758 
Q 1494 397 1959 397 
Q 2419 397 2687 759 
Q 2956 1122 2956 1747 
Q 2956 2369 2687 2733 
Q 2419 3097 1959 3097 
z
M 1959 3584 
Q 2709 3584 3137 3096 
Q 3566 2609 3566 1747 
Q 3566 888 3137 398 
Q 2709 -91 1959 -91 
Q 1206 -91 779 398 
Q 353 888 353 1747 
Q 353 2609 779 3096 
Q 1206 3584 1959 3584 
z
" transform="scale(0.015625)"/>
     <path id="DejaVuSans-64" d="M 2906 2969 
L 2906 4863 
L 3481 4863 
L 3481 0 
L 2906 0 
L 2906 525 
Q 2725 213 2448 61 
Q 2172 -91 1784 -91 
Q 1150 -91 751 415 
Q 353 922 353 1747 
Q 353 2572 751 3078 
Q 1150 3584 1784 3584 
Q 2172 3584 2448 3432 
Q 2725 3281 2906 2969 
z
M 947 1747 
Q 947 1113 1208 752 
Q 1469 391 1925 391 
Q 2381 391 2643 752 
Q 2906 1113 2906 1747 
Q 2906 2381 2643 2742 
Q 2381 3103 1925 3103 
Q 1469 3103 1208 2742 
Q 947 2381 947 1747 
z
" transform="scale(0.015625)"/>
     <path id="DejaVuSans-75" d="M 544 1381 
L 544 3500 
L 1119 3500 
L 1119 1403 
Q 1119 906 1312 657 
Q 1506 409 1894 409 
Q 2359 409 2629 706 
Q 2900 1003 2900 1516 
L 2900 3500 
L 3475 3500 
L 3475 0 
L 2900 0 
L 2900 538 
Q 2691 219 2414 64 
Q 2138 -91 1772 -91 
Q 1169 -91 856 284 
Q 544 659 544 1381 
z
M 1991 3584 
L 1991 3584 
z
" transform="scale(0.015625)"/>
     <path id="DejaVuSans-69" d="M 603 3500 
L 1178 3500 
L 1178 0 
L 603 0 
L 603 3500 
z
M 603 4863 
L 1178 4863 
L 1178 4134 
L 603 4134 
L 603 4863 
z
" transform="scale(0.015625)"/>
     <path id="DejaVuSans-66" d="M 2375 4863 
L 2375 4384 
L 1825 4384 
Q 1516 4384 1395 4259 
Q 1275 4134 1275 3809 
L 1275 3500 
L 2222 3500 
L 2222 3053 
L 1275 3053 
L 1275 0 
L 697 0 
L 697 3053 
L 147 3053 
L 147 3500 
L 697 3500 
L 697 3744 
Q 697 4328 969 4595 
Q 1241 4863 1831 4863 
L 2375 4863 
z
" transform="scale(0.015625)"/>
     <path id="DejaVuSans-6d" d="M 3328 2828 
Q 3544 3216 3844 3400 
Q 4144 3584 4550 3584 
Q 5097 3584 5394 3201 
Q 5691 2819 5691 2113 
L 5691 0 
L 5113 0 
L 5113 2094 
Q 5113 2597 4934 2840 
Q 4756 3084 4391 3084 
Q 3944 3084 3684 2787 
Q 3425 2491 3425 1978 
L 3425 0 
L 2847 0 
L 2847 2094 
Q 2847 2600 2669 2842 
Q 2491 3084 2119 3084 
Q 1678 3084 1418 2786 
Q 1159 2488 1159 1978 
L 1159 0 
L 581 0 
L 581 3500 
L 1159 3500 
L 1159 2956 
Q 1356 3278 1631 3431 
Q 1906 3584 2284 3584 
Q 2666 3584 2933 3390 
Q 3200 3197 3328 2828 
z
" transform="scale(0.015625)"/>
     <path id="DejaVuSans-2d" d="M 313 2009 
L 1997 2009 
L 1997 1497 
L 313 1497 
L 313 2009 
z
" transform="scale(0.015625)"/>
     <path id="DejaVuSans-6b" d="M 581 4863 
L 1159 4863 
L 1159 1991 
L 2875 3500 
L 3609 3500 
L 1753 1863 
L 3688 0 
L 2938 0 
L 1159 1709 
L 1159 0 
L 581 0 
L 581 4863 
z
" transform="scale(0.015625)"/>
     <path id="DejaVuSans-6c" d="M 603 4863 
L 1178 4863 
L 1178 0 
L 603 0 
L 603 4863 
z
" transform="scale(0.015625)"/>
     <path id="DejaVuSans-76" d="M 191 3500 
L 800 3500 
L 1894 563 
L 2988 3500 
L 3597 3500 
L 2284 0 
L 1503 0 
L 191 3500 
z
" transform="scale(0.015625)"/>
    </defs>
    <use xlink:href="#DejaVuSans-50"/>
    <use xlink:href="#DejaVuSans-72" x="58.552734"/>
    <use xlink:href="#DejaVuSans-6f" x="97.416016"/>
    <use xlink:href="#DejaVuSans-64" x="158.597656"/>
    <use xlink:href="#DejaVuSans-75" x="222.074219"/>
    <use xlink:href="#DejaVuSans-63" x="285.453125"/>
    <use xlink:href="#DejaVuSans-74" x="340.433594"/>
    <use xlink:href="#DejaVuSans-69" x="379.642578"/>
    <use xlink:href="#DejaVuSans-6f" x="407.425781"/>
    <use xlink:href="#DejaVuSans-6e" x="468.607422"/>
    <use xlink:href="#DejaVuSans-20" x="531.986328"/>
    <use xlink:href="#DejaVuSans-63" x="563.773438"/>
    <use xlink:href="#DejaVuSans-68" x="618.753906"/>
    <use xlink:href="#DejaVuSans-61" x="682.132812"/>
    <use xlink:href="#DejaVuSans-6e" x="743.412109"/>
    <use xlink:href="#DejaVuSans-67" x="806.791016"/>
    <use xlink:href="#DejaVuSans-65" x="870.267578"/>
    <use xlink:href="#DejaVuSans-20" x="931.791016"/>
    <use xlink:href="#DejaVuSans-66" x="963.578125"/>
    <use xlink:href="#DejaVuSans-72" x="998.783203"/>
    <use xlink:href="#DejaVuSans-6f" x="1037.646484"/>
    <use xlink:href="#DejaVuSans-6d" x="1098.828125"/>
    <use xlink:href="#DejaVuSans-20" x="1196.240234"/>
    <use xlink:href="#DejaVuSans-70" x="1228.027344"/>
    <use xlink:href="#DejaVuSans-72" x="1291.503906"/>
    <use xlink:href="#DejaVuSans-65" x="1330.367188"/>
    <use xlink:href="#DejaVuSans-2d" x="1391.890625"/>
    <use xlink:href="#DejaVuSans-73" x="1427.974609"/>
    <use xlink:href="#DejaVuSans-68" x="1480.074219"/>
    <use xlink:href="#DejaVuSans-6f" x="1543.453125"/>
    <use xlink:href="#DejaVuSans-63" x="1604.634766"/>
    <use xlink:href="#DejaVuSans-6b" x="1659.615234"/>
    <use xlink:href="#DejaVuSans-20" x="1717.525391"/>
    <use xlink:href="#DejaVuSans-6c" x="1749.3125"/>
    <use xlink:href="#DejaVuSans-65" x="1777.095703"/>
    <use xlink:href="#DejaVuSans-76" x="1838.619141"/>
    <use xlink:href="#DejaVuSans-65" x="1897.798828"/>
    <use xlink:href="#DejaVuSans-6c" x="1959.322266"/>
   </g>
  </g>
  <g id="legend_1">
   <g id="patch_17">
    <path d="M 11.82 584.31675 
L 1292.617547 584.31675 
Q 1297.237547 584.31675 1297.237547 579.69675 
L 1297.237547 476.97 
Q 1297.237547 472.35 1292.617547 472.35 
L 11.82 472.35 
Q 7.2 472.35 7.2 476.97 
L 7.2 579.69675 
Q 7.2 584.31675 11.82 584.31675 
z
" style="fill: #eaeaf2; opacity: 0.8; stroke: #cccccc; stroke-linejoin: miter"/>
   </g>
   <g id="text_28">
    <!-- Experiences -->
    <g style="fill: #262626" transform="translate(575.384367 500.738062) scale(0.252 -0.252)">
     <defs>
      <path id="DejaVuSans-45" d="M 628 4666 
L 3578 4666 
L 3578 4134 
L 1259 4134 
L 1259 2753 
L 3481 2753 
L 3481 2222 
L 1259 2222 
L 1259 531 
L 3634 531 
L 3634 0 
L 628 0 
L 628 4666 
z
" transform="scale(0.015625)"/>
      <path id="DejaVuSans-78" d="M 3513 3500 
L 2247 1797 
L 3578 0 
L 2900 0 
L 1881 1375 
L 863 0 
L 184 0 
L 1544 1831 
L 300 3500 
L 978 3500 
L 1906 2253 
L 2834 3500 
L 3513 3500 
z
" transform="scale(0.015625)"/>
     </defs>
     <use xlink:href="#DejaVuSans-45"/>
     <use xlink:href="#DejaVuSans-78" x="63.183594"/>
     <use xlink:href="#DejaVuSans-70" x="122.363281"/>
     <use xlink:href="#DejaVuSans-65" x="185.839844"/>
     <use xlink:href="#DejaVuSans-72" x="247.363281"/>
     <use xlink:href="#DejaVuSans-69" x="288.476562"/>
     <use xlink:href="#DejaVuSans-65" x="316.259766"/>
     <use xlink:href="#DejaVuSans-6e" x="377.783203"/>
     <use xlink:href="#DejaVuSans-63" x="441.162109"/>
     <use xlink:href="#DejaVuSans-65" x="496.142578"/>
     <use xlink:href="#DejaVuSans-73" x="557.666016"/>
    </g>
   </g>
   <g id="line2d_61">
    <path d="M 16.44 526.996266 
L 39.54 526.996266 
L 62.64 526.996266 
" style="fill: none; stroke: #4c72b0; stroke-opacity: 0.9; stroke-width: 3; stroke-linecap: round"/>
   </g>
   <g id="text_29">
    <!-- eora26_full_2000 -->
    <g style="fill: #262626" transform="translate(81.12 535.081266) scale(0.231 -0.231)">
     <defs>
      <path id="DejaVuSans-5f" d="M 3263 -1063 
L 3263 -1509 
L -63 -1509 
L -63 -1063 
L 3263 -1063 
z
" transform="scale(0.015625)"/>
     </defs>
     <use xlink:href="#DejaVuSans-65"/>
     <use xlink:href="#DejaVuSans-6f" x="61.523438"/>
     <use xlink:href="#DejaVuSans-72" x="122.705078"/>
     <use xlink:href="#DejaVuSans-61" x="163.818359"/>
     <use xlink:href="#DejaVuSans-32" x="225.097656"/>
     <use xlink:href="#DejaVuSans-36" x="288.720703"/>
     <use xlink:href="#DejaVuSans-5f" x="352.34375"/>
     <use xlink:href="#DejaVuSans-66" x="402.34375"/>
     <use xlink:href="#DejaVuSans-75" x="437.548828"/>
     <use xlink:href="#DejaVuSans-6c" x="500.927734"/>
     <use xlink:href="#DejaVuSans-6c" x="528.710938"/>
     <use xlink:href="#DejaVuSans-5f" x="556.494141"/>
     <use xlink:href="#DejaVuSans-32" x="606.494141"/>
     <use xlink:href="#DejaVuSans-30" x="670.117188"/>
     <use xlink:href="#DejaVuSans-30" x="733.740234"/>
     <use xlink:href="#DejaVuSans-30" x="797.363281"/>
    </g>
   </g>
   <g id="line2d_62">
    <path d="M 16.44 561.545203 
L 39.54 561.545203 
L 62.64 561.545203 
" style="fill: none; stroke: #dd8452; stroke-opacity: 0.9; stroke-width: 3; stroke-linecap: round"/>
   </g>
   <g id="text_30">
    <!-- eora26_full_2010 -->
    <g style="fill: #262626" transform="translate(81.12 569.630203) scale(0.231 -0.231)">
     <defs>
      <path id="DejaVuSans-31" d="M 794 531 
L 1825 531 
L 1825 4091 
L 703 3866 
L 703 4441 
L 1819 4666 
L 2450 4666 
L 2450 531 
L 3481 531 
L 3481 0 
L 794 0 
L 794 531 
z
" transform="scale(0.015625)"/>
     </defs>
     <use xlink:href="#DejaVuSans-65"/>
     <use xlink:href="#DejaVuSans-6f" x="61.523438"/>
     <use xlink:href="#DejaVuSans-72" x="122.705078"/>
     <use xlink:href="#DejaVuSans-61" x="163.818359"/>
     <use xlink:href="#DejaVuSans-32" x="225.097656"/>
     <use xlink:href="#DejaVuSans-36" x="288.720703"/>
     <use xlink:href="#DejaVuSans-5f" x="352.34375"/>
     <use xlink:href="#DejaVuSans-66" x="402.34375"/>
     <use xlink:href="#DejaVuSans-75" x="437.548828"/>
     <use xlink:href="#DejaVuSans-6c" x="500.927734"/>
     <use xlink:href="#DejaVuSans-6c" x="528.710938"/>
     <use xlink:href="#DejaVuSans-5f" x="556.494141"/>
     <use xlink:href="#DejaVuSans-32" x="606.494141"/>
     <use xlink:href="#DejaVuSans-30" x="670.117188"/>
     <use xlink:href="#DejaVuSans-31" x="733.740234"/>
     <use xlink:href="#DejaVuSans-30" x="797.363281"/>
    </g>
   </g>
   <g id="line2d_63">
    <path d="M 326.211 526.996266 
L 349.311 526.996266 
L 372.411 526.996266 
" style="fill: none; stroke: #55a868; stroke-opacity: 0.9; stroke-width: 3; stroke-linecap: round"/>
   </g>
   <g id="text_31">
    <!-- euregio_full_2000 -->
    <g style="fill: #262626" transform="translate(390.891 535.081266) scale(0.231 -0.231)">
     <use xlink:href="#DejaVuSans-65"/>
     <use xlink:href="#DejaVuSans-75" x="61.523438"/>
     <use xlink:href="#DejaVuSans-72" x="124.902344"/>
     <use xlink:href="#DejaVuSans-65" x="163.765625"/>
     <use xlink:href="#DejaVuSans-67" x="225.289062"/>
     <use xlink:href="#DejaVuSans-69" x="288.765625"/>
     <use xlink:href="#DejaVuSans-6f" x="316.548828"/>
     <use xlink:href="#DejaVuSans-5f" x="377.730469"/>
     <use xlink:href="#DejaVuSans-66" x="427.730469"/>
     <use xlink:href="#DejaVuSans-75" x="462.935547"/>
     <use xlink:href="#DejaVuSans-6c" x="526.314453"/>
     <use xlink:href="#DejaVuSans-6c" x="554.097656"/>
     <use xlink:href="#DejaVuSans-5f" x="581.880859"/>
     <use xlink:href="#DejaVuSans-32" x="631.880859"/>
     <use xlink:href="#DejaVuSans-30" x="695.503906"/>
     <use xlink:href="#DejaVuSans-30" x="759.126953"/>
     <use xlink:href="#DejaVuSans-30" x="822.75"/>
    </g>
   </g>
   <g id="line2d_64">
    <path d="M 326.211 561.545203 
L 349.311 561.545203 
L 372.411 561.545203 
" style="fill: none; stroke: #c44e52; stroke-opacity: 0.9; stroke-width: 3; stroke-linecap: round"/>
   </g>
   <g id="text_32">
    <!-- euregio_full_2010 -->
    <g style="fill: #262626" transform="translate(390.891 569.630203) scale(0.231 -0.231)">
     <use xlink:href="#DejaVuSans-65"/>
     <use xlink:href="#DejaVuSans-75" x="61.523438"/>
     <use xlink:href="#DejaVuSans-72" x="124.902344"/>
     <use xlink:href="#DejaVuSans-65" x="163.765625"/>
     <use xlink:href="#DejaVuSans-67" x="225.289062"/>
     <use xlink:href="#DejaVuSans-69" x="288.765625"/>
     <use xlink:href="#DejaVuSans-6f" x="316.548828"/>
     <use xlink:href="#DejaVuSans-5f" x="377.730469"/>
     <use xlink:href="#DejaVuSans-66" x="427.730469"/>
     <use xlink:href="#DejaVuSans-75" x="462.935547"/>
     <use xlink:href="#DejaVuSans-6c" x="526.314453"/>
     <use xlink:href="#DejaVuSans-6c" x="554.097656"/>
     <use xlink:href="#DejaVuSans-5f" x="581.880859"/>
     <use xlink:href="#DejaVuSans-32" x="631.880859"/>
     <use xlink:href="#DejaVuSans-30" x="695.503906"/>
     <use xlink:href="#DejaVuSans-31" x="759.126953"/>
     <use xlink:href="#DejaVuSans-30" x="822.75"/>
    </g>
   </g>
   <g id="line2d_65">
    <path d="M 641.847234 526.996266 
L 664.947234 526.996266 
L 688.047234 526.996266 
" style="fill: none; stroke: #8172b3; stroke-opacity: 0.9; stroke-width: 3; stroke-linecap: round"/>
   </g>
   <g id="text_33">
    <!-- exiobase3_full_2000 -->
    <g style="fill: #262626" transform="translate(706.527234 535.081266) scale(0.231 -0.231)">
     <defs>
      <path id="DejaVuSans-62" d="M 3116 1747 
Q 3116 2381 2855 2742 
Q 2594 3103 2138 3103 
Q 1681 3103 1420 2742 
Q 1159 2381 1159 1747 
Q 1159 1113 1420 752 
Q 1681 391 2138 391 
Q 2594 391 2855 752 
Q 3116 1113 3116 1747 
z
M 1159 2969 
Q 1341 3281 1617 3432 
Q 1894 3584 2278 3584 
Q 2916 3584 3314 3078 
Q 3713 2572 3713 1747 
Q 3713 922 3314 415 
Q 2916 -91 2278 -91 
Q 1894 -91 1617 61 
Q 1341 213 1159 525 
L 1159 0 
L 581 0 
L 581 4863 
L 1159 4863 
L 1159 2969 
z
" transform="scale(0.015625)"/>
     </defs>
     <use xlink:href="#DejaVuSans-65"/>
     <use xlink:href="#DejaVuSans-78" x="59.773438"/>
     <use xlink:href="#DejaVuSans-69" x="118.953125"/>
     <use xlink:href="#DejaVuSans-6f" x="146.736328"/>
     <use xlink:href="#DejaVuSans-62" x="207.917969"/>
     <use xlink:href="#DejaVuSans-61" x="271.394531"/>
     <use xlink:href="#DejaVuSans-73" x="332.673828"/>
     <use xlink:href="#DejaVuSans-65" x="384.773438"/>
     <use xlink:href="#DejaVuSans-33" x="446.296875"/>
     <use xlink:href="#DejaVuSans-5f" x="509.919922"/>
     <use xlink:href="#DejaVuSans-66" x="559.919922"/>
     <use xlink:href="#DejaVuSans-75" x="595.125"/>
     <use xlink:href="#DejaVuSans-6c" x="658.503906"/>
     <use xlink:href="#DejaVuSans-6c" x="686.287109"/>
     <use xlink:href="#DejaVuSans-5f" x="714.070312"/>
     <use xlink:href="#DejaVuSans-32" x="764.070312"/>
     <use xlink:href="#DejaVuSans-30" x="827.693359"/>
     <use xlink:href="#DejaVuSans-30" x="891.316406"/>
     <use xlink:href="#DejaVuSans-30" x="954.939453"/>
    </g>
   </g>
   <g id="line2d_66">
    <path d="M 988.022391 526.996266 
L 1011.122391 526.996266 
L 1034.222391 526.996266 
" style="fill: none; stroke: #937860; stroke-opacity: 0.9; stroke-width: 3; stroke-linecap: round"/>
   </g>
   <g id="text_34">
    <!-- exiobase3_full_2010 -->
    <g style="fill: #262626" transform="translate(1052.702391 535.081266) scale(0.231 -0.231)">
     <use xlink:href="#DejaVuSans-65"/>
     <use xlink:href="#DejaVuSans-78" x="59.773438"/>
     <use xlink:href="#DejaVuSans-69" x="118.953125"/>
     <use xlink:href="#DejaVuSans-6f" x="146.736328"/>
     <use xlink:href="#DejaVuSans-62" x="207.917969"/>
     <use xlink:href="#DejaVuSans-61" x="271.394531"/>
     <use xlink:href="#DejaVuSans-73" x="332.673828"/>
     <use xlink:href="#DejaVuSans-65" x="384.773438"/>
     <use xlink:href="#DejaVuSans-33" x="446.296875"/>
     <use xlink:href="#DejaVuSans-5f" x="509.919922"/>
     <use xlink:href="#DejaVuSans-66" x="559.919922"/>
     <use xlink:href="#DejaVuSans-75" x="595.125"/>
     <use xlink:href="#DejaVuSans-6c" x="658.503906"/>
     <use xlink:href="#DejaVuSans-6c" x="686.287109"/>
     <use xlink:href="#DejaVuSans-5f" x="714.070312"/>
     <use xlink:href="#DejaVuSans-32" x="764.070312"/>
     <use xlink:href="#DejaVuSans-30" x="827.693359"/>
     <use xlink:href="#DejaVuSans-31" x="891.316406"/>
     <use xlink:href="#DejaVuSans-30" x="954.939453"/>
    </g>
   </g>
  </g>
 </g>
 <defs>
  <clipPath id="p4629d0bf27">
   <rect x="189.250488" y="81.456" width="286.154263" height="102.156"/>
  </clipPath>
  <clipPath id="p03f7cc5269">
   <rect x="501.852899" y="81.456" width="286.154263" height="102.156"/>
  </clipPath>
  <clipPath id="p6069612214">
   <rect x="814.45531" y="81.456" width="286.154263" height="102.156"/>
  </clipPath>
  <clipPath id="p81c0038841">
   <rect x="189.250488" y="271.128" width="286.154263" height="102.156"/>
  </clipPath>
  <clipPath id="pc05ef0a932">
   <rect x="501.852899" y="271.128" width="286.154263" height="102.156"/>
  </clipPath>
 </defs>
</svg>
